{
  "name": "Classic Rock (BIAB)",
  "tempo": 150,
  "timeSignature": "4/4",
  "ticksPerQuarter": 120,
  "sffType": "SFF1",
  "division": "BINARY",
  "channelPrograms": {
    "9": 0,
    "10": 35,
    "11": 5,
    "12": 30,
    "13": 48
  },
  "parts": {
    "Intro_A": {
      "type": "Intro_A",
      "sizeInBeats": 24,
      "channels": {
        "9": {
          "ctab": {
            "srcChannel": 9,
            "name": "Drums",
            "accType": "RHYTHM",
            "editable": false,
            "mutedNotes": [],
            "mutedChords": [],
            "sourceChordNote": 0,
            "sourceChordType": "Maj",
            "ctb2Main": {
              "ntr": "ROOT_FIXED",
              "ntt": "BYPASS",
              "bassOn": false,
              "noteLowLimit": 20,
              "noteHighLimit": 127,
              "chordRootUpperLimit": 127,
              "rtr": "RETRIGGER"
            }
          },
          "notes": [
            {
              "pitch": 37,
              "velocity": 84,
              "position": 0.0,
              "duration": 1.0
            },
            {
              "pitch": 37,
              "velocity": 84,
              "position": 2.0,
              "duration": 1.0
            },
            {
              "pitch": 37,
              "velocity": 64,
              "position": 4.0,
              "duration": 1.0
            },
            {
              "pitch": 37,
              "velocity": 84,
              "position": 5.0,
              "duration": 1.0
            },
            {
              "pitch": 37,
              "velocity": 64,
              "position": 6.0,
              "duration": 1.0
            },
            {
              "pitch": 37,
              "velocity": 84,
              "position": 7.0,
              "duration": 1.0
            },
            {
              "pitch": 36,
              "velocity": 67,
              "position": 8.0,
              "duration": 0.041667
            },
            {
              "pitch": 42,
              "velocity": 67,
              "position": 8.0,
              "duration": 0.041667
            },
            {
              "pitch": 46,
              "velocity": 55,
              "position": 8.5,
              "duration": 0.041667
            },
            {
              "pitch": 38,
              "velocity": 76,
              "position": 9.0,
              "duration": 0.041667
            },
            {
              "pitch": 42,
              "velocity": 82,
              "position": 9.0,
              "duration": 0.041667
            },
            {
              "pitch": 42,
              "velocity": 47,
              "position": 9.5,
              "duration": 0.041667
            },
            {
              "pitch": 36,
              "velocity": 66,
              "position": 10.0,
              "duration": 0.041667
            },
            {
              "pitch": 42,
              "velocity": 63,
              "position": 10.0,
              "duration": 0.041667
            },
            {
              "pitch": 42,
              "velocity": 47,
              "position": 10.5,
              "duration": 0.041667
            },
            {
              "pitch": 38,
              "velocity": 79,
              "position": 11.0,
              "duration": 0.041667
            },
            {
              "pitch": 42,
              "velocity": 77,
              "position": 11.0,
              "duration": 0.041667
            },
            {
              "pitch": 40,
              "velocity": 61,
              "position": 11.5,
              "duration": 0.041667
            },
            {
              "pitch": 36,
              "velocity": 70,
              "position": 12.0,
              "duration": 0.058333
            },
            {
              "pitch": 42,
              "velocity": 65,
              "position": 12.008333,
              "duration": 0.041667
            },
            {
              "pitch": 40,
              "velocity": 67,
              "position": 12.5,
              "duration": 0.058333
            },
            {
              "pitch": 42,
              "velocity": 48,
              "position": 12.5,
              "duration": 0.041667
            },
            {
              "pitch": 38,
              "velocity": 81,
              "position": 13.0,
              "duration": 0.041667
            },
            {
              "pitch": 42,
              "velocity": 80,
              "position": 13.0,
              "duration": 0.041667
            },
            {
              "pitch": 46,
              "velocity": 47,
              "position": 13.5,
              "duration": 0.041667
            },
            {
              "pitch": 36,
              "velocity": 70,
              "position": 14.0,
              "duration": 0.041667
            },
            {
              "pitch": 42,
              "velocity": 70,
              "position": 14.0,
              "duration": 0.041667
            },
            {
              "pitch": 36,
              "velocity": 64,
              "position": 14.5,
              "duration": 0.041667
            },
            {
              "pitch": 42,
              "velocity": 47,
              "position": 14.5,
              "duration": 0.041667
            },
            {
              "pitch": 38,
              "velocity": 77,
              "position": 15.0,
              "duration": 0.041667
            },
            {
              "pitch": 42,
              "velocity": 73,
              "position": 15.0,
              "duration": 0.041667
            },
            {
              "pitch": 36,
              "velocity": 63,
              "position": 15.5,
              "duration": 0.041667
            },
            {
              "pitch": 42,
              "velocity": 47,
              "position": 15.5,
              "duration": 0.041667
            },
            {
              "pitch": 36,
              "velocity": 59,
              "position": 16.0,
              "duration": 0.041667
            },
            {
              "pitch": 38,
              "velocity": 65,
              "position": 16.008333,
              "duration": 0.058333
            },
            {
              "pitch": 42,
              "velocity": 57,
              "position": 16.008333,
              "duration": 0.1
            },
            {
              "pitch": 42,
              "velocity": 47,
              "position": 16.5,
              "duration": 0.041667
            },
            {
              "pitch": 38,
              "velocity": 86,
              "position": 17.0,
              "duration": 0.041667
            },
            {
              "pitch": 42,
              "velocity": 88,
              "position": 17.0,
              "duration": 0.041667
            },
            {
              "pitch": 42,
              "velocity": 47,
              "position": 17.5,
              "duration": 0.041667
            },
            {
              "pitch": 36,
              "velocity": 73,
              "position": 18.0,
              "duration": 0.041667
            },
            {
              "pitch": 42,
              "velocity": 69,
              "position": 18.0,
              "duration": 0.041667
            },
            {
              "pitch": 42,
              "velocity": 47,
              "position": 18.5,
              "duration": 0.041667
            },
            {
              "pitch": 38,
              "velocity": 75,
              "position": 19.0,
              "duration": 0.141667
            },
            {
              "pitch": 42,
              "velocity": 70,
              "position": 19.0,
              "duration": 0.041667
            },
            {
              "pitch": 42,
              "velocity": 47,
              "position": 19.5,
              "duration": 0.041667
            },
            {
              "pitch": 40,
              "velocity": 74,
              "position": 19.508333,
              "duration": 0.275
            },
            {
              "pitch": 36,
              "velocity": 80,
              "position": 20.0,
              "duration": 0.058333
            },
            {
              "pitch": 42,
              "velocity": 71,
              "position": 20.0,
              "duration": 0.041667
            },
            {
              "pitch": 40,
              "velocity": 67,
              "position": 20.5,
              "duration": 0.058333
            },
            {
              "pitch": 42,
              "velocity": 55,
              "position": 20.5,
              "duration": 0.041667
            },
            {
              "pitch": 38,
              "velocity": 88,
              "position": 21.0,
              "duration": 0.041667
            },
            {
              "pitch": 42,
              "velocity": 94,
              "position": 21.0,
              "duration": 0.041667
            },
            {
              "pitch": 42,
              "velocity": 63,
              "position": 21.5,
              "duration": 0.041667
            },
            {
              "pitch": 36,
              "velocity": 76,
              "position": 22.0,
              "duration": 0.041667
            },
            {
              "pitch": 42,
              "velocity": 78,
              "position": 22.0,
              "duration": 0.041667
            },
            {
              "pitch": 38,
              "velocity": 97,
              "position": 22.5,
              "duration": 0.041667
            },
            {
              "pitch": 42,
              "velocity": 58,
              "position": 22.5,
              "duration": 0.041667
            },
            {
              "pitch": 42,
              "velocity": 78,
              "position": 23.0,
              "duration": 0.033333
            },
            {
              "pitch": 38,
              "velocity": 90,
              "position": 23.5,
              "duration": 0.033333
            },
            {
              "pitch": 38,
              "velocity": 83,
              "position": 23.75,
              "duration": 0.15
            }
          ]
        },
        "10": {
          "ctab": {
            "srcChannel": 10,
            "name": "Bass",
            "accType": "BASS",
            "editable": true,
            "mutedNotes": [],
            "mutedChords": [],
            "sourceChordNote": 0,
            "sourceChordType": "Maj7",
            "ctb2Main": {
              "ntr": "ROOT_TRANSPOSITION",
              "ntt": "BYPASS",
              "bassOn": true,
              "noteLowLimit": 20,
              "noteHighLimit": 60,
              "chordRootUpperLimit": 127,
              "rtr": "NOTE_GENERATOR"
            }
          },
          "notes": [
            {
              "pitch": 36,
              "velocity": 85,
              "position": 8.0,
              "duration": 0.308333
            },
            {
              "pitch": 36,
              "velocity": 67,
              "position": 8.5,
              "duration": 0.258333
            },
            {
              "pitch": 36,
              "velocity": 78,
              "position": 9.0,
              "duration": 0.266667
            },
            {
              "pitch": 36,
              "velocity": 68,
              "position": 9.5,
              "duration": 0.258333
            },
            {
              "pitch": 36,
              "velocity": 85,
              "position": 10.008333,
              "duration": 0.308333
            },
            {
              "pitch": 36,
              "velocity": 67,
              "position": 10.508333,
              "duration": 0.258333
            },
            {
              "pitch": 36,
              "velocity": 78,
              "position": 11.008333,
              "duration": 0.266667
            },
            {
              "pitch": 43,
              "velocity": 68,
              "position": 11.508333,
              "duration": 0.258333
            },
            {
              "pitch": 36,
              "velocity": 85,
              "position": 12.008333,
              "duration": 0.308333
            },
            {
              "pitch": 36,
              "velocity": 67,
              "position": 12.508333,
              "duration": 0.258333
            },
            {
              "pitch": 36,
              "velocity": 78,
              "position": 13.008333,
              "duration": 0.266667
            },
            {
              "pitch": 36,
              "velocity": 68,
              "position": 13.508333,
              "duration": 0.258333
            },
            {
              "pitch": 36,
              "velocity": 85,
              "position": 14.008333,
              "duration": 0.308333
            },
            {
              "pitch": 36,
              "velocity": 67,
              "position": 14.508333,
              "duration": 0.258333
            },
            {
              "pitch": 36,
              "velocity": 78,
              "position": 15.008333,
              "duration": 0.266667
            },
            {
              "pitch": 36,
              "velocity": 68,
              "position": 15.508333,
              "duration": 0.258333
            },
            {
              "pitch": 36,
              "velocity": 95,
              "position": 16.0,
              "duration": 0.208333
            },
            {
              "pitch": 36,
              "velocity": 73,
              "position": 16.5,
              "duration": 0.225
            },
            {
              "pitch": 36,
              "velocity": 73,
              "position": 17.0,
              "duration": 0.225
            },
            {
              "pitch": 36,
              "velocity": 73,
              "position": 17.5,
              "duration": 0.225
            },
            {
              "pitch": 36,
              "velocity": 73,
              "position": 18.0,
              "duration": 0.225
            },
            {
              "pitch": 36,
              "velocity": 73,
              "position": 18.491667,
              "duration": 0.233333
            },
            {
              "pitch": 36,
              "velocity": 73,
              "position": 19.0,
              "duration": 0.225
            },
            {
              "pitch": 36,
              "velocity": 73,
              "position": 19.508333,
              "duration": 0.216667
            },
            {
              "pitch": 36,
              "velocity": 73,
              "position": 20.0,
              "duration": 0.225
            },
            {
              "pitch": 36,
              "velocity": 73,
              "position": 20.5,
              "duration": 0.233333
            },
            {
              "pitch": 36,
              "velocity": 73,
              "position": 21.0,
              "duration": 0.216667
            },
            {
              "pitch": 36,
              "velocity": 73,
              "position": 21.5,
              "duration": 0.225
            },
            {
              "pitch": 36,
              "velocity": 73,
              "position": 22.0,
              "duration": 0.225
            },
            {
              "pitch": 31,
              "velocity": 73,
              "position": 22.5,
              "duration": 0.216667
            },
            {
              "pitch": 33,
              "velocity": 73,
              "position": 23.0,
              "duration": 0.225
            },
            {
              "pitch": 31,
              "velocity": 73,
              "position": 23.5,
              "duration": 0.225
            }
          ]
        },
        "11": {
          "ctab": {
            "srcChannel": 11,
            "name": "Piano",
            "accType": "CHORD1",
            "editable": true,
            "mutedNotes": [],
            "mutedChords": [],
            "sourceChordNote": 0,
            "sourceChordType": "Maj7",
            "ctb2Main": {
              "ntr": "ROOT_FIXED",
              "ntt": "CHORD",
              "bassOn": false,
              "noteLowLimit": 48,
              "noteHighLimit": 84,
              "chordRootUpperLimit": 127,
              "rtr": "NOTE_GENERATOR"
            }
          },
          "notes": [
            {
              "pitch": 48,
              "velocity": 48,
              "position": 8.008333,
              "duration": 1.408333
            },
            {
              "pitch": 59,
              "velocity": 62,
              "position": 8.016667,
              "duration": 1.4
            },
            {
              "pitch": 62,
              "velocity": 62,
              "position": 8.016667,
              "duration": 1.4
            },
            {
              "pitch": 64,
              "velocity": 62,
              "position": 8.016667,
              "duration": 1.4
            },
            {
              "pitch": 67,
              "velocity": 62,
              "position": 8.016667,
              "duration": 1.4
            },
            {
              "pitch": 48,
              "velocity": 48,
              "position": 9.508333,
              "duration": 0.9
            },
            {
              "pitch": 59,
              "velocity": 62,
              "position": 9.516667,
              "duration": 0.891667
            },
            {
              "pitch": 62,
              "velocity": 62,
              "position": 9.516667,
              "duration": 0.891667
            },
            {
              "pitch": 64,
              "velocity": 62,
              "position": 9.516667,
              "duration": 0.891667
            },
            {
              "pitch": 67,
              "velocity": 62,
              "position": 9.516667,
              "duration": 0.891667
            },
            {
              "pitch": 59,
              "velocity": 75,
              "position": 10.516667,
              "duration": 1.416667
            },
            {
              "pitch": 62,
              "velocity": 75,
              "position": 10.516667,
              "duration": 1.416667
            },
            {
              "pitch": 64,
              "velocity": 75,
              "position": 10.516667,
              "duration": 1.416667
            },
            {
              "pitch": 67,
              "velocity": 75,
              "position": 10.516667,
              "duration": 1.416667
            },
            {
              "pitch": 48,
              "velocity": 52,
              "position": 11.5,
              "duration": 0.308333
            },
            {
              "pitch": 48,
              "velocity": 48,
              "position": 12.008333,
              "duration": 1.475
            },
            {
              "pitch": 59,
              "velocity": 62,
              "position": 12.025,
              "duration": 1.466667
            },
            {
              "pitch": 62,
              "velocity": 62,
              "position": 12.025,
              "duration": 1.466667
            },
            {
              "pitch": 64,
              "velocity": 62,
              "position": 12.025,
              "duration": 1.466667
            },
            {
              "pitch": 67,
              "velocity": 62,
              "position": 12.025,
              "duration": 1.466667
            },
            {
              "pitch": 48,
              "velocity": 48,
              "position": 14.008333,
              "duration": 1.95
            },
            {
              "pitch": 59,
              "velocity": 62,
              "position": 14.016667,
              "duration": 1.941667
            },
            {
              "pitch": 62,
              "velocity": 62,
              "position": 14.016667,
              "duration": 1.941667
            },
            {
              "pitch": 64,
              "velocity": 62,
              "position": 14.016667,
              "duration": 1.941667
            },
            {
              "pitch": 67,
              "velocity": 62,
              "position": 14.016667,
              "duration": 1.941667
            },
            {
              "pitch": 48,
              "velocity": 48,
              "position": 16.008333,
              "duration": 1.475
            },
            {
              "pitch": 59,
              "velocity": 62,
              "position": 16.025,
              "duration": 1.466667
            },
            {
              "pitch": 62,
              "velocity": 62,
              "position": 16.025,
              "duration": 1.466667
            },
            {
              "pitch": 64,
              "velocity": 62,
              "position": 16.025,
              "duration": 1.466667
            },
            {
              "pitch": 67,
              "velocity": 62,
              "position": 16.025,
              "duration": 1.466667
            },
            {
              "pitch": 59,
              "velocity": 62,
              "position": 17.5,
              "duration": 1.0
            },
            {
              "pitch": 62,
              "velocity": 62,
              "position": 17.5,
              "duration": 1.0
            },
            {
              "pitch": 64,
              "velocity": 62,
              "position": 17.5,
              "duration": 1.0
            },
            {
              "pitch": 67,
              "velocity": 62,
              "position": 17.5,
              "duration": 1.0
            },
            {
              "pitch": 55,
              "velocity": 62,
              "position": 18.508333,
              "duration": 0.508333
            },
            {
              "pitch": 59,
              "velocity": 62,
              "position": 19.025,
              "duration": 0.475
            },
            {
              "pitch": 55,
              "velocity": 62,
              "position": 19.508333,
              "duration": 0.475
            },
            {
              "pitch": 59,
              "velocity": 62,
              "position": 19.991667,
              "duration": 1.533333
            },
            {
              "pitch": 62,
              "velocity": 62,
              "position": 19.991667,
              "duration": 1.533333
            },
            {
              "pitch": 64,
              "velocity": 62,
              "position": 19.991667,
              "duration": 1.533333
            },
            {
              "pitch": 67,
              "velocity": 62,
              "position": 19.991667,
              "duration": 1.533333
            },
            {
              "pitch": 48,
              "velocity": 62,
              "position": 20.016667,
              "duration": 1.508333
            },
            {
              "pitch": 59,
              "velocity": 62,
              "position": 21.541667,
              "duration": 0.933333
            },
            {
              "pitch": 62,
              "velocity": 62,
              "position": 21.541667,
              "duration": 0.933333
            },
            {
              "pitch": 67,
              "velocity": 62,
              "position": 21.541667,
              "duration": 0.933333
            },
            {
              "pitch": 59,
              "velocity": 62,
              "position": 22.483333,
              "duration": 1.475
            },
            {
              "pitch": 62,
              "velocity": 62,
              "position": 22.483333,
              "duration": 1.475
            },
            {
              "pitch": 64,
              "velocity": 62,
              "position": 22.483333,
              "duration": 1.475
            },
            {
              "pitch": 67,
              "velocity": 62,
              "position": 22.483333,
              "duration": 1.475
            },
            {
              "pitch": 48,
              "velocity": 62,
              "position": 22.525,
              "duration": 1.433333
            }
          ]
        },
        "12": {
          "ctab": {
            "srcChannel": 12,
            "name": "Guitar",
            "accType": "CHORD2",
            "editable": true,
            "mutedNotes": [],
            "mutedChords": [],
            "sourceChordNote": 0,
            "sourceChordType": "Maj7",
            "ctb2Main": {
              "ntr": "ROOT_FIXED",
              "ntt": "CHORD",
              "bassOn": false,
              "noteLowLimit": 40,
              "noteHighLimit": 76,
              "chordRootUpperLimit": 127,
              "rtr": "NOTE_GENERATOR"
            }
          },
          "notes": [
            {
              "pitch": 60,
              "velocity": 56,
              "position": 8.0,
              "duration": 1.958333
            },
            {
              "pitch": 59,
              "velocity": 56,
              "position": 8.016667,
              "duration": 1.941667
            },
            {
              "pitch": 67,
              "velocity": 51,
              "position": 8.016667,
              "duration": 1.941667
            },
            {
              "pitch": 60,
              "velocity": 56,
              "position": 10.0,
              "duration": 1.416667
            },
            {
              "pitch": 59,
              "velocity": 56,
              "position": 10.016667,
              "duration": 1.4
            },
            {
              "pitch": 67,
              "velocity": 51,
              "position": 10.016667,
              "duration": 1.4
            },
            {
              "pitch": 59,
              "velocity": 55,
              "position": 11.5,
              "duration": 0.7
            },
            {
              "pitch": 60,
              "velocity": 51,
              "position": 11.5,
              "duration": 0.7
            },
            {
              "pitch": 67,
              "velocity": 55,
              "position": 11.5,
              "duration": 0.7
            },
            {
              "pitch": 59,
              "velocity": 51,
              "position": 12.483333,
              "duration": 1.475
            },
            {
              "pitch": 60,
              "velocity": 51,
              "position": 12.5,
              "duration": 1.458333
            },
            {
              "pitch": 67,
              "velocity": 51,
              "position": 12.5,
              "duration": 1.458333
            },
            {
              "pitch": 59,
              "velocity": 58,
              "position": 14.016667,
              "duration": 1.983333
            },
            {
              "pitch": 60,
              "velocity": 35,
              "position": 14.025,
              "duration": 1.975
            },
            {
              "pitch": 67,
              "velocity": 54,
              "position": 14.025,
              "duration": 1.975
            },
            {
              "pitch": 59,
              "velocity": 56,
              "position": 16.0,
              "duration": 3.008333
            },
            {
              "pitch": 52,
              "velocity": 56,
              "position": 16.016667,
              "duration": 3.116667
            },
            {
              "pitch": 60,
              "velocity": 51,
              "position": 16.016667,
              "duration": 3.1
            },
            {
              "pitch": 59,
              "velocity": 55,
              "position": 19.483333,
              "duration": 0.3
            },
            {
              "pitch": 60,
              "velocity": 51,
              "position": 19.516667,
              "duration": 0.266667
            },
            {
              "pitch": 67,
              "velocity": 55,
              "position": 19.525,
              "duration": 0.325
            },
            {
              "pitch": 52,
              "velocity": 51,
              "position": 20.475,
              "duration": 3.116667
            },
            {
              "pitch": 59,
              "velocity": 51,
              "position": 20.483333,
              "duration": 3.183333
            },
            {
              "pitch": 60,
              "velocity": 51,
              "position": 20.5,
              "duration": 3.1
            }
          ]
        },
        "13": {
          "ctab": {
            "srcChannel": 13,
            "name": "Strings",
            "accType": "PAD",
            "editable": true,
            "mutedNotes": [],
            "mutedChords": [],
            "sourceChordNote": 0,
            "sourceChordType": "Maj7",
            "ctb2Main": {
              "ntr": "ROOT_FIXED",
              "ntt": "MELODY",
              "bassOn": false,
              "noteLowLimit": 36,
              "noteHighLimit": 96,
              "chordRootUpperLimit": 127,
              "rtr": "PITCH_SHIFT"
            }
          },
          "notes": [
            {
              "pitch": 52,
              "velocity": 46,
              "position": 11.5,
              "duration": 4.441667
            },
            {
              "pitch": 59,
              "velocity": 52,
              "position": 11.5,
              "duration": 0.958333
            },
            {
              "pitch": 67,
              "velocity": 54,
              "position": 12.483333,
              "duration": 3.466667
            },
            {
              "pitch": 60,
              "velocity": 45,
              "position": 14.525,
              "duration": 0.833333
            },
            {
              "pitch": 59,
              "velocity": 53,
              "position": 15.508333,
              "duration": 0.45
            },
            {
              "pitch": 59,
              "velocity": 48,
              "position": 16.033333,
              "duration": 3.416667
            },
            {
              "pitch": 55,
              "velocity": 52,
              "position": 19.483333,
              "duration": 4.475
            },
            {
              "pitch": 60,
              "velocity": 45,
              "position": 19.483333,
              "duration": 0.991667
            },
            {
              "pitch": 67,
              "velocity": 56,
              "position": 20.483333,
              "duration": 1.008333
            },
            {
              "pitch": 71,
              "velocity": 50,
              "position": 21.5,
              "duration": 1.183333
            },
            {
              "pitch": 60,
              "velocity": 50,
              "position": 22.508333,
              "duration": 1.45
            }
          ]
        }
      }
    },
    "Main_A": {
      "type": "Main_A",
      "sizeInBeats": 16,
      "channels": {
        "9": {
          "ctab": {
            "srcChannel": 9,
            "name": "Drums",
            "accType": "RHYTHM",
            "editable": false,
            "mutedNotes": [],
            "mutedChords": [],
            "sourceChordNote": 0,
            "sourceChordType": "Maj",
            "ctb2Main": {
              "ntr": "ROOT_FIXED",
              "ntt": "BYPASS",
              "bassOn": false,
              "noteLowLimit": 20,
              "noteHighLimit": 127,
              "chordRootUpperLimit": 127,
              "rtr": "RETRIGGER"
            }
          },
          "notes": [
            {
              "pitch": 36,
              "velocity": 68,
              "position": 0.0,
              "duration": 0.041667
            },
            {
              "pitch": 49,
              "velocity": 83,
              "position": 0.016667,
              "duration": 0.041667
            },
            {
              "pitch": 42,
              "velocity": 56,
              "position": 0.5,
              "duration": 0.041667
            },
            {
              "pitch": 38,
              "velocity": 95,
              "position": 1.0,
              "duration": 0.041667
            },
            {
              "pitch": 42,
              "velocity": 97,
              "position": 1.0,
              "duration": 0.041667
            },
            {
              "pitch": 42,
              "velocity": 56,
              "position": 1.5,
              "duration": 0.041667
            },
            {
              "pitch": 36,
              "velocity": 82,
              "position": 2.0,
              "duration": 0.041667
            },
            {
              "pitch": 42,
              "velocity": 78,
              "position": 2.0,
              "duration": 0.041667
            },
            {
              "pitch": 42,
              "velocity": 56,
              "position": 2.5,
              "duration": 0.041667
            },
            {
              "pitch": 38,
              "velocity": 84,
              "position": 3.0,
              "duration": 0.058333
            },
            {
              "pitch": 42,
              "velocity": 79,
              "position": 3.0,
              "duration": 0.041667
            },
            {
              "pitch": 40,
              "velocity": 67,
              "position": 3.5,
              "duration": 0.5
            },
            {
              "pitch": 42,
              "velocity": 56,
              "position": 3.5,
              "duration": 0.041667
            },
            {
              "pitch": 36,
              "velocity": 81,
              "position": 4.0,
              "duration": 0.058333
            },
            {
              "pitch": 42,
              "velocity": 72,
              "position": 4.0,
              "duration": 0.041667
            },
            {
              "pitch": 40,
              "velocity": 67,
              "position": 4.5,
              "duration": 0.058333
            },
            {
              "pitch": 42,
              "velocity": 56,
              "position": 4.5,
              "duration": 0.041667
            },
            {
              "pitch": 38,
              "velocity": 89,
              "position": 5.0,
              "duration": 0.041667
            },
            {
              "pitch": 42,
              "velocity": 95,
              "position": 5.0,
              "duration": 0.041667
            },
            {
              "pitch": 42,
              "velocity": 64,
              "position": 5.5,
              "duration": 0.041667
            },
            {
              "pitch": 36,
              "velocity": 77,
              "position": 6.0,
              "duration": 0.041667
            },
            {
              "pitch": 42,
              "velocity": 79,
              "position": 6.0,
              "duration": 0.041667
            },
            {
              "pitch": 38,
              "velocity": 74,
              "position": 6.5,
              "duration": 0.041667
            },
            {
              "pitch": 42,
              "velocity": 59,
              "position": 6.5,
              "duration": 0.041667
            },
            {
              "pitch": 38,
              "velocity": 89,
              "position": 7.0,
              "duration": 0.058333
            },
            {
              "pitch": 42,
              "velocity": 79,
              "position": 7.0,
              "duration": 0.041667
            },
            {
              "pitch": 38,
              "velocity": 84,
              "position": 7.5,
              "duration": 0.158333
            },
            {
              "pitch": 42,
              "velocity": 56,
              "position": 7.5,
              "duration": 0.041667
            },
            {
              "pitch": 36,
              "velocity": 76,
              "position": 8.0,
              "duration": 0.041667
            },
            {
              "pitch": 42,
              "velocity": 76,
              "position": 8.0,
              "duration": 0.041667
            },
            {
              "pitch": 46,
              "velocity": 64,
              "position": 8.5,
              "duration": 0.041667
            },
            {
              "pitch": 38,
              "velocity": 85,
              "position": 9.0,
              "duration": 0.041667
            },
            {
              "pitch": 42,
              "velocity": 91,
              "position": 9.0,
              "duration": 0.041667
            },
            {
              "pitch": 42,
              "velocity": 56,
              "position": 9.5,
              "duration": 0.041667
            },
            {
              "pitch": 36,
              "velocity": 75,
              "position": 10.0,
              "duration": 0.041667
            },
            {
              "pitch": 42,
              "velocity": 72,
              "position": 10.0,
              "duration": 0.041667
            },
            {
              "pitch": 42,
              "velocity": 56,
              "position": 10.5,
              "duration": 0.041667
            },
            {
              "pitch": 38,
              "velocity": 88,
              "position": 11.0,
              "duration": 0.041667
            },
            {
              "pitch": 42,
              "velocity": 86,
              "position": 11.0,
              "duration": 0.041667
            },
            {
              "pitch": 40,
              "velocity": 56,
              "position": 11.5,
              "duration": 0.041667
            },
            {
              "pitch": 36,
              "velocity": 80,
              "position": 12.0,
              "duration": 0.058333
            },
            {
              "pitch": 42,
              "velocity": 71,
              "position": 12.0,
              "duration": 0.041667
            },
            {
              "pitch": 40,
              "velocity": 67,
              "position": 12.5,
              "duration": 0.058333
            },
            {
              "pitch": 42,
              "velocity": 55,
              "position": 12.5,
              "duration": 0.041667
            },
            {
              "pitch": 38,
              "velocity": 88,
              "position": 13.0,
              "duration": 0.041667
            },
            {
              "pitch": 42,
              "velocity": 94,
              "position": 13.0,
              "duration": 0.041667
            },
            {
              "pitch": 42,
              "velocity": 63,
              "position": 13.5,
              "duration": 0.041667
            },
            {
              "pitch": 36,
              "velocity": 76,
              "position": 14.0,
              "duration": 0.041667
            },
            {
              "pitch": 42,
              "velocity": 78,
              "position": 14.0,
              "duration": 0.041667
            },
            {
              "pitch": 38,
              "velocity": 73,
              "position": 14.5,
              "duration": 0.041667
            },
            {
              "pitch": 42,
              "velocity": 58,
              "position": 14.5,
              "duration": 0.041667
            },
            {
              "pitch": 38,
              "velocity": 88,
              "position": 15.0,
              "duration": 0.058333
            },
            {
              "pitch": 42,
              "velocity": 78,
              "position": 15.0,
              "duration": 0.041667
            },
            {
              "pitch": 38,
              "velocity": 83,
              "position": 15.5,
              "duration": 0.158333
            },
            {
              "pitch": 42,
              "velocity": 55,
              "position": 15.5,
              "duration": 0.041667
            }
          ]
        },
        "10": {
          "ctab": {
            "srcChannel": 10,
            "name": "Bass",
            "accType": "BASS",
            "editable": true,
            "mutedNotes": [],
            "mutedChords": [],
            "sourceChordNote": 0,
            "sourceChordType": "Maj7",
            "ctb2Main": {
              "ntr": "ROOT_TRANSPOSITION",
              "ntt": "BYPASS",
              "bassOn": true,
              "noteLowLimit": 20,
              "noteHighLimit": 60,
              "chordRootUpperLimit": 127,
              "rtr": "NOTE_GENERATOR"
            }
          },
          "notes": [
            {
              "pitch": 36,
              "velocity": 94,
              "position": 0.008333,
              "duration": 0.308333
            },
            {
              "pitch": 36,
              "velocity": 76,
              "position": 0.508333,
              "duration": 0.258333
            },
            {
              "pitch": 36,
              "velocity": 87,
              "position": 1.008333,
              "duration": 0.266667
            },
            {
              "pitch": 33,
              "velocity": 77,
              "position": 1.508333,
              "duration": 0.258333
            },
            {
              "pitch": 36,
              "velocity": 94,
              "position": 2.0,
              "duration": 0.308333
            },
            {
              "pitch": 36,
              "velocity": 76,
              "position": 2.5,
              "duration": 0.258333
            },
            {
              "pitch": 36,
              "velocity": 87,
              "position": 3.0,
              "duration": 0.266667
            },
            {
              "pitch": 36,
              "velocity": 77,
              "position": 3.5,
              "duration": 0.258333
            },
            {
              "pitch": 36,
              "velocity": 94,
              "position": 4.008333,
              "duration": 0.308333
            },
            {
              "pitch": 36,
              "velocity": 76,
              "position": 4.508333,
              "duration": 0.258333
            },
            {
              "pitch": 36,
              "velocity": 87,
              "position": 5.008333,
              "duration": 0.266667
            },
            {
              "pitch": 43,
              "velocity": 77,
              "position": 5.508333,
              "duration": 0.258333
            },
            {
              "pitch": 36,
              "velocity": 94,
              "position": 6.008333,
              "duration": 0.308333
            },
            {
              "pitch": 36,
              "velocity": 76,
              "position": 6.508333,
              "duration": 0.258333
            },
            {
              "pitch": 36,
              "velocity": 87,
              "position": 7.008333,
              "duration": 0.266667
            },
            {
              "pitch": 36,
              "velocity": 77,
              "position": 7.508333,
              "duration": 0.258333
            },
            {
              "pitch": 36,
              "velocity": 100,
              "position": 8.0,
              "duration": 0.275
            },
            {
              "pitch": 36,
              "velocity": 82,
              "position": 8.5,
              "duration": 0.225
            },
            {
              "pitch": 36,
              "velocity": 82,
              "position": 9.0,
              "duration": 0.233333
            },
            {
              "pitch": 36,
              "velocity": 82,
              "position": 9.5,
              "duration": 0.225
            },
            {
              "pitch": 36,
              "velocity": 82,
              "position": 10.0,
              "duration": 0.216667
            },
            {
              "pitch": 36,
              "velocity": 82,
              "position": 10.5,
              "duration": 0.225
            },
            {
              "pitch": 36,
              "velocity": 82,
              "position": 11.008333,
              "duration": 0.216667
            },
            {
              "pitch": 36,
              "velocity": 82,
              "position": 11.5,
              "duration": 0.225
            },
            {
              "pitch": 36,
              "velocity": 82,
              "position": 12.0,
              "duration": 0.225
            },
            {
              "pitch": 36,
              "velocity": 82,
              "position": 12.5,
              "duration": 0.225
            },
            {
              "pitch": 36,
              "velocity": 82,
              "position": 13.0,
              "duration": 0.225
            },
            {
              "pitch": 36,
              "velocity": 82,
              "position": 13.5,
              "duration": 0.225
            },
            {
              "pitch": 36,
              "velocity": 82,
              "position": 14.0,
              "duration": 0.225
            },
            {
              "pitch": 31,
              "velocity": 82,
              "position": 14.5,
              "duration": 0.225
            },
            {
              "pitch": 43,
              "velocity": 82,
              "position": 15.0,
              "duration": 0.225
            },
            {
              "pitch": 31,
              "velocity": 82,
              "position": 15.5,
              "duration": 0.225
            }
          ]
        },
        "11": {
          "ctab": {
            "srcChannel": 11,
            "name": "Piano",
            "accType": "CHORD1",
            "editable": true,
            "mutedNotes": [],
            "mutedChords": [],
            "sourceChordNote": 0,
            "sourceChordType": "Maj7",
            "ctb2Main": {
              "ntr": "ROOT_FIXED",
              "ntt": "CHORD",
              "bassOn": false,
              "noteLowLimit": 48,
              "noteHighLimit": 84,
              "chordRootUpperLimit": 127,
              "rtr": "NOTE_GENERATOR"
            }
          },
          "notes": [
            {
              "pitch": 48,
              "velocity": 57,
              "position": 0.008333,
              "duration": 1.95
            },
            {
              "pitch": 59,
              "velocity": 71,
              "position": 0.025,
              "duration": 1.933333
            },
            {
              "pitch": 62,
              "velocity": 71,
              "position": 0.025,
              "duration": 1.933333
            },
            {
              "pitch": 64,
              "velocity": 71,
              "position": 0.025,
              "duration": 1.933333
            },
            {
              "pitch": 67,
              "velocity": 71,
              "position": 0.025,
              "duration": 1.933333
            },
            {
              "pitch": 48,
              "velocity": 57,
              "position": 2.008333,
              "duration": 1.95
            },
            {
              "pitch": 59,
              "velocity": 71,
              "position": 2.016667,
              "duration": 1.941667
            },
            {
              "pitch": 62,
              "velocity": 71,
              "position": 2.016667,
              "duration": 1.941667
            },
            {
              "pitch": 64,
              "velocity": 71,
              "position": 2.016667,
              "duration": 1.941667
            },
            {
              "pitch": 67,
              "velocity": 71,
              "position": 2.016667,
              "duration": 1.941667
            },
            {
              "pitch": 48,
              "velocity": 55,
              "position": 4.008333,
              "duration": 1.475
            },
            {
              "pitch": 59,
              "velocity": 69,
              "position": 4.025,
              "duration": 1.466667
            },
            {
              "pitch": 62,
              "velocity": 69,
              "position": 4.025,
              "duration": 1.466667
            },
            {
              "pitch": 64,
              "velocity": 69,
              "position": 4.025,
              "duration": 1.466667
            },
            {
              "pitch": 67,
              "velocity": 69,
              "position": 4.025,
              "duration": 1.466667
            },
            {
              "pitch": 48,
              "velocity": 57,
              "position": 6.008333,
              "duration": 1.95
            },
            {
              "pitch": 59,
              "velocity": 71,
              "position": 6.016667,
              "duration": 1.941667
            },
            {
              "pitch": 62,
              "velocity": 71,
              "position": 6.016667,
              "duration": 1.941667
            },
            {
              "pitch": 64,
              "velocity": 71,
              "position": 6.016667,
              "duration": 1.941667
            },
            {
              "pitch": 67,
              "velocity": 71,
              "position": 6.016667,
              "duration": 1.941667
            },
            {
              "pitch": 48,
              "velocity": 55,
              "position": 8.008333,
              "duration": 3.3
            },
            {
              "pitch": 59,
              "velocity": 69,
              "position": 8.025,
              "duration": 3.266667
            },
            {
              "pitch": 62,
              "velocity": 69,
              "position": 8.025,
              "duration": 3.266667
            },
            {
              "pitch": 64,
              "velocity": 69,
              "position": 8.025,
              "duration": 3.266667
            },
            {
              "pitch": 67,
              "velocity": 69,
              "position": 8.025,
              "duration": 3.266667
            },
            {
              "pitch": 59,
              "velocity": 69,
              "position": 11.516667,
              "duration": 4.441667
            },
            {
              "pitch": 62,
              "velocity": 69,
              "position": 11.516667,
              "duration": 4.441667
            },
            {
              "pitch": 64,
              "velocity": 69,
              "position": 11.516667,
              "duration": 4.441667
            },
            {
              "pitch": 67,
              "velocity": 69,
              "position": 11.516667,
              "duration": 4.441667
            },
            {
              "pitch": 48,
              "velocity": 69,
              "position": 11.533333,
              "duration": 4.425
            }
          ]
        },
        "12": {
          "ctab": {
            "srcChannel": 12,
            "name": "Guitar",
            "accType": "CHORD2",
            "editable": true,
            "mutedNotes": [],
            "mutedChords": [],
            "sourceChordNote": 0,
            "sourceChordType": "Maj7",
            "ctb2Main": {
              "ntr": "ROOT_FIXED",
              "ntt": "CHORD",
              "bassOn": false,
              "noteLowLimit": 40,
              "noteHighLimit": 76,
              "chordRootUpperLimit": 127,
              "rtr": "NOTE_GENERATOR"
            }
          },
          "notes": [
            {
              "pitch": 60,
              "velocity": 64,
              "position": 0.0,
              "duration": 1.416667
            },
            {
              "pitch": 59,
              "velocity": 64,
              "position": 0.016667,
              "duration": 1.4
            },
            {
              "pitch": 67,
              "velocity": 59,
              "position": 0.016667,
              "duration": 1.4
            },
            {
              "pitch": 60,
              "velocity": 64,
              "position": 1.5,
              "duration": 1.916667
            },
            {
              "pitch": 59,
              "velocity": 64,
              "position": 1.516667,
              "duration": 1.9
            },
            {
              "pitch": 67,
              "velocity": 59,
              "position": 1.516667,
              "duration": 1.9
            },
            {
              "pitch": 59,
              "velocity": 64,
              "position": 3.5,
              "duration": 0.7
            },
            {
              "pitch": 60,
              "velocity": 60,
              "position": 3.5,
              "duration": 0.7
            },
            {
              "pitch": 67,
              "velocity": 64,
              "position": 3.5,
              "duration": 0.7
            },
            {
              "pitch": 60,
              "velocity": 60,
              "position": 4.5,
              "duration": 0.65
            },
            {
              "pitch": 59,
              "velocity": 65,
              "position": 5.0,
              "duration": 0.658333
            },
            {
              "pitch": 55,
              "velocity": 60,
              "position": 5.5,
              "duration": 0.416667
            },
            {
              "pitch": 59,
              "velocity": 65,
              "position": 6.0,
              "duration": 2.0
            },
            {
              "pitch": 52,
              "velocity": 65,
              "position": 6.016667,
              "duration": 1.983333
            },
            {
              "pitch": 60,
              "velocity": 60,
              "position": 6.016667,
              "duration": 1.983333
            },
            {
              "pitch": 60,
              "velocity": 65,
              "position": 8.0,
              "duration": 3.008333
            },
            {
              "pitch": 59,
              "velocity": 65,
              "position": 8.016667,
              "duration": 3.116667
            },
            {
              "pitch": 67,
              "velocity": 60,
              "position": 8.016667,
              "duration": 3.1
            },
            {
              "pitch": 48,
              "velocity": 63,
              "position": 8.033333,
              "duration": 2.933333
            },
            {
              "pitch": 59,
              "velocity": 64,
              "position": 11.483333,
              "duration": 0.641667
            },
            {
              "pitch": 60,
              "velocity": 60,
              "position": 11.516667,
              "duration": 0.466667
            },
            {
              "pitch": 67,
              "velocity": 64,
              "position": 11.525,
              "duration": 0.483333
            },
            {
              "pitch": 67,
              "velocity": 60,
              "position": 12.475,
              "duration": 3.291667
            },
            {
              "pitch": 48,
              "velocity": 63,
              "position": 12.483333,
              "duration": 1.733333
            },
            {
              "pitch": 59,
              "velocity": 60,
              "position": 12.483333,
              "duration": 3.208333
            },
            {
              "pitch": 60,
              "velocity": 60,
              "position": 12.5,
              "duration": 3.258333
            },
            {
              "pitch": 48,
              "velocity": 63,
              "position": 14.525,
              "duration": 0.591667
            },
            {
              "pitch": 48,
              "velocity": 63,
              "position": 15.516667,
              "duration": 0.483333
            }
          ]
        },
        "13": {
          "ctab": {
            "srcChannel": 13,
            "name": "Strings",
            "accType": "PAD",
            "editable": true,
            "mutedNotes": [],
            "mutedChords": [],
            "sourceChordNote": 0,
            "sourceChordType": "Maj7",
            "ctb2Main": {
              "ntr": "ROOT_FIXED",
              "ntt": "MELODY",
              "bassOn": false,
              "noteLowLimit": 36,
              "noteHighLimit": 96,
              "chordRootUpperLimit": 127,
              "rtr": "PITCH_SHIFT"
            }
          },
          "notes": [
            {
              "pitch": 52,
              "velocity": 42,
              "position": 3.5,
              "duration": 4.441667
            },
            {
              "pitch": 59,
              "velocity": 48,
              "position": 3.5,
              "duration": 0.958333
            },
            {
              "pitch": 67,
              "velocity": 50,
              "position": 4.483333,
              "duration": 0.933333
            },
            {
              "pitch": 59,
              "velocity": 50,
              "position": 5.5,
              "duration": 1.816667
            },
            {
              "pitch": 60,
              "velocity": 40,
              "position": 6.525,
              "duration": 0.833333
            },
            {
              "pitch": 55,
              "velocity": 48,
              "position": 7.508333,
              "duration": 0.375
            },
            {
              "pitch": 55,
              "velocity": 58,
              "position": 11.483333,
              "duration": 4.475
            },
            {
              "pitch": 60,
              "velocity": 58,
              "position": 11.483333,
              "duration": 0.991667
            },
            {
              "pitch": 67,
              "velocity": 58,
              "position": 12.483333,
              "duration": 3.475
            }
          ]
        }
      }
    },
    "Main_B": {
      "type": "Main_B",
      "sizeInBeats": 16,
      "channels": {
        "9": {
          "ctab": {
            "srcChannel": 9,
            "name": "Drums",
            "accType": "RHYTHM",
            "editable": false,
            "mutedNotes": [],
            "mutedChords": [],
            "sourceChordNote": 0,
            "sourceChordType": "Maj",
            "ctb2Main": {
              "ntr": "ROOT_FIXED",
              "ntt": "BYPASS",
              "bassOn": false,
              "noteLowLimit": 20,
              "noteHighLimit": 127,
              "chordRootUpperLimit": 127,
              "rtr": "RETRIGGER"
            }
          },
          "notes": [
            {
              "pitch": 36,
              "velocity": 68,
              "position": 0.0,
              "duration": 0.041667
            },
            {
              "pitch": 49,
              "velocity": 83,
              "position": 0.016667,
              "duration": 0.041667
            },
            {
              "pitch": 42,
              "velocity": 56,
              "position": 0.5,
              "duration": 0.041667
            },
            {
              "pitch": 38,
              "velocity": 95,
              "position": 1.0,
              "duration": 0.041667
            },
            {
              "pitch": 42,
              "velocity": 97,
              "position": 1.0,
              "duration": 0.041667
            },
            {
              "pitch": 42,
              "velocity": 56,
              "position": 1.5,
              "duration": 0.041667
            },
            {
              "pitch": 36,
              "velocity": 82,
              "position": 2.0,
              "duration": 0.041667
            },
            {
              "pitch": 42,
              "velocity": 78,
              "position": 2.0,
              "duration": 0.041667
            },
            {
              "pitch": 42,
              "velocity": 56,
              "position": 2.5,
              "duration": 0.041667
            },
            {
              "pitch": 38,
              "velocity": 84,
              "position": 3.0,
              "duration": 0.058333
            },
            {
              "pitch": 42,
              "velocity": 79,
              "position": 3.0,
              "duration": 0.041667
            },
            {
              "pitch": 40,
              "velocity": 67,
              "position": 3.5,
              "duration": 0.5
            },
            {
              "pitch": 42,
              "velocity": 56,
              "position": 3.5,
              "duration": 0.041667
            },
            {
              "pitch": 36,
              "velocity": 81,
              "position": 4.0,
              "duration": 0.058333
            },
            {
              "pitch": 42,
              "velocity": 72,
              "position": 4.0,
              "duration": 0.041667
            },
            {
              "pitch": 40,
              "velocity": 67,
              "position": 4.5,
              "duration": 0.058333
            },
            {
              "pitch": 42,
              "velocity": 56,
              "position": 4.5,
              "duration": 0.041667
            },
            {
              "pitch": 38,
              "velocity": 89,
              "position": 5.0,
              "duration": 0.041667
            },
            {
              "pitch": 42,
              "velocity": 95,
              "position": 5.0,
              "duration": 0.041667
            },
            {
              "pitch": 42,
              "velocity": 64,
              "position": 5.5,
              "duration": 0.041667
            },
            {
              "pitch": 36,
              "velocity": 77,
              "position": 6.0,
              "duration": 0.041667
            },
            {
              "pitch": 42,
              "velocity": 79,
              "position": 6.0,
              "duration": 0.041667
            },
            {
              "pitch": 38,
              "velocity": 74,
              "position": 6.5,
              "duration": 0.041667
            },
            {
              "pitch": 42,
              "velocity": 59,
              "position": 6.5,
              "duration": 0.041667
            },
            {
              "pitch": 38,
              "velocity": 89,
              "position": 7.0,
              "duration": 0.058333
            },
            {
              "pitch": 42,
              "velocity": 79,
              "position": 7.0,
              "duration": 0.041667
            },
            {
              "pitch": 38,
              "velocity": 84,
              "position": 7.5,
              "duration": 0.158333
            },
            {
              "pitch": 42,
              "velocity": 56,
              "position": 7.5,
              "duration": 0.041667
            },
            {
              "pitch": 36,
              "velocity": 79,
              "position": 8.0,
              "duration": 0.041667
            },
            {
              "pitch": 42,
              "velocity": 76,
              "position": 8.0,
              "duration": 0.041667
            },
            {
              "pitch": 42,
              "velocity": 56,
              "position": 8.5,
              "duration": 0.041667
            },
            {
              "pitch": 38,
              "velocity": 87,
              "position": 9.0,
              "duration": 0.041667
            },
            {
              "pitch": 42,
              "velocity": 89,
              "position": 9.0,
              "duration": 0.041667
            },
            {
              "pitch": 42,
              "velocity": 56,
              "position": 9.5,
              "duration": 0.041667
            },
            {
              "pitch": 36,
              "velocity": 79,
              "position": 10.0,
              "duration": 0.041667
            },
            {
              "pitch": 42,
              "velocity": 79,
              "position": 10.0,
              "duration": 0.041667
            },
            {
              "pitch": 42,
              "velocity": 56,
              "position": 10.491667,
              "duration": 0.041667
            },
            {
              "pitch": 38,
              "velocity": 91,
              "position": 11.0,
              "duration": 0.058333
            },
            {
              "pitch": 42,
              "velocity": 91,
              "position": 11.0,
              "duration": 0.041667
            },
            {
              "pitch": 38,
              "velocity": 67,
              "position": 11.5,
              "duration": 0.158333
            },
            {
              "pitch": 42,
              "velocity": 59,
              "position": 11.5,
              "duration": 0.041667
            },
            {
              "pitch": 36,
              "velocity": 80,
              "position": 12.0,
              "duration": 0.058333
            },
            {
              "pitch": 42,
              "velocity": 71,
              "position": 12.0,
              "duration": 0.041667
            },
            {
              "pitch": 40,
              "velocity": 67,
              "position": 12.5,
              "duration": 0.058333
            },
            {
              "pitch": 42,
              "velocity": 55,
              "position": 12.5,
              "duration": 0.041667
            },
            {
              "pitch": 38,
              "velocity": 88,
              "position": 13.0,
              "duration": 0.041667
            },
            {
              "pitch": 42,
              "velocity": 94,
              "position": 13.0,
              "duration": 0.041667
            },
            {
              "pitch": 42,
              "velocity": 63,
              "position": 13.5,
              "duration": 0.041667
            },
            {
              "pitch": 36,
              "velocity": 76,
              "position": 14.0,
              "duration": 0.041667
            },
            {
              "pitch": 42,
              "velocity": 78,
              "position": 14.0,
              "duration": 0.041667
            },
            {
              "pitch": 38,
              "velocity": 97,
              "position": 14.5,
              "duration": 0.041667
            },
            {
              "pitch": 42,
              "velocity": 78,
              "position": 15.0,
              "duration": 0.033333
            },
            {
              "pitch": 38,
              "velocity": 90,
              "position": 15.5,
              "duration": 0.033333
            },
            {
              "pitch": 38,
              "velocity": 83,
              "position": 15.75,
              "duration": 0.15
            }
          ]
        },
        "10": {
          "ctab": {
            "srcChannel": 10,
            "name": "Bass",
            "accType": "BASS",
            "editable": true,
            "mutedNotes": [],
            "mutedChords": [],
            "sourceChordNote": 0,
            "sourceChordType": "Maj7",
            "ctb2Main": {
              "ntr": "ROOT_TRANSPOSITION",
              "ntt": "BYPASS",
              "bassOn": true,
              "noteLowLimit": 20,
              "noteHighLimit": 60,
              "chordRootUpperLimit": 127,
              "rtr": "NOTE_GENERATOR"
            }
          },
          "notes": [
            {
              "pitch": 36,
              "velocity": 94,
              "position": 0.008333,
              "duration": 0.308333
            },
            {
              "pitch": 36,
              "velocity": 76,
              "position": 0.508333,
              "duration": 0.258333
            },
            {
              "pitch": 36,
              "velocity": 87,
              "position": 1.008333,
              "duration": 0.266667
            },
            {
              "pitch": 33,
              "velocity": 77,
              "position": 1.508333,
              "duration": 0.258333
            },
            {
              "pitch": 36,
              "velocity": 94,
              "position": 2.0,
              "duration": 0.308333
            },
            {
              "pitch": 36,
              "velocity": 76,
              "position": 2.5,
              "duration": 0.258333
            },
            {
              "pitch": 36,
              "velocity": 87,
              "position": 3.0,
              "duration": 0.266667
            },
            {
              "pitch": 36,
              "velocity": 77,
              "position": 3.5,
              "duration": 0.258333
            },
            {
              "pitch": 36,
              "velocity": 94,
              "position": 4.0,
              "duration": 0.308333
            },
            {
              "pitch": 36,
              "velocity": 76,
              "position": 4.5,
              "duration": 0.258333
            },
            {
              "pitch": 36,
              "velocity": 87,
              "position": 5.0,
              "duration": 0.266667
            },
            {
              "pitch": 36,
              "velocity": 77,
              "position": 5.5,
              "duration": 0.258333
            },
            {
              "pitch": 36,
              "velocity": 94,
              "position": 6.0,
              "duration": 0.308333
            },
            {
              "pitch": 36,
              "velocity": 76,
              "position": 6.5,
              "duration": 0.258333
            },
            {
              "pitch": 36,
              "velocity": 87,
              "position": 7.0,
              "duration": 0.266667
            },
            {
              "pitch": 36,
              "velocity": 77,
              "position": 7.5,
              "duration": 0.258333
            },
            {
              "pitch": 36,
              "velocity": 100,
              "position": 8.0,
              "duration": 0.275
            },
            {
              "pitch": 36,
              "velocity": 82,
              "position": 8.5,
              "duration": 0.225
            },
            {
              "pitch": 36,
              "velocity": 82,
              "position": 9.0,
              "duration": 0.233333
            },
            {
              "pitch": 36,
              "velocity": 82,
              "position": 9.5,
              "duration": 0.225
            },
            {
              "pitch": 36,
              "velocity": 82,
              "position": 10.0,
              "duration": 0.216667
            },
            {
              "pitch": 36,
              "velocity": 82,
              "position": 10.5,
              "duration": 0.225
            },
            {
              "pitch": 36,
              "velocity": 82,
              "position": 11.008333,
              "duration": 0.216667
            },
            {
              "pitch": 36,
              "velocity": 82,
              "position": 11.5,
              "duration": 0.225
            },
            {
              "pitch": 36,
              "velocity": 82,
              "position": 12.0,
              "duration": 0.225
            },
            {
              "pitch": 36,
              "velocity": 82,
              "position": 12.5,
              "duration": 0.225
            },
            {
              "pitch": 36,
              "velocity": 82,
              "position": 13.0,
              "duration": 0.225
            },
            {
              "pitch": 36,
              "velocity": 82,
              "position": 13.5,
              "duration": 0.225
            },
            {
              "pitch": 36,
              "velocity": 82,
              "position": 14.0,
              "duration": 0.225
            },
            {
              "pitch": 31,
              "velocity": 82,
              "position": 14.5,
              "duration": 0.225
            },
            {
              "pitch": 43,
              "velocity": 82,
              "position": 15.0,
              "duration": 0.225
            },
            {
              "pitch": 31,
              "velocity": 82,
              "position": 15.5,
              "duration": 0.225
            }
          ]
        },
        "11": {
          "ctab": {
            "srcChannel": 11,
            "name": "Piano",
            "accType": "CHORD1",
            "editable": true,
            "mutedNotes": [],
            "mutedChords": [],
            "sourceChordNote": 0,
            "sourceChordType": "Maj7",
            "ctb2Main": {
              "ntr": "ROOT_FIXED",
              "ntt": "CHORD",
              "bassOn": false,
              "noteLowLimit": 48,
              "noteHighLimit": 84,
              "chordRootUpperLimit": 127,
              "rtr": "NOTE_GENERATOR"
            }
          },
          "notes": [
            {
              "pitch": 48,
              "velocity": 55,
              "position": 0.008333,
              "duration": 1.475
            },
            {
              "pitch": 59,
              "velocity": 69,
              "position": 0.025,
              "duration": 1.466667
            },
            {
              "pitch": 62,
              "velocity": 69,
              "position": 0.025,
              "duration": 1.466667
            },
            {
              "pitch": 64,
              "velocity": 69,
              "position": 0.025,
              "duration": 1.466667
            },
            {
              "pitch": 67,
              "velocity": 69,
              "position": 0.025,
              "duration": 1.466667
            },
            {
              "pitch": 48,
              "velocity": 57,
              "position": 2.008333,
              "duration": 1.95
            },
            {
              "pitch": 59,
              "velocity": 71,
              "position": 2.016667,
              "duration": 1.941667
            },
            {
              "pitch": 62,
              "velocity": 71,
              "position": 2.016667,
              "duration": 1.941667
            },
            {
              "pitch": 64,
              "velocity": 71,
              "position": 2.016667,
              "duration": 1.941667
            },
            {
              "pitch": 67,
              "velocity": 71,
              "position": 2.016667,
              "duration": 1.941667
            },
            {
              "pitch": 48,
              "velocity": 57,
              "position": 4.008333,
              "duration": 1.95
            },
            {
              "pitch": 59,
              "velocity": 71,
              "position": 4.016667,
              "duration": 1.941667
            },
            {
              "pitch": 62,
              "velocity": 71,
              "position": 4.016667,
              "duration": 1.941667
            },
            {
              "pitch": 64,
              "velocity": 71,
              "position": 4.016667,
              "duration": 1.941667
            },
            {
              "pitch": 67,
              "velocity": 71,
              "position": 4.016667,
              "duration": 1.941667
            },
            {
              "pitch": 48,
              "velocity": 55,
              "position": 6.008333,
              "duration": 1.241667
            },
            {
              "pitch": 59,
              "velocity": 69,
              "position": 6.016667,
              "duration": 1.783333
            },
            {
              "pitch": 62,
              "velocity": 69,
              "position": 6.016667,
              "duration": 1.783333
            },
            {
              "pitch": 64,
              "velocity": 69,
              "position": 6.016667,
              "duration": 1.783333
            },
            {
              "pitch": 67,
              "velocity": 69,
              "position": 6.016667,
              "duration": 1.783333
            },
            {
              "pitch": 55,
              "velocity": 63,
              "position": 6.5,
              "duration": 0.283333
            },
            {
              "pitch": 48,
              "velocity": 69,
              "position": 7.5,
              "duration": 0.308333
            },
            {
              "pitch": 48,
              "velocity": 55,
              "position": 8.008333,
              "duration": 3.3
            },
            {
              "pitch": 59,
              "velocity": 69,
              "position": 8.025,
              "duration": 3.266667
            },
            {
              "pitch": 62,
              "velocity": 69,
              "position": 8.025,
              "duration": 3.266667
            },
            {
              "pitch": 64,
              "velocity": 69,
              "position": 8.025,
              "duration": 3.266667
            },
            {
              "pitch": 67,
              "velocity": 69,
              "position": 8.025,
              "duration": 3.266667
            },
            {
              "pitch": 59,
              "velocity": 69,
              "position": 11.516667,
              "duration": 4.441667
            },
            {
              "pitch": 62,
              "velocity": 69,
              "position": 11.516667,
              "duration": 4.441667
            },
            {
              "pitch": 64,
              "velocity": 69,
              "position": 11.516667,
              "duration": 4.441667
            },
            {
              "pitch": 67,
              "velocity": 69,
              "position": 11.516667,
              "duration": 4.441667
            },
            {
              "pitch": 48,
              "velocity": 69,
              "position": 11.533333,
              "duration": 4.425
            }
          ]
        },
        "12": {
          "ctab": {
            "srcChannel": 12,
            "name": "Guitar",
            "accType": "CHORD2",
            "editable": true,
            "mutedNotes": [],
            "mutedChords": [],
            "sourceChordNote": 0,
            "sourceChordType": "Maj7",
            "ctb2Main": {
              "ntr": "ROOT_FIXED",
              "ntt": "CHORD",
              "bassOn": false,
              "noteLowLimit": 40,
              "noteHighLimit": 76,
              "chordRootUpperLimit": 127,
              "rtr": "NOTE_GENERATOR"
            }
          },
          "notes": [
            {
              "pitch": 60,
              "velocity": 64,
              "position": 0.0,
              "duration": 1.416667
            },
            {
              "pitch": 59,
              "velocity": 64,
              "position": 0.016667,
              "duration": 1.4
            },
            {
              "pitch": 67,
              "velocity": 59,
              "position": 0.016667,
              "duration": 1.4
            },
            {
              "pitch": 60,
              "velocity": 64,
              "position": 1.5,
              "duration": 1.916667
            },
            {
              "pitch": 59,
              "velocity": 64,
              "position": 1.516667,
              "duration": 1.9
            },
            {
              "pitch": 67,
              "velocity": 59,
              "position": 1.516667,
              "duration": 1.9
            },
            {
              "pitch": 59,
              "velocity": 65,
              "position": 3.5,
              "duration": 0.7
            },
            {
              "pitch": 60,
              "velocity": 61,
              "position": 3.5,
              "duration": 0.7
            },
            {
              "pitch": 67,
              "velocity": 65,
              "position": 3.5,
              "duration": 0.7
            },
            {
              "pitch": 59,
              "velocity": 61,
              "position": 4.483333,
              "duration": 1.475
            },
            {
              "pitch": 60,
              "velocity": 61,
              "position": 4.5,
              "duration": 1.458333
            },
            {
              "pitch": 67,
              "velocity": 61,
              "position": 4.5,
              "duration": 1.458333
            },
            {
              "pitch": 60,
              "velocity": 65,
              "position": 6.0,
              "duration": 2.0
            },
            {
              "pitch": 59,
              "velocity": 65,
              "position": 6.016667,
              "duration": 1.983333
            },
            {
              "pitch": 67,
              "velocity": 60,
              "position": 6.016667,
              "duration": 1.983333
            },
            {
              "pitch": 60,
              "velocity": 65,
              "position": 8.0,
              "duration": 3.008333
            },
            {
              "pitch": 59,
              "velocity": 65,
              "position": 8.016667,
              "duration": 3.116667
            },
            {
              "pitch": 67,
              "velocity": 60,
              "position": 8.016667,
              "duration": 3.1
            },
            {
              "pitch": 48,
              "velocity": 63,
              "position": 8.033333,
              "duration": 2.933333
            },
            {
              "pitch": 59,
              "velocity": 64,
              "position": 11.483333,
              "duration": 0.641667
            },
            {
              "pitch": 60,
              "velocity": 60,
              "position": 11.516667,
              "duration": 0.466667
            },
            {
              "pitch": 67,
              "velocity": 64,
              "position": 11.525,
              "duration": 0.483333
            },
            {
              "pitch": 67,
              "velocity": 60,
              "position": 12.475,
              "duration": 3.291667
            },
            {
              "pitch": 48,
              "velocity": 63,
              "position": 12.483333,
              "duration": 1.733333
            },
            {
              "pitch": 59,
              "velocity": 60,
              "position": 12.483333,
              "duration": 3.208333
            },
            {
              "pitch": 60,
              "velocity": 60,
              "position": 12.5,
              "duration": 3.258333
            },
            {
              "pitch": 48,
              "velocity": 63,
              "position": 14.525,
              "duration": 0.591667
            },
            {
              "pitch": 48,
              "velocity": 63,
              "position": 15.516667,
              "duration": 0.483333
            }
          ]
        },
        "13": {
          "ctab": {
            "srcChannel": 13,
            "name": "Strings",
            "accType": "PAD",
            "editable": true,
            "mutedNotes": [],
            "mutedChords": [],
            "sourceChordNote": 0,
            "sourceChordType": "Maj7",
            "ctb2Main": {
              "ntr": "ROOT_FIXED",
              "ntt": "MELODY",
              "bassOn": false,
              "noteLowLimit": 36,
              "noteHighLimit": 96,
              "chordRootUpperLimit": 127,
              "rtr": "PITCH_SHIFT"
            }
          },
          "notes": [
            {
              "pitch": 52,
              "velocity": 42,
              "position": 3.5,
              "duration": 4.441667
            },
            {
              "pitch": 59,
              "velocity": 48,
              "position": 3.5,
              "duration": 0.958333
            },
            {
              "pitch": 67,
              "velocity": 50,
              "position": 4.483333,
              "duration": 0.933333
            },
            {
              "pitch": 59,
              "velocity": 50,
              "position": 5.5,
              "duration": 1.816667
            },
            {
              "pitch": 60,
              "velocity": 40,
              "position": 6.525,
              "duration": 0.833333
            },
            {
              "pitch": 55,
              "velocity": 48,
              "position": 7.508333,
              "duration": 0.375
            },
            {
              "pitch": 59,
              "velocity": 40,
              "position": 8.033333,
              "duration": 4.441667
            },
            {
              "pitch": 52,
              "velocity": 42,
              "position": 11.483333,
              "duration": 4.475
            },
            {
              "pitch": 67,
              "velocity": 50,
              "position": 12.483333,
              "duration": 2.025
            },
            {
              "pitch": 60,
              "velocity": 40,
              "position": 14.525,
              "duration": 1.433333
            }
          ]
        }
      }
    },
    "Main_C": {
      "type": "Main_C",
      "sizeInBeats": 16,
      "channels": {
        "9": {
          "ctab": {
            "srcChannel": 9,
            "name": "Drums",
            "accType": "RHYTHM",
            "editable": false,
            "mutedNotes": [],
            "mutedChords": [],
            "sourceChordNote": 0,
            "sourceChordType": "Maj",
            "ctb2Main": {
              "ntr": "ROOT_FIXED",
              "ntt": "BYPASS",
              "bassOn": false,
              "noteLowLimit": 20,
              "noteHighLimit": 127,
              "chordRootUpperLimit": 127,
              "rtr": "RETRIGGER"
            }
          },
          "notes": [
            {
              "pitch": 36,
              "velocity": 68,
              "position": 0.0,
              "duration": 0.041667
            },
            {
              "pitch": 49,
              "velocity": 83,
              "position": 0.016667,
              "duration": 0.041667
            },
            {
              "pitch": 42,
              "velocity": 56,
              "position": 0.5,
              "duration": 0.041667
            },
            {
              "pitch": 38,
              "velocity": 95,
              "position": 1.0,
              "duration": 0.041667
            },
            {
              "pitch": 42,
              "velocity": 97,
              "position": 1.0,
              "duration": 0.041667
            },
            {
              "pitch": 42,
              "velocity": 56,
              "position": 1.5,
              "duration": 0.041667
            },
            {
              "pitch": 36,
              "velocity": 82,
              "position": 2.0,
              "duration": 0.041667
            },
            {
              "pitch": 42,
              "velocity": 78,
              "position": 2.0,
              "duration": 0.041667
            },
            {
              "pitch": 42,
              "velocity": 56,
              "position": 2.5,
              "duration": 0.041667
            },
            {
              "pitch": 38,
              "velocity": 84,
              "position": 3.0,
              "duration": 0.058333
            },
            {
              "pitch": 42,
              "velocity": 79,
              "position": 3.0,
              "duration": 0.041667
            },
            {
              "pitch": 40,
              "velocity": 67,
              "position": 3.5,
              "duration": 0.5
            },
            {
              "pitch": 42,
              "velocity": 56,
              "position": 3.5,
              "duration": 0.041667
            },
            {
              "pitch": 36,
              "velocity": 79,
              "position": 4.0,
              "duration": 0.058333
            },
            {
              "pitch": 42,
              "velocity": 74,
              "position": 4.008333,
              "duration": 0.041667
            },
            {
              "pitch": 40,
              "velocity": 67,
              "position": 4.5,
              "duration": 0.058333
            },
            {
              "pitch": 42,
              "velocity": 57,
              "position": 4.5,
              "duration": 0.041667
            },
            {
              "pitch": 38,
              "velocity": 90,
              "position": 5.0,
              "duration": 0.041667
            },
            {
              "pitch": 42,
              "velocity": 89,
              "position": 5.0,
              "duration": 0.041667
            },
            {
              "pitch": 46,
              "velocity": 56,
              "position": 5.5,
              "duration": 0.041667
            },
            {
              "pitch": 36,
              "velocity": 79,
              "position": 6.0,
              "duration": 0.041667
            },
            {
              "pitch": 42,
              "velocity": 79,
              "position": 6.0,
              "duration": 0.041667
            },
            {
              "pitch": 36,
              "velocity": 73,
              "position": 6.5,
              "duration": 0.041667
            },
            {
              "pitch": 42,
              "velocity": 56,
              "position": 6.5,
              "duration": 0.041667
            },
            {
              "pitch": 38,
              "velocity": 86,
              "position": 7.0,
              "duration": 0.041667
            },
            {
              "pitch": 42,
              "velocity": 82,
              "position": 7.0,
              "duration": 0.041667
            },
            {
              "pitch": 36,
              "velocity": 72,
              "position": 7.5,
              "duration": 0.041667
            },
            {
              "pitch": 42,
              "velocity": 56,
              "position": 7.5,
              "duration": 0.041667
            },
            {
              "pitch": 36,
              "velocity": 79,
              "position": 8.0,
              "duration": 0.041667
            },
            {
              "pitch": 42,
              "velocity": 76,
              "position": 8.0,
              "duration": 0.041667
            },
            {
              "pitch": 42,
              "velocity": 56,
              "position": 8.5,
              "duration": 0.041667
            },
            {
              "pitch": 38,
              "velocity": 87,
              "position": 9.0,
              "duration": 0.041667
            },
            {
              "pitch": 42,
              "velocity": 89,
              "position": 9.0,
              "duration": 0.041667
            },
            {
              "pitch": 42,
              "velocity": 56,
              "position": 9.5,
              "duration": 0.041667
            },
            {
              "pitch": 36,
              "velocity": 79,
              "position": 10.0,
              "duration": 0.041667
            },
            {
              "pitch": 42,
              "velocity": 79,
              "position": 10.0,
              "duration": 0.041667
            },
            {
              "pitch": 42,
              "velocity": 56,
              "position": 10.491667,
              "duration": 0.041667
            },
            {
              "pitch": 38,
              "velocity": 91,
              "position": 11.0,
              "duration": 0.058333
            },
            {
              "pitch": 42,
              "velocity": 91,
              "position": 11.0,
              "duration": 0.041667
            },
            {
              "pitch": 38,
              "velocity": 67,
              "position": 11.5,
              "duration": 0.158333
            },
            {
              "pitch": 42,
              "velocity": 59,
              "position": 11.5,
              "duration": 0.041667
            },
            {
              "pitch": 36,
              "velocity": 80,
              "position": 12.0,
              "duration": 0.058333
            },
            {
              "pitch": 42,
              "velocity": 71,
              "position": 12.0,
              "duration": 0.041667
            },
            {
              "pitch": 40,
              "velocity": 94,
              "position": 12.5,
              "duration": 0.058333
            },
            {
              "pitch": 42,
              "velocity": 55,
              "position": 12.5,
              "duration": 0.041667
            },
            {
              "pitch": 42,
              "velocity": 94,
              "position": 13.0,
              "duration": 0.041667
            },
            {
              "pitch": 35,
              "velocity": 83,
              "position": 13.5,
              "duration": 0.058333
            },
            {
              "pitch": 38,
              "velocity": 83,
              "position": 13.5,
              "duration": 0.058333
            },
            {
              "pitch": 42,
              "velocity": 63,
              "position": 13.5,
              "duration": 0.033333
            },
            {
              "pitch": 36,
              "velocity": 76,
              "position": 13.991667,
              "duration": 0.058333
            },
            {
              "pitch": 45,
              "velocity": 54,
              "position": 14.0,
              "duration": 0.058333
            },
            {
              "pitch": 38,
              "velocity": 85,
              "position": 14.008333,
              "duration": 0.058333
            },
            {
              "pitch": 35,
              "velocity": 83,
              "position": 14.491667,
              "duration": 0.058333
            },
            {
              "pitch": 43,
              "velocity": 54,
              "position": 14.5,
              "duration": 0.058333
            },
            {
              "pitch": 38,
              "velocity": 77,
              "position": 14.508333,
              "duration": 0.041667
            },
            {
              "pitch": 35,
              "velocity": 81,
              "position": 14.991667,
              "duration": 0.058333
            },
            {
              "pitch": 45,
              "velocity": 58,
              "position": 15.0,
              "duration": 0.058333
            },
            {
              "pitch": 38,
              "velocity": 88,
              "position": 15.008333,
              "duration": 0.033333
            },
            {
              "pitch": 35,
              "velocity": 83,
              "position": 15.5,
              "duration": 0.241667
            },
            {
              "pitch": 45,
              "velocity": 67,
              "position": 15.5,
              "duration": 0.25
            },
            {
              "pitch": 38,
              "velocity": 83,
              "position": 15.508333,
              "duration": 0.158333
            }
          ]
        },
        "10": {
          "ctab": {
            "srcChannel": 10,
            "name": "Bass",
            "accType": "BASS",
            "editable": true,
            "mutedNotes": [],
            "mutedChords": [],
            "sourceChordNote": 0,
            "sourceChordType": "Maj7",
            "ctb2Main": {
              "ntr": "ROOT_TRANSPOSITION",
              "ntt": "BYPASS",
              "bassOn": true,
              "noteLowLimit": 20,
              "noteHighLimit": 60,
              "chordRootUpperLimit": 127,
              "rtr": "NOTE_GENERATOR"
            }
          },
          "notes": [
            {
              "pitch": 36,
              "velocity": 94,
              "position": 0.008333,
              "duration": 0.308333
            },
            {
              "pitch": 36,
              "velocity": 76,
              "position": 0.508333,
              "duration": 0.258333
            },
            {
              "pitch": 36,
              "velocity": 87,
              "position": 1.008333,
              "duration": 0.266667
            },
            {
              "pitch": 33,
              "velocity": 77,
              "position": 1.508333,
              "duration": 0.258333
            },
            {
              "pitch": 36,
              "velocity": 94,
              "position": 2.008333,
              "duration": 0.308333
            },
            {
              "pitch": 36,
              "velocity": 76,
              "position": 2.508333,
              "duration": 0.258333
            },
            {
              "pitch": 36,
              "velocity": 87,
              "position": 3.008333,
              "duration": 0.266667
            },
            {
              "pitch": 36,
              "velocity": 77,
              "position": 3.508333,
              "duration": 0.258333
            },
            {
              "pitch": 36,
              "velocity": 94,
              "position": 4.008333,
              "duration": 0.308333
            },
            {
              "pitch": 36,
              "velocity": 76,
              "position": 4.508333,
              "duration": 0.258333
            },
            {
              "pitch": 36,
              "velocity": 87,
              "position": 5.008333,
              "duration": 0.266667
            },
            {
              "pitch": 36,
              "velocity": 77,
              "position": 5.508333,
              "duration": 0.258333
            },
            {
              "pitch": 36,
              "velocity": 94,
              "position": 6.0,
              "duration": 0.308333
            },
            {
              "pitch": 36,
              "velocity": 76,
              "position": 6.5,
              "duration": 0.258333
            },
            {
              "pitch": 36,
              "velocity": 87,
              "position": 7.0,
              "duration": 0.266667
            },
            {
              "pitch": 36,
              "velocity": 77,
              "position": 7.5,
              "duration": 0.258333
            },
            {
              "pitch": 36,
              "velocity": 104,
              "position": 8.0,
              "duration": 0.208333
            },
            {
              "pitch": 36,
              "velocity": 82,
              "position": 8.5,
              "duration": 0.225
            },
            {
              "pitch": 36,
              "velocity": 82,
              "position": 9.0,
              "duration": 0.225
            },
            {
              "pitch": 36,
              "velocity": 82,
              "position": 9.5,
              "duration": 0.225
            },
            {
              "pitch": 36,
              "velocity": 82,
              "position": 10.0,
              "duration": 0.225
            },
            {
              "pitch": 36,
              "velocity": 82,
              "position": 10.491667,
              "duration": 0.233333
            },
            {
              "pitch": 36,
              "velocity": 82,
              "position": 11.0,
              "duration": 0.225
            },
            {
              "pitch": 36,
              "velocity": 82,
              "position": 11.508333,
              "duration": 0.216667
            },
            {
              "pitch": 36,
              "velocity": 82,
              "position": 12.0,
              "duration": 0.225
            },
            {
              "pitch": 36,
              "velocity": 82,
              "position": 12.5,
              "duration": 0.233333
            },
            {
              "pitch": 36,
              "velocity": 82,
              "position": 13.0,
              "duration": 0.216667
            },
            {
              "pitch": 36,
              "velocity": 82,
              "position": 13.5,
              "duration": 0.225
            },
            {
              "pitch": 36,
              "velocity": 82,
              "position": 14.0,
              "duration": 0.225
            },
            {
              "pitch": 31,
              "velocity": 82,
              "position": 14.5,
              "duration": 0.216667
            },
            {
              "pitch": 33,
              "velocity": 82,
              "position": 15.0,
              "duration": 0.225
            },
            {
              "pitch": 31,
              "velocity": 82,
              "position": 15.5,
              "duration": 0.225
            }
          ]
        },
        "11": {
          "ctab": {
            "srcChannel": 11,
            "name": "Piano",
            "accType": "CHORD1",
            "editable": true,
            "mutedNotes": [],
            "mutedChords": [],
            "sourceChordNote": 0,
            "sourceChordType": "Maj7",
            "ctb2Main": {
              "ntr": "ROOT_FIXED",
              "ntt": "CHORD",
              "bassOn": false,
              "noteLowLimit": 48,
              "noteHighLimit": 84,
              "chordRootUpperLimit": 127,
              "rtr": "NOTE_GENERATOR"
            }
          },
          "notes": [
            {
              "pitch": 48,
              "velocity": 55,
              "position": 0.008333,
              "duration": 1.475
            },
            {
              "pitch": 59,
              "velocity": 69,
              "position": 0.025,
              "duration": 1.466667
            },
            {
              "pitch": 62,
              "velocity": 69,
              "position": 0.025,
              "duration": 1.466667
            },
            {
              "pitch": 64,
              "velocity": 69,
              "position": 0.025,
              "duration": 1.466667
            },
            {
              "pitch": 67,
              "velocity": 69,
              "position": 0.025,
              "duration": 1.466667
            },
            {
              "pitch": 48,
              "velocity": 57,
              "position": 2.008333,
              "duration": 1.95
            },
            {
              "pitch": 59,
              "velocity": 71,
              "position": 2.016667,
              "duration": 1.941667
            },
            {
              "pitch": 62,
              "velocity": 71,
              "position": 2.016667,
              "duration": 1.941667
            },
            {
              "pitch": 64,
              "velocity": 71,
              "position": 2.016667,
              "duration": 1.941667
            },
            {
              "pitch": 67,
              "velocity": 71,
              "position": 2.016667,
              "duration": 1.941667
            },
            {
              "pitch": 48,
              "velocity": 57,
              "position": 4.008333,
              "duration": 1.408333
            },
            {
              "pitch": 59,
              "velocity": 71,
              "position": 4.016667,
              "duration": 1.4
            },
            {
              "pitch": 62,
              "velocity": 71,
              "position": 4.016667,
              "duration": 1.4
            },
            {
              "pitch": 64,
              "velocity": 71,
              "position": 4.016667,
              "duration": 1.4
            },
            {
              "pitch": 67,
              "velocity": 71,
              "position": 4.016667,
              "duration": 1.4
            },
            {
              "pitch": 48,
              "velocity": 55,
              "position": 5.508333,
              "duration": 1.725
            },
            {
              "pitch": 59,
              "velocity": 69,
              "position": 5.516667,
              "duration": 2.266667
            },
            {
              "pitch": 62,
              "velocity": 69,
              "position": 5.516667,
              "duration": 2.266667
            },
            {
              "pitch": 64,
              "velocity": 69,
              "position": 5.516667,
              "duration": 2.266667
            },
            {
              "pitch": 67,
              "velocity": 69,
              "position": 5.516667,
              "duration": 2.266667
            },
            {
              "pitch": 55,
              "velocity": 63,
              "position": 6.5,
              "duration": 0.283333
            },
            {
              "pitch": 48,
              "velocity": 69,
              "position": 7.5,
              "duration": 0.308333
            },
            {
              "pitch": 48,
              "velocity": 55,
              "position": 8.008333,
              "duration": 3.3
            },
            {
              "pitch": 59,
              "velocity": 69,
              "position": 8.025,
              "duration": 3.266667
            },
            {
              "pitch": 62,
              "velocity": 69,
              "position": 8.025,
              "duration": 3.266667
            },
            {
              "pitch": 64,
              "velocity": 69,
              "position": 8.025,
              "duration": 3.266667
            },
            {
              "pitch": 67,
              "velocity": 69,
              "position": 8.025,
              "duration": 3.266667
            },
            {
              "pitch": 59,
              "velocity": 69,
              "position": 11.516667,
              "duration": 4.441667
            },
            {
              "pitch": 62,
              "velocity": 69,
              "position": 11.516667,
              "duration": 4.441667
            },
            {
              "pitch": 64,
              "velocity": 69,
              "position": 11.516667,
              "duration": 4.441667
            },
            {
              "pitch": 67,
              "velocity": 69,
              "position": 11.516667,
              "duration": 4.441667
            },
            {
              "pitch": 48,
              "velocity": 69,
              "position": 11.533333,
              "duration": 4.425
            }
          ]
        },
        "12": {
          "ctab": {
            "srcChannel": 12,
            "name": "Guitar",
            "accType": "CHORD2",
            "editable": true,
            "mutedNotes": [],
            "mutedChords": [],
            "sourceChordNote": 0,
            "sourceChordType": "Maj7",
            "ctb2Main": {
              "ntr": "ROOT_FIXED",
              "ntt": "CHORD",
              "bassOn": false,
              "noteLowLimit": 40,
              "noteHighLimit": 76,
              "chordRootUpperLimit": 127,
              "rtr": "NOTE_GENERATOR"
            }
          },
          "notes": [
            {
              "pitch": 60,
              "velocity": 64,
              "position": 0.0,
              "duration": 1.416667
            },
            {
              "pitch": 59,
              "velocity": 64,
              "position": 0.016667,
              "duration": 1.4
            },
            {
              "pitch": 67,
              "velocity": 59,
              "position": 0.016667,
              "duration": 1.4
            },
            {
              "pitch": 60,
              "velocity": 64,
              "position": 1.5,
              "duration": 1.916667
            },
            {
              "pitch": 59,
              "velocity": 64,
              "position": 1.516667,
              "duration": 1.9
            },
            {
              "pitch": 67,
              "velocity": 59,
              "position": 1.516667,
              "duration": 1.9
            },
            {
              "pitch": 59,
              "velocity": 65,
              "position": 3.5,
              "duration": 0.7
            },
            {
              "pitch": 60,
              "velocity": 61,
              "position": 3.5,
              "duration": 0.7
            },
            {
              "pitch": 67,
              "velocity": 65,
              "position": 3.5,
              "duration": 0.7
            },
            {
              "pitch": 59,
              "velocity": 61,
              "position": 4.483333,
              "duration": 1.475
            },
            {
              "pitch": 60,
              "velocity": 61,
              "position": 4.5,
              "duration": 1.458333
            },
            {
              "pitch": 67,
              "velocity": 61,
              "position": 4.5,
              "duration": 1.458333
            },
            {
              "pitch": 60,
              "velocity": 65,
              "position": 6.0,
              "duration": 2.0
            },
            {
              "pitch": 59,
              "velocity": 65,
              "position": 6.016667,
              "duration": 1.983333
            },
            {
              "pitch": 67,
              "velocity": 60,
              "position": 6.016667,
              "duration": 1.983333
            },
            {
              "pitch": 59,
              "velocity": 67,
              "position": 8.016667,
              "duration": 3.258333
            },
            {
              "pitch": 60,
              "velocity": 44,
              "position": 8.025,
              "duration": 3.325
            },
            {
              "pitch": 67,
              "velocity": 63,
              "position": 8.025,
              "duration": 3.35
            },
            {
              "pitch": 48,
              "velocity": 71,
              "position": 10.491667,
              "duration": 5.375
            },
            {
              "pitch": 55,
              "velocity": 71,
              "position": 11.025,
              "duration": 0.275
            },
            {
              "pitch": 60,
              "velocity": 60,
              "position": 11.491667,
              "duration": 4.408333
            },
            {
              "pitch": 67,
              "velocity": 60,
              "position": 11.491667,
              "duration": 4.375
            },
            {
              "pitch": 59,
              "velocity": 64,
              "position": 11.5,
              "duration": 4.458333
            }
          ]
        },
        "13": {
          "ctab": {
            "srcChannel": 13,
            "name": "Strings",
            "accType": "PAD",
            "editable": true,
            "mutedNotes": [],
            "mutedChords": [],
            "sourceChordNote": 0,
            "sourceChordType": "Maj7",
            "ctb2Main": {
              "ntr": "ROOT_FIXED",
              "ntt": "MELODY",
              "bassOn": false,
              "noteLowLimit": 36,
              "noteHighLimit": 96,
              "chordRootUpperLimit": 127,
              "rtr": "PITCH_SHIFT"
            }
          },
          "notes": [
            {
              "pitch": 52,
              "velocity": 42,
              "position": 3.5,
              "duration": 2.441667
            },
            {
              "pitch": 59,
              "velocity": 48,
              "position": 3.5,
              "duration": 0.958333
            },
            {
              "pitch": 67,
              "velocity": 50,
              "position": 4.483333,
              "duration": 3.483333
            },
            {
              "pitch": 59,
              "velocity": 42,
              "position": 6.0,
              "duration": 1.3
            },
            {
              "pitch": 55,
              "velocity": 40,
              "position": 6.525,
              "duration": 1.183333
            },
            {
              "pitch": 59,
              "velocity": 48,
              "position": 7.508333,
              "duration": 0.45
            },
            {
              "pitch": 59,
              "velocity": 40,
              "position": 8.033333,
              "duration": 3.416667
            },
            {
              "pitch": 55,
              "velocity": 44,
              "position": 11.483333,
              "duration": 4.475
            },
            {
              "pitch": 60,
              "velocity": 37,
              "position": 11.483333,
              "duration": 0.991667
            },
            {
              "pitch": 67,
              "velocity": 48,
              "position": 12.483333,
              "duration": 1.008333
            },
            {
              "pitch": 71,
              "velocity": 42,
              "position": 13.5,
              "duration": 1.183333
            },
            {
              "pitch": 60,
              "velocity": 42,
              "position": 14.508333,
              "duration": 1.45
            }
          ]
        }
      }
    },
    "Main_D": {
      "type": "Main_D",
      "sizeInBeats": 16,
      "channels": {
        "9": {
          "ctab": {
            "srcChannel": 9,
            "name": "Drums",
            "accType": "RHYTHM",
            "editable": false,
            "mutedNotes": [],
            "mutedChords": [],
            "sourceChordNote": 0,
            "sourceChordType": "Maj",
            "ctb2Main": {
              "ntr": "ROOT_FIXED",
              "ntt": "BYPASS",
              "bassOn": false,
              "noteLowLimit": 20,
              "noteHighLimit": 127,
              "chordRootUpperLimit": 127,
              "rtr": "RETRIGGER"
            }
          },
          "notes": [
            {
              "pitch": 36,
              "velocity": 68,
              "position": 0.0,
              "duration": 0.041667
            },
            {
              "pitch": 49,
              "velocity": 83,
              "position": 0.016667,
              "duration": 0.041667
            },
            {
              "pitch": 42,
              "velocity": 56,
              "position": 0.5,
              "duration": 0.041667
            },
            {
              "pitch": 38,
              "velocity": 95,
              "position": 1.0,
              "duration": 0.041667
            },
            {
              "pitch": 42,
              "velocity": 97,
              "position": 1.0,
              "duration": 0.041667
            },
            {
              "pitch": 42,
              "velocity": 56,
              "position": 1.5,
              "duration": 0.041667
            },
            {
              "pitch": 36,
              "velocity": 82,
              "position": 2.0,
              "duration": 0.041667
            },
            {
              "pitch": 42,
              "velocity": 78,
              "position": 2.0,
              "duration": 0.041667
            },
            {
              "pitch": 42,
              "velocity": 56,
              "position": 2.5,
              "duration": 0.041667
            },
            {
              "pitch": 38,
              "velocity": 84,
              "position": 3.0,
              "duration": 0.058333
            },
            {
              "pitch": 42,
              "velocity": 79,
              "position": 3.0,
              "duration": 0.041667
            },
            {
              "pitch": 40,
              "velocity": 67,
              "position": 3.5,
              "duration": 0.5
            },
            {
              "pitch": 42,
              "velocity": 56,
              "position": 3.5,
              "duration": 0.041667
            },
            {
              "pitch": 36,
              "velocity": 81,
              "position": 4.0,
              "duration": 0.058333
            },
            {
              "pitch": 42,
              "velocity": 72,
              "position": 4.0,
              "duration": 0.041667
            },
            {
              "pitch": 40,
              "velocity": 67,
              "position": 4.5,
              "duration": 0.058333
            },
            {
              "pitch": 42,
              "velocity": 56,
              "position": 4.5,
              "duration": 0.041667
            },
            {
              "pitch": 38,
              "velocity": 89,
              "position": 5.0,
              "duration": 0.041667
            },
            {
              "pitch": 42,
              "velocity": 95,
              "position": 5.0,
              "duration": 0.041667
            },
            {
              "pitch": 42,
              "velocity": 64,
              "position": 5.5,
              "duration": 0.041667
            },
            {
              "pitch": 36,
              "velocity": 77,
              "position": 6.0,
              "duration": 0.041667
            },
            {
              "pitch": 42,
              "velocity": 79,
              "position": 6.0,
              "duration": 0.041667
            },
            {
              "pitch": 36,
              "velocity": 74,
              "position": 6.5,
              "duration": 0.041667
            },
            {
              "pitch": 42,
              "velocity": 59,
              "position": 6.5,
              "duration": 0.041667
            },
            {
              "pitch": 38,
              "velocity": 89,
              "position": 7.0,
              "duration": 0.041667
            },
            {
              "pitch": 42,
              "velocity": 79,
              "position": 7.0,
              "duration": 0.041667
            },
            {
              "pitch": 42,
              "velocity": 56,
              "position": 7.5,
              "duration": 0.041667
            },
            {
              "pitch": 36,
              "velocity": 68,
              "position": 8.0,
              "duration": 0.041667
            },
            {
              "pitch": 38,
              "velocity": 74,
              "position": 8.008333,
              "duration": 0.058333
            },
            {
              "pitch": 42,
              "velocity": 61,
              "position": 8.016667,
              "duration": 0.058333
            },
            {
              "pitch": 42,
              "velocity": 56,
              "position": 8.5,
              "duration": 0.041667
            },
            {
              "pitch": 38,
              "velocity": 95,
              "position": 9.0,
              "duration": 0.041667
            },
            {
              "pitch": 42,
              "velocity": 97,
              "position": 9.0,
              "duration": 0.041667
            },
            {
              "pitch": 42,
              "velocity": 56,
              "position": 9.5,
              "duration": 0.041667
            },
            {
              "pitch": 36,
              "velocity": 82,
              "position": 10.0,
              "duration": 0.041667
            },
            {
              "pitch": 42,
              "velocity": 78,
              "position": 10.0,
              "duration": 0.041667
            },
            {
              "pitch": 42,
              "velocity": 56,
              "position": 10.5,
              "duration": 0.041667
            },
            {
              "pitch": 38,
              "velocity": 84,
              "position": 11.0,
              "duration": 0.058333
            },
            {
              "pitch": 42,
              "velocity": 79,
              "position": 11.0,
              "duration": 0.041667
            },
            {
              "pitch": 40,
              "velocity": 67,
              "position": 11.5,
              "duration": 0.241667
            },
            {
              "pitch": 42,
              "velocity": 56,
              "position": 11.5,
              "duration": 0.041667
            },
            {
              "pitch": 36,
              "velocity": 80,
              "position": 12.0,
              "duration": 0.058333
            },
            {
              "pitch": 42,
              "velocity": 71,
              "position": 12.0,
              "duration": 0.041667
            },
            {
              "pitch": 40,
              "velocity": 67,
              "position": 12.5,
              "duration": 0.058333
            },
            {
              "pitch": 42,
              "velocity": 55,
              "position": 12.5,
              "duration": 0.041667
            },
            {
              "pitch": 38,
              "velocity": 88,
              "position": 13.0,
              "duration": 0.041667
            },
            {
              "pitch": 42,
              "velocity": 94,
              "position": 13.0,
              "duration": 0.041667
            },
            {
              "pitch": 42,
              "velocity": 63,
              "position": 13.5,
              "duration": 0.041667
            },
            {
              "pitch": 36,
              "velocity": 76,
              "position": 14.0,
              "duration": 0.041667
            },
            {
              "pitch": 42,
              "velocity": 78,
              "position": 14.0,
              "duration": 0.041667
            },
            {
              "pitch": 38,
              "velocity": 73,
              "position": 14.5,
              "duration": 0.041667
            },
            {
              "pitch": 42,
              "velocity": 58,
              "position": 14.5,
              "duration": 0.041667
            },
            {
              "pitch": 38,
              "velocity": 88,
              "position": 15.0,
              "duration": 0.058333
            },
            {
              "pitch": 42,
              "velocity": 78,
              "position": 15.0,
              "duration": 0.041667
            },
            {
              "pitch": 38,
              "velocity": 83,
              "position": 15.5,
              "duration": 0.158333
            },
            {
              "pitch": 42,
              "velocity": 55,
              "position": 15.5,
              "duration": 0.041667
            }
          ]
        },
        "10": {
          "ctab": {
            "srcChannel": 10,
            "name": "Bass",
            "accType": "BASS",
            "editable": true,
            "mutedNotes": [],
            "mutedChords": [],
            "sourceChordNote": 0,
            "sourceChordType": "Maj7",
            "ctb2Main": {
              "ntr": "ROOT_TRANSPOSITION",
              "ntt": "BYPASS",
              "bassOn": true,
              "noteLowLimit": 20,
              "noteHighLimit": 60,
              "chordRootUpperLimit": 127,
              "rtr": "NOTE_GENERATOR"
            }
          },
          "notes": [
            {
              "pitch": 36,
              "velocity": 94,
              "position": 0.008333,
              "duration": 0.308333
            },
            {
              "pitch": 36,
              "velocity": 76,
              "position": 0.508333,
              "duration": 0.258333
            },
            {
              "pitch": 36,
              "velocity": 87,
              "position": 1.008333,
              "duration": 0.266667
            },
            {
              "pitch": 33,
              "velocity": 77,
              "position": 1.508333,
              "duration": 0.258333
            },
            {
              "pitch": 36,
              "velocity": 94,
              "position": 2.0,
              "duration": 0.308333
            },
            {
              "pitch": 36,
              "velocity": 76,
              "position": 2.5,
              "duration": 0.258333
            },
            {
              "pitch": 36,
              "velocity": 87,
              "position": 3.0,
              "duration": 0.266667
            },
            {
              "pitch": 36,
              "velocity": 77,
              "position": 3.5,
              "duration": 0.258333
            },
            {
              "pitch": 36,
              "velocity": 94,
              "position": 4.008333,
              "duration": 0.308333
            },
            {
              "pitch": 36,
              "velocity": 76,
              "position": 4.508333,
              "duration": 0.258333
            },
            {
              "pitch": 36,
              "velocity": 87,
              "position": 5.008333,
              "duration": 0.266667
            },
            {
              "pitch": 40,
              "velocity": 77,
              "position": 5.508333,
              "duration": 0.258333
            },
            {
              "pitch": 36,
              "velocity": 94,
              "position": 6.008333,
              "duration": 0.308333
            },
            {
              "pitch": 36,
              "velocity": 76,
              "position": 6.508333,
              "duration": 0.258333
            },
            {
              "pitch": 36,
              "velocity": 87,
              "position": 7.008333,
              "duration": 0.266667
            },
            {
              "pitch": 36,
              "velocity": 77,
              "position": 7.508333,
              "duration": 0.258333
            },
            {
              "pitch": 36,
              "velocity": 104,
              "position": 8.0,
              "duration": 0.208333
            },
            {
              "pitch": 36,
              "velocity": 82,
              "position": 8.5,
              "duration": 0.225
            },
            {
              "pitch": 36,
              "velocity": 82,
              "position": 9.0,
              "duration": 0.225
            },
            {
              "pitch": 36,
              "velocity": 82,
              "position": 9.5,
              "duration": 0.225
            },
            {
              "pitch": 36,
              "velocity": 82,
              "position": 10.0,
              "duration": 0.225
            },
            {
              "pitch": 36,
              "velocity": 82,
              "position": 10.491667,
              "duration": 0.233333
            },
            {
              "pitch": 36,
              "velocity": 82,
              "position": 11.0,
              "duration": 0.225
            },
            {
              "pitch": 36,
              "velocity": 82,
              "position": 11.508333,
              "duration": 0.216667
            },
            {
              "pitch": 36,
              "velocity": 82,
              "position": 12.0,
              "duration": 0.225
            },
            {
              "pitch": 36,
              "velocity": 82,
              "position": 12.5,
              "duration": 0.233333
            },
            {
              "pitch": 36,
              "velocity": 82,
              "position": 13.0,
              "duration": 0.216667
            },
            {
              "pitch": 36,
              "velocity": 82,
              "position": 13.5,
              "duration": 0.225
            },
            {
              "pitch": 36,
              "velocity": 82,
              "position": 14.0,
              "duration": 0.225
            },
            {
              "pitch": 31,
              "velocity": 82,
              "position": 14.5,
              "duration": 0.216667
            },
            {
              "pitch": 33,
              "velocity": 82,
              "position": 15.0,
              "duration": 0.225
            },
            {
              "pitch": 36,
              "velocity": 94,
              "position": 15.5,
              "duration": 0.791667
            }
          ]
        },
        "11": {
          "ctab": {
            "srcChannel": 11,
            "name": "Piano",
            "accType": "CHORD1",
            "editable": true,
            "mutedNotes": [],
            "mutedChords": [],
            "sourceChordNote": 0,
            "sourceChordType": "Maj7",
            "ctb2Main": {
              "ntr": "ROOT_FIXED",
              "ntt": "CHORD",
              "bassOn": false,
              "noteLowLimit": 48,
              "noteHighLimit": 84,
              "chordRootUpperLimit": 127,
              "rtr": "NOTE_GENERATOR"
            }
          },
          "notes": [
            {
              "pitch": 48,
              "velocity": 57,
              "position": 0.008333,
              "duration": 1.95
            },
            {
              "pitch": 59,
              "velocity": 71,
              "position": 0.025,
              "duration": 1.933333
            },
            {
              "pitch": 62,
              "velocity": 71,
              "position": 0.025,
              "duration": 1.933333
            },
            {
              "pitch": 64,
              "velocity": 71,
              "position": 0.025,
              "duration": 1.933333
            },
            {
              "pitch": 67,
              "velocity": 71,
              "position": 0.025,
              "duration": 1.933333
            },
            {
              "pitch": 48,
              "velocity": 57,
              "position": 2.008333,
              "duration": 1.95
            },
            {
              "pitch": 59,
              "velocity": 71,
              "position": 2.025,
              "duration": 1.933333
            },
            {
              "pitch": 62,
              "velocity": 71,
              "position": 2.025,
              "duration": 1.933333
            },
            {
              "pitch": 64,
              "velocity": 71,
              "position": 2.025,
              "duration": 1.933333
            },
            {
              "pitch": 67,
              "velocity": 71,
              "position": 2.025,
              "duration": 1.933333
            },
            {
              "pitch": 48,
              "velocity": 57,
              "position": 4.008333,
              "duration": 1.95
            },
            {
              "pitch": 59,
              "velocity": 71,
              "position": 4.016667,
              "duration": 1.941667
            },
            {
              "pitch": 62,
              "velocity": 71,
              "position": 4.016667,
              "duration": 1.941667
            },
            {
              "pitch": 64,
              "velocity": 71,
              "position": 4.016667,
              "duration": 1.941667
            },
            {
              "pitch": 67,
              "velocity": 71,
              "position": 4.016667,
              "duration": 1.941667
            },
            {
              "pitch": 48,
              "velocity": 55,
              "position": 6.008333,
              "duration": 1.475
            },
            {
              "pitch": 59,
              "velocity": 69,
              "position": 6.025,
              "duration": 1.466667
            },
            {
              "pitch": 62,
              "velocity": 69,
              "position": 6.025,
              "duration": 1.466667
            },
            {
              "pitch": 64,
              "velocity": 69,
              "position": 6.025,
              "duration": 1.466667
            },
            {
              "pitch": 67,
              "velocity": 69,
              "position": 6.025,
              "duration": 1.466667
            },
            {
              "pitch": 48,
              "velocity": 58,
              "position": 8.008333,
              "duration": 7.908333
            },
            {
              "pitch": 59,
              "velocity": 72,
              "position": 8.016667,
              "duration": 7.9
            },
            {
              "pitch": 62,
              "velocity": 72,
              "position": 8.016667,
              "duration": 7.9
            },
            {
              "pitch": 64,
              "velocity": 72,
              "position": 8.016667,
              "duration": 7.9
            },
            {
              "pitch": 67,
              "velocity": 72,
              "position": 8.016667,
              "duration": 7.9
            }
          ]
        },
        "12": {
          "ctab": {
            "srcChannel": 12,
            "name": "Guitar",
            "accType": "CHORD2",
            "editable": true,
            "mutedNotes": [],
            "mutedChords": [],
            "sourceChordNote": 0,
            "sourceChordType": "Maj7",
            "ctb2Main": {
              "ntr": "ROOT_FIXED",
              "ntt": "CHORD",
              "bassOn": false,
              "noteLowLimit": 40,
              "noteHighLimit": 76,
              "chordRootUpperLimit": 127,
              "rtr": "NOTE_GENERATOR"
            }
          },
          "notes": [
            {
              "pitch": 60,
              "velocity": 64,
              "position": 0.0,
              "duration": 1.416667
            },
            {
              "pitch": 59,
              "velocity": 64,
              "position": 0.016667,
              "duration": 1.4
            },
            {
              "pitch": 67,
              "velocity": 59,
              "position": 0.016667,
              "duration": 1.4
            },
            {
              "pitch": 60,
              "velocity": 64,
              "position": 1.5,
              "duration": 1.916667
            },
            {
              "pitch": 59,
              "velocity": 64,
              "position": 1.516667,
              "duration": 1.9
            },
            {
              "pitch": 67,
              "velocity": 59,
              "position": 1.516667,
              "duration": 1.9
            },
            {
              "pitch": 59,
              "velocity": 65,
              "position": 3.5,
              "duration": 0.7
            },
            {
              "pitch": 60,
              "velocity": 61,
              "position": 3.5,
              "duration": 0.7
            },
            {
              "pitch": 67,
              "velocity": 65,
              "position": 3.5,
              "duration": 0.7
            },
            {
              "pitch": 59,
              "velocity": 61,
              "position": 4.483333,
              "duration": 1.475
            },
            {
              "pitch": 60,
              "velocity": 61,
              "position": 4.5,
              "duration": 1.458333
            },
            {
              "pitch": 67,
              "velocity": 61,
              "position": 4.5,
              "duration": 1.458333
            },
            {
              "pitch": 60,
              "velocity": 65,
              "position": 6.0,
              "duration": 2.0
            },
            {
              "pitch": 59,
              "velocity": 65,
              "position": 6.016667,
              "duration": 1.983333
            },
            {
              "pitch": 67,
              "velocity": 60,
              "position": 6.016667,
              "duration": 1.983333
            },
            {
              "pitch": 48,
              "velocity": 63,
              "position": 6.033333,
              "duration": 1.966667
            },
            {
              "pitch": 60,
              "velocity": 65,
              "position": 8.0,
              "duration": 3.008333
            },
            {
              "pitch": 59,
              "velocity": 65,
              "position": 8.016667,
              "duration": 3.116667
            },
            {
              "pitch": 67,
              "velocity": 60,
              "position": 8.016667,
              "duration": 3.1
            },
            {
              "pitch": 59,
              "velocity": 64,
              "position": 11.483333,
              "duration": 0.4
            },
            {
              "pitch": 60,
              "velocity": 60,
              "position": 11.516667,
              "duration": 0.491667
            },
            {
              "pitch": 67,
              "velocity": 64,
              "position": 11.525,
              "duration": 0.483333
            },
            {
              "pitch": 67,
              "velocity": 60,
              "position": 12.475,
              "duration": 3.116667
            },
            {
              "pitch": 59,
              "velocity": 60,
              "position": 12.483333,
              "duration": 3.183333
            },
            {
              "pitch": 60,
              "velocity": 60,
              "position": 12.5,
              "duration": 3.1
            }
          ]
        },
        "13": {
          "ctab": {
            "srcChannel": 13,
            "name": "Strings",
            "accType": "PAD",
            "editable": true,
            "mutedNotes": [],
            "mutedChords": [],
            "sourceChordNote": 0,
            "sourceChordType": "Maj7",
            "ctb2Main": {
              "ntr": "ROOT_FIXED",
              "ntt": "MELODY",
              "bassOn": false,
              "noteLowLimit": 36,
              "noteHighLimit": 96,
              "chordRootUpperLimit": 127,
              "rtr": "PITCH_SHIFT"
            }
          },
          "notes": [
            {
              "pitch": 52,
              "velocity": 42,
              "position": 3.5,
              "duration": 2.441667
            },
            {
              "pitch": 59,
              "velocity": 48,
              "position": 3.5,
              "duration": 0.958333
            },
            {
              "pitch": 67,
              "velocity": 50,
              "position": 4.483333,
              "duration": 3.483333
            },
            {
              "pitch": 59,
              "velocity": 42,
              "position": 6.0,
              "duration": 1.3
            },
            {
              "pitch": 55,
              "velocity": 40,
              "position": 6.525,
              "duration": 1.183333
            },
            {
              "pitch": 59,
              "velocity": 48,
              "position": 7.508333,
              "duration": 0.45
            },
            {
              "pitch": 59,
              "velocity": 40,
              "position": 8.033333,
              "duration": 3.416667
            },
            {
              "pitch": 55,
              "velocity": 44,
              "position": 11.483333,
              "duration": 4.475
            },
            {
              "pitch": 60,
              "velocity": 37,
              "position": 11.483333,
              "duration": 0.991667
            },
            {
              "pitch": 67,
              "velocity": 48,
              "position": 12.483333,
              "duration": 1.008333
            },
            {
              "pitch": 71,
              "velocity": 42,
              "position": 13.5,
              "duration": 1.183333
            },
            {
              "pitch": 60,
              "velocity": 42,
              "position": 14.508333,
              "duration": 1.45
            }
          ]
        }
      }
    },
    "Fill_In_AA": {
      "type": "Fill_In_AA",
      "sizeInBeats": 16,
      "channels": {
        "9": {
          "ctab": {
            "srcChannel": 9,
            "name": "Drums",
            "accType": "RHYTHM",
            "editable": false,
            "mutedNotes": [],
            "mutedChords": [],
            "sourceChordNote": 0,
            "sourceChordType": "Maj",
            "ctb2Main": {
              "ntr": "ROOT_FIXED",
              "ntt": "BYPASS",
              "bassOn": false,
              "noteLowLimit": 20,
              "noteHighLimit": 127,
              "chordRootUpperLimit": 127,
              "rtr": "RETRIGGER"
            }
          },
          "notes": [
            {
              "pitch": 36,
              "velocity": 68,
              "position": 0.0,
              "duration": 0.041667
            },
            {
              "pitch": 49,
              "velocity": 83,
              "position": 0.016667,
              "duration": 0.041667
            },
            {
              "pitch": 42,
              "velocity": 56,
              "position": 0.5,
              "duration": 0.041667
            },
            {
              "pitch": 38,
              "velocity": 95,
              "position": 1.0,
              "duration": 0.041667
            },
            {
              "pitch": 42,
              "velocity": 97,
              "position": 1.0,
              "duration": 0.041667
            },
            {
              "pitch": 42,
              "velocity": 56,
              "position": 1.5,
              "duration": 0.041667
            },
            {
              "pitch": 36,
              "velocity": 82,
              "position": 2.0,
              "duration": 0.041667
            },
            {
              "pitch": 42,
              "velocity": 78,
              "position": 2.0,
              "duration": 0.041667
            },
            {
              "pitch": 42,
              "velocity": 56,
              "position": 2.5,
              "duration": 0.041667
            },
            {
              "pitch": 38,
              "velocity": 84,
              "position": 3.0,
              "duration": 0.058333
            },
            {
              "pitch": 42,
              "velocity": 79,
              "position": 3.0,
              "duration": 0.041667
            },
            {
              "pitch": 40,
              "velocity": 67,
              "position": 3.5,
              "duration": 0.5
            },
            {
              "pitch": 42,
              "velocity": 56,
              "position": 3.5,
              "duration": 0.041667
            },
            {
              "pitch": 36,
              "velocity": 76,
              "position": 4.0,
              "duration": 0.041667
            },
            {
              "pitch": 42,
              "velocity": 76,
              "position": 4.0,
              "duration": 0.041667
            },
            {
              "pitch": 46,
              "velocity": 64,
              "position": 4.5,
              "duration": 0.041667
            },
            {
              "pitch": 38,
              "velocity": 85,
              "position": 5.0,
              "duration": 0.041667
            },
            {
              "pitch": 42,
              "velocity": 91,
              "position": 5.0,
              "duration": 0.041667
            },
            {
              "pitch": 42,
              "velocity": 56,
              "position": 5.5,
              "duration": 0.041667
            },
            {
              "pitch": 36,
              "velocity": 75,
              "position": 6.0,
              "duration": 0.041667
            },
            {
              "pitch": 42,
              "velocity": 72,
              "position": 6.0,
              "duration": 0.041667
            },
            {
              "pitch": 42,
              "velocity": 56,
              "position": 6.5,
              "duration": 0.041667
            },
            {
              "pitch": 38,
              "velocity": 88,
              "position": 7.0,
              "duration": 0.041667
            },
            {
              "pitch": 42,
              "velocity": 86,
              "position": 7.0,
              "duration": 0.041667
            },
            {
              "pitch": 40,
              "velocity": 56,
              "position": 7.5,
              "duration": 0.041667
            },
            {
              "pitch": 36,
              "velocity": 68,
              "position": 8.0,
              "duration": 0.041667
            },
            {
              "pitch": 38,
              "velocity": 74,
              "position": 8.008333,
              "duration": 0.058333
            },
            {
              "pitch": 42,
              "velocity": 61,
              "position": 8.016667,
              "duration": 0.058333
            },
            {
              "pitch": 42,
              "velocity": 56,
              "position": 8.5,
              "duration": 0.041667
            },
            {
              "pitch": 38,
              "velocity": 95,
              "position": 9.0,
              "duration": 0.041667
            },
            {
              "pitch": 42,
              "velocity": 97,
              "position": 9.0,
              "duration": 0.041667
            },
            {
              "pitch": 42,
              "velocity": 56,
              "position": 9.5,
              "duration": 0.041667
            },
            {
              "pitch": 36,
              "velocity": 82,
              "position": 10.0,
              "duration": 0.041667
            },
            {
              "pitch": 42,
              "velocity": 78,
              "position": 10.0,
              "duration": 0.041667
            },
            {
              "pitch": 42,
              "velocity": 56,
              "position": 10.5,
              "duration": 0.041667
            },
            {
              "pitch": 38,
              "velocity": 84,
              "position": 11.0,
              "duration": 0.058333
            },
            {
              "pitch": 42,
              "velocity": 79,
              "position": 11.0,
              "duration": 0.041667
            },
            {
              "pitch": 40,
              "velocity": 67,
              "position": 11.5,
              "duration": 0.241667
            },
            {
              "pitch": 42,
              "velocity": 56,
              "position": 11.5,
              "duration": 0.041667
            },
            {
              "pitch": 36,
              "velocity": 80,
              "position": 12.0,
              "duration": 0.058333
            },
            {
              "pitch": 42,
              "velocity": 71,
              "position": 12.0,
              "duration": 0.041667
            },
            {
              "pitch": 40,
              "velocity": 67,
              "position": 12.5,
              "duration": 0.058333
            },
            {
              "pitch": 42,
              "velocity": 55,
              "position": 12.5,
              "duration": 0.041667
            },
            {
              "pitch": 38,
              "velocity": 88,
              "position": 13.0,
              "duration": 0.041667
            },
            {
              "pitch": 42,
              "velocity": 94,
              "position": 13.0,
              "duration": 0.041667
            },
            {
              "pitch": 42,
              "velocity": 63,
              "position": 13.5,
              "duration": 0.041667
            },
            {
              "pitch": 36,
              "velocity": 76,
              "position": 14.0,
              "duration": 0.041667
            },
            {
              "pitch": 42,
              "velocity": 78,
              "position": 14.0,
              "duration": 0.041667
            },
            {
              "pitch": 38,
              "velocity": 97,
              "position": 14.5,
              "duration": 0.058333
            },
            {
              "pitch": 48,
              "velocity": 83,
              "position": 15.0,
              "duration": 0.033333
            },
            {
              "pitch": 48,
              "velocity": 83,
              "position": 15.25,
              "duration": 0.033333
            },
            {
              "pitch": 36,
              "velocity": 83,
              "position": 15.5,
              "duration": 0.291667
            },
            {
              "pitch": 43,
              "velocity": 90,
              "position": 15.5,
              "duration": 0.033333
            }
          ]
        },
        "10": {
          "ctab": {
            "srcChannel": 10,
            "name": "Bass",
            "accType": "BASS",
            "editable": true,
            "mutedNotes": [],
            "mutedChords": [],
            "sourceChordNote": 0,
            "sourceChordType": "Maj7",
            "ctb2Main": {
              "ntr": "ROOT_TRANSPOSITION",
              "ntt": "BYPASS",
              "bassOn": true,
              "noteLowLimit": 20,
              "noteHighLimit": 60,
              "chordRootUpperLimit": 127,
              "rtr": "NOTE_GENERATOR"
            }
          },
          "notes": [
            {
              "pitch": 36,
              "velocity": 76,
              "position": 0.5,
              "duration": 0.258333
            },
            {
              "pitch": 36,
              "velocity": 87,
              "position": 1.0,
              "duration": 0.266667
            },
            {
              "pitch": 36,
              "velocity": 77,
              "position": 1.5,
              "duration": 0.258333
            },
            {
              "pitch": 36,
              "velocity": 94,
              "position": 2.0,
              "duration": 0.308333
            },
            {
              "pitch": 36,
              "velocity": 76,
              "position": 2.5,
              "duration": 0.258333
            },
            {
              "pitch": 36,
              "velocity": 87,
              "position": 3.0,
              "duration": 0.266667
            },
            {
              "pitch": 36,
              "velocity": 77,
              "position": 3.5,
              "duration": 0.258333
            },
            {
              "pitch": 36,
              "velocity": 94,
              "position": 4.0,
              "duration": 0.308333
            },
            {
              "pitch": 36,
              "velocity": 76,
              "position": 4.5,
              "duration": 0.258333
            },
            {
              "pitch": 36,
              "velocity": 87,
              "position": 5.0,
              "duration": 0.266667
            },
            {
              "pitch": 36,
              "velocity": 77,
              "position": 5.5,
              "duration": 0.258333
            },
            {
              "pitch": 36,
              "velocity": 94,
              "position": 6.008333,
              "duration": 0.308333
            },
            {
              "pitch": 36,
              "velocity": 76,
              "position": 6.508333,
              "duration": 0.258333
            },
            {
              "pitch": 36,
              "velocity": 87,
              "position": 7.008333,
              "duration": 0.266667
            },
            {
              "pitch": 43,
              "velocity": 77,
              "position": 7.508333,
              "duration": 0.258333
            },
            {
              "pitch": 36,
              "velocity": 104,
              "position": 8.0,
              "duration": 0.208333
            },
            {
              "pitch": 36,
              "velocity": 82,
              "position": 8.5,
              "duration": 0.225
            },
            {
              "pitch": 36,
              "velocity": 82,
              "position": 9.0,
              "duration": 0.225
            },
            {
              "pitch": 36,
              "velocity": 82,
              "position": 9.5,
              "duration": 0.225
            },
            {
              "pitch": 36,
              "velocity": 82,
              "position": 10.0,
              "duration": 0.225
            },
            {
              "pitch": 36,
              "velocity": 82,
              "position": 10.491667,
              "duration": 0.233333
            },
            {
              "pitch": 36,
              "velocity": 82,
              "position": 11.0,
              "duration": 0.225
            },
            {
              "pitch": 36,
              "velocity": 82,
              "position": 11.508333,
              "duration": 0.216667
            },
            {
              "pitch": 36,
              "velocity": 82,
              "position": 12.0,
              "duration": 0.225
            },
            {
              "pitch": 36,
              "velocity": 82,
              "position": 12.5,
              "duration": 0.233333
            },
            {
              "pitch": 36,
              "velocity": 82,
              "position": 13.0,
              "duration": 0.216667
            },
            {
              "pitch": 36,
              "velocity": 82,
              "position": 13.5,
              "duration": 0.225
            },
            {
              "pitch": 36,
              "velocity": 82,
              "position": 14.0,
              "duration": 0.225
            },
            {
              "pitch": 31,
              "velocity": 82,
              "position": 14.5,
              "duration": 0.216667
            },
            {
              "pitch": 33,
              "velocity": 82,
              "position": 15.0,
              "duration": 0.225
            },
            {
              "pitch": 31,
              "velocity": 82,
              "position": 15.5,
              "duration": 0.225
            }
          ]
        },
        "11": {
          "ctab": {
            "srcChannel": 11,
            "name": "Piano",
            "accType": "CHORD1",
            "editable": true,
            "mutedNotes": [],
            "mutedChords": [],
            "sourceChordNote": 0,
            "sourceChordType": "Maj7",
            "ctb2Main": {
              "ntr": "ROOT_FIXED",
              "ntt": "CHORD",
              "bassOn": false,
              "noteLowLimit": 48,
              "noteHighLimit": 84,
              "chordRootUpperLimit": 127,
              "rtr": "NOTE_GENERATOR"
            }
          },
          "notes": [
            {
              "pitch": 48,
              "velocity": 57,
              "position": 0.008333,
              "duration": 1.408333
            },
            {
              "pitch": 59,
              "velocity": 71,
              "position": 0.025,
              "duration": 1.391667
            },
            {
              "pitch": 62,
              "velocity": 71,
              "position": 0.025,
              "duration": 1.391667
            },
            {
              "pitch": 64,
              "velocity": 71,
              "position": 0.025,
              "duration": 1.391667
            },
            {
              "pitch": 67,
              "velocity": 71,
              "position": 0.025,
              "duration": 1.391667
            },
            {
              "pitch": 48,
              "velocity": 51,
              "position": 1.508333,
              "duration": 0.9
            },
            {
              "pitch": 59,
              "velocity": 71,
              "position": 2.516667,
              "duration": 0.408333
            },
            {
              "pitch": 62,
              "velocity": 71,
              "position": 2.516667,
              "duration": 0.408333
            },
            {
              "pitch": 64,
              "velocity": 71,
              "position": 2.516667,
              "duration": 0.408333
            },
            {
              "pitch": 67,
              "velocity": 71,
              "position": 2.516667,
              "duration": 0.408333
            },
            {
              "pitch": 59,
              "velocity": 75,
              "position": 3.0,
              "duration": 0.416667
            },
            {
              "pitch": 48,
              "velocity": 57,
              "position": 3.508333,
              "duration": 2.433333
            },
            {
              "pitch": 59,
              "velocity": 71,
              "position": 3.516667,
              "duration": 2.425
            },
            {
              "pitch": 62,
              "velocity": 71,
              "position": 3.516667,
              "duration": 2.425
            },
            {
              "pitch": 64,
              "velocity": 71,
              "position": 3.516667,
              "duration": 2.425
            },
            {
              "pitch": 67,
              "velocity": 71,
              "position": 3.516667,
              "duration": 2.425
            },
            {
              "pitch": 48,
              "velocity": 57,
              "position": 6.008333,
              "duration": 1.95
            },
            {
              "pitch": 59,
              "velocity": 71,
              "position": 6.016667,
              "duration": 1.941667
            },
            {
              "pitch": 62,
              "velocity": 71,
              "position": 6.016667,
              "duration": 1.941667
            },
            {
              "pitch": 64,
              "velocity": 71,
              "position": 6.016667,
              "duration": 1.941667
            },
            {
              "pitch": 67,
              "velocity": 71,
              "position": 6.016667,
              "duration": 1.941667
            },
            {
              "pitch": 48,
              "velocity": 55,
              "position": 8.008333,
              "duration": 3.3
            },
            {
              "pitch": 59,
              "velocity": 69,
              "position": 8.025,
              "duration": 3.266667
            },
            {
              "pitch": 62,
              "velocity": 69,
              "position": 8.025,
              "duration": 3.266667
            },
            {
              "pitch": 64,
              "velocity": 69,
              "position": 8.025,
              "duration": 3.266667
            },
            {
              "pitch": 67,
              "velocity": 69,
              "position": 8.025,
              "duration": 3.266667
            },
            {
              "pitch": 59,
              "velocity": 69,
              "position": 11.516667,
              "duration": 4.441667
            },
            {
              "pitch": 62,
              "velocity": 69,
              "position": 11.516667,
              "duration": 4.441667
            },
            {
              "pitch": 64,
              "velocity": 69,
              "position": 11.516667,
              "duration": 4.441667
            },
            {
              "pitch": 67,
              "velocity": 69,
              "position": 11.516667,
              "duration": 4.441667
            },
            {
              "pitch": 48,
              "velocity": 69,
              "position": 11.533333,
              "duration": 4.425
            }
          ]
        },
        "12": {
          "ctab": {
            "srcChannel": 12,
            "name": "Guitar",
            "accType": "CHORD2",
            "editable": true,
            "mutedNotes": [],
            "mutedChords": [],
            "sourceChordNote": 0,
            "sourceChordType": "Maj7",
            "ctb2Main": {
              "ntr": "ROOT_FIXED",
              "ntt": "CHORD",
              "bassOn": false,
              "noteLowLimit": 40,
              "noteHighLimit": 76,
              "chordRootUpperLimit": 127,
              "rtr": "NOTE_GENERATOR"
            }
          },
          "notes": [
            {
              "pitch": 60,
              "velocity": 64,
              "position": 0.0,
              "duration": 1.416667
            },
            {
              "pitch": 59,
              "velocity": 64,
              "position": 0.016667,
              "duration": 1.4
            },
            {
              "pitch": 67,
              "velocity": 59,
              "position": 0.016667,
              "duration": 1.4
            },
            {
              "pitch": 60,
              "velocity": 64,
              "position": 1.5,
              "duration": 1.916667
            },
            {
              "pitch": 59,
              "velocity": 64,
              "position": 1.516667,
              "duration": 1.9
            },
            {
              "pitch": 67,
              "velocity": 59,
              "position": 1.516667,
              "duration": 1.9
            },
            {
              "pitch": 59,
              "velocity": 64,
              "position": 3.5,
              "duration": 0.7
            },
            {
              "pitch": 60,
              "velocity": 60,
              "position": 3.5,
              "duration": 0.7
            },
            {
              "pitch": 67,
              "velocity": 64,
              "position": 3.5,
              "duration": 0.7
            },
            {
              "pitch": 60,
              "velocity": 60,
              "position": 4.5,
              "duration": 0.65
            },
            {
              "pitch": 59,
              "velocity": 65,
              "position": 5.0,
              "duration": 0.658333
            },
            {
              "pitch": 55,
              "velocity": 60,
              "position": 5.5,
              "duration": 0.416667
            },
            {
              "pitch": 60,
              "velocity": 65,
              "position": 6.0,
              "duration": 2.0
            },
            {
              "pitch": 59,
              "velocity": 65,
              "position": 6.016667,
              "duration": 1.983333
            },
            {
              "pitch": 67,
              "velocity": 60,
              "position": 6.016667,
              "duration": 1.983333
            },
            {
              "pitch": 48,
              "velocity": 63,
              "position": 6.033333,
              "duration": 1.966667
            },
            {
              "pitch": 59,
              "velocity": 65,
              "position": 8.0,
              "duration": 3.008333
            },
            {
              "pitch": 52,
              "velocity": 65,
              "position": 8.016667,
              "duration": 3.116667
            },
            {
              "pitch": 60,
              "velocity": 60,
              "position": 8.016667,
              "duration": 3.1
            },
            {
              "pitch": 59,
              "velocity": 64,
              "position": 11.483333,
              "duration": 0.3
            },
            {
              "pitch": 60,
              "velocity": 60,
              "position": 11.516667,
              "duration": 0.266667
            },
            {
              "pitch": 67,
              "velocity": 64,
              "position": 11.525,
              "duration": 0.325
            },
            {
              "pitch": 52,
              "velocity": 60,
              "position": 12.475,
              "duration": 3.116667
            },
            {
              "pitch": 59,
              "velocity": 60,
              "position": 12.483333,
              "duration": 3.183333
            },
            {
              "pitch": 60,
              "velocity": 60,
              "position": 12.5,
              "duration": 3.1
            }
          ]
        },
        "13": {
          "ctab": {
            "srcChannel": 13,
            "name": "Strings",
            "accType": "PAD",
            "editable": true,
            "mutedNotes": [],
            "mutedChords": [],
            "sourceChordNote": 0,
            "sourceChordType": "Maj7",
            "ctb2Main": {
              "ntr": "ROOT_FIXED",
              "ntt": "MELODY",
              "bassOn": false,
              "noteLowLimit": 36,
              "noteHighLimit": 96,
              "chordRootUpperLimit": 127,
              "rtr": "PITCH_SHIFT"
            }
          },
          "notes": [
            {
              "pitch": 52,
              "velocity": 42,
              "position": 3.5,
              "duration": 4.441667
            },
            {
              "pitch": 59,
              "velocity": 48,
              "position": 3.5,
              "duration": 0.958333
            },
            {
              "pitch": 67,
              "velocity": 50,
              "position": 4.483333,
              "duration": 3.466667
            },
            {
              "pitch": 60,
              "velocity": 40,
              "position": 6.525,
              "duration": 0.833333
            },
            {
              "pitch": 59,
              "velocity": 48,
              "position": 7.508333,
              "duration": 0.45
            },
            {
              "pitch": 59,
              "velocity": 40,
              "position": 8.033333,
              "duration": 4.441667
            },
            {
              "pitch": 52,
              "velocity": 42,
              "position": 11.483333,
              "duration": 4.475
            },
            {
              "pitch": 67,
              "velocity": 50,
              "position": 12.483333,
              "duration": 2.025
            },
            {
              "pitch": 60,
              "velocity": 40,
              "position": 14.525,
              "duration": 1.433333
            }
          ]
        }
      }
    },
    "Ending_A": {
      "type": "Ending_A",
      "sizeInBeats": 16,
      "channels": {
        "9": {
          "ctab": {
            "srcChannel": 9,
            "name": "Drums",
            "accType": "RHYTHM",
            "editable": false,
            "mutedNotes": [],
            "mutedChords": [],
            "sourceChordNote": 0,
            "sourceChordType": "Maj",
            "ctb2Main": {
              "ntr": "ROOT_FIXED",
              "ntt": "BYPASS",
              "bassOn": false,
              "noteLowLimit": 20,
              "noteHighLimit": 127,
              "chordRootUpperLimit": 127,
              "rtr": "RETRIGGER"
            }
          },
          "notes": [
            {
              "pitch": 36,
              "velocity": 59,
              "position": 0.0,
              "duration": 0.041667
            },
            {
              "pitch": 57,
              "velocity": 74,
              "position": 0.016667,
              "duration": 0.058333
            },
            {
              "pitch": 42,
              "velocity": 47,
              "position": 0.5,
              "duration": 0.041667
            },
            {
              "pitch": 38,
              "velocity": 86,
              "position": 1.0,
              "duration": 0.041667
            },
            {
              "pitch": 42,
              "velocity": 88,
              "position": 1.0,
              "duration": 0.041667
            },
            {
              "pitch": 42,
              "velocity": 47,
              "position": 1.5,
              "duration": 0.041667
            },
            {
              "pitch": 36,
              "velocity": 73,
              "position": 2.0,
              "duration": 0.041667
            },
            {
              "pitch": 42,
              "velocity": 69,
              "position": 2.0,
              "duration": 0.041667
            },
            {
              "pitch": 42,
              "velocity": 47,
              "position": 2.5,
              "duration": 0.041667
            },
            {
              "pitch": 38,
              "velocity": 75,
              "position": 3.0,
              "duration": 0.058333
            },
            {
              "pitch": 42,
              "velocity": 70,
              "position": 3.0,
              "duration": 0.041667
            },
            {
              "pitch": 40,
              "velocity": 67,
              "position": 3.5,
              "duration": 0.5
            },
            {
              "pitch": 42,
              "velocity": 47,
              "position": 3.5,
              "duration": 0.041667
            },
            {
              "pitch": 36,
              "velocity": 72,
              "position": 4.0,
              "duration": 0.058333
            },
            {
              "pitch": 42,
              "velocity": 63,
              "position": 4.0,
              "duration": 0.041667
            },
            {
              "pitch": 40,
              "velocity": 67,
              "position": 4.5,
              "duration": 0.058333
            },
            {
              "pitch": 42,
              "velocity": 47,
              "position": 4.5,
              "duration": 0.041667
            },
            {
              "pitch": 38,
              "velocity": 80,
              "position": 5.0,
              "duration": 0.041667
            },
            {
              "pitch": 42,
              "velocity": 86,
              "position": 5.0,
              "duration": 0.041667
            },
            {
              "pitch": 42,
              "velocity": 55,
              "position": 5.5,
              "duration": 0.041667
            },
            {
              "pitch": 36,
              "velocity": 68,
              "position": 6.0,
              "duration": 0.041667
            },
            {
              "pitch": 42,
              "velocity": 70,
              "position": 6.0,
              "duration": 0.041667
            },
            {
              "pitch": 36,
              "velocity": 65,
              "position": 6.5,
              "duration": 0.041667
            },
            {
              "pitch": 42,
              "velocity": 50,
              "position": 6.5,
              "duration": 0.041667
            },
            {
              "pitch": 38,
              "velocity": 80,
              "position": 7.0,
              "duration": 0.041667
            },
            {
              "pitch": 42,
              "velocity": 70,
              "position": 7.0,
              "duration": 0.041667
            },
            {
              "pitch": 42,
              "velocity": 47,
              "position": 7.5,
              "duration": 0.041667
            },
            {
              "pitch": 36,
              "velocity": 70,
              "position": 8.0,
              "duration": 0.041667
            },
            {
              "pitch": 42,
              "velocity": 67,
              "position": 8.0,
              "duration": 0.041667
            },
            {
              "pitch": 42,
              "velocity": 47,
              "position": 8.5,
              "duration": 0.041667
            },
            {
              "pitch": 38,
              "velocity": 78,
              "position": 9.0,
              "duration": 0.041667
            },
            {
              "pitch": 42,
              "velocity": 80,
              "position": 9.0,
              "duration": 0.041667
            },
            {
              "pitch": 42,
              "velocity": 47,
              "position": 9.5,
              "duration": 0.041667
            },
            {
              "pitch": 36,
              "velocity": 70,
              "position": 10.0,
              "duration": 0.041667
            },
            {
              "pitch": 42,
              "velocity": 70,
              "position": 10.0,
              "duration": 0.041667
            },
            {
              "pitch": 42,
              "velocity": 47,
              "position": 10.491667,
              "duration": 0.041667
            },
            {
              "pitch": 38,
              "velocity": 82,
              "position": 11.0,
              "duration": 0.058333
            },
            {
              "pitch": 42,
              "velocity": 82,
              "position": 11.0,
              "duration": 0.041667
            },
            {
              "pitch": 38,
              "velocity": 67,
              "position": 11.5,
              "duration": 0.208333
            },
            {
              "pitch": 42,
              "velocity": 50,
              "position": 11.5,
              "duration": 0.041667
            },
            {
              "pitch": 36,
              "velocity": 80,
              "position": 12.0,
              "duration": 0.058333
            },
            {
              "pitch": 42,
              "velocity": 71,
              "position": 12.0,
              "duration": 0.041667
            },
            {
              "pitch": 40,
              "velocity": 67,
              "position": 12.5,
              "duration": 0.058333
            },
            {
              "pitch": 42,
              "velocity": 55,
              "position": 12.5,
              "duration": 0.041667
            },
            {
              "pitch": 38,
              "velocity": 88,
              "position": 13.0,
              "duration": 0.041667
            },
            {
              "pitch": 42,
              "velocity": 94,
              "position": 13.0,
              "duration": 0.041667
            },
            {
              "pitch": 42,
              "velocity": 63,
              "position": 13.5,
              "duration": 0.041667
            },
            {
              "pitch": 36,
              "velocity": 76,
              "position": 14.0,
              "duration": 0.041667
            },
            {
              "pitch": 42,
              "velocity": 78,
              "position": 14.0,
              "duration": 0.041667
            },
            {
              "pitch": 38,
              "velocity": 97,
              "position": 14.5,
              "duration": 0.058333
            },
            {
              "pitch": 42,
              "velocity": 58,
              "position": 14.5,
              "duration": 0.041667
            },
            {
              "pitch": 42,
              "velocity": 78,
              "position": 15.0,
              "duration": 0.033333
            },
            {
              "pitch": 48,
              "velocity": 83,
              "position": 15.0,
              "duration": 0.033333
            },
            {
              "pitch": 48,
              "velocity": 83,
              "position": 15.25,
              "duration": 0.033333
            },
            {
              "pitch": 36,
              "velocity": 83,
              "position": 15.5,
              "duration": 0.291667
            },
            {
              "pitch": 43,
              "velocity": 90,
              "position": 15.5,
              "duration": 0.033333
            }
          ]
        },
        "10": {
          "ctab": {
            "srcChannel": 10,
            "name": "Bass",
            "accType": "BASS",
            "editable": true,
            "mutedNotes": [],
            "mutedChords": [],
            "sourceChordNote": 0,
            "sourceChordType": "Maj7",
            "ctb2Main": {
              "ntr": "ROOT_TRANSPOSITION",
              "ntt": "BYPASS",
              "bassOn": true,
              "noteLowLimit": 20,
              "noteHighLimit": 60,
              "chordRootUpperLimit": 127,
              "rtr": "NOTE_GENERATOR"
            }
          },
          "notes": [
            {
              "pitch": 36,
              "velocity": 85,
              "position": 0.008333,
              "duration": 0.308333
            },
            {
              "pitch": 36,
              "velocity": 67,
              "position": 0.508333,
              "duration": 0.258333
            },
            {
              "pitch": 36,
              "velocity": 78,
              "position": 1.008333,
              "duration": 0.266667
            },
            {
              "pitch": 33,
              "velocity": 68,
              "position": 1.508333,
              "duration": 0.258333
            },
            {
              "pitch": 36,
              "velocity": 85,
              "position": 2.0,
              "duration": 0.308333
            },
            {
              "pitch": 36,
              "velocity": 67,
              "position": 2.5,
              "duration": 0.258333
            },
            {
              "pitch": 36,
              "velocity": 78,
              "position": 3.0,
              "duration": 0.266667
            },
            {
              "pitch": 36,
              "velocity": 68,
              "position": 3.5,
              "duration": 0.258333
            },
            {
              "pitch": 36,
              "velocity": 85,
              "position": 4.008333,
              "duration": 0.308333
            },
            {
              "pitch": 36,
              "velocity": 67,
              "position": 4.508333,
              "duration": 0.258333
            },
            {
              "pitch": 36,
              "velocity": 78,
              "position": 5.008333,
              "duration": 0.266667
            },
            {
              "pitch": 40,
              "velocity": 68,
              "position": 5.508333,
              "duration": 0.258333
            },
            {
              "pitch": 36,
              "velocity": 85,
              "position": 6.008333,
              "duration": 0.308333
            },
            {
              "pitch": 36,
              "velocity": 67,
              "position": 6.508333,
              "duration": 0.258333
            },
            {
              "pitch": 36,
              "velocity": 78,
              "position": 7.008333,
              "duration": 0.266667
            },
            {
              "pitch": 36,
              "velocity": 68,
              "position": 7.508333,
              "duration": 0.258333
            },
            {
              "pitch": 36,
              "velocity": 90,
              "position": 8.0,
              "duration": 0.275
            },
            {
              "pitch": 36,
              "velocity": 72,
              "position": 8.5,
              "duration": 0.225
            },
            {
              "pitch": 36,
              "velocity": 72,
              "position": 9.0,
              "duration": 0.233333
            },
            {
              "pitch": 36,
              "velocity": 72,
              "position": 9.5,
              "duration": 0.225
            },
            {
              "pitch": 36,
              "velocity": 72,
              "position": 10.0,
              "duration": 0.216667
            },
            {
              "pitch": 31,
              "velocity": 72,
              "position": 10.5,
              "duration": 0.225
            },
            {
              "pitch": 43,
              "velocity": 72,
              "position": 11.008333,
              "duration": 0.216667
            },
            {
              "pitch": 31,
              "velocity": 72,
              "position": 11.5,
              "duration": 0.225
            },
            {
              "pitch": 36,
              "velocity": 90,
              "position": 12.0,
              "duration": 0.275
            },
            {
              "pitch": 36,
              "velocity": 72,
              "position": 12.5,
              "duration": 0.225
            },
            {
              "pitch": 36,
              "velocity": 72,
              "position": 13.0,
              "duration": 0.233333
            },
            {
              "pitch": 36,
              "velocity": 72,
              "position": 13.5,
              "duration": 0.225
            },
            {
              "pitch": 36,
              "velocity": 72,
              "position": 14.0,
              "duration": 0.216667
            },
            {
              "pitch": 31,
              "velocity": 72,
              "position": 14.5,
              "duration": 0.225
            },
            {
              "pitch": 43,
              "velocity": 72,
              "position": 15.008333,
              "duration": 0.216667
            },
            {
              "pitch": 31,
              "velocity": 72,
              "position": 15.5,
              "duration": 0.225
            }
          ]
        },
        "11": {
          "ctab": {
            "srcChannel": 11,
            "name": "Piano",
            "accType": "CHORD1",
            "editable": true,
            "mutedNotes": [],
            "mutedChords": [],
            "sourceChordNote": 0,
            "sourceChordType": "Maj7",
            "ctb2Main": {
              "ntr": "ROOT_FIXED",
              "ntt": "CHORD",
              "bassOn": false,
              "noteLowLimit": 48,
              "noteHighLimit": 84,
              "chordRootUpperLimit": 127,
              "rtr": "NOTE_GENERATOR"
            }
          },
          "notes": [
            {
              "pitch": 48,
              "velocity": 48,
              "position": 0.008333,
              "duration": 1.475
            },
            {
              "pitch": 59,
              "velocity": 62,
              "position": 0.025,
              "duration": 1.466667
            },
            {
              "pitch": 62,
              "velocity": 62,
              "position": 0.025,
              "duration": 1.466667
            },
            {
              "pitch": 64,
              "velocity": 62,
              "position": 0.025,
              "duration": 1.466667
            },
            {
              "pitch": 67,
              "velocity": 62,
              "position": 0.025,
              "duration": 1.466667
            },
            {
              "pitch": 48,
              "velocity": 48,
              "position": 2.008333,
              "duration": 1.475
            },
            {
              "pitch": 59,
              "velocity": 62,
              "position": 2.025,
              "duration": 1.466667
            },
            {
              "pitch": 62,
              "velocity": 62,
              "position": 2.025,
              "duration": 1.466667
            },
            {
              "pitch": 64,
              "velocity": 62,
              "position": 2.025,
              "duration": 1.466667
            },
            {
              "pitch": 67,
              "velocity": 62,
              "position": 2.025,
              "duration": 1.466667
            },
            {
              "pitch": 48,
              "velocity": 48,
              "position": 4.008333,
              "duration": 1.95
            },
            {
              "pitch": 59,
              "velocity": 62,
              "position": 4.016667,
              "duration": 1.941667
            },
            {
              "pitch": 62,
              "velocity": 62,
              "position": 4.016667,
              "duration": 1.941667
            },
            {
              "pitch": 64,
              "velocity": 62,
              "position": 4.016667,
              "duration": 1.941667
            },
            {
              "pitch": 67,
              "velocity": 62,
              "position": 4.016667,
              "duration": 1.941667
            },
            {
              "pitch": 48,
              "velocity": 48,
              "position": 6.008333,
              "duration": 1.475
            },
            {
              "pitch": 59,
              "velocity": 62,
              "position": 6.025,
              "duration": 1.466667
            },
            {
              "pitch": 62,
              "velocity": 62,
              "position": 6.025,
              "duration": 1.466667
            },
            {
              "pitch": 64,
              "velocity": 62,
              "position": 6.025,
              "duration": 1.466667
            },
            {
              "pitch": 67,
              "velocity": 62,
              "position": 6.025,
              "duration": 1.466667
            },
            {
              "pitch": 48,
              "velocity": 49,
              "position": 8.008333,
              "duration": 1.266667
            },
            {
              "pitch": 59,
              "velocity": 63,
              "position": 8.025,
              "duration": 1.25
            },
            {
              "pitch": 62,
              "velocity": 63,
              "position": 8.025,
              "duration": 1.25
            },
            {
              "pitch": 64,
              "velocity": 63,
              "position": 8.025,
              "duration": 1.25
            },
            {
              "pitch": 67,
              "velocity": 63,
              "position": 8.025,
              "duration": 1.25
            },
            {
              "pitch": 59,
              "velocity": 63,
              "position": 9.5,
              "duration": 0.85
            },
            {
              "pitch": 62,
              "velocity": 63,
              "position": 9.5,
              "duration": 0.85
            },
            {
              "pitch": 67,
              "velocity": 63,
              "position": 9.5,
              "duration": 0.85
            },
            {
              "pitch": 59,
              "velocity": 55,
              "position": 10.5,
              "duration": 1.216667
            },
            {
              "pitch": 62,
              "velocity": 55,
              "position": 10.5,
              "duration": 1.216667
            },
            {
              "pitch": 64,
              "velocity": 55,
              "position": 10.5,
              "duration": 1.216667
            },
            {
              "pitch": 67,
              "velocity": 55,
              "position": 10.5,
              "duration": 1.216667
            },
            {
              "pitch": 55,
              "velocity": 45,
              "position": 11.508333,
              "duration": 0.45
            },
            {
              "pitch": 48,
              "velocity": 49,
              "position": 12.008333,
              "duration": 1.266667
            },
            {
              "pitch": 59,
              "velocity": 63,
              "position": 12.025,
              "duration": 1.25
            },
            {
              "pitch": 62,
              "velocity": 63,
              "position": 12.025,
              "duration": 1.25
            },
            {
              "pitch": 64,
              "velocity": 63,
              "position": 12.025,
              "duration": 1.25
            },
            {
              "pitch": 67,
              "velocity": 63,
              "position": 12.025,
              "duration": 1.25
            },
            {
              "pitch": 59,
              "velocity": 63,
              "position": 13.5,
              "duration": 0.85
            },
            {
              "pitch": 62,
              "velocity": 63,
              "position": 13.5,
              "duration": 0.85
            },
            {
              "pitch": 67,
              "velocity": 63,
              "position": 13.5,
              "duration": 0.85
            },
            {
              "pitch": 59,
              "velocity": 55,
              "position": 14.5,
              "duration": 1.216667
            },
            {
              "pitch": 62,
              "velocity": 55,
              "position": 14.5,
              "duration": 1.216667
            },
            {
              "pitch": 64,
              "velocity": 55,
              "position": 14.5,
              "duration": 1.216667
            },
            {
              "pitch": 67,
              "velocity": 55,
              "position": 14.5,
              "duration": 1.216667
            },
            {
              "pitch": 55,
              "velocity": 45,
              "position": 15.508333,
              "duration": 0.45
            }
          ]
        },
        "12": {
          "ctab": {
            "srcChannel": 12,
            "name": "Guitar",
            "accType": "CHORD2",
            "editable": true,
            "mutedNotes": [],
            "mutedChords": [],
            "sourceChordNote": 0,
            "sourceChordType": "Maj7",
            "ctb2Main": {
              "ntr": "ROOT_FIXED",
              "ntt": "CHORD",
              "bassOn": false,
              "noteLowLimit": 40,
              "noteHighLimit": 76,
              "chordRootUpperLimit": 127,
              "rtr": "NOTE_GENERATOR"
            }
          },
          "notes": [
            {
              "pitch": 60,
              "velocity": 56,
              "position": 0.0,
              "duration": 1.958333
            },
            {
              "pitch": 59,
              "velocity": 56,
              "position": 0.016667,
              "duration": 1.941667
            },
            {
              "pitch": 67,
              "velocity": 51,
              "position": 0.016667,
              "duration": 1.941667
            },
            {
              "pitch": 60,
              "velocity": 56,
              "position": 2.0,
              "duration": 1.416667
            },
            {
              "pitch": 59,
              "velocity": 56,
              "position": 2.016667,
              "duration": 1.4
            },
            {
              "pitch": 67,
              "velocity": 51,
              "position": 2.016667,
              "duration": 1.4
            },
            {
              "pitch": 59,
              "velocity": 55,
              "position": 3.5,
              "duration": 0.7
            },
            {
              "pitch": 60,
              "velocity": 51,
              "position": 3.5,
              "duration": 0.7
            },
            {
              "pitch": 67,
              "velocity": 55,
              "position": 3.5,
              "duration": 0.7
            },
            {
              "pitch": 55,
              "velocity": 51,
              "position": 4.5,
              "duration": 0.65
            },
            {
              "pitch": 59,
              "velocity": 56,
              "position": 5.0,
              "duration": 0.658333
            },
            {
              "pitch": 55,
              "velocity": 51,
              "position": 5.5,
              "duration": 0.416667
            },
            {
              "pitch": 59,
              "velocity": 56,
              "position": 6.0,
              "duration": 2.0
            },
            {
              "pitch": 52,
              "velocity": 56,
              "position": 6.016667,
              "duration": 1.983333
            },
            {
              "pitch": 60,
              "velocity": 51,
              "position": 6.016667,
              "duration": 1.983333
            },
            {
              "pitch": 59,
              "velocity": 58,
              "position": 8.016667,
              "duration": 3.258333
            },
            {
              "pitch": 60,
              "velocity": 35,
              "position": 8.025,
              "duration": 3.325
            },
            {
              "pitch": 67,
              "velocity": 54,
              "position": 8.025,
              "duration": 3.35
            },
            {
              "pitch": 48,
              "velocity": 62,
              "position": 10.491667,
              "duration": 0.783333
            },
            {
              "pitch": 55,
              "velocity": 62,
              "position": 11.025,
              "duration": 0.275
            },
            {
              "pitch": 59,
              "velocity": 55,
              "position": 11.5,
              "duration": 0.65
            },
            {
              "pitch": 60,
              "velocity": 51,
              "position": 11.5,
              "duration": 0.65
            },
            {
              "pitch": 67,
              "velocity": 55,
              "position": 11.5,
              "duration": 0.675
            },
            {
              "pitch": 52,
              "velocity": 51,
              "position": 12.475,
              "duration": 3.116667
            },
            {
              "pitch": 59,
              "velocity": 51,
              "position": 12.483333,
              "duration": 3.183333
            },
            {
              "pitch": 60,
              "velocity": 51,
              "position": 12.5,
              "duration": 3.1
            }
          ]
        },
        "13": {
          "ctab": {
            "srcChannel": 13,
            "name": "Strings",
            "accType": "PAD",
            "editable": true,
            "mutedNotes": [],
            "mutedChords": [],
            "sourceChordNote": 0,
            "sourceChordType": "Maj7",
            "ctb2Main": {
              "ntr": "ROOT_FIXED",
              "ntt": "MELODY",
              "bassOn": false,
              "noteLowLimit": 36,
              "noteHighLimit": 96,
              "chordRootUpperLimit": 127,
              "rtr": "PITCH_SHIFT"
            }
          },
          "notes": [
            {
              "pitch": 52,
              "velocity": 46,
              "position": 3.5,
              "duration": 4.458333
            },
            {
              "pitch": 59,
              "velocity": 52,
              "position": 3.5,
              "duration": 0.958333
            },
            {
              "pitch": 67,
              "velocity": 54,
              "position": 4.483333,
              "duration": 1.475
            },
            {
              "pitch": 59,
              "velocity": 55,
              "position": 6.0,
              "duration": 1.333333
            },
            {
              "pitch": 60,
              "velocity": 45,
              "position": 6.525,
              "duration": 0.833333
            },
            {
              "pitch": 55,
              "velocity": 53,
              "position": 7.508333,
              "duration": 0.375
            },
            {
              "pitch": 59,
              "velocity": 50,
              "position": 8.033333,
              "duration": 3.416667
            },
            {
              "pitch": 55,
              "velocity": 50,
              "position": 11.5,
              "duration": 3.975
            },
            {
              "pitch": 60,
              "velocity": 50,
              "position": 11.5,
              "duration": 1.491667
            },
            {
              "pitch": 67,
              "velocity": 50,
              "position": 12.991667,
              "duration": 2.908333
            },
            {
              "pitch": 59,
              "velocity": 50,
              "position": 13.491667,
              "duration": 2.0
            },
            {
              "pitch": 55,
              "velocity": 50,
              "position": 15.491667,
              "duration": 0.466667
            }
          ]
        }
      }
    }
  }
}