{
  "name": "Texas Blues (BIAB)",
  "tempo": 55,
  "timeSignature": "4/4",
  "ticksPerQuarter": 120,
  "sffType": "SFF1",
  "division": "BINARY",
  "channelPrograms": {
    "9": 0,
    "10": 33,
    "11": 0,
    "12": 29,
    "13": null
  },
  "parts": {
    "Intro_A": {
      "type": "Intro_A",
      "sizeInBeats": 24,
      "channels": {
        "9": {
          "ctab": {
            "srcChannel": 9,
            "name": "Drums",
            "accType": "RHYTHM",
            "editable": false,
            "mutedNotes": [],
            "mutedChords": [],
            "sourceChordNote": 0,
            "sourceChordType": "Maj",
            "ctb2Main": {
              "ntr": "ROOT_FIXED",
              "ntt": "BYPASS",
              "bassOn": false,
              "noteLowLimit": 20,
              "noteHighLimit": 127,
              "chordRootUpperLimit": 127,
              "rtr": "RETRIGGER"
            }
          },
          "notes": [
            {
              "pitch": 37,
              "velocity": 84,
              "position": 0.0,
              "duration": 1.0
            },
            {
              "pitch": 37,
              "velocity": 84,
              "position": 2.0,
              "duration": 1.0
            },
            {
              "pitch": 37,
              "velocity": 64,
              "position": 4.0,
              "duration": 1.0
            },
            {
              "pitch": 37,
              "velocity": 84,
              "position": 5.0,
              "duration": 1.0
            },
            {
              "pitch": 37,
              "velocity": 64,
              "position": 6.0,
              "duration": 1.0
            },
            {
              "pitch": 37,
              "velocity": 84,
              "position": 7.0,
              "duration": 1.0
            },
            {
              "pitch": 36,
              "velocity": 89,
              "position": 8.0,
              "duration": 0.425
            },
            {
              "pitch": 51,
              "velocity": 98,
              "position": 8.0,
              "duration": 0.15
            },
            {
              "pitch": 51,
              "velocity": 59,
              "position": 8.333333,
              "duration": 0.041667
            },
            {
              "pitch": 51,
              "velocity": 82,
              "position": 8.558333,
              "duration": 0.041667
            },
            {
              "pitch": 36,
              "velocity": 46,
              "position": 8.666667,
              "duration": 0.333333
            },
            {
              "pitch": 51,
              "velocity": 89,
              "position": 8.666667,
              "duration": 0.066667
            },
            {
              "pitch": 38,
              "velocity": 101,
              "position": 9.0,
              "duration": 0.275
            },
            {
              "pitch": 51,
              "velocity": 114,
              "position": 9.0,
              "duration": 0.116667
            },
            {
              "pitch": 51,
              "velocity": 72,
              "position": 9.333333,
              "duration": 0.066667
            },
            {
              "pitch": 36,
              "velocity": 30,
              "position": 9.666667,
              "duration": 0.108333
            },
            {
              "pitch": 51,
              "velocity": 76,
              "position": 9.666667,
              "duration": 0.066667
            },
            {
              "pitch": 36,
              "velocity": 91,
              "position": 10.0,
              "duration": 0.408333
            },
            {
              "pitch": 51,
              "velocity": 103,
              "position": 10.0,
              "duration": 0.15
            },
            {
              "pitch": 51,
              "velocity": 68,
              "position": 10.333333,
              "duration": 0.091667
            },
            {
              "pitch": 36,
              "velocity": 35,
              "position": 10.666667,
              "duration": 0.333333
            },
            {
              "pitch": 51,
              "velocity": 77,
              "position": 10.666667,
              "duration": 0.083333
            },
            {
              "pitch": 38,
              "velocity": 105,
              "position": 11.0,
              "duration": 0.233333
            },
            {
              "pitch": 51,
              "velocity": 112,
              "position": 11.0,
              "duration": 0.1
            },
            {
              "pitch": 51,
              "velocity": 90,
              "position": 11.333333,
              "duration": 0.1
            },
            {
              "pitch": 36,
              "velocity": 33,
              "position": 11.666667,
              "duration": 0.091667
            },
            {
              "pitch": 51,
              "velocity": 80,
              "position": 11.666667,
              "duration": 0.083333
            },
            {
              "pitch": 36,
              "velocity": 94,
              "position": 12.0,
              "duration": 0.358333
            },
            {
              "pitch": 51,
              "velocity": 114,
              "position": 12.0,
              "duration": 0.141667
            },
            {
              "pitch": 51,
              "velocity": 68,
              "position": 12.333333,
              "duration": 0.091667
            },
            {
              "pitch": 36,
              "velocity": 36,
              "position": 12.666667,
              "duration": 0.416667
            },
            {
              "pitch": 51,
              "velocity": 114,
              "position": 12.666667,
              "duration": 0.158333
            },
            {
              "pitch": 38,
              "velocity": 113,
              "position": 13.0,
              "duration": 0.25
            },
            {
              "pitch": 51,
              "velocity": 86,
              "position": 13.0,
              "duration": 0.116667
            },
            {
              "pitch": 51,
              "velocity": 81,
              "position": 13.333333,
              "duration": 0.058333
            },
            {
              "pitch": 51,
              "velocity": 82,
              "position": 13.566667,
              "duration": 0.05
            },
            {
              "pitch": 36,
              "velocity": 53,
              "position": 13.666667,
              "duration": 0.075
            },
            {
              "pitch": 51,
              "velocity": 86,
              "position": 13.666667,
              "duration": 0.083333
            },
            {
              "pitch": 36,
              "velocity": 89,
              "position": 14.0,
              "duration": 0.391667
            },
            {
              "pitch": 51,
              "velocity": 114,
              "position": 14.0,
              "duration": 0.15
            },
            {
              "pitch": 51,
              "velocity": 63,
              "position": 14.333333,
              "duration": 0.066667
            },
            {
              "pitch": 36,
              "velocity": 71,
              "position": 14.666667,
              "duration": 0.391667
            },
            {
              "pitch": 51,
              "velocity": 112,
              "position": 14.666667,
              "duration": 0.083333
            },
            {
              "pitch": 38,
              "velocity": 118,
              "position": 15.0,
              "duration": 0.15
            },
            {
              "pitch": 51,
              "velocity": 112,
              "position": 15.0,
              "duration": 0.1
            },
            {
              "pitch": 36,
              "velocity": 58,
              "position": 15.333333,
              "duration": 0.066667
            },
            {
              "pitch": 51,
              "velocity": 98,
              "position": 15.333333,
              "duration": 0.083333
            },
            {
              "pitch": 36,
              "velocity": 60,
              "position": 15.666667,
              "duration": 0.066667
            },
            {
              "pitch": 51,
              "velocity": 86,
              "position": 15.666667,
              "duration": 0.083333
            },
            {
              "pitch": 36,
              "velocity": 87,
              "position": 16.0,
              "duration": 0.4
            },
            {
              "pitch": 51,
              "velocity": 107,
              "position": 16.0,
              "duration": 0.15
            },
            {
              "pitch": 51,
              "velocity": 72,
              "position": 16.333333,
              "duration": 0.058333
            },
            {
              "pitch": 51,
              "velocity": 68,
              "position": 16.566667,
              "duration": 0.041667
            },
            {
              "pitch": 51,
              "velocity": 68,
              "position": 16.666667,
              "duration": 0.058333
            },
            {
              "pitch": 38,
              "velocity": 113,
              "position": 17.0,
              "duration": 0.233333
            },
            {
              "pitch": 51,
              "velocity": 114,
              "position": 17.0,
              "duration": 0.133333
            },
            {
              "pitch": 51,
              "velocity": 68,
              "position": 17.333333,
              "duration": 0.05
            },
            {
              "pitch": 51,
              "velocity": 70,
              "position": 17.566667,
              "duration": 0.041667
            },
            {
              "pitch": 36,
              "velocity": 50,
              "position": 17.666667,
              "duration": 0.05
            },
            {
              "pitch": 51,
              "velocity": 83,
              "position": 17.666667,
              "duration": 0.075
            },
            {
              "pitch": 36,
              "velocity": 89,
              "position": 18.0,
              "duration": 0.483333
            },
            {
              "pitch": 51,
              "velocity": 114,
              "position": 18.0,
              "duration": 0.166667
            },
            {
              "pitch": 51,
              "velocity": 67,
              "position": 18.333333,
              "duration": 0.091667
            },
            {
              "pitch": 36,
              "velocity": 60,
              "position": 18.666667,
              "duration": 0.033333
            },
            {
              "pitch": 51,
              "velocity": 72,
              "position": 18.666667,
              "duration": 0.066667
            },
            {
              "pitch": 38,
              "velocity": 105,
              "position": 19.0,
              "duration": 0.183333
            },
            {
              "pitch": 51,
              "velocity": 112,
              "position": 19.0,
              "duration": 0.133333
            },
            {
              "pitch": 51,
              "velocity": 76,
              "position": 19.333333,
              "duration": 0.075
            },
            {
              "pitch": 36,
              "velocity": 40,
              "position": 19.666667,
              "duration": 0.05
            },
            {
              "pitch": 51,
              "velocity": 86,
              "position": 19.666667,
              "duration": 0.083333
            },
            {
              "pitch": 36,
              "velocity": 99,
              "position": 20.0,
              "duration": 0.175
            },
            {
              "pitch": 51,
              "velocity": 103,
              "position": 20.0,
              "duration": 0.175
            },
            {
              "pitch": 51,
              "velocity": 68,
              "position": 20.233333,
              "duration": 0.091667
            },
            {
              "pitch": 51,
              "velocity": 65,
              "position": 20.333333,
              "duration": 0.075
            },
            {
              "pitch": 36,
              "velocity": 53,
              "position": 20.666667,
              "duration": 0.033333
            },
            {
              "pitch": 51,
              "velocity": 63,
              "position": 20.666667,
              "duration": 0.066667
            },
            {
              "pitch": 38,
              "velocity": 108,
              "position": 21.0,
              "duration": 0.383333
            },
            {
              "pitch": 51,
              "velocity": 110,
              "position": 21.0,
              "duration": 0.175
            },
            {
              "pitch": 51,
              "velocity": 68,
              "position": 21.333333,
              "duration": 0.083333
            },
            {
              "pitch": 38,
              "velocity": 82,
              "position": 21.666667,
              "duration": 0.066667
            },
            {
              "pitch": 51,
              "velocity": 82,
              "position": 21.666667,
              "duration": 0.075
            },
            {
              "pitch": 36,
              "velocity": 103,
              "position": 22.0,
              "duration": 0.083333
            },
            {
              "pitch": 51,
              "velocity": 103,
              "position": 22.0,
              "duration": 0.083333
            },
            {
              "pitch": 51,
              "velocity": 69,
              "position": 22.333333,
              "duration": 0.091667
            },
            {
              "pitch": 36,
              "velocity": 76,
              "position": 22.566667,
              "duration": 0.075
            },
            {
              "pitch": 38,
              "velocity": 90,
              "position": 22.666667,
              "duration": 0.075
            },
            {
              "pitch": 51,
              "velocity": 90,
              "position": 22.666667,
              "duration": 0.116667
            },
            {
              "pitch": 45,
              "velocity": 123,
              "position": 23.0,
              "duration": 0.2
            },
            {
              "pitch": 51,
              "velocity": 112,
              "position": 23.0,
              "duration": 0.158333
            },
            {
              "pitch": 43,
              "velocity": 105,
              "position": 23.333333,
              "duration": 0.083333
            },
            {
              "pitch": 51,
              "velocity": 102,
              "position": 23.333333,
              "duration": 0.266667
            },
            {
              "pitch": 36,
              "velocity": 88,
              "position": 23.666667,
              "duration": 0.266667
            },
            {
              "pitch": 41,
              "velocity": 127,
              "position": 23.666667,
              "duration": 0.158333
            },
            {
              "pitch": 51,
              "velocity": 109,
              "position": 23.666667,
              "duration": 0.091667
            }
          ]
        },
        "10": {
          "ctab": {
            "srcChannel": 10,
            "name": "Bass",
            "accType": "BASS",
            "editable": true,
            "mutedNotes": [],
            "mutedChords": [],
            "sourceChordNote": 0,
            "sourceChordType": "Maj7",
            "ctb2Main": {
              "ntr": "ROOT_TRANSPOSITION",
              "ntt": "BYPASS",
              "bassOn": true,
              "noteLowLimit": 20,
              "noteHighLimit": 60,
              "chordRootUpperLimit": 127,
              "rtr": "NOTE_GENERATOR"
            }
          },
          "notes": [
            {
              "pitch": 36,
              "velocity": 95,
              "position": 8.0,
              "duration": 0.875
            },
            {
              "pitch": 36,
              "velocity": 91,
              "position": 9.0,
              "duration": 0.225
            },
            {
              "pitch": 36,
              "velocity": 86,
              "position": 9.333333,
              "duration": 0.283333
            },
            {
              "pitch": 35,
              "velocity": 91,
              "position": 9.666667,
              "duration": 0.316667
            },
            {
              "pitch": 36,
              "velocity": 95,
              "position": 10.0,
              "duration": 0.875
            },
            {
              "pitch": 36,
              "velocity": 91,
              "position": 11.0,
              "duration": 0.225
            },
            {
              "pitch": 36,
              "velocity": 86,
              "position": 11.333333,
              "duration": 0.283333
            },
            {
              "pitch": 35,
              "velocity": 91,
              "position": 11.666667,
              "duration": 0.316667
            },
            {
              "pitch": 36,
              "velocity": 95,
              "position": 12.0,
              "duration": 0.875
            },
            {
              "pitch": 36,
              "velocity": 91,
              "position": 13.0,
              "duration": 0.225
            },
            {
              "pitch": 36,
              "velocity": 86,
              "position": 13.333333,
              "duration": 0.283333
            },
            {
              "pitch": 35,
              "velocity": 91,
              "position": 13.666667,
              "duration": 0.316667
            },
            {
              "pitch": 36,
              "velocity": 95,
              "position": 14.0,
              "duration": 0.875
            },
            {
              "pitch": 36,
              "velocity": 91,
              "position": 15.0,
              "duration": 0.225
            },
            {
              "pitch": 36,
              "velocity": 86,
              "position": 15.333333,
              "duration": 0.283333
            },
            {
              "pitch": 35,
              "velocity": 91,
              "position": 15.666667,
              "duration": 0.316667
            },
            {
              "pitch": 36,
              "velocity": 86,
              "position": 16.008333,
              "duration": 0.966667
            },
            {
              "pitch": 40,
              "velocity": 89,
              "position": 17.041667,
              "duration": 0.491667
            },
            {
              "pitch": 40,
              "velocity": 90,
              "position": 17.691667,
              "duration": 0.316667
            },
            {
              "pitch": 43,
              "velocity": 87,
              "position": 18.016667,
              "duration": 1.016667
            },
            {
              "pitch": 40,
              "velocity": 97,
              "position": 19.016667,
              "duration": 0.691667
            },
            {
              "pitch": 43,
              "velocity": 81,
              "position": 19.7,
              "duration": 0.341667
            },
            {
              "pitch": 36,
              "velocity": 88,
              "position": 20.025,
              "duration": 1.016667
            },
            {
              "pitch": 40,
              "velocity": 102,
              "position": 21.033333,
              "duration": 0.541667
            },
            {
              "pitch": 40,
              "velocity": 90,
              "position": 21.7,
              "duration": 0.333333
            },
            {
              "pitch": 43,
              "velocity": 91,
              "position": 22.033333,
              "duration": 1.016667
            },
            {
              "pitch": 36,
              "velocity": 91,
              "position": 23.008333,
              "duration": 0.541667
            },
            {
              "pitch": 36,
              "velocity": 94,
              "position": 23.666667,
              "duration": 0.333333
            }
          ]
        },
        "11": {
          "ctab": {
            "srcChannel": 11,
            "name": "Piano",
            "accType": "CHORD1",
            "editable": true,
            "mutedNotes": [],
            "mutedChords": [],
            "sourceChordNote": 0,
            "sourceChordType": "Maj7",
            "ctb2Main": {
              "ntr": "ROOT_FIXED",
              "ntt": "CHORD",
              "bassOn": false,
              "noteLowLimit": 48,
              "noteHighLimit": 84,
              "chordRootUpperLimit": 127,
              "rtr": "NOTE_GENERATOR"
            }
          },
          "notes": [
            {
              "pitch": 74,
              "velocity": 63,
              "position": 8.025,
              "duration": 0.083333
            },
            {
              "pitch": 76,
              "velocity": 67,
              "position": 8.025,
              "duration": 0.1
            },
            {
              "pitch": 79,
              "velocity": 67,
              "position": 8.025,
              "duration": 0.108333
            },
            {
              "pitch": 83,
              "velocity": 60,
              "position": 8.025,
              "duration": 0.083333
            },
            {
              "pitch": 76,
              "velocity": 56,
              "position": 8.35,
              "duration": 0.108333
            },
            {
              "pitch": 74,
              "velocity": 47,
              "position": 8.358333,
              "duration": 0.091667
            },
            {
              "pitch": 79,
              "velocity": 61,
              "position": 8.358333,
              "duration": 0.108333
            },
            {
              "pitch": 83,
              "velocity": 42,
              "position": 8.358333,
              "duration": 0.083333
            },
            {
              "pitch": 74,
              "velocity": 59,
              "position": 8.675,
              "duration": 0.091667
            },
            {
              "pitch": 76,
              "velocity": 70,
              "position": 8.675,
              "duration": 0.125
            },
            {
              "pitch": 79,
              "velocity": 69,
              "position": 8.675,
              "duration": 0.108333
            },
            {
              "pitch": 83,
              "velocity": 56,
              "position": 8.675,
              "duration": 0.108333
            },
            {
              "pitch": 74,
              "velocity": 81,
              "position": 9.016667,
              "duration": 0.075
            },
            {
              "pitch": 76,
              "velocity": 75,
              "position": 9.016667,
              "duration": 0.108333
            },
            {
              "pitch": 79,
              "velocity": 75,
              "position": 9.016667,
              "duration": 0.125
            },
            {
              "pitch": 83,
              "velocity": 66,
              "position": 9.016667,
              "duration": 0.108333
            },
            {
              "pitch": 76,
              "velocity": 67,
              "position": 9.35,
              "duration": 0.091667
            },
            {
              "pitch": 79,
              "velocity": 63,
              "position": 9.35,
              "duration": 0.1
            },
            {
              "pitch": 83,
              "velocity": 43,
              "position": 9.35,
              "duration": 0.091667
            },
            {
              "pitch": 74,
              "velocity": 46,
              "position": 9.358333,
              "duration": 0.041667
            },
            {
              "pitch": 79,
              "velocity": 61,
              "position": 9.666667,
              "duration": 0.116667
            },
            {
              "pitch": 74,
              "velocity": 53,
              "position": 9.675,
              "duration": 0.083333
            },
            {
              "pitch": 76,
              "velocity": 66,
              "position": 9.675,
              "duration": 0.116667
            },
            {
              "pitch": 83,
              "velocity": 44,
              "position": 9.675,
              "duration": 0.091667
            },
            {
              "pitch": 74,
              "velocity": 63,
              "position": 10.025,
              "duration": 0.083333
            },
            {
              "pitch": 76,
              "velocity": 67,
              "position": 10.025,
              "duration": 0.1
            },
            {
              "pitch": 79,
              "velocity": 67,
              "position": 10.025,
              "duration": 0.108333
            },
            {
              "pitch": 83,
              "velocity": 60,
              "position": 10.025,
              "duration": 0.083333
            },
            {
              "pitch": 76,
              "velocity": 56,
              "position": 10.35,
              "duration": 0.108333
            },
            {
              "pitch": 74,
              "velocity": 47,
              "position": 10.358333,
              "duration": 0.091667
            },
            {
              "pitch": 79,
              "velocity": 61,
              "position": 10.358333,
              "duration": 0.108333
            },
            {
              "pitch": 83,
              "velocity": 42,
              "position": 10.358333,
              "duration": 0.083333
            },
            {
              "pitch": 74,
              "velocity": 59,
              "position": 10.675,
              "duration": 0.091667
            },
            {
              "pitch": 76,
              "velocity": 70,
              "position": 10.675,
              "duration": 0.125
            },
            {
              "pitch": 79,
              "velocity": 69,
              "position": 10.675,
              "duration": 0.108333
            },
            {
              "pitch": 83,
              "velocity": 56,
              "position": 10.675,
              "duration": 0.108333
            },
            {
              "pitch": 74,
              "velocity": 81,
              "position": 11.016667,
              "duration": 0.075
            },
            {
              "pitch": 76,
              "velocity": 75,
              "position": 11.016667,
              "duration": 0.108333
            },
            {
              "pitch": 79,
              "velocity": 75,
              "position": 11.016667,
              "duration": 0.125
            },
            {
              "pitch": 83,
              "velocity": 66,
              "position": 11.016667,
              "duration": 0.108333
            },
            {
              "pitch": 76,
              "velocity": 67,
              "position": 11.35,
              "duration": 0.091667
            },
            {
              "pitch": 79,
              "velocity": 63,
              "position": 11.35,
              "duration": 0.1
            },
            {
              "pitch": 83,
              "velocity": 43,
              "position": 11.35,
              "duration": 0.091667
            },
            {
              "pitch": 74,
              "velocity": 46,
              "position": 11.358333,
              "duration": 0.041667
            },
            {
              "pitch": 79,
              "velocity": 61,
              "position": 11.666667,
              "duration": 0.116667
            },
            {
              "pitch": 74,
              "velocity": 53,
              "position": 11.675,
              "duration": 0.083333
            },
            {
              "pitch": 76,
              "velocity": 66,
              "position": 11.675,
              "duration": 0.116667
            },
            {
              "pitch": 83,
              "velocity": 44,
              "position": 11.675,
              "duration": 0.091667
            },
            {
              "pitch": 74,
              "velocity": 63,
              "position": 12.025,
              "duration": 0.083333
            },
            {
              "pitch": 76,
              "velocity": 67,
              "position": 12.025,
              "duration": 0.1
            },
            {
              "pitch": 79,
              "velocity": 67,
              "position": 12.025,
              "duration": 0.108333
            },
            {
              "pitch": 83,
              "velocity": 60,
              "position": 12.025,
              "duration": 0.083333
            },
            {
              "pitch": 76,
              "velocity": 56,
              "position": 12.35,
              "duration": 0.108333
            },
            {
              "pitch": 74,
              "velocity": 47,
              "position": 12.358333,
              "duration": 0.091667
            },
            {
              "pitch": 79,
              "velocity": 61,
              "position": 12.358333,
              "duration": 0.108333
            },
            {
              "pitch": 83,
              "velocity": 42,
              "position": 12.358333,
              "duration": 0.083333
            },
            {
              "pitch": 74,
              "velocity": 59,
              "position": 12.675,
              "duration": 0.091667
            },
            {
              "pitch": 76,
              "velocity": 70,
              "position": 12.675,
              "duration": 0.125
            },
            {
              "pitch": 79,
              "velocity": 69,
              "position": 12.675,
              "duration": 0.108333
            },
            {
              "pitch": 83,
              "velocity": 56,
              "position": 12.675,
              "duration": 0.108333
            },
            {
              "pitch": 74,
              "velocity": 81,
              "position": 13.016667,
              "duration": 0.075
            },
            {
              "pitch": 76,
              "velocity": 75,
              "position": 13.016667,
              "duration": 0.108333
            },
            {
              "pitch": 79,
              "velocity": 75,
              "position": 13.016667,
              "duration": 0.125
            },
            {
              "pitch": 83,
              "velocity": 66,
              "position": 13.016667,
              "duration": 0.108333
            },
            {
              "pitch": 76,
              "velocity": 67,
              "position": 13.35,
              "duration": 0.091667
            },
            {
              "pitch": 79,
              "velocity": 63,
              "position": 13.35,
              "duration": 0.1
            },
            {
              "pitch": 83,
              "velocity": 43,
              "position": 13.35,
              "duration": 0.091667
            },
            {
              "pitch": 74,
              "velocity": 46,
              "position": 13.358333,
              "duration": 0.041667
            },
            {
              "pitch": 79,
              "velocity": 61,
              "position": 13.666667,
              "duration": 0.116667
            },
            {
              "pitch": 74,
              "velocity": 53,
              "position": 13.675,
              "duration": 0.083333
            },
            {
              "pitch": 76,
              "velocity": 66,
              "position": 13.675,
              "duration": 0.116667
            },
            {
              "pitch": 83,
              "velocity": 44,
              "position": 13.675,
              "duration": 0.091667
            },
            {
              "pitch": 74,
              "velocity": 63,
              "position": 14.025,
              "duration": 0.083333
            },
            {
              "pitch": 76,
              "velocity": 67,
              "position": 14.025,
              "duration": 0.1
            },
            {
              "pitch": 79,
              "velocity": 67,
              "position": 14.025,
              "duration": 0.108333
            },
            {
              "pitch": 83,
              "velocity": 60,
              "position": 14.025,
              "duration": 0.083333
            },
            {
              "pitch": 76,
              "velocity": 56,
              "position": 14.35,
              "duration": 0.108333
            },
            {
              "pitch": 74,
              "velocity": 47,
              "position": 14.358333,
              "duration": 0.091667
            },
            {
              "pitch": 79,
              "velocity": 61,
              "position": 14.358333,
              "duration": 0.108333
            },
            {
              "pitch": 83,
              "velocity": 42,
              "position": 14.358333,
              "duration": 0.083333
            },
            {
              "pitch": 74,
              "velocity": 59,
              "position": 14.675,
              "duration": 0.091667
            },
            {
              "pitch": 76,
              "velocity": 70,
              "position": 14.675,
              "duration": 0.125
            },
            {
              "pitch": 79,
              "velocity": 69,
              "position": 14.675,
              "duration": 0.108333
            },
            {
              "pitch": 83,
              "velocity": 56,
              "position": 14.675,
              "duration": 0.108333
            },
            {
              "pitch": 74,
              "velocity": 81,
              "position": 15.016667,
              "duration": 0.075
            },
            {
              "pitch": 76,
              "velocity": 75,
              "position": 15.016667,
              "duration": 0.108333
            },
            {
              "pitch": 79,
              "velocity": 75,
              "position": 15.016667,
              "duration": 0.125
            },
            {
              "pitch": 83,
              "velocity": 66,
              "position": 15.016667,
              "duration": 0.108333
            },
            {
              "pitch": 76,
              "velocity": 67,
              "position": 15.35,
              "duration": 0.091667
            },
            {
              "pitch": 79,
              "velocity": 63,
              "position": 15.35,
              "duration": 0.1
            },
            {
              "pitch": 83,
              "velocity": 43,
              "position": 15.35,
              "duration": 0.091667
            },
            {
              "pitch": 74,
              "velocity": 46,
              "position": 15.358333,
              "duration": 0.041667
            },
            {
              "pitch": 79,
              "velocity": 61,
              "position": 15.666667,
              "duration": 0.116667
            },
            {
              "pitch": 74,
              "velocity": 53,
              "position": 15.675,
              "duration": 0.083333
            },
            {
              "pitch": 76,
              "velocity": 66,
              "position": 15.675,
              "duration": 0.116667
            },
            {
              "pitch": 83,
              "velocity": 44,
              "position": 15.675,
              "duration": 0.091667
            },
            {
              "pitch": 74,
              "velocity": 63,
              "position": 16.025,
              "duration": 0.083333
            },
            {
              "pitch": 76,
              "velocity": 67,
              "position": 16.025,
              "duration": 0.1
            },
            {
              "pitch": 79,
              "velocity": 67,
              "position": 16.025,
              "duration": 0.108333
            },
            {
              "pitch": 83,
              "velocity": 60,
              "position": 16.025,
              "duration": 0.083333
            },
            {
              "pitch": 76,
              "velocity": 56,
              "position": 16.35,
              "duration": 0.108333
            },
            {
              "pitch": 74,
              "velocity": 47,
              "position": 16.358333,
              "duration": 0.091667
            },
            {
              "pitch": 79,
              "velocity": 61,
              "position": 16.358333,
              "duration": 0.108333
            },
            {
              "pitch": 83,
              "velocity": 42,
              "position": 16.358333,
              "duration": 0.083333
            },
            {
              "pitch": 74,
              "velocity": 59,
              "position": 16.675,
              "duration": 0.091667
            },
            {
              "pitch": 76,
              "velocity": 70,
              "position": 16.675,
              "duration": 0.125
            },
            {
              "pitch": 79,
              "velocity": 69,
              "position": 16.675,
              "duration": 0.108333
            },
            {
              "pitch": 83,
              "velocity": 56,
              "position": 16.675,
              "duration": 0.108333
            },
            {
              "pitch": 74,
              "velocity": 81,
              "position": 17.016667,
              "duration": 0.075
            },
            {
              "pitch": 76,
              "velocity": 75,
              "position": 17.016667,
              "duration": 0.108333
            },
            {
              "pitch": 79,
              "velocity": 75,
              "position": 17.016667,
              "duration": 0.125
            },
            {
              "pitch": 83,
              "velocity": 66,
              "position": 17.016667,
              "duration": 0.108333
            },
            {
              "pitch": 76,
              "velocity": 67,
              "position": 17.35,
              "duration": 0.091667
            },
            {
              "pitch": 79,
              "velocity": 63,
              "position": 17.35,
              "duration": 0.1
            },
            {
              "pitch": 83,
              "velocity": 43,
              "position": 17.35,
              "duration": 0.091667
            },
            {
              "pitch": 74,
              "velocity": 46,
              "position": 17.358333,
              "duration": 0.041667
            },
            {
              "pitch": 79,
              "velocity": 61,
              "position": 17.666667,
              "duration": 0.116667
            },
            {
              "pitch": 74,
              "velocity": 53,
              "position": 17.675,
              "duration": 0.083333
            },
            {
              "pitch": 76,
              "velocity": 66,
              "position": 17.675,
              "duration": 0.116667
            },
            {
              "pitch": 83,
              "velocity": 44,
              "position": 17.675,
              "duration": 0.091667
            },
            {
              "pitch": 76,
              "velocity": 73,
              "position": 17.991667,
              "duration": 0.15
            },
            {
              "pitch": 79,
              "velocity": 76,
              "position": 17.991667,
              "duration": 0.133333
            },
            {
              "pitch": 83,
              "velocity": 70,
              "position": 17.991667,
              "duration": 0.116667
            },
            {
              "pitch": 74,
              "velocity": 75,
              "position": 18.008333,
              "duration": 0.083333
            },
            {
              "pitch": 74,
              "velocity": 52,
              "position": 18.35,
              "duration": 0.083333
            },
            {
              "pitch": 76,
              "velocity": 64,
              "position": 18.35,
              "duration": 0.1
            },
            {
              "pitch": 79,
              "velocity": 57,
              "position": 18.35,
              "duration": 0.108333
            },
            {
              "pitch": 83,
              "velocity": 40,
              "position": 18.35,
              "duration": 0.083333
            },
            {
              "pitch": 74,
              "velocity": 59,
              "position": 18.666667,
              "duration": 0.1
            },
            {
              "pitch": 76,
              "velocity": 65,
              "position": 18.675,
              "duration": 0.125
            },
            {
              "pitch": 79,
              "velocity": 62,
              "position": 18.675,
              "duration": 0.116667
            },
            {
              "pitch": 83,
              "velocity": 40,
              "position": 18.675,
              "duration": 0.1
            },
            {
              "pitch": 74,
              "velocity": 89,
              "position": 19.008333,
              "duration": 0.091667
            },
            {
              "pitch": 76,
              "velocity": 80,
              "position": 19.008333,
              "duration": 0.133333
            },
            {
              "pitch": 79,
              "velocity": 77,
              "position": 19.008333,
              "duration": 0.125
            },
            {
              "pitch": 83,
              "velocity": 74,
              "position": 19.008333,
              "duration": 0.108333
            },
            {
              "pitch": 74,
              "velocity": 51,
              "position": 19.341667,
              "duration": 0.083333
            },
            {
              "pitch": 76,
              "velocity": 68,
              "position": 19.341667,
              "duration": 0.1
            },
            {
              "pitch": 79,
              "velocity": 62,
              "position": 19.341667,
              "duration": 0.108333
            },
            {
              "pitch": 83,
              "velocity": 45,
              "position": 19.341667,
              "duration": 0.108333
            },
            {
              "pitch": 83,
              "velocity": 36,
              "position": 19.675,
              "duration": 0.1
            },
            {
              "pitch": 74,
              "velocity": 53,
              "position": 19.683333,
              "duration": 0.075
            },
            {
              "pitch": 76,
              "velocity": 63,
              "position": 19.683333,
              "duration": 0.1
            },
            {
              "pitch": 79,
              "velocity": 60,
              "position": 19.683333,
              "duration": 0.1
            },
            {
              "pitch": 74,
              "velocity": 78,
              "position": 19.991667,
              "duration": 0.1
            },
            {
              "pitch": 76,
              "velocity": 71,
              "position": 19.991667,
              "duration": 0.133333
            },
            {
              "pitch": 79,
              "velocity": 75,
              "position": 19.991667,
              "duration": 0.133333
            },
            {
              "pitch": 83,
              "velocity": 71,
              "position": 19.991667,
              "duration": 0.108333
            },
            {
              "pitch": 76,
              "velocity": 57,
              "position": 20.333333,
              "duration": 0.116667
            },
            {
              "pitch": 74,
              "velocity": 43,
              "position": 20.341667,
              "duration": 0.083333
            },
            {
              "pitch": 79,
              "velocity": 50,
              "position": 20.341667,
              "duration": 0.116667
            },
            {
              "pitch": 83,
              "velocity": 36,
              "position": 20.341667,
              "duration": 0.108333
            },
            {
              "pitch": 74,
              "velocity": 56,
              "position": 20.675,
              "duration": 0.1
            },
            {
              "pitch": 83,
              "velocity": 41,
              "position": 20.675,
              "duration": 0.108333
            },
            {
              "pitch": 76,
              "velocity": 65,
              "position": 20.683333,
              "duration": 0.1
            },
            {
              "pitch": 79,
              "velocity": 59,
              "position": 20.683333,
              "duration": 0.108333
            },
            {
              "pitch": 74,
              "velocity": 82,
              "position": 21.016667,
              "duration": 0.116667
            },
            {
              "pitch": 76,
              "velocity": 78,
              "position": 21.016667,
              "duration": 0.15
            },
            {
              "pitch": 79,
              "velocity": 77,
              "position": 21.016667,
              "duration": 0.141667
            },
            {
              "pitch": 83,
              "velocity": 69,
              "position": 21.016667,
              "duration": 0.141667
            },
            {
              "pitch": 83,
              "velocity": 37,
              "position": 21.341667,
              "duration": 0.108333
            },
            {
              "pitch": 74,
              "velocity": 44,
              "position": 21.35,
              "duration": 0.05
            },
            {
              "pitch": 76,
              "velocity": 59,
              "position": 21.35,
              "duration": 0.1
            },
            {
              "pitch": 79,
              "velocity": 53,
              "position": 21.35,
              "duration": 0.1
            },
            {
              "pitch": 74,
              "velocity": 55,
              "position": 21.683333,
              "duration": 0.1
            },
            {
              "pitch": 76,
              "velocity": 62,
              "position": 21.683333,
              "duration": 0.116667
            },
            {
              "pitch": 79,
              "velocity": 57,
              "position": 21.683333,
              "duration": 0.108333
            },
            {
              "pitch": 83,
              "velocity": 38,
              "position": 21.683333,
              "duration": 0.091667
            },
            {
              "pitch": 74,
              "velocity": 82,
              "position": 22.016667,
              "duration": 0.1
            },
            {
              "pitch": 76,
              "velocity": 77,
              "position": 22.016667,
              "duration": 0.116667
            },
            {
              "pitch": 79,
              "velocity": 77,
              "position": 22.016667,
              "duration": 0.125
            },
            {
              "pitch": 83,
              "velocity": 76,
              "position": 22.016667,
              "duration": 0.108333
            },
            {
              "pitch": 74,
              "velocity": 42,
              "position": 22.35,
              "duration": 0.091667
            },
            {
              "pitch": 76,
              "velocity": 52,
              "position": 22.35,
              "duration": 0.116667
            },
            {
              "pitch": 79,
              "velocity": 52,
              "position": 22.35,
              "duration": 0.116667
            },
            {
              "pitch": 83,
              "velocity": 30,
              "position": 22.358333,
              "duration": 0.108333
            },
            {
              "pitch": 74,
              "velocity": 55,
              "position": 22.683333,
              "duration": 0.091667
            },
            {
              "pitch": 76,
              "velocity": 64,
              "position": 22.683333,
              "duration": 0.108333
            },
            {
              "pitch": 79,
              "velocity": 60,
              "position": 22.683333,
              "duration": 0.108333
            },
            {
              "pitch": 83,
              "velocity": 39,
              "position": 22.683333,
              "duration": 0.1
            },
            {
              "pitch": 74,
              "velocity": 73,
              "position": 23.008333,
              "duration": 0.1
            },
            {
              "pitch": 76,
              "velocity": 73,
              "position": 23.008333,
              "duration": 0.133333
            },
            {
              "pitch": 79,
              "velocity": 71,
              "position": 23.008333,
              "duration": 0.133333
            },
            {
              "pitch": 83,
              "velocity": 66,
              "position": 23.008333,
              "duration": 0.116667
            },
            {
              "pitch": 74,
              "velocity": 54,
              "position": 23.35,
              "duration": 0.075
            },
            {
              "pitch": 76,
              "velocity": 64,
              "position": 23.35,
              "duration": 0.1
            },
            {
              "pitch": 79,
              "velocity": 59,
              "position": 23.35,
              "duration": 0.1
            },
            {
              "pitch": 83,
              "velocity": 38,
              "position": 23.358333,
              "duration": 0.066667
            },
            {
              "pitch": 74,
              "velocity": 63,
              "position": 23.675,
              "duration": 0.325
            },
            {
              "pitch": 76,
              "velocity": 64,
              "position": 23.683333,
              "duration": 0.316667
            },
            {
              "pitch": 79,
              "velocity": 61,
              "position": 23.683333,
              "duration": 0.116667
            },
            {
              "pitch": 83,
              "velocity": 45,
              "position": 23.683333,
              "duration": 0.125
            }
          ]
        },
        "12": {
          "ctab": {
            "srcChannel": 12,
            "name": "Guitar",
            "accType": "CHORD2",
            "editable": true,
            "mutedNotes": [],
            "mutedChords": [],
            "sourceChordNote": 0,
            "sourceChordType": "Maj7",
            "ctb2Main": {
              "ntr": "ROOT_FIXED",
              "ntt": "CHORD",
              "bassOn": false,
              "noteLowLimit": 40,
              "noteHighLimit": 76,
              "chordRootUpperLimit": 127,
              "rtr": "NOTE_GENERATOR"
            }
          },
          "notes": [
            {
              "pitch": 48,
              "velocity": 57,
              "position": 23.95,
              "duration": 1.025
            },
            {
              "pitch": 55,
              "velocity": 68,
              "position": 23.966667,
              "duration": 1.008333
            },
            {
              "pitch": 59,
              "velocity": 68,
              "position": 23.991667,
              "duration": 0.983333
            }
          ]
        },
        "13": {
          "ctab": {
            "srcChannel": 13,
            "name": "Strings",
            "accType": "PAD",
            "editable": true,
            "mutedNotes": [],
            "mutedChords": [],
            "sourceChordNote": 0,
            "sourceChordType": "Maj7",
            "ctb2Main": {
              "ntr": "ROOT_FIXED",
              "ntt": "MELODY",
              "bassOn": false,
              "noteLowLimit": 36,
              "noteHighLimit": 96,
              "chordRootUpperLimit": 127,
              "rtr": "PITCH_SHIFT"
            }
          },
          "notes": []
        }
      }
    },
    "Main_A": {
      "type": "Main_A",
      "sizeInBeats": 16,
      "channels": {
        "9": {
          "ctab": {
            "srcChannel": 9,
            "name": "Drums",
            "accType": "RHYTHM",
            "editable": false,
            "mutedNotes": [],
            "mutedChords": [],
            "sourceChordNote": 0,
            "sourceChordType": "Maj",
            "ctb2Main": {
              "ntr": "ROOT_FIXED",
              "ntt": "BYPASS",
              "bassOn": false,
              "noteLowLimit": 20,
              "noteHighLimit": 127,
              "chordRootUpperLimit": 127,
              "rtr": "RETRIGGER"
            }
          },
          "notes": [
            {
              "pitch": 36,
              "velocity": 103,
              "position": 0.0,
              "duration": 0.4
            },
            {
              "pitch": 57,
              "velocity": 127,
              "position": 0.0,
              "duration": 0.05
            },
            {
              "pitch": 51,
              "velocity": 82,
              "position": 0.333333,
              "duration": 0.066667
            },
            {
              "pitch": 36,
              "velocity": 41,
              "position": 0.666667,
              "duration": 0.358333
            },
            {
              "pitch": 51,
              "velocity": 78,
              "position": 0.666667,
              "duration": 0.066667
            },
            {
              "pitch": 38,
              "velocity": 113,
              "position": 1.0,
              "duration": 0.208333
            },
            {
              "pitch": 51,
              "velocity": 114,
              "position": 1.0,
              "duration": 0.091667
            },
            {
              "pitch": 51,
              "velocity": 76,
              "position": 1.333333,
              "duration": 0.075
            },
            {
              "pitch": 36,
              "velocity": 57,
              "position": 1.666667,
              "duration": 0.075
            },
            {
              "pitch": 51,
              "velocity": 83,
              "position": 1.666667,
              "duration": 0.083333
            },
            {
              "pitch": 36,
              "velocity": 92,
              "position": 2.0,
              "duration": 0.191667
            },
            {
              "pitch": 51,
              "velocity": 110,
              "position": 2.0,
              "duration": 0.108333
            },
            {
              "pitch": 51,
              "velocity": 80,
              "position": 2.333333,
              "duration": 0.075
            },
            {
              "pitch": 36,
              "velocity": 79,
              "position": 2.666667,
              "duration": 0.4
            },
            {
              "pitch": 51,
              "velocity": 86,
              "position": 2.666667,
              "duration": 0.075
            },
            {
              "pitch": 38,
              "velocity": 125,
              "position": 3.0,
              "duration": 0.183333
            },
            {
              "pitch": 51,
              "velocity": 114,
              "position": 3.0,
              "duration": 0.066667
            },
            {
              "pitch": 36,
              "velocity": 65,
              "position": 3.333333,
              "duration": 0.058333
            },
            {
              "pitch": 51,
              "velocity": 96,
              "position": 3.333333,
              "duration": 0.066667
            },
            {
              "pitch": 51,
              "velocity": 83,
              "position": 3.566667,
              "duration": 0.05
            },
            {
              "pitch": 36,
              "velocity": 64,
              "position": 3.666667,
              "duration": 0.066667
            },
            {
              "pitch": 38,
              "velocity": 61,
              "position": 3.666667,
              "duration": 0.075
            },
            {
              "pitch": 51,
              "velocity": 91,
              "position": 3.666667,
              "duration": 0.075
            },
            {
              "pitch": 36,
              "velocity": 95,
              "position": 4.0,
              "duration": 0.416667
            },
            {
              "pitch": 51,
              "velocity": 86,
              "position": 4.0,
              "duration": 0.041667
            },
            {
              "pitch": 51,
              "velocity": 80,
              "position": 4.333333,
              "duration": 0.075
            },
            {
              "pitch": 36,
              "velocity": 57,
              "position": 4.666667,
              "duration": 0.391667
            },
            {
              "pitch": 51,
              "velocity": 81,
              "position": 4.666667,
              "duration": 0.066667
            },
            {
              "pitch": 38,
              "velocity": 125,
              "position": 5.0,
              "duration": 0.225
            },
            {
              "pitch": 51,
              "velocity": 114,
              "position": 5.0,
              "duration": 0.091667
            },
            {
              "pitch": 38,
              "velocity": 34,
              "position": 5.333333,
              "duration": 0.091667
            },
            {
              "pitch": 51,
              "velocity": 82,
              "position": 5.333333,
              "duration": 0.05
            },
            {
              "pitch": 51,
              "velocity": 85,
              "position": 5.566667,
              "duration": 0.041667
            },
            {
              "pitch": 36,
              "velocity": 49,
              "position": 5.666667,
              "duration": 0.058333
            },
            {
              "pitch": 51,
              "velocity": 92,
              "position": 5.666667,
              "duration": 0.066667
            },
            {
              "pitch": 36,
              "velocity": 99,
              "position": 6.0,
              "duration": 0.408333
            },
            {
              "pitch": 51,
              "velocity": 68,
              "position": 6.0,
              "duration": 0.025
            },
            {
              "pitch": 51,
              "velocity": 69,
              "position": 6.333333,
              "duration": 0.05
            },
            {
              "pitch": 36,
              "velocity": 30,
              "position": 6.666667,
              "duration": 0.375
            },
            {
              "pitch": 51,
              "velocity": 76,
              "position": 6.666667,
              "duration": 0.066667
            },
            {
              "pitch": 38,
              "velocity": 118,
              "position": 7.0,
              "duration": 0.241667
            },
            {
              "pitch": 51,
              "velocity": 114,
              "position": 7.0,
              "duration": 0.066667
            },
            {
              "pitch": 51,
              "velocity": 80,
              "position": 7.333333,
              "duration": 0.066667
            },
            {
              "pitch": 36,
              "velocity": 67,
              "position": 7.666667,
              "duration": 0.091667
            },
            {
              "pitch": 51,
              "velocity": 93,
              "position": 7.666667,
              "duration": 0.066667
            },
            {
              "pitch": 36,
              "velocity": 95,
              "position": 8.0,
              "duration": 0.358333
            },
            {
              "pitch": 51,
              "velocity": 82,
              "position": 8.0,
              "duration": 0.05
            },
            {
              "pitch": 51,
              "velocity": 90,
              "position": 8.333333,
              "duration": 0.075
            },
            {
              "pitch": 51,
              "velocity": 72,
              "position": 8.566667,
              "duration": 0.025
            },
            {
              "pitch": 36,
              "velocity": 88,
              "position": 8.666667,
              "duration": 0.341667
            },
            {
              "pitch": 51,
              "velocity": 86,
              "position": 8.666667,
              "duration": 0.083333
            },
            {
              "pitch": 38,
              "velocity": 105,
              "position": 9.0,
              "duration": 0.241667
            },
            {
              "pitch": 51,
              "velocity": 114,
              "position": 9.0,
              "duration": 0.075
            },
            {
              "pitch": 51,
              "velocity": 68,
              "position": 9.333333,
              "duration": 0.075
            },
            {
              "pitch": 36,
              "velocity": 53,
              "position": 9.666667,
              "duration": 0.108333
            },
            {
              "pitch": 51,
              "velocity": 86,
              "position": 9.666667,
              "duration": 0.066667
            },
            {
              "pitch": 36,
              "velocity": 96,
              "position": 10.0,
              "duration": 0.425
            },
            {
              "pitch": 51,
              "velocity": 103,
              "position": 10.0,
              "duration": 0.091667
            },
            {
              "pitch": 51,
              "velocity": 86,
              "position": 10.333333,
              "duration": 0.066667
            },
            {
              "pitch": 51,
              "velocity": 76,
              "position": 10.566667,
              "duration": 0.041667
            },
            {
              "pitch": 36,
              "velocity": 68,
              "position": 10.666667,
              "duration": 0.583333
            },
            {
              "pitch": 51,
              "velocity": 86,
              "position": 10.666667,
              "duration": 0.083333
            },
            {
              "pitch": 38,
              "velocity": 123,
              "position": 11.0,
              "duration": 0.166667
            },
            {
              "pitch": 53,
              "velocity": 125,
              "position": 11.0,
              "duration": 0.066667
            },
            {
              "pitch": 38,
              "velocity": 31,
              "position": 11.333333,
              "duration": 0.058333
            },
            {
              "pitch": 51,
              "velocity": 82,
              "position": 11.333333,
              "duration": 0.058333
            },
            {
              "pitch": 51,
              "velocity": 76,
              "position": 11.566667,
              "duration": 0.033333
            },
            {
              "pitch": 36,
              "velocity": 47,
              "position": 11.666667,
              "duration": 0.075
            },
            {
              "pitch": 38,
              "velocity": 30,
              "position": 11.666667,
              "duration": 0.033333
            },
            {
              "pitch": 51,
              "velocity": 82,
              "position": 11.666667,
              "duration": 0.083333
            },
            {
              "pitch": 36,
              "velocity": 103,
              "position": 12.0,
              "duration": 0.833333
            },
            {
              "pitch": 43,
              "velocity": 94,
              "position": 12.0,
              "duration": 0.066667
            },
            {
              "pitch": 51,
              "velocity": 101,
              "position": 12.0,
              "duration": 0.141667
            },
            {
              "pitch": 51,
              "velocity": 72,
              "position": 12.333333,
              "duration": 0.1
            },
            {
              "pitch": 51,
              "velocity": 92,
              "position": 12.666667,
              "duration": 0.116667
            },
            {
              "pitch": 38,
              "velocity": 22,
              "position": 12.808333,
              "duration": 0.108333
            },
            {
              "pitch": 38,
              "velocity": 28,
              "position": 12.941667,
              "duration": 0.033333
            },
            {
              "pitch": 38,
              "velocity": 127,
              "position": 13.0,
              "duration": 0.25
            },
            {
              "pitch": 51,
              "velocity": 105,
              "position": 13.0,
              "duration": 0.125
            },
            {
              "pitch": 36,
              "velocity": 68,
              "position": 13.333333,
              "duration": 0.275
            },
            {
              "pitch": 51,
              "velocity": 82,
              "position": 13.333333,
              "duration": 0.166667
            },
            {
              "pitch": 38,
              "velocity": 91,
              "position": 13.666667,
              "duration": 0.066667
            },
            {
              "pitch": 51,
              "velocity": 96,
              "position": 13.666667,
              "duration": 0.083333
            },
            {
              "pitch": 36,
              "velocity": 105,
              "position": 14.0,
              "duration": 0.425
            },
            {
              "pitch": 51,
              "velocity": 110,
              "position": 14.0,
              "duration": 0.091667
            },
            {
              "pitch": 53,
              "velocity": 109,
              "position": 14.333333,
              "duration": 0.083333
            },
            {
              "pitch": 36,
              "velocity": 99,
              "position": 14.666667,
              "duration": 0.066667
            },
            {
              "pitch": 51,
              "velocity": 106,
              "position": 14.666667,
              "duration": 0.083333
            },
            {
              "pitch": 49,
              "velocity": 107,
              "position": 14.991667,
              "duration": 0.225
            },
            {
              "pitch": 38,
              "velocity": 108,
              "position": 15.0,
              "duration": 0.075
            },
            {
              "pitch": 38,
              "velocity": 28,
              "position": 15.275,
              "duration": 0.108333
            },
            {
              "pitch": 38,
              "velocity": 68,
              "position": 15.558333,
              "duration": 0.041667
            },
            {
              "pitch": 38,
              "velocity": 105,
              "position": 15.666667,
              "duration": 0.1
            }
          ]
        },
        "10": {
          "ctab": {
            "srcChannel": 10,
            "name": "Bass",
            "accType": "BASS",
            "editable": true,
            "mutedNotes": [],
            "mutedChords": [],
            "sourceChordNote": 0,
            "sourceChordType": "Maj7",
            "ctb2Main": {
              "ntr": "ROOT_TRANSPOSITION",
              "ntt": "BYPASS",
              "bassOn": true,
              "noteLowLimit": 20,
              "noteHighLimit": 60,
              "chordRootUpperLimit": 127,
              "rtr": "NOTE_GENERATOR"
            }
          },
          "notes": [
            {
              "pitch": 36,
              "velocity": 101,
              "position": 0.0,
              "duration": 0.875
            },
            {
              "pitch": 36,
              "velocity": 97,
              "position": 1.0,
              "duration": 0.225
            },
            {
              "pitch": 36,
              "velocity": 92,
              "position": 1.333333,
              "duration": 0.283333
            },
            {
              "pitch": 35,
              "velocity": 97,
              "position": 1.666667,
              "duration": 0.316667
            },
            {
              "pitch": 36,
              "velocity": 101,
              "position": 2.0,
              "duration": 0.875
            },
            {
              "pitch": 36,
              "velocity": 97,
              "position": 3.0,
              "duration": 0.225
            },
            {
              "pitch": 36,
              "velocity": 92,
              "position": 3.333333,
              "duration": 0.283333
            },
            {
              "pitch": 35,
              "velocity": 97,
              "position": 3.666667,
              "duration": 0.316667
            },
            {
              "pitch": 36,
              "velocity": 101,
              "position": 4.0,
              "duration": 0.875
            },
            {
              "pitch": 36,
              "velocity": 97,
              "position": 5.0,
              "duration": 0.225
            },
            {
              "pitch": 36,
              "velocity": 92,
              "position": 5.333333,
              "duration": 0.283333
            },
            {
              "pitch": 35,
              "velocity": 97,
              "position": 5.666667,
              "duration": 0.316667
            },
            {
              "pitch": 36,
              "velocity": 101,
              "position": 6.0,
              "duration": 0.875
            },
            {
              "pitch": 36,
              "velocity": 97,
              "position": 7.0,
              "duration": 0.225
            },
            {
              "pitch": 36,
              "velocity": 92,
              "position": 7.333333,
              "duration": 0.283333
            },
            {
              "pitch": 35,
              "velocity": 97,
              "position": 7.666667,
              "duration": 0.316667
            },
            {
              "pitch": 36,
              "velocity": 92,
              "position": 8.008333,
              "duration": 0.966667
            },
            {
              "pitch": 40,
              "velocity": 95,
              "position": 9.041667,
              "duration": 0.491667
            },
            {
              "pitch": 40,
              "velocity": 96,
              "position": 9.691667,
              "duration": 0.316667
            },
            {
              "pitch": 43,
              "velocity": 93,
              "position": 10.016667,
              "duration": 1.016667
            },
            {
              "pitch": 40,
              "velocity": 103,
              "position": 11.016667,
              "duration": 0.691667
            },
            {
              "pitch": 43,
              "velocity": 87,
              "position": 11.7,
              "duration": 0.341667
            },
            {
              "pitch": 36,
              "velocity": 94,
              "position": 12.025,
              "duration": 1.016667
            },
            {
              "pitch": 40,
              "velocity": 108,
              "position": 13.033333,
              "duration": 0.541667
            },
            {
              "pitch": 40,
              "velocity": 96,
              "position": 13.7,
              "duration": 0.333333
            },
            {
              "pitch": 43,
              "velocity": 97,
              "position": 14.033333,
              "duration": 1.016667
            },
            {
              "pitch": 36,
              "velocity": 97,
              "position": 15.008333,
              "duration": 0.541667
            },
            {
              "pitch": 36,
              "velocity": 100,
              "position": 15.666667,
              "duration": 0.333333
            }
          ]
        },
        "11": {
          "ctab": {
            "srcChannel": 11,
            "name": "Piano",
            "accType": "CHORD1",
            "editable": true,
            "mutedNotes": [],
            "mutedChords": [],
            "sourceChordNote": 0,
            "sourceChordType": "Maj7",
            "ctb2Main": {
              "ntr": "ROOT_FIXED",
              "ntt": "CHORD",
              "bassOn": false,
              "noteLowLimit": 48,
              "noteHighLimit": 84,
              "chordRootUpperLimit": 127,
              "rtr": "NOTE_GENERATOR"
            }
          },
          "notes": [
            {
              "pitch": 74,
              "velocity": 73,
              "position": 0.025,
              "duration": 0.083333
            },
            {
              "pitch": 76,
              "velocity": 77,
              "position": 0.025,
              "duration": 0.1
            },
            {
              "pitch": 79,
              "velocity": 77,
              "position": 0.025,
              "duration": 0.108333
            },
            {
              "pitch": 83,
              "velocity": 70,
              "position": 0.025,
              "duration": 0.083333
            },
            {
              "pitch": 76,
              "velocity": 66,
              "position": 0.35,
              "duration": 0.108333
            },
            {
              "pitch": 74,
              "velocity": 57,
              "position": 0.358333,
              "duration": 0.091667
            },
            {
              "pitch": 79,
              "velocity": 71,
              "position": 0.358333,
              "duration": 0.108333
            },
            {
              "pitch": 83,
              "velocity": 52,
              "position": 0.358333,
              "duration": 0.083333
            },
            {
              "pitch": 74,
              "velocity": 69,
              "position": 0.675,
              "duration": 0.091667
            },
            {
              "pitch": 76,
              "velocity": 80,
              "position": 0.675,
              "duration": 0.125
            },
            {
              "pitch": 79,
              "velocity": 79,
              "position": 0.675,
              "duration": 0.108333
            },
            {
              "pitch": 83,
              "velocity": 66,
              "position": 0.675,
              "duration": 0.108333
            },
            {
              "pitch": 74,
              "velocity": 91,
              "position": 1.016667,
              "duration": 0.075
            },
            {
              "pitch": 76,
              "velocity": 85,
              "position": 1.016667,
              "duration": 0.108333
            },
            {
              "pitch": 79,
              "velocity": 85,
              "position": 1.016667,
              "duration": 0.125
            },
            {
              "pitch": 83,
              "velocity": 76,
              "position": 1.016667,
              "duration": 0.108333
            },
            {
              "pitch": 76,
              "velocity": 77,
              "position": 1.35,
              "duration": 0.091667
            },
            {
              "pitch": 79,
              "velocity": 73,
              "position": 1.35,
              "duration": 0.1
            },
            {
              "pitch": 83,
              "velocity": 53,
              "position": 1.35,
              "duration": 0.091667
            },
            {
              "pitch": 74,
              "velocity": 56,
              "position": 1.358333,
              "duration": 0.041667
            },
            {
              "pitch": 79,
              "velocity": 71,
              "position": 1.666667,
              "duration": 0.116667
            },
            {
              "pitch": 74,
              "velocity": 63,
              "position": 1.675,
              "duration": 0.083333
            },
            {
              "pitch": 76,
              "velocity": 76,
              "position": 1.675,
              "duration": 0.116667
            },
            {
              "pitch": 83,
              "velocity": 54,
              "position": 1.675,
              "duration": 0.091667
            },
            {
              "pitch": 74,
              "velocity": 73,
              "position": 2.025,
              "duration": 0.083333
            },
            {
              "pitch": 76,
              "velocity": 77,
              "position": 2.025,
              "duration": 0.1
            },
            {
              "pitch": 79,
              "velocity": 77,
              "position": 2.025,
              "duration": 0.108333
            },
            {
              "pitch": 83,
              "velocity": 70,
              "position": 2.025,
              "duration": 0.083333
            },
            {
              "pitch": 76,
              "velocity": 66,
              "position": 2.35,
              "duration": 0.108333
            },
            {
              "pitch": 74,
              "velocity": 57,
              "position": 2.358333,
              "duration": 0.091667
            },
            {
              "pitch": 79,
              "velocity": 71,
              "position": 2.358333,
              "duration": 0.108333
            },
            {
              "pitch": 83,
              "velocity": 52,
              "position": 2.358333,
              "duration": 0.083333
            },
            {
              "pitch": 74,
              "velocity": 69,
              "position": 2.675,
              "duration": 0.091667
            },
            {
              "pitch": 76,
              "velocity": 80,
              "position": 2.675,
              "duration": 0.125
            },
            {
              "pitch": 79,
              "velocity": 79,
              "position": 2.675,
              "duration": 0.108333
            },
            {
              "pitch": 83,
              "velocity": 66,
              "position": 2.675,
              "duration": 0.108333
            },
            {
              "pitch": 74,
              "velocity": 91,
              "position": 3.016667,
              "duration": 0.075
            },
            {
              "pitch": 76,
              "velocity": 85,
              "position": 3.016667,
              "duration": 0.108333
            },
            {
              "pitch": 79,
              "velocity": 85,
              "position": 3.016667,
              "duration": 0.125
            },
            {
              "pitch": 83,
              "velocity": 76,
              "position": 3.016667,
              "duration": 0.108333
            },
            {
              "pitch": 76,
              "velocity": 77,
              "position": 3.35,
              "duration": 0.091667
            },
            {
              "pitch": 79,
              "velocity": 73,
              "position": 3.35,
              "duration": 0.1
            },
            {
              "pitch": 83,
              "velocity": 53,
              "position": 3.35,
              "duration": 0.091667
            },
            {
              "pitch": 74,
              "velocity": 56,
              "position": 3.358333,
              "duration": 0.041667
            },
            {
              "pitch": 79,
              "velocity": 71,
              "position": 3.666667,
              "duration": 0.116667
            },
            {
              "pitch": 74,
              "velocity": 63,
              "position": 3.675,
              "duration": 0.083333
            },
            {
              "pitch": 76,
              "velocity": 76,
              "position": 3.675,
              "duration": 0.116667
            },
            {
              "pitch": 83,
              "velocity": 54,
              "position": 3.675,
              "duration": 0.091667
            },
            {
              "pitch": 74,
              "velocity": 73,
              "position": 4.025,
              "duration": 0.083333
            },
            {
              "pitch": 76,
              "velocity": 77,
              "position": 4.025,
              "duration": 0.1
            },
            {
              "pitch": 79,
              "velocity": 77,
              "position": 4.025,
              "duration": 0.108333
            },
            {
              "pitch": 83,
              "velocity": 70,
              "position": 4.025,
              "duration": 0.083333
            },
            {
              "pitch": 76,
              "velocity": 66,
              "position": 4.35,
              "duration": 0.108333
            },
            {
              "pitch": 74,
              "velocity": 57,
              "position": 4.358333,
              "duration": 0.091667
            },
            {
              "pitch": 79,
              "velocity": 71,
              "position": 4.358333,
              "duration": 0.108333
            },
            {
              "pitch": 83,
              "velocity": 52,
              "position": 4.358333,
              "duration": 0.083333
            },
            {
              "pitch": 74,
              "velocity": 69,
              "position": 4.675,
              "duration": 0.091667
            },
            {
              "pitch": 76,
              "velocity": 80,
              "position": 4.675,
              "duration": 0.125
            },
            {
              "pitch": 79,
              "velocity": 79,
              "position": 4.675,
              "duration": 0.108333
            },
            {
              "pitch": 83,
              "velocity": 66,
              "position": 4.675,
              "duration": 0.108333
            },
            {
              "pitch": 74,
              "velocity": 91,
              "position": 5.016667,
              "duration": 0.075
            },
            {
              "pitch": 76,
              "velocity": 85,
              "position": 5.016667,
              "duration": 0.108333
            },
            {
              "pitch": 79,
              "velocity": 85,
              "position": 5.016667,
              "duration": 0.125
            },
            {
              "pitch": 83,
              "velocity": 76,
              "position": 5.016667,
              "duration": 0.108333
            },
            {
              "pitch": 76,
              "velocity": 77,
              "position": 5.35,
              "duration": 0.091667
            },
            {
              "pitch": 79,
              "velocity": 73,
              "position": 5.35,
              "duration": 0.1
            },
            {
              "pitch": 83,
              "velocity": 53,
              "position": 5.35,
              "duration": 0.091667
            },
            {
              "pitch": 74,
              "velocity": 56,
              "position": 5.358333,
              "duration": 0.041667
            },
            {
              "pitch": 79,
              "velocity": 71,
              "position": 5.666667,
              "duration": 0.116667
            },
            {
              "pitch": 74,
              "velocity": 63,
              "position": 5.675,
              "duration": 0.083333
            },
            {
              "pitch": 76,
              "velocity": 76,
              "position": 5.675,
              "duration": 0.116667
            },
            {
              "pitch": 83,
              "velocity": 54,
              "position": 5.675,
              "duration": 0.091667
            },
            {
              "pitch": 74,
              "velocity": 73,
              "position": 6.025,
              "duration": 0.083333
            },
            {
              "pitch": 76,
              "velocity": 77,
              "position": 6.025,
              "duration": 0.1
            },
            {
              "pitch": 79,
              "velocity": 77,
              "position": 6.025,
              "duration": 0.108333
            },
            {
              "pitch": 83,
              "velocity": 70,
              "position": 6.025,
              "duration": 0.083333
            },
            {
              "pitch": 76,
              "velocity": 66,
              "position": 6.35,
              "duration": 0.108333
            },
            {
              "pitch": 74,
              "velocity": 57,
              "position": 6.358333,
              "duration": 0.091667
            },
            {
              "pitch": 79,
              "velocity": 71,
              "position": 6.358333,
              "duration": 0.108333
            },
            {
              "pitch": 83,
              "velocity": 52,
              "position": 6.358333,
              "duration": 0.083333
            },
            {
              "pitch": 74,
              "velocity": 69,
              "position": 6.675,
              "duration": 0.091667
            },
            {
              "pitch": 76,
              "velocity": 80,
              "position": 6.675,
              "duration": 0.125
            },
            {
              "pitch": 79,
              "velocity": 79,
              "position": 6.675,
              "duration": 0.108333
            },
            {
              "pitch": 83,
              "velocity": 66,
              "position": 6.675,
              "duration": 0.108333
            },
            {
              "pitch": 74,
              "velocity": 91,
              "position": 7.016667,
              "duration": 0.075
            },
            {
              "pitch": 76,
              "velocity": 85,
              "position": 7.016667,
              "duration": 0.108333
            },
            {
              "pitch": 79,
              "velocity": 85,
              "position": 7.016667,
              "duration": 0.125
            },
            {
              "pitch": 83,
              "velocity": 76,
              "position": 7.016667,
              "duration": 0.108333
            },
            {
              "pitch": 76,
              "velocity": 77,
              "position": 7.35,
              "duration": 0.091667
            },
            {
              "pitch": 79,
              "velocity": 73,
              "position": 7.35,
              "duration": 0.1
            },
            {
              "pitch": 83,
              "velocity": 53,
              "position": 7.35,
              "duration": 0.091667
            },
            {
              "pitch": 74,
              "velocity": 56,
              "position": 7.358333,
              "duration": 0.041667
            },
            {
              "pitch": 79,
              "velocity": 71,
              "position": 7.666667,
              "duration": 0.116667
            },
            {
              "pitch": 74,
              "velocity": 63,
              "position": 7.675,
              "duration": 0.083333
            },
            {
              "pitch": 76,
              "velocity": 76,
              "position": 7.675,
              "duration": 0.116667
            },
            {
              "pitch": 83,
              "velocity": 54,
              "position": 7.675,
              "duration": 0.091667
            },
            {
              "pitch": 74,
              "velocity": 73,
              "position": 8.025,
              "duration": 0.083333
            },
            {
              "pitch": 76,
              "velocity": 77,
              "position": 8.025,
              "duration": 0.1
            },
            {
              "pitch": 79,
              "velocity": 77,
              "position": 8.025,
              "duration": 0.108333
            },
            {
              "pitch": 83,
              "velocity": 70,
              "position": 8.025,
              "duration": 0.083333
            },
            {
              "pitch": 76,
              "velocity": 66,
              "position": 8.35,
              "duration": 0.108333
            },
            {
              "pitch": 74,
              "velocity": 57,
              "position": 8.358333,
              "duration": 0.091667
            },
            {
              "pitch": 79,
              "velocity": 71,
              "position": 8.358333,
              "duration": 0.108333
            },
            {
              "pitch": 83,
              "velocity": 52,
              "position": 8.358333,
              "duration": 0.083333
            },
            {
              "pitch": 74,
              "velocity": 69,
              "position": 8.675,
              "duration": 0.091667
            },
            {
              "pitch": 76,
              "velocity": 80,
              "position": 8.675,
              "duration": 0.125
            },
            {
              "pitch": 79,
              "velocity": 79,
              "position": 8.675,
              "duration": 0.108333
            },
            {
              "pitch": 83,
              "velocity": 66,
              "position": 8.675,
              "duration": 0.108333
            },
            {
              "pitch": 74,
              "velocity": 91,
              "position": 9.016667,
              "duration": 0.075
            },
            {
              "pitch": 76,
              "velocity": 85,
              "position": 9.016667,
              "duration": 0.108333
            },
            {
              "pitch": 79,
              "velocity": 85,
              "position": 9.016667,
              "duration": 0.125
            },
            {
              "pitch": 83,
              "velocity": 76,
              "position": 9.016667,
              "duration": 0.108333
            },
            {
              "pitch": 76,
              "velocity": 77,
              "position": 9.35,
              "duration": 0.091667
            },
            {
              "pitch": 79,
              "velocity": 73,
              "position": 9.35,
              "duration": 0.1
            },
            {
              "pitch": 83,
              "velocity": 53,
              "position": 9.35,
              "duration": 0.091667
            },
            {
              "pitch": 74,
              "velocity": 56,
              "position": 9.358333,
              "duration": 0.041667
            },
            {
              "pitch": 79,
              "velocity": 71,
              "position": 9.666667,
              "duration": 0.116667
            },
            {
              "pitch": 74,
              "velocity": 63,
              "position": 9.675,
              "duration": 0.083333
            },
            {
              "pitch": 76,
              "velocity": 76,
              "position": 9.675,
              "duration": 0.116667
            },
            {
              "pitch": 83,
              "velocity": 54,
              "position": 9.675,
              "duration": 0.091667
            },
            {
              "pitch": 76,
              "velocity": 83,
              "position": 9.991667,
              "duration": 0.15
            },
            {
              "pitch": 79,
              "velocity": 86,
              "position": 9.991667,
              "duration": 0.133333
            },
            {
              "pitch": 83,
              "velocity": 80,
              "position": 9.991667,
              "duration": 0.116667
            },
            {
              "pitch": 74,
              "velocity": 85,
              "position": 10.008333,
              "duration": 0.083333
            },
            {
              "pitch": 74,
              "velocity": 62,
              "position": 10.35,
              "duration": 0.083333
            },
            {
              "pitch": 76,
              "velocity": 74,
              "position": 10.35,
              "duration": 0.1
            },
            {
              "pitch": 79,
              "velocity": 67,
              "position": 10.35,
              "duration": 0.108333
            },
            {
              "pitch": 83,
              "velocity": 50,
              "position": 10.35,
              "duration": 0.083333
            },
            {
              "pitch": 74,
              "velocity": 69,
              "position": 10.666667,
              "duration": 0.1
            },
            {
              "pitch": 76,
              "velocity": 75,
              "position": 10.675,
              "duration": 0.125
            },
            {
              "pitch": 79,
              "velocity": 72,
              "position": 10.675,
              "duration": 0.116667
            },
            {
              "pitch": 83,
              "velocity": 50,
              "position": 10.675,
              "duration": 0.1
            },
            {
              "pitch": 74,
              "velocity": 99,
              "position": 11.008333,
              "duration": 0.091667
            },
            {
              "pitch": 76,
              "velocity": 90,
              "position": 11.008333,
              "duration": 0.133333
            },
            {
              "pitch": 79,
              "velocity": 87,
              "position": 11.008333,
              "duration": 0.125
            },
            {
              "pitch": 83,
              "velocity": 84,
              "position": 11.008333,
              "duration": 0.108333
            },
            {
              "pitch": 74,
              "velocity": 61,
              "position": 11.341667,
              "duration": 0.083333
            },
            {
              "pitch": 76,
              "velocity": 78,
              "position": 11.341667,
              "duration": 0.1
            },
            {
              "pitch": 79,
              "velocity": 72,
              "position": 11.341667,
              "duration": 0.108333
            },
            {
              "pitch": 83,
              "velocity": 55,
              "position": 11.341667,
              "duration": 0.108333
            },
            {
              "pitch": 83,
              "velocity": 46,
              "position": 11.675,
              "duration": 0.1
            },
            {
              "pitch": 74,
              "velocity": 63,
              "position": 11.683333,
              "duration": 0.075
            },
            {
              "pitch": 76,
              "velocity": 73,
              "position": 11.683333,
              "duration": 0.1
            },
            {
              "pitch": 79,
              "velocity": 70,
              "position": 11.683333,
              "duration": 0.1
            },
            {
              "pitch": 74,
              "velocity": 88,
              "position": 11.991667,
              "duration": 0.1
            },
            {
              "pitch": 76,
              "velocity": 81,
              "position": 11.991667,
              "duration": 0.133333
            },
            {
              "pitch": 79,
              "velocity": 85,
              "position": 11.991667,
              "duration": 0.133333
            },
            {
              "pitch": 83,
              "velocity": 81,
              "position": 11.991667,
              "duration": 0.108333
            },
            {
              "pitch": 76,
              "velocity": 67,
              "position": 12.333333,
              "duration": 0.116667
            },
            {
              "pitch": 74,
              "velocity": 53,
              "position": 12.341667,
              "duration": 0.083333
            },
            {
              "pitch": 79,
              "velocity": 60,
              "position": 12.341667,
              "duration": 0.116667
            },
            {
              "pitch": 83,
              "velocity": 46,
              "position": 12.341667,
              "duration": 0.108333
            },
            {
              "pitch": 74,
              "velocity": 66,
              "position": 12.675,
              "duration": 0.1
            },
            {
              "pitch": 83,
              "velocity": 51,
              "position": 12.675,
              "duration": 0.108333
            },
            {
              "pitch": 76,
              "velocity": 75,
              "position": 12.683333,
              "duration": 0.1
            },
            {
              "pitch": 79,
              "velocity": 69,
              "position": 12.683333,
              "duration": 0.108333
            },
            {
              "pitch": 74,
              "velocity": 92,
              "position": 13.016667,
              "duration": 0.116667
            },
            {
              "pitch": 76,
              "velocity": 88,
              "position": 13.016667,
              "duration": 0.15
            },
            {
              "pitch": 79,
              "velocity": 87,
              "position": 13.016667,
              "duration": 0.141667
            },
            {
              "pitch": 83,
              "velocity": 79,
              "position": 13.016667,
              "duration": 0.141667
            },
            {
              "pitch": 83,
              "velocity": 47,
              "position": 13.341667,
              "duration": 0.108333
            },
            {
              "pitch": 74,
              "velocity": 54,
              "position": 13.35,
              "duration": 0.05
            },
            {
              "pitch": 76,
              "velocity": 69,
              "position": 13.35,
              "duration": 0.1
            },
            {
              "pitch": 79,
              "velocity": 63,
              "position": 13.35,
              "duration": 0.1
            },
            {
              "pitch": 74,
              "velocity": 65,
              "position": 13.683333,
              "duration": 0.1
            },
            {
              "pitch": 76,
              "velocity": 72,
              "position": 13.683333,
              "duration": 0.116667
            },
            {
              "pitch": 79,
              "velocity": 67,
              "position": 13.683333,
              "duration": 0.108333
            },
            {
              "pitch": 83,
              "velocity": 48,
              "position": 13.683333,
              "duration": 0.091667
            },
            {
              "pitch": 74,
              "velocity": 92,
              "position": 14.016667,
              "duration": 0.1
            },
            {
              "pitch": 76,
              "velocity": 87,
              "position": 14.016667,
              "duration": 0.116667
            },
            {
              "pitch": 79,
              "velocity": 87,
              "position": 14.016667,
              "duration": 0.125
            },
            {
              "pitch": 83,
              "velocity": 86,
              "position": 14.016667,
              "duration": 0.108333
            },
            {
              "pitch": 74,
              "velocity": 52,
              "position": 14.35,
              "duration": 0.091667
            },
            {
              "pitch": 76,
              "velocity": 62,
              "position": 14.35,
              "duration": 0.116667
            },
            {
              "pitch": 79,
              "velocity": 62,
              "position": 14.35,
              "duration": 0.116667
            },
            {
              "pitch": 83,
              "velocity": 40,
              "position": 14.358333,
              "duration": 0.108333
            },
            {
              "pitch": 74,
              "velocity": 65,
              "position": 14.683333,
              "duration": 0.091667
            },
            {
              "pitch": 76,
              "velocity": 74,
              "position": 14.683333,
              "duration": 0.108333
            },
            {
              "pitch": 79,
              "velocity": 70,
              "position": 14.683333,
              "duration": 0.108333
            },
            {
              "pitch": 83,
              "velocity": 49,
              "position": 14.683333,
              "duration": 0.1
            },
            {
              "pitch": 74,
              "velocity": 83,
              "position": 15.008333,
              "duration": 0.1
            },
            {
              "pitch": 76,
              "velocity": 83,
              "position": 15.008333,
              "duration": 0.133333
            },
            {
              "pitch": 79,
              "velocity": 81,
              "position": 15.008333,
              "duration": 0.133333
            },
            {
              "pitch": 83,
              "velocity": 76,
              "position": 15.008333,
              "duration": 0.116667
            },
            {
              "pitch": 74,
              "velocity": 64,
              "position": 15.35,
              "duration": 0.075
            },
            {
              "pitch": 76,
              "velocity": 74,
              "position": 15.35,
              "duration": 0.1
            },
            {
              "pitch": 79,
              "velocity": 69,
              "position": 15.35,
              "duration": 0.1
            },
            {
              "pitch": 83,
              "velocity": 48,
              "position": 15.358333,
              "duration": 0.066667
            },
            {
              "pitch": 74,
              "velocity": 73,
              "position": 15.675,
              "duration": 0.325
            },
            {
              "pitch": 76,
              "velocity": 74,
              "position": 15.683333,
              "duration": 0.316667
            },
            {
              "pitch": 79,
              "velocity": 71,
              "position": 15.683333,
              "duration": 0.116667
            },
            {
              "pitch": 83,
              "velocity": 55,
              "position": 15.683333,
              "duration": 0.125
            }
          ]
        },
        "12": {
          "ctab": {
            "srcChannel": 12,
            "name": "Guitar",
            "accType": "CHORD2",
            "editable": true,
            "mutedNotes": [],
            "mutedChords": [],
            "sourceChordNote": 0,
            "sourceChordType": "Maj7",
            "ctb2Main": {
              "ntr": "ROOT_FIXED",
              "ntt": "CHORD",
              "bassOn": false,
              "noteLowLimit": 40,
              "noteHighLimit": 76,
              "chordRootUpperLimit": 127,
              "rtr": "NOTE_GENERATOR"
            }
          },
          "notes": [
            {
              "pitch": 64,
              "velocity": 68,
              "position": 0.008333,
              "duration": 0.966667
            },
            {
              "pitch": 67,
              "velocity": 68,
              "position": 0.033333,
              "duration": 0.941667
            },
            {
              "pitch": 48,
              "velocity": 56,
              "position": 1.016667,
              "duration": 0.275
            },
            {
              "pitch": 55,
              "velocity": 66,
              "position": 1.016667,
              "duration": 0.275
            },
            {
              "pitch": 59,
              "velocity": 66,
              "position": 1.016667,
              "duration": 0.275
            },
            {
              "pitch": 64,
              "velocity": 66,
              "position": 1.016667,
              "duration": 0.275
            },
            {
              "pitch": 67,
              "velocity": 66,
              "position": 1.016667,
              "duration": 0.275
            },
            {
              "pitch": 43,
              "velocity": 54,
              "position": 1.966667,
              "duration": 2.025
            },
            {
              "pitch": 48,
              "velocity": 57,
              "position": 1.983333,
              "duration": 2.008333
            },
            {
              "pitch": 52,
              "velocity": 68,
              "position": 2.0,
              "duration": 1.991667
            },
            {
              "pitch": 55,
              "velocity": 68,
              "position": 2.016667,
              "duration": 1.975
            },
            {
              "pitch": 59,
              "velocity": 68,
              "position": 2.033333,
              "duration": 1.958333
            },
            {
              "pitch": 64,
              "velocity": 68,
              "position": 2.05,
              "duration": 1.941667
            },
            {
              "pitch": 43,
              "velocity": 47,
              "position": 4.0,
              "duration": 1.375
            },
            {
              "pitch": 52,
              "velocity": 70,
              "position": 4.066667,
              "duration": 1.308333
            },
            {
              "pitch": 55,
              "velocity": 58,
              "position": 4.125,
              "duration": 1.25
            },
            {
              "pitch": 59,
              "velocity": 68,
              "position": 4.208333,
              "duration": 1.166667
            },
            {
              "pitch": 64,
              "velocity": 66,
              "position": 4.308333,
              "duration": 1.066667
            },
            {
              "pitch": 43,
              "velocity": 54,
              "position": 5.616667,
              "duration": 1.341667
            },
            {
              "pitch": 48,
              "velocity": 57,
              "position": 5.633333,
              "duration": 1.325
            },
            {
              "pitch": 52,
              "velocity": 68,
              "position": 5.65,
              "duration": 1.308333
            },
            {
              "pitch": 55,
              "velocity": 68,
              "position": 5.666667,
              "duration": 1.291667
            },
            {
              "pitch": 59,
              "velocity": 68,
              "position": 5.683333,
              "duration": 1.275
            },
            {
              "pitch": 64,
              "velocity": 68,
              "position": 5.7,
              "duration": 1.258333
            },
            {
              "pitch": 43,
              "velocity": 52,
              "position": 7.016667,
              "duration": 0.275
            },
            {
              "pitch": 48,
              "velocity": 56,
              "position": 7.016667,
              "duration": 0.275
            },
            {
              "pitch": 52,
              "velocity": 66,
              "position": 7.016667,
              "duration": 0.275
            },
            {
              "pitch": 55,
              "velocity": 66,
              "position": 7.016667,
              "duration": 0.275
            },
            {
              "pitch": 59,
              "velocity": 66,
              "position": 7.016667,
              "duration": 0.275
            },
            {
              "pitch": 64,
              "velocity": 66,
              "position": 7.016667,
              "duration": 0.275
            },
            {
              "pitch": 43,
              "velocity": 47,
              "position": 8.0,
              "duration": 6.775
            },
            {
              "pitch": 52,
              "velocity": 70,
              "position": 8.066667,
              "duration": 6.716667
            },
            {
              "pitch": 55,
              "velocity": 58,
              "position": 8.166667,
              "duration": 6.65
            },
            {
              "pitch": 59,
              "velocity": 68,
              "position": 8.25,
              "duration": 6.608333
            },
            {
              "pitch": 64,
              "velocity": 66,
              "position": 8.366667,
              "duration": 6.383333
            },
            {
              "pitch": 43,
              "velocity": 60,
              "position": 15.0,
              "duration": 0.158333
            },
            {
              "pitch": 52,
              "velocity": 75,
              "position": 15.0,
              "duration": 0.158333
            },
            {
              "pitch": 55,
              "velocity": 75,
              "position": 15.0,
              "duration": 0.158333
            },
            {
              "pitch": 59,
              "velocity": 75,
              "position": 15.0,
              "duration": 0.158333
            },
            {
              "pitch": 64,
              "velocity": 75,
              "position": 15.0,
              "duration": 0.158333
            }
          ]
        },
        "13": {
          "ctab": {
            "srcChannel": 13,
            "name": "Strings",
            "accType": "PAD",
            "editable": true,
            "mutedNotes": [],
            "mutedChords": [],
            "sourceChordNote": 0,
            "sourceChordType": "Maj7",
            "ctb2Main": {
              "ntr": "ROOT_FIXED",
              "ntt": "MELODY",
              "bassOn": false,
              "noteLowLimit": 36,
              "noteHighLimit": 96,
              "chordRootUpperLimit": 127,
              "rtr": "PITCH_SHIFT"
            }
          },
          "notes": []
        }
      }
    },
    "Main_B": {
      "type": "Main_B",
      "sizeInBeats": 16,
      "channels": {
        "9": {
          "ctab": {
            "srcChannel": 9,
            "name": "Drums",
            "accType": "RHYTHM",
            "editable": false,
            "mutedNotes": [],
            "mutedChords": [],
            "sourceChordNote": 0,
            "sourceChordType": "Maj",
            "ctb2Main": {
              "ntr": "ROOT_FIXED",
              "ntt": "BYPASS",
              "bassOn": false,
              "noteLowLimit": 20,
              "noteHighLimit": 127,
              "chordRootUpperLimit": 127,
              "rtr": "RETRIGGER"
            }
          },
          "notes": [
            {
              "pitch": 36,
              "velocity": 103,
              "position": 0.0,
              "duration": 0.4
            },
            {
              "pitch": 57,
              "velocity": 127,
              "position": 0.0,
              "duration": 0.05
            },
            {
              "pitch": 51,
              "velocity": 82,
              "position": 0.333333,
              "duration": 0.066667
            },
            {
              "pitch": 36,
              "velocity": 41,
              "position": 0.666667,
              "duration": 0.358333
            },
            {
              "pitch": 51,
              "velocity": 78,
              "position": 0.666667,
              "duration": 0.066667
            },
            {
              "pitch": 38,
              "velocity": 113,
              "position": 1.0,
              "duration": 0.208333
            },
            {
              "pitch": 51,
              "velocity": 114,
              "position": 1.0,
              "duration": 0.091667
            },
            {
              "pitch": 51,
              "velocity": 76,
              "position": 1.333333,
              "duration": 0.075
            },
            {
              "pitch": 36,
              "velocity": 57,
              "position": 1.666667,
              "duration": 0.075
            },
            {
              "pitch": 51,
              "velocity": 83,
              "position": 1.666667,
              "duration": 0.083333
            },
            {
              "pitch": 36,
              "velocity": 92,
              "position": 2.0,
              "duration": 0.191667
            },
            {
              "pitch": 51,
              "velocity": 110,
              "position": 2.0,
              "duration": 0.108333
            },
            {
              "pitch": 51,
              "velocity": 80,
              "position": 2.333333,
              "duration": 0.075
            },
            {
              "pitch": 36,
              "velocity": 79,
              "position": 2.666667,
              "duration": 0.4
            },
            {
              "pitch": 51,
              "velocity": 86,
              "position": 2.666667,
              "duration": 0.075
            },
            {
              "pitch": 38,
              "velocity": 125,
              "position": 3.0,
              "duration": 0.183333
            },
            {
              "pitch": 51,
              "velocity": 114,
              "position": 3.0,
              "duration": 0.066667
            },
            {
              "pitch": 36,
              "velocity": 65,
              "position": 3.333333,
              "duration": 0.058333
            },
            {
              "pitch": 51,
              "velocity": 96,
              "position": 3.333333,
              "duration": 0.066667
            },
            {
              "pitch": 51,
              "velocity": 83,
              "position": 3.566667,
              "duration": 0.05
            },
            {
              "pitch": 36,
              "velocity": 64,
              "position": 3.666667,
              "duration": 0.066667
            },
            {
              "pitch": 38,
              "velocity": 61,
              "position": 3.666667,
              "duration": 0.075
            },
            {
              "pitch": 51,
              "velocity": 91,
              "position": 3.666667,
              "duration": 0.075
            },
            {
              "pitch": 36,
              "velocity": 87,
              "position": 4.0,
              "duration": 0.425
            },
            {
              "pitch": 51,
              "velocity": 73,
              "position": 4.0,
              "duration": 0.083333
            },
            {
              "pitch": 51,
              "velocity": 73,
              "position": 4.333333,
              "duration": 0.058333
            },
            {
              "pitch": 51,
              "velocity": 68,
              "position": 4.566667,
              "duration": 0.025
            },
            {
              "pitch": 36,
              "velocity": 73,
              "position": 4.666667,
              "duration": 0.425
            },
            {
              "pitch": 51,
              "velocity": 78,
              "position": 4.666667,
              "duration": 0.066667
            },
            {
              "pitch": 38,
              "velocity": 108,
              "position": 5.0,
              "duration": 0.55
            },
            {
              "pitch": 51,
              "velocity": 107,
              "position": 5.0,
              "duration": 0.133333
            },
            {
              "pitch": 51,
              "velocity": 77,
              "position": 5.333333,
              "duration": 0.075
            },
            {
              "pitch": 36,
              "velocity": 53,
              "position": 5.666667,
              "duration": 0.1
            },
            {
              "pitch": 51,
              "velocity": 86,
              "position": 5.666667,
              "duration": 0.075
            },
            {
              "pitch": 36,
              "velocity": 85,
              "position": 6.0,
              "duration": 0.341667
            },
            {
              "pitch": 51,
              "velocity": 103,
              "position": 6.0,
              "duration": 0.1
            },
            {
              "pitch": 51,
              "velocity": 70,
              "position": 6.333333,
              "duration": 0.066667
            },
            {
              "pitch": 51,
              "velocity": 85,
              "position": 6.566667,
              "duration": 0.05
            },
            {
              "pitch": 36,
              "velocity": 66,
              "position": 6.666667,
              "duration": 0.425
            },
            {
              "pitch": 51,
              "velocity": 82,
              "position": 6.666667,
              "duration": 0.058333
            },
            {
              "pitch": 38,
              "velocity": 125,
              "position": 7.0,
              "duration": 0.158333
            },
            {
              "pitch": 51,
              "velocity": 114,
              "position": 7.0,
              "duration": 0.133333
            },
            {
              "pitch": 38,
              "velocity": 24,
              "position": 7.333333,
              "duration": 0.108333
            },
            {
              "pitch": 51,
              "velocity": 73,
              "position": 7.333333,
              "duration": 0.075
            },
            {
              "pitch": 36,
              "velocity": 72,
              "position": 7.666667,
              "duration": 0.266667
            },
            {
              "pitch": 51,
              "velocity": 91,
              "position": 7.666667,
              "duration": 0.066667
            },
            {
              "pitch": 36,
              "velocity": 95,
              "position": 8.0,
              "duration": 0.416667
            },
            {
              "pitch": 51,
              "velocity": 86,
              "position": 8.0,
              "duration": 0.041667
            },
            {
              "pitch": 51,
              "velocity": 80,
              "position": 8.333333,
              "duration": 0.075
            },
            {
              "pitch": 36,
              "velocity": 57,
              "position": 8.666667,
              "duration": 0.391667
            },
            {
              "pitch": 51,
              "velocity": 81,
              "position": 8.666667,
              "duration": 0.066667
            },
            {
              "pitch": 38,
              "velocity": 125,
              "position": 9.0,
              "duration": 0.225
            },
            {
              "pitch": 51,
              "velocity": 114,
              "position": 9.0,
              "duration": 0.091667
            },
            {
              "pitch": 38,
              "velocity": 34,
              "position": 9.333333,
              "duration": 0.091667
            },
            {
              "pitch": 51,
              "velocity": 82,
              "position": 9.333333,
              "duration": 0.05
            },
            {
              "pitch": 51,
              "velocity": 85,
              "position": 9.566667,
              "duration": 0.041667
            },
            {
              "pitch": 36,
              "velocity": 49,
              "position": 9.666667,
              "duration": 0.058333
            },
            {
              "pitch": 51,
              "velocity": 92,
              "position": 9.666667,
              "duration": 0.066667
            },
            {
              "pitch": 36,
              "velocity": 99,
              "position": 10.0,
              "duration": 0.408333
            },
            {
              "pitch": 51,
              "velocity": 68,
              "position": 10.0,
              "duration": 0.025
            },
            {
              "pitch": 51,
              "velocity": 69,
              "position": 10.333333,
              "duration": 0.05
            },
            {
              "pitch": 36,
              "velocity": 30,
              "position": 10.666667,
              "duration": 0.375
            },
            {
              "pitch": 51,
              "velocity": 76,
              "position": 10.666667,
              "duration": 0.066667
            },
            {
              "pitch": 38,
              "velocity": 118,
              "position": 11.0,
              "duration": 0.241667
            },
            {
              "pitch": 51,
              "velocity": 114,
              "position": 11.0,
              "duration": 0.066667
            },
            {
              "pitch": 51,
              "velocity": 80,
              "position": 11.333333,
              "duration": 0.066667
            },
            {
              "pitch": 36,
              "velocity": 67,
              "position": 11.666667,
              "duration": 0.091667
            },
            {
              "pitch": 51,
              "velocity": 93,
              "position": 11.666667,
              "duration": 0.066667
            },
            {
              "pitch": 36,
              "velocity": 105,
              "position": 12.0,
              "duration": 0.775
            },
            {
              "pitch": 51,
              "velocity": 101,
              "position": 12.0,
              "duration": 0.108333
            },
            {
              "pitch": 51,
              "velocity": 69,
              "position": 12.333333,
              "duration": 0.066667
            },
            {
              "pitch": 51,
              "velocity": 86,
              "position": 12.666667,
              "duration": 0.083333
            },
            {
              "pitch": 38,
              "velocity": 113,
              "position": 13.0,
              "duration": 0.358333
            },
            {
              "pitch": 51,
              "velocity": 105,
              "position": 13.0,
              "duration": 0.091667
            },
            {
              "pitch": 51,
              "velocity": 85,
              "position": 13.333333,
              "duration": 0.175
            },
            {
              "pitch": 38,
              "velocity": 66,
              "position": 13.575,
              "duration": 0.05
            },
            {
              "pitch": 51,
              "velocity": 94,
              "position": 13.666667,
              "duration": 0.15
            },
            {
              "pitch": 36,
              "velocity": 105,
              "position": 14.0,
              "duration": 0.366667
            },
            {
              "pitch": 51,
              "velocity": 98,
              "position": 14.0,
              "duration": 0.166667
            },
            {
              "pitch": 51,
              "velocity": 82,
              "position": 14.333333,
              "duration": 0.158333
            },
            {
              "pitch": 36,
              "velocity": 81,
              "position": 14.533333,
              "duration": 0.066667
            },
            {
              "pitch": 36,
              "velocity": 85,
              "position": 14.666667,
              "duration": 0.091667
            },
            {
              "pitch": 51,
              "velocity": 97,
              "position": 14.666667,
              "duration": 0.141667
            },
            {
              "pitch": 38,
              "velocity": 110,
              "position": 15.0,
              "duration": 0.108333
            },
            {
              "pitch": 51,
              "velocity": 103,
              "position": 15.0,
              "duration": 0.141667
            },
            {
              "pitch": 38,
              "velocity": 35,
              "position": 15.166667,
              "duration": 0.125
            },
            {
              "pitch": 38,
              "velocity": 77,
              "position": 15.333333,
              "duration": 0.075
            },
            {
              "pitch": 51,
              "velocity": 89,
              "position": 15.333333,
              "duration": 0.25
            },
            {
              "pitch": 36,
              "velocity": 96,
              "position": 15.666667,
              "duration": 0.283333
            },
            {
              "pitch": 45,
              "velocity": 101,
              "position": 15.666667,
              "duration": 0.091667
            },
            {
              "pitch": 49,
              "velocity": 103,
              "position": 15.666667,
              "duration": 0.083333
            }
          ]
        },
        "10": {
          "ctab": {
            "srcChannel": 10,
            "name": "Bass",
            "accType": "BASS",
            "editable": true,
            "mutedNotes": [],
            "mutedChords": [],
            "sourceChordNote": 0,
            "sourceChordType": "Maj7",
            "ctb2Main": {
              "ntr": "ROOT_TRANSPOSITION",
              "ntt": "BYPASS",
              "bassOn": true,
              "noteLowLimit": 20,
              "noteHighLimit": 60,
              "chordRootUpperLimit": 127,
              "rtr": "NOTE_GENERATOR"
            }
          },
          "notes": [
            {
              "pitch": 36,
              "velocity": 101,
              "position": 0.0,
              "duration": 0.875
            },
            {
              "pitch": 36,
              "velocity": 97,
              "position": 1.0,
              "duration": 0.225
            },
            {
              "pitch": 36,
              "velocity": 92,
              "position": 1.333333,
              "duration": 0.283333
            },
            {
              "pitch": 35,
              "velocity": 97,
              "position": 1.666667,
              "duration": 0.316667
            },
            {
              "pitch": 36,
              "velocity": 101,
              "position": 2.0,
              "duration": 0.875
            },
            {
              "pitch": 36,
              "velocity": 97,
              "position": 3.0,
              "duration": 0.225
            },
            {
              "pitch": 36,
              "velocity": 92,
              "position": 3.333333,
              "duration": 0.283333
            },
            {
              "pitch": 35,
              "velocity": 97,
              "position": 3.666667,
              "duration": 0.316667
            },
            {
              "pitch": 36,
              "velocity": 101,
              "position": 4.0,
              "duration": 0.875
            },
            {
              "pitch": 36,
              "velocity": 97,
              "position": 5.0,
              "duration": 0.225
            },
            {
              "pitch": 36,
              "velocity": 92,
              "position": 5.333333,
              "duration": 0.283333
            },
            {
              "pitch": 35,
              "velocity": 97,
              "position": 5.666667,
              "duration": 0.316667
            },
            {
              "pitch": 36,
              "velocity": 101,
              "position": 6.0,
              "duration": 0.875
            },
            {
              "pitch": 36,
              "velocity": 97,
              "position": 7.0,
              "duration": 0.225
            },
            {
              "pitch": 36,
              "velocity": 92,
              "position": 7.333333,
              "duration": 0.283333
            },
            {
              "pitch": 35,
              "velocity": 97,
              "position": 7.666667,
              "duration": 0.316667
            },
            {
              "pitch": 36,
              "velocity": 92,
              "position": 8.008333,
              "duration": 0.966667
            },
            {
              "pitch": 40,
              "velocity": 95,
              "position": 9.041667,
              "duration": 0.491667
            },
            {
              "pitch": 40,
              "velocity": 96,
              "position": 9.691667,
              "duration": 0.316667
            },
            {
              "pitch": 43,
              "velocity": 93,
              "position": 10.016667,
              "duration": 1.016667
            },
            {
              "pitch": 40,
              "velocity": 103,
              "position": 11.016667,
              "duration": 0.691667
            },
            {
              "pitch": 43,
              "velocity": 87,
              "position": 11.7,
              "duration": 0.341667
            },
            {
              "pitch": 36,
              "velocity": 94,
              "position": 12.025,
              "duration": 1.016667
            },
            {
              "pitch": 40,
              "velocity": 108,
              "position": 13.033333,
              "duration": 0.541667
            },
            {
              "pitch": 40,
              "velocity": 96,
              "position": 13.7,
              "duration": 0.333333
            },
            {
              "pitch": 43,
              "velocity": 97,
              "position": 14.033333,
              "duration": 1.016667
            },
            {
              "pitch": 36,
              "velocity": 97,
              "position": 15.008333,
              "duration": 0.541667
            },
            {
              "pitch": 36,
              "velocity": 100,
              "position": 15.666667,
              "duration": 0.333333
            }
          ]
        },
        "11": {
          "ctab": {
            "srcChannel": 11,
            "name": "Piano",
            "accType": "CHORD1",
            "editable": true,
            "mutedNotes": [],
            "mutedChords": [],
            "sourceChordNote": 0,
            "sourceChordType": "Maj7",
            "ctb2Main": {
              "ntr": "ROOT_FIXED",
              "ntt": "CHORD",
              "bassOn": false,
              "noteLowLimit": 48,
              "noteHighLimit": 84,
              "chordRootUpperLimit": 127,
              "rtr": "NOTE_GENERATOR"
            }
          },
          "notes": [
            {
              "pitch": 74,
              "velocity": 73,
              "position": 0.025,
              "duration": 0.083333
            },
            {
              "pitch": 76,
              "velocity": 77,
              "position": 0.025,
              "duration": 0.1
            },
            {
              "pitch": 79,
              "velocity": 77,
              "position": 0.025,
              "duration": 0.108333
            },
            {
              "pitch": 83,
              "velocity": 70,
              "position": 0.025,
              "duration": 0.083333
            },
            {
              "pitch": 76,
              "velocity": 66,
              "position": 0.35,
              "duration": 0.108333
            },
            {
              "pitch": 74,
              "velocity": 57,
              "position": 0.358333,
              "duration": 0.091667
            },
            {
              "pitch": 79,
              "velocity": 71,
              "position": 0.358333,
              "duration": 0.108333
            },
            {
              "pitch": 83,
              "velocity": 52,
              "position": 0.358333,
              "duration": 0.083333
            },
            {
              "pitch": 74,
              "velocity": 69,
              "position": 0.675,
              "duration": 0.091667
            },
            {
              "pitch": 76,
              "velocity": 80,
              "position": 0.675,
              "duration": 0.125
            },
            {
              "pitch": 79,
              "velocity": 79,
              "position": 0.675,
              "duration": 0.108333
            },
            {
              "pitch": 83,
              "velocity": 66,
              "position": 0.675,
              "duration": 0.108333
            },
            {
              "pitch": 74,
              "velocity": 91,
              "position": 1.016667,
              "duration": 0.075
            },
            {
              "pitch": 76,
              "velocity": 85,
              "position": 1.016667,
              "duration": 0.108333
            },
            {
              "pitch": 79,
              "velocity": 85,
              "position": 1.016667,
              "duration": 0.125
            },
            {
              "pitch": 83,
              "velocity": 76,
              "position": 1.016667,
              "duration": 0.108333
            },
            {
              "pitch": 76,
              "velocity": 77,
              "position": 1.35,
              "duration": 0.091667
            },
            {
              "pitch": 79,
              "velocity": 73,
              "position": 1.35,
              "duration": 0.1
            },
            {
              "pitch": 83,
              "velocity": 53,
              "position": 1.35,
              "duration": 0.091667
            },
            {
              "pitch": 74,
              "velocity": 56,
              "position": 1.358333,
              "duration": 0.041667
            },
            {
              "pitch": 79,
              "velocity": 71,
              "position": 1.666667,
              "duration": 0.116667
            },
            {
              "pitch": 74,
              "velocity": 63,
              "position": 1.675,
              "duration": 0.083333
            },
            {
              "pitch": 76,
              "velocity": 76,
              "position": 1.675,
              "duration": 0.116667
            },
            {
              "pitch": 83,
              "velocity": 54,
              "position": 1.675,
              "duration": 0.091667
            },
            {
              "pitch": 74,
              "velocity": 73,
              "position": 2.025,
              "duration": 0.083333
            },
            {
              "pitch": 76,
              "velocity": 77,
              "position": 2.025,
              "duration": 0.1
            },
            {
              "pitch": 79,
              "velocity": 77,
              "position": 2.025,
              "duration": 0.108333
            },
            {
              "pitch": 83,
              "velocity": 70,
              "position": 2.025,
              "duration": 0.083333
            },
            {
              "pitch": 76,
              "velocity": 66,
              "position": 2.35,
              "duration": 0.108333
            },
            {
              "pitch": 74,
              "velocity": 57,
              "position": 2.358333,
              "duration": 0.091667
            },
            {
              "pitch": 79,
              "velocity": 71,
              "position": 2.358333,
              "duration": 0.108333
            },
            {
              "pitch": 83,
              "velocity": 52,
              "position": 2.358333,
              "duration": 0.083333
            },
            {
              "pitch": 74,
              "velocity": 69,
              "position": 2.675,
              "duration": 0.091667
            },
            {
              "pitch": 76,
              "velocity": 80,
              "position": 2.675,
              "duration": 0.125
            },
            {
              "pitch": 79,
              "velocity": 79,
              "position": 2.675,
              "duration": 0.108333
            },
            {
              "pitch": 83,
              "velocity": 66,
              "position": 2.675,
              "duration": 0.108333
            },
            {
              "pitch": 74,
              "velocity": 91,
              "position": 3.016667,
              "duration": 0.075
            },
            {
              "pitch": 76,
              "velocity": 85,
              "position": 3.016667,
              "duration": 0.108333
            },
            {
              "pitch": 79,
              "velocity": 85,
              "position": 3.016667,
              "duration": 0.125
            },
            {
              "pitch": 83,
              "velocity": 76,
              "position": 3.016667,
              "duration": 0.108333
            },
            {
              "pitch": 76,
              "velocity": 77,
              "position": 3.35,
              "duration": 0.091667
            },
            {
              "pitch": 79,
              "velocity": 73,
              "position": 3.35,
              "duration": 0.1
            },
            {
              "pitch": 83,
              "velocity": 53,
              "position": 3.35,
              "duration": 0.091667
            },
            {
              "pitch": 74,
              "velocity": 56,
              "position": 3.358333,
              "duration": 0.041667
            },
            {
              "pitch": 79,
              "velocity": 71,
              "position": 3.666667,
              "duration": 0.116667
            },
            {
              "pitch": 74,
              "velocity": 63,
              "position": 3.675,
              "duration": 0.083333
            },
            {
              "pitch": 76,
              "velocity": 76,
              "position": 3.675,
              "duration": 0.116667
            },
            {
              "pitch": 83,
              "velocity": 54,
              "position": 3.675,
              "duration": 0.091667
            },
            {
              "pitch": 74,
              "velocity": 73,
              "position": 4.025,
              "duration": 0.083333
            },
            {
              "pitch": 76,
              "velocity": 77,
              "position": 4.025,
              "duration": 0.1
            },
            {
              "pitch": 79,
              "velocity": 77,
              "position": 4.025,
              "duration": 0.108333
            },
            {
              "pitch": 83,
              "velocity": 70,
              "position": 4.025,
              "duration": 0.083333
            },
            {
              "pitch": 76,
              "velocity": 66,
              "position": 4.35,
              "duration": 0.108333
            },
            {
              "pitch": 74,
              "velocity": 57,
              "position": 4.358333,
              "duration": 0.091667
            },
            {
              "pitch": 79,
              "velocity": 71,
              "position": 4.358333,
              "duration": 0.108333
            },
            {
              "pitch": 83,
              "velocity": 52,
              "position": 4.358333,
              "duration": 0.083333
            },
            {
              "pitch": 74,
              "velocity": 69,
              "position": 4.675,
              "duration": 0.091667
            },
            {
              "pitch": 76,
              "velocity": 80,
              "position": 4.675,
              "duration": 0.125
            },
            {
              "pitch": 79,
              "velocity": 79,
              "position": 4.675,
              "duration": 0.108333
            },
            {
              "pitch": 83,
              "velocity": 66,
              "position": 4.675,
              "duration": 0.108333
            },
            {
              "pitch": 74,
              "velocity": 91,
              "position": 5.016667,
              "duration": 0.075
            },
            {
              "pitch": 76,
              "velocity": 85,
              "position": 5.016667,
              "duration": 0.108333
            },
            {
              "pitch": 79,
              "velocity": 85,
              "position": 5.016667,
              "duration": 0.125
            },
            {
              "pitch": 83,
              "velocity": 76,
              "position": 5.016667,
              "duration": 0.108333
            },
            {
              "pitch": 76,
              "velocity": 77,
              "position": 5.35,
              "duration": 0.091667
            },
            {
              "pitch": 79,
              "velocity": 73,
              "position": 5.35,
              "duration": 0.1
            },
            {
              "pitch": 83,
              "velocity": 53,
              "position": 5.35,
              "duration": 0.091667
            },
            {
              "pitch": 74,
              "velocity": 56,
              "position": 5.358333,
              "duration": 0.041667
            },
            {
              "pitch": 79,
              "velocity": 71,
              "position": 5.666667,
              "duration": 0.116667
            },
            {
              "pitch": 74,
              "velocity": 63,
              "position": 5.675,
              "duration": 0.083333
            },
            {
              "pitch": 76,
              "velocity": 76,
              "position": 5.675,
              "duration": 0.116667
            },
            {
              "pitch": 83,
              "velocity": 54,
              "position": 5.675,
              "duration": 0.091667
            },
            {
              "pitch": 74,
              "velocity": 73,
              "position": 6.025,
              "duration": 0.083333
            },
            {
              "pitch": 76,
              "velocity": 77,
              "position": 6.025,
              "duration": 0.1
            },
            {
              "pitch": 79,
              "velocity": 77,
              "position": 6.025,
              "duration": 0.108333
            },
            {
              "pitch": 83,
              "velocity": 70,
              "position": 6.025,
              "duration": 0.083333
            },
            {
              "pitch": 76,
              "velocity": 66,
              "position": 6.35,
              "duration": 0.108333
            },
            {
              "pitch": 74,
              "velocity": 57,
              "position": 6.358333,
              "duration": 0.091667
            },
            {
              "pitch": 79,
              "velocity": 71,
              "position": 6.358333,
              "duration": 0.108333
            },
            {
              "pitch": 83,
              "velocity": 52,
              "position": 6.358333,
              "duration": 0.083333
            },
            {
              "pitch": 74,
              "velocity": 69,
              "position": 6.675,
              "duration": 0.091667
            },
            {
              "pitch": 76,
              "velocity": 80,
              "position": 6.675,
              "duration": 0.125
            },
            {
              "pitch": 79,
              "velocity": 79,
              "position": 6.675,
              "duration": 0.108333
            },
            {
              "pitch": 83,
              "velocity": 66,
              "position": 6.675,
              "duration": 0.108333
            },
            {
              "pitch": 74,
              "velocity": 91,
              "position": 7.016667,
              "duration": 0.075
            },
            {
              "pitch": 76,
              "velocity": 85,
              "position": 7.016667,
              "duration": 0.108333
            },
            {
              "pitch": 79,
              "velocity": 85,
              "position": 7.016667,
              "duration": 0.125
            },
            {
              "pitch": 83,
              "velocity": 76,
              "position": 7.016667,
              "duration": 0.108333
            },
            {
              "pitch": 76,
              "velocity": 77,
              "position": 7.35,
              "duration": 0.091667
            },
            {
              "pitch": 79,
              "velocity": 73,
              "position": 7.35,
              "duration": 0.1
            },
            {
              "pitch": 83,
              "velocity": 53,
              "position": 7.35,
              "duration": 0.091667
            },
            {
              "pitch": 74,
              "velocity": 56,
              "position": 7.358333,
              "duration": 0.041667
            },
            {
              "pitch": 79,
              "velocity": 71,
              "position": 7.666667,
              "duration": 0.116667
            },
            {
              "pitch": 74,
              "velocity": 63,
              "position": 7.675,
              "duration": 0.083333
            },
            {
              "pitch": 76,
              "velocity": 76,
              "position": 7.675,
              "duration": 0.116667
            },
            {
              "pitch": 83,
              "velocity": 54,
              "position": 7.675,
              "duration": 0.091667
            },
            {
              "pitch": 74,
              "velocity": 73,
              "position": 8.025,
              "duration": 0.083333
            },
            {
              "pitch": 76,
              "velocity": 77,
              "position": 8.025,
              "duration": 0.1
            },
            {
              "pitch": 79,
              "velocity": 77,
              "position": 8.025,
              "duration": 0.108333
            },
            {
              "pitch": 83,
              "velocity": 70,
              "position": 8.025,
              "duration": 0.083333
            },
            {
              "pitch": 76,
              "velocity": 66,
              "position": 8.35,
              "duration": 0.108333
            },
            {
              "pitch": 74,
              "velocity": 57,
              "position": 8.358333,
              "duration": 0.091667
            },
            {
              "pitch": 79,
              "velocity": 71,
              "position": 8.358333,
              "duration": 0.108333
            },
            {
              "pitch": 83,
              "velocity": 52,
              "position": 8.358333,
              "duration": 0.083333
            },
            {
              "pitch": 74,
              "velocity": 69,
              "position": 8.675,
              "duration": 0.091667
            },
            {
              "pitch": 76,
              "velocity": 80,
              "position": 8.675,
              "duration": 0.125
            },
            {
              "pitch": 79,
              "velocity": 79,
              "position": 8.675,
              "duration": 0.108333
            },
            {
              "pitch": 83,
              "velocity": 66,
              "position": 8.675,
              "duration": 0.108333
            },
            {
              "pitch": 74,
              "velocity": 91,
              "position": 9.016667,
              "duration": 0.075
            },
            {
              "pitch": 76,
              "velocity": 85,
              "position": 9.016667,
              "duration": 0.108333
            },
            {
              "pitch": 79,
              "velocity": 85,
              "position": 9.016667,
              "duration": 0.125
            },
            {
              "pitch": 83,
              "velocity": 76,
              "position": 9.016667,
              "duration": 0.108333
            },
            {
              "pitch": 76,
              "velocity": 77,
              "position": 9.35,
              "duration": 0.091667
            },
            {
              "pitch": 79,
              "velocity": 73,
              "position": 9.35,
              "duration": 0.1
            },
            {
              "pitch": 83,
              "velocity": 53,
              "position": 9.35,
              "duration": 0.091667
            },
            {
              "pitch": 74,
              "velocity": 56,
              "position": 9.358333,
              "duration": 0.041667
            },
            {
              "pitch": 79,
              "velocity": 71,
              "position": 9.666667,
              "duration": 0.116667
            },
            {
              "pitch": 74,
              "velocity": 63,
              "position": 9.675,
              "duration": 0.083333
            },
            {
              "pitch": 76,
              "velocity": 76,
              "position": 9.675,
              "duration": 0.116667
            },
            {
              "pitch": 83,
              "velocity": 54,
              "position": 9.675,
              "duration": 0.091667
            },
            {
              "pitch": 76,
              "velocity": 83,
              "position": 9.991667,
              "duration": 0.15
            },
            {
              "pitch": 79,
              "velocity": 86,
              "position": 9.991667,
              "duration": 0.133333
            },
            {
              "pitch": 83,
              "velocity": 80,
              "position": 9.991667,
              "duration": 0.116667
            },
            {
              "pitch": 74,
              "velocity": 85,
              "position": 10.008333,
              "duration": 0.083333
            },
            {
              "pitch": 74,
              "velocity": 62,
              "position": 10.35,
              "duration": 0.083333
            },
            {
              "pitch": 76,
              "velocity": 74,
              "position": 10.35,
              "duration": 0.1
            },
            {
              "pitch": 79,
              "velocity": 67,
              "position": 10.35,
              "duration": 0.108333
            },
            {
              "pitch": 83,
              "velocity": 50,
              "position": 10.35,
              "duration": 0.083333
            },
            {
              "pitch": 74,
              "velocity": 69,
              "position": 10.666667,
              "duration": 0.1
            },
            {
              "pitch": 76,
              "velocity": 75,
              "position": 10.675,
              "duration": 0.125
            },
            {
              "pitch": 79,
              "velocity": 72,
              "position": 10.675,
              "duration": 0.116667
            },
            {
              "pitch": 83,
              "velocity": 50,
              "position": 10.675,
              "duration": 0.1
            },
            {
              "pitch": 74,
              "velocity": 99,
              "position": 11.008333,
              "duration": 0.091667
            },
            {
              "pitch": 76,
              "velocity": 90,
              "position": 11.008333,
              "duration": 0.133333
            },
            {
              "pitch": 79,
              "velocity": 87,
              "position": 11.008333,
              "duration": 0.125
            },
            {
              "pitch": 83,
              "velocity": 84,
              "position": 11.008333,
              "duration": 0.108333
            },
            {
              "pitch": 74,
              "velocity": 61,
              "position": 11.341667,
              "duration": 0.083333
            },
            {
              "pitch": 76,
              "velocity": 78,
              "position": 11.341667,
              "duration": 0.1
            },
            {
              "pitch": 79,
              "velocity": 72,
              "position": 11.341667,
              "duration": 0.108333
            },
            {
              "pitch": 83,
              "velocity": 55,
              "position": 11.341667,
              "duration": 0.108333
            },
            {
              "pitch": 83,
              "velocity": 46,
              "position": 11.675,
              "duration": 0.1
            },
            {
              "pitch": 74,
              "velocity": 63,
              "position": 11.683333,
              "duration": 0.075
            },
            {
              "pitch": 76,
              "velocity": 73,
              "position": 11.683333,
              "duration": 0.1
            },
            {
              "pitch": 79,
              "velocity": 70,
              "position": 11.683333,
              "duration": 0.1
            },
            {
              "pitch": 74,
              "velocity": 88,
              "position": 11.991667,
              "duration": 0.1
            },
            {
              "pitch": 76,
              "velocity": 81,
              "position": 11.991667,
              "duration": 0.133333
            },
            {
              "pitch": 79,
              "velocity": 85,
              "position": 11.991667,
              "duration": 0.133333
            },
            {
              "pitch": 83,
              "velocity": 81,
              "position": 11.991667,
              "duration": 0.108333
            },
            {
              "pitch": 76,
              "velocity": 67,
              "position": 12.333333,
              "duration": 0.116667
            },
            {
              "pitch": 74,
              "velocity": 53,
              "position": 12.341667,
              "duration": 0.083333
            },
            {
              "pitch": 79,
              "velocity": 60,
              "position": 12.341667,
              "duration": 0.116667
            },
            {
              "pitch": 83,
              "velocity": 46,
              "position": 12.341667,
              "duration": 0.108333
            },
            {
              "pitch": 74,
              "velocity": 66,
              "position": 12.675,
              "duration": 0.1
            },
            {
              "pitch": 83,
              "velocity": 51,
              "position": 12.675,
              "duration": 0.108333
            },
            {
              "pitch": 76,
              "velocity": 75,
              "position": 12.683333,
              "duration": 0.1
            },
            {
              "pitch": 79,
              "velocity": 69,
              "position": 12.683333,
              "duration": 0.108333
            },
            {
              "pitch": 74,
              "velocity": 92,
              "position": 13.016667,
              "duration": 0.116667
            },
            {
              "pitch": 76,
              "velocity": 88,
              "position": 13.016667,
              "duration": 0.15
            },
            {
              "pitch": 79,
              "velocity": 87,
              "position": 13.016667,
              "duration": 0.141667
            },
            {
              "pitch": 83,
              "velocity": 79,
              "position": 13.016667,
              "duration": 0.141667
            },
            {
              "pitch": 83,
              "velocity": 47,
              "position": 13.341667,
              "duration": 0.108333
            },
            {
              "pitch": 74,
              "velocity": 54,
              "position": 13.35,
              "duration": 0.05
            },
            {
              "pitch": 76,
              "velocity": 69,
              "position": 13.35,
              "duration": 0.1
            },
            {
              "pitch": 79,
              "velocity": 63,
              "position": 13.35,
              "duration": 0.1
            },
            {
              "pitch": 74,
              "velocity": 65,
              "position": 13.683333,
              "duration": 0.1
            },
            {
              "pitch": 76,
              "velocity": 72,
              "position": 13.683333,
              "duration": 0.116667
            },
            {
              "pitch": 79,
              "velocity": 67,
              "position": 13.683333,
              "duration": 0.108333
            },
            {
              "pitch": 83,
              "velocity": 48,
              "position": 13.683333,
              "duration": 0.091667
            },
            {
              "pitch": 74,
              "velocity": 92,
              "position": 14.016667,
              "duration": 0.1
            },
            {
              "pitch": 76,
              "velocity": 87,
              "position": 14.016667,
              "duration": 0.116667
            },
            {
              "pitch": 79,
              "velocity": 87,
              "position": 14.016667,
              "duration": 0.125
            },
            {
              "pitch": 83,
              "velocity": 86,
              "position": 14.016667,
              "duration": 0.108333
            },
            {
              "pitch": 74,
              "velocity": 52,
              "position": 14.35,
              "duration": 0.091667
            },
            {
              "pitch": 76,
              "velocity": 62,
              "position": 14.35,
              "duration": 0.116667
            },
            {
              "pitch": 79,
              "velocity": 62,
              "position": 14.35,
              "duration": 0.116667
            },
            {
              "pitch": 83,
              "velocity": 40,
              "position": 14.358333,
              "duration": 0.108333
            },
            {
              "pitch": 74,
              "velocity": 65,
              "position": 14.683333,
              "duration": 0.091667
            },
            {
              "pitch": 76,
              "velocity": 74,
              "position": 14.683333,
              "duration": 0.108333
            },
            {
              "pitch": 79,
              "velocity": 70,
              "position": 14.683333,
              "duration": 0.108333
            },
            {
              "pitch": 83,
              "velocity": 49,
              "position": 14.683333,
              "duration": 0.1
            },
            {
              "pitch": 74,
              "velocity": 83,
              "position": 15.008333,
              "duration": 0.1
            },
            {
              "pitch": 76,
              "velocity": 83,
              "position": 15.008333,
              "duration": 0.133333
            },
            {
              "pitch": 79,
              "velocity": 81,
              "position": 15.008333,
              "duration": 0.133333
            },
            {
              "pitch": 83,
              "velocity": 76,
              "position": 15.008333,
              "duration": 0.116667
            },
            {
              "pitch": 74,
              "velocity": 64,
              "position": 15.35,
              "duration": 0.075
            },
            {
              "pitch": 76,
              "velocity": 74,
              "position": 15.35,
              "duration": 0.1
            },
            {
              "pitch": 79,
              "velocity": 69,
              "position": 15.35,
              "duration": 0.1
            },
            {
              "pitch": 83,
              "velocity": 48,
              "position": 15.358333,
              "duration": 0.066667
            },
            {
              "pitch": 74,
              "velocity": 73,
              "position": 15.675,
              "duration": 0.325
            },
            {
              "pitch": 76,
              "velocity": 74,
              "position": 15.683333,
              "duration": 0.316667
            },
            {
              "pitch": 79,
              "velocity": 71,
              "position": 15.683333,
              "duration": 0.116667
            },
            {
              "pitch": 83,
              "velocity": 55,
              "position": 15.683333,
              "duration": 0.125
            }
          ]
        },
        "12": {
          "ctab": {
            "srcChannel": 12,
            "name": "Guitar",
            "accType": "CHORD2",
            "editable": true,
            "mutedNotes": [],
            "mutedChords": [],
            "sourceChordNote": 0,
            "sourceChordType": "Maj7",
            "ctb2Main": {
              "ntr": "ROOT_FIXED",
              "ntt": "CHORD",
              "bassOn": false,
              "noteLowLimit": 40,
              "noteHighLimit": 76,
              "chordRootUpperLimit": 127,
              "rtr": "NOTE_GENERATOR"
            }
          },
          "notes": [
            {
              "pitch": 43,
              "velocity": 47,
              "position": 0.0,
              "duration": 1.933333
            },
            {
              "pitch": 52,
              "velocity": 70,
              "position": 0.066667,
              "duration": 1.883333
            },
            {
              "pitch": 55,
              "velocity": 58,
              "position": 0.166667,
              "duration": 1.816667
            },
            {
              "pitch": 59,
              "velocity": 68,
              "position": 0.25,
              "duration": 1.733333
            },
            {
              "pitch": 64,
              "velocity": 66,
              "position": 0.366667,
              "duration": 1.616667
            },
            {
              "pitch": 43,
              "velocity": 54,
              "position": 1.95,
              "duration": 1.025
            },
            {
              "pitch": 52,
              "velocity": 68,
              "position": 1.966667,
              "duration": 1.008333
            },
            {
              "pitch": 55,
              "velocity": 68,
              "position": 1.991667,
              "duration": 0.983333
            },
            {
              "pitch": 59,
              "velocity": 68,
              "position": 2.008333,
              "duration": 0.966667
            },
            {
              "pitch": 64,
              "velocity": 68,
              "position": 2.033333,
              "duration": 0.941667
            },
            {
              "pitch": 43,
              "velocity": 52,
              "position": 3.016667,
              "duration": 0.275
            },
            {
              "pitch": 52,
              "velocity": 66,
              "position": 3.016667,
              "duration": 0.275
            },
            {
              "pitch": 55,
              "velocity": 66,
              "position": 3.016667,
              "duration": 0.275
            },
            {
              "pitch": 59,
              "velocity": 66,
              "position": 3.016667,
              "duration": 0.275
            },
            {
              "pitch": 64,
              "velocity": 66,
              "position": 3.016667,
              "duration": 0.275
            },
            {
              "pitch": 48,
              "velocity": 50,
              "position": 4.0,
              "duration": 1.983333
            },
            {
              "pitch": 55,
              "velocity": 70,
              "position": 4.066667,
              "duration": 1.916667
            },
            {
              "pitch": 59,
              "velocity": 58,
              "position": 4.125,
              "duration": 1.858333
            },
            {
              "pitch": 64,
              "velocity": 68,
              "position": 4.208333,
              "duration": 1.775
            },
            {
              "pitch": 67,
              "velocity": 66,
              "position": 4.308333,
              "duration": 1.675
            },
            {
              "pitch": 43,
              "velocity": 47,
              "position": 6.0,
              "duration": 1.983333
            },
            {
              "pitch": 52,
              "velocity": 70,
              "position": 6.066667,
              "duration": 1.9
            },
            {
              "pitch": 55,
              "velocity": 58,
              "position": 6.125,
              "duration": 1.858333
            },
            {
              "pitch": 59,
              "velocity": 68,
              "position": 6.208333,
              "duration": 1.775
            },
            {
              "pitch": 64,
              "velocity": 66,
              "position": 6.308333,
              "duration": 1.675
            },
            {
              "pitch": 48,
              "velocity": 57,
              "position": 7.966667,
              "duration": 6.975
            },
            {
              "pitch": 55,
              "velocity": 68,
              "position": 7.983333,
              "duration": 6.958333
            },
            {
              "pitch": 59,
              "velocity": 68,
              "position": 8.008333,
              "duration": 6.933333
            },
            {
              "pitch": 64,
              "velocity": 68,
              "position": 8.025,
              "duration": 6.916667
            },
            {
              "pitch": 67,
              "velocity": 68,
              "position": 8.05,
              "duration": 6.891667
            },
            {
              "pitch": 48,
              "velocity": 67,
              "position": 15.008333,
              "duration": 0.125
            },
            {
              "pitch": 55,
              "velocity": 79,
              "position": 15.008333,
              "duration": 0.125
            },
            {
              "pitch": 59,
              "velocity": 79,
              "position": 15.008333,
              "duration": 0.125
            },
            {
              "pitch": 64,
              "velocity": 79,
              "position": 15.008333,
              "duration": 0.125
            },
            {
              "pitch": 67,
              "velocity": 79,
              "position": 15.008333,
              "duration": 0.125
            },
            {
              "pitch": 48,
              "velocity": 57,
              "position": 15.966667,
              "duration": 2.025
            },
            {
              "pitch": 55,
              "velocity": 68,
              "position": 15.983333,
              "duration": 1.983333
            }
          ]
        },
        "13": {
          "ctab": {
            "srcChannel": 13,
            "name": "Strings",
            "accType": "PAD",
            "editable": true,
            "mutedNotes": [],
            "mutedChords": [],
            "sourceChordNote": 0,
            "sourceChordType": "Maj7",
            "ctb2Main": {
              "ntr": "ROOT_FIXED",
              "ntt": "MELODY",
              "bassOn": false,
              "noteLowLimit": 36,
              "noteHighLimit": 96,
              "chordRootUpperLimit": 127,
              "rtr": "PITCH_SHIFT"
            }
          },
          "notes": []
        }
      }
    },
    "Main_C": {
      "type": "Main_C",
      "sizeInBeats": 16,
      "channels": {
        "9": {
          "ctab": {
            "srcChannel": 9,
            "name": "Drums",
            "accType": "RHYTHM",
            "editable": false,
            "mutedNotes": [],
            "mutedChords": [],
            "sourceChordNote": 0,
            "sourceChordType": "Maj",
            "ctb2Main": {
              "ntr": "ROOT_FIXED",
              "ntt": "BYPASS",
              "bassOn": false,
              "noteLowLimit": 20,
              "noteHighLimit": 127,
              "chordRootUpperLimit": 127,
              "rtr": "RETRIGGER"
            }
          },
          "notes": [
            {
              "pitch": 36,
              "velocity": 103,
              "position": 0.0,
              "duration": 0.4
            },
            {
              "pitch": 57,
              "velocity": 127,
              "position": 0.0,
              "duration": 0.05
            },
            {
              "pitch": 51,
              "velocity": 82,
              "position": 0.333333,
              "duration": 0.066667
            },
            {
              "pitch": 36,
              "velocity": 41,
              "position": 0.666667,
              "duration": 0.358333
            },
            {
              "pitch": 51,
              "velocity": 78,
              "position": 0.666667,
              "duration": 0.066667
            },
            {
              "pitch": 38,
              "velocity": 113,
              "position": 1.0,
              "duration": 0.208333
            },
            {
              "pitch": 51,
              "velocity": 114,
              "position": 1.0,
              "duration": 0.091667
            },
            {
              "pitch": 51,
              "velocity": 76,
              "position": 1.333333,
              "duration": 0.075
            },
            {
              "pitch": 36,
              "velocity": 57,
              "position": 1.666667,
              "duration": 0.075
            },
            {
              "pitch": 51,
              "velocity": 83,
              "position": 1.666667,
              "duration": 0.083333
            },
            {
              "pitch": 36,
              "velocity": 92,
              "position": 2.0,
              "duration": 0.191667
            },
            {
              "pitch": 51,
              "velocity": 110,
              "position": 2.0,
              "duration": 0.108333
            },
            {
              "pitch": 51,
              "velocity": 80,
              "position": 2.333333,
              "duration": 0.075
            },
            {
              "pitch": 36,
              "velocity": 79,
              "position": 2.666667,
              "duration": 0.4
            },
            {
              "pitch": 51,
              "velocity": 86,
              "position": 2.666667,
              "duration": 0.075
            },
            {
              "pitch": 38,
              "velocity": 125,
              "position": 3.0,
              "duration": 0.183333
            },
            {
              "pitch": 51,
              "velocity": 114,
              "position": 3.0,
              "duration": 0.066667
            },
            {
              "pitch": 36,
              "velocity": 65,
              "position": 3.333333,
              "duration": 0.058333
            },
            {
              "pitch": 51,
              "velocity": 96,
              "position": 3.333333,
              "duration": 0.066667
            },
            {
              "pitch": 51,
              "velocity": 83,
              "position": 3.566667,
              "duration": 0.05
            },
            {
              "pitch": 36,
              "velocity": 64,
              "position": 3.666667,
              "duration": 0.066667
            },
            {
              "pitch": 38,
              "velocity": 61,
              "position": 3.666667,
              "duration": 0.075
            },
            {
              "pitch": 51,
              "velocity": 91,
              "position": 3.666667,
              "duration": 0.075
            },
            {
              "pitch": 36,
              "velocity": 95,
              "position": 4.0,
              "duration": 0.416667
            },
            {
              "pitch": 51,
              "velocity": 86,
              "position": 4.0,
              "duration": 0.041667
            },
            {
              "pitch": 51,
              "velocity": 80,
              "position": 4.333333,
              "duration": 0.075
            },
            {
              "pitch": 36,
              "velocity": 57,
              "position": 4.666667,
              "duration": 0.391667
            },
            {
              "pitch": 51,
              "velocity": 81,
              "position": 4.666667,
              "duration": 0.066667
            },
            {
              "pitch": 38,
              "velocity": 125,
              "position": 5.0,
              "duration": 0.225
            },
            {
              "pitch": 51,
              "velocity": 114,
              "position": 5.0,
              "duration": 0.091667
            },
            {
              "pitch": 38,
              "velocity": 34,
              "position": 5.333333,
              "duration": 0.091667
            },
            {
              "pitch": 51,
              "velocity": 82,
              "position": 5.333333,
              "duration": 0.05
            },
            {
              "pitch": 51,
              "velocity": 85,
              "position": 5.566667,
              "duration": 0.041667
            },
            {
              "pitch": 36,
              "velocity": 49,
              "position": 5.666667,
              "duration": 0.058333
            },
            {
              "pitch": 51,
              "velocity": 92,
              "position": 5.666667,
              "duration": 0.066667
            },
            {
              "pitch": 36,
              "velocity": 99,
              "position": 6.0,
              "duration": 0.408333
            },
            {
              "pitch": 51,
              "velocity": 68,
              "position": 6.0,
              "duration": 0.025
            },
            {
              "pitch": 51,
              "velocity": 69,
              "position": 6.333333,
              "duration": 0.05
            },
            {
              "pitch": 36,
              "velocity": 30,
              "position": 6.666667,
              "duration": 0.375
            },
            {
              "pitch": 51,
              "velocity": 76,
              "position": 6.666667,
              "duration": 0.066667
            },
            {
              "pitch": 38,
              "velocity": 118,
              "position": 7.0,
              "duration": 0.241667
            },
            {
              "pitch": 51,
              "velocity": 114,
              "position": 7.0,
              "duration": 0.066667
            },
            {
              "pitch": 51,
              "velocity": 80,
              "position": 7.333333,
              "duration": 0.066667
            },
            {
              "pitch": 36,
              "velocity": 67,
              "position": 7.666667,
              "duration": 0.091667
            },
            {
              "pitch": 51,
              "velocity": 93,
              "position": 7.666667,
              "duration": 0.066667
            },
            {
              "pitch": 36,
              "velocity": 95,
              "position": 8.0,
              "duration": 0.416667
            },
            {
              "pitch": 51,
              "velocity": 86,
              "position": 8.0,
              "duration": 0.041667
            },
            {
              "pitch": 51,
              "velocity": 80,
              "position": 8.333333,
              "duration": 0.075
            },
            {
              "pitch": 36,
              "velocity": 57,
              "position": 8.666667,
              "duration": 0.391667
            },
            {
              "pitch": 51,
              "velocity": 81,
              "position": 8.666667,
              "duration": 0.066667
            },
            {
              "pitch": 38,
              "velocity": 125,
              "position": 9.0,
              "duration": 0.225
            },
            {
              "pitch": 51,
              "velocity": 114,
              "position": 9.0,
              "duration": 0.091667
            },
            {
              "pitch": 38,
              "velocity": 34,
              "position": 9.333333,
              "duration": 0.091667
            },
            {
              "pitch": 51,
              "velocity": 82,
              "position": 9.333333,
              "duration": 0.05
            },
            {
              "pitch": 51,
              "velocity": 85,
              "position": 9.566667,
              "duration": 0.041667
            },
            {
              "pitch": 36,
              "velocity": 49,
              "position": 9.666667,
              "duration": 0.058333
            },
            {
              "pitch": 51,
              "velocity": 92,
              "position": 9.666667,
              "duration": 0.066667
            },
            {
              "pitch": 36,
              "velocity": 99,
              "position": 10.0,
              "duration": 0.408333
            },
            {
              "pitch": 51,
              "velocity": 68,
              "position": 10.0,
              "duration": 0.025
            },
            {
              "pitch": 51,
              "velocity": 69,
              "position": 10.333333,
              "duration": 0.05
            },
            {
              "pitch": 36,
              "velocity": 30,
              "position": 10.666667,
              "duration": 0.375
            },
            {
              "pitch": 51,
              "velocity": 76,
              "position": 10.666667,
              "duration": 0.066667
            },
            {
              "pitch": 38,
              "velocity": 118,
              "position": 11.0,
              "duration": 0.241667
            },
            {
              "pitch": 51,
              "velocity": 114,
              "position": 11.0,
              "duration": 0.066667
            },
            {
              "pitch": 51,
              "velocity": 80,
              "position": 11.333333,
              "duration": 0.066667
            },
            {
              "pitch": 36,
              "velocity": 67,
              "position": 11.666667,
              "duration": 0.091667
            },
            {
              "pitch": 51,
              "velocity": 93,
              "position": 11.666667,
              "duration": 0.066667
            },
            {
              "pitch": 36,
              "velocity": 103,
              "position": 12.0,
              "duration": 0.833333
            },
            {
              "pitch": 43,
              "velocity": 94,
              "position": 12.0,
              "duration": 0.066667
            },
            {
              "pitch": 51,
              "velocity": 101,
              "position": 12.0,
              "duration": 0.141667
            },
            {
              "pitch": 51,
              "velocity": 72,
              "position": 12.333333,
              "duration": 0.1
            },
            {
              "pitch": 51,
              "velocity": 92,
              "position": 12.666667,
              "duration": 0.116667
            },
            {
              "pitch": 38,
              "velocity": 22,
              "position": 12.808333,
              "duration": 0.108333
            },
            {
              "pitch": 38,
              "velocity": 28,
              "position": 12.941667,
              "duration": 0.033333
            },
            {
              "pitch": 38,
              "velocity": 127,
              "position": 13.0,
              "duration": 0.25
            },
            {
              "pitch": 51,
              "velocity": 105,
              "position": 13.0,
              "duration": 0.125
            },
            {
              "pitch": 36,
              "velocity": 68,
              "position": 13.333333,
              "duration": 0.275
            },
            {
              "pitch": 51,
              "velocity": 82,
              "position": 13.333333,
              "duration": 0.166667
            },
            {
              "pitch": 38,
              "velocity": 91,
              "position": 13.666667,
              "duration": 0.066667
            },
            {
              "pitch": 51,
              "velocity": 96,
              "position": 13.666667,
              "duration": 0.083333
            },
            {
              "pitch": 36,
              "velocity": 105,
              "position": 14.0,
              "duration": 0.425
            },
            {
              "pitch": 51,
              "velocity": 110,
              "position": 14.0,
              "duration": 0.091667
            },
            {
              "pitch": 53,
              "velocity": 109,
              "position": 14.333333,
              "duration": 0.083333
            },
            {
              "pitch": 36,
              "velocity": 99,
              "position": 14.666667,
              "duration": 0.066667
            },
            {
              "pitch": 51,
              "velocity": 106,
              "position": 14.666667,
              "duration": 0.083333
            },
            {
              "pitch": 49,
              "velocity": 107,
              "position": 14.991667,
              "duration": 0.225
            },
            {
              "pitch": 38,
              "velocity": 108,
              "position": 15.0,
              "duration": 0.075
            },
            {
              "pitch": 38,
              "velocity": 28,
              "position": 15.275,
              "duration": 0.108333
            },
            {
              "pitch": 38,
              "velocity": 68,
              "position": 15.558333,
              "duration": 0.041667
            },
            {
              "pitch": 38,
              "velocity": 105,
              "position": 15.666667,
              "duration": 0.1
            }
          ]
        },
        "10": {
          "ctab": {
            "srcChannel": 10,
            "name": "Bass",
            "accType": "BASS",
            "editable": true,
            "mutedNotes": [],
            "mutedChords": [],
            "sourceChordNote": 0,
            "sourceChordType": "Maj7",
            "ctb2Main": {
              "ntr": "ROOT_TRANSPOSITION",
              "ntt": "BYPASS",
              "bassOn": true,
              "noteLowLimit": 20,
              "noteHighLimit": 60,
              "chordRootUpperLimit": 127,
              "rtr": "NOTE_GENERATOR"
            }
          },
          "notes": [
            {
              "pitch": 36,
              "velocity": 101,
              "position": 0.0,
              "duration": 0.875
            },
            {
              "pitch": 36,
              "velocity": 97,
              "position": 1.0,
              "duration": 0.225
            },
            {
              "pitch": 36,
              "velocity": 92,
              "position": 1.333333,
              "duration": 0.283333
            },
            {
              "pitch": 35,
              "velocity": 97,
              "position": 1.666667,
              "duration": 0.316667
            },
            {
              "pitch": 36,
              "velocity": 101,
              "position": 2.0,
              "duration": 0.875
            },
            {
              "pitch": 36,
              "velocity": 97,
              "position": 3.0,
              "duration": 0.225
            },
            {
              "pitch": 36,
              "velocity": 92,
              "position": 3.333333,
              "duration": 0.283333
            },
            {
              "pitch": 35,
              "velocity": 97,
              "position": 3.666667,
              "duration": 0.316667
            },
            {
              "pitch": 36,
              "velocity": 101,
              "position": 4.0,
              "duration": 0.875
            },
            {
              "pitch": 36,
              "velocity": 97,
              "position": 5.0,
              "duration": 0.225
            },
            {
              "pitch": 36,
              "velocity": 92,
              "position": 5.333333,
              "duration": 0.283333
            },
            {
              "pitch": 35,
              "velocity": 97,
              "position": 5.666667,
              "duration": 0.316667
            },
            {
              "pitch": 36,
              "velocity": 101,
              "position": 6.0,
              "duration": 0.875
            },
            {
              "pitch": 36,
              "velocity": 97,
              "position": 7.0,
              "duration": 0.225
            },
            {
              "pitch": 36,
              "velocity": 92,
              "position": 7.333333,
              "duration": 0.283333
            },
            {
              "pitch": 35,
              "velocity": 97,
              "position": 7.666667,
              "duration": 0.316667
            },
            {
              "pitch": 36,
              "velocity": 92,
              "position": 8.008333,
              "duration": 0.966667
            },
            {
              "pitch": 40,
              "velocity": 95,
              "position": 9.041667,
              "duration": 0.491667
            },
            {
              "pitch": 40,
              "velocity": 96,
              "position": 9.691667,
              "duration": 0.316667
            },
            {
              "pitch": 43,
              "velocity": 93,
              "position": 10.016667,
              "duration": 1.016667
            },
            {
              "pitch": 40,
              "velocity": 103,
              "position": 11.016667,
              "duration": 0.691667
            },
            {
              "pitch": 43,
              "velocity": 87,
              "position": 11.7,
              "duration": 0.341667
            },
            {
              "pitch": 36,
              "velocity": 94,
              "position": 12.025,
              "duration": 1.016667
            },
            {
              "pitch": 40,
              "velocity": 108,
              "position": 13.033333,
              "duration": 0.541667
            },
            {
              "pitch": 40,
              "velocity": 96,
              "position": 13.7,
              "duration": 0.333333
            },
            {
              "pitch": 43,
              "velocity": 97,
              "position": 14.033333,
              "duration": 1.016667
            },
            {
              "pitch": 36,
              "velocity": 97,
              "position": 15.008333,
              "duration": 0.541667
            },
            {
              "pitch": 36,
              "velocity": 100,
              "position": 15.666667,
              "duration": 0.333333
            }
          ]
        },
        "11": {
          "ctab": {
            "srcChannel": 11,
            "name": "Piano",
            "accType": "CHORD1",
            "editable": true,
            "mutedNotes": [],
            "mutedChords": [],
            "sourceChordNote": 0,
            "sourceChordType": "Maj7",
            "ctb2Main": {
              "ntr": "ROOT_FIXED",
              "ntt": "CHORD",
              "bassOn": false,
              "noteLowLimit": 48,
              "noteHighLimit": 84,
              "chordRootUpperLimit": 127,
              "rtr": "NOTE_GENERATOR"
            }
          },
          "notes": [
            {
              "pitch": 74,
              "velocity": 73,
              "position": 0.025,
              "duration": 0.083333
            },
            {
              "pitch": 76,
              "velocity": 77,
              "position": 0.025,
              "duration": 0.1
            },
            {
              "pitch": 79,
              "velocity": 77,
              "position": 0.025,
              "duration": 0.108333
            },
            {
              "pitch": 83,
              "velocity": 70,
              "position": 0.025,
              "duration": 0.083333
            },
            {
              "pitch": 76,
              "velocity": 66,
              "position": 0.35,
              "duration": 0.108333
            },
            {
              "pitch": 74,
              "velocity": 57,
              "position": 0.358333,
              "duration": 0.091667
            },
            {
              "pitch": 79,
              "velocity": 71,
              "position": 0.358333,
              "duration": 0.108333
            },
            {
              "pitch": 83,
              "velocity": 52,
              "position": 0.358333,
              "duration": 0.083333
            },
            {
              "pitch": 74,
              "velocity": 69,
              "position": 0.675,
              "duration": 0.091667
            },
            {
              "pitch": 76,
              "velocity": 80,
              "position": 0.675,
              "duration": 0.125
            },
            {
              "pitch": 79,
              "velocity": 79,
              "position": 0.675,
              "duration": 0.108333
            },
            {
              "pitch": 83,
              "velocity": 66,
              "position": 0.675,
              "duration": 0.108333
            },
            {
              "pitch": 74,
              "velocity": 91,
              "position": 1.016667,
              "duration": 0.075
            },
            {
              "pitch": 76,
              "velocity": 85,
              "position": 1.016667,
              "duration": 0.108333
            },
            {
              "pitch": 79,
              "velocity": 85,
              "position": 1.016667,
              "duration": 0.125
            },
            {
              "pitch": 83,
              "velocity": 76,
              "position": 1.016667,
              "duration": 0.108333
            },
            {
              "pitch": 76,
              "velocity": 77,
              "position": 1.35,
              "duration": 0.091667
            },
            {
              "pitch": 79,
              "velocity": 73,
              "position": 1.35,
              "duration": 0.1
            },
            {
              "pitch": 83,
              "velocity": 53,
              "position": 1.35,
              "duration": 0.091667
            },
            {
              "pitch": 74,
              "velocity": 56,
              "position": 1.358333,
              "duration": 0.041667
            },
            {
              "pitch": 79,
              "velocity": 71,
              "position": 1.666667,
              "duration": 0.116667
            },
            {
              "pitch": 74,
              "velocity": 63,
              "position": 1.675,
              "duration": 0.083333
            },
            {
              "pitch": 76,
              "velocity": 76,
              "position": 1.675,
              "duration": 0.116667
            },
            {
              "pitch": 83,
              "velocity": 54,
              "position": 1.675,
              "duration": 0.091667
            },
            {
              "pitch": 74,
              "velocity": 73,
              "position": 2.025,
              "duration": 0.083333
            },
            {
              "pitch": 76,
              "velocity": 77,
              "position": 2.025,
              "duration": 0.1
            },
            {
              "pitch": 79,
              "velocity": 77,
              "position": 2.025,
              "duration": 0.108333
            },
            {
              "pitch": 83,
              "velocity": 70,
              "position": 2.025,
              "duration": 0.083333
            },
            {
              "pitch": 76,
              "velocity": 66,
              "position": 2.35,
              "duration": 0.108333
            },
            {
              "pitch": 74,
              "velocity": 57,
              "position": 2.358333,
              "duration": 0.091667
            },
            {
              "pitch": 79,
              "velocity": 71,
              "position": 2.358333,
              "duration": 0.108333
            },
            {
              "pitch": 83,
              "velocity": 52,
              "position": 2.358333,
              "duration": 0.083333
            },
            {
              "pitch": 74,
              "velocity": 69,
              "position": 2.675,
              "duration": 0.091667
            },
            {
              "pitch": 76,
              "velocity": 80,
              "position": 2.675,
              "duration": 0.125
            },
            {
              "pitch": 79,
              "velocity": 79,
              "position": 2.675,
              "duration": 0.108333
            },
            {
              "pitch": 83,
              "velocity": 66,
              "position": 2.675,
              "duration": 0.108333
            },
            {
              "pitch": 74,
              "velocity": 91,
              "position": 3.016667,
              "duration": 0.075
            },
            {
              "pitch": 76,
              "velocity": 85,
              "position": 3.016667,
              "duration": 0.108333
            },
            {
              "pitch": 79,
              "velocity": 85,
              "position": 3.016667,
              "duration": 0.125
            },
            {
              "pitch": 83,
              "velocity": 76,
              "position": 3.016667,
              "duration": 0.108333
            },
            {
              "pitch": 76,
              "velocity": 77,
              "position": 3.35,
              "duration": 0.091667
            },
            {
              "pitch": 79,
              "velocity": 73,
              "position": 3.35,
              "duration": 0.1
            },
            {
              "pitch": 83,
              "velocity": 53,
              "position": 3.35,
              "duration": 0.091667
            },
            {
              "pitch": 74,
              "velocity": 56,
              "position": 3.358333,
              "duration": 0.041667
            },
            {
              "pitch": 79,
              "velocity": 71,
              "position": 3.666667,
              "duration": 0.116667
            },
            {
              "pitch": 74,
              "velocity": 63,
              "position": 3.675,
              "duration": 0.083333
            },
            {
              "pitch": 76,
              "velocity": 76,
              "position": 3.675,
              "duration": 0.116667
            },
            {
              "pitch": 83,
              "velocity": 54,
              "position": 3.675,
              "duration": 0.091667
            },
            {
              "pitch": 74,
              "velocity": 73,
              "position": 4.025,
              "duration": 0.083333
            },
            {
              "pitch": 76,
              "velocity": 77,
              "position": 4.025,
              "duration": 0.1
            },
            {
              "pitch": 79,
              "velocity": 77,
              "position": 4.025,
              "duration": 0.108333
            },
            {
              "pitch": 83,
              "velocity": 70,
              "position": 4.025,
              "duration": 0.083333
            },
            {
              "pitch": 76,
              "velocity": 66,
              "position": 4.35,
              "duration": 0.108333
            },
            {
              "pitch": 74,
              "velocity": 57,
              "position": 4.358333,
              "duration": 0.091667
            },
            {
              "pitch": 79,
              "velocity": 71,
              "position": 4.358333,
              "duration": 0.108333
            },
            {
              "pitch": 83,
              "velocity": 52,
              "position": 4.358333,
              "duration": 0.083333
            },
            {
              "pitch": 74,
              "velocity": 69,
              "position": 4.675,
              "duration": 0.091667
            },
            {
              "pitch": 76,
              "velocity": 80,
              "position": 4.675,
              "duration": 0.125
            },
            {
              "pitch": 79,
              "velocity": 79,
              "position": 4.675,
              "duration": 0.108333
            },
            {
              "pitch": 83,
              "velocity": 66,
              "position": 4.675,
              "duration": 0.108333
            },
            {
              "pitch": 74,
              "velocity": 91,
              "position": 5.016667,
              "duration": 0.075
            },
            {
              "pitch": 76,
              "velocity": 85,
              "position": 5.016667,
              "duration": 0.108333
            },
            {
              "pitch": 79,
              "velocity": 85,
              "position": 5.016667,
              "duration": 0.125
            },
            {
              "pitch": 83,
              "velocity": 76,
              "position": 5.016667,
              "duration": 0.108333
            },
            {
              "pitch": 76,
              "velocity": 77,
              "position": 5.35,
              "duration": 0.091667
            },
            {
              "pitch": 79,
              "velocity": 73,
              "position": 5.35,
              "duration": 0.1
            },
            {
              "pitch": 83,
              "velocity": 53,
              "position": 5.35,
              "duration": 0.091667
            },
            {
              "pitch": 74,
              "velocity": 56,
              "position": 5.358333,
              "duration": 0.041667
            },
            {
              "pitch": 79,
              "velocity": 71,
              "position": 5.666667,
              "duration": 0.116667
            },
            {
              "pitch": 74,
              "velocity": 63,
              "position": 5.675,
              "duration": 0.083333
            },
            {
              "pitch": 76,
              "velocity": 76,
              "position": 5.675,
              "duration": 0.116667
            },
            {
              "pitch": 83,
              "velocity": 54,
              "position": 5.675,
              "duration": 0.091667
            },
            {
              "pitch": 74,
              "velocity": 73,
              "position": 6.025,
              "duration": 0.083333
            },
            {
              "pitch": 76,
              "velocity": 77,
              "position": 6.025,
              "duration": 0.1
            },
            {
              "pitch": 79,
              "velocity": 77,
              "position": 6.025,
              "duration": 0.108333
            },
            {
              "pitch": 83,
              "velocity": 70,
              "position": 6.025,
              "duration": 0.083333
            },
            {
              "pitch": 76,
              "velocity": 66,
              "position": 6.35,
              "duration": 0.108333
            },
            {
              "pitch": 74,
              "velocity": 57,
              "position": 6.358333,
              "duration": 0.091667
            },
            {
              "pitch": 79,
              "velocity": 71,
              "position": 6.358333,
              "duration": 0.108333
            },
            {
              "pitch": 83,
              "velocity": 52,
              "position": 6.358333,
              "duration": 0.083333
            },
            {
              "pitch": 74,
              "velocity": 69,
              "position": 6.675,
              "duration": 0.091667
            },
            {
              "pitch": 76,
              "velocity": 80,
              "position": 6.675,
              "duration": 0.125
            },
            {
              "pitch": 79,
              "velocity": 79,
              "position": 6.675,
              "duration": 0.108333
            },
            {
              "pitch": 83,
              "velocity": 66,
              "position": 6.675,
              "duration": 0.108333
            },
            {
              "pitch": 74,
              "velocity": 91,
              "position": 7.016667,
              "duration": 0.075
            },
            {
              "pitch": 76,
              "velocity": 85,
              "position": 7.016667,
              "duration": 0.108333
            },
            {
              "pitch": 79,
              "velocity": 85,
              "position": 7.016667,
              "duration": 0.125
            },
            {
              "pitch": 83,
              "velocity": 76,
              "position": 7.016667,
              "duration": 0.108333
            },
            {
              "pitch": 76,
              "velocity": 77,
              "position": 7.35,
              "duration": 0.091667
            },
            {
              "pitch": 79,
              "velocity": 73,
              "position": 7.35,
              "duration": 0.1
            },
            {
              "pitch": 83,
              "velocity": 53,
              "position": 7.35,
              "duration": 0.091667
            },
            {
              "pitch": 74,
              "velocity": 56,
              "position": 7.358333,
              "duration": 0.041667
            },
            {
              "pitch": 79,
              "velocity": 71,
              "position": 7.666667,
              "duration": 0.116667
            },
            {
              "pitch": 74,
              "velocity": 63,
              "position": 7.675,
              "duration": 0.083333
            },
            {
              "pitch": 76,
              "velocity": 76,
              "position": 7.675,
              "duration": 0.116667
            },
            {
              "pitch": 83,
              "velocity": 54,
              "position": 7.675,
              "duration": 0.091667
            },
            {
              "pitch": 74,
              "velocity": 73,
              "position": 8.025,
              "duration": 0.083333
            },
            {
              "pitch": 76,
              "velocity": 77,
              "position": 8.025,
              "duration": 0.1
            },
            {
              "pitch": 79,
              "velocity": 77,
              "position": 8.025,
              "duration": 0.108333
            },
            {
              "pitch": 83,
              "velocity": 70,
              "position": 8.025,
              "duration": 0.083333
            },
            {
              "pitch": 76,
              "velocity": 66,
              "position": 8.35,
              "duration": 0.108333
            },
            {
              "pitch": 74,
              "velocity": 57,
              "position": 8.358333,
              "duration": 0.091667
            },
            {
              "pitch": 79,
              "velocity": 71,
              "position": 8.358333,
              "duration": 0.108333
            },
            {
              "pitch": 83,
              "velocity": 52,
              "position": 8.358333,
              "duration": 0.083333
            },
            {
              "pitch": 74,
              "velocity": 69,
              "position": 8.675,
              "duration": 0.091667
            },
            {
              "pitch": 76,
              "velocity": 80,
              "position": 8.675,
              "duration": 0.125
            },
            {
              "pitch": 79,
              "velocity": 79,
              "position": 8.675,
              "duration": 0.108333
            },
            {
              "pitch": 83,
              "velocity": 66,
              "position": 8.675,
              "duration": 0.108333
            },
            {
              "pitch": 74,
              "velocity": 91,
              "position": 9.016667,
              "duration": 0.075
            },
            {
              "pitch": 76,
              "velocity": 85,
              "position": 9.016667,
              "duration": 0.108333
            },
            {
              "pitch": 79,
              "velocity": 85,
              "position": 9.016667,
              "duration": 0.125
            },
            {
              "pitch": 83,
              "velocity": 76,
              "position": 9.016667,
              "duration": 0.108333
            },
            {
              "pitch": 76,
              "velocity": 77,
              "position": 9.35,
              "duration": 0.091667
            },
            {
              "pitch": 79,
              "velocity": 73,
              "position": 9.35,
              "duration": 0.1
            },
            {
              "pitch": 83,
              "velocity": 53,
              "position": 9.35,
              "duration": 0.091667
            },
            {
              "pitch": 74,
              "velocity": 56,
              "position": 9.358333,
              "duration": 0.041667
            },
            {
              "pitch": 79,
              "velocity": 71,
              "position": 9.666667,
              "duration": 0.116667
            },
            {
              "pitch": 74,
              "velocity": 63,
              "position": 9.675,
              "duration": 0.083333
            },
            {
              "pitch": 76,
              "velocity": 76,
              "position": 9.675,
              "duration": 0.116667
            },
            {
              "pitch": 83,
              "velocity": 54,
              "position": 9.675,
              "duration": 0.091667
            },
            {
              "pitch": 76,
              "velocity": 83,
              "position": 9.991667,
              "duration": 0.15
            },
            {
              "pitch": 79,
              "velocity": 86,
              "position": 9.991667,
              "duration": 0.133333
            },
            {
              "pitch": 83,
              "velocity": 80,
              "position": 9.991667,
              "duration": 0.116667
            },
            {
              "pitch": 74,
              "velocity": 85,
              "position": 10.008333,
              "duration": 0.083333
            },
            {
              "pitch": 74,
              "velocity": 62,
              "position": 10.35,
              "duration": 0.083333
            },
            {
              "pitch": 76,
              "velocity": 74,
              "position": 10.35,
              "duration": 0.1
            },
            {
              "pitch": 79,
              "velocity": 67,
              "position": 10.35,
              "duration": 0.108333
            },
            {
              "pitch": 83,
              "velocity": 50,
              "position": 10.35,
              "duration": 0.083333
            },
            {
              "pitch": 74,
              "velocity": 69,
              "position": 10.666667,
              "duration": 0.1
            },
            {
              "pitch": 76,
              "velocity": 75,
              "position": 10.675,
              "duration": 0.125
            },
            {
              "pitch": 79,
              "velocity": 72,
              "position": 10.675,
              "duration": 0.116667
            },
            {
              "pitch": 83,
              "velocity": 50,
              "position": 10.675,
              "duration": 0.1
            },
            {
              "pitch": 74,
              "velocity": 99,
              "position": 11.008333,
              "duration": 0.091667
            },
            {
              "pitch": 76,
              "velocity": 90,
              "position": 11.008333,
              "duration": 0.133333
            },
            {
              "pitch": 79,
              "velocity": 87,
              "position": 11.008333,
              "duration": 0.125
            },
            {
              "pitch": 83,
              "velocity": 84,
              "position": 11.008333,
              "duration": 0.108333
            },
            {
              "pitch": 74,
              "velocity": 61,
              "position": 11.341667,
              "duration": 0.083333
            },
            {
              "pitch": 76,
              "velocity": 78,
              "position": 11.341667,
              "duration": 0.1
            },
            {
              "pitch": 79,
              "velocity": 72,
              "position": 11.341667,
              "duration": 0.108333
            },
            {
              "pitch": 83,
              "velocity": 55,
              "position": 11.341667,
              "duration": 0.108333
            },
            {
              "pitch": 83,
              "velocity": 46,
              "position": 11.675,
              "duration": 0.1
            },
            {
              "pitch": 74,
              "velocity": 63,
              "position": 11.683333,
              "duration": 0.075
            },
            {
              "pitch": 76,
              "velocity": 73,
              "position": 11.683333,
              "duration": 0.1
            },
            {
              "pitch": 79,
              "velocity": 70,
              "position": 11.683333,
              "duration": 0.1
            },
            {
              "pitch": 74,
              "velocity": 88,
              "position": 11.991667,
              "duration": 0.1
            },
            {
              "pitch": 76,
              "velocity": 81,
              "position": 11.991667,
              "duration": 0.133333
            },
            {
              "pitch": 79,
              "velocity": 85,
              "position": 11.991667,
              "duration": 0.133333
            },
            {
              "pitch": 83,
              "velocity": 81,
              "position": 11.991667,
              "duration": 0.108333
            },
            {
              "pitch": 76,
              "velocity": 67,
              "position": 12.333333,
              "duration": 0.116667
            },
            {
              "pitch": 74,
              "velocity": 53,
              "position": 12.341667,
              "duration": 0.083333
            },
            {
              "pitch": 79,
              "velocity": 60,
              "position": 12.341667,
              "duration": 0.116667
            },
            {
              "pitch": 83,
              "velocity": 46,
              "position": 12.341667,
              "duration": 0.108333
            },
            {
              "pitch": 74,
              "velocity": 66,
              "position": 12.675,
              "duration": 0.1
            },
            {
              "pitch": 83,
              "velocity": 51,
              "position": 12.675,
              "duration": 0.108333
            },
            {
              "pitch": 76,
              "velocity": 75,
              "position": 12.683333,
              "duration": 0.1
            },
            {
              "pitch": 79,
              "velocity": 69,
              "position": 12.683333,
              "duration": 0.108333
            },
            {
              "pitch": 74,
              "velocity": 92,
              "position": 13.016667,
              "duration": 0.116667
            },
            {
              "pitch": 76,
              "velocity": 88,
              "position": 13.016667,
              "duration": 0.15
            },
            {
              "pitch": 79,
              "velocity": 87,
              "position": 13.016667,
              "duration": 0.141667
            },
            {
              "pitch": 83,
              "velocity": 79,
              "position": 13.016667,
              "duration": 0.141667
            },
            {
              "pitch": 83,
              "velocity": 47,
              "position": 13.341667,
              "duration": 0.108333
            },
            {
              "pitch": 74,
              "velocity": 54,
              "position": 13.35,
              "duration": 0.05
            },
            {
              "pitch": 76,
              "velocity": 69,
              "position": 13.35,
              "duration": 0.1
            },
            {
              "pitch": 79,
              "velocity": 63,
              "position": 13.35,
              "duration": 0.1
            },
            {
              "pitch": 74,
              "velocity": 65,
              "position": 13.683333,
              "duration": 0.1
            },
            {
              "pitch": 76,
              "velocity": 72,
              "position": 13.683333,
              "duration": 0.116667
            },
            {
              "pitch": 79,
              "velocity": 67,
              "position": 13.683333,
              "duration": 0.108333
            },
            {
              "pitch": 83,
              "velocity": 48,
              "position": 13.683333,
              "duration": 0.091667
            },
            {
              "pitch": 74,
              "velocity": 92,
              "position": 14.016667,
              "duration": 0.1
            },
            {
              "pitch": 76,
              "velocity": 87,
              "position": 14.016667,
              "duration": 0.116667
            },
            {
              "pitch": 79,
              "velocity": 87,
              "position": 14.016667,
              "duration": 0.125
            },
            {
              "pitch": 83,
              "velocity": 86,
              "position": 14.016667,
              "duration": 0.108333
            },
            {
              "pitch": 74,
              "velocity": 52,
              "position": 14.35,
              "duration": 0.091667
            },
            {
              "pitch": 76,
              "velocity": 62,
              "position": 14.35,
              "duration": 0.116667
            },
            {
              "pitch": 79,
              "velocity": 62,
              "position": 14.35,
              "duration": 0.116667
            },
            {
              "pitch": 83,
              "velocity": 40,
              "position": 14.358333,
              "duration": 0.108333
            },
            {
              "pitch": 74,
              "velocity": 65,
              "position": 14.683333,
              "duration": 0.091667
            },
            {
              "pitch": 76,
              "velocity": 74,
              "position": 14.683333,
              "duration": 0.108333
            },
            {
              "pitch": 79,
              "velocity": 70,
              "position": 14.683333,
              "duration": 0.108333
            },
            {
              "pitch": 83,
              "velocity": 49,
              "position": 14.683333,
              "duration": 0.1
            },
            {
              "pitch": 74,
              "velocity": 83,
              "position": 15.008333,
              "duration": 0.1
            },
            {
              "pitch": 76,
              "velocity": 83,
              "position": 15.008333,
              "duration": 0.133333
            },
            {
              "pitch": 79,
              "velocity": 81,
              "position": 15.008333,
              "duration": 0.133333
            },
            {
              "pitch": 83,
              "velocity": 76,
              "position": 15.008333,
              "duration": 0.116667
            },
            {
              "pitch": 74,
              "velocity": 64,
              "position": 15.35,
              "duration": 0.075
            },
            {
              "pitch": 76,
              "velocity": 74,
              "position": 15.35,
              "duration": 0.1
            },
            {
              "pitch": 79,
              "velocity": 69,
              "position": 15.35,
              "duration": 0.1
            },
            {
              "pitch": 83,
              "velocity": 48,
              "position": 15.358333,
              "duration": 0.066667
            },
            {
              "pitch": 74,
              "velocity": 73,
              "position": 15.675,
              "duration": 0.325
            },
            {
              "pitch": 76,
              "velocity": 74,
              "position": 15.683333,
              "duration": 0.316667
            },
            {
              "pitch": 79,
              "velocity": 71,
              "position": 15.683333,
              "duration": 0.116667
            },
            {
              "pitch": 83,
              "velocity": 55,
              "position": 15.683333,
              "duration": 0.125
            }
          ]
        },
        "12": {
          "ctab": {
            "srcChannel": 12,
            "name": "Guitar",
            "accType": "CHORD2",
            "editable": true,
            "mutedNotes": [],
            "mutedChords": [],
            "sourceChordNote": 0,
            "sourceChordType": "Maj7",
            "ctb2Main": {
              "ntr": "ROOT_FIXED",
              "ntt": "CHORD",
              "bassOn": false,
              "noteLowLimit": 40,
              "noteHighLimit": 76,
              "chordRootUpperLimit": 127,
              "rtr": "NOTE_GENERATOR"
            }
          },
          "notes": [
            {
              "pitch": 59,
              "velocity": 68,
              "position": 0.008333,
              "duration": 1.983333
            },
            {
              "pitch": 64,
              "velocity": 68,
              "position": 0.025,
              "duration": 1.966667
            },
            {
              "pitch": 67,
              "velocity": 68,
              "position": 0.05,
              "duration": 1.941667
            },
            {
              "pitch": 43,
              "velocity": 54,
              "position": 1.966667,
              "duration": 2.025
            },
            {
              "pitch": 52,
              "velocity": 68,
              "position": 1.983333,
              "duration": 2.008333
            },
            {
              "pitch": 55,
              "velocity": 68,
              "position": 2.008333,
              "duration": 1.983333
            },
            {
              "pitch": 59,
              "velocity": 68,
              "position": 2.025,
              "duration": 1.966667
            },
            {
              "pitch": 64,
              "velocity": 68,
              "position": 2.05,
              "duration": 1.941667
            },
            {
              "pitch": 48,
              "velocity": 50,
              "position": 4.0,
              "duration": 1.375
            },
            {
              "pitch": 55,
              "velocity": 70,
              "position": 4.066667,
              "duration": 1.308333
            },
            {
              "pitch": 59,
              "velocity": 58,
              "position": 4.166667,
              "duration": 1.208333
            },
            {
              "pitch": 64,
              "velocity": 68,
              "position": 4.25,
              "duration": 1.125
            },
            {
              "pitch": 67,
              "velocity": 66,
              "position": 4.366667,
              "duration": 1.008333
            },
            {
              "pitch": 43,
              "velocity": 54,
              "position": 5.616667,
              "duration": 1.341667
            },
            {
              "pitch": 48,
              "velocity": 57,
              "position": 5.633333,
              "duration": 1.325
            },
            {
              "pitch": 52,
              "velocity": 68,
              "position": 5.65,
              "duration": 1.308333
            },
            {
              "pitch": 55,
              "velocity": 68,
              "position": 5.666667,
              "duration": 1.291667
            },
            {
              "pitch": 59,
              "velocity": 68,
              "position": 5.683333,
              "duration": 1.275
            },
            {
              "pitch": 64,
              "velocity": 68,
              "position": 5.7,
              "duration": 1.258333
            },
            {
              "pitch": 43,
              "velocity": 52,
              "position": 7.016667,
              "duration": 0.275
            },
            {
              "pitch": 48,
              "velocity": 56,
              "position": 7.016667,
              "duration": 0.275
            },
            {
              "pitch": 52,
              "velocity": 66,
              "position": 7.016667,
              "duration": 0.275
            },
            {
              "pitch": 55,
              "velocity": 66,
              "position": 7.016667,
              "duration": 0.275
            },
            {
              "pitch": 59,
              "velocity": 66,
              "position": 7.016667,
              "duration": 0.275
            },
            {
              "pitch": 64,
              "velocity": 66,
              "position": 7.016667,
              "duration": 0.275
            },
            {
              "pitch": 43,
              "velocity": 47,
              "position": 8.0,
              "duration": 6.941667
            },
            {
              "pitch": 52,
              "velocity": 61,
              "position": 8.025,
              "duration": 6.858333
            },
            {
              "pitch": 55,
              "velocity": 63,
              "position": 8.341667,
              "duration": 6.2
            },
            {
              "pitch": 59,
              "velocity": 70,
              "position": 8.675,
              "duration": 6.066667
            },
            {
              "pitch": 64,
              "velocity": 79,
              "position": 9.008333,
              "duration": 5.65
            },
            {
              "pitch": 43,
              "velocity": 60,
              "position": 15.0,
              "duration": 0.158333
            },
            {
              "pitch": 48,
              "velocity": 63,
              "position": 15.0,
              "duration": 0.158333
            },
            {
              "pitch": 52,
              "velocity": 75,
              "position": 15.0,
              "duration": 0.158333
            },
            {
              "pitch": 55,
              "velocity": 75,
              "position": 15.0,
              "duration": 0.158333
            },
            {
              "pitch": 59,
              "velocity": 75,
              "position": 15.0,
              "duration": 0.158333
            },
            {
              "pitch": 64,
              "velocity": 75,
              "position": 15.0,
              "duration": 0.158333
            }
          ]
        },
        "13": {
          "ctab": {
            "srcChannel": 13,
            "name": "Strings",
            "accType": "PAD",
            "editable": true,
            "mutedNotes": [],
            "mutedChords": [],
            "sourceChordNote": 0,
            "sourceChordType": "Maj7",
            "ctb2Main": {
              "ntr": "ROOT_FIXED",
              "ntt": "MELODY",
              "bassOn": false,
              "noteLowLimit": 36,
              "noteHighLimit": 96,
              "chordRootUpperLimit": 127,
              "rtr": "PITCH_SHIFT"
            }
          },
          "notes": []
        }
      }
    },
    "Main_D": {
      "type": "Main_D",
      "sizeInBeats": 16,
      "channels": {
        "9": {
          "ctab": {
            "srcChannel": 9,
            "name": "Drums",
            "accType": "RHYTHM",
            "editable": false,
            "mutedNotes": [],
            "mutedChords": [],
            "sourceChordNote": 0,
            "sourceChordType": "Maj",
            "ctb2Main": {
              "ntr": "ROOT_FIXED",
              "ntt": "BYPASS",
              "bassOn": false,
              "noteLowLimit": 20,
              "noteHighLimit": 127,
              "chordRootUpperLimit": 127,
              "rtr": "RETRIGGER"
            }
          },
          "notes": [
            {
              "pitch": 36,
              "velocity": 103,
              "position": 0.0,
              "duration": 0.4
            },
            {
              "pitch": 57,
              "velocity": 127,
              "position": 0.0,
              "duration": 0.05
            },
            {
              "pitch": 51,
              "velocity": 82,
              "position": 0.333333,
              "duration": 0.066667
            },
            {
              "pitch": 36,
              "velocity": 41,
              "position": 0.666667,
              "duration": 0.358333
            },
            {
              "pitch": 51,
              "velocity": 78,
              "position": 0.666667,
              "duration": 0.066667
            },
            {
              "pitch": 38,
              "velocity": 113,
              "position": 1.0,
              "duration": 0.208333
            },
            {
              "pitch": 51,
              "velocity": 114,
              "position": 1.0,
              "duration": 0.091667
            },
            {
              "pitch": 51,
              "velocity": 76,
              "position": 1.333333,
              "duration": 0.075
            },
            {
              "pitch": 36,
              "velocity": 57,
              "position": 1.666667,
              "duration": 0.075
            },
            {
              "pitch": 51,
              "velocity": 83,
              "position": 1.666667,
              "duration": 0.083333
            },
            {
              "pitch": 36,
              "velocity": 92,
              "position": 2.0,
              "duration": 0.191667
            },
            {
              "pitch": 51,
              "velocity": 110,
              "position": 2.0,
              "duration": 0.108333
            },
            {
              "pitch": 51,
              "velocity": 80,
              "position": 2.333333,
              "duration": 0.075
            },
            {
              "pitch": 36,
              "velocity": 79,
              "position": 2.666667,
              "duration": 0.4
            },
            {
              "pitch": 51,
              "velocity": 86,
              "position": 2.666667,
              "duration": 0.075
            },
            {
              "pitch": 38,
              "velocity": 125,
              "position": 3.0,
              "duration": 0.183333
            },
            {
              "pitch": 51,
              "velocity": 114,
              "position": 3.0,
              "duration": 0.066667
            },
            {
              "pitch": 36,
              "velocity": 65,
              "position": 3.333333,
              "duration": 0.058333
            },
            {
              "pitch": 51,
              "velocity": 96,
              "position": 3.333333,
              "duration": 0.066667
            },
            {
              "pitch": 51,
              "velocity": 83,
              "position": 3.566667,
              "duration": 0.05
            },
            {
              "pitch": 36,
              "velocity": 64,
              "position": 3.666667,
              "duration": 0.066667
            },
            {
              "pitch": 38,
              "velocity": 61,
              "position": 3.666667,
              "duration": 0.075
            },
            {
              "pitch": 51,
              "velocity": 91,
              "position": 3.666667,
              "duration": 0.075
            },
            {
              "pitch": 36,
              "velocity": 87,
              "position": 4.0,
              "duration": 0.425
            },
            {
              "pitch": 51,
              "velocity": 73,
              "position": 4.0,
              "duration": 0.083333
            },
            {
              "pitch": 51,
              "velocity": 73,
              "position": 4.333333,
              "duration": 0.058333
            },
            {
              "pitch": 51,
              "velocity": 68,
              "position": 4.566667,
              "duration": 0.025
            },
            {
              "pitch": 36,
              "velocity": 73,
              "position": 4.666667,
              "duration": 0.425
            },
            {
              "pitch": 51,
              "velocity": 78,
              "position": 4.666667,
              "duration": 0.066667
            },
            {
              "pitch": 38,
              "velocity": 108,
              "position": 5.0,
              "duration": 0.55
            },
            {
              "pitch": 51,
              "velocity": 107,
              "position": 5.0,
              "duration": 0.133333
            },
            {
              "pitch": 51,
              "velocity": 77,
              "position": 5.333333,
              "duration": 0.075
            },
            {
              "pitch": 36,
              "velocity": 53,
              "position": 5.666667,
              "duration": 0.1
            },
            {
              "pitch": 51,
              "velocity": 86,
              "position": 5.666667,
              "duration": 0.075
            },
            {
              "pitch": 36,
              "velocity": 85,
              "position": 6.0,
              "duration": 0.341667
            },
            {
              "pitch": 51,
              "velocity": 103,
              "position": 6.0,
              "duration": 0.1
            },
            {
              "pitch": 51,
              "velocity": 70,
              "position": 6.333333,
              "duration": 0.066667
            },
            {
              "pitch": 51,
              "velocity": 85,
              "position": 6.566667,
              "duration": 0.05
            },
            {
              "pitch": 36,
              "velocity": 66,
              "position": 6.666667,
              "duration": 0.425
            },
            {
              "pitch": 51,
              "velocity": 82,
              "position": 6.666667,
              "duration": 0.058333
            },
            {
              "pitch": 38,
              "velocity": 125,
              "position": 7.0,
              "duration": 0.158333
            },
            {
              "pitch": 51,
              "velocity": 114,
              "position": 7.0,
              "duration": 0.133333
            },
            {
              "pitch": 38,
              "velocity": 24,
              "position": 7.333333,
              "duration": 0.108333
            },
            {
              "pitch": 51,
              "velocity": 73,
              "position": 7.333333,
              "duration": 0.075
            },
            {
              "pitch": 36,
              "velocity": 72,
              "position": 7.666667,
              "duration": 0.266667
            },
            {
              "pitch": 51,
              "velocity": 91,
              "position": 7.666667,
              "duration": 0.066667
            },
            {
              "pitch": 36,
              "velocity": 87,
              "position": 8.0,
              "duration": 0.425
            },
            {
              "pitch": 51,
              "velocity": 73,
              "position": 8.0,
              "duration": 0.083333
            },
            {
              "pitch": 51,
              "velocity": 73,
              "position": 8.333333,
              "duration": 0.058333
            },
            {
              "pitch": 51,
              "velocity": 68,
              "position": 8.566667,
              "duration": 0.025
            },
            {
              "pitch": 36,
              "velocity": 73,
              "position": 8.666667,
              "duration": 0.425
            },
            {
              "pitch": 51,
              "velocity": 78,
              "position": 8.666667,
              "duration": 0.066667
            },
            {
              "pitch": 38,
              "velocity": 108,
              "position": 9.0,
              "duration": 0.55
            },
            {
              "pitch": 51,
              "velocity": 107,
              "position": 9.0,
              "duration": 0.133333
            },
            {
              "pitch": 51,
              "velocity": 77,
              "position": 9.333333,
              "duration": 0.075
            },
            {
              "pitch": 36,
              "velocity": 53,
              "position": 9.666667,
              "duration": 0.1
            },
            {
              "pitch": 51,
              "velocity": 86,
              "position": 9.666667,
              "duration": 0.075
            },
            {
              "pitch": 36,
              "velocity": 85,
              "position": 10.0,
              "duration": 0.341667
            },
            {
              "pitch": 51,
              "velocity": 103,
              "position": 10.0,
              "duration": 0.1
            },
            {
              "pitch": 51,
              "velocity": 70,
              "position": 10.333333,
              "duration": 0.066667
            },
            {
              "pitch": 51,
              "velocity": 85,
              "position": 10.566667,
              "duration": 0.05
            },
            {
              "pitch": 36,
              "velocity": 66,
              "position": 10.666667,
              "duration": 0.425
            },
            {
              "pitch": 51,
              "velocity": 82,
              "position": 10.666667,
              "duration": 0.058333
            },
            {
              "pitch": 38,
              "velocity": 125,
              "position": 11.0,
              "duration": 0.158333
            },
            {
              "pitch": 51,
              "velocity": 114,
              "position": 11.0,
              "duration": 0.133333
            },
            {
              "pitch": 38,
              "velocity": 24,
              "position": 11.333333,
              "duration": 0.108333
            },
            {
              "pitch": 51,
              "velocity": 73,
              "position": 11.333333,
              "duration": 0.075
            },
            {
              "pitch": 36,
              "velocity": 72,
              "position": 11.666667,
              "duration": 0.266667
            },
            {
              "pitch": 51,
              "velocity": 91,
              "position": 11.666667,
              "duration": 0.066667
            },
            {
              "pitch": 36,
              "velocity": 103,
              "position": 12.0,
              "duration": 0.475
            },
            {
              "pitch": 51,
              "velocity": 97,
              "position": 12.0,
              "duration": 0.133333
            },
            {
              "pitch": 51,
              "velocity": 73,
              "position": 12.333333,
              "duration": 0.091667
            },
            {
              "pitch": 51,
              "velocity": 71,
              "position": 12.575,
              "duration": 0.108333
            },
            {
              "pitch": 36,
              "velocity": 89,
              "position": 12.666667,
              "duration": 0.066667
            },
            {
              "pitch": 38,
              "velocity": 115,
              "position": 13.0,
              "duration": 0.358333
            },
            {
              "pitch": 51,
              "velocity": 105,
              "position": 13.0,
              "duration": 0.091667
            },
            {
              "pitch": 51,
              "velocity": 77,
              "position": 13.333333,
              "duration": 0.091667
            },
            {
              "pitch": 38,
              "velocity": 99,
              "position": 13.666667,
              "duration": 0.091667
            },
            {
              "pitch": 51,
              "velocity": 94,
              "position": 13.666667,
              "duration": 0.091667
            },
            {
              "pitch": 36,
              "velocity": 108,
              "position": 14.0,
              "duration": 0.175
            },
            {
              "pitch": 51,
              "velocity": 96,
              "position": 14.0,
              "duration": 0.1
            },
            {
              "pitch": 38,
              "velocity": 90,
              "position": 14.333333,
              "duration": 0.066667
            },
            {
              "pitch": 51,
              "velocity": 82,
              "position": 14.333333,
              "duration": 0.075
            },
            {
              "pitch": 36,
              "velocity": 101,
              "position": 14.666667,
              "duration": 0.075
            },
            {
              "pitch": 51,
              "velocity": 91,
              "position": 14.666667,
              "duration": 0.075
            },
            {
              "pitch": 36,
              "velocity": 101,
              "position": 15.0,
              "duration": 0.1
            },
            {
              "pitch": 38,
              "velocity": 105,
              "position": 15.0,
              "duration": 0.175
            },
            {
              "pitch": 51,
              "velocity": 101,
              "position": 15.0,
              "duration": 0.175
            },
            {
              "pitch": 38,
              "velocity": 39,
              "position": 15.241667,
              "duration": 0.091667
            },
            {
              "pitch": 36,
              "velocity": 85,
              "position": 15.333333,
              "duration": 0.041667
            },
            {
              "pitch": 38,
              "velocity": 89,
              "position": 15.333333,
              "duration": 0.041667
            },
            {
              "pitch": 51,
              "velocity": 87,
              "position": 15.333333,
              "duration": 0.066667
            },
            {
              "pitch": 36,
              "velocity": 95,
              "position": 15.666667,
              "duration": 0.133333
            },
            {
              "pitch": 38,
              "velocity": 99,
              "position": 15.666667,
              "duration": 0.133333
            },
            {
              "pitch": 51,
              "velocity": 101,
              "position": 15.666667,
              "duration": 0.141667
            }
          ]
        },
        "10": {
          "ctab": {
            "srcChannel": 10,
            "name": "Bass",
            "accType": "BASS",
            "editable": true,
            "mutedNotes": [],
            "mutedChords": [],
            "sourceChordNote": 0,
            "sourceChordType": "Maj7",
            "ctb2Main": {
              "ntr": "ROOT_TRANSPOSITION",
              "ntt": "BYPASS",
              "bassOn": true,
              "noteLowLimit": 20,
              "noteHighLimit": 60,
              "chordRootUpperLimit": 127,
              "rtr": "NOTE_GENERATOR"
            }
          },
          "notes": [
            {
              "pitch": 36,
              "velocity": 101,
              "position": 0.0,
              "duration": 0.875
            },
            {
              "pitch": 36,
              "velocity": 97,
              "position": 1.0,
              "duration": 0.225
            },
            {
              "pitch": 36,
              "velocity": 92,
              "position": 1.333333,
              "duration": 0.283333
            },
            {
              "pitch": 35,
              "velocity": 97,
              "position": 1.666667,
              "duration": 0.316667
            },
            {
              "pitch": 36,
              "velocity": 101,
              "position": 2.0,
              "duration": 0.875
            },
            {
              "pitch": 36,
              "velocity": 97,
              "position": 3.0,
              "duration": 0.225
            },
            {
              "pitch": 36,
              "velocity": 92,
              "position": 3.333333,
              "duration": 0.283333
            },
            {
              "pitch": 35,
              "velocity": 97,
              "position": 3.666667,
              "duration": 0.316667
            },
            {
              "pitch": 36,
              "velocity": 101,
              "position": 4.0,
              "duration": 0.875
            },
            {
              "pitch": 36,
              "velocity": 97,
              "position": 5.0,
              "duration": 0.225
            },
            {
              "pitch": 36,
              "velocity": 92,
              "position": 5.333333,
              "duration": 0.283333
            },
            {
              "pitch": 35,
              "velocity": 97,
              "position": 5.666667,
              "duration": 0.316667
            },
            {
              "pitch": 36,
              "velocity": 101,
              "position": 6.0,
              "duration": 0.875
            },
            {
              "pitch": 36,
              "velocity": 97,
              "position": 7.0,
              "duration": 0.225
            },
            {
              "pitch": 36,
              "velocity": 92,
              "position": 7.333333,
              "duration": 0.283333
            },
            {
              "pitch": 35,
              "velocity": 97,
              "position": 7.666667,
              "duration": 0.316667
            },
            {
              "pitch": 36,
              "velocity": 92,
              "position": 8.008333,
              "duration": 0.966667
            },
            {
              "pitch": 40,
              "velocity": 95,
              "position": 9.041667,
              "duration": 0.491667
            },
            {
              "pitch": 40,
              "velocity": 96,
              "position": 9.691667,
              "duration": 0.316667
            },
            {
              "pitch": 43,
              "velocity": 93,
              "position": 10.016667,
              "duration": 1.016667
            },
            {
              "pitch": 40,
              "velocity": 103,
              "position": 11.016667,
              "duration": 0.691667
            },
            {
              "pitch": 43,
              "velocity": 87,
              "position": 11.7,
              "duration": 0.341667
            },
            {
              "pitch": 36,
              "velocity": 94,
              "position": 12.025,
              "duration": 1.016667
            },
            {
              "pitch": 40,
              "velocity": 108,
              "position": 13.033333,
              "duration": 0.541667
            },
            {
              "pitch": 40,
              "velocity": 96,
              "position": 13.7,
              "duration": 0.333333
            },
            {
              "pitch": 43,
              "velocity": 97,
              "position": 14.033333,
              "duration": 1.016667
            },
            {
              "pitch": 36,
              "velocity": 97,
              "position": 15.008333,
              "duration": 0.541667
            },
            {
              "pitch": 36,
              "velocity": 100,
              "position": 15.666667,
              "duration": 0.333333
            }
          ]
        },
        "11": {
          "ctab": {
            "srcChannel": 11,
            "name": "Piano",
            "accType": "CHORD1",
            "editable": true,
            "mutedNotes": [],
            "mutedChords": [],
            "sourceChordNote": 0,
            "sourceChordType": "Maj7",
            "ctb2Main": {
              "ntr": "ROOT_FIXED",
              "ntt": "CHORD",
              "bassOn": false,
              "noteLowLimit": 48,
              "noteHighLimit": 84,
              "chordRootUpperLimit": 127,
              "rtr": "NOTE_GENERATOR"
            }
          },
          "notes": [
            {
              "pitch": 74,
              "velocity": 73,
              "position": 0.025,
              "duration": 0.083333
            },
            {
              "pitch": 76,
              "velocity": 77,
              "position": 0.025,
              "duration": 0.1
            },
            {
              "pitch": 79,
              "velocity": 77,
              "position": 0.025,
              "duration": 0.108333
            },
            {
              "pitch": 83,
              "velocity": 70,
              "position": 0.025,
              "duration": 0.083333
            },
            {
              "pitch": 76,
              "velocity": 66,
              "position": 0.35,
              "duration": 0.108333
            },
            {
              "pitch": 74,
              "velocity": 57,
              "position": 0.358333,
              "duration": 0.091667
            },
            {
              "pitch": 79,
              "velocity": 71,
              "position": 0.358333,
              "duration": 0.108333
            },
            {
              "pitch": 83,
              "velocity": 52,
              "position": 0.358333,
              "duration": 0.083333
            },
            {
              "pitch": 74,
              "velocity": 69,
              "position": 0.675,
              "duration": 0.091667
            },
            {
              "pitch": 76,
              "velocity": 80,
              "position": 0.675,
              "duration": 0.125
            },
            {
              "pitch": 79,
              "velocity": 79,
              "position": 0.675,
              "duration": 0.108333
            },
            {
              "pitch": 83,
              "velocity": 66,
              "position": 0.675,
              "duration": 0.108333
            },
            {
              "pitch": 74,
              "velocity": 91,
              "position": 1.016667,
              "duration": 0.075
            },
            {
              "pitch": 76,
              "velocity": 85,
              "position": 1.016667,
              "duration": 0.108333
            },
            {
              "pitch": 79,
              "velocity": 85,
              "position": 1.016667,
              "duration": 0.125
            },
            {
              "pitch": 83,
              "velocity": 76,
              "position": 1.016667,
              "duration": 0.108333
            },
            {
              "pitch": 76,
              "velocity": 77,
              "position": 1.35,
              "duration": 0.091667
            },
            {
              "pitch": 79,
              "velocity": 73,
              "position": 1.35,
              "duration": 0.1
            },
            {
              "pitch": 83,
              "velocity": 53,
              "position": 1.35,
              "duration": 0.091667
            },
            {
              "pitch": 74,
              "velocity": 56,
              "position": 1.358333,
              "duration": 0.041667
            },
            {
              "pitch": 79,
              "velocity": 71,
              "position": 1.666667,
              "duration": 0.116667
            },
            {
              "pitch": 74,
              "velocity": 63,
              "position": 1.675,
              "duration": 0.083333
            },
            {
              "pitch": 76,
              "velocity": 76,
              "position": 1.675,
              "duration": 0.116667
            },
            {
              "pitch": 83,
              "velocity": 54,
              "position": 1.675,
              "duration": 0.091667
            },
            {
              "pitch": 74,
              "velocity": 73,
              "position": 2.025,
              "duration": 0.083333
            },
            {
              "pitch": 76,
              "velocity": 77,
              "position": 2.025,
              "duration": 0.1
            },
            {
              "pitch": 79,
              "velocity": 77,
              "position": 2.025,
              "duration": 0.108333
            },
            {
              "pitch": 83,
              "velocity": 70,
              "position": 2.025,
              "duration": 0.083333
            },
            {
              "pitch": 76,
              "velocity": 66,
              "position": 2.35,
              "duration": 0.108333
            },
            {
              "pitch": 74,
              "velocity": 57,
              "position": 2.358333,
              "duration": 0.091667
            },
            {
              "pitch": 79,
              "velocity": 71,
              "position": 2.358333,
              "duration": 0.108333
            },
            {
              "pitch": 83,
              "velocity": 52,
              "position": 2.358333,
              "duration": 0.083333
            },
            {
              "pitch": 74,
              "velocity": 69,
              "position": 2.675,
              "duration": 0.091667
            },
            {
              "pitch": 76,
              "velocity": 80,
              "position": 2.675,
              "duration": 0.125
            },
            {
              "pitch": 79,
              "velocity": 79,
              "position": 2.675,
              "duration": 0.108333
            },
            {
              "pitch": 83,
              "velocity": 66,
              "position": 2.675,
              "duration": 0.108333
            },
            {
              "pitch": 74,
              "velocity": 91,
              "position": 3.016667,
              "duration": 0.075
            },
            {
              "pitch": 76,
              "velocity": 85,
              "position": 3.016667,
              "duration": 0.108333
            },
            {
              "pitch": 79,
              "velocity": 85,
              "position": 3.016667,
              "duration": 0.125
            },
            {
              "pitch": 83,
              "velocity": 76,
              "position": 3.016667,
              "duration": 0.108333
            },
            {
              "pitch": 76,
              "velocity": 77,
              "position": 3.35,
              "duration": 0.091667
            },
            {
              "pitch": 79,
              "velocity": 73,
              "position": 3.35,
              "duration": 0.1
            },
            {
              "pitch": 83,
              "velocity": 53,
              "position": 3.35,
              "duration": 0.091667
            },
            {
              "pitch": 74,
              "velocity": 56,
              "position": 3.358333,
              "duration": 0.041667
            },
            {
              "pitch": 79,
              "velocity": 71,
              "position": 3.666667,
              "duration": 0.116667
            },
            {
              "pitch": 74,
              "velocity": 63,
              "position": 3.675,
              "duration": 0.083333
            },
            {
              "pitch": 76,
              "velocity": 76,
              "position": 3.675,
              "duration": 0.116667
            },
            {
              "pitch": 83,
              "velocity": 54,
              "position": 3.675,
              "duration": 0.091667
            },
            {
              "pitch": 74,
              "velocity": 73,
              "position": 4.025,
              "duration": 0.083333
            },
            {
              "pitch": 76,
              "velocity": 77,
              "position": 4.025,
              "duration": 0.1
            },
            {
              "pitch": 79,
              "velocity": 77,
              "position": 4.025,
              "duration": 0.108333
            },
            {
              "pitch": 83,
              "velocity": 70,
              "position": 4.025,
              "duration": 0.083333
            },
            {
              "pitch": 76,
              "velocity": 66,
              "position": 4.35,
              "duration": 0.108333
            },
            {
              "pitch": 74,
              "velocity": 57,
              "position": 4.358333,
              "duration": 0.091667
            },
            {
              "pitch": 79,
              "velocity": 71,
              "position": 4.358333,
              "duration": 0.108333
            },
            {
              "pitch": 83,
              "velocity": 52,
              "position": 4.358333,
              "duration": 0.083333
            },
            {
              "pitch": 74,
              "velocity": 69,
              "position": 4.675,
              "duration": 0.091667
            },
            {
              "pitch": 76,
              "velocity": 80,
              "position": 4.675,
              "duration": 0.125
            },
            {
              "pitch": 79,
              "velocity": 79,
              "position": 4.675,
              "duration": 0.108333
            },
            {
              "pitch": 83,
              "velocity": 66,
              "position": 4.675,
              "duration": 0.108333
            },
            {
              "pitch": 74,
              "velocity": 91,
              "position": 5.016667,
              "duration": 0.075
            },
            {
              "pitch": 76,
              "velocity": 85,
              "position": 5.016667,
              "duration": 0.108333
            },
            {
              "pitch": 79,
              "velocity": 85,
              "position": 5.016667,
              "duration": 0.125
            },
            {
              "pitch": 83,
              "velocity": 76,
              "position": 5.016667,
              "duration": 0.108333
            },
            {
              "pitch": 76,
              "velocity": 77,
              "position": 5.35,
              "duration": 0.091667
            },
            {
              "pitch": 79,
              "velocity": 73,
              "position": 5.35,
              "duration": 0.1
            },
            {
              "pitch": 83,
              "velocity": 53,
              "position": 5.35,
              "duration": 0.091667
            },
            {
              "pitch": 74,
              "velocity": 56,
              "position": 5.358333,
              "duration": 0.041667
            },
            {
              "pitch": 79,
              "velocity": 71,
              "position": 5.666667,
              "duration": 0.116667
            },
            {
              "pitch": 74,
              "velocity": 63,
              "position": 5.675,
              "duration": 0.083333
            },
            {
              "pitch": 76,
              "velocity": 76,
              "position": 5.675,
              "duration": 0.116667
            },
            {
              "pitch": 83,
              "velocity": 54,
              "position": 5.675,
              "duration": 0.091667
            },
            {
              "pitch": 74,
              "velocity": 73,
              "position": 6.025,
              "duration": 0.083333
            },
            {
              "pitch": 76,
              "velocity": 77,
              "position": 6.025,
              "duration": 0.1
            },
            {
              "pitch": 79,
              "velocity": 77,
              "position": 6.025,
              "duration": 0.108333
            },
            {
              "pitch": 83,
              "velocity": 70,
              "position": 6.025,
              "duration": 0.083333
            },
            {
              "pitch": 76,
              "velocity": 66,
              "position": 6.35,
              "duration": 0.108333
            },
            {
              "pitch": 74,
              "velocity": 57,
              "position": 6.358333,
              "duration": 0.091667
            },
            {
              "pitch": 79,
              "velocity": 71,
              "position": 6.358333,
              "duration": 0.108333
            },
            {
              "pitch": 83,
              "velocity": 52,
              "position": 6.358333,
              "duration": 0.083333
            },
            {
              "pitch": 74,
              "velocity": 69,
              "position": 6.675,
              "duration": 0.091667
            },
            {
              "pitch": 76,
              "velocity": 80,
              "position": 6.675,
              "duration": 0.125
            },
            {
              "pitch": 79,
              "velocity": 79,
              "position": 6.675,
              "duration": 0.108333
            },
            {
              "pitch": 83,
              "velocity": 66,
              "position": 6.675,
              "duration": 0.108333
            },
            {
              "pitch": 74,
              "velocity": 91,
              "position": 7.016667,
              "duration": 0.075
            },
            {
              "pitch": 76,
              "velocity": 85,
              "position": 7.016667,
              "duration": 0.108333
            },
            {
              "pitch": 79,
              "velocity": 85,
              "position": 7.016667,
              "duration": 0.125
            },
            {
              "pitch": 83,
              "velocity": 76,
              "position": 7.016667,
              "duration": 0.108333
            },
            {
              "pitch": 76,
              "velocity": 77,
              "position": 7.35,
              "duration": 0.091667
            },
            {
              "pitch": 79,
              "velocity": 73,
              "position": 7.35,
              "duration": 0.1
            },
            {
              "pitch": 83,
              "velocity": 53,
              "position": 7.35,
              "duration": 0.091667
            },
            {
              "pitch": 74,
              "velocity": 56,
              "position": 7.358333,
              "duration": 0.041667
            },
            {
              "pitch": 79,
              "velocity": 71,
              "position": 7.666667,
              "duration": 0.116667
            },
            {
              "pitch": 74,
              "velocity": 63,
              "position": 7.675,
              "duration": 0.083333
            },
            {
              "pitch": 76,
              "velocity": 76,
              "position": 7.675,
              "duration": 0.116667
            },
            {
              "pitch": 83,
              "velocity": 54,
              "position": 7.675,
              "duration": 0.091667
            },
            {
              "pitch": 74,
              "velocity": 73,
              "position": 8.025,
              "duration": 0.083333
            },
            {
              "pitch": 76,
              "velocity": 77,
              "position": 8.025,
              "duration": 0.1
            },
            {
              "pitch": 79,
              "velocity": 77,
              "position": 8.025,
              "duration": 0.108333
            },
            {
              "pitch": 83,
              "velocity": 70,
              "position": 8.025,
              "duration": 0.083333
            },
            {
              "pitch": 76,
              "velocity": 66,
              "position": 8.35,
              "duration": 0.108333
            },
            {
              "pitch": 74,
              "velocity": 57,
              "position": 8.358333,
              "duration": 0.091667
            },
            {
              "pitch": 79,
              "velocity": 71,
              "position": 8.358333,
              "duration": 0.108333
            },
            {
              "pitch": 83,
              "velocity": 52,
              "position": 8.358333,
              "duration": 0.083333
            },
            {
              "pitch": 74,
              "velocity": 69,
              "position": 8.675,
              "duration": 0.091667
            },
            {
              "pitch": 76,
              "velocity": 80,
              "position": 8.675,
              "duration": 0.125
            },
            {
              "pitch": 79,
              "velocity": 79,
              "position": 8.675,
              "duration": 0.108333
            },
            {
              "pitch": 83,
              "velocity": 66,
              "position": 8.675,
              "duration": 0.108333
            },
            {
              "pitch": 74,
              "velocity": 91,
              "position": 9.016667,
              "duration": 0.075
            },
            {
              "pitch": 76,
              "velocity": 85,
              "position": 9.016667,
              "duration": 0.108333
            },
            {
              "pitch": 79,
              "velocity": 85,
              "position": 9.016667,
              "duration": 0.125
            },
            {
              "pitch": 83,
              "velocity": 76,
              "position": 9.016667,
              "duration": 0.108333
            },
            {
              "pitch": 76,
              "velocity": 77,
              "position": 9.35,
              "duration": 0.091667
            },
            {
              "pitch": 79,
              "velocity": 73,
              "position": 9.35,
              "duration": 0.1
            },
            {
              "pitch": 83,
              "velocity": 53,
              "position": 9.35,
              "duration": 0.091667
            },
            {
              "pitch": 74,
              "velocity": 56,
              "position": 9.358333,
              "duration": 0.041667
            },
            {
              "pitch": 79,
              "velocity": 71,
              "position": 9.666667,
              "duration": 0.116667
            },
            {
              "pitch": 74,
              "velocity": 63,
              "position": 9.675,
              "duration": 0.083333
            },
            {
              "pitch": 76,
              "velocity": 76,
              "position": 9.675,
              "duration": 0.116667
            },
            {
              "pitch": 83,
              "velocity": 54,
              "position": 9.675,
              "duration": 0.091667
            },
            {
              "pitch": 76,
              "velocity": 83,
              "position": 9.991667,
              "duration": 0.15
            },
            {
              "pitch": 79,
              "velocity": 86,
              "position": 9.991667,
              "duration": 0.133333
            },
            {
              "pitch": 83,
              "velocity": 80,
              "position": 9.991667,
              "duration": 0.116667
            },
            {
              "pitch": 74,
              "velocity": 85,
              "position": 10.008333,
              "duration": 0.083333
            },
            {
              "pitch": 74,
              "velocity": 62,
              "position": 10.35,
              "duration": 0.083333
            },
            {
              "pitch": 76,
              "velocity": 74,
              "position": 10.35,
              "duration": 0.1
            },
            {
              "pitch": 79,
              "velocity": 67,
              "position": 10.35,
              "duration": 0.108333
            },
            {
              "pitch": 83,
              "velocity": 50,
              "position": 10.35,
              "duration": 0.083333
            },
            {
              "pitch": 74,
              "velocity": 69,
              "position": 10.666667,
              "duration": 0.1
            },
            {
              "pitch": 76,
              "velocity": 75,
              "position": 10.675,
              "duration": 0.125
            },
            {
              "pitch": 79,
              "velocity": 72,
              "position": 10.675,
              "duration": 0.116667
            },
            {
              "pitch": 83,
              "velocity": 50,
              "position": 10.675,
              "duration": 0.1
            },
            {
              "pitch": 74,
              "velocity": 99,
              "position": 11.008333,
              "duration": 0.091667
            },
            {
              "pitch": 76,
              "velocity": 90,
              "position": 11.008333,
              "duration": 0.133333
            },
            {
              "pitch": 79,
              "velocity": 87,
              "position": 11.008333,
              "duration": 0.125
            },
            {
              "pitch": 83,
              "velocity": 84,
              "position": 11.008333,
              "duration": 0.108333
            },
            {
              "pitch": 74,
              "velocity": 61,
              "position": 11.341667,
              "duration": 0.083333
            },
            {
              "pitch": 76,
              "velocity": 78,
              "position": 11.341667,
              "duration": 0.1
            },
            {
              "pitch": 79,
              "velocity": 72,
              "position": 11.341667,
              "duration": 0.108333
            },
            {
              "pitch": 83,
              "velocity": 55,
              "position": 11.341667,
              "duration": 0.108333
            },
            {
              "pitch": 83,
              "velocity": 46,
              "position": 11.675,
              "duration": 0.1
            },
            {
              "pitch": 74,
              "velocity": 63,
              "position": 11.683333,
              "duration": 0.075
            },
            {
              "pitch": 76,
              "velocity": 73,
              "position": 11.683333,
              "duration": 0.1
            },
            {
              "pitch": 79,
              "velocity": 70,
              "position": 11.683333,
              "duration": 0.1
            },
            {
              "pitch": 74,
              "velocity": 88,
              "position": 11.991667,
              "duration": 0.1
            },
            {
              "pitch": 76,
              "velocity": 81,
              "position": 11.991667,
              "duration": 0.133333
            },
            {
              "pitch": 79,
              "velocity": 85,
              "position": 11.991667,
              "duration": 0.133333
            },
            {
              "pitch": 83,
              "velocity": 81,
              "position": 11.991667,
              "duration": 0.108333
            },
            {
              "pitch": 76,
              "velocity": 67,
              "position": 12.333333,
              "duration": 0.116667
            },
            {
              "pitch": 74,
              "velocity": 53,
              "position": 12.341667,
              "duration": 0.083333
            },
            {
              "pitch": 79,
              "velocity": 60,
              "position": 12.341667,
              "duration": 0.116667
            },
            {
              "pitch": 83,
              "velocity": 46,
              "position": 12.341667,
              "duration": 0.108333
            },
            {
              "pitch": 74,
              "velocity": 66,
              "position": 12.675,
              "duration": 0.1
            },
            {
              "pitch": 83,
              "velocity": 51,
              "position": 12.675,
              "duration": 0.108333
            },
            {
              "pitch": 76,
              "velocity": 75,
              "position": 12.683333,
              "duration": 0.1
            },
            {
              "pitch": 79,
              "velocity": 69,
              "position": 12.683333,
              "duration": 0.108333
            },
            {
              "pitch": 74,
              "velocity": 92,
              "position": 13.016667,
              "duration": 0.116667
            },
            {
              "pitch": 76,
              "velocity": 88,
              "position": 13.016667,
              "duration": 0.15
            },
            {
              "pitch": 79,
              "velocity": 87,
              "position": 13.016667,
              "duration": 0.141667
            },
            {
              "pitch": 83,
              "velocity": 79,
              "position": 13.016667,
              "duration": 0.141667
            },
            {
              "pitch": 83,
              "velocity": 47,
              "position": 13.341667,
              "duration": 0.108333
            },
            {
              "pitch": 74,
              "velocity": 54,
              "position": 13.35,
              "duration": 0.05
            },
            {
              "pitch": 76,
              "velocity": 69,
              "position": 13.35,
              "duration": 0.1
            },
            {
              "pitch": 79,
              "velocity": 63,
              "position": 13.35,
              "duration": 0.1
            },
            {
              "pitch": 74,
              "velocity": 65,
              "position": 13.683333,
              "duration": 0.1
            },
            {
              "pitch": 76,
              "velocity": 72,
              "position": 13.683333,
              "duration": 0.116667
            },
            {
              "pitch": 79,
              "velocity": 67,
              "position": 13.683333,
              "duration": 0.108333
            },
            {
              "pitch": 83,
              "velocity": 48,
              "position": 13.683333,
              "duration": 0.091667
            },
            {
              "pitch": 74,
              "velocity": 92,
              "position": 14.016667,
              "duration": 0.1
            },
            {
              "pitch": 76,
              "velocity": 87,
              "position": 14.016667,
              "duration": 0.116667
            },
            {
              "pitch": 79,
              "velocity": 87,
              "position": 14.016667,
              "duration": 0.125
            },
            {
              "pitch": 83,
              "velocity": 86,
              "position": 14.016667,
              "duration": 0.108333
            },
            {
              "pitch": 74,
              "velocity": 52,
              "position": 14.35,
              "duration": 0.091667
            },
            {
              "pitch": 76,
              "velocity": 62,
              "position": 14.35,
              "duration": 0.116667
            },
            {
              "pitch": 79,
              "velocity": 62,
              "position": 14.35,
              "duration": 0.116667
            },
            {
              "pitch": 83,
              "velocity": 40,
              "position": 14.358333,
              "duration": 0.108333
            },
            {
              "pitch": 74,
              "velocity": 65,
              "position": 14.683333,
              "duration": 0.091667
            },
            {
              "pitch": 76,
              "velocity": 74,
              "position": 14.683333,
              "duration": 0.108333
            },
            {
              "pitch": 79,
              "velocity": 70,
              "position": 14.683333,
              "duration": 0.108333
            },
            {
              "pitch": 83,
              "velocity": 49,
              "position": 14.683333,
              "duration": 0.1
            },
            {
              "pitch": 74,
              "velocity": 83,
              "position": 15.008333,
              "duration": 0.1
            },
            {
              "pitch": 76,
              "velocity": 83,
              "position": 15.008333,
              "duration": 0.133333
            },
            {
              "pitch": 79,
              "velocity": 81,
              "position": 15.008333,
              "duration": 0.133333
            },
            {
              "pitch": 83,
              "velocity": 76,
              "position": 15.008333,
              "duration": 0.116667
            },
            {
              "pitch": 74,
              "velocity": 64,
              "position": 15.35,
              "duration": 0.075
            },
            {
              "pitch": 76,
              "velocity": 74,
              "position": 15.35,
              "duration": 0.1
            },
            {
              "pitch": 79,
              "velocity": 69,
              "position": 15.35,
              "duration": 0.1
            },
            {
              "pitch": 83,
              "velocity": 48,
              "position": 15.358333,
              "duration": 0.066667
            },
            {
              "pitch": 74,
              "velocity": 73,
              "position": 15.675,
              "duration": 0.325
            },
            {
              "pitch": 76,
              "velocity": 74,
              "position": 15.683333,
              "duration": 0.316667
            },
            {
              "pitch": 79,
              "velocity": 71,
              "position": 15.683333,
              "duration": 0.116667
            },
            {
              "pitch": 83,
              "velocity": 55,
              "position": 15.683333,
              "duration": 0.125
            }
          ]
        },
        "12": {
          "ctab": {
            "srcChannel": 12,
            "name": "Guitar",
            "accType": "CHORD2",
            "editable": true,
            "mutedNotes": [],
            "mutedChords": [],
            "sourceChordNote": 0,
            "sourceChordType": "Maj7",
            "ctb2Main": {
              "ntr": "ROOT_FIXED",
              "ntt": "CHORD",
              "bassOn": false,
              "noteLowLimit": 40,
              "noteHighLimit": 76,
              "chordRootUpperLimit": 127,
              "rtr": "NOTE_GENERATOR"
            }
          },
          "notes": [
            {
              "pitch": 43,
              "velocity": 47,
              "position": 0.0,
              "duration": 1.983333
            },
            {
              "pitch": 52,
              "velocity": 70,
              "position": 0.066667,
              "duration": 1.916667
            },
            {
              "pitch": 55,
              "velocity": 58,
              "position": 0.125,
              "duration": 1.858333
            },
            {
              "pitch": 59,
              "velocity": 68,
              "position": 0.208333,
              "duration": 1.775
            },
            {
              "pitch": 64,
              "velocity": 66,
              "position": 0.308333,
              "duration": 1.675
            },
            {
              "pitch": 43,
              "velocity": 47,
              "position": 2.0,
              "duration": 1.983333
            },
            {
              "pitch": 52,
              "velocity": 70,
              "position": 2.066667,
              "duration": 1.916667
            },
            {
              "pitch": 55,
              "velocity": 58,
              "position": 2.166667,
              "duration": 1.816667
            },
            {
              "pitch": 59,
              "velocity": 68,
              "position": 2.25,
              "duration": 1.733333
            },
            {
              "pitch": 64,
              "velocity": 66,
              "position": 2.366667,
              "duration": 1.616667
            },
            {
              "pitch": 48,
              "velocity": 50,
              "position": 4.0,
              "duration": 1.375
            },
            {
              "pitch": 55,
              "velocity": 70,
              "position": 4.066667,
              "duration": 1.308333
            },
            {
              "pitch": 59,
              "velocity": 58,
              "position": 4.125,
              "duration": 1.25
            },
            {
              "pitch": 64,
              "velocity": 68,
              "position": 4.208333,
              "duration": 1.166667
            },
            {
              "pitch": 67,
              "velocity": 66,
              "position": 4.308333,
              "duration": 1.066667
            },
            {
              "pitch": 43,
              "velocity": 54,
              "position": 5.633333,
              "duration": 2.341667
            },
            {
              "pitch": 52,
              "velocity": 68,
              "position": 5.65,
              "duration": 2.325
            },
            {
              "pitch": 55,
              "velocity": 68,
              "position": 5.675,
              "duration": 2.3
            },
            {
              "pitch": 59,
              "velocity": 68,
              "position": 5.691667,
              "duration": 2.283333
            },
            {
              "pitch": 64,
              "velocity": 68,
              "position": 5.716667,
              "duration": 2.258333
            },
            {
              "pitch": 43,
              "velocity": 54,
              "position": 8.008333,
              "duration": 0.933333
            },
            {
              "pitch": 42,
              "velocity": 51,
              "position": 8.958333,
              "duration": 0.658333
            },
            {
              "pitch": 47,
              "velocity": 54,
              "position": 8.975,
              "duration": 0.658333
            },
            {
              "pitch": 51,
              "velocity": 64,
              "position": 8.991667,
              "duration": 0.016667
            },
            {
              "pitch": 51,
              "velocity": 64,
              "position": 9.008333,
              "duration": 0.016667
            },
            {
              "pitch": 51,
              "velocity": 64,
              "position": 9.025,
              "duration": 0.016667
            },
            {
              "pitch": 51,
              "velocity": 64,
              "position": 9.041667,
              "duration": 0.608333
            },
            {
              "pitch": 43,
              "velocity": 57,
              "position": 9.633333,
              "duration": 5.358333
            },
            {
              "pitch": 48,
              "velocity": 61,
              "position": 9.65,
              "duration": 5.341667
            },
            {
              "pitch": 52,
              "velocity": 72,
              "position": 9.666667,
              "duration": 5.325
            },
            {
              "pitch": 55,
              "velocity": 72,
              "position": 9.683333,
              "duration": 5.308333
            },
            {
              "pitch": 59,
              "velocity": 72,
              "position": 9.7,
              "duration": 5.291667
            },
            {
              "pitch": 64,
              "velocity": 72,
              "position": 9.716667,
              "duration": 5.275
            },
            {
              "pitch": 43,
              "velocity": 66,
              "position": 15.0,
              "duration": 0.108333
            },
            {
              "pitch": 48,
              "velocity": 70,
              "position": 15.0,
              "duration": 0.108333
            },
            {
              "pitch": 52,
              "velocity": 83,
              "position": 15.0,
              "duration": 0.108333
            },
            {
              "pitch": 55,
              "velocity": 83,
              "position": 15.0,
              "duration": 0.108333
            },
            {
              "pitch": 59,
              "velocity": 83,
              "position": 15.0,
              "duration": 0.108333
            },
            {
              "pitch": 64,
              "velocity": 83,
              "position": 15.0,
              "duration": 0.108333
            }
          ]
        },
        "13": {
          "ctab": {
            "srcChannel": 13,
            "name": "Strings",
            "accType": "PAD",
            "editable": true,
            "mutedNotes": [],
            "mutedChords": [],
            "sourceChordNote": 0,
            "sourceChordType": "Maj7",
            "ctb2Main": {
              "ntr": "ROOT_FIXED",
              "ntt": "MELODY",
              "bassOn": false,
              "noteLowLimit": 36,
              "noteHighLimit": 96,
              "chordRootUpperLimit": 127,
              "rtr": "PITCH_SHIFT"
            }
          },
          "notes": []
        }
      }
    },
    "Fill_In_AA": {
      "type": "Fill_In_AA",
      "sizeInBeats": 16,
      "channels": {
        "9": {
          "ctab": {
            "srcChannel": 9,
            "name": "Drums",
            "accType": "RHYTHM",
            "editable": false,
            "mutedNotes": [],
            "mutedChords": [],
            "sourceChordNote": 0,
            "sourceChordType": "Maj",
            "ctb2Main": {
              "ntr": "ROOT_FIXED",
              "ntt": "BYPASS",
              "bassOn": false,
              "noteLowLimit": 20,
              "noteHighLimit": 127,
              "chordRootUpperLimit": 127,
              "rtr": "RETRIGGER"
            }
          },
          "notes": [
            {
              "pitch": 36,
              "velocity": 103,
              "position": 0.0,
              "duration": 0.4
            },
            {
              "pitch": 57,
              "velocity": 127,
              "position": 0.0,
              "duration": 0.05
            },
            {
              "pitch": 51,
              "velocity": 82,
              "position": 0.333333,
              "duration": 0.066667
            },
            {
              "pitch": 36,
              "velocity": 41,
              "position": 0.666667,
              "duration": 0.358333
            },
            {
              "pitch": 51,
              "velocity": 78,
              "position": 0.666667,
              "duration": 0.066667
            },
            {
              "pitch": 38,
              "velocity": 113,
              "position": 1.0,
              "duration": 0.208333
            },
            {
              "pitch": 51,
              "velocity": 114,
              "position": 1.0,
              "duration": 0.091667
            },
            {
              "pitch": 51,
              "velocity": 76,
              "position": 1.333333,
              "duration": 0.075
            },
            {
              "pitch": 36,
              "velocity": 57,
              "position": 1.666667,
              "duration": 0.075
            },
            {
              "pitch": 51,
              "velocity": 83,
              "position": 1.666667,
              "duration": 0.083333
            },
            {
              "pitch": 36,
              "velocity": 92,
              "position": 2.0,
              "duration": 0.191667
            },
            {
              "pitch": 51,
              "velocity": 110,
              "position": 2.0,
              "duration": 0.108333
            },
            {
              "pitch": 51,
              "velocity": 80,
              "position": 2.333333,
              "duration": 0.075
            },
            {
              "pitch": 36,
              "velocity": 79,
              "position": 2.666667,
              "duration": 0.4
            },
            {
              "pitch": 51,
              "velocity": 86,
              "position": 2.666667,
              "duration": 0.075
            },
            {
              "pitch": 38,
              "velocity": 125,
              "position": 3.0,
              "duration": 0.183333
            },
            {
              "pitch": 51,
              "velocity": 114,
              "position": 3.0,
              "duration": 0.066667
            },
            {
              "pitch": 36,
              "velocity": 65,
              "position": 3.333333,
              "duration": 0.058333
            },
            {
              "pitch": 51,
              "velocity": 96,
              "position": 3.333333,
              "duration": 0.066667
            },
            {
              "pitch": 51,
              "velocity": 83,
              "position": 3.566667,
              "duration": 0.05
            },
            {
              "pitch": 36,
              "velocity": 64,
              "position": 3.666667,
              "duration": 0.066667
            },
            {
              "pitch": 38,
              "velocity": 61,
              "position": 3.666667,
              "duration": 0.075
            },
            {
              "pitch": 51,
              "velocity": 91,
              "position": 3.666667,
              "duration": 0.075
            },
            {
              "pitch": 36,
              "velocity": 87,
              "position": 4.0,
              "duration": 0.425
            },
            {
              "pitch": 51,
              "velocity": 73,
              "position": 4.0,
              "duration": 0.083333
            },
            {
              "pitch": 51,
              "velocity": 73,
              "position": 4.333333,
              "duration": 0.058333
            },
            {
              "pitch": 51,
              "velocity": 68,
              "position": 4.566667,
              "duration": 0.025
            },
            {
              "pitch": 36,
              "velocity": 73,
              "position": 4.666667,
              "duration": 0.425
            },
            {
              "pitch": 51,
              "velocity": 78,
              "position": 4.666667,
              "duration": 0.066667
            },
            {
              "pitch": 38,
              "velocity": 108,
              "position": 5.0,
              "duration": 0.55
            },
            {
              "pitch": 51,
              "velocity": 107,
              "position": 5.0,
              "duration": 0.133333
            },
            {
              "pitch": 51,
              "velocity": 77,
              "position": 5.333333,
              "duration": 0.075
            },
            {
              "pitch": 36,
              "velocity": 53,
              "position": 5.666667,
              "duration": 0.1
            },
            {
              "pitch": 51,
              "velocity": 86,
              "position": 5.666667,
              "duration": 0.075
            },
            {
              "pitch": 36,
              "velocity": 85,
              "position": 6.0,
              "duration": 0.341667
            },
            {
              "pitch": 51,
              "velocity": 103,
              "position": 6.0,
              "duration": 0.1
            },
            {
              "pitch": 51,
              "velocity": 70,
              "position": 6.333333,
              "duration": 0.066667
            },
            {
              "pitch": 51,
              "velocity": 85,
              "position": 6.566667,
              "duration": 0.05
            },
            {
              "pitch": 36,
              "velocity": 66,
              "position": 6.666667,
              "duration": 0.425
            },
            {
              "pitch": 51,
              "velocity": 82,
              "position": 6.666667,
              "duration": 0.058333
            },
            {
              "pitch": 38,
              "velocity": 125,
              "position": 7.0,
              "duration": 0.158333
            },
            {
              "pitch": 51,
              "velocity": 114,
              "position": 7.0,
              "duration": 0.133333
            },
            {
              "pitch": 38,
              "velocity": 24,
              "position": 7.333333,
              "duration": 0.108333
            },
            {
              "pitch": 51,
              "velocity": 73,
              "position": 7.333333,
              "duration": 0.075
            },
            {
              "pitch": 36,
              "velocity": 72,
              "position": 7.666667,
              "duration": 0.266667
            },
            {
              "pitch": 51,
              "velocity": 91,
              "position": 7.666667,
              "duration": 0.066667
            },
            {
              "pitch": 36,
              "velocity": 95,
              "position": 8.0,
              "duration": 0.358333
            },
            {
              "pitch": 51,
              "velocity": 82,
              "position": 8.0,
              "duration": 0.05
            },
            {
              "pitch": 51,
              "velocity": 90,
              "position": 8.333333,
              "duration": 0.075
            },
            {
              "pitch": 51,
              "velocity": 72,
              "position": 8.566667,
              "duration": 0.025
            },
            {
              "pitch": 36,
              "velocity": 88,
              "position": 8.666667,
              "duration": 0.341667
            },
            {
              "pitch": 51,
              "velocity": 86,
              "position": 8.666667,
              "duration": 0.083333
            },
            {
              "pitch": 38,
              "velocity": 105,
              "position": 9.0,
              "duration": 0.241667
            },
            {
              "pitch": 51,
              "velocity": 114,
              "position": 9.0,
              "duration": 0.075
            },
            {
              "pitch": 51,
              "velocity": 68,
              "position": 9.333333,
              "duration": 0.075
            },
            {
              "pitch": 36,
              "velocity": 53,
              "position": 9.666667,
              "duration": 0.108333
            },
            {
              "pitch": 51,
              "velocity": 86,
              "position": 9.666667,
              "duration": 0.066667
            },
            {
              "pitch": 36,
              "velocity": 96,
              "position": 10.0,
              "duration": 0.425
            },
            {
              "pitch": 51,
              "velocity": 103,
              "position": 10.0,
              "duration": 0.091667
            },
            {
              "pitch": 51,
              "velocity": 86,
              "position": 10.333333,
              "duration": 0.066667
            },
            {
              "pitch": 51,
              "velocity": 76,
              "position": 10.566667,
              "duration": 0.041667
            },
            {
              "pitch": 36,
              "velocity": 68,
              "position": 10.666667,
              "duration": 0.583333
            },
            {
              "pitch": 51,
              "velocity": 86,
              "position": 10.666667,
              "duration": 0.083333
            },
            {
              "pitch": 38,
              "velocity": 123,
              "position": 11.0,
              "duration": 0.166667
            },
            {
              "pitch": 53,
              "velocity": 125,
              "position": 11.0,
              "duration": 0.066667
            },
            {
              "pitch": 38,
              "velocity": 31,
              "position": 11.333333,
              "duration": 0.058333
            },
            {
              "pitch": 51,
              "velocity": 82,
              "position": 11.333333,
              "duration": 0.058333
            },
            {
              "pitch": 51,
              "velocity": 76,
              "position": 11.566667,
              "duration": 0.033333
            },
            {
              "pitch": 36,
              "velocity": 47,
              "position": 11.666667,
              "duration": 0.075
            },
            {
              "pitch": 38,
              "velocity": 30,
              "position": 11.666667,
              "duration": 0.033333
            },
            {
              "pitch": 51,
              "velocity": 82,
              "position": 11.666667,
              "duration": 0.083333
            },
            {
              "pitch": 36,
              "velocity": 103,
              "position": 12.0,
              "duration": 0.475
            },
            {
              "pitch": 51,
              "velocity": 97,
              "position": 12.0,
              "duration": 0.133333
            },
            {
              "pitch": 51,
              "velocity": 73,
              "position": 12.333333,
              "duration": 0.091667
            },
            {
              "pitch": 51,
              "velocity": 71,
              "position": 12.575,
              "duration": 0.108333
            },
            {
              "pitch": 36,
              "velocity": 89,
              "position": 12.666667,
              "duration": 0.066667
            },
            {
              "pitch": 38,
              "velocity": 115,
              "position": 13.0,
              "duration": 0.358333
            },
            {
              "pitch": 51,
              "velocity": 105,
              "position": 13.0,
              "duration": 0.091667
            },
            {
              "pitch": 51,
              "velocity": 77,
              "position": 13.333333,
              "duration": 0.091667
            },
            {
              "pitch": 38,
              "velocity": 99,
              "position": 13.666667,
              "duration": 0.091667
            },
            {
              "pitch": 51,
              "velocity": 94,
              "position": 13.666667,
              "duration": 0.091667
            },
            {
              "pitch": 36,
              "velocity": 108,
              "position": 14.0,
              "duration": 0.175
            },
            {
              "pitch": 51,
              "velocity": 96,
              "position": 14.0,
              "duration": 0.1
            },
            {
              "pitch": 38,
              "velocity": 90,
              "position": 14.333333,
              "duration": 0.066667
            },
            {
              "pitch": 51,
              "velocity": 82,
              "position": 14.333333,
              "duration": 0.075
            },
            {
              "pitch": 36,
              "velocity": 101,
              "position": 14.666667,
              "duration": 0.075
            },
            {
              "pitch": 51,
              "velocity": 91,
              "position": 14.666667,
              "duration": 0.075
            },
            {
              "pitch": 36,
              "velocity": 101,
              "position": 15.0,
              "duration": 0.1
            },
            {
              "pitch": 38,
              "velocity": 105,
              "position": 15.0,
              "duration": 0.175
            },
            {
              "pitch": 51,
              "velocity": 101,
              "position": 15.0,
              "duration": 0.175
            },
            {
              "pitch": 38,
              "velocity": 39,
              "position": 15.241667,
              "duration": 0.091667
            },
            {
              "pitch": 36,
              "velocity": 85,
              "position": 15.333333,
              "duration": 0.041667
            },
            {
              "pitch": 38,
              "velocity": 89,
              "position": 15.333333,
              "duration": 0.041667
            },
            {
              "pitch": 51,
              "velocity": 87,
              "position": 15.333333,
              "duration": 0.066667
            },
            {
              "pitch": 36,
              "velocity": 95,
              "position": 15.666667,
              "duration": 0.133333
            },
            {
              "pitch": 38,
              "velocity": 99,
              "position": 15.666667,
              "duration": 0.133333
            },
            {
              "pitch": 51,
              "velocity": 101,
              "position": 15.666667,
              "duration": 0.141667
            }
          ]
        },
        "10": {
          "ctab": {
            "srcChannel": 10,
            "name": "Bass",
            "accType": "BASS",
            "editable": true,
            "mutedNotes": [],
            "mutedChords": [],
            "sourceChordNote": 0,
            "sourceChordType": "Maj7",
            "ctb2Main": {
              "ntr": "ROOT_TRANSPOSITION",
              "ntt": "BYPASS",
              "bassOn": true,
              "noteLowLimit": 20,
              "noteHighLimit": 60,
              "chordRootUpperLimit": 127,
              "rtr": "NOTE_GENERATOR"
            }
          },
          "notes": [
            {
              "pitch": 36,
              "velocity": 101,
              "position": 0.0,
              "duration": 0.875
            },
            {
              "pitch": 36,
              "velocity": 97,
              "position": 1.0,
              "duration": 0.225
            },
            {
              "pitch": 36,
              "velocity": 92,
              "position": 1.333333,
              "duration": 0.283333
            },
            {
              "pitch": 35,
              "velocity": 97,
              "position": 1.666667,
              "duration": 0.316667
            },
            {
              "pitch": 36,
              "velocity": 101,
              "position": 2.0,
              "duration": 0.875
            },
            {
              "pitch": 36,
              "velocity": 97,
              "position": 3.0,
              "duration": 0.225
            },
            {
              "pitch": 36,
              "velocity": 92,
              "position": 3.333333,
              "duration": 0.283333
            },
            {
              "pitch": 35,
              "velocity": 97,
              "position": 3.666667,
              "duration": 0.316667
            },
            {
              "pitch": 36,
              "velocity": 101,
              "position": 4.0,
              "duration": 0.875
            },
            {
              "pitch": 36,
              "velocity": 97,
              "position": 5.0,
              "duration": 0.225
            },
            {
              "pitch": 36,
              "velocity": 92,
              "position": 5.333333,
              "duration": 0.283333
            },
            {
              "pitch": 35,
              "velocity": 97,
              "position": 5.666667,
              "duration": 0.316667
            },
            {
              "pitch": 36,
              "velocity": 101,
              "position": 6.0,
              "duration": 0.875
            },
            {
              "pitch": 36,
              "velocity": 97,
              "position": 7.0,
              "duration": 0.225
            },
            {
              "pitch": 36,
              "velocity": 92,
              "position": 7.333333,
              "duration": 0.283333
            },
            {
              "pitch": 35,
              "velocity": 97,
              "position": 7.666667,
              "duration": 0.316667
            },
            {
              "pitch": 36,
              "velocity": 92,
              "position": 8.008333,
              "duration": 0.966667
            },
            {
              "pitch": 40,
              "velocity": 95,
              "position": 9.041667,
              "duration": 0.491667
            },
            {
              "pitch": 40,
              "velocity": 96,
              "position": 9.691667,
              "duration": 0.316667
            },
            {
              "pitch": 43,
              "velocity": 93,
              "position": 10.016667,
              "duration": 1.016667
            },
            {
              "pitch": 40,
              "velocity": 103,
              "position": 11.016667,
              "duration": 0.691667
            },
            {
              "pitch": 43,
              "velocity": 87,
              "position": 11.7,
              "duration": 0.341667
            },
            {
              "pitch": 36,
              "velocity": 94,
              "position": 12.025,
              "duration": 1.016667
            },
            {
              "pitch": 40,
              "velocity": 108,
              "position": 13.033333,
              "duration": 0.541667
            },
            {
              "pitch": 40,
              "velocity": 96,
              "position": 13.7,
              "duration": 0.333333
            },
            {
              "pitch": 43,
              "velocity": 97,
              "position": 14.033333,
              "duration": 1.016667
            },
            {
              "pitch": 36,
              "velocity": 97,
              "position": 15.008333,
              "duration": 0.541667
            },
            {
              "pitch": 36,
              "velocity": 100,
              "position": 15.666667,
              "duration": 0.333333
            }
          ]
        },
        "11": {
          "ctab": {
            "srcChannel": 11,
            "name": "Piano",
            "accType": "CHORD1",
            "editable": true,
            "mutedNotes": [],
            "mutedChords": [],
            "sourceChordNote": 0,
            "sourceChordType": "Maj7",
            "ctb2Main": {
              "ntr": "ROOT_FIXED",
              "ntt": "CHORD",
              "bassOn": false,
              "noteLowLimit": 48,
              "noteHighLimit": 84,
              "chordRootUpperLimit": 127,
              "rtr": "NOTE_GENERATOR"
            }
          },
          "notes": [
            {
              "pitch": 74,
              "velocity": 73,
              "position": 0.025,
              "duration": 0.083333
            },
            {
              "pitch": 76,
              "velocity": 77,
              "position": 0.025,
              "duration": 0.1
            },
            {
              "pitch": 79,
              "velocity": 77,
              "position": 0.025,
              "duration": 0.108333
            },
            {
              "pitch": 83,
              "velocity": 70,
              "position": 0.025,
              "duration": 0.083333
            },
            {
              "pitch": 76,
              "velocity": 66,
              "position": 0.35,
              "duration": 0.108333
            },
            {
              "pitch": 74,
              "velocity": 57,
              "position": 0.358333,
              "duration": 0.091667
            },
            {
              "pitch": 79,
              "velocity": 71,
              "position": 0.358333,
              "duration": 0.108333
            },
            {
              "pitch": 83,
              "velocity": 52,
              "position": 0.358333,
              "duration": 0.083333
            },
            {
              "pitch": 74,
              "velocity": 69,
              "position": 0.675,
              "duration": 0.091667
            },
            {
              "pitch": 76,
              "velocity": 80,
              "position": 0.675,
              "duration": 0.125
            },
            {
              "pitch": 79,
              "velocity": 79,
              "position": 0.675,
              "duration": 0.108333
            },
            {
              "pitch": 83,
              "velocity": 66,
              "position": 0.675,
              "duration": 0.108333
            },
            {
              "pitch": 74,
              "velocity": 91,
              "position": 1.016667,
              "duration": 0.075
            },
            {
              "pitch": 76,
              "velocity": 85,
              "position": 1.016667,
              "duration": 0.108333
            },
            {
              "pitch": 79,
              "velocity": 85,
              "position": 1.016667,
              "duration": 0.125
            },
            {
              "pitch": 83,
              "velocity": 76,
              "position": 1.016667,
              "duration": 0.108333
            },
            {
              "pitch": 76,
              "velocity": 77,
              "position": 1.35,
              "duration": 0.091667
            },
            {
              "pitch": 79,
              "velocity": 73,
              "position": 1.35,
              "duration": 0.1
            },
            {
              "pitch": 83,
              "velocity": 53,
              "position": 1.35,
              "duration": 0.091667
            },
            {
              "pitch": 74,
              "velocity": 56,
              "position": 1.358333,
              "duration": 0.041667
            },
            {
              "pitch": 79,
              "velocity": 71,
              "position": 1.666667,
              "duration": 0.116667
            },
            {
              "pitch": 74,
              "velocity": 63,
              "position": 1.675,
              "duration": 0.083333
            },
            {
              "pitch": 76,
              "velocity": 76,
              "position": 1.675,
              "duration": 0.116667
            },
            {
              "pitch": 83,
              "velocity": 54,
              "position": 1.675,
              "duration": 0.091667
            },
            {
              "pitch": 74,
              "velocity": 73,
              "position": 2.025,
              "duration": 0.083333
            },
            {
              "pitch": 76,
              "velocity": 77,
              "position": 2.025,
              "duration": 0.1
            },
            {
              "pitch": 79,
              "velocity": 77,
              "position": 2.025,
              "duration": 0.108333
            },
            {
              "pitch": 83,
              "velocity": 70,
              "position": 2.025,
              "duration": 0.083333
            },
            {
              "pitch": 76,
              "velocity": 66,
              "position": 2.35,
              "duration": 0.108333
            },
            {
              "pitch": 74,
              "velocity": 57,
              "position": 2.358333,
              "duration": 0.091667
            },
            {
              "pitch": 79,
              "velocity": 71,
              "position": 2.358333,
              "duration": 0.108333
            },
            {
              "pitch": 83,
              "velocity": 52,
              "position": 2.358333,
              "duration": 0.083333
            },
            {
              "pitch": 74,
              "velocity": 69,
              "position": 2.675,
              "duration": 0.091667
            },
            {
              "pitch": 76,
              "velocity": 80,
              "position": 2.675,
              "duration": 0.125
            },
            {
              "pitch": 79,
              "velocity": 79,
              "position": 2.675,
              "duration": 0.108333
            },
            {
              "pitch": 83,
              "velocity": 66,
              "position": 2.675,
              "duration": 0.108333
            },
            {
              "pitch": 74,
              "velocity": 91,
              "position": 3.016667,
              "duration": 0.075
            },
            {
              "pitch": 76,
              "velocity": 85,
              "position": 3.016667,
              "duration": 0.108333
            },
            {
              "pitch": 79,
              "velocity": 85,
              "position": 3.016667,
              "duration": 0.125
            },
            {
              "pitch": 83,
              "velocity": 76,
              "position": 3.016667,
              "duration": 0.108333
            },
            {
              "pitch": 76,
              "velocity": 77,
              "position": 3.35,
              "duration": 0.091667
            },
            {
              "pitch": 79,
              "velocity": 73,
              "position": 3.35,
              "duration": 0.1
            },
            {
              "pitch": 83,
              "velocity": 53,
              "position": 3.35,
              "duration": 0.091667
            },
            {
              "pitch": 74,
              "velocity": 56,
              "position": 3.358333,
              "duration": 0.041667
            },
            {
              "pitch": 79,
              "velocity": 71,
              "position": 3.666667,
              "duration": 0.116667
            },
            {
              "pitch": 74,
              "velocity": 63,
              "position": 3.675,
              "duration": 0.083333
            },
            {
              "pitch": 76,
              "velocity": 76,
              "position": 3.675,
              "duration": 0.116667
            },
            {
              "pitch": 83,
              "velocity": 54,
              "position": 3.675,
              "duration": 0.091667
            },
            {
              "pitch": 74,
              "velocity": 73,
              "position": 4.025,
              "duration": 0.083333
            },
            {
              "pitch": 76,
              "velocity": 77,
              "position": 4.025,
              "duration": 0.1
            },
            {
              "pitch": 79,
              "velocity": 77,
              "position": 4.025,
              "duration": 0.108333
            },
            {
              "pitch": 83,
              "velocity": 70,
              "position": 4.025,
              "duration": 0.083333
            },
            {
              "pitch": 76,
              "velocity": 66,
              "position": 4.35,
              "duration": 0.108333
            },
            {
              "pitch": 74,
              "velocity": 57,
              "position": 4.358333,
              "duration": 0.091667
            },
            {
              "pitch": 79,
              "velocity": 71,
              "position": 4.358333,
              "duration": 0.108333
            },
            {
              "pitch": 83,
              "velocity": 52,
              "position": 4.358333,
              "duration": 0.083333
            },
            {
              "pitch": 74,
              "velocity": 69,
              "position": 4.675,
              "duration": 0.091667
            },
            {
              "pitch": 76,
              "velocity": 80,
              "position": 4.675,
              "duration": 0.125
            },
            {
              "pitch": 79,
              "velocity": 79,
              "position": 4.675,
              "duration": 0.108333
            },
            {
              "pitch": 83,
              "velocity": 66,
              "position": 4.675,
              "duration": 0.108333
            },
            {
              "pitch": 74,
              "velocity": 91,
              "position": 5.016667,
              "duration": 0.075
            },
            {
              "pitch": 76,
              "velocity": 85,
              "position": 5.016667,
              "duration": 0.108333
            },
            {
              "pitch": 79,
              "velocity": 85,
              "position": 5.016667,
              "duration": 0.125
            },
            {
              "pitch": 83,
              "velocity": 76,
              "position": 5.016667,
              "duration": 0.108333
            },
            {
              "pitch": 76,
              "velocity": 77,
              "position": 5.35,
              "duration": 0.091667
            },
            {
              "pitch": 79,
              "velocity": 73,
              "position": 5.35,
              "duration": 0.1
            },
            {
              "pitch": 83,
              "velocity": 53,
              "position": 5.35,
              "duration": 0.091667
            },
            {
              "pitch": 74,
              "velocity": 56,
              "position": 5.358333,
              "duration": 0.041667
            },
            {
              "pitch": 79,
              "velocity": 71,
              "position": 5.666667,
              "duration": 0.116667
            },
            {
              "pitch": 74,
              "velocity": 63,
              "position": 5.675,
              "duration": 0.083333
            },
            {
              "pitch": 76,
              "velocity": 76,
              "position": 5.675,
              "duration": 0.116667
            },
            {
              "pitch": 83,
              "velocity": 54,
              "position": 5.675,
              "duration": 0.091667
            },
            {
              "pitch": 74,
              "velocity": 73,
              "position": 6.025,
              "duration": 0.083333
            },
            {
              "pitch": 76,
              "velocity": 77,
              "position": 6.025,
              "duration": 0.1
            },
            {
              "pitch": 79,
              "velocity": 77,
              "position": 6.025,
              "duration": 0.108333
            },
            {
              "pitch": 83,
              "velocity": 70,
              "position": 6.025,
              "duration": 0.083333
            },
            {
              "pitch": 76,
              "velocity": 66,
              "position": 6.35,
              "duration": 0.108333
            },
            {
              "pitch": 74,
              "velocity": 57,
              "position": 6.358333,
              "duration": 0.091667
            },
            {
              "pitch": 79,
              "velocity": 71,
              "position": 6.358333,
              "duration": 0.108333
            },
            {
              "pitch": 83,
              "velocity": 52,
              "position": 6.358333,
              "duration": 0.083333
            },
            {
              "pitch": 74,
              "velocity": 69,
              "position": 6.675,
              "duration": 0.091667
            },
            {
              "pitch": 76,
              "velocity": 80,
              "position": 6.675,
              "duration": 0.125
            },
            {
              "pitch": 79,
              "velocity": 79,
              "position": 6.675,
              "duration": 0.108333
            },
            {
              "pitch": 83,
              "velocity": 66,
              "position": 6.675,
              "duration": 0.108333
            },
            {
              "pitch": 74,
              "velocity": 91,
              "position": 7.016667,
              "duration": 0.075
            },
            {
              "pitch": 76,
              "velocity": 85,
              "position": 7.016667,
              "duration": 0.108333
            },
            {
              "pitch": 79,
              "velocity": 85,
              "position": 7.016667,
              "duration": 0.125
            },
            {
              "pitch": 83,
              "velocity": 76,
              "position": 7.016667,
              "duration": 0.108333
            },
            {
              "pitch": 76,
              "velocity": 77,
              "position": 7.35,
              "duration": 0.091667
            },
            {
              "pitch": 79,
              "velocity": 73,
              "position": 7.35,
              "duration": 0.1
            },
            {
              "pitch": 83,
              "velocity": 53,
              "position": 7.35,
              "duration": 0.091667
            },
            {
              "pitch": 74,
              "velocity": 56,
              "position": 7.358333,
              "duration": 0.041667
            },
            {
              "pitch": 79,
              "velocity": 71,
              "position": 7.666667,
              "duration": 0.116667
            },
            {
              "pitch": 74,
              "velocity": 63,
              "position": 7.675,
              "duration": 0.083333
            },
            {
              "pitch": 76,
              "velocity": 76,
              "position": 7.675,
              "duration": 0.116667
            },
            {
              "pitch": 83,
              "velocity": 54,
              "position": 7.675,
              "duration": 0.091667
            },
            {
              "pitch": 74,
              "velocity": 73,
              "position": 8.025,
              "duration": 0.083333
            },
            {
              "pitch": 76,
              "velocity": 77,
              "position": 8.025,
              "duration": 0.1
            },
            {
              "pitch": 79,
              "velocity": 77,
              "position": 8.025,
              "duration": 0.108333
            },
            {
              "pitch": 83,
              "velocity": 70,
              "position": 8.025,
              "duration": 0.083333
            },
            {
              "pitch": 76,
              "velocity": 66,
              "position": 8.35,
              "duration": 0.108333
            },
            {
              "pitch": 74,
              "velocity": 57,
              "position": 8.358333,
              "duration": 0.091667
            },
            {
              "pitch": 79,
              "velocity": 71,
              "position": 8.358333,
              "duration": 0.108333
            },
            {
              "pitch": 83,
              "velocity": 52,
              "position": 8.358333,
              "duration": 0.083333
            },
            {
              "pitch": 74,
              "velocity": 69,
              "position": 8.675,
              "duration": 0.091667
            },
            {
              "pitch": 76,
              "velocity": 80,
              "position": 8.675,
              "duration": 0.125
            },
            {
              "pitch": 79,
              "velocity": 79,
              "position": 8.675,
              "duration": 0.108333
            },
            {
              "pitch": 83,
              "velocity": 66,
              "position": 8.675,
              "duration": 0.108333
            },
            {
              "pitch": 74,
              "velocity": 91,
              "position": 9.016667,
              "duration": 0.075
            },
            {
              "pitch": 76,
              "velocity": 85,
              "position": 9.016667,
              "duration": 0.108333
            },
            {
              "pitch": 79,
              "velocity": 85,
              "position": 9.016667,
              "duration": 0.125
            },
            {
              "pitch": 83,
              "velocity": 76,
              "position": 9.016667,
              "duration": 0.108333
            },
            {
              "pitch": 76,
              "velocity": 77,
              "position": 9.35,
              "duration": 0.091667
            },
            {
              "pitch": 79,
              "velocity": 73,
              "position": 9.35,
              "duration": 0.1
            },
            {
              "pitch": 83,
              "velocity": 53,
              "position": 9.35,
              "duration": 0.091667
            },
            {
              "pitch": 74,
              "velocity": 56,
              "position": 9.358333,
              "duration": 0.041667
            },
            {
              "pitch": 79,
              "velocity": 71,
              "position": 9.666667,
              "duration": 0.116667
            },
            {
              "pitch": 74,
              "velocity": 63,
              "position": 9.675,
              "duration": 0.083333
            },
            {
              "pitch": 76,
              "velocity": 76,
              "position": 9.675,
              "duration": 0.116667
            },
            {
              "pitch": 83,
              "velocity": 54,
              "position": 9.675,
              "duration": 0.091667
            },
            {
              "pitch": 76,
              "velocity": 83,
              "position": 9.991667,
              "duration": 0.15
            },
            {
              "pitch": 79,
              "velocity": 86,
              "position": 9.991667,
              "duration": 0.133333
            },
            {
              "pitch": 83,
              "velocity": 80,
              "position": 9.991667,
              "duration": 0.116667
            },
            {
              "pitch": 74,
              "velocity": 85,
              "position": 10.008333,
              "duration": 0.083333
            },
            {
              "pitch": 74,
              "velocity": 62,
              "position": 10.35,
              "duration": 0.083333
            },
            {
              "pitch": 76,
              "velocity": 74,
              "position": 10.35,
              "duration": 0.1
            },
            {
              "pitch": 79,
              "velocity": 67,
              "position": 10.35,
              "duration": 0.108333
            },
            {
              "pitch": 83,
              "velocity": 50,
              "position": 10.35,
              "duration": 0.083333
            },
            {
              "pitch": 74,
              "velocity": 69,
              "position": 10.666667,
              "duration": 0.1
            },
            {
              "pitch": 76,
              "velocity": 75,
              "position": 10.675,
              "duration": 0.125
            },
            {
              "pitch": 79,
              "velocity": 72,
              "position": 10.675,
              "duration": 0.116667
            },
            {
              "pitch": 83,
              "velocity": 50,
              "position": 10.675,
              "duration": 0.1
            },
            {
              "pitch": 74,
              "velocity": 99,
              "position": 11.008333,
              "duration": 0.091667
            },
            {
              "pitch": 76,
              "velocity": 90,
              "position": 11.008333,
              "duration": 0.133333
            },
            {
              "pitch": 79,
              "velocity": 87,
              "position": 11.008333,
              "duration": 0.125
            },
            {
              "pitch": 83,
              "velocity": 84,
              "position": 11.008333,
              "duration": 0.108333
            },
            {
              "pitch": 74,
              "velocity": 61,
              "position": 11.341667,
              "duration": 0.083333
            },
            {
              "pitch": 76,
              "velocity": 78,
              "position": 11.341667,
              "duration": 0.1
            },
            {
              "pitch": 79,
              "velocity": 72,
              "position": 11.341667,
              "duration": 0.108333
            },
            {
              "pitch": 83,
              "velocity": 55,
              "position": 11.341667,
              "duration": 0.108333
            },
            {
              "pitch": 83,
              "velocity": 46,
              "position": 11.675,
              "duration": 0.1
            },
            {
              "pitch": 74,
              "velocity": 63,
              "position": 11.683333,
              "duration": 0.075
            },
            {
              "pitch": 76,
              "velocity": 73,
              "position": 11.683333,
              "duration": 0.1
            },
            {
              "pitch": 79,
              "velocity": 70,
              "position": 11.683333,
              "duration": 0.1
            },
            {
              "pitch": 74,
              "velocity": 88,
              "position": 11.991667,
              "duration": 0.1
            },
            {
              "pitch": 76,
              "velocity": 81,
              "position": 11.991667,
              "duration": 0.133333
            },
            {
              "pitch": 79,
              "velocity": 85,
              "position": 11.991667,
              "duration": 0.133333
            },
            {
              "pitch": 83,
              "velocity": 81,
              "position": 11.991667,
              "duration": 0.108333
            },
            {
              "pitch": 76,
              "velocity": 67,
              "position": 12.333333,
              "duration": 0.116667
            },
            {
              "pitch": 74,
              "velocity": 53,
              "position": 12.341667,
              "duration": 0.083333
            },
            {
              "pitch": 79,
              "velocity": 60,
              "position": 12.341667,
              "duration": 0.116667
            },
            {
              "pitch": 83,
              "velocity": 46,
              "position": 12.341667,
              "duration": 0.108333
            },
            {
              "pitch": 74,
              "velocity": 66,
              "position": 12.675,
              "duration": 0.1
            },
            {
              "pitch": 83,
              "velocity": 51,
              "position": 12.675,
              "duration": 0.108333
            },
            {
              "pitch": 76,
              "velocity": 75,
              "position": 12.683333,
              "duration": 0.1
            },
            {
              "pitch": 79,
              "velocity": 69,
              "position": 12.683333,
              "duration": 0.108333
            },
            {
              "pitch": 74,
              "velocity": 92,
              "position": 13.016667,
              "duration": 0.116667
            },
            {
              "pitch": 76,
              "velocity": 88,
              "position": 13.016667,
              "duration": 0.15
            },
            {
              "pitch": 79,
              "velocity": 87,
              "position": 13.016667,
              "duration": 0.141667
            },
            {
              "pitch": 83,
              "velocity": 79,
              "position": 13.016667,
              "duration": 0.141667
            },
            {
              "pitch": 83,
              "velocity": 47,
              "position": 13.341667,
              "duration": 0.108333
            },
            {
              "pitch": 74,
              "velocity": 54,
              "position": 13.35,
              "duration": 0.05
            },
            {
              "pitch": 76,
              "velocity": 69,
              "position": 13.35,
              "duration": 0.1
            },
            {
              "pitch": 79,
              "velocity": 63,
              "position": 13.35,
              "duration": 0.1
            },
            {
              "pitch": 74,
              "velocity": 65,
              "position": 13.683333,
              "duration": 0.1
            },
            {
              "pitch": 76,
              "velocity": 72,
              "position": 13.683333,
              "duration": 0.116667
            },
            {
              "pitch": 79,
              "velocity": 67,
              "position": 13.683333,
              "duration": 0.108333
            },
            {
              "pitch": 83,
              "velocity": 48,
              "position": 13.683333,
              "duration": 0.091667
            },
            {
              "pitch": 74,
              "velocity": 92,
              "position": 14.016667,
              "duration": 0.1
            },
            {
              "pitch": 76,
              "velocity": 87,
              "position": 14.016667,
              "duration": 0.116667
            },
            {
              "pitch": 79,
              "velocity": 87,
              "position": 14.016667,
              "duration": 0.125
            },
            {
              "pitch": 83,
              "velocity": 86,
              "position": 14.016667,
              "duration": 0.108333
            },
            {
              "pitch": 74,
              "velocity": 52,
              "position": 14.35,
              "duration": 0.091667
            },
            {
              "pitch": 76,
              "velocity": 62,
              "position": 14.35,
              "duration": 0.116667
            },
            {
              "pitch": 79,
              "velocity": 62,
              "position": 14.35,
              "duration": 0.116667
            },
            {
              "pitch": 83,
              "velocity": 40,
              "position": 14.358333,
              "duration": 0.108333
            },
            {
              "pitch": 74,
              "velocity": 65,
              "position": 14.683333,
              "duration": 0.091667
            },
            {
              "pitch": 76,
              "velocity": 74,
              "position": 14.683333,
              "duration": 0.108333
            },
            {
              "pitch": 79,
              "velocity": 70,
              "position": 14.683333,
              "duration": 0.108333
            },
            {
              "pitch": 83,
              "velocity": 49,
              "position": 14.683333,
              "duration": 0.1
            },
            {
              "pitch": 74,
              "velocity": 83,
              "position": 15.008333,
              "duration": 0.1
            },
            {
              "pitch": 76,
              "velocity": 83,
              "position": 15.008333,
              "duration": 0.133333
            },
            {
              "pitch": 79,
              "velocity": 81,
              "position": 15.008333,
              "duration": 0.133333
            },
            {
              "pitch": 83,
              "velocity": 76,
              "position": 15.008333,
              "duration": 0.116667
            },
            {
              "pitch": 74,
              "velocity": 64,
              "position": 15.35,
              "duration": 0.075
            },
            {
              "pitch": 76,
              "velocity": 74,
              "position": 15.35,
              "duration": 0.1
            },
            {
              "pitch": 79,
              "velocity": 69,
              "position": 15.35,
              "duration": 0.1
            },
            {
              "pitch": 83,
              "velocity": 48,
              "position": 15.358333,
              "duration": 0.066667
            },
            {
              "pitch": 74,
              "velocity": 73,
              "position": 15.675,
              "duration": 0.325
            },
            {
              "pitch": 76,
              "velocity": 74,
              "position": 15.683333,
              "duration": 0.316667
            },
            {
              "pitch": 79,
              "velocity": 71,
              "position": 15.683333,
              "duration": 0.116667
            },
            {
              "pitch": 83,
              "velocity": 55,
              "position": 15.683333,
              "duration": 0.125
            }
          ]
        },
        "12": {
          "ctab": {
            "srcChannel": 12,
            "name": "Guitar",
            "accType": "CHORD2",
            "editable": true,
            "mutedNotes": [],
            "mutedChords": [],
            "sourceChordNote": 0,
            "sourceChordType": "Maj7",
            "ctb2Main": {
              "ntr": "ROOT_FIXED",
              "ntt": "CHORD",
              "bassOn": false,
              "noteLowLimit": 40,
              "noteHighLimit": 76,
              "chordRootUpperLimit": 127,
              "rtr": "NOTE_GENERATOR"
            }
          },
          "notes": [
            {
              "pitch": 48,
              "velocity": 50,
              "position": 0.0,
              "duration": 1.375
            },
            {
              "pitch": 55,
              "velocity": 70,
              "position": 0.066667,
              "duration": 1.308333
            },
            {
              "pitch": 59,
              "velocity": 58,
              "position": 0.125,
              "duration": 1.25
            },
            {
              "pitch": 64,
              "velocity": 68,
              "position": 0.208333,
              "duration": 1.166667
            },
            {
              "pitch": 67,
              "velocity": 66,
              "position": 0.308333,
              "duration": 1.066667
            },
            {
              "pitch": 48,
              "velocity": 57,
              "position": 1.633333,
              "duration": 2.341667
            },
            {
              "pitch": 55,
              "velocity": 68,
              "position": 1.65,
              "duration": 2.325
            },
            {
              "pitch": 59,
              "velocity": 68,
              "position": 1.675,
              "duration": 2.3
            },
            {
              "pitch": 64,
              "velocity": 68,
              "position": 1.691667,
              "duration": 2.283333
            },
            {
              "pitch": 67,
              "velocity": 68,
              "position": 1.716667,
              "duration": 2.258333
            },
            {
              "pitch": 48,
              "velocity": 50,
              "position": 4.0,
              "duration": 1.983333
            },
            {
              "pitch": 55,
              "velocity": 70,
              "position": 4.066667,
              "duration": 1.883333
            },
            {
              "pitch": 59,
              "velocity": 58,
              "position": 4.125,
              "duration": 1.858333
            },
            {
              "pitch": 64,
              "velocity": 68,
              "position": 4.208333,
              "duration": 1.775
            },
            {
              "pitch": 67,
              "velocity": 66,
              "position": 4.308333,
              "duration": 1.675
            },
            {
              "pitch": 43,
              "velocity": 54,
              "position": 5.95,
              "duration": 1.025
            },
            {
              "pitch": 52,
              "velocity": 68,
              "position": 5.966667,
              "duration": 1.008333
            },
            {
              "pitch": 55,
              "velocity": 68,
              "position": 5.991667,
              "duration": 0.983333
            },
            {
              "pitch": 59,
              "velocity": 68,
              "position": 6.008333,
              "duration": 0.966667
            },
            {
              "pitch": 64,
              "velocity": 68,
              "position": 6.033333,
              "duration": 0.941667
            },
            {
              "pitch": 43,
              "velocity": 52,
              "position": 7.016667,
              "duration": 0.275
            },
            {
              "pitch": 52,
              "velocity": 66,
              "position": 7.016667,
              "duration": 0.275
            },
            {
              "pitch": 55,
              "velocity": 66,
              "position": 7.016667,
              "duration": 0.275
            },
            {
              "pitch": 59,
              "velocity": 66,
              "position": 7.016667,
              "duration": 0.275
            },
            {
              "pitch": 64,
              "velocity": 66,
              "position": 7.016667,
              "duration": 0.275
            },
            {
              "pitch": 43,
              "velocity": 51,
              "position": 8.0,
              "duration": 6.766667
            },
            {
              "pitch": 52,
              "velocity": 73,
              "position": 8.608333,
              "duration": 6.216667
            },
            {
              "pitch": 55,
              "velocity": 61,
              "position": 8.675,
              "duration": 5.983333
            },
            {
              "pitch": 59,
              "velocity": 66,
              "position": 8.716667,
              "duration": 5.775
            },
            {
              "pitch": 64,
              "velocity": 70,
              "position": 8.808333,
              "duration": 5.783333
            },
            {
              "pitch": 43,
              "velocity": 51,
              "position": 15.0,
              "duration": 0.158333
            },
            {
              "pitch": 52,
              "velocity": 64,
              "position": 15.0,
              "duration": 0.158333
            },
            {
              "pitch": 55,
              "velocity": 64,
              "position": 15.0,
              "duration": 0.158333
            },
            {
              "pitch": 59,
              "velocity": 64,
              "position": 15.0,
              "duration": 0.158333
            },
            {
              "pitch": 64,
              "velocity": 64,
              "position": 15.0,
              "duration": 0.158333
            },
            {
              "pitch": 43,
              "velocity": 54,
              "position": 15.616667,
              "duration": 1.341667
            },
            {
              "pitch": 48,
              "velocity": 57,
              "position": 15.633333,
              "duration": 1.325
            },
            {
              "pitch": 52,
              "velocity": 68,
              "position": 15.65,
              "duration": 1.308333
            },
            {
              "pitch": 55,
              "velocity": 68,
              "position": 15.666667,
              "duration": 1.291667
            },
            {
              "pitch": 59,
              "velocity": 68,
              "position": 15.683333,
              "duration": 1.275
            },
            {
              "pitch": 64,
              "velocity": 68,
              "position": 15.7,
              "duration": 1.258333
            }
          ]
        },
        "13": {
          "ctab": {
            "srcChannel": 13,
            "name": "Strings",
            "accType": "PAD",
            "editable": true,
            "mutedNotes": [],
            "mutedChords": [],
            "sourceChordNote": 0,
            "sourceChordType": "Maj7",
            "ctb2Main": {
              "ntr": "ROOT_FIXED",
              "ntt": "MELODY",
              "bassOn": false,
              "noteLowLimit": 36,
              "noteHighLimit": 96,
              "chordRootUpperLimit": 127,
              "rtr": "PITCH_SHIFT"
            }
          },
          "notes": []
        }
      }
    },
    "Ending_A": {
      "type": "Ending_A",
      "sizeInBeats": 16,
      "channels": {
        "9": {
          "ctab": {
            "srcChannel": 9,
            "name": "Drums",
            "accType": "RHYTHM",
            "editable": false,
            "mutedNotes": [],
            "mutedChords": [],
            "sourceChordNote": 0,
            "sourceChordType": "Maj",
            "ctb2Main": {
              "ntr": "ROOT_FIXED",
              "ntt": "BYPASS",
              "bassOn": false,
              "noteLowLimit": 20,
              "noteHighLimit": 127,
              "chordRootUpperLimit": 127,
              "rtr": "RETRIGGER"
            }
          },
          "notes": [
            {
              "pitch": 36,
              "velocity": 90,
              "position": 0.0,
              "duration": 1.433333
            },
            {
              "pitch": 57,
              "velocity": 127,
              "position": 0.0,
              "duration": 0.066667
            },
            {
              "pitch": 51,
              "velocity": 72,
              "position": 0.333333,
              "duration": 0.05
            },
            {
              "pitch": 51,
              "velocity": 76,
              "position": 0.666667,
              "duration": 0.075
            },
            {
              "pitch": 38,
              "velocity": 108,
              "position": 1.0,
              "duration": 0.233333
            },
            {
              "pitch": 51,
              "velocity": 114,
              "position": 1.0,
              "duration": 0.108333
            },
            {
              "pitch": 51,
              "velocity": 74,
              "position": 1.333333,
              "duration": 0.058333
            },
            {
              "pitch": 51,
              "velocity": 73,
              "position": 1.566667,
              "duration": 0.041667
            },
            {
              "pitch": 36,
              "velocity": 66,
              "position": 1.666667,
              "duration": 0.058333
            },
            {
              "pitch": 51,
              "velocity": 91,
              "position": 1.666667,
              "duration": 0.083333
            },
            {
              "pitch": 36,
              "velocity": 91,
              "position": 2.0,
              "duration": 1.425
            },
            {
              "pitch": 51,
              "velocity": 112,
              "position": 2.0,
              "duration": 0.166667
            },
            {
              "pitch": 51,
              "velocity": 57,
              "position": 2.333333,
              "duration": 0.1
            },
            {
              "pitch": 51,
              "velocity": 77,
              "position": 2.666667,
              "duration": 0.075
            },
            {
              "pitch": 38,
              "velocity": 113,
              "position": 3.0,
              "duration": 0.25
            },
            {
              "pitch": 51,
              "velocity": 114,
              "position": 3.0,
              "duration": 0.141667
            },
            {
              "pitch": 51,
              "velocity": 74,
              "position": 3.333333,
              "duration": 0.108333
            },
            {
              "pitch": 36,
              "velocity": 83,
              "position": 3.666667,
              "duration": 0.091667
            },
            {
              "pitch": 51,
              "velocity": 97,
              "position": 3.666667,
              "duration": 0.133333
            },
            {
              "pitch": 51,
              "velocity": 73,
              "position": 3.9,
              "duration": 0.083333
            },
            {
              "pitch": 36,
              "velocity": 90,
              "position": 4.0,
              "duration": 0.341667
            },
            {
              "pitch": 51,
              "velocity": 98,
              "position": 4.0,
              "duration": 0.191667
            },
            {
              "pitch": 51,
              "velocity": 50,
              "position": 4.333333,
              "duration": 0.108333
            },
            {
              "pitch": 51,
              "velocity": 68,
              "position": 4.666667,
              "duration": 0.066667
            },
            {
              "pitch": 38,
              "velocity": 99,
              "position": 5.0,
              "duration": 0.15
            },
            {
              "pitch": 51,
              "velocity": 110,
              "position": 5.0,
              "duration": 0.116667
            },
            {
              "pitch": 51,
              "velocity": 61,
              "position": 5.333333,
              "duration": 0.083333
            },
            {
              "pitch": 36,
              "velocity": 69,
              "position": 5.666667,
              "duration": 0.3
            },
            {
              "pitch": 51,
              "velocity": 77,
              "position": 5.666667,
              "duration": 0.075
            },
            {
              "pitch": 36,
              "velocity": 89,
              "position": 6.0,
              "duration": 0.166667
            },
            {
              "pitch": 51,
              "velocity": 92,
              "position": 6.0,
              "duration": 0.133333
            },
            {
              "pitch": 51,
              "velocity": 63,
              "position": 6.333333,
              "duration": 0.05
            },
            {
              "pitch": 51,
              "velocity": 76,
              "position": 6.566667,
              "duration": 0.041667
            },
            {
              "pitch": 36,
              "velocity": 78,
              "position": 6.666667,
              "duration": 0.341667
            },
            {
              "pitch": 51,
              "velocity": 79,
              "position": 6.666667,
              "duration": 0.066667
            },
            {
              "pitch": 38,
              "velocity": 103,
              "position": 7.0,
              "duration": 0.191667
            },
            {
              "pitch": 51,
              "velocity": 110,
              "position": 7.0,
              "duration": 0.15
            },
            {
              "pitch": 51,
              "velocity": 67,
              "position": 7.333333,
              "duration": 0.075
            },
            {
              "pitch": 36,
              "velocity": 58,
              "position": 7.666667,
              "duration": 0.075
            },
            {
              "pitch": 51,
              "velocity": 80,
              "position": 7.666667,
              "duration": 0.075
            },
            {
              "pitch": 36,
              "velocity": 89,
              "position": 8.0,
              "duration": 0.425
            },
            {
              "pitch": 51,
              "velocity": 98,
              "position": 8.0,
              "duration": 0.15
            },
            {
              "pitch": 51,
              "velocity": 59,
              "position": 8.333333,
              "duration": 0.041667
            },
            {
              "pitch": 51,
              "velocity": 82,
              "position": 8.558333,
              "duration": 0.041667
            },
            {
              "pitch": 36,
              "velocity": 46,
              "position": 8.666667,
              "duration": 0.333333
            },
            {
              "pitch": 51,
              "velocity": 89,
              "position": 8.666667,
              "duration": 0.066667
            },
            {
              "pitch": 38,
              "velocity": 101,
              "position": 9.0,
              "duration": 0.275
            },
            {
              "pitch": 51,
              "velocity": 114,
              "position": 9.0,
              "duration": 0.116667
            },
            {
              "pitch": 51,
              "velocity": 72,
              "position": 9.333333,
              "duration": 0.066667
            },
            {
              "pitch": 36,
              "velocity": 30,
              "position": 9.666667,
              "duration": 0.108333
            },
            {
              "pitch": 51,
              "velocity": 76,
              "position": 9.666667,
              "duration": 0.066667
            },
            {
              "pitch": 36,
              "velocity": 91,
              "position": 10.0,
              "duration": 0.408333
            },
            {
              "pitch": 51,
              "velocity": 103,
              "position": 10.0,
              "duration": 0.15
            },
            {
              "pitch": 51,
              "velocity": 68,
              "position": 10.333333,
              "duration": 0.091667
            },
            {
              "pitch": 36,
              "velocity": 35,
              "position": 10.666667,
              "duration": 0.333333
            },
            {
              "pitch": 51,
              "velocity": 77,
              "position": 10.666667,
              "duration": 0.083333
            },
            {
              "pitch": 38,
              "velocity": 105,
              "position": 11.0,
              "duration": 0.233333
            },
            {
              "pitch": 51,
              "velocity": 112,
              "position": 11.0,
              "duration": 0.1
            },
            {
              "pitch": 51,
              "velocity": 90,
              "position": 11.333333,
              "duration": 0.1
            },
            {
              "pitch": 36,
              "velocity": 33,
              "position": 11.666667,
              "duration": 0.091667
            },
            {
              "pitch": 51,
              "velocity": 80,
              "position": 11.666667,
              "duration": 0.083333
            },
            {
              "pitch": 36,
              "velocity": 90,
              "position": 12.0,
              "duration": 0.741667
            },
            {
              "pitch": 51,
              "velocity": 98,
              "position": 12.0,
              "duration": 0.133333
            },
            {
              "pitch": 51,
              "velocity": 71,
              "position": 12.333333,
              "duration": 0.091667
            },
            {
              "pitch": 51,
              "velocity": 73,
              "position": 12.666667,
              "duration": 0.075
            },
            {
              "pitch": 38,
              "velocity": 105,
              "position": 13.0,
              "duration": 0.383333
            },
            {
              "pitch": 51,
              "velocity": 105,
              "position": 13.0,
              "duration": 0.141667
            },
            {
              "pitch": 51,
              "velocity": 73,
              "position": 13.333333,
              "duration": 0.066667
            },
            {
              "pitch": 51,
              "velocity": 78,
              "position": 13.566667,
              "duration": 0.033333
            },
            {
              "pitch": 36,
              "velocity": 55,
              "position": 13.666667,
              "duration": 0.266667
            },
            {
              "pitch": 51,
              "velocity": 90,
              "position": 13.666667,
              "duration": 0.075
            },
            {
              "pitch": 36,
              "velocity": 95,
              "position": 14.0,
              "duration": 0.408333
            },
            {
              "pitch": 51,
              "velocity": 101,
              "position": 14.0,
              "duration": 0.15
            },
            {
              "pitch": 51,
              "velocity": 68,
              "position": 14.333333,
              "duration": 0.075
            },
            {
              "pitch": 38,
              "velocity": 99,
              "position": 14.666667,
              "duration": 0.25
            },
            {
              "pitch": 51,
              "velocity": 107,
              "position": 14.666667,
              "duration": 0.266667
            },
            {
              "pitch": 36,
              "velocity": 83,
              "position": 15.0,
              "duration": 0.266667
            },
            {
              "pitch": 51,
              "velocity": 80,
              "position": 15.0,
              "duration": 0.1
            },
            {
              "pitch": 38,
              "velocity": 101,
              "position": 15.333333,
              "duration": 0.266667
            },
            {
              "pitch": 51,
              "velocity": 105,
              "position": 15.333333,
              "duration": 0.266667
            },
            {
              "pitch": 36,
              "velocity": 75,
              "position": 15.666667,
              "duration": 0.266667
            },
            {
              "pitch": 51,
              "velocity": 76,
              "position": 15.666667,
              "duration": 0.083333
            }
          ]
        },
        "10": {
          "ctab": {
            "srcChannel": 10,
            "name": "Bass",
            "accType": "BASS",
            "editable": true,
            "mutedNotes": [],
            "mutedChords": [],
            "sourceChordNote": 0,
            "sourceChordType": "Maj7",
            "ctb2Main": {
              "ntr": "ROOT_TRANSPOSITION",
              "ntt": "BYPASS",
              "bassOn": true,
              "noteLowLimit": 20,
              "noteHighLimit": 60,
              "chordRootUpperLimit": 127,
              "rtr": "NOTE_GENERATOR"
            }
          },
          "notes": [
            {
              "pitch": 36,
              "velocity": 95,
              "position": 0.0,
              "duration": 0.875
            },
            {
              "pitch": 36,
              "velocity": 91,
              "position": 1.0,
              "duration": 0.225
            },
            {
              "pitch": 36,
              "velocity": 86,
              "position": 1.333333,
              "duration": 0.283333
            },
            {
              "pitch": 35,
              "velocity": 91,
              "position": 1.666667,
              "duration": 0.316667
            },
            {
              "pitch": 36,
              "velocity": 95,
              "position": 2.0,
              "duration": 0.875
            },
            {
              "pitch": 36,
              "velocity": 91,
              "position": 3.0,
              "duration": 0.225
            },
            {
              "pitch": 36,
              "velocity": 86,
              "position": 3.333333,
              "duration": 0.283333
            },
            {
              "pitch": 35,
              "velocity": 91,
              "position": 3.666667,
              "duration": 0.316667
            },
            {
              "pitch": 36,
              "velocity": 95,
              "position": 4.0,
              "duration": 0.875
            },
            {
              "pitch": 36,
              "velocity": 91,
              "position": 5.0,
              "duration": 0.225
            },
            {
              "pitch": 36,
              "velocity": 86,
              "position": 5.333333,
              "duration": 0.283333
            },
            {
              "pitch": 35,
              "velocity": 91,
              "position": 5.666667,
              "duration": 0.316667
            },
            {
              "pitch": 36,
              "velocity": 95,
              "position": 6.0,
              "duration": 0.875
            },
            {
              "pitch": 36,
              "velocity": 91,
              "position": 7.0,
              "duration": 0.225
            },
            {
              "pitch": 36,
              "velocity": 86,
              "position": 7.333333,
              "duration": 0.283333
            },
            {
              "pitch": 35,
              "velocity": 91,
              "position": 7.666667,
              "duration": 0.316667
            },
            {
              "pitch": 36,
              "velocity": 86,
              "position": 8.008333,
              "duration": 0.966667
            },
            {
              "pitch": 40,
              "velocity": 89,
              "position": 9.041667,
              "duration": 0.491667
            },
            {
              "pitch": 40,
              "velocity": 90,
              "position": 9.691667,
              "duration": 0.316667
            },
            {
              "pitch": 43,
              "velocity": 87,
              "position": 10.016667,
              "duration": 1.016667
            },
            {
              "pitch": 40,
              "velocity": 97,
              "position": 11.016667,
              "duration": 0.691667
            },
            {
              "pitch": 43,
              "velocity": 81,
              "position": 11.7,
              "duration": 0.3
            },
            {
              "pitch": 36,
              "velocity": 86,
              "position": 12.008333,
              "duration": 0.966667
            },
            {
              "pitch": 40,
              "velocity": 89,
              "position": 13.041667,
              "duration": 0.491667
            },
            {
              "pitch": 40,
              "velocity": 90,
              "position": 13.691667,
              "duration": 0.316667
            },
            {
              "pitch": 43,
              "velocity": 87,
              "position": 14.016667,
              "duration": 1.016667
            },
            {
              "pitch": 40,
              "velocity": 97,
              "position": 15.016667,
              "duration": 0.691667
            },
            {
              "pitch": 43,
              "velocity": 81,
              "position": 15.7,
              "duration": 0.3
            }
          ]
        },
        "11": {
          "ctab": {
            "srcChannel": 11,
            "name": "Piano",
            "accType": "CHORD1",
            "editable": true,
            "mutedNotes": [],
            "mutedChords": [],
            "sourceChordNote": 0,
            "sourceChordType": "Maj7",
            "ctb2Main": {
              "ntr": "ROOT_FIXED",
              "ntt": "CHORD",
              "bassOn": false,
              "noteLowLimit": 48,
              "noteHighLimit": 84,
              "chordRootUpperLimit": 127,
              "rtr": "NOTE_GENERATOR"
            }
          },
          "notes": [
            {
              "pitch": 74,
              "velocity": 63,
              "position": 0.025,
              "duration": 0.083333
            },
            {
              "pitch": 76,
              "velocity": 67,
              "position": 0.025,
              "duration": 0.1
            },
            {
              "pitch": 79,
              "velocity": 67,
              "position": 0.025,
              "duration": 0.108333
            },
            {
              "pitch": 83,
              "velocity": 60,
              "position": 0.025,
              "duration": 0.083333
            },
            {
              "pitch": 76,
              "velocity": 56,
              "position": 0.35,
              "duration": 0.108333
            },
            {
              "pitch": 74,
              "velocity": 47,
              "position": 0.358333,
              "duration": 0.091667
            },
            {
              "pitch": 79,
              "velocity": 61,
              "position": 0.358333,
              "duration": 0.108333
            },
            {
              "pitch": 83,
              "velocity": 42,
              "position": 0.358333,
              "duration": 0.083333
            },
            {
              "pitch": 74,
              "velocity": 59,
              "position": 0.675,
              "duration": 0.091667
            },
            {
              "pitch": 76,
              "velocity": 70,
              "position": 0.675,
              "duration": 0.125
            },
            {
              "pitch": 79,
              "velocity": 69,
              "position": 0.675,
              "duration": 0.108333
            },
            {
              "pitch": 83,
              "velocity": 56,
              "position": 0.675,
              "duration": 0.108333
            },
            {
              "pitch": 74,
              "velocity": 81,
              "position": 1.016667,
              "duration": 0.075
            },
            {
              "pitch": 76,
              "velocity": 75,
              "position": 1.016667,
              "duration": 0.108333
            },
            {
              "pitch": 79,
              "velocity": 75,
              "position": 1.016667,
              "duration": 0.125
            },
            {
              "pitch": 83,
              "velocity": 66,
              "position": 1.016667,
              "duration": 0.108333
            },
            {
              "pitch": 76,
              "velocity": 67,
              "position": 1.35,
              "duration": 0.091667
            },
            {
              "pitch": 79,
              "velocity": 63,
              "position": 1.35,
              "duration": 0.1
            },
            {
              "pitch": 83,
              "velocity": 43,
              "position": 1.35,
              "duration": 0.091667
            },
            {
              "pitch": 74,
              "velocity": 46,
              "position": 1.358333,
              "duration": 0.041667
            },
            {
              "pitch": 79,
              "velocity": 61,
              "position": 1.666667,
              "duration": 0.116667
            },
            {
              "pitch": 74,
              "velocity": 53,
              "position": 1.675,
              "duration": 0.083333
            },
            {
              "pitch": 76,
              "velocity": 66,
              "position": 1.675,
              "duration": 0.116667
            },
            {
              "pitch": 83,
              "velocity": 44,
              "position": 1.675,
              "duration": 0.091667
            },
            {
              "pitch": 74,
              "velocity": 63,
              "position": 2.025,
              "duration": 0.083333
            },
            {
              "pitch": 76,
              "velocity": 67,
              "position": 2.025,
              "duration": 0.1
            },
            {
              "pitch": 79,
              "velocity": 67,
              "position": 2.025,
              "duration": 0.108333
            },
            {
              "pitch": 83,
              "velocity": 60,
              "position": 2.025,
              "duration": 0.083333
            },
            {
              "pitch": 76,
              "velocity": 56,
              "position": 2.35,
              "duration": 0.108333
            },
            {
              "pitch": 74,
              "velocity": 47,
              "position": 2.358333,
              "duration": 0.091667
            },
            {
              "pitch": 79,
              "velocity": 61,
              "position": 2.358333,
              "duration": 0.108333
            },
            {
              "pitch": 83,
              "velocity": 42,
              "position": 2.358333,
              "duration": 0.083333
            },
            {
              "pitch": 74,
              "velocity": 59,
              "position": 2.675,
              "duration": 0.091667
            },
            {
              "pitch": 76,
              "velocity": 70,
              "position": 2.675,
              "duration": 0.125
            },
            {
              "pitch": 79,
              "velocity": 69,
              "position": 2.675,
              "duration": 0.108333
            },
            {
              "pitch": 83,
              "velocity": 56,
              "position": 2.675,
              "duration": 0.108333
            },
            {
              "pitch": 74,
              "velocity": 81,
              "position": 3.016667,
              "duration": 0.075
            },
            {
              "pitch": 76,
              "velocity": 75,
              "position": 3.016667,
              "duration": 0.108333
            },
            {
              "pitch": 79,
              "velocity": 75,
              "position": 3.016667,
              "duration": 0.125
            },
            {
              "pitch": 83,
              "velocity": 66,
              "position": 3.016667,
              "duration": 0.108333
            },
            {
              "pitch": 76,
              "velocity": 67,
              "position": 3.35,
              "duration": 0.091667
            },
            {
              "pitch": 79,
              "velocity": 63,
              "position": 3.35,
              "duration": 0.1
            },
            {
              "pitch": 83,
              "velocity": 43,
              "position": 3.35,
              "duration": 0.091667
            },
            {
              "pitch": 74,
              "velocity": 46,
              "position": 3.358333,
              "duration": 0.041667
            },
            {
              "pitch": 79,
              "velocity": 61,
              "position": 3.666667,
              "duration": 0.116667
            },
            {
              "pitch": 74,
              "velocity": 53,
              "position": 3.675,
              "duration": 0.083333
            },
            {
              "pitch": 76,
              "velocity": 66,
              "position": 3.675,
              "duration": 0.116667
            },
            {
              "pitch": 83,
              "velocity": 44,
              "position": 3.675,
              "duration": 0.091667
            },
            {
              "pitch": 74,
              "velocity": 63,
              "position": 4.025,
              "duration": 0.083333
            },
            {
              "pitch": 76,
              "velocity": 67,
              "position": 4.025,
              "duration": 0.1
            },
            {
              "pitch": 79,
              "velocity": 67,
              "position": 4.025,
              "duration": 0.108333
            },
            {
              "pitch": 83,
              "velocity": 60,
              "position": 4.025,
              "duration": 0.083333
            },
            {
              "pitch": 76,
              "velocity": 56,
              "position": 4.35,
              "duration": 0.108333
            },
            {
              "pitch": 74,
              "velocity": 47,
              "position": 4.358333,
              "duration": 0.091667
            },
            {
              "pitch": 79,
              "velocity": 61,
              "position": 4.358333,
              "duration": 0.108333
            },
            {
              "pitch": 83,
              "velocity": 42,
              "position": 4.358333,
              "duration": 0.083333
            },
            {
              "pitch": 74,
              "velocity": 59,
              "position": 4.675,
              "duration": 0.091667
            },
            {
              "pitch": 76,
              "velocity": 70,
              "position": 4.675,
              "duration": 0.125
            },
            {
              "pitch": 79,
              "velocity": 69,
              "position": 4.675,
              "duration": 0.108333
            },
            {
              "pitch": 83,
              "velocity": 56,
              "position": 4.675,
              "duration": 0.108333
            },
            {
              "pitch": 74,
              "velocity": 81,
              "position": 5.016667,
              "duration": 0.075
            },
            {
              "pitch": 76,
              "velocity": 75,
              "position": 5.016667,
              "duration": 0.108333
            },
            {
              "pitch": 79,
              "velocity": 75,
              "position": 5.016667,
              "duration": 0.125
            },
            {
              "pitch": 83,
              "velocity": 66,
              "position": 5.016667,
              "duration": 0.108333
            },
            {
              "pitch": 76,
              "velocity": 67,
              "position": 5.35,
              "duration": 0.091667
            },
            {
              "pitch": 79,
              "velocity": 63,
              "position": 5.35,
              "duration": 0.1
            },
            {
              "pitch": 83,
              "velocity": 43,
              "position": 5.35,
              "duration": 0.091667
            },
            {
              "pitch": 74,
              "velocity": 46,
              "position": 5.358333,
              "duration": 0.041667
            },
            {
              "pitch": 79,
              "velocity": 61,
              "position": 5.666667,
              "duration": 0.116667
            },
            {
              "pitch": 74,
              "velocity": 53,
              "position": 5.675,
              "duration": 0.083333
            },
            {
              "pitch": 76,
              "velocity": 66,
              "position": 5.675,
              "duration": 0.116667
            },
            {
              "pitch": 83,
              "velocity": 44,
              "position": 5.675,
              "duration": 0.091667
            },
            {
              "pitch": 74,
              "velocity": 63,
              "position": 6.025,
              "duration": 0.083333
            },
            {
              "pitch": 76,
              "velocity": 67,
              "position": 6.025,
              "duration": 0.1
            },
            {
              "pitch": 79,
              "velocity": 67,
              "position": 6.025,
              "duration": 0.108333
            },
            {
              "pitch": 83,
              "velocity": 60,
              "position": 6.025,
              "duration": 0.083333
            },
            {
              "pitch": 76,
              "velocity": 56,
              "position": 6.35,
              "duration": 0.108333
            },
            {
              "pitch": 74,
              "velocity": 47,
              "position": 6.358333,
              "duration": 0.091667
            },
            {
              "pitch": 79,
              "velocity": 61,
              "position": 6.358333,
              "duration": 0.108333
            },
            {
              "pitch": 83,
              "velocity": 42,
              "position": 6.358333,
              "duration": 0.083333
            },
            {
              "pitch": 74,
              "velocity": 59,
              "position": 6.675,
              "duration": 0.091667
            },
            {
              "pitch": 76,
              "velocity": 70,
              "position": 6.675,
              "duration": 0.125
            },
            {
              "pitch": 79,
              "velocity": 69,
              "position": 6.675,
              "duration": 0.108333
            },
            {
              "pitch": 83,
              "velocity": 56,
              "position": 6.675,
              "duration": 0.108333
            },
            {
              "pitch": 74,
              "velocity": 81,
              "position": 7.016667,
              "duration": 0.075
            },
            {
              "pitch": 76,
              "velocity": 75,
              "position": 7.016667,
              "duration": 0.108333
            },
            {
              "pitch": 79,
              "velocity": 75,
              "position": 7.016667,
              "duration": 0.125
            },
            {
              "pitch": 83,
              "velocity": 66,
              "position": 7.016667,
              "duration": 0.108333
            },
            {
              "pitch": 76,
              "velocity": 67,
              "position": 7.35,
              "duration": 0.091667
            },
            {
              "pitch": 79,
              "velocity": 63,
              "position": 7.35,
              "duration": 0.1
            },
            {
              "pitch": 83,
              "velocity": 43,
              "position": 7.35,
              "duration": 0.091667
            },
            {
              "pitch": 74,
              "velocity": 46,
              "position": 7.358333,
              "duration": 0.041667
            },
            {
              "pitch": 79,
              "velocity": 61,
              "position": 7.666667,
              "duration": 0.116667
            },
            {
              "pitch": 74,
              "velocity": 53,
              "position": 7.675,
              "duration": 0.083333
            },
            {
              "pitch": 76,
              "velocity": 66,
              "position": 7.675,
              "duration": 0.116667
            },
            {
              "pitch": 83,
              "velocity": 44,
              "position": 7.675,
              "duration": 0.091667
            },
            {
              "pitch": 74,
              "velocity": 62,
              "position": 8.025,
              "duration": 0.083333
            },
            {
              "pitch": 76,
              "velocity": 66,
              "position": 8.025,
              "duration": 0.1
            },
            {
              "pitch": 79,
              "velocity": 66,
              "position": 8.025,
              "duration": 0.108333
            },
            {
              "pitch": 83,
              "velocity": 59,
              "position": 8.025,
              "duration": 0.083333
            },
            {
              "pitch": 76,
              "velocity": 55,
              "position": 8.35,
              "duration": 0.108333
            },
            {
              "pitch": 74,
              "velocity": 46,
              "position": 8.358333,
              "duration": 0.091667
            },
            {
              "pitch": 79,
              "velocity": 60,
              "position": 8.358333,
              "duration": 0.108333
            },
            {
              "pitch": 83,
              "velocity": 41,
              "position": 8.358333,
              "duration": 0.083333
            },
            {
              "pitch": 74,
              "velocity": 58,
              "position": 8.675,
              "duration": 0.091667
            },
            {
              "pitch": 76,
              "velocity": 69,
              "position": 8.675,
              "duration": 0.125
            },
            {
              "pitch": 79,
              "velocity": 68,
              "position": 8.675,
              "duration": 0.108333
            },
            {
              "pitch": 83,
              "velocity": 55,
              "position": 8.675,
              "duration": 0.108333
            },
            {
              "pitch": 74,
              "velocity": 80,
              "position": 9.016667,
              "duration": 0.075
            },
            {
              "pitch": 76,
              "velocity": 74,
              "position": 9.016667,
              "duration": 0.108333
            },
            {
              "pitch": 79,
              "velocity": 74,
              "position": 9.016667,
              "duration": 0.125
            },
            {
              "pitch": 83,
              "velocity": 65,
              "position": 9.016667,
              "duration": 0.108333
            },
            {
              "pitch": 76,
              "velocity": 66,
              "position": 9.35,
              "duration": 0.091667
            },
            {
              "pitch": 79,
              "velocity": 62,
              "position": 9.35,
              "duration": 0.1
            },
            {
              "pitch": 83,
              "velocity": 42,
              "position": 9.35,
              "duration": 0.091667
            },
            {
              "pitch": 74,
              "velocity": 45,
              "position": 9.358333,
              "duration": 0.041667
            },
            {
              "pitch": 79,
              "velocity": 60,
              "position": 9.666667,
              "duration": 0.116667
            },
            {
              "pitch": 74,
              "velocity": 52,
              "position": 9.675,
              "duration": 0.083333
            },
            {
              "pitch": 76,
              "velocity": 65,
              "position": 9.675,
              "duration": 0.116667
            },
            {
              "pitch": 83,
              "velocity": 43,
              "position": 9.675,
              "duration": 0.091667
            },
            {
              "pitch": 76,
              "velocity": 72,
              "position": 9.991667,
              "duration": 0.15
            },
            {
              "pitch": 79,
              "velocity": 75,
              "position": 9.991667,
              "duration": 0.133333
            },
            {
              "pitch": 83,
              "velocity": 69,
              "position": 9.991667,
              "duration": 0.116667
            },
            {
              "pitch": 74,
              "velocity": 74,
              "position": 10.008333,
              "duration": 0.083333
            },
            {
              "pitch": 74,
              "velocity": 51,
              "position": 10.35,
              "duration": 0.083333
            },
            {
              "pitch": 76,
              "velocity": 63,
              "position": 10.35,
              "duration": 0.1
            },
            {
              "pitch": 79,
              "velocity": 56,
              "position": 10.35,
              "duration": 0.108333
            },
            {
              "pitch": 83,
              "velocity": 39,
              "position": 10.35,
              "duration": 0.083333
            },
            {
              "pitch": 74,
              "velocity": 58,
              "position": 10.666667,
              "duration": 0.1
            },
            {
              "pitch": 76,
              "velocity": 64,
              "position": 10.675,
              "duration": 0.125
            },
            {
              "pitch": 79,
              "velocity": 61,
              "position": 10.675,
              "duration": 0.116667
            },
            {
              "pitch": 83,
              "velocity": 39,
              "position": 10.675,
              "duration": 0.1
            },
            {
              "pitch": 74,
              "velocity": 88,
              "position": 11.008333,
              "duration": 0.091667
            },
            {
              "pitch": 76,
              "velocity": 79,
              "position": 11.008333,
              "duration": 0.133333
            },
            {
              "pitch": 79,
              "velocity": 76,
              "position": 11.008333,
              "duration": 0.125
            },
            {
              "pitch": 83,
              "velocity": 73,
              "position": 11.008333,
              "duration": 0.108333
            },
            {
              "pitch": 74,
              "velocity": 50,
              "position": 11.341667,
              "duration": 0.083333
            },
            {
              "pitch": 76,
              "velocity": 67,
              "position": 11.341667,
              "duration": 0.1
            },
            {
              "pitch": 79,
              "velocity": 61,
              "position": 11.341667,
              "duration": 0.108333
            },
            {
              "pitch": 83,
              "velocity": 44,
              "position": 11.341667,
              "duration": 0.108333
            },
            {
              "pitch": 83,
              "velocity": 35,
              "position": 11.675,
              "duration": 0.1
            },
            {
              "pitch": 74,
              "velocity": 52,
              "position": 11.683333,
              "duration": 0.075
            },
            {
              "pitch": 76,
              "velocity": 62,
              "position": 11.683333,
              "duration": 0.1
            },
            {
              "pitch": 79,
              "velocity": 59,
              "position": 11.683333,
              "duration": 0.1
            },
            {
              "pitch": 74,
              "velocity": 62,
              "position": 12.025,
              "duration": 0.083333
            },
            {
              "pitch": 76,
              "velocity": 66,
              "position": 12.025,
              "duration": 0.1
            },
            {
              "pitch": 79,
              "velocity": 66,
              "position": 12.025,
              "duration": 0.108333
            },
            {
              "pitch": 83,
              "velocity": 59,
              "position": 12.025,
              "duration": 0.083333
            },
            {
              "pitch": 76,
              "velocity": 55,
              "position": 12.35,
              "duration": 0.108333
            },
            {
              "pitch": 74,
              "velocity": 46,
              "position": 12.358333,
              "duration": 0.091667
            },
            {
              "pitch": 79,
              "velocity": 60,
              "position": 12.358333,
              "duration": 0.108333
            },
            {
              "pitch": 83,
              "velocity": 41,
              "position": 12.358333,
              "duration": 0.083333
            },
            {
              "pitch": 74,
              "velocity": 58,
              "position": 12.675,
              "duration": 0.091667
            },
            {
              "pitch": 76,
              "velocity": 69,
              "position": 12.675,
              "duration": 0.125
            },
            {
              "pitch": 79,
              "velocity": 68,
              "position": 12.675,
              "duration": 0.108333
            },
            {
              "pitch": 83,
              "velocity": 55,
              "position": 12.675,
              "duration": 0.108333
            },
            {
              "pitch": 74,
              "velocity": 80,
              "position": 13.016667,
              "duration": 0.075
            },
            {
              "pitch": 76,
              "velocity": 74,
              "position": 13.016667,
              "duration": 0.108333
            },
            {
              "pitch": 79,
              "velocity": 74,
              "position": 13.016667,
              "duration": 0.125
            },
            {
              "pitch": 83,
              "velocity": 65,
              "position": 13.016667,
              "duration": 0.108333
            },
            {
              "pitch": 76,
              "velocity": 66,
              "position": 13.35,
              "duration": 0.091667
            },
            {
              "pitch": 79,
              "velocity": 62,
              "position": 13.35,
              "duration": 0.1
            },
            {
              "pitch": 83,
              "velocity": 42,
              "position": 13.35,
              "duration": 0.091667
            },
            {
              "pitch": 74,
              "velocity": 45,
              "position": 13.358333,
              "duration": 0.041667
            },
            {
              "pitch": 79,
              "velocity": 60,
              "position": 13.666667,
              "duration": 0.116667
            },
            {
              "pitch": 74,
              "velocity": 52,
              "position": 13.675,
              "duration": 0.083333
            },
            {
              "pitch": 76,
              "velocity": 65,
              "position": 13.675,
              "duration": 0.116667
            },
            {
              "pitch": 83,
              "velocity": 43,
              "position": 13.675,
              "duration": 0.091667
            },
            {
              "pitch": 76,
              "velocity": 72,
              "position": 13.991667,
              "duration": 0.15
            },
            {
              "pitch": 79,
              "velocity": 75,
              "position": 13.991667,
              "duration": 0.133333
            },
            {
              "pitch": 83,
              "velocity": 69,
              "position": 13.991667,
              "duration": 0.116667
            },
            {
              "pitch": 74,
              "velocity": 74,
              "position": 14.008333,
              "duration": 0.083333
            },
            {
              "pitch": 74,
              "velocity": 51,
              "position": 14.35,
              "duration": 0.083333
            },
            {
              "pitch": 76,
              "velocity": 63,
              "position": 14.35,
              "duration": 0.1
            },
            {
              "pitch": 79,
              "velocity": 56,
              "position": 14.35,
              "duration": 0.108333
            },
            {
              "pitch": 83,
              "velocity": 39,
              "position": 14.35,
              "duration": 0.083333
            },
            {
              "pitch": 74,
              "velocity": 58,
              "position": 14.666667,
              "duration": 0.1
            },
            {
              "pitch": 76,
              "velocity": 64,
              "position": 14.675,
              "duration": 0.125
            },
            {
              "pitch": 79,
              "velocity": 61,
              "position": 14.675,
              "duration": 0.116667
            },
            {
              "pitch": 83,
              "velocity": 39,
              "position": 14.675,
              "duration": 0.1
            },
            {
              "pitch": 74,
              "velocity": 88,
              "position": 15.008333,
              "duration": 0.091667
            },
            {
              "pitch": 76,
              "velocity": 79,
              "position": 15.008333,
              "duration": 0.133333
            },
            {
              "pitch": 79,
              "velocity": 76,
              "position": 15.008333,
              "duration": 0.125
            },
            {
              "pitch": 83,
              "velocity": 73,
              "position": 15.008333,
              "duration": 0.108333
            },
            {
              "pitch": 74,
              "velocity": 50,
              "position": 15.341667,
              "duration": 0.083333
            },
            {
              "pitch": 76,
              "velocity": 67,
              "position": 15.341667,
              "duration": 0.1
            },
            {
              "pitch": 79,
              "velocity": 61,
              "position": 15.341667,
              "duration": 0.108333
            },
            {
              "pitch": 83,
              "velocity": 44,
              "position": 15.341667,
              "duration": 0.108333
            },
            {
              "pitch": 83,
              "velocity": 35,
              "position": 15.675,
              "duration": 0.1
            },
            {
              "pitch": 74,
              "velocity": 52,
              "position": 15.683333,
              "duration": 0.075
            },
            {
              "pitch": 76,
              "velocity": 62,
              "position": 15.683333,
              "duration": 0.1
            },
            {
              "pitch": 79,
              "velocity": 59,
              "position": 15.683333,
              "duration": 0.1
            }
          ]
        },
        "12": {
          "ctab": {
            "srcChannel": 12,
            "name": "Guitar",
            "accType": "CHORD2",
            "editable": true,
            "mutedNotes": [],
            "mutedChords": [],
            "sourceChordNote": 0,
            "sourceChordType": "Maj7",
            "ctb2Main": {
              "ntr": "ROOT_FIXED",
              "ntt": "CHORD",
              "bassOn": false,
              "noteLowLimit": 40,
              "noteHighLimit": 76,
              "chordRootUpperLimit": 127,
              "rtr": "NOTE_GENERATOR"
            }
          },
          "notes": []
        },
        "13": {
          "ctab": {
            "srcChannel": 13,
            "name": "Strings",
            "accType": "PAD",
            "editable": true,
            "mutedNotes": [],
            "mutedChords": [],
            "sourceChordNote": 0,
            "sourceChordType": "Maj7",
            "ctb2Main": {
              "ntr": "ROOT_FIXED",
              "ntt": "MELODY",
              "bassOn": false,
              "noteLowLimit": 36,
              "noteHighLimit": 96,
              "chordRootUpperLimit": 127,
              "rtr": "PITCH_SHIFT"
            }
          },
          "notes": []
        }
      }
    }
  }
}