{
  "name": "Bucky Nashville Rock+",
  "tempo": 126,
  "timeSignature": "4/4",
  "ticksPerQuarter": 120,
  "sffType": "SFF1",
  "division": "BINARY",
  "channelPrograms": {
    "9": 0,
    "10": 33,
    "11": 0,
    "12": 25,
    "13": 27
  },
  "parts": {
    "Intro_A": {
      "type": "Intro_A",
      "sizeInBeats": 24,
      "channels": {
        "9": {
          "ctab": {
            "srcChannel": 9,
            "name": "Drums",
            "accType": "RHYTHM",
            "editable": false,
            "mutedNotes": [],
            "mutedChords": [],
            "sourceChordNote": 0,
            "sourceChordType": "Maj",
            "ctb2Main": {
              "ntr": "ROOT_FIXED",
              "ntt": "BYPASS",
              "bassOn": false,
              "noteLowLimit": 20,
              "noteHighLimit": 127,
              "chordRootUpperLimit": 127,
              "rtr": "RETRIGGER"
            }
          },
          "notes": [
            {
              "pitch": 37,
              "velocity": 84,
              "position": 0.0,
              "duration": 1.0
            },
            {
              "pitch": 37,
              "velocity": 84,
              "position": 2.0,
              "duration": 1.0
            },
            {
              "pitch": 37,
              "velocity": 64,
              "position": 4.0,
              "duration": 1.0
            },
            {
              "pitch": 37,
              "velocity": 84,
              "position": 5.0,
              "duration": 1.0
            },
            {
              "pitch": 37,
              "velocity": 64,
              "position": 6.0,
              "duration": 1.0
            },
            {
              "pitch": 37,
              "velocity": 84,
              "position": 7.0,
              "duration": 1.0
            },
            {
              "pitch": 36,
              "velocity": 112,
              "position": 8.0,
              "duration": 0.625
            },
            {
              "pitch": 42,
              "velocity": 80,
              "position": 8.0,
              "duration": 0.575
            },
            {
              "pitch": 37,
              "velocity": 127,
              "position": 9.0,
              "duration": 0.45
            },
            {
              "pitch": 42,
              "velocity": 105,
              "position": 9.0,
              "duration": 0.033333
            },
            {
              "pitch": 42,
              "velocity": 54,
              "position": 9.5,
              "duration": 0.591667
            },
            {
              "pitch": 36,
              "velocity": 112,
              "position": 10.0,
              "duration": 0.541667
            },
            {
              "pitch": 42,
              "velocity": 52,
              "position": 10.5,
              "duration": 0.441667
            },
            {
              "pitch": 37,
              "velocity": 127,
              "position": 11.0,
              "duration": 0.558333
            },
            {
              "pitch": 42,
              "velocity": 107,
              "position": 11.0,
              "duration": 0.55
            },
            {
              "pitch": 36,
              "velocity": 112,
              "position": 12.0,
              "duration": 0.441667
            },
            {
              "pitch": 42,
              "velocity": 90,
              "position": 12.0,
              "duration": 0.616667
            },
            {
              "pitch": 37,
              "velocity": 127,
              "position": 13.0,
              "duration": 0.475
            },
            {
              "pitch": 42,
              "velocity": 95,
              "position": 13.0,
              "duration": 0.05
            },
            {
              "pitch": 42,
              "velocity": 55,
              "position": 13.5,
              "duration": 0.433333
            },
            {
              "pitch": 36,
              "velocity": 112,
              "position": 14.0,
              "duration": 0.608333
            },
            {
              "pitch": 42,
              "velocity": 74,
              "position": 14.0,
              "duration": 0.583333
            },
            {
              "pitch": 37,
              "velocity": 127,
              "position": 15.0,
              "duration": 0.433333
            },
            {
              "pitch": 42,
              "velocity": 127,
              "position": 15.0,
              "duration": 0.016667
            },
            {
              "pitch": 36,
              "velocity": 98,
              "position": 15.5,
              "duration": 0.5
            },
            {
              "pitch": 42,
              "velocity": 65,
              "position": 15.5,
              "duration": 0.5
            },
            {
              "pitch": 36,
              "velocity": 112,
              "position": 16.0,
              "duration": 0.541667
            },
            {
              "pitch": 42,
              "velocity": 66,
              "position": 16.0,
              "duration": 0.525
            },
            {
              "pitch": 37,
              "velocity": 127,
              "position": 17.0,
              "duration": 0.625
            },
            {
              "pitch": 42,
              "velocity": 93,
              "position": 17.0,
              "duration": 0.425
            },
            {
              "pitch": 42,
              "velocity": 51,
              "position": 17.5,
              "duration": 0.575
            },
            {
              "pitch": 36,
              "velocity": 112,
              "position": 18.0,
              "duration": 0.491667
            },
            {
              "pitch": 42,
              "velocity": 54,
              "position": 18.5,
              "duration": 0.6
            },
            {
              "pitch": 37,
              "velocity": 127,
              "position": 19.0,
              "duration": 0.491667
            },
            {
              "pitch": 42,
              "velocity": 57,
              "position": 19.5,
              "duration": 0.45
            },
            {
              "pitch": 36,
              "velocity": 112,
              "position": 20.008333,
              "duration": 0.591667
            },
            {
              "pitch": 42,
              "velocity": 62,
              "position": 20.041667,
              "duration": 0.55
            },
            {
              "pitch": 47,
              "velocity": 127,
              "position": 20.525,
              "duration": 0.5
            },
            {
              "pitch": 42,
              "velocity": 62,
              "position": 21.508333,
              "duration": 0.583333
            },
            {
              "pitch": 36,
              "velocity": 112,
              "position": 22.008333,
              "duration": 0.516667
            },
            {
              "pitch": 47,
              "velocity": 114,
              "position": 22.516667,
              "duration": 0.425
            },
            {
              "pitch": 43,
              "velocity": 127,
              "position": 23.016667,
              "duration": 0.558333
            },
            {
              "pitch": 42,
              "velocity": 65,
              "position": 23.5,
              "duration": 0.4
            }
          ]
        },
        "10": {
          "ctab": {
            "srcChannel": 10,
            "name": "Bass",
            "accType": "BASS",
            "editable": true,
            "mutedNotes": [],
            "mutedChords": [],
            "sourceChordNote": 0,
            "sourceChordType": "Maj7",
            "ctb2Main": {
              "ntr": "ROOT_TRANSPOSITION",
              "ntt": "BYPASS",
              "bassOn": true,
              "noteLowLimit": 20,
              "noteHighLimit": 60,
              "chordRootUpperLimit": 127,
              "rtr": "NOTE_GENERATOR"
            }
          },
          "notes": [
            {
              "pitch": 36,
              "velocity": 62,
              "position": 8.083333,
              "duration": 1.241667
            },
            {
              "pitch": 36,
              "velocity": 71,
              "position": 10.008333,
              "duration": 1.291667
            },
            {
              "pitch": 36,
              "velocity": 65,
              "position": 12.025,
              "duration": 1.383333
            },
            {
              "pitch": 36,
              "velocity": 71,
              "position": 14.008333,
              "duration": 1.291667
            },
            {
              "pitch": 36,
              "velocity": 65,
              "position": 16.025,
              "duration": 1.383333
            },
            {
              "pitch": 31,
              "velocity": 61,
              "position": 18.075,
              "duration": 1.2
            },
            {
              "pitch": 36,
              "velocity": 68,
              "position": 20.058333,
              "duration": 1.208333
            },
            {
              "pitch": 31,
              "velocity": 64,
              "position": 22.033333,
              "duration": 1.016667
            }
          ]
        },
        "11": {
          "ctab": {
            "srcChannel": 11,
            "name": "Piano",
            "accType": "CHORD1",
            "editable": true,
            "mutedNotes": [],
            "mutedChords": [],
            "sourceChordNote": 0,
            "sourceChordType": "Maj7",
            "ctb2Main": {
              "ntr": "ROOT_FIXED",
              "ntt": "CHORD",
              "bassOn": false,
              "noteLowLimit": 48,
              "noteHighLimit": 84,
              "chordRootUpperLimit": 127,
              "rtr": "NOTE_GENERATOR"
            }
          },
          "notes": [
            {
              "pitch": 48,
              "velocity": 76,
              "position": 8.008333,
              "duration": 1.441667
            },
            {
              "pitch": 36,
              "velocity": 68,
              "position": 8.025,
              "duration": 1.933333
            },
            {
              "pitch": 64,
              "velocity": 70,
              "position": 8.975,
              "duration": 0.983333
            },
            {
              "pitch": 55,
              "velocity": 70,
              "position": 8.983333,
              "duration": 0.975
            },
            {
              "pitch": 59,
              "velocity": 78,
              "position": 8.991667,
              "duration": 0.966667
            },
            {
              "pitch": 60,
              "velocity": 64,
              "position": 9.0,
              "duration": 0.958333
            },
            {
              "pitch": 59,
              "velocity": 89,
              "position": 10.0,
              "duration": 0.958333
            },
            {
              "pitch": 64,
              "velocity": 74,
              "position": 10.0,
              "duration": 0.958333
            },
            {
              "pitch": 71,
              "velocity": 70,
              "position": 10.008333,
              "duration": 0.95
            },
            {
              "pitch": 67,
              "velocity": 68,
              "position": 10.016667,
              "duration": 0.908333
            },
            {
              "pitch": 48,
              "velocity": 76,
              "position": 12.008333,
              "duration": 1.441667
            },
            {
              "pitch": 36,
              "velocity": 68,
              "position": 12.025,
              "duration": 1.933333
            },
            {
              "pitch": 64,
              "velocity": 70,
              "position": 12.975,
              "duration": 0.983333
            },
            {
              "pitch": 55,
              "velocity": 70,
              "position": 12.983333,
              "duration": 0.975
            },
            {
              "pitch": 59,
              "velocity": 78,
              "position": 12.991667,
              "duration": 0.966667
            },
            {
              "pitch": 60,
              "velocity": 64,
              "position": 13.0,
              "duration": 0.958333
            },
            {
              "pitch": 36,
              "velocity": 76,
              "position": 14.008333,
              "duration": 1.95
            },
            {
              "pitch": 48,
              "velocity": 84,
              "position": 14.008333,
              "duration": 1.95
            },
            {
              "pitch": 64,
              "velocity": 45,
              "position": 14.008333,
              "duration": 0.758333
            },
            {
              "pitch": 59,
              "velocity": 89,
              "position": 15.0,
              "duration": 0.958333
            },
            {
              "pitch": 64,
              "velocity": 74,
              "position": 15.0,
              "duration": 0.958333
            },
            {
              "pitch": 71,
              "velocity": 70,
              "position": 15.008333,
              "duration": 0.95
            },
            {
              "pitch": 67,
              "velocity": 68,
              "position": 15.016667,
              "duration": 0.908333
            },
            {
              "pitch": 48,
              "velocity": 78,
              "position": 16.033333,
              "duration": 2.083333
            },
            {
              "pitch": 36,
              "velocity": 78,
              "position": 16.041667,
              "duration": 3.35
            },
            {
              "pitch": 59,
              "velocity": 66,
              "position": 16.083333,
              "duration": 0.533333
            },
            {
              "pitch": 59,
              "velocity": 90,
              "position": 16.983333,
              "duration": 1.625
            },
            {
              "pitch": 67,
              "velocity": 84,
              "position": 17.016667,
              "duration": 1.5
            },
            {
              "pitch": 64,
              "velocity": 68,
              "position": 17.025,
              "duration": 1.608333
            },
            {
              "pitch": 48,
              "velocity": 62,
              "position": 18.483333,
              "duration": 1.216667
            },
            {
              "pitch": 59,
              "velocity": 74,
              "position": 18.958333,
              "duration": 1.558333
            },
            {
              "pitch": 64,
              "velocity": 42,
              "position": 18.958333,
              "duration": 1.5
            },
            {
              "pitch": 67,
              "velocity": 62,
              "position": 18.983333,
              "duration": 1.083333
            },
            {
              "pitch": 55,
              "velocity": 56,
              "position": 19.483333,
              "duration": 1.033333
            },
            {
              "pitch": 48,
              "velocity": 60,
              "position": 19.966667,
              "duration": 1.25
            },
            {
              "pitch": 36,
              "velocity": 60,
              "position": 19.983333,
              "duration": 3.975
            },
            {
              "pitch": 59,
              "velocity": 89,
              "position": 20.991667,
              "duration": 1.391667
            },
            {
              "pitch": 64,
              "velocity": 66,
              "position": 21.016667,
              "duration": 1.366667
            },
            {
              "pitch": 67,
              "velocity": 72,
              "position": 21.025,
              "duration": 1.083333
            },
            {
              "pitch": 48,
              "velocity": 72,
              "position": 22.0,
              "duration": 1.958333
            },
            {
              "pitch": 55,
              "velocity": 62,
              "position": 22.475,
              "duration": 0.441667
            },
            {
              "pitch": 59,
              "velocity": 86,
              "position": 23.0,
              "duration": 0.958333
            },
            {
              "pitch": 64,
              "velocity": 72,
              "position": 23.016667,
              "duration": 0.941667
            },
            {
              "pitch": 67,
              "velocity": 82,
              "position": 23.05,
              "duration": 0.908333
            }
          ]
        },
        "12": {
          "ctab": {
            "srcChannel": 12,
            "name": "Guitar",
            "accType": "CHORD2",
            "editable": true,
            "mutedNotes": [],
            "mutedChords": [],
            "sourceChordNote": 0,
            "sourceChordType": "Maj7",
            "ctb2Main": {
              "ntr": "ROOT_FIXED",
              "ntt": "CHORD",
              "bassOn": false,
              "noteLowLimit": 40,
              "noteHighLimit": 76,
              "chordRootUpperLimit": 127,
              "rtr": "NOTE_GENERATOR"
            }
          },
          "notes": [
            {
              "pitch": 48,
              "velocity": 93,
              "position": 8.008333,
              "duration": 1.95
            },
            {
              "pitch": 55,
              "velocity": 69,
              "position": 9.041667,
              "duration": 0.916667
            },
            {
              "pitch": 59,
              "velocity": 66,
              "position": 9.058333,
              "duration": 0.9
            },
            {
              "pitch": 64,
              "velocity": 83,
              "position": 9.075,
              "duration": 0.883333
            },
            {
              "pitch": 67,
              "velocity": 41,
              "position": 9.116667,
              "duration": 0.841667
            },
            {
              "pitch": 48,
              "velocity": 75,
              "position": 10.058333,
              "duration": 1.9
            },
            {
              "pitch": 55,
              "velocity": 63,
              "position": 11.025,
              "duration": 0.933333
            },
            {
              "pitch": 59,
              "velocity": 79,
              "position": 11.05,
              "duration": 0.908333
            },
            {
              "pitch": 67,
              "velocity": 41,
              "position": 11.066667,
              "duration": 0.016667
            },
            {
              "pitch": 64,
              "velocity": 99,
              "position": 11.075,
              "duration": 0.883333
            },
            {
              "pitch": 67,
              "velocity": 69,
              "position": 11.1,
              "duration": 0.858333
            },
            {
              "pitch": 48,
              "velocity": 93,
              "position": 12.008333,
              "duration": 1.95
            },
            {
              "pitch": 55,
              "velocity": 69,
              "position": 13.041667,
              "duration": 0.916667
            },
            {
              "pitch": 59,
              "velocity": 66,
              "position": 13.058333,
              "duration": 0.9
            },
            {
              "pitch": 64,
              "velocity": 83,
              "position": 13.075,
              "duration": 0.883333
            },
            {
              "pitch": 67,
              "velocity": 41,
              "position": 13.116667,
              "duration": 0.841667
            },
            {
              "pitch": 48,
              "velocity": 75,
              "position": 14.058333,
              "duration": 1.9
            },
            {
              "pitch": 55,
              "velocity": 63,
              "position": 15.025,
              "duration": 0.933333
            },
            {
              "pitch": 59,
              "velocity": 79,
              "position": 15.05,
              "duration": 0.908333
            },
            {
              "pitch": 67,
              "velocity": 41,
              "position": 15.066667,
              "duration": 0.016667
            },
            {
              "pitch": 64,
              "velocity": 99,
              "position": 15.075,
              "duration": 0.883333
            },
            {
              "pitch": 67,
              "velocity": 69,
              "position": 15.1,
              "duration": 0.858333
            },
            {
              "pitch": 48,
              "velocity": 84,
              "position": 16.0,
              "duration": 3.983333
            },
            {
              "pitch": 55,
              "velocity": 80,
              "position": 17.033333,
              "duration": 1.941667
            },
            {
              "pitch": 64,
              "velocity": 90,
              "position": 17.041667,
              "duration": 1.933333
            },
            {
              "pitch": 59,
              "velocity": 68,
              "position": 17.05,
              "duration": 1.941667
            },
            {
              "pitch": 67,
              "velocity": 61,
              "position": 17.066667,
              "duration": 1.916667
            },
            {
              "pitch": 55,
              "velocity": 51,
              "position": 19.0,
              "duration": 1.925
            },
            {
              "pitch": 64,
              "velocity": 44,
              "position": 19.0,
              "duration": 0.025
            },
            {
              "pitch": 59,
              "velocity": 57,
              "position": 19.016667,
              "duration": 1.908333
            },
            {
              "pitch": 67,
              "velocity": 67,
              "position": 19.033333,
              "duration": 0.466667
            },
            {
              "pitch": 64,
              "velocity": 65,
              "position": 19.041667,
              "duration": 1.933333
            },
            {
              "pitch": 67,
              "velocity": 51,
              "position": 19.516667,
              "duration": 1.458333
            },
            {
              "pitch": 48,
              "velocity": 79,
              "position": 20.0,
              "duration": 1.908333
            },
            {
              "pitch": 55,
              "velocity": 61,
              "position": 20.941667,
              "duration": 1.066667
            },
            {
              "pitch": 59,
              "velocity": 67,
              "position": 20.966667,
              "duration": 2.0
            },
            {
              "pitch": 64,
              "velocity": 84,
              "position": 21.0,
              "duration": 1.958333
            },
            {
              "pitch": 67,
              "velocity": 69,
              "position": 21.008333,
              "duration": 1.983333
            },
            {
              "pitch": 48,
              "velocity": 47,
              "position": 21.95,
              "duration": 2.008333
            },
            {
              "pitch": 55,
              "velocity": 51,
              "position": 22.966667,
              "duration": 0.991667
            },
            {
              "pitch": 64,
              "velocity": 51,
              "position": 22.975,
              "duration": 0.008333
            },
            {
              "pitch": 59,
              "velocity": 65,
              "position": 22.983333,
              "duration": 0.975
            },
            {
              "pitch": 64,
              "velocity": 83,
              "position": 23.0,
              "duration": 0.5
            },
            {
              "pitch": 67,
              "velocity": 69,
              "position": 23.025,
              "duration": 0.441667
            },
            {
              "pitch": 67,
              "velocity": 78,
              "position": 23.5,
              "duration": 0.458333
            },
            {
              "pitch": 64,
              "velocity": 68,
              "position": 23.516667,
              "duration": 0.441667
            }
          ]
        },
        "13": {
          "ctab": {
            "srcChannel": 13,
            "name": "Strings",
            "accType": "PAD",
            "editable": true,
            "mutedNotes": [],
            "mutedChords": [],
            "sourceChordNote": 0,
            "sourceChordType": "Maj7",
            "ctb2Main": {
              "ntr": "ROOT_FIXED",
              "ntt": "MELODY",
              "bassOn": false,
              "noteLowLimit": 36,
              "noteHighLimit": 96,
              "chordRootUpperLimit": 127,
              "rtr": "PITCH_SHIFT"
            }
          },
          "notes": [
            {
              "pitch": 48,
              "velocity": 100,
              "position": 16.0,
              "duration": 6.658333
            }
          ]
        }
      }
    },
    "Main_A": {
      "type": "Main_A",
      "sizeInBeats": 16,
      "channels": {
        "9": {
          "ctab": {
            "srcChannel": 9,
            "name": "Drums",
            "accType": "RHYTHM",
            "editable": false,
            "mutedNotes": [],
            "mutedChords": [],
            "sourceChordNote": 0,
            "sourceChordType": "Maj",
            "ctb2Main": {
              "ntr": "ROOT_FIXED",
              "ntt": "BYPASS",
              "bassOn": false,
              "noteLowLimit": 20,
              "noteHighLimit": 127,
              "chordRootUpperLimit": 127,
              "rtr": "RETRIGGER"
            }
          },
          "notes": [
            {
              "pitch": 36,
              "velocity": 112,
              "position": 0.0,
              "duration": 0.058333
            },
            {
              "pitch": 57,
              "velocity": 120,
              "position": 0.0,
              "duration": 0.066667
            },
            {
              "pitch": 40,
              "velocity": 127,
              "position": 1.0,
              "duration": 0.533333
            },
            {
              "pitch": 42,
              "velocity": 62,
              "position": 1.0,
              "duration": 0.516667
            },
            {
              "pitch": 36,
              "velocity": 102,
              "position": 1.5,
              "duration": 0.45
            },
            {
              "pitch": 36,
              "velocity": 112,
              "position": 2.0,
              "duration": 0.583333
            },
            {
              "pitch": 42,
              "velocity": 90,
              "position": 2.0,
              "duration": 0.541667
            },
            {
              "pitch": 40,
              "velocity": 127,
              "position": 3.0,
              "duration": 0.425
            },
            {
              "pitch": 42,
              "velocity": 105,
              "position": 3.0,
              "duration": 0.608333
            },
            {
              "pitch": 36,
              "velocity": 112,
              "position": 4.0,
              "duration": 0.591667
            },
            {
              "pitch": 42,
              "velocity": 127,
              "position": 4.0,
              "duration": 0.541667
            },
            {
              "pitch": 40,
              "velocity": 127,
              "position": 5.0,
              "duration": 0.441667
            },
            {
              "pitch": 42,
              "velocity": 127,
              "position": 5.0,
              "duration": 0.616667
            },
            {
              "pitch": 36,
              "velocity": 112,
              "position": 5.5,
              "duration": 0.616667
            },
            {
              "pitch": 42,
              "velocity": 127,
              "position": 6.0,
              "duration": 0.075
            },
            {
              "pitch": 42,
              "velocity": 80,
              "position": 6.5,
              "duration": 0.616667
            },
            {
              "pitch": 40,
              "velocity": 127,
              "position": 7.0,
              "duration": 0.575
            },
            {
              "pitch": 42,
              "velocity": 69,
              "position": 7.5,
              "duration": 0.041667
            },
            {
              "pitch": 36,
              "velocity": 112,
              "position": 8.0,
              "duration": 0.441667
            },
            {
              "pitch": 42,
              "velocity": 127,
              "position": 8.0,
              "duration": 0.591667
            },
            {
              "pitch": 40,
              "velocity": 127,
              "position": 9.0,
              "duration": 0.483333
            },
            {
              "pitch": 42,
              "velocity": 127,
              "position": 9.0,
              "duration": 0.033333
            },
            {
              "pitch": 36,
              "velocity": 112,
              "position": 9.5,
              "duration": 0.441667
            },
            {
              "pitch": 42,
              "velocity": 82,
              "position": 9.5,
              "duration": 0.6
            },
            {
              "pitch": 36,
              "velocity": 112,
              "position": 10.0,
              "duration": 0.558333
            },
            {
              "pitch": 42,
              "velocity": 80,
              "position": 10.5,
              "duration": 0.016667
            },
            {
              "pitch": 40,
              "velocity": 127,
              "position": 11.0,
              "duration": 0.433333
            },
            {
              "pitch": 42,
              "velocity": 127,
              "position": 11.0,
              "duration": 0.6
            },
            {
              "pitch": 36,
              "velocity": 103,
              "position": 12.0,
              "duration": 0.525
            },
            {
              "pitch": 42,
              "velocity": 72,
              "position": 12.0,
              "duration": 0.466667
            },
            {
              "pitch": 42,
              "velocity": 49,
              "position": 12.5,
              "duration": 0.616667
            },
            {
              "pitch": 40,
              "velocity": 127,
              "position": 13.0,
              "duration": 0.55
            },
            {
              "pitch": 42,
              "velocity": 40,
              "position": 13.5,
              "duration": 0.05
            },
            {
              "pitch": 36,
              "velocity": 74,
              "position": 14.0,
              "duration": 0.475
            },
            {
              "pitch": 42,
              "velocity": 64,
              "position": 14.0,
              "duration": 0.416667
            },
            {
              "pitch": 40,
              "velocity": 92,
              "position": 14.5,
              "duration": 0.591667
            },
            {
              "pitch": 47,
              "velocity": 106,
              "position": 15.0,
              "duration": 0.508333
            },
            {
              "pitch": 45,
              "velocity": 127,
              "position": 15.5,
              "duration": 0.4
            }
          ]
        },
        "10": {
          "ctab": {
            "srcChannel": 10,
            "name": "Bass",
            "accType": "BASS",
            "editable": true,
            "mutedNotes": [],
            "mutedChords": [],
            "sourceChordNote": 0,
            "sourceChordType": "Maj7",
            "ctb2Main": {
              "ntr": "ROOT_TRANSPOSITION",
              "ntt": "BYPASS",
              "bassOn": true,
              "noteLowLimit": 20,
              "noteHighLimit": 60,
              "chordRootUpperLimit": 127,
              "rtr": "NOTE_GENERATOR"
            }
          },
          "notes": [
            {
              "pitch": 36,
              "velocity": 70,
              "position": 0.0,
              "duration": 1.091667
            },
            {
              "pitch": 36,
              "velocity": 71,
              "position": 1.525,
              "duration": 0.241667
            },
            {
              "pitch": 36,
              "velocity": 75,
              "position": 2.0,
              "duration": 1.241667
            },
            {
              "pitch": 36,
              "velocity": 70,
              "position": 4.0,
              "duration": 1.091667
            },
            {
              "pitch": 36,
              "velocity": 71,
              "position": 5.525,
              "duration": 0.241667
            },
            {
              "pitch": 36,
              "velocity": 75,
              "position": 6.0,
              "duration": 1.241667
            },
            {
              "pitch": 36,
              "velocity": 78,
              "position": 8.016667,
              "duration": 1.55
            },
            {
              "pitch": 43,
              "velocity": 70,
              "position": 10.041667,
              "duration": 1.341667
            },
            {
              "pitch": 36,
              "velocity": 70,
              "position": 12.0,
              "duration": 1.091667
            },
            {
              "pitch": 36,
              "velocity": 71,
              "position": 13.525,
              "duration": 0.241667
            },
            {
              "pitch": 43,
              "velocity": 67,
              "position": 14.05,
              "duration": 1.275
            }
          ]
        },
        "11": {
          "ctab": {
            "srcChannel": 11,
            "name": "Piano",
            "accType": "CHORD1",
            "editable": true,
            "mutedNotes": [],
            "mutedChords": [],
            "sourceChordNote": 0,
            "sourceChordType": "Maj7",
            "ctb2Main": {
              "ntr": "ROOT_FIXED",
              "ntt": "CHORD",
              "bassOn": false,
              "noteLowLimit": 48,
              "noteHighLimit": 84,
              "chordRootUpperLimit": 127,
              "rtr": "NOTE_GENERATOR"
            }
          },
          "notes": [
            {
              "pitch": 48,
              "velocity": 76,
              "position": 0.016667,
              "duration": 1.291667
            },
            {
              "pitch": 36,
              "velocity": 64,
              "position": 0.041667,
              "duration": 1.916667
            },
            {
              "pitch": 59,
              "velocity": 48,
              "position": 0.483333,
              "duration": 0.575
            },
            {
              "pitch": 60,
              "velocity": 58,
              "position": 1.025,
              "duration": 0.933333
            },
            {
              "pitch": 67,
              "velocity": 82,
              "position": 1.041667,
              "duration": 0.916667
            },
            {
              "pitch": 64,
              "velocity": 50,
              "position": 1.05,
              "duration": 0.908333
            },
            {
              "pitch": 48,
              "velocity": 86,
              "position": 2.0,
              "duration": 1.441667
            },
            {
              "pitch": 36,
              "velocity": 76,
              "position": 2.008333,
              "duration": 1.95
            },
            {
              "pitch": 59,
              "velocity": 66,
              "position": 2.5,
              "duration": 0.525
            },
            {
              "pitch": 71,
              "velocity": 66,
              "position": 3.0,
              "duration": 0.958333
            },
            {
              "pitch": 64,
              "velocity": 52,
              "position": 3.025,
              "duration": 0.866667
            },
            {
              "pitch": 67,
              "velocity": 68,
              "position": 3.025,
              "duration": 0.875
            },
            {
              "pitch": 59,
              "velocity": 88,
              "position": 3.516667,
              "duration": 0.441667
            },
            {
              "pitch": 36,
              "velocity": 84,
              "position": 4.008333,
              "duration": 1.95
            },
            {
              "pitch": 48,
              "velocity": 84,
              "position": 4.008333,
              "duration": 1.95
            },
            {
              "pitch": 59,
              "velocity": 78,
              "position": 4.008333,
              "duration": 0.708333
            },
            {
              "pitch": 59,
              "velocity": 91,
              "position": 4.975,
              "duration": 0.983333
            },
            {
              "pitch": 71,
              "velocity": 76,
              "position": 4.983333,
              "duration": 0.975
            },
            {
              "pitch": 64,
              "velocity": 58,
              "position": 4.991667,
              "duration": 0.966667
            },
            {
              "pitch": 67,
              "velocity": 78,
              "position": 5.0,
              "duration": 0.958333
            },
            {
              "pitch": 48,
              "velocity": 74,
              "position": 6.008333,
              "duration": 1.208333
            },
            {
              "pitch": 36,
              "velocity": 66,
              "position": 6.05,
              "duration": 1.908333
            },
            {
              "pitch": 55,
              "velocity": 58,
              "position": 6.466667,
              "duration": 1.491667
            },
            {
              "pitch": 59,
              "velocity": 86,
              "position": 6.966667,
              "duration": 0.991667
            },
            {
              "pitch": 64,
              "velocity": 78,
              "position": 6.975,
              "duration": 0.983333
            },
            {
              "pitch": 60,
              "velocity": 64,
              "position": 7.0,
              "duration": 0.958333
            },
            {
              "pitch": 48,
              "velocity": 84,
              "position": 8.033333,
              "duration": 1.341667
            },
            {
              "pitch": 36,
              "velocity": 76,
              "position": 8.05,
              "duration": 3.341667
            },
            {
              "pitch": 55,
              "velocity": 52,
              "position": 8.475,
              "duration": 0.6
            },
            {
              "pitch": 59,
              "velocity": 78,
              "position": 9.033333,
              "duration": 1.533333
            },
            {
              "pitch": 64,
              "velocity": 64,
              "position": 9.041667,
              "duration": 1.55
            },
            {
              "pitch": 60,
              "velocity": 62,
              "position": 9.058333,
              "duration": 1.425
            },
            {
              "pitch": 55,
              "velocity": 62,
              "position": 9.508333,
              "duration": 0.816667
            },
            {
              "pitch": 48,
              "velocity": 66,
              "position": 9.975,
              "duration": 1.408333
            },
            {
              "pitch": 64,
              "velocity": 70,
              "position": 11.016667,
              "duration": 1.35
            },
            {
              "pitch": 60,
              "velocity": 60,
              "position": 11.033333,
              "duration": 1.266667
            },
            {
              "pitch": 59,
              "velocity": 58,
              "position": 11.05,
              "duration": 1.258333
            },
            {
              "pitch": 55,
              "velocity": 74,
              "position": 11.491667,
              "duration": 1.191667
            },
            {
              "pitch": 36,
              "velocity": 74,
              "position": 12.008333,
              "duration": 3.258333
            },
            {
              "pitch": 48,
              "velocity": 78,
              "position": 12.025,
              "duration": 1.133333
            },
            {
              "pitch": 59,
              "velocity": 88,
              "position": 12.991667,
              "duration": 1.366667
            },
            {
              "pitch": 60,
              "velocity": 78,
              "position": 13.016667,
              "duration": 1.408333
            },
            {
              "pitch": 64,
              "velocity": 76,
              "position": 13.016667,
              "duration": 1.475
            },
            {
              "pitch": 48,
              "velocity": 60,
              "position": 14.033333,
              "duration": 1.925
            },
            {
              "pitch": 55,
              "velocity": 72,
              "position": 14.5,
              "duration": 0.466667
            },
            {
              "pitch": 64,
              "velocity": 72,
              "position": 15.041667,
              "duration": 0.916667
            },
            {
              "pitch": 59,
              "velocity": 78,
              "position": 15.05,
              "duration": 0.908333
            },
            {
              "pitch": 60,
              "velocity": 58,
              "position": 15.066667,
              "duration": 0.891667
            }
          ]
        },
        "12": {
          "ctab": {
            "srcChannel": 12,
            "name": "Guitar",
            "accType": "CHORD2",
            "editable": true,
            "mutedNotes": [],
            "mutedChords": [],
            "sourceChordNote": 0,
            "sourceChordType": "Maj7",
            "ctb2Main": {
              "ntr": "ROOT_FIXED",
              "ntt": "CHORD",
              "bassOn": false,
              "noteLowLimit": 40,
              "noteHighLimit": 76,
              "chordRootUpperLimit": 127,
              "rtr": "NOTE_GENERATOR"
            }
          },
          "notes": [
            {
              "pitch": 48,
              "velocity": 87,
              "position": 0.0,
              "duration": 1.958333
            },
            {
              "pitch": 55,
              "velocity": 52,
              "position": 0.058333,
              "duration": 1.9
            },
            {
              "pitch": 59,
              "velocity": 84,
              "position": 1.058333,
              "duration": 0.9
            },
            {
              "pitch": 67,
              "velocity": 67,
              "position": 1.066667,
              "duration": 0.016667
            },
            {
              "pitch": 64,
              "velocity": 83,
              "position": 1.075,
              "duration": 0.883333
            },
            {
              "pitch": 74,
              "velocity": 70,
              "position": 1.091667,
              "duration": 0.866667
            },
            {
              "pitch": 67,
              "velocity": 86,
              "position": 1.1,
              "duration": 0.858333
            },
            {
              "pitch": 48,
              "velocity": 92,
              "position": 2.0,
              "duration": 1.958333
            },
            {
              "pitch": 59,
              "velocity": 70,
              "position": 3.008333,
              "duration": 0.95
            },
            {
              "pitch": 67,
              "velocity": 49,
              "position": 3.025,
              "duration": 0.008333
            },
            {
              "pitch": 64,
              "velocity": 71,
              "position": 3.033333,
              "duration": 0.925
            },
            {
              "pitch": 67,
              "velocity": 91,
              "position": 3.05,
              "duration": 0.908333
            },
            {
              "pitch": 74,
              "velocity": 67,
              "position": 3.075,
              "duration": 0.883333
            },
            {
              "pitch": 48,
              "velocity": 92,
              "position": 4.0,
              "duration": 1.958333
            },
            {
              "pitch": 59,
              "velocity": 70,
              "position": 5.008333,
              "duration": 0.95
            },
            {
              "pitch": 67,
              "velocity": 49,
              "position": 5.025,
              "duration": 0.008333
            },
            {
              "pitch": 64,
              "velocity": 71,
              "position": 5.033333,
              "duration": 0.925
            },
            {
              "pitch": 67,
              "velocity": 91,
              "position": 5.05,
              "duration": 0.908333
            },
            {
              "pitch": 74,
              "velocity": 67,
              "position": 5.075,
              "duration": 0.883333
            },
            {
              "pitch": 48,
              "velocity": 87,
              "position": 6.0,
              "duration": 1.958333
            },
            {
              "pitch": 55,
              "velocity": 52,
              "position": 6.058333,
              "duration": 1.9
            },
            {
              "pitch": 59,
              "velocity": 84,
              "position": 7.058333,
              "duration": 0.9
            },
            {
              "pitch": 67,
              "velocity": 67,
              "position": 7.066667,
              "duration": 0.016667
            },
            {
              "pitch": 64,
              "velocity": 83,
              "position": 7.075,
              "duration": 0.883333
            },
            {
              "pitch": 74,
              "velocity": 70,
              "position": 7.091667,
              "duration": 0.866667
            },
            {
              "pitch": 67,
              "velocity": 86,
              "position": 7.1,
              "duration": 0.858333
            },
            {
              "pitch": 48,
              "velocity": 92,
              "position": 8.0,
              "duration": 4.008333
            },
            {
              "pitch": 59,
              "velocity": 70,
              "position": 9.008333,
              "duration": 1.891667
            },
            {
              "pitch": 67,
              "velocity": 49,
              "position": 9.025,
              "duration": 0.008333
            },
            {
              "pitch": 64,
              "velocity": 71,
              "position": 9.033333,
              "duration": 1.875
            },
            {
              "pitch": 67,
              "velocity": 91,
              "position": 9.05,
              "duration": 1.875
            },
            {
              "pitch": 74,
              "velocity": 67,
              "position": 9.075,
              "duration": 1.916667
            },
            {
              "pitch": 59,
              "velocity": 82,
              "position": 10.925,
              "duration": 2.05
            },
            {
              "pitch": 67,
              "velocity": 76,
              "position": 10.941667,
              "duration": 0.025
            },
            {
              "pitch": 64,
              "velocity": 74,
              "position": 10.95,
              "duration": 2.05
            },
            {
              "pitch": 67,
              "velocity": 79,
              "position": 10.983333,
              "duration": 0.483333
            },
            {
              "pitch": 74,
              "velocity": 46,
              "position": 11.008333,
              "duration": 4.316667
            },
            {
              "pitch": 67,
              "velocity": 73,
              "position": 11.525,
              "duration": 1.483333
            },
            {
              "pitch": 48,
              "velocity": 80,
              "position": 12.033333,
              "duration": 3.925
            },
            {
              "pitch": 55,
              "velocity": 74,
              "position": 12.991667,
              "duration": 1.958333
            },
            {
              "pitch": 59,
              "velocity": 97,
              "position": 13.016667,
              "duration": 1.975
            },
            {
              "pitch": 67,
              "velocity": 64,
              "position": 13.025,
              "duration": 0.025
            },
            {
              "pitch": 64,
              "velocity": 70,
              "position": 13.041667,
              "duration": 1.925
            },
            {
              "pitch": 67,
              "velocity": 78,
              "position": 13.066667,
              "duration": 1.933333
            },
            {
              "pitch": 55,
              "velocity": 73,
              "position": 14.975,
              "duration": 0.983333
            },
            {
              "pitch": 65,
              "velocity": 57,
              "position": 14.983333,
              "duration": 0.033333
            },
            {
              "pitch": 59,
              "velocity": 86,
              "position": 15.008333,
              "duration": 0.95
            },
            {
              "pitch": 68,
              "velocity": 67,
              "position": 15.016667,
              "duration": 0.033333
            },
            {
              "pitch": 64,
              "velocity": 70,
              "position": 15.033333,
              "duration": 0.925
            },
            {
              "pitch": 67,
              "velocity": 67,
              "position": 15.05,
              "duration": 0.908333
            },
            {
              "pitch": 74,
              "velocity": 60,
              "position": 15.433333,
              "duration": 0.525
            }
          ]
        },
        "13": {
          "ctab": {
            "srcChannel": 13,
            "name": "Strings",
            "accType": "PAD",
            "editable": true,
            "mutedNotes": [],
            "mutedChords": [],
            "sourceChordNote": 0,
            "sourceChordType": "Maj7",
            "ctb2Main": {
              "ntr": "ROOT_FIXED",
              "ntt": "MELODY",
              "bassOn": false,
              "noteLowLimit": 36,
              "noteHighLimit": 96,
              "chordRootUpperLimit": 127,
              "rtr": "PITCH_SHIFT"
            }
          },
          "notes": [
            {
              "pitch": 55,
              "velocity": 72,
              "position": 0.025,
              "duration": 1.933333
            },
            {
              "pitch": 59,
              "velocity": 63,
              "position": 0.516667,
              "duration": 1.025
            },
            {
              "pitch": 64,
              "velocity": 77,
              "position": 1.0,
              "duration": 0.958333
            },
            {
              "pitch": 59,
              "velocity": 56,
              "position": 1.566667,
              "duration": 0.391667
            },
            {
              "pitch": 55,
              "velocity": 72,
              "position": 2.025,
              "duration": 1.933333
            },
            {
              "pitch": 59,
              "velocity": 63,
              "position": 2.516667,
              "duration": 1.025
            },
            {
              "pitch": 64,
              "velocity": 77,
              "position": 3.0,
              "duration": 0.958333
            },
            {
              "pitch": 59,
              "velocity": 56,
              "position": 3.566667,
              "duration": 0.391667
            },
            {
              "pitch": 48,
              "velocity": 100,
              "position": 4.0,
              "duration": 1.958333
            },
            {
              "pitch": 48,
              "velocity": 41,
              "position": 6.0,
              "duration": 1.666667
            },
            {
              "pitch": 55,
              "velocity": 41,
              "position": 6.0,
              "duration": 1.25
            },
            {
              "pitch": 59,
              "velocity": 59,
              "position": 6.033333,
              "duration": 1.158333
            },
            {
              "pitch": 64,
              "velocity": 71,
              "position": 6.083333,
              "duration": 1.133333
            },
            {
              "pitch": 59,
              "velocity": 76,
              "position": 10.0,
              "duration": 5.033333
            },
            {
              "pitch": 64,
              "velocity": 51,
              "position": 10.45,
              "duration": 4.583333
            },
            {
              "pitch": 67,
              "velocity": 67,
              "position": 11.033333,
              "duration": 3.866667
            },
            {
              "pitch": 74,
              "velocity": 67,
              "position": 11.541667,
              "duration": 3.408333
            }
          ]
        }
      }
    },
    "Main_B": {
      "type": "Main_B",
      "sizeInBeats": 16,
      "channels": {
        "9": {
          "ctab": {
            "srcChannel": 9,
            "name": "Drums",
            "accType": "RHYTHM",
            "editable": false,
            "mutedNotes": [],
            "mutedChords": [],
            "sourceChordNote": 0,
            "sourceChordType": "Maj",
            "ctb2Main": {
              "ntr": "ROOT_FIXED",
              "ntt": "BYPASS",
              "bassOn": false,
              "noteLowLimit": 20,
              "noteHighLimit": 127,
              "chordRootUpperLimit": 127,
              "rtr": "RETRIGGER"
            }
          },
          "notes": [
            {
              "pitch": 36,
              "velocity": 112,
              "position": 0.0,
              "duration": 0.058333
            },
            {
              "pitch": 57,
              "velocity": 120,
              "position": 0.0,
              "duration": 0.066667
            },
            {
              "pitch": 40,
              "velocity": 127,
              "position": 1.0,
              "duration": 0.533333
            },
            {
              "pitch": 42,
              "velocity": 62,
              "position": 1.0,
              "duration": 0.516667
            },
            {
              "pitch": 36,
              "velocity": 102,
              "position": 1.5,
              "duration": 0.45
            },
            {
              "pitch": 36,
              "velocity": 112,
              "position": 2.0,
              "duration": 0.583333
            },
            {
              "pitch": 42,
              "velocity": 90,
              "position": 2.0,
              "duration": 0.541667
            },
            {
              "pitch": 40,
              "velocity": 127,
              "position": 3.0,
              "duration": 0.425
            },
            {
              "pitch": 42,
              "velocity": 105,
              "position": 3.0,
              "duration": 0.608333
            },
            {
              "pitch": 36,
              "velocity": 112,
              "position": 4.0,
              "duration": 0.566667
            },
            {
              "pitch": 42,
              "velocity": 127,
              "position": 4.0,
              "duration": 0.516667
            },
            {
              "pitch": 40,
              "velocity": 127,
              "position": 5.0,
              "duration": 0.416667
            },
            {
              "pitch": 42,
              "velocity": 127,
              "position": 5.0,
              "duration": 0.575
            },
            {
              "pitch": 36,
              "velocity": 112,
              "position": 5.5,
              "duration": 0.558333
            },
            {
              "pitch": 42,
              "velocity": 127,
              "position": 6.0,
              "duration": 0.033333
            },
            {
              "pitch": 42,
              "velocity": 77,
              "position": 6.5,
              "duration": 0.591667
            },
            {
              "pitch": 40,
              "velocity": 127,
              "position": 7.0,
              "duration": 0.525
            },
            {
              "pitch": 42,
              "velocity": 74,
              "position": 7.5,
              "duration": 0.433333
            },
            {
              "pitch": 36,
              "velocity": 112,
              "position": 8.0,
              "duration": 0.516667
            },
            {
              "pitch": 42,
              "velocity": 103,
              "position": 8.0,
              "duration": 0.491667
            },
            {
              "pitch": 42,
              "velocity": 85,
              "position": 8.5,
              "duration": 0.433333
            },
            {
              "pitch": 40,
              "velocity": 127,
              "position": 9.0,
              "duration": 0.608333
            },
            {
              "pitch": 42,
              "velocity": 127,
              "position": 9.0,
              "duration": 0.566667
            },
            {
              "pitch": 36,
              "velocity": 112,
              "position": 9.5,
              "duration": 0.533333
            },
            {
              "pitch": 42,
              "velocity": 107,
              "position": 10.0,
              "duration": 0.608333
            },
            {
              "pitch": 40,
              "velocity": 127,
              "position": 11.0,
              "duration": 0.5
            },
            {
              "pitch": 42,
              "velocity": 127,
              "position": 11.0,
              "duration": 0.033333
            },
            {
              "pitch": 42,
              "velocity": 69,
              "position": 11.5,
              "duration": 0.5
            },
            {
              "pitch": 36,
              "velocity": 112,
              "position": 12.0,
              "duration": 0.441667
            },
            {
              "pitch": 42,
              "velocity": 55,
              "position": 12.033333,
              "duration": 0.608333
            },
            {
              "pitch": 45,
              "velocity": 127,
              "position": 12.533333,
              "duration": 0.375
            },
            {
              "pitch": 40,
              "velocity": 115,
              "position": 13.0,
              "duration": 0.4
            },
            {
              "pitch": 36,
              "velocity": 112,
              "position": 13.5,
              "duration": 0.425
            },
            {
              "pitch": 42,
              "velocity": 112,
              "position": 13.516667,
              "duration": 0.625
            },
            {
              "pitch": 40,
              "velocity": 74,
              "position": 14.008333,
              "duration": 0.391667
            },
            {
              "pitch": 36,
              "velocity": 82,
              "position": 14.5,
              "duration": 0.4
            },
            {
              "pitch": 40,
              "velocity": 68,
              "position": 14.5,
              "duration": 0.4
            },
            {
              "pitch": 40,
              "velocity": 115,
              "position": 15.0,
              "duration": 0.908333
            },
            {
              "pitch": 36,
              "velocity": 81,
              "position": 15.066667,
              "duration": 0.566667
            }
          ]
        },
        "10": {
          "ctab": {
            "srcChannel": 10,
            "name": "Bass",
            "accType": "BASS",
            "editable": true,
            "mutedNotes": [],
            "mutedChords": [],
            "sourceChordNote": 0,
            "sourceChordType": "Maj7",
            "ctb2Main": {
              "ntr": "ROOT_TRANSPOSITION",
              "ntt": "BYPASS",
              "bassOn": true,
              "noteLowLimit": 20,
              "noteHighLimit": 60,
              "chordRootUpperLimit": 127,
              "rtr": "NOTE_GENERATOR"
            }
          },
          "notes": [
            {
              "pitch": 36,
              "velocity": 75,
              "position": 0.0,
              "duration": 1.241667
            },
            {
              "pitch": 36,
              "velocity": 72,
              "position": 2.016667,
              "duration": 1.408333
            },
            {
              "pitch": 36,
              "velocity": 72,
              "position": 4.016667,
              "duration": 1.408333
            },
            {
              "pitch": 36,
              "velocity": 70,
              "position": 6.0,
              "duration": 1.091667
            },
            {
              "pitch": 36,
              "velocity": 71,
              "position": 7.525,
              "duration": 0.241667
            },
            {
              "pitch": 36,
              "velocity": 78,
              "position": 8.016667,
              "duration": 1.55
            },
            {
              "pitch": 43,
              "velocity": 70,
              "position": 10.041667,
              "duration": 1.341667
            },
            {
              "pitch": 36,
              "velocity": 70,
              "position": 12.0,
              "duration": 1.091667
            },
            {
              "pitch": 36,
              "velocity": 71,
              "position": 13.525,
              "duration": 0.241667
            },
            {
              "pitch": 43,
              "velocity": 67,
              "position": 14.05,
              "duration": 1.275
            }
          ]
        },
        "11": {
          "ctab": {
            "srcChannel": 11,
            "name": "Piano",
            "accType": "CHORD1",
            "editable": true,
            "mutedNotes": [],
            "mutedChords": [],
            "sourceChordNote": 0,
            "sourceChordType": "Maj7",
            "ctb2Main": {
              "ntr": "ROOT_FIXED",
              "ntt": "CHORD",
              "bassOn": false,
              "noteLowLimit": 48,
              "noteHighLimit": 84,
              "chordRootUpperLimit": 127,
              "rtr": "NOTE_GENERATOR"
            }
          },
          "notes": [
            {
              "pitch": 48,
              "velocity": 74,
              "position": 0.0,
              "duration": 1.141667
            },
            {
              "pitch": 59,
              "velocity": 80,
              "position": 0.0,
              "duration": 0.85
            },
            {
              "pitch": 64,
              "velocity": 70,
              "position": 0.0,
              "duration": 1.958333
            },
            {
              "pitch": 55,
              "velocity": 82,
              "position": 0.991667,
              "duration": 0.966667
            },
            {
              "pitch": 59,
              "velocity": 89,
              "position": 0.991667,
              "duration": 0.966667
            },
            {
              "pitch": 48,
              "velocity": 86,
              "position": 2.0,
              "duration": 1.441667
            },
            {
              "pitch": 36,
              "velocity": 76,
              "position": 2.008333,
              "duration": 1.95
            },
            {
              "pitch": 59,
              "velocity": 66,
              "position": 2.5,
              "duration": 0.525
            },
            {
              "pitch": 71,
              "velocity": 66,
              "position": 3.0,
              "duration": 0.958333
            },
            {
              "pitch": 64,
              "velocity": 52,
              "position": 3.025,
              "duration": 0.866667
            },
            {
              "pitch": 67,
              "velocity": 68,
              "position": 3.025,
              "duration": 0.875
            },
            {
              "pitch": 59,
              "velocity": 88,
              "position": 3.516667,
              "duration": 0.441667
            },
            {
              "pitch": 36,
              "velocity": 84,
              "position": 4.033333,
              "duration": 1.925
            },
            {
              "pitch": 48,
              "velocity": 90,
              "position": 4.033333,
              "duration": 1.325
            },
            {
              "pitch": 59,
              "velocity": 88,
              "position": 5.016667,
              "duration": 0.941667
            },
            {
              "pitch": 60,
              "velocity": 84,
              "position": 5.016667,
              "duration": 0.941667
            },
            {
              "pitch": 64,
              "velocity": 80,
              "position": 5.016667,
              "duration": 0.941667
            },
            {
              "pitch": 55,
              "velocity": 84,
              "position": 5.516667,
              "duration": 0.441667
            },
            {
              "pitch": 48,
              "velocity": 74,
              "position": 6.016667,
              "duration": 1.433333
            },
            {
              "pitch": 36,
              "velocity": 70,
              "position": 6.041667,
              "duration": 1.916667
            },
            {
              "pitch": 59,
              "velocity": 89,
              "position": 6.991667,
              "duration": 0.966667
            },
            {
              "pitch": 64,
              "velocity": 80,
              "position": 7.008333,
              "duration": 0.95
            },
            {
              "pitch": 67,
              "velocity": 87,
              "position": 7.025,
              "duration": 0.933333
            },
            {
              "pitch": 48,
              "velocity": 84,
              "position": 8.033333,
              "duration": 1.341667
            },
            {
              "pitch": 36,
              "velocity": 76,
              "position": 8.05,
              "duration": 3.341667
            },
            {
              "pitch": 55,
              "velocity": 52,
              "position": 8.475,
              "duration": 0.6
            },
            {
              "pitch": 59,
              "velocity": 78,
              "position": 9.033333,
              "duration": 1.533333
            },
            {
              "pitch": 64,
              "velocity": 64,
              "position": 9.041667,
              "duration": 1.55
            },
            {
              "pitch": 60,
              "velocity": 62,
              "position": 9.058333,
              "duration": 1.425
            },
            {
              "pitch": 55,
              "velocity": 62,
              "position": 9.508333,
              "duration": 0.816667
            },
            {
              "pitch": 48,
              "velocity": 66,
              "position": 9.975,
              "duration": 1.408333
            },
            {
              "pitch": 64,
              "velocity": 70,
              "position": 11.016667,
              "duration": 1.35
            },
            {
              "pitch": 60,
              "velocity": 60,
              "position": 11.033333,
              "duration": 1.266667
            },
            {
              "pitch": 59,
              "velocity": 58,
              "position": 11.05,
              "duration": 1.258333
            },
            {
              "pitch": 55,
              "velocity": 74,
              "position": 11.491667,
              "duration": 1.191667
            },
            {
              "pitch": 36,
              "velocity": 74,
              "position": 12.008333,
              "duration": 3.258333
            },
            {
              "pitch": 48,
              "velocity": 78,
              "position": 12.025,
              "duration": 1.133333
            },
            {
              "pitch": 59,
              "velocity": 88,
              "position": 12.991667,
              "duration": 1.366667
            },
            {
              "pitch": 60,
              "velocity": 78,
              "position": 13.016667,
              "duration": 1.408333
            },
            {
              "pitch": 64,
              "velocity": 76,
              "position": 13.016667,
              "duration": 1.475
            },
            {
              "pitch": 48,
              "velocity": 60,
              "position": 14.033333,
              "duration": 1.925
            },
            {
              "pitch": 55,
              "velocity": 72,
              "position": 14.5,
              "duration": 0.466667
            },
            {
              "pitch": 64,
              "velocity": 72,
              "position": 15.041667,
              "duration": 0.916667
            },
            {
              "pitch": 59,
              "velocity": 78,
              "position": 15.05,
              "duration": 0.908333
            },
            {
              "pitch": 60,
              "velocity": 58,
              "position": 15.066667,
              "duration": 0.891667
            }
          ]
        },
        "12": {
          "ctab": {
            "srcChannel": 12,
            "name": "Guitar",
            "accType": "CHORD2",
            "editable": true,
            "mutedNotes": [],
            "mutedChords": [],
            "sourceChordNote": 0,
            "sourceChordType": "Maj7",
            "ctb2Main": {
              "ntr": "ROOT_FIXED",
              "ntt": "CHORD",
              "bassOn": false,
              "noteLowLimit": 40,
              "noteHighLimit": 76,
              "chordRootUpperLimit": 127,
              "rtr": "NOTE_GENERATOR"
            }
          },
          "notes": [
            {
              "pitch": 48,
              "velocity": 87,
              "position": 0.0,
              "duration": 1.958333
            },
            {
              "pitch": 55,
              "velocity": 52,
              "position": 0.058333,
              "duration": 1.9
            },
            {
              "pitch": 59,
              "velocity": 84,
              "position": 1.058333,
              "duration": 0.9
            },
            {
              "pitch": 67,
              "velocity": 67,
              "position": 1.066667,
              "duration": 0.016667
            },
            {
              "pitch": 64,
              "velocity": 83,
              "position": 1.075,
              "duration": 0.883333
            },
            {
              "pitch": 74,
              "velocity": 70,
              "position": 1.091667,
              "duration": 0.866667
            },
            {
              "pitch": 67,
              "velocity": 86,
              "position": 1.1,
              "duration": 0.858333
            },
            {
              "pitch": 48,
              "velocity": 92,
              "position": 2.0,
              "duration": 1.958333
            },
            {
              "pitch": 59,
              "velocity": 70,
              "position": 3.008333,
              "duration": 0.95
            },
            {
              "pitch": 67,
              "velocity": 49,
              "position": 3.025,
              "duration": 0.008333
            },
            {
              "pitch": 64,
              "velocity": 71,
              "position": 3.033333,
              "duration": 0.925
            },
            {
              "pitch": 67,
              "velocity": 91,
              "position": 3.05,
              "duration": 0.908333
            },
            {
              "pitch": 74,
              "velocity": 67,
              "position": 3.075,
              "duration": 0.883333
            },
            {
              "pitch": 48,
              "velocity": 87,
              "position": 4.0,
              "duration": 1.958333
            },
            {
              "pitch": 55,
              "velocity": 52,
              "position": 4.058333,
              "duration": 1.9
            },
            {
              "pitch": 59,
              "velocity": 84,
              "position": 5.058333,
              "duration": 0.9
            },
            {
              "pitch": 67,
              "velocity": 67,
              "position": 5.066667,
              "duration": 0.016667
            },
            {
              "pitch": 64,
              "velocity": 83,
              "position": 5.075,
              "duration": 0.883333
            },
            {
              "pitch": 74,
              "velocity": 70,
              "position": 5.091667,
              "duration": 0.866667
            },
            {
              "pitch": 67,
              "velocity": 86,
              "position": 5.1,
              "duration": 0.858333
            },
            {
              "pitch": 48,
              "velocity": 92,
              "position": 6.0,
              "duration": 1.958333
            },
            {
              "pitch": 59,
              "velocity": 70,
              "position": 7.008333,
              "duration": 0.95
            },
            {
              "pitch": 67,
              "velocity": 49,
              "position": 7.025,
              "duration": 0.008333
            },
            {
              "pitch": 64,
              "velocity": 71,
              "position": 7.033333,
              "duration": 0.925
            },
            {
              "pitch": 67,
              "velocity": 91,
              "position": 7.05,
              "duration": 0.908333
            },
            {
              "pitch": 74,
              "velocity": 67,
              "position": 7.075,
              "duration": 0.883333
            },
            {
              "pitch": 48,
              "velocity": 87,
              "position": 8.0,
              "duration": 4.025
            },
            {
              "pitch": 55,
              "velocity": 52,
              "position": 8.058333,
              "duration": 4.0
            },
            {
              "pitch": 59,
              "velocity": 84,
              "position": 9.058333,
              "duration": 1.941667
            },
            {
              "pitch": 67,
              "velocity": 67,
              "position": 9.066667,
              "duration": 0.016667
            },
            {
              "pitch": 64,
              "velocity": 83,
              "position": 9.075,
              "duration": 1.458333
            },
            {
              "pitch": 74,
              "velocity": 70,
              "position": 9.091667,
              "duration": 1.958333
            },
            {
              "pitch": 67,
              "velocity": 86,
              "position": 9.1,
              "duration": 1.383333
            },
            {
              "pitch": 67,
              "velocity": 58,
              "position": 10.5,
              "duration": 0.541667
            },
            {
              "pitch": 64,
              "velocity": 41,
              "position": 10.558333,
              "duration": 0.475
            },
            {
              "pitch": 59,
              "velocity": 53,
              "position": 11.016667,
              "duration": 1.958333
            },
            {
              "pitch": 64,
              "velocity": 81,
              "position": 11.05,
              "duration": 1.941667
            },
            {
              "pitch": 67,
              "velocity": 103,
              "position": 11.058333,
              "duration": 1.95
            },
            {
              "pitch": 74,
              "velocity": 90,
              "position": 11.075,
              "duration": 0.45
            },
            {
              "pitch": 74,
              "velocity": 70,
              "position": 11.55,
              "duration": 1.458333
            },
            {
              "pitch": 48,
              "velocity": 70,
              "position": 12.05,
              "duration": 3.908333
            },
            {
              "pitch": 62,
              "velocity": 41,
              "position": 12.083333,
              "duration": 0.025
            },
            {
              "pitch": 55,
              "velocity": 41,
              "position": 12.116667,
              "duration": 1.9
            },
            {
              "pitch": 59,
              "velocity": 66,
              "position": 13.0,
              "duration": 1.983333
            },
            {
              "pitch": 64,
              "velocity": 70,
              "position": 13.008333,
              "duration": 1.975
            },
            {
              "pitch": 74,
              "velocity": 65,
              "position": 13.016667,
              "duration": 0.016667
            },
            {
              "pitch": 67,
              "velocity": 90,
              "position": 13.025,
              "duration": 1.958333
            },
            {
              "pitch": 74,
              "velocity": 86,
              "position": 13.058333,
              "duration": 1.95
            },
            {
              "pitch": 55,
              "velocity": 55,
              "position": 14.041667,
              "duration": 1.916667
            },
            {
              "pitch": 59,
              "velocity": 86,
              "position": 15.0,
              "duration": 0.958333
            },
            {
              "pitch": 67,
              "velocity": 68,
              "position": 15.008333,
              "duration": 0.008333
            },
            {
              "pitch": 64,
              "velocity": 77,
              "position": 15.016667,
              "duration": 0.941667
            },
            {
              "pitch": 74,
              "velocity": 77,
              "position": 15.025,
              "duration": 0.008333
            },
            {
              "pitch": 67,
              "velocity": 96,
              "position": 15.033333,
              "duration": 0.925
            },
            {
              "pitch": 74,
              "velocity": 93,
              "position": 15.05,
              "duration": 0.908333
            }
          ]
        },
        "13": {
          "ctab": {
            "srcChannel": 13,
            "name": "Strings",
            "accType": "PAD",
            "editable": true,
            "mutedNotes": [],
            "mutedChords": [],
            "sourceChordNote": 0,
            "sourceChordType": "Maj7",
            "ctb2Main": {
              "ntr": "ROOT_FIXED",
              "ntt": "MELODY",
              "bassOn": false,
              "noteLowLimit": 36,
              "noteHighLimit": 96,
              "chordRootUpperLimit": 127,
              "rtr": "PITCH_SHIFT"
            }
          },
          "notes": [
            {
              "pitch": 48,
              "velocity": 100,
              "position": 0.0,
              "duration": 1.958333
            },
            {
              "pitch": 48,
              "velocity": 41,
              "position": 2.0,
              "duration": 1.666667
            },
            {
              "pitch": 55,
              "velocity": 41,
              "position": 2.0,
              "duration": 1.25
            },
            {
              "pitch": 59,
              "velocity": 59,
              "position": 2.033333,
              "duration": 1.158333
            },
            {
              "pitch": 64,
              "velocity": 71,
              "position": 2.083333,
              "duration": 1.133333
            },
            {
              "pitch": 48,
              "velocity": 41,
              "position": 4.0,
              "duration": 1.666667
            },
            {
              "pitch": 55,
              "velocity": 41,
              "position": 4.0,
              "duration": 1.25
            },
            {
              "pitch": 59,
              "velocity": 59,
              "position": 4.033333,
              "duration": 1.158333
            },
            {
              "pitch": 64,
              "velocity": 71,
              "position": 4.083333,
              "duration": 1.133333
            },
            {
              "pitch": 55,
              "velocity": 72,
              "position": 6.025,
              "duration": 1.933333
            },
            {
              "pitch": 59,
              "velocity": 63,
              "position": 6.516667,
              "duration": 1.025
            },
            {
              "pitch": 64,
              "velocity": 77,
              "position": 7.0,
              "duration": 0.958333
            },
            {
              "pitch": 59,
              "velocity": 56,
              "position": 7.566667,
              "duration": 0.391667
            },
            {
              "pitch": 59,
              "velocity": 76,
              "position": 10.0,
              "duration": 5.033333
            },
            {
              "pitch": 64,
              "velocity": 51,
              "position": 10.45,
              "duration": 4.583333
            },
            {
              "pitch": 67,
              "velocity": 67,
              "position": 11.033333,
              "duration": 3.866667
            },
            {
              "pitch": 74,
              "velocity": 67,
              "position": 11.541667,
              "duration": 3.408333
            }
          ]
        }
      }
    },
    "Main_C": {
      "type": "Main_C",
      "sizeInBeats": 16,
      "channels": {
        "9": {
          "ctab": {
            "srcChannel": 9,
            "name": "Drums",
            "accType": "RHYTHM",
            "editable": false,
            "mutedNotes": [],
            "mutedChords": [],
            "sourceChordNote": 0,
            "sourceChordType": "Maj",
            "ctb2Main": {
              "ntr": "ROOT_FIXED",
              "ntt": "BYPASS",
              "bassOn": false,
              "noteLowLimit": 20,
              "noteHighLimit": 127,
              "chordRootUpperLimit": 127,
              "rtr": "RETRIGGER"
            }
          },
          "notes": [
            {
              "pitch": 36,
              "velocity": 112,
              "position": 0.0,
              "duration": 0.058333
            },
            {
              "pitch": 57,
              "velocity": 120,
              "position": 0.0,
              "duration": 0.066667
            },
            {
              "pitch": 40,
              "velocity": 127,
              "position": 1.0,
              "duration": 0.533333
            },
            {
              "pitch": 42,
              "velocity": 62,
              "position": 1.0,
              "duration": 0.516667
            },
            {
              "pitch": 36,
              "velocity": 102,
              "position": 1.5,
              "duration": 0.45
            },
            {
              "pitch": 36,
              "velocity": 112,
              "position": 2.0,
              "duration": 0.583333
            },
            {
              "pitch": 42,
              "velocity": 90,
              "position": 2.0,
              "duration": 0.541667
            },
            {
              "pitch": 40,
              "velocity": 127,
              "position": 3.0,
              "duration": 0.425
            },
            {
              "pitch": 42,
              "velocity": 105,
              "position": 3.0,
              "duration": 0.608333
            },
            {
              "pitch": 36,
              "velocity": 112,
              "position": 4.0,
              "duration": 0.591667
            },
            {
              "pitch": 42,
              "velocity": 80,
              "position": 4.0,
              "duration": 0.566667
            },
            {
              "pitch": 40,
              "velocity": 127,
              "position": 5.0,
              "duration": 0.425
            },
            {
              "pitch": 42,
              "velocity": 127,
              "position": 5.0,
              "duration": 0.608333
            },
            {
              "pitch": 36,
              "velocity": 112,
              "position": 5.5,
              "duration": 0.566667
            },
            {
              "pitch": 42,
              "velocity": 88,
              "position": 6.0,
              "duration": 0.05
            },
            {
              "pitch": 42,
              "velocity": 78,
              "position": 6.5,
              "duration": 0.6
            },
            {
              "pitch": 40,
              "velocity": 127,
              "position": 7.0,
              "duration": 0.566667
            },
            {
              "pitch": 36,
              "velocity": 112,
              "position": 7.5,
              "duration": 0.5
            },
            {
              "pitch": 42,
              "velocity": 91,
              "position": 7.5,
              "duration": 0.025
            },
            {
              "pitch": 36,
              "velocity": 112,
              "position": 8.0,
              "duration": 0.441667
            },
            {
              "pitch": 42,
              "velocity": 127,
              "position": 8.0,
              "duration": 0.591667
            },
            {
              "pitch": 40,
              "velocity": 127,
              "position": 9.0,
              "duration": 0.483333
            },
            {
              "pitch": 42,
              "velocity": 127,
              "position": 9.0,
              "duration": 0.033333
            },
            {
              "pitch": 36,
              "velocity": 112,
              "position": 9.5,
              "duration": 0.441667
            },
            {
              "pitch": 42,
              "velocity": 82,
              "position": 9.5,
              "duration": 0.6
            },
            {
              "pitch": 36,
              "velocity": 112,
              "position": 10.0,
              "duration": 0.558333
            },
            {
              "pitch": 42,
              "velocity": 80,
              "position": 10.5,
              "duration": 0.016667
            },
            {
              "pitch": 40,
              "velocity": 127,
              "position": 11.0,
              "duration": 0.433333
            },
            {
              "pitch": 42,
              "velocity": 127,
              "position": 11.0,
              "duration": 0.6
            },
            {
              "pitch": 36,
              "velocity": 112,
              "position": 12.0,
              "duration": 0.425
            },
            {
              "pitch": 42,
              "velocity": 85,
              "position": 12.0,
              "duration": 0.616667
            },
            {
              "pitch": 40,
              "velocity": 127,
              "position": 13.0,
              "duration": 0.508333
            },
            {
              "pitch": 42,
              "velocity": 127,
              "position": 13.0,
              "duration": 0.05
            },
            {
              "pitch": 36,
              "velocity": 65,
              "position": 13.5,
              "duration": 0.45
            },
            {
              "pitch": 42,
              "velocity": 66,
              "position": 13.5,
              "duration": 0.616667
            },
            {
              "pitch": 36,
              "velocity": 112,
              "position": 14.0,
              "duration": 0.4
            },
            {
              "pitch": 40,
              "velocity": 127,
              "position": 14.5,
              "duration": 0.491667
            },
            {
              "pitch": 36,
              "velocity": 112,
              "position": 15.0,
              "duration": 0.458333
            },
            {
              "pitch": 40,
              "velocity": 127,
              "position": 15.5,
              "duration": 0.5
            }
          ]
        },
        "10": {
          "ctab": {
            "srcChannel": 10,
            "name": "Bass",
            "accType": "BASS",
            "editable": true,
            "mutedNotes": [],
            "mutedChords": [],
            "sourceChordNote": 0,
            "sourceChordType": "Maj7",
            "ctb2Main": {
              "ntr": "ROOT_TRANSPOSITION",
              "ntt": "BYPASS",
              "bassOn": true,
              "noteLowLimit": 20,
              "noteHighLimit": 60,
              "chordRootUpperLimit": 127,
              "rtr": "NOTE_GENERATOR"
            }
          },
          "notes": [
            {
              "pitch": 36,
              "velocity": 70,
              "position": 0.0,
              "duration": 1.091667
            },
            {
              "pitch": 36,
              "velocity": 71,
              "position": 1.525,
              "duration": 0.241667
            },
            {
              "pitch": 36,
              "velocity": 70,
              "position": 2.0,
              "duration": 1.091667
            },
            {
              "pitch": 36,
              "velocity": 71,
              "position": 3.525,
              "duration": 0.241667
            },
            {
              "pitch": 36,
              "velocity": 70,
              "position": 4.0,
              "duration": 1.091667
            },
            {
              "pitch": 36,
              "velocity": 71,
              "position": 5.525,
              "duration": 0.241667
            },
            {
              "pitch": 36,
              "velocity": 71,
              "position": 6.033333,
              "duration": 1.333333
            },
            {
              "pitch": 36,
              "velocity": 78,
              "position": 8.016667,
              "duration": 1.55
            },
            {
              "pitch": 43,
              "velocity": 70,
              "position": 10.041667,
              "duration": 1.341667
            },
            {
              "pitch": 36,
              "velocity": 70,
              "position": 12.0,
              "duration": 1.091667
            },
            {
              "pitch": 36,
              "velocity": 71,
              "position": 13.525,
              "duration": 0.241667
            },
            {
              "pitch": 43,
              "velocity": 67,
              "position": 14.05,
              "duration": 1.275
            }
          ]
        },
        "11": {
          "ctab": {
            "srcChannel": 11,
            "name": "Piano",
            "accType": "CHORD1",
            "editable": true,
            "mutedNotes": [],
            "mutedChords": [],
            "sourceChordNote": 0,
            "sourceChordType": "Maj7",
            "ctb2Main": {
              "ntr": "ROOT_FIXED",
              "ntt": "CHORD",
              "bassOn": false,
              "noteLowLimit": 48,
              "noteHighLimit": 84,
              "chordRootUpperLimit": 127,
              "rtr": "NOTE_GENERATOR"
            }
          },
          "notes": [
            {
              "pitch": 48,
              "velocity": 84,
              "position": 0.0,
              "duration": 1.958333
            },
            {
              "pitch": 36,
              "velocity": 84,
              "position": 0.008333,
              "duration": 1.95
            },
            {
              "pitch": 59,
              "velocity": 54,
              "position": 0.008333,
              "duration": 0.791667
            },
            {
              "pitch": 64,
              "velocity": 45,
              "position": 0.016667,
              "duration": 0.891667
            },
            {
              "pitch": 59,
              "velocity": 91,
              "position": 0.991667,
              "duration": 0.966667
            },
            {
              "pitch": 64,
              "velocity": 3,
              "position": 1.0,
              "duration": 0.958333
            },
            {
              "pitch": 60,
              "velocity": 74,
              "position": 1.016667,
              "duration": 0.941667
            },
            {
              "pitch": 67,
              "velocity": 86,
              "position": 1.016667,
              "duration": 0.941667
            },
            {
              "pitch": 36,
              "velocity": 84,
              "position": 2.008333,
              "duration": 1.95
            },
            {
              "pitch": 48,
              "velocity": 84,
              "position": 2.008333,
              "duration": 1.95
            },
            {
              "pitch": 59,
              "velocity": 78,
              "position": 2.008333,
              "duration": 0.708333
            },
            {
              "pitch": 59,
              "velocity": 91,
              "position": 2.975,
              "duration": 0.983333
            },
            {
              "pitch": 71,
              "velocity": 76,
              "position": 2.983333,
              "duration": 0.975
            },
            {
              "pitch": 64,
              "velocity": 58,
              "position": 2.991667,
              "duration": 0.966667
            },
            {
              "pitch": 67,
              "velocity": 78,
              "position": 3.0,
              "duration": 0.958333
            },
            {
              "pitch": 36,
              "velocity": 84,
              "position": 4.008333,
              "duration": 1.95
            },
            {
              "pitch": 48,
              "velocity": 84,
              "position": 4.008333,
              "duration": 1.95
            },
            {
              "pitch": 59,
              "velocity": 78,
              "position": 4.008333,
              "duration": 0.708333
            },
            {
              "pitch": 59,
              "velocity": 91,
              "position": 4.975,
              "duration": 0.983333
            },
            {
              "pitch": 71,
              "velocity": 76,
              "position": 4.983333,
              "duration": 0.975
            },
            {
              "pitch": 64,
              "velocity": 58,
              "position": 4.991667,
              "duration": 0.966667
            },
            {
              "pitch": 67,
              "velocity": 78,
              "position": 5.0,
              "duration": 0.958333
            },
            {
              "pitch": 48,
              "velocity": 74,
              "position": 6.008333,
              "duration": 1.208333
            },
            {
              "pitch": 36,
              "velocity": 66,
              "position": 6.05,
              "duration": 1.908333
            },
            {
              "pitch": 55,
              "velocity": 58,
              "position": 6.466667,
              "duration": 1.491667
            },
            {
              "pitch": 59,
              "velocity": 86,
              "position": 6.966667,
              "duration": 0.991667
            },
            {
              "pitch": 64,
              "velocity": 78,
              "position": 6.975,
              "duration": 0.983333
            },
            {
              "pitch": 60,
              "velocity": 64,
              "position": 7.0,
              "duration": 0.958333
            },
            {
              "pitch": 48,
              "velocity": 74,
              "position": 8.0,
              "duration": 1.141667
            },
            {
              "pitch": 59,
              "velocity": 80,
              "position": 8.0,
              "duration": 0.85
            },
            {
              "pitch": 64,
              "velocity": 70,
              "position": 8.0,
              "duration": 2.066667
            },
            {
              "pitch": 55,
              "velocity": 82,
              "position": 8.991667,
              "duration": 1.208333
            },
            {
              "pitch": 59,
              "velocity": 89,
              "position": 8.991667,
              "duration": 1.55
            },
            {
              "pitch": 48,
              "velocity": 64,
              "position": 9.983333,
              "duration": 1.141667
            },
            {
              "pitch": 55,
              "velocity": 66,
              "position": 10.475,
              "duration": 0.45
            },
            {
              "pitch": 59,
              "velocity": 86,
              "position": 10.983333,
              "duration": 1.141667
            },
            {
              "pitch": 60,
              "velocity": 76,
              "position": 10.983333,
              "duration": 1.033333
            },
            {
              "pitch": 64,
              "velocity": 78,
              "position": 10.983333,
              "duration": 1.141667
            },
            {
              "pitch": 55,
              "velocity": 66,
              "position": 11.483333,
              "duration": 1.091667
            },
            {
              "pitch": 48,
              "velocity": 80,
              "position": 12.0,
              "duration": 1.166667
            },
            {
              "pitch": 36,
              "velocity": 62,
              "position": 12.016667,
              "duration": 3.941667
            },
            {
              "pitch": 59,
              "velocity": 89,
              "position": 12.983333,
              "duration": 1.641667
            },
            {
              "pitch": 64,
              "velocity": 78,
              "position": 12.991667,
              "duration": 1.491667
            },
            {
              "pitch": 67,
              "velocity": 88,
              "position": 13.0,
              "duration": 1.458333
            },
            {
              "pitch": 48,
              "velocity": 82,
              "position": 14.516667,
              "duration": 1.441667
            },
            {
              "pitch": 59,
              "velocity": 84,
              "position": 14.991667,
              "duration": 0.966667
            },
            {
              "pitch": 64,
              "velocity": 60,
              "position": 14.991667,
              "duration": 0.966667
            },
            {
              "pitch": 55,
              "velocity": 76,
              "position": 15.5,
              "duration": 0.458333
            }
          ]
        },
        "12": {
          "ctab": {
            "srcChannel": 12,
            "name": "Guitar",
            "accType": "CHORD2",
            "editable": true,
            "mutedNotes": [],
            "mutedChords": [],
            "sourceChordNote": 0,
            "sourceChordType": "Maj7",
            "ctb2Main": {
              "ntr": "ROOT_FIXED",
              "ntt": "CHORD",
              "bassOn": false,
              "noteLowLimit": 40,
              "noteHighLimit": 76,
              "chordRootUpperLimit": 127,
              "rtr": "NOTE_GENERATOR"
            }
          },
          "notes": [
            {
              "pitch": 48,
              "velocity": 92,
              "position": 0.0,
              "duration": 1.958333
            },
            {
              "pitch": 59,
              "velocity": 70,
              "position": 1.008333,
              "duration": 0.95
            },
            {
              "pitch": 67,
              "velocity": 49,
              "position": 1.025,
              "duration": 0.008333
            },
            {
              "pitch": 64,
              "velocity": 71,
              "position": 1.033333,
              "duration": 0.925
            },
            {
              "pitch": 67,
              "velocity": 91,
              "position": 1.05,
              "duration": 0.908333
            },
            {
              "pitch": 74,
              "velocity": 67,
              "position": 1.075,
              "duration": 0.883333
            },
            {
              "pitch": 48,
              "velocity": 92,
              "position": 2.0,
              "duration": 1.958333
            },
            {
              "pitch": 59,
              "velocity": 70,
              "position": 3.008333,
              "duration": 0.95
            },
            {
              "pitch": 67,
              "velocity": 49,
              "position": 3.025,
              "duration": 0.008333
            },
            {
              "pitch": 64,
              "velocity": 71,
              "position": 3.033333,
              "duration": 0.925
            },
            {
              "pitch": 67,
              "velocity": 91,
              "position": 3.05,
              "duration": 0.908333
            },
            {
              "pitch": 74,
              "velocity": 67,
              "position": 3.075,
              "duration": 0.883333
            },
            {
              "pitch": 48,
              "velocity": 92,
              "position": 4.0,
              "duration": 1.958333
            },
            {
              "pitch": 59,
              "velocity": 70,
              "position": 5.008333,
              "duration": 0.95
            },
            {
              "pitch": 67,
              "velocity": 49,
              "position": 5.025,
              "duration": 0.008333
            },
            {
              "pitch": 64,
              "velocity": 71,
              "position": 5.033333,
              "duration": 0.925
            },
            {
              "pitch": 67,
              "velocity": 91,
              "position": 5.05,
              "duration": 0.908333
            },
            {
              "pitch": 74,
              "velocity": 67,
              "position": 5.075,
              "duration": 0.883333
            },
            {
              "pitch": 48,
              "velocity": 87,
              "position": 6.0,
              "duration": 1.958333
            },
            {
              "pitch": 55,
              "velocity": 52,
              "position": 6.058333,
              "duration": 1.9
            },
            {
              "pitch": 59,
              "velocity": 84,
              "position": 7.058333,
              "duration": 0.9
            },
            {
              "pitch": 67,
              "velocity": 67,
              "position": 7.066667,
              "duration": 0.016667
            },
            {
              "pitch": 64,
              "velocity": 83,
              "position": 7.075,
              "duration": 0.883333
            },
            {
              "pitch": 74,
              "velocity": 70,
              "position": 7.091667,
              "duration": 0.866667
            },
            {
              "pitch": 67,
              "velocity": 86,
              "position": 7.1,
              "duration": 0.858333
            },
            {
              "pitch": 48,
              "velocity": 92,
              "position": 8.0,
              "duration": 4.008333
            },
            {
              "pitch": 59,
              "velocity": 70,
              "position": 9.008333,
              "duration": 1.891667
            },
            {
              "pitch": 67,
              "velocity": 49,
              "position": 9.025,
              "duration": 0.008333
            },
            {
              "pitch": 64,
              "velocity": 71,
              "position": 9.033333,
              "duration": 1.875
            },
            {
              "pitch": 67,
              "velocity": 91,
              "position": 9.05,
              "duration": 1.875
            },
            {
              "pitch": 74,
              "velocity": 67,
              "position": 9.075,
              "duration": 1.916667
            },
            {
              "pitch": 59,
              "velocity": 82,
              "position": 10.925,
              "duration": 2.05
            },
            {
              "pitch": 67,
              "velocity": 76,
              "position": 10.941667,
              "duration": 0.025
            },
            {
              "pitch": 64,
              "velocity": 74,
              "position": 10.95,
              "duration": 2.05
            },
            {
              "pitch": 67,
              "velocity": 79,
              "position": 10.983333,
              "duration": 0.483333
            },
            {
              "pitch": 74,
              "velocity": 46,
              "position": 11.008333,
              "duration": 4.316667
            },
            {
              "pitch": 67,
              "velocity": 73,
              "position": 11.525,
              "duration": 1.483333
            },
            {
              "pitch": 48,
              "velocity": 80,
              "position": 12.033333,
              "duration": 3.925
            },
            {
              "pitch": 55,
              "velocity": 74,
              "position": 12.991667,
              "duration": 1.958333
            },
            {
              "pitch": 59,
              "velocity": 97,
              "position": 13.016667,
              "duration": 1.975
            },
            {
              "pitch": 67,
              "velocity": 64,
              "position": 13.025,
              "duration": 0.025
            },
            {
              "pitch": 64,
              "velocity": 70,
              "position": 13.041667,
              "duration": 1.925
            },
            {
              "pitch": 67,
              "velocity": 78,
              "position": 13.066667,
              "duration": 1.933333
            },
            {
              "pitch": 55,
              "velocity": 73,
              "position": 14.975,
              "duration": 0.983333
            },
            {
              "pitch": 65,
              "velocity": 57,
              "position": 14.983333,
              "duration": 0.033333
            },
            {
              "pitch": 59,
              "velocity": 86,
              "position": 15.008333,
              "duration": 0.95
            },
            {
              "pitch": 68,
              "velocity": 67,
              "position": 15.016667,
              "duration": 0.033333
            },
            {
              "pitch": 64,
              "velocity": 70,
              "position": 15.033333,
              "duration": 0.925
            },
            {
              "pitch": 67,
              "velocity": 67,
              "position": 15.05,
              "duration": 0.908333
            },
            {
              "pitch": 74,
              "velocity": 60,
              "position": 15.433333,
              "duration": 0.525
            }
          ]
        },
        "13": {
          "ctab": {
            "srcChannel": 13,
            "name": "Strings",
            "accType": "PAD",
            "editable": true,
            "mutedNotes": [],
            "mutedChords": [],
            "sourceChordNote": 0,
            "sourceChordType": "Maj7",
            "ctb2Main": {
              "ntr": "ROOT_FIXED",
              "ntt": "MELODY",
              "bassOn": false,
              "noteLowLimit": 36,
              "noteHighLimit": 96,
              "chordRootUpperLimit": 127,
              "rtr": "PITCH_SHIFT"
            }
          },
          "notes": [
            {
              "pitch": 55,
              "velocity": 72,
              "position": 0.025,
              "duration": 1.933333
            },
            {
              "pitch": 59,
              "velocity": 63,
              "position": 0.516667,
              "duration": 1.025
            },
            {
              "pitch": 64,
              "velocity": 77,
              "position": 1.0,
              "duration": 0.958333
            },
            {
              "pitch": 59,
              "velocity": 56,
              "position": 1.566667,
              "duration": 0.391667
            },
            {
              "pitch": 48,
              "velocity": 100,
              "position": 2.0,
              "duration": 1.958333
            },
            {
              "pitch": 48,
              "velocity": 41,
              "position": 4.0,
              "duration": 1.666667
            },
            {
              "pitch": 55,
              "velocity": 41,
              "position": 4.0,
              "duration": 1.25
            },
            {
              "pitch": 59,
              "velocity": 59,
              "position": 4.033333,
              "duration": 1.158333
            },
            {
              "pitch": 64,
              "velocity": 71,
              "position": 4.083333,
              "duration": 1.133333
            },
            {
              "pitch": 48,
              "velocity": 100,
              "position": 6.0,
              "duration": 1.958333
            },
            {
              "pitch": 52,
              "velocity": 69,
              "position": 9.975,
              "duration": 5.983333
            },
            {
              "pitch": 59,
              "velocity": 42,
              "position": 10.466667,
              "duration": 5.491667
            },
            {
              "pitch": 60,
              "velocity": 58,
              "position": 10.975,
              "duration": 4.983333
            },
            {
              "pitch": 67,
              "velocity": 67,
              "position": 11.491667,
              "duration": 4.466667
            }
          ]
        }
      }
    },
    "Main_D": {
      "type": "Main_D",
      "sizeInBeats": 16,
      "channels": {
        "9": {
          "ctab": {
            "srcChannel": 9,
            "name": "Drums",
            "accType": "RHYTHM",
            "editable": false,
            "mutedNotes": [],
            "mutedChords": [],
            "sourceChordNote": 0,
            "sourceChordType": "Maj",
            "ctb2Main": {
              "ntr": "ROOT_FIXED",
              "ntt": "BYPASS",
              "bassOn": false,
              "noteLowLimit": 20,
              "noteHighLimit": 127,
              "chordRootUpperLimit": 127,
              "rtr": "RETRIGGER"
            }
          },
          "notes": [
            {
              "pitch": 36,
              "velocity": 112,
              "position": 0.0,
              "duration": 0.058333
            },
            {
              "pitch": 57,
              "velocity": 120,
              "position": 0.0,
              "duration": 0.066667
            },
            {
              "pitch": 40,
              "velocity": 127,
              "position": 1.0,
              "duration": 0.533333
            },
            {
              "pitch": 42,
              "velocity": 62,
              "position": 1.0,
              "duration": 0.516667
            },
            {
              "pitch": 36,
              "velocity": 102,
              "position": 1.5,
              "duration": 0.45
            },
            {
              "pitch": 36,
              "velocity": 112,
              "position": 2.0,
              "duration": 0.583333
            },
            {
              "pitch": 42,
              "velocity": 90,
              "position": 2.0,
              "duration": 0.541667
            },
            {
              "pitch": 40,
              "velocity": 127,
              "position": 3.0,
              "duration": 0.425
            },
            {
              "pitch": 42,
              "velocity": 105,
              "position": 3.0,
              "duration": 0.608333
            },
            {
              "pitch": 36,
              "velocity": 112,
              "position": 4.0,
              "duration": 0.516667
            },
            {
              "pitch": 42,
              "velocity": 103,
              "position": 4.0,
              "duration": 0.491667
            },
            {
              "pitch": 42,
              "velocity": 85,
              "position": 4.5,
              "duration": 0.433333
            },
            {
              "pitch": 40,
              "velocity": 127,
              "position": 5.0,
              "duration": 0.608333
            },
            {
              "pitch": 42,
              "velocity": 127,
              "position": 5.0,
              "duration": 0.566667
            },
            {
              "pitch": 36,
              "velocity": 112,
              "position": 5.5,
              "duration": 0.533333
            },
            {
              "pitch": 42,
              "velocity": 107,
              "position": 6.0,
              "duration": 0.608333
            },
            {
              "pitch": 40,
              "velocity": 127,
              "position": 7.0,
              "duration": 0.5
            },
            {
              "pitch": 42,
              "velocity": 127,
              "position": 7.0,
              "duration": 0.033333
            },
            {
              "pitch": 42,
              "velocity": 69,
              "position": 7.5,
              "duration": 0.5
            },
            {
              "pitch": 36,
              "velocity": 112,
              "position": 8.0,
              "duration": 0.441667
            },
            {
              "pitch": 42,
              "velocity": 127,
              "position": 8.0,
              "duration": 0.591667
            },
            {
              "pitch": 40,
              "velocity": 127,
              "position": 9.0,
              "duration": 0.483333
            },
            {
              "pitch": 42,
              "velocity": 127,
              "position": 9.0,
              "duration": 0.033333
            },
            {
              "pitch": 36,
              "velocity": 112,
              "position": 9.5,
              "duration": 0.441667
            },
            {
              "pitch": 42,
              "velocity": 82,
              "position": 9.5,
              "duration": 0.6
            },
            {
              "pitch": 36,
              "velocity": 112,
              "position": 10.0,
              "duration": 0.558333
            },
            {
              "pitch": 42,
              "velocity": 80,
              "position": 10.5,
              "duration": 0.016667
            },
            {
              "pitch": 40,
              "velocity": 127,
              "position": 11.0,
              "duration": 0.433333
            },
            {
              "pitch": 42,
              "velocity": 127,
              "position": 11.0,
              "duration": 0.6
            },
            {
              "pitch": 36,
              "velocity": 112,
              "position": 12.0,
              "duration": 0.425
            },
            {
              "pitch": 42,
              "velocity": 85,
              "position": 12.0,
              "duration": 0.616667
            },
            {
              "pitch": 40,
              "velocity": 127,
              "position": 13.0,
              "duration": 0.508333
            },
            {
              "pitch": 42,
              "velocity": 127,
              "position": 13.0,
              "duration": 0.05
            },
            {
              "pitch": 36,
              "velocity": 65,
              "position": 13.5,
              "duration": 0.45
            },
            {
              "pitch": 42,
              "velocity": 66,
              "position": 13.5,
              "duration": 0.616667
            },
            {
              "pitch": 36,
              "velocity": 112,
              "position": 14.0,
              "duration": 0.4
            },
            {
              "pitch": 40,
              "velocity": 127,
              "position": 14.5,
              "duration": 0.491667
            },
            {
              "pitch": 36,
              "velocity": 112,
              "position": 15.0,
              "duration": 0.458333
            },
            {
              "pitch": 40,
              "velocity": 127,
              "position": 15.5,
              "duration": 0.5
            }
          ]
        },
        "10": {
          "ctab": {
            "srcChannel": 10,
            "name": "Bass",
            "accType": "BASS",
            "editable": true,
            "mutedNotes": [],
            "mutedChords": [],
            "sourceChordNote": 0,
            "sourceChordType": "Maj7",
            "ctb2Main": {
              "ntr": "ROOT_TRANSPOSITION",
              "ntt": "BYPASS",
              "bassOn": true,
              "noteLowLimit": 20,
              "noteHighLimit": 60,
              "chordRootUpperLimit": 127,
              "rtr": "NOTE_GENERATOR"
            }
          },
          "notes": [
            {
              "pitch": 36,
              "velocity": 75,
              "position": 0.0,
              "duration": 1.241667
            },
            {
              "pitch": 36,
              "velocity": 72,
              "position": 2.016667,
              "duration": 1.408333
            },
            {
              "pitch": 36,
              "velocity": 72,
              "position": 4.016667,
              "duration": 1.408333
            },
            {
              "pitch": 36,
              "velocity": 70,
              "position": 6.0,
              "duration": 1.091667
            },
            {
              "pitch": 36,
              "velocity": 71,
              "position": 7.525,
              "duration": 0.241667
            },
            {
              "pitch": 36,
              "velocity": 78,
              "position": 8.016667,
              "duration": 1.55
            },
            {
              "pitch": 43,
              "velocity": 70,
              "position": 10.041667,
              "duration": 1.341667
            },
            {
              "pitch": 36,
              "velocity": 70,
              "position": 12.0,
              "duration": 1.091667
            },
            {
              "pitch": 36,
              "velocity": 71,
              "position": 13.525,
              "duration": 0.241667
            },
            {
              "pitch": 43,
              "velocity": 67,
              "position": 14.05,
              "duration": 1.275
            }
          ]
        },
        "11": {
          "ctab": {
            "srcChannel": 11,
            "name": "Piano",
            "accType": "CHORD1",
            "editable": true,
            "mutedNotes": [],
            "mutedChords": [],
            "sourceChordNote": 0,
            "sourceChordType": "Maj7",
            "ctb2Main": {
              "ntr": "ROOT_FIXED",
              "ntt": "CHORD",
              "bassOn": false,
              "noteLowLimit": 48,
              "noteHighLimit": 84,
              "chordRootUpperLimit": 127,
              "rtr": "NOTE_GENERATOR"
            }
          },
          "notes": [
            {
              "pitch": 48,
              "velocity": 76,
              "position": 0.016667,
              "duration": 1.291667
            },
            {
              "pitch": 36,
              "velocity": 64,
              "position": 0.041667,
              "duration": 1.916667
            },
            {
              "pitch": 59,
              "velocity": 48,
              "position": 0.483333,
              "duration": 0.575
            },
            {
              "pitch": 60,
              "velocity": 58,
              "position": 1.025,
              "duration": 0.933333
            },
            {
              "pitch": 67,
              "velocity": 82,
              "position": 1.041667,
              "duration": 0.916667
            },
            {
              "pitch": 64,
              "velocity": 50,
              "position": 1.05,
              "duration": 0.908333
            },
            {
              "pitch": 48,
              "velocity": 74,
              "position": 2.016667,
              "duration": 1.433333
            },
            {
              "pitch": 36,
              "velocity": 70,
              "position": 2.041667,
              "duration": 1.916667
            },
            {
              "pitch": 59,
              "velocity": 89,
              "position": 2.991667,
              "duration": 0.966667
            },
            {
              "pitch": 64,
              "velocity": 80,
              "position": 3.008333,
              "duration": 0.95
            },
            {
              "pitch": 67,
              "velocity": 87,
              "position": 3.025,
              "duration": 0.933333
            },
            {
              "pitch": 48,
              "velocity": 86,
              "position": 4.0,
              "duration": 1.441667
            },
            {
              "pitch": 36,
              "velocity": 76,
              "position": 4.008333,
              "duration": 1.95
            },
            {
              "pitch": 59,
              "velocity": 66,
              "position": 4.5,
              "duration": 0.525
            },
            {
              "pitch": 71,
              "velocity": 66,
              "position": 5.0,
              "duration": 0.958333
            },
            {
              "pitch": 64,
              "velocity": 52,
              "position": 5.025,
              "duration": 0.866667
            },
            {
              "pitch": 67,
              "velocity": 68,
              "position": 5.025,
              "duration": 0.875
            },
            {
              "pitch": 59,
              "velocity": 88,
              "position": 5.516667,
              "duration": 0.441667
            },
            {
              "pitch": 36,
              "velocity": 84,
              "position": 6.008333,
              "duration": 1.95
            },
            {
              "pitch": 48,
              "velocity": 84,
              "position": 6.008333,
              "duration": 1.95
            },
            {
              "pitch": 59,
              "velocity": 78,
              "position": 6.008333,
              "duration": 0.708333
            },
            {
              "pitch": 59,
              "velocity": 91,
              "position": 6.975,
              "duration": 0.983333
            },
            {
              "pitch": 71,
              "velocity": 76,
              "position": 6.983333,
              "duration": 0.975
            },
            {
              "pitch": 64,
              "velocity": 58,
              "position": 6.991667,
              "duration": 0.966667
            },
            {
              "pitch": 67,
              "velocity": 78,
              "position": 7.0,
              "duration": 0.958333
            },
            {
              "pitch": 48,
              "velocity": 84,
              "position": 8.0,
              "duration": 2.116667
            },
            {
              "pitch": 36,
              "velocity": 84,
              "position": 8.008333,
              "duration": 3.408333
            },
            {
              "pitch": 59,
              "velocity": 54,
              "position": 8.008333,
              "duration": 0.791667
            },
            {
              "pitch": 64,
              "velocity": 45,
              "position": 8.016667,
              "duration": 0.891667
            },
            {
              "pitch": 59,
              "velocity": 91,
              "position": 8.991667,
              "duration": 1.65
            },
            {
              "pitch": 64,
              "velocity": 3,
              "position": 9.0,
              "duration": 1.658333
            },
            {
              "pitch": 60,
              "velocity": 74,
              "position": 9.016667,
              "duration": 1.625
            },
            {
              "pitch": 67,
              "velocity": 86,
              "position": 9.016667,
              "duration": 1.566667
            },
            {
              "pitch": 48,
              "velocity": 87,
              "position": 10.516667,
              "duration": 1.016667
            },
            {
              "pitch": 60,
              "velocity": 60,
              "position": 11.016667,
              "duration": 1.041667
            },
            {
              "pitch": 67,
              "velocity": 82,
              "position": 11.016667,
              "duration": 0.908333
            },
            {
              "pitch": 64,
              "velocity": 52,
              "position": 11.025,
              "duration": 0.933333
            },
            {
              "pitch": 59,
              "velocity": 82,
              "position": 11.483333,
              "duration": 0.641667
            },
            {
              "pitch": 48,
              "velocity": 80,
              "position": 12.0,
              "duration": 1.975
            },
            {
              "pitch": 36,
              "velocity": 74,
              "position": 12.008333,
              "duration": 3.241667
            },
            {
              "pitch": 64,
              "velocity": 82,
              "position": 12.991667,
              "duration": 1.616667
            },
            {
              "pitch": 55,
              "velocity": 84,
              "position": 13.0,
              "duration": 1.65
            },
            {
              "pitch": 59,
              "velocity": 86,
              "position": 13.0,
              "duration": 1.591667
            },
            {
              "pitch": 60,
              "velocity": 80,
              "position": 13.008333,
              "duration": 1.6
            },
            {
              "pitch": 48,
              "velocity": 80,
              "position": 14.516667,
              "duration": 1.441667
            },
            {
              "pitch": 59,
              "velocity": 80,
              "position": 15.0,
              "duration": 0.958333
            },
            {
              "pitch": 60,
              "velocity": 66,
              "position": 15.0,
              "duration": 0.958333
            },
            {
              "pitch": 64,
              "velocity": 62,
              "position": 15.008333,
              "duration": 0.95
            },
            {
              "pitch": 55,
              "velocity": 72,
              "position": 15.483333,
              "duration": 0.475
            }
          ]
        },
        "12": {
          "ctab": {
            "srcChannel": 12,
            "name": "Guitar",
            "accType": "CHORD2",
            "editable": true,
            "mutedNotes": [],
            "mutedChords": [],
            "sourceChordNote": 0,
            "sourceChordType": "Maj7",
            "ctb2Main": {
              "ntr": "ROOT_FIXED",
              "ntt": "CHORD",
              "bassOn": false,
              "noteLowLimit": 40,
              "noteHighLimit": 76,
              "chordRootUpperLimit": 127,
              "rtr": "NOTE_GENERATOR"
            }
          },
          "notes": [
            {
              "pitch": 48,
              "velocity": 87,
              "position": 0.0,
              "duration": 1.958333
            },
            {
              "pitch": 55,
              "velocity": 52,
              "position": 0.058333,
              "duration": 1.9
            },
            {
              "pitch": 59,
              "velocity": 84,
              "position": 1.058333,
              "duration": 0.9
            },
            {
              "pitch": 67,
              "velocity": 67,
              "position": 1.066667,
              "duration": 0.016667
            },
            {
              "pitch": 64,
              "velocity": 83,
              "position": 1.075,
              "duration": 0.883333
            },
            {
              "pitch": 74,
              "velocity": 70,
              "position": 1.091667,
              "duration": 0.866667
            },
            {
              "pitch": 67,
              "velocity": 86,
              "position": 1.1,
              "duration": 0.858333
            },
            {
              "pitch": 48,
              "velocity": 92,
              "position": 2.0,
              "duration": 1.958333
            },
            {
              "pitch": 59,
              "velocity": 70,
              "position": 3.008333,
              "duration": 0.95
            },
            {
              "pitch": 67,
              "velocity": 49,
              "position": 3.025,
              "duration": 0.008333
            },
            {
              "pitch": 64,
              "velocity": 71,
              "position": 3.033333,
              "duration": 0.925
            },
            {
              "pitch": 67,
              "velocity": 91,
              "position": 3.05,
              "duration": 0.908333
            },
            {
              "pitch": 74,
              "velocity": 67,
              "position": 3.075,
              "duration": 0.883333
            },
            {
              "pitch": 48,
              "velocity": 92,
              "position": 4.0,
              "duration": 1.958333
            },
            {
              "pitch": 59,
              "velocity": 70,
              "position": 5.008333,
              "duration": 0.95
            },
            {
              "pitch": 67,
              "velocity": 49,
              "position": 5.025,
              "duration": 0.008333
            },
            {
              "pitch": 64,
              "velocity": 71,
              "position": 5.033333,
              "duration": 0.925
            },
            {
              "pitch": 67,
              "velocity": 91,
              "position": 5.05,
              "duration": 0.908333
            },
            {
              "pitch": 74,
              "velocity": 67,
              "position": 5.075,
              "duration": 0.883333
            },
            {
              "pitch": 48,
              "velocity": 92,
              "position": 6.0,
              "duration": 1.958333
            },
            {
              "pitch": 59,
              "velocity": 70,
              "position": 7.008333,
              "duration": 0.95
            },
            {
              "pitch": 67,
              "velocity": 49,
              "position": 7.025,
              "duration": 0.008333
            },
            {
              "pitch": 64,
              "velocity": 71,
              "position": 7.033333,
              "duration": 0.925
            },
            {
              "pitch": 67,
              "velocity": 91,
              "position": 7.05,
              "duration": 0.908333
            },
            {
              "pitch": 74,
              "velocity": 67,
              "position": 7.075,
              "duration": 0.883333
            },
            {
              "pitch": 48,
              "velocity": 92,
              "position": 8.0,
              "duration": 4.008333
            },
            {
              "pitch": 59,
              "velocity": 70,
              "position": 9.008333,
              "duration": 1.891667
            },
            {
              "pitch": 67,
              "velocity": 49,
              "position": 9.025,
              "duration": 0.008333
            },
            {
              "pitch": 64,
              "velocity": 71,
              "position": 9.033333,
              "duration": 1.875
            },
            {
              "pitch": 67,
              "velocity": 91,
              "position": 9.05,
              "duration": 1.875
            },
            {
              "pitch": 74,
              "velocity": 67,
              "position": 9.075,
              "duration": 1.916667
            },
            {
              "pitch": 59,
              "velocity": 82,
              "position": 10.925,
              "duration": 2.05
            },
            {
              "pitch": 67,
              "velocity": 76,
              "position": 10.941667,
              "duration": 0.025
            },
            {
              "pitch": 64,
              "velocity": 74,
              "position": 10.95,
              "duration": 2.05
            },
            {
              "pitch": 67,
              "velocity": 79,
              "position": 10.983333,
              "duration": 0.483333
            },
            {
              "pitch": 74,
              "velocity": 46,
              "position": 11.008333,
              "duration": 4.316667
            },
            {
              "pitch": 67,
              "velocity": 73,
              "position": 11.525,
              "duration": 1.483333
            },
            {
              "pitch": 48,
              "velocity": 80,
              "position": 12.033333,
              "duration": 3.925
            },
            {
              "pitch": 55,
              "velocity": 74,
              "position": 12.991667,
              "duration": 1.958333
            },
            {
              "pitch": 59,
              "velocity": 97,
              "position": 13.016667,
              "duration": 1.975
            },
            {
              "pitch": 67,
              "velocity": 64,
              "position": 13.025,
              "duration": 0.025
            },
            {
              "pitch": 64,
              "velocity": 70,
              "position": 13.041667,
              "duration": 1.925
            },
            {
              "pitch": 67,
              "velocity": 78,
              "position": 13.066667,
              "duration": 1.933333
            },
            {
              "pitch": 55,
              "velocity": 73,
              "position": 14.975,
              "duration": 0.983333
            },
            {
              "pitch": 65,
              "velocity": 57,
              "position": 14.983333,
              "duration": 0.033333
            },
            {
              "pitch": 59,
              "velocity": 86,
              "position": 15.008333,
              "duration": 0.95
            },
            {
              "pitch": 68,
              "velocity": 67,
              "position": 15.016667,
              "duration": 0.033333
            },
            {
              "pitch": 64,
              "velocity": 70,
              "position": 15.033333,
              "duration": 0.925
            },
            {
              "pitch": 67,
              "velocity": 67,
              "position": 15.05,
              "duration": 0.908333
            },
            {
              "pitch": 74,
              "velocity": 60,
              "position": 15.433333,
              "duration": 0.525
            }
          ]
        },
        "13": {
          "ctab": {
            "srcChannel": 13,
            "name": "Strings",
            "accType": "PAD",
            "editable": true,
            "mutedNotes": [],
            "mutedChords": [],
            "sourceChordNote": 0,
            "sourceChordType": "Maj7",
            "ctb2Main": {
              "ntr": "ROOT_FIXED",
              "ntt": "MELODY",
              "bassOn": false,
              "noteLowLimit": 36,
              "noteHighLimit": 96,
              "chordRootUpperLimit": 127,
              "rtr": "PITCH_SHIFT"
            }
          },
          "notes": [
            {
              "pitch": 48,
              "velocity": 100,
              "position": 0.0,
              "duration": 1.958333
            },
            {
              "pitch": 48,
              "velocity": 41,
              "position": 2.0,
              "duration": 1.666667
            },
            {
              "pitch": 55,
              "velocity": 41,
              "position": 2.0,
              "duration": 1.25
            },
            {
              "pitch": 59,
              "velocity": 59,
              "position": 2.033333,
              "duration": 1.158333
            },
            {
              "pitch": 64,
              "velocity": 71,
              "position": 2.083333,
              "duration": 1.133333
            },
            {
              "pitch": 48,
              "velocity": 41,
              "position": 4.0,
              "duration": 1.666667
            },
            {
              "pitch": 55,
              "velocity": 41,
              "position": 4.0,
              "duration": 1.25
            },
            {
              "pitch": 59,
              "velocity": 59,
              "position": 4.033333,
              "duration": 1.158333
            },
            {
              "pitch": 64,
              "velocity": 71,
              "position": 4.083333,
              "duration": 1.133333
            },
            {
              "pitch": 48,
              "velocity": 41,
              "position": 6.0,
              "duration": 1.666667
            },
            {
              "pitch": 55,
              "velocity": 41,
              "position": 6.0,
              "duration": 1.25
            },
            {
              "pitch": 59,
              "velocity": 59,
              "position": 6.033333,
              "duration": 1.158333
            },
            {
              "pitch": 64,
              "velocity": 71,
              "position": 6.083333,
              "duration": 1.133333
            },
            {
              "pitch": 48,
              "velocity": 95,
              "position": 8.016667,
              "duration": 7.916667
            },
            {
              "pitch": 55,
              "velocity": 72,
              "position": 10.025,
              "duration": 5.541667
            },
            {
              "pitch": 59,
              "velocity": 63,
              "position": 10.516667,
              "duration": 1.025
            },
            {
              "pitch": 64,
              "velocity": 77,
              "position": 11.0,
              "duration": 4.541667
            },
            {
              "pitch": 59,
              "velocity": 56,
              "position": 11.566667,
              "duration": 3.975
            }
          ]
        }
      }
    },
    "Fill_In_AA": {
      "type": "Fill_In_AA",
      "sizeInBeats": 16,
      "channels": {
        "9": {
          "ctab": {
            "srcChannel": 9,
            "name": "Drums",
            "accType": "RHYTHM",
            "editable": false,
            "mutedNotes": [],
            "mutedChords": [],
            "sourceChordNote": 0,
            "sourceChordType": "Maj",
            "ctb2Main": {
              "ntr": "ROOT_FIXED",
              "ntt": "BYPASS",
              "bassOn": false,
              "noteLowLimit": 20,
              "noteHighLimit": 127,
              "chordRootUpperLimit": 127,
              "rtr": "RETRIGGER"
            }
          },
          "notes": [
            {
              "pitch": 36,
              "velocity": 112,
              "position": 0.0,
              "duration": 0.058333
            },
            {
              "pitch": 57,
              "velocity": 120,
              "position": 0.0,
              "duration": 0.066667
            },
            {
              "pitch": 40,
              "velocity": 127,
              "position": 1.0,
              "duration": 0.533333
            },
            {
              "pitch": 42,
              "velocity": 62,
              "position": 1.0,
              "duration": 0.516667
            },
            {
              "pitch": 36,
              "velocity": 102,
              "position": 1.5,
              "duration": 0.45
            },
            {
              "pitch": 36,
              "velocity": 112,
              "position": 2.0,
              "duration": 0.583333
            },
            {
              "pitch": 42,
              "velocity": 90,
              "position": 2.0,
              "duration": 0.541667
            },
            {
              "pitch": 40,
              "velocity": 127,
              "position": 3.0,
              "duration": 0.425
            },
            {
              "pitch": 42,
              "velocity": 105,
              "position": 3.0,
              "duration": 0.608333
            },
            {
              "pitch": 36,
              "velocity": 112,
              "position": 4.0,
              "duration": 0.591667
            },
            {
              "pitch": 42,
              "velocity": 127,
              "position": 4.0,
              "duration": 0.541667
            },
            {
              "pitch": 40,
              "velocity": 127,
              "position": 5.0,
              "duration": 0.441667
            },
            {
              "pitch": 42,
              "velocity": 127,
              "position": 5.0,
              "duration": 0.616667
            },
            {
              "pitch": 36,
              "velocity": 112,
              "position": 5.5,
              "duration": 0.616667
            },
            {
              "pitch": 42,
              "velocity": 127,
              "position": 6.0,
              "duration": 0.075
            },
            {
              "pitch": 42,
              "velocity": 80,
              "position": 6.5,
              "duration": 0.616667
            },
            {
              "pitch": 40,
              "velocity": 127,
              "position": 7.0,
              "duration": 0.575
            },
            {
              "pitch": 42,
              "velocity": 69,
              "position": 7.5,
              "duration": 0.041667
            },
            {
              "pitch": 36,
              "velocity": 112,
              "position": 8.0,
              "duration": 0.441667
            },
            {
              "pitch": 42,
              "velocity": 127,
              "position": 8.0,
              "duration": 0.591667
            },
            {
              "pitch": 40,
              "velocity": 127,
              "position": 9.0,
              "duration": 0.483333
            },
            {
              "pitch": 42,
              "velocity": 127,
              "position": 9.0,
              "duration": 0.033333
            },
            {
              "pitch": 36,
              "velocity": 112,
              "position": 9.5,
              "duration": 0.441667
            },
            {
              "pitch": 42,
              "velocity": 82,
              "position": 9.5,
              "duration": 0.6
            },
            {
              "pitch": 36,
              "velocity": 112,
              "position": 10.0,
              "duration": 0.558333
            },
            {
              "pitch": 42,
              "velocity": 80,
              "position": 10.5,
              "duration": 0.016667
            },
            {
              "pitch": 40,
              "velocity": 127,
              "position": 11.0,
              "duration": 0.433333
            },
            {
              "pitch": 42,
              "velocity": 127,
              "position": 11.0,
              "duration": 0.6
            },
            {
              "pitch": 36,
              "velocity": 112,
              "position": 12.0,
              "duration": 0.425
            },
            {
              "pitch": 42,
              "velocity": 85,
              "position": 12.0,
              "duration": 0.616667
            },
            {
              "pitch": 40,
              "velocity": 127,
              "position": 13.0,
              "duration": 0.508333
            },
            {
              "pitch": 42,
              "velocity": 127,
              "position": 13.0,
              "duration": 0.05
            },
            {
              "pitch": 36,
              "velocity": 65,
              "position": 13.5,
              "duration": 0.45
            },
            {
              "pitch": 42,
              "velocity": 66,
              "position": 13.5,
              "duration": 0.616667
            },
            {
              "pitch": 36,
              "velocity": 112,
              "position": 14.0,
              "duration": 0.4
            },
            {
              "pitch": 40,
              "velocity": 127,
              "position": 14.5,
              "duration": 0.491667
            },
            {
              "pitch": 36,
              "velocity": 112,
              "position": 15.0,
              "duration": 0.458333
            },
            {
              "pitch": 40,
              "velocity": 127,
              "position": 15.5,
              "duration": 0.5
            }
          ]
        },
        "10": {
          "ctab": {
            "srcChannel": 10,
            "name": "Bass",
            "accType": "BASS",
            "editable": true,
            "mutedNotes": [],
            "mutedChords": [],
            "sourceChordNote": 0,
            "sourceChordType": "Maj7",
            "ctb2Main": {
              "ntr": "ROOT_TRANSPOSITION",
              "ntt": "BYPASS",
              "bassOn": true,
              "noteLowLimit": 20,
              "noteHighLimit": 60,
              "chordRootUpperLimit": 127,
              "rtr": "NOTE_GENERATOR"
            }
          },
          "notes": [
            {
              "pitch": 36,
              "velocity": 70,
              "position": 0.0,
              "duration": 1.091667
            },
            {
              "pitch": 36,
              "velocity": 71,
              "position": 1.525,
              "duration": 0.241667
            },
            {
              "pitch": 36,
              "velocity": 72,
              "position": 2.016667,
              "duration": 1.408333
            },
            {
              "pitch": 36,
              "velocity": 71,
              "position": 4.033333,
              "duration": 1.333333
            },
            {
              "pitch": 36,
              "velocity": 71,
              "position": 6.033333,
              "duration": 1.333333
            },
            {
              "pitch": 36,
              "velocity": 78,
              "position": 8.016667,
              "duration": 1.55
            },
            {
              "pitch": 43,
              "velocity": 70,
              "position": 10.041667,
              "duration": 1.341667
            },
            {
              "pitch": 36,
              "velocity": 70,
              "position": 12.0,
              "duration": 1.091667
            },
            {
              "pitch": 36,
              "velocity": 71,
              "position": 13.525,
              "duration": 0.241667
            },
            {
              "pitch": 43,
              "velocity": 67,
              "position": 14.05,
              "duration": 1.275
            }
          ]
        },
        "11": {
          "ctab": {
            "srcChannel": 11,
            "name": "Piano",
            "accType": "CHORD1",
            "editable": true,
            "mutedNotes": [],
            "mutedChords": [],
            "sourceChordNote": 0,
            "sourceChordType": "Maj7",
            "ctb2Main": {
              "ntr": "ROOT_FIXED",
              "ntt": "CHORD",
              "bassOn": false,
              "noteLowLimit": 48,
              "noteHighLimit": 84,
              "chordRootUpperLimit": 127,
              "rtr": "NOTE_GENERATOR"
            }
          },
          "notes": [
            {
              "pitch": 48,
              "velocity": 74,
              "position": 0.016667,
              "duration": 1.433333
            },
            {
              "pitch": 36,
              "velocity": 70,
              "position": 0.041667,
              "duration": 1.916667
            },
            {
              "pitch": 59,
              "velocity": 89,
              "position": 0.991667,
              "duration": 0.966667
            },
            {
              "pitch": 64,
              "velocity": 80,
              "position": 1.008333,
              "duration": 0.95
            },
            {
              "pitch": 67,
              "velocity": 87,
              "position": 1.025,
              "duration": 0.933333
            },
            {
              "pitch": 48,
              "velocity": 86,
              "position": 2.0,
              "duration": 1.441667
            },
            {
              "pitch": 36,
              "velocity": 76,
              "position": 2.008333,
              "duration": 1.95
            },
            {
              "pitch": 59,
              "velocity": 66,
              "position": 2.5,
              "duration": 0.525
            },
            {
              "pitch": 71,
              "velocity": 66,
              "position": 3.0,
              "duration": 0.958333
            },
            {
              "pitch": 64,
              "velocity": 52,
              "position": 3.025,
              "duration": 0.866667
            },
            {
              "pitch": 67,
              "velocity": 68,
              "position": 3.025,
              "duration": 0.875
            },
            {
              "pitch": 59,
              "velocity": 88,
              "position": 3.516667,
              "duration": 0.441667
            },
            {
              "pitch": 48,
              "velocity": 84,
              "position": 4.033333,
              "duration": 1.341667
            },
            {
              "pitch": 36,
              "velocity": 76,
              "position": 4.05,
              "duration": 1.908333
            },
            {
              "pitch": 55,
              "velocity": 52,
              "position": 4.475,
              "duration": 0.6
            },
            {
              "pitch": 59,
              "velocity": 78,
              "position": 5.033333,
              "duration": 0.925
            },
            {
              "pitch": 64,
              "velocity": 64,
              "position": 5.041667,
              "duration": 0.916667
            },
            {
              "pitch": 60,
              "velocity": 62,
              "position": 5.058333,
              "duration": 0.9
            },
            {
              "pitch": 55,
              "velocity": 62,
              "position": 5.508333,
              "duration": 0.45
            },
            {
              "pitch": 48,
              "velocity": 74,
              "position": 6.008333,
              "duration": 1.208333
            },
            {
              "pitch": 36,
              "velocity": 66,
              "position": 6.05,
              "duration": 1.908333
            },
            {
              "pitch": 55,
              "velocity": 58,
              "position": 6.466667,
              "duration": 1.491667
            },
            {
              "pitch": 59,
              "velocity": 86,
              "position": 6.966667,
              "duration": 0.991667
            },
            {
              "pitch": 64,
              "velocity": 78,
              "position": 6.975,
              "duration": 0.983333
            },
            {
              "pitch": 60,
              "velocity": 64,
              "position": 7.0,
              "duration": 0.958333
            },
            {
              "pitch": 48,
              "velocity": 84,
              "position": 8.033333,
              "duration": 1.341667
            },
            {
              "pitch": 36,
              "velocity": 76,
              "position": 8.05,
              "duration": 3.341667
            },
            {
              "pitch": 55,
              "velocity": 52,
              "position": 8.475,
              "duration": 0.6
            },
            {
              "pitch": 59,
              "velocity": 78,
              "position": 9.033333,
              "duration": 1.533333
            },
            {
              "pitch": 64,
              "velocity": 64,
              "position": 9.041667,
              "duration": 1.55
            },
            {
              "pitch": 60,
              "velocity": 62,
              "position": 9.058333,
              "duration": 1.425
            },
            {
              "pitch": 55,
              "velocity": 62,
              "position": 9.508333,
              "duration": 0.816667
            },
            {
              "pitch": 48,
              "velocity": 66,
              "position": 9.975,
              "duration": 1.408333
            },
            {
              "pitch": 64,
              "velocity": 70,
              "position": 11.016667,
              "duration": 1.35
            },
            {
              "pitch": 60,
              "velocity": 60,
              "position": 11.033333,
              "duration": 1.266667
            },
            {
              "pitch": 59,
              "velocity": 58,
              "position": 11.05,
              "duration": 1.258333
            },
            {
              "pitch": 55,
              "velocity": 74,
              "position": 11.491667,
              "duration": 1.191667
            },
            {
              "pitch": 36,
              "velocity": 74,
              "position": 12.008333,
              "duration": 3.258333
            },
            {
              "pitch": 48,
              "velocity": 78,
              "position": 12.025,
              "duration": 1.133333
            },
            {
              "pitch": 59,
              "velocity": 88,
              "position": 12.991667,
              "duration": 1.366667
            },
            {
              "pitch": 60,
              "velocity": 78,
              "position": 13.016667,
              "duration": 1.408333
            },
            {
              "pitch": 64,
              "velocity": 76,
              "position": 13.016667,
              "duration": 1.475
            },
            {
              "pitch": 48,
              "velocity": 60,
              "position": 14.033333,
              "duration": 1.925
            },
            {
              "pitch": 55,
              "velocity": 72,
              "position": 14.5,
              "duration": 0.466667
            },
            {
              "pitch": 64,
              "velocity": 72,
              "position": 15.041667,
              "duration": 0.916667
            },
            {
              "pitch": 59,
              "velocity": 78,
              "position": 15.05,
              "duration": 0.908333
            },
            {
              "pitch": 60,
              "velocity": 58,
              "position": 15.066667,
              "duration": 0.891667
            }
          ]
        },
        "12": {
          "ctab": {
            "srcChannel": 12,
            "name": "Guitar",
            "accType": "CHORD2",
            "editable": true,
            "mutedNotes": [],
            "mutedChords": [],
            "sourceChordNote": 0,
            "sourceChordType": "Maj7",
            "ctb2Main": {
              "ntr": "ROOT_FIXED",
              "ntt": "CHORD",
              "bassOn": false,
              "noteLowLimit": 40,
              "noteHighLimit": 76,
              "chordRootUpperLimit": 127,
              "rtr": "NOTE_GENERATOR"
            }
          },
          "notes": [
            {
              "pitch": 48,
              "velocity": 92,
              "position": 0.0,
              "duration": 1.958333
            },
            {
              "pitch": 59,
              "velocity": 70,
              "position": 1.008333,
              "duration": 0.95
            },
            {
              "pitch": 67,
              "velocity": 49,
              "position": 1.025,
              "duration": 0.008333
            },
            {
              "pitch": 64,
              "velocity": 71,
              "position": 1.033333,
              "duration": 0.925
            },
            {
              "pitch": 67,
              "velocity": 91,
              "position": 1.05,
              "duration": 0.908333
            },
            {
              "pitch": 74,
              "velocity": 67,
              "position": 1.075,
              "duration": 0.883333
            },
            {
              "pitch": 48,
              "velocity": 87,
              "position": 2.0,
              "duration": 1.958333
            },
            {
              "pitch": 55,
              "velocity": 52,
              "position": 2.058333,
              "duration": 1.9
            },
            {
              "pitch": 59,
              "velocity": 84,
              "position": 3.058333,
              "duration": 0.9
            },
            {
              "pitch": 67,
              "velocity": 67,
              "position": 3.066667,
              "duration": 0.016667
            },
            {
              "pitch": 64,
              "velocity": 83,
              "position": 3.075,
              "duration": 0.883333
            },
            {
              "pitch": 74,
              "velocity": 70,
              "position": 3.091667,
              "duration": 0.866667
            },
            {
              "pitch": 67,
              "velocity": 86,
              "position": 3.1,
              "duration": 0.858333
            },
            {
              "pitch": 48,
              "velocity": 92,
              "position": 4.0,
              "duration": 1.958333
            },
            {
              "pitch": 59,
              "velocity": 70,
              "position": 5.008333,
              "duration": 0.95
            },
            {
              "pitch": 67,
              "velocity": 49,
              "position": 5.025,
              "duration": 0.008333
            },
            {
              "pitch": 64,
              "velocity": 71,
              "position": 5.033333,
              "duration": 0.925
            },
            {
              "pitch": 67,
              "velocity": 91,
              "position": 5.05,
              "duration": 0.908333
            },
            {
              "pitch": 74,
              "velocity": 67,
              "position": 5.075,
              "duration": 0.883333
            },
            {
              "pitch": 48,
              "velocity": 87,
              "position": 6.0,
              "duration": 1.958333
            },
            {
              "pitch": 55,
              "velocity": 52,
              "position": 6.058333,
              "duration": 1.9
            },
            {
              "pitch": 59,
              "velocity": 84,
              "position": 7.058333,
              "duration": 0.9
            },
            {
              "pitch": 67,
              "velocity": 67,
              "position": 7.066667,
              "duration": 0.016667
            },
            {
              "pitch": 64,
              "velocity": 83,
              "position": 7.075,
              "duration": 0.883333
            },
            {
              "pitch": 74,
              "velocity": 70,
              "position": 7.091667,
              "duration": 0.866667
            },
            {
              "pitch": 67,
              "velocity": 86,
              "position": 7.1,
              "duration": 0.858333
            },
            {
              "pitch": 48,
              "velocity": 92,
              "position": 8.0,
              "duration": 4.008333
            },
            {
              "pitch": 59,
              "velocity": 70,
              "position": 9.008333,
              "duration": 1.891667
            },
            {
              "pitch": 67,
              "velocity": 49,
              "position": 9.025,
              "duration": 0.008333
            },
            {
              "pitch": 64,
              "velocity": 71,
              "position": 9.033333,
              "duration": 1.875
            },
            {
              "pitch": 67,
              "velocity": 91,
              "position": 9.05,
              "duration": 1.875
            },
            {
              "pitch": 74,
              "velocity": 67,
              "position": 9.075,
              "duration": 1.916667
            },
            {
              "pitch": 59,
              "velocity": 82,
              "position": 10.925,
              "duration": 2.05
            },
            {
              "pitch": 67,
              "velocity": 76,
              "position": 10.941667,
              "duration": 0.025
            },
            {
              "pitch": 64,
              "velocity": 74,
              "position": 10.95,
              "duration": 2.05
            },
            {
              "pitch": 67,
              "velocity": 79,
              "position": 10.983333,
              "duration": 0.483333
            },
            {
              "pitch": 74,
              "velocity": 46,
              "position": 11.008333,
              "duration": 4.316667
            },
            {
              "pitch": 67,
              "velocity": 73,
              "position": 11.525,
              "duration": 1.483333
            },
            {
              "pitch": 48,
              "velocity": 80,
              "position": 12.033333,
              "duration": 3.925
            },
            {
              "pitch": 55,
              "velocity": 74,
              "position": 12.991667,
              "duration": 1.958333
            },
            {
              "pitch": 59,
              "velocity": 97,
              "position": 13.016667,
              "duration": 1.975
            },
            {
              "pitch": 67,
              "velocity": 64,
              "position": 13.025,
              "duration": 0.025
            },
            {
              "pitch": 64,
              "velocity": 70,
              "position": 13.041667,
              "duration": 1.925
            },
            {
              "pitch": 67,
              "velocity": 78,
              "position": 13.066667,
              "duration": 1.933333
            },
            {
              "pitch": 55,
              "velocity": 73,
              "position": 14.975,
              "duration": 0.983333
            },
            {
              "pitch": 65,
              "velocity": 57,
              "position": 14.983333,
              "duration": 0.033333
            },
            {
              "pitch": 59,
              "velocity": 86,
              "position": 15.008333,
              "duration": 0.95
            },
            {
              "pitch": 68,
              "velocity": 67,
              "position": 15.016667,
              "duration": 0.033333
            },
            {
              "pitch": 64,
              "velocity": 70,
              "position": 15.033333,
              "duration": 0.925
            },
            {
              "pitch": 67,
              "velocity": 67,
              "position": 15.05,
              "duration": 0.908333
            },
            {
              "pitch": 74,
              "velocity": 60,
              "position": 15.433333,
              "duration": 0.525
            }
          ]
        },
        "13": {
          "ctab": {
            "srcChannel": 13,
            "name": "Strings",
            "accType": "PAD",
            "editable": true,
            "mutedNotes": [],
            "mutedChords": [],
            "sourceChordNote": 0,
            "sourceChordType": "Maj7",
            "ctb2Main": {
              "ntr": "ROOT_FIXED",
              "ntt": "MELODY",
              "bassOn": false,
              "noteLowLimit": 36,
              "noteHighLimit": 96,
              "chordRootUpperLimit": 127,
              "rtr": "PITCH_SHIFT"
            }
          },
          "notes": [
            {
              "pitch": 48,
              "velocity": 100,
              "position": 0.0,
              "duration": 1.958333
            },
            {
              "pitch": 48,
              "velocity": 41,
              "position": 2.0,
              "duration": 1.666667
            },
            {
              "pitch": 55,
              "velocity": 41,
              "position": 2.0,
              "duration": 1.25
            },
            {
              "pitch": 59,
              "velocity": 59,
              "position": 2.033333,
              "duration": 1.158333
            },
            {
              "pitch": 64,
              "velocity": 71,
              "position": 2.083333,
              "duration": 1.133333
            },
            {
              "pitch": 55,
              "velocity": 72,
              "position": 4.025,
              "duration": 1.933333
            },
            {
              "pitch": 59,
              "velocity": 63,
              "position": 4.516667,
              "duration": 1.025
            },
            {
              "pitch": 64,
              "velocity": 77,
              "position": 5.0,
              "duration": 0.958333
            },
            {
              "pitch": 59,
              "velocity": 56,
              "position": 5.566667,
              "duration": 0.391667
            },
            {
              "pitch": 55,
              "velocity": 72,
              "position": 6.025,
              "duration": 1.933333
            },
            {
              "pitch": 59,
              "velocity": 63,
              "position": 6.516667,
              "duration": 1.025
            },
            {
              "pitch": 64,
              "velocity": 77,
              "position": 7.0,
              "duration": 0.958333
            },
            {
              "pitch": 59,
              "velocity": 56,
              "position": 7.566667,
              "duration": 0.391667
            },
            {
              "pitch": 48,
              "velocity": 95,
              "position": 8.016667,
              "duration": 7.916667
            },
            {
              "pitch": 55,
              "velocity": 72,
              "position": 10.025,
              "duration": 5.541667
            },
            {
              "pitch": 59,
              "velocity": 63,
              "position": 10.516667,
              "duration": 1.025
            },
            {
              "pitch": 64,
              "velocity": 77,
              "position": 11.0,
              "duration": 4.541667
            },
            {
              "pitch": 59,
              "velocity": 56,
              "position": 11.566667,
              "duration": 3.975
            }
          ]
        }
      }
    },
    "Ending_A": {
      "type": "Ending_A",
      "sizeInBeats": 16,
      "channels": {
        "9": {
          "ctab": {
            "srcChannel": 9,
            "name": "Drums",
            "accType": "RHYTHM",
            "editable": false,
            "mutedNotes": [],
            "mutedChords": [],
            "sourceChordNote": 0,
            "sourceChordType": "Maj",
            "ctb2Main": {
              "ntr": "ROOT_FIXED",
              "ntt": "BYPASS",
              "bassOn": false,
              "noteLowLimit": 20,
              "noteHighLimit": 127,
              "chordRootUpperLimit": 127,
              "rtr": "RETRIGGER"
            }
          },
          "notes": [
            {
              "pitch": 36,
              "velocity": 112,
              "position": 0.0,
              "duration": 0.491667
            },
            {
              "pitch": 57,
              "velocity": 89,
              "position": 0.0,
              "duration": 0.491667
            },
            {
              "pitch": 42,
              "velocity": 66,
              "position": 0.5,
              "duration": 0.6
            },
            {
              "pitch": 37,
              "velocity": 127,
              "position": 1.0,
              "duration": 0.508333
            },
            {
              "pitch": 42,
              "velocity": 65,
              "position": 1.5,
              "duration": 0.016667
            },
            {
              "pitch": 36,
              "velocity": 112,
              "position": 2.0,
              "duration": 0.6
            },
            {
              "pitch": 42,
              "velocity": 74,
              "position": 2.0,
              "duration": 0.575
            },
            {
              "pitch": 37,
              "velocity": 127,
              "position": 3.0,
              "duration": 0.458333
            },
            {
              "pitch": 42,
              "velocity": 95,
              "position": 3.0,
              "duration": 0.025
            },
            {
              "pitch": 42,
              "velocity": 48,
              "position": 3.5,
              "duration": 0.5
            },
            {
              "pitch": 36,
              "velocity": 112,
              "position": 4.0,
              "duration": 0.625
            },
            {
              "pitch": 42,
              "velocity": 80,
              "position": 4.0,
              "duration": 0.575
            },
            {
              "pitch": 37,
              "velocity": 127,
              "position": 5.0,
              "duration": 0.45
            },
            {
              "pitch": 42,
              "velocity": 105,
              "position": 5.0,
              "duration": 0.033333
            },
            {
              "pitch": 42,
              "velocity": 54,
              "position": 5.5,
              "duration": 0.591667
            },
            {
              "pitch": 36,
              "velocity": 112,
              "position": 6.0,
              "duration": 0.541667
            },
            {
              "pitch": 42,
              "velocity": 52,
              "position": 6.5,
              "duration": 0.441667
            },
            {
              "pitch": 37,
              "velocity": 127,
              "position": 7.0,
              "duration": 0.558333
            },
            {
              "pitch": 42,
              "velocity": 107,
              "position": 7.0,
              "duration": 0.55
            },
            {
              "pitch": 36,
              "velocity": 112,
              "position": 8.0,
              "duration": 0.441667
            },
            {
              "pitch": 42,
              "velocity": 90,
              "position": 8.0,
              "duration": 0.616667
            },
            {
              "pitch": 37,
              "velocity": 127,
              "position": 9.0,
              "duration": 0.475
            },
            {
              "pitch": 42,
              "velocity": 95,
              "position": 9.0,
              "duration": 0.05
            },
            {
              "pitch": 42,
              "velocity": 55,
              "position": 9.5,
              "duration": 0.433333
            },
            {
              "pitch": 36,
              "velocity": 112,
              "position": 10.0,
              "duration": 0.608333
            },
            {
              "pitch": 42,
              "velocity": 74,
              "position": 10.0,
              "duration": 0.583333
            },
            {
              "pitch": 37,
              "velocity": 127,
              "position": 11.0,
              "duration": 0.433333
            },
            {
              "pitch": 42,
              "velocity": 127,
              "position": 11.0,
              "duration": 0.016667
            },
            {
              "pitch": 36,
              "velocity": 98,
              "position": 11.5,
              "duration": 0.5
            },
            {
              "pitch": 42,
              "velocity": 65,
              "position": 11.5,
              "duration": 0.5
            },
            {
              "pitch": 42,
              "velocity": 70,
              "position": 12.008333,
              "duration": 0.433333
            },
            {
              "pitch": 36,
              "velocity": 110,
              "position": 12.016667,
              "duration": 0.425
            },
            {
              "pitch": 42,
              "velocity": 45,
              "position": 12.508333,
              "duration": 0.566667
            },
            {
              "pitch": 37,
              "velocity": 127,
              "position": 13.041667,
              "duration": 0.466667
            },
            {
              "pitch": 42,
              "velocity": 43,
              "position": 13.516667,
              "duration": 0.625
            },
            {
              "pitch": 36,
              "velocity": 106,
              "position": 14.008333,
              "duration": 0.566667
            },
            {
              "pitch": 47,
              "velocity": 115,
              "position": 14.516667,
              "duration": 0.483333
            },
            {
              "pitch": 37,
              "velocity": 127,
              "position": 15.025,
              "duration": 0.608333
            },
            {
              "pitch": 45,
              "velocity": 127,
              "position": 15.033333,
              "duration": 0.608333
            },
            {
              "pitch": 36,
              "velocity": 112,
              "position": 15.5,
              "duration": 0.4
            }
          ]
        },
        "10": {
          "ctab": {
            "srcChannel": 10,
            "name": "Bass",
            "accType": "BASS",
            "editable": true,
            "mutedNotes": [],
            "mutedChords": [],
            "sourceChordNote": 0,
            "sourceChordType": "Maj7",
            "ctb2Main": {
              "ntr": "ROOT_TRANSPOSITION",
              "ntt": "BYPASS",
              "bassOn": true,
              "noteLowLimit": 20,
              "noteHighLimit": 60,
              "chordRootUpperLimit": 127,
              "rtr": "NOTE_GENERATOR"
            }
          },
          "notes": [
            {
              "pitch": 36,
              "velocity": 62,
              "position": 0.083333,
              "duration": 1.241667
            },
            {
              "pitch": 36,
              "velocity": 62,
              "position": 2.083333,
              "duration": 1.241667
            },
            {
              "pitch": 36,
              "velocity": 65,
              "position": 4.025,
              "duration": 1.383333
            },
            {
              "pitch": 36,
              "velocity": 65,
              "position": 6.025,
              "duration": 1.383333
            },
            {
              "pitch": 36,
              "velocity": 62,
              "position": 8.083333,
              "duration": 1.241667
            },
            {
              "pitch": 31,
              "velocity": 49,
              "position": 10.033333,
              "duration": 1.291667
            },
            {
              "pitch": 36,
              "velocity": 65,
              "position": 12.025,
              "duration": 1.383333
            },
            {
              "pitch": 31,
              "velocity": 61,
              "position": 14.075,
              "duration": 1.2
            }
          ]
        },
        "11": {
          "ctab": {
            "srcChannel": 11,
            "name": "Piano",
            "accType": "CHORD1",
            "editable": true,
            "mutedNotes": [],
            "mutedChords": [],
            "sourceChordNote": 0,
            "sourceChordType": "Maj7",
            "ctb2Main": {
              "ntr": "ROOT_FIXED",
              "ntt": "CHORD",
              "bassOn": false,
              "noteLowLimit": 48,
              "noteHighLimit": 84,
              "chordRootUpperLimit": 127,
              "rtr": "NOTE_GENERATOR"
            }
          },
          "notes": [
            {
              "pitch": 48,
              "velocity": 76,
              "position": 0.0,
              "duration": 1.958333
            },
            {
              "pitch": 36,
              "velocity": 68,
              "position": 0.008333,
              "duration": 1.95
            },
            {
              "pitch": 64,
              "velocity": 72,
              "position": 0.991667,
              "duration": 0.966667
            },
            {
              "pitch": 55,
              "velocity": 60,
              "position": 1.008333,
              "duration": 0.95
            },
            {
              "pitch": 59,
              "velocity": 62,
              "position": 1.008333,
              "duration": 0.95
            },
            {
              "pitch": 60,
              "velocity": 68,
              "position": 1.008333,
              "duration": 0.95
            },
            {
              "pitch": 48,
              "velocity": 76,
              "position": 2.0,
              "duration": 1.958333
            },
            {
              "pitch": 36,
              "velocity": 68,
              "position": 2.008333,
              "duration": 1.95
            },
            {
              "pitch": 64,
              "velocity": 72,
              "position": 2.991667,
              "duration": 0.966667
            },
            {
              "pitch": 55,
              "velocity": 60,
              "position": 3.008333,
              "duration": 0.95
            },
            {
              "pitch": 59,
              "velocity": 62,
              "position": 3.008333,
              "duration": 0.95
            },
            {
              "pitch": 60,
              "velocity": 68,
              "position": 3.008333,
              "duration": 0.95
            },
            {
              "pitch": 48,
              "velocity": 70,
              "position": 4.0,
              "duration": 1.958333
            },
            {
              "pitch": 55,
              "velocity": 68,
              "position": 4.0,
              "duration": 1.958333
            },
            {
              "pitch": 59,
              "velocity": 87,
              "position": 4.0,
              "duration": 1.958333
            },
            {
              "pitch": 64,
              "velocity": 74,
              "position": 4.0,
              "duration": 1.958333
            },
            {
              "pitch": 36,
              "velocity": 52,
              "position": 4.008333,
              "duration": 1.95
            },
            {
              "pitch": 59,
              "velocity": 89,
              "position": 6.0,
              "duration": 0.958333
            },
            {
              "pitch": 64,
              "velocity": 74,
              "position": 6.0,
              "duration": 0.958333
            },
            {
              "pitch": 71,
              "velocity": 70,
              "position": 6.008333,
              "duration": 0.95
            },
            {
              "pitch": 67,
              "velocity": 68,
              "position": 6.016667,
              "duration": 0.908333
            },
            {
              "pitch": 48,
              "velocity": 70,
              "position": 8.016667,
              "duration": 1.141667
            },
            {
              "pitch": 36,
              "velocity": 60,
              "position": 8.033333,
              "duration": 3.125
            },
            {
              "pitch": 59,
              "velocity": 68,
              "position": 8.441667,
              "duration": 0.533333
            },
            {
              "pitch": 60,
              "velocity": 53,
              "position": 8.983333,
              "duration": 1.675
            },
            {
              "pitch": 67,
              "velocity": 66,
              "position": 9.016667,
              "duration": 1.291667
            },
            {
              "pitch": 64,
              "velocity": 26,
              "position": 9.066667,
              "duration": 1.375
            },
            {
              "pitch": 59,
              "velocity": 62,
              "position": 9.516667,
              "duration": 1.316667
            },
            {
              "pitch": 48,
              "velocity": 32,
              "position": 10.025,
              "duration": 1.183333
            },
            {
              "pitch": 60,
              "velocity": 64,
              "position": 11.016667,
              "duration": 0.941667
            },
            {
              "pitch": 67,
              "velocity": 78,
              "position": 11.025,
              "duration": 0.85
            },
            {
              "pitch": 64,
              "velocity": 52,
              "position": 11.05,
              "duration": 0.9
            },
            {
              "pitch": 48,
              "velocity": 76,
              "position": 12.008333,
              "duration": 1.441667
            },
            {
              "pitch": 36,
              "velocity": 68,
              "position": 12.025,
              "duration": 3.358333
            },
            {
              "pitch": 64,
              "velocity": 70,
              "position": 12.975,
              "duration": 1.591667
            },
            {
              "pitch": 55,
              "velocity": 70,
              "position": 12.983333,
              "duration": 1.591667
            },
            {
              "pitch": 59,
              "velocity": 78,
              "position": 12.991667,
              "duration": 1.608333
            },
            {
              "pitch": 60,
              "velocity": 64,
              "position": 13.0,
              "duration": 1.641667
            },
            {
              "pitch": 48,
              "velocity": 70,
              "position": 14.508333,
              "duration": 1.016667
            },
            {
              "pitch": 59,
              "velocity": 68,
              "position": 15.0,
              "duration": 0.958333
            },
            {
              "pitch": 64,
              "velocity": 58,
              "position": 15.0,
              "duration": 0.958333
            },
            {
              "pitch": 60,
              "velocity": 45,
              "position": 15.033333,
              "duration": 0.925
            },
            {
              "pitch": 55,
              "velocity": 64,
              "position": 15.475,
              "duration": 0.483333
            }
          ]
        },
        "12": {
          "ctab": {
            "srcChannel": 12,
            "name": "Guitar",
            "accType": "CHORD2",
            "editable": true,
            "mutedNotes": [],
            "mutedChords": [],
            "sourceChordNote": 0,
            "sourceChordType": "Maj7",
            "ctb2Main": {
              "ntr": "ROOT_FIXED",
              "ntt": "CHORD",
              "bassOn": false,
              "noteLowLimit": 40,
              "noteHighLimit": 76,
              "chordRootUpperLimit": 127,
              "rtr": "NOTE_GENERATOR"
            }
          },
          "notes": [
            {
              "pitch": 48,
              "velocity": 93,
              "position": 0.008333,
              "duration": 1.95
            },
            {
              "pitch": 55,
              "velocity": 69,
              "position": 1.041667,
              "duration": 0.916667
            },
            {
              "pitch": 59,
              "velocity": 66,
              "position": 1.058333,
              "duration": 0.9
            },
            {
              "pitch": 64,
              "velocity": 83,
              "position": 1.075,
              "duration": 0.883333
            },
            {
              "pitch": 67,
              "velocity": 41,
              "position": 1.116667,
              "duration": 0.841667
            },
            {
              "pitch": 48,
              "velocity": 93,
              "position": 2.008333,
              "duration": 1.95
            },
            {
              "pitch": 55,
              "velocity": 69,
              "position": 3.041667,
              "duration": 0.916667
            },
            {
              "pitch": 59,
              "velocity": 66,
              "position": 3.058333,
              "duration": 0.9
            },
            {
              "pitch": 64,
              "velocity": 83,
              "position": 3.075,
              "duration": 0.883333
            },
            {
              "pitch": 67,
              "velocity": 41,
              "position": 3.116667,
              "duration": 0.841667
            },
            {
              "pitch": 48,
              "velocity": 84,
              "position": 4.0,
              "duration": 1.958333
            },
            {
              "pitch": 55,
              "velocity": 80,
              "position": 5.033333,
              "duration": 0.925
            },
            {
              "pitch": 64,
              "velocity": 90,
              "position": 5.041667,
              "duration": 0.916667
            },
            {
              "pitch": 59,
              "velocity": 68,
              "position": 5.05,
              "duration": 0.908333
            },
            {
              "pitch": 67,
              "velocity": 61,
              "position": 5.066667,
              "duration": 0.891667
            },
            {
              "pitch": 48,
              "velocity": 84,
              "position": 6.0,
              "duration": 1.958333
            },
            {
              "pitch": 55,
              "velocity": 80,
              "position": 7.033333,
              "duration": 0.925
            },
            {
              "pitch": 64,
              "velocity": 90,
              "position": 7.041667,
              "duration": 0.916667
            },
            {
              "pitch": 59,
              "velocity": 68,
              "position": 7.05,
              "duration": 0.908333
            },
            {
              "pitch": 67,
              "velocity": 61,
              "position": 7.066667,
              "duration": 0.891667
            },
            {
              "pitch": 48,
              "velocity": 75,
              "position": 8.058333,
              "duration": 3.883333
            },
            {
              "pitch": 55,
              "velocity": 63,
              "position": 9.025,
              "duration": 1.908333
            },
            {
              "pitch": 59,
              "velocity": 79,
              "position": 9.05,
              "duration": 1.875
            },
            {
              "pitch": 67,
              "velocity": 41,
              "position": 9.066667,
              "duration": 0.016667
            },
            {
              "pitch": 64,
              "velocity": 99,
              "position": 9.075,
              "duration": 1.875
            },
            {
              "pitch": 67,
              "velocity": 69,
              "position": 9.1,
              "duration": 1.883333
            },
            {
              "pitch": 55,
              "velocity": 62,
              "position": 10.95,
              "duration": 1.008333
            },
            {
              "pitch": 64,
              "velocity": 77,
              "position": 10.966667,
              "duration": 0.991667
            },
            {
              "pitch": 59,
              "velocity": 63,
              "position": 10.983333,
              "duration": 0.975
            },
            {
              "pitch": 67,
              "velocity": 64,
              "position": 10.991667,
              "duration": 0.966667
            },
            {
              "pitch": 48,
              "velocity": 75,
              "position": 12.058333,
              "duration": 3.883333
            },
            {
              "pitch": 55,
              "velocity": 63,
              "position": 13.025,
              "duration": 1.908333
            },
            {
              "pitch": 59,
              "velocity": 79,
              "position": 13.05,
              "duration": 1.875
            },
            {
              "pitch": 67,
              "velocity": 41,
              "position": 13.066667,
              "duration": 0.016667
            },
            {
              "pitch": 64,
              "velocity": 99,
              "position": 13.075,
              "duration": 1.875
            },
            {
              "pitch": 67,
              "velocity": 69,
              "position": 13.1,
              "duration": 1.883333
            },
            {
              "pitch": 55,
              "velocity": 62,
              "position": 14.95,
              "duration": 1.008333
            },
            {
              "pitch": 64,
              "velocity": 77,
              "position": 14.966667,
              "duration": 0.991667
            },
            {
              "pitch": 59,
              "velocity": 63,
              "position": 14.983333,
              "duration": 0.975
            },
            {
              "pitch": 67,
              "velocity": 64,
              "position": 14.991667,
              "duration": 0.966667
            }
          ]
        },
        "13": {
          "ctab": {
            "srcChannel": 13,
            "name": "Strings",
            "accType": "PAD",
            "editable": true,
            "mutedNotes": [],
            "mutedChords": [],
            "sourceChordNote": 0,
            "sourceChordType": "Maj7",
            "ctb2Main": {
              "ntr": "ROOT_FIXED",
              "ntt": "MELODY",
              "bassOn": false,
              "noteLowLimit": 36,
              "noteHighLimit": 96,
              "chordRootUpperLimit": 127,
              "rtr": "PITCH_SHIFT"
            }
          },
          "notes": []
        }
      }
    }
  }
}