{
  "name": "Fusion Soft",
  "tempo": 96,
  "timeSignature": "4/4",
  "ticksPerQuarter": 120,
  "sffType": "SFF1",
  "division": "BINARY",
  "channelPrograms": {
    "9": 0,
    "10": 33,
    "11": 4,
    "12": 28,
    "13": 108
  },
  "parts": {
    "Intro_A": {
      "type": "Intro_A",
      "sizeInBeats": 24,
      "channels": {
        "9": {
          "ctab": {
            "srcChannel": 9,
            "name": "Drums",
            "accType": "RHYTHM",
            "editable": false,
            "mutedNotes": [],
            "mutedChords": [],
            "sourceChordNote": 0,
            "sourceChordType": "Maj",
            "ctb2Main": {
              "ntr": "ROOT_FIXED",
              "ntt": "BYPASS",
              "bassOn": false,
              "noteLowLimit": 20,
              "noteHighLimit": 127,
              "chordRootUpperLimit": 127,
              "rtr": "RETRIGGER"
            }
          },
          "notes": [
            {
              "pitch": 37,
              "velocity": 84,
              "position": 0.0,
              "duration": 1.0
            },
            {
              "pitch": 37,
              "velocity": 84,
              "position": 2.0,
              "duration": 1.0
            },
            {
              "pitch": 37,
              "velocity": 64,
              "position": 4.0,
              "duration": 1.0
            },
            {
              "pitch": 37,
              "velocity": 84,
              "position": 5.0,
              "duration": 1.0
            },
            {
              "pitch": 37,
              "velocity": 64,
              "position": 6.0,
              "duration": 1.0
            },
            {
              "pitch": 37,
              "velocity": 84,
              "position": 7.0,
              "duration": 1.0
            },
            {
              "pitch": 36,
              "velocity": 80,
              "position": 8.008333,
              "duration": 0.141667
            },
            {
              "pitch": 44,
              "velocity": 56,
              "position": 8.008333,
              "duration": 0.133333
            },
            {
              "pitch": 49,
              "velocity": 59,
              "position": 8.016667,
              "duration": 0.116667
            },
            {
              "pitch": 42,
              "velocity": 10,
              "position": 8.525,
              "duration": 0.15
            },
            {
              "pitch": 36,
              "velocity": 69,
              "position": 8.825,
              "duration": 0.083333
            },
            {
              "pitch": 37,
              "velocity": 69,
              "position": 9.008333,
              "duration": 1.583333
            },
            {
              "pitch": 42,
              "velocity": 62,
              "position": 9.016667,
              "duration": 0.15
            },
            {
              "pitch": 36,
              "velocity": 80,
              "position": 9.5,
              "duration": 0.125
            },
            {
              "pitch": 42,
              "velocity": 7,
              "position": 9.516667,
              "duration": 0.141667
            },
            {
              "pitch": 42,
              "velocity": 24,
              "position": 10.008333,
              "duration": 0.133333
            },
            {
              "pitch": 42,
              "velocity": 8,
              "position": 10.325,
              "duration": 0.158333
            },
            {
              "pitch": 46,
              "velocity": 28,
              "position": 10.508333,
              "duration": 0.15
            },
            {
              "pitch": 37,
              "velocity": 69,
              "position": 11.008333,
              "duration": 0.783333
            },
            {
              "pitch": 42,
              "velocity": 70,
              "position": 11.008333,
              "duration": 0.125
            },
            {
              "pitch": 44,
              "velocity": 70,
              "position": 11.008333,
              "duration": 0.141667
            },
            {
              "pitch": 36,
              "velocity": 69,
              "position": 11.5,
              "duration": 0.125
            },
            {
              "pitch": 42,
              "velocity": 13,
              "position": 11.508333,
              "duration": 0.125
            },
            {
              "pitch": 42,
              "velocity": 49,
              "position": 12.0,
              "duration": 0.133333
            },
            {
              "pitch": 36,
              "velocity": 76,
              "position": 12.008333,
              "duration": 0.125
            },
            {
              "pitch": 42,
              "velocity": 28,
              "position": 12.508333,
              "duration": 0.125
            },
            {
              "pitch": 36,
              "velocity": 72,
              "position": 12.825,
              "duration": 0.083333
            },
            {
              "pitch": 37,
              "velocity": 69,
              "position": 13.008333,
              "duration": 1.583333
            },
            {
              "pitch": 42,
              "velocity": 80,
              "position": 13.008333,
              "duration": 0.141667
            },
            {
              "pitch": 36,
              "velocity": 80,
              "position": 13.508333,
              "duration": 0.133333
            },
            {
              "pitch": 42,
              "velocity": 13,
              "position": 13.516667,
              "duration": 0.15
            },
            {
              "pitch": 42,
              "velocity": 20,
              "position": 14.008333,
              "duration": 0.15
            },
            {
              "pitch": 46,
              "velocity": 47,
              "position": 14.516667,
              "duration": 0.15
            },
            {
              "pitch": 37,
              "velocity": 69,
              "position": 15.008333,
              "duration": 0.783333
            },
            {
              "pitch": 44,
              "velocity": 74,
              "position": 15.016667,
              "duration": 0.133333
            },
            {
              "pitch": 42,
              "velocity": 58,
              "position": 15.025,
              "duration": 0.15
            },
            {
              "pitch": 42,
              "velocity": 20,
              "position": 15.516667,
              "duration": 0.15
            },
            {
              "pitch": 36,
              "velocity": 80,
              "position": 16.008333,
              "duration": 0.141667
            },
            {
              "pitch": 44,
              "velocity": 56,
              "position": 16.008333,
              "duration": 0.133333
            },
            {
              "pitch": 49,
              "velocity": 59,
              "position": 16.016667,
              "duration": 0.116667
            },
            {
              "pitch": 42,
              "velocity": 10,
              "position": 16.525,
              "duration": 0.15
            },
            {
              "pitch": 36,
              "velocity": 69,
              "position": 16.825,
              "duration": 0.083333
            },
            {
              "pitch": 37,
              "velocity": 69,
              "position": 17.008333,
              "duration": 1.583333
            },
            {
              "pitch": 42,
              "velocity": 62,
              "position": 17.016667,
              "duration": 0.15
            },
            {
              "pitch": 36,
              "velocity": 80,
              "position": 17.5,
              "duration": 0.125
            },
            {
              "pitch": 42,
              "velocity": 7,
              "position": 17.516667,
              "duration": 0.141667
            },
            {
              "pitch": 42,
              "velocity": 24,
              "position": 18.008333,
              "duration": 0.133333
            },
            {
              "pitch": 42,
              "velocity": 8,
              "position": 18.325,
              "duration": 0.158333
            },
            {
              "pitch": 46,
              "velocity": 28,
              "position": 18.508333,
              "duration": 0.15
            },
            {
              "pitch": 37,
              "velocity": 69,
              "position": 19.008333,
              "duration": 0.783333
            },
            {
              "pitch": 42,
              "velocity": 70,
              "position": 19.008333,
              "duration": 0.125
            },
            {
              "pitch": 44,
              "velocity": 70,
              "position": 19.008333,
              "duration": 0.141667
            },
            {
              "pitch": 36,
              "velocity": 69,
              "position": 19.5,
              "duration": 0.125
            },
            {
              "pitch": 42,
              "velocity": 13,
              "position": 19.508333,
              "duration": 0.125
            },
            {
              "pitch": 36,
              "velocity": 80,
              "position": 20.008333,
              "duration": 0.141667
            },
            {
              "pitch": 42,
              "velocity": 55,
              "position": 20.016667,
              "duration": 0.133333
            },
            {
              "pitch": 42,
              "velocity": 23,
              "position": 20.516667,
              "duration": 0.15
            },
            {
              "pitch": 36,
              "velocity": 65,
              "position": 20.825,
              "duration": 0.083333
            },
            {
              "pitch": 37,
              "velocity": 69,
              "position": 21.008333,
              "duration": 1.583333
            },
            {
              "pitch": 42,
              "velocity": 75,
              "position": 21.008333,
              "duration": 0.158333
            },
            {
              "pitch": 50,
              "velocity": 80,
              "position": 21.491667,
              "duration": 0.125
            },
            {
              "pitch": 36,
              "velocity": 71,
              "position": 22.0,
              "duration": 0.133333
            },
            {
              "pitch": 42,
              "velocity": 20,
              "position": 22.0,
              "duration": 0.125
            },
            {
              "pitch": 48,
              "velocity": 78,
              "position": 22.308333,
              "duration": 0.141667
            },
            {
              "pitch": 42,
              "velocity": 33,
              "position": 22.5,
              "duration": 0.141667
            },
            {
              "pitch": 36,
              "velocity": 63,
              "position": 22.816667,
              "duration": 0.116667
            },
            {
              "pitch": 45,
              "velocity": 80,
              "position": 23.0,
              "duration": 0.058333
            },
            {
              "pitch": 37,
              "velocity": 69,
              "position": 23.008333,
              "duration": 0.783333
            },
            {
              "pitch": 46,
              "velocity": 80,
              "position": 23.491667,
              "duration": 0.125
            }
          ]
        },
        "10": {
          "ctab": {
            "srcChannel": 10,
            "name": "Bass",
            "accType": "BASS",
            "editable": true,
            "mutedNotes": [],
            "mutedChords": [],
            "sourceChordNote": 0,
            "sourceChordType": "Maj7",
            "ctb2Main": {
              "ntr": "ROOT_TRANSPOSITION",
              "ntt": "BYPASS",
              "bassOn": true,
              "noteLowLimit": 20,
              "noteHighLimit": 60,
              "chordRootUpperLimit": 127,
              "rtr": "NOTE_GENERATOR"
            }
          },
          "notes": [
            {
              "pitch": 36,
              "velocity": 83,
              "position": 8.016667,
              "duration": 1.508333
            },
            {
              "pitch": 36,
              "velocity": 70,
              "position": 10.008333,
              "duration": 1.575
            },
            {
              "pitch": 36,
              "velocity": 71,
              "position": 11.816667,
              "duration": 0.141667
            },
            {
              "pitch": 36,
              "velocity": 70,
              "position": 12.008333,
              "duration": 1.575
            },
            {
              "pitch": 36,
              "velocity": 71,
              "position": 13.816667,
              "duration": 0.141667
            },
            {
              "pitch": 36,
              "velocity": 70,
              "position": 14.008333,
              "duration": 1.575
            },
            {
              "pitch": 36,
              "velocity": 71,
              "position": 15.816667,
              "duration": 0.141667
            },
            {
              "pitch": 36,
              "velocity": 67,
              "position": 16.008333,
              "duration": 0.783333
            },
            {
              "pitch": 43,
              "velocity": 81,
              "position": 16.8,
              "duration": 0.825
            },
            {
              "pitch": 31,
              "velocity": 85,
              "position": 17.833333,
              "duration": 0.116667
            },
            {
              "pitch": 36,
              "velocity": 62,
              "position": 18.016667,
              "duration": 1.041667
            },
            {
              "pitch": 43,
              "velocity": 77,
              "position": 19.0,
              "duration": 0.533333
            },
            {
              "pitch": 36,
              "velocity": 65,
              "position": 19.991667,
              "duration": 1.55
            },
            {
              "pitch": 31,
              "velocity": 66,
              "position": 21.483333,
              "duration": 0.566667
            },
            {
              "pitch": 36,
              "velocity": 72,
              "position": 22.008333,
              "duration": 0.775
            },
            {
              "pitch": 43,
              "velocity": 70,
              "position": 22.808333,
              "duration": 1.15
            }
          ]
        },
        "11": {
          "ctab": {
            "srcChannel": 11,
            "name": "Piano",
            "accType": "CHORD1",
            "editable": true,
            "mutedNotes": [],
            "mutedChords": [],
            "sourceChordNote": 0,
            "sourceChordType": "Maj7",
            "ctb2Main": {
              "ntr": "ROOT_FIXED",
              "ntt": "CHORD",
              "bassOn": false,
              "noteLowLimit": 48,
              "noteHighLimit": 84,
              "chordRootUpperLimit": 127,
              "rtr": "NOTE_GENERATOR"
            }
          },
          "notes": [
            {
              "pitch": 62,
              "velocity": 55,
              "position": 8.05,
              "duration": 1.908333
            },
            {
              "pitch": 64,
              "velocity": 59,
              "position": 8.05,
              "duration": 1.908333
            },
            {
              "pitch": 67,
              "velocity": 47,
              "position": 8.05,
              "duration": 1.908333
            },
            {
              "pitch": 59,
              "velocity": 38,
              "position": 8.058333,
              "duration": 1.9
            },
            {
              "pitch": 64,
              "velocity": 58,
              "position": 10.525,
              "duration": 0.791667
            },
            {
              "pitch": 67,
              "velocity": 61,
              "position": 10.525,
              "duration": 0.791667
            },
            {
              "pitch": 64,
              "velocity": 50,
              "position": 11.508333,
              "duration": 0.45
            },
            {
              "pitch": 67,
              "velocity": 54,
              "position": 11.525,
              "duration": 0.433333
            },
            {
              "pitch": 64,
              "velocity": 58,
              "position": 12.525,
              "duration": 0.791667
            },
            {
              "pitch": 67,
              "velocity": 61,
              "position": 12.525,
              "duration": 0.791667
            },
            {
              "pitch": 64,
              "velocity": 50,
              "position": 13.508333,
              "duration": 0.45
            },
            {
              "pitch": 67,
              "velocity": 54,
              "position": 13.525,
              "duration": 0.433333
            },
            {
              "pitch": 64,
              "velocity": 58,
              "position": 14.525,
              "duration": 0.791667
            },
            {
              "pitch": 67,
              "velocity": 61,
              "position": 14.525,
              "duration": 0.791667
            },
            {
              "pitch": 64,
              "velocity": 50,
              "position": 15.508333,
              "duration": 0.45
            },
            {
              "pitch": 67,
              "velocity": 54,
              "position": 15.525,
              "duration": 0.433333
            },
            {
              "pitch": 59,
              "velocity": 51,
              "position": 16.05,
              "duration": 1.625
            },
            {
              "pitch": 76,
              "velocity": 49,
              "position": 16.075,
              "duration": 1.75
            },
            {
              "pitch": 83,
              "velocity": 51,
              "position": 16.075,
              "duration": 1.658333
            },
            {
              "pitch": 79,
              "velocity": 49,
              "position": 16.833333,
              "duration": 0.875
            },
            {
              "pitch": 79,
              "velocity": 65,
              "position": 18.525,
              "duration": 0.725
            },
            {
              "pitch": 71,
              "velocity": 63,
              "position": 19.325,
              "duration": 2.675
            },
            {
              "pitch": 76,
              "velocity": 56,
              "position": 20.025,
              "duration": 0.883333
            },
            {
              "pitch": 67,
              "velocity": 50,
              "position": 20.033333,
              "duration": 1.766667
            },
            {
              "pitch": 74,
              "velocity": 54,
              "position": 20.041667,
              "duration": 0.783333
            },
            {
              "pitch": 64,
              "velocity": 45,
              "position": 23.3,
              "duration": 0.491667
            },
            {
              "pitch": 74,
              "velocity": 70,
              "position": 23.533333,
              "duration": 0.241667
            }
          ]
        },
        "12": {
          "ctab": {
            "srcChannel": 12,
            "name": "Guitar",
            "accType": "CHORD2",
            "editable": true,
            "mutedNotes": [],
            "mutedChords": [],
            "sourceChordNote": 0,
            "sourceChordType": "Maj7",
            "ctb2Main": {
              "ntr": "ROOT_FIXED",
              "ntt": "CHORD",
              "bassOn": false,
              "noteLowLimit": 40,
              "noteHighLimit": 76,
              "chordRootUpperLimit": 127,
              "rtr": "NOTE_GENERATOR"
            }
          },
          "notes": [
            {
              "pitch": 64,
              "velocity": 62,
              "position": 9.0,
              "duration": 0.291667
            },
            {
              "pitch": 59,
              "velocity": 36,
              "position": 9.3,
              "duration": 0.208333
            },
            {
              "pitch": 55,
              "velocity": 43,
              "position": 9.5,
              "duration": 0.216667
            },
            {
              "pitch": 52,
              "velocity": 33,
              "position": 9.8,
              "duration": 0.141667
            },
            {
              "pitch": 64,
              "velocity": 62,
              "position": 13.0,
              "duration": 0.291667
            },
            {
              "pitch": 59,
              "velocity": 36,
              "position": 13.3,
              "duration": 0.208333
            },
            {
              "pitch": 55,
              "velocity": 43,
              "position": 13.5,
              "duration": 0.216667
            },
            {
              "pitch": 52,
              "velocity": 33,
              "position": 13.8,
              "duration": 0.141667
            },
            {
              "pitch": 64,
              "velocity": 62,
              "position": 17.0,
              "duration": 0.291667
            },
            {
              "pitch": 59,
              "velocity": 36,
              "position": 17.3,
              "duration": 0.208333
            },
            {
              "pitch": 55,
              "velocity": 43,
              "position": 17.5,
              "duration": 0.216667
            },
            {
              "pitch": 52,
              "velocity": 33,
              "position": 17.8,
              "duration": 0.141667
            },
            {
              "pitch": 59,
              "velocity": 68,
              "position": 21.0,
              "duration": 0.233333
            },
            {
              "pitch": 55,
              "velocity": 38,
              "position": 21.291667,
              "duration": 0.25
            },
            {
              "pitch": 52,
              "velocity": 41,
              "position": 21.5,
              "duration": 0.191667
            },
            {
              "pitch": 43,
              "velocity": 21,
              "position": 21.791667,
              "duration": 0.175
            }
          ]
        },
        "13": {
          "ctab": {
            "srcChannel": 13,
            "name": "Strings",
            "accType": "PAD",
            "editable": true,
            "mutedNotes": [],
            "mutedChords": [],
            "sourceChordNote": 0,
            "sourceChordType": "Maj7",
            "ctb2Main": {
              "ntr": "ROOT_FIXED",
              "ntt": "MELODY",
              "bassOn": false,
              "noteLowLimit": 36,
              "noteHighLimit": 96,
              "chordRootUpperLimit": 127,
              "rtr": "PITCH_SHIFT"
            }
          },
          "notes": [
            {
              "pitch": 55,
              "velocity": 37,
              "position": 8.0,
              "duration": 0.316667
            },
            {
              "pitch": 59,
              "velocity": 28,
              "position": 8.308333,
              "duration": 0.225
            },
            {
              "pitch": 60,
              "velocity": 42,
              "position": 8.508333,
              "duration": 0.308333
            },
            {
              "pitch": 64,
              "velocity": 52,
              "position": 8.8,
              "duration": 0.15
            },
            {
              "pitch": 55,
              "velocity": 40,
              "position": 9.483333,
              "duration": 0.291667
            },
            {
              "pitch": 59,
              "velocity": 31,
              "position": 9.808333,
              "duration": 0.15
            },
            {
              "pitch": 59,
              "velocity": 36,
              "position": 10.0,
              "duration": 0.316667
            },
            {
              "pitch": 60,
              "velocity": 27,
              "position": 10.308333,
              "duration": 0.225
            },
            {
              "pitch": 55,
              "velocity": 37,
              "position": 12.0,
              "duration": 0.316667
            },
            {
              "pitch": 59,
              "velocity": 28,
              "position": 12.308333,
              "duration": 0.225
            },
            {
              "pitch": 60,
              "velocity": 42,
              "position": 12.508333,
              "duration": 0.308333
            },
            {
              "pitch": 64,
              "velocity": 52,
              "position": 12.8,
              "duration": 0.15
            },
            {
              "pitch": 55,
              "velocity": 40,
              "position": 13.483333,
              "duration": 0.291667
            },
            {
              "pitch": 59,
              "velocity": 31,
              "position": 13.808333,
              "duration": 0.15
            },
            {
              "pitch": 59,
              "velocity": 36,
              "position": 14.0,
              "duration": 0.316667
            },
            {
              "pitch": 60,
              "velocity": 27,
              "position": 14.308333,
              "duration": 0.225
            },
            {
              "pitch": 55,
              "velocity": 36,
              "position": 16.0,
              "duration": 0.316667
            },
            {
              "pitch": 59,
              "velocity": 27,
              "position": 16.333333,
              "duration": 0.225
            },
            {
              "pitch": 60,
              "velocity": 41,
              "position": 16.491667,
              "duration": 0.308333
            },
            {
              "pitch": 64,
              "velocity": 51,
              "position": 16.8,
              "duration": 0.15
            },
            {
              "pitch": 55,
              "velocity": 39,
              "position": 17.483333,
              "duration": 0.291667
            },
            {
              "pitch": 59,
              "velocity": 30,
              "position": 17.808333,
              "duration": 0.225
            },
            {
              "pitch": 60,
              "velocity": 44,
              "position": 17.983333,
              "duration": 0.3
            },
            {
              "pitch": 64,
              "velocity": 50,
              "position": 18.308333,
              "duration": 0.225
            },
            {
              "pitch": 59,
              "velocity": 48,
              "position": 20.008333,
              "duration": 0.266667
            },
            {
              "pitch": 60,
              "velocity": 20,
              "position": 20.308333,
              "duration": 0.175
            },
            {
              "pitch": 64,
              "velocity": 48,
              "position": 20.5,
              "duration": 0.316667
            },
            {
              "pitch": 67,
              "velocity": 55,
              "position": 20.8,
              "duration": 0.166667
            },
            {
              "pitch": 59,
              "velocity": 50,
              "position": 21.508333,
              "duration": 0.266667
            },
            {
              "pitch": 60,
              "velocity": 39,
              "position": 21.841667,
              "duration": 0.183333
            },
            {
              "pitch": 64,
              "velocity": 42,
              "position": 22.016667,
              "duration": 0.333333
            },
            {
              "pitch": 67,
              "velocity": 48,
              "position": 22.3,
              "duration": 0.175
            },
            {
              "pitch": 64,
              "velocity": 48,
              "position": 23.008333,
              "duration": 0.158333
            },
            {
              "pitch": 67,
              "velocity": 48,
              "position": 23.508333,
              "duration": 0.158333
            }
          ]
        }
      }
    },
    "Main_A": {
      "type": "Main_A",
      "sizeInBeats": 16,
      "channels": {
        "9": {
          "ctab": {
            "srcChannel": 9,
            "name": "Drums",
            "accType": "RHYTHM",
            "editable": false,
            "mutedNotes": [],
            "mutedChords": [],
            "sourceChordNote": 0,
            "sourceChordType": "Maj",
            "ctb2Main": {
              "ntr": "ROOT_FIXED",
              "ntt": "BYPASS",
              "bassOn": false,
              "noteLowLimit": 20,
              "noteHighLimit": 127,
              "chordRootUpperLimit": 127,
              "rtr": "RETRIGGER"
            }
          },
          "notes": [
            {
              "pitch": 36,
              "velocity": 80,
              "position": 0.008333,
              "duration": 0.158333
            },
            {
              "pitch": 49,
              "velocity": 41,
              "position": 0.016667,
              "duration": 0.141667
            },
            {
              "pitch": 42,
              "velocity": 29,
              "position": 0.508333,
              "duration": 0.133333
            },
            {
              "pitch": 42,
              "velocity": 80,
              "position": 1.016667,
              "duration": 0.133333
            },
            {
              "pitch": 38,
              "velocity": 49,
              "position": 1.025,
              "duration": 0.116667
            },
            {
              "pitch": 36,
              "velocity": 80,
              "position": 1.508333,
              "duration": 0.133333
            },
            {
              "pitch": 46,
              "velocity": 80,
              "position": 1.516667,
              "duration": 0.125
            },
            {
              "pitch": 44,
              "velocity": 50,
              "position": 2.0,
              "duration": 0.141667
            },
            {
              "pitch": 36,
              "velocity": 80,
              "position": 2.008333,
              "duration": 0.15
            },
            {
              "pitch": 42,
              "velocity": 60,
              "position": 2.016667,
              "duration": 0.133333
            },
            {
              "pitch": 42,
              "velocity": 36,
              "position": 2.508333,
              "duration": 0.133333
            },
            {
              "pitch": 38,
              "velocity": 72,
              "position": 3.008333,
              "duration": 0.066667
            },
            {
              "pitch": 42,
              "velocity": 80,
              "position": 3.008333,
              "duration": 0.125
            },
            {
              "pitch": 36,
              "velocity": 63,
              "position": 3.5,
              "duration": 0.158333
            },
            {
              "pitch": 42,
              "velocity": 13,
              "position": 3.508333,
              "duration": 0.141667
            },
            {
              "pitch": 36,
              "velocity": 80,
              "position": 4.0,
              "duration": 0.133333
            },
            {
              "pitch": 42,
              "velocity": 70,
              "position": 4.008333,
              "duration": 0.125
            },
            {
              "pitch": 42,
              "velocity": 55,
              "position": 4.516667,
              "duration": 0.125
            },
            {
              "pitch": 38,
              "velocity": 80,
              "position": 5.008333,
              "duration": 0.15
            },
            {
              "pitch": 42,
              "velocity": 80,
              "position": 5.016667,
              "duration": 0.141667
            },
            {
              "pitch": 36,
              "velocity": 68,
              "position": 5.516667,
              "duration": 0.116667
            },
            {
              "pitch": 46,
              "velocity": 47,
              "position": 5.516667,
              "duration": 0.125
            },
            {
              "pitch": 44,
              "velocity": 44,
              "position": 6.016667,
              "duration": 0.166667
            },
            {
              "pitch": 36,
              "velocity": 80,
              "position": 6.025,
              "duration": 0.15
            },
            {
              "pitch": 42,
              "velocity": 26,
              "position": 6.033333,
              "duration": 0.141667
            },
            {
              "pitch": 42,
              "velocity": 50,
              "position": 6.516667,
              "duration": 0.15
            },
            {
              "pitch": 38,
              "velocity": 80,
              "position": 7.016667,
              "duration": 0.141667
            },
            {
              "pitch": 42,
              "velocity": 31,
              "position": 7.016667,
              "duration": 0.133333
            },
            {
              "pitch": 42,
              "velocity": 16,
              "position": 7.325,
              "duration": 0.15
            },
            {
              "pitch": 42,
              "velocity": 80,
              "position": 7.508333,
              "duration": 0.141667
            },
            {
              "pitch": 36,
              "velocity": 50,
              "position": 7.85,
              "duration": 0.15
            },
            {
              "pitch": 36,
              "velocity": 80,
              "position": 8.016667,
              "duration": 0.141667
            },
            {
              "pitch": 42,
              "velocity": 80,
              "position": 8.016667,
              "duration": 0.133333
            },
            {
              "pitch": 42,
              "velocity": 41,
              "position": 8.5,
              "duration": 0.15
            },
            {
              "pitch": 38,
              "velocity": 80,
              "position": 9.008333,
              "duration": 0.066667
            },
            {
              "pitch": 42,
              "velocity": 67,
              "position": 9.008333,
              "duration": 0.133333
            },
            {
              "pitch": 36,
              "velocity": 80,
              "position": 9.5,
              "duration": 0.158333
            },
            {
              "pitch": 42,
              "velocity": 60,
              "position": 9.508333,
              "duration": 0.141667
            },
            {
              "pitch": 44,
              "velocity": 30,
              "position": 9.966667,
              "duration": 0.15
            },
            {
              "pitch": 36,
              "velocity": 80,
              "position": 10.0,
              "duration": 0.141667
            },
            {
              "pitch": 42,
              "velocity": 41,
              "position": 10.008333,
              "duration": 0.133333
            },
            {
              "pitch": 42,
              "velocity": 42,
              "position": 10.5,
              "duration": 0.133333
            },
            {
              "pitch": 38,
              "velocity": 80,
              "position": 11.008333,
              "duration": 0.066667
            },
            {
              "pitch": 42,
              "velocity": 75,
              "position": 11.008333,
              "duration": 0.158333
            },
            {
              "pitch": 42,
              "velocity": 46,
              "position": 11.5,
              "duration": 0.15
            },
            {
              "pitch": 36,
              "velocity": 80,
              "position": 12.008333,
              "duration": 0.133333
            },
            {
              "pitch": 38,
              "velocity": 70,
              "position": 12.008333,
              "duration": 0.141667
            },
            {
              "pitch": 42,
              "velocity": 80,
              "position": 12.016667,
              "duration": 0.125
            },
            {
              "pitch": 36,
              "velocity": 63,
              "position": 12.808333,
              "duration": 0.066667
            },
            {
              "pitch": 38,
              "velocity": 80,
              "position": 12.991667,
              "duration": 0.15
            },
            {
              "pitch": 42,
              "velocity": 80,
              "position": 12.991667,
              "duration": 0.141667
            },
            {
              "pitch": 50,
              "velocity": 80,
              "position": 13.491667,
              "duration": 0.125
            },
            {
              "pitch": 38,
              "velocity": 80,
              "position": 13.5,
              "duration": 0.141667
            },
            {
              "pitch": 38,
              "velocity": 80,
              "position": 13.991667,
              "duration": 0.15
            },
            {
              "pitch": 48,
              "velocity": 80,
              "position": 13.991667,
              "duration": 0.141667
            },
            {
              "pitch": 36,
              "velocity": 63,
              "position": 14.8,
              "duration": 0.1
            },
            {
              "pitch": 38,
              "velocity": 80,
              "position": 14.983333,
              "duration": 0.125
            },
            {
              "pitch": 45,
              "velocity": 80,
              "position": 14.991667,
              "duration": 0.141667
            },
            {
              "pitch": 41,
              "velocity": 80,
              "position": 15.491667,
              "duration": 0.133333
            },
            {
              "pitch": 45,
              "velocity": 40,
              "position": 15.666667,
              "duration": 0.116667
            },
            {
              "pitch": 41,
              "velocity": 36,
              "position": 15.808333,
              "duration": 0.133333
            }
          ]
        },
        "10": {
          "ctab": {
            "srcChannel": 10,
            "name": "Bass",
            "accType": "BASS",
            "editable": true,
            "mutedNotes": [],
            "mutedChords": [],
            "sourceChordNote": 0,
            "sourceChordType": "Maj7",
            "ctb2Main": {
              "ntr": "ROOT_TRANSPOSITION",
              "ntt": "BYPASS",
              "bassOn": true,
              "noteLowLimit": 20,
              "noteHighLimit": 60,
              "chordRootUpperLimit": 127,
              "rtr": "NOTE_GENERATOR"
            }
          },
          "notes": [
            {
              "pitch": 36,
              "velocity": 91,
              "position": 0.0,
              "duration": 1.016667
            },
            {
              "pitch": 31,
              "velocity": 69,
              "position": 1.491667,
              "duration": 0.466667
            },
            {
              "pitch": 36,
              "velocity": 91,
              "position": 2.0,
              "duration": 1.275
            },
            {
              "pitch": 36,
              "velocity": 69,
              "position": 3.833333,
              "duration": 0.125
            },
            {
              "pitch": 36,
              "velocity": 80,
              "position": 4.008333,
              "duration": 1.575
            },
            {
              "pitch": 36,
              "velocity": 81,
              "position": 5.816667,
              "duration": 0.141667
            },
            {
              "pitch": 36,
              "velocity": 80,
              "position": 6.008333,
              "duration": 1.575
            },
            {
              "pitch": 36,
              "velocity": 81,
              "position": 7.816667,
              "duration": 0.141667
            },
            {
              "pitch": 36,
              "velocity": 82,
              "position": 8.008333,
              "duration": 1.208333
            },
            {
              "pitch": 31,
              "velocity": 79,
              "position": 9.491667,
              "duration": 0.5
            },
            {
              "pitch": 36,
              "velocity": 83,
              "position": 10.008333,
              "duration": 1.5
            },
            {
              "pitch": 36,
              "velocity": 81,
              "position": 11.991667,
              "duration": 1.55
            },
            {
              "pitch": 43,
              "velocity": 87,
              "position": 13.783333,
              "duration": 0.8
            },
            {
              "pitch": 48,
              "velocity": 78,
              "position": 14.508333,
              "duration": 0.15
            },
            {
              "pitch": 43,
              "velocity": 85,
              "position": 15.008333,
              "duration": 0.541667
            },
            {
              "pitch": 36,
              "velocity": 66,
              "position": 15.5,
              "duration": 0.458333
            }
          ]
        },
        "11": {
          "ctab": {
            "srcChannel": 11,
            "name": "Piano",
            "accType": "CHORD1",
            "editable": true,
            "mutedNotes": [],
            "mutedChords": [],
            "sourceChordNote": 0,
            "sourceChordType": "Maj7",
            "ctb2Main": {
              "ntr": "ROOT_FIXED",
              "ntt": "CHORD",
              "bassOn": false,
              "noteLowLimit": 48,
              "noteHighLimit": 84,
              "chordRootUpperLimit": 127,
              "rtr": "NOTE_GENERATOR"
            }
          },
          "notes": [
            {
              "pitch": 64,
              "velocity": 63,
              "position": 0.525,
              "duration": 0.791667
            },
            {
              "pitch": 67,
              "velocity": 66,
              "position": 0.525,
              "duration": 0.791667
            },
            {
              "pitch": 64,
              "velocity": 55,
              "position": 1.508333,
              "duration": 0.45
            },
            {
              "pitch": 67,
              "velocity": 59,
              "position": 1.525,
              "duration": 0.433333
            },
            {
              "pitch": 64,
              "velocity": 63,
              "position": 2.525,
              "duration": 0.791667
            },
            {
              "pitch": 67,
              "velocity": 66,
              "position": 2.525,
              "duration": 0.791667
            },
            {
              "pitch": 64,
              "velocity": 55,
              "position": 3.508333,
              "duration": 0.45
            },
            {
              "pitch": 67,
              "velocity": 59,
              "position": 3.525,
              "duration": 0.433333
            },
            {
              "pitch": 64,
              "velocity": 63,
              "position": 4.525,
              "duration": 0.791667
            },
            {
              "pitch": 67,
              "velocity": 66,
              "position": 4.525,
              "duration": 0.791667
            },
            {
              "pitch": 64,
              "velocity": 55,
              "position": 5.508333,
              "duration": 0.45
            },
            {
              "pitch": 67,
              "velocity": 59,
              "position": 5.525,
              "duration": 0.433333
            },
            {
              "pitch": 62,
              "velocity": 60,
              "position": 6.05,
              "duration": 1.908333
            },
            {
              "pitch": 64,
              "velocity": 64,
              "position": 6.05,
              "duration": 1.908333
            },
            {
              "pitch": 67,
              "velocity": 52,
              "position": 6.05,
              "duration": 1.908333
            },
            {
              "pitch": 59,
              "velocity": 43,
              "position": 6.058333,
              "duration": 1.9
            },
            {
              "pitch": 67,
              "velocity": 70,
              "position": 8.983333,
              "duration": 0.125
            },
            {
              "pitch": 64,
              "velocity": 65,
              "position": 8.991667,
              "duration": 0.141667
            },
            {
              "pitch": 71,
              "velocity": 67,
              "position": 8.991667,
              "duration": 0.15
            },
            {
              "pitch": 64,
              "velocity": 63,
              "position": 10.766667,
              "duration": 0.166667
            },
            {
              "pitch": 67,
              "velocity": 69,
              "position": 10.766667,
              "duration": 0.15
            },
            {
              "pitch": 71,
              "velocity": 62,
              "position": 10.775,
              "duration": 0.175
            },
            {
              "pitch": 62,
              "velocity": 66,
              "position": 13.0,
              "duration": 0.166667
            },
            {
              "pitch": 71,
              "velocity": 51,
              "position": 13.0,
              "duration": 0.216667
            },
            {
              "pitch": 64,
              "velocity": 58,
              "position": 13.008333,
              "duration": 0.166667
            },
            {
              "pitch": 59,
              "velocity": 51,
              "position": 14.491667,
              "duration": 1.158333
            },
            {
              "pitch": 62,
              "velocity": 58,
              "position": 15.008333,
              "duration": 0.566667
            },
            {
              "pitch": 67,
              "velocity": 44,
              "position": 15.5,
              "duration": 0.15
            }
          ]
        },
        "12": {
          "ctab": {
            "srcChannel": 12,
            "name": "Guitar",
            "accType": "CHORD2",
            "editable": true,
            "mutedNotes": [],
            "mutedChords": [],
            "sourceChordNote": 0,
            "sourceChordType": "Maj7",
            "ctb2Main": {
              "ntr": "ROOT_FIXED",
              "ntt": "CHORD",
              "bassOn": false,
              "noteLowLimit": 40,
              "noteHighLimit": 76,
              "chordRootUpperLimit": 127,
              "rtr": "NOTE_GENERATOR"
            }
          },
          "notes": [
            {
              "pitch": 67,
              "velocity": 62,
              "position": 1.0,
              "duration": 0.291667
            },
            {
              "pitch": 64,
              "velocity": 36,
              "position": 1.3,
              "duration": 0.208333
            },
            {
              "pitch": 59,
              "velocity": 43,
              "position": 1.5,
              "duration": 0.216667
            },
            {
              "pitch": 55,
              "velocity": 33,
              "position": 1.8,
              "duration": 0.141667
            },
            {
              "pitch": 67,
              "velocity": 62,
              "position": 5.0,
              "duration": 0.291667
            },
            {
              "pitch": 64,
              "velocity": 36,
              "position": 5.3,
              "duration": 0.208333
            },
            {
              "pitch": 59,
              "velocity": 43,
              "position": 5.5,
              "duration": 0.216667
            },
            {
              "pitch": 55,
              "velocity": 33,
              "position": 5.8,
              "duration": 0.141667
            },
            {
              "pitch": 67,
              "velocity": 62,
              "position": 9.0,
              "duration": 0.291667
            },
            {
              "pitch": 64,
              "velocity": 36,
              "position": 9.3,
              "duration": 0.208333
            },
            {
              "pitch": 59,
              "velocity": 43,
              "position": 9.5,
              "duration": 0.216667
            },
            {
              "pitch": 55,
              "velocity": 33,
              "position": 9.8,
              "duration": 0.141667
            },
            {
              "pitch": 64,
              "velocity": 68,
              "position": 13.0,
              "duration": 0.233333
            },
            {
              "pitch": 59,
              "velocity": 38,
              "position": 13.291667,
              "duration": 0.25
            },
            {
              "pitch": 55,
              "velocity": 41,
              "position": 13.5,
              "duration": 0.191667
            },
            {
              "pitch": 48,
              "velocity": 22,
              "position": 13.791667,
              "duration": 0.175
            }
          ]
        },
        "13": {
          "ctab": {
            "srcChannel": 13,
            "name": "Strings",
            "accType": "PAD",
            "editable": true,
            "mutedNotes": [],
            "mutedChords": [],
            "sourceChordNote": 0,
            "sourceChordType": "Maj7",
            "ctb2Main": {
              "ntr": "ROOT_FIXED",
              "ntt": "MELODY",
              "bassOn": false,
              "noteLowLimit": 36,
              "noteHighLimit": 96,
              "chordRootUpperLimit": 127,
              "rtr": "PITCH_SHIFT"
            }
          },
          "notes": [
            {
              "pitch": 55,
              "velocity": 42,
              "position": 0.0,
              "duration": 0.316667
            },
            {
              "pitch": 59,
              "velocity": 33,
              "position": 0.308333,
              "duration": 0.225
            },
            {
              "pitch": 60,
              "velocity": 47,
              "position": 0.508333,
              "duration": 0.308333
            },
            {
              "pitch": 64,
              "velocity": 57,
              "position": 0.8,
              "duration": 0.15
            },
            {
              "pitch": 55,
              "velocity": 45,
              "position": 1.483333,
              "duration": 0.291667
            },
            {
              "pitch": 59,
              "velocity": 36,
              "position": 1.808333,
              "duration": 0.15
            },
            {
              "pitch": 59,
              "velocity": 41,
              "position": 2.0,
              "duration": 0.316667
            },
            {
              "pitch": 60,
              "velocity": 32,
              "position": 2.308333,
              "duration": 0.225
            },
            {
              "pitch": 55,
              "velocity": 42,
              "position": 4.0,
              "duration": 0.316667
            },
            {
              "pitch": 59,
              "velocity": 33,
              "position": 4.308333,
              "duration": 0.225
            },
            {
              "pitch": 60,
              "velocity": 47,
              "position": 4.508333,
              "duration": 0.308333
            },
            {
              "pitch": 64,
              "velocity": 57,
              "position": 4.8,
              "duration": 0.15
            },
            {
              "pitch": 55,
              "velocity": 45,
              "position": 5.483333,
              "duration": 0.291667
            },
            {
              "pitch": 59,
              "velocity": 36,
              "position": 5.808333,
              "duration": 0.15
            },
            {
              "pitch": 59,
              "velocity": 41,
              "position": 6.0,
              "duration": 0.316667
            },
            {
              "pitch": 60,
              "velocity": 32,
              "position": 6.308333,
              "duration": 0.225
            },
            {
              "pitch": 55,
              "velocity": 41,
              "position": 8.0,
              "duration": 0.316667
            },
            {
              "pitch": 59,
              "velocity": 32,
              "position": 8.333333,
              "duration": 0.225
            },
            {
              "pitch": 60,
              "velocity": 46,
              "position": 8.491667,
              "duration": 0.308333
            },
            {
              "pitch": 64,
              "velocity": 56,
              "position": 8.8,
              "duration": 0.15
            },
            {
              "pitch": 55,
              "velocity": 44,
              "position": 9.483333,
              "duration": 0.291667
            },
            {
              "pitch": 59,
              "velocity": 35,
              "position": 9.808333,
              "duration": 0.225
            },
            {
              "pitch": 60,
              "velocity": 49,
              "position": 9.983333,
              "duration": 0.3
            },
            {
              "pitch": 64,
              "velocity": 55,
              "position": 10.308333,
              "duration": 0.225
            },
            {
              "pitch": 59,
              "velocity": 53,
              "position": 12.008333,
              "duration": 0.266667
            },
            {
              "pitch": 60,
              "velocity": 25,
              "position": 12.308333,
              "duration": 0.175
            },
            {
              "pitch": 64,
              "velocity": 53,
              "position": 12.5,
              "duration": 0.316667
            },
            {
              "pitch": 67,
              "velocity": 60,
              "position": 12.8,
              "duration": 0.166667
            },
            {
              "pitch": 59,
              "velocity": 55,
              "position": 13.508333,
              "duration": 0.266667
            },
            {
              "pitch": 60,
              "velocity": 44,
              "position": 13.841667,
              "duration": 0.183333
            },
            {
              "pitch": 64,
              "velocity": 47,
              "position": 14.016667,
              "duration": 0.333333
            },
            {
              "pitch": 67,
              "velocity": 53,
              "position": 14.3,
              "duration": 0.175
            },
            {
              "pitch": 64,
              "velocity": 53,
              "position": 15.008333,
              "duration": 0.158333
            },
            {
              "pitch": 67,
              "velocity": 53,
              "position": 15.508333,
              "duration": 0.158333
            }
          ]
        }
      }
    },
    "Main_B": {
      "type": "Main_B",
      "sizeInBeats": 16,
      "channels": {
        "9": {
          "ctab": {
            "srcChannel": 9,
            "name": "Drums",
            "accType": "RHYTHM",
            "editable": false,
            "mutedNotes": [],
            "mutedChords": [],
            "sourceChordNote": 0,
            "sourceChordType": "Maj",
            "ctb2Main": {
              "ntr": "ROOT_FIXED",
              "ntt": "BYPASS",
              "bassOn": false,
              "noteLowLimit": 20,
              "noteHighLimit": 127,
              "chordRootUpperLimit": 127,
              "rtr": "RETRIGGER"
            }
          },
          "notes": [
            {
              "pitch": 36,
              "velocity": 80,
              "position": 0.0,
              "duration": 0.166667
            },
            {
              "pitch": 44,
              "velocity": 36,
              "position": 0.0,
              "duration": 0.191667
            },
            {
              "pitch": 49,
              "velocity": 80,
              "position": 0.0,
              "duration": 0.158333
            },
            {
              "pitch": 42,
              "velocity": 31,
              "position": 0.5,
              "duration": 0.133333
            },
            {
              "pitch": 36,
              "velocity": 79,
              "position": 0.8,
              "duration": 0.083333
            },
            {
              "pitch": 38,
              "velocity": 80,
              "position": 0.983333,
              "duration": 0.158333
            },
            {
              "pitch": 42,
              "velocity": 80,
              "position": 0.991667,
              "duration": 0.141667
            },
            {
              "pitch": 36,
              "velocity": 80,
              "position": 1.5,
              "duration": 0.141667
            },
            {
              "pitch": 42,
              "velocity": 44,
              "position": 1.5,
              "duration": 0.133333
            },
            {
              "pitch": 42,
              "velocity": 80,
              "position": 1.991667,
              "duration": 0.125
            },
            {
              "pitch": 42,
              "velocity": 80,
              "position": 2.508333,
              "duration": 0.15
            },
            {
              "pitch": 38,
              "velocity": 80,
              "position": 3.0,
              "duration": 0.141667
            },
            {
              "pitch": 42,
              "velocity": 80,
              "position": 3.008333,
              "duration": 0.141667
            },
            {
              "pitch": 36,
              "velocity": 80,
              "position": 3.508333,
              "duration": 0.116667
            },
            {
              "pitch": 42,
              "velocity": 80,
              "position": 3.516667,
              "duration": 0.133333
            },
            {
              "pitch": 44,
              "velocity": 37,
              "position": 4.0,
              "duration": 0.158333
            },
            {
              "pitch": 36,
              "velocity": 80,
              "position": 4.016667,
              "duration": 0.15
            },
            {
              "pitch": 42,
              "velocity": 80,
              "position": 4.016667,
              "duration": 0.141667
            },
            {
              "pitch": 42,
              "velocity": 42,
              "position": 4.516667,
              "duration": 0.133333
            },
            {
              "pitch": 38,
              "velocity": 80,
              "position": 5.0,
              "duration": 0.15
            },
            {
              "pitch": 42,
              "velocity": 80,
              "position": 5.008333,
              "duration": 0.133333
            },
            {
              "pitch": 42,
              "velocity": 65,
              "position": 5.508333,
              "duration": 0.15
            },
            {
              "pitch": 36,
              "velocity": 51,
              "position": 5.825,
              "duration": 0.141667
            },
            {
              "pitch": 36,
              "velocity": 80,
              "position": 6.008333,
              "duration": 0.141667
            },
            {
              "pitch": 42,
              "velocity": 80,
              "position": 6.008333,
              "duration": 0.133333
            },
            {
              "pitch": 36,
              "velocity": 80,
              "position": 6.516667,
              "duration": 0.141667
            },
            {
              "pitch": 42,
              "velocity": 67,
              "position": 6.516667,
              "duration": 0.133333
            },
            {
              "pitch": 38,
              "velocity": 54,
              "position": 7.008333,
              "duration": 0.141667
            },
            {
              "pitch": 42,
              "velocity": 80,
              "position": 7.008333,
              "duration": 0.133333
            },
            {
              "pitch": 36,
              "velocity": 80,
              "position": 7.5,
              "duration": 0.133333
            },
            {
              "pitch": 46,
              "velocity": 80,
              "position": 7.508333,
              "duration": 0.116667
            },
            {
              "pitch": 36,
              "velocity": 80,
              "position": 8.016667,
              "duration": 0.141667
            },
            {
              "pitch": 42,
              "velocity": 80,
              "position": 8.016667,
              "duration": 0.133333
            },
            {
              "pitch": 42,
              "velocity": 41,
              "position": 8.5,
              "duration": 0.15
            },
            {
              "pitch": 38,
              "velocity": 80,
              "position": 9.008333,
              "duration": 0.066667
            },
            {
              "pitch": 42,
              "velocity": 67,
              "position": 9.008333,
              "duration": 0.133333
            },
            {
              "pitch": 36,
              "velocity": 80,
              "position": 9.5,
              "duration": 0.158333
            },
            {
              "pitch": 42,
              "velocity": 60,
              "position": 9.508333,
              "duration": 0.141667
            },
            {
              "pitch": 44,
              "velocity": 30,
              "position": 9.966667,
              "duration": 0.15
            },
            {
              "pitch": 36,
              "velocity": 80,
              "position": 10.0,
              "duration": 0.141667
            },
            {
              "pitch": 42,
              "velocity": 41,
              "position": 10.008333,
              "duration": 0.133333
            },
            {
              "pitch": 42,
              "velocity": 42,
              "position": 10.5,
              "duration": 0.133333
            },
            {
              "pitch": 38,
              "velocity": 80,
              "position": 11.008333,
              "duration": 0.066667
            },
            {
              "pitch": 42,
              "velocity": 75,
              "position": 11.008333,
              "duration": 0.158333
            },
            {
              "pitch": 42,
              "velocity": 46,
              "position": 11.5,
              "duration": 0.15
            },
            {
              "pitch": 38,
              "velocity": 80,
              "position": 12.0,
              "duration": 0.141667
            },
            {
              "pitch": 36,
              "velocity": 68,
              "position": 12.316667,
              "duration": 0.133333
            },
            {
              "pitch": 36,
              "velocity": 47,
              "position": 12.808333,
              "duration": 0.133333
            },
            {
              "pitch": 36,
              "velocity": 80,
              "position": 12.991667,
              "duration": 0.15
            },
            {
              "pitch": 38,
              "velocity": 80,
              "position": 13.3,
              "duration": 0.141667
            },
            {
              "pitch": 42,
              "velocity": 62,
              "position": 13.5,
              "duration": 0.15
            },
            {
              "pitch": 36,
              "velocity": 25,
              "position": 13.85,
              "duration": 0.141667
            },
            {
              "pitch": 38,
              "velocity": 80,
              "position": 14.0,
              "duration": 0.133333
            },
            {
              "pitch": 50,
              "velocity": 80,
              "position": 14.508333,
              "duration": 0.133333
            },
            {
              "pitch": 38,
              "velocity": 7,
              "position": 14.675,
              "duration": 0.125
            },
            {
              "pitch": 38,
              "velocity": 24,
              "position": 14.825,
              "duration": 0.158333
            },
            {
              "pitch": 38,
              "velocity": 11,
              "position": 15.008333,
              "duration": 0.125
            },
            {
              "pitch": 38,
              "velocity": 10,
              "position": 15.158333,
              "duration": 0.141667
            },
            {
              "pitch": 38,
              "velocity": 80,
              "position": 15.316667,
              "duration": 0.133333
            },
            {
              "pitch": 38,
              "velocity": 80,
              "position": 15.5,
              "duration": 0.133333
            },
            {
              "pitch": 38,
              "velocity": 39,
              "position": 15.8,
              "duration": 0.075
            }
          ]
        },
        "10": {
          "ctab": {
            "srcChannel": 10,
            "name": "Bass",
            "accType": "BASS",
            "editable": true,
            "mutedNotes": [],
            "mutedChords": [],
            "sourceChordNote": 0,
            "sourceChordType": "Maj7",
            "ctb2Main": {
              "ntr": "ROOT_TRANSPOSITION",
              "ntt": "BYPASS",
              "bassOn": true,
              "noteLowLimit": 20,
              "noteHighLimit": 60,
              "chordRootUpperLimit": 127,
              "rtr": "NOTE_GENERATOR"
            }
          },
          "notes": [
            {
              "pitch": 36,
              "velocity": 91,
              "position": 0.0,
              "duration": 1.016667
            },
            {
              "pitch": 31,
              "velocity": 69,
              "position": 1.491667,
              "duration": 0.466667
            },
            {
              "pitch": 36,
              "velocity": 80,
              "position": 2.008333,
              "duration": 1.575
            },
            {
              "pitch": 36,
              "velocity": 81,
              "position": 3.816667,
              "duration": 0.141667
            },
            {
              "pitch": 36,
              "velocity": 80,
              "position": 4.008333,
              "duration": 1.575
            },
            {
              "pitch": 36,
              "velocity": 81,
              "position": 5.816667,
              "duration": 0.141667
            },
            {
              "pitch": 36,
              "velocity": 80,
              "position": 6.008333,
              "duration": 1.575
            },
            {
              "pitch": 36,
              "velocity": 81,
              "position": 7.816667,
              "duration": 0.141667
            },
            {
              "pitch": 36,
              "velocity": 93,
              "position": 8.0,
              "duration": 0.433333
            },
            {
              "pitch": 31,
              "velocity": 71,
              "position": 9.491667,
              "duration": 0.508333
            },
            {
              "pitch": 36,
              "velocity": 89,
              "position": 10.0,
              "duration": 0.3
            },
            {
              "pitch": 31,
              "velocity": 71,
              "position": 11.5,
              "duration": 0.525
            },
            {
              "pitch": 36,
              "velocity": 87,
              "position": 12.008333,
              "duration": 0.291667
            },
            {
              "pitch": 36,
              "velocity": 92,
              "position": 13.791667,
              "duration": 0.808333
            },
            {
              "pitch": 31,
              "velocity": 71,
              "position": 14.508333,
              "duration": 0.216667
            },
            {
              "pitch": 31,
              "velocity": 82,
              "position": 15.008333,
              "duration": 0.475
            },
            {
              "pitch": 36,
              "velocity": 64,
              "position": 15.508333,
              "duration": 0.45
            }
          ]
        },
        "11": {
          "ctab": {
            "srcChannel": 11,
            "name": "Piano",
            "accType": "CHORD1",
            "editable": true,
            "mutedNotes": [],
            "mutedChords": [],
            "sourceChordNote": 0,
            "sourceChordType": "Maj7",
            "ctb2Main": {
              "ntr": "ROOT_FIXED",
              "ntt": "CHORD",
              "bassOn": false,
              "noteLowLimit": 48,
              "noteHighLimit": 84,
              "chordRootUpperLimit": 127,
              "rtr": "NOTE_GENERATOR"
            }
          },
          "notes": [
            {
              "pitch": 62,
              "velocity": 60,
              "position": 0.05,
              "duration": 1.908333
            },
            {
              "pitch": 64,
              "velocity": 64,
              "position": 0.05,
              "duration": 1.908333
            },
            {
              "pitch": 67,
              "velocity": 52,
              "position": 0.05,
              "duration": 1.908333
            },
            {
              "pitch": 59,
              "velocity": 43,
              "position": 0.058333,
              "duration": 1.9
            },
            {
              "pitch": 64,
              "velocity": 63,
              "position": 2.525,
              "duration": 0.791667
            },
            {
              "pitch": 67,
              "velocity": 66,
              "position": 2.525,
              "duration": 0.791667
            },
            {
              "pitch": 64,
              "velocity": 55,
              "position": 3.508333,
              "duration": 0.45
            },
            {
              "pitch": 67,
              "velocity": 59,
              "position": 3.525,
              "duration": 0.433333
            },
            {
              "pitch": 62,
              "velocity": 60,
              "position": 4.05,
              "duration": 1.908333
            },
            {
              "pitch": 64,
              "velocity": 64,
              "position": 4.05,
              "duration": 1.908333
            },
            {
              "pitch": 67,
              "velocity": 52,
              "position": 4.05,
              "duration": 1.908333
            },
            {
              "pitch": 59,
              "velocity": 43,
              "position": 4.058333,
              "duration": 1.9
            },
            {
              "pitch": 62,
              "velocity": 60,
              "position": 6.05,
              "duration": 1.908333
            },
            {
              "pitch": 64,
              "velocity": 64,
              "position": 6.05,
              "duration": 1.908333
            },
            {
              "pitch": 67,
              "velocity": 52,
              "position": 6.05,
              "duration": 1.908333
            },
            {
              "pitch": 59,
              "velocity": 43,
              "position": 6.058333,
              "duration": 1.9
            },
            {
              "pitch": 67,
              "velocity": 70,
              "position": 8.983333,
              "duration": 0.125
            },
            {
              "pitch": 64,
              "velocity": 65,
              "position": 8.991667,
              "duration": 0.141667
            },
            {
              "pitch": 71,
              "velocity": 67,
              "position": 8.991667,
              "duration": 0.15
            },
            {
              "pitch": 64,
              "velocity": 63,
              "position": 10.766667,
              "duration": 0.166667
            },
            {
              "pitch": 67,
              "velocity": 69,
              "position": 10.766667,
              "duration": 0.15
            },
            {
              "pitch": 71,
              "velocity": 62,
              "position": 10.775,
              "duration": 0.175
            },
            {
              "pitch": 62,
              "velocity": 66,
              "position": 13.0,
              "duration": 0.166667
            },
            {
              "pitch": 71,
              "velocity": 51,
              "position": 13.0,
              "duration": 0.216667
            },
            {
              "pitch": 64,
              "velocity": 58,
              "position": 13.008333,
              "duration": 0.166667
            },
            {
              "pitch": 59,
              "velocity": 51,
              "position": 14.491667,
              "duration": 1.158333
            },
            {
              "pitch": 62,
              "velocity": 58,
              "position": 15.008333,
              "duration": 0.566667
            },
            {
              "pitch": 67,
              "velocity": 44,
              "position": 15.5,
              "duration": 0.15
            }
          ]
        },
        "12": {
          "ctab": {
            "srcChannel": 12,
            "name": "Guitar",
            "accType": "CHORD2",
            "editable": true,
            "mutedNotes": [],
            "mutedChords": [],
            "sourceChordNote": 0,
            "sourceChordType": "Maj7",
            "ctb2Main": {
              "ntr": "ROOT_FIXED",
              "ntt": "CHORD",
              "bassOn": false,
              "noteLowLimit": 40,
              "noteHighLimit": 76,
              "chordRootUpperLimit": 127,
              "rtr": "NOTE_GENERATOR"
            }
          },
          "notes": [
            {
              "pitch": 64,
              "velocity": 62,
              "position": 1.0,
              "duration": 0.291667
            },
            {
              "pitch": 59,
              "velocity": 36,
              "position": 1.3,
              "duration": 0.208333
            },
            {
              "pitch": 55,
              "velocity": 43,
              "position": 1.5,
              "duration": 0.216667
            },
            {
              "pitch": 52,
              "velocity": 33,
              "position": 1.8,
              "duration": 0.141667
            },
            {
              "pitch": 67,
              "velocity": 62,
              "position": 5.0,
              "duration": 0.291667
            },
            {
              "pitch": 64,
              "velocity": 36,
              "position": 5.3,
              "duration": 0.208333
            },
            {
              "pitch": 59,
              "velocity": 43,
              "position": 5.5,
              "duration": 0.216667
            },
            {
              "pitch": 55,
              "velocity": 33,
              "position": 5.8,
              "duration": 0.141667
            },
            {
              "pitch": 67,
              "velocity": 62,
              "position": 9.0,
              "duration": 0.291667
            },
            {
              "pitch": 64,
              "velocity": 36,
              "position": 9.3,
              "duration": 0.208333
            },
            {
              "pitch": 59,
              "velocity": 43,
              "position": 9.5,
              "duration": 0.216667
            },
            {
              "pitch": 55,
              "velocity": 33,
              "position": 9.8,
              "duration": 0.141667
            },
            {
              "pitch": 64,
              "velocity": 68,
              "position": 13.0,
              "duration": 0.233333
            },
            {
              "pitch": 59,
              "velocity": 38,
              "position": 13.291667,
              "duration": 0.25
            },
            {
              "pitch": 55,
              "velocity": 41,
              "position": 13.5,
              "duration": 0.191667
            },
            {
              "pitch": 48,
              "velocity": 22,
              "position": 13.791667,
              "duration": 0.175
            }
          ]
        },
        "13": {
          "ctab": {
            "srcChannel": 13,
            "name": "Strings",
            "accType": "PAD",
            "editable": true,
            "mutedNotes": [],
            "mutedChords": [],
            "sourceChordNote": 0,
            "sourceChordType": "Maj7",
            "ctb2Main": {
              "ntr": "ROOT_FIXED",
              "ntt": "MELODY",
              "bassOn": false,
              "noteLowLimit": 36,
              "noteHighLimit": 96,
              "chordRootUpperLimit": 127,
              "rtr": "PITCH_SHIFT"
            }
          },
          "notes": [
            {
              "pitch": 55,
              "velocity": 42,
              "position": 0.0,
              "duration": 0.316667
            },
            {
              "pitch": 59,
              "velocity": 33,
              "position": 0.308333,
              "duration": 0.225
            },
            {
              "pitch": 60,
              "velocity": 47,
              "position": 0.508333,
              "duration": 0.308333
            },
            {
              "pitch": 64,
              "velocity": 57,
              "position": 0.8,
              "duration": 0.15
            },
            {
              "pitch": 55,
              "velocity": 45,
              "position": 1.483333,
              "duration": 0.291667
            },
            {
              "pitch": 59,
              "velocity": 36,
              "position": 1.808333,
              "duration": 0.15
            },
            {
              "pitch": 59,
              "velocity": 41,
              "position": 2.0,
              "duration": 0.316667
            },
            {
              "pitch": 60,
              "velocity": 32,
              "position": 2.308333,
              "duration": 0.225
            },
            {
              "pitch": 55,
              "velocity": 42,
              "position": 4.0,
              "duration": 0.316667
            },
            {
              "pitch": 59,
              "velocity": 33,
              "position": 4.308333,
              "duration": 0.225
            },
            {
              "pitch": 60,
              "velocity": 47,
              "position": 4.508333,
              "duration": 0.308333
            },
            {
              "pitch": 64,
              "velocity": 57,
              "position": 4.8,
              "duration": 0.15
            },
            {
              "pitch": 55,
              "velocity": 45,
              "position": 5.483333,
              "duration": 0.291667
            },
            {
              "pitch": 59,
              "velocity": 36,
              "position": 5.808333,
              "duration": 0.15
            },
            {
              "pitch": 59,
              "velocity": 41,
              "position": 6.0,
              "duration": 0.316667
            },
            {
              "pitch": 60,
              "velocity": 32,
              "position": 6.308333,
              "duration": 0.225
            },
            {
              "pitch": 55,
              "velocity": 41,
              "position": 8.0,
              "duration": 0.316667
            },
            {
              "pitch": 59,
              "velocity": 32,
              "position": 8.333333,
              "duration": 0.225
            },
            {
              "pitch": 60,
              "velocity": 46,
              "position": 8.491667,
              "duration": 0.308333
            },
            {
              "pitch": 64,
              "velocity": 56,
              "position": 8.8,
              "duration": 0.15
            },
            {
              "pitch": 55,
              "velocity": 44,
              "position": 9.483333,
              "duration": 0.291667
            },
            {
              "pitch": 59,
              "velocity": 35,
              "position": 9.808333,
              "duration": 0.225
            },
            {
              "pitch": 60,
              "velocity": 49,
              "position": 9.983333,
              "duration": 0.3
            },
            {
              "pitch": 64,
              "velocity": 55,
              "position": 10.308333,
              "duration": 0.225
            },
            {
              "pitch": 59,
              "velocity": 53,
              "position": 12.008333,
              "duration": 0.266667
            },
            {
              "pitch": 60,
              "velocity": 25,
              "position": 12.308333,
              "duration": 0.175
            },
            {
              "pitch": 64,
              "velocity": 53,
              "position": 12.5,
              "duration": 0.316667
            },
            {
              "pitch": 67,
              "velocity": 60,
              "position": 12.8,
              "duration": 0.166667
            },
            {
              "pitch": 59,
              "velocity": 55,
              "position": 13.508333,
              "duration": 0.266667
            },
            {
              "pitch": 60,
              "velocity": 44,
              "position": 13.841667,
              "duration": 0.183333
            },
            {
              "pitch": 64,
              "velocity": 47,
              "position": 14.016667,
              "duration": 0.333333
            },
            {
              "pitch": 67,
              "velocity": 53,
              "position": 14.3,
              "duration": 0.175
            },
            {
              "pitch": 64,
              "velocity": 53,
              "position": 15.008333,
              "duration": 0.158333
            },
            {
              "pitch": 67,
              "velocity": 53,
              "position": 15.508333,
              "duration": 0.158333
            }
          ]
        }
      }
    },
    "Main_C": {
      "type": "Main_C",
      "sizeInBeats": 16,
      "channels": {
        "9": {
          "ctab": {
            "srcChannel": 9,
            "name": "Drums",
            "accType": "RHYTHM",
            "editable": false,
            "mutedNotes": [],
            "mutedChords": [],
            "sourceChordNote": 0,
            "sourceChordType": "Maj",
            "ctb2Main": {
              "ntr": "ROOT_FIXED",
              "ntt": "BYPASS",
              "bassOn": false,
              "noteLowLimit": 20,
              "noteHighLimit": 127,
              "chordRootUpperLimit": 127,
              "rtr": "RETRIGGER"
            }
          },
          "notes": [
            {
              "pitch": 36,
              "velocity": 80,
              "position": 0.0,
              "duration": 0.166667
            },
            {
              "pitch": 44,
              "velocity": 36,
              "position": 0.0,
              "duration": 0.191667
            },
            {
              "pitch": 49,
              "velocity": 80,
              "position": 0.0,
              "duration": 0.158333
            },
            {
              "pitch": 42,
              "velocity": 31,
              "position": 0.5,
              "duration": 0.133333
            },
            {
              "pitch": 36,
              "velocity": 79,
              "position": 0.8,
              "duration": 0.083333
            },
            {
              "pitch": 38,
              "velocity": 80,
              "position": 0.983333,
              "duration": 0.158333
            },
            {
              "pitch": 42,
              "velocity": 80,
              "position": 0.991667,
              "duration": 0.141667
            },
            {
              "pitch": 36,
              "velocity": 80,
              "position": 1.5,
              "duration": 0.141667
            },
            {
              "pitch": 42,
              "velocity": 44,
              "position": 1.5,
              "duration": 0.133333
            },
            {
              "pitch": 42,
              "velocity": 80,
              "position": 1.991667,
              "duration": 0.125
            },
            {
              "pitch": 42,
              "velocity": 80,
              "position": 2.508333,
              "duration": 0.15
            },
            {
              "pitch": 38,
              "velocity": 80,
              "position": 3.0,
              "duration": 0.141667
            },
            {
              "pitch": 42,
              "velocity": 80,
              "position": 3.008333,
              "duration": 0.141667
            },
            {
              "pitch": 36,
              "velocity": 80,
              "position": 3.508333,
              "duration": 0.116667
            },
            {
              "pitch": 42,
              "velocity": 80,
              "position": 3.516667,
              "duration": 0.133333
            },
            {
              "pitch": 36,
              "velocity": 80,
              "position": 4.0,
              "duration": 0.133333
            },
            {
              "pitch": 42,
              "velocity": 70,
              "position": 4.008333,
              "duration": 0.125
            },
            {
              "pitch": 42,
              "velocity": 55,
              "position": 4.516667,
              "duration": 0.125
            },
            {
              "pitch": 38,
              "velocity": 80,
              "position": 5.008333,
              "duration": 0.15
            },
            {
              "pitch": 42,
              "velocity": 80,
              "position": 5.016667,
              "duration": 0.141667
            },
            {
              "pitch": 36,
              "velocity": 68,
              "position": 5.516667,
              "duration": 0.116667
            },
            {
              "pitch": 46,
              "velocity": 47,
              "position": 5.516667,
              "duration": 0.125
            },
            {
              "pitch": 44,
              "velocity": 44,
              "position": 6.016667,
              "duration": 0.166667
            },
            {
              "pitch": 36,
              "velocity": 80,
              "position": 6.025,
              "duration": 0.15
            },
            {
              "pitch": 42,
              "velocity": 26,
              "position": 6.033333,
              "duration": 0.141667
            },
            {
              "pitch": 42,
              "velocity": 50,
              "position": 6.516667,
              "duration": 0.15
            },
            {
              "pitch": 38,
              "velocity": 80,
              "position": 7.016667,
              "duration": 0.141667
            },
            {
              "pitch": 42,
              "velocity": 31,
              "position": 7.016667,
              "duration": 0.133333
            },
            {
              "pitch": 42,
              "velocity": 16,
              "position": 7.325,
              "duration": 0.15
            },
            {
              "pitch": 42,
              "velocity": 80,
              "position": 7.508333,
              "duration": 0.141667
            },
            {
              "pitch": 36,
              "velocity": 50,
              "position": 7.85,
              "duration": 0.15
            },
            {
              "pitch": 44,
              "velocity": 54,
              "position": 8.0,
              "duration": 0.133333
            },
            {
              "pitch": 36,
              "velocity": 80,
              "position": 8.008333,
              "duration": 0.125
            },
            {
              "pitch": 42,
              "velocity": 80,
              "position": 8.016667,
              "duration": 0.116667
            },
            {
              "pitch": 42,
              "velocity": 60,
              "position": 8.508333,
              "duration": 0.15
            },
            {
              "pitch": 38,
              "velocity": 80,
              "position": 9.008333,
              "duration": 0.141667
            },
            {
              "pitch": 42,
              "velocity": 80,
              "position": 9.008333,
              "duration": 0.133333
            },
            {
              "pitch": 42,
              "velocity": 5,
              "position": 9.316667,
              "duration": 0.141667
            },
            {
              "pitch": 36,
              "velocity": 80,
              "position": 9.5,
              "duration": 0.141667
            },
            {
              "pitch": 42,
              "velocity": 67,
              "position": 9.5,
              "duration": 0.133333
            },
            {
              "pitch": 42,
              "velocity": 80,
              "position": 10.0,
              "duration": 0.158333
            },
            {
              "pitch": 36,
              "velocity": 80,
              "position": 10.008333,
              "duration": 0.141667
            },
            {
              "pitch": 42,
              "velocity": 57,
              "position": 10.5,
              "duration": 0.133333
            },
            {
              "pitch": 38,
              "velocity": 80,
              "position": 11.0,
              "duration": 0.133333
            },
            {
              "pitch": 42,
              "velocity": 80,
              "position": 11.0,
              "duration": 0.116667
            },
            {
              "pitch": 36,
              "velocity": 71,
              "position": 11.491667,
              "duration": 0.15
            },
            {
              "pitch": 42,
              "velocity": 63,
              "position": 11.5,
              "duration": 0.133333
            },
            {
              "pitch": 38,
              "velocity": 80,
              "position": 12.0,
              "duration": 0.141667
            },
            {
              "pitch": 36,
              "velocity": 68,
              "position": 12.316667,
              "duration": 0.133333
            },
            {
              "pitch": 36,
              "velocity": 47,
              "position": 12.808333,
              "duration": 0.133333
            },
            {
              "pitch": 36,
              "velocity": 80,
              "position": 12.991667,
              "duration": 0.15
            },
            {
              "pitch": 38,
              "velocity": 80,
              "position": 13.3,
              "duration": 0.141667
            },
            {
              "pitch": 42,
              "velocity": 62,
              "position": 13.5,
              "duration": 0.15
            },
            {
              "pitch": 36,
              "velocity": 25,
              "position": 13.85,
              "duration": 0.141667
            },
            {
              "pitch": 38,
              "velocity": 80,
              "position": 14.0,
              "duration": 0.133333
            },
            {
              "pitch": 50,
              "velocity": 80,
              "position": 14.508333,
              "duration": 0.133333
            },
            {
              "pitch": 38,
              "velocity": 7,
              "position": 14.675,
              "duration": 0.125
            },
            {
              "pitch": 38,
              "velocity": 24,
              "position": 14.825,
              "duration": 0.158333
            },
            {
              "pitch": 38,
              "velocity": 11,
              "position": 15.008333,
              "duration": 0.125
            },
            {
              "pitch": 38,
              "velocity": 10,
              "position": 15.158333,
              "duration": 0.141667
            },
            {
              "pitch": 38,
              "velocity": 80,
              "position": 15.316667,
              "duration": 0.133333
            },
            {
              "pitch": 38,
              "velocity": 80,
              "position": 15.5,
              "duration": 0.133333
            },
            {
              "pitch": 38,
              "velocity": 39,
              "position": 15.8,
              "duration": 0.075
            }
          ]
        },
        "10": {
          "ctab": {
            "srcChannel": 10,
            "name": "Bass",
            "accType": "BASS",
            "editable": true,
            "mutedNotes": [],
            "mutedChords": [],
            "sourceChordNote": 0,
            "sourceChordType": "Maj7",
            "ctb2Main": {
              "ntr": "ROOT_TRANSPOSITION",
              "ntt": "BYPASS",
              "bassOn": true,
              "noteLowLimit": 20,
              "noteHighLimit": 60,
              "chordRootUpperLimit": 127,
              "rtr": "NOTE_GENERATOR"
            }
          },
          "notes": [
            {
              "pitch": 36,
              "velocity": 91,
              "position": 0.0,
              "duration": 1.016667
            },
            {
              "pitch": 31,
              "velocity": 69,
              "position": 1.491667,
              "duration": 0.466667
            },
            {
              "pitch": 36,
              "velocity": 80,
              "position": 2.008333,
              "duration": 1.575
            },
            {
              "pitch": 36,
              "velocity": 81,
              "position": 3.816667,
              "duration": 0.141667
            },
            {
              "pitch": 36,
              "velocity": 80,
              "position": 4.008333,
              "duration": 1.575
            },
            {
              "pitch": 36,
              "velocity": 81,
              "position": 5.816667,
              "duration": 0.141667
            },
            {
              "pitch": 36,
              "velocity": 80,
              "position": 6.008333,
              "duration": 1.575
            },
            {
              "pitch": 36,
              "velocity": 81,
              "position": 7.816667,
              "duration": 0.141667
            },
            {
              "pitch": 36,
              "velocity": 82,
              "position": 8.008333,
              "duration": 1.15
            },
            {
              "pitch": 31,
              "velocity": 74,
              "position": 9.5,
              "duration": 0.516667
            },
            {
              "pitch": 36,
              "velocity": 82,
              "position": 10.0,
              "duration": 1.016667
            },
            {
              "pitch": 31,
              "velocity": 80,
              "position": 11.491667,
              "duration": 0.508333
            },
            {
              "pitch": 36,
              "velocity": 82,
              "position": 11.991667,
              "duration": 1.4
            },
            {
              "pitch": 48,
              "velocity": 86,
              "position": 13.775,
              "duration": 0.791667
            },
            {
              "pitch": 36,
              "velocity": 74,
              "position": 14.483333,
              "duration": 0.141667
            },
            {
              "pitch": 36,
              "velocity": 85,
              "position": 15.0,
              "duration": 0.4
            },
            {
              "pitch": 48,
              "velocity": 83,
              "position": 15.5,
              "duration": 0.458333
            }
          ]
        },
        "11": {
          "ctab": {
            "srcChannel": 11,
            "name": "Piano",
            "accType": "CHORD1",
            "editable": true,
            "mutedNotes": [],
            "mutedChords": [],
            "sourceChordNote": 0,
            "sourceChordType": "Maj7",
            "ctb2Main": {
              "ntr": "ROOT_FIXED",
              "ntt": "CHORD",
              "bassOn": false,
              "noteLowLimit": 48,
              "noteHighLimit": 84,
              "chordRootUpperLimit": 127,
              "rtr": "NOTE_GENERATOR"
            }
          },
          "notes": [
            {
              "pitch": 62,
              "velocity": 60,
              "position": 0.05,
              "duration": 1.908333
            },
            {
              "pitch": 64,
              "velocity": 64,
              "position": 0.05,
              "duration": 1.908333
            },
            {
              "pitch": 67,
              "velocity": 52,
              "position": 0.05,
              "duration": 1.908333
            },
            {
              "pitch": 59,
              "velocity": 43,
              "position": 0.058333,
              "duration": 1.9
            },
            {
              "pitch": 64,
              "velocity": 63,
              "position": 2.525,
              "duration": 0.791667
            },
            {
              "pitch": 67,
              "velocity": 66,
              "position": 2.525,
              "duration": 0.791667
            },
            {
              "pitch": 64,
              "velocity": 55,
              "position": 3.508333,
              "duration": 0.45
            },
            {
              "pitch": 67,
              "velocity": 59,
              "position": 3.525,
              "duration": 0.433333
            },
            {
              "pitch": 62,
              "velocity": 60,
              "position": 4.05,
              "duration": 1.908333
            },
            {
              "pitch": 64,
              "velocity": 64,
              "position": 4.05,
              "duration": 1.908333
            },
            {
              "pitch": 67,
              "velocity": 52,
              "position": 4.05,
              "duration": 1.908333
            },
            {
              "pitch": 59,
              "velocity": 43,
              "position": 4.058333,
              "duration": 1.9
            },
            {
              "pitch": 62,
              "velocity": 60,
              "position": 6.05,
              "duration": 1.908333
            },
            {
              "pitch": 64,
              "velocity": 64,
              "position": 6.05,
              "duration": 1.908333
            },
            {
              "pitch": 67,
              "velocity": 52,
              "position": 6.05,
              "duration": 1.908333
            },
            {
              "pitch": 59,
              "velocity": 43,
              "position": 6.058333,
              "duration": 1.9
            },
            {
              "pitch": 59,
              "velocity": 77,
              "position": 8.991667,
              "duration": 0.125
            },
            {
              "pitch": 62,
              "velocity": 76,
              "position": 8.991667,
              "duration": 0.108333
            },
            {
              "pitch": 64,
              "velocity": 69,
              "position": 8.991667,
              "duration": 0.158333
            },
            {
              "pitch": 67,
              "velocity": 63,
              "position": 8.991667,
              "duration": 0.166667
            },
            {
              "pitch": 79,
              "velocity": 80,
              "position": 10.8,
              "duration": 0.133333
            },
            {
              "pitch": 64,
              "velocity": 69,
              "position": 10.808333,
              "duration": 0.158333
            },
            {
              "pitch": 71,
              "velocity": 70,
              "position": 10.808333,
              "duration": 0.133333
            },
            {
              "pitch": 74,
              "velocity": 77,
              "position": 10.808333,
              "duration": 0.108333
            },
            {
              "pitch": 64,
              "velocity": 77,
              "position": 12.983333,
              "duration": 0.233333
            },
            {
              "pitch": 62,
              "velocity": 64,
              "position": 12.991667,
              "duration": 0.25
            },
            {
              "pitch": 71,
              "velocity": 67,
              "position": 12.991667,
              "duration": 0.266667
            },
            {
              "pitch": 55,
              "velocity": 32,
              "position": 13.033333,
              "duration": 0.183333
            },
            {
              "pitch": 55,
              "velocity": 48,
              "position": 13.8,
              "duration": 0.108333
            },
            {
              "pitch": 64,
              "velocity": 57,
              "position": 13.975,
              "duration": 0.2
            },
            {
              "pitch": 62,
              "velocity": 43,
              "position": 13.983333,
              "duration": 0.466667
            },
            {
              "pitch": 71,
              "velocity": 48,
              "position": 13.983333,
              "duration": 0.466667
            },
            {
              "pitch": 64,
              "velocity": 30,
              "position": 14.266667,
              "duration": 0.15
            },
            {
              "pitch": 64,
              "velocity": 64,
              "position": 14.791667,
              "duration": 0.116667
            },
            {
              "pitch": 71,
              "velocity": 58,
              "position": 14.791667,
              "duration": 0.141667
            },
            {
              "pitch": 62,
              "velocity": 55,
              "position": 14.8,
              "duration": 0.133333
            },
            {
              "pitch": 55,
              "velocity": 54,
              "position": 15.283333,
              "duration": 0.116667
            },
            {
              "pitch": 67,
              "velocity": 58,
              "position": 15.466667,
              "duration": 0.241667
            }
          ]
        },
        "12": {
          "ctab": {
            "srcChannel": 12,
            "name": "Guitar",
            "accType": "CHORD2",
            "editable": true,
            "mutedNotes": [],
            "mutedChords": [],
            "sourceChordNote": 0,
            "sourceChordType": "Maj7",
            "ctb2Main": {
              "ntr": "ROOT_FIXED",
              "ntt": "CHORD",
              "bassOn": false,
              "noteLowLimit": 40,
              "noteHighLimit": 76,
              "chordRootUpperLimit": 127,
              "rtr": "NOTE_GENERATOR"
            }
          },
          "notes": [
            {
              "pitch": 67,
              "velocity": 62,
              "position": 1.0,
              "duration": 0.291667
            },
            {
              "pitch": 64,
              "velocity": 36,
              "position": 1.3,
              "duration": 0.208333
            },
            {
              "pitch": 59,
              "velocity": 43,
              "position": 1.5,
              "duration": 0.216667
            },
            {
              "pitch": 55,
              "velocity": 33,
              "position": 1.8,
              "duration": 0.141667
            },
            {
              "pitch": 64,
              "velocity": 62,
              "position": 5.0,
              "duration": 0.291667
            },
            {
              "pitch": 59,
              "velocity": 36,
              "position": 5.3,
              "duration": 0.208333
            },
            {
              "pitch": 55,
              "velocity": 43,
              "position": 5.5,
              "duration": 0.216667
            },
            {
              "pitch": 52,
              "velocity": 33,
              "position": 5.8,
              "duration": 0.141667
            },
            {
              "pitch": 64,
              "velocity": 62,
              "position": 9.0,
              "duration": 0.291667
            },
            {
              "pitch": 59,
              "velocity": 36,
              "position": 9.3,
              "duration": 0.208333
            },
            {
              "pitch": 55,
              "velocity": 43,
              "position": 9.5,
              "duration": 0.216667
            },
            {
              "pitch": 52,
              "velocity": 33,
              "position": 9.8,
              "duration": 0.141667
            },
            {
              "pitch": 59,
              "velocity": 68,
              "position": 13.0,
              "duration": 0.233333
            },
            {
              "pitch": 55,
              "velocity": 38,
              "position": 13.291667,
              "duration": 0.25
            },
            {
              "pitch": 52,
              "velocity": 41,
              "position": 13.5,
              "duration": 0.191667
            },
            {
              "pitch": 43,
              "velocity": 21,
              "position": 13.791667,
              "duration": 0.175
            }
          ]
        },
        "13": {
          "ctab": {
            "srcChannel": 13,
            "name": "Strings",
            "accType": "PAD",
            "editable": true,
            "mutedNotes": [],
            "mutedChords": [],
            "sourceChordNote": 0,
            "sourceChordType": "Maj7",
            "ctb2Main": {
              "ntr": "ROOT_FIXED",
              "ntt": "MELODY",
              "bassOn": false,
              "noteLowLimit": 36,
              "noteHighLimit": 96,
              "chordRootUpperLimit": 127,
              "rtr": "PITCH_SHIFT"
            }
          },
          "notes": [
            {
              "pitch": 55,
              "velocity": 42,
              "position": 0.0,
              "duration": 0.316667
            },
            {
              "pitch": 59,
              "velocity": 33,
              "position": 0.308333,
              "duration": 0.225
            },
            {
              "pitch": 60,
              "velocity": 47,
              "position": 0.508333,
              "duration": 0.308333
            },
            {
              "pitch": 64,
              "velocity": 57,
              "position": 0.8,
              "duration": 0.15
            },
            {
              "pitch": 55,
              "velocity": 45,
              "position": 1.483333,
              "duration": 0.291667
            },
            {
              "pitch": 59,
              "velocity": 36,
              "position": 1.808333,
              "duration": 0.15
            },
            {
              "pitch": 59,
              "velocity": 41,
              "position": 2.0,
              "duration": 0.316667
            },
            {
              "pitch": 60,
              "velocity": 32,
              "position": 2.308333,
              "duration": 0.225
            },
            {
              "pitch": 55,
              "velocity": 42,
              "position": 4.0,
              "duration": 0.316667
            },
            {
              "pitch": 59,
              "velocity": 33,
              "position": 4.308333,
              "duration": 0.225
            },
            {
              "pitch": 60,
              "velocity": 47,
              "position": 4.508333,
              "duration": 0.308333
            },
            {
              "pitch": 64,
              "velocity": 57,
              "position": 4.8,
              "duration": 0.15
            },
            {
              "pitch": 55,
              "velocity": 45,
              "position": 5.483333,
              "duration": 0.291667
            },
            {
              "pitch": 59,
              "velocity": 36,
              "position": 5.808333,
              "duration": 0.15
            },
            {
              "pitch": 59,
              "velocity": 41,
              "position": 6.0,
              "duration": 0.316667
            },
            {
              "pitch": 60,
              "velocity": 32,
              "position": 6.308333,
              "duration": 0.225
            },
            {
              "pitch": 55,
              "velocity": 41,
              "position": 8.0,
              "duration": 0.316667
            },
            {
              "pitch": 59,
              "velocity": 32,
              "position": 8.333333,
              "duration": 0.225
            },
            {
              "pitch": 60,
              "velocity": 46,
              "position": 8.491667,
              "duration": 0.308333
            },
            {
              "pitch": 64,
              "velocity": 56,
              "position": 8.8,
              "duration": 0.15
            },
            {
              "pitch": 55,
              "velocity": 44,
              "position": 9.483333,
              "duration": 0.291667
            },
            {
              "pitch": 59,
              "velocity": 35,
              "position": 9.808333,
              "duration": 0.225
            },
            {
              "pitch": 60,
              "velocity": 49,
              "position": 9.983333,
              "duration": 0.3
            },
            {
              "pitch": 64,
              "velocity": 55,
              "position": 10.308333,
              "duration": 0.225
            },
            {
              "pitch": 59,
              "velocity": 53,
              "position": 12.008333,
              "duration": 0.266667
            },
            {
              "pitch": 60,
              "velocity": 25,
              "position": 12.308333,
              "duration": 0.175
            },
            {
              "pitch": 64,
              "velocity": 53,
              "position": 12.5,
              "duration": 0.316667
            },
            {
              "pitch": 67,
              "velocity": 60,
              "position": 12.8,
              "duration": 0.166667
            },
            {
              "pitch": 59,
              "velocity": 55,
              "position": 13.508333,
              "duration": 0.266667
            },
            {
              "pitch": 60,
              "velocity": 44,
              "position": 13.841667,
              "duration": 0.183333
            },
            {
              "pitch": 64,
              "velocity": 47,
              "position": 14.016667,
              "duration": 0.333333
            },
            {
              "pitch": 67,
              "velocity": 53,
              "position": 14.3,
              "duration": 0.175
            },
            {
              "pitch": 64,
              "velocity": 53,
              "position": 15.008333,
              "duration": 0.158333
            },
            {
              "pitch": 67,
              "velocity": 53,
              "position": 15.508333,
              "duration": 0.158333
            }
          ]
        }
      }
    },
    "Main_D": {
      "type": "Main_D",
      "sizeInBeats": 16,
      "channels": {
        "9": {
          "ctab": {
            "srcChannel": 9,
            "name": "Drums",
            "accType": "RHYTHM",
            "editable": false,
            "mutedNotes": [],
            "mutedChords": [],
            "sourceChordNote": 0,
            "sourceChordType": "Maj",
            "ctb2Main": {
              "ntr": "ROOT_FIXED",
              "ntt": "BYPASS",
              "bassOn": false,
              "noteLowLimit": 20,
              "noteHighLimit": 127,
              "chordRootUpperLimit": 127,
              "rtr": "RETRIGGER"
            }
          },
          "notes": [
            {
              "pitch": 36,
              "velocity": 80,
              "position": 0.0,
              "duration": 0.166667
            },
            {
              "pitch": 44,
              "velocity": 36,
              "position": 0.0,
              "duration": 0.191667
            },
            {
              "pitch": 49,
              "velocity": 80,
              "position": 0.0,
              "duration": 0.158333
            },
            {
              "pitch": 42,
              "velocity": 31,
              "position": 0.5,
              "duration": 0.133333
            },
            {
              "pitch": 36,
              "velocity": 79,
              "position": 0.8,
              "duration": 0.083333
            },
            {
              "pitch": 38,
              "velocity": 80,
              "position": 0.983333,
              "duration": 0.158333
            },
            {
              "pitch": 42,
              "velocity": 80,
              "position": 0.991667,
              "duration": 0.141667
            },
            {
              "pitch": 36,
              "velocity": 80,
              "position": 1.5,
              "duration": 0.141667
            },
            {
              "pitch": 42,
              "velocity": 44,
              "position": 1.5,
              "duration": 0.133333
            },
            {
              "pitch": 42,
              "velocity": 80,
              "position": 1.991667,
              "duration": 0.125
            },
            {
              "pitch": 42,
              "velocity": 80,
              "position": 2.508333,
              "duration": 0.15
            },
            {
              "pitch": 38,
              "velocity": 80,
              "position": 3.0,
              "duration": 0.141667
            },
            {
              "pitch": 42,
              "velocity": 80,
              "position": 3.008333,
              "duration": 0.141667
            },
            {
              "pitch": 36,
              "velocity": 80,
              "position": 3.508333,
              "duration": 0.116667
            },
            {
              "pitch": 42,
              "velocity": 80,
              "position": 3.516667,
              "duration": 0.133333
            },
            {
              "pitch": 36,
              "velocity": 80,
              "position": 4.0,
              "duration": 0.133333
            },
            {
              "pitch": 42,
              "velocity": 70,
              "position": 4.008333,
              "duration": 0.125
            },
            {
              "pitch": 42,
              "velocity": 55,
              "position": 4.516667,
              "duration": 0.125
            },
            {
              "pitch": 38,
              "velocity": 80,
              "position": 5.008333,
              "duration": 0.15
            },
            {
              "pitch": 42,
              "velocity": 80,
              "position": 5.016667,
              "duration": 0.141667
            },
            {
              "pitch": 36,
              "velocity": 68,
              "position": 5.516667,
              "duration": 0.116667
            },
            {
              "pitch": 46,
              "velocity": 47,
              "position": 5.516667,
              "duration": 0.125
            },
            {
              "pitch": 44,
              "velocity": 44,
              "position": 6.016667,
              "duration": 0.166667
            },
            {
              "pitch": 36,
              "velocity": 80,
              "position": 6.025,
              "duration": 0.15
            },
            {
              "pitch": 42,
              "velocity": 26,
              "position": 6.033333,
              "duration": 0.141667
            },
            {
              "pitch": 42,
              "velocity": 50,
              "position": 6.516667,
              "duration": 0.15
            },
            {
              "pitch": 38,
              "velocity": 80,
              "position": 7.016667,
              "duration": 0.141667
            },
            {
              "pitch": 42,
              "velocity": 31,
              "position": 7.016667,
              "duration": 0.133333
            },
            {
              "pitch": 42,
              "velocity": 16,
              "position": 7.325,
              "duration": 0.15
            },
            {
              "pitch": 42,
              "velocity": 80,
              "position": 7.508333,
              "duration": 0.141667
            },
            {
              "pitch": 36,
              "velocity": 50,
              "position": 7.85,
              "duration": 0.15
            },
            {
              "pitch": 44,
              "velocity": 54,
              "position": 8.0,
              "duration": 0.133333
            },
            {
              "pitch": 36,
              "velocity": 80,
              "position": 8.008333,
              "duration": 0.125
            },
            {
              "pitch": 42,
              "velocity": 80,
              "position": 8.016667,
              "duration": 0.116667
            },
            {
              "pitch": 42,
              "velocity": 60,
              "position": 8.508333,
              "duration": 0.15
            },
            {
              "pitch": 38,
              "velocity": 80,
              "position": 9.008333,
              "duration": 0.141667
            },
            {
              "pitch": 42,
              "velocity": 80,
              "position": 9.008333,
              "duration": 0.133333
            },
            {
              "pitch": 42,
              "velocity": 5,
              "position": 9.316667,
              "duration": 0.141667
            },
            {
              "pitch": 36,
              "velocity": 80,
              "position": 9.5,
              "duration": 0.141667
            },
            {
              "pitch": 42,
              "velocity": 67,
              "position": 9.5,
              "duration": 0.133333
            },
            {
              "pitch": 42,
              "velocity": 80,
              "position": 10.0,
              "duration": 0.158333
            },
            {
              "pitch": 36,
              "velocity": 80,
              "position": 10.008333,
              "duration": 0.141667
            },
            {
              "pitch": 42,
              "velocity": 57,
              "position": 10.5,
              "duration": 0.133333
            },
            {
              "pitch": 38,
              "velocity": 80,
              "position": 11.0,
              "duration": 0.133333
            },
            {
              "pitch": 42,
              "velocity": 80,
              "position": 11.0,
              "duration": 0.116667
            },
            {
              "pitch": 36,
              "velocity": 71,
              "position": 11.491667,
              "duration": 0.15
            },
            {
              "pitch": 42,
              "velocity": 63,
              "position": 11.5,
              "duration": 0.133333
            },
            {
              "pitch": 38,
              "velocity": 80,
              "position": 12.0,
              "duration": 0.141667
            },
            {
              "pitch": 36,
              "velocity": 68,
              "position": 12.316667,
              "duration": 0.133333
            },
            {
              "pitch": 36,
              "velocity": 47,
              "position": 12.808333,
              "duration": 0.133333
            },
            {
              "pitch": 36,
              "velocity": 80,
              "position": 12.991667,
              "duration": 0.15
            },
            {
              "pitch": 38,
              "velocity": 80,
              "position": 13.3,
              "duration": 0.141667
            },
            {
              "pitch": 42,
              "velocity": 62,
              "position": 13.5,
              "duration": 0.15
            },
            {
              "pitch": 36,
              "velocity": 25,
              "position": 13.85,
              "duration": 0.141667
            },
            {
              "pitch": 38,
              "velocity": 80,
              "position": 14.0,
              "duration": 0.133333
            },
            {
              "pitch": 50,
              "velocity": 80,
              "position": 14.508333,
              "duration": 0.133333
            },
            {
              "pitch": 38,
              "velocity": 7,
              "position": 14.675,
              "duration": 0.125
            },
            {
              "pitch": 38,
              "velocity": 24,
              "position": 14.825,
              "duration": 0.158333
            },
            {
              "pitch": 38,
              "velocity": 11,
              "position": 15.008333,
              "duration": 0.125
            },
            {
              "pitch": 38,
              "velocity": 10,
              "position": 15.158333,
              "duration": 0.141667
            },
            {
              "pitch": 38,
              "velocity": 80,
              "position": 15.316667,
              "duration": 0.133333
            },
            {
              "pitch": 38,
              "velocity": 80,
              "position": 15.5,
              "duration": 0.133333
            },
            {
              "pitch": 38,
              "velocity": 39,
              "position": 15.8,
              "duration": 0.075
            }
          ]
        },
        "10": {
          "ctab": {
            "srcChannel": 10,
            "name": "Bass",
            "accType": "BASS",
            "editable": true,
            "mutedNotes": [],
            "mutedChords": [],
            "sourceChordNote": 0,
            "sourceChordType": "Maj7",
            "ctb2Main": {
              "ntr": "ROOT_TRANSPOSITION",
              "ntt": "BYPASS",
              "bassOn": true,
              "noteLowLimit": 20,
              "noteHighLimit": 60,
              "chordRootUpperLimit": 127,
              "rtr": "NOTE_GENERATOR"
            }
          },
          "notes": [
            {
              "pitch": 36,
              "velocity": 91,
              "position": 0.0,
              "duration": 1.016667
            },
            {
              "pitch": 31,
              "velocity": 69,
              "position": 1.491667,
              "duration": 0.466667
            },
            {
              "pitch": 36,
              "velocity": 80,
              "position": 2.008333,
              "duration": 1.575
            },
            {
              "pitch": 36,
              "velocity": 81,
              "position": 3.816667,
              "duration": 0.141667
            },
            {
              "pitch": 36,
              "velocity": 80,
              "position": 4.008333,
              "duration": 1.575
            },
            {
              "pitch": 36,
              "velocity": 81,
              "position": 5.816667,
              "duration": 0.141667
            },
            {
              "pitch": 36,
              "velocity": 80,
              "position": 6.008333,
              "duration": 1.575
            },
            {
              "pitch": 36,
              "velocity": 81,
              "position": 7.816667,
              "duration": 0.141667
            },
            {
              "pitch": 36,
              "velocity": 95,
              "position": 8.0,
              "duration": 1.233333
            },
            {
              "pitch": 31,
              "velocity": 76,
              "position": 9.508333,
              "duration": 0.491667
            },
            {
              "pitch": 36,
              "velocity": 90,
              "position": 9.991667,
              "duration": 1.258333
            },
            {
              "pitch": 31,
              "velocity": 86,
              "position": 11.5,
              "duration": 0.541667
            },
            {
              "pitch": 36,
              "velocity": 81,
              "position": 12.016667,
              "duration": 1.625
            },
            {
              "pitch": 48,
              "velocity": 79,
              "position": 13.825,
              "duration": 0.75
            },
            {
              "pitch": 43,
              "velocity": 79,
              "position": 14.516667,
              "duration": 0.483333
            },
            {
              "pitch": 36,
              "velocity": 74,
              "position": 15.008333,
              "duration": 0.491667
            },
            {
              "pitch": 43,
              "velocity": 68,
              "position": 15.525,
              "duration": 0.433333
            }
          ]
        },
        "11": {
          "ctab": {
            "srcChannel": 11,
            "name": "Piano",
            "accType": "CHORD1",
            "editable": true,
            "mutedNotes": [],
            "mutedChords": [],
            "sourceChordNote": 0,
            "sourceChordType": "Maj7",
            "ctb2Main": {
              "ntr": "ROOT_FIXED",
              "ntt": "CHORD",
              "bassOn": false,
              "noteLowLimit": 48,
              "noteHighLimit": 84,
              "chordRootUpperLimit": 127,
              "rtr": "NOTE_GENERATOR"
            }
          },
          "notes": [
            {
              "pitch": 62,
              "velocity": 60,
              "position": 0.05,
              "duration": 1.908333
            },
            {
              "pitch": 64,
              "velocity": 64,
              "position": 0.05,
              "duration": 1.908333
            },
            {
              "pitch": 67,
              "velocity": 52,
              "position": 0.05,
              "duration": 1.908333
            },
            {
              "pitch": 59,
              "velocity": 43,
              "position": 0.058333,
              "duration": 1.9
            },
            {
              "pitch": 64,
              "velocity": 63,
              "position": 2.525,
              "duration": 0.791667
            },
            {
              "pitch": 67,
              "velocity": 66,
              "position": 2.525,
              "duration": 0.791667
            },
            {
              "pitch": 64,
              "velocity": 55,
              "position": 3.508333,
              "duration": 0.45
            },
            {
              "pitch": 67,
              "velocity": 59,
              "position": 3.525,
              "duration": 0.433333
            },
            {
              "pitch": 64,
              "velocity": 63,
              "position": 4.525,
              "duration": 0.791667
            },
            {
              "pitch": 67,
              "velocity": 66,
              "position": 4.525,
              "duration": 0.791667
            },
            {
              "pitch": 64,
              "velocity": 55,
              "position": 5.508333,
              "duration": 0.45
            },
            {
              "pitch": 67,
              "velocity": 59,
              "position": 5.525,
              "duration": 0.433333
            },
            {
              "pitch": 62,
              "velocity": 60,
              "position": 6.05,
              "duration": 1.908333
            },
            {
              "pitch": 64,
              "velocity": 64,
              "position": 6.05,
              "duration": 1.908333
            },
            {
              "pitch": 67,
              "velocity": 52,
              "position": 6.05,
              "duration": 1.908333
            },
            {
              "pitch": 59,
              "velocity": 43,
              "position": 6.058333,
              "duration": 1.9
            },
            {
              "pitch": 64,
              "velocity": 71,
              "position": 9.025,
              "duration": 0.141667
            },
            {
              "pitch": 59,
              "velocity": 62,
              "position": 9.033333,
              "duration": 0.15
            },
            {
              "pitch": 62,
              "velocity": 69,
              "position": 9.033333,
              "duration": 0.125
            },
            {
              "pitch": 67,
              "velocity": 72,
              "position": 9.033333,
              "duration": 0.166667
            },
            {
              "pitch": 59,
              "velocity": 66,
              "position": 10.766667,
              "duration": 0.158333
            },
            {
              "pitch": 62,
              "velocity": 69,
              "position": 10.766667,
              "duration": 0.133333
            },
            {
              "pitch": 64,
              "velocity": 65,
              "position": 10.766667,
              "duration": 0.15
            },
            {
              "pitch": 67,
              "velocity": 66,
              "position": 10.775,
              "duration": 0.175
            },
            {
              "pitch": 64,
              "velocity": 60,
              "position": 12.95,
              "duration": 0.125
            },
            {
              "pitch": 59,
              "velocity": 51,
              "position": 12.966667,
              "duration": 0.116667
            },
            {
              "pitch": 67,
              "velocity": 56,
              "position": 12.966667,
              "duration": 0.125
            },
            {
              "pitch": 59,
              "velocity": 64,
              "position": 13.475,
              "duration": 0.508333
            },
            {
              "pitch": 64,
              "velocity": 67,
              "position": 13.475,
              "duration": 0.491667
            },
            {
              "pitch": 67,
              "velocity": 70,
              "position": 13.475,
              "duration": 0.408333
            },
            {
              "pitch": 62,
              "velocity": 34,
              "position": 13.983333,
              "duration": 0.125
            },
            {
              "pitch": 64,
              "velocity": 45,
              "position": 13.991667,
              "duration": 0.125
            },
            {
              "pitch": 62,
              "velocity": 73,
              "position": 14.458333,
              "duration": 0.508333
            },
            {
              "pitch": 64,
              "velocity": 72,
              "position": 14.458333,
              "duration": 0.508333
            },
            {
              "pitch": 59,
              "velocity": 51,
              "position": 15.008333,
              "duration": 0.15
            },
            {
              "pitch": 62,
              "velocity": 39,
              "position": 15.008333,
              "duration": 0.158333
            },
            {
              "pitch": 64,
              "velocity": 42,
              "position": 15.008333,
              "duration": 0.166667
            }
          ]
        },
        "12": {
          "ctab": {
            "srcChannel": 12,
            "name": "Guitar",
            "accType": "CHORD2",
            "editable": true,
            "mutedNotes": [],
            "mutedChords": [],
            "sourceChordNote": 0,
            "sourceChordType": "Maj7",
            "ctb2Main": {
              "ntr": "ROOT_FIXED",
              "ntt": "CHORD",
              "bassOn": false,
              "noteLowLimit": 40,
              "noteHighLimit": 76,
              "chordRootUpperLimit": 127,
              "rtr": "NOTE_GENERATOR"
            }
          },
          "notes": [
            {
              "pitch": 67,
              "velocity": 62,
              "position": 1.0,
              "duration": 0.291667
            },
            {
              "pitch": 64,
              "velocity": 36,
              "position": 1.3,
              "duration": 0.208333
            },
            {
              "pitch": 59,
              "velocity": 43,
              "position": 1.5,
              "duration": 0.216667
            },
            {
              "pitch": 55,
              "velocity": 33,
              "position": 1.8,
              "duration": 0.141667
            },
            {
              "pitch": 64,
              "velocity": 62,
              "position": 5.0,
              "duration": 0.291667
            },
            {
              "pitch": 59,
              "velocity": 36,
              "position": 5.3,
              "duration": 0.208333
            },
            {
              "pitch": 55,
              "velocity": 43,
              "position": 5.5,
              "duration": 0.216667
            },
            {
              "pitch": 52,
              "velocity": 33,
              "position": 5.8,
              "duration": 0.141667
            },
            {
              "pitch": 64,
              "velocity": 62,
              "position": 9.0,
              "duration": 0.291667
            },
            {
              "pitch": 59,
              "velocity": 36,
              "position": 9.3,
              "duration": 0.208333
            },
            {
              "pitch": 55,
              "velocity": 43,
              "position": 9.5,
              "duration": 0.216667
            },
            {
              "pitch": 52,
              "velocity": 33,
              "position": 9.8,
              "duration": 0.141667
            },
            {
              "pitch": 59,
              "velocity": 68,
              "position": 13.0,
              "duration": 0.233333
            },
            {
              "pitch": 55,
              "velocity": 38,
              "position": 13.291667,
              "duration": 0.25
            },
            {
              "pitch": 52,
              "velocity": 41,
              "position": 13.5,
              "duration": 0.191667
            },
            {
              "pitch": 43,
              "velocity": 21,
              "position": 13.791667,
              "duration": 0.175
            }
          ]
        },
        "13": {
          "ctab": {
            "srcChannel": 13,
            "name": "Strings",
            "accType": "PAD",
            "editable": true,
            "mutedNotes": [],
            "mutedChords": [],
            "sourceChordNote": 0,
            "sourceChordType": "Maj7",
            "ctb2Main": {
              "ntr": "ROOT_FIXED",
              "ntt": "MELODY",
              "bassOn": false,
              "noteLowLimit": 36,
              "noteHighLimit": 96,
              "chordRootUpperLimit": 127,
              "rtr": "PITCH_SHIFT"
            }
          },
          "notes": [
            {
              "pitch": 55,
              "velocity": 42,
              "position": 0.0,
              "duration": 0.316667
            },
            {
              "pitch": 59,
              "velocity": 33,
              "position": 0.308333,
              "duration": 0.225
            },
            {
              "pitch": 60,
              "velocity": 47,
              "position": 0.508333,
              "duration": 0.308333
            },
            {
              "pitch": 64,
              "velocity": 57,
              "position": 0.8,
              "duration": 0.15
            },
            {
              "pitch": 55,
              "velocity": 45,
              "position": 1.483333,
              "duration": 0.291667
            },
            {
              "pitch": 59,
              "velocity": 36,
              "position": 1.808333,
              "duration": 0.15
            },
            {
              "pitch": 59,
              "velocity": 41,
              "position": 2.0,
              "duration": 0.316667
            },
            {
              "pitch": 60,
              "velocity": 32,
              "position": 2.308333,
              "duration": 0.225
            },
            {
              "pitch": 55,
              "velocity": 42,
              "position": 4.0,
              "duration": 0.316667
            },
            {
              "pitch": 59,
              "velocity": 33,
              "position": 4.308333,
              "duration": 0.225
            },
            {
              "pitch": 60,
              "velocity": 47,
              "position": 4.508333,
              "duration": 0.308333
            },
            {
              "pitch": 64,
              "velocity": 57,
              "position": 4.8,
              "duration": 0.15
            },
            {
              "pitch": 55,
              "velocity": 45,
              "position": 5.483333,
              "duration": 0.291667
            },
            {
              "pitch": 59,
              "velocity": 36,
              "position": 5.808333,
              "duration": 0.15
            },
            {
              "pitch": 59,
              "velocity": 41,
              "position": 6.0,
              "duration": 0.316667
            },
            {
              "pitch": 60,
              "velocity": 32,
              "position": 6.308333,
              "duration": 0.225
            },
            {
              "pitch": 55,
              "velocity": 41,
              "position": 8.0,
              "duration": 0.316667
            },
            {
              "pitch": 59,
              "velocity": 32,
              "position": 8.333333,
              "duration": 0.225
            },
            {
              "pitch": 60,
              "velocity": 46,
              "position": 8.491667,
              "duration": 0.308333
            },
            {
              "pitch": 64,
              "velocity": 56,
              "position": 8.8,
              "duration": 0.15
            },
            {
              "pitch": 55,
              "velocity": 44,
              "position": 9.483333,
              "duration": 0.291667
            },
            {
              "pitch": 59,
              "velocity": 35,
              "position": 9.808333,
              "duration": 0.225
            },
            {
              "pitch": 60,
              "velocity": 49,
              "position": 9.983333,
              "duration": 0.3
            },
            {
              "pitch": 64,
              "velocity": 55,
              "position": 10.308333,
              "duration": 0.225
            },
            {
              "pitch": 59,
              "velocity": 53,
              "position": 12.008333,
              "duration": 0.266667
            },
            {
              "pitch": 60,
              "velocity": 25,
              "position": 12.308333,
              "duration": 0.175
            },
            {
              "pitch": 64,
              "velocity": 53,
              "position": 12.5,
              "duration": 0.316667
            },
            {
              "pitch": 67,
              "velocity": 60,
              "position": 12.8,
              "duration": 0.166667
            },
            {
              "pitch": 59,
              "velocity": 55,
              "position": 13.508333,
              "duration": 0.266667
            },
            {
              "pitch": 60,
              "velocity": 44,
              "position": 13.841667,
              "duration": 0.183333
            },
            {
              "pitch": 64,
              "velocity": 47,
              "position": 14.016667,
              "duration": 0.333333
            },
            {
              "pitch": 67,
              "velocity": 53,
              "position": 14.3,
              "duration": 0.175
            },
            {
              "pitch": 64,
              "velocity": 53,
              "position": 15.008333,
              "duration": 0.158333
            },
            {
              "pitch": 67,
              "velocity": 53,
              "position": 15.508333,
              "duration": 0.158333
            }
          ]
        }
      }
    },
    "Fill_In_AA": {
      "type": "Fill_In_AA",
      "sizeInBeats": 16,
      "channels": {
        "9": {
          "ctab": {
            "srcChannel": 9,
            "name": "Drums",
            "accType": "RHYTHM",
            "editable": false,
            "mutedNotes": [],
            "mutedChords": [],
            "sourceChordNote": 0,
            "sourceChordType": "Maj",
            "ctb2Main": {
              "ntr": "ROOT_FIXED",
              "ntt": "BYPASS",
              "bassOn": false,
              "noteLowLimit": 20,
              "noteHighLimit": 127,
              "chordRootUpperLimit": 127,
              "rtr": "RETRIGGER"
            }
          },
          "notes": [
            {
              "pitch": 36,
              "velocity": 80,
              "position": 0.0,
              "duration": 0.166667
            },
            {
              "pitch": 44,
              "velocity": 36,
              "position": 0.0,
              "duration": 0.191667
            },
            {
              "pitch": 49,
              "velocity": 80,
              "position": 0.0,
              "duration": 0.158333
            },
            {
              "pitch": 42,
              "velocity": 31,
              "position": 0.5,
              "duration": 0.133333
            },
            {
              "pitch": 36,
              "velocity": 79,
              "position": 0.8,
              "duration": 0.083333
            },
            {
              "pitch": 38,
              "velocity": 80,
              "position": 0.983333,
              "duration": 0.158333
            },
            {
              "pitch": 42,
              "velocity": 80,
              "position": 0.991667,
              "duration": 0.141667
            },
            {
              "pitch": 36,
              "velocity": 80,
              "position": 1.5,
              "duration": 0.141667
            },
            {
              "pitch": 42,
              "velocity": 44,
              "position": 1.5,
              "duration": 0.133333
            },
            {
              "pitch": 42,
              "velocity": 80,
              "position": 1.991667,
              "duration": 0.125
            },
            {
              "pitch": 42,
              "velocity": 80,
              "position": 2.508333,
              "duration": 0.15
            },
            {
              "pitch": 38,
              "velocity": 80,
              "position": 3.0,
              "duration": 0.141667
            },
            {
              "pitch": 42,
              "velocity": 80,
              "position": 3.008333,
              "duration": 0.141667
            },
            {
              "pitch": 36,
              "velocity": 80,
              "position": 3.508333,
              "duration": 0.116667
            },
            {
              "pitch": 42,
              "velocity": 80,
              "position": 3.516667,
              "duration": 0.133333
            },
            {
              "pitch": 44,
              "velocity": 37,
              "position": 4.0,
              "duration": 0.158333
            },
            {
              "pitch": 36,
              "velocity": 80,
              "position": 4.016667,
              "duration": 0.15
            },
            {
              "pitch": 42,
              "velocity": 80,
              "position": 4.016667,
              "duration": 0.141667
            },
            {
              "pitch": 42,
              "velocity": 42,
              "position": 4.516667,
              "duration": 0.133333
            },
            {
              "pitch": 38,
              "velocity": 80,
              "position": 5.0,
              "duration": 0.15
            },
            {
              "pitch": 42,
              "velocity": 80,
              "position": 5.008333,
              "duration": 0.133333
            },
            {
              "pitch": 42,
              "velocity": 65,
              "position": 5.508333,
              "duration": 0.15
            },
            {
              "pitch": 36,
              "velocity": 51,
              "position": 5.825,
              "duration": 0.141667
            },
            {
              "pitch": 36,
              "velocity": 80,
              "position": 6.008333,
              "duration": 0.141667
            },
            {
              "pitch": 42,
              "velocity": 80,
              "position": 6.008333,
              "duration": 0.133333
            },
            {
              "pitch": 36,
              "velocity": 80,
              "position": 6.516667,
              "duration": 0.141667
            },
            {
              "pitch": 42,
              "velocity": 67,
              "position": 6.516667,
              "duration": 0.133333
            },
            {
              "pitch": 38,
              "velocity": 54,
              "position": 7.008333,
              "duration": 0.141667
            },
            {
              "pitch": 42,
              "velocity": 80,
              "position": 7.008333,
              "duration": 0.133333
            },
            {
              "pitch": 36,
              "velocity": 80,
              "position": 7.5,
              "duration": 0.133333
            },
            {
              "pitch": 46,
              "velocity": 80,
              "position": 7.508333,
              "duration": 0.116667
            },
            {
              "pitch": 36,
              "velocity": 80,
              "position": 8.0,
              "duration": 0.166667
            },
            {
              "pitch": 44,
              "velocity": 36,
              "position": 8.0,
              "duration": 0.191667
            },
            {
              "pitch": 49,
              "velocity": 80,
              "position": 8.0,
              "duration": 0.158333
            },
            {
              "pitch": 42,
              "velocity": 31,
              "position": 8.5,
              "duration": 0.133333
            },
            {
              "pitch": 36,
              "velocity": 79,
              "position": 8.8,
              "duration": 0.083333
            },
            {
              "pitch": 38,
              "velocity": 80,
              "position": 8.983333,
              "duration": 0.158333
            },
            {
              "pitch": 42,
              "velocity": 80,
              "position": 8.991667,
              "duration": 0.141667
            },
            {
              "pitch": 36,
              "velocity": 80,
              "position": 9.5,
              "duration": 0.141667
            },
            {
              "pitch": 42,
              "velocity": 44,
              "position": 9.5,
              "duration": 0.133333
            },
            {
              "pitch": 42,
              "velocity": 80,
              "position": 9.991667,
              "duration": 0.125
            },
            {
              "pitch": 42,
              "velocity": 80,
              "position": 10.508333,
              "duration": 0.15
            },
            {
              "pitch": 38,
              "velocity": 80,
              "position": 11.0,
              "duration": 0.141667
            },
            {
              "pitch": 42,
              "velocity": 80,
              "position": 11.008333,
              "duration": 0.141667
            },
            {
              "pitch": 36,
              "velocity": 80,
              "position": 11.508333,
              "duration": 0.116667
            },
            {
              "pitch": 42,
              "velocity": 80,
              "position": 11.516667,
              "duration": 0.133333
            },
            {
              "pitch": 38,
              "velocity": 80,
              "position": 12.0,
              "duration": 0.141667
            },
            {
              "pitch": 36,
              "velocity": 68,
              "position": 12.316667,
              "duration": 0.133333
            },
            {
              "pitch": 36,
              "velocity": 47,
              "position": 12.808333,
              "duration": 0.133333
            },
            {
              "pitch": 36,
              "velocity": 80,
              "position": 12.991667,
              "duration": 0.15
            },
            {
              "pitch": 38,
              "velocity": 80,
              "position": 13.3,
              "duration": 0.141667
            },
            {
              "pitch": 42,
              "velocity": 62,
              "position": 13.5,
              "duration": 0.15
            },
            {
              "pitch": 36,
              "velocity": 25,
              "position": 13.85,
              "duration": 0.141667
            },
            {
              "pitch": 38,
              "velocity": 80,
              "position": 14.0,
              "duration": 0.133333
            },
            {
              "pitch": 50,
              "velocity": 80,
              "position": 14.508333,
              "duration": 0.133333
            },
            {
              "pitch": 38,
              "velocity": 7,
              "position": 14.675,
              "duration": 0.125
            },
            {
              "pitch": 38,
              "velocity": 24,
              "position": 14.825,
              "duration": 0.158333
            },
            {
              "pitch": 38,
              "velocity": 11,
              "position": 15.008333,
              "duration": 0.125
            },
            {
              "pitch": 38,
              "velocity": 10,
              "position": 15.158333,
              "duration": 0.141667
            },
            {
              "pitch": 38,
              "velocity": 80,
              "position": 15.316667,
              "duration": 0.133333
            },
            {
              "pitch": 38,
              "velocity": 80,
              "position": 15.5,
              "duration": 0.133333
            },
            {
              "pitch": 38,
              "velocity": 39,
              "position": 15.8,
              "duration": 0.075
            }
          ]
        },
        "10": {
          "ctab": {
            "srcChannel": 10,
            "name": "Bass",
            "accType": "BASS",
            "editable": true,
            "mutedNotes": [],
            "mutedChords": [],
            "sourceChordNote": 0,
            "sourceChordType": "Maj7",
            "ctb2Main": {
              "ntr": "ROOT_TRANSPOSITION",
              "ntt": "BYPASS",
              "bassOn": true,
              "noteLowLimit": 20,
              "noteHighLimit": 60,
              "chordRootUpperLimit": 127,
              "rtr": "NOTE_GENERATOR"
            }
          },
          "notes": [
            {
              "pitch": 36,
              "velocity": 91,
              "position": 0.0,
              "duration": 1.016667
            },
            {
              "pitch": 31,
              "velocity": 69,
              "position": 1.491667,
              "duration": 0.466667
            },
            {
              "pitch": 36,
              "velocity": 91,
              "position": 2.0,
              "duration": 1.275
            },
            {
              "pitch": 36,
              "velocity": 69,
              "position": 3.833333,
              "duration": 0.125
            },
            {
              "pitch": 36,
              "velocity": 91,
              "position": 4.0,
              "duration": 1.016667
            },
            {
              "pitch": 31,
              "velocity": 69,
              "position": 5.491667,
              "duration": 0.466667
            },
            {
              "pitch": 36,
              "velocity": 80,
              "position": 6.008333,
              "duration": 1.575
            },
            {
              "pitch": 36,
              "velocity": 81,
              "position": 7.816667,
              "duration": 0.141667
            },
            {
              "pitch": 36,
              "velocity": 82,
              "position": 8.008333,
              "duration": 1.15
            },
            {
              "pitch": 31,
              "velocity": 74,
              "position": 9.5,
              "duration": 0.516667
            },
            {
              "pitch": 36,
              "velocity": 82,
              "position": 10.0,
              "duration": 1.016667
            },
            {
              "pitch": 31,
              "velocity": 80,
              "position": 11.491667,
              "duration": 0.508333
            },
            {
              "pitch": 36,
              "velocity": 82,
              "position": 11.991667,
              "duration": 1.4
            },
            {
              "pitch": 48,
              "velocity": 86,
              "position": 13.775,
              "duration": 0.791667
            },
            {
              "pitch": 36,
              "velocity": 74,
              "position": 14.483333,
              "duration": 0.141667
            },
            {
              "pitch": 36,
              "velocity": 85,
              "position": 15.0,
              "duration": 0.4
            },
            {
              "pitch": 48,
              "velocity": 83,
              "position": 15.5,
              "duration": 0.458333
            }
          ]
        },
        "11": {
          "ctab": {
            "srcChannel": 11,
            "name": "Piano",
            "accType": "CHORD1",
            "editable": true,
            "mutedNotes": [],
            "mutedChords": [],
            "sourceChordNote": 0,
            "sourceChordType": "Maj7",
            "ctb2Main": {
              "ntr": "ROOT_FIXED",
              "ntt": "CHORD",
              "bassOn": false,
              "noteLowLimit": 48,
              "noteHighLimit": 84,
              "chordRootUpperLimit": 127,
              "rtr": "NOTE_GENERATOR"
            }
          },
          "notes": [
            {
              "pitch": 62,
              "velocity": 60,
              "position": 0.05,
              "duration": 1.908333
            },
            {
              "pitch": 64,
              "velocity": 64,
              "position": 0.05,
              "duration": 1.908333
            },
            {
              "pitch": 67,
              "velocity": 52,
              "position": 0.05,
              "duration": 1.908333
            },
            {
              "pitch": 59,
              "velocity": 43,
              "position": 0.058333,
              "duration": 1.9
            },
            {
              "pitch": 62,
              "velocity": 60,
              "position": 2.05,
              "duration": 1.908333
            },
            {
              "pitch": 64,
              "velocity": 64,
              "position": 2.05,
              "duration": 1.908333
            },
            {
              "pitch": 67,
              "velocity": 52,
              "position": 2.05,
              "duration": 1.908333
            },
            {
              "pitch": 59,
              "velocity": 43,
              "position": 2.058333,
              "duration": 1.9
            },
            {
              "pitch": 64,
              "velocity": 63,
              "position": 4.525,
              "duration": 0.791667
            },
            {
              "pitch": 67,
              "velocity": 66,
              "position": 4.525,
              "duration": 0.791667
            },
            {
              "pitch": 62,
              "velocity": 60,
              "position": 5.816667,
              "duration": 2.125
            },
            {
              "pitch": 64,
              "velocity": 64,
              "position": 5.816667,
              "duration": 0.066667
            },
            {
              "pitch": 67,
              "velocity": 52,
              "position": 5.816667,
              "duration": 0.05
            },
            {
              "pitch": 59,
              "velocity": 43,
              "position": 5.825,
              "duration": 2.116667
            },
            {
              "pitch": 59,
              "velocity": 67,
              "position": 8.0,
              "duration": 3.541667
            },
            {
              "pitch": 62,
              "velocity": 59,
              "position": 8.0,
              "duration": 3.516667
            },
            {
              "pitch": 64,
              "velocity": 62,
              "position": 8.0,
              "duration": 0.941667
            },
            {
              "pitch": 67,
              "velocity": 54,
              "position": 8.0,
              "duration": 0.941667
            },
            {
              "pitch": 64,
              "velocity": 66,
              "position": 10.975,
              "duration": 0.766667
            },
            {
              "pitch": 59,
              "velocity": 71,
              "position": 11.758333,
              "duration": 0.133333
            },
            {
              "pitch": 62,
              "velocity": 67,
              "position": 11.758333,
              "duration": 0.133333
            },
            {
              "pitch": 64,
              "velocity": 53,
              "position": 11.95,
              "duration": 0.425
            },
            {
              "pitch": 64,
              "velocity": 54,
              "position": 12.466667,
              "duration": 0.2
            },
            {
              "pitch": 67,
              "velocity": 46,
              "position": 12.775,
              "duration": 0.2
            },
            {
              "pitch": 71,
              "velocity": 52,
              "position": 13.241667,
              "duration": 0.125
            },
            {
              "pitch": 71,
              "velocity": 65,
              "position": 13.758333,
              "duration": 0.208333
            },
            {
              "pitch": 74,
              "velocity": 59,
              "position": 14.266667,
              "duration": 0.191667
            },
            {
              "pitch": 76,
              "velocity": 67,
              "position": 14.775,
              "duration": 0.183333
            },
            {
              "pitch": 76,
              "velocity": 65,
              "position": 15.275,
              "duration": 0.15
            },
            {
              "pitch": 67,
              "velocity": 61,
              "position": 15.733333,
              "duration": 0.15
            }
          ]
        },
        "12": {
          "ctab": {
            "srcChannel": 12,
            "name": "Guitar",
            "accType": "CHORD2",
            "editable": true,
            "mutedNotes": [],
            "mutedChords": [],
            "sourceChordNote": 0,
            "sourceChordType": "Maj7",
            "ctb2Main": {
              "ntr": "ROOT_FIXED",
              "ntt": "CHORD",
              "bassOn": false,
              "noteLowLimit": 40,
              "noteHighLimit": 76,
              "chordRootUpperLimit": 127,
              "rtr": "NOTE_GENERATOR"
            }
          },
          "notes": [
            {
              "pitch": 67,
              "velocity": 62,
              "position": 1.0,
              "duration": 0.291667
            },
            {
              "pitch": 64,
              "velocity": 36,
              "position": 1.3,
              "duration": 0.208333
            },
            {
              "pitch": 59,
              "velocity": 43,
              "position": 1.5,
              "duration": 0.216667
            },
            {
              "pitch": 55,
              "velocity": 33,
              "position": 1.8,
              "duration": 0.141667
            },
            {
              "pitch": 67,
              "velocity": 62,
              "position": 5.0,
              "duration": 0.291667
            },
            {
              "pitch": 64,
              "velocity": 36,
              "position": 5.3,
              "duration": 0.208333
            },
            {
              "pitch": 59,
              "velocity": 43,
              "position": 5.5,
              "duration": 0.216667
            },
            {
              "pitch": 55,
              "velocity": 33,
              "position": 5.8,
              "duration": 0.141667
            },
            {
              "pitch": 64,
              "velocity": 62,
              "position": 9.0,
              "duration": 0.291667
            },
            {
              "pitch": 59,
              "velocity": 36,
              "position": 9.3,
              "duration": 0.208333
            },
            {
              "pitch": 55,
              "velocity": 43,
              "position": 9.5,
              "duration": 0.216667
            },
            {
              "pitch": 52,
              "velocity": 33,
              "position": 9.8,
              "duration": 0.141667
            },
            {
              "pitch": 59,
              "velocity": 68,
              "position": 13.0,
              "duration": 0.233333
            },
            {
              "pitch": 55,
              "velocity": 38,
              "position": 13.291667,
              "duration": 0.25
            },
            {
              "pitch": 52,
              "velocity": 41,
              "position": 13.5,
              "duration": 0.191667
            },
            {
              "pitch": 43,
              "velocity": 21,
              "position": 13.791667,
              "duration": 0.175
            }
          ]
        },
        "13": {
          "ctab": {
            "srcChannel": 13,
            "name": "Strings",
            "accType": "PAD",
            "editable": true,
            "mutedNotes": [],
            "mutedChords": [],
            "sourceChordNote": 0,
            "sourceChordType": "Maj7",
            "ctb2Main": {
              "ntr": "ROOT_FIXED",
              "ntt": "MELODY",
              "bassOn": false,
              "noteLowLimit": 36,
              "noteHighLimit": 96,
              "chordRootUpperLimit": 127,
              "rtr": "PITCH_SHIFT"
            }
          },
          "notes": [
            {
              "pitch": 55,
              "velocity": 42,
              "position": 0.0,
              "duration": 0.316667
            },
            {
              "pitch": 59,
              "velocity": 33,
              "position": 0.308333,
              "duration": 0.225
            },
            {
              "pitch": 60,
              "velocity": 47,
              "position": 0.508333,
              "duration": 0.308333
            },
            {
              "pitch": 64,
              "velocity": 57,
              "position": 0.8,
              "duration": 0.15
            },
            {
              "pitch": 55,
              "velocity": 45,
              "position": 1.483333,
              "duration": 0.291667
            },
            {
              "pitch": 59,
              "velocity": 36,
              "position": 1.808333,
              "duration": 0.15
            },
            {
              "pitch": 59,
              "velocity": 41,
              "position": 2.0,
              "duration": 0.316667
            },
            {
              "pitch": 60,
              "velocity": 32,
              "position": 2.308333,
              "duration": 0.225
            },
            {
              "pitch": 55,
              "velocity": 42,
              "position": 4.0,
              "duration": 0.316667
            },
            {
              "pitch": 59,
              "velocity": 33,
              "position": 4.308333,
              "duration": 0.225
            },
            {
              "pitch": 60,
              "velocity": 47,
              "position": 4.508333,
              "duration": 0.308333
            },
            {
              "pitch": 64,
              "velocity": 57,
              "position": 4.8,
              "duration": 0.15
            },
            {
              "pitch": 55,
              "velocity": 45,
              "position": 5.483333,
              "duration": 0.291667
            },
            {
              "pitch": 59,
              "velocity": 36,
              "position": 5.808333,
              "duration": 0.15
            },
            {
              "pitch": 59,
              "velocity": 41,
              "position": 6.0,
              "duration": 0.316667
            },
            {
              "pitch": 60,
              "velocity": 32,
              "position": 6.308333,
              "duration": 0.225
            },
            {
              "pitch": 55,
              "velocity": 41,
              "position": 8.0,
              "duration": 0.316667
            },
            {
              "pitch": 59,
              "velocity": 32,
              "position": 8.333333,
              "duration": 0.225
            },
            {
              "pitch": 60,
              "velocity": 46,
              "position": 8.491667,
              "duration": 0.308333
            },
            {
              "pitch": 64,
              "velocity": 56,
              "position": 8.8,
              "duration": 0.15
            },
            {
              "pitch": 55,
              "velocity": 44,
              "position": 9.483333,
              "duration": 0.291667
            },
            {
              "pitch": 59,
              "velocity": 35,
              "position": 9.808333,
              "duration": 0.225
            },
            {
              "pitch": 60,
              "velocity": 49,
              "position": 9.983333,
              "duration": 0.3
            },
            {
              "pitch": 64,
              "velocity": 55,
              "position": 10.308333,
              "duration": 0.225
            },
            {
              "pitch": 59,
              "velocity": 53,
              "position": 12.008333,
              "duration": 0.266667
            },
            {
              "pitch": 60,
              "velocity": 25,
              "position": 12.308333,
              "duration": 0.175
            },
            {
              "pitch": 64,
              "velocity": 53,
              "position": 12.5,
              "duration": 0.316667
            },
            {
              "pitch": 67,
              "velocity": 60,
              "position": 12.8,
              "duration": 0.166667
            },
            {
              "pitch": 59,
              "velocity": 55,
              "position": 13.508333,
              "duration": 0.266667
            },
            {
              "pitch": 60,
              "velocity": 44,
              "position": 13.841667,
              "duration": 0.183333
            },
            {
              "pitch": 64,
              "velocity": 47,
              "position": 14.016667,
              "duration": 0.333333
            },
            {
              "pitch": 67,
              "velocity": 53,
              "position": 14.3,
              "duration": 0.175
            },
            {
              "pitch": 64,
              "velocity": 53,
              "position": 15.008333,
              "duration": 0.158333
            },
            {
              "pitch": 67,
              "velocity": 53,
              "position": 15.508333,
              "duration": 0.158333
            }
          ]
        }
      }
    },
    "Ending_A": {
      "type": "Ending_A",
      "sizeInBeats": 16,
      "channels": {
        "9": {
          "ctab": {
            "srcChannel": 9,
            "name": "Drums",
            "accType": "RHYTHM",
            "editable": false,
            "mutedNotes": [],
            "mutedChords": [],
            "sourceChordNote": 0,
            "sourceChordType": "Maj",
            "ctb2Main": {
              "ntr": "ROOT_FIXED",
              "ntt": "BYPASS",
              "bassOn": false,
              "noteLowLimit": 20,
              "noteHighLimit": 127,
              "chordRootUpperLimit": 127,
              "rtr": "RETRIGGER"
            }
          },
          "notes": [
            {
              "pitch": 36,
              "velocity": 80,
              "position": 0.008333,
              "duration": 0.141667
            },
            {
              "pitch": 44,
              "velocity": 56,
              "position": 0.008333,
              "duration": 0.133333
            },
            {
              "pitch": 49,
              "velocity": 59,
              "position": 0.016667,
              "duration": 0.116667
            },
            {
              "pitch": 42,
              "velocity": 10,
              "position": 0.525,
              "duration": 0.15
            },
            {
              "pitch": 36,
              "velocity": 69,
              "position": 0.825,
              "duration": 0.083333
            },
            {
              "pitch": 37,
              "velocity": 69,
              "position": 1.008333,
              "duration": 1.583333
            },
            {
              "pitch": 42,
              "velocity": 62,
              "position": 1.016667,
              "duration": 0.15
            },
            {
              "pitch": 36,
              "velocity": 80,
              "position": 1.5,
              "duration": 0.125
            },
            {
              "pitch": 42,
              "velocity": 7,
              "position": 1.516667,
              "duration": 0.141667
            },
            {
              "pitch": 42,
              "velocity": 24,
              "position": 2.008333,
              "duration": 0.133333
            },
            {
              "pitch": 42,
              "velocity": 8,
              "position": 2.325,
              "duration": 0.158333
            },
            {
              "pitch": 46,
              "velocity": 28,
              "position": 2.508333,
              "duration": 0.15
            },
            {
              "pitch": 37,
              "velocity": 69,
              "position": 3.008333,
              "duration": 0.783333
            },
            {
              "pitch": 42,
              "velocity": 70,
              "position": 3.008333,
              "duration": 0.125
            },
            {
              "pitch": 44,
              "velocity": 70,
              "position": 3.008333,
              "duration": 0.141667
            },
            {
              "pitch": 36,
              "velocity": 69,
              "position": 3.5,
              "duration": 0.125
            },
            {
              "pitch": 42,
              "velocity": 13,
              "position": 3.508333,
              "duration": 0.125
            },
            {
              "pitch": 36,
              "velocity": 80,
              "position": 4.0,
              "duration": 0.15
            },
            {
              "pitch": 42,
              "velocity": 18,
              "position": 4.008333,
              "duration": 0.133333
            },
            {
              "pitch": 42,
              "velocity": 15,
              "position": 4.508333,
              "duration": 0.15
            },
            {
              "pitch": 36,
              "velocity": 66,
              "position": 4.825,
              "duration": 0.066667
            },
            {
              "pitch": 42,
              "velocity": 80,
              "position": 5.0,
              "duration": 0.15
            },
            {
              "pitch": 37,
              "velocity": 69,
              "position": 5.008333,
              "duration": 1.583333
            },
            {
              "pitch": 36,
              "velocity": 80,
              "position": 5.491667,
              "duration": 0.125
            },
            {
              "pitch": 42,
              "velocity": 20,
              "position": 5.5,
              "duration": 0.116667
            },
            {
              "pitch": 42,
              "velocity": 29,
              "position": 6.0,
              "duration": 0.15
            },
            {
              "pitch": 42,
              "velocity": 5,
              "position": 6.316667,
              "duration": 0.141667
            },
            {
              "pitch": 46,
              "velocity": 60,
              "position": 6.5,
              "duration": 0.141667
            },
            {
              "pitch": 44,
              "velocity": 80,
              "position": 6.983333,
              "duration": 0.133333
            },
            {
              "pitch": 37,
              "velocity": 69,
              "position": 7.008333,
              "duration": 0.783333
            },
            {
              "pitch": 42,
              "velocity": 37,
              "position": 7.008333,
              "duration": 0.133333
            },
            {
              "pitch": 36,
              "velocity": 69,
              "position": 7.491667,
              "duration": 0.133333
            },
            {
              "pitch": 42,
              "velocity": 13,
              "position": 7.508333,
              "duration": 0.15
            },
            {
              "pitch": 36,
              "velocity": 62,
              "position": 8.0,
              "duration": 0.133333
            },
            {
              "pitch": 42,
              "velocity": 47,
              "position": 8.0,
              "duration": 0.133333
            },
            {
              "pitch": 42,
              "velocity": 8,
              "position": 8.508333,
              "duration": 0.141667
            },
            {
              "pitch": 36,
              "velocity": 63,
              "position": 8.808333,
              "duration": 0.091667
            },
            {
              "pitch": 37,
              "velocity": 69,
              "position": 9.008333,
              "duration": 1.583333
            },
            {
              "pitch": 42,
              "velocity": 80,
              "position": 9.008333,
              "duration": 0.15
            },
            {
              "pitch": 36,
              "velocity": 80,
              "position": 9.516667,
              "duration": 0.15
            },
            {
              "pitch": 42,
              "velocity": 11,
              "position": 9.516667,
              "duration": 0.141667
            },
            {
              "pitch": 42,
              "velocity": 15,
              "position": 10.016667,
              "duration": 0.133333
            },
            {
              "pitch": 46,
              "velocity": 80,
              "position": 10.508333,
              "duration": 0.125
            },
            {
              "pitch": 37,
              "velocity": 69,
              "position": 11.008333,
              "duration": 0.783333
            },
            {
              "pitch": 42,
              "velocity": 46,
              "position": 11.008333,
              "duration": 0.141667
            },
            {
              "pitch": 44,
              "velocity": 54,
              "position": 11.008333,
              "duration": 0.15
            },
            {
              "pitch": 42,
              "velocity": 26,
              "position": 11.508333,
              "duration": 0.133333
            },
            {
              "pitch": 36,
              "velocity": 80,
              "position": 12.008333,
              "duration": 0.141667
            },
            {
              "pitch": 42,
              "velocity": 55,
              "position": 12.016667,
              "duration": 0.133333
            },
            {
              "pitch": 42,
              "velocity": 23,
              "position": 12.516667,
              "duration": 0.15
            },
            {
              "pitch": 36,
              "velocity": 65,
              "position": 12.825,
              "duration": 0.083333
            },
            {
              "pitch": 37,
              "velocity": 69,
              "position": 13.008333,
              "duration": 1.583333
            },
            {
              "pitch": 42,
              "velocity": 75,
              "position": 13.008333,
              "duration": 0.158333
            },
            {
              "pitch": 50,
              "velocity": 80,
              "position": 13.491667,
              "duration": 0.125
            },
            {
              "pitch": 36,
              "velocity": 71,
              "position": 14.0,
              "duration": 0.133333
            },
            {
              "pitch": 42,
              "velocity": 20,
              "position": 14.0,
              "duration": 0.125
            },
            {
              "pitch": 48,
              "velocity": 78,
              "position": 14.308333,
              "duration": 0.141667
            },
            {
              "pitch": 42,
              "velocity": 33,
              "position": 14.5,
              "duration": 0.141667
            },
            {
              "pitch": 36,
              "velocity": 63,
              "position": 14.816667,
              "duration": 0.116667
            },
            {
              "pitch": 45,
              "velocity": 80,
              "position": 15.0,
              "duration": 0.058333
            },
            {
              "pitch": 37,
              "velocity": 69,
              "position": 15.008333,
              "duration": 0.783333
            },
            {
              "pitch": 46,
              "velocity": 80,
              "position": 15.491667,
              "duration": 0.125
            }
          ]
        },
        "10": {
          "ctab": {
            "srcChannel": 10,
            "name": "Bass",
            "accType": "BASS",
            "editable": true,
            "mutedNotes": [],
            "mutedChords": [],
            "sourceChordNote": 0,
            "sourceChordType": "Maj7",
            "ctb2Main": {
              "ntr": "ROOT_TRANSPOSITION",
              "ntt": "BYPASS",
              "bassOn": true,
              "noteLowLimit": 20,
              "noteHighLimit": 60,
              "chordRootUpperLimit": 127,
              "rtr": "NOTE_GENERATOR"
            }
          },
          "notes": [
            {
              "pitch": 36,
              "velocity": 83,
              "position": 0.016667,
              "duration": 1.508333
            },
            {
              "pitch": 36,
              "velocity": 70,
              "position": 2.008333,
              "duration": 1.575
            },
            {
              "pitch": 36,
              "velocity": 71,
              "position": 3.816667,
              "duration": 0.141667
            },
            {
              "pitch": 36,
              "velocity": 73,
              "position": 4.016667,
              "duration": 1.65
            },
            {
              "pitch": 43,
              "velocity": 67,
              "position": 5.833333,
              "duration": 0.125
            },
            {
              "pitch": 36,
              "velocity": 61,
              "position": 6.016667,
              "duration": 0.25
            },
            {
              "pitch": 43,
              "velocity": 78,
              "position": 6.5,
              "duration": 0.441667
            },
            {
              "pitch": 40,
              "velocity": 78,
              "position": 7.0,
              "duration": 0.4
            },
            {
              "pitch": 36,
              "velocity": 78,
              "position": 7.5,
              "duration": 0.458333
            },
            {
              "pitch": 36,
              "velocity": 84,
              "position": 8.016667,
              "duration": 0.758333
            },
            {
              "pitch": 43,
              "velocity": 75,
              "position": 8.791667,
              "duration": 0.775
            },
            {
              "pitch": 48,
              "velocity": 72,
              "position": 9.516667,
              "duration": 2.0
            },
            {
              "pitch": 43,
              "velocity": 58,
              "position": 11.533333,
              "duration": 0.25
            },
            {
              "pitch": 36,
              "velocity": 58,
              "position": 11.783333,
              "duration": 0.216667
            },
            {
              "pitch": 36,
              "velocity": 75,
              "position": 12.0,
              "duration": 1.466667
            },
            {
              "pitch": 31,
              "velocity": 64,
              "position": 13.816667,
              "duration": 0.25
            },
            {
              "pitch": 36,
              "velocity": 73,
              "position": 14.008333,
              "duration": 0.266667
            },
            {
              "pitch": 31,
              "velocity": 62,
              "position": 14.308333,
              "duration": 0.25
            },
            {
              "pitch": 36,
              "velocity": 77,
              "position": 14.508333,
              "duration": 1.091667
            },
            {
              "pitch": 36,
              "velocity": 80,
              "position": 15.783333,
              "duration": 0.15
            }
          ]
        },
        "11": {
          "ctab": {
            "srcChannel": 11,
            "name": "Piano",
            "accType": "CHORD1",
            "editable": true,
            "mutedNotes": [],
            "mutedChords": [],
            "sourceChordNote": 0,
            "sourceChordType": "Maj7",
            "ctb2Main": {
              "ntr": "ROOT_FIXED",
              "ntt": "CHORD",
              "bassOn": false,
              "noteLowLimit": 48,
              "noteHighLimit": 84,
              "chordRootUpperLimit": 127,
              "rtr": "NOTE_GENERATOR"
            }
          },
          "notes": [
            {
              "pitch": 62,
              "velocity": 55,
              "position": 0.05,
              "duration": 1.908333
            },
            {
              "pitch": 64,
              "velocity": 59,
              "position": 0.05,
              "duration": 1.908333
            },
            {
              "pitch": 67,
              "velocity": 47,
              "position": 0.05,
              "duration": 1.908333
            },
            {
              "pitch": 59,
              "velocity": 38,
              "position": 0.058333,
              "duration": 1.9
            },
            {
              "pitch": 64,
              "velocity": 58,
              "position": 2.525,
              "duration": 0.791667
            },
            {
              "pitch": 67,
              "velocity": 61,
              "position": 2.525,
              "duration": 0.791667
            },
            {
              "pitch": 64,
              "velocity": 50,
              "position": 3.508333,
              "duration": 0.45
            },
            {
              "pitch": 67,
              "velocity": 54,
              "position": 3.525,
              "duration": 0.433333
            },
            {
              "pitch": 64,
              "velocity": 58,
              "position": 4.525,
              "duration": 0.791667
            },
            {
              "pitch": 67,
              "velocity": 61,
              "position": 4.525,
              "duration": 0.791667
            },
            {
              "pitch": 62,
              "velocity": 55,
              "position": 5.816667,
              "duration": 2.125
            },
            {
              "pitch": 64,
              "velocity": 59,
              "position": 5.816667,
              "duration": 0.066667
            },
            {
              "pitch": 67,
              "velocity": 47,
              "position": 5.816667,
              "duration": 0.05
            },
            {
              "pitch": 59,
              "velocity": 38,
              "position": 5.825,
              "duration": 2.116667
            },
            {
              "pitch": 64,
              "velocity": 52,
              "position": 8.05,
              "duration": 1.691667
            },
            {
              "pitch": 71,
              "velocity": 54,
              "position": 8.05,
              "duration": 3.908333
            },
            {
              "pitch": 76,
              "velocity": 57,
              "position": 8.05,
              "duration": 3.908333
            },
            {
              "pitch": 62,
              "velocity": 41,
              "position": 8.075,
              "duration": 3.883333
            },
            {
              "pitch": 67,
              "velocity": 46,
              "position": 9.516667,
              "duration": 2.441667
            },
            {
              "pitch": 83,
              "velocity": 63,
              "position": 12.016667,
              "duration": 2.183333
            },
            {
              "pitch": 64,
              "velocity": 63,
              "position": 12.033333,
              "duration": 2.108333
            },
            {
              "pitch": 76,
              "velocity": 43,
              "position": 12.533333,
              "duration": 1.683333
            },
            {
              "pitch": 74,
              "velocity": 51,
              "position": 12.991667,
              "duration": 1.308333
            }
          ]
        },
        "12": {
          "ctab": {
            "srcChannel": 12,
            "name": "Guitar",
            "accType": "CHORD2",
            "editable": true,
            "mutedNotes": [],
            "mutedChords": [],
            "sourceChordNote": 0,
            "sourceChordType": "Maj7",
            "ctb2Main": {
              "ntr": "ROOT_FIXED",
              "ntt": "CHORD",
              "bassOn": false,
              "noteLowLimit": 40,
              "noteHighLimit": 76,
              "chordRootUpperLimit": 127,
              "rtr": "NOTE_GENERATOR"
            }
          },
          "notes": [
            {
              "pitch": 64,
              "velocity": 62,
              "position": 1.0,
              "duration": 0.291667
            },
            {
              "pitch": 59,
              "velocity": 36,
              "position": 1.3,
              "duration": 0.208333
            },
            {
              "pitch": 55,
              "velocity": 43,
              "position": 1.5,
              "duration": 0.216667
            },
            {
              "pitch": 52,
              "velocity": 33,
              "position": 1.8,
              "duration": 0.141667
            },
            {
              "pitch": 64,
              "velocity": 62,
              "position": 5.0,
              "duration": 0.291667
            },
            {
              "pitch": 59,
              "velocity": 36,
              "position": 5.3,
              "duration": 0.208333
            },
            {
              "pitch": 55,
              "velocity": 43,
              "position": 5.5,
              "duration": 0.216667
            },
            {
              "pitch": 52,
              "velocity": 33,
              "position": 5.8,
              "duration": 0.141667
            },
            {
              "pitch": 67,
              "velocity": 62,
              "position": 9.0,
              "duration": 0.291667
            },
            {
              "pitch": 64,
              "velocity": 36,
              "position": 9.3,
              "duration": 0.208333
            },
            {
              "pitch": 59,
              "velocity": 43,
              "position": 9.5,
              "duration": 0.216667
            },
            {
              "pitch": 55,
              "velocity": 33,
              "position": 9.8,
              "duration": 0.141667
            },
            {
              "pitch": 64,
              "velocity": 62,
              "position": 13.0,
              "duration": 0.291667
            },
            {
              "pitch": 59,
              "velocity": 36,
              "position": 13.3,
              "duration": 0.208333
            },
            {
              "pitch": 55,
              "velocity": 43,
              "position": 13.5,
              "duration": 0.216667
            },
            {
              "pitch": 52,
              "velocity": 33,
              "position": 13.8,
              "duration": 0.141667
            }
          ]
        },
        "13": {
          "ctab": {
            "srcChannel": 13,
            "name": "Strings",
            "accType": "PAD",
            "editable": true,
            "mutedNotes": [],
            "mutedChords": [],
            "sourceChordNote": 0,
            "sourceChordType": "Maj7",
            "ctb2Main": {
              "ntr": "ROOT_FIXED",
              "ntt": "MELODY",
              "bassOn": false,
              "noteLowLimit": 36,
              "noteHighLimit": 96,
              "chordRootUpperLimit": 127,
              "rtr": "PITCH_SHIFT"
            }
          },
          "notes": [
            {
              "pitch": 55,
              "velocity": 37,
              "position": 0.0,
              "duration": 0.316667
            },
            {
              "pitch": 59,
              "velocity": 28,
              "position": 0.308333,
              "duration": 0.225
            },
            {
              "pitch": 60,
              "velocity": 42,
              "position": 0.508333,
              "duration": 0.308333
            },
            {
              "pitch": 64,
              "velocity": 52,
              "position": 0.8,
              "duration": 0.15
            },
            {
              "pitch": 55,
              "velocity": 40,
              "position": 1.483333,
              "duration": 0.291667
            },
            {
              "pitch": 59,
              "velocity": 31,
              "position": 1.808333,
              "duration": 0.15
            },
            {
              "pitch": 59,
              "velocity": 36,
              "position": 2.0,
              "duration": 0.316667
            },
            {
              "pitch": 60,
              "velocity": 27,
              "position": 2.308333,
              "duration": 0.225
            },
            {
              "pitch": 55,
              "velocity": 37,
              "position": 4.0,
              "duration": 0.316667
            },
            {
              "pitch": 59,
              "velocity": 28,
              "position": 4.308333,
              "duration": 0.225
            },
            {
              "pitch": 60,
              "velocity": 42,
              "position": 4.508333,
              "duration": 0.308333
            },
            {
              "pitch": 64,
              "velocity": 52,
              "position": 4.8,
              "duration": 0.15
            },
            {
              "pitch": 55,
              "velocity": 40,
              "position": 5.483333,
              "duration": 0.291667
            },
            {
              "pitch": 59,
              "velocity": 31,
              "position": 5.808333,
              "duration": 0.15
            },
            {
              "pitch": 59,
              "velocity": 36,
              "position": 6.0,
              "duration": 0.316667
            },
            {
              "pitch": 60,
              "velocity": 27,
              "position": 6.308333,
              "duration": 0.225
            },
            {
              "pitch": 55,
              "velocity": 39,
              "position": 8.0,
              "duration": 0.316667
            },
            {
              "pitch": 59,
              "velocity": 30,
              "position": 8.333333,
              "duration": 0.225
            },
            {
              "pitch": 60,
              "velocity": 44,
              "position": 8.491667,
              "duration": 0.308333
            },
            {
              "pitch": 64,
              "velocity": 54,
              "position": 8.8,
              "duration": 0.15
            },
            {
              "pitch": 55,
              "velocity": 42,
              "position": 9.483333,
              "duration": 0.291667
            },
            {
              "pitch": 59,
              "velocity": 33,
              "position": 9.808333,
              "duration": 0.225
            },
            {
              "pitch": 60,
              "velocity": 47,
              "position": 9.983333,
              "duration": 0.3
            },
            {
              "pitch": 64,
              "velocity": 53,
              "position": 10.308333,
              "duration": 0.225
            },
            {
              "pitch": 55,
              "velocity": 39,
              "position": 12.0,
              "duration": 0.316667
            },
            {
              "pitch": 59,
              "velocity": 30,
              "position": 12.333333,
              "duration": 0.225
            },
            {
              "pitch": 60,
              "velocity": 44,
              "position": 12.491667,
              "duration": 0.308333
            },
            {
              "pitch": 64,
              "velocity": 54,
              "position": 12.8,
              "duration": 0.15
            },
            {
              "pitch": 55,
              "velocity": 42,
              "position": 13.483333,
              "duration": 0.291667
            },
            {
              "pitch": 59,
              "velocity": 33,
              "position": 13.808333,
              "duration": 0.225
            },
            {
              "pitch": 60,
              "velocity": 47,
              "position": 13.983333,
              "duration": 0.3
            },
            {
              "pitch": 64,
              "velocity": 53,
              "position": 14.308333,
              "duration": 0.225
            }
          ]
        }
      }
    }
  }
}