{
  "name": "Gemstone - 3/4 Smooth Jazz",
  "tempo": 75,
  "timeSignature": "3/4",
  "ticksPerQuarter": 120,
  "sffType": "SFF1",
  "division": "BINARY",
  "channelPrograms": {
    "9": 40,
    "10": 35,
    "11": 5,
    "12": 12,
    "13": 92
  },
  "parts": {
    "Intro_A": {
      "type": "Intro_A",
      "sizeInBeats": 18,
      "channels": {
        "9": {
          "ctab": {
            "srcChannel": 9,
            "name": "Drums",
            "accType": "RHYTHM",
            "editable": false,
            "mutedNotes": [],
            "mutedChords": [],
            "sourceChordNote": 0,
            "sourceChordType": "Maj",
            "ctb2Main": {
              "ntr": "ROOT_FIXED",
              "ntt": "BYPASS",
              "bassOn": false,
              "noteLowLimit": 20,
              "noteHighLimit": 127,
              "chordRootUpperLimit": 127,
              "rtr": "RETRIGGER"
            }
          },
          "notes": [
            {
              "pitch": 37,
              "velocity": 84,
              "position": 0.0,
              "duration": 1.0
            },
            {
              "pitch": 37,
              "velocity": 64,
              "position": 1.0,
              "duration": 1.0
            },
            {
              "pitch": 37,
              "velocity": 64,
              "position": 2.0,
              "duration": 1.0
            },
            {
              "pitch": 37,
              "velocity": 84,
              "position": 3.0,
              "duration": 1.0
            },
            {
              "pitch": 37,
              "velocity": 64,
              "position": 4.0,
              "duration": 1.0
            },
            {
              "pitch": 37,
              "velocity": 64,
              "position": 5.0,
              "duration": 1.0
            },
            {
              "pitch": 35,
              "velocity": 70,
              "position": 6.0,
              "duration": 0.208333
            },
            {
              "pitch": 39,
              "velocity": 40,
              "position": 6.0,
              "duration": 0.208333
            },
            {
              "pitch": 69,
              "velocity": 33,
              "position": 6.0,
              "duration": 0.208333
            },
            {
              "pitch": 39,
              "velocity": 50,
              "position": 6.25,
              "duration": 0.208333
            },
            {
              "pitch": 39,
              "velocity": 60,
              "position": 6.5,
              "duration": 0.208333
            },
            {
              "pitch": 44,
              "velocity": 80,
              "position": 6.5,
              "duration": 0.208333
            },
            {
              "pitch": 61,
              "velocity": 50,
              "position": 6.5,
              "duration": 0.208333
            },
            {
              "pitch": 69,
              "velocity": 33,
              "position": 6.5,
              "duration": 0.208333
            },
            {
              "pitch": 39,
              "velocity": 40,
              "position": 6.75,
              "duration": 0.208333
            },
            {
              "pitch": 60,
              "velocity": 60,
              "position": 6.75,
              "duration": 0.208333
            },
            {
              "pitch": 39,
              "velocity": 60,
              "position": 7.0,
              "duration": 0.208333
            },
            {
              "pitch": 61,
              "velocity": 60,
              "position": 7.0,
              "duration": 0.208333
            },
            {
              "pitch": 69,
              "velocity": 33,
              "position": 7.0,
              "duration": 0.208333
            },
            {
              "pitch": 39,
              "velocity": 40,
              "position": 7.25,
              "duration": 0.208333
            },
            {
              "pitch": 61,
              "velocity": 33,
              "position": 7.25,
              "duration": 0.208333
            },
            {
              "pitch": 39,
              "velocity": 90,
              "position": 7.5,
              "duration": 0.208333
            },
            {
              "pitch": 44,
              "velocity": 80,
              "position": 7.5,
              "duration": 0.208333
            },
            {
              "pitch": 69,
              "velocity": 33,
              "position": 7.5,
              "duration": 0.208333
            },
            {
              "pitch": 39,
              "velocity": 40,
              "position": 7.75,
              "duration": 0.208333
            },
            {
              "pitch": 61,
              "velocity": 40,
              "position": 7.75,
              "duration": 0.208333
            },
            {
              "pitch": 39,
              "velocity": 70,
              "position": 8.0,
              "duration": 0.208333
            },
            {
              "pitch": 54,
              "velocity": 80,
              "position": 8.0,
              "duration": 0.208333
            },
            {
              "pitch": 60,
              "velocity": 90,
              "position": 8.0,
              "duration": 0.208333
            },
            {
              "pitch": 69,
              "velocity": 44,
              "position": 8.0,
              "duration": 0.208333
            },
            {
              "pitch": 75,
              "velocity": 70,
              "position": 8.0,
              "duration": 0.208333
            },
            {
              "pitch": 39,
              "velocity": 100,
              "position": 8.25,
              "duration": 0.208333
            },
            {
              "pitch": 39,
              "velocity": 60,
              "position": 8.5,
              "duration": 0.208333
            },
            {
              "pitch": 44,
              "velocity": 80,
              "position": 8.5,
              "duration": 0.208333
            },
            {
              "pitch": 61,
              "velocity": 40,
              "position": 8.5,
              "duration": 0.208333
            },
            {
              "pitch": 69,
              "velocity": 33,
              "position": 8.5,
              "duration": 0.208333
            },
            {
              "pitch": 35,
              "velocity": 70,
              "position": 8.75,
              "duration": 0.208333
            },
            {
              "pitch": 39,
              "velocity": 33,
              "position": 8.75,
              "duration": 0.208333
            },
            {
              "pitch": 35,
              "velocity": 70,
              "position": 9.0,
              "duration": 0.208333
            },
            {
              "pitch": 39,
              "velocity": 40,
              "position": 9.0,
              "duration": 0.208333
            },
            {
              "pitch": 69,
              "velocity": 33,
              "position": 9.0,
              "duration": 0.208333
            },
            {
              "pitch": 39,
              "velocity": 50,
              "position": 9.25,
              "duration": 0.208333
            },
            {
              "pitch": 39,
              "velocity": 60,
              "position": 9.5,
              "duration": 0.208333
            },
            {
              "pitch": 44,
              "velocity": 80,
              "position": 9.5,
              "duration": 0.208333
            },
            {
              "pitch": 61,
              "velocity": 50,
              "position": 9.5,
              "duration": 0.208333
            },
            {
              "pitch": 69,
              "velocity": 33,
              "position": 9.5,
              "duration": 0.208333
            },
            {
              "pitch": 39,
              "velocity": 40,
              "position": 9.75,
              "duration": 0.208333
            },
            {
              "pitch": 60,
              "velocity": 60,
              "position": 9.75,
              "duration": 0.208333
            },
            {
              "pitch": 39,
              "velocity": 60,
              "position": 10.0,
              "duration": 0.208333
            },
            {
              "pitch": 61,
              "velocity": 60,
              "position": 10.0,
              "duration": 0.208333
            },
            {
              "pitch": 69,
              "velocity": 33,
              "position": 10.0,
              "duration": 0.208333
            },
            {
              "pitch": 39,
              "velocity": 40,
              "position": 10.25,
              "duration": 0.208333
            },
            {
              "pitch": 61,
              "velocity": 33,
              "position": 10.25,
              "duration": 0.208333
            },
            {
              "pitch": 39,
              "velocity": 90,
              "position": 10.5,
              "duration": 0.208333
            },
            {
              "pitch": 44,
              "velocity": 80,
              "position": 10.5,
              "duration": 0.208333
            },
            {
              "pitch": 69,
              "velocity": 33,
              "position": 10.5,
              "duration": 0.208333
            },
            {
              "pitch": 39,
              "velocity": 40,
              "position": 10.75,
              "duration": 0.208333
            },
            {
              "pitch": 61,
              "velocity": 40,
              "position": 10.75,
              "duration": 0.208333
            },
            {
              "pitch": 39,
              "velocity": 70,
              "position": 11.0,
              "duration": 0.208333
            },
            {
              "pitch": 54,
              "velocity": 80,
              "position": 11.0,
              "duration": 0.208333
            },
            {
              "pitch": 60,
              "velocity": 60,
              "position": 11.0,
              "duration": 0.208333
            },
            {
              "pitch": 69,
              "velocity": 44,
              "position": 11.0,
              "duration": 0.208333
            },
            {
              "pitch": 75,
              "velocity": 70,
              "position": 11.0,
              "duration": 0.208333
            },
            {
              "pitch": 39,
              "velocity": 100,
              "position": 11.25,
              "duration": 0.208333
            },
            {
              "pitch": 39,
              "velocity": 60,
              "position": 11.5,
              "duration": 0.208333
            },
            {
              "pitch": 44,
              "velocity": 80,
              "position": 11.5,
              "duration": 0.208333
            },
            {
              "pitch": 61,
              "velocity": 40,
              "position": 11.5,
              "duration": 0.208333
            },
            {
              "pitch": 69,
              "velocity": 33,
              "position": 11.5,
              "duration": 0.208333
            },
            {
              "pitch": 35,
              "velocity": 70,
              "position": 11.75,
              "duration": 0.208333
            },
            {
              "pitch": 39,
              "velocity": 33,
              "position": 11.75,
              "duration": 0.208333
            },
            {
              "pitch": 35,
              "velocity": 70,
              "position": 12.0,
              "duration": 0.208333
            },
            {
              "pitch": 39,
              "velocity": 40,
              "position": 12.0,
              "duration": 0.208333
            },
            {
              "pitch": 69,
              "velocity": 33,
              "position": 12.0,
              "duration": 0.208333
            },
            {
              "pitch": 39,
              "velocity": 50,
              "position": 12.25,
              "duration": 0.208333
            },
            {
              "pitch": 39,
              "velocity": 60,
              "position": 12.5,
              "duration": 0.208333
            },
            {
              "pitch": 44,
              "velocity": 80,
              "position": 12.5,
              "duration": 0.208333
            },
            {
              "pitch": 61,
              "velocity": 50,
              "position": 12.5,
              "duration": 0.208333
            },
            {
              "pitch": 69,
              "velocity": 33,
              "position": 12.5,
              "duration": 0.208333
            },
            {
              "pitch": 39,
              "velocity": 40,
              "position": 12.75,
              "duration": 0.208333
            },
            {
              "pitch": 39,
              "velocity": 60,
              "position": 13.0,
              "duration": 0.208333
            },
            {
              "pitch": 61,
              "velocity": 60,
              "position": 13.0,
              "duration": 0.208333
            },
            {
              "pitch": 69,
              "velocity": 33,
              "position": 13.0,
              "duration": 0.208333
            },
            {
              "pitch": 39,
              "velocity": 40,
              "position": 13.25,
              "duration": 0.208333
            },
            {
              "pitch": 39,
              "velocity": 90,
              "position": 13.5,
              "duration": 0.208333
            },
            {
              "pitch": 44,
              "velocity": 80,
              "position": 13.5,
              "duration": 0.208333
            },
            {
              "pitch": 61,
              "velocity": 50,
              "position": 13.5,
              "duration": 0.208333
            },
            {
              "pitch": 69,
              "velocity": 33,
              "position": 13.5,
              "duration": 0.208333
            },
            {
              "pitch": 39,
              "velocity": 40,
              "position": 13.75,
              "duration": 0.208333
            },
            {
              "pitch": 39,
              "velocity": 70,
              "position": 14.0,
              "duration": 0.208333
            },
            {
              "pitch": 54,
              "velocity": 80,
              "position": 14.0,
              "duration": 0.208333
            },
            {
              "pitch": 60,
              "velocity": 90,
              "position": 14.0,
              "duration": 0.208333
            },
            {
              "pitch": 69,
              "velocity": 44,
              "position": 14.0,
              "duration": 0.208333
            },
            {
              "pitch": 75,
              "velocity": 70,
              "position": 14.0,
              "duration": 0.208333
            },
            {
              "pitch": 39,
              "velocity": 100,
              "position": 14.25,
              "duration": 0.208333
            },
            {
              "pitch": 61,
              "velocity": 60,
              "position": 14.25,
              "duration": 0.208333
            },
            {
              "pitch": 39,
              "velocity": 60,
              "position": 14.5,
              "duration": 0.208333
            },
            {
              "pitch": 44,
              "velocity": 80,
              "position": 14.5,
              "duration": 0.208333
            },
            {
              "pitch": 69,
              "velocity": 33,
              "position": 14.5,
              "duration": 0.208333
            },
            {
              "pitch": 35,
              "velocity": 70,
              "position": 14.75,
              "duration": 0.208333
            },
            {
              "pitch": 39,
              "velocity": 33,
              "position": 14.75,
              "duration": 0.208333
            },
            {
              "pitch": 61,
              "velocity": 50,
              "position": 14.75,
              "duration": 0.208333
            },
            {
              "pitch": 35,
              "velocity": 70,
              "position": 15.0,
              "duration": 0.208333
            },
            {
              "pitch": 39,
              "velocity": 60,
              "position": 15.0,
              "duration": 0.208333
            },
            {
              "pitch": 69,
              "velocity": 33,
              "position": 15.0,
              "duration": 0.208333
            },
            {
              "pitch": 39,
              "velocity": 80,
              "position": 15.25,
              "duration": 0.208333
            },
            {
              "pitch": 39,
              "velocity": 50,
              "position": 15.5,
              "duration": 0.208333
            },
            {
              "pitch": 44,
              "velocity": 80,
              "position": 15.5,
              "duration": 0.208333
            },
            {
              "pitch": 69,
              "velocity": 33,
              "position": 15.5,
              "duration": 0.208333
            },
            {
              "pitch": 39,
              "velocity": 40,
              "position": 15.75,
              "duration": 0.208333
            },
            {
              "pitch": 61,
              "velocity": 40,
              "position": 15.75,
              "duration": 0.208333
            },
            {
              "pitch": 39,
              "velocity": 80,
              "position": 16.0,
              "duration": 0.208333
            },
            {
              "pitch": 61,
              "velocity": 60,
              "position": 16.0,
              "duration": 0.208333
            },
            {
              "pitch": 69,
              "velocity": 33,
              "position": 16.0,
              "duration": 0.208333
            },
            {
              "pitch": 39,
              "velocity": 40,
              "position": 16.25,
              "duration": 0.208333
            },
            {
              "pitch": 61,
              "velocity": 33,
              "position": 16.25,
              "duration": 0.208333
            },
            {
              "pitch": 39,
              "velocity": 60,
              "position": 16.5,
              "duration": 0.208333
            },
            {
              "pitch": 44,
              "velocity": 80,
              "position": 16.5,
              "duration": 0.208333
            },
            {
              "pitch": 69,
              "velocity": 33,
              "position": 16.5,
              "duration": 0.208333
            },
            {
              "pitch": 39,
              "velocity": 40,
              "position": 16.75,
              "duration": 0.208333
            },
            {
              "pitch": 61,
              "velocity": 40,
              "position": 16.75,
              "duration": 0.208333
            },
            {
              "pitch": 39,
              "velocity": 80,
              "position": 17.0,
              "duration": 0.208333
            },
            {
              "pitch": 54,
              "velocity": 80,
              "position": 17.0,
              "duration": 0.208333
            },
            {
              "pitch": 60,
              "velocity": 90,
              "position": 17.0,
              "duration": 0.208333
            },
            {
              "pitch": 69,
              "velocity": 44,
              "position": 17.0,
              "duration": 0.208333
            },
            {
              "pitch": 75,
              "velocity": 70,
              "position": 17.0,
              "duration": 0.208333
            },
            {
              "pitch": 39,
              "velocity": 40,
              "position": 17.25,
              "duration": 0.208333
            },
            {
              "pitch": 39,
              "velocity": 50,
              "position": 17.5,
              "duration": 0.208333
            },
            {
              "pitch": 44,
              "velocity": 80,
              "position": 17.5,
              "duration": 0.208333
            },
            {
              "pitch": 61,
              "velocity": 40,
              "position": 17.5,
              "duration": 0.208333
            },
            {
              "pitch": 69,
              "velocity": 33,
              "position": 17.5,
              "duration": 0.208333
            },
            {
              "pitch": 35,
              "velocity": 70,
              "position": 17.75,
              "duration": 0.208333
            },
            {
              "pitch": 39,
              "velocity": 33,
              "position": 17.75,
              "duration": 0.208333
            }
          ]
        },
        "10": {
          "ctab": {
            "srcChannel": 10,
            "name": "Bass",
            "accType": "BASS",
            "editable": true,
            "mutedNotes": [],
            "mutedChords": [],
            "sourceChordNote": 0,
            "sourceChordType": "Maj7",
            "ctb2Main": {
              "ntr": "ROOT_TRANSPOSITION",
              "ntt": "BYPASS",
              "bassOn": true,
              "noteLowLimit": 20,
              "noteHighLimit": 60,
              "chordRootUpperLimit": 127,
              "rtr": "NOTE_GENERATOR"
            }
          },
          "notes": [
            {
              "pitch": 36,
              "velocity": 72,
              "position": 6.0,
              "duration": 1.991667
            },
            {
              "pitch": 36,
              "velocity": 72,
              "position": 8.0,
              "duration": 0.991667
            },
            {
              "pitch": 36,
              "velocity": 72,
              "position": 9.0,
              "duration": 1.991667
            },
            {
              "pitch": 36,
              "velocity": 72,
              "position": 11.0,
              "duration": 0.991667
            },
            {
              "pitch": 36,
              "velocity": 72,
              "position": 12.0,
              "duration": 5.975
            }
          ]
        },
        "11": {
          "ctab": {
            "srcChannel": 11,
            "name": "Piano",
            "accType": "CHORD1",
            "editable": true,
            "mutedNotes": [],
            "mutedChords": [],
            "sourceChordNote": 0,
            "sourceChordType": "Maj7",
            "ctb2Main": {
              "ntr": "ROOT_FIXED",
              "ntt": "CHORD",
              "bassOn": false,
              "noteLowLimit": 48,
              "noteHighLimit": 84,
              "chordRootUpperLimit": 127,
              "rtr": "NOTE_GENERATOR"
            }
          },
          "notes": [
            {
              "pitch": 83,
              "velocity": 42,
              "position": 12.016667,
              "duration": 5.908333
            },
            {
              "pitch": 88,
              "velocity": 29,
              "position": 12.033333,
              "duration": 5.916667
            },
            {
              "pitch": 79,
              "velocity": 39,
              "position": 12.041667,
              "duration": 5.883333
            },
            {
              "pitch": 74,
              "velocity": 29,
              "position": 12.058333,
              "duration": 5.933333
            }
          ]
        },
        "12": {
          "ctab": {
            "srcChannel": 12,
            "name": "Guitar",
            "accType": "CHORD2",
            "editable": true,
            "mutedNotes": [],
            "mutedChords": [],
            "sourceChordNote": 0,
            "sourceChordType": "Maj7",
            "ctb2Main": {
              "ntr": "ROOT_FIXED",
              "ntt": "CHORD",
              "bassOn": false,
              "noteLowLimit": 40,
              "noteHighLimit": 76,
              "chordRootUpperLimit": 127,
              "rtr": "NOTE_GENERATOR"
            }
          },
          "notes": [
            {
              "pitch": 59,
              "velocity": 35,
              "position": 6.508333,
              "duration": 0.15
            },
            {
              "pitch": 64,
              "velocity": 31,
              "position": 6.525,
              "duration": 0.133333
            },
            {
              "pitch": 59,
              "velocity": 54,
              "position": 6.991667,
              "duration": 0.2
            },
            {
              "pitch": 64,
              "velocity": 75,
              "position": 7.016667,
              "duration": 0.191667
            },
            {
              "pitch": 64,
              "velocity": 9,
              "position": 7.566667,
              "duration": 0.066667
            },
            {
              "pitch": 59,
              "velocity": 42,
              "position": 9.066667,
              "duration": 0.116667
            },
            {
              "pitch": 55,
              "velocity": 43,
              "position": 9.075,
              "duration": 0.15
            },
            {
              "pitch": 55,
              "velocity": 48,
              "position": 9.533333,
              "duration": 0.183333
            },
            {
              "pitch": 59,
              "velocity": 57,
              "position": 9.533333,
              "duration": 0.175
            },
            {
              "pitch": 55,
              "velocity": 65,
              "position": 10.033333,
              "duration": 0.416667
            },
            {
              "pitch": 59,
              "velocity": 76,
              "position": 10.05,
              "duration": 0.2
            },
            {
              "pitch": 59,
              "velocity": 57,
              "position": 10.508333,
              "duration": 0.183333
            },
            {
              "pitch": 55,
              "velocity": 38,
              "position": 10.766667,
              "duration": 0.2
            },
            {
              "pitch": 59,
              "velocity": 48,
              "position": 13.175,
              "duration": 0.033333
            },
            {
              "pitch": 59,
              "velocity": 54,
              "position": 13.266667,
              "duration": 0.05
            },
            {
              "pitch": 59,
              "velocity": 78,
              "position": 13.366667,
              "duration": 0.066667
            },
            {
              "pitch": 59,
              "velocity": 72,
              "position": 13.475,
              "duration": 0.066667
            },
            {
              "pitch": 59,
              "velocity": 68,
              "position": 13.6,
              "duration": 0.025
            },
            {
              "pitch": 59,
              "velocity": 64,
              "position": 13.675,
              "duration": 0.058333
            },
            {
              "pitch": 59,
              "velocity": 64,
              "position": 13.783333,
              "duration": 0.041667
            },
            {
              "pitch": 55,
              "velocity": 58,
              "position": 15.541667,
              "duration": 0.125
            },
            {
              "pitch": 59,
              "velocity": 72,
              "position": 16.025,
              "duration": 0.108333
            },
            {
              "pitch": 59,
              "velocity": 59,
              "position": 16.533333,
              "duration": 0.166667
            },
            {
              "pitch": 55,
              "velocity": 17,
              "position": 16.825,
              "duration": 0.075
            },
            {
              "pitch": 59,
              "velocity": 52,
              "position": 17.025,
              "duration": 0.116667
            },
            {
              "pitch": 59,
              "velocity": 36,
              "position": 17.491667,
              "duration": 0.133333
            }
          ]
        },
        "13": {
          "ctab": {
            "srcChannel": 13,
            "name": "Strings",
            "accType": "PAD",
            "editable": true,
            "mutedNotes": [],
            "mutedChords": [],
            "sourceChordNote": 0,
            "sourceChordType": "Maj7",
            "ctb2Main": {
              "ntr": "ROOT_FIXED",
              "ntt": "MELODY",
              "bassOn": false,
              "noteLowLimit": 36,
              "noteHighLimit": 96,
              "chordRootUpperLimit": 127,
              "rtr": "PITCH_SHIFT"
            }
          },
          "notes": [
            {
              "pitch": 59,
              "velocity": 44,
              "position": 6.0,
              "duration": 2.0
            },
            {
              "pitch": 60,
              "velocity": 44,
              "position": 6.0,
              "duration": 2.0
            },
            {
              "pitch": 64,
              "velocity": 44,
              "position": 6.0,
              "duration": 2.0
            },
            {
              "pitch": 67,
              "velocity": 44,
              "position": 6.0,
              "duration": 2.0
            },
            {
              "pitch": 59,
              "velocity": 44,
              "position": 8.0,
              "duration": 1.0
            },
            {
              "pitch": 60,
              "velocity": 44,
              "position": 8.0,
              "duration": 1.0
            },
            {
              "pitch": 64,
              "velocity": 44,
              "position": 8.0,
              "duration": 1.0
            },
            {
              "pitch": 67,
              "velocity": 44,
              "position": 8.0,
              "duration": 1.0
            },
            {
              "pitch": 59,
              "velocity": 44,
              "position": 9.0,
              "duration": 2.0
            },
            {
              "pitch": 60,
              "velocity": 44,
              "position": 9.0,
              "duration": 2.0
            },
            {
              "pitch": 64,
              "velocity": 44,
              "position": 9.0,
              "duration": 2.0
            },
            {
              "pitch": 67,
              "velocity": 44,
              "position": 9.0,
              "duration": 2.0
            },
            {
              "pitch": 59,
              "velocity": 44,
              "position": 11.0,
              "duration": 1.0
            },
            {
              "pitch": 60,
              "velocity": 44,
              "position": 11.0,
              "duration": 1.0
            },
            {
              "pitch": 64,
              "velocity": 44,
              "position": 11.0,
              "duration": 1.0
            },
            {
              "pitch": 67,
              "velocity": 44,
              "position": 11.0,
              "duration": 1.0
            },
            {
              "pitch": 59,
              "velocity": 44,
              "position": 12.0,
              "duration": 6.0
            },
            {
              "pitch": 60,
              "velocity": 44,
              "position": 12.0,
              "duration": 6.0
            },
            {
              "pitch": 64,
              "velocity": 44,
              "position": 12.0,
              "duration": 6.0
            },
            {
              "pitch": 67,
              "velocity": 44,
              "position": 12.0,
              "duration": 6.0
            }
          ]
        }
      }
    },
    "Main_A": {
      "type": "Main_A",
      "sizeInBeats": 12,
      "channels": {
        "9": {
          "ctab": {
            "srcChannel": 9,
            "name": "Drums",
            "accType": "RHYTHM",
            "editable": false,
            "mutedNotes": [],
            "mutedChords": [],
            "sourceChordNote": 0,
            "sourceChordType": "Maj",
            "ctb2Main": {
              "ntr": "ROOT_FIXED",
              "ntt": "BYPASS",
              "bassOn": false,
              "noteLowLimit": 20,
              "noteHighLimit": 127,
              "chordRootUpperLimit": 127,
              "rtr": "RETRIGGER"
            }
          },
          "notes": [
            {
              "pitch": 35,
              "velocity": 70,
              "position": 0.0,
              "duration": 0.208333
            },
            {
              "pitch": 39,
              "velocity": 40,
              "position": 0.0,
              "duration": 0.208333
            },
            {
              "pitch": 69,
              "velocity": 33,
              "position": 0.0,
              "duration": 0.208333
            },
            {
              "pitch": 39,
              "velocity": 50,
              "position": 0.25,
              "duration": 0.125
            },
            {
              "pitch": 39,
              "velocity": 40,
              "position": 0.375,
              "duration": 0.083333
            },
            {
              "pitch": 39,
              "velocity": 60,
              "position": 0.5,
              "duration": 0.083333
            },
            {
              "pitch": 44,
              "velocity": 80,
              "position": 0.5,
              "duration": 0.208333
            },
            {
              "pitch": 61,
              "velocity": 50,
              "position": 0.5,
              "duration": 0.208333
            },
            {
              "pitch": 69,
              "velocity": 33,
              "position": 0.5,
              "duration": 0.208333
            },
            {
              "pitch": 39,
              "velocity": 40,
              "position": 0.75,
              "duration": 0.208333
            },
            {
              "pitch": 61,
              "velocity": 40,
              "position": 0.75,
              "duration": 0.208333
            },
            {
              "pitch": 39,
              "velocity": 80,
              "position": 1.0,
              "duration": 0.208333
            },
            {
              "pitch": 61,
              "velocity": 80,
              "position": 1.0,
              "duration": 0.208333
            },
            {
              "pitch": 69,
              "velocity": 33,
              "position": 1.0,
              "duration": 0.208333
            },
            {
              "pitch": 39,
              "velocity": 50,
              "position": 1.25,
              "duration": 0.208333
            },
            {
              "pitch": 61,
              "velocity": 50,
              "position": 1.25,
              "duration": 0.208333
            },
            {
              "pitch": 39,
              "velocity": 33,
              "position": 1.5,
              "duration": 0.208333
            },
            {
              "pitch": 44,
              "velocity": 80,
              "position": 1.5,
              "duration": 0.208333
            },
            {
              "pitch": 69,
              "velocity": 33,
              "position": 1.5,
              "duration": 0.208333
            },
            {
              "pitch": 39,
              "velocity": 60,
              "position": 1.75,
              "duration": 0.208333
            },
            {
              "pitch": 61,
              "velocity": 40,
              "position": 1.75,
              "duration": 0.208333
            },
            {
              "pitch": 39,
              "velocity": 90,
              "position": 2.0,
              "duration": 0.208333
            },
            {
              "pitch": 54,
              "velocity": 80,
              "position": 2.0,
              "duration": 0.208333
            },
            {
              "pitch": 60,
              "velocity": 60,
              "position": 2.0,
              "duration": 0.208333
            },
            {
              "pitch": 69,
              "velocity": 44,
              "position": 2.0,
              "duration": 0.208333
            },
            {
              "pitch": 75,
              "velocity": 70,
              "position": 2.0,
              "duration": 0.208333
            },
            {
              "pitch": 39,
              "velocity": 50,
              "position": 2.25,
              "duration": 0.208333
            },
            {
              "pitch": 39,
              "velocity": 70,
              "position": 2.5,
              "duration": 0.208333
            },
            {
              "pitch": 44,
              "velocity": 80,
              "position": 2.5,
              "duration": 0.208333
            },
            {
              "pitch": 61,
              "velocity": 50,
              "position": 2.5,
              "duration": 0.208333
            },
            {
              "pitch": 69,
              "velocity": 33,
              "position": 2.5,
              "duration": 0.208333
            },
            {
              "pitch": 35,
              "velocity": 70,
              "position": 2.75,
              "duration": 0.208333
            },
            {
              "pitch": 39,
              "velocity": 60,
              "position": 2.75,
              "duration": 0.125
            },
            {
              "pitch": 39,
              "velocity": 48,
              "position": 2.875,
              "duration": 0.083333
            },
            {
              "pitch": 35,
              "velocity": 70,
              "position": 3.0,
              "duration": 0.208333
            },
            {
              "pitch": 39,
              "velocity": 70,
              "position": 3.0,
              "duration": 0.083333
            },
            {
              "pitch": 69,
              "velocity": 33,
              "position": 3.0,
              "duration": 0.208333
            },
            {
              "pitch": 39,
              "velocity": 40,
              "position": 3.25,
              "duration": 0.208333
            },
            {
              "pitch": 39,
              "velocity": 50,
              "position": 3.5,
              "duration": 0.208333
            },
            {
              "pitch": 44,
              "velocity": 80,
              "position": 3.5,
              "duration": 0.208333
            },
            {
              "pitch": 61,
              "velocity": 50,
              "position": 3.5,
              "duration": 0.208333
            },
            {
              "pitch": 69,
              "velocity": 33,
              "position": 3.5,
              "duration": 0.208333
            },
            {
              "pitch": 80,
              "velocity": 33,
              "position": 3.5,
              "duration": 0.208333
            },
            {
              "pitch": 39,
              "velocity": 40,
              "position": 3.75,
              "duration": 0.208333
            },
            {
              "pitch": 61,
              "velocity": 40,
              "position": 3.75,
              "duration": 0.208333
            },
            {
              "pitch": 39,
              "velocity": 70,
              "position": 4.0,
              "duration": 0.208333
            },
            {
              "pitch": 60,
              "velocity": 60,
              "position": 4.0,
              "duration": 0.208333
            },
            {
              "pitch": 61,
              "velocity": 60,
              "position": 4.0,
              "duration": 0.208333
            },
            {
              "pitch": 69,
              "velocity": 33,
              "position": 4.0,
              "duration": 0.208333
            },
            {
              "pitch": 80,
              "velocity": 60,
              "position": 4.0,
              "duration": 0.208333
            },
            {
              "pitch": 39,
              "velocity": 40,
              "position": 4.25,
              "duration": 0.208333
            },
            {
              "pitch": 61,
              "velocity": 33,
              "position": 4.25,
              "duration": 0.208333
            },
            {
              "pitch": 80,
              "velocity": 33,
              "position": 4.25,
              "duration": 0.208333
            },
            {
              "pitch": 39,
              "velocity": 50,
              "position": 4.5,
              "duration": 0.208333
            },
            {
              "pitch": 44,
              "velocity": 80,
              "position": 4.5,
              "duration": 0.208333
            },
            {
              "pitch": 69,
              "velocity": 33,
              "position": 4.5,
              "duration": 0.208333
            },
            {
              "pitch": 39,
              "velocity": 40,
              "position": 4.75,
              "duration": 0.208333
            },
            {
              "pitch": 61,
              "velocity": 40,
              "position": 4.75,
              "duration": 0.208333
            },
            {
              "pitch": 80,
              "velocity": 33,
              "position": 4.75,
              "duration": 0.208333
            },
            {
              "pitch": 39,
              "velocity": 90,
              "position": 5.0,
              "duration": 0.208333
            },
            {
              "pitch": 54,
              "velocity": 80,
              "position": 5.0,
              "duration": 0.208333
            },
            {
              "pitch": 60,
              "velocity": 60,
              "position": 5.0,
              "duration": 0.208333
            },
            {
              "pitch": 69,
              "velocity": 44,
              "position": 5.0,
              "duration": 0.208333
            },
            {
              "pitch": 75,
              "velocity": 70,
              "position": 5.0,
              "duration": 0.208333
            },
            {
              "pitch": 81,
              "velocity": 40,
              "position": 5.0,
              "duration": 0.208333
            },
            {
              "pitch": 39,
              "velocity": 40,
              "position": 5.25,
              "duration": 0.208333
            },
            {
              "pitch": 39,
              "velocity": 50,
              "position": 5.5,
              "duration": 0.208333
            },
            {
              "pitch": 44,
              "velocity": 80,
              "position": 5.5,
              "duration": 0.208333
            },
            {
              "pitch": 61,
              "velocity": 40,
              "position": 5.5,
              "duration": 0.208333
            },
            {
              "pitch": 69,
              "velocity": 33,
              "position": 5.5,
              "duration": 0.208333
            },
            {
              "pitch": 35,
              "velocity": 70,
              "position": 5.75,
              "duration": 0.208333
            },
            {
              "pitch": 39,
              "velocity": 40,
              "position": 5.75,
              "duration": 0.208333
            },
            {
              "pitch": 35,
              "velocity": 70,
              "position": 6.0,
              "duration": 0.208333
            },
            {
              "pitch": 39,
              "velocity": 40,
              "position": 6.0,
              "duration": 0.208333
            },
            {
              "pitch": 69,
              "velocity": 33,
              "position": 6.0,
              "duration": 0.208333
            },
            {
              "pitch": 39,
              "velocity": 50,
              "position": 6.25,
              "duration": 0.208333
            },
            {
              "pitch": 39,
              "velocity": 60,
              "position": 6.5,
              "duration": 0.208333
            },
            {
              "pitch": 44,
              "velocity": 80,
              "position": 6.5,
              "duration": 0.208333
            },
            {
              "pitch": 61,
              "velocity": 50,
              "position": 6.5,
              "duration": 0.208333
            },
            {
              "pitch": 69,
              "velocity": 33,
              "position": 6.5,
              "duration": 0.208333
            },
            {
              "pitch": 39,
              "velocity": 40,
              "position": 6.75,
              "duration": 0.208333
            },
            {
              "pitch": 39,
              "velocity": 60,
              "position": 7.0,
              "duration": 0.208333
            },
            {
              "pitch": 61,
              "velocity": 60,
              "position": 7.0,
              "duration": 0.208333
            },
            {
              "pitch": 69,
              "velocity": 33,
              "position": 7.0,
              "duration": 0.208333
            },
            {
              "pitch": 39,
              "velocity": 40,
              "position": 7.25,
              "duration": 0.208333
            },
            {
              "pitch": 39,
              "velocity": 90,
              "position": 7.5,
              "duration": 0.208333
            },
            {
              "pitch": 44,
              "velocity": 80,
              "position": 7.5,
              "duration": 0.208333
            },
            {
              "pitch": 61,
              "velocity": 50,
              "position": 7.5,
              "duration": 0.208333
            },
            {
              "pitch": 69,
              "velocity": 33,
              "position": 7.5,
              "duration": 0.208333
            },
            {
              "pitch": 39,
              "velocity": 40,
              "position": 7.75,
              "duration": 0.208333
            },
            {
              "pitch": 39,
              "velocity": 70,
              "position": 8.0,
              "duration": 0.208333
            },
            {
              "pitch": 54,
              "velocity": 80,
              "position": 8.0,
              "duration": 0.208333
            },
            {
              "pitch": 60,
              "velocity": 90,
              "position": 8.0,
              "duration": 0.208333
            },
            {
              "pitch": 69,
              "velocity": 44,
              "position": 8.0,
              "duration": 0.208333
            },
            {
              "pitch": 75,
              "velocity": 70,
              "position": 8.0,
              "duration": 0.208333
            },
            {
              "pitch": 39,
              "velocity": 100,
              "position": 8.25,
              "duration": 0.208333
            },
            {
              "pitch": 61,
              "velocity": 60,
              "position": 8.25,
              "duration": 0.208333
            },
            {
              "pitch": 39,
              "velocity": 60,
              "position": 8.5,
              "duration": 0.208333
            },
            {
              "pitch": 44,
              "velocity": 80,
              "position": 8.5,
              "duration": 0.208333
            },
            {
              "pitch": 69,
              "velocity": 33,
              "position": 8.5,
              "duration": 0.208333
            },
            {
              "pitch": 35,
              "velocity": 70,
              "position": 8.75,
              "duration": 0.208333
            },
            {
              "pitch": 39,
              "velocity": 33,
              "position": 8.75,
              "duration": 0.208333
            },
            {
              "pitch": 61,
              "velocity": 50,
              "position": 8.75,
              "duration": 0.208333
            },
            {
              "pitch": 35,
              "velocity": 70,
              "position": 9.0,
              "duration": 0.208333
            },
            {
              "pitch": 39,
              "velocity": 70,
              "position": 9.0,
              "duration": 0.208333
            },
            {
              "pitch": 69,
              "velocity": 33,
              "position": 9.0,
              "duration": 0.208333
            },
            {
              "pitch": 39,
              "velocity": 40,
              "position": 9.25,
              "duration": 0.208333
            },
            {
              "pitch": 39,
              "velocity": 50,
              "position": 9.5,
              "duration": 0.208333
            },
            {
              "pitch": 44,
              "velocity": 80,
              "position": 9.5,
              "duration": 0.208333
            },
            {
              "pitch": 61,
              "velocity": 50,
              "position": 9.5,
              "duration": 0.208333
            },
            {
              "pitch": 69,
              "velocity": 33,
              "position": 9.5,
              "duration": 0.208333
            },
            {
              "pitch": 39,
              "velocity": 40,
              "position": 9.75,
              "duration": 0.208333
            },
            {
              "pitch": 61,
              "velocity": 40,
              "position": 9.75,
              "duration": 0.208333
            },
            {
              "pitch": 39,
              "velocity": 70,
              "position": 10.0,
              "duration": 0.208333
            },
            {
              "pitch": 60,
              "velocity": 60,
              "position": 10.0,
              "duration": 0.208333
            },
            {
              "pitch": 61,
              "velocity": 60,
              "position": 10.0,
              "duration": 0.208333
            },
            {
              "pitch": 69,
              "velocity": 33,
              "position": 10.0,
              "duration": 0.208333
            },
            {
              "pitch": 39,
              "velocity": 40,
              "position": 10.25,
              "duration": 0.208333
            },
            {
              "pitch": 61,
              "velocity": 33,
              "position": 10.25,
              "duration": 0.208333
            },
            {
              "pitch": 39,
              "velocity": 50,
              "position": 10.5,
              "duration": 0.208333
            },
            {
              "pitch": 44,
              "velocity": 80,
              "position": 10.5,
              "duration": 0.208333
            },
            {
              "pitch": 69,
              "velocity": 33,
              "position": 10.5,
              "duration": 0.208333
            },
            {
              "pitch": 39,
              "velocity": 40,
              "position": 10.75,
              "duration": 0.208333
            },
            {
              "pitch": 61,
              "velocity": 40,
              "position": 10.75,
              "duration": 0.125
            },
            {
              "pitch": 61,
              "velocity": 32,
              "position": 10.875,
              "duration": 0.083333
            },
            {
              "pitch": 39,
              "velocity": 90,
              "position": 11.0,
              "duration": 0.208333
            },
            {
              "pitch": 54,
              "velocity": 80,
              "position": 11.0,
              "duration": 0.208333
            },
            {
              "pitch": 60,
              "velocity": 60,
              "position": 11.0,
              "duration": 0.208333
            },
            {
              "pitch": 69,
              "velocity": 44,
              "position": 11.0,
              "duration": 0.208333
            },
            {
              "pitch": 75,
              "velocity": 70,
              "position": 11.0,
              "duration": 0.208333
            },
            {
              "pitch": 39,
              "velocity": 40,
              "position": 11.25,
              "duration": 0.208333
            },
            {
              "pitch": 39,
              "velocity": 50,
              "position": 11.5,
              "duration": 0.208333
            },
            {
              "pitch": 44,
              "velocity": 80,
              "position": 11.5,
              "duration": 0.208333
            },
            {
              "pitch": 61,
              "velocity": 40,
              "position": 11.5,
              "duration": 0.208333
            },
            {
              "pitch": 69,
              "velocity": 33,
              "position": 11.5,
              "duration": 0.208333
            },
            {
              "pitch": 35,
              "velocity": 70,
              "position": 11.75,
              "duration": 0.208333
            },
            {
              "pitch": 39,
              "velocity": 40,
              "position": 11.75,
              "duration": 0.208333
            },
            {
              "pitch": 61,
              "velocity": 33,
              "position": 11.75,
              "duration": 0.208333
            }
          ]
        },
        "10": {
          "ctab": {
            "srcChannel": 10,
            "name": "Bass",
            "accType": "BASS",
            "editable": true,
            "mutedNotes": [],
            "mutedChords": [],
            "sourceChordNote": 0,
            "sourceChordType": "Maj7",
            "ctb2Main": {
              "ntr": "ROOT_TRANSPOSITION",
              "ntt": "BYPASS",
              "bassOn": true,
              "noteLowLimit": 20,
              "noteHighLimit": 60,
              "chordRootUpperLimit": 127,
              "rtr": "NOTE_GENERATOR"
            }
          },
          "notes": [
            {
              "pitch": 36,
              "velocity": 72,
              "position": 0.0,
              "duration": 1.991667
            },
            {
              "pitch": 36,
              "velocity": 72,
              "position": 2.0,
              "duration": 0.991667
            },
            {
              "pitch": 36,
              "velocity": 72,
              "position": 3.0,
              "duration": 1.991667
            },
            {
              "pitch": 36,
              "velocity": 72,
              "position": 5.0,
              "duration": 0.991667
            },
            {
              "pitch": 36,
              "velocity": 72,
              "position": 6.0,
              "duration": 5.975
            }
          ]
        },
        "11": {
          "ctab": {
            "srcChannel": 11,
            "name": "Piano",
            "accType": "CHORD1",
            "editable": true,
            "mutedNotes": [],
            "mutedChords": [],
            "sourceChordNote": 0,
            "sourceChordType": "Maj7",
            "ctb2Main": {
              "ntr": "ROOT_FIXED",
              "ntt": "CHORD",
              "bassOn": false,
              "noteLowLimit": 48,
              "noteHighLimit": 84,
              "chordRootUpperLimit": 127,
              "rtr": "NOTE_GENERATOR"
            }
          },
          "notes": [
            {
              "pitch": 71,
              "velocity": 48,
              "position": 6.05,
              "duration": 5.95
            },
            {
              "pitch": 74,
              "velocity": 16,
              "position": 7.541667,
              "duration": 4.458333
            },
            {
              "pitch": 79,
              "velocity": 39,
              "position": 10.541667,
              "duration": 1.458333
            }
          ]
        },
        "12": {
          "ctab": {
            "srcChannel": 12,
            "name": "Guitar",
            "accType": "CHORD2",
            "editable": true,
            "mutedNotes": [],
            "mutedChords": [],
            "sourceChordNote": 0,
            "sourceChordType": "Maj7",
            "ctb2Main": {
              "ntr": "ROOT_FIXED",
              "ntt": "CHORD",
              "bassOn": false,
              "noteLowLimit": 40,
              "noteHighLimit": 76,
              "chordRootUpperLimit": 127,
              "rtr": "NOTE_GENERATOR"
            }
          },
          "notes": [
            {
              "pitch": 55,
              "velocity": 57,
              "position": 0.25,
              "duration": 0.208333
            },
            {
              "pitch": 59,
              "velocity": 59,
              "position": 0.5,
              "duration": 0.133333
            },
            {
              "pitch": 55,
              "velocity": 50,
              "position": 0.75,
              "duration": 0.133333
            },
            {
              "pitch": 60,
              "velocity": 92,
              "position": 1.0,
              "duration": 0.241667
            },
            {
              "pitch": 59,
              "velocity": 59,
              "position": 1.5,
              "duration": 0.166667
            },
            {
              "pitch": 55,
              "velocity": 53,
              "position": 1.75,
              "duration": 0.133333
            },
            {
              "pitch": 48,
              "velocity": 57,
              "position": 2.0,
              "duration": 0.116667
            },
            {
              "pitch": 55,
              "velocity": 57,
              "position": 2.25,
              "duration": 0.208333
            },
            {
              "pitch": 59,
              "velocity": 59,
              "position": 2.5,
              "duration": 0.133333
            },
            {
              "pitch": 55,
              "velocity": 50,
              "position": 2.75,
              "duration": 0.133333
            },
            {
              "pitch": 48,
              "velocity": 57,
              "position": 3.0,
              "duration": 0.116667
            },
            {
              "pitch": 55,
              "velocity": 57,
              "position": 3.25,
              "duration": 0.208333
            },
            {
              "pitch": 59,
              "velocity": 59,
              "position": 3.5,
              "duration": 0.133333
            },
            {
              "pitch": 55,
              "velocity": 50,
              "position": 3.75,
              "duration": 0.133333
            },
            {
              "pitch": 60,
              "velocity": 92,
              "position": 4.0,
              "duration": 0.241667
            },
            {
              "pitch": 59,
              "velocity": 59,
              "position": 4.5,
              "duration": 0.166667
            },
            {
              "pitch": 55,
              "velocity": 53,
              "position": 4.75,
              "duration": 0.133333
            },
            {
              "pitch": 48,
              "velocity": 57,
              "position": 5.0,
              "duration": 0.116667
            },
            {
              "pitch": 55,
              "velocity": 57,
              "position": 5.25,
              "duration": 0.208333
            },
            {
              "pitch": 59,
              "velocity": 59,
              "position": 5.5,
              "duration": 0.133333
            },
            {
              "pitch": 55,
              "velocity": 50,
              "position": 5.75,
              "duration": 0.133333
            },
            {
              "pitch": 48,
              "velocity": 57,
              "position": 6.0,
              "duration": 0.116667
            },
            {
              "pitch": 55,
              "velocity": 57,
              "position": 6.25,
              "duration": 0.208333
            },
            {
              "pitch": 59,
              "velocity": 59,
              "position": 6.5,
              "duration": 0.133333
            },
            {
              "pitch": 55,
              "velocity": 50,
              "position": 6.75,
              "duration": 0.133333
            },
            {
              "pitch": 60,
              "velocity": 92,
              "position": 7.0,
              "duration": 0.241667
            },
            {
              "pitch": 59,
              "velocity": 59,
              "position": 7.5,
              "duration": 0.166667
            },
            {
              "pitch": 55,
              "velocity": 53,
              "position": 7.75,
              "duration": 0.133333
            },
            {
              "pitch": 52,
              "velocity": 51,
              "position": 8.0,
              "duration": 0.158333
            },
            {
              "pitch": 59,
              "velocity": 60,
              "position": 8.25,
              "duration": 0.175
            },
            {
              "pitch": 60,
              "velocity": 58,
              "position": 8.5,
              "duration": 0.133333
            },
            {
              "pitch": 59,
              "velocity": 62,
              "position": 8.75,
              "duration": 0.1
            },
            {
              "pitch": 48,
              "velocity": 68,
              "position": 9.0,
              "duration": 0.183333
            },
            {
              "pitch": 55,
              "velocity": 57,
              "position": 9.25,
              "duration": 0.2
            },
            {
              "pitch": 59,
              "velocity": 57,
              "position": 9.5,
              "duration": 0.166667
            },
            {
              "pitch": 55,
              "velocity": 41,
              "position": 9.75,
              "duration": 0.15
            },
            {
              "pitch": 60,
              "velocity": 89,
              "position": 10.0,
              "duration": 0.333333
            },
            {
              "pitch": 59,
              "velocity": 57,
              "position": 10.5,
              "duration": 0.158333
            },
            {
              "pitch": 55,
              "velocity": 58,
              "position": 10.75,
              "duration": 0.15
            },
            {
              "pitch": 52,
              "velocity": 63,
              "position": 11.0,
              "duration": 0.166667
            },
            {
              "pitch": 59,
              "velocity": 59,
              "position": 11.25,
              "duration": 0.175
            },
            {
              "pitch": 60,
              "velocity": 68,
              "position": 11.5,
              "duration": 0.166667
            },
            {
              "pitch": 59,
              "velocity": 48,
              "position": 11.75,
              "duration": 0.091667
            }
          ]
        },
        "13": {
          "ctab": {
            "srcChannel": 13,
            "name": "Strings",
            "accType": "PAD",
            "editable": true,
            "mutedNotes": [],
            "mutedChords": [],
            "sourceChordNote": 0,
            "sourceChordType": "Maj7",
            "ctb2Main": {
              "ntr": "ROOT_FIXED",
              "ntt": "MELODY",
              "bassOn": false,
              "noteLowLimit": 36,
              "noteHighLimit": 96,
              "chordRootUpperLimit": 127,
              "rtr": "PITCH_SHIFT"
            }
          },
          "notes": [
            {
              "pitch": 59,
              "velocity": 44,
              "position": 0.0,
              "duration": 2.0
            },
            {
              "pitch": 60,
              "velocity": 44,
              "position": 0.0,
              "duration": 2.0
            },
            {
              "pitch": 64,
              "velocity": 44,
              "position": 0.0,
              "duration": 2.0
            },
            {
              "pitch": 67,
              "velocity": 44,
              "position": 0.0,
              "duration": 2.0
            },
            {
              "pitch": 59,
              "velocity": 44,
              "position": 2.0,
              "duration": 1.0
            },
            {
              "pitch": 60,
              "velocity": 44,
              "position": 2.0,
              "duration": 1.0
            },
            {
              "pitch": 64,
              "velocity": 44,
              "position": 2.0,
              "duration": 1.0
            },
            {
              "pitch": 67,
              "velocity": 44,
              "position": 2.0,
              "duration": 1.0
            },
            {
              "pitch": 59,
              "velocity": 44,
              "position": 3.0,
              "duration": 2.0
            },
            {
              "pitch": 60,
              "velocity": 44,
              "position": 3.0,
              "duration": 2.0
            },
            {
              "pitch": 64,
              "velocity": 44,
              "position": 3.0,
              "duration": 2.0
            },
            {
              "pitch": 67,
              "velocity": 44,
              "position": 3.0,
              "duration": 2.0
            },
            {
              "pitch": 59,
              "velocity": 44,
              "position": 5.0,
              "duration": 1.0
            },
            {
              "pitch": 60,
              "velocity": 44,
              "position": 5.0,
              "duration": 1.0
            },
            {
              "pitch": 64,
              "velocity": 44,
              "position": 5.0,
              "duration": 1.0
            },
            {
              "pitch": 67,
              "velocity": 44,
              "position": 5.0,
              "duration": 1.0
            },
            {
              "pitch": 59,
              "velocity": 44,
              "position": 6.0,
              "duration": 6.0
            },
            {
              "pitch": 60,
              "velocity": 44,
              "position": 6.0,
              "duration": 6.0
            },
            {
              "pitch": 64,
              "velocity": 44,
              "position": 6.0,
              "duration": 6.0
            },
            {
              "pitch": 67,
              "velocity": 44,
              "position": 6.0,
              "duration": 6.0
            }
          ]
        }
      }
    },
    "Main_B": {
      "type": "Main_B",
      "sizeInBeats": 12,
      "channels": {
        "9": {
          "ctab": {
            "srcChannel": 9,
            "name": "Drums",
            "accType": "RHYTHM",
            "editable": false,
            "mutedNotes": [],
            "mutedChords": [],
            "sourceChordNote": 0,
            "sourceChordType": "Maj",
            "ctb2Main": {
              "ntr": "ROOT_FIXED",
              "ntt": "BYPASS",
              "bassOn": false,
              "noteLowLimit": 20,
              "noteHighLimit": 127,
              "chordRootUpperLimit": 127,
              "rtr": "RETRIGGER"
            }
          },
          "notes": [
            {
              "pitch": 35,
              "velocity": 70,
              "position": 0.0,
              "duration": 0.208333
            },
            {
              "pitch": 39,
              "velocity": 40,
              "position": 0.0,
              "duration": 0.208333
            },
            {
              "pitch": 69,
              "velocity": 33,
              "position": 0.0,
              "duration": 0.208333
            },
            {
              "pitch": 39,
              "velocity": 50,
              "position": 0.25,
              "duration": 0.208333
            },
            {
              "pitch": 39,
              "velocity": 60,
              "position": 0.5,
              "duration": 0.208333
            },
            {
              "pitch": 44,
              "velocity": 80,
              "position": 0.5,
              "duration": 0.208333
            },
            {
              "pitch": 61,
              "velocity": 50,
              "position": 0.5,
              "duration": 0.208333
            },
            {
              "pitch": 69,
              "velocity": 33,
              "position": 0.5,
              "duration": 0.208333
            },
            {
              "pitch": 39,
              "velocity": 40,
              "position": 0.75,
              "duration": 0.208333
            },
            {
              "pitch": 60,
              "velocity": 60,
              "position": 0.75,
              "duration": 0.208333
            },
            {
              "pitch": 39,
              "velocity": 60,
              "position": 1.0,
              "duration": 0.208333
            },
            {
              "pitch": 61,
              "velocity": 60,
              "position": 1.0,
              "duration": 0.208333
            },
            {
              "pitch": 69,
              "velocity": 33,
              "position": 1.0,
              "duration": 0.208333
            },
            {
              "pitch": 39,
              "velocity": 40,
              "position": 1.25,
              "duration": 0.208333
            },
            {
              "pitch": 61,
              "velocity": 33,
              "position": 1.25,
              "duration": 0.208333
            },
            {
              "pitch": 39,
              "velocity": 90,
              "position": 1.5,
              "duration": 0.208333
            },
            {
              "pitch": 44,
              "velocity": 80,
              "position": 1.5,
              "duration": 0.208333
            },
            {
              "pitch": 69,
              "velocity": 33,
              "position": 1.5,
              "duration": 0.208333
            },
            {
              "pitch": 39,
              "velocity": 40,
              "position": 1.75,
              "duration": 0.208333
            },
            {
              "pitch": 61,
              "velocity": 40,
              "position": 1.75,
              "duration": 0.208333
            },
            {
              "pitch": 39,
              "velocity": 80,
              "position": 2.0,
              "duration": 0.208333
            },
            {
              "pitch": 54,
              "velocity": 80,
              "position": 2.0,
              "duration": 0.208333
            },
            {
              "pitch": 60,
              "velocity": 60,
              "position": 2.0,
              "duration": 0.208333
            },
            {
              "pitch": 69,
              "velocity": 44,
              "position": 2.0,
              "duration": 0.208333
            },
            {
              "pitch": 75,
              "velocity": 70,
              "position": 2.0,
              "duration": 0.208333
            },
            {
              "pitch": 39,
              "velocity": 40,
              "position": 2.25,
              "duration": 0.208333
            },
            {
              "pitch": 39,
              "velocity": 50,
              "position": 2.5,
              "duration": 0.208333
            },
            {
              "pitch": 44,
              "velocity": 80,
              "position": 2.5,
              "duration": 0.208333
            },
            {
              "pitch": 61,
              "velocity": 40,
              "position": 2.5,
              "duration": 0.208333
            },
            {
              "pitch": 69,
              "velocity": 33,
              "position": 2.5,
              "duration": 0.208333
            },
            {
              "pitch": 35,
              "velocity": 70,
              "position": 2.75,
              "duration": 0.208333
            },
            {
              "pitch": 39,
              "velocity": 33,
              "position": 2.75,
              "duration": 0.208333
            },
            {
              "pitch": 35,
              "velocity": 70,
              "position": 3.0,
              "duration": 0.208333
            },
            {
              "pitch": 39,
              "velocity": 70,
              "position": 3.0,
              "duration": 0.208333
            },
            {
              "pitch": 69,
              "velocity": 33,
              "position": 3.0,
              "duration": 0.208333
            },
            {
              "pitch": 39,
              "velocity": 40,
              "position": 3.25,
              "duration": 0.208333
            },
            {
              "pitch": 39,
              "velocity": 50,
              "position": 3.5,
              "duration": 0.208333
            },
            {
              "pitch": 44,
              "velocity": 80,
              "position": 3.5,
              "duration": 0.208333
            },
            {
              "pitch": 61,
              "velocity": 50,
              "position": 3.5,
              "duration": 0.208333
            },
            {
              "pitch": 69,
              "velocity": 33,
              "position": 3.5,
              "duration": 0.208333
            },
            {
              "pitch": 80,
              "velocity": 33,
              "position": 3.5,
              "duration": 0.208333
            },
            {
              "pitch": 39,
              "velocity": 40,
              "position": 3.75,
              "duration": 0.208333
            },
            {
              "pitch": 61,
              "velocity": 40,
              "position": 3.75,
              "duration": 0.208333
            },
            {
              "pitch": 39,
              "velocity": 70,
              "position": 4.0,
              "duration": 0.208333
            },
            {
              "pitch": 60,
              "velocity": 60,
              "position": 4.0,
              "duration": 0.208333
            },
            {
              "pitch": 61,
              "velocity": 60,
              "position": 4.0,
              "duration": 0.208333
            },
            {
              "pitch": 69,
              "velocity": 33,
              "position": 4.0,
              "duration": 0.208333
            },
            {
              "pitch": 80,
              "velocity": 60,
              "position": 4.0,
              "duration": 0.208333
            },
            {
              "pitch": 39,
              "velocity": 40,
              "position": 4.25,
              "duration": 0.208333
            },
            {
              "pitch": 61,
              "velocity": 33,
              "position": 4.25,
              "duration": 0.208333
            },
            {
              "pitch": 80,
              "velocity": 33,
              "position": 4.25,
              "duration": 0.208333
            },
            {
              "pitch": 39,
              "velocity": 50,
              "position": 4.5,
              "duration": 0.208333
            },
            {
              "pitch": 44,
              "velocity": 80,
              "position": 4.5,
              "duration": 0.208333
            },
            {
              "pitch": 69,
              "velocity": 33,
              "position": 4.5,
              "duration": 0.208333
            },
            {
              "pitch": 39,
              "velocity": 40,
              "position": 4.75,
              "duration": 0.208333
            },
            {
              "pitch": 61,
              "velocity": 40,
              "position": 4.75,
              "duration": 0.208333
            },
            {
              "pitch": 80,
              "velocity": 33,
              "position": 4.75,
              "duration": 0.208333
            },
            {
              "pitch": 39,
              "velocity": 90,
              "position": 5.0,
              "duration": 0.208333
            },
            {
              "pitch": 54,
              "velocity": 80,
              "position": 5.0,
              "duration": 0.208333
            },
            {
              "pitch": 60,
              "velocity": 90,
              "position": 5.0,
              "duration": 0.208333
            },
            {
              "pitch": 69,
              "velocity": 44,
              "position": 5.0,
              "duration": 0.208333
            },
            {
              "pitch": 75,
              "velocity": 70,
              "position": 5.0,
              "duration": 0.208333
            },
            {
              "pitch": 81,
              "velocity": 40,
              "position": 5.0,
              "duration": 0.208333
            },
            {
              "pitch": 39,
              "velocity": 40,
              "position": 5.25,
              "duration": 0.208333
            },
            {
              "pitch": 39,
              "velocity": 50,
              "position": 5.5,
              "duration": 0.208333
            },
            {
              "pitch": 44,
              "velocity": 80,
              "position": 5.5,
              "duration": 0.208333
            },
            {
              "pitch": 61,
              "velocity": 40,
              "position": 5.5,
              "duration": 0.208333
            },
            {
              "pitch": 69,
              "velocity": 33,
              "position": 5.5,
              "duration": 0.208333
            },
            {
              "pitch": 35,
              "velocity": 70,
              "position": 5.75,
              "duration": 0.208333
            },
            {
              "pitch": 39,
              "velocity": 40,
              "position": 5.75,
              "duration": 0.208333
            },
            {
              "pitch": 35,
              "velocity": 70,
              "position": 6.0,
              "duration": 0.208333
            },
            {
              "pitch": 39,
              "velocity": 70,
              "position": 6.0,
              "duration": 0.208333
            },
            {
              "pitch": 69,
              "velocity": 33,
              "position": 6.0,
              "duration": 0.208333
            },
            {
              "pitch": 39,
              "velocity": 40,
              "position": 6.25,
              "duration": 0.208333
            },
            {
              "pitch": 39,
              "velocity": 50,
              "position": 6.5,
              "duration": 0.208333
            },
            {
              "pitch": 44,
              "velocity": 80,
              "position": 6.5,
              "duration": 0.208333
            },
            {
              "pitch": 69,
              "velocity": 33,
              "position": 6.5,
              "duration": 0.208333
            },
            {
              "pitch": 39,
              "velocity": 40,
              "position": 6.75,
              "duration": 0.208333
            },
            {
              "pitch": 39,
              "velocity": 80,
              "position": 7.0,
              "duration": 0.208333
            },
            {
              "pitch": 61,
              "velocity": 60,
              "position": 7.0,
              "duration": 0.208333
            },
            {
              "pitch": 69,
              "velocity": 33,
              "position": 7.0,
              "duration": 0.208333
            },
            {
              "pitch": 39,
              "velocity": 40,
              "position": 7.25,
              "duration": 0.208333
            },
            {
              "pitch": 61,
              "velocity": 33,
              "position": 7.25,
              "duration": 0.208333
            },
            {
              "pitch": 39,
              "velocity": 90,
              "position": 7.5,
              "duration": 0.208333
            },
            {
              "pitch": 44,
              "velocity": 80,
              "position": 7.5,
              "duration": 0.208333
            },
            {
              "pitch": 69,
              "velocity": 33,
              "position": 7.5,
              "duration": 0.208333
            },
            {
              "pitch": 39,
              "velocity": 40,
              "position": 7.75,
              "duration": 0.208333
            },
            {
              "pitch": 61,
              "velocity": 40,
              "position": 7.75,
              "duration": 0.208333
            },
            {
              "pitch": 39,
              "velocity": 80,
              "position": 8.0,
              "duration": 0.208333
            },
            {
              "pitch": 54,
              "velocity": 80,
              "position": 8.0,
              "duration": 0.208333
            },
            {
              "pitch": 60,
              "velocity": 90,
              "position": 8.0,
              "duration": 0.208333
            },
            {
              "pitch": 69,
              "velocity": 44,
              "position": 8.0,
              "duration": 0.208333
            },
            {
              "pitch": 75,
              "velocity": 70,
              "position": 8.0,
              "duration": 0.208333
            },
            {
              "pitch": 39,
              "velocity": 40,
              "position": 8.25,
              "duration": 0.208333
            },
            {
              "pitch": 39,
              "velocity": 50,
              "position": 8.5,
              "duration": 0.208333
            },
            {
              "pitch": 44,
              "velocity": 80,
              "position": 8.5,
              "duration": 0.208333
            },
            {
              "pitch": 61,
              "velocity": 40,
              "position": 8.5,
              "duration": 0.208333
            },
            {
              "pitch": 69,
              "velocity": 33,
              "position": 8.5,
              "duration": 0.208333
            },
            {
              "pitch": 35,
              "velocity": 70,
              "position": 8.75,
              "duration": 0.208333
            },
            {
              "pitch": 39,
              "velocity": 33,
              "position": 8.75,
              "duration": 0.208333
            },
            {
              "pitch": 35,
              "velocity": 70,
              "position": 9.0,
              "duration": 0.208333
            },
            {
              "pitch": 39,
              "velocity": 40,
              "position": 9.0,
              "duration": 0.208333
            },
            {
              "pitch": 69,
              "velocity": 33,
              "position": 9.0,
              "duration": 0.208333
            },
            {
              "pitch": 39,
              "velocity": 50,
              "position": 9.25,
              "duration": 0.208333
            },
            {
              "pitch": 39,
              "velocity": 60,
              "position": 9.5,
              "duration": 0.208333
            },
            {
              "pitch": 44,
              "velocity": 80,
              "position": 9.5,
              "duration": 0.208333
            },
            {
              "pitch": 61,
              "velocity": 50,
              "position": 9.5,
              "duration": 0.208333
            },
            {
              "pitch": 69,
              "velocity": 33,
              "position": 9.5,
              "duration": 0.208333
            },
            {
              "pitch": 39,
              "velocity": 40,
              "position": 9.75,
              "duration": 0.208333
            },
            {
              "pitch": 39,
              "velocity": 80,
              "position": 10.0,
              "duration": 0.208333
            },
            {
              "pitch": 60,
              "velocity": 90,
              "position": 10.0,
              "duration": 0.208333
            },
            {
              "pitch": 69,
              "velocity": 33,
              "position": 10.0,
              "duration": 0.208333
            },
            {
              "pitch": 39,
              "velocity": 50,
              "position": 10.25,
              "duration": 0.208333
            },
            {
              "pitch": 61,
              "velocity": 50,
              "position": 10.25,
              "duration": 0.208333
            },
            {
              "pitch": 39,
              "velocity": 33,
              "position": 10.5,
              "duration": 0.208333
            },
            {
              "pitch": 44,
              "velocity": 80,
              "position": 10.5,
              "duration": 0.208333
            },
            {
              "pitch": 69,
              "velocity": 33,
              "position": 10.5,
              "duration": 0.208333
            },
            {
              "pitch": 39,
              "velocity": 60,
              "position": 10.75,
              "duration": 0.208333
            },
            {
              "pitch": 61,
              "velocity": 40,
              "position": 10.75,
              "duration": 0.208333
            },
            {
              "pitch": 39,
              "velocity": 90,
              "position": 11.0,
              "duration": 0.208333
            },
            {
              "pitch": 54,
              "velocity": 80,
              "position": 11.0,
              "duration": 0.208333
            },
            {
              "pitch": 60,
              "velocity": 60,
              "position": 11.0,
              "duration": 0.208333
            },
            {
              "pitch": 69,
              "velocity": 44,
              "position": 11.0,
              "duration": 0.208333
            },
            {
              "pitch": 75,
              "velocity": 70,
              "position": 11.0,
              "duration": 0.208333
            },
            {
              "pitch": 39,
              "velocity": 50,
              "position": 11.25,
              "duration": 0.208333
            },
            {
              "pitch": 39,
              "velocity": 70,
              "position": 11.5,
              "duration": 0.208333
            },
            {
              "pitch": 44,
              "velocity": 80,
              "position": 11.5,
              "duration": 0.208333
            },
            {
              "pitch": 61,
              "velocity": 50,
              "position": 11.5,
              "duration": 0.208333
            },
            {
              "pitch": 69,
              "velocity": 33,
              "position": 11.5,
              "duration": 0.208333
            },
            {
              "pitch": 35,
              "velocity": 70,
              "position": 11.75,
              "duration": 0.208333
            },
            {
              "pitch": 39,
              "velocity": 50,
              "position": 11.75,
              "duration": 0.125
            },
            {
              "pitch": 39,
              "velocity": 40,
              "position": 11.875,
              "duration": 0.083333
            }
          ]
        },
        "10": {
          "ctab": {
            "srcChannel": 10,
            "name": "Bass",
            "accType": "BASS",
            "editable": true,
            "mutedNotes": [],
            "mutedChords": [],
            "sourceChordNote": 0,
            "sourceChordType": "Maj7",
            "ctb2Main": {
              "ntr": "ROOT_TRANSPOSITION",
              "ntt": "BYPASS",
              "bassOn": true,
              "noteLowLimit": 20,
              "noteHighLimit": 60,
              "chordRootUpperLimit": 127,
              "rtr": "NOTE_GENERATOR"
            }
          },
          "notes": [
            {
              "pitch": 36,
              "velocity": 72,
              "position": 0.0,
              "duration": 1.991667
            },
            {
              "pitch": 36,
              "velocity": 72,
              "position": 2.0,
              "duration": 0.991667
            },
            {
              "pitch": 36,
              "velocity": 72,
              "position": 3.0,
              "duration": 1.991667
            },
            {
              "pitch": 36,
              "velocity": 72,
              "position": 5.0,
              "duration": 0.991667
            },
            {
              "pitch": 36,
              "velocity": 72,
              "position": 6.0,
              "duration": 2.75
            },
            {
              "pitch": 31,
              "velocity": 37,
              "position": 8.75,
              "duration": 0.066667
            },
            {
              "pitch": 36,
              "velocity": 58,
              "position": 9.0,
              "duration": 2.866667
            }
          ]
        },
        "11": {
          "ctab": {
            "srcChannel": 11,
            "name": "Piano",
            "accType": "CHORD1",
            "editable": true,
            "mutedNotes": [],
            "mutedChords": [],
            "sourceChordNote": 0,
            "sourceChordType": "Maj7",
            "ctb2Main": {
              "ntr": "ROOT_FIXED",
              "ntt": "CHORD",
              "bassOn": false,
              "noteLowLimit": 48,
              "noteHighLimit": 84,
              "chordRootUpperLimit": 127,
              "rtr": "NOTE_GENERATOR"
            }
          },
          "notes": [
            {
              "pitch": 91,
              "velocity": 42,
              "position": 8.75,
              "duration": 3.183333
            },
            {
              "pitch": 88,
              "velocity": 21,
              "position": 8.883333,
              "duration": 3.05
            },
            {
              "pitch": 83,
              "velocity": 41,
              "position": 9.016667,
              "duration": 2.908333
            }
          ]
        },
        "12": {
          "ctab": {
            "srcChannel": 12,
            "name": "Guitar",
            "accType": "CHORD2",
            "editable": true,
            "mutedNotes": [],
            "mutedChords": [],
            "sourceChordNote": 0,
            "sourceChordType": "Maj7",
            "ctb2Main": {
              "ntr": "ROOT_FIXED",
              "ntt": "CHORD",
              "bassOn": false,
              "noteLowLimit": 40,
              "noteHighLimit": 76,
              "chordRootUpperLimit": 127,
              "rtr": "NOTE_GENERATOR"
            }
          },
          "notes": [
            {
              "pitch": 48,
              "velocity": 57,
              "position": 0.0,
              "duration": 0.116667
            },
            {
              "pitch": 55,
              "velocity": 57,
              "position": 0.25,
              "duration": 0.208333
            },
            {
              "pitch": 59,
              "velocity": 59,
              "position": 0.5,
              "duration": 0.133333
            },
            {
              "pitch": 55,
              "velocity": 50,
              "position": 0.75,
              "duration": 0.133333
            },
            {
              "pitch": 60,
              "velocity": 92,
              "position": 1.0,
              "duration": 0.241667
            },
            {
              "pitch": 59,
              "velocity": 59,
              "position": 1.5,
              "duration": 0.166667
            },
            {
              "pitch": 55,
              "velocity": 53,
              "position": 1.75,
              "duration": 0.133333
            },
            {
              "pitch": 52,
              "velocity": 57,
              "position": 2.0,
              "duration": 0.116667
            },
            {
              "pitch": 59,
              "velocity": 57,
              "position": 2.25,
              "duration": 0.208333
            },
            {
              "pitch": 60,
              "velocity": 59,
              "position": 2.5,
              "duration": 0.133333
            },
            {
              "pitch": 55,
              "velocity": 50,
              "position": 2.758333,
              "duration": 0.2
            },
            {
              "pitch": 55,
              "velocity": 57,
              "position": 3.25,
              "duration": 0.208333
            },
            {
              "pitch": 52,
              "velocity": 59,
              "position": 3.5,
              "duration": 0.133333
            },
            {
              "pitch": 55,
              "velocity": 50,
              "position": 3.75,
              "duration": 0.133333
            },
            {
              "pitch": 59,
              "velocity": 50,
              "position": 4.0,
              "duration": 0.191667
            },
            {
              "pitch": 59,
              "velocity": 59,
              "position": 4.25,
              "duration": 0.208333
            },
            {
              "pitch": 55,
              "velocity": 59,
              "position": 4.5,
              "duration": 0.166667
            },
            {
              "pitch": 52,
              "velocity": 53,
              "position": 4.75,
              "duration": 0.133333
            },
            {
              "pitch": 48,
              "velocity": 57,
              "position": 5.0,
              "duration": 0.116667
            },
            {
              "pitch": 55,
              "velocity": 57,
              "position": 5.25,
              "duration": 0.208333
            },
            {
              "pitch": 59,
              "velocity": 59,
              "position": 5.5,
              "duration": 0.133333
            },
            {
              "pitch": 55,
              "velocity": 50,
              "position": 5.75,
              "duration": 0.133333
            },
            {
              "pitch": 55,
              "velocity": 57,
              "position": 6.25,
              "duration": 0.208333
            },
            {
              "pitch": 59,
              "velocity": 59,
              "position": 6.5,
              "duration": 0.133333
            },
            {
              "pitch": 55,
              "velocity": 50,
              "position": 6.75,
              "duration": 0.133333
            },
            {
              "pitch": 60,
              "velocity": 92,
              "position": 7.0,
              "duration": 0.241667
            },
            {
              "pitch": 59,
              "velocity": 59,
              "position": 7.5,
              "duration": 0.166667
            },
            {
              "pitch": 55,
              "velocity": 53,
              "position": 7.75,
              "duration": 0.133333
            },
            {
              "pitch": 52,
              "velocity": 51,
              "position": 8.0,
              "duration": 0.158333
            },
            {
              "pitch": 59,
              "velocity": 60,
              "position": 8.25,
              "duration": 0.175
            },
            {
              "pitch": 60,
              "velocity": 58,
              "position": 8.5,
              "duration": 0.133333
            },
            {
              "pitch": 59,
              "velocity": 62,
              "position": 8.75,
              "duration": 0.1
            },
            {
              "pitch": 48,
              "velocity": 68,
              "position": 9.0,
              "duration": 0.183333
            },
            {
              "pitch": 55,
              "velocity": 57,
              "position": 9.25,
              "duration": 0.2
            },
            {
              "pitch": 59,
              "velocity": 57,
              "position": 9.5,
              "duration": 0.166667
            },
            {
              "pitch": 55,
              "velocity": 41,
              "position": 9.75,
              "duration": 0.15
            },
            {
              "pitch": 60,
              "velocity": 89,
              "position": 10.0,
              "duration": 0.333333
            },
            {
              "pitch": 59,
              "velocity": 57,
              "position": 10.5,
              "duration": 0.158333
            },
            {
              "pitch": 55,
              "velocity": 58,
              "position": 10.75,
              "duration": 0.15
            },
            {
              "pitch": 52,
              "velocity": 63,
              "position": 11.0,
              "duration": 0.166667
            },
            {
              "pitch": 59,
              "velocity": 59,
              "position": 11.25,
              "duration": 0.175
            },
            {
              "pitch": 60,
              "velocity": 68,
              "position": 11.5,
              "duration": 0.166667
            },
            {
              "pitch": 59,
              "velocity": 48,
              "position": 11.75,
              "duration": 0.091667
            }
          ]
        },
        "13": {
          "ctab": {
            "srcChannel": 13,
            "name": "Strings",
            "accType": "PAD",
            "editable": true,
            "mutedNotes": [],
            "mutedChords": [],
            "sourceChordNote": 0,
            "sourceChordType": "Maj7",
            "ctb2Main": {
              "ntr": "ROOT_FIXED",
              "ntt": "MELODY",
              "bassOn": false,
              "noteLowLimit": 36,
              "noteHighLimit": 96,
              "chordRootUpperLimit": 127,
              "rtr": "PITCH_SHIFT"
            }
          },
          "notes": [
            {
              "pitch": 59,
              "velocity": 44,
              "position": 0.0,
              "duration": 2.0
            },
            {
              "pitch": 60,
              "velocity": 44,
              "position": 0.0,
              "duration": 2.0
            },
            {
              "pitch": 64,
              "velocity": 44,
              "position": 0.0,
              "duration": 2.0
            },
            {
              "pitch": 67,
              "velocity": 44,
              "position": 0.0,
              "duration": 2.0
            },
            {
              "pitch": 59,
              "velocity": 44,
              "position": 2.0,
              "duration": 1.0
            },
            {
              "pitch": 60,
              "velocity": 44,
              "position": 2.0,
              "duration": 1.0
            },
            {
              "pitch": 64,
              "velocity": 44,
              "position": 2.0,
              "duration": 1.0
            },
            {
              "pitch": 67,
              "velocity": 44,
              "position": 2.0,
              "duration": 1.0
            },
            {
              "pitch": 59,
              "velocity": 44,
              "position": 3.0,
              "duration": 2.0
            },
            {
              "pitch": 60,
              "velocity": 44,
              "position": 3.0,
              "duration": 2.0
            },
            {
              "pitch": 64,
              "velocity": 44,
              "position": 3.0,
              "duration": 2.0
            },
            {
              "pitch": 67,
              "velocity": 44,
              "position": 3.0,
              "duration": 2.0
            },
            {
              "pitch": 59,
              "velocity": 44,
              "position": 5.0,
              "duration": 1.0
            },
            {
              "pitch": 60,
              "velocity": 44,
              "position": 5.0,
              "duration": 1.0
            },
            {
              "pitch": 64,
              "velocity": 44,
              "position": 5.0,
              "duration": 1.0
            },
            {
              "pitch": 67,
              "velocity": 44,
              "position": 5.0,
              "duration": 1.0
            },
            {
              "pitch": 59,
              "velocity": 44,
              "position": 6.0,
              "duration": 6.0
            },
            {
              "pitch": 60,
              "velocity": 44,
              "position": 6.0,
              "duration": 6.0
            },
            {
              "pitch": 64,
              "velocity": 44,
              "position": 6.0,
              "duration": 6.0
            },
            {
              "pitch": 67,
              "velocity": 44,
              "position": 6.0,
              "duration": 6.0
            }
          ]
        }
      }
    },
    "Main_C": {
      "type": "Main_C",
      "sizeInBeats": 12,
      "channels": {
        "9": {
          "ctab": {
            "srcChannel": 9,
            "name": "Drums",
            "accType": "RHYTHM",
            "editable": false,
            "mutedNotes": [],
            "mutedChords": [],
            "sourceChordNote": 0,
            "sourceChordType": "Maj",
            "ctb2Main": {
              "ntr": "ROOT_FIXED",
              "ntt": "BYPASS",
              "bassOn": false,
              "noteLowLimit": 20,
              "noteHighLimit": 127,
              "chordRootUpperLimit": 127,
              "rtr": "RETRIGGER"
            }
          },
          "notes": [
            {
              "pitch": 35,
              "velocity": 70,
              "position": 0.0,
              "duration": 0.208333
            },
            {
              "pitch": 39,
              "velocity": 40,
              "position": 0.0,
              "duration": 0.083333
            },
            {
              "pitch": 69,
              "velocity": 33,
              "position": 0.0,
              "duration": 0.208333
            },
            {
              "pitch": 39,
              "velocity": 50,
              "position": 0.25,
              "duration": 0.125
            },
            {
              "pitch": 39,
              "velocity": 40,
              "position": 0.375,
              "duration": 0.083333
            },
            {
              "pitch": 39,
              "velocity": 60,
              "position": 0.5,
              "duration": 0.083333
            },
            {
              "pitch": 44,
              "velocity": 80,
              "position": 0.5,
              "duration": 0.208333
            },
            {
              "pitch": 61,
              "velocity": 50,
              "position": 0.5,
              "duration": 0.208333
            },
            {
              "pitch": 69,
              "velocity": 33,
              "position": 0.5,
              "duration": 0.208333
            },
            {
              "pitch": 39,
              "velocity": 40,
              "position": 0.75,
              "duration": 0.208333
            },
            {
              "pitch": 61,
              "velocity": 40,
              "position": 0.75,
              "duration": 0.208333
            },
            {
              "pitch": 39,
              "velocity": 80,
              "position": 1.0,
              "duration": 0.208333
            },
            {
              "pitch": 61,
              "velocity": 80,
              "position": 1.0,
              "duration": 0.208333
            },
            {
              "pitch": 69,
              "velocity": 33,
              "position": 1.0,
              "duration": 0.208333
            },
            {
              "pitch": 39,
              "velocity": 50,
              "position": 1.25,
              "duration": 0.208333
            },
            {
              "pitch": 61,
              "velocity": 50,
              "position": 1.25,
              "duration": 0.208333
            },
            {
              "pitch": 39,
              "velocity": 33,
              "position": 1.5,
              "duration": 0.208333
            },
            {
              "pitch": 44,
              "velocity": 80,
              "position": 1.5,
              "duration": 0.208333
            },
            {
              "pitch": 69,
              "velocity": 33,
              "position": 1.5,
              "duration": 0.208333
            },
            {
              "pitch": 39,
              "velocity": 60,
              "position": 1.75,
              "duration": 0.208333
            },
            {
              "pitch": 61,
              "velocity": 40,
              "position": 1.75,
              "duration": 0.208333
            },
            {
              "pitch": 39,
              "velocity": 90,
              "position": 2.0,
              "duration": 0.208333
            },
            {
              "pitch": 54,
              "velocity": 80,
              "position": 2.0,
              "duration": 0.208333
            },
            {
              "pitch": 60,
              "velocity": 60,
              "position": 2.0,
              "duration": 0.208333
            },
            {
              "pitch": 69,
              "velocity": 44,
              "position": 2.0,
              "duration": 0.208333
            },
            {
              "pitch": 75,
              "velocity": 70,
              "position": 2.0,
              "duration": 0.208333
            },
            {
              "pitch": 39,
              "velocity": 50,
              "position": 2.25,
              "duration": 0.208333
            },
            {
              "pitch": 39,
              "velocity": 70,
              "position": 2.5,
              "duration": 0.208333
            },
            {
              "pitch": 44,
              "velocity": 80,
              "position": 2.5,
              "duration": 0.208333
            },
            {
              "pitch": 61,
              "velocity": 50,
              "position": 2.5,
              "duration": 0.208333
            },
            {
              "pitch": 69,
              "velocity": 33,
              "position": 2.5,
              "duration": 0.208333
            },
            {
              "pitch": 35,
              "velocity": 70,
              "position": 2.75,
              "duration": 0.208333
            },
            {
              "pitch": 39,
              "velocity": 60,
              "position": 2.75,
              "duration": 0.125
            },
            {
              "pitch": 39,
              "velocity": 48,
              "position": 2.875,
              "duration": 0.083333
            },
            {
              "pitch": 35,
              "velocity": 70,
              "position": 3.0,
              "duration": 0.208333
            },
            {
              "pitch": 39,
              "velocity": 60,
              "position": 3.0,
              "duration": 0.083333
            },
            {
              "pitch": 69,
              "velocity": 33,
              "position": 3.0,
              "duration": 0.208333
            },
            {
              "pitch": 39,
              "velocity": 80,
              "position": 3.25,
              "duration": 0.208333
            },
            {
              "pitch": 39,
              "velocity": 50,
              "position": 3.5,
              "duration": 0.208333
            },
            {
              "pitch": 44,
              "velocity": 80,
              "position": 3.5,
              "duration": 0.208333
            },
            {
              "pitch": 69,
              "velocity": 33,
              "position": 3.5,
              "duration": 0.208333
            },
            {
              "pitch": 39,
              "velocity": 40,
              "position": 3.75,
              "duration": 0.208333
            },
            {
              "pitch": 39,
              "velocity": 80,
              "position": 4.0,
              "duration": 0.208333
            },
            {
              "pitch": 61,
              "velocity": 60,
              "position": 4.0,
              "duration": 0.208333
            },
            {
              "pitch": 69,
              "velocity": 33,
              "position": 4.0,
              "duration": 0.208333
            },
            {
              "pitch": 80,
              "velocity": 40,
              "position": 4.0,
              "duration": 0.208333
            },
            {
              "pitch": 39,
              "velocity": 40,
              "position": 4.25,
              "duration": 0.208333
            },
            {
              "pitch": 61,
              "velocity": 33,
              "position": 4.25,
              "duration": 0.208333
            },
            {
              "pitch": 80,
              "velocity": 33,
              "position": 4.25,
              "duration": 0.208333
            },
            {
              "pitch": 39,
              "velocity": 60,
              "position": 4.5,
              "duration": 0.208333
            },
            {
              "pitch": 44,
              "velocity": 80,
              "position": 4.5,
              "duration": 0.208333
            },
            {
              "pitch": 69,
              "velocity": 33,
              "position": 4.5,
              "duration": 0.208333
            },
            {
              "pitch": 39,
              "velocity": 40,
              "position": 4.75,
              "duration": 0.208333
            },
            {
              "pitch": 61,
              "velocity": 40,
              "position": 4.75,
              "duration": 0.208333
            },
            {
              "pitch": 80,
              "velocity": 33,
              "position": 4.75,
              "duration": 0.208333
            },
            {
              "pitch": 39,
              "velocity": 80,
              "position": 5.0,
              "duration": 0.208333
            },
            {
              "pitch": 54,
              "velocity": 80,
              "position": 5.0,
              "duration": 0.208333
            },
            {
              "pitch": 60,
              "velocity": 60,
              "position": 5.0,
              "duration": 0.208333
            },
            {
              "pitch": 69,
              "velocity": 44,
              "position": 5.0,
              "duration": 0.208333
            },
            {
              "pitch": 75,
              "velocity": 70,
              "position": 5.0,
              "duration": 0.208333
            },
            {
              "pitch": 81,
              "velocity": 40,
              "position": 5.0,
              "duration": 0.208333
            },
            {
              "pitch": 39,
              "velocity": 40,
              "position": 5.25,
              "duration": 0.208333
            },
            {
              "pitch": 39,
              "velocity": 50,
              "position": 5.5,
              "duration": 0.208333
            },
            {
              "pitch": 44,
              "velocity": 80,
              "position": 5.5,
              "duration": 0.208333
            },
            {
              "pitch": 61,
              "velocity": 40,
              "position": 5.5,
              "duration": 0.208333
            },
            {
              "pitch": 69,
              "velocity": 33,
              "position": 5.5,
              "duration": 0.208333
            },
            {
              "pitch": 35,
              "velocity": 70,
              "position": 5.75,
              "duration": 0.208333
            },
            {
              "pitch": 39,
              "velocity": 33,
              "position": 5.75,
              "duration": 0.208333
            },
            {
              "pitch": 35,
              "velocity": 70,
              "position": 6.0,
              "duration": 0.208333
            },
            {
              "pitch": 39,
              "velocity": 70,
              "position": 6.0,
              "duration": 0.208333
            },
            {
              "pitch": 69,
              "velocity": 33,
              "position": 6.0,
              "duration": 0.208333
            },
            {
              "pitch": 39,
              "velocity": 40,
              "position": 6.25,
              "duration": 0.208333
            },
            {
              "pitch": 39,
              "velocity": 50,
              "position": 6.5,
              "duration": 0.208333
            },
            {
              "pitch": 44,
              "velocity": 80,
              "position": 6.5,
              "duration": 0.208333
            },
            {
              "pitch": 61,
              "velocity": 50,
              "position": 6.5,
              "duration": 0.208333
            },
            {
              "pitch": 69,
              "velocity": 33,
              "position": 6.5,
              "duration": 0.208333
            },
            {
              "pitch": 39,
              "velocity": 70,
              "position": 6.75,
              "duration": 0.208333
            },
            {
              "pitch": 61,
              "velocity": 40,
              "position": 6.75,
              "duration": 0.208333
            },
            {
              "pitch": 39,
              "velocity": 70,
              "position": 7.0,
              "duration": 0.208333
            },
            {
              "pitch": 60,
              "velocity": 60,
              "position": 7.0,
              "duration": 0.208333
            },
            {
              "pitch": 61,
              "velocity": 60,
              "position": 7.0,
              "duration": 0.208333
            },
            {
              "pitch": 69,
              "velocity": 33,
              "position": 7.0,
              "duration": 0.208333
            },
            {
              "pitch": 39,
              "velocity": 40,
              "position": 7.25,
              "duration": 0.208333
            },
            {
              "pitch": 61,
              "velocity": 33,
              "position": 7.25,
              "duration": 0.208333
            },
            {
              "pitch": 39,
              "velocity": 50,
              "position": 7.5,
              "duration": 0.208333
            },
            {
              "pitch": 44,
              "velocity": 80,
              "position": 7.5,
              "duration": 0.208333
            },
            {
              "pitch": 69,
              "velocity": 33,
              "position": 7.5,
              "duration": 0.208333
            },
            {
              "pitch": 39,
              "velocity": 40,
              "position": 7.75,
              "duration": 0.208333
            },
            {
              "pitch": 61,
              "velocity": 40,
              "position": 7.75,
              "duration": 0.125
            },
            {
              "pitch": 61,
              "velocity": 32,
              "position": 7.875,
              "duration": 0.083333
            },
            {
              "pitch": 39,
              "velocity": 90,
              "position": 8.0,
              "duration": 0.208333
            },
            {
              "pitch": 54,
              "velocity": 80,
              "position": 8.0,
              "duration": 0.208333
            },
            {
              "pitch": 60,
              "velocity": 90,
              "position": 8.0,
              "duration": 0.208333
            },
            {
              "pitch": 69,
              "velocity": 44,
              "position": 8.0,
              "duration": 0.208333
            },
            {
              "pitch": 75,
              "velocity": 70,
              "position": 8.0,
              "duration": 0.208333
            },
            {
              "pitch": 39,
              "velocity": 40,
              "position": 8.25,
              "duration": 0.208333
            },
            {
              "pitch": 39,
              "velocity": 50,
              "position": 8.5,
              "duration": 0.208333
            },
            {
              "pitch": 44,
              "velocity": 80,
              "position": 8.5,
              "duration": 0.208333
            },
            {
              "pitch": 61,
              "velocity": 40,
              "position": 8.5,
              "duration": 0.208333
            },
            {
              "pitch": 69,
              "velocity": 33,
              "position": 8.5,
              "duration": 0.208333
            },
            {
              "pitch": 35,
              "velocity": 70,
              "position": 8.75,
              "duration": 0.208333
            },
            {
              "pitch": 39,
              "velocity": 40,
              "position": 8.75,
              "duration": 0.208333
            },
            {
              "pitch": 61,
              "velocity": 33,
              "position": 8.75,
              "duration": 0.208333
            },
            {
              "pitch": 35,
              "velocity": 70,
              "position": 9.0,
              "duration": 0.208333
            },
            {
              "pitch": 39,
              "velocity": 60,
              "position": 9.0,
              "duration": 0.208333
            },
            {
              "pitch": 69,
              "velocity": 33,
              "position": 9.0,
              "duration": 0.208333
            },
            {
              "pitch": 39,
              "velocity": 80,
              "position": 9.25,
              "duration": 0.208333
            },
            {
              "pitch": 39,
              "velocity": 50,
              "position": 9.5,
              "duration": 0.208333
            },
            {
              "pitch": 44,
              "velocity": 80,
              "position": 9.5,
              "duration": 0.208333
            },
            {
              "pitch": 69,
              "velocity": 33,
              "position": 9.5,
              "duration": 0.208333
            },
            {
              "pitch": 39,
              "velocity": 40,
              "position": 9.75,
              "duration": 0.208333
            },
            {
              "pitch": 61,
              "velocity": 40,
              "position": 9.75,
              "duration": 0.208333
            },
            {
              "pitch": 39,
              "velocity": 80,
              "position": 10.0,
              "duration": 0.208333
            },
            {
              "pitch": 61,
              "velocity": 60,
              "position": 10.0,
              "duration": 0.208333
            },
            {
              "pitch": 69,
              "velocity": 33,
              "position": 10.0,
              "duration": 0.208333
            },
            {
              "pitch": 39,
              "velocity": 40,
              "position": 10.25,
              "duration": 0.208333
            },
            {
              "pitch": 61,
              "velocity": 33,
              "position": 10.25,
              "duration": 0.208333
            },
            {
              "pitch": 39,
              "velocity": 60,
              "position": 10.5,
              "duration": 0.208333
            },
            {
              "pitch": 44,
              "velocity": 80,
              "position": 10.5,
              "duration": 0.208333
            },
            {
              "pitch": 69,
              "velocity": 33,
              "position": 10.5,
              "duration": 0.208333
            },
            {
              "pitch": 39,
              "velocity": 40,
              "position": 10.75,
              "duration": 0.208333
            },
            {
              "pitch": 61,
              "velocity": 40,
              "position": 10.75,
              "duration": 0.208333
            },
            {
              "pitch": 39,
              "velocity": 80,
              "position": 11.0,
              "duration": 0.208333
            },
            {
              "pitch": 54,
              "velocity": 80,
              "position": 11.0,
              "duration": 0.208333
            },
            {
              "pitch": 60,
              "velocity": 90,
              "position": 11.0,
              "duration": 0.208333
            },
            {
              "pitch": 69,
              "velocity": 44,
              "position": 11.0,
              "duration": 0.208333
            },
            {
              "pitch": 75,
              "velocity": 70,
              "position": 11.0,
              "duration": 0.208333
            },
            {
              "pitch": 39,
              "velocity": 40,
              "position": 11.25,
              "duration": 0.208333
            },
            {
              "pitch": 39,
              "velocity": 50,
              "position": 11.5,
              "duration": 0.208333
            },
            {
              "pitch": 44,
              "velocity": 80,
              "position": 11.5,
              "duration": 0.208333
            },
            {
              "pitch": 61,
              "velocity": 40,
              "position": 11.5,
              "duration": 0.208333
            },
            {
              "pitch": 69,
              "velocity": 33,
              "position": 11.5,
              "duration": 0.208333
            },
            {
              "pitch": 35,
              "velocity": 70,
              "position": 11.75,
              "duration": 0.208333
            },
            {
              "pitch": 39,
              "velocity": 33,
              "position": 11.75,
              "duration": 0.208333
            }
          ]
        },
        "10": {
          "ctab": {
            "srcChannel": 10,
            "name": "Bass",
            "accType": "BASS",
            "editable": true,
            "mutedNotes": [],
            "mutedChords": [],
            "sourceChordNote": 0,
            "sourceChordType": "Maj7",
            "ctb2Main": {
              "ntr": "ROOT_TRANSPOSITION",
              "ntt": "BYPASS",
              "bassOn": true,
              "noteLowLimit": 20,
              "noteHighLimit": 60,
              "chordRootUpperLimit": 127,
              "rtr": "NOTE_GENERATOR"
            }
          },
          "notes": [
            {
              "pitch": 36,
              "velocity": 72,
              "position": 0.0,
              "duration": 1.991667
            },
            {
              "pitch": 36,
              "velocity": 72,
              "position": 2.0,
              "duration": 0.991667
            },
            {
              "pitch": 36,
              "velocity": 72,
              "position": 3.0,
              "duration": 1.991667
            },
            {
              "pitch": 36,
              "velocity": 72,
              "position": 5.0,
              "duration": 0.991667
            },
            {
              "pitch": 36,
              "velocity": 72,
              "position": 6.0,
              "duration": 2.95
            },
            {
              "pitch": 36,
              "velocity": 58,
              "position": 9.0,
              "duration": 2.866667
            }
          ]
        },
        "11": {
          "ctab": {
            "srcChannel": 11,
            "name": "Piano",
            "accType": "CHORD1",
            "editable": true,
            "mutedNotes": [],
            "mutedChords": [],
            "sourceChordNote": 0,
            "sourceChordType": "Maj7",
            "ctb2Main": {
              "ntr": "ROOT_FIXED",
              "ntt": "CHORD",
              "bassOn": false,
              "noteLowLimit": 48,
              "noteHighLimit": 84,
              "chordRootUpperLimit": 127,
              "rtr": "NOTE_GENERATOR"
            }
          },
          "notes": [
            {
              "pitch": 74,
              "velocity": 32,
              "position": 6.508333,
              "duration": 2.216667
            },
            {
              "pitch": 76,
              "velocity": 41,
              "position": 6.766667,
              "duration": 1.933333
            },
            {
              "pitch": 81,
              "velocity": 59,
              "position": 7.016667,
              "duration": 1.425
            },
            {
              "pitch": 83,
              "velocity": 51,
              "position": 7.275,
              "duration": 0.3
            },
            {
              "pitch": 86,
              "velocity": 56,
              "position": 7.525,
              "duration": 0.266667
            },
            {
              "pitch": 91,
              "velocity": 42,
              "position": 7.766667,
              "duration": 0.291667
            },
            {
              "pitch": 88,
              "velocity": 34,
              "position": 8.008333,
              "duration": 0.358333
            },
            {
              "pitch": 83,
              "velocity": 21,
              "position": 9.791667,
              "duration": 0.175
            },
            {
              "pitch": 81,
              "velocity": 14,
              "position": 9.875,
              "duration": 0.166667
            },
            {
              "pitch": 76,
              "velocity": 33,
              "position": 10.041667,
              "duration": 0.083333
            }
          ]
        },
        "12": {
          "ctab": {
            "srcChannel": 12,
            "name": "Guitar",
            "accType": "CHORD2",
            "editable": true,
            "mutedNotes": [],
            "mutedChords": [],
            "sourceChordNote": 0,
            "sourceChordType": "Maj7",
            "ctb2Main": {
              "ntr": "ROOT_FIXED",
              "ntt": "CHORD",
              "bassOn": false,
              "noteLowLimit": 40,
              "noteHighLimit": 76,
              "chordRootUpperLimit": 127,
              "rtr": "NOTE_GENERATOR"
            }
          },
          "notes": [
            {
              "pitch": 55,
              "velocity": 57,
              "position": 0.25,
              "duration": 0.208333
            },
            {
              "pitch": 59,
              "velocity": 59,
              "position": 0.5,
              "duration": 0.133333
            },
            {
              "pitch": 55,
              "velocity": 50,
              "position": 0.75,
              "duration": 0.133333
            },
            {
              "pitch": 60,
              "velocity": 50,
              "position": 1.0,
              "duration": 0.241667
            },
            {
              "pitch": 59,
              "velocity": 59,
              "position": 1.5,
              "duration": 0.166667
            },
            {
              "pitch": 55,
              "velocity": 53,
              "position": 1.75,
              "duration": 0.133333
            },
            {
              "pitch": 48,
              "velocity": 57,
              "position": 2.0,
              "duration": 0.116667
            },
            {
              "pitch": 59,
              "velocity": 57,
              "position": 2.25,
              "duration": 0.208333
            },
            {
              "pitch": 60,
              "velocity": 59,
              "position": 2.5,
              "duration": 0.133333
            },
            {
              "pitch": 55,
              "velocity": 50,
              "position": 2.758333,
              "duration": 0.2
            },
            {
              "pitch": 48,
              "velocity": 57,
              "position": 3.0,
              "duration": 0.116667
            },
            {
              "pitch": 55,
              "velocity": 57,
              "position": 3.25,
              "duration": 0.208333
            },
            {
              "pitch": 59,
              "velocity": 59,
              "position": 3.5,
              "duration": 0.133333
            },
            {
              "pitch": 55,
              "velocity": 50,
              "position": 3.75,
              "duration": 0.133333
            },
            {
              "pitch": 60,
              "velocity": 92,
              "position": 4.0,
              "duration": 0.241667
            },
            {
              "pitch": 59,
              "velocity": 59,
              "position": 4.5,
              "duration": 0.166667
            },
            {
              "pitch": 55,
              "velocity": 53,
              "position": 4.75,
              "duration": 0.133333
            },
            {
              "pitch": 52,
              "velocity": 57,
              "position": 5.0,
              "duration": 0.116667
            },
            {
              "pitch": 59,
              "velocity": 57,
              "position": 5.25,
              "duration": 0.208333
            },
            {
              "pitch": 60,
              "velocity": 59,
              "position": 5.5,
              "duration": 0.133333
            },
            {
              "pitch": 55,
              "velocity": 50,
              "position": 5.758333,
              "duration": 0.2
            },
            {
              "pitch": 55,
              "velocity": 57,
              "position": 6.25,
              "duration": 0.208333
            },
            {
              "pitch": 59,
              "velocity": 59,
              "position": 6.5,
              "duration": 0.133333
            },
            {
              "pitch": 55,
              "velocity": 50,
              "position": 6.75,
              "duration": 0.133333
            },
            {
              "pitch": 60,
              "velocity": 50,
              "position": 7.0,
              "duration": 0.241667
            },
            {
              "pitch": 59,
              "velocity": 59,
              "position": 7.5,
              "duration": 0.166667
            },
            {
              "pitch": 55,
              "velocity": 53,
              "position": 7.75,
              "duration": 0.133333
            },
            {
              "pitch": 52,
              "velocity": 51,
              "position": 8.0,
              "duration": 0.158333
            },
            {
              "pitch": 59,
              "velocity": 60,
              "position": 8.25,
              "duration": 0.175
            },
            {
              "pitch": 60,
              "velocity": 58,
              "position": 8.5,
              "duration": 0.133333
            },
            {
              "pitch": 59,
              "velocity": 62,
              "position": 8.75,
              "duration": 0.1
            },
            {
              "pitch": 48,
              "velocity": 68,
              "position": 9.0,
              "duration": 0.183333
            },
            {
              "pitch": 55,
              "velocity": 57,
              "position": 9.25,
              "duration": 0.2
            },
            {
              "pitch": 59,
              "velocity": 57,
              "position": 9.5,
              "duration": 0.166667
            },
            {
              "pitch": 55,
              "velocity": 41,
              "position": 9.75,
              "duration": 0.15
            },
            {
              "pitch": 60,
              "velocity": 89,
              "position": 10.0,
              "duration": 0.333333
            },
            {
              "pitch": 59,
              "velocity": 57,
              "position": 10.5,
              "duration": 0.158333
            },
            {
              "pitch": 55,
              "velocity": 58,
              "position": 10.75,
              "duration": 0.15
            },
            {
              "pitch": 52,
              "velocity": 63,
              "position": 11.0,
              "duration": 0.166667
            },
            {
              "pitch": 59,
              "velocity": 59,
              "position": 11.25,
              "duration": 0.175
            },
            {
              "pitch": 60,
              "velocity": 68,
              "position": 11.5,
              "duration": 0.166667
            },
            {
              "pitch": 59,
              "velocity": 48,
              "position": 11.75,
              "duration": 0.091667
            }
          ]
        },
        "13": {
          "ctab": {
            "srcChannel": 13,
            "name": "Strings",
            "accType": "PAD",
            "editable": true,
            "mutedNotes": [],
            "mutedChords": [],
            "sourceChordNote": 0,
            "sourceChordType": "Maj7",
            "ctb2Main": {
              "ntr": "ROOT_FIXED",
              "ntt": "MELODY",
              "bassOn": false,
              "noteLowLimit": 36,
              "noteHighLimit": 96,
              "chordRootUpperLimit": 127,
              "rtr": "PITCH_SHIFT"
            }
          },
          "notes": [
            {
              "pitch": 59,
              "velocity": 44,
              "position": 0.0,
              "duration": 2.0
            },
            {
              "pitch": 60,
              "velocity": 44,
              "position": 0.0,
              "duration": 2.0
            },
            {
              "pitch": 64,
              "velocity": 44,
              "position": 0.0,
              "duration": 2.0
            },
            {
              "pitch": 67,
              "velocity": 44,
              "position": 0.0,
              "duration": 2.0
            },
            {
              "pitch": 59,
              "velocity": 44,
              "position": 2.0,
              "duration": 1.0
            },
            {
              "pitch": 60,
              "velocity": 44,
              "position": 2.0,
              "duration": 1.0
            },
            {
              "pitch": 64,
              "velocity": 44,
              "position": 2.0,
              "duration": 1.0
            },
            {
              "pitch": 67,
              "velocity": 44,
              "position": 2.0,
              "duration": 1.0
            },
            {
              "pitch": 59,
              "velocity": 44,
              "position": 3.0,
              "duration": 2.0
            },
            {
              "pitch": 60,
              "velocity": 44,
              "position": 3.0,
              "duration": 2.0
            },
            {
              "pitch": 64,
              "velocity": 44,
              "position": 3.0,
              "duration": 2.0
            },
            {
              "pitch": 67,
              "velocity": 44,
              "position": 3.0,
              "duration": 2.0
            },
            {
              "pitch": 59,
              "velocity": 44,
              "position": 5.0,
              "duration": 1.0
            },
            {
              "pitch": 60,
              "velocity": 44,
              "position": 5.0,
              "duration": 1.0
            },
            {
              "pitch": 64,
              "velocity": 44,
              "position": 5.0,
              "duration": 1.0
            },
            {
              "pitch": 67,
              "velocity": 44,
              "position": 5.0,
              "duration": 1.0
            },
            {
              "pitch": 59,
              "velocity": 44,
              "position": 6.0,
              "duration": 6.0
            },
            {
              "pitch": 60,
              "velocity": 44,
              "position": 6.0,
              "duration": 6.0
            },
            {
              "pitch": 64,
              "velocity": 44,
              "position": 6.0,
              "duration": 6.0
            },
            {
              "pitch": 67,
              "velocity": 44,
              "position": 6.0,
              "duration": 6.0
            }
          ]
        }
      }
    },
    "Main_D": {
      "type": "Main_D",
      "sizeInBeats": 12,
      "channels": {
        "9": {
          "ctab": {
            "srcChannel": 9,
            "name": "Drums",
            "accType": "RHYTHM",
            "editable": false,
            "mutedNotes": [],
            "mutedChords": [],
            "sourceChordNote": 0,
            "sourceChordType": "Maj",
            "ctb2Main": {
              "ntr": "ROOT_FIXED",
              "ntt": "BYPASS",
              "bassOn": false,
              "noteLowLimit": 20,
              "noteHighLimit": 127,
              "chordRootUpperLimit": 127,
              "rtr": "RETRIGGER"
            }
          },
          "notes": [
            {
              "pitch": 35,
              "velocity": 70,
              "position": 0.0,
              "duration": 0.208333
            },
            {
              "pitch": 39,
              "velocity": 70,
              "position": 0.0,
              "duration": 0.208333
            },
            {
              "pitch": 49,
              "velocity": 70,
              "position": 0.0,
              "duration": 0.208333
            },
            {
              "pitch": 69,
              "velocity": 33,
              "position": 0.0,
              "duration": 0.208333
            },
            {
              "pitch": 39,
              "velocity": 40,
              "position": 0.25,
              "duration": 0.208333
            },
            {
              "pitch": 39,
              "velocity": 50,
              "position": 0.5,
              "duration": 0.208333
            },
            {
              "pitch": 44,
              "velocity": 80,
              "position": 0.5,
              "duration": 0.208333
            },
            {
              "pitch": 61,
              "velocity": 40,
              "position": 0.5,
              "duration": 0.208333
            },
            {
              "pitch": 69,
              "velocity": 33,
              "position": 0.5,
              "duration": 0.208333
            },
            {
              "pitch": 39,
              "velocity": 40,
              "position": 0.75,
              "duration": 0.208333
            },
            {
              "pitch": 39,
              "velocity": 70,
              "position": 1.0,
              "duration": 0.208333
            },
            {
              "pitch": 61,
              "velocity": 60,
              "position": 1.0,
              "duration": 0.208333
            },
            {
              "pitch": 69,
              "velocity": 33,
              "position": 1.0,
              "duration": 0.208333
            },
            {
              "pitch": 39,
              "velocity": 40,
              "position": 1.25,
              "duration": 0.208333
            },
            {
              "pitch": 61,
              "velocity": 33,
              "position": 1.25,
              "duration": 0.208333
            },
            {
              "pitch": 39,
              "velocity": 50,
              "position": 1.5,
              "duration": 0.208333
            },
            {
              "pitch": 44,
              "velocity": 80,
              "position": 1.5,
              "duration": 0.208333
            },
            {
              "pitch": 69,
              "velocity": 33,
              "position": 1.5,
              "duration": 0.208333
            },
            {
              "pitch": 39,
              "velocity": 40,
              "position": 1.75,
              "duration": 0.208333
            },
            {
              "pitch": 61,
              "velocity": 40,
              "position": 1.75,
              "duration": 0.208333
            },
            {
              "pitch": 39,
              "velocity": 90,
              "position": 2.0,
              "duration": 0.208333
            },
            {
              "pitch": 54,
              "velocity": 80,
              "position": 2.0,
              "duration": 0.208333
            },
            {
              "pitch": 60,
              "velocity": 60,
              "position": 2.0,
              "duration": 0.208333
            },
            {
              "pitch": 69,
              "velocity": 44,
              "position": 2.0,
              "duration": 0.208333
            },
            {
              "pitch": 75,
              "velocity": 70,
              "position": 2.0,
              "duration": 0.208333
            },
            {
              "pitch": 39,
              "velocity": 40,
              "position": 2.25,
              "duration": 0.208333
            },
            {
              "pitch": 39,
              "velocity": 50,
              "position": 2.5,
              "duration": 0.208333
            },
            {
              "pitch": 44,
              "velocity": 80,
              "position": 2.5,
              "duration": 0.208333
            },
            {
              "pitch": 61,
              "velocity": 40,
              "position": 2.5,
              "duration": 0.208333
            },
            {
              "pitch": 69,
              "velocity": 33,
              "position": 2.5,
              "duration": 0.208333
            },
            {
              "pitch": 35,
              "velocity": 70,
              "position": 2.75,
              "duration": 0.208333
            },
            {
              "pitch": 39,
              "velocity": 40,
              "position": 2.75,
              "duration": 0.208333
            },
            {
              "pitch": 35,
              "velocity": 70,
              "position": 3.0,
              "duration": 0.208333
            },
            {
              "pitch": 39,
              "velocity": 40,
              "position": 3.0,
              "duration": 0.208333
            },
            {
              "pitch": 69,
              "velocity": 33,
              "position": 3.0,
              "duration": 0.208333
            },
            {
              "pitch": 39,
              "velocity": 50,
              "position": 3.25,
              "duration": 0.208333
            },
            {
              "pitch": 39,
              "velocity": 60,
              "position": 3.5,
              "duration": 0.208333
            },
            {
              "pitch": 44,
              "velocity": 80,
              "position": 3.5,
              "duration": 0.208333
            },
            {
              "pitch": 61,
              "velocity": 50,
              "position": 3.5,
              "duration": 0.208333
            },
            {
              "pitch": 69,
              "velocity": 33,
              "position": 3.5,
              "duration": 0.208333
            },
            {
              "pitch": 39,
              "velocity": 40,
              "position": 3.75,
              "duration": 0.208333
            },
            {
              "pitch": 39,
              "velocity": 80,
              "position": 4.0,
              "duration": 0.208333
            },
            {
              "pitch": 60,
              "velocity": 90,
              "position": 4.0,
              "duration": 0.208333
            },
            {
              "pitch": 69,
              "velocity": 33,
              "position": 4.0,
              "duration": 0.208333
            },
            {
              "pitch": 39,
              "velocity": 50,
              "position": 4.25,
              "duration": 0.208333
            },
            {
              "pitch": 61,
              "velocity": 50,
              "position": 4.25,
              "duration": 0.208333
            },
            {
              "pitch": 80,
              "velocity": 33,
              "position": 4.25,
              "duration": 0.208333
            },
            {
              "pitch": 39,
              "velocity": 33,
              "position": 4.5,
              "duration": 0.208333
            },
            {
              "pitch": 44,
              "velocity": 80,
              "position": 4.5,
              "duration": 0.208333
            },
            {
              "pitch": 69,
              "velocity": 33,
              "position": 4.5,
              "duration": 0.208333
            },
            {
              "pitch": 39,
              "velocity": 60,
              "position": 4.75,
              "duration": 0.208333
            },
            {
              "pitch": 61,
              "velocity": 40,
              "position": 4.75,
              "duration": 0.208333
            },
            {
              "pitch": 80,
              "velocity": 33,
              "position": 4.75,
              "duration": 0.208333
            },
            {
              "pitch": 39,
              "velocity": 90,
              "position": 5.0,
              "duration": 0.208333
            },
            {
              "pitch": 54,
              "velocity": 80,
              "position": 5.0,
              "duration": 0.208333
            },
            {
              "pitch": 60,
              "velocity": 60,
              "position": 5.0,
              "duration": 0.208333
            },
            {
              "pitch": 69,
              "velocity": 44,
              "position": 5.0,
              "duration": 0.208333
            },
            {
              "pitch": 75,
              "velocity": 70,
              "position": 5.0,
              "duration": 0.208333
            },
            {
              "pitch": 81,
              "velocity": 44,
              "position": 5.0,
              "duration": 0.208333
            },
            {
              "pitch": 39,
              "velocity": 50,
              "position": 5.25,
              "duration": 0.208333
            },
            {
              "pitch": 39,
              "velocity": 70,
              "position": 5.5,
              "duration": 0.208333
            },
            {
              "pitch": 44,
              "velocity": 80,
              "position": 5.5,
              "duration": 0.208333
            },
            {
              "pitch": 61,
              "velocity": 50,
              "position": 5.5,
              "duration": 0.208333
            },
            {
              "pitch": 69,
              "velocity": 33,
              "position": 5.5,
              "duration": 0.208333
            },
            {
              "pitch": 35,
              "velocity": 70,
              "position": 5.75,
              "duration": 0.208333
            },
            {
              "pitch": 39,
              "velocity": 50,
              "position": 5.75,
              "duration": 0.125
            },
            {
              "pitch": 39,
              "velocity": 40,
              "position": 5.875,
              "duration": 0.083333
            },
            {
              "pitch": 35,
              "velocity": 70,
              "position": 6.0,
              "duration": 0.208333
            },
            {
              "pitch": 39,
              "velocity": 60,
              "position": 6.0,
              "duration": 0.083333
            },
            {
              "pitch": 69,
              "velocity": 33,
              "position": 6.0,
              "duration": 0.208333
            },
            {
              "pitch": 39,
              "velocity": 80,
              "position": 6.25,
              "duration": 0.208333
            },
            {
              "pitch": 39,
              "velocity": 50,
              "position": 6.5,
              "duration": 0.208333
            },
            {
              "pitch": 44,
              "velocity": 80,
              "position": 6.5,
              "duration": 0.208333
            },
            {
              "pitch": 69,
              "velocity": 33,
              "position": 6.5,
              "duration": 0.208333
            },
            {
              "pitch": 39,
              "velocity": 40,
              "position": 6.75,
              "duration": 0.208333
            },
            {
              "pitch": 61,
              "velocity": 40,
              "position": 6.75,
              "duration": 0.208333
            },
            {
              "pitch": 39,
              "velocity": 80,
              "position": 7.0,
              "duration": 0.208333
            },
            {
              "pitch": 61,
              "velocity": 60,
              "position": 7.0,
              "duration": 0.208333
            },
            {
              "pitch": 69,
              "velocity": 33,
              "position": 7.0,
              "duration": 0.208333
            },
            {
              "pitch": 39,
              "velocity": 40,
              "position": 7.25,
              "duration": 0.208333
            },
            {
              "pitch": 61,
              "velocity": 33,
              "position": 7.25,
              "duration": 0.208333
            },
            {
              "pitch": 39,
              "velocity": 60,
              "position": 7.5,
              "duration": 0.208333
            },
            {
              "pitch": 44,
              "velocity": 80,
              "position": 7.5,
              "duration": 0.208333
            },
            {
              "pitch": 69,
              "velocity": 33,
              "position": 7.5,
              "duration": 0.208333
            },
            {
              "pitch": 39,
              "velocity": 40,
              "position": 7.75,
              "duration": 0.208333
            },
            {
              "pitch": 61,
              "velocity": 40,
              "position": 7.75,
              "duration": 0.208333
            },
            {
              "pitch": 39,
              "velocity": 80,
              "position": 8.0,
              "duration": 0.208333
            },
            {
              "pitch": 54,
              "velocity": 80,
              "position": 8.0,
              "duration": 0.208333
            },
            {
              "pitch": 60,
              "velocity": 60,
              "position": 8.0,
              "duration": 0.208333
            },
            {
              "pitch": 69,
              "velocity": 44,
              "position": 8.0,
              "duration": 0.208333
            },
            {
              "pitch": 75,
              "velocity": 70,
              "position": 8.0,
              "duration": 0.208333
            },
            {
              "pitch": 39,
              "velocity": 40,
              "position": 8.25,
              "duration": 0.208333
            },
            {
              "pitch": 39,
              "velocity": 50,
              "position": 8.5,
              "duration": 0.208333
            },
            {
              "pitch": 44,
              "velocity": 80,
              "position": 8.5,
              "duration": 0.208333
            },
            {
              "pitch": 61,
              "velocity": 40,
              "position": 8.5,
              "duration": 0.208333
            },
            {
              "pitch": 69,
              "velocity": 33,
              "position": 8.5,
              "duration": 0.208333
            },
            {
              "pitch": 35,
              "velocity": 70,
              "position": 8.75,
              "duration": 0.208333
            },
            {
              "pitch": 39,
              "velocity": 33,
              "position": 8.75,
              "duration": 0.208333
            },
            {
              "pitch": 35,
              "velocity": 70,
              "position": 9.0,
              "duration": 0.208333
            },
            {
              "pitch": 39,
              "velocity": 40,
              "position": 9.0,
              "duration": 0.208333
            },
            {
              "pitch": 69,
              "velocity": 33,
              "position": 9.0,
              "duration": 0.208333
            },
            {
              "pitch": 39,
              "velocity": 50,
              "position": 9.25,
              "duration": 0.208333
            },
            {
              "pitch": 39,
              "velocity": 60,
              "position": 9.5,
              "duration": 0.208333
            },
            {
              "pitch": 44,
              "velocity": 80,
              "position": 9.5,
              "duration": 0.208333
            },
            {
              "pitch": 61,
              "velocity": 50,
              "position": 9.5,
              "duration": 0.208333
            },
            {
              "pitch": 69,
              "velocity": 33,
              "position": 9.5,
              "duration": 0.208333
            },
            {
              "pitch": 39,
              "velocity": 40,
              "position": 9.75,
              "duration": 0.208333
            },
            {
              "pitch": 39,
              "velocity": 80,
              "position": 10.0,
              "duration": 0.208333
            },
            {
              "pitch": 60,
              "velocity": 90,
              "position": 10.0,
              "duration": 0.208333
            },
            {
              "pitch": 69,
              "velocity": 33,
              "position": 10.0,
              "duration": 0.208333
            },
            {
              "pitch": 39,
              "velocity": 50,
              "position": 10.25,
              "duration": 0.208333
            },
            {
              "pitch": 61,
              "velocity": 50,
              "position": 10.25,
              "duration": 0.208333
            },
            {
              "pitch": 39,
              "velocity": 33,
              "position": 10.5,
              "duration": 0.208333
            },
            {
              "pitch": 44,
              "velocity": 80,
              "position": 10.5,
              "duration": 0.208333
            },
            {
              "pitch": 69,
              "velocity": 33,
              "position": 10.5,
              "duration": 0.208333
            },
            {
              "pitch": 39,
              "velocity": 60,
              "position": 10.75,
              "duration": 0.208333
            },
            {
              "pitch": 61,
              "velocity": 40,
              "position": 10.75,
              "duration": 0.208333
            },
            {
              "pitch": 39,
              "velocity": 90,
              "position": 11.0,
              "duration": 0.208333
            },
            {
              "pitch": 54,
              "velocity": 80,
              "position": 11.0,
              "duration": 0.208333
            },
            {
              "pitch": 60,
              "velocity": 60,
              "position": 11.0,
              "duration": 0.208333
            },
            {
              "pitch": 69,
              "velocity": 44,
              "position": 11.0,
              "duration": 0.208333
            },
            {
              "pitch": 75,
              "velocity": 70,
              "position": 11.0,
              "duration": 0.208333
            },
            {
              "pitch": 39,
              "velocity": 50,
              "position": 11.25,
              "duration": 0.208333
            },
            {
              "pitch": 39,
              "velocity": 70,
              "position": 11.5,
              "duration": 0.208333
            },
            {
              "pitch": 44,
              "velocity": 80,
              "position": 11.5,
              "duration": 0.208333
            },
            {
              "pitch": 61,
              "velocity": 50,
              "position": 11.5,
              "duration": 0.208333
            },
            {
              "pitch": 69,
              "velocity": 33,
              "position": 11.5,
              "duration": 0.208333
            },
            {
              "pitch": 35,
              "velocity": 70,
              "position": 11.75,
              "duration": 0.208333
            },
            {
              "pitch": 39,
              "velocity": 50,
              "position": 11.75,
              "duration": 0.125
            },
            {
              "pitch": 39,
              "velocity": 40,
              "position": 11.875,
              "duration": 0.083333
            }
          ]
        },
        "10": {
          "ctab": {
            "srcChannel": 10,
            "name": "Bass",
            "accType": "BASS",
            "editable": true,
            "mutedNotes": [],
            "mutedChords": [],
            "sourceChordNote": 0,
            "sourceChordType": "Maj7",
            "ctb2Main": {
              "ntr": "ROOT_TRANSPOSITION",
              "ntt": "BYPASS",
              "bassOn": true,
              "noteLowLimit": 20,
              "noteHighLimit": 60,
              "chordRootUpperLimit": 127,
              "rtr": "NOTE_GENERATOR"
            }
          },
          "notes": [
            {
              "pitch": 36,
              "velocity": 72,
              "position": 0.0,
              "duration": 1.991667
            },
            {
              "pitch": 36,
              "velocity": 72,
              "position": 2.0,
              "duration": 0.991667
            },
            {
              "pitch": 36,
              "velocity": 72,
              "position": 3.0,
              "duration": 1.991667
            },
            {
              "pitch": 36,
              "velocity": 72,
              "position": 5.0,
              "duration": 0.991667
            },
            {
              "pitch": 36,
              "velocity": 72,
              "position": 6.0,
              "duration": 2.75
            },
            {
              "pitch": 31,
              "velocity": 37,
              "position": 8.75,
              "duration": 0.25
            },
            {
              "pitch": 36,
              "velocity": 58,
              "position": 9.0,
              "duration": 2.866667
            }
          ]
        },
        "11": {
          "ctab": {
            "srcChannel": 11,
            "name": "Piano",
            "accType": "CHORD1",
            "editable": true,
            "mutedNotes": [],
            "mutedChords": [],
            "sourceChordNote": 0,
            "sourceChordType": "Maj7",
            "ctb2Main": {
              "ntr": "ROOT_FIXED",
              "ntt": "CHORD",
              "bassOn": false,
              "noteLowLimit": 48,
              "noteHighLimit": 84,
              "chordRootUpperLimit": 127,
              "rtr": "NOTE_GENERATOR"
            }
          },
          "notes": [
            {
              "pitch": 83,
              "velocity": 36,
              "position": 6.0,
              "duration": 6.0
            },
            {
              "pitch": 76,
              "velocity": 26,
              "position": 6.016667,
              "duration": 5.983333
            },
            {
              "pitch": 79,
              "velocity": 42,
              "position": 6.016667,
              "duration": 5.983333
            }
          ]
        },
        "12": {
          "ctab": {
            "srcChannel": 12,
            "name": "Guitar",
            "accType": "CHORD2",
            "editable": true,
            "mutedNotes": [],
            "mutedChords": [],
            "sourceChordNote": 0,
            "sourceChordType": "Maj7",
            "ctb2Main": {
              "ntr": "ROOT_FIXED",
              "ntt": "CHORD",
              "bassOn": false,
              "noteLowLimit": 40,
              "noteHighLimit": 76,
              "chordRootUpperLimit": 127,
              "rtr": "NOTE_GENERATOR"
            }
          },
          "notes": [
            {
              "pitch": 55,
              "velocity": 57,
              "position": 0.25,
              "duration": 0.208333
            },
            {
              "pitch": 59,
              "velocity": 59,
              "position": 0.5,
              "duration": 0.133333
            },
            {
              "pitch": 55,
              "velocity": 50,
              "position": 0.75,
              "duration": 0.133333
            },
            {
              "pitch": 60,
              "velocity": 50,
              "position": 1.0,
              "duration": 0.241667
            },
            {
              "pitch": 59,
              "velocity": 59,
              "position": 1.5,
              "duration": 0.166667
            },
            {
              "pitch": 55,
              "velocity": 53,
              "position": 1.75,
              "duration": 0.133333
            },
            {
              "pitch": 48,
              "velocity": 57,
              "position": 2.0,
              "duration": 0.116667
            },
            {
              "pitch": 59,
              "velocity": 57,
              "position": 2.25,
              "duration": 0.208333
            },
            {
              "pitch": 60,
              "velocity": 59,
              "position": 2.5,
              "duration": 0.133333
            },
            {
              "pitch": 55,
              "velocity": 50,
              "position": 2.758333,
              "duration": 0.2
            },
            {
              "pitch": 55,
              "velocity": 57,
              "position": 3.25,
              "duration": 0.208333
            },
            {
              "pitch": 59,
              "velocity": 59,
              "position": 3.5,
              "duration": 0.133333
            },
            {
              "pitch": 55,
              "velocity": 50,
              "position": 3.75,
              "duration": 0.133333
            },
            {
              "pitch": 60,
              "velocity": 50,
              "position": 4.0,
              "duration": 0.241667
            },
            {
              "pitch": 59,
              "velocity": 59,
              "position": 4.5,
              "duration": 0.166667
            },
            {
              "pitch": 55,
              "velocity": 53,
              "position": 4.75,
              "duration": 0.133333
            },
            {
              "pitch": 52,
              "velocity": 57,
              "position": 5.0,
              "duration": 0.116667
            },
            {
              "pitch": 59,
              "velocity": 57,
              "position": 5.25,
              "duration": 0.208333
            },
            {
              "pitch": 60,
              "velocity": 59,
              "position": 5.5,
              "duration": 0.133333
            },
            {
              "pitch": 55,
              "velocity": 50,
              "position": 5.758333,
              "duration": 0.2
            },
            {
              "pitch": 48,
              "velocity": 57,
              "position": 6.0,
              "duration": 0.116667
            },
            {
              "pitch": 55,
              "velocity": 57,
              "position": 6.25,
              "duration": 0.208333
            },
            {
              "pitch": 59,
              "velocity": 59,
              "position": 6.5,
              "duration": 0.133333
            },
            {
              "pitch": 55,
              "velocity": 50,
              "position": 6.75,
              "duration": 0.133333
            },
            {
              "pitch": 60,
              "velocity": 92,
              "position": 7.0,
              "duration": 0.241667
            },
            {
              "pitch": 59,
              "velocity": 59,
              "position": 7.5,
              "duration": 0.166667
            },
            {
              "pitch": 55,
              "velocity": 53,
              "position": 7.75,
              "duration": 0.133333
            },
            {
              "pitch": 52,
              "velocity": 51,
              "position": 8.0,
              "duration": 0.158333
            },
            {
              "pitch": 59,
              "velocity": 60,
              "position": 8.25,
              "duration": 0.175
            },
            {
              "pitch": 60,
              "velocity": 58,
              "position": 8.5,
              "duration": 0.133333
            },
            {
              "pitch": 59,
              "velocity": 62,
              "position": 8.75,
              "duration": 0.1
            },
            {
              "pitch": 48,
              "velocity": 68,
              "position": 9.0,
              "duration": 0.183333
            },
            {
              "pitch": 55,
              "velocity": 57,
              "position": 9.25,
              "duration": 0.2
            },
            {
              "pitch": 59,
              "velocity": 57,
              "position": 9.5,
              "duration": 0.166667
            },
            {
              "pitch": 55,
              "velocity": 41,
              "position": 9.75,
              "duration": 0.15
            },
            {
              "pitch": 60,
              "velocity": 89,
              "position": 10.0,
              "duration": 0.333333
            },
            {
              "pitch": 59,
              "velocity": 57,
              "position": 10.5,
              "duration": 0.158333
            },
            {
              "pitch": 55,
              "velocity": 58,
              "position": 10.75,
              "duration": 0.15
            },
            {
              "pitch": 52,
              "velocity": 63,
              "position": 11.0,
              "duration": 0.166667
            },
            {
              "pitch": 59,
              "velocity": 59,
              "position": 11.25,
              "duration": 0.175
            },
            {
              "pitch": 60,
              "velocity": 68,
              "position": 11.5,
              "duration": 0.166667
            },
            {
              "pitch": 59,
              "velocity": 48,
              "position": 11.75,
              "duration": 0.091667
            }
          ]
        },
        "13": {
          "ctab": {
            "srcChannel": 13,
            "name": "Strings",
            "accType": "PAD",
            "editable": true,
            "mutedNotes": [],
            "mutedChords": [],
            "sourceChordNote": 0,
            "sourceChordType": "Maj7",
            "ctb2Main": {
              "ntr": "ROOT_FIXED",
              "ntt": "MELODY",
              "bassOn": false,
              "noteLowLimit": 36,
              "noteHighLimit": 96,
              "chordRootUpperLimit": 127,
              "rtr": "PITCH_SHIFT"
            }
          },
          "notes": [
            {
              "pitch": 59,
              "velocity": 44,
              "position": 0.0,
              "duration": 2.0
            },
            {
              "pitch": 60,
              "velocity": 44,
              "position": 0.0,
              "duration": 2.0
            },
            {
              "pitch": 64,
              "velocity": 44,
              "position": 0.0,
              "duration": 2.0
            },
            {
              "pitch": 67,
              "velocity": 44,
              "position": 0.0,
              "duration": 2.0
            },
            {
              "pitch": 59,
              "velocity": 44,
              "position": 2.0,
              "duration": 1.0
            },
            {
              "pitch": 60,
              "velocity": 44,
              "position": 2.0,
              "duration": 1.0
            },
            {
              "pitch": 64,
              "velocity": 44,
              "position": 2.0,
              "duration": 1.0
            },
            {
              "pitch": 67,
              "velocity": 44,
              "position": 2.0,
              "duration": 1.0
            },
            {
              "pitch": 59,
              "velocity": 44,
              "position": 3.0,
              "duration": 2.0
            },
            {
              "pitch": 60,
              "velocity": 44,
              "position": 3.0,
              "duration": 2.0
            },
            {
              "pitch": 64,
              "velocity": 44,
              "position": 3.0,
              "duration": 2.0
            },
            {
              "pitch": 67,
              "velocity": 44,
              "position": 3.0,
              "duration": 2.0
            },
            {
              "pitch": 59,
              "velocity": 44,
              "position": 5.0,
              "duration": 1.0
            },
            {
              "pitch": 60,
              "velocity": 44,
              "position": 5.0,
              "duration": 1.0
            },
            {
              "pitch": 64,
              "velocity": 44,
              "position": 5.0,
              "duration": 1.0
            },
            {
              "pitch": 67,
              "velocity": 44,
              "position": 5.0,
              "duration": 1.0
            },
            {
              "pitch": 59,
              "velocity": 44,
              "position": 6.0,
              "duration": 6.0
            },
            {
              "pitch": 60,
              "velocity": 44,
              "position": 6.0,
              "duration": 6.0
            },
            {
              "pitch": 64,
              "velocity": 44,
              "position": 6.0,
              "duration": 6.0
            },
            {
              "pitch": 67,
              "velocity": 44,
              "position": 6.0,
              "duration": 6.0
            }
          ]
        }
      }
    },
    "Fill_In_AA": {
      "type": "Fill_In_AA",
      "sizeInBeats": 12,
      "channels": {
        "9": {
          "ctab": {
            "srcChannel": 9,
            "name": "Drums",
            "accType": "RHYTHM",
            "editable": false,
            "mutedNotes": [],
            "mutedChords": [],
            "sourceChordNote": 0,
            "sourceChordType": "Maj",
            "ctb2Main": {
              "ntr": "ROOT_FIXED",
              "ntt": "BYPASS",
              "bassOn": false,
              "noteLowLimit": 20,
              "noteHighLimit": 127,
              "chordRootUpperLimit": 127,
              "rtr": "RETRIGGER"
            }
          },
          "notes": [
            {
              "pitch": 35,
              "velocity": 70,
              "position": 0.0,
              "duration": 0.208333
            },
            {
              "pitch": 39,
              "velocity": 70,
              "position": 0.0,
              "duration": 0.083333
            },
            {
              "pitch": 69,
              "velocity": 33,
              "position": 0.0,
              "duration": 0.208333
            },
            {
              "pitch": 39,
              "velocity": 40,
              "position": 0.25,
              "duration": 0.208333
            },
            {
              "pitch": 39,
              "velocity": 50,
              "position": 0.5,
              "duration": 0.208333
            },
            {
              "pitch": 44,
              "velocity": 80,
              "position": 0.5,
              "duration": 0.208333
            },
            {
              "pitch": 69,
              "velocity": 33,
              "position": 0.5,
              "duration": 0.208333
            },
            {
              "pitch": 39,
              "velocity": 40,
              "position": 0.75,
              "duration": 0.208333
            },
            {
              "pitch": 39,
              "velocity": 80,
              "position": 1.0,
              "duration": 0.208333
            },
            {
              "pitch": 61,
              "velocity": 60,
              "position": 1.0,
              "duration": 0.208333
            },
            {
              "pitch": 69,
              "velocity": 33,
              "position": 1.0,
              "duration": 0.208333
            },
            {
              "pitch": 39,
              "velocity": 40,
              "position": 1.25,
              "duration": 0.208333
            },
            {
              "pitch": 61,
              "velocity": 33,
              "position": 1.25,
              "duration": 0.208333
            },
            {
              "pitch": 39,
              "velocity": 90,
              "position": 1.5,
              "duration": 0.208333
            },
            {
              "pitch": 44,
              "velocity": 80,
              "position": 1.5,
              "duration": 0.208333
            },
            {
              "pitch": 69,
              "velocity": 33,
              "position": 1.5,
              "duration": 0.208333
            },
            {
              "pitch": 39,
              "velocity": 40,
              "position": 1.75,
              "duration": 0.208333
            },
            {
              "pitch": 61,
              "velocity": 40,
              "position": 1.75,
              "duration": 0.208333
            },
            {
              "pitch": 39,
              "velocity": 80,
              "position": 2.0,
              "duration": 0.208333
            },
            {
              "pitch": 54,
              "velocity": 80,
              "position": 2.0,
              "duration": 0.208333
            },
            {
              "pitch": 60,
              "velocity": 60,
              "position": 2.0,
              "duration": 0.208333
            },
            {
              "pitch": 69,
              "velocity": 44,
              "position": 2.0,
              "duration": 0.208333
            },
            {
              "pitch": 75,
              "velocity": 70,
              "position": 2.0,
              "duration": 0.208333
            },
            {
              "pitch": 39,
              "velocity": 40,
              "position": 2.25,
              "duration": 0.208333
            },
            {
              "pitch": 39,
              "velocity": 50,
              "position": 2.5,
              "duration": 0.208333
            },
            {
              "pitch": 44,
              "velocity": 80,
              "position": 2.5,
              "duration": 0.208333
            },
            {
              "pitch": 61,
              "velocity": 40,
              "position": 2.5,
              "duration": 0.208333
            },
            {
              "pitch": 69,
              "velocity": 33,
              "position": 2.5,
              "duration": 0.208333
            },
            {
              "pitch": 35,
              "velocity": 70,
              "position": 2.75,
              "duration": 0.208333
            },
            {
              "pitch": 39,
              "velocity": 33,
              "position": 2.75,
              "duration": 0.208333
            },
            {
              "pitch": 35,
              "velocity": 70,
              "position": 3.0,
              "duration": 0.208333
            },
            {
              "pitch": 39,
              "velocity": 70,
              "position": 3.0,
              "duration": 0.208333
            },
            {
              "pitch": 69,
              "velocity": 33,
              "position": 3.0,
              "duration": 0.208333
            },
            {
              "pitch": 39,
              "velocity": 40,
              "position": 3.25,
              "duration": 0.208333
            },
            {
              "pitch": 39,
              "velocity": 50,
              "position": 3.5,
              "duration": 0.208333
            },
            {
              "pitch": 44,
              "velocity": 80,
              "position": 3.5,
              "duration": 0.208333
            },
            {
              "pitch": 61,
              "velocity": 50,
              "position": 3.5,
              "duration": 0.208333
            },
            {
              "pitch": 69,
              "velocity": 33,
              "position": 3.5,
              "duration": 0.208333
            },
            {
              "pitch": 80,
              "velocity": 33,
              "position": 3.5,
              "duration": 0.208333
            },
            {
              "pitch": 39,
              "velocity": 40,
              "position": 3.75,
              "duration": 0.208333
            },
            {
              "pitch": 61,
              "velocity": 40,
              "position": 3.75,
              "duration": 0.208333
            },
            {
              "pitch": 39,
              "velocity": 70,
              "position": 4.0,
              "duration": 0.208333
            },
            {
              "pitch": 60,
              "velocity": 60,
              "position": 4.0,
              "duration": 0.208333
            },
            {
              "pitch": 61,
              "velocity": 60,
              "position": 4.0,
              "duration": 0.208333
            },
            {
              "pitch": 69,
              "velocity": 33,
              "position": 4.0,
              "duration": 0.208333
            },
            {
              "pitch": 80,
              "velocity": 60,
              "position": 4.0,
              "duration": 0.208333
            },
            {
              "pitch": 39,
              "velocity": 40,
              "position": 4.25,
              "duration": 0.208333
            },
            {
              "pitch": 61,
              "velocity": 33,
              "position": 4.25,
              "duration": 0.208333
            },
            {
              "pitch": 80,
              "velocity": 33,
              "position": 4.25,
              "duration": 0.208333
            },
            {
              "pitch": 39,
              "velocity": 50,
              "position": 4.5,
              "duration": 0.208333
            },
            {
              "pitch": 44,
              "velocity": 80,
              "position": 4.5,
              "duration": 0.208333
            },
            {
              "pitch": 69,
              "velocity": 33,
              "position": 4.5,
              "duration": 0.208333
            },
            {
              "pitch": 39,
              "velocity": 40,
              "position": 4.75,
              "duration": 0.208333
            },
            {
              "pitch": 61,
              "velocity": 40,
              "position": 4.75,
              "duration": 0.208333
            },
            {
              "pitch": 80,
              "velocity": 33,
              "position": 4.75,
              "duration": 0.208333
            },
            {
              "pitch": 39,
              "velocity": 90,
              "position": 5.0,
              "duration": 0.208333
            },
            {
              "pitch": 54,
              "velocity": 80,
              "position": 5.0,
              "duration": 0.208333
            },
            {
              "pitch": 60,
              "velocity": 60,
              "position": 5.0,
              "duration": 0.208333
            },
            {
              "pitch": 69,
              "velocity": 44,
              "position": 5.0,
              "duration": 0.208333
            },
            {
              "pitch": 75,
              "velocity": 70,
              "position": 5.0,
              "duration": 0.208333
            },
            {
              "pitch": 81,
              "velocity": 40,
              "position": 5.0,
              "duration": 0.208333
            },
            {
              "pitch": 39,
              "velocity": 40,
              "position": 5.25,
              "duration": 0.208333
            },
            {
              "pitch": 39,
              "velocity": 50,
              "position": 5.5,
              "duration": 0.208333
            },
            {
              "pitch": 44,
              "velocity": 80,
              "position": 5.5,
              "duration": 0.208333
            },
            {
              "pitch": 61,
              "velocity": 40,
              "position": 5.5,
              "duration": 0.208333
            },
            {
              "pitch": 69,
              "velocity": 33,
              "position": 5.5,
              "duration": 0.208333
            },
            {
              "pitch": 35,
              "velocity": 70,
              "position": 5.75,
              "duration": 0.208333
            },
            {
              "pitch": 39,
              "velocity": 40,
              "position": 5.75,
              "duration": 0.208333
            },
            {
              "pitch": 35,
              "velocity": 70,
              "position": 6.0,
              "duration": 0.208333
            },
            {
              "pitch": 39,
              "velocity": 70,
              "position": 6.0,
              "duration": 0.208333
            },
            {
              "pitch": 69,
              "velocity": 33,
              "position": 6.0,
              "duration": 0.208333
            },
            {
              "pitch": 39,
              "velocity": 40,
              "position": 6.25,
              "duration": 0.208333
            },
            {
              "pitch": 39,
              "velocity": 50,
              "position": 6.5,
              "duration": 0.208333
            },
            {
              "pitch": 44,
              "velocity": 80,
              "position": 6.5,
              "duration": 0.208333
            },
            {
              "pitch": 61,
              "velocity": 50,
              "position": 6.5,
              "duration": 0.208333
            },
            {
              "pitch": 69,
              "velocity": 33,
              "position": 6.5,
              "duration": 0.208333
            },
            {
              "pitch": 39,
              "velocity": 70,
              "position": 6.75,
              "duration": 0.208333
            },
            {
              "pitch": 61,
              "velocity": 40,
              "position": 6.75,
              "duration": 0.208333
            },
            {
              "pitch": 39,
              "velocity": 70,
              "position": 7.0,
              "duration": 0.208333
            },
            {
              "pitch": 60,
              "velocity": 60,
              "position": 7.0,
              "duration": 0.208333
            },
            {
              "pitch": 61,
              "velocity": 60,
              "position": 7.0,
              "duration": 0.208333
            },
            {
              "pitch": 69,
              "velocity": 33,
              "position": 7.0,
              "duration": 0.208333
            },
            {
              "pitch": 39,
              "velocity": 40,
              "position": 7.25,
              "duration": 0.208333
            },
            {
              "pitch": 61,
              "velocity": 33,
              "position": 7.25,
              "duration": 0.208333
            },
            {
              "pitch": 39,
              "velocity": 50,
              "position": 7.5,
              "duration": 0.208333
            },
            {
              "pitch": 44,
              "velocity": 80,
              "position": 7.5,
              "duration": 0.208333
            },
            {
              "pitch": 69,
              "velocity": 33,
              "position": 7.5,
              "duration": 0.208333
            },
            {
              "pitch": 39,
              "velocity": 40,
              "position": 7.75,
              "duration": 0.208333
            },
            {
              "pitch": 61,
              "velocity": 40,
              "position": 7.75,
              "duration": 0.125
            },
            {
              "pitch": 61,
              "velocity": 32,
              "position": 7.875,
              "duration": 0.083333
            },
            {
              "pitch": 39,
              "velocity": 90,
              "position": 8.0,
              "duration": 0.208333
            },
            {
              "pitch": 54,
              "velocity": 80,
              "position": 8.0,
              "duration": 0.208333
            },
            {
              "pitch": 60,
              "velocity": 60,
              "position": 8.0,
              "duration": 0.208333
            },
            {
              "pitch": 69,
              "velocity": 44,
              "position": 8.0,
              "duration": 0.208333
            },
            {
              "pitch": 75,
              "velocity": 70,
              "position": 8.0,
              "duration": 0.208333
            },
            {
              "pitch": 39,
              "velocity": 40,
              "position": 8.25,
              "duration": 0.208333
            },
            {
              "pitch": 39,
              "velocity": 50,
              "position": 8.5,
              "duration": 0.208333
            },
            {
              "pitch": 44,
              "velocity": 80,
              "position": 8.5,
              "duration": 0.208333
            },
            {
              "pitch": 61,
              "velocity": 40,
              "position": 8.5,
              "duration": 0.208333
            },
            {
              "pitch": 69,
              "velocity": 33,
              "position": 8.5,
              "duration": 0.208333
            },
            {
              "pitch": 35,
              "velocity": 70,
              "position": 8.75,
              "duration": 0.208333
            },
            {
              "pitch": 39,
              "velocity": 40,
              "position": 8.75,
              "duration": 0.208333
            },
            {
              "pitch": 61,
              "velocity": 33,
              "position": 8.75,
              "duration": 0.208333
            },
            {
              "pitch": 35,
              "velocity": 70,
              "position": 9.0,
              "duration": 0.208333
            },
            {
              "pitch": 39,
              "velocity": 40,
              "position": 9.0,
              "duration": 0.208333
            },
            {
              "pitch": 69,
              "velocity": 33,
              "position": 9.0,
              "duration": 0.208333
            },
            {
              "pitch": 39,
              "velocity": 50,
              "position": 9.25,
              "duration": 0.208333
            },
            {
              "pitch": 39,
              "velocity": 60,
              "position": 9.5,
              "duration": 0.208333
            },
            {
              "pitch": 44,
              "velocity": 80,
              "position": 9.5,
              "duration": 0.208333
            },
            {
              "pitch": 61,
              "velocity": 50,
              "position": 9.5,
              "duration": 0.208333
            },
            {
              "pitch": 69,
              "velocity": 33,
              "position": 9.5,
              "duration": 0.208333
            },
            {
              "pitch": 39,
              "velocity": 40,
              "position": 9.75,
              "duration": 0.208333
            },
            {
              "pitch": 39,
              "velocity": 80,
              "position": 10.0,
              "duration": 0.208333
            },
            {
              "pitch": 60,
              "velocity": 90,
              "position": 10.0,
              "duration": 0.208333
            },
            {
              "pitch": 69,
              "velocity": 33,
              "position": 10.0,
              "duration": 0.208333
            },
            {
              "pitch": 39,
              "velocity": 50,
              "position": 10.25,
              "duration": 0.208333
            },
            {
              "pitch": 61,
              "velocity": 50,
              "position": 10.25,
              "duration": 0.208333
            },
            {
              "pitch": 39,
              "velocity": 33,
              "position": 10.5,
              "duration": 0.208333
            },
            {
              "pitch": 44,
              "velocity": 80,
              "position": 10.5,
              "duration": 0.208333
            },
            {
              "pitch": 69,
              "velocity": 33,
              "position": 10.5,
              "duration": 0.208333
            },
            {
              "pitch": 39,
              "velocity": 60,
              "position": 10.75,
              "duration": 0.208333
            },
            {
              "pitch": 61,
              "velocity": 40,
              "position": 10.75,
              "duration": 0.208333
            },
            {
              "pitch": 39,
              "velocity": 90,
              "position": 11.0,
              "duration": 0.208333
            },
            {
              "pitch": 54,
              "velocity": 80,
              "position": 11.0,
              "duration": 0.208333
            },
            {
              "pitch": 60,
              "velocity": 60,
              "position": 11.0,
              "duration": 0.208333
            },
            {
              "pitch": 69,
              "velocity": 44,
              "position": 11.0,
              "duration": 0.208333
            },
            {
              "pitch": 75,
              "velocity": 70,
              "position": 11.0,
              "duration": 0.208333
            },
            {
              "pitch": 39,
              "velocity": 50,
              "position": 11.25,
              "duration": 0.208333
            },
            {
              "pitch": 39,
              "velocity": 70,
              "position": 11.5,
              "duration": 0.208333
            },
            {
              "pitch": 44,
              "velocity": 80,
              "position": 11.5,
              "duration": 0.208333
            },
            {
              "pitch": 61,
              "velocity": 50,
              "position": 11.5,
              "duration": 0.208333
            },
            {
              "pitch": 69,
              "velocity": 33,
              "position": 11.5,
              "duration": 0.208333
            },
            {
              "pitch": 35,
              "velocity": 70,
              "position": 11.75,
              "duration": 0.208333
            },
            {
              "pitch": 39,
              "velocity": 50,
              "position": 11.75,
              "duration": 0.125
            },
            {
              "pitch": 39,
              "velocity": 40,
              "position": 11.875,
              "duration": 0.083333
            }
          ]
        },
        "10": {
          "ctab": {
            "srcChannel": 10,
            "name": "Bass",
            "accType": "BASS",
            "editable": true,
            "mutedNotes": [],
            "mutedChords": [],
            "sourceChordNote": 0,
            "sourceChordType": "Maj7",
            "ctb2Main": {
              "ntr": "ROOT_TRANSPOSITION",
              "ntt": "BYPASS",
              "bassOn": true,
              "noteLowLimit": 20,
              "noteHighLimit": 60,
              "chordRootUpperLimit": 127,
              "rtr": "NOTE_GENERATOR"
            }
          },
          "notes": [
            {
              "pitch": 36,
              "velocity": 72,
              "position": 0.0,
              "duration": 1.991667
            },
            {
              "pitch": 36,
              "velocity": 72,
              "position": 2.0,
              "duration": 0.991667
            },
            {
              "pitch": 36,
              "velocity": 72,
              "position": 3.0,
              "duration": 1.991667
            },
            {
              "pitch": 36,
              "velocity": 72,
              "position": 5.0,
              "duration": 0.991667
            },
            {
              "pitch": 36,
              "velocity": 70,
              "position": 6.0,
              "duration": 2.708333
            },
            {
              "pitch": 35,
              "velocity": 45,
              "position": 8.75,
              "duration": 0.225
            },
            {
              "pitch": 36,
              "velocity": 58,
              "position": 9.0,
              "duration": 2.975
            }
          ]
        },
        "11": {
          "ctab": {
            "srcChannel": 11,
            "name": "Piano",
            "accType": "CHORD1",
            "editable": true,
            "mutedNotes": [],
            "mutedChords": [],
            "sourceChordNote": 0,
            "sourceChordType": "Maj7",
            "ctb2Main": {
              "ntr": "ROOT_FIXED",
              "ntt": "CHORD",
              "bassOn": false,
              "noteLowLimit": 48,
              "noteHighLimit": 84,
              "chordRootUpperLimit": 127,
              "rtr": "NOTE_GENERATOR"
            }
          },
          "notes": [
            {
              "pitch": 71,
              "velocity": 48,
              "position": 6.05,
              "duration": 5.95
            },
            {
              "pitch": 74,
              "velocity": 16,
              "position": 7.541667,
              "duration": 4.458333
            },
            {
              "pitch": 79,
              "velocity": 39,
              "position": 10.541667,
              "duration": 1.458333
            }
          ]
        },
        "12": {
          "ctab": {
            "srcChannel": 12,
            "name": "Guitar",
            "accType": "CHORD2",
            "editable": true,
            "mutedNotes": [],
            "mutedChords": [],
            "sourceChordNote": 0,
            "sourceChordType": "Maj7",
            "ctb2Main": {
              "ntr": "ROOT_FIXED",
              "ntt": "CHORD",
              "bassOn": false,
              "noteLowLimit": 40,
              "noteHighLimit": 76,
              "chordRootUpperLimit": 127,
              "rtr": "NOTE_GENERATOR"
            }
          },
          "notes": [
            {
              "pitch": 55,
              "velocity": 57,
              "position": 0.25,
              "duration": 0.208333
            },
            {
              "pitch": 59,
              "velocity": 59,
              "position": 0.5,
              "duration": 0.133333
            },
            {
              "pitch": 55,
              "velocity": 50,
              "position": 0.75,
              "duration": 0.133333
            },
            {
              "pitch": 60,
              "velocity": 92,
              "position": 1.0,
              "duration": 0.241667
            },
            {
              "pitch": 59,
              "velocity": 59,
              "position": 1.5,
              "duration": 0.166667
            },
            {
              "pitch": 55,
              "velocity": 53,
              "position": 1.75,
              "duration": 0.133333
            },
            {
              "pitch": 48,
              "velocity": 57,
              "position": 2.0,
              "duration": 0.116667
            },
            {
              "pitch": 59,
              "velocity": 57,
              "position": 2.25,
              "duration": 0.208333
            },
            {
              "pitch": 60,
              "velocity": 59,
              "position": 2.5,
              "duration": 0.133333
            },
            {
              "pitch": 55,
              "velocity": 50,
              "position": 2.758333,
              "duration": 0.2
            },
            {
              "pitch": 55,
              "velocity": 57,
              "position": 3.25,
              "duration": 0.208333
            },
            {
              "pitch": 59,
              "velocity": 59,
              "position": 3.5,
              "duration": 0.133333
            },
            {
              "pitch": 55,
              "velocity": 50,
              "position": 3.75,
              "duration": 0.133333
            },
            {
              "pitch": 60,
              "velocity": 92,
              "position": 4.0,
              "duration": 0.241667
            },
            {
              "pitch": 59,
              "velocity": 59,
              "position": 4.5,
              "duration": 0.166667
            },
            {
              "pitch": 55,
              "velocity": 53,
              "position": 4.75,
              "duration": 0.133333
            },
            {
              "pitch": 48,
              "velocity": 57,
              "position": 5.0,
              "duration": 0.116667
            },
            {
              "pitch": 59,
              "velocity": 57,
              "position": 5.25,
              "duration": 0.208333
            },
            {
              "pitch": 60,
              "velocity": 59,
              "position": 5.5,
              "duration": 0.133333
            },
            {
              "pitch": 55,
              "velocity": 50,
              "position": 5.758333,
              "duration": 0.2
            },
            {
              "pitch": 55,
              "velocity": 57,
              "position": 6.25,
              "duration": 0.208333
            },
            {
              "pitch": 59,
              "velocity": 59,
              "position": 6.5,
              "duration": 0.133333
            },
            {
              "pitch": 55,
              "velocity": 50,
              "position": 6.75,
              "duration": 0.133333
            },
            {
              "pitch": 60,
              "velocity": 92,
              "position": 7.0,
              "duration": 0.241667
            },
            {
              "pitch": 59,
              "velocity": 59,
              "position": 7.5,
              "duration": 0.166667
            },
            {
              "pitch": 55,
              "velocity": 53,
              "position": 7.75,
              "duration": 0.133333
            },
            {
              "pitch": 52,
              "velocity": 51,
              "position": 8.0,
              "duration": 0.158333
            },
            {
              "pitch": 59,
              "velocity": 60,
              "position": 8.25,
              "duration": 0.175
            },
            {
              "pitch": 60,
              "velocity": 58,
              "position": 8.5,
              "duration": 0.133333
            },
            {
              "pitch": 59,
              "velocity": 62,
              "position": 8.75,
              "duration": 0.1
            },
            {
              "pitch": 48,
              "velocity": 68,
              "position": 9.0,
              "duration": 0.183333
            },
            {
              "pitch": 55,
              "velocity": 57,
              "position": 9.25,
              "duration": 0.2
            },
            {
              "pitch": 59,
              "velocity": 57,
              "position": 9.5,
              "duration": 0.166667
            },
            {
              "pitch": 55,
              "velocity": 41,
              "position": 9.75,
              "duration": 0.15
            },
            {
              "pitch": 60,
              "velocity": 89,
              "position": 10.0,
              "duration": 0.333333
            },
            {
              "pitch": 59,
              "velocity": 57,
              "position": 10.5,
              "duration": 0.158333
            },
            {
              "pitch": 55,
              "velocity": 58,
              "position": 10.75,
              "duration": 0.15
            },
            {
              "pitch": 52,
              "velocity": 63,
              "position": 11.0,
              "duration": 0.166667
            },
            {
              "pitch": 59,
              "velocity": 59,
              "position": 11.25,
              "duration": 0.175
            },
            {
              "pitch": 60,
              "velocity": 68,
              "position": 11.5,
              "duration": 0.166667
            },
            {
              "pitch": 59,
              "velocity": 48,
              "position": 11.75,
              "duration": 0.091667
            }
          ]
        },
        "13": {
          "ctab": {
            "srcChannel": 13,
            "name": "Strings",
            "accType": "PAD",
            "editable": true,
            "mutedNotes": [],
            "mutedChords": [],
            "sourceChordNote": 0,
            "sourceChordType": "Maj7",
            "ctb2Main": {
              "ntr": "ROOT_FIXED",
              "ntt": "MELODY",
              "bassOn": false,
              "noteLowLimit": 36,
              "noteHighLimit": 96,
              "chordRootUpperLimit": 127,
              "rtr": "PITCH_SHIFT"
            }
          },
          "notes": [
            {
              "pitch": 59,
              "velocity": 44,
              "position": 0.0,
              "duration": 2.0
            },
            {
              "pitch": 60,
              "velocity": 44,
              "position": 0.0,
              "duration": 2.0
            },
            {
              "pitch": 64,
              "velocity": 44,
              "position": 0.0,
              "duration": 2.0
            },
            {
              "pitch": 67,
              "velocity": 44,
              "position": 0.0,
              "duration": 2.0
            },
            {
              "pitch": 59,
              "velocity": 44,
              "position": 2.0,
              "duration": 1.0
            },
            {
              "pitch": 60,
              "velocity": 44,
              "position": 2.0,
              "duration": 1.0
            },
            {
              "pitch": 64,
              "velocity": 44,
              "position": 2.0,
              "duration": 1.0
            },
            {
              "pitch": 67,
              "velocity": 44,
              "position": 2.0,
              "duration": 1.0
            },
            {
              "pitch": 59,
              "velocity": 44,
              "position": 3.0,
              "duration": 2.0
            },
            {
              "pitch": 60,
              "velocity": 44,
              "position": 3.0,
              "duration": 2.0
            },
            {
              "pitch": 64,
              "velocity": 44,
              "position": 3.0,
              "duration": 2.0
            },
            {
              "pitch": 67,
              "velocity": 44,
              "position": 3.0,
              "duration": 2.0
            },
            {
              "pitch": 59,
              "velocity": 44,
              "position": 5.0,
              "duration": 1.0
            },
            {
              "pitch": 60,
              "velocity": 44,
              "position": 5.0,
              "duration": 1.0
            },
            {
              "pitch": 64,
              "velocity": 44,
              "position": 5.0,
              "duration": 1.0
            },
            {
              "pitch": 67,
              "velocity": 44,
              "position": 5.0,
              "duration": 1.0
            },
            {
              "pitch": 59,
              "velocity": 44,
              "position": 6.0,
              "duration": 6.0
            },
            {
              "pitch": 60,
              "velocity": 44,
              "position": 6.0,
              "duration": 6.0
            },
            {
              "pitch": 64,
              "velocity": 44,
              "position": 6.0,
              "duration": 6.0
            },
            {
              "pitch": 67,
              "velocity": 44,
              "position": 6.0,
              "duration": 6.0
            }
          ]
        }
      }
    },
    "Ending_A": {
      "type": "Ending_A",
      "sizeInBeats": 12,
      "channels": {
        "9": {
          "ctab": {
            "srcChannel": 9,
            "name": "Drums",
            "accType": "RHYTHM",
            "editable": false,
            "mutedNotes": [],
            "mutedChords": [],
            "sourceChordNote": 0,
            "sourceChordType": "Maj",
            "ctb2Main": {
              "ntr": "ROOT_FIXED",
              "ntt": "BYPASS",
              "bassOn": false,
              "noteLowLimit": 20,
              "noteHighLimit": 127,
              "chordRootUpperLimit": 127,
              "rtr": "RETRIGGER"
            }
          },
          "notes": [
            {
              "pitch": 35,
              "velocity": 70,
              "position": 0.0,
              "duration": 0.208333
            },
            {
              "pitch": 39,
              "velocity": 70,
              "position": 0.0,
              "duration": 0.083333
            },
            {
              "pitch": 69,
              "velocity": 33,
              "position": 0.0,
              "duration": 0.208333
            },
            {
              "pitch": 39,
              "velocity": 40,
              "position": 0.25,
              "duration": 0.208333
            },
            {
              "pitch": 39,
              "velocity": 50,
              "position": 0.5,
              "duration": 0.208333
            },
            {
              "pitch": 44,
              "velocity": 80,
              "position": 0.5,
              "duration": 0.208333
            },
            {
              "pitch": 61,
              "velocity": 50,
              "position": 0.5,
              "duration": 0.208333
            },
            {
              "pitch": 69,
              "velocity": 33,
              "position": 0.5,
              "duration": 0.208333
            },
            {
              "pitch": 39,
              "velocity": 40,
              "position": 0.75,
              "duration": 0.208333
            },
            {
              "pitch": 61,
              "velocity": 40,
              "position": 0.75,
              "duration": 0.208333
            },
            {
              "pitch": 39,
              "velocity": 70,
              "position": 1.0,
              "duration": 0.208333
            },
            {
              "pitch": 60,
              "velocity": 60,
              "position": 1.0,
              "duration": 0.208333
            },
            {
              "pitch": 61,
              "velocity": 60,
              "position": 1.0,
              "duration": 0.208333
            },
            {
              "pitch": 69,
              "velocity": 33,
              "position": 1.0,
              "duration": 0.208333
            },
            {
              "pitch": 39,
              "velocity": 40,
              "position": 1.25,
              "duration": 0.208333
            },
            {
              "pitch": 61,
              "velocity": 33,
              "position": 1.25,
              "duration": 0.208333
            },
            {
              "pitch": 39,
              "velocity": 50,
              "position": 1.5,
              "duration": 0.208333
            },
            {
              "pitch": 44,
              "velocity": 80,
              "position": 1.5,
              "duration": 0.208333
            },
            {
              "pitch": 69,
              "velocity": 33,
              "position": 1.5,
              "duration": 0.208333
            },
            {
              "pitch": 39,
              "velocity": 40,
              "position": 1.75,
              "duration": 0.208333
            },
            {
              "pitch": 61,
              "velocity": 40,
              "position": 1.75,
              "duration": 0.125
            },
            {
              "pitch": 61,
              "velocity": 32,
              "position": 1.875,
              "duration": 0.083333
            },
            {
              "pitch": 39,
              "velocity": 90,
              "position": 2.0,
              "duration": 0.208333
            },
            {
              "pitch": 54,
              "velocity": 80,
              "position": 2.0,
              "duration": 0.208333
            },
            {
              "pitch": 60,
              "velocity": 90,
              "position": 2.0,
              "duration": 0.208333
            },
            {
              "pitch": 69,
              "velocity": 44,
              "position": 2.0,
              "duration": 0.208333
            },
            {
              "pitch": 75,
              "velocity": 70,
              "position": 2.0,
              "duration": 0.208333
            },
            {
              "pitch": 39,
              "velocity": 40,
              "position": 2.25,
              "duration": 0.208333
            },
            {
              "pitch": 39,
              "velocity": 50,
              "position": 2.5,
              "duration": 0.208333
            },
            {
              "pitch": 44,
              "velocity": 80,
              "position": 2.5,
              "duration": 0.208333
            },
            {
              "pitch": 61,
              "velocity": 40,
              "position": 2.5,
              "duration": 0.208333
            },
            {
              "pitch": 69,
              "velocity": 33,
              "position": 2.5,
              "duration": 0.208333
            },
            {
              "pitch": 35,
              "velocity": 70,
              "position": 2.75,
              "duration": 0.208333
            },
            {
              "pitch": 39,
              "velocity": 40,
              "position": 2.75,
              "duration": 0.208333
            },
            {
              "pitch": 61,
              "velocity": 33,
              "position": 2.75,
              "duration": 0.208333
            },
            {
              "pitch": 35,
              "velocity": 70,
              "position": 3.0,
              "duration": 0.208333
            },
            {
              "pitch": 39,
              "velocity": 40,
              "position": 3.0,
              "duration": 0.208333
            },
            {
              "pitch": 69,
              "velocity": 33,
              "position": 3.0,
              "duration": 0.208333
            },
            {
              "pitch": 39,
              "velocity": 50,
              "position": 3.25,
              "duration": 0.208333
            },
            {
              "pitch": 39,
              "velocity": 60,
              "position": 3.5,
              "duration": 0.208333
            },
            {
              "pitch": 44,
              "velocity": 80,
              "position": 3.5,
              "duration": 0.208333
            },
            {
              "pitch": 61,
              "velocity": 50,
              "position": 3.5,
              "duration": 0.208333
            },
            {
              "pitch": 69,
              "velocity": 33,
              "position": 3.5,
              "duration": 0.208333
            },
            {
              "pitch": 39,
              "velocity": 40,
              "position": 3.75,
              "duration": 0.208333
            },
            {
              "pitch": 39,
              "velocity": 60,
              "position": 4.0,
              "duration": 0.208333
            },
            {
              "pitch": 61,
              "velocity": 60,
              "position": 4.0,
              "duration": 0.208333
            },
            {
              "pitch": 69,
              "velocity": 33,
              "position": 4.0,
              "duration": 0.208333
            },
            {
              "pitch": 39,
              "velocity": 40,
              "position": 4.25,
              "duration": 0.208333
            },
            {
              "pitch": 39,
              "velocity": 90,
              "position": 4.5,
              "duration": 0.208333
            },
            {
              "pitch": 44,
              "velocity": 80,
              "position": 4.5,
              "duration": 0.208333
            },
            {
              "pitch": 61,
              "velocity": 50,
              "position": 4.5,
              "duration": 0.208333
            },
            {
              "pitch": 69,
              "velocity": 33,
              "position": 4.5,
              "duration": 0.208333
            },
            {
              "pitch": 39,
              "velocity": 40,
              "position": 4.75,
              "duration": 0.208333
            },
            {
              "pitch": 39,
              "velocity": 70,
              "position": 5.0,
              "duration": 0.208333
            },
            {
              "pitch": 54,
              "velocity": 80,
              "position": 5.0,
              "duration": 0.208333
            },
            {
              "pitch": 60,
              "velocity": 90,
              "position": 5.0,
              "duration": 0.208333
            },
            {
              "pitch": 69,
              "velocity": 44,
              "position": 5.0,
              "duration": 0.208333
            },
            {
              "pitch": 75,
              "velocity": 70,
              "position": 5.0,
              "duration": 0.208333
            },
            {
              "pitch": 39,
              "velocity": 100,
              "position": 5.25,
              "duration": 0.208333
            },
            {
              "pitch": 61,
              "velocity": 60,
              "position": 5.25,
              "duration": 0.208333
            },
            {
              "pitch": 39,
              "velocity": 60,
              "position": 5.5,
              "duration": 0.208333
            },
            {
              "pitch": 44,
              "velocity": 80,
              "position": 5.5,
              "duration": 0.208333
            },
            {
              "pitch": 69,
              "velocity": 33,
              "position": 5.5,
              "duration": 0.208333
            },
            {
              "pitch": 35,
              "velocity": 70,
              "position": 5.75,
              "duration": 0.208333
            },
            {
              "pitch": 39,
              "velocity": 33,
              "position": 5.75,
              "duration": 0.208333
            },
            {
              "pitch": 61,
              "velocity": 50,
              "position": 5.75,
              "duration": 0.208333
            },
            {
              "pitch": 35,
              "velocity": 70,
              "position": 6.0,
              "duration": 0.208333
            },
            {
              "pitch": 39,
              "velocity": 70,
              "position": 6.0,
              "duration": 0.208333
            },
            {
              "pitch": 69,
              "velocity": 33,
              "position": 6.0,
              "duration": 0.208333
            },
            {
              "pitch": 39,
              "velocity": 40,
              "position": 6.25,
              "duration": 0.208333
            },
            {
              "pitch": 39,
              "velocity": 50,
              "position": 6.5,
              "duration": 0.208333
            },
            {
              "pitch": 44,
              "velocity": 80,
              "position": 6.5,
              "duration": 0.208333
            },
            {
              "pitch": 61,
              "velocity": 50,
              "position": 6.5,
              "duration": 0.208333
            },
            {
              "pitch": 69,
              "velocity": 33,
              "position": 6.5,
              "duration": 0.208333
            },
            {
              "pitch": 39,
              "velocity": 40,
              "position": 6.75,
              "duration": 0.208333
            },
            {
              "pitch": 61,
              "velocity": 40,
              "position": 6.75,
              "duration": 0.208333
            },
            {
              "pitch": 39,
              "velocity": 70,
              "position": 7.0,
              "duration": 0.208333
            },
            {
              "pitch": 60,
              "velocity": 60,
              "position": 7.0,
              "duration": 0.208333
            },
            {
              "pitch": 61,
              "velocity": 60,
              "position": 7.0,
              "duration": 0.208333
            },
            {
              "pitch": 69,
              "velocity": 33,
              "position": 7.0,
              "duration": 0.208333
            },
            {
              "pitch": 39,
              "velocity": 40,
              "position": 7.25,
              "duration": 0.208333
            },
            {
              "pitch": 61,
              "velocity": 33,
              "position": 7.25,
              "duration": 0.208333
            },
            {
              "pitch": 39,
              "velocity": 50,
              "position": 7.5,
              "duration": 0.208333
            },
            {
              "pitch": 44,
              "velocity": 80,
              "position": 7.5,
              "duration": 0.208333
            },
            {
              "pitch": 69,
              "velocity": 33,
              "position": 7.5,
              "duration": 0.208333
            },
            {
              "pitch": 39,
              "velocity": 40,
              "position": 7.75,
              "duration": 0.208333
            },
            {
              "pitch": 61,
              "velocity": 40,
              "position": 7.75,
              "duration": 0.208333
            },
            {
              "pitch": 39,
              "velocity": 90,
              "position": 8.0,
              "duration": 0.208333
            },
            {
              "pitch": 54,
              "velocity": 80,
              "position": 8.0,
              "duration": 0.208333
            },
            {
              "pitch": 60,
              "velocity": 60,
              "position": 8.0,
              "duration": 0.208333
            },
            {
              "pitch": 69,
              "velocity": 44,
              "position": 8.0,
              "duration": 0.208333
            },
            {
              "pitch": 75,
              "velocity": 70,
              "position": 8.0,
              "duration": 0.208333
            },
            {
              "pitch": 39,
              "velocity": 40,
              "position": 8.25,
              "duration": 0.208333
            },
            {
              "pitch": 39,
              "velocity": 50,
              "position": 8.5,
              "duration": 0.208333
            },
            {
              "pitch": 44,
              "velocity": 80,
              "position": 8.5,
              "duration": 0.208333
            },
            {
              "pitch": 61,
              "velocity": 40,
              "position": 8.5,
              "duration": 0.208333
            },
            {
              "pitch": 69,
              "velocity": 33,
              "position": 8.5,
              "duration": 0.208333
            },
            {
              "pitch": 35,
              "velocity": 70,
              "position": 8.75,
              "duration": 0.208333
            },
            {
              "pitch": 39,
              "velocity": 40,
              "position": 8.75,
              "duration": 0.208333
            },
            {
              "pitch": 35,
              "velocity": 70,
              "position": 9.0,
              "duration": 0.208333
            },
            {
              "pitch": 39,
              "velocity": 70,
              "position": 9.0,
              "duration": 0.208333
            },
            {
              "pitch": 69,
              "velocity": 33,
              "position": 9.0,
              "duration": 0.208333
            },
            {
              "pitch": 39,
              "velocity": 40,
              "position": 9.25,
              "duration": 0.208333
            },
            {
              "pitch": 39,
              "velocity": 50,
              "position": 9.5,
              "duration": 0.208333
            },
            {
              "pitch": 44,
              "velocity": 80,
              "position": 9.5,
              "duration": 0.208333
            },
            {
              "pitch": 69,
              "velocity": 33,
              "position": 9.5,
              "duration": 0.208333
            },
            {
              "pitch": 39,
              "velocity": 40,
              "position": 9.75,
              "duration": 0.208333
            },
            {
              "pitch": 39,
              "velocity": 100,
              "position": 10.0,
              "duration": 0.208333
            },
            {
              "pitch": 61,
              "velocity": 60,
              "position": 10.0,
              "duration": 0.208333
            },
            {
              "pitch": 69,
              "velocity": 33,
              "position": 10.0,
              "duration": 0.208333
            },
            {
              "pitch": 39,
              "velocity": 40,
              "position": 10.25,
              "duration": 0.208333
            },
            {
              "pitch": 61,
              "velocity": 33,
              "position": 10.25,
              "duration": 0.208333
            },
            {
              "pitch": 39,
              "velocity": 50,
              "position": 10.5,
              "duration": 0.208333
            },
            {
              "pitch": 44,
              "velocity": 80,
              "position": 10.5,
              "duration": 0.208333
            },
            {
              "pitch": 69,
              "velocity": 33,
              "position": 10.5,
              "duration": 0.208333
            },
            {
              "pitch": 39,
              "velocity": 40,
              "position": 10.75,
              "duration": 0.208333
            },
            {
              "pitch": 61,
              "velocity": 40,
              "position": 10.75,
              "duration": 0.208333
            },
            {
              "pitch": 39,
              "velocity": 90,
              "position": 11.0,
              "duration": 0.208333
            },
            {
              "pitch": 54,
              "velocity": 80,
              "position": 11.0,
              "duration": 0.208333
            },
            {
              "pitch": 60,
              "velocity": 60,
              "position": 11.0,
              "duration": 0.208333
            },
            {
              "pitch": 69,
              "velocity": 44,
              "position": 11.0,
              "duration": 0.208333
            },
            {
              "pitch": 75,
              "velocity": 70,
              "position": 11.0,
              "duration": 0.208333
            },
            {
              "pitch": 39,
              "velocity": 40,
              "position": 11.25,
              "duration": 0.208333
            },
            {
              "pitch": 39,
              "velocity": 50,
              "position": 11.5,
              "duration": 0.208333
            },
            {
              "pitch": 44,
              "velocity": 80,
              "position": 11.5,
              "duration": 0.208333
            },
            {
              "pitch": 61,
              "velocity": 40,
              "position": 11.5,
              "duration": 0.208333
            },
            {
              "pitch": 69,
              "velocity": 33,
              "position": 11.5,
              "duration": 0.208333
            },
            {
              "pitch": 35,
              "velocity": 70,
              "position": 11.75,
              "duration": 0.208333
            },
            {
              "pitch": 39,
              "velocity": 40,
              "position": 11.75,
              "duration": 0.208333
            }
          ]
        },
        "10": {
          "ctab": {
            "srcChannel": 10,
            "name": "Bass",
            "accType": "BASS",
            "editable": true,
            "mutedNotes": [],
            "mutedChords": [],
            "sourceChordNote": 0,
            "sourceChordType": "Maj7",
            "ctb2Main": {
              "ntr": "ROOT_TRANSPOSITION",
              "ntt": "BYPASS",
              "bassOn": true,
              "noteLowLimit": 20,
              "noteHighLimit": 60,
              "chordRootUpperLimit": 127,
              "rtr": "NOTE_GENERATOR"
            }
          },
          "notes": [
            {
              "pitch": 36,
              "velocity": 72,
              "position": 0.0,
              "duration": 1.991667
            },
            {
              "pitch": 36,
              "velocity": 72,
              "position": 2.0,
              "duration": 0.991667
            },
            {
              "pitch": 36,
              "velocity": 72,
              "position": 3.0,
              "duration": 1.991667
            },
            {
              "pitch": 36,
              "velocity": 72,
              "position": 5.0,
              "duration": 0.991667
            },
            {
              "pitch": 36,
              "velocity": 72,
              "position": 6.0,
              "duration": 2.391667
            },
            {
              "pitch": 31,
              "velocity": 64,
              "position": 8.491667,
              "duration": 0.283333
            },
            {
              "pitch": 40,
              "velocity": 50,
              "position": 8.75,
              "duration": 0.25
            },
            {
              "pitch": 36,
              "velocity": 72,
              "position": 9.0,
              "duration": 2.983333
            }
          ]
        },
        "11": {
          "ctab": {
            "srcChannel": 11,
            "name": "Piano",
            "accType": "CHORD1",
            "editable": true,
            "mutedNotes": [],
            "mutedChords": [],
            "sourceChordNote": 0,
            "sourceChordType": "Maj7",
            "ctb2Main": {
              "ntr": "ROOT_FIXED",
              "ntt": "CHORD",
              "bassOn": false,
              "noteLowLimit": 48,
              "noteHighLimit": 84,
              "chordRootUpperLimit": 127,
              "rtr": "NOTE_GENERATOR"
            }
          },
          "notes": [
            {
              "pitch": 88,
              "velocity": 34,
              "position": 6.0,
              "duration": 2.983333
            },
            {
              "pitch": 79,
              "velocity": 24,
              "position": 6.283333,
              "duration": 2.7
            },
            {
              "pitch": 83,
              "velocity": 22,
              "position": 6.525,
              "duration": 2.458333
            },
            {
              "pitch": 86,
              "velocity": 59,
              "position": 6.8,
              "duration": 2.183333
            },
            {
              "pitch": 76,
              "velocity": 31,
              "position": 9.041667,
              "duration": 2.908333
            },
            {
              "pitch": 79,
              "velocity": 40,
              "position": 9.041667,
              "duration": 2.908333
            },
            {
              "pitch": 86,
              "velocity": 32,
              "position": 10.016667,
              "duration": 1.933333
            }
          ]
        },
        "12": {
          "ctab": {
            "srcChannel": 12,
            "name": "Guitar",
            "accType": "CHORD2",
            "editable": true,
            "mutedNotes": [],
            "mutedChords": [],
            "sourceChordNote": 0,
            "sourceChordType": "Maj7",
            "ctb2Main": {
              "ntr": "ROOT_FIXED",
              "ntt": "CHORD",
              "bassOn": false,
              "noteLowLimit": 40,
              "noteHighLimit": 76,
              "chordRootUpperLimit": 127,
              "rtr": "NOTE_GENERATOR"
            }
          },
          "notes": [
            {
              "pitch": 52,
              "velocity": 41,
              "position": 0.0,
              "duration": 1.258333
            },
            {
              "pitch": 59,
              "velocity": 51,
              "position": 0.0,
              "duration": 1.241667
            },
            {
              "pitch": 55,
              "velocity": 33,
              "position": 3.058333,
              "duration": 0.158333
            },
            {
              "pitch": 48,
              "velocity": 46,
              "position": 3.3,
              "duration": 0.208333
            },
            {
              "pitch": 55,
              "velocity": 67,
              "position": 3.533333,
              "duration": 0.533333
            },
            {
              "pitch": 48,
              "velocity": 27,
              "position": 4.058333,
              "duration": 0.2
            },
            {
              "pitch": 48,
              "velocity": 27,
              "position": 4.55,
              "duration": 0.433333
            },
            {
              "pitch": 52,
              "velocity": 48,
              "position": 7.066667,
              "duration": 0.158333
            },
            {
              "pitch": 55,
              "velocity": 61,
              "position": 7.066667,
              "duration": 0.133333
            },
            {
              "pitch": 52,
              "velocity": 42,
              "position": 7.516667,
              "duration": 0.175
            },
            {
              "pitch": 55,
              "velocity": 55,
              "position": 7.516667,
              "duration": 0.158333
            },
            {
              "pitch": 55,
              "velocity": 35,
              "position": 8.008333,
              "duration": 0.15
            },
            {
              "pitch": 52,
              "velocity": 19,
              "position": 8.025,
              "duration": 0.175
            },
            {
              "pitch": 55,
              "velocity": 30,
              "position": 8.491667,
              "duration": 0.183333
            },
            {
              "pitch": 52,
              "velocity": 15,
              "position": 8.508333,
              "duration": 0.183333
            },
            {
              "pitch": 52,
              "velocity": 48,
              "position": 10.066667,
              "duration": 0.158333
            },
            {
              "pitch": 55,
              "velocity": 61,
              "position": 10.066667,
              "duration": 0.133333
            },
            {
              "pitch": 52,
              "velocity": 42,
              "position": 10.516667,
              "duration": 0.175
            },
            {
              "pitch": 55,
              "velocity": 55,
              "position": 10.516667,
              "duration": 0.158333
            },
            {
              "pitch": 55,
              "velocity": 35,
              "position": 11.008333,
              "duration": 0.15
            },
            {
              "pitch": 52,
              "velocity": 19,
              "position": 11.025,
              "duration": 0.175
            },
            {
              "pitch": 55,
              "velocity": 30,
              "position": 11.491667,
              "duration": 0.183333
            },
            {
              "pitch": 52,
              "velocity": 15,
              "position": 11.508333,
              "duration": 0.183333
            }
          ]
        },
        "13": {
          "ctab": {
            "srcChannel": 13,
            "name": "Strings",
            "accType": "PAD",
            "editable": true,
            "mutedNotes": [],
            "mutedChords": [],
            "sourceChordNote": 0,
            "sourceChordType": "Maj7",
            "ctb2Main": {
              "ntr": "ROOT_FIXED",
              "ntt": "MELODY",
              "bassOn": false,
              "noteLowLimit": 36,
              "noteHighLimit": 96,
              "chordRootUpperLimit": 127,
              "rtr": "PITCH_SHIFT"
            }
          },
          "notes": [
            {
              "pitch": 59,
              "velocity": 44,
              "position": 0.0,
              "duration": 2.0
            },
            {
              "pitch": 60,
              "velocity": 44,
              "position": 0.0,
              "duration": 2.0
            },
            {
              "pitch": 64,
              "velocity": 44,
              "position": 0.0,
              "duration": 2.0
            },
            {
              "pitch": 67,
              "velocity": 44,
              "position": 0.0,
              "duration": 2.0
            },
            {
              "pitch": 59,
              "velocity": 44,
              "position": 2.0,
              "duration": 1.0
            },
            {
              "pitch": 60,
              "velocity": 44,
              "position": 2.0,
              "duration": 1.0
            },
            {
              "pitch": 64,
              "velocity": 44,
              "position": 2.0,
              "duration": 1.0
            },
            {
              "pitch": 67,
              "velocity": 44,
              "position": 2.0,
              "duration": 1.0
            },
            {
              "pitch": 59,
              "velocity": 44,
              "position": 3.0,
              "duration": 2.0
            },
            {
              "pitch": 60,
              "velocity": 44,
              "position": 3.0,
              "duration": 2.0
            },
            {
              "pitch": 64,
              "velocity": 44,
              "position": 3.0,
              "duration": 2.0
            },
            {
              "pitch": 67,
              "velocity": 44,
              "position": 3.0,
              "duration": 2.0
            },
            {
              "pitch": 59,
              "velocity": 44,
              "position": 5.0,
              "duration": 1.0
            },
            {
              "pitch": 60,
              "velocity": 44,
              "position": 5.0,
              "duration": 1.0
            },
            {
              "pitch": 64,
              "velocity": 44,
              "position": 5.0,
              "duration": 1.0
            },
            {
              "pitch": 67,
              "velocity": 44,
              "position": 5.0,
              "duration": 1.0
            },
            {
              "pitch": 59,
              "velocity": 44,
              "position": 6.0,
              "duration": 3.0
            },
            {
              "pitch": 60,
              "velocity": 44,
              "position": 6.0,
              "duration": 3.0
            },
            {
              "pitch": 64,
              "velocity": 44,
              "position": 6.0,
              "duration": 3.0
            },
            {
              "pitch": 67,
              "velocity": 44,
              "position": 6.0,
              "duration": 3.0
            },
            {
              "pitch": 59,
              "velocity": 44,
              "position": 9.0,
              "duration": 3.0
            },
            {
              "pitch": 60,
              "velocity": 44,
              "position": 9.0,
              "duration": 3.0
            },
            {
              "pitch": 64,
              "velocity": 44,
              "position": 9.0,
              "duration": 3.0
            },
            {
              "pitch": 67,
              "velocity": 44,
              "position": 9.0,
              "duration": 3.0
            }
          ]
        }
      }
    }
  }
}