{
  "name": "Glam Rock 1 - 16th Rock",
  "tempo": 95,
  "timeSignature": "4/4",
  "ticksPerQuarter": 120,
  "sffType": "SFF1",
  "division": "BINARY",
  "channelPrograms": {
    "9": 16,
    "10": 38,
    "11": 1,
    "12": 55,
    "13": 48
  },
  "parts": {
    "Intro_A": {
      "type": "Intro_A",
      "sizeInBeats": 24,
      "channels": {
        "9": {
          "ctab": {
            "srcChannel": 9,
            "name": "Drums",
            "accType": "RHYTHM",
            "editable": false,
            "mutedNotes": [],
            "mutedChords": [],
            "sourceChordNote": 0,
            "sourceChordType": "Maj",
            "ctb2Main": {
              "ntr": "ROOT_FIXED",
              "ntt": "BYPASS",
              "bassOn": false,
              "noteLowLimit": 20,
              "noteHighLimit": 127,
              "chordRootUpperLimit": 127,
              "rtr": "RETRIGGER"
            }
          },
          "notes": [
            {
              "pitch": 37,
              "velocity": 84,
              "position": 0.0,
              "duration": 1.0
            },
            {
              "pitch": 37,
              "velocity": 84,
              "position": 2.0,
              "duration": 1.0
            },
            {
              "pitch": 37,
              "velocity": 64,
              "position": 4.0,
              "duration": 1.0
            },
            {
              "pitch": 37,
              "velocity": 84,
              "position": 5.0,
              "duration": 1.0
            },
            {
              "pitch": 37,
              "velocity": 64,
              "position": 6.0,
              "duration": 1.0
            },
            {
              "pitch": 37,
              "velocity": 84,
              "position": 7.0,
              "duration": 1.0
            },
            {
              "pitch": 35,
              "velocity": 100,
              "position": 8.0,
              "duration": 0.208333
            },
            {
              "pitch": 42,
              "velocity": 127,
              "position": 8.0,
              "duration": 0.208333
            },
            {
              "pitch": 42,
              "velocity": 60,
              "position": 8.5,
              "duration": 0.208333
            },
            {
              "pitch": 38,
              "velocity": 115,
              "position": 9.0,
              "duration": 0.208333
            },
            {
              "pitch": 39,
              "velocity": 100,
              "position": 9.0,
              "duration": 0.208333
            },
            {
              "pitch": 42,
              "velocity": 127,
              "position": 9.0,
              "duration": 0.208333
            },
            {
              "pitch": 35,
              "velocity": 100,
              "position": 9.5,
              "duration": 0.208333
            },
            {
              "pitch": 42,
              "velocity": 127,
              "position": 10.0,
              "duration": 0.208333
            },
            {
              "pitch": 38,
              "velocity": 115,
              "position": 11.0,
              "duration": 0.208333
            },
            {
              "pitch": 39,
              "velocity": 100,
              "position": 11.0,
              "duration": 0.208333
            },
            {
              "pitch": 42,
              "velocity": 127,
              "position": 11.0,
              "duration": 0.208333
            },
            {
              "pitch": 42,
              "velocity": 60,
              "position": 11.25,
              "duration": 0.208333
            },
            {
              "pitch": 35,
              "velocity": 100,
              "position": 12.0,
              "duration": 0.208333
            },
            {
              "pitch": 42,
              "velocity": 127,
              "position": 12.0,
              "duration": 0.208333
            },
            {
              "pitch": 38,
              "velocity": 115,
              "position": 13.0,
              "duration": 0.208333
            },
            {
              "pitch": 39,
              "velocity": 90,
              "position": 13.0,
              "duration": 0.208333
            },
            {
              "pitch": 42,
              "velocity": 127,
              "position": 13.0,
              "duration": 0.208333
            },
            {
              "pitch": 35,
              "velocity": 100,
              "position": 13.5,
              "duration": 0.208333
            },
            {
              "pitch": 42,
              "velocity": 127,
              "position": 14.0,
              "duration": 0.208333
            },
            {
              "pitch": 38,
              "velocity": 115,
              "position": 15.0,
              "duration": 0.208333
            },
            {
              "pitch": 39,
              "velocity": 100,
              "position": 15.0,
              "duration": 0.208333
            },
            {
              "pitch": 42,
              "velocity": 127,
              "position": 15.0,
              "duration": 0.208333
            },
            {
              "pitch": 35,
              "velocity": 100,
              "position": 15.5,
              "duration": 0.208333
            },
            {
              "pitch": 35,
              "velocity": 100,
              "position": 16.0,
              "duration": 0.208333
            },
            {
              "pitch": 42,
              "velocity": 127,
              "position": 16.0,
              "duration": 0.208333
            },
            {
              "pitch": 42,
              "velocity": 60,
              "position": 16.5,
              "duration": 0.208333
            },
            {
              "pitch": 38,
              "velocity": 115,
              "position": 17.0,
              "duration": 0.208333
            },
            {
              "pitch": 39,
              "velocity": 100,
              "position": 17.0,
              "duration": 0.208333
            },
            {
              "pitch": 42,
              "velocity": 127,
              "position": 17.0,
              "duration": 0.208333
            },
            {
              "pitch": 35,
              "velocity": 100,
              "position": 17.5,
              "duration": 0.208333
            },
            {
              "pitch": 42,
              "velocity": 127,
              "position": 18.0,
              "duration": 0.208333
            },
            {
              "pitch": 38,
              "velocity": 115,
              "position": 19.0,
              "duration": 0.208333
            },
            {
              "pitch": 39,
              "velocity": 100,
              "position": 19.0,
              "duration": 0.208333
            },
            {
              "pitch": 42,
              "velocity": 127,
              "position": 19.0,
              "duration": 0.208333
            },
            {
              "pitch": 42,
              "velocity": 60,
              "position": 19.25,
              "duration": 0.208333
            },
            {
              "pitch": 35,
              "velocity": 100,
              "position": 20.0,
              "duration": 0.208333
            },
            {
              "pitch": 42,
              "velocity": 127,
              "position": 20.0,
              "duration": 0.208333
            },
            {
              "pitch": 38,
              "velocity": 115,
              "position": 21.0,
              "duration": 0.208333
            },
            {
              "pitch": 39,
              "velocity": 90,
              "position": 21.0,
              "duration": 0.208333
            },
            {
              "pitch": 42,
              "velocity": 127,
              "position": 21.0,
              "duration": 0.208333
            },
            {
              "pitch": 35,
              "velocity": 100,
              "position": 21.5,
              "duration": 0.208333
            },
            {
              "pitch": 38,
              "velocity": 70,
              "position": 21.75,
              "duration": 0.125
            },
            {
              "pitch": 38,
              "velocity": 56,
              "position": 21.875,
              "duration": 0.083333
            },
            {
              "pitch": 38,
              "velocity": 115,
              "position": 22.0,
              "duration": 0.083333
            },
            {
              "pitch": 42,
              "velocity": 127,
              "position": 22.0,
              "duration": 0.208333
            },
            {
              "pitch": 38,
              "velocity": 80,
              "position": 22.25,
              "duration": 0.208333
            },
            {
              "pitch": 38,
              "velocity": 70,
              "position": 22.5,
              "duration": 0.208333
            },
            {
              "pitch": 48,
              "velocity": 115,
              "position": 22.5,
              "duration": 0.208333
            },
            {
              "pitch": 35,
              "velocity": 80,
              "position": 23.0,
              "duration": 0.208333
            },
            {
              "pitch": 39,
              "velocity": 100,
              "position": 23.0,
              "duration": 0.208333
            },
            {
              "pitch": 42,
              "velocity": 127,
              "position": 23.0,
              "duration": 0.208333
            },
            {
              "pitch": 45,
              "velocity": 115,
              "position": 23.0,
              "duration": 0.208333
            },
            {
              "pitch": 35,
              "velocity": 60,
              "position": 23.25,
              "duration": 0.208333
            },
            {
              "pitch": 45,
              "velocity": 90,
              "position": 23.25,
              "duration": 0.208333
            },
            {
              "pitch": 35,
              "velocity": 100,
              "position": 23.5,
              "duration": 0.208333
            },
            {
              "pitch": 41,
              "velocity": 127,
              "position": 23.5,
              "duration": 0.208333
            }
          ]
        },
        "10": {
          "ctab": {
            "srcChannel": 10,
            "name": "Bass",
            "accType": "BASS",
            "editable": true,
            "mutedNotes": [],
            "mutedChords": [],
            "sourceChordNote": 0,
            "sourceChordType": "Maj7",
            "ctb2Main": {
              "ntr": "ROOT_TRANSPOSITION",
              "ntt": "BYPASS",
              "bassOn": true,
              "noteLowLimit": 20,
              "noteHighLimit": 60,
              "chordRootUpperLimit": 127,
              "rtr": "NOTE_GENERATOR"
            }
          },
          "notes": [
            {
              "pitch": 36,
              "velocity": 109,
              "position": 8.0,
              "duration": 0.383333
            },
            {
              "pitch": 36,
              "velocity": 109,
              "position": 9.5,
              "duration": 0.866667
            },
            {
              "pitch": 36,
              "velocity": 109,
              "position": 12.0,
              "duration": 0.383333
            },
            {
              "pitch": 36,
              "velocity": 109,
              "position": 13.5,
              "duration": 0.866667
            },
            {
              "pitch": 36,
              "velocity": 107,
              "position": 16.0,
              "duration": 0.266667
            },
            {
              "pitch": 36,
              "velocity": 111,
              "position": 17.5,
              "duration": 0.233333
            },
            {
              "pitch": 36,
              "velocity": 108,
              "position": 20.0,
              "duration": 0.216667
            },
            {
              "pitch": 36,
              "velocity": 111,
              "position": 21.5,
              "duration": 0.216667
            }
          ]
        },
        "11": {
          "ctab": {
            "srcChannel": 11,
            "name": "Piano",
            "accType": "CHORD1",
            "editable": true,
            "mutedNotes": [],
            "mutedChords": [],
            "sourceChordNote": 0,
            "sourceChordType": "Maj7",
            "ctb2Main": {
              "ntr": "ROOT_FIXED",
              "ntt": "CHORD",
              "bassOn": false,
              "noteLowLimit": 48,
              "noteHighLimit": 84,
              "chordRootUpperLimit": 127,
              "rtr": "NOTE_GENERATOR"
            }
          },
          "notes": [
            {
              "pitch": 60,
              "velocity": 88,
              "position": 8.0,
              "duration": 0.083333
            },
            {
              "pitch": 64,
              "velocity": 97,
              "position": 8.0,
              "duration": 0.15
            },
            {
              "pitch": 67,
              "velocity": 98,
              "position": 8.0,
              "duration": 0.15
            },
            {
              "pitch": 71,
              "velocity": 98,
              "position": 8.0,
              "duration": 0.133333
            },
            {
              "pitch": 74,
              "velocity": 113,
              "position": 8.0,
              "duration": 0.133333
            },
            {
              "pitch": 76,
              "velocity": 113,
              "position": 8.0,
              "duration": 0.116667
            },
            {
              "pitch": 79,
              "velocity": 111,
              "position": 8.0,
              "duration": 0.15
            },
            {
              "pitch": 83,
              "velocity": 111,
              "position": 8.0,
              "duration": 0.166667
            },
            {
              "pitch": 60,
              "velocity": 76,
              "position": 8.75,
              "duration": 0.066667
            },
            {
              "pitch": 64,
              "velocity": 96,
              "position": 8.75,
              "duration": 0.133333
            },
            {
              "pitch": 67,
              "velocity": 91,
              "position": 8.75,
              "duration": 0.15
            },
            {
              "pitch": 71,
              "velocity": 89,
              "position": 8.75,
              "duration": 0.133333
            },
            {
              "pitch": 74,
              "velocity": 113,
              "position": 8.75,
              "duration": 0.133333
            },
            {
              "pitch": 76,
              "velocity": 110,
              "position": 8.75,
              "duration": 0.133333
            },
            {
              "pitch": 79,
              "velocity": 107,
              "position": 8.75,
              "duration": 0.166667
            },
            {
              "pitch": 83,
              "velocity": 107,
              "position": 8.75,
              "duration": 0.183333
            },
            {
              "pitch": 60,
              "velocity": 88,
              "position": 9.3,
              "duration": 0.15
            },
            {
              "pitch": 64,
              "velocity": 88,
              "position": 9.3,
              "duration": 0.116667
            },
            {
              "pitch": 67,
              "velocity": 96,
              "position": 9.3,
              "duration": 0.15
            },
            {
              "pitch": 71,
              "velocity": 95,
              "position": 9.3,
              "duration": 0.15
            },
            {
              "pitch": 74,
              "velocity": 112,
              "position": 9.3,
              "duration": 0.116667
            },
            {
              "pitch": 76,
              "velocity": 107,
              "position": 9.3,
              "duration": 0.133333
            },
            {
              "pitch": 79,
              "velocity": 107,
              "position": 9.3,
              "duration": 0.15
            },
            {
              "pitch": 83,
              "velocity": 107,
              "position": 9.3,
              "duration": 0.183333
            },
            {
              "pitch": 60,
              "velocity": 80,
              "position": 9.8,
              "duration": 0.066667
            },
            {
              "pitch": 64,
              "velocity": 95,
              "position": 9.8,
              "duration": 0.116667
            },
            {
              "pitch": 67,
              "velocity": 97,
              "position": 9.8,
              "duration": 0.116667
            },
            {
              "pitch": 71,
              "velocity": 98,
              "position": 9.8,
              "duration": 0.116667
            },
            {
              "pitch": 74,
              "velocity": 110,
              "position": 9.8,
              "duration": 0.05
            },
            {
              "pitch": 76,
              "velocity": 109,
              "position": 9.8,
              "duration": 0.066667
            },
            {
              "pitch": 79,
              "velocity": 102,
              "position": 9.8,
              "duration": 0.066667
            },
            {
              "pitch": 83,
              "velocity": 106,
              "position": 9.8,
              "duration": 0.1
            },
            {
              "pitch": 60,
              "velocity": 94,
              "position": 10.0,
              "duration": 0.2
            },
            {
              "pitch": 64,
              "velocity": 94,
              "position": 10.0,
              "duration": 0.216667
            },
            {
              "pitch": 67,
              "velocity": 94,
              "position": 10.0,
              "duration": 0.233333
            },
            {
              "pitch": 71,
              "velocity": 95,
              "position": 10.0,
              "duration": 0.216667
            },
            {
              "pitch": 74,
              "velocity": 112,
              "position": 10.0,
              "duration": 0.2
            },
            {
              "pitch": 76,
              "velocity": 107,
              "position": 10.0,
              "duration": 0.2
            },
            {
              "pitch": 79,
              "velocity": 98,
              "position": 10.0,
              "duration": 0.233333
            },
            {
              "pitch": 83,
              "velocity": 88,
              "position": 10.0,
              "duration": 0.233333
            },
            {
              "pitch": 86,
              "velocity": 105,
              "position": 10.0,
              "duration": 0.233333
            },
            {
              "pitch": 60,
              "velocity": 97,
              "position": 10.5,
              "duration": 0.216667
            },
            {
              "pitch": 64,
              "velocity": 96,
              "position": 10.5,
              "duration": 0.216667
            },
            {
              "pitch": 67,
              "velocity": 99,
              "position": 10.5,
              "duration": 0.233333
            },
            {
              "pitch": 71,
              "velocity": 99,
              "position": 10.5,
              "duration": 0.2
            },
            {
              "pitch": 74,
              "velocity": 113,
              "position": 10.5,
              "duration": 0.216667
            },
            {
              "pitch": 76,
              "velocity": 110,
              "position": 10.5,
              "duration": 0.216667
            },
            {
              "pitch": 79,
              "velocity": 105,
              "position": 10.5,
              "duration": 0.25
            },
            {
              "pitch": 83,
              "velocity": 98,
              "position": 10.5,
              "duration": 0.25
            },
            {
              "pitch": 86,
              "velocity": 109,
              "position": 10.5,
              "duration": 0.25
            },
            {
              "pitch": 60,
              "velocity": 88,
              "position": 16.0,
              "duration": 0.083333
            },
            {
              "pitch": 64,
              "velocity": 97,
              "position": 16.0,
              "duration": 0.15
            },
            {
              "pitch": 67,
              "velocity": 98,
              "position": 16.0,
              "duration": 0.15
            },
            {
              "pitch": 71,
              "velocity": 98,
              "position": 16.0,
              "duration": 0.133333
            },
            {
              "pitch": 74,
              "velocity": 113,
              "position": 16.0,
              "duration": 0.133333
            },
            {
              "pitch": 76,
              "velocity": 113,
              "position": 16.0,
              "duration": 0.116667
            },
            {
              "pitch": 79,
              "velocity": 111,
              "position": 16.0,
              "duration": 0.15
            },
            {
              "pitch": 83,
              "velocity": 111,
              "position": 16.0,
              "duration": 0.166667
            },
            {
              "pitch": 60,
              "velocity": 76,
              "position": 16.75,
              "duration": 0.066667
            },
            {
              "pitch": 64,
              "velocity": 96,
              "position": 16.75,
              "duration": 0.133333
            },
            {
              "pitch": 67,
              "velocity": 91,
              "position": 16.75,
              "duration": 0.15
            },
            {
              "pitch": 71,
              "velocity": 89,
              "position": 16.75,
              "duration": 0.133333
            },
            {
              "pitch": 74,
              "velocity": 113,
              "position": 16.75,
              "duration": 0.133333
            },
            {
              "pitch": 76,
              "velocity": 110,
              "position": 16.75,
              "duration": 0.133333
            },
            {
              "pitch": 79,
              "velocity": 107,
              "position": 16.75,
              "duration": 0.166667
            },
            {
              "pitch": 83,
              "velocity": 107,
              "position": 16.75,
              "duration": 0.183333
            },
            {
              "pitch": 60,
              "velocity": 88,
              "position": 17.3,
              "duration": 0.15
            },
            {
              "pitch": 64,
              "velocity": 88,
              "position": 17.3,
              "duration": 0.116667
            },
            {
              "pitch": 67,
              "velocity": 96,
              "position": 17.3,
              "duration": 0.15
            },
            {
              "pitch": 71,
              "velocity": 95,
              "position": 17.3,
              "duration": 0.15
            },
            {
              "pitch": 74,
              "velocity": 112,
              "position": 17.3,
              "duration": 0.116667
            },
            {
              "pitch": 76,
              "velocity": 107,
              "position": 17.3,
              "duration": 0.133333
            },
            {
              "pitch": 79,
              "velocity": 107,
              "position": 17.3,
              "duration": 0.15
            },
            {
              "pitch": 83,
              "velocity": 107,
              "position": 17.3,
              "duration": 0.183333
            },
            {
              "pitch": 60,
              "velocity": 80,
              "position": 17.8,
              "duration": 0.066667
            },
            {
              "pitch": 64,
              "velocity": 95,
              "position": 17.8,
              "duration": 0.116667
            },
            {
              "pitch": 67,
              "velocity": 97,
              "position": 17.8,
              "duration": 0.116667
            },
            {
              "pitch": 71,
              "velocity": 98,
              "position": 17.8,
              "duration": 0.116667
            },
            {
              "pitch": 74,
              "velocity": 110,
              "position": 17.8,
              "duration": 0.05
            },
            {
              "pitch": 76,
              "velocity": 109,
              "position": 17.8,
              "duration": 0.066667
            },
            {
              "pitch": 79,
              "velocity": 102,
              "position": 17.8,
              "duration": 0.066667
            },
            {
              "pitch": 83,
              "velocity": 106,
              "position": 17.8,
              "duration": 0.1
            },
            {
              "pitch": 60,
              "velocity": 71,
              "position": 18.0,
              "duration": 0.15
            },
            {
              "pitch": 64,
              "velocity": 100,
              "position": 18.0,
              "duration": 0.183333
            },
            {
              "pitch": 67,
              "velocity": 99,
              "position": 18.0,
              "duration": 0.216667
            },
            {
              "pitch": 71,
              "velocity": 91,
              "position": 18.0,
              "duration": 0.183333
            },
            {
              "pitch": 74,
              "velocity": 111,
              "position": 18.0,
              "duration": 0.15
            },
            {
              "pitch": 76,
              "velocity": 107,
              "position": 18.0,
              "duration": 0.166667
            },
            {
              "pitch": 79,
              "velocity": 106,
              "position": 18.0,
              "duration": 0.183333
            },
            {
              "pitch": 83,
              "velocity": 92,
              "position": 18.0,
              "duration": 0.216667
            },
            {
              "pitch": 60,
              "velocity": 86,
              "position": 18.5,
              "duration": 0.133333
            },
            {
              "pitch": 64,
              "velocity": 91,
              "position": 18.5,
              "duration": 0.166667
            },
            {
              "pitch": 67,
              "velocity": 91,
              "position": 18.5,
              "duration": 0.183333
            },
            {
              "pitch": 71,
              "velocity": 92,
              "position": 18.5,
              "duration": 0.166667
            },
            {
              "pitch": 74,
              "velocity": 113,
              "position": 18.5,
              "duration": 0.116667
            },
            {
              "pitch": 76,
              "velocity": 113,
              "position": 18.5,
              "duration": 0.133333
            },
            {
              "pitch": 79,
              "velocity": 111,
              "position": 18.5,
              "duration": 0.133333
            },
            {
              "pitch": 83,
              "velocity": 112,
              "position": 18.5,
              "duration": 0.2
            }
          ]
        },
        "12": {
          "ctab": {
            "srcChannel": 12,
            "name": "Guitar",
            "accType": "CHORD2",
            "editable": true,
            "mutedNotes": [],
            "mutedChords": [],
            "sourceChordNote": 0,
            "sourceChordType": "Maj7",
            "ctb2Main": {
              "ntr": "ROOT_FIXED",
              "ntt": "CHORD",
              "bassOn": false,
              "noteLowLimit": 40,
              "noteHighLimit": 76,
              "chordRootUpperLimit": 127,
              "rtr": "NOTE_GENERATOR"
            }
          },
          "notes": []
        },
        "13": {
          "ctab": {
            "srcChannel": 13,
            "name": "Strings",
            "accType": "PAD",
            "editable": true,
            "mutedNotes": [],
            "mutedChords": [],
            "sourceChordNote": 0,
            "sourceChordType": "Maj7",
            "ctb2Main": {
              "ntr": "ROOT_FIXED",
              "ntt": "MELODY",
              "bassOn": false,
              "noteLowLimit": 36,
              "noteHighLimit": 96,
              "chordRootUpperLimit": 127,
              "rtr": "PITCH_SHIFT"
            }
          },
          "notes": []
        }
      }
    },
    "Main_A": {
      "type": "Main_A",
      "sizeInBeats": 16,
      "channels": {
        "9": {
          "ctab": {
            "srcChannel": 9,
            "name": "Drums",
            "accType": "RHYTHM",
            "editable": false,
            "mutedNotes": [],
            "mutedChords": [],
            "sourceChordNote": 0,
            "sourceChordType": "Maj",
            "ctb2Main": {
              "ntr": "ROOT_FIXED",
              "ntt": "BYPASS",
              "bassOn": false,
              "noteLowLimit": 20,
              "noteHighLimit": 127,
              "chordRootUpperLimit": 127,
              "rtr": "RETRIGGER"
            }
          },
          "notes": [
            {
              "pitch": 35,
              "velocity": 115,
              "position": 0.0,
              "duration": 0.208333
            },
            {
              "pitch": 42,
              "velocity": 80,
              "position": 0.0,
              "duration": 0.208333
            },
            {
              "pitch": 51,
              "velocity": 115,
              "position": 0.0,
              "duration": 0.208333
            },
            {
              "pitch": 56,
              "velocity": 80,
              "position": 0.0,
              "duration": 0.208333
            },
            {
              "pitch": 51,
              "velocity": 90,
              "position": 0.5,
              "duration": 0.208333
            },
            {
              "pitch": 35,
              "velocity": 115,
              "position": 1.0,
              "duration": 0.208333
            },
            {
              "pitch": 38,
              "velocity": 127,
              "position": 1.0,
              "duration": 0.208333
            },
            {
              "pitch": 39,
              "velocity": 127,
              "position": 1.0,
              "duration": 0.208333
            },
            {
              "pitch": 42,
              "velocity": 90,
              "position": 1.0,
              "duration": 0.208333
            },
            {
              "pitch": 51,
              "velocity": 115,
              "position": 1.0,
              "duration": 0.208333
            },
            {
              "pitch": 54,
              "velocity": 115,
              "position": 1.0,
              "duration": 0.208333
            },
            {
              "pitch": 56,
              "velocity": 80,
              "position": 1.0,
              "duration": 0.208333
            },
            {
              "pitch": 51,
              "velocity": 100,
              "position": 1.5,
              "duration": 0.208333
            },
            {
              "pitch": 35,
              "velocity": 115,
              "position": 2.0,
              "duration": 0.208333
            },
            {
              "pitch": 42,
              "velocity": 80,
              "position": 2.0,
              "duration": 0.208333
            },
            {
              "pitch": 51,
              "velocity": 115,
              "position": 2.0,
              "duration": 0.208333
            },
            {
              "pitch": 56,
              "velocity": 80,
              "position": 2.0,
              "duration": 0.208333
            },
            {
              "pitch": 51,
              "velocity": 100,
              "position": 2.5,
              "duration": 0.208333
            },
            {
              "pitch": 35,
              "velocity": 115,
              "position": 3.0,
              "duration": 0.208333
            },
            {
              "pitch": 38,
              "velocity": 127,
              "position": 3.0,
              "duration": 0.208333
            },
            {
              "pitch": 39,
              "velocity": 127,
              "position": 3.0,
              "duration": 0.208333
            },
            {
              "pitch": 42,
              "velocity": 90,
              "position": 3.0,
              "duration": 0.208333
            },
            {
              "pitch": 51,
              "velocity": 115,
              "position": 3.0,
              "duration": 0.208333
            },
            {
              "pitch": 54,
              "velocity": 115,
              "position": 3.0,
              "duration": 0.208333
            },
            {
              "pitch": 56,
              "velocity": 80,
              "position": 3.0,
              "duration": 0.208333
            },
            {
              "pitch": 51,
              "velocity": 100,
              "position": 3.5,
              "duration": 0.208333
            },
            {
              "pitch": 35,
              "velocity": 115,
              "position": 4.0,
              "duration": 0.208333
            },
            {
              "pitch": 42,
              "velocity": 80,
              "position": 4.0,
              "duration": 0.208333
            },
            {
              "pitch": 51,
              "velocity": 115,
              "position": 4.0,
              "duration": 0.208333
            },
            {
              "pitch": 56,
              "velocity": 80,
              "position": 4.0,
              "duration": 0.208333
            },
            {
              "pitch": 51,
              "velocity": 90,
              "position": 4.5,
              "duration": 0.208333
            },
            {
              "pitch": 35,
              "velocity": 115,
              "position": 5.0,
              "duration": 0.208333
            },
            {
              "pitch": 38,
              "velocity": 127,
              "position": 5.0,
              "duration": 0.208333
            },
            {
              "pitch": 39,
              "velocity": 127,
              "position": 5.0,
              "duration": 0.208333
            },
            {
              "pitch": 42,
              "velocity": 90,
              "position": 5.0,
              "duration": 0.208333
            },
            {
              "pitch": 51,
              "velocity": 115,
              "position": 5.0,
              "duration": 0.208333
            },
            {
              "pitch": 54,
              "velocity": 115,
              "position": 5.0,
              "duration": 0.208333
            },
            {
              "pitch": 56,
              "velocity": 80,
              "position": 5.0,
              "duration": 0.208333
            },
            {
              "pitch": 51,
              "velocity": 100,
              "position": 5.25,
              "duration": 0.208333
            },
            {
              "pitch": 51,
              "velocity": 100,
              "position": 5.5,
              "duration": 0.208333
            },
            {
              "pitch": 35,
              "velocity": 115,
              "position": 6.0,
              "duration": 0.208333
            },
            {
              "pitch": 42,
              "velocity": 80,
              "position": 6.0,
              "duration": 0.208333
            },
            {
              "pitch": 51,
              "velocity": 115,
              "position": 6.0,
              "duration": 0.208333
            },
            {
              "pitch": 56,
              "velocity": 80,
              "position": 6.0,
              "duration": 0.208333
            },
            {
              "pitch": 51,
              "velocity": 100,
              "position": 6.5,
              "duration": 0.208333
            },
            {
              "pitch": 35,
              "velocity": 115,
              "position": 7.0,
              "duration": 0.208333
            },
            {
              "pitch": 38,
              "velocity": 127,
              "position": 7.0,
              "duration": 0.208333
            },
            {
              "pitch": 39,
              "velocity": 127,
              "position": 7.0,
              "duration": 0.208333
            },
            {
              "pitch": 42,
              "velocity": 90,
              "position": 7.0,
              "duration": 0.208333
            },
            {
              "pitch": 51,
              "velocity": 115,
              "position": 7.0,
              "duration": 0.208333
            },
            {
              "pitch": 54,
              "velocity": 115,
              "position": 7.0,
              "duration": 0.208333
            },
            {
              "pitch": 56,
              "velocity": 80,
              "position": 7.0,
              "duration": 0.208333
            },
            {
              "pitch": 51,
              "velocity": 100,
              "position": 7.5,
              "duration": 0.208333
            },
            {
              "pitch": 35,
              "velocity": 115,
              "position": 8.0,
              "duration": 0.208333
            },
            {
              "pitch": 42,
              "velocity": 80,
              "position": 8.0,
              "duration": 0.208333
            },
            {
              "pitch": 51,
              "velocity": 115,
              "position": 8.0,
              "duration": 0.208333
            },
            {
              "pitch": 56,
              "velocity": 80,
              "position": 8.0,
              "duration": 0.208333
            },
            {
              "pitch": 51,
              "velocity": 90,
              "position": 8.5,
              "duration": 0.208333
            },
            {
              "pitch": 35,
              "velocity": 115,
              "position": 9.0,
              "duration": 0.208333
            },
            {
              "pitch": 38,
              "velocity": 127,
              "position": 9.0,
              "duration": 0.208333
            },
            {
              "pitch": 39,
              "velocity": 127,
              "position": 9.0,
              "duration": 0.208333
            },
            {
              "pitch": 42,
              "velocity": 90,
              "position": 9.0,
              "duration": 0.208333
            },
            {
              "pitch": 51,
              "velocity": 115,
              "position": 9.0,
              "duration": 0.208333
            },
            {
              "pitch": 54,
              "velocity": 115,
              "position": 9.0,
              "duration": 0.208333
            },
            {
              "pitch": 56,
              "velocity": 80,
              "position": 9.0,
              "duration": 0.208333
            },
            {
              "pitch": 51,
              "velocity": 100,
              "position": 9.5,
              "duration": 0.208333
            },
            {
              "pitch": 35,
              "velocity": 115,
              "position": 10.0,
              "duration": 0.208333
            },
            {
              "pitch": 42,
              "velocity": 80,
              "position": 10.0,
              "duration": 0.208333
            },
            {
              "pitch": 51,
              "velocity": 115,
              "position": 10.0,
              "duration": 0.208333
            },
            {
              "pitch": 56,
              "velocity": 80,
              "position": 10.0,
              "duration": 0.208333
            },
            {
              "pitch": 51,
              "velocity": 100,
              "position": 10.5,
              "duration": 0.208333
            },
            {
              "pitch": 35,
              "velocity": 115,
              "position": 11.0,
              "duration": 0.208333
            },
            {
              "pitch": 38,
              "velocity": 127,
              "position": 11.0,
              "duration": 0.208333
            },
            {
              "pitch": 39,
              "velocity": 127,
              "position": 11.0,
              "duration": 0.208333
            },
            {
              "pitch": 42,
              "velocity": 90,
              "position": 11.0,
              "duration": 0.208333
            },
            {
              "pitch": 51,
              "velocity": 115,
              "position": 11.0,
              "duration": 0.208333
            },
            {
              "pitch": 54,
              "velocity": 115,
              "position": 11.0,
              "duration": 0.208333
            },
            {
              "pitch": 56,
              "velocity": 80,
              "position": 11.0,
              "duration": 0.208333
            },
            {
              "pitch": 51,
              "velocity": 100,
              "position": 11.5,
              "duration": 0.208333
            },
            {
              "pitch": 35,
              "velocity": 115,
              "position": 12.0,
              "duration": 0.208333
            },
            {
              "pitch": 42,
              "velocity": 80,
              "position": 12.0,
              "duration": 0.208333
            },
            {
              "pitch": 51,
              "velocity": 115,
              "position": 12.0,
              "duration": 0.208333
            },
            {
              "pitch": 56,
              "velocity": 80,
              "position": 12.0,
              "duration": 0.208333
            },
            {
              "pitch": 38,
              "velocity": 127,
              "position": 12.5,
              "duration": 0.208333
            },
            {
              "pitch": 41,
              "velocity": 127,
              "position": 12.5,
              "duration": 0.208333
            },
            {
              "pitch": 51,
              "velocity": 90,
              "position": 12.5,
              "duration": 0.208333
            },
            {
              "pitch": 35,
              "velocity": 115,
              "position": 13.0,
              "duration": 0.208333
            },
            {
              "pitch": 38,
              "velocity": 127,
              "position": 13.0,
              "duration": 0.208333
            },
            {
              "pitch": 39,
              "velocity": 127,
              "position": 13.0,
              "duration": 0.208333
            },
            {
              "pitch": 41,
              "velocity": 127,
              "position": 13.0,
              "duration": 0.208333
            },
            {
              "pitch": 42,
              "velocity": 90,
              "position": 13.0,
              "duration": 0.208333
            },
            {
              "pitch": 49,
              "velocity": 127,
              "position": 13.0,
              "duration": 0.208333
            },
            {
              "pitch": 51,
              "velocity": 115,
              "position": 13.0,
              "duration": 0.208333
            },
            {
              "pitch": 54,
              "velocity": 115,
              "position": 13.0,
              "duration": 0.208333
            },
            {
              "pitch": 56,
              "velocity": 80,
              "position": 13.0,
              "duration": 0.208333
            },
            {
              "pitch": 51,
              "velocity": 100,
              "position": 13.5,
              "duration": 0.208333
            },
            {
              "pitch": 54,
              "velocity": 90,
              "position": 13.5,
              "duration": 0.208333
            },
            {
              "pitch": 38,
              "velocity": 48,
              "position": 13.625,
              "duration": 0.125
            },
            {
              "pitch": 38,
              "velocity": 90,
              "position": 13.75,
              "duration": 0.083333
            },
            {
              "pitch": 38,
              "velocity": 72,
              "position": 13.875,
              "duration": 0.083333
            },
            {
              "pitch": 35,
              "velocity": 115,
              "position": 14.0,
              "duration": 0.208333
            },
            {
              "pitch": 38,
              "velocity": 127,
              "position": 14.0,
              "duration": 0.083333
            },
            {
              "pitch": 42,
              "velocity": 80,
              "position": 14.0,
              "duration": 0.208333
            },
            {
              "pitch": 51,
              "velocity": 115,
              "position": 14.0,
              "duration": 0.208333
            },
            {
              "pitch": 54,
              "velocity": 115,
              "position": 14.0,
              "duration": 0.208333
            },
            {
              "pitch": 56,
              "velocity": 80,
              "position": 14.0,
              "duration": 0.208333
            },
            {
              "pitch": 38,
              "velocity": 90,
              "position": 14.5,
              "duration": 0.208333
            },
            {
              "pitch": 51,
              "velocity": 100,
              "position": 14.5,
              "duration": 0.208333
            },
            {
              "pitch": 54,
              "velocity": 100,
              "position": 14.5,
              "duration": 0.208333
            },
            {
              "pitch": 35,
              "velocity": 80,
              "position": 14.75,
              "duration": 0.208333
            },
            {
              "pitch": 35,
              "velocity": 115,
              "position": 15.0,
              "duration": 0.208333
            },
            {
              "pitch": 38,
              "velocity": 60,
              "position": 15.0,
              "duration": 0.208333
            },
            {
              "pitch": 42,
              "velocity": 90,
              "position": 15.0,
              "duration": 0.208333
            },
            {
              "pitch": 51,
              "velocity": 115,
              "position": 15.0,
              "duration": 0.208333
            },
            {
              "pitch": 54,
              "velocity": 115,
              "position": 15.0,
              "duration": 0.208333
            },
            {
              "pitch": 56,
              "velocity": 80,
              "position": 15.0,
              "duration": 0.208333
            },
            {
              "pitch": 38,
              "velocity": 90,
              "position": 15.25,
              "duration": 0.208333
            },
            {
              "pitch": 51,
              "velocity": 115,
              "position": 15.25,
              "duration": 0.208333
            },
            {
              "pitch": 38,
              "velocity": 127,
              "position": 15.5,
              "duration": 0.208333
            },
            {
              "pitch": 49,
              "velocity": 127,
              "position": 15.5,
              "duration": 0.208333
            },
            {
              "pitch": 51,
              "velocity": 100,
              "position": 15.5,
              "duration": 0.208333
            },
            {
              "pitch": 54,
              "velocity": 90,
              "position": 15.5,
              "duration": 0.208333
            },
            {
              "pitch": 35,
              "velocity": 100,
              "position": 15.75,
              "duration": 0.208333
            },
            {
              "pitch": 54,
              "velocity": 80,
              "position": 15.75,
              "duration": 0.208333
            }
          ]
        },
        "10": {
          "ctab": {
            "srcChannel": 10,
            "name": "Bass",
            "accType": "BASS",
            "editable": true,
            "mutedNotes": [],
            "mutedChords": [],
            "sourceChordNote": 0,
            "sourceChordType": "Maj7",
            "ctb2Main": {
              "ntr": "ROOT_TRANSPOSITION",
              "ntt": "BYPASS",
              "bassOn": true,
              "noteLowLimit": 20,
              "noteHighLimit": 60,
              "chordRootUpperLimit": 127,
              "rtr": "NOTE_GENERATOR"
            }
          },
          "notes": [
            {
              "pitch": 36,
              "velocity": 122,
              "position": 0.0,
              "duration": 0.383333
            },
            {
              "pitch": 36,
              "velocity": 122,
              "position": 1.5,
              "duration": 0.866667
            },
            {
              "pitch": 36,
              "velocity": 121,
              "position": 4.5,
              "duration": 0.2
            },
            {
              "pitch": 35,
              "velocity": 116,
              "position": 5.0,
              "duration": 0.233333
            },
            {
              "pitch": 36,
              "velocity": 127,
              "position": 5.5,
              "duration": 0.216667
            },
            {
              "pitch": 36,
              "velocity": 127,
              "position": 6.0,
              "duration": 0.391667
            },
            {
              "pitch": 36,
              "velocity": 127,
              "position": 7.5,
              "duration": 0.316667
            },
            {
              "pitch": 36,
              "velocity": 127,
              "position": 8.0,
              "duration": 0.391667
            },
            {
              "pitch": 36,
              "velocity": 127,
              "position": 9.5,
              "duration": 0.316667
            },
            {
              "pitch": 35,
              "velocity": 113,
              "position": 12.5,
              "duration": 0.15
            },
            {
              "pitch": 36,
              "velocity": 127,
              "position": 13.0,
              "duration": 1.0
            },
            {
              "pitch": 35,
              "velocity": 107,
              "position": 14.0,
              "duration": 0.433333
            },
            {
              "pitch": 36,
              "velocity": 116,
              "position": 14.5,
              "duration": 0.166667
            },
            {
              "pitch": 36,
              "velocity": 127,
              "position": 15.0,
              "duration": 0.966667
            }
          ]
        },
        "11": {
          "ctab": {
            "srcChannel": 11,
            "name": "Piano",
            "accType": "CHORD1",
            "editable": true,
            "mutedNotes": [],
            "mutedChords": [],
            "sourceChordNote": 0,
            "sourceChordType": "Maj7",
            "ctb2Main": {
              "ntr": "ROOT_FIXED",
              "ntt": "CHORD",
              "bassOn": false,
              "noteLowLimit": 48,
              "noteHighLimit": 84,
              "chordRootUpperLimit": 127,
              "rtr": "NOTE_GENERATOR"
            }
          },
          "notes": [
            {
              "pitch": 60,
              "velocity": 90,
              "position": 0.0,
              "duration": 0.083333
            },
            {
              "pitch": 64,
              "velocity": 99,
              "position": 0.0,
              "duration": 0.15
            },
            {
              "pitch": 67,
              "velocity": 100,
              "position": 0.0,
              "duration": 0.15
            },
            {
              "pitch": 71,
              "velocity": 100,
              "position": 0.0,
              "duration": 0.133333
            },
            {
              "pitch": 74,
              "velocity": 107,
              "position": 0.0,
              "duration": 0.133333
            },
            {
              "pitch": 76,
              "velocity": 107,
              "position": 0.0,
              "duration": 0.116667
            },
            {
              "pitch": 79,
              "velocity": 107,
              "position": 0.0,
              "duration": 0.15
            },
            {
              "pitch": 83,
              "velocity": 107,
              "position": 0.0,
              "duration": 0.166667
            },
            {
              "pitch": 60,
              "velocity": 78,
              "position": 0.75,
              "duration": 0.066667
            },
            {
              "pitch": 64,
              "velocity": 98,
              "position": 0.75,
              "duration": 0.133333
            },
            {
              "pitch": 67,
              "velocity": 93,
              "position": 0.75,
              "duration": 0.15
            },
            {
              "pitch": 71,
              "velocity": 91,
              "position": 0.75,
              "duration": 0.133333
            },
            {
              "pitch": 74,
              "velocity": 107,
              "position": 0.75,
              "duration": 0.133333
            },
            {
              "pitch": 76,
              "velocity": 107,
              "position": 0.75,
              "duration": 0.133333
            },
            {
              "pitch": 79,
              "velocity": 107,
              "position": 0.75,
              "duration": 0.166667
            },
            {
              "pitch": 83,
              "velocity": 107,
              "position": 0.75,
              "duration": 0.183333
            },
            {
              "pitch": 60,
              "velocity": 90,
              "position": 1.3,
              "duration": 0.15
            },
            {
              "pitch": 64,
              "velocity": 90,
              "position": 1.3,
              "duration": 0.116667
            },
            {
              "pitch": 67,
              "velocity": 98,
              "position": 1.3,
              "duration": 0.15
            },
            {
              "pitch": 71,
              "velocity": 97,
              "position": 1.3,
              "duration": 0.15
            },
            {
              "pitch": 74,
              "velocity": 107,
              "position": 1.3,
              "duration": 0.116667
            },
            {
              "pitch": 76,
              "velocity": 107,
              "position": 1.3,
              "duration": 0.133333
            },
            {
              "pitch": 79,
              "velocity": 107,
              "position": 1.3,
              "duration": 0.15
            },
            {
              "pitch": 83,
              "velocity": 107,
              "position": 1.3,
              "duration": 0.183333
            },
            {
              "pitch": 60,
              "velocity": 82,
              "position": 1.8,
              "duration": 0.066667
            },
            {
              "pitch": 64,
              "velocity": 97,
              "position": 1.8,
              "duration": 0.116667
            },
            {
              "pitch": 67,
              "velocity": 99,
              "position": 1.8,
              "duration": 0.116667
            },
            {
              "pitch": 71,
              "velocity": 100,
              "position": 1.8,
              "duration": 0.116667
            },
            {
              "pitch": 74,
              "velocity": 107,
              "position": 1.8,
              "duration": 0.05
            },
            {
              "pitch": 76,
              "velocity": 107,
              "position": 1.8,
              "duration": 0.066667
            },
            {
              "pitch": 79,
              "velocity": 104,
              "position": 1.8,
              "duration": 0.066667
            },
            {
              "pitch": 83,
              "velocity": 107,
              "position": 1.8,
              "duration": 0.1
            },
            {
              "pitch": 60,
              "velocity": 90,
              "position": 2.0,
              "duration": 0.083333
            },
            {
              "pitch": 64,
              "velocity": 99,
              "position": 2.0,
              "duration": 0.15
            },
            {
              "pitch": 67,
              "velocity": 100,
              "position": 2.0,
              "duration": 0.15
            },
            {
              "pitch": 71,
              "velocity": 100,
              "position": 2.0,
              "duration": 0.133333
            },
            {
              "pitch": 74,
              "velocity": 107,
              "position": 2.0,
              "duration": 0.133333
            },
            {
              "pitch": 76,
              "velocity": 107,
              "position": 2.0,
              "duration": 0.116667
            },
            {
              "pitch": 79,
              "velocity": 107,
              "position": 2.0,
              "duration": 0.15
            },
            {
              "pitch": 83,
              "velocity": 107,
              "position": 2.0,
              "duration": 0.166667
            },
            {
              "pitch": 60,
              "velocity": 78,
              "position": 2.75,
              "duration": 0.066667
            },
            {
              "pitch": 64,
              "velocity": 98,
              "position": 2.75,
              "duration": 0.133333
            },
            {
              "pitch": 67,
              "velocity": 93,
              "position": 2.75,
              "duration": 0.15
            },
            {
              "pitch": 71,
              "velocity": 91,
              "position": 2.75,
              "duration": 0.133333
            },
            {
              "pitch": 74,
              "velocity": 107,
              "position": 2.75,
              "duration": 0.133333
            },
            {
              "pitch": 76,
              "velocity": 107,
              "position": 2.75,
              "duration": 0.133333
            },
            {
              "pitch": 79,
              "velocity": 107,
              "position": 2.75,
              "duration": 0.166667
            },
            {
              "pitch": 83,
              "velocity": 107,
              "position": 2.75,
              "duration": 0.183333
            },
            {
              "pitch": 60,
              "velocity": 90,
              "position": 3.3,
              "duration": 0.15
            },
            {
              "pitch": 64,
              "velocity": 90,
              "position": 3.3,
              "duration": 0.116667
            },
            {
              "pitch": 67,
              "velocity": 98,
              "position": 3.3,
              "duration": 0.15
            },
            {
              "pitch": 71,
              "velocity": 97,
              "position": 3.3,
              "duration": 0.15
            },
            {
              "pitch": 74,
              "velocity": 107,
              "position": 3.3,
              "duration": 0.116667
            },
            {
              "pitch": 76,
              "velocity": 107,
              "position": 3.3,
              "duration": 0.133333
            },
            {
              "pitch": 79,
              "velocity": 107,
              "position": 3.3,
              "duration": 0.15
            },
            {
              "pitch": 83,
              "velocity": 107,
              "position": 3.3,
              "duration": 0.183333
            },
            {
              "pitch": 60,
              "velocity": 82,
              "position": 3.8,
              "duration": 0.066667
            },
            {
              "pitch": 64,
              "velocity": 97,
              "position": 3.8,
              "duration": 0.116667
            },
            {
              "pitch": 67,
              "velocity": 99,
              "position": 3.8,
              "duration": 0.116667
            },
            {
              "pitch": 71,
              "velocity": 100,
              "position": 3.8,
              "duration": 0.116667
            },
            {
              "pitch": 74,
              "velocity": 107,
              "position": 3.8,
              "duration": 0.05
            },
            {
              "pitch": 76,
              "velocity": 107,
              "position": 3.8,
              "duration": 0.066667
            },
            {
              "pitch": 79,
              "velocity": 104,
              "position": 3.8,
              "duration": 0.066667
            },
            {
              "pitch": 83,
              "velocity": 107,
              "position": 3.8,
              "duration": 0.1
            },
            {
              "pitch": 60,
              "velocity": 91,
              "position": 8.0,
              "duration": 0.083333
            },
            {
              "pitch": 64,
              "velocity": 100,
              "position": 8.0,
              "duration": 0.15
            },
            {
              "pitch": 67,
              "velocity": 101,
              "position": 8.0,
              "duration": 0.15
            },
            {
              "pitch": 71,
              "velocity": 101,
              "position": 8.0,
              "duration": 0.133333
            },
            {
              "pitch": 74,
              "velocity": 108,
              "position": 8.0,
              "duration": 0.133333
            },
            {
              "pitch": 76,
              "velocity": 108,
              "position": 8.0,
              "duration": 0.116667
            },
            {
              "pitch": 79,
              "velocity": 108,
              "position": 8.0,
              "duration": 0.15
            },
            {
              "pitch": 83,
              "velocity": 108,
              "position": 8.0,
              "duration": 0.166667
            },
            {
              "pitch": 60,
              "velocity": 79,
              "position": 8.75,
              "duration": 0.066667
            },
            {
              "pitch": 64,
              "velocity": 99,
              "position": 8.75,
              "duration": 0.133333
            },
            {
              "pitch": 67,
              "velocity": 94,
              "position": 8.75,
              "duration": 0.15
            },
            {
              "pitch": 71,
              "velocity": 92,
              "position": 8.75,
              "duration": 0.133333
            },
            {
              "pitch": 74,
              "velocity": 108,
              "position": 8.75,
              "duration": 0.133333
            },
            {
              "pitch": 76,
              "velocity": 108,
              "position": 8.75,
              "duration": 0.133333
            },
            {
              "pitch": 79,
              "velocity": 108,
              "position": 8.75,
              "duration": 0.166667
            },
            {
              "pitch": 83,
              "velocity": 108,
              "position": 8.75,
              "duration": 0.183333
            },
            {
              "pitch": 60,
              "velocity": 91,
              "position": 9.3,
              "duration": 0.15
            },
            {
              "pitch": 64,
              "velocity": 91,
              "position": 9.3,
              "duration": 0.116667
            },
            {
              "pitch": 67,
              "velocity": 99,
              "position": 9.3,
              "duration": 0.15
            },
            {
              "pitch": 71,
              "velocity": 98,
              "position": 9.3,
              "duration": 0.15
            },
            {
              "pitch": 74,
              "velocity": 108,
              "position": 9.3,
              "duration": 0.116667
            },
            {
              "pitch": 76,
              "velocity": 108,
              "position": 9.3,
              "duration": 0.133333
            },
            {
              "pitch": 79,
              "velocity": 108,
              "position": 9.3,
              "duration": 0.15
            },
            {
              "pitch": 83,
              "velocity": 108,
              "position": 9.3,
              "duration": 0.183333
            },
            {
              "pitch": 60,
              "velocity": 83,
              "position": 9.8,
              "duration": 0.066667
            },
            {
              "pitch": 64,
              "velocity": 98,
              "position": 9.8,
              "duration": 0.116667
            },
            {
              "pitch": 67,
              "velocity": 100,
              "position": 9.8,
              "duration": 0.116667
            },
            {
              "pitch": 71,
              "velocity": 101,
              "position": 9.8,
              "duration": 0.116667
            },
            {
              "pitch": 74,
              "velocity": 108,
              "position": 9.8,
              "duration": 0.05
            },
            {
              "pitch": 76,
              "velocity": 108,
              "position": 9.8,
              "duration": 0.066667
            },
            {
              "pitch": 79,
              "velocity": 105,
              "position": 9.8,
              "duration": 0.066667
            },
            {
              "pitch": 83,
              "velocity": 108,
              "position": 9.8,
              "duration": 0.1
            },
            {
              "pitch": 60,
              "velocity": 74,
              "position": 10.0,
              "duration": 0.15
            },
            {
              "pitch": 64,
              "velocity": 103,
              "position": 10.0,
              "duration": 0.183333
            },
            {
              "pitch": 67,
              "velocity": 102,
              "position": 10.0,
              "duration": 0.216667
            },
            {
              "pitch": 71,
              "velocity": 94,
              "position": 10.0,
              "duration": 0.183333
            },
            {
              "pitch": 74,
              "velocity": 108,
              "position": 10.0,
              "duration": 0.15
            },
            {
              "pitch": 76,
              "velocity": 108,
              "position": 10.0,
              "duration": 0.166667
            },
            {
              "pitch": 79,
              "velocity": 108,
              "position": 10.0,
              "duration": 0.183333
            },
            {
              "pitch": 83,
              "velocity": 95,
              "position": 10.0,
              "duration": 0.216667
            },
            {
              "pitch": 60,
              "velocity": 89,
              "position": 10.5,
              "duration": 0.133333
            },
            {
              "pitch": 64,
              "velocity": 94,
              "position": 10.5,
              "duration": 0.166667
            },
            {
              "pitch": 67,
              "velocity": 94,
              "position": 10.5,
              "duration": 0.183333
            },
            {
              "pitch": 71,
              "velocity": 95,
              "position": 10.5,
              "duration": 0.166667
            },
            {
              "pitch": 74,
              "velocity": 108,
              "position": 10.5,
              "duration": 0.116667
            },
            {
              "pitch": 76,
              "velocity": 108,
              "position": 10.5,
              "duration": 0.133333
            },
            {
              "pitch": 79,
              "velocity": 108,
              "position": 10.5,
              "duration": 0.133333
            },
            {
              "pitch": 83,
              "velocity": 108,
              "position": 10.5,
              "duration": 0.2
            }
          ]
        },
        "12": {
          "ctab": {
            "srcChannel": 12,
            "name": "Guitar",
            "accType": "CHORD2",
            "editable": true,
            "mutedNotes": [],
            "mutedChords": [],
            "sourceChordNote": 0,
            "sourceChordType": "Maj7",
            "ctb2Main": {
              "ntr": "ROOT_FIXED",
              "ntt": "CHORD",
              "bassOn": false,
              "noteLowLimit": 40,
              "noteHighLimit": 76,
              "chordRootUpperLimit": 127,
              "rtr": "NOTE_GENERATOR"
            }
          },
          "notes": [
            {
              "pitch": 74,
              "velocity": 127,
              "position": 0.0,
              "duration": 0.475
            },
            {
              "pitch": 74,
              "velocity": 127,
              "position": 2.0,
              "duration": 0.475
            }
          ]
        },
        "13": {
          "ctab": {
            "srcChannel": 13,
            "name": "Strings",
            "accType": "PAD",
            "editable": true,
            "mutedNotes": [],
            "mutedChords": [],
            "sourceChordNote": 0,
            "sourceChordType": "Maj7",
            "ctb2Main": {
              "ntr": "ROOT_FIXED",
              "ntt": "MELODY",
              "bassOn": false,
              "noteLowLimit": 36,
              "noteHighLimit": 96,
              "chordRootUpperLimit": 127,
              "rtr": "PITCH_SHIFT"
            }
          },
          "notes": [
            {
              "pitch": 76,
              "velocity": 32,
              "position": 0.0,
              "duration": 95.958333
            },
            {
              "pitch": 79,
              "velocity": 49,
              "position": 0.0,
              "duration": 95.975
            }
          ]
        }
      }
    },
    "Main_B": {
      "type": "Main_B",
      "sizeInBeats": 16,
      "channels": {
        "9": {
          "ctab": {
            "srcChannel": 9,
            "name": "Drums",
            "accType": "RHYTHM",
            "editable": false,
            "mutedNotes": [],
            "mutedChords": [],
            "sourceChordNote": 0,
            "sourceChordType": "Maj",
            "ctb2Main": {
              "ntr": "ROOT_FIXED",
              "ntt": "BYPASS",
              "bassOn": false,
              "noteLowLimit": 20,
              "noteHighLimit": 127,
              "chordRootUpperLimit": 127,
              "rtr": "RETRIGGER"
            }
          },
          "notes": [
            {
              "pitch": 35,
              "velocity": 115,
              "position": 0.0,
              "duration": 0.208333
            },
            {
              "pitch": 42,
              "velocity": 80,
              "position": 0.0,
              "duration": 0.208333
            },
            {
              "pitch": 49,
              "velocity": 127,
              "position": 0.0,
              "duration": 0.208333
            },
            {
              "pitch": 51,
              "velocity": 115,
              "position": 0.0,
              "duration": 0.208333
            },
            {
              "pitch": 56,
              "velocity": 80,
              "position": 0.0,
              "duration": 0.208333
            },
            {
              "pitch": 51,
              "velocity": 90,
              "position": 0.5,
              "duration": 0.208333
            },
            {
              "pitch": 35,
              "velocity": 115,
              "position": 1.0,
              "duration": 0.208333
            },
            {
              "pitch": 38,
              "velocity": 127,
              "position": 1.0,
              "duration": 0.208333
            },
            {
              "pitch": 39,
              "velocity": 127,
              "position": 1.0,
              "duration": 0.208333
            },
            {
              "pitch": 42,
              "velocity": 90,
              "position": 1.0,
              "duration": 0.208333
            },
            {
              "pitch": 51,
              "velocity": 115,
              "position": 1.0,
              "duration": 0.208333
            },
            {
              "pitch": 54,
              "velocity": 115,
              "position": 1.0,
              "duration": 0.208333
            },
            {
              "pitch": 56,
              "velocity": 80,
              "position": 1.0,
              "duration": 0.208333
            },
            {
              "pitch": 51,
              "velocity": 100,
              "position": 1.5,
              "duration": 0.208333
            },
            {
              "pitch": 35,
              "velocity": 115,
              "position": 2.0,
              "duration": 0.208333
            },
            {
              "pitch": 42,
              "velocity": 80,
              "position": 2.0,
              "duration": 0.208333
            },
            {
              "pitch": 51,
              "velocity": 115,
              "position": 2.0,
              "duration": 0.208333
            },
            {
              "pitch": 56,
              "velocity": 80,
              "position": 2.0,
              "duration": 0.208333
            },
            {
              "pitch": 51,
              "velocity": 100,
              "position": 2.5,
              "duration": 0.208333
            },
            {
              "pitch": 35,
              "velocity": 115,
              "position": 3.0,
              "duration": 0.208333
            },
            {
              "pitch": 38,
              "velocity": 127,
              "position": 3.0,
              "duration": 0.208333
            },
            {
              "pitch": 39,
              "velocity": 127,
              "position": 3.0,
              "duration": 0.208333
            },
            {
              "pitch": 42,
              "velocity": 90,
              "position": 3.0,
              "duration": 0.208333
            },
            {
              "pitch": 51,
              "velocity": 115,
              "position": 3.0,
              "duration": 0.208333
            },
            {
              "pitch": 54,
              "velocity": 115,
              "position": 3.0,
              "duration": 0.208333
            },
            {
              "pitch": 56,
              "velocity": 80,
              "position": 3.0,
              "duration": 0.208333
            },
            {
              "pitch": 51,
              "velocity": 100,
              "position": 3.5,
              "duration": 0.208333
            },
            {
              "pitch": 35,
              "velocity": 115,
              "position": 4.0,
              "duration": 0.208333
            },
            {
              "pitch": 42,
              "velocity": 80,
              "position": 4.0,
              "duration": 0.208333
            },
            {
              "pitch": 51,
              "velocity": 115,
              "position": 4.0,
              "duration": 0.208333
            },
            {
              "pitch": 56,
              "velocity": 80,
              "position": 4.0,
              "duration": 0.208333
            },
            {
              "pitch": 51,
              "velocity": 90,
              "position": 4.5,
              "duration": 0.208333
            },
            {
              "pitch": 35,
              "velocity": 115,
              "position": 5.0,
              "duration": 0.208333
            },
            {
              "pitch": 38,
              "velocity": 127,
              "position": 5.0,
              "duration": 0.208333
            },
            {
              "pitch": 39,
              "velocity": 127,
              "position": 5.0,
              "duration": 0.208333
            },
            {
              "pitch": 42,
              "velocity": 90,
              "position": 5.0,
              "duration": 0.208333
            },
            {
              "pitch": 51,
              "velocity": 115,
              "position": 5.0,
              "duration": 0.208333
            },
            {
              "pitch": 54,
              "velocity": 115,
              "position": 5.0,
              "duration": 0.208333
            },
            {
              "pitch": 56,
              "velocity": 80,
              "position": 5.0,
              "duration": 0.208333
            },
            {
              "pitch": 51,
              "velocity": 100,
              "position": 5.25,
              "duration": 0.208333
            },
            {
              "pitch": 51,
              "velocity": 100,
              "position": 5.5,
              "duration": 0.208333
            },
            {
              "pitch": 35,
              "velocity": 115,
              "position": 6.0,
              "duration": 0.208333
            },
            {
              "pitch": 42,
              "velocity": 80,
              "position": 6.0,
              "duration": 0.208333
            },
            {
              "pitch": 51,
              "velocity": 115,
              "position": 6.0,
              "duration": 0.208333
            },
            {
              "pitch": 56,
              "velocity": 80,
              "position": 6.0,
              "duration": 0.208333
            },
            {
              "pitch": 51,
              "velocity": 100,
              "position": 6.5,
              "duration": 0.208333
            },
            {
              "pitch": 35,
              "velocity": 115,
              "position": 7.0,
              "duration": 0.208333
            },
            {
              "pitch": 38,
              "velocity": 127,
              "position": 7.0,
              "duration": 0.208333
            },
            {
              "pitch": 39,
              "velocity": 127,
              "position": 7.0,
              "duration": 0.208333
            },
            {
              "pitch": 42,
              "velocity": 90,
              "position": 7.0,
              "duration": 0.208333
            },
            {
              "pitch": 51,
              "velocity": 115,
              "position": 7.0,
              "duration": 0.208333
            },
            {
              "pitch": 54,
              "velocity": 115,
              "position": 7.0,
              "duration": 0.208333
            },
            {
              "pitch": 56,
              "velocity": 80,
              "position": 7.0,
              "duration": 0.208333
            },
            {
              "pitch": 51,
              "velocity": 100,
              "position": 7.5,
              "duration": 0.208333
            },
            {
              "pitch": 35,
              "velocity": 115,
              "position": 8.0,
              "duration": 0.208333
            },
            {
              "pitch": 42,
              "velocity": 80,
              "position": 8.0,
              "duration": 0.208333
            },
            {
              "pitch": 51,
              "velocity": 115,
              "position": 8.0,
              "duration": 0.208333
            },
            {
              "pitch": 56,
              "velocity": 80,
              "position": 8.0,
              "duration": 0.208333
            },
            {
              "pitch": 51,
              "velocity": 90,
              "position": 8.5,
              "duration": 0.208333
            },
            {
              "pitch": 35,
              "velocity": 115,
              "position": 9.0,
              "duration": 0.208333
            },
            {
              "pitch": 38,
              "velocity": 127,
              "position": 9.0,
              "duration": 0.208333
            },
            {
              "pitch": 39,
              "velocity": 127,
              "position": 9.0,
              "duration": 0.208333
            },
            {
              "pitch": 42,
              "velocity": 90,
              "position": 9.0,
              "duration": 0.208333
            },
            {
              "pitch": 51,
              "velocity": 115,
              "position": 9.0,
              "duration": 0.208333
            },
            {
              "pitch": 54,
              "velocity": 115,
              "position": 9.0,
              "duration": 0.208333
            },
            {
              "pitch": 56,
              "velocity": 80,
              "position": 9.0,
              "duration": 0.208333
            },
            {
              "pitch": 51,
              "velocity": 100,
              "position": 9.5,
              "duration": 0.208333
            },
            {
              "pitch": 35,
              "velocity": 115,
              "position": 10.0,
              "duration": 0.208333
            },
            {
              "pitch": 42,
              "velocity": 80,
              "position": 10.0,
              "duration": 0.208333
            },
            {
              "pitch": 51,
              "velocity": 115,
              "position": 10.0,
              "duration": 0.208333
            },
            {
              "pitch": 56,
              "velocity": 80,
              "position": 10.0,
              "duration": 0.208333
            },
            {
              "pitch": 51,
              "velocity": 100,
              "position": 10.5,
              "duration": 0.208333
            },
            {
              "pitch": 35,
              "velocity": 115,
              "position": 11.0,
              "duration": 0.208333
            },
            {
              "pitch": 38,
              "velocity": 127,
              "position": 11.0,
              "duration": 0.208333
            },
            {
              "pitch": 39,
              "velocity": 127,
              "position": 11.0,
              "duration": 0.208333
            },
            {
              "pitch": 42,
              "velocity": 90,
              "position": 11.0,
              "duration": 0.208333
            },
            {
              "pitch": 51,
              "velocity": 115,
              "position": 11.0,
              "duration": 0.208333
            },
            {
              "pitch": 54,
              "velocity": 115,
              "position": 11.0,
              "duration": 0.208333
            },
            {
              "pitch": 56,
              "velocity": 80,
              "position": 11.0,
              "duration": 0.208333
            },
            {
              "pitch": 51,
              "velocity": 100,
              "position": 11.5,
              "duration": 0.208333
            },
            {
              "pitch": 35,
              "velocity": 115,
              "position": 12.0,
              "duration": 0.208333
            },
            {
              "pitch": 42,
              "velocity": 80,
              "position": 12.0,
              "duration": 0.208333
            },
            {
              "pitch": 51,
              "velocity": 115,
              "position": 12.0,
              "duration": 0.208333
            },
            {
              "pitch": 56,
              "velocity": 80,
              "position": 12.0,
              "duration": 0.208333
            },
            {
              "pitch": 51,
              "velocity": 90,
              "position": 12.5,
              "duration": 0.208333
            },
            {
              "pitch": 35,
              "velocity": 115,
              "position": 13.0,
              "duration": 0.208333
            },
            {
              "pitch": 38,
              "velocity": 127,
              "position": 13.0,
              "duration": 0.208333
            },
            {
              "pitch": 39,
              "velocity": 127,
              "position": 13.0,
              "duration": 0.208333
            },
            {
              "pitch": 42,
              "velocity": 90,
              "position": 13.0,
              "duration": 0.208333
            },
            {
              "pitch": 51,
              "velocity": 115,
              "position": 13.0,
              "duration": 0.208333
            },
            {
              "pitch": 54,
              "velocity": 115,
              "position": 13.0,
              "duration": 0.208333
            },
            {
              "pitch": 56,
              "velocity": 80,
              "position": 13.0,
              "duration": 0.208333
            },
            {
              "pitch": 51,
              "velocity": 100,
              "position": 13.25,
              "duration": 0.208333
            },
            {
              "pitch": 51,
              "velocity": 100,
              "position": 13.5,
              "duration": 0.208333
            },
            {
              "pitch": 35,
              "velocity": 115,
              "position": 14.0,
              "duration": 0.208333
            },
            {
              "pitch": 42,
              "velocity": 80,
              "position": 14.0,
              "duration": 0.208333
            },
            {
              "pitch": 51,
              "velocity": 115,
              "position": 14.0,
              "duration": 0.208333
            },
            {
              "pitch": 56,
              "velocity": 80,
              "position": 14.0,
              "duration": 0.208333
            },
            {
              "pitch": 51,
              "velocity": 100,
              "position": 14.5,
              "duration": 0.208333
            },
            {
              "pitch": 38,
              "velocity": 80,
              "position": 14.75,
              "duration": 0.125
            },
            {
              "pitch": 38,
              "velocity": 64,
              "position": 14.875,
              "duration": 0.083333
            },
            {
              "pitch": 35,
              "velocity": 115,
              "position": 15.0,
              "duration": 0.208333
            },
            {
              "pitch": 38,
              "velocity": 127,
              "position": 15.0,
              "duration": 0.083333
            },
            {
              "pitch": 39,
              "velocity": 127,
              "position": 15.0,
              "duration": 0.208333
            },
            {
              "pitch": 42,
              "velocity": 90,
              "position": 15.0,
              "duration": 0.208333
            },
            {
              "pitch": 51,
              "velocity": 115,
              "position": 15.0,
              "duration": 0.208333
            },
            {
              "pitch": 54,
              "velocity": 115,
              "position": 15.0,
              "duration": 0.208333
            },
            {
              "pitch": 56,
              "velocity": 80,
              "position": 15.0,
              "duration": 0.208333
            },
            {
              "pitch": 38,
              "velocity": 90,
              "position": 15.25,
              "duration": 0.208333
            },
            {
              "pitch": 35,
              "velocity": 100,
              "position": 15.5,
              "duration": 0.208333
            },
            {
              "pitch": 38,
              "velocity": 115,
              "position": 15.5,
              "duration": 0.208333
            },
            {
              "pitch": 51,
              "velocity": 100,
              "position": 15.5,
              "duration": 0.208333
            },
            {
              "pitch": 35,
              "velocity": 80,
              "position": 15.75,
              "duration": 0.208333
            }
          ]
        },
        "10": {
          "ctab": {
            "srcChannel": 10,
            "name": "Bass",
            "accType": "BASS",
            "editable": true,
            "mutedNotes": [],
            "mutedChords": [],
            "sourceChordNote": 0,
            "sourceChordType": "Maj7",
            "ctb2Main": {
              "ntr": "ROOT_TRANSPOSITION",
              "ntt": "BYPASS",
              "bassOn": true,
              "noteLowLimit": 20,
              "noteHighLimit": 60,
              "chordRootUpperLimit": 127,
              "rtr": "NOTE_GENERATOR"
            }
          },
          "notes": [
            {
              "pitch": 36,
              "velocity": 122,
              "position": 0.0,
              "duration": 0.233333
            },
            {
              "pitch": 36,
              "velocity": 120,
              "position": 0.75,
              "duration": 0.183333
            },
            {
              "pitch": 36,
              "velocity": 127,
              "position": 1.5,
              "duration": 0.866667
            },
            {
              "pitch": 31,
              "velocity": 125,
              "position": 3.5,
              "duration": 0.1
            },
            {
              "pitch": 36,
              "velocity": 113,
              "position": 3.75,
              "duration": 0.141667
            },
            {
              "pitch": 36,
              "velocity": 121,
              "position": 4.5,
              "duration": 0.2
            },
            {
              "pitch": 35,
              "velocity": 116,
              "position": 5.0,
              "duration": 0.233333
            },
            {
              "pitch": 33,
              "velocity": 127,
              "position": 5.5,
              "duration": 0.216667
            },
            {
              "pitch": 36,
              "velocity": 127,
              "position": 6.0,
              "duration": 0.383333
            },
            {
              "pitch": 36,
              "velocity": 127,
              "position": 7.5,
              "duration": 0.333333
            },
            {
              "pitch": 36,
              "velocity": 127,
              "position": 8.0,
              "duration": 0.391667
            },
            {
              "pitch": 36,
              "velocity": 127,
              "position": 9.5,
              "duration": 0.316667
            },
            {
              "pitch": 35,
              "velocity": 113,
              "position": 12.5,
              "duration": 0.15
            },
            {
              "pitch": 36,
              "velocity": 127,
              "position": 13.0,
              "duration": 1.0
            },
            {
              "pitch": 35,
              "velocity": 107,
              "position": 14.0,
              "duration": 0.433333
            },
            {
              "pitch": 36,
              "velocity": 116,
              "position": 14.5,
              "duration": 0.166667
            },
            {
              "pitch": 36,
              "velocity": 127,
              "position": 15.0,
              "duration": 0.966667
            }
          ]
        },
        "11": {
          "ctab": {
            "srcChannel": 11,
            "name": "Piano",
            "accType": "CHORD1",
            "editable": true,
            "mutedNotes": [],
            "mutedChords": [],
            "sourceChordNote": 0,
            "sourceChordType": "Maj7",
            "ctb2Main": {
              "ntr": "ROOT_FIXED",
              "ntt": "CHORD",
              "bassOn": false,
              "noteLowLimit": 48,
              "noteHighLimit": 84,
              "chordRootUpperLimit": 127,
              "rtr": "NOTE_GENERATOR"
            }
          },
          "notes": [
            {
              "pitch": 60,
              "velocity": 90,
              "position": 0.0,
              "duration": 0.083333
            },
            {
              "pitch": 64,
              "velocity": 99,
              "position": 0.0,
              "duration": 0.15
            },
            {
              "pitch": 67,
              "velocity": 100,
              "position": 0.0,
              "duration": 0.15
            },
            {
              "pitch": 71,
              "velocity": 100,
              "position": 0.0,
              "duration": 0.133333
            },
            {
              "pitch": 74,
              "velocity": 107,
              "position": 0.0,
              "duration": 0.133333
            },
            {
              "pitch": 76,
              "velocity": 107,
              "position": 0.0,
              "duration": 0.116667
            },
            {
              "pitch": 79,
              "velocity": 107,
              "position": 0.0,
              "duration": 0.15
            },
            {
              "pitch": 83,
              "velocity": 107,
              "position": 0.0,
              "duration": 0.166667
            },
            {
              "pitch": 60,
              "velocity": 78,
              "position": 0.75,
              "duration": 0.066667
            },
            {
              "pitch": 64,
              "velocity": 98,
              "position": 0.75,
              "duration": 0.133333
            },
            {
              "pitch": 67,
              "velocity": 93,
              "position": 0.75,
              "duration": 0.15
            },
            {
              "pitch": 71,
              "velocity": 91,
              "position": 0.75,
              "duration": 0.133333
            },
            {
              "pitch": 74,
              "velocity": 107,
              "position": 0.75,
              "duration": 0.133333
            },
            {
              "pitch": 76,
              "velocity": 107,
              "position": 0.75,
              "duration": 0.133333
            },
            {
              "pitch": 79,
              "velocity": 107,
              "position": 0.75,
              "duration": 0.166667
            },
            {
              "pitch": 83,
              "velocity": 107,
              "position": 0.75,
              "duration": 0.183333
            },
            {
              "pitch": 60,
              "velocity": 90,
              "position": 1.3,
              "duration": 0.15
            },
            {
              "pitch": 64,
              "velocity": 90,
              "position": 1.3,
              "duration": 0.116667
            },
            {
              "pitch": 67,
              "velocity": 98,
              "position": 1.3,
              "duration": 0.15
            },
            {
              "pitch": 71,
              "velocity": 97,
              "position": 1.3,
              "duration": 0.15
            },
            {
              "pitch": 74,
              "velocity": 107,
              "position": 1.3,
              "duration": 0.116667
            },
            {
              "pitch": 76,
              "velocity": 107,
              "position": 1.3,
              "duration": 0.133333
            },
            {
              "pitch": 79,
              "velocity": 107,
              "position": 1.3,
              "duration": 0.15
            },
            {
              "pitch": 83,
              "velocity": 107,
              "position": 1.3,
              "duration": 0.183333
            },
            {
              "pitch": 60,
              "velocity": 94,
              "position": 2.0,
              "duration": 0.2
            },
            {
              "pitch": 64,
              "velocity": 94,
              "position": 2.0,
              "duration": 0.216667
            },
            {
              "pitch": 67,
              "velocity": 94,
              "position": 2.0,
              "duration": 0.233333
            },
            {
              "pitch": 71,
              "velocity": 95,
              "position": 2.0,
              "duration": 0.216667
            },
            {
              "pitch": 74,
              "velocity": 112,
              "position": 2.0,
              "duration": 0.2
            },
            {
              "pitch": 76,
              "velocity": 107,
              "position": 2.0,
              "duration": 0.2
            },
            {
              "pitch": 79,
              "velocity": 98,
              "position": 2.0,
              "duration": 0.233333
            },
            {
              "pitch": 83,
              "velocity": 88,
              "position": 2.0,
              "duration": 0.233333
            },
            {
              "pitch": 86,
              "velocity": 105,
              "position": 2.0,
              "duration": 0.233333
            },
            {
              "pitch": 60,
              "velocity": 97,
              "position": 2.5,
              "duration": 0.216667
            },
            {
              "pitch": 64,
              "velocity": 96,
              "position": 2.5,
              "duration": 0.216667
            },
            {
              "pitch": 67,
              "velocity": 99,
              "position": 2.5,
              "duration": 0.233333
            },
            {
              "pitch": 71,
              "velocity": 99,
              "position": 2.5,
              "duration": 0.2
            },
            {
              "pitch": 74,
              "velocity": 113,
              "position": 2.5,
              "duration": 0.216667
            },
            {
              "pitch": 76,
              "velocity": 110,
              "position": 2.5,
              "duration": 0.216667
            },
            {
              "pitch": 79,
              "velocity": 105,
              "position": 2.5,
              "duration": 0.25
            },
            {
              "pitch": 83,
              "velocity": 98,
              "position": 2.5,
              "duration": 0.25
            },
            {
              "pitch": 86,
              "velocity": 109,
              "position": 2.5,
              "duration": 0.25
            },
            {
              "pitch": 60,
              "velocity": 91,
              "position": 8.0,
              "duration": 0.083333
            },
            {
              "pitch": 64,
              "velocity": 100,
              "position": 8.0,
              "duration": 0.15
            },
            {
              "pitch": 67,
              "velocity": 101,
              "position": 8.0,
              "duration": 0.15
            },
            {
              "pitch": 71,
              "velocity": 101,
              "position": 8.0,
              "duration": 0.133333
            },
            {
              "pitch": 74,
              "velocity": 108,
              "position": 8.0,
              "duration": 0.133333
            },
            {
              "pitch": 76,
              "velocity": 108,
              "position": 8.0,
              "duration": 0.116667
            },
            {
              "pitch": 79,
              "velocity": 108,
              "position": 8.0,
              "duration": 0.15
            },
            {
              "pitch": 83,
              "velocity": 108,
              "position": 8.0,
              "duration": 0.166667
            },
            {
              "pitch": 60,
              "velocity": 79,
              "position": 8.75,
              "duration": 0.066667
            },
            {
              "pitch": 64,
              "velocity": 99,
              "position": 8.75,
              "duration": 0.133333
            },
            {
              "pitch": 67,
              "velocity": 94,
              "position": 8.75,
              "duration": 0.15
            },
            {
              "pitch": 71,
              "velocity": 92,
              "position": 8.75,
              "duration": 0.133333
            },
            {
              "pitch": 74,
              "velocity": 108,
              "position": 8.75,
              "duration": 0.133333
            },
            {
              "pitch": 76,
              "velocity": 108,
              "position": 8.75,
              "duration": 0.133333
            },
            {
              "pitch": 79,
              "velocity": 108,
              "position": 8.75,
              "duration": 0.166667
            },
            {
              "pitch": 83,
              "velocity": 108,
              "position": 8.75,
              "duration": 0.183333
            },
            {
              "pitch": 60,
              "velocity": 91,
              "position": 9.3,
              "duration": 0.15
            },
            {
              "pitch": 64,
              "velocity": 91,
              "position": 9.3,
              "duration": 0.116667
            },
            {
              "pitch": 67,
              "velocity": 99,
              "position": 9.3,
              "duration": 0.15
            },
            {
              "pitch": 71,
              "velocity": 98,
              "position": 9.3,
              "duration": 0.15
            },
            {
              "pitch": 74,
              "velocity": 108,
              "position": 9.3,
              "duration": 0.116667
            },
            {
              "pitch": 76,
              "velocity": 108,
              "position": 9.3,
              "duration": 0.133333
            },
            {
              "pitch": 79,
              "velocity": 108,
              "position": 9.3,
              "duration": 0.15
            },
            {
              "pitch": 83,
              "velocity": 108,
              "position": 9.3,
              "duration": 0.183333
            },
            {
              "pitch": 60,
              "velocity": 83,
              "position": 9.8,
              "duration": 0.066667
            },
            {
              "pitch": 64,
              "velocity": 98,
              "position": 9.8,
              "duration": 0.116667
            },
            {
              "pitch": 67,
              "velocity": 100,
              "position": 9.8,
              "duration": 0.116667
            },
            {
              "pitch": 71,
              "velocity": 101,
              "position": 9.8,
              "duration": 0.116667
            },
            {
              "pitch": 74,
              "velocity": 108,
              "position": 9.8,
              "duration": 0.05
            },
            {
              "pitch": 76,
              "velocity": 108,
              "position": 9.8,
              "duration": 0.066667
            },
            {
              "pitch": 79,
              "velocity": 105,
              "position": 9.8,
              "duration": 0.066667
            },
            {
              "pitch": 83,
              "velocity": 108,
              "position": 9.8,
              "duration": 0.1
            },
            {
              "pitch": 60,
              "velocity": 74,
              "position": 10.0,
              "duration": 0.15
            },
            {
              "pitch": 64,
              "velocity": 103,
              "position": 10.0,
              "duration": 0.183333
            },
            {
              "pitch": 67,
              "velocity": 102,
              "position": 10.0,
              "duration": 0.216667
            },
            {
              "pitch": 71,
              "velocity": 94,
              "position": 10.0,
              "duration": 0.183333
            },
            {
              "pitch": 74,
              "velocity": 108,
              "position": 10.0,
              "duration": 0.15
            },
            {
              "pitch": 76,
              "velocity": 108,
              "position": 10.0,
              "duration": 0.166667
            },
            {
              "pitch": 79,
              "velocity": 108,
              "position": 10.0,
              "duration": 0.183333
            },
            {
              "pitch": 83,
              "velocity": 95,
              "position": 10.0,
              "duration": 0.216667
            },
            {
              "pitch": 60,
              "velocity": 89,
              "position": 10.5,
              "duration": 0.133333
            },
            {
              "pitch": 64,
              "velocity": 94,
              "position": 10.5,
              "duration": 0.166667
            },
            {
              "pitch": 67,
              "velocity": 94,
              "position": 10.5,
              "duration": 0.183333
            },
            {
              "pitch": 71,
              "velocity": 95,
              "position": 10.5,
              "duration": 0.166667
            },
            {
              "pitch": 74,
              "velocity": 108,
              "position": 10.5,
              "duration": 0.116667
            },
            {
              "pitch": 76,
              "velocity": 108,
              "position": 10.5,
              "duration": 0.133333
            },
            {
              "pitch": 79,
              "velocity": 108,
              "position": 10.5,
              "duration": 0.133333
            },
            {
              "pitch": 83,
              "velocity": 108,
              "position": 10.5,
              "duration": 0.2
            }
          ]
        },
        "12": {
          "ctab": {
            "srcChannel": 12,
            "name": "Guitar",
            "accType": "CHORD2",
            "editable": true,
            "mutedNotes": [],
            "mutedChords": [],
            "sourceChordNote": 0,
            "sourceChordType": "Maj7",
            "ctb2Main": {
              "ntr": "ROOT_FIXED",
              "ntt": "CHORD",
              "bassOn": false,
              "noteLowLimit": 40,
              "noteHighLimit": 76,
              "chordRootUpperLimit": 127,
              "rtr": "NOTE_GENERATOR"
            }
          },
          "notes": [
            {
              "pitch": 74,
              "velocity": 127,
              "position": 0.0,
              "duration": 0.475
            },
            {
              "pitch": 74,
              "velocity": 127,
              "position": 2.0,
              "duration": 0.475
            }
          ]
        },
        "13": {
          "ctab": {
            "srcChannel": 13,
            "name": "Strings",
            "accType": "PAD",
            "editable": true,
            "mutedNotes": [],
            "mutedChords": [],
            "sourceChordNote": 0,
            "sourceChordType": "Maj7",
            "ctb2Main": {
              "ntr": "ROOT_FIXED",
              "ntt": "MELODY",
              "bassOn": false,
              "noteLowLimit": 36,
              "noteHighLimit": 96,
              "chordRootUpperLimit": 127,
              "rtr": "PITCH_SHIFT"
            }
          },
          "notes": []
        }
      }
    },
    "Main_C": {
      "type": "Main_C",
      "sizeInBeats": 16,
      "channels": {
        "9": {
          "ctab": {
            "srcChannel": 9,
            "name": "Drums",
            "accType": "RHYTHM",
            "editable": false,
            "mutedNotes": [],
            "mutedChords": [],
            "sourceChordNote": 0,
            "sourceChordType": "Maj",
            "ctb2Main": {
              "ntr": "ROOT_FIXED",
              "ntt": "BYPASS",
              "bassOn": false,
              "noteLowLimit": 20,
              "noteHighLimit": 127,
              "chordRootUpperLimit": 127,
              "rtr": "RETRIGGER"
            }
          },
          "notes": [
            {
              "pitch": 35,
              "velocity": 115,
              "position": 0.0,
              "duration": 0.208333
            },
            {
              "pitch": 42,
              "velocity": 80,
              "position": 0.0,
              "duration": 0.208333
            },
            {
              "pitch": 49,
              "velocity": 127,
              "position": 0.0,
              "duration": 0.208333
            },
            {
              "pitch": 51,
              "velocity": 115,
              "position": 0.0,
              "duration": 0.208333
            },
            {
              "pitch": 56,
              "velocity": 80,
              "position": 0.0,
              "duration": 0.208333
            },
            {
              "pitch": 51,
              "velocity": 90,
              "position": 0.5,
              "duration": 0.208333
            },
            {
              "pitch": 35,
              "velocity": 115,
              "position": 1.0,
              "duration": 0.208333
            },
            {
              "pitch": 38,
              "velocity": 127,
              "position": 1.0,
              "duration": 0.208333
            },
            {
              "pitch": 39,
              "velocity": 127,
              "position": 1.0,
              "duration": 0.208333
            },
            {
              "pitch": 42,
              "velocity": 90,
              "position": 1.0,
              "duration": 0.208333
            },
            {
              "pitch": 51,
              "velocity": 115,
              "position": 1.0,
              "duration": 0.208333
            },
            {
              "pitch": 54,
              "velocity": 115,
              "position": 1.0,
              "duration": 0.208333
            },
            {
              "pitch": 56,
              "velocity": 80,
              "position": 1.0,
              "duration": 0.208333
            },
            {
              "pitch": 51,
              "velocity": 100,
              "position": 1.5,
              "duration": 0.208333
            },
            {
              "pitch": 35,
              "velocity": 115,
              "position": 2.0,
              "duration": 0.208333
            },
            {
              "pitch": 42,
              "velocity": 80,
              "position": 2.0,
              "duration": 0.208333
            },
            {
              "pitch": 51,
              "velocity": 115,
              "position": 2.0,
              "duration": 0.208333
            },
            {
              "pitch": 56,
              "velocity": 80,
              "position": 2.0,
              "duration": 0.208333
            },
            {
              "pitch": 51,
              "velocity": 100,
              "position": 2.5,
              "duration": 0.208333
            },
            {
              "pitch": 35,
              "velocity": 115,
              "position": 3.0,
              "duration": 0.208333
            },
            {
              "pitch": 38,
              "velocity": 127,
              "position": 3.0,
              "duration": 0.208333
            },
            {
              "pitch": 39,
              "velocity": 127,
              "position": 3.0,
              "duration": 0.208333
            },
            {
              "pitch": 42,
              "velocity": 90,
              "position": 3.0,
              "duration": 0.208333
            },
            {
              "pitch": 51,
              "velocity": 115,
              "position": 3.0,
              "duration": 0.208333
            },
            {
              "pitch": 54,
              "velocity": 115,
              "position": 3.0,
              "duration": 0.208333
            },
            {
              "pitch": 56,
              "velocity": 80,
              "position": 3.0,
              "duration": 0.208333
            },
            {
              "pitch": 51,
              "velocity": 100,
              "position": 3.5,
              "duration": 0.208333
            },
            {
              "pitch": 35,
              "velocity": 115,
              "position": 4.0,
              "duration": 0.208333
            },
            {
              "pitch": 42,
              "velocity": 80,
              "position": 4.0,
              "duration": 0.208333
            },
            {
              "pitch": 51,
              "velocity": 115,
              "position": 4.0,
              "duration": 0.208333
            },
            {
              "pitch": 56,
              "velocity": 80,
              "position": 4.0,
              "duration": 0.208333
            },
            {
              "pitch": 51,
              "velocity": 90,
              "position": 4.5,
              "duration": 0.208333
            },
            {
              "pitch": 35,
              "velocity": 115,
              "position": 5.0,
              "duration": 0.208333
            },
            {
              "pitch": 38,
              "velocity": 127,
              "position": 5.0,
              "duration": 0.208333
            },
            {
              "pitch": 39,
              "velocity": 127,
              "position": 5.0,
              "duration": 0.208333
            },
            {
              "pitch": 42,
              "velocity": 90,
              "position": 5.0,
              "duration": 0.208333
            },
            {
              "pitch": 51,
              "velocity": 115,
              "position": 5.0,
              "duration": 0.208333
            },
            {
              "pitch": 54,
              "velocity": 115,
              "position": 5.0,
              "duration": 0.208333
            },
            {
              "pitch": 56,
              "velocity": 80,
              "position": 5.0,
              "duration": 0.208333
            },
            {
              "pitch": 51,
              "velocity": 100,
              "position": 5.25,
              "duration": 0.208333
            },
            {
              "pitch": 51,
              "velocity": 100,
              "position": 5.5,
              "duration": 0.208333
            },
            {
              "pitch": 35,
              "velocity": 115,
              "position": 6.0,
              "duration": 0.208333
            },
            {
              "pitch": 42,
              "velocity": 80,
              "position": 6.0,
              "duration": 0.208333
            },
            {
              "pitch": 51,
              "velocity": 115,
              "position": 6.0,
              "duration": 0.208333
            },
            {
              "pitch": 56,
              "velocity": 80,
              "position": 6.0,
              "duration": 0.208333
            },
            {
              "pitch": 51,
              "velocity": 100,
              "position": 6.5,
              "duration": 0.208333
            },
            {
              "pitch": 35,
              "velocity": 115,
              "position": 7.0,
              "duration": 0.208333
            },
            {
              "pitch": 38,
              "velocity": 127,
              "position": 7.0,
              "duration": 0.208333
            },
            {
              "pitch": 39,
              "velocity": 127,
              "position": 7.0,
              "duration": 0.208333
            },
            {
              "pitch": 42,
              "velocity": 90,
              "position": 7.0,
              "duration": 0.208333
            },
            {
              "pitch": 51,
              "velocity": 115,
              "position": 7.0,
              "duration": 0.208333
            },
            {
              "pitch": 54,
              "velocity": 115,
              "position": 7.0,
              "duration": 0.208333
            },
            {
              "pitch": 56,
              "velocity": 80,
              "position": 7.0,
              "duration": 0.208333
            },
            {
              "pitch": 51,
              "velocity": 100,
              "position": 7.5,
              "duration": 0.208333
            },
            {
              "pitch": 35,
              "velocity": 115,
              "position": 8.0,
              "duration": 0.208333
            },
            {
              "pitch": 42,
              "velocity": 80,
              "position": 8.0,
              "duration": 0.208333
            },
            {
              "pitch": 51,
              "velocity": 115,
              "position": 8.0,
              "duration": 0.208333
            },
            {
              "pitch": 56,
              "velocity": 80,
              "position": 8.0,
              "duration": 0.208333
            },
            {
              "pitch": 51,
              "velocity": 100,
              "position": 8.25,
              "duration": 0.208333
            },
            {
              "pitch": 51,
              "velocity": 60,
              "position": 8.5,
              "duration": 0.208333
            },
            {
              "pitch": 35,
              "velocity": 115,
              "position": 9.0,
              "duration": 0.208333
            },
            {
              "pitch": 38,
              "velocity": 127,
              "position": 9.0,
              "duration": 0.208333
            },
            {
              "pitch": 39,
              "velocity": 127,
              "position": 9.0,
              "duration": 0.208333
            },
            {
              "pitch": 42,
              "velocity": 90,
              "position": 9.0,
              "duration": 0.208333
            },
            {
              "pitch": 51,
              "velocity": 115,
              "position": 9.0,
              "duration": 0.208333
            },
            {
              "pitch": 54,
              "velocity": 115,
              "position": 9.0,
              "duration": 0.208333
            },
            {
              "pitch": 56,
              "velocity": 80,
              "position": 9.0,
              "duration": 0.208333
            },
            {
              "pitch": 51,
              "velocity": 100,
              "position": 9.5,
              "duration": 0.208333
            },
            {
              "pitch": 35,
              "velocity": 115,
              "position": 10.0,
              "duration": 0.208333
            },
            {
              "pitch": 42,
              "velocity": 80,
              "position": 10.0,
              "duration": 0.208333
            },
            {
              "pitch": 51,
              "velocity": 115,
              "position": 10.0,
              "duration": 0.208333
            },
            {
              "pitch": 56,
              "velocity": 80,
              "position": 10.0,
              "duration": 0.208333
            },
            {
              "pitch": 51,
              "velocity": 100,
              "position": 10.5,
              "duration": 0.208333
            },
            {
              "pitch": 51,
              "velocity": 70,
              "position": 10.75,
              "duration": 0.208333
            },
            {
              "pitch": 35,
              "velocity": 115,
              "position": 11.0,
              "duration": 0.208333
            },
            {
              "pitch": 38,
              "velocity": 127,
              "position": 11.0,
              "duration": 0.208333
            },
            {
              "pitch": 39,
              "velocity": 127,
              "position": 11.0,
              "duration": 0.208333
            },
            {
              "pitch": 42,
              "velocity": 90,
              "position": 11.0,
              "duration": 0.208333
            },
            {
              "pitch": 51,
              "velocity": 115,
              "position": 11.0,
              "duration": 0.208333
            },
            {
              "pitch": 54,
              "velocity": 115,
              "position": 11.0,
              "duration": 0.208333
            },
            {
              "pitch": 56,
              "velocity": 80,
              "position": 11.0,
              "duration": 0.208333
            },
            {
              "pitch": 51,
              "velocity": 100,
              "position": 11.5,
              "duration": 0.208333
            },
            {
              "pitch": 35,
              "velocity": 115,
              "position": 12.0,
              "duration": 0.208333
            },
            {
              "pitch": 42,
              "velocity": 80,
              "position": 12.0,
              "duration": 0.208333
            },
            {
              "pitch": 51,
              "velocity": 115,
              "position": 12.0,
              "duration": 0.208333
            },
            {
              "pitch": 56,
              "velocity": 80,
              "position": 12.0,
              "duration": 0.208333
            },
            {
              "pitch": 51,
              "velocity": 90,
              "position": 12.5,
              "duration": 0.208333
            },
            {
              "pitch": 35,
              "velocity": 115,
              "position": 13.0,
              "duration": 0.208333
            },
            {
              "pitch": 38,
              "velocity": 127,
              "position": 13.0,
              "duration": 0.208333
            },
            {
              "pitch": 39,
              "velocity": 127,
              "position": 13.0,
              "duration": 0.208333
            },
            {
              "pitch": 42,
              "velocity": 90,
              "position": 13.0,
              "duration": 0.208333
            },
            {
              "pitch": 51,
              "velocity": 115,
              "position": 13.0,
              "duration": 0.208333
            },
            {
              "pitch": 54,
              "velocity": 115,
              "position": 13.0,
              "duration": 0.208333
            },
            {
              "pitch": 56,
              "velocity": 80,
              "position": 13.0,
              "duration": 0.208333
            },
            {
              "pitch": 51,
              "velocity": 100,
              "position": 13.25,
              "duration": 0.208333
            },
            {
              "pitch": 51,
              "velocity": 100,
              "position": 13.5,
              "duration": 0.208333
            },
            {
              "pitch": 35,
              "velocity": 115,
              "position": 14.0,
              "duration": 0.208333
            },
            {
              "pitch": 42,
              "velocity": 80,
              "position": 14.0,
              "duration": 0.208333
            },
            {
              "pitch": 51,
              "velocity": 115,
              "position": 14.0,
              "duration": 0.208333
            },
            {
              "pitch": 56,
              "velocity": 80,
              "position": 14.0,
              "duration": 0.208333
            },
            {
              "pitch": 51,
              "velocity": 100,
              "position": 14.5,
              "duration": 0.208333
            },
            {
              "pitch": 38,
              "velocity": 80,
              "position": 14.75,
              "duration": 0.125
            },
            {
              "pitch": 38,
              "velocity": 64,
              "position": 14.875,
              "duration": 0.083333
            },
            {
              "pitch": 35,
              "velocity": 115,
              "position": 15.0,
              "duration": 0.208333
            },
            {
              "pitch": 38,
              "velocity": 127,
              "position": 15.0,
              "duration": 0.083333
            },
            {
              "pitch": 39,
              "velocity": 127,
              "position": 15.0,
              "duration": 0.208333
            },
            {
              "pitch": 42,
              "velocity": 90,
              "position": 15.0,
              "duration": 0.208333
            },
            {
              "pitch": 51,
              "velocity": 115,
              "position": 15.0,
              "duration": 0.208333
            },
            {
              "pitch": 54,
              "velocity": 115,
              "position": 15.0,
              "duration": 0.208333
            },
            {
              "pitch": 56,
              "velocity": 80,
              "position": 15.0,
              "duration": 0.208333
            },
            {
              "pitch": 38,
              "velocity": 90,
              "position": 15.25,
              "duration": 0.208333
            },
            {
              "pitch": 35,
              "velocity": 100,
              "position": 15.5,
              "duration": 0.208333
            },
            {
              "pitch": 38,
              "velocity": 115,
              "position": 15.5,
              "duration": 0.208333
            },
            {
              "pitch": 51,
              "velocity": 100,
              "position": 15.5,
              "duration": 0.208333
            },
            {
              "pitch": 35,
              "velocity": 80,
              "position": 15.75,
              "duration": 0.208333
            }
          ]
        },
        "10": {
          "ctab": {
            "srcChannel": 10,
            "name": "Bass",
            "accType": "BASS",
            "editable": true,
            "mutedNotes": [],
            "mutedChords": [],
            "sourceChordNote": 0,
            "sourceChordType": "Maj7",
            "ctb2Main": {
              "ntr": "ROOT_TRANSPOSITION",
              "ntt": "BYPASS",
              "bassOn": true,
              "noteLowLimit": 20,
              "noteHighLimit": 60,
              "chordRootUpperLimit": 127,
              "rtr": "NOTE_GENERATOR"
            }
          },
          "notes": [
            {
              "pitch": 36,
              "velocity": 122,
              "position": 0.0,
              "duration": 0.233333
            },
            {
              "pitch": 36,
              "velocity": 120,
              "position": 0.75,
              "duration": 0.183333
            },
            {
              "pitch": 36,
              "velocity": 127,
              "position": 1.5,
              "duration": 0.866667
            },
            {
              "pitch": 36,
              "velocity": 125,
              "position": 3.5,
              "duration": 0.1
            },
            {
              "pitch": 36,
              "velocity": 113,
              "position": 3.75,
              "duration": 0.141667
            },
            {
              "pitch": 35,
              "velocity": 121,
              "position": 4.5,
              "duration": 0.2
            },
            {
              "pitch": 31,
              "velocity": 116,
              "position": 5.0,
              "duration": 0.233333
            },
            {
              "pitch": 36,
              "velocity": 127,
              "position": 5.5,
              "duration": 0.216667
            },
            {
              "pitch": 36,
              "velocity": 127,
              "position": 6.0,
              "duration": 0.216667
            },
            {
              "pitch": 36,
              "velocity": 127,
              "position": 7.5,
              "duration": 0.266667
            },
            {
              "pitch": 36,
              "velocity": 127,
              "position": 8.0,
              "duration": 0.383333
            },
            {
              "pitch": 36,
              "velocity": 127,
              "position": 9.5,
              "duration": 0.333333
            },
            {
              "pitch": 36,
              "velocity": 115,
              "position": 12.5,
              "duration": 0.533333
            },
            {
              "pitch": 40,
              "velocity": 119,
              "position": 13.033333,
              "duration": 0.375
            },
            {
              "pitch": 36,
              "velocity": 120,
              "position": 13.5,
              "duration": 0.4
            },
            {
              "pitch": 43,
              "velocity": 124,
              "position": 14.0,
              "duration": 0.5
            },
            {
              "pitch": 36,
              "velocity": 117,
              "position": 14.5,
              "duration": 0.466667
            },
            {
              "pitch": 43,
              "velocity": 121,
              "position": 15.0,
              "duration": 0.533333
            },
            {
              "pitch": 48,
              "velocity": 118,
              "position": 15.5,
              "duration": 0.441667
            }
          ]
        },
        "11": {
          "ctab": {
            "srcChannel": 11,
            "name": "Piano",
            "accType": "CHORD1",
            "editable": true,
            "mutedNotes": [],
            "mutedChords": [],
            "sourceChordNote": 0,
            "sourceChordType": "Maj7",
            "ctb2Main": {
              "ntr": "ROOT_FIXED",
              "ntt": "CHORD",
              "bassOn": false,
              "noteLowLimit": 48,
              "noteHighLimit": 84,
              "chordRootUpperLimit": 127,
              "rtr": "NOTE_GENERATOR"
            }
          },
          "notes": [
            {
              "pitch": 60,
              "velocity": 90,
              "position": 0.0,
              "duration": 0.083333
            },
            {
              "pitch": 64,
              "velocity": 99,
              "position": 0.0,
              "duration": 0.15
            },
            {
              "pitch": 67,
              "velocity": 100,
              "position": 0.0,
              "duration": 0.15
            },
            {
              "pitch": 71,
              "velocity": 100,
              "position": 0.0,
              "duration": 0.133333
            },
            {
              "pitch": 74,
              "velocity": 107,
              "position": 0.0,
              "duration": 0.133333
            },
            {
              "pitch": 76,
              "velocity": 107,
              "position": 0.0,
              "duration": 0.116667
            },
            {
              "pitch": 79,
              "velocity": 107,
              "position": 0.0,
              "duration": 0.15
            },
            {
              "pitch": 83,
              "velocity": 107,
              "position": 0.0,
              "duration": 0.166667
            },
            {
              "pitch": 60,
              "velocity": 78,
              "position": 0.75,
              "duration": 0.066667
            },
            {
              "pitch": 64,
              "velocity": 98,
              "position": 0.75,
              "duration": 0.133333
            },
            {
              "pitch": 67,
              "velocity": 93,
              "position": 0.75,
              "duration": 0.15
            },
            {
              "pitch": 71,
              "velocity": 91,
              "position": 0.75,
              "duration": 0.133333
            },
            {
              "pitch": 74,
              "velocity": 107,
              "position": 0.75,
              "duration": 0.133333
            },
            {
              "pitch": 76,
              "velocity": 107,
              "position": 0.75,
              "duration": 0.133333
            },
            {
              "pitch": 79,
              "velocity": 107,
              "position": 0.75,
              "duration": 0.166667
            },
            {
              "pitch": 83,
              "velocity": 107,
              "position": 0.75,
              "duration": 0.183333
            },
            {
              "pitch": 60,
              "velocity": 90,
              "position": 1.3,
              "duration": 0.15
            },
            {
              "pitch": 64,
              "velocity": 90,
              "position": 1.3,
              "duration": 0.116667
            },
            {
              "pitch": 67,
              "velocity": 98,
              "position": 1.3,
              "duration": 0.15
            },
            {
              "pitch": 71,
              "velocity": 97,
              "position": 1.3,
              "duration": 0.15
            },
            {
              "pitch": 74,
              "velocity": 107,
              "position": 1.3,
              "duration": 0.116667
            },
            {
              "pitch": 76,
              "velocity": 107,
              "position": 1.3,
              "duration": 0.133333
            },
            {
              "pitch": 79,
              "velocity": 107,
              "position": 1.3,
              "duration": 0.15
            },
            {
              "pitch": 83,
              "velocity": 107,
              "position": 1.3,
              "duration": 0.183333
            },
            {
              "pitch": 60,
              "velocity": 90,
              "position": 2.0,
              "duration": 0.083333
            },
            {
              "pitch": 64,
              "velocity": 99,
              "position": 2.0,
              "duration": 0.15
            },
            {
              "pitch": 67,
              "velocity": 100,
              "position": 2.0,
              "duration": 0.15
            },
            {
              "pitch": 71,
              "velocity": 100,
              "position": 2.0,
              "duration": 0.133333
            },
            {
              "pitch": 74,
              "velocity": 107,
              "position": 2.0,
              "duration": 0.133333
            },
            {
              "pitch": 76,
              "velocity": 107,
              "position": 2.0,
              "duration": 0.116667
            },
            {
              "pitch": 79,
              "velocity": 107,
              "position": 2.0,
              "duration": 0.15
            },
            {
              "pitch": 83,
              "velocity": 107,
              "position": 2.0,
              "duration": 0.166667
            },
            {
              "pitch": 60,
              "velocity": 78,
              "position": 2.75,
              "duration": 0.066667
            },
            {
              "pitch": 64,
              "velocity": 98,
              "position": 2.75,
              "duration": 0.133333
            },
            {
              "pitch": 67,
              "velocity": 93,
              "position": 2.75,
              "duration": 0.15
            },
            {
              "pitch": 71,
              "velocity": 91,
              "position": 2.75,
              "duration": 0.133333
            },
            {
              "pitch": 74,
              "velocity": 107,
              "position": 2.75,
              "duration": 0.133333
            },
            {
              "pitch": 76,
              "velocity": 107,
              "position": 2.75,
              "duration": 0.133333
            },
            {
              "pitch": 79,
              "velocity": 107,
              "position": 2.75,
              "duration": 0.166667
            },
            {
              "pitch": 83,
              "velocity": 107,
              "position": 2.75,
              "duration": 0.183333
            },
            {
              "pitch": 60,
              "velocity": 90,
              "position": 3.3,
              "duration": 0.15
            },
            {
              "pitch": 64,
              "velocity": 90,
              "position": 3.3,
              "duration": 0.116667
            },
            {
              "pitch": 67,
              "velocity": 98,
              "position": 3.3,
              "duration": 0.15
            },
            {
              "pitch": 71,
              "velocity": 97,
              "position": 3.3,
              "duration": 0.15
            },
            {
              "pitch": 74,
              "velocity": 107,
              "position": 3.3,
              "duration": 0.116667
            },
            {
              "pitch": 76,
              "velocity": 107,
              "position": 3.3,
              "duration": 0.133333
            },
            {
              "pitch": 79,
              "velocity": 107,
              "position": 3.3,
              "duration": 0.15
            },
            {
              "pitch": 83,
              "velocity": 107,
              "position": 3.3,
              "duration": 0.183333
            },
            {
              "pitch": 60,
              "velocity": 82,
              "position": 3.8,
              "duration": 0.066667
            },
            {
              "pitch": 64,
              "velocity": 97,
              "position": 3.8,
              "duration": 0.116667
            },
            {
              "pitch": 67,
              "velocity": 99,
              "position": 3.8,
              "duration": 0.116667
            },
            {
              "pitch": 71,
              "velocity": 100,
              "position": 3.8,
              "duration": 0.116667
            },
            {
              "pitch": 74,
              "velocity": 107,
              "position": 3.8,
              "duration": 0.05
            },
            {
              "pitch": 76,
              "velocity": 107,
              "position": 3.8,
              "duration": 0.066667
            },
            {
              "pitch": 79,
              "velocity": 104,
              "position": 3.8,
              "duration": 0.066667
            },
            {
              "pitch": 83,
              "velocity": 107,
              "position": 3.8,
              "duration": 0.1
            },
            {
              "pitch": 60,
              "velocity": 91,
              "position": 8.0,
              "duration": 0.083333
            },
            {
              "pitch": 64,
              "velocity": 100,
              "position": 8.0,
              "duration": 0.15
            },
            {
              "pitch": 67,
              "velocity": 101,
              "position": 8.0,
              "duration": 0.15
            },
            {
              "pitch": 71,
              "velocity": 101,
              "position": 8.0,
              "duration": 0.133333
            },
            {
              "pitch": 74,
              "velocity": 108,
              "position": 8.0,
              "duration": 0.133333
            },
            {
              "pitch": 76,
              "velocity": 108,
              "position": 8.0,
              "duration": 0.116667
            },
            {
              "pitch": 79,
              "velocity": 108,
              "position": 8.0,
              "duration": 0.15
            },
            {
              "pitch": 83,
              "velocity": 108,
              "position": 8.0,
              "duration": 0.166667
            },
            {
              "pitch": 60,
              "velocity": 79,
              "position": 8.75,
              "duration": 0.066667
            },
            {
              "pitch": 64,
              "velocity": 99,
              "position": 8.75,
              "duration": 0.133333
            },
            {
              "pitch": 67,
              "velocity": 94,
              "position": 8.75,
              "duration": 0.15
            },
            {
              "pitch": 71,
              "velocity": 92,
              "position": 8.75,
              "duration": 0.133333
            },
            {
              "pitch": 74,
              "velocity": 108,
              "position": 8.75,
              "duration": 0.133333
            },
            {
              "pitch": 76,
              "velocity": 108,
              "position": 8.75,
              "duration": 0.133333
            },
            {
              "pitch": 79,
              "velocity": 108,
              "position": 8.75,
              "duration": 0.166667
            },
            {
              "pitch": 83,
              "velocity": 108,
              "position": 8.75,
              "duration": 0.183333
            },
            {
              "pitch": 60,
              "velocity": 91,
              "position": 9.3,
              "duration": 0.15
            },
            {
              "pitch": 64,
              "velocity": 91,
              "position": 9.3,
              "duration": 0.116667
            },
            {
              "pitch": 67,
              "velocity": 99,
              "position": 9.3,
              "duration": 0.15
            },
            {
              "pitch": 71,
              "velocity": 98,
              "position": 9.3,
              "duration": 0.15
            },
            {
              "pitch": 74,
              "velocity": 108,
              "position": 9.3,
              "duration": 0.116667
            },
            {
              "pitch": 76,
              "velocity": 108,
              "position": 9.3,
              "duration": 0.133333
            },
            {
              "pitch": 79,
              "velocity": 108,
              "position": 9.3,
              "duration": 0.15
            },
            {
              "pitch": 83,
              "velocity": 108,
              "position": 9.3,
              "duration": 0.183333
            },
            {
              "pitch": 60,
              "velocity": 83,
              "position": 9.8,
              "duration": 0.066667
            },
            {
              "pitch": 64,
              "velocity": 98,
              "position": 9.8,
              "duration": 0.116667
            },
            {
              "pitch": 67,
              "velocity": 100,
              "position": 9.8,
              "duration": 0.116667
            },
            {
              "pitch": 71,
              "velocity": 101,
              "position": 9.8,
              "duration": 0.116667
            },
            {
              "pitch": 74,
              "velocity": 108,
              "position": 9.8,
              "duration": 0.05
            },
            {
              "pitch": 76,
              "velocity": 108,
              "position": 9.8,
              "duration": 0.066667
            },
            {
              "pitch": 79,
              "velocity": 105,
              "position": 9.8,
              "duration": 0.066667
            },
            {
              "pitch": 83,
              "velocity": 108,
              "position": 9.8,
              "duration": 0.1
            },
            {
              "pitch": 60,
              "velocity": 74,
              "position": 10.0,
              "duration": 0.15
            },
            {
              "pitch": 64,
              "velocity": 103,
              "position": 10.0,
              "duration": 0.183333
            },
            {
              "pitch": 67,
              "velocity": 102,
              "position": 10.0,
              "duration": 0.216667
            },
            {
              "pitch": 71,
              "velocity": 94,
              "position": 10.0,
              "duration": 0.183333
            },
            {
              "pitch": 74,
              "velocity": 108,
              "position": 10.0,
              "duration": 0.15
            },
            {
              "pitch": 76,
              "velocity": 108,
              "position": 10.0,
              "duration": 0.166667
            },
            {
              "pitch": 79,
              "velocity": 108,
              "position": 10.0,
              "duration": 0.183333
            },
            {
              "pitch": 83,
              "velocity": 95,
              "position": 10.0,
              "duration": 0.216667
            },
            {
              "pitch": 60,
              "velocity": 89,
              "position": 10.5,
              "duration": 0.133333
            },
            {
              "pitch": 64,
              "velocity": 94,
              "position": 10.5,
              "duration": 0.166667
            },
            {
              "pitch": 67,
              "velocity": 94,
              "position": 10.5,
              "duration": 0.183333
            },
            {
              "pitch": 71,
              "velocity": 95,
              "position": 10.5,
              "duration": 0.166667
            },
            {
              "pitch": 74,
              "velocity": 108,
              "position": 10.5,
              "duration": 0.116667
            },
            {
              "pitch": 76,
              "velocity": 108,
              "position": 10.5,
              "duration": 0.133333
            },
            {
              "pitch": 79,
              "velocity": 108,
              "position": 10.5,
              "duration": 0.133333
            },
            {
              "pitch": 83,
              "velocity": 108,
              "position": 10.5,
              "duration": 0.2
            }
          ]
        },
        "12": {
          "ctab": {
            "srcChannel": 12,
            "name": "Guitar",
            "accType": "CHORD2",
            "editable": true,
            "mutedNotes": [],
            "mutedChords": [],
            "sourceChordNote": 0,
            "sourceChordType": "Maj7",
            "ctb2Main": {
              "ntr": "ROOT_FIXED",
              "ntt": "CHORD",
              "bassOn": false,
              "noteLowLimit": 40,
              "noteHighLimit": 76,
              "chordRootUpperLimit": 127,
              "rtr": "NOTE_GENERATOR"
            }
          },
          "notes": [
            {
              "pitch": 74,
              "velocity": 127,
              "position": 0.0,
              "duration": 0.475
            },
            {
              "pitch": 74,
              "velocity": 127,
              "position": 2.0,
              "duration": 0.475
            }
          ]
        },
        "13": {
          "ctab": {
            "srcChannel": 13,
            "name": "Strings",
            "accType": "PAD",
            "editable": true,
            "mutedNotes": [],
            "mutedChords": [],
            "sourceChordNote": 0,
            "sourceChordType": "Maj7",
            "ctb2Main": {
              "ntr": "ROOT_FIXED",
              "ntt": "MELODY",
              "bassOn": false,
              "noteLowLimit": 36,
              "noteHighLimit": 96,
              "chordRootUpperLimit": 127,
              "rtr": "PITCH_SHIFT"
            }
          },
          "notes": []
        }
      }
    },
    "Main_D": {
      "type": "Main_D",
      "sizeInBeats": 16,
      "channels": {
        "9": {
          "ctab": {
            "srcChannel": 9,
            "name": "Drums",
            "accType": "RHYTHM",
            "editable": false,
            "mutedNotes": [],
            "mutedChords": [],
            "sourceChordNote": 0,
            "sourceChordType": "Maj",
            "ctb2Main": {
              "ntr": "ROOT_FIXED",
              "ntt": "BYPASS",
              "bassOn": false,
              "noteLowLimit": 20,
              "noteHighLimit": 127,
              "chordRootUpperLimit": 127,
              "rtr": "RETRIGGER"
            }
          },
          "notes": [
            {
              "pitch": 35,
              "velocity": 115,
              "position": 0.0,
              "duration": 0.208333
            },
            {
              "pitch": 42,
              "velocity": 80,
              "position": 0.0,
              "duration": 0.208333
            },
            {
              "pitch": 51,
              "velocity": 115,
              "position": 0.0,
              "duration": 0.208333
            },
            {
              "pitch": 56,
              "velocity": 80,
              "position": 0.0,
              "duration": 0.208333
            },
            {
              "pitch": 51,
              "velocity": 90,
              "position": 0.5,
              "duration": 0.208333
            },
            {
              "pitch": 35,
              "velocity": 115,
              "position": 1.0,
              "duration": 0.208333
            },
            {
              "pitch": 38,
              "velocity": 127,
              "position": 1.0,
              "duration": 0.208333
            },
            {
              "pitch": 39,
              "velocity": 127,
              "position": 1.0,
              "duration": 0.208333
            },
            {
              "pitch": 42,
              "velocity": 90,
              "position": 1.0,
              "duration": 0.208333
            },
            {
              "pitch": 51,
              "velocity": 115,
              "position": 1.0,
              "duration": 0.208333
            },
            {
              "pitch": 54,
              "velocity": 115,
              "position": 1.0,
              "duration": 0.208333
            },
            {
              "pitch": 56,
              "velocity": 80,
              "position": 1.0,
              "duration": 0.208333
            },
            {
              "pitch": 51,
              "velocity": 100,
              "position": 1.25,
              "duration": 0.208333
            },
            {
              "pitch": 51,
              "velocity": 100,
              "position": 1.5,
              "duration": 0.208333
            },
            {
              "pitch": 35,
              "velocity": 115,
              "position": 2.0,
              "duration": 0.208333
            },
            {
              "pitch": 42,
              "velocity": 80,
              "position": 2.0,
              "duration": 0.208333
            },
            {
              "pitch": 51,
              "velocity": 115,
              "position": 2.0,
              "duration": 0.208333
            },
            {
              "pitch": 56,
              "velocity": 80,
              "position": 2.0,
              "duration": 0.208333
            },
            {
              "pitch": 51,
              "velocity": 100,
              "position": 2.5,
              "duration": 0.208333
            },
            {
              "pitch": 38,
              "velocity": 70,
              "position": 2.75,
              "duration": 0.125
            },
            {
              "pitch": 38,
              "velocity": 56,
              "position": 2.875,
              "duration": 0.083333
            },
            {
              "pitch": 35,
              "velocity": 115,
              "position": 3.0,
              "duration": 0.208333
            },
            {
              "pitch": 38,
              "velocity": 127,
              "position": 3.0,
              "duration": 0.083333
            },
            {
              "pitch": 39,
              "velocity": 127,
              "position": 3.0,
              "duration": 0.208333
            },
            {
              "pitch": 42,
              "velocity": 90,
              "position": 3.0,
              "duration": 0.208333
            },
            {
              "pitch": 51,
              "velocity": 115,
              "position": 3.0,
              "duration": 0.208333
            },
            {
              "pitch": 54,
              "velocity": 115,
              "position": 3.0,
              "duration": 0.208333
            },
            {
              "pitch": 56,
              "velocity": 80,
              "position": 3.0,
              "duration": 0.208333
            },
            {
              "pitch": 51,
              "velocity": 100,
              "position": 3.5,
              "duration": 0.208333
            },
            {
              "pitch": 35,
              "velocity": 80,
              "position": 3.75,
              "duration": 0.208333
            },
            {
              "pitch": 35,
              "velocity": 115,
              "position": 4.0,
              "duration": 0.208333
            },
            {
              "pitch": 42,
              "velocity": 80,
              "position": 4.0,
              "duration": 0.208333
            },
            {
              "pitch": 51,
              "velocity": 115,
              "position": 4.0,
              "duration": 0.208333
            },
            {
              "pitch": 56,
              "velocity": 80,
              "position": 4.0,
              "duration": 0.208333
            },
            {
              "pitch": 51,
              "velocity": 90,
              "position": 4.5,
              "duration": 0.208333
            },
            {
              "pitch": 35,
              "velocity": 115,
              "position": 5.0,
              "duration": 0.208333
            },
            {
              "pitch": 38,
              "velocity": 127,
              "position": 5.0,
              "duration": 0.208333
            },
            {
              "pitch": 39,
              "velocity": 127,
              "position": 5.0,
              "duration": 0.208333
            },
            {
              "pitch": 42,
              "velocity": 90,
              "position": 5.0,
              "duration": 0.208333
            },
            {
              "pitch": 51,
              "velocity": 115,
              "position": 5.0,
              "duration": 0.208333
            },
            {
              "pitch": 54,
              "velocity": 115,
              "position": 5.0,
              "duration": 0.208333
            },
            {
              "pitch": 56,
              "velocity": 80,
              "position": 5.0,
              "duration": 0.208333
            },
            {
              "pitch": 51,
              "velocity": 100,
              "position": 5.25,
              "duration": 0.208333
            },
            {
              "pitch": 51,
              "velocity": 100,
              "position": 5.5,
              "duration": 0.208333
            },
            {
              "pitch": 35,
              "velocity": 115,
              "position": 6.0,
              "duration": 0.208333
            },
            {
              "pitch": 42,
              "velocity": 80,
              "position": 6.0,
              "duration": 0.208333
            },
            {
              "pitch": 51,
              "velocity": 115,
              "position": 6.0,
              "duration": 0.208333
            },
            {
              "pitch": 56,
              "velocity": 80,
              "position": 6.0,
              "duration": 0.208333
            },
            {
              "pitch": 51,
              "velocity": 100,
              "position": 6.5,
              "duration": 0.208333
            },
            {
              "pitch": 35,
              "velocity": 115,
              "position": 7.0,
              "duration": 0.208333
            },
            {
              "pitch": 38,
              "velocity": 127,
              "position": 7.0,
              "duration": 0.208333
            },
            {
              "pitch": 39,
              "velocity": 127,
              "position": 7.0,
              "duration": 0.208333
            },
            {
              "pitch": 42,
              "velocity": 90,
              "position": 7.0,
              "duration": 0.208333
            },
            {
              "pitch": 51,
              "velocity": 115,
              "position": 7.0,
              "duration": 0.208333
            },
            {
              "pitch": 54,
              "velocity": 115,
              "position": 7.0,
              "duration": 0.208333
            },
            {
              "pitch": 56,
              "velocity": 80,
              "position": 7.0,
              "duration": 0.208333
            },
            {
              "pitch": 51,
              "velocity": 100,
              "position": 7.5,
              "duration": 0.208333
            },
            {
              "pitch": 35,
              "velocity": 115,
              "position": 8.0,
              "duration": 0.208333
            },
            {
              "pitch": 42,
              "velocity": 80,
              "position": 8.0,
              "duration": 0.208333
            },
            {
              "pitch": 51,
              "velocity": 115,
              "position": 8.0,
              "duration": 0.208333
            },
            {
              "pitch": 56,
              "velocity": 80,
              "position": 8.0,
              "duration": 0.208333
            },
            {
              "pitch": 51,
              "velocity": 100,
              "position": 8.25,
              "duration": 0.208333
            },
            {
              "pitch": 51,
              "velocity": 60,
              "position": 8.5,
              "duration": 0.208333
            },
            {
              "pitch": 35,
              "velocity": 115,
              "position": 9.0,
              "duration": 0.208333
            },
            {
              "pitch": 38,
              "velocity": 127,
              "position": 9.0,
              "duration": 0.208333
            },
            {
              "pitch": 39,
              "velocity": 127,
              "position": 9.0,
              "duration": 0.208333
            },
            {
              "pitch": 42,
              "velocity": 90,
              "position": 9.0,
              "duration": 0.208333
            },
            {
              "pitch": 51,
              "velocity": 115,
              "position": 9.0,
              "duration": 0.208333
            },
            {
              "pitch": 54,
              "velocity": 115,
              "position": 9.0,
              "duration": 0.208333
            },
            {
              "pitch": 56,
              "velocity": 80,
              "position": 9.0,
              "duration": 0.208333
            },
            {
              "pitch": 51,
              "velocity": 100,
              "position": 9.5,
              "duration": 0.208333
            },
            {
              "pitch": 35,
              "velocity": 115,
              "position": 10.0,
              "duration": 0.208333
            },
            {
              "pitch": 42,
              "velocity": 80,
              "position": 10.0,
              "duration": 0.208333
            },
            {
              "pitch": 51,
              "velocity": 115,
              "position": 10.0,
              "duration": 0.208333
            },
            {
              "pitch": 56,
              "velocity": 80,
              "position": 10.0,
              "duration": 0.208333
            },
            {
              "pitch": 51,
              "velocity": 100,
              "position": 10.5,
              "duration": 0.208333
            },
            {
              "pitch": 51,
              "velocity": 70,
              "position": 10.75,
              "duration": 0.208333
            },
            {
              "pitch": 35,
              "velocity": 115,
              "position": 11.0,
              "duration": 0.208333
            },
            {
              "pitch": 38,
              "velocity": 127,
              "position": 11.0,
              "duration": 0.208333
            },
            {
              "pitch": 39,
              "velocity": 127,
              "position": 11.0,
              "duration": 0.208333
            },
            {
              "pitch": 42,
              "velocity": 90,
              "position": 11.0,
              "duration": 0.208333
            },
            {
              "pitch": 51,
              "velocity": 115,
              "position": 11.0,
              "duration": 0.208333
            },
            {
              "pitch": 54,
              "velocity": 115,
              "position": 11.0,
              "duration": 0.208333
            },
            {
              "pitch": 56,
              "velocity": 80,
              "position": 11.0,
              "duration": 0.208333
            },
            {
              "pitch": 51,
              "velocity": 100,
              "position": 11.5,
              "duration": 0.208333
            },
            {
              "pitch": 35,
              "velocity": 115,
              "position": 12.0,
              "duration": 0.208333
            },
            {
              "pitch": 42,
              "velocity": 80,
              "position": 12.0,
              "duration": 0.208333
            },
            {
              "pitch": 51,
              "velocity": 115,
              "position": 12.0,
              "duration": 0.208333
            },
            {
              "pitch": 56,
              "velocity": 80,
              "position": 12.0,
              "duration": 0.208333
            },
            {
              "pitch": 51,
              "velocity": 90,
              "position": 12.5,
              "duration": 0.208333
            },
            {
              "pitch": 35,
              "velocity": 115,
              "position": 13.0,
              "duration": 0.208333
            },
            {
              "pitch": 38,
              "velocity": 127,
              "position": 13.0,
              "duration": 0.208333
            },
            {
              "pitch": 39,
              "velocity": 127,
              "position": 13.0,
              "duration": 0.208333
            },
            {
              "pitch": 42,
              "velocity": 90,
              "position": 13.0,
              "duration": 0.208333
            },
            {
              "pitch": 51,
              "velocity": 115,
              "position": 13.0,
              "duration": 0.208333
            },
            {
              "pitch": 54,
              "velocity": 115,
              "position": 13.0,
              "duration": 0.208333
            },
            {
              "pitch": 56,
              "velocity": 80,
              "position": 13.0,
              "duration": 0.208333
            },
            {
              "pitch": 51,
              "velocity": 100,
              "position": 13.25,
              "duration": 0.208333
            },
            {
              "pitch": 51,
              "velocity": 100,
              "position": 13.5,
              "duration": 0.208333
            },
            {
              "pitch": 35,
              "velocity": 115,
              "position": 14.0,
              "duration": 0.208333
            },
            {
              "pitch": 42,
              "velocity": 80,
              "position": 14.0,
              "duration": 0.208333
            },
            {
              "pitch": 51,
              "velocity": 115,
              "position": 14.0,
              "duration": 0.208333
            },
            {
              "pitch": 56,
              "velocity": 80,
              "position": 14.0,
              "duration": 0.208333
            },
            {
              "pitch": 51,
              "velocity": 100,
              "position": 14.5,
              "duration": 0.208333
            },
            {
              "pitch": 38,
              "velocity": 80,
              "position": 14.75,
              "duration": 0.125
            },
            {
              "pitch": 38,
              "velocity": 64,
              "position": 14.875,
              "duration": 0.083333
            },
            {
              "pitch": 35,
              "velocity": 115,
              "position": 15.0,
              "duration": 0.208333
            },
            {
              "pitch": 38,
              "velocity": 127,
              "position": 15.0,
              "duration": 0.083333
            },
            {
              "pitch": 39,
              "velocity": 127,
              "position": 15.0,
              "duration": 0.208333
            },
            {
              "pitch": 42,
              "velocity": 90,
              "position": 15.0,
              "duration": 0.208333
            },
            {
              "pitch": 51,
              "velocity": 115,
              "position": 15.0,
              "duration": 0.208333
            },
            {
              "pitch": 54,
              "velocity": 115,
              "position": 15.0,
              "duration": 0.208333
            },
            {
              "pitch": 56,
              "velocity": 80,
              "position": 15.0,
              "duration": 0.208333
            },
            {
              "pitch": 38,
              "velocity": 90,
              "position": 15.25,
              "duration": 0.208333
            },
            {
              "pitch": 35,
              "velocity": 100,
              "position": 15.5,
              "duration": 0.208333
            },
            {
              "pitch": 38,
              "velocity": 115,
              "position": 15.5,
              "duration": 0.208333
            },
            {
              "pitch": 51,
              "velocity": 100,
              "position": 15.5,
              "duration": 0.208333
            },
            {
              "pitch": 35,
              "velocity": 80,
              "position": 15.75,
              "duration": 0.208333
            }
          ]
        },
        "10": {
          "ctab": {
            "srcChannel": 10,
            "name": "Bass",
            "accType": "BASS",
            "editable": true,
            "mutedNotes": [],
            "mutedChords": [],
            "sourceChordNote": 0,
            "sourceChordType": "Maj7",
            "ctb2Main": {
              "ntr": "ROOT_TRANSPOSITION",
              "ntt": "BYPASS",
              "bassOn": true,
              "noteLowLimit": 20,
              "noteHighLimit": 60,
              "chordRootUpperLimit": 127,
              "rtr": "NOTE_GENERATOR"
            }
          },
          "notes": [
            {
              "pitch": 36,
              "velocity": 122,
              "position": 0.0,
              "duration": 0.233333
            },
            {
              "pitch": 36,
              "velocity": 120,
              "position": 0.75,
              "duration": 0.183333
            },
            {
              "pitch": 36,
              "velocity": 122,
              "position": 1.5,
              "duration": 0.866667
            },
            {
              "pitch": 36,
              "velocity": 121,
              "position": 4.5,
              "duration": 0.2
            },
            {
              "pitch": 35,
              "velocity": 116,
              "position": 5.0,
              "duration": 0.233333
            },
            {
              "pitch": 36,
              "velocity": 127,
              "position": 5.5,
              "duration": 0.216667
            },
            {
              "pitch": 36,
              "velocity": 127,
              "position": 6.0,
              "duration": 0.383333
            },
            {
              "pitch": 36,
              "velocity": 127,
              "position": 7.5,
              "duration": 0.333333
            },
            {
              "pitch": 36,
              "velocity": 127,
              "position": 8.0,
              "duration": 0.383333
            },
            {
              "pitch": 36,
              "velocity": 127,
              "position": 9.5,
              "duration": 0.333333
            },
            {
              "pitch": 36,
              "velocity": 115,
              "position": 12.5,
              "duration": 0.533333
            },
            {
              "pitch": 40,
              "velocity": 119,
              "position": 13.033333,
              "duration": 0.375
            },
            {
              "pitch": 36,
              "velocity": 120,
              "position": 13.5,
              "duration": 0.4
            },
            {
              "pitch": 43,
              "velocity": 124,
              "position": 14.0,
              "duration": 0.5
            },
            {
              "pitch": 36,
              "velocity": 117,
              "position": 14.5,
              "duration": 0.466667
            },
            {
              "pitch": 43,
              "velocity": 121,
              "position": 15.0,
              "duration": 0.533333
            },
            {
              "pitch": 48,
              "velocity": 118,
              "position": 15.5,
              "duration": 0.441667
            }
          ]
        },
        "11": {
          "ctab": {
            "srcChannel": 11,
            "name": "Piano",
            "accType": "CHORD1",
            "editable": true,
            "mutedNotes": [],
            "mutedChords": [],
            "sourceChordNote": 0,
            "sourceChordType": "Maj7",
            "ctb2Main": {
              "ntr": "ROOT_FIXED",
              "ntt": "CHORD",
              "bassOn": false,
              "noteLowLimit": 48,
              "noteHighLimit": 84,
              "chordRootUpperLimit": 127,
              "rtr": "NOTE_GENERATOR"
            }
          },
          "notes": [
            {
              "pitch": 60,
              "velocity": 90,
              "position": 0.0,
              "duration": 0.083333
            },
            {
              "pitch": 64,
              "velocity": 99,
              "position": 0.0,
              "duration": 0.15
            },
            {
              "pitch": 67,
              "velocity": 100,
              "position": 0.0,
              "duration": 0.15
            },
            {
              "pitch": 71,
              "velocity": 100,
              "position": 0.0,
              "duration": 0.133333
            },
            {
              "pitch": 74,
              "velocity": 107,
              "position": 0.0,
              "duration": 0.133333
            },
            {
              "pitch": 76,
              "velocity": 107,
              "position": 0.0,
              "duration": 0.116667
            },
            {
              "pitch": 79,
              "velocity": 107,
              "position": 0.0,
              "duration": 0.15
            },
            {
              "pitch": 83,
              "velocity": 107,
              "position": 0.0,
              "duration": 0.166667
            },
            {
              "pitch": 60,
              "velocity": 78,
              "position": 0.75,
              "duration": 0.066667
            },
            {
              "pitch": 64,
              "velocity": 98,
              "position": 0.75,
              "duration": 0.133333
            },
            {
              "pitch": 67,
              "velocity": 93,
              "position": 0.75,
              "duration": 0.15
            },
            {
              "pitch": 71,
              "velocity": 91,
              "position": 0.75,
              "duration": 0.133333
            },
            {
              "pitch": 74,
              "velocity": 107,
              "position": 0.75,
              "duration": 0.133333
            },
            {
              "pitch": 76,
              "velocity": 107,
              "position": 0.75,
              "duration": 0.133333
            },
            {
              "pitch": 79,
              "velocity": 107,
              "position": 0.75,
              "duration": 0.166667
            },
            {
              "pitch": 83,
              "velocity": 107,
              "position": 0.75,
              "duration": 0.183333
            },
            {
              "pitch": 60,
              "velocity": 90,
              "position": 1.3,
              "duration": 0.15
            },
            {
              "pitch": 64,
              "velocity": 90,
              "position": 1.3,
              "duration": 0.116667
            },
            {
              "pitch": 67,
              "velocity": 98,
              "position": 1.3,
              "duration": 0.15
            },
            {
              "pitch": 71,
              "velocity": 97,
              "position": 1.3,
              "duration": 0.15
            },
            {
              "pitch": 74,
              "velocity": 107,
              "position": 1.3,
              "duration": 0.116667
            },
            {
              "pitch": 76,
              "velocity": 107,
              "position": 1.3,
              "duration": 0.133333
            },
            {
              "pitch": 79,
              "velocity": 107,
              "position": 1.3,
              "duration": 0.15
            },
            {
              "pitch": 83,
              "velocity": 107,
              "position": 1.3,
              "duration": 0.183333
            },
            {
              "pitch": 60,
              "velocity": 90,
              "position": 2.0,
              "duration": 0.083333
            },
            {
              "pitch": 64,
              "velocity": 99,
              "position": 2.0,
              "duration": 0.15
            },
            {
              "pitch": 67,
              "velocity": 100,
              "position": 2.0,
              "duration": 0.15
            },
            {
              "pitch": 71,
              "velocity": 100,
              "position": 2.0,
              "duration": 0.133333
            },
            {
              "pitch": 74,
              "velocity": 107,
              "position": 2.0,
              "duration": 0.133333
            },
            {
              "pitch": 76,
              "velocity": 107,
              "position": 2.0,
              "duration": 0.116667
            },
            {
              "pitch": 79,
              "velocity": 107,
              "position": 2.0,
              "duration": 0.15
            },
            {
              "pitch": 83,
              "velocity": 107,
              "position": 2.0,
              "duration": 0.166667
            },
            {
              "pitch": 60,
              "velocity": 78,
              "position": 2.75,
              "duration": 0.066667
            },
            {
              "pitch": 64,
              "velocity": 98,
              "position": 2.75,
              "duration": 0.133333
            },
            {
              "pitch": 67,
              "velocity": 93,
              "position": 2.75,
              "duration": 0.15
            },
            {
              "pitch": 71,
              "velocity": 91,
              "position": 2.75,
              "duration": 0.133333
            },
            {
              "pitch": 74,
              "velocity": 107,
              "position": 2.75,
              "duration": 0.133333
            },
            {
              "pitch": 76,
              "velocity": 107,
              "position": 2.75,
              "duration": 0.133333
            },
            {
              "pitch": 79,
              "velocity": 107,
              "position": 2.75,
              "duration": 0.166667
            },
            {
              "pitch": 83,
              "velocity": 107,
              "position": 2.75,
              "duration": 0.183333
            },
            {
              "pitch": 60,
              "velocity": 90,
              "position": 3.3,
              "duration": 0.15
            },
            {
              "pitch": 64,
              "velocity": 90,
              "position": 3.3,
              "duration": 0.116667
            },
            {
              "pitch": 67,
              "velocity": 98,
              "position": 3.3,
              "duration": 0.15
            },
            {
              "pitch": 71,
              "velocity": 97,
              "position": 3.3,
              "duration": 0.15
            },
            {
              "pitch": 74,
              "velocity": 107,
              "position": 3.3,
              "duration": 0.116667
            },
            {
              "pitch": 76,
              "velocity": 107,
              "position": 3.3,
              "duration": 0.133333
            },
            {
              "pitch": 79,
              "velocity": 107,
              "position": 3.3,
              "duration": 0.15
            },
            {
              "pitch": 83,
              "velocity": 107,
              "position": 3.3,
              "duration": 0.183333
            },
            {
              "pitch": 60,
              "velocity": 82,
              "position": 3.8,
              "duration": 0.066667
            },
            {
              "pitch": 64,
              "velocity": 97,
              "position": 3.8,
              "duration": 0.116667
            },
            {
              "pitch": 67,
              "velocity": 99,
              "position": 3.8,
              "duration": 0.116667
            },
            {
              "pitch": 71,
              "velocity": 100,
              "position": 3.8,
              "duration": 0.116667
            },
            {
              "pitch": 74,
              "velocity": 107,
              "position": 3.8,
              "duration": 0.05
            },
            {
              "pitch": 76,
              "velocity": 107,
              "position": 3.8,
              "duration": 0.066667
            },
            {
              "pitch": 79,
              "velocity": 104,
              "position": 3.8,
              "duration": 0.066667
            },
            {
              "pitch": 83,
              "velocity": 107,
              "position": 3.8,
              "duration": 0.1
            },
            {
              "pitch": 60,
              "velocity": 91,
              "position": 8.0,
              "duration": 0.083333
            },
            {
              "pitch": 64,
              "velocity": 100,
              "position": 8.0,
              "duration": 0.15
            },
            {
              "pitch": 67,
              "velocity": 101,
              "position": 8.0,
              "duration": 0.15
            },
            {
              "pitch": 71,
              "velocity": 101,
              "position": 8.0,
              "duration": 0.133333
            },
            {
              "pitch": 74,
              "velocity": 108,
              "position": 8.0,
              "duration": 0.133333
            },
            {
              "pitch": 76,
              "velocity": 108,
              "position": 8.0,
              "duration": 0.116667
            },
            {
              "pitch": 79,
              "velocity": 108,
              "position": 8.0,
              "duration": 0.15
            },
            {
              "pitch": 83,
              "velocity": 108,
              "position": 8.0,
              "duration": 0.166667
            },
            {
              "pitch": 60,
              "velocity": 79,
              "position": 8.75,
              "duration": 0.066667
            },
            {
              "pitch": 64,
              "velocity": 99,
              "position": 8.75,
              "duration": 0.133333
            },
            {
              "pitch": 67,
              "velocity": 94,
              "position": 8.75,
              "duration": 0.15
            },
            {
              "pitch": 71,
              "velocity": 92,
              "position": 8.75,
              "duration": 0.133333
            },
            {
              "pitch": 74,
              "velocity": 108,
              "position": 8.75,
              "duration": 0.133333
            },
            {
              "pitch": 76,
              "velocity": 108,
              "position": 8.75,
              "duration": 0.133333
            },
            {
              "pitch": 79,
              "velocity": 108,
              "position": 8.75,
              "duration": 0.166667
            },
            {
              "pitch": 83,
              "velocity": 108,
              "position": 8.75,
              "duration": 0.183333
            },
            {
              "pitch": 60,
              "velocity": 91,
              "position": 9.3,
              "duration": 0.15
            },
            {
              "pitch": 64,
              "velocity": 91,
              "position": 9.3,
              "duration": 0.116667
            },
            {
              "pitch": 67,
              "velocity": 99,
              "position": 9.3,
              "duration": 0.15
            },
            {
              "pitch": 71,
              "velocity": 98,
              "position": 9.3,
              "duration": 0.15
            },
            {
              "pitch": 74,
              "velocity": 108,
              "position": 9.3,
              "duration": 0.116667
            },
            {
              "pitch": 76,
              "velocity": 108,
              "position": 9.3,
              "duration": 0.133333
            },
            {
              "pitch": 79,
              "velocity": 108,
              "position": 9.3,
              "duration": 0.15
            },
            {
              "pitch": 83,
              "velocity": 108,
              "position": 9.3,
              "duration": 0.183333
            },
            {
              "pitch": 60,
              "velocity": 83,
              "position": 9.8,
              "duration": 0.066667
            },
            {
              "pitch": 64,
              "velocity": 98,
              "position": 9.8,
              "duration": 0.116667
            },
            {
              "pitch": 67,
              "velocity": 100,
              "position": 9.8,
              "duration": 0.116667
            },
            {
              "pitch": 71,
              "velocity": 101,
              "position": 9.8,
              "duration": 0.116667
            },
            {
              "pitch": 74,
              "velocity": 108,
              "position": 9.8,
              "duration": 0.05
            },
            {
              "pitch": 76,
              "velocity": 108,
              "position": 9.8,
              "duration": 0.066667
            },
            {
              "pitch": 79,
              "velocity": 105,
              "position": 9.8,
              "duration": 0.066667
            },
            {
              "pitch": 83,
              "velocity": 108,
              "position": 9.8,
              "duration": 0.1
            },
            {
              "pitch": 60,
              "velocity": 74,
              "position": 10.0,
              "duration": 0.15
            },
            {
              "pitch": 64,
              "velocity": 103,
              "position": 10.0,
              "duration": 0.183333
            },
            {
              "pitch": 67,
              "velocity": 102,
              "position": 10.0,
              "duration": 0.216667
            },
            {
              "pitch": 71,
              "velocity": 94,
              "position": 10.0,
              "duration": 0.183333
            },
            {
              "pitch": 74,
              "velocity": 108,
              "position": 10.0,
              "duration": 0.15
            },
            {
              "pitch": 76,
              "velocity": 108,
              "position": 10.0,
              "duration": 0.166667
            },
            {
              "pitch": 79,
              "velocity": 108,
              "position": 10.0,
              "duration": 0.183333
            },
            {
              "pitch": 83,
              "velocity": 95,
              "position": 10.0,
              "duration": 0.216667
            },
            {
              "pitch": 60,
              "velocity": 89,
              "position": 10.5,
              "duration": 0.133333
            },
            {
              "pitch": 64,
              "velocity": 94,
              "position": 10.5,
              "duration": 0.166667
            },
            {
              "pitch": 67,
              "velocity": 94,
              "position": 10.5,
              "duration": 0.183333
            },
            {
              "pitch": 71,
              "velocity": 95,
              "position": 10.5,
              "duration": 0.166667
            },
            {
              "pitch": 74,
              "velocity": 108,
              "position": 10.5,
              "duration": 0.116667
            },
            {
              "pitch": 76,
              "velocity": 108,
              "position": 10.5,
              "duration": 0.133333
            },
            {
              "pitch": 79,
              "velocity": 108,
              "position": 10.5,
              "duration": 0.133333
            },
            {
              "pitch": 83,
              "velocity": 108,
              "position": 10.5,
              "duration": 0.2
            }
          ]
        },
        "12": {
          "ctab": {
            "srcChannel": 12,
            "name": "Guitar",
            "accType": "CHORD2",
            "editable": true,
            "mutedNotes": [],
            "mutedChords": [],
            "sourceChordNote": 0,
            "sourceChordType": "Maj7",
            "ctb2Main": {
              "ntr": "ROOT_FIXED",
              "ntt": "CHORD",
              "bassOn": false,
              "noteLowLimit": 40,
              "noteHighLimit": 76,
              "chordRootUpperLimit": 127,
              "rtr": "NOTE_GENERATOR"
            }
          },
          "notes": [
            {
              "pitch": 74,
              "velocity": 127,
              "position": 0.0,
              "duration": 0.475
            },
            {
              "pitch": 74,
              "velocity": 127,
              "position": 2.0,
              "duration": 0.475
            }
          ]
        },
        "13": {
          "ctab": {
            "srcChannel": 13,
            "name": "Strings",
            "accType": "PAD",
            "editable": true,
            "mutedNotes": [],
            "mutedChords": [],
            "sourceChordNote": 0,
            "sourceChordType": "Maj7",
            "ctb2Main": {
              "ntr": "ROOT_FIXED",
              "ntt": "MELODY",
              "bassOn": false,
              "noteLowLimit": 36,
              "noteHighLimit": 96,
              "chordRootUpperLimit": 127,
              "rtr": "PITCH_SHIFT"
            }
          },
          "notes": []
        }
      }
    },
    "Fill_In_AA": {
      "type": "Fill_In_AA",
      "sizeInBeats": 16,
      "channels": {
        "9": {
          "ctab": {
            "srcChannel": 9,
            "name": "Drums",
            "accType": "RHYTHM",
            "editable": false,
            "mutedNotes": [],
            "mutedChords": [],
            "sourceChordNote": 0,
            "sourceChordType": "Maj",
            "ctb2Main": {
              "ntr": "ROOT_FIXED",
              "ntt": "BYPASS",
              "bassOn": false,
              "noteLowLimit": 20,
              "noteHighLimit": 127,
              "chordRootUpperLimit": 127,
              "rtr": "RETRIGGER"
            }
          },
          "notes": [
            {
              "pitch": 35,
              "velocity": 115,
              "position": 0.0,
              "duration": 0.208333
            },
            {
              "pitch": 41,
              "velocity": 127,
              "position": 0.0,
              "duration": 0.208333
            },
            {
              "pitch": 42,
              "velocity": 80,
              "position": 0.0,
              "duration": 0.208333
            },
            {
              "pitch": 51,
              "velocity": 115,
              "position": 0.0,
              "duration": 0.208333
            },
            {
              "pitch": 56,
              "velocity": 80,
              "position": 0.0,
              "duration": 0.208333
            },
            {
              "pitch": 51,
              "velocity": 90,
              "position": 0.5,
              "duration": 0.208333
            },
            {
              "pitch": 35,
              "velocity": 115,
              "position": 1.0,
              "duration": 0.208333
            },
            {
              "pitch": 38,
              "velocity": 127,
              "position": 1.0,
              "duration": 0.208333
            },
            {
              "pitch": 39,
              "velocity": 127,
              "position": 1.0,
              "duration": 0.208333
            },
            {
              "pitch": 42,
              "velocity": 90,
              "position": 1.0,
              "duration": 0.208333
            },
            {
              "pitch": 51,
              "velocity": 115,
              "position": 1.0,
              "duration": 0.208333
            },
            {
              "pitch": 54,
              "velocity": 115,
              "position": 1.0,
              "duration": 0.208333
            },
            {
              "pitch": 56,
              "velocity": 80,
              "position": 1.0,
              "duration": 0.208333
            },
            {
              "pitch": 51,
              "velocity": 100,
              "position": 1.5,
              "duration": 0.208333
            },
            {
              "pitch": 35,
              "velocity": 115,
              "position": 2.0,
              "duration": 0.208333
            },
            {
              "pitch": 42,
              "velocity": 80,
              "position": 2.0,
              "duration": 0.208333
            },
            {
              "pitch": 51,
              "velocity": 115,
              "position": 2.0,
              "duration": 0.208333
            },
            {
              "pitch": 56,
              "velocity": 80,
              "position": 2.0,
              "duration": 0.208333
            },
            {
              "pitch": 51,
              "velocity": 100,
              "position": 2.5,
              "duration": 0.208333
            },
            {
              "pitch": 35,
              "velocity": 115,
              "position": 3.0,
              "duration": 0.208333
            },
            {
              "pitch": 38,
              "velocity": 127,
              "position": 3.0,
              "duration": 0.208333
            },
            {
              "pitch": 39,
              "velocity": 127,
              "position": 3.0,
              "duration": 0.208333
            },
            {
              "pitch": 42,
              "velocity": 90,
              "position": 3.0,
              "duration": 0.208333
            },
            {
              "pitch": 51,
              "velocity": 115,
              "position": 3.0,
              "duration": 0.208333
            },
            {
              "pitch": 54,
              "velocity": 115,
              "position": 3.0,
              "duration": 0.208333
            },
            {
              "pitch": 56,
              "velocity": 80,
              "position": 3.0,
              "duration": 0.208333
            },
            {
              "pitch": 51,
              "velocity": 100,
              "position": 3.5,
              "duration": 0.208333
            },
            {
              "pitch": 35,
              "velocity": 100,
              "position": 3.75,
              "duration": 0.208333
            },
            {
              "pitch": 35,
              "velocity": 115,
              "position": 4.0,
              "duration": 0.208333
            },
            {
              "pitch": 42,
              "velocity": 80,
              "position": 4.0,
              "duration": 0.208333
            },
            {
              "pitch": 51,
              "velocity": 115,
              "position": 4.0,
              "duration": 0.208333
            },
            {
              "pitch": 56,
              "velocity": 80,
              "position": 4.0,
              "duration": 0.208333
            },
            {
              "pitch": 51,
              "velocity": 90,
              "position": 4.5,
              "duration": 0.208333
            },
            {
              "pitch": 35,
              "velocity": 115,
              "position": 5.0,
              "duration": 0.208333
            },
            {
              "pitch": 38,
              "velocity": 127,
              "position": 5.0,
              "duration": 0.208333
            },
            {
              "pitch": 39,
              "velocity": 127,
              "position": 5.0,
              "duration": 0.208333
            },
            {
              "pitch": 42,
              "velocity": 90,
              "position": 5.0,
              "duration": 0.208333
            },
            {
              "pitch": 51,
              "velocity": 115,
              "position": 5.0,
              "duration": 0.208333
            },
            {
              "pitch": 54,
              "velocity": 115,
              "position": 5.0,
              "duration": 0.208333
            },
            {
              "pitch": 56,
              "velocity": 80,
              "position": 5.0,
              "duration": 0.208333
            },
            {
              "pitch": 51,
              "velocity": 100,
              "position": 5.25,
              "duration": 0.208333
            },
            {
              "pitch": 51,
              "velocity": 100,
              "position": 5.5,
              "duration": 0.208333
            },
            {
              "pitch": 35,
              "velocity": 115,
              "position": 6.0,
              "duration": 0.208333
            },
            {
              "pitch": 42,
              "velocity": 80,
              "position": 6.0,
              "duration": 0.208333
            },
            {
              "pitch": 51,
              "velocity": 115,
              "position": 6.0,
              "duration": 0.208333
            },
            {
              "pitch": 56,
              "velocity": 80,
              "position": 6.0,
              "duration": 0.208333
            },
            {
              "pitch": 51,
              "velocity": 100,
              "position": 6.5,
              "duration": 0.208333
            },
            {
              "pitch": 35,
              "velocity": 115,
              "position": 7.0,
              "duration": 0.208333
            },
            {
              "pitch": 38,
              "velocity": 127,
              "position": 7.0,
              "duration": 0.208333
            },
            {
              "pitch": 39,
              "velocity": 127,
              "position": 7.0,
              "duration": 0.208333
            },
            {
              "pitch": 42,
              "velocity": 90,
              "position": 7.0,
              "duration": 0.208333
            },
            {
              "pitch": 51,
              "velocity": 115,
              "position": 7.0,
              "duration": 0.208333
            },
            {
              "pitch": 54,
              "velocity": 115,
              "position": 7.0,
              "duration": 0.208333
            },
            {
              "pitch": 56,
              "velocity": 80,
              "position": 7.0,
              "duration": 0.208333
            },
            {
              "pitch": 51,
              "velocity": 100,
              "position": 7.5,
              "duration": 0.208333
            },
            {
              "pitch": 35,
              "velocity": 115,
              "position": 8.0,
              "duration": 0.208333
            },
            {
              "pitch": 42,
              "velocity": 80,
              "position": 8.0,
              "duration": 0.208333
            },
            {
              "pitch": 51,
              "velocity": 115,
              "position": 8.0,
              "duration": 0.208333
            },
            {
              "pitch": 56,
              "velocity": 80,
              "position": 8.0,
              "duration": 0.208333
            },
            {
              "pitch": 51,
              "velocity": 90,
              "position": 8.5,
              "duration": 0.208333
            },
            {
              "pitch": 35,
              "velocity": 115,
              "position": 9.0,
              "duration": 0.208333
            },
            {
              "pitch": 38,
              "velocity": 127,
              "position": 9.0,
              "duration": 0.208333
            },
            {
              "pitch": 39,
              "velocity": 127,
              "position": 9.0,
              "duration": 0.208333
            },
            {
              "pitch": 42,
              "velocity": 90,
              "position": 9.0,
              "duration": 0.208333
            },
            {
              "pitch": 51,
              "velocity": 115,
              "position": 9.0,
              "duration": 0.208333
            },
            {
              "pitch": 54,
              "velocity": 115,
              "position": 9.0,
              "duration": 0.208333
            },
            {
              "pitch": 56,
              "velocity": 80,
              "position": 9.0,
              "duration": 0.208333
            },
            {
              "pitch": 51,
              "velocity": 100,
              "position": 9.5,
              "duration": 0.208333
            },
            {
              "pitch": 35,
              "velocity": 115,
              "position": 10.0,
              "duration": 0.208333
            },
            {
              "pitch": 42,
              "velocity": 80,
              "position": 10.0,
              "duration": 0.208333
            },
            {
              "pitch": 51,
              "velocity": 115,
              "position": 10.0,
              "duration": 0.208333
            },
            {
              "pitch": 56,
              "velocity": 80,
              "position": 10.0,
              "duration": 0.208333
            },
            {
              "pitch": 51,
              "velocity": 100,
              "position": 10.5,
              "duration": 0.208333
            },
            {
              "pitch": 35,
              "velocity": 115,
              "position": 11.0,
              "duration": 0.208333
            },
            {
              "pitch": 38,
              "velocity": 127,
              "position": 11.0,
              "duration": 0.208333
            },
            {
              "pitch": 39,
              "velocity": 127,
              "position": 11.0,
              "duration": 0.208333
            },
            {
              "pitch": 42,
              "velocity": 90,
              "position": 11.0,
              "duration": 0.208333
            },
            {
              "pitch": 51,
              "velocity": 115,
              "position": 11.0,
              "duration": 0.208333
            },
            {
              "pitch": 54,
              "velocity": 115,
              "position": 11.0,
              "duration": 0.208333
            },
            {
              "pitch": 56,
              "velocity": 80,
              "position": 11.0,
              "duration": 0.208333
            },
            {
              "pitch": 51,
              "velocity": 100,
              "position": 11.5,
              "duration": 0.208333
            },
            {
              "pitch": 35,
              "velocity": 115,
              "position": 12.0,
              "duration": 0.208333
            },
            {
              "pitch": 42,
              "velocity": 80,
              "position": 12.0,
              "duration": 0.208333
            },
            {
              "pitch": 51,
              "velocity": 115,
              "position": 12.0,
              "duration": 0.208333
            },
            {
              "pitch": 56,
              "velocity": 100,
              "position": 12.0,
              "duration": 0.208333
            },
            {
              "pitch": 51,
              "velocity": 90,
              "position": 12.5,
              "duration": 0.208333
            },
            {
              "pitch": 35,
              "velocity": 115,
              "position": 13.0,
              "duration": 0.208333
            },
            {
              "pitch": 38,
              "velocity": 127,
              "position": 13.0,
              "duration": 0.208333
            },
            {
              "pitch": 39,
              "velocity": 127,
              "position": 13.0,
              "duration": 0.208333
            },
            {
              "pitch": 42,
              "velocity": 90,
              "position": 13.0,
              "duration": 0.208333
            },
            {
              "pitch": 51,
              "velocity": 115,
              "position": 13.0,
              "duration": 0.208333
            },
            {
              "pitch": 54,
              "velocity": 115,
              "position": 13.0,
              "duration": 0.208333
            },
            {
              "pitch": 56,
              "velocity": 80,
              "position": 13.0,
              "duration": 0.208333
            },
            {
              "pitch": 51,
              "velocity": 100,
              "position": 13.25,
              "duration": 0.208333
            },
            {
              "pitch": 51,
              "velocity": 100,
              "position": 13.5,
              "duration": 0.208333
            },
            {
              "pitch": 35,
              "velocity": 115,
              "position": 14.0,
              "duration": 0.208333
            },
            {
              "pitch": 38,
              "velocity": 127,
              "position": 14.0,
              "duration": 0.208333
            },
            {
              "pitch": 42,
              "velocity": 80,
              "position": 14.0,
              "duration": 0.208333
            },
            {
              "pitch": 51,
              "velocity": 115,
              "position": 14.0,
              "duration": 0.208333
            },
            {
              "pitch": 56,
              "velocity": 80,
              "position": 14.0,
              "duration": 0.208333
            },
            {
              "pitch": 38,
              "velocity": 127,
              "position": 14.5,
              "duration": 0.208333
            },
            {
              "pitch": 51,
              "velocity": 100,
              "position": 14.5,
              "duration": 0.208333
            },
            {
              "pitch": 35,
              "velocity": 115,
              "position": 15.0,
              "duration": 0.208333
            },
            {
              "pitch": 38,
              "velocity": 127,
              "position": 15.0,
              "duration": 0.208333
            },
            {
              "pitch": 39,
              "velocity": 127,
              "position": 15.0,
              "duration": 0.208333
            },
            {
              "pitch": 42,
              "velocity": 90,
              "position": 15.0,
              "duration": 0.208333
            },
            {
              "pitch": 51,
              "velocity": 115,
              "position": 15.0,
              "duration": 0.208333
            },
            {
              "pitch": 54,
              "velocity": 115,
              "position": 15.0,
              "duration": 0.208333
            },
            {
              "pitch": 56,
              "velocity": 80,
              "position": 15.0,
              "duration": 0.208333
            },
            {
              "pitch": 38,
              "velocity": 100,
              "position": 15.25,
              "duration": 0.208333
            },
            {
              "pitch": 38,
              "velocity": 115,
              "position": 15.5,
              "duration": 0.208333
            },
            {
              "pitch": 45,
              "velocity": 127,
              "position": 15.5,
              "duration": 0.208333
            },
            {
              "pitch": 51,
              "velocity": 100,
              "position": 15.5,
              "duration": 0.208333
            },
            {
              "pitch": 35,
              "velocity": 70,
              "position": 15.75,
              "duration": 0.125
            },
            {
              "pitch": 35,
              "velocity": 56,
              "position": 15.875,
              "duration": 0.083333
            }
          ]
        },
        "10": {
          "ctab": {
            "srcChannel": 10,
            "name": "Bass",
            "accType": "BASS",
            "editable": true,
            "mutedNotes": [],
            "mutedChords": [],
            "sourceChordNote": 0,
            "sourceChordType": "Maj7",
            "ctb2Main": {
              "ntr": "ROOT_TRANSPOSITION",
              "ntt": "BYPASS",
              "bassOn": true,
              "noteLowLimit": 20,
              "noteHighLimit": 60,
              "chordRootUpperLimit": 127,
              "rtr": "NOTE_GENERATOR"
            }
          },
          "notes": [
            {
              "pitch": 36,
              "velocity": 122,
              "position": 0.0,
              "duration": 0.233333
            },
            {
              "pitch": 36,
              "velocity": 120,
              "position": 0.75,
              "duration": 0.183333
            },
            {
              "pitch": 36,
              "velocity": 127,
              "position": 1.5,
              "duration": 0.866667
            },
            {
              "pitch": 36,
              "velocity": 125,
              "position": 3.5,
              "duration": 0.1
            },
            {
              "pitch": 36,
              "velocity": 113,
              "position": 3.75,
              "duration": 0.141667
            },
            {
              "pitch": 36,
              "velocity": 121,
              "position": 4.5,
              "duration": 0.2
            },
            {
              "pitch": 35,
              "velocity": 116,
              "position": 5.0,
              "duration": 0.233333
            },
            {
              "pitch": 36,
              "velocity": 127,
              "position": 5.5,
              "duration": 0.216667
            },
            {
              "pitch": 36,
              "velocity": 127,
              "position": 6.0,
              "duration": 0.216667
            },
            {
              "pitch": 36,
              "velocity": 127,
              "position": 7.5,
              "duration": 0.266667
            },
            {
              "pitch": 36,
              "velocity": 127,
              "position": 8.0,
              "duration": 0.391667
            },
            {
              "pitch": 36,
              "velocity": 127,
              "position": 9.5,
              "duration": 0.316667
            },
            {
              "pitch": 36,
              "velocity": 111,
              "position": 12.5,
              "duration": 0.15
            },
            {
              "pitch": 36,
              "velocity": 127,
              "position": 13.0,
              "duration": 1.0
            },
            {
              "pitch": 35,
              "velocity": 105,
              "position": 14.0,
              "duration": 0.433333
            },
            {
              "pitch": 36,
              "velocity": 114,
              "position": 14.5,
              "duration": 0.166667
            },
            {
              "pitch": 36,
              "velocity": 127,
              "position": 15.483333,
              "duration": 0.466667
            }
          ]
        },
        "11": {
          "ctab": {
            "srcChannel": 11,
            "name": "Piano",
            "accType": "CHORD1",
            "editable": true,
            "mutedNotes": [],
            "mutedChords": [],
            "sourceChordNote": 0,
            "sourceChordType": "Maj7",
            "ctb2Main": {
              "ntr": "ROOT_FIXED",
              "ntt": "CHORD",
              "bassOn": false,
              "noteLowLimit": 48,
              "noteHighLimit": 84,
              "chordRootUpperLimit": 127,
              "rtr": "NOTE_GENERATOR"
            }
          },
          "notes": [
            {
              "pitch": 60,
              "velocity": 90,
              "position": 0.0,
              "duration": 0.083333
            },
            {
              "pitch": 64,
              "velocity": 99,
              "position": 0.0,
              "duration": 0.15
            },
            {
              "pitch": 67,
              "velocity": 100,
              "position": 0.0,
              "duration": 0.15
            },
            {
              "pitch": 71,
              "velocity": 100,
              "position": 0.0,
              "duration": 0.133333
            },
            {
              "pitch": 74,
              "velocity": 107,
              "position": 0.0,
              "duration": 0.133333
            },
            {
              "pitch": 76,
              "velocity": 107,
              "position": 0.0,
              "duration": 0.116667
            },
            {
              "pitch": 79,
              "velocity": 107,
              "position": 0.0,
              "duration": 0.15
            },
            {
              "pitch": 83,
              "velocity": 107,
              "position": 0.0,
              "duration": 0.166667
            },
            {
              "pitch": 60,
              "velocity": 78,
              "position": 0.75,
              "duration": 0.066667
            },
            {
              "pitch": 64,
              "velocity": 98,
              "position": 0.75,
              "duration": 0.133333
            },
            {
              "pitch": 67,
              "velocity": 93,
              "position": 0.75,
              "duration": 0.15
            },
            {
              "pitch": 71,
              "velocity": 91,
              "position": 0.75,
              "duration": 0.133333
            },
            {
              "pitch": 74,
              "velocity": 107,
              "position": 0.75,
              "duration": 0.133333
            },
            {
              "pitch": 76,
              "velocity": 107,
              "position": 0.75,
              "duration": 0.133333
            },
            {
              "pitch": 79,
              "velocity": 107,
              "position": 0.75,
              "duration": 0.166667
            },
            {
              "pitch": 83,
              "velocity": 107,
              "position": 0.75,
              "duration": 0.183333
            },
            {
              "pitch": 60,
              "velocity": 90,
              "position": 1.3,
              "duration": 0.15
            },
            {
              "pitch": 64,
              "velocity": 90,
              "position": 1.3,
              "duration": 0.116667
            },
            {
              "pitch": 67,
              "velocity": 98,
              "position": 1.3,
              "duration": 0.15
            },
            {
              "pitch": 71,
              "velocity": 97,
              "position": 1.3,
              "duration": 0.15
            },
            {
              "pitch": 74,
              "velocity": 107,
              "position": 1.3,
              "duration": 0.116667
            },
            {
              "pitch": 76,
              "velocity": 107,
              "position": 1.3,
              "duration": 0.133333
            },
            {
              "pitch": 79,
              "velocity": 107,
              "position": 1.3,
              "duration": 0.15
            },
            {
              "pitch": 83,
              "velocity": 107,
              "position": 1.3,
              "duration": 0.183333
            },
            {
              "pitch": 60,
              "velocity": 82,
              "position": 1.8,
              "duration": 0.066667
            },
            {
              "pitch": 64,
              "velocity": 97,
              "position": 1.8,
              "duration": 0.116667
            },
            {
              "pitch": 67,
              "velocity": 99,
              "position": 1.8,
              "duration": 0.116667
            },
            {
              "pitch": 71,
              "velocity": 100,
              "position": 1.8,
              "duration": 0.116667
            },
            {
              "pitch": 74,
              "velocity": 107,
              "position": 1.8,
              "duration": 0.05
            },
            {
              "pitch": 76,
              "velocity": 107,
              "position": 1.8,
              "duration": 0.066667
            },
            {
              "pitch": 79,
              "velocity": 104,
              "position": 1.8,
              "duration": 0.066667
            },
            {
              "pitch": 83,
              "velocity": 107,
              "position": 1.8,
              "duration": 0.1
            },
            {
              "pitch": 60,
              "velocity": 90,
              "position": 2.0,
              "duration": 0.083333
            },
            {
              "pitch": 64,
              "velocity": 99,
              "position": 2.0,
              "duration": 0.15
            },
            {
              "pitch": 67,
              "velocity": 100,
              "position": 2.0,
              "duration": 0.15
            },
            {
              "pitch": 71,
              "velocity": 100,
              "position": 2.0,
              "duration": 0.133333
            },
            {
              "pitch": 74,
              "velocity": 107,
              "position": 2.0,
              "duration": 0.133333
            },
            {
              "pitch": 76,
              "velocity": 107,
              "position": 2.0,
              "duration": 0.116667
            },
            {
              "pitch": 79,
              "velocity": 107,
              "position": 2.0,
              "duration": 0.15
            },
            {
              "pitch": 83,
              "velocity": 107,
              "position": 2.0,
              "duration": 0.166667
            },
            {
              "pitch": 60,
              "velocity": 78,
              "position": 2.75,
              "duration": 0.066667
            },
            {
              "pitch": 64,
              "velocity": 98,
              "position": 2.75,
              "duration": 0.133333
            },
            {
              "pitch": 67,
              "velocity": 93,
              "position": 2.75,
              "duration": 0.15
            },
            {
              "pitch": 71,
              "velocity": 91,
              "position": 2.75,
              "duration": 0.133333
            },
            {
              "pitch": 74,
              "velocity": 107,
              "position": 2.75,
              "duration": 0.133333
            },
            {
              "pitch": 76,
              "velocity": 107,
              "position": 2.75,
              "duration": 0.133333
            },
            {
              "pitch": 79,
              "velocity": 107,
              "position": 2.75,
              "duration": 0.166667
            },
            {
              "pitch": 83,
              "velocity": 107,
              "position": 2.75,
              "duration": 0.183333
            },
            {
              "pitch": 60,
              "velocity": 90,
              "position": 3.3,
              "duration": 0.15
            },
            {
              "pitch": 64,
              "velocity": 90,
              "position": 3.3,
              "duration": 0.116667
            },
            {
              "pitch": 67,
              "velocity": 98,
              "position": 3.3,
              "duration": 0.15
            },
            {
              "pitch": 71,
              "velocity": 97,
              "position": 3.3,
              "duration": 0.15
            },
            {
              "pitch": 74,
              "velocity": 107,
              "position": 3.3,
              "duration": 0.116667
            },
            {
              "pitch": 76,
              "velocity": 107,
              "position": 3.3,
              "duration": 0.133333
            },
            {
              "pitch": 79,
              "velocity": 107,
              "position": 3.3,
              "duration": 0.15
            },
            {
              "pitch": 83,
              "velocity": 107,
              "position": 3.3,
              "duration": 0.183333
            },
            {
              "pitch": 60,
              "velocity": 82,
              "position": 3.8,
              "duration": 0.066667
            },
            {
              "pitch": 64,
              "velocity": 97,
              "position": 3.8,
              "duration": 0.116667
            },
            {
              "pitch": 67,
              "velocity": 99,
              "position": 3.8,
              "duration": 0.116667
            },
            {
              "pitch": 71,
              "velocity": 100,
              "position": 3.8,
              "duration": 0.116667
            },
            {
              "pitch": 74,
              "velocity": 107,
              "position": 3.8,
              "duration": 0.05
            },
            {
              "pitch": 76,
              "velocity": 107,
              "position": 3.8,
              "duration": 0.066667
            },
            {
              "pitch": 79,
              "velocity": 104,
              "position": 3.8,
              "duration": 0.066667
            },
            {
              "pitch": 83,
              "velocity": 107,
              "position": 3.8,
              "duration": 0.1
            },
            {
              "pitch": 60,
              "velocity": 91,
              "position": 8.0,
              "duration": 0.083333
            },
            {
              "pitch": 64,
              "velocity": 100,
              "position": 8.0,
              "duration": 0.15
            },
            {
              "pitch": 67,
              "velocity": 101,
              "position": 8.0,
              "duration": 0.15
            },
            {
              "pitch": 71,
              "velocity": 101,
              "position": 8.0,
              "duration": 0.133333
            },
            {
              "pitch": 74,
              "velocity": 108,
              "position": 8.0,
              "duration": 0.133333
            },
            {
              "pitch": 76,
              "velocity": 108,
              "position": 8.0,
              "duration": 0.116667
            },
            {
              "pitch": 79,
              "velocity": 108,
              "position": 8.0,
              "duration": 0.15
            },
            {
              "pitch": 83,
              "velocity": 108,
              "position": 8.0,
              "duration": 0.166667
            },
            {
              "pitch": 60,
              "velocity": 79,
              "position": 8.75,
              "duration": 0.066667
            },
            {
              "pitch": 64,
              "velocity": 99,
              "position": 8.75,
              "duration": 0.133333
            },
            {
              "pitch": 67,
              "velocity": 94,
              "position": 8.75,
              "duration": 0.15
            },
            {
              "pitch": 71,
              "velocity": 92,
              "position": 8.75,
              "duration": 0.133333
            },
            {
              "pitch": 74,
              "velocity": 108,
              "position": 8.75,
              "duration": 0.133333
            },
            {
              "pitch": 76,
              "velocity": 108,
              "position": 8.75,
              "duration": 0.133333
            },
            {
              "pitch": 79,
              "velocity": 108,
              "position": 8.75,
              "duration": 0.166667
            },
            {
              "pitch": 83,
              "velocity": 108,
              "position": 8.75,
              "duration": 0.183333
            },
            {
              "pitch": 60,
              "velocity": 91,
              "position": 9.3,
              "duration": 0.15
            },
            {
              "pitch": 64,
              "velocity": 91,
              "position": 9.3,
              "duration": 0.116667
            },
            {
              "pitch": 67,
              "velocity": 99,
              "position": 9.3,
              "duration": 0.15
            },
            {
              "pitch": 71,
              "velocity": 98,
              "position": 9.3,
              "duration": 0.15
            },
            {
              "pitch": 74,
              "velocity": 108,
              "position": 9.3,
              "duration": 0.116667
            },
            {
              "pitch": 76,
              "velocity": 108,
              "position": 9.3,
              "duration": 0.133333
            },
            {
              "pitch": 79,
              "velocity": 108,
              "position": 9.3,
              "duration": 0.15
            },
            {
              "pitch": 83,
              "velocity": 108,
              "position": 9.3,
              "duration": 0.183333
            },
            {
              "pitch": 60,
              "velocity": 83,
              "position": 9.8,
              "duration": 0.066667
            },
            {
              "pitch": 64,
              "velocity": 98,
              "position": 9.8,
              "duration": 0.116667
            },
            {
              "pitch": 67,
              "velocity": 100,
              "position": 9.8,
              "duration": 0.116667
            },
            {
              "pitch": 71,
              "velocity": 101,
              "position": 9.8,
              "duration": 0.116667
            },
            {
              "pitch": 74,
              "velocity": 108,
              "position": 9.8,
              "duration": 0.05
            },
            {
              "pitch": 76,
              "velocity": 108,
              "position": 9.8,
              "duration": 0.066667
            },
            {
              "pitch": 79,
              "velocity": 105,
              "position": 9.8,
              "duration": 0.066667
            },
            {
              "pitch": 83,
              "velocity": 108,
              "position": 9.8,
              "duration": 0.1
            },
            {
              "pitch": 60,
              "velocity": 74,
              "position": 10.0,
              "duration": 0.15
            },
            {
              "pitch": 64,
              "velocity": 103,
              "position": 10.0,
              "duration": 0.183333
            },
            {
              "pitch": 67,
              "velocity": 102,
              "position": 10.0,
              "duration": 0.216667
            },
            {
              "pitch": 71,
              "velocity": 94,
              "position": 10.0,
              "duration": 0.183333
            },
            {
              "pitch": 74,
              "velocity": 108,
              "position": 10.0,
              "duration": 0.15
            },
            {
              "pitch": 76,
              "velocity": 108,
              "position": 10.0,
              "duration": 0.166667
            },
            {
              "pitch": 79,
              "velocity": 108,
              "position": 10.0,
              "duration": 0.183333
            },
            {
              "pitch": 83,
              "velocity": 95,
              "position": 10.0,
              "duration": 0.216667
            },
            {
              "pitch": 60,
              "velocity": 89,
              "position": 10.5,
              "duration": 0.133333
            },
            {
              "pitch": 64,
              "velocity": 94,
              "position": 10.5,
              "duration": 0.166667
            },
            {
              "pitch": 67,
              "velocity": 94,
              "position": 10.5,
              "duration": 0.183333
            },
            {
              "pitch": 71,
              "velocity": 95,
              "position": 10.5,
              "duration": 0.166667
            },
            {
              "pitch": 74,
              "velocity": 108,
              "position": 10.5,
              "duration": 0.116667
            },
            {
              "pitch": 76,
              "velocity": 108,
              "position": 10.5,
              "duration": 0.133333
            },
            {
              "pitch": 79,
              "velocity": 108,
              "position": 10.5,
              "duration": 0.133333
            },
            {
              "pitch": 83,
              "velocity": 108,
              "position": 10.5,
              "duration": 0.2
            }
          ]
        },
        "12": {
          "ctab": {
            "srcChannel": 12,
            "name": "Guitar",
            "accType": "CHORD2",
            "editable": true,
            "mutedNotes": [],
            "mutedChords": [],
            "sourceChordNote": 0,
            "sourceChordType": "Maj7",
            "ctb2Main": {
              "ntr": "ROOT_FIXED",
              "ntt": "CHORD",
              "bassOn": false,
              "noteLowLimit": 40,
              "noteHighLimit": 76,
              "chordRootUpperLimit": 127,
              "rtr": "NOTE_GENERATOR"
            }
          },
          "notes": [
            {
              "pitch": 74,
              "velocity": 127,
              "position": 0.0,
              "duration": 0.475
            },
            {
              "pitch": 74,
              "velocity": 127,
              "position": 2.0,
              "duration": 0.475
            }
          ]
        },
        "13": {
          "ctab": {
            "srcChannel": 13,
            "name": "Strings",
            "accType": "PAD",
            "editable": true,
            "mutedNotes": [],
            "mutedChords": [],
            "sourceChordNote": 0,
            "sourceChordType": "Maj7",
            "ctb2Main": {
              "ntr": "ROOT_FIXED",
              "ntt": "MELODY",
              "bassOn": false,
              "noteLowLimit": 36,
              "noteHighLimit": 96,
              "chordRootUpperLimit": 127,
              "rtr": "PITCH_SHIFT"
            }
          },
          "notes": []
        }
      }
    },
    "Ending_A": {
      "type": "Ending_A",
      "sizeInBeats": 16,
      "channels": {
        "9": {
          "ctab": {
            "srcChannel": 9,
            "name": "Drums",
            "accType": "RHYTHM",
            "editable": false,
            "mutedNotes": [],
            "mutedChords": [],
            "sourceChordNote": 0,
            "sourceChordType": "Maj",
            "ctb2Main": {
              "ntr": "ROOT_FIXED",
              "ntt": "BYPASS",
              "bassOn": false,
              "noteLowLimit": 20,
              "noteHighLimit": 127,
              "chordRootUpperLimit": 127,
              "rtr": "RETRIGGER"
            }
          },
          "notes": [
            {
              "pitch": 35,
              "velocity": 100,
              "position": 0.0,
              "duration": 0.083333
            },
            {
              "pitch": 42,
              "velocity": 127,
              "position": 0.0,
              "duration": 0.208333
            },
            {
              "pitch": 38,
              "velocity": 115,
              "position": 1.0,
              "duration": 0.208333
            },
            {
              "pitch": 39,
              "velocity": 100,
              "position": 1.0,
              "duration": 0.208333
            },
            {
              "pitch": 42,
              "velocity": 127,
              "position": 1.0,
              "duration": 0.208333
            },
            {
              "pitch": 35,
              "velocity": 100,
              "position": 1.5,
              "duration": 0.208333
            },
            {
              "pitch": 42,
              "velocity": 127,
              "position": 2.0,
              "duration": 0.208333
            },
            {
              "pitch": 38,
              "velocity": 115,
              "position": 3.0,
              "duration": 0.208333
            },
            {
              "pitch": 39,
              "velocity": 100,
              "position": 3.0,
              "duration": 0.208333
            },
            {
              "pitch": 42,
              "velocity": 127,
              "position": 3.0,
              "duration": 0.208333
            },
            {
              "pitch": 35,
              "velocity": 100,
              "position": 4.0,
              "duration": 0.208333
            },
            {
              "pitch": 42,
              "velocity": 127,
              "position": 4.0,
              "duration": 0.208333
            },
            {
              "pitch": 42,
              "velocity": 40,
              "position": 4.5,
              "duration": 0.208333
            },
            {
              "pitch": 38,
              "velocity": 115,
              "position": 5.0,
              "duration": 0.208333
            },
            {
              "pitch": 39,
              "velocity": 90,
              "position": 5.0,
              "duration": 0.208333
            },
            {
              "pitch": 42,
              "velocity": 127,
              "position": 5.0,
              "duration": 0.208333
            },
            {
              "pitch": 35,
              "velocity": 100,
              "position": 5.5,
              "duration": 0.208333
            },
            {
              "pitch": 42,
              "velocity": 127,
              "position": 6.0,
              "duration": 0.208333
            },
            {
              "pitch": 42,
              "velocity": 40,
              "position": 6.5,
              "duration": 0.208333
            },
            {
              "pitch": 38,
              "velocity": 115,
              "position": 7.0,
              "duration": 0.208333
            },
            {
              "pitch": 39,
              "velocity": 100,
              "position": 7.0,
              "duration": 0.208333
            },
            {
              "pitch": 42,
              "velocity": 127,
              "position": 7.0,
              "duration": 0.208333
            },
            {
              "pitch": 35,
              "velocity": 100,
              "position": 7.5,
              "duration": 0.208333
            },
            {
              "pitch": 35,
              "velocity": 60,
              "position": 7.75,
              "duration": 0.208333
            },
            {
              "pitch": 35,
              "velocity": 100,
              "position": 8.0,
              "duration": 0.208333
            },
            {
              "pitch": 42,
              "velocity": 127,
              "position": 8.0,
              "duration": 0.208333
            },
            {
              "pitch": 42,
              "velocity": 60,
              "position": 8.5,
              "duration": 0.208333
            },
            {
              "pitch": 38,
              "velocity": 115,
              "position": 9.0,
              "duration": 0.208333
            },
            {
              "pitch": 39,
              "velocity": 100,
              "position": 9.0,
              "duration": 0.208333
            },
            {
              "pitch": 42,
              "velocity": 127,
              "position": 9.0,
              "duration": 0.208333
            },
            {
              "pitch": 35,
              "velocity": 100,
              "position": 9.5,
              "duration": 0.208333
            },
            {
              "pitch": 42,
              "velocity": 127,
              "position": 10.0,
              "duration": 0.208333
            },
            {
              "pitch": 38,
              "velocity": 115,
              "position": 11.0,
              "duration": 0.208333
            },
            {
              "pitch": 39,
              "velocity": 100,
              "position": 11.0,
              "duration": 0.208333
            },
            {
              "pitch": 42,
              "velocity": 127,
              "position": 11.0,
              "duration": 0.208333
            },
            {
              "pitch": 42,
              "velocity": 60,
              "position": 11.25,
              "duration": 0.208333
            },
            {
              "pitch": 35,
              "velocity": 100,
              "position": 12.0,
              "duration": 0.208333
            },
            {
              "pitch": 42,
              "velocity": 127,
              "position": 12.0,
              "duration": 0.208333
            },
            {
              "pitch": 38,
              "velocity": 115,
              "position": 13.0,
              "duration": 0.208333
            },
            {
              "pitch": 39,
              "velocity": 90,
              "position": 13.0,
              "duration": 0.208333
            },
            {
              "pitch": 42,
              "velocity": 127,
              "position": 13.0,
              "duration": 0.208333
            },
            {
              "pitch": 35,
              "velocity": 100,
              "position": 13.5,
              "duration": 0.208333
            },
            {
              "pitch": 38,
              "velocity": 70,
              "position": 13.75,
              "duration": 0.125
            },
            {
              "pitch": 38,
              "velocity": 56,
              "position": 13.875,
              "duration": 0.083333
            },
            {
              "pitch": 38,
              "velocity": 115,
              "position": 14.0,
              "duration": 0.083333
            },
            {
              "pitch": 42,
              "velocity": 127,
              "position": 14.0,
              "duration": 0.208333
            },
            {
              "pitch": 48,
              "velocity": 127,
              "position": 14.0,
              "duration": 0.208333
            },
            {
              "pitch": 38,
              "velocity": 115,
              "position": 14.5,
              "duration": 0.208333
            },
            {
              "pitch": 45,
              "velocity": 115,
              "position": 14.5,
              "duration": 0.208333
            },
            {
              "pitch": 38,
              "velocity": 115,
              "position": 15.0,
              "duration": 0.208333
            },
            {
              "pitch": 39,
              "velocity": 100,
              "position": 15.0,
              "duration": 0.208333
            },
            {
              "pitch": 41,
              "velocity": 115,
              "position": 15.0,
              "duration": 0.208333
            },
            {
              "pitch": 42,
              "velocity": 127,
              "position": 15.0,
              "duration": 0.208333
            },
            {
              "pitch": 35,
              "velocity": 100,
              "position": 15.5,
              "duration": 0.208333
            },
            {
              "pitch": 38,
              "velocity": 115,
              "position": 15.5,
              "duration": 0.208333
            },
            {
              "pitch": 49,
              "velocity": 70,
              "position": 15.5,
              "duration": 0.208333
            },
            {
              "pitch": 35,
              "velocity": 70,
              "position": 15.75,
              "duration": 0.208333
            },
            {
              "pitch": 49,
              "velocity": 100,
              "position": 15.75,
              "duration": 0.208333
            }
          ]
        },
        "10": {
          "ctab": {
            "srcChannel": 10,
            "name": "Bass",
            "accType": "BASS",
            "editable": true,
            "mutedNotes": [],
            "mutedChords": [],
            "sourceChordNote": 0,
            "sourceChordType": "Maj7",
            "ctb2Main": {
              "ntr": "ROOT_TRANSPOSITION",
              "ntt": "BYPASS",
              "bassOn": true,
              "noteLowLimit": 20,
              "noteHighLimit": 60,
              "chordRootUpperLimit": 127,
              "rtr": "NOTE_GENERATOR"
            }
          },
          "notes": [
            {
              "pitch": 36,
              "velocity": 109,
              "position": 0.0,
              "duration": 0.383333
            },
            {
              "pitch": 36,
              "velocity": 109,
              "position": 1.5,
              "duration": 0.866667
            },
            {
              "pitch": 36,
              "velocity": 109,
              "position": 4.0,
              "duration": 0.383333
            },
            {
              "pitch": 36,
              "velocity": 109,
              "position": 5.5,
              "duration": 0.866667
            },
            {
              "pitch": 36,
              "velocity": 107,
              "position": 8.0,
              "duration": 0.266667
            },
            {
              "pitch": 36,
              "velocity": 111,
              "position": 9.5,
              "duration": 0.233333
            },
            {
              "pitch": 36,
              "velocity": 105,
              "position": 12.0,
              "duration": 0.266667
            },
            {
              "pitch": 36,
              "velocity": 109,
              "position": 13.5,
              "duration": 0.233333
            },
            {
              "pitch": 35,
              "velocity": 115,
              "position": 15.5,
              "duration": 0.491667
            }
          ]
        },
        "11": {
          "ctab": {
            "srcChannel": 11,
            "name": "Piano",
            "accType": "CHORD1",
            "editable": true,
            "mutedNotes": [],
            "mutedChords": [],
            "sourceChordNote": 0,
            "sourceChordType": "Maj7",
            "ctb2Main": {
              "ntr": "ROOT_FIXED",
              "ntt": "CHORD",
              "bassOn": false,
              "noteLowLimit": 48,
              "noteHighLimit": 84,
              "chordRootUpperLimit": 127,
              "rtr": "NOTE_GENERATOR"
            }
          },
          "notes": [
            {
              "pitch": 60,
              "velocity": 88,
              "position": 0.0,
              "duration": 0.083333
            },
            {
              "pitch": 64,
              "velocity": 97,
              "position": 0.0,
              "duration": 0.15
            },
            {
              "pitch": 67,
              "velocity": 98,
              "position": 0.0,
              "duration": 0.15
            },
            {
              "pitch": 71,
              "velocity": 98,
              "position": 0.0,
              "duration": 0.133333
            },
            {
              "pitch": 74,
              "velocity": 113,
              "position": 0.0,
              "duration": 0.133333
            },
            {
              "pitch": 76,
              "velocity": 113,
              "position": 0.0,
              "duration": 0.116667
            },
            {
              "pitch": 79,
              "velocity": 111,
              "position": 0.0,
              "duration": 0.15
            },
            {
              "pitch": 83,
              "velocity": 111,
              "position": 0.0,
              "duration": 0.166667
            },
            {
              "pitch": 60,
              "velocity": 76,
              "position": 0.75,
              "duration": 0.066667
            },
            {
              "pitch": 64,
              "velocity": 96,
              "position": 0.75,
              "duration": 0.133333
            },
            {
              "pitch": 67,
              "velocity": 91,
              "position": 0.75,
              "duration": 0.15
            },
            {
              "pitch": 71,
              "velocity": 89,
              "position": 0.75,
              "duration": 0.133333
            },
            {
              "pitch": 74,
              "velocity": 113,
              "position": 0.75,
              "duration": 0.133333
            },
            {
              "pitch": 76,
              "velocity": 110,
              "position": 0.75,
              "duration": 0.133333
            },
            {
              "pitch": 79,
              "velocity": 107,
              "position": 0.75,
              "duration": 0.166667
            },
            {
              "pitch": 83,
              "velocity": 107,
              "position": 0.75,
              "duration": 0.183333
            },
            {
              "pitch": 60,
              "velocity": 88,
              "position": 1.3,
              "duration": 0.15
            },
            {
              "pitch": 64,
              "velocity": 88,
              "position": 1.3,
              "duration": 0.116667
            },
            {
              "pitch": 67,
              "velocity": 96,
              "position": 1.3,
              "duration": 0.15
            },
            {
              "pitch": 71,
              "velocity": 95,
              "position": 1.3,
              "duration": 0.15
            },
            {
              "pitch": 74,
              "velocity": 112,
              "position": 1.3,
              "duration": 0.116667
            },
            {
              "pitch": 76,
              "velocity": 107,
              "position": 1.3,
              "duration": 0.133333
            },
            {
              "pitch": 79,
              "velocity": 107,
              "position": 1.3,
              "duration": 0.15
            },
            {
              "pitch": 83,
              "velocity": 107,
              "position": 1.3,
              "duration": 0.183333
            },
            {
              "pitch": 60,
              "velocity": 88,
              "position": 2.0,
              "duration": 0.083333
            },
            {
              "pitch": 64,
              "velocity": 97,
              "position": 2.0,
              "duration": 0.15
            },
            {
              "pitch": 67,
              "velocity": 98,
              "position": 2.0,
              "duration": 0.15
            },
            {
              "pitch": 71,
              "velocity": 98,
              "position": 2.0,
              "duration": 0.133333
            },
            {
              "pitch": 74,
              "velocity": 113,
              "position": 2.0,
              "duration": 0.133333
            },
            {
              "pitch": 76,
              "velocity": 113,
              "position": 2.0,
              "duration": 0.116667
            },
            {
              "pitch": 79,
              "velocity": 111,
              "position": 2.0,
              "duration": 0.15
            },
            {
              "pitch": 83,
              "velocity": 111,
              "position": 2.0,
              "duration": 0.166667
            },
            {
              "pitch": 60,
              "velocity": 76,
              "position": 2.75,
              "duration": 0.066667
            },
            {
              "pitch": 64,
              "velocity": 96,
              "position": 2.75,
              "duration": 0.133333
            },
            {
              "pitch": 67,
              "velocity": 91,
              "position": 2.75,
              "duration": 0.15
            },
            {
              "pitch": 71,
              "velocity": 89,
              "position": 2.75,
              "duration": 0.133333
            },
            {
              "pitch": 74,
              "velocity": 113,
              "position": 2.75,
              "duration": 0.133333
            },
            {
              "pitch": 76,
              "velocity": 110,
              "position": 2.75,
              "duration": 0.133333
            },
            {
              "pitch": 79,
              "velocity": 107,
              "position": 2.75,
              "duration": 0.166667
            },
            {
              "pitch": 83,
              "velocity": 107,
              "position": 2.75,
              "duration": 0.183333
            },
            {
              "pitch": 60,
              "velocity": 88,
              "position": 3.3,
              "duration": 0.15
            },
            {
              "pitch": 64,
              "velocity": 88,
              "position": 3.3,
              "duration": 0.116667
            },
            {
              "pitch": 67,
              "velocity": 96,
              "position": 3.3,
              "duration": 0.15
            },
            {
              "pitch": 71,
              "velocity": 95,
              "position": 3.3,
              "duration": 0.15
            },
            {
              "pitch": 74,
              "velocity": 112,
              "position": 3.3,
              "duration": 0.116667
            },
            {
              "pitch": 76,
              "velocity": 107,
              "position": 3.3,
              "duration": 0.133333
            },
            {
              "pitch": 79,
              "velocity": 107,
              "position": 3.3,
              "duration": 0.15
            },
            {
              "pitch": 83,
              "velocity": 107,
              "position": 3.3,
              "duration": 0.183333
            },
            {
              "pitch": 60,
              "velocity": 80,
              "position": 3.8,
              "duration": 0.066667
            },
            {
              "pitch": 64,
              "velocity": 95,
              "position": 3.8,
              "duration": 0.116667
            },
            {
              "pitch": 67,
              "velocity": 97,
              "position": 3.8,
              "duration": 0.116667
            },
            {
              "pitch": 71,
              "velocity": 98,
              "position": 3.8,
              "duration": 0.116667
            },
            {
              "pitch": 74,
              "velocity": 110,
              "position": 3.8,
              "duration": 0.05
            },
            {
              "pitch": 76,
              "velocity": 109,
              "position": 3.8,
              "duration": 0.066667
            },
            {
              "pitch": 79,
              "velocity": 102,
              "position": 3.8,
              "duration": 0.066667
            },
            {
              "pitch": 83,
              "velocity": 106,
              "position": 3.8,
              "duration": 0.1
            },
            {
              "pitch": 60,
              "velocity": 88,
              "position": 8.0,
              "duration": 0.083333
            },
            {
              "pitch": 64,
              "velocity": 97,
              "position": 8.0,
              "duration": 0.15
            },
            {
              "pitch": 67,
              "velocity": 98,
              "position": 8.0,
              "duration": 0.15
            },
            {
              "pitch": 71,
              "velocity": 98,
              "position": 8.0,
              "duration": 0.133333
            },
            {
              "pitch": 74,
              "velocity": 113,
              "position": 8.0,
              "duration": 0.133333
            },
            {
              "pitch": 76,
              "velocity": 113,
              "position": 8.0,
              "duration": 0.116667
            },
            {
              "pitch": 79,
              "velocity": 111,
              "position": 8.0,
              "duration": 0.15
            },
            {
              "pitch": 83,
              "velocity": 111,
              "position": 8.0,
              "duration": 0.166667
            },
            {
              "pitch": 60,
              "velocity": 76,
              "position": 8.75,
              "duration": 0.066667
            },
            {
              "pitch": 64,
              "velocity": 96,
              "position": 8.75,
              "duration": 0.133333
            },
            {
              "pitch": 67,
              "velocity": 91,
              "position": 8.75,
              "duration": 0.15
            },
            {
              "pitch": 71,
              "velocity": 89,
              "position": 8.75,
              "duration": 0.133333
            },
            {
              "pitch": 74,
              "velocity": 113,
              "position": 8.75,
              "duration": 0.133333
            },
            {
              "pitch": 76,
              "velocity": 110,
              "position": 8.75,
              "duration": 0.133333
            },
            {
              "pitch": 79,
              "velocity": 107,
              "position": 8.75,
              "duration": 0.166667
            },
            {
              "pitch": 83,
              "velocity": 107,
              "position": 8.75,
              "duration": 0.183333
            },
            {
              "pitch": 60,
              "velocity": 88,
              "position": 9.3,
              "duration": 0.15
            },
            {
              "pitch": 64,
              "velocity": 88,
              "position": 9.3,
              "duration": 0.116667
            },
            {
              "pitch": 67,
              "velocity": 96,
              "position": 9.3,
              "duration": 0.15
            },
            {
              "pitch": 71,
              "velocity": 95,
              "position": 9.3,
              "duration": 0.15
            },
            {
              "pitch": 74,
              "velocity": 112,
              "position": 9.3,
              "duration": 0.116667
            },
            {
              "pitch": 76,
              "velocity": 107,
              "position": 9.3,
              "duration": 0.133333
            },
            {
              "pitch": 79,
              "velocity": 107,
              "position": 9.3,
              "duration": 0.15
            },
            {
              "pitch": 83,
              "velocity": 107,
              "position": 9.3,
              "duration": 0.183333
            },
            {
              "pitch": 60,
              "velocity": 80,
              "position": 9.8,
              "duration": 0.066667
            },
            {
              "pitch": 64,
              "velocity": 95,
              "position": 9.8,
              "duration": 0.116667
            },
            {
              "pitch": 67,
              "velocity": 97,
              "position": 9.8,
              "duration": 0.116667
            },
            {
              "pitch": 71,
              "velocity": 98,
              "position": 9.8,
              "duration": 0.116667
            },
            {
              "pitch": 74,
              "velocity": 110,
              "position": 9.8,
              "duration": 0.05
            },
            {
              "pitch": 76,
              "velocity": 109,
              "position": 9.8,
              "duration": 0.066667
            },
            {
              "pitch": 79,
              "velocity": 102,
              "position": 9.8,
              "duration": 0.066667
            },
            {
              "pitch": 83,
              "velocity": 106,
              "position": 9.8,
              "duration": 0.1
            },
            {
              "pitch": 60,
              "velocity": 71,
              "position": 10.0,
              "duration": 0.15
            },
            {
              "pitch": 64,
              "velocity": 100,
              "position": 10.0,
              "duration": 0.183333
            },
            {
              "pitch": 67,
              "velocity": 99,
              "position": 10.0,
              "duration": 0.216667
            },
            {
              "pitch": 71,
              "velocity": 91,
              "position": 10.0,
              "duration": 0.183333
            },
            {
              "pitch": 74,
              "velocity": 111,
              "position": 10.0,
              "duration": 0.15
            },
            {
              "pitch": 76,
              "velocity": 107,
              "position": 10.0,
              "duration": 0.166667
            },
            {
              "pitch": 79,
              "velocity": 106,
              "position": 10.0,
              "duration": 0.183333
            },
            {
              "pitch": 83,
              "velocity": 92,
              "position": 10.0,
              "duration": 0.216667
            },
            {
              "pitch": 60,
              "velocity": 86,
              "position": 10.5,
              "duration": 0.133333
            },
            {
              "pitch": 64,
              "velocity": 91,
              "position": 10.5,
              "duration": 0.166667
            },
            {
              "pitch": 67,
              "velocity": 91,
              "position": 10.5,
              "duration": 0.183333
            },
            {
              "pitch": 71,
              "velocity": 92,
              "position": 10.5,
              "duration": 0.166667
            },
            {
              "pitch": 74,
              "velocity": 113,
              "position": 10.5,
              "duration": 0.116667
            },
            {
              "pitch": 76,
              "velocity": 113,
              "position": 10.5,
              "duration": 0.133333
            },
            {
              "pitch": 79,
              "velocity": 111,
              "position": 10.5,
              "duration": 0.133333
            },
            {
              "pitch": 83,
              "velocity": 112,
              "position": 10.5,
              "duration": 0.2
            }
          ]
        },
        "12": {
          "ctab": {
            "srcChannel": 12,
            "name": "Guitar",
            "accType": "CHORD2",
            "editable": true,
            "mutedNotes": [],
            "mutedChords": [],
            "sourceChordNote": 0,
            "sourceChordType": "Maj7",
            "ctb2Main": {
              "ntr": "ROOT_FIXED",
              "ntt": "CHORD",
              "bassOn": false,
              "noteLowLimit": 40,
              "noteHighLimit": 76,
              "chordRootUpperLimit": 127,
              "rtr": "NOTE_GENERATOR"
            }
          },
          "notes": []
        },
        "13": {
          "ctab": {
            "srcChannel": 13,
            "name": "Strings",
            "accType": "PAD",
            "editable": true,
            "mutedNotes": [],
            "mutedChords": [],
            "sourceChordNote": 0,
            "sourceChordType": "Maj7",
            "ctb2Main": {
              "ntr": "ROOT_FIXED",
              "ntt": "MELODY",
              "bassOn": false,
              "noteLowLimit": 36,
              "noteHighLimit": 96,
              "chordRootUpperLimit": 127,
              "rtr": "PITCH_SHIFT"
            }
          },
          "notes": []
        }
      }
    }
  }
}