{
  "name": "Good Time Smooth Jazz Groove",
  "tempo": 95,
  "timeSignature": "4/4",
  "ticksPerQuarter": 120,
  "sffType": "SFF1",
  "division": "BINARY",
  "channelPrograms": {
    "9": 0,
    "10": 33,
    "11": 4,
    "12": 26,
    "13": 48
  },
  "parts": {
    "Intro_A": {
      "type": "Intro_A",
      "sizeInBeats": 24,
      "channels": {
        "9": {
          "ctab": {
            "srcChannel": 9,
            "name": "Drums",
            "accType": "RHYTHM",
            "editable": false,
            "mutedNotes": [],
            "mutedChords": [],
            "sourceChordNote": 0,
            "sourceChordType": "Maj",
            "ctb2Main": {
              "ntr": "ROOT_FIXED",
              "ntt": "BYPASS",
              "bassOn": false,
              "noteLowLimit": 20,
              "noteHighLimit": 127,
              "chordRootUpperLimit": 127,
              "rtr": "RETRIGGER"
            }
          },
          "notes": [
            {
              "pitch": 37,
              "velocity": 84,
              "position": 0.0,
              "duration": 1.0
            },
            {
              "pitch": 37,
              "velocity": 84,
              "position": 2.0,
              "duration": 1.0
            },
            {
              "pitch": 37,
              "velocity": 64,
              "position": 4.0,
              "duration": 1.0
            },
            {
              "pitch": 37,
              "velocity": 84,
              "position": 5.0,
              "duration": 1.0
            },
            {
              "pitch": 37,
              "velocity": 64,
              "position": 6.0,
              "duration": 1.0
            },
            {
              "pitch": 37,
              "velocity": 84,
              "position": 7.0,
              "duration": 1.0
            },
            {
              "pitch": 35,
              "velocity": 80,
              "position": 8.0,
              "duration": 0.208333
            },
            {
              "pitch": 42,
              "velocity": 60,
              "position": 8.0,
              "duration": 0.208333
            },
            {
              "pitch": 56,
              "velocity": 60,
              "position": 8.0,
              "duration": 0.208333
            },
            {
              "pitch": 63,
              "velocity": 50,
              "position": 8.0,
              "duration": 0.208333
            },
            {
              "pitch": 69,
              "velocity": 70,
              "position": 8.0,
              "duration": 0.208333
            },
            {
              "pitch": 35,
              "velocity": 60,
              "position": 8.25,
              "duration": 0.208333
            },
            {
              "pitch": 42,
              "velocity": 80,
              "position": 8.25,
              "duration": 0.208333
            },
            {
              "pitch": 62,
              "velocity": 80,
              "position": 8.25,
              "duration": 0.208333
            },
            {
              "pitch": 42,
              "velocity": 50,
              "position": 8.5,
              "duration": 0.208333
            },
            {
              "pitch": 70,
              "velocity": 70,
              "position": 8.5,
              "duration": 0.208333
            },
            {
              "pitch": 38,
              "velocity": 50,
              "position": 8.75,
              "duration": 0.125
            },
            {
              "pitch": 42,
              "velocity": 40,
              "position": 8.75,
              "duration": 0.208333
            },
            {
              "pitch": 63,
              "velocity": 70,
              "position": 8.75,
              "duration": 0.125
            },
            {
              "pitch": 38,
              "velocity": 40,
              "position": 8.875,
              "duration": 0.083333
            },
            {
              "pitch": 63,
              "velocity": 56,
              "position": 8.875,
              "duration": 0.083333
            },
            {
              "pitch": 38,
              "velocity": 80,
              "position": 9.0,
              "duration": 0.083333
            },
            {
              "pitch": 42,
              "velocity": 80,
              "position": 9.0,
              "duration": 0.208333
            },
            {
              "pitch": 54,
              "velocity": 92,
              "position": 9.0,
              "duration": 0.208333
            },
            {
              "pitch": 56,
              "velocity": 60,
              "position": 9.0,
              "duration": 0.208333
            },
            {
              "pitch": 62,
              "velocity": 90,
              "position": 9.0,
              "duration": 0.208333
            },
            {
              "pitch": 69,
              "velocity": 80,
              "position": 9.0,
              "duration": 0.208333
            },
            {
              "pitch": 42,
              "velocity": 40,
              "position": 9.25,
              "duration": 0.208333
            },
            {
              "pitch": 62,
              "velocity": 40,
              "position": 9.25,
              "duration": 0.208333
            },
            {
              "pitch": 42,
              "velocity": 60,
              "position": 9.5,
              "duration": 0.208333
            },
            {
              "pitch": 63,
              "velocity": 80,
              "position": 9.5,
              "duration": 0.208333
            },
            {
              "pitch": 70,
              "velocity": 70,
              "position": 9.5,
              "duration": 0.208333
            },
            {
              "pitch": 35,
              "velocity": 80,
              "position": 9.75,
              "duration": 0.208333
            },
            {
              "pitch": 46,
              "velocity": 70,
              "position": 9.75,
              "duration": 0.208333
            },
            {
              "pitch": 42,
              "velocity": 70,
              "position": 10.0,
              "duration": 0.208333
            },
            {
              "pitch": 56,
              "velocity": 60,
              "position": 10.0,
              "duration": 0.208333
            },
            {
              "pitch": 69,
              "velocity": 70,
              "position": 10.0,
              "duration": 0.208333
            },
            {
              "pitch": 35,
              "velocity": 90,
              "position": 10.25,
              "duration": 0.208333
            },
            {
              "pitch": 42,
              "velocity": 80,
              "position": 10.25,
              "duration": 0.208333
            },
            {
              "pitch": 62,
              "velocity": 90,
              "position": 10.25,
              "duration": 0.208333
            },
            {
              "pitch": 35,
              "velocity": 50,
              "position": 10.5,
              "duration": 0.208333
            },
            {
              "pitch": 42,
              "velocity": 50,
              "position": 10.5,
              "duration": 0.208333
            },
            {
              "pitch": 63,
              "velocity": 50,
              "position": 10.5,
              "duration": 0.208333
            },
            {
              "pitch": 70,
              "velocity": 60,
              "position": 10.5,
              "duration": 0.208333
            },
            {
              "pitch": 42,
              "velocity": 60,
              "position": 10.75,
              "duration": 0.208333
            },
            {
              "pitch": 63,
              "velocity": 40,
              "position": 10.75,
              "duration": 0.208333
            },
            {
              "pitch": 38,
              "velocity": 70,
              "position": 11.0,
              "duration": 0.208333
            },
            {
              "pitch": 42,
              "velocity": 70,
              "position": 11.0,
              "duration": 0.208333
            },
            {
              "pitch": 54,
              "velocity": 92,
              "position": 11.0,
              "duration": 0.208333
            },
            {
              "pitch": 56,
              "velocity": 60,
              "position": 11.0,
              "duration": 0.208333
            },
            {
              "pitch": 63,
              "velocity": 60,
              "position": 11.0,
              "duration": 0.208333
            },
            {
              "pitch": 69,
              "velocity": 80,
              "position": 11.0,
              "duration": 0.208333
            },
            {
              "pitch": 38,
              "velocity": 40,
              "position": 11.25,
              "duration": 0.208333
            },
            {
              "pitch": 42,
              "velocity": 50,
              "position": 11.25,
              "duration": 0.208333
            },
            {
              "pitch": 62,
              "velocity": 50,
              "position": 11.25,
              "duration": 0.208333
            },
            {
              "pitch": 46,
              "velocity": 70,
              "position": 11.5,
              "duration": 0.208333
            },
            {
              "pitch": 63,
              "velocity": 70,
              "position": 11.5,
              "duration": 0.208333
            },
            {
              "pitch": 70,
              "velocity": 70,
              "position": 11.5,
              "duration": 0.208333
            },
            {
              "pitch": 35,
              "velocity": 40,
              "position": 11.75,
              "duration": 0.208333
            },
            {
              "pitch": 35,
              "velocity": 80,
              "position": 12.0,
              "duration": 0.208333
            },
            {
              "pitch": 42,
              "velocity": 50,
              "position": 12.0,
              "duration": 0.208333
            },
            {
              "pitch": 56,
              "velocity": 60,
              "position": 12.0,
              "duration": 0.208333
            },
            {
              "pitch": 69,
              "velocity": 70,
              "position": 12.0,
              "duration": 0.208333
            },
            {
              "pitch": 35,
              "velocity": 60,
              "position": 12.25,
              "duration": 0.208333
            },
            {
              "pitch": 42,
              "velocity": 80,
              "position": 12.25,
              "duration": 0.208333
            },
            {
              "pitch": 62,
              "velocity": 60,
              "position": 12.25,
              "duration": 0.208333
            },
            {
              "pitch": 42,
              "velocity": 60,
              "position": 12.5,
              "duration": 0.208333
            },
            {
              "pitch": 63,
              "velocity": 50,
              "position": 12.5,
              "duration": 0.208333
            },
            {
              "pitch": 70,
              "velocity": 70,
              "position": 12.5,
              "duration": 0.208333
            },
            {
              "pitch": 42,
              "velocity": 40,
              "position": 12.75,
              "duration": 0.208333
            },
            {
              "pitch": 38,
              "velocity": 70,
              "position": 13.0,
              "duration": 0.208333
            },
            {
              "pitch": 42,
              "velocity": 80,
              "position": 13.0,
              "duration": 0.208333
            },
            {
              "pitch": 54,
              "velocity": 92,
              "position": 13.0,
              "duration": 0.208333
            },
            {
              "pitch": 56,
              "velocity": 60,
              "position": 13.0,
              "duration": 0.208333
            },
            {
              "pitch": 62,
              "velocity": 80,
              "position": 13.0,
              "duration": 0.208333
            },
            {
              "pitch": 69,
              "velocity": 80,
              "position": 13.0,
              "duration": 0.208333
            },
            {
              "pitch": 42,
              "velocity": 50,
              "position": 13.25,
              "duration": 0.208333
            },
            {
              "pitch": 42,
              "velocity": 70,
              "position": 13.5,
              "duration": 0.208333
            },
            {
              "pitch": 63,
              "velocity": 80,
              "position": 13.5,
              "duration": 0.208333
            },
            {
              "pitch": 70,
              "velocity": 70,
              "position": 13.5,
              "duration": 0.208333
            },
            {
              "pitch": 35,
              "velocity": 80,
              "position": 13.75,
              "duration": 0.208333
            },
            {
              "pitch": 42,
              "velocity": 40,
              "position": 13.75,
              "duration": 0.208333
            },
            {
              "pitch": 63,
              "velocity": 40,
              "position": 13.75,
              "duration": 0.208333
            },
            {
              "pitch": 42,
              "velocity": 70,
              "position": 14.0,
              "duration": 0.208333
            },
            {
              "pitch": 56,
              "velocity": 60,
              "position": 14.0,
              "duration": 0.208333
            },
            {
              "pitch": 69,
              "velocity": 70,
              "position": 14.0,
              "duration": 0.208333
            },
            {
              "pitch": 35,
              "velocity": 70,
              "position": 14.25,
              "duration": 0.208333
            },
            {
              "pitch": 42,
              "velocity": 40,
              "position": 14.25,
              "duration": 0.208333
            },
            {
              "pitch": 63,
              "velocity": 60,
              "position": 14.25,
              "duration": 0.208333
            },
            {
              "pitch": 35,
              "velocity": 60,
              "position": 14.5,
              "duration": 0.208333
            },
            {
              "pitch": 42,
              "velocity": 60,
              "position": 14.5,
              "duration": 0.208333
            },
            {
              "pitch": 63,
              "velocity": 80,
              "position": 14.5,
              "duration": 0.208333
            },
            {
              "pitch": 70,
              "velocity": 60,
              "position": 14.5,
              "duration": 0.208333
            },
            {
              "pitch": 42,
              "velocity": 70,
              "position": 14.75,
              "duration": 0.208333
            },
            {
              "pitch": 63,
              "velocity": 40,
              "position": 14.75,
              "duration": 0.208333
            },
            {
              "pitch": 38,
              "velocity": 70,
              "position": 15.0,
              "duration": 0.208333
            },
            {
              "pitch": 42,
              "velocity": 80,
              "position": 15.0,
              "duration": 0.208333
            },
            {
              "pitch": 54,
              "velocity": 92,
              "position": 15.0,
              "duration": 0.208333
            },
            {
              "pitch": 56,
              "velocity": 60,
              "position": 15.0,
              "duration": 0.208333
            },
            {
              "pitch": 62,
              "velocity": 90,
              "position": 15.0,
              "duration": 0.208333
            },
            {
              "pitch": 69,
              "velocity": 80,
              "position": 15.0,
              "duration": 0.208333
            },
            {
              "pitch": 42,
              "velocity": 50,
              "position": 15.25,
              "duration": 0.208333
            },
            {
              "pitch": 63,
              "velocity": 50,
              "position": 15.25,
              "duration": 0.208333
            },
            {
              "pitch": 46,
              "velocity": 70,
              "position": 15.5,
              "duration": 0.208333
            },
            {
              "pitch": 62,
              "velocity": 60,
              "position": 15.5,
              "duration": 0.208333
            },
            {
              "pitch": 70,
              "velocity": 70,
              "position": 15.5,
              "duration": 0.208333
            },
            {
              "pitch": 63,
              "velocity": 70,
              "position": 15.75,
              "duration": 0.125
            },
            {
              "pitch": 63,
              "velocity": 56,
              "position": 15.875,
              "duration": 0.083333
            },
            {
              "pitch": 35,
              "velocity": 80,
              "position": 16.0,
              "duration": 0.208333
            },
            {
              "pitch": 42,
              "velocity": 60,
              "position": 16.0,
              "duration": 0.208333
            },
            {
              "pitch": 56,
              "velocity": 60,
              "position": 16.0,
              "duration": 0.208333
            },
            {
              "pitch": 63,
              "velocity": 50,
              "position": 16.0,
              "duration": 0.083333
            },
            {
              "pitch": 69,
              "velocity": 70,
              "position": 16.0,
              "duration": 0.208333
            },
            {
              "pitch": 35,
              "velocity": 60,
              "position": 16.25,
              "duration": 0.208333
            },
            {
              "pitch": 42,
              "velocity": 80,
              "position": 16.25,
              "duration": 0.208333
            },
            {
              "pitch": 62,
              "velocity": 80,
              "position": 16.25,
              "duration": 0.208333
            },
            {
              "pitch": 42,
              "velocity": 50,
              "position": 16.5,
              "duration": 0.208333
            },
            {
              "pitch": 70,
              "velocity": 70,
              "position": 16.5,
              "duration": 0.208333
            },
            {
              "pitch": 38,
              "velocity": 50,
              "position": 16.75,
              "duration": 0.125
            },
            {
              "pitch": 42,
              "velocity": 40,
              "position": 16.75,
              "duration": 0.208333
            },
            {
              "pitch": 63,
              "velocity": 70,
              "position": 16.75,
              "duration": 0.125
            },
            {
              "pitch": 38,
              "velocity": 40,
              "position": 16.875,
              "duration": 0.083333
            },
            {
              "pitch": 63,
              "velocity": 56,
              "position": 16.875,
              "duration": 0.083333
            },
            {
              "pitch": 38,
              "velocity": 80,
              "position": 17.0,
              "duration": 0.083333
            },
            {
              "pitch": 42,
              "velocity": 80,
              "position": 17.0,
              "duration": 0.208333
            },
            {
              "pitch": 54,
              "velocity": 92,
              "position": 17.0,
              "duration": 0.208333
            },
            {
              "pitch": 56,
              "velocity": 60,
              "position": 17.0,
              "duration": 0.208333
            },
            {
              "pitch": 62,
              "velocity": 90,
              "position": 17.0,
              "duration": 0.208333
            },
            {
              "pitch": 69,
              "velocity": 80,
              "position": 17.0,
              "duration": 0.208333
            },
            {
              "pitch": 42,
              "velocity": 40,
              "position": 17.25,
              "duration": 0.208333
            },
            {
              "pitch": 62,
              "velocity": 40,
              "position": 17.25,
              "duration": 0.208333
            },
            {
              "pitch": 42,
              "velocity": 60,
              "position": 17.5,
              "duration": 0.208333
            },
            {
              "pitch": 63,
              "velocity": 80,
              "position": 17.5,
              "duration": 0.208333
            },
            {
              "pitch": 70,
              "velocity": 70,
              "position": 17.5,
              "duration": 0.208333
            },
            {
              "pitch": 35,
              "velocity": 80,
              "position": 17.75,
              "duration": 0.208333
            },
            {
              "pitch": 46,
              "velocity": 70,
              "position": 17.75,
              "duration": 0.208333
            },
            {
              "pitch": 42,
              "velocity": 70,
              "position": 18.0,
              "duration": 0.208333
            },
            {
              "pitch": 56,
              "velocity": 60,
              "position": 18.0,
              "duration": 0.208333
            },
            {
              "pitch": 69,
              "velocity": 70,
              "position": 18.0,
              "duration": 0.208333
            },
            {
              "pitch": 35,
              "velocity": 90,
              "position": 18.25,
              "duration": 0.208333
            },
            {
              "pitch": 42,
              "velocity": 80,
              "position": 18.25,
              "duration": 0.208333
            },
            {
              "pitch": 62,
              "velocity": 90,
              "position": 18.25,
              "duration": 0.208333
            },
            {
              "pitch": 35,
              "velocity": 50,
              "position": 18.5,
              "duration": 0.208333
            },
            {
              "pitch": 42,
              "velocity": 50,
              "position": 18.5,
              "duration": 0.208333
            },
            {
              "pitch": 63,
              "velocity": 50,
              "position": 18.5,
              "duration": 0.208333
            },
            {
              "pitch": 70,
              "velocity": 60,
              "position": 18.5,
              "duration": 0.208333
            },
            {
              "pitch": 42,
              "velocity": 60,
              "position": 18.75,
              "duration": 0.208333
            },
            {
              "pitch": 63,
              "velocity": 40,
              "position": 18.75,
              "duration": 0.208333
            },
            {
              "pitch": 38,
              "velocity": 70,
              "position": 19.0,
              "duration": 0.208333
            },
            {
              "pitch": 42,
              "velocity": 70,
              "position": 19.0,
              "duration": 0.208333
            },
            {
              "pitch": 54,
              "velocity": 92,
              "position": 19.0,
              "duration": 0.208333
            },
            {
              "pitch": 56,
              "velocity": 60,
              "position": 19.0,
              "duration": 0.208333
            },
            {
              "pitch": 63,
              "velocity": 60,
              "position": 19.0,
              "duration": 0.208333
            },
            {
              "pitch": 69,
              "velocity": 80,
              "position": 19.0,
              "duration": 0.208333
            },
            {
              "pitch": 38,
              "velocity": 40,
              "position": 19.25,
              "duration": 0.208333
            },
            {
              "pitch": 42,
              "velocity": 50,
              "position": 19.25,
              "duration": 0.208333
            },
            {
              "pitch": 62,
              "velocity": 50,
              "position": 19.25,
              "duration": 0.208333
            },
            {
              "pitch": 46,
              "velocity": 70,
              "position": 19.5,
              "duration": 0.208333
            },
            {
              "pitch": 63,
              "velocity": 70,
              "position": 19.5,
              "duration": 0.208333
            },
            {
              "pitch": 70,
              "velocity": 70,
              "position": 19.5,
              "duration": 0.208333
            },
            {
              "pitch": 35,
              "velocity": 40,
              "position": 19.75,
              "duration": 0.208333
            },
            {
              "pitch": 35,
              "velocity": 80,
              "position": 20.0,
              "duration": 0.208333
            },
            {
              "pitch": 42,
              "velocity": 50,
              "position": 20.0,
              "duration": 0.208333
            },
            {
              "pitch": 56,
              "velocity": 60,
              "position": 20.0,
              "duration": 0.208333
            },
            {
              "pitch": 69,
              "velocity": 70,
              "position": 20.0,
              "duration": 0.208333
            },
            {
              "pitch": 35,
              "velocity": 60,
              "position": 20.25,
              "duration": 0.208333
            },
            {
              "pitch": 42,
              "velocity": 80,
              "position": 20.25,
              "duration": 0.208333
            },
            {
              "pitch": 62,
              "velocity": 60,
              "position": 20.25,
              "duration": 0.208333
            },
            {
              "pitch": 42,
              "velocity": 60,
              "position": 20.5,
              "duration": 0.208333
            },
            {
              "pitch": 63,
              "velocity": 50,
              "position": 20.5,
              "duration": 0.208333
            },
            {
              "pitch": 70,
              "velocity": 70,
              "position": 20.5,
              "duration": 0.208333
            },
            {
              "pitch": 46,
              "velocity": 70,
              "position": 20.75,
              "duration": 0.208333
            },
            {
              "pitch": 38,
              "velocity": 48,
              "position": 20.875,
              "duration": 0.125
            },
            {
              "pitch": 38,
              "velocity": 90,
              "position": 21.0,
              "duration": 0.083333
            },
            {
              "pitch": 42,
              "velocity": 80,
              "position": 21.0,
              "duration": 0.208333
            },
            {
              "pitch": 54,
              "velocity": 92,
              "position": 21.0,
              "duration": 0.208333
            },
            {
              "pitch": 56,
              "velocity": 60,
              "position": 21.0,
              "duration": 0.208333
            },
            {
              "pitch": 62,
              "velocity": 92,
              "position": 21.0,
              "duration": 0.208333
            },
            {
              "pitch": 69,
              "velocity": 80,
              "position": 21.0,
              "duration": 0.208333
            },
            {
              "pitch": 42,
              "velocity": 50,
              "position": 21.25,
              "duration": 0.208333
            },
            {
              "pitch": 63,
              "velocity": 70,
              "position": 21.25,
              "duration": 0.208333
            },
            {
              "pitch": 42,
              "velocity": 70,
              "position": 21.5,
              "duration": 0.208333
            },
            {
              "pitch": 63,
              "velocity": 50,
              "position": 21.5,
              "duration": 0.208333
            },
            {
              "pitch": 70,
              "velocity": 70,
              "position": 21.5,
              "duration": 0.208333
            },
            {
              "pitch": 35,
              "velocity": 80,
              "position": 21.75,
              "duration": 0.208333
            },
            {
              "pitch": 38,
              "velocity": 70,
              "position": 21.75,
              "duration": 0.208333
            },
            {
              "pitch": 42,
              "velocity": 40,
              "position": 21.75,
              "duration": 0.208333
            },
            {
              "pitch": 63,
              "velocity": 80,
              "position": 21.75,
              "duration": 0.208333
            },
            {
              "pitch": 42,
              "velocity": 80,
              "position": 22.0,
              "duration": 0.208333
            },
            {
              "pitch": 56,
              "velocity": 60,
              "position": 22.0,
              "duration": 0.208333
            },
            {
              "pitch": 62,
              "velocity": 90,
              "position": 22.0,
              "duration": 0.208333
            },
            {
              "pitch": 69,
              "velocity": 70,
              "position": 22.0,
              "duration": 0.208333
            },
            {
              "pitch": 35,
              "velocity": 70,
              "position": 22.25,
              "duration": 0.208333
            },
            {
              "pitch": 46,
              "velocity": 92,
              "position": 22.25,
              "duration": 0.208333
            },
            {
              "pitch": 48,
              "velocity": 90,
              "position": 22.25,
              "duration": 0.208333
            },
            {
              "pitch": 63,
              "velocity": 60,
              "position": 22.25,
              "duration": 0.208333
            },
            {
              "pitch": 35,
              "velocity": 60,
              "position": 22.5,
              "duration": 0.208333
            },
            {
              "pitch": 45,
              "velocity": 92,
              "position": 22.5,
              "duration": 0.208333
            },
            {
              "pitch": 63,
              "velocity": 80,
              "position": 22.5,
              "duration": 0.208333
            },
            {
              "pitch": 70,
              "velocity": 60,
              "position": 22.5,
              "duration": 0.208333
            },
            {
              "pitch": 63,
              "velocity": 60,
              "position": 22.75,
              "duration": 0.208333
            },
            {
              "pitch": 46,
              "velocity": 80,
              "position": 23.0,
              "duration": 0.208333
            },
            {
              "pitch": 54,
              "velocity": 92,
              "position": 23.0,
              "duration": 0.208333
            },
            {
              "pitch": 56,
              "velocity": 60,
              "position": 23.0,
              "duration": 0.208333
            },
            {
              "pitch": 62,
              "velocity": 92,
              "position": 23.0,
              "duration": 0.208333
            },
            {
              "pitch": 69,
              "velocity": 80,
              "position": 23.0,
              "duration": 0.208333
            },
            {
              "pitch": 35,
              "velocity": 70,
              "position": 23.25,
              "duration": 0.208333
            },
            {
              "pitch": 41,
              "velocity": 90,
              "position": 23.25,
              "duration": 0.208333
            },
            {
              "pitch": 63,
              "velocity": 80,
              "position": 23.25,
              "duration": 0.208333
            },
            {
              "pitch": 45,
              "velocity": 92,
              "position": 23.5,
              "duration": 0.208333
            },
            {
              "pitch": 46,
              "velocity": 90,
              "position": 23.5,
              "duration": 0.208333
            },
            {
              "pitch": 62,
              "velocity": 80,
              "position": 23.5,
              "duration": 0.208333
            },
            {
              "pitch": 70,
              "velocity": 70,
              "position": 23.5,
              "duration": 0.208333
            },
            {
              "pitch": 35,
              "velocity": 50,
              "position": 23.75,
              "duration": 0.208333
            },
            {
              "pitch": 62,
              "velocity": 90,
              "position": 23.75,
              "duration": 0.208333
            }
          ]
        },
        "10": {
          "ctab": {
            "srcChannel": 10,
            "name": "Bass",
            "accType": "BASS",
            "editable": true,
            "mutedNotes": [],
            "mutedChords": [],
            "sourceChordNote": 0,
            "sourceChordType": "Maj7",
            "ctb2Main": {
              "ntr": "ROOT_TRANSPOSITION",
              "ntt": "BYPASS",
              "bassOn": true,
              "noteLowLimit": 20,
              "noteHighLimit": 60,
              "chordRootUpperLimit": 127,
              "rtr": "NOTE_GENERATOR"
            }
          },
          "notes": [
            {
              "pitch": 36,
              "velocity": 71,
              "position": 8.0,
              "duration": 1.633333
            },
            {
              "pitch": 35,
              "velocity": 71,
              "position": 9.75,
              "duration": 0.083333
            },
            {
              "pitch": 36,
              "velocity": 68,
              "position": 10.0,
              "duration": 0.158333
            },
            {
              "pitch": 36,
              "velocity": 75,
              "position": 10.5,
              "duration": 0.683333
            },
            {
              "pitch": 36,
              "velocity": 67,
              "position": 11.25,
              "duration": 0.1
            },
            {
              "pitch": 35,
              "velocity": 75,
              "position": 11.5,
              "duration": 0.291667
            },
            {
              "pitch": 36,
              "velocity": 78,
              "position": 12.008333,
              "duration": 0.275
            },
            {
              "pitch": 36,
              "velocity": 71,
              "position": 12.5,
              "duration": 0.916667
            },
            {
              "pitch": 36,
              "velocity": 68,
              "position": 13.75,
              "duration": 0.391667
            },
            {
              "pitch": 36,
              "velocity": 75,
              "position": 14.5,
              "duration": 0.683333
            },
            {
              "pitch": 31,
              "velocity": 67,
              "position": 15.25,
              "duration": 0.1
            },
            {
              "pitch": 33,
              "velocity": 75,
              "position": 15.5,
              "duration": 0.291667
            },
            {
              "pitch": 36,
              "velocity": 77,
              "position": 16.0,
              "duration": 1.716667
            },
            {
              "pitch": 31,
              "velocity": 66,
              "position": 17.75,
              "duration": 0.191667
            },
            {
              "pitch": 36,
              "velocity": 66,
              "position": 18.0,
              "duration": 0.125
            },
            {
              "pitch": 36,
              "velocity": 83,
              "position": 18.5,
              "duration": 0.758333
            },
            {
              "pitch": 31,
              "velocity": 75,
              "position": 19.5,
              "duration": 0.208333
            },
            {
              "pitch": 31,
              "velocity": 64,
              "position": 19.75,
              "duration": 0.258333
            },
            {
              "pitch": 36,
              "velocity": 77,
              "position": 20.008333,
              "duration": 1.633333
            },
            {
              "pitch": 31,
              "velocity": 48,
              "position": 21.75,
              "duration": 0.2
            },
            {
              "pitch": 31,
              "velocity": 73,
              "position": 22.25,
              "duration": 0.191667
            },
            {
              "pitch": 36,
              "velocity": 81,
              "position": 22.5,
              "duration": 0.241667
            },
            {
              "pitch": 43,
              "velocity": 72,
              "position": 23.275,
              "duration": 0.225
            },
            {
              "pitch": 35,
              "velocity": 70,
              "position": 23.5,
              "duration": 0.241667
            }
          ]
        },
        "11": {
          "ctab": {
            "srcChannel": 11,
            "name": "Piano",
            "accType": "CHORD1",
            "editable": true,
            "mutedNotes": [],
            "mutedChords": [],
            "sourceChordNote": 0,
            "sourceChordType": "Maj7",
            "ctb2Main": {
              "ntr": "ROOT_FIXED",
              "ntt": "CHORD",
              "bassOn": false,
              "noteLowLimit": 48,
              "noteHighLimit": 84,
              "chordRootUpperLimit": 127,
              "rtr": "NOTE_GENERATOR"
            }
          },
          "notes": [
            {
              "pitch": 48,
              "velocity": 64,
              "position": 8.008333,
              "duration": 1.658333
            },
            {
              "pitch": 64,
              "velocity": 49,
              "position": 8.016667,
              "duration": 0.383333
            },
            {
              "pitch": 67,
              "velocity": 64,
              "position": 8.016667,
              "duration": 0.383333
            },
            {
              "pitch": 71,
              "velocity": 67,
              "position": 8.483333,
              "duration": 1.183333
            },
            {
              "pitch": 59,
              "velocity": 47,
              "position": 8.5,
              "duration": 1.166667
            },
            {
              "pitch": 59,
              "velocity": 36,
              "position": 9.758333,
              "duration": 0.85
            },
            {
              "pitch": 64,
              "velocity": 65,
              "position": 9.758333,
              "duration": 1.316667
            },
            {
              "pitch": 67,
              "velocity": 68,
              "position": 9.758333,
              "duration": 1.333333
            },
            {
              "pitch": 48,
              "velocity": 59,
              "position": 9.775,
              "duration": 2.166667
            },
            {
              "pitch": 59,
              "velocity": 53,
              "position": 11.033333,
              "duration": 0.925
            },
            {
              "pitch": 67,
              "velocity": 68,
              "position": 11.541667,
              "duration": 0.416667
            },
            {
              "pitch": 48,
              "velocity": 62,
              "position": 12.0,
              "duration": 0.125
            },
            {
              "pitch": 59,
              "velocity": 33,
              "position": 12.0,
              "duration": 0.125
            },
            {
              "pitch": 64,
              "velocity": 64,
              "position": 12.0,
              "duration": 0.125
            },
            {
              "pitch": 67,
              "velocity": 80,
              "position": 12.0,
              "duration": 0.125
            },
            {
              "pitch": 48,
              "velocity": 56,
              "position": 12.5,
              "duration": 1.033333
            },
            {
              "pitch": 59,
              "velocity": 35,
              "position": 12.5,
              "duration": 1.033333
            },
            {
              "pitch": 64,
              "velocity": 60,
              "position": 12.5,
              "duration": 0.991667
            },
            {
              "pitch": 67,
              "velocity": 78,
              "position": 12.5,
              "duration": 0.991667
            },
            {
              "pitch": 59,
              "velocity": 31,
              "position": 13.758333,
              "duration": 2.1
            },
            {
              "pitch": 64,
              "velocity": 60,
              "position": 13.758333,
              "duration": 1.091667
            },
            {
              "pitch": 67,
              "velocity": 63,
              "position": 13.758333,
              "duration": 2.183333
            },
            {
              "pitch": 48,
              "velocity": 54,
              "position": 13.775,
              "duration": 2.15
            },
            {
              "pitch": 55,
              "velocity": 65,
              "position": 14.5,
              "duration": 1.216667
            },
            {
              "pitch": 64,
              "velocity": 75,
              "position": 15.008333,
              "duration": 0.875
            },
            {
              "pitch": 59,
              "velocity": 40,
              "position": 16.0,
              "duration": 2.058333
            },
            {
              "pitch": 64,
              "velocity": 52,
              "position": 16.008333,
              "duration": 1.15
            },
            {
              "pitch": 67,
              "velocity": 61,
              "position": 16.008333,
              "duration": 1.091667
            },
            {
              "pitch": 71,
              "velocity": 56,
              "position": 16.008333,
              "duration": 1.133333
            },
            {
              "pitch": 60,
              "velocity": 48,
              "position": 18.016667,
              "duration": 1.316667
            },
            {
              "pitch": 67,
              "velocity": 74,
              "position": 19.033333,
              "duration": 0.316667
            },
            {
              "pitch": 48,
              "velocity": 85,
              "position": 20.025,
              "duration": 3.416667
            },
            {
              "pitch": 59,
              "velocity": 48,
              "position": 20.983333,
              "duration": 0.15
            },
            {
              "pitch": 64,
              "velocity": 63,
              "position": 21.0,
              "duration": 0.116667
            },
            {
              "pitch": 71,
              "velocity": 60,
              "position": 21.0,
              "duration": 0.15
            },
            {
              "pitch": 59,
              "velocity": 47,
              "position": 21.491667,
              "duration": 1.966667
            },
            {
              "pitch": 64,
              "velocity": 63,
              "position": 21.491667,
              "duration": 1.366667
            },
            {
              "pitch": 71,
              "velocity": 68,
              "position": 21.491667,
              "duration": 1.208333
            },
            {
              "pitch": 55,
              "velocity": 82,
              "position": 22.783333,
              "duration": 0.675
            },
            {
              "pitch": 60,
              "velocity": 34,
              "position": 23.041667,
              "duration": 0.241667
            }
          ]
        },
        "12": {
          "ctab": {
            "srcChannel": 12,
            "name": "Guitar",
            "accType": "CHORD2",
            "editable": true,
            "mutedNotes": [],
            "mutedChords": [],
            "sourceChordNote": 0,
            "sourceChordType": "Maj7",
            "ctb2Main": {
              "ntr": "ROOT_FIXED",
              "ntt": "CHORD",
              "bassOn": false,
              "noteLowLimit": 40,
              "noteHighLimit": 76,
              "chordRootUpperLimit": 127,
              "rtr": "NOTE_GENERATOR"
            }
          },
          "notes": [
            {
              "pitch": 48,
              "velocity": 52,
              "position": 8.0,
              "duration": 1.583333
            },
            {
              "pitch": 55,
              "velocity": 50,
              "position": 8.491667,
              "duration": 1.166667
            },
            {
              "pitch": 64,
              "velocity": 62,
              "position": 9.008333,
              "duration": 0.616667
            },
            {
              "pitch": 55,
              "velocity": 69,
              "position": 10.008333,
              "duration": 1.691667
            },
            {
              "pitch": 67,
              "velocity": 77,
              "position": 10.016667,
              "duration": 1.7
            },
            {
              "pitch": 59,
              "velocity": 38,
              "position": 10.541667,
              "duration": 1.191667
            },
            {
              "pitch": 64,
              "velocity": 51,
              "position": 11.0,
              "duration": 0.65
            },
            {
              "pitch": 48,
              "velocity": 48,
              "position": 12.0,
              "duration": 1.9
            },
            {
              "pitch": 55,
              "velocity": 69,
              "position": 12.033333,
              "duration": 1.266667
            },
            {
              "pitch": 59,
              "velocity": 43,
              "position": 12.033333,
              "duration": 1.833333
            },
            {
              "pitch": 64,
              "velocity": 63,
              "position": 12.075,
              "duration": 0.608333
            },
            {
              "pitch": 64,
              "velocity": 61,
              "position": 13.0,
              "duration": 0.758333
            },
            {
              "pitch": 55,
              "velocity": 58,
              "position": 13.508333,
              "duration": 0.316667
            },
            {
              "pitch": 48,
              "velocity": 48,
              "position": 14.0,
              "duration": 1.9
            },
            {
              "pitch": 55,
              "velocity": 69,
              "position": 14.033333,
              "duration": 1.266667
            },
            {
              "pitch": 59,
              "velocity": 43,
              "position": 14.033333,
              "duration": 1.833333
            },
            {
              "pitch": 64,
              "velocity": 63,
              "position": 14.075,
              "duration": 0.608333
            },
            {
              "pitch": 64,
              "velocity": 61,
              "position": 15.0,
              "duration": 0.758333
            },
            {
              "pitch": 55,
              "velocity": 58,
              "position": 15.508333,
              "duration": 0.316667
            },
            {
              "pitch": 55,
              "velocity": 60,
              "position": 16.0,
              "duration": 0.991667
            },
            {
              "pitch": 48,
              "velocity": 57,
              "position": 16.025,
              "duration": 0.983333
            },
            {
              "pitch": 59,
              "velocity": 53,
              "position": 16.025,
              "duration": 0.933333
            },
            {
              "pitch": 64,
              "velocity": 63,
              "position": 16.083333,
              "duration": 0.858333
            },
            {
              "pitch": 48,
              "velocity": 51,
              "position": 17.5,
              "duration": 1.708333
            },
            {
              "pitch": 55,
              "velocity": 54,
              "position": 17.5,
              "duration": 0.708333
            },
            {
              "pitch": 59,
              "velocity": 50,
              "position": 17.525,
              "duration": 0.666667
            },
            {
              "pitch": 64,
              "velocity": 60,
              "position": 17.541667,
              "duration": 0.666667
            },
            {
              "pitch": 59,
              "velocity": 73,
              "position": 18.508333,
              "duration": 0.391667
            },
            {
              "pitch": 55,
              "velocity": 55,
              "position": 19.0,
              "duration": 1.608333
            },
            {
              "pitch": 48,
              "velocity": 53,
              "position": 21.008333,
              "duration": 1.533333
            },
            {
              "pitch": 55,
              "velocity": 63,
              "position": 21.516667,
              "duration": 1.016667
            },
            {
              "pitch": 64,
              "velocity": 61,
              "position": 22.075,
              "duration": 0.458333
            },
            {
              "pitch": 48,
              "velocity": 43,
              "position": 22.975,
              "duration": 0.425
            },
            {
              "pitch": 55,
              "velocity": 51,
              "position": 22.975,
              "duration": 0.408333
            },
            {
              "pitch": 59,
              "velocity": 53,
              "position": 23.008333,
              "duration": 0.391667
            },
            {
              "pitch": 55,
              "velocity": 54,
              "position": 23.975,
              "duration": 0.141667
            },
            {
              "pitch": 59,
              "velocity": 54,
              "position": 23.991667,
              "duration": 0.125
            }
          ]
        },
        "13": {
          "ctab": {
            "srcChannel": 13,
            "name": "Strings",
            "accType": "PAD",
            "editable": true,
            "mutedNotes": [],
            "mutedChords": [],
            "sourceChordNote": 0,
            "sourceChordType": "Maj7",
            "ctb2Main": {
              "ntr": "ROOT_FIXED",
              "ntt": "MELODY",
              "bassOn": false,
              "noteLowLimit": 36,
              "noteHighLimit": 96,
              "chordRootUpperLimit": 127,
              "rtr": "PITCH_SHIFT"
            }
          },
          "notes": [
            {
              "pitch": 59,
              "velocity": 22,
              "position": 8.0,
              "duration": 15.883333
            },
            {
              "pitch": 64,
              "velocity": 23,
              "position": 8.0,
              "duration": 15.866667
            }
          ]
        }
      }
    },
    "Main_A": {
      "type": "Main_A",
      "sizeInBeats": 16,
      "channels": {
        "9": {
          "ctab": {
            "srcChannel": 9,
            "name": "Drums",
            "accType": "RHYTHM",
            "editable": false,
            "mutedNotes": [],
            "mutedChords": [],
            "sourceChordNote": 0,
            "sourceChordType": "Maj",
            "ctb2Main": {
              "ntr": "ROOT_FIXED",
              "ntt": "BYPASS",
              "bassOn": false,
              "noteLowLimit": 20,
              "noteHighLimit": 127,
              "chordRootUpperLimit": 127,
              "rtr": "RETRIGGER"
            }
          },
          "notes": [
            {
              "pitch": 35,
              "velocity": 80,
              "position": 0.0,
              "duration": 0.208333
            },
            {
              "pitch": 49,
              "velocity": 92,
              "position": 0.0,
              "duration": 0.208333
            },
            {
              "pitch": 56,
              "velocity": 70,
              "position": 0.0,
              "duration": 0.208333
            },
            {
              "pitch": 63,
              "velocity": 80,
              "position": 0.0,
              "duration": 0.208333
            },
            {
              "pitch": 69,
              "velocity": 80,
              "position": 0.0,
              "duration": 0.208333
            },
            {
              "pitch": 35,
              "velocity": 60,
              "position": 0.25,
              "duration": 0.208333
            },
            {
              "pitch": 42,
              "velocity": 92,
              "position": 0.25,
              "duration": 0.208333
            },
            {
              "pitch": 62,
              "velocity": 60,
              "position": 0.25,
              "duration": 0.208333
            },
            {
              "pitch": 69,
              "velocity": 60,
              "position": 0.25,
              "duration": 0.208333
            },
            {
              "pitch": 42,
              "velocity": 60,
              "position": 0.5,
              "duration": 0.208333
            },
            {
              "pitch": 63,
              "velocity": 50,
              "position": 0.5,
              "duration": 0.208333
            },
            {
              "pitch": 70,
              "velocity": 70,
              "position": 0.5,
              "duration": 0.208333
            },
            {
              "pitch": 42,
              "velocity": 40,
              "position": 0.75,
              "duration": 0.208333
            },
            {
              "pitch": 63,
              "velocity": 40,
              "position": 0.75,
              "duration": 0.208333
            },
            {
              "pitch": 38,
              "velocity": 80,
              "position": 1.0,
              "duration": 0.208333
            },
            {
              "pitch": 39,
              "velocity": 92,
              "position": 1.0,
              "duration": 0.208333
            },
            {
              "pitch": 42,
              "velocity": 80,
              "position": 1.0,
              "duration": 0.208333
            },
            {
              "pitch": 54,
              "velocity": 92,
              "position": 1.0,
              "duration": 0.208333
            },
            {
              "pitch": 56,
              "velocity": 70,
              "position": 1.0,
              "duration": 0.208333
            },
            {
              "pitch": 62,
              "velocity": 80,
              "position": 1.0,
              "duration": 0.208333
            },
            {
              "pitch": 69,
              "velocity": 80,
              "position": 1.0,
              "duration": 0.208333
            },
            {
              "pitch": 42,
              "velocity": 40,
              "position": 1.25,
              "duration": 0.208333
            },
            {
              "pitch": 63,
              "velocity": 60,
              "position": 1.25,
              "duration": 0.208333
            },
            {
              "pitch": 69,
              "velocity": 50,
              "position": 1.25,
              "duration": 0.208333
            },
            {
              "pitch": 42,
              "velocity": 60,
              "position": 1.5,
              "duration": 0.208333
            },
            {
              "pitch": 63,
              "velocity": 50,
              "position": 1.5,
              "duration": 0.208333
            },
            {
              "pitch": 70,
              "velocity": 70,
              "position": 1.5,
              "duration": 0.208333
            },
            {
              "pitch": 35,
              "velocity": 80,
              "position": 1.75,
              "duration": 0.208333
            },
            {
              "pitch": 42,
              "velocity": 50,
              "position": 1.75,
              "duration": 0.208333
            },
            {
              "pitch": 63,
              "velocity": 40,
              "position": 1.75,
              "duration": 0.208333
            },
            {
              "pitch": 42,
              "velocity": 70,
              "position": 2.0,
              "duration": 0.208333
            },
            {
              "pitch": 56,
              "velocity": 70,
              "position": 2.0,
              "duration": 0.208333
            },
            {
              "pitch": 63,
              "velocity": 40,
              "position": 2.0,
              "duration": 0.208333
            },
            {
              "pitch": 69,
              "velocity": 70,
              "position": 2.0,
              "duration": 0.208333
            },
            {
              "pitch": 35,
              "velocity": 70,
              "position": 2.25,
              "duration": 0.208333
            },
            {
              "pitch": 42,
              "velocity": 80,
              "position": 2.25,
              "duration": 0.208333
            },
            {
              "pitch": 62,
              "velocity": 80,
              "position": 2.25,
              "duration": 0.208333
            },
            {
              "pitch": 69,
              "velocity": 50,
              "position": 2.25,
              "duration": 0.208333
            },
            {
              "pitch": 35,
              "velocity": 60,
              "position": 2.5,
              "duration": 0.208333
            },
            {
              "pitch": 42,
              "velocity": 50,
              "position": 2.5,
              "duration": 0.208333
            },
            {
              "pitch": 63,
              "velocity": 60,
              "position": 2.5,
              "duration": 0.208333
            },
            {
              "pitch": 70,
              "velocity": 60,
              "position": 2.5,
              "duration": 0.208333
            },
            {
              "pitch": 42,
              "velocity": 60,
              "position": 2.75,
              "duration": 0.208333
            },
            {
              "pitch": 63,
              "velocity": 40,
              "position": 2.75,
              "duration": 0.208333
            },
            {
              "pitch": 38,
              "velocity": 40,
              "position": 2.875,
              "duration": 0.125
            },
            {
              "pitch": 38,
              "velocity": 80,
              "position": 3.0,
              "duration": 0.083333
            },
            {
              "pitch": 39,
              "velocity": 92,
              "position": 3.0,
              "duration": 0.208333
            },
            {
              "pitch": 42,
              "velocity": 70,
              "position": 3.0,
              "duration": 0.208333
            },
            {
              "pitch": 54,
              "velocity": 92,
              "position": 3.0,
              "duration": 0.208333
            },
            {
              "pitch": 56,
              "velocity": 70,
              "position": 3.0,
              "duration": 0.208333
            },
            {
              "pitch": 63,
              "velocity": 80,
              "position": 3.0,
              "duration": 0.208333
            },
            {
              "pitch": 69,
              "velocity": 80,
              "position": 3.0,
              "duration": 0.208333
            },
            {
              "pitch": 42,
              "velocity": 50,
              "position": 3.25,
              "duration": 0.208333
            },
            {
              "pitch": 62,
              "velocity": 80,
              "position": 3.25,
              "duration": 0.208333
            },
            {
              "pitch": 69,
              "velocity": 50,
              "position": 3.25,
              "duration": 0.208333
            },
            {
              "pitch": 46,
              "velocity": 70,
              "position": 3.5,
              "duration": 0.208333
            },
            {
              "pitch": 62,
              "velocity": 60,
              "position": 3.5,
              "duration": 0.208333
            },
            {
              "pitch": 70,
              "velocity": 70,
              "position": 3.5,
              "duration": 0.208333
            },
            {
              "pitch": 63,
              "velocity": 40,
              "position": 3.75,
              "duration": 0.208333
            },
            {
              "pitch": 35,
              "velocity": 80,
              "position": 4.0,
              "duration": 0.208333
            },
            {
              "pitch": 42,
              "velocity": 80,
              "position": 4.0,
              "duration": 0.208333
            },
            {
              "pitch": 56,
              "velocity": 70,
              "position": 4.0,
              "duration": 0.208333
            },
            {
              "pitch": 63,
              "velocity": 80,
              "position": 4.0,
              "duration": 0.208333
            },
            {
              "pitch": 69,
              "velocity": 80,
              "position": 4.0,
              "duration": 0.208333
            },
            {
              "pitch": 35,
              "velocity": 60,
              "position": 4.25,
              "duration": 0.208333
            },
            {
              "pitch": 42,
              "velocity": 50,
              "position": 4.25,
              "duration": 0.208333
            },
            {
              "pitch": 62,
              "velocity": 60,
              "position": 4.25,
              "duration": 0.208333
            },
            {
              "pitch": 69,
              "velocity": 60,
              "position": 4.25,
              "duration": 0.208333
            },
            {
              "pitch": 42,
              "velocity": 60,
              "position": 4.5,
              "duration": 0.208333
            },
            {
              "pitch": 63,
              "velocity": 50,
              "position": 4.5,
              "duration": 0.208333
            },
            {
              "pitch": 70,
              "velocity": 70,
              "position": 4.5,
              "duration": 0.208333
            },
            {
              "pitch": 42,
              "velocity": 40,
              "position": 4.75,
              "duration": 0.208333
            },
            {
              "pitch": 63,
              "velocity": 40,
              "position": 4.75,
              "duration": 0.208333
            },
            {
              "pitch": 38,
              "velocity": 80,
              "position": 5.0,
              "duration": 0.208333
            },
            {
              "pitch": 39,
              "velocity": 92,
              "position": 5.0,
              "duration": 0.208333
            },
            {
              "pitch": 42,
              "velocity": 80,
              "position": 5.0,
              "duration": 0.208333
            },
            {
              "pitch": 54,
              "velocity": 92,
              "position": 5.0,
              "duration": 0.208333
            },
            {
              "pitch": 56,
              "velocity": 70,
              "position": 5.0,
              "duration": 0.208333
            },
            {
              "pitch": 62,
              "velocity": 80,
              "position": 5.0,
              "duration": 0.208333
            },
            {
              "pitch": 69,
              "velocity": 80,
              "position": 5.0,
              "duration": 0.208333
            },
            {
              "pitch": 42,
              "velocity": 40,
              "position": 5.25,
              "duration": 0.208333
            },
            {
              "pitch": 63,
              "velocity": 60,
              "position": 5.25,
              "duration": 0.208333
            },
            {
              "pitch": 69,
              "velocity": 50,
              "position": 5.25,
              "duration": 0.208333
            },
            {
              "pitch": 42,
              "velocity": 60,
              "position": 5.5,
              "duration": 0.208333
            },
            {
              "pitch": 63,
              "velocity": 50,
              "position": 5.5,
              "duration": 0.208333
            },
            {
              "pitch": 70,
              "velocity": 70,
              "position": 5.5,
              "duration": 0.208333
            },
            {
              "pitch": 35,
              "velocity": 80,
              "position": 5.75,
              "duration": 0.208333
            },
            {
              "pitch": 42,
              "velocity": 50,
              "position": 5.75,
              "duration": 0.208333
            },
            {
              "pitch": 63,
              "velocity": 40,
              "position": 5.75,
              "duration": 0.208333
            },
            {
              "pitch": 42,
              "velocity": 70,
              "position": 6.0,
              "duration": 0.208333
            },
            {
              "pitch": 56,
              "velocity": 70,
              "position": 6.0,
              "duration": 0.208333
            },
            {
              "pitch": 63,
              "velocity": 40,
              "position": 6.0,
              "duration": 0.208333
            },
            {
              "pitch": 69,
              "velocity": 70,
              "position": 6.0,
              "duration": 0.208333
            },
            {
              "pitch": 35,
              "velocity": 70,
              "position": 6.25,
              "duration": 0.208333
            },
            {
              "pitch": 42,
              "velocity": 80,
              "position": 6.25,
              "duration": 0.208333
            },
            {
              "pitch": 62,
              "velocity": 80,
              "position": 6.25,
              "duration": 0.208333
            },
            {
              "pitch": 69,
              "velocity": 50,
              "position": 6.25,
              "duration": 0.208333
            },
            {
              "pitch": 35,
              "velocity": 60,
              "position": 6.5,
              "duration": 0.208333
            },
            {
              "pitch": 42,
              "velocity": 50,
              "position": 6.5,
              "duration": 0.208333
            },
            {
              "pitch": 63,
              "velocity": 60,
              "position": 6.5,
              "duration": 0.208333
            },
            {
              "pitch": 70,
              "velocity": 60,
              "position": 6.5,
              "duration": 0.208333
            },
            {
              "pitch": 42,
              "velocity": 60,
              "position": 6.75,
              "duration": 0.208333
            },
            {
              "pitch": 63,
              "velocity": 40,
              "position": 6.75,
              "duration": 0.208333
            },
            {
              "pitch": 38,
              "velocity": 40,
              "position": 6.875,
              "duration": 0.125
            },
            {
              "pitch": 38,
              "velocity": 80,
              "position": 7.0,
              "duration": 0.083333
            },
            {
              "pitch": 39,
              "velocity": 92,
              "position": 7.0,
              "duration": 0.208333
            },
            {
              "pitch": 42,
              "velocity": 70,
              "position": 7.0,
              "duration": 0.208333
            },
            {
              "pitch": 54,
              "velocity": 92,
              "position": 7.0,
              "duration": 0.208333
            },
            {
              "pitch": 56,
              "velocity": 70,
              "position": 7.0,
              "duration": 0.208333
            },
            {
              "pitch": 63,
              "velocity": 80,
              "position": 7.0,
              "duration": 0.208333
            },
            {
              "pitch": 69,
              "velocity": 80,
              "position": 7.0,
              "duration": 0.208333
            },
            {
              "pitch": 42,
              "velocity": 50,
              "position": 7.25,
              "duration": 0.208333
            },
            {
              "pitch": 62,
              "velocity": 80,
              "position": 7.25,
              "duration": 0.208333
            },
            {
              "pitch": 69,
              "velocity": 50,
              "position": 7.25,
              "duration": 0.208333
            },
            {
              "pitch": 46,
              "velocity": 70,
              "position": 7.5,
              "duration": 0.208333
            },
            {
              "pitch": 62,
              "velocity": 60,
              "position": 7.5,
              "duration": 0.208333
            },
            {
              "pitch": 70,
              "velocity": 70,
              "position": 7.5,
              "duration": 0.208333
            },
            {
              "pitch": 63,
              "velocity": 40,
              "position": 7.75,
              "duration": 0.208333
            },
            {
              "pitch": 35,
              "velocity": 80,
              "position": 8.0,
              "duration": 0.208333
            },
            {
              "pitch": 42,
              "velocity": 80,
              "position": 8.0,
              "duration": 0.208333
            },
            {
              "pitch": 56,
              "velocity": 70,
              "position": 8.0,
              "duration": 0.208333
            },
            {
              "pitch": 63,
              "velocity": 80,
              "position": 8.0,
              "duration": 0.208333
            },
            {
              "pitch": 69,
              "velocity": 80,
              "position": 8.0,
              "duration": 0.208333
            },
            {
              "pitch": 35,
              "velocity": 60,
              "position": 8.25,
              "duration": 0.208333
            },
            {
              "pitch": 42,
              "velocity": 50,
              "position": 8.25,
              "duration": 0.208333
            },
            {
              "pitch": 62,
              "velocity": 60,
              "position": 8.25,
              "duration": 0.208333
            },
            {
              "pitch": 69,
              "velocity": 60,
              "position": 8.25,
              "duration": 0.208333
            },
            {
              "pitch": 42,
              "velocity": 60,
              "position": 8.5,
              "duration": 0.208333
            },
            {
              "pitch": 63,
              "velocity": 50,
              "position": 8.5,
              "duration": 0.208333
            },
            {
              "pitch": 70,
              "velocity": 70,
              "position": 8.5,
              "duration": 0.208333
            },
            {
              "pitch": 42,
              "velocity": 40,
              "position": 8.75,
              "duration": 0.208333
            },
            {
              "pitch": 63,
              "velocity": 40,
              "position": 8.75,
              "duration": 0.208333
            },
            {
              "pitch": 38,
              "velocity": 80,
              "position": 9.0,
              "duration": 0.208333
            },
            {
              "pitch": 39,
              "velocity": 92,
              "position": 9.0,
              "duration": 0.208333
            },
            {
              "pitch": 42,
              "velocity": 80,
              "position": 9.0,
              "duration": 0.208333
            },
            {
              "pitch": 54,
              "velocity": 92,
              "position": 9.0,
              "duration": 0.208333
            },
            {
              "pitch": 56,
              "velocity": 70,
              "position": 9.0,
              "duration": 0.208333
            },
            {
              "pitch": 62,
              "velocity": 80,
              "position": 9.0,
              "duration": 0.208333
            },
            {
              "pitch": 69,
              "velocity": 80,
              "position": 9.0,
              "duration": 0.208333
            },
            {
              "pitch": 42,
              "velocity": 40,
              "position": 9.25,
              "duration": 0.208333
            },
            {
              "pitch": 63,
              "velocity": 60,
              "position": 9.25,
              "duration": 0.208333
            },
            {
              "pitch": 69,
              "velocity": 50,
              "position": 9.25,
              "duration": 0.208333
            },
            {
              "pitch": 42,
              "velocity": 60,
              "position": 9.5,
              "duration": 0.208333
            },
            {
              "pitch": 63,
              "velocity": 50,
              "position": 9.5,
              "duration": 0.208333
            },
            {
              "pitch": 70,
              "velocity": 70,
              "position": 9.5,
              "duration": 0.208333
            },
            {
              "pitch": 35,
              "velocity": 80,
              "position": 9.75,
              "duration": 0.208333
            },
            {
              "pitch": 42,
              "velocity": 50,
              "position": 9.75,
              "duration": 0.208333
            },
            {
              "pitch": 63,
              "velocity": 40,
              "position": 9.75,
              "duration": 0.208333
            },
            {
              "pitch": 42,
              "velocity": 70,
              "position": 10.0,
              "duration": 0.208333
            },
            {
              "pitch": 56,
              "velocity": 70,
              "position": 10.0,
              "duration": 0.208333
            },
            {
              "pitch": 63,
              "velocity": 40,
              "position": 10.0,
              "duration": 0.208333
            },
            {
              "pitch": 69,
              "velocity": 70,
              "position": 10.0,
              "duration": 0.208333
            },
            {
              "pitch": 35,
              "velocity": 70,
              "position": 10.25,
              "duration": 0.208333
            },
            {
              "pitch": 42,
              "velocity": 80,
              "position": 10.25,
              "duration": 0.208333
            },
            {
              "pitch": 62,
              "velocity": 80,
              "position": 10.25,
              "duration": 0.208333
            },
            {
              "pitch": 69,
              "velocity": 50,
              "position": 10.25,
              "duration": 0.208333
            },
            {
              "pitch": 35,
              "velocity": 60,
              "position": 10.5,
              "duration": 0.208333
            },
            {
              "pitch": 42,
              "velocity": 50,
              "position": 10.5,
              "duration": 0.208333
            },
            {
              "pitch": 63,
              "velocity": 60,
              "position": 10.5,
              "duration": 0.208333
            },
            {
              "pitch": 70,
              "velocity": 60,
              "position": 10.5,
              "duration": 0.208333
            },
            {
              "pitch": 42,
              "velocity": 60,
              "position": 10.75,
              "duration": 0.208333
            },
            {
              "pitch": 63,
              "velocity": 40,
              "position": 10.75,
              "duration": 0.208333
            },
            {
              "pitch": 38,
              "velocity": 40,
              "position": 10.875,
              "duration": 0.125
            },
            {
              "pitch": 38,
              "velocity": 80,
              "position": 11.0,
              "duration": 0.083333
            },
            {
              "pitch": 39,
              "velocity": 92,
              "position": 11.0,
              "duration": 0.208333
            },
            {
              "pitch": 42,
              "velocity": 70,
              "position": 11.0,
              "duration": 0.208333
            },
            {
              "pitch": 54,
              "velocity": 92,
              "position": 11.0,
              "duration": 0.208333
            },
            {
              "pitch": 56,
              "velocity": 70,
              "position": 11.0,
              "duration": 0.208333
            },
            {
              "pitch": 63,
              "velocity": 80,
              "position": 11.0,
              "duration": 0.208333
            },
            {
              "pitch": 69,
              "velocity": 80,
              "position": 11.0,
              "duration": 0.208333
            },
            {
              "pitch": 42,
              "velocity": 50,
              "position": 11.25,
              "duration": 0.208333
            },
            {
              "pitch": 62,
              "velocity": 80,
              "position": 11.25,
              "duration": 0.208333
            },
            {
              "pitch": 69,
              "velocity": 50,
              "position": 11.25,
              "duration": 0.208333
            },
            {
              "pitch": 46,
              "velocity": 70,
              "position": 11.5,
              "duration": 0.208333
            },
            {
              "pitch": 62,
              "velocity": 60,
              "position": 11.5,
              "duration": 0.208333
            },
            {
              "pitch": 70,
              "velocity": 70,
              "position": 11.5,
              "duration": 0.208333
            },
            {
              "pitch": 63,
              "velocity": 40,
              "position": 11.75,
              "duration": 0.208333
            },
            {
              "pitch": 35,
              "velocity": 70,
              "position": 12.0,
              "duration": 0.208333
            },
            {
              "pitch": 42,
              "velocity": 60,
              "position": 12.0,
              "duration": 0.208333
            },
            {
              "pitch": 56,
              "velocity": 70,
              "position": 12.0,
              "duration": 0.208333
            },
            {
              "pitch": 69,
              "velocity": 80,
              "position": 12.0,
              "duration": 0.208333
            },
            {
              "pitch": 38,
              "velocity": 92,
              "position": 12.25,
              "duration": 0.208333
            },
            {
              "pitch": 62,
              "velocity": 60,
              "position": 12.25,
              "duration": 0.208333
            },
            {
              "pitch": 69,
              "velocity": 60,
              "position": 12.25,
              "duration": 0.208333
            },
            {
              "pitch": 38,
              "velocity": 50,
              "position": 12.5,
              "duration": 0.125
            },
            {
              "pitch": 46,
              "velocity": 80,
              "position": 12.5,
              "duration": 0.208333
            },
            {
              "pitch": 63,
              "velocity": 50,
              "position": 12.5,
              "duration": 0.208333
            },
            {
              "pitch": 70,
              "velocity": 70,
              "position": 12.5,
              "duration": 0.208333
            },
            {
              "pitch": 38,
              "velocity": 40,
              "position": 12.625,
              "duration": 0.083333
            },
            {
              "pitch": 35,
              "velocity": 92,
              "position": 12.75,
              "duration": 0.208333
            },
            {
              "pitch": 63,
              "velocity": 50,
              "position": 12.75,
              "duration": 0.208333
            },
            {
              "pitch": 38,
              "velocity": 92,
              "position": 13.0,
              "duration": 0.208333
            },
            {
              "pitch": 39,
              "velocity": 92,
              "position": 13.0,
              "duration": 0.208333
            },
            {
              "pitch": 54,
              "velocity": 92,
              "position": 13.0,
              "duration": 0.208333
            },
            {
              "pitch": 56,
              "velocity": 70,
              "position": 13.0,
              "duration": 0.208333
            },
            {
              "pitch": 62,
              "velocity": 80,
              "position": 13.0,
              "duration": 0.208333
            },
            {
              "pitch": 69,
              "velocity": 80,
              "position": 13.0,
              "duration": 0.208333
            },
            {
              "pitch": 35,
              "velocity": 70,
              "position": 13.25,
              "duration": 0.208333
            },
            {
              "pitch": 63,
              "velocity": 70,
              "position": 13.25,
              "duration": 0.208333
            },
            {
              "pitch": 69,
              "velocity": 50,
              "position": 13.25,
              "duration": 0.208333
            },
            {
              "pitch": 46,
              "velocity": 80,
              "position": 13.5,
              "duration": 0.208333
            },
            {
              "pitch": 70,
              "velocity": 70,
              "position": 13.5,
              "duration": 0.208333
            },
            {
              "pitch": 38,
              "velocity": 48,
              "position": 13.625,
              "duration": 0.125
            },
            {
              "pitch": 35,
              "velocity": 60,
              "position": 13.75,
              "duration": 0.208333
            },
            {
              "pitch": 38,
              "velocity": 50,
              "position": 13.75,
              "duration": 0.083333
            },
            {
              "pitch": 63,
              "velocity": 80,
              "position": 13.75,
              "duration": 0.208333
            },
            {
              "pitch": 35,
              "velocity": 92,
              "position": 14.0,
              "duration": 0.208333
            },
            {
              "pitch": 56,
              "velocity": 70,
              "position": 14.0,
              "duration": 0.208333
            },
            {
              "pitch": 62,
              "velocity": 50,
              "position": 14.0,
              "duration": 0.208333
            },
            {
              "pitch": 69,
              "velocity": 70,
              "position": 14.0,
              "duration": 0.208333
            },
            {
              "pitch": 35,
              "velocity": 70,
              "position": 14.25,
              "duration": 0.208333
            },
            {
              "pitch": 45,
              "velocity": 90,
              "position": 14.25,
              "duration": 0.208333
            },
            {
              "pitch": 63,
              "velocity": 80,
              "position": 14.25,
              "duration": 0.208333
            },
            {
              "pitch": 69,
              "velocity": 50,
              "position": 14.25,
              "duration": 0.208333
            },
            {
              "pitch": 38,
              "velocity": 90,
              "position": 14.5,
              "duration": 0.208333
            },
            {
              "pitch": 46,
              "velocity": 80,
              "position": 14.5,
              "duration": 0.208333
            },
            {
              "pitch": 63,
              "velocity": 50,
              "position": 14.5,
              "duration": 0.208333
            },
            {
              "pitch": 70,
              "velocity": 60,
              "position": 14.5,
              "duration": 0.208333
            },
            {
              "pitch": 35,
              "velocity": 60,
              "position": 14.75,
              "duration": 0.208333
            },
            {
              "pitch": 63,
              "velocity": 40,
              "position": 14.75,
              "duration": 0.208333
            },
            {
              "pitch": 38,
              "velocity": 80,
              "position": 15.0,
              "duration": 0.208333
            },
            {
              "pitch": 39,
              "velocity": 92,
              "position": 15.0,
              "duration": 0.208333
            },
            {
              "pitch": 54,
              "velocity": 92,
              "position": 15.0,
              "duration": 0.208333
            },
            {
              "pitch": 56,
              "velocity": 80,
              "position": 15.0,
              "duration": 0.208333
            },
            {
              "pitch": 62,
              "velocity": 90,
              "position": 15.0,
              "duration": 0.208333
            },
            {
              "pitch": 69,
              "velocity": 80,
              "position": 15.0,
              "duration": 0.208333
            },
            {
              "pitch": 35,
              "velocity": 60,
              "position": 15.25,
              "duration": 0.208333
            },
            {
              "pitch": 48,
              "velocity": 90,
              "position": 15.25,
              "duration": 0.208333
            },
            {
              "pitch": 63,
              "velocity": 50,
              "position": 15.25,
              "duration": 0.208333
            },
            {
              "pitch": 69,
              "velocity": 50,
              "position": 15.25,
              "duration": 0.208333
            },
            {
              "pitch": 35,
              "velocity": 92,
              "position": 15.5,
              "duration": 0.208333
            },
            {
              "pitch": 41,
              "velocity": 92,
              "position": 15.5,
              "duration": 0.208333
            },
            {
              "pitch": 46,
              "velocity": 80,
              "position": 15.5,
              "duration": 0.208333
            },
            {
              "pitch": 63,
              "velocity": 60,
              "position": 15.5,
              "duration": 0.208333
            },
            {
              "pitch": 70,
              "velocity": 70,
              "position": 15.5,
              "duration": 0.208333
            },
            {
              "pitch": 63,
              "velocity": 50,
              "position": 15.75,
              "duration": 0.125
            },
            {
              "pitch": 63,
              "velocity": 40,
              "position": 15.875,
              "duration": 0.083333
            }
          ]
        },
        "10": {
          "ctab": {
            "srcChannel": 10,
            "name": "Bass",
            "accType": "BASS",
            "editable": true,
            "mutedNotes": [],
            "mutedChords": [],
            "sourceChordNote": 0,
            "sourceChordType": "Maj7",
            "ctb2Main": {
              "ntr": "ROOT_TRANSPOSITION",
              "ntt": "BYPASS",
              "bassOn": true,
              "noteLowLimit": 20,
              "noteHighLimit": 60,
              "chordRootUpperLimit": 127,
              "rtr": "NOTE_GENERATOR"
            }
          },
          "notes": [
            {
              "pitch": 36,
              "velocity": 79,
              "position": 0.0,
              "duration": 1.633333
            },
            {
              "pitch": 36,
              "velocity": 79,
              "position": 1.75,
              "duration": 0.083333
            },
            {
              "pitch": 36,
              "velocity": 76,
              "position": 2.0,
              "duration": 0.158333
            },
            {
              "pitch": 36,
              "velocity": 83,
              "position": 2.5,
              "duration": 0.683333
            },
            {
              "pitch": 36,
              "velocity": 75,
              "position": 3.25,
              "duration": 0.1
            },
            {
              "pitch": 36,
              "velocity": 83,
              "position": 3.5,
              "duration": 0.291667
            },
            {
              "pitch": 36,
              "velocity": 65,
              "position": 4.008333,
              "duration": 0.3
            },
            {
              "pitch": 36,
              "velocity": 71,
              "position": 4.5,
              "duration": 1.0
            },
            {
              "pitch": 36,
              "velocity": 76,
              "position": 5.75,
              "duration": 0.391667
            },
            {
              "pitch": 36,
              "velocity": 83,
              "position": 6.5,
              "duration": 0.683333
            },
            {
              "pitch": 31,
              "velocity": 75,
              "position": 7.25,
              "duration": 0.1
            },
            {
              "pitch": 35,
              "velocity": 83,
              "position": 7.5,
              "duration": 0.291667
            },
            {
              "pitch": 36,
              "velocity": 83,
              "position": 8.0,
              "duration": 1.675
            },
            {
              "pitch": 43,
              "velocity": 76,
              "position": 9.75,
              "duration": 0.166667
            },
            {
              "pitch": 36,
              "velocity": 73,
              "position": 10.0,
              "duration": 0.133333
            },
            {
              "pitch": 36,
              "velocity": 83,
              "position": 10.5,
              "duration": 2.191667
            },
            {
              "pitch": 36,
              "velocity": 82,
              "position": 13.0,
              "duration": 0.716667
            },
            {
              "pitch": 31,
              "velocity": 75,
              "position": 13.75,
              "duration": 0.183333
            },
            {
              "pitch": 36,
              "velocity": 74,
              "position": 14.0,
              "duration": 0.125
            },
            {
              "pitch": 36,
              "velocity": 87,
              "position": 14.5,
              "duration": 0.608333
            },
            {
              "pitch": 36,
              "velocity": 89,
              "position": 15.25,
              "duration": 0.108333
            },
            {
              "pitch": 36,
              "velocity": 74,
              "position": 15.5,
              "duration": 0.325
            }
          ]
        },
        "11": {
          "ctab": {
            "srcChannel": 11,
            "name": "Piano",
            "accType": "CHORD1",
            "editable": true,
            "mutedNotes": [],
            "mutedChords": [],
            "sourceChordNote": 0,
            "sourceChordType": "Maj7",
            "ctb2Main": {
              "ntr": "ROOT_FIXED",
              "ntt": "CHORD",
              "bassOn": false,
              "noteLowLimit": 48,
              "noteHighLimit": 84,
              "chordRootUpperLimit": 127,
              "rtr": "NOTE_GENERATOR"
            }
          },
          "notes": [
            {
              "pitch": 48,
              "velocity": 70,
              "position": 0.008333,
              "duration": 1.658333
            },
            {
              "pitch": 64,
              "velocity": 55,
              "position": 0.016667,
              "duration": 0.383333
            },
            {
              "pitch": 67,
              "velocity": 70,
              "position": 0.016667,
              "duration": 0.383333
            },
            {
              "pitch": 71,
              "velocity": 73,
              "position": 0.483333,
              "duration": 1.183333
            },
            {
              "pitch": 59,
              "velocity": 53,
              "position": 0.5,
              "duration": 1.166667
            },
            {
              "pitch": 48,
              "velocity": 70,
              "position": 1.758333,
              "duration": 2.175
            },
            {
              "pitch": 59,
              "velocity": 53,
              "position": 1.766667,
              "duration": 2.175
            },
            {
              "pitch": 64,
              "velocity": 55,
              "position": 1.766667,
              "duration": 2.15
            },
            {
              "pitch": 67,
              "velocity": 70,
              "position": 1.766667,
              "duration": 2.166667
            },
            {
              "pitch": 71,
              "velocity": 73,
              "position": 1.783333,
              "duration": 2.166667
            },
            {
              "pitch": 48,
              "velocity": 69,
              "position": 4.008333,
              "duration": 1.658333
            },
            {
              "pitch": 64,
              "velocity": 54,
              "position": 4.016667,
              "duration": 1.65
            },
            {
              "pitch": 67,
              "velocity": 69,
              "position": 4.016667,
              "duration": 1.65
            },
            {
              "pitch": 55,
              "velocity": 56,
              "position": 4.5,
              "duration": 1.166667
            },
            {
              "pitch": 71,
              "velocity": 72,
              "position": 4.991667,
              "duration": 0.675
            },
            {
              "pitch": 59,
              "velocity": 37,
              "position": 5.758333,
              "duration": 1.116667
            },
            {
              "pitch": 64,
              "velocity": 66,
              "position": 5.758333,
              "duration": 1.091667
            },
            {
              "pitch": 67,
              "velocity": 69,
              "position": 5.758333,
              "duration": 2.183333
            },
            {
              "pitch": 48,
              "velocity": 60,
              "position": 5.775,
              "duration": 2.15
            },
            {
              "pitch": 55,
              "velocity": 71,
              "position": 6.758333,
              "duration": 1.2
            },
            {
              "pitch": 64,
              "velocity": 81,
              "position": 7.033333,
              "duration": 0.875
            },
            {
              "pitch": 48,
              "velocity": 62,
              "position": 8.0,
              "duration": 0.241667
            },
            {
              "pitch": 55,
              "velocity": 53,
              "position": 8.0,
              "duration": 0.241667
            },
            {
              "pitch": 59,
              "velocity": 50,
              "position": 8.0,
              "duration": 0.25
            },
            {
              "pitch": 64,
              "velocity": 79,
              "position": 8.0,
              "duration": 0.241667
            },
            {
              "pitch": 67,
              "velocity": 62,
              "position": 8.0,
              "duration": 0.25
            },
            {
              "pitch": 48,
              "velocity": 62,
              "position": 8.5,
              "duration": 7.175
            },
            {
              "pitch": 55,
              "velocity": 67,
              "position": 8.5,
              "duration": 2.716667
            },
            {
              "pitch": 59,
              "velocity": 51,
              "position": 8.5,
              "duration": 2.808333
            },
            {
              "pitch": 64,
              "velocity": 87,
              "position": 8.5,
              "duration": 3.1
            },
            {
              "pitch": 67,
              "velocity": 62,
              "position": 8.5,
              "duration": 4.691667
            },
            {
              "pitch": 55,
              "velocity": 87,
              "position": 11.308333,
              "duration": 2.225
            },
            {
              "pitch": 59,
              "velocity": 53,
              "position": 11.5,
              "duration": 1.733333
            },
            {
              "pitch": 64,
              "velocity": 61,
              "position": 12.0,
              "duration": 1.216667
            },
            {
              "pitch": 55,
              "velocity": 66,
              "position": 13.75,
              "duration": 1.825
            },
            {
              "pitch": 71,
              "velocity": 78,
              "position": 14.0,
              "duration": 1.708333
            },
            {
              "pitch": 67,
              "velocity": 56,
              "position": 14.5,
              "duration": 1.175
            },
            {
              "pitch": 64,
              "velocity": 59,
              "position": 15.0,
              "duration": 0.675
            }
          ]
        },
        "12": {
          "ctab": {
            "srcChannel": 12,
            "name": "Guitar",
            "accType": "CHORD2",
            "editable": true,
            "mutedNotes": [],
            "mutedChords": [],
            "sourceChordNote": 0,
            "sourceChordType": "Maj7",
            "ctb2Main": {
              "ntr": "ROOT_FIXED",
              "ntt": "CHORD",
              "bassOn": false,
              "noteLowLimit": 40,
              "noteHighLimit": 76,
              "chordRootUpperLimit": 127,
              "rtr": "NOTE_GENERATOR"
            }
          },
          "notes": [
            {
              "pitch": 64,
              "velocity": 54,
              "position": 0.0,
              "duration": 0.116667
            },
            {
              "pitch": 67,
              "velocity": 54,
              "position": 0.008333,
              "duration": 0.108333
            },
            {
              "pitch": 67,
              "velocity": 38,
              "position": 0.725,
              "duration": 0.166667
            },
            {
              "pitch": 64,
              "velocity": 44,
              "position": 0.741667,
              "duration": 0.15
            },
            {
              "pitch": 59,
              "velocity": 44,
              "position": 0.75,
              "duration": 0.141667
            },
            {
              "pitch": 55,
              "velocity": 38,
              "position": 0.758333,
              "duration": 0.133333
            },
            {
              "pitch": 67,
              "velocity": 40,
              "position": 2.225,
              "duration": 0.141667
            },
            {
              "pitch": 64,
              "velocity": 46,
              "position": 2.241667,
              "duration": 0.125
            },
            {
              "pitch": 59,
              "velocity": 46,
              "position": 2.25,
              "duration": 0.116667
            },
            {
              "pitch": 55,
              "velocity": 40,
              "position": 2.258333,
              "duration": 0.108333
            },
            {
              "pitch": 55,
              "velocity": 59,
              "position": 2.975,
              "duration": 0.258333
            },
            {
              "pitch": 59,
              "velocity": 59,
              "position": 2.991667,
              "duration": 0.241667
            },
            {
              "pitch": 64,
              "velocity": 59,
              "position": 3.0,
              "duration": 0.233333
            },
            {
              "pitch": 67,
              "velocity": 59,
              "position": 3.008333,
              "duration": 0.2
            },
            {
              "pitch": 67,
              "velocity": 31,
              "position": 3.225,
              "duration": 0.175
            },
            {
              "pitch": 64,
              "velocity": 36,
              "position": 3.241667,
              "duration": 0.158333
            },
            {
              "pitch": 59,
              "velocity": 36,
              "position": 3.25,
              "duration": 0.15
            },
            {
              "pitch": 55,
              "velocity": 31,
              "position": 3.258333,
              "duration": 0.141667
            },
            {
              "pitch": 67,
              "velocity": 37,
              "position": 4.725,
              "duration": 0.166667
            },
            {
              "pitch": 64,
              "velocity": 43,
              "position": 4.741667,
              "duration": 0.15
            },
            {
              "pitch": 59,
              "velocity": 43,
              "position": 4.75,
              "duration": 0.141667
            },
            {
              "pitch": 55,
              "velocity": 37,
              "position": 4.758333,
              "duration": 0.133333
            },
            {
              "pitch": 55,
              "velocity": 66,
              "position": 5.975,
              "duration": 0.233333
            },
            {
              "pitch": 59,
              "velocity": 66,
              "position": 5.991667,
              "duration": 0.216667
            },
            {
              "pitch": 64,
              "velocity": 66,
              "position": 6.0,
              "duration": 0.208333
            },
            {
              "pitch": 67,
              "velocity": 66,
              "position": 6.008333,
              "duration": 0.2
            },
            {
              "pitch": 67,
              "velocity": 28,
              "position": 6.225,
              "duration": 0.183333
            },
            {
              "pitch": 64,
              "velocity": 32,
              "position": 6.241667,
              "duration": 0.166667
            },
            {
              "pitch": 59,
              "velocity": 32,
              "position": 6.25,
              "duration": 0.158333
            },
            {
              "pitch": 55,
              "velocity": 28,
              "position": 6.258333,
              "duration": 0.15
            },
            {
              "pitch": 55,
              "velocity": 65,
              "position": 6.975,
              "duration": 0.25
            },
            {
              "pitch": 59,
              "velocity": 65,
              "position": 6.991667,
              "duration": 0.233333
            },
            {
              "pitch": 64,
              "velocity": 65,
              "position": 7.0,
              "duration": 0.225
            },
            {
              "pitch": 67,
              "velocity": 65,
              "position": 7.008333,
              "duration": 0.2
            },
            {
              "pitch": 67,
              "velocity": 36,
              "position": 7.225,
              "duration": 0.216667
            },
            {
              "pitch": 64,
              "velocity": 41,
              "position": 7.241667,
              "duration": 0.2
            },
            {
              "pitch": 59,
              "velocity": 41,
              "position": 7.25,
              "duration": 0.191667
            },
            {
              "pitch": 55,
              "velocity": 36,
              "position": 7.258333,
              "duration": 0.183333
            },
            {
              "pitch": 55,
              "velocity": 49,
              "position": 7.475,
              "duration": 0.175
            },
            {
              "pitch": 59,
              "velocity": 49,
              "position": 7.491667,
              "duration": 0.158333
            },
            {
              "pitch": 64,
              "velocity": 49,
              "position": 7.5,
              "duration": 0.15
            },
            {
              "pitch": 67,
              "velocity": 49,
              "position": 7.508333,
              "duration": 0.141667
            },
            {
              "pitch": 48,
              "velocity": 51,
              "position": 7.975,
              "duration": 0.158333
            },
            {
              "pitch": 55,
              "velocity": 60,
              "position": 7.983333,
              "duration": 0.15
            },
            {
              "pitch": 59,
              "velocity": 60,
              "position": 7.991667,
              "duration": 0.141667
            },
            {
              "pitch": 64,
              "velocity": 60,
              "position": 8.008333,
              "duration": 0.125
            },
            {
              "pitch": 67,
              "velocity": 60,
              "position": 8.016667,
              "duration": 0.116667
            },
            {
              "pitch": 67,
              "velocity": 40,
              "position": 8.725,
              "duration": 0.158333
            },
            {
              "pitch": 64,
              "velocity": 46,
              "position": 8.741667,
              "duration": 0.141667
            },
            {
              "pitch": 59,
              "velocity": 46,
              "position": 8.75,
              "duration": 0.133333
            },
            {
              "pitch": 55,
              "velocity": 40,
              "position": 8.758333,
              "duration": 0.125
            },
            {
              "pitch": 67,
              "velocity": 42,
              "position": 9.225,
              "duration": 0.191667
            },
            {
              "pitch": 64,
              "velocity": 48,
              "position": 9.241667,
              "duration": 0.175
            },
            {
              "pitch": 59,
              "velocity": 48,
              "position": 9.25,
              "duration": 0.166667
            },
            {
              "pitch": 55,
              "velocity": 42,
              "position": 9.258333,
              "duration": 0.158333
            },
            {
              "pitch": 48,
              "velocity": 44,
              "position": 9.475,
              "duration": 0.191667
            },
            {
              "pitch": 55,
              "velocity": 52,
              "position": 9.483333,
              "duration": 0.183333
            },
            {
              "pitch": 59,
              "velocity": 52,
              "position": 9.491667,
              "duration": 0.175
            },
            {
              "pitch": 64,
              "velocity": 52,
              "position": 9.508333,
              "duration": 0.158333
            },
            {
              "pitch": 67,
              "velocity": 52,
              "position": 9.516667,
              "duration": 0.15
            },
            {
              "pitch": 67,
              "velocity": 29,
              "position": 9.725,
              "duration": 0.208333
            },
            {
              "pitch": 64,
              "velocity": 33,
              "position": 9.741667,
              "duration": 0.191667
            },
            {
              "pitch": 59,
              "velocity": 33,
              "position": 9.75,
              "duration": 0.183333
            },
            {
              "pitch": 55,
              "velocity": 29,
              "position": 9.758333,
              "duration": 0.175
            },
            {
              "pitch": 48,
              "velocity": 54,
              "position": 9.975,
              "duration": 0.25
            },
            {
              "pitch": 55,
              "velocity": 64,
              "position": 9.983333,
              "duration": 0.241667
            },
            {
              "pitch": 59,
              "velocity": 64,
              "position": 9.991667,
              "duration": 0.233333
            },
            {
              "pitch": 64,
              "velocity": 64,
              "position": 10.008333,
              "duration": 0.216667
            },
            {
              "pitch": 67,
              "velocity": 64,
              "position": 10.016667,
              "duration": 0.191667
            },
            {
              "pitch": 67,
              "velocity": 28,
              "position": 10.225,
              "duration": 0.2
            },
            {
              "pitch": 64,
              "velocity": 32,
              "position": 10.241667,
              "duration": 0.183333
            },
            {
              "pitch": 59,
              "velocity": 32,
              "position": 10.25,
              "duration": 0.175
            },
            {
              "pitch": 55,
              "velocity": 28,
              "position": 10.258333,
              "duration": 0.166667
            },
            {
              "pitch": 48,
              "velocity": 53,
              "position": 10.475,
              "duration": 0.166667
            },
            {
              "pitch": 55,
              "velocity": 63,
              "position": 10.483333,
              "duration": 0.158333
            },
            {
              "pitch": 59,
              "velocity": 63,
              "position": 10.491667,
              "duration": 0.15
            },
            {
              "pitch": 64,
              "velocity": 63,
              "position": 10.508333,
              "duration": 0.133333
            },
            {
              "pitch": 67,
              "velocity": 63,
              "position": 10.516667,
              "duration": 0.125
            },
            {
              "pitch": 48,
              "velocity": 49,
              "position": 10.975,
              "duration": 0.25
            },
            {
              "pitch": 55,
              "velocity": 58,
              "position": 10.983333,
              "duration": 0.241667
            },
            {
              "pitch": 59,
              "velocity": 58,
              "position": 10.991667,
              "duration": 0.233333
            },
            {
              "pitch": 64,
              "velocity": 58,
              "position": 11.008333,
              "duration": 0.216667
            },
            {
              "pitch": 67,
              "velocity": 58,
              "position": 11.016667,
              "duration": 0.191667
            },
            {
              "pitch": 67,
              "velocity": 32,
              "position": 11.225,
              "duration": 0.2
            },
            {
              "pitch": 64,
              "velocity": 37,
              "position": 11.241667,
              "duration": 0.183333
            },
            {
              "pitch": 59,
              "velocity": 37,
              "position": 11.25,
              "duration": 0.175
            },
            {
              "pitch": 55,
              "velocity": 32,
              "position": 11.258333,
              "duration": 0.166667
            },
            {
              "pitch": 48,
              "velocity": 56,
              "position": 12.475,
              "duration": 0.15
            },
            {
              "pitch": 55,
              "velocity": 67,
              "position": 12.483333,
              "duration": 0.141667
            },
            {
              "pitch": 59,
              "velocity": 67,
              "position": 12.491667,
              "duration": 0.133333
            },
            {
              "pitch": 64,
              "velocity": 67,
              "position": 12.508333,
              "duration": 0.116667
            },
            {
              "pitch": 67,
              "velocity": 67,
              "position": 12.516667,
              "duration": 0.108333
            },
            {
              "pitch": 67,
              "velocity": 42,
              "position": 13.225,
              "duration": 0.183333
            },
            {
              "pitch": 64,
              "velocity": 48,
              "position": 13.241667,
              "duration": 0.166667
            },
            {
              "pitch": 59,
              "velocity": 48,
              "position": 13.25,
              "duration": 0.158333
            },
            {
              "pitch": 55,
              "velocity": 42,
              "position": 13.258333,
              "duration": 0.15
            },
            {
              "pitch": 48,
              "velocity": 42,
              "position": 13.475,
              "duration": 0.2
            },
            {
              "pitch": 55,
              "velocity": 50,
              "position": 13.483333,
              "duration": 0.191667
            },
            {
              "pitch": 59,
              "velocity": 50,
              "position": 13.491667,
              "duration": 0.183333
            },
            {
              "pitch": 64,
              "velocity": 50,
              "position": 13.508333,
              "duration": 0.166667
            },
            {
              "pitch": 67,
              "velocity": 50,
              "position": 13.516667,
              "duration": 0.158333
            },
            {
              "pitch": 67,
              "velocity": 30,
              "position": 13.725,
              "duration": 0.2
            },
            {
              "pitch": 64,
              "velocity": 34,
              "position": 13.741667,
              "duration": 0.183333
            },
            {
              "pitch": 59,
              "velocity": 34,
              "position": 13.75,
              "duration": 0.175
            },
            {
              "pitch": 55,
              "velocity": 30,
              "position": 13.758333,
              "duration": 0.166667
            },
            {
              "pitch": 67,
              "velocity": 28,
              "position": 14.225,
              "duration": 0.2
            },
            {
              "pitch": 64,
              "velocity": 32,
              "position": 14.241667,
              "duration": 0.183333
            },
            {
              "pitch": 59,
              "velocity": 32,
              "position": 14.25,
              "duration": 0.175
            },
            {
              "pitch": 55,
              "velocity": 28,
              "position": 14.258333,
              "duration": 0.166667
            },
            {
              "pitch": 48,
              "velocity": 51,
              "position": 14.475,
              "duration": 0.208333
            },
            {
              "pitch": 55,
              "velocity": 61,
              "position": 14.483333,
              "duration": 0.2
            },
            {
              "pitch": 59,
              "velocity": 61,
              "position": 14.491667,
              "duration": 0.191667
            },
            {
              "pitch": 64,
              "velocity": 61,
              "position": 14.508333,
              "duration": 0.175
            },
            {
              "pitch": 67,
              "velocity": 61,
              "position": 14.516667,
              "duration": 0.166667
            },
            {
              "pitch": 48,
              "velocity": 51,
              "position": 14.975,
              "duration": 0.158333
            },
            {
              "pitch": 55,
              "velocity": 60,
              "position": 14.983333,
              "duration": 0.15
            },
            {
              "pitch": 59,
              "velocity": 60,
              "position": 14.991667,
              "duration": 0.141667
            },
            {
              "pitch": 64,
              "velocity": 60,
              "position": 15.008333,
              "duration": 0.125
            },
            {
              "pitch": 67,
              "velocity": 60,
              "position": 15.016667,
              "duration": 0.116667
            },
            {
              "pitch": 67,
              "velocity": 33,
              "position": 15.225,
              "duration": 0.225
            },
            {
              "pitch": 64,
              "velocity": 38,
              "position": 15.241667,
              "duration": 0.208333
            },
            {
              "pitch": 59,
              "velocity": 38,
              "position": 15.25,
              "duration": 0.2
            },
            {
              "pitch": 55,
              "velocity": 33,
              "position": 15.258333,
              "duration": 0.191667
            },
            {
              "pitch": 48,
              "velocity": 59,
              "position": 15.475,
              "duration": 0.141667
            },
            {
              "pitch": 55,
              "velocity": 70,
              "position": 15.483333,
              "duration": 0.133333
            },
            {
              "pitch": 59,
              "velocity": 70,
              "position": 15.491667,
              "duration": 0.125
            },
            {
              "pitch": 64,
              "velocity": 70,
              "position": 15.508333,
              "duration": 0.108333
            },
            {
              "pitch": 67,
              "velocity": 70,
              "position": 15.516667,
              "duration": 0.1
            },
            {
              "pitch": 55,
              "velocity": 54,
              "position": 15.975,
              "duration": 0.141667
            },
            {
              "pitch": 59,
              "velocity": 54,
              "position": 15.991667,
              "duration": 0.125
            }
          ]
        },
        "13": {
          "ctab": {
            "srcChannel": 13,
            "name": "Strings",
            "accType": "PAD",
            "editable": true,
            "mutedNotes": [],
            "mutedChords": [],
            "sourceChordNote": 0,
            "sourceChordType": "Maj7",
            "ctb2Main": {
              "ntr": "ROOT_FIXED",
              "ntt": "MELODY",
              "bassOn": false,
              "noteLowLimit": 36,
              "noteHighLimit": 96,
              "chordRootUpperLimit": 127,
              "rtr": "PITCH_SHIFT"
            }
          },
          "notes": [
            {
              "pitch": 71,
              "velocity": 24,
              "position": 0.0,
              "duration": 95.908333
            },
            {
              "pitch": 76,
              "velocity": 28,
              "position": 0.0,
              "duration": 95.925
            },
            {
              "pitch": 79,
              "velocity": 24,
              "position": 0.0,
              "duration": 95.925
            }
          ]
        }
      }
    },
    "Main_B": {
      "type": "Main_B",
      "sizeInBeats": 16,
      "channels": {
        "9": {
          "ctab": {
            "srcChannel": 9,
            "name": "Drums",
            "accType": "RHYTHM",
            "editable": false,
            "mutedNotes": [],
            "mutedChords": [],
            "sourceChordNote": 0,
            "sourceChordType": "Maj",
            "ctb2Main": {
              "ntr": "ROOT_FIXED",
              "ntt": "BYPASS",
              "bassOn": false,
              "noteLowLimit": 20,
              "noteHighLimit": 127,
              "chordRootUpperLimit": 127,
              "rtr": "RETRIGGER"
            }
          },
          "notes": [
            {
              "pitch": 35,
              "velocity": 80,
              "position": 0.0,
              "duration": 0.208333
            },
            {
              "pitch": 49,
              "velocity": 92,
              "position": 0.0,
              "duration": 0.208333
            },
            {
              "pitch": 56,
              "velocity": 70,
              "position": 0.0,
              "duration": 0.208333
            },
            {
              "pitch": 63,
              "velocity": 80,
              "position": 0.0,
              "duration": 0.083333
            },
            {
              "pitch": 69,
              "velocity": 80,
              "position": 0.0,
              "duration": 0.208333
            },
            {
              "pitch": 35,
              "velocity": 60,
              "position": 0.25,
              "duration": 0.208333
            },
            {
              "pitch": 42,
              "velocity": 92,
              "position": 0.25,
              "duration": 0.208333
            },
            {
              "pitch": 62,
              "velocity": 60,
              "position": 0.25,
              "duration": 0.208333
            },
            {
              "pitch": 69,
              "velocity": 60,
              "position": 0.25,
              "duration": 0.208333
            },
            {
              "pitch": 42,
              "velocity": 60,
              "position": 0.5,
              "duration": 0.208333
            },
            {
              "pitch": 63,
              "velocity": 50,
              "position": 0.5,
              "duration": 0.208333
            },
            {
              "pitch": 70,
              "velocity": 70,
              "position": 0.5,
              "duration": 0.208333
            },
            {
              "pitch": 42,
              "velocity": 40,
              "position": 0.75,
              "duration": 0.208333
            },
            {
              "pitch": 63,
              "velocity": 40,
              "position": 0.75,
              "duration": 0.208333
            },
            {
              "pitch": 38,
              "velocity": 80,
              "position": 1.0,
              "duration": 0.208333
            },
            {
              "pitch": 39,
              "velocity": 92,
              "position": 1.0,
              "duration": 0.208333
            },
            {
              "pitch": 42,
              "velocity": 80,
              "position": 1.0,
              "duration": 0.208333
            },
            {
              "pitch": 54,
              "velocity": 92,
              "position": 1.0,
              "duration": 0.208333
            },
            {
              "pitch": 56,
              "velocity": 70,
              "position": 1.0,
              "duration": 0.208333
            },
            {
              "pitch": 62,
              "velocity": 80,
              "position": 1.0,
              "duration": 0.208333
            },
            {
              "pitch": 69,
              "velocity": 80,
              "position": 1.0,
              "duration": 0.208333
            },
            {
              "pitch": 42,
              "velocity": 40,
              "position": 1.25,
              "duration": 0.208333
            },
            {
              "pitch": 63,
              "velocity": 60,
              "position": 1.25,
              "duration": 0.208333
            },
            {
              "pitch": 69,
              "velocity": 50,
              "position": 1.25,
              "duration": 0.208333
            },
            {
              "pitch": 42,
              "velocity": 60,
              "position": 1.5,
              "duration": 0.208333
            },
            {
              "pitch": 63,
              "velocity": 50,
              "position": 1.5,
              "duration": 0.208333
            },
            {
              "pitch": 70,
              "velocity": 70,
              "position": 1.5,
              "duration": 0.208333
            },
            {
              "pitch": 35,
              "velocity": 80,
              "position": 1.75,
              "duration": 0.208333
            },
            {
              "pitch": 42,
              "velocity": 50,
              "position": 1.75,
              "duration": 0.208333
            },
            {
              "pitch": 63,
              "velocity": 40,
              "position": 1.75,
              "duration": 0.208333
            },
            {
              "pitch": 42,
              "velocity": 70,
              "position": 2.0,
              "duration": 0.208333
            },
            {
              "pitch": 56,
              "velocity": 70,
              "position": 2.0,
              "duration": 0.208333
            },
            {
              "pitch": 63,
              "velocity": 40,
              "position": 2.0,
              "duration": 0.208333
            },
            {
              "pitch": 69,
              "velocity": 70,
              "position": 2.0,
              "duration": 0.208333
            },
            {
              "pitch": 35,
              "velocity": 70,
              "position": 2.25,
              "duration": 0.208333
            },
            {
              "pitch": 42,
              "velocity": 80,
              "position": 2.25,
              "duration": 0.208333
            },
            {
              "pitch": 62,
              "velocity": 80,
              "position": 2.25,
              "duration": 0.208333
            },
            {
              "pitch": 69,
              "velocity": 50,
              "position": 2.25,
              "duration": 0.208333
            },
            {
              "pitch": 35,
              "velocity": 60,
              "position": 2.5,
              "duration": 0.208333
            },
            {
              "pitch": 42,
              "velocity": 50,
              "position": 2.5,
              "duration": 0.208333
            },
            {
              "pitch": 63,
              "velocity": 60,
              "position": 2.5,
              "duration": 0.208333
            },
            {
              "pitch": 70,
              "velocity": 60,
              "position": 2.5,
              "duration": 0.208333
            },
            {
              "pitch": 42,
              "velocity": 60,
              "position": 2.75,
              "duration": 0.208333
            },
            {
              "pitch": 63,
              "velocity": 40,
              "position": 2.75,
              "duration": 0.208333
            },
            {
              "pitch": 38,
              "velocity": 40,
              "position": 2.875,
              "duration": 0.125
            },
            {
              "pitch": 38,
              "velocity": 80,
              "position": 3.0,
              "duration": 0.083333
            },
            {
              "pitch": 39,
              "velocity": 92,
              "position": 3.0,
              "duration": 0.208333
            },
            {
              "pitch": 42,
              "velocity": 70,
              "position": 3.0,
              "duration": 0.208333
            },
            {
              "pitch": 54,
              "velocity": 92,
              "position": 3.0,
              "duration": 0.208333
            },
            {
              "pitch": 56,
              "velocity": 70,
              "position": 3.0,
              "duration": 0.208333
            },
            {
              "pitch": 63,
              "velocity": 80,
              "position": 3.0,
              "duration": 0.208333
            },
            {
              "pitch": 69,
              "velocity": 80,
              "position": 3.0,
              "duration": 0.208333
            },
            {
              "pitch": 42,
              "velocity": 50,
              "position": 3.25,
              "duration": 0.208333
            },
            {
              "pitch": 62,
              "velocity": 80,
              "position": 3.25,
              "duration": 0.208333
            },
            {
              "pitch": 69,
              "velocity": 50,
              "position": 3.25,
              "duration": 0.208333
            },
            {
              "pitch": 46,
              "velocity": 70,
              "position": 3.5,
              "duration": 0.208333
            },
            {
              "pitch": 62,
              "velocity": 60,
              "position": 3.5,
              "duration": 0.208333
            },
            {
              "pitch": 70,
              "velocity": 70,
              "position": 3.5,
              "duration": 0.208333
            },
            {
              "pitch": 63,
              "velocity": 40,
              "position": 3.75,
              "duration": 0.208333
            },
            {
              "pitch": 35,
              "velocity": 80,
              "position": 4.0,
              "duration": 0.208333
            },
            {
              "pitch": 42,
              "velocity": 50,
              "position": 4.0,
              "duration": 0.208333
            },
            {
              "pitch": 56,
              "velocity": 70,
              "position": 4.0,
              "duration": 0.208333
            },
            {
              "pitch": 63,
              "velocity": 70,
              "position": 4.0,
              "duration": 0.208333
            },
            {
              "pitch": 69,
              "velocity": 80,
              "position": 4.0,
              "duration": 0.208333
            },
            {
              "pitch": 35,
              "velocity": 60,
              "position": 4.25,
              "duration": 0.208333
            },
            {
              "pitch": 42,
              "velocity": 80,
              "position": 4.25,
              "duration": 0.208333
            },
            {
              "pitch": 63,
              "velocity": 60,
              "position": 4.25,
              "duration": 0.208333
            },
            {
              "pitch": 69,
              "velocity": 60,
              "position": 4.25,
              "duration": 0.208333
            },
            {
              "pitch": 42,
              "velocity": 60,
              "position": 4.5,
              "duration": 0.208333
            },
            {
              "pitch": 63,
              "velocity": 90,
              "position": 4.5,
              "duration": 0.208333
            },
            {
              "pitch": 70,
              "velocity": 70,
              "position": 4.5,
              "duration": 0.208333
            },
            {
              "pitch": 42,
              "velocity": 40,
              "position": 4.75,
              "duration": 0.208333
            },
            {
              "pitch": 63,
              "velocity": 50,
              "position": 4.75,
              "duration": 0.208333
            },
            {
              "pitch": 38,
              "velocity": 80,
              "position": 5.0,
              "duration": 0.208333
            },
            {
              "pitch": 39,
              "velocity": 92,
              "position": 5.0,
              "duration": 0.208333
            },
            {
              "pitch": 42,
              "velocity": 80,
              "position": 5.0,
              "duration": 0.208333
            },
            {
              "pitch": 54,
              "velocity": 92,
              "position": 5.0,
              "duration": 0.208333
            },
            {
              "pitch": 56,
              "velocity": 70,
              "position": 5.0,
              "duration": 0.208333
            },
            {
              "pitch": 62,
              "velocity": 80,
              "position": 5.0,
              "duration": 0.208333
            },
            {
              "pitch": 69,
              "velocity": 80,
              "position": 5.0,
              "duration": 0.208333
            },
            {
              "pitch": 38,
              "velocity": 50,
              "position": 5.25,
              "duration": 0.208333
            },
            {
              "pitch": 42,
              "velocity": 50,
              "position": 5.25,
              "duration": 0.208333
            },
            {
              "pitch": 63,
              "velocity": 70,
              "position": 5.25,
              "duration": 0.208333
            },
            {
              "pitch": 69,
              "velocity": 50,
              "position": 5.25,
              "duration": 0.208333
            },
            {
              "pitch": 42,
              "velocity": 70,
              "position": 5.5,
              "duration": 0.208333
            },
            {
              "pitch": 70,
              "velocity": 70,
              "position": 5.5,
              "duration": 0.208333
            },
            {
              "pitch": 35,
              "velocity": 80,
              "position": 5.75,
              "duration": 0.208333
            },
            {
              "pitch": 38,
              "velocity": 70,
              "position": 5.75,
              "duration": 0.208333
            },
            {
              "pitch": 42,
              "velocity": 40,
              "position": 5.75,
              "duration": 0.208333
            },
            {
              "pitch": 63,
              "velocity": 80,
              "position": 5.75,
              "duration": 0.208333
            },
            {
              "pitch": 42,
              "velocity": 70,
              "position": 6.0,
              "duration": 0.208333
            },
            {
              "pitch": 56,
              "velocity": 70,
              "position": 6.0,
              "duration": 0.208333
            },
            {
              "pitch": 69,
              "velocity": 70,
              "position": 6.0,
              "duration": 0.208333
            },
            {
              "pitch": 35,
              "velocity": 70,
              "position": 6.25,
              "duration": 0.208333
            },
            {
              "pitch": 42,
              "velocity": 40,
              "position": 6.25,
              "duration": 0.208333
            },
            {
              "pitch": 62,
              "velocity": 80,
              "position": 6.25,
              "duration": 0.208333
            },
            {
              "pitch": 69,
              "velocity": 50,
              "position": 6.25,
              "duration": 0.208333
            },
            {
              "pitch": 35,
              "velocity": 60,
              "position": 6.5,
              "duration": 0.208333
            },
            {
              "pitch": 42,
              "velocity": 60,
              "position": 6.5,
              "duration": 0.208333
            },
            {
              "pitch": 63,
              "velocity": 50,
              "position": 6.5,
              "duration": 0.208333
            },
            {
              "pitch": 70,
              "velocity": 60,
              "position": 6.5,
              "duration": 0.208333
            },
            {
              "pitch": 42,
              "velocity": 70,
              "position": 6.75,
              "duration": 0.208333
            },
            {
              "pitch": 63,
              "velocity": 40,
              "position": 6.75,
              "duration": 0.208333
            },
            {
              "pitch": 38,
              "velocity": 80,
              "position": 7.0,
              "duration": 0.208333
            },
            {
              "pitch": 39,
              "velocity": 92,
              "position": 7.0,
              "duration": 0.208333
            },
            {
              "pitch": 42,
              "velocity": 80,
              "position": 7.0,
              "duration": 0.208333
            },
            {
              "pitch": 54,
              "velocity": 92,
              "position": 7.0,
              "duration": 0.208333
            },
            {
              "pitch": 56,
              "velocity": 80,
              "position": 7.0,
              "duration": 0.208333
            },
            {
              "pitch": 63,
              "velocity": 80,
              "position": 7.0,
              "duration": 0.208333
            },
            {
              "pitch": 69,
              "velocity": 80,
              "position": 7.0,
              "duration": 0.208333
            },
            {
              "pitch": 42,
              "velocity": 50,
              "position": 7.25,
              "duration": 0.208333
            },
            {
              "pitch": 63,
              "velocity": 50,
              "position": 7.25,
              "duration": 0.208333
            },
            {
              "pitch": 69,
              "velocity": 50,
              "position": 7.25,
              "duration": 0.208333
            },
            {
              "pitch": 35,
              "velocity": 60,
              "position": 7.5,
              "duration": 0.208333
            },
            {
              "pitch": 46,
              "velocity": 70,
              "position": 7.5,
              "duration": 0.208333
            },
            {
              "pitch": 63,
              "velocity": 60,
              "position": 7.5,
              "duration": 0.208333
            },
            {
              "pitch": 70,
              "velocity": 70,
              "position": 7.5,
              "duration": 0.208333
            },
            {
              "pitch": 38,
              "velocity": 50,
              "position": 7.75,
              "duration": 0.125
            },
            {
              "pitch": 63,
              "velocity": 50,
              "position": 7.75,
              "duration": 0.125
            },
            {
              "pitch": 38,
              "velocity": 40,
              "position": 7.875,
              "duration": 0.083333
            },
            {
              "pitch": 63,
              "velocity": 40,
              "position": 7.875,
              "duration": 0.083333
            },
            {
              "pitch": 35,
              "velocity": 80,
              "position": 8.0,
              "duration": 0.208333
            },
            {
              "pitch": 42,
              "velocity": 70,
              "position": 8.0,
              "duration": 0.208333
            },
            {
              "pitch": 56,
              "velocity": 70,
              "position": 8.0,
              "duration": 0.208333
            },
            {
              "pitch": 69,
              "velocity": 80,
              "position": 8.0,
              "duration": 0.208333
            },
            {
              "pitch": 46,
              "velocity": 80,
              "position": 8.25,
              "duration": 0.208333
            },
            {
              "pitch": 62,
              "velocity": 80,
              "position": 8.25,
              "duration": 0.208333
            },
            {
              "pitch": 69,
              "velocity": 60,
              "position": 8.25,
              "duration": 0.208333
            },
            {
              "pitch": 42,
              "velocity": 60,
              "position": 8.5,
              "duration": 0.208333
            },
            {
              "pitch": 63,
              "velocity": 50,
              "position": 8.5,
              "duration": 0.208333
            },
            {
              "pitch": 70,
              "velocity": 70,
              "position": 8.5,
              "duration": 0.208333
            },
            {
              "pitch": 42,
              "velocity": 40,
              "position": 8.75,
              "duration": 0.208333
            },
            {
              "pitch": 63,
              "velocity": 40,
              "position": 8.75,
              "duration": 0.125
            },
            {
              "pitch": 63,
              "velocity": 32,
              "position": 8.875,
              "duration": 0.083333
            },
            {
              "pitch": 38,
              "velocity": 80,
              "position": 9.0,
              "duration": 0.208333
            },
            {
              "pitch": 39,
              "velocity": 92,
              "position": 9.0,
              "duration": 0.208333
            },
            {
              "pitch": 42,
              "velocity": 70,
              "position": 9.0,
              "duration": 0.208333
            },
            {
              "pitch": 54,
              "velocity": 92,
              "position": 9.0,
              "duration": 0.208333
            },
            {
              "pitch": 56,
              "velocity": 70,
              "position": 9.0,
              "duration": 0.208333
            },
            {
              "pitch": 63,
              "velocity": 90,
              "position": 9.0,
              "duration": 0.083333
            },
            {
              "pitch": 69,
              "velocity": 80,
              "position": 9.0,
              "duration": 0.208333
            },
            {
              "pitch": 42,
              "velocity": 50,
              "position": 9.25,
              "duration": 0.208333
            },
            {
              "pitch": 63,
              "velocity": 60,
              "position": 9.25,
              "duration": 0.208333
            },
            {
              "pitch": 69,
              "velocity": 50,
              "position": 9.25,
              "duration": 0.208333
            },
            {
              "pitch": 42,
              "velocity": 80,
              "position": 9.5,
              "duration": 0.208333
            },
            {
              "pitch": 63,
              "velocity": 50,
              "position": 9.5,
              "duration": 0.208333
            },
            {
              "pitch": 70,
              "velocity": 70,
              "position": 9.5,
              "duration": 0.208333
            },
            {
              "pitch": 35,
              "velocity": 80,
              "position": 9.75,
              "duration": 0.208333
            },
            {
              "pitch": 42,
              "velocity": 50,
              "position": 9.75,
              "duration": 0.208333
            },
            {
              "pitch": 62,
              "velocity": 90,
              "position": 9.75,
              "duration": 0.208333
            },
            {
              "pitch": 42,
              "velocity": 70,
              "position": 10.0,
              "duration": 0.208333
            },
            {
              "pitch": 56,
              "velocity": 70,
              "position": 10.0,
              "duration": 0.208333
            },
            {
              "pitch": 69,
              "velocity": 70,
              "position": 10.0,
              "duration": 0.208333
            },
            {
              "pitch": 35,
              "velocity": 70,
              "position": 10.25,
              "duration": 0.208333
            },
            {
              "pitch": 42,
              "velocity": 80,
              "position": 10.25,
              "duration": 0.208333
            },
            {
              "pitch": 63,
              "velocity": 80,
              "position": 10.25,
              "duration": 0.208333
            },
            {
              "pitch": 69,
              "velocity": 50,
              "position": 10.25,
              "duration": 0.208333
            },
            {
              "pitch": 35,
              "velocity": 60,
              "position": 10.5,
              "duration": 0.208333
            },
            {
              "pitch": 42,
              "velocity": 50,
              "position": 10.5,
              "duration": 0.208333
            },
            {
              "pitch": 63,
              "velocity": 50,
              "position": 10.5,
              "duration": 0.208333
            },
            {
              "pitch": 70,
              "velocity": 60,
              "position": 10.5,
              "duration": 0.208333
            },
            {
              "pitch": 42,
              "velocity": 60,
              "position": 10.75,
              "duration": 0.208333
            },
            {
              "pitch": 63,
              "velocity": 40,
              "position": 10.75,
              "duration": 0.208333
            },
            {
              "pitch": 38,
              "velocity": 40,
              "position": 10.875,
              "duration": 0.125
            },
            {
              "pitch": 38,
              "velocity": 80,
              "position": 11.0,
              "duration": 0.083333
            },
            {
              "pitch": 39,
              "velocity": 92,
              "position": 11.0,
              "duration": 0.208333
            },
            {
              "pitch": 42,
              "velocity": 70,
              "position": 11.0,
              "duration": 0.208333
            },
            {
              "pitch": 54,
              "velocity": 92,
              "position": 11.0,
              "duration": 0.208333
            },
            {
              "pitch": 56,
              "velocity": 70,
              "position": 11.0,
              "duration": 0.208333
            },
            {
              "pitch": 63,
              "velocity": 50,
              "position": 11.0,
              "duration": 0.208333
            },
            {
              "pitch": 69,
              "velocity": 80,
              "position": 11.0,
              "duration": 0.208333
            },
            {
              "pitch": 38,
              "velocity": 50,
              "position": 11.25,
              "duration": 0.208333
            },
            {
              "pitch": 42,
              "velocity": 50,
              "position": 11.25,
              "duration": 0.208333
            },
            {
              "pitch": 63,
              "velocity": 90,
              "position": 11.25,
              "duration": 0.208333
            },
            {
              "pitch": 69,
              "velocity": 50,
              "position": 11.25,
              "duration": 0.208333
            },
            {
              "pitch": 46,
              "velocity": 70,
              "position": 11.5,
              "duration": 0.208333
            },
            {
              "pitch": 62,
              "velocity": 60,
              "position": 11.5,
              "duration": 0.208333
            },
            {
              "pitch": 70,
              "velocity": 70,
              "position": 11.5,
              "duration": 0.208333
            },
            {
              "pitch": 63,
              "velocity": 40,
              "position": 11.75,
              "duration": 0.208333
            },
            {
              "pitch": 35,
              "velocity": 80,
              "position": 12.0,
              "duration": 0.208333
            },
            {
              "pitch": 42,
              "velocity": 50,
              "position": 12.0,
              "duration": 0.208333
            },
            {
              "pitch": 56,
              "velocity": 70,
              "position": 12.0,
              "duration": 0.208333
            },
            {
              "pitch": 69,
              "velocity": 80,
              "position": 12.0,
              "duration": 0.208333
            },
            {
              "pitch": 35,
              "velocity": 60,
              "position": 12.25,
              "duration": 0.208333
            },
            {
              "pitch": 42,
              "velocity": 80,
              "position": 12.25,
              "duration": 0.208333
            },
            {
              "pitch": 62,
              "velocity": 60,
              "position": 12.25,
              "duration": 0.208333
            },
            {
              "pitch": 69,
              "velocity": 60,
              "position": 12.25,
              "duration": 0.208333
            },
            {
              "pitch": 42,
              "velocity": 60,
              "position": 12.5,
              "duration": 0.208333
            },
            {
              "pitch": 63,
              "velocity": 50,
              "position": 12.5,
              "duration": 0.208333
            },
            {
              "pitch": 70,
              "velocity": 70,
              "position": 12.5,
              "duration": 0.208333
            },
            {
              "pitch": 42,
              "velocity": 80,
              "position": 12.75,
              "duration": 0.125
            },
            {
              "pitch": 63,
              "velocity": 50,
              "position": 12.75,
              "duration": 0.208333
            },
            {
              "pitch": 42,
              "velocity": 64,
              "position": 12.875,
              "duration": 0.083333
            },
            {
              "pitch": 38,
              "velocity": 92,
              "position": 13.0,
              "duration": 0.208333
            },
            {
              "pitch": 39,
              "velocity": 92,
              "position": 13.0,
              "duration": 0.208333
            },
            {
              "pitch": 42,
              "velocity": 92,
              "position": 13.0,
              "duration": 0.083333
            },
            {
              "pitch": 54,
              "velocity": 92,
              "position": 13.0,
              "duration": 0.208333
            },
            {
              "pitch": 56,
              "velocity": 70,
              "position": 13.0,
              "duration": 0.208333
            },
            {
              "pitch": 62,
              "velocity": 80,
              "position": 13.0,
              "duration": 0.208333
            },
            {
              "pitch": 69,
              "velocity": 80,
              "position": 13.0,
              "duration": 0.208333
            },
            {
              "pitch": 38,
              "velocity": 70,
              "position": 13.25,
              "duration": 0.125
            },
            {
              "pitch": 63,
              "velocity": 70,
              "position": 13.25,
              "duration": 0.208333
            },
            {
              "pitch": 69,
              "velocity": 50,
              "position": 13.25,
              "duration": 0.208333
            },
            {
              "pitch": 38,
              "velocity": 56,
              "position": 13.375,
              "duration": 0.083333
            },
            {
              "pitch": 42,
              "velocity": 80,
              "position": 13.5,
              "duration": 0.208333
            },
            {
              "pitch": 70,
              "velocity": 70,
              "position": 13.5,
              "duration": 0.208333
            },
            {
              "pitch": 35,
              "velocity": 90,
              "position": 13.75,
              "duration": 0.208333
            },
            {
              "pitch": 38,
              "velocity": 92,
              "position": 13.75,
              "duration": 0.208333
            },
            {
              "pitch": 46,
              "velocity": 92,
              "position": 13.75,
              "duration": 0.208333
            },
            {
              "pitch": 63,
              "velocity": 80,
              "position": 13.75,
              "duration": 0.208333
            },
            {
              "pitch": 42,
              "velocity": 80,
              "position": 14.0,
              "duration": 0.208333
            },
            {
              "pitch": 56,
              "velocity": 70,
              "position": 14.0,
              "duration": 0.208333
            },
            {
              "pitch": 62,
              "velocity": 50,
              "position": 14.0,
              "duration": 0.208333
            },
            {
              "pitch": 69,
              "velocity": 70,
              "position": 14.0,
              "duration": 0.208333
            },
            {
              "pitch": 35,
              "velocity": 60,
              "position": 14.25,
              "duration": 0.208333
            },
            {
              "pitch": 63,
              "velocity": 80,
              "position": 14.25,
              "duration": 0.208333
            },
            {
              "pitch": 69,
              "velocity": 50,
              "position": 14.25,
              "duration": 0.208333
            },
            {
              "pitch": 46,
              "velocity": 90,
              "position": 14.5,
              "duration": 0.208333
            },
            {
              "pitch": 48,
              "velocity": 92,
              "position": 14.5,
              "duration": 0.208333
            },
            {
              "pitch": 63,
              "velocity": 50,
              "position": 14.5,
              "duration": 0.208333
            },
            {
              "pitch": 70,
              "velocity": 60,
              "position": 14.5,
              "duration": 0.208333
            },
            {
              "pitch": 35,
              "velocity": 90,
              "position": 14.75,
              "duration": 0.208333
            },
            {
              "pitch": 48,
              "velocity": 90,
              "position": 14.75,
              "duration": 0.208333
            },
            {
              "pitch": 63,
              "velocity": 40,
              "position": 14.75,
              "duration": 0.208333
            },
            {
              "pitch": 39,
              "velocity": 92,
              "position": 15.0,
              "duration": 0.208333
            },
            {
              "pitch": 42,
              "velocity": 70,
              "position": 15.0,
              "duration": 0.208333
            },
            {
              "pitch": 54,
              "velocity": 92,
              "position": 15.0,
              "duration": 0.208333
            },
            {
              "pitch": 56,
              "velocity": 80,
              "position": 15.0,
              "duration": 0.208333
            },
            {
              "pitch": 62,
              "velocity": 90,
              "position": 15.0,
              "duration": 0.208333
            },
            {
              "pitch": 69,
              "velocity": 80,
              "position": 15.0,
              "duration": 0.208333
            },
            {
              "pitch": 45,
              "velocity": 92,
              "position": 15.25,
              "duration": 0.208333
            },
            {
              "pitch": 63,
              "velocity": 50,
              "position": 15.25,
              "duration": 0.208333
            },
            {
              "pitch": 69,
              "velocity": 50,
              "position": 15.25,
              "duration": 0.208333
            },
            {
              "pitch": 41,
              "velocity": 92,
              "position": 15.5,
              "duration": 0.208333
            },
            {
              "pitch": 46,
              "velocity": 90,
              "position": 15.5,
              "duration": 0.208333
            },
            {
              "pitch": 63,
              "velocity": 60,
              "position": 15.5,
              "duration": 0.208333
            },
            {
              "pitch": 70,
              "velocity": 70,
              "position": 15.5,
              "duration": 0.208333
            },
            {
              "pitch": 35,
              "velocity": 70,
              "position": 15.75,
              "duration": 0.208333
            },
            {
              "pitch": 63,
              "velocity": 50,
              "position": 15.75,
              "duration": 0.125
            },
            {
              "pitch": 63,
              "velocity": 40,
              "position": 15.875,
              "duration": 0.083333
            }
          ]
        },
        "10": {
          "ctab": {
            "srcChannel": 10,
            "name": "Bass",
            "accType": "BASS",
            "editable": true,
            "mutedNotes": [],
            "mutedChords": [],
            "sourceChordNote": 0,
            "sourceChordType": "Maj7",
            "ctb2Main": {
              "ntr": "ROOT_TRANSPOSITION",
              "ntt": "BYPASS",
              "bassOn": true,
              "noteLowLimit": 20,
              "noteHighLimit": 60,
              "chordRootUpperLimit": 127,
              "rtr": "NOTE_GENERATOR"
            }
          },
          "notes": [
            {
              "pitch": 36,
              "velocity": 79,
              "position": 0.0,
              "duration": 1.633333
            },
            {
              "pitch": 36,
              "velocity": 79,
              "position": 1.75,
              "duration": 0.083333
            },
            {
              "pitch": 36,
              "velocity": 76,
              "position": 2.0,
              "duration": 0.158333
            },
            {
              "pitch": 36,
              "velocity": 83,
              "position": 2.5,
              "duration": 0.683333
            },
            {
              "pitch": 31,
              "velocity": 75,
              "position": 3.25,
              "duration": 0.1
            },
            {
              "pitch": 36,
              "velocity": 83,
              "position": 3.5,
              "duration": 0.291667
            },
            {
              "pitch": 36,
              "velocity": 65,
              "position": 4.008333,
              "duration": 0.3
            },
            {
              "pitch": 36,
              "velocity": 71,
              "position": 4.5,
              "duration": 1.0
            },
            {
              "pitch": 35,
              "velocity": 71,
              "position": 5.75,
              "duration": 0.166667
            },
            {
              "pitch": 36,
              "velocity": 76,
              "position": 6.0,
              "duration": 0.158333
            },
            {
              "pitch": 36,
              "velocity": 83,
              "position": 6.5,
              "duration": 0.683333
            },
            {
              "pitch": 36,
              "velocity": 75,
              "position": 7.25,
              "duration": 0.1
            },
            {
              "pitch": 35,
              "velocity": 83,
              "position": 7.5,
              "duration": 0.291667
            },
            {
              "pitch": 36,
              "velocity": 83,
              "position": 8.0,
              "duration": 1.675
            },
            {
              "pitch": 43,
              "velocity": 76,
              "position": 9.75,
              "duration": 0.166667
            },
            {
              "pitch": 36,
              "velocity": 73,
              "position": 10.0,
              "duration": 0.133333
            },
            {
              "pitch": 36,
              "velocity": 83,
              "position": 10.5,
              "duration": 2.191667
            },
            {
              "pitch": 36,
              "velocity": 82,
              "position": 13.0,
              "duration": 0.716667
            },
            {
              "pitch": 31,
              "velocity": 75,
              "position": 13.75,
              "duration": 0.183333
            },
            {
              "pitch": 36,
              "velocity": 74,
              "position": 14.0,
              "duration": 0.125
            },
            {
              "pitch": 36,
              "velocity": 87,
              "position": 14.5,
              "duration": 0.608333
            },
            {
              "pitch": 36,
              "velocity": 89,
              "position": 15.25,
              "duration": 0.108333
            },
            {
              "pitch": 36,
              "velocity": 74,
              "position": 15.5,
              "duration": 0.325
            }
          ]
        },
        "11": {
          "ctab": {
            "srcChannel": 11,
            "name": "Piano",
            "accType": "CHORD1",
            "editable": true,
            "mutedNotes": [],
            "mutedChords": [],
            "sourceChordNote": 0,
            "sourceChordType": "Maj7",
            "ctb2Main": {
              "ntr": "ROOT_FIXED",
              "ntt": "CHORD",
              "bassOn": false,
              "noteLowLimit": 48,
              "noteHighLimit": 84,
              "chordRootUpperLimit": 127,
              "rtr": "NOTE_GENERATOR"
            }
          },
          "notes": [
            {
              "pitch": 48,
              "velocity": 69,
              "position": 0.008333,
              "duration": 1.658333
            },
            {
              "pitch": 64,
              "velocity": 54,
              "position": 0.016667,
              "duration": 1.65
            },
            {
              "pitch": 67,
              "velocity": 69,
              "position": 0.016667,
              "duration": 1.65
            },
            {
              "pitch": 55,
              "velocity": 56,
              "position": 0.5,
              "duration": 1.166667
            },
            {
              "pitch": 71,
              "velocity": 72,
              "position": 0.991667,
              "duration": 0.675
            },
            {
              "pitch": 59,
              "velocity": 37,
              "position": 1.758333,
              "duration": 2.1
            },
            {
              "pitch": 64,
              "velocity": 66,
              "position": 1.758333,
              "duration": 1.091667
            },
            {
              "pitch": 67,
              "velocity": 69,
              "position": 1.758333,
              "duration": 2.183333
            },
            {
              "pitch": 48,
              "velocity": 60,
              "position": 1.775,
              "duration": 2.15
            },
            {
              "pitch": 55,
              "velocity": 71,
              "position": 2.5,
              "duration": 1.216667
            },
            {
              "pitch": 64,
              "velocity": 81,
              "position": 3.008333,
              "duration": 0.875
            },
            {
              "pitch": 48,
              "velocity": 70,
              "position": 4.008333,
              "duration": 1.583333
            },
            {
              "pitch": 59,
              "velocity": 53,
              "position": 4.016667,
              "duration": 1.4
            },
            {
              "pitch": 64,
              "velocity": 55,
              "position": 4.016667,
              "duration": 1.391667
            },
            {
              "pitch": 67,
              "velocity": 70,
              "position": 4.016667,
              "duration": 1.4
            },
            {
              "pitch": 71,
              "velocity": 73,
              "position": 4.033333,
              "duration": 1.441667
            },
            {
              "pitch": 59,
              "velocity": 42,
              "position": 5.758333,
              "duration": 0.85
            },
            {
              "pitch": 64,
              "velocity": 71,
              "position": 5.758333,
              "duration": 1.316667
            },
            {
              "pitch": 67,
              "velocity": 74,
              "position": 5.758333,
              "duration": 1.333333
            },
            {
              "pitch": 48,
              "velocity": 65,
              "position": 5.775,
              "duration": 2.166667
            },
            {
              "pitch": 59,
              "velocity": 59,
              "position": 7.033333,
              "duration": 0.925
            },
            {
              "pitch": 67,
              "velocity": 74,
              "position": 7.541667,
              "duration": 0.416667
            },
            {
              "pitch": 48,
              "velocity": 70,
              "position": 8.0,
              "duration": 7.916667
            },
            {
              "pitch": 64,
              "velocity": 65,
              "position": 8.0,
              "duration": 1.033333
            },
            {
              "pitch": 67,
              "velocity": 69,
              "position": 8.0,
              "duration": 1.058333
            },
            {
              "pitch": 59,
              "velocity": 67,
              "position": 8.508333,
              "duration": 2.908333
            },
            {
              "pitch": 71,
              "velocity": 70,
              "position": 9.825,
              "duration": 1.258333
            },
            {
              "pitch": 67,
              "velocity": 77,
              "position": 11.266667,
              "duration": 2.266667
            },
            {
              "pitch": 59,
              "velocity": 47,
              "position": 12.0,
              "duration": 1.591667
            },
            {
              "pitch": 60,
              "velocity": 54,
              "position": 12.016667,
              "duration": 3.883333
            },
            {
              "pitch": 64,
              "velocity": 70,
              "position": 13.5,
              "duration": 0.125
            },
            {
              "pitch": 74,
              "velocity": 72,
              "position": 14.025,
              "duration": 1.858333
            },
            {
              "pitch": 59,
              "velocity": 53,
              "position": 14.508333,
              "duration": 1.441667
            },
            {
              "pitch": 64,
              "velocity": 56,
              "position": 15.033333,
              "duration": 0.85
            }
          ]
        },
        "12": {
          "ctab": {
            "srcChannel": 12,
            "name": "Guitar",
            "accType": "CHORD2",
            "editable": true,
            "mutedNotes": [],
            "mutedChords": [],
            "sourceChordNote": 0,
            "sourceChordType": "Maj7",
            "ctb2Main": {
              "ntr": "ROOT_FIXED",
              "ntt": "CHORD",
              "bassOn": false,
              "noteLowLimit": 40,
              "noteHighLimit": 76,
              "chordRootUpperLimit": 127,
              "rtr": "NOTE_GENERATOR"
            }
          },
          "notes": [
            {
              "pitch": 64,
              "velocity": 54,
              "position": 0.0,
              "duration": 0.116667
            },
            {
              "pitch": 67,
              "velocity": 54,
              "position": 0.008333,
              "duration": 0.108333
            },
            {
              "pitch": 67,
              "velocity": 38,
              "position": 0.725,
              "duration": 0.166667
            },
            {
              "pitch": 64,
              "velocity": 44,
              "position": 0.741667,
              "duration": 0.15
            },
            {
              "pitch": 59,
              "velocity": 44,
              "position": 0.75,
              "duration": 0.141667
            },
            {
              "pitch": 55,
              "velocity": 38,
              "position": 0.758333,
              "duration": 0.133333
            },
            {
              "pitch": 67,
              "velocity": 40,
              "position": 2.225,
              "duration": 0.141667
            },
            {
              "pitch": 64,
              "velocity": 46,
              "position": 2.241667,
              "duration": 0.125
            },
            {
              "pitch": 59,
              "velocity": 46,
              "position": 2.25,
              "duration": 0.116667
            },
            {
              "pitch": 55,
              "velocity": 40,
              "position": 2.258333,
              "duration": 0.108333
            },
            {
              "pitch": 55,
              "velocity": 59,
              "position": 2.975,
              "duration": 0.258333
            },
            {
              "pitch": 59,
              "velocity": 59,
              "position": 2.991667,
              "duration": 0.241667
            },
            {
              "pitch": 64,
              "velocity": 59,
              "position": 3.0,
              "duration": 0.233333
            },
            {
              "pitch": 67,
              "velocity": 59,
              "position": 3.008333,
              "duration": 0.2
            },
            {
              "pitch": 67,
              "velocity": 31,
              "position": 3.225,
              "duration": 0.175
            },
            {
              "pitch": 64,
              "velocity": 36,
              "position": 3.241667,
              "duration": 0.158333
            },
            {
              "pitch": 59,
              "velocity": 36,
              "position": 3.25,
              "duration": 0.15
            },
            {
              "pitch": 55,
              "velocity": 31,
              "position": 3.258333,
              "duration": 0.141667
            },
            {
              "pitch": 67,
              "velocity": 32,
              "position": 4.725,
              "duration": 0.166667
            },
            {
              "pitch": 64,
              "velocity": 36,
              "position": 4.741667,
              "duration": 0.15
            },
            {
              "pitch": 59,
              "velocity": 36,
              "position": 4.75,
              "duration": 0.141667
            },
            {
              "pitch": 55,
              "velocity": 32,
              "position": 4.758333,
              "duration": 0.133333
            },
            {
              "pitch": 55,
              "velocity": 67,
              "position": 4.975,
              "duration": 0.233333
            },
            {
              "pitch": 59,
              "velocity": 67,
              "position": 4.991667,
              "duration": 0.216667
            },
            {
              "pitch": 64,
              "velocity": 67,
              "position": 5.0,
              "duration": 0.208333
            },
            {
              "pitch": 67,
              "velocity": 67,
              "position": 5.008333,
              "duration": 0.2
            },
            {
              "pitch": 55,
              "velocity": 50,
              "position": 5.475,
              "duration": 0.208333
            },
            {
              "pitch": 59,
              "velocity": 50,
              "position": 5.491667,
              "duration": 0.191667
            },
            {
              "pitch": 64,
              "velocity": 50,
              "position": 5.5,
              "duration": 0.183333
            },
            {
              "pitch": 67,
              "velocity": 50,
              "position": 5.508333,
              "duration": 0.175
            },
            {
              "pitch": 48,
              "velocity": 56,
              "position": 5.975,
              "duration": 0.233333
            },
            {
              "pitch": 55,
              "velocity": 66,
              "position": 5.983333,
              "duration": 0.225
            },
            {
              "pitch": 59,
              "velocity": 66,
              "position": 5.991667,
              "duration": 0.216667
            },
            {
              "pitch": 64,
              "velocity": 66,
              "position": 6.008333,
              "duration": 0.2
            },
            {
              "pitch": 67,
              "velocity": 66,
              "position": 6.016667,
              "duration": 0.191667
            },
            {
              "pitch": 67,
              "velocity": 28,
              "position": 6.225,
              "duration": 0.183333
            },
            {
              "pitch": 64,
              "velocity": 32,
              "position": 6.241667,
              "duration": 0.166667
            },
            {
              "pitch": 59,
              "velocity": 32,
              "position": 6.25,
              "duration": 0.158333
            },
            {
              "pitch": 55,
              "velocity": 28,
              "position": 6.258333,
              "duration": 0.15
            },
            {
              "pitch": 48,
              "velocity": 55,
              "position": 6.975,
              "duration": 0.25
            },
            {
              "pitch": 55,
              "velocity": 65,
              "position": 6.983333,
              "duration": 0.241667
            },
            {
              "pitch": 59,
              "velocity": 65,
              "position": 6.991667,
              "duration": 0.233333
            },
            {
              "pitch": 64,
              "velocity": 65,
              "position": 7.008333,
              "duration": 0.216667
            },
            {
              "pitch": 67,
              "velocity": 65,
              "position": 7.016667,
              "duration": 0.191667
            },
            {
              "pitch": 67,
              "velocity": 36,
              "position": 7.225,
              "duration": 0.216667
            },
            {
              "pitch": 64,
              "velocity": 41,
              "position": 7.241667,
              "duration": 0.2
            },
            {
              "pitch": 59,
              "velocity": 41,
              "position": 7.25,
              "duration": 0.191667
            },
            {
              "pitch": 55,
              "velocity": 36,
              "position": 7.258333,
              "duration": 0.183333
            },
            {
              "pitch": 48,
              "velocity": 41,
              "position": 7.475,
              "duration": 0.175
            },
            {
              "pitch": 55,
              "velocity": 49,
              "position": 7.483333,
              "duration": 0.166667
            },
            {
              "pitch": 59,
              "velocity": 49,
              "position": 7.491667,
              "duration": 0.158333
            },
            {
              "pitch": 64,
              "velocity": 49,
              "position": 7.508333,
              "duration": 0.141667
            },
            {
              "pitch": 67,
              "velocity": 49,
              "position": 7.516667,
              "duration": 0.133333
            },
            {
              "pitch": 55,
              "velocity": 59,
              "position": 7.975,
              "duration": 0.158333
            },
            {
              "pitch": 59,
              "velocity": 59,
              "position": 7.991667,
              "duration": 0.141667
            },
            {
              "pitch": 64,
              "velocity": 59,
              "position": 8.0,
              "duration": 0.133333
            },
            {
              "pitch": 67,
              "velocity": 59,
              "position": 8.008333,
              "duration": 0.125
            },
            {
              "pitch": 67,
              "velocity": 39,
              "position": 8.725,
              "duration": 0.216667
            },
            {
              "pitch": 64,
              "velocity": 45,
              "position": 8.741667,
              "duration": 0.2
            },
            {
              "pitch": 59,
              "velocity": 45,
              "position": 8.75,
              "duration": 0.191667
            },
            {
              "pitch": 55,
              "velocity": 39,
              "position": 8.758333,
              "duration": 0.183333
            },
            {
              "pitch": 67,
              "velocity": 42,
              "position": 9.225,
              "duration": 0.275
            },
            {
              "pitch": 64,
              "velocity": 48,
              "position": 9.241667,
              "duration": 0.241667
            },
            {
              "pitch": 59,
              "velocity": 48,
              "position": 9.25,
              "duration": 0.225
            },
            {
              "pitch": 55,
              "velocity": 42,
              "position": 9.258333,
              "duration": 0.2
            },
            {
              "pitch": 55,
              "velocity": 51,
              "position": 9.475,
              "duration": 0.191667
            },
            {
              "pitch": 59,
              "velocity": 51,
              "position": 9.491667,
              "duration": 0.175
            },
            {
              "pitch": 64,
              "velocity": 51,
              "position": 9.5,
              "duration": 0.166667
            },
            {
              "pitch": 67,
              "velocity": 51,
              "position": 9.508333,
              "duration": 0.158333
            },
            {
              "pitch": 67,
              "velocity": 28,
              "position": 9.725,
              "duration": 0.208333
            },
            {
              "pitch": 64,
              "velocity": 32,
              "position": 9.741667,
              "duration": 0.191667
            },
            {
              "pitch": 59,
              "velocity": 32,
              "position": 9.75,
              "duration": 0.183333
            },
            {
              "pitch": 55,
              "velocity": 28,
              "position": 9.758333,
              "duration": 0.175
            },
            {
              "pitch": 55,
              "velocity": 63,
              "position": 9.975,
              "duration": 0.25
            },
            {
              "pitch": 59,
              "velocity": 63,
              "position": 9.991667,
              "duration": 0.233333
            },
            {
              "pitch": 64,
              "velocity": 63,
              "position": 10.0,
              "duration": 0.225
            },
            {
              "pitch": 67,
              "velocity": 63,
              "position": 10.008333,
              "duration": 0.2
            },
            {
              "pitch": 67,
              "velocity": 27,
              "position": 10.225,
              "duration": 0.266667
            },
            {
              "pitch": 64,
              "velocity": 31,
              "position": 10.241667,
              "duration": 0.25
            },
            {
              "pitch": 59,
              "velocity": 31,
              "position": 10.25,
              "duration": 0.225
            },
            {
              "pitch": 55,
              "velocity": 27,
              "position": 10.258333,
              "duration": 0.2
            },
            {
              "pitch": 55,
              "velocity": 62,
              "position": 10.475,
              "duration": 0.166667
            },
            {
              "pitch": 59,
              "velocity": 62,
              "position": 10.491667,
              "duration": 0.15
            },
            {
              "pitch": 64,
              "velocity": 62,
              "position": 10.5,
              "duration": 0.141667
            },
            {
              "pitch": 67,
              "velocity": 62,
              "position": 10.508333,
              "duration": 0.133333
            },
            {
              "pitch": 55,
              "velocity": 57,
              "position": 10.975,
              "duration": 0.25
            },
            {
              "pitch": 59,
              "velocity": 57,
              "position": 10.991667,
              "duration": 0.233333
            },
            {
              "pitch": 64,
              "velocity": 57,
              "position": 11.0,
              "duration": 0.225
            },
            {
              "pitch": 67,
              "velocity": 57,
              "position": 11.008333,
              "duration": 0.2
            },
            {
              "pitch": 67,
              "velocity": 32,
              "position": 11.225,
              "duration": 0.2
            },
            {
              "pitch": 64,
              "velocity": 36,
              "position": 11.241667,
              "duration": 0.183333
            },
            {
              "pitch": 59,
              "velocity": 36,
              "position": 11.25,
              "duration": 0.175
            },
            {
              "pitch": 55,
              "velocity": 32,
              "position": 11.258333,
              "duration": 0.166667
            },
            {
              "pitch": 55,
              "velocity": 53,
              "position": 11.475,
              "duration": 0.225
            },
            {
              "pitch": 59,
              "velocity": 53,
              "position": 11.491667,
              "duration": 0.208333
            },
            {
              "pitch": 64,
              "velocity": 53,
              "position": 11.5,
              "duration": 0.2
            },
            {
              "pitch": 67,
              "velocity": 53,
              "position": 11.508333,
              "duration": 0.191667
            },
            {
              "pitch": 67,
              "velocity": 46,
              "position": 12.725,
              "duration": 0.15
            },
            {
              "pitch": 64,
              "velocity": 52,
              "position": 12.741667,
              "duration": 0.133333
            },
            {
              "pitch": 59,
              "velocity": 52,
              "position": 12.75,
              "duration": 0.125
            },
            {
              "pitch": 55,
              "velocity": 46,
              "position": 12.758333,
              "duration": 0.116667
            },
            {
              "pitch": 67,
              "velocity": 41,
              "position": 13.225,
              "duration": 0.183333
            },
            {
              "pitch": 64,
              "velocity": 47,
              "position": 13.241667,
              "duration": 0.166667
            },
            {
              "pitch": 59,
              "velocity": 47,
              "position": 13.25,
              "duration": 0.158333
            },
            {
              "pitch": 55,
              "velocity": 41,
              "position": 13.258333,
              "duration": 0.15
            },
            {
              "pitch": 55,
              "velocity": 49,
              "position": 13.475,
              "duration": 0.2
            },
            {
              "pitch": 59,
              "velocity": 49,
              "position": 13.491667,
              "duration": 0.183333
            },
            {
              "pitch": 64,
              "velocity": 49,
              "position": 13.5,
              "duration": 0.175
            },
            {
              "pitch": 67,
              "velocity": 49,
              "position": 13.508333,
              "duration": 0.166667
            },
            {
              "pitch": 67,
              "velocity": 29,
              "position": 13.725,
              "duration": 0.2
            },
            {
              "pitch": 64,
              "velocity": 33,
              "position": 13.741667,
              "duration": 0.183333
            },
            {
              "pitch": 59,
              "velocity": 33,
              "position": 13.75,
              "duration": 0.175
            },
            {
              "pitch": 55,
              "velocity": 29,
              "position": 13.758333,
              "duration": 0.166667
            },
            {
              "pitch": 55,
              "velocity": 59,
              "position": 13.975,
              "duration": 0.25
            },
            {
              "pitch": 59,
              "velocity": 59,
              "position": 13.991667,
              "duration": 0.233333
            },
            {
              "pitch": 64,
              "velocity": 59,
              "position": 14.0,
              "duration": 0.225
            },
            {
              "pitch": 67,
              "velocity": 59,
              "position": 14.008333,
              "duration": 0.2
            },
            {
              "pitch": 67,
              "velocity": 27,
              "position": 14.225,
              "duration": 0.2
            },
            {
              "pitch": 64,
              "velocity": 31,
              "position": 14.241667,
              "duration": 0.183333
            },
            {
              "pitch": 59,
              "velocity": 31,
              "position": 14.25,
              "duration": 0.175
            },
            {
              "pitch": 55,
              "velocity": 27,
              "position": 14.258333,
              "duration": 0.166667
            },
            {
              "pitch": 55,
              "velocity": 60,
              "position": 14.475,
              "duration": 0.208333
            },
            {
              "pitch": 59,
              "velocity": 60,
              "position": 14.491667,
              "duration": 0.191667
            },
            {
              "pitch": 64,
              "velocity": 60,
              "position": 14.5,
              "duration": 0.183333
            },
            {
              "pitch": 67,
              "velocity": 60,
              "position": 14.508333,
              "duration": 0.175
            },
            {
              "pitch": 55,
              "velocity": 59,
              "position": 14.975,
              "duration": 0.158333
            },
            {
              "pitch": 59,
              "velocity": 59,
              "position": 14.991667,
              "duration": 0.141667
            },
            {
              "pitch": 64,
              "velocity": 59,
              "position": 15.0,
              "duration": 0.133333
            },
            {
              "pitch": 67,
              "velocity": 59,
              "position": 15.008333,
              "duration": 0.125
            },
            {
              "pitch": 67,
              "velocity": 32,
              "position": 15.225,
              "duration": 0.225
            },
            {
              "pitch": 64,
              "velocity": 37,
              "position": 15.241667,
              "duration": 0.208333
            },
            {
              "pitch": 59,
              "velocity": 37,
              "position": 15.25,
              "duration": 0.2
            },
            {
              "pitch": 55,
              "velocity": 32,
              "position": 15.258333,
              "duration": 0.191667
            },
            {
              "pitch": 55,
              "velocity": 69,
              "position": 15.475,
              "duration": 0.141667
            },
            {
              "pitch": 59,
              "velocity": 69,
              "position": 15.491667,
              "duration": 0.125
            },
            {
              "pitch": 64,
              "velocity": 69,
              "position": 15.5,
              "duration": 0.116667
            },
            {
              "pitch": 67,
              "velocity": 69,
              "position": 15.508333,
              "duration": 0.108333
            },
            {
              "pitch": 55,
              "velocity": 54,
              "position": 15.975,
              "duration": 0.141667
            },
            {
              "pitch": 59,
              "velocity": 54,
              "position": 15.991667,
              "duration": 0.125
            }
          ]
        },
        "13": {
          "ctab": {
            "srcChannel": 13,
            "name": "Strings",
            "accType": "PAD",
            "editable": true,
            "mutedNotes": [],
            "mutedChords": [],
            "sourceChordNote": 0,
            "sourceChordType": "Maj7",
            "ctb2Main": {
              "ntr": "ROOT_FIXED",
              "ntt": "MELODY",
              "bassOn": false,
              "noteLowLimit": 36,
              "noteHighLimit": 96,
              "chordRootUpperLimit": 127,
              "rtr": "PITCH_SHIFT"
            }
          },
          "notes": []
        }
      }
    },
    "Main_C": {
      "type": "Main_C",
      "sizeInBeats": 16,
      "channels": {
        "9": {
          "ctab": {
            "srcChannel": 9,
            "name": "Drums",
            "accType": "RHYTHM",
            "editable": false,
            "mutedNotes": [],
            "mutedChords": [],
            "sourceChordNote": 0,
            "sourceChordType": "Maj",
            "ctb2Main": {
              "ntr": "ROOT_FIXED",
              "ntt": "BYPASS",
              "bassOn": false,
              "noteLowLimit": 20,
              "noteHighLimit": 127,
              "chordRootUpperLimit": 127,
              "rtr": "RETRIGGER"
            }
          },
          "notes": [
            {
              "pitch": 35,
              "velocity": 80,
              "position": 0.0,
              "duration": 0.208333
            },
            {
              "pitch": 49,
              "velocity": 92,
              "position": 0.0,
              "duration": 0.208333
            },
            {
              "pitch": 56,
              "velocity": 70,
              "position": 0.0,
              "duration": 0.208333
            },
            {
              "pitch": 63,
              "velocity": 80,
              "position": 0.0,
              "duration": 0.083333
            },
            {
              "pitch": 69,
              "velocity": 80,
              "position": 0.0,
              "duration": 0.208333
            },
            {
              "pitch": 35,
              "velocity": 60,
              "position": 0.25,
              "duration": 0.208333
            },
            {
              "pitch": 42,
              "velocity": 92,
              "position": 0.25,
              "duration": 0.208333
            },
            {
              "pitch": 62,
              "velocity": 60,
              "position": 0.25,
              "duration": 0.208333
            },
            {
              "pitch": 69,
              "velocity": 60,
              "position": 0.25,
              "duration": 0.208333
            },
            {
              "pitch": 42,
              "velocity": 60,
              "position": 0.5,
              "duration": 0.208333
            },
            {
              "pitch": 63,
              "velocity": 50,
              "position": 0.5,
              "duration": 0.208333
            },
            {
              "pitch": 70,
              "velocity": 70,
              "position": 0.5,
              "duration": 0.208333
            },
            {
              "pitch": 42,
              "velocity": 40,
              "position": 0.75,
              "duration": 0.208333
            },
            {
              "pitch": 63,
              "velocity": 40,
              "position": 0.75,
              "duration": 0.208333
            },
            {
              "pitch": 38,
              "velocity": 80,
              "position": 1.0,
              "duration": 0.208333
            },
            {
              "pitch": 39,
              "velocity": 92,
              "position": 1.0,
              "duration": 0.208333
            },
            {
              "pitch": 42,
              "velocity": 80,
              "position": 1.0,
              "duration": 0.208333
            },
            {
              "pitch": 54,
              "velocity": 92,
              "position": 1.0,
              "duration": 0.208333
            },
            {
              "pitch": 56,
              "velocity": 70,
              "position": 1.0,
              "duration": 0.208333
            },
            {
              "pitch": 62,
              "velocity": 80,
              "position": 1.0,
              "duration": 0.208333
            },
            {
              "pitch": 69,
              "velocity": 80,
              "position": 1.0,
              "duration": 0.208333
            },
            {
              "pitch": 42,
              "velocity": 40,
              "position": 1.25,
              "duration": 0.208333
            },
            {
              "pitch": 63,
              "velocity": 60,
              "position": 1.25,
              "duration": 0.208333
            },
            {
              "pitch": 69,
              "velocity": 50,
              "position": 1.25,
              "duration": 0.208333
            },
            {
              "pitch": 42,
              "velocity": 60,
              "position": 1.5,
              "duration": 0.208333
            },
            {
              "pitch": 63,
              "velocity": 50,
              "position": 1.5,
              "duration": 0.208333
            },
            {
              "pitch": 70,
              "velocity": 70,
              "position": 1.5,
              "duration": 0.208333
            },
            {
              "pitch": 35,
              "velocity": 80,
              "position": 1.75,
              "duration": 0.208333
            },
            {
              "pitch": 42,
              "velocity": 50,
              "position": 1.75,
              "duration": 0.208333
            },
            {
              "pitch": 63,
              "velocity": 40,
              "position": 1.75,
              "duration": 0.208333
            },
            {
              "pitch": 42,
              "velocity": 70,
              "position": 2.0,
              "duration": 0.208333
            },
            {
              "pitch": 56,
              "velocity": 70,
              "position": 2.0,
              "duration": 0.208333
            },
            {
              "pitch": 63,
              "velocity": 40,
              "position": 2.0,
              "duration": 0.208333
            },
            {
              "pitch": 69,
              "velocity": 70,
              "position": 2.0,
              "duration": 0.208333
            },
            {
              "pitch": 35,
              "velocity": 70,
              "position": 2.25,
              "duration": 0.208333
            },
            {
              "pitch": 42,
              "velocity": 80,
              "position": 2.25,
              "duration": 0.208333
            },
            {
              "pitch": 62,
              "velocity": 80,
              "position": 2.25,
              "duration": 0.208333
            },
            {
              "pitch": 69,
              "velocity": 50,
              "position": 2.25,
              "duration": 0.208333
            },
            {
              "pitch": 35,
              "velocity": 60,
              "position": 2.5,
              "duration": 0.208333
            },
            {
              "pitch": 42,
              "velocity": 50,
              "position": 2.5,
              "duration": 0.208333
            },
            {
              "pitch": 63,
              "velocity": 60,
              "position": 2.5,
              "duration": 0.208333
            },
            {
              "pitch": 70,
              "velocity": 60,
              "position": 2.5,
              "duration": 0.208333
            },
            {
              "pitch": 42,
              "velocity": 60,
              "position": 2.75,
              "duration": 0.208333
            },
            {
              "pitch": 63,
              "velocity": 40,
              "position": 2.75,
              "duration": 0.208333
            },
            {
              "pitch": 38,
              "velocity": 40,
              "position": 2.875,
              "duration": 0.125
            },
            {
              "pitch": 38,
              "velocity": 80,
              "position": 3.0,
              "duration": 0.083333
            },
            {
              "pitch": 39,
              "velocity": 92,
              "position": 3.0,
              "duration": 0.208333
            },
            {
              "pitch": 42,
              "velocity": 70,
              "position": 3.0,
              "duration": 0.208333
            },
            {
              "pitch": 54,
              "velocity": 92,
              "position": 3.0,
              "duration": 0.208333
            },
            {
              "pitch": 56,
              "velocity": 70,
              "position": 3.0,
              "duration": 0.208333
            },
            {
              "pitch": 63,
              "velocity": 80,
              "position": 3.0,
              "duration": 0.208333
            },
            {
              "pitch": 69,
              "velocity": 80,
              "position": 3.0,
              "duration": 0.208333
            },
            {
              "pitch": 42,
              "velocity": 50,
              "position": 3.25,
              "duration": 0.208333
            },
            {
              "pitch": 62,
              "velocity": 80,
              "position": 3.25,
              "duration": 0.208333
            },
            {
              "pitch": 69,
              "velocity": 50,
              "position": 3.25,
              "duration": 0.208333
            },
            {
              "pitch": 46,
              "velocity": 70,
              "position": 3.5,
              "duration": 0.208333
            },
            {
              "pitch": 62,
              "velocity": 60,
              "position": 3.5,
              "duration": 0.208333
            },
            {
              "pitch": 70,
              "velocity": 70,
              "position": 3.5,
              "duration": 0.208333
            },
            {
              "pitch": 63,
              "velocity": 40,
              "position": 3.75,
              "duration": 0.208333
            },
            {
              "pitch": 35,
              "velocity": 80,
              "position": 4.0,
              "duration": 0.208333
            },
            {
              "pitch": 42,
              "velocity": 80,
              "position": 4.0,
              "duration": 0.208333
            },
            {
              "pitch": 56,
              "velocity": 70,
              "position": 4.0,
              "duration": 0.208333
            },
            {
              "pitch": 63,
              "velocity": 80,
              "position": 4.0,
              "duration": 0.208333
            },
            {
              "pitch": 69,
              "velocity": 80,
              "position": 4.0,
              "duration": 0.208333
            },
            {
              "pitch": 35,
              "velocity": 60,
              "position": 4.25,
              "duration": 0.208333
            },
            {
              "pitch": 42,
              "velocity": 50,
              "position": 4.25,
              "duration": 0.208333
            },
            {
              "pitch": 62,
              "velocity": 60,
              "position": 4.25,
              "duration": 0.208333
            },
            {
              "pitch": 69,
              "velocity": 60,
              "position": 4.25,
              "duration": 0.208333
            },
            {
              "pitch": 42,
              "velocity": 60,
              "position": 4.5,
              "duration": 0.208333
            },
            {
              "pitch": 63,
              "velocity": 50,
              "position": 4.5,
              "duration": 0.208333
            },
            {
              "pitch": 70,
              "velocity": 70,
              "position": 4.5,
              "duration": 0.208333
            },
            {
              "pitch": 42,
              "velocity": 40,
              "position": 4.75,
              "duration": 0.208333
            },
            {
              "pitch": 63,
              "velocity": 40,
              "position": 4.75,
              "duration": 0.208333
            },
            {
              "pitch": 38,
              "velocity": 80,
              "position": 5.0,
              "duration": 0.208333
            },
            {
              "pitch": 39,
              "velocity": 92,
              "position": 5.0,
              "duration": 0.208333
            },
            {
              "pitch": 42,
              "velocity": 80,
              "position": 5.0,
              "duration": 0.208333
            },
            {
              "pitch": 54,
              "velocity": 92,
              "position": 5.0,
              "duration": 0.208333
            },
            {
              "pitch": 56,
              "velocity": 70,
              "position": 5.0,
              "duration": 0.208333
            },
            {
              "pitch": 62,
              "velocity": 80,
              "position": 5.0,
              "duration": 0.208333
            },
            {
              "pitch": 69,
              "velocity": 80,
              "position": 5.0,
              "duration": 0.208333
            },
            {
              "pitch": 42,
              "velocity": 40,
              "position": 5.25,
              "duration": 0.208333
            },
            {
              "pitch": 63,
              "velocity": 60,
              "position": 5.25,
              "duration": 0.208333
            },
            {
              "pitch": 69,
              "velocity": 50,
              "position": 5.25,
              "duration": 0.208333
            },
            {
              "pitch": 42,
              "velocity": 60,
              "position": 5.5,
              "duration": 0.208333
            },
            {
              "pitch": 63,
              "velocity": 50,
              "position": 5.5,
              "duration": 0.208333
            },
            {
              "pitch": 70,
              "velocity": 70,
              "position": 5.5,
              "duration": 0.208333
            },
            {
              "pitch": 35,
              "velocity": 80,
              "position": 5.75,
              "duration": 0.208333
            },
            {
              "pitch": 42,
              "velocity": 50,
              "position": 5.75,
              "duration": 0.208333
            },
            {
              "pitch": 63,
              "velocity": 40,
              "position": 5.75,
              "duration": 0.208333
            },
            {
              "pitch": 42,
              "velocity": 70,
              "position": 6.0,
              "duration": 0.208333
            },
            {
              "pitch": 56,
              "velocity": 70,
              "position": 6.0,
              "duration": 0.208333
            },
            {
              "pitch": 63,
              "velocity": 40,
              "position": 6.0,
              "duration": 0.208333
            },
            {
              "pitch": 69,
              "velocity": 70,
              "position": 6.0,
              "duration": 0.208333
            },
            {
              "pitch": 35,
              "velocity": 70,
              "position": 6.25,
              "duration": 0.208333
            },
            {
              "pitch": 42,
              "velocity": 80,
              "position": 6.25,
              "duration": 0.208333
            },
            {
              "pitch": 62,
              "velocity": 80,
              "position": 6.25,
              "duration": 0.208333
            },
            {
              "pitch": 69,
              "velocity": 50,
              "position": 6.25,
              "duration": 0.208333
            },
            {
              "pitch": 35,
              "velocity": 60,
              "position": 6.5,
              "duration": 0.208333
            },
            {
              "pitch": 42,
              "velocity": 50,
              "position": 6.5,
              "duration": 0.208333
            },
            {
              "pitch": 63,
              "velocity": 60,
              "position": 6.5,
              "duration": 0.208333
            },
            {
              "pitch": 70,
              "velocity": 60,
              "position": 6.5,
              "duration": 0.208333
            },
            {
              "pitch": 42,
              "velocity": 60,
              "position": 6.75,
              "duration": 0.208333
            },
            {
              "pitch": 63,
              "velocity": 40,
              "position": 6.75,
              "duration": 0.208333
            },
            {
              "pitch": 38,
              "velocity": 40,
              "position": 6.875,
              "duration": 0.125
            },
            {
              "pitch": 38,
              "velocity": 80,
              "position": 7.0,
              "duration": 0.083333
            },
            {
              "pitch": 39,
              "velocity": 92,
              "position": 7.0,
              "duration": 0.208333
            },
            {
              "pitch": 42,
              "velocity": 70,
              "position": 7.0,
              "duration": 0.208333
            },
            {
              "pitch": 54,
              "velocity": 92,
              "position": 7.0,
              "duration": 0.208333
            },
            {
              "pitch": 56,
              "velocity": 70,
              "position": 7.0,
              "duration": 0.208333
            },
            {
              "pitch": 63,
              "velocity": 80,
              "position": 7.0,
              "duration": 0.208333
            },
            {
              "pitch": 69,
              "velocity": 80,
              "position": 7.0,
              "duration": 0.208333
            },
            {
              "pitch": 42,
              "velocity": 50,
              "position": 7.25,
              "duration": 0.208333
            },
            {
              "pitch": 62,
              "velocity": 80,
              "position": 7.25,
              "duration": 0.208333
            },
            {
              "pitch": 69,
              "velocity": 50,
              "position": 7.25,
              "duration": 0.208333
            },
            {
              "pitch": 46,
              "velocity": 70,
              "position": 7.5,
              "duration": 0.208333
            },
            {
              "pitch": 62,
              "velocity": 60,
              "position": 7.5,
              "duration": 0.208333
            },
            {
              "pitch": 70,
              "velocity": 70,
              "position": 7.5,
              "duration": 0.208333
            },
            {
              "pitch": 63,
              "velocity": 40,
              "position": 7.75,
              "duration": 0.208333
            },
            {
              "pitch": 35,
              "velocity": 80,
              "position": 8.0,
              "duration": 0.208333
            },
            {
              "pitch": 42,
              "velocity": 80,
              "position": 8.0,
              "duration": 0.208333
            },
            {
              "pitch": 56,
              "velocity": 70,
              "position": 8.0,
              "duration": 0.208333
            },
            {
              "pitch": 63,
              "velocity": 80,
              "position": 8.0,
              "duration": 0.208333
            },
            {
              "pitch": 69,
              "velocity": 80,
              "position": 8.0,
              "duration": 0.208333
            },
            {
              "pitch": 35,
              "velocity": 60,
              "position": 8.25,
              "duration": 0.208333
            },
            {
              "pitch": 42,
              "velocity": 50,
              "position": 8.25,
              "duration": 0.208333
            },
            {
              "pitch": 62,
              "velocity": 60,
              "position": 8.25,
              "duration": 0.208333
            },
            {
              "pitch": 69,
              "velocity": 60,
              "position": 8.25,
              "duration": 0.208333
            },
            {
              "pitch": 42,
              "velocity": 60,
              "position": 8.5,
              "duration": 0.208333
            },
            {
              "pitch": 63,
              "velocity": 50,
              "position": 8.5,
              "duration": 0.208333
            },
            {
              "pitch": 70,
              "velocity": 70,
              "position": 8.5,
              "duration": 0.208333
            },
            {
              "pitch": 42,
              "velocity": 40,
              "position": 8.75,
              "duration": 0.208333
            },
            {
              "pitch": 63,
              "velocity": 40,
              "position": 8.75,
              "duration": 0.208333
            },
            {
              "pitch": 38,
              "velocity": 80,
              "position": 9.0,
              "duration": 0.208333
            },
            {
              "pitch": 39,
              "velocity": 92,
              "position": 9.0,
              "duration": 0.208333
            },
            {
              "pitch": 42,
              "velocity": 80,
              "position": 9.0,
              "duration": 0.208333
            },
            {
              "pitch": 54,
              "velocity": 92,
              "position": 9.0,
              "duration": 0.208333
            },
            {
              "pitch": 56,
              "velocity": 70,
              "position": 9.0,
              "duration": 0.208333
            },
            {
              "pitch": 62,
              "velocity": 80,
              "position": 9.0,
              "duration": 0.208333
            },
            {
              "pitch": 69,
              "velocity": 80,
              "position": 9.0,
              "duration": 0.208333
            },
            {
              "pitch": 42,
              "velocity": 40,
              "position": 9.25,
              "duration": 0.208333
            },
            {
              "pitch": 63,
              "velocity": 60,
              "position": 9.25,
              "duration": 0.208333
            },
            {
              "pitch": 69,
              "velocity": 50,
              "position": 9.25,
              "duration": 0.208333
            },
            {
              "pitch": 42,
              "velocity": 60,
              "position": 9.5,
              "duration": 0.208333
            },
            {
              "pitch": 63,
              "velocity": 50,
              "position": 9.5,
              "duration": 0.208333
            },
            {
              "pitch": 70,
              "velocity": 70,
              "position": 9.5,
              "duration": 0.208333
            },
            {
              "pitch": 35,
              "velocity": 80,
              "position": 9.75,
              "duration": 0.208333
            },
            {
              "pitch": 42,
              "velocity": 50,
              "position": 9.75,
              "duration": 0.208333
            },
            {
              "pitch": 63,
              "velocity": 40,
              "position": 9.75,
              "duration": 0.208333
            },
            {
              "pitch": 42,
              "velocity": 70,
              "position": 10.0,
              "duration": 0.208333
            },
            {
              "pitch": 56,
              "velocity": 70,
              "position": 10.0,
              "duration": 0.208333
            },
            {
              "pitch": 63,
              "velocity": 40,
              "position": 10.0,
              "duration": 0.208333
            },
            {
              "pitch": 69,
              "velocity": 70,
              "position": 10.0,
              "duration": 0.208333
            },
            {
              "pitch": 35,
              "velocity": 70,
              "position": 10.25,
              "duration": 0.208333
            },
            {
              "pitch": 42,
              "velocity": 80,
              "position": 10.25,
              "duration": 0.208333
            },
            {
              "pitch": 62,
              "velocity": 80,
              "position": 10.25,
              "duration": 0.208333
            },
            {
              "pitch": 69,
              "velocity": 50,
              "position": 10.25,
              "duration": 0.208333
            },
            {
              "pitch": 35,
              "velocity": 60,
              "position": 10.5,
              "duration": 0.208333
            },
            {
              "pitch": 42,
              "velocity": 50,
              "position": 10.5,
              "duration": 0.208333
            },
            {
              "pitch": 63,
              "velocity": 60,
              "position": 10.5,
              "duration": 0.208333
            },
            {
              "pitch": 70,
              "velocity": 60,
              "position": 10.5,
              "duration": 0.208333
            },
            {
              "pitch": 42,
              "velocity": 60,
              "position": 10.75,
              "duration": 0.208333
            },
            {
              "pitch": 63,
              "velocity": 40,
              "position": 10.75,
              "duration": 0.208333
            },
            {
              "pitch": 38,
              "velocity": 40,
              "position": 10.875,
              "duration": 0.125
            },
            {
              "pitch": 38,
              "velocity": 80,
              "position": 11.0,
              "duration": 0.083333
            },
            {
              "pitch": 39,
              "velocity": 92,
              "position": 11.0,
              "duration": 0.208333
            },
            {
              "pitch": 42,
              "velocity": 70,
              "position": 11.0,
              "duration": 0.208333
            },
            {
              "pitch": 54,
              "velocity": 92,
              "position": 11.0,
              "duration": 0.208333
            },
            {
              "pitch": 56,
              "velocity": 70,
              "position": 11.0,
              "duration": 0.208333
            },
            {
              "pitch": 63,
              "velocity": 80,
              "position": 11.0,
              "duration": 0.208333
            },
            {
              "pitch": 69,
              "velocity": 80,
              "position": 11.0,
              "duration": 0.208333
            },
            {
              "pitch": 42,
              "velocity": 50,
              "position": 11.25,
              "duration": 0.208333
            },
            {
              "pitch": 62,
              "velocity": 80,
              "position": 11.25,
              "duration": 0.208333
            },
            {
              "pitch": 69,
              "velocity": 50,
              "position": 11.25,
              "duration": 0.208333
            },
            {
              "pitch": 46,
              "velocity": 70,
              "position": 11.5,
              "duration": 0.208333
            },
            {
              "pitch": 62,
              "velocity": 60,
              "position": 11.5,
              "duration": 0.208333
            },
            {
              "pitch": 70,
              "velocity": 70,
              "position": 11.5,
              "duration": 0.208333
            },
            {
              "pitch": 63,
              "velocity": 40,
              "position": 11.75,
              "duration": 0.208333
            },
            {
              "pitch": 35,
              "velocity": 80,
              "position": 12.0,
              "duration": 0.208333
            },
            {
              "pitch": 42,
              "velocity": 50,
              "position": 12.0,
              "duration": 0.208333
            },
            {
              "pitch": 56,
              "velocity": 70,
              "position": 12.0,
              "duration": 0.208333
            },
            {
              "pitch": 69,
              "velocity": 80,
              "position": 12.0,
              "duration": 0.208333
            },
            {
              "pitch": 35,
              "velocity": 60,
              "position": 12.25,
              "duration": 0.208333
            },
            {
              "pitch": 38,
              "velocity": 70,
              "position": 12.25,
              "duration": 0.208333
            },
            {
              "pitch": 42,
              "velocity": 80,
              "position": 12.25,
              "duration": 0.208333
            },
            {
              "pitch": 62,
              "velocity": 60,
              "position": 12.25,
              "duration": 0.208333
            },
            {
              "pitch": 69,
              "velocity": 60,
              "position": 12.25,
              "duration": 0.208333
            },
            {
              "pitch": 42,
              "velocity": 60,
              "position": 12.5,
              "duration": 0.208333
            },
            {
              "pitch": 63,
              "velocity": 50,
              "position": 12.5,
              "duration": 0.208333
            },
            {
              "pitch": 70,
              "velocity": 70,
              "position": 12.5,
              "duration": 0.208333
            },
            {
              "pitch": 42,
              "velocity": 40,
              "position": 12.75,
              "duration": 0.208333
            },
            {
              "pitch": 63,
              "velocity": 50,
              "position": 12.75,
              "duration": 0.208333
            },
            {
              "pitch": 38,
              "velocity": 90,
              "position": 13.0,
              "duration": 0.208333
            },
            {
              "pitch": 39,
              "velocity": 92,
              "position": 13.0,
              "duration": 0.208333
            },
            {
              "pitch": 42,
              "velocity": 80,
              "position": 13.0,
              "duration": 0.208333
            },
            {
              "pitch": 54,
              "velocity": 92,
              "position": 13.0,
              "duration": 0.208333
            },
            {
              "pitch": 56,
              "velocity": 92,
              "position": 13.0,
              "duration": 0.208333
            },
            {
              "pitch": 62,
              "velocity": 80,
              "position": 13.0,
              "duration": 0.208333
            },
            {
              "pitch": 69,
              "velocity": 80,
              "position": 13.0,
              "duration": 0.208333
            },
            {
              "pitch": 42,
              "velocity": 50,
              "position": 13.25,
              "duration": 0.208333
            },
            {
              "pitch": 63,
              "velocity": 70,
              "position": 13.25,
              "duration": 0.208333
            },
            {
              "pitch": 69,
              "velocity": 50,
              "position": 13.25,
              "duration": 0.208333
            },
            {
              "pitch": 35,
              "velocity": 50,
              "position": 13.5,
              "duration": 0.208333
            },
            {
              "pitch": 42,
              "velocity": 70,
              "position": 13.5,
              "duration": 0.208333
            },
            {
              "pitch": 70,
              "velocity": 70,
              "position": 13.5,
              "duration": 0.208333
            },
            {
              "pitch": 35,
              "velocity": 90,
              "position": 13.75,
              "duration": 0.208333
            },
            {
              "pitch": 38,
              "velocity": 92,
              "position": 13.75,
              "duration": 0.125
            },
            {
              "pitch": 42,
              "velocity": 90,
              "position": 13.75,
              "duration": 0.208333
            },
            {
              "pitch": 63,
              "velocity": 80,
              "position": 13.75,
              "duration": 0.208333
            },
            {
              "pitch": 38,
              "velocity": 73,
              "position": 13.875,
              "duration": 0.083333
            },
            {
              "pitch": 42,
              "velocity": 60,
              "position": 14.0,
              "duration": 0.208333
            },
            {
              "pitch": 56,
              "velocity": 70,
              "position": 14.0,
              "duration": 0.208333
            },
            {
              "pitch": 62,
              "velocity": 50,
              "position": 14.0,
              "duration": 0.208333
            },
            {
              "pitch": 69,
              "velocity": 70,
              "position": 14.0,
              "duration": 0.208333
            },
            {
              "pitch": 35,
              "velocity": 70,
              "position": 14.25,
              "duration": 0.208333
            },
            {
              "pitch": 38,
              "velocity": 60,
              "position": 14.25,
              "duration": 0.208333
            },
            {
              "pitch": 42,
              "velocity": 90,
              "position": 14.25,
              "duration": 0.208333
            },
            {
              "pitch": 63,
              "velocity": 80,
              "position": 14.25,
              "duration": 0.208333
            },
            {
              "pitch": 69,
              "velocity": 50,
              "position": 14.25,
              "duration": 0.208333
            },
            {
              "pitch": 35,
              "velocity": 60,
              "position": 14.5,
              "duration": 0.208333
            },
            {
              "pitch": 38,
              "velocity": 80,
              "position": 14.5,
              "duration": 0.208333
            },
            {
              "pitch": 46,
              "velocity": 90,
              "position": 14.5,
              "duration": 0.208333
            },
            {
              "pitch": 63,
              "velocity": 90,
              "position": 14.5,
              "duration": 0.208333
            },
            {
              "pitch": 70,
              "velocity": 60,
              "position": 14.5,
              "duration": 0.208333
            },
            {
              "pitch": 63,
              "velocity": 40,
              "position": 14.75,
              "duration": 0.208333
            },
            {
              "pitch": 38,
              "velocity": 90,
              "position": 15.0,
              "duration": 0.208333
            },
            {
              "pitch": 39,
              "velocity": 92,
              "position": 15.0,
              "duration": 0.208333
            },
            {
              "pitch": 42,
              "velocity": 80,
              "position": 15.0,
              "duration": 0.208333
            },
            {
              "pitch": 54,
              "velocity": 92,
              "position": 15.0,
              "duration": 0.208333
            },
            {
              "pitch": 56,
              "velocity": 80,
              "position": 15.0,
              "duration": 0.208333
            },
            {
              "pitch": 62,
              "velocity": 92,
              "position": 15.0,
              "duration": 0.208333
            },
            {
              "pitch": 69,
              "velocity": 80,
              "position": 15.0,
              "duration": 0.208333
            },
            {
              "pitch": 38,
              "velocity": 60,
              "position": 15.25,
              "duration": 0.208333
            },
            {
              "pitch": 42,
              "velocity": 50,
              "position": 15.25,
              "duration": 0.208333
            },
            {
              "pitch": 63,
              "velocity": 80,
              "position": 15.25,
              "duration": 0.208333
            },
            {
              "pitch": 69,
              "velocity": 50,
              "position": 15.25,
              "duration": 0.208333
            },
            {
              "pitch": 46,
              "velocity": 70,
              "position": 15.5,
              "duration": 0.208333
            },
            {
              "pitch": 56,
              "velocity": 70,
              "position": 15.5,
              "duration": 0.208333
            },
            {
              "pitch": 63,
              "velocity": 92,
              "position": 15.5,
              "duration": 0.208333
            },
            {
              "pitch": 70,
              "velocity": 70,
              "position": 15.5,
              "duration": 0.208333
            },
            {
              "pitch": 35,
              "velocity": 60,
              "position": 15.75,
              "duration": 0.208333
            },
            {
              "pitch": 38,
              "velocity": 70,
              "position": 15.75,
              "duration": 0.208333
            },
            {
              "pitch": 63,
              "velocity": 50,
              "position": 15.75,
              "duration": 0.125
            },
            {
              "pitch": 63,
              "velocity": 40,
              "position": 15.875,
              "duration": 0.083333
            }
          ]
        },
        "10": {
          "ctab": {
            "srcChannel": 10,
            "name": "Bass",
            "accType": "BASS",
            "editable": true,
            "mutedNotes": [],
            "mutedChords": [],
            "sourceChordNote": 0,
            "sourceChordType": "Maj7",
            "ctb2Main": {
              "ntr": "ROOT_TRANSPOSITION",
              "ntt": "BYPASS",
              "bassOn": true,
              "noteLowLimit": 20,
              "noteHighLimit": 60,
              "chordRootUpperLimit": 127,
              "rtr": "NOTE_GENERATOR"
            }
          },
          "notes": [
            {
              "pitch": 36,
              "velocity": 79,
              "position": 0.0,
              "duration": 1.416667
            },
            {
              "pitch": 36,
              "velocity": 76,
              "position": 1.75,
              "duration": 0.391667
            },
            {
              "pitch": 36,
              "velocity": 83,
              "position": 2.5,
              "duration": 0.683333
            },
            {
              "pitch": 31,
              "velocity": 75,
              "position": 3.25,
              "duration": 0.1
            },
            {
              "pitch": 36,
              "velocity": 83,
              "position": 3.5,
              "duration": 0.291667
            },
            {
              "pitch": 36,
              "velocity": 65,
              "position": 4.0,
              "duration": 0.325
            },
            {
              "pitch": 36,
              "velocity": 79,
              "position": 4.5,
              "duration": 0.916667
            },
            {
              "pitch": 36,
              "velocity": 76,
              "position": 5.75,
              "duration": 0.391667
            },
            {
              "pitch": 36,
              "velocity": 83,
              "position": 6.5,
              "duration": 0.683333
            },
            {
              "pitch": 31,
              "velocity": 75,
              "position": 7.25,
              "duration": 0.1
            },
            {
              "pitch": 36,
              "velocity": 83,
              "position": 7.5,
              "duration": 0.291667
            },
            {
              "pitch": 36,
              "velocity": 90,
              "position": 8.0,
              "duration": 1.691667
            },
            {
              "pitch": 31,
              "velocity": 69,
              "position": 9.75,
              "duration": 0.141667
            },
            {
              "pitch": 36,
              "velocity": 77,
              "position": 10.0,
              "duration": 0.141667
            },
            {
              "pitch": 36,
              "velocity": 93,
              "position": 10.5,
              "duration": 0.633333
            },
            {
              "pitch": 36,
              "velocity": 60,
              "position": 11.25,
              "duration": 0.083333
            },
            {
              "pitch": 43,
              "velocity": 63,
              "position": 11.5,
              "duration": 0.291667
            },
            {
              "pitch": 43,
              "velocity": 60,
              "position": 12.25,
              "duration": 0.2
            },
            {
              "pitch": 36,
              "velocity": 90,
              "position": 12.5,
              "duration": 1.0
            },
            {
              "pitch": 31,
              "velocity": 75,
              "position": 13.75,
              "duration": 0.15
            },
            {
              "pitch": 36,
              "velocity": 87,
              "position": 14.0,
              "duration": 0.158333
            },
            {
              "pitch": 36,
              "velocity": 95,
              "position": 14.5,
              "duration": 0.616667
            },
            {
              "pitch": 36,
              "velocity": 92,
              "position": 15.25,
              "duration": 0.183333
            },
            {
              "pitch": 35,
              "velocity": 78,
              "position": 15.5,
              "duration": 0.275
            }
          ]
        },
        "11": {
          "ctab": {
            "srcChannel": 11,
            "name": "Piano",
            "accType": "CHORD1",
            "editable": true,
            "mutedNotes": [],
            "mutedChords": [],
            "sourceChordNote": 0,
            "sourceChordType": "Maj7",
            "ctb2Main": {
              "ntr": "ROOT_FIXED",
              "ntt": "CHORD",
              "bassOn": false,
              "noteLowLimit": 48,
              "noteHighLimit": 84,
              "chordRootUpperLimit": 127,
              "rtr": "NOTE_GENERATOR"
            }
          },
          "notes": [
            {
              "pitch": 48,
              "velocity": 70,
              "position": 0.008333,
              "duration": 1.658333
            },
            {
              "pitch": 64,
              "velocity": 55,
              "position": 0.016667,
              "duration": 0.383333
            },
            {
              "pitch": 67,
              "velocity": 70,
              "position": 0.016667,
              "duration": 0.383333
            },
            {
              "pitch": 71,
              "velocity": 73,
              "position": 0.483333,
              "duration": 1.183333
            },
            {
              "pitch": 59,
              "velocity": 53,
              "position": 0.5,
              "duration": 1.166667
            },
            {
              "pitch": 59,
              "velocity": 39,
              "position": 1.758333,
              "duration": 1.116667
            },
            {
              "pitch": 64,
              "velocity": 68,
              "position": 1.758333,
              "duration": 2.141667
            },
            {
              "pitch": 67,
              "velocity": 71,
              "position": 1.758333,
              "duration": 2.183333
            },
            {
              "pitch": 48,
              "velocity": 62,
              "position": 1.775,
              "duration": 2.15
            },
            {
              "pitch": 55,
              "velocity": 73,
              "position": 2.758333,
              "duration": 1.2
            },
            {
              "pitch": 59,
              "velocity": 73,
              "position": 3.033333,
              "duration": 0.891667
            },
            {
              "pitch": 48,
              "velocity": 68,
              "position": 4.0,
              "duration": 0.125
            },
            {
              "pitch": 59,
              "velocity": 39,
              "position": 4.0,
              "duration": 0.125
            },
            {
              "pitch": 64,
              "velocity": 70,
              "position": 4.0,
              "duration": 0.125
            },
            {
              "pitch": 67,
              "velocity": 86,
              "position": 4.0,
              "duration": 0.125
            },
            {
              "pitch": 48,
              "velocity": 62,
              "position": 4.5,
              "duration": 1.033333
            },
            {
              "pitch": 59,
              "velocity": 41,
              "position": 4.5,
              "duration": 1.033333
            },
            {
              "pitch": 64,
              "velocity": 66,
              "position": 4.5,
              "duration": 0.991667
            },
            {
              "pitch": 67,
              "velocity": 84,
              "position": 4.5,
              "duration": 0.991667
            },
            {
              "pitch": 59,
              "velocity": 39,
              "position": 5.758333,
              "duration": 1.116667
            },
            {
              "pitch": 64,
              "velocity": 68,
              "position": 5.758333,
              "duration": 2.141667
            },
            {
              "pitch": 67,
              "velocity": 71,
              "position": 5.758333,
              "duration": 2.183333
            },
            {
              "pitch": 48,
              "velocity": 62,
              "position": 5.775,
              "duration": 2.15
            },
            {
              "pitch": 55,
              "velocity": 73,
              "position": 6.758333,
              "duration": 1.2
            },
            {
              "pitch": 59,
              "velocity": 73,
              "position": 7.033333,
              "duration": 0.891667
            },
            {
              "pitch": 71,
              "velocity": 82,
              "position": 8.016667,
              "duration": 1.525
            },
            {
              "pitch": 60,
              "velocity": 56,
              "position": 8.033333,
              "duration": 1.466667
            },
            {
              "pitch": 64,
              "velocity": 72,
              "position": 8.033333,
              "duration": 1.5
            },
            {
              "pitch": 67,
              "velocity": 84,
              "position": 8.033333,
              "duration": 1.5
            },
            {
              "pitch": 67,
              "velocity": 68,
              "position": 9.758333,
              "duration": 1.808333
            },
            {
              "pitch": 59,
              "velocity": 55,
              "position": 9.766667,
              "duration": 1.566667
            },
            {
              "pitch": 64,
              "velocity": 62,
              "position": 9.766667,
              "duration": 1.925
            },
            {
              "pitch": 74,
              "velocity": 84,
              "position": 11.241667,
              "duration": 4.425
            },
            {
              "pitch": 59,
              "velocity": 41,
              "position": 12.016667,
              "duration": 1.65
            },
            {
              "pitch": 67,
              "velocity": 53,
              "position": 12.016667,
              "duration": 1.816667
            },
            {
              "pitch": 64,
              "velocity": 53,
              "position": 12.033333,
              "duration": 1.741667
            },
            {
              "pitch": 60,
              "velocity": 74,
              "position": 13.758333,
              "duration": 1.875
            },
            {
              "pitch": 64,
              "velocity": 60,
              "position": 14.0,
              "duration": 1.65
            },
            {
              "pitch": 67,
              "velocity": 60,
              "position": 14.483333,
              "duration": 1.166667
            }
          ]
        },
        "12": {
          "ctab": {
            "srcChannel": 12,
            "name": "Guitar",
            "accType": "CHORD2",
            "editable": true,
            "mutedNotes": [],
            "mutedChords": [],
            "sourceChordNote": 0,
            "sourceChordType": "Maj7",
            "ctb2Main": {
              "ntr": "ROOT_FIXED",
              "ntt": "CHORD",
              "bassOn": false,
              "noteLowLimit": 40,
              "noteHighLimit": 76,
              "chordRootUpperLimit": 127,
              "rtr": "NOTE_GENERATOR"
            }
          },
          "notes": [
            {
              "pitch": 64,
              "velocity": 54,
              "position": 0.0,
              "duration": 0.116667
            },
            {
              "pitch": 67,
              "velocity": 54,
              "position": 0.008333,
              "duration": 0.108333
            },
            {
              "pitch": 67,
              "velocity": 38,
              "position": 0.725,
              "duration": 0.166667
            },
            {
              "pitch": 64,
              "velocity": 44,
              "position": 0.741667,
              "duration": 0.15
            },
            {
              "pitch": 59,
              "velocity": 44,
              "position": 0.75,
              "duration": 0.141667
            },
            {
              "pitch": 55,
              "velocity": 38,
              "position": 0.758333,
              "duration": 0.133333
            },
            {
              "pitch": 67,
              "velocity": 40,
              "position": 2.225,
              "duration": 0.141667
            },
            {
              "pitch": 64,
              "velocity": 46,
              "position": 2.241667,
              "duration": 0.125
            },
            {
              "pitch": 59,
              "velocity": 46,
              "position": 2.25,
              "duration": 0.116667
            },
            {
              "pitch": 55,
              "velocity": 40,
              "position": 2.258333,
              "duration": 0.108333
            },
            {
              "pitch": 48,
              "velocity": 50,
              "position": 2.975,
              "duration": 0.258333
            },
            {
              "pitch": 55,
              "velocity": 59,
              "position": 2.983333,
              "duration": 0.25
            },
            {
              "pitch": 59,
              "velocity": 59,
              "position": 2.991667,
              "duration": 0.241667
            },
            {
              "pitch": 64,
              "velocity": 59,
              "position": 3.008333,
              "duration": 0.225
            },
            {
              "pitch": 67,
              "velocity": 59,
              "position": 3.016667,
              "duration": 0.191667
            },
            {
              "pitch": 67,
              "velocity": 31,
              "position": 3.225,
              "duration": 0.175
            },
            {
              "pitch": 64,
              "velocity": 36,
              "position": 3.241667,
              "duration": 0.158333
            },
            {
              "pitch": 59,
              "velocity": 36,
              "position": 3.25,
              "duration": 0.15
            },
            {
              "pitch": 55,
              "velocity": 31,
              "position": 3.258333,
              "duration": 0.141667
            },
            {
              "pitch": 67,
              "velocity": 37,
              "position": 4.725,
              "duration": 0.166667
            },
            {
              "pitch": 64,
              "velocity": 43,
              "position": 4.741667,
              "duration": 0.15
            },
            {
              "pitch": 59,
              "velocity": 43,
              "position": 4.75,
              "duration": 0.141667
            },
            {
              "pitch": 55,
              "velocity": 37,
              "position": 4.758333,
              "duration": 0.133333
            },
            {
              "pitch": 55,
              "velocity": 66,
              "position": 5.725,
              "duration": 0.466667
            },
            {
              "pitch": 59,
              "velocity": 66,
              "position": 5.741667,
              "duration": 0.45
            },
            {
              "pitch": 64,
              "velocity": 66,
              "position": 5.75,
              "duration": 0.441667
            },
            {
              "pitch": 67,
              "velocity": 66,
              "position": 5.758333,
              "duration": 0.433333
            },
            {
              "pitch": 67,
              "velocity": 28,
              "position": 6.225,
              "duration": 0.183333
            },
            {
              "pitch": 64,
              "velocity": 32,
              "position": 6.241667,
              "duration": 0.166667
            },
            {
              "pitch": 59,
              "velocity": 32,
              "position": 6.25,
              "duration": 0.158333
            },
            {
              "pitch": 55,
              "velocity": 28,
              "position": 6.258333,
              "duration": 0.15
            },
            {
              "pitch": 55,
              "velocity": 65,
              "position": 6.975,
              "duration": 0.233333
            },
            {
              "pitch": 59,
              "velocity": 65,
              "position": 6.991667,
              "duration": 0.216667
            },
            {
              "pitch": 64,
              "velocity": 65,
              "position": 7.0,
              "duration": 0.208333
            },
            {
              "pitch": 67,
              "velocity": 65,
              "position": 7.008333,
              "duration": 0.2
            },
            {
              "pitch": 55,
              "velocity": 59,
              "position": 7.725,
              "duration": 0.391667
            },
            {
              "pitch": 59,
              "velocity": 59,
              "position": 7.741667,
              "duration": 0.375
            },
            {
              "pitch": 64,
              "velocity": 59,
              "position": 7.75,
              "duration": 0.366667
            },
            {
              "pitch": 67,
              "velocity": 59,
              "position": 7.758333,
              "duration": 0.358333
            },
            {
              "pitch": 67,
              "velocity": 39,
              "position": 8.725,
              "duration": 0.216667
            },
            {
              "pitch": 64,
              "velocity": 45,
              "position": 8.741667,
              "duration": 0.2
            },
            {
              "pitch": 59,
              "velocity": 45,
              "position": 8.75,
              "duration": 0.191667
            },
            {
              "pitch": 55,
              "velocity": 39,
              "position": 8.758333,
              "duration": 0.183333
            },
            {
              "pitch": 67,
              "velocity": 42,
              "position": 9.225,
              "duration": 0.275
            },
            {
              "pitch": 64,
              "velocity": 48,
              "position": 9.241667,
              "duration": 0.241667
            },
            {
              "pitch": 59,
              "velocity": 48,
              "position": 9.25,
              "duration": 0.225
            },
            {
              "pitch": 55,
              "velocity": 42,
              "position": 9.258333,
              "duration": 0.2
            },
            {
              "pitch": 55,
              "velocity": 51,
              "position": 9.475,
              "duration": 0.191667
            },
            {
              "pitch": 59,
              "velocity": 51,
              "position": 9.491667,
              "duration": 0.175
            },
            {
              "pitch": 64,
              "velocity": 51,
              "position": 9.5,
              "duration": 0.166667
            },
            {
              "pitch": 67,
              "velocity": 51,
              "position": 9.508333,
              "duration": 0.158333
            },
            {
              "pitch": 67,
              "velocity": 28,
              "position": 9.725,
              "duration": 0.208333
            },
            {
              "pitch": 64,
              "velocity": 32,
              "position": 9.741667,
              "duration": 0.191667
            },
            {
              "pitch": 59,
              "velocity": 32,
              "position": 9.75,
              "duration": 0.183333
            },
            {
              "pitch": 55,
              "velocity": 28,
              "position": 9.758333,
              "duration": 0.175
            },
            {
              "pitch": 55,
              "velocity": 63,
              "position": 9.975,
              "duration": 0.25
            },
            {
              "pitch": 59,
              "velocity": 63,
              "position": 9.991667,
              "duration": 0.233333
            },
            {
              "pitch": 64,
              "velocity": 63,
              "position": 10.0,
              "duration": 0.225
            },
            {
              "pitch": 67,
              "velocity": 63,
              "position": 10.008333,
              "duration": 0.2
            },
            {
              "pitch": 67,
              "velocity": 27,
              "position": 10.225,
              "duration": 0.266667
            },
            {
              "pitch": 64,
              "velocity": 31,
              "position": 10.241667,
              "duration": 0.25
            },
            {
              "pitch": 59,
              "velocity": 31,
              "position": 10.25,
              "duration": 0.225
            },
            {
              "pitch": 55,
              "velocity": 27,
              "position": 10.258333,
              "duration": 0.2
            },
            {
              "pitch": 55,
              "velocity": 62,
              "position": 10.475,
              "duration": 0.166667
            },
            {
              "pitch": 59,
              "velocity": 62,
              "position": 10.491667,
              "duration": 0.15
            },
            {
              "pitch": 64,
              "velocity": 62,
              "position": 10.5,
              "duration": 0.141667
            },
            {
              "pitch": 67,
              "velocity": 62,
              "position": 10.508333,
              "duration": 0.133333
            },
            {
              "pitch": 55,
              "velocity": 57,
              "position": 10.975,
              "duration": 0.25
            },
            {
              "pitch": 59,
              "velocity": 57,
              "position": 10.991667,
              "duration": 0.233333
            },
            {
              "pitch": 64,
              "velocity": 57,
              "position": 11.0,
              "duration": 0.225
            },
            {
              "pitch": 67,
              "velocity": 57,
              "position": 11.008333,
              "duration": 0.2
            },
            {
              "pitch": 67,
              "velocity": 32,
              "position": 11.225,
              "duration": 0.2
            },
            {
              "pitch": 64,
              "velocity": 36,
              "position": 11.241667,
              "duration": 0.183333
            },
            {
              "pitch": 59,
              "velocity": 36,
              "position": 11.25,
              "duration": 0.175
            },
            {
              "pitch": 55,
              "velocity": 32,
              "position": 11.258333,
              "duration": 0.166667
            },
            {
              "pitch": 55,
              "velocity": 53,
              "position": 11.475,
              "duration": 0.225
            },
            {
              "pitch": 59,
              "velocity": 53,
              "position": 11.491667,
              "duration": 0.208333
            },
            {
              "pitch": 64,
              "velocity": 53,
              "position": 11.5,
              "duration": 0.2
            },
            {
              "pitch": 67,
              "velocity": 53,
              "position": 11.508333,
              "duration": 0.191667
            },
            {
              "pitch": 67,
              "velocity": 46,
              "position": 12.725,
              "duration": 0.15
            },
            {
              "pitch": 64,
              "velocity": 52,
              "position": 12.741667,
              "duration": 0.133333
            },
            {
              "pitch": 59,
              "velocity": 52,
              "position": 12.75,
              "duration": 0.125
            },
            {
              "pitch": 55,
              "velocity": 46,
              "position": 12.758333,
              "duration": 0.116667
            },
            {
              "pitch": 67,
              "velocity": 41,
              "position": 13.225,
              "duration": 0.183333
            },
            {
              "pitch": 64,
              "velocity": 47,
              "position": 13.241667,
              "duration": 0.166667
            },
            {
              "pitch": 59,
              "velocity": 47,
              "position": 13.25,
              "duration": 0.158333
            },
            {
              "pitch": 55,
              "velocity": 41,
              "position": 13.258333,
              "duration": 0.15
            },
            {
              "pitch": 55,
              "velocity": 49,
              "position": 13.475,
              "duration": 0.2
            },
            {
              "pitch": 59,
              "velocity": 49,
              "position": 13.491667,
              "duration": 0.183333
            },
            {
              "pitch": 64,
              "velocity": 49,
              "position": 13.5,
              "duration": 0.175
            },
            {
              "pitch": 67,
              "velocity": 49,
              "position": 13.508333,
              "duration": 0.166667
            },
            {
              "pitch": 67,
              "velocity": 29,
              "position": 13.725,
              "duration": 0.2
            },
            {
              "pitch": 64,
              "velocity": 33,
              "position": 13.741667,
              "duration": 0.183333
            },
            {
              "pitch": 59,
              "velocity": 33,
              "position": 13.75,
              "duration": 0.175
            },
            {
              "pitch": 55,
              "velocity": 29,
              "position": 13.758333,
              "duration": 0.166667
            },
            {
              "pitch": 55,
              "velocity": 59,
              "position": 13.975,
              "duration": 0.25
            },
            {
              "pitch": 59,
              "velocity": 59,
              "position": 13.991667,
              "duration": 0.233333
            },
            {
              "pitch": 64,
              "velocity": 59,
              "position": 14.0,
              "duration": 0.225
            },
            {
              "pitch": 67,
              "velocity": 59,
              "position": 14.008333,
              "duration": 0.2
            },
            {
              "pitch": 67,
              "velocity": 27,
              "position": 14.225,
              "duration": 0.2
            },
            {
              "pitch": 64,
              "velocity": 31,
              "position": 14.241667,
              "duration": 0.183333
            },
            {
              "pitch": 59,
              "velocity": 31,
              "position": 14.25,
              "duration": 0.175
            },
            {
              "pitch": 55,
              "velocity": 27,
              "position": 14.258333,
              "duration": 0.166667
            },
            {
              "pitch": 55,
              "velocity": 60,
              "position": 14.475,
              "duration": 0.208333
            },
            {
              "pitch": 59,
              "velocity": 60,
              "position": 14.491667,
              "duration": 0.191667
            },
            {
              "pitch": 64,
              "velocity": 60,
              "position": 14.5,
              "duration": 0.183333
            },
            {
              "pitch": 67,
              "velocity": 60,
              "position": 14.508333,
              "duration": 0.175
            },
            {
              "pitch": 55,
              "velocity": 59,
              "position": 14.975,
              "duration": 0.158333
            },
            {
              "pitch": 59,
              "velocity": 59,
              "position": 14.991667,
              "duration": 0.141667
            },
            {
              "pitch": 64,
              "velocity": 59,
              "position": 15.0,
              "duration": 0.133333
            },
            {
              "pitch": 67,
              "velocity": 59,
              "position": 15.008333,
              "duration": 0.125
            },
            {
              "pitch": 67,
              "velocity": 32,
              "position": 15.225,
              "duration": 0.225
            },
            {
              "pitch": 64,
              "velocity": 37,
              "position": 15.241667,
              "duration": 0.208333
            },
            {
              "pitch": 59,
              "velocity": 37,
              "position": 15.25,
              "duration": 0.2
            },
            {
              "pitch": 55,
              "velocity": 32,
              "position": 15.258333,
              "duration": 0.191667
            },
            {
              "pitch": 55,
              "velocity": 69,
              "position": 15.475,
              "duration": 0.141667
            },
            {
              "pitch": 59,
              "velocity": 69,
              "position": 15.491667,
              "duration": 0.125
            },
            {
              "pitch": 64,
              "velocity": 69,
              "position": 15.5,
              "duration": 0.116667
            },
            {
              "pitch": 67,
              "velocity": 69,
              "position": 15.508333,
              "duration": 0.108333
            },
            {
              "pitch": 55,
              "velocity": 54,
              "position": 15.975,
              "duration": 0.141667
            },
            {
              "pitch": 59,
              "velocity": 54,
              "position": 15.991667,
              "duration": 0.125
            }
          ]
        },
        "13": {
          "ctab": {
            "srcChannel": 13,
            "name": "Strings",
            "accType": "PAD",
            "editable": true,
            "mutedNotes": [],
            "mutedChords": [],
            "sourceChordNote": 0,
            "sourceChordType": "Maj7",
            "ctb2Main": {
              "ntr": "ROOT_FIXED",
              "ntt": "MELODY",
              "bassOn": false,
              "noteLowLimit": 36,
              "noteHighLimit": 96,
              "chordRootUpperLimit": 127,
              "rtr": "PITCH_SHIFT"
            }
          },
          "notes": []
        }
      }
    },
    "Main_D": {
      "type": "Main_D",
      "sizeInBeats": 16,
      "channels": {
        "9": {
          "ctab": {
            "srcChannel": 9,
            "name": "Drums",
            "accType": "RHYTHM",
            "editable": false,
            "mutedNotes": [],
            "mutedChords": [],
            "sourceChordNote": 0,
            "sourceChordType": "Maj",
            "ctb2Main": {
              "ntr": "ROOT_FIXED",
              "ntt": "BYPASS",
              "bassOn": false,
              "noteLowLimit": 20,
              "noteHighLimit": 127,
              "chordRootUpperLimit": 127,
              "rtr": "RETRIGGER"
            }
          },
          "notes": [
            {
              "pitch": 35,
              "velocity": 80,
              "position": 0.0,
              "duration": 0.208333
            },
            {
              "pitch": 49,
              "velocity": 92,
              "position": 0.0,
              "duration": 0.208333
            },
            {
              "pitch": 56,
              "velocity": 70,
              "position": 0.0,
              "duration": 0.208333
            },
            {
              "pitch": 63,
              "velocity": 80,
              "position": 0.0,
              "duration": 0.083333
            },
            {
              "pitch": 69,
              "velocity": 80,
              "position": 0.0,
              "duration": 0.208333
            },
            {
              "pitch": 35,
              "velocity": 60,
              "position": 0.25,
              "duration": 0.208333
            },
            {
              "pitch": 42,
              "velocity": 92,
              "position": 0.25,
              "duration": 0.208333
            },
            {
              "pitch": 62,
              "velocity": 60,
              "position": 0.25,
              "duration": 0.208333
            },
            {
              "pitch": 69,
              "velocity": 60,
              "position": 0.25,
              "duration": 0.208333
            },
            {
              "pitch": 42,
              "velocity": 60,
              "position": 0.5,
              "duration": 0.208333
            },
            {
              "pitch": 63,
              "velocity": 50,
              "position": 0.5,
              "duration": 0.208333
            },
            {
              "pitch": 70,
              "velocity": 70,
              "position": 0.5,
              "duration": 0.208333
            },
            {
              "pitch": 42,
              "velocity": 40,
              "position": 0.75,
              "duration": 0.208333
            },
            {
              "pitch": 63,
              "velocity": 40,
              "position": 0.75,
              "duration": 0.208333
            },
            {
              "pitch": 38,
              "velocity": 80,
              "position": 1.0,
              "duration": 0.208333
            },
            {
              "pitch": 39,
              "velocity": 92,
              "position": 1.0,
              "duration": 0.208333
            },
            {
              "pitch": 42,
              "velocity": 80,
              "position": 1.0,
              "duration": 0.208333
            },
            {
              "pitch": 54,
              "velocity": 92,
              "position": 1.0,
              "duration": 0.208333
            },
            {
              "pitch": 56,
              "velocity": 70,
              "position": 1.0,
              "duration": 0.208333
            },
            {
              "pitch": 62,
              "velocity": 80,
              "position": 1.0,
              "duration": 0.208333
            },
            {
              "pitch": 69,
              "velocity": 80,
              "position": 1.0,
              "duration": 0.208333
            },
            {
              "pitch": 42,
              "velocity": 40,
              "position": 1.25,
              "duration": 0.208333
            },
            {
              "pitch": 63,
              "velocity": 60,
              "position": 1.25,
              "duration": 0.208333
            },
            {
              "pitch": 69,
              "velocity": 50,
              "position": 1.25,
              "duration": 0.208333
            },
            {
              "pitch": 42,
              "velocity": 60,
              "position": 1.5,
              "duration": 0.208333
            },
            {
              "pitch": 63,
              "velocity": 50,
              "position": 1.5,
              "duration": 0.208333
            },
            {
              "pitch": 70,
              "velocity": 70,
              "position": 1.5,
              "duration": 0.208333
            },
            {
              "pitch": 35,
              "velocity": 80,
              "position": 1.75,
              "duration": 0.208333
            },
            {
              "pitch": 42,
              "velocity": 50,
              "position": 1.75,
              "duration": 0.208333
            },
            {
              "pitch": 63,
              "velocity": 40,
              "position": 1.75,
              "duration": 0.208333
            },
            {
              "pitch": 42,
              "velocity": 70,
              "position": 2.0,
              "duration": 0.208333
            },
            {
              "pitch": 56,
              "velocity": 70,
              "position": 2.0,
              "duration": 0.208333
            },
            {
              "pitch": 63,
              "velocity": 40,
              "position": 2.0,
              "duration": 0.208333
            },
            {
              "pitch": 69,
              "velocity": 70,
              "position": 2.0,
              "duration": 0.208333
            },
            {
              "pitch": 35,
              "velocity": 70,
              "position": 2.25,
              "duration": 0.208333
            },
            {
              "pitch": 42,
              "velocity": 80,
              "position": 2.25,
              "duration": 0.208333
            },
            {
              "pitch": 62,
              "velocity": 80,
              "position": 2.25,
              "duration": 0.208333
            },
            {
              "pitch": 69,
              "velocity": 50,
              "position": 2.25,
              "duration": 0.208333
            },
            {
              "pitch": 35,
              "velocity": 60,
              "position": 2.5,
              "duration": 0.208333
            },
            {
              "pitch": 42,
              "velocity": 50,
              "position": 2.5,
              "duration": 0.208333
            },
            {
              "pitch": 63,
              "velocity": 60,
              "position": 2.5,
              "duration": 0.208333
            },
            {
              "pitch": 70,
              "velocity": 60,
              "position": 2.5,
              "duration": 0.208333
            },
            {
              "pitch": 42,
              "velocity": 60,
              "position": 2.75,
              "duration": 0.208333
            },
            {
              "pitch": 63,
              "velocity": 40,
              "position": 2.75,
              "duration": 0.208333
            },
            {
              "pitch": 38,
              "velocity": 40,
              "position": 2.875,
              "duration": 0.125
            },
            {
              "pitch": 38,
              "velocity": 80,
              "position": 3.0,
              "duration": 0.083333
            },
            {
              "pitch": 39,
              "velocity": 92,
              "position": 3.0,
              "duration": 0.208333
            },
            {
              "pitch": 42,
              "velocity": 70,
              "position": 3.0,
              "duration": 0.208333
            },
            {
              "pitch": 54,
              "velocity": 92,
              "position": 3.0,
              "duration": 0.208333
            },
            {
              "pitch": 56,
              "velocity": 70,
              "position": 3.0,
              "duration": 0.208333
            },
            {
              "pitch": 63,
              "velocity": 80,
              "position": 3.0,
              "duration": 0.208333
            },
            {
              "pitch": 69,
              "velocity": 80,
              "position": 3.0,
              "duration": 0.208333
            },
            {
              "pitch": 42,
              "velocity": 50,
              "position": 3.25,
              "duration": 0.208333
            },
            {
              "pitch": 62,
              "velocity": 80,
              "position": 3.25,
              "duration": 0.208333
            },
            {
              "pitch": 69,
              "velocity": 50,
              "position": 3.25,
              "duration": 0.208333
            },
            {
              "pitch": 46,
              "velocity": 70,
              "position": 3.5,
              "duration": 0.208333
            },
            {
              "pitch": 62,
              "velocity": 60,
              "position": 3.5,
              "duration": 0.208333
            },
            {
              "pitch": 70,
              "velocity": 70,
              "position": 3.5,
              "duration": 0.208333
            },
            {
              "pitch": 63,
              "velocity": 40,
              "position": 3.75,
              "duration": 0.208333
            },
            {
              "pitch": 35,
              "velocity": 80,
              "position": 4.0,
              "duration": 0.208333
            },
            {
              "pitch": 42,
              "velocity": 80,
              "position": 4.0,
              "duration": 0.208333
            },
            {
              "pitch": 56,
              "velocity": 70,
              "position": 4.0,
              "duration": 0.208333
            },
            {
              "pitch": 63,
              "velocity": 80,
              "position": 4.0,
              "duration": 0.208333
            },
            {
              "pitch": 69,
              "velocity": 80,
              "position": 4.0,
              "duration": 0.208333
            },
            {
              "pitch": 35,
              "velocity": 60,
              "position": 4.25,
              "duration": 0.208333
            },
            {
              "pitch": 42,
              "velocity": 50,
              "position": 4.25,
              "duration": 0.208333
            },
            {
              "pitch": 62,
              "velocity": 60,
              "position": 4.25,
              "duration": 0.208333
            },
            {
              "pitch": 69,
              "velocity": 60,
              "position": 4.25,
              "duration": 0.208333
            },
            {
              "pitch": 42,
              "velocity": 60,
              "position": 4.5,
              "duration": 0.208333
            },
            {
              "pitch": 63,
              "velocity": 50,
              "position": 4.5,
              "duration": 0.208333
            },
            {
              "pitch": 70,
              "velocity": 70,
              "position": 4.5,
              "duration": 0.208333
            },
            {
              "pitch": 42,
              "velocity": 40,
              "position": 4.75,
              "duration": 0.208333
            },
            {
              "pitch": 63,
              "velocity": 40,
              "position": 4.75,
              "duration": 0.208333
            },
            {
              "pitch": 38,
              "velocity": 80,
              "position": 5.0,
              "duration": 0.208333
            },
            {
              "pitch": 39,
              "velocity": 92,
              "position": 5.0,
              "duration": 0.208333
            },
            {
              "pitch": 42,
              "velocity": 80,
              "position": 5.0,
              "duration": 0.208333
            },
            {
              "pitch": 54,
              "velocity": 92,
              "position": 5.0,
              "duration": 0.208333
            },
            {
              "pitch": 56,
              "velocity": 70,
              "position": 5.0,
              "duration": 0.208333
            },
            {
              "pitch": 62,
              "velocity": 80,
              "position": 5.0,
              "duration": 0.208333
            },
            {
              "pitch": 69,
              "velocity": 80,
              "position": 5.0,
              "duration": 0.208333
            },
            {
              "pitch": 42,
              "velocity": 40,
              "position": 5.25,
              "duration": 0.208333
            },
            {
              "pitch": 63,
              "velocity": 60,
              "position": 5.25,
              "duration": 0.208333
            },
            {
              "pitch": 69,
              "velocity": 50,
              "position": 5.25,
              "duration": 0.208333
            },
            {
              "pitch": 42,
              "velocity": 60,
              "position": 5.5,
              "duration": 0.208333
            },
            {
              "pitch": 63,
              "velocity": 50,
              "position": 5.5,
              "duration": 0.208333
            },
            {
              "pitch": 70,
              "velocity": 70,
              "position": 5.5,
              "duration": 0.208333
            },
            {
              "pitch": 35,
              "velocity": 80,
              "position": 5.75,
              "duration": 0.208333
            },
            {
              "pitch": 42,
              "velocity": 50,
              "position": 5.75,
              "duration": 0.208333
            },
            {
              "pitch": 63,
              "velocity": 40,
              "position": 5.75,
              "duration": 0.208333
            },
            {
              "pitch": 42,
              "velocity": 70,
              "position": 6.0,
              "duration": 0.208333
            },
            {
              "pitch": 56,
              "velocity": 70,
              "position": 6.0,
              "duration": 0.208333
            },
            {
              "pitch": 63,
              "velocity": 40,
              "position": 6.0,
              "duration": 0.208333
            },
            {
              "pitch": 69,
              "velocity": 70,
              "position": 6.0,
              "duration": 0.208333
            },
            {
              "pitch": 35,
              "velocity": 70,
              "position": 6.25,
              "duration": 0.208333
            },
            {
              "pitch": 42,
              "velocity": 80,
              "position": 6.25,
              "duration": 0.208333
            },
            {
              "pitch": 62,
              "velocity": 80,
              "position": 6.25,
              "duration": 0.208333
            },
            {
              "pitch": 69,
              "velocity": 50,
              "position": 6.25,
              "duration": 0.208333
            },
            {
              "pitch": 35,
              "velocity": 60,
              "position": 6.5,
              "duration": 0.208333
            },
            {
              "pitch": 42,
              "velocity": 50,
              "position": 6.5,
              "duration": 0.208333
            },
            {
              "pitch": 63,
              "velocity": 60,
              "position": 6.5,
              "duration": 0.208333
            },
            {
              "pitch": 70,
              "velocity": 60,
              "position": 6.5,
              "duration": 0.208333
            },
            {
              "pitch": 42,
              "velocity": 60,
              "position": 6.75,
              "duration": 0.208333
            },
            {
              "pitch": 63,
              "velocity": 40,
              "position": 6.75,
              "duration": 0.208333
            },
            {
              "pitch": 38,
              "velocity": 40,
              "position": 6.875,
              "duration": 0.125
            },
            {
              "pitch": 38,
              "velocity": 80,
              "position": 7.0,
              "duration": 0.083333
            },
            {
              "pitch": 39,
              "velocity": 92,
              "position": 7.0,
              "duration": 0.208333
            },
            {
              "pitch": 42,
              "velocity": 70,
              "position": 7.0,
              "duration": 0.208333
            },
            {
              "pitch": 54,
              "velocity": 92,
              "position": 7.0,
              "duration": 0.208333
            },
            {
              "pitch": 56,
              "velocity": 70,
              "position": 7.0,
              "duration": 0.208333
            },
            {
              "pitch": 63,
              "velocity": 80,
              "position": 7.0,
              "duration": 0.208333
            },
            {
              "pitch": 69,
              "velocity": 80,
              "position": 7.0,
              "duration": 0.208333
            },
            {
              "pitch": 42,
              "velocity": 50,
              "position": 7.25,
              "duration": 0.208333
            },
            {
              "pitch": 62,
              "velocity": 80,
              "position": 7.25,
              "duration": 0.208333
            },
            {
              "pitch": 69,
              "velocity": 50,
              "position": 7.25,
              "duration": 0.208333
            },
            {
              "pitch": 46,
              "velocity": 70,
              "position": 7.5,
              "duration": 0.208333
            },
            {
              "pitch": 62,
              "velocity": 60,
              "position": 7.5,
              "duration": 0.208333
            },
            {
              "pitch": 70,
              "velocity": 70,
              "position": 7.5,
              "duration": 0.208333
            },
            {
              "pitch": 63,
              "velocity": 40,
              "position": 7.75,
              "duration": 0.208333
            },
            {
              "pitch": 35,
              "velocity": 80,
              "position": 8.0,
              "duration": 0.208333
            },
            {
              "pitch": 42,
              "velocity": 50,
              "position": 8.0,
              "duration": 0.208333
            },
            {
              "pitch": 56,
              "velocity": 70,
              "position": 8.0,
              "duration": 0.208333
            },
            {
              "pitch": 69,
              "velocity": 80,
              "position": 8.0,
              "duration": 0.208333
            },
            {
              "pitch": 35,
              "velocity": 60,
              "position": 8.25,
              "duration": 0.208333
            },
            {
              "pitch": 42,
              "velocity": 80,
              "position": 8.25,
              "duration": 0.208333
            },
            {
              "pitch": 62,
              "velocity": 60,
              "position": 8.25,
              "duration": 0.208333
            },
            {
              "pitch": 69,
              "velocity": 60,
              "position": 8.25,
              "duration": 0.208333
            },
            {
              "pitch": 42,
              "velocity": 60,
              "position": 8.5,
              "duration": 0.208333
            },
            {
              "pitch": 63,
              "velocity": 50,
              "position": 8.5,
              "duration": 0.208333
            },
            {
              "pitch": 70,
              "velocity": 70,
              "position": 8.5,
              "duration": 0.208333
            },
            {
              "pitch": 42,
              "velocity": 40,
              "position": 8.75,
              "duration": 0.208333
            },
            {
              "pitch": 63,
              "velocity": 40,
              "position": 8.75,
              "duration": 0.208333
            },
            {
              "pitch": 38,
              "velocity": 48,
              "position": 8.875,
              "duration": 0.125
            },
            {
              "pitch": 38,
              "velocity": 80,
              "position": 9.0,
              "duration": 0.083333
            },
            {
              "pitch": 39,
              "velocity": 92,
              "position": 9.0,
              "duration": 0.208333
            },
            {
              "pitch": 42,
              "velocity": 80,
              "position": 9.0,
              "duration": 0.208333
            },
            {
              "pitch": 54,
              "velocity": 92,
              "position": 9.0,
              "duration": 0.208333
            },
            {
              "pitch": 56,
              "velocity": 70,
              "position": 9.0,
              "duration": 0.208333
            },
            {
              "pitch": 62,
              "velocity": 80,
              "position": 9.0,
              "duration": 0.208333
            },
            {
              "pitch": 69,
              "velocity": 80,
              "position": 9.0,
              "duration": 0.208333
            },
            {
              "pitch": 42,
              "velocity": 40,
              "position": 9.25,
              "duration": 0.208333
            },
            {
              "pitch": 63,
              "velocity": 60,
              "position": 9.25,
              "duration": 0.208333
            },
            {
              "pitch": 69,
              "velocity": 50,
              "position": 9.25,
              "duration": 0.208333
            },
            {
              "pitch": 42,
              "velocity": 60,
              "position": 9.5,
              "duration": 0.208333
            },
            {
              "pitch": 70,
              "velocity": 70,
              "position": 9.5,
              "duration": 0.208333
            },
            {
              "pitch": 35,
              "velocity": 80,
              "position": 9.75,
              "duration": 0.208333
            },
            {
              "pitch": 46,
              "velocity": 90,
              "position": 9.75,
              "duration": 0.208333
            },
            {
              "pitch": 63,
              "velocity": 40,
              "position": 9.75,
              "duration": 0.208333
            },
            {
              "pitch": 42,
              "velocity": 70,
              "position": 10.0,
              "duration": 0.208333
            },
            {
              "pitch": 56,
              "velocity": 70,
              "position": 10.0,
              "duration": 0.208333
            },
            {
              "pitch": 63,
              "velocity": 70,
              "position": 10.0,
              "duration": 0.208333
            },
            {
              "pitch": 69,
              "velocity": 70,
              "position": 10.0,
              "duration": 0.208333
            },
            {
              "pitch": 35,
              "velocity": 70,
              "position": 10.25,
              "duration": 0.208333
            },
            {
              "pitch": 42,
              "velocity": 80,
              "position": 10.25,
              "duration": 0.208333
            },
            {
              "pitch": 69,
              "velocity": 50,
              "position": 10.25,
              "duration": 0.208333
            },
            {
              "pitch": 35,
              "velocity": 60,
              "position": 10.5,
              "duration": 0.208333
            },
            {
              "pitch": 42,
              "velocity": 50,
              "position": 10.5,
              "duration": 0.208333
            },
            {
              "pitch": 62,
              "velocity": 80,
              "position": 10.5,
              "duration": 0.208333
            },
            {
              "pitch": 70,
              "velocity": 60,
              "position": 10.5,
              "duration": 0.208333
            },
            {
              "pitch": 42,
              "velocity": 60,
              "position": 10.75,
              "duration": 0.208333
            },
            {
              "pitch": 63,
              "velocity": 40,
              "position": 10.75,
              "duration": 0.208333
            },
            {
              "pitch": 38,
              "velocity": 40,
              "position": 10.875,
              "duration": 0.125
            },
            {
              "pitch": 38,
              "velocity": 80,
              "position": 11.0,
              "duration": 0.083333
            },
            {
              "pitch": 39,
              "velocity": 92,
              "position": 11.0,
              "duration": 0.208333
            },
            {
              "pitch": 42,
              "velocity": 70,
              "position": 11.0,
              "duration": 0.208333
            },
            {
              "pitch": 54,
              "velocity": 92,
              "position": 11.0,
              "duration": 0.208333
            },
            {
              "pitch": 56,
              "velocity": 70,
              "position": 11.0,
              "duration": 0.208333
            },
            {
              "pitch": 63,
              "velocity": 50,
              "position": 11.0,
              "duration": 0.208333
            },
            {
              "pitch": 69,
              "velocity": 80,
              "position": 11.0,
              "duration": 0.208333
            },
            {
              "pitch": 38,
              "velocity": 50,
              "position": 11.25,
              "duration": 0.208333
            },
            {
              "pitch": 42,
              "velocity": 50,
              "position": 11.25,
              "duration": 0.208333
            },
            {
              "pitch": 62,
              "velocity": 80,
              "position": 11.25,
              "duration": 0.208333
            },
            {
              "pitch": 69,
              "velocity": 50,
              "position": 11.25,
              "duration": 0.208333
            },
            {
              "pitch": 46,
              "velocity": 70,
              "position": 11.5,
              "duration": 0.208333
            },
            {
              "pitch": 63,
              "velocity": 60,
              "position": 11.5,
              "duration": 0.208333
            },
            {
              "pitch": 70,
              "velocity": 70,
              "position": 11.5,
              "duration": 0.208333
            },
            {
              "pitch": 35,
              "velocity": 50,
              "position": 11.75,
              "duration": 0.208333
            },
            {
              "pitch": 63,
              "velocity": 40,
              "position": 11.75,
              "duration": 0.208333
            },
            {
              "pitch": 35,
              "velocity": 70,
              "position": 12.0,
              "duration": 0.208333
            },
            {
              "pitch": 42,
              "velocity": 50,
              "position": 12.0,
              "duration": 0.208333
            },
            {
              "pitch": 56,
              "velocity": 70,
              "position": 12.0,
              "duration": 0.208333
            },
            {
              "pitch": 63,
              "velocity": 60,
              "position": 12.0,
              "duration": 0.208333
            },
            {
              "pitch": 69,
              "velocity": 80,
              "position": 12.0,
              "duration": 0.208333
            },
            {
              "pitch": 35,
              "velocity": 90,
              "position": 12.25,
              "duration": 0.208333
            },
            {
              "pitch": 38,
              "velocity": 90,
              "position": 12.25,
              "duration": 0.208333
            },
            {
              "pitch": 62,
              "velocity": 60,
              "position": 12.25,
              "duration": 0.208333
            },
            {
              "pitch": 69,
              "velocity": 60,
              "position": 12.25,
              "duration": 0.208333
            },
            {
              "pitch": 38,
              "velocity": 50,
              "position": 12.5,
              "duration": 0.125
            },
            {
              "pitch": 42,
              "velocity": 80,
              "position": 12.5,
              "duration": 0.208333
            },
            {
              "pitch": 63,
              "velocity": 50,
              "position": 12.5,
              "duration": 0.208333
            },
            {
              "pitch": 70,
              "velocity": 70,
              "position": 12.5,
              "duration": 0.208333
            },
            {
              "pitch": 38,
              "velocity": 40,
              "position": 12.625,
              "duration": 0.083333
            },
            {
              "pitch": 38,
              "velocity": 92,
              "position": 12.75,
              "duration": 0.083333
            },
            {
              "pitch": 63,
              "velocity": 50,
              "position": 12.75,
              "duration": 0.208333
            },
            {
              "pitch": 42,
              "velocity": 92,
              "position": 13.0,
              "duration": 0.208333
            },
            {
              "pitch": 54,
              "velocity": 92,
              "position": 13.0,
              "duration": 0.208333
            },
            {
              "pitch": 56,
              "velocity": 70,
              "position": 13.0,
              "duration": 0.208333
            },
            {
              "pitch": 62,
              "velocity": 80,
              "position": 13.0,
              "duration": 0.208333
            },
            {
              "pitch": 69,
              "velocity": 80,
              "position": 13.0,
              "duration": 0.208333
            },
            {
              "pitch": 38,
              "velocity": 60,
              "position": 13.25,
              "duration": 0.208333
            },
            {
              "pitch": 63,
              "velocity": 70,
              "position": 13.25,
              "duration": 0.208333
            },
            {
              "pitch": 69,
              "velocity": 50,
              "position": 13.25,
              "duration": 0.208333
            },
            {
              "pitch": 35,
              "velocity": 92,
              "position": 13.5,
              "duration": 0.208333
            },
            {
              "pitch": 38,
              "velocity": 70,
              "position": 13.5,
              "duration": 0.125
            },
            {
              "pitch": 54,
              "velocity": 92,
              "position": 13.5,
              "duration": 0.208333
            },
            {
              "pitch": 70,
              "velocity": 70,
              "position": 13.5,
              "duration": 0.208333
            },
            {
              "pitch": 38,
              "velocity": 56,
              "position": 13.625,
              "duration": 0.083333
            },
            {
              "pitch": 46,
              "velocity": 92,
              "position": 13.75,
              "duration": 0.208333
            },
            {
              "pitch": 63,
              "velocity": 80,
              "position": 13.75,
              "duration": 0.208333
            },
            {
              "pitch": 42,
              "velocity": 80,
              "position": 14.0,
              "duration": 0.208333
            },
            {
              "pitch": 54,
              "velocity": 92,
              "position": 14.0,
              "duration": 0.208333
            },
            {
              "pitch": 56,
              "velocity": 70,
              "position": 14.0,
              "duration": 0.208333
            },
            {
              "pitch": 62,
              "velocity": 92,
              "position": 14.0,
              "duration": 0.208333
            },
            {
              "pitch": 69,
              "velocity": 70,
              "position": 14.0,
              "duration": 0.208333
            },
            {
              "pitch": 35,
              "velocity": 70,
              "position": 14.25,
              "duration": 0.208333
            },
            {
              "pitch": 38,
              "velocity": 92,
              "position": 14.25,
              "duration": 0.208333
            },
            {
              "pitch": 63,
              "velocity": 92,
              "position": 14.25,
              "duration": 0.208333
            },
            {
              "pitch": 69,
              "velocity": 50,
              "position": 14.25,
              "duration": 0.208333
            },
            {
              "pitch": 38,
              "velocity": 60,
              "position": 14.5,
              "duration": 0.208333
            },
            {
              "pitch": 54,
              "velocity": 90,
              "position": 14.5,
              "duration": 0.208333
            },
            {
              "pitch": 63,
              "velocity": 50,
              "position": 14.5,
              "duration": 0.208333
            },
            {
              "pitch": 70,
              "velocity": 60,
              "position": 14.5,
              "duration": 0.208333
            },
            {
              "pitch": 35,
              "velocity": 92,
              "position": 14.75,
              "duration": 0.208333
            },
            {
              "pitch": 38,
              "velocity": 50,
              "position": 14.75,
              "duration": 0.208333
            },
            {
              "pitch": 42,
              "velocity": 60,
              "position": 14.75,
              "duration": 0.208333
            },
            {
              "pitch": 63,
              "velocity": 40,
              "position": 14.75,
              "duration": 0.208333
            },
            {
              "pitch": 38,
              "velocity": 60,
              "position": 15.0,
              "duration": 0.208333
            },
            {
              "pitch": 54,
              "velocity": 92,
              "position": 15.0,
              "duration": 0.208333
            },
            {
              "pitch": 56,
              "velocity": 80,
              "position": 15.0,
              "duration": 0.208333
            },
            {
              "pitch": 62,
              "velocity": 92,
              "position": 15.0,
              "duration": 0.208333
            },
            {
              "pitch": 69,
              "velocity": 80,
              "position": 15.0,
              "duration": 0.208333
            },
            {
              "pitch": 35,
              "velocity": 50,
              "position": 15.25,
              "duration": 0.208333
            },
            {
              "pitch": 38,
              "velocity": 90,
              "position": 15.25,
              "duration": 0.208333
            },
            {
              "pitch": 42,
              "velocity": 90,
              "position": 15.25,
              "duration": 0.208333
            },
            {
              "pitch": 54,
              "velocity": 92,
              "position": 15.25,
              "duration": 0.208333
            },
            {
              "pitch": 63,
              "velocity": 80,
              "position": 15.25,
              "duration": 0.208333
            },
            {
              "pitch": 69,
              "velocity": 50,
              "position": 15.25,
              "duration": 0.208333
            },
            {
              "pitch": 38,
              "velocity": 50,
              "position": 15.5,
              "duration": 0.208333
            },
            {
              "pitch": 54,
              "velocity": 90,
              "position": 15.5,
              "duration": 0.208333
            },
            {
              "pitch": 63,
              "velocity": 92,
              "position": 15.5,
              "duration": 0.208333
            },
            {
              "pitch": 70,
              "velocity": 70,
              "position": 15.5,
              "duration": 0.208333
            },
            {
              "pitch": 35,
              "velocity": 70,
              "position": 15.75,
              "duration": 0.208333
            },
            {
              "pitch": 63,
              "velocity": 50,
              "position": 15.75,
              "duration": 0.125
            },
            {
              "pitch": 63,
              "velocity": 40,
              "position": 15.875,
              "duration": 0.083333
            }
          ]
        },
        "10": {
          "ctab": {
            "srcChannel": 10,
            "name": "Bass",
            "accType": "BASS",
            "editable": true,
            "mutedNotes": [],
            "mutedChords": [],
            "sourceChordNote": 0,
            "sourceChordType": "Maj7",
            "ctb2Main": {
              "ntr": "ROOT_TRANSPOSITION",
              "ntt": "BYPASS",
              "bassOn": true,
              "noteLowLimit": 20,
              "noteHighLimit": 60,
              "chordRootUpperLimit": 127,
              "rtr": "NOTE_GENERATOR"
            }
          },
          "notes": [
            {
              "pitch": 36,
              "velocity": 79,
              "position": 0.0,
              "duration": 1.633333
            },
            {
              "pitch": 35,
              "velocity": 79,
              "position": 1.75,
              "duration": 0.083333
            },
            {
              "pitch": 36,
              "velocity": 76,
              "position": 2.0,
              "duration": 0.158333
            },
            {
              "pitch": 36,
              "velocity": 83,
              "position": 2.5,
              "duration": 0.683333
            },
            {
              "pitch": 36,
              "velocity": 75,
              "position": 3.25,
              "duration": 0.1
            },
            {
              "pitch": 36,
              "velocity": 83,
              "position": 3.5,
              "duration": 0.291667
            },
            {
              "pitch": 36,
              "velocity": 78,
              "position": 4.008333,
              "duration": 0.275
            },
            {
              "pitch": 36,
              "velocity": 71,
              "position": 4.5,
              "duration": 1.0
            },
            {
              "pitch": 36,
              "velocity": 71,
              "position": 5.75,
              "duration": 0.166667
            },
            {
              "pitch": 36,
              "velocity": 76,
              "position": 6.0,
              "duration": 0.158333
            },
            {
              "pitch": 36,
              "velocity": 83,
              "position": 6.5,
              "duration": 0.683333
            },
            {
              "pitch": 31,
              "velocity": 75,
              "position": 7.25,
              "duration": 0.1
            },
            {
              "pitch": 31,
              "velocity": 83,
              "position": 7.5,
              "duration": 0.291667
            },
            {
              "pitch": 36,
              "velocity": 85,
              "position": 8.0,
              "duration": 1.716667
            },
            {
              "pitch": 31,
              "velocity": 74,
              "position": 9.75,
              "duration": 0.191667
            },
            {
              "pitch": 36,
              "velocity": 74,
              "position": 10.0,
              "duration": 0.125
            },
            {
              "pitch": 36,
              "velocity": 91,
              "position": 10.5,
              "duration": 0.758333
            },
            {
              "pitch": 31,
              "velocity": 83,
              "position": 11.5,
              "duration": 0.208333
            },
            {
              "pitch": 31,
              "velocity": 72,
              "position": 11.75,
              "duration": 0.258333
            },
            {
              "pitch": 36,
              "velocity": 85,
              "position": 12.008333,
              "duration": 1.633333
            },
            {
              "pitch": 31,
              "velocity": 56,
              "position": 13.75,
              "duration": 0.2
            },
            {
              "pitch": 31,
              "velocity": 81,
              "position": 14.25,
              "duration": 0.191667
            },
            {
              "pitch": 36,
              "velocity": 89,
              "position": 14.5,
              "duration": 0.241667
            },
            {
              "pitch": 43,
              "velocity": 80,
              "position": 15.275,
              "duration": 0.225
            },
            {
              "pitch": 35,
              "velocity": 78,
              "position": 15.5,
              "duration": 0.241667
            }
          ]
        },
        "11": {
          "ctab": {
            "srcChannel": 11,
            "name": "Piano",
            "accType": "CHORD1",
            "editable": true,
            "mutedNotes": [],
            "mutedChords": [],
            "sourceChordNote": 0,
            "sourceChordType": "Maj7",
            "ctb2Main": {
              "ntr": "ROOT_FIXED",
              "ntt": "CHORD",
              "bassOn": false,
              "noteLowLimit": 48,
              "noteHighLimit": 84,
              "chordRootUpperLimit": 127,
              "rtr": "NOTE_GENERATOR"
            }
          },
          "notes": [
            {
              "pitch": 48,
              "velocity": 68,
              "position": 0.0,
              "duration": 0.125
            },
            {
              "pitch": 59,
              "velocity": 39,
              "position": 0.0,
              "duration": 0.125
            },
            {
              "pitch": 64,
              "velocity": 70,
              "position": 0.0,
              "duration": 0.125
            },
            {
              "pitch": 67,
              "velocity": 86,
              "position": 0.0,
              "duration": 0.125
            },
            {
              "pitch": 48,
              "velocity": 62,
              "position": 0.5,
              "duration": 1.033333
            },
            {
              "pitch": 59,
              "velocity": 41,
              "position": 0.5,
              "duration": 1.033333
            },
            {
              "pitch": 64,
              "velocity": 66,
              "position": 0.5,
              "duration": 0.991667
            },
            {
              "pitch": 67,
              "velocity": 84,
              "position": 0.5,
              "duration": 0.991667
            },
            {
              "pitch": 59,
              "velocity": 42,
              "position": 1.758333,
              "duration": 0.85
            },
            {
              "pitch": 64,
              "velocity": 71,
              "position": 1.758333,
              "duration": 1.316667
            },
            {
              "pitch": 67,
              "velocity": 74,
              "position": 1.758333,
              "duration": 1.333333
            },
            {
              "pitch": 48,
              "velocity": 65,
              "position": 1.775,
              "duration": 2.166667
            },
            {
              "pitch": 59,
              "velocity": 59,
              "position": 3.033333,
              "duration": 0.925
            },
            {
              "pitch": 67,
              "velocity": 74,
              "position": 3.541667,
              "duration": 0.416667
            },
            {
              "pitch": 48,
              "velocity": 70,
              "position": 4.008333,
              "duration": 1.583333
            },
            {
              "pitch": 59,
              "velocity": 53,
              "position": 4.016667,
              "duration": 1.4
            },
            {
              "pitch": 64,
              "velocity": 55,
              "position": 4.016667,
              "duration": 1.391667
            },
            {
              "pitch": 67,
              "velocity": 70,
              "position": 4.016667,
              "duration": 1.4
            },
            {
              "pitch": 71,
              "velocity": 73,
              "position": 4.033333,
              "duration": 1.441667
            },
            {
              "pitch": 59,
              "velocity": 39,
              "position": 5.758333,
              "duration": 1.116667
            },
            {
              "pitch": 64,
              "velocity": 68,
              "position": 5.758333,
              "duration": 2.141667
            },
            {
              "pitch": 67,
              "velocity": 71,
              "position": 5.758333,
              "duration": 2.183333
            },
            {
              "pitch": 48,
              "velocity": 62,
              "position": 5.775,
              "duration": 2.15
            },
            {
              "pitch": 55,
              "velocity": 73,
              "position": 6.758333,
              "duration": 1.2
            },
            {
              "pitch": 59,
              "velocity": 73,
              "position": 7.033333,
              "duration": 0.891667
            },
            {
              "pitch": 59,
              "velocity": 46,
              "position": 8.0,
              "duration": 2.058333
            },
            {
              "pitch": 64,
              "velocity": 58,
              "position": 8.008333,
              "duration": 1.15
            },
            {
              "pitch": 67,
              "velocity": 67,
              "position": 8.008333,
              "duration": 1.091667
            },
            {
              "pitch": 71,
              "velocity": 62,
              "position": 8.008333,
              "duration": 1.133333
            },
            {
              "pitch": 60,
              "velocity": 54,
              "position": 10.016667,
              "duration": 1.316667
            },
            {
              "pitch": 67,
              "velocity": 80,
              "position": 11.033333,
              "duration": 0.316667
            },
            {
              "pitch": 48,
              "velocity": 91,
              "position": 12.025,
              "duration": 3.416667
            },
            {
              "pitch": 59,
              "velocity": 54,
              "position": 12.983333,
              "duration": 0.15
            },
            {
              "pitch": 64,
              "velocity": 69,
              "position": 13.0,
              "duration": 0.116667
            },
            {
              "pitch": 71,
              "velocity": 66,
              "position": 13.0,
              "duration": 0.15
            },
            {
              "pitch": 59,
              "velocity": 53,
              "position": 13.491667,
              "duration": 1.966667
            },
            {
              "pitch": 64,
              "velocity": 69,
              "position": 13.491667,
              "duration": 1.366667
            },
            {
              "pitch": 71,
              "velocity": 74,
              "position": 13.491667,
              "duration": 1.208333
            },
            {
              "pitch": 55,
              "velocity": 88,
              "position": 14.783333,
              "duration": 0.675
            },
            {
              "pitch": 60,
              "velocity": 40,
              "position": 15.041667,
              "duration": 0.241667
            }
          ]
        },
        "12": {
          "ctab": {
            "srcChannel": 12,
            "name": "Guitar",
            "accType": "CHORD2",
            "editable": true,
            "mutedNotes": [],
            "mutedChords": [],
            "sourceChordNote": 0,
            "sourceChordType": "Maj7",
            "ctb2Main": {
              "ntr": "ROOT_FIXED",
              "ntt": "CHORD",
              "bassOn": false,
              "noteLowLimit": 40,
              "noteHighLimit": 76,
              "chordRootUpperLimit": 127,
              "rtr": "NOTE_GENERATOR"
            }
          },
          "notes": [
            {
              "pitch": 64,
              "velocity": 54,
              "position": 0.0,
              "duration": 0.116667
            },
            {
              "pitch": 67,
              "velocity": 54,
              "position": 0.008333,
              "duration": 0.108333
            },
            {
              "pitch": 67,
              "velocity": 38,
              "position": 0.725,
              "duration": 0.166667
            },
            {
              "pitch": 64,
              "velocity": 44,
              "position": 0.741667,
              "duration": 0.15
            },
            {
              "pitch": 59,
              "velocity": 44,
              "position": 0.75,
              "duration": 0.141667
            },
            {
              "pitch": 55,
              "velocity": 38,
              "position": 0.758333,
              "duration": 0.133333
            },
            {
              "pitch": 67,
              "velocity": 40,
              "position": 2.225,
              "duration": 0.141667
            },
            {
              "pitch": 64,
              "velocity": 46,
              "position": 2.241667,
              "duration": 0.125
            },
            {
              "pitch": 59,
              "velocity": 46,
              "position": 2.25,
              "duration": 0.116667
            },
            {
              "pitch": 55,
              "velocity": 40,
              "position": 2.258333,
              "duration": 0.108333
            },
            {
              "pitch": 55,
              "velocity": 59,
              "position": 2.975,
              "duration": 0.258333
            },
            {
              "pitch": 59,
              "velocity": 59,
              "position": 2.991667,
              "duration": 0.241667
            },
            {
              "pitch": 64,
              "velocity": 59,
              "position": 3.0,
              "duration": 0.233333
            },
            {
              "pitch": 67,
              "velocity": 59,
              "position": 3.008333,
              "duration": 0.2
            },
            {
              "pitch": 67,
              "velocity": 31,
              "position": 3.225,
              "duration": 0.175
            },
            {
              "pitch": 64,
              "velocity": 36,
              "position": 3.241667,
              "duration": 0.158333
            },
            {
              "pitch": 59,
              "velocity": 36,
              "position": 3.25,
              "duration": 0.15
            },
            {
              "pitch": 55,
              "velocity": 31,
              "position": 3.258333,
              "duration": 0.141667
            },
            {
              "pitch": 67,
              "velocity": 43,
              "position": 4.225,
              "duration": 0.158333
            },
            {
              "pitch": 64,
              "velocity": 49,
              "position": 4.241667,
              "duration": 0.141667
            },
            {
              "pitch": 59,
              "velocity": 49,
              "position": 4.25,
              "duration": 0.133333
            },
            {
              "pitch": 55,
              "velocity": 43,
              "position": 4.258333,
              "duration": 0.125
            },
            {
              "pitch": 55,
              "velocity": 43,
              "position": 4.475,
              "duration": 0.2
            },
            {
              "pitch": 59,
              "velocity": 43,
              "position": 4.491667,
              "duration": 0.183333
            },
            {
              "pitch": 64,
              "velocity": 43,
              "position": 4.5,
              "duration": 0.175
            },
            {
              "pitch": 67,
              "velocity": 43,
              "position": 4.508333,
              "duration": 0.166667
            },
            {
              "pitch": 55,
              "velocity": 58,
              "position": 4.975,
              "duration": 0.2
            },
            {
              "pitch": 59,
              "velocity": 58,
              "position": 4.991667,
              "duration": 0.183333
            },
            {
              "pitch": 64,
              "velocity": 58,
              "position": 5.0,
              "duration": 0.175
            },
            {
              "pitch": 67,
              "velocity": 58,
              "position": 5.008333,
              "duration": 0.166667
            },
            {
              "pitch": 55,
              "velocity": 65,
              "position": 5.975,
              "duration": 0.233333
            },
            {
              "pitch": 59,
              "velocity": 65,
              "position": 5.991667,
              "duration": 0.216667
            },
            {
              "pitch": 64,
              "velocity": 65,
              "position": 6.0,
              "duration": 0.208333
            },
            {
              "pitch": 67,
              "velocity": 65,
              "position": 6.008333,
              "duration": 0.2
            },
            {
              "pitch": 67,
              "velocity": 27,
              "position": 6.225,
              "duration": 0.183333
            },
            {
              "pitch": 64,
              "velocity": 31,
              "position": 6.241667,
              "duration": 0.166667
            },
            {
              "pitch": 59,
              "velocity": 31,
              "position": 6.25,
              "duration": 0.158333
            },
            {
              "pitch": 55,
              "velocity": 27,
              "position": 6.258333,
              "duration": 0.15
            },
            {
              "pitch": 55,
              "velocity": 55,
              "position": 6.475,
              "duration": 0.158333
            },
            {
              "pitch": 59,
              "velocity": 55,
              "position": 6.491667,
              "duration": 0.141667
            },
            {
              "pitch": 64,
              "velocity": 55,
              "position": 6.5,
              "duration": 0.133333
            },
            {
              "pitch": 67,
              "velocity": 55,
              "position": 6.508333,
              "duration": 0.125
            },
            {
              "pitch": 55,
              "velocity": 64,
              "position": 6.975,
              "duration": 0.25
            },
            {
              "pitch": 59,
              "velocity": 64,
              "position": 6.991667,
              "duration": 0.233333
            },
            {
              "pitch": 64,
              "velocity": 64,
              "position": 7.0,
              "duration": 0.225
            },
            {
              "pitch": 67,
              "velocity": 64,
              "position": 7.008333,
              "duration": 0.2
            },
            {
              "pitch": 67,
              "velocity": 35,
              "position": 7.225,
              "duration": 0.216667
            },
            {
              "pitch": 64,
              "velocity": 40,
              "position": 7.241667,
              "duration": 0.2
            },
            {
              "pitch": 59,
              "velocity": 40,
              "position": 7.25,
              "duration": 0.191667
            },
            {
              "pitch": 55,
              "velocity": 35,
              "position": 7.258333,
              "duration": 0.183333
            },
            {
              "pitch": 67,
              "velocity": 34,
              "position": 8.75,
              "duration": 0.458333
            },
            {
              "pitch": 64,
              "velocity": 39,
              "position": 8.766667,
              "duration": 0.458333
            },
            {
              "pitch": 59,
              "velocity": 39,
              "position": 8.775,
              "duration": 0.466667
            },
            {
              "pitch": 55,
              "velocity": 34,
              "position": 8.783333,
              "duration": 0.458333
            },
            {
              "pitch": 67,
              "velocity": 42,
              "position": 9.225,
              "duration": 0.191667
            },
            {
              "pitch": 64,
              "velocity": 48,
              "position": 9.241667,
              "duration": 0.175
            },
            {
              "pitch": 59,
              "velocity": 48,
              "position": 9.25,
              "duration": 0.166667
            },
            {
              "pitch": 55,
              "velocity": 42,
              "position": 9.258333,
              "duration": 0.158333
            },
            {
              "pitch": 55,
              "velocity": 52,
              "position": 9.475,
              "duration": 0.191667
            },
            {
              "pitch": 59,
              "velocity": 52,
              "position": 9.491667,
              "duration": 0.175
            },
            {
              "pitch": 64,
              "velocity": 52,
              "position": 9.5,
              "duration": 0.166667
            },
            {
              "pitch": 67,
              "velocity": 52,
              "position": 9.508333,
              "duration": 0.158333
            },
            {
              "pitch": 67,
              "velocity": 29,
              "position": 9.725,
              "duration": 0.208333
            },
            {
              "pitch": 64,
              "velocity": 33,
              "position": 9.741667,
              "duration": 0.191667
            },
            {
              "pitch": 59,
              "velocity": 33,
              "position": 9.75,
              "duration": 0.183333
            },
            {
              "pitch": 55,
              "velocity": 29,
              "position": 9.758333,
              "duration": 0.175
            },
            {
              "pitch": 55,
              "velocity": 64,
              "position": 9.975,
              "duration": 0.25
            },
            {
              "pitch": 59,
              "velocity": 64,
              "position": 9.991667,
              "duration": 0.233333
            },
            {
              "pitch": 64,
              "velocity": 64,
              "position": 10.0,
              "duration": 0.225
            },
            {
              "pitch": 67,
              "velocity": 64,
              "position": 10.008333,
              "duration": 0.2
            },
            {
              "pitch": 67,
              "velocity": 28,
              "position": 10.225,
              "duration": 0.2
            },
            {
              "pitch": 64,
              "velocity": 32,
              "position": 10.241667,
              "duration": 0.183333
            },
            {
              "pitch": 59,
              "velocity": 32,
              "position": 10.25,
              "duration": 0.175
            },
            {
              "pitch": 55,
              "velocity": 28,
              "position": 10.258333,
              "duration": 0.166667
            },
            {
              "pitch": 55,
              "velocity": 63,
              "position": 10.475,
              "duration": 0.166667
            },
            {
              "pitch": 59,
              "velocity": 63,
              "position": 10.491667,
              "duration": 0.15
            },
            {
              "pitch": 64,
              "velocity": 63,
              "position": 10.5,
              "duration": 0.141667
            },
            {
              "pitch": 67,
              "velocity": 63,
              "position": 10.508333,
              "duration": 0.133333
            },
            {
              "pitch": 55,
              "velocity": 58,
              "position": 10.975,
              "duration": 0.25
            },
            {
              "pitch": 59,
              "velocity": 58,
              "position": 10.991667,
              "duration": 0.233333
            },
            {
              "pitch": 64,
              "velocity": 58,
              "position": 11.0,
              "duration": 0.225
            },
            {
              "pitch": 67,
              "velocity": 58,
              "position": 11.008333,
              "duration": 0.2
            },
            {
              "pitch": 67,
              "velocity": 32,
              "position": 11.225,
              "duration": 0.2
            },
            {
              "pitch": 64,
              "velocity": 37,
              "position": 11.241667,
              "duration": 0.183333
            },
            {
              "pitch": 59,
              "velocity": 37,
              "position": 11.25,
              "duration": 0.175
            },
            {
              "pitch": 55,
              "velocity": 32,
              "position": 11.258333,
              "duration": 0.166667
            },
            {
              "pitch": 55,
              "velocity": 60,
              "position": 11.475,
              "duration": 0.233333
            },
            {
              "pitch": 59,
              "velocity": 60,
              "position": 11.491667,
              "duration": 0.216667
            },
            {
              "pitch": 64,
              "velocity": 60,
              "position": 11.5,
              "duration": 0.208333
            },
            {
              "pitch": 67,
              "velocity": 60,
              "position": 11.508333,
              "duration": 0.2
            },
            {
              "pitch": 67,
              "velocity": 42,
              "position": 13.225,
              "duration": 0.183333
            },
            {
              "pitch": 64,
              "velocity": 48,
              "position": 13.241667,
              "duration": 0.166667
            },
            {
              "pitch": 59,
              "velocity": 48,
              "position": 13.25,
              "duration": 0.158333
            },
            {
              "pitch": 55,
              "velocity": 42,
              "position": 13.258333,
              "duration": 0.15
            },
            {
              "pitch": 55,
              "velocity": 50,
              "position": 13.475,
              "duration": 0.2
            },
            {
              "pitch": 59,
              "velocity": 50,
              "position": 13.491667,
              "duration": 0.183333
            },
            {
              "pitch": 64,
              "velocity": 50,
              "position": 13.5,
              "duration": 0.175
            },
            {
              "pitch": 67,
              "velocity": 50,
              "position": 13.508333,
              "duration": 0.166667
            },
            {
              "pitch": 67,
              "velocity": 30,
              "position": 13.725,
              "duration": 0.2
            },
            {
              "pitch": 64,
              "velocity": 34,
              "position": 13.741667,
              "duration": 0.183333
            },
            {
              "pitch": 59,
              "velocity": 34,
              "position": 13.75,
              "duration": 0.175
            },
            {
              "pitch": 55,
              "velocity": 30,
              "position": 13.758333,
              "duration": 0.166667
            },
            {
              "pitch": 55,
              "velocity": 60,
              "position": 13.975,
              "duration": 0.25
            },
            {
              "pitch": 59,
              "velocity": 60,
              "position": 13.991667,
              "duration": 0.233333
            },
            {
              "pitch": 64,
              "velocity": 60,
              "position": 14.0,
              "duration": 0.225
            },
            {
              "pitch": 67,
              "velocity": 60,
              "position": 14.008333,
              "duration": 0.2
            },
            {
              "pitch": 67,
              "velocity": 28,
              "position": 14.225,
              "duration": 0.2
            },
            {
              "pitch": 64,
              "velocity": 32,
              "position": 14.241667,
              "duration": 0.183333
            },
            {
              "pitch": 59,
              "velocity": 32,
              "position": 14.25,
              "duration": 0.175
            },
            {
              "pitch": 55,
              "velocity": 28,
              "position": 14.258333,
              "duration": 0.166667
            },
            {
              "pitch": 55,
              "velocity": 61,
              "position": 14.475,
              "duration": 0.208333
            },
            {
              "pitch": 59,
              "velocity": 61,
              "position": 14.491667,
              "duration": 0.191667
            },
            {
              "pitch": 64,
              "velocity": 61,
              "position": 14.5,
              "duration": 0.183333
            },
            {
              "pitch": 67,
              "velocity": 61,
              "position": 14.508333,
              "duration": 0.175
            },
            {
              "pitch": 55,
              "velocity": 60,
              "position": 14.975,
              "duration": 0.158333
            },
            {
              "pitch": 59,
              "velocity": 60,
              "position": 14.991667,
              "duration": 0.141667
            },
            {
              "pitch": 64,
              "velocity": 60,
              "position": 15.0,
              "duration": 0.133333
            },
            {
              "pitch": 67,
              "velocity": 60,
              "position": 15.008333,
              "duration": 0.125
            },
            {
              "pitch": 67,
              "velocity": 33,
              "position": 15.225,
              "duration": 0.225
            },
            {
              "pitch": 64,
              "velocity": 38,
              "position": 15.241667,
              "duration": 0.208333
            },
            {
              "pitch": 59,
              "velocity": 38,
              "position": 15.25,
              "duration": 0.2
            },
            {
              "pitch": 55,
              "velocity": 33,
              "position": 15.258333,
              "duration": 0.191667
            },
            {
              "pitch": 55,
              "velocity": 70,
              "position": 15.475,
              "duration": 0.141667
            },
            {
              "pitch": 59,
              "velocity": 70,
              "position": 15.491667,
              "duration": 0.125
            },
            {
              "pitch": 64,
              "velocity": 70,
              "position": 15.5,
              "duration": 0.116667
            },
            {
              "pitch": 67,
              "velocity": 70,
              "position": 15.508333,
              "duration": 0.108333
            },
            {
              "pitch": 55,
              "velocity": 54,
              "position": 15.975,
              "duration": 0.141667
            },
            {
              "pitch": 59,
              "velocity": 54,
              "position": 15.991667,
              "duration": 0.125
            }
          ]
        },
        "13": {
          "ctab": {
            "srcChannel": 13,
            "name": "Strings",
            "accType": "PAD",
            "editable": true,
            "mutedNotes": [],
            "mutedChords": [],
            "sourceChordNote": 0,
            "sourceChordType": "Maj7",
            "ctb2Main": {
              "ntr": "ROOT_FIXED",
              "ntt": "MELODY",
              "bassOn": false,
              "noteLowLimit": 36,
              "noteHighLimit": 96,
              "chordRootUpperLimit": 127,
              "rtr": "PITCH_SHIFT"
            }
          },
          "notes": []
        }
      }
    },
    "Fill_In_AA": {
      "type": "Fill_In_AA",
      "sizeInBeats": 16,
      "channels": {
        "9": {
          "ctab": {
            "srcChannel": 9,
            "name": "Drums",
            "accType": "RHYTHM",
            "editable": false,
            "mutedNotes": [],
            "mutedChords": [],
            "sourceChordNote": 0,
            "sourceChordType": "Maj",
            "ctb2Main": {
              "ntr": "ROOT_FIXED",
              "ntt": "BYPASS",
              "bassOn": false,
              "noteLowLimit": 20,
              "noteHighLimit": 127,
              "chordRootUpperLimit": 127,
              "rtr": "RETRIGGER"
            }
          },
          "notes": [
            {
              "pitch": 35,
              "velocity": 80,
              "position": 0.0,
              "duration": 0.208333
            },
            {
              "pitch": 49,
              "velocity": 92,
              "position": 0.0,
              "duration": 0.208333
            },
            {
              "pitch": 56,
              "velocity": 70,
              "position": 0.0,
              "duration": 0.208333
            },
            {
              "pitch": 63,
              "velocity": 80,
              "position": 0.0,
              "duration": 0.083333
            },
            {
              "pitch": 69,
              "velocity": 80,
              "position": 0.0,
              "duration": 0.208333
            },
            {
              "pitch": 35,
              "velocity": 60,
              "position": 0.25,
              "duration": 0.208333
            },
            {
              "pitch": 42,
              "velocity": 92,
              "position": 0.25,
              "duration": 0.208333
            },
            {
              "pitch": 62,
              "velocity": 60,
              "position": 0.25,
              "duration": 0.208333
            },
            {
              "pitch": 69,
              "velocity": 60,
              "position": 0.25,
              "duration": 0.208333
            },
            {
              "pitch": 42,
              "velocity": 60,
              "position": 0.5,
              "duration": 0.208333
            },
            {
              "pitch": 63,
              "velocity": 50,
              "position": 0.5,
              "duration": 0.208333
            },
            {
              "pitch": 70,
              "velocity": 70,
              "position": 0.5,
              "duration": 0.208333
            },
            {
              "pitch": 42,
              "velocity": 40,
              "position": 0.75,
              "duration": 0.208333
            },
            {
              "pitch": 63,
              "velocity": 40,
              "position": 0.75,
              "duration": 0.208333
            },
            {
              "pitch": 38,
              "velocity": 80,
              "position": 1.0,
              "duration": 0.208333
            },
            {
              "pitch": 39,
              "velocity": 92,
              "position": 1.0,
              "duration": 0.208333
            },
            {
              "pitch": 42,
              "velocity": 80,
              "position": 1.0,
              "duration": 0.208333
            },
            {
              "pitch": 54,
              "velocity": 92,
              "position": 1.0,
              "duration": 0.208333
            },
            {
              "pitch": 56,
              "velocity": 70,
              "position": 1.0,
              "duration": 0.208333
            },
            {
              "pitch": 62,
              "velocity": 80,
              "position": 1.0,
              "duration": 0.208333
            },
            {
              "pitch": 69,
              "velocity": 80,
              "position": 1.0,
              "duration": 0.208333
            },
            {
              "pitch": 42,
              "velocity": 40,
              "position": 1.25,
              "duration": 0.208333
            },
            {
              "pitch": 63,
              "velocity": 60,
              "position": 1.25,
              "duration": 0.208333
            },
            {
              "pitch": 69,
              "velocity": 50,
              "position": 1.25,
              "duration": 0.208333
            },
            {
              "pitch": 42,
              "velocity": 60,
              "position": 1.5,
              "duration": 0.208333
            },
            {
              "pitch": 63,
              "velocity": 50,
              "position": 1.5,
              "duration": 0.208333
            },
            {
              "pitch": 70,
              "velocity": 70,
              "position": 1.5,
              "duration": 0.208333
            },
            {
              "pitch": 35,
              "velocity": 80,
              "position": 1.75,
              "duration": 0.208333
            },
            {
              "pitch": 42,
              "velocity": 50,
              "position": 1.75,
              "duration": 0.208333
            },
            {
              "pitch": 63,
              "velocity": 40,
              "position": 1.75,
              "duration": 0.208333
            },
            {
              "pitch": 42,
              "velocity": 70,
              "position": 2.0,
              "duration": 0.208333
            },
            {
              "pitch": 56,
              "velocity": 70,
              "position": 2.0,
              "duration": 0.208333
            },
            {
              "pitch": 63,
              "velocity": 40,
              "position": 2.0,
              "duration": 0.208333
            },
            {
              "pitch": 69,
              "velocity": 70,
              "position": 2.0,
              "duration": 0.208333
            },
            {
              "pitch": 35,
              "velocity": 70,
              "position": 2.25,
              "duration": 0.208333
            },
            {
              "pitch": 42,
              "velocity": 80,
              "position": 2.25,
              "duration": 0.208333
            },
            {
              "pitch": 62,
              "velocity": 80,
              "position": 2.25,
              "duration": 0.208333
            },
            {
              "pitch": 69,
              "velocity": 50,
              "position": 2.25,
              "duration": 0.208333
            },
            {
              "pitch": 35,
              "velocity": 60,
              "position": 2.5,
              "duration": 0.208333
            },
            {
              "pitch": 42,
              "velocity": 50,
              "position": 2.5,
              "duration": 0.208333
            },
            {
              "pitch": 63,
              "velocity": 60,
              "position": 2.5,
              "duration": 0.208333
            },
            {
              "pitch": 70,
              "velocity": 60,
              "position": 2.5,
              "duration": 0.208333
            },
            {
              "pitch": 42,
              "velocity": 60,
              "position": 2.75,
              "duration": 0.208333
            },
            {
              "pitch": 63,
              "velocity": 40,
              "position": 2.75,
              "duration": 0.208333
            },
            {
              "pitch": 38,
              "velocity": 40,
              "position": 2.875,
              "duration": 0.125
            },
            {
              "pitch": 38,
              "velocity": 80,
              "position": 3.0,
              "duration": 0.083333
            },
            {
              "pitch": 39,
              "velocity": 92,
              "position": 3.0,
              "duration": 0.208333
            },
            {
              "pitch": 42,
              "velocity": 70,
              "position": 3.0,
              "duration": 0.208333
            },
            {
              "pitch": 54,
              "velocity": 92,
              "position": 3.0,
              "duration": 0.208333
            },
            {
              "pitch": 56,
              "velocity": 70,
              "position": 3.0,
              "duration": 0.208333
            },
            {
              "pitch": 63,
              "velocity": 80,
              "position": 3.0,
              "duration": 0.208333
            },
            {
              "pitch": 69,
              "velocity": 80,
              "position": 3.0,
              "duration": 0.208333
            },
            {
              "pitch": 42,
              "velocity": 50,
              "position": 3.25,
              "duration": 0.208333
            },
            {
              "pitch": 62,
              "velocity": 80,
              "position": 3.25,
              "duration": 0.208333
            },
            {
              "pitch": 69,
              "velocity": 50,
              "position": 3.25,
              "duration": 0.208333
            },
            {
              "pitch": 46,
              "velocity": 70,
              "position": 3.5,
              "duration": 0.208333
            },
            {
              "pitch": 62,
              "velocity": 60,
              "position": 3.5,
              "duration": 0.208333
            },
            {
              "pitch": 70,
              "velocity": 70,
              "position": 3.5,
              "duration": 0.208333
            },
            {
              "pitch": 63,
              "velocity": 40,
              "position": 3.75,
              "duration": 0.208333
            },
            {
              "pitch": 35,
              "velocity": 80,
              "position": 4.0,
              "duration": 0.208333
            },
            {
              "pitch": 42,
              "velocity": 50,
              "position": 4.0,
              "duration": 0.208333
            },
            {
              "pitch": 56,
              "velocity": 70,
              "position": 4.0,
              "duration": 0.208333
            },
            {
              "pitch": 63,
              "velocity": 70,
              "position": 4.0,
              "duration": 0.208333
            },
            {
              "pitch": 69,
              "velocity": 80,
              "position": 4.0,
              "duration": 0.208333
            },
            {
              "pitch": 35,
              "velocity": 60,
              "position": 4.25,
              "duration": 0.208333
            },
            {
              "pitch": 42,
              "velocity": 80,
              "position": 4.25,
              "duration": 0.208333
            },
            {
              "pitch": 63,
              "velocity": 60,
              "position": 4.25,
              "duration": 0.208333
            },
            {
              "pitch": 69,
              "velocity": 60,
              "position": 4.25,
              "duration": 0.208333
            },
            {
              "pitch": 42,
              "velocity": 60,
              "position": 4.5,
              "duration": 0.208333
            },
            {
              "pitch": 63,
              "velocity": 90,
              "position": 4.5,
              "duration": 0.208333
            },
            {
              "pitch": 70,
              "velocity": 70,
              "position": 4.5,
              "duration": 0.208333
            },
            {
              "pitch": 42,
              "velocity": 40,
              "position": 4.75,
              "duration": 0.208333
            },
            {
              "pitch": 63,
              "velocity": 50,
              "position": 4.75,
              "duration": 0.208333
            },
            {
              "pitch": 38,
              "velocity": 80,
              "position": 5.0,
              "duration": 0.208333
            },
            {
              "pitch": 39,
              "velocity": 92,
              "position": 5.0,
              "duration": 0.208333
            },
            {
              "pitch": 42,
              "velocity": 80,
              "position": 5.0,
              "duration": 0.208333
            },
            {
              "pitch": 54,
              "velocity": 92,
              "position": 5.0,
              "duration": 0.208333
            },
            {
              "pitch": 56,
              "velocity": 70,
              "position": 5.0,
              "duration": 0.208333
            },
            {
              "pitch": 62,
              "velocity": 80,
              "position": 5.0,
              "duration": 0.208333
            },
            {
              "pitch": 69,
              "velocity": 80,
              "position": 5.0,
              "duration": 0.208333
            },
            {
              "pitch": 38,
              "velocity": 50,
              "position": 5.25,
              "duration": 0.208333
            },
            {
              "pitch": 42,
              "velocity": 50,
              "position": 5.25,
              "duration": 0.208333
            },
            {
              "pitch": 63,
              "velocity": 70,
              "position": 5.25,
              "duration": 0.208333
            },
            {
              "pitch": 69,
              "velocity": 50,
              "position": 5.25,
              "duration": 0.208333
            },
            {
              "pitch": 42,
              "velocity": 70,
              "position": 5.5,
              "duration": 0.208333
            },
            {
              "pitch": 70,
              "velocity": 70,
              "position": 5.5,
              "duration": 0.208333
            },
            {
              "pitch": 35,
              "velocity": 80,
              "position": 5.75,
              "duration": 0.208333
            },
            {
              "pitch": 38,
              "velocity": 70,
              "position": 5.75,
              "duration": 0.208333
            },
            {
              "pitch": 42,
              "velocity": 40,
              "position": 5.75,
              "duration": 0.208333
            },
            {
              "pitch": 63,
              "velocity": 80,
              "position": 5.75,
              "duration": 0.208333
            },
            {
              "pitch": 42,
              "velocity": 70,
              "position": 6.0,
              "duration": 0.208333
            },
            {
              "pitch": 56,
              "velocity": 70,
              "position": 6.0,
              "duration": 0.208333
            },
            {
              "pitch": 69,
              "velocity": 70,
              "position": 6.0,
              "duration": 0.208333
            },
            {
              "pitch": 35,
              "velocity": 70,
              "position": 6.25,
              "duration": 0.208333
            },
            {
              "pitch": 42,
              "velocity": 40,
              "position": 6.25,
              "duration": 0.208333
            },
            {
              "pitch": 62,
              "velocity": 80,
              "position": 6.25,
              "duration": 0.208333
            },
            {
              "pitch": 69,
              "velocity": 50,
              "position": 6.25,
              "duration": 0.208333
            },
            {
              "pitch": 35,
              "velocity": 60,
              "position": 6.5,
              "duration": 0.208333
            },
            {
              "pitch": 42,
              "velocity": 60,
              "position": 6.5,
              "duration": 0.208333
            },
            {
              "pitch": 63,
              "velocity": 50,
              "position": 6.5,
              "duration": 0.208333
            },
            {
              "pitch": 70,
              "velocity": 60,
              "position": 6.5,
              "duration": 0.208333
            },
            {
              "pitch": 42,
              "velocity": 70,
              "position": 6.75,
              "duration": 0.208333
            },
            {
              "pitch": 63,
              "velocity": 40,
              "position": 6.75,
              "duration": 0.208333
            },
            {
              "pitch": 38,
              "velocity": 80,
              "position": 7.0,
              "duration": 0.208333
            },
            {
              "pitch": 39,
              "velocity": 92,
              "position": 7.0,
              "duration": 0.208333
            },
            {
              "pitch": 42,
              "velocity": 80,
              "position": 7.0,
              "duration": 0.208333
            },
            {
              "pitch": 54,
              "velocity": 92,
              "position": 7.0,
              "duration": 0.208333
            },
            {
              "pitch": 56,
              "velocity": 80,
              "position": 7.0,
              "duration": 0.208333
            },
            {
              "pitch": 63,
              "velocity": 80,
              "position": 7.0,
              "duration": 0.208333
            },
            {
              "pitch": 69,
              "velocity": 80,
              "position": 7.0,
              "duration": 0.208333
            },
            {
              "pitch": 42,
              "velocity": 50,
              "position": 7.25,
              "duration": 0.208333
            },
            {
              "pitch": 63,
              "velocity": 50,
              "position": 7.25,
              "duration": 0.208333
            },
            {
              "pitch": 69,
              "velocity": 50,
              "position": 7.25,
              "duration": 0.208333
            },
            {
              "pitch": 35,
              "velocity": 60,
              "position": 7.5,
              "duration": 0.208333
            },
            {
              "pitch": 46,
              "velocity": 70,
              "position": 7.5,
              "duration": 0.208333
            },
            {
              "pitch": 63,
              "velocity": 60,
              "position": 7.5,
              "duration": 0.208333
            },
            {
              "pitch": 70,
              "velocity": 70,
              "position": 7.5,
              "duration": 0.208333
            },
            {
              "pitch": 38,
              "velocity": 50,
              "position": 7.75,
              "duration": 0.125
            },
            {
              "pitch": 63,
              "velocity": 50,
              "position": 7.75,
              "duration": 0.125
            },
            {
              "pitch": 38,
              "velocity": 40,
              "position": 7.875,
              "duration": 0.083333
            },
            {
              "pitch": 63,
              "velocity": 40,
              "position": 7.875,
              "duration": 0.083333
            },
            {
              "pitch": 35,
              "velocity": 80,
              "position": 8.0,
              "duration": 0.208333
            },
            {
              "pitch": 42,
              "velocity": 70,
              "position": 8.0,
              "duration": 0.208333
            },
            {
              "pitch": 56,
              "velocity": 70,
              "position": 8.0,
              "duration": 0.208333
            },
            {
              "pitch": 69,
              "velocity": 80,
              "position": 8.0,
              "duration": 0.208333
            },
            {
              "pitch": 46,
              "velocity": 80,
              "position": 8.25,
              "duration": 0.208333
            },
            {
              "pitch": 62,
              "velocity": 80,
              "position": 8.25,
              "duration": 0.208333
            },
            {
              "pitch": 69,
              "velocity": 60,
              "position": 8.25,
              "duration": 0.208333
            },
            {
              "pitch": 42,
              "velocity": 60,
              "position": 8.5,
              "duration": 0.208333
            },
            {
              "pitch": 63,
              "velocity": 50,
              "position": 8.5,
              "duration": 0.208333
            },
            {
              "pitch": 70,
              "velocity": 70,
              "position": 8.5,
              "duration": 0.208333
            },
            {
              "pitch": 42,
              "velocity": 40,
              "position": 8.75,
              "duration": 0.208333
            },
            {
              "pitch": 63,
              "velocity": 40,
              "position": 8.75,
              "duration": 0.125
            },
            {
              "pitch": 63,
              "velocity": 32,
              "position": 8.875,
              "duration": 0.083333
            },
            {
              "pitch": 38,
              "velocity": 80,
              "position": 9.0,
              "duration": 0.208333
            },
            {
              "pitch": 39,
              "velocity": 92,
              "position": 9.0,
              "duration": 0.208333
            },
            {
              "pitch": 42,
              "velocity": 70,
              "position": 9.0,
              "duration": 0.208333
            },
            {
              "pitch": 54,
              "velocity": 92,
              "position": 9.0,
              "duration": 0.208333
            },
            {
              "pitch": 56,
              "velocity": 70,
              "position": 9.0,
              "duration": 0.208333
            },
            {
              "pitch": 63,
              "velocity": 90,
              "position": 9.0,
              "duration": 0.083333
            },
            {
              "pitch": 69,
              "velocity": 80,
              "position": 9.0,
              "duration": 0.208333
            },
            {
              "pitch": 42,
              "velocity": 50,
              "position": 9.25,
              "duration": 0.208333
            },
            {
              "pitch": 63,
              "velocity": 60,
              "position": 9.25,
              "duration": 0.208333
            },
            {
              "pitch": 69,
              "velocity": 50,
              "position": 9.25,
              "duration": 0.208333
            },
            {
              "pitch": 42,
              "velocity": 80,
              "position": 9.5,
              "duration": 0.208333
            },
            {
              "pitch": 63,
              "velocity": 50,
              "position": 9.5,
              "duration": 0.208333
            },
            {
              "pitch": 70,
              "velocity": 70,
              "position": 9.5,
              "duration": 0.208333
            },
            {
              "pitch": 35,
              "velocity": 80,
              "position": 9.75,
              "duration": 0.208333
            },
            {
              "pitch": 42,
              "velocity": 50,
              "position": 9.75,
              "duration": 0.208333
            },
            {
              "pitch": 62,
              "velocity": 90,
              "position": 9.75,
              "duration": 0.208333
            },
            {
              "pitch": 42,
              "velocity": 70,
              "position": 10.0,
              "duration": 0.208333
            },
            {
              "pitch": 56,
              "velocity": 70,
              "position": 10.0,
              "duration": 0.208333
            },
            {
              "pitch": 69,
              "velocity": 70,
              "position": 10.0,
              "duration": 0.208333
            },
            {
              "pitch": 35,
              "velocity": 70,
              "position": 10.25,
              "duration": 0.208333
            },
            {
              "pitch": 42,
              "velocity": 80,
              "position": 10.25,
              "duration": 0.208333
            },
            {
              "pitch": 63,
              "velocity": 80,
              "position": 10.25,
              "duration": 0.208333
            },
            {
              "pitch": 69,
              "velocity": 50,
              "position": 10.25,
              "duration": 0.208333
            },
            {
              "pitch": 35,
              "velocity": 60,
              "position": 10.5,
              "duration": 0.208333
            },
            {
              "pitch": 42,
              "velocity": 50,
              "position": 10.5,
              "duration": 0.208333
            },
            {
              "pitch": 63,
              "velocity": 50,
              "position": 10.5,
              "duration": 0.208333
            },
            {
              "pitch": 70,
              "velocity": 60,
              "position": 10.5,
              "duration": 0.208333
            },
            {
              "pitch": 42,
              "velocity": 60,
              "position": 10.75,
              "duration": 0.208333
            },
            {
              "pitch": 63,
              "velocity": 40,
              "position": 10.75,
              "duration": 0.208333
            },
            {
              "pitch": 38,
              "velocity": 40,
              "position": 10.875,
              "duration": 0.125
            },
            {
              "pitch": 38,
              "velocity": 80,
              "position": 11.0,
              "duration": 0.083333
            },
            {
              "pitch": 39,
              "velocity": 92,
              "position": 11.0,
              "duration": 0.208333
            },
            {
              "pitch": 42,
              "velocity": 70,
              "position": 11.0,
              "duration": 0.208333
            },
            {
              "pitch": 54,
              "velocity": 92,
              "position": 11.0,
              "duration": 0.208333
            },
            {
              "pitch": 56,
              "velocity": 70,
              "position": 11.0,
              "duration": 0.208333
            },
            {
              "pitch": 63,
              "velocity": 50,
              "position": 11.0,
              "duration": 0.208333
            },
            {
              "pitch": 69,
              "velocity": 80,
              "position": 11.0,
              "duration": 0.208333
            },
            {
              "pitch": 38,
              "velocity": 50,
              "position": 11.25,
              "duration": 0.208333
            },
            {
              "pitch": 42,
              "velocity": 50,
              "position": 11.25,
              "duration": 0.208333
            },
            {
              "pitch": 63,
              "velocity": 90,
              "position": 11.25,
              "duration": 0.208333
            },
            {
              "pitch": 69,
              "velocity": 50,
              "position": 11.25,
              "duration": 0.208333
            },
            {
              "pitch": 46,
              "velocity": 70,
              "position": 11.5,
              "duration": 0.208333
            },
            {
              "pitch": 62,
              "velocity": 60,
              "position": 11.5,
              "duration": 0.208333
            },
            {
              "pitch": 70,
              "velocity": 70,
              "position": 11.5,
              "duration": 0.208333
            },
            {
              "pitch": 63,
              "velocity": 40,
              "position": 11.75,
              "duration": 0.208333
            },
            {
              "pitch": 35,
              "velocity": 80,
              "position": 12.0,
              "duration": 0.208333
            },
            {
              "pitch": 42,
              "velocity": 50,
              "position": 12.0,
              "duration": 0.208333
            },
            {
              "pitch": 56,
              "velocity": 70,
              "position": 12.0,
              "duration": 0.208333
            },
            {
              "pitch": 69,
              "velocity": 80,
              "position": 12.0,
              "duration": 0.208333
            },
            {
              "pitch": 35,
              "velocity": 60,
              "position": 12.25,
              "duration": 0.208333
            },
            {
              "pitch": 38,
              "velocity": 60,
              "position": 12.25,
              "duration": 0.208333
            },
            {
              "pitch": 42,
              "velocity": 80,
              "position": 12.25,
              "duration": 0.208333
            },
            {
              "pitch": 62,
              "velocity": 60,
              "position": 12.25,
              "duration": 0.208333
            },
            {
              "pitch": 69,
              "velocity": 60,
              "position": 12.25,
              "duration": 0.208333
            },
            {
              "pitch": 42,
              "velocity": 60,
              "position": 12.5,
              "duration": 0.208333
            },
            {
              "pitch": 63,
              "velocity": 50,
              "position": 12.5,
              "duration": 0.208333
            },
            {
              "pitch": 70,
              "velocity": 70,
              "position": 12.5,
              "duration": 0.208333
            },
            {
              "pitch": 42,
              "velocity": 40,
              "position": 12.75,
              "duration": 0.208333
            },
            {
              "pitch": 63,
              "velocity": 50,
              "position": 12.75,
              "duration": 0.208333
            },
            {
              "pitch": 38,
              "velocity": 56,
              "position": 12.875,
              "duration": 0.125
            },
            {
              "pitch": 38,
              "velocity": 90,
              "position": 13.0,
              "duration": 0.083333
            },
            {
              "pitch": 39,
              "velocity": 92,
              "position": 13.0,
              "duration": 0.208333
            },
            {
              "pitch": 42,
              "velocity": 80,
              "position": 13.0,
              "duration": 0.208333
            },
            {
              "pitch": 54,
              "velocity": 92,
              "position": 13.0,
              "duration": 0.208333
            },
            {
              "pitch": 56,
              "velocity": 70,
              "position": 13.0,
              "duration": 0.208333
            },
            {
              "pitch": 62,
              "velocity": 80,
              "position": 13.0,
              "duration": 0.208333
            },
            {
              "pitch": 69,
              "velocity": 80,
              "position": 13.0,
              "duration": 0.208333
            },
            {
              "pitch": 38,
              "velocity": 60,
              "position": 13.25,
              "duration": 0.208333
            },
            {
              "pitch": 42,
              "velocity": 50,
              "position": 13.25,
              "duration": 0.208333
            },
            {
              "pitch": 63,
              "velocity": 70,
              "position": 13.25,
              "duration": 0.208333
            },
            {
              "pitch": 69,
              "velocity": 50,
              "position": 13.25,
              "duration": 0.208333
            },
            {
              "pitch": 42,
              "velocity": 70,
              "position": 13.5,
              "duration": 0.208333
            },
            {
              "pitch": 63,
              "velocity": 60,
              "position": 13.5,
              "duration": 0.208333
            },
            {
              "pitch": 70,
              "velocity": 70,
              "position": 13.5,
              "duration": 0.208333
            },
            {
              "pitch": 35,
              "velocity": 80,
              "position": 13.75,
              "duration": 0.208333
            },
            {
              "pitch": 46,
              "velocity": 92,
              "position": 13.75,
              "duration": 0.208333
            },
            {
              "pitch": 63,
              "velocity": 80,
              "position": 13.75,
              "duration": 0.208333
            },
            {
              "pitch": 42,
              "velocity": 70,
              "position": 14.0,
              "duration": 0.208333
            },
            {
              "pitch": 56,
              "velocity": 70,
              "position": 14.0,
              "duration": 0.208333
            },
            {
              "pitch": 62,
              "velocity": 50,
              "position": 14.0,
              "duration": 0.208333
            },
            {
              "pitch": 69,
              "velocity": 70,
              "position": 14.0,
              "duration": 0.208333
            },
            {
              "pitch": 35,
              "velocity": 70,
              "position": 14.25,
              "duration": 0.208333
            },
            {
              "pitch": 38,
              "velocity": 92,
              "position": 14.25,
              "duration": 0.208333
            },
            {
              "pitch": 46,
              "velocity": 80,
              "position": 14.25,
              "duration": 0.208333
            },
            {
              "pitch": 63,
              "velocity": 80,
              "position": 14.25,
              "duration": 0.208333
            },
            {
              "pitch": 69,
              "velocity": 50,
              "position": 14.25,
              "duration": 0.208333
            },
            {
              "pitch": 35,
              "velocity": 60,
              "position": 14.5,
              "duration": 0.208333
            },
            {
              "pitch": 38,
              "velocity": 60,
              "position": 14.5,
              "duration": 0.208333
            },
            {
              "pitch": 63,
              "velocity": 92,
              "position": 14.5,
              "duration": 0.208333
            },
            {
              "pitch": 70,
              "velocity": 60,
              "position": 14.5,
              "duration": 0.208333
            },
            {
              "pitch": 38,
              "velocity": 50,
              "position": 14.75,
              "duration": 0.208333
            },
            {
              "pitch": 63,
              "velocity": 70,
              "position": 14.75,
              "duration": 0.208333
            },
            {
              "pitch": 39,
              "velocity": 92,
              "position": 15.0,
              "duration": 0.208333
            },
            {
              "pitch": 42,
              "velocity": 80,
              "position": 15.0,
              "duration": 0.208333
            },
            {
              "pitch": 46,
              "velocity": 90,
              "position": 15.0,
              "duration": 0.208333
            },
            {
              "pitch": 54,
              "velocity": 92,
              "position": 15.0,
              "duration": 0.208333
            },
            {
              "pitch": 56,
              "velocity": 80,
              "position": 15.0,
              "duration": 0.208333
            },
            {
              "pitch": 62,
              "velocity": 70,
              "position": 15.0,
              "duration": 0.208333
            },
            {
              "pitch": 69,
              "velocity": 80,
              "position": 15.0,
              "duration": 0.208333
            },
            {
              "pitch": 45,
              "velocity": 92,
              "position": 15.25,
              "duration": 0.208333
            },
            {
              "pitch": 54,
              "velocity": 70,
              "position": 15.25,
              "duration": 0.208333
            },
            {
              "pitch": 62,
              "velocity": 92,
              "position": 15.25,
              "duration": 0.208333
            },
            {
              "pitch": 69,
              "velocity": 50,
              "position": 15.25,
              "duration": 0.208333
            },
            {
              "pitch": 35,
              "velocity": 60,
              "position": 15.5,
              "duration": 0.208333
            },
            {
              "pitch": 41,
              "velocity": 92,
              "position": 15.5,
              "duration": 0.208333
            },
            {
              "pitch": 46,
              "velocity": 70,
              "position": 15.5,
              "duration": 0.208333
            },
            {
              "pitch": 54,
              "velocity": 92,
              "position": 15.5,
              "duration": 0.208333
            },
            {
              "pitch": 63,
              "velocity": 90,
              "position": 15.5,
              "duration": 0.208333
            },
            {
              "pitch": 70,
              "velocity": 70,
              "position": 15.5,
              "duration": 0.208333
            },
            {
              "pitch": 63,
              "velocity": 80,
              "position": 15.75,
              "duration": 0.125
            },
            {
              "pitch": 63,
              "velocity": 64,
              "position": 15.875,
              "duration": 0.083333
            }
          ]
        },
        "10": {
          "ctab": {
            "srcChannel": 10,
            "name": "Bass",
            "accType": "BASS",
            "editable": true,
            "mutedNotes": [],
            "mutedChords": [],
            "sourceChordNote": 0,
            "sourceChordType": "Maj7",
            "ctb2Main": {
              "ntr": "ROOT_TRANSPOSITION",
              "ntt": "BYPASS",
              "bassOn": true,
              "noteLowLimit": 20,
              "noteHighLimit": 60,
              "chordRootUpperLimit": 127,
              "rtr": "NOTE_GENERATOR"
            }
          },
          "notes": [
            {
              "pitch": 36,
              "velocity": 79,
              "position": 0.0,
              "duration": 1.633333
            },
            {
              "pitch": 35,
              "velocity": 79,
              "position": 1.75,
              "duration": 0.083333
            },
            {
              "pitch": 36,
              "velocity": 76,
              "position": 2.0,
              "duration": 0.158333
            },
            {
              "pitch": 36,
              "velocity": 83,
              "position": 2.5,
              "duration": 0.683333
            },
            {
              "pitch": 31,
              "velocity": 75,
              "position": 3.25,
              "duration": 0.1
            },
            {
              "pitch": 36,
              "velocity": 83,
              "position": 3.5,
              "duration": 0.291667
            },
            {
              "pitch": 36,
              "velocity": 65,
              "position": 4.008333,
              "duration": 0.3
            },
            {
              "pitch": 36,
              "velocity": 71,
              "position": 4.5,
              "duration": 1.0
            },
            {
              "pitch": 36,
              "velocity": 76,
              "position": 5.75,
              "duration": 0.391667
            },
            {
              "pitch": 36,
              "velocity": 83,
              "position": 6.5,
              "duration": 0.683333
            },
            {
              "pitch": 31,
              "velocity": 75,
              "position": 7.25,
              "duration": 0.1
            },
            {
              "pitch": 38,
              "velocity": 83,
              "position": 7.5,
              "duration": 0.291667
            },
            {
              "pitch": 36,
              "velocity": 85,
              "position": 8.0,
              "duration": 1.716667
            },
            {
              "pitch": 31,
              "velocity": 74,
              "position": 9.75,
              "duration": 0.191667
            },
            {
              "pitch": 36,
              "velocity": 74,
              "position": 10.0,
              "duration": 0.125
            },
            {
              "pitch": 36,
              "velocity": 91,
              "position": 10.5,
              "duration": 0.758333
            },
            {
              "pitch": 31,
              "velocity": 83,
              "position": 11.5,
              "duration": 0.208333
            },
            {
              "pitch": 31,
              "velocity": 72,
              "position": 11.75,
              "duration": 0.258333
            },
            {
              "pitch": 36,
              "velocity": 85,
              "position": 12.008333,
              "duration": 1.633333
            },
            {
              "pitch": 31,
              "velocity": 56,
              "position": 13.75,
              "duration": 0.2
            },
            {
              "pitch": 31,
              "velocity": 81,
              "position": 14.25,
              "duration": 0.191667
            },
            {
              "pitch": 36,
              "velocity": 89,
              "position": 14.5,
              "duration": 0.241667
            },
            {
              "pitch": 43,
              "velocity": 80,
              "position": 15.275,
              "duration": 0.225
            },
            {
              "pitch": 35,
              "velocity": 78,
              "position": 15.5,
              "duration": 0.241667
            }
          ]
        },
        "11": {
          "ctab": {
            "srcChannel": 11,
            "name": "Piano",
            "accType": "CHORD1",
            "editable": true,
            "mutedNotes": [],
            "mutedChords": [],
            "sourceChordNote": 0,
            "sourceChordType": "Maj7",
            "ctb2Main": {
              "ntr": "ROOT_FIXED",
              "ntt": "CHORD",
              "bassOn": false,
              "noteLowLimit": 48,
              "noteHighLimit": 84,
              "chordRootUpperLimit": 127,
              "rtr": "NOTE_GENERATOR"
            }
          },
          "notes": [
            {
              "pitch": 48,
              "velocity": 70,
              "position": 0.008333,
              "duration": 1.583333
            },
            {
              "pitch": 59,
              "velocity": 53,
              "position": 0.016667,
              "duration": 1.4
            },
            {
              "pitch": 64,
              "velocity": 55,
              "position": 0.016667,
              "duration": 1.391667
            },
            {
              "pitch": 67,
              "velocity": 70,
              "position": 0.016667,
              "duration": 1.4
            },
            {
              "pitch": 71,
              "velocity": 73,
              "position": 0.033333,
              "duration": 1.441667
            },
            {
              "pitch": 59,
              "velocity": 42,
              "position": 1.758333,
              "duration": 0.85
            },
            {
              "pitch": 64,
              "velocity": 71,
              "position": 1.758333,
              "duration": 1.316667
            },
            {
              "pitch": 67,
              "velocity": 74,
              "position": 1.758333,
              "duration": 1.333333
            },
            {
              "pitch": 48,
              "velocity": 65,
              "position": 1.775,
              "duration": 2.166667
            },
            {
              "pitch": 59,
              "velocity": 59,
              "position": 3.033333,
              "duration": 0.925
            },
            {
              "pitch": 67,
              "velocity": 74,
              "position": 3.541667,
              "duration": 0.416667
            },
            {
              "pitch": 48,
              "velocity": 70,
              "position": 4.008333,
              "duration": 1.583333
            },
            {
              "pitch": 59,
              "velocity": 53,
              "position": 4.016667,
              "duration": 1.4
            },
            {
              "pitch": 64,
              "velocity": 55,
              "position": 4.016667,
              "duration": 1.391667
            },
            {
              "pitch": 67,
              "velocity": 70,
              "position": 4.016667,
              "duration": 1.4
            },
            {
              "pitch": 71,
              "velocity": 73,
              "position": 4.033333,
              "duration": 1.441667
            },
            {
              "pitch": 59,
              "velocity": 37,
              "position": 5.758333,
              "duration": 1.116667
            },
            {
              "pitch": 64,
              "velocity": 66,
              "position": 5.758333,
              "duration": 1.091667
            },
            {
              "pitch": 67,
              "velocity": 69,
              "position": 5.758333,
              "duration": 2.183333
            },
            {
              "pitch": 48,
              "velocity": 60,
              "position": 5.775,
              "duration": 2.15
            },
            {
              "pitch": 55,
              "velocity": 71,
              "position": 6.758333,
              "duration": 1.2
            },
            {
              "pitch": 64,
              "velocity": 81,
              "position": 7.033333,
              "duration": 0.875
            },
            {
              "pitch": 59,
              "velocity": 46,
              "position": 8.0,
              "duration": 2.058333
            },
            {
              "pitch": 64,
              "velocity": 58,
              "position": 8.008333,
              "duration": 1.15
            },
            {
              "pitch": 67,
              "velocity": 67,
              "position": 8.008333,
              "duration": 1.091667
            },
            {
              "pitch": 71,
              "velocity": 62,
              "position": 8.008333,
              "duration": 1.133333
            },
            {
              "pitch": 60,
              "velocity": 54,
              "position": 10.016667,
              "duration": 1.316667
            },
            {
              "pitch": 67,
              "velocity": 80,
              "position": 11.033333,
              "duration": 0.316667
            },
            {
              "pitch": 48,
              "velocity": 91,
              "position": 12.025,
              "duration": 3.416667
            },
            {
              "pitch": 59,
              "velocity": 54,
              "position": 12.983333,
              "duration": 0.15
            },
            {
              "pitch": 64,
              "velocity": 69,
              "position": 13.0,
              "duration": 0.116667
            },
            {
              "pitch": 71,
              "velocity": 66,
              "position": 13.0,
              "duration": 0.15
            },
            {
              "pitch": 59,
              "velocity": 53,
              "position": 13.491667,
              "duration": 1.966667
            },
            {
              "pitch": 64,
              "velocity": 69,
              "position": 13.491667,
              "duration": 1.366667
            },
            {
              "pitch": 71,
              "velocity": 74,
              "position": 13.491667,
              "duration": 1.208333
            },
            {
              "pitch": 55,
              "velocity": 88,
              "position": 14.783333,
              "duration": 0.675
            },
            {
              "pitch": 60,
              "velocity": 40,
              "position": 15.041667,
              "duration": 0.241667
            }
          ]
        },
        "12": {
          "ctab": {
            "srcChannel": 12,
            "name": "Guitar",
            "accType": "CHORD2",
            "editable": true,
            "mutedNotes": [],
            "mutedChords": [],
            "sourceChordNote": 0,
            "sourceChordType": "Maj7",
            "ctb2Main": {
              "ntr": "ROOT_FIXED",
              "ntt": "CHORD",
              "bassOn": false,
              "noteLowLimit": 40,
              "noteHighLimit": 76,
              "chordRootUpperLimit": 127,
              "rtr": "NOTE_GENERATOR"
            }
          },
          "notes": [
            {
              "pitch": 64,
              "velocity": 54,
              "position": 0.0,
              "duration": 0.116667
            },
            {
              "pitch": 67,
              "velocity": 54,
              "position": 0.008333,
              "duration": 0.108333
            },
            {
              "pitch": 67,
              "velocity": 38,
              "position": 0.725,
              "duration": 0.166667
            },
            {
              "pitch": 64,
              "velocity": 44,
              "position": 0.741667,
              "duration": 0.15
            },
            {
              "pitch": 59,
              "velocity": 44,
              "position": 0.75,
              "duration": 0.141667
            },
            {
              "pitch": 55,
              "velocity": 38,
              "position": 0.758333,
              "duration": 0.133333
            },
            {
              "pitch": 67,
              "velocity": 40,
              "position": 2.225,
              "duration": 0.141667
            },
            {
              "pitch": 64,
              "velocity": 46,
              "position": 2.241667,
              "duration": 0.125
            },
            {
              "pitch": 59,
              "velocity": 46,
              "position": 2.25,
              "duration": 0.116667
            },
            {
              "pitch": 55,
              "velocity": 40,
              "position": 2.258333,
              "duration": 0.108333
            },
            {
              "pitch": 55,
              "velocity": 59,
              "position": 2.975,
              "duration": 0.258333
            },
            {
              "pitch": 59,
              "velocity": 59,
              "position": 2.991667,
              "duration": 0.241667
            },
            {
              "pitch": 64,
              "velocity": 59,
              "position": 3.0,
              "duration": 0.233333
            },
            {
              "pitch": 67,
              "velocity": 59,
              "position": 3.008333,
              "duration": 0.2
            },
            {
              "pitch": 67,
              "velocity": 31,
              "position": 3.225,
              "duration": 0.175
            },
            {
              "pitch": 64,
              "velocity": 36,
              "position": 3.241667,
              "duration": 0.158333
            },
            {
              "pitch": 59,
              "velocity": 36,
              "position": 3.25,
              "duration": 0.15
            },
            {
              "pitch": 55,
              "velocity": 31,
              "position": 3.258333,
              "duration": 0.141667
            },
            {
              "pitch": 67,
              "velocity": 37,
              "position": 4.725,
              "duration": 0.166667
            },
            {
              "pitch": 64,
              "velocity": 43,
              "position": 4.741667,
              "duration": 0.15
            },
            {
              "pitch": 59,
              "velocity": 43,
              "position": 4.75,
              "duration": 0.141667
            },
            {
              "pitch": 55,
              "velocity": 37,
              "position": 4.758333,
              "duration": 0.133333
            },
            {
              "pitch": 55,
              "velocity": 68,
              "position": 5.975,
              "duration": 0.233333
            },
            {
              "pitch": 59,
              "velocity": 68,
              "position": 5.991667,
              "duration": 0.216667
            },
            {
              "pitch": 64,
              "velocity": 68,
              "position": 6.0,
              "duration": 0.208333
            },
            {
              "pitch": 67,
              "velocity": 68,
              "position": 6.008333,
              "duration": 0.2
            },
            {
              "pitch": 67,
              "velocity": 29,
              "position": 6.225,
              "duration": 0.183333
            },
            {
              "pitch": 64,
              "velocity": 33,
              "position": 6.241667,
              "duration": 0.166667
            },
            {
              "pitch": 59,
              "velocity": 33,
              "position": 6.25,
              "duration": 0.158333
            },
            {
              "pitch": 55,
              "velocity": 29,
              "position": 6.258333,
              "duration": 0.15
            },
            {
              "pitch": 55,
              "velocity": 58,
              "position": 6.475,
              "duration": 0.158333
            },
            {
              "pitch": 59,
              "velocity": 58,
              "position": 6.491667,
              "duration": 0.141667
            },
            {
              "pitch": 64,
              "velocity": 58,
              "position": 6.5,
              "duration": 0.133333
            },
            {
              "pitch": 67,
              "velocity": 58,
              "position": 6.508333,
              "duration": 0.125
            },
            {
              "pitch": 67,
              "velocity": 37,
              "position": 7.225,
              "duration": 0.216667
            },
            {
              "pitch": 64,
              "velocity": 43,
              "position": 7.241667,
              "duration": 0.2
            },
            {
              "pitch": 59,
              "velocity": 43,
              "position": 7.25,
              "duration": 0.191667
            },
            {
              "pitch": 55,
              "velocity": 37,
              "position": 7.258333,
              "duration": 0.183333
            },
            {
              "pitch": 55,
              "velocity": 51,
              "position": 7.475,
              "duration": 0.175
            },
            {
              "pitch": 59,
              "velocity": 51,
              "position": 7.491667,
              "duration": 0.158333
            },
            {
              "pitch": 64,
              "velocity": 51,
              "position": 7.5,
              "duration": 0.15
            },
            {
              "pitch": 67,
              "velocity": 51,
              "position": 7.508333,
              "duration": 0.141667
            },
            {
              "pitch": 55,
              "velocity": 59,
              "position": 7.975,
              "duration": 0.158333
            },
            {
              "pitch": 59,
              "velocity": 59,
              "position": 7.991667,
              "duration": 0.141667
            },
            {
              "pitch": 64,
              "velocity": 59,
              "position": 8.0,
              "duration": 0.133333
            },
            {
              "pitch": 67,
              "velocity": 59,
              "position": 8.008333,
              "duration": 0.125
            },
            {
              "pitch": 67,
              "velocity": 39,
              "position": 8.725,
              "duration": 0.216667
            },
            {
              "pitch": 64,
              "velocity": 45,
              "position": 8.741667,
              "duration": 0.2
            },
            {
              "pitch": 59,
              "velocity": 45,
              "position": 8.75,
              "duration": 0.191667
            },
            {
              "pitch": 55,
              "velocity": 39,
              "position": 8.758333,
              "duration": 0.183333
            },
            {
              "pitch": 67,
              "velocity": 42,
              "position": 9.225,
              "duration": 0.275
            },
            {
              "pitch": 64,
              "velocity": 48,
              "position": 9.241667,
              "duration": 0.241667
            },
            {
              "pitch": 59,
              "velocity": 48,
              "position": 9.25,
              "duration": 0.225
            },
            {
              "pitch": 55,
              "velocity": 42,
              "position": 9.258333,
              "duration": 0.2
            },
            {
              "pitch": 55,
              "velocity": 51,
              "position": 9.475,
              "duration": 0.191667
            },
            {
              "pitch": 59,
              "velocity": 51,
              "position": 9.491667,
              "duration": 0.175
            },
            {
              "pitch": 64,
              "velocity": 51,
              "position": 9.5,
              "duration": 0.166667
            },
            {
              "pitch": 67,
              "velocity": 51,
              "position": 9.508333,
              "duration": 0.158333
            },
            {
              "pitch": 67,
              "velocity": 28,
              "position": 9.725,
              "duration": 0.208333
            },
            {
              "pitch": 64,
              "velocity": 32,
              "position": 9.741667,
              "duration": 0.191667
            },
            {
              "pitch": 59,
              "velocity": 32,
              "position": 9.75,
              "duration": 0.183333
            },
            {
              "pitch": 55,
              "velocity": 28,
              "position": 9.758333,
              "duration": 0.175
            },
            {
              "pitch": 55,
              "velocity": 63,
              "position": 9.975,
              "duration": 0.25
            },
            {
              "pitch": 59,
              "velocity": 63,
              "position": 9.991667,
              "duration": 0.233333
            },
            {
              "pitch": 64,
              "velocity": 63,
              "position": 10.0,
              "duration": 0.225
            },
            {
              "pitch": 67,
              "velocity": 63,
              "position": 10.008333,
              "duration": 0.2
            },
            {
              "pitch": 67,
              "velocity": 27,
              "position": 10.225,
              "duration": 0.266667
            },
            {
              "pitch": 64,
              "velocity": 31,
              "position": 10.241667,
              "duration": 0.25
            },
            {
              "pitch": 59,
              "velocity": 31,
              "position": 10.25,
              "duration": 0.225
            },
            {
              "pitch": 55,
              "velocity": 27,
              "position": 10.258333,
              "duration": 0.2
            },
            {
              "pitch": 55,
              "velocity": 62,
              "position": 10.475,
              "duration": 0.166667
            },
            {
              "pitch": 59,
              "velocity": 62,
              "position": 10.491667,
              "duration": 0.15
            },
            {
              "pitch": 64,
              "velocity": 62,
              "position": 10.5,
              "duration": 0.141667
            },
            {
              "pitch": 67,
              "velocity": 62,
              "position": 10.508333,
              "duration": 0.133333
            },
            {
              "pitch": 55,
              "velocity": 57,
              "position": 10.975,
              "duration": 0.25
            },
            {
              "pitch": 59,
              "velocity": 57,
              "position": 10.991667,
              "duration": 0.233333
            },
            {
              "pitch": 64,
              "velocity": 57,
              "position": 11.0,
              "duration": 0.225
            },
            {
              "pitch": 67,
              "velocity": 57,
              "position": 11.008333,
              "duration": 0.2
            },
            {
              "pitch": 67,
              "velocity": 32,
              "position": 11.225,
              "duration": 0.2
            },
            {
              "pitch": 64,
              "velocity": 36,
              "position": 11.241667,
              "duration": 0.183333
            },
            {
              "pitch": 59,
              "velocity": 36,
              "position": 11.25,
              "duration": 0.175
            },
            {
              "pitch": 55,
              "velocity": 32,
              "position": 11.258333,
              "duration": 0.166667
            },
            {
              "pitch": 55,
              "velocity": 53,
              "position": 11.475,
              "duration": 0.225
            },
            {
              "pitch": 59,
              "velocity": 53,
              "position": 11.491667,
              "duration": 0.208333
            },
            {
              "pitch": 64,
              "velocity": 53,
              "position": 11.5,
              "duration": 0.2
            },
            {
              "pitch": 67,
              "velocity": 53,
              "position": 11.508333,
              "duration": 0.191667
            },
            {
              "pitch": 67,
              "velocity": 46,
              "position": 12.725,
              "duration": 0.15
            },
            {
              "pitch": 64,
              "velocity": 52,
              "position": 12.741667,
              "duration": 0.133333
            },
            {
              "pitch": 59,
              "velocity": 52,
              "position": 12.75,
              "duration": 0.125
            },
            {
              "pitch": 55,
              "velocity": 46,
              "position": 12.758333,
              "duration": 0.116667
            },
            {
              "pitch": 67,
              "velocity": 41,
              "position": 13.225,
              "duration": 0.183333
            },
            {
              "pitch": 64,
              "velocity": 47,
              "position": 13.241667,
              "duration": 0.166667
            },
            {
              "pitch": 59,
              "velocity": 47,
              "position": 13.25,
              "duration": 0.158333
            },
            {
              "pitch": 55,
              "velocity": 41,
              "position": 13.258333,
              "duration": 0.15
            },
            {
              "pitch": 55,
              "velocity": 49,
              "position": 13.475,
              "duration": 0.2
            },
            {
              "pitch": 59,
              "velocity": 49,
              "position": 13.491667,
              "duration": 0.183333
            },
            {
              "pitch": 64,
              "velocity": 49,
              "position": 13.5,
              "duration": 0.175
            },
            {
              "pitch": 67,
              "velocity": 49,
              "position": 13.508333,
              "duration": 0.166667
            },
            {
              "pitch": 67,
              "velocity": 29,
              "position": 13.725,
              "duration": 0.2
            },
            {
              "pitch": 64,
              "velocity": 33,
              "position": 13.741667,
              "duration": 0.183333
            },
            {
              "pitch": 59,
              "velocity": 33,
              "position": 13.75,
              "duration": 0.175
            },
            {
              "pitch": 55,
              "velocity": 29,
              "position": 13.758333,
              "duration": 0.166667
            },
            {
              "pitch": 55,
              "velocity": 59,
              "position": 13.975,
              "duration": 0.25
            },
            {
              "pitch": 59,
              "velocity": 59,
              "position": 13.991667,
              "duration": 0.233333
            },
            {
              "pitch": 64,
              "velocity": 59,
              "position": 14.0,
              "duration": 0.225
            },
            {
              "pitch": 67,
              "velocity": 59,
              "position": 14.008333,
              "duration": 0.2
            },
            {
              "pitch": 67,
              "velocity": 27,
              "position": 14.225,
              "duration": 0.2
            },
            {
              "pitch": 64,
              "velocity": 31,
              "position": 14.241667,
              "duration": 0.183333
            },
            {
              "pitch": 59,
              "velocity": 31,
              "position": 14.25,
              "duration": 0.175
            },
            {
              "pitch": 55,
              "velocity": 27,
              "position": 14.258333,
              "duration": 0.166667
            },
            {
              "pitch": 55,
              "velocity": 60,
              "position": 14.475,
              "duration": 0.208333
            },
            {
              "pitch": 59,
              "velocity": 60,
              "position": 14.491667,
              "duration": 0.191667
            },
            {
              "pitch": 64,
              "velocity": 60,
              "position": 14.5,
              "duration": 0.183333
            },
            {
              "pitch": 67,
              "velocity": 60,
              "position": 14.508333,
              "duration": 0.175
            },
            {
              "pitch": 55,
              "velocity": 59,
              "position": 14.975,
              "duration": 0.158333
            },
            {
              "pitch": 59,
              "velocity": 59,
              "position": 14.991667,
              "duration": 0.141667
            },
            {
              "pitch": 64,
              "velocity": 59,
              "position": 15.0,
              "duration": 0.133333
            },
            {
              "pitch": 67,
              "velocity": 59,
              "position": 15.008333,
              "duration": 0.125
            },
            {
              "pitch": 67,
              "velocity": 32,
              "position": 15.225,
              "duration": 0.225
            },
            {
              "pitch": 64,
              "velocity": 37,
              "position": 15.241667,
              "duration": 0.208333
            },
            {
              "pitch": 59,
              "velocity": 37,
              "position": 15.25,
              "duration": 0.2
            },
            {
              "pitch": 55,
              "velocity": 32,
              "position": 15.258333,
              "duration": 0.191667
            },
            {
              "pitch": 55,
              "velocity": 69,
              "position": 15.475,
              "duration": 0.141667
            },
            {
              "pitch": 59,
              "velocity": 69,
              "position": 15.491667,
              "duration": 0.125
            },
            {
              "pitch": 64,
              "velocity": 69,
              "position": 15.5,
              "duration": 0.116667
            },
            {
              "pitch": 67,
              "velocity": 69,
              "position": 15.508333,
              "duration": 0.108333
            },
            {
              "pitch": 48,
              "velocity": 45,
              "position": 15.975,
              "duration": 0.141667
            },
            {
              "pitch": 55,
              "velocity": 54,
              "position": 15.983333,
              "duration": 0.133333
            },
            {
              "pitch": 59,
              "velocity": 54,
              "position": 15.991667,
              "duration": 0.125
            }
          ]
        },
        "13": {
          "ctab": {
            "srcChannel": 13,
            "name": "Strings",
            "accType": "PAD",
            "editable": true,
            "mutedNotes": [],
            "mutedChords": [],
            "sourceChordNote": 0,
            "sourceChordType": "Maj7",
            "ctb2Main": {
              "ntr": "ROOT_FIXED",
              "ntt": "MELODY",
              "bassOn": false,
              "noteLowLimit": 36,
              "noteHighLimit": 96,
              "chordRootUpperLimit": 127,
              "rtr": "PITCH_SHIFT"
            }
          },
          "notes": []
        }
      }
    },
    "Ending_A": {
      "type": "Ending_A",
      "sizeInBeats": 16,
      "channels": {
        "9": {
          "ctab": {
            "srcChannel": 9,
            "name": "Drums",
            "accType": "RHYTHM",
            "editable": false,
            "mutedNotes": [],
            "mutedChords": [],
            "sourceChordNote": 0,
            "sourceChordType": "Maj",
            "ctb2Main": {
              "ntr": "ROOT_FIXED",
              "ntt": "BYPASS",
              "bassOn": false,
              "noteLowLimit": 20,
              "noteHighLimit": 127,
              "chordRootUpperLimit": 127,
              "rtr": "RETRIGGER"
            }
          },
          "notes": [
            {
              "pitch": 35,
              "velocity": 80,
              "position": 0.0,
              "duration": 0.208333
            },
            {
              "pitch": 49,
              "velocity": 90,
              "position": 0.0,
              "duration": 0.208333
            },
            {
              "pitch": 56,
              "velocity": 60,
              "position": 0.0,
              "duration": 0.208333
            },
            {
              "pitch": 69,
              "velocity": 70,
              "position": 0.0,
              "duration": 0.208333
            },
            {
              "pitch": 35,
              "velocity": 60,
              "position": 0.25,
              "duration": 0.208333
            },
            {
              "pitch": 46,
              "velocity": 70,
              "position": 0.25,
              "duration": 0.208333
            },
            {
              "pitch": 62,
              "velocity": 60,
              "position": 0.25,
              "duration": 0.208333
            },
            {
              "pitch": 42,
              "velocity": 60,
              "position": 0.5,
              "duration": 0.208333
            },
            {
              "pitch": 63,
              "velocity": 50,
              "position": 0.5,
              "duration": 0.208333
            },
            {
              "pitch": 70,
              "velocity": 70,
              "position": 0.5,
              "duration": 0.208333
            },
            {
              "pitch": 42,
              "velocity": 40,
              "position": 0.75,
              "duration": 0.208333
            },
            {
              "pitch": 63,
              "velocity": 40,
              "position": 0.75,
              "duration": 0.208333
            },
            {
              "pitch": 38,
              "velocity": 70,
              "position": 1.0,
              "duration": 0.208333
            },
            {
              "pitch": 42,
              "velocity": 80,
              "position": 1.0,
              "duration": 0.208333
            },
            {
              "pitch": 54,
              "velocity": 92,
              "position": 1.0,
              "duration": 0.208333
            },
            {
              "pitch": 56,
              "velocity": 60,
              "position": 1.0,
              "duration": 0.208333
            },
            {
              "pitch": 63,
              "velocity": 70,
              "position": 1.0,
              "duration": 0.208333
            },
            {
              "pitch": 69,
              "velocity": 80,
              "position": 1.0,
              "duration": 0.208333
            },
            {
              "pitch": 42,
              "velocity": 40,
              "position": 1.25,
              "duration": 0.208333
            },
            {
              "pitch": 63,
              "velocity": 60,
              "position": 1.25,
              "duration": 0.208333
            },
            {
              "pitch": 42,
              "velocity": 60,
              "position": 1.5,
              "duration": 0.208333
            },
            {
              "pitch": 70,
              "velocity": 70,
              "position": 1.5,
              "duration": 0.208333
            },
            {
              "pitch": 35,
              "velocity": 80,
              "position": 1.75,
              "duration": 0.208333
            },
            {
              "pitch": 42,
              "velocity": 50,
              "position": 1.75,
              "duration": 0.208333
            },
            {
              "pitch": 63,
              "velocity": 40,
              "position": 1.75,
              "duration": 0.208333
            },
            {
              "pitch": 42,
              "velocity": 70,
              "position": 2.0,
              "duration": 0.208333
            },
            {
              "pitch": 56,
              "velocity": 60,
              "position": 2.0,
              "duration": 0.208333
            },
            {
              "pitch": 69,
              "velocity": 70,
              "position": 2.0,
              "duration": 0.208333
            },
            {
              "pitch": 35,
              "velocity": 70,
              "position": 2.25,
              "duration": 0.208333
            },
            {
              "pitch": 42,
              "velocity": 80,
              "position": 2.25,
              "duration": 0.208333
            },
            {
              "pitch": 62,
              "velocity": 70,
              "position": 2.25,
              "duration": 0.208333
            },
            {
              "pitch": 35,
              "velocity": 60,
              "position": 2.5,
              "duration": 0.208333
            },
            {
              "pitch": 42,
              "velocity": 50,
              "position": 2.5,
              "duration": 0.208333
            },
            {
              "pitch": 63,
              "velocity": 50,
              "position": 2.5,
              "duration": 0.208333
            },
            {
              "pitch": 70,
              "velocity": 60,
              "position": 2.5,
              "duration": 0.208333
            },
            {
              "pitch": 42,
              "velocity": 60,
              "position": 2.75,
              "duration": 0.208333
            },
            {
              "pitch": 63,
              "velocity": 40,
              "position": 2.75,
              "duration": 0.208333
            },
            {
              "pitch": 38,
              "velocity": 70,
              "position": 3.0,
              "duration": 0.208333
            },
            {
              "pitch": 42,
              "velocity": 70,
              "position": 3.0,
              "duration": 0.208333
            },
            {
              "pitch": 54,
              "velocity": 92,
              "position": 3.0,
              "duration": 0.208333
            },
            {
              "pitch": 56,
              "velocity": 60,
              "position": 3.0,
              "duration": 0.208333
            },
            {
              "pitch": 63,
              "velocity": 80,
              "position": 3.0,
              "duration": 0.208333
            },
            {
              "pitch": 69,
              "velocity": 80,
              "position": 3.0,
              "duration": 0.208333
            },
            {
              "pitch": 42,
              "velocity": 50,
              "position": 3.25,
              "duration": 0.208333
            },
            {
              "pitch": 63,
              "velocity": 50,
              "position": 3.25,
              "duration": 0.208333
            },
            {
              "pitch": 46,
              "velocity": 70,
              "position": 3.5,
              "duration": 0.208333
            },
            {
              "pitch": 62,
              "velocity": 60,
              "position": 3.5,
              "duration": 0.208333
            },
            {
              "pitch": 70,
              "velocity": 70,
              "position": 3.5,
              "duration": 0.208333
            },
            {
              "pitch": 63,
              "velocity": 40,
              "position": 3.75,
              "duration": 0.208333
            },
            {
              "pitch": 35,
              "velocity": 80,
              "position": 4.0,
              "duration": 0.208333
            },
            {
              "pitch": 42,
              "velocity": 80,
              "position": 4.0,
              "duration": 0.208333
            },
            {
              "pitch": 56,
              "velocity": 60,
              "position": 4.0,
              "duration": 0.208333
            },
            {
              "pitch": 69,
              "velocity": 70,
              "position": 4.0,
              "duration": 0.208333
            },
            {
              "pitch": 35,
              "velocity": 60,
              "position": 4.25,
              "duration": 0.208333
            },
            {
              "pitch": 42,
              "velocity": 50,
              "position": 4.25,
              "duration": 0.208333
            },
            {
              "pitch": 62,
              "velocity": 60,
              "position": 4.25,
              "duration": 0.208333
            },
            {
              "pitch": 42,
              "velocity": 60,
              "position": 4.5,
              "duration": 0.208333
            },
            {
              "pitch": 63,
              "velocity": 50,
              "position": 4.5,
              "duration": 0.208333
            },
            {
              "pitch": 70,
              "velocity": 70,
              "position": 4.5,
              "duration": 0.208333
            },
            {
              "pitch": 42,
              "velocity": 40,
              "position": 4.75,
              "duration": 0.208333
            },
            {
              "pitch": 63,
              "velocity": 40,
              "position": 4.75,
              "duration": 0.208333
            },
            {
              "pitch": 38,
              "velocity": 70,
              "position": 5.0,
              "duration": 0.208333
            },
            {
              "pitch": 42,
              "velocity": 80,
              "position": 5.0,
              "duration": 0.208333
            },
            {
              "pitch": 54,
              "velocity": 92,
              "position": 5.0,
              "duration": 0.208333
            },
            {
              "pitch": 56,
              "velocity": 60,
              "position": 5.0,
              "duration": 0.208333
            },
            {
              "pitch": 63,
              "velocity": 70,
              "position": 5.0,
              "duration": 0.208333
            },
            {
              "pitch": 69,
              "velocity": 80,
              "position": 5.0,
              "duration": 0.208333
            },
            {
              "pitch": 42,
              "velocity": 40,
              "position": 5.25,
              "duration": 0.208333
            },
            {
              "pitch": 63,
              "velocity": 60,
              "position": 5.25,
              "duration": 0.208333
            },
            {
              "pitch": 42,
              "velocity": 60,
              "position": 5.5,
              "duration": 0.208333
            },
            {
              "pitch": 70,
              "velocity": 70,
              "position": 5.5,
              "duration": 0.208333
            },
            {
              "pitch": 35,
              "velocity": 80,
              "position": 5.75,
              "duration": 0.208333
            },
            {
              "pitch": 42,
              "velocity": 50,
              "position": 5.75,
              "duration": 0.208333
            },
            {
              "pitch": 63,
              "velocity": 40,
              "position": 5.75,
              "duration": 0.208333
            },
            {
              "pitch": 42,
              "velocity": 70,
              "position": 6.0,
              "duration": 0.208333
            },
            {
              "pitch": 56,
              "velocity": 60,
              "position": 6.0,
              "duration": 0.208333
            },
            {
              "pitch": 69,
              "velocity": 70,
              "position": 6.0,
              "duration": 0.208333
            },
            {
              "pitch": 35,
              "velocity": 70,
              "position": 6.25,
              "duration": 0.208333
            },
            {
              "pitch": 42,
              "velocity": 80,
              "position": 6.25,
              "duration": 0.208333
            },
            {
              "pitch": 62,
              "velocity": 70,
              "position": 6.25,
              "duration": 0.208333
            },
            {
              "pitch": 35,
              "velocity": 60,
              "position": 6.5,
              "duration": 0.208333
            },
            {
              "pitch": 42,
              "velocity": 50,
              "position": 6.5,
              "duration": 0.208333
            },
            {
              "pitch": 63,
              "velocity": 50,
              "position": 6.5,
              "duration": 0.208333
            },
            {
              "pitch": 70,
              "velocity": 60,
              "position": 6.5,
              "duration": 0.208333
            },
            {
              "pitch": 42,
              "velocity": 60,
              "position": 6.75,
              "duration": 0.208333
            },
            {
              "pitch": 63,
              "velocity": 40,
              "position": 6.75,
              "duration": 0.208333
            },
            {
              "pitch": 38,
              "velocity": 70,
              "position": 7.0,
              "duration": 0.208333
            },
            {
              "pitch": 42,
              "velocity": 70,
              "position": 7.0,
              "duration": 0.208333
            },
            {
              "pitch": 54,
              "velocity": 92,
              "position": 7.0,
              "duration": 0.208333
            },
            {
              "pitch": 56,
              "velocity": 60,
              "position": 7.0,
              "duration": 0.208333
            },
            {
              "pitch": 63,
              "velocity": 80,
              "position": 7.0,
              "duration": 0.208333
            },
            {
              "pitch": 69,
              "velocity": 80,
              "position": 7.0,
              "duration": 0.208333
            },
            {
              "pitch": 42,
              "velocity": 50,
              "position": 7.25,
              "duration": 0.208333
            },
            {
              "pitch": 63,
              "velocity": 50,
              "position": 7.25,
              "duration": 0.208333
            },
            {
              "pitch": 46,
              "velocity": 70,
              "position": 7.5,
              "duration": 0.208333
            },
            {
              "pitch": 62,
              "velocity": 60,
              "position": 7.5,
              "duration": 0.208333
            },
            {
              "pitch": 70,
              "velocity": 70,
              "position": 7.5,
              "duration": 0.208333
            },
            {
              "pitch": 63,
              "velocity": 40,
              "position": 7.75,
              "duration": 0.208333
            },
            {
              "pitch": 35,
              "velocity": 80,
              "position": 8.0,
              "duration": 0.208333
            },
            {
              "pitch": 42,
              "velocity": 80,
              "position": 8.0,
              "duration": 0.208333
            },
            {
              "pitch": 56,
              "velocity": 60,
              "position": 8.0,
              "duration": 0.208333
            },
            {
              "pitch": 69,
              "velocity": 70,
              "position": 8.0,
              "duration": 0.208333
            },
            {
              "pitch": 35,
              "velocity": 60,
              "position": 8.25,
              "duration": 0.208333
            },
            {
              "pitch": 42,
              "velocity": 50,
              "position": 8.25,
              "duration": 0.208333
            },
            {
              "pitch": 62,
              "velocity": 60,
              "position": 8.25,
              "duration": 0.208333
            },
            {
              "pitch": 42,
              "velocity": 60,
              "position": 8.5,
              "duration": 0.208333
            },
            {
              "pitch": 63,
              "velocity": 50,
              "position": 8.5,
              "duration": 0.208333
            },
            {
              "pitch": 70,
              "velocity": 70,
              "position": 8.5,
              "duration": 0.208333
            },
            {
              "pitch": 42,
              "velocity": 40,
              "position": 8.75,
              "duration": 0.208333
            },
            {
              "pitch": 63,
              "velocity": 40,
              "position": 8.75,
              "duration": 0.208333
            },
            {
              "pitch": 38,
              "velocity": 70,
              "position": 9.0,
              "duration": 0.208333
            },
            {
              "pitch": 42,
              "velocity": 80,
              "position": 9.0,
              "duration": 0.208333
            },
            {
              "pitch": 54,
              "velocity": 92,
              "position": 9.0,
              "duration": 0.208333
            },
            {
              "pitch": 56,
              "velocity": 60,
              "position": 9.0,
              "duration": 0.208333
            },
            {
              "pitch": 63,
              "velocity": 70,
              "position": 9.0,
              "duration": 0.208333
            },
            {
              "pitch": 69,
              "velocity": 80,
              "position": 9.0,
              "duration": 0.208333
            },
            {
              "pitch": 42,
              "velocity": 40,
              "position": 9.25,
              "duration": 0.208333
            },
            {
              "pitch": 63,
              "velocity": 60,
              "position": 9.25,
              "duration": 0.208333
            },
            {
              "pitch": 42,
              "velocity": 60,
              "position": 9.5,
              "duration": 0.208333
            },
            {
              "pitch": 70,
              "velocity": 70,
              "position": 9.5,
              "duration": 0.208333
            },
            {
              "pitch": 35,
              "velocity": 80,
              "position": 9.75,
              "duration": 0.208333
            },
            {
              "pitch": 42,
              "velocity": 50,
              "position": 9.75,
              "duration": 0.208333
            },
            {
              "pitch": 63,
              "velocity": 40,
              "position": 9.75,
              "duration": 0.208333
            },
            {
              "pitch": 42,
              "velocity": 70,
              "position": 10.0,
              "duration": 0.208333
            },
            {
              "pitch": 56,
              "velocity": 60,
              "position": 10.0,
              "duration": 0.208333
            },
            {
              "pitch": 69,
              "velocity": 70,
              "position": 10.0,
              "duration": 0.208333
            },
            {
              "pitch": 35,
              "velocity": 70,
              "position": 10.25,
              "duration": 0.208333
            },
            {
              "pitch": 42,
              "velocity": 80,
              "position": 10.25,
              "duration": 0.208333
            },
            {
              "pitch": 62,
              "velocity": 70,
              "position": 10.25,
              "duration": 0.208333
            },
            {
              "pitch": 35,
              "velocity": 60,
              "position": 10.5,
              "duration": 0.208333
            },
            {
              "pitch": 42,
              "velocity": 50,
              "position": 10.5,
              "duration": 0.208333
            },
            {
              "pitch": 63,
              "velocity": 50,
              "position": 10.5,
              "duration": 0.208333
            },
            {
              "pitch": 70,
              "velocity": 60,
              "position": 10.5,
              "duration": 0.208333
            },
            {
              "pitch": 42,
              "velocity": 60,
              "position": 10.75,
              "duration": 0.208333
            },
            {
              "pitch": 63,
              "velocity": 40,
              "position": 10.75,
              "duration": 0.208333
            },
            {
              "pitch": 38,
              "velocity": 70,
              "position": 11.0,
              "duration": 0.208333
            },
            {
              "pitch": 42,
              "velocity": 70,
              "position": 11.0,
              "duration": 0.208333
            },
            {
              "pitch": 54,
              "velocity": 92,
              "position": 11.0,
              "duration": 0.208333
            },
            {
              "pitch": 56,
              "velocity": 60,
              "position": 11.0,
              "duration": 0.208333
            },
            {
              "pitch": 63,
              "velocity": 80,
              "position": 11.0,
              "duration": 0.208333
            },
            {
              "pitch": 69,
              "velocity": 80,
              "position": 11.0,
              "duration": 0.208333
            },
            {
              "pitch": 42,
              "velocity": 50,
              "position": 11.25,
              "duration": 0.208333
            },
            {
              "pitch": 63,
              "velocity": 50,
              "position": 11.25,
              "duration": 0.208333
            },
            {
              "pitch": 46,
              "velocity": 70,
              "position": 11.5,
              "duration": 0.208333
            },
            {
              "pitch": 62,
              "velocity": 60,
              "position": 11.5,
              "duration": 0.208333
            },
            {
              "pitch": 70,
              "velocity": 70,
              "position": 11.5,
              "duration": 0.208333
            },
            {
              "pitch": 63,
              "velocity": 40,
              "position": 11.75,
              "duration": 0.208333
            },
            {
              "pitch": 35,
              "velocity": 80,
              "position": 12.0,
              "duration": 0.208333
            },
            {
              "pitch": 42,
              "velocity": 50,
              "position": 12.0,
              "duration": 0.208333
            },
            {
              "pitch": 56,
              "velocity": 60,
              "position": 12.0,
              "duration": 0.208333
            },
            {
              "pitch": 63,
              "velocity": 50,
              "position": 12.0,
              "duration": 0.208333
            },
            {
              "pitch": 69,
              "velocity": 70,
              "position": 12.0,
              "duration": 0.208333
            },
            {
              "pitch": 35,
              "velocity": 60,
              "position": 12.25,
              "duration": 0.208333
            },
            {
              "pitch": 42,
              "velocity": 80,
              "position": 12.25,
              "duration": 0.208333
            },
            {
              "pitch": 62,
              "velocity": 60,
              "position": 12.25,
              "duration": 0.208333
            },
            {
              "pitch": 42,
              "velocity": 60,
              "position": 12.5,
              "duration": 0.208333
            },
            {
              "pitch": 63,
              "velocity": 50,
              "position": 12.5,
              "duration": 0.208333
            },
            {
              "pitch": 70,
              "velocity": 70,
              "position": 12.5,
              "duration": 0.208333
            },
            {
              "pitch": 42,
              "velocity": 40,
              "position": 12.75,
              "duration": 0.208333
            },
            {
              "pitch": 63,
              "velocity": 60,
              "position": 12.75,
              "duration": 0.208333
            },
            {
              "pitch": 38,
              "velocity": 70,
              "position": 13.0,
              "duration": 0.208333
            },
            {
              "pitch": 42,
              "velocity": 80,
              "position": 13.0,
              "duration": 0.208333
            },
            {
              "pitch": 54,
              "velocity": 92,
              "position": 13.0,
              "duration": 0.208333
            },
            {
              "pitch": 56,
              "velocity": 60,
              "position": 13.0,
              "duration": 0.208333
            },
            {
              "pitch": 62,
              "velocity": 80,
              "position": 13.0,
              "duration": 0.208333
            },
            {
              "pitch": 69,
              "velocity": 80,
              "position": 13.0,
              "duration": 0.208333
            },
            {
              "pitch": 42,
              "velocity": 50,
              "position": 13.25,
              "duration": 0.208333
            },
            {
              "pitch": 63,
              "velocity": 50,
              "position": 13.25,
              "duration": 0.208333
            },
            {
              "pitch": 42,
              "velocity": 70,
              "position": 13.5,
              "duration": 0.208333
            },
            {
              "pitch": 63,
              "velocity": 70,
              "position": 13.5,
              "duration": 0.208333
            },
            {
              "pitch": 70,
              "velocity": 70,
              "position": 13.5,
              "duration": 0.208333
            },
            {
              "pitch": 35,
              "velocity": 80,
              "position": 13.75,
              "duration": 0.208333
            },
            {
              "pitch": 46,
              "velocity": 90,
              "position": 13.75,
              "duration": 0.208333
            },
            {
              "pitch": 62,
              "velocity": 80,
              "position": 13.75,
              "duration": 0.208333
            },
            {
              "pitch": 56,
              "velocity": 60,
              "position": 14.0,
              "duration": 0.208333
            },
            {
              "pitch": 63,
              "velocity": 70,
              "position": 14.0,
              "duration": 0.208333
            },
            {
              "pitch": 69,
              "velocity": 70,
              "position": 14.0,
              "duration": 0.208333
            },
            {
              "pitch": 35,
              "velocity": 92,
              "position": 14.25,
              "duration": 0.208333
            },
            {
              "pitch": 38,
              "velocity": 92,
              "position": 14.25,
              "duration": 0.208333
            },
            {
              "pitch": 63,
              "velocity": 60,
              "position": 14.25,
              "duration": 0.208333
            },
            {
              "pitch": 35,
              "velocity": 60,
              "position": 14.5,
              "duration": 0.208333
            },
            {
              "pitch": 42,
              "velocity": 70,
              "position": 14.5,
              "duration": 0.208333
            },
            {
              "pitch": 45,
              "velocity": 92,
              "position": 14.5,
              "duration": 0.208333
            },
            {
              "pitch": 62,
              "velocity": 90,
              "position": 14.5,
              "duration": 0.208333
            },
            {
              "pitch": 70,
              "velocity": 60,
              "position": 14.5,
              "duration": 0.208333
            },
            {
              "pitch": 45,
              "velocity": 60,
              "position": 14.75,
              "duration": 0.208333
            },
            {
              "pitch": 63,
              "velocity": 40,
              "position": 14.75,
              "duration": 0.208333
            },
            {
              "pitch": 35,
              "velocity": 80,
              "position": 15.0,
              "duration": 0.208333
            },
            {
              "pitch": 42,
              "velocity": 70,
              "position": 15.0,
              "duration": 0.208333
            },
            {
              "pitch": 48,
              "velocity": 90,
              "position": 15.0,
              "duration": 0.208333
            },
            {
              "pitch": 54,
              "velocity": 92,
              "position": 15.0,
              "duration": 0.208333
            },
            {
              "pitch": 56,
              "velocity": 60,
              "position": 15.0,
              "duration": 0.208333
            },
            {
              "pitch": 62,
              "velocity": 92,
              "position": 15.0,
              "duration": 0.208333
            },
            {
              "pitch": 69,
              "velocity": 80,
              "position": 15.0,
              "duration": 0.208333
            },
            {
              "pitch": 48,
              "velocity": 70,
              "position": 15.25,
              "duration": 0.208333
            },
            {
              "pitch": 63,
              "velocity": 92,
              "position": 15.25,
              "duration": 0.208333
            },
            {
              "pitch": 35,
              "velocity": 70,
              "position": 15.5,
              "duration": 0.208333
            },
            {
              "pitch": 41,
              "velocity": 92,
              "position": 15.5,
              "duration": 0.208333
            },
            {
              "pitch": 42,
              "velocity": 70,
              "position": 15.5,
              "duration": 0.208333
            },
            {
              "pitch": 63,
              "velocity": 70,
              "position": 15.5,
              "duration": 0.208333
            },
            {
              "pitch": 70,
              "velocity": 70,
              "position": 15.5,
              "duration": 0.208333
            },
            {
              "pitch": 63,
              "velocity": 70,
              "position": 15.75,
              "duration": 0.125
            },
            {
              "pitch": 63,
              "velocity": 56,
              "position": 15.875,
              "duration": 0.083333
            }
          ]
        },
        "10": {
          "ctab": {
            "srcChannel": 10,
            "name": "Bass",
            "accType": "BASS",
            "editable": true,
            "mutedNotes": [],
            "mutedChords": [],
            "sourceChordNote": 0,
            "sourceChordType": "Maj7",
            "ctb2Main": {
              "ntr": "ROOT_TRANSPOSITION",
              "ntt": "BYPASS",
              "bassOn": true,
              "noteLowLimit": 20,
              "noteHighLimit": 60,
              "chordRootUpperLimit": 127,
              "rtr": "NOTE_GENERATOR"
            }
          },
          "notes": [
            {
              "pitch": 36,
              "velocity": 71,
              "position": 0.0,
              "duration": 1.633333
            },
            {
              "pitch": 35,
              "velocity": 71,
              "position": 1.75,
              "duration": 0.083333
            },
            {
              "pitch": 36,
              "velocity": 68,
              "position": 2.0,
              "duration": 0.158333
            },
            {
              "pitch": 36,
              "velocity": 75,
              "position": 2.5,
              "duration": 0.683333
            },
            {
              "pitch": 31,
              "velocity": 67,
              "position": 3.25,
              "duration": 0.1
            },
            {
              "pitch": 35,
              "velocity": 75,
              "position": 3.5,
              "duration": 0.291667
            },
            {
              "pitch": 36,
              "velocity": 78,
              "position": 4.008333,
              "duration": 0.275
            },
            {
              "pitch": 36,
              "velocity": 71,
              "position": 4.5,
              "duration": 0.916667
            },
            {
              "pitch": 36,
              "velocity": 68,
              "position": 5.75,
              "duration": 0.391667
            },
            {
              "pitch": 36,
              "velocity": 75,
              "position": 6.5,
              "duration": 0.683333
            },
            {
              "pitch": 36,
              "velocity": 67,
              "position": 7.25,
              "duration": 0.1
            },
            {
              "pitch": 40,
              "velocity": 75,
              "position": 7.5,
              "duration": 0.291667
            },
            {
              "pitch": 36,
              "velocity": 75,
              "position": 8.0,
              "duration": 1.666667
            },
            {
              "pitch": 31,
              "velocity": 57,
              "position": 9.75,
              "duration": 0.166667
            },
            {
              "pitch": 36,
              "velocity": 72,
              "position": 10.0,
              "duration": 0.158333
            },
            {
              "pitch": 36,
              "velocity": 83,
              "position": 10.5,
              "duration": 1.458333
            },
            {
              "pitch": 36,
              "velocity": 65,
              "position": 12.008333,
              "duration": 0.508333
            },
            {
              "pitch": 36,
              "velocity": 80,
              "position": 12.525,
              "duration": 0.858333
            },
            {
              "pitch": 31,
              "velocity": 67,
              "position": 13.5,
              "duration": 0.233333
            },
            {
              "pitch": 36,
              "velocity": 74,
              "position": 13.75,
              "duration": 0.15
            },
            {
              "pitch": 36,
              "velocity": 64,
              "position": 14.25,
              "duration": 0.075
            },
            {
              "pitch": 36,
              "velocity": 75,
              "position": 14.5,
              "duration": 0.208333
            },
            {
              "pitch": 36,
              "velocity": 80,
              "position": 15.0,
              "duration": 0.433333
            },
            {
              "pitch": 43,
              "velocity": 58,
              "position": 15.5,
              "duration": 0.275
            }
          ]
        },
        "11": {
          "ctab": {
            "srcChannel": 11,
            "name": "Piano",
            "accType": "CHORD1",
            "editable": true,
            "mutedNotes": [],
            "mutedChords": [],
            "sourceChordNote": 0,
            "sourceChordType": "Maj7",
            "ctb2Main": {
              "ntr": "ROOT_FIXED",
              "ntt": "CHORD",
              "bassOn": false,
              "noteLowLimit": 48,
              "noteHighLimit": 84,
              "chordRootUpperLimit": 127,
              "rtr": "NOTE_GENERATOR"
            }
          },
          "notes": [
            {
              "pitch": 48,
              "velocity": 64,
              "position": 0.008333,
              "duration": 1.658333
            },
            {
              "pitch": 64,
              "velocity": 49,
              "position": 0.016667,
              "duration": 0.383333
            },
            {
              "pitch": 67,
              "velocity": 64,
              "position": 0.016667,
              "duration": 0.383333
            },
            {
              "pitch": 71,
              "velocity": 67,
              "position": 0.483333,
              "duration": 1.183333
            },
            {
              "pitch": 59,
              "velocity": 47,
              "position": 0.5,
              "duration": 1.166667
            },
            {
              "pitch": 59,
              "velocity": 31,
              "position": 1.758333,
              "duration": 1.116667
            },
            {
              "pitch": 64,
              "velocity": 60,
              "position": 1.758333,
              "duration": 1.091667
            },
            {
              "pitch": 67,
              "velocity": 63,
              "position": 1.758333,
              "duration": 2.183333
            },
            {
              "pitch": 48,
              "velocity": 54,
              "position": 1.775,
              "duration": 2.15
            },
            {
              "pitch": 55,
              "velocity": 65,
              "position": 2.758333,
              "duration": 1.2
            },
            {
              "pitch": 64,
              "velocity": 75,
              "position": 3.033333,
              "duration": 0.875
            },
            {
              "pitch": 48,
              "velocity": 64,
              "position": 4.008333,
              "duration": 1.583333
            },
            {
              "pitch": 59,
              "velocity": 47,
              "position": 4.016667,
              "duration": 1.4
            },
            {
              "pitch": 64,
              "velocity": 49,
              "position": 4.016667,
              "duration": 1.391667
            },
            {
              "pitch": 67,
              "velocity": 64,
              "position": 4.016667,
              "duration": 1.4
            },
            {
              "pitch": 71,
              "velocity": 67,
              "position": 4.033333,
              "duration": 1.441667
            },
            {
              "pitch": 59,
              "velocity": 32,
              "position": 5.758333,
              "duration": 1.116667
            },
            {
              "pitch": 64,
              "velocity": 61,
              "position": 5.758333,
              "duration": 2.141667
            },
            {
              "pitch": 67,
              "velocity": 64,
              "position": 5.758333,
              "duration": 1.541667
            },
            {
              "pitch": 48,
              "velocity": 55,
              "position": 5.775,
              "duration": 2.15
            },
            {
              "pitch": 52,
              "velocity": 66,
              "position": 6.758333,
              "duration": 1.2
            },
            {
              "pitch": 60,
              "velocity": 66,
              "position": 7.033333,
              "duration": 0.891667
            },
            {
              "pitch": 67,
              "velocity": 64,
              "position": 7.541667,
              "duration": 0.416667
            },
            {
              "pitch": 64,
              "velocity": 55,
              "position": 8.008333,
              "duration": 1.183333
            },
            {
              "pitch": 67,
              "velocity": 55,
              "position": 8.008333,
              "duration": 1.35
            },
            {
              "pitch": 71,
              "velocity": 58,
              "position": 8.008333,
              "duration": 1.983333
            },
            {
              "pitch": 48,
              "velocity": 70,
              "position": 8.025,
              "duration": 3.916667
            },
            {
              "pitch": 59,
              "velocity": 62,
              "position": 9.241667,
              "duration": 2.7
            },
            {
              "pitch": 64,
              "velocity": 42,
              "position": 9.45,
              "duration": 2.491667
            },
            {
              "pitch": 67,
              "velocity": 63,
              "position": 9.991667,
              "duration": 1.933333
            },
            {
              "pitch": 74,
              "velocity": 61,
              "position": 11.008333,
              "duration": 0.883333
            },
            {
              "pitch": 48,
              "velocity": 68,
              "position": 12.008333,
              "duration": 3.733333
            },
            {
              "pitch": 59,
              "velocity": 42,
              "position": 12.008333,
              "duration": 0.625
            },
            {
              "pitch": 67,
              "velocity": 65,
              "position": 12.008333,
              "duration": 2.55
            },
            {
              "pitch": 55,
              "velocity": 70,
              "position": 12.5,
              "duration": 3.225
            },
            {
              "pitch": 59,
              "velocity": 42,
              "position": 12.983333,
              "duration": 2.758333
            },
            {
              "pitch": 64,
              "velocity": 64,
              "position": 13.775,
              "duration": 0.766667
            },
            {
              "pitch": 71,
              "velocity": 56,
              "position": 14.991667,
              "duration": 0.733333
            }
          ]
        },
        "12": {
          "ctab": {
            "srcChannel": 12,
            "name": "Guitar",
            "accType": "CHORD2",
            "editable": true,
            "mutedNotes": [],
            "mutedChords": [],
            "sourceChordNote": 0,
            "sourceChordType": "Maj7",
            "ctb2Main": {
              "ntr": "ROOT_FIXED",
              "ntt": "CHORD",
              "bassOn": false,
              "noteLowLimit": 40,
              "noteHighLimit": 76,
              "chordRootUpperLimit": 127,
              "rtr": "NOTE_GENERATOR"
            }
          },
          "notes": [
            {
              "pitch": 48,
              "velocity": 54,
              "position": 0.0,
              "duration": 0.55
            },
            {
              "pitch": 55,
              "velocity": 52,
              "position": 0.0,
              "duration": 0.533333
            },
            {
              "pitch": 59,
              "velocity": 53,
              "position": 0.016667,
              "duration": 0.566667
            },
            {
              "pitch": 64,
              "velocity": 68,
              "position": 0.058333,
              "duration": 0.525
            },
            {
              "pitch": 55,
              "velocity": 42,
              "position": 0.741667,
              "duration": 1.058333
            },
            {
              "pitch": 48,
              "velocity": 62,
              "position": 0.75,
              "duration": 1.108333
            },
            {
              "pitch": 59,
              "velocity": 44,
              "position": 0.791667,
              "duration": 1.025
            },
            {
              "pitch": 64,
              "velocity": 72,
              "position": 0.816667,
              "duration": 1.016667
            },
            {
              "pitch": 55,
              "velocity": 59,
              "position": 2.025,
              "duration": 1.65
            },
            {
              "pitch": 64,
              "velocity": 47,
              "position": 2.508333,
              "duration": 1.216667
            },
            {
              "pitch": 67,
              "velocity": 69,
              "position": 3.0,
              "duration": 0.725
            },
            {
              "pitch": 43,
              "velocity": 49,
              "position": 4.0,
              "duration": 1.458333
            },
            {
              "pitch": 55,
              "velocity": 50,
              "position": 4.491667,
              "duration": 0.966667
            },
            {
              "pitch": 64,
              "velocity": 62,
              "position": 5.008333,
              "duration": 0.45
            },
            {
              "pitch": 55,
              "velocity": 59,
              "position": 5.775,
              "duration": 1.883333
            },
            {
              "pitch": 64,
              "velocity": 47,
              "position": 6.508333,
              "duration": 1.216667
            },
            {
              "pitch": 67,
              "velocity": 69,
              "position": 7.0,
              "duration": 0.725
            },
            {
              "pitch": 48,
              "velocity": 45,
              "position": 8.0,
              "duration": 0.891667
            },
            {
              "pitch": 55,
              "velocity": 65,
              "position": 8.008333,
              "duration": 0.983333
            },
            {
              "pitch": 59,
              "velocity": 44,
              "position": 8.008333,
              "duration": 1.016667
            },
            {
              "pitch": 64,
              "velocity": 56,
              "position": 8.058333,
              "duration": 0.975
            },
            {
              "pitch": 55,
              "velocity": 84,
              "position": 9.45,
              "duration": 0.666667
            },
            {
              "pitch": 59,
              "velocity": 52,
              "position": 9.45,
              "duration": 0.316667
            },
            {
              "pitch": 64,
              "velocity": 69,
              "position": 9.483333,
              "duration": 0.333333
            },
            {
              "pitch": 59,
              "velocity": 36,
              "position": 10.033333,
              "duration": 0.1
            },
            {
              "pitch": 64,
              "velocity": 46,
              "position": 10.033333,
              "duration": 0.1
            },
            {
              "pitch": 55,
              "velocity": 61,
              "position": 10.525,
              "duration": 0.383333
            },
            {
              "pitch": 59,
              "velocity": 44,
              "position": 10.525,
              "duration": 0.383333
            },
            {
              "pitch": 64,
              "velocity": 54,
              "position": 10.558333,
              "duration": 0.216667
            },
            {
              "pitch": 59,
              "velocity": 45,
              "position": 11.0,
              "duration": 0.4
            },
            {
              "pitch": 64,
              "velocity": 63,
              "position": 11.016667,
              "duration": 0.233333
            },
            {
              "pitch": 55,
              "velocity": 76,
              "position": 11.025,
              "duration": 0.266667
            },
            {
              "pitch": 48,
              "velocity": 37,
              "position": 12.0,
              "duration": 1.158333
            },
            {
              "pitch": 59,
              "velocity": 42,
              "position": 12.0,
              "duration": 0.083333
            },
            {
              "pitch": 55,
              "velocity": 62,
              "position": 12.008333,
              "duration": 1.058333
            },
            {
              "pitch": 64,
              "velocity": 58,
              "position": 12.041667,
              "duration": 1.216667
            },
            {
              "pitch": 55,
              "velocity": 77,
              "position": 13.525,
              "duration": 0.616667
            },
            {
              "pitch": 59,
              "velocity": 43,
              "position": 13.525,
              "duration": 0.3
            },
            {
              "pitch": 64,
              "velocity": 65,
              "position": 13.558333,
              "duration": 0.283333
            },
            {
              "pitch": 55,
              "velocity": 77,
              "position": 14.975,
              "duration": 0.291667
            },
            {
              "pitch": 59,
              "velocity": 77,
              "position": 14.991667,
              "duration": 0.258333
            },
            {
              "pitch": 64,
              "velocity": 77,
              "position": 15.0,
              "duration": 0.241667
            },
            {
              "pitch": 67,
              "velocity": 77,
              "position": 15.008333,
              "duration": 0.216667
            },
            {
              "pitch": 67,
              "velocity": 40,
              "position": 15.241667,
              "duration": 0.133333
            },
            {
              "pitch": 64,
              "velocity": 46,
              "position": 15.258333,
              "duration": 0.116667
            },
            {
              "pitch": 59,
              "velocity": 46,
              "position": 15.266667,
              "duration": 0.108333
            },
            {
              "pitch": 55,
              "velocity": 40,
              "position": 15.275,
              "duration": 0.1
            }
          ]
        },
        "13": {
          "ctab": {
            "srcChannel": 13,
            "name": "Strings",
            "accType": "PAD",
            "editable": true,
            "mutedNotes": [],
            "mutedChords": [],
            "sourceChordNote": 0,
            "sourceChordType": "Maj7",
            "ctb2Main": {
              "ntr": "ROOT_FIXED",
              "ntt": "MELODY",
              "bassOn": false,
              "noteLowLimit": 36,
              "noteHighLimit": 96,
              "chordRootUpperLimit": 127,
              "rtr": "PITCH_SHIFT"
            }
          },
          "notes": [
            {
              "pitch": 59,
              "velocity": 22,
              "position": 0.0,
              "duration": 16.0
            },
            {
              "pitch": 64,
              "velocity": 23,
              "position": 0.0,
              "duration": 16.0
            }
          ]
        }
      }
    }
  }
}