{
  "name": "Gossamer 2 Acoustic Guitars",
  "tempo": 80,
  "timeSignature": "4/4",
  "ticksPerQuarter": 120,
  "sffType": "SFF1",
  "division": "BINARY",
  "channelPrograms": {
    "9": 0,
    "10": 35,
    "11": 24,
    "12": 25,
    "13": null
  },
  "parts": {
    "Intro_A": {
      "type": "Intro_A",
      "sizeInBeats": 24,
      "channels": {
        "9": {
          "ctab": {
            "srcChannel": 9,
            "name": "Drums",
            "accType": "RHYTHM",
            "editable": false,
            "mutedNotes": [],
            "mutedChords": [],
            "sourceChordNote": 0,
            "sourceChordType": "Maj",
            "ctb2Main": {
              "ntr": "ROOT_FIXED",
              "ntt": "BYPASS",
              "bassOn": false,
              "noteLowLimit": 20,
              "noteHighLimit": 127,
              "chordRootUpperLimit": 127,
              "rtr": "RETRIGGER"
            }
          },
          "notes": [
            {
              "pitch": 37,
              "velocity": 84,
              "position": 0.0,
              "duration": 1.0
            },
            {
              "pitch": 37,
              "velocity": 84,
              "position": 2.0,
              "duration": 1.0
            },
            {
              "pitch": 37,
              "velocity": 64,
              "position": 4.0,
              "duration": 1.0
            },
            {
              "pitch": 37,
              "velocity": 84,
              "position": 5.0,
              "duration": 1.0
            },
            {
              "pitch": 37,
              "velocity": 64,
              "position": 6.0,
              "duration": 1.0
            },
            {
              "pitch": 37,
              "velocity": 84,
              "position": 7.0,
              "duration": 1.0
            }
          ]
        },
        "10": {
          "ctab": {
            "srcChannel": 10,
            "name": "Bass",
            "accType": "BASS",
            "editable": true,
            "mutedNotes": [],
            "mutedChords": [],
            "sourceChordNote": 0,
            "sourceChordType": "Maj7",
            "ctb2Main": {
              "ntr": "ROOT_TRANSPOSITION",
              "ntt": "BYPASS",
              "bassOn": true,
              "noteLowLimit": 20,
              "noteHighLimit": 60,
              "chordRootUpperLimit": 127,
              "rtr": "NOTE_GENERATOR"
            }
          },
          "notes": []
        },
        "11": {
          "ctab": {
            "srcChannel": 11,
            "name": "Piano",
            "accType": "CHORD1",
            "editable": true,
            "mutedNotes": [],
            "mutedChords": [],
            "sourceChordNote": 0,
            "sourceChordType": "Maj7",
            "ctb2Main": {
              "ntr": "ROOT_FIXED",
              "ntt": "CHORD",
              "bassOn": false,
              "noteLowLimit": 48,
              "noteHighLimit": 84,
              "chordRootUpperLimit": 127,
              "rtr": "NOTE_GENERATOR"
            }
          },
          "notes": [
            {
              "pitch": 48,
              "velocity": 56,
              "position": 8.0,
              "duration": 0.091667
            },
            {
              "pitch": 52,
              "velocity": 54,
              "position": 8.066667,
              "duration": 1.775
            },
            {
              "pitch": 55,
              "velocity": 72,
              "position": 8.091667,
              "duration": 1.183333
            },
            {
              "pitch": 59,
              "velocity": 67,
              "position": 8.091667,
              "duration": 1.433333
            },
            {
              "pitch": 64,
              "velocity": 69,
              "position": 8.133333,
              "duration": 1.375
            },
            {
              "pitch": 55,
              "velocity": 64,
              "position": 9.525,
              "duration": 0.316667
            },
            {
              "pitch": 48,
              "velocity": 53,
              "position": 9.925,
              "duration": 1.9
            },
            {
              "pitch": 52,
              "velocity": 68,
              "position": 9.975,
              "duration": 1.816667
            },
            {
              "pitch": 55,
              "velocity": 65,
              "position": 10.091667,
              "duration": 0.925
            },
            {
              "pitch": 59,
              "velocity": 67,
              "position": 10.1,
              "duration": 0.958333
            },
            {
              "pitch": 64,
              "velocity": 44,
              "position": 10.108333,
              "duration": 1.758333
            },
            {
              "pitch": 55,
              "velocity": 60,
              "position": 11.525,
              "duration": 0.45
            },
            {
              "pitch": 55,
              "velocity": 66,
              "position": 12.041667,
              "duration": 1.933333
            },
            {
              "pitch": 52,
              "velocity": 66,
              "position": 12.091667,
              "duration": 1.233333
            },
            {
              "pitch": 59,
              "velocity": 47,
              "position": 12.275,
              "duration": 1.7
            },
            {
              "pitch": 64,
              "velocity": 53,
              "position": 12.533333,
              "duration": 1.4
            },
            {
              "pitch": 52,
              "velocity": 66,
              "position": 13.525,
              "duration": 0.383333
            },
            {
              "pitch": 64,
              "velocity": 67,
              "position": 14.0,
              "duration": 1.733333
            },
            {
              "pitch": 52,
              "velocity": 51,
              "position": 14.016667,
              "duration": 1.958333
            },
            {
              "pitch": 55,
              "velocity": 58,
              "position": 14.041667,
              "duration": 1.208333
            },
            {
              "pitch": 59,
              "velocity": 64,
              "position": 14.533333,
              "duration": 1.35
            },
            {
              "pitch": 55,
              "velocity": 64,
              "position": 15.491667,
              "duration": 0.483333
            },
            {
              "pitch": 48,
              "velocity": 53,
              "position": 16.0,
              "duration": 7.775
            },
            {
              "pitch": 52,
              "velocity": 60,
              "position": 16.066667,
              "duration": 2.991667
            },
            {
              "pitch": 55,
              "velocity": 66,
              "position": 16.091667,
              "duration": 2.525
            },
            {
              "pitch": 59,
              "velocity": 63,
              "position": 16.133333,
              "duration": 2.008333
            },
            {
              "pitch": 64,
              "velocity": 80,
              "position": 18.5,
              "duration": 4.7
            },
            {
              "pitch": 59,
              "velocity": 80,
              "position": 18.758333,
              "duration": 4.258333
            },
            {
              "pitch": 55,
              "velocity": 69,
              "position": 19.008333,
              "duration": 3.658333
            },
            {
              "pitch": 52,
              "velocity": 74,
              "position": 19.5,
              "duration": 2.583333
            },
            {
              "pitch": 52,
              "velocity": 70,
              "position": 22.5,
              "duration": 1.375
            },
            {
              "pitch": 55,
              "velocity": 88,
              "position": 23.0,
              "duration": 0.525
            },
            {
              "pitch": 59,
              "velocity": 74,
              "position": 23.508333,
              "duration": 0.333333
            },
            {
              "pitch": 48,
              "velocity": 63,
              "position": 23.925,
              "duration": 2.008333
            },
            {
              "pitch": 55,
              "velocity": 80,
              "position": 23.983333,
              "duration": 1.508333
            }
          ]
        },
        "12": {
          "ctab": {
            "srcChannel": 12,
            "name": "Guitar",
            "accType": "CHORD2",
            "editable": true,
            "mutedNotes": [],
            "mutedChords": [],
            "sourceChordNote": 0,
            "sourceChordType": "Maj7",
            "ctb2Main": {
              "ntr": "ROOT_FIXED",
              "ntt": "CHORD",
              "bassOn": false,
              "noteLowLimit": 40,
              "noteHighLimit": 76,
              "chordRootUpperLimit": 127,
              "rtr": "NOTE_GENERATOR"
            }
          },
          "notes": [
            {
              "pitch": 48,
              "velocity": 61,
              "position": 8.008333,
              "duration": 1.866667
            },
            {
              "pitch": 52,
              "velocity": 62,
              "position": 8.508333,
              "duration": 0.491667
            },
            {
              "pitch": 55,
              "velocity": 75,
              "position": 9.008333,
              "duration": 0.541667
            },
            {
              "pitch": 59,
              "velocity": 70,
              "position": 9.008333,
              "duration": 0.658333
            },
            {
              "pitch": 52,
              "velocity": 64,
              "position": 9.5,
              "duration": 0.458333
            },
            {
              "pitch": 48,
              "velocity": 61,
              "position": 10.008333,
              "duration": 1.0
            },
            {
              "pitch": 59,
              "velocity": 70,
              "position": 10.008333,
              "duration": 1.85
            },
            {
              "pitch": 52,
              "velocity": 62,
              "position": 10.508333,
              "duration": 0.491667
            },
            {
              "pitch": 55,
              "velocity": 75,
              "position": 11.008333,
              "duration": 0.541667
            },
            {
              "pitch": 52,
              "velocity": 51,
              "position": 11.508333,
              "duration": 0.441667
            },
            {
              "pitch": 48,
              "velocity": 61,
              "position": 12.0,
              "duration": 1.933333
            },
            {
              "pitch": 64,
              "velocity": 75,
              "position": 12.033333,
              "duration": 1.85
            },
            {
              "pitch": 52,
              "velocity": 62,
              "position": 12.5,
              "duration": 1.408333
            },
            {
              "pitch": 59,
              "velocity": 59,
              "position": 13.0,
              "duration": 0.925
            },
            {
              "pitch": 55,
              "velocity": 70,
              "position": 13.525,
              "duration": 0.416667
            },
            {
              "pitch": 48,
              "velocity": 61,
              "position": 14.016667,
              "duration": 1.616667
            },
            {
              "pitch": 52,
              "velocity": 62,
              "position": 14.516667,
              "duration": 0.491667
            },
            {
              "pitch": 55,
              "velocity": 54,
              "position": 15.016667,
              "duration": 0.925
            },
            {
              "pitch": 59,
              "velocity": 78,
              "position": 15.016667,
              "duration": 0.941667
            },
            {
              "pitch": 52,
              "velocity": 64,
              "position": 15.508333,
              "duration": 0.416667
            },
            {
              "pitch": 48,
              "velocity": 61,
              "position": 16.0,
              "duration": 3.525
            },
            {
              "pitch": 52,
              "velocity": 62,
              "position": 16.5,
              "duration": 0.758333
            },
            {
              "pitch": 55,
              "velocity": 59,
              "position": 17.0,
              "duration": 1.616667
            },
            {
              "pitch": 52,
              "velocity": 64,
              "position": 17.5,
              "duration": 0.558333
            },
            {
              "pitch": 59,
              "velocity": 83,
              "position": 17.983333,
              "duration": 0.583333
            },
            {
              "pitch": 52,
              "velocity": 70,
              "position": 18.508333,
              "duration": 0.583333
            },
            {
              "pitch": 55,
              "velocity": 76,
              "position": 19.0,
              "duration": 0.366667
            },
            {
              "pitch": 52,
              "velocity": 66,
              "position": 19.5,
              "duration": 0.325
            },
            {
              "pitch": 48,
              "velocity": 51,
              "position": 20.0,
              "duration": 0.5
            },
            {
              "pitch": 52,
              "velocity": 56,
              "position": 20.5,
              "duration": 0.291667
            },
            {
              "pitch": 59,
              "velocity": 73,
              "position": 21.0,
              "duration": 0.341667
            },
            {
              "pitch": 52,
              "velocity": 66,
              "position": 21.5,
              "duration": 0.216667
            },
            {
              "pitch": 55,
              "velocity": 70,
              "position": 22.0,
              "duration": 0.491667
            },
            {
              "pitch": 64,
              "velocity": 63,
              "position": 22.0,
              "duration": 0.341667
            },
            {
              "pitch": 52,
              "velocity": 65,
              "position": 22.5,
              "duration": 0.266667
            },
            {
              "pitch": 59,
              "velocity": 70,
              "position": 23.0,
              "duration": 0.383333
            },
            {
              "pitch": 52,
              "velocity": 62,
              "position": 23.5,
              "duration": 0.166667
            }
          ]
        },
        "13": {
          "ctab": {
            "srcChannel": 13,
            "name": "Strings",
            "accType": "PAD",
            "editable": true,
            "mutedNotes": [],
            "mutedChords": [],
            "sourceChordNote": 0,
            "sourceChordType": "Maj7",
            "ctb2Main": {
              "ntr": "ROOT_FIXED",
              "ntt": "MELODY",
              "bassOn": false,
              "noteLowLimit": 36,
              "noteHighLimit": 96,
              "chordRootUpperLimit": 127,
              "rtr": "PITCH_SHIFT"
            }
          },
          "notes": []
        }
      }
    },
    "Main_A": {
      "type": "Main_A",
      "sizeInBeats": 16,
      "channels": {
        "9": {
          "ctab": {
            "srcChannel": 9,
            "name": "Drums",
            "accType": "RHYTHM",
            "editable": false,
            "mutedNotes": [],
            "mutedChords": [],
            "sourceChordNote": 0,
            "sourceChordType": "Maj",
            "ctb2Main": {
              "ntr": "ROOT_FIXED",
              "ntt": "BYPASS",
              "bassOn": false,
              "noteLowLimit": 20,
              "noteHighLimit": 127,
              "chordRootUpperLimit": 127,
              "rtr": "RETRIGGER"
            }
          },
          "notes": []
        },
        "10": {
          "ctab": {
            "srcChannel": 10,
            "name": "Bass",
            "accType": "BASS",
            "editable": true,
            "mutedNotes": [],
            "mutedChords": [],
            "sourceChordNote": 0,
            "sourceChordType": "Maj7",
            "ctb2Main": {
              "ntr": "ROOT_TRANSPOSITION",
              "ntt": "BYPASS",
              "bassOn": true,
              "noteLowLimit": 20,
              "noteHighLimit": 60,
              "chordRootUpperLimit": 127,
              "rtr": "NOTE_GENERATOR"
            }
          },
          "notes": []
        },
        "11": {
          "ctab": {
            "srcChannel": 11,
            "name": "Piano",
            "accType": "CHORD1",
            "editable": true,
            "mutedNotes": [],
            "mutedChords": [],
            "sourceChordNote": 0,
            "sourceChordType": "Maj7",
            "ctb2Main": {
              "ntr": "ROOT_FIXED",
              "ntt": "CHORD",
              "bassOn": false,
              "noteLowLimit": 48,
              "noteHighLimit": 84,
              "chordRootUpperLimit": 127,
              "rtr": "NOTE_GENERATOR"
            }
          },
          "notes": [
            {
              "pitch": 59,
              "velocity": 72,
              "position": 0.091667,
              "duration": 1.416667
            },
            {
              "pitch": 64,
              "velocity": 59,
              "position": 0.116667,
              "duration": 1.391667
            },
            {
              "pitch": 52,
              "velocity": 72,
              "position": 1.525,
              "duration": 0.408333
            },
            {
              "pitch": 55,
              "velocity": 66,
              "position": 2.041667,
              "duration": 1.933333
            },
            {
              "pitch": 52,
              "velocity": 66,
              "position": 2.091667,
              "duration": 1.233333
            },
            {
              "pitch": 59,
              "velocity": 47,
              "position": 2.275,
              "duration": 1.7
            },
            {
              "pitch": 64,
              "velocity": 53,
              "position": 2.533333,
              "duration": 1.4
            },
            {
              "pitch": 52,
              "velocity": 66,
              "position": 3.525,
              "duration": 0.383333
            },
            {
              "pitch": 59,
              "velocity": 67,
              "position": 4.041667,
              "duration": 1.783333
            },
            {
              "pitch": 64,
              "velocity": 67,
              "position": 4.041667,
              "duration": 1.8
            },
            {
              "pitch": 55,
              "velocity": 48,
              "position": 4.275,
              "duration": 1.591667
            },
            {
              "pitch": 52,
              "velocity": 54,
              "position": 4.533333,
              "duration": 0.9
            },
            {
              "pitch": 52,
              "velocity": 67,
              "position": 5.491667,
              "duration": 0.35
            },
            {
              "pitch": 48,
              "velocity": 53,
              "position": 5.925,
              "duration": 1.9
            },
            {
              "pitch": 52,
              "velocity": 68,
              "position": 5.975,
              "duration": 1.816667
            },
            {
              "pitch": 55,
              "velocity": 65,
              "position": 6.091667,
              "duration": 0.925
            },
            {
              "pitch": 59,
              "velocity": 67,
              "position": 6.1,
              "duration": 0.958333
            },
            {
              "pitch": 64,
              "velocity": 44,
              "position": 6.108333,
              "duration": 1.758333
            },
            {
              "pitch": 55,
              "velocity": 60,
              "position": 7.525,
              "duration": 0.45
            },
            {
              "pitch": 48,
              "velocity": 53,
              "position": 8.0,
              "duration": 7.775
            },
            {
              "pitch": 52,
              "velocity": 60,
              "position": 8.066667,
              "duration": 2.991667
            },
            {
              "pitch": 55,
              "velocity": 66,
              "position": 8.091667,
              "duration": 2.525
            },
            {
              "pitch": 59,
              "velocity": 63,
              "position": 8.133333,
              "duration": 2.008333
            },
            {
              "pitch": 64,
              "velocity": 80,
              "position": 10.5,
              "duration": 4.7
            },
            {
              "pitch": 59,
              "velocity": 80,
              "position": 10.758333,
              "duration": 4.258333
            },
            {
              "pitch": 55,
              "velocity": 69,
              "position": 11.008333,
              "duration": 3.658333
            },
            {
              "pitch": 52,
              "velocity": 74,
              "position": 11.5,
              "duration": 2.583333
            },
            {
              "pitch": 52,
              "velocity": 70,
              "position": 14.5,
              "duration": 1.375
            },
            {
              "pitch": 55,
              "velocity": 88,
              "position": 15.0,
              "duration": 0.525
            },
            {
              "pitch": 59,
              "velocity": 74,
              "position": 15.508333,
              "duration": 0.466667
            }
          ]
        },
        "12": {
          "ctab": {
            "srcChannel": 12,
            "name": "Guitar",
            "accType": "CHORD2",
            "editable": true,
            "mutedNotes": [],
            "mutedChords": [],
            "sourceChordNote": 0,
            "sourceChordType": "Maj7",
            "ctb2Main": {
              "ntr": "ROOT_FIXED",
              "ntt": "CHORD",
              "bassOn": false,
              "noteLowLimit": 40,
              "noteHighLimit": 76,
              "chordRootUpperLimit": 127,
              "rtr": "NOTE_GENERATOR"
            }
          },
          "notes": [
            {
              "pitch": 48,
              "velocity": 69,
              "position": 0.0,
              "duration": 1.783333
            },
            {
              "pitch": 59,
              "velocity": 61,
              "position": 0.033333,
              "duration": 1.766667
            },
            {
              "pitch": 52,
              "velocity": 64,
              "position": 0.5,
              "duration": 0.733333
            },
            {
              "pitch": 55,
              "velocity": 74,
              "position": 1.0,
              "duration": 0.775
            },
            {
              "pitch": 52,
              "velocity": 61,
              "position": 1.5,
              "duration": 0.4
            },
            {
              "pitch": 48,
              "velocity": 69,
              "position": 2.008333,
              "duration": 1.491667
            },
            {
              "pitch": 52,
              "velocity": 60,
              "position": 2.508333,
              "duration": 0.758333
            },
            {
              "pitch": 55,
              "velocity": 66,
              "position": 3.008333,
              "duration": 0.491667
            },
            {
              "pitch": 48,
              "velocity": 62,
              "position": 4.008333,
              "duration": 1.0
            },
            {
              "pitch": 59,
              "velocity": 72,
              "position": 4.008333,
              "duration": 1.85
            },
            {
              "pitch": 52,
              "velocity": 64,
              "position": 4.508333,
              "duration": 0.491667
            },
            {
              "pitch": 55,
              "velocity": 77,
              "position": 5.008333,
              "duration": 0.541667
            },
            {
              "pitch": 52,
              "velocity": 53,
              "position": 5.508333,
              "duration": 0.441667
            },
            {
              "pitch": 48,
              "velocity": 62,
              "position": 6.008333,
              "duration": 1.0
            },
            {
              "pitch": 59,
              "velocity": 72,
              "position": 6.008333,
              "duration": 1.85
            },
            {
              "pitch": 52,
              "velocity": 64,
              "position": 6.508333,
              "duration": 0.491667
            },
            {
              "pitch": 55,
              "velocity": 77,
              "position": 7.008333,
              "duration": 0.541667
            },
            {
              "pitch": 52,
              "velocity": 53,
              "position": 7.508333,
              "duration": 0.441667
            },
            {
              "pitch": 48,
              "velocity": 63,
              "position": 8.0,
              "duration": 3.525
            },
            {
              "pitch": 52,
              "velocity": 65,
              "position": 8.5,
              "duration": 0.758333
            },
            {
              "pitch": 59,
              "velocity": 62,
              "position": 9.0,
              "duration": 1.616667
            },
            {
              "pitch": 52,
              "velocity": 67,
              "position": 9.5,
              "duration": 0.85
            },
            {
              "pitch": 55,
              "velocity": 73,
              "position": 9.525,
              "duration": 1.375
            },
            {
              "pitch": 64,
              "velocity": 78,
              "position": 9.525,
              "duration": 0.991667
            },
            {
              "pitch": 52,
              "velocity": 73,
              "position": 10.508333,
              "duration": 0.208333
            },
            {
              "pitch": 59,
              "velocity": 67,
              "position": 11.0,
              "duration": 0.366667
            },
            {
              "pitch": 52,
              "velocity": 69,
              "position": 11.5,
              "duration": 0.325
            },
            {
              "pitch": 48,
              "velocity": 53,
              "position": 12.0,
              "duration": 0.5
            },
            {
              "pitch": 52,
              "velocity": 59,
              "position": 12.5,
              "duration": 0.291667
            },
            {
              "pitch": 59,
              "velocity": 76,
              "position": 13.0,
              "duration": 0.341667
            },
            {
              "pitch": 52,
              "velocity": 69,
              "position": 13.5,
              "duration": 0.216667
            },
            {
              "pitch": 55,
              "velocity": 73,
              "position": 14.0,
              "duration": 0.491667
            },
            {
              "pitch": 64,
              "velocity": 66,
              "position": 14.0,
              "duration": 0.341667
            },
            {
              "pitch": 52,
              "velocity": 68,
              "position": 14.5,
              "duration": 0.266667
            },
            {
              "pitch": 59,
              "velocity": 73,
              "position": 15.0,
              "duration": 0.383333
            },
            {
              "pitch": 52,
              "velocity": 65,
              "position": 15.5,
              "duration": 0.166667
            }
          ]
        },
        "13": {
          "ctab": {
            "srcChannel": 13,
            "name": "Strings",
            "accType": "PAD",
            "editable": true,
            "mutedNotes": [],
            "mutedChords": [],
            "sourceChordNote": 0,
            "sourceChordType": "Maj7",
            "ctb2Main": {
              "ntr": "ROOT_FIXED",
              "ntt": "MELODY",
              "bassOn": false,
              "noteLowLimit": 36,
              "noteHighLimit": 96,
              "chordRootUpperLimit": 127,
              "rtr": "PITCH_SHIFT"
            }
          },
          "notes": []
        }
      }
    },
    "Main_B": {
      "type": "Main_B",
      "sizeInBeats": 16,
      "channels": {
        "9": {
          "ctab": {
            "srcChannel": 9,
            "name": "Drums",
            "accType": "RHYTHM",
            "editable": false,
            "mutedNotes": [],
            "mutedChords": [],
            "sourceChordNote": 0,
            "sourceChordType": "Maj",
            "ctb2Main": {
              "ntr": "ROOT_FIXED",
              "ntt": "BYPASS",
              "bassOn": false,
              "noteLowLimit": 20,
              "noteHighLimit": 127,
              "chordRootUpperLimit": 127,
              "rtr": "RETRIGGER"
            }
          },
          "notes": []
        },
        "10": {
          "ctab": {
            "srcChannel": 10,
            "name": "Bass",
            "accType": "BASS",
            "editable": true,
            "mutedNotes": [],
            "mutedChords": [],
            "sourceChordNote": 0,
            "sourceChordType": "Maj7",
            "ctb2Main": {
              "ntr": "ROOT_TRANSPOSITION",
              "ntt": "BYPASS",
              "bassOn": true,
              "noteLowLimit": 20,
              "noteHighLimit": 60,
              "chordRootUpperLimit": 127,
              "rtr": "NOTE_GENERATOR"
            }
          },
          "notes": []
        },
        "11": {
          "ctab": {
            "srcChannel": 11,
            "name": "Piano",
            "accType": "CHORD1",
            "editable": true,
            "mutedNotes": [],
            "mutedChords": [],
            "sourceChordNote": 0,
            "sourceChordType": "Maj7",
            "ctb2Main": {
              "ntr": "ROOT_FIXED",
              "ntt": "CHORD",
              "bassOn": false,
              "noteLowLimit": 48,
              "noteHighLimit": 84,
              "chordRootUpperLimit": 127,
              "rtr": "NOTE_GENERATOR"
            }
          },
          "notes": [
            {
              "pitch": 59,
              "velocity": 67,
              "position": 0.041667,
              "duration": 1.783333
            },
            {
              "pitch": 64,
              "velocity": 67,
              "position": 0.041667,
              "duration": 1.8
            },
            {
              "pitch": 55,
              "velocity": 48,
              "position": 0.275,
              "duration": 1.591667
            },
            {
              "pitch": 52,
              "velocity": 54,
              "position": 0.533333,
              "duration": 0.9
            },
            {
              "pitch": 52,
              "velocity": 67,
              "position": 1.491667,
              "duration": 0.35
            },
            {
              "pitch": 48,
              "velocity": 53,
              "position": 1.925,
              "duration": 1.9
            },
            {
              "pitch": 52,
              "velocity": 68,
              "position": 1.975,
              "duration": 1.816667
            },
            {
              "pitch": 55,
              "velocity": 65,
              "position": 2.091667,
              "duration": 0.925
            },
            {
              "pitch": 59,
              "velocity": 67,
              "position": 2.1,
              "duration": 0.958333
            },
            {
              "pitch": 64,
              "velocity": 44,
              "position": 2.108333,
              "duration": 1.758333
            },
            {
              "pitch": 55,
              "velocity": 60,
              "position": 3.525,
              "duration": 0.45
            },
            {
              "pitch": 59,
              "velocity": 67,
              "position": 4.041667,
              "duration": 1.783333
            },
            {
              "pitch": 64,
              "velocity": 67,
              "position": 4.041667,
              "duration": 1.916667
            },
            {
              "pitch": 55,
              "velocity": 48,
              "position": 4.275,
              "duration": 1.591667
            },
            {
              "pitch": 52,
              "velocity": 54,
              "position": 4.533333,
              "duration": 0.9
            },
            {
              "pitch": 52,
              "velocity": 67,
              "position": 5.491667,
              "duration": 0.466667
            },
            {
              "pitch": 59,
              "velocity": 67,
              "position": 6.041667,
              "duration": 1.783333
            },
            {
              "pitch": 64,
              "velocity": 67,
              "position": 6.041667,
              "duration": 1.916667
            },
            {
              "pitch": 55,
              "velocity": 48,
              "position": 6.275,
              "duration": 1.591667
            },
            {
              "pitch": 52,
              "velocity": 54,
              "position": 6.533333,
              "duration": 0.9
            },
            {
              "pitch": 52,
              "velocity": 67,
              "position": 7.491667,
              "duration": 0.466667
            },
            {
              "pitch": 64,
              "velocity": 66,
              "position": 8.008333,
              "duration": 6.783333
            },
            {
              "pitch": 55,
              "velocity": 50,
              "position": 8.066667,
              "duration": 2.383333
            },
            {
              "pitch": 59,
              "velocity": 63,
              "position": 8.066667,
              "duration": 2.133333
            },
            {
              "pitch": 48,
              "velocity": 56,
              "position": 8.075,
              "duration": 5.025
            },
            {
              "pitch": 55,
              "velocity": 86,
              "position": 10.5,
              "duration": 4.7
            },
            {
              "pitch": 59,
              "velocity": 75,
              "position": 11.008333,
              "duration": 3.658333
            },
            {
              "pitch": 52,
              "velocity": 80,
              "position": 11.5,
              "duration": 2.583333
            },
            {
              "pitch": 52,
              "velocity": 76,
              "position": 14.5,
              "duration": 1.375
            },
            {
              "pitch": 55,
              "velocity": 80,
              "position": 15.508333,
              "duration": 0.333333
            },
            {
              "pitch": 48,
              "velocity": 63,
              "position": 15.925,
              "duration": 2.008333
            },
            {
              "pitch": 55,
              "velocity": 80,
              "position": 15.983333,
              "duration": 1.508333
            }
          ]
        },
        "12": {
          "ctab": {
            "srcChannel": 12,
            "name": "Guitar",
            "accType": "CHORD2",
            "editable": true,
            "mutedNotes": [],
            "mutedChords": [],
            "sourceChordNote": 0,
            "sourceChordType": "Maj7",
            "ctb2Main": {
              "ntr": "ROOT_FIXED",
              "ntt": "CHORD",
              "bassOn": false,
              "noteLowLimit": 40,
              "noteHighLimit": 76,
              "chordRootUpperLimit": 127,
              "rtr": "NOTE_GENERATOR"
            }
          },
          "notes": [
            {
              "pitch": 48,
              "velocity": 62,
              "position": 0.008333,
              "duration": 1.0
            },
            {
              "pitch": 59,
              "velocity": 72,
              "position": 0.008333,
              "duration": 1.85
            },
            {
              "pitch": 52,
              "velocity": 64,
              "position": 0.508333,
              "duration": 0.491667
            },
            {
              "pitch": 55,
              "velocity": 77,
              "position": 1.008333,
              "duration": 0.541667
            },
            {
              "pitch": 52,
              "velocity": 53,
              "position": 1.508333,
              "duration": 0.441667
            },
            {
              "pitch": 48,
              "velocity": 62,
              "position": 2.0,
              "duration": 1.933333
            },
            {
              "pitch": 64,
              "velocity": 76,
              "position": 2.033333,
              "duration": 1.85
            },
            {
              "pitch": 52,
              "velocity": 63,
              "position": 2.5,
              "duration": 1.408333
            },
            {
              "pitch": 59,
              "velocity": 60,
              "position": 3.0,
              "duration": 0.925
            },
            {
              "pitch": 55,
              "velocity": 71,
              "position": 3.525,
              "duration": 0.416667
            },
            {
              "pitch": 48,
              "velocity": 62,
              "position": 4.0,
              "duration": 1.933333
            },
            {
              "pitch": 64,
              "velocity": 76,
              "position": 4.033333,
              "duration": 1.85
            },
            {
              "pitch": 52,
              "velocity": 63,
              "position": 4.5,
              "duration": 1.408333
            },
            {
              "pitch": 59,
              "velocity": 60,
              "position": 5.0,
              "duration": 0.925
            },
            {
              "pitch": 55,
              "velocity": 71,
              "position": 5.525,
              "duration": 0.416667
            },
            {
              "pitch": 48,
              "velocity": 69,
              "position": 6.0,
              "duration": 1.783333
            },
            {
              "pitch": 59,
              "velocity": 61,
              "position": 6.033333,
              "duration": 1.766667
            },
            {
              "pitch": 52,
              "velocity": 64,
              "position": 6.5,
              "duration": 0.733333
            },
            {
              "pitch": 55,
              "velocity": 74,
              "position": 7.0,
              "duration": 0.775
            },
            {
              "pitch": 52,
              "velocity": 61,
              "position": 7.5,
              "duration": 0.4
            },
            {
              "pitch": 48,
              "velocity": 63,
              "position": 8.0,
              "duration": 3.525
            },
            {
              "pitch": 52,
              "velocity": 65,
              "position": 8.5,
              "duration": 0.758333
            },
            {
              "pitch": 59,
              "velocity": 62,
              "position": 9.0,
              "duration": 1.616667
            },
            {
              "pitch": 52,
              "velocity": 67,
              "position": 9.5,
              "duration": 0.85
            },
            {
              "pitch": 55,
              "velocity": 73,
              "position": 9.525,
              "duration": 1.375
            },
            {
              "pitch": 64,
              "velocity": 78,
              "position": 9.525,
              "duration": 0.991667
            },
            {
              "pitch": 52,
              "velocity": 73,
              "position": 10.508333,
              "duration": 0.208333
            },
            {
              "pitch": 59,
              "velocity": 67,
              "position": 11.0,
              "duration": 0.366667
            },
            {
              "pitch": 52,
              "velocity": 69,
              "position": 11.5,
              "duration": 0.325
            },
            {
              "pitch": 48,
              "velocity": 53,
              "position": 12.0,
              "duration": 0.5
            },
            {
              "pitch": 52,
              "velocity": 59,
              "position": 12.5,
              "duration": 0.291667
            },
            {
              "pitch": 59,
              "velocity": 76,
              "position": 13.0,
              "duration": 0.341667
            },
            {
              "pitch": 52,
              "velocity": 69,
              "position": 13.5,
              "duration": 0.216667
            },
            {
              "pitch": 55,
              "velocity": 73,
              "position": 14.0,
              "duration": 0.491667
            },
            {
              "pitch": 64,
              "velocity": 66,
              "position": 14.0,
              "duration": 0.341667
            },
            {
              "pitch": 52,
              "velocity": 68,
              "position": 14.5,
              "duration": 0.266667
            },
            {
              "pitch": 59,
              "velocity": 73,
              "position": 15.0,
              "duration": 0.383333
            },
            {
              "pitch": 52,
              "velocity": 65,
              "position": 15.5,
              "duration": 0.166667
            }
          ]
        },
        "13": {
          "ctab": {
            "srcChannel": 13,
            "name": "Strings",
            "accType": "PAD",
            "editable": true,
            "mutedNotes": [],
            "mutedChords": [],
            "sourceChordNote": 0,
            "sourceChordType": "Maj7",
            "ctb2Main": {
              "ntr": "ROOT_FIXED",
              "ntt": "MELODY",
              "bassOn": false,
              "noteLowLimit": 36,
              "noteHighLimit": 96,
              "chordRootUpperLimit": 127,
              "rtr": "PITCH_SHIFT"
            }
          },
          "notes": []
        }
      }
    },
    "Main_C": {
      "type": "Main_C",
      "sizeInBeats": 16,
      "channels": {
        "9": {
          "ctab": {
            "srcChannel": 9,
            "name": "Drums",
            "accType": "RHYTHM",
            "editable": false,
            "mutedNotes": [],
            "mutedChords": [],
            "sourceChordNote": 0,
            "sourceChordType": "Maj",
            "ctb2Main": {
              "ntr": "ROOT_FIXED",
              "ntt": "BYPASS",
              "bassOn": false,
              "noteLowLimit": 20,
              "noteHighLimit": 127,
              "chordRootUpperLimit": 127,
              "rtr": "RETRIGGER"
            }
          },
          "notes": []
        },
        "10": {
          "ctab": {
            "srcChannel": 10,
            "name": "Bass",
            "accType": "BASS",
            "editable": true,
            "mutedNotes": [],
            "mutedChords": [],
            "sourceChordNote": 0,
            "sourceChordType": "Maj7",
            "ctb2Main": {
              "ntr": "ROOT_TRANSPOSITION",
              "ntt": "BYPASS",
              "bassOn": true,
              "noteLowLimit": 20,
              "noteHighLimit": 60,
              "chordRootUpperLimit": 127,
              "rtr": "NOTE_GENERATOR"
            }
          },
          "notes": []
        },
        "11": {
          "ctab": {
            "srcChannel": 11,
            "name": "Piano",
            "accType": "CHORD1",
            "editable": true,
            "mutedNotes": [],
            "mutedChords": [],
            "sourceChordNote": 0,
            "sourceChordType": "Maj7",
            "ctb2Main": {
              "ntr": "ROOT_FIXED",
              "ntt": "CHORD",
              "bassOn": false,
              "noteLowLimit": 48,
              "noteHighLimit": 84,
              "chordRootUpperLimit": 127,
              "rtr": "NOTE_GENERATOR"
            }
          },
          "notes": [
            {
              "pitch": 59,
              "velocity": 72,
              "position": 0.091667,
              "duration": 1.416667
            },
            {
              "pitch": 64,
              "velocity": 59,
              "position": 0.116667,
              "duration": 1.391667
            },
            {
              "pitch": 52,
              "velocity": 72,
              "position": 1.525,
              "duration": 0.408333
            },
            {
              "pitch": 64,
              "velocity": 71,
              "position": 2.041667,
              "duration": 1.733333
            },
            {
              "pitch": 55,
              "velocity": 71,
              "position": 2.508333,
              "duration": 0.508333
            },
            {
              "pitch": 59,
              "velocity": 71,
              "position": 3.025,
              "duration": 0.958333
            },
            {
              "pitch": 55,
              "velocity": 71,
              "position": 3.525,
              "duration": 0.383333
            },
            {
              "pitch": 55,
              "velocity": 66,
              "position": 4.041667,
              "duration": 1.933333
            },
            {
              "pitch": 52,
              "velocity": 66,
              "position": 4.091667,
              "duration": 1.233333
            },
            {
              "pitch": 59,
              "velocity": 47,
              "position": 4.275,
              "duration": 1.7
            },
            {
              "pitch": 64,
              "velocity": 53,
              "position": 4.533333,
              "duration": 1.4
            },
            {
              "pitch": 52,
              "velocity": 66,
              "position": 5.525,
              "duration": 0.383333
            },
            {
              "pitch": 64,
              "velocity": 71,
              "position": 6.041667,
              "duration": 1.733333
            },
            {
              "pitch": 55,
              "velocity": 71,
              "position": 6.508333,
              "duration": 0.508333
            },
            {
              "pitch": 59,
              "velocity": 71,
              "position": 7.025,
              "duration": 0.816667
            },
            {
              "pitch": 55,
              "velocity": 71,
              "position": 7.525,
              "duration": 0.383333
            },
            {
              "pitch": 48,
              "velocity": 45,
              "position": 7.925,
              "duration": 2.008333
            },
            {
              "pitch": 52,
              "velocity": 51,
              "position": 7.983333,
              "duration": 1.525
            },
            {
              "pitch": 55,
              "velocity": 70,
              "position": 8.091667,
              "duration": 1.416667
            },
            {
              "pitch": 59,
              "velocity": 83,
              "position": 8.116667,
              "duration": 1.591667
            },
            {
              "pitch": 64,
              "velocity": 76,
              "position": 9.525,
              "duration": 4.366667
            },
            {
              "pitch": 59,
              "velocity": 79,
              "position": 10.025,
              "duration": 5.8
            },
            {
              "pitch": 52,
              "velocity": 53,
              "position": 10.041667,
              "duration": 1.3
            },
            {
              "pitch": 55,
              "velocity": 63,
              "position": 10.075,
              "duration": 4.2
            },
            {
              "pitch": 52,
              "velocity": 87,
              "position": 11.5,
              "duration": 3.541667
            },
            {
              "pitch": 55,
              "velocity": 83,
              "position": 14.5,
              "duration": 1.375
            },
            {
              "pitch": 52,
              "velocity": 87,
              "position": 15.508333,
              "duration": 0.316667
            },
            {
              "pitch": 48,
              "velocity": 56,
              "position": 15.908333,
              "duration": 0.166667
            },
            {
              "pitch": 52,
              "velocity": 54,
              "position": 15.975,
              "duration": 2.0
            }
          ]
        },
        "12": {
          "ctab": {
            "srcChannel": 12,
            "name": "Guitar",
            "accType": "CHORD2",
            "editable": true,
            "mutedNotes": [],
            "mutedChords": [],
            "sourceChordNote": 0,
            "sourceChordType": "Maj7",
            "ctb2Main": {
              "ntr": "ROOT_FIXED",
              "ntt": "CHORD",
              "bassOn": false,
              "noteLowLimit": 40,
              "noteHighLimit": 76,
              "chordRootUpperLimit": 127,
              "rtr": "NOTE_GENERATOR"
            }
          },
          "notes": [
            {
              "pitch": 48,
              "velocity": 62,
              "position": 0.0,
              "duration": 1.933333
            },
            {
              "pitch": 64,
              "velocity": 76,
              "position": 0.033333,
              "duration": 1.85
            },
            {
              "pitch": 52,
              "velocity": 63,
              "position": 0.5,
              "duration": 1.408333
            },
            {
              "pitch": 59,
              "velocity": 60,
              "position": 1.0,
              "duration": 0.925
            },
            {
              "pitch": 55,
              "velocity": 71,
              "position": 1.525,
              "duration": 0.416667
            },
            {
              "pitch": 48,
              "velocity": 61,
              "position": 2.008333,
              "duration": 1.866667
            },
            {
              "pitch": 52,
              "velocity": 62,
              "position": 2.508333,
              "duration": 0.491667
            },
            {
              "pitch": 55,
              "velocity": 75,
              "position": 3.008333,
              "duration": 0.541667
            },
            {
              "pitch": 59,
              "velocity": 70,
              "position": 3.008333,
              "duration": 0.658333
            },
            {
              "pitch": 52,
              "velocity": 64,
              "position": 3.5,
              "duration": 0.458333
            },
            {
              "pitch": 48,
              "velocity": 62,
              "position": 4.016667,
              "duration": 1.616667
            },
            {
              "pitch": 52,
              "velocity": 64,
              "position": 4.516667,
              "duration": 0.491667
            },
            {
              "pitch": 55,
              "velocity": 56,
              "position": 5.016667,
              "duration": 0.925
            },
            {
              "pitch": 59,
              "velocity": 80,
              "position": 5.016667,
              "duration": 0.941667
            },
            {
              "pitch": 52,
              "velocity": 66,
              "position": 5.508333,
              "duration": 0.416667
            },
            {
              "pitch": 52,
              "velocity": 72,
              "position": 6.008333,
              "duration": 1.0
            },
            {
              "pitch": 48,
              "velocity": 52,
              "position": 6.508333,
              "duration": 0.491667
            },
            {
              "pitch": 55,
              "velocity": 75,
              "position": 7.008333,
              "duration": 0.541667
            },
            {
              "pitch": 59,
              "velocity": 70,
              "position": 7.008333,
              "duration": 0.658333
            },
            {
              "pitch": 52,
              "velocity": 64,
              "position": 7.508333,
              "duration": 0.375
            },
            {
              "pitch": 48,
              "velocity": 63,
              "position": 8.0,
              "duration": 3.333333
            },
            {
              "pitch": 52,
              "velocity": 57,
              "position": 8.5,
              "duration": 0.733333
            },
            {
              "pitch": 55,
              "velocity": 67,
              "position": 9.0,
              "duration": 0.541667
            },
            {
              "pitch": 52,
              "velocity": 67,
              "position": 9.5,
              "duration": 0.4
            },
            {
              "pitch": 55,
              "velocity": 67,
              "position": 9.991667,
              "duration": 0.525
            },
            {
              "pitch": 64,
              "velocity": 78,
              "position": 10.0,
              "duration": 0.525
            },
            {
              "pitch": 52,
              "velocity": 64,
              "position": 10.508333,
              "duration": 0.208333
            },
            {
              "pitch": 55,
              "velocity": 77,
              "position": 11.0,
              "duration": 0.366667
            },
            {
              "pitch": 52,
              "velocity": 69,
              "position": 11.5,
              "duration": 0.325
            },
            {
              "pitch": 48,
              "velocity": 53,
              "position": 12.0,
              "duration": 3.9
            },
            {
              "pitch": 52,
              "velocity": 59,
              "position": 12.5,
              "duration": 0.291667
            },
            {
              "pitch": 55,
              "velocity": 76,
              "position": 13.0,
              "duration": 0.341667
            },
            {
              "pitch": 52,
              "velocity": 69,
              "position": 13.5,
              "duration": 0.216667
            },
            {
              "pitch": 55,
              "velocity": 73,
              "position": 14.0,
              "duration": 0.491667
            },
            {
              "pitch": 64,
              "velocity": 66,
              "position": 14.0,
              "duration": 0.341667
            },
            {
              "pitch": 52,
              "velocity": 68,
              "position": 14.5,
              "duration": 0.266667
            },
            {
              "pitch": 55,
              "velocity": 73,
              "position": 15.0,
              "duration": 0.383333
            },
            {
              "pitch": 52,
              "velocity": 65,
              "position": 15.5,
              "duration": 0.166667
            }
          ]
        },
        "13": {
          "ctab": {
            "srcChannel": 13,
            "name": "Strings",
            "accType": "PAD",
            "editable": true,
            "mutedNotes": [],
            "mutedChords": [],
            "sourceChordNote": 0,
            "sourceChordType": "Maj7",
            "ctb2Main": {
              "ntr": "ROOT_FIXED",
              "ntt": "MELODY",
              "bassOn": false,
              "noteLowLimit": 36,
              "noteHighLimit": 96,
              "chordRootUpperLimit": 127,
              "rtr": "PITCH_SHIFT"
            }
          },
          "notes": []
        }
      }
    },
    "Main_D": {
      "type": "Main_D",
      "sizeInBeats": 16,
      "channels": {
        "9": {
          "ctab": {
            "srcChannel": 9,
            "name": "Drums",
            "accType": "RHYTHM",
            "editable": false,
            "mutedNotes": [],
            "mutedChords": [],
            "sourceChordNote": 0,
            "sourceChordType": "Maj",
            "ctb2Main": {
              "ntr": "ROOT_FIXED",
              "ntt": "BYPASS",
              "bassOn": false,
              "noteLowLimit": 20,
              "noteHighLimit": 127,
              "chordRootUpperLimit": 127,
              "rtr": "RETRIGGER"
            }
          },
          "notes": []
        },
        "10": {
          "ctab": {
            "srcChannel": 10,
            "name": "Bass",
            "accType": "BASS",
            "editable": true,
            "mutedNotes": [],
            "mutedChords": [],
            "sourceChordNote": 0,
            "sourceChordType": "Maj7",
            "ctb2Main": {
              "ntr": "ROOT_TRANSPOSITION",
              "ntt": "BYPASS",
              "bassOn": true,
              "noteLowLimit": 20,
              "noteHighLimit": 60,
              "chordRootUpperLimit": 127,
              "rtr": "NOTE_GENERATOR"
            }
          },
          "notes": []
        },
        "11": {
          "ctab": {
            "srcChannel": 11,
            "name": "Piano",
            "accType": "CHORD1",
            "editable": true,
            "mutedNotes": [],
            "mutedChords": [],
            "sourceChordNote": 0,
            "sourceChordType": "Maj7",
            "ctb2Main": {
              "ntr": "ROOT_FIXED",
              "ntt": "CHORD",
              "bassOn": false,
              "noteLowLimit": 48,
              "noteHighLimit": 84,
              "chordRootUpperLimit": 127,
              "rtr": "NOTE_GENERATOR"
            }
          },
          "notes": [
            {
              "pitch": 55,
              "velocity": 72,
              "position": 0.091667,
              "duration": 1.183333
            },
            {
              "pitch": 59,
              "velocity": 67,
              "position": 0.091667,
              "duration": 1.433333
            },
            {
              "pitch": 64,
              "velocity": 69,
              "position": 0.133333,
              "duration": 1.375
            },
            {
              "pitch": 55,
              "velocity": 64,
              "position": 1.525,
              "duration": 0.466667
            },
            {
              "pitch": 55,
              "velocity": 81,
              "position": 2.041667,
              "duration": 0.741667
            },
            {
              "pitch": 64,
              "velocity": 71,
              "position": 2.041667,
              "duration": 0.975
            },
            {
              "pitch": 55,
              "velocity": 65,
              "position": 3.025,
              "duration": 0.816667
            },
            {
              "pitch": 59,
              "velocity": 71,
              "position": 3.025,
              "duration": 0.816667
            },
            {
              "pitch": 52,
              "velocity": 71,
              "position": 3.533333,
              "duration": 0.383333
            },
            {
              "pitch": 48,
              "velocity": 63,
              "position": 3.925,
              "duration": 1.916667
            },
            {
              "pitch": 55,
              "velocity": 80,
              "position": 3.983333,
              "duration": 1.508333
            },
            {
              "pitch": 59,
              "velocity": 72,
              "position": 4.091667,
              "duration": 1.416667
            },
            {
              "pitch": 64,
              "velocity": 59,
              "position": 4.116667,
              "duration": 1.391667
            },
            {
              "pitch": 52,
              "velocity": 72,
              "position": 5.525,
              "duration": 0.316667
            },
            {
              "pitch": 52,
              "velocity": 61,
              "position": 5.925,
              "duration": 1.516667
            },
            {
              "pitch": 55,
              "velocity": 82,
              "position": 5.975,
              "duration": 1.508333
            },
            {
              "pitch": 59,
              "velocity": 79,
              "position": 6.091667,
              "duration": 1.866667
            },
            {
              "pitch": 64,
              "velocity": 77,
              "position": 6.116667,
              "duration": 1.841667
            },
            {
              "pitch": 55,
              "velocity": 58,
              "position": 7.5,
              "duration": 0.458333
            },
            {
              "pitch": 64,
              "velocity": 66,
              "position": 8.008333,
              "duration": 6.783333
            },
            {
              "pitch": 55,
              "velocity": 50,
              "position": 8.066667,
              "duration": 2.383333
            },
            {
              "pitch": 59,
              "velocity": 63,
              "position": 8.066667,
              "duration": 2.133333
            },
            {
              "pitch": 48,
              "velocity": 56,
              "position": 8.075,
              "duration": 5.025
            },
            {
              "pitch": 55,
              "velocity": 86,
              "position": 10.5,
              "duration": 4.7
            },
            {
              "pitch": 59,
              "velocity": 75,
              "position": 11.008333,
              "duration": 3.658333
            },
            {
              "pitch": 52,
              "velocity": 80,
              "position": 11.5,
              "duration": 2.583333
            },
            {
              "pitch": 52,
              "velocity": 76,
              "position": 14.5,
              "duration": 1.375
            },
            {
              "pitch": 55,
              "velocity": 80,
              "position": 15.508333,
              "duration": 0.466667
            }
          ]
        },
        "12": {
          "ctab": {
            "srcChannel": 12,
            "name": "Guitar",
            "accType": "CHORD2",
            "editable": true,
            "mutedNotes": [],
            "mutedChords": [],
            "sourceChordNote": 0,
            "sourceChordType": "Maj7",
            "ctb2Main": {
              "ntr": "ROOT_FIXED",
              "ntt": "CHORD",
              "bassOn": false,
              "noteLowLimit": 40,
              "noteHighLimit": 76,
              "chordRootUpperLimit": 127,
              "rtr": "NOTE_GENERATOR"
            }
          },
          "notes": [
            {
              "pitch": 48,
              "velocity": 62,
              "position": 0.016667,
              "duration": 1.616667
            },
            {
              "pitch": 52,
              "velocity": 64,
              "position": 0.516667,
              "duration": 0.491667
            },
            {
              "pitch": 55,
              "velocity": 56,
              "position": 1.016667,
              "duration": 0.925
            },
            {
              "pitch": 59,
              "velocity": 80,
              "position": 1.016667,
              "duration": 0.941667
            },
            {
              "pitch": 52,
              "velocity": 66,
              "position": 1.508333,
              "duration": 0.416667
            },
            {
              "pitch": 48,
              "velocity": 69,
              "position": 2.0,
              "duration": 1.783333
            },
            {
              "pitch": 59,
              "velocity": 61,
              "position": 2.033333,
              "duration": 1.766667
            },
            {
              "pitch": 52,
              "velocity": 64,
              "position": 2.5,
              "duration": 0.733333
            },
            {
              "pitch": 55,
              "velocity": 74,
              "position": 3.0,
              "duration": 0.775
            },
            {
              "pitch": 52,
              "velocity": 61,
              "position": 3.5,
              "duration": 0.4
            },
            {
              "pitch": 48,
              "velocity": 62,
              "position": 4.0,
              "duration": 1.933333
            },
            {
              "pitch": 64,
              "velocity": 76,
              "position": 4.033333,
              "duration": 1.85
            },
            {
              "pitch": 52,
              "velocity": 63,
              "position": 4.5,
              "duration": 1.408333
            },
            {
              "pitch": 59,
              "velocity": 60,
              "position": 5.0,
              "duration": 0.925
            },
            {
              "pitch": 55,
              "velocity": 71,
              "position": 5.525,
              "duration": 0.416667
            },
            {
              "pitch": 48,
              "velocity": 62,
              "position": 6.016667,
              "duration": 1.616667
            },
            {
              "pitch": 52,
              "velocity": 64,
              "position": 6.516667,
              "duration": 0.491667
            },
            {
              "pitch": 55,
              "velocity": 56,
              "position": 7.016667,
              "duration": 0.925
            },
            {
              "pitch": 59,
              "velocity": 80,
              "position": 7.016667,
              "duration": 0.941667
            },
            {
              "pitch": 52,
              "velocity": 66,
              "position": 7.508333,
              "duration": 0.416667
            },
            {
              "pitch": 48,
              "velocity": 61,
              "position": 8.0,
              "duration": 3.525
            },
            {
              "pitch": 52,
              "velocity": 62,
              "position": 8.5,
              "duration": 0.758333
            },
            {
              "pitch": 55,
              "velocity": 59,
              "position": 9.0,
              "duration": 1.616667
            },
            {
              "pitch": 52,
              "velocity": 64,
              "position": 9.5,
              "duration": 0.558333
            },
            {
              "pitch": 59,
              "velocity": 83,
              "position": 9.983333,
              "duration": 0.583333
            },
            {
              "pitch": 52,
              "velocity": 70,
              "position": 10.508333,
              "duration": 0.583333
            },
            {
              "pitch": 55,
              "velocity": 76,
              "position": 11.0,
              "duration": 0.366667
            },
            {
              "pitch": 52,
              "velocity": 66,
              "position": 11.5,
              "duration": 0.325
            },
            {
              "pitch": 48,
              "velocity": 51,
              "position": 12.0,
              "duration": 0.5
            },
            {
              "pitch": 52,
              "velocity": 56,
              "position": 12.5,
              "duration": 0.291667
            },
            {
              "pitch": 59,
              "velocity": 73,
              "position": 13.0,
              "duration": 0.341667
            },
            {
              "pitch": 52,
              "velocity": 66,
              "position": 13.5,
              "duration": 0.216667
            },
            {
              "pitch": 55,
              "velocity": 70,
              "position": 14.0,
              "duration": 0.491667
            },
            {
              "pitch": 64,
              "velocity": 63,
              "position": 14.0,
              "duration": 0.341667
            },
            {
              "pitch": 52,
              "velocity": 65,
              "position": 14.5,
              "duration": 0.266667
            },
            {
              "pitch": 59,
              "velocity": 70,
              "position": 15.0,
              "duration": 0.383333
            },
            {
              "pitch": 52,
              "velocity": 62,
              "position": 15.5,
              "duration": 0.166667
            }
          ]
        },
        "13": {
          "ctab": {
            "srcChannel": 13,
            "name": "Strings",
            "accType": "PAD",
            "editable": true,
            "mutedNotes": [],
            "mutedChords": [],
            "sourceChordNote": 0,
            "sourceChordType": "Maj7",
            "ctb2Main": {
              "ntr": "ROOT_FIXED",
              "ntt": "MELODY",
              "bassOn": false,
              "noteLowLimit": 36,
              "noteHighLimit": 96,
              "chordRootUpperLimit": 127,
              "rtr": "PITCH_SHIFT"
            }
          },
          "notes": []
        }
      }
    },
    "Fill_In_AA": {
      "type": "Fill_In_AA",
      "sizeInBeats": 16,
      "channels": {
        "9": {
          "ctab": {
            "srcChannel": 9,
            "name": "Drums",
            "accType": "RHYTHM",
            "editable": false,
            "mutedNotes": [],
            "mutedChords": [],
            "sourceChordNote": 0,
            "sourceChordType": "Maj",
            "ctb2Main": {
              "ntr": "ROOT_FIXED",
              "ntt": "BYPASS",
              "bassOn": false,
              "noteLowLimit": 20,
              "noteHighLimit": 127,
              "chordRootUpperLimit": 127,
              "rtr": "RETRIGGER"
            }
          },
          "notes": []
        },
        "10": {
          "ctab": {
            "srcChannel": 10,
            "name": "Bass",
            "accType": "BASS",
            "editable": true,
            "mutedNotes": [],
            "mutedChords": [],
            "sourceChordNote": 0,
            "sourceChordType": "Maj7",
            "ctb2Main": {
              "ntr": "ROOT_TRANSPOSITION",
              "ntt": "BYPASS",
              "bassOn": true,
              "noteLowLimit": 20,
              "noteHighLimit": 60,
              "chordRootUpperLimit": 127,
              "rtr": "NOTE_GENERATOR"
            }
          },
          "notes": []
        },
        "11": {
          "ctab": {
            "srcChannel": 11,
            "name": "Piano",
            "accType": "CHORD1",
            "editable": true,
            "mutedNotes": [],
            "mutedChords": [],
            "sourceChordNote": 0,
            "sourceChordType": "Maj7",
            "ctb2Main": {
              "ntr": "ROOT_FIXED",
              "ntt": "CHORD",
              "bassOn": false,
              "noteLowLimit": 48,
              "noteHighLimit": 84,
              "chordRootUpperLimit": 127,
              "rtr": "NOTE_GENERATOR"
            }
          },
          "notes": [
            {
              "pitch": 64,
              "velocity": 70,
              "position": 0.016667,
              "duration": 1.733333
            },
            {
              "pitch": 59,
              "velocity": 67,
              "position": 0.033333,
              "duration": 1.016667
            },
            {
              "pitch": 55,
              "velocity": 73,
              "position": 0.066667,
              "duration": 1.35
            },
            {
              "pitch": 48,
              "velocity": 57,
              "position": 0.091667,
              "duration": 1.733333
            },
            {
              "pitch": 52,
              "velocity": 49,
              "position": 0.091667,
              "duration": 0.766667
            },
            {
              "pitch": 52,
              "velocity": 55,
              "position": 1.025,
              "duration": 0.716667
            },
            {
              "pitch": 55,
              "velocity": 65,
              "position": 1.525,
              "duration": 0.383333
            },
            {
              "pitch": 55,
              "velocity": 81,
              "position": 2.041667,
              "duration": 0.741667
            },
            {
              "pitch": 64,
              "velocity": 71,
              "position": 2.041667,
              "duration": 0.975
            },
            {
              "pitch": 55,
              "velocity": 65,
              "position": 3.025,
              "duration": 0.958333
            },
            {
              "pitch": 59,
              "velocity": 71,
              "position": 3.025,
              "duration": 0.908333
            },
            {
              "pitch": 52,
              "velocity": 71,
              "position": 3.533333,
              "duration": 0.383333
            },
            {
              "pitch": 64,
              "velocity": 70,
              "position": 4.016667,
              "duration": 1.733333
            },
            {
              "pitch": 59,
              "velocity": 67,
              "position": 4.033333,
              "duration": 1.016667
            },
            {
              "pitch": 55,
              "velocity": 73,
              "position": 4.066667,
              "duration": 1.35
            },
            {
              "pitch": 48,
              "velocity": 57,
              "position": 4.091667,
              "duration": 1.733333
            },
            {
              "pitch": 52,
              "velocity": 49,
              "position": 4.091667,
              "duration": 0.766667
            },
            {
              "pitch": 52,
              "velocity": 55,
              "position": 5.025,
              "duration": 0.716667
            },
            {
              "pitch": 55,
              "velocity": 65,
              "position": 5.525,
              "duration": 0.383333
            },
            {
              "pitch": 48,
              "velocity": 53,
              "position": 5.925,
              "duration": 1.9
            },
            {
              "pitch": 52,
              "velocity": 68,
              "position": 5.975,
              "duration": 1.816667
            },
            {
              "pitch": 55,
              "velocity": 65,
              "position": 6.091667,
              "duration": 0.925
            },
            {
              "pitch": 59,
              "velocity": 67,
              "position": 6.1,
              "duration": 0.958333
            },
            {
              "pitch": 64,
              "velocity": 44,
              "position": 6.108333,
              "duration": 1.758333
            },
            {
              "pitch": 55,
              "velocity": 60,
              "position": 7.525,
              "duration": 0.308333
            },
            {
              "pitch": 48,
              "velocity": 68,
              "position": 7.916667,
              "duration": 2.566667
            },
            {
              "pitch": 52,
              "velocity": 55,
              "position": 7.983333,
              "duration": 1.616667
            },
            {
              "pitch": 55,
              "velocity": 82,
              "position": 8.091667,
              "duration": 1.308333
            },
            {
              "pitch": 59,
              "velocity": 65,
              "position": 8.125,
              "duration": 0.633333
            },
            {
              "pitch": 64,
              "velocity": 71,
              "position": 8.533333,
              "duration": 3.383333
            },
            {
              "pitch": 59,
              "velocity": 77,
              "position": 9.0,
              "duration": 2.608333
            },
            {
              "pitch": 55,
              "velocity": 55,
              "position": 9.525,
              "duration": 2.308333
            },
            {
              "pitch": 52,
              "velocity": 65,
              "position": 9.966667,
              "duration": 2.05
            },
            {
              "pitch": 55,
              "velocity": 74,
              "position": 12.025,
              "duration": 2.2
            },
            {
              "pitch": 59,
              "velocity": 74,
              "position": 12.491667,
              "duration": 3.491667
            },
            {
              "pitch": 64,
              "velocity": 74,
              "position": 13.533333,
              "duration": 2.416667
            },
            {
              "pitch": 55,
              "velocity": 75,
              "position": 14.5,
              "duration": 1.375
            },
            {
              "pitch": 52,
              "velocity": 79,
              "position": 15.508333,
              "duration": 0.466667
            }
          ]
        },
        "12": {
          "ctab": {
            "srcChannel": 12,
            "name": "Guitar",
            "accType": "CHORD2",
            "editable": true,
            "mutedNotes": [],
            "mutedChords": [],
            "sourceChordNote": 0,
            "sourceChordType": "Maj7",
            "ctb2Main": {
              "ntr": "ROOT_FIXED",
              "ntt": "CHORD",
              "bassOn": false,
              "noteLowLimit": 40,
              "noteHighLimit": 76,
              "chordRootUpperLimit": 127,
              "rtr": "NOTE_GENERATOR"
            }
          },
          "notes": [
            {
              "pitch": 48,
              "velocity": 61,
              "position": 0.008333,
              "duration": 1.866667
            },
            {
              "pitch": 52,
              "velocity": 62,
              "position": 0.508333,
              "duration": 0.491667
            },
            {
              "pitch": 55,
              "velocity": 75,
              "position": 1.008333,
              "duration": 0.541667
            },
            {
              "pitch": 59,
              "velocity": 70,
              "position": 1.008333,
              "duration": 0.658333
            },
            {
              "pitch": 52,
              "velocity": 64,
              "position": 1.5,
              "duration": 0.458333
            },
            {
              "pitch": 48,
              "velocity": 62,
              "position": 2.0,
              "duration": 1.933333
            },
            {
              "pitch": 64,
              "velocity": 76,
              "position": 2.033333,
              "duration": 1.85
            },
            {
              "pitch": 52,
              "velocity": 63,
              "position": 2.5,
              "duration": 1.408333
            },
            {
              "pitch": 59,
              "velocity": 60,
              "position": 3.0,
              "duration": 0.925
            },
            {
              "pitch": 55,
              "velocity": 71,
              "position": 3.525,
              "duration": 0.416667
            },
            {
              "pitch": 48,
              "velocity": 69,
              "position": 4.0,
              "duration": 1.783333
            },
            {
              "pitch": 59,
              "velocity": 61,
              "position": 4.033333,
              "duration": 1.766667
            },
            {
              "pitch": 52,
              "velocity": 64,
              "position": 4.5,
              "duration": 0.733333
            },
            {
              "pitch": 55,
              "velocity": 74,
              "position": 5.0,
              "duration": 0.775
            },
            {
              "pitch": 52,
              "velocity": 61,
              "position": 5.5,
              "duration": 0.4
            },
            {
              "pitch": 52,
              "velocity": 72,
              "position": 6.008333,
              "duration": 1.0
            },
            {
              "pitch": 48,
              "velocity": 52,
              "position": 6.508333,
              "duration": 0.491667
            },
            {
              "pitch": 55,
              "velocity": 75,
              "position": 7.008333,
              "duration": 0.541667
            },
            {
              "pitch": 59,
              "velocity": 70,
              "position": 7.008333,
              "duration": 0.658333
            },
            {
              "pitch": 52,
              "velocity": 64,
              "position": 7.508333,
              "duration": 0.375
            },
            {
              "pitch": 48,
              "velocity": 63,
              "position": 8.0,
              "duration": 3.525
            },
            {
              "pitch": 52,
              "velocity": 65,
              "position": 8.5,
              "duration": 0.758333
            },
            {
              "pitch": 59,
              "velocity": 62,
              "position": 9.0,
              "duration": 1.616667
            },
            {
              "pitch": 52,
              "velocity": 67,
              "position": 9.5,
              "duration": 0.85
            },
            {
              "pitch": 55,
              "velocity": 73,
              "position": 9.525,
              "duration": 1.375
            },
            {
              "pitch": 64,
              "velocity": 78,
              "position": 9.525,
              "duration": 0.991667
            },
            {
              "pitch": 52,
              "velocity": 73,
              "position": 10.508333,
              "duration": 0.208333
            },
            {
              "pitch": 59,
              "velocity": 67,
              "position": 11.0,
              "duration": 0.366667
            },
            {
              "pitch": 52,
              "velocity": 69,
              "position": 11.5,
              "duration": 0.325
            },
            {
              "pitch": 48,
              "velocity": 53,
              "position": 12.0,
              "duration": 0.5
            },
            {
              "pitch": 52,
              "velocity": 59,
              "position": 12.5,
              "duration": 0.291667
            },
            {
              "pitch": 59,
              "velocity": 76,
              "position": 13.0,
              "duration": 0.341667
            },
            {
              "pitch": 52,
              "velocity": 69,
              "position": 13.5,
              "duration": 0.216667
            },
            {
              "pitch": 55,
              "velocity": 73,
              "position": 14.0,
              "duration": 0.491667
            },
            {
              "pitch": 64,
              "velocity": 66,
              "position": 14.0,
              "duration": 0.341667
            },
            {
              "pitch": 52,
              "velocity": 68,
              "position": 14.5,
              "duration": 0.266667
            },
            {
              "pitch": 59,
              "velocity": 73,
              "position": 15.0,
              "duration": 0.383333
            },
            {
              "pitch": 52,
              "velocity": 65,
              "position": 15.5,
              "duration": 0.166667
            }
          ]
        },
        "13": {
          "ctab": {
            "srcChannel": 13,
            "name": "Strings",
            "accType": "PAD",
            "editable": true,
            "mutedNotes": [],
            "mutedChords": [],
            "sourceChordNote": 0,
            "sourceChordType": "Maj7",
            "ctb2Main": {
              "ntr": "ROOT_FIXED",
              "ntt": "MELODY",
              "bassOn": false,
              "noteLowLimit": 36,
              "noteHighLimit": 96,
              "chordRootUpperLimit": 127,
              "rtr": "PITCH_SHIFT"
            }
          },
          "notes": []
        }
      }
    },
    "Ending_A": {
      "type": "Ending_A",
      "sizeInBeats": 16,
      "channels": {
        "9": {
          "ctab": {
            "srcChannel": 9,
            "name": "Drums",
            "accType": "RHYTHM",
            "editable": false,
            "mutedNotes": [],
            "mutedChords": [],
            "sourceChordNote": 0,
            "sourceChordType": "Maj",
            "ctb2Main": {
              "ntr": "ROOT_FIXED",
              "ntt": "BYPASS",
              "bassOn": false,
              "noteLowLimit": 20,
              "noteHighLimit": 127,
              "chordRootUpperLimit": 127,
              "rtr": "RETRIGGER"
            }
          },
          "notes": []
        },
        "10": {
          "ctab": {
            "srcChannel": 10,
            "name": "Bass",
            "accType": "BASS",
            "editable": true,
            "mutedNotes": [],
            "mutedChords": [],
            "sourceChordNote": 0,
            "sourceChordType": "Maj7",
            "ctb2Main": {
              "ntr": "ROOT_TRANSPOSITION",
              "ntt": "BYPASS",
              "bassOn": true,
              "noteLowLimit": 20,
              "noteHighLimit": 60,
              "chordRootUpperLimit": 127,
              "rtr": "NOTE_GENERATOR"
            }
          },
          "notes": []
        },
        "11": {
          "ctab": {
            "srcChannel": 11,
            "name": "Piano",
            "accType": "CHORD1",
            "editable": true,
            "mutedNotes": [],
            "mutedChords": [],
            "sourceChordNote": 0,
            "sourceChordType": "Maj7",
            "ctb2Main": {
              "ntr": "ROOT_FIXED",
              "ntt": "CHORD",
              "bassOn": false,
              "noteLowLimit": 48,
              "noteHighLimit": 84,
              "chordRootUpperLimit": 127,
              "rtr": "NOTE_GENERATOR"
            }
          },
          "notes": [
            {
              "pitch": 55,
              "velocity": 66,
              "position": 0.041667,
              "duration": 1.8
            },
            {
              "pitch": 52,
              "velocity": 66,
              "position": 0.091667,
              "duration": 1.233333
            },
            {
              "pitch": 59,
              "velocity": 47,
              "position": 0.275,
              "duration": 1.566667
            },
            {
              "pitch": 64,
              "velocity": 53,
              "position": 0.533333,
              "duration": 1.308333
            },
            {
              "pitch": 52,
              "velocity": 66,
              "position": 1.525,
              "duration": 0.383333
            },
            {
              "pitch": 48,
              "velocity": 53,
              "position": 1.925,
              "duration": 1.9
            },
            {
              "pitch": 52,
              "velocity": 68,
              "position": 1.975,
              "duration": 1.816667
            },
            {
              "pitch": 55,
              "velocity": 65,
              "position": 2.091667,
              "duration": 0.925
            },
            {
              "pitch": 59,
              "velocity": 67,
              "position": 2.1,
              "duration": 0.958333
            },
            {
              "pitch": 64,
              "velocity": 44,
              "position": 2.108333,
              "duration": 1.758333
            },
            {
              "pitch": 55,
              "velocity": 60,
              "position": 3.525,
              "duration": 0.45
            },
            {
              "pitch": 55,
              "velocity": 66,
              "position": 4.041667,
              "duration": 1.8
            },
            {
              "pitch": 52,
              "velocity": 66,
              "position": 4.091667,
              "duration": 1.233333
            },
            {
              "pitch": 59,
              "velocity": 47,
              "position": 4.275,
              "duration": 1.566667
            },
            {
              "pitch": 64,
              "velocity": 53,
              "position": 4.533333,
              "duration": 1.308333
            },
            {
              "pitch": 52,
              "velocity": 66,
              "position": 5.525,
              "duration": 0.35
            },
            {
              "pitch": 52,
              "velocity": 50,
              "position": 5.925,
              "duration": 1.516667
            },
            {
              "pitch": 55,
              "velocity": 71,
              "position": 5.975,
              "duration": 1.508333
            },
            {
              "pitch": 59,
              "velocity": 68,
              "position": 6.091667,
              "duration": 1.75
            },
            {
              "pitch": 64,
              "velocity": 66,
              "position": 6.116667,
              "duration": 1.725
            },
            {
              "pitch": 55,
              "velocity": 47,
              "position": 7.5,
              "duration": 0.341667
            },
            {
              "pitch": 48,
              "velocity": 62,
              "position": 7.925,
              "duration": 3.991667
            },
            {
              "pitch": 52,
              "velocity": 58,
              "position": 7.991667,
              "duration": 3.05
            },
            {
              "pitch": 59,
              "velocity": 67,
              "position": 8.083333,
              "duration": 2.416667
            },
            {
              "pitch": 55,
              "velocity": 65,
              "position": 8.091667,
              "duration": 2.091667
            },
            {
              "pitch": 64,
              "velocity": 71,
              "position": 8.125,
              "duration": 3.85
            },
            {
              "pitch": 55,
              "velocity": 82,
              "position": 10.5,
              "duration": 1.316667
            },
            {
              "pitch": 59,
              "velocity": 71,
              "position": 11.008333,
              "duration": 0.933333
            },
            {
              "pitch": 52,
              "velocity": 76,
              "position": 11.5,
              "duration": 0.491667
            },
            {
              "pitch": 64,
              "velocity": 59,
              "position": 12.0,
              "duration": 3.5
            },
            {
              "pitch": 48,
              "velocity": 55,
              "position": 12.058333,
              "duration": 3.441667
            },
            {
              "pitch": 55,
              "velocity": 54,
              "position": 12.066667,
              "duration": 2.383333
            },
            {
              "pitch": 59,
              "velocity": 70,
              "position": 12.066667,
              "duration": 3.375
            },
            {
              "pitch": 52,
              "velocity": 73,
              "position": 14.5,
              "duration": 0.866667
            },
            {
              "pitch": 55,
              "velocity": 62,
              "position": 15.008333,
              "duration": 0.491667
            }
          ]
        },
        "12": {
          "ctab": {
            "srcChannel": 12,
            "name": "Guitar",
            "accType": "CHORD2",
            "editable": true,
            "mutedNotes": [],
            "mutedChords": [],
            "sourceChordNote": 0,
            "sourceChordType": "Maj7",
            "ctb2Main": {
              "ntr": "ROOT_FIXED",
              "ntt": "CHORD",
              "bassOn": false,
              "noteLowLimit": 40,
              "noteHighLimit": 76,
              "chordRootUpperLimit": 127,
              "rtr": "NOTE_GENERATOR"
            }
          },
          "notes": [
            {
              "pitch": 48,
              "velocity": 61,
              "position": 0.008333,
              "duration": 1.866667
            },
            {
              "pitch": 52,
              "velocity": 62,
              "position": 0.508333,
              "duration": 0.491667
            },
            {
              "pitch": 55,
              "velocity": 75,
              "position": 1.008333,
              "duration": 0.541667
            },
            {
              "pitch": 59,
              "velocity": 70,
              "position": 1.008333,
              "duration": 0.658333
            },
            {
              "pitch": 52,
              "velocity": 64,
              "position": 1.5,
              "duration": 0.458333
            },
            {
              "pitch": 48,
              "velocity": 61,
              "position": 2.0,
              "duration": 1.933333
            },
            {
              "pitch": 64,
              "velocity": 75,
              "position": 2.033333,
              "duration": 1.85
            },
            {
              "pitch": 52,
              "velocity": 62,
              "position": 2.5,
              "duration": 1.408333
            },
            {
              "pitch": 59,
              "velocity": 59,
              "position": 3.0,
              "duration": 0.925
            },
            {
              "pitch": 55,
              "velocity": 70,
              "position": 3.525,
              "duration": 0.416667
            },
            {
              "pitch": 52,
              "velocity": 72,
              "position": 4.008333,
              "duration": 1.0
            },
            {
              "pitch": 48,
              "velocity": 52,
              "position": 4.508333,
              "duration": 0.491667
            },
            {
              "pitch": 55,
              "velocity": 75,
              "position": 5.008333,
              "duration": 0.541667
            },
            {
              "pitch": 59,
              "velocity": 70,
              "position": 5.008333,
              "duration": 0.658333
            },
            {
              "pitch": 52,
              "velocity": 64,
              "position": 5.508333,
              "duration": 0.375
            },
            {
              "pitch": 52,
              "velocity": 72,
              "position": 6.008333,
              "duration": 1.0
            },
            {
              "pitch": 48,
              "velocity": 52,
              "position": 6.508333,
              "duration": 0.491667
            },
            {
              "pitch": 55,
              "velocity": 75,
              "position": 7.008333,
              "duration": 0.541667
            },
            {
              "pitch": 59,
              "velocity": 70,
              "position": 7.008333,
              "duration": 0.658333
            },
            {
              "pitch": 52,
              "velocity": 64,
              "position": 7.508333,
              "duration": 0.375
            },
            {
              "pitch": 48,
              "velocity": 61,
              "position": 8.008333,
              "duration": 3.775
            },
            {
              "pitch": 52,
              "velocity": 62,
              "position": 8.508333,
              "duration": 0.491667
            },
            {
              "pitch": 55,
              "velocity": 75,
              "position": 9.008333,
              "duration": 0.541667
            },
            {
              "pitch": 59,
              "velocity": 70,
              "position": 9.008333,
              "duration": 0.658333
            },
            {
              "pitch": 52,
              "velocity": 64,
              "position": 9.5,
              "duration": 0.441667
            },
            {
              "pitch": 55,
              "velocity": 79,
              "position": 10.0,
              "duration": 0.525
            },
            {
              "pitch": 64,
              "velocity": 73,
              "position": 10.008333,
              "duration": 0.525
            },
            {
              "pitch": 52,
              "velocity": 70,
              "position": 10.5,
              "duration": 0.208333
            },
            {
              "pitch": 55,
              "velocity": 74,
              "position": 11.008333,
              "duration": 0.366667
            },
            {
              "pitch": 59,
              "velocity": 70,
              "position": 11.041667,
              "duration": 0.458333
            },
            {
              "pitch": 52,
              "velocity": 66,
              "position": 11.508333,
              "duration": 0.325
            },
            {
              "pitch": 48,
              "velocity": 61,
              "position": 12.008333,
              "duration": 3.775
            },
            {
              "pitch": 52,
              "velocity": 62,
              "position": 12.508333,
              "duration": 0.491667
            },
            {
              "pitch": 55,
              "velocity": 75,
              "position": 13.008333,
              "duration": 0.541667
            },
            {
              "pitch": 59,
              "velocity": 70,
              "position": 13.008333,
              "duration": 0.658333
            },
            {
              "pitch": 52,
              "velocity": 64,
              "position": 13.5,
              "duration": 0.441667
            },
            {
              "pitch": 55,
              "velocity": 79,
              "position": 14.0,
              "duration": 0.525
            },
            {
              "pitch": 64,
              "velocity": 73,
              "position": 14.008333,
              "duration": 0.525
            },
            {
              "pitch": 52,
              "velocity": 70,
              "position": 14.5,
              "duration": 0.208333
            },
            {
              "pitch": 55,
              "velocity": 74,
              "position": 15.008333,
              "duration": 0.366667
            },
            {
              "pitch": 59,
              "velocity": 70,
              "position": 15.041667,
              "duration": 0.458333
            },
            {
              "pitch": 52,
              "velocity": 66,
              "position": 15.508333,
              "duration": 0.325
            }
          ]
        },
        "13": {
          "ctab": {
            "srcChannel": 13,
            "name": "Strings",
            "accType": "PAD",
            "editable": true,
            "mutedNotes": [],
            "mutedChords": [],
            "sourceChordNote": 0,
            "sourceChordType": "Maj7",
            "ctb2Main": {
              "ntr": "ROOT_FIXED",
              "ntt": "MELODY",
              "bassOn": false,
              "noteLowLimit": 36,
              "noteHighLimit": 96,
              "chordRootUpperLimit": 127,
              "rtr": "PITCH_SHIFT"
            }
          },
          "notes": []
        }
      }
    }
  }
}