{
  "name": "Gr Dead2 Even 8ths Latin Folk",
  "tempo": 120,
  "timeSignature": "4/4",
  "ticksPerQuarter": 120,
  "sffType": "SFF1",
  "division": "BINARY",
  "channelPrograms": {
    "9": 0,
    "10": 34,
    "11": null,
    "12": 25,
    "13": 105
  },
  "parts": {
    "Intro_A": {
      "type": "Intro_A",
      "sizeInBeats": 24,
      "channels": {
        "9": {
          "ctab": {
            "srcChannel": 9,
            "name": "Drums",
            "accType": "RHYTHM",
            "editable": false,
            "mutedNotes": [],
            "mutedChords": [],
            "sourceChordNote": 0,
            "sourceChordType": "Maj",
            "ctb2Main": {
              "ntr": "ROOT_FIXED",
              "ntt": "BYPASS",
              "bassOn": false,
              "noteLowLimit": 20,
              "noteHighLimit": 127,
              "chordRootUpperLimit": 127,
              "rtr": "RETRIGGER"
            }
          },
          "notes": [
            {
              "pitch": 37,
              "velocity": 84,
              "position": 0.0,
              "duration": 1.0
            },
            {
              "pitch": 37,
              "velocity": 84,
              "position": 2.0,
              "duration": 1.0
            },
            {
              "pitch": 37,
              "velocity": 64,
              "position": 4.0,
              "duration": 1.0
            },
            {
              "pitch": 37,
              "velocity": 84,
              "position": 5.0,
              "duration": 1.0
            },
            {
              "pitch": 37,
              "velocity": 64,
              "position": 6.0,
              "duration": 1.0
            },
            {
              "pitch": 37,
              "velocity": 84,
              "position": 7.0,
              "duration": 1.0
            },
            {
              "pitch": 76,
              "velocity": 80,
              "position": 8.008333,
              "duration": 0.266667
            },
            {
              "pitch": 74,
              "velocity": 80,
              "position": 8.025,
              "duration": 0.266667
            },
            {
              "pitch": 68,
              "velocity": 80,
              "position": 8.05,
              "duration": 0.266667
            },
            {
              "pitch": 62,
              "velocity": 75,
              "position": 8.483333,
              "duration": 0.266667
            },
            {
              "pitch": 62,
              "velocity": 80,
              "position": 8.966667,
              "duration": 0.266667
            },
            {
              "pitch": 68,
              "velocity": 80,
              "position": 9.0,
              "duration": 0.266667
            },
            {
              "pitch": 73,
              "velocity": 53,
              "position": 9.016667,
              "duration": 0.266667
            },
            {
              "pitch": 62,
              "velocity": 80,
              "position": 9.483333,
              "duration": 0.266667
            },
            {
              "pitch": 68,
              "velocity": 67,
              "position": 9.508333,
              "duration": 0.266667
            },
            {
              "pitch": 73,
              "velocity": 80,
              "position": 9.516667,
              "duration": 0.266667
            },
            {
              "pitch": 76,
              "velocity": 80,
              "position": 9.516667,
              "duration": 0.266667
            },
            {
              "pitch": 68,
              "velocity": 80,
              "position": 10.041667,
              "duration": 0.266667
            },
            {
              "pitch": 74,
              "velocity": 80,
              "position": 10.05,
              "duration": 0.266667
            },
            {
              "pitch": 62,
              "velocity": 80,
              "position": 10.533333,
              "duration": 0.266667
            },
            {
              "pitch": 73,
              "velocity": 73,
              "position": 10.991667,
              "duration": 0.266667
            },
            {
              "pitch": 76,
              "velocity": 80,
              "position": 11.0,
              "duration": 0.266667
            },
            {
              "pitch": 63,
              "velocity": 80,
              "position": 11.025,
              "duration": 0.266667
            },
            {
              "pitch": 68,
              "velocity": 74,
              "position": 11.041667,
              "duration": 0.266667
            },
            {
              "pitch": 73,
              "velocity": 80,
              "position": 11.483333,
              "duration": 0.266667
            },
            {
              "pitch": 63,
              "velocity": 80,
              "position": 11.516667,
              "duration": 0.266667
            },
            {
              "pitch": 68,
              "velocity": 74,
              "position": 11.55,
              "duration": 0.266667
            },
            {
              "pitch": 68,
              "velocity": 80,
              "position": 12.033333,
              "duration": 0.266667
            },
            {
              "pitch": 74,
              "velocity": 80,
              "position": 12.05,
              "duration": 0.266667
            },
            {
              "pitch": 62,
              "velocity": 73,
              "position": 12.516667,
              "duration": 0.266667
            },
            {
              "pitch": 76,
              "velocity": 75,
              "position": 13.0,
              "duration": 0.266667
            },
            {
              "pitch": 62,
              "velocity": 80,
              "position": 13.008333,
              "duration": 0.266667
            },
            {
              "pitch": 73,
              "velocity": 30,
              "position": 13.008333,
              "duration": 0.266667
            },
            {
              "pitch": 68,
              "velocity": 80,
              "position": 13.016667,
              "duration": 0.266667
            },
            {
              "pitch": 68,
              "velocity": 67,
              "position": 13.516667,
              "duration": 0.266667
            },
            {
              "pitch": 73,
              "velocity": 41,
              "position": 13.516667,
              "duration": 0.266667
            },
            {
              "pitch": 64,
              "velocity": 75,
              "position": 13.541667,
              "duration": 0.266667
            },
            {
              "pitch": 68,
              "velocity": 80,
              "position": 14.016667,
              "duration": 0.266667
            },
            {
              "pitch": 76,
              "velocity": 80,
              "position": 14.016667,
              "duration": 0.266667
            },
            {
              "pitch": 64,
              "velocity": 80,
              "position": 14.05,
              "duration": 0.266667
            },
            {
              "pitch": 74,
              "velocity": 80,
              "position": 14.058333,
              "duration": 0.266667
            },
            {
              "pitch": 62,
              "velocity": 63,
              "position": 14.525,
              "duration": 0.266667
            },
            {
              "pitch": 63,
              "velocity": 80,
              "position": 15.025,
              "duration": 0.266667
            },
            {
              "pitch": 68,
              "velocity": 80,
              "position": 15.033333,
              "duration": 0.266667
            },
            {
              "pitch": 73,
              "velocity": 57,
              "position": 15.05,
              "duration": 0.266667
            },
            {
              "pitch": 68,
              "velocity": 30,
              "position": 15.525,
              "duration": 0.266667
            },
            {
              "pitch": 73,
              "velocity": 43,
              "position": 15.525,
              "duration": 0.266667
            },
            {
              "pitch": 63,
              "velocity": 80,
              "position": 15.55,
              "duration": 0.266667
            },
            {
              "pitch": 65,
              "velocity": 80,
              "position": 16.0,
              "duration": 0.266667
            },
            {
              "pitch": 74,
              "velocity": 80,
              "position": 16.0,
              "duration": 0.266667
            },
            {
              "pitch": 76,
              "velocity": 80,
              "position": 16.0,
              "duration": 0.266667
            },
            {
              "pitch": 73,
              "velocity": 47,
              "position": 16.975,
              "duration": 0.266667
            },
            {
              "pitch": 68,
              "velocity": 80,
              "position": 16.983333,
              "duration": 0.266667
            },
            {
              "pitch": 62,
              "velocity": 80,
              "position": 17.0,
              "duration": 0.266667
            },
            {
              "pitch": 73,
              "velocity": 30,
              "position": 17.491667,
              "duration": 0.266667
            },
            {
              "pitch": 76,
              "velocity": 80,
              "position": 17.525,
              "duration": 0.266667
            },
            {
              "pitch": 68,
              "velocity": 80,
              "position": 18.008333,
              "duration": 0.266667
            },
            {
              "pitch": 74,
              "velocity": 80,
              "position": 18.025,
              "duration": 0.266667
            },
            {
              "pitch": 62,
              "velocity": 80,
              "position": 18.483333,
              "duration": 0.266667
            },
            {
              "pitch": 63,
              "velocity": 72,
              "position": 18.958333,
              "duration": 0.266667
            },
            {
              "pitch": 76,
              "velocity": 80,
              "position": 18.991667,
              "duration": 0.266667
            },
            {
              "pitch": 68,
              "velocity": 80,
              "position": 19.025,
              "duration": 0.266667
            },
            {
              "pitch": 73,
              "velocity": 67,
              "position": 19.041667,
              "duration": 0.266667
            },
            {
              "pitch": 63,
              "velocity": 80,
              "position": 19.491667,
              "duration": 0.266667
            },
            {
              "pitch": 73,
              "velocity": 45,
              "position": 19.533333,
              "duration": 0.266667
            },
            {
              "pitch": 68,
              "velocity": 80,
              "position": 20.025,
              "duration": 0.266667
            },
            {
              "pitch": 74,
              "velocity": 80,
              "position": 20.05,
              "duration": 0.266667
            },
            {
              "pitch": 62,
              "velocity": 80,
              "position": 20.466667,
              "duration": 0.266667
            },
            {
              "pitch": 65,
              "velocity": 80,
              "position": 20.483333,
              "duration": 0.266667
            },
            {
              "pitch": 68,
              "velocity": 80,
              "position": 20.975,
              "duration": 0.266667
            },
            {
              "pitch": 62,
              "velocity": 80,
              "position": 20.983333,
              "duration": 0.266667
            },
            {
              "pitch": 73,
              "velocity": 80,
              "position": 20.983333,
              "duration": 0.266667
            },
            {
              "pitch": 76,
              "velocity": 80,
              "position": 21.008333,
              "duration": 0.266667
            },
            {
              "pitch": 73,
              "velocity": 53,
              "position": 21.483333,
              "duration": 0.266667
            },
            {
              "pitch": 64,
              "velocity": 80,
              "position": 21.491667,
              "duration": 0.266667
            },
            {
              "pitch": 74,
              "velocity": 80,
              "position": 22.0,
              "duration": 0.266667
            },
            {
              "pitch": 64,
              "velocity": 71,
              "position": 22.008333,
              "duration": 0.266667
            },
            {
              "pitch": 76,
              "velocity": 80,
              "position": 22.008333,
              "duration": 0.266667
            },
            {
              "pitch": 68,
              "velocity": 80,
              "position": 22.033333,
              "duration": 0.266667
            },
            {
              "pitch": 66,
              "velocity": 80,
              "position": 22.475,
              "duration": 0.266667
            },
            {
              "pitch": 63,
              "velocity": 80,
              "position": 22.5,
              "duration": 0.266667
            },
            {
              "pitch": 73,
              "velocity": 59,
              "position": 22.983333,
              "duration": 0.266667
            },
            {
              "pitch": 66,
              "velocity": 80,
              "position": 22.991667,
              "duration": 0.266667
            },
            {
              "pitch": 64,
              "velocity": 75,
              "position": 23.0,
              "duration": 0.266667
            },
            {
              "pitch": 68,
              "velocity": 80,
              "position": 23.025,
              "duration": 0.266667
            },
            {
              "pitch": 73,
              "velocity": 57,
              "position": 23.475,
              "duration": 0.291667
            },
            {
              "pitch": 65,
              "velocity": 80,
              "position": 23.491667,
              "duration": 0.275
            },
            {
              "pitch": 64,
              "velocity": 80,
              "position": 23.516667,
              "duration": 0.25
            },
            {
              "pitch": 62,
              "velocity": 65,
              "position": 23.766667,
              "duration": 0.233333
            }
          ]
        },
        "10": {
          "ctab": {
            "srcChannel": 10,
            "name": "Bass",
            "accType": "BASS",
            "editable": true,
            "mutedNotes": [],
            "mutedChords": [],
            "sourceChordNote": 0,
            "sourceChordType": "Maj7",
            "ctb2Main": {
              "ntr": "ROOT_TRANSPOSITION",
              "ntt": "BYPASS",
              "bassOn": true,
              "noteLowLimit": 20,
              "noteHighLimit": 60,
              "chordRootUpperLimit": 127,
              "rtr": "NOTE_GENERATOR"
            }
          },
          "notes": [
            {
              "pitch": 36,
              "velocity": 75,
              "position": 8.0,
              "duration": 1.058333
            },
            {
              "pitch": 31,
              "velocity": 75,
              "position": 9.5,
              "duration": 0.458333
            },
            {
              "pitch": 36,
              "velocity": 75,
              "position": 10.0,
              "duration": 1.058333
            },
            {
              "pitch": 31,
              "velocity": 75,
              "position": 11.5,
              "duration": 0.458333
            },
            {
              "pitch": 36,
              "velocity": 75,
              "position": 12.0,
              "duration": 1.058333
            },
            {
              "pitch": 31,
              "velocity": 75,
              "position": 13.5,
              "duration": 0.458333
            },
            {
              "pitch": 36,
              "velocity": 75,
              "position": 14.0,
              "duration": 1.058333
            },
            {
              "pitch": 31,
              "velocity": 75,
              "position": 15.5,
              "duration": 0.458333
            },
            {
              "pitch": 36,
              "velocity": 76,
              "position": 16.0,
              "duration": 1.058333
            },
            {
              "pitch": 36,
              "velocity": 76,
              "position": 17.5,
              "duration": 0.475
            },
            {
              "pitch": 36,
              "velocity": 76,
              "position": 18.0,
              "duration": 0.925
            },
            {
              "pitch": 36,
              "velocity": 76,
              "position": 19.5,
              "duration": 0.375
            },
            {
              "pitch": 36,
              "velocity": 76,
              "position": 20.0,
              "duration": 1.133333
            },
            {
              "pitch": 36,
              "velocity": 69,
              "position": 21.5,
              "duration": 0.325
            },
            {
              "pitch": 36,
              "velocity": 77,
              "position": 22.0,
              "duration": 0.991667
            },
            {
              "pitch": 43,
              "velocity": 76,
              "position": 23.0,
              "duration": 0.508333
            },
            {
              "pitch": 31,
              "velocity": 76,
              "position": 23.5,
              "duration": 0.408333
            }
          ]
        },
        "11": {
          "ctab": {
            "srcChannel": 11,
            "name": "Piano",
            "accType": "CHORD1",
            "editable": true,
            "mutedNotes": [],
            "mutedChords": [],
            "sourceChordNote": 0,
            "sourceChordType": "Maj7",
            "ctb2Main": {
              "ntr": "ROOT_FIXED",
              "ntt": "CHORD",
              "bassOn": false,
              "noteLowLimit": 48,
              "noteHighLimit": 84,
              "chordRootUpperLimit": 127,
              "rtr": "NOTE_GENERATOR"
            }
          },
          "notes": []
        },
        "12": {
          "ctab": {
            "srcChannel": 12,
            "name": "Guitar",
            "accType": "CHORD2",
            "editable": true,
            "mutedNotes": [],
            "mutedChords": [],
            "sourceChordNote": 0,
            "sourceChordType": "Maj7",
            "ctb2Main": {
              "ntr": "ROOT_FIXED",
              "ntt": "CHORD",
              "bassOn": false,
              "noteLowLimit": 40,
              "noteHighLimit": 76,
              "chordRootUpperLimit": 127,
              "rtr": "NOTE_GENERATOR"
            }
          },
          "notes": [
            {
              "pitch": 48,
              "velocity": 49,
              "position": 8.0,
              "duration": 1.491667
            },
            {
              "pitch": 55,
              "velocity": 64,
              "position": 8.016667,
              "duration": 1.433333
            },
            {
              "pitch": 60,
              "velocity": 80,
              "position": 8.033333,
              "duration": 1.383333
            },
            {
              "pitch": 64,
              "velocity": 80,
              "position": 8.05,
              "duration": 1.341667
            },
            {
              "pitch": 67,
              "velocity": 80,
              "position": 8.066667,
              "duration": 1.258333
            },
            {
              "pitch": 71,
              "velocity": 80,
              "position": 8.083333,
              "duration": 1.216667
            },
            {
              "pitch": 71,
              "velocity": 80,
              "position": 9.508333,
              "duration": 0.441667
            },
            {
              "pitch": 67,
              "velocity": 80,
              "position": 9.533333,
              "duration": 0.458333
            },
            {
              "pitch": 64,
              "velocity": 80,
              "position": 9.566667,
              "duration": 0.391667
            },
            {
              "pitch": 60,
              "velocity": 80,
              "position": 9.6,
              "duration": 0.375
            },
            {
              "pitch": 55,
              "velocity": 80,
              "position": 9.641667,
              "duration": 0.316667
            },
            {
              "pitch": 48,
              "velocity": 42,
              "position": 9.691667,
              "duration": 0.25
            },
            {
              "pitch": 48,
              "velocity": 79,
              "position": 10.091667,
              "duration": 1.908333
            },
            {
              "pitch": 55,
              "velocity": 71,
              "position": 10.108333,
              "duration": 1.416667
            },
            {
              "pitch": 60,
              "velocity": 64,
              "position": 10.125,
              "duration": 0.483333
            },
            {
              "pitch": 64,
              "velocity": 63,
              "position": 10.133333,
              "duration": 0.45
            },
            {
              "pitch": 67,
              "velocity": 58,
              "position": 10.141667,
              "duration": 0.433333
            },
            {
              "pitch": 71,
              "velocity": 61,
              "position": 10.15,
              "duration": 0.383333
            },
            {
              "pitch": 71,
              "velocity": 80,
              "position": 10.625,
              "duration": 0.841667
            },
            {
              "pitch": 67,
              "velocity": 80,
              "position": 10.65,
              "duration": 0.816667
            },
            {
              "pitch": 64,
              "velocity": 80,
              "position": 10.666667,
              "duration": 0.8
            },
            {
              "pitch": 60,
              "velocity": 80,
              "position": 10.683333,
              "duration": 0.875
            },
            {
              "pitch": 71,
              "velocity": 80,
              "position": 11.55,
              "duration": 0.45
            },
            {
              "pitch": 67,
              "velocity": 80,
              "position": 11.583333,
              "duration": 0.408333
            },
            {
              "pitch": 64,
              "velocity": 80,
              "position": 11.616667,
              "duration": 0.358333
            },
            {
              "pitch": 60,
              "velocity": 80,
              "position": 11.65,
              "duration": 0.308333
            },
            {
              "pitch": 55,
              "velocity": 49,
              "position": 11.683333,
              "duration": 0.266667
            },
            {
              "pitch": 48,
              "velocity": 76,
              "position": 12.033333,
              "duration": 1.966667
            },
            {
              "pitch": 60,
              "velocity": 80,
              "position": 12.05,
              "duration": 0.55
            },
            {
              "pitch": 64,
              "velocity": 80,
              "position": 12.066667,
              "duration": 0.491667
            },
            {
              "pitch": 67,
              "velocity": 80,
              "position": 12.075,
              "duration": 0.491667
            },
            {
              "pitch": 71,
              "velocity": 80,
              "position": 12.591667,
              "duration": 0.858333
            },
            {
              "pitch": 67,
              "velocity": 80,
              "position": 12.608333,
              "duration": 0.883333
            },
            {
              "pitch": 64,
              "velocity": 80,
              "position": 12.633333,
              "duration": 0.866667
            },
            {
              "pitch": 60,
              "velocity": 79,
              "position": 12.65,
              "duration": 0.883333
            },
            {
              "pitch": 71,
              "velocity": 80,
              "position": 13.575,
              "duration": 0.425
            },
            {
              "pitch": 67,
              "velocity": 80,
              "position": 13.608333,
              "duration": 0.391667
            },
            {
              "pitch": 64,
              "velocity": 80,
              "position": 13.641667,
              "duration": 0.358333
            },
            {
              "pitch": 60,
              "velocity": 77,
              "position": 13.666667,
              "duration": 0.333333
            },
            {
              "pitch": 48,
              "velocity": 79,
              "position": 14.091667,
              "duration": 1.908333
            },
            {
              "pitch": 55,
              "velocity": 71,
              "position": 14.108333,
              "duration": 1.416667
            },
            {
              "pitch": 60,
              "velocity": 64,
              "position": 14.125,
              "duration": 0.483333
            },
            {
              "pitch": 64,
              "velocity": 63,
              "position": 14.133333,
              "duration": 0.45
            },
            {
              "pitch": 67,
              "velocity": 58,
              "position": 14.141667,
              "duration": 0.433333
            },
            {
              "pitch": 71,
              "velocity": 61,
              "position": 14.15,
              "duration": 0.383333
            },
            {
              "pitch": 71,
              "velocity": 80,
              "position": 14.625,
              "duration": 0.841667
            },
            {
              "pitch": 67,
              "velocity": 80,
              "position": 14.65,
              "duration": 0.816667
            },
            {
              "pitch": 64,
              "velocity": 80,
              "position": 14.666667,
              "duration": 0.8
            },
            {
              "pitch": 60,
              "velocity": 80,
              "position": 14.683333,
              "duration": 0.875
            },
            {
              "pitch": 71,
              "velocity": 80,
              "position": 15.55,
              "duration": 0.45
            },
            {
              "pitch": 67,
              "velocity": 80,
              "position": 15.583333,
              "duration": 0.408333
            },
            {
              "pitch": 64,
              "velocity": 80,
              "position": 15.616667,
              "duration": 0.358333
            },
            {
              "pitch": 60,
              "velocity": 80,
              "position": 15.65,
              "duration": 0.308333
            },
            {
              "pitch": 55,
              "velocity": 49,
              "position": 15.683333,
              "duration": 0.266667
            },
            {
              "pitch": 48,
              "velocity": 79,
              "position": 16.091667,
              "duration": 3.475
            },
            {
              "pitch": 55,
              "velocity": 71,
              "position": 16.108333,
              "duration": 1.416667
            },
            {
              "pitch": 60,
              "velocity": 64,
              "position": 16.125,
              "duration": 0.483333
            },
            {
              "pitch": 64,
              "velocity": 63,
              "position": 16.133333,
              "duration": 0.45
            },
            {
              "pitch": 67,
              "velocity": 58,
              "position": 16.141667,
              "duration": 0.433333
            },
            {
              "pitch": 71,
              "velocity": 61,
              "position": 16.15,
              "duration": 0.383333
            },
            {
              "pitch": 71,
              "velocity": 80,
              "position": 16.625,
              "duration": 0.841667
            },
            {
              "pitch": 67,
              "velocity": 80,
              "position": 16.65,
              "duration": 0.816667
            },
            {
              "pitch": 64,
              "velocity": 80,
              "position": 16.666667,
              "duration": 0.8
            },
            {
              "pitch": 60,
              "velocity": 80,
              "position": 16.683333,
              "duration": 0.875
            },
            {
              "pitch": 71,
              "velocity": 80,
              "position": 17.55,
              "duration": 0.458333
            },
            {
              "pitch": 67,
              "velocity": 80,
              "position": 17.583333,
              "duration": 0.408333
            },
            {
              "pitch": 64,
              "velocity": 80,
              "position": 17.616667,
              "duration": 0.358333
            },
            {
              "pitch": 60,
              "velocity": 80,
              "position": 17.65,
              "duration": 0.308333
            },
            {
              "pitch": 55,
              "velocity": 49,
              "position": 17.683333,
              "duration": 0.266667
            },
            {
              "pitch": 55,
              "velocity": 80,
              "position": 18.041667,
              "duration": 1.316667
            },
            {
              "pitch": 60,
              "velocity": 80,
              "position": 18.066667,
              "duration": 1.275
            },
            {
              "pitch": 64,
              "velocity": 80,
              "position": 18.075,
              "duration": 1.133333
            },
            {
              "pitch": 67,
              "velocity": 80,
              "position": 18.091667,
              "duration": 1.108333
            },
            {
              "pitch": 71,
              "velocity": 80,
              "position": 18.1,
              "duration": 1.091667
            },
            {
              "pitch": 67,
              "velocity": 80,
              "position": 19.508333,
              "duration": 0.408333
            },
            {
              "pitch": 71,
              "velocity": 80,
              "position": 19.533333,
              "duration": 0.466667
            },
            {
              "pitch": 64,
              "velocity": 80,
              "position": 19.55,
              "duration": 0.358333
            },
            {
              "pitch": 60,
              "velocity": 80,
              "position": 19.583333,
              "duration": 0.308333
            },
            {
              "pitch": 55,
              "velocity": 46,
              "position": 19.616667,
              "duration": 0.258333
            },
            {
              "pitch": 48,
              "velocity": 58,
              "position": 19.933333,
              "duration": 3.608333
            },
            {
              "pitch": 55,
              "velocity": 71,
              "position": 19.983333,
              "duration": 2.691667
            },
            {
              "pitch": 60,
              "velocity": 80,
              "position": 20.0,
              "duration": 1.483333
            },
            {
              "pitch": 64,
              "velocity": 80,
              "position": 20.016667,
              "duration": 1.441667
            },
            {
              "pitch": 67,
              "velocity": 80,
              "position": 20.025,
              "duration": 1.316667
            },
            {
              "pitch": 71,
              "velocity": 80,
              "position": 20.041667,
              "duration": 1.3
            },
            {
              "pitch": 71,
              "velocity": 80,
              "position": 21.566667,
              "duration": 0.875
            },
            {
              "pitch": 67,
              "velocity": 80,
              "position": 21.6,
              "duration": 0.833333
            },
            {
              "pitch": 64,
              "velocity": 80,
              "position": 21.641667,
              "duration": 0.858333
            },
            {
              "pitch": 60,
              "velocity": 68,
              "position": 21.683333,
              "duration": 0.875
            },
            {
              "pitch": 71,
              "velocity": 80,
              "position": 22.566667,
              "duration": 0.858333
            },
            {
              "pitch": 67,
              "velocity": 80,
              "position": 22.608333,
              "duration": 0.416667
            },
            {
              "pitch": 64,
              "velocity": 74,
              "position": 22.65,
              "duration": 0.35
            },
            {
              "pitch": 60,
              "velocity": 56,
              "position": 22.675,
              "duration": 0.3
            },
            {
              "pitch": 55,
              "velocity": 49,
              "position": 23.008333,
              "duration": 0.816667
            },
            {
              "pitch": 60,
              "velocity": 76,
              "position": 23.033333,
              "duration": 0.791667
            },
            {
              "pitch": 64,
              "velocity": 80,
              "position": 23.058333,
              "duration": 0.766667
            },
            {
              "pitch": 67,
              "velocity": 64,
              "position": 23.091667,
              "duration": 0.4
            },
            {
              "pitch": 71,
              "velocity": 80,
              "position": 23.566667,
              "duration": 0.258333
            },
            {
              "pitch": 67,
              "velocity": 70,
              "position": 23.591667,
              "duration": 0.233333
            }
          ]
        },
        "13": {
          "ctab": {
            "srcChannel": 13,
            "name": "Strings",
            "accType": "PAD",
            "editable": true,
            "mutedNotes": [],
            "mutedChords": [],
            "sourceChordNote": 0,
            "sourceChordType": "Maj7",
            "ctb2Main": {
              "ntr": "ROOT_FIXED",
              "ntt": "MELODY",
              "bassOn": false,
              "noteLowLimit": 36,
              "noteHighLimit": 96,
              "chordRootUpperLimit": 127,
              "rtr": "PITCH_SHIFT"
            }
          },
          "notes": []
        }
      }
    },
    "Main_A": {
      "type": "Main_A",
      "sizeInBeats": 16,
      "channels": {
        "9": {
          "ctab": {
            "srcChannel": 9,
            "name": "Drums",
            "accType": "RHYTHM",
            "editable": false,
            "mutedNotes": [],
            "mutedChords": [],
            "sourceChordNote": 0,
            "sourceChordType": "Maj",
            "ctb2Main": {
              "ntr": "ROOT_FIXED",
              "ntt": "BYPASS",
              "bassOn": false,
              "noteLowLimit": 20,
              "noteHighLimit": 127,
              "chordRootUpperLimit": 127,
              "rtr": "RETRIGGER"
            }
          },
          "notes": [
            {
              "pitch": 74,
              "velocity": 90,
              "position": 0.0,
              "duration": 0.266667
            },
            {
              "pitch": 76,
              "velocity": 86,
              "position": 0.0,
              "duration": 0.266667
            },
            {
              "pitch": 56,
              "velocity": 90,
              "position": 0.008333,
              "duration": 0.266667
            },
            {
              "pitch": 49,
              "velocity": 56,
              "position": 0.016667,
              "duration": 0.95
            },
            {
              "pitch": 65,
              "velocity": 90,
              "position": 0.016667,
              "duration": 0.266667
            },
            {
              "pitch": 68,
              "velocity": 90,
              "position": 0.025,
              "duration": 0.266667
            },
            {
              "pitch": 63,
              "velocity": 90,
              "position": 0.05,
              "duration": 0.266667
            },
            {
              "pitch": 73,
              "velocity": 47,
              "position": 0.975,
              "duration": 0.266667
            },
            {
              "pitch": 62,
              "velocity": 90,
              "position": 1.008333,
              "duration": 0.266667
            },
            {
              "pitch": 68,
              "velocity": 90,
              "position": 1.025,
              "duration": 0.266667
            },
            {
              "pitch": 80,
              "velocity": 90,
              "position": 1.075,
              "duration": 0.266667
            },
            {
              "pitch": 73,
              "velocity": 30,
              "position": 1.491667,
              "duration": 0.266667
            },
            {
              "pitch": 62,
              "velocity": 61,
              "position": 1.525,
              "duration": 0.266667
            },
            {
              "pitch": 76,
              "velocity": 86,
              "position": 1.525,
              "duration": 0.266667
            },
            {
              "pitch": 56,
              "velocity": 90,
              "position": 2.016667,
              "duration": 0.266667
            },
            {
              "pitch": 74,
              "velocity": 90,
              "position": 2.025,
              "duration": 0.266667
            },
            {
              "pitch": 68,
              "velocity": 90,
              "position": 2.033333,
              "duration": 0.266667
            },
            {
              "pitch": 62,
              "velocity": 65,
              "position": 2.508333,
              "duration": 0.266667
            },
            {
              "pitch": 76,
              "velocity": 86,
              "position": 2.991667,
              "duration": 0.266667
            },
            {
              "pitch": 80,
              "velocity": 90,
              "position": 2.991667,
              "duration": 0.266667
            },
            {
              "pitch": 63,
              "velocity": 90,
              "position": 3.0,
              "duration": 0.266667
            },
            {
              "pitch": 68,
              "velocity": 90,
              "position": 3.016667,
              "duration": 0.266667
            },
            {
              "pitch": 73,
              "velocity": 67,
              "position": 3.041667,
              "duration": 0.266667
            },
            {
              "pitch": 63,
              "velocity": 90,
              "position": 3.508333,
              "duration": 0.266667
            },
            {
              "pitch": 80,
              "velocity": 90,
              "position": 3.516667,
              "duration": 0.266667
            },
            {
              "pitch": 73,
              "velocity": 45,
              "position": 3.533333,
              "duration": 0.266667
            },
            {
              "pitch": 56,
              "velocity": 90,
              "position": 4.025,
              "duration": 0.266667
            },
            {
              "pitch": 74,
              "velocity": 90,
              "position": 4.05,
              "duration": 0.266667
            },
            {
              "pitch": 62,
              "velocity": 90,
              "position": 4.491667,
              "duration": 0.266667
            },
            {
              "pitch": 68,
              "velocity": 90,
              "position": 4.541667,
              "duration": 0.266667
            },
            {
              "pitch": 62,
              "velocity": 87,
              "position": 5.0,
              "duration": 0.266667
            },
            {
              "pitch": 76,
              "velocity": 75,
              "position": 5.0,
              "duration": 0.266667
            },
            {
              "pitch": 73,
              "velocity": 30,
              "position": 5.008333,
              "duration": 0.266667
            },
            {
              "pitch": 80,
              "velocity": 86,
              "position": 5.008333,
              "duration": 0.266667
            },
            {
              "pitch": 68,
              "velocity": 90,
              "position": 5.025,
              "duration": 0.266667
            },
            {
              "pitch": 64,
              "velocity": 75,
              "position": 5.516667,
              "duration": 0.266667
            },
            {
              "pitch": 68,
              "velocity": 90,
              "position": 5.516667,
              "duration": 0.266667
            },
            {
              "pitch": 73,
              "velocity": 41,
              "position": 5.516667,
              "duration": 0.266667
            },
            {
              "pitch": 80,
              "velocity": 90,
              "position": 5.541667,
              "duration": 0.266667
            },
            {
              "pitch": 76,
              "velocity": 86,
              "position": 6.016667,
              "duration": 0.266667
            },
            {
              "pitch": 64,
              "velocity": 63,
              "position": 6.025,
              "duration": 0.266667
            },
            {
              "pitch": 68,
              "velocity": 90,
              "position": 6.025,
              "duration": 0.266667
            },
            {
              "pitch": 56,
              "velocity": 90,
              "position": 6.041667,
              "duration": 0.266667
            },
            {
              "pitch": 74,
              "velocity": 90,
              "position": 6.058333,
              "duration": 0.266667
            },
            {
              "pitch": 63,
              "velocity": 90,
              "position": 6.5,
              "duration": 0.266667
            },
            {
              "pitch": 63,
              "velocity": 80,
              "position": 7.0,
              "duration": 0.266667
            },
            {
              "pitch": 68,
              "velocity": 90,
              "position": 7.041667,
              "duration": 0.266667
            },
            {
              "pitch": 80,
              "velocity": 90,
              "position": 7.041667,
              "duration": 0.266667
            },
            {
              "pitch": 73,
              "velocity": 57,
              "position": 7.05,
              "duration": 0.266667
            },
            {
              "pitch": 68,
              "velocity": 60,
              "position": 7.508333,
              "duration": 0.266667
            },
            {
              "pitch": 63,
              "velocity": 90,
              "position": 7.516667,
              "duration": 0.266667
            },
            {
              "pitch": 73,
              "velocity": 43,
              "position": 7.525,
              "duration": 0.266667
            },
            {
              "pitch": 80,
              "velocity": 90,
              "position": 7.55,
              "duration": 0.266667
            },
            {
              "pitch": 74,
              "velocity": 90,
              "position": 8.0,
              "duration": 0.266667
            },
            {
              "pitch": 76,
              "velocity": 86,
              "position": 8.0,
              "duration": 0.266667
            },
            {
              "pitch": 56,
              "velocity": 90,
              "position": 8.008333,
              "duration": 0.266667
            },
            {
              "pitch": 65,
              "velocity": 90,
              "position": 8.016667,
              "duration": 0.266667
            },
            {
              "pitch": 68,
              "velocity": 90,
              "position": 8.025,
              "duration": 0.266667
            },
            {
              "pitch": 63,
              "velocity": 90,
              "position": 8.05,
              "duration": 0.266667
            },
            {
              "pitch": 73,
              "velocity": 47,
              "position": 8.975,
              "duration": 0.266667
            },
            {
              "pitch": 62,
              "velocity": 90,
              "position": 9.008333,
              "duration": 0.266667
            },
            {
              "pitch": 68,
              "velocity": 90,
              "position": 9.025,
              "duration": 0.266667
            },
            {
              "pitch": 80,
              "velocity": 90,
              "position": 9.075,
              "duration": 0.266667
            },
            {
              "pitch": 73,
              "velocity": 30,
              "position": 9.491667,
              "duration": 0.266667
            },
            {
              "pitch": 62,
              "velocity": 61,
              "position": 9.525,
              "duration": 0.266667
            },
            {
              "pitch": 76,
              "velocity": 86,
              "position": 9.525,
              "duration": 0.266667
            },
            {
              "pitch": 56,
              "velocity": 90,
              "position": 10.016667,
              "duration": 0.266667
            },
            {
              "pitch": 74,
              "velocity": 90,
              "position": 10.025,
              "duration": 0.266667
            },
            {
              "pitch": 68,
              "velocity": 90,
              "position": 10.033333,
              "duration": 0.266667
            },
            {
              "pitch": 62,
              "velocity": 65,
              "position": 10.508333,
              "duration": 0.266667
            },
            {
              "pitch": 76,
              "velocity": 86,
              "position": 10.991667,
              "duration": 0.266667
            },
            {
              "pitch": 80,
              "velocity": 90,
              "position": 10.991667,
              "duration": 0.266667
            },
            {
              "pitch": 63,
              "velocity": 90,
              "position": 11.0,
              "duration": 0.266667
            },
            {
              "pitch": 68,
              "velocity": 90,
              "position": 11.016667,
              "duration": 0.266667
            },
            {
              "pitch": 73,
              "velocity": 67,
              "position": 11.041667,
              "duration": 0.266667
            },
            {
              "pitch": 63,
              "velocity": 90,
              "position": 11.508333,
              "duration": 0.266667
            },
            {
              "pitch": 80,
              "velocity": 90,
              "position": 11.516667,
              "duration": 0.266667
            },
            {
              "pitch": 73,
              "velocity": 45,
              "position": 11.533333,
              "duration": 0.266667
            },
            {
              "pitch": 74,
              "velocity": 90,
              "position": 12.033333,
              "duration": 0.266667
            },
            {
              "pitch": 56,
              "velocity": 90,
              "position": 12.05,
              "duration": 0.266667
            },
            {
              "pitch": 56,
              "velocity": 90,
              "position": 12.516667,
              "duration": 0.266667
            },
            {
              "pitch": 68,
              "velocity": 39,
              "position": 12.525,
              "duration": 0.266667
            },
            {
              "pitch": 62,
              "velocity": 90,
              "position": 12.583333,
              "duration": 0.266667
            },
            {
              "pitch": 73,
              "velocity": 85,
              "position": 12.983333,
              "duration": 0.266667
            },
            {
              "pitch": 68,
              "velocity": 90,
              "position": 13.0,
              "duration": 0.266667
            },
            {
              "pitch": 62,
              "velocity": 90,
              "position": 13.008333,
              "duration": 0.266667
            },
            {
              "pitch": 76,
              "velocity": 86,
              "position": 13.008333,
              "duration": 0.266667
            },
            {
              "pitch": 56,
              "velocity": 90,
              "position": 13.016667,
              "duration": 0.266667
            },
            {
              "pitch": 73,
              "velocity": 53,
              "position": 13.483333,
              "duration": 0.266667
            },
            {
              "pitch": 64,
              "velocity": 67,
              "position": 13.508333,
              "duration": 0.266667
            },
            {
              "pitch": 68,
              "velocity": 90,
              "position": 13.533333,
              "duration": 0.266667
            },
            {
              "pitch": 74,
              "velocity": 90,
              "position": 14.0,
              "duration": 0.266667
            },
            {
              "pitch": 76,
              "velocity": 86,
              "position": 14.008333,
              "duration": 0.266667
            },
            {
              "pitch": 64,
              "velocity": 90,
              "position": 14.016667,
              "duration": 0.266667
            },
            {
              "pitch": 56,
              "velocity": 90,
              "position": 14.041667,
              "duration": 0.266667
            },
            {
              "pitch": 68,
              "velocity": 90,
              "position": 14.041667,
              "duration": 0.266667
            },
            {
              "pitch": 62,
              "velocity": 90,
              "position": 14.5,
              "duration": 0.533333
            },
            {
              "pitch": 65,
              "velocity": 90,
              "position": 14.533333,
              "duration": 0.266667
            },
            {
              "pitch": 73,
              "velocity": 59,
              "position": 14.983333,
              "duration": 0.266667
            },
            {
              "pitch": 62,
              "velocity": 85,
              "position": 15.033333,
              "duration": 0.241667
            },
            {
              "pitch": 65,
              "velocity": 65,
              "position": 15.041667,
              "duration": 0.233333
            },
            {
              "pitch": 80,
              "velocity": 90,
              "position": 15.066667,
              "duration": 0.208333
            },
            {
              "pitch": 68,
              "velocity": 30,
              "position": 15.083333,
              "duration": 0.191667
            },
            {
              "pitch": 65,
              "velocity": 65,
              "position": 15.275,
              "duration": 0.2
            },
            {
              "pitch": 73,
              "velocity": 57,
              "position": 15.475,
              "duration": 0.291667
            },
            {
              "pitch": 68,
              "velocity": 90,
              "position": 15.508333,
              "duration": 0.258333
            },
            {
              "pitch": 63,
              "velocity": 80,
              "position": 15.525,
              "duration": 0.241667
            },
            {
              "pitch": 65,
              "velocity": 65,
              "position": 15.533333,
              "duration": 0.233333
            },
            {
              "pitch": 80,
              "velocity": 90,
              "position": 15.541667,
              "duration": 0.225
            },
            {
              "pitch": 65,
              "velocity": 65,
              "position": 15.766667,
              "duration": 0.208333
            }
          ]
        },
        "10": {
          "ctab": {
            "srcChannel": 10,
            "name": "Bass",
            "accType": "BASS",
            "editable": true,
            "mutedNotes": [],
            "mutedChords": [],
            "sourceChordNote": 0,
            "sourceChordType": "Maj7",
            "ctb2Main": {
              "ntr": "ROOT_TRANSPOSITION",
              "ntt": "BYPASS",
              "bassOn": true,
              "noteLowLimit": 20,
              "noteHighLimit": 60,
              "chordRootUpperLimit": 127,
              "rtr": "NOTE_GENERATOR"
            }
          },
          "notes": [
            {
              "pitch": 36,
              "velocity": 84,
              "position": 0.0,
              "duration": 1.058333
            },
            {
              "pitch": 31,
              "velocity": 84,
              "position": 1.5,
              "duration": 0.458333
            },
            {
              "pitch": 36,
              "velocity": 84,
              "position": 2.0,
              "duration": 1.058333
            },
            {
              "pitch": 31,
              "velocity": 84,
              "position": 3.5,
              "duration": 0.458333
            },
            {
              "pitch": 36,
              "velocity": 84,
              "position": 4.0,
              "duration": 1.058333
            },
            {
              "pitch": 31,
              "velocity": 84,
              "position": 5.5,
              "duration": 0.458333
            },
            {
              "pitch": 36,
              "velocity": 84,
              "position": 6.0,
              "duration": 1.058333
            },
            {
              "pitch": 31,
              "velocity": 84,
              "position": 7.5,
              "duration": 0.458333
            },
            {
              "pitch": 36,
              "velocity": 85,
              "position": 8.0,
              "duration": 1.058333
            },
            {
              "pitch": 36,
              "velocity": 85,
              "position": 9.5,
              "duration": 0.475
            },
            {
              "pitch": 36,
              "velocity": 85,
              "position": 10.0,
              "duration": 0.925
            },
            {
              "pitch": 36,
              "velocity": 85,
              "position": 11.5,
              "duration": 0.375
            },
            {
              "pitch": 36,
              "velocity": 85,
              "position": 12.0,
              "duration": 1.133333
            },
            {
              "pitch": 36,
              "velocity": 78,
              "position": 13.5,
              "duration": 0.325
            },
            {
              "pitch": 36,
              "velocity": 86,
              "position": 14.0,
              "duration": 0.991667
            },
            {
              "pitch": 43,
              "velocity": 85,
              "position": 15.0,
              "duration": 0.508333
            },
            {
              "pitch": 31,
              "velocity": 85,
              "position": 15.5,
              "duration": 0.408333
            }
          ]
        },
        "11": {
          "ctab": {
            "srcChannel": 11,
            "name": "Piano",
            "accType": "CHORD1",
            "editable": true,
            "mutedNotes": [],
            "mutedChords": [],
            "sourceChordNote": 0,
            "sourceChordType": "Maj7",
            "ctb2Main": {
              "ntr": "ROOT_FIXED",
              "ntt": "CHORD",
              "bassOn": false,
              "noteLowLimit": 48,
              "noteHighLimit": 84,
              "chordRootUpperLimit": 127,
              "rtr": "NOTE_GENERATOR"
            }
          },
          "notes": []
        },
        "12": {
          "ctab": {
            "srcChannel": 12,
            "name": "Guitar",
            "accType": "CHORD2",
            "editable": true,
            "mutedNotes": [],
            "mutedChords": [],
            "sourceChordNote": 0,
            "sourceChordType": "Maj7",
            "ctb2Main": {
              "ntr": "ROOT_FIXED",
              "ntt": "CHORD",
              "bassOn": false,
              "noteLowLimit": 40,
              "noteHighLimit": 76,
              "chordRootUpperLimit": 127,
              "rtr": "NOTE_GENERATOR"
            }
          },
          "notes": [
            {
              "pitch": 48,
              "velocity": 80,
              "position": 0.0,
              "duration": 1.733333
            },
            {
              "pitch": 55,
              "velocity": 60,
              "position": 0.058333,
              "duration": 1.433333
            },
            {
              "pitch": 60,
              "velocity": 73,
              "position": 0.066667,
              "duration": 1.433333
            },
            {
              "pitch": 71,
              "velocity": 80,
              "position": 0.508333,
              "duration": 0.808333
            },
            {
              "pitch": 67,
              "velocity": 80,
              "position": 0.525,
              "duration": 0.783333
            },
            {
              "pitch": 71,
              "velocity": 80,
              "position": 1.5,
              "duration": 0.291667
            },
            {
              "pitch": 64,
              "velocity": 74,
              "position": 1.516667,
              "duration": 0.366667
            },
            {
              "pitch": 67,
              "velocity": 80,
              "position": 1.525,
              "duration": 0.291667
            },
            {
              "pitch": 48,
              "velocity": 74,
              "position": 2.091667,
              "duration": 1.908333
            },
            {
              "pitch": 64,
              "velocity": 80,
              "position": 2.108333,
              "duration": 0.483333
            },
            {
              "pitch": 55,
              "velocity": 80,
              "position": 2.116667,
              "duration": 1.883333
            },
            {
              "pitch": 60,
              "velocity": 71,
              "position": 2.141667,
              "duration": 1.708333
            },
            {
              "pitch": 71,
              "velocity": 80,
              "position": 2.55,
              "duration": 0.8
            },
            {
              "pitch": 67,
              "velocity": 80,
              "position": 2.566667,
              "duration": 0.8
            },
            {
              "pitch": 64,
              "velocity": 77,
              "position": 2.591667,
              "duration": 0.808333
            },
            {
              "pitch": 71,
              "velocity": 80,
              "position": 3.566667,
              "duration": 0.433333
            },
            {
              "pitch": 67,
              "velocity": 80,
              "position": 3.6,
              "duration": 0.358333
            },
            {
              "pitch": 64,
              "velocity": 71,
              "position": 3.625,
              "duration": 0.375
            },
            {
              "pitch": 48,
              "velocity": 66,
              "position": 4.0,
              "duration": 1.733333
            },
            {
              "pitch": 55,
              "velocity": 80,
              "position": 4.008333,
              "duration": 1.733333
            },
            {
              "pitch": 60,
              "velocity": 80,
              "position": 4.025,
              "duration": 1.708333
            },
            {
              "pitch": 64,
              "velocity": 80,
              "position": 4.033333,
              "duration": 0.416667
            },
            {
              "pitch": 67,
              "velocity": 80,
              "position": 4.041667,
              "duration": 0.358333
            },
            {
              "pitch": 71,
              "velocity": 80,
              "position": 4.483333,
              "duration": 0.866667
            },
            {
              "pitch": 67,
              "velocity": 80,
              "position": 4.508333,
              "duration": 0.85
            },
            {
              "pitch": 64,
              "velocity": 80,
              "position": 4.525,
              "duration": 0.85
            },
            {
              "pitch": 71,
              "velocity": 80,
              "position": 5.425,
              "duration": 0.308333
            },
            {
              "pitch": 67,
              "velocity": 80,
              "position": 5.45,
              "duration": 0.283333
            },
            {
              "pitch": 64,
              "velocity": 76,
              "position": 5.475,
              "duration": 0.258333
            },
            {
              "pitch": 48,
              "velocity": 49,
              "position": 6.0,
              "duration": 1.491667
            },
            {
              "pitch": 55,
              "velocity": 64,
              "position": 6.016667,
              "duration": 1.433333
            },
            {
              "pitch": 60,
              "velocity": 80,
              "position": 6.033333,
              "duration": 1.383333
            },
            {
              "pitch": 64,
              "velocity": 80,
              "position": 6.05,
              "duration": 1.341667
            },
            {
              "pitch": 67,
              "velocity": 80,
              "position": 6.066667,
              "duration": 1.258333
            },
            {
              "pitch": 71,
              "velocity": 80,
              "position": 6.083333,
              "duration": 1.216667
            },
            {
              "pitch": 71,
              "velocity": 80,
              "position": 7.508333,
              "duration": 0.441667
            },
            {
              "pitch": 67,
              "velocity": 80,
              "position": 7.533333,
              "duration": 0.458333
            },
            {
              "pitch": 64,
              "velocity": 80,
              "position": 7.566667,
              "duration": 0.391667
            },
            {
              "pitch": 60,
              "velocity": 80,
              "position": 7.6,
              "duration": 0.375
            },
            {
              "pitch": 55,
              "velocity": 80,
              "position": 7.641667,
              "duration": 0.316667
            },
            {
              "pitch": 48,
              "velocity": 42,
              "position": 7.691667,
              "duration": 0.25
            },
            {
              "pitch": 48,
              "velocity": 80,
              "position": 8.0,
              "duration": 2.891667
            },
            {
              "pitch": 55,
              "velocity": 60,
              "position": 8.058333,
              "duration": 1.433333
            },
            {
              "pitch": 60,
              "velocity": 73,
              "position": 8.066667,
              "duration": 1.433333
            },
            {
              "pitch": 71,
              "velocity": 80,
              "position": 8.508333,
              "duration": 0.841667
            },
            {
              "pitch": 67,
              "velocity": 80,
              "position": 8.525,
              "duration": 0.825
            },
            {
              "pitch": 67,
              "velocity": 80,
              "position": 9.441667,
              "duration": 0.4
            },
            {
              "pitch": 64,
              "velocity": 74,
              "position": 9.458333,
              "duration": 0.366667
            },
            {
              "pitch": 71,
              "velocity": 80,
              "position": 9.466667,
              "duration": 1.208333
            },
            {
              "pitch": 60,
              "velocity": 53,
              "position": 9.983333,
              "duration": 1.25
            },
            {
              "pitch": 64,
              "velocity": 80,
              "position": 9.991667,
              "duration": 0.741667
            },
            {
              "pitch": 67,
              "velocity": 80,
              "position": 10.0,
              "duration": 0.75
            },
            {
              "pitch": 64,
              "velocity": 65,
              "position": 11.0,
              "duration": 0.5
            },
            {
              "pitch": 67,
              "velocity": 80,
              "position": 11.016667,
              "duration": 0.458333
            },
            {
              "pitch": 71,
              "velocity": 66,
              "position": 11.05,
              "duration": 0.45
            },
            {
              "pitch": 71,
              "velocity": 80,
              "position": 11.5,
              "duration": 0.466667
            },
            {
              "pitch": 67,
              "velocity": 80,
              "position": 11.516667,
              "duration": 0.425
            },
            {
              "pitch": 64,
              "velocity": 80,
              "position": 11.533333,
              "duration": 0.391667
            },
            {
              "pitch": 60,
              "velocity": 80,
              "position": 11.558333,
              "duration": 0.358333
            },
            {
              "pitch": 55,
              "velocity": 59,
              "position": 11.591667,
              "duration": 0.316667
            },
            {
              "pitch": 48,
              "velocity": 60,
              "position": 12.0,
              "duration": 1.133333
            },
            {
              "pitch": 55,
              "velocity": 60,
              "position": 12.0,
              "duration": 0.708333
            },
            {
              "pitch": 60,
              "velocity": 80,
              "position": 12.008333,
              "duration": 0.716667
            },
            {
              "pitch": 64,
              "velocity": 80,
              "position": 12.016667,
              "duration": 0.725
            },
            {
              "pitch": 67,
              "velocity": 80,
              "position": 12.033333,
              "duration": 1.066667
            },
            {
              "pitch": 71,
              "velocity": 80,
              "position": 12.05,
              "duration": 1.058333
            },
            {
              "pitch": 55,
              "velocity": 64,
              "position": 13.008333,
              "duration": 0.408333
            },
            {
              "pitch": 60,
              "velocity": 74,
              "position": 13.025,
              "duration": 0.391667
            },
            {
              "pitch": 64,
              "velocity": 70,
              "position": 13.033333,
              "duration": 0.341667
            },
            {
              "pitch": 71,
              "velocity": 80,
              "position": 13.508333,
              "duration": 0.883333
            },
            {
              "pitch": 67,
              "velocity": 80,
              "position": 13.533333,
              "duration": 0.866667
            },
            {
              "pitch": 64,
              "velocity": 80,
              "position": 13.566667,
              "duration": 0.841667
            },
            {
              "pitch": 60,
              "velocity": 80,
              "position": 13.591667,
              "duration": 0.866667
            },
            {
              "pitch": 55,
              "velocity": 80,
              "position": 13.625,
              "duration": 1.15
            },
            {
              "pitch": 48,
              "velocity": 58,
              "position": 13.65,
              "duration": 1.291667
            },
            {
              "pitch": 71,
              "velocity": 80,
              "position": 14.491667,
              "duration": 0.325
            },
            {
              "pitch": 67,
              "velocity": 80,
              "position": 14.525,
              "duration": 0.283333
            },
            {
              "pitch": 64,
              "velocity": 80,
              "position": 14.55,
              "duration": 0.25
            },
            {
              "pitch": 60,
              "velocity": 80,
              "position": 14.575,
              "duration": 0.216667
            },
            {
              "pitch": 71,
              "velocity": 80,
              "position": 15.508333,
              "duration": 0.225
            },
            {
              "pitch": 67,
              "velocity": 80,
              "position": 15.533333,
              "duration": 0.2
            },
            {
              "pitch": 64,
              "velocity": 80,
              "position": 15.566667,
              "duration": 0.166667
            },
            {
              "pitch": 60,
              "velocity": 80,
              "position": 15.591667,
              "duration": 0.141667
            }
          ]
        },
        "13": {
          "ctab": {
            "srcChannel": 13,
            "name": "Strings",
            "accType": "PAD",
            "editable": true,
            "mutedNotes": [],
            "mutedChords": [],
            "sourceChordNote": 0,
            "sourceChordType": "Maj7",
            "ctb2Main": {
              "ntr": "ROOT_FIXED",
              "ntt": "MELODY",
              "bassOn": false,
              "noteLowLimit": 36,
              "noteHighLimit": 96,
              "chordRootUpperLimit": 127,
              "rtr": "PITCH_SHIFT"
            }
          },
          "notes": [
            {
              "pitch": 59,
              "velocity": 75,
              "position": 0.0,
              "duration": 1.391667
            },
            {
              "pitch": 64,
              "velocity": 73,
              "position": 0.5,
              "duration": 0.8
            },
            {
              "pitch": 52,
              "velocity": 55,
              "position": 1.0,
              "duration": 0.733333
            },
            {
              "pitch": 60,
              "velocity": 73,
              "position": 1.5,
              "duration": 0.233333
            },
            {
              "pitch": 64,
              "velocity": 78,
              "position": 2.0,
              "duration": 0.85
            },
            {
              "pitch": 59,
              "velocity": 50,
              "position": 2.5,
              "duration": 1.083333
            },
            {
              "pitch": 60,
              "velocity": 70,
              "position": 3.0,
              "duration": 0.733333
            },
            {
              "pitch": 64,
              "velocity": 78,
              "position": 3.5,
              "duration": 0.233333
            },
            {
              "pitch": 59,
              "velocity": 74,
              "position": 4.0,
              "duration": 1.733333
            },
            {
              "pitch": 60,
              "velocity": 61,
              "position": 4.5,
              "duration": 0.475
            },
            {
              "pitch": 60,
              "velocity": 74,
              "position": 5.5,
              "duration": 0.233333
            },
            {
              "pitch": 60,
              "velocity": 65,
              "position": 6.5,
              "duration": 0.458333
            },
            {
              "pitch": 64,
              "velocity": 72,
              "position": 6.5,
              "duration": 0.791667
            },
            {
              "pitch": 60,
              "velocity": 72,
              "position": 7.5,
              "duration": 0.233333
            },
            {
              "pitch": 60,
              "velocity": 75,
              "position": 8.0,
              "duration": 0.475
            },
            {
              "pitch": 64,
              "velocity": 75,
              "position": 8.0,
              "duration": 0.791667
            },
            {
              "pitch": 52,
              "velocity": 51,
              "position": 8.5,
              "duration": 1.183333
            },
            {
              "pitch": 59,
              "velocity": 51,
              "position": 9.0,
              "duration": 1.375
            },
            {
              "pitch": 60,
              "velocity": 75,
              "position": 9.0,
              "duration": 1.325
            },
            {
              "pitch": 64,
              "velocity": 75,
              "position": 9.5,
              "duration": 0.5
            },
            {
              "pitch": 64,
              "velocity": 75,
              "position": 10.5,
              "duration": 0.808333
            },
            {
              "pitch": 52,
              "velocity": 73,
              "position": 11.0,
              "duration": 0.95
            },
            {
              "pitch": 59,
              "velocity": 37,
              "position": 11.5,
              "duration": 0.791667
            },
            {
              "pitch": 60,
              "velocity": 75,
              "position": 11.5,
              "duration": 0.75
            },
            {
              "pitch": 64,
              "velocity": 75,
              "position": 12.0,
              "duration": 0.533333
            },
            {
              "pitch": 59,
              "velocity": 64,
              "position": 13.0,
              "duration": 1.741667
            },
            {
              "pitch": 60,
              "velocity": 75,
              "position": 13.0,
              "duration": 0.575
            },
            {
              "pitch": 64,
              "velocity": 75,
              "position": 13.0,
              "duration": 0.533333
            },
            {
              "pitch": 60,
              "velocity": 75,
              "position": 14.0,
              "duration": 0.483333
            },
            {
              "pitch": 64,
              "velocity": 75,
              "position": 14.0,
              "duration": 0.808333
            },
            {
              "pitch": 52,
              "velocity": 73,
              "position": 14.5,
              "duration": 0.966667
            },
            {
              "pitch": 60,
              "velocity": 72,
              "position": 15.0,
              "duration": 0.491667
            },
            {
              "pitch": 64,
              "velocity": 75,
              "position": 15.5,
              "duration": 0.233333
            }
          ]
        }
      }
    },
    "Main_B": {
      "type": "Main_B",
      "sizeInBeats": 16,
      "channels": {
        "9": {
          "ctab": {
            "srcChannel": 9,
            "name": "Drums",
            "accType": "RHYTHM",
            "editable": false,
            "mutedNotes": [],
            "mutedChords": [],
            "sourceChordNote": 0,
            "sourceChordType": "Maj",
            "ctb2Main": {
              "ntr": "ROOT_FIXED",
              "ntt": "BYPASS",
              "bassOn": false,
              "noteLowLimit": 20,
              "noteHighLimit": 127,
              "chordRootUpperLimit": 127,
              "rtr": "RETRIGGER"
            }
          },
          "notes": [
            {
              "pitch": 74,
              "velocity": 90,
              "position": 0.0,
              "duration": 0.266667
            },
            {
              "pitch": 76,
              "velocity": 86,
              "position": 0.0,
              "duration": 0.266667
            },
            {
              "pitch": 56,
              "velocity": 90,
              "position": 0.008333,
              "duration": 0.266667
            },
            {
              "pitch": 49,
              "velocity": 56,
              "position": 0.016667,
              "duration": 0.95
            },
            {
              "pitch": 65,
              "velocity": 90,
              "position": 0.016667,
              "duration": 0.266667
            },
            {
              "pitch": 68,
              "velocity": 90,
              "position": 0.025,
              "duration": 0.266667
            },
            {
              "pitch": 63,
              "velocity": 90,
              "position": 0.05,
              "duration": 0.266667
            },
            {
              "pitch": 73,
              "velocity": 47,
              "position": 0.975,
              "duration": 0.266667
            },
            {
              "pitch": 62,
              "velocity": 90,
              "position": 1.008333,
              "duration": 0.266667
            },
            {
              "pitch": 68,
              "velocity": 90,
              "position": 1.025,
              "duration": 0.266667
            },
            {
              "pitch": 80,
              "velocity": 90,
              "position": 1.075,
              "duration": 0.266667
            },
            {
              "pitch": 73,
              "velocity": 30,
              "position": 1.491667,
              "duration": 0.266667
            },
            {
              "pitch": 62,
              "velocity": 61,
              "position": 1.525,
              "duration": 0.266667
            },
            {
              "pitch": 76,
              "velocity": 86,
              "position": 1.525,
              "duration": 0.266667
            },
            {
              "pitch": 56,
              "velocity": 90,
              "position": 2.016667,
              "duration": 0.266667
            },
            {
              "pitch": 74,
              "velocity": 90,
              "position": 2.025,
              "duration": 0.266667
            },
            {
              "pitch": 68,
              "velocity": 90,
              "position": 2.033333,
              "duration": 0.266667
            },
            {
              "pitch": 62,
              "velocity": 65,
              "position": 2.508333,
              "duration": 0.266667
            },
            {
              "pitch": 76,
              "velocity": 86,
              "position": 2.991667,
              "duration": 0.266667
            },
            {
              "pitch": 80,
              "velocity": 90,
              "position": 2.991667,
              "duration": 0.266667
            },
            {
              "pitch": 63,
              "velocity": 90,
              "position": 3.0,
              "duration": 0.266667
            },
            {
              "pitch": 68,
              "velocity": 90,
              "position": 3.016667,
              "duration": 0.266667
            },
            {
              "pitch": 73,
              "velocity": 67,
              "position": 3.041667,
              "duration": 0.266667
            },
            {
              "pitch": 63,
              "velocity": 90,
              "position": 3.508333,
              "duration": 0.266667
            },
            {
              "pitch": 80,
              "velocity": 90,
              "position": 3.516667,
              "duration": 0.266667
            },
            {
              "pitch": 73,
              "velocity": 45,
              "position": 3.533333,
              "duration": 0.266667
            },
            {
              "pitch": 74,
              "velocity": 90,
              "position": 4.0,
              "duration": 0.266667
            },
            {
              "pitch": 56,
              "velocity": 90,
              "position": 4.066667,
              "duration": 0.266667
            },
            {
              "pitch": 62,
              "velocity": 90,
              "position": 4.458333,
              "duration": 0.266667
            },
            {
              "pitch": 68,
              "velocity": 90,
              "position": 4.525,
              "duration": 0.266667
            },
            {
              "pitch": 73,
              "velocity": 90,
              "position": 4.991667,
              "duration": 0.266667
            },
            {
              "pitch": 68,
              "velocity": 90,
              "position": 5.0,
              "duration": 0.266667
            },
            {
              "pitch": 76,
              "velocity": 75,
              "position": 5.0,
              "duration": 0.266667
            },
            {
              "pitch": 62,
              "velocity": 90,
              "position": 5.016667,
              "duration": 0.266667
            },
            {
              "pitch": 80,
              "velocity": 90,
              "position": 5.058333,
              "duration": 0.266667
            },
            {
              "pitch": 68,
              "velocity": 90,
              "position": 5.475,
              "duration": 0.266667
            },
            {
              "pitch": 73,
              "velocity": 53,
              "position": 5.5,
              "duration": 0.266667
            },
            {
              "pitch": 64,
              "velocity": 80,
              "position": 5.508333,
              "duration": 0.266667
            },
            {
              "pitch": 56,
              "velocity": 90,
              "position": 5.558333,
              "duration": 0.266667
            },
            {
              "pitch": 68,
              "velocity": 90,
              "position": 6.0,
              "duration": 0.266667
            },
            {
              "pitch": 74,
              "velocity": 90,
              "position": 6.016667,
              "duration": 0.266667
            },
            {
              "pitch": 76,
              "velocity": 86,
              "position": 6.016667,
              "duration": 0.266667
            },
            {
              "pitch": 64,
              "velocity": 87,
              "position": 6.025,
              "duration": 0.266667
            },
            {
              "pitch": 56,
              "velocity": 90,
              "position": 6.058333,
              "duration": 0.266667
            },
            {
              "pitch": 62,
              "velocity": 90,
              "position": 6.525,
              "duration": 0.266667
            },
            {
              "pitch": 73,
              "velocity": 69,
              "position": 7.016667,
              "duration": 0.266667
            },
            {
              "pitch": 68,
              "velocity": 90,
              "position": 7.025,
              "duration": 0.266667
            },
            {
              "pitch": 80,
              "velocity": 90,
              "position": 7.025,
              "duration": 0.266667
            },
            {
              "pitch": 63,
              "velocity": 90,
              "position": 7.041667,
              "duration": 0.266667
            },
            {
              "pitch": 73,
              "velocity": 79,
              "position": 7.516667,
              "duration": 0.266667
            },
            {
              "pitch": 80,
              "velocity": 90,
              "position": 7.516667,
              "duration": 0.266667
            },
            {
              "pitch": 68,
              "velocity": 90,
              "position": 7.533333,
              "duration": 0.266667
            },
            {
              "pitch": 63,
              "velocity": 90,
              "position": 7.541667,
              "duration": 0.266667
            },
            {
              "pitch": 74,
              "velocity": 90,
              "position": 8.0,
              "duration": 0.266667
            },
            {
              "pitch": 76,
              "velocity": 86,
              "position": 8.0,
              "duration": 0.266667
            },
            {
              "pitch": 56,
              "velocity": 90,
              "position": 8.05,
              "duration": 0.266667
            },
            {
              "pitch": 68,
              "velocity": 90,
              "position": 8.5,
              "duration": 0.266667
            },
            {
              "pitch": 62,
              "velocity": 82,
              "position": 8.525,
              "duration": 0.266667
            },
            {
              "pitch": 62,
              "velocity": 90,
              "position": 9.0,
              "duration": 0.266667
            },
            {
              "pitch": 68,
              "velocity": 90,
              "position": 9.0,
              "duration": 0.266667
            },
            {
              "pitch": 73,
              "velocity": 69,
              "position": 9.0,
              "duration": 0.266667
            },
            {
              "pitch": 80,
              "velocity": 90,
              "position": 9.041667,
              "duration": 0.266667
            },
            {
              "pitch": 73,
              "velocity": 75,
              "position": 9.491667,
              "duration": 0.266667
            },
            {
              "pitch": 62,
              "velocity": 46,
              "position": 9.525,
              "duration": 0.266667
            },
            {
              "pitch": 76,
              "velocity": 86,
              "position": 9.525,
              "duration": 0.266667
            },
            {
              "pitch": 74,
              "velocity": 90,
              "position": 10.025,
              "duration": 0.266667
            },
            {
              "pitch": 68,
              "velocity": 90,
              "position": 10.033333,
              "duration": 0.266667
            },
            {
              "pitch": 56,
              "velocity": 90,
              "position": 10.058333,
              "duration": 0.266667
            },
            {
              "pitch": 62,
              "velocity": 90,
              "position": 10.525,
              "duration": 0.266667
            },
            {
              "pitch": 68,
              "velocity": 39,
              "position": 10.541667,
              "duration": 0.266667
            },
            {
              "pitch": 73,
              "velocity": 63,
              "position": 10.983333,
              "duration": 0.266667
            },
            {
              "pitch": 76,
              "velocity": 86,
              "position": 10.991667,
              "duration": 0.266667
            },
            {
              "pitch": 63,
              "velocity": 90,
              "position": 11.008333,
              "duration": 0.266667
            },
            {
              "pitch": 68,
              "velocity": 90,
              "position": 11.008333,
              "duration": 0.266667
            },
            {
              "pitch": 80,
              "velocity": 90,
              "position": 11.058333,
              "duration": 0.266667
            },
            {
              "pitch": 73,
              "velocity": 63,
              "position": 11.466667,
              "duration": 0.266667
            },
            {
              "pitch": 63,
              "velocity": 90,
              "position": 11.5,
              "duration": 0.266667
            },
            {
              "pitch": 68,
              "velocity": 90,
              "position": 11.525,
              "duration": 0.266667
            },
            {
              "pitch": 80,
              "velocity": 90,
              "position": 11.55,
              "duration": 0.266667
            },
            {
              "pitch": 74,
              "velocity": 90,
              "position": 12.033333,
              "duration": 0.266667
            },
            {
              "pitch": 56,
              "velocity": 90,
              "position": 12.05,
              "duration": 0.266667
            },
            {
              "pitch": 62,
              "velocity": 82,
              "position": 12.5,
              "duration": 0.266667
            },
            {
              "pitch": 68,
              "velocity": 90,
              "position": 12.55,
              "duration": 0.266667
            },
            {
              "pitch": 73,
              "velocity": 73,
              "position": 12.991667,
              "duration": 0.266667
            },
            {
              "pitch": 76,
              "velocity": 86,
              "position": 13.008333,
              "duration": 0.266667
            },
            {
              "pitch": 62,
              "velocity": 90,
              "position": 13.016667,
              "duration": 0.266667
            },
            {
              "pitch": 68,
              "velocity": 90,
              "position": 13.025,
              "duration": 0.266667
            },
            {
              "pitch": 80,
              "velocity": 90,
              "position": 13.041667,
              "duration": 0.266667
            },
            {
              "pitch": 73,
              "velocity": 75,
              "position": 13.491667,
              "duration": 0.266667
            },
            {
              "pitch": 66,
              "velocity": 90,
              "position": 13.5,
              "duration": 0.266667
            },
            {
              "pitch": 64,
              "velocity": 77,
              "position": 13.525,
              "duration": 0.266667
            },
            {
              "pitch": 68,
              "velocity": 90,
              "position": 13.525,
              "duration": 0.266667
            },
            {
              "pitch": 80,
              "velocity": 90,
              "position": 13.566667,
              "duration": 0.266667
            },
            {
              "pitch": 68,
              "velocity": 90,
              "position": 14.0,
              "duration": 0.266667
            },
            {
              "pitch": 76,
              "velocity": 86,
              "position": 14.008333,
              "duration": 0.266667
            },
            {
              "pitch": 74,
              "velocity": 90,
              "position": 14.016667,
              "duration": 0.266667
            },
            {
              "pitch": 64,
              "velocity": 88,
              "position": 14.033333,
              "duration": 0.266667
            },
            {
              "pitch": 56,
              "velocity": 90,
              "position": 14.05,
              "duration": 0.266667
            },
            {
              "pitch": 62,
              "velocity": 90,
              "position": 14.5,
              "duration": 0.266667
            },
            {
              "pitch": 68,
              "velocity": 90,
              "position": 14.541667,
              "duration": 0.266667
            },
            {
              "pitch": 65,
              "velocity": 90,
              "position": 14.983333,
              "duration": 0.266667
            },
            {
              "pitch": 73,
              "velocity": 85,
              "position": 14.983333,
              "duration": 0.266667
            },
            {
              "pitch": 63,
              "velocity": 90,
              "position": 15.016667,
              "duration": 0.266667
            },
            {
              "pitch": 80,
              "velocity": 90,
              "position": 15.075,
              "duration": 0.266667
            },
            {
              "pitch": 68,
              "velocity": 90,
              "position": 15.475,
              "duration": 0.283333
            },
            {
              "pitch": 73,
              "velocity": 65,
              "position": 15.475,
              "duration": 0.283333
            },
            {
              "pitch": 65,
              "velocity": 90,
              "position": 15.483333,
              "duration": 0.275
            },
            {
              "pitch": 80,
              "velocity": 90,
              "position": 15.533333,
              "duration": 0.225
            },
            {
              "pitch": 63,
              "velocity": 90,
              "position": 15.541667,
              "duration": 0.216667
            },
            {
              "pitch": 66,
              "velocity": 65,
              "position": 15.758333,
              "duration": 0.233333
            }
          ]
        },
        "10": {
          "ctab": {
            "srcChannel": 10,
            "name": "Bass",
            "accType": "BASS",
            "editable": true,
            "mutedNotes": [],
            "mutedChords": [],
            "sourceChordNote": 0,
            "sourceChordType": "Maj7",
            "ctb2Main": {
              "ntr": "ROOT_TRANSPOSITION",
              "ntt": "BYPASS",
              "bassOn": true,
              "noteLowLimit": 20,
              "noteHighLimit": 60,
              "chordRootUpperLimit": 127,
              "rtr": "NOTE_GENERATOR"
            }
          },
          "notes": [
            {
              "pitch": 36,
              "velocity": 84,
              "position": 0.0,
              "duration": 1.058333
            },
            {
              "pitch": 31,
              "velocity": 84,
              "position": 1.5,
              "duration": 0.458333
            },
            {
              "pitch": 36,
              "velocity": 84,
              "position": 2.0,
              "duration": 1.058333
            },
            {
              "pitch": 31,
              "velocity": 84,
              "position": 3.5,
              "duration": 0.458333
            },
            {
              "pitch": 36,
              "velocity": 84,
              "position": 4.0,
              "duration": 1.058333
            },
            {
              "pitch": 31,
              "velocity": 84,
              "position": 5.5,
              "duration": 0.458333
            },
            {
              "pitch": 36,
              "velocity": 84,
              "position": 6.0,
              "duration": 1.058333
            },
            {
              "pitch": 31,
              "velocity": 84,
              "position": 7.5,
              "duration": 0.458333
            },
            {
              "pitch": 36,
              "velocity": 85,
              "position": 8.0,
              "duration": 1.058333
            },
            {
              "pitch": 36,
              "velocity": 85,
              "position": 9.5,
              "duration": 0.475
            },
            {
              "pitch": 36,
              "velocity": 85,
              "position": 10.0,
              "duration": 0.925
            },
            {
              "pitch": 36,
              "velocity": 85,
              "position": 11.5,
              "duration": 0.375
            },
            {
              "pitch": 36,
              "velocity": 85,
              "position": 12.0,
              "duration": 1.133333
            },
            {
              "pitch": 36,
              "velocity": 78,
              "position": 13.5,
              "duration": 0.325
            },
            {
              "pitch": 36,
              "velocity": 86,
              "position": 14.0,
              "duration": 0.991667
            },
            {
              "pitch": 43,
              "velocity": 85,
              "position": 15.0,
              "duration": 0.508333
            },
            {
              "pitch": 31,
              "velocity": 85,
              "position": 15.5,
              "duration": 0.408333
            }
          ]
        },
        "11": {
          "ctab": {
            "srcChannel": 11,
            "name": "Piano",
            "accType": "CHORD1",
            "editable": true,
            "mutedNotes": [],
            "mutedChords": [],
            "sourceChordNote": 0,
            "sourceChordType": "Maj7",
            "ctb2Main": {
              "ntr": "ROOT_FIXED",
              "ntt": "CHORD",
              "bassOn": false,
              "noteLowLimit": 48,
              "noteHighLimit": 84,
              "chordRootUpperLimit": 127,
              "rtr": "NOTE_GENERATOR"
            }
          },
          "notes": []
        },
        "12": {
          "ctab": {
            "srcChannel": 12,
            "name": "Guitar",
            "accType": "CHORD2",
            "editable": true,
            "mutedNotes": [],
            "mutedChords": [],
            "sourceChordNote": 0,
            "sourceChordType": "Maj7",
            "ctb2Main": {
              "ntr": "ROOT_FIXED",
              "ntt": "CHORD",
              "bassOn": false,
              "noteLowLimit": 40,
              "noteHighLimit": 76,
              "chordRootUpperLimit": 127,
              "rtr": "NOTE_GENERATOR"
            }
          },
          "notes": [
            {
              "pitch": 48,
              "velocity": 79,
              "position": 0.091667,
              "duration": 1.908333
            },
            {
              "pitch": 55,
              "velocity": 71,
              "position": 0.108333,
              "duration": 1.416667
            },
            {
              "pitch": 60,
              "velocity": 64,
              "position": 0.125,
              "duration": 0.483333
            },
            {
              "pitch": 64,
              "velocity": 63,
              "position": 0.133333,
              "duration": 0.45
            },
            {
              "pitch": 67,
              "velocity": 58,
              "position": 0.141667,
              "duration": 0.433333
            },
            {
              "pitch": 71,
              "velocity": 61,
              "position": 0.15,
              "duration": 0.383333
            },
            {
              "pitch": 71,
              "velocity": 80,
              "position": 0.625,
              "duration": 0.841667
            },
            {
              "pitch": 67,
              "velocity": 80,
              "position": 0.65,
              "duration": 0.816667
            },
            {
              "pitch": 64,
              "velocity": 80,
              "position": 0.666667,
              "duration": 0.8
            },
            {
              "pitch": 60,
              "velocity": 80,
              "position": 0.683333,
              "duration": 0.875
            },
            {
              "pitch": 71,
              "velocity": 80,
              "position": 1.55,
              "duration": 0.45
            },
            {
              "pitch": 67,
              "velocity": 80,
              "position": 1.583333,
              "duration": 0.408333
            },
            {
              "pitch": 64,
              "velocity": 80,
              "position": 1.616667,
              "duration": 0.358333
            },
            {
              "pitch": 60,
              "velocity": 80,
              "position": 1.65,
              "duration": 0.308333
            },
            {
              "pitch": 55,
              "velocity": 49,
              "position": 1.683333,
              "duration": 0.266667
            },
            {
              "pitch": 64,
              "velocity": 80,
              "position": 2.0,
              "duration": 1.366667
            },
            {
              "pitch": 67,
              "velocity": 80,
              "position": 2.008333,
              "duration": 1.3
            },
            {
              "pitch": 60,
              "velocity": 80,
              "position": 2.016667,
              "duration": 1.366667
            },
            {
              "pitch": 71,
              "velocity": 79,
              "position": 2.025,
              "duration": 1.25
            },
            {
              "pitch": 71,
              "velocity": 80,
              "position": 3.525,
              "duration": 0.208333
            },
            {
              "pitch": 67,
              "velocity": 80,
              "position": 3.55,
              "duration": 0.183333
            },
            {
              "pitch": 64,
              "velocity": 80,
              "position": 3.566667,
              "duration": 0.166667
            },
            {
              "pitch": 60,
              "velocity": 76,
              "position": 3.591667,
              "duration": 0.141667
            },
            {
              "pitch": 55,
              "velocity": 52,
              "position": 3.608333,
              "duration": 0.125
            },
            {
              "pitch": 64,
              "velocity": 80,
              "position": 4.0,
              "duration": 1.366667
            },
            {
              "pitch": 67,
              "velocity": 80,
              "position": 4.008333,
              "duration": 1.3
            },
            {
              "pitch": 60,
              "velocity": 80,
              "position": 4.016667,
              "duration": 1.366667
            },
            {
              "pitch": 71,
              "velocity": 79,
              "position": 4.025,
              "duration": 1.25
            },
            {
              "pitch": 71,
              "velocity": 80,
              "position": 5.525,
              "duration": 0.208333
            },
            {
              "pitch": 67,
              "velocity": 80,
              "position": 5.55,
              "duration": 0.183333
            },
            {
              "pitch": 64,
              "velocity": 80,
              "position": 5.566667,
              "duration": 0.166667
            },
            {
              "pitch": 60,
              "velocity": 76,
              "position": 5.591667,
              "duration": 0.141667
            },
            {
              "pitch": 55,
              "velocity": 52,
              "position": 5.608333,
              "duration": 0.125
            },
            {
              "pitch": 48,
              "velocity": 80,
              "position": 6.075,
              "duration": 1.266667
            },
            {
              "pitch": 55,
              "velocity": 80,
              "position": 6.075,
              "duration": 1.266667
            },
            {
              "pitch": 60,
              "velocity": 80,
              "position": 6.075,
              "duration": 1.266667
            },
            {
              "pitch": 64,
              "velocity": 80,
              "position": 6.083333,
              "duration": 1.183333
            },
            {
              "pitch": 67,
              "velocity": 64,
              "position": 6.083333,
              "duration": 1.15
            },
            {
              "pitch": 71,
              "velocity": 80,
              "position": 6.083333,
              "duration": 1.15
            },
            {
              "pitch": 71,
              "velocity": 80,
              "position": 7.516667,
              "duration": 0.25
            },
            {
              "pitch": 67,
              "velocity": 80,
              "position": 7.541667,
              "duration": 0.216667
            },
            {
              "pitch": 64,
              "velocity": 80,
              "position": 7.575,
              "duration": 0.175
            },
            {
              "pitch": 60,
              "velocity": 80,
              "position": 7.6,
              "duration": 0.266667
            },
            {
              "pitch": 55,
              "velocity": 67,
              "position": 7.633333,
              "duration": 0.208333
            },
            {
              "pitch": 48,
              "velocity": 53,
              "position": 7.658333,
              "duration": 0.283333
            },
            {
              "pitch": 48,
              "velocity": 79,
              "position": 8.091667,
              "duration": 3.475
            },
            {
              "pitch": 55,
              "velocity": 71,
              "position": 8.108333,
              "duration": 1.416667
            },
            {
              "pitch": 60,
              "velocity": 64,
              "position": 8.125,
              "duration": 0.483333
            },
            {
              "pitch": 64,
              "velocity": 63,
              "position": 8.133333,
              "duration": 0.45
            },
            {
              "pitch": 67,
              "velocity": 58,
              "position": 8.141667,
              "duration": 0.433333
            },
            {
              "pitch": 71,
              "velocity": 61,
              "position": 8.15,
              "duration": 0.383333
            },
            {
              "pitch": 71,
              "velocity": 80,
              "position": 8.625,
              "duration": 0.841667
            },
            {
              "pitch": 67,
              "velocity": 80,
              "position": 8.65,
              "duration": 0.816667
            },
            {
              "pitch": 64,
              "velocity": 80,
              "position": 8.666667,
              "duration": 0.8
            },
            {
              "pitch": 60,
              "velocity": 80,
              "position": 8.683333,
              "duration": 0.875
            },
            {
              "pitch": 71,
              "velocity": 80,
              "position": 9.55,
              "duration": 0.458333
            },
            {
              "pitch": 67,
              "velocity": 80,
              "position": 9.583333,
              "duration": 0.408333
            },
            {
              "pitch": 64,
              "velocity": 80,
              "position": 9.616667,
              "duration": 0.358333
            },
            {
              "pitch": 60,
              "velocity": 80,
              "position": 9.65,
              "duration": 0.308333
            },
            {
              "pitch": 55,
              "velocity": 49,
              "position": 9.683333,
              "duration": 0.266667
            },
            {
              "pitch": 55,
              "velocity": 80,
              "position": 10.041667,
              "duration": 1.316667
            },
            {
              "pitch": 60,
              "velocity": 80,
              "position": 10.066667,
              "duration": 1.275
            },
            {
              "pitch": 64,
              "velocity": 80,
              "position": 10.075,
              "duration": 1.133333
            },
            {
              "pitch": 67,
              "velocity": 80,
              "position": 10.091667,
              "duration": 1.108333
            },
            {
              "pitch": 71,
              "velocity": 80,
              "position": 10.1,
              "duration": 1.091667
            },
            {
              "pitch": 67,
              "velocity": 80,
              "position": 11.508333,
              "duration": 0.408333
            },
            {
              "pitch": 71,
              "velocity": 80,
              "position": 11.533333,
              "duration": 0.466667
            },
            {
              "pitch": 64,
              "velocity": 80,
              "position": 11.55,
              "duration": 0.358333
            },
            {
              "pitch": 60,
              "velocity": 80,
              "position": 11.583333,
              "duration": 0.308333
            },
            {
              "pitch": 55,
              "velocity": 46,
              "position": 11.616667,
              "duration": 0.258333
            },
            {
              "pitch": 48,
              "velocity": 58,
              "position": 11.933333,
              "duration": 3.608333
            },
            {
              "pitch": 55,
              "velocity": 71,
              "position": 11.983333,
              "duration": 2.691667
            },
            {
              "pitch": 60,
              "velocity": 80,
              "position": 12.0,
              "duration": 1.483333
            },
            {
              "pitch": 64,
              "velocity": 80,
              "position": 12.016667,
              "duration": 1.441667
            },
            {
              "pitch": 67,
              "velocity": 80,
              "position": 12.025,
              "duration": 1.316667
            },
            {
              "pitch": 71,
              "velocity": 80,
              "position": 12.041667,
              "duration": 1.3
            },
            {
              "pitch": 71,
              "velocity": 80,
              "position": 13.566667,
              "duration": 0.875
            },
            {
              "pitch": 67,
              "velocity": 80,
              "position": 13.6,
              "duration": 0.833333
            },
            {
              "pitch": 64,
              "velocity": 80,
              "position": 13.641667,
              "duration": 0.858333
            },
            {
              "pitch": 60,
              "velocity": 68,
              "position": 13.683333,
              "duration": 0.875
            },
            {
              "pitch": 71,
              "velocity": 80,
              "position": 14.566667,
              "duration": 0.858333
            },
            {
              "pitch": 67,
              "velocity": 80,
              "position": 14.608333,
              "duration": 0.416667
            },
            {
              "pitch": 64,
              "velocity": 74,
              "position": 14.65,
              "duration": 0.35
            },
            {
              "pitch": 60,
              "velocity": 56,
              "position": 14.675,
              "duration": 0.3
            },
            {
              "pitch": 55,
              "velocity": 49,
              "position": 15.008333,
              "duration": 0.816667
            },
            {
              "pitch": 60,
              "velocity": 76,
              "position": 15.033333,
              "duration": 0.791667
            },
            {
              "pitch": 64,
              "velocity": 80,
              "position": 15.058333,
              "duration": 0.766667
            },
            {
              "pitch": 67,
              "velocity": 64,
              "position": 15.091667,
              "duration": 0.4
            },
            {
              "pitch": 71,
              "velocity": 80,
              "position": 15.566667,
              "duration": 0.258333
            },
            {
              "pitch": 67,
              "velocity": 70,
              "position": 15.591667,
              "duration": 0.233333
            }
          ]
        },
        "13": {
          "ctab": {
            "srcChannel": 13,
            "name": "Strings",
            "accType": "PAD",
            "editable": true,
            "mutedNotes": [],
            "mutedChords": [],
            "sourceChordNote": 0,
            "sourceChordType": "Maj7",
            "ctb2Main": {
              "ntr": "ROOT_FIXED",
              "ntt": "MELODY",
              "bassOn": false,
              "noteLowLimit": 36,
              "noteHighLimit": 96,
              "chordRootUpperLimit": 127,
              "rtr": "PITCH_SHIFT"
            }
          },
          "notes": [
            {
              "pitch": 59,
              "velocity": 71,
              "position": 0.0,
              "duration": 1.358333
            },
            {
              "pitch": 60,
              "velocity": 78,
              "position": 0.5,
              "duration": 1.008333
            },
            {
              "pitch": 52,
              "velocity": 49,
              "position": 1.0,
              "duration": 0.475
            },
            {
              "pitch": 64,
              "velocity": 78,
              "position": 1.5,
              "duration": 0.233333
            },
            {
              "pitch": 64,
              "velocity": 78,
              "position": 2.0,
              "duration": 0.85
            },
            {
              "pitch": 59,
              "velocity": 50,
              "position": 2.5,
              "duration": 1.083333
            },
            {
              "pitch": 60,
              "velocity": 70,
              "position": 3.0,
              "duration": 0.733333
            },
            {
              "pitch": 64,
              "velocity": 78,
              "position": 3.5,
              "duration": 0.233333
            },
            {
              "pitch": 64,
              "velocity": 79,
              "position": 4.5,
              "duration": 0.8
            },
            {
              "pitch": 52,
              "velocity": 58,
              "position": 5.0,
              "duration": 0.733333
            },
            {
              "pitch": 60,
              "velocity": 71,
              "position": 5.5,
              "duration": 0.233333
            },
            {
              "pitch": 59,
              "velocity": 74,
              "position": 6.0,
              "duration": 1.733333
            },
            {
              "pitch": 60,
              "velocity": 61,
              "position": 6.5,
              "duration": 0.475
            },
            {
              "pitch": 60,
              "velocity": 74,
              "position": 7.5,
              "duration": 0.233333
            },
            {
              "pitch": 64,
              "velocity": 76,
              "position": 8.5,
              "duration": 0.8
            },
            {
              "pitch": 52,
              "velocity": 55,
              "position": 9.0,
              "duration": 1.008333
            },
            {
              "pitch": 60,
              "velocity": 68,
              "position": 9.5,
              "duration": 1.016667
            },
            {
              "pitch": 64,
              "velocity": 76,
              "position": 10.0,
              "duration": 1.341667
            },
            {
              "pitch": 52,
              "velocity": 71,
              "position": 11.0,
              "duration": 1.025
            },
            {
              "pitch": 60,
              "velocity": 76,
              "position": 11.5,
              "duration": 0.525
            },
            {
              "pitch": 60,
              "velocity": 76,
              "position": 12.5,
              "duration": 0.483333
            },
            {
              "pitch": 64,
              "velocity": 76,
              "position": 12.5,
              "duration": 0.833333
            },
            {
              "pitch": 52,
              "velocity": 63,
              "position": 13.0,
              "duration": 2.733333
            },
            {
              "pitch": 60,
              "velocity": 76,
              "position": 13.5,
              "duration": 1.125
            },
            {
              "pitch": 64,
              "velocity": 76,
              "position": 14.0,
              "duration": 0.783333
            },
            {
              "pitch": 59,
              "velocity": 48,
              "position": 15.0,
              "duration": 0.733333
            },
            {
              "pitch": 60,
              "velocity": 66,
              "position": 15.5,
              "duration": 0.233333
            },
            {
              "pitch": 64,
              "velocity": 76,
              "position": 15.5,
              "duration": 0.233333
            }
          ]
        }
      }
    },
    "Main_C": {
      "type": "Main_C",
      "sizeInBeats": 16,
      "channels": {
        "9": {
          "ctab": {
            "srcChannel": 9,
            "name": "Drums",
            "accType": "RHYTHM",
            "editable": false,
            "mutedNotes": [],
            "mutedChords": [],
            "sourceChordNote": 0,
            "sourceChordType": "Maj",
            "ctb2Main": {
              "ntr": "ROOT_FIXED",
              "ntt": "BYPASS",
              "bassOn": false,
              "noteLowLimit": 20,
              "noteHighLimit": 127,
              "chordRootUpperLimit": 127,
              "rtr": "RETRIGGER"
            }
          },
          "notes": [
            {
              "pitch": 74,
              "velocity": 90,
              "position": 0.0,
              "duration": 0.266667
            },
            {
              "pitch": 76,
              "velocity": 86,
              "position": 0.0,
              "duration": 0.266667
            },
            {
              "pitch": 56,
              "velocity": 90,
              "position": 0.008333,
              "duration": 0.266667
            },
            {
              "pitch": 49,
              "velocity": 56,
              "position": 0.016667,
              "duration": 0.95
            },
            {
              "pitch": 65,
              "velocity": 90,
              "position": 0.016667,
              "duration": 0.266667
            },
            {
              "pitch": 68,
              "velocity": 90,
              "position": 0.025,
              "duration": 0.266667
            },
            {
              "pitch": 63,
              "velocity": 90,
              "position": 0.05,
              "duration": 0.266667
            },
            {
              "pitch": 73,
              "velocity": 47,
              "position": 0.975,
              "duration": 0.266667
            },
            {
              "pitch": 62,
              "velocity": 90,
              "position": 1.008333,
              "duration": 0.266667
            },
            {
              "pitch": 68,
              "velocity": 90,
              "position": 1.025,
              "duration": 0.266667
            },
            {
              "pitch": 80,
              "velocity": 90,
              "position": 1.075,
              "duration": 0.266667
            },
            {
              "pitch": 73,
              "velocity": 30,
              "position": 1.491667,
              "duration": 0.266667
            },
            {
              "pitch": 62,
              "velocity": 61,
              "position": 1.525,
              "duration": 0.266667
            },
            {
              "pitch": 76,
              "velocity": 86,
              "position": 1.525,
              "duration": 0.266667
            },
            {
              "pitch": 56,
              "velocity": 90,
              "position": 2.016667,
              "duration": 0.266667
            },
            {
              "pitch": 74,
              "velocity": 90,
              "position": 2.025,
              "duration": 0.266667
            },
            {
              "pitch": 68,
              "velocity": 90,
              "position": 2.033333,
              "duration": 0.266667
            },
            {
              "pitch": 62,
              "velocity": 65,
              "position": 2.508333,
              "duration": 0.266667
            },
            {
              "pitch": 76,
              "velocity": 86,
              "position": 2.991667,
              "duration": 0.266667
            },
            {
              "pitch": 80,
              "velocity": 90,
              "position": 2.991667,
              "duration": 0.266667
            },
            {
              "pitch": 63,
              "velocity": 90,
              "position": 3.0,
              "duration": 0.266667
            },
            {
              "pitch": 68,
              "velocity": 90,
              "position": 3.016667,
              "duration": 0.266667
            },
            {
              "pitch": 73,
              "velocity": 67,
              "position": 3.041667,
              "duration": 0.266667
            },
            {
              "pitch": 63,
              "velocity": 90,
              "position": 3.508333,
              "duration": 0.266667
            },
            {
              "pitch": 80,
              "velocity": 90,
              "position": 3.516667,
              "duration": 0.266667
            },
            {
              "pitch": 73,
              "velocity": 45,
              "position": 3.533333,
              "duration": 0.266667
            },
            {
              "pitch": 56,
              "velocity": 90,
              "position": 4.025,
              "duration": 0.266667
            },
            {
              "pitch": 74,
              "velocity": 90,
              "position": 4.05,
              "duration": 0.266667
            },
            {
              "pitch": 68,
              "velocity": 89,
              "position": 4.508333,
              "duration": 0.266667
            },
            {
              "pitch": 62,
              "velocity": 47,
              "position": 4.541667,
              "duration": 0.266667
            },
            {
              "pitch": 68,
              "velocity": 90,
              "position": 4.975,
              "duration": 0.266667
            },
            {
              "pitch": 73,
              "velocity": 69,
              "position": 5.0,
              "duration": 0.266667
            },
            {
              "pitch": 76,
              "velocity": 86,
              "position": 5.008333,
              "duration": 0.266667
            },
            {
              "pitch": 62,
              "velocity": 90,
              "position": 5.016667,
              "duration": 0.266667
            },
            {
              "pitch": 80,
              "velocity": 90,
              "position": 5.041667,
              "duration": 0.266667
            },
            {
              "pitch": 68,
              "velocity": 90,
              "position": 5.491667,
              "duration": 0.266667
            },
            {
              "pitch": 63,
              "velocity": 65,
              "position": 5.508333,
              "duration": 0.266667
            },
            {
              "pitch": 73,
              "velocity": 47,
              "position": 5.525,
              "duration": 0.266667
            },
            {
              "pitch": 80,
              "velocity": 90,
              "position": 5.533333,
              "duration": 0.266667
            },
            {
              "pitch": 68,
              "velocity": 90,
              "position": 5.975,
              "duration": 0.266667
            },
            {
              "pitch": 63,
              "velocity": 81,
              "position": 6.008333,
              "duration": 0.266667
            },
            {
              "pitch": 76,
              "velocity": 86,
              "position": 6.008333,
              "duration": 0.266667
            },
            {
              "pitch": 56,
              "velocity": 90,
              "position": 6.025,
              "duration": 0.266667
            },
            {
              "pitch": 74,
              "velocity": 70,
              "position": 6.075,
              "duration": 0.266667
            },
            {
              "pitch": 63,
              "velocity": 81,
              "position": 6.5,
              "duration": 0.266667
            },
            {
              "pitch": 68,
              "velocity": 90,
              "position": 7.0,
              "duration": 0.266667
            },
            {
              "pitch": 64,
              "velocity": 66,
              "position": 7.008333,
              "duration": 0.266667
            },
            {
              "pitch": 73,
              "velocity": 83,
              "position": 7.033333,
              "duration": 0.266667
            },
            {
              "pitch": 80,
              "velocity": 90,
              "position": 7.033333,
              "duration": 0.266667
            },
            {
              "pitch": 68,
              "velocity": 90,
              "position": 7.5,
              "duration": 0.266667
            },
            {
              "pitch": 63,
              "velocity": 81,
              "position": 7.508333,
              "duration": 0.266667
            },
            {
              "pitch": 73,
              "velocity": 65,
              "position": 7.533333,
              "duration": 0.266667
            },
            {
              "pitch": 80,
              "velocity": 90,
              "position": 7.558333,
              "duration": 0.266667
            },
            {
              "pitch": 68,
              "velocity": 90,
              "position": 8.0,
              "duration": 0.266667
            },
            {
              "pitch": 76,
              "velocity": 86,
              "position": 8.0,
              "duration": 0.266667
            },
            {
              "pitch": 63,
              "velocity": 90,
              "position": 8.041667,
              "duration": 0.266667
            },
            {
              "pitch": 74,
              "velocity": 86,
              "position": 8.05,
              "duration": 0.266667
            },
            {
              "pitch": 56,
              "velocity": 90,
              "position": 8.066667,
              "duration": 0.266667
            },
            {
              "pitch": 62,
              "velocity": 82,
              "position": 8.991667,
              "duration": 0.266667
            },
            {
              "pitch": 73,
              "velocity": 57,
              "position": 8.991667,
              "duration": 0.266667
            },
            {
              "pitch": 68,
              "velocity": 90,
              "position": 9.008333,
              "duration": 0.266667
            },
            {
              "pitch": 80,
              "velocity": 90,
              "position": 9.075,
              "duration": 0.266667
            },
            {
              "pitch": 62,
              "velocity": 65,
              "position": 9.508333,
              "duration": 0.266667
            },
            {
              "pitch": 73,
              "velocity": 41,
              "position": 9.516667,
              "duration": 0.266667
            },
            {
              "pitch": 76,
              "velocity": 86,
              "position": 9.525,
              "duration": 0.266667
            },
            {
              "pitch": 68,
              "velocity": 34,
              "position": 10.05,
              "duration": 0.266667
            },
            {
              "pitch": 74,
              "velocity": 90,
              "position": 10.05,
              "duration": 0.266667
            },
            {
              "pitch": 56,
              "velocity": 90,
              "position": 10.066667,
              "duration": 0.266667
            },
            {
              "pitch": 68,
              "velocity": 90,
              "position": 10.508333,
              "duration": 0.266667
            },
            {
              "pitch": 62,
              "velocity": 89,
              "position": 10.533333,
              "duration": 0.266667
            },
            {
              "pitch": 76,
              "velocity": 86,
              "position": 10.991667,
              "duration": 0.266667
            },
            {
              "pitch": 68,
              "velocity": 90,
              "position": 11.0,
              "duration": 0.266667
            },
            {
              "pitch": 73,
              "velocity": 75,
              "position": 11.008333,
              "duration": 0.266667
            },
            {
              "pitch": 63,
              "velocity": 90,
              "position": 11.025,
              "duration": 0.266667
            },
            {
              "pitch": 80,
              "velocity": 90,
              "position": 11.058333,
              "duration": 0.266667
            },
            {
              "pitch": 68,
              "velocity": 90,
              "position": 11.508333,
              "duration": 0.266667
            },
            {
              "pitch": 73,
              "velocity": 30,
              "position": 11.508333,
              "duration": 0.266667
            },
            {
              "pitch": 63,
              "velocity": 90,
              "position": 11.541667,
              "duration": 0.266667
            },
            {
              "pitch": 80,
              "velocity": 90,
              "position": 11.566667,
              "duration": 0.266667
            },
            {
              "pitch": 56,
              "velocity": 90,
              "position": 12.025,
              "duration": 0.266667
            },
            {
              "pitch": 74,
              "velocity": 90,
              "position": 12.05,
              "duration": 0.266667
            },
            {
              "pitch": 68,
              "velocity": 89,
              "position": 12.508333,
              "duration": 0.266667
            },
            {
              "pitch": 62,
              "velocity": 47,
              "position": 12.541667,
              "duration": 0.266667
            },
            {
              "pitch": 68,
              "velocity": 90,
              "position": 12.975,
              "duration": 0.266667
            },
            {
              "pitch": 73,
              "velocity": 69,
              "position": 13.0,
              "duration": 0.266667
            },
            {
              "pitch": 76,
              "velocity": 86,
              "position": 13.008333,
              "duration": 0.266667
            },
            {
              "pitch": 62,
              "velocity": 90,
              "position": 13.016667,
              "duration": 0.266667
            },
            {
              "pitch": 80,
              "velocity": 90,
              "position": 13.041667,
              "duration": 0.266667
            },
            {
              "pitch": 68,
              "velocity": 90,
              "position": 13.491667,
              "duration": 0.266667
            },
            {
              "pitch": 63,
              "velocity": 65,
              "position": 13.508333,
              "duration": 0.266667
            },
            {
              "pitch": 73,
              "velocity": 47,
              "position": 13.525,
              "duration": 0.266667
            },
            {
              "pitch": 80,
              "velocity": 90,
              "position": 13.533333,
              "duration": 0.266667
            },
            {
              "pitch": 68,
              "velocity": 90,
              "position": 13.975,
              "duration": 0.266667
            },
            {
              "pitch": 63,
              "velocity": 81,
              "position": 14.008333,
              "duration": 0.266667
            },
            {
              "pitch": 76,
              "velocity": 86,
              "position": 14.008333,
              "duration": 0.266667
            },
            {
              "pitch": 56,
              "velocity": 90,
              "position": 14.025,
              "duration": 0.266667
            },
            {
              "pitch": 74,
              "velocity": 70,
              "position": 14.075,
              "duration": 0.266667
            },
            {
              "pitch": 63,
              "velocity": 81,
              "position": 14.5,
              "duration": 0.266667
            },
            {
              "pitch": 62,
              "velocity": 76,
              "position": 14.925,
              "duration": 0.108333
            },
            {
              "pitch": 68,
              "velocity": 90,
              "position": 15.0,
              "duration": 0.433333
            },
            {
              "pitch": 64,
              "velocity": 95,
              "position": 15.008333,
              "duration": 0.425
            },
            {
              "pitch": 73,
              "velocity": 83,
              "position": 15.033333,
              "duration": 0.408333
            },
            {
              "pitch": 80,
              "velocity": 90,
              "position": 15.033333,
              "duration": 0.266667
            },
            {
              "pitch": 62,
              "velocity": 65,
              "position": 15.441667,
              "duration": 0.091667
            },
            {
              "pitch": 68,
              "velocity": 90,
              "position": 15.5,
              "duration": 0.266667
            },
            {
              "pitch": 64,
              "velocity": 81,
              "position": 15.508333,
              "duration": 0.266667
            },
            {
              "pitch": 73,
              "velocity": 65,
              "position": 15.533333,
              "duration": 0.266667
            },
            {
              "pitch": 80,
              "velocity": 90,
              "position": 15.558333,
              "duration": 0.266667
            }
          ]
        },
        "10": {
          "ctab": {
            "srcChannel": 10,
            "name": "Bass",
            "accType": "BASS",
            "editable": true,
            "mutedNotes": [],
            "mutedChords": [],
            "sourceChordNote": 0,
            "sourceChordType": "Maj7",
            "ctb2Main": {
              "ntr": "ROOT_TRANSPOSITION",
              "ntt": "BYPASS",
              "bassOn": true,
              "noteLowLimit": 20,
              "noteHighLimit": 60,
              "chordRootUpperLimit": 127,
              "rtr": "NOTE_GENERATOR"
            }
          },
          "notes": [
            {
              "pitch": 36,
              "velocity": 84,
              "position": 0.0,
              "duration": 1.058333
            },
            {
              "pitch": 31,
              "velocity": 84,
              "position": 1.5,
              "duration": 0.458333
            },
            {
              "pitch": 36,
              "velocity": 84,
              "position": 2.0,
              "duration": 1.058333
            },
            {
              "pitch": 31,
              "velocity": 84,
              "position": 3.5,
              "duration": 0.458333
            },
            {
              "pitch": 36,
              "velocity": 84,
              "position": 4.0,
              "duration": 1.058333
            },
            {
              "pitch": 31,
              "velocity": 84,
              "position": 5.5,
              "duration": 0.458333
            },
            {
              "pitch": 36,
              "velocity": 84,
              "position": 6.0,
              "duration": 1.058333
            },
            {
              "pitch": 31,
              "velocity": 84,
              "position": 7.5,
              "duration": 0.458333
            },
            {
              "pitch": 36,
              "velocity": 85,
              "position": 8.0,
              "duration": 1.058333
            },
            {
              "pitch": 36,
              "velocity": 85,
              "position": 9.5,
              "duration": 0.475
            },
            {
              "pitch": 36,
              "velocity": 85,
              "position": 10.0,
              "duration": 0.925
            },
            {
              "pitch": 36,
              "velocity": 85,
              "position": 11.5,
              "duration": 0.375
            },
            {
              "pitch": 36,
              "velocity": 85,
              "position": 12.0,
              "duration": 1.133333
            },
            {
              "pitch": 36,
              "velocity": 78,
              "position": 13.5,
              "duration": 0.325
            },
            {
              "pitch": 36,
              "velocity": 86,
              "position": 14.0,
              "duration": 0.991667
            },
            {
              "pitch": 43,
              "velocity": 85,
              "position": 15.0,
              "duration": 0.508333
            },
            {
              "pitch": 31,
              "velocity": 85,
              "position": 15.5,
              "duration": 0.408333
            }
          ]
        },
        "11": {
          "ctab": {
            "srcChannel": 11,
            "name": "Piano",
            "accType": "CHORD1",
            "editable": true,
            "mutedNotes": [],
            "mutedChords": [],
            "sourceChordNote": 0,
            "sourceChordType": "Maj7",
            "ctb2Main": {
              "ntr": "ROOT_FIXED",
              "ntt": "CHORD",
              "bassOn": false,
              "noteLowLimit": 48,
              "noteHighLimit": 84,
              "chordRootUpperLimit": 127,
              "rtr": "NOTE_GENERATOR"
            }
          },
          "notes": []
        },
        "12": {
          "ctab": {
            "srcChannel": 12,
            "name": "Guitar",
            "accType": "CHORD2",
            "editable": true,
            "mutedNotes": [],
            "mutedChords": [],
            "sourceChordNote": 0,
            "sourceChordType": "Maj7",
            "ctb2Main": {
              "ntr": "ROOT_FIXED",
              "ntt": "CHORD",
              "bassOn": false,
              "noteLowLimit": 40,
              "noteHighLimit": 76,
              "chordRootUpperLimit": 127,
              "rtr": "NOTE_GENERATOR"
            }
          },
          "notes": [
            {
              "pitch": 48,
              "velocity": 49,
              "position": 0.0,
              "duration": 1.491667
            },
            {
              "pitch": 55,
              "velocity": 64,
              "position": 0.016667,
              "duration": 1.433333
            },
            {
              "pitch": 60,
              "velocity": 80,
              "position": 0.033333,
              "duration": 1.383333
            },
            {
              "pitch": 64,
              "velocity": 80,
              "position": 0.05,
              "duration": 1.341667
            },
            {
              "pitch": 67,
              "velocity": 80,
              "position": 0.066667,
              "duration": 1.258333
            },
            {
              "pitch": 71,
              "velocity": 80,
              "position": 0.083333,
              "duration": 1.216667
            },
            {
              "pitch": 71,
              "velocity": 80,
              "position": 1.508333,
              "duration": 0.441667
            },
            {
              "pitch": 67,
              "velocity": 80,
              "position": 1.533333,
              "duration": 0.458333
            },
            {
              "pitch": 64,
              "velocity": 80,
              "position": 1.566667,
              "duration": 0.391667
            },
            {
              "pitch": 60,
              "velocity": 80,
              "position": 1.6,
              "duration": 0.375
            },
            {
              "pitch": 55,
              "velocity": 80,
              "position": 1.641667,
              "duration": 0.316667
            },
            {
              "pitch": 48,
              "velocity": 42,
              "position": 1.691667,
              "duration": 0.25
            },
            {
              "pitch": 48,
              "velocity": 66,
              "position": 2.0,
              "duration": 1.733333
            },
            {
              "pitch": 55,
              "velocity": 80,
              "position": 2.008333,
              "duration": 1.733333
            },
            {
              "pitch": 60,
              "velocity": 80,
              "position": 2.025,
              "duration": 1.708333
            },
            {
              "pitch": 64,
              "velocity": 80,
              "position": 2.033333,
              "duration": 0.416667
            },
            {
              "pitch": 67,
              "velocity": 80,
              "position": 2.041667,
              "duration": 0.358333
            },
            {
              "pitch": 71,
              "velocity": 80,
              "position": 2.483333,
              "duration": 0.866667
            },
            {
              "pitch": 67,
              "velocity": 80,
              "position": 2.508333,
              "duration": 0.85
            },
            {
              "pitch": 64,
              "velocity": 80,
              "position": 2.525,
              "duration": 0.85
            },
            {
              "pitch": 71,
              "velocity": 80,
              "position": 3.425,
              "duration": 0.308333
            },
            {
              "pitch": 67,
              "velocity": 80,
              "position": 3.45,
              "duration": 0.283333
            },
            {
              "pitch": 64,
              "velocity": 76,
              "position": 3.475,
              "duration": 0.258333
            },
            {
              "pitch": 48,
              "velocity": 49,
              "position": 4.0,
              "duration": 1.491667
            },
            {
              "pitch": 55,
              "velocity": 64,
              "position": 4.016667,
              "duration": 1.433333
            },
            {
              "pitch": 60,
              "velocity": 80,
              "position": 4.033333,
              "duration": 1.383333
            },
            {
              "pitch": 64,
              "velocity": 80,
              "position": 4.05,
              "duration": 1.341667
            },
            {
              "pitch": 67,
              "velocity": 80,
              "position": 4.066667,
              "duration": 1.258333
            },
            {
              "pitch": 71,
              "velocity": 80,
              "position": 4.083333,
              "duration": 1.216667
            },
            {
              "pitch": 71,
              "velocity": 80,
              "position": 5.508333,
              "duration": 0.441667
            },
            {
              "pitch": 67,
              "velocity": 80,
              "position": 5.533333,
              "duration": 0.458333
            },
            {
              "pitch": 64,
              "velocity": 80,
              "position": 5.566667,
              "duration": 0.391667
            },
            {
              "pitch": 60,
              "velocity": 80,
              "position": 5.6,
              "duration": 0.375
            },
            {
              "pitch": 55,
              "velocity": 80,
              "position": 5.641667,
              "duration": 0.316667
            },
            {
              "pitch": 48,
              "velocity": 42,
              "position": 5.691667,
              "duration": 0.25
            },
            {
              "pitch": 48,
              "velocity": 80,
              "position": 6.0,
              "duration": 1.733333
            },
            {
              "pitch": 55,
              "velocity": 60,
              "position": 6.058333,
              "duration": 1.433333
            },
            {
              "pitch": 60,
              "velocity": 73,
              "position": 6.066667,
              "duration": 1.433333
            },
            {
              "pitch": 71,
              "velocity": 80,
              "position": 6.508333,
              "duration": 0.808333
            },
            {
              "pitch": 67,
              "velocity": 80,
              "position": 6.525,
              "duration": 0.783333
            },
            {
              "pitch": 71,
              "velocity": 80,
              "position": 7.5,
              "duration": 0.291667
            },
            {
              "pitch": 64,
              "velocity": 74,
              "position": 7.516667,
              "duration": 0.366667
            },
            {
              "pitch": 67,
              "velocity": 80,
              "position": 7.525,
              "duration": 0.291667
            },
            {
              "pitch": 48,
              "velocity": 79,
              "position": 8.091667,
              "duration": 3.475
            },
            {
              "pitch": 55,
              "velocity": 71,
              "position": 8.108333,
              "duration": 1.416667
            },
            {
              "pitch": 60,
              "velocity": 64,
              "position": 8.125,
              "duration": 0.483333
            },
            {
              "pitch": 64,
              "velocity": 63,
              "position": 8.133333,
              "duration": 0.45
            },
            {
              "pitch": 67,
              "velocity": 58,
              "position": 8.141667,
              "duration": 0.433333
            },
            {
              "pitch": 71,
              "velocity": 61,
              "position": 8.15,
              "duration": 0.383333
            },
            {
              "pitch": 71,
              "velocity": 80,
              "position": 8.625,
              "duration": 0.841667
            },
            {
              "pitch": 67,
              "velocity": 80,
              "position": 8.65,
              "duration": 0.816667
            },
            {
              "pitch": 64,
              "velocity": 80,
              "position": 8.666667,
              "duration": 0.8
            },
            {
              "pitch": 60,
              "velocity": 80,
              "position": 8.683333,
              "duration": 0.875
            },
            {
              "pitch": 71,
              "velocity": 80,
              "position": 9.55,
              "duration": 0.458333
            },
            {
              "pitch": 67,
              "velocity": 80,
              "position": 9.583333,
              "duration": 0.408333
            },
            {
              "pitch": 64,
              "velocity": 80,
              "position": 9.616667,
              "duration": 0.358333
            },
            {
              "pitch": 60,
              "velocity": 80,
              "position": 9.65,
              "duration": 0.308333
            },
            {
              "pitch": 55,
              "velocity": 49,
              "position": 9.683333,
              "duration": 0.266667
            },
            {
              "pitch": 55,
              "velocity": 80,
              "position": 10.041667,
              "duration": 1.316667
            },
            {
              "pitch": 60,
              "velocity": 80,
              "position": 10.066667,
              "duration": 1.275
            },
            {
              "pitch": 64,
              "velocity": 80,
              "position": 10.075,
              "duration": 1.133333
            },
            {
              "pitch": 67,
              "velocity": 80,
              "position": 10.091667,
              "duration": 1.108333
            },
            {
              "pitch": 71,
              "velocity": 80,
              "position": 10.1,
              "duration": 1.091667
            },
            {
              "pitch": 67,
              "velocity": 80,
              "position": 11.508333,
              "duration": 0.408333
            },
            {
              "pitch": 71,
              "velocity": 80,
              "position": 11.533333,
              "duration": 0.466667
            },
            {
              "pitch": 64,
              "velocity": 80,
              "position": 11.55,
              "duration": 0.358333
            },
            {
              "pitch": 60,
              "velocity": 80,
              "position": 11.583333,
              "duration": 0.308333
            },
            {
              "pitch": 55,
              "velocity": 46,
              "position": 11.616667,
              "duration": 0.258333
            },
            {
              "pitch": 48,
              "velocity": 58,
              "position": 11.933333,
              "duration": 3.608333
            },
            {
              "pitch": 55,
              "velocity": 71,
              "position": 11.983333,
              "duration": 2.691667
            },
            {
              "pitch": 60,
              "velocity": 80,
              "position": 12.0,
              "duration": 1.483333
            },
            {
              "pitch": 64,
              "velocity": 80,
              "position": 12.016667,
              "duration": 1.441667
            },
            {
              "pitch": 67,
              "velocity": 80,
              "position": 12.025,
              "duration": 1.316667
            },
            {
              "pitch": 71,
              "velocity": 80,
              "position": 12.041667,
              "duration": 1.3
            },
            {
              "pitch": 71,
              "velocity": 80,
              "position": 13.566667,
              "duration": 0.875
            },
            {
              "pitch": 67,
              "velocity": 80,
              "position": 13.6,
              "duration": 0.833333
            },
            {
              "pitch": 64,
              "velocity": 80,
              "position": 13.641667,
              "duration": 0.858333
            },
            {
              "pitch": 60,
              "velocity": 68,
              "position": 13.683333,
              "duration": 0.875
            },
            {
              "pitch": 71,
              "velocity": 80,
              "position": 14.566667,
              "duration": 0.858333
            },
            {
              "pitch": 67,
              "velocity": 80,
              "position": 14.608333,
              "duration": 0.416667
            },
            {
              "pitch": 64,
              "velocity": 74,
              "position": 14.65,
              "duration": 0.35
            },
            {
              "pitch": 60,
              "velocity": 56,
              "position": 14.675,
              "duration": 0.3
            },
            {
              "pitch": 55,
              "velocity": 49,
              "position": 15.008333,
              "duration": 0.816667
            },
            {
              "pitch": 60,
              "velocity": 76,
              "position": 15.033333,
              "duration": 0.791667
            },
            {
              "pitch": 64,
              "velocity": 80,
              "position": 15.058333,
              "duration": 0.766667
            },
            {
              "pitch": 67,
              "velocity": 64,
              "position": 15.091667,
              "duration": 0.4
            },
            {
              "pitch": 71,
              "velocity": 80,
              "position": 15.566667,
              "duration": 0.258333
            },
            {
              "pitch": 67,
              "velocity": 70,
              "position": 15.591667,
              "duration": 0.233333
            }
          ]
        },
        "13": {
          "ctab": {
            "srcChannel": 13,
            "name": "Strings",
            "accType": "PAD",
            "editable": true,
            "mutedNotes": [],
            "mutedChords": [],
            "sourceChordNote": 0,
            "sourceChordType": "Maj7",
            "ctb2Main": {
              "ntr": "ROOT_FIXED",
              "ntt": "MELODY",
              "bassOn": false,
              "noteLowLimit": 36,
              "noteHighLimit": 96,
              "chordRootUpperLimit": 127,
              "rtr": "PITCH_SHIFT"
            }
          },
          "notes": [
            {
              "pitch": 59,
              "velocity": 71,
              "position": 0.0,
              "duration": 1.358333
            },
            {
              "pitch": 60,
              "velocity": 78,
              "position": 0.5,
              "duration": 1.008333
            },
            {
              "pitch": 52,
              "velocity": 49,
              "position": 1.0,
              "duration": 0.475
            },
            {
              "pitch": 64,
              "velocity": 78,
              "position": 1.5,
              "duration": 0.233333
            },
            {
              "pitch": 64,
              "velocity": 78,
              "position": 2.0,
              "duration": 0.85
            },
            {
              "pitch": 59,
              "velocity": 50,
              "position": 2.5,
              "duration": 1.083333
            },
            {
              "pitch": 60,
              "velocity": 70,
              "position": 3.0,
              "duration": 0.733333
            },
            {
              "pitch": 64,
              "velocity": 78,
              "position": 3.5,
              "duration": 0.233333
            },
            {
              "pitch": 60,
              "velocity": 65,
              "position": 4.5,
              "duration": 0.458333
            },
            {
              "pitch": 64,
              "velocity": 72,
              "position": 4.5,
              "duration": 0.791667
            },
            {
              "pitch": 60,
              "velocity": 72,
              "position": 5.5,
              "duration": 0.233333
            },
            {
              "pitch": 67,
              "velocity": 80,
              "position": 6.025,
              "duration": 0.483333
            },
            {
              "pitch": 64,
              "velocity": 80,
              "position": 6.033333,
              "duration": 0.233333
            },
            {
              "pitch": 60,
              "velocity": 51,
              "position": 6.541667,
              "duration": 0.283333
            },
            {
              "pitch": 67,
              "velocity": 66,
              "position": 7.041667,
              "duration": 0.366667
            },
            {
              "pitch": 64,
              "velocity": 52,
              "position": 7.05,
              "duration": 0.4
            },
            {
              "pitch": 67,
              "velocity": 80,
              "position": 7.591667,
              "duration": 0.116667
            },
            {
              "pitch": 64,
              "velocity": 80,
              "position": 7.608333,
              "duration": 0.125
            },
            {
              "pitch": 64,
              "velocity": 76,
              "position": 8.5,
              "duration": 0.8
            },
            {
              "pitch": 52,
              "velocity": 55,
              "position": 9.0,
              "duration": 1.008333
            },
            {
              "pitch": 60,
              "velocity": 68,
              "position": 9.5,
              "duration": 1.016667
            },
            {
              "pitch": 64,
              "velocity": 76,
              "position": 10.0,
              "duration": 1.341667
            },
            {
              "pitch": 52,
              "velocity": 71,
              "position": 11.0,
              "duration": 1.025
            },
            {
              "pitch": 60,
              "velocity": 76,
              "position": 11.5,
              "duration": 0.525
            },
            {
              "pitch": 60,
              "velocity": 76,
              "position": 12.5,
              "duration": 0.483333
            },
            {
              "pitch": 64,
              "velocity": 76,
              "position": 12.5,
              "duration": 0.833333
            },
            {
              "pitch": 52,
              "velocity": 63,
              "position": 13.0,
              "duration": 2.733333
            },
            {
              "pitch": 60,
              "velocity": 76,
              "position": 13.5,
              "duration": 1.125
            },
            {
              "pitch": 64,
              "velocity": 76,
              "position": 14.0,
              "duration": 0.783333
            },
            {
              "pitch": 59,
              "velocity": 48,
              "position": 15.0,
              "duration": 0.733333
            },
            {
              "pitch": 60,
              "velocity": 66,
              "position": 15.5,
              "duration": 0.233333
            },
            {
              "pitch": 64,
              "velocity": 76,
              "position": 15.5,
              "duration": 0.233333
            }
          ]
        }
      }
    },
    "Main_D": {
      "type": "Main_D",
      "sizeInBeats": 16,
      "channels": {
        "9": {
          "ctab": {
            "srcChannel": 9,
            "name": "Drums",
            "accType": "RHYTHM",
            "editable": false,
            "mutedNotes": [],
            "mutedChords": [],
            "sourceChordNote": 0,
            "sourceChordType": "Maj",
            "ctb2Main": {
              "ntr": "ROOT_FIXED",
              "ntt": "BYPASS",
              "bassOn": false,
              "noteLowLimit": 20,
              "noteHighLimit": 127,
              "chordRootUpperLimit": 127,
              "rtr": "RETRIGGER"
            }
          },
          "notes": [
            {
              "pitch": 74,
              "velocity": 90,
              "position": 0.0,
              "duration": 0.266667
            },
            {
              "pitch": 76,
              "velocity": 86,
              "position": 0.0,
              "duration": 0.266667
            },
            {
              "pitch": 56,
              "velocity": 90,
              "position": 0.008333,
              "duration": 0.266667
            },
            {
              "pitch": 49,
              "velocity": 56,
              "position": 0.016667,
              "duration": 0.95
            },
            {
              "pitch": 65,
              "velocity": 90,
              "position": 0.016667,
              "duration": 0.266667
            },
            {
              "pitch": 68,
              "velocity": 90,
              "position": 0.025,
              "duration": 0.266667
            },
            {
              "pitch": 63,
              "velocity": 90,
              "position": 0.05,
              "duration": 0.266667
            },
            {
              "pitch": 73,
              "velocity": 47,
              "position": 0.975,
              "duration": 0.266667
            },
            {
              "pitch": 62,
              "velocity": 90,
              "position": 1.008333,
              "duration": 0.266667
            },
            {
              "pitch": 68,
              "velocity": 90,
              "position": 1.025,
              "duration": 0.266667
            },
            {
              "pitch": 80,
              "velocity": 90,
              "position": 1.075,
              "duration": 0.266667
            },
            {
              "pitch": 73,
              "velocity": 30,
              "position": 1.491667,
              "duration": 0.266667
            },
            {
              "pitch": 62,
              "velocity": 61,
              "position": 1.525,
              "duration": 0.266667
            },
            {
              "pitch": 76,
              "velocity": 86,
              "position": 1.525,
              "duration": 0.266667
            },
            {
              "pitch": 56,
              "velocity": 90,
              "position": 2.016667,
              "duration": 0.266667
            },
            {
              "pitch": 74,
              "velocity": 90,
              "position": 2.025,
              "duration": 0.266667
            },
            {
              "pitch": 68,
              "velocity": 90,
              "position": 2.033333,
              "duration": 0.266667
            },
            {
              "pitch": 62,
              "velocity": 65,
              "position": 2.508333,
              "duration": 0.266667
            },
            {
              "pitch": 76,
              "velocity": 86,
              "position": 2.991667,
              "duration": 0.266667
            },
            {
              "pitch": 80,
              "velocity": 90,
              "position": 2.991667,
              "duration": 0.266667
            },
            {
              "pitch": 63,
              "velocity": 90,
              "position": 3.0,
              "duration": 0.266667
            },
            {
              "pitch": 68,
              "velocity": 90,
              "position": 3.016667,
              "duration": 0.266667
            },
            {
              "pitch": 73,
              "velocity": 67,
              "position": 3.041667,
              "duration": 0.266667
            },
            {
              "pitch": 63,
              "velocity": 90,
              "position": 3.508333,
              "duration": 0.266667
            },
            {
              "pitch": 80,
              "velocity": 90,
              "position": 3.516667,
              "duration": 0.266667
            },
            {
              "pitch": 73,
              "velocity": 45,
              "position": 3.533333,
              "duration": 0.266667
            },
            {
              "pitch": 74,
              "velocity": 90,
              "position": 4.033333,
              "duration": 0.266667
            },
            {
              "pitch": 56,
              "velocity": 90,
              "position": 4.05,
              "duration": 0.266667
            },
            {
              "pitch": 62,
              "velocity": 82,
              "position": 4.5,
              "duration": 0.266667
            },
            {
              "pitch": 68,
              "velocity": 90,
              "position": 4.55,
              "duration": 0.266667
            },
            {
              "pitch": 73,
              "velocity": 73,
              "position": 4.991667,
              "duration": 0.266667
            },
            {
              "pitch": 76,
              "velocity": 86,
              "position": 5.008333,
              "duration": 0.266667
            },
            {
              "pitch": 62,
              "velocity": 90,
              "position": 5.016667,
              "duration": 0.266667
            },
            {
              "pitch": 68,
              "velocity": 90,
              "position": 5.025,
              "duration": 0.266667
            },
            {
              "pitch": 80,
              "velocity": 90,
              "position": 5.041667,
              "duration": 0.266667
            },
            {
              "pitch": 73,
              "velocity": 75,
              "position": 5.491667,
              "duration": 0.266667
            },
            {
              "pitch": 66,
              "velocity": 90,
              "position": 5.5,
              "duration": 0.266667
            },
            {
              "pitch": 64,
              "velocity": 77,
              "position": 5.525,
              "duration": 0.266667
            },
            {
              "pitch": 68,
              "velocity": 90,
              "position": 5.525,
              "duration": 0.266667
            },
            {
              "pitch": 80,
              "velocity": 90,
              "position": 5.566667,
              "duration": 0.266667
            },
            {
              "pitch": 68,
              "velocity": 90,
              "position": 6.0,
              "duration": 0.266667
            },
            {
              "pitch": 76,
              "velocity": 86,
              "position": 6.008333,
              "duration": 0.266667
            },
            {
              "pitch": 74,
              "velocity": 90,
              "position": 6.016667,
              "duration": 0.266667
            },
            {
              "pitch": 64,
              "velocity": 88,
              "position": 6.033333,
              "duration": 0.266667
            },
            {
              "pitch": 56,
              "velocity": 90,
              "position": 6.05,
              "duration": 0.266667
            },
            {
              "pitch": 62,
              "velocity": 90,
              "position": 6.5,
              "duration": 0.266667
            },
            {
              "pitch": 68,
              "velocity": 90,
              "position": 6.541667,
              "duration": 0.266667
            },
            {
              "pitch": 65,
              "velocity": 90,
              "position": 6.983333,
              "duration": 0.266667
            },
            {
              "pitch": 73,
              "velocity": 85,
              "position": 6.983333,
              "duration": 0.266667
            },
            {
              "pitch": 63,
              "velocity": 90,
              "position": 7.016667,
              "duration": 0.266667
            },
            {
              "pitch": 80,
              "velocity": 90,
              "position": 7.075,
              "duration": 0.266667
            },
            {
              "pitch": 68,
              "velocity": 90,
              "position": 7.475,
              "duration": 0.266667
            },
            {
              "pitch": 73,
              "velocity": 65,
              "position": 7.475,
              "duration": 0.266667
            },
            {
              "pitch": 65,
              "velocity": 90,
              "position": 7.483333,
              "duration": 0.266667
            },
            {
              "pitch": 80,
              "velocity": 90,
              "position": 7.533333,
              "duration": 0.266667
            },
            {
              "pitch": 63,
              "velocity": 90,
              "position": 7.541667,
              "duration": 0.266667
            },
            {
              "pitch": 76,
              "velocity": 86,
              "position": 8.008333,
              "duration": 0.266667
            },
            {
              "pitch": 68,
              "velocity": 90,
              "position": 8.025,
              "duration": 0.266667
            },
            {
              "pitch": 56,
              "velocity": 90,
              "position": 8.041667,
              "duration": 0.266667
            },
            {
              "pitch": 74,
              "velocity": 90,
              "position": 8.041667,
              "duration": 0.266667
            },
            {
              "pitch": 62,
              "velocity": 70,
              "position": 8.508333,
              "duration": 0.266667
            },
            {
              "pitch": 62,
              "velocity": 90,
              "position": 9.0,
              "duration": 0.266667
            },
            {
              "pitch": 68,
              "velocity": 90,
              "position": 9.025,
              "duration": 0.266667
            },
            {
              "pitch": 73,
              "velocity": 41,
              "position": 9.025,
              "duration": 0.266667
            },
            {
              "pitch": 80,
              "velocity": 90,
              "position": 9.041667,
              "duration": 0.266667
            },
            {
              "pitch": 73,
              "velocity": 59,
              "position": 9.516667,
              "duration": 0.266667
            },
            {
              "pitch": 76,
              "velocity": 86,
              "position": 9.516667,
              "duration": 0.266667
            },
            {
              "pitch": 56,
              "velocity": 90,
              "position": 10.041667,
              "duration": 0.266667
            },
            {
              "pitch": 74,
              "velocity": 90,
              "position": 10.066667,
              "duration": 0.266667
            },
            {
              "pitch": 68,
              "velocity": 30,
              "position": 10.083333,
              "duration": 0.266667
            },
            {
              "pitch": 68,
              "velocity": 90,
              "position": 10.516667,
              "duration": 0.266667
            },
            {
              "pitch": 62,
              "velocity": 84,
              "position": 10.533333,
              "duration": 0.266667
            },
            {
              "pitch": 76,
              "velocity": 86,
              "position": 11.0,
              "duration": 0.266667
            },
            {
              "pitch": 68,
              "velocity": 90,
              "position": 11.008333,
              "duration": 0.266667
            },
            {
              "pitch": 63,
              "velocity": 80,
              "position": 11.016667,
              "duration": 0.266667
            },
            {
              "pitch": 73,
              "velocity": 81,
              "position": 11.016667,
              "duration": 0.266667
            },
            {
              "pitch": 80,
              "velocity": 90,
              "position": 11.041667,
              "duration": 0.266667
            },
            {
              "pitch": 73,
              "velocity": 35,
              "position": 11.516667,
              "duration": 0.266667
            },
            {
              "pitch": 68,
              "velocity": 90,
              "position": 11.525,
              "duration": 0.266667
            },
            {
              "pitch": 80,
              "velocity": 90,
              "position": 11.533333,
              "duration": 0.266667
            },
            {
              "pitch": 63,
              "velocity": 90,
              "position": 11.541667,
              "duration": 0.266667
            },
            {
              "pitch": 74,
              "velocity": 90,
              "position": 12.008333,
              "duration": 0.266667
            },
            {
              "pitch": 56,
              "velocity": 90,
              "position": 12.041667,
              "duration": 0.266667
            },
            {
              "pitch": 64,
              "velocity": 90,
              "position": 12.475,
              "duration": 0.266667
            },
            {
              "pitch": 65,
              "velocity": 90,
              "position": 12.5,
              "duration": 0.266667
            },
            {
              "pitch": 80,
              "velocity": 90,
              "position": 12.55,
              "duration": 0.266667
            },
            {
              "pitch": 65,
              "velocity": 90,
              "position": 12.975,
              "duration": 0.266667
            },
            {
              "pitch": 73,
              "velocity": 77,
              "position": 13.0,
              "duration": 0.266667
            },
            {
              "pitch": 64,
              "velocity": 90,
              "position": 13.008333,
              "duration": 0.266667
            },
            {
              "pitch": 76,
              "velocity": 86,
              "position": 13.008333,
              "duration": 0.266667
            },
            {
              "pitch": 66,
              "velocity": 90,
              "position": 13.45,
              "duration": 0.266667
            },
            {
              "pitch": 73,
              "velocity": 79,
              "position": 13.491667,
              "duration": 0.266667
            },
            {
              "pitch": 62,
              "velocity": 90,
              "position": 13.533333,
              "duration": 0.266667
            },
            {
              "pitch": 80,
              "velocity": 90,
              "position": 13.558333,
              "duration": 0.266667
            },
            {
              "pitch": 74,
              "velocity": 90,
              "position": 14.008333,
              "duration": 0.266667
            },
            {
              "pitch": 76,
              "velocity": 86,
              "position": 14.008333,
              "duration": 0.266667
            },
            {
              "pitch": 56,
              "velocity": 90,
              "position": 14.033333,
              "duration": 0.266667
            },
            {
              "pitch": 64,
              "velocity": 90,
              "position": 14.483333,
              "duration": 0.266667
            },
            {
              "pitch": 65,
              "velocity": 90,
              "position": 14.491667,
              "duration": 0.266667
            },
            {
              "pitch": 56,
              "velocity": 90,
              "position": 14.533333,
              "duration": 0.266667
            },
            {
              "pitch": 73,
              "velocity": 85,
              "position": 14.983333,
              "duration": 0.266667
            },
            {
              "pitch": 65,
              "velocity": 30,
              "position": 15.0,
              "duration": 0.266667
            },
            {
              "pitch": 56,
              "velocity": 90,
              "position": 15.016667,
              "duration": 0.266667
            },
            {
              "pitch": 64,
              "velocity": 90,
              "position": 15.025,
              "duration": 0.266667
            },
            {
              "pitch": 65,
              "velocity": 90,
              "position": 15.458333,
              "duration": 0.025
            },
            {
              "pitch": 63,
              "velocity": 90,
              "position": 15.491667,
              "duration": 0.266667
            },
            {
              "pitch": 73,
              "velocity": 77,
              "position": 15.491667,
              "duration": 0.266667
            },
            {
              "pitch": 56,
              "velocity": 90,
              "position": 15.516667,
              "duration": 0.266667
            },
            {
              "pitch": 65,
              "velocity": 90,
              "position": 15.708333,
              "duration": 0.016667
            }
          ]
        },
        "10": {
          "ctab": {
            "srcChannel": 10,
            "name": "Bass",
            "accType": "BASS",
            "editable": true,
            "mutedNotes": [],
            "mutedChords": [],
            "sourceChordNote": 0,
            "sourceChordType": "Maj7",
            "ctb2Main": {
              "ntr": "ROOT_TRANSPOSITION",
              "ntt": "BYPASS",
              "bassOn": true,
              "noteLowLimit": 20,
              "noteHighLimit": 60,
              "chordRootUpperLimit": 127,
              "rtr": "NOTE_GENERATOR"
            }
          },
          "notes": [
            {
              "pitch": 36,
              "velocity": 84,
              "position": 0.0,
              "duration": 1.058333
            },
            {
              "pitch": 31,
              "velocity": 84,
              "position": 1.5,
              "duration": 0.458333
            },
            {
              "pitch": 36,
              "velocity": 84,
              "position": 2.0,
              "duration": 1.058333
            },
            {
              "pitch": 31,
              "velocity": 84,
              "position": 3.5,
              "duration": 0.458333
            },
            {
              "pitch": 36,
              "velocity": 84,
              "position": 4.0,
              "duration": 1.058333
            },
            {
              "pitch": 31,
              "velocity": 84,
              "position": 5.5,
              "duration": 0.458333
            },
            {
              "pitch": 36,
              "velocity": 84,
              "position": 6.0,
              "duration": 1.058333
            },
            {
              "pitch": 31,
              "velocity": 84,
              "position": 7.5,
              "duration": 0.458333
            },
            {
              "pitch": 36,
              "velocity": 85,
              "position": 8.0,
              "duration": 1.058333
            },
            {
              "pitch": 36,
              "velocity": 85,
              "position": 9.5,
              "duration": 0.475
            },
            {
              "pitch": 36,
              "velocity": 85,
              "position": 10.0,
              "duration": 0.925
            },
            {
              "pitch": 36,
              "velocity": 85,
              "position": 11.5,
              "duration": 0.375
            },
            {
              "pitch": 36,
              "velocity": 85,
              "position": 12.0,
              "duration": 1.133333
            },
            {
              "pitch": 36,
              "velocity": 78,
              "position": 13.5,
              "duration": 0.325
            },
            {
              "pitch": 36,
              "velocity": 86,
              "position": 14.0,
              "duration": 0.991667
            },
            {
              "pitch": 43,
              "velocity": 85,
              "position": 15.0,
              "duration": 0.508333
            },
            {
              "pitch": 31,
              "velocity": 85,
              "position": 15.5,
              "duration": 0.408333
            }
          ]
        },
        "11": {
          "ctab": {
            "srcChannel": 11,
            "name": "Piano",
            "accType": "CHORD1",
            "editable": true,
            "mutedNotes": [],
            "mutedChords": [],
            "sourceChordNote": 0,
            "sourceChordType": "Maj7",
            "ctb2Main": {
              "ntr": "ROOT_FIXED",
              "ntt": "CHORD",
              "bassOn": false,
              "noteLowLimit": 48,
              "noteHighLimit": 84,
              "chordRootUpperLimit": 127,
              "rtr": "NOTE_GENERATOR"
            }
          },
          "notes": []
        },
        "12": {
          "ctab": {
            "srcChannel": 12,
            "name": "Guitar",
            "accType": "CHORD2",
            "editable": true,
            "mutedNotes": [],
            "mutedChords": [],
            "sourceChordNote": 0,
            "sourceChordType": "Maj7",
            "ctb2Main": {
              "ntr": "ROOT_FIXED",
              "ntt": "CHORD",
              "bassOn": false,
              "noteLowLimit": 40,
              "noteHighLimit": 76,
              "chordRootUpperLimit": 127,
              "rtr": "NOTE_GENERATOR"
            }
          },
          "notes": [
            {
              "pitch": 48,
              "velocity": 66,
              "position": 0.0,
              "duration": 1.733333
            },
            {
              "pitch": 55,
              "velocity": 80,
              "position": 0.008333,
              "duration": 1.733333
            },
            {
              "pitch": 60,
              "velocity": 80,
              "position": 0.025,
              "duration": 1.708333
            },
            {
              "pitch": 64,
              "velocity": 80,
              "position": 0.033333,
              "duration": 0.416667
            },
            {
              "pitch": 67,
              "velocity": 80,
              "position": 0.041667,
              "duration": 0.358333
            },
            {
              "pitch": 71,
              "velocity": 80,
              "position": 0.483333,
              "duration": 0.866667
            },
            {
              "pitch": 67,
              "velocity": 80,
              "position": 0.508333,
              "duration": 0.85
            },
            {
              "pitch": 64,
              "velocity": 80,
              "position": 0.525,
              "duration": 0.85
            },
            {
              "pitch": 71,
              "velocity": 80,
              "position": 1.425,
              "duration": 0.308333
            },
            {
              "pitch": 67,
              "velocity": 80,
              "position": 1.45,
              "duration": 0.283333
            },
            {
              "pitch": 64,
              "velocity": 76,
              "position": 1.475,
              "duration": 0.258333
            },
            {
              "pitch": 48,
              "velocity": 74,
              "position": 2.091667,
              "duration": 1.908333
            },
            {
              "pitch": 64,
              "velocity": 80,
              "position": 2.108333,
              "duration": 0.483333
            },
            {
              "pitch": 55,
              "velocity": 80,
              "position": 2.116667,
              "duration": 1.883333
            },
            {
              "pitch": 60,
              "velocity": 71,
              "position": 2.141667,
              "duration": 1.708333
            },
            {
              "pitch": 71,
              "velocity": 80,
              "position": 2.55,
              "duration": 0.8
            },
            {
              "pitch": 67,
              "velocity": 80,
              "position": 2.566667,
              "duration": 0.8
            },
            {
              "pitch": 64,
              "velocity": 77,
              "position": 2.591667,
              "duration": 0.808333
            },
            {
              "pitch": 71,
              "velocity": 80,
              "position": 3.566667,
              "duration": 0.433333
            },
            {
              "pitch": 67,
              "velocity": 80,
              "position": 3.6,
              "duration": 0.358333
            },
            {
              "pitch": 64,
              "velocity": 71,
              "position": 3.625,
              "duration": 0.375
            },
            {
              "pitch": 48,
              "velocity": 80,
              "position": 4.0,
              "duration": 1.733333
            },
            {
              "pitch": 55,
              "velocity": 60,
              "position": 4.058333,
              "duration": 1.433333
            },
            {
              "pitch": 60,
              "velocity": 73,
              "position": 4.066667,
              "duration": 1.433333
            },
            {
              "pitch": 71,
              "velocity": 80,
              "position": 4.508333,
              "duration": 0.808333
            },
            {
              "pitch": 67,
              "velocity": 80,
              "position": 4.525,
              "duration": 0.783333
            },
            {
              "pitch": 71,
              "velocity": 80,
              "position": 5.5,
              "duration": 0.291667
            },
            {
              "pitch": 64,
              "velocity": 74,
              "position": 5.516667,
              "duration": 0.366667
            },
            {
              "pitch": 67,
              "velocity": 80,
              "position": 5.525,
              "duration": 0.291667
            },
            {
              "pitch": 48,
              "velocity": 80,
              "position": 6.0,
              "duration": 1.733333
            },
            {
              "pitch": 55,
              "velocity": 60,
              "position": 6.058333,
              "duration": 1.433333
            },
            {
              "pitch": 60,
              "velocity": 73,
              "position": 6.066667,
              "duration": 1.433333
            },
            {
              "pitch": 71,
              "velocity": 80,
              "position": 6.508333,
              "duration": 0.808333
            },
            {
              "pitch": 67,
              "velocity": 80,
              "position": 6.525,
              "duration": 0.783333
            },
            {
              "pitch": 71,
              "velocity": 80,
              "position": 7.5,
              "duration": 0.291667
            },
            {
              "pitch": 64,
              "velocity": 74,
              "position": 7.516667,
              "duration": 0.366667
            },
            {
              "pitch": 67,
              "velocity": 80,
              "position": 7.525,
              "duration": 0.291667
            },
            {
              "pitch": 48,
              "velocity": 80,
              "position": 8.0,
              "duration": 2.891667
            },
            {
              "pitch": 55,
              "velocity": 60,
              "position": 8.058333,
              "duration": 1.433333
            },
            {
              "pitch": 60,
              "velocity": 73,
              "position": 8.066667,
              "duration": 1.433333
            },
            {
              "pitch": 71,
              "velocity": 80,
              "position": 8.508333,
              "duration": 0.841667
            },
            {
              "pitch": 67,
              "velocity": 80,
              "position": 8.525,
              "duration": 0.825
            },
            {
              "pitch": 67,
              "velocity": 80,
              "position": 9.441667,
              "duration": 0.4
            },
            {
              "pitch": 64,
              "velocity": 74,
              "position": 9.458333,
              "duration": 0.366667
            },
            {
              "pitch": 71,
              "velocity": 80,
              "position": 9.466667,
              "duration": 1.208333
            },
            {
              "pitch": 60,
              "velocity": 53,
              "position": 9.983333,
              "duration": 1.25
            },
            {
              "pitch": 64,
              "velocity": 80,
              "position": 9.991667,
              "duration": 0.741667
            },
            {
              "pitch": 67,
              "velocity": 80,
              "position": 10.0,
              "duration": 0.75
            },
            {
              "pitch": 64,
              "velocity": 65,
              "position": 11.0,
              "duration": 0.5
            },
            {
              "pitch": 67,
              "velocity": 80,
              "position": 11.016667,
              "duration": 0.458333
            },
            {
              "pitch": 71,
              "velocity": 66,
              "position": 11.05,
              "duration": 0.45
            },
            {
              "pitch": 71,
              "velocity": 80,
              "position": 11.5,
              "duration": 0.466667
            },
            {
              "pitch": 67,
              "velocity": 80,
              "position": 11.516667,
              "duration": 0.425
            },
            {
              "pitch": 64,
              "velocity": 80,
              "position": 11.533333,
              "duration": 0.391667
            },
            {
              "pitch": 60,
              "velocity": 80,
              "position": 11.558333,
              "duration": 0.358333
            },
            {
              "pitch": 55,
              "velocity": 59,
              "position": 11.591667,
              "duration": 0.316667
            },
            {
              "pitch": 48,
              "velocity": 60,
              "position": 12.0,
              "duration": 1.133333
            },
            {
              "pitch": 55,
              "velocity": 60,
              "position": 12.0,
              "duration": 0.708333
            },
            {
              "pitch": 60,
              "velocity": 80,
              "position": 12.008333,
              "duration": 0.716667
            },
            {
              "pitch": 64,
              "velocity": 80,
              "position": 12.016667,
              "duration": 0.725
            },
            {
              "pitch": 67,
              "velocity": 80,
              "position": 12.033333,
              "duration": 1.066667
            },
            {
              "pitch": 71,
              "velocity": 80,
              "position": 12.05,
              "duration": 1.058333
            },
            {
              "pitch": 55,
              "velocity": 64,
              "position": 13.008333,
              "duration": 0.408333
            },
            {
              "pitch": 60,
              "velocity": 74,
              "position": 13.025,
              "duration": 0.391667
            },
            {
              "pitch": 64,
              "velocity": 70,
              "position": 13.033333,
              "duration": 0.341667
            },
            {
              "pitch": 71,
              "velocity": 80,
              "position": 13.508333,
              "duration": 0.883333
            },
            {
              "pitch": 67,
              "velocity": 80,
              "position": 13.533333,
              "duration": 0.866667
            },
            {
              "pitch": 64,
              "velocity": 80,
              "position": 13.566667,
              "duration": 0.841667
            },
            {
              "pitch": 60,
              "velocity": 80,
              "position": 13.591667,
              "duration": 0.866667
            },
            {
              "pitch": 55,
              "velocity": 80,
              "position": 13.625,
              "duration": 1.15
            },
            {
              "pitch": 48,
              "velocity": 58,
              "position": 13.65,
              "duration": 1.291667
            },
            {
              "pitch": 71,
              "velocity": 80,
              "position": 14.491667,
              "duration": 0.325
            },
            {
              "pitch": 67,
              "velocity": 80,
              "position": 14.525,
              "duration": 0.283333
            },
            {
              "pitch": 64,
              "velocity": 80,
              "position": 14.55,
              "duration": 0.25
            },
            {
              "pitch": 60,
              "velocity": 80,
              "position": 14.575,
              "duration": 0.216667
            },
            {
              "pitch": 71,
              "velocity": 80,
              "position": 15.508333,
              "duration": 0.225
            },
            {
              "pitch": 67,
              "velocity": 80,
              "position": 15.533333,
              "duration": 0.2
            },
            {
              "pitch": 64,
              "velocity": 80,
              "position": 15.566667,
              "duration": 0.166667
            },
            {
              "pitch": 60,
              "velocity": 80,
              "position": 15.591667,
              "duration": 0.141667
            }
          ]
        },
        "13": {
          "ctab": {
            "srcChannel": 13,
            "name": "Strings",
            "accType": "PAD",
            "editable": true,
            "mutedNotes": [],
            "mutedChords": [],
            "sourceChordNote": 0,
            "sourceChordType": "Maj7",
            "ctb2Main": {
              "ntr": "ROOT_FIXED",
              "ntt": "MELODY",
              "bassOn": false,
              "noteLowLimit": 36,
              "noteHighLimit": 96,
              "chordRootUpperLimit": 127,
              "rtr": "PITCH_SHIFT"
            }
          },
          "notes": [
            {
              "pitch": 67,
              "velocity": 80,
              "position": 0.025,
              "duration": 0.483333
            },
            {
              "pitch": 64,
              "velocity": 80,
              "position": 0.033333,
              "duration": 0.233333
            },
            {
              "pitch": 60,
              "velocity": 51,
              "position": 0.541667,
              "duration": 0.283333
            },
            {
              "pitch": 67,
              "velocity": 66,
              "position": 1.041667,
              "duration": 0.366667
            },
            {
              "pitch": 64,
              "velocity": 52,
              "position": 1.05,
              "duration": 0.4
            },
            {
              "pitch": 67,
              "velocity": 80,
              "position": 1.591667,
              "duration": 0.116667
            },
            {
              "pitch": 64,
              "velocity": 80,
              "position": 1.608333,
              "duration": 0.125
            },
            {
              "pitch": 59,
              "velocity": 71,
              "position": 2.0,
              "duration": 1.358333
            },
            {
              "pitch": 60,
              "velocity": 78,
              "position": 2.5,
              "duration": 1.008333
            },
            {
              "pitch": 52,
              "velocity": 49,
              "position": 3.0,
              "duration": 0.475
            },
            {
              "pitch": 64,
              "velocity": 78,
              "position": 3.5,
              "duration": 0.233333
            },
            {
              "pitch": 59,
              "velocity": 75,
              "position": 4.0,
              "duration": 1.391667
            },
            {
              "pitch": 64,
              "velocity": 73,
              "position": 4.5,
              "duration": 0.8
            },
            {
              "pitch": 52,
              "velocity": 55,
              "position": 5.0,
              "duration": 0.733333
            },
            {
              "pitch": 60,
              "velocity": 73,
              "position": 5.5,
              "duration": 0.233333
            },
            {
              "pitch": 64,
              "velocity": 78,
              "position": 6.0,
              "duration": 0.85
            },
            {
              "pitch": 59,
              "velocity": 50,
              "position": 6.5,
              "duration": 1.083333
            },
            {
              "pitch": 60,
              "velocity": 70,
              "position": 7.0,
              "duration": 0.733333
            },
            {
              "pitch": 64,
              "velocity": 78,
              "position": 7.5,
              "duration": 0.233333
            },
            {
              "pitch": 60,
              "velocity": 75,
              "position": 8.0,
              "duration": 0.475
            },
            {
              "pitch": 64,
              "velocity": 75,
              "position": 8.0,
              "duration": 0.791667
            },
            {
              "pitch": 52,
              "velocity": 51,
              "position": 8.5,
              "duration": 1.183333
            },
            {
              "pitch": 59,
              "velocity": 51,
              "position": 9.0,
              "duration": 1.375
            },
            {
              "pitch": 60,
              "velocity": 75,
              "position": 9.0,
              "duration": 1.325
            },
            {
              "pitch": 64,
              "velocity": 75,
              "position": 9.5,
              "duration": 0.5
            },
            {
              "pitch": 64,
              "velocity": 75,
              "position": 10.5,
              "duration": 0.808333
            },
            {
              "pitch": 52,
              "velocity": 73,
              "position": 11.0,
              "duration": 0.95
            },
            {
              "pitch": 59,
              "velocity": 37,
              "position": 11.5,
              "duration": 0.791667
            },
            {
              "pitch": 60,
              "velocity": 75,
              "position": 11.5,
              "duration": 0.75
            },
            {
              "pitch": 64,
              "velocity": 75,
              "position": 12.0,
              "duration": 0.533333
            },
            {
              "pitch": 59,
              "velocity": 64,
              "position": 13.0,
              "duration": 1.741667
            },
            {
              "pitch": 60,
              "velocity": 75,
              "position": 13.0,
              "duration": 0.575
            },
            {
              "pitch": 64,
              "velocity": 75,
              "position": 13.0,
              "duration": 0.533333
            },
            {
              "pitch": 60,
              "velocity": 75,
              "position": 14.0,
              "duration": 0.483333
            },
            {
              "pitch": 64,
              "velocity": 75,
              "position": 14.0,
              "duration": 0.808333
            },
            {
              "pitch": 52,
              "velocity": 73,
              "position": 14.5,
              "duration": 0.966667
            },
            {
              "pitch": 60,
              "velocity": 72,
              "position": 15.0,
              "duration": 0.491667
            },
            {
              "pitch": 64,
              "velocity": 75,
              "position": 15.5,
              "duration": 0.233333
            }
          ]
        }
      }
    },
    "Fill_In_AA": {
      "type": "Fill_In_AA",
      "sizeInBeats": 16,
      "channels": {
        "9": {
          "ctab": {
            "srcChannel": 9,
            "name": "Drums",
            "accType": "RHYTHM",
            "editable": false,
            "mutedNotes": [],
            "mutedChords": [],
            "sourceChordNote": 0,
            "sourceChordType": "Maj",
            "ctb2Main": {
              "ntr": "ROOT_FIXED",
              "ntt": "BYPASS",
              "bassOn": false,
              "noteLowLimit": 20,
              "noteHighLimit": 127,
              "chordRootUpperLimit": 127,
              "rtr": "RETRIGGER"
            }
          },
          "notes": [
            {
              "pitch": 74,
              "velocity": 90,
              "position": 0.0,
              "duration": 0.266667
            },
            {
              "pitch": 76,
              "velocity": 86,
              "position": 0.0,
              "duration": 0.266667
            },
            {
              "pitch": 56,
              "velocity": 90,
              "position": 0.008333,
              "duration": 0.266667
            },
            {
              "pitch": 49,
              "velocity": 56,
              "position": 0.016667,
              "duration": 0.95
            },
            {
              "pitch": 65,
              "velocity": 90,
              "position": 0.016667,
              "duration": 0.266667
            },
            {
              "pitch": 68,
              "velocity": 90,
              "position": 0.025,
              "duration": 0.266667
            },
            {
              "pitch": 63,
              "velocity": 90,
              "position": 0.05,
              "duration": 0.266667
            },
            {
              "pitch": 73,
              "velocity": 47,
              "position": 0.975,
              "duration": 0.266667
            },
            {
              "pitch": 62,
              "velocity": 90,
              "position": 1.008333,
              "duration": 0.266667
            },
            {
              "pitch": 68,
              "velocity": 90,
              "position": 1.025,
              "duration": 0.266667
            },
            {
              "pitch": 80,
              "velocity": 90,
              "position": 1.075,
              "duration": 0.266667
            },
            {
              "pitch": 73,
              "velocity": 30,
              "position": 1.491667,
              "duration": 0.266667
            },
            {
              "pitch": 62,
              "velocity": 61,
              "position": 1.525,
              "duration": 0.266667
            },
            {
              "pitch": 76,
              "velocity": 86,
              "position": 1.525,
              "duration": 0.266667
            },
            {
              "pitch": 56,
              "velocity": 90,
              "position": 2.016667,
              "duration": 0.266667
            },
            {
              "pitch": 74,
              "velocity": 90,
              "position": 2.025,
              "duration": 0.266667
            },
            {
              "pitch": 68,
              "velocity": 90,
              "position": 2.033333,
              "duration": 0.266667
            },
            {
              "pitch": 62,
              "velocity": 65,
              "position": 2.508333,
              "duration": 0.266667
            },
            {
              "pitch": 76,
              "velocity": 86,
              "position": 2.991667,
              "duration": 0.266667
            },
            {
              "pitch": 80,
              "velocity": 90,
              "position": 2.991667,
              "duration": 0.266667
            },
            {
              "pitch": 63,
              "velocity": 90,
              "position": 3.0,
              "duration": 0.266667
            },
            {
              "pitch": 68,
              "velocity": 90,
              "position": 3.016667,
              "duration": 0.266667
            },
            {
              "pitch": 73,
              "velocity": 67,
              "position": 3.041667,
              "duration": 0.266667
            },
            {
              "pitch": 63,
              "velocity": 90,
              "position": 3.508333,
              "duration": 0.266667
            },
            {
              "pitch": 80,
              "velocity": 90,
              "position": 3.516667,
              "duration": 0.266667
            },
            {
              "pitch": 73,
              "velocity": 45,
              "position": 3.533333,
              "duration": 0.266667
            },
            {
              "pitch": 74,
              "velocity": 90,
              "position": 4.0,
              "duration": 0.266667
            },
            {
              "pitch": 56,
              "velocity": 90,
              "position": 4.066667,
              "duration": 0.266667
            },
            {
              "pitch": 62,
              "velocity": 90,
              "position": 4.458333,
              "duration": 0.266667
            },
            {
              "pitch": 68,
              "velocity": 90,
              "position": 4.525,
              "duration": 0.266667
            },
            {
              "pitch": 73,
              "velocity": 90,
              "position": 4.991667,
              "duration": 0.266667
            },
            {
              "pitch": 68,
              "velocity": 90,
              "position": 5.0,
              "duration": 0.266667
            },
            {
              "pitch": 76,
              "velocity": 75,
              "position": 5.0,
              "duration": 0.266667
            },
            {
              "pitch": 62,
              "velocity": 90,
              "position": 5.016667,
              "duration": 0.266667
            },
            {
              "pitch": 80,
              "velocity": 90,
              "position": 5.058333,
              "duration": 0.266667
            },
            {
              "pitch": 68,
              "velocity": 90,
              "position": 5.475,
              "duration": 0.266667
            },
            {
              "pitch": 73,
              "velocity": 53,
              "position": 5.5,
              "duration": 0.266667
            },
            {
              "pitch": 64,
              "velocity": 80,
              "position": 5.508333,
              "duration": 0.266667
            },
            {
              "pitch": 56,
              "velocity": 90,
              "position": 5.558333,
              "duration": 0.266667
            },
            {
              "pitch": 68,
              "velocity": 90,
              "position": 6.0,
              "duration": 0.266667
            },
            {
              "pitch": 74,
              "velocity": 90,
              "position": 6.016667,
              "duration": 0.266667
            },
            {
              "pitch": 76,
              "velocity": 86,
              "position": 6.016667,
              "duration": 0.266667
            },
            {
              "pitch": 64,
              "velocity": 87,
              "position": 6.025,
              "duration": 0.266667
            },
            {
              "pitch": 56,
              "velocity": 90,
              "position": 6.058333,
              "duration": 0.266667
            },
            {
              "pitch": 62,
              "velocity": 90,
              "position": 6.525,
              "duration": 0.266667
            },
            {
              "pitch": 73,
              "velocity": 69,
              "position": 7.016667,
              "duration": 0.266667
            },
            {
              "pitch": 68,
              "velocity": 90,
              "position": 7.025,
              "duration": 0.266667
            },
            {
              "pitch": 80,
              "velocity": 90,
              "position": 7.025,
              "duration": 0.266667
            },
            {
              "pitch": 63,
              "velocity": 90,
              "position": 7.041667,
              "duration": 0.266667
            },
            {
              "pitch": 73,
              "velocity": 79,
              "position": 7.516667,
              "duration": 0.266667
            },
            {
              "pitch": 80,
              "velocity": 90,
              "position": 7.516667,
              "duration": 0.266667
            },
            {
              "pitch": 68,
              "velocity": 90,
              "position": 7.533333,
              "duration": 0.266667
            },
            {
              "pitch": 63,
              "velocity": 90,
              "position": 7.541667,
              "duration": 0.266667
            },
            {
              "pitch": 76,
              "velocity": 86,
              "position": 8.008333,
              "duration": 0.266667
            },
            {
              "pitch": 68,
              "velocity": 90,
              "position": 8.025,
              "duration": 0.266667
            },
            {
              "pitch": 56,
              "velocity": 90,
              "position": 8.041667,
              "duration": 0.266667
            },
            {
              "pitch": 74,
              "velocity": 90,
              "position": 8.041667,
              "duration": 0.266667
            },
            {
              "pitch": 62,
              "velocity": 70,
              "position": 8.508333,
              "duration": 0.266667
            },
            {
              "pitch": 62,
              "velocity": 90,
              "position": 9.0,
              "duration": 0.266667
            },
            {
              "pitch": 68,
              "velocity": 90,
              "position": 9.025,
              "duration": 0.266667
            },
            {
              "pitch": 73,
              "velocity": 41,
              "position": 9.025,
              "duration": 0.266667
            },
            {
              "pitch": 80,
              "velocity": 90,
              "position": 9.041667,
              "duration": 0.266667
            },
            {
              "pitch": 73,
              "velocity": 59,
              "position": 9.516667,
              "duration": 0.266667
            },
            {
              "pitch": 76,
              "velocity": 86,
              "position": 9.516667,
              "duration": 0.266667
            },
            {
              "pitch": 56,
              "velocity": 90,
              "position": 10.041667,
              "duration": 0.266667
            },
            {
              "pitch": 74,
              "velocity": 90,
              "position": 10.066667,
              "duration": 0.266667
            },
            {
              "pitch": 68,
              "velocity": 30,
              "position": 10.083333,
              "duration": 0.266667
            },
            {
              "pitch": 68,
              "velocity": 90,
              "position": 10.516667,
              "duration": 0.266667
            },
            {
              "pitch": 62,
              "velocity": 84,
              "position": 10.533333,
              "duration": 0.266667
            },
            {
              "pitch": 76,
              "velocity": 86,
              "position": 11.0,
              "duration": 0.266667
            },
            {
              "pitch": 68,
              "velocity": 90,
              "position": 11.008333,
              "duration": 0.266667
            },
            {
              "pitch": 63,
              "velocity": 80,
              "position": 11.016667,
              "duration": 0.266667
            },
            {
              "pitch": 73,
              "velocity": 81,
              "position": 11.016667,
              "duration": 0.266667
            },
            {
              "pitch": 80,
              "velocity": 90,
              "position": 11.041667,
              "duration": 0.266667
            },
            {
              "pitch": 73,
              "velocity": 35,
              "position": 11.516667,
              "duration": 0.266667
            },
            {
              "pitch": 68,
              "velocity": 90,
              "position": 11.525,
              "duration": 0.266667
            },
            {
              "pitch": 80,
              "velocity": 90,
              "position": 11.533333,
              "duration": 0.266667
            },
            {
              "pitch": 63,
              "velocity": 90,
              "position": 11.541667,
              "duration": 0.266667
            },
            {
              "pitch": 74,
              "velocity": 90,
              "position": 12.033333,
              "duration": 0.266667
            },
            {
              "pitch": 56,
              "velocity": 90,
              "position": 12.05,
              "duration": 0.266667
            },
            {
              "pitch": 62,
              "velocity": 82,
              "position": 12.5,
              "duration": 0.266667
            },
            {
              "pitch": 68,
              "velocity": 90,
              "position": 12.55,
              "duration": 0.266667
            },
            {
              "pitch": 73,
              "velocity": 73,
              "position": 12.991667,
              "duration": 0.266667
            },
            {
              "pitch": 76,
              "velocity": 86,
              "position": 13.008333,
              "duration": 0.266667
            },
            {
              "pitch": 62,
              "velocity": 90,
              "position": 13.016667,
              "duration": 0.266667
            },
            {
              "pitch": 68,
              "velocity": 90,
              "position": 13.025,
              "duration": 0.266667
            },
            {
              "pitch": 80,
              "velocity": 90,
              "position": 13.041667,
              "duration": 0.266667
            },
            {
              "pitch": 73,
              "velocity": 75,
              "position": 13.491667,
              "duration": 0.266667
            },
            {
              "pitch": 66,
              "velocity": 90,
              "position": 13.5,
              "duration": 0.266667
            },
            {
              "pitch": 64,
              "velocity": 77,
              "position": 13.525,
              "duration": 0.266667
            },
            {
              "pitch": 68,
              "velocity": 90,
              "position": 13.525,
              "duration": 0.266667
            },
            {
              "pitch": 80,
              "velocity": 90,
              "position": 13.566667,
              "duration": 0.266667
            },
            {
              "pitch": 68,
              "velocity": 90,
              "position": 14.0,
              "duration": 0.266667
            },
            {
              "pitch": 76,
              "velocity": 86,
              "position": 14.008333,
              "duration": 0.266667
            },
            {
              "pitch": 74,
              "velocity": 90,
              "position": 14.016667,
              "duration": 0.266667
            },
            {
              "pitch": 64,
              "velocity": 88,
              "position": 14.033333,
              "duration": 0.266667
            },
            {
              "pitch": 56,
              "velocity": 90,
              "position": 14.05,
              "duration": 0.266667
            },
            {
              "pitch": 62,
              "velocity": 90,
              "position": 14.5,
              "duration": 0.266667
            },
            {
              "pitch": 68,
              "velocity": 90,
              "position": 14.541667,
              "duration": 0.266667
            },
            {
              "pitch": 65,
              "velocity": 90,
              "position": 14.983333,
              "duration": 0.266667
            },
            {
              "pitch": 73,
              "velocity": 85,
              "position": 14.983333,
              "duration": 0.266667
            },
            {
              "pitch": 63,
              "velocity": 90,
              "position": 15.016667,
              "duration": 0.266667
            },
            {
              "pitch": 80,
              "velocity": 90,
              "position": 15.075,
              "duration": 0.266667
            },
            {
              "pitch": 68,
              "velocity": 90,
              "position": 15.475,
              "duration": 0.283333
            },
            {
              "pitch": 73,
              "velocity": 65,
              "position": 15.475,
              "duration": 0.283333
            },
            {
              "pitch": 65,
              "velocity": 90,
              "position": 15.483333,
              "duration": 0.275
            },
            {
              "pitch": 80,
              "velocity": 90,
              "position": 15.533333,
              "duration": 0.225
            },
            {
              "pitch": 63,
              "velocity": 90,
              "position": 15.541667,
              "duration": 0.216667
            },
            {
              "pitch": 66,
              "velocity": 65,
              "position": 15.758333,
              "duration": 0.233333
            }
          ]
        },
        "10": {
          "ctab": {
            "srcChannel": 10,
            "name": "Bass",
            "accType": "BASS",
            "editable": true,
            "mutedNotes": [],
            "mutedChords": [],
            "sourceChordNote": 0,
            "sourceChordType": "Maj7",
            "ctb2Main": {
              "ntr": "ROOT_TRANSPOSITION",
              "ntt": "BYPASS",
              "bassOn": true,
              "noteLowLimit": 20,
              "noteHighLimit": 60,
              "chordRootUpperLimit": 127,
              "rtr": "NOTE_GENERATOR"
            }
          },
          "notes": [
            {
              "pitch": 36,
              "velocity": 84,
              "position": 0.0,
              "duration": 1.058333
            },
            {
              "pitch": 31,
              "velocity": 84,
              "position": 1.5,
              "duration": 0.458333
            },
            {
              "pitch": 36,
              "velocity": 84,
              "position": 2.0,
              "duration": 1.058333
            },
            {
              "pitch": 31,
              "velocity": 84,
              "position": 3.5,
              "duration": 0.458333
            },
            {
              "pitch": 36,
              "velocity": 84,
              "position": 4.0,
              "duration": 1.058333
            },
            {
              "pitch": 31,
              "velocity": 84,
              "position": 5.5,
              "duration": 0.458333
            },
            {
              "pitch": 36,
              "velocity": 84,
              "position": 6.0,
              "duration": 1.058333
            },
            {
              "pitch": 31,
              "velocity": 84,
              "position": 7.5,
              "duration": 0.458333
            },
            {
              "pitch": 36,
              "velocity": 85,
              "position": 8.0,
              "duration": 1.058333
            },
            {
              "pitch": 36,
              "velocity": 85,
              "position": 9.5,
              "duration": 0.475
            },
            {
              "pitch": 36,
              "velocity": 85,
              "position": 10.0,
              "duration": 0.925
            },
            {
              "pitch": 36,
              "velocity": 85,
              "position": 11.5,
              "duration": 0.375
            },
            {
              "pitch": 36,
              "velocity": 85,
              "position": 12.0,
              "duration": 1.133333
            },
            {
              "pitch": 36,
              "velocity": 78,
              "position": 13.5,
              "duration": 0.325
            },
            {
              "pitch": 36,
              "velocity": 86,
              "position": 14.0,
              "duration": 0.991667
            },
            {
              "pitch": 43,
              "velocity": 85,
              "position": 15.0,
              "duration": 0.508333
            },
            {
              "pitch": 31,
              "velocity": 85,
              "position": 15.5,
              "duration": 0.408333
            }
          ]
        },
        "11": {
          "ctab": {
            "srcChannel": 11,
            "name": "Piano",
            "accType": "CHORD1",
            "editable": true,
            "mutedNotes": [],
            "mutedChords": [],
            "sourceChordNote": 0,
            "sourceChordType": "Maj7",
            "ctb2Main": {
              "ntr": "ROOT_FIXED",
              "ntt": "CHORD",
              "bassOn": false,
              "noteLowLimit": 48,
              "noteHighLimit": 84,
              "chordRootUpperLimit": 127,
              "rtr": "NOTE_GENERATOR"
            }
          },
          "notes": []
        },
        "12": {
          "ctab": {
            "srcChannel": 12,
            "name": "Guitar",
            "accType": "CHORD2",
            "editable": true,
            "mutedNotes": [],
            "mutedChords": [],
            "sourceChordNote": 0,
            "sourceChordType": "Maj7",
            "ctb2Main": {
              "ntr": "ROOT_FIXED",
              "ntt": "CHORD",
              "bassOn": false,
              "noteLowLimit": 40,
              "noteHighLimit": 76,
              "chordRootUpperLimit": 127,
              "rtr": "NOTE_GENERATOR"
            }
          },
          "notes": [
            {
              "pitch": 48,
              "velocity": 66,
              "position": 0.0,
              "duration": 1.733333
            },
            {
              "pitch": 55,
              "velocity": 80,
              "position": 0.008333,
              "duration": 1.733333
            },
            {
              "pitch": 60,
              "velocity": 80,
              "position": 0.025,
              "duration": 1.708333
            },
            {
              "pitch": 64,
              "velocity": 80,
              "position": 0.033333,
              "duration": 0.416667
            },
            {
              "pitch": 67,
              "velocity": 80,
              "position": 0.041667,
              "duration": 0.358333
            },
            {
              "pitch": 71,
              "velocity": 80,
              "position": 0.483333,
              "duration": 0.866667
            },
            {
              "pitch": 67,
              "velocity": 80,
              "position": 0.508333,
              "duration": 0.85
            },
            {
              "pitch": 64,
              "velocity": 80,
              "position": 0.525,
              "duration": 0.85
            },
            {
              "pitch": 71,
              "velocity": 80,
              "position": 1.425,
              "duration": 0.308333
            },
            {
              "pitch": 67,
              "velocity": 80,
              "position": 1.45,
              "duration": 0.283333
            },
            {
              "pitch": 64,
              "velocity": 76,
              "position": 1.475,
              "duration": 0.258333
            },
            {
              "pitch": 48,
              "velocity": 66,
              "position": 2.0,
              "duration": 1.733333
            },
            {
              "pitch": 55,
              "velocity": 80,
              "position": 2.008333,
              "duration": 1.733333
            },
            {
              "pitch": 60,
              "velocity": 80,
              "position": 2.025,
              "duration": 1.708333
            },
            {
              "pitch": 64,
              "velocity": 80,
              "position": 2.033333,
              "duration": 0.416667
            },
            {
              "pitch": 67,
              "velocity": 80,
              "position": 2.041667,
              "duration": 0.358333
            },
            {
              "pitch": 71,
              "velocity": 80,
              "position": 2.483333,
              "duration": 0.866667
            },
            {
              "pitch": 67,
              "velocity": 80,
              "position": 2.508333,
              "duration": 0.85
            },
            {
              "pitch": 64,
              "velocity": 80,
              "position": 2.525,
              "duration": 0.85
            },
            {
              "pitch": 71,
              "velocity": 80,
              "position": 3.425,
              "duration": 0.308333
            },
            {
              "pitch": 67,
              "velocity": 80,
              "position": 3.45,
              "duration": 0.283333
            },
            {
              "pitch": 64,
              "velocity": 76,
              "position": 3.475,
              "duration": 0.258333
            },
            {
              "pitch": 48,
              "velocity": 49,
              "position": 4.0,
              "duration": 1.491667
            },
            {
              "pitch": 55,
              "velocity": 64,
              "position": 4.016667,
              "duration": 1.433333
            },
            {
              "pitch": 60,
              "velocity": 80,
              "position": 4.033333,
              "duration": 1.383333
            },
            {
              "pitch": 64,
              "velocity": 80,
              "position": 4.05,
              "duration": 1.341667
            },
            {
              "pitch": 67,
              "velocity": 80,
              "position": 4.066667,
              "duration": 1.258333
            },
            {
              "pitch": 71,
              "velocity": 80,
              "position": 4.083333,
              "duration": 1.216667
            },
            {
              "pitch": 71,
              "velocity": 80,
              "position": 5.508333,
              "duration": 0.441667
            },
            {
              "pitch": 67,
              "velocity": 80,
              "position": 5.533333,
              "duration": 0.458333
            },
            {
              "pitch": 64,
              "velocity": 80,
              "position": 5.566667,
              "duration": 0.391667
            },
            {
              "pitch": 60,
              "velocity": 80,
              "position": 5.6,
              "duration": 0.375
            },
            {
              "pitch": 55,
              "velocity": 80,
              "position": 5.641667,
              "duration": 0.316667
            },
            {
              "pitch": 48,
              "velocity": 42,
              "position": 5.691667,
              "duration": 0.25
            },
            {
              "pitch": 48,
              "velocity": 49,
              "position": 6.0,
              "duration": 1.491667
            },
            {
              "pitch": 55,
              "velocity": 64,
              "position": 6.016667,
              "duration": 1.433333
            },
            {
              "pitch": 60,
              "velocity": 80,
              "position": 6.033333,
              "duration": 1.383333
            },
            {
              "pitch": 64,
              "velocity": 80,
              "position": 6.05,
              "duration": 1.341667
            },
            {
              "pitch": 67,
              "velocity": 80,
              "position": 6.066667,
              "duration": 1.258333
            },
            {
              "pitch": 71,
              "velocity": 80,
              "position": 6.083333,
              "duration": 1.216667
            },
            {
              "pitch": 71,
              "velocity": 80,
              "position": 7.508333,
              "duration": 0.441667
            },
            {
              "pitch": 67,
              "velocity": 80,
              "position": 7.533333,
              "duration": 0.458333
            },
            {
              "pitch": 64,
              "velocity": 80,
              "position": 7.566667,
              "duration": 0.391667
            },
            {
              "pitch": 60,
              "velocity": 80,
              "position": 7.6,
              "duration": 0.375
            },
            {
              "pitch": 55,
              "velocity": 80,
              "position": 7.641667,
              "duration": 0.316667
            },
            {
              "pitch": 48,
              "velocity": 42,
              "position": 7.691667,
              "duration": 0.25
            },
            {
              "pitch": 48,
              "velocity": 80,
              "position": 8.075,
              "duration": 1.266667
            },
            {
              "pitch": 55,
              "velocity": 80,
              "position": 8.075,
              "duration": 1.266667
            },
            {
              "pitch": 60,
              "velocity": 80,
              "position": 8.075,
              "duration": 1.266667
            },
            {
              "pitch": 64,
              "velocity": 80,
              "position": 8.083333,
              "duration": 1.183333
            },
            {
              "pitch": 67,
              "velocity": 64,
              "position": 8.083333,
              "duration": 1.15
            },
            {
              "pitch": 71,
              "velocity": 80,
              "position": 8.083333,
              "duration": 1.15
            },
            {
              "pitch": 71,
              "velocity": 80,
              "position": 9.516667,
              "duration": 0.25
            },
            {
              "pitch": 67,
              "velocity": 80,
              "position": 9.541667,
              "duration": 0.216667
            },
            {
              "pitch": 64,
              "velocity": 80,
              "position": 9.575,
              "duration": 0.175
            },
            {
              "pitch": 60,
              "velocity": 80,
              "position": 9.6,
              "duration": 0.266667
            },
            {
              "pitch": 55,
              "velocity": 67,
              "position": 9.633333,
              "duration": 0.208333
            },
            {
              "pitch": 48,
              "velocity": 53,
              "position": 9.658333,
              "duration": 0.283333
            },
            {
              "pitch": 48,
              "velocity": 68,
              "position": 10.008333,
              "duration": 1.45
            },
            {
              "pitch": 55,
              "velocity": 68,
              "position": 10.025,
              "duration": 1.366667
            },
            {
              "pitch": 60,
              "velocity": 80,
              "position": 10.033333,
              "duration": 1.333333
            },
            {
              "pitch": 64,
              "velocity": 80,
              "position": 10.05,
              "duration": 1.225
            },
            {
              "pitch": 67,
              "velocity": 80,
              "position": 10.058333,
              "duration": 1.15
            },
            {
              "pitch": 71,
              "velocity": 80,
              "position": 10.075,
              "duration": 1.108333
            },
            {
              "pitch": 71,
              "velocity": 80,
              "position": 11.416667,
              "duration": 0.316667
            },
            {
              "pitch": 67,
              "velocity": 80,
              "position": 11.458333,
              "duration": 0.35
            },
            {
              "pitch": 64,
              "velocity": 80,
              "position": 11.491667,
              "duration": 0.308333
            },
            {
              "pitch": 60,
              "velocity": 80,
              "position": 11.525,
              "duration": 0.266667
            },
            {
              "pitch": 55,
              "velocity": 80,
              "position": 11.558333,
              "duration": 0.208333
            },
            {
              "pitch": 48,
              "velocity": 55,
              "position": 11.583333,
              "duration": 1.766667
            },
            {
              "pitch": 55,
              "velocity": 68,
              "position": 11.925,
              "duration": 0.608333
            },
            {
              "pitch": 60,
              "velocity": 80,
              "position": 11.983333,
              "duration": 0.95
            },
            {
              "pitch": 64,
              "velocity": 80,
              "position": 12.008333,
              "duration": 0.891667
            },
            {
              "pitch": 67,
              "velocity": 80,
              "position": 12.025,
              "duration": 0.316667
            },
            {
              "pitch": 71,
              "velocity": 58,
              "position": 12.041667,
              "duration": 0.291667
            },
            {
              "pitch": 67,
              "velocity": 80,
              "position": 12.566667,
              "duration": 0.308333
            },
            {
              "pitch": 71,
              "velocity": 80,
              "position": 12.575,
              "duration": 0.308333
            },
            {
              "pitch": 71,
              "velocity": 80,
              "position": 13.466667,
              "duration": 0.866667
            },
            {
              "pitch": 67,
              "velocity": 80,
              "position": 13.491667,
              "duration": 0.841667
            },
            {
              "pitch": 64,
              "velocity": 80,
              "position": 13.516667,
              "duration": 0.816667
            },
            {
              "pitch": 60,
              "velocity": 80,
              "position": 13.541667,
              "duration": 0.866667
            },
            {
              "pitch": 55,
              "velocity": 80,
              "position": 13.566667,
              "duration": 0.883333
            },
            {
              "pitch": 48,
              "velocity": 52,
              "position": 13.583333,
              "duration": 0.75
            },
            {
              "pitch": 71,
              "velocity": 80,
              "position": 14.525,
              "duration": 0.841667
            },
            {
              "pitch": 67,
              "velocity": 80,
              "position": 14.558333,
              "duration": 0.816667
            },
            {
              "pitch": 64,
              "velocity": 80,
              "position": 14.583333,
              "duration": 0.8
            },
            {
              "pitch": 60,
              "velocity": 80,
              "position": 14.616667,
              "duration": 0.85
            },
            {
              "pitch": 55,
              "velocity": 70,
              "position": 14.641667,
              "duration": 0.316667
            },
            {
              "pitch": 48,
              "velocity": 59,
              "position": 14.7,
              "duration": 1.108333
            },
            {
              "pitch": 55,
              "velocity": 60,
              "position": 15.091667,
              "duration": 0.716667
            },
            {
              "pitch": 71,
              "velocity": 80,
              "position": 15.55,
              "duration": 0.258333
            },
            {
              "pitch": 67,
              "velocity": 80,
              "position": 15.583333,
              "duration": 0.225
            },
            {
              "pitch": 64,
              "velocity": 80,
              "position": 15.625,
              "duration": 0.183333
            },
            {
              "pitch": 60,
              "velocity": 78,
              "position": 15.658333,
              "duration": 0.15
            }
          ]
        },
        "13": {
          "ctab": {
            "srcChannel": 13,
            "name": "Strings",
            "accType": "PAD",
            "editable": true,
            "mutedNotes": [],
            "mutedChords": [],
            "sourceChordNote": 0,
            "sourceChordType": "Maj7",
            "ctb2Main": {
              "ntr": "ROOT_FIXED",
              "ntt": "MELODY",
              "bassOn": false,
              "noteLowLimit": 36,
              "noteHighLimit": 96,
              "chordRootUpperLimit": 127,
              "rtr": "PITCH_SHIFT"
            }
          },
          "notes": [
            {
              "pitch": 59,
              "velocity": 74,
              "position": 0.0,
              "duration": 1.733333
            },
            {
              "pitch": 60,
              "velocity": 61,
              "position": 0.5,
              "duration": 0.475
            },
            {
              "pitch": 60,
              "velocity": 74,
              "position": 1.5,
              "duration": 0.233333
            },
            {
              "pitch": 64,
              "velocity": 78,
              "position": 2.0,
              "duration": 0.85
            },
            {
              "pitch": 59,
              "velocity": 50,
              "position": 2.5,
              "duration": 1.083333
            },
            {
              "pitch": 60,
              "velocity": 70,
              "position": 3.0,
              "duration": 0.733333
            },
            {
              "pitch": 64,
              "velocity": 78,
              "position": 3.5,
              "duration": 0.233333
            },
            {
              "pitch": 59,
              "velocity": 62,
              "position": 4.0,
              "duration": 1.4
            },
            {
              "pitch": 64,
              "velocity": 78,
              "position": 4.5,
              "duration": 0.8
            },
            {
              "pitch": 52,
              "velocity": 60,
              "position": 5.0,
              "duration": 0.733333
            },
            {
              "pitch": 60,
              "velocity": 78,
              "position": 5.5,
              "duration": 0.233333
            },
            {
              "pitch": 59,
              "velocity": 74,
              "position": 6.0,
              "duration": 1.733333
            },
            {
              "pitch": 60,
              "velocity": 61,
              "position": 6.5,
              "duration": 0.475
            },
            {
              "pitch": 60,
              "velocity": 74,
              "position": 7.5,
              "duration": 0.233333
            },
            {
              "pitch": 59,
              "velocity": 76,
              "position": 8.0,
              "duration": 1.8
            },
            {
              "pitch": 60,
              "velocity": 63,
              "position": 8.5,
              "duration": 0.475
            },
            {
              "pitch": 60,
              "velocity": 76,
              "position": 9.5,
              "duration": 0.95
            },
            {
              "pitch": 52,
              "velocity": 58,
              "position": 10.0,
              "duration": 0.95
            },
            {
              "pitch": 64,
              "velocity": 76,
              "position": 10.5,
              "duration": 1.016667
            },
            {
              "pitch": 60,
              "velocity": 69,
              "position": 11.5,
              "duration": 1.058333
            },
            {
              "pitch": 52,
              "velocity": 70,
              "position": 12.0,
              "duration": 0.491667
            },
            {
              "pitch": 64,
              "velocity": 76,
              "position": 12.5,
              "duration": 0.808333
            },
            {
              "pitch": 59,
              "velocity": 60,
              "position": 13.0,
              "duration": 1.175
            },
            {
              "pitch": 60,
              "velocity": 76,
              "position": 13.5,
              "duration": 0.85
            },
            {
              "pitch": 64,
              "velocity": 76,
              "position": 14.0,
              "duration": 0.55
            },
            {
              "pitch": 59,
              "velocity": 76,
              "position": 14.5,
              "duration": 0.85
            },
            {
              "pitch": 64,
              "velocity": 76,
              "position": 15.0,
              "duration": 0.575
            },
            {
              "pitch": 52,
              "velocity": 51,
              "position": 15.5,
              "duration": 0.233333
            }
          ]
        }
      }
    },
    "Ending_A": {
      "type": "Ending_A",
      "sizeInBeats": 16,
      "channels": {
        "9": {
          "ctab": {
            "srcChannel": 9,
            "name": "Drums",
            "accType": "RHYTHM",
            "editable": false,
            "mutedNotes": [],
            "mutedChords": [],
            "sourceChordNote": 0,
            "sourceChordType": "Maj",
            "ctb2Main": {
              "ntr": "ROOT_FIXED",
              "ntt": "BYPASS",
              "bassOn": false,
              "noteLowLimit": 20,
              "noteHighLimit": 127,
              "chordRootUpperLimit": 127,
              "rtr": "RETRIGGER"
            }
          },
          "notes": [
            {
              "pitch": 74,
              "velocity": 80,
              "position": 0.0,
              "duration": 0.266667
            },
            {
              "pitch": 76,
              "velocity": 80,
              "position": 0.0,
              "duration": 0.266667
            },
            {
              "pitch": 68,
              "velocity": 80,
              "position": 0.041667,
              "duration": 0.266667
            },
            {
              "pitch": 62,
              "velocity": 73,
              "position": 0.558333,
              "duration": 0.266667
            },
            {
              "pitch": 68,
              "velocity": 80,
              "position": 1.0,
              "duration": 0.266667
            },
            {
              "pitch": 73,
              "velocity": 69,
              "position": 1.0,
              "duration": 0.266667
            },
            {
              "pitch": 62,
              "velocity": 80,
              "position": 1.016667,
              "duration": 0.266667
            },
            {
              "pitch": 73,
              "velocity": 75,
              "position": 1.491667,
              "duration": 0.266667
            },
            {
              "pitch": 62,
              "velocity": 80,
              "position": 1.525,
              "duration": 0.266667
            },
            {
              "pitch": 76,
              "velocity": 80,
              "position": 1.525,
              "duration": 0.266667
            },
            {
              "pitch": 74,
              "velocity": 80,
              "position": 2.025,
              "duration": 0.266667
            },
            {
              "pitch": 68,
              "velocity": 80,
              "position": 2.066667,
              "duration": 0.266667
            },
            {
              "pitch": 62,
              "velocity": 80,
              "position": 2.525,
              "duration": 0.266667
            },
            {
              "pitch": 68,
              "velocity": 30,
              "position": 2.55,
              "duration": 0.266667
            },
            {
              "pitch": 73,
              "velocity": 63,
              "position": 2.983333,
              "duration": 0.266667
            },
            {
              "pitch": 76,
              "velocity": 80,
              "position": 2.991667,
              "duration": 0.266667
            },
            {
              "pitch": 63,
              "velocity": 80,
              "position": 3.0,
              "duration": 0.266667
            },
            {
              "pitch": 68,
              "velocity": 80,
              "position": 3.05,
              "duration": 0.266667
            },
            {
              "pitch": 73,
              "velocity": 63,
              "position": 3.466667,
              "duration": 0.266667
            },
            {
              "pitch": 68,
              "velocity": 74,
              "position": 3.516667,
              "duration": 0.266667
            },
            {
              "pitch": 63,
              "velocity": 80,
              "position": 3.525,
              "duration": 0.266667
            },
            {
              "pitch": 74,
              "velocity": 80,
              "position": 4.008333,
              "duration": 0.266667
            },
            {
              "pitch": 68,
              "velocity": 80,
              "position": 4.025,
              "duration": 0.266667
            },
            {
              "pitch": 62,
              "velocity": 80,
              "position": 4.5,
              "duration": 0.266667
            },
            {
              "pitch": 65,
              "velocity": 80,
              "position": 4.516667,
              "duration": 0.266667
            },
            {
              "pitch": 73,
              "velocity": 77,
              "position": 5.0,
              "duration": 0.266667
            },
            {
              "pitch": 76,
              "velocity": 80,
              "position": 5.008333,
              "duration": 0.266667
            },
            {
              "pitch": 62,
              "velocity": 80,
              "position": 5.016667,
              "duration": 0.266667
            },
            {
              "pitch": 68,
              "velocity": 80,
              "position": 5.025,
              "duration": 0.266667
            },
            {
              "pitch": 64,
              "velocity": 77,
              "position": 5.491667,
              "duration": 0.266667
            },
            {
              "pitch": 73,
              "velocity": 79,
              "position": 5.491667,
              "duration": 0.266667
            },
            {
              "pitch": 66,
              "velocity": 73,
              "position": 5.516667,
              "duration": 0.266667
            },
            {
              "pitch": 64,
              "velocity": 80,
              "position": 6.008333,
              "duration": 0.266667
            },
            {
              "pitch": 74,
              "velocity": 80,
              "position": 6.008333,
              "duration": 0.266667
            },
            {
              "pitch": 76,
              "velocity": 80,
              "position": 6.008333,
              "duration": 0.266667
            },
            {
              "pitch": 66,
              "velocity": 80,
              "position": 6.033333,
              "duration": 0.266667
            },
            {
              "pitch": 68,
              "velocity": 80,
              "position": 6.058333,
              "duration": 0.266667
            },
            {
              "pitch": 64,
              "velocity": 80,
              "position": 6.5,
              "duration": 0.266667
            },
            {
              "pitch": 66,
              "velocity": 80,
              "position": 6.508333,
              "duration": 0.266667
            },
            {
              "pitch": 68,
              "velocity": 80,
              "position": 6.533333,
              "duration": 0.266667
            },
            {
              "pitch": 73,
              "velocity": 80,
              "position": 6.983333,
              "duration": 0.266667
            },
            {
              "pitch": 63,
              "velocity": 80,
              "position": 7.0,
              "duration": 0.266667
            },
            {
              "pitch": 65,
              "velocity": 72,
              "position": 7.033333,
              "duration": 0.266667
            },
            {
              "pitch": 68,
              "velocity": 80,
              "position": 7.033333,
              "duration": 0.266667
            },
            {
              "pitch": 73,
              "velocity": 77,
              "position": 7.491667,
              "duration": 0.266667
            },
            {
              "pitch": 63,
              "velocity": 80,
              "position": 7.5,
              "duration": 0.266667
            },
            {
              "pitch": 65,
              "velocity": 80,
              "position": 7.508333,
              "duration": 0.266667
            },
            {
              "pitch": 76,
              "velocity": 80,
              "position": 8.008333,
              "duration": 0.266667
            },
            {
              "pitch": 74,
              "velocity": 80,
              "position": 8.025,
              "duration": 0.266667
            },
            {
              "pitch": 68,
              "velocity": 80,
              "position": 8.05,
              "duration": 0.266667
            },
            {
              "pitch": 62,
              "velocity": 75,
              "position": 8.483333,
              "duration": 0.266667
            },
            {
              "pitch": 62,
              "velocity": 80,
              "position": 8.966667,
              "duration": 0.266667
            },
            {
              "pitch": 68,
              "velocity": 80,
              "position": 9.0,
              "duration": 0.266667
            },
            {
              "pitch": 73,
              "velocity": 53,
              "position": 9.016667,
              "duration": 0.266667
            },
            {
              "pitch": 62,
              "velocity": 80,
              "position": 9.483333,
              "duration": 0.266667
            },
            {
              "pitch": 68,
              "velocity": 67,
              "position": 9.508333,
              "duration": 0.266667
            },
            {
              "pitch": 73,
              "velocity": 80,
              "position": 9.516667,
              "duration": 0.266667
            },
            {
              "pitch": 76,
              "velocity": 80,
              "position": 9.516667,
              "duration": 0.266667
            },
            {
              "pitch": 68,
              "velocity": 80,
              "position": 10.041667,
              "duration": 0.266667
            },
            {
              "pitch": 74,
              "velocity": 80,
              "position": 10.05,
              "duration": 0.266667
            },
            {
              "pitch": 62,
              "velocity": 80,
              "position": 10.533333,
              "duration": 0.266667
            },
            {
              "pitch": 73,
              "velocity": 73,
              "position": 10.991667,
              "duration": 0.266667
            },
            {
              "pitch": 76,
              "velocity": 80,
              "position": 11.0,
              "duration": 0.266667
            },
            {
              "pitch": 63,
              "velocity": 80,
              "position": 11.025,
              "duration": 0.266667
            },
            {
              "pitch": 68,
              "velocity": 74,
              "position": 11.041667,
              "duration": 0.266667
            },
            {
              "pitch": 73,
              "velocity": 80,
              "position": 11.483333,
              "duration": 0.266667
            },
            {
              "pitch": 63,
              "velocity": 80,
              "position": 11.516667,
              "duration": 0.266667
            },
            {
              "pitch": 68,
              "velocity": 74,
              "position": 11.55,
              "duration": 0.266667
            },
            {
              "pitch": 68,
              "velocity": 80,
              "position": 12.025,
              "duration": 0.266667
            },
            {
              "pitch": 74,
              "velocity": 80,
              "position": 12.05,
              "duration": 0.266667
            },
            {
              "pitch": 62,
              "velocity": 80,
              "position": 12.466667,
              "duration": 0.266667
            },
            {
              "pitch": 65,
              "velocity": 80,
              "position": 12.483333,
              "duration": 0.266667
            },
            {
              "pitch": 68,
              "velocity": 80,
              "position": 12.975,
              "duration": 0.266667
            },
            {
              "pitch": 62,
              "velocity": 80,
              "position": 12.983333,
              "duration": 0.266667
            },
            {
              "pitch": 73,
              "velocity": 80,
              "position": 12.983333,
              "duration": 0.266667
            },
            {
              "pitch": 76,
              "velocity": 80,
              "position": 13.008333,
              "duration": 0.266667
            },
            {
              "pitch": 73,
              "velocity": 53,
              "position": 13.483333,
              "duration": 0.266667
            },
            {
              "pitch": 64,
              "velocity": 80,
              "position": 13.491667,
              "duration": 0.266667
            },
            {
              "pitch": 74,
              "velocity": 80,
              "position": 14.0,
              "duration": 0.266667
            },
            {
              "pitch": 64,
              "velocity": 71,
              "position": 14.008333,
              "duration": 0.266667
            },
            {
              "pitch": 76,
              "velocity": 80,
              "position": 14.008333,
              "duration": 0.266667
            },
            {
              "pitch": 68,
              "velocity": 80,
              "position": 14.033333,
              "duration": 0.266667
            },
            {
              "pitch": 66,
              "velocity": 80,
              "position": 14.475,
              "duration": 0.266667
            },
            {
              "pitch": 63,
              "velocity": 80,
              "position": 14.5,
              "duration": 0.266667
            },
            {
              "pitch": 73,
              "velocity": 59,
              "position": 14.983333,
              "duration": 0.266667
            },
            {
              "pitch": 66,
              "velocity": 80,
              "position": 14.991667,
              "duration": 0.266667
            },
            {
              "pitch": 64,
              "velocity": 75,
              "position": 15.0,
              "duration": 0.266667
            },
            {
              "pitch": 68,
              "velocity": 80,
              "position": 15.025,
              "duration": 0.266667
            },
            {
              "pitch": 73,
              "velocity": 57,
              "position": 15.475,
              "duration": 0.291667
            },
            {
              "pitch": 65,
              "velocity": 80,
              "position": 15.491667,
              "duration": 0.275
            },
            {
              "pitch": 64,
              "velocity": 80,
              "position": 15.516667,
              "duration": 0.25
            },
            {
              "pitch": 62,
              "velocity": 65,
              "position": 15.766667,
              "duration": 0.233333
            }
          ]
        },
        "10": {
          "ctab": {
            "srcChannel": 10,
            "name": "Bass",
            "accType": "BASS",
            "editable": true,
            "mutedNotes": [],
            "mutedChords": [],
            "sourceChordNote": 0,
            "sourceChordType": "Maj7",
            "ctb2Main": {
              "ntr": "ROOT_TRANSPOSITION",
              "ntt": "BYPASS",
              "bassOn": true,
              "noteLowLimit": 20,
              "noteHighLimit": 60,
              "chordRootUpperLimit": 127,
              "rtr": "NOTE_GENERATOR"
            }
          },
          "notes": [
            {
              "pitch": 36,
              "velocity": 75,
              "position": 0.0,
              "duration": 1.058333
            },
            {
              "pitch": 31,
              "velocity": 75,
              "position": 1.5,
              "duration": 0.458333
            },
            {
              "pitch": 36,
              "velocity": 75,
              "position": 2.0,
              "duration": 1.058333
            },
            {
              "pitch": 31,
              "velocity": 75,
              "position": 3.5,
              "duration": 0.458333
            },
            {
              "pitch": 36,
              "velocity": 75,
              "position": 4.0,
              "duration": 1.058333
            },
            {
              "pitch": 31,
              "velocity": 75,
              "position": 5.5,
              "duration": 0.458333
            },
            {
              "pitch": 36,
              "velocity": 75,
              "position": 6.0,
              "duration": 1.058333
            },
            {
              "pitch": 31,
              "velocity": 75,
              "position": 7.5,
              "duration": 0.458333
            },
            {
              "pitch": 36,
              "velocity": 80,
              "position": 8.0,
              "duration": 1.058333
            },
            {
              "pitch": 36,
              "velocity": 61,
              "position": 9.5,
              "duration": 0.291667
            },
            {
              "pitch": 36,
              "velocity": 80,
              "position": 10.0,
              "duration": 0.925
            },
            {
              "pitch": 31,
              "velocity": 80,
              "position": 11.5,
              "duration": 0.375
            },
            {
              "pitch": 36,
              "velocity": 80,
              "position": 12.0,
              "duration": 1.058333
            },
            {
              "pitch": 36,
              "velocity": 61,
              "position": 13.5,
              "duration": 0.291667
            },
            {
              "pitch": 36,
              "velocity": 80,
              "position": 14.0,
              "duration": 0.925
            },
            {
              "pitch": 31,
              "velocity": 80,
              "position": 15.5,
              "duration": 0.375
            }
          ]
        },
        "11": {
          "ctab": {
            "srcChannel": 11,
            "name": "Piano",
            "accType": "CHORD1",
            "editable": true,
            "mutedNotes": [],
            "mutedChords": [],
            "sourceChordNote": 0,
            "sourceChordType": "Maj7",
            "ctb2Main": {
              "ntr": "ROOT_FIXED",
              "ntt": "CHORD",
              "bassOn": false,
              "noteLowLimit": 48,
              "noteHighLimit": 84,
              "chordRootUpperLimit": 127,
              "rtr": "NOTE_GENERATOR"
            }
          },
          "notes": []
        },
        "12": {
          "ctab": {
            "srcChannel": 12,
            "name": "Guitar",
            "accType": "CHORD2",
            "editable": true,
            "mutedNotes": [],
            "mutedChords": [],
            "sourceChordNote": 0,
            "sourceChordType": "Maj7",
            "ctb2Main": {
              "ntr": "ROOT_FIXED",
              "ntt": "CHORD",
              "bassOn": false,
              "noteLowLimit": 40,
              "noteHighLimit": 76,
              "chordRootUpperLimit": 127,
              "rtr": "NOTE_GENERATOR"
            }
          },
          "notes": [
            {
              "pitch": 48,
              "velocity": 79,
              "position": 0.091667,
              "duration": 1.908333
            },
            {
              "pitch": 55,
              "velocity": 71,
              "position": 0.108333,
              "duration": 1.416667
            },
            {
              "pitch": 60,
              "velocity": 64,
              "position": 0.125,
              "duration": 0.483333
            },
            {
              "pitch": 64,
              "velocity": 63,
              "position": 0.133333,
              "duration": 0.45
            },
            {
              "pitch": 67,
              "velocity": 58,
              "position": 0.141667,
              "duration": 0.433333
            },
            {
              "pitch": 71,
              "velocity": 61,
              "position": 0.15,
              "duration": 0.383333
            },
            {
              "pitch": 71,
              "velocity": 80,
              "position": 0.625,
              "duration": 0.841667
            },
            {
              "pitch": 67,
              "velocity": 80,
              "position": 0.65,
              "duration": 0.816667
            },
            {
              "pitch": 64,
              "velocity": 80,
              "position": 0.666667,
              "duration": 0.8
            },
            {
              "pitch": 60,
              "velocity": 80,
              "position": 0.683333,
              "duration": 0.875
            },
            {
              "pitch": 71,
              "velocity": 80,
              "position": 1.55,
              "duration": 0.45
            },
            {
              "pitch": 67,
              "velocity": 80,
              "position": 1.583333,
              "duration": 0.408333
            },
            {
              "pitch": 64,
              "velocity": 80,
              "position": 1.616667,
              "duration": 0.358333
            },
            {
              "pitch": 60,
              "velocity": 80,
              "position": 1.65,
              "duration": 0.308333
            },
            {
              "pitch": 55,
              "velocity": 49,
              "position": 1.683333,
              "duration": 0.266667
            },
            {
              "pitch": 60,
              "velocity": 80,
              "position": 2.0,
              "duration": 1.366667
            },
            {
              "pitch": 64,
              "velocity": 80,
              "position": 2.0,
              "duration": 1.366667
            },
            {
              "pitch": 67,
              "velocity": 80,
              "position": 2.008333,
              "duration": 1.3
            },
            {
              "pitch": 71,
              "velocity": 79,
              "position": 2.025,
              "duration": 1.25
            },
            {
              "pitch": 71,
              "velocity": 80,
              "position": 3.525,
              "duration": 0.408333
            },
            {
              "pitch": 67,
              "velocity": 80,
              "position": 3.55,
              "duration": 0.383333
            },
            {
              "pitch": 64,
              "velocity": 80,
              "position": 3.566667,
              "duration": 0.366667
            },
            {
              "pitch": 60,
              "velocity": 76,
              "position": 3.591667,
              "duration": 0.333333
            },
            {
              "pitch": 55,
              "velocity": 52,
              "position": 3.608333,
              "duration": 0.391667
            },
            {
              "pitch": 60,
              "velocity": 80,
              "position": 4.0,
              "duration": 1.366667
            },
            {
              "pitch": 64,
              "velocity": 80,
              "position": 4.0,
              "duration": 1.366667
            },
            {
              "pitch": 67,
              "velocity": 80,
              "position": 4.008333,
              "duration": 1.3
            },
            {
              "pitch": 71,
              "velocity": 79,
              "position": 4.025,
              "duration": 1.25
            },
            {
              "pitch": 71,
              "velocity": 80,
              "position": 5.525,
              "duration": 0.408333
            },
            {
              "pitch": 67,
              "velocity": 80,
              "position": 5.55,
              "duration": 0.383333
            },
            {
              "pitch": 64,
              "velocity": 80,
              "position": 5.566667,
              "duration": 0.366667
            },
            {
              "pitch": 60,
              "velocity": 76,
              "position": 5.591667,
              "duration": 0.333333
            },
            {
              "pitch": 55,
              "velocity": 52,
              "position": 5.608333,
              "duration": 0.391667
            },
            {
              "pitch": 48,
              "velocity": 74,
              "position": 6.091667,
              "duration": 1.908333
            },
            {
              "pitch": 64,
              "velocity": 80,
              "position": 6.108333,
              "duration": 0.483333
            },
            {
              "pitch": 55,
              "velocity": 80,
              "position": 6.116667,
              "duration": 1.883333
            },
            {
              "pitch": 60,
              "velocity": 71,
              "position": 6.141667,
              "duration": 1.708333
            },
            {
              "pitch": 71,
              "velocity": 80,
              "position": 6.55,
              "duration": 0.8
            },
            {
              "pitch": 67,
              "velocity": 80,
              "position": 6.566667,
              "duration": 0.8
            },
            {
              "pitch": 64,
              "velocity": 77,
              "position": 6.591667,
              "duration": 0.808333
            },
            {
              "pitch": 71,
              "velocity": 80,
              "position": 7.566667,
              "duration": 0.433333
            },
            {
              "pitch": 67,
              "velocity": 80,
              "position": 7.6,
              "duration": 0.358333
            },
            {
              "pitch": 64,
              "velocity": 71,
              "position": 7.625,
              "duration": 0.375
            },
            {
              "pitch": 48,
              "velocity": 79,
              "position": 8.091667,
              "duration": 3.475
            },
            {
              "pitch": 55,
              "velocity": 71,
              "position": 8.108333,
              "duration": 1.416667
            },
            {
              "pitch": 60,
              "velocity": 64,
              "position": 8.125,
              "duration": 0.483333
            },
            {
              "pitch": 64,
              "velocity": 63,
              "position": 8.133333,
              "duration": 0.45
            },
            {
              "pitch": 67,
              "velocity": 58,
              "position": 8.141667,
              "duration": 0.433333
            },
            {
              "pitch": 71,
              "velocity": 61,
              "position": 8.15,
              "duration": 0.383333
            },
            {
              "pitch": 71,
              "velocity": 80,
              "position": 8.625,
              "duration": 0.841667
            },
            {
              "pitch": 67,
              "velocity": 80,
              "position": 8.65,
              "duration": 0.816667
            },
            {
              "pitch": 64,
              "velocity": 80,
              "position": 8.666667,
              "duration": 0.8
            },
            {
              "pitch": 60,
              "velocity": 80,
              "position": 8.683333,
              "duration": 0.875
            },
            {
              "pitch": 71,
              "velocity": 80,
              "position": 9.55,
              "duration": 0.458333
            },
            {
              "pitch": 67,
              "velocity": 80,
              "position": 9.583333,
              "duration": 0.408333
            },
            {
              "pitch": 64,
              "velocity": 80,
              "position": 9.616667,
              "duration": 0.358333
            },
            {
              "pitch": 60,
              "velocity": 80,
              "position": 9.65,
              "duration": 0.308333
            },
            {
              "pitch": 55,
              "velocity": 49,
              "position": 9.683333,
              "duration": 0.266667
            },
            {
              "pitch": 55,
              "velocity": 80,
              "position": 10.041667,
              "duration": 1.316667
            },
            {
              "pitch": 60,
              "velocity": 80,
              "position": 10.066667,
              "duration": 1.275
            },
            {
              "pitch": 64,
              "velocity": 80,
              "position": 10.075,
              "duration": 1.133333
            },
            {
              "pitch": 67,
              "velocity": 80,
              "position": 10.091667,
              "duration": 1.108333
            },
            {
              "pitch": 71,
              "velocity": 80,
              "position": 10.1,
              "duration": 1.091667
            },
            {
              "pitch": 67,
              "velocity": 80,
              "position": 11.508333,
              "duration": 0.408333
            },
            {
              "pitch": 71,
              "velocity": 80,
              "position": 11.533333,
              "duration": 0.466667
            },
            {
              "pitch": 64,
              "velocity": 80,
              "position": 11.55,
              "duration": 0.358333
            },
            {
              "pitch": 60,
              "velocity": 80,
              "position": 11.583333,
              "duration": 0.308333
            },
            {
              "pitch": 55,
              "velocity": 46,
              "position": 11.616667,
              "duration": 0.258333
            },
            {
              "pitch": 48,
              "velocity": 49,
              "position": 12.0,
              "duration": 1.491667
            },
            {
              "pitch": 55,
              "velocity": 64,
              "position": 12.016667,
              "duration": 1.433333
            },
            {
              "pitch": 60,
              "velocity": 80,
              "position": 12.033333,
              "duration": 1.383333
            },
            {
              "pitch": 64,
              "velocity": 80,
              "position": 12.05,
              "duration": 1.341667
            },
            {
              "pitch": 67,
              "velocity": 80,
              "position": 12.066667,
              "duration": 1.258333
            },
            {
              "pitch": 71,
              "velocity": 80,
              "position": 12.083333,
              "duration": 1.216667
            },
            {
              "pitch": 71,
              "velocity": 80,
              "position": 13.508333,
              "duration": 0.441667
            },
            {
              "pitch": 67,
              "velocity": 80,
              "position": 13.533333,
              "duration": 0.458333
            },
            {
              "pitch": 64,
              "velocity": 80,
              "position": 13.566667,
              "duration": 0.391667
            },
            {
              "pitch": 60,
              "velocity": 80,
              "position": 13.6,
              "duration": 0.375
            },
            {
              "pitch": 55,
              "velocity": 80,
              "position": 13.641667,
              "duration": 0.316667
            },
            {
              "pitch": 48,
              "velocity": 42,
              "position": 13.691667,
              "duration": 0.25
            },
            {
              "pitch": 48,
              "velocity": 72,
              "position": 14.008333,
              "duration": 1.725
            },
            {
              "pitch": 55,
              "velocity": 80,
              "position": 14.025,
              "duration": 1.708333
            },
            {
              "pitch": 60,
              "velocity": 76,
              "position": 14.041667,
              "duration": 1.691667
            },
            {
              "pitch": 64,
              "velocity": 80,
              "position": 14.05,
              "duration": 1.666667
            },
            {
              "pitch": 67,
              "velocity": 80,
              "position": 14.066667,
              "duration": 1.291667
            },
            {
              "pitch": 71,
              "velocity": 80,
              "position": 14.075,
              "duration": 1.258333
            },
            {
              "pitch": 71,
              "velocity": 80,
              "position": 15.533333,
              "duration": 0.2
            },
            {
              "pitch": 67,
              "velocity": 64,
              "position": 15.55,
              "duration": 0.183333
            }
          ]
        },
        "13": {
          "ctab": {
            "srcChannel": 13,
            "name": "Strings",
            "accType": "PAD",
            "editable": true,
            "mutedNotes": [],
            "mutedChords": [],
            "sourceChordNote": 0,
            "sourceChordType": "Maj7",
            "ctb2Main": {
              "ntr": "ROOT_FIXED",
              "ntt": "MELODY",
              "bassOn": false,
              "noteLowLimit": 36,
              "noteHighLimit": 96,
              "chordRootUpperLimit": 127,
              "rtr": "PITCH_SHIFT"
            }
          },
          "notes": []
        }
      }
    }
  }
}