{
  "name": "GRET Shuffle Nashville Rock+",
  "tempo": 76,
  "timeSignature": "4/4",
  "ticksPerQuarter": 120,
  "sffType": "SFF1",
  "division": "BINARY",
  "channelPrograms": {
    "9": 0,
    "10": 33,
    "11": 0,
    "12": 25,
    "13": 27
  },
  "parts": {
    "Intro_A": {
      "type": "Intro_A",
      "sizeInBeats": 24,
      "channels": {
        "9": {
          "ctab": {
            "srcChannel": 9,
            "name": "Drums",
            "accType": "RHYTHM",
            "editable": false,
            "mutedNotes": [],
            "mutedChords": [],
            "sourceChordNote": 0,
            "sourceChordType": "Maj",
            "ctb2Main": {
              "ntr": "ROOT_FIXED",
              "ntt": "BYPASS",
              "bassOn": false,
              "noteLowLimit": 20,
              "noteHighLimit": 127,
              "chordRootUpperLimit": 127,
              "rtr": "RETRIGGER"
            }
          },
          "notes": [
            {
              "pitch": 37,
              "velocity": 84,
              "position": 0.0,
              "duration": 1.0
            },
            {
              "pitch": 37,
              "velocity": 84,
              "position": 2.0,
              "duration": 1.0
            },
            {
              "pitch": 37,
              "velocity": 64,
              "position": 4.0,
              "duration": 1.0
            },
            {
              "pitch": 37,
              "velocity": 84,
              "position": 5.0,
              "duration": 1.0
            },
            {
              "pitch": 37,
              "velocity": 64,
              "position": 6.0,
              "duration": 1.0
            },
            {
              "pitch": 37,
              "velocity": 84,
              "position": 7.0,
              "duration": 1.0
            },
            {
              "pitch": 36,
              "velocity": 91,
              "position": 8.0,
              "duration": 0.075
            },
            {
              "pitch": 42,
              "velocity": 127,
              "position": 8.0,
              "duration": 0.075
            },
            {
              "pitch": 36,
              "velocity": 104,
              "position": 8.5,
              "duration": 0.075
            },
            {
              "pitch": 42,
              "velocity": 124,
              "position": 8.5,
              "duration": 0.075
            },
            {
              "pitch": 40,
              "velocity": 127,
              "position": 9.0,
              "duration": 0.075
            },
            {
              "pitch": 42,
              "velocity": 127,
              "position": 9.0,
              "duration": 0.075
            },
            {
              "pitch": 42,
              "velocity": 123,
              "position": 9.5,
              "duration": 0.075
            },
            {
              "pitch": 36,
              "velocity": 95,
              "position": 10.0,
              "duration": 0.075
            },
            {
              "pitch": 42,
              "velocity": 127,
              "position": 10.0,
              "duration": 0.075
            },
            {
              "pitch": 36,
              "velocity": 103,
              "position": 10.5,
              "duration": 0.075
            },
            {
              "pitch": 42,
              "velocity": 84,
              "position": 10.5,
              "duration": 0.075
            },
            {
              "pitch": 40,
              "velocity": 127,
              "position": 11.0,
              "duration": 0.075
            },
            {
              "pitch": 42,
              "velocity": 127,
              "position": 11.0,
              "duration": 0.075
            },
            {
              "pitch": 42,
              "velocity": 79,
              "position": 11.5,
              "duration": 0.075
            },
            {
              "pitch": 40,
              "velocity": 40,
              "position": 11.833333,
              "duration": 0.075
            },
            {
              "pitch": 36,
              "velocity": 87,
              "position": 12.0,
              "duration": 0.075
            },
            {
              "pitch": 42,
              "velocity": 76,
              "position": 12.0,
              "duration": 0.075
            },
            {
              "pitch": 36,
              "velocity": 115,
              "position": 12.5,
              "duration": 0.075
            },
            {
              "pitch": 42,
              "velocity": 85,
              "position": 12.5,
              "duration": 0.075
            },
            {
              "pitch": 40,
              "velocity": 127,
              "position": 13.0,
              "duration": 0.075
            },
            {
              "pitch": 42,
              "velocity": 127,
              "position": 13.0,
              "duration": 0.075
            },
            {
              "pitch": 42,
              "velocity": 116,
              "position": 13.5,
              "duration": 0.075
            },
            {
              "pitch": 36,
              "velocity": 98,
              "position": 14.0,
              "duration": 0.075
            },
            {
              "pitch": 42,
              "velocity": 75,
              "position": 14.0,
              "duration": 0.075
            },
            {
              "pitch": 40,
              "velocity": 40,
              "position": 14.333333,
              "duration": 0.075
            },
            {
              "pitch": 36,
              "velocity": 110,
              "position": 14.5,
              "duration": 0.075
            },
            {
              "pitch": 42,
              "velocity": 113,
              "position": 14.5,
              "duration": 0.075
            },
            {
              "pitch": 40,
              "velocity": 127,
              "position": 15.0,
              "duration": 0.075
            },
            {
              "pitch": 42,
              "velocity": 113,
              "position": 15.0,
              "duration": 0.075
            },
            {
              "pitch": 42,
              "velocity": 97,
              "position": 15.5,
              "duration": 0.075
            },
            {
              "pitch": 42,
              "velocity": 69,
              "position": 15.833333,
              "duration": 0.075
            },
            {
              "pitch": 36,
              "velocity": 101,
              "position": 16.0,
              "duration": 0.075
            },
            {
              "pitch": 42,
              "velocity": 126,
              "position": 16.0,
              "duration": 0.075
            },
            {
              "pitch": 36,
              "velocity": 34,
              "position": 16.5,
              "duration": 0.075
            },
            {
              "pitch": 42,
              "velocity": 97,
              "position": 16.5,
              "duration": 0.075
            },
            {
              "pitch": 40,
              "velocity": 127,
              "position": 17.0,
              "duration": 0.075
            },
            {
              "pitch": 42,
              "velocity": 127,
              "position": 17.0,
              "duration": 0.075
            },
            {
              "pitch": 42,
              "velocity": 89,
              "position": 17.5,
              "duration": 0.075
            },
            {
              "pitch": 36,
              "velocity": 92,
              "position": 18.0,
              "duration": 0.075
            },
            {
              "pitch": 42,
              "velocity": 127,
              "position": 18.0,
              "duration": 0.075
            },
            {
              "pitch": 36,
              "velocity": 105,
              "position": 18.5,
              "duration": 0.075
            },
            {
              "pitch": 42,
              "velocity": 84,
              "position": 18.5,
              "duration": 0.075
            },
            {
              "pitch": 40,
              "velocity": 127,
              "position": 19.0,
              "duration": 0.075
            },
            {
              "pitch": 42,
              "velocity": 127,
              "position": 19.0,
              "duration": 0.075
            },
            {
              "pitch": 42,
              "velocity": 73,
              "position": 19.5,
              "duration": 0.075
            },
            {
              "pitch": 36,
              "velocity": 116,
              "position": 20.0,
              "duration": 0.075
            },
            {
              "pitch": 42,
              "velocity": 82,
              "position": 20.0,
              "duration": 0.075
            },
            {
              "pitch": 42,
              "velocity": 126,
              "position": 20.5,
              "duration": 0.075
            },
            {
              "pitch": 36,
              "velocity": 92,
              "position": 20.833333,
              "duration": 0.075
            },
            {
              "pitch": 40,
              "velocity": 127,
              "position": 21.0,
              "duration": 0.075
            },
            {
              "pitch": 42,
              "velocity": 127,
              "position": 21.0,
              "duration": 0.075
            },
            {
              "pitch": 42,
              "velocity": 94,
              "position": 21.5,
              "duration": 0.075
            },
            {
              "pitch": 40,
              "velocity": 127,
              "position": 21.833333,
              "duration": 0.075
            },
            {
              "pitch": 42,
              "velocity": 121,
              "position": 22.0,
              "duration": 0.075
            },
            {
              "pitch": 45,
              "velocity": 33,
              "position": 22.333333,
              "duration": 0.075
            },
            {
              "pitch": 48,
              "velocity": 127,
              "position": 22.333333,
              "duration": 0.075
            },
            {
              "pitch": 42,
              "velocity": 127,
              "position": 22.5,
              "duration": 0.075
            },
            {
              "pitch": 40,
              "velocity": 127,
              "position": 22.833333,
              "duration": 0.075
            },
            {
              "pitch": 36,
              "velocity": 86,
              "position": 23.0,
              "duration": 0.075
            },
            {
              "pitch": 40,
              "velocity": 127,
              "position": 23.0,
              "duration": 0.075
            },
            {
              "pitch": 40,
              "velocity": 127,
              "position": 23.333333,
              "duration": 0.075
            },
            {
              "pitch": 45,
              "velocity": 127,
              "position": 23.5,
              "duration": 0.075
            },
            {
              "pitch": 36,
              "velocity": 68,
              "position": 23.833333,
              "duration": 0.075
            }
          ]
        },
        "10": {
          "ctab": {
            "srcChannel": 10,
            "name": "Bass",
            "accType": "BASS",
            "editable": true,
            "mutedNotes": [],
            "mutedChords": [],
            "sourceChordNote": 0,
            "sourceChordType": "Maj7",
            "ctb2Main": {
              "ntr": "ROOT_TRANSPOSITION",
              "ntt": "BYPASS",
              "bassOn": true,
              "noteLowLimit": 20,
              "noteHighLimit": 60,
              "chordRootUpperLimit": 127,
              "rtr": "NOTE_GENERATOR"
            }
          },
          "notes": [
            {
              "pitch": 36,
              "velocity": 88,
              "position": 8.0,
              "duration": 1.0
            },
            {
              "pitch": 36,
              "velocity": 78,
              "position": 9.0,
              "duration": 0.958333
            },
            {
              "pitch": 36,
              "velocity": 93,
              "position": 10.0,
              "duration": 0.191667
            },
            {
              "pitch": 36,
              "velocity": 90,
              "position": 10.508333,
              "duration": 1.108333
            },
            {
              "pitch": 36,
              "velocity": 90,
              "position": 12.008333,
              "duration": 0.225
            },
            {
              "pitch": 36,
              "velocity": 90,
              "position": 12.525,
              "duration": 1.216667
            },
            {
              "pitch": 36,
              "velocity": 81,
              "position": 13.741667,
              "duration": 0.208333
            },
            {
              "pitch": 36,
              "velocity": 88,
              "position": 14.0,
              "duration": 1.0
            },
            {
              "pitch": 36,
              "velocity": 78,
              "position": 15.0,
              "duration": 0.958333
            },
            {
              "pitch": 36,
              "velocity": 89,
              "position": 16.008333,
              "duration": 0.2
            },
            {
              "pitch": 36,
              "velocity": 85,
              "position": 16.508333,
              "duration": 1.475
            },
            {
              "pitch": 36,
              "velocity": 84,
              "position": 17.991667,
              "duration": 0.191667
            },
            {
              "pitch": 36,
              "velocity": 84,
              "position": 18.491667,
              "duration": 1.325
            },
            {
              "pitch": 36,
              "velocity": 52,
              "position": 19.833333,
              "duration": 0.175
            },
            {
              "pitch": 36,
              "velocity": 72,
              "position": 20.016667,
              "duration": 0.2
            },
            {
              "pitch": 36,
              "velocity": 79,
              "position": 20.525,
              "duration": 1.283333
            },
            {
              "pitch": 36,
              "velocity": 82,
              "position": 22.025,
              "duration": 0.183333
            },
            {
              "pitch": 36,
              "velocity": 89,
              "position": 22.525,
              "duration": 1.091667
            }
          ]
        },
        "11": {
          "ctab": {
            "srcChannel": 11,
            "name": "Piano",
            "accType": "CHORD1",
            "editable": true,
            "mutedNotes": [],
            "mutedChords": [],
            "sourceChordNote": 0,
            "sourceChordType": "Maj7",
            "ctb2Main": {
              "ntr": "ROOT_FIXED",
              "ntt": "CHORD",
              "bassOn": false,
              "noteLowLimit": 48,
              "noteHighLimit": 84,
              "chordRootUpperLimit": 127,
              "rtr": "NOTE_GENERATOR"
            }
          },
          "notes": [
            {
              "pitch": 36,
              "velocity": 86,
              "position": 8.0,
              "duration": 1.633333
            },
            {
              "pitch": 48,
              "velocity": 88,
              "position": 8.008333,
              "duration": 1.6
            },
            {
              "pitch": 59,
              "velocity": 92,
              "position": 8.008333,
              "duration": 0.841667
            },
            {
              "pitch": 64,
              "velocity": 82,
              "position": 8.008333,
              "duration": 0.85
            },
            {
              "pitch": 71,
              "velocity": 76,
              "position": 8.008333,
              "duration": 0.866667
            },
            {
              "pitch": 67,
              "velocity": 88,
              "position": 8.016667,
              "duration": 0.883333
            },
            {
              "pitch": 71,
              "velocity": 68,
              "position": 8.983333,
              "duration": 0.975
            },
            {
              "pitch": 59,
              "velocity": 89,
              "position": 8.991667,
              "duration": 0.608333
            },
            {
              "pitch": 64,
              "velocity": 72,
              "position": 9.0,
              "duration": 0.625
            },
            {
              "pitch": 67,
              "velocity": 87,
              "position": 9.0,
              "duration": 0.883333
            },
            {
              "pitch": 59,
              "velocity": 87,
              "position": 9.791667,
              "duration": 0.075
            },
            {
              "pitch": 64,
              "velocity": 56,
              "position": 9.8,
              "duration": 0.116667
            },
            {
              "pitch": 36,
              "velocity": 76,
              "position": 10.0,
              "duration": 1.675
            },
            {
              "pitch": 48,
              "velocity": 82,
              "position": 10.0,
              "duration": 0.891667
            },
            {
              "pitch": 55,
              "velocity": 89,
              "position": 10.008333,
              "duration": 0.883333
            },
            {
              "pitch": 59,
              "velocity": 89,
              "position": 10.008333,
              "duration": 0.891667
            },
            {
              "pitch": 60,
              "velocity": 86,
              "position": 10.016667,
              "duration": 0.883333
            },
            {
              "pitch": 64,
              "velocity": 82,
              "position": 10.016667,
              "duration": 0.85
            },
            {
              "pitch": 55,
              "velocity": 86,
              "position": 10.991667,
              "duration": 0.633333
            },
            {
              "pitch": 59,
              "velocity": 91,
              "position": 10.991667,
              "duration": 0.966667
            },
            {
              "pitch": 60,
              "velocity": 87,
              "position": 10.991667,
              "duration": 0.966667
            },
            {
              "pitch": 64,
              "velocity": 74,
              "position": 10.991667,
              "duration": 0.966667
            },
            {
              "pitch": 48,
              "velocity": 66,
              "position": 11.0,
              "duration": 0.958333
            },
            {
              "pitch": 55,
              "velocity": 64,
              "position": 11.808333,
              "duration": 0.116667
            },
            {
              "pitch": 36,
              "velocity": 91,
              "position": 12.025,
              "duration": 1.833333
            },
            {
              "pitch": 59,
              "velocity": 89,
              "position": 12.025,
              "duration": 0.05
            },
            {
              "pitch": 60,
              "velocity": 89,
              "position": 12.025,
              "duration": 0.916667
            },
            {
              "pitch": 48,
              "velocity": 92,
              "position": 12.033333,
              "duration": 1.166667
            },
            {
              "pitch": 55,
              "velocity": 90,
              "position": 12.033333,
              "duration": 0.891667
            },
            {
              "pitch": 64,
              "velocity": 89,
              "position": 12.033333,
              "duration": 0.875
            },
            {
              "pitch": 55,
              "velocity": 88,
              "position": 13.016667,
              "duration": 0.633333
            },
            {
              "pitch": 60,
              "velocity": 92,
              "position": 13.016667,
              "duration": 0.9
            },
            {
              "pitch": 64,
              "velocity": 80,
              "position": 13.016667,
              "duration": 0.908333
            },
            {
              "pitch": 48,
              "velocity": 62,
              "position": 13.825,
              "duration": 0.133333
            },
            {
              "pitch": 36,
              "velocity": 76,
              "position": 14.0,
              "duration": 1.675
            },
            {
              "pitch": 48,
              "velocity": 82,
              "position": 14.0,
              "duration": 0.891667
            },
            {
              "pitch": 55,
              "velocity": 89,
              "position": 14.008333,
              "duration": 0.883333
            },
            {
              "pitch": 59,
              "velocity": 89,
              "position": 14.008333,
              "duration": 0.891667
            },
            {
              "pitch": 60,
              "velocity": 86,
              "position": 14.016667,
              "duration": 0.883333
            },
            {
              "pitch": 64,
              "velocity": 82,
              "position": 14.016667,
              "duration": 0.85
            },
            {
              "pitch": 55,
              "velocity": 86,
              "position": 14.991667,
              "duration": 0.633333
            },
            {
              "pitch": 59,
              "velocity": 91,
              "position": 14.991667,
              "duration": 0.966667
            },
            {
              "pitch": 60,
              "velocity": 87,
              "position": 14.991667,
              "duration": 0.966667
            },
            {
              "pitch": 64,
              "velocity": 74,
              "position": 14.991667,
              "duration": 0.966667
            },
            {
              "pitch": 48,
              "velocity": 66,
              "position": 15.0,
              "duration": 0.958333
            },
            {
              "pitch": 55,
              "velocity": 64,
              "position": 15.808333,
              "duration": 0.116667
            },
            {
              "pitch": 36,
              "velocity": 89,
              "position": 16.0,
              "duration": 1.616667
            },
            {
              "pitch": 48,
              "velocity": 89,
              "position": 16.0,
              "duration": 1.291667
            },
            {
              "pitch": 59,
              "velocity": 92,
              "position": 16.0,
              "duration": 1.858333
            },
            {
              "pitch": 64,
              "velocity": 86,
              "position": 16.008333,
              "duration": 1.883333
            },
            {
              "pitch": 67,
              "velocity": 89,
              "position": 16.008333,
              "duration": 1.808333
            },
            {
              "pitch": 55,
              "velocity": 82,
              "position": 17.833333,
              "duration": 0.066667
            },
            {
              "pitch": 36,
              "velocity": 70,
              "position": 18.0,
              "duration": 0.066667
            },
            {
              "pitch": 48,
              "velocity": 38,
              "position": 18.008333,
              "duration": 0.05
            },
            {
              "pitch": 36,
              "velocity": 87,
              "position": 18.483333,
              "duration": 1.158333
            },
            {
              "pitch": 48,
              "velocity": 90,
              "position": 18.491667,
              "duration": 1.283333
            },
            {
              "pitch": 64,
              "velocity": 87,
              "position": 18.983333,
              "duration": 0.925
            },
            {
              "pitch": 59,
              "velocity": 89,
              "position": 18.991667,
              "duration": 0.691667
            },
            {
              "pitch": 60,
              "velocity": 89,
              "position": 18.991667,
              "duration": 0.641667
            },
            {
              "pitch": 55,
              "velocity": 89,
              "position": 19.0,
              "duration": 0.966667
            },
            {
              "pitch": 36,
              "velocity": 90,
              "position": 19.991667,
              "duration": 1.633333
            },
            {
              "pitch": 48,
              "velocity": 90,
              "position": 19.991667,
              "duration": 2.075
            },
            {
              "pitch": 64,
              "velocity": 76,
              "position": 20.008333,
              "duration": 1.808333
            },
            {
              "pitch": 55,
              "velocity": 54,
              "position": 20.016667,
              "duration": 1.558333
            },
            {
              "pitch": 59,
              "velocity": 91,
              "position": 20.016667,
              "duration": 1.283333
            },
            {
              "pitch": 55,
              "velocity": 78,
              "position": 21.816667,
              "duration": 0.1
            },
            {
              "pitch": 36,
              "velocity": 82,
              "position": 22.0,
              "duration": 1.958333
            },
            {
              "pitch": 59,
              "velocity": 93,
              "position": 22.3,
              "duration": 0.058333
            },
            {
              "pitch": 64,
              "velocity": 78,
              "position": 22.308333,
              "duration": 0.066667
            },
            {
              "pitch": 67,
              "velocity": 74,
              "position": 22.325,
              "duration": 0.033333
            },
            {
              "pitch": 48,
              "velocity": 82,
              "position": 22.5,
              "duration": 1.458333
            },
            {
              "pitch": 59,
              "velocity": 93,
              "position": 23.0,
              "duration": 0.958333
            },
            {
              "pitch": 64,
              "velocity": 89,
              "position": 23.008333,
              "duration": 0.95
            },
            {
              "pitch": 67,
              "velocity": 91,
              "position": 23.008333,
              "duration": 0.95
            }
          ]
        },
        "12": {
          "ctab": {
            "srcChannel": 12,
            "name": "Guitar",
            "accType": "CHORD2",
            "editable": true,
            "mutedNotes": [],
            "mutedChords": [],
            "sourceChordNote": 0,
            "sourceChordType": "Maj7",
            "ctb2Main": {
              "ntr": "ROOT_FIXED",
              "ntt": "CHORD",
              "bassOn": false,
              "noteLowLimit": 40,
              "noteHighLimit": 76,
              "chordRootUpperLimit": 127,
              "rtr": "NOTE_GENERATOR"
            }
          },
          "notes": [
            {
              "pitch": 48,
              "velocity": 76,
              "position": 8.05,
              "duration": 1.908333
            },
            {
              "pitch": 55,
              "velocity": 84,
              "position": 9.033333,
              "duration": 0.925
            },
            {
              "pitch": 64,
              "velocity": 45,
              "position": 9.041667,
              "duration": 0.916667
            },
            {
              "pitch": 59,
              "velocity": 87,
              "position": 9.05,
              "duration": 0.708333
            },
            {
              "pitch": 59,
              "velocity": 76,
              "position": 9.8,
              "duration": 0.158333
            },
            {
              "pitch": 48,
              "velocity": 81,
              "position": 10.025,
              "duration": 1.933333
            },
            {
              "pitch": 55,
              "velocity": 49,
              "position": 11.0,
              "duration": 0.958333
            },
            {
              "pitch": 59,
              "velocity": 80,
              "position": 11.016667,
              "duration": 0.791667
            },
            {
              "pitch": 64,
              "velocity": 54,
              "position": 11.033333,
              "duration": 0.766667
            },
            {
              "pitch": 64,
              "velocity": 73,
              "position": 11.816667,
              "duration": 0.141667
            },
            {
              "pitch": 59,
              "velocity": 47,
              "position": 11.825,
              "duration": 0.133333
            },
            {
              "pitch": 48,
              "velocity": 78,
              "position": 12.033333,
              "duration": 1.925
            },
            {
              "pitch": 55,
              "velocity": 31,
              "position": 12.541667,
              "duration": 0.475
            },
            {
              "pitch": 55,
              "velocity": 68,
              "position": 13.025,
              "duration": 0.933333
            },
            {
              "pitch": 59,
              "velocity": 70,
              "position": 13.041667,
              "duration": 0.691667
            },
            {
              "pitch": 64,
              "velocity": 31,
              "position": 13.058333,
              "duration": 0.9
            },
            {
              "pitch": 59,
              "velocity": 81,
              "position": 13.766667,
              "duration": 0.191667
            },
            {
              "pitch": 48,
              "velocity": 80,
              "position": 14.008333,
              "duration": 1.95
            },
            {
              "pitch": 59,
              "velocity": 41,
              "position": 14.975,
              "duration": 0.016667
            },
            {
              "pitch": 55,
              "velocity": 80,
              "position": 14.991667,
              "duration": 0.966667
            },
            {
              "pitch": 59,
              "velocity": 78,
              "position": 15.0,
              "duration": 0.8
            },
            {
              "pitch": 64,
              "velocity": 81,
              "position": 15.0,
              "duration": 0.766667
            },
            {
              "pitch": 64,
              "velocity": 71,
              "position": 15.8,
              "duration": 0.158333
            },
            {
              "pitch": 59,
              "velocity": 49,
              "position": 15.808333,
              "duration": 0.15
            },
            {
              "pitch": 48,
              "velocity": 85,
              "position": 16.0,
              "duration": 1.0
            },
            {
              "pitch": 48,
              "velocity": 67,
              "position": 17.016667,
              "duration": 2.983333
            },
            {
              "pitch": 59,
              "velocity": 52,
              "position": 17.025,
              "duration": 0.016667
            },
            {
              "pitch": 55,
              "velocity": 73,
              "position": 17.033333,
              "duration": 1.516667
            },
            {
              "pitch": 64,
              "velocity": 43,
              "position": 17.041667,
              "duration": 0.716667
            },
            {
              "pitch": 59,
              "velocity": 75,
              "position": 17.05,
              "duration": 0.733333
            },
            {
              "pitch": 64,
              "velocity": 67,
              "position": 17.783333,
              "duration": 1.233333
            },
            {
              "pitch": 59,
              "velocity": 56,
              "position": 17.791667,
              "duration": 1.208333
            },
            {
              "pitch": 55,
              "velocity": 31,
              "position": 18.558333,
              "duration": 0.45
            },
            {
              "pitch": 55,
              "velocity": 65,
              "position": 19.016667,
              "duration": 1.991667
            },
            {
              "pitch": 59,
              "velocity": 46,
              "position": 19.016667,
              "duration": 0.008333
            },
            {
              "pitch": 64,
              "velocity": 66,
              "position": 19.025,
              "duration": 0.008333
            },
            {
              "pitch": 59,
              "velocity": 78,
              "position": 19.033333,
              "duration": 1.975
            },
            {
              "pitch": 64,
              "velocity": 76,
              "position": 19.041667,
              "duration": 0.7
            },
            {
              "pitch": 64,
              "velocity": 62,
              "position": 19.758333,
              "duration": 1.25
            },
            {
              "pitch": 48,
              "velocity": 80,
              "position": 20.016667,
              "duration": 2.975
            },
            {
              "pitch": 55,
              "velocity": 75,
              "position": 21.016667,
              "duration": 1.966667
            },
            {
              "pitch": 64,
              "velocity": 54,
              "position": 21.016667,
              "duration": 0.016667
            },
            {
              "pitch": 59,
              "velocity": 86,
              "position": 21.025,
              "duration": 0.708333
            },
            {
              "pitch": 64,
              "velocity": 74,
              "position": 21.041667,
              "duration": 1.958333
            },
            {
              "pitch": 59,
              "velocity": 80,
              "position": 21.758333,
              "duration": 1.233333
            },
            {
              "pitch": 48,
              "velocity": 31,
              "position": 23.0,
              "duration": 0.958333
            },
            {
              "pitch": 59,
              "velocity": 55,
              "position": 23.0,
              "duration": 0.008333
            },
            {
              "pitch": 55,
              "velocity": 73,
              "position": 23.008333,
              "duration": 0.841667
            },
            {
              "pitch": 64,
              "velocity": 75,
              "position": 23.008333,
              "duration": 0.808333
            },
            {
              "pitch": 59,
              "velocity": 74,
              "position": 23.016667,
              "duration": 0.816667
            }
          ]
        },
        "13": {
          "ctab": {
            "srcChannel": 13,
            "name": "Strings",
            "accType": "PAD",
            "editable": true,
            "mutedNotes": [],
            "mutedChords": [],
            "sourceChordNote": 0,
            "sourceChordType": "Maj7",
            "ctb2Main": {
              "ntr": "ROOT_FIXED",
              "ntt": "MELODY",
              "bassOn": false,
              "noteLowLimit": 36,
              "noteHighLimit": 96,
              "chordRootUpperLimit": 127,
              "rtr": "PITCH_SHIFT"
            }
          },
          "notes": [
            {
              "pitch": 48,
              "velocity": 70,
              "position": 8.0,
              "duration": 0.916667
            },
            {
              "pitch": 55,
              "velocity": 67,
              "position": 8.0,
              "duration": 0.958333
            },
            {
              "pitch": 59,
              "velocity": 82,
              "position": 8.0,
              "duration": 0.975
            },
            {
              "pitch": 64,
              "velocity": 72,
              "position": 8.0,
              "duration": 0.991667
            },
            {
              "pitch": 48,
              "velocity": 44,
              "position": 8.925,
              "duration": 1.075
            },
            {
              "pitch": 55,
              "velocity": 62,
              "position": 8.958333,
              "duration": 1.041667
            },
            {
              "pitch": 59,
              "velocity": 87,
              "position": 8.983333,
              "duration": 1.016667
            },
            {
              "pitch": 64,
              "velocity": 82,
              "position": 9.0,
              "duration": 0.95
            },
            {
              "pitch": 48,
              "velocity": 80,
              "position": 10.0,
              "duration": 1.975
            },
            {
              "pitch": 55,
              "velocity": 71,
              "position": 10.0,
              "duration": 1.95
            },
            {
              "pitch": 64,
              "velocity": 31,
              "position": 10.0,
              "duration": 0.008333
            },
            {
              "pitch": 59,
              "velocity": 101,
              "position": 10.008333,
              "duration": 1.933333
            },
            {
              "pitch": 64,
              "velocity": 87,
              "position": 10.008333,
              "duration": 1.925
            },
            {
              "pitch": 48,
              "velocity": 78,
              "position": 12.008333,
              "duration": 0.866667
            },
            {
              "pitch": 48,
              "velocity": 62,
              "position": 13.0,
              "duration": 0.958333
            },
            {
              "pitch": 55,
              "velocity": 84,
              "position": 13.008333,
              "duration": 0.95
            },
            {
              "pitch": 59,
              "velocity": 65,
              "position": 13.008333,
              "duration": 0.008333
            },
            {
              "pitch": 59,
              "velocity": 87,
              "position": 13.025,
              "duration": 0.933333
            },
            {
              "pitch": 64,
              "velocity": 51,
              "position": 13.025,
              "duration": 0.933333
            },
            {
              "pitch": 48,
              "velocity": 59,
              "position": 14.0,
              "duration": 0.508333
            },
            {
              "pitch": 55,
              "velocity": 72,
              "position": 14.016667,
              "duration": 0.275
            },
            {
              "pitch": 59,
              "velocity": 91,
              "position": 14.033333,
              "duration": 0.225
            },
            {
              "pitch": 64,
              "velocity": 51,
              "position": 14.041667,
              "duration": 0.266667
            },
            {
              "pitch": 55,
              "velocity": 46,
              "position": 14.508333,
              "duration": 0.016667
            },
            {
              "pitch": 48,
              "velocity": 58,
              "position": 14.516667,
              "duration": 1.441667
            },
            {
              "pitch": 55,
              "velocity": 67,
              "position": 14.533333,
              "duration": 0.466667
            },
            {
              "pitch": 55,
              "velocity": 70,
              "position": 15.008333,
              "duration": 0.95
            },
            {
              "pitch": 59,
              "velocity": 92,
              "position": 15.025,
              "duration": 0.916667
            },
            {
              "pitch": 64,
              "velocity": 80,
              "position": 15.041667,
              "duration": 0.916667
            },
            {
              "pitch": 48,
              "velocity": 85,
              "position": 16.0,
              "duration": 4.008333
            },
            {
              "pitch": 55,
              "velocity": 75,
              "position": 16.0,
              "duration": 0.991667
            },
            {
              "pitch": 59,
              "velocity": 76,
              "position": 16.008333,
              "duration": 0.975
            },
            {
              "pitch": 59,
              "velocity": 49,
              "position": 16.991667,
              "duration": 0.008333
            },
            {
              "pitch": 55,
              "velocity": 75,
              "position": 17.0,
              "duration": 2.808333
            },
            {
              "pitch": 64,
              "velocity": 69,
              "position": 17.008333,
              "duration": 0.008333
            },
            {
              "pitch": 59,
              "velocity": 98,
              "position": 17.016667,
              "duration": 2.758333
            },
            {
              "pitch": 64,
              "velocity": 90,
              "position": 17.025,
              "duration": 3.3
            },
            {
              "pitch": 55,
              "velocity": 35,
              "position": 19.816667,
              "duration": 0.166667
            },
            {
              "pitch": 59,
              "velocity": 85,
              "position": 19.816667,
              "duration": 0.416667
            },
            {
              "pitch": 48,
              "velocity": 80,
              "position": 20.016667,
              "duration": 0.375
            },
            {
              "pitch": 48,
              "velocity": 66,
              "position": 20.5,
              "duration": 3.458333
            },
            {
              "pitch": 55,
              "velocity": 71,
              "position": 21.008333,
              "duration": 2.95
            },
            {
              "pitch": 64,
              "velocity": 31,
              "position": 21.016667,
              "duration": 0.008333
            },
            {
              "pitch": 59,
              "velocity": 101,
              "position": 21.025,
              "duration": 2.933333
            },
            {
              "pitch": 64,
              "velocity": 87,
              "position": 21.033333,
              "duration": 2.925
            }
          ]
        }
      }
    },
    "Main_A": {
      "type": "Main_A",
      "sizeInBeats": 16,
      "channels": {
        "9": {
          "ctab": {
            "srcChannel": 9,
            "name": "Drums",
            "accType": "RHYTHM",
            "editable": false,
            "mutedNotes": [],
            "mutedChords": [],
            "sourceChordNote": 0,
            "sourceChordType": "Maj",
            "ctb2Main": {
              "ntr": "ROOT_FIXED",
              "ntt": "BYPASS",
              "bassOn": false,
              "noteLowLimit": 20,
              "noteHighLimit": 127,
              "chordRootUpperLimit": 127,
              "rtr": "RETRIGGER"
            }
          },
          "notes": [
            {
              "pitch": 36,
              "velocity": 127,
              "position": 0.0,
              "duration": 0.075
            },
            {
              "pitch": 42,
              "velocity": 52,
              "position": 0.0,
              "duration": 0.075
            },
            {
              "pitch": 49,
              "velocity": 127,
              "position": 0.0,
              "duration": 0.075
            },
            {
              "pitch": 57,
              "velocity": 127,
              "position": 0.0,
              "duration": 0.075
            },
            {
              "pitch": 49,
              "velocity": 24,
              "position": 0.166667,
              "duration": 0.075
            },
            {
              "pitch": 42,
              "velocity": 92,
              "position": 0.5,
              "duration": 0.075
            },
            {
              "pitch": 40,
              "velocity": 127,
              "position": 1.0,
              "duration": 0.075
            },
            {
              "pitch": 42,
              "velocity": 127,
              "position": 1.0,
              "duration": 0.075
            },
            {
              "pitch": 42,
              "velocity": 81,
              "position": 1.5,
              "duration": 0.075
            },
            {
              "pitch": 40,
              "velocity": 81,
              "position": 1.833333,
              "duration": 0.075
            },
            {
              "pitch": 36,
              "velocity": 101,
              "position": 2.0,
              "duration": 0.075
            },
            {
              "pitch": 42,
              "velocity": 127,
              "position": 2.0,
              "duration": 0.075
            },
            {
              "pitch": 36,
              "velocity": 118,
              "position": 2.5,
              "duration": 0.075
            },
            {
              "pitch": 42,
              "velocity": 127,
              "position": 2.5,
              "duration": 0.075
            },
            {
              "pitch": 40,
              "velocity": 127,
              "position": 3.0,
              "duration": 0.075
            },
            {
              "pitch": 42,
              "velocity": 127,
              "position": 3.0,
              "duration": 0.075
            },
            {
              "pitch": 42,
              "velocity": 127,
              "position": 3.5,
              "duration": 0.075
            },
            {
              "pitch": 36,
              "velocity": 116,
              "position": 4.0,
              "duration": 0.075
            },
            {
              "pitch": 42,
              "velocity": 82,
              "position": 4.0,
              "duration": 0.075
            },
            {
              "pitch": 42,
              "velocity": 126,
              "position": 4.5,
              "duration": 0.075
            },
            {
              "pitch": 36,
              "velocity": 92,
              "position": 4.833333,
              "duration": 0.075
            },
            {
              "pitch": 40,
              "velocity": 127,
              "position": 5.0,
              "duration": 0.075
            },
            {
              "pitch": 42,
              "velocity": 127,
              "position": 5.0,
              "duration": 0.075
            },
            {
              "pitch": 42,
              "velocity": 94,
              "position": 5.5,
              "duration": 0.075
            },
            {
              "pitch": 40,
              "velocity": 127,
              "position": 5.833333,
              "duration": 0.075
            },
            {
              "pitch": 42,
              "velocity": 121,
              "position": 6.0,
              "duration": 0.075
            },
            {
              "pitch": 45,
              "velocity": 33,
              "position": 6.333333,
              "duration": 0.075
            },
            {
              "pitch": 48,
              "velocity": 127,
              "position": 6.333333,
              "duration": 0.075
            },
            {
              "pitch": 42,
              "velocity": 127,
              "position": 6.5,
              "duration": 0.075
            },
            {
              "pitch": 40,
              "velocity": 127,
              "position": 6.833333,
              "duration": 0.075
            },
            {
              "pitch": 36,
              "velocity": 86,
              "position": 7.0,
              "duration": 0.075
            },
            {
              "pitch": 40,
              "velocity": 127,
              "position": 7.0,
              "duration": 0.075
            },
            {
              "pitch": 40,
              "velocity": 127,
              "position": 7.333333,
              "duration": 0.075
            },
            {
              "pitch": 45,
              "velocity": 127,
              "position": 7.5,
              "duration": 0.075
            },
            {
              "pitch": 36,
              "velocity": 68,
              "position": 7.833333,
              "duration": 0.075
            },
            {
              "pitch": 36,
              "velocity": 123,
              "position": 8.0,
              "duration": 0.075
            },
            {
              "pitch": 42,
              "velocity": 115,
              "position": 8.0,
              "duration": 0.4
            },
            {
              "pitch": 42,
              "velocity": 85,
              "position": 8.5,
              "duration": 0.075
            },
            {
              "pitch": 40,
              "velocity": 127,
              "position": 9.0,
              "duration": 0.075
            },
            {
              "pitch": 42,
              "velocity": 127,
              "position": 9.0,
              "duration": 0.075
            },
            {
              "pitch": 42,
              "velocity": 121,
              "position": 9.5,
              "duration": 0.075
            },
            {
              "pitch": 40,
              "velocity": 55,
              "position": 9.833333,
              "duration": 0.075
            },
            {
              "pitch": 36,
              "velocity": 32,
              "position": 10.0,
              "duration": 0.075
            },
            {
              "pitch": 42,
              "velocity": 127,
              "position": 10.0,
              "duration": 0.075
            },
            {
              "pitch": 36,
              "velocity": 127,
              "position": 10.5,
              "duration": 0.075
            },
            {
              "pitch": 42,
              "velocity": 89,
              "position": 10.5,
              "duration": 0.075
            },
            {
              "pitch": 40,
              "velocity": 127,
              "position": 11.0,
              "duration": 0.075
            },
            {
              "pitch": 42,
              "velocity": 127,
              "position": 11.0,
              "duration": 0.075
            },
            {
              "pitch": 42,
              "velocity": 127,
              "position": 11.5,
              "duration": 0.075
            },
            {
              "pitch": 36,
              "velocity": 116,
              "position": 12.0,
              "duration": 0.075
            },
            {
              "pitch": 42,
              "velocity": 82,
              "position": 12.0,
              "duration": 0.075
            },
            {
              "pitch": 42,
              "velocity": 126,
              "position": 12.5,
              "duration": 0.075
            },
            {
              "pitch": 36,
              "velocity": 92,
              "position": 12.833333,
              "duration": 0.075
            },
            {
              "pitch": 40,
              "velocity": 127,
              "position": 13.0,
              "duration": 0.075
            },
            {
              "pitch": 42,
              "velocity": 127,
              "position": 13.0,
              "duration": 0.075
            },
            {
              "pitch": 42,
              "velocity": 94,
              "position": 13.5,
              "duration": 0.075
            },
            {
              "pitch": 40,
              "velocity": 127,
              "position": 13.833333,
              "duration": 0.075
            },
            {
              "pitch": 42,
              "velocity": 121,
              "position": 14.0,
              "duration": 0.075
            },
            {
              "pitch": 45,
              "velocity": 33,
              "position": 14.333333,
              "duration": 0.075
            },
            {
              "pitch": 48,
              "velocity": 127,
              "position": 14.333333,
              "duration": 0.075
            },
            {
              "pitch": 42,
              "velocity": 127,
              "position": 14.5,
              "duration": 0.075
            },
            {
              "pitch": 40,
              "velocity": 127,
              "position": 14.833333,
              "duration": 0.075
            },
            {
              "pitch": 36,
              "velocity": 86,
              "position": 15.0,
              "duration": 0.075
            },
            {
              "pitch": 40,
              "velocity": 127,
              "position": 15.0,
              "duration": 0.075
            },
            {
              "pitch": 40,
              "velocity": 127,
              "position": 15.333333,
              "duration": 0.075
            },
            {
              "pitch": 45,
              "velocity": 127,
              "position": 15.5,
              "duration": 0.075
            },
            {
              "pitch": 36,
              "velocity": 68,
              "position": 15.833333,
              "duration": 0.075
            }
          ]
        },
        "10": {
          "ctab": {
            "srcChannel": 10,
            "name": "Bass",
            "accType": "BASS",
            "editable": true,
            "mutedNotes": [],
            "mutedChords": [],
            "sourceChordNote": 0,
            "sourceChordType": "Maj7",
            "ctb2Main": {
              "ntr": "ROOT_TRANSPOSITION",
              "ntt": "BYPASS",
              "bassOn": true,
              "noteLowLimit": 20,
              "noteHighLimit": 60,
              "chordRootUpperLimit": 127,
              "rtr": "NOTE_GENERATOR"
            }
          },
          "notes": [
            {
              "pitch": 36,
              "velocity": 85,
              "position": 0.016667,
              "duration": 1.008333
            },
            {
              "pitch": 36,
              "velocity": 95,
              "position": 1.033333,
              "duration": 0.933333
            },
            {
              "pitch": 36,
              "velocity": 94,
              "position": 2.041667,
              "duration": 0.883333
            },
            {
              "pitch": 40,
              "velocity": 82,
              "position": 3.033333,
              "duration": 0.233333
            },
            {
              "pitch": 43,
              "velocity": 49,
              "position": 3.316667,
              "duration": 0.158333
            },
            {
              "pitch": 47,
              "velocity": 69,
              "position": 3.508333,
              "duration": 0.241667
            },
            {
              "pitch": 36,
              "velocity": 89,
              "position": 4.0,
              "duration": 0.208333
            },
            {
              "pitch": 36,
              "velocity": 94,
              "position": 4.508333,
              "duration": 1.483333
            },
            {
              "pitch": 36,
              "velocity": 91,
              "position": 6.0,
              "duration": 1.958333
            },
            {
              "pitch": 36,
              "velocity": 91,
              "position": 8.0,
              "duration": 0.183333
            },
            {
              "pitch": 36,
              "velocity": 91,
              "position": 8.525,
              "duration": 3.466667
            },
            {
              "pitch": 36,
              "velocity": 89,
              "position": 12.0,
              "duration": 0.191667
            },
            {
              "pitch": 36,
              "velocity": 96,
              "position": 12.508333,
              "duration": 3.033333
            }
          ]
        },
        "11": {
          "ctab": {
            "srcChannel": 11,
            "name": "Piano",
            "accType": "CHORD1",
            "editable": true,
            "mutedNotes": [],
            "mutedChords": [],
            "sourceChordNote": 0,
            "sourceChordType": "Maj7",
            "ctb2Main": {
              "ntr": "ROOT_FIXED",
              "ntt": "CHORD",
              "bassOn": false,
              "noteLowLimit": 48,
              "noteHighLimit": 84,
              "chordRootUpperLimit": 127,
              "rtr": "NOTE_GENERATOR"
            }
          },
          "notes": [
            {
              "pitch": 48,
              "velocity": 91,
              "position": 0.016667,
              "duration": 0.208333
            },
            {
              "pitch": 36,
              "velocity": 91,
              "position": 0.025,
              "duration": 0.35
            },
            {
              "pitch": 60,
              "velocity": 90,
              "position": 0.025,
              "duration": 0.6
            },
            {
              "pitch": 64,
              "velocity": 89,
              "position": 0.025,
              "duration": 0.65
            },
            {
              "pitch": 67,
              "velocity": 89,
              "position": 0.033333,
              "duration": 0.55
            },
            {
              "pitch": 71,
              "velocity": 88,
              "position": 0.033333,
              "duration": 0.533333
            },
            {
              "pitch": 74,
              "velocity": 88,
              "position": 0.033333,
              "duration": 0.541667
            },
            {
              "pitch": 36,
              "velocity": 90,
              "position": 0.508333,
              "duration": 1.216667
            },
            {
              "pitch": 48,
              "velocity": 94,
              "position": 0.508333,
              "duration": 0.641667
            },
            {
              "pitch": 64,
              "velocity": 89,
              "position": 1.016667,
              "duration": 0.883333
            },
            {
              "pitch": 60,
              "velocity": 91,
              "position": 1.025,
              "duration": 0.541667
            },
            {
              "pitch": 67,
              "velocity": 89,
              "position": 1.025,
              "duration": 0.85
            },
            {
              "pitch": 71,
              "velocity": 87,
              "position": 1.025,
              "duration": 0.85
            },
            {
              "pitch": 74,
              "velocity": 88,
              "position": 1.033333,
              "duration": 0.808333
            },
            {
              "pitch": 48,
              "velocity": 62,
              "position": 1.483333,
              "duration": 0.45
            },
            {
              "pitch": 60,
              "velocity": 89,
              "position": 1.816667,
              "duration": 0.083333
            },
            {
              "pitch": 36,
              "velocity": 86,
              "position": 2.0,
              "duration": 0.091667
            },
            {
              "pitch": 36,
              "velocity": 88,
              "position": 2.491667,
              "duration": 1.066667
            },
            {
              "pitch": 48,
              "velocity": 91,
              "position": 2.5,
              "duration": 0.65
            },
            {
              "pitch": 55,
              "velocity": 92,
              "position": 3.016667,
              "duration": 0.583333
            },
            {
              "pitch": 59,
              "velocity": 93,
              "position": 3.016667,
              "duration": 0.941667
            },
            {
              "pitch": 64,
              "velocity": 89,
              "position": 3.025,
              "duration": 0.933333
            },
            {
              "pitch": 67,
              "velocity": 89,
              "position": 3.025,
              "duration": 0.933333
            },
            {
              "pitch": 55,
              "velocity": 70,
              "position": 3.8,
              "duration": 0.158333
            },
            {
              "pitch": 36,
              "velocity": 89,
              "position": 4.0,
              "duration": 0.208333
            },
            {
              "pitch": 60,
              "velocity": 89,
              "position": 4.0,
              "duration": 0.241667
            },
            {
              "pitch": 60,
              "velocity": 88,
              "position": 4.3,
              "duration": 0.075
            },
            {
              "pitch": 64,
              "velocity": 76,
              "position": 4.3,
              "duration": 0.1
            },
            {
              "pitch": 67,
              "velocity": 78,
              "position": 4.308333,
              "duration": 0.1
            },
            {
              "pitch": 36,
              "velocity": 90,
              "position": 4.491667,
              "duration": 1.283333
            },
            {
              "pitch": 48,
              "velocity": 92,
              "position": 4.491667,
              "duration": 0.541667
            },
            {
              "pitch": 64,
              "velocity": 84,
              "position": 4.983333,
              "duration": 0.608333
            },
            {
              "pitch": 71,
              "velocity": 84,
              "position": 4.983333,
              "duration": 0.558333
            },
            {
              "pitch": 67,
              "velocity": 87,
              "position": 4.991667,
              "duration": 0.558333
            },
            {
              "pitch": 74,
              "velocity": 86,
              "position": 4.991667,
              "duration": 0.525
            },
            {
              "pitch": 60,
              "velocity": 74,
              "position": 5.0,
              "duration": 0.166667
            },
            {
              "pitch": 48,
              "velocity": 80,
              "position": 5.291667,
              "duration": 0.183333
            },
            {
              "pitch": 60,
              "velocity": 92,
              "position": 5.458333,
              "duration": 0.391667
            },
            {
              "pitch": 48,
              "velocity": 88,
              "position": 6.0,
              "duration": 1.133333
            },
            {
              "pitch": 59,
              "velocity": 94,
              "position": 6.0,
              "duration": 0.9
            },
            {
              "pitch": 64,
              "velocity": 89,
              "position": 6.0,
              "duration": 0.941667
            },
            {
              "pitch": 67,
              "velocity": 92,
              "position": 6.0,
              "duration": 0.883333
            },
            {
              "pitch": 59,
              "velocity": 94,
              "position": 7.008333,
              "duration": 0.95
            },
            {
              "pitch": 64,
              "velocity": 91,
              "position": 7.008333,
              "duration": 0.941667
            },
            {
              "pitch": 67,
              "velocity": 89,
              "position": 7.008333,
              "duration": 0.833333
            },
            {
              "pitch": 55,
              "velocity": 82,
              "position": 7.833333,
              "duration": 0.116667
            },
            {
              "pitch": 48,
              "velocity": 91,
              "position": 8.016667,
              "duration": 0.208333
            },
            {
              "pitch": 36,
              "velocity": 91,
              "position": 8.025,
              "duration": 0.35
            },
            {
              "pitch": 60,
              "velocity": 90,
              "position": 8.025,
              "duration": 0.6
            },
            {
              "pitch": 64,
              "velocity": 89,
              "position": 8.025,
              "duration": 0.65
            },
            {
              "pitch": 67,
              "velocity": 89,
              "position": 8.033333,
              "duration": 0.55
            },
            {
              "pitch": 71,
              "velocity": 88,
              "position": 8.033333,
              "duration": 0.533333
            },
            {
              "pitch": 74,
              "velocity": 88,
              "position": 8.033333,
              "duration": 0.541667
            },
            {
              "pitch": 36,
              "velocity": 90,
              "position": 8.508333,
              "duration": 1.216667
            },
            {
              "pitch": 48,
              "velocity": 94,
              "position": 8.508333,
              "duration": 0.641667
            },
            {
              "pitch": 64,
              "velocity": 89,
              "position": 9.016667,
              "duration": 0.883333
            },
            {
              "pitch": 60,
              "velocity": 91,
              "position": 9.025,
              "duration": 0.541667
            },
            {
              "pitch": 67,
              "velocity": 89,
              "position": 9.025,
              "duration": 0.85
            },
            {
              "pitch": 71,
              "velocity": 87,
              "position": 9.025,
              "duration": 0.85
            },
            {
              "pitch": 74,
              "velocity": 88,
              "position": 9.033333,
              "duration": 0.808333
            },
            {
              "pitch": 48,
              "velocity": 62,
              "position": 9.483333,
              "duration": 0.45
            },
            {
              "pitch": 60,
              "velocity": 89,
              "position": 9.816667,
              "duration": 0.083333
            },
            {
              "pitch": 36,
              "velocity": 89,
              "position": 10.0,
              "duration": 0.208333
            },
            {
              "pitch": 60,
              "velocity": 88,
              "position": 10.3,
              "duration": 0.075
            },
            {
              "pitch": 64,
              "velocity": 76,
              "position": 10.3,
              "duration": 0.1
            },
            {
              "pitch": 67,
              "velocity": 78,
              "position": 10.308333,
              "duration": 0.1
            },
            {
              "pitch": 36,
              "velocity": 90,
              "position": 10.491667,
              "duration": 1.283333
            },
            {
              "pitch": 48,
              "velocity": 92,
              "position": 10.491667,
              "duration": 0.541667
            },
            {
              "pitch": 64,
              "velocity": 84,
              "position": 10.983333,
              "duration": 0.608333
            },
            {
              "pitch": 71,
              "velocity": 84,
              "position": 10.983333,
              "duration": 0.558333
            },
            {
              "pitch": 67,
              "velocity": 87,
              "position": 10.991667,
              "duration": 0.558333
            },
            {
              "pitch": 74,
              "velocity": 86,
              "position": 10.991667,
              "duration": 0.525
            },
            {
              "pitch": 60,
              "velocity": 74,
              "position": 11.0,
              "duration": 0.166667
            },
            {
              "pitch": 48,
              "velocity": 80,
              "position": 11.291667,
              "duration": 0.183333
            },
            {
              "pitch": 60,
              "velocity": 92,
              "position": 11.458333,
              "duration": 0.391667
            },
            {
              "pitch": 59,
              "velocity": 95,
              "position": 11.983333,
              "duration": 3.075
            },
            {
              "pitch": 60,
              "velocity": 89,
              "position": 11.983333,
              "duration": 3.091667
            },
            {
              "pitch": 36,
              "velocity": 91,
              "position": 11.991667,
              "duration": 3.075
            },
            {
              "pitch": 67,
              "velocity": 92,
              "position": 11.991667,
              "duration": 3.091667
            },
            {
              "pitch": 48,
              "velocity": 93,
              "position": 12.0,
              "duration": 3.075
            },
            {
              "pitch": 64,
              "velocity": 80,
              "position": 12.0,
              "duration": 3.091667
            }
          ]
        },
        "12": {
          "ctab": {
            "srcChannel": 12,
            "name": "Guitar",
            "accType": "CHORD2",
            "editable": true,
            "mutedNotes": [],
            "mutedChords": [],
            "sourceChordNote": 0,
            "sourceChordType": "Maj7",
            "ctb2Main": {
              "ntr": "ROOT_FIXED",
              "ntt": "CHORD",
              "bassOn": false,
              "noteLowLimit": 40,
              "noteHighLimit": 76,
              "chordRootUpperLimit": 127,
              "rtr": "NOTE_GENERATOR"
            }
          },
          "notes": [
            {
              "pitch": 48,
              "velocity": 66,
              "position": 0.0,
              "duration": 0.525
            },
            {
              "pitch": 55,
              "velocity": 78,
              "position": 0.0,
              "duration": 1.0
            },
            {
              "pitch": 59,
              "velocity": 94,
              "position": 0.0,
              "duration": 1.0
            },
            {
              "pitch": 64,
              "velocity": 78,
              "position": 0.016667,
              "duration": 0.233333
            },
            {
              "pitch": 64,
              "velocity": 67,
              "position": 0.3,
              "duration": 0.7
            },
            {
              "pitch": 48,
              "velocity": 62,
              "position": 0.533333,
              "duration": 1.425
            },
            {
              "pitch": 55,
              "velocity": 82,
              "position": 1.008333,
              "duration": 0.925
            },
            {
              "pitch": 59,
              "velocity": 77,
              "position": 1.016667,
              "duration": 0.941667
            },
            {
              "pitch": 64,
              "velocity": 66,
              "position": 1.033333,
              "duration": 0.866667
            },
            {
              "pitch": 48,
              "velocity": 58,
              "position": 2.0,
              "duration": 1.958333
            },
            {
              "pitch": 55,
              "velocity": 64,
              "position": 2.0,
              "duration": 1.958333
            },
            {
              "pitch": 59,
              "velocity": 90,
              "position": 2.025,
              "duration": 1.933333
            },
            {
              "pitch": 64,
              "velocity": 80,
              "position": 2.05,
              "duration": 1.908333
            },
            {
              "pitch": 48,
              "velocity": 63,
              "position": 4.0,
              "duration": 0.983333
            },
            {
              "pitch": 55,
              "velocity": 68,
              "position": 4.016667,
              "duration": 0.991667
            },
            {
              "pitch": 59,
              "velocity": 85,
              "position": 4.033333,
              "duration": 0.991667
            },
            {
              "pitch": 64,
              "velocity": 66,
              "position": 4.05,
              "duration": 0.991667
            },
            {
              "pitch": 48,
              "velocity": 62,
              "position": 4.991667,
              "duration": 0.966667
            },
            {
              "pitch": 55,
              "velocity": 73,
              "position": 5.016667,
              "duration": 0.941667
            },
            {
              "pitch": 59,
              "velocity": 83,
              "position": 5.033333,
              "duration": 0.925
            },
            {
              "pitch": 64,
              "velocity": 59,
              "position": 5.05,
              "duration": 0.908333
            },
            {
              "pitch": 48,
              "velocity": 48,
              "position": 6.0,
              "duration": 0.541667
            },
            {
              "pitch": 55,
              "velocity": 66,
              "position": 6.008333,
              "duration": 1.95
            },
            {
              "pitch": 59,
              "velocity": 50,
              "position": 6.033333,
              "duration": 0.975
            },
            {
              "pitch": 64,
              "velocity": 66,
              "position": 6.05,
              "duration": 0.3
            },
            {
              "pitch": 67,
              "velocity": 33,
              "position": 6.075,
              "duration": 0.933333
            },
            {
              "pitch": 64,
              "velocity": 72,
              "position": 6.35,
              "duration": 0.658333
            },
            {
              "pitch": 48,
              "velocity": 74,
              "position": 6.541667,
              "duration": 1.416667
            },
            {
              "pitch": 59,
              "velocity": 85,
              "position": 7.008333,
              "duration": 0.95
            },
            {
              "pitch": 67,
              "velocity": 64,
              "position": 7.016667,
              "duration": 0.941667
            },
            {
              "pitch": 64,
              "velocity": 86,
              "position": 7.025,
              "duration": 0.933333
            },
            {
              "pitch": 48,
              "velocity": 76,
              "position": 8.033333,
              "duration": 3.983333
            },
            {
              "pitch": 55,
              "velocity": 47,
              "position": 8.541667,
              "duration": 0.283333
            },
            {
              "pitch": 59,
              "velocity": 31,
              "position": 8.566667,
              "duration": 0.441667
            },
            {
              "pitch": 55,
              "velocity": 31,
              "position": 8.833333,
              "duration": 0.175
            },
            {
              "pitch": 55,
              "velocity": 72,
              "position": 9.016667,
              "duration": 1.483333
            },
            {
              "pitch": 59,
              "velocity": 101,
              "position": 9.033333,
              "duration": 1.25
            },
            {
              "pitch": 64,
              "velocity": 78,
              "position": 9.041667,
              "duration": 0.716667
            },
            {
              "pitch": 64,
              "velocity": 74,
              "position": 9.816667,
              "duration": 1.175
            },
            {
              "pitch": 59,
              "velocity": 70,
              "position": 10.316667,
              "duration": 0.683333
            },
            {
              "pitch": 55,
              "velocity": 62,
              "position": 10.516667,
              "duration": 0.466667
            },
            {
              "pitch": 55,
              "velocity": 67,
              "position": 10.991667,
              "duration": 1.525
            },
            {
              "pitch": 64,
              "velocity": 34,
              "position": 11.0,
              "duration": 0.008333
            },
            {
              "pitch": 59,
              "velocity": 101,
              "position": 11.008333,
              "duration": 0.516667
            },
            {
              "pitch": 64,
              "velocity": 86,
              "position": 11.025,
              "duration": 0.758333
            },
            {
              "pitch": 59,
              "velocity": 51,
              "position": 11.541667,
              "duration": 1.475
            },
            {
              "pitch": 64,
              "velocity": 62,
              "position": 11.808333,
              "duration": 1.208333
            },
            {
              "pitch": 48,
              "velocity": 93,
              "position": 12.033333,
              "duration": 0.966667
            },
            {
              "pitch": 55,
              "velocity": 46,
              "position": 12.533333,
              "duration": 0.483333
            },
            {
              "pitch": 48,
              "velocity": 55,
              "position": 13.016667,
              "duration": 2.941667
            },
            {
              "pitch": 55,
              "velocity": 85,
              "position": 13.025,
              "duration": 0.133333
            },
            {
              "pitch": 59,
              "velocity": 90,
              "position": 13.041667,
              "duration": 1.183333
            },
            {
              "pitch": 64,
              "velocity": 63,
              "position": 13.041667,
              "duration": 0.7
            },
            {
              "pitch": 55,
              "velocity": 71,
              "position": 13.158333,
              "duration": 1.325
            },
            {
              "pitch": 64,
              "velocity": 70,
              "position": 13.783333,
              "duration": 1.708333
            },
            {
              "pitch": 59,
              "velocity": 75,
              "position": 14.275,
              "duration": 1.208333
            },
            {
              "pitch": 55,
              "velocity": 80,
              "position": 14.491667,
              "duration": 0.975
            },
            {
              "pitch": 55,
              "velocity": 63,
              "position": 15.483333,
              "duration": 0.466667
            },
            {
              "pitch": 59,
              "velocity": 78,
              "position": 15.5,
              "duration": 0.408333
            },
            {
              "pitch": 64,
              "velocity": 41,
              "position": 15.5,
              "duration": 0.433333
            }
          ]
        },
        "13": {
          "ctab": {
            "srcChannel": 13,
            "name": "Strings",
            "accType": "PAD",
            "editable": true,
            "mutedNotes": [],
            "mutedChords": [],
            "sourceChordNote": 0,
            "sourceChordType": "Maj7",
            "ctb2Main": {
              "ntr": "ROOT_FIXED",
              "ntt": "MELODY",
              "bassOn": false,
              "noteLowLimit": 36,
              "noteHighLimit": 96,
              "chordRootUpperLimit": 127,
              "rtr": "PITCH_SHIFT"
            }
          },
          "notes": [
            {
              "pitch": 48,
              "velocity": 77,
              "position": 0.008333,
              "duration": 0.508333
            },
            {
              "pitch": 48,
              "velocity": 58,
              "position": 0.516667,
              "duration": 1.441667
            },
            {
              "pitch": 55,
              "velocity": 93,
              "position": 1.008333,
              "duration": 0.95
            },
            {
              "pitch": 64,
              "velocity": 59,
              "position": 1.016667,
              "duration": 0.941667
            },
            {
              "pitch": 59,
              "velocity": 106,
              "position": 1.025,
              "duration": 0.933333
            },
            {
              "pitch": 48,
              "velocity": 78,
              "position": 2.008333,
              "duration": 0.866667
            },
            {
              "pitch": 48,
              "velocity": 62,
              "position": 3.0,
              "duration": 0.958333
            },
            {
              "pitch": 55,
              "velocity": 84,
              "position": 3.008333,
              "duration": 0.95
            },
            {
              "pitch": 59,
              "velocity": 65,
              "position": 3.008333,
              "duration": 0.008333
            },
            {
              "pitch": 59,
              "velocity": 87,
              "position": 3.025,
              "duration": 0.933333
            },
            {
              "pitch": 64,
              "velocity": 51,
              "position": 3.025,
              "duration": 0.933333
            },
            {
              "pitch": 48,
              "velocity": 70,
              "position": 4.0,
              "duration": 0.916667
            },
            {
              "pitch": 55,
              "velocity": 67,
              "position": 4.0,
              "duration": 0.958333
            },
            {
              "pitch": 59,
              "velocity": 82,
              "position": 4.0,
              "duration": 0.975
            },
            {
              "pitch": 64,
              "velocity": 72,
              "position": 4.0,
              "duration": 0.991667
            },
            {
              "pitch": 48,
              "velocity": 44,
              "position": 4.925,
              "duration": 1.075
            },
            {
              "pitch": 55,
              "velocity": 62,
              "position": 4.958333,
              "duration": 1.041667
            },
            {
              "pitch": 59,
              "velocity": 87,
              "position": 4.983333,
              "duration": 1.016667
            },
            {
              "pitch": 64,
              "velocity": 82,
              "position": 5.0,
              "duration": 0.95
            },
            {
              "pitch": 48,
              "velocity": 88,
              "position": 6.008333,
              "duration": 0.5
            },
            {
              "pitch": 48,
              "velocity": 75,
              "position": 6.516667,
              "duration": 1.441667
            },
            {
              "pitch": 59,
              "velocity": 42,
              "position": 6.991667,
              "duration": 0.025
            },
            {
              "pitch": 55,
              "velocity": 97,
              "position": 7.008333,
              "duration": 0.95
            },
            {
              "pitch": 64,
              "velocity": 68,
              "position": 7.016667,
              "duration": 0.008333
            },
            {
              "pitch": 64,
              "velocity": 87,
              "position": 7.033333,
              "duration": 0.925
            },
            {
              "pitch": 59,
              "velocity": 106,
              "position": 7.066667,
              "duration": 0.891667
            },
            {
              "pitch": 48,
              "velocity": 74,
              "position": 8.008333,
              "duration": 0.466667
            },
            {
              "pitch": 48,
              "velocity": 69,
              "position": 8.516667,
              "duration": 0.466667
            },
            {
              "pitch": 48,
              "velocity": 62,
              "position": 9.0,
              "duration": 3.008333
            },
            {
              "pitch": 55,
              "velocity": 84,
              "position": 9.008333,
              "duration": 3.3
            },
            {
              "pitch": 59,
              "velocity": 65,
              "position": 9.008333,
              "duration": 0.008333
            },
            {
              "pitch": 59,
              "velocity": 87,
              "position": 9.025,
              "duration": 2.783333
            },
            {
              "pitch": 64,
              "velocity": 51,
              "position": 9.025,
              "duration": 2.75
            },
            {
              "pitch": 59,
              "velocity": 63,
              "position": 11.816667,
              "duration": 0.491667
            },
            {
              "pitch": 64,
              "velocity": 84,
              "position": 11.816667,
              "duration": 0.508333
            },
            {
              "pitch": 48,
              "velocity": 73,
              "position": 12.025,
              "duration": 0.3
            },
            {
              "pitch": 48,
              "velocity": 71,
              "position": 12.5,
              "duration": 0.5
            },
            {
              "pitch": 48,
              "velocity": 60,
              "position": 13.008333,
              "duration": 2.95
            },
            {
              "pitch": 55,
              "velocity": 96,
              "position": 13.016667,
              "duration": 2.941667
            },
            {
              "pitch": 64,
              "velocity": 62,
              "position": 13.025,
              "duration": 0.008333
            },
            {
              "pitch": 59,
              "velocity": 106,
              "position": 13.033333,
              "duration": 2.925
            },
            {
              "pitch": 64,
              "velocity": 87,
              "position": 13.041667,
              "duration": 2.916667
            }
          ]
        }
      }
    },
    "Main_B": {
      "type": "Main_B",
      "sizeInBeats": 16,
      "channels": {
        "9": {
          "ctab": {
            "srcChannel": 9,
            "name": "Drums",
            "accType": "RHYTHM",
            "editable": false,
            "mutedNotes": [],
            "mutedChords": [],
            "sourceChordNote": 0,
            "sourceChordType": "Maj",
            "ctb2Main": {
              "ntr": "ROOT_FIXED",
              "ntt": "BYPASS",
              "bassOn": false,
              "noteLowLimit": 20,
              "noteHighLimit": 127,
              "chordRootUpperLimit": 127,
              "rtr": "RETRIGGER"
            }
          },
          "notes": [
            {
              "pitch": 36,
              "velocity": 123,
              "position": 0.0,
              "duration": 0.075
            },
            {
              "pitch": 57,
              "velocity": 127,
              "position": 0.0,
              "duration": 0.075
            },
            {
              "pitch": 42,
              "velocity": 85,
              "position": 0.5,
              "duration": 0.075
            },
            {
              "pitch": 40,
              "velocity": 127,
              "position": 1.0,
              "duration": 0.075
            },
            {
              "pitch": 42,
              "velocity": 127,
              "position": 1.0,
              "duration": 0.075
            },
            {
              "pitch": 42,
              "velocity": 121,
              "position": 1.5,
              "duration": 0.075
            },
            {
              "pitch": 40,
              "velocity": 55,
              "position": 1.833333,
              "duration": 0.075
            },
            {
              "pitch": 36,
              "velocity": 32,
              "position": 2.0,
              "duration": 0.075
            },
            {
              "pitch": 42,
              "velocity": 127,
              "position": 2.0,
              "duration": 0.075
            },
            {
              "pitch": 36,
              "velocity": 127,
              "position": 2.5,
              "duration": 0.075
            },
            {
              "pitch": 42,
              "velocity": 89,
              "position": 2.5,
              "duration": 0.075
            },
            {
              "pitch": 40,
              "velocity": 127,
              "position": 3.0,
              "duration": 0.075
            },
            {
              "pitch": 42,
              "velocity": 127,
              "position": 3.0,
              "duration": 0.075
            },
            {
              "pitch": 42,
              "velocity": 127,
              "position": 3.5,
              "duration": 0.075
            },
            {
              "pitch": 36,
              "velocity": 127,
              "position": 4.0,
              "duration": 0.075
            },
            {
              "pitch": 42,
              "velocity": 54,
              "position": 4.0,
              "duration": 0.075
            },
            {
              "pitch": 42,
              "velocity": 127,
              "position": 4.5,
              "duration": 0.075
            },
            {
              "pitch": 40,
              "velocity": 127,
              "position": 5.0,
              "duration": 0.075
            },
            {
              "pitch": 42,
              "velocity": 127,
              "position": 5.0,
              "duration": 0.075
            },
            {
              "pitch": 42,
              "velocity": 84,
              "position": 5.5,
              "duration": 0.075
            },
            {
              "pitch": 40,
              "velocity": 22,
              "position": 5.833333,
              "duration": 0.075
            },
            {
              "pitch": 36,
              "velocity": 101,
              "position": 6.0,
              "duration": 0.075
            },
            {
              "pitch": 42,
              "velocity": 127,
              "position": 6.0,
              "duration": 0.075
            },
            {
              "pitch": 36,
              "velocity": 117,
              "position": 6.5,
              "duration": 0.075
            },
            {
              "pitch": 42,
              "velocity": 89,
              "position": 6.5,
              "duration": 0.075
            },
            {
              "pitch": 40,
              "velocity": 127,
              "position": 7.0,
              "duration": 0.075
            },
            {
              "pitch": 42,
              "velocity": 127,
              "position": 7.0,
              "duration": 0.075
            },
            {
              "pitch": 42,
              "velocity": 81,
              "position": 7.5,
              "duration": 0.075
            },
            {
              "pitch": 36,
              "velocity": 115,
              "position": 8.0,
              "duration": 0.075
            },
            {
              "pitch": 42,
              "velocity": 127,
              "position": 8.0,
              "duration": 0.075
            },
            {
              "pitch": 42,
              "velocity": 106,
              "position": 8.5,
              "duration": 0.075
            },
            {
              "pitch": 40,
              "velocity": 127,
              "position": 9.0,
              "duration": 0.075
            },
            {
              "pitch": 42,
              "velocity": 127,
              "position": 9.0,
              "duration": 0.075
            },
            {
              "pitch": 42,
              "velocity": 105,
              "position": 9.5,
              "duration": 0.075
            },
            {
              "pitch": 40,
              "velocity": 46,
              "position": 9.833333,
              "duration": 0.075
            },
            {
              "pitch": 36,
              "velocity": 106,
              "position": 10.0,
              "duration": 0.075
            },
            {
              "pitch": 42,
              "velocity": 82,
              "position": 10.0,
              "duration": 0.075
            },
            {
              "pitch": 36,
              "velocity": 123,
              "position": 10.5,
              "duration": 0.075
            },
            {
              "pitch": 42,
              "velocity": 127,
              "position": 10.5,
              "duration": 0.075
            },
            {
              "pitch": 40,
              "velocity": 127,
              "position": 11.0,
              "duration": 0.075
            },
            {
              "pitch": 42,
              "velocity": 127,
              "position": 11.0,
              "duration": 0.075
            },
            {
              "pitch": 42,
              "velocity": 127,
              "position": 11.5,
              "duration": 0.075
            },
            {
              "pitch": 36,
              "velocity": 99,
              "position": 12.0,
              "duration": 0.075
            },
            {
              "pitch": 42,
              "velocity": 103,
              "position": 12.0,
              "duration": 0.075
            },
            {
              "pitch": 36,
              "velocity": 103,
              "position": 12.5,
              "duration": 0.075
            },
            {
              "pitch": 42,
              "velocity": 127,
              "position": 12.5,
              "duration": 0.075
            },
            {
              "pitch": 40,
              "velocity": 127,
              "position": 13.0,
              "duration": 0.075
            },
            {
              "pitch": 42,
              "velocity": 105,
              "position": 13.0,
              "duration": 0.075
            },
            {
              "pitch": 42,
              "velocity": 116,
              "position": 13.5,
              "duration": 0.075
            },
            {
              "pitch": 36,
              "velocity": 115,
              "position": 14.0,
              "duration": 0.075
            },
            {
              "pitch": 42,
              "velocity": 92,
              "position": 14.0,
              "duration": 0.075
            },
            {
              "pitch": 40,
              "velocity": 127,
              "position": 14.5,
              "duration": 0.075
            },
            {
              "pitch": 42,
              "velocity": 118,
              "position": 14.5,
              "duration": 0.075
            },
            {
              "pitch": 40,
              "velocity": 127,
              "position": 15.0,
              "duration": 0.075
            },
            {
              "pitch": 42,
              "velocity": 127,
              "position": 15.0,
              "duration": 0.075
            },
            {
              "pitch": 36,
              "velocity": 83,
              "position": 15.333333,
              "duration": 0.075
            },
            {
              "pitch": 42,
              "velocity": 104,
              "position": 15.5,
              "duration": 0.075
            },
            {
              "pitch": 40,
              "velocity": 81,
              "position": 15.833333,
              "duration": 0.075
            }
          ]
        },
        "10": {
          "ctab": {
            "srcChannel": 10,
            "name": "Bass",
            "accType": "BASS",
            "editable": true,
            "mutedNotes": [],
            "mutedChords": [],
            "sourceChordNote": 0,
            "sourceChordType": "Maj7",
            "ctb2Main": {
              "ntr": "ROOT_TRANSPOSITION",
              "ntt": "BYPASS",
              "bassOn": true,
              "noteLowLimit": 20,
              "noteHighLimit": 60,
              "chordRootUpperLimit": 127,
              "rtr": "NOTE_GENERATOR"
            }
          },
          "notes": [
            {
              "pitch": 36,
              "velocity": 85,
              "position": 0.016667,
              "duration": 1.008333
            },
            {
              "pitch": 36,
              "velocity": 95,
              "position": 1.033333,
              "duration": 0.933333
            },
            {
              "pitch": 36,
              "velocity": 94,
              "position": 2.041667,
              "duration": 0.883333
            },
            {
              "pitch": 40,
              "velocity": 82,
              "position": 3.033333,
              "duration": 0.233333
            },
            {
              "pitch": 43,
              "velocity": 49,
              "position": 3.316667,
              "duration": 0.158333
            },
            {
              "pitch": 47,
              "velocity": 69,
              "position": 3.508333,
              "duration": 0.241667
            },
            {
              "pitch": 36,
              "velocity": 89,
              "position": 4.0,
              "duration": 0.208333
            },
            {
              "pitch": 36,
              "velocity": 94,
              "position": 4.508333,
              "duration": 1.483333
            },
            {
              "pitch": 36,
              "velocity": 91,
              "position": 6.0,
              "duration": 1.958333
            },
            {
              "pitch": 36,
              "velocity": 91,
              "position": 8.0,
              "duration": 0.208333
            },
            {
              "pitch": 36,
              "velocity": 90,
              "position": 8.508333,
              "duration": 3.116667
            },
            {
              "pitch": 31,
              "velocity": 57,
              "position": 11.841667,
              "duration": 0.116667
            },
            {
              "pitch": 36,
              "velocity": 70,
              "position": 12.05,
              "duration": 0.183333
            },
            {
              "pitch": 36,
              "velocity": 93,
              "position": 12.508333,
              "duration": 2.816667
            },
            {
              "pitch": 31,
              "velocity": 73,
              "position": 15.491667,
              "duration": 0.125
            }
          ]
        },
        "11": {
          "ctab": {
            "srcChannel": 11,
            "name": "Piano",
            "accType": "CHORD1",
            "editable": true,
            "mutedNotes": [],
            "mutedChords": [],
            "sourceChordNote": 0,
            "sourceChordType": "Maj7",
            "ctb2Main": {
              "ntr": "ROOT_FIXED",
              "ntt": "CHORD",
              "bassOn": false,
              "noteLowLimit": 48,
              "noteHighLimit": 84,
              "chordRootUpperLimit": 127,
              "rtr": "NOTE_GENERATOR"
            }
          },
          "notes": [
            {
              "pitch": 36,
              "velocity": 86,
              "position": 0.0,
              "duration": 0.091667
            },
            {
              "pitch": 36,
              "velocity": 88,
              "position": 0.491667,
              "duration": 1.066667
            },
            {
              "pitch": 48,
              "velocity": 91,
              "position": 0.5,
              "duration": 0.65
            },
            {
              "pitch": 55,
              "velocity": 92,
              "position": 1.016667,
              "duration": 0.583333
            },
            {
              "pitch": 59,
              "velocity": 93,
              "position": 1.016667,
              "duration": 0.941667
            },
            {
              "pitch": 64,
              "velocity": 89,
              "position": 1.025,
              "duration": 0.933333
            },
            {
              "pitch": 67,
              "velocity": 89,
              "position": 1.025,
              "duration": 0.933333
            },
            {
              "pitch": 55,
              "velocity": 70,
              "position": 1.8,
              "duration": 0.158333
            },
            {
              "pitch": 48,
              "velocity": 93,
              "position": 2.0,
              "duration": 1.958333
            },
            {
              "pitch": 55,
              "velocity": 90,
              "position": 2.0,
              "duration": 1.958333
            },
            {
              "pitch": 59,
              "velocity": 93,
              "position": 2.0,
              "duration": 1.958333
            },
            {
              "pitch": 64,
              "velocity": 90,
              "position": 2.0,
              "duration": 1.958333
            },
            {
              "pitch": 67,
              "velocity": 90,
              "position": 2.0,
              "duration": 1.958333
            },
            {
              "pitch": 36,
              "velocity": 92,
              "position": 2.008333,
              "duration": 1.95
            },
            {
              "pitch": 36,
              "velocity": 89,
              "position": 4.0,
              "duration": 0.208333
            },
            {
              "pitch": 60,
              "velocity": 89,
              "position": 4.0,
              "duration": 0.241667
            },
            {
              "pitch": 60,
              "velocity": 88,
              "position": 4.3,
              "duration": 0.075
            },
            {
              "pitch": 64,
              "velocity": 76,
              "position": 4.3,
              "duration": 0.1
            },
            {
              "pitch": 67,
              "velocity": 78,
              "position": 4.308333,
              "duration": 0.1
            },
            {
              "pitch": 36,
              "velocity": 90,
              "position": 4.491667,
              "duration": 1.283333
            },
            {
              "pitch": 48,
              "velocity": 92,
              "position": 4.491667,
              "duration": 0.541667
            },
            {
              "pitch": 64,
              "velocity": 84,
              "position": 4.983333,
              "duration": 0.608333
            },
            {
              "pitch": 71,
              "velocity": 84,
              "position": 4.983333,
              "duration": 0.558333
            },
            {
              "pitch": 67,
              "velocity": 87,
              "position": 4.991667,
              "duration": 0.558333
            },
            {
              "pitch": 74,
              "velocity": 86,
              "position": 4.991667,
              "duration": 0.525
            },
            {
              "pitch": 60,
              "velocity": 74,
              "position": 5.0,
              "duration": 0.166667
            },
            {
              "pitch": 48,
              "velocity": 80,
              "position": 5.291667,
              "duration": 0.183333
            },
            {
              "pitch": 60,
              "velocity": 92,
              "position": 5.458333,
              "duration": 0.391667
            },
            {
              "pitch": 48,
              "velocity": 91,
              "position": 6.016667,
              "duration": 0.208333
            },
            {
              "pitch": 36,
              "velocity": 91,
              "position": 6.025,
              "duration": 0.35
            },
            {
              "pitch": 60,
              "velocity": 90,
              "position": 6.025,
              "duration": 0.6
            },
            {
              "pitch": 64,
              "velocity": 89,
              "position": 6.025,
              "duration": 0.65
            },
            {
              "pitch": 67,
              "velocity": 89,
              "position": 6.033333,
              "duration": 0.55
            },
            {
              "pitch": 71,
              "velocity": 88,
              "position": 6.033333,
              "duration": 0.533333
            },
            {
              "pitch": 74,
              "velocity": 88,
              "position": 6.033333,
              "duration": 0.541667
            },
            {
              "pitch": 36,
              "velocity": 90,
              "position": 6.508333,
              "duration": 1.216667
            },
            {
              "pitch": 48,
              "velocity": 94,
              "position": 6.508333,
              "duration": 0.641667
            },
            {
              "pitch": 64,
              "velocity": 89,
              "position": 7.016667,
              "duration": 0.883333
            },
            {
              "pitch": 60,
              "velocity": 91,
              "position": 7.025,
              "duration": 0.541667
            },
            {
              "pitch": 67,
              "velocity": 89,
              "position": 7.025,
              "duration": 0.85
            },
            {
              "pitch": 71,
              "velocity": 87,
              "position": 7.025,
              "duration": 0.85
            },
            {
              "pitch": 74,
              "velocity": 88,
              "position": 7.033333,
              "duration": 0.808333
            },
            {
              "pitch": 48,
              "velocity": 62,
              "position": 7.483333,
              "duration": 0.45
            },
            {
              "pitch": 60,
              "velocity": 89,
              "position": 7.816667,
              "duration": 0.083333
            },
            {
              "pitch": 36,
              "velocity": 91,
              "position": 8.0,
              "duration": 1.633333
            },
            {
              "pitch": 48,
              "velocity": 92,
              "position": 8.0,
              "duration": 1.233333
            },
            {
              "pitch": 64,
              "velocity": 89,
              "position": 8.983333,
              "duration": 0.975
            },
            {
              "pitch": 59,
              "velocity": 94,
              "position": 8.991667,
              "duration": 0.933333
            },
            {
              "pitch": 67,
              "velocity": 91,
              "position": 8.991667,
              "duration": 0.933333
            },
            {
              "pitch": 48,
              "velocity": 54,
              "position": 9.5,
              "duration": 0.083333
            },
            {
              "pitch": 55,
              "velocity": 82,
              "position": 9.825,
              "duration": 0.1
            },
            {
              "pitch": 36,
              "velocity": 66,
              "position": 10.025,
              "duration": 0.125
            },
            {
              "pitch": 48,
              "velocity": 58,
              "position": 10.041667,
              "duration": 0.083333
            },
            {
              "pitch": 59,
              "velocity": 91,
              "position": 10.333333,
              "duration": 0.1
            },
            {
              "pitch": 64,
              "velocity": 78,
              "position": 10.333333,
              "duration": 0.125
            },
            {
              "pitch": 55,
              "velocity": 87,
              "position": 10.341667,
              "duration": 0.066667
            },
            {
              "pitch": 36,
              "velocity": 82,
              "position": 10.508333,
              "duration": 1.025
            },
            {
              "pitch": 48,
              "velocity": 89,
              "position": 10.508333,
              "duration": 0.583333
            },
            {
              "pitch": 55,
              "velocity": 91,
              "position": 11.025,
              "duration": 0.6
            },
            {
              "pitch": 60,
              "velocity": 91,
              "position": 11.025,
              "duration": 0.483333
            },
            {
              "pitch": 64,
              "velocity": 90,
              "position": 11.025,
              "duration": 0.525
            },
            {
              "pitch": 48,
              "velocity": 80,
              "position": 11.525,
              "duration": 0.15
            },
            {
              "pitch": 55,
              "velocity": 90,
              "position": 11.991667,
              "duration": 3.833333
            },
            {
              "pitch": 59,
              "velocity": 93,
              "position": 11.991667,
              "duration": 3.866667
            },
            {
              "pitch": 67,
              "velocity": 90,
              "position": 11.991667,
              "duration": 3.841667
            },
            {
              "pitch": 48,
              "velocity": 93,
              "position": 12.0,
              "duration": 3.866667
            },
            {
              "pitch": 64,
              "velocity": 90,
              "position": 12.0,
              "duration": 3.858333
            },
            {
              "pitch": 36,
              "velocity": 92,
              "position": 12.008333,
              "duration": 3.875
            }
          ]
        },
        "12": {
          "ctab": {
            "srcChannel": 12,
            "name": "Guitar",
            "accType": "CHORD2",
            "editable": true,
            "mutedNotes": [],
            "mutedChords": [],
            "sourceChordNote": 0,
            "sourceChordType": "Maj7",
            "ctb2Main": {
              "ntr": "ROOT_FIXED",
              "ntt": "CHORD",
              "bassOn": false,
              "noteLowLimit": 40,
              "noteHighLimit": 76,
              "chordRootUpperLimit": 127,
              "rtr": "NOTE_GENERATOR"
            }
          },
          "notes": [
            {
              "pitch": 48,
              "velocity": 41,
              "position": 0.0,
              "duration": 1.958333
            },
            {
              "pitch": 55,
              "velocity": 58,
              "position": 0.0,
              "duration": 1.958333
            },
            {
              "pitch": 59,
              "velocity": 64,
              "position": 0.033333,
              "duration": 1.925
            },
            {
              "pitch": 64,
              "velocity": 83,
              "position": 0.066667,
              "duration": 1.891667
            },
            {
              "pitch": 48,
              "velocity": 80,
              "position": 2.008333,
              "duration": 1.95
            },
            {
              "pitch": 55,
              "velocity": 73,
              "position": 2.033333,
              "duration": 1.925
            },
            {
              "pitch": 59,
              "velocity": 78,
              "position": 2.05,
              "duration": 1.908333
            },
            {
              "pitch": 64,
              "velocity": 67,
              "position": 2.066667,
              "duration": 1.891667
            },
            {
              "pitch": 48,
              "velocity": 63,
              "position": 4.0,
              "duration": 0.983333
            },
            {
              "pitch": 55,
              "velocity": 68,
              "position": 4.016667,
              "duration": 0.991667
            },
            {
              "pitch": 59,
              "velocity": 85,
              "position": 4.033333,
              "duration": 0.991667
            },
            {
              "pitch": 64,
              "velocity": 66,
              "position": 4.05,
              "duration": 0.991667
            },
            {
              "pitch": 48,
              "velocity": 62,
              "position": 4.991667,
              "duration": 0.966667
            },
            {
              "pitch": 55,
              "velocity": 73,
              "position": 5.016667,
              "duration": 0.941667
            },
            {
              "pitch": 59,
              "velocity": 83,
              "position": 5.033333,
              "duration": 0.925
            },
            {
              "pitch": 64,
              "velocity": 59,
              "position": 5.05,
              "duration": 0.908333
            },
            {
              "pitch": 48,
              "velocity": 67,
              "position": 6.0,
              "duration": 0.55
            },
            {
              "pitch": 55,
              "velocity": 74,
              "position": 6.016667,
              "duration": 0.983333
            },
            {
              "pitch": 59,
              "velocity": 90,
              "position": 6.033333,
              "duration": 0.983333
            },
            {
              "pitch": 64,
              "velocity": 70,
              "position": 6.05,
              "duration": 0.216667
            },
            {
              "pitch": 64,
              "velocity": 63,
              "position": 6.308333,
              "duration": 0.716667
            },
            {
              "pitch": 48,
              "velocity": 60,
              "position": 6.566667,
              "duration": 0.425
            },
            {
              "pitch": 48,
              "velocity": 50,
              "position": 7.008333,
              "duration": 0.95
            },
            {
              "pitch": 55,
              "velocity": 67,
              "position": 7.016667,
              "duration": 0.941667
            },
            {
              "pitch": 59,
              "velocity": 87,
              "position": 7.025,
              "duration": 0.933333
            },
            {
              "pitch": 64,
              "velocity": 57,
              "position": 7.033333,
              "duration": 0.925
            },
            {
              "pitch": 48,
              "velocity": 76,
              "position": 8.033333,
              "duration": 3.983333
            },
            {
              "pitch": 55,
              "velocity": 47,
              "position": 8.541667,
              "duration": 0.283333
            },
            {
              "pitch": 59,
              "velocity": 31,
              "position": 8.566667,
              "duration": 0.441667
            },
            {
              "pitch": 55,
              "velocity": 31,
              "position": 8.833333,
              "duration": 0.175
            },
            {
              "pitch": 55,
              "velocity": 72,
              "position": 9.016667,
              "duration": 1.483333
            },
            {
              "pitch": 59,
              "velocity": 101,
              "position": 9.033333,
              "duration": 1.25
            },
            {
              "pitch": 64,
              "velocity": 78,
              "position": 9.041667,
              "duration": 0.716667
            },
            {
              "pitch": 64,
              "velocity": 74,
              "position": 9.816667,
              "duration": 1.175
            },
            {
              "pitch": 59,
              "velocity": 70,
              "position": 10.316667,
              "duration": 0.683333
            },
            {
              "pitch": 55,
              "velocity": 62,
              "position": 10.516667,
              "duration": 0.466667
            },
            {
              "pitch": 55,
              "velocity": 67,
              "position": 10.991667,
              "duration": 1.525
            },
            {
              "pitch": 64,
              "velocity": 34,
              "position": 11.0,
              "duration": 0.008333
            },
            {
              "pitch": 59,
              "velocity": 101,
              "position": 11.008333,
              "duration": 0.516667
            },
            {
              "pitch": 64,
              "velocity": 86,
              "position": 11.025,
              "duration": 0.758333
            },
            {
              "pitch": 59,
              "velocity": 51,
              "position": 11.541667,
              "duration": 1.475
            },
            {
              "pitch": 64,
              "velocity": 62,
              "position": 11.808333,
              "duration": 1.208333
            },
            {
              "pitch": 48,
              "velocity": 93,
              "position": 12.033333,
              "duration": 0.966667
            },
            {
              "pitch": 55,
              "velocity": 46,
              "position": 12.533333,
              "duration": 0.483333
            },
            {
              "pitch": 48,
              "velocity": 55,
              "position": 13.016667,
              "duration": 2.941667
            },
            {
              "pitch": 55,
              "velocity": 85,
              "position": 13.025,
              "duration": 0.133333
            },
            {
              "pitch": 59,
              "velocity": 90,
              "position": 13.041667,
              "duration": 1.183333
            },
            {
              "pitch": 64,
              "velocity": 63,
              "position": 13.041667,
              "duration": 0.7
            },
            {
              "pitch": 55,
              "velocity": 71,
              "position": 13.158333,
              "duration": 1.325
            },
            {
              "pitch": 64,
              "velocity": 70,
              "position": 13.783333,
              "duration": 1.708333
            },
            {
              "pitch": 59,
              "velocity": 75,
              "position": 14.275,
              "duration": 1.208333
            },
            {
              "pitch": 55,
              "velocity": 80,
              "position": 14.491667,
              "duration": 0.975
            },
            {
              "pitch": 55,
              "velocity": 63,
              "position": 15.483333,
              "duration": 0.466667
            },
            {
              "pitch": 59,
              "velocity": 78,
              "position": 15.5,
              "duration": 0.408333
            },
            {
              "pitch": 64,
              "velocity": 41,
              "position": 15.5,
              "duration": 0.433333
            }
          ]
        },
        "13": {
          "ctab": {
            "srcChannel": 13,
            "name": "Strings",
            "accType": "PAD",
            "editable": true,
            "mutedNotes": [],
            "mutedChords": [],
            "sourceChordNote": 0,
            "sourceChordType": "Maj7",
            "ctb2Main": {
              "ntr": "ROOT_FIXED",
              "ntt": "MELODY",
              "bassOn": false,
              "noteLowLimit": 36,
              "noteHighLimit": 96,
              "chordRootUpperLimit": 127,
              "rtr": "PITCH_SHIFT"
            }
          },
          "notes": [
            {
              "pitch": 48,
              "velocity": 73,
              "position": 0.0,
              "duration": 0.841667
            },
            {
              "pitch": 48,
              "velocity": 60,
              "position": 1.0,
              "duration": 0.95
            },
            {
              "pitch": 55,
              "velocity": 96,
              "position": 1.0,
              "duration": 0.941667
            },
            {
              "pitch": 64,
              "velocity": 62,
              "position": 1.0,
              "duration": 0.008333
            },
            {
              "pitch": 59,
              "velocity": 106,
              "position": 1.008333,
              "duration": 0.925
            },
            {
              "pitch": 64,
              "velocity": 87,
              "position": 1.008333,
              "duration": 0.916667
            },
            {
              "pitch": 48,
              "velocity": 73,
              "position": 2.0,
              "duration": 0.841667
            },
            {
              "pitch": 48,
              "velocity": 60,
              "position": 3.0,
              "duration": 0.95
            },
            {
              "pitch": 55,
              "velocity": 96,
              "position": 3.0,
              "duration": 0.941667
            },
            {
              "pitch": 64,
              "velocity": 62,
              "position": 3.0,
              "duration": 0.008333
            },
            {
              "pitch": 59,
              "velocity": 106,
              "position": 3.008333,
              "duration": 0.925
            },
            {
              "pitch": 64,
              "velocity": 87,
              "position": 3.008333,
              "duration": 0.916667
            },
            {
              "pitch": 48,
              "velocity": 70,
              "position": 4.0,
              "duration": 0.916667
            },
            {
              "pitch": 55,
              "velocity": 67,
              "position": 4.0,
              "duration": 0.958333
            },
            {
              "pitch": 59,
              "velocity": 82,
              "position": 4.0,
              "duration": 0.975
            },
            {
              "pitch": 64,
              "velocity": 72,
              "position": 4.0,
              "duration": 0.991667
            },
            {
              "pitch": 48,
              "velocity": 44,
              "position": 4.925,
              "duration": 1.075
            },
            {
              "pitch": 55,
              "velocity": 62,
              "position": 4.958333,
              "duration": 1.041667
            },
            {
              "pitch": 59,
              "velocity": 87,
              "position": 4.983333,
              "duration": 1.016667
            },
            {
              "pitch": 64,
              "velocity": 82,
              "position": 5.0,
              "duration": 0.95
            },
            {
              "pitch": 48,
              "velocity": 70,
              "position": 6.0,
              "duration": 0.916667
            },
            {
              "pitch": 55,
              "velocity": 67,
              "position": 6.0,
              "duration": 0.958333
            },
            {
              "pitch": 59,
              "velocity": 82,
              "position": 6.0,
              "duration": 0.975
            },
            {
              "pitch": 64,
              "velocity": 72,
              "position": 6.0,
              "duration": 0.991667
            },
            {
              "pitch": 48,
              "velocity": 44,
              "position": 6.925,
              "duration": 1.075
            },
            {
              "pitch": 55,
              "velocity": 62,
              "position": 6.958333,
              "duration": 1.041667
            },
            {
              "pitch": 59,
              "velocity": 87,
              "position": 6.983333,
              "duration": 1.016667
            },
            {
              "pitch": 64,
              "velocity": 82,
              "position": 7.0,
              "duration": 0.95
            },
            {
              "pitch": 48,
              "velocity": 85,
              "position": 8.0,
              "duration": 4.008333
            },
            {
              "pitch": 55,
              "velocity": 75,
              "position": 8.0,
              "duration": 0.991667
            },
            {
              "pitch": 59,
              "velocity": 76,
              "position": 8.008333,
              "duration": 0.975
            },
            {
              "pitch": 59,
              "velocity": 49,
              "position": 8.991667,
              "duration": 0.008333
            },
            {
              "pitch": 55,
              "velocity": 75,
              "position": 9.0,
              "duration": 2.808333
            },
            {
              "pitch": 64,
              "velocity": 69,
              "position": 9.008333,
              "duration": 0.008333
            },
            {
              "pitch": 59,
              "velocity": 98,
              "position": 9.016667,
              "duration": 2.758333
            },
            {
              "pitch": 64,
              "velocity": 90,
              "position": 9.025,
              "duration": 3.3
            },
            {
              "pitch": 55,
              "velocity": 35,
              "position": 11.816667,
              "duration": 0.166667
            },
            {
              "pitch": 59,
              "velocity": 85,
              "position": 11.816667,
              "duration": 0.416667
            },
            {
              "pitch": 48,
              "velocity": 80,
              "position": 12.016667,
              "duration": 0.375
            },
            {
              "pitch": 48,
              "velocity": 66,
              "position": 12.5,
              "duration": 3.458333
            },
            {
              "pitch": 55,
              "velocity": 71,
              "position": 13.008333,
              "duration": 2.95
            },
            {
              "pitch": 64,
              "velocity": 31,
              "position": 13.016667,
              "duration": 0.008333
            },
            {
              "pitch": 59,
              "velocity": 101,
              "position": 13.025,
              "duration": 2.933333
            },
            {
              "pitch": 64,
              "velocity": 87,
              "position": 13.033333,
              "duration": 2.925
            }
          ]
        }
      }
    },
    "Main_C": {
      "type": "Main_C",
      "sizeInBeats": 16,
      "channels": {
        "9": {
          "ctab": {
            "srcChannel": 9,
            "name": "Drums",
            "accType": "RHYTHM",
            "editable": false,
            "mutedNotes": [],
            "mutedChords": [],
            "sourceChordNote": 0,
            "sourceChordType": "Maj",
            "ctb2Main": {
              "ntr": "ROOT_FIXED",
              "ntt": "BYPASS",
              "bassOn": false,
              "noteLowLimit": 20,
              "noteHighLimit": 127,
              "chordRootUpperLimit": 127,
              "rtr": "RETRIGGER"
            }
          },
          "notes": [
            {
              "pitch": 36,
              "velocity": 123,
              "position": 0.0,
              "duration": 0.075
            },
            {
              "pitch": 57,
              "velocity": 127,
              "position": 0.0,
              "duration": 0.075
            },
            {
              "pitch": 42,
              "velocity": 85,
              "position": 0.5,
              "duration": 0.075
            },
            {
              "pitch": 40,
              "velocity": 127,
              "position": 1.0,
              "duration": 0.075
            },
            {
              "pitch": 42,
              "velocity": 127,
              "position": 1.0,
              "duration": 0.075
            },
            {
              "pitch": 42,
              "velocity": 121,
              "position": 1.5,
              "duration": 0.075
            },
            {
              "pitch": 40,
              "velocity": 55,
              "position": 1.833333,
              "duration": 0.075
            },
            {
              "pitch": 36,
              "velocity": 32,
              "position": 2.0,
              "duration": 0.075
            },
            {
              "pitch": 42,
              "velocity": 127,
              "position": 2.0,
              "duration": 0.075
            },
            {
              "pitch": 36,
              "velocity": 127,
              "position": 2.5,
              "duration": 0.075
            },
            {
              "pitch": 42,
              "velocity": 89,
              "position": 2.5,
              "duration": 0.075
            },
            {
              "pitch": 40,
              "velocity": 127,
              "position": 3.0,
              "duration": 0.075
            },
            {
              "pitch": 42,
              "velocity": 127,
              "position": 3.0,
              "duration": 0.075
            },
            {
              "pitch": 42,
              "velocity": 127,
              "position": 3.5,
              "duration": 0.075
            },
            {
              "pitch": 36,
              "velocity": 115,
              "position": 4.0,
              "duration": 0.075
            },
            {
              "pitch": 42,
              "velocity": 127,
              "position": 4.0,
              "duration": 0.075
            },
            {
              "pitch": 42,
              "velocity": 106,
              "position": 4.5,
              "duration": 0.075
            },
            {
              "pitch": 40,
              "velocity": 127,
              "position": 5.0,
              "duration": 0.075
            },
            {
              "pitch": 42,
              "velocity": 127,
              "position": 5.0,
              "duration": 0.075
            },
            {
              "pitch": 42,
              "velocity": 105,
              "position": 5.5,
              "duration": 0.075
            },
            {
              "pitch": 40,
              "velocity": 46,
              "position": 5.833333,
              "duration": 0.075
            },
            {
              "pitch": 36,
              "velocity": 106,
              "position": 6.0,
              "duration": 0.075
            },
            {
              "pitch": 42,
              "velocity": 82,
              "position": 6.0,
              "duration": 0.075
            },
            {
              "pitch": 36,
              "velocity": 123,
              "position": 6.5,
              "duration": 0.075
            },
            {
              "pitch": 42,
              "velocity": 127,
              "position": 6.5,
              "duration": 0.075
            },
            {
              "pitch": 40,
              "velocity": 127,
              "position": 7.0,
              "duration": 0.075
            },
            {
              "pitch": 42,
              "velocity": 127,
              "position": 7.0,
              "duration": 0.075
            },
            {
              "pitch": 42,
              "velocity": 127,
              "position": 7.5,
              "duration": 0.075
            },
            {
              "pitch": 36,
              "velocity": 127,
              "position": 8.0,
              "duration": 0.075
            },
            {
              "pitch": 42,
              "velocity": 123,
              "position": 8.0,
              "duration": 0.075
            },
            {
              "pitch": 42,
              "velocity": 81,
              "position": 8.5,
              "duration": 0.075
            },
            {
              "pitch": 40,
              "velocity": 127,
              "position": 9.0,
              "duration": 0.075
            },
            {
              "pitch": 42,
              "velocity": 127,
              "position": 9.0,
              "duration": 0.075
            },
            {
              "pitch": 42,
              "velocity": 100,
              "position": 9.5,
              "duration": 0.075
            },
            {
              "pitch": 40,
              "velocity": 42,
              "position": 9.833333,
              "duration": 0.075
            },
            {
              "pitch": 36,
              "velocity": 112,
              "position": 10.0,
              "duration": 0.075
            },
            {
              "pitch": 42,
              "velocity": 127,
              "position": 10.0,
              "duration": 0.075
            },
            {
              "pitch": 36,
              "velocity": 121,
              "position": 10.5,
              "duration": 0.075
            },
            {
              "pitch": 42,
              "velocity": 127,
              "position": 10.5,
              "duration": 0.075
            },
            {
              "pitch": 40,
              "velocity": 127,
              "position": 11.0,
              "duration": 0.075
            },
            {
              "pitch": 42,
              "velocity": 110,
              "position": 11.0,
              "duration": 0.075
            },
            {
              "pitch": 42,
              "velocity": 86,
              "position": 11.5,
              "duration": 0.075
            },
            {
              "pitch": 36,
              "velocity": 116,
              "position": 12.0,
              "duration": 0.075
            },
            {
              "pitch": 42,
              "velocity": 82,
              "position": 12.0,
              "duration": 0.075
            },
            {
              "pitch": 42,
              "velocity": 126,
              "position": 12.5,
              "duration": 0.075
            },
            {
              "pitch": 36,
              "velocity": 92,
              "position": 12.833333,
              "duration": 0.075
            },
            {
              "pitch": 40,
              "velocity": 127,
              "position": 13.0,
              "duration": 0.075
            },
            {
              "pitch": 42,
              "velocity": 127,
              "position": 13.0,
              "duration": 0.075
            },
            {
              "pitch": 42,
              "velocity": 94,
              "position": 13.5,
              "duration": 0.075
            },
            {
              "pitch": 40,
              "velocity": 127,
              "position": 13.833333,
              "duration": 0.075
            },
            {
              "pitch": 42,
              "velocity": 121,
              "position": 14.0,
              "duration": 0.075
            },
            {
              "pitch": 45,
              "velocity": 33,
              "position": 14.333333,
              "duration": 0.075
            },
            {
              "pitch": 48,
              "velocity": 127,
              "position": 14.333333,
              "duration": 0.075
            },
            {
              "pitch": 42,
              "velocity": 127,
              "position": 14.5,
              "duration": 0.075
            },
            {
              "pitch": 40,
              "velocity": 127,
              "position": 14.833333,
              "duration": 0.075
            },
            {
              "pitch": 36,
              "velocity": 86,
              "position": 15.0,
              "duration": 0.075
            },
            {
              "pitch": 40,
              "velocity": 127,
              "position": 15.0,
              "duration": 0.075
            },
            {
              "pitch": 40,
              "velocity": 127,
              "position": 15.333333,
              "duration": 0.075
            },
            {
              "pitch": 45,
              "velocity": 127,
              "position": 15.5,
              "duration": 0.075
            },
            {
              "pitch": 36,
              "velocity": 68,
              "position": 15.833333,
              "duration": 0.075
            }
          ]
        },
        "10": {
          "ctab": {
            "srcChannel": 10,
            "name": "Bass",
            "accType": "BASS",
            "editable": true,
            "mutedNotes": [],
            "mutedChords": [],
            "sourceChordNote": 0,
            "sourceChordType": "Maj7",
            "ctb2Main": {
              "ntr": "ROOT_TRANSPOSITION",
              "ntt": "BYPASS",
              "bassOn": true,
              "noteLowLimit": 20,
              "noteHighLimit": 60,
              "chordRootUpperLimit": 127,
              "rtr": "NOTE_GENERATOR"
            }
          },
          "notes": [
            {
              "pitch": 36,
              "velocity": 85,
              "position": 0.016667,
              "duration": 1.008333
            },
            {
              "pitch": 36,
              "velocity": 95,
              "position": 1.033333,
              "duration": 0.933333
            },
            {
              "pitch": 36,
              "velocity": 94,
              "position": 2.041667,
              "duration": 0.883333
            },
            {
              "pitch": 40,
              "velocity": 82,
              "position": 3.033333,
              "duration": 0.233333
            },
            {
              "pitch": 43,
              "velocity": 49,
              "position": 3.316667,
              "duration": 0.158333
            },
            {
              "pitch": 47,
              "velocity": 69,
              "position": 3.508333,
              "duration": 0.241667
            },
            {
              "pitch": 36,
              "velocity": 83,
              "position": 4.0,
              "duration": 0.216667
            },
            {
              "pitch": 36,
              "velocity": 94,
              "position": 4.491667,
              "duration": 1.5
            },
            {
              "pitch": 36,
              "velocity": 91,
              "position": 6.0,
              "duration": 1.958333
            },
            {
              "pitch": 36,
              "velocity": 93,
              "position": 8.0,
              "duration": 0.191667
            },
            {
              "pitch": 36,
              "velocity": 86,
              "position": 8.508333,
              "duration": 3.025
            },
            {
              "pitch": 36,
              "velocity": 76,
              "position": 11.55,
              "duration": 0.25
            },
            {
              "pitch": 43,
              "velocity": 73,
              "position": 11.841667,
              "duration": 0.116667
            },
            {
              "pitch": 48,
              "velocity": 65,
              "position": 12.033333,
              "duration": 0.158333
            },
            {
              "pitch": 48,
              "velocity": 73,
              "position": 12.508333,
              "duration": 2.641667
            }
          ]
        },
        "11": {
          "ctab": {
            "srcChannel": 11,
            "name": "Piano",
            "accType": "CHORD1",
            "editable": true,
            "mutedNotes": [],
            "mutedChords": [],
            "sourceChordNote": 0,
            "sourceChordType": "Maj7",
            "ctb2Main": {
              "ntr": "ROOT_FIXED",
              "ntt": "CHORD",
              "bassOn": false,
              "noteLowLimit": 48,
              "noteHighLimit": 84,
              "chordRootUpperLimit": 127,
              "rtr": "NOTE_GENERATOR"
            }
          },
          "notes": [
            {
              "pitch": 48,
              "velocity": 88,
              "position": 0.0,
              "duration": 1.133333
            },
            {
              "pitch": 59,
              "velocity": 94,
              "position": 0.0,
              "duration": 0.9
            },
            {
              "pitch": 64,
              "velocity": 89,
              "position": 0.0,
              "duration": 0.941667
            },
            {
              "pitch": 67,
              "velocity": 92,
              "position": 0.0,
              "duration": 0.883333
            },
            {
              "pitch": 59,
              "velocity": 94,
              "position": 1.008333,
              "duration": 0.95
            },
            {
              "pitch": 64,
              "velocity": 91,
              "position": 1.008333,
              "duration": 0.941667
            },
            {
              "pitch": 67,
              "velocity": 89,
              "position": 1.008333,
              "duration": 0.833333
            },
            {
              "pitch": 55,
              "velocity": 82,
              "position": 1.833333,
              "duration": 0.116667
            },
            {
              "pitch": 48,
              "velocity": 18,
              "position": 2.0,
              "duration": 0.058333
            },
            {
              "pitch": 59,
              "velocity": 93,
              "position": 2.0,
              "duration": 0.033333
            },
            {
              "pitch": 60,
              "velocity": 91,
              "position": 2.0,
              "duration": 0.05
            },
            {
              "pitch": 64,
              "velocity": 84,
              "position": 2.0,
              "duration": 0.058333
            },
            {
              "pitch": 36,
              "velocity": 89,
              "position": 2.008333,
              "duration": 1.75
            },
            {
              "pitch": 48,
              "velocity": 91,
              "position": 2.516667,
              "duration": 0.658333
            },
            {
              "pitch": 59,
              "velocity": 94,
              "position": 3.008333,
              "duration": 0.791667
            },
            {
              "pitch": 60,
              "velocity": 91,
              "position": 3.008333,
              "duration": 0.95
            },
            {
              "pitch": 64,
              "velocity": 89,
              "position": 3.008333,
              "duration": 0.95
            },
            {
              "pitch": 55,
              "velocity": 92,
              "position": 3.016667,
              "duration": 0.625
            },
            {
              "pitch": 55,
              "velocity": 80,
              "position": 3.808333,
              "duration": 0.15
            },
            {
              "pitch": 36,
              "velocity": 91,
              "position": 4.0,
              "duration": 1.958333
            },
            {
              "pitch": 48,
              "velocity": 93,
              "position": 4.0,
              "duration": 1.958333
            },
            {
              "pitch": 59,
              "velocity": 95,
              "position": 4.0,
              "duration": 1.958333
            },
            {
              "pitch": 60,
              "velocity": 89,
              "position": 4.0,
              "duration": 1.958333
            },
            {
              "pitch": 64,
              "velocity": 80,
              "position": 4.0,
              "duration": 1.958333
            },
            {
              "pitch": 67,
              "velocity": 92,
              "position": 4.0,
              "duration": 1.958333
            },
            {
              "pitch": 36,
              "velocity": 89,
              "position": 6.0,
              "duration": 0.208333
            },
            {
              "pitch": 60,
              "velocity": 89,
              "position": 6.0,
              "duration": 0.241667
            },
            {
              "pitch": 60,
              "velocity": 88,
              "position": 6.3,
              "duration": 0.075
            },
            {
              "pitch": 64,
              "velocity": 76,
              "position": 6.3,
              "duration": 0.1
            },
            {
              "pitch": 67,
              "velocity": 78,
              "position": 6.308333,
              "duration": 0.1
            },
            {
              "pitch": 36,
              "velocity": 90,
              "position": 6.491667,
              "duration": 1.283333
            },
            {
              "pitch": 48,
              "velocity": 92,
              "position": 6.491667,
              "duration": 0.541667
            },
            {
              "pitch": 64,
              "velocity": 84,
              "position": 6.983333,
              "duration": 0.608333
            },
            {
              "pitch": 71,
              "velocity": 84,
              "position": 6.983333,
              "duration": 0.558333
            },
            {
              "pitch": 67,
              "velocity": 87,
              "position": 6.991667,
              "duration": 0.558333
            },
            {
              "pitch": 74,
              "velocity": 86,
              "position": 6.991667,
              "duration": 0.525
            },
            {
              "pitch": 60,
              "velocity": 74,
              "position": 7.0,
              "duration": 0.166667
            },
            {
              "pitch": 48,
              "velocity": 80,
              "position": 7.291667,
              "duration": 0.183333
            },
            {
              "pitch": 60,
              "velocity": 92,
              "position": 7.458333,
              "duration": 0.391667
            },
            {
              "pitch": 48,
              "velocity": 18,
              "position": 8.0,
              "duration": 0.058333
            },
            {
              "pitch": 59,
              "velocity": 93,
              "position": 8.0,
              "duration": 0.033333
            },
            {
              "pitch": 60,
              "velocity": 91,
              "position": 8.0,
              "duration": 0.05
            },
            {
              "pitch": 64,
              "velocity": 84,
              "position": 8.0,
              "duration": 0.058333
            },
            {
              "pitch": 36,
              "velocity": 89,
              "position": 8.008333,
              "duration": 1.75
            },
            {
              "pitch": 48,
              "velocity": 91,
              "position": 8.516667,
              "duration": 0.658333
            },
            {
              "pitch": 59,
              "velocity": 94,
              "position": 9.008333,
              "duration": 0.791667
            },
            {
              "pitch": 60,
              "velocity": 91,
              "position": 9.008333,
              "duration": 1.058333
            },
            {
              "pitch": 64,
              "velocity": 89,
              "position": 9.008333,
              "duration": 1.058333
            },
            {
              "pitch": 55,
              "velocity": 92,
              "position": 9.016667,
              "duration": 0.625
            },
            {
              "pitch": 55,
              "velocity": 80,
              "position": 9.808333,
              "duration": 0.241667
            },
            {
              "pitch": 48,
              "velocity": 86,
              "position": 9.991667,
              "duration": 0.2
            },
            {
              "pitch": 36,
              "velocity": 89,
              "position": 10.0,
              "duration": 0.308333
            },
            {
              "pitch": 60,
              "velocity": 89,
              "position": 10.3,
              "duration": 0.066667
            },
            {
              "pitch": 64,
              "velocity": 72,
              "position": 10.316667,
              "duration": 0.05
            },
            {
              "pitch": 36,
              "velocity": 87,
              "position": 10.491667,
              "duration": 1.108333
            },
            {
              "pitch": 48,
              "velocity": 91,
              "position": 10.491667,
              "duration": 0.575
            },
            {
              "pitch": 59,
              "velocity": 93,
              "position": 10.991667,
              "duration": 0.9
            },
            {
              "pitch": 67,
              "velocity": 91,
              "position": 10.991667,
              "duration": 1.066667
            },
            {
              "pitch": 64,
              "velocity": 89,
              "position": 11.0,
              "duration": 1.475
            },
            {
              "pitch": 48,
              "velocity": 89,
              "position": 11.483333,
              "duration": 0.425
            },
            {
              "pitch": 55,
              "velocity": 89,
              "position": 11.5,
              "duration": 0.533333
            },
            {
              "pitch": 36,
              "velocity": 89,
              "position": 12.0,
              "duration": 0.2
            },
            {
              "pitch": 59,
              "velocity": 87,
              "position": 12.0,
              "duration": 0.566667
            },
            {
              "pitch": 48,
              "velocity": 86,
              "position": 12.008333,
              "duration": 0.158333
            },
            {
              "pitch": 36,
              "velocity": 91,
              "position": 12.483333,
              "duration": 1.191667
            },
            {
              "pitch": 48,
              "velocity": 91,
              "position": 12.491667,
              "duration": 0.608333
            },
            {
              "pitch": 59,
              "velocity": 93,
              "position": 12.983333,
              "duration": 0.583333
            },
            {
              "pitch": 60,
              "velocity": 91,
              "position": 12.983333,
              "duration": 0.533333
            },
            {
              "pitch": 64,
              "velocity": 91,
              "position": 12.983333,
              "duration": 0.575
            },
            {
              "pitch": 55,
              "velocity": 92,
              "position": 12.991667,
              "duration": 0.75
            },
            {
              "pitch": 48,
              "velocity": 88,
              "position": 13.475,
              "duration": 0.75
            },
            {
              "pitch": 36,
              "velocity": 91,
              "position": 13.991667,
              "duration": 1.966667
            },
            {
              "pitch": 59,
              "velocity": 88,
              "position": 13.991667,
              "duration": 0.225
            },
            {
              "pitch": 55,
              "velocity": 68,
              "position": 14.008333,
              "duration": 0.191667
            },
            {
              "pitch": 64,
              "velocity": 78,
              "position": 14.008333,
              "duration": 0.25
            },
            {
              "pitch": 59,
              "velocity": 92,
              "position": 14.308333,
              "duration": 0.083333
            },
            {
              "pitch": 55,
              "velocity": 80,
              "position": 14.316667,
              "duration": 0.075
            },
            {
              "pitch": 64,
              "velocity": 76,
              "position": 14.316667,
              "duration": 0.108333
            },
            {
              "pitch": 48,
              "velocity": 89,
              "position": 14.483333,
              "duration": 1.475
            },
            {
              "pitch": 59,
              "velocity": 93,
              "position": 14.991667,
              "duration": 0.975
            },
            {
              "pitch": 55,
              "velocity": 91,
              "position": 15.0,
              "duration": 0.925
            },
            {
              "pitch": 64,
              "velocity": 90,
              "position": 15.0,
              "duration": 0.958333
            }
          ]
        },
        "12": {
          "ctab": {
            "srcChannel": 12,
            "name": "Guitar",
            "accType": "CHORD2",
            "editable": true,
            "mutedNotes": [],
            "mutedChords": [],
            "sourceChordNote": 0,
            "sourceChordType": "Maj7",
            "ctb2Main": {
              "ntr": "ROOT_FIXED",
              "ntt": "CHORD",
              "bassOn": false,
              "noteLowLimit": 40,
              "noteHighLimit": 76,
              "chordRootUpperLimit": 127,
              "rtr": "NOTE_GENERATOR"
            }
          },
          "notes": [
            {
              "pitch": 48,
              "velocity": 58,
              "position": 0.0,
              "duration": 1.958333
            },
            {
              "pitch": 55,
              "velocity": 64,
              "position": 0.0,
              "duration": 1.958333
            },
            {
              "pitch": 59,
              "velocity": 90,
              "position": 0.025,
              "duration": 1.933333
            },
            {
              "pitch": 64,
              "velocity": 80,
              "position": 0.05,
              "duration": 1.908333
            },
            {
              "pitch": 48,
              "velocity": 80,
              "position": 2.008333,
              "duration": 1.95
            },
            {
              "pitch": 55,
              "velocity": 73,
              "position": 2.033333,
              "duration": 1.925
            },
            {
              "pitch": 59,
              "velocity": 78,
              "position": 2.05,
              "duration": 1.908333
            },
            {
              "pitch": 64,
              "velocity": 67,
              "position": 2.066667,
              "duration": 1.891667
            },
            {
              "pitch": 48,
              "velocity": 66,
              "position": 4.0,
              "duration": 0.525
            },
            {
              "pitch": 55,
              "velocity": 78,
              "position": 4.0,
              "duration": 1.0
            },
            {
              "pitch": 59,
              "velocity": 94,
              "position": 4.0,
              "duration": 1.0
            },
            {
              "pitch": 64,
              "velocity": 78,
              "position": 4.016667,
              "duration": 0.233333
            },
            {
              "pitch": 64,
              "velocity": 67,
              "position": 4.3,
              "duration": 0.7
            },
            {
              "pitch": 48,
              "velocity": 62,
              "position": 4.533333,
              "duration": 1.425
            },
            {
              "pitch": 55,
              "velocity": 82,
              "position": 5.008333,
              "duration": 0.925
            },
            {
              "pitch": 59,
              "velocity": 77,
              "position": 5.016667,
              "duration": 0.941667
            },
            {
              "pitch": 64,
              "velocity": 66,
              "position": 5.033333,
              "duration": 0.866667
            },
            {
              "pitch": 48,
              "velocity": 63,
              "position": 6.0,
              "duration": 0.983333
            },
            {
              "pitch": 55,
              "velocity": 68,
              "position": 6.016667,
              "duration": 0.991667
            },
            {
              "pitch": 59,
              "velocity": 85,
              "position": 6.033333,
              "duration": 0.991667
            },
            {
              "pitch": 64,
              "velocity": 66,
              "position": 6.05,
              "duration": 0.991667
            },
            {
              "pitch": 48,
              "velocity": 62,
              "position": 6.991667,
              "duration": 0.966667
            },
            {
              "pitch": 55,
              "velocity": 73,
              "position": 7.016667,
              "duration": 0.941667
            },
            {
              "pitch": 59,
              "velocity": 83,
              "position": 7.033333,
              "duration": 0.925
            },
            {
              "pitch": 64,
              "velocity": 59,
              "position": 7.05,
              "duration": 0.908333
            },
            {
              "pitch": 48,
              "velocity": 85,
              "position": 8.008333,
              "duration": 0.983333
            },
            {
              "pitch": 67,
              "velocity": 59,
              "position": 9.0,
              "duration": 0.008333
            },
            {
              "pitch": 48,
              "velocity": 57,
              "position": 9.008333,
              "duration": 3.033333
            },
            {
              "pitch": 59,
              "velocity": 69,
              "position": 9.016667,
              "duration": 0.008333
            },
            {
              "pitch": 55,
              "velocity": 94,
              "position": 9.025,
              "duration": 1.475
            },
            {
              "pitch": 59,
              "velocity": 84,
              "position": 9.033333,
              "duration": 0.775
            },
            {
              "pitch": 64,
              "velocity": 68,
              "position": 9.033333,
              "duration": 0.741667
            },
            {
              "pitch": 64,
              "velocity": 82,
              "position": 9.8,
              "duration": 1.225
            },
            {
              "pitch": 59,
              "velocity": 50,
              "position": 9.816667,
              "duration": 0.45
            },
            {
              "pitch": 59,
              "velocity": 69,
              "position": 10.308333,
              "duration": 0.7
            },
            {
              "pitch": 55,
              "velocity": 66,
              "position": 10.516667,
              "duration": 0.991667
            },
            {
              "pitch": 59,
              "velocity": 88,
              "position": 11.016667,
              "duration": 0.508333
            },
            {
              "pitch": 64,
              "velocity": 74,
              "position": 11.025,
              "duration": 0.516667
            },
            {
              "pitch": 55,
              "velocity": 33,
              "position": 11.525,
              "duration": 0.533333
            },
            {
              "pitch": 59,
              "velocity": 66,
              "position": 11.533333,
              "duration": 1.466667
            },
            {
              "pitch": 64,
              "velocity": 39,
              "position": 11.55,
              "duration": 0.241667
            },
            {
              "pitch": 64,
              "velocity": 62,
              "position": 11.816667,
              "duration": 1.183333
            },
            {
              "pitch": 48,
              "velocity": 83,
              "position": 12.05,
              "duration": 0.933333
            },
            {
              "pitch": 55,
              "velocity": 32,
              "position": 12.066667,
              "duration": 0.916667
            },
            {
              "pitch": 48,
              "velocity": 59,
              "position": 12.991667,
              "duration": 1.475
            },
            {
              "pitch": 55,
              "velocity": 71,
              "position": 13.0,
              "duration": 1.283333
            },
            {
              "pitch": 64,
              "velocity": 34,
              "position": 13.008333,
              "duration": 0.008333
            },
            {
              "pitch": 59,
              "velocity": 76,
              "position": 13.016667,
              "duration": 0.483333
            },
            {
              "pitch": 64,
              "velocity": 74,
              "position": 13.025,
              "duration": 0.716667
            },
            {
              "pitch": 64,
              "velocity": 59,
              "position": 13.766667,
              "duration": 2.191667
            },
            {
              "pitch": 59,
              "velocity": 47,
              "position": 13.775,
              "duration": 0.475
            },
            {
              "pitch": 59,
              "velocity": 75,
              "position": 14.283333,
              "duration": 1.675
            },
            {
              "pitch": 55,
              "velocity": 31,
              "position": 14.3,
              "duration": 0.183333
            },
            {
              "pitch": 48,
              "velocity": 68,
              "position": 14.475,
              "duration": 1.483333
            },
            {
              "pitch": 55,
              "velocity": 61,
              "position": 14.491667,
              "duration": 1.466667
            }
          ]
        },
        "13": {
          "ctab": {
            "srcChannel": 13,
            "name": "Strings",
            "accType": "PAD",
            "editable": true,
            "mutedNotes": [],
            "mutedChords": [],
            "sourceChordNote": 0,
            "sourceChordType": "Maj7",
            "ctb2Main": {
              "ntr": "ROOT_FIXED",
              "ntt": "MELODY",
              "bassOn": false,
              "noteLowLimit": 36,
              "noteHighLimit": 96,
              "chordRootUpperLimit": 127,
              "rtr": "PITCH_SHIFT"
            }
          },
          "notes": [
            {
              "pitch": 48,
              "velocity": 88,
              "position": 0.008333,
              "duration": 0.5
            },
            {
              "pitch": 48,
              "velocity": 75,
              "position": 0.516667,
              "duration": 1.441667
            },
            {
              "pitch": 59,
              "velocity": 42,
              "position": 0.991667,
              "duration": 0.025
            },
            {
              "pitch": 55,
              "velocity": 97,
              "position": 1.008333,
              "duration": 0.95
            },
            {
              "pitch": 64,
              "velocity": 68,
              "position": 1.016667,
              "duration": 0.008333
            },
            {
              "pitch": 64,
              "velocity": 87,
              "position": 1.033333,
              "duration": 0.925
            },
            {
              "pitch": 59,
              "velocity": 106,
              "position": 1.066667,
              "duration": 0.891667
            },
            {
              "pitch": 48,
              "velocity": 70,
              "position": 2.0,
              "duration": 0.916667
            },
            {
              "pitch": 55,
              "velocity": 67,
              "position": 2.0,
              "duration": 0.958333
            },
            {
              "pitch": 59,
              "velocity": 82,
              "position": 2.0,
              "duration": 0.975
            },
            {
              "pitch": 64,
              "velocity": 72,
              "position": 2.0,
              "duration": 0.991667
            },
            {
              "pitch": 48,
              "velocity": 44,
              "position": 2.925,
              "duration": 1.075
            },
            {
              "pitch": 55,
              "velocity": 62,
              "position": 2.958333,
              "duration": 1.041667
            },
            {
              "pitch": 59,
              "velocity": 87,
              "position": 2.983333,
              "duration": 1.016667
            },
            {
              "pitch": 64,
              "velocity": 82,
              "position": 3.0,
              "duration": 0.95
            },
            {
              "pitch": 48,
              "velocity": 70,
              "position": 4.0,
              "duration": 0.916667
            },
            {
              "pitch": 55,
              "velocity": 67,
              "position": 4.0,
              "duration": 0.958333
            },
            {
              "pitch": 59,
              "velocity": 82,
              "position": 4.0,
              "duration": 0.975
            },
            {
              "pitch": 64,
              "velocity": 72,
              "position": 4.0,
              "duration": 0.991667
            },
            {
              "pitch": 48,
              "velocity": 44,
              "position": 4.925,
              "duration": 1.075
            },
            {
              "pitch": 55,
              "velocity": 62,
              "position": 4.958333,
              "duration": 1.041667
            },
            {
              "pitch": 59,
              "velocity": 87,
              "position": 4.983333,
              "duration": 1.016667
            },
            {
              "pitch": 64,
              "velocity": 82,
              "position": 5.0,
              "duration": 0.95
            },
            {
              "pitch": 48,
              "velocity": 80,
              "position": 6.0,
              "duration": 1.975
            },
            {
              "pitch": 55,
              "velocity": 71,
              "position": 6.0,
              "duration": 1.95
            },
            {
              "pitch": 64,
              "velocity": 31,
              "position": 6.0,
              "duration": 0.008333
            },
            {
              "pitch": 59,
              "velocity": 101,
              "position": 6.008333,
              "duration": 1.933333
            },
            {
              "pitch": 64,
              "velocity": 87,
              "position": 6.008333,
              "duration": 1.925
            },
            {
              "pitch": 48,
              "velocity": 85,
              "position": 8.0,
              "duration": 4.008333
            },
            {
              "pitch": 55,
              "velocity": 75,
              "position": 8.0,
              "duration": 0.991667
            },
            {
              "pitch": 59,
              "velocity": 76,
              "position": 8.008333,
              "duration": 0.975
            },
            {
              "pitch": 59,
              "velocity": 49,
              "position": 8.991667,
              "duration": 0.008333
            },
            {
              "pitch": 55,
              "velocity": 75,
              "position": 9.0,
              "duration": 2.808333
            },
            {
              "pitch": 64,
              "velocity": 69,
              "position": 9.008333,
              "duration": 0.008333
            },
            {
              "pitch": 59,
              "velocity": 98,
              "position": 9.016667,
              "duration": 2.758333
            },
            {
              "pitch": 64,
              "velocity": 90,
              "position": 9.025,
              "duration": 3.3
            },
            {
              "pitch": 55,
              "velocity": 35,
              "position": 11.816667,
              "duration": 0.166667
            },
            {
              "pitch": 59,
              "velocity": 85,
              "position": 11.816667,
              "duration": 0.416667
            },
            {
              "pitch": 48,
              "velocity": 80,
              "position": 12.016667,
              "duration": 0.375
            },
            {
              "pitch": 48,
              "velocity": 66,
              "position": 12.5,
              "duration": 3.458333
            },
            {
              "pitch": 55,
              "velocity": 71,
              "position": 13.008333,
              "duration": 2.95
            },
            {
              "pitch": 64,
              "velocity": 31,
              "position": 13.016667,
              "duration": 0.008333
            },
            {
              "pitch": 59,
              "velocity": 101,
              "position": 13.025,
              "duration": 2.933333
            },
            {
              "pitch": 64,
              "velocity": 87,
              "position": 13.033333,
              "duration": 2.925
            }
          ]
        }
      }
    },
    "Main_D": {
      "type": "Main_D",
      "sizeInBeats": 16,
      "channels": {
        "9": {
          "ctab": {
            "srcChannel": 9,
            "name": "Drums",
            "accType": "RHYTHM",
            "editable": false,
            "mutedNotes": [],
            "mutedChords": [],
            "sourceChordNote": 0,
            "sourceChordType": "Maj",
            "ctb2Main": {
              "ntr": "ROOT_FIXED",
              "ntt": "BYPASS",
              "bassOn": false,
              "noteLowLimit": 20,
              "noteHighLimit": 127,
              "chordRootUpperLimit": 127,
              "rtr": "RETRIGGER"
            }
          },
          "notes": [
            {
              "pitch": 36,
              "velocity": 127,
              "position": 0.0,
              "duration": 0.075
            },
            {
              "pitch": 42,
              "velocity": 52,
              "position": 0.0,
              "duration": 0.075
            },
            {
              "pitch": 49,
              "velocity": 127,
              "position": 0.0,
              "duration": 0.075
            },
            {
              "pitch": 57,
              "velocity": 127,
              "position": 0.0,
              "duration": 0.075
            },
            {
              "pitch": 49,
              "velocity": 24,
              "position": 0.166667,
              "duration": 0.075
            },
            {
              "pitch": 42,
              "velocity": 92,
              "position": 0.5,
              "duration": 0.075
            },
            {
              "pitch": 40,
              "velocity": 127,
              "position": 1.0,
              "duration": 0.075
            },
            {
              "pitch": 42,
              "velocity": 127,
              "position": 1.0,
              "duration": 0.075
            },
            {
              "pitch": 42,
              "velocity": 81,
              "position": 1.5,
              "duration": 0.075
            },
            {
              "pitch": 40,
              "velocity": 81,
              "position": 1.833333,
              "duration": 0.075
            },
            {
              "pitch": 36,
              "velocity": 101,
              "position": 2.0,
              "duration": 0.075
            },
            {
              "pitch": 42,
              "velocity": 127,
              "position": 2.0,
              "duration": 0.075
            },
            {
              "pitch": 36,
              "velocity": 118,
              "position": 2.5,
              "duration": 0.075
            },
            {
              "pitch": 42,
              "velocity": 127,
              "position": 2.5,
              "duration": 0.075
            },
            {
              "pitch": 40,
              "velocity": 127,
              "position": 3.0,
              "duration": 0.075
            },
            {
              "pitch": 42,
              "velocity": 127,
              "position": 3.0,
              "duration": 0.075
            },
            {
              "pitch": 42,
              "velocity": 127,
              "position": 3.5,
              "duration": 0.075
            },
            {
              "pitch": 36,
              "velocity": 116,
              "position": 4.0,
              "duration": 0.075
            },
            {
              "pitch": 42,
              "velocity": 82,
              "position": 4.0,
              "duration": 0.075
            },
            {
              "pitch": 42,
              "velocity": 126,
              "position": 4.5,
              "duration": 0.075
            },
            {
              "pitch": 36,
              "velocity": 92,
              "position": 4.833333,
              "duration": 0.075
            },
            {
              "pitch": 40,
              "velocity": 127,
              "position": 5.0,
              "duration": 0.075
            },
            {
              "pitch": 42,
              "velocity": 127,
              "position": 5.0,
              "duration": 0.075
            },
            {
              "pitch": 42,
              "velocity": 94,
              "position": 5.5,
              "duration": 0.075
            },
            {
              "pitch": 40,
              "velocity": 127,
              "position": 5.833333,
              "duration": 0.075
            },
            {
              "pitch": 42,
              "velocity": 121,
              "position": 6.0,
              "duration": 0.075
            },
            {
              "pitch": 45,
              "velocity": 33,
              "position": 6.333333,
              "duration": 0.075
            },
            {
              "pitch": 48,
              "velocity": 127,
              "position": 6.333333,
              "duration": 0.075
            },
            {
              "pitch": 42,
              "velocity": 127,
              "position": 6.5,
              "duration": 0.075
            },
            {
              "pitch": 40,
              "velocity": 127,
              "position": 6.833333,
              "duration": 0.075
            },
            {
              "pitch": 36,
              "velocity": 86,
              "position": 7.0,
              "duration": 0.075
            },
            {
              "pitch": 40,
              "velocity": 127,
              "position": 7.0,
              "duration": 0.075
            },
            {
              "pitch": 40,
              "velocity": 127,
              "position": 7.333333,
              "duration": 0.075
            },
            {
              "pitch": 45,
              "velocity": 127,
              "position": 7.5,
              "duration": 0.075
            },
            {
              "pitch": 36,
              "velocity": 68,
              "position": 7.833333,
              "duration": 0.075
            },
            {
              "pitch": 36,
              "velocity": 109,
              "position": 8.0,
              "duration": 0.075
            },
            {
              "pitch": 42,
              "velocity": 123,
              "position": 8.0,
              "duration": 0.075
            },
            {
              "pitch": 42,
              "velocity": 127,
              "position": 8.5,
              "duration": 0.075
            },
            {
              "pitch": 40,
              "velocity": 127,
              "position": 9.0,
              "duration": 0.075
            },
            {
              "pitch": 42,
              "velocity": 127,
              "position": 9.0,
              "duration": 0.075
            },
            {
              "pitch": 42,
              "velocity": 84,
              "position": 9.5,
              "duration": 0.075
            },
            {
              "pitch": 40,
              "velocity": 39,
              "position": 9.833333,
              "duration": 0.075
            },
            {
              "pitch": 36,
              "velocity": 99,
              "position": 10.0,
              "duration": 0.075
            },
            {
              "pitch": 42,
              "velocity": 127,
              "position": 10.0,
              "duration": 0.075
            },
            {
              "pitch": 36,
              "velocity": 112,
              "position": 10.5,
              "duration": 0.075
            },
            {
              "pitch": 42,
              "velocity": 127,
              "position": 10.5,
              "duration": 0.075
            },
            {
              "pitch": 40,
              "velocity": 127,
              "position": 11.0,
              "duration": 0.075
            },
            {
              "pitch": 42,
              "velocity": 127,
              "position": 11.0,
              "duration": 0.075
            },
            {
              "pitch": 40,
              "velocity": 127,
              "position": 11.333333,
              "duration": 0.075
            },
            {
              "pitch": 42,
              "velocity": 116,
              "position": 11.5,
              "duration": 0.075
            },
            {
              "pitch": 36,
              "velocity": 116,
              "position": 12.0,
              "duration": 0.075
            },
            {
              "pitch": 42,
              "velocity": 82,
              "position": 12.0,
              "duration": 0.075
            },
            {
              "pitch": 42,
              "velocity": 126,
              "position": 12.5,
              "duration": 0.075
            },
            {
              "pitch": 36,
              "velocity": 92,
              "position": 12.833333,
              "duration": 0.075
            },
            {
              "pitch": 40,
              "velocity": 127,
              "position": 13.0,
              "duration": 0.075
            },
            {
              "pitch": 42,
              "velocity": 127,
              "position": 13.0,
              "duration": 0.075
            },
            {
              "pitch": 42,
              "velocity": 94,
              "position": 13.5,
              "duration": 0.075
            },
            {
              "pitch": 40,
              "velocity": 127,
              "position": 13.833333,
              "duration": 0.075
            },
            {
              "pitch": 42,
              "velocity": 121,
              "position": 14.0,
              "duration": 0.075
            },
            {
              "pitch": 45,
              "velocity": 33,
              "position": 14.333333,
              "duration": 0.075
            },
            {
              "pitch": 48,
              "velocity": 127,
              "position": 14.333333,
              "duration": 0.075
            },
            {
              "pitch": 42,
              "velocity": 127,
              "position": 14.5,
              "duration": 0.075
            },
            {
              "pitch": 40,
              "velocity": 127,
              "position": 14.833333,
              "duration": 0.075
            },
            {
              "pitch": 36,
              "velocity": 86,
              "position": 15.0,
              "duration": 0.075
            },
            {
              "pitch": 40,
              "velocity": 127,
              "position": 15.0,
              "duration": 0.075
            },
            {
              "pitch": 40,
              "velocity": 127,
              "position": 15.333333,
              "duration": 0.075
            },
            {
              "pitch": 45,
              "velocity": 127,
              "position": 15.5,
              "duration": 0.075
            },
            {
              "pitch": 36,
              "velocity": 68,
              "position": 15.833333,
              "duration": 0.075
            }
          ]
        },
        "10": {
          "ctab": {
            "srcChannel": 10,
            "name": "Bass",
            "accType": "BASS",
            "editable": true,
            "mutedNotes": [],
            "mutedChords": [],
            "sourceChordNote": 0,
            "sourceChordType": "Maj7",
            "ctb2Main": {
              "ntr": "ROOT_TRANSPOSITION",
              "ntt": "BYPASS",
              "bassOn": true,
              "noteLowLimit": 20,
              "noteHighLimit": 60,
              "chordRootUpperLimit": 127,
              "rtr": "NOTE_GENERATOR"
            }
          },
          "notes": [
            {
              "pitch": 36,
              "velocity": 85,
              "position": 0.016667,
              "duration": 1.008333
            },
            {
              "pitch": 36,
              "velocity": 95,
              "position": 1.033333,
              "duration": 0.933333
            },
            {
              "pitch": 36,
              "velocity": 94,
              "position": 2.041667,
              "duration": 0.883333
            },
            {
              "pitch": 40,
              "velocity": 82,
              "position": 3.033333,
              "duration": 0.233333
            },
            {
              "pitch": 43,
              "velocity": 49,
              "position": 3.316667,
              "duration": 0.158333
            },
            {
              "pitch": 47,
              "velocity": 69,
              "position": 3.508333,
              "duration": 0.241667
            },
            {
              "pitch": 36,
              "velocity": 83,
              "position": 4.0,
              "duration": 0.216667
            },
            {
              "pitch": 36,
              "velocity": 94,
              "position": 4.491667,
              "duration": 1.5
            },
            {
              "pitch": 36,
              "velocity": 91,
              "position": 6.0,
              "duration": 1.958333
            },
            {
              "pitch": 36,
              "velocity": 91,
              "position": 8.0,
              "duration": 0.208333
            },
            {
              "pitch": 36,
              "velocity": 90,
              "position": 8.508333,
              "duration": 3.116667
            },
            {
              "pitch": 31,
              "velocity": 57,
              "position": 11.841667,
              "duration": 0.116667
            },
            {
              "pitch": 36,
              "velocity": 70,
              "position": 12.05,
              "duration": 0.183333
            },
            {
              "pitch": 36,
              "velocity": 93,
              "position": 12.508333,
              "duration": 2.816667
            },
            {
              "pitch": 31,
              "velocity": 73,
              "position": 15.491667,
              "duration": 0.125
            }
          ]
        },
        "11": {
          "ctab": {
            "srcChannel": 11,
            "name": "Piano",
            "accType": "CHORD1",
            "editable": true,
            "mutedNotes": [],
            "mutedChords": [],
            "sourceChordNote": 0,
            "sourceChordType": "Maj7",
            "ctb2Main": {
              "ntr": "ROOT_FIXED",
              "ntt": "CHORD",
              "bassOn": false,
              "noteLowLimit": 48,
              "noteHighLimit": 84,
              "chordRootUpperLimit": 127,
              "rtr": "NOTE_GENERATOR"
            }
          },
          "notes": [
            {
              "pitch": 36,
              "velocity": 86,
              "position": 0.0,
              "duration": 0.091667
            },
            {
              "pitch": 36,
              "velocity": 88,
              "position": 0.491667,
              "duration": 1.066667
            },
            {
              "pitch": 48,
              "velocity": 91,
              "position": 0.5,
              "duration": 0.65
            },
            {
              "pitch": 55,
              "velocity": 92,
              "position": 1.016667,
              "duration": 0.583333
            },
            {
              "pitch": 59,
              "velocity": 93,
              "position": 1.016667,
              "duration": 0.941667
            },
            {
              "pitch": 64,
              "velocity": 89,
              "position": 1.025,
              "duration": 0.933333
            },
            {
              "pitch": 67,
              "velocity": 89,
              "position": 1.025,
              "duration": 0.933333
            },
            {
              "pitch": 55,
              "velocity": 70,
              "position": 1.8,
              "duration": 0.158333
            },
            {
              "pitch": 36,
              "velocity": 91,
              "position": 2.0,
              "duration": 1.958333
            },
            {
              "pitch": 48,
              "velocity": 93,
              "position": 2.0,
              "duration": 1.958333
            },
            {
              "pitch": 59,
              "velocity": 95,
              "position": 2.0,
              "duration": 1.958333
            },
            {
              "pitch": 60,
              "velocity": 89,
              "position": 2.0,
              "duration": 1.958333
            },
            {
              "pitch": 64,
              "velocity": 80,
              "position": 2.0,
              "duration": 1.958333
            },
            {
              "pitch": 67,
              "velocity": 92,
              "position": 2.0,
              "duration": 1.958333
            },
            {
              "pitch": 36,
              "velocity": 89,
              "position": 4.0,
              "duration": 0.208333
            },
            {
              "pitch": 60,
              "velocity": 89,
              "position": 4.0,
              "duration": 0.241667
            },
            {
              "pitch": 60,
              "velocity": 88,
              "position": 4.3,
              "duration": 0.075
            },
            {
              "pitch": 64,
              "velocity": 76,
              "position": 4.3,
              "duration": 0.1
            },
            {
              "pitch": 67,
              "velocity": 78,
              "position": 4.308333,
              "duration": 0.1
            },
            {
              "pitch": 36,
              "velocity": 90,
              "position": 4.491667,
              "duration": 1.283333
            },
            {
              "pitch": 48,
              "velocity": 92,
              "position": 4.491667,
              "duration": 0.541667
            },
            {
              "pitch": 64,
              "velocity": 84,
              "position": 4.983333,
              "duration": 0.608333
            },
            {
              "pitch": 71,
              "velocity": 84,
              "position": 4.983333,
              "duration": 0.558333
            },
            {
              "pitch": 67,
              "velocity": 87,
              "position": 4.991667,
              "duration": 0.558333
            },
            {
              "pitch": 74,
              "velocity": 86,
              "position": 4.991667,
              "duration": 0.525
            },
            {
              "pitch": 60,
              "velocity": 74,
              "position": 5.0,
              "duration": 0.166667
            },
            {
              "pitch": 48,
              "velocity": 80,
              "position": 5.291667,
              "duration": 0.183333
            },
            {
              "pitch": 60,
              "velocity": 92,
              "position": 5.458333,
              "duration": 0.391667
            },
            {
              "pitch": 36,
              "velocity": 89,
              "position": 6.0,
              "duration": 0.308333
            },
            {
              "pitch": 48,
              "velocity": 86,
              "position": 6.0,
              "duration": 0.191667
            },
            {
              "pitch": 60,
              "velocity": 89,
              "position": 6.3,
              "duration": 0.066667
            },
            {
              "pitch": 64,
              "velocity": 72,
              "position": 6.316667,
              "duration": 0.05
            },
            {
              "pitch": 36,
              "velocity": 87,
              "position": 6.491667,
              "duration": 1.108333
            },
            {
              "pitch": 48,
              "velocity": 91,
              "position": 6.491667,
              "duration": 0.575
            },
            {
              "pitch": 59,
              "velocity": 93,
              "position": 6.991667,
              "duration": 0.9
            },
            {
              "pitch": 67,
              "velocity": 91,
              "position": 6.991667,
              "duration": 0.966667
            },
            {
              "pitch": 64,
              "velocity": 89,
              "position": 7.0,
              "duration": 0.958333
            },
            {
              "pitch": 48,
              "velocity": 89,
              "position": 7.483333,
              "duration": 0.425
            },
            {
              "pitch": 55,
              "velocity": 89,
              "position": 7.5,
              "duration": 0.458333
            },
            {
              "pitch": 48,
              "velocity": 18,
              "position": 8.0,
              "duration": 0.058333
            },
            {
              "pitch": 59,
              "velocity": 93,
              "position": 8.0,
              "duration": 0.033333
            },
            {
              "pitch": 60,
              "velocity": 91,
              "position": 8.0,
              "duration": 0.05
            },
            {
              "pitch": 64,
              "velocity": 84,
              "position": 8.0,
              "duration": 0.058333
            },
            {
              "pitch": 36,
              "velocity": 89,
              "position": 8.008333,
              "duration": 1.75
            },
            {
              "pitch": 48,
              "velocity": 91,
              "position": 8.516667,
              "duration": 0.658333
            },
            {
              "pitch": 59,
              "velocity": 94,
              "position": 9.008333,
              "duration": 0.791667
            },
            {
              "pitch": 60,
              "velocity": 91,
              "position": 9.008333,
              "duration": 1.058333
            },
            {
              "pitch": 64,
              "velocity": 89,
              "position": 9.008333,
              "duration": 1.058333
            },
            {
              "pitch": 55,
              "velocity": 92,
              "position": 9.016667,
              "duration": 0.625
            },
            {
              "pitch": 55,
              "velocity": 80,
              "position": 9.808333,
              "duration": 0.241667
            },
            {
              "pitch": 48,
              "velocity": 86,
              "position": 9.991667,
              "duration": 0.2
            },
            {
              "pitch": 36,
              "velocity": 89,
              "position": 10.0,
              "duration": 0.308333
            },
            {
              "pitch": 60,
              "velocity": 89,
              "position": 10.3,
              "duration": 0.066667
            },
            {
              "pitch": 64,
              "velocity": 72,
              "position": 10.316667,
              "duration": 0.05
            },
            {
              "pitch": 36,
              "velocity": 87,
              "position": 10.491667,
              "duration": 1.108333
            },
            {
              "pitch": 48,
              "velocity": 91,
              "position": 10.491667,
              "duration": 0.575
            },
            {
              "pitch": 59,
              "velocity": 93,
              "position": 10.991667,
              "duration": 0.9
            },
            {
              "pitch": 67,
              "velocity": 91,
              "position": 10.991667,
              "duration": 1.066667
            },
            {
              "pitch": 64,
              "velocity": 89,
              "position": 11.0,
              "duration": 1.475
            },
            {
              "pitch": 48,
              "velocity": 89,
              "position": 11.483333,
              "duration": 0.425
            },
            {
              "pitch": 55,
              "velocity": 89,
              "position": 11.5,
              "duration": 0.533333
            },
            {
              "pitch": 36,
              "velocity": 89,
              "position": 12.0,
              "duration": 0.2
            },
            {
              "pitch": 59,
              "velocity": 87,
              "position": 12.0,
              "duration": 0.566667
            },
            {
              "pitch": 48,
              "velocity": 86,
              "position": 12.008333,
              "duration": 0.158333
            },
            {
              "pitch": 36,
              "velocity": 91,
              "position": 12.483333,
              "duration": 1.191667
            },
            {
              "pitch": 48,
              "velocity": 91,
              "position": 12.491667,
              "duration": 0.608333
            },
            {
              "pitch": 59,
              "velocity": 93,
              "position": 12.983333,
              "duration": 0.583333
            },
            {
              "pitch": 60,
              "velocity": 91,
              "position": 12.983333,
              "duration": 0.533333
            },
            {
              "pitch": 64,
              "velocity": 91,
              "position": 12.983333,
              "duration": 0.575
            },
            {
              "pitch": 55,
              "velocity": 92,
              "position": 12.991667,
              "duration": 0.75
            },
            {
              "pitch": 48,
              "velocity": 88,
              "position": 13.475,
              "duration": 0.75
            },
            {
              "pitch": 36,
              "velocity": 91,
              "position": 13.991667,
              "duration": 1.966667
            },
            {
              "pitch": 59,
              "velocity": 88,
              "position": 13.991667,
              "duration": 0.225
            },
            {
              "pitch": 55,
              "velocity": 68,
              "position": 14.008333,
              "duration": 0.191667
            },
            {
              "pitch": 64,
              "velocity": 78,
              "position": 14.008333,
              "duration": 0.25
            },
            {
              "pitch": 59,
              "velocity": 92,
              "position": 14.308333,
              "duration": 0.083333
            },
            {
              "pitch": 55,
              "velocity": 80,
              "position": 14.316667,
              "duration": 0.075
            },
            {
              "pitch": 64,
              "velocity": 76,
              "position": 14.316667,
              "duration": 0.108333
            },
            {
              "pitch": 48,
              "velocity": 89,
              "position": 14.483333,
              "duration": 1.475
            },
            {
              "pitch": 59,
              "velocity": 93,
              "position": 14.991667,
              "duration": 0.975
            },
            {
              "pitch": 55,
              "velocity": 91,
              "position": 15.0,
              "duration": 0.925
            },
            {
              "pitch": 64,
              "velocity": 90,
              "position": 15.0,
              "duration": 0.958333
            }
          ]
        },
        "12": {
          "ctab": {
            "srcChannel": 12,
            "name": "Guitar",
            "accType": "CHORD2",
            "editable": true,
            "mutedNotes": [],
            "mutedChords": [],
            "sourceChordNote": 0,
            "sourceChordType": "Maj7",
            "ctb2Main": {
              "ntr": "ROOT_FIXED",
              "ntt": "CHORD",
              "bassOn": false,
              "noteLowLimit": 40,
              "noteHighLimit": 76,
              "chordRootUpperLimit": 127,
              "rtr": "NOTE_GENERATOR"
            }
          },
          "notes": [
            {
              "pitch": 48,
              "velocity": 63,
              "position": 0.0,
              "duration": 0.983333
            },
            {
              "pitch": 55,
              "velocity": 68,
              "position": 0.016667,
              "duration": 0.991667
            },
            {
              "pitch": 59,
              "velocity": 85,
              "position": 0.033333,
              "duration": 0.991667
            },
            {
              "pitch": 64,
              "velocity": 66,
              "position": 0.05,
              "duration": 0.991667
            },
            {
              "pitch": 48,
              "velocity": 62,
              "position": 0.991667,
              "duration": 0.966667
            },
            {
              "pitch": 55,
              "velocity": 73,
              "position": 1.016667,
              "duration": 0.941667
            },
            {
              "pitch": 59,
              "velocity": 83,
              "position": 1.033333,
              "duration": 0.925
            },
            {
              "pitch": 64,
              "velocity": 59,
              "position": 1.05,
              "duration": 0.908333
            },
            {
              "pitch": 48,
              "velocity": 78,
              "position": 2.0,
              "duration": 1.958333
            },
            {
              "pitch": 64,
              "velocity": 71,
              "position": 2.316667,
              "duration": 1.641667
            },
            {
              "pitch": 59,
              "velocity": 62,
              "position": 2.533333,
              "duration": 1.425
            },
            {
              "pitch": 55,
              "velocity": 73,
              "position": 3.008333,
              "duration": 0.95
            },
            {
              "pitch": 48,
              "velocity": 80,
              "position": 4.008333,
              "duration": 1.95
            },
            {
              "pitch": 55,
              "velocity": 73,
              "position": 4.033333,
              "duration": 1.925
            },
            {
              "pitch": 59,
              "velocity": 78,
              "position": 4.05,
              "duration": 1.908333
            },
            {
              "pitch": 64,
              "velocity": 67,
              "position": 4.066667,
              "duration": 1.891667
            },
            {
              "pitch": 48,
              "velocity": 67,
              "position": 6.0,
              "duration": 0.55
            },
            {
              "pitch": 55,
              "velocity": 74,
              "position": 6.016667,
              "duration": 0.983333
            },
            {
              "pitch": 59,
              "velocity": 90,
              "position": 6.033333,
              "duration": 0.983333
            },
            {
              "pitch": 64,
              "velocity": 70,
              "position": 6.05,
              "duration": 0.216667
            },
            {
              "pitch": 64,
              "velocity": 63,
              "position": 6.308333,
              "duration": 0.716667
            },
            {
              "pitch": 48,
              "velocity": 60,
              "position": 6.566667,
              "duration": 0.425
            },
            {
              "pitch": 48,
              "velocity": 50,
              "position": 7.008333,
              "duration": 0.95
            },
            {
              "pitch": 55,
              "velocity": 67,
              "position": 7.016667,
              "duration": 0.941667
            },
            {
              "pitch": 59,
              "velocity": 87,
              "position": 7.025,
              "duration": 0.933333
            },
            {
              "pitch": 64,
              "velocity": 57,
              "position": 7.033333,
              "duration": 0.925
            },
            {
              "pitch": 48,
              "velocity": 88,
              "position": 8.0,
              "duration": 4.016667
            },
            {
              "pitch": 55,
              "velocity": 52,
              "position": 8.516667,
              "duration": 0.483333
            },
            {
              "pitch": 59,
              "velocity": 66,
              "position": 8.541667,
              "duration": 0.258333
            },
            {
              "pitch": 64,
              "velocity": 41,
              "position": 8.558333,
              "duration": 0.466667
            },
            {
              "pitch": 59,
              "velocity": 62,
              "position": 8.833333,
              "duration": 0.183333
            },
            {
              "pitch": 55,
              "velocity": 69,
              "position": 9.008333,
              "duration": 1.5
            },
            {
              "pitch": 59,
              "velocity": 89,
              "position": 9.025,
              "duration": 1.275
            },
            {
              "pitch": 64,
              "velocity": 84,
              "position": 9.033333,
              "duration": 0.75
            },
            {
              "pitch": 64,
              "velocity": 71,
              "position": 9.825,
              "duration": 1.175
            },
            {
              "pitch": 59,
              "velocity": 75,
              "position": 10.341667,
              "duration": 0.65
            },
            {
              "pitch": 55,
              "velocity": 51,
              "position": 10.525,
              "duration": 0.458333
            },
            {
              "pitch": 55,
              "velocity": 57,
              "position": 11.0,
              "duration": 1.5
            },
            {
              "pitch": 59,
              "velocity": 83,
              "position": 11.008333,
              "duration": 0.508333
            },
            {
              "pitch": 64,
              "velocity": 76,
              "position": 11.016667,
              "duration": 0.758333
            },
            {
              "pitch": 59,
              "velocity": 46,
              "position": 11.525,
              "duration": 0.291667
            },
            {
              "pitch": 64,
              "velocity": 64,
              "position": 11.808333,
              "duration": 1.191667
            },
            {
              "pitch": 59,
              "velocity": 43,
              "position": 11.825,
              "duration": 0.9
            },
            {
              "pitch": 48,
              "velocity": 82,
              "position": 12.033333,
              "duration": 2.425
            },
            {
              "pitch": 55,
              "velocity": 43,
              "position": 12.508333,
              "duration": 0.466667
            },
            {
              "pitch": 59,
              "velocity": 66,
              "position": 12.766667,
              "duration": 0.225
            },
            {
              "pitch": 55,
              "velocity": 41,
              "position": 12.983333,
              "duration": 1.308333
            },
            {
              "pitch": 59,
              "velocity": 85,
              "position": 13.0,
              "duration": 1.258333
            },
            {
              "pitch": 64,
              "velocity": 78,
              "position": 13.016667,
              "duration": 0.766667
            },
            {
              "pitch": 64,
              "velocity": 67,
              "position": 13.791667,
              "duration": 1.175
            },
            {
              "pitch": 59,
              "velocity": 61,
              "position": 14.275,
              "duration": 0.225
            },
            {
              "pitch": 55,
              "velocity": 33,
              "position": 14.3,
              "duration": 0.183333
            },
            {
              "pitch": 48,
              "velocity": 37,
              "position": 14.466667,
              "duration": 0.491667
            },
            {
              "pitch": 55,
              "velocity": 55,
              "position": 14.491667,
              "duration": 0.475
            },
            {
              "pitch": 59,
              "velocity": 59,
              "position": 14.508333,
              "duration": 0.466667
            },
            {
              "pitch": 48,
              "velocity": 67,
              "position": 14.966667,
              "duration": 0.991667
            },
            {
              "pitch": 55,
              "velocity": 82,
              "position": 14.975,
              "duration": 0.983333
            },
            {
              "pitch": 64,
              "velocity": 57,
              "position": 14.975,
              "duration": 0.016667
            },
            {
              "pitch": 59,
              "velocity": 93,
              "position": 14.991667,
              "duration": 0.841667
            },
            {
              "pitch": 64,
              "velocity": 58,
              "position": 15.0,
              "duration": 0.5
            },
            {
              "pitch": 64,
              "velocity": 37,
              "position": 15.516667,
              "duration": 0.3
            },
            {
              "pitch": 64,
              "velocity": 64,
              "position": 15.841667,
              "duration": 0.116667
            },
            {
              "pitch": 59,
              "velocity": 64,
              "position": 15.85,
              "duration": 0.108333
            }
          ]
        },
        "13": {
          "ctab": {
            "srcChannel": 13,
            "name": "Strings",
            "accType": "PAD",
            "editable": true,
            "mutedNotes": [],
            "mutedChords": [],
            "sourceChordNote": 0,
            "sourceChordType": "Maj7",
            "ctb2Main": {
              "ntr": "ROOT_FIXED",
              "ntt": "MELODY",
              "bassOn": false,
              "noteLowLimit": 36,
              "noteHighLimit": 96,
              "chordRootUpperLimit": 127,
              "rtr": "PITCH_SHIFT"
            }
          },
          "notes": [
            {
              "pitch": 48,
              "velocity": 80,
              "position": 0.0,
              "duration": 1.975
            },
            {
              "pitch": 55,
              "velocity": 71,
              "position": 0.0,
              "duration": 1.95
            },
            {
              "pitch": 64,
              "velocity": 31,
              "position": 0.0,
              "duration": 0.008333
            },
            {
              "pitch": 59,
              "velocity": 101,
              "position": 0.008333,
              "duration": 1.933333
            },
            {
              "pitch": 64,
              "velocity": 87,
              "position": 0.008333,
              "duration": 1.925
            },
            {
              "pitch": 48,
              "velocity": 73,
              "position": 2.0,
              "duration": 0.841667
            },
            {
              "pitch": 48,
              "velocity": 60,
              "position": 3.0,
              "duration": 0.95
            },
            {
              "pitch": 55,
              "velocity": 96,
              "position": 3.0,
              "duration": 0.941667
            },
            {
              "pitch": 64,
              "velocity": 62,
              "position": 3.0,
              "duration": 0.008333
            },
            {
              "pitch": 59,
              "velocity": 106,
              "position": 3.008333,
              "duration": 0.925
            },
            {
              "pitch": 64,
              "velocity": 87,
              "position": 3.008333,
              "duration": 0.916667
            },
            {
              "pitch": 48,
              "velocity": 59,
              "position": 4.0,
              "duration": 0.508333
            },
            {
              "pitch": 55,
              "velocity": 72,
              "position": 4.016667,
              "duration": 0.275
            },
            {
              "pitch": 59,
              "velocity": 91,
              "position": 4.033333,
              "duration": 0.225
            },
            {
              "pitch": 64,
              "velocity": 51,
              "position": 4.041667,
              "duration": 0.266667
            },
            {
              "pitch": 55,
              "velocity": 46,
              "position": 4.508333,
              "duration": 0.016667
            },
            {
              "pitch": 48,
              "velocity": 58,
              "position": 4.516667,
              "duration": 1.441667
            },
            {
              "pitch": 55,
              "velocity": 67,
              "position": 4.533333,
              "duration": 0.466667
            },
            {
              "pitch": 55,
              "velocity": 70,
              "position": 5.008333,
              "duration": 0.95
            },
            {
              "pitch": 59,
              "velocity": 92,
              "position": 5.025,
              "duration": 0.916667
            },
            {
              "pitch": 64,
              "velocity": 80,
              "position": 5.041667,
              "duration": 0.916667
            },
            {
              "pitch": 48,
              "velocity": 73,
              "position": 6.0,
              "duration": 0.841667
            },
            {
              "pitch": 48,
              "velocity": 60,
              "position": 7.0,
              "duration": 0.95
            },
            {
              "pitch": 55,
              "velocity": 96,
              "position": 7.0,
              "duration": 0.941667
            },
            {
              "pitch": 64,
              "velocity": 62,
              "position": 7.0,
              "duration": 0.008333
            },
            {
              "pitch": 59,
              "velocity": 106,
              "position": 7.008333,
              "duration": 0.925
            },
            {
              "pitch": 64,
              "velocity": 87,
              "position": 7.008333,
              "duration": 0.916667
            },
            {
              "pitch": 48,
              "velocity": 74,
              "position": 8.008333,
              "duration": 0.466667
            },
            {
              "pitch": 48,
              "velocity": 69,
              "position": 8.516667,
              "duration": 0.466667
            },
            {
              "pitch": 48,
              "velocity": 62,
              "position": 9.0,
              "duration": 3.008333
            },
            {
              "pitch": 55,
              "velocity": 84,
              "position": 9.008333,
              "duration": 3.3
            },
            {
              "pitch": 59,
              "velocity": 65,
              "position": 9.008333,
              "duration": 0.008333
            },
            {
              "pitch": 59,
              "velocity": 87,
              "position": 9.025,
              "duration": 2.783333
            },
            {
              "pitch": 64,
              "velocity": 51,
              "position": 9.025,
              "duration": 2.75
            },
            {
              "pitch": 59,
              "velocity": 63,
              "position": 11.816667,
              "duration": 0.491667
            },
            {
              "pitch": 64,
              "velocity": 84,
              "position": 11.816667,
              "duration": 0.508333
            },
            {
              "pitch": 48,
              "velocity": 73,
              "position": 12.025,
              "duration": 0.3
            },
            {
              "pitch": 48,
              "velocity": 71,
              "position": 12.5,
              "duration": 0.5
            },
            {
              "pitch": 48,
              "velocity": 60,
              "position": 13.008333,
              "duration": 2.95
            },
            {
              "pitch": 55,
              "velocity": 96,
              "position": 13.016667,
              "duration": 2.941667
            },
            {
              "pitch": 64,
              "velocity": 62,
              "position": 13.025,
              "duration": 0.008333
            },
            {
              "pitch": 59,
              "velocity": 106,
              "position": 13.033333,
              "duration": 2.925
            },
            {
              "pitch": 64,
              "velocity": 87,
              "position": 13.041667,
              "duration": 2.916667
            }
          ]
        }
      }
    },
    "Fill_In_AA": {
      "type": "Fill_In_AA",
      "sizeInBeats": 16,
      "channels": {
        "9": {
          "ctab": {
            "srcChannel": 9,
            "name": "Drums",
            "accType": "RHYTHM",
            "editable": false,
            "mutedNotes": [],
            "mutedChords": [],
            "sourceChordNote": 0,
            "sourceChordType": "Maj",
            "ctb2Main": {
              "ntr": "ROOT_FIXED",
              "ntt": "BYPASS",
              "bassOn": false,
              "noteLowLimit": 20,
              "noteHighLimit": 127,
              "chordRootUpperLimit": 127,
              "rtr": "RETRIGGER"
            }
          },
          "notes": [
            {
              "pitch": 36,
              "velocity": 127,
              "position": 0.0,
              "duration": 0.075
            },
            {
              "pitch": 42,
              "velocity": 52,
              "position": 0.0,
              "duration": 0.075
            },
            {
              "pitch": 49,
              "velocity": 127,
              "position": 0.0,
              "duration": 0.075
            },
            {
              "pitch": 57,
              "velocity": 127,
              "position": 0.0,
              "duration": 0.075
            },
            {
              "pitch": 49,
              "velocity": 24,
              "position": 0.166667,
              "duration": 0.075
            },
            {
              "pitch": 42,
              "velocity": 92,
              "position": 0.5,
              "duration": 0.075
            },
            {
              "pitch": 40,
              "velocity": 127,
              "position": 1.0,
              "duration": 0.075
            },
            {
              "pitch": 42,
              "velocity": 127,
              "position": 1.0,
              "duration": 0.075
            },
            {
              "pitch": 42,
              "velocity": 81,
              "position": 1.5,
              "duration": 0.075
            },
            {
              "pitch": 40,
              "velocity": 81,
              "position": 1.833333,
              "duration": 0.075
            },
            {
              "pitch": 36,
              "velocity": 101,
              "position": 2.0,
              "duration": 0.075
            },
            {
              "pitch": 42,
              "velocity": 127,
              "position": 2.0,
              "duration": 0.075
            },
            {
              "pitch": 36,
              "velocity": 118,
              "position": 2.5,
              "duration": 0.075
            },
            {
              "pitch": 42,
              "velocity": 127,
              "position": 2.5,
              "duration": 0.075
            },
            {
              "pitch": 40,
              "velocity": 127,
              "position": 3.0,
              "duration": 0.075
            },
            {
              "pitch": 42,
              "velocity": 127,
              "position": 3.0,
              "duration": 0.075
            },
            {
              "pitch": 42,
              "velocity": 127,
              "position": 3.5,
              "duration": 0.075
            },
            {
              "pitch": 36,
              "velocity": 116,
              "position": 4.0,
              "duration": 0.075
            },
            {
              "pitch": 42,
              "velocity": 82,
              "position": 4.0,
              "duration": 0.075
            },
            {
              "pitch": 42,
              "velocity": 126,
              "position": 4.5,
              "duration": 0.075
            },
            {
              "pitch": 36,
              "velocity": 92,
              "position": 4.833333,
              "duration": 0.075
            },
            {
              "pitch": 40,
              "velocity": 127,
              "position": 5.0,
              "duration": 0.075
            },
            {
              "pitch": 42,
              "velocity": 127,
              "position": 5.0,
              "duration": 0.075
            },
            {
              "pitch": 42,
              "velocity": 94,
              "position": 5.5,
              "duration": 0.075
            },
            {
              "pitch": 40,
              "velocity": 127,
              "position": 5.833333,
              "duration": 0.075
            },
            {
              "pitch": 42,
              "velocity": 121,
              "position": 6.0,
              "duration": 0.075
            },
            {
              "pitch": 45,
              "velocity": 33,
              "position": 6.333333,
              "duration": 0.075
            },
            {
              "pitch": 48,
              "velocity": 127,
              "position": 6.333333,
              "duration": 0.075
            },
            {
              "pitch": 42,
              "velocity": 127,
              "position": 6.5,
              "duration": 0.075
            },
            {
              "pitch": 40,
              "velocity": 127,
              "position": 6.833333,
              "duration": 0.075
            },
            {
              "pitch": 36,
              "velocity": 86,
              "position": 7.0,
              "duration": 0.075
            },
            {
              "pitch": 40,
              "velocity": 127,
              "position": 7.0,
              "duration": 0.075
            },
            {
              "pitch": 40,
              "velocity": 127,
              "position": 7.333333,
              "duration": 0.075
            },
            {
              "pitch": 45,
              "velocity": 127,
              "position": 7.5,
              "duration": 0.075
            },
            {
              "pitch": 36,
              "velocity": 68,
              "position": 7.833333,
              "duration": 0.075
            },
            {
              "pitch": 36,
              "velocity": 123,
              "position": 8.0,
              "duration": 0.075
            },
            {
              "pitch": 42,
              "velocity": 115,
              "position": 8.0,
              "duration": 0.4
            },
            {
              "pitch": 42,
              "velocity": 85,
              "position": 8.5,
              "duration": 0.075
            },
            {
              "pitch": 40,
              "velocity": 127,
              "position": 9.0,
              "duration": 0.075
            },
            {
              "pitch": 42,
              "velocity": 127,
              "position": 9.0,
              "duration": 0.075
            },
            {
              "pitch": 42,
              "velocity": 121,
              "position": 9.5,
              "duration": 0.075
            },
            {
              "pitch": 40,
              "velocity": 55,
              "position": 9.833333,
              "duration": 0.075
            },
            {
              "pitch": 36,
              "velocity": 32,
              "position": 10.0,
              "duration": 0.075
            },
            {
              "pitch": 42,
              "velocity": 127,
              "position": 10.0,
              "duration": 0.075
            },
            {
              "pitch": 36,
              "velocity": 127,
              "position": 10.5,
              "duration": 0.075
            },
            {
              "pitch": 42,
              "velocity": 89,
              "position": 10.5,
              "duration": 0.075
            },
            {
              "pitch": 40,
              "velocity": 127,
              "position": 11.0,
              "duration": 0.075
            },
            {
              "pitch": 42,
              "velocity": 127,
              "position": 11.0,
              "duration": 0.075
            },
            {
              "pitch": 42,
              "velocity": 127,
              "position": 11.5,
              "duration": 0.075
            },
            {
              "pitch": 36,
              "velocity": 116,
              "position": 12.0,
              "duration": 0.075
            },
            {
              "pitch": 42,
              "velocity": 82,
              "position": 12.0,
              "duration": 0.075
            },
            {
              "pitch": 42,
              "velocity": 126,
              "position": 12.5,
              "duration": 0.075
            },
            {
              "pitch": 36,
              "velocity": 92,
              "position": 12.833333,
              "duration": 0.075
            },
            {
              "pitch": 40,
              "velocity": 127,
              "position": 13.0,
              "duration": 0.075
            },
            {
              "pitch": 42,
              "velocity": 127,
              "position": 13.0,
              "duration": 0.075
            },
            {
              "pitch": 42,
              "velocity": 94,
              "position": 13.5,
              "duration": 0.075
            },
            {
              "pitch": 40,
              "velocity": 127,
              "position": 13.833333,
              "duration": 0.075
            },
            {
              "pitch": 42,
              "velocity": 121,
              "position": 14.0,
              "duration": 0.075
            },
            {
              "pitch": 45,
              "velocity": 33,
              "position": 14.333333,
              "duration": 0.075
            },
            {
              "pitch": 48,
              "velocity": 127,
              "position": 14.333333,
              "duration": 0.075
            },
            {
              "pitch": 42,
              "velocity": 127,
              "position": 14.5,
              "duration": 0.075
            },
            {
              "pitch": 40,
              "velocity": 127,
              "position": 14.833333,
              "duration": 0.075
            },
            {
              "pitch": 36,
              "velocity": 86,
              "position": 15.0,
              "duration": 0.075
            },
            {
              "pitch": 40,
              "velocity": 127,
              "position": 15.0,
              "duration": 0.075
            },
            {
              "pitch": 40,
              "velocity": 127,
              "position": 15.333333,
              "duration": 0.075
            },
            {
              "pitch": 45,
              "velocity": 127,
              "position": 15.5,
              "duration": 0.075
            },
            {
              "pitch": 36,
              "velocity": 68,
              "position": 15.833333,
              "duration": 0.075
            }
          ]
        },
        "10": {
          "ctab": {
            "srcChannel": 10,
            "name": "Bass",
            "accType": "BASS",
            "editable": true,
            "mutedNotes": [],
            "mutedChords": [],
            "sourceChordNote": 0,
            "sourceChordType": "Maj7",
            "ctb2Main": {
              "ntr": "ROOT_TRANSPOSITION",
              "ntt": "BYPASS",
              "bassOn": true,
              "noteLowLimit": 20,
              "noteHighLimit": 60,
              "chordRootUpperLimit": 127,
              "rtr": "NOTE_GENERATOR"
            }
          },
          "notes": [
            {
              "pitch": 36,
              "velocity": 85,
              "position": 0.016667,
              "duration": 1.008333
            },
            {
              "pitch": 36,
              "velocity": 95,
              "position": 1.033333,
              "duration": 0.933333
            },
            {
              "pitch": 36,
              "velocity": 94,
              "position": 2.041667,
              "duration": 0.883333
            },
            {
              "pitch": 40,
              "velocity": 82,
              "position": 3.033333,
              "duration": 0.233333
            },
            {
              "pitch": 43,
              "velocity": 49,
              "position": 3.316667,
              "duration": 0.158333
            },
            {
              "pitch": 47,
              "velocity": 69,
              "position": 3.508333,
              "duration": 0.241667
            },
            {
              "pitch": 36,
              "velocity": 89,
              "position": 4.008333,
              "duration": 0.2
            },
            {
              "pitch": 36,
              "velocity": 85,
              "position": 4.508333,
              "duration": 1.475
            },
            {
              "pitch": 36,
              "velocity": 91,
              "position": 6.0,
              "duration": 1.958333
            },
            {
              "pitch": 36,
              "velocity": 91,
              "position": 8.0,
              "duration": 0.183333
            },
            {
              "pitch": 36,
              "velocity": 91,
              "position": 8.525,
              "duration": 3.466667
            },
            {
              "pitch": 36,
              "velocity": 89,
              "position": 12.0,
              "duration": 0.191667
            },
            {
              "pitch": 36,
              "velocity": 96,
              "position": 12.508333,
              "duration": 3.033333
            }
          ]
        },
        "11": {
          "ctab": {
            "srcChannel": 11,
            "name": "Piano",
            "accType": "CHORD1",
            "editable": true,
            "mutedNotes": [],
            "mutedChords": [],
            "sourceChordNote": 0,
            "sourceChordType": "Maj7",
            "ctb2Main": {
              "ntr": "ROOT_FIXED",
              "ntt": "CHORD",
              "bassOn": false,
              "noteLowLimit": 48,
              "noteHighLimit": 84,
              "chordRootUpperLimit": 127,
              "rtr": "NOTE_GENERATOR"
            }
          },
          "notes": [
            {
              "pitch": 36,
              "velocity": 89,
              "position": 0.0,
              "duration": 0.308333
            },
            {
              "pitch": 48,
              "velocity": 86,
              "position": 0.0,
              "duration": 0.191667
            },
            {
              "pitch": 60,
              "velocity": 89,
              "position": 0.3,
              "duration": 0.066667
            },
            {
              "pitch": 64,
              "velocity": 72,
              "position": 0.316667,
              "duration": 0.05
            },
            {
              "pitch": 36,
              "velocity": 87,
              "position": 0.491667,
              "duration": 1.108333
            },
            {
              "pitch": 48,
              "velocity": 91,
              "position": 0.491667,
              "duration": 0.575
            },
            {
              "pitch": 59,
              "velocity": 93,
              "position": 0.991667,
              "duration": 0.9
            },
            {
              "pitch": 67,
              "velocity": 91,
              "position": 0.991667,
              "duration": 0.966667
            },
            {
              "pitch": 64,
              "velocity": 89,
              "position": 1.0,
              "duration": 0.958333
            },
            {
              "pitch": 48,
              "velocity": 89,
              "position": 1.483333,
              "duration": 0.425
            },
            {
              "pitch": 55,
              "velocity": 89,
              "position": 1.5,
              "duration": 0.458333
            },
            {
              "pitch": 36,
              "velocity": 89,
              "position": 2.0,
              "duration": 0.308333
            },
            {
              "pitch": 48,
              "velocity": 86,
              "position": 2.0,
              "duration": 0.191667
            },
            {
              "pitch": 60,
              "velocity": 89,
              "position": 2.3,
              "duration": 0.066667
            },
            {
              "pitch": 64,
              "velocity": 72,
              "position": 2.316667,
              "duration": 0.05
            },
            {
              "pitch": 36,
              "velocity": 87,
              "position": 2.491667,
              "duration": 1.108333
            },
            {
              "pitch": 48,
              "velocity": 91,
              "position": 2.491667,
              "duration": 0.575
            },
            {
              "pitch": 59,
              "velocity": 93,
              "position": 2.991667,
              "duration": 0.9
            },
            {
              "pitch": 67,
              "velocity": 91,
              "position": 2.991667,
              "duration": 0.966667
            },
            {
              "pitch": 64,
              "velocity": 89,
              "position": 3.0,
              "duration": 0.958333
            },
            {
              "pitch": 48,
              "velocity": 89,
              "position": 3.483333,
              "duration": 0.425
            },
            {
              "pitch": 55,
              "velocity": 89,
              "position": 3.5,
              "duration": 0.458333
            },
            {
              "pitch": 48,
              "velocity": 91,
              "position": 4.016667,
              "duration": 0.208333
            },
            {
              "pitch": 36,
              "velocity": 91,
              "position": 4.025,
              "duration": 0.35
            },
            {
              "pitch": 60,
              "velocity": 90,
              "position": 4.025,
              "duration": 0.6
            },
            {
              "pitch": 64,
              "velocity": 89,
              "position": 4.025,
              "duration": 0.65
            },
            {
              "pitch": 67,
              "velocity": 89,
              "position": 4.033333,
              "duration": 0.55
            },
            {
              "pitch": 71,
              "velocity": 88,
              "position": 4.033333,
              "duration": 0.533333
            },
            {
              "pitch": 74,
              "velocity": 88,
              "position": 4.033333,
              "duration": 0.541667
            },
            {
              "pitch": 36,
              "velocity": 90,
              "position": 4.508333,
              "duration": 1.216667
            },
            {
              "pitch": 48,
              "velocity": 94,
              "position": 4.508333,
              "duration": 0.641667
            },
            {
              "pitch": 64,
              "velocity": 89,
              "position": 5.016667,
              "duration": 0.883333
            },
            {
              "pitch": 60,
              "velocity": 91,
              "position": 5.025,
              "duration": 0.541667
            },
            {
              "pitch": 67,
              "velocity": 89,
              "position": 5.025,
              "duration": 0.85
            },
            {
              "pitch": 71,
              "velocity": 87,
              "position": 5.025,
              "duration": 0.85
            },
            {
              "pitch": 74,
              "velocity": 88,
              "position": 5.033333,
              "duration": 0.808333
            },
            {
              "pitch": 48,
              "velocity": 62,
              "position": 5.483333,
              "duration": 0.45
            },
            {
              "pitch": 60,
              "velocity": 89,
              "position": 5.816667,
              "duration": 0.083333
            },
            {
              "pitch": 48,
              "velocity": 93,
              "position": 6.0,
              "duration": 1.958333
            },
            {
              "pitch": 55,
              "velocity": 90,
              "position": 6.0,
              "duration": 1.958333
            },
            {
              "pitch": 59,
              "velocity": 93,
              "position": 6.0,
              "duration": 1.958333
            },
            {
              "pitch": 64,
              "velocity": 90,
              "position": 6.0,
              "duration": 1.958333
            },
            {
              "pitch": 67,
              "velocity": 90,
              "position": 6.0,
              "duration": 1.958333
            },
            {
              "pitch": 36,
              "velocity": 92,
              "position": 6.008333,
              "duration": 1.95
            },
            {
              "pitch": 36,
              "velocity": 91,
              "position": 8.025,
              "duration": 1.75
            },
            {
              "pitch": 48,
              "velocity": 91,
              "position": 8.025,
              "duration": 1.066667
            },
            {
              "pitch": 60,
              "velocity": 92,
              "position": 8.033333,
              "duration": 0.883333
            },
            {
              "pitch": 74,
              "velocity": 91,
              "position": 8.033333,
              "duration": 0.791667
            },
            {
              "pitch": 60,
              "velocity": 90,
              "position": 9.041667,
              "duration": 0.616667
            },
            {
              "pitch": 74,
              "velocity": 91,
              "position": 9.041667,
              "duration": 0.85
            },
            {
              "pitch": 60,
              "velocity": 87,
              "position": 9.791667,
              "duration": 0.258333
            },
            {
              "pitch": 36,
              "velocity": 88,
              "position": 9.983333,
              "duration": 1.683333
            },
            {
              "pitch": 48,
              "velocity": 88,
              "position": 9.991667,
              "duration": 0.308333
            },
            {
              "pitch": 59,
              "velocity": 89,
              "position": 10.3,
              "duration": 0.058333
            },
            {
              "pitch": 64,
              "velocity": 56,
              "position": 10.316667,
              "duration": 0.05
            },
            {
              "pitch": 67,
              "velocity": 74,
              "position": 10.316667,
              "duration": 0.066667
            },
            {
              "pitch": 48,
              "velocity": 76,
              "position": 10.491667,
              "duration": 0.616667
            },
            {
              "pitch": 59,
              "velocity": 94,
              "position": 11.008333,
              "duration": 0.608333
            },
            {
              "pitch": 67,
              "velocity": 91,
              "position": 11.008333,
              "duration": 0.541667
            },
            {
              "pitch": 64,
              "velocity": 89,
              "position": 11.016667,
              "duration": 0.95
            },
            {
              "pitch": 48,
              "velocity": 78,
              "position": 11.525,
              "duration": 1.541667
            },
            {
              "pitch": 60,
              "velocity": 91,
              "position": 12.025,
              "duration": 0.875
            },
            {
              "pitch": 64,
              "velocity": 80,
              "position": 12.025,
              "duration": 0.891667
            },
            {
              "pitch": 71,
              "velocity": 89,
              "position": 12.025,
              "duration": 0.866667
            },
            {
              "pitch": 36,
              "velocity": 91,
              "position": 12.033333,
              "duration": 1.541667
            },
            {
              "pitch": 67,
              "velocity": 89,
              "position": 12.033333,
              "duration": 0.875
            },
            {
              "pitch": 60,
              "velocity": 88,
              "position": 12.991667,
              "duration": 0.658333
            },
            {
              "pitch": 71,
              "velocity": 89,
              "position": 12.991667,
              "duration": 0.858333
            },
            {
              "pitch": 64,
              "velocity": 89,
              "position": 13.0,
              "duration": 0.891667
            },
            {
              "pitch": 67,
              "velocity": 90,
              "position": 13.0,
              "duration": 0.841667
            },
            {
              "pitch": 48,
              "velocity": 80,
              "position": 13.491667,
              "duration": 0.8
            },
            {
              "pitch": 60,
              "velocity": 74,
              "position": 13.825,
              "duration": 0.133333
            },
            {
              "pitch": 36,
              "velocity": 89,
              "position": 14.008333,
              "duration": 1.783333
            },
            {
              "pitch": 60,
              "velocity": 91,
              "position": 14.325,
              "duration": 0.075
            },
            {
              "pitch": 74,
              "velocity": 91,
              "position": 14.325,
              "duration": 0.108333
            },
            {
              "pitch": 48,
              "velocity": 86,
              "position": 14.5,
              "duration": 1.283333
            },
            {
              "pitch": 60,
              "velocity": 91,
              "position": 15.016667,
              "duration": 0.691667
            },
            {
              "pitch": 74,
              "velocity": 91,
              "position": 15.016667,
              "duration": 0.75
            }
          ]
        },
        "12": {
          "ctab": {
            "srcChannel": 12,
            "name": "Guitar",
            "accType": "CHORD2",
            "editable": true,
            "mutedNotes": [],
            "mutedChords": [],
            "sourceChordNote": 0,
            "sourceChordType": "Maj7",
            "ctb2Main": {
              "ntr": "ROOT_FIXED",
              "ntt": "CHORD",
              "bassOn": false,
              "noteLowLimit": 40,
              "noteHighLimit": 76,
              "chordRootUpperLimit": 127,
              "rtr": "NOTE_GENERATOR"
            }
          },
          "notes": [
            {
              "pitch": 48,
              "velocity": 67,
              "position": 0.0,
              "duration": 0.55
            },
            {
              "pitch": 55,
              "velocity": 74,
              "position": 0.016667,
              "duration": 0.983333
            },
            {
              "pitch": 59,
              "velocity": 90,
              "position": 0.033333,
              "duration": 0.983333
            },
            {
              "pitch": 64,
              "velocity": 70,
              "position": 0.05,
              "duration": 0.216667
            },
            {
              "pitch": 64,
              "velocity": 63,
              "position": 0.308333,
              "duration": 0.716667
            },
            {
              "pitch": 48,
              "velocity": 60,
              "position": 0.566667,
              "duration": 0.425
            },
            {
              "pitch": 48,
              "velocity": 50,
              "position": 1.008333,
              "duration": 0.95
            },
            {
              "pitch": 55,
              "velocity": 67,
              "position": 1.016667,
              "duration": 0.941667
            },
            {
              "pitch": 59,
              "velocity": 87,
              "position": 1.025,
              "duration": 0.933333
            },
            {
              "pitch": 64,
              "velocity": 57,
              "position": 1.033333,
              "duration": 0.925
            },
            {
              "pitch": 48,
              "velocity": 67,
              "position": 2.0,
              "duration": 0.55
            },
            {
              "pitch": 55,
              "velocity": 74,
              "position": 2.016667,
              "duration": 0.983333
            },
            {
              "pitch": 59,
              "velocity": 90,
              "position": 2.033333,
              "duration": 0.983333
            },
            {
              "pitch": 64,
              "velocity": 70,
              "position": 2.05,
              "duration": 0.216667
            },
            {
              "pitch": 64,
              "velocity": 63,
              "position": 2.308333,
              "duration": 0.716667
            },
            {
              "pitch": 48,
              "velocity": 60,
              "position": 2.566667,
              "duration": 0.425
            },
            {
              "pitch": 48,
              "velocity": 50,
              "position": 3.008333,
              "duration": 0.95
            },
            {
              "pitch": 55,
              "velocity": 67,
              "position": 3.016667,
              "duration": 0.941667
            },
            {
              "pitch": 59,
              "velocity": 87,
              "position": 3.025,
              "duration": 0.933333
            },
            {
              "pitch": 64,
              "velocity": 57,
              "position": 3.033333,
              "duration": 0.925
            },
            {
              "pitch": 48,
              "velocity": 41,
              "position": 4.0,
              "duration": 1.958333
            },
            {
              "pitch": 55,
              "velocity": 58,
              "position": 4.0,
              "duration": 1.958333
            },
            {
              "pitch": 59,
              "velocity": 64,
              "position": 4.033333,
              "duration": 1.925
            },
            {
              "pitch": 64,
              "velocity": 83,
              "position": 4.066667,
              "duration": 1.891667
            },
            {
              "pitch": 48,
              "velocity": 58,
              "position": 6.0,
              "duration": 1.958333
            },
            {
              "pitch": 55,
              "velocity": 64,
              "position": 6.0,
              "duration": 1.958333
            },
            {
              "pitch": 59,
              "velocity": 90,
              "position": 6.025,
              "duration": 1.933333
            },
            {
              "pitch": 64,
              "velocity": 80,
              "position": 6.05,
              "duration": 1.908333
            },
            {
              "pitch": 48,
              "velocity": 85,
              "position": 8.008333,
              "duration": 0.983333
            },
            {
              "pitch": 67,
              "velocity": 59,
              "position": 9.0,
              "duration": 0.008333
            },
            {
              "pitch": 48,
              "velocity": 57,
              "position": 9.008333,
              "duration": 3.033333
            },
            {
              "pitch": 59,
              "velocity": 69,
              "position": 9.016667,
              "duration": 0.008333
            },
            {
              "pitch": 55,
              "velocity": 94,
              "position": 9.025,
              "duration": 1.475
            },
            {
              "pitch": 59,
              "velocity": 84,
              "position": 9.033333,
              "duration": 0.775
            },
            {
              "pitch": 64,
              "velocity": 68,
              "position": 9.033333,
              "duration": 0.741667
            },
            {
              "pitch": 64,
              "velocity": 82,
              "position": 9.8,
              "duration": 1.225
            },
            {
              "pitch": 59,
              "velocity": 50,
              "position": 9.816667,
              "duration": 0.45
            },
            {
              "pitch": 59,
              "velocity": 69,
              "position": 10.308333,
              "duration": 0.7
            },
            {
              "pitch": 55,
              "velocity": 66,
              "position": 10.516667,
              "duration": 0.991667
            },
            {
              "pitch": 59,
              "velocity": 88,
              "position": 11.016667,
              "duration": 0.508333
            },
            {
              "pitch": 64,
              "velocity": 74,
              "position": 11.025,
              "duration": 0.516667
            },
            {
              "pitch": 55,
              "velocity": 33,
              "position": 11.525,
              "duration": 0.533333
            },
            {
              "pitch": 59,
              "velocity": 66,
              "position": 11.533333,
              "duration": 1.466667
            },
            {
              "pitch": 64,
              "velocity": 39,
              "position": 11.55,
              "duration": 0.241667
            },
            {
              "pitch": 64,
              "velocity": 62,
              "position": 11.816667,
              "duration": 1.183333
            },
            {
              "pitch": 48,
              "velocity": 83,
              "position": 12.05,
              "duration": 0.933333
            },
            {
              "pitch": 55,
              "velocity": 32,
              "position": 12.066667,
              "duration": 0.916667
            },
            {
              "pitch": 48,
              "velocity": 59,
              "position": 12.991667,
              "duration": 1.475
            },
            {
              "pitch": 55,
              "velocity": 71,
              "position": 13.0,
              "duration": 1.283333
            },
            {
              "pitch": 64,
              "velocity": 34,
              "position": 13.008333,
              "duration": 0.008333
            },
            {
              "pitch": 59,
              "velocity": 76,
              "position": 13.016667,
              "duration": 0.483333
            },
            {
              "pitch": 64,
              "velocity": 74,
              "position": 13.025,
              "duration": 0.716667
            },
            {
              "pitch": 64,
              "velocity": 59,
              "position": 13.766667,
              "duration": 2.191667
            },
            {
              "pitch": 59,
              "velocity": 47,
              "position": 13.775,
              "duration": 0.475
            },
            {
              "pitch": 59,
              "velocity": 75,
              "position": 14.283333,
              "duration": 1.675
            },
            {
              "pitch": 55,
              "velocity": 31,
              "position": 14.3,
              "duration": 0.183333
            },
            {
              "pitch": 48,
              "velocity": 68,
              "position": 14.475,
              "duration": 1.483333
            },
            {
              "pitch": 55,
              "velocity": 61,
              "position": 14.491667,
              "duration": 1.466667
            }
          ]
        },
        "13": {
          "ctab": {
            "srcChannel": 13,
            "name": "Strings",
            "accType": "PAD",
            "editable": true,
            "mutedNotes": [],
            "mutedChords": [],
            "sourceChordNote": 0,
            "sourceChordType": "Maj7",
            "ctb2Main": {
              "ntr": "ROOT_FIXED",
              "ntt": "MELODY",
              "bassOn": false,
              "noteLowLimit": 36,
              "noteHighLimit": 96,
              "chordRootUpperLimit": 127,
              "rtr": "PITCH_SHIFT"
            }
          },
          "notes": [
            {
              "pitch": 48,
              "velocity": 77,
              "position": 0.008333,
              "duration": 0.508333
            },
            {
              "pitch": 48,
              "velocity": 58,
              "position": 0.516667,
              "duration": 1.441667
            },
            {
              "pitch": 55,
              "velocity": 93,
              "position": 1.008333,
              "duration": 0.95
            },
            {
              "pitch": 64,
              "velocity": 59,
              "position": 1.016667,
              "duration": 0.941667
            },
            {
              "pitch": 59,
              "velocity": 106,
              "position": 1.025,
              "duration": 0.933333
            },
            {
              "pitch": 48,
              "velocity": 73,
              "position": 2.0,
              "duration": 0.841667
            },
            {
              "pitch": 48,
              "velocity": 60,
              "position": 3.0,
              "duration": 0.95
            },
            {
              "pitch": 55,
              "velocity": 96,
              "position": 3.0,
              "duration": 0.941667
            },
            {
              "pitch": 64,
              "velocity": 62,
              "position": 3.0,
              "duration": 0.008333
            },
            {
              "pitch": 59,
              "velocity": 106,
              "position": 3.008333,
              "duration": 0.925
            },
            {
              "pitch": 64,
              "velocity": 87,
              "position": 3.008333,
              "duration": 0.916667
            },
            {
              "pitch": 48,
              "velocity": 77,
              "position": 4.008333,
              "duration": 0.508333
            },
            {
              "pitch": 48,
              "velocity": 58,
              "position": 4.516667,
              "duration": 1.441667
            },
            {
              "pitch": 55,
              "velocity": 93,
              "position": 5.008333,
              "duration": 0.95
            },
            {
              "pitch": 64,
              "velocity": 59,
              "position": 5.016667,
              "duration": 0.941667
            },
            {
              "pitch": 59,
              "velocity": 106,
              "position": 5.025,
              "duration": 0.933333
            },
            {
              "pitch": 48,
              "velocity": 70,
              "position": 6.0,
              "duration": 0.916667
            },
            {
              "pitch": 55,
              "velocity": 67,
              "position": 6.0,
              "duration": 0.958333
            },
            {
              "pitch": 59,
              "velocity": 82,
              "position": 6.0,
              "duration": 0.975
            },
            {
              "pitch": 64,
              "velocity": 72,
              "position": 6.0,
              "duration": 0.991667
            },
            {
              "pitch": 48,
              "velocity": 44,
              "position": 6.925,
              "duration": 1.075
            },
            {
              "pitch": 55,
              "velocity": 62,
              "position": 6.958333,
              "duration": 1.041667
            },
            {
              "pitch": 59,
              "velocity": 87,
              "position": 6.983333,
              "duration": 1.016667
            },
            {
              "pitch": 64,
              "velocity": 82,
              "position": 7.0,
              "duration": 0.95
            },
            {
              "pitch": 48,
              "velocity": 85,
              "position": 8.0,
              "duration": 4.008333
            },
            {
              "pitch": 55,
              "velocity": 75,
              "position": 8.0,
              "duration": 0.991667
            },
            {
              "pitch": 59,
              "velocity": 76,
              "position": 8.008333,
              "duration": 0.975
            },
            {
              "pitch": 59,
              "velocity": 49,
              "position": 8.991667,
              "duration": 0.008333
            },
            {
              "pitch": 55,
              "velocity": 75,
              "position": 9.0,
              "duration": 2.808333
            },
            {
              "pitch": 64,
              "velocity": 69,
              "position": 9.008333,
              "duration": 0.008333
            },
            {
              "pitch": 59,
              "velocity": 98,
              "position": 9.016667,
              "duration": 2.758333
            },
            {
              "pitch": 64,
              "velocity": 90,
              "position": 9.025,
              "duration": 3.3
            },
            {
              "pitch": 55,
              "velocity": 35,
              "position": 11.816667,
              "duration": 0.166667
            },
            {
              "pitch": 59,
              "velocity": 85,
              "position": 11.816667,
              "duration": 0.416667
            },
            {
              "pitch": 48,
              "velocity": 80,
              "position": 12.016667,
              "duration": 0.375
            },
            {
              "pitch": 48,
              "velocity": 66,
              "position": 12.5,
              "duration": 3.458333
            },
            {
              "pitch": 55,
              "velocity": 71,
              "position": 13.008333,
              "duration": 2.95
            },
            {
              "pitch": 64,
              "velocity": 31,
              "position": 13.016667,
              "duration": 0.008333
            },
            {
              "pitch": 59,
              "velocity": 101,
              "position": 13.025,
              "duration": 2.933333
            },
            {
              "pitch": 64,
              "velocity": 87,
              "position": 13.033333,
              "duration": 2.925
            }
          ]
        }
      }
    },
    "Ending_A": {
      "type": "Ending_A",
      "sizeInBeats": 16,
      "channels": {
        "9": {
          "ctab": {
            "srcChannel": 9,
            "name": "Drums",
            "accType": "RHYTHM",
            "editable": false,
            "mutedNotes": [],
            "mutedChords": [],
            "sourceChordNote": 0,
            "sourceChordType": "Maj",
            "ctb2Main": {
              "ntr": "ROOT_FIXED",
              "ntt": "BYPASS",
              "bassOn": false,
              "noteLowLimit": 20,
              "noteHighLimit": 127,
              "chordRootUpperLimit": 127,
              "rtr": "RETRIGGER"
            }
          },
          "notes": [
            {
              "pitch": 36,
              "velocity": 123,
              "position": 0.0,
              "duration": 0.075
            },
            {
              "pitch": 57,
              "velocity": 127,
              "position": 0.0,
              "duration": 0.075
            },
            {
              "pitch": 36,
              "velocity": 105,
              "position": 0.5,
              "duration": 0.075
            },
            {
              "pitch": 42,
              "velocity": 89,
              "position": 0.5,
              "duration": 0.075
            },
            {
              "pitch": 40,
              "velocity": 127,
              "position": 1.0,
              "duration": 0.075
            },
            {
              "pitch": 42,
              "velocity": 127,
              "position": 1.0,
              "duration": 0.075
            },
            {
              "pitch": 42,
              "velocity": 72,
              "position": 1.5,
              "duration": 0.075
            },
            {
              "pitch": 40,
              "velocity": 62,
              "position": 1.833333,
              "duration": 0.075
            },
            {
              "pitch": 36,
              "velocity": 95,
              "position": 2.0,
              "duration": 0.075
            },
            {
              "pitch": 42,
              "velocity": 103,
              "position": 2.0,
              "duration": 0.075
            },
            {
              "pitch": 36,
              "velocity": 104,
              "position": 2.5,
              "duration": 0.075
            },
            {
              "pitch": 42,
              "velocity": 125,
              "position": 2.5,
              "duration": 0.075
            },
            {
              "pitch": 40,
              "velocity": 127,
              "position": 3.0,
              "duration": 0.075
            },
            {
              "pitch": 42,
              "velocity": 85,
              "position": 3.0,
              "duration": 0.075
            },
            {
              "pitch": 42,
              "velocity": 79,
              "position": 3.5,
              "duration": 0.075
            },
            {
              "pitch": 36,
              "velocity": 99,
              "position": 4.0,
              "duration": 0.075
            },
            {
              "pitch": 42,
              "velocity": 90,
              "position": 4.0,
              "duration": 0.075
            },
            {
              "pitch": 36,
              "velocity": 96,
              "position": 4.5,
              "duration": 0.075
            },
            {
              "pitch": 42,
              "velocity": 92,
              "position": 4.5,
              "duration": 0.075
            },
            {
              "pitch": 40,
              "velocity": 127,
              "position": 5.0,
              "duration": 0.075
            },
            {
              "pitch": 42,
              "velocity": 86,
              "position": 5.0,
              "duration": 0.075
            },
            {
              "pitch": 42,
              "velocity": 84,
              "position": 5.5,
              "duration": 0.075
            },
            {
              "pitch": 42,
              "velocity": 73,
              "position": 5.833333,
              "duration": 0.075
            },
            {
              "pitch": 36,
              "velocity": 98,
              "position": 6.0,
              "duration": 0.075
            },
            {
              "pitch": 42,
              "velocity": 127,
              "position": 6.0,
              "duration": 0.075
            },
            {
              "pitch": 36,
              "velocity": 110,
              "position": 6.5,
              "duration": 0.075
            },
            {
              "pitch": 42,
              "velocity": 127,
              "position": 6.5,
              "duration": 0.075
            },
            {
              "pitch": 40,
              "velocity": 127,
              "position": 7.0,
              "duration": 0.075
            },
            {
              "pitch": 42,
              "velocity": 124,
              "position": 7.0,
              "duration": 0.075
            },
            {
              "pitch": 42,
              "velocity": 84,
              "position": 7.5,
              "duration": 0.075
            },
            {
              "pitch": 36,
              "velocity": 101,
              "position": 8.0,
              "duration": 0.075
            },
            {
              "pitch": 42,
              "velocity": 126,
              "position": 8.0,
              "duration": 0.075
            },
            {
              "pitch": 36,
              "velocity": 34,
              "position": 8.5,
              "duration": 0.075
            },
            {
              "pitch": 42,
              "velocity": 97,
              "position": 8.5,
              "duration": 0.075
            },
            {
              "pitch": 40,
              "velocity": 127,
              "position": 9.0,
              "duration": 0.075
            },
            {
              "pitch": 42,
              "velocity": 127,
              "position": 9.0,
              "duration": 0.075
            },
            {
              "pitch": 42,
              "velocity": 89,
              "position": 9.5,
              "duration": 0.075
            },
            {
              "pitch": 36,
              "velocity": 92,
              "position": 10.0,
              "duration": 0.075
            },
            {
              "pitch": 42,
              "velocity": 127,
              "position": 10.0,
              "duration": 0.075
            },
            {
              "pitch": 36,
              "velocity": 105,
              "position": 10.5,
              "duration": 0.075
            },
            {
              "pitch": 42,
              "velocity": 84,
              "position": 10.5,
              "duration": 0.075
            },
            {
              "pitch": 40,
              "velocity": 127,
              "position": 11.0,
              "duration": 0.075
            },
            {
              "pitch": 42,
              "velocity": 127,
              "position": 11.0,
              "duration": 0.075
            },
            {
              "pitch": 42,
              "velocity": 73,
              "position": 11.5,
              "duration": 0.075
            },
            {
              "pitch": 36,
              "velocity": 78,
              "position": 12.0,
              "duration": 0.075
            },
            {
              "pitch": 42,
              "velocity": 127,
              "position": 12.0,
              "duration": 0.075
            },
            {
              "pitch": 42,
              "velocity": 105,
              "position": 12.5,
              "duration": 0.075
            },
            {
              "pitch": 40,
              "velocity": 127,
              "position": 13.0,
              "duration": 0.075
            },
            {
              "pitch": 42,
              "velocity": 87,
              "position": 13.5,
              "duration": 0.075
            },
            {
              "pitch": 40,
              "velocity": 29,
              "position": 13.833333,
              "duration": 0.075
            },
            {
              "pitch": 42,
              "velocity": 100,
              "position": 14.0,
              "duration": 0.075
            },
            {
              "pitch": 36,
              "velocity": 93,
              "position": 14.333333,
              "duration": 0.075
            },
            {
              "pitch": 40,
              "velocity": 127,
              "position": 14.5,
              "duration": 0.075
            },
            {
              "pitch": 36,
              "velocity": 105,
              "position": 15.0,
              "duration": 0.075
            },
            {
              "pitch": 40,
              "velocity": 127,
              "position": 15.0,
              "duration": 0.075
            },
            {
              "pitch": 45,
              "velocity": 29,
              "position": 15.333333,
              "duration": 0.075
            },
            {
              "pitch": 47,
              "velocity": 127,
              "position": 15.333333,
              "duration": 0.075
            },
            {
              "pitch": 45,
              "velocity": 127,
              "position": 15.5,
              "duration": 0.075
            },
            {
              "pitch": 36,
              "velocity": 43,
              "position": 15.833333,
              "duration": 0.075
            }
          ]
        },
        "10": {
          "ctab": {
            "srcChannel": 10,
            "name": "Bass",
            "accType": "BASS",
            "editable": true,
            "mutedNotes": [],
            "mutedChords": [],
            "sourceChordNote": 0,
            "sourceChordType": "Maj7",
            "ctb2Main": {
              "ntr": "ROOT_TRANSPOSITION",
              "ntt": "BYPASS",
              "bassOn": true,
              "noteLowLimit": 20,
              "noteHighLimit": 60,
              "chordRootUpperLimit": 127,
              "rtr": "NOTE_GENERATOR"
            }
          },
          "notes": [
            {
              "pitch": 36,
              "velocity": 88,
              "position": 0.0,
              "duration": 1.0
            },
            {
              "pitch": 36,
              "velocity": 78,
              "position": 1.0,
              "duration": 0.958333
            },
            {
              "pitch": 36,
              "velocity": 88,
              "position": 2.0,
              "duration": 1.0
            },
            {
              "pitch": 36,
              "velocity": 78,
              "position": 3.0,
              "duration": 0.958333
            },
            {
              "pitch": 36,
              "velocity": 88,
              "position": 4.0,
              "duration": 1.0
            },
            {
              "pitch": 36,
              "velocity": 78,
              "position": 5.0,
              "duration": 0.958333
            },
            {
              "pitch": 36,
              "velocity": 93,
              "position": 6.0,
              "duration": 0.191667
            },
            {
              "pitch": 36,
              "velocity": 90,
              "position": 6.508333,
              "duration": 1.108333
            },
            {
              "pitch": 36,
              "velocity": 89,
              "position": 8.008333,
              "duration": 0.2
            },
            {
              "pitch": 36,
              "velocity": 85,
              "position": 8.508333,
              "duration": 1.475
            },
            {
              "pitch": 36,
              "velocity": 84,
              "position": 9.991667,
              "duration": 0.191667
            },
            {
              "pitch": 36,
              "velocity": 84,
              "position": 10.491667,
              "duration": 1.325
            },
            {
              "pitch": 36,
              "velocity": 52,
              "position": 11.833333,
              "duration": 0.125
            },
            {
              "pitch": 36,
              "velocity": 83,
              "position": 12.025,
              "duration": 0.233333
            },
            {
              "pitch": 36,
              "velocity": 88,
              "position": 12.5,
              "duration": 1.491667
            },
            {
              "pitch": 36,
              "velocity": 81,
              "position": 14.008333,
              "duration": 0.191667
            },
            {
              "pitch": 36,
              "velocity": 89,
              "position": 14.508333,
              "duration": 1.45
            }
          ]
        },
        "11": {
          "ctab": {
            "srcChannel": 11,
            "name": "Piano",
            "accType": "CHORD1",
            "editable": true,
            "mutedNotes": [],
            "mutedChords": [],
            "sourceChordNote": 0,
            "sourceChordType": "Maj7",
            "ctb2Main": {
              "ntr": "ROOT_FIXED",
              "ntt": "CHORD",
              "bassOn": false,
              "noteLowLimit": 48,
              "noteHighLimit": 84,
              "chordRootUpperLimit": 127,
              "rtr": "NOTE_GENERATOR"
            }
          },
          "notes": [
            {
              "pitch": 48,
              "velocity": 82,
              "position": 0.016667,
              "duration": 1.083333
            },
            {
              "pitch": 59,
              "velocity": 89,
              "position": 0.016667,
              "duration": 0.933333
            },
            {
              "pitch": 36,
              "velocity": 74,
              "position": 0.025,
              "duration": 1.933333
            },
            {
              "pitch": 64,
              "velocity": 82,
              "position": 0.025,
              "duration": 0.908333
            },
            {
              "pitch": 55,
              "velocity": 82,
              "position": 0.033333,
              "duration": 0.891667
            },
            {
              "pitch": 60,
              "velocity": 78,
              "position": 0.033333,
              "duration": 0.916667
            },
            {
              "pitch": 55,
              "velocity": 82,
              "position": 1.016667,
              "duration": 0.6
            },
            {
              "pitch": 59,
              "velocity": 89,
              "position": 1.016667,
              "duration": 0.95
            },
            {
              "pitch": 64,
              "velocity": 80,
              "position": 1.025,
              "duration": 0.925
            },
            {
              "pitch": 60,
              "velocity": 78,
              "position": 1.033333,
              "duration": 0.925
            },
            {
              "pitch": 55,
              "velocity": 72,
              "position": 1.8,
              "duration": 0.058333
            },
            {
              "pitch": 36,
              "velocity": 76,
              "position": 2.0,
              "duration": 1.675
            },
            {
              "pitch": 48,
              "velocity": 82,
              "position": 2.0,
              "duration": 0.891667
            },
            {
              "pitch": 55,
              "velocity": 89,
              "position": 2.008333,
              "duration": 0.883333
            },
            {
              "pitch": 59,
              "velocity": 89,
              "position": 2.008333,
              "duration": 0.891667
            },
            {
              "pitch": 60,
              "velocity": 86,
              "position": 2.016667,
              "duration": 0.883333
            },
            {
              "pitch": 64,
              "velocity": 82,
              "position": 2.016667,
              "duration": 0.85
            },
            {
              "pitch": 55,
              "velocity": 86,
              "position": 2.991667,
              "duration": 0.633333
            },
            {
              "pitch": 59,
              "velocity": 91,
              "position": 2.991667,
              "duration": 0.966667
            },
            {
              "pitch": 60,
              "velocity": 87,
              "position": 2.991667,
              "duration": 0.966667
            },
            {
              "pitch": 64,
              "velocity": 74,
              "position": 2.991667,
              "duration": 0.966667
            },
            {
              "pitch": 48,
              "velocity": 66,
              "position": 3.0,
              "duration": 0.958333
            },
            {
              "pitch": 55,
              "velocity": 64,
              "position": 3.808333,
              "duration": 0.116667
            },
            {
              "pitch": 36,
              "velocity": 76,
              "position": 4.0,
              "duration": 1.675
            },
            {
              "pitch": 48,
              "velocity": 82,
              "position": 4.0,
              "duration": 0.891667
            },
            {
              "pitch": 55,
              "velocity": 89,
              "position": 4.008333,
              "duration": 0.883333
            },
            {
              "pitch": 59,
              "velocity": 89,
              "position": 4.008333,
              "duration": 0.891667
            },
            {
              "pitch": 60,
              "velocity": 86,
              "position": 4.016667,
              "duration": 0.883333
            },
            {
              "pitch": 64,
              "velocity": 82,
              "position": 4.016667,
              "duration": 0.85
            },
            {
              "pitch": 55,
              "velocity": 86,
              "position": 4.991667,
              "duration": 0.633333
            },
            {
              "pitch": 59,
              "velocity": 91,
              "position": 4.991667,
              "duration": 0.966667
            },
            {
              "pitch": 60,
              "velocity": 87,
              "position": 4.991667,
              "duration": 0.966667
            },
            {
              "pitch": 64,
              "velocity": 74,
              "position": 4.991667,
              "duration": 0.966667
            },
            {
              "pitch": 48,
              "velocity": 66,
              "position": 5.0,
              "duration": 0.958333
            },
            {
              "pitch": 55,
              "velocity": 64,
              "position": 5.808333,
              "duration": 0.116667
            },
            {
              "pitch": 59,
              "velocity": 91,
              "position": 6.008333,
              "duration": 1.95
            },
            {
              "pitch": 60,
              "velocity": 89,
              "position": 6.008333,
              "duration": 1.95
            },
            {
              "pitch": 64,
              "velocity": 90,
              "position": 6.008333,
              "duration": 1.95
            },
            {
              "pitch": 55,
              "velocity": 89,
              "position": 6.016667,
              "duration": 1.941667
            },
            {
              "pitch": 48,
              "velocity": 84,
              "position": 6.033333,
              "duration": 1.925
            },
            {
              "pitch": 43,
              "velocity": 62,
              "position": 8.0,
              "duration": 3.95
            },
            {
              "pitch": 59,
              "velocity": 92,
              "position": 8.0,
              "duration": 3.941667
            },
            {
              "pitch": 60,
              "velocity": 87,
              "position": 8.008333,
              "duration": 3.916667
            },
            {
              "pitch": 64,
              "velocity": 87,
              "position": 8.008333,
              "duration": 3.925
            },
            {
              "pitch": 36,
              "velocity": 88,
              "position": 8.016667,
              "duration": 3.916667
            },
            {
              "pitch": 48,
              "velocity": 88,
              "position": 8.025,
              "duration": 3.933333
            },
            {
              "pitch": 43,
              "velocity": 62,
              "position": 12.0,
              "duration": 3.95
            },
            {
              "pitch": 59,
              "velocity": 92,
              "position": 12.0,
              "duration": 3.941667
            },
            {
              "pitch": 60,
              "velocity": 87,
              "position": 12.008333,
              "duration": 3.916667
            },
            {
              "pitch": 64,
              "velocity": 87,
              "position": 12.008333,
              "duration": 3.925
            },
            {
              "pitch": 36,
              "velocity": 88,
              "position": 12.016667,
              "duration": 3.916667
            },
            {
              "pitch": 48,
              "velocity": 88,
              "position": 12.025,
              "duration": 3.933333
            }
          ]
        },
        "12": {
          "ctab": {
            "srcChannel": 12,
            "name": "Guitar",
            "accType": "CHORD2",
            "editable": true,
            "mutedNotes": [],
            "mutedChords": [],
            "sourceChordNote": 0,
            "sourceChordType": "Maj7",
            "ctb2Main": {
              "ntr": "ROOT_FIXED",
              "ntt": "CHORD",
              "bassOn": false,
              "noteLowLimit": 40,
              "noteHighLimit": 76,
              "chordRootUpperLimit": 127,
              "rtr": "NOTE_GENERATOR"
            }
          },
          "notes": [
            {
              "pitch": 48,
              "velocity": 69,
              "position": 0.066667,
              "duration": 0.933333
            },
            {
              "pitch": 48,
              "velocity": 63,
              "position": 1.0,
              "duration": 0.958333
            },
            {
              "pitch": 59,
              "velocity": 71,
              "position": 1.016667,
              "duration": 0.008333
            },
            {
              "pitch": 55,
              "velocity": 75,
              "position": 1.025,
              "duration": 0.933333
            },
            {
              "pitch": 64,
              "velocity": 76,
              "position": 1.033333,
              "duration": 0.741667
            },
            {
              "pitch": 59,
              "velocity": 82,
              "position": 1.041667,
              "duration": 0.916667
            },
            {
              "pitch": 64,
              "velocity": 71,
              "position": 1.791667,
              "duration": 0.166667
            },
            {
              "pitch": 48,
              "velocity": 62,
              "position": 2.05,
              "duration": 1.908333
            },
            {
              "pitch": 55,
              "velocity": 74,
              "position": 3.0,
              "duration": 0.958333
            },
            {
              "pitch": 59,
              "velocity": 98,
              "position": 3.008333,
              "duration": 0.766667
            },
            {
              "pitch": 64,
              "velocity": 66,
              "position": 3.008333,
              "duration": 0.008333
            },
            {
              "pitch": 64,
              "velocity": 81,
              "position": 3.025,
              "duration": 0.716667
            },
            {
              "pitch": 64,
              "velocity": 85,
              "position": 3.775,
              "duration": 0.183333
            },
            {
              "pitch": 59,
              "velocity": 69,
              "position": 3.783333,
              "duration": 0.175
            },
            {
              "pitch": 48,
              "velocity": 78,
              "position": 4.033333,
              "duration": 1.925
            },
            {
              "pitch": 55,
              "velocity": 31,
              "position": 4.541667,
              "duration": 0.475
            },
            {
              "pitch": 55,
              "velocity": 68,
              "position": 5.025,
              "duration": 0.933333
            },
            {
              "pitch": 59,
              "velocity": 70,
              "position": 5.041667,
              "duration": 0.691667
            },
            {
              "pitch": 64,
              "velocity": 31,
              "position": 5.058333,
              "duration": 0.9
            },
            {
              "pitch": 59,
              "velocity": 81,
              "position": 5.766667,
              "duration": 0.191667
            },
            {
              "pitch": 48,
              "velocity": 89,
              "position": 6.025,
              "duration": 1.933333
            },
            {
              "pitch": 55,
              "velocity": 69,
              "position": 7.016667,
              "duration": 0.941667
            },
            {
              "pitch": 64,
              "velocity": 69,
              "position": 7.025,
              "duration": 0.741667
            },
            {
              "pitch": 59,
              "velocity": 80,
              "position": 7.033333,
              "duration": 0.925
            },
            {
              "pitch": 64,
              "velocity": 62,
              "position": 7.783333,
              "duration": 0.175
            },
            {
              "pitch": 48,
              "velocity": 80,
              "position": 8.008333,
              "duration": 2.033333
            },
            {
              "pitch": 59,
              "velocity": 41,
              "position": 8.975,
              "duration": 0.016667
            },
            {
              "pitch": 55,
              "velocity": 80,
              "position": 8.991667,
              "duration": 2.016667
            },
            {
              "pitch": 59,
              "velocity": 78,
              "position": 9.0,
              "duration": 0.8
            },
            {
              "pitch": 64,
              "velocity": 81,
              "position": 9.0,
              "duration": 0.766667
            },
            {
              "pitch": 64,
              "velocity": 71,
              "position": 9.8,
              "duration": 1.208333
            },
            {
              "pitch": 59,
              "velocity": 49,
              "position": 9.808333,
              "duration": 1.2
            },
            {
              "pitch": 48,
              "velocity": 53,
              "position": 10.05,
              "duration": 1.908333
            },
            {
              "pitch": 55,
              "velocity": 70,
              "position": 11.016667,
              "duration": 0.941667
            },
            {
              "pitch": 59,
              "velocity": 83,
              "position": 11.025,
              "duration": 0.783333
            },
            {
              "pitch": 64,
              "velocity": 79,
              "position": 11.025,
              "duration": 0.758333
            },
            {
              "pitch": 64,
              "velocity": 85,
              "position": 11.808333,
              "duration": 0.15
            },
            {
              "pitch": 59,
              "velocity": 73,
              "position": 11.816667,
              "duration": 0.141667
            },
            {
              "pitch": 48,
              "velocity": 77,
              "position": 12.041667,
              "duration": 2.45
            },
            {
              "pitch": 55,
              "velocity": 35,
              "position": 12.55,
              "duration": 0.241667
            },
            {
              "pitch": 55,
              "velocity": 38,
              "position": 12.8,
              "duration": 0.216667
            },
            {
              "pitch": 55,
              "velocity": 55,
              "position": 13.033333,
              "duration": 1.258333
            },
            {
              "pitch": 59,
              "velocity": 94,
              "position": 13.05,
              "duration": 0.733333
            },
            {
              "pitch": 64,
              "velocity": 85,
              "position": 13.058333,
              "duration": 0.683333
            },
            {
              "pitch": 64,
              "velocity": 76,
              "position": 13.783333,
              "duration": 1.225
            },
            {
              "pitch": 59,
              "velocity": 66,
              "position": 13.8,
              "duration": 0.441667
            },
            {
              "pitch": 59,
              "velocity": 66,
              "position": 14.283333,
              "duration": 0.733333
            },
            {
              "pitch": 55,
              "velocity": 31,
              "position": 14.3,
              "duration": 0.208333
            },
            {
              "pitch": 48,
              "velocity": 42,
              "position": 14.5,
              "duration": 1.458333
            },
            {
              "pitch": 55,
              "velocity": 32,
              "position": 14.516667,
              "duration": 0.483333
            },
            {
              "pitch": 55,
              "velocity": 58,
              "position": 15.008333,
              "duration": 0.95
            },
            {
              "pitch": 64,
              "velocity": 41,
              "position": 15.016667,
              "duration": 0.008333
            },
            {
              "pitch": 59,
              "velocity": 74,
              "position": 15.025,
              "duration": 0.483333
            },
            {
              "pitch": 64,
              "velocity": 55,
              "position": 15.033333,
              "duration": 0.5
            },
            {
              "pitch": 59,
              "velocity": 48,
              "position": 15.516667,
              "duration": 0.258333
            },
            {
              "pitch": 64,
              "velocity": 38,
              "position": 15.541667,
              "duration": 0.416667
            },
            {
              "pitch": 59,
              "velocity": 68,
              "position": 15.816667,
              "duration": 0.141667
            }
          ]
        },
        "13": {
          "ctab": {
            "srcChannel": 13,
            "name": "Strings",
            "accType": "PAD",
            "editable": true,
            "mutedNotes": [],
            "mutedChords": [],
            "sourceChordNote": 0,
            "sourceChordType": "Maj7",
            "ctb2Main": {
              "ntr": "ROOT_FIXED",
              "ntt": "MELODY",
              "bassOn": false,
              "noteLowLimit": 36,
              "noteHighLimit": 96,
              "chordRootUpperLimit": 127,
              "rtr": "PITCH_SHIFT"
            }
          },
          "notes": [
            {
              "pitch": 48,
              "velocity": 78,
              "position": 0.008333,
              "duration": 0.866667
            },
            {
              "pitch": 48,
              "velocity": 62,
              "position": 1.0,
              "duration": 0.958333
            },
            {
              "pitch": 55,
              "velocity": 84,
              "position": 1.008333,
              "duration": 0.95
            },
            {
              "pitch": 59,
              "velocity": 65,
              "position": 1.008333,
              "duration": 0.008333
            },
            {
              "pitch": 59,
              "velocity": 87,
              "position": 1.025,
              "duration": 0.933333
            },
            {
              "pitch": 64,
              "velocity": 51,
              "position": 1.025,
              "duration": 0.933333
            },
            {
              "pitch": 48,
              "velocity": 59,
              "position": 2.0,
              "duration": 0.508333
            },
            {
              "pitch": 55,
              "velocity": 72,
              "position": 2.016667,
              "duration": 0.275
            },
            {
              "pitch": 59,
              "velocity": 91,
              "position": 2.033333,
              "duration": 0.225
            },
            {
              "pitch": 64,
              "velocity": 51,
              "position": 2.041667,
              "duration": 0.266667
            },
            {
              "pitch": 55,
              "velocity": 46,
              "position": 2.508333,
              "duration": 0.016667
            },
            {
              "pitch": 48,
              "velocity": 58,
              "position": 2.516667,
              "duration": 1.441667
            },
            {
              "pitch": 55,
              "velocity": 67,
              "position": 2.533333,
              "duration": 0.466667
            },
            {
              "pitch": 55,
              "velocity": 70,
              "position": 3.008333,
              "duration": 0.95
            },
            {
              "pitch": 59,
              "velocity": 92,
              "position": 3.025,
              "duration": 0.916667
            },
            {
              "pitch": 64,
              "velocity": 80,
              "position": 3.041667,
              "duration": 0.916667
            },
            {
              "pitch": 48,
              "velocity": 70,
              "position": 4.0,
              "duration": 0.916667
            },
            {
              "pitch": 55,
              "velocity": 67,
              "position": 4.0,
              "duration": 0.958333
            },
            {
              "pitch": 59,
              "velocity": 82,
              "position": 4.0,
              "duration": 0.975
            },
            {
              "pitch": 64,
              "velocity": 72,
              "position": 4.0,
              "duration": 0.991667
            },
            {
              "pitch": 48,
              "velocity": 44,
              "position": 4.925,
              "duration": 1.075
            },
            {
              "pitch": 55,
              "velocity": 62,
              "position": 4.958333,
              "duration": 1.041667
            },
            {
              "pitch": 59,
              "velocity": 87,
              "position": 4.983333,
              "duration": 1.016667
            },
            {
              "pitch": 64,
              "velocity": 82,
              "position": 5.0,
              "duration": 0.95
            },
            {
              "pitch": 48,
              "velocity": 59,
              "position": 6.0,
              "duration": 0.508333
            },
            {
              "pitch": 55,
              "velocity": 72,
              "position": 6.016667,
              "duration": 0.275
            },
            {
              "pitch": 59,
              "velocity": 91,
              "position": 6.033333,
              "duration": 0.225
            },
            {
              "pitch": 64,
              "velocity": 51,
              "position": 6.041667,
              "duration": 0.266667
            },
            {
              "pitch": 55,
              "velocity": 46,
              "position": 6.508333,
              "duration": 0.016667
            },
            {
              "pitch": 48,
              "velocity": 58,
              "position": 6.516667,
              "duration": 1.441667
            },
            {
              "pitch": 55,
              "velocity": 67,
              "position": 6.533333,
              "duration": 0.466667
            },
            {
              "pitch": 55,
              "velocity": 70,
              "position": 7.008333,
              "duration": 0.95
            },
            {
              "pitch": 59,
              "velocity": 92,
              "position": 7.025,
              "duration": 0.916667
            },
            {
              "pitch": 64,
              "velocity": 80,
              "position": 7.041667,
              "duration": 0.916667
            },
            {
              "pitch": 48,
              "velocity": 62,
              "position": 8.0,
              "duration": 3.958333
            },
            {
              "pitch": 55,
              "velocity": 84,
              "position": 8.0,
              "duration": 3.95
            },
            {
              "pitch": 59,
              "velocity": 65,
              "position": 8.0,
              "duration": 0.016667
            },
            {
              "pitch": 59,
              "velocity": 87,
              "position": 8.016667,
              "duration": 3.933333
            },
            {
              "pitch": 64,
              "velocity": 51,
              "position": 8.016667,
              "duration": 3.933333
            },
            {
              "pitch": 48,
              "velocity": 73,
              "position": 12.025,
              "duration": 0.3
            },
            {
              "pitch": 48,
              "velocity": 71,
              "position": 12.5,
              "duration": 0.5
            },
            {
              "pitch": 48,
              "velocity": 60,
              "position": 13.008333,
              "duration": 2.95
            },
            {
              "pitch": 55,
              "velocity": 96,
              "position": 13.016667,
              "duration": 2.941667
            },
            {
              "pitch": 64,
              "velocity": 62,
              "position": 13.025,
              "duration": 0.008333
            },
            {
              "pitch": 59,
              "velocity": 106,
              "position": 13.033333,
              "duration": 2.925
            },
            {
              "pitch": 64,
              "velocity": 87,
              "position": 13.041667,
              "duration": 2.916667
            }
          ]
        }
      }
    }
  }
}