{
  "name": "Gritty - 4-to-the-Bar Shuffle",
  "tempo": 160,
  "timeSignature": "4/4",
  "ticksPerQuarter": 120,
  "sffType": "SFF1",
  "division": "BINARY",
  "channelPrograms": {
    "9": 40,
    "10": 28,
    "11": 1,
    "12": 28,
    "13": 25
  },
  "parts": {
    "Intro_A": {
      "type": "Intro_A",
      "sizeInBeats": 24,
      "channels": {
        "9": {
          "ctab": {
            "srcChannel": 9,
            "name": "Drums",
            "accType": "RHYTHM",
            "editable": false,
            "mutedNotes": [],
            "mutedChords": [],
            "sourceChordNote": 0,
            "sourceChordType": "Maj",
            "ctb2Main": {
              "ntr": "ROOT_FIXED",
              "ntt": "BYPASS",
              "bassOn": false,
              "noteLowLimit": 20,
              "noteHighLimit": 127,
              "chordRootUpperLimit": 127,
              "rtr": "RETRIGGER"
            }
          },
          "notes": [
            {
              "pitch": 37,
              "velocity": 84,
              "position": 0.0,
              "duration": 1.0
            },
            {
              "pitch": 37,
              "velocity": 84,
              "position": 2.0,
              "duration": 1.0
            },
            {
              "pitch": 37,
              "velocity": 64,
              "position": 4.0,
              "duration": 1.0
            },
            {
              "pitch": 37,
              "velocity": 84,
              "position": 5.0,
              "duration": 1.0
            },
            {
              "pitch": 37,
              "velocity": 64,
              "position": 6.0,
              "duration": 1.0
            },
            {
              "pitch": 37,
              "velocity": 84,
              "position": 7.0,
              "duration": 1.0
            },
            {
              "pitch": 31,
              "velocity": 40,
              "position": 8.0,
              "duration": 0.208333
            },
            {
              "pitch": 35,
              "velocity": 60,
              "position": 8.0,
              "duration": 0.208333
            },
            {
              "pitch": 39,
              "velocity": 50,
              "position": 8.0,
              "duration": 0.208333
            },
            {
              "pitch": 42,
              "velocity": 60,
              "position": 8.0,
              "duration": 0.208333
            },
            {
              "pitch": 31,
              "velocity": 60,
              "position": 9.0,
              "duration": 0.208333
            },
            {
              "pitch": 35,
              "velocity": 70,
              "position": 9.0,
              "duration": 0.208333
            },
            {
              "pitch": 37,
              "velocity": 40,
              "position": 9.0,
              "duration": 0.208333
            },
            {
              "pitch": 38,
              "velocity": 70,
              "position": 9.0,
              "duration": 0.208333
            },
            {
              "pitch": 39,
              "velocity": 80,
              "position": 9.0,
              "duration": 0.208333
            },
            {
              "pitch": 42,
              "velocity": 70,
              "position": 9.0,
              "duration": 0.208333
            },
            {
              "pitch": 63,
              "velocity": 40,
              "position": 9.0,
              "duration": 0.208333
            },
            {
              "pitch": 38,
              "velocity": 50,
              "position": 9.716667,
              "duration": 0.208333
            },
            {
              "pitch": 31,
              "velocity": 40,
              "position": 10.0,
              "duration": 0.208333
            },
            {
              "pitch": 35,
              "velocity": 60,
              "position": 10.0,
              "duration": 0.208333
            },
            {
              "pitch": 39,
              "velocity": 50,
              "position": 10.0,
              "duration": 0.208333
            },
            {
              "pitch": 42,
              "velocity": 60,
              "position": 10.0,
              "duration": 0.208333
            },
            {
              "pitch": 31,
              "velocity": 60,
              "position": 11.0,
              "duration": 0.208333
            },
            {
              "pitch": 35,
              "velocity": 70,
              "position": 11.0,
              "duration": 0.208333
            },
            {
              "pitch": 37,
              "velocity": 40,
              "position": 11.0,
              "duration": 0.208333
            },
            {
              "pitch": 38,
              "velocity": 70,
              "position": 11.0,
              "duration": 0.208333
            },
            {
              "pitch": 39,
              "velocity": 70,
              "position": 11.0,
              "duration": 0.208333
            },
            {
              "pitch": 42,
              "velocity": 70,
              "position": 11.0,
              "duration": 0.208333
            },
            {
              "pitch": 63,
              "velocity": 50,
              "position": 11.0,
              "duration": 0.208333
            },
            {
              "pitch": 38,
              "velocity": 50,
              "position": 11.716667,
              "duration": 0.208333
            },
            {
              "pitch": 31,
              "velocity": 40,
              "position": 12.0,
              "duration": 0.208333
            },
            {
              "pitch": 35,
              "velocity": 60,
              "position": 12.0,
              "duration": 0.208333
            },
            {
              "pitch": 39,
              "velocity": 50,
              "position": 12.0,
              "duration": 0.208333
            },
            {
              "pitch": 42,
              "velocity": 60,
              "position": 12.0,
              "duration": 0.208333
            },
            {
              "pitch": 31,
              "velocity": 60,
              "position": 13.0,
              "duration": 0.208333
            },
            {
              "pitch": 35,
              "velocity": 70,
              "position": 13.0,
              "duration": 0.208333
            },
            {
              "pitch": 37,
              "velocity": 40,
              "position": 13.0,
              "duration": 0.208333
            },
            {
              "pitch": 38,
              "velocity": 70,
              "position": 13.0,
              "duration": 0.208333
            },
            {
              "pitch": 39,
              "velocity": 80,
              "position": 13.0,
              "duration": 0.208333
            },
            {
              "pitch": 42,
              "velocity": 70,
              "position": 13.0,
              "duration": 0.208333
            },
            {
              "pitch": 63,
              "velocity": 40,
              "position": 13.0,
              "duration": 0.208333
            },
            {
              "pitch": 38,
              "velocity": 50,
              "position": 13.716667,
              "duration": 0.208333
            },
            {
              "pitch": 31,
              "velocity": 40,
              "position": 14.0,
              "duration": 0.208333
            },
            {
              "pitch": 35,
              "velocity": 60,
              "position": 14.0,
              "duration": 0.208333
            },
            {
              "pitch": 39,
              "velocity": 50,
              "position": 14.0,
              "duration": 0.208333
            },
            {
              "pitch": 42,
              "velocity": 60,
              "position": 14.0,
              "duration": 0.208333
            },
            {
              "pitch": 31,
              "velocity": 60,
              "position": 14.716667,
              "duration": 0.208333
            },
            {
              "pitch": 38,
              "velocity": 70,
              "position": 14.716667,
              "duration": 0.208333
            },
            {
              "pitch": 39,
              "velocity": 50,
              "position": 14.716667,
              "duration": 0.208333
            },
            {
              "pitch": 31,
              "velocity": 60,
              "position": 15.0,
              "duration": 0.208333
            },
            {
              "pitch": 35,
              "velocity": 70,
              "position": 15.0,
              "duration": 0.208333
            },
            {
              "pitch": 37,
              "velocity": 40,
              "position": 15.0,
              "duration": 0.208333
            },
            {
              "pitch": 38,
              "velocity": 70,
              "position": 15.0,
              "duration": 0.208333
            },
            {
              "pitch": 39,
              "velocity": 80,
              "position": 15.0,
              "duration": 0.208333
            },
            {
              "pitch": 42,
              "velocity": 70,
              "position": 15.0,
              "duration": 0.208333
            },
            {
              "pitch": 63,
              "velocity": 50,
              "position": 15.0,
              "duration": 0.208333
            },
            {
              "pitch": 31,
              "velocity": 50,
              "position": 15.716667,
              "duration": 0.208333
            },
            {
              "pitch": 38,
              "velocity": 50,
              "position": 15.716667,
              "duration": 0.208333
            },
            {
              "pitch": 39,
              "velocity": 60,
              "position": 15.716667,
              "duration": 0.208333
            },
            {
              "pitch": 31,
              "velocity": 40,
              "position": 16.0,
              "duration": 0.208333
            },
            {
              "pitch": 35,
              "velocity": 60,
              "position": 16.0,
              "duration": 0.208333
            },
            {
              "pitch": 39,
              "velocity": 50,
              "position": 16.0,
              "duration": 0.208333
            },
            {
              "pitch": 42,
              "velocity": 60,
              "position": 16.0,
              "duration": 0.208333
            },
            {
              "pitch": 31,
              "velocity": 60,
              "position": 17.0,
              "duration": 0.208333
            },
            {
              "pitch": 35,
              "velocity": 70,
              "position": 17.0,
              "duration": 0.208333
            },
            {
              "pitch": 37,
              "velocity": 40,
              "position": 17.0,
              "duration": 0.208333
            },
            {
              "pitch": 38,
              "velocity": 70,
              "position": 17.0,
              "duration": 0.208333
            },
            {
              "pitch": 39,
              "velocity": 80,
              "position": 17.0,
              "duration": 0.208333
            },
            {
              "pitch": 42,
              "velocity": 70,
              "position": 17.0,
              "duration": 0.208333
            },
            {
              "pitch": 63,
              "velocity": 40,
              "position": 17.0,
              "duration": 0.208333
            },
            {
              "pitch": 38,
              "velocity": 50,
              "position": 17.716667,
              "duration": 0.208333
            },
            {
              "pitch": 31,
              "velocity": 40,
              "position": 18.0,
              "duration": 0.208333
            },
            {
              "pitch": 35,
              "velocity": 60,
              "position": 18.0,
              "duration": 0.208333
            },
            {
              "pitch": 39,
              "velocity": 50,
              "position": 18.0,
              "duration": 0.208333
            },
            {
              "pitch": 42,
              "velocity": 60,
              "position": 18.0,
              "duration": 0.208333
            },
            {
              "pitch": 31,
              "velocity": 60,
              "position": 19.0,
              "duration": 0.208333
            },
            {
              "pitch": 35,
              "velocity": 70,
              "position": 19.0,
              "duration": 0.208333
            },
            {
              "pitch": 37,
              "velocity": 40,
              "position": 19.0,
              "duration": 0.208333
            },
            {
              "pitch": 38,
              "velocity": 70,
              "position": 19.0,
              "duration": 0.208333
            },
            {
              "pitch": 39,
              "velocity": 70,
              "position": 19.0,
              "duration": 0.208333
            },
            {
              "pitch": 42,
              "velocity": 70,
              "position": 19.0,
              "duration": 0.208333
            },
            {
              "pitch": 63,
              "velocity": 50,
              "position": 19.0,
              "duration": 0.208333
            },
            {
              "pitch": 38,
              "velocity": 50,
              "position": 19.716667,
              "duration": 0.208333
            },
            {
              "pitch": 31,
              "velocity": 40,
              "position": 20.0,
              "duration": 0.208333
            },
            {
              "pitch": 35,
              "velocity": 60,
              "position": 20.0,
              "duration": 0.208333
            },
            {
              "pitch": 39,
              "velocity": 50,
              "position": 20.0,
              "duration": 0.208333
            },
            {
              "pitch": 42,
              "velocity": 60,
              "position": 20.0,
              "duration": 0.208333
            },
            {
              "pitch": 31,
              "velocity": 60,
              "position": 21.0,
              "duration": 0.208333
            },
            {
              "pitch": 35,
              "velocity": 70,
              "position": 21.0,
              "duration": 0.208333
            },
            {
              "pitch": 37,
              "velocity": 40,
              "position": 21.0,
              "duration": 0.208333
            },
            {
              "pitch": 38,
              "velocity": 70,
              "position": 21.0,
              "duration": 0.208333
            },
            {
              "pitch": 39,
              "velocity": 80,
              "position": 21.0,
              "duration": 0.208333
            },
            {
              "pitch": 42,
              "velocity": 70,
              "position": 21.0,
              "duration": 0.208333
            },
            {
              "pitch": 63,
              "velocity": 40,
              "position": 21.0,
              "duration": 0.208333
            },
            {
              "pitch": 38,
              "velocity": 50,
              "position": 21.716667,
              "duration": 0.208333
            },
            {
              "pitch": 39,
              "velocity": 60,
              "position": 21.716667,
              "duration": 0.208333
            },
            {
              "pitch": 31,
              "velocity": 40,
              "position": 22.0,
              "duration": 0.208333
            },
            {
              "pitch": 35,
              "velocity": 60,
              "position": 22.0,
              "duration": 0.208333
            },
            {
              "pitch": 39,
              "velocity": 90,
              "position": 22.0,
              "duration": 0.208333
            },
            {
              "pitch": 42,
              "velocity": 60,
              "position": 22.0,
              "duration": 0.208333
            },
            {
              "pitch": 31,
              "velocity": 40,
              "position": 22.716667,
              "duration": 0.208333
            },
            {
              "pitch": 38,
              "velocity": 80,
              "position": 22.716667,
              "duration": 0.208333
            },
            {
              "pitch": 39,
              "velocity": 60,
              "position": 22.716667,
              "duration": 0.208333
            },
            {
              "pitch": 31,
              "velocity": 60,
              "position": 23.0,
              "duration": 0.208333
            },
            {
              "pitch": 35,
              "velocity": 70,
              "position": 23.0,
              "duration": 0.208333
            },
            {
              "pitch": 37,
              "velocity": 40,
              "position": 23.0,
              "duration": 0.208333
            },
            {
              "pitch": 38,
              "velocity": 100,
              "position": 23.0,
              "duration": 0.208333
            },
            {
              "pitch": 39,
              "velocity": 100,
              "position": 23.0,
              "duration": 0.208333
            },
            {
              "pitch": 42,
              "velocity": 70,
              "position": 23.0,
              "duration": 0.208333
            },
            {
              "pitch": 63,
              "velocity": 50,
              "position": 23.0,
              "duration": 0.208333
            },
            {
              "pitch": 31,
              "velocity": 40,
              "position": 23.716667,
              "duration": 0.208333
            },
            {
              "pitch": 38,
              "velocity": 50,
              "position": 23.716667,
              "duration": 0.208333
            },
            {
              "pitch": 39,
              "velocity": 50,
              "position": 23.716667,
              "duration": 0.208333
            }
          ]
        },
        "10": {
          "ctab": {
            "srcChannel": 10,
            "name": "Bass",
            "accType": "BASS",
            "editable": true,
            "mutedNotes": [],
            "mutedChords": [],
            "sourceChordNote": 0,
            "sourceChordType": "Maj7",
            "ctb2Main": {
              "ntr": "ROOT_TRANSPOSITION",
              "ntt": "BYPASS",
              "bassOn": true,
              "noteLowLimit": 20,
              "noteHighLimit": 60,
              "chordRootUpperLimit": 127,
              "rtr": "NOTE_GENERATOR"
            }
          },
          "notes": [
            {
              "pitch": 36,
              "velocity": 80,
              "position": 8.008333,
              "duration": 0.383333
            },
            {
              "pitch": 36,
              "velocity": 80,
              "position": 9.016667,
              "duration": 0.433333
            },
            {
              "pitch": 31,
              "velocity": 42,
              "position": 9.691667,
              "duration": 0.2
            },
            {
              "pitch": 36,
              "velocity": 80,
              "position": 10.008333,
              "duration": 0.383333
            },
            {
              "pitch": 36,
              "velocity": 80,
              "position": 11.016667,
              "duration": 0.433333
            },
            {
              "pitch": 31,
              "velocity": 42,
              "position": 11.691667,
              "duration": 0.2
            },
            {
              "pitch": 36,
              "velocity": 74,
              "position": 12.008333,
              "duration": 0.383333
            },
            {
              "pitch": 36,
              "velocity": 55,
              "position": 12.666667,
              "duration": 0.316667
            },
            {
              "pitch": 31,
              "velocity": 74,
              "position": 13.016667,
              "duration": 0.433333
            },
            {
              "pitch": 36,
              "velocity": 74,
              "position": 14.008333,
              "duration": 0.383333
            },
            {
              "pitch": 36,
              "velocity": 55,
              "position": 14.666667,
              "duration": 0.316667
            },
            {
              "pitch": 31,
              "velocity": 74,
              "position": 15.016667,
              "duration": 0.433333
            },
            {
              "pitch": 36,
              "velocity": 77,
              "position": 16.016667,
              "duration": 0.383333
            },
            {
              "pitch": 36,
              "velocity": 77,
              "position": 17.016667,
              "duration": 0.433333
            },
            {
              "pitch": 31,
              "velocity": 39,
              "position": 17.691667,
              "duration": 0.2
            },
            {
              "pitch": 36,
              "velocity": 77,
              "position": 18.016667,
              "duration": 0.408333
            },
            {
              "pitch": 36,
              "velocity": 77,
              "position": 18.991667,
              "duration": 0.4
            },
            {
              "pitch": 31,
              "velocity": 51,
              "position": 19.691667,
              "duration": 0.183333
            },
            {
              "pitch": 36,
              "velocity": 77,
              "position": 20.0,
              "duration": 0.483333
            },
            {
              "pitch": 36,
              "velocity": 77,
              "position": 21.016667,
              "duration": 0.508333
            },
            {
              "pitch": 31,
              "velocity": 52,
              "position": 21.716667,
              "duration": 0.183333
            },
            {
              "pitch": 36,
              "velocity": 77,
              "position": 22.008333,
              "duration": 0.341667
            },
            {
              "pitch": 31,
              "velocity": 56,
              "position": 22.683333,
              "duration": 0.158333
            },
            {
              "pitch": 36,
              "velocity": 77,
              "position": 23.008333,
              "duration": 0.433333
            },
            {
              "pitch": 31,
              "velocity": 63,
              "position": 23.666667,
              "duration": 0.183333
            }
          ]
        },
        "11": {
          "ctab": {
            "srcChannel": 11,
            "name": "Piano",
            "accType": "CHORD1",
            "editable": true,
            "mutedNotes": [],
            "mutedChords": [],
            "sourceChordNote": 0,
            "sourceChordType": "Maj7",
            "ctb2Main": {
              "ntr": "ROOT_FIXED",
              "ntt": "CHORD",
              "bassOn": false,
              "noteLowLimit": 48,
              "noteHighLimit": 84,
              "chordRootUpperLimit": 127,
              "rtr": "NOTE_GENERATOR"
            }
          },
          "notes": [
            {
              "pitch": 48,
              "velocity": 65,
              "position": 8.025,
              "duration": 0.233333
            },
            {
              "pitch": 59,
              "velocity": 58,
              "position": 8.025,
              "duration": 0.216667
            },
            {
              "pitch": 60,
              "velocity": 60,
              "position": 8.025,
              "duration": 0.3
            },
            {
              "pitch": 55,
              "velocity": 41,
              "position": 8.058333,
              "duration": 0.166667
            },
            {
              "pitch": 55,
              "velocity": 56,
              "position": 8.991667,
              "duration": 0.258333
            },
            {
              "pitch": 59,
              "velocity": 74,
              "position": 8.991667,
              "duration": 0.208333
            },
            {
              "pitch": 60,
              "velocity": 59,
              "position": 9.016667,
              "duration": 0.233333
            },
            {
              "pitch": 59,
              "velocity": 66,
              "position": 10.033333,
              "duration": 0.133333
            },
            {
              "pitch": 60,
              "velocity": 64,
              "position": 10.033333,
              "duration": 0.233333
            },
            {
              "pitch": 48,
              "velocity": 71,
              "position": 10.041667,
              "duration": 0.233333
            },
            {
              "pitch": 55,
              "velocity": 62,
              "position": 10.05,
              "duration": 0.233333
            },
            {
              "pitch": 48,
              "velocity": 52,
              "position": 11.008333,
              "duration": 0.133333
            },
            {
              "pitch": 59,
              "velocity": 59,
              "position": 11.016667,
              "duration": 0.208333
            },
            {
              "pitch": 55,
              "velocity": 49,
              "position": 11.033333,
              "duration": 0.125
            },
            {
              "pitch": 59,
              "velocity": 66,
              "position": 12.033333,
              "duration": 0.133333
            },
            {
              "pitch": 60,
              "velocity": 64,
              "position": 12.033333,
              "duration": 0.233333
            },
            {
              "pitch": 48,
              "velocity": 71,
              "position": 12.041667,
              "duration": 0.233333
            },
            {
              "pitch": 55,
              "velocity": 62,
              "position": 12.05,
              "duration": 0.233333
            },
            {
              "pitch": 48,
              "velocity": 52,
              "position": 13.008333,
              "duration": 0.133333
            },
            {
              "pitch": 59,
              "velocity": 59,
              "position": 13.016667,
              "duration": 0.208333
            },
            {
              "pitch": 55,
              "velocity": 49,
              "position": 13.033333,
              "duration": 0.125
            },
            {
              "pitch": 59,
              "velocity": 66,
              "position": 14.033333,
              "duration": 0.133333
            },
            {
              "pitch": 60,
              "velocity": 64,
              "position": 14.033333,
              "duration": 0.233333
            },
            {
              "pitch": 48,
              "velocity": 71,
              "position": 14.041667,
              "duration": 0.233333
            },
            {
              "pitch": 55,
              "velocity": 62,
              "position": 14.05,
              "duration": 0.233333
            },
            {
              "pitch": 48,
              "velocity": 52,
              "position": 15.008333,
              "duration": 0.133333
            },
            {
              "pitch": 59,
              "velocity": 59,
              "position": 15.016667,
              "duration": 0.208333
            },
            {
              "pitch": 55,
              "velocity": 49,
              "position": 15.033333,
              "duration": 0.125
            },
            {
              "pitch": 59,
              "velocity": 66,
              "position": 16.033333,
              "duration": 0.133333
            },
            {
              "pitch": 60,
              "velocity": 64,
              "position": 16.033333,
              "duration": 0.233333
            },
            {
              "pitch": 48,
              "velocity": 71,
              "position": 16.041667,
              "duration": 0.233333
            },
            {
              "pitch": 55,
              "velocity": 62,
              "position": 16.05,
              "duration": 0.233333
            },
            {
              "pitch": 48,
              "velocity": 52,
              "position": 17.008333,
              "duration": 0.133333
            },
            {
              "pitch": 59,
              "velocity": 59,
              "position": 17.016667,
              "duration": 0.208333
            },
            {
              "pitch": 55,
              "velocity": 49,
              "position": 17.033333,
              "duration": 0.125
            },
            {
              "pitch": 48,
              "velocity": 41,
              "position": 18.05,
              "duration": 0.216667
            },
            {
              "pitch": 55,
              "velocity": 39,
              "position": 18.05,
              "duration": 0.191667
            },
            {
              "pitch": 59,
              "velocity": 59,
              "position": 18.05,
              "duration": 0.133333
            },
            {
              "pitch": 48,
              "velocity": 49,
              "position": 19.008333,
              "duration": 0.183333
            },
            {
              "pitch": 55,
              "velocity": 50,
              "position": 19.066667,
              "duration": 0.183333
            },
            {
              "pitch": 59,
              "velocity": 66,
              "position": 19.066667,
              "duration": 0.125
            },
            {
              "pitch": 48,
              "velocity": 68,
              "position": 19.991667,
              "duration": 0.275
            },
            {
              "pitch": 55,
              "velocity": 61,
              "position": 20.025,
              "duration": 0.216667
            },
            {
              "pitch": 59,
              "velocity": 81,
              "position": 20.025,
              "duration": 0.158333
            },
            {
              "pitch": 60,
              "velocity": 65,
              "position": 20.05,
              "duration": 0.158333
            },
            {
              "pitch": 48,
              "velocity": 50,
              "position": 20.983333,
              "duration": 0.266667
            },
            {
              "pitch": 55,
              "velocity": 54,
              "position": 21.008333,
              "duration": 0.266667
            },
            {
              "pitch": 59,
              "velocity": 70,
              "position": 21.008333,
              "duration": 0.183333
            },
            {
              "pitch": 60,
              "velocity": 52,
              "position": 21.041667,
              "duration": 0.15
            },
            {
              "pitch": 55,
              "velocity": 56,
              "position": 22.025,
              "duration": 0.266667
            },
            {
              "pitch": 59,
              "velocity": 77,
              "position": 22.025,
              "duration": 0.216667
            },
            {
              "pitch": 48,
              "velocity": 44,
              "position": 22.05,
              "duration": 0.191667
            },
            {
              "pitch": 60,
              "velocity": 57,
              "position": 22.05,
              "duration": 0.216667
            },
            {
              "pitch": 48,
              "velocity": 64,
              "position": 22.716667,
              "duration": 0.208333
            },
            {
              "pitch": 59,
              "velocity": 85,
              "position": 23.025,
              "duration": 0.183333
            },
            {
              "pitch": 60,
              "velocity": 80,
              "position": 23.025,
              "duration": 0.241667
            },
            {
              "pitch": 55,
              "velocity": 64,
              "position": 23.033333,
              "duration": 0.241667
            },
            {
              "pitch": 48,
              "velocity": 66,
              "position": 23.708333,
              "duration": 0.191667
            }
          ]
        },
        "12": {
          "ctab": {
            "srcChannel": 12,
            "name": "Guitar",
            "accType": "CHORD2",
            "editable": true,
            "mutedNotes": [],
            "mutedChords": [],
            "sourceChordNote": 0,
            "sourceChordType": "Maj7",
            "ctb2Main": {
              "ntr": "ROOT_FIXED",
              "ntt": "CHORD",
              "bassOn": false,
              "noteLowLimit": 40,
              "noteHighLimit": 76,
              "chordRootUpperLimit": 127,
              "rtr": "NOTE_GENERATOR"
            }
          },
          "notes": [
            {
              "pitch": 48,
              "velocity": 59,
              "position": 8.008333,
              "duration": 0.25
            },
            {
              "pitch": 55,
              "velocity": 59,
              "position": 8.008333,
              "duration": 0.25
            },
            {
              "pitch": 48,
              "velocity": 59,
              "position": 9.008333,
              "duration": 0.25
            },
            {
              "pitch": 55,
              "velocity": 59,
              "position": 9.008333,
              "duration": 0.25
            },
            {
              "pitch": 48,
              "velocity": 59,
              "position": 10.0,
              "duration": 0.25
            },
            {
              "pitch": 55,
              "velocity": 59,
              "position": 10.0,
              "duration": 0.25
            },
            {
              "pitch": 48,
              "velocity": 59,
              "position": 11.0,
              "duration": 0.25
            },
            {
              "pitch": 55,
              "velocity": 59,
              "position": 11.0,
              "duration": 0.25
            },
            {
              "pitch": 48,
              "velocity": 59,
              "position": 12.016667,
              "duration": 0.5
            },
            {
              "pitch": 55,
              "velocity": 59,
              "position": 12.016667,
              "duration": 0.5
            },
            {
              "pitch": 48,
              "velocity": 59,
              "position": 13.016667,
              "duration": 0.291667
            },
            {
              "pitch": 55,
              "velocity": 59,
              "position": 13.016667,
              "duration": 0.166667
            },
            {
              "pitch": 48,
              "velocity": 59,
              "position": 14.0,
              "duration": 0.25
            },
            {
              "pitch": 55,
              "velocity": 59,
              "position": 14.0,
              "duration": 0.25
            },
            {
              "pitch": 48,
              "velocity": 59,
              "position": 15.0,
              "duration": 0.25
            },
            {
              "pitch": 55,
              "velocity": 59,
              "position": 15.0,
              "duration": 0.25
            },
            {
              "pitch": 48,
              "velocity": 59,
              "position": 16.008333,
              "duration": 0.25
            },
            {
              "pitch": 55,
              "velocity": 59,
              "position": 16.008333,
              "duration": 0.25
            },
            {
              "pitch": 48,
              "velocity": 59,
              "position": 17.008333,
              "duration": 0.25
            },
            {
              "pitch": 55,
              "velocity": 59,
              "position": 17.008333,
              "duration": 0.25
            },
            {
              "pitch": 48,
              "velocity": 59,
              "position": 18.008333,
              "duration": 0.25
            },
            {
              "pitch": 55,
              "velocity": 59,
              "position": 18.008333,
              "duration": 0.25
            },
            {
              "pitch": 48,
              "velocity": 59,
              "position": 19.008333,
              "duration": 0.25
            },
            {
              "pitch": 55,
              "velocity": 59,
              "position": 19.008333,
              "duration": 0.25
            },
            {
              "pitch": 48,
              "velocity": 59,
              "position": 20.008333,
              "duration": 0.25
            },
            {
              "pitch": 55,
              "velocity": 59,
              "position": 20.008333,
              "duration": 0.25
            },
            {
              "pitch": 48,
              "velocity": 59,
              "position": 21.008333,
              "duration": 0.25
            },
            {
              "pitch": 55,
              "velocity": 59,
              "position": 21.008333,
              "duration": 0.25
            },
            {
              "pitch": 48,
              "velocity": 59,
              "position": 22.008333,
              "duration": 0.25
            },
            {
              "pitch": 55,
              "velocity": 59,
              "position": 22.008333,
              "duration": 0.25
            },
            {
              "pitch": 48,
              "velocity": 59,
              "position": 23.008333,
              "duration": 0.6
            },
            {
              "pitch": 55,
              "velocity": 59,
              "position": 23.008333,
              "duration": 0.408333
            }
          ]
        },
        "13": {
          "ctab": {
            "srcChannel": 13,
            "name": "Strings",
            "accType": "PAD",
            "editable": true,
            "mutedNotes": [],
            "mutedChords": [],
            "sourceChordNote": 0,
            "sourceChordType": "Maj7",
            "ctb2Main": {
              "ntr": "ROOT_FIXED",
              "ntt": "MELODY",
              "bassOn": false,
              "noteLowLimit": 36,
              "noteHighLimit": 96,
              "chordRootUpperLimit": 127,
              "rtr": "PITCH_SHIFT"
            }
          },
          "notes": [
            {
              "pitch": 48,
              "velocity": 54,
              "position": 8.0,
              "duration": 0.358333
            },
            {
              "pitch": 52,
              "velocity": 64,
              "position": 8.008333,
              "duration": 0.35
            },
            {
              "pitch": 55,
              "velocity": 64,
              "position": 8.016667,
              "duration": 0.341667
            },
            {
              "pitch": 59,
              "velocity": 64,
              "position": 8.033333,
              "duration": 0.325
            },
            {
              "pitch": 48,
              "velocity": 65,
              "position": 9.0,
              "duration": 0.183333
            },
            {
              "pitch": 52,
              "velocity": 77,
              "position": 9.008333,
              "duration": 0.033333
            },
            {
              "pitch": 55,
              "velocity": 77,
              "position": 9.016667,
              "duration": 0.166667
            },
            {
              "pitch": 59,
              "velocity": 77,
              "position": 9.033333,
              "duration": 0.15
            },
            {
              "pitch": 48,
              "velocity": 54,
              "position": 9.658333,
              "duration": 0.475
            },
            {
              "pitch": 52,
              "velocity": 64,
              "position": 9.666667,
              "duration": 0.466667
            },
            {
              "pitch": 55,
              "velocity": 64,
              "position": 9.675,
              "duration": 0.458333
            },
            {
              "pitch": 59,
              "velocity": 64,
              "position": 9.691667,
              "duration": 0.441667
            },
            {
              "pitch": 48,
              "velocity": 40,
              "position": 10.65,
              "duration": 0.183333
            },
            {
              "pitch": 52,
              "velocity": 48,
              "position": 10.658333,
              "duration": 0.175
            },
            {
              "pitch": 55,
              "velocity": 48,
              "position": 10.666667,
              "duration": 0.166667
            },
            {
              "pitch": 59,
              "velocity": 48,
              "position": 10.683333,
              "duration": 0.15
            },
            {
              "pitch": 48,
              "velocity": 65,
              "position": 11.0,
              "duration": 0.183333
            },
            {
              "pitch": 52,
              "velocity": 77,
              "position": 11.008333,
              "duration": 0.175
            },
            {
              "pitch": 55,
              "velocity": 77,
              "position": 11.016667,
              "duration": 0.166667
            },
            {
              "pitch": 59,
              "velocity": 77,
              "position": 11.033333,
              "duration": 0.15
            },
            {
              "pitch": 52,
              "velocity": 37,
              "position": 11.683333,
              "duration": 0.208333
            },
            {
              "pitch": 48,
              "velocity": 50,
              "position": 12.0,
              "duration": 0.941667
            },
            {
              "pitch": 52,
              "velocity": 59,
              "position": 12.008333,
              "duration": 0.933333
            },
            {
              "pitch": 55,
              "velocity": 59,
              "position": 12.016667,
              "duration": 0.925
            },
            {
              "pitch": 59,
              "velocity": 59,
              "position": 12.033333,
              "duration": 0.908333
            },
            {
              "pitch": 48,
              "velocity": 59,
              "position": 13.0,
              "duration": 0.2
            },
            {
              "pitch": 52,
              "velocity": 70,
              "position": 13.008333,
              "duration": 0.191667
            },
            {
              "pitch": 55,
              "velocity": 70,
              "position": 13.016667,
              "duration": 0.183333
            },
            {
              "pitch": 59,
              "velocity": 70,
              "position": 13.033333,
              "duration": 0.166667
            },
            {
              "pitch": 48,
              "velocity": 28,
              "position": 13.666667,
              "duration": 0.183333
            },
            {
              "pitch": 52,
              "velocity": 33,
              "position": 13.675,
              "duration": 0.175
            },
            {
              "pitch": 55,
              "velocity": 33,
              "position": 13.683333,
              "duration": 0.166667
            },
            {
              "pitch": 59,
              "velocity": 33,
              "position": 13.7,
              "duration": 0.15
            },
            {
              "pitch": 48,
              "velocity": 54,
              "position": 14.0,
              "duration": 0.591667
            },
            {
              "pitch": 52,
              "velocity": 64,
              "position": 14.008333,
              "duration": 0.583333
            },
            {
              "pitch": 55,
              "velocity": 64,
              "position": 14.016667,
              "duration": 0.575
            },
            {
              "pitch": 59,
              "velocity": 64,
              "position": 14.033333,
              "duration": 0.558333
            },
            {
              "pitch": 48,
              "velocity": 29,
              "position": 14.666667,
              "duration": 0.183333
            },
            {
              "pitch": 52,
              "velocity": 35,
              "position": 14.675,
              "duration": 0.175
            },
            {
              "pitch": 55,
              "velocity": 35,
              "position": 14.683333,
              "duration": 0.166667
            },
            {
              "pitch": 59,
              "velocity": 35,
              "position": 14.7,
              "duration": 0.15
            },
            {
              "pitch": 48,
              "velocity": 65,
              "position": 15.0,
              "duration": 0.275
            },
            {
              "pitch": 52,
              "velocity": 77,
              "position": 15.008333,
              "duration": 0.266667
            },
            {
              "pitch": 55,
              "velocity": 77,
              "position": 15.016667,
              "duration": 0.258333
            },
            {
              "pitch": 59,
              "velocity": 77,
              "position": 15.033333,
              "duration": 0.241667
            },
            {
              "pitch": 48,
              "velocity": 24,
              "position": 15.666667,
              "duration": 0.291667
            },
            {
              "pitch": 52,
              "velocity": 29,
              "position": 15.675,
              "duration": 0.283333
            },
            {
              "pitch": 55,
              "velocity": 29,
              "position": 15.683333,
              "duration": 0.275
            },
            {
              "pitch": 59,
              "velocity": 29,
              "position": 15.7,
              "duration": 0.258333
            },
            {
              "pitch": 48,
              "velocity": 54,
              "position": 16.0,
              "duration": 0.358333
            },
            {
              "pitch": 52,
              "velocity": 64,
              "position": 16.008333,
              "duration": 0.35
            },
            {
              "pitch": 55,
              "velocity": 64,
              "position": 16.016667,
              "duration": 0.341667
            },
            {
              "pitch": 59,
              "velocity": 64,
              "position": 16.033333,
              "duration": 0.325
            },
            {
              "pitch": 48,
              "velocity": 65,
              "position": 17.0,
              "duration": 0.183333
            },
            {
              "pitch": 52,
              "velocity": 77,
              "position": 17.008333,
              "duration": 0.175
            },
            {
              "pitch": 55,
              "velocity": 77,
              "position": 17.016667,
              "duration": 0.166667
            },
            {
              "pitch": 59,
              "velocity": 77,
              "position": 17.033333,
              "duration": 0.15
            },
            {
              "pitch": 52,
              "velocity": 37,
              "position": 17.683333,
              "duration": 0.208333
            },
            {
              "pitch": 48,
              "velocity": 51,
              "position": 18.0,
              "duration": 0.241667
            },
            {
              "pitch": 52,
              "velocity": 61,
              "position": 18.008333,
              "duration": 0.233333
            },
            {
              "pitch": 55,
              "velocity": 61,
              "position": 18.016667,
              "duration": 0.225
            },
            {
              "pitch": 59,
              "velocity": 61,
              "position": 18.033333,
              "duration": 0.208333
            },
            {
              "pitch": 48,
              "velocity": 67,
              "position": 19.0,
              "duration": 0.183333
            },
            {
              "pitch": 52,
              "velocity": 79,
              "position": 19.008333,
              "duration": 0.175
            },
            {
              "pitch": 55,
              "velocity": 79,
              "position": 19.016667,
              "duration": 0.166667
            },
            {
              "pitch": 59,
              "velocity": 79,
              "position": 19.033333,
              "duration": 0.15
            },
            {
              "pitch": 52,
              "velocity": 35,
              "position": 19.683333,
              "duration": 0.191667
            },
            {
              "pitch": 48,
              "velocity": 46,
              "position": 20.0,
              "duration": 0.25
            },
            {
              "pitch": 52,
              "velocity": 55,
              "position": 20.008333,
              "duration": 0.241667
            },
            {
              "pitch": 55,
              "velocity": 55,
              "position": 20.016667,
              "duration": 0.233333
            },
            {
              "pitch": 59,
              "velocity": 55,
              "position": 20.033333,
              "duration": 0.216667
            },
            {
              "pitch": 48,
              "velocity": 65,
              "position": 21.0,
              "duration": 0.183333
            },
            {
              "pitch": 52,
              "velocity": 77,
              "position": 21.008333,
              "duration": 0.175
            },
            {
              "pitch": 55,
              "velocity": 77,
              "position": 21.016667,
              "duration": 0.166667
            },
            {
              "pitch": 59,
              "velocity": 77,
              "position": 21.033333,
              "duration": 0.15
            },
            {
              "pitch": 52,
              "velocity": 44,
              "position": 21.683333,
              "duration": 0.183333
            },
            {
              "pitch": 48,
              "velocity": 40,
              "position": 22.0,
              "duration": 0.183333
            },
            {
              "pitch": 52,
              "velocity": 48,
              "position": 22.008333,
              "duration": 0.175
            },
            {
              "pitch": 55,
              "velocity": 48,
              "position": 22.016667,
              "duration": 0.166667
            },
            {
              "pitch": 59,
              "velocity": 48,
              "position": 22.033333,
              "duration": 0.15
            },
            {
              "pitch": 52,
              "velocity": 33,
              "position": 22.683333,
              "duration": 0.208333
            },
            {
              "pitch": 48,
              "velocity": 59,
              "position": 23.0,
              "duration": 0.183333
            },
            {
              "pitch": 52,
              "velocity": 70,
              "position": 23.008333,
              "duration": 0.175
            },
            {
              "pitch": 55,
              "velocity": 70,
              "position": 23.016667,
              "duration": 0.166667
            },
            {
              "pitch": 59,
              "velocity": 70,
              "position": 23.033333,
              "duration": 0.15
            },
            {
              "pitch": 52,
              "velocity": 37,
              "position": 23.683333,
              "duration": 0.241667
            }
          ]
        }
      }
    },
    "Main_A": {
      "type": "Main_A",
      "sizeInBeats": 16,
      "channels": {
        "9": {
          "ctab": {
            "srcChannel": 9,
            "name": "Drums",
            "accType": "RHYTHM",
            "editable": false,
            "mutedNotes": [],
            "mutedChords": [],
            "sourceChordNote": 0,
            "sourceChordType": "Maj",
            "ctb2Main": {
              "ntr": "ROOT_FIXED",
              "ntt": "BYPASS",
              "bassOn": false,
              "noteLowLimit": 20,
              "noteHighLimit": 127,
              "chordRootUpperLimit": 127,
              "rtr": "RETRIGGER"
            }
          },
          "notes": [
            {
              "pitch": 31,
              "velocity": 60,
              "position": 0.0,
              "duration": 0.208333
            },
            {
              "pitch": 35,
              "velocity": 70,
              "position": 0.0,
              "duration": 0.208333
            },
            {
              "pitch": 49,
              "velocity": 60,
              "position": 0.0,
              "duration": 0.208333
            },
            {
              "pitch": 31,
              "velocity": 70,
              "position": 1.0,
              "duration": 0.208333
            },
            {
              "pitch": 35,
              "velocity": 80,
              "position": 1.0,
              "duration": 0.208333
            },
            {
              "pitch": 37,
              "velocity": 50,
              "position": 1.0,
              "duration": 0.208333
            },
            {
              "pitch": 38,
              "velocity": 80,
              "position": 1.0,
              "duration": 0.208333
            },
            {
              "pitch": 39,
              "velocity": 84,
              "position": 1.0,
              "duration": 0.208333
            },
            {
              "pitch": 42,
              "velocity": 80,
              "position": 1.0,
              "duration": 0.208333
            },
            {
              "pitch": 63,
              "velocity": 50,
              "position": 1.0,
              "duration": 0.208333
            },
            {
              "pitch": 31,
              "velocity": 50,
              "position": 2.0,
              "duration": 0.208333
            },
            {
              "pitch": 35,
              "velocity": 70,
              "position": 2.0,
              "duration": 0.208333
            },
            {
              "pitch": 42,
              "velocity": 70,
              "position": 2.0,
              "duration": 0.208333
            },
            {
              "pitch": 31,
              "velocity": 70,
              "position": 3.0,
              "duration": 0.208333
            },
            {
              "pitch": 35,
              "velocity": 80,
              "position": 3.0,
              "duration": 0.208333
            },
            {
              "pitch": 37,
              "velocity": 50,
              "position": 3.0,
              "duration": 0.208333
            },
            {
              "pitch": 38,
              "velocity": 80,
              "position": 3.0,
              "duration": 0.208333
            },
            {
              "pitch": 39,
              "velocity": 80,
              "position": 3.0,
              "duration": 0.208333
            },
            {
              "pitch": 42,
              "velocity": 80,
              "position": 3.0,
              "duration": 0.208333
            },
            {
              "pitch": 63,
              "velocity": 60,
              "position": 3.0,
              "duration": 0.208333
            },
            {
              "pitch": 38,
              "velocity": 60,
              "position": 3.716667,
              "duration": 0.208333
            },
            {
              "pitch": 31,
              "velocity": 50,
              "position": 4.0,
              "duration": 0.208333
            },
            {
              "pitch": 35,
              "velocity": 70,
              "position": 4.0,
              "duration": 0.208333
            },
            {
              "pitch": 42,
              "velocity": 70,
              "position": 4.0,
              "duration": 0.208333
            },
            {
              "pitch": 38,
              "velocity": 40,
              "position": 4.716667,
              "duration": 0.208333
            },
            {
              "pitch": 31,
              "velocity": 70,
              "position": 5.0,
              "duration": 0.208333
            },
            {
              "pitch": 35,
              "velocity": 80,
              "position": 5.0,
              "duration": 0.208333
            },
            {
              "pitch": 37,
              "velocity": 50,
              "position": 5.0,
              "duration": 0.208333
            },
            {
              "pitch": 38,
              "velocity": 80,
              "position": 5.0,
              "duration": 0.208333
            },
            {
              "pitch": 39,
              "velocity": 80,
              "position": 5.0,
              "duration": 0.208333
            },
            {
              "pitch": 42,
              "velocity": 80,
              "position": 5.0,
              "duration": 0.208333
            },
            {
              "pitch": 63,
              "velocity": 50,
              "position": 5.0,
              "duration": 0.208333
            },
            {
              "pitch": 31,
              "velocity": 50,
              "position": 6.0,
              "duration": 0.208333
            },
            {
              "pitch": 35,
              "velocity": 70,
              "position": 6.0,
              "duration": 0.208333
            },
            {
              "pitch": 42,
              "velocity": 70,
              "position": 6.0,
              "duration": 0.208333
            },
            {
              "pitch": 31,
              "velocity": 25,
              "position": 6.716667,
              "duration": 0.208333
            },
            {
              "pitch": 38,
              "velocity": 40,
              "position": 6.716667,
              "duration": 0.208333
            },
            {
              "pitch": 46,
              "velocity": 50,
              "position": 6.716667,
              "duration": 0.208333
            },
            {
              "pitch": 31,
              "velocity": 70,
              "position": 7.0,
              "duration": 0.208333
            },
            {
              "pitch": 35,
              "velocity": 80,
              "position": 7.0,
              "duration": 0.208333
            },
            {
              "pitch": 37,
              "velocity": 50,
              "position": 7.0,
              "duration": 0.208333
            },
            {
              "pitch": 38,
              "velocity": 80,
              "position": 7.0,
              "duration": 0.208333
            },
            {
              "pitch": 39,
              "velocity": 90,
              "position": 7.0,
              "duration": 0.208333
            },
            {
              "pitch": 42,
              "velocity": 80,
              "position": 7.0,
              "duration": 0.208333
            },
            {
              "pitch": 63,
              "velocity": 60,
              "position": 7.0,
              "duration": 0.208333
            },
            {
              "pitch": 31,
              "velocity": 29,
              "position": 7.716667,
              "duration": 0.208333
            },
            {
              "pitch": 38,
              "velocity": 40,
              "position": 7.716667,
              "duration": 0.208333
            },
            {
              "pitch": 31,
              "velocity": 50,
              "position": 8.0,
              "duration": 0.208333
            },
            {
              "pitch": 35,
              "velocity": 70,
              "position": 8.0,
              "duration": 0.208333
            },
            {
              "pitch": 42,
              "velocity": 70,
              "position": 8.0,
              "duration": 0.208333
            },
            {
              "pitch": 31,
              "velocity": 25,
              "position": 8.716667,
              "duration": 0.208333
            },
            {
              "pitch": 31,
              "velocity": 70,
              "position": 9.0,
              "duration": 0.208333
            },
            {
              "pitch": 35,
              "velocity": 80,
              "position": 9.0,
              "duration": 0.208333
            },
            {
              "pitch": 37,
              "velocity": 50,
              "position": 9.0,
              "duration": 0.208333
            },
            {
              "pitch": 38,
              "velocity": 80,
              "position": 9.0,
              "duration": 0.208333
            },
            {
              "pitch": 39,
              "velocity": 85,
              "position": 9.0,
              "duration": 0.208333
            },
            {
              "pitch": 42,
              "velocity": 80,
              "position": 9.0,
              "duration": 0.208333
            },
            {
              "pitch": 63,
              "velocity": 50,
              "position": 9.0,
              "duration": 0.208333
            },
            {
              "pitch": 38,
              "velocity": 35,
              "position": 9.716667,
              "duration": 0.208333
            },
            {
              "pitch": 31,
              "velocity": 50,
              "position": 10.0,
              "duration": 0.208333
            },
            {
              "pitch": 35,
              "velocity": 70,
              "position": 10.0,
              "duration": 0.208333
            },
            {
              "pitch": 42,
              "velocity": 70,
              "position": 10.0,
              "duration": 0.208333
            },
            {
              "pitch": 31,
              "velocity": 70,
              "position": 11.0,
              "duration": 0.208333
            },
            {
              "pitch": 35,
              "velocity": 80,
              "position": 11.0,
              "duration": 0.208333
            },
            {
              "pitch": 37,
              "velocity": 50,
              "position": 11.0,
              "duration": 0.208333
            },
            {
              "pitch": 38,
              "velocity": 80,
              "position": 11.0,
              "duration": 0.208333
            },
            {
              "pitch": 39,
              "velocity": 87,
              "position": 11.0,
              "duration": 0.208333
            },
            {
              "pitch": 42,
              "velocity": 80,
              "position": 11.0,
              "duration": 0.208333
            },
            {
              "pitch": 63,
              "velocity": 60,
              "position": 11.0,
              "duration": 0.208333
            },
            {
              "pitch": 31,
              "velocity": 30,
              "position": 11.716667,
              "duration": 0.208333
            },
            {
              "pitch": 38,
              "velocity": 30,
              "position": 11.716667,
              "duration": 0.208333
            },
            {
              "pitch": 31,
              "velocity": 50,
              "position": 12.0,
              "duration": 0.208333
            },
            {
              "pitch": 35,
              "velocity": 70,
              "position": 12.0,
              "duration": 0.208333
            },
            {
              "pitch": 42,
              "velocity": 70,
              "position": 12.0,
              "duration": 0.208333
            },
            {
              "pitch": 31,
              "velocity": 70,
              "position": 13.0,
              "duration": 0.208333
            },
            {
              "pitch": 35,
              "velocity": 80,
              "position": 13.0,
              "duration": 0.208333
            },
            {
              "pitch": 37,
              "velocity": 50,
              "position": 13.0,
              "duration": 0.208333
            },
            {
              "pitch": 38,
              "velocity": 80,
              "position": 13.0,
              "duration": 0.208333
            },
            {
              "pitch": 39,
              "velocity": 70,
              "position": 13.0,
              "duration": 0.208333
            },
            {
              "pitch": 42,
              "velocity": 80,
              "position": 13.0,
              "duration": 0.208333
            },
            {
              "pitch": 63,
              "velocity": 50,
              "position": 13.0,
              "duration": 0.208333
            },
            {
              "pitch": 38,
              "velocity": 90,
              "position": 13.716667,
              "duration": 0.208333
            },
            {
              "pitch": 31,
              "velocity": 50,
              "position": 14.0,
              "duration": 0.208333
            },
            {
              "pitch": 35,
              "velocity": 70,
              "position": 14.0,
              "duration": 0.208333
            },
            {
              "pitch": 42,
              "velocity": 70,
              "position": 14.0,
              "duration": 0.208333
            },
            {
              "pitch": 31,
              "velocity": 40,
              "position": 14.716667,
              "duration": 0.208333
            },
            {
              "pitch": 38,
              "velocity": 90,
              "position": 14.716667,
              "duration": 0.208333
            },
            {
              "pitch": 31,
              "velocity": 70,
              "position": 15.0,
              "duration": 0.208333
            },
            {
              "pitch": 35,
              "velocity": 80,
              "position": 15.0,
              "duration": 0.208333
            },
            {
              "pitch": 37,
              "velocity": 50,
              "position": 15.0,
              "duration": 0.208333
            },
            {
              "pitch": 38,
              "velocity": 80,
              "position": 15.0,
              "duration": 0.208333
            },
            {
              "pitch": 39,
              "velocity": 80,
              "position": 15.0,
              "duration": 0.208333
            },
            {
              "pitch": 42,
              "velocity": 80,
              "position": 15.0,
              "duration": 0.208333
            },
            {
              "pitch": 63,
              "velocity": 60,
              "position": 15.0,
              "duration": 0.208333
            },
            {
              "pitch": 38,
              "velocity": 70,
              "position": 15.333333,
              "duration": 0.208333
            },
            {
              "pitch": 38,
              "velocity": 40,
              "position": 15.716667,
              "duration": 0.208333
            }
          ]
        },
        "10": {
          "ctab": {
            "srcChannel": 10,
            "name": "Bass",
            "accType": "BASS",
            "editable": true,
            "mutedNotes": [],
            "mutedChords": [],
            "sourceChordNote": 0,
            "sourceChordType": "Maj7",
            "ctb2Main": {
              "ntr": "ROOT_TRANSPOSITION",
              "ntt": "BYPASS",
              "bassOn": true,
              "noteLowLimit": 20,
              "noteHighLimit": 60,
              "chordRootUpperLimit": 127,
              "rtr": "NOTE_GENERATOR"
            }
          },
          "notes": [
            {
              "pitch": 36,
              "velocity": 89,
              "position": 0.008333,
              "duration": 0.383333
            },
            {
              "pitch": 36,
              "velocity": 89,
              "position": 1.016667,
              "duration": 0.433333
            },
            {
              "pitch": 31,
              "velocity": 51,
              "position": 1.691667,
              "duration": 0.2
            },
            {
              "pitch": 36,
              "velocity": 83,
              "position": 2.008333,
              "duration": 0.383333
            },
            {
              "pitch": 36,
              "velocity": 64,
              "position": 2.666667,
              "duration": 0.316667
            },
            {
              "pitch": 31,
              "velocity": 83,
              "position": 3.016667,
              "duration": 0.433333
            },
            {
              "pitch": 36,
              "velocity": 89,
              "position": 4.008333,
              "duration": 0.383333
            },
            {
              "pitch": 36,
              "velocity": 89,
              "position": 5.016667,
              "duration": 0.433333
            },
            {
              "pitch": 31,
              "velocity": 51,
              "position": 5.691667,
              "duration": 0.2
            },
            {
              "pitch": 36,
              "velocity": 83,
              "position": 6.008333,
              "duration": 0.383333
            },
            {
              "pitch": 36,
              "velocity": 64,
              "position": 6.666667,
              "duration": 0.316667
            },
            {
              "pitch": 31,
              "velocity": 83,
              "position": 7.016667,
              "duration": 0.433333
            },
            {
              "pitch": 36,
              "velocity": 86,
              "position": 8.016667,
              "duration": 0.383333
            },
            {
              "pitch": 36,
              "velocity": 86,
              "position": 9.016667,
              "duration": 0.433333
            },
            {
              "pitch": 31,
              "velocity": 48,
              "position": 9.691667,
              "duration": 0.2
            },
            {
              "pitch": 36,
              "velocity": 86,
              "position": 10.016667,
              "duration": 0.408333
            },
            {
              "pitch": 36,
              "velocity": 86,
              "position": 10.991667,
              "duration": 0.4
            },
            {
              "pitch": 31,
              "velocity": 60,
              "position": 11.691667,
              "duration": 0.183333
            },
            {
              "pitch": 36,
              "velocity": 86,
              "position": 12.0,
              "duration": 0.483333
            },
            {
              "pitch": 36,
              "velocity": 86,
              "position": 13.016667,
              "duration": 0.508333
            },
            {
              "pitch": 31,
              "velocity": 61,
              "position": 13.716667,
              "duration": 0.183333
            },
            {
              "pitch": 36,
              "velocity": 86,
              "position": 14.008333,
              "duration": 0.341667
            },
            {
              "pitch": 31,
              "velocity": 65,
              "position": 14.683333,
              "duration": 0.158333
            },
            {
              "pitch": 36,
              "velocity": 86,
              "position": 15.008333,
              "duration": 0.433333
            },
            {
              "pitch": 31,
              "velocity": 72,
              "position": 15.666667,
              "duration": 0.183333
            }
          ]
        },
        "11": {
          "ctab": {
            "srcChannel": 11,
            "name": "Piano",
            "accType": "CHORD1",
            "editable": true,
            "mutedNotes": [],
            "mutedChords": [],
            "sourceChordNote": 0,
            "sourceChordType": "Maj7",
            "ctb2Main": {
              "ntr": "ROOT_FIXED",
              "ntt": "CHORD",
              "bassOn": false,
              "noteLowLimit": 48,
              "noteHighLimit": 84,
              "chordRootUpperLimit": 127,
              "rtr": "NOTE_GENERATOR"
            }
          },
          "notes": [
            {
              "pitch": 59,
              "velocity": 73,
              "position": 0.033333,
              "duration": 0.133333
            },
            {
              "pitch": 60,
              "velocity": 71,
              "position": 0.033333,
              "duration": 0.233333
            },
            {
              "pitch": 48,
              "velocity": 78,
              "position": 0.041667,
              "duration": 0.233333
            },
            {
              "pitch": 55,
              "velocity": 69,
              "position": 0.05,
              "duration": 0.233333
            },
            {
              "pitch": 48,
              "velocity": 59,
              "position": 1.008333,
              "duration": 0.133333
            },
            {
              "pitch": 59,
              "velocity": 66,
              "position": 1.016667,
              "duration": 0.208333
            },
            {
              "pitch": 55,
              "velocity": 56,
              "position": 1.033333,
              "duration": 0.125
            },
            {
              "pitch": 59,
              "velocity": 73,
              "position": 2.033333,
              "duration": 0.133333
            },
            {
              "pitch": 60,
              "velocity": 71,
              "position": 2.033333,
              "duration": 0.233333
            },
            {
              "pitch": 48,
              "velocity": 78,
              "position": 2.041667,
              "duration": 0.233333
            },
            {
              "pitch": 55,
              "velocity": 69,
              "position": 2.05,
              "duration": 0.233333
            },
            {
              "pitch": 48,
              "velocity": 59,
              "position": 3.008333,
              "duration": 0.133333
            },
            {
              "pitch": 59,
              "velocity": 66,
              "position": 3.016667,
              "duration": 0.208333
            },
            {
              "pitch": 55,
              "velocity": 56,
              "position": 3.033333,
              "duration": 0.125
            },
            {
              "pitch": 59,
              "velocity": 73,
              "position": 3.725,
              "duration": 0.425
            },
            {
              "pitch": 60,
              "velocity": 71,
              "position": 3.725,
              "duration": 0.525
            },
            {
              "pitch": 48,
              "velocity": 78,
              "position": 3.733333,
              "duration": 0.525
            },
            {
              "pitch": 55,
              "velocity": 69,
              "position": 3.741667,
              "duration": 0.525
            },
            {
              "pitch": 48,
              "velocity": 59,
              "position": 5.008333,
              "duration": 0.133333
            },
            {
              "pitch": 59,
              "velocity": 66,
              "position": 5.016667,
              "duration": 0.208333
            },
            {
              "pitch": 55,
              "velocity": 56,
              "position": 5.033333,
              "duration": 0.125
            },
            {
              "pitch": 48,
              "velocity": 73,
              "position": 5.716667,
              "duration": 0.525
            },
            {
              "pitch": 59,
              "velocity": 66,
              "position": 5.716667,
              "duration": 0.508333
            },
            {
              "pitch": 60,
              "velocity": 68,
              "position": 5.716667,
              "duration": 0.591667
            },
            {
              "pitch": 55,
              "velocity": 49,
              "position": 5.75,
              "duration": 0.458333
            },
            {
              "pitch": 55,
              "velocity": 64,
              "position": 6.991667,
              "duration": 0.258333
            },
            {
              "pitch": 59,
              "velocity": 82,
              "position": 6.991667,
              "duration": 0.208333
            },
            {
              "pitch": 60,
              "velocity": 67,
              "position": 7.016667,
              "duration": 0.233333
            },
            {
              "pitch": 59,
              "velocity": 73,
              "position": 8.033333,
              "duration": 0.133333
            },
            {
              "pitch": 60,
              "velocity": 71,
              "position": 8.033333,
              "duration": 0.233333
            },
            {
              "pitch": 48,
              "velocity": 78,
              "position": 8.041667,
              "duration": 0.233333
            },
            {
              "pitch": 55,
              "velocity": 69,
              "position": 8.05,
              "duration": 0.233333
            },
            {
              "pitch": 48,
              "velocity": 59,
              "position": 9.008333,
              "duration": 0.133333
            },
            {
              "pitch": 59,
              "velocity": 66,
              "position": 9.016667,
              "duration": 0.208333
            },
            {
              "pitch": 55,
              "velocity": 56,
              "position": 9.033333,
              "duration": 0.125
            },
            {
              "pitch": 48,
              "velocity": 48,
              "position": 10.05,
              "duration": 0.216667
            },
            {
              "pitch": 55,
              "velocity": 46,
              "position": 10.05,
              "duration": 0.191667
            },
            {
              "pitch": 59,
              "velocity": 66,
              "position": 10.05,
              "duration": 0.133333
            },
            {
              "pitch": 48,
              "velocity": 56,
              "position": 11.008333,
              "duration": 0.183333
            },
            {
              "pitch": 55,
              "velocity": 57,
              "position": 11.066667,
              "duration": 0.183333
            },
            {
              "pitch": 59,
              "velocity": 73,
              "position": 11.066667,
              "duration": 0.125
            },
            {
              "pitch": 48,
              "velocity": 75,
              "position": 11.991667,
              "duration": 0.275
            },
            {
              "pitch": 55,
              "velocity": 68,
              "position": 12.025,
              "duration": 0.216667
            },
            {
              "pitch": 59,
              "velocity": 88,
              "position": 12.025,
              "duration": 0.158333
            },
            {
              "pitch": 60,
              "velocity": 72,
              "position": 12.05,
              "duration": 0.158333
            },
            {
              "pitch": 48,
              "velocity": 57,
              "position": 12.983333,
              "duration": 0.266667
            },
            {
              "pitch": 55,
              "velocity": 61,
              "position": 13.008333,
              "duration": 0.266667
            },
            {
              "pitch": 59,
              "velocity": 77,
              "position": 13.008333,
              "duration": 0.183333
            },
            {
              "pitch": 60,
              "velocity": 59,
              "position": 13.041667,
              "duration": 0.15
            },
            {
              "pitch": 55,
              "velocity": 63,
              "position": 14.025,
              "duration": 0.266667
            },
            {
              "pitch": 59,
              "velocity": 84,
              "position": 14.025,
              "duration": 0.216667
            },
            {
              "pitch": 48,
              "velocity": 51,
              "position": 14.05,
              "duration": 0.191667
            },
            {
              "pitch": 60,
              "velocity": 64,
              "position": 14.05,
              "duration": 0.216667
            },
            {
              "pitch": 48,
              "velocity": 71,
              "position": 14.716667,
              "duration": 0.208333
            },
            {
              "pitch": 59,
              "velocity": 92,
              "position": 15.025,
              "duration": 0.183333
            },
            {
              "pitch": 60,
              "velocity": 87,
              "position": 15.025,
              "duration": 0.241667
            },
            {
              "pitch": 55,
              "velocity": 71,
              "position": 15.033333,
              "duration": 0.241667
            },
            {
              "pitch": 48,
              "velocity": 73,
              "position": 15.708333,
              "duration": 0.191667
            }
          ]
        },
        "12": {
          "ctab": {
            "srcChannel": 12,
            "name": "Guitar",
            "accType": "CHORD2",
            "editable": true,
            "mutedNotes": [],
            "mutedChords": [],
            "sourceChordNote": 0,
            "sourceChordType": "Maj7",
            "ctb2Main": {
              "ntr": "ROOT_FIXED",
              "ntt": "CHORD",
              "bassOn": false,
              "noteLowLimit": 40,
              "noteHighLimit": 76,
              "chordRootUpperLimit": 127,
              "rtr": "NOTE_GENERATOR"
            }
          },
          "notes": [
            {
              "pitch": 48,
              "velocity": 67,
              "position": 0.016667,
              "duration": 0.5
            },
            {
              "pitch": 55,
              "velocity": 67,
              "position": 0.016667,
              "duration": 0.5
            },
            {
              "pitch": 48,
              "velocity": 67,
              "position": 1.016667,
              "duration": 0.291667
            },
            {
              "pitch": 55,
              "velocity": 67,
              "position": 1.016667,
              "duration": 0.166667
            },
            {
              "pitch": 48,
              "velocity": 67,
              "position": 2.0,
              "duration": 0.5
            },
            {
              "pitch": 55,
              "velocity": 67,
              "position": 2.0,
              "duration": 0.5
            },
            {
              "pitch": 48,
              "velocity": 67,
              "position": 3.0,
              "duration": 0.291667
            },
            {
              "pitch": 55,
              "velocity": 67,
              "position": 3.0,
              "duration": 0.166667
            },
            {
              "pitch": 48,
              "velocity": 67,
              "position": 4.0,
              "duration": 0.5
            },
            {
              "pitch": 55,
              "velocity": 67,
              "position": 4.0,
              "duration": 0.5
            },
            {
              "pitch": 48,
              "velocity": 67,
              "position": 5.0,
              "duration": 0.291667
            },
            {
              "pitch": 55,
              "velocity": 67,
              "position": 5.0,
              "duration": 0.166667
            },
            {
              "pitch": 48,
              "velocity": 67,
              "position": 6.0,
              "duration": 0.5
            },
            {
              "pitch": 55,
              "velocity": 67,
              "position": 6.0,
              "duration": 0.5
            },
            {
              "pitch": 48,
              "velocity": 67,
              "position": 7.0,
              "duration": 0.291667
            },
            {
              "pitch": 55,
              "velocity": 67,
              "position": 7.0,
              "duration": 0.166667
            },
            {
              "pitch": 48,
              "velocity": 66,
              "position": 8.016667,
              "duration": 0.5
            },
            {
              "pitch": 55,
              "velocity": 66,
              "position": 8.016667,
              "duration": 0.5
            },
            {
              "pitch": 48,
              "velocity": 66,
              "position": 9.016667,
              "duration": 0.291667
            },
            {
              "pitch": 55,
              "velocity": 66,
              "position": 9.016667,
              "duration": 0.166667
            },
            {
              "pitch": 48,
              "velocity": 66,
              "position": 10.016667,
              "duration": 0.5
            },
            {
              "pitch": 55,
              "velocity": 66,
              "position": 10.016667,
              "duration": 0.5
            },
            {
              "pitch": 48,
              "velocity": 66,
              "position": 11.016667,
              "duration": 0.291667
            },
            {
              "pitch": 55,
              "velocity": 66,
              "position": 11.016667,
              "duration": 0.183333
            },
            {
              "pitch": 48,
              "velocity": 66,
              "position": 12.016667,
              "duration": 0.5
            },
            {
              "pitch": 55,
              "velocity": 66,
              "position": 12.016667,
              "duration": 0.5
            },
            {
              "pitch": 48,
              "velocity": 66,
              "position": 13.016667,
              "duration": 0.258333
            },
            {
              "pitch": 55,
              "velocity": 66,
              "position": 13.016667,
              "duration": 0.25
            },
            {
              "pitch": 48,
              "velocity": 66,
              "position": 14.016667,
              "duration": 0.5
            },
            {
              "pitch": 55,
              "velocity": 66,
              "position": 14.016667,
              "duration": 0.5
            },
            {
              "pitch": 48,
              "velocity": 66,
              "position": 15.016667,
              "duration": 0.166667
            },
            {
              "pitch": 55,
              "velocity": 66,
              "position": 15.016667,
              "duration": 0.308333
            }
          ]
        },
        "13": {
          "ctab": {
            "srcChannel": 13,
            "name": "Strings",
            "accType": "PAD",
            "editable": true,
            "mutedNotes": [],
            "mutedChords": [],
            "sourceChordNote": 0,
            "sourceChordType": "Maj7",
            "ctb2Main": {
              "ntr": "ROOT_FIXED",
              "ntt": "MELODY",
              "bassOn": false,
              "noteLowLimit": 36,
              "noteHighLimit": 96,
              "chordRootUpperLimit": 127,
              "rtr": "PITCH_SHIFT"
            }
          },
          "notes": [
            {
              "pitch": 48,
              "velocity": 54,
              "position": 0.0,
              "duration": 0.358333
            },
            {
              "pitch": 52,
              "velocity": 64,
              "position": 0.008333,
              "duration": 0.35
            },
            {
              "pitch": 55,
              "velocity": 64,
              "position": 0.016667,
              "duration": 0.341667
            },
            {
              "pitch": 59,
              "velocity": 64,
              "position": 0.033333,
              "duration": 0.325
            },
            {
              "pitch": 48,
              "velocity": 65,
              "position": 1.0,
              "duration": 0.183333
            },
            {
              "pitch": 52,
              "velocity": 77,
              "position": 1.008333,
              "duration": 0.175
            },
            {
              "pitch": 55,
              "velocity": 77,
              "position": 1.016667,
              "duration": 0.166667
            },
            {
              "pitch": 59,
              "velocity": 77,
              "position": 1.033333,
              "duration": 0.15
            },
            {
              "pitch": 52,
              "velocity": 37,
              "position": 1.683333,
              "duration": 0.208333
            },
            {
              "pitch": 48,
              "velocity": 54,
              "position": 2.0,
              "duration": 0.591667
            },
            {
              "pitch": 52,
              "velocity": 64,
              "position": 2.008333,
              "duration": 0.583333
            },
            {
              "pitch": 55,
              "velocity": 64,
              "position": 2.016667,
              "duration": 0.575
            },
            {
              "pitch": 59,
              "velocity": 64,
              "position": 2.033333,
              "duration": 0.558333
            },
            {
              "pitch": 48,
              "velocity": 29,
              "position": 2.666667,
              "duration": 0.183333
            },
            {
              "pitch": 52,
              "velocity": 35,
              "position": 2.675,
              "duration": 0.175
            },
            {
              "pitch": 55,
              "velocity": 35,
              "position": 2.683333,
              "duration": 0.166667
            },
            {
              "pitch": 59,
              "velocity": 35,
              "position": 2.7,
              "duration": 0.15
            },
            {
              "pitch": 48,
              "velocity": 65,
              "position": 3.0,
              "duration": 0.275
            },
            {
              "pitch": 52,
              "velocity": 77,
              "position": 3.008333,
              "duration": 0.266667
            },
            {
              "pitch": 55,
              "velocity": 77,
              "position": 3.016667,
              "duration": 0.258333
            },
            {
              "pitch": 59,
              "velocity": 77,
              "position": 3.033333,
              "duration": 0.241667
            },
            {
              "pitch": 48,
              "velocity": 24,
              "position": 3.666667,
              "duration": 0.291667
            },
            {
              "pitch": 52,
              "velocity": 29,
              "position": 3.675,
              "duration": 0.283333
            },
            {
              "pitch": 55,
              "velocity": 29,
              "position": 3.683333,
              "duration": 0.275
            },
            {
              "pitch": 59,
              "velocity": 29,
              "position": 3.7,
              "duration": 0.258333
            },
            {
              "pitch": 48,
              "velocity": 54,
              "position": 4.0,
              "duration": 0.358333
            },
            {
              "pitch": 52,
              "velocity": 64,
              "position": 4.008333,
              "duration": 0.35
            },
            {
              "pitch": 55,
              "velocity": 64,
              "position": 4.016667,
              "duration": 0.341667
            },
            {
              "pitch": 59,
              "velocity": 64,
              "position": 4.033333,
              "duration": 0.325
            },
            {
              "pitch": 48,
              "velocity": 65,
              "position": 5.0,
              "duration": 0.183333
            },
            {
              "pitch": 52,
              "velocity": 77,
              "position": 5.008333,
              "duration": 0.175
            },
            {
              "pitch": 55,
              "velocity": 77,
              "position": 5.016667,
              "duration": 0.166667
            },
            {
              "pitch": 59,
              "velocity": 77,
              "position": 5.033333,
              "duration": 0.15
            },
            {
              "pitch": 52,
              "velocity": 37,
              "position": 5.683333,
              "duration": 0.208333
            },
            {
              "pitch": 48,
              "velocity": 54,
              "position": 6.0,
              "duration": 0.591667
            },
            {
              "pitch": 52,
              "velocity": 64,
              "position": 6.008333,
              "duration": 0.583333
            },
            {
              "pitch": 55,
              "velocity": 64,
              "position": 6.016667,
              "duration": 0.575
            },
            {
              "pitch": 59,
              "velocity": 64,
              "position": 6.033333,
              "duration": 0.558333
            },
            {
              "pitch": 48,
              "velocity": 26,
              "position": 6.666667,
              "duration": 0.183333
            },
            {
              "pitch": 52,
              "velocity": 31,
              "position": 6.675,
              "duration": 0.175
            },
            {
              "pitch": 55,
              "velocity": 31,
              "position": 6.683333,
              "duration": 0.166667
            },
            {
              "pitch": 59,
              "velocity": 31,
              "position": 6.7,
              "duration": 0.15
            },
            {
              "pitch": 48,
              "velocity": 56,
              "position": 7.0,
              "duration": 0.275
            },
            {
              "pitch": 52,
              "velocity": 66,
              "position": 7.008333,
              "duration": 0.266667
            },
            {
              "pitch": 55,
              "velocity": 66,
              "position": 7.016667,
              "duration": 0.258333
            },
            {
              "pitch": 59,
              "velocity": 66,
              "position": 7.033333,
              "duration": 0.241667
            },
            {
              "pitch": 48,
              "velocity": 24,
              "position": 7.666667,
              "duration": 0.291667
            },
            {
              "pitch": 52,
              "velocity": 29,
              "position": 7.675,
              "duration": 0.283333
            },
            {
              "pitch": 55,
              "velocity": 29,
              "position": 7.683333,
              "duration": 0.275
            },
            {
              "pitch": 59,
              "velocity": 29,
              "position": 7.7,
              "duration": 0.258333
            },
            {
              "pitch": 48,
              "velocity": 54,
              "position": 8.0,
              "duration": 0.358333
            },
            {
              "pitch": 52,
              "velocity": 64,
              "position": 8.008333,
              "duration": 0.35
            },
            {
              "pitch": 55,
              "velocity": 64,
              "position": 8.016667,
              "duration": 0.341667
            },
            {
              "pitch": 59,
              "velocity": 64,
              "position": 8.033333,
              "duration": 0.325
            },
            {
              "pitch": 48,
              "velocity": 65,
              "position": 9.0,
              "duration": 0.183333
            },
            {
              "pitch": 52,
              "velocity": 77,
              "position": 9.008333,
              "duration": 0.175
            },
            {
              "pitch": 55,
              "velocity": 77,
              "position": 9.016667,
              "duration": 0.166667
            },
            {
              "pitch": 59,
              "velocity": 77,
              "position": 9.033333,
              "duration": 0.15
            },
            {
              "pitch": 52,
              "velocity": 37,
              "position": 9.683333,
              "duration": 0.208333
            },
            {
              "pitch": 48,
              "velocity": 51,
              "position": 10.0,
              "duration": 0.241667
            },
            {
              "pitch": 52,
              "velocity": 61,
              "position": 10.008333,
              "duration": 0.233333
            },
            {
              "pitch": 55,
              "velocity": 61,
              "position": 10.016667,
              "duration": 0.225
            },
            {
              "pitch": 59,
              "velocity": 61,
              "position": 10.033333,
              "duration": 0.208333
            },
            {
              "pitch": 48,
              "velocity": 67,
              "position": 11.0,
              "duration": 0.183333
            },
            {
              "pitch": 52,
              "velocity": 79,
              "position": 11.008333,
              "duration": 0.175
            },
            {
              "pitch": 55,
              "velocity": 79,
              "position": 11.016667,
              "duration": 0.166667
            },
            {
              "pitch": 59,
              "velocity": 79,
              "position": 11.033333,
              "duration": 0.15
            },
            {
              "pitch": 52,
              "velocity": 33,
              "position": 11.683333,
              "duration": 0.191667
            },
            {
              "pitch": 48,
              "velocity": 46,
              "position": 12.0,
              "duration": 0.25
            },
            {
              "pitch": 52,
              "velocity": 55,
              "position": 12.008333,
              "duration": 0.241667
            },
            {
              "pitch": 55,
              "velocity": 55,
              "position": 12.016667,
              "duration": 0.233333
            },
            {
              "pitch": 59,
              "velocity": 55,
              "position": 12.033333,
              "duration": 0.216667
            },
            {
              "pitch": 48,
              "velocity": 65,
              "position": 13.0,
              "duration": 0.183333
            },
            {
              "pitch": 52,
              "velocity": 77,
              "position": 13.008333,
              "duration": 0.175
            },
            {
              "pitch": 55,
              "velocity": 77,
              "position": 13.016667,
              "duration": 0.166667
            },
            {
              "pitch": 59,
              "velocity": 77,
              "position": 13.033333,
              "duration": 0.15
            },
            {
              "pitch": 52,
              "velocity": 39,
              "position": 13.683333,
              "duration": 0.183333
            },
            {
              "pitch": 48,
              "velocity": 40,
              "position": 14.0,
              "duration": 0.183333
            },
            {
              "pitch": 52,
              "velocity": 48,
              "position": 14.008333,
              "duration": 0.175
            },
            {
              "pitch": 55,
              "velocity": 48,
              "position": 14.016667,
              "duration": 0.166667
            },
            {
              "pitch": 59,
              "velocity": 48,
              "position": 14.033333,
              "duration": 0.15
            },
            {
              "pitch": 52,
              "velocity": 33,
              "position": 14.683333,
              "duration": 0.208333
            },
            {
              "pitch": 48,
              "velocity": 59,
              "position": 15.0,
              "duration": 0.183333
            },
            {
              "pitch": 52,
              "velocity": 70,
              "position": 15.008333,
              "duration": 0.175
            },
            {
              "pitch": 55,
              "velocity": 70,
              "position": 15.016667,
              "duration": 0.166667
            },
            {
              "pitch": 59,
              "velocity": 70,
              "position": 15.033333,
              "duration": 0.15
            },
            {
              "pitch": 52,
              "velocity": 37,
              "position": 15.683333,
              "duration": 0.241667
            }
          ]
        }
      }
    },
    "Main_B": {
      "type": "Main_B",
      "sizeInBeats": 16,
      "channels": {
        "9": {
          "ctab": {
            "srcChannel": 9,
            "name": "Drums",
            "accType": "RHYTHM",
            "editable": false,
            "mutedNotes": [],
            "mutedChords": [],
            "sourceChordNote": 0,
            "sourceChordType": "Maj",
            "ctb2Main": {
              "ntr": "ROOT_FIXED",
              "ntt": "BYPASS",
              "bassOn": false,
              "noteLowLimit": 20,
              "noteHighLimit": 127,
              "chordRootUpperLimit": 127,
              "rtr": "RETRIGGER"
            }
          },
          "notes": [
            {
              "pitch": 31,
              "velocity": 60,
              "position": 0.0,
              "duration": 0.208333
            },
            {
              "pitch": 35,
              "velocity": 70,
              "position": 0.0,
              "duration": 0.208333
            },
            {
              "pitch": 49,
              "velocity": 60,
              "position": 0.0,
              "duration": 0.208333
            },
            {
              "pitch": 31,
              "velocity": 70,
              "position": 1.0,
              "duration": 0.208333
            },
            {
              "pitch": 35,
              "velocity": 80,
              "position": 1.0,
              "duration": 0.208333
            },
            {
              "pitch": 37,
              "velocity": 50,
              "position": 1.0,
              "duration": 0.208333
            },
            {
              "pitch": 38,
              "velocity": 80,
              "position": 1.0,
              "duration": 0.208333
            },
            {
              "pitch": 39,
              "velocity": 84,
              "position": 1.0,
              "duration": 0.208333
            },
            {
              "pitch": 42,
              "velocity": 80,
              "position": 1.0,
              "duration": 0.208333
            },
            {
              "pitch": 63,
              "velocity": 50,
              "position": 1.0,
              "duration": 0.208333
            },
            {
              "pitch": 31,
              "velocity": 50,
              "position": 2.0,
              "duration": 0.208333
            },
            {
              "pitch": 35,
              "velocity": 70,
              "position": 2.0,
              "duration": 0.208333
            },
            {
              "pitch": 42,
              "velocity": 70,
              "position": 2.0,
              "duration": 0.208333
            },
            {
              "pitch": 31,
              "velocity": 70,
              "position": 3.0,
              "duration": 0.208333
            },
            {
              "pitch": 35,
              "velocity": 80,
              "position": 3.0,
              "duration": 0.208333
            },
            {
              "pitch": 37,
              "velocity": 50,
              "position": 3.0,
              "duration": 0.208333
            },
            {
              "pitch": 38,
              "velocity": 80,
              "position": 3.0,
              "duration": 0.208333
            },
            {
              "pitch": 39,
              "velocity": 80,
              "position": 3.0,
              "duration": 0.208333
            },
            {
              "pitch": 42,
              "velocity": 80,
              "position": 3.0,
              "duration": 0.208333
            },
            {
              "pitch": 63,
              "velocity": 60,
              "position": 3.0,
              "duration": 0.208333
            },
            {
              "pitch": 38,
              "velocity": 60,
              "position": 3.716667,
              "duration": 0.208333
            },
            {
              "pitch": 31,
              "velocity": 50,
              "position": 4.0,
              "duration": 0.208333
            },
            {
              "pitch": 35,
              "velocity": 70,
              "position": 4.0,
              "duration": 0.208333
            },
            {
              "pitch": 42,
              "velocity": 70,
              "position": 4.0,
              "duration": 0.208333
            },
            {
              "pitch": 38,
              "velocity": 40,
              "position": 4.716667,
              "duration": 0.208333
            },
            {
              "pitch": 31,
              "velocity": 70,
              "position": 5.0,
              "duration": 0.208333
            },
            {
              "pitch": 35,
              "velocity": 80,
              "position": 5.0,
              "duration": 0.208333
            },
            {
              "pitch": 37,
              "velocity": 50,
              "position": 5.0,
              "duration": 0.208333
            },
            {
              "pitch": 38,
              "velocity": 80,
              "position": 5.0,
              "duration": 0.208333
            },
            {
              "pitch": 39,
              "velocity": 80,
              "position": 5.0,
              "duration": 0.208333
            },
            {
              "pitch": 42,
              "velocity": 80,
              "position": 5.0,
              "duration": 0.208333
            },
            {
              "pitch": 63,
              "velocity": 50,
              "position": 5.0,
              "duration": 0.208333
            },
            {
              "pitch": 31,
              "velocity": 50,
              "position": 6.0,
              "duration": 0.208333
            },
            {
              "pitch": 35,
              "velocity": 70,
              "position": 6.0,
              "duration": 0.208333
            },
            {
              "pitch": 42,
              "velocity": 70,
              "position": 6.0,
              "duration": 0.208333
            },
            {
              "pitch": 31,
              "velocity": 25,
              "position": 6.716667,
              "duration": 0.208333
            },
            {
              "pitch": 38,
              "velocity": 40,
              "position": 6.716667,
              "duration": 0.208333
            },
            {
              "pitch": 46,
              "velocity": 50,
              "position": 6.716667,
              "duration": 0.208333
            },
            {
              "pitch": 31,
              "velocity": 70,
              "position": 7.0,
              "duration": 0.208333
            },
            {
              "pitch": 35,
              "velocity": 80,
              "position": 7.0,
              "duration": 0.208333
            },
            {
              "pitch": 37,
              "velocity": 50,
              "position": 7.0,
              "duration": 0.208333
            },
            {
              "pitch": 38,
              "velocity": 80,
              "position": 7.0,
              "duration": 0.208333
            },
            {
              "pitch": 39,
              "velocity": 90,
              "position": 7.0,
              "duration": 0.208333
            },
            {
              "pitch": 42,
              "velocity": 80,
              "position": 7.0,
              "duration": 0.208333
            },
            {
              "pitch": 63,
              "velocity": 60,
              "position": 7.0,
              "duration": 0.208333
            },
            {
              "pitch": 31,
              "velocity": 29,
              "position": 7.716667,
              "duration": 0.208333
            },
            {
              "pitch": 38,
              "velocity": 40,
              "position": 7.716667,
              "duration": 0.208333
            },
            {
              "pitch": 31,
              "velocity": 50,
              "position": 8.0,
              "duration": 0.208333
            },
            {
              "pitch": 35,
              "velocity": 70,
              "position": 8.0,
              "duration": 0.208333
            },
            {
              "pitch": 42,
              "velocity": 70,
              "position": 8.0,
              "duration": 0.208333
            },
            {
              "pitch": 31,
              "velocity": 70,
              "position": 9.0,
              "duration": 0.208333
            },
            {
              "pitch": 35,
              "velocity": 80,
              "position": 9.0,
              "duration": 0.208333
            },
            {
              "pitch": 37,
              "velocity": 50,
              "position": 9.0,
              "duration": 0.208333
            },
            {
              "pitch": 38,
              "velocity": 80,
              "position": 9.0,
              "duration": 0.208333
            },
            {
              "pitch": 39,
              "velocity": 90,
              "position": 9.0,
              "duration": 0.208333
            },
            {
              "pitch": 42,
              "velocity": 80,
              "position": 9.0,
              "duration": 0.208333
            },
            {
              "pitch": 63,
              "velocity": 50,
              "position": 9.0,
              "duration": 0.208333
            },
            {
              "pitch": 31,
              "velocity": 50,
              "position": 10.0,
              "duration": 0.208333
            },
            {
              "pitch": 35,
              "velocity": 70,
              "position": 10.0,
              "duration": 0.208333
            },
            {
              "pitch": 42,
              "velocity": 70,
              "position": 10.0,
              "duration": 0.208333
            },
            {
              "pitch": 31,
              "velocity": 70,
              "position": 11.0,
              "duration": 0.208333
            },
            {
              "pitch": 35,
              "velocity": 80,
              "position": 11.0,
              "duration": 0.208333
            },
            {
              "pitch": 37,
              "velocity": 50,
              "position": 11.0,
              "duration": 0.208333
            },
            {
              "pitch": 38,
              "velocity": 80,
              "position": 11.0,
              "duration": 0.208333
            },
            {
              "pitch": 39,
              "velocity": 80,
              "position": 11.0,
              "duration": 0.208333
            },
            {
              "pitch": 42,
              "velocity": 80,
              "position": 11.0,
              "duration": 0.208333
            },
            {
              "pitch": 63,
              "velocity": 60,
              "position": 11.0,
              "duration": 0.208333
            },
            {
              "pitch": 38,
              "velocity": 60,
              "position": 11.716667,
              "duration": 0.208333
            },
            {
              "pitch": 31,
              "velocity": 50,
              "position": 12.0,
              "duration": 0.208333
            },
            {
              "pitch": 35,
              "velocity": 70,
              "position": 12.0,
              "duration": 0.208333
            },
            {
              "pitch": 42,
              "velocity": 70,
              "position": 12.0,
              "duration": 0.208333
            },
            {
              "pitch": 31,
              "velocity": 70,
              "position": 13.0,
              "duration": 0.208333
            },
            {
              "pitch": 35,
              "velocity": 80,
              "position": 13.0,
              "duration": 0.208333
            },
            {
              "pitch": 37,
              "velocity": 50,
              "position": 13.0,
              "duration": 0.208333
            },
            {
              "pitch": 38,
              "velocity": 80,
              "position": 13.0,
              "duration": 0.208333
            },
            {
              "pitch": 39,
              "velocity": 70,
              "position": 13.0,
              "duration": 0.208333
            },
            {
              "pitch": 42,
              "velocity": 80,
              "position": 13.0,
              "duration": 0.208333
            },
            {
              "pitch": 63,
              "velocity": 50,
              "position": 13.0,
              "duration": 0.208333
            },
            {
              "pitch": 38,
              "velocity": 40,
              "position": 13.716667,
              "duration": 0.208333
            },
            {
              "pitch": 31,
              "velocity": 50,
              "position": 14.0,
              "duration": 0.208333
            },
            {
              "pitch": 35,
              "velocity": 70,
              "position": 14.0,
              "duration": 0.208333
            },
            {
              "pitch": 42,
              "velocity": 70,
              "position": 14.0,
              "duration": 0.208333
            },
            {
              "pitch": 31,
              "velocity": 40,
              "position": 14.716667,
              "duration": 0.208333
            },
            {
              "pitch": 38,
              "velocity": 40,
              "position": 14.716667,
              "duration": 0.208333
            },
            {
              "pitch": 31,
              "velocity": 70,
              "position": 15.0,
              "duration": 0.208333
            },
            {
              "pitch": 35,
              "velocity": 80,
              "position": 15.0,
              "duration": 0.208333
            },
            {
              "pitch": 37,
              "velocity": 50,
              "position": 15.0,
              "duration": 0.208333
            },
            {
              "pitch": 38,
              "velocity": 100,
              "position": 15.0,
              "duration": 0.208333
            },
            {
              "pitch": 39,
              "velocity": 80,
              "position": 15.0,
              "duration": 0.208333
            },
            {
              "pitch": 42,
              "velocity": 80,
              "position": 15.0,
              "duration": 0.208333
            },
            {
              "pitch": 63,
              "velocity": 60,
              "position": 15.0,
              "duration": 0.208333
            },
            {
              "pitch": 38,
              "velocity": 60,
              "position": 15.716667,
              "duration": 0.208333
            }
          ]
        },
        "10": {
          "ctab": {
            "srcChannel": 10,
            "name": "Bass",
            "accType": "BASS",
            "editable": true,
            "mutedNotes": [],
            "mutedChords": [],
            "sourceChordNote": 0,
            "sourceChordType": "Maj7",
            "ctb2Main": {
              "ntr": "ROOT_TRANSPOSITION",
              "ntt": "BYPASS",
              "bassOn": true,
              "noteLowLimit": 20,
              "noteHighLimit": 60,
              "chordRootUpperLimit": 127,
              "rtr": "NOTE_GENERATOR"
            }
          },
          "notes": [
            {
              "pitch": 36,
              "velocity": 89,
              "position": 0.008333,
              "duration": 0.383333
            },
            {
              "pitch": 36,
              "velocity": 89,
              "position": 1.016667,
              "duration": 0.433333
            },
            {
              "pitch": 31,
              "velocity": 51,
              "position": 1.691667,
              "duration": 0.2
            },
            {
              "pitch": 36,
              "velocity": 83,
              "position": 2.008333,
              "duration": 0.383333
            },
            {
              "pitch": 36,
              "velocity": 64,
              "position": 2.666667,
              "duration": 0.316667
            },
            {
              "pitch": 31,
              "velocity": 83,
              "position": 3.016667,
              "duration": 0.433333
            },
            {
              "pitch": 36,
              "velocity": 89,
              "position": 4.008333,
              "duration": 0.383333
            },
            {
              "pitch": 36,
              "velocity": 89,
              "position": 5.016667,
              "duration": 0.433333
            },
            {
              "pitch": 31,
              "velocity": 51,
              "position": 5.691667,
              "duration": 0.2
            },
            {
              "pitch": 36,
              "velocity": 89,
              "position": 6.008333,
              "duration": 0.383333
            },
            {
              "pitch": 36,
              "velocity": 89,
              "position": 7.016667,
              "duration": 0.433333
            },
            {
              "pitch": 31,
              "velocity": 51,
              "position": 7.691667,
              "duration": 0.2
            },
            {
              "pitch": 36,
              "velocity": 86,
              "position": 8.016667,
              "duration": 0.383333
            },
            {
              "pitch": 36,
              "velocity": 86,
              "position": 9.016667,
              "duration": 0.433333
            },
            {
              "pitch": 31,
              "velocity": 48,
              "position": 9.691667,
              "duration": 0.2
            },
            {
              "pitch": 36,
              "velocity": 86,
              "position": 10.016667,
              "duration": 0.408333
            },
            {
              "pitch": 36,
              "velocity": 86,
              "position": 10.991667,
              "duration": 0.4
            },
            {
              "pitch": 31,
              "velocity": 60,
              "position": 11.691667,
              "duration": 0.183333
            },
            {
              "pitch": 36,
              "velocity": 86,
              "position": 12.0,
              "duration": 0.483333
            },
            {
              "pitch": 36,
              "velocity": 86,
              "position": 13.016667,
              "duration": 0.508333
            },
            {
              "pitch": 31,
              "velocity": 61,
              "position": 13.716667,
              "duration": 0.183333
            },
            {
              "pitch": 36,
              "velocity": 86,
              "position": 14.008333,
              "duration": 0.341667
            },
            {
              "pitch": 31,
              "velocity": 65,
              "position": 14.683333,
              "duration": 0.158333
            },
            {
              "pitch": 36,
              "velocity": 86,
              "position": 15.008333,
              "duration": 0.433333
            },
            {
              "pitch": 31,
              "velocity": 72,
              "position": 15.666667,
              "duration": 0.183333
            }
          ]
        },
        "11": {
          "ctab": {
            "srcChannel": 11,
            "name": "Piano",
            "accType": "CHORD1",
            "editable": true,
            "mutedNotes": [],
            "mutedChords": [],
            "sourceChordNote": 0,
            "sourceChordType": "Maj7",
            "ctb2Main": {
              "ntr": "ROOT_FIXED",
              "ntt": "CHORD",
              "bassOn": false,
              "noteLowLimit": 48,
              "noteHighLimit": 84,
              "chordRootUpperLimit": 127,
              "rtr": "NOTE_GENERATOR"
            }
          },
          "notes": [
            {
              "pitch": 48,
              "velocity": 73,
              "position": 0.025,
              "duration": 0.233333
            },
            {
              "pitch": 59,
              "velocity": 66,
              "position": 0.025,
              "duration": 0.216667
            },
            {
              "pitch": 60,
              "velocity": 68,
              "position": 0.025,
              "duration": 0.3
            },
            {
              "pitch": 55,
              "velocity": 49,
              "position": 0.058333,
              "duration": 0.166667
            },
            {
              "pitch": 55,
              "velocity": 64,
              "position": 0.991667,
              "duration": 0.258333
            },
            {
              "pitch": 59,
              "velocity": 82,
              "position": 0.991667,
              "duration": 0.208333
            },
            {
              "pitch": 60,
              "velocity": 67,
              "position": 1.016667,
              "duration": 0.233333
            },
            {
              "pitch": 48,
              "velocity": 73,
              "position": 2.025,
              "duration": 0.233333
            },
            {
              "pitch": 59,
              "velocity": 66,
              "position": 2.025,
              "duration": 0.216667
            },
            {
              "pitch": 60,
              "velocity": 68,
              "position": 2.025,
              "duration": 0.3
            },
            {
              "pitch": 55,
              "velocity": 49,
              "position": 2.058333,
              "duration": 0.166667
            },
            {
              "pitch": 55,
              "velocity": 64,
              "position": 2.991667,
              "duration": 0.258333
            },
            {
              "pitch": 59,
              "velocity": 82,
              "position": 2.991667,
              "duration": 0.208333
            },
            {
              "pitch": 60,
              "velocity": 67,
              "position": 3.016667,
              "duration": 0.233333
            },
            {
              "pitch": 59,
              "velocity": 73,
              "position": 4.033333,
              "duration": 0.133333
            },
            {
              "pitch": 60,
              "velocity": 71,
              "position": 4.033333,
              "duration": 0.233333
            },
            {
              "pitch": 48,
              "velocity": 78,
              "position": 4.041667,
              "duration": 0.233333
            },
            {
              "pitch": 55,
              "velocity": 69,
              "position": 4.05,
              "duration": 0.233333
            },
            {
              "pitch": 48,
              "velocity": 59,
              "position": 5.008333,
              "duration": 0.133333
            },
            {
              "pitch": 59,
              "velocity": 66,
              "position": 5.016667,
              "duration": 0.208333
            },
            {
              "pitch": 55,
              "velocity": 56,
              "position": 5.033333,
              "duration": 0.125
            },
            {
              "pitch": 59,
              "velocity": 73,
              "position": 6.033333,
              "duration": 0.133333
            },
            {
              "pitch": 60,
              "velocity": 71,
              "position": 6.033333,
              "duration": 0.233333
            },
            {
              "pitch": 48,
              "velocity": 78,
              "position": 6.041667,
              "duration": 0.233333
            },
            {
              "pitch": 55,
              "velocity": 69,
              "position": 6.05,
              "duration": 0.233333
            },
            {
              "pitch": 48,
              "velocity": 59,
              "position": 7.008333,
              "duration": 0.133333
            },
            {
              "pitch": 59,
              "velocity": 66,
              "position": 7.016667,
              "duration": 0.208333
            },
            {
              "pitch": 55,
              "velocity": 56,
              "position": 7.033333,
              "duration": 0.125
            },
            {
              "pitch": 48,
              "velocity": 72,
              "position": 8.025,
              "duration": 0.233333
            },
            {
              "pitch": 59,
              "velocity": 65,
              "position": 8.025,
              "duration": 0.216667
            },
            {
              "pitch": 60,
              "velocity": 67,
              "position": 8.025,
              "duration": 0.3
            },
            {
              "pitch": 55,
              "velocity": 48,
              "position": 8.058333,
              "duration": 0.166667
            },
            {
              "pitch": 55,
              "velocity": 63,
              "position": 8.991667,
              "duration": 0.258333
            },
            {
              "pitch": 59,
              "velocity": 81,
              "position": 8.991667,
              "duration": 0.208333
            },
            {
              "pitch": 60,
              "velocity": 66,
              "position": 9.016667,
              "duration": 0.233333
            },
            {
              "pitch": 55,
              "velocity": 64,
              "position": 10.025,
              "duration": 0.325
            },
            {
              "pitch": 59,
              "velocity": 77,
              "position": 10.058333,
              "duration": 0.158333
            },
            {
              "pitch": 60,
              "velocity": 71,
              "position": 10.058333,
              "duration": 0.266667
            },
            {
              "pitch": 48,
              "velocity": 66,
              "position": 10.775,
              "duration": 0.183333
            },
            {
              "pitch": 55,
              "velocity": 72,
              "position": 11.016667,
              "duration": 0.266667
            },
            {
              "pitch": 59,
              "velocity": 86,
              "position": 11.041667,
              "duration": 0.133333
            },
            {
              "pitch": 60,
              "velocity": 78,
              "position": 11.041667,
              "duration": 0.241667
            },
            {
              "pitch": 48,
              "velocity": 53,
              "position": 11.733333,
              "duration": 0.183333
            },
            {
              "pitch": 55,
              "velocity": 62,
              "position": 12.058333,
              "duration": 0.233333
            },
            {
              "pitch": 59,
              "velocity": 71,
              "position": 12.058333,
              "duration": 0.133333
            },
            {
              "pitch": 60,
              "velocity": 62,
              "position": 12.058333,
              "duration": 0.208333
            },
            {
              "pitch": 55,
              "velocity": 63,
              "position": 12.991667,
              "duration": 0.258333
            },
            {
              "pitch": 59,
              "velocity": 81,
              "position": 12.991667,
              "duration": 0.183333
            },
            {
              "pitch": 60,
              "velocity": 72,
              "position": 12.991667,
              "duration": 0.258333
            },
            {
              "pitch": 55,
              "velocity": 63,
              "position": 14.025,
              "duration": 0.241667
            },
            {
              "pitch": 59,
              "velocity": 76,
              "position": 14.058333,
              "duration": 0.133333
            },
            {
              "pitch": 60,
              "velocity": 65,
              "position": 14.058333,
              "duration": 0.183333
            },
            {
              "pitch": 48,
              "velocity": 51,
              "position": 14.725,
              "duration": 0.166667
            },
            {
              "pitch": 55,
              "velocity": 66,
              "position": 15.041667,
              "duration": 0.266667
            },
            {
              "pitch": 59,
              "velocity": 82,
              "position": 15.066667,
              "duration": 0.133333
            },
            {
              "pitch": 60,
              "velocity": 68,
              "position": 15.066667,
              "duration": 0.216667
            },
            {
              "pitch": 48,
              "velocity": 51,
              "position": 15.708333,
              "duration": 0.141667
            }
          ]
        },
        "12": {
          "ctab": {
            "srcChannel": 12,
            "name": "Guitar",
            "accType": "CHORD2",
            "editable": true,
            "mutedNotes": [],
            "mutedChords": [],
            "sourceChordNote": 0,
            "sourceChordType": "Maj7",
            "ctb2Main": {
              "ntr": "ROOT_FIXED",
              "ntt": "CHORD",
              "bassOn": false,
              "noteLowLimit": 40,
              "noteHighLimit": 76,
              "chordRootUpperLimit": 127,
              "rtr": "NOTE_GENERATOR"
            }
          },
          "notes": [
            {
              "pitch": 48,
              "velocity": 67,
              "position": 0.008333,
              "duration": 0.25
            },
            {
              "pitch": 55,
              "velocity": 67,
              "position": 0.008333,
              "duration": 0.25
            },
            {
              "pitch": 48,
              "velocity": 67,
              "position": 1.008333,
              "duration": 0.25
            },
            {
              "pitch": 55,
              "velocity": 67,
              "position": 1.008333,
              "duration": 0.25
            },
            {
              "pitch": 48,
              "velocity": 67,
              "position": 2.0,
              "duration": 0.25
            },
            {
              "pitch": 55,
              "velocity": 67,
              "position": 2.0,
              "duration": 0.25
            },
            {
              "pitch": 48,
              "velocity": 67,
              "position": 3.0,
              "duration": 0.25
            },
            {
              "pitch": 55,
              "velocity": 67,
              "position": 3.0,
              "duration": 0.25
            },
            {
              "pitch": 48,
              "velocity": 67,
              "position": 4.016667,
              "duration": 0.5
            },
            {
              "pitch": 55,
              "velocity": 67,
              "position": 4.016667,
              "duration": 0.5
            },
            {
              "pitch": 48,
              "velocity": 67,
              "position": 5.016667,
              "duration": 0.291667
            },
            {
              "pitch": 55,
              "velocity": 67,
              "position": 5.016667,
              "duration": 0.166667
            },
            {
              "pitch": 48,
              "velocity": 67,
              "position": 6.016667,
              "duration": 0.5
            },
            {
              "pitch": 55,
              "velocity": 67,
              "position": 6.016667,
              "duration": 0.5
            },
            {
              "pitch": 48,
              "velocity": 67,
              "position": 7.016667,
              "duration": 0.291667
            },
            {
              "pitch": 55,
              "velocity": 67,
              "position": 7.016667,
              "duration": 0.166667
            },
            {
              "pitch": 48,
              "velocity": 66,
              "position": 8.008333,
              "duration": 0.25
            },
            {
              "pitch": 55,
              "velocity": 66,
              "position": 8.008333,
              "duration": 0.25
            },
            {
              "pitch": 48,
              "velocity": 66,
              "position": 9.008333,
              "duration": 0.25
            },
            {
              "pitch": 55,
              "velocity": 66,
              "position": 9.008333,
              "duration": 0.25
            },
            {
              "pitch": 48,
              "velocity": 66,
              "position": 10.008333,
              "duration": 0.25
            },
            {
              "pitch": 55,
              "velocity": 66,
              "position": 10.008333,
              "duration": 0.25
            },
            {
              "pitch": 48,
              "velocity": 66,
              "position": 11.008333,
              "duration": 0.25
            },
            {
              "pitch": 55,
              "velocity": 66,
              "position": 11.008333,
              "duration": 0.25
            },
            {
              "pitch": 48,
              "velocity": 66,
              "position": 12.008333,
              "duration": 0.25
            },
            {
              "pitch": 55,
              "velocity": 66,
              "position": 12.008333,
              "duration": 0.25
            },
            {
              "pitch": 48,
              "velocity": 66,
              "position": 13.008333,
              "duration": 0.25
            },
            {
              "pitch": 55,
              "velocity": 66,
              "position": 13.008333,
              "duration": 0.25
            },
            {
              "pitch": 48,
              "velocity": 66,
              "position": 14.008333,
              "duration": 0.25
            },
            {
              "pitch": 55,
              "velocity": 66,
              "position": 14.008333,
              "duration": 0.25
            },
            {
              "pitch": 48,
              "velocity": 66,
              "position": 15.008333,
              "duration": 0.6
            },
            {
              "pitch": 55,
              "velocity": 66,
              "position": 15.008333,
              "duration": 0.408333
            }
          ]
        },
        "13": {
          "ctab": {
            "srcChannel": 13,
            "name": "Strings",
            "accType": "PAD",
            "editable": true,
            "mutedNotes": [],
            "mutedChords": [],
            "sourceChordNote": 0,
            "sourceChordType": "Maj7",
            "ctb2Main": {
              "ntr": "ROOT_FIXED",
              "ntt": "MELODY",
              "bassOn": false,
              "noteLowLimit": 36,
              "noteHighLimit": 96,
              "chordRootUpperLimit": 127,
              "rtr": "PITCH_SHIFT"
            }
          },
          "notes": [
            {
              "pitch": 48,
              "velocity": 54,
              "position": 0.0,
              "duration": 0.358333
            },
            {
              "pitch": 52,
              "velocity": 64,
              "position": 0.008333,
              "duration": 0.35
            },
            {
              "pitch": 55,
              "velocity": 64,
              "position": 0.016667,
              "duration": 0.341667
            },
            {
              "pitch": 59,
              "velocity": 64,
              "position": 0.033333,
              "duration": 0.325
            },
            {
              "pitch": 48,
              "velocity": 65,
              "position": 1.0,
              "duration": 0.183333
            },
            {
              "pitch": 52,
              "velocity": 77,
              "position": 1.008333,
              "duration": 0.175
            },
            {
              "pitch": 55,
              "velocity": 77,
              "position": 1.016667,
              "duration": 0.166667
            },
            {
              "pitch": 59,
              "velocity": 77,
              "position": 1.033333,
              "duration": 0.15
            },
            {
              "pitch": 52,
              "velocity": 37,
              "position": 1.683333,
              "duration": 0.208333
            },
            {
              "pitch": 48,
              "velocity": 54,
              "position": 2.0,
              "duration": 0.358333
            },
            {
              "pitch": 52,
              "velocity": 64,
              "position": 2.008333,
              "duration": 0.35
            },
            {
              "pitch": 55,
              "velocity": 64,
              "position": 2.016667,
              "duration": 0.341667
            },
            {
              "pitch": 59,
              "velocity": 64,
              "position": 2.033333,
              "duration": 0.325
            },
            {
              "pitch": 48,
              "velocity": 65,
              "position": 3.0,
              "duration": 0.183333
            },
            {
              "pitch": 52,
              "velocity": 77,
              "position": 3.008333,
              "duration": 0.175
            },
            {
              "pitch": 55,
              "velocity": 77,
              "position": 3.016667,
              "duration": 0.166667
            },
            {
              "pitch": 59,
              "velocity": 77,
              "position": 3.033333,
              "duration": 0.15
            },
            {
              "pitch": 52,
              "velocity": 37,
              "position": 3.683333,
              "duration": 0.208333
            },
            {
              "pitch": 48,
              "velocity": 54,
              "position": 4.0,
              "duration": 0.358333
            },
            {
              "pitch": 52,
              "velocity": 64,
              "position": 4.008333,
              "duration": 0.35
            },
            {
              "pitch": 55,
              "velocity": 64,
              "position": 4.016667,
              "duration": 0.341667
            },
            {
              "pitch": 59,
              "velocity": 64,
              "position": 4.033333,
              "duration": 0.325
            },
            {
              "pitch": 48,
              "velocity": 65,
              "position": 5.0,
              "duration": 0.183333
            },
            {
              "pitch": 52,
              "velocity": 77,
              "position": 5.008333,
              "duration": 0.033333
            },
            {
              "pitch": 55,
              "velocity": 77,
              "position": 5.016667,
              "duration": 0.166667
            },
            {
              "pitch": 59,
              "velocity": 77,
              "position": 5.033333,
              "duration": 0.15
            },
            {
              "pitch": 59,
              "velocity": 79,
              "position": 5.683333,
              "duration": 1.141667
            },
            {
              "pitch": 55,
              "velocity": 72,
              "position": 6.683333,
              "duration": 0.583333
            },
            {
              "pitch": 52,
              "velocity": 66,
              "position": 7.016667,
              "duration": 0.65
            },
            {
              "pitch": 55,
              "velocity": 61,
              "position": 7.683333,
              "duration": 0.25
            },
            {
              "pitch": 48,
              "velocity": 54,
              "position": 7.975,
              "duration": 0.25
            },
            {
              "pitch": 52,
              "velocity": 64,
              "position": 7.991667,
              "duration": 0.233333
            },
            {
              "pitch": 55,
              "velocity": 64,
              "position": 8.008333,
              "duration": 0.216667
            },
            {
              "pitch": 59,
              "velocity": 64,
              "position": 8.025,
              "duration": 0.2
            },
            {
              "pitch": 64,
              "velocity": 64,
              "position": 8.041667,
              "duration": 0.183333
            },
            {
              "pitch": 48,
              "velocity": 26,
              "position": 8.65,
              "duration": 0.183333
            },
            {
              "pitch": 52,
              "velocity": 31,
              "position": 8.666667,
              "duration": 0.166667
            },
            {
              "pitch": 55,
              "velocity": 31,
              "position": 8.683333,
              "duration": 0.15
            },
            {
              "pitch": 59,
              "velocity": 31,
              "position": 8.7,
              "duration": 0.133333
            },
            {
              "pitch": 64,
              "velocity": 31,
              "position": 8.716667,
              "duration": 0.116667
            },
            {
              "pitch": 48,
              "velocity": 56,
              "position": 8.975,
              "duration": 0.3
            },
            {
              "pitch": 52,
              "velocity": 66,
              "position": 8.991667,
              "duration": 0.283333
            },
            {
              "pitch": 55,
              "velocity": 66,
              "position": 9.008333,
              "duration": 0.266667
            },
            {
              "pitch": 59,
              "velocity": 66,
              "position": 9.025,
              "duration": 0.25
            },
            {
              "pitch": 64,
              "velocity": 66,
              "position": 9.041667,
              "duration": 0.233333
            },
            {
              "pitch": 48,
              "velocity": 59,
              "position": 9.958333,
              "duration": 0.341667
            },
            {
              "pitch": 52,
              "velocity": 70,
              "position": 9.975,
              "duration": 0.325
            },
            {
              "pitch": 55,
              "velocity": 70,
              "position": 9.991667,
              "duration": 0.308333
            },
            {
              "pitch": 59,
              "velocity": 70,
              "position": 10.008333,
              "duration": 0.291667
            },
            {
              "pitch": 64,
              "velocity": 70,
              "position": 10.025,
              "duration": 0.275
            },
            {
              "pitch": 48,
              "velocity": 61,
              "position": 10.975,
              "duration": 0.4
            },
            {
              "pitch": 52,
              "velocity": 72,
              "position": 10.991667,
              "duration": 0.383333
            },
            {
              "pitch": 55,
              "velocity": 72,
              "position": 11.008333,
              "duration": 0.366667
            },
            {
              "pitch": 59,
              "velocity": 72,
              "position": 11.025,
              "duration": 0.35
            },
            {
              "pitch": 64,
              "velocity": 72,
              "position": 11.041667,
              "duration": 0.333333
            },
            {
              "pitch": 48,
              "velocity": 23,
              "position": 11.641667,
              "duration": 0.183333
            },
            {
              "pitch": 52,
              "velocity": 28,
              "position": 11.658333,
              "duration": 0.166667
            },
            {
              "pitch": 55,
              "velocity": 28,
              "position": 11.675,
              "duration": 0.15
            },
            {
              "pitch": 59,
              "velocity": 28,
              "position": 11.691667,
              "duration": 0.133333
            },
            {
              "pitch": 64,
              "velocity": 28,
              "position": 11.708333,
              "duration": 0.116667
            },
            {
              "pitch": 48,
              "velocity": 63,
              "position": 11.975,
              "duration": 0.316667
            },
            {
              "pitch": 52,
              "velocity": 75,
              "position": 11.991667,
              "duration": 0.3
            },
            {
              "pitch": 55,
              "velocity": 75,
              "position": 12.008333,
              "duration": 0.283333
            },
            {
              "pitch": 59,
              "velocity": 75,
              "position": 12.025,
              "duration": 0.266667
            },
            {
              "pitch": 64,
              "velocity": 75,
              "position": 12.041667,
              "duration": 0.25
            },
            {
              "pitch": 48,
              "velocity": 63,
              "position": 12.683333,
              "duration": 0.35
            },
            {
              "pitch": 52,
              "velocity": 81,
              "position": 13.016667,
              "duration": 0.591667
            },
            {
              "pitch": 48,
              "velocity": 67,
              "position": 13.7,
              "duration": 0.283333
            },
            {
              "pitch": 55,
              "velocity": 59,
              "position": 14.016667,
              "duration": 0.608333
            },
            {
              "pitch": 52,
              "velocity": 81,
              "position": 14.691667,
              "duration": 0.458333
            },
            {
              "pitch": 48,
              "velocity": 74,
              "position": 15.016667,
              "duration": 0.575
            }
          ]
        }
      }
    },
    "Main_C": {
      "type": "Main_C",
      "sizeInBeats": 16,
      "channels": {
        "9": {
          "ctab": {
            "srcChannel": 9,
            "name": "Drums",
            "accType": "RHYTHM",
            "editable": false,
            "mutedNotes": [],
            "mutedChords": [],
            "sourceChordNote": 0,
            "sourceChordType": "Maj",
            "ctb2Main": {
              "ntr": "ROOT_FIXED",
              "ntt": "BYPASS",
              "bassOn": false,
              "noteLowLimit": 20,
              "noteHighLimit": 127,
              "chordRootUpperLimit": 127,
              "rtr": "RETRIGGER"
            }
          },
          "notes": [
            {
              "pitch": 31,
              "velocity": 60,
              "position": 0.0,
              "duration": 0.208333
            },
            {
              "pitch": 35,
              "velocity": 70,
              "position": 0.0,
              "duration": 0.208333
            },
            {
              "pitch": 49,
              "velocity": 60,
              "position": 0.0,
              "duration": 0.208333
            },
            {
              "pitch": 31,
              "velocity": 70,
              "position": 1.0,
              "duration": 0.208333
            },
            {
              "pitch": 35,
              "velocity": 80,
              "position": 1.0,
              "duration": 0.208333
            },
            {
              "pitch": 37,
              "velocity": 50,
              "position": 1.0,
              "duration": 0.208333
            },
            {
              "pitch": 38,
              "velocity": 80,
              "position": 1.0,
              "duration": 0.208333
            },
            {
              "pitch": 39,
              "velocity": 84,
              "position": 1.0,
              "duration": 0.208333
            },
            {
              "pitch": 42,
              "velocity": 80,
              "position": 1.0,
              "duration": 0.208333
            },
            {
              "pitch": 63,
              "velocity": 50,
              "position": 1.0,
              "duration": 0.208333
            },
            {
              "pitch": 31,
              "velocity": 50,
              "position": 2.0,
              "duration": 0.208333
            },
            {
              "pitch": 35,
              "velocity": 70,
              "position": 2.0,
              "duration": 0.208333
            },
            {
              "pitch": 42,
              "velocity": 70,
              "position": 2.0,
              "duration": 0.208333
            },
            {
              "pitch": 31,
              "velocity": 70,
              "position": 3.0,
              "duration": 0.208333
            },
            {
              "pitch": 35,
              "velocity": 80,
              "position": 3.0,
              "duration": 0.208333
            },
            {
              "pitch": 37,
              "velocity": 50,
              "position": 3.0,
              "duration": 0.208333
            },
            {
              "pitch": 38,
              "velocity": 80,
              "position": 3.0,
              "duration": 0.208333
            },
            {
              "pitch": 39,
              "velocity": 80,
              "position": 3.0,
              "duration": 0.208333
            },
            {
              "pitch": 42,
              "velocity": 80,
              "position": 3.0,
              "duration": 0.208333
            },
            {
              "pitch": 63,
              "velocity": 60,
              "position": 3.0,
              "duration": 0.208333
            },
            {
              "pitch": 38,
              "velocity": 60,
              "position": 3.716667,
              "duration": 0.208333
            },
            {
              "pitch": 31,
              "velocity": 50,
              "position": 4.0,
              "duration": 0.208333
            },
            {
              "pitch": 35,
              "velocity": 70,
              "position": 4.0,
              "duration": 0.208333
            },
            {
              "pitch": 42,
              "velocity": 70,
              "position": 4.0,
              "duration": 0.208333
            },
            {
              "pitch": 31,
              "velocity": 70,
              "position": 5.0,
              "duration": 0.208333
            },
            {
              "pitch": 35,
              "velocity": 80,
              "position": 5.0,
              "duration": 0.208333
            },
            {
              "pitch": 37,
              "velocity": 50,
              "position": 5.0,
              "duration": 0.208333
            },
            {
              "pitch": 38,
              "velocity": 80,
              "position": 5.0,
              "duration": 0.208333
            },
            {
              "pitch": 39,
              "velocity": 70,
              "position": 5.0,
              "duration": 0.208333
            },
            {
              "pitch": 42,
              "velocity": 80,
              "position": 5.0,
              "duration": 0.208333
            },
            {
              "pitch": 63,
              "velocity": 50,
              "position": 5.0,
              "duration": 0.208333
            },
            {
              "pitch": 38,
              "velocity": 40,
              "position": 5.716667,
              "duration": 0.208333
            },
            {
              "pitch": 31,
              "velocity": 50,
              "position": 6.0,
              "duration": 0.208333
            },
            {
              "pitch": 35,
              "velocity": 70,
              "position": 6.0,
              "duration": 0.208333
            },
            {
              "pitch": 42,
              "velocity": 70,
              "position": 6.0,
              "duration": 0.208333
            },
            {
              "pitch": 31,
              "velocity": 40,
              "position": 6.716667,
              "duration": 0.208333
            },
            {
              "pitch": 38,
              "velocity": 40,
              "position": 6.716667,
              "duration": 0.208333
            },
            {
              "pitch": 31,
              "velocity": 70,
              "position": 7.0,
              "duration": 0.208333
            },
            {
              "pitch": 35,
              "velocity": 80,
              "position": 7.0,
              "duration": 0.208333
            },
            {
              "pitch": 37,
              "velocity": 50,
              "position": 7.0,
              "duration": 0.208333
            },
            {
              "pitch": 38,
              "velocity": 80,
              "position": 7.0,
              "duration": 0.208333
            },
            {
              "pitch": 39,
              "velocity": 80,
              "position": 7.0,
              "duration": 0.208333
            },
            {
              "pitch": 42,
              "velocity": 80,
              "position": 7.0,
              "duration": 0.208333
            },
            {
              "pitch": 63,
              "velocity": 60,
              "position": 7.0,
              "duration": 0.208333
            },
            {
              "pitch": 38,
              "velocity": 40,
              "position": 7.716667,
              "duration": 0.208333
            },
            {
              "pitch": 31,
              "velocity": 50,
              "position": 8.0,
              "duration": 0.208333
            },
            {
              "pitch": 35,
              "velocity": 70,
              "position": 8.0,
              "duration": 0.208333
            },
            {
              "pitch": 42,
              "velocity": 70,
              "position": 8.0,
              "duration": 0.208333
            },
            {
              "pitch": 31,
              "velocity": 25,
              "position": 8.716667,
              "duration": 0.208333
            },
            {
              "pitch": 31,
              "velocity": 70,
              "position": 9.0,
              "duration": 0.208333
            },
            {
              "pitch": 35,
              "velocity": 80,
              "position": 9.0,
              "duration": 0.208333
            },
            {
              "pitch": 37,
              "velocity": 50,
              "position": 9.0,
              "duration": 0.208333
            },
            {
              "pitch": 38,
              "velocity": 80,
              "position": 9.0,
              "duration": 0.208333
            },
            {
              "pitch": 39,
              "velocity": 85,
              "position": 9.0,
              "duration": 0.208333
            },
            {
              "pitch": 42,
              "velocity": 80,
              "position": 9.0,
              "duration": 0.208333
            },
            {
              "pitch": 63,
              "velocity": 50,
              "position": 9.0,
              "duration": 0.208333
            },
            {
              "pitch": 38,
              "velocity": 35,
              "position": 9.716667,
              "duration": 0.208333
            },
            {
              "pitch": 31,
              "velocity": 50,
              "position": 10.0,
              "duration": 0.208333
            },
            {
              "pitch": 35,
              "velocity": 70,
              "position": 10.0,
              "duration": 0.208333
            },
            {
              "pitch": 42,
              "velocity": 70,
              "position": 10.0,
              "duration": 0.208333
            },
            {
              "pitch": 31,
              "velocity": 70,
              "position": 11.0,
              "duration": 0.208333
            },
            {
              "pitch": 35,
              "velocity": 80,
              "position": 11.0,
              "duration": 0.208333
            },
            {
              "pitch": 37,
              "velocity": 50,
              "position": 11.0,
              "duration": 0.208333
            },
            {
              "pitch": 38,
              "velocity": 80,
              "position": 11.0,
              "duration": 0.208333
            },
            {
              "pitch": 39,
              "velocity": 87,
              "position": 11.0,
              "duration": 0.208333
            },
            {
              "pitch": 42,
              "velocity": 80,
              "position": 11.0,
              "duration": 0.208333
            },
            {
              "pitch": 63,
              "velocity": 60,
              "position": 11.0,
              "duration": 0.208333
            },
            {
              "pitch": 31,
              "velocity": 30,
              "position": 11.716667,
              "duration": 0.208333
            },
            {
              "pitch": 38,
              "velocity": 30,
              "position": 11.716667,
              "duration": 0.208333
            },
            {
              "pitch": 31,
              "velocity": 50,
              "position": 12.0,
              "duration": 0.208333
            },
            {
              "pitch": 35,
              "velocity": 70,
              "position": 12.0,
              "duration": 0.208333
            },
            {
              "pitch": 42,
              "velocity": 70,
              "position": 12.0,
              "duration": 0.208333
            },
            {
              "pitch": 31,
              "velocity": 70,
              "position": 13.0,
              "duration": 0.208333
            },
            {
              "pitch": 35,
              "velocity": 80,
              "position": 13.0,
              "duration": 0.208333
            },
            {
              "pitch": 37,
              "velocity": 50,
              "position": 13.0,
              "duration": 0.208333
            },
            {
              "pitch": 38,
              "velocity": 80,
              "position": 13.0,
              "duration": 0.208333
            },
            {
              "pitch": 39,
              "velocity": 70,
              "position": 13.0,
              "duration": 0.208333
            },
            {
              "pitch": 42,
              "velocity": 80,
              "position": 13.0,
              "duration": 0.208333
            },
            {
              "pitch": 63,
              "velocity": 50,
              "position": 13.0,
              "duration": 0.208333
            },
            {
              "pitch": 38,
              "velocity": 40,
              "position": 13.716667,
              "duration": 0.208333
            },
            {
              "pitch": 31,
              "velocity": 50,
              "position": 14.0,
              "duration": 0.208333
            },
            {
              "pitch": 35,
              "velocity": 70,
              "position": 14.0,
              "duration": 0.208333
            },
            {
              "pitch": 42,
              "velocity": 70,
              "position": 14.0,
              "duration": 0.208333
            },
            {
              "pitch": 31,
              "velocity": 40,
              "position": 14.716667,
              "duration": 0.208333
            },
            {
              "pitch": 38,
              "velocity": 40,
              "position": 14.716667,
              "duration": 0.208333
            },
            {
              "pitch": 31,
              "velocity": 70,
              "position": 15.0,
              "duration": 0.208333
            },
            {
              "pitch": 35,
              "velocity": 80,
              "position": 15.0,
              "duration": 0.208333
            },
            {
              "pitch": 37,
              "velocity": 50,
              "position": 15.0,
              "duration": 0.208333
            },
            {
              "pitch": 38,
              "velocity": 100,
              "position": 15.0,
              "duration": 0.208333
            },
            {
              "pitch": 39,
              "velocity": 80,
              "position": 15.0,
              "duration": 0.208333
            },
            {
              "pitch": 42,
              "velocity": 80,
              "position": 15.0,
              "duration": 0.208333
            },
            {
              "pitch": 63,
              "velocity": 60,
              "position": 15.0,
              "duration": 0.208333
            },
            {
              "pitch": 38,
              "velocity": 60,
              "position": 15.716667,
              "duration": 0.208333
            }
          ]
        },
        "10": {
          "ctab": {
            "srcChannel": 10,
            "name": "Bass",
            "accType": "BASS",
            "editable": true,
            "mutedNotes": [],
            "mutedChords": [],
            "sourceChordNote": 0,
            "sourceChordType": "Maj7",
            "ctb2Main": {
              "ntr": "ROOT_TRANSPOSITION",
              "ntt": "BYPASS",
              "bassOn": true,
              "noteLowLimit": 20,
              "noteHighLimit": 60,
              "chordRootUpperLimit": 127,
              "rtr": "NOTE_GENERATOR"
            }
          },
          "notes": [
            {
              "pitch": 36,
              "velocity": 83,
              "position": 0.008333,
              "duration": 0.383333
            },
            {
              "pitch": 36,
              "velocity": 64,
              "position": 0.666667,
              "duration": 0.316667
            },
            {
              "pitch": 31,
              "velocity": 83,
              "position": 1.016667,
              "duration": 0.433333
            },
            {
              "pitch": 36,
              "velocity": 83,
              "position": 2.008333,
              "duration": 0.383333
            },
            {
              "pitch": 36,
              "velocity": 64,
              "position": 2.666667,
              "duration": 0.316667
            },
            {
              "pitch": 31,
              "velocity": 83,
              "position": 3.016667,
              "duration": 0.433333
            },
            {
              "pitch": 36,
              "velocity": 83,
              "position": 4.008333,
              "duration": 0.383333
            },
            {
              "pitch": 36,
              "velocity": 64,
              "position": 4.666667,
              "duration": 0.316667
            },
            {
              "pitch": 31,
              "velocity": 83,
              "position": 5.016667,
              "duration": 0.433333
            },
            {
              "pitch": 36,
              "velocity": 89,
              "position": 6.008333,
              "duration": 0.383333
            },
            {
              "pitch": 36,
              "velocity": 89,
              "position": 7.016667,
              "duration": 0.433333
            },
            {
              "pitch": 31,
              "velocity": 51,
              "position": 7.691667,
              "duration": 0.2
            },
            {
              "pitch": 36,
              "velocity": 86,
              "position": 8.016667,
              "duration": 0.383333
            },
            {
              "pitch": 36,
              "velocity": 86,
              "position": 9.016667,
              "duration": 0.433333
            },
            {
              "pitch": 31,
              "velocity": 48,
              "position": 9.691667,
              "duration": 0.2
            },
            {
              "pitch": 36,
              "velocity": 86,
              "position": 10.016667,
              "duration": 0.408333
            },
            {
              "pitch": 36,
              "velocity": 86,
              "position": 10.991667,
              "duration": 0.4
            },
            {
              "pitch": 31,
              "velocity": 60,
              "position": 11.691667,
              "duration": 0.183333
            },
            {
              "pitch": 36,
              "velocity": 86,
              "position": 12.0,
              "duration": 0.483333
            },
            {
              "pitch": 36,
              "velocity": 86,
              "position": 13.016667,
              "duration": 0.508333
            },
            {
              "pitch": 31,
              "velocity": 61,
              "position": 13.716667,
              "duration": 0.183333
            },
            {
              "pitch": 36,
              "velocity": 86,
              "position": 14.008333,
              "duration": 0.341667
            },
            {
              "pitch": 31,
              "velocity": 65,
              "position": 14.683333,
              "duration": 0.158333
            },
            {
              "pitch": 36,
              "velocity": 86,
              "position": 15.008333,
              "duration": 0.433333
            },
            {
              "pitch": 31,
              "velocity": 72,
              "position": 15.666667,
              "duration": 0.183333
            }
          ]
        },
        "11": {
          "ctab": {
            "srcChannel": 11,
            "name": "Piano",
            "accType": "CHORD1",
            "editable": true,
            "mutedNotes": [],
            "mutedChords": [],
            "sourceChordNote": 0,
            "sourceChordType": "Maj7",
            "ctb2Main": {
              "ntr": "ROOT_FIXED",
              "ntt": "CHORD",
              "bassOn": false,
              "noteLowLimit": 48,
              "noteHighLimit": 84,
              "chordRootUpperLimit": 127,
              "rtr": "NOTE_GENERATOR"
            }
          },
          "notes": [
            {
              "pitch": 59,
              "velocity": 73,
              "position": 0.033333,
              "duration": 0.133333
            },
            {
              "pitch": 60,
              "velocity": 71,
              "position": 0.033333,
              "duration": 0.233333
            },
            {
              "pitch": 48,
              "velocity": 78,
              "position": 0.041667,
              "duration": 0.233333
            },
            {
              "pitch": 55,
              "velocity": 69,
              "position": 0.05,
              "duration": 0.233333
            },
            {
              "pitch": 48,
              "velocity": 59,
              "position": 1.008333,
              "duration": 0.133333
            },
            {
              "pitch": 59,
              "velocity": 66,
              "position": 1.016667,
              "duration": 0.208333
            },
            {
              "pitch": 55,
              "velocity": 56,
              "position": 1.033333,
              "duration": 0.125
            },
            {
              "pitch": 59,
              "velocity": 73,
              "position": 1.725,
              "duration": 0.425
            },
            {
              "pitch": 60,
              "velocity": 71,
              "position": 1.725,
              "duration": 0.525
            },
            {
              "pitch": 48,
              "velocity": 78,
              "position": 1.733333,
              "duration": 0.525
            },
            {
              "pitch": 55,
              "velocity": 69,
              "position": 1.741667,
              "duration": 0.525
            },
            {
              "pitch": 48,
              "velocity": 59,
              "position": 3.008333,
              "duration": 0.133333
            },
            {
              "pitch": 59,
              "velocity": 66,
              "position": 3.016667,
              "duration": 0.208333
            },
            {
              "pitch": 55,
              "velocity": 56,
              "position": 3.033333,
              "duration": 0.125
            },
            {
              "pitch": 59,
              "velocity": 73,
              "position": 4.033333,
              "duration": 0.133333
            },
            {
              "pitch": 60,
              "velocity": 71,
              "position": 4.033333,
              "duration": 0.233333
            },
            {
              "pitch": 48,
              "velocity": 78,
              "position": 4.041667,
              "duration": 0.233333
            },
            {
              "pitch": 55,
              "velocity": 69,
              "position": 4.05,
              "duration": 0.233333
            },
            {
              "pitch": 48,
              "velocity": 59,
              "position": 5.008333,
              "duration": 0.133333
            },
            {
              "pitch": 59,
              "velocity": 66,
              "position": 5.016667,
              "duration": 0.208333
            },
            {
              "pitch": 55,
              "velocity": 56,
              "position": 5.033333,
              "duration": 0.125
            },
            {
              "pitch": 48,
              "velocity": 73,
              "position": 6.025,
              "duration": 0.233333
            },
            {
              "pitch": 59,
              "velocity": 66,
              "position": 6.025,
              "duration": 0.216667
            },
            {
              "pitch": 60,
              "velocity": 68,
              "position": 6.025,
              "duration": 0.3
            },
            {
              "pitch": 55,
              "velocity": 49,
              "position": 6.058333,
              "duration": 0.166667
            },
            {
              "pitch": 55,
              "velocity": 64,
              "position": 6.991667,
              "duration": 0.258333
            },
            {
              "pitch": 59,
              "velocity": 82,
              "position": 6.991667,
              "duration": 0.208333
            },
            {
              "pitch": 60,
              "velocity": 67,
              "position": 7.016667,
              "duration": 0.233333
            },
            {
              "pitch": 48,
              "velocity": 72,
              "position": 8.025,
              "duration": 0.233333
            },
            {
              "pitch": 59,
              "velocity": 65,
              "position": 8.025,
              "duration": 0.216667
            },
            {
              "pitch": 60,
              "velocity": 67,
              "position": 8.025,
              "duration": 0.3
            },
            {
              "pitch": 55,
              "velocity": 48,
              "position": 8.058333,
              "duration": 0.166667
            },
            {
              "pitch": 55,
              "velocity": 63,
              "position": 8.991667,
              "duration": 0.258333
            },
            {
              "pitch": 59,
              "velocity": 81,
              "position": 8.991667,
              "duration": 0.208333
            },
            {
              "pitch": 60,
              "velocity": 66,
              "position": 9.016667,
              "duration": 0.233333
            },
            {
              "pitch": 55,
              "velocity": 64,
              "position": 10.025,
              "duration": 0.325
            },
            {
              "pitch": 59,
              "velocity": 77,
              "position": 10.058333,
              "duration": 0.158333
            },
            {
              "pitch": 60,
              "velocity": 71,
              "position": 10.058333,
              "duration": 0.266667
            },
            {
              "pitch": 48,
              "velocity": 66,
              "position": 10.775,
              "duration": 0.183333
            },
            {
              "pitch": 55,
              "velocity": 72,
              "position": 11.016667,
              "duration": 0.266667
            },
            {
              "pitch": 59,
              "velocity": 86,
              "position": 11.041667,
              "duration": 0.133333
            },
            {
              "pitch": 60,
              "velocity": 78,
              "position": 11.041667,
              "duration": 0.241667
            },
            {
              "pitch": 48,
              "velocity": 53,
              "position": 11.733333,
              "duration": 0.183333
            },
            {
              "pitch": 55,
              "velocity": 62,
              "position": 12.058333,
              "duration": 0.233333
            },
            {
              "pitch": 59,
              "velocity": 71,
              "position": 12.058333,
              "duration": 0.133333
            },
            {
              "pitch": 60,
              "velocity": 62,
              "position": 12.058333,
              "duration": 0.208333
            },
            {
              "pitch": 55,
              "velocity": 63,
              "position": 12.991667,
              "duration": 0.258333
            },
            {
              "pitch": 59,
              "velocity": 81,
              "position": 12.991667,
              "duration": 0.183333
            },
            {
              "pitch": 60,
              "velocity": 72,
              "position": 12.991667,
              "duration": 0.258333
            },
            {
              "pitch": 55,
              "velocity": 63,
              "position": 14.025,
              "duration": 0.241667
            },
            {
              "pitch": 59,
              "velocity": 76,
              "position": 14.058333,
              "duration": 0.133333
            },
            {
              "pitch": 60,
              "velocity": 65,
              "position": 14.058333,
              "duration": 0.183333
            },
            {
              "pitch": 48,
              "velocity": 51,
              "position": 14.725,
              "duration": 0.166667
            },
            {
              "pitch": 55,
              "velocity": 66,
              "position": 15.041667,
              "duration": 0.266667
            },
            {
              "pitch": 59,
              "velocity": 82,
              "position": 15.066667,
              "duration": 0.133333
            },
            {
              "pitch": 60,
              "velocity": 68,
              "position": 15.066667,
              "duration": 0.216667
            },
            {
              "pitch": 48,
              "velocity": 51,
              "position": 15.708333,
              "duration": 0.141667
            }
          ]
        },
        "12": {
          "ctab": {
            "srcChannel": 12,
            "name": "Guitar",
            "accType": "CHORD2",
            "editable": true,
            "mutedNotes": [],
            "mutedChords": [],
            "sourceChordNote": 0,
            "sourceChordType": "Maj7",
            "ctb2Main": {
              "ntr": "ROOT_FIXED",
              "ntt": "CHORD",
              "bassOn": false,
              "noteLowLimit": 40,
              "noteHighLimit": 76,
              "chordRootUpperLimit": 127,
              "rtr": "NOTE_GENERATOR"
            }
          },
          "notes": [
            {
              "pitch": 48,
              "velocity": 67,
              "position": 0.008333,
              "duration": 0.25
            },
            {
              "pitch": 55,
              "velocity": 67,
              "position": 0.008333,
              "duration": 0.25
            },
            {
              "pitch": 48,
              "velocity": 67,
              "position": 1.008333,
              "duration": 0.25
            },
            {
              "pitch": 55,
              "velocity": 67,
              "position": 1.008333,
              "duration": 0.25
            },
            {
              "pitch": 48,
              "velocity": 67,
              "position": 2.0,
              "duration": 0.5
            },
            {
              "pitch": 55,
              "velocity": 67,
              "position": 2.0,
              "duration": 0.5
            },
            {
              "pitch": 48,
              "velocity": 67,
              "position": 3.0,
              "duration": 0.291667
            },
            {
              "pitch": 55,
              "velocity": 67,
              "position": 3.0,
              "duration": 0.166667
            },
            {
              "pitch": 48,
              "velocity": 67,
              "position": 4.008333,
              "duration": 0.25
            },
            {
              "pitch": 55,
              "velocity": 67,
              "position": 4.008333,
              "duration": 0.25
            },
            {
              "pitch": 48,
              "velocity": 67,
              "position": 5.008333,
              "duration": 0.25
            },
            {
              "pitch": 55,
              "velocity": 67,
              "position": 5.008333,
              "duration": 0.25
            },
            {
              "pitch": 48,
              "velocity": 67,
              "position": 6.0,
              "duration": 0.5
            },
            {
              "pitch": 55,
              "velocity": 67,
              "position": 6.0,
              "duration": 0.5
            },
            {
              "pitch": 48,
              "velocity": 67,
              "position": 7.0,
              "duration": 0.291667
            },
            {
              "pitch": 55,
              "velocity": 67,
              "position": 7.0,
              "duration": 0.166667
            },
            {
              "pitch": 48,
              "velocity": 66,
              "position": 8.008333,
              "duration": 0.25
            },
            {
              "pitch": 55,
              "velocity": 66,
              "position": 8.008333,
              "duration": 0.25
            },
            {
              "pitch": 48,
              "velocity": 66,
              "position": 9.008333,
              "duration": 0.25
            },
            {
              "pitch": 55,
              "velocity": 66,
              "position": 9.008333,
              "duration": 0.25
            },
            {
              "pitch": 48,
              "velocity": 66,
              "position": 10.008333,
              "duration": 0.25
            },
            {
              "pitch": 55,
              "velocity": 66,
              "position": 10.008333,
              "duration": 0.25
            },
            {
              "pitch": 48,
              "velocity": 66,
              "position": 11.008333,
              "duration": 0.25
            },
            {
              "pitch": 55,
              "velocity": 66,
              "position": 11.008333,
              "duration": 0.25
            },
            {
              "pitch": 48,
              "velocity": 66,
              "position": 12.008333,
              "duration": 0.25
            },
            {
              "pitch": 55,
              "velocity": 66,
              "position": 12.008333,
              "duration": 0.25
            },
            {
              "pitch": 48,
              "velocity": 66,
              "position": 13.008333,
              "duration": 0.25
            },
            {
              "pitch": 55,
              "velocity": 66,
              "position": 13.008333,
              "duration": 0.25
            },
            {
              "pitch": 48,
              "velocity": 66,
              "position": 14.008333,
              "duration": 0.25
            },
            {
              "pitch": 55,
              "velocity": 66,
              "position": 14.008333,
              "duration": 0.25
            },
            {
              "pitch": 48,
              "velocity": 66,
              "position": 15.008333,
              "duration": 0.6
            },
            {
              "pitch": 55,
              "velocity": 66,
              "position": 15.008333,
              "duration": 0.408333
            }
          ]
        },
        "13": {
          "ctab": {
            "srcChannel": 13,
            "name": "Strings",
            "accType": "PAD",
            "editable": true,
            "mutedNotes": [],
            "mutedChords": [],
            "sourceChordNote": 0,
            "sourceChordType": "Maj7",
            "ctb2Main": {
              "ntr": "ROOT_FIXED",
              "ntt": "MELODY",
              "bassOn": false,
              "noteLowLimit": 36,
              "noteHighLimit": 96,
              "chordRootUpperLimit": 127,
              "rtr": "PITCH_SHIFT"
            }
          },
          "notes": [
            {
              "pitch": 48,
              "velocity": 54,
              "position": 0.0,
              "duration": 0.591667
            },
            {
              "pitch": 52,
              "velocity": 64,
              "position": 0.008333,
              "duration": 0.583333
            },
            {
              "pitch": 55,
              "velocity": 64,
              "position": 0.016667,
              "duration": 0.575
            },
            {
              "pitch": 59,
              "velocity": 64,
              "position": 0.033333,
              "duration": 0.558333
            },
            {
              "pitch": 48,
              "velocity": 29,
              "position": 0.666667,
              "duration": 0.183333
            },
            {
              "pitch": 52,
              "velocity": 35,
              "position": 0.675,
              "duration": 0.175
            },
            {
              "pitch": 55,
              "velocity": 35,
              "position": 0.683333,
              "duration": 0.166667
            },
            {
              "pitch": 59,
              "velocity": 35,
              "position": 0.7,
              "duration": 0.15
            },
            {
              "pitch": 48,
              "velocity": 65,
              "position": 1.0,
              "duration": 0.041667
            },
            {
              "pitch": 52,
              "velocity": 77,
              "position": 1.008333,
              "duration": 0.033333
            },
            {
              "pitch": 55,
              "velocity": 77,
              "position": 1.016667,
              "duration": 0.025
            },
            {
              "pitch": 59,
              "velocity": 77,
              "position": 1.033333,
              "duration": 0.008333
            },
            {
              "pitch": 48,
              "velocity": 54,
              "position": 1.658333,
              "duration": 0.475
            },
            {
              "pitch": 52,
              "velocity": 64,
              "position": 1.666667,
              "duration": 0.466667
            },
            {
              "pitch": 55,
              "velocity": 64,
              "position": 1.675,
              "duration": 0.458333
            },
            {
              "pitch": 59,
              "velocity": 64,
              "position": 1.691667,
              "duration": 0.441667
            },
            {
              "pitch": 48,
              "velocity": 40,
              "position": 2.65,
              "duration": 0.183333
            },
            {
              "pitch": 52,
              "velocity": 48,
              "position": 2.658333,
              "duration": 0.175
            },
            {
              "pitch": 55,
              "velocity": 48,
              "position": 2.666667,
              "duration": 0.166667
            },
            {
              "pitch": 59,
              "velocity": 48,
              "position": 2.683333,
              "duration": 0.15
            },
            {
              "pitch": 48,
              "velocity": 65,
              "position": 3.0,
              "duration": 0.183333
            },
            {
              "pitch": 52,
              "velocity": 77,
              "position": 3.008333,
              "duration": 0.175
            },
            {
              "pitch": 55,
              "velocity": 77,
              "position": 3.016667,
              "duration": 0.166667
            },
            {
              "pitch": 59,
              "velocity": 77,
              "position": 3.033333,
              "duration": 0.15
            },
            {
              "pitch": 52,
              "velocity": 37,
              "position": 3.683333,
              "duration": 0.208333
            },
            {
              "pitch": 48,
              "velocity": 54,
              "position": 4.0,
              "duration": 0.358333
            },
            {
              "pitch": 52,
              "velocity": 64,
              "position": 4.008333,
              "duration": 0.35
            },
            {
              "pitch": 55,
              "velocity": 64,
              "position": 4.016667,
              "duration": 0.341667
            },
            {
              "pitch": 59,
              "velocity": 64,
              "position": 4.033333,
              "duration": 0.325
            },
            {
              "pitch": 48,
              "velocity": 65,
              "position": 5.0,
              "duration": 0.183333
            },
            {
              "pitch": 52,
              "velocity": 77,
              "position": 5.008333,
              "duration": 0.175
            },
            {
              "pitch": 55,
              "velocity": 77,
              "position": 5.016667,
              "duration": 0.166667
            },
            {
              "pitch": 59,
              "velocity": 77,
              "position": 5.033333,
              "duration": 0.15
            },
            {
              "pitch": 52,
              "velocity": 37,
              "position": 5.683333,
              "duration": 0.208333
            },
            {
              "pitch": 48,
              "velocity": 54,
              "position": 6.0,
              "duration": 0.358333
            },
            {
              "pitch": 52,
              "velocity": 64,
              "position": 6.008333,
              "duration": 0.35
            },
            {
              "pitch": 55,
              "velocity": 64,
              "position": 6.016667,
              "duration": 0.341667
            },
            {
              "pitch": 59,
              "velocity": 64,
              "position": 6.033333,
              "duration": 0.325
            },
            {
              "pitch": 48,
              "velocity": 65,
              "position": 7.0,
              "duration": 0.183333
            },
            {
              "pitch": 52,
              "velocity": 77,
              "position": 7.008333,
              "duration": 0.175
            },
            {
              "pitch": 55,
              "velocity": 77,
              "position": 7.016667,
              "duration": 0.166667
            },
            {
              "pitch": 59,
              "velocity": 77,
              "position": 7.033333,
              "duration": 0.15
            },
            {
              "pitch": 52,
              "velocity": 37,
              "position": 7.683333,
              "duration": 0.208333
            },
            {
              "pitch": 48,
              "velocity": 54,
              "position": 8.0,
              "duration": 0.591667
            },
            {
              "pitch": 52,
              "velocity": 64,
              "position": 8.008333,
              "duration": 0.583333
            },
            {
              "pitch": 55,
              "velocity": 64,
              "position": 8.016667,
              "duration": 0.575
            },
            {
              "pitch": 59,
              "velocity": 64,
              "position": 8.033333,
              "duration": 0.558333
            },
            {
              "pitch": 48,
              "velocity": 28,
              "position": 8.666667,
              "duration": 0.183333
            },
            {
              "pitch": 52,
              "velocity": 33,
              "position": 8.675,
              "duration": 0.175
            },
            {
              "pitch": 55,
              "velocity": 33,
              "position": 8.683333,
              "duration": 0.166667
            },
            {
              "pitch": 59,
              "velocity": 33,
              "position": 8.7,
              "duration": 0.15
            },
            {
              "pitch": 48,
              "velocity": 56,
              "position": 9.0,
              "duration": 0.275
            },
            {
              "pitch": 52,
              "velocity": 66,
              "position": 9.008333,
              "duration": 0.266667
            },
            {
              "pitch": 55,
              "velocity": 66,
              "position": 9.016667,
              "duration": 0.258333
            },
            {
              "pitch": 59,
              "velocity": 66,
              "position": 9.033333,
              "duration": 0.241667
            },
            {
              "pitch": 48,
              "velocity": 61,
              "position": 9.975,
              "duration": 0.375
            },
            {
              "pitch": 52,
              "velocity": 72,
              "position": 9.983333,
              "duration": 0.366667
            },
            {
              "pitch": 55,
              "velocity": 72,
              "position": 9.991667,
              "duration": 0.358333
            },
            {
              "pitch": 59,
              "velocity": 72,
              "position": 10.008333,
              "duration": 0.341667
            },
            {
              "pitch": 48,
              "velocity": 29,
              "position": 10.666667,
              "duration": 0.258333
            },
            {
              "pitch": 52,
              "velocity": 35,
              "position": 10.675,
              "duration": 0.25
            },
            {
              "pitch": 55,
              "velocity": 35,
              "position": 10.683333,
              "duration": 0.241667
            },
            {
              "pitch": 59,
              "velocity": 35,
              "position": 10.7,
              "duration": 0.225
            },
            {
              "pitch": 48,
              "velocity": 61,
              "position": 11.0,
              "duration": 0.225
            },
            {
              "pitch": 52,
              "velocity": 72,
              "position": 11.008333,
              "duration": 0.216667
            },
            {
              "pitch": 55,
              "velocity": 72,
              "position": 11.016667,
              "duration": 0.208333
            },
            {
              "pitch": 59,
              "velocity": 72,
              "position": 11.033333,
              "duration": 0.191667
            },
            {
              "pitch": 48,
              "velocity": 29,
              "position": 11.666667,
              "duration": 0.158333
            },
            {
              "pitch": 52,
              "velocity": 35,
              "position": 11.675,
              "duration": 0.15
            },
            {
              "pitch": 55,
              "velocity": 35,
              "position": 11.683333,
              "duration": 0.141667
            },
            {
              "pitch": 59,
              "velocity": 35,
              "position": 11.7,
              "duration": 0.125
            },
            {
              "pitch": 48,
              "velocity": 63,
              "position": 12.0,
              "duration": 0.616667
            },
            {
              "pitch": 52,
              "velocity": 75,
              "position": 12.008333,
              "duration": 0.608333
            },
            {
              "pitch": 55,
              "velocity": 75,
              "position": 12.016667,
              "duration": 0.6
            },
            {
              "pitch": 59,
              "velocity": 75,
              "position": 12.033333,
              "duration": 0.583333
            },
            {
              "pitch": 48,
              "velocity": 28,
              "position": 12.666667,
              "duration": 0.208333
            },
            {
              "pitch": 52,
              "velocity": 33,
              "position": 12.675,
              "duration": 0.2
            },
            {
              "pitch": 55,
              "velocity": 33,
              "position": 12.683333,
              "duration": 0.191667
            },
            {
              "pitch": 59,
              "velocity": 33,
              "position": 12.7,
              "duration": 0.175
            },
            {
              "pitch": 48,
              "velocity": 56,
              "position": 13.0,
              "duration": 0.166667
            },
            {
              "pitch": 52,
              "velocity": 66,
              "position": 13.008333,
              "duration": 0.158333
            },
            {
              "pitch": 55,
              "velocity": 66,
              "position": 13.016667,
              "duration": 0.15
            },
            {
              "pitch": 59,
              "velocity": 66,
              "position": 13.033333,
              "duration": 0.133333
            },
            {
              "pitch": 59,
              "velocity": 79,
              "position": 13.683333,
              "duration": 2.15
            },
            {
              "pitch": 55,
              "velocity": 81,
              "position": 14.683333,
              "duration": 1.225
            },
            {
              "pitch": 52,
              "velocity": 59,
              "position": 15.016667,
              "duration": 0.841667
            },
            {
              "pitch": 48,
              "velocity": 62,
              "position": 15.683333,
              "duration": 0.225
            }
          ]
        }
      }
    },
    "Main_D": {
      "type": "Main_D",
      "sizeInBeats": 16,
      "channels": {
        "9": {
          "ctab": {
            "srcChannel": 9,
            "name": "Drums",
            "accType": "RHYTHM",
            "editable": false,
            "mutedNotes": [],
            "mutedChords": [],
            "sourceChordNote": 0,
            "sourceChordType": "Maj",
            "ctb2Main": {
              "ntr": "ROOT_FIXED",
              "ntt": "BYPASS",
              "bassOn": false,
              "noteLowLimit": 20,
              "noteHighLimit": 127,
              "chordRootUpperLimit": 127,
              "rtr": "RETRIGGER"
            }
          },
          "notes": [
            {
              "pitch": 31,
              "velocity": 60,
              "position": 0.0,
              "duration": 0.208333
            },
            {
              "pitch": 35,
              "velocity": 70,
              "position": 0.0,
              "duration": 0.208333
            },
            {
              "pitch": 49,
              "velocity": 60,
              "position": 0.0,
              "duration": 0.208333
            },
            {
              "pitch": 31,
              "velocity": 70,
              "position": 1.0,
              "duration": 0.208333
            },
            {
              "pitch": 35,
              "velocity": 80,
              "position": 1.0,
              "duration": 0.208333
            },
            {
              "pitch": 37,
              "velocity": 50,
              "position": 1.0,
              "duration": 0.208333
            },
            {
              "pitch": 38,
              "velocity": 80,
              "position": 1.0,
              "duration": 0.208333
            },
            {
              "pitch": 39,
              "velocity": 84,
              "position": 1.0,
              "duration": 0.208333
            },
            {
              "pitch": 42,
              "velocity": 80,
              "position": 1.0,
              "duration": 0.208333
            },
            {
              "pitch": 63,
              "velocity": 50,
              "position": 1.0,
              "duration": 0.208333
            },
            {
              "pitch": 31,
              "velocity": 50,
              "position": 2.0,
              "duration": 0.208333
            },
            {
              "pitch": 35,
              "velocity": 70,
              "position": 2.0,
              "duration": 0.208333
            },
            {
              "pitch": 42,
              "velocity": 70,
              "position": 2.0,
              "duration": 0.208333
            },
            {
              "pitch": 31,
              "velocity": 70,
              "position": 3.0,
              "duration": 0.208333
            },
            {
              "pitch": 35,
              "velocity": 80,
              "position": 3.0,
              "duration": 0.208333
            },
            {
              "pitch": 37,
              "velocity": 50,
              "position": 3.0,
              "duration": 0.208333
            },
            {
              "pitch": 38,
              "velocity": 80,
              "position": 3.0,
              "duration": 0.208333
            },
            {
              "pitch": 39,
              "velocity": 80,
              "position": 3.0,
              "duration": 0.208333
            },
            {
              "pitch": 42,
              "velocity": 80,
              "position": 3.0,
              "duration": 0.208333
            },
            {
              "pitch": 63,
              "velocity": 60,
              "position": 3.0,
              "duration": 0.208333
            },
            {
              "pitch": 38,
              "velocity": 60,
              "position": 3.716667,
              "duration": 0.208333
            },
            {
              "pitch": 31,
              "velocity": 50,
              "position": 4.0,
              "duration": 0.208333
            },
            {
              "pitch": 35,
              "velocity": 70,
              "position": 4.0,
              "duration": 0.208333
            },
            {
              "pitch": 42,
              "velocity": 70,
              "position": 4.0,
              "duration": 0.208333
            },
            {
              "pitch": 31,
              "velocity": 70,
              "position": 5.0,
              "duration": 0.208333
            },
            {
              "pitch": 35,
              "velocity": 80,
              "position": 5.0,
              "duration": 0.208333
            },
            {
              "pitch": 37,
              "velocity": 50,
              "position": 5.0,
              "duration": 0.208333
            },
            {
              "pitch": 38,
              "velocity": 80,
              "position": 5.0,
              "duration": 0.208333
            },
            {
              "pitch": 39,
              "velocity": 70,
              "position": 5.0,
              "duration": 0.208333
            },
            {
              "pitch": 42,
              "velocity": 80,
              "position": 5.0,
              "duration": 0.208333
            },
            {
              "pitch": 63,
              "velocity": 50,
              "position": 5.0,
              "duration": 0.208333
            },
            {
              "pitch": 38,
              "velocity": 40,
              "position": 5.716667,
              "duration": 0.208333
            },
            {
              "pitch": 31,
              "velocity": 50,
              "position": 6.0,
              "duration": 0.208333
            },
            {
              "pitch": 35,
              "velocity": 70,
              "position": 6.0,
              "duration": 0.208333
            },
            {
              "pitch": 42,
              "velocity": 70,
              "position": 6.0,
              "duration": 0.208333
            },
            {
              "pitch": 31,
              "velocity": 40,
              "position": 6.716667,
              "duration": 0.208333
            },
            {
              "pitch": 38,
              "velocity": 40,
              "position": 6.716667,
              "duration": 0.208333
            },
            {
              "pitch": 31,
              "velocity": 70,
              "position": 7.0,
              "duration": 0.208333
            },
            {
              "pitch": 35,
              "velocity": 80,
              "position": 7.0,
              "duration": 0.208333
            },
            {
              "pitch": 37,
              "velocity": 50,
              "position": 7.0,
              "duration": 0.208333
            },
            {
              "pitch": 38,
              "velocity": 80,
              "position": 7.0,
              "duration": 0.208333
            },
            {
              "pitch": 39,
              "velocity": 80,
              "position": 7.0,
              "duration": 0.208333
            },
            {
              "pitch": 42,
              "velocity": 80,
              "position": 7.0,
              "duration": 0.208333
            },
            {
              "pitch": 63,
              "velocity": 60,
              "position": 7.0,
              "duration": 0.208333
            },
            {
              "pitch": 38,
              "velocity": 40,
              "position": 7.716667,
              "duration": 0.208333
            },
            {
              "pitch": 31,
              "velocity": 50,
              "position": 8.0,
              "duration": 0.208333
            },
            {
              "pitch": 35,
              "velocity": 70,
              "position": 8.0,
              "duration": 0.208333
            },
            {
              "pitch": 42,
              "velocity": 70,
              "position": 8.0,
              "duration": 0.208333
            },
            {
              "pitch": 31,
              "velocity": 70,
              "position": 9.0,
              "duration": 0.208333
            },
            {
              "pitch": 35,
              "velocity": 80,
              "position": 9.0,
              "duration": 0.208333
            },
            {
              "pitch": 37,
              "velocity": 50,
              "position": 9.0,
              "duration": 0.208333
            },
            {
              "pitch": 38,
              "velocity": 80,
              "position": 9.0,
              "duration": 0.208333
            },
            {
              "pitch": 39,
              "velocity": 90,
              "position": 9.0,
              "duration": 0.208333
            },
            {
              "pitch": 42,
              "velocity": 80,
              "position": 9.0,
              "duration": 0.208333
            },
            {
              "pitch": 63,
              "velocity": 50,
              "position": 9.0,
              "duration": 0.208333
            },
            {
              "pitch": 31,
              "velocity": 50,
              "position": 10.0,
              "duration": 0.208333
            },
            {
              "pitch": 35,
              "velocity": 70,
              "position": 10.0,
              "duration": 0.208333
            },
            {
              "pitch": 42,
              "velocity": 70,
              "position": 10.0,
              "duration": 0.208333
            },
            {
              "pitch": 31,
              "velocity": 70,
              "position": 11.0,
              "duration": 0.208333
            },
            {
              "pitch": 35,
              "velocity": 80,
              "position": 11.0,
              "duration": 0.208333
            },
            {
              "pitch": 37,
              "velocity": 50,
              "position": 11.0,
              "duration": 0.208333
            },
            {
              "pitch": 38,
              "velocity": 80,
              "position": 11.0,
              "duration": 0.208333
            },
            {
              "pitch": 39,
              "velocity": 80,
              "position": 11.0,
              "duration": 0.208333
            },
            {
              "pitch": 42,
              "velocity": 80,
              "position": 11.0,
              "duration": 0.208333
            },
            {
              "pitch": 63,
              "velocity": 60,
              "position": 11.0,
              "duration": 0.208333
            },
            {
              "pitch": 38,
              "velocity": 60,
              "position": 11.716667,
              "duration": 0.208333
            },
            {
              "pitch": 31,
              "velocity": 50,
              "position": 12.0,
              "duration": 0.208333
            },
            {
              "pitch": 35,
              "velocity": 70,
              "position": 12.0,
              "duration": 0.208333
            },
            {
              "pitch": 42,
              "velocity": 70,
              "position": 12.0,
              "duration": 0.208333
            },
            {
              "pitch": 31,
              "velocity": 70,
              "position": 13.0,
              "duration": 0.208333
            },
            {
              "pitch": 35,
              "velocity": 80,
              "position": 13.0,
              "duration": 0.208333
            },
            {
              "pitch": 37,
              "velocity": 50,
              "position": 13.0,
              "duration": 0.208333
            },
            {
              "pitch": 38,
              "velocity": 80,
              "position": 13.0,
              "duration": 0.208333
            },
            {
              "pitch": 39,
              "velocity": 70,
              "position": 13.0,
              "duration": 0.208333
            },
            {
              "pitch": 42,
              "velocity": 80,
              "position": 13.0,
              "duration": 0.208333
            },
            {
              "pitch": 63,
              "velocity": 50,
              "position": 13.0,
              "duration": 0.208333
            },
            {
              "pitch": 31,
              "velocity": 50,
              "position": 14.0,
              "duration": 0.208333
            },
            {
              "pitch": 35,
              "velocity": 70,
              "position": 14.0,
              "duration": 0.208333
            },
            {
              "pitch": 42,
              "velocity": 70,
              "position": 14.0,
              "duration": 0.208333
            },
            {
              "pitch": 31,
              "velocity": 40,
              "position": 14.716667,
              "duration": 0.208333
            },
            {
              "pitch": 38,
              "velocity": 40,
              "position": 14.716667,
              "duration": 0.208333
            },
            {
              "pitch": 31,
              "velocity": 70,
              "position": 15.0,
              "duration": 0.208333
            },
            {
              "pitch": 35,
              "velocity": 80,
              "position": 15.0,
              "duration": 0.208333
            },
            {
              "pitch": 37,
              "velocity": 50,
              "position": 15.0,
              "duration": 0.208333
            },
            {
              "pitch": 38,
              "velocity": 100,
              "position": 15.0,
              "duration": 0.208333
            },
            {
              "pitch": 39,
              "velocity": 80,
              "position": 15.0,
              "duration": 0.208333
            },
            {
              "pitch": 42,
              "velocity": 80,
              "position": 15.0,
              "duration": 0.208333
            },
            {
              "pitch": 63,
              "velocity": 60,
              "position": 15.0,
              "duration": 0.208333
            },
            {
              "pitch": 38,
              "velocity": 60,
              "position": 15.716667,
              "duration": 0.208333
            }
          ]
        },
        "10": {
          "ctab": {
            "srcChannel": 10,
            "name": "Bass",
            "accType": "BASS",
            "editable": true,
            "mutedNotes": [],
            "mutedChords": [],
            "sourceChordNote": 0,
            "sourceChordType": "Maj7",
            "ctb2Main": {
              "ntr": "ROOT_TRANSPOSITION",
              "ntt": "BYPASS",
              "bassOn": true,
              "noteLowLimit": 20,
              "noteHighLimit": 60,
              "chordRootUpperLimit": 127,
              "rtr": "NOTE_GENERATOR"
            }
          },
          "notes": [
            {
              "pitch": 36,
              "velocity": 83,
              "position": 0.008333,
              "duration": 0.383333
            },
            {
              "pitch": 36,
              "velocity": 64,
              "position": 0.666667,
              "duration": 0.316667
            },
            {
              "pitch": 31,
              "velocity": 83,
              "position": 1.016667,
              "duration": 0.433333
            },
            {
              "pitch": 36,
              "velocity": 89,
              "position": 2.008333,
              "duration": 0.383333
            },
            {
              "pitch": 36,
              "velocity": 89,
              "position": 3.016667,
              "duration": 0.433333
            },
            {
              "pitch": 31,
              "velocity": 51,
              "position": 3.691667,
              "duration": 0.2
            },
            {
              "pitch": 36,
              "velocity": 83,
              "position": 4.008333,
              "duration": 0.383333
            },
            {
              "pitch": 36,
              "velocity": 64,
              "position": 4.666667,
              "duration": 0.316667
            },
            {
              "pitch": 31,
              "velocity": 83,
              "position": 5.016667,
              "duration": 0.433333
            },
            {
              "pitch": 36,
              "velocity": 89,
              "position": 6.008333,
              "duration": 0.383333
            },
            {
              "pitch": 36,
              "velocity": 89,
              "position": 7.016667,
              "duration": 0.433333
            },
            {
              "pitch": 31,
              "velocity": 51,
              "position": 7.691667,
              "duration": 0.2
            },
            {
              "pitch": 36,
              "velocity": 86,
              "position": 8.016667,
              "duration": 0.383333
            },
            {
              "pitch": 36,
              "velocity": 86,
              "position": 9.016667,
              "duration": 0.433333
            },
            {
              "pitch": 31,
              "velocity": 48,
              "position": 9.691667,
              "duration": 0.2
            },
            {
              "pitch": 36,
              "velocity": 86,
              "position": 10.016667,
              "duration": 0.408333
            },
            {
              "pitch": 36,
              "velocity": 86,
              "position": 10.991667,
              "duration": 0.4
            },
            {
              "pitch": 31,
              "velocity": 60,
              "position": 11.691667,
              "duration": 0.183333
            },
            {
              "pitch": 36,
              "velocity": 86,
              "position": 12.0,
              "duration": 0.483333
            },
            {
              "pitch": 36,
              "velocity": 86,
              "position": 13.016667,
              "duration": 0.508333
            },
            {
              "pitch": 31,
              "velocity": 61,
              "position": 13.716667,
              "duration": 0.183333
            },
            {
              "pitch": 36,
              "velocity": 86,
              "position": 14.008333,
              "duration": 0.341667
            },
            {
              "pitch": 31,
              "velocity": 65,
              "position": 14.683333,
              "duration": 0.158333
            },
            {
              "pitch": 36,
              "velocity": 86,
              "position": 15.008333,
              "duration": 0.433333
            },
            {
              "pitch": 31,
              "velocity": 72,
              "position": 15.666667,
              "duration": 0.183333
            }
          ]
        },
        "11": {
          "ctab": {
            "srcChannel": 11,
            "name": "Piano",
            "accType": "CHORD1",
            "editable": true,
            "mutedNotes": [],
            "mutedChords": [],
            "sourceChordNote": 0,
            "sourceChordType": "Maj7",
            "ctb2Main": {
              "ntr": "ROOT_FIXED",
              "ntt": "CHORD",
              "bassOn": false,
              "noteLowLimit": 48,
              "noteHighLimit": 84,
              "chordRootUpperLimit": 127,
              "rtr": "NOTE_GENERATOR"
            }
          },
          "notes": [
            {
              "pitch": 48,
              "velocity": 73,
              "position": 0.025,
              "duration": 0.233333
            },
            {
              "pitch": 59,
              "velocity": 66,
              "position": 0.025,
              "duration": 0.216667
            },
            {
              "pitch": 60,
              "velocity": 68,
              "position": 0.025,
              "duration": 0.3
            },
            {
              "pitch": 55,
              "velocity": 49,
              "position": 0.058333,
              "duration": 0.166667
            },
            {
              "pitch": 55,
              "velocity": 64,
              "position": 0.991667,
              "duration": 0.258333
            },
            {
              "pitch": 59,
              "velocity": 82,
              "position": 0.991667,
              "duration": 0.208333
            },
            {
              "pitch": 60,
              "velocity": 67,
              "position": 1.016667,
              "duration": 0.233333
            },
            {
              "pitch": 48,
              "velocity": 73,
              "position": 2.025,
              "duration": 0.233333
            },
            {
              "pitch": 59,
              "velocity": 66,
              "position": 2.025,
              "duration": 0.216667
            },
            {
              "pitch": 60,
              "velocity": 68,
              "position": 2.025,
              "duration": 0.3
            },
            {
              "pitch": 55,
              "velocity": 49,
              "position": 2.058333,
              "duration": 0.166667
            },
            {
              "pitch": 55,
              "velocity": 64,
              "position": 2.991667,
              "duration": 0.258333
            },
            {
              "pitch": 59,
              "velocity": 82,
              "position": 2.991667,
              "duration": 0.208333
            },
            {
              "pitch": 60,
              "velocity": 67,
              "position": 3.016667,
              "duration": 0.233333
            },
            {
              "pitch": 48,
              "velocity": 73,
              "position": 4.025,
              "duration": 0.233333
            },
            {
              "pitch": 59,
              "velocity": 66,
              "position": 4.025,
              "duration": 0.216667
            },
            {
              "pitch": 60,
              "velocity": 68,
              "position": 4.025,
              "duration": 0.3
            },
            {
              "pitch": 55,
              "velocity": 49,
              "position": 4.058333,
              "duration": 0.166667
            },
            {
              "pitch": 55,
              "velocity": 64,
              "position": 4.991667,
              "duration": 0.258333
            },
            {
              "pitch": 59,
              "velocity": 82,
              "position": 4.991667,
              "duration": 0.208333
            },
            {
              "pitch": 60,
              "velocity": 67,
              "position": 5.016667,
              "duration": 0.233333
            },
            {
              "pitch": 48,
              "velocity": 73,
              "position": 6.025,
              "duration": 0.233333
            },
            {
              "pitch": 59,
              "velocity": 66,
              "position": 6.025,
              "duration": 0.216667
            },
            {
              "pitch": 60,
              "velocity": 68,
              "position": 6.025,
              "duration": 0.3
            },
            {
              "pitch": 55,
              "velocity": 49,
              "position": 6.058333,
              "duration": 0.166667
            },
            {
              "pitch": 55,
              "velocity": 64,
              "position": 6.991667,
              "duration": 0.258333
            },
            {
              "pitch": 59,
              "velocity": 82,
              "position": 6.991667,
              "duration": 0.208333
            },
            {
              "pitch": 60,
              "velocity": 67,
              "position": 7.016667,
              "duration": 0.233333
            },
            {
              "pitch": 48,
              "velocity": 72,
              "position": 8.025,
              "duration": 0.233333
            },
            {
              "pitch": 59,
              "velocity": 65,
              "position": 8.025,
              "duration": 0.216667
            },
            {
              "pitch": 60,
              "velocity": 67,
              "position": 8.025,
              "duration": 0.3
            },
            {
              "pitch": 55,
              "velocity": 48,
              "position": 8.058333,
              "duration": 0.166667
            },
            {
              "pitch": 55,
              "velocity": 63,
              "position": 8.991667,
              "duration": 0.258333
            },
            {
              "pitch": 59,
              "velocity": 81,
              "position": 8.991667,
              "duration": 0.208333
            },
            {
              "pitch": 60,
              "velocity": 66,
              "position": 9.016667,
              "duration": 0.233333
            },
            {
              "pitch": 55,
              "velocity": 64,
              "position": 10.025,
              "duration": 0.325
            },
            {
              "pitch": 59,
              "velocity": 77,
              "position": 10.058333,
              "duration": 0.158333
            },
            {
              "pitch": 60,
              "velocity": 71,
              "position": 10.058333,
              "duration": 0.266667
            },
            {
              "pitch": 48,
              "velocity": 66,
              "position": 10.775,
              "duration": 0.183333
            },
            {
              "pitch": 55,
              "velocity": 72,
              "position": 11.016667,
              "duration": 0.266667
            },
            {
              "pitch": 59,
              "velocity": 86,
              "position": 11.041667,
              "duration": 0.133333
            },
            {
              "pitch": 60,
              "velocity": 78,
              "position": 11.041667,
              "duration": 0.241667
            },
            {
              "pitch": 48,
              "velocity": 53,
              "position": 11.733333,
              "duration": 0.183333
            },
            {
              "pitch": 55,
              "velocity": 62,
              "position": 12.058333,
              "duration": 0.233333
            },
            {
              "pitch": 59,
              "velocity": 71,
              "position": 12.058333,
              "duration": 0.133333
            },
            {
              "pitch": 60,
              "velocity": 62,
              "position": 12.058333,
              "duration": 0.208333
            },
            {
              "pitch": 55,
              "velocity": 63,
              "position": 12.991667,
              "duration": 0.258333
            },
            {
              "pitch": 59,
              "velocity": 81,
              "position": 12.991667,
              "duration": 0.183333
            },
            {
              "pitch": 60,
              "velocity": 72,
              "position": 12.991667,
              "duration": 0.258333
            },
            {
              "pitch": 55,
              "velocity": 63,
              "position": 14.025,
              "duration": 0.241667
            },
            {
              "pitch": 59,
              "velocity": 76,
              "position": 14.058333,
              "duration": 0.133333
            },
            {
              "pitch": 60,
              "velocity": 65,
              "position": 14.058333,
              "duration": 0.183333
            },
            {
              "pitch": 48,
              "velocity": 51,
              "position": 14.725,
              "duration": 0.166667
            },
            {
              "pitch": 55,
              "velocity": 66,
              "position": 15.041667,
              "duration": 0.266667
            },
            {
              "pitch": 59,
              "velocity": 82,
              "position": 15.066667,
              "duration": 0.133333
            },
            {
              "pitch": 60,
              "velocity": 68,
              "position": 15.066667,
              "duration": 0.216667
            },
            {
              "pitch": 48,
              "velocity": 51,
              "position": 15.708333,
              "duration": 0.141667
            }
          ]
        },
        "12": {
          "ctab": {
            "srcChannel": 12,
            "name": "Guitar",
            "accType": "CHORD2",
            "editable": true,
            "mutedNotes": [],
            "mutedChords": [],
            "sourceChordNote": 0,
            "sourceChordType": "Maj7",
            "ctb2Main": {
              "ntr": "ROOT_FIXED",
              "ntt": "CHORD",
              "bassOn": false,
              "noteLowLimit": 40,
              "noteHighLimit": 76,
              "chordRootUpperLimit": 127,
              "rtr": "NOTE_GENERATOR"
            }
          },
          "notes": [
            {
              "pitch": 48,
              "velocity": 67,
              "position": 0.0,
              "duration": 0.25
            },
            {
              "pitch": 55,
              "velocity": 67,
              "position": 0.0,
              "duration": 0.25
            },
            {
              "pitch": 48,
              "velocity": 67,
              "position": 1.0,
              "duration": 0.25
            },
            {
              "pitch": 55,
              "velocity": 67,
              "position": 1.0,
              "duration": 0.25
            },
            {
              "pitch": 48,
              "velocity": 67,
              "position": 2.0,
              "duration": 0.5
            },
            {
              "pitch": 55,
              "velocity": 67,
              "position": 2.0,
              "duration": 0.5
            },
            {
              "pitch": 48,
              "velocity": 67,
              "position": 3.0,
              "duration": 0.291667
            },
            {
              "pitch": 55,
              "velocity": 67,
              "position": 3.0,
              "duration": 0.166667
            },
            {
              "pitch": 48,
              "velocity": 67,
              "position": 4.0,
              "duration": 0.25
            },
            {
              "pitch": 55,
              "velocity": 67,
              "position": 4.0,
              "duration": 0.25
            },
            {
              "pitch": 48,
              "velocity": 67,
              "position": 5.0,
              "duration": 0.25
            },
            {
              "pitch": 55,
              "velocity": 67,
              "position": 5.0,
              "duration": 0.25
            },
            {
              "pitch": 48,
              "velocity": 67,
              "position": 6.008333,
              "duration": 0.25
            },
            {
              "pitch": 55,
              "velocity": 67,
              "position": 6.008333,
              "duration": 0.25
            },
            {
              "pitch": 48,
              "velocity": 67,
              "position": 7.008333,
              "duration": 0.25
            },
            {
              "pitch": 55,
              "velocity": 67,
              "position": 7.008333,
              "duration": 0.25
            },
            {
              "pitch": 48,
              "velocity": 66,
              "position": 8.016667,
              "duration": 0.5
            },
            {
              "pitch": 55,
              "velocity": 66,
              "position": 8.016667,
              "duration": 0.5
            },
            {
              "pitch": 48,
              "velocity": 66,
              "position": 9.016667,
              "duration": 0.291667
            },
            {
              "pitch": 55,
              "velocity": 66,
              "position": 9.016667,
              "duration": 0.166667
            },
            {
              "pitch": 48,
              "velocity": 66,
              "position": 10.016667,
              "duration": 0.5
            },
            {
              "pitch": 55,
              "velocity": 66,
              "position": 10.016667,
              "duration": 0.5
            },
            {
              "pitch": 48,
              "velocity": 66,
              "position": 11.016667,
              "duration": 0.291667
            },
            {
              "pitch": 55,
              "velocity": 66,
              "position": 11.016667,
              "duration": 0.183333
            },
            {
              "pitch": 48,
              "velocity": 66,
              "position": 12.016667,
              "duration": 0.5
            },
            {
              "pitch": 55,
              "velocity": 66,
              "position": 12.016667,
              "duration": 0.5
            },
            {
              "pitch": 48,
              "velocity": 66,
              "position": 13.016667,
              "duration": 0.258333
            },
            {
              "pitch": 55,
              "velocity": 66,
              "position": 13.016667,
              "duration": 0.25
            },
            {
              "pitch": 48,
              "velocity": 66,
              "position": 14.016667,
              "duration": 0.5
            },
            {
              "pitch": 55,
              "velocity": 66,
              "position": 14.016667,
              "duration": 0.5
            },
            {
              "pitch": 48,
              "velocity": 66,
              "position": 15.016667,
              "duration": 0.166667
            },
            {
              "pitch": 55,
              "velocity": 66,
              "position": 15.016667,
              "duration": 0.308333
            }
          ]
        },
        "13": {
          "ctab": {
            "srcChannel": 13,
            "name": "Strings",
            "accType": "PAD",
            "editable": true,
            "mutedNotes": [],
            "mutedChords": [],
            "sourceChordNote": 0,
            "sourceChordType": "Maj7",
            "ctb2Main": {
              "ntr": "ROOT_FIXED",
              "ntt": "MELODY",
              "bassOn": false,
              "noteLowLimit": 36,
              "noteHighLimit": 96,
              "chordRootUpperLimit": 127,
              "rtr": "PITCH_SHIFT"
            }
          },
          "notes": [
            {
              "pitch": 48,
              "velocity": 50,
              "position": 0.0,
              "duration": 0.941667
            },
            {
              "pitch": 52,
              "velocity": 59,
              "position": 0.008333,
              "duration": 0.933333
            },
            {
              "pitch": 55,
              "velocity": 59,
              "position": 0.016667,
              "duration": 0.925
            },
            {
              "pitch": 59,
              "velocity": 59,
              "position": 0.033333,
              "duration": 0.908333
            },
            {
              "pitch": 48,
              "velocity": 59,
              "position": 1.0,
              "duration": 0.041667
            },
            {
              "pitch": 52,
              "velocity": 70,
              "position": 1.008333,
              "duration": 0.033333
            },
            {
              "pitch": 55,
              "velocity": 70,
              "position": 1.016667,
              "duration": 0.025
            },
            {
              "pitch": 59,
              "velocity": 70,
              "position": 1.033333,
              "duration": 0.008333
            },
            {
              "pitch": 48,
              "velocity": 54,
              "position": 1.658333,
              "duration": 0.475
            },
            {
              "pitch": 52,
              "velocity": 64,
              "position": 1.666667,
              "duration": 0.466667
            },
            {
              "pitch": 55,
              "velocity": 64,
              "position": 1.675,
              "duration": 0.458333
            },
            {
              "pitch": 59,
              "velocity": 64,
              "position": 1.691667,
              "duration": 0.441667
            },
            {
              "pitch": 48,
              "velocity": 40,
              "position": 2.65,
              "duration": 0.183333
            },
            {
              "pitch": 52,
              "velocity": 48,
              "position": 2.658333,
              "duration": 0.175
            },
            {
              "pitch": 55,
              "velocity": 48,
              "position": 2.666667,
              "duration": 0.166667
            },
            {
              "pitch": 59,
              "velocity": 48,
              "position": 2.683333,
              "duration": 0.15
            },
            {
              "pitch": 48,
              "velocity": 65,
              "position": 3.0,
              "duration": 0.183333
            },
            {
              "pitch": 52,
              "velocity": 77,
              "position": 3.008333,
              "duration": 0.175
            },
            {
              "pitch": 55,
              "velocity": 77,
              "position": 3.016667,
              "duration": 0.166667
            },
            {
              "pitch": 59,
              "velocity": 77,
              "position": 3.033333,
              "duration": 0.15
            },
            {
              "pitch": 52,
              "velocity": 37,
              "position": 3.683333,
              "duration": 0.208333
            },
            {
              "pitch": 48,
              "velocity": 54,
              "position": 4.0,
              "duration": 0.591667
            },
            {
              "pitch": 52,
              "velocity": 64,
              "position": 4.008333,
              "duration": 0.583333
            },
            {
              "pitch": 55,
              "velocity": 64,
              "position": 4.016667,
              "duration": 0.575
            },
            {
              "pitch": 59,
              "velocity": 64,
              "position": 4.033333,
              "duration": 0.558333
            },
            {
              "pitch": 48,
              "velocity": 26,
              "position": 4.666667,
              "duration": 0.183333
            },
            {
              "pitch": 52,
              "velocity": 31,
              "position": 4.675,
              "duration": 0.175
            },
            {
              "pitch": 55,
              "velocity": 31,
              "position": 4.683333,
              "duration": 0.166667
            },
            {
              "pitch": 59,
              "velocity": 31,
              "position": 4.7,
              "duration": 0.15
            },
            {
              "pitch": 48,
              "velocity": 56,
              "position": 5.0,
              "duration": 0.041667
            },
            {
              "pitch": 52,
              "velocity": 66,
              "position": 5.008333,
              "duration": 0.033333
            },
            {
              "pitch": 55,
              "velocity": 66,
              "position": 5.016667,
              "duration": 0.025
            },
            {
              "pitch": 59,
              "velocity": 66,
              "position": 5.033333,
              "duration": 0.008333
            },
            {
              "pitch": 52,
              "velocity": 79,
              "position": 5.683333,
              "duration": 0.766667
            },
            {
              "pitch": 55,
              "velocity": 72,
              "position": 6.666667,
              "duration": 1.091667
            },
            {
              "pitch": 52,
              "velocity": 66,
              "position": 7.666667,
              "duration": 0.3
            },
            {
              "pitch": 48,
              "velocity": 54,
              "position": 8.0,
              "duration": 0.358333
            },
            {
              "pitch": 52,
              "velocity": 64,
              "position": 8.008333,
              "duration": 0.35
            },
            {
              "pitch": 55,
              "velocity": 64,
              "position": 8.016667,
              "duration": 0.341667
            },
            {
              "pitch": 59,
              "velocity": 64,
              "position": 8.033333,
              "duration": 0.325
            },
            {
              "pitch": 48,
              "velocity": 65,
              "position": 9.0,
              "duration": 0.183333
            },
            {
              "pitch": 52,
              "velocity": 77,
              "position": 9.008333,
              "duration": 0.175
            },
            {
              "pitch": 55,
              "velocity": 77,
              "position": 9.016667,
              "duration": 0.166667
            },
            {
              "pitch": 59,
              "velocity": 77,
              "position": 9.033333,
              "duration": 0.15
            },
            {
              "pitch": 52,
              "velocity": 37,
              "position": 9.683333,
              "duration": 0.208333
            },
            {
              "pitch": 48,
              "velocity": 51,
              "position": 10.0,
              "duration": 0.241667
            },
            {
              "pitch": 52,
              "velocity": 61,
              "position": 10.008333,
              "duration": 0.233333
            },
            {
              "pitch": 55,
              "velocity": 61,
              "position": 10.016667,
              "duration": 0.225
            },
            {
              "pitch": 59,
              "velocity": 61,
              "position": 10.033333,
              "duration": 0.208333
            },
            {
              "pitch": 48,
              "velocity": 67,
              "position": 11.0,
              "duration": 0.183333
            },
            {
              "pitch": 52,
              "velocity": 79,
              "position": 11.008333,
              "duration": 0.175
            },
            {
              "pitch": 55,
              "velocity": 79,
              "position": 11.016667,
              "duration": 0.166667
            },
            {
              "pitch": 59,
              "velocity": 79,
              "position": 11.033333,
              "duration": 0.15
            },
            {
              "pitch": 52,
              "velocity": 35,
              "position": 11.683333,
              "duration": 0.191667
            },
            {
              "pitch": 48,
              "velocity": 46,
              "position": 12.0,
              "duration": 0.25
            },
            {
              "pitch": 52,
              "velocity": 55,
              "position": 12.008333,
              "duration": 0.241667
            },
            {
              "pitch": 55,
              "velocity": 55,
              "position": 12.016667,
              "duration": 0.233333
            },
            {
              "pitch": 59,
              "velocity": 55,
              "position": 12.033333,
              "duration": 0.216667
            },
            {
              "pitch": 48,
              "velocity": 65,
              "position": 13.0,
              "duration": 0.183333
            },
            {
              "pitch": 52,
              "velocity": 77,
              "position": 13.008333,
              "duration": 0.175
            },
            {
              "pitch": 55,
              "velocity": 77,
              "position": 13.016667,
              "duration": 0.166667
            },
            {
              "pitch": 59,
              "velocity": 77,
              "position": 13.033333,
              "duration": 0.15
            },
            {
              "pitch": 52,
              "velocity": 44,
              "position": 13.683333,
              "duration": 0.183333
            },
            {
              "pitch": 48,
              "velocity": 40,
              "position": 14.0,
              "duration": 0.183333
            },
            {
              "pitch": 52,
              "velocity": 48,
              "position": 14.008333,
              "duration": 0.175
            },
            {
              "pitch": 55,
              "velocity": 48,
              "position": 14.016667,
              "duration": 0.166667
            },
            {
              "pitch": 59,
              "velocity": 48,
              "position": 14.033333,
              "duration": 0.15
            },
            {
              "pitch": 52,
              "velocity": 33,
              "position": 14.683333,
              "duration": 0.208333
            },
            {
              "pitch": 48,
              "velocity": 59,
              "position": 15.0,
              "duration": 0.183333
            },
            {
              "pitch": 52,
              "velocity": 70,
              "position": 15.008333,
              "duration": 0.175
            },
            {
              "pitch": 55,
              "velocity": 70,
              "position": 15.016667,
              "duration": 0.166667
            },
            {
              "pitch": 59,
              "velocity": 70,
              "position": 15.033333,
              "duration": 0.15
            },
            {
              "pitch": 52,
              "velocity": 37,
              "position": 15.683333,
              "duration": 0.241667
            }
          ]
        }
      }
    },
    "Fill_In_AA": {
      "type": "Fill_In_AA",
      "sizeInBeats": 16,
      "channels": {
        "9": {
          "ctab": {
            "srcChannel": 9,
            "name": "Drums",
            "accType": "RHYTHM",
            "editable": false,
            "mutedNotes": [],
            "mutedChords": [],
            "sourceChordNote": 0,
            "sourceChordType": "Maj",
            "ctb2Main": {
              "ntr": "ROOT_FIXED",
              "ntt": "BYPASS",
              "bassOn": false,
              "noteLowLimit": 20,
              "noteHighLimit": 127,
              "chordRootUpperLimit": 127,
              "rtr": "RETRIGGER"
            }
          },
          "notes": [
            {
              "pitch": 31,
              "velocity": 60,
              "position": 0.0,
              "duration": 0.208333
            },
            {
              "pitch": 35,
              "velocity": 70,
              "position": 0.0,
              "duration": 0.208333
            },
            {
              "pitch": 49,
              "velocity": 60,
              "position": 0.0,
              "duration": 0.208333
            },
            {
              "pitch": 31,
              "velocity": 70,
              "position": 1.0,
              "duration": 0.208333
            },
            {
              "pitch": 35,
              "velocity": 80,
              "position": 1.0,
              "duration": 0.208333
            },
            {
              "pitch": 37,
              "velocity": 50,
              "position": 1.0,
              "duration": 0.208333
            },
            {
              "pitch": 38,
              "velocity": 80,
              "position": 1.0,
              "duration": 0.208333
            },
            {
              "pitch": 39,
              "velocity": 84,
              "position": 1.0,
              "duration": 0.208333
            },
            {
              "pitch": 42,
              "velocity": 80,
              "position": 1.0,
              "duration": 0.208333
            },
            {
              "pitch": 63,
              "velocity": 50,
              "position": 1.0,
              "duration": 0.208333
            },
            {
              "pitch": 31,
              "velocity": 50,
              "position": 2.0,
              "duration": 0.208333
            },
            {
              "pitch": 35,
              "velocity": 70,
              "position": 2.0,
              "duration": 0.208333
            },
            {
              "pitch": 42,
              "velocity": 70,
              "position": 2.0,
              "duration": 0.208333
            },
            {
              "pitch": 31,
              "velocity": 70,
              "position": 3.0,
              "duration": 0.208333
            },
            {
              "pitch": 35,
              "velocity": 80,
              "position": 3.0,
              "duration": 0.208333
            },
            {
              "pitch": 37,
              "velocity": 50,
              "position": 3.0,
              "duration": 0.208333
            },
            {
              "pitch": 38,
              "velocity": 80,
              "position": 3.0,
              "duration": 0.208333
            },
            {
              "pitch": 39,
              "velocity": 80,
              "position": 3.0,
              "duration": 0.208333
            },
            {
              "pitch": 42,
              "velocity": 80,
              "position": 3.0,
              "duration": 0.208333
            },
            {
              "pitch": 63,
              "velocity": 60,
              "position": 3.0,
              "duration": 0.208333
            },
            {
              "pitch": 38,
              "velocity": 60,
              "position": 3.716667,
              "duration": 0.208333
            },
            {
              "pitch": 31,
              "velocity": 50,
              "position": 4.0,
              "duration": 0.208333
            },
            {
              "pitch": 35,
              "velocity": 70,
              "position": 4.0,
              "duration": 0.208333
            },
            {
              "pitch": 42,
              "velocity": 70,
              "position": 4.0,
              "duration": 0.208333
            },
            {
              "pitch": 31,
              "velocity": 70,
              "position": 5.0,
              "duration": 0.208333
            },
            {
              "pitch": 35,
              "velocity": 80,
              "position": 5.0,
              "duration": 0.208333
            },
            {
              "pitch": 37,
              "velocity": 50,
              "position": 5.0,
              "duration": 0.208333
            },
            {
              "pitch": 38,
              "velocity": 80,
              "position": 5.0,
              "duration": 0.208333
            },
            {
              "pitch": 39,
              "velocity": 70,
              "position": 5.0,
              "duration": 0.208333
            },
            {
              "pitch": 42,
              "velocity": 80,
              "position": 5.0,
              "duration": 0.208333
            },
            {
              "pitch": 63,
              "velocity": 50,
              "position": 5.0,
              "duration": 0.208333
            },
            {
              "pitch": 38,
              "velocity": 40,
              "position": 5.716667,
              "duration": 0.208333
            },
            {
              "pitch": 31,
              "velocity": 50,
              "position": 6.0,
              "duration": 0.208333
            },
            {
              "pitch": 35,
              "velocity": 70,
              "position": 6.0,
              "duration": 0.208333
            },
            {
              "pitch": 42,
              "velocity": 70,
              "position": 6.0,
              "duration": 0.208333
            },
            {
              "pitch": 31,
              "velocity": 40,
              "position": 6.716667,
              "duration": 0.208333
            },
            {
              "pitch": 38,
              "velocity": 40,
              "position": 6.716667,
              "duration": 0.208333
            },
            {
              "pitch": 31,
              "velocity": 70,
              "position": 7.0,
              "duration": 0.208333
            },
            {
              "pitch": 35,
              "velocity": 80,
              "position": 7.0,
              "duration": 0.208333
            },
            {
              "pitch": 37,
              "velocity": 50,
              "position": 7.0,
              "duration": 0.208333
            },
            {
              "pitch": 38,
              "velocity": 80,
              "position": 7.0,
              "duration": 0.208333
            },
            {
              "pitch": 39,
              "velocity": 80,
              "position": 7.0,
              "duration": 0.208333
            },
            {
              "pitch": 42,
              "velocity": 80,
              "position": 7.0,
              "duration": 0.208333
            },
            {
              "pitch": 63,
              "velocity": 60,
              "position": 7.0,
              "duration": 0.208333
            },
            {
              "pitch": 38,
              "velocity": 40,
              "position": 7.716667,
              "duration": 0.208333
            },
            {
              "pitch": 31,
              "velocity": 50,
              "position": 8.0,
              "duration": 0.208333
            },
            {
              "pitch": 35,
              "velocity": 70,
              "position": 8.0,
              "duration": 0.208333
            },
            {
              "pitch": 42,
              "velocity": 70,
              "position": 8.0,
              "duration": 0.208333
            },
            {
              "pitch": 31,
              "velocity": 25,
              "position": 8.716667,
              "duration": 0.208333
            },
            {
              "pitch": 31,
              "velocity": 70,
              "position": 9.0,
              "duration": 0.208333
            },
            {
              "pitch": 35,
              "velocity": 80,
              "position": 9.0,
              "duration": 0.208333
            },
            {
              "pitch": 37,
              "velocity": 50,
              "position": 9.0,
              "duration": 0.208333
            },
            {
              "pitch": 38,
              "velocity": 80,
              "position": 9.0,
              "duration": 0.208333
            },
            {
              "pitch": 39,
              "velocity": 85,
              "position": 9.0,
              "duration": 0.208333
            },
            {
              "pitch": 42,
              "velocity": 80,
              "position": 9.0,
              "duration": 0.208333
            },
            {
              "pitch": 63,
              "velocity": 50,
              "position": 9.0,
              "duration": 0.208333
            },
            {
              "pitch": 38,
              "velocity": 35,
              "position": 9.716667,
              "duration": 0.208333
            },
            {
              "pitch": 31,
              "velocity": 50,
              "position": 10.0,
              "duration": 0.208333
            },
            {
              "pitch": 35,
              "velocity": 70,
              "position": 10.0,
              "duration": 0.208333
            },
            {
              "pitch": 42,
              "velocity": 70,
              "position": 10.0,
              "duration": 0.208333
            },
            {
              "pitch": 31,
              "velocity": 70,
              "position": 11.0,
              "duration": 0.208333
            },
            {
              "pitch": 35,
              "velocity": 80,
              "position": 11.0,
              "duration": 0.208333
            },
            {
              "pitch": 37,
              "velocity": 50,
              "position": 11.0,
              "duration": 0.208333
            },
            {
              "pitch": 38,
              "velocity": 80,
              "position": 11.0,
              "duration": 0.208333
            },
            {
              "pitch": 39,
              "velocity": 87,
              "position": 11.0,
              "duration": 0.208333
            },
            {
              "pitch": 42,
              "velocity": 80,
              "position": 11.0,
              "duration": 0.208333
            },
            {
              "pitch": 63,
              "velocity": 60,
              "position": 11.0,
              "duration": 0.208333
            },
            {
              "pitch": 31,
              "velocity": 30,
              "position": 11.716667,
              "duration": 0.208333
            },
            {
              "pitch": 38,
              "velocity": 30,
              "position": 11.716667,
              "duration": 0.208333
            },
            {
              "pitch": 31,
              "velocity": 50,
              "position": 12.0,
              "duration": 0.208333
            },
            {
              "pitch": 35,
              "velocity": 70,
              "position": 12.0,
              "duration": 0.208333
            },
            {
              "pitch": 42,
              "velocity": 70,
              "position": 12.0,
              "duration": 0.208333
            },
            {
              "pitch": 31,
              "velocity": 70,
              "position": 13.0,
              "duration": 0.208333
            },
            {
              "pitch": 35,
              "velocity": 80,
              "position": 13.0,
              "duration": 0.208333
            },
            {
              "pitch": 37,
              "velocity": 50,
              "position": 13.0,
              "duration": 0.208333
            },
            {
              "pitch": 38,
              "velocity": 80,
              "position": 13.0,
              "duration": 0.208333
            },
            {
              "pitch": 39,
              "velocity": 70,
              "position": 13.0,
              "duration": 0.208333
            },
            {
              "pitch": 42,
              "velocity": 80,
              "position": 13.0,
              "duration": 0.208333
            },
            {
              "pitch": 63,
              "velocity": 50,
              "position": 13.0,
              "duration": 0.208333
            },
            {
              "pitch": 38,
              "velocity": 50,
              "position": 13.716667,
              "duration": 0.208333
            },
            {
              "pitch": 31,
              "velocity": 50,
              "position": 14.0,
              "duration": 0.208333
            },
            {
              "pitch": 35,
              "velocity": 70,
              "position": 14.0,
              "duration": 0.208333
            },
            {
              "pitch": 38,
              "velocity": 80,
              "position": 14.0,
              "duration": 0.208333
            },
            {
              "pitch": 42,
              "velocity": 70,
              "position": 14.0,
              "duration": 0.208333
            },
            {
              "pitch": 38,
              "velocity": 40,
              "position": 14.333333,
              "duration": 0.208333
            },
            {
              "pitch": 38,
              "velocity": 60,
              "position": 14.716667,
              "duration": 0.208333
            },
            {
              "pitch": 31,
              "velocity": 70,
              "position": 15.0,
              "duration": 0.208333
            },
            {
              "pitch": 35,
              "velocity": 80,
              "position": 15.0,
              "duration": 0.208333
            },
            {
              "pitch": 37,
              "velocity": 50,
              "position": 15.0,
              "duration": 0.208333
            },
            {
              "pitch": 38,
              "velocity": 70,
              "position": 15.0,
              "duration": 0.208333
            },
            {
              "pitch": 39,
              "velocity": 80,
              "position": 15.0,
              "duration": 0.208333
            },
            {
              "pitch": 42,
              "velocity": 80,
              "position": 15.0,
              "duration": 0.208333
            },
            {
              "pitch": 63,
              "velocity": 60,
              "position": 15.0,
              "duration": 0.208333
            },
            {
              "pitch": 38,
              "velocity": 40,
              "position": 15.333333,
              "duration": 0.208333
            },
            {
              "pitch": 38,
              "velocity": 60,
              "position": 15.716667,
              "duration": 0.208333
            }
          ]
        },
        "10": {
          "ctab": {
            "srcChannel": 10,
            "name": "Bass",
            "accType": "BASS",
            "editable": true,
            "mutedNotes": [],
            "mutedChords": [],
            "sourceChordNote": 0,
            "sourceChordType": "Maj7",
            "ctb2Main": {
              "ntr": "ROOT_TRANSPOSITION",
              "ntt": "BYPASS",
              "bassOn": true,
              "noteLowLimit": 20,
              "noteHighLimit": 60,
              "chordRootUpperLimit": 127,
              "rtr": "NOTE_GENERATOR"
            }
          },
          "notes": [
            {
              "pitch": 36,
              "velocity": 83,
              "position": 0.008333,
              "duration": 0.383333
            },
            {
              "pitch": 36,
              "velocity": 64,
              "position": 0.666667,
              "duration": 0.316667
            },
            {
              "pitch": 31,
              "velocity": 83,
              "position": 1.016667,
              "duration": 0.433333
            },
            {
              "pitch": 36,
              "velocity": 89,
              "position": 2.008333,
              "duration": 0.383333
            },
            {
              "pitch": 36,
              "velocity": 89,
              "position": 3.016667,
              "duration": 0.433333
            },
            {
              "pitch": 31,
              "velocity": 51,
              "position": 3.691667,
              "duration": 0.2
            },
            {
              "pitch": 36,
              "velocity": 89,
              "position": 4.008333,
              "duration": 0.383333
            },
            {
              "pitch": 36,
              "velocity": 89,
              "position": 5.016667,
              "duration": 0.433333
            },
            {
              "pitch": 31,
              "velocity": 51,
              "position": 5.691667,
              "duration": 0.2
            },
            {
              "pitch": 36,
              "velocity": 89,
              "position": 6.008333,
              "duration": 0.383333
            },
            {
              "pitch": 36,
              "velocity": 89,
              "position": 7.016667,
              "duration": 0.433333
            },
            {
              "pitch": 31,
              "velocity": 51,
              "position": 7.691667,
              "duration": 0.2
            },
            {
              "pitch": 36,
              "velocity": 86,
              "position": 8.016667,
              "duration": 0.383333
            },
            {
              "pitch": 36,
              "velocity": 86,
              "position": 9.016667,
              "duration": 0.433333
            },
            {
              "pitch": 31,
              "velocity": 48,
              "position": 9.691667,
              "duration": 0.2
            },
            {
              "pitch": 36,
              "velocity": 86,
              "position": 10.016667,
              "duration": 0.408333
            },
            {
              "pitch": 36,
              "velocity": 86,
              "position": 10.991667,
              "duration": 0.4
            },
            {
              "pitch": 31,
              "velocity": 60,
              "position": 11.691667,
              "duration": 0.183333
            },
            {
              "pitch": 36,
              "velocity": 86,
              "position": 12.0,
              "duration": 0.483333
            },
            {
              "pitch": 36,
              "velocity": 86,
              "position": 13.016667,
              "duration": 0.508333
            },
            {
              "pitch": 31,
              "velocity": 61,
              "position": 13.716667,
              "duration": 0.183333
            },
            {
              "pitch": 36,
              "velocity": 86,
              "position": 14.008333,
              "duration": 0.341667
            },
            {
              "pitch": 31,
              "velocity": 65,
              "position": 14.683333,
              "duration": 0.158333
            },
            {
              "pitch": 36,
              "velocity": 86,
              "position": 15.008333,
              "duration": 0.433333
            },
            {
              "pitch": 31,
              "velocity": 72,
              "position": 15.666667,
              "duration": 0.183333
            }
          ]
        },
        "11": {
          "ctab": {
            "srcChannel": 11,
            "name": "Piano",
            "accType": "CHORD1",
            "editable": true,
            "mutedNotes": [],
            "mutedChords": [],
            "sourceChordNote": 0,
            "sourceChordType": "Maj7",
            "ctb2Main": {
              "ntr": "ROOT_FIXED",
              "ntt": "CHORD",
              "bassOn": false,
              "noteLowLimit": 48,
              "noteHighLimit": 84,
              "chordRootUpperLimit": 127,
              "rtr": "NOTE_GENERATOR"
            }
          },
          "notes": [
            {
              "pitch": 48,
              "velocity": 73,
              "position": 0.025,
              "duration": 0.233333
            },
            {
              "pitch": 59,
              "velocity": 66,
              "position": 0.025,
              "duration": 0.216667
            },
            {
              "pitch": 60,
              "velocity": 68,
              "position": 0.025,
              "duration": 0.3
            },
            {
              "pitch": 55,
              "velocity": 49,
              "position": 0.058333,
              "duration": 0.166667
            },
            {
              "pitch": 55,
              "velocity": 64,
              "position": 0.991667,
              "duration": 0.258333
            },
            {
              "pitch": 59,
              "velocity": 82,
              "position": 0.991667,
              "duration": 0.208333
            },
            {
              "pitch": 60,
              "velocity": 67,
              "position": 1.016667,
              "duration": 0.233333
            },
            {
              "pitch": 48,
              "velocity": 73,
              "position": 2.025,
              "duration": 0.233333
            },
            {
              "pitch": 59,
              "velocity": 66,
              "position": 2.025,
              "duration": 0.216667
            },
            {
              "pitch": 60,
              "velocity": 68,
              "position": 2.025,
              "duration": 0.3
            },
            {
              "pitch": 55,
              "velocity": 49,
              "position": 2.058333,
              "duration": 0.166667
            },
            {
              "pitch": 55,
              "velocity": 64,
              "position": 2.991667,
              "duration": 0.258333
            },
            {
              "pitch": 59,
              "velocity": 82,
              "position": 2.991667,
              "duration": 0.208333
            },
            {
              "pitch": 60,
              "velocity": 67,
              "position": 3.016667,
              "duration": 0.233333
            },
            {
              "pitch": 48,
              "velocity": 73,
              "position": 4.025,
              "duration": 0.233333
            },
            {
              "pitch": 59,
              "velocity": 66,
              "position": 4.025,
              "duration": 0.216667
            },
            {
              "pitch": 60,
              "velocity": 68,
              "position": 4.025,
              "duration": 0.3
            },
            {
              "pitch": 55,
              "velocity": 49,
              "position": 4.058333,
              "duration": 0.166667
            },
            {
              "pitch": 55,
              "velocity": 64,
              "position": 4.991667,
              "duration": 0.258333
            },
            {
              "pitch": 59,
              "velocity": 82,
              "position": 4.991667,
              "duration": 0.208333
            },
            {
              "pitch": 60,
              "velocity": 67,
              "position": 5.016667,
              "duration": 0.233333
            },
            {
              "pitch": 48,
              "velocity": 73,
              "position": 6.025,
              "duration": 0.233333
            },
            {
              "pitch": 59,
              "velocity": 66,
              "position": 6.025,
              "duration": 0.216667
            },
            {
              "pitch": 60,
              "velocity": 68,
              "position": 6.025,
              "duration": 0.3
            },
            {
              "pitch": 55,
              "velocity": 49,
              "position": 6.058333,
              "duration": 0.166667
            },
            {
              "pitch": 55,
              "velocity": 64,
              "position": 6.991667,
              "duration": 0.258333
            },
            {
              "pitch": 59,
              "velocity": 82,
              "position": 6.991667,
              "duration": 0.208333
            },
            {
              "pitch": 60,
              "velocity": 67,
              "position": 7.016667,
              "duration": 0.233333
            },
            {
              "pitch": 59,
              "velocity": 73,
              "position": 8.033333,
              "duration": 0.133333
            },
            {
              "pitch": 60,
              "velocity": 71,
              "position": 8.033333,
              "duration": 0.233333
            },
            {
              "pitch": 48,
              "velocity": 78,
              "position": 8.041667,
              "duration": 0.233333
            },
            {
              "pitch": 55,
              "velocity": 69,
              "position": 8.05,
              "duration": 0.233333
            },
            {
              "pitch": 48,
              "velocity": 59,
              "position": 9.008333,
              "duration": 0.133333
            },
            {
              "pitch": 59,
              "velocity": 66,
              "position": 9.016667,
              "duration": 0.208333
            },
            {
              "pitch": 55,
              "velocity": 56,
              "position": 9.033333,
              "duration": 0.125
            },
            {
              "pitch": 48,
              "velocity": 48,
              "position": 10.05,
              "duration": 0.216667
            },
            {
              "pitch": 55,
              "velocity": 46,
              "position": 10.05,
              "duration": 0.191667
            },
            {
              "pitch": 59,
              "velocity": 66,
              "position": 10.05,
              "duration": 0.133333
            },
            {
              "pitch": 48,
              "velocity": 56,
              "position": 11.008333,
              "duration": 0.183333
            },
            {
              "pitch": 55,
              "velocity": 57,
              "position": 11.066667,
              "duration": 0.183333
            },
            {
              "pitch": 59,
              "velocity": 73,
              "position": 11.066667,
              "duration": 0.125
            },
            {
              "pitch": 48,
              "velocity": 75,
              "position": 11.991667,
              "duration": 0.275
            },
            {
              "pitch": 55,
              "velocity": 68,
              "position": 12.025,
              "duration": 0.216667
            },
            {
              "pitch": 59,
              "velocity": 88,
              "position": 12.025,
              "duration": 0.158333
            },
            {
              "pitch": 60,
              "velocity": 72,
              "position": 12.05,
              "duration": 0.158333
            },
            {
              "pitch": 48,
              "velocity": 57,
              "position": 12.983333,
              "duration": 0.266667
            },
            {
              "pitch": 55,
              "velocity": 61,
              "position": 13.008333,
              "duration": 0.266667
            },
            {
              "pitch": 59,
              "velocity": 77,
              "position": 13.008333,
              "duration": 0.183333
            },
            {
              "pitch": 60,
              "velocity": 59,
              "position": 13.041667,
              "duration": 0.15
            },
            {
              "pitch": 55,
              "velocity": 63,
              "position": 14.025,
              "duration": 0.266667
            },
            {
              "pitch": 59,
              "velocity": 84,
              "position": 14.025,
              "duration": 0.216667
            },
            {
              "pitch": 48,
              "velocity": 51,
              "position": 14.05,
              "duration": 0.191667
            },
            {
              "pitch": 60,
              "velocity": 64,
              "position": 14.05,
              "duration": 0.216667
            },
            {
              "pitch": 48,
              "velocity": 71,
              "position": 14.716667,
              "duration": 0.208333
            },
            {
              "pitch": 59,
              "velocity": 92,
              "position": 15.025,
              "duration": 0.183333
            },
            {
              "pitch": 60,
              "velocity": 87,
              "position": 15.025,
              "duration": 0.241667
            },
            {
              "pitch": 55,
              "velocity": 71,
              "position": 15.033333,
              "duration": 0.241667
            },
            {
              "pitch": 48,
              "velocity": 73,
              "position": 15.708333,
              "duration": 0.191667
            }
          ]
        },
        "12": {
          "ctab": {
            "srcChannel": 12,
            "name": "Guitar",
            "accType": "CHORD2",
            "editable": true,
            "mutedNotes": [],
            "mutedChords": [],
            "sourceChordNote": 0,
            "sourceChordType": "Maj7",
            "ctb2Main": {
              "ntr": "ROOT_FIXED",
              "ntt": "CHORD",
              "bassOn": false,
              "noteLowLimit": 40,
              "noteHighLimit": 76,
              "chordRootUpperLimit": 127,
              "rtr": "NOTE_GENERATOR"
            }
          },
          "notes": [
            {
              "pitch": 48,
              "velocity": 67,
              "position": 0.016667,
              "duration": 0.5
            },
            {
              "pitch": 55,
              "velocity": 67,
              "position": 0.016667,
              "duration": 0.5
            },
            {
              "pitch": 48,
              "velocity": 67,
              "position": 1.016667,
              "duration": 0.291667
            },
            {
              "pitch": 55,
              "velocity": 67,
              "position": 1.016667,
              "duration": 0.166667
            },
            {
              "pitch": 48,
              "velocity": 67,
              "position": 2.016667,
              "duration": 0.5
            },
            {
              "pitch": 55,
              "velocity": 67,
              "position": 2.016667,
              "duration": 0.5
            },
            {
              "pitch": 48,
              "velocity": 67,
              "position": 3.016667,
              "duration": 0.291667
            },
            {
              "pitch": 55,
              "velocity": 67,
              "position": 3.016667,
              "duration": 0.166667
            },
            {
              "pitch": 48,
              "velocity": 67,
              "position": 4.0,
              "duration": 0.25
            },
            {
              "pitch": 55,
              "velocity": 67,
              "position": 4.0,
              "duration": 0.25
            },
            {
              "pitch": 48,
              "velocity": 67,
              "position": 5.0,
              "duration": 0.25
            },
            {
              "pitch": 55,
              "velocity": 67,
              "position": 5.0,
              "duration": 0.25
            },
            {
              "pitch": 48,
              "velocity": 67,
              "position": 6.0,
              "duration": 0.5
            },
            {
              "pitch": 55,
              "velocity": 67,
              "position": 6.0,
              "duration": 0.5
            },
            {
              "pitch": 48,
              "velocity": 67,
              "position": 7.0,
              "duration": 0.291667
            },
            {
              "pitch": 55,
              "velocity": 67,
              "position": 7.0,
              "duration": 0.166667
            },
            {
              "pitch": 48,
              "velocity": 66,
              "position": 8.0,
              "duration": 0.5
            },
            {
              "pitch": 55,
              "velocity": 66,
              "position": 8.0,
              "duration": 0.5
            },
            {
              "pitch": 48,
              "velocity": 66,
              "position": 9.0,
              "duration": 0.291667
            },
            {
              "pitch": 55,
              "velocity": 66,
              "position": 9.0,
              "duration": 0.166667
            },
            {
              "pitch": 48,
              "velocity": 66,
              "position": 10.0,
              "duration": 0.5
            },
            {
              "pitch": 55,
              "velocity": 66,
              "position": 10.0,
              "duration": 0.5
            },
            {
              "pitch": 48,
              "velocity": 66,
              "position": 11.0,
              "duration": 0.291667
            },
            {
              "pitch": 55,
              "velocity": 66,
              "position": 11.0,
              "duration": 0.183333
            },
            {
              "pitch": 48,
              "velocity": 66,
              "position": 12.0,
              "duration": 0.5
            },
            {
              "pitch": 55,
              "velocity": 66,
              "position": 12.0,
              "duration": 0.5
            },
            {
              "pitch": 48,
              "velocity": 66,
              "position": 13.0,
              "duration": 0.258333
            },
            {
              "pitch": 55,
              "velocity": 66,
              "position": 13.0,
              "duration": 0.25
            },
            {
              "pitch": 48,
              "velocity": 66,
              "position": 14.0,
              "duration": 0.5
            },
            {
              "pitch": 55,
              "velocity": 66,
              "position": 14.0,
              "duration": 0.5
            },
            {
              "pitch": 48,
              "velocity": 66,
              "position": 15.0,
              "duration": 0.166667
            },
            {
              "pitch": 55,
              "velocity": 66,
              "position": 15.0,
              "duration": 0.308333
            }
          ]
        },
        "13": {
          "ctab": {
            "srcChannel": 13,
            "name": "Strings",
            "accType": "PAD",
            "editable": true,
            "mutedNotes": [],
            "mutedChords": [],
            "sourceChordNote": 0,
            "sourceChordType": "Maj7",
            "ctb2Main": {
              "ntr": "ROOT_FIXED",
              "ntt": "MELODY",
              "bassOn": false,
              "noteLowLimit": 36,
              "noteHighLimit": 96,
              "chordRootUpperLimit": 127,
              "rtr": "PITCH_SHIFT"
            }
          },
          "notes": [
            {
              "pitch": 48,
              "velocity": 54,
              "position": 0.0,
              "duration": 0.358333
            },
            {
              "pitch": 52,
              "velocity": 64,
              "position": 0.008333,
              "duration": 0.35
            },
            {
              "pitch": 55,
              "velocity": 64,
              "position": 0.016667,
              "duration": 0.341667
            },
            {
              "pitch": 59,
              "velocity": 64,
              "position": 0.033333,
              "duration": 0.325
            },
            {
              "pitch": 48,
              "velocity": 65,
              "position": 1.0,
              "duration": 0.183333
            },
            {
              "pitch": 52,
              "velocity": 77,
              "position": 1.008333,
              "duration": 0.175
            },
            {
              "pitch": 55,
              "velocity": 77,
              "position": 1.016667,
              "duration": 0.166667
            },
            {
              "pitch": 59,
              "velocity": 77,
              "position": 1.033333,
              "duration": 0.15
            },
            {
              "pitch": 52,
              "velocity": 37,
              "position": 1.683333,
              "duration": 0.208333
            },
            {
              "pitch": 48,
              "velocity": 54,
              "position": 2.0,
              "duration": 0.358333
            },
            {
              "pitch": 52,
              "velocity": 64,
              "position": 2.008333,
              "duration": 0.35
            },
            {
              "pitch": 55,
              "velocity": 64,
              "position": 2.016667,
              "duration": 0.341667
            },
            {
              "pitch": 59,
              "velocity": 64,
              "position": 2.033333,
              "duration": 0.325
            },
            {
              "pitch": 48,
              "velocity": 65,
              "position": 3.0,
              "duration": 0.183333
            },
            {
              "pitch": 52,
              "velocity": 77,
              "position": 3.008333,
              "duration": 0.175
            },
            {
              "pitch": 55,
              "velocity": 77,
              "position": 3.016667,
              "duration": 0.166667
            },
            {
              "pitch": 59,
              "velocity": 77,
              "position": 3.033333,
              "duration": 0.15
            },
            {
              "pitch": 52,
              "velocity": 37,
              "position": 3.683333,
              "duration": 0.208333
            },
            {
              "pitch": 48,
              "velocity": 54,
              "position": 4.0,
              "duration": 0.358333
            },
            {
              "pitch": 52,
              "velocity": 64,
              "position": 4.008333,
              "duration": 0.35
            },
            {
              "pitch": 55,
              "velocity": 64,
              "position": 4.016667,
              "duration": 0.341667
            },
            {
              "pitch": 59,
              "velocity": 64,
              "position": 4.033333,
              "duration": 0.325
            },
            {
              "pitch": 48,
              "velocity": 65,
              "position": 5.0,
              "duration": 0.183333
            },
            {
              "pitch": 52,
              "velocity": 77,
              "position": 5.008333,
              "duration": 0.175
            },
            {
              "pitch": 55,
              "velocity": 77,
              "position": 5.016667,
              "duration": 0.166667
            },
            {
              "pitch": 59,
              "velocity": 77,
              "position": 5.033333,
              "duration": 0.15
            },
            {
              "pitch": 52,
              "velocity": 37,
              "position": 5.683333,
              "duration": 0.208333
            },
            {
              "pitch": 48,
              "velocity": 50,
              "position": 6.0,
              "duration": 0.941667
            },
            {
              "pitch": 52,
              "velocity": 59,
              "position": 6.008333,
              "duration": 0.933333
            },
            {
              "pitch": 55,
              "velocity": 59,
              "position": 6.016667,
              "duration": 0.925
            },
            {
              "pitch": 59,
              "velocity": 59,
              "position": 6.033333,
              "duration": 0.908333
            },
            {
              "pitch": 48,
              "velocity": 59,
              "position": 7.0,
              "duration": 0.2
            },
            {
              "pitch": 52,
              "velocity": 70,
              "position": 7.008333,
              "duration": 0.191667
            },
            {
              "pitch": 55,
              "velocity": 70,
              "position": 7.016667,
              "duration": 0.183333
            },
            {
              "pitch": 59,
              "velocity": 70,
              "position": 7.033333,
              "duration": 0.166667
            },
            {
              "pitch": 48,
              "velocity": 28,
              "position": 7.666667,
              "duration": 0.183333
            },
            {
              "pitch": 52,
              "velocity": 33,
              "position": 7.675,
              "duration": 0.175
            },
            {
              "pitch": 55,
              "velocity": 33,
              "position": 7.683333,
              "duration": 0.166667
            },
            {
              "pitch": 59,
              "velocity": 33,
              "position": 7.7,
              "duration": 0.15
            },
            {
              "pitch": 48,
              "velocity": 54,
              "position": 8.0,
              "duration": 0.358333
            },
            {
              "pitch": 52,
              "velocity": 64,
              "position": 8.008333,
              "duration": 0.35
            },
            {
              "pitch": 55,
              "velocity": 64,
              "position": 8.016667,
              "duration": 0.341667
            },
            {
              "pitch": 59,
              "velocity": 64,
              "position": 8.033333,
              "duration": 0.325
            },
            {
              "pitch": 48,
              "velocity": 65,
              "position": 9.0,
              "duration": 0.183333
            },
            {
              "pitch": 52,
              "velocity": 77,
              "position": 9.008333,
              "duration": 0.175
            },
            {
              "pitch": 55,
              "velocity": 77,
              "position": 9.016667,
              "duration": 0.166667
            },
            {
              "pitch": 59,
              "velocity": 77,
              "position": 9.033333,
              "duration": 0.15
            },
            {
              "pitch": 52,
              "velocity": 37,
              "position": 9.683333,
              "duration": 0.208333
            },
            {
              "pitch": 48,
              "velocity": 51,
              "position": 10.0,
              "duration": 0.241667
            },
            {
              "pitch": 52,
              "velocity": 61,
              "position": 10.008333,
              "duration": 0.233333
            },
            {
              "pitch": 55,
              "velocity": 61,
              "position": 10.016667,
              "duration": 0.225
            },
            {
              "pitch": 59,
              "velocity": 61,
              "position": 10.033333,
              "duration": 0.208333
            },
            {
              "pitch": 48,
              "velocity": 67,
              "position": 11.0,
              "duration": 0.183333
            },
            {
              "pitch": 52,
              "velocity": 79,
              "position": 11.008333,
              "duration": 0.175
            },
            {
              "pitch": 55,
              "velocity": 79,
              "position": 11.016667,
              "duration": 0.166667
            },
            {
              "pitch": 59,
              "velocity": 79,
              "position": 11.033333,
              "duration": 0.15
            },
            {
              "pitch": 52,
              "velocity": 33,
              "position": 11.683333,
              "duration": 0.191667
            },
            {
              "pitch": 48,
              "velocity": 46,
              "position": 12.0,
              "duration": 0.25
            },
            {
              "pitch": 52,
              "velocity": 55,
              "position": 12.008333,
              "duration": 0.241667
            },
            {
              "pitch": 55,
              "velocity": 55,
              "position": 12.016667,
              "duration": 0.233333
            },
            {
              "pitch": 59,
              "velocity": 55,
              "position": 12.033333,
              "duration": 0.216667
            },
            {
              "pitch": 48,
              "velocity": 65,
              "position": 13.0,
              "duration": 0.183333
            },
            {
              "pitch": 52,
              "velocity": 77,
              "position": 13.008333,
              "duration": 0.175
            },
            {
              "pitch": 55,
              "velocity": 77,
              "position": 13.016667,
              "duration": 0.166667
            },
            {
              "pitch": 59,
              "velocity": 77,
              "position": 13.033333,
              "duration": 0.15
            },
            {
              "pitch": 52,
              "velocity": 39,
              "position": 13.683333,
              "duration": 0.183333
            },
            {
              "pitch": 48,
              "velocity": 40,
              "position": 14.0,
              "duration": 0.183333
            },
            {
              "pitch": 52,
              "velocity": 48,
              "position": 14.008333,
              "duration": 0.175
            },
            {
              "pitch": 55,
              "velocity": 48,
              "position": 14.016667,
              "duration": 0.166667
            },
            {
              "pitch": 59,
              "velocity": 48,
              "position": 14.033333,
              "duration": 0.15
            },
            {
              "pitch": 52,
              "velocity": 33,
              "position": 14.683333,
              "duration": 0.208333
            },
            {
              "pitch": 48,
              "velocity": 59,
              "position": 15.0,
              "duration": 0.183333
            },
            {
              "pitch": 52,
              "velocity": 70,
              "position": 15.008333,
              "duration": 0.175
            },
            {
              "pitch": 55,
              "velocity": 70,
              "position": 15.016667,
              "duration": 0.166667
            },
            {
              "pitch": 59,
              "velocity": 70,
              "position": 15.033333,
              "duration": 0.15
            },
            {
              "pitch": 52,
              "velocity": 37,
              "position": 15.683333,
              "duration": 0.241667
            }
          ]
        }
      }
    },
    "Ending_A": {
      "type": "Ending_A",
      "sizeInBeats": 16,
      "channels": {
        "9": {
          "ctab": {
            "srcChannel": 9,
            "name": "Drums",
            "accType": "RHYTHM",
            "editable": false,
            "mutedNotes": [],
            "mutedChords": [],
            "sourceChordNote": 0,
            "sourceChordType": "Maj",
            "ctb2Main": {
              "ntr": "ROOT_FIXED",
              "ntt": "BYPASS",
              "bassOn": false,
              "noteLowLimit": 20,
              "noteHighLimit": 127,
              "chordRootUpperLimit": 127,
              "rtr": "RETRIGGER"
            }
          },
          "notes": [
            {
              "pitch": 31,
              "velocity": 50,
              "position": 0.0,
              "duration": 0.208333
            },
            {
              "pitch": 35,
              "velocity": 60,
              "position": 0.0,
              "duration": 0.208333
            },
            {
              "pitch": 39,
              "velocity": 70,
              "position": 0.0,
              "duration": 0.208333
            },
            {
              "pitch": 49,
              "velocity": 50,
              "position": 0.0,
              "duration": 0.208333
            },
            {
              "pitch": 31,
              "velocity": 60,
              "position": 1.0,
              "duration": 0.208333
            },
            {
              "pitch": 35,
              "velocity": 70,
              "position": 1.0,
              "duration": 0.208333
            },
            {
              "pitch": 37,
              "velocity": 40,
              "position": 1.0,
              "duration": 0.208333
            },
            {
              "pitch": 38,
              "velocity": 70,
              "position": 1.0,
              "duration": 0.208333
            },
            {
              "pitch": 39,
              "velocity": 80,
              "position": 1.0,
              "duration": 0.208333
            },
            {
              "pitch": 42,
              "velocity": 70,
              "position": 1.0,
              "duration": 0.208333
            },
            {
              "pitch": 63,
              "velocity": 40,
              "position": 1.0,
              "duration": 0.208333
            },
            {
              "pitch": 38,
              "velocity": 50,
              "position": 1.716667,
              "duration": 0.208333
            },
            {
              "pitch": 31,
              "velocity": 40,
              "position": 2.0,
              "duration": 0.208333
            },
            {
              "pitch": 35,
              "velocity": 60,
              "position": 2.0,
              "duration": 0.208333
            },
            {
              "pitch": 39,
              "velocity": 50,
              "position": 2.0,
              "duration": 0.208333
            },
            {
              "pitch": 42,
              "velocity": 60,
              "position": 2.0,
              "duration": 0.208333
            },
            {
              "pitch": 31,
              "velocity": 60,
              "position": 3.0,
              "duration": 0.208333
            },
            {
              "pitch": 35,
              "velocity": 70,
              "position": 3.0,
              "duration": 0.208333
            },
            {
              "pitch": 37,
              "velocity": 40,
              "position": 3.0,
              "duration": 0.208333
            },
            {
              "pitch": 38,
              "velocity": 70,
              "position": 3.0,
              "duration": 0.208333
            },
            {
              "pitch": 39,
              "velocity": 70,
              "position": 3.0,
              "duration": 0.208333
            },
            {
              "pitch": 42,
              "velocity": 70,
              "position": 3.0,
              "duration": 0.208333
            },
            {
              "pitch": 63,
              "velocity": 50,
              "position": 3.0,
              "duration": 0.208333
            },
            {
              "pitch": 38,
              "velocity": 50,
              "position": 3.716667,
              "duration": 0.208333
            },
            {
              "pitch": 31,
              "velocity": 40,
              "position": 4.0,
              "duration": 0.208333
            },
            {
              "pitch": 35,
              "velocity": 60,
              "position": 4.0,
              "duration": 0.208333
            },
            {
              "pitch": 39,
              "velocity": 50,
              "position": 4.0,
              "duration": 0.208333
            },
            {
              "pitch": 42,
              "velocity": 60,
              "position": 4.0,
              "duration": 0.208333
            },
            {
              "pitch": 31,
              "velocity": 60,
              "position": 5.0,
              "duration": 0.208333
            },
            {
              "pitch": 35,
              "velocity": 70,
              "position": 5.0,
              "duration": 0.208333
            },
            {
              "pitch": 37,
              "velocity": 40,
              "position": 5.0,
              "duration": 0.208333
            },
            {
              "pitch": 38,
              "velocity": 70,
              "position": 5.0,
              "duration": 0.208333
            },
            {
              "pitch": 39,
              "velocity": 80,
              "position": 5.0,
              "duration": 0.208333
            },
            {
              "pitch": 42,
              "velocity": 70,
              "position": 5.0,
              "duration": 0.208333
            },
            {
              "pitch": 63,
              "velocity": 40,
              "position": 5.0,
              "duration": 0.208333
            },
            {
              "pitch": 38,
              "velocity": 50,
              "position": 5.716667,
              "duration": 0.208333
            },
            {
              "pitch": 31,
              "velocity": 40,
              "position": 6.0,
              "duration": 0.208333
            },
            {
              "pitch": 35,
              "velocity": 60,
              "position": 6.0,
              "duration": 0.208333
            },
            {
              "pitch": 39,
              "velocity": 50,
              "position": 6.0,
              "duration": 0.208333
            },
            {
              "pitch": 42,
              "velocity": 60,
              "position": 6.0,
              "duration": 0.208333
            },
            {
              "pitch": 31,
              "velocity": 60,
              "position": 6.716667,
              "duration": 0.208333
            },
            {
              "pitch": 38,
              "velocity": 70,
              "position": 6.716667,
              "duration": 0.208333
            },
            {
              "pitch": 39,
              "velocity": 50,
              "position": 6.716667,
              "duration": 0.208333
            },
            {
              "pitch": 31,
              "velocity": 60,
              "position": 7.0,
              "duration": 0.208333
            },
            {
              "pitch": 35,
              "velocity": 70,
              "position": 7.0,
              "duration": 0.208333
            },
            {
              "pitch": 37,
              "velocity": 40,
              "position": 7.0,
              "duration": 0.208333
            },
            {
              "pitch": 38,
              "velocity": 70,
              "position": 7.0,
              "duration": 0.208333
            },
            {
              "pitch": 39,
              "velocity": 80,
              "position": 7.0,
              "duration": 0.208333
            },
            {
              "pitch": 42,
              "velocity": 70,
              "position": 7.0,
              "duration": 0.208333
            },
            {
              "pitch": 63,
              "velocity": 50,
              "position": 7.0,
              "duration": 0.208333
            },
            {
              "pitch": 31,
              "velocity": 50,
              "position": 7.716667,
              "duration": 0.208333
            },
            {
              "pitch": 38,
              "velocity": 50,
              "position": 7.716667,
              "duration": 0.208333
            },
            {
              "pitch": 39,
              "velocity": 60,
              "position": 7.716667,
              "duration": 0.208333
            },
            {
              "pitch": 31,
              "velocity": 40,
              "position": 8.0,
              "duration": 0.208333
            },
            {
              "pitch": 35,
              "velocity": 60,
              "position": 8.0,
              "duration": 0.208333
            },
            {
              "pitch": 39,
              "velocity": 50,
              "position": 8.0,
              "duration": 0.208333
            },
            {
              "pitch": 42,
              "velocity": 60,
              "position": 8.0,
              "duration": 0.208333
            },
            {
              "pitch": 31,
              "velocity": 60,
              "position": 9.0,
              "duration": 0.208333
            },
            {
              "pitch": 35,
              "velocity": 70,
              "position": 9.0,
              "duration": 0.208333
            },
            {
              "pitch": 37,
              "velocity": 40,
              "position": 9.0,
              "duration": 0.208333
            },
            {
              "pitch": 38,
              "velocity": 70,
              "position": 9.0,
              "duration": 0.208333
            },
            {
              "pitch": 39,
              "velocity": 80,
              "position": 9.0,
              "duration": 0.208333
            },
            {
              "pitch": 42,
              "velocity": 70,
              "position": 9.0,
              "duration": 0.208333
            },
            {
              "pitch": 63,
              "velocity": 40,
              "position": 9.0,
              "duration": 0.208333
            },
            {
              "pitch": 38,
              "velocity": 50,
              "position": 9.716667,
              "duration": 0.208333
            },
            {
              "pitch": 31,
              "velocity": 40,
              "position": 10.0,
              "duration": 0.208333
            },
            {
              "pitch": 35,
              "velocity": 60,
              "position": 10.0,
              "duration": 0.208333
            },
            {
              "pitch": 39,
              "velocity": 50,
              "position": 10.0,
              "duration": 0.208333
            },
            {
              "pitch": 42,
              "velocity": 60,
              "position": 10.0,
              "duration": 0.208333
            },
            {
              "pitch": 31,
              "velocity": 60,
              "position": 11.0,
              "duration": 0.208333
            },
            {
              "pitch": 35,
              "velocity": 70,
              "position": 11.0,
              "duration": 0.208333
            },
            {
              "pitch": 37,
              "velocity": 40,
              "position": 11.0,
              "duration": 0.208333
            },
            {
              "pitch": 38,
              "velocity": 70,
              "position": 11.0,
              "duration": 0.208333
            },
            {
              "pitch": 39,
              "velocity": 70,
              "position": 11.0,
              "duration": 0.208333
            },
            {
              "pitch": 42,
              "velocity": 70,
              "position": 11.0,
              "duration": 0.208333
            },
            {
              "pitch": 63,
              "velocity": 50,
              "position": 11.0,
              "duration": 0.208333
            },
            {
              "pitch": 38,
              "velocity": 50,
              "position": 11.716667,
              "duration": 0.208333
            },
            {
              "pitch": 31,
              "velocity": 40,
              "position": 12.0,
              "duration": 0.208333
            },
            {
              "pitch": 35,
              "velocity": 60,
              "position": 12.0,
              "duration": 0.208333
            },
            {
              "pitch": 39,
              "velocity": 50,
              "position": 12.0,
              "duration": 0.208333
            },
            {
              "pitch": 42,
              "velocity": 60,
              "position": 12.0,
              "duration": 0.208333
            },
            {
              "pitch": 31,
              "velocity": 60,
              "position": 13.0,
              "duration": 0.208333
            },
            {
              "pitch": 35,
              "velocity": 70,
              "position": 13.0,
              "duration": 0.208333
            },
            {
              "pitch": 37,
              "velocity": 40,
              "position": 13.0,
              "duration": 0.208333
            },
            {
              "pitch": 38,
              "velocity": 70,
              "position": 13.0,
              "duration": 0.208333
            },
            {
              "pitch": 39,
              "velocity": 80,
              "position": 13.0,
              "duration": 0.208333
            },
            {
              "pitch": 42,
              "velocity": 70,
              "position": 13.0,
              "duration": 0.208333
            },
            {
              "pitch": 63,
              "velocity": 40,
              "position": 13.0,
              "duration": 0.208333
            },
            {
              "pitch": 38,
              "velocity": 50,
              "position": 13.716667,
              "duration": 0.208333
            },
            {
              "pitch": 39,
              "velocity": 60,
              "position": 13.716667,
              "duration": 0.208333
            },
            {
              "pitch": 31,
              "velocity": 40,
              "position": 14.0,
              "duration": 0.208333
            },
            {
              "pitch": 35,
              "velocity": 60,
              "position": 14.0,
              "duration": 0.208333
            },
            {
              "pitch": 39,
              "velocity": 90,
              "position": 14.0,
              "duration": 0.208333
            },
            {
              "pitch": 42,
              "velocity": 60,
              "position": 14.0,
              "duration": 0.208333
            },
            {
              "pitch": 31,
              "velocity": 40,
              "position": 14.716667,
              "duration": 0.208333
            },
            {
              "pitch": 38,
              "velocity": 80,
              "position": 14.716667,
              "duration": 0.208333
            },
            {
              "pitch": 39,
              "velocity": 60,
              "position": 14.716667,
              "duration": 0.208333
            },
            {
              "pitch": 31,
              "velocity": 60,
              "position": 15.0,
              "duration": 0.208333
            },
            {
              "pitch": 35,
              "velocity": 70,
              "position": 15.0,
              "duration": 0.208333
            },
            {
              "pitch": 37,
              "velocity": 40,
              "position": 15.0,
              "duration": 0.208333
            },
            {
              "pitch": 38,
              "velocity": 100,
              "position": 15.0,
              "duration": 0.208333
            },
            {
              "pitch": 39,
              "velocity": 100,
              "position": 15.0,
              "duration": 0.208333
            },
            {
              "pitch": 42,
              "velocity": 70,
              "position": 15.0,
              "duration": 0.208333
            },
            {
              "pitch": 63,
              "velocity": 50,
              "position": 15.0,
              "duration": 0.208333
            },
            {
              "pitch": 31,
              "velocity": 40,
              "position": 15.716667,
              "duration": 0.208333
            },
            {
              "pitch": 38,
              "velocity": 50,
              "position": 15.716667,
              "duration": 0.208333
            },
            {
              "pitch": 39,
              "velocity": 50,
              "position": 15.716667,
              "duration": 0.208333
            }
          ]
        },
        "10": {
          "ctab": {
            "srcChannel": 10,
            "name": "Bass",
            "accType": "BASS",
            "editable": true,
            "mutedNotes": [],
            "mutedChords": [],
            "sourceChordNote": 0,
            "sourceChordType": "Maj7",
            "ctb2Main": {
              "ntr": "ROOT_TRANSPOSITION",
              "ntt": "BYPASS",
              "bassOn": true,
              "noteLowLimit": 20,
              "noteHighLimit": 60,
              "chordRootUpperLimit": 127,
              "rtr": "NOTE_GENERATOR"
            }
          },
          "notes": [
            {
              "pitch": 36,
              "velocity": 74,
              "position": 0.008333,
              "duration": 0.383333
            },
            {
              "pitch": 36,
              "velocity": 55,
              "position": 0.666667,
              "duration": 0.316667
            },
            {
              "pitch": 31,
              "velocity": 74,
              "position": 1.016667,
              "duration": 0.433333
            },
            {
              "pitch": 36,
              "velocity": 80,
              "position": 2.008333,
              "duration": 0.383333
            },
            {
              "pitch": 36,
              "velocity": 80,
              "position": 3.016667,
              "duration": 0.433333
            },
            {
              "pitch": 31,
              "velocity": 42,
              "position": 3.691667,
              "duration": 0.2
            },
            {
              "pitch": 36,
              "velocity": 80,
              "position": 4.008333,
              "duration": 0.383333
            },
            {
              "pitch": 36,
              "velocity": 80,
              "position": 5.016667,
              "duration": 0.433333
            },
            {
              "pitch": 31,
              "velocity": 42,
              "position": 5.691667,
              "duration": 0.2
            },
            {
              "pitch": 36,
              "velocity": 74,
              "position": 6.008333,
              "duration": 0.383333
            },
            {
              "pitch": 36,
              "velocity": 55,
              "position": 6.666667,
              "duration": 0.316667
            },
            {
              "pitch": 31,
              "velocity": 74,
              "position": 7.016667,
              "duration": 0.433333
            },
            {
              "pitch": 36,
              "velocity": 78,
              "position": 8.016667,
              "duration": 0.383333
            },
            {
              "pitch": 36,
              "velocity": 78,
              "position": 9.016667,
              "duration": 0.433333
            },
            {
              "pitch": 31,
              "velocity": 40,
              "position": 9.691667,
              "duration": 0.2
            },
            {
              "pitch": 36,
              "velocity": 78,
              "position": 10.016667,
              "duration": 0.408333
            },
            {
              "pitch": 36,
              "velocity": 78,
              "position": 10.991667,
              "duration": 0.4
            },
            {
              "pitch": 31,
              "velocity": 52,
              "position": 11.691667,
              "duration": 0.183333
            },
            {
              "pitch": 36,
              "velocity": 78,
              "position": 12.016667,
              "duration": 0.383333
            },
            {
              "pitch": 36,
              "velocity": 78,
              "position": 13.016667,
              "duration": 0.433333
            },
            {
              "pitch": 31,
              "velocity": 40,
              "position": 13.691667,
              "duration": 0.2
            },
            {
              "pitch": 36,
              "velocity": 78,
              "position": 14.016667,
              "duration": 0.408333
            },
            {
              "pitch": 36,
              "velocity": 78,
              "position": 14.991667,
              "duration": 0.4
            },
            {
              "pitch": 31,
              "velocity": 52,
              "position": 15.691667,
              "duration": 0.183333
            }
          ]
        },
        "11": {
          "ctab": {
            "srcChannel": 11,
            "name": "Piano",
            "accType": "CHORD1",
            "editable": true,
            "mutedNotes": [],
            "mutedChords": [],
            "sourceChordNote": 0,
            "sourceChordType": "Maj7",
            "ctb2Main": {
              "ntr": "ROOT_FIXED",
              "ntt": "CHORD",
              "bassOn": false,
              "noteLowLimit": 48,
              "noteHighLimit": 84,
              "chordRootUpperLimit": 127,
              "rtr": "NOTE_GENERATOR"
            }
          },
          "notes": [
            {
              "pitch": 59,
              "velocity": 66,
              "position": 0.033333,
              "duration": 0.133333
            },
            {
              "pitch": 60,
              "velocity": 64,
              "position": 0.033333,
              "duration": 0.233333
            },
            {
              "pitch": 48,
              "velocity": 71,
              "position": 0.041667,
              "duration": 0.233333
            },
            {
              "pitch": 55,
              "velocity": 62,
              "position": 0.05,
              "duration": 0.233333
            },
            {
              "pitch": 48,
              "velocity": 52,
              "position": 1.008333,
              "duration": 0.133333
            },
            {
              "pitch": 59,
              "velocity": 59,
              "position": 1.016667,
              "duration": 0.208333
            },
            {
              "pitch": 55,
              "velocity": 49,
              "position": 1.033333,
              "duration": 0.125
            },
            {
              "pitch": 48,
              "velocity": 65,
              "position": 2.025,
              "duration": 0.233333
            },
            {
              "pitch": 59,
              "velocity": 58,
              "position": 2.025,
              "duration": 0.216667
            },
            {
              "pitch": 60,
              "velocity": 60,
              "position": 2.025,
              "duration": 0.3
            },
            {
              "pitch": 55,
              "velocity": 41,
              "position": 2.058333,
              "duration": 0.166667
            },
            {
              "pitch": 55,
              "velocity": 56,
              "position": 2.991667,
              "duration": 0.258333
            },
            {
              "pitch": 59,
              "velocity": 74,
              "position": 2.991667,
              "duration": 0.208333
            },
            {
              "pitch": 60,
              "velocity": 59,
              "position": 3.016667,
              "duration": 0.233333
            },
            {
              "pitch": 48,
              "velocity": 65,
              "position": 4.025,
              "duration": 0.233333
            },
            {
              "pitch": 59,
              "velocity": 58,
              "position": 4.025,
              "duration": 0.216667
            },
            {
              "pitch": 60,
              "velocity": 60,
              "position": 4.025,
              "duration": 0.3
            },
            {
              "pitch": 55,
              "velocity": 41,
              "position": 4.058333,
              "duration": 0.166667
            },
            {
              "pitch": 55,
              "velocity": 56,
              "position": 4.991667,
              "duration": 0.258333
            },
            {
              "pitch": 59,
              "velocity": 74,
              "position": 4.991667,
              "duration": 0.208333
            },
            {
              "pitch": 60,
              "velocity": 59,
              "position": 5.016667,
              "duration": 0.233333
            },
            {
              "pitch": 59,
              "velocity": 66,
              "position": 6.033333,
              "duration": 0.133333
            },
            {
              "pitch": 60,
              "velocity": 64,
              "position": 6.033333,
              "duration": 0.233333
            },
            {
              "pitch": 48,
              "velocity": 71,
              "position": 6.041667,
              "duration": 0.233333
            },
            {
              "pitch": 55,
              "velocity": 62,
              "position": 6.05,
              "duration": 0.233333
            },
            {
              "pitch": 48,
              "velocity": 52,
              "position": 7.008333,
              "duration": 0.133333
            },
            {
              "pitch": 59,
              "velocity": 59,
              "position": 7.016667,
              "duration": 0.208333
            },
            {
              "pitch": 55,
              "velocity": 49,
              "position": 7.033333,
              "duration": 0.125
            },
            {
              "pitch": 59,
              "velocity": 66,
              "position": 8.033333,
              "duration": 0.133333
            },
            {
              "pitch": 60,
              "velocity": 64,
              "position": 8.033333,
              "duration": 0.233333
            },
            {
              "pitch": 48,
              "velocity": 71,
              "position": 8.041667,
              "duration": 0.233333
            },
            {
              "pitch": 55,
              "velocity": 62,
              "position": 8.05,
              "duration": 0.233333
            },
            {
              "pitch": 48,
              "velocity": 52,
              "position": 9.008333,
              "duration": 0.133333
            },
            {
              "pitch": 59,
              "velocity": 59,
              "position": 9.016667,
              "duration": 0.208333
            },
            {
              "pitch": 55,
              "velocity": 49,
              "position": 9.033333,
              "duration": 0.125
            },
            {
              "pitch": 48,
              "velocity": 41,
              "position": 10.05,
              "duration": 0.216667
            },
            {
              "pitch": 55,
              "velocity": 39,
              "position": 10.05,
              "duration": 0.191667
            },
            {
              "pitch": 59,
              "velocity": 59,
              "position": 10.05,
              "duration": 0.133333
            },
            {
              "pitch": 48,
              "velocity": 49,
              "position": 11.008333,
              "duration": 0.183333
            },
            {
              "pitch": 55,
              "velocity": 50,
              "position": 11.066667,
              "duration": 0.183333
            },
            {
              "pitch": 59,
              "velocity": 66,
              "position": 11.066667,
              "duration": 0.125
            },
            {
              "pitch": 59,
              "velocity": 66,
              "position": 12.033333,
              "duration": 0.133333
            },
            {
              "pitch": 60,
              "velocity": 64,
              "position": 12.033333,
              "duration": 0.233333
            },
            {
              "pitch": 48,
              "velocity": 71,
              "position": 12.041667,
              "duration": 0.233333
            },
            {
              "pitch": 55,
              "velocity": 62,
              "position": 12.05,
              "duration": 0.233333
            },
            {
              "pitch": 48,
              "velocity": 52,
              "position": 13.008333,
              "duration": 0.133333
            },
            {
              "pitch": 59,
              "velocity": 59,
              "position": 13.016667,
              "duration": 0.208333
            },
            {
              "pitch": 55,
              "velocity": 49,
              "position": 13.033333,
              "duration": 0.125
            },
            {
              "pitch": 48,
              "velocity": 41,
              "position": 14.05,
              "duration": 0.216667
            },
            {
              "pitch": 55,
              "velocity": 39,
              "position": 14.05,
              "duration": 0.191667
            },
            {
              "pitch": 59,
              "velocity": 59,
              "position": 14.05,
              "duration": 0.133333
            },
            {
              "pitch": 48,
              "velocity": 49,
              "position": 15.008333,
              "duration": 0.183333
            },
            {
              "pitch": 55,
              "velocity": 50,
              "position": 15.066667,
              "duration": 0.183333
            },
            {
              "pitch": 59,
              "velocity": 66,
              "position": 15.066667,
              "duration": 0.125
            },
            {
              "pitch": 48,
              "velocity": 72,
              "position": 15.716667,
              "duration": 0.525
            },
            {
              "pitch": 59,
              "velocity": 65,
              "position": 15.716667,
              "duration": 0.508333
            },
            {
              "pitch": 60,
              "velocity": 67,
              "position": 15.716667,
              "duration": 0.591667
            },
            {
              "pitch": 55,
              "velocity": 48,
              "position": 15.75,
              "duration": 0.458333
            }
          ]
        },
        "12": {
          "ctab": {
            "srcChannel": 12,
            "name": "Guitar",
            "accType": "CHORD2",
            "editable": true,
            "mutedNotes": [],
            "mutedChords": [],
            "sourceChordNote": 0,
            "sourceChordType": "Maj7",
            "ctb2Main": {
              "ntr": "ROOT_FIXED",
              "ntt": "CHORD",
              "bassOn": false,
              "noteLowLimit": 40,
              "noteHighLimit": 76,
              "chordRootUpperLimit": 127,
              "rtr": "NOTE_GENERATOR"
            }
          },
          "notes": [
            {
              "pitch": 48,
              "velocity": 59,
              "position": 0.016667,
              "duration": 0.5
            },
            {
              "pitch": 55,
              "velocity": 59,
              "position": 0.016667,
              "duration": 0.5
            },
            {
              "pitch": 48,
              "velocity": 59,
              "position": 1.016667,
              "duration": 0.291667
            },
            {
              "pitch": 55,
              "velocity": 59,
              "position": 1.016667,
              "duration": 0.166667
            },
            {
              "pitch": 48,
              "velocity": 59,
              "position": 2.008333,
              "duration": 0.25
            },
            {
              "pitch": 55,
              "velocity": 59,
              "position": 2.008333,
              "duration": 0.25
            },
            {
              "pitch": 48,
              "velocity": 59,
              "position": 3.008333,
              "duration": 0.25
            },
            {
              "pitch": 55,
              "velocity": 59,
              "position": 3.008333,
              "duration": 0.25
            },
            {
              "pitch": 48,
              "velocity": 59,
              "position": 4.016667,
              "duration": 0.5
            },
            {
              "pitch": 55,
              "velocity": 59,
              "position": 4.016667,
              "duration": 0.5
            },
            {
              "pitch": 48,
              "velocity": 59,
              "position": 5.016667,
              "duration": 0.291667
            },
            {
              "pitch": 55,
              "velocity": 59,
              "position": 5.016667,
              "duration": 0.166667
            },
            {
              "pitch": 48,
              "velocity": 59,
              "position": 6.0,
              "duration": 0.5
            },
            {
              "pitch": 55,
              "velocity": 59,
              "position": 6.0,
              "duration": 0.5
            },
            {
              "pitch": 48,
              "velocity": 59,
              "position": 7.0,
              "duration": 0.291667
            },
            {
              "pitch": 55,
              "velocity": 59,
              "position": 7.0,
              "duration": 0.166667
            },
            {
              "pitch": 48,
              "velocity": 59,
              "position": 8.008333,
              "duration": 0.25
            },
            {
              "pitch": 55,
              "velocity": 59,
              "position": 8.008333,
              "duration": 0.25
            },
            {
              "pitch": 48,
              "velocity": 59,
              "position": 9.008333,
              "duration": 0.25
            },
            {
              "pitch": 55,
              "velocity": 59,
              "position": 9.008333,
              "duration": 0.25
            },
            {
              "pitch": 48,
              "velocity": 59,
              "position": 10.008333,
              "duration": 0.25
            },
            {
              "pitch": 55,
              "velocity": 59,
              "position": 10.008333,
              "duration": 0.25
            },
            {
              "pitch": 48,
              "velocity": 59,
              "position": 11.008333,
              "duration": 0.25
            },
            {
              "pitch": 55,
              "velocity": 59,
              "position": 11.008333,
              "duration": 0.25
            },
            {
              "pitch": 48,
              "velocity": 59,
              "position": 12.0,
              "duration": 0.25
            },
            {
              "pitch": 55,
              "velocity": 59,
              "position": 12.0,
              "duration": 0.25
            },
            {
              "pitch": 48,
              "velocity": 59,
              "position": 13.0,
              "duration": 0.25
            },
            {
              "pitch": 55,
              "velocity": 59,
              "position": 13.0,
              "duration": 0.25
            },
            {
              "pitch": 48,
              "velocity": 59,
              "position": 14.0,
              "duration": 0.25
            },
            {
              "pitch": 55,
              "velocity": 59,
              "position": 14.0,
              "duration": 0.25
            },
            {
              "pitch": 48,
              "velocity": 59,
              "position": 15.0,
              "duration": 0.25
            },
            {
              "pitch": 55,
              "velocity": 59,
              "position": 15.0,
              "duration": 0.25
            }
          ]
        },
        "13": {
          "ctab": {
            "srcChannel": 13,
            "name": "Strings",
            "accType": "PAD",
            "editable": true,
            "mutedNotes": [],
            "mutedChords": [],
            "sourceChordNote": 0,
            "sourceChordType": "Maj7",
            "ctb2Main": {
              "ntr": "ROOT_FIXED",
              "ntt": "MELODY",
              "bassOn": false,
              "noteLowLimit": 36,
              "noteHighLimit": 96,
              "chordRootUpperLimit": 127,
              "rtr": "PITCH_SHIFT"
            }
          },
          "notes": [
            {
              "pitch": 48,
              "velocity": 54,
              "position": 0.0,
              "duration": 0.358333
            },
            {
              "pitch": 52,
              "velocity": 64,
              "position": 0.008333,
              "duration": 0.35
            },
            {
              "pitch": 55,
              "velocity": 64,
              "position": 0.016667,
              "duration": 0.341667
            },
            {
              "pitch": 59,
              "velocity": 64,
              "position": 0.033333,
              "duration": 0.325
            },
            {
              "pitch": 48,
              "velocity": 65,
              "position": 1.0,
              "duration": 0.183333
            },
            {
              "pitch": 52,
              "velocity": 77,
              "position": 1.008333,
              "duration": 0.175
            },
            {
              "pitch": 55,
              "velocity": 77,
              "position": 1.016667,
              "duration": 0.166667
            },
            {
              "pitch": 59,
              "velocity": 77,
              "position": 1.033333,
              "duration": 0.15
            },
            {
              "pitch": 52,
              "velocity": 37,
              "position": 1.683333,
              "duration": 0.208333
            },
            {
              "pitch": 48,
              "velocity": 54,
              "position": 2.0,
              "duration": 0.358333
            },
            {
              "pitch": 52,
              "velocity": 64,
              "position": 2.008333,
              "duration": 0.35
            },
            {
              "pitch": 55,
              "velocity": 64,
              "position": 2.016667,
              "duration": 0.341667
            },
            {
              "pitch": 59,
              "velocity": 64,
              "position": 2.033333,
              "duration": 0.325
            },
            {
              "pitch": 48,
              "velocity": 65,
              "position": 3.0,
              "duration": 0.183333
            },
            {
              "pitch": 52,
              "velocity": 77,
              "position": 3.008333,
              "duration": 0.175
            },
            {
              "pitch": 55,
              "velocity": 77,
              "position": 3.016667,
              "duration": 0.166667
            },
            {
              "pitch": 59,
              "velocity": 77,
              "position": 3.033333,
              "duration": 0.15
            },
            {
              "pitch": 52,
              "velocity": 37,
              "position": 3.683333,
              "duration": 0.208333
            },
            {
              "pitch": 48,
              "velocity": 54,
              "position": 4.0,
              "duration": 0.358333
            },
            {
              "pitch": 52,
              "velocity": 64,
              "position": 4.008333,
              "duration": 0.35
            },
            {
              "pitch": 55,
              "velocity": 64,
              "position": 4.016667,
              "duration": 0.341667
            },
            {
              "pitch": 59,
              "velocity": 64,
              "position": 4.033333,
              "duration": 0.325
            },
            {
              "pitch": 48,
              "velocity": 65,
              "position": 5.0,
              "duration": 0.183333
            },
            {
              "pitch": 52,
              "velocity": 77,
              "position": 5.008333,
              "duration": 0.033333
            },
            {
              "pitch": 55,
              "velocity": 77,
              "position": 5.016667,
              "duration": 0.166667
            },
            {
              "pitch": 59,
              "velocity": 77,
              "position": 5.033333,
              "duration": 0.15
            },
            {
              "pitch": 48,
              "velocity": 54,
              "position": 5.658333,
              "duration": 0.475
            },
            {
              "pitch": 52,
              "velocity": 64,
              "position": 5.666667,
              "duration": 0.466667
            },
            {
              "pitch": 55,
              "velocity": 64,
              "position": 5.675,
              "duration": 0.458333
            },
            {
              "pitch": 59,
              "velocity": 64,
              "position": 5.691667,
              "duration": 0.441667
            },
            {
              "pitch": 48,
              "velocity": 40,
              "position": 6.65,
              "duration": 0.183333
            },
            {
              "pitch": 52,
              "velocity": 48,
              "position": 6.658333,
              "duration": 0.175
            },
            {
              "pitch": 55,
              "velocity": 48,
              "position": 6.666667,
              "duration": 0.166667
            },
            {
              "pitch": 59,
              "velocity": 48,
              "position": 6.683333,
              "duration": 0.15
            },
            {
              "pitch": 48,
              "velocity": 65,
              "position": 7.0,
              "duration": 0.183333
            },
            {
              "pitch": 52,
              "velocity": 77,
              "position": 7.008333,
              "duration": 0.175
            },
            {
              "pitch": 55,
              "velocity": 77,
              "position": 7.016667,
              "duration": 0.166667
            },
            {
              "pitch": 59,
              "velocity": 77,
              "position": 7.033333,
              "duration": 0.15
            },
            {
              "pitch": 52,
              "velocity": 37,
              "position": 7.683333,
              "duration": 0.208333
            },
            {
              "pitch": 48,
              "velocity": 54,
              "position": 8.0,
              "duration": 0.358333
            },
            {
              "pitch": 52,
              "velocity": 64,
              "position": 8.008333,
              "duration": 0.35
            },
            {
              "pitch": 55,
              "velocity": 64,
              "position": 8.016667,
              "duration": 0.341667
            },
            {
              "pitch": 59,
              "velocity": 64,
              "position": 8.033333,
              "duration": 0.325
            },
            {
              "pitch": 48,
              "velocity": 65,
              "position": 9.0,
              "duration": 0.183333
            },
            {
              "pitch": 52,
              "velocity": 77,
              "position": 9.008333,
              "duration": 0.175
            },
            {
              "pitch": 55,
              "velocity": 77,
              "position": 9.016667,
              "duration": 0.166667
            },
            {
              "pitch": 59,
              "velocity": 77,
              "position": 9.033333,
              "duration": 0.15
            },
            {
              "pitch": 52,
              "velocity": 31,
              "position": 9.683333,
              "duration": 0.208333
            },
            {
              "pitch": 48,
              "velocity": 51,
              "position": 10.0,
              "duration": 0.241667
            },
            {
              "pitch": 52,
              "velocity": 61,
              "position": 10.008333,
              "duration": 0.233333
            },
            {
              "pitch": 55,
              "velocity": 61,
              "position": 10.016667,
              "duration": 0.225
            },
            {
              "pitch": 59,
              "velocity": 61,
              "position": 10.033333,
              "duration": 0.208333
            },
            {
              "pitch": 48,
              "velocity": 67,
              "position": 11.0,
              "duration": 0.183333
            },
            {
              "pitch": 52,
              "velocity": 79,
              "position": 11.008333,
              "duration": 0.175
            },
            {
              "pitch": 55,
              "velocity": 79,
              "position": 11.016667,
              "duration": 0.166667
            },
            {
              "pitch": 59,
              "velocity": 79,
              "position": 11.033333,
              "duration": 0.15
            },
            {
              "pitch": 52,
              "velocity": 33,
              "position": 11.683333,
              "duration": 0.191667
            },
            {
              "pitch": 48,
              "velocity": 54,
              "position": 12.0,
              "duration": 0.416667
            },
            {
              "pitch": 52,
              "velocity": 64,
              "position": 12.008333,
              "duration": 0.408333
            },
            {
              "pitch": 55,
              "velocity": 64,
              "position": 12.016667,
              "duration": 0.4
            },
            {
              "pitch": 59,
              "velocity": 64,
              "position": 12.033333,
              "duration": 0.383333
            },
            {
              "pitch": 48,
              "velocity": 29,
              "position": 12.666667,
              "duration": 0.183333
            },
            {
              "pitch": 52,
              "velocity": 35,
              "position": 12.675,
              "duration": 0.175
            },
            {
              "pitch": 55,
              "velocity": 35,
              "position": 12.683333,
              "duration": 0.166667
            },
            {
              "pitch": 59,
              "velocity": 35,
              "position": 12.7,
              "duration": 0.15
            },
            {
              "pitch": 48,
              "velocity": 62,
              "position": 13.0,
              "duration": 0.275
            },
            {
              "pitch": 52,
              "velocity": 74,
              "position": 13.008333,
              "duration": 0.266667
            },
            {
              "pitch": 55,
              "velocity": 74,
              "position": 13.016667,
              "duration": 0.258333
            },
            {
              "pitch": 59,
              "velocity": 74,
              "position": 13.033333,
              "duration": 0.241667
            },
            {
              "pitch": 48,
              "velocity": 59,
              "position": 13.983333,
              "duration": 0.291667
            },
            {
              "pitch": 52,
              "velocity": 70,
              "position": 13.991667,
              "duration": 0.283333
            },
            {
              "pitch": 55,
              "velocity": 70,
              "position": 14.0,
              "duration": 0.275
            },
            {
              "pitch": 59,
              "velocity": 70,
              "position": 14.016667,
              "duration": 0.258333
            },
            {
              "pitch": 48,
              "velocity": 33,
              "position": 14.666667,
              "duration": 0.258333
            },
            {
              "pitch": 52,
              "velocity": 39,
              "position": 14.675,
              "duration": 0.25
            },
            {
              "pitch": 55,
              "velocity": 39,
              "position": 14.683333,
              "duration": 0.241667
            },
            {
              "pitch": 59,
              "velocity": 39,
              "position": 14.7,
              "duration": 0.225
            },
            {
              "pitch": 48,
              "velocity": 61,
              "position": 15.0,
              "duration": 0.375
            },
            {
              "pitch": 52,
              "velocity": 72,
              "position": 15.008333,
              "duration": 0.366667
            },
            {
              "pitch": 55,
              "velocity": 72,
              "position": 15.016667,
              "duration": 0.358333
            },
            {
              "pitch": 59,
              "velocity": 72,
              "position": 15.033333,
              "duration": 0.341667
            },
            {
              "pitch": 48,
              "velocity": 26,
              "position": 15.666667,
              "duration": 0.158333
            },
            {
              "pitch": 52,
              "velocity": 31,
              "position": 15.675,
              "duration": 0.15
            },
            {
              "pitch": 55,
              "velocity": 31,
              "position": 15.683333,
              "duration": 0.141667
            },
            {
              "pitch": 59,
              "velocity": 31,
              "position": 15.7,
              "duration": 0.125
            }
          ]
        }
      }
    }
  }
}