{
  "name": "Grover Pop Style",
  "tempo": 90,
  "timeSignature": "4/4",
  "ticksPerQuarter": 120,
  "sffType": "SFF1",
  "division": "BINARY",
  "channelPrograms": {
    "9": 0,
    "10": 35,
    "11": 0,
    "12": 24,
    "13": 48
  },
  "parts": {
    "Intro_A": {
      "type": "Intro_A",
      "sizeInBeats": 24,
      "channels": {
        "9": {
          "ctab": {
            "srcChannel": 9,
            "name": "Drums",
            "accType": "RHYTHM",
            "editable": false,
            "mutedNotes": [],
            "mutedChords": [],
            "sourceChordNote": 0,
            "sourceChordType": "Maj",
            "ctb2Main": {
              "ntr": "ROOT_FIXED",
              "ntt": "BYPASS",
              "bassOn": false,
              "noteLowLimit": 20,
              "noteHighLimit": 127,
              "chordRootUpperLimit": 127,
              "rtr": "RETRIGGER"
            }
          },
          "notes": [
            {
              "pitch": 37,
              "velocity": 84,
              "position": 0.0,
              "duration": 1.0
            },
            {
              "pitch": 37,
              "velocity": 84,
              "position": 2.0,
              "duration": 1.0
            },
            {
              "pitch": 37,
              "velocity": 64,
              "position": 4.0,
              "duration": 1.0
            },
            {
              "pitch": 37,
              "velocity": 84,
              "position": 5.0,
              "duration": 1.0
            },
            {
              "pitch": 37,
              "velocity": 64,
              "position": 6.0,
              "duration": 1.0
            },
            {
              "pitch": 37,
              "velocity": 84,
              "position": 7.0,
              "duration": 1.0
            },
            {
              "pitch": 35,
              "velocity": 76,
              "position": 8.0,
              "duration": 0.208333
            },
            {
              "pitch": 42,
              "velocity": 58,
              "position": 8.0,
              "duration": 0.208333
            },
            {
              "pitch": 42,
              "velocity": 28,
              "position": 8.25,
              "duration": 0.208333
            },
            {
              "pitch": 42,
              "velocity": 93,
              "position": 8.5,
              "duration": 0.208333
            },
            {
              "pitch": 42,
              "velocity": 103,
              "position": 8.75,
              "duration": 0.208333
            },
            {
              "pitch": 38,
              "velocity": 97,
              "position": 9.0,
              "duration": 0.208333
            },
            {
              "pitch": 56,
              "velocity": 65,
              "position": 9.0,
              "duration": 0.208333
            },
            {
              "pitch": 42,
              "velocity": 28,
              "position": 9.25,
              "duration": 0.208333
            },
            {
              "pitch": 42,
              "velocity": 69,
              "position": 9.5,
              "duration": 0.208333
            },
            {
              "pitch": 42,
              "velocity": 56,
              "position": 9.75,
              "duration": 0.208333
            },
            {
              "pitch": 35,
              "velocity": 87,
              "position": 10.0,
              "duration": 0.208333
            },
            {
              "pitch": 42,
              "velocity": 78,
              "position": 10.0,
              "duration": 0.208333
            },
            {
              "pitch": 42,
              "velocity": 28,
              "position": 10.25,
              "duration": 0.208333
            },
            {
              "pitch": 42,
              "velocity": 61,
              "position": 10.5,
              "duration": 0.208333
            },
            {
              "pitch": 42,
              "velocity": 90,
              "position": 10.75,
              "duration": 0.208333
            },
            {
              "pitch": 38,
              "velocity": 97,
              "position": 11.0,
              "duration": 0.208333
            },
            {
              "pitch": 56,
              "velocity": 65,
              "position": 11.0,
              "duration": 0.208333
            },
            {
              "pitch": 42,
              "velocity": 28,
              "position": 11.25,
              "duration": 0.208333
            },
            {
              "pitch": 42,
              "velocity": 93,
              "position": 11.5,
              "duration": 0.208333
            },
            {
              "pitch": 42,
              "velocity": 78,
              "position": 11.75,
              "duration": 0.208333
            },
            {
              "pitch": 35,
              "velocity": 76,
              "position": 12.0,
              "duration": 0.208333
            },
            {
              "pitch": 42,
              "velocity": 58,
              "position": 12.0,
              "duration": 0.208333
            },
            {
              "pitch": 42,
              "velocity": 28,
              "position": 12.25,
              "duration": 0.208333
            },
            {
              "pitch": 42,
              "velocity": 93,
              "position": 12.5,
              "duration": 0.208333
            },
            {
              "pitch": 42,
              "velocity": 103,
              "position": 12.75,
              "duration": 0.208333
            },
            {
              "pitch": 38,
              "velocity": 97,
              "position": 13.0,
              "duration": 0.208333
            },
            {
              "pitch": 56,
              "velocity": 65,
              "position": 13.0,
              "duration": 0.208333
            },
            {
              "pitch": 42,
              "velocity": 28,
              "position": 13.25,
              "duration": 0.208333
            },
            {
              "pitch": 42,
              "velocity": 69,
              "position": 13.5,
              "duration": 0.208333
            },
            {
              "pitch": 42,
              "velocity": 56,
              "position": 13.75,
              "duration": 0.208333
            },
            {
              "pitch": 35,
              "velocity": 87,
              "position": 14.0,
              "duration": 0.208333
            },
            {
              "pitch": 42,
              "velocity": 78,
              "position": 14.0,
              "duration": 0.208333
            },
            {
              "pitch": 42,
              "velocity": 28,
              "position": 14.25,
              "duration": 0.208333
            },
            {
              "pitch": 42,
              "velocity": 61,
              "position": 14.5,
              "duration": 0.208333
            },
            {
              "pitch": 42,
              "velocity": 90,
              "position": 14.75,
              "duration": 0.208333
            },
            {
              "pitch": 38,
              "velocity": 97,
              "position": 15.0,
              "duration": 0.208333
            },
            {
              "pitch": 56,
              "velocity": 65,
              "position": 15.0,
              "duration": 0.208333
            },
            {
              "pitch": 42,
              "velocity": 28,
              "position": 15.25,
              "duration": 0.208333
            },
            {
              "pitch": 42,
              "velocity": 93,
              "position": 15.5,
              "duration": 0.208333
            },
            {
              "pitch": 42,
              "velocity": 78,
              "position": 15.75,
              "duration": 0.208333
            },
            {
              "pitch": 35,
              "velocity": 76,
              "position": 16.0,
              "duration": 0.208333
            },
            {
              "pitch": 42,
              "velocity": 58,
              "position": 16.0,
              "duration": 0.208333
            },
            {
              "pitch": 42,
              "velocity": 28,
              "position": 16.25,
              "duration": 0.208333
            },
            {
              "pitch": 42,
              "velocity": 93,
              "position": 16.5,
              "duration": 0.208333
            },
            {
              "pitch": 42,
              "velocity": 103,
              "position": 16.75,
              "duration": 0.208333
            },
            {
              "pitch": 38,
              "velocity": 97,
              "position": 17.0,
              "duration": 0.208333
            },
            {
              "pitch": 56,
              "velocity": 65,
              "position": 17.0,
              "duration": 0.208333
            },
            {
              "pitch": 42,
              "velocity": 28,
              "position": 17.25,
              "duration": 0.208333
            },
            {
              "pitch": 42,
              "velocity": 69,
              "position": 17.5,
              "duration": 0.208333
            },
            {
              "pitch": 42,
              "velocity": 56,
              "position": 17.75,
              "duration": 0.208333
            },
            {
              "pitch": 35,
              "velocity": 87,
              "position": 18.0,
              "duration": 0.208333
            },
            {
              "pitch": 42,
              "velocity": 78,
              "position": 18.0,
              "duration": 0.208333
            },
            {
              "pitch": 42,
              "velocity": 28,
              "position": 18.25,
              "duration": 0.208333
            },
            {
              "pitch": 42,
              "velocity": 61,
              "position": 18.5,
              "duration": 0.208333
            },
            {
              "pitch": 42,
              "velocity": 90,
              "position": 18.75,
              "duration": 0.208333
            },
            {
              "pitch": 38,
              "velocity": 97,
              "position": 19.0,
              "duration": 0.208333
            },
            {
              "pitch": 56,
              "velocity": 65,
              "position": 19.0,
              "duration": 0.208333
            },
            {
              "pitch": 42,
              "velocity": 28,
              "position": 19.25,
              "duration": 0.208333
            },
            {
              "pitch": 42,
              "velocity": 93,
              "position": 19.5,
              "duration": 0.208333
            },
            {
              "pitch": 42,
              "velocity": 78,
              "position": 19.75,
              "duration": 0.208333
            },
            {
              "pitch": 35,
              "velocity": 76,
              "position": 20.0,
              "duration": 0.208333
            },
            {
              "pitch": 42,
              "velocity": 58,
              "position": 20.0,
              "duration": 0.208333
            },
            {
              "pitch": 42,
              "velocity": 16,
              "position": 20.25,
              "duration": 0.208333
            },
            {
              "pitch": 42,
              "velocity": 93,
              "position": 20.5,
              "duration": 0.208333
            },
            {
              "pitch": 69,
              "velocity": 12,
              "position": 20.5,
              "duration": 0.208333
            },
            {
              "pitch": 42,
              "velocity": 103,
              "position": 20.75,
              "duration": 0.208333
            },
            {
              "pitch": 62,
              "velocity": 37,
              "position": 20.75,
              "duration": 0.208333
            },
            {
              "pitch": 38,
              "velocity": 97,
              "position": 21.0,
              "duration": 0.208333
            },
            {
              "pitch": 56,
              "velocity": 65,
              "position": 21.0,
              "duration": 0.208333
            },
            {
              "pitch": 42,
              "velocity": 18,
              "position": 21.25,
              "duration": 0.208333
            },
            {
              "pitch": 42,
              "velocity": 69,
              "position": 21.5,
              "duration": 0.208333
            },
            {
              "pitch": 62,
              "velocity": 41,
              "position": 21.5,
              "duration": 0.208333
            },
            {
              "pitch": 69,
              "velocity": 25,
              "position": 21.5,
              "duration": 0.208333
            },
            {
              "pitch": 42,
              "velocity": 56,
              "position": 21.75,
              "duration": 0.208333
            },
            {
              "pitch": 35,
              "velocity": 87,
              "position": 22.0,
              "duration": 0.208333
            },
            {
              "pitch": 42,
              "velocity": 78,
              "position": 22.0,
              "duration": 0.208333
            },
            {
              "pitch": 63,
              "velocity": 37,
              "position": 22.0,
              "duration": 0.208333
            },
            {
              "pitch": 46,
              "velocity": 43,
              "position": 22.25,
              "duration": 0.208333
            },
            {
              "pitch": 42,
              "velocity": 61,
              "position": 22.5,
              "duration": 0.208333
            },
            {
              "pitch": 63,
              "velocity": 40,
              "position": 22.5,
              "duration": 0.208333
            },
            {
              "pitch": 69,
              "velocity": 29,
              "position": 22.5,
              "duration": 0.208333
            },
            {
              "pitch": 38,
              "velocity": 50,
              "position": 22.75,
              "duration": 0.125
            },
            {
              "pitch": 46,
              "velocity": 61,
              "position": 22.75,
              "duration": 0.208333
            },
            {
              "pitch": 38,
              "velocity": 40,
              "position": 22.875,
              "duration": 0.083333
            },
            {
              "pitch": 38,
              "velocity": 88,
              "position": 23.0,
              "duration": 0.083333
            },
            {
              "pitch": 56,
              "velocity": 65,
              "position": 23.0,
              "duration": 0.208333
            },
            {
              "pitch": 63,
              "velocity": 40,
              "position": 23.0,
              "duration": 0.208333
            },
            {
              "pitch": 38,
              "velocity": 37,
              "position": 23.25,
              "duration": 0.208333
            },
            {
              "pitch": 63,
              "velocity": 36,
              "position": 23.25,
              "duration": 0.208333
            },
            {
              "pitch": 38,
              "velocity": 112,
              "position": 23.5,
              "duration": 0.208333
            },
            {
              "pitch": 62,
              "velocity": 51,
              "position": 23.5,
              "duration": 0.208333
            },
            {
              "pitch": 69,
              "velocity": 23,
              "position": 23.5,
              "duration": 0.208333
            },
            {
              "pitch": 62,
              "velocity": 32,
              "position": 23.75,
              "duration": 0.208333
            },
            {
              "pitch": 69,
              "velocity": 20,
              "position": 23.75,
              "duration": 0.208333
            }
          ]
        },
        "10": {
          "ctab": {
            "srcChannel": 10,
            "name": "Bass",
            "accType": "BASS",
            "editable": true,
            "mutedNotes": [],
            "mutedChords": [],
            "sourceChordNote": 0,
            "sourceChordType": "Maj7",
            "ctb2Main": {
              "ntr": "ROOT_TRANSPOSITION",
              "ntt": "BYPASS",
              "bassOn": true,
              "noteLowLimit": 20,
              "noteHighLimit": 60,
              "chordRootUpperLimit": 127,
              "rtr": "NOTE_GENERATOR"
            }
          },
          "notes": [
            {
              "pitch": 36,
              "velocity": 88,
              "position": 8.0,
              "duration": 1.416667
            },
            {
              "pitch": 36,
              "velocity": 92,
              "position": 9.5,
              "duration": 1.833333
            },
            {
              "pitch": 36,
              "velocity": 90,
              "position": 11.516667,
              "duration": 0.375
            },
            {
              "pitch": 36,
              "velocity": 88,
              "position": 12.0,
              "duration": 1.416667
            },
            {
              "pitch": 36,
              "velocity": 92,
              "position": 13.5,
              "duration": 1.833333
            },
            {
              "pitch": 36,
              "velocity": 90,
              "position": 15.516667,
              "duration": 0.375
            },
            {
              "pitch": 36,
              "velocity": 100,
              "position": 16.0,
              "duration": 0.45
            },
            {
              "pitch": 36,
              "velocity": 96,
              "position": 16.5,
              "duration": 0.175
            },
            {
              "pitch": 31,
              "velocity": 93,
              "position": 17.783333,
              "duration": 0.2
            },
            {
              "pitch": 36,
              "velocity": 98,
              "position": 17.991667,
              "duration": 1.45
            },
            {
              "pitch": 31,
              "velocity": 76,
              "position": 19.758333,
              "duration": 0.241667
            },
            {
              "pitch": 36,
              "velocity": 96,
              "position": 20.0,
              "duration": 0.716667
            },
            {
              "pitch": 36,
              "velocity": 106,
              "position": 20.766667,
              "duration": 0.191667
            },
            {
              "pitch": 31,
              "velocity": 71,
              "position": 22.75,
              "duration": 0.216667
            },
            {
              "pitch": 43,
              "velocity": 102,
              "position": 23.033333,
              "duration": 0.2
            },
            {
              "pitch": 31,
              "velocity": 102,
              "position": 23.258333,
              "duration": 0.7
            }
          ]
        },
        "11": {
          "ctab": {
            "srcChannel": 11,
            "name": "Piano",
            "accType": "CHORD1",
            "editable": true,
            "mutedNotes": [],
            "mutedChords": [],
            "sourceChordNote": 0,
            "sourceChordType": "Maj7",
            "ctb2Main": {
              "ntr": "ROOT_FIXED",
              "ntt": "CHORD",
              "bassOn": false,
              "noteLowLimit": 48,
              "noteHighLimit": 84,
              "chordRootUpperLimit": 127,
              "rtr": "NOTE_GENERATOR"
            }
          },
          "notes": [
            {
              "pitch": 48,
              "velocity": 57,
              "position": 8.008333,
              "duration": 1.95
            },
            {
              "pitch": 59,
              "velocity": 73,
              "position": 8.033333,
              "duration": 1.925
            },
            {
              "pitch": 64,
              "velocity": 73,
              "position": 8.033333,
              "duration": 1.925
            },
            {
              "pitch": 67,
              "velocity": 73,
              "position": 8.033333,
              "duration": 1.925
            },
            {
              "pitch": 74,
              "velocity": 73,
              "position": 8.033333,
              "duration": 1.925
            },
            {
              "pitch": 59,
              "velocity": 59,
              "position": 10.0,
              "duration": 1.958333
            },
            {
              "pitch": 60,
              "velocity": 68,
              "position": 10.0,
              "duration": 1.958333
            },
            {
              "pitch": 64,
              "velocity": 72,
              "position": 10.016667,
              "duration": 1.941667
            },
            {
              "pitch": 48,
              "velocity": 59,
              "position": 10.033333,
              "duration": 1.925
            },
            {
              "pitch": 67,
              "velocity": 70,
              "position": 10.033333,
              "duration": 1.925
            },
            {
              "pitch": 48,
              "velocity": 64,
              "position": 12.008333,
              "duration": 0.475
            },
            {
              "pitch": 59,
              "velocity": 72,
              "position": 12.483333,
              "duration": 0.791667
            },
            {
              "pitch": 62,
              "velocity": 72,
              "position": 12.483333,
              "duration": 0.791667
            },
            {
              "pitch": 64,
              "velocity": 72,
              "position": 12.483333,
              "duration": 0.791667
            },
            {
              "pitch": 67,
              "velocity": 72,
              "position": 12.483333,
              "duration": 0.791667
            },
            {
              "pitch": 59,
              "velocity": 60,
              "position": 13.275,
              "duration": 0.391667
            },
            {
              "pitch": 62,
              "velocity": 60,
              "position": 13.275,
              "duration": 0.391667
            },
            {
              "pitch": 64,
              "velocity": 60,
              "position": 13.275,
              "duration": 0.391667
            },
            {
              "pitch": 67,
              "velocity": 60,
              "position": 13.275,
              "duration": 0.391667
            },
            {
              "pitch": 59,
              "velocity": 59,
              "position": 14.0,
              "duration": 1.958333
            },
            {
              "pitch": 60,
              "velocity": 68,
              "position": 14.0,
              "duration": 1.958333
            },
            {
              "pitch": 64,
              "velocity": 72,
              "position": 14.016667,
              "duration": 1.941667
            },
            {
              "pitch": 48,
              "velocity": 59,
              "position": 14.033333,
              "duration": 1.925
            },
            {
              "pitch": 67,
              "velocity": 70,
              "position": 14.033333,
              "duration": 1.925
            },
            {
              "pitch": 59,
              "velocity": 80,
              "position": 16.0,
              "duration": 1.783333
            },
            {
              "pitch": 64,
              "velocity": 80,
              "position": 16.0,
              "duration": 1.783333
            },
            {
              "pitch": 67,
              "velocity": 80,
              "position": 16.0,
              "duration": 1.783333
            },
            {
              "pitch": 74,
              "velocity": 80,
              "position": 16.0,
              "duration": 1.783333
            },
            {
              "pitch": 48,
              "velocity": 64,
              "position": 16.008333,
              "duration": 1.516667
            },
            {
              "pitch": 55,
              "velocity": 64,
              "position": 17.783333,
              "duration": 0.233333
            },
            {
              "pitch": 59,
              "velocity": 64,
              "position": 18.016667,
              "duration": 1.991667
            },
            {
              "pitch": 62,
              "velocity": 64,
              "position": 18.016667,
              "duration": 1.991667
            },
            {
              "pitch": 64,
              "velocity": 64,
              "position": 18.016667,
              "duration": 1.991667
            },
            {
              "pitch": 67,
              "velocity": 64,
              "position": 18.016667,
              "duration": 1.991667
            },
            {
              "pitch": 48,
              "velocity": 64,
              "position": 20.008333,
              "duration": 0.516667
            },
            {
              "pitch": 59,
              "velocity": 64,
              "position": 20.525,
              "duration": 0.741667
            },
            {
              "pitch": 64,
              "velocity": 64,
              "position": 20.525,
              "duration": 0.741667
            },
            {
              "pitch": 67,
              "velocity": 64,
              "position": 20.525,
              "duration": 0.741667
            },
            {
              "pitch": 74,
              "velocity": 64,
              "position": 20.525,
              "duration": 0.741667
            },
            {
              "pitch": 67,
              "velocity": 64,
              "position": 21.266667,
              "duration": 0.225
            },
            {
              "pitch": 55,
              "velocity": 64,
              "position": 21.491667,
              "duration": 0.266667
            },
            {
              "pitch": 59,
              "velocity": 64,
              "position": 21.758333,
              "duration": 2.2
            },
            {
              "pitch": 62,
              "velocity": 64,
              "position": 21.758333,
              "duration": 2.2
            },
            {
              "pitch": 64,
              "velocity": 64,
              "position": 21.758333,
              "duration": 2.2
            },
            {
              "pitch": 67,
              "velocity": 64,
              "position": 21.758333,
              "duration": 2.2
            }
          ]
        },
        "12": {
          "ctab": {
            "srcChannel": 12,
            "name": "Guitar",
            "accType": "CHORD2",
            "editable": true,
            "mutedNotes": [],
            "mutedChords": [],
            "sourceChordNote": 0,
            "sourceChordType": "Maj7",
            "ctb2Main": {
              "ntr": "ROOT_FIXED",
              "ntt": "CHORD",
              "bassOn": false,
              "noteLowLimit": 40,
              "noteHighLimit": 76,
              "chordRootUpperLimit": 127,
              "rtr": "NOTE_GENERATOR"
            }
          },
          "notes": [
            {
              "pitch": 48,
              "velocity": 51,
              "position": 7.966667,
              "duration": 0.716667
            },
            {
              "pitch": 52,
              "velocity": 61,
              "position": 7.983333,
              "duration": 0.7
            },
            {
              "pitch": 55,
              "velocity": 61,
              "position": 8.0,
              "duration": 0.683333
            },
            {
              "pitch": 59,
              "velocity": 61,
              "position": 8.008333,
              "duration": 0.675
            },
            {
              "pitch": 64,
              "velocity": 61,
              "position": 8.025,
              "duration": 0.658333
            },
            {
              "pitch": 52,
              "velocity": 58,
              "position": 8.716667,
              "duration": 0.75
            },
            {
              "pitch": 55,
              "velocity": 58,
              "position": 8.733333,
              "duration": 0.733333
            },
            {
              "pitch": 59,
              "velocity": 58,
              "position": 8.75,
              "duration": 0.716667
            },
            {
              "pitch": 64,
              "velocity": 58,
              "position": 8.775,
              "duration": 0.691667
            },
            {
              "pitch": 48,
              "velocity": 49,
              "position": 9.483333,
              "duration": 0.383333
            },
            {
              "pitch": 52,
              "velocity": 58,
              "position": 9.491667,
              "duration": 0.375
            },
            {
              "pitch": 55,
              "velocity": 58,
              "position": 9.5,
              "duration": 0.366667
            },
            {
              "pitch": 59,
              "velocity": 58,
              "position": 9.508333,
              "duration": 0.358333
            },
            {
              "pitch": 64,
              "velocity": 58,
              "position": 9.516667,
              "duration": 0.35
            },
            {
              "pitch": 48,
              "velocity": 51,
              "position": 9.966667,
              "duration": 0.308333
            },
            {
              "pitch": 52,
              "velocity": 60,
              "position": 9.983333,
              "duration": 0.291667
            },
            {
              "pitch": 55,
              "velocity": 60,
              "position": 10.0,
              "duration": 0.258333
            },
            {
              "pitch": 59,
              "velocity": 60,
              "position": 10.008333,
              "duration": 0.233333
            },
            {
              "pitch": 64,
              "velocity": 60,
              "position": 10.025,
              "duration": 0.2
            },
            {
              "pitch": 64,
              "velocity": 43,
              "position": 10.241667,
              "duration": 0.258333
            },
            {
              "pitch": 59,
              "velocity": 49,
              "position": 10.258333,
              "duration": 0.225
            },
            {
              "pitch": 55,
              "velocity": 49,
              "position": 10.275,
              "duration": 0.191667
            },
            {
              "pitch": 52,
              "velocity": 43,
              "position": 10.3,
              "duration": 0.15
            },
            {
              "pitch": 52,
              "velocity": 48,
              "position": 10.466667,
              "duration": 0.325
            },
            {
              "pitch": 55,
              "velocity": 48,
              "position": 10.483333,
              "duration": 0.308333
            },
            {
              "pitch": 59,
              "velocity": 48,
              "position": 10.5,
              "duration": 0.291667
            },
            {
              "pitch": 64,
              "velocity": 48,
              "position": 10.525,
              "duration": 0.266667
            },
            {
              "pitch": 64,
              "velocity": 28,
              "position": 11.216667,
              "duration": 0.275
            },
            {
              "pitch": 59,
              "velocity": 32,
              "position": 11.233333,
              "duration": 0.258333
            },
            {
              "pitch": 55,
              "velocity": 32,
              "position": 11.25,
              "duration": 0.216667
            },
            {
              "pitch": 52,
              "velocity": 28,
              "position": 11.275,
              "duration": 0.175
            },
            {
              "pitch": 52,
              "velocity": 36,
              "position": 11.466667,
              "duration": 0.3
            },
            {
              "pitch": 55,
              "velocity": 36,
              "position": 11.483333,
              "duration": 0.283333
            },
            {
              "pitch": 59,
              "velocity": 36,
              "position": 11.5,
              "duration": 0.266667
            },
            {
              "pitch": 64,
              "velocity": 36,
              "position": 11.525,
              "duration": 0.241667
            },
            {
              "pitch": 48,
              "velocity": 51,
              "position": 11.966667,
              "duration": 0.716667
            },
            {
              "pitch": 52,
              "velocity": 61,
              "position": 11.983333,
              "duration": 0.7
            },
            {
              "pitch": 55,
              "velocity": 61,
              "position": 12.0,
              "duration": 0.683333
            },
            {
              "pitch": 59,
              "velocity": 61,
              "position": 12.008333,
              "duration": 0.675
            },
            {
              "pitch": 64,
              "velocity": 61,
              "position": 12.025,
              "duration": 0.658333
            },
            {
              "pitch": 52,
              "velocity": 58,
              "position": 12.716667,
              "duration": 0.75
            },
            {
              "pitch": 55,
              "velocity": 58,
              "position": 12.733333,
              "duration": 0.733333
            },
            {
              "pitch": 59,
              "velocity": 58,
              "position": 12.75,
              "duration": 0.716667
            },
            {
              "pitch": 64,
              "velocity": 58,
              "position": 12.775,
              "duration": 0.691667
            },
            {
              "pitch": 48,
              "velocity": 49,
              "position": 13.483333,
              "duration": 0.383333
            },
            {
              "pitch": 52,
              "velocity": 58,
              "position": 13.491667,
              "duration": 0.375
            },
            {
              "pitch": 55,
              "velocity": 58,
              "position": 13.5,
              "duration": 0.366667
            },
            {
              "pitch": 59,
              "velocity": 58,
              "position": 13.508333,
              "duration": 0.358333
            },
            {
              "pitch": 64,
              "velocity": 58,
              "position": 13.516667,
              "duration": 0.35
            },
            {
              "pitch": 52,
              "velocity": 63,
              "position": 14.0,
              "duration": 1.091667
            },
            {
              "pitch": 55,
              "velocity": 50,
              "position": 14.25,
              "duration": 1.108333
            },
            {
              "pitch": 59,
              "velocity": 56,
              "position": 14.5,
              "duration": 1.016667
            },
            {
              "pitch": 64,
              "velocity": 75,
              "position": 14.75,
              "duration": 1.208333
            },
            {
              "pitch": 52,
              "velocity": 54,
              "position": 15.25,
              "duration": 0.708333
            },
            {
              "pitch": 55,
              "velocity": 50,
              "position": 15.5,
              "duration": 0.458333
            },
            {
              "pitch": 48,
              "velocity": 51,
              "position": 15.966667,
              "duration": 0.716667
            },
            {
              "pitch": 52,
              "velocity": 61,
              "position": 15.983333,
              "duration": 0.7
            },
            {
              "pitch": 55,
              "velocity": 61,
              "position": 16.0,
              "duration": 0.683333
            },
            {
              "pitch": 59,
              "velocity": 61,
              "position": 16.008333,
              "duration": 0.675
            },
            {
              "pitch": 64,
              "velocity": 61,
              "position": 16.025,
              "duration": 0.658333
            },
            {
              "pitch": 52,
              "velocity": 58,
              "position": 16.716667,
              "duration": 0.825
            },
            {
              "pitch": 55,
              "velocity": 58,
              "position": 16.733333,
              "duration": 0.791667
            },
            {
              "pitch": 59,
              "velocity": 58,
              "position": 16.75,
              "duration": 0.758333
            },
            {
              "pitch": 64,
              "velocity": 58,
              "position": 16.775,
              "duration": 0.716667
            },
            {
              "pitch": 64,
              "velocity": 40,
              "position": 17.508333,
              "duration": 0.241667
            },
            {
              "pitch": 59,
              "velocity": 46,
              "position": 17.525,
              "duration": 0.208333
            },
            {
              "pitch": 55,
              "velocity": 46,
              "position": 17.541667,
              "duration": 0.175
            },
            {
              "pitch": 52,
              "velocity": 40,
              "position": 17.566667,
              "duration": 0.133333
            },
            {
              "pitch": 52,
              "velocity": 64,
              "position": 17.716667,
              "duration": 0.516667
            },
            {
              "pitch": 55,
              "velocity": 64,
              "position": 17.733333,
              "duration": 0.75
            },
            {
              "pitch": 59,
              "velocity": 64,
              "position": 17.75,
              "duration": 0.775
            },
            {
              "pitch": 64,
              "velocity": 64,
              "position": 17.775,
              "duration": 0.75
            },
            {
              "pitch": 52,
              "velocity": 66,
              "position": 18.25,
              "duration": 0.816667
            },
            {
              "pitch": 55,
              "velocity": 46,
              "position": 18.5,
              "duration": 0.791667
            },
            {
              "pitch": 59,
              "velocity": 64,
              "position": 18.75,
              "duration": 0.766667
            },
            {
              "pitch": 64,
              "velocity": 75,
              "position": 18.75,
              "duration": 1.75
            },
            {
              "pitch": 52,
              "velocity": 62,
              "position": 19.25,
              "duration": 0.466667
            },
            {
              "pitch": 55,
              "velocity": 54,
              "position": 19.5,
              "duration": 0.583333
            },
            {
              "pitch": 59,
              "velocity": 60,
              "position": 19.75,
              "duration": 0.5
            },
            {
              "pitch": 52,
              "velocity": 58,
              "position": 20.0,
              "duration": 0.958333
            },
            {
              "pitch": 55,
              "velocity": 45,
              "position": 20.25,
              "duration": 0.475
            },
            {
              "pitch": 59,
              "velocity": 62,
              "position": 20.5,
              "duration": 0.266667
            },
            {
              "pitch": 64,
              "velocity": 61,
              "position": 20.766667,
              "duration": 3.033333
            },
            {
              "pitch": 52,
              "velocity": 71,
              "position": 21.258333,
              "duration": 0.366667
            },
            {
              "pitch": 55,
              "velocity": 39,
              "position": 21.5,
              "duration": 0.275
            },
            {
              "pitch": 52,
              "velocity": 58,
              "position": 21.775,
              "duration": 0.208333
            },
            {
              "pitch": 59,
              "velocity": 61,
              "position": 21.983333,
              "duration": 0.566667
            },
            {
              "pitch": 52,
              "velocity": 64,
              "position": 22.25,
              "duration": 0.616667
            },
            {
              "pitch": 55,
              "velocity": 58,
              "position": 22.525,
              "duration": 0.225
            },
            {
              "pitch": 59,
              "velocity": 71,
              "position": 22.75,
              "duration": 0.5
            },
            {
              "pitch": 52,
              "velocity": 48,
              "position": 23.25,
              "duration": 0.708333
            },
            {
              "pitch": 59,
              "velocity": 45,
              "position": 23.5,
              "duration": 0.458333
            },
            {
              "pitch": 48,
              "velocity": 56,
              "position": 23.966667,
              "duration": 0.716667
            },
            {
              "pitch": 52,
              "velocity": 67,
              "position": 23.983333,
              "duration": 0.7
            }
          ]
        },
        "13": {
          "ctab": {
            "srcChannel": 13,
            "name": "Strings",
            "accType": "PAD",
            "editable": true,
            "mutedNotes": [],
            "mutedChords": [],
            "sourceChordNote": 0,
            "sourceChordType": "Maj7",
            "ctb2Main": {
              "ntr": "ROOT_FIXED",
              "ntt": "MELODY",
              "bassOn": false,
              "noteLowLimit": 36,
              "noteHighLimit": 96,
              "chordRootUpperLimit": 127,
              "rtr": "PITCH_SHIFT"
            }
          },
          "notes": []
        }
      }
    },
    "Main_A": {
      "type": "Main_A",
      "sizeInBeats": 16,
      "channels": {
        "9": {
          "ctab": {
            "srcChannel": 9,
            "name": "Drums",
            "accType": "RHYTHM",
            "editable": false,
            "mutedNotes": [],
            "mutedChords": [],
            "sourceChordNote": 0,
            "sourceChordType": "Maj",
            "ctb2Main": {
              "ntr": "ROOT_FIXED",
              "ntt": "BYPASS",
              "bassOn": false,
              "noteLowLimit": 20,
              "noteHighLimit": 127,
              "chordRootUpperLimit": 127,
              "rtr": "RETRIGGER"
            }
          },
          "notes": [
            {
              "pitch": 35,
              "velocity": 76,
              "position": 0.0,
              "duration": 0.208333
            },
            {
              "pitch": 42,
              "velocity": 58,
              "position": 0.0,
              "duration": 0.208333
            },
            {
              "pitch": 49,
              "velocity": 75,
              "position": 0.0,
              "duration": 0.208333
            },
            {
              "pitch": 63,
              "velocity": 43,
              "position": 0.0,
              "duration": 0.208333
            },
            {
              "pitch": 42,
              "velocity": 16,
              "position": 0.25,
              "duration": 0.208333
            },
            {
              "pitch": 63,
              "velocity": 17,
              "position": 0.25,
              "duration": 0.208333
            },
            {
              "pitch": 42,
              "velocity": 93,
              "position": 0.5,
              "duration": 0.208333
            },
            {
              "pitch": 70,
              "velocity": 56,
              "position": 0.5,
              "duration": 0.208333
            },
            {
              "pitch": 42,
              "velocity": 103,
              "position": 0.75,
              "duration": 0.208333
            },
            {
              "pitch": 62,
              "velocity": 104,
              "position": 0.75,
              "duration": 0.208333
            },
            {
              "pitch": 38,
              "velocity": 112,
              "position": 1.0,
              "duration": 0.208333
            },
            {
              "pitch": 63,
              "velocity": 15,
              "position": 1.0,
              "duration": 0.208333
            },
            {
              "pitch": 42,
              "velocity": 18,
              "position": 1.25,
              "duration": 0.208333
            },
            {
              "pitch": 54,
              "velocity": 19,
              "position": 1.25,
              "duration": 0.208333
            },
            {
              "pitch": 56,
              "velocity": 23,
              "position": 1.25,
              "duration": 0.208333
            },
            {
              "pitch": 63,
              "velocity": 39,
              "position": 1.25,
              "duration": 0.208333
            },
            {
              "pitch": 42,
              "velocity": 69,
              "position": 1.5,
              "duration": 0.208333
            },
            {
              "pitch": 54,
              "velocity": 33,
              "position": 1.5,
              "duration": 0.208333
            },
            {
              "pitch": 56,
              "velocity": 35,
              "position": 1.5,
              "duration": 0.208333
            },
            {
              "pitch": 63,
              "velocity": 28,
              "position": 1.5,
              "duration": 0.208333
            },
            {
              "pitch": 70,
              "velocity": 52,
              "position": 1.5,
              "duration": 0.208333
            },
            {
              "pitch": 35,
              "velocity": 47,
              "position": 1.75,
              "duration": 0.208333
            },
            {
              "pitch": 42,
              "velocity": 56,
              "position": 1.75,
              "duration": 0.208333
            },
            {
              "pitch": 63,
              "velocity": 70,
              "position": 1.75,
              "duration": 0.208333
            },
            {
              "pitch": 69,
              "velocity": 16,
              "position": 1.75,
              "duration": 0.208333
            },
            {
              "pitch": 35,
              "velocity": 87,
              "position": 2.0,
              "duration": 0.208333
            },
            {
              "pitch": 42,
              "velocity": 78,
              "position": 2.0,
              "duration": 0.208333
            },
            {
              "pitch": 69,
              "velocity": 31,
              "position": 2.0,
              "duration": 0.208333
            },
            {
              "pitch": 42,
              "velocity": 18,
              "position": 2.25,
              "duration": 0.208333
            },
            {
              "pitch": 62,
              "velocity": 67,
              "position": 2.25,
              "duration": 0.208333
            },
            {
              "pitch": 42,
              "velocity": 61,
              "position": 2.5,
              "duration": 0.208333
            },
            {
              "pitch": 70,
              "velocity": 62,
              "position": 2.5,
              "duration": 0.208333
            },
            {
              "pitch": 42,
              "velocity": 90,
              "position": 2.75,
              "duration": 0.208333
            },
            {
              "pitch": 63,
              "velocity": 22,
              "position": 2.75,
              "duration": 0.208333
            },
            {
              "pitch": 38,
              "velocity": 98,
              "position": 3.0,
              "duration": 0.208333
            },
            {
              "pitch": 42,
              "velocity": 18,
              "position": 3.25,
              "duration": 0.208333
            },
            {
              "pitch": 63,
              "velocity": 59,
              "position": 3.25,
              "duration": 0.208333
            },
            {
              "pitch": 42,
              "velocity": 93,
              "position": 3.5,
              "duration": 0.208333
            },
            {
              "pitch": 63,
              "velocity": 68,
              "position": 3.5,
              "duration": 0.208333
            },
            {
              "pitch": 70,
              "velocity": 70,
              "position": 3.5,
              "duration": 0.208333
            },
            {
              "pitch": 42,
              "velocity": 78,
              "position": 3.75,
              "duration": 0.208333
            },
            {
              "pitch": 63,
              "velocity": 85,
              "position": 3.75,
              "duration": 0.208333
            },
            {
              "pitch": 70,
              "velocity": 69,
              "position": 3.75,
              "duration": 0.208333
            },
            {
              "pitch": 35,
              "velocity": 76,
              "position": 4.0,
              "duration": 0.208333
            },
            {
              "pitch": 42,
              "velocity": 46,
              "position": 4.0,
              "duration": 0.208333
            },
            {
              "pitch": 62,
              "velocity": 62,
              "position": 4.0,
              "duration": 0.208333
            },
            {
              "pitch": 42,
              "velocity": 27,
              "position": 4.25,
              "duration": 0.208333
            },
            {
              "pitch": 62,
              "velocity": 27,
              "position": 4.25,
              "duration": 0.208333
            },
            {
              "pitch": 42,
              "velocity": 27,
              "position": 4.5,
              "duration": 0.208333
            },
            {
              "pitch": 63,
              "velocity": 22,
              "position": 4.5,
              "duration": 0.208333
            },
            {
              "pitch": 70,
              "velocity": 56,
              "position": 4.5,
              "duration": 0.208333
            },
            {
              "pitch": 42,
              "velocity": 100,
              "position": 4.75,
              "duration": 0.208333
            },
            {
              "pitch": 62,
              "velocity": 65,
              "position": 4.75,
              "duration": 0.208333
            },
            {
              "pitch": 38,
              "velocity": 98,
              "position": 5.0,
              "duration": 0.208333
            },
            {
              "pitch": 63,
              "velocity": 14,
              "position": 5.0,
              "duration": 0.208333
            },
            {
              "pitch": 42,
              "velocity": 48,
              "position": 5.25,
              "duration": 0.208333
            },
            {
              "pitch": 54,
              "velocity": 19,
              "position": 5.25,
              "duration": 0.208333
            },
            {
              "pitch": 56,
              "velocity": 23,
              "position": 5.25,
              "duration": 0.208333
            },
            {
              "pitch": 62,
              "velocity": 50,
              "position": 5.25,
              "duration": 0.208333
            },
            {
              "pitch": 42,
              "velocity": 27,
              "position": 5.5,
              "duration": 0.208333
            },
            {
              "pitch": 54,
              "velocity": 33,
              "position": 5.5,
              "duration": 0.208333
            },
            {
              "pitch": 56,
              "velocity": 35,
              "position": 5.5,
              "duration": 0.208333
            },
            {
              "pitch": 63,
              "velocity": 46,
              "position": 5.5,
              "duration": 0.208333
            },
            {
              "pitch": 70,
              "velocity": 52,
              "position": 5.5,
              "duration": 0.208333
            },
            {
              "pitch": 35,
              "velocity": 57,
              "position": 5.75,
              "duration": 0.208333
            },
            {
              "pitch": 46,
              "velocity": 72,
              "position": 5.75,
              "duration": 0.208333
            },
            {
              "pitch": 63,
              "velocity": 51,
              "position": 5.75,
              "duration": 0.208333
            },
            {
              "pitch": 69,
              "velocity": 18,
              "position": 5.75,
              "duration": 0.208333
            },
            {
              "pitch": 35,
              "velocity": 75,
              "position": 6.0,
              "duration": 0.208333
            },
            {
              "pitch": 42,
              "velocity": 26,
              "position": 6.0,
              "duration": 0.208333
            },
            {
              "pitch": 69,
              "velocity": 39,
              "position": 6.0,
              "duration": 0.208333
            },
            {
              "pitch": 42,
              "velocity": 22,
              "position": 6.25,
              "duration": 0.208333
            },
            {
              "pitch": 63,
              "velocity": 68,
              "position": 6.25,
              "duration": 0.208333
            },
            {
              "pitch": 42,
              "velocity": 90,
              "position": 6.5,
              "duration": 0.208333
            },
            {
              "pitch": 63,
              "velocity": 20,
              "position": 6.5,
              "duration": 0.208333
            },
            {
              "pitch": 70,
              "velocity": 62,
              "position": 6.5,
              "duration": 0.208333
            },
            {
              "pitch": 42,
              "velocity": 112,
              "position": 6.75,
              "duration": 0.208333
            },
            {
              "pitch": 62,
              "velocity": 85,
              "position": 6.75,
              "duration": 0.208333
            },
            {
              "pitch": 38,
              "velocity": 106,
              "position": 7.0,
              "duration": 0.208333
            },
            {
              "pitch": 63,
              "velocity": 34,
              "position": 7.0,
              "duration": 0.208333
            },
            {
              "pitch": 42,
              "velocity": 43,
              "position": 7.25,
              "duration": 0.208333
            },
            {
              "pitch": 63,
              "velocity": 32,
              "position": 7.25,
              "duration": 0.208333
            },
            {
              "pitch": 46,
              "velocity": 92,
              "position": 7.5,
              "duration": 0.208333
            },
            {
              "pitch": 63,
              "velocity": 52,
              "position": 7.5,
              "duration": 0.208333
            },
            {
              "pitch": 70,
              "velocity": 70,
              "position": 7.5,
              "duration": 0.208333
            },
            {
              "pitch": 63,
              "velocity": 47,
              "position": 7.75,
              "duration": 0.208333
            },
            {
              "pitch": 70,
              "velocity": 69,
              "position": 7.75,
              "duration": 0.208333
            },
            {
              "pitch": 35,
              "velocity": 76,
              "position": 8.0,
              "duration": 0.208333
            },
            {
              "pitch": 42,
              "velocity": 46,
              "position": 8.0,
              "duration": 0.208333
            },
            {
              "pitch": 62,
              "velocity": 62,
              "position": 8.0,
              "duration": 0.208333
            },
            {
              "pitch": 42,
              "velocity": 27,
              "position": 8.25,
              "duration": 0.208333
            },
            {
              "pitch": 62,
              "velocity": 27,
              "position": 8.25,
              "duration": 0.208333
            },
            {
              "pitch": 42,
              "velocity": 27,
              "position": 8.5,
              "duration": 0.208333
            },
            {
              "pitch": 63,
              "velocity": 22,
              "position": 8.5,
              "duration": 0.208333
            },
            {
              "pitch": 70,
              "velocity": 56,
              "position": 8.5,
              "duration": 0.208333
            },
            {
              "pitch": 42,
              "velocity": 100,
              "position": 8.75,
              "duration": 0.208333
            },
            {
              "pitch": 62,
              "velocity": 65,
              "position": 8.75,
              "duration": 0.208333
            },
            {
              "pitch": 38,
              "velocity": 98,
              "position": 9.0,
              "duration": 0.208333
            },
            {
              "pitch": 63,
              "velocity": 14,
              "position": 9.0,
              "duration": 0.208333
            },
            {
              "pitch": 42,
              "velocity": 48,
              "position": 9.25,
              "duration": 0.208333
            },
            {
              "pitch": 54,
              "velocity": 19,
              "position": 9.25,
              "duration": 0.208333
            },
            {
              "pitch": 56,
              "velocity": 23,
              "position": 9.25,
              "duration": 0.208333
            },
            {
              "pitch": 62,
              "velocity": 50,
              "position": 9.25,
              "duration": 0.208333
            },
            {
              "pitch": 42,
              "velocity": 27,
              "position": 9.5,
              "duration": 0.208333
            },
            {
              "pitch": 54,
              "velocity": 33,
              "position": 9.5,
              "duration": 0.208333
            },
            {
              "pitch": 56,
              "velocity": 35,
              "position": 9.5,
              "duration": 0.208333
            },
            {
              "pitch": 63,
              "velocity": 46,
              "position": 9.5,
              "duration": 0.208333
            },
            {
              "pitch": 70,
              "velocity": 52,
              "position": 9.5,
              "duration": 0.208333
            },
            {
              "pitch": 35,
              "velocity": 57,
              "position": 9.75,
              "duration": 0.208333
            },
            {
              "pitch": 46,
              "velocity": 72,
              "position": 9.75,
              "duration": 0.208333
            },
            {
              "pitch": 63,
              "velocity": 51,
              "position": 9.75,
              "duration": 0.208333
            },
            {
              "pitch": 69,
              "velocity": 18,
              "position": 9.75,
              "duration": 0.208333
            },
            {
              "pitch": 35,
              "velocity": 75,
              "position": 10.0,
              "duration": 0.208333
            },
            {
              "pitch": 42,
              "velocity": 26,
              "position": 10.0,
              "duration": 0.208333
            },
            {
              "pitch": 69,
              "velocity": 39,
              "position": 10.0,
              "duration": 0.208333
            },
            {
              "pitch": 42,
              "velocity": 22,
              "position": 10.25,
              "duration": 0.208333
            },
            {
              "pitch": 63,
              "velocity": 68,
              "position": 10.25,
              "duration": 0.208333
            },
            {
              "pitch": 42,
              "velocity": 90,
              "position": 10.5,
              "duration": 0.208333
            },
            {
              "pitch": 63,
              "velocity": 20,
              "position": 10.5,
              "duration": 0.208333
            },
            {
              "pitch": 70,
              "velocity": 62,
              "position": 10.5,
              "duration": 0.208333
            },
            {
              "pitch": 42,
              "velocity": 112,
              "position": 10.75,
              "duration": 0.208333
            },
            {
              "pitch": 62,
              "velocity": 85,
              "position": 10.75,
              "duration": 0.208333
            },
            {
              "pitch": 38,
              "velocity": 106,
              "position": 11.0,
              "duration": 0.208333
            },
            {
              "pitch": 63,
              "velocity": 34,
              "position": 11.0,
              "duration": 0.208333
            },
            {
              "pitch": 42,
              "velocity": 43,
              "position": 11.25,
              "duration": 0.208333
            },
            {
              "pitch": 63,
              "velocity": 32,
              "position": 11.25,
              "duration": 0.208333
            },
            {
              "pitch": 46,
              "velocity": 92,
              "position": 11.5,
              "duration": 0.208333
            },
            {
              "pitch": 63,
              "velocity": 52,
              "position": 11.5,
              "duration": 0.208333
            },
            {
              "pitch": 70,
              "velocity": 70,
              "position": 11.5,
              "duration": 0.208333
            },
            {
              "pitch": 63,
              "velocity": 47,
              "position": 11.75,
              "duration": 0.208333
            },
            {
              "pitch": 70,
              "velocity": 69,
              "position": 11.75,
              "duration": 0.208333
            },
            {
              "pitch": 35,
              "velocity": 76,
              "position": 12.0,
              "duration": 0.208333
            },
            {
              "pitch": 42,
              "velocity": 58,
              "position": 12.0,
              "duration": 0.208333
            },
            {
              "pitch": 42,
              "velocity": 16,
              "position": 12.25,
              "duration": 0.208333
            },
            {
              "pitch": 42,
              "velocity": 93,
              "position": 12.5,
              "duration": 0.208333
            },
            {
              "pitch": 69,
              "velocity": 12,
              "position": 12.5,
              "duration": 0.208333
            },
            {
              "pitch": 42,
              "velocity": 103,
              "position": 12.75,
              "duration": 0.208333
            },
            {
              "pitch": 62,
              "velocity": 37,
              "position": 12.75,
              "duration": 0.208333
            },
            {
              "pitch": 38,
              "velocity": 97,
              "position": 13.0,
              "duration": 0.208333
            },
            {
              "pitch": 56,
              "velocity": 65,
              "position": 13.0,
              "duration": 0.208333
            },
            {
              "pitch": 42,
              "velocity": 18,
              "position": 13.25,
              "duration": 0.208333
            },
            {
              "pitch": 42,
              "velocity": 69,
              "position": 13.5,
              "duration": 0.208333
            },
            {
              "pitch": 62,
              "velocity": 41,
              "position": 13.5,
              "duration": 0.208333
            },
            {
              "pitch": 69,
              "velocity": 25,
              "position": 13.5,
              "duration": 0.208333
            },
            {
              "pitch": 42,
              "velocity": 56,
              "position": 13.75,
              "duration": 0.208333
            },
            {
              "pitch": 35,
              "velocity": 87,
              "position": 14.0,
              "duration": 0.208333
            },
            {
              "pitch": 42,
              "velocity": 78,
              "position": 14.0,
              "duration": 0.208333
            },
            {
              "pitch": 63,
              "velocity": 37,
              "position": 14.0,
              "duration": 0.208333
            },
            {
              "pitch": 46,
              "velocity": 43,
              "position": 14.25,
              "duration": 0.208333
            },
            {
              "pitch": 42,
              "velocity": 61,
              "position": 14.5,
              "duration": 0.208333
            },
            {
              "pitch": 63,
              "velocity": 40,
              "position": 14.5,
              "duration": 0.208333
            },
            {
              "pitch": 69,
              "velocity": 29,
              "position": 14.5,
              "duration": 0.208333
            },
            {
              "pitch": 38,
              "velocity": 50,
              "position": 14.75,
              "duration": 0.125
            },
            {
              "pitch": 46,
              "velocity": 61,
              "position": 14.75,
              "duration": 0.208333
            },
            {
              "pitch": 38,
              "velocity": 40,
              "position": 14.875,
              "duration": 0.083333
            },
            {
              "pitch": 38,
              "velocity": 88,
              "position": 15.0,
              "duration": 0.083333
            },
            {
              "pitch": 56,
              "velocity": 65,
              "position": 15.0,
              "duration": 0.208333
            },
            {
              "pitch": 63,
              "velocity": 40,
              "position": 15.0,
              "duration": 0.208333
            },
            {
              "pitch": 38,
              "velocity": 37,
              "position": 15.25,
              "duration": 0.208333
            },
            {
              "pitch": 63,
              "velocity": 36,
              "position": 15.25,
              "duration": 0.208333
            },
            {
              "pitch": 38,
              "velocity": 112,
              "position": 15.5,
              "duration": 0.208333
            },
            {
              "pitch": 62,
              "velocity": 51,
              "position": 15.5,
              "duration": 0.208333
            },
            {
              "pitch": 69,
              "velocity": 23,
              "position": 15.5,
              "duration": 0.208333
            },
            {
              "pitch": 62,
              "velocity": 32,
              "position": 15.75,
              "duration": 0.208333
            },
            {
              "pitch": 69,
              "velocity": 20,
              "position": 15.75,
              "duration": 0.208333
            }
          ]
        },
        "10": {
          "ctab": {
            "srcChannel": 10,
            "name": "Bass",
            "accType": "BASS",
            "editable": true,
            "mutedNotes": [],
            "mutedChords": [],
            "sourceChordNote": 0,
            "sourceChordType": "Maj7",
            "ctb2Main": {
              "ntr": "ROOT_TRANSPOSITION",
              "ntt": "BYPASS",
              "bassOn": true,
              "noteLowLimit": 20,
              "noteHighLimit": 60,
              "chordRootUpperLimit": 127,
              "rtr": "NOTE_GENERATOR"
            }
          },
          "notes": [
            {
              "pitch": 36,
              "velocity": 99,
              "position": 0.0,
              "duration": 1.758333
            },
            {
              "pitch": 36,
              "velocity": 108,
              "position": 2.0,
              "duration": 1.758333
            },
            {
              "pitch": 33,
              "velocity": 90,
              "position": 3.766667,
              "duration": 0.175
            },
            {
              "pitch": 36,
              "velocity": 99,
              "position": 4.0,
              "duration": 1.925
            },
            {
              "pitch": 36,
              "velocity": 108,
              "position": 6.0,
              "duration": 1.758333
            },
            {
              "pitch": 40,
              "velocity": 90,
              "position": 7.766667,
              "duration": 0.175
            },
            {
              "pitch": 36,
              "velocity": 105,
              "position": 8.0,
              "duration": 0.45
            },
            {
              "pitch": 36,
              "velocity": 101,
              "position": 8.5,
              "duration": 0.175
            },
            {
              "pitch": 31,
              "velocity": 98,
              "position": 9.783333,
              "duration": 0.2
            },
            {
              "pitch": 36,
              "velocity": 103,
              "position": 9.991667,
              "duration": 1.45
            },
            {
              "pitch": 31,
              "velocity": 81,
              "position": 11.758333,
              "duration": 0.241667
            },
            {
              "pitch": 36,
              "velocity": 101,
              "position": 12.0,
              "duration": 0.716667
            },
            {
              "pitch": 36,
              "velocity": 111,
              "position": 12.766667,
              "duration": 0.191667
            },
            {
              "pitch": 31,
              "velocity": 76,
              "position": 14.75,
              "duration": 0.216667
            },
            {
              "pitch": 43,
              "velocity": 107,
              "position": 15.033333,
              "duration": 0.2
            },
            {
              "pitch": 31,
              "velocity": 107,
              "position": 15.258333,
              "duration": 0.7
            }
          ]
        },
        "11": {
          "ctab": {
            "srcChannel": 11,
            "name": "Piano",
            "accType": "CHORD1",
            "editable": true,
            "mutedNotes": [],
            "mutedChords": [],
            "sourceChordNote": 0,
            "sourceChordType": "Maj7",
            "ctb2Main": {
              "ntr": "ROOT_FIXED",
              "ntt": "CHORD",
              "bassOn": false,
              "noteLowLimit": 48,
              "noteHighLimit": 84,
              "chordRootUpperLimit": 127,
              "rtr": "NOTE_GENERATOR"
            }
          },
          "notes": [
            {
              "pitch": 48,
              "velocity": 57,
              "position": 0.008333,
              "duration": 1.95
            },
            {
              "pitch": 59,
              "velocity": 73,
              "position": 0.033333,
              "duration": 1.925
            },
            {
              "pitch": 62,
              "velocity": 73,
              "position": 0.033333,
              "duration": 1.925
            },
            {
              "pitch": 64,
              "velocity": 73,
              "position": 0.033333,
              "duration": 1.925
            },
            {
              "pitch": 67,
              "velocity": 73,
              "position": 0.033333,
              "duration": 1.925
            },
            {
              "pitch": 36,
              "velocity": 69,
              "position": 2.0,
              "duration": 0.2
            },
            {
              "pitch": 48,
              "velocity": 54,
              "position": 2.0,
              "duration": 0.225
            },
            {
              "pitch": 59,
              "velocity": 75,
              "position": 2.25,
              "duration": 0.108333
            },
            {
              "pitch": 64,
              "velocity": 75,
              "position": 2.25,
              "duration": 0.108333
            },
            {
              "pitch": 67,
              "velocity": 75,
              "position": 2.25,
              "duration": 0.108333
            },
            {
              "pitch": 74,
              "velocity": 75,
              "position": 2.25,
              "duration": 0.108333
            },
            {
              "pitch": 36,
              "velocity": 65,
              "position": 2.75,
              "duration": 0.266667
            },
            {
              "pitch": 48,
              "velocity": 53,
              "position": 2.75,
              "duration": 0.283333
            },
            {
              "pitch": 59,
              "velocity": 78,
              "position": 3.016667,
              "duration": 0.458333
            },
            {
              "pitch": 64,
              "velocity": 78,
              "position": 3.016667,
              "duration": 0.458333
            },
            {
              "pitch": 67,
              "velocity": 78,
              "position": 3.016667,
              "duration": 0.458333
            },
            {
              "pitch": 74,
              "velocity": 78,
              "position": 3.016667,
              "duration": 0.458333
            },
            {
              "pitch": 36,
              "velocity": 65,
              "position": 3.5,
              "duration": 0.125
            },
            {
              "pitch": 48,
              "velocity": 66,
              "position": 3.5,
              "duration": 0.125
            },
            {
              "pitch": 48,
              "velocity": 57,
              "position": 4.008333,
              "duration": 1.95
            },
            {
              "pitch": 59,
              "velocity": 73,
              "position": 4.033333,
              "duration": 1.925
            },
            {
              "pitch": 64,
              "velocity": 73,
              "position": 4.033333,
              "duration": 1.925
            },
            {
              "pitch": 67,
              "velocity": 73,
              "position": 4.033333,
              "duration": 1.925
            },
            {
              "pitch": 74,
              "velocity": 73,
              "position": 4.033333,
              "duration": 1.925
            },
            {
              "pitch": 36,
              "velocity": 69,
              "position": 6.0,
              "duration": 0.2
            },
            {
              "pitch": 48,
              "velocity": 54,
              "position": 6.0,
              "duration": 0.225
            },
            {
              "pitch": 59,
              "velocity": 75,
              "position": 6.25,
              "duration": 0.108333
            },
            {
              "pitch": 62,
              "velocity": 75,
              "position": 6.25,
              "duration": 0.108333
            },
            {
              "pitch": 64,
              "velocity": 75,
              "position": 6.25,
              "duration": 0.108333
            },
            {
              "pitch": 67,
              "velocity": 75,
              "position": 6.25,
              "duration": 0.108333
            },
            {
              "pitch": 36,
              "velocity": 65,
              "position": 6.75,
              "duration": 0.266667
            },
            {
              "pitch": 48,
              "velocity": 53,
              "position": 6.75,
              "duration": 0.283333
            },
            {
              "pitch": 59,
              "velocity": 78,
              "position": 7.016667,
              "duration": 0.458333
            },
            {
              "pitch": 62,
              "velocity": 78,
              "position": 7.016667,
              "duration": 0.458333
            },
            {
              "pitch": 64,
              "velocity": 78,
              "position": 7.016667,
              "duration": 0.458333
            },
            {
              "pitch": 67,
              "velocity": 78,
              "position": 7.016667,
              "duration": 0.458333
            },
            {
              "pitch": 36,
              "velocity": 65,
              "position": 7.5,
              "duration": 0.125
            },
            {
              "pitch": 48,
              "velocity": 66,
              "position": 7.5,
              "duration": 0.125
            },
            {
              "pitch": 59,
              "velocity": 72,
              "position": 8.0,
              "duration": 0.125
            },
            {
              "pitch": 64,
              "velocity": 72,
              "position": 8.0,
              "duration": 0.125
            },
            {
              "pitch": 67,
              "velocity": 72,
              "position": 8.0,
              "duration": 0.125
            },
            {
              "pitch": 74,
              "velocity": 72,
              "position": 8.0,
              "duration": 0.125
            },
            {
              "pitch": 48,
              "velocity": 69,
              "position": 8.033333,
              "duration": 0.466667
            },
            {
              "pitch": 59,
              "velocity": 76,
              "position": 8.5,
              "duration": 0.125
            },
            {
              "pitch": 64,
              "velocity": 76,
              "position": 8.5,
              "duration": 0.125
            },
            {
              "pitch": 67,
              "velocity": 76,
              "position": 8.5,
              "duration": 0.125
            },
            {
              "pitch": 74,
              "velocity": 76,
              "position": 8.5,
              "duration": 0.125
            },
            {
              "pitch": 59,
              "velocity": 79,
              "position": 9.25,
              "duration": 0.1
            },
            {
              "pitch": 64,
              "velocity": 79,
              "position": 9.25,
              "duration": 0.1
            },
            {
              "pitch": 67,
              "velocity": 79,
              "position": 9.25,
              "duration": 0.1
            },
            {
              "pitch": 74,
              "velocity": 79,
              "position": 9.25,
              "duration": 0.1
            },
            {
              "pitch": 36,
              "velocity": 61,
              "position": 9.75,
              "duration": 0.208333
            },
            {
              "pitch": 48,
              "velocity": 63,
              "position": 9.75,
              "duration": 0.191667
            },
            {
              "pitch": 59,
              "velocity": 76,
              "position": 10.25,
              "duration": 0.091667
            },
            {
              "pitch": 64,
              "velocity": 76,
              "position": 10.25,
              "duration": 0.091667
            },
            {
              "pitch": 67,
              "velocity": 76,
              "position": 10.25,
              "duration": 0.091667
            },
            {
              "pitch": 74,
              "velocity": 76,
              "position": 10.25,
              "duration": 0.091667
            },
            {
              "pitch": 36,
              "velocity": 48,
              "position": 10.75,
              "duration": 0.183333
            },
            {
              "pitch": 48,
              "velocity": 56,
              "position": 10.75,
              "duration": 0.183333
            },
            {
              "pitch": 59,
              "velocity": 84,
              "position": 11.0,
              "duration": 0.133333
            },
            {
              "pitch": 64,
              "velocity": 84,
              "position": 11.0,
              "duration": 0.133333
            },
            {
              "pitch": 67,
              "velocity": 84,
              "position": 11.0,
              "duration": 0.133333
            },
            {
              "pitch": 74,
              "velocity": 84,
              "position": 11.0,
              "duration": 0.133333
            },
            {
              "pitch": 36,
              "velocity": 63,
              "position": 11.5,
              "duration": 0.291667
            },
            {
              "pitch": 48,
              "velocity": 59,
              "position": 11.5,
              "duration": 0.525
            },
            {
              "pitch": 48,
              "velocity": 69,
              "position": 12.025,
              "duration": 0.225
            },
            {
              "pitch": 55,
              "velocity": 69,
              "position": 12.25,
              "duration": 0.258333
            },
            {
              "pitch": 60,
              "velocity": 69,
              "position": 12.508333,
              "duration": 1.741667
            },
            {
              "pitch": 59,
              "velocity": 74,
              "position": 14.25,
              "duration": 0.125
            },
            {
              "pitch": 64,
              "velocity": 74,
              "position": 14.25,
              "duration": 0.125
            },
            {
              "pitch": 67,
              "velocity": 74,
              "position": 14.25,
              "duration": 0.125
            },
            {
              "pitch": 74,
              "velocity": 74,
              "position": 14.25,
              "duration": 0.125
            },
            {
              "pitch": 36,
              "velocity": 44,
              "position": 14.75,
              "duration": 0.125
            },
            {
              "pitch": 48,
              "velocity": 54,
              "position": 14.75,
              "duration": 0.125
            },
            {
              "pitch": 59,
              "velocity": 76,
              "position": 15.0,
              "duration": 0.108333
            },
            {
              "pitch": 64,
              "velocity": 76,
              "position": 15.0,
              "duration": 0.108333
            },
            {
              "pitch": 67,
              "velocity": 76,
              "position": 15.0,
              "duration": 0.108333
            },
            {
              "pitch": 74,
              "velocity": 76,
              "position": 15.0,
              "duration": 0.108333
            },
            {
              "pitch": 59,
              "velocity": 56,
              "position": 15.25,
              "duration": 0.116667
            },
            {
              "pitch": 64,
              "velocity": 56,
              "position": 15.25,
              "duration": 0.116667
            },
            {
              "pitch": 67,
              "velocity": 56,
              "position": 15.25,
              "duration": 0.116667
            },
            {
              "pitch": 74,
              "velocity": 56,
              "position": 15.25,
              "duration": 0.116667
            },
            {
              "pitch": 59,
              "velocity": 63,
              "position": 15.75,
              "duration": 0.025
            },
            {
              "pitch": 64,
              "velocity": 63,
              "position": 15.75,
              "duration": 0.025
            },
            {
              "pitch": 67,
              "velocity": 63,
              "position": 15.75,
              "duration": 0.025
            },
            {
              "pitch": 74,
              "velocity": 63,
              "position": 15.75,
              "duration": 0.025
            }
          ]
        },
        "12": {
          "ctab": {
            "srcChannel": 12,
            "name": "Guitar",
            "accType": "CHORD2",
            "editable": true,
            "mutedNotes": [],
            "mutedChords": [],
            "sourceChordNote": 0,
            "sourceChordType": "Maj7",
            "ctb2Main": {
              "ntr": "ROOT_FIXED",
              "ntt": "CHORD",
              "bassOn": false,
              "noteLowLimit": 40,
              "noteHighLimit": 76,
              "chordRootUpperLimit": 127,
              "rtr": "NOTE_GENERATOR"
            }
          },
          "notes": [
            {
              "pitch": 55,
              "velocity": 67,
              "position": 0.0,
              "duration": 0.683333
            },
            {
              "pitch": 59,
              "velocity": 67,
              "position": 0.008333,
              "duration": 0.675
            },
            {
              "pitch": 64,
              "velocity": 67,
              "position": 0.025,
              "duration": 0.658333
            },
            {
              "pitch": 52,
              "velocity": 64,
              "position": 0.716667,
              "duration": 0.825
            },
            {
              "pitch": 55,
              "velocity": 64,
              "position": 0.733333,
              "duration": 0.791667
            },
            {
              "pitch": 59,
              "velocity": 64,
              "position": 0.75,
              "duration": 0.758333
            },
            {
              "pitch": 64,
              "velocity": 64,
              "position": 0.775,
              "duration": 0.716667
            },
            {
              "pitch": 64,
              "velocity": 44,
              "position": 1.508333,
              "duration": 0.4
            },
            {
              "pitch": 59,
              "velocity": 51,
              "position": 1.525,
              "duration": 0.383333
            },
            {
              "pitch": 55,
              "velocity": 51,
              "position": 1.541667,
              "duration": 0.366667
            },
            {
              "pitch": 52,
              "velocity": 44,
              "position": 1.566667,
              "duration": 0.341667
            },
            {
              "pitch": 52,
              "velocity": 70,
              "position": 2.0,
              "duration": 1.091667
            },
            {
              "pitch": 55,
              "velocity": 57,
              "position": 2.25,
              "duration": 1.108333
            },
            {
              "pitch": 59,
              "velocity": 63,
              "position": 2.5,
              "duration": 1.016667
            },
            {
              "pitch": 64,
              "velocity": 82,
              "position": 2.75,
              "duration": 1.208333
            },
            {
              "pitch": 52,
              "velocity": 61,
              "position": 3.25,
              "duration": 0.708333
            },
            {
              "pitch": 55,
              "velocity": 57,
              "position": 3.5,
              "duration": 0.458333
            },
            {
              "pitch": 52,
              "velocity": 68,
              "position": 4.0,
              "duration": 1.066667
            },
            {
              "pitch": 59,
              "velocity": 55,
              "position": 4.5,
              "duration": 0.933333
            },
            {
              "pitch": 64,
              "velocity": 81,
              "position": 4.75,
              "duration": 1.208333
            },
            {
              "pitch": 52,
              "velocity": 56,
              "position": 5.25,
              "duration": 0.666667
            },
            {
              "pitch": 55,
              "velocity": 66,
              "position": 5.525,
              "duration": 0.433333
            },
            {
              "pitch": 52,
              "velocity": 70,
              "position": 6.0,
              "duration": 1.091667
            },
            {
              "pitch": 55,
              "velocity": 57,
              "position": 6.25,
              "duration": 1.108333
            },
            {
              "pitch": 59,
              "velocity": 63,
              "position": 6.5,
              "duration": 1.016667
            },
            {
              "pitch": 64,
              "velocity": 82,
              "position": 6.75,
              "duration": 1.208333
            },
            {
              "pitch": 52,
              "velocity": 61,
              "position": 7.25,
              "duration": 0.708333
            },
            {
              "pitch": 55,
              "velocity": 57,
              "position": 7.5,
              "duration": 0.458333
            },
            {
              "pitch": 48,
              "velocity": 56,
              "position": 8.0,
              "duration": 1.125
            },
            {
              "pitch": 59,
              "velocity": 62,
              "position": 8.0,
              "duration": 2.558333
            },
            {
              "pitch": 52,
              "velocity": 51,
              "position": 8.5,
              "duration": 0.866667
            },
            {
              "pitch": 55,
              "velocity": 60,
              "position": 8.75,
              "duration": 0.7
            },
            {
              "pitch": 48,
              "velocity": 73,
              "position": 9.25,
              "duration": 0.791667
            },
            {
              "pitch": 52,
              "velocity": 53,
              "position": 9.5,
              "duration": 0.858333
            },
            {
              "pitch": 64,
              "velocity": 67,
              "position": 9.75,
              "duration": 2.616667
            },
            {
              "pitch": 48,
              "velocity": 60,
              "position": 10.25,
              "duration": 0.808333
            },
            {
              "pitch": 52,
              "velocity": 55,
              "position": 10.5,
              "duration": 0.675
            },
            {
              "pitch": 55,
              "velocity": 71,
              "position": 10.75,
              "duration": 0.75
            },
            {
              "pitch": 59,
              "velocity": 56,
              "position": 10.75,
              "duration": 1.833333
            },
            {
              "pitch": 48,
              "velocity": 53,
              "position": 11.25,
              "duration": 0.491667
            },
            {
              "pitch": 52,
              "velocity": 56,
              "position": 11.5,
              "duration": 0.391667
            },
            {
              "pitch": 55,
              "velocity": 69,
              "position": 11.75,
              "duration": 0.5
            },
            {
              "pitch": 48,
              "velocity": 56,
              "position": 12.0,
              "duration": 1.075
            },
            {
              "pitch": 52,
              "velocity": 59,
              "position": 12.25,
              "duration": 1.066667
            },
            {
              "pitch": 55,
              "velocity": 55,
              "position": 12.5,
              "duration": 0.75
            },
            {
              "pitch": 64,
              "velocity": 88,
              "position": 12.75,
              "duration": 2.066667
            },
            {
              "pitch": 48,
              "velocity": 51,
              "position": 13.25,
              "duration": 0.925
            },
            {
              "pitch": 52,
              "velocity": 58,
              "position": 13.5,
              "duration": 0.85
            },
            {
              "pitch": 55,
              "velocity": 69,
              "position": 13.75,
              "duration": 0.75
            },
            {
              "pitch": 48,
              "velocity": 52,
              "position": 14.25,
              "duration": 1.175
            },
            {
              "pitch": 52,
              "velocity": 57,
              "position": 14.5,
              "duration": 0.616667
            },
            {
              "pitch": 55,
              "velocity": 71,
              "position": 14.75,
              "duration": 0.291667
            },
            {
              "pitch": 59,
              "velocity": 81,
              "position": 15.0,
              "duration": 0.958333
            },
            {
              "pitch": 52,
              "velocity": 65,
              "position": 15.25,
              "duration": 0.325
            },
            {
              "pitch": 48,
              "velocity": 71,
              "position": 15.5,
              "duration": 0.466667
            },
            {
              "pitch": 52,
              "velocity": 57,
              "position": 15.75,
              "duration": 0.208333
            }
          ]
        },
        "13": {
          "ctab": {
            "srcChannel": 13,
            "name": "Strings",
            "accType": "PAD",
            "editable": true,
            "mutedNotes": [],
            "mutedChords": [],
            "sourceChordNote": 0,
            "sourceChordType": "Maj7",
            "ctb2Main": {
              "ntr": "ROOT_FIXED",
              "ntt": "MELODY",
              "bassOn": false,
              "noteLowLimit": 36,
              "noteHighLimit": 96,
              "chordRootUpperLimit": 127,
              "rtr": "PITCH_SHIFT"
            }
          },
          "notes": [
            {
              "pitch": 64,
              "velocity": 38,
              "position": 0.0,
              "duration": 95.958333
            },
            {
              "pitch": 71,
              "velocity": 42,
              "position": 0.0,
              "duration": 21.958333
            },
            {
              "pitch": 67,
              "velocity": 32,
              "position": 14.25,
              "duration": 1.708333
            }
          ]
        }
      }
    },
    "Main_B": {
      "type": "Main_B",
      "sizeInBeats": 16,
      "channels": {
        "9": {
          "ctab": {
            "srcChannel": 9,
            "name": "Drums",
            "accType": "RHYTHM",
            "editable": false,
            "mutedNotes": [],
            "mutedChords": [],
            "sourceChordNote": 0,
            "sourceChordType": "Maj",
            "ctb2Main": {
              "ntr": "ROOT_FIXED",
              "ntt": "BYPASS",
              "bassOn": false,
              "noteLowLimit": 20,
              "noteHighLimit": 127,
              "chordRootUpperLimit": 127,
              "rtr": "RETRIGGER"
            }
          },
          "notes": [
            {
              "pitch": 35,
              "velocity": 76,
              "position": 0.0,
              "duration": 0.208333
            },
            {
              "pitch": 42,
              "velocity": 58,
              "position": 0.0,
              "duration": 0.208333
            },
            {
              "pitch": 49,
              "velocity": 75,
              "position": 0.0,
              "duration": 0.208333
            },
            {
              "pitch": 63,
              "velocity": 43,
              "position": 0.0,
              "duration": 0.208333
            },
            {
              "pitch": 42,
              "velocity": 16,
              "position": 0.25,
              "duration": 0.208333
            },
            {
              "pitch": 63,
              "velocity": 17,
              "position": 0.25,
              "duration": 0.208333
            },
            {
              "pitch": 42,
              "velocity": 93,
              "position": 0.5,
              "duration": 0.208333
            },
            {
              "pitch": 70,
              "velocity": 56,
              "position": 0.5,
              "duration": 0.208333
            },
            {
              "pitch": 42,
              "velocity": 103,
              "position": 0.75,
              "duration": 0.208333
            },
            {
              "pitch": 62,
              "velocity": 104,
              "position": 0.75,
              "duration": 0.208333
            },
            {
              "pitch": 38,
              "velocity": 112,
              "position": 1.0,
              "duration": 0.208333
            },
            {
              "pitch": 63,
              "velocity": 15,
              "position": 1.0,
              "duration": 0.208333
            },
            {
              "pitch": 42,
              "velocity": 18,
              "position": 1.25,
              "duration": 0.208333
            },
            {
              "pitch": 54,
              "velocity": 19,
              "position": 1.25,
              "duration": 0.208333
            },
            {
              "pitch": 56,
              "velocity": 23,
              "position": 1.25,
              "duration": 0.208333
            },
            {
              "pitch": 63,
              "velocity": 39,
              "position": 1.25,
              "duration": 0.208333
            },
            {
              "pitch": 42,
              "velocity": 69,
              "position": 1.5,
              "duration": 0.208333
            },
            {
              "pitch": 54,
              "velocity": 33,
              "position": 1.5,
              "duration": 0.208333
            },
            {
              "pitch": 56,
              "velocity": 35,
              "position": 1.5,
              "duration": 0.208333
            },
            {
              "pitch": 63,
              "velocity": 28,
              "position": 1.5,
              "duration": 0.208333
            },
            {
              "pitch": 70,
              "velocity": 52,
              "position": 1.5,
              "duration": 0.208333
            },
            {
              "pitch": 35,
              "velocity": 47,
              "position": 1.75,
              "duration": 0.208333
            },
            {
              "pitch": 42,
              "velocity": 56,
              "position": 1.75,
              "duration": 0.208333
            },
            {
              "pitch": 63,
              "velocity": 70,
              "position": 1.75,
              "duration": 0.208333
            },
            {
              "pitch": 69,
              "velocity": 16,
              "position": 1.75,
              "duration": 0.208333
            },
            {
              "pitch": 35,
              "velocity": 87,
              "position": 2.0,
              "duration": 0.208333
            },
            {
              "pitch": 42,
              "velocity": 78,
              "position": 2.0,
              "duration": 0.208333
            },
            {
              "pitch": 69,
              "velocity": 31,
              "position": 2.0,
              "duration": 0.208333
            },
            {
              "pitch": 42,
              "velocity": 18,
              "position": 2.25,
              "duration": 0.208333
            },
            {
              "pitch": 62,
              "velocity": 67,
              "position": 2.25,
              "duration": 0.208333
            },
            {
              "pitch": 42,
              "velocity": 61,
              "position": 2.5,
              "duration": 0.208333
            },
            {
              "pitch": 70,
              "velocity": 62,
              "position": 2.5,
              "duration": 0.208333
            },
            {
              "pitch": 42,
              "velocity": 90,
              "position": 2.75,
              "duration": 0.208333
            },
            {
              "pitch": 63,
              "velocity": 22,
              "position": 2.75,
              "duration": 0.208333
            },
            {
              "pitch": 38,
              "velocity": 98,
              "position": 3.0,
              "duration": 0.208333
            },
            {
              "pitch": 42,
              "velocity": 18,
              "position": 3.25,
              "duration": 0.208333
            },
            {
              "pitch": 63,
              "velocity": 59,
              "position": 3.25,
              "duration": 0.208333
            },
            {
              "pitch": 42,
              "velocity": 93,
              "position": 3.5,
              "duration": 0.208333
            },
            {
              "pitch": 63,
              "velocity": 68,
              "position": 3.5,
              "duration": 0.208333
            },
            {
              "pitch": 70,
              "velocity": 70,
              "position": 3.5,
              "duration": 0.208333
            },
            {
              "pitch": 42,
              "velocity": 78,
              "position": 3.75,
              "duration": 0.208333
            },
            {
              "pitch": 63,
              "velocity": 85,
              "position": 3.75,
              "duration": 0.208333
            },
            {
              "pitch": 70,
              "velocity": 69,
              "position": 3.75,
              "duration": 0.208333
            },
            {
              "pitch": 35,
              "velocity": 75,
              "position": 4.0,
              "duration": 0.208333
            },
            {
              "pitch": 42,
              "velocity": 58,
              "position": 4.0,
              "duration": 0.208333
            },
            {
              "pitch": 63,
              "velocity": 31,
              "position": 4.0,
              "duration": 0.208333
            },
            {
              "pitch": 42,
              "velocity": 27,
              "position": 4.25,
              "duration": 0.208333
            },
            {
              "pitch": 63,
              "velocity": 40,
              "position": 4.25,
              "duration": 0.208333
            },
            {
              "pitch": 42,
              "velocity": 93,
              "position": 4.5,
              "duration": 0.208333
            },
            {
              "pitch": 63,
              "velocity": 50,
              "position": 4.5,
              "duration": 0.208333
            },
            {
              "pitch": 70,
              "velocity": 56,
              "position": 4.5,
              "duration": 0.208333
            },
            {
              "pitch": 42,
              "velocity": 103,
              "position": 4.75,
              "duration": 0.208333
            },
            {
              "pitch": 62,
              "velocity": 83,
              "position": 4.75,
              "duration": 0.208333
            },
            {
              "pitch": 38,
              "velocity": 98,
              "position": 5.0,
              "duration": 0.208333
            },
            {
              "pitch": 63,
              "velocity": 14,
              "position": 5.0,
              "duration": 0.208333
            },
            {
              "pitch": 42,
              "velocity": 27,
              "position": 5.25,
              "duration": 0.208333
            },
            {
              "pitch": 54,
              "velocity": 19,
              "position": 5.25,
              "duration": 0.208333
            },
            {
              "pitch": 56,
              "velocity": 23,
              "position": 5.25,
              "duration": 0.208333
            },
            {
              "pitch": 63,
              "velocity": 22,
              "position": 5.25,
              "duration": 0.208333
            },
            {
              "pitch": 42,
              "velocity": 69,
              "position": 5.5,
              "duration": 0.208333
            },
            {
              "pitch": 54,
              "velocity": 33,
              "position": 5.5,
              "duration": 0.208333
            },
            {
              "pitch": 56,
              "velocity": 35,
              "position": 5.5,
              "duration": 0.208333
            },
            {
              "pitch": 63,
              "velocity": 46,
              "position": 5.5,
              "duration": 0.208333
            },
            {
              "pitch": 70,
              "velocity": 52,
              "position": 5.5,
              "duration": 0.208333
            },
            {
              "pitch": 35,
              "velocity": 67,
              "position": 5.75,
              "duration": 0.208333
            },
            {
              "pitch": 42,
              "velocity": 56,
              "position": 5.75,
              "duration": 0.208333
            },
            {
              "pitch": 63,
              "velocity": 98,
              "position": 5.75,
              "duration": 0.208333
            },
            {
              "pitch": 69,
              "velocity": 18,
              "position": 5.75,
              "duration": 0.208333
            },
            {
              "pitch": 35,
              "velocity": 81,
              "position": 6.0,
              "duration": 0.208333
            },
            {
              "pitch": 42,
              "velocity": 78,
              "position": 6.0,
              "duration": 0.208333
            },
            {
              "pitch": 69,
              "velocity": 39,
              "position": 6.0,
              "duration": 0.208333
            },
            {
              "pitch": 42,
              "velocity": 27,
              "position": 6.25,
              "duration": 0.208333
            },
            {
              "pitch": 42,
              "velocity": 61,
              "position": 6.5,
              "duration": 0.208333
            },
            {
              "pitch": 63,
              "velocity": 20,
              "position": 6.5,
              "duration": 0.208333
            },
            {
              "pitch": 70,
              "velocity": 62,
              "position": 6.5,
              "duration": 0.208333
            },
            {
              "pitch": 42,
              "velocity": 90,
              "position": 6.75,
              "duration": 0.208333
            },
            {
              "pitch": 62,
              "velocity": 85,
              "position": 6.75,
              "duration": 0.208333
            },
            {
              "pitch": 38,
              "velocity": 104,
              "position": 7.0,
              "duration": 0.208333
            },
            {
              "pitch": 63,
              "velocity": 34,
              "position": 7.0,
              "duration": 0.208333
            },
            {
              "pitch": 42,
              "velocity": 27,
              "position": 7.25,
              "duration": 0.208333
            },
            {
              "pitch": 63,
              "velocity": 36,
              "position": 7.25,
              "duration": 0.208333
            },
            {
              "pitch": 42,
              "velocity": 93,
              "position": 7.5,
              "duration": 0.208333
            },
            {
              "pitch": 63,
              "velocity": 91,
              "position": 7.5,
              "duration": 0.208333
            },
            {
              "pitch": 70,
              "velocity": 70,
              "position": 7.5,
              "duration": 0.208333
            },
            {
              "pitch": 42,
              "velocity": 78,
              "position": 7.75,
              "duration": 0.208333
            },
            {
              "pitch": 63,
              "velocity": 47,
              "position": 7.75,
              "duration": 0.208333
            },
            {
              "pitch": 70,
              "velocity": 69,
              "position": 7.75,
              "duration": 0.208333
            },
            {
              "pitch": 35,
              "velocity": 76,
              "position": 8.0,
              "duration": 0.208333
            },
            {
              "pitch": 42,
              "velocity": 96,
              "position": 8.0,
              "duration": 0.208333
            },
            {
              "pitch": 63,
              "velocity": 31,
              "position": 8.0,
              "duration": 0.208333
            },
            {
              "pitch": 42,
              "velocity": 16,
              "position": 8.25,
              "duration": 0.208333
            },
            {
              "pitch": 63,
              "velocity": 40,
              "position": 8.25,
              "duration": 0.208333
            },
            {
              "pitch": 42,
              "velocity": 93,
              "position": 8.5,
              "duration": 0.208333
            },
            {
              "pitch": 63,
              "velocity": 50,
              "position": 8.5,
              "duration": 0.208333
            },
            {
              "pitch": 70,
              "velocity": 56,
              "position": 8.5,
              "duration": 0.208333
            },
            {
              "pitch": 42,
              "velocity": 112,
              "position": 8.75,
              "duration": 0.208333
            },
            {
              "pitch": 62,
              "velocity": 83,
              "position": 8.75,
              "duration": 0.208333
            },
            {
              "pitch": 38,
              "velocity": 97,
              "position": 9.0,
              "duration": 0.208333
            },
            {
              "pitch": 63,
              "velocity": 14,
              "position": 9.0,
              "duration": 0.208333
            },
            {
              "pitch": 42,
              "velocity": 18,
              "position": 9.25,
              "duration": 0.208333
            },
            {
              "pitch": 46,
              "velocity": 40,
              "position": 9.25,
              "duration": 0.208333
            },
            {
              "pitch": 54,
              "velocity": 19,
              "position": 9.25,
              "duration": 0.208333
            },
            {
              "pitch": 56,
              "velocity": 23,
              "position": 9.25,
              "duration": 0.208333
            },
            {
              "pitch": 63,
              "velocity": 22,
              "position": 9.25,
              "duration": 0.208333
            },
            {
              "pitch": 42,
              "velocity": 69,
              "position": 9.5,
              "duration": 0.208333
            },
            {
              "pitch": 54,
              "velocity": 33,
              "position": 9.5,
              "duration": 0.208333
            },
            {
              "pitch": 56,
              "velocity": 35,
              "position": 9.5,
              "duration": 0.208333
            },
            {
              "pitch": 63,
              "velocity": 46,
              "position": 9.5,
              "duration": 0.208333
            },
            {
              "pitch": 70,
              "velocity": 52,
              "position": 9.5,
              "duration": 0.208333
            },
            {
              "pitch": 35,
              "velocity": 37,
              "position": 9.75,
              "duration": 0.208333
            },
            {
              "pitch": 42,
              "velocity": 56,
              "position": 9.75,
              "duration": 0.208333
            },
            {
              "pitch": 63,
              "velocity": 98,
              "position": 9.75,
              "duration": 0.208333
            },
            {
              "pitch": 69,
              "velocity": 18,
              "position": 9.75,
              "duration": 0.208333
            },
            {
              "pitch": 35,
              "velocity": 91,
              "position": 10.0,
              "duration": 0.208333
            },
            {
              "pitch": 42,
              "velocity": 78,
              "position": 10.0,
              "duration": 0.208333
            },
            {
              "pitch": 69,
              "velocity": 39,
              "position": 10.0,
              "duration": 0.208333
            },
            {
              "pitch": 42,
              "velocity": 18,
              "position": 10.25,
              "duration": 0.208333
            },
            {
              "pitch": 42,
              "velocity": 61,
              "position": 10.5,
              "duration": 0.208333
            },
            {
              "pitch": 63,
              "velocity": 20,
              "position": 10.5,
              "duration": 0.208333
            },
            {
              "pitch": 70,
              "velocity": 62,
              "position": 10.5,
              "duration": 0.208333
            },
            {
              "pitch": 42,
              "velocity": 83,
              "position": 10.75,
              "duration": 0.208333
            },
            {
              "pitch": 62,
              "velocity": 85,
              "position": 10.75,
              "duration": 0.208333
            },
            {
              "pitch": 38,
              "velocity": 98,
              "position": 11.0,
              "duration": 0.208333
            },
            {
              "pitch": 42,
              "velocity": 35,
              "position": 11.0,
              "duration": 0.208333
            },
            {
              "pitch": 63,
              "velocity": 34,
              "position": 11.0,
              "duration": 0.208333
            },
            {
              "pitch": 42,
              "velocity": 18,
              "position": 11.25,
              "duration": 0.208333
            },
            {
              "pitch": 63,
              "velocity": 36,
              "position": 11.25,
              "duration": 0.208333
            },
            {
              "pitch": 42,
              "velocity": 112,
              "position": 11.5,
              "duration": 0.208333
            },
            {
              "pitch": 63,
              "velocity": 91,
              "position": 11.5,
              "duration": 0.208333
            },
            {
              "pitch": 70,
              "velocity": 70,
              "position": 11.5,
              "duration": 0.208333
            },
            {
              "pitch": 42,
              "velocity": 78,
              "position": 11.75,
              "duration": 0.208333
            },
            {
              "pitch": 63,
              "velocity": 47,
              "position": 11.75,
              "duration": 0.208333
            },
            {
              "pitch": 70,
              "velocity": 69,
              "position": 11.75,
              "duration": 0.208333
            },
            {
              "pitch": 35,
              "velocity": 76,
              "position": 12.0,
              "duration": 0.208333
            },
            {
              "pitch": 42,
              "velocity": 58,
              "position": 12.0,
              "duration": 0.208333
            },
            {
              "pitch": 42,
              "velocity": 16,
              "position": 12.25,
              "duration": 0.208333
            },
            {
              "pitch": 42,
              "velocity": 93,
              "position": 12.5,
              "duration": 0.208333
            },
            {
              "pitch": 42,
              "velocity": 103,
              "position": 12.75,
              "duration": 0.208333
            },
            {
              "pitch": 38,
              "velocity": 97,
              "position": 13.0,
              "duration": 0.208333
            },
            {
              "pitch": 56,
              "velocity": 65,
              "position": 13.0,
              "duration": 0.208333
            },
            {
              "pitch": 42,
              "velocity": 18,
              "position": 13.25,
              "duration": 0.208333
            },
            {
              "pitch": 62,
              "velocity": 51,
              "position": 13.25,
              "duration": 0.208333
            },
            {
              "pitch": 69,
              "velocity": 24,
              "position": 13.25,
              "duration": 0.208333
            },
            {
              "pitch": 42,
              "velocity": 69,
              "position": 13.5,
              "duration": 0.208333
            },
            {
              "pitch": 69,
              "velocity": 40,
              "position": 13.5,
              "duration": 0.208333
            },
            {
              "pitch": 38,
              "velocity": 80,
              "position": 13.75,
              "duration": 0.208333
            },
            {
              "pitch": 42,
              "velocity": 56,
              "position": 13.75,
              "duration": 0.208333
            },
            {
              "pitch": 54,
              "velocity": 31,
              "position": 13.75,
              "duration": 0.208333
            },
            {
              "pitch": 56,
              "velocity": 46,
              "position": 13.75,
              "duration": 0.208333
            },
            {
              "pitch": 63,
              "velocity": 35,
              "position": 13.75,
              "duration": 0.208333
            },
            {
              "pitch": 35,
              "velocity": 87,
              "position": 14.0,
              "duration": 0.208333
            },
            {
              "pitch": 42,
              "velocity": 78,
              "position": 14.0,
              "duration": 0.208333
            },
            {
              "pitch": 54,
              "velocity": 43,
              "position": 14.0,
              "duration": 0.208333
            },
            {
              "pitch": 56,
              "velocity": 50,
              "position": 14.0,
              "duration": 0.208333
            },
            {
              "pitch": 38,
              "velocity": 22,
              "position": 14.25,
              "duration": 0.208333
            },
            {
              "pitch": 42,
              "velocity": 18,
              "position": 14.25,
              "duration": 0.208333
            },
            {
              "pitch": 63,
              "velocity": 39,
              "position": 14.25,
              "duration": 0.208333
            },
            {
              "pitch": 70,
              "velocity": 64,
              "position": 14.25,
              "duration": 0.208333
            },
            {
              "pitch": 38,
              "velocity": 112,
              "position": 14.5,
              "duration": 0.208333
            },
            {
              "pitch": 46,
              "velocity": 112,
              "position": 14.5,
              "duration": 0.208333
            },
            {
              "pitch": 70,
              "velocity": 76,
              "position": 14.5,
              "duration": 0.208333
            },
            {
              "pitch": 56,
              "velocity": 65,
              "position": 15.0,
              "duration": 0.208333
            },
            {
              "pitch": 45,
              "velocity": 97,
              "position": 15.25,
              "duration": 0.208333
            },
            {
              "pitch": 41,
              "velocity": 109,
              "position": 15.5,
              "duration": 0.208333
            }
          ]
        },
        "10": {
          "ctab": {
            "srcChannel": 10,
            "name": "Bass",
            "accType": "BASS",
            "editable": true,
            "mutedNotes": [],
            "mutedChords": [],
            "sourceChordNote": 0,
            "sourceChordType": "Maj7",
            "ctb2Main": {
              "ntr": "ROOT_TRANSPOSITION",
              "ntt": "BYPASS",
              "bassOn": true,
              "noteLowLimit": 20,
              "noteHighLimit": 60,
              "chordRootUpperLimit": 127,
              "rtr": "NOTE_GENERATOR"
            }
          },
          "notes": [
            {
              "pitch": 36,
              "velocity": 108,
              "position": 0.0,
              "duration": 1.416667
            },
            {
              "pitch": 36,
              "velocity": 92,
              "position": 1.5,
              "duration": 1.833333
            },
            {
              "pitch": 36,
              "velocity": 90,
              "position": 3.516667,
              "duration": 0.375
            },
            {
              "pitch": 36,
              "velocity": 108,
              "position": 4.0,
              "duration": 1.758333
            },
            {
              "pitch": 31,
              "velocity": 90,
              "position": 5.766667,
              "duration": 0.175
            },
            {
              "pitch": 36,
              "velocity": 99,
              "position": 6.0,
              "duration": 1.925
            },
            {
              "pitch": 36,
              "velocity": 89,
              "position": 8.0,
              "duration": 0.5
            },
            {
              "pitch": 36,
              "velocity": 102,
              "position": 8.5,
              "duration": 0.191667
            },
            {
              "pitch": 31,
              "velocity": 114,
              "position": 9.741667,
              "duration": 0.275
            },
            {
              "pitch": 36,
              "velocity": 119,
              "position": 10.016667,
              "duration": 0.733333
            },
            {
              "pitch": 31,
              "velocity": 85,
              "position": 10.75,
              "duration": 0.283333
            },
            {
              "pitch": 36,
              "velocity": 87,
              "position": 11.0,
              "duration": 0.475
            },
            {
              "pitch": 31,
              "velocity": 62,
              "position": 11.5,
              "duration": 0.308333
            },
            {
              "pitch": 36,
              "velocity": 111,
              "position": 12.0,
              "duration": 0.45
            },
            {
              "pitch": 36,
              "velocity": 114,
              "position": 12.5,
              "duration": 0.091667
            },
            {
              "pitch": 31,
              "velocity": 111,
              "position": 13.25,
              "duration": 0.258333
            },
            {
              "pitch": 36,
              "velocity": 121,
              "position": 13.508333,
              "duration": 1.741667
            },
            {
              "pitch": 40,
              "velocity": 82,
              "position": 15.25,
              "duration": 0.266667
            },
            {
              "pitch": 43,
              "velocity": 85,
              "position": 15.516667,
              "duration": 0.166667
            },
            {
              "pitch": 36,
              "velocity": 113,
              "position": 15.75,
              "duration": 0.191667
            }
          ]
        },
        "11": {
          "ctab": {
            "srcChannel": 11,
            "name": "Piano",
            "accType": "CHORD1",
            "editable": true,
            "mutedNotes": [],
            "mutedChords": [],
            "sourceChordNote": 0,
            "sourceChordType": "Maj7",
            "ctb2Main": {
              "ntr": "ROOT_FIXED",
              "ntt": "CHORD",
              "bassOn": false,
              "noteLowLimit": 48,
              "noteHighLimit": 84,
              "chordRootUpperLimit": 127,
              "rtr": "NOTE_GENERATOR"
            }
          },
          "notes": [
            {
              "pitch": 59,
              "velocity": 73,
              "position": 0.0,
              "duration": 0.175
            },
            {
              "pitch": 62,
              "velocity": 73,
              "position": 0.0,
              "duration": 0.175
            },
            {
              "pitch": 64,
              "velocity": 73,
              "position": 0.0,
              "duration": 0.175
            },
            {
              "pitch": 67,
              "velocity": 73,
              "position": 0.0,
              "duration": 0.175
            },
            {
              "pitch": 48,
              "velocity": 55,
              "position": 0.033333,
              "duration": 0.466667
            },
            {
              "pitch": 59,
              "velocity": 71,
              "position": 0.5,
              "duration": 0.125
            },
            {
              "pitch": 62,
              "velocity": 71,
              "position": 0.5,
              "duration": 0.125
            },
            {
              "pitch": 64,
              "velocity": 71,
              "position": 0.5,
              "duration": 0.125
            },
            {
              "pitch": 67,
              "velocity": 71,
              "position": 0.5,
              "duration": 0.125
            },
            {
              "pitch": 59,
              "velocity": 64,
              "position": 1.25,
              "duration": 0.125
            },
            {
              "pitch": 62,
              "velocity": 64,
              "position": 1.25,
              "duration": 0.125
            },
            {
              "pitch": 64,
              "velocity": 64,
              "position": 1.25,
              "duration": 0.125
            },
            {
              "pitch": 67,
              "velocity": 64,
              "position": 1.25,
              "duration": 0.125
            },
            {
              "pitch": 36,
              "velocity": 69,
              "position": 2.0,
              "duration": 0.2
            },
            {
              "pitch": 48,
              "velocity": 54,
              "position": 2.0,
              "duration": 0.225
            },
            {
              "pitch": 59,
              "velocity": 75,
              "position": 2.25,
              "duration": 0.108333
            },
            {
              "pitch": 64,
              "velocity": 75,
              "position": 2.25,
              "duration": 0.108333
            },
            {
              "pitch": 67,
              "velocity": 75,
              "position": 2.25,
              "duration": 0.108333
            },
            {
              "pitch": 74,
              "velocity": 75,
              "position": 2.25,
              "duration": 0.108333
            },
            {
              "pitch": 36,
              "velocity": 65,
              "position": 2.75,
              "duration": 0.266667
            },
            {
              "pitch": 48,
              "velocity": 53,
              "position": 2.75,
              "duration": 0.283333
            },
            {
              "pitch": 59,
              "velocity": 78,
              "position": 3.016667,
              "duration": 0.458333
            },
            {
              "pitch": 64,
              "velocity": 78,
              "position": 3.016667,
              "duration": 0.458333
            },
            {
              "pitch": 67,
              "velocity": 78,
              "position": 3.016667,
              "duration": 0.458333
            },
            {
              "pitch": 74,
              "velocity": 78,
              "position": 3.016667,
              "duration": 0.458333
            },
            {
              "pitch": 36,
              "velocity": 65,
              "position": 3.5,
              "duration": 0.125
            },
            {
              "pitch": 48,
              "velocity": 66,
              "position": 3.5,
              "duration": 0.125
            },
            {
              "pitch": 59,
              "velocity": 73,
              "position": 4.0,
              "duration": 0.175
            },
            {
              "pitch": 62,
              "velocity": 73,
              "position": 4.0,
              "duration": 0.175
            },
            {
              "pitch": 64,
              "velocity": 73,
              "position": 4.0,
              "duration": 0.175
            },
            {
              "pitch": 67,
              "velocity": 73,
              "position": 4.0,
              "duration": 0.175
            },
            {
              "pitch": 48,
              "velocity": 55,
              "position": 4.033333,
              "duration": 0.466667
            },
            {
              "pitch": 59,
              "velocity": 71,
              "position": 4.5,
              "duration": 0.125
            },
            {
              "pitch": 62,
              "velocity": 71,
              "position": 4.5,
              "duration": 0.125
            },
            {
              "pitch": 64,
              "velocity": 71,
              "position": 4.5,
              "duration": 0.125
            },
            {
              "pitch": 67,
              "velocity": 71,
              "position": 4.5,
              "duration": 0.125
            },
            {
              "pitch": 59,
              "velocity": 64,
              "position": 5.25,
              "duration": 0.125
            },
            {
              "pitch": 62,
              "velocity": 64,
              "position": 5.25,
              "duration": 0.125
            },
            {
              "pitch": 64,
              "velocity": 64,
              "position": 5.25,
              "duration": 0.125
            },
            {
              "pitch": 67,
              "velocity": 64,
              "position": 5.25,
              "duration": 0.125
            },
            {
              "pitch": 59,
              "velocity": 62,
              "position": 6.0,
              "duration": 0.758333
            },
            {
              "pitch": 60,
              "velocity": 71,
              "position": 6.0,
              "duration": 0.758333
            },
            {
              "pitch": 64,
              "velocity": 75,
              "position": 6.016667,
              "duration": 0.741667
            },
            {
              "pitch": 48,
              "velocity": 62,
              "position": 6.033333,
              "duration": 0.725
            },
            {
              "pitch": 67,
              "velocity": 73,
              "position": 6.033333,
              "duration": 0.5
            },
            {
              "pitch": 67,
              "velocity": 62,
              "position": 6.758333,
              "duration": 0.491667
            },
            {
              "pitch": 71,
              "velocity": 62,
              "position": 7.0,
              "duration": 0.933333
            },
            {
              "pitch": 67,
              "velocity": 62,
              "position": 7.25,
              "duration": 0.491667
            },
            {
              "pitch": 60,
              "velocity": 62,
              "position": 7.5,
              "duration": 0.425
            },
            {
              "pitch": 59,
              "velocity": 84,
              "position": 8.0,
              "duration": 0.1
            },
            {
              "pitch": 64,
              "velocity": 84,
              "position": 8.0,
              "duration": 0.1
            },
            {
              "pitch": 67,
              "velocity": 84,
              "position": 8.0,
              "duration": 0.1
            },
            {
              "pitch": 74,
              "velocity": 84,
              "position": 8.0,
              "duration": 0.1
            },
            {
              "pitch": 59,
              "velocity": 53,
              "position": 8.25,
              "duration": 0.091667
            },
            {
              "pitch": 64,
              "velocity": 53,
              "position": 8.25,
              "duration": 0.091667
            },
            {
              "pitch": 67,
              "velocity": 53,
              "position": 8.25,
              "duration": 0.091667
            },
            {
              "pitch": 74,
              "velocity": 53,
              "position": 8.25,
              "duration": 0.091667
            },
            {
              "pitch": 36,
              "velocity": 66,
              "position": 8.5,
              "duration": 0.233333
            },
            {
              "pitch": 48,
              "velocity": 64,
              "position": 8.5,
              "duration": 0.216667
            },
            {
              "pitch": 59,
              "velocity": 68,
              "position": 9.25,
              "duration": 0.116667
            },
            {
              "pitch": 64,
              "velocity": 68,
              "position": 9.25,
              "duration": 0.116667
            },
            {
              "pitch": 67,
              "velocity": 68,
              "position": 9.25,
              "duration": 0.116667
            },
            {
              "pitch": 74,
              "velocity": 68,
              "position": 9.25,
              "duration": 0.116667
            },
            {
              "pitch": 36,
              "velocity": 74,
              "position": 9.75,
              "duration": 0.25
            },
            {
              "pitch": 48,
              "velocity": 84,
              "position": 9.75,
              "duration": 0.225
            },
            {
              "pitch": 59,
              "velocity": 59,
              "position": 10.25,
              "duration": 0.091667
            },
            {
              "pitch": 64,
              "velocity": 59,
              "position": 10.25,
              "duration": 0.091667
            },
            {
              "pitch": 67,
              "velocity": 59,
              "position": 10.25,
              "duration": 0.091667
            },
            {
              "pitch": 74,
              "velocity": 59,
              "position": 10.25,
              "duration": 0.091667
            },
            {
              "pitch": 36,
              "velocity": 61,
              "position": 10.75,
              "duration": 0.141667
            },
            {
              "pitch": 48,
              "velocity": 61,
              "position": 10.75,
              "duration": 0.091667
            },
            {
              "pitch": 59,
              "velocity": 61,
              "position": 11.0,
              "duration": 0.241667
            },
            {
              "pitch": 64,
              "velocity": 61,
              "position": 11.0,
              "duration": 0.241667
            },
            {
              "pitch": 67,
              "velocity": 61,
              "position": 11.0,
              "duration": 0.241667
            },
            {
              "pitch": 74,
              "velocity": 61,
              "position": 11.0,
              "duration": 0.241667
            },
            {
              "pitch": 59,
              "velocity": 59,
              "position": 11.5,
              "duration": 0.141667
            },
            {
              "pitch": 64,
              "velocity": 59,
              "position": 11.5,
              "duration": 0.141667
            },
            {
              "pitch": 67,
              "velocity": 59,
              "position": 11.5,
              "duration": 0.141667
            },
            {
              "pitch": 74,
              "velocity": 59,
              "position": 11.5,
              "duration": 0.141667
            },
            {
              "pitch": 36,
              "velocity": 59,
              "position": 14.75,
              "duration": 0.133333
            },
            {
              "pitch": 48,
              "velocity": 49,
              "position": 14.75,
              "duration": 0.1
            },
            {
              "pitch": 59,
              "velocity": 79,
              "position": 15.0,
              "duration": 0.491667
            },
            {
              "pitch": 64,
              "velocity": 79,
              "position": 15.0,
              "duration": 0.491667
            },
            {
              "pitch": 67,
              "velocity": 79,
              "position": 15.0,
              "duration": 0.491667
            },
            {
              "pitch": 74,
              "velocity": 79,
              "position": 15.0,
              "duration": 0.491667
            }
          ]
        },
        "12": {
          "ctab": {
            "srcChannel": 12,
            "name": "Guitar",
            "accType": "CHORD2",
            "editable": true,
            "mutedNotes": [],
            "mutedChords": [],
            "sourceChordNote": 0,
            "sourceChordType": "Maj7",
            "ctb2Main": {
              "ntr": "ROOT_FIXED",
              "ntt": "CHORD",
              "bassOn": false,
              "noteLowLimit": 40,
              "noteHighLimit": 76,
              "chordRootUpperLimit": 127,
              "rtr": "NOTE_GENERATOR"
            }
          },
          "notes": [
            {
              "pitch": 52,
              "velocity": 70,
              "position": 0.0,
              "duration": 1.091667
            },
            {
              "pitch": 55,
              "velocity": 57,
              "position": 0.25,
              "duration": 1.108333
            },
            {
              "pitch": 59,
              "velocity": 63,
              "position": 0.5,
              "duration": 1.016667
            },
            {
              "pitch": 64,
              "velocity": 82,
              "position": 0.75,
              "duration": 1.208333
            },
            {
              "pitch": 52,
              "velocity": 61,
              "position": 1.25,
              "duration": 0.708333
            },
            {
              "pitch": 55,
              "velocity": 57,
              "position": 1.5,
              "duration": 0.458333
            },
            {
              "pitch": 52,
              "velocity": 68,
              "position": 2.0,
              "duration": 1.066667
            },
            {
              "pitch": 59,
              "velocity": 55,
              "position": 2.5,
              "duration": 0.933333
            },
            {
              "pitch": 64,
              "velocity": 81,
              "position": 2.75,
              "duration": 1.208333
            },
            {
              "pitch": 52,
              "velocity": 56,
              "position": 3.25,
              "duration": 0.666667
            },
            {
              "pitch": 55,
              "velocity": 66,
              "position": 3.525,
              "duration": 0.433333
            },
            {
              "pitch": 48,
              "velocity": 54,
              "position": 3.966667,
              "duration": 0.308333
            },
            {
              "pitch": 52,
              "velocity": 64,
              "position": 3.983333,
              "duration": 0.291667
            },
            {
              "pitch": 55,
              "velocity": 64,
              "position": 4.0,
              "duration": 0.258333
            },
            {
              "pitch": 59,
              "velocity": 64,
              "position": 4.008333,
              "duration": 0.233333
            },
            {
              "pitch": 64,
              "velocity": 64,
              "position": 4.025,
              "duration": 0.2
            },
            {
              "pitch": 64,
              "velocity": 52,
              "position": 4.241667,
              "duration": 0.258333
            },
            {
              "pitch": 59,
              "velocity": 60,
              "position": 4.258333,
              "duration": 0.225
            },
            {
              "pitch": 55,
              "velocity": 60,
              "position": 4.275,
              "duration": 0.191667
            },
            {
              "pitch": 52,
              "velocity": 52,
              "position": 4.3,
              "duration": 0.15
            },
            {
              "pitch": 52,
              "velocity": 67,
              "position": 4.466667,
              "duration": 0.325
            },
            {
              "pitch": 55,
              "velocity": 67,
              "position": 4.483333,
              "duration": 0.308333
            },
            {
              "pitch": 59,
              "velocity": 67,
              "position": 4.5,
              "duration": 0.291667
            },
            {
              "pitch": 64,
              "velocity": 67,
              "position": 4.525,
              "duration": 0.266667
            },
            {
              "pitch": 64,
              "velocity": 37,
              "position": 5.216667,
              "duration": 0.275
            },
            {
              "pitch": 59,
              "velocity": 43,
              "position": 5.233333,
              "duration": 0.258333
            },
            {
              "pitch": 55,
              "velocity": 43,
              "position": 5.25,
              "duration": 0.216667
            },
            {
              "pitch": 52,
              "velocity": 37,
              "position": 5.275,
              "duration": 0.175
            },
            {
              "pitch": 52,
              "velocity": 49,
              "position": 5.466667,
              "duration": 0.3
            },
            {
              "pitch": 55,
              "velocity": 49,
              "position": 5.483333,
              "duration": 0.283333
            },
            {
              "pitch": 59,
              "velocity": 49,
              "position": 5.5,
              "duration": 0.266667
            },
            {
              "pitch": 64,
              "velocity": 49,
              "position": 5.525,
              "duration": 0.241667
            },
            {
              "pitch": 52,
              "velocity": 68,
              "position": 6.0,
              "duration": 1.066667
            },
            {
              "pitch": 59,
              "velocity": 55,
              "position": 6.5,
              "duration": 0.933333
            },
            {
              "pitch": 64,
              "velocity": 81,
              "position": 6.75,
              "duration": 1.208333
            },
            {
              "pitch": 52,
              "velocity": 56,
              "position": 7.25,
              "duration": 0.666667
            },
            {
              "pitch": 55,
              "velocity": 66,
              "position": 7.525,
              "duration": 0.433333
            },
            {
              "pitch": 52,
              "velocity": 71,
              "position": 8.0,
              "duration": 1.066667
            },
            {
              "pitch": 59,
              "velocity": 58,
              "position": 8.5,
              "duration": 0.933333
            },
            {
              "pitch": 64,
              "velocity": 84,
              "position": 8.75,
              "duration": 1.808333
            },
            {
              "pitch": 52,
              "velocity": 59,
              "position": 9.25,
              "duration": 0.666667
            },
            {
              "pitch": 55,
              "velocity": 69,
              "position": 9.525,
              "duration": 0.908333
            },
            {
              "pitch": 59,
              "velocity": 77,
              "position": 9.75,
              "duration": 0.5
            },
            {
              "pitch": 52,
              "velocity": 55,
              "position": 10.25,
              "duration": 1.325
            },
            {
              "pitch": 55,
              "velocity": 57,
              "position": 10.5,
              "duration": 0.275
            },
            {
              "pitch": 64,
              "velocity": 84,
              "position": 10.775,
              "duration": 1.108333
            },
            {
              "pitch": 55,
              "velocity": 69,
              "position": 11.25,
              "duration": 0.25
            },
            {
              "pitch": 59,
              "velocity": 59,
              "position": 11.5,
              "duration": 0.5
            },
            {
              "pitch": 55,
              "velocity": 73,
              "position": 11.75,
              "duration": 0.141667
            },
            {
              "pitch": 52,
              "velocity": 69,
              "position": 12.0,
              "duration": 1.066667
            },
            {
              "pitch": 55,
              "velocity": 50,
              "position": 12.25,
              "duration": 0.991667
            },
            {
              "pitch": 59,
              "velocity": 71,
              "position": 12.5,
              "duration": 1.066667
            },
            {
              "pitch": 64,
              "velocity": 72,
              "position": 12.75,
              "duration": 1.891667
            },
            {
              "pitch": 52,
              "velocity": 57,
              "position": 13.25,
              "duration": 0.816667
            },
            {
              "pitch": 55,
              "velocity": 48,
              "position": 13.5,
              "duration": 0.741667
            },
            {
              "pitch": 59,
              "velocity": 84,
              "position": 13.75,
              "duration": 0.541667
            },
            {
              "pitch": 52,
              "velocity": 58,
              "position": 14.25,
              "duration": 1.225
            },
            {
              "pitch": 55,
              "velocity": 50,
              "position": 14.5,
              "duration": 0.233333
            },
            {
              "pitch": 59,
              "velocity": 79,
              "position": 14.75,
              "duration": 0.25
            },
            {
              "pitch": 64,
              "velocity": 77,
              "position": 15.0,
              "duration": 0.958333
            },
            {
              "pitch": 59,
              "velocity": 56,
              "position": 15.25,
              "duration": 0.708333
            },
            {
              "pitch": 55,
              "velocity": 45,
              "position": 15.5,
              "duration": 0.458333
            }
          ]
        },
        "13": {
          "ctab": {
            "srcChannel": 13,
            "name": "Strings",
            "accType": "PAD",
            "editable": true,
            "mutedNotes": [],
            "mutedChords": [],
            "sourceChordNote": 0,
            "sourceChordType": "Maj7",
            "ctb2Main": {
              "ntr": "ROOT_FIXED",
              "ntt": "MELODY",
              "bassOn": false,
              "noteLowLimit": 36,
              "noteHighLimit": 96,
              "chordRootUpperLimit": 127,
              "rtr": "PITCH_SHIFT"
            }
          },
          "notes": [
            {
              "pitch": 59,
              "velocity": 29,
              "position": 6.0,
              "duration": 1.958333
            },
            {
              "pitch": 71,
              "velocity": 42,
              "position": 8.0,
              "duration": 43.958333
            },
            {
              "pitch": 67,
              "velocity": 32,
              "position": 14.25,
              "duration": 1.708333
            }
          ]
        }
      }
    },
    "Main_C": {
      "type": "Main_C",
      "sizeInBeats": 16,
      "channels": {
        "9": {
          "ctab": {
            "srcChannel": 9,
            "name": "Drums",
            "accType": "RHYTHM",
            "editable": false,
            "mutedNotes": [],
            "mutedChords": [],
            "sourceChordNote": 0,
            "sourceChordType": "Maj",
            "ctb2Main": {
              "ntr": "ROOT_FIXED",
              "ntt": "BYPASS",
              "bassOn": false,
              "noteLowLimit": 20,
              "noteHighLimit": 127,
              "chordRootUpperLimit": 127,
              "rtr": "RETRIGGER"
            }
          },
          "notes": [
            {
              "pitch": 35,
              "velocity": 76,
              "position": 0.0,
              "duration": 0.208333
            },
            {
              "pitch": 42,
              "velocity": 58,
              "position": 0.0,
              "duration": 0.208333
            },
            {
              "pitch": 49,
              "velocity": 75,
              "position": 0.0,
              "duration": 0.208333
            },
            {
              "pitch": 63,
              "velocity": 43,
              "position": 0.0,
              "duration": 0.208333
            },
            {
              "pitch": 42,
              "velocity": 16,
              "position": 0.25,
              "duration": 0.208333
            },
            {
              "pitch": 63,
              "velocity": 17,
              "position": 0.25,
              "duration": 0.208333
            },
            {
              "pitch": 42,
              "velocity": 93,
              "position": 0.5,
              "duration": 0.208333
            },
            {
              "pitch": 70,
              "velocity": 56,
              "position": 0.5,
              "duration": 0.208333
            },
            {
              "pitch": 42,
              "velocity": 103,
              "position": 0.75,
              "duration": 0.208333
            },
            {
              "pitch": 62,
              "velocity": 104,
              "position": 0.75,
              "duration": 0.208333
            },
            {
              "pitch": 38,
              "velocity": 112,
              "position": 1.0,
              "duration": 0.208333
            },
            {
              "pitch": 63,
              "velocity": 15,
              "position": 1.0,
              "duration": 0.208333
            },
            {
              "pitch": 42,
              "velocity": 18,
              "position": 1.25,
              "duration": 0.208333
            },
            {
              "pitch": 54,
              "velocity": 19,
              "position": 1.25,
              "duration": 0.208333
            },
            {
              "pitch": 56,
              "velocity": 23,
              "position": 1.25,
              "duration": 0.208333
            },
            {
              "pitch": 63,
              "velocity": 39,
              "position": 1.25,
              "duration": 0.208333
            },
            {
              "pitch": 42,
              "velocity": 69,
              "position": 1.5,
              "duration": 0.208333
            },
            {
              "pitch": 54,
              "velocity": 33,
              "position": 1.5,
              "duration": 0.208333
            },
            {
              "pitch": 56,
              "velocity": 35,
              "position": 1.5,
              "duration": 0.208333
            },
            {
              "pitch": 63,
              "velocity": 28,
              "position": 1.5,
              "duration": 0.208333
            },
            {
              "pitch": 70,
              "velocity": 52,
              "position": 1.5,
              "duration": 0.208333
            },
            {
              "pitch": 35,
              "velocity": 47,
              "position": 1.75,
              "duration": 0.208333
            },
            {
              "pitch": 42,
              "velocity": 56,
              "position": 1.75,
              "duration": 0.208333
            },
            {
              "pitch": 63,
              "velocity": 70,
              "position": 1.75,
              "duration": 0.208333
            },
            {
              "pitch": 69,
              "velocity": 16,
              "position": 1.75,
              "duration": 0.208333
            },
            {
              "pitch": 35,
              "velocity": 87,
              "position": 2.0,
              "duration": 0.208333
            },
            {
              "pitch": 42,
              "velocity": 78,
              "position": 2.0,
              "duration": 0.208333
            },
            {
              "pitch": 69,
              "velocity": 31,
              "position": 2.0,
              "duration": 0.208333
            },
            {
              "pitch": 42,
              "velocity": 18,
              "position": 2.25,
              "duration": 0.208333
            },
            {
              "pitch": 62,
              "velocity": 67,
              "position": 2.25,
              "duration": 0.208333
            },
            {
              "pitch": 42,
              "velocity": 61,
              "position": 2.5,
              "duration": 0.208333
            },
            {
              "pitch": 70,
              "velocity": 62,
              "position": 2.5,
              "duration": 0.208333
            },
            {
              "pitch": 42,
              "velocity": 90,
              "position": 2.75,
              "duration": 0.208333
            },
            {
              "pitch": 63,
              "velocity": 22,
              "position": 2.75,
              "duration": 0.208333
            },
            {
              "pitch": 38,
              "velocity": 98,
              "position": 3.0,
              "duration": 0.208333
            },
            {
              "pitch": 42,
              "velocity": 18,
              "position": 3.25,
              "duration": 0.208333
            },
            {
              "pitch": 63,
              "velocity": 59,
              "position": 3.25,
              "duration": 0.208333
            },
            {
              "pitch": 42,
              "velocity": 93,
              "position": 3.5,
              "duration": 0.208333
            },
            {
              "pitch": 63,
              "velocity": 68,
              "position": 3.5,
              "duration": 0.208333
            },
            {
              "pitch": 70,
              "velocity": 70,
              "position": 3.5,
              "duration": 0.208333
            },
            {
              "pitch": 42,
              "velocity": 78,
              "position": 3.75,
              "duration": 0.208333
            },
            {
              "pitch": 63,
              "velocity": 85,
              "position": 3.75,
              "duration": 0.208333
            },
            {
              "pitch": 70,
              "velocity": 69,
              "position": 3.75,
              "duration": 0.208333
            },
            {
              "pitch": 35,
              "velocity": 75,
              "position": 4.0,
              "duration": 0.208333
            },
            {
              "pitch": 42,
              "velocity": 58,
              "position": 4.0,
              "duration": 0.208333
            },
            {
              "pitch": 56,
              "velocity": 67,
              "position": 4.0,
              "duration": 0.208333
            },
            {
              "pitch": 62,
              "velocity": 80,
              "position": 4.0,
              "duration": 0.208333
            },
            {
              "pitch": 42,
              "velocity": 26,
              "position": 4.25,
              "duration": 0.208333
            },
            {
              "pitch": 63,
              "velocity": 40,
              "position": 4.25,
              "duration": 0.208333
            },
            {
              "pitch": 42,
              "velocity": 93,
              "position": 4.5,
              "duration": 0.208333
            },
            {
              "pitch": 56,
              "velocity": 71,
              "position": 4.5,
              "duration": 0.208333
            },
            {
              "pitch": 62,
              "velocity": 32,
              "position": 4.5,
              "duration": 0.208333
            },
            {
              "pitch": 70,
              "velocity": 56,
              "position": 4.5,
              "duration": 0.208333
            },
            {
              "pitch": 42,
              "velocity": 103,
              "position": 4.75,
              "duration": 0.208333
            },
            {
              "pitch": 62,
              "velocity": 67,
              "position": 4.75,
              "duration": 0.208333
            },
            {
              "pitch": 38,
              "velocity": 98,
              "position": 5.0,
              "duration": 0.208333
            },
            {
              "pitch": 63,
              "velocity": 14,
              "position": 5.0,
              "duration": 0.208333
            },
            {
              "pitch": 42,
              "velocity": 26,
              "position": 5.25,
              "duration": 0.208333
            },
            {
              "pitch": 54,
              "velocity": 19,
              "position": 5.25,
              "duration": 0.208333
            },
            {
              "pitch": 56,
              "velocity": 58,
              "position": 5.25,
              "duration": 0.208333
            },
            {
              "pitch": 63,
              "velocity": 22,
              "position": 5.25,
              "duration": 0.208333
            },
            {
              "pitch": 69,
              "velocity": 23,
              "position": 5.25,
              "duration": 0.208333
            },
            {
              "pitch": 42,
              "velocity": 69,
              "position": 5.5,
              "duration": 0.208333
            },
            {
              "pitch": 54,
              "velocity": 33,
              "position": 5.5,
              "duration": 0.208333
            },
            {
              "pitch": 63,
              "velocity": 46,
              "position": 5.5,
              "duration": 0.208333
            },
            {
              "pitch": 69,
              "velocity": 53,
              "position": 5.5,
              "duration": 0.208333
            },
            {
              "pitch": 70,
              "velocity": 52,
              "position": 5.5,
              "duration": 0.208333
            },
            {
              "pitch": 35,
              "velocity": 67,
              "position": 5.75,
              "duration": 0.208333
            },
            {
              "pitch": 42,
              "velocity": 56,
              "position": 5.75,
              "duration": 0.208333
            },
            {
              "pitch": 56,
              "velocity": 57,
              "position": 5.75,
              "duration": 0.208333
            },
            {
              "pitch": 63,
              "velocity": 98,
              "position": 5.75,
              "duration": 0.208333
            },
            {
              "pitch": 69,
              "velocity": 18,
              "position": 5.75,
              "duration": 0.208333
            },
            {
              "pitch": 35,
              "velocity": 81,
              "position": 6.0,
              "duration": 0.208333
            },
            {
              "pitch": 42,
              "velocity": 78,
              "position": 6.0,
              "duration": 0.208333
            },
            {
              "pitch": 69,
              "velocity": 39,
              "position": 6.0,
              "duration": 0.208333
            },
            {
              "pitch": 42,
              "velocity": 26,
              "position": 6.25,
              "duration": 0.208333
            },
            {
              "pitch": 42,
              "velocity": 112,
              "position": 6.5,
              "duration": 0.208333
            },
            {
              "pitch": 63,
              "velocity": 20,
              "position": 6.5,
              "duration": 0.208333
            },
            {
              "pitch": 70,
              "velocity": 62,
              "position": 6.5,
              "duration": 0.208333
            },
            {
              "pitch": 42,
              "velocity": 90,
              "position": 6.75,
              "duration": 0.208333
            },
            {
              "pitch": 56,
              "velocity": 58,
              "position": 6.75,
              "duration": 0.208333
            },
            {
              "pitch": 62,
              "velocity": 85,
              "position": 6.75,
              "duration": 0.208333
            },
            {
              "pitch": 38,
              "velocity": 104,
              "position": 7.0,
              "duration": 0.208333
            },
            {
              "pitch": 63,
              "velocity": 34,
              "position": 7.0,
              "duration": 0.208333
            },
            {
              "pitch": 42,
              "velocity": 26,
              "position": 7.25,
              "duration": 0.208333
            },
            {
              "pitch": 63,
              "velocity": 36,
              "position": 7.25,
              "duration": 0.208333
            },
            {
              "pitch": 42,
              "velocity": 93,
              "position": 7.5,
              "duration": 0.208333
            },
            {
              "pitch": 56,
              "velocity": 51,
              "position": 7.5,
              "duration": 0.208333
            },
            {
              "pitch": 63,
              "velocity": 91,
              "position": 7.5,
              "duration": 0.208333
            },
            {
              "pitch": 70,
              "velocity": 70,
              "position": 7.5,
              "duration": 0.208333
            },
            {
              "pitch": 42,
              "velocity": 78,
              "position": 7.75,
              "duration": 0.208333
            },
            {
              "pitch": 63,
              "velocity": 47,
              "position": 7.75,
              "duration": 0.208333
            },
            {
              "pitch": 70,
              "velocity": 69,
              "position": 7.75,
              "duration": 0.208333
            },
            {
              "pitch": 35,
              "velocity": 76,
              "position": 8.0,
              "duration": 0.208333
            },
            {
              "pitch": 42,
              "velocity": 96,
              "position": 8.0,
              "duration": 0.208333
            },
            {
              "pitch": 63,
              "velocity": 31,
              "position": 8.0,
              "duration": 0.208333
            },
            {
              "pitch": 42,
              "velocity": 16,
              "position": 8.25,
              "duration": 0.208333
            },
            {
              "pitch": 63,
              "velocity": 40,
              "position": 8.25,
              "duration": 0.208333
            },
            {
              "pitch": 42,
              "velocity": 93,
              "position": 8.5,
              "duration": 0.208333
            },
            {
              "pitch": 63,
              "velocity": 50,
              "position": 8.5,
              "duration": 0.208333
            },
            {
              "pitch": 70,
              "velocity": 56,
              "position": 8.5,
              "duration": 0.208333
            },
            {
              "pitch": 42,
              "velocity": 112,
              "position": 8.75,
              "duration": 0.208333
            },
            {
              "pitch": 62,
              "velocity": 83,
              "position": 8.75,
              "duration": 0.208333
            },
            {
              "pitch": 38,
              "velocity": 97,
              "position": 9.0,
              "duration": 0.208333
            },
            {
              "pitch": 63,
              "velocity": 14,
              "position": 9.0,
              "duration": 0.208333
            },
            {
              "pitch": 42,
              "velocity": 18,
              "position": 9.25,
              "duration": 0.208333
            },
            {
              "pitch": 46,
              "velocity": 40,
              "position": 9.25,
              "duration": 0.208333
            },
            {
              "pitch": 54,
              "velocity": 19,
              "position": 9.25,
              "duration": 0.208333
            },
            {
              "pitch": 56,
              "velocity": 23,
              "position": 9.25,
              "duration": 0.208333
            },
            {
              "pitch": 63,
              "velocity": 22,
              "position": 9.25,
              "duration": 0.208333
            },
            {
              "pitch": 42,
              "velocity": 69,
              "position": 9.5,
              "duration": 0.208333
            },
            {
              "pitch": 54,
              "velocity": 33,
              "position": 9.5,
              "duration": 0.208333
            },
            {
              "pitch": 56,
              "velocity": 35,
              "position": 9.5,
              "duration": 0.208333
            },
            {
              "pitch": 63,
              "velocity": 46,
              "position": 9.5,
              "duration": 0.208333
            },
            {
              "pitch": 70,
              "velocity": 52,
              "position": 9.5,
              "duration": 0.208333
            },
            {
              "pitch": 35,
              "velocity": 37,
              "position": 9.75,
              "duration": 0.208333
            },
            {
              "pitch": 42,
              "velocity": 56,
              "position": 9.75,
              "duration": 0.208333
            },
            {
              "pitch": 63,
              "velocity": 98,
              "position": 9.75,
              "duration": 0.208333
            },
            {
              "pitch": 69,
              "velocity": 18,
              "position": 9.75,
              "duration": 0.208333
            },
            {
              "pitch": 35,
              "velocity": 91,
              "position": 10.0,
              "duration": 0.208333
            },
            {
              "pitch": 42,
              "velocity": 78,
              "position": 10.0,
              "duration": 0.208333
            },
            {
              "pitch": 69,
              "velocity": 39,
              "position": 10.0,
              "duration": 0.208333
            },
            {
              "pitch": 42,
              "velocity": 18,
              "position": 10.25,
              "duration": 0.208333
            },
            {
              "pitch": 42,
              "velocity": 61,
              "position": 10.5,
              "duration": 0.208333
            },
            {
              "pitch": 63,
              "velocity": 20,
              "position": 10.5,
              "duration": 0.208333
            },
            {
              "pitch": 70,
              "velocity": 62,
              "position": 10.5,
              "duration": 0.208333
            },
            {
              "pitch": 42,
              "velocity": 83,
              "position": 10.75,
              "duration": 0.208333
            },
            {
              "pitch": 62,
              "velocity": 85,
              "position": 10.75,
              "duration": 0.208333
            },
            {
              "pitch": 38,
              "velocity": 98,
              "position": 11.0,
              "duration": 0.208333
            },
            {
              "pitch": 42,
              "velocity": 35,
              "position": 11.0,
              "duration": 0.208333
            },
            {
              "pitch": 63,
              "velocity": 34,
              "position": 11.0,
              "duration": 0.208333
            },
            {
              "pitch": 42,
              "velocity": 18,
              "position": 11.25,
              "duration": 0.208333
            },
            {
              "pitch": 63,
              "velocity": 36,
              "position": 11.25,
              "duration": 0.208333
            },
            {
              "pitch": 42,
              "velocity": 112,
              "position": 11.5,
              "duration": 0.208333
            },
            {
              "pitch": 63,
              "velocity": 91,
              "position": 11.5,
              "duration": 0.208333
            },
            {
              "pitch": 70,
              "velocity": 70,
              "position": 11.5,
              "duration": 0.208333
            },
            {
              "pitch": 42,
              "velocity": 78,
              "position": 11.75,
              "duration": 0.208333
            },
            {
              "pitch": 63,
              "velocity": 47,
              "position": 11.75,
              "duration": 0.208333
            },
            {
              "pitch": 70,
              "velocity": 69,
              "position": 11.75,
              "duration": 0.208333
            },
            {
              "pitch": 35,
              "velocity": 76,
              "position": 12.0,
              "duration": 0.208333
            },
            {
              "pitch": 42,
              "velocity": 58,
              "position": 12.0,
              "duration": 0.208333
            },
            {
              "pitch": 42,
              "velocity": 16,
              "position": 12.25,
              "duration": 0.208333
            },
            {
              "pitch": 42,
              "velocity": 93,
              "position": 12.5,
              "duration": 0.208333
            },
            {
              "pitch": 42,
              "velocity": 103,
              "position": 12.75,
              "duration": 0.208333
            },
            {
              "pitch": 38,
              "velocity": 97,
              "position": 13.0,
              "duration": 0.208333
            },
            {
              "pitch": 56,
              "velocity": 65,
              "position": 13.0,
              "duration": 0.208333
            },
            {
              "pitch": 42,
              "velocity": 18,
              "position": 13.25,
              "duration": 0.208333
            },
            {
              "pitch": 62,
              "velocity": 51,
              "position": 13.25,
              "duration": 0.208333
            },
            {
              "pitch": 69,
              "velocity": 24,
              "position": 13.25,
              "duration": 0.208333
            },
            {
              "pitch": 42,
              "velocity": 69,
              "position": 13.5,
              "duration": 0.208333
            },
            {
              "pitch": 69,
              "velocity": 40,
              "position": 13.5,
              "duration": 0.208333
            },
            {
              "pitch": 38,
              "velocity": 80,
              "position": 13.75,
              "duration": 0.208333
            },
            {
              "pitch": 42,
              "velocity": 56,
              "position": 13.75,
              "duration": 0.208333
            },
            {
              "pitch": 54,
              "velocity": 31,
              "position": 13.75,
              "duration": 0.208333
            },
            {
              "pitch": 56,
              "velocity": 46,
              "position": 13.75,
              "duration": 0.208333
            },
            {
              "pitch": 63,
              "velocity": 35,
              "position": 13.75,
              "duration": 0.208333
            },
            {
              "pitch": 35,
              "velocity": 87,
              "position": 14.0,
              "duration": 0.208333
            },
            {
              "pitch": 42,
              "velocity": 78,
              "position": 14.0,
              "duration": 0.208333
            },
            {
              "pitch": 54,
              "velocity": 43,
              "position": 14.0,
              "duration": 0.208333
            },
            {
              "pitch": 56,
              "velocity": 50,
              "position": 14.0,
              "duration": 0.208333
            },
            {
              "pitch": 38,
              "velocity": 22,
              "position": 14.25,
              "duration": 0.208333
            },
            {
              "pitch": 42,
              "velocity": 18,
              "position": 14.25,
              "duration": 0.208333
            },
            {
              "pitch": 63,
              "velocity": 39,
              "position": 14.25,
              "duration": 0.208333
            },
            {
              "pitch": 70,
              "velocity": 64,
              "position": 14.25,
              "duration": 0.208333
            },
            {
              "pitch": 38,
              "velocity": 112,
              "position": 14.5,
              "duration": 0.208333
            },
            {
              "pitch": 46,
              "velocity": 112,
              "position": 14.5,
              "duration": 0.208333
            },
            {
              "pitch": 70,
              "velocity": 76,
              "position": 14.5,
              "duration": 0.208333
            },
            {
              "pitch": 56,
              "velocity": 65,
              "position": 15.0,
              "duration": 0.208333
            },
            {
              "pitch": 45,
              "velocity": 97,
              "position": 15.25,
              "duration": 0.208333
            },
            {
              "pitch": 41,
              "velocity": 109,
              "position": 15.5,
              "duration": 0.208333
            }
          ]
        },
        "10": {
          "ctab": {
            "srcChannel": 10,
            "name": "Bass",
            "accType": "BASS",
            "editable": true,
            "mutedNotes": [],
            "mutedChords": [],
            "sourceChordNote": 0,
            "sourceChordType": "Maj7",
            "ctb2Main": {
              "ntr": "ROOT_TRANSPOSITION",
              "ntt": "BYPASS",
              "bassOn": true,
              "noteLowLimit": 20,
              "noteHighLimit": 60,
              "chordRootUpperLimit": 127,
              "rtr": "NOTE_GENERATOR"
            }
          },
          "notes": [
            {
              "pitch": 36,
              "velocity": 108,
              "position": 0.0,
              "duration": 1.416667
            },
            {
              "pitch": 36,
              "velocity": 99,
              "position": 1.5,
              "duration": 2.408333
            },
            {
              "pitch": 36,
              "velocity": 99,
              "position": 4.0,
              "duration": 1.416667
            },
            {
              "pitch": 36,
              "velocity": 92,
              "position": 5.5,
              "duration": 1.833333
            },
            {
              "pitch": 36,
              "velocity": 90,
              "position": 7.516667,
              "duration": 0.375
            },
            {
              "pitch": 36,
              "velocity": 89,
              "position": 8.0,
              "duration": 0.5
            },
            {
              "pitch": 36,
              "velocity": 102,
              "position": 8.5,
              "duration": 0.191667
            },
            {
              "pitch": 31,
              "velocity": 114,
              "position": 9.741667,
              "duration": 0.275
            },
            {
              "pitch": 36,
              "velocity": 119,
              "position": 10.016667,
              "duration": 0.733333
            },
            {
              "pitch": 31,
              "velocity": 85,
              "position": 10.75,
              "duration": 0.283333
            },
            {
              "pitch": 36,
              "velocity": 87,
              "position": 11.0,
              "duration": 0.475
            },
            {
              "pitch": 31,
              "velocity": 62,
              "position": 11.5,
              "duration": 0.308333
            },
            {
              "pitch": 36,
              "velocity": 111,
              "position": 12.0,
              "duration": 0.45
            },
            {
              "pitch": 36,
              "velocity": 114,
              "position": 12.5,
              "duration": 0.091667
            },
            {
              "pitch": 31,
              "velocity": 111,
              "position": 13.25,
              "duration": 0.258333
            },
            {
              "pitch": 36,
              "velocity": 121,
              "position": 13.508333,
              "duration": 1.741667
            },
            {
              "pitch": 40,
              "velocity": 82,
              "position": 15.25,
              "duration": 0.266667
            },
            {
              "pitch": 43,
              "velocity": 85,
              "position": 15.516667,
              "duration": 0.166667
            },
            {
              "pitch": 36,
              "velocity": 113,
              "position": 15.75,
              "duration": 0.191667
            }
          ]
        },
        "11": {
          "ctab": {
            "srcChannel": 11,
            "name": "Piano",
            "accType": "CHORD1",
            "editable": true,
            "mutedNotes": [],
            "mutedChords": [],
            "sourceChordNote": 0,
            "sourceChordType": "Maj7",
            "ctb2Main": {
              "ntr": "ROOT_FIXED",
              "ntt": "CHORD",
              "bassOn": false,
              "noteLowLimit": 48,
              "noteHighLimit": 84,
              "chordRootUpperLimit": 127,
              "rtr": "NOTE_GENERATOR"
            }
          },
          "notes": [
            {
              "pitch": 59,
              "velocity": 73,
              "position": 0.0,
              "duration": 0.175
            },
            {
              "pitch": 62,
              "velocity": 73,
              "position": 0.0,
              "duration": 0.175
            },
            {
              "pitch": 64,
              "velocity": 73,
              "position": 0.0,
              "duration": 0.175
            },
            {
              "pitch": 67,
              "velocity": 73,
              "position": 0.0,
              "duration": 0.175
            },
            {
              "pitch": 48,
              "velocity": 55,
              "position": 0.033333,
              "duration": 0.466667
            },
            {
              "pitch": 59,
              "velocity": 71,
              "position": 0.5,
              "duration": 0.125
            },
            {
              "pitch": 62,
              "velocity": 71,
              "position": 0.5,
              "duration": 0.125
            },
            {
              "pitch": 64,
              "velocity": 71,
              "position": 0.5,
              "duration": 0.125
            },
            {
              "pitch": 67,
              "velocity": 71,
              "position": 0.5,
              "duration": 0.125
            },
            {
              "pitch": 59,
              "velocity": 64,
              "position": 1.25,
              "duration": 0.125
            },
            {
              "pitch": 62,
              "velocity": 64,
              "position": 1.25,
              "duration": 0.125
            },
            {
              "pitch": 64,
              "velocity": 64,
              "position": 1.25,
              "duration": 0.125
            },
            {
              "pitch": 67,
              "velocity": 64,
              "position": 1.25,
              "duration": 0.125
            },
            {
              "pitch": 36,
              "velocity": 69,
              "position": 2.0,
              "duration": 0.2
            },
            {
              "pitch": 48,
              "velocity": 54,
              "position": 2.0,
              "duration": 0.225
            },
            {
              "pitch": 59,
              "velocity": 75,
              "position": 2.25,
              "duration": 0.108333
            },
            {
              "pitch": 64,
              "velocity": 75,
              "position": 2.25,
              "duration": 0.108333
            },
            {
              "pitch": 67,
              "velocity": 75,
              "position": 2.25,
              "duration": 0.108333
            },
            {
              "pitch": 74,
              "velocity": 75,
              "position": 2.25,
              "duration": 0.108333
            },
            {
              "pitch": 36,
              "velocity": 65,
              "position": 2.75,
              "duration": 0.266667
            },
            {
              "pitch": 48,
              "velocity": 53,
              "position": 2.75,
              "duration": 0.283333
            },
            {
              "pitch": 59,
              "velocity": 78,
              "position": 3.016667,
              "duration": 0.458333
            },
            {
              "pitch": 64,
              "velocity": 78,
              "position": 3.016667,
              "duration": 0.458333
            },
            {
              "pitch": 67,
              "velocity": 78,
              "position": 3.016667,
              "duration": 0.458333
            },
            {
              "pitch": 74,
              "velocity": 78,
              "position": 3.016667,
              "duration": 0.458333
            },
            {
              "pitch": 36,
              "velocity": 65,
              "position": 3.5,
              "duration": 0.125
            },
            {
              "pitch": 48,
              "velocity": 66,
              "position": 3.5,
              "duration": 0.125
            },
            {
              "pitch": 48,
              "velocity": 57,
              "position": 4.008333,
              "duration": 1.95
            },
            {
              "pitch": 59,
              "velocity": 73,
              "position": 4.033333,
              "duration": 1.925
            },
            {
              "pitch": 62,
              "velocity": 73,
              "position": 4.033333,
              "duration": 1.925
            },
            {
              "pitch": 64,
              "velocity": 73,
              "position": 4.033333,
              "duration": 1.925
            },
            {
              "pitch": 67,
              "velocity": 73,
              "position": 4.033333,
              "duration": 1.925
            },
            {
              "pitch": 36,
              "velocity": 69,
              "position": 6.0,
              "duration": 0.2
            },
            {
              "pitch": 48,
              "velocity": 54,
              "position": 6.0,
              "duration": 0.225
            },
            {
              "pitch": 59,
              "velocity": 75,
              "position": 6.25,
              "duration": 0.108333
            },
            {
              "pitch": 64,
              "velocity": 75,
              "position": 6.25,
              "duration": 0.108333
            },
            {
              "pitch": 67,
              "velocity": 75,
              "position": 6.25,
              "duration": 0.108333
            },
            {
              "pitch": 74,
              "velocity": 75,
              "position": 6.25,
              "duration": 0.108333
            },
            {
              "pitch": 36,
              "velocity": 65,
              "position": 6.75,
              "duration": 0.266667
            },
            {
              "pitch": 48,
              "velocity": 53,
              "position": 6.75,
              "duration": 0.283333
            },
            {
              "pitch": 59,
              "velocity": 78,
              "position": 7.016667,
              "duration": 0.458333
            },
            {
              "pitch": 64,
              "velocity": 78,
              "position": 7.016667,
              "duration": 0.458333
            },
            {
              "pitch": 67,
              "velocity": 78,
              "position": 7.016667,
              "duration": 0.458333
            },
            {
              "pitch": 74,
              "velocity": 78,
              "position": 7.016667,
              "duration": 0.458333
            },
            {
              "pitch": 36,
              "velocity": 65,
              "position": 7.5,
              "duration": 0.125
            },
            {
              "pitch": 48,
              "velocity": 66,
              "position": 7.5,
              "duration": 0.125
            },
            {
              "pitch": 59,
              "velocity": 72,
              "position": 8.0,
              "duration": 0.125
            },
            {
              "pitch": 64,
              "velocity": 72,
              "position": 8.0,
              "duration": 0.125
            },
            {
              "pitch": 67,
              "velocity": 72,
              "position": 8.0,
              "duration": 0.125
            },
            {
              "pitch": 74,
              "velocity": 72,
              "position": 8.0,
              "duration": 0.125
            },
            {
              "pitch": 48,
              "velocity": 69,
              "position": 8.033333,
              "duration": 0.466667
            },
            {
              "pitch": 59,
              "velocity": 76,
              "position": 8.5,
              "duration": 0.125
            },
            {
              "pitch": 64,
              "velocity": 76,
              "position": 8.5,
              "duration": 0.125
            },
            {
              "pitch": 67,
              "velocity": 76,
              "position": 8.5,
              "duration": 0.125
            },
            {
              "pitch": 74,
              "velocity": 76,
              "position": 8.5,
              "duration": 0.125
            },
            {
              "pitch": 59,
              "velocity": 79,
              "position": 9.25,
              "duration": 0.1
            },
            {
              "pitch": 64,
              "velocity": 79,
              "position": 9.25,
              "duration": 0.1
            },
            {
              "pitch": 67,
              "velocity": 79,
              "position": 9.25,
              "duration": 0.1
            },
            {
              "pitch": 74,
              "velocity": 79,
              "position": 9.25,
              "duration": 0.1
            },
            {
              "pitch": 36,
              "velocity": 61,
              "position": 9.75,
              "duration": 0.208333
            },
            {
              "pitch": 48,
              "velocity": 63,
              "position": 9.75,
              "duration": 0.191667
            },
            {
              "pitch": 59,
              "velocity": 76,
              "position": 10.25,
              "duration": 0.091667
            },
            {
              "pitch": 64,
              "velocity": 76,
              "position": 10.25,
              "duration": 0.091667
            },
            {
              "pitch": 67,
              "velocity": 76,
              "position": 10.25,
              "duration": 0.091667
            },
            {
              "pitch": 74,
              "velocity": 76,
              "position": 10.25,
              "duration": 0.091667
            },
            {
              "pitch": 36,
              "velocity": 48,
              "position": 10.75,
              "duration": 0.183333
            },
            {
              "pitch": 48,
              "velocity": 56,
              "position": 10.75,
              "duration": 0.183333
            },
            {
              "pitch": 59,
              "velocity": 84,
              "position": 11.0,
              "duration": 0.133333
            },
            {
              "pitch": 64,
              "velocity": 84,
              "position": 11.0,
              "duration": 0.133333
            },
            {
              "pitch": 67,
              "velocity": 84,
              "position": 11.0,
              "duration": 0.133333
            },
            {
              "pitch": 74,
              "velocity": 84,
              "position": 11.0,
              "duration": 0.133333
            },
            {
              "pitch": 36,
              "velocity": 63,
              "position": 11.5,
              "duration": 0.291667
            },
            {
              "pitch": 48,
              "velocity": 59,
              "position": 11.5,
              "duration": 0.525
            },
            {
              "pitch": 48,
              "velocity": 69,
              "position": 12.025,
              "duration": 0.225
            },
            {
              "pitch": 55,
              "velocity": 69,
              "position": 12.25,
              "duration": 0.258333
            },
            {
              "pitch": 60,
              "velocity": 69,
              "position": 12.508333,
              "duration": 1.741667
            },
            {
              "pitch": 59,
              "velocity": 74,
              "position": 14.25,
              "duration": 0.125
            },
            {
              "pitch": 64,
              "velocity": 74,
              "position": 14.25,
              "duration": 0.125
            },
            {
              "pitch": 67,
              "velocity": 74,
              "position": 14.25,
              "duration": 0.125
            },
            {
              "pitch": 74,
              "velocity": 74,
              "position": 14.25,
              "duration": 0.125
            },
            {
              "pitch": 36,
              "velocity": 44,
              "position": 14.75,
              "duration": 0.125
            },
            {
              "pitch": 48,
              "velocity": 54,
              "position": 14.75,
              "duration": 0.125
            },
            {
              "pitch": 59,
              "velocity": 76,
              "position": 15.0,
              "duration": 0.108333
            },
            {
              "pitch": 64,
              "velocity": 76,
              "position": 15.0,
              "duration": 0.108333
            },
            {
              "pitch": 67,
              "velocity": 76,
              "position": 15.0,
              "duration": 0.108333
            },
            {
              "pitch": 74,
              "velocity": 76,
              "position": 15.0,
              "duration": 0.108333
            },
            {
              "pitch": 59,
              "velocity": 56,
              "position": 15.25,
              "duration": 0.116667
            },
            {
              "pitch": 64,
              "velocity": 56,
              "position": 15.25,
              "duration": 0.116667
            },
            {
              "pitch": 67,
              "velocity": 56,
              "position": 15.25,
              "duration": 0.116667
            },
            {
              "pitch": 74,
              "velocity": 56,
              "position": 15.25,
              "duration": 0.116667
            },
            {
              "pitch": 59,
              "velocity": 63,
              "position": 15.75,
              "duration": 0.025
            },
            {
              "pitch": 64,
              "velocity": 63,
              "position": 15.75,
              "duration": 0.025
            },
            {
              "pitch": 67,
              "velocity": 63,
              "position": 15.75,
              "duration": 0.025
            },
            {
              "pitch": 74,
              "velocity": 63,
              "position": 15.75,
              "duration": 0.025
            }
          ]
        },
        "12": {
          "ctab": {
            "srcChannel": 12,
            "name": "Guitar",
            "accType": "CHORD2",
            "editable": true,
            "mutedNotes": [],
            "mutedChords": [],
            "sourceChordNote": 0,
            "sourceChordType": "Maj7",
            "ctb2Main": {
              "ntr": "ROOT_FIXED",
              "ntt": "CHORD",
              "bassOn": false,
              "noteLowLimit": 40,
              "noteHighLimit": 76,
              "chordRootUpperLimit": 127,
              "rtr": "NOTE_GENERATOR"
            }
          },
          "notes": [
            {
              "pitch": 52,
              "velocity": 70,
              "position": 0.0,
              "duration": 1.091667
            },
            {
              "pitch": 55,
              "velocity": 57,
              "position": 0.25,
              "duration": 1.108333
            },
            {
              "pitch": 59,
              "velocity": 63,
              "position": 0.5,
              "duration": 1.016667
            },
            {
              "pitch": 64,
              "velocity": 82,
              "position": 0.75,
              "duration": 1.208333
            },
            {
              "pitch": 52,
              "velocity": 61,
              "position": 1.25,
              "duration": 0.708333
            },
            {
              "pitch": 55,
              "velocity": 57,
              "position": 1.5,
              "duration": 0.458333
            },
            {
              "pitch": 48,
              "velocity": 54,
              "position": 1.966667,
              "duration": 0.308333
            },
            {
              "pitch": 52,
              "velocity": 64,
              "position": 1.983333,
              "duration": 0.291667
            },
            {
              "pitch": 55,
              "velocity": 64,
              "position": 2.0,
              "duration": 0.258333
            },
            {
              "pitch": 59,
              "velocity": 64,
              "position": 2.008333,
              "duration": 0.233333
            },
            {
              "pitch": 64,
              "velocity": 64,
              "position": 2.025,
              "duration": 0.2
            },
            {
              "pitch": 64,
              "velocity": 52,
              "position": 2.241667,
              "duration": 0.258333
            },
            {
              "pitch": 59,
              "velocity": 60,
              "position": 2.258333,
              "duration": 0.225
            },
            {
              "pitch": 55,
              "velocity": 60,
              "position": 2.275,
              "duration": 0.191667
            },
            {
              "pitch": 52,
              "velocity": 52,
              "position": 2.3,
              "duration": 0.15
            },
            {
              "pitch": 52,
              "velocity": 67,
              "position": 2.466667,
              "duration": 0.325
            },
            {
              "pitch": 55,
              "velocity": 67,
              "position": 2.483333,
              "duration": 0.308333
            },
            {
              "pitch": 59,
              "velocity": 67,
              "position": 2.5,
              "duration": 0.291667
            },
            {
              "pitch": 64,
              "velocity": 67,
              "position": 2.525,
              "duration": 0.266667
            },
            {
              "pitch": 64,
              "velocity": 37,
              "position": 3.216667,
              "duration": 0.275
            },
            {
              "pitch": 59,
              "velocity": 43,
              "position": 3.233333,
              "duration": 0.258333
            },
            {
              "pitch": 55,
              "velocity": 43,
              "position": 3.25,
              "duration": 0.216667
            },
            {
              "pitch": 52,
              "velocity": 37,
              "position": 3.275,
              "duration": 0.175
            },
            {
              "pitch": 52,
              "velocity": 49,
              "position": 3.466667,
              "duration": 0.3
            },
            {
              "pitch": 55,
              "velocity": 49,
              "position": 3.483333,
              "duration": 0.283333
            },
            {
              "pitch": 59,
              "velocity": 49,
              "position": 3.5,
              "duration": 0.266667
            },
            {
              "pitch": 64,
              "velocity": 49,
              "position": 3.525,
              "duration": 0.241667
            },
            {
              "pitch": 52,
              "velocity": 68,
              "position": 4.0,
              "duration": 1.066667
            },
            {
              "pitch": 59,
              "velocity": 55,
              "position": 4.5,
              "duration": 0.933333
            },
            {
              "pitch": 64,
              "velocity": 81,
              "position": 4.75,
              "duration": 1.208333
            },
            {
              "pitch": 52,
              "velocity": 56,
              "position": 5.25,
              "duration": 0.666667
            },
            {
              "pitch": 55,
              "velocity": 66,
              "position": 5.525,
              "duration": 0.433333
            },
            {
              "pitch": 52,
              "velocity": 68,
              "position": 6.0,
              "duration": 1.066667
            },
            {
              "pitch": 59,
              "velocity": 55,
              "position": 6.5,
              "duration": 0.933333
            },
            {
              "pitch": 64,
              "velocity": 81,
              "position": 6.75,
              "duration": 1.208333
            },
            {
              "pitch": 52,
              "velocity": 56,
              "position": 7.25,
              "duration": 0.666667
            },
            {
              "pitch": 55,
              "velocity": 66,
              "position": 7.525,
              "duration": 0.433333
            },
            {
              "pitch": 48,
              "velocity": 56,
              "position": 8.0,
              "duration": 1.125
            },
            {
              "pitch": 59,
              "velocity": 62,
              "position": 8.0,
              "duration": 2.558333
            },
            {
              "pitch": 52,
              "velocity": 51,
              "position": 8.5,
              "duration": 0.866667
            },
            {
              "pitch": 55,
              "velocity": 60,
              "position": 8.75,
              "duration": 0.7
            },
            {
              "pitch": 48,
              "velocity": 73,
              "position": 9.25,
              "duration": 0.791667
            },
            {
              "pitch": 52,
              "velocity": 53,
              "position": 9.5,
              "duration": 0.858333
            },
            {
              "pitch": 64,
              "velocity": 67,
              "position": 9.75,
              "duration": 2.616667
            },
            {
              "pitch": 48,
              "velocity": 60,
              "position": 10.25,
              "duration": 0.808333
            },
            {
              "pitch": 52,
              "velocity": 55,
              "position": 10.5,
              "duration": 0.675
            },
            {
              "pitch": 55,
              "velocity": 71,
              "position": 10.75,
              "duration": 0.75
            },
            {
              "pitch": 59,
              "velocity": 56,
              "position": 10.75,
              "duration": 1.833333
            },
            {
              "pitch": 48,
              "velocity": 53,
              "position": 11.25,
              "duration": 0.491667
            },
            {
              "pitch": 52,
              "velocity": 56,
              "position": 11.5,
              "duration": 0.391667
            },
            {
              "pitch": 55,
              "velocity": 69,
              "position": 11.75,
              "duration": 0.5
            },
            {
              "pitch": 48,
              "velocity": 56,
              "position": 12.0,
              "duration": 1.075
            },
            {
              "pitch": 52,
              "velocity": 59,
              "position": 12.25,
              "duration": 1.066667
            },
            {
              "pitch": 55,
              "velocity": 55,
              "position": 12.5,
              "duration": 0.75
            },
            {
              "pitch": 64,
              "velocity": 88,
              "position": 12.75,
              "duration": 2.066667
            },
            {
              "pitch": 48,
              "velocity": 51,
              "position": 13.25,
              "duration": 0.925
            },
            {
              "pitch": 52,
              "velocity": 58,
              "position": 13.5,
              "duration": 0.85
            },
            {
              "pitch": 55,
              "velocity": 69,
              "position": 13.75,
              "duration": 0.75
            },
            {
              "pitch": 48,
              "velocity": 52,
              "position": 14.25,
              "duration": 1.175
            },
            {
              "pitch": 52,
              "velocity": 57,
              "position": 14.5,
              "duration": 0.616667
            },
            {
              "pitch": 55,
              "velocity": 71,
              "position": 14.75,
              "duration": 0.291667
            },
            {
              "pitch": 59,
              "velocity": 81,
              "position": 15.0,
              "duration": 0.958333
            },
            {
              "pitch": 52,
              "velocity": 65,
              "position": 15.25,
              "duration": 0.325
            },
            {
              "pitch": 48,
              "velocity": 71,
              "position": 15.5,
              "duration": 0.466667
            },
            {
              "pitch": 52,
              "velocity": 57,
              "position": 15.75,
              "duration": 0.208333
            }
          ]
        },
        "13": {
          "ctab": {
            "srcChannel": 13,
            "name": "Strings",
            "accType": "PAD",
            "editable": true,
            "mutedNotes": [],
            "mutedChords": [],
            "sourceChordNote": 0,
            "sourceChordType": "Maj7",
            "ctb2Main": {
              "ntr": "ROOT_FIXED",
              "ntt": "MELODY",
              "bassOn": false,
              "noteLowLimit": 36,
              "noteHighLimit": 96,
              "chordRootUpperLimit": 127,
              "rtr": "PITCH_SHIFT"
            }
          },
          "notes": [
            {
              "pitch": 67,
              "velocity": 44,
              "position": 14.25,
              "duration": 1.708333
            }
          ]
        }
      }
    },
    "Main_D": {
      "type": "Main_D",
      "sizeInBeats": 16,
      "channels": {
        "9": {
          "ctab": {
            "srcChannel": 9,
            "name": "Drums",
            "accType": "RHYTHM",
            "editable": false,
            "mutedNotes": [],
            "mutedChords": [],
            "sourceChordNote": 0,
            "sourceChordType": "Maj",
            "ctb2Main": {
              "ntr": "ROOT_FIXED",
              "ntt": "BYPASS",
              "bassOn": false,
              "noteLowLimit": 20,
              "noteHighLimit": 127,
              "chordRootUpperLimit": 127,
              "rtr": "RETRIGGER"
            }
          },
          "notes": [
            {
              "pitch": 35,
              "velocity": 76,
              "position": 0.0,
              "duration": 0.208333
            },
            {
              "pitch": 42,
              "velocity": 58,
              "position": 0.0,
              "duration": 0.208333
            },
            {
              "pitch": 49,
              "velocity": 75,
              "position": 0.0,
              "duration": 0.208333
            },
            {
              "pitch": 63,
              "velocity": 43,
              "position": 0.0,
              "duration": 0.208333
            },
            {
              "pitch": 42,
              "velocity": 16,
              "position": 0.25,
              "duration": 0.208333
            },
            {
              "pitch": 63,
              "velocity": 17,
              "position": 0.25,
              "duration": 0.208333
            },
            {
              "pitch": 42,
              "velocity": 93,
              "position": 0.5,
              "duration": 0.208333
            },
            {
              "pitch": 70,
              "velocity": 56,
              "position": 0.5,
              "duration": 0.208333
            },
            {
              "pitch": 42,
              "velocity": 103,
              "position": 0.75,
              "duration": 0.208333
            },
            {
              "pitch": 62,
              "velocity": 104,
              "position": 0.75,
              "duration": 0.208333
            },
            {
              "pitch": 38,
              "velocity": 112,
              "position": 1.0,
              "duration": 0.208333
            },
            {
              "pitch": 63,
              "velocity": 15,
              "position": 1.0,
              "duration": 0.208333
            },
            {
              "pitch": 42,
              "velocity": 18,
              "position": 1.25,
              "duration": 0.208333
            },
            {
              "pitch": 54,
              "velocity": 19,
              "position": 1.25,
              "duration": 0.208333
            },
            {
              "pitch": 56,
              "velocity": 23,
              "position": 1.25,
              "duration": 0.208333
            },
            {
              "pitch": 63,
              "velocity": 39,
              "position": 1.25,
              "duration": 0.208333
            },
            {
              "pitch": 42,
              "velocity": 69,
              "position": 1.5,
              "duration": 0.208333
            },
            {
              "pitch": 54,
              "velocity": 33,
              "position": 1.5,
              "duration": 0.208333
            },
            {
              "pitch": 56,
              "velocity": 35,
              "position": 1.5,
              "duration": 0.208333
            },
            {
              "pitch": 63,
              "velocity": 28,
              "position": 1.5,
              "duration": 0.208333
            },
            {
              "pitch": 70,
              "velocity": 52,
              "position": 1.5,
              "duration": 0.208333
            },
            {
              "pitch": 35,
              "velocity": 47,
              "position": 1.75,
              "duration": 0.208333
            },
            {
              "pitch": 42,
              "velocity": 56,
              "position": 1.75,
              "duration": 0.208333
            },
            {
              "pitch": 63,
              "velocity": 70,
              "position": 1.75,
              "duration": 0.208333
            },
            {
              "pitch": 69,
              "velocity": 16,
              "position": 1.75,
              "duration": 0.208333
            },
            {
              "pitch": 35,
              "velocity": 87,
              "position": 2.0,
              "duration": 0.208333
            },
            {
              "pitch": 42,
              "velocity": 78,
              "position": 2.0,
              "duration": 0.208333
            },
            {
              "pitch": 69,
              "velocity": 31,
              "position": 2.0,
              "duration": 0.208333
            },
            {
              "pitch": 42,
              "velocity": 18,
              "position": 2.25,
              "duration": 0.208333
            },
            {
              "pitch": 62,
              "velocity": 67,
              "position": 2.25,
              "duration": 0.208333
            },
            {
              "pitch": 42,
              "velocity": 61,
              "position": 2.5,
              "duration": 0.208333
            },
            {
              "pitch": 70,
              "velocity": 62,
              "position": 2.5,
              "duration": 0.208333
            },
            {
              "pitch": 42,
              "velocity": 90,
              "position": 2.75,
              "duration": 0.208333
            },
            {
              "pitch": 63,
              "velocity": 22,
              "position": 2.75,
              "duration": 0.208333
            },
            {
              "pitch": 38,
              "velocity": 98,
              "position": 3.0,
              "duration": 0.208333
            },
            {
              "pitch": 42,
              "velocity": 18,
              "position": 3.25,
              "duration": 0.208333
            },
            {
              "pitch": 63,
              "velocity": 59,
              "position": 3.25,
              "duration": 0.208333
            },
            {
              "pitch": 42,
              "velocity": 93,
              "position": 3.5,
              "duration": 0.208333
            },
            {
              "pitch": 63,
              "velocity": 68,
              "position": 3.5,
              "duration": 0.208333
            },
            {
              "pitch": 70,
              "velocity": 70,
              "position": 3.5,
              "duration": 0.208333
            },
            {
              "pitch": 42,
              "velocity": 78,
              "position": 3.75,
              "duration": 0.208333
            },
            {
              "pitch": 63,
              "velocity": 85,
              "position": 3.75,
              "duration": 0.208333
            },
            {
              "pitch": 70,
              "velocity": 69,
              "position": 3.75,
              "duration": 0.208333
            },
            {
              "pitch": 35,
              "velocity": 75,
              "position": 4.0,
              "duration": 0.208333
            },
            {
              "pitch": 42,
              "velocity": 58,
              "position": 4.0,
              "duration": 0.208333
            },
            {
              "pitch": 63,
              "velocity": 31,
              "position": 4.0,
              "duration": 0.208333
            },
            {
              "pitch": 42,
              "velocity": 27,
              "position": 4.25,
              "duration": 0.208333
            },
            {
              "pitch": 63,
              "velocity": 40,
              "position": 4.25,
              "duration": 0.208333
            },
            {
              "pitch": 42,
              "velocity": 93,
              "position": 4.5,
              "duration": 0.208333
            },
            {
              "pitch": 63,
              "velocity": 50,
              "position": 4.5,
              "duration": 0.208333
            },
            {
              "pitch": 70,
              "velocity": 56,
              "position": 4.5,
              "duration": 0.208333
            },
            {
              "pitch": 42,
              "velocity": 103,
              "position": 4.75,
              "duration": 0.208333
            },
            {
              "pitch": 62,
              "velocity": 83,
              "position": 4.75,
              "duration": 0.208333
            },
            {
              "pitch": 38,
              "velocity": 98,
              "position": 5.0,
              "duration": 0.208333
            },
            {
              "pitch": 63,
              "velocity": 14,
              "position": 5.0,
              "duration": 0.208333
            },
            {
              "pitch": 42,
              "velocity": 27,
              "position": 5.25,
              "duration": 0.208333
            },
            {
              "pitch": 54,
              "velocity": 19,
              "position": 5.25,
              "duration": 0.208333
            },
            {
              "pitch": 56,
              "velocity": 23,
              "position": 5.25,
              "duration": 0.208333
            },
            {
              "pitch": 63,
              "velocity": 22,
              "position": 5.25,
              "duration": 0.208333
            },
            {
              "pitch": 42,
              "velocity": 69,
              "position": 5.5,
              "duration": 0.208333
            },
            {
              "pitch": 54,
              "velocity": 33,
              "position": 5.5,
              "duration": 0.208333
            },
            {
              "pitch": 56,
              "velocity": 35,
              "position": 5.5,
              "duration": 0.208333
            },
            {
              "pitch": 63,
              "velocity": 46,
              "position": 5.5,
              "duration": 0.208333
            },
            {
              "pitch": 70,
              "velocity": 52,
              "position": 5.5,
              "duration": 0.208333
            },
            {
              "pitch": 35,
              "velocity": 67,
              "position": 5.75,
              "duration": 0.208333
            },
            {
              "pitch": 42,
              "velocity": 56,
              "position": 5.75,
              "duration": 0.208333
            },
            {
              "pitch": 63,
              "velocity": 98,
              "position": 5.75,
              "duration": 0.208333
            },
            {
              "pitch": 69,
              "velocity": 18,
              "position": 5.75,
              "duration": 0.208333
            },
            {
              "pitch": 35,
              "velocity": 81,
              "position": 6.0,
              "duration": 0.208333
            },
            {
              "pitch": 42,
              "velocity": 78,
              "position": 6.0,
              "duration": 0.208333
            },
            {
              "pitch": 69,
              "velocity": 39,
              "position": 6.0,
              "duration": 0.208333
            },
            {
              "pitch": 42,
              "velocity": 27,
              "position": 6.25,
              "duration": 0.208333
            },
            {
              "pitch": 42,
              "velocity": 61,
              "position": 6.5,
              "duration": 0.208333
            },
            {
              "pitch": 63,
              "velocity": 20,
              "position": 6.5,
              "duration": 0.208333
            },
            {
              "pitch": 70,
              "velocity": 62,
              "position": 6.5,
              "duration": 0.208333
            },
            {
              "pitch": 42,
              "velocity": 90,
              "position": 6.75,
              "duration": 0.208333
            },
            {
              "pitch": 62,
              "velocity": 85,
              "position": 6.75,
              "duration": 0.208333
            },
            {
              "pitch": 38,
              "velocity": 104,
              "position": 7.0,
              "duration": 0.208333
            },
            {
              "pitch": 63,
              "velocity": 34,
              "position": 7.0,
              "duration": 0.208333
            },
            {
              "pitch": 42,
              "velocity": 27,
              "position": 7.25,
              "duration": 0.208333
            },
            {
              "pitch": 63,
              "velocity": 36,
              "position": 7.25,
              "duration": 0.208333
            },
            {
              "pitch": 42,
              "velocity": 93,
              "position": 7.5,
              "duration": 0.208333
            },
            {
              "pitch": 63,
              "velocity": 91,
              "position": 7.5,
              "duration": 0.208333
            },
            {
              "pitch": 70,
              "velocity": 70,
              "position": 7.5,
              "duration": 0.208333
            },
            {
              "pitch": 42,
              "velocity": 78,
              "position": 7.75,
              "duration": 0.208333
            },
            {
              "pitch": 63,
              "velocity": 47,
              "position": 7.75,
              "duration": 0.208333
            },
            {
              "pitch": 70,
              "velocity": 69,
              "position": 7.75,
              "duration": 0.208333
            },
            {
              "pitch": 35,
              "velocity": 76,
              "position": 8.0,
              "duration": 0.208333
            },
            {
              "pitch": 42,
              "velocity": 46,
              "position": 8.0,
              "duration": 0.208333
            },
            {
              "pitch": 62,
              "velocity": 62,
              "position": 8.0,
              "duration": 0.208333
            },
            {
              "pitch": 42,
              "velocity": 27,
              "position": 8.25,
              "duration": 0.208333
            },
            {
              "pitch": 62,
              "velocity": 27,
              "position": 8.25,
              "duration": 0.208333
            },
            {
              "pitch": 42,
              "velocity": 27,
              "position": 8.5,
              "duration": 0.208333
            },
            {
              "pitch": 63,
              "velocity": 22,
              "position": 8.5,
              "duration": 0.208333
            },
            {
              "pitch": 70,
              "velocity": 56,
              "position": 8.5,
              "duration": 0.208333
            },
            {
              "pitch": 42,
              "velocity": 100,
              "position": 8.75,
              "duration": 0.208333
            },
            {
              "pitch": 62,
              "velocity": 65,
              "position": 8.75,
              "duration": 0.208333
            },
            {
              "pitch": 38,
              "velocity": 98,
              "position": 9.0,
              "duration": 0.208333
            },
            {
              "pitch": 63,
              "velocity": 14,
              "position": 9.0,
              "duration": 0.208333
            },
            {
              "pitch": 42,
              "velocity": 48,
              "position": 9.25,
              "duration": 0.208333
            },
            {
              "pitch": 54,
              "velocity": 19,
              "position": 9.25,
              "duration": 0.208333
            },
            {
              "pitch": 56,
              "velocity": 23,
              "position": 9.25,
              "duration": 0.208333
            },
            {
              "pitch": 62,
              "velocity": 50,
              "position": 9.25,
              "duration": 0.208333
            },
            {
              "pitch": 42,
              "velocity": 27,
              "position": 9.5,
              "duration": 0.208333
            },
            {
              "pitch": 54,
              "velocity": 33,
              "position": 9.5,
              "duration": 0.208333
            },
            {
              "pitch": 56,
              "velocity": 35,
              "position": 9.5,
              "duration": 0.208333
            },
            {
              "pitch": 63,
              "velocity": 46,
              "position": 9.5,
              "duration": 0.208333
            },
            {
              "pitch": 70,
              "velocity": 52,
              "position": 9.5,
              "duration": 0.208333
            },
            {
              "pitch": 35,
              "velocity": 57,
              "position": 9.75,
              "duration": 0.208333
            },
            {
              "pitch": 42,
              "velocity": 112,
              "position": 9.75,
              "duration": 0.208333
            },
            {
              "pitch": 63,
              "velocity": 51,
              "position": 9.75,
              "duration": 0.208333
            },
            {
              "pitch": 69,
              "velocity": 18,
              "position": 9.75,
              "duration": 0.208333
            },
            {
              "pitch": 35,
              "velocity": 75,
              "position": 10.0,
              "duration": 0.208333
            },
            {
              "pitch": 42,
              "velocity": 26,
              "position": 10.0,
              "duration": 0.208333
            },
            {
              "pitch": 69,
              "velocity": 39,
              "position": 10.0,
              "duration": 0.208333
            },
            {
              "pitch": 42,
              "velocity": 22,
              "position": 10.25,
              "duration": 0.208333
            },
            {
              "pitch": 63,
              "velocity": 68,
              "position": 10.25,
              "duration": 0.208333
            },
            {
              "pitch": 42,
              "velocity": 90,
              "position": 10.5,
              "duration": 0.208333
            },
            {
              "pitch": 63,
              "velocity": 20,
              "position": 10.5,
              "duration": 0.208333
            },
            {
              "pitch": 70,
              "velocity": 62,
              "position": 10.5,
              "duration": 0.208333
            },
            {
              "pitch": 42,
              "velocity": 112,
              "position": 10.75,
              "duration": 0.208333
            },
            {
              "pitch": 62,
              "velocity": 85,
              "position": 10.75,
              "duration": 0.208333
            },
            {
              "pitch": 38,
              "velocity": 106,
              "position": 11.0,
              "duration": 0.208333
            },
            {
              "pitch": 63,
              "velocity": 34,
              "position": 11.0,
              "duration": 0.208333
            },
            {
              "pitch": 42,
              "velocity": 43,
              "position": 11.25,
              "duration": 0.208333
            },
            {
              "pitch": 63,
              "velocity": 32,
              "position": 11.25,
              "duration": 0.208333
            },
            {
              "pitch": 46,
              "velocity": 92,
              "position": 11.5,
              "duration": 0.208333
            },
            {
              "pitch": 63,
              "velocity": 52,
              "position": 11.5,
              "duration": 0.208333
            },
            {
              "pitch": 70,
              "velocity": 70,
              "position": 11.5,
              "duration": 0.208333
            },
            {
              "pitch": 63,
              "velocity": 47,
              "position": 11.75,
              "duration": 0.208333
            },
            {
              "pitch": 70,
              "velocity": 69,
              "position": 11.75,
              "duration": 0.208333
            },
            {
              "pitch": 35,
              "velocity": 97,
              "position": 12.0,
              "duration": 0.208333
            },
            {
              "pitch": 42,
              "velocity": 112,
              "position": 12.0,
              "duration": 0.208333
            },
            {
              "pitch": 42,
              "velocity": 56,
              "position": 12.25,
              "duration": 0.208333
            },
            {
              "pitch": 35,
              "velocity": 68,
              "position": 12.5,
              "duration": 0.208333
            },
            {
              "pitch": 42,
              "velocity": 80,
              "position": 12.5,
              "duration": 0.208333
            },
            {
              "pitch": 38,
              "velocity": 112,
              "position": 12.75,
              "duration": 0.208333
            },
            {
              "pitch": 56,
              "velocity": 65,
              "position": 13.0,
              "duration": 0.208333
            },
            {
              "pitch": 38,
              "velocity": 29,
              "position": 13.25,
              "duration": 0.208333
            },
            {
              "pitch": 38,
              "velocity": 112,
              "position": 13.5,
              "duration": 0.208333
            },
            {
              "pitch": 46,
              "velocity": 49,
              "position": 13.5,
              "duration": 0.208333
            },
            {
              "pitch": 45,
              "velocity": 46,
              "position": 13.75,
              "duration": 0.208333
            },
            {
              "pitch": 45,
              "velocity": 76,
              "position": 14.0,
              "duration": 0.208333
            },
            {
              "pitch": 38,
              "velocity": 22,
              "position": 14.25,
              "duration": 0.208333
            },
            {
              "pitch": 38,
              "velocity": 43,
              "position": 14.5,
              "duration": 0.208333
            },
            {
              "pitch": 41,
              "velocity": 61,
              "position": 14.75,
              "duration": 0.208333
            },
            {
              "pitch": 41,
              "velocity": 101,
              "position": 15.0,
              "duration": 0.208333
            },
            {
              "pitch": 56,
              "velocity": 65,
              "position": 15.0,
              "duration": 0.208333
            },
            {
              "pitch": 38,
              "velocity": 12,
              "position": 15.25,
              "duration": 0.208333
            },
            {
              "pitch": 38,
              "velocity": 94,
              "position": 15.5,
              "duration": 0.208333
            },
            {
              "pitch": 41,
              "velocity": 101,
              "position": 15.75,
              "duration": 0.208333
            }
          ]
        },
        "10": {
          "ctab": {
            "srcChannel": 10,
            "name": "Bass",
            "accType": "BASS",
            "editable": true,
            "mutedNotes": [],
            "mutedChords": [],
            "sourceChordNote": 0,
            "sourceChordType": "Maj7",
            "ctb2Main": {
              "ntr": "ROOT_TRANSPOSITION",
              "ntt": "BYPASS",
              "bassOn": true,
              "noteLowLimit": 20,
              "noteHighLimit": 60,
              "chordRootUpperLimit": 127,
              "rtr": "NOTE_GENERATOR"
            }
          },
          "notes": [
            {
              "pitch": 36,
              "velocity": 108,
              "position": 0.0,
              "duration": 1.758333
            },
            {
              "pitch": 33,
              "velocity": 90,
              "position": 1.766667,
              "duration": 0.175
            },
            {
              "pitch": 36,
              "velocity": 99,
              "position": 2.0,
              "duration": 1.925
            },
            {
              "pitch": 36,
              "velocity": 108,
              "position": 4.0,
              "duration": 1.758333
            },
            {
              "pitch": 33,
              "velocity": 90,
              "position": 5.766667,
              "duration": 0.175
            },
            {
              "pitch": 36,
              "velocity": 108,
              "position": 6.0,
              "duration": 1.758333
            },
            {
              "pitch": 31,
              "velocity": 90,
              "position": 7.766667,
              "duration": 0.175
            },
            {
              "pitch": 36,
              "velocity": 105,
              "position": 8.0,
              "duration": 0.45
            },
            {
              "pitch": 36,
              "velocity": 101,
              "position": 8.5,
              "duration": 0.175
            },
            {
              "pitch": 31,
              "velocity": 98,
              "position": 9.783333,
              "duration": 0.2
            },
            {
              "pitch": 36,
              "velocity": 103,
              "position": 9.991667,
              "duration": 1.45
            },
            {
              "pitch": 31,
              "velocity": 81,
              "position": 11.758333,
              "duration": 0.241667
            },
            {
              "pitch": 36,
              "velocity": 101,
              "position": 12.0,
              "duration": 0.716667
            },
            {
              "pitch": 36,
              "velocity": 111,
              "position": 12.766667,
              "duration": 0.191667
            },
            {
              "pitch": 31,
              "velocity": 76,
              "position": 14.75,
              "duration": 0.216667
            },
            {
              "pitch": 43,
              "velocity": 107,
              "position": 15.033333,
              "duration": 0.2
            },
            {
              "pitch": 31,
              "velocity": 107,
              "position": 15.258333,
              "duration": 0.7
            }
          ]
        },
        "11": {
          "ctab": {
            "srcChannel": 11,
            "name": "Piano",
            "accType": "CHORD1",
            "editable": true,
            "mutedNotes": [],
            "mutedChords": [],
            "sourceChordNote": 0,
            "sourceChordType": "Maj7",
            "ctb2Main": {
              "ntr": "ROOT_FIXED",
              "ntt": "CHORD",
              "bassOn": false,
              "noteLowLimit": 48,
              "noteHighLimit": 84,
              "chordRootUpperLimit": 127,
              "rtr": "NOTE_GENERATOR"
            }
          },
          "notes": [
            {
              "pitch": 59,
              "velocity": 73,
              "position": 0.0,
              "duration": 0.175
            },
            {
              "pitch": 64,
              "velocity": 73,
              "position": 0.0,
              "duration": 0.175
            },
            {
              "pitch": 67,
              "velocity": 73,
              "position": 0.0,
              "duration": 0.175
            },
            {
              "pitch": 74,
              "velocity": 73,
              "position": 0.0,
              "duration": 0.175
            },
            {
              "pitch": 48,
              "velocity": 55,
              "position": 0.033333,
              "duration": 0.466667
            },
            {
              "pitch": 59,
              "velocity": 71,
              "position": 0.5,
              "duration": 0.125
            },
            {
              "pitch": 64,
              "velocity": 71,
              "position": 0.5,
              "duration": 0.125
            },
            {
              "pitch": 67,
              "velocity": 71,
              "position": 0.5,
              "duration": 0.125
            },
            {
              "pitch": 74,
              "velocity": 71,
              "position": 0.5,
              "duration": 0.125
            },
            {
              "pitch": 59,
              "velocity": 64,
              "position": 1.25,
              "duration": 0.125
            },
            {
              "pitch": 64,
              "velocity": 64,
              "position": 1.25,
              "duration": 0.125
            },
            {
              "pitch": 67,
              "velocity": 64,
              "position": 1.25,
              "duration": 0.125
            },
            {
              "pitch": 74,
              "velocity": 64,
              "position": 1.25,
              "duration": 0.125
            },
            {
              "pitch": 36,
              "velocity": 69,
              "position": 2.0,
              "duration": 0.2
            },
            {
              "pitch": 48,
              "velocity": 54,
              "position": 2.0,
              "duration": 0.225
            },
            {
              "pitch": 59,
              "velocity": 75,
              "position": 2.25,
              "duration": 0.108333
            },
            {
              "pitch": 64,
              "velocity": 75,
              "position": 2.25,
              "duration": 0.108333
            },
            {
              "pitch": 67,
              "velocity": 75,
              "position": 2.25,
              "duration": 0.108333
            },
            {
              "pitch": 74,
              "velocity": 75,
              "position": 2.25,
              "duration": 0.108333
            },
            {
              "pitch": 36,
              "velocity": 65,
              "position": 2.75,
              "duration": 0.266667
            },
            {
              "pitch": 48,
              "velocity": 53,
              "position": 2.75,
              "duration": 0.283333
            },
            {
              "pitch": 59,
              "velocity": 78,
              "position": 3.016667,
              "duration": 0.458333
            },
            {
              "pitch": 64,
              "velocity": 78,
              "position": 3.016667,
              "duration": 0.458333
            },
            {
              "pitch": 67,
              "velocity": 78,
              "position": 3.016667,
              "duration": 0.458333
            },
            {
              "pitch": 74,
              "velocity": 78,
              "position": 3.016667,
              "duration": 0.458333
            },
            {
              "pitch": 36,
              "velocity": 65,
              "position": 3.5,
              "duration": 0.125
            },
            {
              "pitch": 48,
              "velocity": 66,
              "position": 3.5,
              "duration": 0.125
            },
            {
              "pitch": 48,
              "velocity": 57,
              "position": 4.008333,
              "duration": 1.425
            },
            {
              "pitch": 59,
              "velocity": 73,
              "position": 4.033333,
              "duration": 1.4
            },
            {
              "pitch": 64,
              "velocity": 73,
              "position": 4.033333,
              "duration": 1.4
            },
            {
              "pitch": 67,
              "velocity": 73,
              "position": 4.033333,
              "duration": 1.4
            },
            {
              "pitch": 74,
              "velocity": 73,
              "position": 4.033333,
              "duration": 1.4
            },
            {
              "pitch": 59,
              "velocity": 62,
              "position": 5.516667,
              "duration": 1.225
            },
            {
              "pitch": 60,
              "velocity": 71,
              "position": 5.516667,
              "duration": 1.225
            },
            {
              "pitch": 64,
              "velocity": 75,
              "position": 5.533333,
              "duration": 1.208333
            },
            {
              "pitch": 48,
              "velocity": 62,
              "position": 5.55,
              "duration": 1.191667
            },
            {
              "pitch": 67,
              "velocity": 73,
              "position": 5.55,
              "duration": 0.966667
            },
            {
              "pitch": 67,
              "velocity": 62,
              "position": 6.758333,
              "duration": 0.491667
            },
            {
              "pitch": 71,
              "velocity": 62,
              "position": 7.0,
              "duration": 0.933333
            },
            {
              "pitch": 67,
              "velocity": 62,
              "position": 7.25,
              "duration": 0.491667
            },
            {
              "pitch": 60,
              "velocity": 62,
              "position": 7.5,
              "duration": 0.425
            },
            {
              "pitch": 59,
              "velocity": 78,
              "position": 8.025,
              "duration": 0.108333
            },
            {
              "pitch": 64,
              "velocity": 78,
              "position": 8.025,
              "duration": 0.108333
            },
            {
              "pitch": 67,
              "velocity": 78,
              "position": 8.025,
              "duration": 0.108333
            },
            {
              "pitch": 74,
              "velocity": 78,
              "position": 8.025,
              "duration": 0.108333
            },
            {
              "pitch": 59,
              "velocity": 60,
              "position": 8.25,
              "duration": 0.125
            },
            {
              "pitch": 64,
              "velocity": 60,
              "position": 8.25,
              "duration": 0.125
            },
            {
              "pitch": 67,
              "velocity": 60,
              "position": 8.25,
              "duration": 0.125
            },
            {
              "pitch": 74,
              "velocity": 60,
              "position": 8.25,
              "duration": 0.125
            },
            {
              "pitch": 59,
              "velocity": 76,
              "position": 9.258333,
              "duration": 0.091667
            },
            {
              "pitch": 64,
              "velocity": 76,
              "position": 9.258333,
              "duration": 0.091667
            },
            {
              "pitch": 67,
              "velocity": 76,
              "position": 9.258333,
              "duration": 0.091667
            },
            {
              "pitch": 74,
              "velocity": 76,
              "position": 9.258333,
              "duration": 0.091667
            },
            {
              "pitch": 36,
              "velocity": 73,
              "position": 9.758333,
              "duration": 0.233333
            },
            {
              "pitch": 48,
              "velocity": 67,
              "position": 9.758333,
              "duration": 0.233333
            },
            {
              "pitch": 59,
              "velocity": 67,
              "position": 10.291667,
              "duration": 0.1
            },
            {
              "pitch": 64,
              "velocity": 67,
              "position": 10.291667,
              "duration": 0.1
            },
            {
              "pitch": 67,
              "velocity": 67,
              "position": 10.291667,
              "duration": 0.1
            },
            {
              "pitch": 74,
              "velocity": 67,
              "position": 10.291667,
              "duration": 0.1
            },
            {
              "pitch": 36,
              "velocity": 67,
              "position": 10.758333,
              "duration": 0.116667
            },
            {
              "pitch": 48,
              "velocity": 65,
              "position": 10.758333,
              "duration": 0.075
            },
            {
              "pitch": 59,
              "velocity": 65,
              "position": 11.041667,
              "duration": 0.233333
            },
            {
              "pitch": 64,
              "velocity": 65,
              "position": 11.041667,
              "duration": 0.233333
            },
            {
              "pitch": 67,
              "velocity": 65,
              "position": 11.041667,
              "duration": 0.233333
            },
            {
              "pitch": 74,
              "velocity": 65,
              "position": 11.041667,
              "duration": 0.233333
            },
            {
              "pitch": 59,
              "velocity": 76,
              "position": 11.508333,
              "duration": 0.158333
            },
            {
              "pitch": 64,
              "velocity": 76,
              "position": 11.508333,
              "duration": 0.158333
            },
            {
              "pitch": 67,
              "velocity": 76,
              "position": 11.508333,
              "duration": 0.158333
            },
            {
              "pitch": 74,
              "velocity": 76,
              "position": 11.508333,
              "duration": 0.158333
            },
            {
              "pitch": 59,
              "velocity": 70,
              "position": 12.025,
              "duration": 0.733333
            },
            {
              "pitch": 62,
              "velocity": 70,
              "position": 12.025,
              "duration": 0.733333
            },
            {
              "pitch": 64,
              "velocity": 70,
              "position": 12.025,
              "duration": 1.475
            },
            {
              "pitch": 67,
              "velocity": 70,
              "position": 12.025,
              "duration": 0.733333
            },
            {
              "pitch": 59,
              "velocity": 70,
              "position": 12.758333,
              "duration": 0.008333
            },
            {
              "pitch": 62,
              "velocity": 70,
              "position": 12.758333,
              "duration": 0.008333
            },
            {
              "pitch": 67,
              "velocity": 70,
              "position": 12.758333,
              "duration": 0.008333
            },
            {
              "pitch": 59,
              "velocity": 70,
              "position": 13.5,
              "duration": 0.216667
            },
            {
              "pitch": 62,
              "velocity": 70,
              "position": 13.5,
              "duration": 0.216667
            },
            {
              "pitch": 64,
              "velocity": 70,
              "position": 13.5,
              "duration": 0.216667
            },
            {
              "pitch": 67,
              "velocity": 70,
              "position": 13.5,
              "duration": 0.216667
            },
            {
              "pitch": 48,
              "velocity": 46,
              "position": 14.783333,
              "duration": 0.133333
            },
            {
              "pitch": 36,
              "velocity": 44,
              "position": 14.8,
              "duration": 0.158333
            },
            {
              "pitch": 59,
              "velocity": 46,
              "position": 15.291667,
              "duration": 0.516667
            },
            {
              "pitch": 64,
              "velocity": 46,
              "position": 15.291667,
              "duration": 0.516667
            },
            {
              "pitch": 67,
              "velocity": 46,
              "position": 15.291667,
              "duration": 0.516667
            },
            {
              "pitch": 74,
              "velocity": 46,
              "position": 15.291667,
              "duration": 0.516667
            }
          ]
        },
        "12": {
          "ctab": {
            "srcChannel": 12,
            "name": "Guitar",
            "accType": "CHORD2",
            "editable": true,
            "mutedNotes": [],
            "mutedChords": [],
            "sourceChordNote": 0,
            "sourceChordType": "Maj7",
            "ctb2Main": {
              "ntr": "ROOT_FIXED",
              "ntt": "CHORD",
              "bassOn": false,
              "noteLowLimit": 40,
              "noteHighLimit": 76,
              "chordRootUpperLimit": 127,
              "rtr": "NOTE_GENERATOR"
            }
          },
          "notes": [
            {
              "pitch": 52,
              "velocity": 68,
              "position": 0.0,
              "duration": 1.066667
            },
            {
              "pitch": 59,
              "velocity": 55,
              "position": 0.5,
              "duration": 0.933333
            },
            {
              "pitch": 64,
              "velocity": 81,
              "position": 0.75,
              "duration": 1.208333
            },
            {
              "pitch": 52,
              "velocity": 56,
              "position": 1.25,
              "duration": 0.666667
            },
            {
              "pitch": 55,
              "velocity": 66,
              "position": 1.525,
              "duration": 0.433333
            },
            {
              "pitch": 48,
              "velocity": 58,
              "position": 2.0,
              "duration": 1.125
            },
            {
              "pitch": 59,
              "velocity": 64,
              "position": 2.0,
              "duration": 1.958333
            },
            {
              "pitch": 52,
              "velocity": 53,
              "position": 2.5,
              "duration": 0.866667
            },
            {
              "pitch": 55,
              "velocity": 62,
              "position": 2.75,
              "duration": 0.7
            },
            {
              "pitch": 48,
              "velocity": 74,
              "position": 3.25,
              "duration": 0.708333
            },
            {
              "pitch": 52,
              "velocity": 55,
              "position": 3.5,
              "duration": 0.458333
            },
            {
              "pitch": 48,
              "velocity": 54,
              "position": 3.966667,
              "duration": 0.308333
            },
            {
              "pitch": 52,
              "velocity": 64,
              "position": 3.983333,
              "duration": 0.291667
            },
            {
              "pitch": 55,
              "velocity": 64,
              "position": 4.0,
              "duration": 0.258333
            },
            {
              "pitch": 59,
              "velocity": 64,
              "position": 4.008333,
              "duration": 0.233333
            },
            {
              "pitch": 64,
              "velocity": 64,
              "position": 4.025,
              "duration": 0.2
            },
            {
              "pitch": 64,
              "velocity": 52,
              "position": 4.241667,
              "duration": 0.258333
            },
            {
              "pitch": 59,
              "velocity": 60,
              "position": 4.258333,
              "duration": 0.225
            },
            {
              "pitch": 55,
              "velocity": 60,
              "position": 4.275,
              "duration": 0.191667
            },
            {
              "pitch": 52,
              "velocity": 52,
              "position": 4.3,
              "duration": 0.15
            },
            {
              "pitch": 52,
              "velocity": 67,
              "position": 4.466667,
              "duration": 0.325
            },
            {
              "pitch": 55,
              "velocity": 67,
              "position": 4.483333,
              "duration": 0.308333
            },
            {
              "pitch": 59,
              "velocity": 67,
              "position": 4.5,
              "duration": 0.291667
            },
            {
              "pitch": 64,
              "velocity": 67,
              "position": 4.525,
              "duration": 0.266667
            },
            {
              "pitch": 64,
              "velocity": 37,
              "position": 5.216667,
              "duration": 0.275
            },
            {
              "pitch": 59,
              "velocity": 43,
              "position": 5.233333,
              "duration": 0.258333
            },
            {
              "pitch": 55,
              "velocity": 43,
              "position": 5.25,
              "duration": 0.216667
            },
            {
              "pitch": 52,
              "velocity": 37,
              "position": 5.275,
              "duration": 0.175
            },
            {
              "pitch": 52,
              "velocity": 49,
              "position": 5.466667,
              "duration": 0.3
            },
            {
              "pitch": 55,
              "velocity": 49,
              "position": 5.483333,
              "duration": 0.283333
            },
            {
              "pitch": 59,
              "velocity": 49,
              "position": 5.5,
              "duration": 0.266667
            },
            {
              "pitch": 64,
              "velocity": 49,
              "position": 5.525,
              "duration": 0.241667
            },
            {
              "pitch": 48,
              "velocity": 58,
              "position": 6.0,
              "duration": 1.125
            },
            {
              "pitch": 59,
              "velocity": 64,
              "position": 6.0,
              "duration": 1.958333
            },
            {
              "pitch": 52,
              "velocity": 53,
              "position": 6.5,
              "duration": 0.866667
            },
            {
              "pitch": 55,
              "velocity": 62,
              "position": 6.75,
              "duration": 0.7
            },
            {
              "pitch": 48,
              "velocity": 74,
              "position": 7.25,
              "duration": 0.708333
            },
            {
              "pitch": 52,
              "velocity": 55,
              "position": 7.5,
              "duration": 0.458333
            },
            {
              "pitch": 52,
              "velocity": 71,
              "position": 8.0,
              "duration": 1.066667
            },
            {
              "pitch": 59,
              "velocity": 58,
              "position": 8.5,
              "duration": 0.933333
            },
            {
              "pitch": 64,
              "velocity": 84,
              "position": 8.75,
              "duration": 1.808333
            },
            {
              "pitch": 52,
              "velocity": 59,
              "position": 9.25,
              "duration": 0.666667
            },
            {
              "pitch": 55,
              "velocity": 69,
              "position": 9.525,
              "duration": 0.908333
            },
            {
              "pitch": 59,
              "velocity": 77,
              "position": 9.75,
              "duration": 0.5
            },
            {
              "pitch": 52,
              "velocity": 55,
              "position": 10.25,
              "duration": 1.325
            },
            {
              "pitch": 55,
              "velocity": 57,
              "position": 10.5,
              "duration": 0.275
            },
            {
              "pitch": 64,
              "velocity": 84,
              "position": 10.775,
              "duration": 1.108333
            },
            {
              "pitch": 55,
              "velocity": 69,
              "position": 11.25,
              "duration": 0.25
            },
            {
              "pitch": 59,
              "velocity": 59,
              "position": 11.5,
              "duration": 0.5
            },
            {
              "pitch": 55,
              "velocity": 73,
              "position": 11.75,
              "duration": 0.141667
            },
            {
              "pitch": 52,
              "velocity": 69,
              "position": 12.0,
              "duration": 1.066667
            },
            {
              "pitch": 55,
              "velocity": 50,
              "position": 12.25,
              "duration": 0.991667
            },
            {
              "pitch": 59,
              "velocity": 71,
              "position": 12.5,
              "duration": 1.066667
            },
            {
              "pitch": 64,
              "velocity": 72,
              "position": 12.75,
              "duration": 1.891667
            },
            {
              "pitch": 52,
              "velocity": 57,
              "position": 13.25,
              "duration": 0.816667
            },
            {
              "pitch": 55,
              "velocity": 48,
              "position": 13.5,
              "duration": 0.741667
            },
            {
              "pitch": 59,
              "velocity": 84,
              "position": 13.75,
              "duration": 0.541667
            },
            {
              "pitch": 52,
              "velocity": 58,
              "position": 14.25,
              "duration": 1.225
            },
            {
              "pitch": 55,
              "velocity": 50,
              "position": 14.5,
              "duration": 0.233333
            },
            {
              "pitch": 59,
              "velocity": 79,
              "position": 14.75,
              "duration": 0.25
            },
            {
              "pitch": 64,
              "velocity": 77,
              "position": 15.0,
              "duration": 0.958333
            },
            {
              "pitch": 59,
              "velocity": 56,
              "position": 15.25,
              "duration": 0.708333
            },
            {
              "pitch": 55,
              "velocity": 45,
              "position": 15.5,
              "duration": 0.458333
            },
            {
              "pitch": 48,
              "velocity": 54,
              "position": 15.966667,
              "duration": 0.308333
            },
            {
              "pitch": 52,
              "velocity": 64,
              "position": 15.983333,
              "duration": 0.291667
            }
          ]
        },
        "13": {
          "ctab": {
            "srcChannel": 13,
            "name": "Strings",
            "accType": "PAD",
            "editable": true,
            "mutedNotes": [],
            "mutedChords": [],
            "sourceChordNote": 0,
            "sourceChordType": "Maj7",
            "ctb2Main": {
              "ntr": "ROOT_FIXED",
              "ntt": "MELODY",
              "bassOn": false,
              "noteLowLimit": 36,
              "noteHighLimit": 96,
              "chordRootUpperLimit": 127,
              "rtr": "PITCH_SHIFT"
            }
          },
          "notes": [
            {
              "pitch": 67,
              "velocity": 32,
              "position": 14.25,
              "duration": 1.708333
            }
          ]
        }
      }
    },
    "Fill_In_AA": {
      "type": "Fill_In_AA",
      "sizeInBeats": 16,
      "channels": {
        "9": {
          "ctab": {
            "srcChannel": 9,
            "name": "Drums",
            "accType": "RHYTHM",
            "editable": false,
            "mutedNotes": [],
            "mutedChords": [],
            "sourceChordNote": 0,
            "sourceChordType": "Maj",
            "ctb2Main": {
              "ntr": "ROOT_FIXED",
              "ntt": "BYPASS",
              "bassOn": false,
              "noteLowLimit": 20,
              "noteHighLimit": 127,
              "chordRootUpperLimit": 127,
              "rtr": "RETRIGGER"
            }
          },
          "notes": [
            {
              "pitch": 35,
              "velocity": 76,
              "position": 0.0,
              "duration": 0.208333
            },
            {
              "pitch": 42,
              "velocity": 58,
              "position": 0.0,
              "duration": 0.208333
            },
            {
              "pitch": 49,
              "velocity": 75,
              "position": 0.0,
              "duration": 0.208333
            },
            {
              "pitch": 63,
              "velocity": 43,
              "position": 0.0,
              "duration": 0.208333
            },
            {
              "pitch": 42,
              "velocity": 16,
              "position": 0.25,
              "duration": 0.208333
            },
            {
              "pitch": 63,
              "velocity": 17,
              "position": 0.25,
              "duration": 0.208333
            },
            {
              "pitch": 42,
              "velocity": 93,
              "position": 0.5,
              "duration": 0.208333
            },
            {
              "pitch": 70,
              "velocity": 56,
              "position": 0.5,
              "duration": 0.208333
            },
            {
              "pitch": 42,
              "velocity": 103,
              "position": 0.75,
              "duration": 0.208333
            },
            {
              "pitch": 62,
              "velocity": 104,
              "position": 0.75,
              "duration": 0.208333
            },
            {
              "pitch": 38,
              "velocity": 112,
              "position": 1.0,
              "duration": 0.208333
            },
            {
              "pitch": 63,
              "velocity": 15,
              "position": 1.0,
              "duration": 0.208333
            },
            {
              "pitch": 42,
              "velocity": 18,
              "position": 1.25,
              "duration": 0.208333
            },
            {
              "pitch": 54,
              "velocity": 19,
              "position": 1.25,
              "duration": 0.208333
            },
            {
              "pitch": 56,
              "velocity": 23,
              "position": 1.25,
              "duration": 0.208333
            },
            {
              "pitch": 63,
              "velocity": 39,
              "position": 1.25,
              "duration": 0.208333
            },
            {
              "pitch": 42,
              "velocity": 69,
              "position": 1.5,
              "duration": 0.208333
            },
            {
              "pitch": 54,
              "velocity": 33,
              "position": 1.5,
              "duration": 0.208333
            },
            {
              "pitch": 56,
              "velocity": 35,
              "position": 1.5,
              "duration": 0.208333
            },
            {
              "pitch": 63,
              "velocity": 28,
              "position": 1.5,
              "duration": 0.208333
            },
            {
              "pitch": 70,
              "velocity": 52,
              "position": 1.5,
              "duration": 0.208333
            },
            {
              "pitch": 35,
              "velocity": 47,
              "position": 1.75,
              "duration": 0.208333
            },
            {
              "pitch": 42,
              "velocity": 56,
              "position": 1.75,
              "duration": 0.208333
            },
            {
              "pitch": 63,
              "velocity": 70,
              "position": 1.75,
              "duration": 0.208333
            },
            {
              "pitch": 69,
              "velocity": 16,
              "position": 1.75,
              "duration": 0.208333
            },
            {
              "pitch": 35,
              "velocity": 87,
              "position": 2.0,
              "duration": 0.208333
            },
            {
              "pitch": 42,
              "velocity": 78,
              "position": 2.0,
              "duration": 0.208333
            },
            {
              "pitch": 69,
              "velocity": 31,
              "position": 2.0,
              "duration": 0.208333
            },
            {
              "pitch": 42,
              "velocity": 18,
              "position": 2.25,
              "duration": 0.208333
            },
            {
              "pitch": 62,
              "velocity": 67,
              "position": 2.25,
              "duration": 0.208333
            },
            {
              "pitch": 42,
              "velocity": 61,
              "position": 2.5,
              "duration": 0.208333
            },
            {
              "pitch": 70,
              "velocity": 62,
              "position": 2.5,
              "duration": 0.208333
            },
            {
              "pitch": 42,
              "velocity": 90,
              "position": 2.75,
              "duration": 0.208333
            },
            {
              "pitch": 63,
              "velocity": 22,
              "position": 2.75,
              "duration": 0.208333
            },
            {
              "pitch": 38,
              "velocity": 98,
              "position": 3.0,
              "duration": 0.208333
            },
            {
              "pitch": 42,
              "velocity": 18,
              "position": 3.25,
              "duration": 0.208333
            },
            {
              "pitch": 63,
              "velocity": 59,
              "position": 3.25,
              "duration": 0.208333
            },
            {
              "pitch": 42,
              "velocity": 93,
              "position": 3.5,
              "duration": 0.208333
            },
            {
              "pitch": 63,
              "velocity": 68,
              "position": 3.5,
              "duration": 0.208333
            },
            {
              "pitch": 70,
              "velocity": 70,
              "position": 3.5,
              "duration": 0.208333
            },
            {
              "pitch": 42,
              "velocity": 78,
              "position": 3.75,
              "duration": 0.208333
            },
            {
              "pitch": 63,
              "velocity": 85,
              "position": 3.75,
              "duration": 0.208333
            },
            {
              "pitch": 70,
              "velocity": 69,
              "position": 3.75,
              "duration": 0.208333
            },
            {
              "pitch": 35,
              "velocity": 75,
              "position": 4.0,
              "duration": 0.208333
            },
            {
              "pitch": 42,
              "velocity": 58,
              "position": 4.0,
              "duration": 0.208333
            },
            {
              "pitch": 56,
              "velocity": 67,
              "position": 4.0,
              "duration": 0.208333
            },
            {
              "pitch": 62,
              "velocity": 80,
              "position": 4.0,
              "duration": 0.208333
            },
            {
              "pitch": 42,
              "velocity": 26,
              "position": 4.25,
              "duration": 0.208333
            },
            {
              "pitch": 63,
              "velocity": 40,
              "position": 4.25,
              "duration": 0.208333
            },
            {
              "pitch": 42,
              "velocity": 93,
              "position": 4.5,
              "duration": 0.208333
            },
            {
              "pitch": 56,
              "velocity": 71,
              "position": 4.5,
              "duration": 0.208333
            },
            {
              "pitch": 62,
              "velocity": 32,
              "position": 4.5,
              "duration": 0.208333
            },
            {
              "pitch": 70,
              "velocity": 56,
              "position": 4.5,
              "duration": 0.208333
            },
            {
              "pitch": 42,
              "velocity": 103,
              "position": 4.75,
              "duration": 0.208333
            },
            {
              "pitch": 62,
              "velocity": 67,
              "position": 4.75,
              "duration": 0.208333
            },
            {
              "pitch": 38,
              "velocity": 98,
              "position": 5.0,
              "duration": 0.208333
            },
            {
              "pitch": 63,
              "velocity": 14,
              "position": 5.0,
              "duration": 0.208333
            },
            {
              "pitch": 42,
              "velocity": 26,
              "position": 5.25,
              "duration": 0.208333
            },
            {
              "pitch": 54,
              "velocity": 19,
              "position": 5.25,
              "duration": 0.208333
            },
            {
              "pitch": 56,
              "velocity": 58,
              "position": 5.25,
              "duration": 0.208333
            },
            {
              "pitch": 63,
              "velocity": 22,
              "position": 5.25,
              "duration": 0.208333
            },
            {
              "pitch": 69,
              "velocity": 23,
              "position": 5.25,
              "duration": 0.208333
            },
            {
              "pitch": 42,
              "velocity": 69,
              "position": 5.5,
              "duration": 0.208333
            },
            {
              "pitch": 54,
              "velocity": 33,
              "position": 5.5,
              "duration": 0.208333
            },
            {
              "pitch": 63,
              "velocity": 46,
              "position": 5.5,
              "duration": 0.208333
            },
            {
              "pitch": 69,
              "velocity": 53,
              "position": 5.5,
              "duration": 0.208333
            },
            {
              "pitch": 70,
              "velocity": 52,
              "position": 5.5,
              "duration": 0.208333
            },
            {
              "pitch": 35,
              "velocity": 67,
              "position": 5.75,
              "duration": 0.208333
            },
            {
              "pitch": 42,
              "velocity": 56,
              "position": 5.75,
              "duration": 0.208333
            },
            {
              "pitch": 56,
              "velocity": 57,
              "position": 5.75,
              "duration": 0.208333
            },
            {
              "pitch": 63,
              "velocity": 98,
              "position": 5.75,
              "duration": 0.208333
            },
            {
              "pitch": 69,
              "velocity": 18,
              "position": 5.75,
              "duration": 0.208333
            },
            {
              "pitch": 35,
              "velocity": 81,
              "position": 6.0,
              "duration": 0.208333
            },
            {
              "pitch": 42,
              "velocity": 78,
              "position": 6.0,
              "duration": 0.208333
            },
            {
              "pitch": 69,
              "velocity": 39,
              "position": 6.0,
              "duration": 0.208333
            },
            {
              "pitch": 42,
              "velocity": 26,
              "position": 6.25,
              "duration": 0.208333
            },
            {
              "pitch": 42,
              "velocity": 112,
              "position": 6.5,
              "duration": 0.208333
            },
            {
              "pitch": 63,
              "velocity": 20,
              "position": 6.5,
              "duration": 0.208333
            },
            {
              "pitch": 70,
              "velocity": 62,
              "position": 6.5,
              "duration": 0.208333
            },
            {
              "pitch": 42,
              "velocity": 90,
              "position": 6.75,
              "duration": 0.208333
            },
            {
              "pitch": 56,
              "velocity": 58,
              "position": 6.75,
              "duration": 0.208333
            },
            {
              "pitch": 62,
              "velocity": 85,
              "position": 6.75,
              "duration": 0.208333
            },
            {
              "pitch": 38,
              "velocity": 104,
              "position": 7.0,
              "duration": 0.208333
            },
            {
              "pitch": 63,
              "velocity": 34,
              "position": 7.0,
              "duration": 0.208333
            },
            {
              "pitch": 42,
              "velocity": 26,
              "position": 7.25,
              "duration": 0.208333
            },
            {
              "pitch": 63,
              "velocity": 36,
              "position": 7.25,
              "duration": 0.208333
            },
            {
              "pitch": 42,
              "velocity": 93,
              "position": 7.5,
              "duration": 0.208333
            },
            {
              "pitch": 56,
              "velocity": 51,
              "position": 7.5,
              "duration": 0.208333
            },
            {
              "pitch": 63,
              "velocity": 91,
              "position": 7.5,
              "duration": 0.208333
            },
            {
              "pitch": 70,
              "velocity": 70,
              "position": 7.5,
              "duration": 0.208333
            },
            {
              "pitch": 42,
              "velocity": 78,
              "position": 7.75,
              "duration": 0.208333
            },
            {
              "pitch": 63,
              "velocity": 47,
              "position": 7.75,
              "duration": 0.208333
            },
            {
              "pitch": 70,
              "velocity": 69,
              "position": 7.75,
              "duration": 0.208333
            },
            {
              "pitch": 35,
              "velocity": 76,
              "position": 8.0,
              "duration": 0.208333
            },
            {
              "pitch": 42,
              "velocity": 46,
              "position": 8.0,
              "duration": 0.208333
            },
            {
              "pitch": 62,
              "velocity": 62,
              "position": 8.0,
              "duration": 0.208333
            },
            {
              "pitch": 42,
              "velocity": 27,
              "position": 8.25,
              "duration": 0.208333
            },
            {
              "pitch": 62,
              "velocity": 27,
              "position": 8.25,
              "duration": 0.208333
            },
            {
              "pitch": 42,
              "velocity": 27,
              "position": 8.5,
              "duration": 0.208333
            },
            {
              "pitch": 63,
              "velocity": 22,
              "position": 8.5,
              "duration": 0.208333
            },
            {
              "pitch": 70,
              "velocity": 56,
              "position": 8.5,
              "duration": 0.208333
            },
            {
              "pitch": 42,
              "velocity": 100,
              "position": 8.75,
              "duration": 0.208333
            },
            {
              "pitch": 62,
              "velocity": 65,
              "position": 8.75,
              "duration": 0.208333
            },
            {
              "pitch": 38,
              "velocity": 98,
              "position": 9.0,
              "duration": 0.208333
            },
            {
              "pitch": 63,
              "velocity": 14,
              "position": 9.0,
              "duration": 0.208333
            },
            {
              "pitch": 42,
              "velocity": 48,
              "position": 9.25,
              "duration": 0.208333
            },
            {
              "pitch": 54,
              "velocity": 19,
              "position": 9.25,
              "duration": 0.208333
            },
            {
              "pitch": 56,
              "velocity": 23,
              "position": 9.25,
              "duration": 0.208333
            },
            {
              "pitch": 62,
              "velocity": 50,
              "position": 9.25,
              "duration": 0.208333
            },
            {
              "pitch": 42,
              "velocity": 27,
              "position": 9.5,
              "duration": 0.208333
            },
            {
              "pitch": 54,
              "velocity": 33,
              "position": 9.5,
              "duration": 0.208333
            },
            {
              "pitch": 56,
              "velocity": 35,
              "position": 9.5,
              "duration": 0.208333
            },
            {
              "pitch": 63,
              "velocity": 46,
              "position": 9.5,
              "duration": 0.208333
            },
            {
              "pitch": 70,
              "velocity": 52,
              "position": 9.5,
              "duration": 0.208333
            },
            {
              "pitch": 35,
              "velocity": 57,
              "position": 9.75,
              "duration": 0.208333
            },
            {
              "pitch": 42,
              "velocity": 112,
              "position": 9.75,
              "duration": 0.208333
            },
            {
              "pitch": 63,
              "velocity": 51,
              "position": 9.75,
              "duration": 0.208333
            },
            {
              "pitch": 69,
              "velocity": 18,
              "position": 9.75,
              "duration": 0.208333
            },
            {
              "pitch": 35,
              "velocity": 75,
              "position": 10.0,
              "duration": 0.208333
            },
            {
              "pitch": 42,
              "velocity": 26,
              "position": 10.0,
              "duration": 0.208333
            },
            {
              "pitch": 69,
              "velocity": 39,
              "position": 10.0,
              "duration": 0.208333
            },
            {
              "pitch": 42,
              "velocity": 22,
              "position": 10.25,
              "duration": 0.208333
            },
            {
              "pitch": 63,
              "velocity": 68,
              "position": 10.25,
              "duration": 0.208333
            },
            {
              "pitch": 42,
              "velocity": 90,
              "position": 10.5,
              "duration": 0.208333
            },
            {
              "pitch": 63,
              "velocity": 20,
              "position": 10.5,
              "duration": 0.208333
            },
            {
              "pitch": 70,
              "velocity": 62,
              "position": 10.5,
              "duration": 0.208333
            },
            {
              "pitch": 42,
              "velocity": 112,
              "position": 10.75,
              "duration": 0.208333
            },
            {
              "pitch": 62,
              "velocity": 85,
              "position": 10.75,
              "duration": 0.208333
            },
            {
              "pitch": 38,
              "velocity": 106,
              "position": 11.0,
              "duration": 0.208333
            },
            {
              "pitch": 63,
              "velocity": 34,
              "position": 11.0,
              "duration": 0.208333
            },
            {
              "pitch": 42,
              "velocity": 43,
              "position": 11.25,
              "duration": 0.208333
            },
            {
              "pitch": 63,
              "velocity": 32,
              "position": 11.25,
              "duration": 0.208333
            },
            {
              "pitch": 46,
              "velocity": 92,
              "position": 11.5,
              "duration": 0.208333
            },
            {
              "pitch": 63,
              "velocity": 52,
              "position": 11.5,
              "duration": 0.208333
            },
            {
              "pitch": 70,
              "velocity": 70,
              "position": 11.5,
              "duration": 0.208333
            },
            {
              "pitch": 63,
              "velocity": 47,
              "position": 11.75,
              "duration": 0.208333
            },
            {
              "pitch": 70,
              "velocity": 69,
              "position": 11.75,
              "duration": 0.208333
            },
            {
              "pitch": 35,
              "velocity": 76,
              "position": 12.0,
              "duration": 0.208333
            },
            {
              "pitch": 42,
              "velocity": 58,
              "position": 12.0,
              "duration": 0.208333
            },
            {
              "pitch": 42,
              "velocity": 16,
              "position": 12.25,
              "duration": 0.208333
            },
            {
              "pitch": 42,
              "velocity": 93,
              "position": 12.5,
              "duration": 0.208333
            },
            {
              "pitch": 69,
              "velocity": 12,
              "position": 12.5,
              "duration": 0.208333
            },
            {
              "pitch": 42,
              "velocity": 103,
              "position": 12.75,
              "duration": 0.208333
            },
            {
              "pitch": 62,
              "velocity": 37,
              "position": 12.75,
              "duration": 0.208333
            },
            {
              "pitch": 38,
              "velocity": 97,
              "position": 13.0,
              "duration": 0.208333
            },
            {
              "pitch": 56,
              "velocity": 65,
              "position": 13.0,
              "duration": 0.208333
            },
            {
              "pitch": 42,
              "velocity": 18,
              "position": 13.25,
              "duration": 0.208333
            },
            {
              "pitch": 42,
              "velocity": 69,
              "position": 13.5,
              "duration": 0.208333
            },
            {
              "pitch": 62,
              "velocity": 41,
              "position": 13.5,
              "duration": 0.208333
            },
            {
              "pitch": 69,
              "velocity": 25,
              "position": 13.5,
              "duration": 0.208333
            },
            {
              "pitch": 42,
              "velocity": 56,
              "position": 13.75,
              "duration": 0.208333
            },
            {
              "pitch": 35,
              "velocity": 87,
              "position": 14.0,
              "duration": 0.208333
            },
            {
              "pitch": 42,
              "velocity": 78,
              "position": 14.0,
              "duration": 0.208333
            },
            {
              "pitch": 63,
              "velocity": 37,
              "position": 14.0,
              "duration": 0.208333
            },
            {
              "pitch": 46,
              "velocity": 43,
              "position": 14.25,
              "duration": 0.208333
            },
            {
              "pitch": 42,
              "velocity": 61,
              "position": 14.5,
              "duration": 0.208333
            },
            {
              "pitch": 63,
              "velocity": 40,
              "position": 14.5,
              "duration": 0.208333
            },
            {
              "pitch": 69,
              "velocity": 29,
              "position": 14.5,
              "duration": 0.208333
            },
            {
              "pitch": 38,
              "velocity": 50,
              "position": 14.75,
              "duration": 0.125
            },
            {
              "pitch": 46,
              "velocity": 61,
              "position": 14.75,
              "duration": 0.208333
            },
            {
              "pitch": 38,
              "velocity": 40,
              "position": 14.875,
              "duration": 0.083333
            },
            {
              "pitch": 38,
              "velocity": 88,
              "position": 15.0,
              "duration": 0.083333
            },
            {
              "pitch": 56,
              "velocity": 65,
              "position": 15.0,
              "duration": 0.208333
            },
            {
              "pitch": 63,
              "velocity": 40,
              "position": 15.0,
              "duration": 0.208333
            },
            {
              "pitch": 38,
              "velocity": 37,
              "position": 15.25,
              "duration": 0.208333
            },
            {
              "pitch": 63,
              "velocity": 36,
              "position": 15.25,
              "duration": 0.208333
            },
            {
              "pitch": 38,
              "velocity": 112,
              "position": 15.5,
              "duration": 0.208333
            },
            {
              "pitch": 62,
              "velocity": 51,
              "position": 15.5,
              "duration": 0.208333
            },
            {
              "pitch": 69,
              "velocity": 23,
              "position": 15.5,
              "duration": 0.208333
            },
            {
              "pitch": 62,
              "velocity": 32,
              "position": 15.75,
              "duration": 0.208333
            },
            {
              "pitch": 69,
              "velocity": 20,
              "position": 15.75,
              "duration": 0.208333
            }
          ]
        },
        "10": {
          "ctab": {
            "srcChannel": 10,
            "name": "Bass",
            "accType": "BASS",
            "editable": true,
            "mutedNotes": [],
            "mutedChords": [],
            "sourceChordNote": 0,
            "sourceChordType": "Maj7",
            "ctb2Main": {
              "ntr": "ROOT_TRANSPOSITION",
              "ntt": "BYPASS",
              "bassOn": true,
              "noteLowLimit": 20,
              "noteHighLimit": 60,
              "chordRootUpperLimit": 127,
              "rtr": "NOTE_GENERATOR"
            }
          },
          "notes": [
            {
              "pitch": 36,
              "velocity": 99,
              "position": 0.0,
              "duration": 1.416667
            },
            {
              "pitch": 36,
              "velocity": 99,
              "position": 1.5,
              "duration": 2.408333
            },
            {
              "pitch": 36,
              "velocity": 99,
              "position": 4.0,
              "duration": 1.416667
            },
            {
              "pitch": 36,
              "velocity": 99,
              "position": 5.5,
              "duration": 2.408333
            },
            {
              "pitch": 36,
              "velocity": 89,
              "position": 8.0,
              "duration": 0.5
            },
            {
              "pitch": 36,
              "velocity": 102,
              "position": 8.5,
              "duration": 0.191667
            },
            {
              "pitch": 31,
              "velocity": 114,
              "position": 9.741667,
              "duration": 0.275
            },
            {
              "pitch": 36,
              "velocity": 119,
              "position": 10.016667,
              "duration": 0.733333
            },
            {
              "pitch": 31,
              "velocity": 85,
              "position": 10.75,
              "duration": 0.283333
            },
            {
              "pitch": 36,
              "velocity": 87,
              "position": 11.0,
              "duration": 0.475
            },
            {
              "pitch": 31,
              "velocity": 62,
              "position": 11.5,
              "duration": 0.308333
            },
            {
              "pitch": 36,
              "velocity": 111,
              "position": 12.0,
              "duration": 0.45
            },
            {
              "pitch": 36,
              "velocity": 114,
              "position": 12.5,
              "duration": 0.091667
            },
            {
              "pitch": 31,
              "velocity": 111,
              "position": 13.25,
              "duration": 0.258333
            },
            {
              "pitch": 36,
              "velocity": 121,
              "position": 13.508333,
              "duration": 1.741667
            },
            {
              "pitch": 40,
              "velocity": 82,
              "position": 15.25,
              "duration": 0.266667
            },
            {
              "pitch": 43,
              "velocity": 85,
              "position": 15.516667,
              "duration": 0.166667
            },
            {
              "pitch": 36,
              "velocity": 113,
              "position": 15.75,
              "duration": 0.191667
            }
          ]
        },
        "11": {
          "ctab": {
            "srcChannel": 11,
            "name": "Piano",
            "accType": "CHORD1",
            "editable": true,
            "mutedNotes": [],
            "mutedChords": [],
            "sourceChordNote": 0,
            "sourceChordType": "Maj7",
            "ctb2Main": {
              "ntr": "ROOT_FIXED",
              "ntt": "CHORD",
              "bassOn": false,
              "noteLowLimit": 48,
              "noteHighLimit": 84,
              "chordRootUpperLimit": 127,
              "rtr": "NOTE_GENERATOR"
            }
          },
          "notes": [
            {
              "pitch": 48,
              "velocity": 57,
              "position": 0.008333,
              "duration": 1.95
            },
            {
              "pitch": 59,
              "velocity": 73,
              "position": 0.033333,
              "duration": 1.925
            },
            {
              "pitch": 64,
              "velocity": 73,
              "position": 0.033333,
              "duration": 1.925
            },
            {
              "pitch": 67,
              "velocity": 73,
              "position": 0.033333,
              "duration": 1.925
            },
            {
              "pitch": 74,
              "velocity": 73,
              "position": 0.033333,
              "duration": 1.925
            },
            {
              "pitch": 36,
              "velocity": 69,
              "position": 2.0,
              "duration": 0.2
            },
            {
              "pitch": 48,
              "velocity": 54,
              "position": 2.0,
              "duration": 0.225
            },
            {
              "pitch": 59,
              "velocity": 75,
              "position": 2.25,
              "duration": 0.108333
            },
            {
              "pitch": 64,
              "velocity": 75,
              "position": 2.25,
              "duration": 0.108333
            },
            {
              "pitch": 67,
              "velocity": 75,
              "position": 2.25,
              "duration": 0.108333
            },
            {
              "pitch": 74,
              "velocity": 75,
              "position": 2.25,
              "duration": 0.108333
            },
            {
              "pitch": 36,
              "velocity": 65,
              "position": 2.75,
              "duration": 0.266667
            },
            {
              "pitch": 48,
              "velocity": 53,
              "position": 2.75,
              "duration": 0.283333
            },
            {
              "pitch": 59,
              "velocity": 78,
              "position": 3.016667,
              "duration": 0.458333
            },
            {
              "pitch": 64,
              "velocity": 78,
              "position": 3.016667,
              "duration": 0.458333
            },
            {
              "pitch": 67,
              "velocity": 78,
              "position": 3.016667,
              "duration": 0.458333
            },
            {
              "pitch": 74,
              "velocity": 78,
              "position": 3.016667,
              "duration": 0.458333
            },
            {
              "pitch": 36,
              "velocity": 65,
              "position": 3.5,
              "duration": 0.125
            },
            {
              "pitch": 48,
              "velocity": 66,
              "position": 3.5,
              "duration": 0.125
            },
            {
              "pitch": 48,
              "velocity": 57,
              "position": 4.008333,
              "duration": 1.95
            },
            {
              "pitch": 59,
              "velocity": 73,
              "position": 4.033333,
              "duration": 1.925
            },
            {
              "pitch": 64,
              "velocity": 73,
              "position": 4.033333,
              "duration": 1.925
            },
            {
              "pitch": 67,
              "velocity": 73,
              "position": 4.033333,
              "duration": 1.925
            },
            {
              "pitch": 74,
              "velocity": 73,
              "position": 4.033333,
              "duration": 1.925
            },
            {
              "pitch": 36,
              "velocity": 69,
              "position": 6.0,
              "duration": 0.2
            },
            {
              "pitch": 48,
              "velocity": 54,
              "position": 6.0,
              "duration": 0.225
            },
            {
              "pitch": 59,
              "velocity": 75,
              "position": 6.25,
              "duration": 0.108333
            },
            {
              "pitch": 62,
              "velocity": 75,
              "position": 6.25,
              "duration": 0.108333
            },
            {
              "pitch": 64,
              "velocity": 75,
              "position": 6.25,
              "duration": 0.108333
            },
            {
              "pitch": 67,
              "velocity": 75,
              "position": 6.25,
              "duration": 0.108333
            },
            {
              "pitch": 36,
              "velocity": 65,
              "position": 6.75,
              "duration": 0.266667
            },
            {
              "pitch": 48,
              "velocity": 53,
              "position": 6.75,
              "duration": 0.283333
            },
            {
              "pitch": 59,
              "velocity": 78,
              "position": 7.016667,
              "duration": 0.458333
            },
            {
              "pitch": 62,
              "velocity": 78,
              "position": 7.016667,
              "duration": 0.458333
            },
            {
              "pitch": 64,
              "velocity": 78,
              "position": 7.016667,
              "duration": 0.458333
            },
            {
              "pitch": 67,
              "velocity": 78,
              "position": 7.016667,
              "duration": 0.458333
            },
            {
              "pitch": 36,
              "velocity": 65,
              "position": 7.5,
              "duration": 0.125
            },
            {
              "pitch": 48,
              "velocity": 66,
              "position": 7.5,
              "duration": 0.125
            },
            {
              "pitch": 48,
              "velocity": 60,
              "position": 8.0,
              "duration": 7.791667
            },
            {
              "pitch": 59,
              "velocity": 63,
              "position": 8.0,
              "duration": 2.766667
            },
            {
              "pitch": 60,
              "velocity": 46,
              "position": 8.25,
              "duration": 2.6
            },
            {
              "pitch": 67,
              "velocity": 50,
              "position": 8.5,
              "duration": 2.375
            },
            {
              "pitch": 71,
              "velocity": 65,
              "position": 8.75,
              "duration": 6.691667
            },
            {
              "pitch": 59,
              "velocity": 78,
              "position": 11.0,
              "duration": 0.141667
            },
            {
              "pitch": 64,
              "velocity": 78,
              "position": 11.0,
              "duration": 0.191667
            },
            {
              "pitch": 67,
              "velocity": 80,
              "position": 11.0,
              "duration": 0.133333
            },
            {
              "pitch": 59,
              "velocity": 58,
              "position": 11.25,
              "duration": 0.25
            },
            {
              "pitch": 64,
              "velocity": 29,
              "position": 11.25,
              "duration": 0.291667
            },
            {
              "pitch": 67,
              "velocity": 63,
              "position": 11.25,
              "duration": 0.216667
            },
            {
              "pitch": 59,
              "velocity": 67,
              "position": 14.25,
              "duration": 0.108333
            },
            {
              "pitch": 64,
              "velocity": 73,
              "position": 14.25,
              "duration": 0.108333
            },
            {
              "pitch": 59,
              "velocity": 80,
              "position": 15.0,
              "duration": 0.441667
            },
            {
              "pitch": 64,
              "velocity": 69,
              "position": 15.0,
              "duration": 0.758333
            },
            {
              "pitch": 67,
              "velocity": 76,
              "position": 15.0,
              "duration": 0.733333
            },
            {
              "pitch": 59,
              "velocity": 71,
              "position": 15.5,
              "duration": 0.166667
            },
            {
              "pitch": 71,
              "velocity": 76,
              "position": 15.5,
              "duration": 0.233333
            }
          ]
        },
        "12": {
          "ctab": {
            "srcChannel": 12,
            "name": "Guitar",
            "accType": "CHORD2",
            "editable": true,
            "mutedNotes": [],
            "mutedChords": [],
            "sourceChordNote": 0,
            "sourceChordType": "Maj7",
            "ctb2Main": {
              "ntr": "ROOT_FIXED",
              "ntt": "CHORD",
              "bassOn": false,
              "noteLowLimit": 40,
              "noteHighLimit": 76,
              "chordRootUpperLimit": 127,
              "rtr": "NOTE_GENERATOR"
            }
          },
          "notes": [
            {
              "pitch": 55,
              "velocity": 64,
              "position": 0.0,
              "duration": 0.258333
            },
            {
              "pitch": 59,
              "velocity": 64,
              "position": 0.008333,
              "duration": 0.233333
            },
            {
              "pitch": 64,
              "velocity": 64,
              "position": 0.025,
              "duration": 0.2
            },
            {
              "pitch": 64,
              "velocity": 52,
              "position": 0.241667,
              "duration": 0.258333
            },
            {
              "pitch": 59,
              "velocity": 60,
              "position": 0.258333,
              "duration": 0.225
            },
            {
              "pitch": 55,
              "velocity": 60,
              "position": 0.275,
              "duration": 0.191667
            },
            {
              "pitch": 52,
              "velocity": 52,
              "position": 0.3,
              "duration": 0.15
            },
            {
              "pitch": 52,
              "velocity": 67,
              "position": 0.466667,
              "duration": 0.325
            },
            {
              "pitch": 55,
              "velocity": 67,
              "position": 0.483333,
              "duration": 0.308333
            },
            {
              "pitch": 59,
              "velocity": 67,
              "position": 0.5,
              "duration": 0.291667
            },
            {
              "pitch": 64,
              "velocity": 67,
              "position": 0.525,
              "duration": 0.266667
            },
            {
              "pitch": 64,
              "velocity": 37,
              "position": 1.216667,
              "duration": 0.275
            },
            {
              "pitch": 59,
              "velocity": 43,
              "position": 1.233333,
              "duration": 0.258333
            },
            {
              "pitch": 55,
              "velocity": 43,
              "position": 1.25,
              "duration": 0.216667
            },
            {
              "pitch": 52,
              "velocity": 37,
              "position": 1.275,
              "duration": 0.175
            },
            {
              "pitch": 52,
              "velocity": 49,
              "position": 1.466667,
              "duration": 0.3
            },
            {
              "pitch": 55,
              "velocity": 49,
              "position": 1.483333,
              "duration": 0.283333
            },
            {
              "pitch": 59,
              "velocity": 49,
              "position": 1.5,
              "duration": 0.266667
            },
            {
              "pitch": 64,
              "velocity": 49,
              "position": 1.525,
              "duration": 0.241667
            },
            {
              "pitch": 52,
              "velocity": 68,
              "position": 2.0,
              "duration": 1.066667
            },
            {
              "pitch": 59,
              "velocity": 55,
              "position": 2.5,
              "duration": 0.933333
            },
            {
              "pitch": 64,
              "velocity": 81,
              "position": 2.75,
              "duration": 1.208333
            },
            {
              "pitch": 52,
              "velocity": 56,
              "position": 3.25,
              "duration": 0.666667
            },
            {
              "pitch": 55,
              "velocity": 66,
              "position": 3.525,
              "duration": 0.433333
            },
            {
              "pitch": 52,
              "velocity": 68,
              "position": 4.0,
              "duration": 1.066667
            },
            {
              "pitch": 59,
              "velocity": 55,
              "position": 4.5,
              "duration": 0.933333
            },
            {
              "pitch": 64,
              "velocity": 81,
              "position": 4.75,
              "duration": 1.208333
            },
            {
              "pitch": 52,
              "velocity": 56,
              "position": 5.25,
              "duration": 0.666667
            },
            {
              "pitch": 55,
              "velocity": 66,
              "position": 5.525,
              "duration": 0.433333
            },
            {
              "pitch": 52,
              "velocity": 68,
              "position": 6.0,
              "duration": 1.066667
            },
            {
              "pitch": 59,
              "velocity": 55,
              "position": 6.5,
              "duration": 0.933333
            },
            {
              "pitch": 64,
              "velocity": 81,
              "position": 6.75,
              "duration": 1.208333
            },
            {
              "pitch": 52,
              "velocity": 56,
              "position": 7.25,
              "duration": 0.666667
            },
            {
              "pitch": 55,
              "velocity": 66,
              "position": 7.525,
              "duration": 0.433333
            },
            {
              "pitch": 48,
              "velocity": 59,
              "position": 7.966667,
              "duration": 0.308333
            },
            {
              "pitch": 52,
              "velocity": 70,
              "position": 7.983333,
              "duration": 0.291667
            },
            {
              "pitch": 55,
              "velocity": 70,
              "position": 8.0,
              "duration": 0.258333
            },
            {
              "pitch": 59,
              "velocity": 70,
              "position": 8.008333,
              "duration": 0.233333
            },
            {
              "pitch": 64,
              "velocity": 70,
              "position": 8.025,
              "duration": 0.2
            },
            {
              "pitch": 64,
              "velocity": 49,
              "position": 8.241667,
              "duration": 0.258333
            },
            {
              "pitch": 59,
              "velocity": 56,
              "position": 8.258333,
              "duration": 0.241667
            },
            {
              "pitch": 55,
              "velocity": 56,
              "position": 8.275,
              "duration": 0.208333
            },
            {
              "pitch": 52,
              "velocity": 49,
              "position": 8.3,
              "duration": 0.175
            },
            {
              "pitch": 48,
              "velocity": 45,
              "position": 8.483333,
              "duration": 0.158333
            },
            {
              "pitch": 52,
              "velocity": 54,
              "position": 8.491667,
              "duration": 0.15
            },
            {
              "pitch": 55,
              "velocity": 54,
              "position": 8.5,
              "duration": 0.141667
            },
            {
              "pitch": 59,
              "velocity": 54,
              "position": 8.508333,
              "duration": 0.133333
            },
            {
              "pitch": 64,
              "velocity": 54,
              "position": 8.516667,
              "duration": 0.125
            },
            {
              "pitch": 64,
              "velocity": 34,
              "position": 9.216667,
              "duration": 0.275
            },
            {
              "pitch": 59,
              "velocity": 39,
              "position": 9.233333,
              "duration": 0.258333
            },
            {
              "pitch": 55,
              "velocity": 39,
              "position": 9.25,
              "duration": 0.216667
            },
            {
              "pitch": 52,
              "velocity": 34,
              "position": 9.275,
              "duration": 0.175
            },
            {
              "pitch": 52,
              "velocity": 44,
              "position": 9.466667,
              "duration": 0.3
            },
            {
              "pitch": 55,
              "velocity": 44,
              "position": 9.483333,
              "duration": 0.266667
            },
            {
              "pitch": 59,
              "velocity": 44,
              "position": 9.5,
              "duration": 0.233333
            },
            {
              "pitch": 64,
              "velocity": 44,
              "position": 9.525,
              "duration": 0.191667
            },
            {
              "pitch": 64,
              "velocity": 54,
              "position": 9.733333,
              "duration": 0.483333
            },
            {
              "pitch": 59,
              "velocity": 62,
              "position": 9.75,
              "duration": 0.483333
            },
            {
              "pitch": 55,
              "velocity": 62,
              "position": 9.766667,
              "duration": 0.483333
            },
            {
              "pitch": 52,
              "velocity": 54,
              "position": 9.791667,
              "duration": 0.475
            },
            {
              "pitch": 64,
              "velocity": 49,
              "position": 10.233333,
              "duration": 0.283333
            },
            {
              "pitch": 59,
              "velocity": 56,
              "position": 10.25,
              "duration": 0.25
            },
            {
              "pitch": 55,
              "velocity": 56,
              "position": 10.266667,
              "duration": 0.216667
            },
            {
              "pitch": 52,
              "velocity": 49,
              "position": 10.291667,
              "duration": 0.175
            },
            {
              "pitch": 52,
              "velocity": 70,
              "position": 10.483333,
              "duration": 0.258333
            },
            {
              "pitch": 55,
              "velocity": 70,
              "position": 10.5,
              "duration": 0.241667
            },
            {
              "pitch": 59,
              "velocity": 70,
              "position": 10.516667,
              "duration": 0.2
            },
            {
              "pitch": 64,
              "velocity": 70,
              "position": 10.541667,
              "duration": 0.158333
            },
            {
              "pitch": 64,
              "velocity": 49,
              "position": 10.716667,
              "duration": 0.541667
            },
            {
              "pitch": 59,
              "velocity": 56,
              "position": 10.733333,
              "duration": 0.541667
            },
            {
              "pitch": 55,
              "velocity": 56,
              "position": 10.75,
              "duration": 0.541667
            },
            {
              "pitch": 52,
              "velocity": 49,
              "position": 10.775,
              "duration": 0.533333
            },
            {
              "pitch": 64,
              "velocity": 49,
              "position": 11.275,
              "duration": 0.233333
            },
            {
              "pitch": 59,
              "velocity": 56,
              "position": 11.291667,
              "duration": 0.191667
            },
            {
              "pitch": 55,
              "velocity": 56,
              "position": 11.308333,
              "duration": 0.158333
            },
            {
              "pitch": 52,
              "velocity": 49,
              "position": 11.333333,
              "duration": 0.116667
            },
            {
              "pitch": 52,
              "velocity": 70,
              "position": 11.466667,
              "duration": 0.483333
            },
            {
              "pitch": 55,
              "velocity": 70,
              "position": 11.483333,
              "duration": 0.466667
            },
            {
              "pitch": 59,
              "velocity": 70,
              "position": 11.5,
              "duration": 0.45
            },
            {
              "pitch": 64,
              "velocity": 70,
              "position": 11.525,
              "duration": 0.425
            },
            {
              "pitch": 48,
              "velocity": 59,
              "position": 11.966667,
              "duration": 0.333333
            },
            {
              "pitch": 52,
              "velocity": 70,
              "position": 11.983333,
              "duration": 0.316667
            },
            {
              "pitch": 55,
              "velocity": 70,
              "position": 12.0,
              "duration": 0.283333
            },
            {
              "pitch": 59,
              "velocity": 70,
              "position": 12.008333,
              "duration": 0.258333
            },
            {
              "pitch": 64,
              "velocity": 70,
              "position": 12.025,
              "duration": 0.225
            },
            {
              "pitch": 64,
              "velocity": 49,
              "position": 12.266667,
              "duration": 0.225
            },
            {
              "pitch": 59,
              "velocity": 56,
              "position": 12.283333,
              "duration": 0.208333
            },
            {
              "pitch": 55,
              "velocity": 56,
              "position": 12.3,
              "duration": 0.175
            },
            {
              "pitch": 52,
              "velocity": 49,
              "position": 12.325,
              "duration": 0.133333
            },
            {
              "pitch": 52,
              "velocity": 40,
              "position": 12.475,
              "duration": 0.225
            },
            {
              "pitch": 55,
              "velocity": 40,
              "position": 12.491667,
              "duration": 0.208333
            },
            {
              "pitch": 59,
              "velocity": 40,
              "position": 12.508333,
              "duration": 0.191667
            },
            {
              "pitch": 64,
              "velocity": 40,
              "position": 12.533333,
              "duration": 0.166667
            },
            {
              "pitch": 64,
              "velocity": 49,
              "position": 12.75,
              "duration": 0.983333
            },
            {
              "pitch": 59,
              "velocity": 56,
              "position": 12.766667,
              "duration": 0.983333
            },
            {
              "pitch": 55,
              "velocity": 56,
              "position": 12.783333,
              "duration": 0.983333
            },
            {
              "pitch": 52,
              "velocity": 49,
              "position": 12.808333,
              "duration": 0.958333
            },
            {
              "pitch": 64,
              "velocity": 49,
              "position": 13.75,
              "duration": 0.258333
            },
            {
              "pitch": 59,
              "velocity": 56,
              "position": 13.766667,
              "duration": 0.225
            },
            {
              "pitch": 55,
              "velocity": 56,
              "position": 13.783333,
              "duration": 0.191667
            },
            {
              "pitch": 52,
              "velocity": 49,
              "position": 13.808333,
              "duration": 0.15
            },
            {
              "pitch": 52,
              "velocity": 70,
              "position": 13.975,
              "duration": 0.5
            },
            {
              "pitch": 55,
              "velocity": 70,
              "position": 13.991667,
              "duration": 0.5
            },
            {
              "pitch": 59,
              "velocity": 70,
              "position": 14.008333,
              "duration": 0.5
            },
            {
              "pitch": 64,
              "velocity": 70,
              "position": 14.033333,
              "duration": 0.491667
            },
            {
              "pitch": 52,
              "velocity": 70,
              "position": 14.491667,
              "duration": 0.466667
            },
            {
              "pitch": 55,
              "velocity": 70,
              "position": 14.508333,
              "duration": 0.466667
            },
            {
              "pitch": 59,
              "velocity": 70,
              "position": 14.525,
              "duration": 0.466667
            },
            {
              "pitch": 64,
              "velocity": 70,
              "position": 14.55,
              "duration": 0.458333
            },
            {
              "pitch": 52,
              "velocity": 70,
              "position": 14.975,
              "duration": 0.291667
            },
            {
              "pitch": 55,
              "velocity": 70,
              "position": 14.991667,
              "duration": 0.258333
            },
            {
              "pitch": 59,
              "velocity": 70,
              "position": 15.008333,
              "duration": 0.225
            },
            {
              "pitch": 64,
              "velocity": 70,
              "position": 15.033333,
              "duration": 0.183333
            },
            {
              "pitch": 64,
              "velocity": 49,
              "position": 15.233333,
              "duration": 0.275
            },
            {
              "pitch": 59,
              "velocity": 56,
              "position": 15.25,
              "duration": 0.25
            },
            {
              "pitch": 55,
              "velocity": 56,
              "position": 15.266667,
              "duration": 0.225
            },
            {
              "pitch": 52,
              "velocity": 49,
              "position": 15.291667,
              "duration": 0.191667
            },
            {
              "pitch": 48,
              "velocity": 59,
              "position": 15.491667,
              "duration": 0.241667
            },
            {
              "pitch": 52,
              "velocity": 70,
              "position": 15.5,
              "duration": 0.233333
            },
            {
              "pitch": 55,
              "velocity": 70,
              "position": 15.508333,
              "duration": 0.225
            },
            {
              "pitch": 59,
              "velocity": 70,
              "position": 15.516667,
              "duration": 0.216667
            },
            {
              "pitch": 64,
              "velocity": 70,
              "position": 15.525,
              "duration": 0.208333
            }
          ]
        },
        "13": {
          "ctab": {
            "srcChannel": 13,
            "name": "Strings",
            "accType": "PAD",
            "editable": true,
            "mutedNotes": [],
            "mutedChords": [],
            "sourceChordNote": 0,
            "sourceChordType": "Maj7",
            "ctb2Main": {
              "ntr": "ROOT_FIXED",
              "ntt": "MELODY",
              "bassOn": false,
              "noteLowLimit": 36,
              "noteHighLimit": 96,
              "chordRootUpperLimit": 127,
              "rtr": "PITCH_SHIFT"
            }
          },
          "notes": [
            {
              "pitch": 59,
              "velocity": 29,
              "position": 4.0,
              "duration": 3.958333
            },
            {
              "pitch": 71,
              "velocity": 42,
              "position": 8.0,
              "duration": 13.958333
            },
            {
              "pitch": 67,
              "velocity": 32,
              "position": 14.25,
              "duration": 1.708333
            }
          ]
        }
      }
    },
    "Ending_A": {
      "type": "Ending_A",
      "sizeInBeats": 16,
      "channels": {
        "9": {
          "ctab": {
            "srcChannel": 9,
            "name": "Drums",
            "accType": "RHYTHM",
            "editable": false,
            "mutedNotes": [],
            "mutedChords": [],
            "sourceChordNote": 0,
            "sourceChordType": "Maj",
            "ctb2Main": {
              "ntr": "ROOT_FIXED",
              "ntt": "BYPASS",
              "bassOn": false,
              "noteLowLimit": 20,
              "noteHighLimit": 127,
              "chordRootUpperLimit": 127,
              "rtr": "RETRIGGER"
            }
          },
          "notes": [
            {
              "pitch": 35,
              "velocity": 76,
              "position": 0.0,
              "duration": 0.208333
            },
            {
              "pitch": 42,
              "velocity": 58,
              "position": 0.0,
              "duration": 0.208333
            },
            {
              "pitch": 49,
              "velocity": 79,
              "position": 0.0,
              "duration": 0.208333
            },
            {
              "pitch": 42,
              "velocity": 28,
              "position": 0.25,
              "duration": 0.208333
            },
            {
              "pitch": 42,
              "velocity": 93,
              "position": 0.5,
              "duration": 0.208333
            },
            {
              "pitch": 42,
              "velocity": 103,
              "position": 0.75,
              "duration": 0.208333
            },
            {
              "pitch": 38,
              "velocity": 97,
              "position": 1.0,
              "duration": 0.208333
            },
            {
              "pitch": 56,
              "velocity": 65,
              "position": 1.0,
              "duration": 0.208333
            },
            {
              "pitch": 42,
              "velocity": 28,
              "position": 1.25,
              "duration": 0.208333
            },
            {
              "pitch": 42,
              "velocity": 69,
              "position": 1.5,
              "duration": 0.208333
            },
            {
              "pitch": 42,
              "velocity": 56,
              "position": 1.75,
              "duration": 0.208333
            },
            {
              "pitch": 35,
              "velocity": 87,
              "position": 2.0,
              "duration": 0.208333
            },
            {
              "pitch": 42,
              "velocity": 78,
              "position": 2.0,
              "duration": 0.208333
            },
            {
              "pitch": 42,
              "velocity": 28,
              "position": 2.25,
              "duration": 0.208333
            },
            {
              "pitch": 42,
              "velocity": 61,
              "position": 2.5,
              "duration": 0.208333
            },
            {
              "pitch": 42,
              "velocity": 90,
              "position": 2.75,
              "duration": 0.208333
            },
            {
              "pitch": 38,
              "velocity": 97,
              "position": 3.0,
              "duration": 0.208333
            },
            {
              "pitch": 56,
              "velocity": 65,
              "position": 3.0,
              "duration": 0.208333
            },
            {
              "pitch": 42,
              "velocity": 28,
              "position": 3.25,
              "duration": 0.208333
            },
            {
              "pitch": 42,
              "velocity": 93,
              "position": 3.5,
              "duration": 0.208333
            },
            {
              "pitch": 42,
              "velocity": 78,
              "position": 3.75,
              "duration": 0.208333
            },
            {
              "pitch": 35,
              "velocity": 76,
              "position": 4.0,
              "duration": 0.208333
            },
            {
              "pitch": 42,
              "velocity": 58,
              "position": 4.0,
              "duration": 0.208333
            },
            {
              "pitch": 42,
              "velocity": 28,
              "position": 4.25,
              "duration": 0.208333
            },
            {
              "pitch": 42,
              "velocity": 93,
              "position": 4.5,
              "duration": 0.208333
            },
            {
              "pitch": 42,
              "velocity": 103,
              "position": 4.75,
              "duration": 0.208333
            },
            {
              "pitch": 38,
              "velocity": 97,
              "position": 5.0,
              "duration": 0.208333
            },
            {
              "pitch": 56,
              "velocity": 65,
              "position": 5.0,
              "duration": 0.208333
            },
            {
              "pitch": 42,
              "velocity": 28,
              "position": 5.25,
              "duration": 0.208333
            },
            {
              "pitch": 42,
              "velocity": 69,
              "position": 5.5,
              "duration": 0.208333
            },
            {
              "pitch": 42,
              "velocity": 56,
              "position": 5.75,
              "duration": 0.208333
            },
            {
              "pitch": 35,
              "velocity": 87,
              "position": 6.0,
              "duration": 0.208333
            },
            {
              "pitch": 42,
              "velocity": 78,
              "position": 6.0,
              "duration": 0.208333
            },
            {
              "pitch": 42,
              "velocity": 28,
              "position": 6.25,
              "duration": 0.208333
            },
            {
              "pitch": 42,
              "velocity": 61,
              "position": 6.5,
              "duration": 0.208333
            },
            {
              "pitch": 42,
              "velocity": 90,
              "position": 6.75,
              "duration": 0.208333
            },
            {
              "pitch": 38,
              "velocity": 97,
              "position": 7.0,
              "duration": 0.208333
            },
            {
              "pitch": 56,
              "velocity": 65,
              "position": 7.0,
              "duration": 0.208333
            },
            {
              "pitch": 42,
              "velocity": 28,
              "position": 7.25,
              "duration": 0.208333
            },
            {
              "pitch": 42,
              "velocity": 93,
              "position": 7.5,
              "duration": 0.208333
            },
            {
              "pitch": 42,
              "velocity": 78,
              "position": 7.75,
              "duration": 0.208333
            },
            {
              "pitch": 35,
              "velocity": 76,
              "position": 8.0,
              "duration": 0.208333
            },
            {
              "pitch": 42,
              "velocity": 58,
              "position": 8.0,
              "duration": 0.208333
            },
            {
              "pitch": 42,
              "velocity": 28,
              "position": 8.25,
              "duration": 0.208333
            },
            {
              "pitch": 42,
              "velocity": 93,
              "position": 8.5,
              "duration": 0.208333
            },
            {
              "pitch": 42,
              "velocity": 103,
              "position": 8.75,
              "duration": 0.208333
            },
            {
              "pitch": 38,
              "velocity": 97,
              "position": 9.0,
              "duration": 0.208333
            },
            {
              "pitch": 56,
              "velocity": 65,
              "position": 9.0,
              "duration": 0.208333
            },
            {
              "pitch": 42,
              "velocity": 28,
              "position": 9.25,
              "duration": 0.208333
            },
            {
              "pitch": 42,
              "velocity": 69,
              "position": 9.5,
              "duration": 0.208333
            },
            {
              "pitch": 42,
              "velocity": 56,
              "position": 9.75,
              "duration": 0.208333
            },
            {
              "pitch": 35,
              "velocity": 87,
              "position": 10.0,
              "duration": 0.208333
            },
            {
              "pitch": 42,
              "velocity": 78,
              "position": 10.0,
              "duration": 0.208333
            },
            {
              "pitch": 42,
              "velocity": 28,
              "position": 10.25,
              "duration": 0.208333
            },
            {
              "pitch": 42,
              "velocity": 61,
              "position": 10.5,
              "duration": 0.208333
            },
            {
              "pitch": 42,
              "velocity": 90,
              "position": 10.75,
              "duration": 0.208333
            },
            {
              "pitch": 38,
              "velocity": 97,
              "position": 11.0,
              "duration": 0.208333
            },
            {
              "pitch": 56,
              "velocity": 65,
              "position": 11.0,
              "duration": 0.208333
            },
            {
              "pitch": 42,
              "velocity": 28,
              "position": 11.25,
              "duration": 0.208333
            },
            {
              "pitch": 42,
              "velocity": 93,
              "position": 11.5,
              "duration": 0.208333
            },
            {
              "pitch": 42,
              "velocity": 78,
              "position": 11.75,
              "duration": 0.208333
            },
            {
              "pitch": 35,
              "velocity": 76,
              "position": 12.0,
              "duration": 0.208333
            },
            {
              "pitch": 42,
              "velocity": 58,
              "position": 12.0,
              "duration": 0.208333
            },
            {
              "pitch": 42,
              "velocity": 16,
              "position": 12.25,
              "duration": 0.208333
            },
            {
              "pitch": 42,
              "velocity": 93,
              "position": 12.5,
              "duration": 0.208333
            },
            {
              "pitch": 69,
              "velocity": 12,
              "position": 12.5,
              "duration": 0.208333
            },
            {
              "pitch": 42,
              "velocity": 103,
              "position": 12.75,
              "duration": 0.208333
            },
            {
              "pitch": 62,
              "velocity": 37,
              "position": 12.75,
              "duration": 0.208333
            },
            {
              "pitch": 38,
              "velocity": 97,
              "position": 13.0,
              "duration": 0.208333
            },
            {
              "pitch": 56,
              "velocity": 65,
              "position": 13.0,
              "duration": 0.208333
            },
            {
              "pitch": 42,
              "velocity": 18,
              "position": 13.25,
              "duration": 0.208333
            },
            {
              "pitch": 42,
              "velocity": 69,
              "position": 13.5,
              "duration": 0.208333
            },
            {
              "pitch": 62,
              "velocity": 41,
              "position": 13.5,
              "duration": 0.208333
            },
            {
              "pitch": 69,
              "velocity": 25,
              "position": 13.5,
              "duration": 0.208333
            },
            {
              "pitch": 42,
              "velocity": 56,
              "position": 13.75,
              "duration": 0.208333
            },
            {
              "pitch": 35,
              "velocity": 87,
              "position": 14.0,
              "duration": 0.208333
            },
            {
              "pitch": 42,
              "velocity": 78,
              "position": 14.0,
              "duration": 0.208333
            },
            {
              "pitch": 63,
              "velocity": 37,
              "position": 14.0,
              "duration": 0.208333
            },
            {
              "pitch": 46,
              "velocity": 43,
              "position": 14.25,
              "duration": 0.208333
            },
            {
              "pitch": 42,
              "velocity": 61,
              "position": 14.5,
              "duration": 0.208333
            },
            {
              "pitch": 63,
              "velocity": 40,
              "position": 14.5,
              "duration": 0.208333
            },
            {
              "pitch": 69,
              "velocity": 29,
              "position": 14.5,
              "duration": 0.208333
            },
            {
              "pitch": 38,
              "velocity": 50,
              "position": 14.75,
              "duration": 0.125
            },
            {
              "pitch": 46,
              "velocity": 61,
              "position": 14.75,
              "duration": 0.208333
            },
            {
              "pitch": 38,
              "velocity": 40,
              "position": 14.875,
              "duration": 0.083333
            },
            {
              "pitch": 38,
              "velocity": 88,
              "position": 15.0,
              "duration": 0.083333
            },
            {
              "pitch": 56,
              "velocity": 65,
              "position": 15.0,
              "duration": 0.208333
            },
            {
              "pitch": 63,
              "velocity": 40,
              "position": 15.0,
              "duration": 0.208333
            },
            {
              "pitch": 38,
              "velocity": 37,
              "position": 15.25,
              "duration": 0.208333
            },
            {
              "pitch": 63,
              "velocity": 36,
              "position": 15.25,
              "duration": 0.208333
            },
            {
              "pitch": 38,
              "velocity": 112,
              "position": 15.5,
              "duration": 0.208333
            },
            {
              "pitch": 62,
              "velocity": 51,
              "position": 15.5,
              "duration": 0.208333
            },
            {
              "pitch": 69,
              "velocity": 23,
              "position": 15.5,
              "duration": 0.208333
            },
            {
              "pitch": 62,
              "velocity": 32,
              "position": 15.75,
              "duration": 0.208333
            },
            {
              "pitch": 69,
              "velocity": 20,
              "position": 15.75,
              "duration": 0.208333
            }
          ]
        },
        "10": {
          "ctab": {
            "srcChannel": 10,
            "name": "Bass",
            "accType": "BASS",
            "editable": true,
            "mutedNotes": [],
            "mutedChords": [],
            "sourceChordNote": 0,
            "sourceChordType": "Maj7",
            "ctb2Main": {
              "ntr": "ROOT_TRANSPOSITION",
              "ntt": "BYPASS",
              "bassOn": true,
              "noteLowLimit": 20,
              "noteHighLimit": 60,
              "chordRootUpperLimit": 127,
              "rtr": "NOTE_GENERATOR"
            }
          },
          "notes": [
            {
              "pitch": 36,
              "velocity": 83,
              "position": 0.0,
              "duration": 0.658333
            },
            {
              "pitch": 36,
              "velocity": 100,
              "position": 0.75,
              "duration": 0.241667
            },
            {
              "pitch": 36,
              "velocity": 91,
              "position": 2.0,
              "duration": 1.925
            },
            {
              "pitch": 36,
              "velocity": 92,
              "position": 4.0,
              "duration": 1.65
            },
            {
              "pitch": 36,
              "velocity": 90,
              "position": 5.75,
              "duration": 0.208333
            },
            {
              "pitch": 36,
              "velocity": 91,
              "position": 6.0,
              "duration": 1.925
            },
            {
              "pitch": 36,
              "velocity": 83,
              "position": 8.0,
              "duration": 1.65
            },
            {
              "pitch": 31,
              "velocity": 108,
              "position": 9.741667,
              "duration": 0.275
            },
            {
              "pitch": 36,
              "velocity": 113,
              "position": 10.016667,
              "duration": 0.733333
            },
            {
              "pitch": 31,
              "velocity": 79,
              "position": 10.75,
              "duration": 0.283333
            },
            {
              "pitch": 36,
              "velocity": 81,
              "position": 11.0,
              "duration": 0.475
            },
            {
              "pitch": 31,
              "velocity": 56,
              "position": 11.5,
              "duration": 0.308333
            },
            {
              "pitch": 36,
              "velocity": 100,
              "position": 12.0,
              "duration": 1.575
            },
            {
              "pitch": 31,
              "velocity": 93,
              "position": 13.783333,
              "duration": 0.2
            },
            {
              "pitch": 36,
              "velocity": 98,
              "position": 13.991667,
              "duration": 1.45
            },
            {
              "pitch": 31,
              "velocity": 76,
              "position": 15.516667,
              "duration": 0.441667
            }
          ]
        },
        "11": {
          "ctab": {
            "srcChannel": 11,
            "name": "Piano",
            "accType": "CHORD1",
            "editable": true,
            "mutedNotes": [],
            "mutedChords": [],
            "sourceChordNote": 0,
            "sourceChordType": "Maj7",
            "ctb2Main": {
              "ntr": "ROOT_FIXED",
              "ntt": "CHORD",
              "bassOn": false,
              "noteLowLimit": 48,
              "noteHighLimit": 84,
              "chordRootUpperLimit": 127,
              "rtr": "NOTE_GENERATOR"
            }
          },
          "notes": [
            {
              "pitch": 48,
              "velocity": 57,
              "position": 0.008333,
              "duration": 1.425
            },
            {
              "pitch": 59,
              "velocity": 73,
              "position": 0.033333,
              "duration": 1.4
            },
            {
              "pitch": 64,
              "velocity": 73,
              "position": 0.033333,
              "duration": 1.4
            },
            {
              "pitch": 67,
              "velocity": 73,
              "position": 0.033333,
              "duration": 1.4
            },
            {
              "pitch": 74,
              "velocity": 73,
              "position": 0.033333,
              "duration": 1.4
            },
            {
              "pitch": 59,
              "velocity": 59,
              "position": 1.516667,
              "duration": 2.516667
            },
            {
              "pitch": 60,
              "velocity": 68,
              "position": 1.516667,
              "duration": 2.425
            },
            {
              "pitch": 64,
              "velocity": 72,
              "position": 1.533333,
              "duration": 2.5
            },
            {
              "pitch": 48,
              "velocity": 59,
              "position": 1.55,
              "duration": 2.391667
            },
            {
              "pitch": 67,
              "velocity": 70,
              "position": 1.55,
              "duration": 2.483333
            },
            {
              "pitch": 48,
              "velocity": 57,
              "position": 4.008333,
              "duration": 1.425
            },
            {
              "pitch": 59,
              "velocity": 73,
              "position": 4.033333,
              "duration": 1.4
            },
            {
              "pitch": 64,
              "velocity": 73,
              "position": 4.033333,
              "duration": 1.4
            },
            {
              "pitch": 67,
              "velocity": 73,
              "position": 4.033333,
              "duration": 1.4
            },
            {
              "pitch": 74,
              "velocity": 73,
              "position": 4.033333,
              "duration": 1.4
            },
            {
              "pitch": 59,
              "velocity": 62,
              "position": 5.516667,
              "duration": 1.733333
            },
            {
              "pitch": 60,
              "velocity": 71,
              "position": 5.516667,
              "duration": 1.225
            },
            {
              "pitch": 64,
              "velocity": 75,
              "position": 5.533333,
              "duration": 2.5
            },
            {
              "pitch": 48,
              "velocity": 62,
              "position": 5.55,
              "duration": 1.191667
            },
            {
              "pitch": 67,
              "velocity": 73,
              "position": 5.55,
              "duration": 2.483333
            },
            {
              "pitch": 55,
              "velocity": 62,
              "position": 6.758333,
              "duration": 0.491667
            },
            {
              "pitch": 60,
              "velocity": 62,
              "position": 7.0,
              "duration": 0.933333
            },
            {
              "pitch": 59,
              "velocity": 62,
              "position": 7.25,
              "duration": 0.475
            },
            {
              "pitch": 55,
              "velocity": 62,
              "position": 7.5,
              "duration": 0.425
            },
            {
              "pitch": 48,
              "velocity": 57,
              "position": 8.008333,
              "duration": 3.95
            },
            {
              "pitch": 59,
              "velocity": 73,
              "position": 8.033333,
              "duration": 3.925
            },
            {
              "pitch": 64,
              "velocity": 73,
              "position": 8.033333,
              "duration": 3.925
            },
            {
              "pitch": 67,
              "velocity": 73,
              "position": 8.033333,
              "duration": 3.925
            },
            {
              "pitch": 74,
              "velocity": 73,
              "position": 8.033333,
              "duration": 3.925
            },
            {
              "pitch": 59,
              "velocity": 64,
              "position": 12.0,
              "duration": 2.75
            },
            {
              "pitch": 60,
              "velocity": 73,
              "position": 12.0,
              "duration": 2.75
            },
            {
              "pitch": 64,
              "velocity": 77,
              "position": 12.016667,
              "duration": 2.733333
            },
            {
              "pitch": 48,
              "velocity": 64,
              "position": 12.033333,
              "duration": 3.725
            },
            {
              "pitch": 67,
              "velocity": 75,
              "position": 12.033333,
              "duration": 2.716667
            },
            {
              "pitch": 55,
              "velocity": 64,
              "position": 14.75,
              "duration": 0.241667
            },
            {
              "pitch": 59,
              "velocity": 64,
              "position": 14.991667,
              "duration": 0.275
            },
            {
              "pitch": 55,
              "velocity": 64,
              "position": 15.266667,
              "duration": 0.466667
            },
            {
              "pitch": 60,
              "velocity": 50,
              "position": 15.533333,
              "duration": 0.233333
            },
            {
              "pitch": 59,
              "velocity": 64,
              "position": 15.766667,
              "duration": 0.191667
            }
          ]
        },
        "12": {
          "ctab": {
            "srcChannel": 12,
            "name": "Guitar",
            "accType": "CHORD2",
            "editable": true,
            "mutedNotes": [],
            "mutedChords": [],
            "sourceChordNote": 0,
            "sourceChordType": "Maj7",
            "ctb2Main": {
              "ntr": "ROOT_FIXED",
              "ntt": "CHORD",
              "bassOn": false,
              "noteLowLimit": 40,
              "noteHighLimit": 76,
              "chordRootUpperLimit": 127,
              "rtr": "NOTE_GENERATOR"
            }
          },
          "notes": [
            {
              "pitch": 48,
              "velocity": 51,
              "position": 0.0,
              "duration": 1.125
            },
            {
              "pitch": 59,
              "velocity": 55,
              "position": 0.0,
              "duration": 1.958333
            },
            {
              "pitch": 52,
              "velocity": 44,
              "position": 0.5,
              "duration": 0.866667
            },
            {
              "pitch": 55,
              "velocity": 53,
              "position": 0.75,
              "duration": 0.7
            },
            {
              "pitch": 48,
              "velocity": 67,
              "position": 1.25,
              "duration": 0.708333
            },
            {
              "pitch": 52,
              "velocity": 46,
              "position": 1.5,
              "duration": 0.458333
            },
            {
              "pitch": 48,
              "velocity": 51,
              "position": 1.966667,
              "duration": 0.716667
            },
            {
              "pitch": 52,
              "velocity": 61,
              "position": 1.983333,
              "duration": 0.7
            },
            {
              "pitch": 55,
              "velocity": 61,
              "position": 2.0,
              "duration": 0.683333
            },
            {
              "pitch": 59,
              "velocity": 61,
              "position": 2.008333,
              "duration": 0.675
            },
            {
              "pitch": 64,
              "velocity": 61,
              "position": 2.025,
              "duration": 0.658333
            },
            {
              "pitch": 52,
              "velocity": 58,
              "position": 2.716667,
              "duration": 0.75
            },
            {
              "pitch": 55,
              "velocity": 58,
              "position": 2.733333,
              "duration": 0.733333
            },
            {
              "pitch": 59,
              "velocity": 58,
              "position": 2.75,
              "duration": 0.716667
            },
            {
              "pitch": 64,
              "velocity": 58,
              "position": 2.775,
              "duration": 0.691667
            },
            {
              "pitch": 48,
              "velocity": 49,
              "position": 3.483333,
              "duration": 0.383333
            },
            {
              "pitch": 52,
              "velocity": 58,
              "position": 3.491667,
              "duration": 0.375
            },
            {
              "pitch": 55,
              "velocity": 58,
              "position": 3.5,
              "duration": 0.366667
            },
            {
              "pitch": 59,
              "velocity": 58,
              "position": 3.508333,
              "duration": 0.358333
            },
            {
              "pitch": 64,
              "velocity": 58,
              "position": 3.516667,
              "duration": 0.35
            },
            {
              "pitch": 52,
              "velocity": 64,
              "position": 4.0,
              "duration": 1.066667
            },
            {
              "pitch": 59,
              "velocity": 51,
              "position": 4.5,
              "duration": 0.933333
            },
            {
              "pitch": 64,
              "velocity": 77,
              "position": 4.75,
              "duration": 1.208333
            },
            {
              "pitch": 52,
              "velocity": 52,
              "position": 5.25,
              "duration": 0.666667
            },
            {
              "pitch": 55,
              "velocity": 62,
              "position": 5.5,
              "duration": 0.433333
            },
            {
              "pitch": 52,
              "velocity": 63,
              "position": 6.0,
              "duration": 1.091667
            },
            {
              "pitch": 55,
              "velocity": 50,
              "position": 6.25,
              "duration": 1.108333
            },
            {
              "pitch": 59,
              "velocity": 56,
              "position": 6.5,
              "duration": 1.016667
            },
            {
              "pitch": 64,
              "velocity": 75,
              "position": 6.75,
              "duration": 1.208333
            },
            {
              "pitch": 52,
              "velocity": 54,
              "position": 7.25,
              "duration": 0.708333
            },
            {
              "pitch": 55,
              "velocity": 50,
              "position": 7.5,
              "duration": 0.458333
            },
            {
              "pitch": 48,
              "velocity": 51,
              "position": 7.966667,
              "duration": 0.716667
            },
            {
              "pitch": 52,
              "velocity": 61,
              "position": 7.983333,
              "duration": 0.7
            },
            {
              "pitch": 55,
              "velocity": 61,
              "position": 8.0,
              "duration": 0.683333
            },
            {
              "pitch": 59,
              "velocity": 61,
              "position": 8.008333,
              "duration": 0.675
            },
            {
              "pitch": 64,
              "velocity": 61,
              "position": 8.025,
              "duration": 0.658333
            },
            {
              "pitch": 52,
              "velocity": 58,
              "position": 8.716667,
              "duration": 0.825
            },
            {
              "pitch": 55,
              "velocity": 58,
              "position": 8.733333,
              "duration": 0.791667
            },
            {
              "pitch": 59,
              "velocity": 58,
              "position": 8.75,
              "duration": 0.758333
            },
            {
              "pitch": 64,
              "velocity": 58,
              "position": 8.775,
              "duration": 0.716667
            },
            {
              "pitch": 64,
              "velocity": 40,
              "position": 9.508333,
              "duration": 0.241667
            },
            {
              "pitch": 59,
              "velocity": 46,
              "position": 9.525,
              "duration": 0.208333
            },
            {
              "pitch": 55,
              "velocity": 46,
              "position": 9.541667,
              "duration": 0.175
            },
            {
              "pitch": 52,
              "velocity": 40,
              "position": 9.566667,
              "duration": 0.133333
            },
            {
              "pitch": 52,
              "velocity": 64,
              "position": 9.716667,
              "duration": 0.516667
            },
            {
              "pitch": 55,
              "velocity": 64,
              "position": 9.733333,
              "duration": 0.75
            },
            {
              "pitch": 59,
              "velocity": 64,
              "position": 9.75,
              "duration": 0.775
            },
            {
              "pitch": 64,
              "velocity": 64,
              "position": 9.775,
              "duration": 0.75
            },
            {
              "pitch": 52,
              "velocity": 66,
              "position": 10.25,
              "duration": 0.816667
            },
            {
              "pitch": 55,
              "velocity": 46,
              "position": 10.5,
              "duration": 0.791667
            },
            {
              "pitch": 59,
              "velocity": 64,
              "position": 10.75,
              "duration": 0.766667
            },
            {
              "pitch": 64,
              "velocity": 75,
              "position": 10.75,
              "duration": 1.208333
            },
            {
              "pitch": 52,
              "velocity": 62,
              "position": 11.25,
              "duration": 0.466667
            },
            {
              "pitch": 55,
              "velocity": 54,
              "position": 11.5,
              "duration": 0.458333
            },
            {
              "pitch": 48,
              "velocity": 51,
              "position": 11.966667,
              "duration": 0.716667
            },
            {
              "pitch": 52,
              "velocity": 61,
              "position": 11.983333,
              "duration": 0.7
            },
            {
              "pitch": 55,
              "velocity": 61,
              "position": 12.0,
              "duration": 0.683333
            },
            {
              "pitch": 59,
              "velocity": 61,
              "position": 12.008333,
              "duration": 0.675
            },
            {
              "pitch": 64,
              "velocity": 61,
              "position": 12.025,
              "duration": 0.658333
            },
            {
              "pitch": 52,
              "velocity": 58,
              "position": 12.716667,
              "duration": 0.825
            },
            {
              "pitch": 55,
              "velocity": 58,
              "position": 12.733333,
              "duration": 0.791667
            },
            {
              "pitch": 59,
              "velocity": 58,
              "position": 12.75,
              "duration": 0.758333
            },
            {
              "pitch": 64,
              "velocity": 58,
              "position": 12.775,
              "duration": 0.716667
            },
            {
              "pitch": 64,
              "velocity": 40,
              "position": 13.508333,
              "duration": 0.241667
            },
            {
              "pitch": 59,
              "velocity": 46,
              "position": 13.525,
              "duration": 0.208333
            },
            {
              "pitch": 55,
              "velocity": 46,
              "position": 13.541667,
              "duration": 0.175
            },
            {
              "pitch": 52,
              "velocity": 40,
              "position": 13.566667,
              "duration": 0.133333
            },
            {
              "pitch": 52,
              "velocity": 64,
              "position": 13.716667,
              "duration": 0.516667
            },
            {
              "pitch": 55,
              "velocity": 64,
              "position": 13.733333,
              "duration": 0.75
            },
            {
              "pitch": 59,
              "velocity": 64,
              "position": 13.75,
              "duration": 0.775
            },
            {
              "pitch": 64,
              "velocity": 64,
              "position": 13.775,
              "duration": 0.75
            },
            {
              "pitch": 52,
              "velocity": 66,
              "position": 14.25,
              "duration": 0.816667
            },
            {
              "pitch": 55,
              "velocity": 46,
              "position": 14.5,
              "duration": 0.791667
            },
            {
              "pitch": 59,
              "velocity": 64,
              "position": 14.75,
              "duration": 0.766667
            },
            {
              "pitch": 64,
              "velocity": 75,
              "position": 14.75,
              "duration": 1.208333
            },
            {
              "pitch": 52,
              "velocity": 62,
              "position": 15.25,
              "duration": 0.466667
            },
            {
              "pitch": 55,
              "velocity": 54,
              "position": 15.5,
              "duration": 0.458333
            },
            {
              "pitch": 48,
              "velocity": 56,
              "position": 15.966667,
              "duration": 0.716667
            },
            {
              "pitch": 52,
              "velocity": 66,
              "position": 15.983333,
              "duration": 0.7
            }
          ]
        },
        "13": {
          "ctab": {
            "srcChannel": 13,
            "name": "Strings",
            "accType": "PAD",
            "editable": true,
            "mutedNotes": [],
            "mutedChords": [],
            "sourceChordNote": 0,
            "sourceChordType": "Maj7",
            "ctb2Main": {
              "ntr": "ROOT_FIXED",
              "ntt": "MELODY",
              "bassOn": false,
              "noteLowLimit": 36,
              "noteHighLimit": 96,
              "chordRootUpperLimit": 127,
              "rtr": "PITCH_SHIFT"
            }
          },
          "notes": []
        }
      }
    }
  }
}