{
  "name": "Guaguanco Modern - Cuban Dance",
  "tempo": 102,
  "timeSignature": "4/4",
  "ticksPerQuarter": 120,
  "sffType": "SFF1",
  "division": "BINARY",
  "channelPrograms": {
    "9": 0,
    "10": 33,
    "11": 0,
    "12": 11,
    "13": null
  },
  "parts": {
    "Intro_A": {
      "type": "Intro_A",
      "sizeInBeats": 24,
      "channels": {
        "9": {
          "ctab": {
            "srcChannel": 9,
            "name": "Drums",
            "accType": "RHYTHM",
            "editable": false,
            "mutedNotes": [],
            "mutedChords": [],
            "sourceChordNote": 0,
            "sourceChordType": "Maj",
            "ctb2Main": {
              "ntr": "ROOT_FIXED",
              "ntt": "BYPASS",
              "bassOn": false,
              "noteLowLimit": 20,
              "noteHighLimit": 127,
              "chordRootUpperLimit": 127,
              "rtr": "RETRIGGER"
            }
          },
          "notes": [
            {
              "pitch": 37,
              "velocity": 84,
              "position": 0.0,
              "duration": 1.0
            },
            {
              "pitch": 37,
              "velocity": 84,
              "position": 2.0,
              "duration": 1.0
            },
            {
              "pitch": 37,
              "velocity": 64,
              "position": 4.0,
              "duration": 1.0
            },
            {
              "pitch": 37,
              "velocity": 84,
              "position": 5.0,
              "duration": 1.0
            },
            {
              "pitch": 37,
              "velocity": 64,
              "position": 6.0,
              "duration": 1.0
            },
            {
              "pitch": 37,
              "velocity": 84,
              "position": 7.0,
              "duration": 1.0
            },
            {
              "pitch": 75,
              "velocity": 75,
              "position": 8.033333,
              "duration": 0.375
            },
            {
              "pitch": 44,
              "velocity": 93,
              "position": 8.041667,
              "duration": 0.508333
            },
            {
              "pitch": 61,
              "velocity": 68,
              "position": 8.25,
              "duration": 0.066667
            },
            {
              "pitch": 42,
              "velocity": 82,
              "position": 8.483333,
              "duration": 0.283333
            },
            {
              "pitch": 61,
              "velocity": 59,
              "position": 8.5,
              "duration": 0.225
            },
            {
              "pitch": 36,
              "velocity": 61,
              "position": 8.75,
              "duration": 0.466667
            },
            {
              "pitch": 62,
              "velocity": 91,
              "position": 8.75,
              "duration": 0.408333
            },
            {
              "pitch": 44,
              "velocity": 111,
              "position": 8.758333,
              "duration": 0.858333
            },
            {
              "pitch": 75,
              "velocity": 79,
              "position": 8.783333,
              "duration": 0.341667
            },
            {
              "pitch": 61,
              "velocity": 62,
              "position": 9.25,
              "duration": 0.183333
            },
            {
              "pitch": 42,
              "velocity": 82,
              "position": 9.258333,
              "duration": 0.225
            },
            {
              "pitch": 64,
              "velocity": 81,
              "position": 9.5,
              "duration": 0.2
            },
            {
              "pitch": 61,
              "velocity": 89,
              "position": 9.75,
              "duration": 0.225
            },
            {
              "pitch": 42,
              "velocity": 82,
              "position": 9.758333,
              "duration": 0.225
            },
            {
              "pitch": 75,
              "velocity": 82,
              "position": 9.791667,
              "duration": 0.241667
            },
            {
              "pitch": 63,
              "velocity": 72,
              "position": 10.0,
              "duration": 0.433333
            },
            {
              "pitch": 44,
              "velocity": 93,
              "position": 10.033333,
              "duration": 0.566667
            },
            {
              "pitch": 42,
              "velocity": 85,
              "position": 10.5,
              "duration": 0.433333
            },
            {
              "pitch": 61,
              "velocity": 65,
              "position": 10.5,
              "duration": 0.191667
            },
            {
              "pitch": 75,
              "velocity": 79,
              "position": 10.5,
              "duration": 0.158333
            },
            {
              "pitch": 63,
              "velocity": 82,
              "position": 10.75,
              "duration": 0.375
            },
            {
              "pitch": 44,
              "velocity": 89,
              "position": 10.991667,
              "duration": 0.658333
            },
            {
              "pitch": 75,
              "velocity": 82,
              "position": 11.033333,
              "duration": 0.208333
            },
            {
              "pitch": 42,
              "velocity": 85,
              "position": 11.208333,
              "duration": 0.175
            },
            {
              "pitch": 61,
              "velocity": 62,
              "position": 11.25,
              "duration": 0.158333
            },
            {
              "pitch": 64,
              "velocity": 81,
              "position": 11.5,
              "duration": 0.233333
            },
            {
              "pitch": 42,
              "velocity": 79,
              "position": 11.708333,
              "duration": 0.175
            },
            {
              "pitch": 61,
              "velocity": 82,
              "position": 11.75,
              "duration": 0.25
            },
            {
              "pitch": 44,
              "velocity": 86,
              "position": 12.0,
              "duration": 0.525
            },
            {
              "pitch": 75,
              "velocity": 80,
              "position": 12.033333,
              "duration": 0.183333
            },
            {
              "pitch": 42,
              "velocity": 73,
              "position": 12.458333,
              "duration": 0.2
            },
            {
              "pitch": 36,
              "velocity": 62,
              "position": 12.716667,
              "duration": 0.516667
            },
            {
              "pitch": 44,
              "velocity": 102,
              "position": 12.716667,
              "duration": 0.55
            },
            {
              "pitch": 62,
              "velocity": 88,
              "position": 12.75,
              "duration": 0.466667
            },
            {
              "pitch": 75,
              "velocity": 83,
              "position": 12.758333,
              "duration": 0.2
            },
            {
              "pitch": 42,
              "velocity": 83,
              "position": 13.225,
              "duration": 0.225
            },
            {
              "pitch": 61,
              "velocity": 80,
              "position": 13.25,
              "duration": 0.166667
            },
            {
              "pitch": 64,
              "velocity": 76,
              "position": 13.5,
              "duration": 0.208333
            },
            {
              "pitch": 42,
              "velocity": 80,
              "position": 13.733333,
              "duration": 0.225
            },
            {
              "pitch": 61,
              "velocity": 80,
              "position": 13.75,
              "duration": 0.2
            },
            {
              "pitch": 75,
              "velocity": 80,
              "position": 13.758333,
              "duration": 0.2
            },
            {
              "pitch": 63,
              "velocity": 80,
              "position": 14.0,
              "duration": 0.416667
            },
            {
              "pitch": 44,
              "velocity": 90,
              "position": 14.025,
              "duration": 0.466667
            },
            {
              "pitch": 42,
              "velocity": 83,
              "position": 14.5,
              "duration": 0.358333
            },
            {
              "pitch": 61,
              "velocity": 69,
              "position": 14.5,
              "duration": 0.166667
            },
            {
              "pitch": 75,
              "velocity": 76,
              "position": 14.525,
              "duration": 0.166667
            },
            {
              "pitch": 63,
              "velocity": 80,
              "position": 14.75,
              "duration": 0.425
            },
            {
              "pitch": 44,
              "velocity": 86,
              "position": 15.033333,
              "duration": 0.641667
            },
            {
              "pitch": 75,
              "velocity": 80,
              "position": 15.041667,
              "duration": 0.166667
            },
            {
              "pitch": 61,
              "velocity": 55,
              "position": 15.25,
              "duration": 0.125
            },
            {
              "pitch": 42,
              "velocity": 86,
              "position": 15.258333,
              "duration": 0.191667
            },
            {
              "pitch": 64,
              "velocity": 85,
              "position": 15.5,
              "duration": 0.475
            },
            {
              "pitch": 61,
              "velocity": 73,
              "position": 15.75,
              "duration": 0.25
            },
            {
              "pitch": 42,
              "velocity": 83,
              "position": 15.758333,
              "duration": 0.233333
            },
            {
              "pitch": 75,
              "velocity": 74,
              "position": 16.033333,
              "duration": 0.375
            },
            {
              "pitch": 44,
              "velocity": 96,
              "position": 16.058333,
              "duration": 0.483333
            },
            {
              "pitch": 42,
              "velocity": 71,
              "position": 16.475,
              "duration": 0.225
            },
            {
              "pitch": 36,
              "velocity": 57,
              "position": 16.741667,
              "duration": 0.325
            },
            {
              "pitch": 61,
              "velocity": 96,
              "position": 16.741667,
              "duration": 0.6
            },
            {
              "pitch": 44,
              "velocity": 105,
              "position": 16.75,
              "duration": 0.691667
            },
            {
              "pitch": 75,
              "velocity": 78,
              "position": 16.783333,
              "duration": 0.341667
            },
            {
              "pitch": 42,
              "velocity": 78,
              "position": 17.241667,
              "duration": 0.216667
            },
            {
              "pitch": 64,
              "velocity": 68,
              "position": 17.533333,
              "duration": 0.183333
            },
            {
              "pitch": 42,
              "velocity": 78,
              "position": 17.741667,
              "duration": 0.216667
            },
            {
              "pitch": 61,
              "velocity": 84,
              "position": 17.75,
              "duration": 0.216667
            },
            {
              "pitch": 75,
              "velocity": 81,
              "position": 17.791667,
              "duration": 0.241667
            },
            {
              "pitch": 63,
              "velocity": 78,
              "position": 17.983333,
              "duration": 0.458333
            },
            {
              "pitch": 44,
              "velocity": 96,
              "position": 18.016667,
              "duration": 0.5
            },
            {
              "pitch": 61,
              "velocity": 64,
              "position": 18.45,
              "duration": 0.2
            },
            {
              "pitch": 42,
              "velocity": 81,
              "position": 18.491667,
              "duration": 0.316667
            },
            {
              "pitch": 75,
              "velocity": 78,
              "position": 18.5,
              "duration": 0.158333
            },
            {
              "pitch": 63,
              "velocity": 78,
              "position": 18.733333,
              "duration": 0.475
            },
            {
              "pitch": 44,
              "velocity": 88,
              "position": 18.958333,
              "duration": 0.641667
            },
            {
              "pitch": 75,
              "velocity": 81,
              "position": 19.033333,
              "duration": 0.208333
            },
            {
              "pitch": 42,
              "velocity": 78,
              "position": 19.225,
              "duration": 0.175
            },
            {
              "pitch": 61,
              "velocity": 64,
              "position": 19.241667,
              "duration": 0.141667
            },
            {
              "pitch": 64,
              "velocity": 77,
              "position": 19.5,
              "duration": 0.3
            },
            {
              "pitch": 42,
              "velocity": 74,
              "position": 19.716667,
              "duration": 0.216667
            },
            {
              "pitch": 61,
              "velocity": 81,
              "position": 19.741667,
              "duration": 0.258333
            },
            {
              "pitch": 44,
              "velocity": 92,
              "position": 20.0,
              "duration": 0.383333
            },
            {
              "pitch": 75,
              "velocity": 74,
              "position": 20.033333,
              "duration": 0.183333
            },
            {
              "pitch": 61,
              "velocity": 84,
              "position": 20.2,
              "duration": 0.258333
            },
            {
              "pitch": 42,
              "velocity": 74,
              "position": 20.491667,
              "duration": 0.2
            },
            {
              "pitch": 62,
              "velocity": 82,
              "position": 20.708333,
              "duration": 0.4
            },
            {
              "pitch": 75,
              "velocity": 77,
              "position": 20.758333,
              "duration": 0.2
            },
            {
              "pitch": 44,
              "velocity": 101,
              "position": 20.791667,
              "duration": 0.258333
            },
            {
              "pitch": 61,
              "velocity": 67,
              "position": 21.208333,
              "duration": 0.183333
            },
            {
              "pitch": 42,
              "velocity": 84,
              "position": 21.216667,
              "duration": 0.208333
            },
            {
              "pitch": 64,
              "velocity": 73,
              "position": 21.483333,
              "duration": 0.175
            },
            {
              "pitch": 61,
              "velocity": 77,
              "position": 21.7,
              "duration": 0.183333
            },
            {
              "pitch": 43,
              "velocity": 95,
              "position": 21.716667,
              "duration": 0.2
            },
            {
              "pitch": 48,
              "velocity": 95,
              "position": 21.725,
              "duration": 0.225
            },
            {
              "pitch": 75,
              "velocity": 74,
              "position": 21.758333,
              "duration": 0.2
            },
            {
              "pitch": 63,
              "velocity": 74,
              "position": 21.983333,
              "duration": 0.4
            },
            {
              "pitch": 48,
              "velocity": 90,
              "position": 22.208333,
              "duration": 0.166667
            },
            {
              "pitch": 43,
              "velocity": 99,
              "position": 22.216667,
              "duration": 0.141667
            },
            {
              "pitch": 61,
              "velocity": 74,
              "position": 22.458333,
              "duration": 0.158333
            },
            {
              "pitch": 48,
              "velocity": 99,
              "position": 22.483333,
              "duration": 0.225
            },
            {
              "pitch": 43,
              "velocity": 90,
              "position": 22.5,
              "duration": 0.208333
            },
            {
              "pitch": 75,
              "velocity": 70,
              "position": 22.525,
              "duration": 0.166667
            },
            {
              "pitch": 63,
              "velocity": 84,
              "position": 22.708333,
              "duration": 0.5
            },
            {
              "pitch": 45,
              "velocity": 73,
              "position": 22.991667,
              "duration": 0.241667
            },
            {
              "pitch": 43,
              "velocity": 95,
              "position": 23.016667,
              "duration": 0.2
            },
            {
              "pitch": 75,
              "velocity": 74,
              "position": 23.041667,
              "duration": 0.166667
            },
            {
              "pitch": 61,
              "velocity": 80,
              "position": 23.233333,
              "duration": 0.183333
            },
            {
              "pitch": 64,
              "velocity": 82,
              "position": 23.475,
              "duration": 0.308333
            },
            {
              "pitch": 45,
              "velocity": 79,
              "position": 23.5,
              "duration": 0.275
            },
            {
              "pitch": 43,
              "velocity": 95,
              "position": 23.508333,
              "duration": 0.241667
            }
          ]
        },
        "10": {
          "ctab": {
            "srcChannel": 10,
            "name": "Bass",
            "accType": "BASS",
            "editable": true,
            "mutedNotes": [],
            "mutedChords": [],
            "sourceChordNote": 0,
            "sourceChordType": "Maj7",
            "ctb2Main": {
              "ntr": "ROOT_TRANSPOSITION",
              "ntt": "BYPASS",
              "bassOn": true,
              "noteLowLimit": 20,
              "noteHighLimit": 60,
              "chordRootUpperLimit": 127,
              "rtr": "NOTE_GENERATOR"
            }
          },
          "notes": [
            {
              "pitch": 36,
              "velocity": 74,
              "position": 8.0,
              "duration": 0.733333
            },
            {
              "pitch": 43,
              "velocity": 80,
              "position": 8.733333,
              "duration": 0.733333
            },
            {
              "pitch": 36,
              "velocity": 82,
              "position": 9.5,
              "duration": 0.133333
            },
            {
              "pitch": 43,
              "velocity": 70,
              "position": 10.983333,
              "duration": 0.916667
            },
            {
              "pitch": 36,
              "velocity": 76,
              "position": 11.741667,
              "duration": 0.2
            },
            {
              "pitch": 36,
              "velocity": 82,
              "position": 12.0,
              "duration": 0.666667
            },
            {
              "pitch": 43,
              "velocity": 70,
              "position": 12.758333,
              "duration": 0.65
            },
            {
              "pitch": 48,
              "velocity": 77,
              "position": 13.508333,
              "duration": 0.433333
            },
            {
              "pitch": 36,
              "velocity": 74,
              "position": 14.0,
              "duration": 0.733333
            },
            {
              "pitch": 43,
              "velocity": 80,
              "position": 14.733333,
              "duration": 0.733333
            },
            {
              "pitch": 36,
              "velocity": 74,
              "position": 15.475,
              "duration": 0.466667
            },
            {
              "pitch": 36,
              "velocity": 67,
              "position": 16.0,
              "duration": 0.733333
            },
            {
              "pitch": 31,
              "velocity": 76,
              "position": 16.733333,
              "duration": 0.741667
            },
            {
              "pitch": 36,
              "velocity": 70,
              "position": 17.491667,
              "duration": 1.575
            },
            {
              "pitch": 43,
              "velocity": 82,
              "position": 19.008333,
              "duration": 0.75
            },
            {
              "pitch": 31,
              "velocity": 76,
              "position": 19.758333,
              "duration": 0.216667
            },
            {
              "pitch": 36,
              "velocity": 70,
              "position": 20.008333,
              "duration": 0.608333
            },
            {
              "pitch": 31,
              "velocity": 73,
              "position": 20.741667,
              "duration": 0.716667
            },
            {
              "pitch": 36,
              "velocity": 73,
              "position": 21.491667,
              "duration": 1.316667
            },
            {
              "pitch": 43,
              "velocity": 92,
              "position": 22.991667,
              "duration": 0.458333
            },
            {
              "pitch": 36,
              "velocity": 84,
              "position": 23.508333,
              "duration": 0.433333
            }
          ]
        },
        "11": {
          "ctab": {
            "srcChannel": 11,
            "name": "Piano",
            "accType": "CHORD1",
            "editable": true,
            "mutedNotes": [],
            "mutedChords": [],
            "sourceChordNote": 0,
            "sourceChordType": "Maj7",
            "ctb2Main": {
              "ntr": "ROOT_FIXED",
              "ntt": "CHORD",
              "bassOn": false,
              "noteLowLimit": 48,
              "noteHighLimit": 84,
              "chordRootUpperLimit": 127,
              "rtr": "NOTE_GENERATOR"
            }
          },
          "notes": [
            {
              "pitch": 55,
              "velocity": 62,
              "position": 8.991667,
              "duration": 0.466667
            },
            {
              "pitch": 71,
              "velocity": 63,
              "position": 8.991667,
              "duration": 0.675
            },
            {
              "pitch": 62,
              "velocity": 53,
              "position": 9.008333,
              "duration": 0.366667
            },
            {
              "pitch": 64,
              "velocity": 65,
              "position": 9.008333,
              "duration": 0.416667
            },
            {
              "pitch": 64,
              "velocity": 76,
              "position": 10.283333,
              "duration": 0.275
            },
            {
              "pitch": 76,
              "velocity": 41,
              "position": 10.283333,
              "duration": 0.325
            },
            {
              "pitch": 59,
              "velocity": 66,
              "position": 10.291667,
              "duration": 0.35
            },
            {
              "pitch": 74,
              "velocity": 54,
              "position": 10.3,
              "duration": 0.308333
            },
            {
              "pitch": 67,
              "velocity": 72,
              "position": 10.808333,
              "duration": 0.275
            },
            {
              "pitch": 79,
              "velocity": 69,
              "position": 10.808333,
              "duration": 0.325
            },
            {
              "pitch": 52,
              "velocity": 57,
              "position": 10.825,
              "duration": 0.316667
            },
            {
              "pitch": 64,
              "velocity": 80,
              "position": 11.266667,
              "duration": 0.3
            },
            {
              "pitch": 59,
              "velocity": 63,
              "position": 11.275,
              "duration": 0.383333
            },
            {
              "pitch": 74,
              "velocity": 51,
              "position": 11.275,
              "duration": 0.225
            },
            {
              "pitch": 76,
              "velocity": 57,
              "position": 11.275,
              "duration": 0.291667
            },
            {
              "pitch": 52,
              "velocity": 39,
              "position": 11.708333,
              "duration": 0.075
            },
            {
              "pitch": 79,
              "velocity": 46,
              "position": 11.725,
              "duration": 0.166667
            },
            {
              "pitch": 67,
              "velocity": 28,
              "position": 11.741667,
              "duration": 0.066667
            },
            {
              "pitch": 52,
              "velocity": 58,
              "position": 12.008333,
              "duration": 0.533333
            },
            {
              "pitch": 71,
              "velocity": 76,
              "position": 12.025,
              "duration": 0.5
            },
            {
              "pitch": 83,
              "velocity": 73,
              "position": 12.041667,
              "duration": 0.408333
            },
            {
              "pitch": 64,
              "velocity": 70,
              "position": 12.483333,
              "duration": 0.233333
            },
            {
              "pitch": 76,
              "velocity": 67,
              "position": 12.483333,
              "duration": 0.283333
            },
            {
              "pitch": 79,
              "velocity": 55,
              "position": 12.483333,
              "duration": 0.266667
            },
            {
              "pitch": 59,
              "velocity": 61,
              "position": 12.491667,
              "duration": 0.341667
            },
            {
              "pitch": 52,
              "velocity": 64,
              "position": 13.025,
              "duration": 0.341667
            },
            {
              "pitch": 71,
              "velocity": 73,
              "position": 13.025,
              "duration": 0.433333
            },
            {
              "pitch": 83,
              "velocity": 67,
              "position": 13.025,
              "duration": 0.325
            },
            {
              "pitch": 59,
              "velocity": 8,
              "position": 13.05,
              "duration": 0.1
            },
            {
              "pitch": 64,
              "velocity": 47,
              "position": 13.05,
              "duration": 0.158333
            },
            {
              "pitch": 76,
              "velocity": 35,
              "position": 13.05,
              "duration": 0.1
            },
            {
              "pitch": 52,
              "velocity": 44,
              "position": 13.741667,
              "duration": 0.141667
            },
            {
              "pitch": 67,
              "velocity": 45,
              "position": 13.75,
              "duration": 0.133333
            },
            {
              "pitch": 79,
              "velocity": 43,
              "position": 13.758333,
              "duration": 0.125
            },
            {
              "pitch": 71,
              "velocity": 66,
              "position": 14.0,
              "duration": 0.425
            },
            {
              "pitch": 52,
              "velocity": 47,
              "position": 14.008333,
              "duration": 0.391667
            },
            {
              "pitch": 83,
              "velocity": 62,
              "position": 14.008333,
              "duration": 0.4
            },
            {
              "pitch": 76,
              "velocity": 66,
              "position": 14.441667,
              "duration": 0.266667
            },
            {
              "pitch": 64,
              "velocity": 59,
              "position": 14.466667,
              "duration": 0.208333
            },
            {
              "pitch": 59,
              "velocity": 47,
              "position": 14.475,
              "duration": 0.258333
            },
            {
              "pitch": 52,
              "velocity": 62,
              "position": 14.966667,
              "duration": 0.3
            },
            {
              "pitch": 71,
              "velocity": 66,
              "position": 14.966667,
              "duration": 0.266667
            },
            {
              "pitch": 83,
              "velocity": 66,
              "position": 14.966667,
              "duration": 0.225
            },
            {
              "pitch": 52,
              "velocity": 53,
              "position": 15.75,
              "duration": 1.025
            },
            {
              "pitch": 59,
              "velocity": 63,
              "position": 15.75,
              "duration": 1.066667
            },
            {
              "pitch": 64,
              "velocity": 75,
              "position": 15.75,
              "duration": 1.15
            },
            {
              "pitch": 67,
              "velocity": 66,
              "position": 15.75,
              "duration": 1.075
            },
            {
              "pitch": 74,
              "velocity": 63,
              "position": 15.75,
              "duration": 1.041667
            },
            {
              "pitch": 76,
              "velocity": 72,
              "position": 16.766667,
              "duration": 0.716667
            },
            {
              "pitch": 67,
              "velocity": 63,
              "position": 17.45,
              "duration": 1.9
            },
            {
              "pitch": 74,
              "velocity": 57,
              "position": 17.45,
              "duration": 1.866667
            },
            {
              "pitch": 59,
              "velocity": 57,
              "position": 17.458333,
              "duration": 1.841667
            },
            {
              "pitch": 64,
              "velocity": 66,
              "position": 17.458333,
              "duration": 1.875
            },
            {
              "pitch": 52,
              "velocity": 42,
              "position": 17.483333,
              "duration": 1.816667
            },
            {
              "pitch": 52,
              "velocity": 50,
              "position": 19.991667,
              "duration": 0.8
            },
            {
              "pitch": 64,
              "velocity": 63,
              "position": 19.991667,
              "duration": 0.791667
            },
            {
              "pitch": 59,
              "velocity": 44,
              "position": 20.008333,
              "duration": 0.75
            },
            {
              "pitch": 74,
              "velocity": 57,
              "position": 20.008333,
              "duration": 0.875
            },
            {
              "pitch": 67,
              "velocity": 57,
              "position": 20.016667,
              "duration": 0.783333
            },
            {
              "pitch": 76,
              "velocity": 63,
              "position": 20.8,
              "duration": 0.675
            },
            {
              "pitch": 64,
              "velocity": 69,
              "position": 21.475,
              "duration": 1.041667
            },
            {
              "pitch": 52,
              "velocity": 59,
              "position": 21.483333,
              "duration": 0.975
            },
            {
              "pitch": 74,
              "velocity": 69,
              "position": 21.483333,
              "duration": 1.008333
            },
            {
              "pitch": 59,
              "velocity": 54,
              "position": 21.491667,
              "duration": 0.875
            },
            {
              "pitch": 67,
              "velocity": 69,
              "position": 21.5,
              "duration": 0.95
            },
            {
              "pitch": 52,
              "velocity": 66,
              "position": 23.75,
              "duration": 0.516667
            },
            {
              "pitch": 59,
              "velocity": 62,
              "position": 23.75,
              "duration": 0.55
            },
            {
              "pitch": 64,
              "velocity": 82,
              "position": 23.75,
              "duration": 0.508333
            },
            {
              "pitch": 74,
              "velocity": 50,
              "position": 23.75,
              "duration": 0.475
            },
            {
              "pitch": 76,
              "velocity": 55,
              "position": 23.75,
              "duration": 0.541667
            },
            {
              "pitch": 86,
              "velocity": 56,
              "position": 23.75,
              "duration": 0.491667
            }
          ]
        },
        "12": {
          "ctab": {
            "srcChannel": 12,
            "name": "Guitar",
            "accType": "CHORD2",
            "editable": true,
            "mutedNotes": [],
            "mutedChords": [],
            "sourceChordNote": 0,
            "sourceChordType": "Maj7",
            "ctb2Main": {
              "ntr": "ROOT_FIXED",
              "ntt": "CHORD",
              "bassOn": false,
              "noteLowLimit": 40,
              "noteHighLimit": 76,
              "chordRootUpperLimit": 127,
              "rtr": "NOTE_GENERATOR"
            }
          },
          "notes": [
            {
              "pitch": 62,
              "velocity": 41,
              "position": 8.041667,
              "duration": 1.808333
            },
            {
              "pitch": 64,
              "velocity": 60,
              "position": 8.058333,
              "duration": 1.883333
            },
            {
              "pitch": 71,
              "velocity": 53,
              "position": 10.266667,
              "duration": 0.358333
            },
            {
              "pitch": 64,
              "velocity": 46,
              "position": 10.758333,
              "duration": 0.433333
            },
            {
              "pitch": 67,
              "velocity": 47,
              "position": 11.225,
              "duration": 0.408333
            },
            {
              "pitch": 71,
              "velocity": 39,
              "position": 11.708333,
              "duration": 0.183333
            },
            {
              "pitch": 64,
              "velocity": 48,
              "position": 12.025,
              "duration": 0.483333
            },
            {
              "pitch": 71,
              "velocity": 57,
              "position": 12.508333,
              "duration": 0.35
            },
            {
              "pitch": 64,
              "velocity": 51,
              "position": 13.016667,
              "duration": 0.358333
            },
            {
              "pitch": 74,
              "velocity": 51,
              "position": 13.025,
              "duration": 0.316667
            },
            {
              "pitch": 64,
              "velocity": 36,
              "position": 13.783333,
              "duration": 0.1
            },
            {
              "pitch": 67,
              "velocity": 29,
              "position": 13.783333,
              "duration": 0.1
            },
            {
              "pitch": 62,
              "velocity": 41,
              "position": 14.041667,
              "duration": 1.808333
            },
            {
              "pitch": 64,
              "velocity": 60,
              "position": 14.058333,
              "duration": 1.883333
            },
            {
              "pitch": 64,
              "velocity": 59,
              "position": 16.0,
              "duration": 0.408333
            },
            {
              "pitch": 67,
              "velocity": 53,
              "position": 16.0,
              "duration": 0.266667
            },
            {
              "pitch": 74,
              "velocity": 53,
              "position": 16.708333,
              "duration": 0.65
            },
            {
              "pitch": 67,
              "velocity": 45,
              "position": 17.475,
              "duration": 1.491667
            },
            {
              "pitch": 64,
              "velocity": 46,
              "position": 17.491667,
              "duration": 1.941667
            },
            {
              "pitch": 64,
              "velocity": 56,
              "position": 19.466667,
              "duration": 0.416667
            },
            {
              "pitch": 62,
              "velocity": 53,
              "position": 19.475,
              "duration": 0.291667
            },
            {
              "pitch": 64,
              "velocity": 49,
              "position": 19.991667,
              "duration": 0.466667
            },
            {
              "pitch": 62,
              "velocity": 45,
              "position": 20.008333,
              "duration": 0.4
            },
            {
              "pitch": 64,
              "velocity": 56,
              "position": 20.766667,
              "duration": 1.933333
            },
            {
              "pitch": 62,
              "velocity": 42,
              "position": 20.775,
              "duration": 1.908333
            },
            {
              "pitch": 64,
              "velocity": 42,
              "position": 23.516667,
              "duration": 1.883333
            },
            {
              "pitch": 67,
              "velocity": 58,
              "position": 23.516667,
              "duration": 1.866667
            },
            {
              "pitch": 74,
              "velocity": 52,
              "position": 23.516667,
              "duration": 1.675
            }
          ]
        },
        "13": {
          "ctab": {
            "srcChannel": 13,
            "name": "Strings",
            "accType": "PAD",
            "editable": true,
            "mutedNotes": [],
            "mutedChords": [],
            "sourceChordNote": 0,
            "sourceChordType": "Maj7",
            "ctb2Main": {
              "ntr": "ROOT_FIXED",
              "ntt": "MELODY",
              "bassOn": false,
              "noteLowLimit": 36,
              "noteHighLimit": 96,
              "chordRootUpperLimit": 127,
              "rtr": "PITCH_SHIFT"
            }
          },
          "notes": []
        }
      }
    },
    "Main_A": {
      "type": "Main_A",
      "sizeInBeats": 16,
      "channels": {
        "9": {
          "ctab": {
            "srcChannel": 9,
            "name": "Drums",
            "accType": "RHYTHM",
            "editable": false,
            "mutedNotes": [],
            "mutedChords": [],
            "sourceChordNote": 0,
            "sourceChordType": "Maj",
            "ctb2Main": {
              "ntr": "ROOT_FIXED",
              "ntt": "BYPASS",
              "bassOn": false,
              "noteLowLimit": 20,
              "noteHighLimit": 127,
              "chordRootUpperLimit": 127,
              "rtr": "RETRIGGER"
            }
          },
          "notes": [
            {
              "pitch": 36,
              "velocity": 101,
              "position": 0.0,
              "duration": 0.283333
            },
            {
              "pitch": 53,
              "velocity": 121,
              "position": 0.0,
              "duration": 0.2
            },
            {
              "pitch": 75,
              "velocity": 81,
              "position": 0.033333,
              "duration": 0.375
            },
            {
              "pitch": 61,
              "velocity": 95,
              "position": 0.233333,
              "duration": 0.308333
            },
            {
              "pitch": 36,
              "velocity": 101,
              "position": 0.741667,
              "duration": 0.233333
            },
            {
              "pitch": 62,
              "velocity": 90,
              "position": 0.75,
              "duration": 0.433333
            },
            {
              "pitch": 53,
              "velocity": 114,
              "position": 0.766667,
              "duration": 0.191667
            },
            {
              "pitch": 75,
              "velocity": 85,
              "position": 0.783333,
              "duration": 0.341667
            },
            {
              "pitch": 53,
              "velocity": 114,
              "position": 1.258333,
              "duration": 0.275
            },
            {
              "pitch": 61,
              "velocity": 85,
              "position": 1.258333,
              "duration": 0.183333
            },
            {
              "pitch": 64,
              "velocity": 78,
              "position": 1.508333,
              "duration": 0.191667
            },
            {
              "pitch": 53,
              "velocity": 93,
              "position": 1.75,
              "duration": 0.15
            },
            {
              "pitch": 61,
              "velocity": 91,
              "position": 1.75,
              "duration": 0.208333
            },
            {
              "pitch": 75,
              "velocity": 88,
              "position": 1.791667,
              "duration": 0.241667
            },
            {
              "pitch": 53,
              "velocity": 101,
              "position": 2.033333,
              "duration": 0.225
            },
            {
              "pitch": 63,
              "velocity": 91,
              "position": 2.033333,
              "duration": 0.425
            },
            {
              "pitch": 75,
              "velocity": 85,
              "position": 2.5,
              "duration": 0.158333
            },
            {
              "pitch": 53,
              "velocity": 110,
              "position": 2.516667,
              "duration": 0.233333
            },
            {
              "pitch": 61,
              "velocity": 65,
              "position": 2.516667,
              "duration": 0.108333
            },
            {
              "pitch": 36,
              "velocity": 101,
              "position": 2.75,
              "duration": 0.283333
            },
            {
              "pitch": 63,
              "velocity": 91,
              "position": 2.766667,
              "duration": 0.441667
            },
            {
              "pitch": 53,
              "velocity": 78,
              "position": 3.016667,
              "duration": 0.066667
            },
            {
              "pitch": 75,
              "velocity": 88,
              "position": 3.033333,
              "duration": 0.208333
            },
            {
              "pitch": 61,
              "velocity": 71,
              "position": 3.258333,
              "duration": 0.116667
            },
            {
              "pitch": 53,
              "velocity": 110,
              "position": 3.275,
              "duration": 0.291667
            },
            {
              "pitch": 64,
              "velocity": 90,
              "position": 3.508333,
              "duration": 0.266667
            },
            {
              "pitch": 53,
              "velocity": 75,
              "position": 3.775,
              "duration": 0.083333
            },
            {
              "pitch": 61,
              "velocity": 85,
              "position": 3.775,
              "duration": 0.225
            },
            {
              "pitch": 75,
              "velocity": 85,
              "position": 4.033333,
              "duration": 0.183333
            },
            {
              "pitch": 53,
              "velocity": 110,
              "position": 4.066667,
              "duration": 0.241667
            },
            {
              "pitch": 61,
              "velocity": 81,
              "position": 4.291667,
              "duration": 0.291667
            },
            {
              "pitch": 53,
              "velocity": 62,
              "position": 4.558333,
              "duration": 0.066667
            },
            {
              "pitch": 75,
              "velocity": 88,
              "position": 4.758333,
              "duration": 0.2
            },
            {
              "pitch": 62,
              "velocity": 93,
              "position": 4.775,
              "duration": 0.341667
            },
            {
              "pitch": 36,
              "velocity": 97,
              "position": 4.783333,
              "duration": 0.308333
            },
            {
              "pitch": 53,
              "velocity": 101,
              "position": 4.791667,
              "duration": 0.258333
            },
            {
              "pitch": 61,
              "velocity": 78,
              "position": 5.225,
              "duration": 0.191667
            },
            {
              "pitch": 53,
              "velocity": 106,
              "position": 5.291667,
              "duration": 0.241667
            },
            {
              "pitch": 64,
              "velocity": 81,
              "position": 5.525,
              "duration": 0.216667
            },
            {
              "pitch": 75,
              "velocity": 85,
              "position": 5.758333,
              "duration": 0.2
            },
            {
              "pitch": 53,
              "velocity": 106,
              "position": 5.766667,
              "duration": 0.175
            },
            {
              "pitch": 61,
              "velocity": 91,
              "position": 5.766667,
              "duration": 0.175
            },
            {
              "pitch": 63,
              "velocity": 91,
              "position": 6.025,
              "duration": 0.45
            },
            {
              "pitch": 53,
              "velocity": 101,
              "position": 6.058333,
              "duration": 0.216667
            },
            {
              "pitch": 61,
              "velocity": 85,
              "position": 6.483333,
              "duration": 0.183333
            },
            {
              "pitch": 53,
              "velocity": 110,
              "position": 6.525,
              "duration": 0.225
            },
            {
              "pitch": 75,
              "velocity": 81,
              "position": 6.525,
              "duration": 0.166667
            },
            {
              "pitch": 63,
              "velocity": 91,
              "position": 6.741667,
              "duration": 0.408333
            },
            {
              "pitch": 36,
              "velocity": 93,
              "position": 6.75,
              "duration": 0.258333
            },
            {
              "pitch": 53,
              "velocity": 87,
              "position": 7.016667,
              "duration": 0.133333
            },
            {
              "pitch": 75,
              "velocity": 85,
              "position": 7.041667,
              "duration": 0.166667
            },
            {
              "pitch": 61,
              "velocity": 81,
              "position": 7.216667,
              "duration": 0.175
            },
            {
              "pitch": 53,
              "velocity": 101,
              "position": 7.266667,
              "duration": 0.275
            },
            {
              "pitch": 64,
              "velocity": 90,
              "position": 7.475,
              "duration": 0.35
            },
            {
              "pitch": 61,
              "velocity": 95,
              "position": 7.691667,
              "duration": 0.3
            },
            {
              "pitch": 53,
              "velocity": 81,
              "position": 7.766667,
              "duration": 0.091667
            },
            {
              "pitch": 75,
              "velocity": 78,
              "position": 8.033333,
              "duration": 0.375
            },
            {
              "pitch": 53,
              "velocity": 111,
              "position": 8.041667,
              "duration": 0.266667
            },
            {
              "pitch": 61,
              "velocity": 92,
              "position": 8.241667,
              "duration": 0.291667
            },
            {
              "pitch": 53,
              "velocity": 61,
              "position": 8.516667,
              "duration": 0.125
            },
            {
              "pitch": 62,
              "velocity": 75,
              "position": 8.7,
              "duration": 0.358333
            },
            {
              "pitch": 36,
              "velocity": 84,
              "position": 8.775,
              "duration": 0.291667
            },
            {
              "pitch": 53,
              "velocity": 98,
              "position": 8.775,
              "duration": 0.266667
            },
            {
              "pitch": 75,
              "velocity": 82,
              "position": 8.783333,
              "duration": 0.341667
            },
            {
              "pitch": 61,
              "velocity": 82,
              "position": 9.183333,
              "duration": 0.183333
            },
            {
              "pitch": 36,
              "velocity": 87,
              "position": 9.258333,
              "duration": 0.3
            },
            {
              "pitch": 53,
              "velocity": 107,
              "position": 9.258333,
              "duration": 0.283333
            },
            {
              "pitch": 64,
              "velocity": 81,
              "position": 9.483333,
              "duration": 0.216667
            },
            {
              "pitch": 61,
              "velocity": 88,
              "position": 9.708333,
              "duration": 0.183333
            },
            {
              "pitch": 53,
              "velocity": 81,
              "position": 9.758333,
              "duration": 0.141667
            },
            {
              "pitch": 75,
              "velocity": 85,
              "position": 9.791667,
              "duration": 0.241667
            },
            {
              "pitch": 53,
              "velocity": 103,
              "position": 10.016667,
              "duration": 0.266667
            },
            {
              "pitch": 63,
              "velocity": 88,
              "position": 10.016667,
              "duration": 0.4
            },
            {
              "pitch": 61,
              "velocity": 88,
              "position": 10.433333,
              "duration": 0.183333
            },
            {
              "pitch": 53,
              "velocity": 111,
              "position": 10.5,
              "duration": 0.283333
            },
            {
              "pitch": 75,
              "velocity": 82,
              "position": 10.5,
              "duration": 0.158333
            },
            {
              "pitch": 63,
              "velocity": 85,
              "position": 10.666667,
              "duration": 0.158333
            },
            {
              "pitch": 36,
              "velocity": 87,
              "position": 10.75,
              "duration": 0.266667
            },
            {
              "pitch": 63,
              "velocity": 85,
              "position": 10.958333,
              "duration": 0.275
            },
            {
              "pitch": 53,
              "velocity": 61,
              "position": 11.033333,
              "duration": 0.075
            },
            {
              "pitch": 75,
              "velocity": 85,
              "position": 11.033333,
              "duration": 0.208333
            },
            {
              "pitch": 53,
              "velocity": 103,
              "position": 11.258333,
              "duration": 0.3
            },
            {
              "pitch": 64,
              "velocity": 94,
              "position": 11.466667,
              "duration": 0.5
            },
            {
              "pitch": 53,
              "velocity": 78,
              "position": 11.733333,
              "duration": 0.133333
            },
            {
              "pitch": 53,
              "velocity": 90,
              "position": 12.0,
              "duration": 0.475
            },
            {
              "pitch": 61,
              "velocity": 81,
              "position": 12.008333,
              "duration": 0.183333
            },
            {
              "pitch": 75,
              "velocity": 85,
              "position": 12.033333,
              "duration": 0.183333
            },
            {
              "pitch": 62,
              "velocity": 101,
              "position": 12.241667,
              "duration": 0.25
            },
            {
              "pitch": 53,
              "velocity": 101,
              "position": 12.691667,
              "duration": 0.15
            },
            {
              "pitch": 36,
              "velocity": 84,
              "position": 12.7,
              "duration": 0.25
            },
            {
              "pitch": 62,
              "velocity": 106,
              "position": 12.725,
              "duration": 0.4
            },
            {
              "pitch": 75,
              "velocity": 88,
              "position": 12.758333,
              "duration": 0.2
            },
            {
              "pitch": 53,
              "velocity": 101,
              "position": 13.008333,
              "duration": 0.366667
            },
            {
              "pitch": 61,
              "velocity": 91,
              "position": 13.216667,
              "duration": 0.175
            },
            {
              "pitch": 64,
              "velocity": 93,
              "position": 13.458333,
              "duration": 0.233333
            },
            {
              "pitch": 53,
              "velocity": 90,
              "position": 13.633333,
              "duration": 0.15
            },
            {
              "pitch": 61,
              "velocity": 88,
              "position": 13.716667,
              "duration": 0.175
            },
            {
              "pitch": 75,
              "velocity": 85,
              "position": 13.758333,
              "duration": 0.2
            },
            {
              "pitch": 53,
              "velocity": 106,
              "position": 13.916667,
              "duration": 0.15
            },
            {
              "pitch": 63,
              "velocity": 91,
              "position": 13.958333,
              "duration": 0.466667
            },
            {
              "pitch": 43,
              "velocity": 110,
              "position": 14.2,
              "duration": 0.125
            },
            {
              "pitch": 48,
              "velocity": 114,
              "position": 14.2,
              "duration": 0.15
            },
            {
              "pitch": 43,
              "velocity": 106,
              "position": 14.433333,
              "duration": 0.208333
            },
            {
              "pitch": 61,
              "velocity": 81,
              "position": 14.441667,
              "duration": 0.116667
            },
            {
              "pitch": 48,
              "velocity": 106,
              "position": 14.458333,
              "duration": 0.2
            },
            {
              "pitch": 75,
              "velocity": 81,
              "position": 14.525,
              "duration": 0.166667
            },
            {
              "pitch": 63,
              "velocity": 95,
              "position": 14.666667,
              "duration": 0.45
            },
            {
              "pitch": 75,
              "velocity": 85,
              "position": 15.041667,
              "duration": 0.166667
            },
            {
              "pitch": 61,
              "velocity": 88,
              "position": 15.175,
              "duration": 0.183333
            },
            {
              "pitch": 43,
              "velocity": 106,
              "position": 15.183333,
              "duration": 0.166667
            },
            {
              "pitch": 48,
              "velocity": 101,
              "position": 15.208333,
              "duration": 0.141667
            },
            {
              "pitch": 64,
              "velocity": 93,
              "position": 15.425,
              "duration": 0.466667
            },
            {
              "pitch": 43,
              "velocity": 106,
              "position": 15.483333,
              "duration": 0.275
            },
            {
              "pitch": 48,
              "velocity": 97,
              "position": 15.508333,
              "duration": 0.258333
            },
            {
              "pitch": 61,
              "velocity": 88,
              "position": 15.916667,
              "duration": 0.083333
            }
          ]
        },
        "10": {
          "ctab": {
            "srcChannel": 10,
            "name": "Bass",
            "accType": "BASS",
            "editable": true,
            "mutedNotes": [],
            "mutedChords": [],
            "sourceChordNote": 0,
            "sourceChordType": "Maj7",
            "ctb2Main": {
              "ntr": "ROOT_TRANSPOSITION",
              "ntt": "BYPASS",
              "bassOn": true,
              "noteLowLimit": 20,
              "noteHighLimit": 60,
              "chordRootUpperLimit": 127,
              "rtr": "NOTE_GENERATOR"
            }
          },
          "notes": [
            {
              "pitch": 36,
              "velocity": 86,
              "position": 0.0,
              "duration": 0.675
            },
            {
              "pitch": 40,
              "velocity": 88,
              "position": 0.775,
              "duration": 0.633333
            },
            {
              "pitch": 36,
              "velocity": 88,
              "position": 1.5,
              "duration": 1.383333
            },
            {
              "pitch": 43,
              "velocity": 88,
              "position": 3.008333,
              "duration": 0.608333
            },
            {
              "pitch": 36,
              "velocity": 83,
              "position": 3.741667,
              "duration": 0.2
            },
            {
              "pitch": 48,
              "velocity": 90,
              "position": 4.0,
              "duration": 0.658333
            },
            {
              "pitch": 43,
              "velocity": 81,
              "position": 4.741667,
              "duration": 0.675
            },
            {
              "pitch": 36,
              "velocity": 73,
              "position": 5.516667,
              "duration": 0.125
            },
            {
              "pitch": 43,
              "velocity": 89,
              "position": 6.7,
              "duration": 0.2
            },
            {
              "pitch": 43,
              "velocity": 97,
              "position": 7.0,
              "duration": 0.416667
            },
            {
              "pitch": 36,
              "velocity": 85,
              "position": 7.5,
              "duration": 0.441667
            },
            {
              "pitch": 36,
              "velocity": 88,
              "position": 8.0,
              "duration": 0.733333
            },
            {
              "pitch": 43,
              "velocity": 104,
              "position": 8.733333,
              "duration": 0.716667
            },
            {
              "pitch": 36,
              "velocity": 85,
              "position": 9.491667,
              "duration": 1.466667
            },
            {
              "pitch": 31,
              "velocity": 79,
              "position": 10.983333,
              "duration": 0.75
            },
            {
              "pitch": 31,
              "velocity": 86,
              "position": 11.733333,
              "duration": 0.033333
            },
            {
              "pitch": 36,
              "velocity": 79,
              "position": 12.0,
              "duration": 0.7
            },
            {
              "pitch": 43,
              "velocity": 95,
              "position": 12.733333,
              "duration": 0.725
            },
            {
              "pitch": 36,
              "velocity": 91,
              "position": 13.491667,
              "duration": 1.533333
            },
            {
              "pitch": 43,
              "velocity": 91,
              "position": 15.025,
              "duration": 0.608333
            },
            {
              "pitch": 36,
              "velocity": 70,
              "position": 15.741667,
              "duration": 0.2
            }
          ]
        },
        "11": {
          "ctab": {
            "srcChannel": 11,
            "name": "Piano",
            "accType": "CHORD1",
            "editable": true,
            "mutedNotes": [],
            "mutedChords": [],
            "sourceChordNote": 0,
            "sourceChordType": "Maj7",
            "ctb2Main": {
              "ntr": "ROOT_FIXED",
              "ntt": "CHORD",
              "bassOn": false,
              "noteLowLimit": 48,
              "noteHighLimit": 84,
              "chordRootUpperLimit": 127,
              "rtr": "NOTE_GENERATOR"
            }
          },
          "notes": [
            {
              "pitch": 76,
              "velocity": 72,
              "position": 0.658333,
              "duration": 1.008333
            },
            {
              "pitch": 86,
              "velocity": 74,
              "position": 0.658333,
              "duration": 1.008333
            },
            {
              "pitch": 52,
              "velocity": 84,
              "position": 0.675,
              "duration": 0.991667
            },
            {
              "pitch": 64,
              "velocity": 91,
              "position": 0.675,
              "duration": 0.991667
            },
            {
              "pitch": 74,
              "velocity": 50,
              "position": 0.683333,
              "duration": 0.983333
            },
            {
              "pitch": 59,
              "velocity": 65,
              "position": 0.691667,
              "duration": 0.975
            },
            {
              "pitch": 52,
              "velocity": 62,
              "position": 1.766667,
              "duration": 0.416667
            },
            {
              "pitch": 67,
              "velocity": 62,
              "position": 1.775,
              "duration": 0.416667
            },
            {
              "pitch": 79,
              "velocity": 62,
              "position": 1.783333,
              "duration": 0.408333
            },
            {
              "pitch": 59,
              "velocity": 54,
              "position": 2.25,
              "duration": 0.416667
            },
            {
              "pitch": 74,
              "velocity": 63,
              "position": 2.25,
              "duration": 0.291667
            },
            {
              "pitch": 64,
              "velocity": 69,
              "position": 2.5,
              "duration": 0.208333
            },
            {
              "pitch": 76,
              "velocity": 67,
              "position": 2.5,
              "duration": 0.2
            },
            {
              "pitch": 52,
              "velocity": 70,
              "position": 2.75,
              "duration": 0.383333
            },
            {
              "pitch": 67,
              "velocity": 88,
              "position": 2.75,
              "duration": 0.35
            },
            {
              "pitch": 79,
              "velocity": 79,
              "position": 2.75,
              "duration": 0.366667
            },
            {
              "pitch": 59,
              "velocity": 57,
              "position": 3.25,
              "duration": 0.375
            },
            {
              "pitch": 64,
              "velocity": 92,
              "position": 3.25,
              "duration": 0.275
            },
            {
              "pitch": 74,
              "velocity": 60,
              "position": 3.25,
              "duration": 0.25
            },
            {
              "pitch": 76,
              "velocity": 63,
              "position": 3.25,
              "duration": 0.316667
            },
            {
              "pitch": 52,
              "velocity": 54,
              "position": 3.75,
              "duration": 0.575
            },
            {
              "pitch": 59,
              "velocity": 57,
              "position": 3.75,
              "duration": 0.633333
            },
            {
              "pitch": 64,
              "velocity": 69,
              "position": 3.75,
              "duration": 0.625
            },
            {
              "pitch": 67,
              "velocity": 69,
              "position": 3.75,
              "duration": 0.6
            },
            {
              "pitch": 74,
              "velocity": 66,
              "position": 3.75,
              "duration": 0.641667
            },
            {
              "pitch": 74,
              "velocity": 77,
              "position": 4.683333,
              "duration": 1.2
            },
            {
              "pitch": 64,
              "velocity": 82,
              "position": 4.691667,
              "duration": 1.191667
            },
            {
              "pitch": 67,
              "velocity": 73,
              "position": 4.691667,
              "duration": 1.191667
            },
            {
              "pitch": 52,
              "velocity": 67,
              "position": 4.7,
              "duration": 1.183333
            },
            {
              "pitch": 59,
              "velocity": 63,
              "position": 4.7,
              "duration": 1.183333
            },
            {
              "pitch": 52,
              "velocity": 62,
              "position": 6.016667,
              "duration": 0.141667
            },
            {
              "pitch": 67,
              "velocity": 62,
              "position": 6.016667,
              "duration": 0.141667
            },
            {
              "pitch": 79,
              "velocity": 62,
              "position": 6.025,
              "duration": 0.133333
            },
            {
              "pitch": 59,
              "velocity": 63,
              "position": 6.191667,
              "duration": 0.466667
            },
            {
              "pitch": 74,
              "velocity": 69,
              "position": 6.191667,
              "duration": 0.316667
            },
            {
              "pitch": 64,
              "velocity": 66,
              "position": 6.441667,
              "duration": 0.208333
            },
            {
              "pitch": 76,
              "velocity": 50,
              "position": 6.475,
              "duration": 0.191667
            },
            {
              "pitch": 52,
              "velocity": 69,
              "position": 6.7,
              "duration": 0.408333
            },
            {
              "pitch": 79,
              "velocity": 85,
              "position": 6.708333,
              "duration": 0.375
            },
            {
              "pitch": 67,
              "velocity": 85,
              "position": 6.716667,
              "duration": 0.3
            },
            {
              "pitch": 74,
              "velocity": 66,
              "position": 7.2,
              "duration": 0.233333
            },
            {
              "pitch": 76,
              "velocity": 56,
              "position": 7.208333,
              "duration": 0.3
            },
            {
              "pitch": 64,
              "velocity": 85,
              "position": 7.216667,
              "duration": 0.283333
            },
            {
              "pitch": 59,
              "velocity": 63,
              "position": 7.225,
              "duration": 0.366667
            },
            {
              "pitch": 64,
              "velocity": 77,
              "position": 7.75,
              "duration": 0.55
            },
            {
              "pitch": 74,
              "velocity": 64,
              "position": 7.75,
              "duration": 0.858333
            },
            {
              "pitch": 67,
              "velocity": 70,
              "position": 7.758333,
              "duration": 0.641667
            },
            {
              "pitch": 52,
              "velocity": 54,
              "position": 7.766667,
              "duration": 0.616667
            },
            {
              "pitch": 59,
              "velocity": 58,
              "position": 7.766667,
              "duration": 0.616667
            },
            {
              "pitch": 71,
              "velocity": 71,
              "position": 8.716667,
              "duration": 0.333333
            },
            {
              "pitch": 55,
              "velocity": 70,
              "position": 8.733333,
              "duration": 0.208333
            },
            {
              "pitch": 62,
              "velocity": 70,
              "position": 8.733333,
              "duration": 0.15
            },
            {
              "pitch": 64,
              "velocity": 70,
              "position": 8.733333,
              "duration": 0.191667
            },
            {
              "pitch": 67,
              "velocity": 73,
              "position": 9.45,
              "duration": 1.216667
            },
            {
              "pitch": 74,
              "velocity": 70,
              "position": 9.45,
              "duration": 1.375
            },
            {
              "pitch": 59,
              "velocity": 67,
              "position": 9.466667,
              "duration": 0.941667
            },
            {
              "pitch": 64,
              "velocity": 81,
              "position": 9.466667,
              "duration": 1.008333
            },
            {
              "pitch": 52,
              "velocity": 65,
              "position": 9.475,
              "duration": 0.95
            },
            {
              "pitch": 62,
              "velocity": 73,
              "position": 11.45,
              "duration": 0.141667
            },
            {
              "pitch": 76,
              "velocity": 75,
              "position": 11.45,
              "duration": 0.366667
            },
            {
              "pitch": 71,
              "velocity": 75,
              "position": 11.458333,
              "duration": 0.358333
            },
            {
              "pitch": 64,
              "velocity": 73,
              "position": 11.466667,
              "duration": 0.175
            },
            {
              "pitch": 67,
              "velocity": 86,
              "position": 12.0,
              "duration": 0.5
            },
            {
              "pitch": 74,
              "velocity": 70,
              "position": 12.0,
              "duration": 0.708333
            },
            {
              "pitch": 59,
              "velocity": 64,
              "position": 12.008333,
              "duration": 0.541667
            },
            {
              "pitch": 64,
              "velocity": 77,
              "position": 12.008333,
              "duration": 0.4
            },
            {
              "pitch": 52,
              "velocity": 51,
              "position": 12.025,
              "duration": 0.483333
            },
            {
              "pitch": 71,
              "velocity": 71,
              "position": 12.741667,
              "duration": 0.375
            },
            {
              "pitch": 62,
              "velocity": 70,
              "position": 12.75,
              "duration": 0.2
            },
            {
              "pitch": 64,
              "velocity": 73,
              "position": 12.75,
              "duration": 0.233333
            },
            {
              "pitch": 55,
              "velocity": 64,
              "position": 12.766667,
              "duration": 0.2
            },
            {
              "pitch": 64,
              "velocity": 86,
              "position": 13.441667,
              "duration": 1.041667
            },
            {
              "pitch": 74,
              "velocity": 81,
              "position": 13.441667,
              "duration": 0.875
            },
            {
              "pitch": 52,
              "velocity": 68,
              "position": 13.45,
              "duration": 0.933333
            },
            {
              "pitch": 67,
              "velocity": 77,
              "position": 13.45,
              "duration": 0.708333
            },
            {
              "pitch": 59,
              "velocity": 64,
              "position": 13.458333,
              "duration": 0.891667
            },
            {
              "pitch": 71,
              "velocity": 24,
              "position": 15.716667,
              "duration": 0.166667
            },
            {
              "pitch": 83,
              "velocity": 20,
              "position": 15.716667,
              "duration": 0.166667
            },
            {
              "pitch": 59,
              "velocity": 23,
              "position": 15.733333,
              "duration": 0.15
            }
          ]
        },
        "12": {
          "ctab": {
            "srcChannel": 12,
            "name": "Guitar",
            "accType": "CHORD2",
            "editable": true,
            "mutedNotes": [],
            "mutedChords": [],
            "sourceChordNote": 0,
            "sourceChordType": "Maj7",
            "ctb2Main": {
              "ntr": "ROOT_FIXED",
              "ntt": "CHORD",
              "bassOn": false,
              "noteLowLimit": 40,
              "noteHighLimit": 76,
              "chordRootUpperLimit": 127,
              "rtr": "NOTE_GENERATOR"
            }
          },
          "notes": [
            {
              "pitch": 64,
              "velocity": 42,
              "position": 1.516667,
              "duration": 1.883333
            },
            {
              "pitch": 67,
              "velocity": 58,
              "position": 1.516667,
              "duration": 1.866667
            },
            {
              "pitch": 74,
              "velocity": 52,
              "position": 1.516667,
              "duration": 1.675
            },
            {
              "pitch": 64,
              "velocity": 51,
              "position": 4.116667,
              "duration": 0.316667
            },
            {
              "pitch": 74,
              "velocity": 51,
              "position": 4.116667,
              "duration": 0.366667
            },
            {
              "pitch": 64,
              "velocity": 55,
              "position": 4.666667,
              "duration": 0.391667
            },
            {
              "pitch": 67,
              "velocity": 54,
              "position": 5.175,
              "duration": 0.35
            },
            {
              "pitch": 62,
              "velocity": 55,
              "position": 5.75,
              "duration": 1.516667
            },
            {
              "pitch": 64,
              "velocity": 65,
              "position": 5.75,
              "duration": 1.516667
            },
            {
              "pitch": 71,
              "velocity": 46,
              "position": 5.775,
              "duration": 1.491667
            },
            {
              "pitch": 67,
              "velocity": 55,
              "position": 5.783333,
              "duration": 1.1
            },
            {
              "pitch": 67,
              "velocity": 34,
              "position": 7.475,
              "duration": 0.233333
            },
            {
              "pitch": 63,
              "velocity": 32,
              "position": 7.741667,
              "duration": 0.2
            },
            {
              "pitch": 71,
              "velocity": 56,
              "position": 8.058333,
              "duration": 0.241667
            },
            {
              "pitch": 76,
              "velocity": 59,
              "position": 8.058333,
              "duration": 0.25
            },
            {
              "pitch": 64,
              "velocity": 53,
              "position": 8.066667,
              "duration": 0.233333
            },
            {
              "pitch": 62,
              "velocity": 50,
              "position": 8.075,
              "duration": 0.225
            },
            {
              "pitch": 64,
              "velocity": 53,
              "position": 8.783333,
              "duration": 2.666667
            },
            {
              "pitch": 71,
              "velocity": 53,
              "position": 8.783333,
              "duration": 2.725
            },
            {
              "pitch": 76,
              "velocity": 59,
              "position": 8.791667,
              "duration": 2.733333
            },
            {
              "pitch": 62,
              "velocity": 50,
              "position": 8.8,
              "duration": 2.691667
            },
            {
              "pitch": 76,
              "velocity": 44,
              "position": 11.7,
              "duration": 0.883333
            },
            {
              "pitch": 71,
              "velocity": 47,
              "position": 11.716667,
              "duration": 0.858333
            },
            {
              "pitch": 64,
              "velocity": 50,
              "position": 11.725,
              "duration": 0.816667
            },
            {
              "pitch": 62,
              "velocity": 44,
              "position": 11.733333,
              "duration": 0.833333
            },
            {
              "pitch": 71,
              "velocity": 50,
              "position": 12.725,
              "duration": 2.141667
            },
            {
              "pitch": 76,
              "velocity": 50,
              "position": 12.725,
              "duration": 2.041667
            },
            {
              "pitch": 62,
              "velocity": 44,
              "position": 12.733333,
              "duration": 2.316667
            },
            {
              "pitch": 64,
              "velocity": 47,
              "position": 12.733333,
              "duration": 2.133333
            }
          ]
        },
        "13": {
          "ctab": {
            "srcChannel": 13,
            "name": "Strings",
            "accType": "PAD",
            "editable": true,
            "mutedNotes": [],
            "mutedChords": [],
            "sourceChordNote": 0,
            "sourceChordType": "Maj7",
            "ctb2Main": {
              "ntr": "ROOT_FIXED",
              "ntt": "MELODY",
              "bassOn": false,
              "noteLowLimit": 36,
              "noteHighLimit": 96,
              "chordRootUpperLimit": 127,
              "rtr": "PITCH_SHIFT"
            }
          },
          "notes": []
        }
      }
    },
    "Main_B": {
      "type": "Main_B",
      "sizeInBeats": 16,
      "channels": {
        "9": {
          "ctab": {
            "srcChannel": 9,
            "name": "Drums",
            "accType": "RHYTHM",
            "editable": false,
            "mutedNotes": [],
            "mutedChords": [],
            "sourceChordNote": 0,
            "sourceChordType": "Maj",
            "ctb2Main": {
              "ntr": "ROOT_FIXED",
              "ntt": "BYPASS",
              "bassOn": false,
              "noteLowLimit": 20,
              "noteHighLimit": 127,
              "chordRootUpperLimit": 127,
              "rtr": "RETRIGGER"
            }
          },
          "notes": [
            {
              "pitch": 53,
              "velocity": 103,
              "position": 0.0,
              "duration": 0.408333
            },
            {
              "pitch": 75,
              "velocity": 78,
              "position": 0.033333,
              "duration": 0.375
            },
            {
              "pitch": 61,
              "velocity": 85,
              "position": 0.208333,
              "duration": 0.316667
            },
            {
              "pitch": 62,
              "velocity": 98,
              "position": 0.691667,
              "duration": 0.383333
            },
            {
              "pitch": 36,
              "velocity": 94,
              "position": 0.7,
              "duration": 0.291667
            },
            {
              "pitch": 53,
              "velocity": 107,
              "position": 0.7,
              "duration": 0.175
            },
            {
              "pitch": 75,
              "velocity": 82,
              "position": 0.783333,
              "duration": 0.341667
            },
            {
              "pitch": 53,
              "velocity": 103,
              "position": 1.0,
              "duration": 0.383333
            },
            {
              "pitch": 61,
              "velocity": 71,
              "position": 1.208333,
              "duration": 0.125
            },
            {
              "pitch": 64,
              "velocity": 78,
              "position": 1.483333,
              "duration": 0.2
            },
            {
              "pitch": 53,
              "velocity": 98,
              "position": 1.683333,
              "duration": 0.15
            },
            {
              "pitch": 61,
              "velocity": 85,
              "position": 1.725,
              "duration": 0.166667
            },
            {
              "pitch": 75,
              "velocity": 85,
              "position": 1.791667,
              "duration": 0.241667
            },
            {
              "pitch": 53,
              "velocity": 94,
              "position": 1.983333,
              "duration": 0.25
            },
            {
              "pitch": 63,
              "velocity": 88,
              "position": 1.983333,
              "duration": 0.408333
            },
            {
              "pitch": 61,
              "velocity": 71,
              "position": 2.441667,
              "duration": 0.116667
            },
            {
              "pitch": 75,
              "velocity": 82,
              "position": 2.5,
              "duration": 0.158333
            },
            {
              "pitch": 53,
              "velocity": 111,
              "position": 2.508333,
              "duration": 0.216667
            },
            {
              "pitch": 63,
              "velocity": 92,
              "position": 2.716667,
              "duration": 0.425
            },
            {
              "pitch": 36,
              "velocity": 94,
              "position": 2.758333,
              "duration": 0.316667
            },
            {
              "pitch": 53,
              "velocity": 107,
              "position": 3.025,
              "duration": 0.391667
            },
            {
              "pitch": 75,
              "velocity": 85,
              "position": 3.033333,
              "duration": 0.208333
            },
            {
              "pitch": 61,
              "velocity": 68,
              "position": 3.191667,
              "duration": 0.133333
            },
            {
              "pitch": 64,
              "velocity": 90,
              "position": 3.466667,
              "duration": 0.308333
            },
            {
              "pitch": 53,
              "velocity": 98,
              "position": 3.683333,
              "duration": 0.141667
            },
            {
              "pitch": 61,
              "velocity": 96,
              "position": 3.7,
              "duration": 0.3
            },
            {
              "pitch": 75,
              "velocity": 86,
              "position": 4.033333,
              "duration": 0.183333
            },
            {
              "pitch": 53,
              "velocity": 115,
              "position": 4.058333,
              "duration": 0.258333
            },
            {
              "pitch": 61,
              "velocity": 92,
              "position": 4.266667,
              "duration": 0.3
            },
            {
              "pitch": 53,
              "velocity": 47,
              "position": 4.558333,
              "duration": 0.075
            },
            {
              "pitch": 62,
              "velocity": 88,
              "position": 4.733333,
              "duration": 0.416667
            },
            {
              "pitch": 75,
              "velocity": 89,
              "position": 4.758333,
              "duration": 0.2
            },
            {
              "pitch": 36,
              "velocity": 102,
              "position": 4.783333,
              "duration": 0.275
            },
            {
              "pitch": 53,
              "velocity": 107,
              "position": 4.783333,
              "duration": 0.258333
            },
            {
              "pitch": 61,
              "velocity": 89,
              "position": 5.233333,
              "duration": 0.175
            },
            {
              "pitch": 53,
              "velocity": 115,
              "position": 5.266667,
              "duration": 0.275
            },
            {
              "pitch": 36,
              "velocity": 102,
              "position": 5.283333,
              "duration": 0.258333
            },
            {
              "pitch": 64,
              "velocity": 73,
              "position": 5.5,
              "duration": 0.225
            },
            {
              "pitch": 61,
              "velocity": 86,
              "position": 5.758333,
              "duration": 0.183333
            },
            {
              "pitch": 75,
              "velocity": 86,
              "position": 5.758333,
              "duration": 0.2
            },
            {
              "pitch": 53,
              "velocity": 82,
              "position": 5.766667,
              "duration": 0.1
            },
            {
              "pitch": 63,
              "velocity": 86,
              "position": 6.025,
              "duration": 0.433333
            },
            {
              "pitch": 53,
              "velocity": 111,
              "position": 6.033333,
              "duration": 0.241667
            },
            {
              "pitch": 61,
              "velocity": 86,
              "position": 6.483333,
              "duration": 0.191667
            },
            {
              "pitch": 75,
              "velocity": 82,
              "position": 6.525,
              "duration": 0.166667
            },
            {
              "pitch": 53,
              "velocity": 111,
              "position": 6.541667,
              "duration": 0.275
            },
            {
              "pitch": 63,
              "velocity": 79,
              "position": 6.766667,
              "duration": 0.475
            },
            {
              "pitch": 36,
              "velocity": 94,
              "position": 6.783333,
              "duration": 0.241667
            },
            {
              "pitch": 53,
              "velocity": 79,
              "position": 7.041667,
              "duration": 0.091667
            },
            {
              "pitch": 75,
              "velocity": 86,
              "position": 7.041667,
              "duration": 0.166667
            },
            {
              "pitch": 61,
              "velocity": 89,
              "position": 7.25,
              "duration": 0.175
            },
            {
              "pitch": 53,
              "velocity": 107,
              "position": 7.3,
              "duration": 0.316667
            },
            {
              "pitch": 64,
              "velocity": 85,
              "position": 7.508333,
              "duration": 0.308333
            },
            {
              "pitch": 61,
              "velocity": 92,
              "position": 7.733333,
              "duration": 0.266667
            },
            {
              "pitch": 53,
              "velocity": 79,
              "position": 7.783333,
              "duration": 0.141667
            },
            {
              "pitch": 53,
              "velocity": 103,
              "position": 8.0,
              "duration": 0.408333
            },
            {
              "pitch": 75,
              "velocity": 78,
              "position": 8.033333,
              "duration": 0.375
            },
            {
              "pitch": 61,
              "velocity": 85,
              "position": 8.208333,
              "duration": 0.316667
            },
            {
              "pitch": 62,
              "velocity": 98,
              "position": 8.691667,
              "duration": 0.383333
            },
            {
              "pitch": 36,
              "velocity": 94,
              "position": 8.7,
              "duration": 0.291667
            },
            {
              "pitch": 53,
              "velocity": 107,
              "position": 8.7,
              "duration": 0.175
            },
            {
              "pitch": 75,
              "velocity": 82,
              "position": 8.783333,
              "duration": 0.341667
            },
            {
              "pitch": 53,
              "velocity": 103,
              "position": 9.0,
              "duration": 0.383333
            },
            {
              "pitch": 61,
              "velocity": 71,
              "position": 9.208333,
              "duration": 0.125
            },
            {
              "pitch": 64,
              "velocity": 78,
              "position": 9.483333,
              "duration": 0.2
            },
            {
              "pitch": 53,
              "velocity": 98,
              "position": 9.683333,
              "duration": 0.15
            },
            {
              "pitch": 61,
              "velocity": 85,
              "position": 9.725,
              "duration": 0.166667
            },
            {
              "pitch": 75,
              "velocity": 85,
              "position": 9.791667,
              "duration": 0.241667
            },
            {
              "pitch": 53,
              "velocity": 94,
              "position": 9.983333,
              "duration": 0.25
            },
            {
              "pitch": 63,
              "velocity": 88,
              "position": 9.983333,
              "duration": 0.408333
            },
            {
              "pitch": 61,
              "velocity": 71,
              "position": 10.441667,
              "duration": 0.116667
            },
            {
              "pitch": 75,
              "velocity": 82,
              "position": 10.5,
              "duration": 0.158333
            },
            {
              "pitch": 53,
              "velocity": 111,
              "position": 10.508333,
              "duration": 0.216667
            },
            {
              "pitch": 63,
              "velocity": 92,
              "position": 10.716667,
              "duration": 0.425
            },
            {
              "pitch": 36,
              "velocity": 94,
              "position": 10.758333,
              "duration": 0.316667
            },
            {
              "pitch": 53,
              "velocity": 107,
              "position": 11.025,
              "duration": 0.391667
            },
            {
              "pitch": 75,
              "velocity": 85,
              "position": 11.033333,
              "duration": 0.208333
            },
            {
              "pitch": 61,
              "velocity": 68,
              "position": 11.191667,
              "duration": 0.133333
            },
            {
              "pitch": 64,
              "velocity": 90,
              "position": 11.466667,
              "duration": 0.308333
            },
            {
              "pitch": 53,
              "velocity": 98,
              "position": 11.683333,
              "duration": 0.141667
            },
            {
              "pitch": 61,
              "velocity": 96,
              "position": 11.7,
              "duration": 0.3
            },
            {
              "pitch": 53,
              "velocity": 103,
              "position": 12.0,
              "duration": 0.258333
            },
            {
              "pitch": 61,
              "velocity": 96,
              "position": 12.0,
              "duration": 0.158333
            },
            {
              "pitch": 75,
              "velocity": 82,
              "position": 12.033333,
              "duration": 0.183333
            },
            {
              "pitch": 62,
              "velocity": 90,
              "position": 12.2,
              "duration": 0.241667
            },
            {
              "pitch": 53,
              "velocity": 56,
              "position": 12.466667,
              "duration": 0.108333
            },
            {
              "pitch": 36,
              "velocity": 90,
              "position": 12.691667,
              "duration": 0.275
            },
            {
              "pitch": 62,
              "velocity": 98,
              "position": 12.7,
              "duration": 0.433333
            },
            {
              "pitch": 53,
              "velocity": 103,
              "position": 12.716667,
              "duration": 0.25
            },
            {
              "pitch": 75,
              "velocity": 85,
              "position": 12.758333,
              "duration": 0.2
            },
            {
              "pitch": 61,
              "velocity": 88,
              "position": 13.208333,
              "duration": 0.183333
            },
            {
              "pitch": 36,
              "velocity": 84,
              "position": 13.233333,
              "duration": 0.291667
            },
            {
              "pitch": 53,
              "velocity": 107,
              "position": 13.233333,
              "duration": 0.241667
            },
            {
              "pitch": 64,
              "velocity": 84,
              "position": 13.491667,
              "duration": 0.216667
            },
            {
              "pitch": 61,
              "velocity": 92,
              "position": 13.716667,
              "duration": 0.166667
            },
            {
              "pitch": 53,
              "velocity": 78,
              "position": 13.733333,
              "duration": 0.133333
            },
            {
              "pitch": 75,
              "velocity": 82,
              "position": 13.758333,
              "duration": 0.2
            },
            {
              "pitch": 53,
              "velocity": 103,
              "position": 13.991667,
              "duration": 0.166667
            },
            {
              "pitch": 63,
              "velocity": 88,
              "position": 14.0,
              "duration": 0.425
            },
            {
              "pitch": 48,
              "velocity": 118,
              "position": 14.258333,
              "duration": 0.166667
            },
            {
              "pitch": 61,
              "velocity": 78,
              "position": 14.483333,
              "duration": 0.141667
            },
            {
              "pitch": 48,
              "velocity": 118,
              "position": 14.516667,
              "duration": 0.391667
            },
            {
              "pitch": 75,
              "velocity": 78,
              "position": 14.525,
              "duration": 0.166667
            },
            {
              "pitch": 63,
              "velocity": 96,
              "position": 14.75,
              "duration": 0.441667
            },
            {
              "pitch": 75,
              "velocity": 82,
              "position": 15.041667,
              "duration": 0.166667
            },
            {
              "pitch": 43,
              "velocity": 115,
              "position": 15.225,
              "duration": 0.158333
            },
            {
              "pitch": 48,
              "velocity": 111,
              "position": 15.225,
              "duration": 0.141667
            },
            {
              "pitch": 61,
              "velocity": 75,
              "position": 15.233333,
              "duration": 0.191667
            },
            {
              "pitch": 43,
              "velocity": 115,
              "position": 15.475,
              "duration": 0.291667
            },
            {
              "pitch": 64,
              "velocity": 90,
              "position": 15.483333,
              "duration": 0.291667
            },
            {
              "pitch": 48,
              "velocity": 107,
              "position": 15.491667,
              "duration": 0.241667
            },
            {
              "pitch": 61,
              "velocity": 104,
              "position": 15.733333,
              "duration": 0.241667
            }
          ]
        },
        "10": {
          "ctab": {
            "srcChannel": 10,
            "name": "Bass",
            "accType": "BASS",
            "editable": true,
            "mutedNotes": [],
            "mutedChords": [],
            "sourceChordNote": 0,
            "sourceChordType": "Maj7",
            "ctb2Main": {
              "ntr": "ROOT_TRANSPOSITION",
              "ntt": "BYPASS",
              "bassOn": true,
              "noteLowLimit": 20,
              "noteHighLimit": 60,
              "chordRootUpperLimit": 127,
              "rtr": "NOTE_GENERATOR"
            }
          },
          "notes": [
            {
              "pitch": 36,
              "velocity": 80,
              "position": 0.0,
              "duration": 0.758333
            },
            {
              "pitch": 43,
              "velocity": 93,
              "position": 0.733333,
              "duration": 0.658333
            },
            {
              "pitch": 36,
              "velocity": 80,
              "position": 2.0,
              "duration": 0.758333
            },
            {
              "pitch": 43,
              "velocity": 93,
              "position": 2.733333,
              "duration": 0.658333
            },
            {
              "pitch": 48,
              "velocity": 88,
              "position": 3.5,
              "duration": 1.258333
            },
            {
              "pitch": 40,
              "velocity": 85,
              "position": 4.75,
              "duration": 0.65
            },
            {
              "pitch": 36,
              "velocity": 73,
              "position": 5.516667,
              "duration": 0.083333
            },
            {
              "pitch": 43,
              "velocity": 89,
              "position": 6.7,
              "duration": 0.2
            },
            {
              "pitch": 43,
              "velocity": 97,
              "position": 7.0,
              "duration": 0.416667
            },
            {
              "pitch": 36,
              "velocity": 85,
              "position": 7.5,
              "duration": 0.108333
            },
            {
              "pitch": 43,
              "velocity": 98,
              "position": 8.733333,
              "duration": 0.725
            },
            {
              "pitch": 36,
              "velocity": 82,
              "position": 9.491667,
              "duration": 1.225
            },
            {
              "pitch": 31,
              "velocity": 85,
              "position": 10.758333,
              "duration": 0.45
            },
            {
              "pitch": 43,
              "velocity": 89,
              "position": 11.241667,
              "duration": 0.375
            },
            {
              "pitch": 36,
              "velocity": 88,
              "position": 11.741667,
              "duration": 0.25
            },
            {
              "pitch": 36,
              "velocity": 85,
              "position": 11.991667,
              "duration": 0.741667
            },
            {
              "pitch": 43,
              "velocity": 94,
              "position": 12.733333,
              "duration": 0.641667
            },
            {
              "pitch": 36,
              "velocity": 82,
              "position": 13.483333,
              "duration": 1.491667
            },
            {
              "pitch": 31,
              "velocity": 82,
              "position": 14.991667,
              "duration": 0.641667
            },
            {
              "pitch": 36,
              "velocity": 79,
              "position": 15.516667,
              "duration": 0.35
            }
          ]
        },
        "11": {
          "ctab": {
            "srcChannel": 11,
            "name": "Piano",
            "accType": "CHORD1",
            "editable": true,
            "mutedNotes": [],
            "mutedChords": [],
            "sourceChordNote": 0,
            "sourceChordType": "Maj7",
            "ctb2Main": {
              "ntr": "ROOT_FIXED",
              "ntt": "CHORD",
              "bassOn": false,
              "noteLowLimit": 48,
              "noteHighLimit": 84,
              "chordRootUpperLimit": 127,
              "rtr": "NOTE_GENERATOR"
            }
          },
          "notes": [
            {
              "pitch": 79,
              "velocity": 62,
              "position": 0.016667,
              "duration": 0.175
            },
            {
              "pitch": 52,
              "velocity": 62,
              "position": 0.025,
              "duration": 0.166667
            },
            {
              "pitch": 67,
              "velocity": 62,
              "position": 0.025,
              "duration": 0.166667
            },
            {
              "pitch": 74,
              "velocity": 56,
              "position": 0.233333,
              "duration": 0.3
            },
            {
              "pitch": 76,
              "velocity": 62,
              "position": 0.233333,
              "duration": 0.358333
            },
            {
              "pitch": 59,
              "velocity": 68,
              "position": 0.241667,
              "duration": 0.358333
            },
            {
              "pitch": 64,
              "velocity": 77,
              "position": 0.241667,
              "duration": 0.241667
            },
            {
              "pitch": 67,
              "velocity": 81,
              "position": 0.741667,
              "duration": 0.325
            },
            {
              "pitch": 79,
              "velocity": 77,
              "position": 0.741667,
              "duration": 0.341667
            },
            {
              "pitch": 52,
              "velocity": 72,
              "position": 0.758333,
              "duration": 0.316667
            },
            {
              "pitch": 74,
              "velocity": 65,
              "position": 1.225,
              "duration": 0.283333
            },
            {
              "pitch": 76,
              "velocity": 65,
              "position": 1.233333,
              "duration": 0.333333
            },
            {
              "pitch": 59,
              "velocity": 68,
              "position": 1.241667,
              "duration": 0.358333
            },
            {
              "pitch": 64,
              "velocity": 90,
              "position": 1.241667,
              "duration": 0.258333
            },
            {
              "pitch": 52,
              "velocity": 34,
              "position": 1.691667,
              "duration": 0.083333
            },
            {
              "pitch": 79,
              "velocity": 43,
              "position": 1.725,
              "duration": 0.125
            },
            {
              "pitch": 67,
              "velocity": 35,
              "position": 1.733333,
              "duration": 0.075
            },
            {
              "pitch": 52,
              "velocity": 72,
              "position": 2.0,
              "duration": 0.458333
            },
            {
              "pitch": 71,
              "velocity": 85,
              "position": 2.0,
              "duration": 0.283333
            },
            {
              "pitch": 83,
              "velocity": 78,
              "position": 2.0,
              "duration": 0.291667
            },
            {
              "pitch": 59,
              "velocity": 42,
              "position": 2.25,
              "duration": 0.366667
            },
            {
              "pitch": 76,
              "velocity": 72,
              "position": 2.25,
              "duration": 0.266667
            },
            {
              "pitch": 64,
              "velocity": 52,
              "position": 2.5,
              "duration": 0.225
            },
            {
              "pitch": 79,
              "velocity": 55,
              "position": 2.5,
              "duration": 0.166667
            },
            {
              "pitch": 52,
              "velocity": 72,
              "position": 2.75,
              "duration": 0.158333
            },
            {
              "pitch": 71,
              "velocity": 72,
              "position": 2.75,
              "duration": 0.158333
            },
            {
              "pitch": 83,
              "velocity": 66,
              "position": 2.75,
              "duration": 0.158333
            },
            {
              "pitch": 52,
              "velocity": 75,
              "position": 3.0,
              "duration": 0.416667
            },
            {
              "pitch": 71,
              "velocity": 85,
              "position": 3.0,
              "duration": 0.575
            },
            {
              "pitch": 83,
              "velocity": 85,
              "position": 3.0,
              "duration": 0.541667
            },
            {
              "pitch": 59,
              "velocity": 42,
              "position": 3.233333,
              "duration": 0.308333
            },
            {
              "pitch": 52,
              "velocity": 66,
              "position": 3.75,
              "duration": 0.516667
            },
            {
              "pitch": 59,
              "velocity": 62,
              "position": 3.75,
              "duration": 0.55
            },
            {
              "pitch": 64,
              "velocity": 82,
              "position": 3.75,
              "duration": 0.508333
            },
            {
              "pitch": 74,
              "velocity": 50,
              "position": 3.75,
              "duration": 0.475
            },
            {
              "pitch": 76,
              "velocity": 55,
              "position": 3.75,
              "duration": 0.541667
            },
            {
              "pitch": 86,
              "velocity": 56,
              "position": 3.75,
              "duration": 0.491667
            },
            {
              "pitch": 76,
              "velocity": 72,
              "position": 4.658333,
              "duration": 1.225
            },
            {
              "pitch": 86,
              "velocity": 74,
              "position": 4.658333,
              "duration": 1.225
            },
            {
              "pitch": 52,
              "velocity": 84,
              "position": 4.675,
              "duration": 1.208333
            },
            {
              "pitch": 64,
              "velocity": 91,
              "position": 4.675,
              "duration": 1.208333
            },
            {
              "pitch": 74,
              "velocity": 50,
              "position": 4.683333,
              "duration": 1.2
            },
            {
              "pitch": 59,
              "velocity": 65,
              "position": 4.691667,
              "duration": 1.191667
            },
            {
              "pitch": 52,
              "velocity": 71,
              "position": 6.0,
              "duration": 0.491667
            },
            {
              "pitch": 71,
              "velocity": 90,
              "position": 6.016667,
              "duration": 0.516667
            },
            {
              "pitch": 83,
              "velocity": 85,
              "position": 6.025,
              "duration": 0.491667
            },
            {
              "pitch": 59,
              "velocity": 46,
              "position": 6.233333,
              "duration": 0.408333
            },
            {
              "pitch": 76,
              "velocity": 30,
              "position": 6.283333,
              "duration": 0.258333
            },
            {
              "pitch": 64,
              "velocity": 56,
              "position": 6.5,
              "duration": 0.2
            },
            {
              "pitch": 71,
              "velocity": 81,
              "position": 6.75,
              "duration": 0.15
            },
            {
              "pitch": 52,
              "velocity": 56,
              "position": 6.758333,
              "duration": 0.091667
            },
            {
              "pitch": 83,
              "velocity": 77,
              "position": 6.758333,
              "duration": 0.158333
            },
            {
              "pitch": 52,
              "velocity": 59,
              "position": 7.033333,
              "duration": 0.383333
            },
            {
              "pitch": 71,
              "velocity": 77,
              "position": 7.041667,
              "duration": 0.233333
            },
            {
              "pitch": 83,
              "velocity": 81,
              "position": 7.05,
              "duration": 0.308333
            },
            {
              "pitch": 79,
              "velocity": 65,
              "position": 7.75,
              "duration": 0.441667
            },
            {
              "pitch": 52,
              "velocity": 65,
              "position": 7.775,
              "duration": 0.425
            },
            {
              "pitch": 67,
              "velocity": 65,
              "position": 7.775,
              "duration": 0.425
            },
            {
              "pitch": 59,
              "velocity": 67,
              "position": 8.241667,
              "duration": 0.45
            },
            {
              "pitch": 62,
              "velocity": 70,
              "position": 8.258333,
              "duration": 0.325
            },
            {
              "pitch": 74,
              "velocity": 73,
              "position": 8.266667,
              "duration": 0.35
            },
            {
              "pitch": 76,
              "velocity": 61,
              "position": 8.266667,
              "duration": 0.333333
            },
            {
              "pitch": 67,
              "velocity": 64,
              "position": 8.291667,
              "duration": 0.233333
            },
            {
              "pitch": 67,
              "velocity": 83,
              "position": 8.758333,
              "duration": 0.308333
            },
            {
              "pitch": 79,
              "velocity": 76,
              "position": 8.766667,
              "duration": 0.35
            },
            {
              "pitch": 52,
              "velocity": 73,
              "position": 8.775,
              "duration": 0.325
            },
            {
              "pitch": 59,
              "velocity": 67,
              "position": 9.241667,
              "duration": 0.275
            },
            {
              "pitch": 62,
              "velocity": 73,
              "position": 9.241667,
              "duration": 0.216667
            },
            {
              "pitch": 74,
              "velocity": 73,
              "position": 9.241667,
              "duration": 0.275
            },
            {
              "pitch": 76,
              "velocity": 55,
              "position": 9.25,
              "duration": 0.258333
            },
            {
              "pitch": 67,
              "velocity": 20,
              "position": 9.3,
              "duration": 0.116667
            },
            {
              "pitch": 59,
              "velocity": 48,
              "position": 9.75,
              "duration": 0.216667
            },
            {
              "pitch": 62,
              "velocity": 61,
              "position": 9.75,
              "duration": 0.2
            },
            {
              "pitch": 74,
              "velocity": 61,
              "position": 9.75,
              "duration": 0.166667
            },
            {
              "pitch": 76,
              "velocity": 64,
              "position": 9.75,
              "duration": 0.133333
            },
            {
              "pitch": 52,
              "velocity": 73,
              "position": 10.0,
              "duration": 0.416667
            },
            {
              "pitch": 67,
              "velocity": 76,
              "position": 10.0,
              "duration": 0.366667
            },
            {
              "pitch": 79,
              "velocity": 73,
              "position": 10.0,
              "duration": 0.416667
            },
            {
              "pitch": 76,
              "velocity": 61,
              "position": 10.483333,
              "duration": 0.45
            },
            {
              "pitch": 59,
              "velocity": 70,
              "position": 10.5,
              "duration": 0.258333
            },
            {
              "pitch": 62,
              "velocity": 73,
              "position": 10.5,
              "duration": 0.2
            },
            {
              "pitch": 74,
              "velocity": 73,
              "position": 10.5,
              "duration": 0.241667
            },
            {
              "pitch": 52,
              "velocity": 70,
              "position": 11.0,
              "duration": 0.191667
            },
            {
              "pitch": 67,
              "velocity": 83,
              "position": 11.0,
              "duration": 0.191667
            },
            {
              "pitch": 79,
              "velocity": 83,
              "position": 11.0,
              "duration": 0.191667
            },
            {
              "pitch": 59,
              "velocity": 48,
              "position": 11.225,
              "duration": 0.241667
            },
            {
              "pitch": 62,
              "velocity": 70,
              "position": 11.5,
              "duration": 0.183333
            },
            {
              "pitch": 52,
              "velocity": 70,
              "position": 11.75,
              "duration": 0.358333
            },
            {
              "pitch": 67,
              "velocity": 73,
              "position": 11.75,
              "duration": 0.3
            },
            {
              "pitch": 79,
              "velocity": 73,
              "position": 11.75,
              "duration": 0.325
            },
            {
              "pitch": 59,
              "velocity": 64,
              "position": 12.25,
              "duration": 0.35
            },
            {
              "pitch": 62,
              "velocity": 70,
              "position": 12.25,
              "duration": 0.266667
            },
            {
              "pitch": 67,
              "velocity": 58,
              "position": 12.25,
              "duration": 0.216667
            },
            {
              "pitch": 74,
              "velocity": 73,
              "position": 12.25,
              "duration": 0.316667
            },
            {
              "pitch": 76,
              "velocity": 61,
              "position": 12.25,
              "duration": 0.316667
            },
            {
              "pitch": 52,
              "velocity": 70,
              "position": 12.75,
              "duration": 0.375
            },
            {
              "pitch": 67,
              "velocity": 83,
              "position": 12.75,
              "duration": 0.6
            },
            {
              "pitch": 79,
              "velocity": 76,
              "position": 12.75,
              "duration": 0.35
            },
            {
              "pitch": 59,
              "velocity": 64,
              "position": 13.216667,
              "duration": 0.291667
            },
            {
              "pitch": 62,
              "velocity": 73,
              "position": 13.216667,
              "duration": 0.241667
            },
            {
              "pitch": 74,
              "velocity": 70,
              "position": 13.216667,
              "duration": 0.3
            },
            {
              "pitch": 76,
              "velocity": 55,
              "position": 13.216667,
              "duration": 0.3
            },
            {
              "pitch": 67,
              "velocity": 73,
              "position": 13.683333,
              "duration": 0.158333
            },
            {
              "pitch": 79,
              "velocity": 67,
              "position": 13.683333,
              "duration": 0.15
            },
            {
              "pitch": 52,
              "velocity": 76,
              "position": 13.691667,
              "duration": 0.166667
            },
            {
              "pitch": 67,
              "velocity": 70,
              "position": 13.991667,
              "duration": 0.375
            },
            {
              "pitch": 79,
              "velocity": 61,
              "position": 13.991667,
              "duration": 0.4
            },
            {
              "pitch": 52,
              "velocity": 67,
              "position": 14.016667,
              "duration": 0.383333
            },
            {
              "pitch": 59,
              "velocity": 67,
              "position": 14.475,
              "duration": 0.325
            },
            {
              "pitch": 62,
              "velocity": 70,
              "position": 14.475,
              "duration": 0.233333
            },
            {
              "pitch": 74,
              "velocity": 70,
              "position": 14.475,
              "duration": 0.25
            },
            {
              "pitch": 76,
              "velocity": 58,
              "position": 14.483333,
              "duration": 0.25
            },
            {
              "pitch": 52,
              "velocity": 73,
              "position": 14.991667,
              "duration": 0.558333
            },
            {
              "pitch": 67,
              "velocity": 73,
              "position": 15.016667,
              "duration": 0.558333
            },
            {
              "pitch": 79,
              "velocity": 73,
              "position": 15.016667,
              "duration": 0.558333
            },
            {
              "pitch": 67,
              "velocity": 63,
              "position": 15.758333,
              "duration": 0.425
            },
            {
              "pitch": 79,
              "velocity": 63,
              "position": 15.758333,
              "duration": 0.425
            },
            {
              "pitch": 52,
              "velocity": 63,
              "position": 15.775,
              "duration": 0.416667
            }
          ]
        },
        "12": {
          "ctab": {
            "srcChannel": 12,
            "name": "Guitar",
            "accType": "CHORD2",
            "editable": true,
            "mutedNotes": [],
            "mutedChords": [],
            "sourceChordNote": 0,
            "sourceChordType": "Maj7",
            "ctb2Main": {
              "ntr": "ROOT_FIXED",
              "ntt": "CHORD",
              "bassOn": false,
              "noteLowLimit": 40,
              "noteHighLimit": 76,
              "chordRootUpperLimit": 127,
              "rtr": "NOTE_GENERATOR"
            }
          },
          "notes": [
            {
              "pitch": 62,
              "velocity": 56,
              "position": 0.0,
              "duration": 0.641667
            },
            {
              "pitch": 64,
              "velocity": 66,
              "position": 0.0,
              "duration": 0.641667
            },
            {
              "pitch": 71,
              "velocity": 47,
              "position": 0.025,
              "duration": 0.625
            },
            {
              "pitch": 67,
              "velocity": 56,
              "position": 0.033333,
              "duration": 0.616667
            },
            {
              "pitch": 64,
              "velocity": 45,
              "position": 0.741667,
              "duration": 0.641667
            },
            {
              "pitch": 67,
              "velocity": 45,
              "position": 0.741667,
              "duration": 0.641667
            },
            {
              "pitch": 71,
              "velocity": 43,
              "position": 0.758333,
              "duration": 0.625
            },
            {
              "pitch": 62,
              "velocity": 55,
              "position": 1.75,
              "duration": 1.516667
            },
            {
              "pitch": 64,
              "velocity": 65,
              "position": 1.75,
              "duration": 0.133333
            },
            {
              "pitch": 71,
              "velocity": 46,
              "position": 1.775,
              "duration": 0.1
            },
            {
              "pitch": 67,
              "velocity": 55,
              "position": 1.783333,
              "duration": 0.1
            },
            {
              "pitch": 64,
              "velocity": 49,
              "position": 3.508333,
              "duration": 1.725
            },
            {
              "pitch": 71,
              "velocity": 52,
              "position": 3.508333,
              "duration": 1.633333
            },
            {
              "pitch": 64,
              "velocity": 51,
              "position": 6.116667,
              "duration": 0.316667
            },
            {
              "pitch": 74,
              "velocity": 51,
              "position": 6.116667,
              "duration": 0.366667
            },
            {
              "pitch": 64,
              "velocity": 55,
              "position": 6.666667,
              "duration": 0.391667
            },
            {
              "pitch": 67,
              "velocity": 54,
              "position": 7.175,
              "duration": 0.35
            },
            {
              "pitch": 74,
              "velocity": 27,
              "position": 7.7,
              "duration": 0.183333
            },
            {
              "pitch": 64,
              "velocity": 47,
              "position": 8.0,
              "duration": 0.541667
            },
            {
              "pitch": 74,
              "velocity": 49,
              "position": 8.0,
              "duration": 0.608333
            },
            {
              "pitch": 64,
              "velocity": 43,
              "position": 8.816667,
              "duration": 0.633333
            },
            {
              "pitch": 74,
              "velocity": 55,
              "position": 8.825,
              "duration": 0.7
            },
            {
              "pitch": 64,
              "velocity": 43,
              "position": 9.716667,
              "duration": 0.35
            },
            {
              "pitch": 74,
              "velocity": 29,
              "position": 9.733333,
              "duration": 0.3
            },
            {
              "pitch": 59,
              "velocity": 43,
              "position": 10.025,
              "duration": 0.575
            },
            {
              "pitch": 67,
              "velocity": 59,
              "position": 10.033333,
              "duration": 0.375
            },
            {
              "pitch": 71,
              "velocity": 57,
              "position": 10.5,
              "duration": 0.391667
            },
            {
              "pitch": 64,
              "velocity": 46,
              "position": 10.525,
              "duration": 0.408333
            },
            {
              "pitch": 64,
              "velocity": 55,
              "position": 10.975,
              "duration": 0.6
            },
            {
              "pitch": 76,
              "velocity": 55,
              "position": 10.991667,
              "duration": 0.583333
            },
            {
              "pitch": 64,
              "velocity": 65,
              "position": 11.666667,
              "duration": 0.383333
            },
            {
              "pitch": 74,
              "velocity": 59,
              "position": 11.683333,
              "duration": 0.391667
            }
          ]
        },
        "13": {
          "ctab": {
            "srcChannel": 13,
            "name": "Strings",
            "accType": "PAD",
            "editable": true,
            "mutedNotes": [],
            "mutedChords": [],
            "sourceChordNote": 0,
            "sourceChordType": "Maj7",
            "ctb2Main": {
              "ntr": "ROOT_FIXED",
              "ntt": "MELODY",
              "bassOn": false,
              "noteLowLimit": 36,
              "noteHighLimit": 96,
              "chordRootUpperLimit": 127,
              "rtr": "PITCH_SHIFT"
            }
          },
          "notes": []
        }
      }
    },
    "Main_C": {
      "type": "Main_C",
      "sizeInBeats": 16,
      "channels": {
        "9": {
          "ctab": {
            "srcChannel": 9,
            "name": "Drums",
            "accType": "RHYTHM",
            "editable": false,
            "mutedNotes": [],
            "mutedChords": [],
            "sourceChordNote": 0,
            "sourceChordType": "Maj",
            "ctb2Main": {
              "ntr": "ROOT_FIXED",
              "ntt": "BYPASS",
              "bassOn": false,
              "noteLowLimit": 20,
              "noteHighLimit": 127,
              "chordRootUpperLimit": 127,
              "rtr": "RETRIGGER"
            }
          },
          "notes": [
            {
              "pitch": 36,
              "velocity": 95,
              "position": 0.0,
              "duration": 0.316667
            },
            {
              "pitch": 49,
              "velocity": 88,
              "position": 0.0,
              "duration": 0.216667
            },
            {
              "pitch": 75,
              "velocity": 83,
              "position": 0.033333,
              "duration": 0.375
            },
            {
              "pitch": 61,
              "velocity": 49,
              "position": 0.175,
              "duration": 0.325
            },
            {
              "pitch": 62,
              "velocity": 95,
              "position": 0.658333,
              "duration": 0.466667
            },
            {
              "pitch": 36,
              "velocity": 66,
              "position": 0.708333,
              "duration": 0.225
            },
            {
              "pitch": 53,
              "velocity": 112,
              "position": 0.716667,
              "duration": 0.233333
            },
            {
              "pitch": 75,
              "velocity": 87,
              "position": 0.783333,
              "duration": 0.341667
            },
            {
              "pitch": 61,
              "velocity": 80,
              "position": 1.208333,
              "duration": 0.191667
            },
            {
              "pitch": 53,
              "velocity": 112,
              "position": 1.216667,
              "duration": 0.25
            },
            {
              "pitch": 64,
              "velocity": 83,
              "position": 1.483333,
              "duration": 0.216667
            },
            {
              "pitch": 53,
              "velocity": 103,
              "position": 1.716667,
              "duration": 0.166667
            },
            {
              "pitch": 61,
              "velocity": 87,
              "position": 1.716667,
              "duration": 0.241667
            },
            {
              "pitch": 75,
              "velocity": 90,
              "position": 1.791667,
              "duration": 0.241667
            },
            {
              "pitch": 53,
              "velocity": 120,
              "position": 1.983333,
              "duration": 0.225
            },
            {
              "pitch": 63,
              "velocity": 83,
              "position": 1.991667,
              "duration": 0.5
            },
            {
              "pitch": 61,
              "velocity": 80,
              "position": 2.475,
              "duration": 0.225
            },
            {
              "pitch": 53,
              "velocity": 120,
              "position": 2.483333,
              "duration": 0.225
            },
            {
              "pitch": 75,
              "velocity": 87,
              "position": 2.5,
              "duration": 0.158333
            },
            {
              "pitch": 36,
              "velocity": 89,
              "position": 2.725,
              "duration": 0.266667
            },
            {
              "pitch": 63,
              "velocity": 83,
              "position": 2.775,
              "duration": 0.45
            },
            {
              "pitch": 53,
              "velocity": 80,
              "position": 2.991667,
              "duration": 0.083333
            },
            {
              "pitch": 75,
              "velocity": 90,
              "position": 3.033333,
              "duration": 0.208333
            },
            {
              "pitch": 53,
              "velocity": 116,
              "position": 3.241667,
              "duration": 0.35
            },
            {
              "pitch": 61,
              "velocity": 67,
              "position": 3.266667,
              "duration": 0.183333
            },
            {
              "pitch": 64,
              "velocity": 83,
              "position": 3.525,
              "duration": 0.325
            },
            {
              "pitch": 61,
              "velocity": 90,
              "position": 3.741667,
              "duration": 0.258333
            },
            {
              "pitch": 53,
              "velocity": 89,
              "position": 3.775,
              "duration": 0.15
            },
            {
              "pitch": 53,
              "velocity": 116,
              "position": 4.025,
              "duration": 0.258333
            },
            {
              "pitch": 75,
              "velocity": 83,
              "position": 4.033333,
              "duration": 0.183333
            },
            {
              "pitch": 61,
              "velocity": 97,
              "position": 4.216667,
              "duration": 0.283333
            },
            {
              "pitch": 36,
              "velocity": 99,
              "position": 4.716667,
              "duration": 0.241667
            },
            {
              "pitch": 53,
              "velocity": 108,
              "position": 4.716667,
              "duration": 0.166667
            },
            {
              "pitch": 62,
              "velocity": 99,
              "position": 4.716667,
              "duration": 0.408333
            },
            {
              "pitch": 75,
              "velocity": 86,
              "position": 4.758333,
              "duration": 0.2
            },
            {
              "pitch": 53,
              "velocity": 104,
              "position": 5.025,
              "duration": 0.458333
            },
            {
              "pitch": 61,
              "velocity": 72,
              "position": 5.225,
              "duration": 0.1
            },
            {
              "pitch": 64,
              "velocity": 88,
              "position": 5.475,
              "duration": 0.208333
            },
            {
              "pitch": 53,
              "velocity": 104,
              "position": 5.716667,
              "duration": 0.15
            },
            {
              "pitch": 61,
              "velocity": 93,
              "position": 5.716667,
              "duration": 0.158333
            },
            {
              "pitch": 75,
              "velocity": 83,
              "position": 5.758333,
              "duration": 0.2
            },
            {
              "pitch": 63,
              "velocity": 86,
              "position": 5.966667,
              "duration": 0.425
            },
            {
              "pitch": 53,
              "velocity": 95,
              "position": 6.016667,
              "duration": 0.233333
            },
            {
              "pitch": 61,
              "velocity": 47,
              "position": 6.475,
              "duration": 0.091667
            },
            {
              "pitch": 53,
              "velocity": 112,
              "position": 6.5,
              "duration": 0.233333
            },
            {
              "pitch": 75,
              "velocity": 79,
              "position": 6.525,
              "duration": 0.166667
            },
            {
              "pitch": 63,
              "velocity": 89,
              "position": 6.7,
              "duration": 0.45
            },
            {
              "pitch": 36,
              "velocity": 95,
              "position": 6.716667,
              "duration": 0.325
            },
            {
              "pitch": 53,
              "velocity": 112,
              "position": 7.025,
              "duration": 0.458333
            },
            {
              "pitch": 75,
              "velocity": 83,
              "position": 7.041667,
              "duration": 0.166667
            },
            {
              "pitch": 61,
              "velocity": 76,
              "position": 7.2,
              "duration": 0.116667
            },
            {
              "pitch": 64,
              "velocity": 88,
              "position": 7.441667,
              "duration": 0.283333
            },
            {
              "pitch": 61,
              "velocity": 93,
              "position": 7.683333,
              "duration": 0.25
            },
            {
              "pitch": 53,
              "velocity": 91,
              "position": 7.708333,
              "duration": 0.15
            },
            {
              "pitch": 53,
              "velocity": 103,
              "position": 8.0,
              "duration": 0.408333
            },
            {
              "pitch": 75,
              "velocity": 78,
              "position": 8.033333,
              "duration": 0.375
            },
            {
              "pitch": 61,
              "velocity": 85,
              "position": 8.208333,
              "duration": 0.316667
            },
            {
              "pitch": 62,
              "velocity": 98,
              "position": 8.691667,
              "duration": 0.383333
            },
            {
              "pitch": 36,
              "velocity": 94,
              "position": 8.7,
              "duration": 0.291667
            },
            {
              "pitch": 53,
              "velocity": 107,
              "position": 8.7,
              "duration": 0.175
            },
            {
              "pitch": 75,
              "velocity": 82,
              "position": 8.783333,
              "duration": 0.341667
            },
            {
              "pitch": 53,
              "velocity": 103,
              "position": 9.0,
              "duration": 0.383333
            },
            {
              "pitch": 61,
              "velocity": 71,
              "position": 9.208333,
              "duration": 0.125
            },
            {
              "pitch": 64,
              "velocity": 78,
              "position": 9.483333,
              "duration": 0.2
            },
            {
              "pitch": 53,
              "velocity": 98,
              "position": 9.683333,
              "duration": 0.15
            },
            {
              "pitch": 61,
              "velocity": 85,
              "position": 9.725,
              "duration": 0.166667
            },
            {
              "pitch": 75,
              "velocity": 85,
              "position": 9.791667,
              "duration": 0.241667
            },
            {
              "pitch": 53,
              "velocity": 94,
              "position": 9.983333,
              "duration": 0.25
            },
            {
              "pitch": 63,
              "velocity": 88,
              "position": 9.983333,
              "duration": 0.408333
            },
            {
              "pitch": 61,
              "velocity": 71,
              "position": 10.441667,
              "duration": 0.116667
            },
            {
              "pitch": 75,
              "velocity": 82,
              "position": 10.5,
              "duration": 0.158333
            },
            {
              "pitch": 53,
              "velocity": 111,
              "position": 10.508333,
              "duration": 0.216667
            },
            {
              "pitch": 63,
              "velocity": 92,
              "position": 10.716667,
              "duration": 0.425
            },
            {
              "pitch": 36,
              "velocity": 94,
              "position": 10.758333,
              "duration": 0.316667
            },
            {
              "pitch": 53,
              "velocity": 107,
              "position": 11.025,
              "duration": 0.391667
            },
            {
              "pitch": 75,
              "velocity": 85,
              "position": 11.033333,
              "duration": 0.208333
            },
            {
              "pitch": 61,
              "velocity": 68,
              "position": 11.191667,
              "duration": 0.133333
            },
            {
              "pitch": 64,
              "velocity": 90,
              "position": 11.466667,
              "duration": 0.308333
            },
            {
              "pitch": 53,
              "velocity": 98,
              "position": 11.683333,
              "duration": 0.141667
            },
            {
              "pitch": 61,
              "velocity": 96,
              "position": 11.7,
              "duration": 0.3
            },
            {
              "pitch": 61,
              "velocity": 81,
              "position": 12.0,
              "duration": 0.191667
            },
            {
              "pitch": 75,
              "velocity": 81,
              "position": 12.033333,
              "duration": 0.183333
            },
            {
              "pitch": 50,
              "velocity": 97,
              "position": 12.166667,
              "duration": 0.141667
            },
            {
              "pitch": 62,
              "velocity": 86,
              "position": 12.258333,
              "duration": 0.225
            },
            {
              "pitch": 50,
              "velocity": 102,
              "position": 12.458333,
              "duration": 0.25
            },
            {
              "pitch": 62,
              "velocity": 89,
              "position": 12.733333,
              "duration": 0.391667
            },
            {
              "pitch": 75,
              "velocity": 84,
              "position": 12.758333,
              "duration": 0.2
            },
            {
              "pitch": 61,
              "velocity": 70,
              "position": 13.183333,
              "duration": 0.2
            },
            {
              "pitch": 48,
              "velocity": 97,
              "position": 13.2,
              "duration": 0.133333
            },
            {
              "pitch": 64,
              "velocity": 89,
              "position": 13.466667,
              "duration": 0.25
            },
            {
              "pitch": 48,
              "velocity": 106,
              "position": 13.483333,
              "duration": 0.333333
            },
            {
              "pitch": 61,
              "velocity": 91,
              "position": 13.716667,
              "duration": 0.183333
            },
            {
              "pitch": 75,
              "velocity": 81,
              "position": 13.758333,
              "duration": 0.2
            },
            {
              "pitch": 63,
              "velocity": 84,
              "position": 14.0,
              "duration": 0.441667
            },
            {
              "pitch": 47,
              "velocity": 93,
              "position": 14.216667,
              "duration": 0.15
            },
            {
              "pitch": 61,
              "velocity": 74,
              "position": 14.45,
              "duration": 0.133333
            },
            {
              "pitch": 47,
              "velocity": 97,
              "position": 14.483333,
              "duration": 0.275
            },
            {
              "pitch": 75,
              "velocity": 77,
              "position": 14.525,
              "duration": 0.166667
            },
            {
              "pitch": 63,
              "velocity": 87,
              "position": 14.725,
              "duration": 0.466667
            },
            {
              "pitch": 75,
              "velocity": 81,
              "position": 15.041667,
              "duration": 0.166667
            },
            {
              "pitch": 43,
              "velocity": 89,
              "position": 15.191667,
              "duration": 0.133333
            },
            {
              "pitch": 61,
              "velocity": 81,
              "position": 15.208333,
              "duration": 0.158333
            },
            {
              "pitch": 64,
              "velocity": 89,
              "position": 15.433333,
              "duration": 0.566667
            },
            {
              "pitch": 43,
              "velocity": 102,
              "position": 15.466667,
              "duration": 0.258333
            }
          ]
        },
        "10": {
          "ctab": {
            "srcChannel": 10,
            "name": "Bass",
            "accType": "BASS",
            "editable": true,
            "mutedNotes": [],
            "mutedChords": [],
            "sourceChordNote": 0,
            "sourceChordType": "Maj7",
            "ctb2Main": {
              "ntr": "ROOT_TRANSPOSITION",
              "ntt": "BYPASS",
              "bassOn": true,
              "noteLowLimit": 20,
              "noteHighLimit": 60,
              "chordRootUpperLimit": 127,
              "rtr": "NOTE_GENERATOR"
            }
          },
          "notes": [
            {
              "pitch": 36,
              "velocity": 80,
              "position": 0.0,
              "duration": 0.758333
            },
            {
              "pitch": 43,
              "velocity": 93,
              "position": 0.733333,
              "duration": 0.658333
            },
            {
              "pitch": 36,
              "velocity": 80,
              "position": 2.0,
              "duration": 0.758333
            },
            {
              "pitch": 43,
              "velocity": 93,
              "position": 2.733333,
              "duration": 0.658333
            },
            {
              "pitch": 36,
              "velocity": 85,
              "position": 3.5,
              "duration": 1.225
            },
            {
              "pitch": 31,
              "velocity": 82,
              "position": 4.741667,
              "duration": 0.35
            },
            {
              "pitch": 43,
              "velocity": 89,
              "position": 5.008333,
              "duration": 0.425
            },
            {
              "pitch": 36,
              "velocity": 73,
              "position": 5.516667,
              "duration": 1.125
            },
            {
              "pitch": 43,
              "velocity": 89,
              "position": 6.7,
              "duration": 0.2
            },
            {
              "pitch": 43,
              "velocity": 97,
              "position": 7.0,
              "duration": 0.416667
            },
            {
              "pitch": 36,
              "velocity": 85,
              "position": 7.5,
              "duration": 0.441667
            },
            {
              "pitch": 36,
              "velocity": 88,
              "position": 8.0,
              "duration": 0.733333
            },
            {
              "pitch": 43,
              "velocity": 104,
              "position": 8.733333,
              "duration": 0.716667
            },
            {
              "pitch": 36,
              "velocity": 85,
              "position": 9.491667,
              "duration": 1.466667
            },
            {
              "pitch": 31,
              "velocity": 79,
              "position": 10.983333,
              "duration": 0.75
            },
            {
              "pitch": 31,
              "velocity": 86,
              "position": 11.733333,
              "duration": 0.033333
            },
            {
              "pitch": 36,
              "velocity": 79,
              "position": 12.0,
              "duration": 0.7
            },
            {
              "pitch": 43,
              "velocity": 95,
              "position": 12.733333,
              "duration": 0.725
            },
            {
              "pitch": 36,
              "velocity": 91,
              "position": 13.491667,
              "duration": 1.533333
            },
            {
              "pitch": 43,
              "velocity": 91,
              "position": 15.025,
              "duration": 0.391667
            },
            {
              "pitch": 48,
              "velocity": 88,
              "position": 15.5,
              "duration": 1.258333
            }
          ]
        },
        "11": {
          "ctab": {
            "srcChannel": 11,
            "name": "Piano",
            "accType": "CHORD1",
            "editable": true,
            "mutedNotes": [],
            "mutedChords": [],
            "sourceChordNote": 0,
            "sourceChordType": "Maj7",
            "ctb2Main": {
              "ntr": "ROOT_FIXED",
              "ntt": "CHORD",
              "bassOn": false,
              "noteLowLimit": 48,
              "noteHighLimit": 84,
              "chordRootUpperLimit": 127,
              "rtr": "NOTE_GENERATOR"
            }
          },
          "notes": [
            {
              "pitch": 74,
              "velocity": 65,
              "position": 0.233333,
              "duration": 0.291667
            },
            {
              "pitch": 59,
              "velocity": 68,
              "position": 0.258333,
              "duration": 0.358333
            },
            {
              "pitch": 76,
              "velocity": 65,
              "position": 0.508333,
              "duration": 0.191667
            },
            {
              "pitch": 64,
              "velocity": 65,
              "position": 0.516667,
              "duration": 0.183333
            },
            {
              "pitch": 67,
              "velocity": 85,
              "position": 0.733333,
              "duration": 0.375
            },
            {
              "pitch": 79,
              "velocity": 77,
              "position": 0.741667,
              "duration": 0.35
            },
            {
              "pitch": 52,
              "velocity": 72,
              "position": 0.775,
              "duration": 0.366667
            },
            {
              "pitch": 64,
              "velocity": 90,
              "position": 1.233333,
              "duration": 0.358333
            },
            {
              "pitch": 76,
              "velocity": 72,
              "position": 1.233333,
              "duration": 0.3
            },
            {
              "pitch": 74,
              "velocity": 65,
              "position": 1.241667,
              "duration": 0.216667
            },
            {
              "pitch": 59,
              "velocity": 65,
              "position": 1.258333,
              "duration": 0.3
            },
            {
              "pitch": 52,
              "velocity": 38,
              "position": 1.691667,
              "duration": 0.1
            },
            {
              "pitch": 79,
              "velocity": 45,
              "position": 1.708333,
              "duration": 0.175
            },
            {
              "pitch": 67,
              "velocity": 32,
              "position": 1.725,
              "duration": 0.083333
            },
            {
              "pitch": 52,
              "velocity": 54,
              "position": 2.0,
              "duration": 0.341667
            },
            {
              "pitch": 59,
              "velocity": 57,
              "position": 2.0,
              "duration": 0.4
            },
            {
              "pitch": 64,
              "velocity": 69,
              "position": 2.0,
              "duration": 0.391667
            },
            {
              "pitch": 67,
              "velocity": 69,
              "position": 2.0,
              "duration": 0.366667
            },
            {
              "pitch": 74,
              "velocity": 66,
              "position": 2.0,
              "duration": 0.408333
            },
            {
              "pitch": 74,
              "velocity": 77,
              "position": 2.683333,
              "duration": 1.2
            },
            {
              "pitch": 64,
              "velocity": 82,
              "position": 2.691667,
              "duration": 1.191667
            },
            {
              "pitch": 67,
              "velocity": 73,
              "position": 2.691667,
              "duration": 1.191667
            },
            {
              "pitch": 52,
              "velocity": 67,
              "position": 2.7,
              "duration": 1.183333
            },
            {
              "pitch": 59,
              "velocity": 63,
              "position": 2.7,
              "duration": 1.183333
            },
            {
              "pitch": 52,
              "velocity": 66,
              "position": 4.0,
              "duration": 0.283333
            },
            {
              "pitch": 59,
              "velocity": 62,
              "position": 4.0,
              "duration": 0.316667
            },
            {
              "pitch": 64,
              "velocity": 82,
              "position": 4.0,
              "duration": 0.275
            },
            {
              "pitch": 74,
              "velocity": 50,
              "position": 4.0,
              "duration": 0.241667
            },
            {
              "pitch": 76,
              "velocity": 55,
              "position": 4.0,
              "duration": 0.308333
            },
            {
              "pitch": 86,
              "velocity": 56,
              "position": 4.0,
              "duration": 0.258333
            },
            {
              "pitch": 76,
              "velocity": 72,
              "position": 4.658333,
              "duration": 1.008333
            },
            {
              "pitch": 86,
              "velocity": 74,
              "position": 4.658333,
              "duration": 1.008333
            },
            {
              "pitch": 52,
              "velocity": 84,
              "position": 4.675,
              "duration": 0.991667
            },
            {
              "pitch": 64,
              "velocity": 91,
              "position": 4.675,
              "duration": 0.991667
            },
            {
              "pitch": 74,
              "velocity": 50,
              "position": 4.683333,
              "duration": 0.983333
            },
            {
              "pitch": 59,
              "velocity": 65,
              "position": 4.691667,
              "duration": 0.975
            },
            {
              "pitch": 52,
              "velocity": 62,
              "position": 5.766667,
              "duration": 0.375
            },
            {
              "pitch": 67,
              "velocity": 62,
              "position": 5.766667,
              "duration": 0.375
            },
            {
              "pitch": 79,
              "velocity": 62,
              "position": 5.775,
              "duration": 0.366667
            },
            {
              "pitch": 59,
              "velocity": 63,
              "position": 6.191667,
              "duration": 0.466667
            },
            {
              "pitch": 74,
              "velocity": 69,
              "position": 6.191667,
              "duration": 0.316667
            },
            {
              "pitch": 64,
              "velocity": 66,
              "position": 6.441667,
              "duration": 0.208333
            },
            {
              "pitch": 76,
              "velocity": 50,
              "position": 6.475,
              "duration": 0.191667
            },
            {
              "pitch": 52,
              "velocity": 69,
              "position": 6.7,
              "duration": 0.408333
            },
            {
              "pitch": 79,
              "velocity": 85,
              "position": 6.708333,
              "duration": 0.375
            },
            {
              "pitch": 67,
              "velocity": 85,
              "position": 6.716667,
              "duration": 0.3
            },
            {
              "pitch": 74,
              "velocity": 66,
              "position": 7.2,
              "duration": 0.233333
            },
            {
              "pitch": 76,
              "velocity": 56,
              "position": 7.208333,
              "duration": 0.3
            },
            {
              "pitch": 64,
              "velocity": 85,
              "position": 7.216667,
              "duration": 0.283333
            },
            {
              "pitch": 59,
              "velocity": 63,
              "position": 7.225,
              "duration": 0.366667
            },
            {
              "pitch": 52,
              "velocity": 43,
              "position": 7.708333,
              "duration": 0.075
            },
            {
              "pitch": 79,
              "velocity": 48,
              "position": 7.725,
              "duration": 0.091667
            },
            {
              "pitch": 67,
              "velocity": 35,
              "position": 7.733333,
              "duration": 0.075
            },
            {
              "pitch": 52,
              "velocity": 69,
              "position": 8.0,
              "duration": 0.433333
            },
            {
              "pitch": 59,
              "velocity": 62,
              "position": 8.0,
              "duration": 0.433333
            },
            {
              "pitch": 64,
              "velocity": 81,
              "position": 8.0,
              "duration": 0.366667
            },
            {
              "pitch": 67,
              "velocity": 77,
              "position": 8.0,
              "duration": 0.508333
            },
            {
              "pitch": 74,
              "velocity": 74,
              "position": 8.0,
              "duration": 0.483333
            },
            {
              "pitch": 71,
              "velocity": 69,
              "position": 8.716667,
              "duration": 0.408333
            },
            {
              "pitch": 55,
              "velocity": 74,
              "position": 8.725,
              "duration": 0.25
            },
            {
              "pitch": 62,
              "velocity": 71,
              "position": 8.725,
              "duration": 0.166667
            },
            {
              "pitch": 64,
              "velocity": 65,
              "position": 8.725,
              "duration": 0.183333
            },
            {
              "pitch": 74,
              "velocity": 71,
              "position": 9.416667,
              "duration": 1.95
            },
            {
              "pitch": 67,
              "velocity": 74,
              "position": 9.425,
              "duration": 1.733333
            },
            {
              "pitch": 52,
              "velocity": 62,
              "position": 9.433333,
              "duration": 1.783333
            },
            {
              "pitch": 59,
              "velocity": 68,
              "position": 9.433333,
              "duration": 1.866667
            },
            {
              "pitch": 64,
              "velocity": 77,
              "position": 9.433333,
              "duration": 1.85
            },
            {
              "pitch": 76,
              "velocity": 52,
              "position": 11.483333,
              "duration": 0.325
            },
            {
              "pitch": 74,
              "velocity": 81,
              "position": 12.0,
              "duration": 0.658333
            },
            {
              "pitch": 64,
              "velocity": 81,
              "position": 12.008333,
              "duration": 0.325
            },
            {
              "pitch": 52,
              "velocity": 62,
              "position": 12.016667,
              "duration": 0.5
            },
            {
              "pitch": 59,
              "velocity": 65,
              "position": 12.016667,
              "duration": 0.416667
            },
            {
              "pitch": 67,
              "velocity": 74,
              "position": 12.016667,
              "duration": 0.433333
            },
            {
              "pitch": 71,
              "velocity": 75,
              "position": 12.75,
              "duration": 0.383333
            },
            {
              "pitch": 62,
              "velocity": 71,
              "position": 12.758333,
              "duration": 0.166667
            },
            {
              "pitch": 64,
              "velocity": 68,
              "position": 12.758333,
              "duration": 0.216667
            },
            {
              "pitch": 55,
              "velocity": 68,
              "position": 12.766667,
              "duration": 0.233333
            },
            {
              "pitch": 74,
              "velocity": 81,
              "position": 13.45,
              "duration": 0.841667
            },
            {
              "pitch": 64,
              "velocity": 85,
              "position": 13.458333,
              "duration": 1.0
            },
            {
              "pitch": 67,
              "velocity": 77,
              "position": 13.458333,
              "duration": 0.741667
            },
            {
              "pitch": 52,
              "velocity": 69,
              "position": 13.466667,
              "duration": 0.9
            },
            {
              "pitch": 59,
              "velocity": 59,
              "position": 13.475,
              "duration": 0.816667
            },
            {
              "pitch": 71,
              "velocity": 25,
              "position": 15.766667,
              "duration": 0.116667
            },
            {
              "pitch": 83,
              "velocity": 24,
              "position": 15.766667,
              "duration": 0.116667
            },
            {
              "pitch": 59,
              "velocity": 24,
              "position": 15.791667,
              "duration": 0.091667
            }
          ]
        },
        "12": {
          "ctab": {
            "srcChannel": 12,
            "name": "Guitar",
            "accType": "CHORD2",
            "editable": true,
            "mutedNotes": [],
            "mutedChords": [],
            "sourceChordNote": 0,
            "sourceChordType": "Maj7",
            "ctb2Main": {
              "ntr": "ROOT_FIXED",
              "ntt": "CHORD",
              "bassOn": false,
              "noteLowLimit": 40,
              "noteHighLimit": 76,
              "chordRootUpperLimit": 127,
              "rtr": "NOTE_GENERATOR"
            }
          },
          "notes": [
            {
              "pitch": 64,
              "velocity": 40,
              "position": 0.016667,
              "duration": 0.508333
            },
            {
              "pitch": 71,
              "velocity": 52,
              "position": 0.508333,
              "duration": 0.333333
            },
            {
              "pitch": 64,
              "velocity": 55,
              "position": 1.016667,
              "duration": 0.616667
            },
            {
              "pitch": 76,
              "velocity": 55,
              "position": 1.025,
              "duration": 0.533333
            },
            {
              "pitch": 62,
              "velocity": 55,
              "position": 1.75,
              "duration": 1.516667
            },
            {
              "pitch": 64,
              "velocity": 65,
              "position": 1.75,
              "duration": 1.516667
            },
            {
              "pitch": 71,
              "velocity": 46,
              "position": 1.775,
              "duration": 1.491667
            },
            {
              "pitch": 67,
              "velocity": 55,
              "position": 1.783333,
              "duration": 1.1
            },
            {
              "pitch": 67,
              "velocity": 34,
              "position": 3.475,
              "duration": 0.233333
            },
            {
              "pitch": 63,
              "velocity": 32,
              "position": 3.741667,
              "duration": 0.2
            },
            {
              "pitch": 64,
              "velocity": 52,
              "position": 4.016667,
              "duration": 0.65
            },
            {
              "pitch": 71,
              "velocity": 58,
              "position": 4.508333,
              "duration": 0.366667
            },
            {
              "pitch": 76,
              "velocity": 58,
              "position": 5.033333,
              "duration": 0.333333
            },
            {
              "pitch": 74,
              "velocity": 28,
              "position": 5.741667,
              "duration": 0.141667
            },
            {
              "pitch": 64,
              "velocity": 32,
              "position": 5.766667,
              "duration": 0.116667
            },
            {
              "pitch": 67,
              "velocity": 61,
              "position": 6.258333,
              "duration": 0.308333
            },
            {
              "pitch": 64,
              "velocity": 33,
              "position": 6.283333,
              "duration": 0.233333
            },
            {
              "pitch": 67,
              "velocity": 52,
              "position": 6.708333,
              "duration": 0.516667
            },
            {
              "pitch": 74,
              "velocity": 46,
              "position": 6.733333,
              "duration": 0.583333
            },
            {
              "pitch": 76,
              "velocity": 56,
              "position": 7.425,
              "duration": 0.458333
            },
            {
              "pitch": 74,
              "velocity": 58,
              "position": 7.441667,
              "duration": 0.441667
            },
            {
              "pitch": 67,
              "velocity": 49,
              "position": 7.45,
              "duration": 0.433333
            },
            {
              "pitch": 74,
              "velocity": 43,
              "position": 8.033333,
              "duration": 0.558333
            },
            {
              "pitch": 74,
              "velocity": 46,
              "position": 8.741667,
              "duration": 0.558333
            },
            {
              "pitch": 74,
              "velocity": 40,
              "position": 9.675,
              "duration": 0.275
            },
            {
              "pitch": 67,
              "velocity": 49,
              "position": 9.991667,
              "duration": 0.366667
            },
            {
              "pitch": 71,
              "velocity": 50,
              "position": 10.5,
              "duration": 0.325
            },
            {
              "pitch": 76,
              "velocity": 63,
              "position": 11.0,
              "duration": 0.541667
            },
            {
              "pitch": 74,
              "velocity": 63,
              "position": 11.725,
              "duration": 0.4
            }
          ]
        },
        "13": {
          "ctab": {
            "srcChannel": 13,
            "name": "Strings",
            "accType": "PAD",
            "editable": true,
            "mutedNotes": [],
            "mutedChords": [],
            "sourceChordNote": 0,
            "sourceChordType": "Maj7",
            "ctb2Main": {
              "ntr": "ROOT_FIXED",
              "ntt": "MELODY",
              "bassOn": false,
              "noteLowLimit": 36,
              "noteHighLimit": 96,
              "chordRootUpperLimit": 127,
              "rtr": "PITCH_SHIFT"
            }
          },
          "notes": []
        }
      }
    },
    "Main_D": {
      "type": "Main_D",
      "sizeInBeats": 16,
      "channels": {
        "9": {
          "ctab": {
            "srcChannel": 9,
            "name": "Drums",
            "accType": "RHYTHM",
            "editable": false,
            "mutedNotes": [],
            "mutedChords": [],
            "sourceChordNote": 0,
            "sourceChordType": "Maj",
            "ctb2Main": {
              "ntr": "ROOT_FIXED",
              "ntt": "BYPASS",
              "bassOn": false,
              "noteLowLimit": 20,
              "noteHighLimit": 127,
              "chordRootUpperLimit": 127,
              "rtr": "RETRIGGER"
            }
          },
          "notes": [
            {
              "pitch": 53,
              "velocity": 103,
              "position": 0.0,
              "duration": 0.408333
            },
            {
              "pitch": 75,
              "velocity": 78,
              "position": 0.033333,
              "duration": 0.375
            },
            {
              "pitch": 61,
              "velocity": 85,
              "position": 0.208333,
              "duration": 0.316667
            },
            {
              "pitch": 62,
              "velocity": 98,
              "position": 0.691667,
              "duration": 0.383333
            },
            {
              "pitch": 36,
              "velocity": 94,
              "position": 0.7,
              "duration": 0.291667
            },
            {
              "pitch": 53,
              "velocity": 107,
              "position": 0.7,
              "duration": 0.175
            },
            {
              "pitch": 75,
              "velocity": 82,
              "position": 0.783333,
              "duration": 0.341667
            },
            {
              "pitch": 53,
              "velocity": 103,
              "position": 1.0,
              "duration": 0.383333
            },
            {
              "pitch": 61,
              "velocity": 71,
              "position": 1.208333,
              "duration": 0.125
            },
            {
              "pitch": 64,
              "velocity": 78,
              "position": 1.483333,
              "duration": 0.2
            },
            {
              "pitch": 53,
              "velocity": 98,
              "position": 1.683333,
              "duration": 0.15
            },
            {
              "pitch": 61,
              "velocity": 85,
              "position": 1.725,
              "duration": 0.166667
            },
            {
              "pitch": 75,
              "velocity": 85,
              "position": 1.791667,
              "duration": 0.241667
            },
            {
              "pitch": 53,
              "velocity": 94,
              "position": 1.983333,
              "duration": 0.25
            },
            {
              "pitch": 63,
              "velocity": 88,
              "position": 1.983333,
              "duration": 0.408333
            },
            {
              "pitch": 61,
              "velocity": 71,
              "position": 2.441667,
              "duration": 0.116667
            },
            {
              "pitch": 75,
              "velocity": 82,
              "position": 2.5,
              "duration": 0.158333
            },
            {
              "pitch": 53,
              "velocity": 111,
              "position": 2.508333,
              "duration": 0.216667
            },
            {
              "pitch": 63,
              "velocity": 92,
              "position": 2.716667,
              "duration": 0.425
            },
            {
              "pitch": 36,
              "velocity": 94,
              "position": 2.758333,
              "duration": 0.316667
            },
            {
              "pitch": 53,
              "velocity": 107,
              "position": 3.025,
              "duration": 0.391667
            },
            {
              "pitch": 75,
              "velocity": 85,
              "position": 3.033333,
              "duration": 0.208333
            },
            {
              "pitch": 61,
              "velocity": 68,
              "position": 3.191667,
              "duration": 0.133333
            },
            {
              "pitch": 64,
              "velocity": 90,
              "position": 3.466667,
              "duration": 0.308333
            },
            {
              "pitch": 53,
              "velocity": 98,
              "position": 3.683333,
              "duration": 0.141667
            },
            {
              "pitch": 61,
              "velocity": 96,
              "position": 3.7,
              "duration": 0.3
            },
            {
              "pitch": 75,
              "velocity": 85,
              "position": 4.033333,
              "duration": 0.183333
            },
            {
              "pitch": 53,
              "velocity": 110,
              "position": 4.066667,
              "duration": 0.241667
            },
            {
              "pitch": 61,
              "velocity": 81,
              "position": 4.291667,
              "duration": 0.291667
            },
            {
              "pitch": 53,
              "velocity": 62,
              "position": 4.558333,
              "duration": 0.066667
            },
            {
              "pitch": 75,
              "velocity": 88,
              "position": 4.758333,
              "duration": 0.2
            },
            {
              "pitch": 62,
              "velocity": 93,
              "position": 4.775,
              "duration": 0.341667
            },
            {
              "pitch": 36,
              "velocity": 97,
              "position": 4.783333,
              "duration": 0.308333
            },
            {
              "pitch": 53,
              "velocity": 101,
              "position": 4.791667,
              "duration": 0.258333
            },
            {
              "pitch": 61,
              "velocity": 78,
              "position": 5.225,
              "duration": 0.191667
            },
            {
              "pitch": 53,
              "velocity": 106,
              "position": 5.291667,
              "duration": 0.241667
            },
            {
              "pitch": 64,
              "velocity": 81,
              "position": 5.525,
              "duration": 0.216667
            },
            {
              "pitch": 75,
              "velocity": 85,
              "position": 5.758333,
              "duration": 0.2
            },
            {
              "pitch": 53,
              "velocity": 106,
              "position": 5.766667,
              "duration": 0.175
            },
            {
              "pitch": 61,
              "velocity": 91,
              "position": 5.766667,
              "duration": 0.175
            },
            {
              "pitch": 63,
              "velocity": 91,
              "position": 6.025,
              "duration": 0.45
            },
            {
              "pitch": 53,
              "velocity": 101,
              "position": 6.058333,
              "duration": 0.216667
            },
            {
              "pitch": 61,
              "velocity": 85,
              "position": 6.483333,
              "duration": 0.183333
            },
            {
              "pitch": 53,
              "velocity": 110,
              "position": 6.525,
              "duration": 0.225
            },
            {
              "pitch": 75,
              "velocity": 81,
              "position": 6.525,
              "duration": 0.166667
            },
            {
              "pitch": 63,
              "velocity": 91,
              "position": 6.741667,
              "duration": 0.408333
            },
            {
              "pitch": 36,
              "velocity": 93,
              "position": 6.75,
              "duration": 0.258333
            },
            {
              "pitch": 53,
              "velocity": 87,
              "position": 7.016667,
              "duration": 0.133333
            },
            {
              "pitch": 75,
              "velocity": 85,
              "position": 7.041667,
              "duration": 0.166667
            },
            {
              "pitch": 61,
              "velocity": 81,
              "position": 7.216667,
              "duration": 0.175
            },
            {
              "pitch": 53,
              "velocity": 101,
              "position": 7.266667,
              "duration": 0.275
            },
            {
              "pitch": 64,
              "velocity": 90,
              "position": 7.475,
              "duration": 0.35
            },
            {
              "pitch": 61,
              "velocity": 95,
              "position": 7.691667,
              "duration": 0.3
            },
            {
              "pitch": 53,
              "velocity": 81,
              "position": 7.766667,
              "duration": 0.091667
            },
            {
              "pitch": 36,
              "velocity": 101,
              "position": 8.0,
              "duration": 0.283333
            },
            {
              "pitch": 53,
              "velocity": 121,
              "position": 8.0,
              "duration": 0.2
            },
            {
              "pitch": 75,
              "velocity": 81,
              "position": 8.033333,
              "duration": 0.375
            },
            {
              "pitch": 61,
              "velocity": 95,
              "position": 8.233333,
              "duration": 0.308333
            },
            {
              "pitch": 36,
              "velocity": 101,
              "position": 8.741667,
              "duration": 0.233333
            },
            {
              "pitch": 62,
              "velocity": 90,
              "position": 8.75,
              "duration": 0.433333
            },
            {
              "pitch": 53,
              "velocity": 114,
              "position": 8.766667,
              "duration": 0.191667
            },
            {
              "pitch": 75,
              "velocity": 85,
              "position": 8.783333,
              "duration": 0.341667
            },
            {
              "pitch": 53,
              "velocity": 114,
              "position": 9.258333,
              "duration": 0.275
            },
            {
              "pitch": 61,
              "velocity": 85,
              "position": 9.258333,
              "duration": 0.183333
            },
            {
              "pitch": 64,
              "velocity": 78,
              "position": 9.508333,
              "duration": 0.191667
            },
            {
              "pitch": 53,
              "velocity": 93,
              "position": 9.75,
              "duration": 0.15
            },
            {
              "pitch": 61,
              "velocity": 91,
              "position": 9.75,
              "duration": 0.208333
            },
            {
              "pitch": 75,
              "velocity": 88,
              "position": 9.791667,
              "duration": 0.241667
            },
            {
              "pitch": 53,
              "velocity": 101,
              "position": 10.033333,
              "duration": 0.225
            },
            {
              "pitch": 63,
              "velocity": 91,
              "position": 10.033333,
              "duration": 0.425
            },
            {
              "pitch": 75,
              "velocity": 85,
              "position": 10.5,
              "duration": 0.158333
            },
            {
              "pitch": 53,
              "velocity": 110,
              "position": 10.516667,
              "duration": 0.233333
            },
            {
              "pitch": 61,
              "velocity": 65,
              "position": 10.516667,
              "duration": 0.108333
            },
            {
              "pitch": 36,
              "velocity": 101,
              "position": 10.75,
              "duration": 0.283333
            },
            {
              "pitch": 63,
              "velocity": 91,
              "position": 10.766667,
              "duration": 0.441667
            },
            {
              "pitch": 53,
              "velocity": 78,
              "position": 11.016667,
              "duration": 0.066667
            },
            {
              "pitch": 75,
              "velocity": 88,
              "position": 11.033333,
              "duration": 0.208333
            },
            {
              "pitch": 61,
              "velocity": 71,
              "position": 11.258333,
              "duration": 0.116667
            },
            {
              "pitch": 53,
              "velocity": 110,
              "position": 11.275,
              "duration": 0.291667
            },
            {
              "pitch": 64,
              "velocity": 90,
              "position": 11.508333,
              "duration": 0.266667
            },
            {
              "pitch": 53,
              "velocity": 75,
              "position": 11.775,
              "duration": 0.083333
            },
            {
              "pitch": 61,
              "velocity": 85,
              "position": 11.775,
              "duration": 0.225
            },
            {
              "pitch": 53,
              "velocity": 94,
              "position": 12.0,
              "duration": 0.391667
            },
            {
              "pitch": 75,
              "velocity": 82,
              "position": 12.0,
              "duration": 0.183333
            },
            {
              "pitch": 61,
              "velocity": 85,
              "position": 12.25,
              "duration": 0.283333
            },
            {
              "pitch": 36,
              "velocity": 90,
              "position": 12.75,
              "duration": 0.258333
            },
            {
              "pitch": 53,
              "velocity": 103,
              "position": 12.75,
              "duration": 0.158333
            },
            {
              "pitch": 62,
              "velocity": 90,
              "position": 12.75,
              "duration": 0.4
            },
            {
              "pitch": 75,
              "velocity": 85,
              "position": 12.75,
              "duration": 0.2
            },
            {
              "pitch": 53,
              "velocity": 94,
              "position": 13.0,
              "duration": 0.383333
            },
            {
              "pitch": 61,
              "velocity": 82,
              "position": 13.25,
              "duration": 0.183333
            },
            {
              "pitch": 64,
              "velocity": 78,
              "position": 13.5,
              "duration": 0.225
            },
            {
              "pitch": 53,
              "velocity": 103,
              "position": 13.75,
              "duration": 0.133333
            },
            {
              "pitch": 61,
              "velocity": 78,
              "position": 13.75,
              "duration": 0.175
            },
            {
              "pitch": 75,
              "velocity": 82,
              "position": 13.75,
              "duration": 0.2
            },
            {
              "pitch": 53,
              "velocity": 103,
              "position": 14.0,
              "duration": 0.225
            },
            {
              "pitch": 63,
              "velocity": 92,
              "position": 14.0,
              "duration": 0.341667
            },
            {
              "pitch": 53,
              "velocity": 107,
              "position": 14.5,
              "duration": 0.208333
            },
            {
              "pitch": 61,
              "velocity": 92,
              "position": 14.5,
              "duration": 0.433333
            },
            {
              "pitch": 75,
              "velocity": 78,
              "position": 14.5,
              "duration": 0.166667
            },
            {
              "pitch": 36,
              "velocity": 87,
              "position": 14.75,
              "duration": 0.266667
            },
            {
              "pitch": 53,
              "velocity": 87,
              "position": 15.0,
              "duration": 0.166667
            },
            {
              "pitch": 75,
              "velocity": 82,
              "position": 15.0,
              "duration": 0.166667
            },
            {
              "pitch": 43,
              "velocity": 118,
              "position": 15.25,
              "duration": 0.183333
            },
            {
              "pitch": 48,
              "velocity": 118,
              "position": 15.25,
              "duration": 0.166667
            },
            {
              "pitch": 61,
              "velocity": 88,
              "position": 15.25,
              "duration": 0.191667
            },
            {
              "pitch": 64,
              "velocity": 90,
              "position": 15.5,
              "duration": 0.141667
            },
            {
              "pitch": 64,
              "velocity": 98,
              "position": 15.716667,
              "duration": 0.283333
            },
            {
              "pitch": 43,
              "velocity": 98,
              "position": 15.75,
              "duration": 0.158333
            },
            {
              "pitch": 48,
              "velocity": 90,
              "position": 15.75,
              "duration": 0.166667
            }
          ]
        },
        "10": {
          "ctab": {
            "srcChannel": 10,
            "name": "Bass",
            "accType": "BASS",
            "editable": true,
            "mutedNotes": [],
            "mutedChords": [],
            "sourceChordNote": 0,
            "sourceChordType": "Maj7",
            "ctb2Main": {
              "ntr": "ROOT_TRANSPOSITION",
              "ntt": "BYPASS",
              "bassOn": true,
              "noteLowLimit": 20,
              "noteHighLimit": 60,
              "chordRootUpperLimit": 127,
              "rtr": "NOTE_GENERATOR"
            }
          },
          "notes": [
            {
              "pitch": 40,
              "velocity": 85,
              "position": 0.75,
              "duration": 0.65
            },
            {
              "pitch": 36,
              "velocity": 88,
              "position": 1.5,
              "duration": 0.083333
            },
            {
              "pitch": 43,
              "velocity": 88,
              "position": 3.008333,
              "duration": 0.608333
            },
            {
              "pitch": 36,
              "velocity": 83,
              "position": 3.741667,
              "duration": 0.2
            },
            {
              "pitch": 36,
              "velocity": 86,
              "position": 4.0,
              "duration": 0.675
            },
            {
              "pitch": 40,
              "velocity": 88,
              "position": 4.775,
              "duration": 0.633333
            },
            {
              "pitch": 43,
              "velocity": 86,
              "position": 5.5,
              "duration": 0.441667
            },
            {
              "pitch": 36,
              "velocity": 86,
              "position": 6.0,
              "duration": 0.675
            },
            {
              "pitch": 40,
              "velocity": 88,
              "position": 6.775,
              "duration": 0.633333
            },
            {
              "pitch": 43,
              "velocity": 86,
              "position": 7.5,
              "duration": 0.441667
            },
            {
              "pitch": 36,
              "velocity": 90,
              "position": 8.016667,
              "duration": 0.691667
            },
            {
              "pitch": 43,
              "velocity": 87,
              "position": 8.75,
              "duration": 0.708333
            },
            {
              "pitch": 52,
              "velocity": 103,
              "position": 9.491667,
              "duration": 1.341667
            },
            {
              "pitch": 48,
              "velocity": 90,
              "position": 11.008333,
              "duration": 0.6
            },
            {
              "pitch": 43,
              "velocity": 58,
              "position": 11.733333,
              "duration": 0.266667
            },
            {
              "pitch": 36,
              "velocity": 96,
              "position": 12.008333,
              "duration": 0.758333
            },
            {
              "pitch": 43,
              "velocity": 78,
              "position": 12.741667,
              "duration": 0.65
            },
            {
              "pitch": 52,
              "velocity": 93,
              "position": 13.483333,
              "duration": 1.383333
            },
            {
              "pitch": 36,
              "velocity": 84,
              "position": 15.0,
              "duration": 0.575
            }
          ]
        },
        "11": {
          "ctab": {
            "srcChannel": 11,
            "name": "Piano",
            "accType": "CHORD1",
            "editable": true,
            "mutedNotes": [],
            "mutedChords": [],
            "sourceChordNote": 0,
            "sourceChordType": "Maj7",
            "ctb2Main": {
              "ntr": "ROOT_FIXED",
              "ntt": "CHORD",
              "bassOn": false,
              "noteLowLimit": 48,
              "noteHighLimit": 84,
              "chordRootUpperLimit": 127,
              "rtr": "NOTE_GENERATOR"
            }
          },
          "notes": [
            {
              "pitch": 79,
              "velocity": 62,
              "position": 0.016667,
              "duration": 0.175
            },
            {
              "pitch": 52,
              "velocity": 62,
              "position": 0.025,
              "duration": 0.166667
            },
            {
              "pitch": 67,
              "velocity": 62,
              "position": 0.025,
              "duration": 0.166667
            },
            {
              "pitch": 74,
              "velocity": 56,
              "position": 0.233333,
              "duration": 0.3
            },
            {
              "pitch": 76,
              "velocity": 62,
              "position": 0.233333,
              "duration": 0.358333
            },
            {
              "pitch": 59,
              "velocity": 68,
              "position": 0.241667,
              "duration": 0.358333
            },
            {
              "pitch": 64,
              "velocity": 77,
              "position": 0.241667,
              "duration": 0.241667
            },
            {
              "pitch": 67,
              "velocity": 81,
              "position": 0.741667,
              "duration": 0.325
            },
            {
              "pitch": 79,
              "velocity": 77,
              "position": 0.741667,
              "duration": 0.341667
            },
            {
              "pitch": 52,
              "velocity": 72,
              "position": 0.758333,
              "duration": 0.316667
            },
            {
              "pitch": 74,
              "velocity": 65,
              "position": 1.225,
              "duration": 0.283333
            },
            {
              "pitch": 76,
              "velocity": 65,
              "position": 1.233333,
              "duration": 0.333333
            },
            {
              "pitch": 59,
              "velocity": 68,
              "position": 1.241667,
              "duration": 0.358333
            },
            {
              "pitch": 64,
              "velocity": 90,
              "position": 1.241667,
              "duration": 0.258333
            },
            {
              "pitch": 52,
              "velocity": 34,
              "position": 1.691667,
              "duration": 0.083333
            },
            {
              "pitch": 79,
              "velocity": 43,
              "position": 1.725,
              "duration": 0.125
            },
            {
              "pitch": 67,
              "velocity": 35,
              "position": 1.733333,
              "duration": 0.075
            },
            {
              "pitch": 52,
              "velocity": 62,
              "position": 2.016667,
              "duration": 0.141667
            },
            {
              "pitch": 67,
              "velocity": 62,
              "position": 2.016667,
              "duration": 0.141667
            },
            {
              "pitch": 79,
              "velocity": 62,
              "position": 2.025,
              "duration": 0.133333
            },
            {
              "pitch": 59,
              "velocity": 63,
              "position": 2.191667,
              "duration": 0.466667
            },
            {
              "pitch": 74,
              "velocity": 69,
              "position": 2.191667,
              "duration": 0.316667
            },
            {
              "pitch": 64,
              "velocity": 66,
              "position": 2.441667,
              "duration": 0.208333
            },
            {
              "pitch": 76,
              "velocity": 50,
              "position": 2.475,
              "duration": 0.191667
            },
            {
              "pitch": 52,
              "velocity": 69,
              "position": 2.7,
              "duration": 0.408333
            },
            {
              "pitch": 79,
              "velocity": 85,
              "position": 2.708333,
              "duration": 0.375
            },
            {
              "pitch": 67,
              "velocity": 85,
              "position": 2.716667,
              "duration": 0.3
            },
            {
              "pitch": 74,
              "velocity": 66,
              "position": 3.2,
              "duration": 0.233333
            },
            {
              "pitch": 76,
              "velocity": 56,
              "position": 3.208333,
              "duration": 0.3
            },
            {
              "pitch": 64,
              "velocity": 85,
              "position": 3.216667,
              "duration": 0.283333
            },
            {
              "pitch": 59,
              "velocity": 63,
              "position": 3.225,
              "duration": 0.366667
            },
            {
              "pitch": 52,
              "velocity": 43,
              "position": 3.708333,
              "duration": 0.075
            },
            {
              "pitch": 79,
              "velocity": 48,
              "position": 3.725,
              "duration": 0.091667
            },
            {
              "pitch": 67,
              "velocity": 35,
              "position": 3.733333,
              "duration": 0.075
            },
            {
              "pitch": 52,
              "velocity": 72,
              "position": 4.0,
              "duration": 0.458333
            },
            {
              "pitch": 71,
              "velocity": 85,
              "position": 4.0,
              "duration": 0.283333
            },
            {
              "pitch": 83,
              "velocity": 78,
              "position": 4.0,
              "duration": 0.291667
            },
            {
              "pitch": 59,
              "velocity": 42,
              "position": 4.25,
              "duration": 0.366667
            },
            {
              "pitch": 76,
              "velocity": 72,
              "position": 4.25,
              "duration": 0.266667
            },
            {
              "pitch": 64,
              "velocity": 52,
              "position": 4.5,
              "duration": 0.225
            },
            {
              "pitch": 79,
              "velocity": 55,
              "position": 4.5,
              "duration": 0.166667
            },
            {
              "pitch": 52,
              "velocity": 72,
              "position": 4.75,
              "duration": 0.158333
            },
            {
              "pitch": 71,
              "velocity": 72,
              "position": 4.75,
              "duration": 0.158333
            },
            {
              "pitch": 83,
              "velocity": 66,
              "position": 4.75,
              "duration": 0.158333
            },
            {
              "pitch": 52,
              "velocity": 75,
              "position": 5.0,
              "duration": 0.416667
            },
            {
              "pitch": 71,
              "velocity": 85,
              "position": 5.0,
              "duration": 0.575
            },
            {
              "pitch": 83,
              "velocity": 85,
              "position": 5.0,
              "duration": 0.541667
            },
            {
              "pitch": 59,
              "velocity": 42,
              "position": 5.233333,
              "duration": 0.308333
            },
            {
              "pitch": 83,
              "velocity": 70,
              "position": 5.75,
              "duration": 0.433333
            },
            {
              "pitch": 52,
              "velocity": 70,
              "position": 5.758333,
              "duration": 0.583333
            },
            {
              "pitch": 71,
              "velocity": 70,
              "position": 5.766667,
              "duration": 0.425
            },
            {
              "pitch": 64,
              "velocity": 79,
              "position": 6.233333,
              "duration": 0.366667
            },
            {
              "pitch": 76,
              "velocity": 75,
              "position": 6.233333,
              "duration": 0.358333
            },
            {
              "pitch": 67,
              "velocity": 84,
              "position": 6.241667,
              "duration": 0.233333
            },
            {
              "pitch": 74,
              "velocity": 76,
              "position": 6.241667,
              "duration": 0.316667
            },
            {
              "pitch": 71,
              "velocity": 45,
              "position": 6.25,
              "duration": 0.091667
            },
            {
              "pitch": 83,
              "velocity": 86,
              "position": 6.741667,
              "duration": 0.366667
            },
            {
              "pitch": 59,
              "velocity": 76,
              "position": 6.75,
              "duration": 0.3
            },
            {
              "pitch": 71,
              "velocity": 82,
              "position": 6.75,
              "duration": 0.325
            },
            {
              "pitch": 64,
              "velocity": 72,
              "position": 7.216667,
              "duration": 0.2
            },
            {
              "pitch": 67,
              "velocity": 66,
              "position": 7.225,
              "duration": 0.2
            },
            {
              "pitch": 76,
              "velocity": 69,
              "position": 7.225,
              "duration": 0.283333
            },
            {
              "pitch": 79,
              "velocity": 66,
              "position": 7.233333,
              "duration": 0.266667
            },
            {
              "pitch": 64,
              "velocity": 77,
              "position": 7.75,
              "duration": 0.55
            },
            {
              "pitch": 74,
              "velocity": 64,
              "position": 7.75,
              "duration": 0.858333
            },
            {
              "pitch": 67,
              "velocity": 70,
              "position": 7.758333,
              "duration": 0.641667
            },
            {
              "pitch": 52,
              "velocity": 54,
              "position": 7.766667,
              "duration": 0.616667
            },
            {
              "pitch": 59,
              "velocity": 58,
              "position": 7.766667,
              "duration": 0.616667
            },
            {
              "pitch": 71,
              "velocity": 71,
              "position": 8.716667,
              "duration": 0.333333
            },
            {
              "pitch": 55,
              "velocity": 70,
              "position": 8.733333,
              "duration": 0.208333
            },
            {
              "pitch": 62,
              "velocity": 70,
              "position": 8.733333,
              "duration": 0.15
            },
            {
              "pitch": 64,
              "velocity": 70,
              "position": 8.733333,
              "duration": 0.191667
            },
            {
              "pitch": 67,
              "velocity": 73,
              "position": 9.45,
              "duration": 1.216667
            },
            {
              "pitch": 74,
              "velocity": 70,
              "position": 9.45,
              "duration": 1.375
            },
            {
              "pitch": 59,
              "velocity": 67,
              "position": 9.466667,
              "duration": 0.941667
            },
            {
              "pitch": 64,
              "velocity": 81,
              "position": 9.466667,
              "duration": 1.008333
            },
            {
              "pitch": 52,
              "velocity": 65,
              "position": 9.475,
              "duration": 0.95
            },
            {
              "pitch": 62,
              "velocity": 73,
              "position": 11.45,
              "duration": 0.141667
            },
            {
              "pitch": 76,
              "velocity": 75,
              "position": 11.45,
              "duration": 0.366667
            },
            {
              "pitch": 71,
              "velocity": 75,
              "position": 11.458333,
              "duration": 0.358333
            },
            {
              "pitch": 64,
              "velocity": 73,
              "position": 11.466667,
              "duration": 0.175
            },
            {
              "pitch": 67,
              "velocity": 86,
              "position": 12.0,
              "duration": 0.5
            },
            {
              "pitch": 74,
              "velocity": 70,
              "position": 12.0,
              "duration": 0.708333
            },
            {
              "pitch": 59,
              "velocity": 64,
              "position": 12.008333,
              "duration": 0.541667
            },
            {
              "pitch": 64,
              "velocity": 77,
              "position": 12.008333,
              "duration": 0.4
            },
            {
              "pitch": 52,
              "velocity": 51,
              "position": 12.025,
              "duration": 0.483333
            },
            {
              "pitch": 71,
              "velocity": 71,
              "position": 12.741667,
              "duration": 0.375
            },
            {
              "pitch": 62,
              "velocity": 70,
              "position": 12.75,
              "duration": 0.2
            },
            {
              "pitch": 64,
              "velocity": 73,
              "position": 12.75,
              "duration": 0.233333
            },
            {
              "pitch": 55,
              "velocity": 64,
              "position": 12.766667,
              "duration": 0.2
            },
            {
              "pitch": 64,
              "velocity": 86,
              "position": 13.441667,
              "duration": 1.041667
            },
            {
              "pitch": 74,
              "velocity": 81,
              "position": 13.441667,
              "duration": 0.875
            },
            {
              "pitch": 52,
              "velocity": 68,
              "position": 13.45,
              "duration": 0.933333
            },
            {
              "pitch": 67,
              "velocity": 77,
              "position": 13.45,
              "duration": 0.708333
            },
            {
              "pitch": 59,
              "velocity": 64,
              "position": 13.458333,
              "duration": 0.891667
            },
            {
              "pitch": 52,
              "velocity": 68,
              "position": 15.75,
              "duration": 0.666667
            },
            {
              "pitch": 71,
              "velocity": 74,
              "position": 15.75,
              "duration": 0.591667
            },
            {
              "pitch": 83,
              "velocity": 71,
              "position": 15.75,
              "duration": 0.591667
            }
          ]
        },
        "12": {
          "ctab": {
            "srcChannel": 12,
            "name": "Guitar",
            "accType": "CHORD2",
            "editable": true,
            "mutedNotes": [],
            "mutedChords": [],
            "sourceChordNote": 0,
            "sourceChordType": "Maj7",
            "ctb2Main": {
              "ntr": "ROOT_FIXED",
              "ntt": "CHORD",
              "bassOn": false,
              "noteLowLimit": 40,
              "noteHighLimit": 76,
              "chordRootUpperLimit": 127,
              "rtr": "NOTE_GENERATOR"
            }
          },
          "notes": [
            {
              "pitch": 67,
              "velocity": 61,
              "position": 0.258333,
              "duration": 0.308333
            },
            {
              "pitch": 64,
              "velocity": 33,
              "position": 0.283333,
              "duration": 0.233333
            },
            {
              "pitch": 67,
              "velocity": 52,
              "position": 0.708333,
              "duration": 0.516667
            },
            {
              "pitch": 74,
              "velocity": 46,
              "position": 0.733333,
              "duration": 0.583333
            },
            {
              "pitch": 76,
              "velocity": 56,
              "position": 1.425,
              "duration": 0.458333
            },
            {
              "pitch": 74,
              "velocity": 58,
              "position": 1.441667,
              "duration": 0.441667
            },
            {
              "pitch": 67,
              "velocity": 49,
              "position": 1.45,
              "duration": 0.433333
            },
            {
              "pitch": 67,
              "velocity": 61,
              "position": 2.258333,
              "duration": 0.308333
            },
            {
              "pitch": 64,
              "velocity": 33,
              "position": 2.283333,
              "duration": 0.233333
            },
            {
              "pitch": 67,
              "velocity": 52,
              "position": 2.708333,
              "duration": 0.516667
            },
            {
              "pitch": 74,
              "velocity": 46,
              "position": 2.733333,
              "duration": 0.583333
            },
            {
              "pitch": 76,
              "velocity": 56,
              "position": 3.425,
              "duration": 0.458333
            },
            {
              "pitch": 74,
              "velocity": 58,
              "position": 3.441667,
              "duration": 0.441667
            },
            {
              "pitch": 67,
              "velocity": 49,
              "position": 3.45,
              "duration": 0.433333
            },
            {
              "pitch": 64,
              "velocity": 50,
              "position": 4.208333,
              "duration": 0.308333
            },
            {
              "pitch": 74,
              "velocity": 44,
              "position": 4.216667,
              "duration": 0.333333
            },
            {
              "pitch": 64,
              "velocity": 60,
              "position": 4.75,
              "duration": 0.383333
            },
            {
              "pitch": 64,
              "velocity": 49,
              "position": 5.508333,
              "duration": 1.725
            },
            {
              "pitch": 71,
              "velocity": 52,
              "position": 5.508333,
              "duration": 1.633333
            },
            {
              "pitch": 64,
              "velocity": 54,
              "position": 8.033333,
              "duration": 0.641667
            },
            {
              "pitch": 74,
              "velocity": 47,
              "position": 8.05,
              "duration": 0.8
            },
            {
              "pitch": 67,
              "velocity": 62,
              "position": 8.766667,
              "duration": 0.233333
            },
            {
              "pitch": 71,
              "velocity": 60,
              "position": 9.208333,
              "duration": 0.383333
            },
            {
              "pitch": 64,
              "velocity": 59,
              "position": 9.216667,
              "duration": 0.408333
            },
            {
              "pitch": 74,
              "velocity": 44,
              "position": 9.983333,
              "duration": 0.291667
            },
            {
              "pitch": 64,
              "velocity": 50,
              "position": 10.016667,
              "duration": 0.208333
            },
            {
              "pitch": 64,
              "velocity": 54,
              "position": 10.525,
              "duration": 0.233333
            },
            {
              "pitch": 74,
              "velocity": 47,
              "position": 10.533333,
              "duration": 0.25
            },
            {
              "pitch": 71,
              "velocity": 60,
              "position": 11.025,
              "duration": 0.591667
            },
            {
              "pitch": 64,
              "velocity": 59,
              "position": 11.033333,
              "duration": 0.408333
            },
            {
              "pitch": 74,
              "velocity": 44,
              "position": 11.766667,
              "duration": 0.433333
            },
            {
              "pitch": 64,
              "velocity": 54,
              "position": 11.775,
              "duration": 0.425
            },
            {
              "pitch": 67,
              "velocity": 53,
              "position": 12.258333,
              "duration": 0.333333
            },
            {
              "pitch": 64,
              "velocity": 50,
              "position": 12.75,
              "duration": 0.383333
            },
            {
              "pitch": 71,
              "velocity": 47,
              "position": 12.75,
              "duration": 0.375
            },
            {
              "pitch": 64,
              "velocity": 53,
              "position": 13.216667,
              "duration": 0.316667
            },
            {
              "pitch": 64,
              "velocity": 23,
              "position": 13.675,
              "duration": 0.066667
            },
            {
              "pitch": 71,
              "velocity": 37,
              "position": 13.683333,
              "duration": 0.225
            },
            {
              "pitch": 74,
              "velocity": 33,
              "position": 13.966667,
              "duration": 0.441667
            },
            {
              "pitch": 64,
              "velocity": 47,
              "position": 13.983333,
              "duration": 0.383333
            },
            {
              "pitch": 67,
              "velocity": 56,
              "position": 14.466667,
              "duration": 0.233333
            },
            {
              "pitch": 64,
              "velocity": 56,
              "position": 14.958333,
              "duration": 0.425
            },
            {
              "pitch": 71,
              "velocity": 54,
              "position": 14.966667,
              "duration": 0.55
            }
          ]
        },
        "13": {
          "ctab": {
            "srcChannel": 13,
            "name": "Strings",
            "accType": "PAD",
            "editable": true,
            "mutedNotes": [],
            "mutedChords": [],
            "sourceChordNote": 0,
            "sourceChordType": "Maj7",
            "ctb2Main": {
              "ntr": "ROOT_FIXED",
              "ntt": "MELODY",
              "bassOn": false,
              "noteLowLimit": 36,
              "noteHighLimit": 96,
              "chordRootUpperLimit": 127,
              "rtr": "PITCH_SHIFT"
            }
          },
          "notes": []
        }
      }
    },
    "Fill_In_AA": {
      "type": "Fill_In_AA",
      "sizeInBeats": 16,
      "channels": {
        "9": {
          "ctab": {
            "srcChannel": 9,
            "name": "Drums",
            "accType": "RHYTHM",
            "editable": false,
            "mutedNotes": [],
            "mutedChords": [],
            "sourceChordNote": 0,
            "sourceChordType": "Maj",
            "ctb2Main": {
              "ntr": "ROOT_FIXED",
              "ntt": "BYPASS",
              "bassOn": false,
              "noteLowLimit": 20,
              "noteHighLimit": 127,
              "chordRootUpperLimit": 127,
              "rtr": "RETRIGGER"
            }
          },
          "notes": [
            {
              "pitch": 48,
              "velocity": 116,
              "position": 0.008333,
              "duration": 0.175
            },
            {
              "pitch": 49,
              "velocity": 75,
              "position": 0.033333,
              "duration": 0.066667
            },
            {
              "pitch": 75,
              "velocity": 79,
              "position": 0.033333,
              "duration": 0.375
            },
            {
              "pitch": 36,
              "velocity": 91,
              "position": 0.7,
              "duration": 0.233333
            },
            {
              "pitch": 53,
              "velocity": 99,
              "position": 0.7,
              "duration": 0.2
            },
            {
              "pitch": 62,
              "velocity": 108,
              "position": 0.708333,
              "duration": 0.408333
            },
            {
              "pitch": 75,
              "velocity": 83,
              "position": 0.783333,
              "duration": 0.341667
            },
            {
              "pitch": 61,
              "velocity": 93,
              "position": 1.2,
              "duration": 0.158333
            },
            {
              "pitch": 53,
              "velocity": 104,
              "position": 1.216667,
              "duration": 0.258333
            },
            {
              "pitch": 64,
              "velocity": 95,
              "position": 1.466667,
              "duration": 0.208333
            },
            {
              "pitch": 61,
              "velocity": 97,
              "position": 1.691667,
              "duration": 0.183333
            },
            {
              "pitch": 53,
              "velocity": 95,
              "position": 1.716667,
              "duration": 0.15
            },
            {
              "pitch": 75,
              "velocity": 86,
              "position": 1.791667,
              "duration": 0.241667
            },
            {
              "pitch": 53,
              "velocity": 104,
              "position": 1.991667,
              "duration": 0.216667
            },
            {
              "pitch": 63,
              "velocity": 93,
              "position": 1.991667,
              "duration": 0.466667
            },
            {
              "pitch": 61,
              "velocity": 72,
              "position": 2.491667,
              "duration": 0.083333
            },
            {
              "pitch": 53,
              "velocity": 108,
              "position": 2.5,
              "duration": 0.225
            },
            {
              "pitch": 75,
              "velocity": 83,
              "position": 2.5,
              "duration": 0.158333
            },
            {
              "pitch": 36,
              "velocity": 82,
              "position": 2.741667,
              "duration": 0.216667
            },
            {
              "pitch": 63,
              "velocity": 97,
              "position": 2.758333,
              "duration": 0.425
            },
            {
              "pitch": 53,
              "velocity": 95,
              "position": 3.016667,
              "duration": 0.466667
            },
            {
              "pitch": 75,
              "velocity": 86,
              "position": 3.033333,
              "duration": 0.208333
            },
            {
              "pitch": 61,
              "velocity": 89,
              "position": 3.225,
              "duration": 0.166667
            },
            {
              "pitch": 64,
              "velocity": 91,
              "position": 3.475,
              "duration": 0.141667
            },
            {
              "pitch": 53,
              "velocity": 95,
              "position": 3.716667,
              "duration": 0.141667
            },
            {
              "pitch": 64,
              "velocity": 95,
              "position": 3.741667,
              "duration": 0.258333
            },
            {
              "pitch": 53,
              "velocity": 116,
              "position": 4.025,
              "duration": 0.258333
            },
            {
              "pitch": 75,
              "velocity": 83,
              "position": 4.033333,
              "duration": 0.183333
            },
            {
              "pitch": 61,
              "velocity": 97,
              "position": 4.216667,
              "duration": 0.283333
            },
            {
              "pitch": 36,
              "velocity": 99,
              "position": 4.716667,
              "duration": 0.241667
            },
            {
              "pitch": 53,
              "velocity": 108,
              "position": 4.716667,
              "duration": 0.166667
            },
            {
              "pitch": 62,
              "velocity": 99,
              "position": 4.716667,
              "duration": 0.408333
            },
            {
              "pitch": 75,
              "velocity": 86,
              "position": 4.758333,
              "duration": 0.2
            },
            {
              "pitch": 53,
              "velocity": 104,
              "position": 5.025,
              "duration": 0.458333
            },
            {
              "pitch": 61,
              "velocity": 72,
              "position": 5.225,
              "duration": 0.1
            },
            {
              "pitch": 64,
              "velocity": 88,
              "position": 5.475,
              "duration": 0.208333
            },
            {
              "pitch": 53,
              "velocity": 104,
              "position": 5.716667,
              "duration": 0.15
            },
            {
              "pitch": 61,
              "velocity": 93,
              "position": 5.716667,
              "duration": 0.158333
            },
            {
              "pitch": 75,
              "velocity": 83,
              "position": 5.758333,
              "duration": 0.2
            },
            {
              "pitch": 63,
              "velocity": 86,
              "position": 5.966667,
              "duration": 0.425
            },
            {
              "pitch": 53,
              "velocity": 95,
              "position": 6.016667,
              "duration": 0.233333
            },
            {
              "pitch": 61,
              "velocity": 47,
              "position": 6.475,
              "duration": 0.091667
            },
            {
              "pitch": 53,
              "velocity": 112,
              "position": 6.5,
              "duration": 0.233333
            },
            {
              "pitch": 75,
              "velocity": 79,
              "position": 6.525,
              "duration": 0.166667
            },
            {
              "pitch": 63,
              "velocity": 89,
              "position": 6.7,
              "duration": 0.45
            },
            {
              "pitch": 36,
              "velocity": 95,
              "position": 6.716667,
              "duration": 0.325
            },
            {
              "pitch": 53,
              "velocity": 112,
              "position": 7.025,
              "duration": 0.458333
            },
            {
              "pitch": 75,
              "velocity": 83,
              "position": 7.041667,
              "duration": 0.166667
            },
            {
              "pitch": 61,
              "velocity": 76,
              "position": 7.2,
              "duration": 0.116667
            },
            {
              "pitch": 64,
              "velocity": 88,
              "position": 7.441667,
              "duration": 0.283333
            },
            {
              "pitch": 61,
              "velocity": 93,
              "position": 7.683333,
              "duration": 0.25
            },
            {
              "pitch": 53,
              "velocity": 91,
              "position": 7.708333,
              "duration": 0.15
            },
            {
              "pitch": 53,
              "velocity": 103,
              "position": 8.0,
              "duration": 0.408333
            },
            {
              "pitch": 75,
              "velocity": 78,
              "position": 8.033333,
              "duration": 0.375
            },
            {
              "pitch": 61,
              "velocity": 85,
              "position": 8.208333,
              "duration": 0.316667
            },
            {
              "pitch": 62,
              "velocity": 98,
              "position": 8.691667,
              "duration": 0.383333
            },
            {
              "pitch": 36,
              "velocity": 94,
              "position": 8.7,
              "duration": 0.291667
            },
            {
              "pitch": 53,
              "velocity": 107,
              "position": 8.7,
              "duration": 0.175
            },
            {
              "pitch": 75,
              "velocity": 82,
              "position": 8.783333,
              "duration": 0.341667
            },
            {
              "pitch": 53,
              "velocity": 103,
              "position": 9.0,
              "duration": 0.383333
            },
            {
              "pitch": 61,
              "velocity": 71,
              "position": 9.208333,
              "duration": 0.125
            },
            {
              "pitch": 64,
              "velocity": 78,
              "position": 9.483333,
              "duration": 0.2
            },
            {
              "pitch": 53,
              "velocity": 98,
              "position": 9.683333,
              "duration": 0.15
            },
            {
              "pitch": 61,
              "velocity": 85,
              "position": 9.725,
              "duration": 0.166667
            },
            {
              "pitch": 75,
              "velocity": 85,
              "position": 9.791667,
              "duration": 0.241667
            },
            {
              "pitch": 53,
              "velocity": 94,
              "position": 9.983333,
              "duration": 0.25
            },
            {
              "pitch": 63,
              "velocity": 88,
              "position": 9.983333,
              "duration": 0.408333
            },
            {
              "pitch": 61,
              "velocity": 71,
              "position": 10.441667,
              "duration": 0.116667
            },
            {
              "pitch": 75,
              "velocity": 82,
              "position": 10.5,
              "duration": 0.158333
            },
            {
              "pitch": 53,
              "velocity": 111,
              "position": 10.508333,
              "duration": 0.216667
            },
            {
              "pitch": 63,
              "velocity": 92,
              "position": 10.716667,
              "duration": 0.425
            },
            {
              "pitch": 36,
              "velocity": 94,
              "position": 10.758333,
              "duration": 0.316667
            },
            {
              "pitch": 53,
              "velocity": 107,
              "position": 11.025,
              "duration": 0.391667
            },
            {
              "pitch": 75,
              "velocity": 85,
              "position": 11.033333,
              "duration": 0.208333
            },
            {
              "pitch": 61,
              "velocity": 68,
              "position": 11.191667,
              "duration": 0.133333
            },
            {
              "pitch": 64,
              "velocity": 90,
              "position": 11.466667,
              "duration": 0.308333
            },
            {
              "pitch": 53,
              "velocity": 98,
              "position": 11.683333,
              "duration": 0.141667
            },
            {
              "pitch": 61,
              "velocity": 96,
              "position": 11.7,
              "duration": 0.3
            },
            {
              "pitch": 61,
              "velocity": 56,
              "position": 12.016667,
              "duration": 0.075
            },
            {
              "pitch": 53,
              "velocity": 95,
              "position": 12.033333,
              "duration": 0.391667
            },
            {
              "pitch": 75,
              "velocity": 87,
              "position": 12.033333,
              "duration": 0.183333
            },
            {
              "pitch": 62,
              "velocity": 108,
              "position": 12.233333,
              "duration": 0.283333
            },
            {
              "pitch": 36,
              "velocity": 61,
              "position": 12.725,
              "duration": 0.3
            },
            {
              "pitch": 53,
              "velocity": 103,
              "position": 12.725,
              "duration": 0.291667
            },
            {
              "pitch": 62,
              "velocity": 108,
              "position": 12.733333,
              "duration": 0.375
            },
            {
              "pitch": 75,
              "velocity": 90,
              "position": 12.758333,
              "duration": 0.2
            },
            {
              "pitch": 38,
              "velocity": 29,
              "position": 12.791667,
              "duration": 0.116667
            },
            {
              "pitch": 61,
              "velocity": 93,
              "position": 13.175,
              "duration": 0.158333
            },
            {
              "pitch": 53,
              "velocity": 112,
              "position": 13.241667,
              "duration": 0.183333
            },
            {
              "pitch": 64,
              "velocity": 86,
              "position": 13.416667,
              "duration": 0.241667
            },
            {
              "pitch": 61,
              "velocity": 87,
              "position": 13.691667,
              "duration": 0.166667
            },
            {
              "pitch": 48,
              "velocity": 99,
              "position": 13.716667,
              "duration": 0.175
            },
            {
              "pitch": 75,
              "velocity": 87,
              "position": 13.758333,
              "duration": 0.2
            },
            {
              "pitch": 63,
              "velocity": 93,
              "position": 13.966667,
              "duration": 0.441667
            },
            {
              "pitch": 48,
              "velocity": 108,
              "position": 14.191667,
              "duration": 0.125
            },
            {
              "pitch": 61,
              "velocity": 76,
              "position": 14.433333,
              "duration": 0.15
            },
            {
              "pitch": 48,
              "velocity": 112,
              "position": 14.466667,
              "duration": 0.225
            },
            {
              "pitch": 75,
              "velocity": 83,
              "position": 14.525,
              "duration": 0.166667
            },
            {
              "pitch": 43,
              "velocity": 120,
              "position": 14.683333,
              "duration": 0.191667
            },
            {
              "pitch": 63,
              "velocity": 101,
              "position": 14.716667,
              "duration": 0.458333
            },
            {
              "pitch": 75,
              "velocity": 87,
              "position": 15.041667,
              "duration": 0.166667
            },
            {
              "pitch": 61,
              "velocity": 73,
              "position": 15.191667,
              "duration": 0.158333
            },
            {
              "pitch": 48,
              "velocity": 116,
              "position": 15.233333,
              "duration": 0.216667
            },
            {
              "pitch": 64,
              "velocity": 95,
              "position": 15.45,
              "duration": 0.508333
            },
            {
              "pitch": 43,
              "velocity": 99,
              "position": 15.691667,
              "duration": 0.175
            }
          ]
        },
        "10": {
          "ctab": {
            "srcChannel": 10,
            "name": "Bass",
            "accType": "BASS",
            "editable": true,
            "mutedNotes": [],
            "mutedChords": [],
            "sourceChordNote": 0,
            "sourceChordType": "Maj7",
            "ctb2Main": {
              "ntr": "ROOT_TRANSPOSITION",
              "ntt": "BYPASS",
              "bassOn": true,
              "noteLowLimit": 20,
              "noteHighLimit": 60,
              "chordRootUpperLimit": 127,
              "rtr": "NOTE_GENERATOR"
            }
          },
          "notes": [
            {
              "pitch": 48,
              "velocity": 90,
              "position": 0.0,
              "duration": 0.658333
            },
            {
              "pitch": 43,
              "velocity": 81,
              "position": 0.741667,
              "duration": 0.675
            },
            {
              "pitch": 36,
              "velocity": 84,
              "position": 1.5,
              "duration": 0.125
            },
            {
              "pitch": 31,
              "velocity": 87,
              "position": 2.741667,
              "duration": 0.583333
            },
            {
              "pitch": 36,
              "velocity": 73,
              "position": 3.516667,
              "duration": 1.125
            },
            {
              "pitch": 43,
              "velocity": 89,
              "position": 4.7,
              "duration": 0.2
            },
            {
              "pitch": 43,
              "velocity": 97,
              "position": 5.0,
              "duration": 0.416667
            },
            {
              "pitch": 36,
              "velocity": 88,
              "position": 5.5,
              "duration": 0.108333
            },
            {
              "pitch": 43,
              "velocity": 88,
              "position": 7.008333,
              "duration": 0.408333
            },
            {
              "pitch": 36,
              "velocity": 85,
              "position": 7.5,
              "duration": 1.183333
            },
            {
              "pitch": 43,
              "velocity": 98,
              "position": 8.733333,
              "duration": 0.725
            },
            {
              "pitch": 36,
              "velocity": 82,
              "position": 9.491667,
              "duration": 1.225
            },
            {
              "pitch": 31,
              "velocity": 85,
              "position": 10.758333,
              "duration": 0.45
            },
            {
              "pitch": 43,
              "velocity": 89,
              "position": 11.241667,
              "duration": 0.375
            },
            {
              "pitch": 36,
              "velocity": 88,
              "position": 11.741667,
              "duration": 0.25
            },
            {
              "pitch": 36,
              "velocity": 85,
              "position": 11.991667,
              "duration": 0.741667
            },
            {
              "pitch": 43,
              "velocity": 94,
              "position": 12.733333,
              "duration": 0.641667
            },
            {
              "pitch": 36,
              "velocity": 82,
              "position": 13.483333,
              "duration": 1.491667
            },
            {
              "pitch": 31,
              "velocity": 82,
              "position": 14.991667,
              "duration": 0.641667
            },
            {
              "pitch": 36,
              "velocity": 79,
              "position": 15.516667,
              "duration": 0.35
            }
          ]
        },
        "11": {
          "ctab": {
            "srcChannel": 11,
            "name": "Piano",
            "accType": "CHORD1",
            "editable": true,
            "mutedNotes": [],
            "mutedChords": [],
            "sourceChordNote": 0,
            "sourceChordType": "Maj7",
            "ctb2Main": {
              "ntr": "ROOT_FIXED",
              "ntt": "CHORD",
              "bassOn": false,
              "noteLowLimit": 48,
              "noteHighLimit": 84,
              "chordRootUpperLimit": 127,
              "rtr": "NOTE_GENERATOR"
            }
          },
          "notes": [
            {
              "pitch": 64,
              "velocity": 71,
              "position": 0.475,
              "duration": 0.225
            },
            {
              "pitch": 76,
              "velocity": 74,
              "position": 0.475,
              "duration": 0.291667
            },
            {
              "pitch": 59,
              "velocity": 62,
              "position": 0.491667,
              "duration": 0.3
            },
            {
              "pitch": 59,
              "velocity": 59,
              "position": 1.041667,
              "duration": 0.341667
            },
            {
              "pitch": 64,
              "velocity": 62,
              "position": 1.041667,
              "duration": 0.183333
            },
            {
              "pitch": 71,
              "velocity": 74,
              "position": 1.041667,
              "duration": 0.166667
            },
            {
              "pitch": 83,
              "velocity": 74,
              "position": 1.041667,
              "duration": 0.216667
            },
            {
              "pitch": 52,
              "velocity": 50,
              "position": 1.066667,
              "duration": 0.3
            },
            {
              "pitch": 52,
              "velocity": 64,
              "position": 1.75,
              "duration": 0.766667
            },
            {
              "pitch": 71,
              "velocity": 80,
              "position": 1.75,
              "duration": 0.833333
            },
            {
              "pitch": 83,
              "velocity": 76,
              "position": 1.775,
              "duration": 0.633333
            },
            {
              "pitch": 76,
              "velocity": 80,
              "position": 2.483333,
              "duration": 0.3
            },
            {
              "pitch": 64,
              "velocity": 80,
              "position": 2.491667,
              "duration": 0.258333
            },
            {
              "pitch": 59,
              "velocity": 70,
              "position": 2.5,
              "duration": 0.308333
            },
            {
              "pitch": 52,
              "velocity": 61,
              "position": 3.033333,
              "duration": 0.383333
            },
            {
              "pitch": 71,
              "velocity": 89,
              "position": 3.033333,
              "duration": 0.533333
            },
            {
              "pitch": 83,
              "velocity": 84,
              "position": 3.033333,
              "duration": 0.491667
            },
            {
              "pitch": 59,
              "velocity": 11,
              "position": 3.241667,
              "duration": 0.35
            },
            {
              "pitch": 52,
              "velocity": 62,
              "position": 3.766667,
              "duration": 0.416667
            },
            {
              "pitch": 67,
              "velocity": 62,
              "position": 3.775,
              "duration": 0.416667
            },
            {
              "pitch": 79,
              "velocity": 62,
              "position": 3.783333,
              "duration": 0.408333
            },
            {
              "pitch": 59,
              "velocity": 54,
              "position": 4.25,
              "duration": 0.416667
            },
            {
              "pitch": 74,
              "velocity": 63,
              "position": 4.25,
              "duration": 0.291667
            },
            {
              "pitch": 64,
              "velocity": 69,
              "position": 4.5,
              "duration": 0.208333
            },
            {
              "pitch": 76,
              "velocity": 67,
              "position": 4.5,
              "duration": 0.2
            },
            {
              "pitch": 52,
              "velocity": 70,
              "position": 4.75,
              "duration": 0.383333
            },
            {
              "pitch": 67,
              "velocity": 88,
              "position": 4.75,
              "duration": 0.35
            },
            {
              "pitch": 79,
              "velocity": 79,
              "position": 4.75,
              "duration": 0.366667
            },
            {
              "pitch": 59,
              "velocity": 57,
              "position": 5.25,
              "duration": 0.375
            },
            {
              "pitch": 64,
              "velocity": 92,
              "position": 5.25,
              "duration": 0.275
            },
            {
              "pitch": 74,
              "velocity": 60,
              "position": 5.25,
              "duration": 0.25
            },
            {
              "pitch": 76,
              "velocity": 63,
              "position": 5.25,
              "duration": 0.316667
            },
            {
              "pitch": 52,
              "velocity": 64,
              "position": 5.75,
              "duration": 0.766667
            },
            {
              "pitch": 71,
              "velocity": 80,
              "position": 5.75,
              "duration": 0.833333
            },
            {
              "pitch": 83,
              "velocity": 76,
              "position": 5.775,
              "duration": 0.633333
            },
            {
              "pitch": 76,
              "velocity": 80,
              "position": 6.483333,
              "duration": 0.3
            },
            {
              "pitch": 64,
              "velocity": 80,
              "position": 6.491667,
              "duration": 0.258333
            },
            {
              "pitch": 59,
              "velocity": 70,
              "position": 6.5,
              "duration": 0.308333
            },
            {
              "pitch": 52,
              "velocity": 61,
              "position": 7.033333,
              "duration": 0.483333
            },
            {
              "pitch": 71,
              "velocity": 89,
              "position": 7.033333,
              "duration": 0.533333
            },
            {
              "pitch": 83,
              "velocity": 84,
              "position": 7.033333,
              "duration": 0.491667
            },
            {
              "pitch": 59,
              "velocity": 11,
              "position": 7.241667,
              "duration": 0.35
            },
            {
              "pitch": 64,
              "velocity": 40,
              "position": 7.441667,
              "duration": 0.2
            },
            {
              "pitch": 67,
              "velocity": 48,
              "position": 7.75,
              "duration": 0.133333
            },
            {
              "pitch": 52,
              "velocity": 39,
              "position": 7.775,
              "duration": 0.108333
            },
            {
              "pitch": 83,
              "velocity": 61,
              "position": 8.0,
              "duration": 0.241667
            },
            {
              "pitch": 52,
              "velocity": 61,
              "position": 8.016667,
              "duration": 0.225
            },
            {
              "pitch": 71,
              "velocity": 61,
              "position": 8.025,
              "duration": 0.216667
            },
            {
              "pitch": 64,
              "velocity": 92,
              "position": 8.275,
              "duration": 0.266667
            },
            {
              "pitch": 59,
              "velocity": 72,
              "position": 8.283333,
              "duration": 0.383333
            },
            {
              "pitch": 71,
              "velocity": 85,
              "position": 8.758333,
              "duration": 0.35
            },
            {
              "pitch": 52,
              "velocity": 77,
              "position": 8.766667,
              "duration": 0.316667
            },
            {
              "pitch": 83,
              "velocity": 73,
              "position": 8.766667,
              "duration": 0.391667
            },
            {
              "pitch": 76,
              "velocity": 73,
              "position": 9.216667,
              "duration": 0.325
            },
            {
              "pitch": 64,
              "velocity": 92,
              "position": 9.25,
              "duration": 0.2
            },
            {
              "pitch": 59,
              "velocity": 75,
              "position": 9.258333,
              "duration": 0.291667
            },
            {
              "pitch": 83,
              "velocity": 77,
              "position": 9.708333,
              "duration": 0.183333
            },
            {
              "pitch": 52,
              "velocity": 70,
              "position": 9.716667,
              "duration": 0.166667
            },
            {
              "pitch": 71,
              "velocity": 56,
              "position": 9.716667,
              "duration": 0.116667
            },
            {
              "pitch": 52,
              "velocity": 63,
              "position": 9.991667,
              "duration": 0.433333
            },
            {
              "pitch": 74,
              "velocity": 66,
              "position": 10.008333,
              "duration": 0.275
            },
            {
              "pitch": 86,
              "velocity": 72,
              "position": 10.025,
              "duration": 0.291667
            },
            {
              "pitch": 64,
              "velocity": 92,
              "position": 10.483333,
              "duration": 0.233333
            },
            {
              "pitch": 59,
              "velocity": 69,
              "position": 10.491667,
              "duration": 0.308333
            },
            {
              "pitch": 79,
              "velocity": 60,
              "position": 10.5,
              "duration": 0.266667
            },
            {
              "pitch": 74,
              "velocity": 30,
              "position": 10.508333,
              "duration": 0.125
            },
            {
              "pitch": 76,
              "velocity": 56,
              "position": 10.508333,
              "duration": 0.291667
            },
            {
              "pitch": 52,
              "velocity": 73,
              "position": 11.033333,
              "duration": 0.533333
            },
            {
              "pitch": 83,
              "velocity": 85,
              "position": 11.033333,
              "duration": 0.516667
            },
            {
              "pitch": 71,
              "velocity": 85,
              "position": 11.041667,
              "duration": 0.383333
            },
            {
              "pitch": 59,
              "velocity": 28,
              "position": 11.275,
              "duration": 0.341667
            },
            {
              "pitch": 74,
              "velocity": 75,
              "position": 11.741667,
              "duration": 0.266667
            },
            {
              "pitch": 86,
              "velocity": 75,
              "position": 11.741667,
              "duration": 0.283333
            },
            {
              "pitch": 52,
              "velocity": 53,
              "position": 11.758333,
              "duration": 0.608333
            },
            {
              "pitch": 79,
              "velocity": 66,
              "position": 12.233333,
              "duration": 0.3
            },
            {
              "pitch": 59,
              "velocity": 66,
              "position": 12.241667,
              "duration": 0.366667
            },
            {
              "pitch": 64,
              "velocity": 79,
              "position": 12.241667,
              "duration": 0.258333
            },
            {
              "pitch": 76,
              "velocity": 60,
              "position": 12.25,
              "duration": 0.358333
            },
            {
              "pitch": 74,
              "velocity": 57,
              "position": 12.258333,
              "duration": 0.141667
            },
            {
              "pitch": 52,
              "velocity": 67,
              "position": 12.733333,
              "duration": 0.316667
            },
            {
              "pitch": 71,
              "velocity": 77,
              "position": 12.741667,
              "duration": 0.283333
            },
            {
              "pitch": 83,
              "velocity": 77,
              "position": 12.741667,
              "duration": 0.316667
            },
            {
              "pitch": 64,
              "velocity": 92,
              "position": 13.208333,
              "duration": 0.216667
            },
            {
              "pitch": 76,
              "velocity": 73,
              "position": 13.208333,
              "duration": 0.341667
            },
            {
              "pitch": 79,
              "velocity": 69,
              "position": 13.208333,
              "duration": 0.25
            },
            {
              "pitch": 59,
              "velocity": 72,
              "position": 13.216667,
              "duration": 0.325
            },
            {
              "pitch": 83,
              "velocity": 70,
              "position": 13.675,
              "duration": 0.166667
            },
            {
              "pitch": 52,
              "velocity": 60,
              "position": 13.683333,
              "duration": 0.116667
            },
            {
              "pitch": 71,
              "velocity": 50,
              "position": 13.683333,
              "duration": 0.108333
            },
            {
              "pitch": 52,
              "velocity": 60,
              "position": 13.958333,
              "duration": 0.383333
            },
            {
              "pitch": 74,
              "velocity": 69,
              "position": 13.983333,
              "duration": 0.291667
            },
            {
              "pitch": 86,
              "velocity": 69,
              "position": 13.991667,
              "duration": 0.291667
            },
            {
              "pitch": 79,
              "velocity": 63,
              "position": 14.433333,
              "duration": 0.275
            },
            {
              "pitch": 64,
              "velocity": 92,
              "position": 14.441667,
              "duration": 0.208333
            },
            {
              "pitch": 76,
              "velocity": 67,
              "position": 14.441667,
              "duration": 0.25
            },
            {
              "pitch": 59,
              "velocity": 72,
              "position": 14.458333,
              "duration": 0.291667
            },
            {
              "pitch": 83,
              "velocity": 77,
              "position": 14.941667,
              "duration": 0.225
            },
            {
              "pitch": 52,
              "velocity": 85,
              "position": 14.958333,
              "duration": 0.375
            },
            {
              "pitch": 71,
              "velocity": 73,
              "position": 14.958333,
              "duration": 0.233333
            },
            {
              "pitch": 67,
              "velocity": 16,
              "position": 15.666667,
              "duration": 0.216667
            },
            {
              "pitch": 79,
              "velocity": 14,
              "position": 15.666667,
              "duration": 0.216667
            },
            {
              "pitch": 52,
              "velocity": 12,
              "position": 15.675,
              "duration": 0.208333
            }
          ]
        },
        "12": {
          "ctab": {
            "srcChannel": 12,
            "name": "Guitar",
            "accType": "CHORD2",
            "editable": true,
            "mutedNotes": [],
            "mutedChords": [],
            "sourceChordNote": 0,
            "sourceChordType": "Maj7",
            "ctb2Main": {
              "ntr": "ROOT_FIXED",
              "ntt": "CHORD",
              "bassOn": false,
              "noteLowLimit": 40,
              "noteHighLimit": 76,
              "chordRootUpperLimit": 127,
              "rtr": "NOTE_GENERATOR"
            }
          },
          "notes": [
            {
              "pitch": 62,
              "velocity": 56,
              "position": 0.0,
              "duration": 0.641667
            },
            {
              "pitch": 64,
              "velocity": 66,
              "position": 0.0,
              "duration": 0.641667
            },
            {
              "pitch": 71,
              "velocity": 47,
              "position": 0.025,
              "duration": 0.625
            },
            {
              "pitch": 67,
              "velocity": 56,
              "position": 0.033333,
              "duration": 0.616667
            },
            {
              "pitch": 64,
              "velocity": 45,
              "position": 0.741667,
              "duration": 0.641667
            },
            {
              "pitch": 67,
              "velocity": 45,
              "position": 0.741667,
              "duration": 0.641667
            },
            {
              "pitch": 71,
              "velocity": 43,
              "position": 0.758333,
              "duration": 0.625
            },
            {
              "pitch": 64,
              "velocity": 66,
              "position": 1.475,
              "duration": 0.466667
            },
            {
              "pitch": 67,
              "velocity": 35,
              "position": 1.475,
              "duration": 0.466667
            },
            {
              "pitch": 74,
              "velocity": 50,
              "position": 1.475,
              "duration": 0.466667
            },
            {
              "pitch": 71,
              "velocity": 47,
              "position": 1.483333,
              "duration": 0.458333
            },
            {
              "pitch": 64,
              "velocity": 52,
              "position": 2.016667,
              "duration": 0.65
            },
            {
              "pitch": 71,
              "velocity": 58,
              "position": 2.508333,
              "duration": 0.366667
            },
            {
              "pitch": 76,
              "velocity": 58,
              "position": 3.033333,
              "duration": 0.333333
            },
            {
              "pitch": 74,
              "velocity": 28,
              "position": 3.741667,
              "duration": 0.141667
            },
            {
              "pitch": 64,
              "velocity": 32,
              "position": 3.766667,
              "duration": 0.116667
            },
            {
              "pitch": 64,
              "velocity": 50,
              "position": 4.208333,
              "duration": 0.308333
            },
            {
              "pitch": 74,
              "velocity": 44,
              "position": 4.216667,
              "duration": 0.333333
            },
            {
              "pitch": 64,
              "velocity": 60,
              "position": 4.75,
              "duration": 0.383333
            },
            {
              "pitch": 67,
              "velocity": 56,
              "position": 5.225,
              "duration": 0.325
            },
            {
              "pitch": 74,
              "velocity": 28,
              "position": 5.708333,
              "duration": 0.175
            },
            {
              "pitch": 64,
              "velocity": 51,
              "position": 6.116667,
              "duration": 0.316667
            },
            {
              "pitch": 74,
              "velocity": 51,
              "position": 6.116667,
              "duration": 0.366667
            },
            {
              "pitch": 64,
              "velocity": 55,
              "position": 6.666667,
              "duration": 0.391667
            },
            {
              "pitch": 67,
              "velocity": 54,
              "position": 7.175,
              "duration": 0.35
            },
            {
              "pitch": 74,
              "velocity": 27,
              "position": 7.7,
              "duration": 0.183333
            },
            {
              "pitch": 64,
              "velocity": 47,
              "position": 8.0,
              "duration": 0.541667
            },
            {
              "pitch": 74,
              "velocity": 49,
              "position": 8.0,
              "duration": 0.608333
            },
            {
              "pitch": 64,
              "velocity": 43,
              "position": 8.816667,
              "duration": 0.633333
            },
            {
              "pitch": 74,
              "velocity": 55,
              "position": 8.825,
              "duration": 0.7
            },
            {
              "pitch": 64,
              "velocity": 43,
              "position": 9.716667,
              "duration": 0.35
            },
            {
              "pitch": 74,
              "velocity": 29,
              "position": 9.733333,
              "duration": 0.3
            },
            {
              "pitch": 59,
              "velocity": 43,
              "position": 10.025,
              "duration": 0.575
            },
            {
              "pitch": 67,
              "velocity": 59,
              "position": 10.033333,
              "duration": 0.375
            },
            {
              "pitch": 71,
              "velocity": 57,
              "position": 10.5,
              "duration": 0.391667
            },
            {
              "pitch": 64,
              "velocity": 46,
              "position": 10.525,
              "duration": 0.408333
            },
            {
              "pitch": 64,
              "velocity": 55,
              "position": 10.975,
              "duration": 0.6
            },
            {
              "pitch": 76,
              "velocity": 55,
              "position": 10.991667,
              "duration": 0.583333
            },
            {
              "pitch": 64,
              "velocity": 65,
              "position": 11.666667,
              "duration": 0.383333
            },
            {
              "pitch": 74,
              "velocity": 59,
              "position": 11.683333,
              "duration": 0.391667
            }
          ]
        },
        "13": {
          "ctab": {
            "srcChannel": 13,
            "name": "Strings",
            "accType": "PAD",
            "editable": true,
            "mutedNotes": [],
            "mutedChords": [],
            "sourceChordNote": 0,
            "sourceChordType": "Maj7",
            "ctb2Main": {
              "ntr": "ROOT_FIXED",
              "ntt": "MELODY",
              "bassOn": false,
              "noteLowLimit": 36,
              "noteHighLimit": 96,
              "chordRootUpperLimit": 127,
              "rtr": "PITCH_SHIFT"
            }
          },
          "notes": []
        }
      }
    },
    "Ending_A": {
      "type": "Ending_A",
      "sizeInBeats": 16,
      "channels": {
        "9": {
          "ctab": {
            "srcChannel": 9,
            "name": "Drums",
            "accType": "RHYTHM",
            "editable": false,
            "mutedNotes": [],
            "mutedChords": [],
            "sourceChordNote": 0,
            "sourceChordType": "Maj",
            "ctb2Main": {
              "ntr": "ROOT_FIXED",
              "ntt": "BYPASS",
              "bassOn": false,
              "noteLowLimit": 20,
              "noteHighLimit": 127,
              "chordRootUpperLimit": 127,
              "rtr": "RETRIGGER"
            }
          },
          "notes": [
            {
              "pitch": 57,
              "velocity": 70,
              "position": 0.0,
              "duration": 0.275
            },
            {
              "pitch": 75,
              "velocity": 76,
              "position": 0.033333,
              "duration": 0.375
            },
            {
              "pitch": 61,
              "velocity": 86,
              "position": 0.225,
              "duration": 0.266667
            },
            {
              "pitch": 62,
              "velocity": 76,
              "position": 0.675,
              "duration": 0.358333
            },
            {
              "pitch": 44,
              "velocity": 107,
              "position": 0.716667,
              "duration": 0.391667
            },
            {
              "pitch": 75,
              "velocity": 80,
              "position": 0.783333,
              "duration": 0.341667
            },
            {
              "pitch": 61,
              "velocity": 69,
              "position": 1.166667,
              "duration": 0.2
            },
            {
              "pitch": 42,
              "velocity": 83,
              "position": 1.2,
              "duration": 0.191667
            },
            {
              "pitch": 64,
              "velocity": 76,
              "position": 1.475,
              "duration": 0.191667
            },
            {
              "pitch": 42,
              "velocity": 73,
              "position": 1.683333,
              "duration": 0.241667
            },
            {
              "pitch": 61,
              "velocity": 76,
              "position": 1.725,
              "duration": 0.25
            },
            {
              "pitch": 75,
              "velocity": 83,
              "position": 1.791667,
              "duration": 0.241667
            },
            {
              "pitch": 44,
              "velocity": 98,
              "position": 1.991667,
              "duration": 0.5
            },
            {
              "pitch": 63,
              "velocity": 69,
              "position": 2.025,
              "duration": 0.4
            },
            {
              "pitch": 42,
              "velocity": 83,
              "position": 2.458333,
              "duration": 0.308333
            },
            {
              "pitch": 61,
              "velocity": 69,
              "position": 2.483333,
              "duration": 0.2
            },
            {
              "pitch": 75,
              "velocity": 80,
              "position": 2.5,
              "duration": 0.158333
            },
            {
              "pitch": 63,
              "velocity": 76,
              "position": 2.758333,
              "duration": 0.358333
            },
            {
              "pitch": 44,
              "velocity": 86,
              "position": 3.0,
              "duration": 0.616667
            },
            {
              "pitch": 75,
              "velocity": 83,
              "position": 3.033333,
              "duration": 0.208333
            },
            {
              "pitch": 61,
              "velocity": 57,
              "position": 3.233333,
              "duration": 0.125
            },
            {
              "pitch": 42,
              "velocity": 86,
              "position": 3.258333,
              "duration": 0.175
            },
            {
              "pitch": 64,
              "velocity": 85,
              "position": 3.483333,
              "duration": 0.216667
            },
            {
              "pitch": 42,
              "velocity": 69,
              "position": 3.716667,
              "duration": 0.266667
            },
            {
              "pitch": 60,
              "velocity": 92,
              "position": 3.725,
              "duration": 0.191667
            },
            {
              "pitch": 44,
              "velocity": 86,
              "position": 4.0,
              "duration": 0.525
            },
            {
              "pitch": 75,
              "velocity": 80,
              "position": 4.033333,
              "duration": 0.183333
            },
            {
              "pitch": 42,
              "velocity": 73,
              "position": 4.458333,
              "duration": 0.2
            },
            {
              "pitch": 36,
              "velocity": 62,
              "position": 4.716667,
              "duration": 0.516667
            },
            {
              "pitch": 44,
              "velocity": 102,
              "position": 4.716667,
              "duration": 0.55
            },
            {
              "pitch": 62,
              "velocity": 88,
              "position": 4.75,
              "duration": 0.466667
            },
            {
              "pitch": 75,
              "velocity": 83,
              "position": 4.758333,
              "duration": 0.2
            },
            {
              "pitch": 42,
              "velocity": 83,
              "position": 5.225,
              "duration": 0.225
            },
            {
              "pitch": 61,
              "velocity": 80,
              "position": 5.25,
              "duration": 0.166667
            },
            {
              "pitch": 64,
              "velocity": 76,
              "position": 5.5,
              "duration": 0.208333
            },
            {
              "pitch": 42,
              "velocity": 80,
              "position": 5.733333,
              "duration": 0.225
            },
            {
              "pitch": 61,
              "velocity": 80,
              "position": 5.75,
              "duration": 0.2
            },
            {
              "pitch": 75,
              "velocity": 80,
              "position": 5.758333,
              "duration": 0.2
            },
            {
              "pitch": 63,
              "velocity": 80,
              "position": 6.0,
              "duration": 0.416667
            },
            {
              "pitch": 44,
              "velocity": 90,
              "position": 6.025,
              "duration": 0.466667
            },
            {
              "pitch": 42,
              "velocity": 83,
              "position": 6.5,
              "duration": 0.358333
            },
            {
              "pitch": 61,
              "velocity": 69,
              "position": 6.5,
              "duration": 0.166667
            },
            {
              "pitch": 75,
              "velocity": 76,
              "position": 6.525,
              "duration": 0.166667
            },
            {
              "pitch": 63,
              "velocity": 80,
              "position": 6.75,
              "duration": 0.425
            },
            {
              "pitch": 44,
              "velocity": 86,
              "position": 7.033333,
              "duration": 0.641667
            },
            {
              "pitch": 75,
              "velocity": 80,
              "position": 7.041667,
              "duration": 0.166667
            },
            {
              "pitch": 61,
              "velocity": 55,
              "position": 7.25,
              "duration": 0.125
            },
            {
              "pitch": 42,
              "velocity": 86,
              "position": 7.258333,
              "duration": 0.191667
            },
            {
              "pitch": 64,
              "velocity": 85,
              "position": 7.5,
              "duration": 0.475
            },
            {
              "pitch": 61,
              "velocity": 73,
              "position": 7.75,
              "duration": 0.25
            },
            {
              "pitch": 42,
              "velocity": 83,
              "position": 7.758333,
              "duration": 0.233333
            },
            {
              "pitch": 44,
              "velocity": 85,
              "position": 8.016667,
              "duration": 0.483333
            },
            {
              "pitch": 75,
              "velocity": 71,
              "position": 8.033333,
              "duration": 0.375
            },
            {
              "pitch": 62,
              "velocity": 62,
              "position": 8.233333,
              "duration": 0.191667
            },
            {
              "pitch": 42,
              "velocity": 71,
              "position": 8.408333,
              "duration": 0.258333
            },
            {
              "pitch": 60,
              "velocity": 77,
              "position": 8.475,
              "duration": 0.183333
            },
            {
              "pitch": 36,
              "velocity": 57,
              "position": 8.708333,
              "duration": 0.275
            },
            {
              "pitch": 44,
              "velocity": 102,
              "position": 8.725,
              "duration": 0.775
            },
            {
              "pitch": 62,
              "velocity": 87,
              "position": 8.741667,
              "duration": 0.391667
            },
            {
              "pitch": 75,
              "velocity": 75,
              "position": 8.783333,
              "duration": 0.341667
            },
            {
              "pitch": 60,
              "velocity": 87,
              "position": 9.216667,
              "duration": 0.15
            },
            {
              "pitch": 42,
              "velocity": 78,
              "position": 9.258333,
              "duration": 0.208333
            },
            {
              "pitch": 64,
              "velocity": 83,
              "position": 9.483333,
              "duration": 0.191667
            },
            {
              "pitch": 42,
              "velocity": 71,
              "position": 9.725,
              "duration": 0.183333
            },
            {
              "pitch": 61,
              "velocity": 85,
              "position": 9.725,
              "duration": 0.208333
            },
            {
              "pitch": 75,
              "velocity": 78,
              "position": 9.791667,
              "duration": 0.241667
            },
            {
              "pitch": 63,
              "velocity": 64,
              "position": 10.016667,
              "duration": 0.416667
            },
            {
              "pitch": 44,
              "velocity": 93,
              "position": 10.033333,
              "duration": 0.45
            },
            {
              "pitch": 42,
              "velocity": 85,
              "position": 10.5,
              "duration": 0.333333
            },
            {
              "pitch": 61,
              "velocity": 81,
              "position": 10.5,
              "duration": 0.183333
            },
            {
              "pitch": 75,
              "velocity": 75,
              "position": 10.5,
              "duration": 0.158333
            },
            {
              "pitch": 63,
              "velocity": 75,
              "position": 10.766667,
              "duration": 0.416667
            },
            {
              "pitch": 75,
              "velocity": 78,
              "position": 11.033333,
              "duration": 0.208333
            },
            {
              "pitch": 44,
              "velocity": 89,
              "position": 11.058333,
              "duration": 0.541667
            },
            {
              "pitch": 42,
              "velocity": 85,
              "position": 11.258333,
              "duration": 0.183333
            },
            {
              "pitch": 61,
              "velocity": 68,
              "position": 11.275,
              "duration": 0.15
            },
            {
              "pitch": 64,
              "velocity": 74,
              "position": 11.483333,
              "duration": 0.233333
            },
            {
              "pitch": 42,
              "velocity": 75,
              "position": 11.725,
              "duration": 0.275
            },
            {
              "pitch": 60,
              "velocity": 83,
              "position": 11.741667,
              "duration": 0.15
            },
            {
              "pitch": 44,
              "velocity": 92,
              "position": 12.008333,
              "duration": 0.558333
            },
            {
              "pitch": 75,
              "velocity": 74,
              "position": 12.033333,
              "duration": 0.183333
            },
            {
              "pitch": 60,
              "velocity": 82,
              "position": 12.225,
              "duration": 0.158333
            },
            {
              "pitch": 42,
              "velocity": 70,
              "position": 12.45,
              "duration": 0.208333
            },
            {
              "pitch": 62,
              "velocity": 90,
              "position": 12.466667,
              "duration": 0.266667
            },
            {
              "pitch": 36,
              "velocity": 56,
              "position": 12.7,
              "duration": 0.291667
            },
            {
              "pitch": 44,
              "velocity": 92,
              "position": 12.733333,
              "duration": 0.791667
            },
            {
              "pitch": 60,
              "velocity": 73,
              "position": 12.733333,
              "duration": 0.216667
            },
            {
              "pitch": 75,
              "velocity": 77,
              "position": 12.758333,
              "duration": 0.2
            },
            {
              "pitch": 60,
              "velocity": 82,
              "position": 13.233333,
              "duration": 0.175
            },
            {
              "pitch": 42,
              "velocity": 80,
              "position": 13.25,
              "duration": 0.2
            },
            {
              "pitch": 64,
              "velocity": 79,
              "position": 13.483333,
              "duration": 0.175
            },
            {
              "pitch": 61,
              "velocity": 80,
              "position": 13.691667,
              "duration": 0.2
            },
            {
              "pitch": 42,
              "velocity": 84,
              "position": 13.725,
              "duration": 0.2
            },
            {
              "pitch": 75,
              "velocity": 74,
              "position": 13.758333,
              "duration": 0.2
            },
            {
              "pitch": 63,
              "velocity": 77,
              "position": 14.008333,
              "duration": 0.416667
            },
            {
              "pitch": 44,
              "velocity": 101,
              "position": 14.016667,
              "duration": 0.666667
            },
            {
              "pitch": 61,
              "velocity": 67,
              "position": 14.475,
              "duration": 0.183333
            },
            {
              "pitch": 42,
              "velocity": 88,
              "position": 14.491667,
              "duration": 0.291667
            },
            {
              "pitch": 75,
              "velocity": 70,
              "position": 14.525,
              "duration": 0.166667
            },
            {
              "pitch": 63,
              "velocity": 77,
              "position": 14.75,
              "duration": 0.45
            },
            {
              "pitch": 48,
              "velocity": 90,
              "position": 14.991667,
              "duration": 0.141667
            },
            {
              "pitch": 75,
              "velocity": 74,
              "position": 15.041667,
              "duration": 0.166667
            },
            {
              "pitch": 61,
              "velocity": 84,
              "position": 15.216667,
              "duration": 0.175
            },
            {
              "pitch": 48,
              "velocity": 99,
              "position": 15.25,
              "duration": 0.25
            },
            {
              "pitch": 64,
              "velocity": 79,
              "position": 15.483333,
              "duration": 0.233333
            },
            {
              "pitch": 60,
              "velocity": 67,
              "position": 15.725,
              "duration": 0.175
            },
            {
              "pitch": 45,
              "velocity": 73,
              "position": 15.758333,
              "duration": 0.166667
            }
          ]
        },
        "10": {
          "ctab": {
            "srcChannel": 10,
            "name": "Bass",
            "accType": "BASS",
            "editable": true,
            "mutedNotes": [],
            "mutedChords": [],
            "sourceChordNote": 0,
            "sourceChordType": "Maj7",
            "ctb2Main": {
              "ntr": "ROOT_TRANSPOSITION",
              "ntt": "BYPASS",
              "bassOn": true,
              "noteLowLimit": 20,
              "noteHighLimit": 60,
              "chordRootUpperLimit": 127,
              "rtr": "NOTE_GENERATOR"
            }
          },
          "notes": [
            {
              "pitch": 36,
              "velocity": 82,
              "position": 0.0,
              "duration": 0.666667
            },
            {
              "pitch": 43,
              "velocity": 70,
              "position": 0.758333,
              "duration": 0.65
            },
            {
              "pitch": 36,
              "velocity": 82,
              "position": 1.5,
              "duration": 1.416667
            },
            {
              "pitch": 43,
              "velocity": 70,
              "position": 2.983333,
              "duration": 0.916667
            },
            {
              "pitch": 36,
              "velocity": 76,
              "position": 3.741667,
              "duration": 0.2
            },
            {
              "pitch": 36,
              "velocity": 74,
              "position": 4.0,
              "duration": 0.766667
            },
            {
              "pitch": 43,
              "velocity": 80,
              "position": 4.741667,
              "duration": 0.758333
            },
            {
              "pitch": 36,
              "velocity": 74,
              "position": 5.475,
              "duration": 0.466667
            },
            {
              "pitch": 36,
              "velocity": 72,
              "position": 6.0,
              "duration": 0.741667
            },
            {
              "pitch": 43,
              "velocity": 81,
              "position": 6.741667,
              "duration": 0.741667
            },
            {
              "pitch": 36,
              "velocity": 69,
              "position": 8.0,
              "duration": 0.733333
            },
            {
              "pitch": 43,
              "velocity": 85,
              "position": 8.741667,
              "duration": 0.741667
            },
            {
              "pitch": 36,
              "velocity": 66,
              "position": 9.458333,
              "duration": 1.341667
            },
            {
              "pitch": 31,
              "velocity": 78,
              "position": 11.0,
              "duration": 0.45
            },
            {
              "pitch": 36,
              "velocity": 86,
              "position": 11.516667,
              "duration": 0.408333
            },
            {
              "pitch": 36,
              "velocity": 83,
              "position": 12.0,
              "duration": 0.683333
            },
            {
              "pitch": 43,
              "velocity": 75,
              "position": 12.733333,
              "duration": 0.7
            },
            {
              "pitch": 48,
              "velocity": 79,
              "position": 13.475,
              "duration": 1.333333
            },
            {
              "pitch": 36,
              "velocity": 69,
              "position": 15.008333,
              "duration": 0.858333
            }
          ]
        },
        "11": {
          "ctab": {
            "srcChannel": 11,
            "name": "Piano",
            "accType": "CHORD1",
            "editable": true,
            "mutedNotes": [],
            "mutedChords": [],
            "sourceChordNote": 0,
            "sourceChordType": "Maj7",
            "ctb2Main": {
              "ntr": "ROOT_FIXED",
              "ntt": "CHORD",
              "bassOn": false,
              "noteLowLimit": 48,
              "noteHighLimit": 84,
              "chordRootUpperLimit": 127,
              "rtr": "NOTE_GENERATOR"
            }
          },
          "notes": [
            {
              "pitch": 76,
              "velocity": 66,
              "position": 0.441667,
              "duration": 0.266667
            },
            {
              "pitch": 64,
              "velocity": 59,
              "position": 0.466667,
              "duration": 0.208333
            },
            {
              "pitch": 59,
              "velocity": 47,
              "position": 0.475,
              "duration": 0.258333
            },
            {
              "pitch": 52,
              "velocity": 62,
              "position": 0.966667,
              "duration": 0.3
            },
            {
              "pitch": 71,
              "velocity": 66,
              "position": 0.966667,
              "duration": 0.266667
            },
            {
              "pitch": 83,
              "velocity": 66,
              "position": 0.966667,
              "duration": 0.225
            },
            {
              "pitch": 74,
              "velocity": 78,
              "position": 2.033333,
              "duration": 0.775
            },
            {
              "pitch": 64,
              "velocity": 78,
              "position": 2.05,
              "duration": 0.566667
            },
            {
              "pitch": 67,
              "velocity": 69,
              "position": 2.05,
              "duration": 0.358333
            },
            {
              "pitch": 52,
              "velocity": 59,
              "position": 2.058333,
              "duration": 0.458333
            },
            {
              "pitch": 59,
              "velocity": 57,
              "position": 2.058333,
              "duration": 0.633333
            },
            {
              "pitch": 67,
              "velocity": 57,
              "position": 2.783333,
              "duration": 0.275
            },
            {
              "pitch": 52,
              "velocity": 24,
              "position": 2.858333,
              "duration": 0.1
            },
            {
              "pitch": 74,
              "velocity": 78,
              "position": 3.783333,
              "duration": 1.008333
            },
            {
              "pitch": 64,
              "velocity": 78,
              "position": 3.8,
              "duration": 0.8
            },
            {
              "pitch": 67,
              "velocity": 69,
              "position": 3.8,
              "duration": 0.591667
            },
            {
              "pitch": 52,
              "velocity": 59,
              "position": 3.808333,
              "duration": 0.691667
            },
            {
              "pitch": 59,
              "velocity": 57,
              "position": 3.808333,
              "duration": 0.866667
            },
            {
              "pitch": 67,
              "velocity": 57,
              "position": 4.783333,
              "duration": 0.275
            },
            {
              "pitch": 52,
              "velocity": 24,
              "position": 4.858333,
              "duration": 0.1
            },
            {
              "pitch": 52,
              "velocity": 56,
              "position": 5.5,
              "duration": 0.716667
            },
            {
              "pitch": 59,
              "velocity": 52,
              "position": 5.5,
              "duration": 0.841667
            },
            {
              "pitch": 64,
              "velocity": 64,
              "position": 5.5,
              "duration": 0.741667
            },
            {
              "pitch": 67,
              "velocity": 77,
              "position": 5.5,
              "duration": 0.941667
            },
            {
              "pitch": 74,
              "velocity": 77,
              "position": 5.5,
              "duration": 0.983333
            },
            {
              "pitch": 71,
              "velocity": 62,
              "position": 7.0,
              "duration": 0.658333
            },
            {
              "pitch": 55,
              "velocity": 61,
              "position": 7.008333,
              "duration": 0.4
            },
            {
              "pitch": 62,
              "velocity": 55,
              "position": 7.008333,
              "duration": 0.35
            },
            {
              "pitch": 64,
              "velocity": 61,
              "position": 7.016667,
              "duration": 0.358333
            },
            {
              "pitch": 64,
              "velocity": 47,
              "position": 7.758333,
              "duration": 0.125
            },
            {
              "pitch": 67,
              "velocity": 40,
              "position": 7.758333,
              "duration": 0.125
            },
            {
              "pitch": 74,
              "velocity": 38,
              "position": 7.758333,
              "duration": 0.125
            },
            {
              "pitch": 52,
              "velocity": 31,
              "position": 7.766667,
              "duration": 0.116667
            },
            {
              "pitch": 59,
              "velocity": 34,
              "position": 7.766667,
              "duration": 0.116667
            },
            {
              "pitch": 74,
              "velocity": 54,
              "position": 8.0,
              "duration": 1.075
            },
            {
              "pitch": 64,
              "velocity": 66,
              "position": 8.008333,
              "duration": 0.95
            },
            {
              "pitch": 67,
              "velocity": 60,
              "position": 8.008333,
              "duration": 1.116667
            },
            {
              "pitch": 52,
              "velocity": 47,
              "position": 8.016667,
              "duration": 0.858333
            },
            {
              "pitch": 59,
              "velocity": 48,
              "position": 8.016667,
              "duration": 0.883333
            },
            {
              "pitch": 74,
              "velocity": 63,
              "position": 9.466667,
              "duration": 1.608333
            },
            {
              "pitch": 52,
              "velocity": 67,
              "position": 9.475,
              "duration": 1.791667
            },
            {
              "pitch": 64,
              "velocity": 76,
              "position": 9.475,
              "duration": 1.85
            },
            {
              "pitch": 67,
              "velocity": 69,
              "position": 9.475,
              "duration": 1.333333
            },
            {
              "pitch": 59,
              "velocity": 54,
              "position": 9.491667,
              "duration": 1.666667
            },
            {
              "pitch": 76,
              "velocity": 60,
              "position": 11.05,
              "duration": 0.616667
            },
            {
              "pitch": 74,
              "velocity": 57,
              "position": 12.258333,
              "duration": 0.275
            },
            {
              "pitch": 64,
              "velocity": 70,
              "position": 12.266667,
              "duration": 0.191667
            },
            {
              "pitch": 52,
              "velocity": 44,
              "position": 12.283333,
              "duration": 0.2
            },
            {
              "pitch": 59,
              "velocity": 45,
              "position": 12.291667,
              "duration": 0.25
            },
            {
              "pitch": 67,
              "velocity": 48,
              "position": 12.291667,
              "duration": 0.225
            },
            {
              "pitch": 71,
              "velocity": 68,
              "position": 12.75,
              "duration": 0.3
            },
            {
              "pitch": 64,
              "velocity": 60,
              "position": 12.758333,
              "duration": 0.241667
            },
            {
              "pitch": 62,
              "velocity": 63,
              "position": 12.766667,
              "duration": 0.191667
            },
            {
              "pitch": 55,
              "velocity": 57,
              "position": 12.775,
              "duration": 0.258333
            },
            {
              "pitch": 52,
              "velocity": 17,
              "position": 12.783333,
              "duration": 0.091667
            },
            {
              "pitch": 52,
              "velocity": 64,
              "position": 13.475,
              "duration": 1.766667
            },
            {
              "pitch": 64,
              "velocity": 79,
              "position": 13.475,
              "duration": 1.9
            },
            {
              "pitch": 67,
              "velocity": 74,
              "position": 13.475,
              "duration": 1.775
            },
            {
              "pitch": 74,
              "velocity": 70,
              "position": 13.475,
              "duration": 1.85
            },
            {
              "pitch": 59,
              "velocity": 63,
              "position": 13.483333,
              "duration": 1.958333
            },
            {
              "pitch": 79,
              "velocity": 70,
              "position": 13.483333,
              "duration": 1.866667
            },
            {
              "pitch": 59,
              "velocity": 40,
              "position": 15.75,
              "duration": 0.791667
            },
            {
              "pitch": 60,
              "velocity": 59,
              "position": 15.75,
              "duration": 0.758333
            },
            {
              "pitch": 67,
              "velocity": 68,
              "position": 15.75,
              "duration": 0.733333
            },
            {
              "pitch": 71,
              "velocity": 45,
              "position": 15.75,
              "duration": 0.758333
            },
            {
              "pitch": 76,
              "velocity": 40,
              "position": 15.75,
              "duration": 0.783333
            },
            {
              "pitch": 79,
              "velocity": 26,
              "position": 15.75,
              "duration": 0.775
            },
            {
              "pitch": 86,
              "velocity": 65,
              "position": 15.75,
              "duration": 0.775
            },
            {
              "pitch": 52,
              "velocity": 52,
              "position": 15.758333,
              "duration": 0.908333
            }
          ]
        },
        "12": {
          "ctab": {
            "srcChannel": 12,
            "name": "Guitar",
            "accType": "CHORD2",
            "editable": true,
            "mutedNotes": [],
            "mutedChords": [],
            "sourceChordNote": 0,
            "sourceChordType": "Maj7",
            "ctb2Main": {
              "ntr": "ROOT_FIXED",
              "ntt": "CHORD",
              "bassOn": false,
              "noteLowLimit": 40,
              "noteHighLimit": 76,
              "chordRootUpperLimit": 127,
              "rtr": "NOTE_GENERATOR"
            }
          },
          "notes": [
            {
              "pitch": 62,
              "velocity": 41,
              "position": 0.041667,
              "duration": 1.808333
            },
            {
              "pitch": 64,
              "velocity": 60,
              "position": 0.058333,
              "duration": 1.883333
            },
            {
              "pitch": 64,
              "velocity": 46,
              "position": 2.0,
              "duration": 0.658333
            },
            {
              "pitch": 71,
              "velocity": 52,
              "position": 2.475,
              "duration": 0.466667
            },
            {
              "pitch": 67,
              "velocity": 52,
              "position": 3.033333,
              "duration": 0.233333
            },
            {
              "pitch": 71,
              "velocity": 52,
              "position": 4.291667,
              "duration": 0.391667
            },
            {
              "pitch": 64,
              "velocity": 52,
              "position": 4.8,
              "duration": 0.366667
            },
            {
              "pitch": 67,
              "velocity": 58,
              "position": 5.266667,
              "duration": 0.4
            },
            {
              "pitch": 71,
              "velocity": 28,
              "position": 5.733333,
              "duration": 0.15
            },
            {
              "pitch": 64,
              "velocity": 52,
              "position": 6.016667,
              "duration": 0.608333
            },
            {
              "pitch": 67,
              "velocity": 61,
              "position": 6.016667,
              "duration": 0.691667
            },
            {
              "pitch": 71,
              "velocity": 41,
              "position": 6.758333,
              "duration": 0.608333
            },
            {
              "pitch": 64,
              "velocity": 45,
              "position": 7.483333,
              "duration": 0.433333
            },
            {
              "pitch": 67,
              "velocity": 55,
              "position": 7.483333,
              "duration": 0.433333
            },
            {
              "pitch": 59,
              "velocity": 56,
              "position": 8.025,
              "duration": 0.583333
            },
            {
              "pitch": 64,
              "velocity": 50,
              "position": 8.7,
              "duration": 0.525
            },
            {
              "pitch": 62,
              "velocity": 34,
              "position": 8.708333,
              "duration": 0.416667
            },
            {
              "pitch": 64,
              "velocity": 60,
              "position": 9.5,
              "duration": 1.283333
            },
            {
              "pitch": 67,
              "velocity": 53,
              "position": 9.5,
              "duration": 1.408333
            },
            {
              "pitch": 62,
              "velocity": 44,
              "position": 11.033333,
              "duration": 0.458333
            },
            {
              "pitch": 64,
              "velocity": 53,
              "position": 11.033333,
              "duration": 0.591667
            },
            {
              "pitch": 64,
              "velocity": 56,
              "position": 12.8,
              "duration": 0.475
            },
            {
              "pitch": 67,
              "velocity": 47,
              "position": 12.816667,
              "duration": 0.466667
            },
            {
              "pitch": 64,
              "velocity": 41,
              "position": 13.483333,
              "duration": 1.725
            },
            {
              "pitch": 71,
              "velocity": 56,
              "position": 13.483333,
              "duration": 1.733333
            }
          ]
        },
        "13": {
          "ctab": {
            "srcChannel": 13,
            "name": "Strings",
            "accType": "PAD",
            "editable": true,
            "mutedNotes": [],
            "mutedChords": [],
            "sourceChordNote": 0,
            "sourceChordType": "Maj7",
            "ctb2Main": {
              "ntr": "ROOT_FIXED",
              "ntt": "MELODY",
              "bassOn": false,
              "noteLowLimit": 36,
              "noteHighLimit": 96,
              "chordRootUpperLimit": 127,
              "rtr": "PITCH_SHIFT"
            }
          },
          "notes": []
        }
      }
    }
  }
}