{
  "name": "Guaguanco Folk - Traditional Cuban",
  "tempo": 102,
  "timeSignature": "4/4",
  "ticksPerQuarter": 120,
  "sffType": "SFF1",
  "division": "BINARY",
  "channelPrograms": {
    "9": 0,
    "10": 32,
    "11": 0,
    "12": 49,
    "13": 12
  },
  "parts": {
    "Intro_A": {
      "type": "Intro_A",
      "sizeInBeats": 24,
      "channels": {
        "9": {
          "ctab": {
            "srcChannel": 9,
            "name": "Drums",
            "accType": "RHYTHM",
            "editable": false,
            "mutedNotes": [],
            "mutedChords": [],
            "sourceChordNote": 0,
            "sourceChordType": "Maj",
            "ctb2Main": {
              "ntr": "ROOT_FIXED",
              "ntt": "BYPASS",
              "bassOn": false,
              "noteLowLimit": 20,
              "noteHighLimit": 127,
              "chordRootUpperLimit": 127,
              "rtr": "RETRIGGER"
            }
          },
          "notes": [
            {
              "pitch": 37,
              "velocity": 84,
              "position": 0.0,
              "duration": 1.0
            },
            {
              "pitch": 37,
              "velocity": 84,
              "position": 2.0,
              "duration": 1.0
            },
            {
              "pitch": 37,
              "velocity": 64,
              "position": 4.0,
              "duration": 1.0
            },
            {
              "pitch": 37,
              "velocity": 84,
              "position": 5.0,
              "duration": 1.0
            },
            {
              "pitch": 37,
              "velocity": 64,
              "position": 6.0,
              "duration": 1.0
            },
            {
              "pitch": 37,
              "velocity": 84,
              "position": 7.0,
              "duration": 1.0
            },
            {
              "pitch": 44,
              "velocity": 98,
              "position": 8.0,
              "duration": 0.25
            },
            {
              "pitch": 75,
              "velocity": 80,
              "position": 8.041667,
              "duration": 0.35
            },
            {
              "pitch": 42,
              "velocity": 90,
              "position": 8.25,
              "duration": 0.316667
            },
            {
              "pitch": 62,
              "velocity": 80,
              "position": 8.25,
              "duration": 0.2
            },
            {
              "pitch": 60,
              "velocity": 77,
              "position": 8.5,
              "duration": 0.166667
            },
            {
              "pitch": 36,
              "velocity": 58,
              "position": 8.75,
              "duration": 0.283333
            },
            {
              "pitch": 44,
              "velocity": 116,
              "position": 8.75,
              "duration": 0.283333
            },
            {
              "pitch": 62,
              "velocity": 100,
              "position": 8.75,
              "duration": 0.291667
            },
            {
              "pitch": 75,
              "velocity": 87,
              "position": 8.791667,
              "duration": 0.358333
            },
            {
              "pitch": 42,
              "velocity": 98,
              "position": 9.0,
              "duration": 0.2
            },
            {
              "pitch": 44,
              "velocity": 111,
              "position": 9.25,
              "duration": 0.275
            },
            {
              "pitch": 60,
              "velocity": 80,
              "position": 9.25,
              "duration": 0.091667
            },
            {
              "pitch": 64,
              "velocity": 92,
              "position": 9.5,
              "duration": 0.183333
            },
            {
              "pitch": 75,
              "velocity": 84,
              "position": 9.725,
              "duration": 0.316667
            },
            {
              "pitch": 42,
              "velocity": 98,
              "position": 9.75,
              "duration": 0.191667
            },
            {
              "pitch": 61,
              "velocity": 90,
              "position": 9.75,
              "duration": 0.2
            },
            {
              "pitch": 44,
              "velocity": 102,
              "position": 10.0,
              "duration": 0.4
            },
            {
              "pitch": 63,
              "velocity": 84,
              "position": 10.0,
              "duration": 0.425
            },
            {
              "pitch": 75,
              "velocity": 87,
              "position": 10.458333,
              "duration": 0.216667
            },
            {
              "pitch": 42,
              "velocity": 98,
              "position": 10.5,
              "duration": 0.241667
            },
            {
              "pitch": 61,
              "velocity": 70,
              "position": 10.5,
              "duration": 0.141667
            },
            {
              "pitch": 63,
              "velocity": 84,
              "position": 10.75,
              "duration": 0.416667
            },
            {
              "pitch": 75,
              "velocity": 87,
              "position": 10.991667,
              "duration": 0.25
            },
            {
              "pitch": 44,
              "velocity": 102,
              "position": 11.0,
              "duration": 0.216667
            },
            {
              "pitch": 42,
              "velocity": 94,
              "position": 11.25,
              "duration": 0.233333
            },
            {
              "pitch": 61,
              "velocity": 70,
              "position": 11.25,
              "duration": 0.15
            },
            {
              "pitch": 64,
              "velocity": 89,
              "position": 11.5,
              "duration": 0.233333
            },
            {
              "pitch": 44,
              "velocity": 94,
              "position": 11.75,
              "duration": 0.225
            },
            {
              "pitch": 61,
              "velocity": 90,
              "position": 11.75,
              "duration": 0.166667
            },
            {
              "pitch": 44,
              "velocity": 87,
              "position": 12.0,
              "duration": 0.291667
            },
            {
              "pitch": 75,
              "velocity": 87,
              "position": 12.0,
              "duration": 0.233333
            },
            {
              "pitch": 42,
              "velocity": 80,
              "position": 12.191667,
              "duration": 0.408333
            },
            {
              "pitch": 62,
              "velocity": 96,
              "position": 12.25,
              "duration": 0.141667
            },
            {
              "pitch": 60,
              "velocity": 92,
              "position": 12.5,
              "duration": 0.191667
            },
            {
              "pitch": 44,
              "velocity": 98,
              "position": 12.666667,
              "duration": 0.275
            },
            {
              "pitch": 75,
              "velocity": 84,
              "position": 12.7,
              "duration": 0.275
            },
            {
              "pitch": 36,
              "velocity": 58,
              "position": 12.708333,
              "duration": 0.25
            },
            {
              "pitch": 62,
              "velocity": 105,
              "position": 12.75,
              "duration": 0.35
            },
            {
              "pitch": 42,
              "velocity": 87,
              "position": 12.966667,
              "duration": 0.241667
            },
            {
              "pitch": 44,
              "velocity": 98,
              "position": 13.233333,
              "duration": 0.241667
            },
            {
              "pitch": 60,
              "velocity": 92,
              "position": 13.25,
              "duration": 0.15
            },
            {
              "pitch": 64,
              "velocity": 100,
              "position": 13.5,
              "duration": 0.183333
            },
            {
              "pitch": 42,
              "velocity": 94,
              "position": 13.675,
              "duration": 0.216667
            },
            {
              "pitch": 75,
              "velocity": 87,
              "position": 13.708333,
              "duration": 0.2
            },
            {
              "pitch": 61,
              "velocity": 94,
              "position": 13.75,
              "duration": 0.2
            },
            {
              "pitch": 44,
              "velocity": 98,
              "position": 13.975,
              "duration": 0.316667
            },
            {
              "pitch": 63,
              "velocity": 73,
              "position": 14.0,
              "duration": 0.441667
            },
            {
              "pitch": 42,
              "velocity": 90,
              "position": 14.483333,
              "duration": 0.233333
            },
            {
              "pitch": 75,
              "velocity": 90,
              "position": 14.483333,
              "duration": 0.166667
            },
            {
              "pitch": 61,
              "velocity": 84,
              "position": 14.5,
              "duration": 0.158333
            },
            {
              "pitch": 63,
              "velocity": 90,
              "position": 14.75,
              "duration": 0.416667
            },
            {
              "pitch": 44,
              "velocity": 84,
              "position": 15.008333,
              "duration": 0.216667
            },
            {
              "pitch": 75,
              "velocity": 94,
              "position": 15.05,
              "duration": 0.183333
            },
            {
              "pitch": 42,
              "velocity": 98,
              "position": 15.25,
              "duration": 0.183333
            },
            {
              "pitch": 61,
              "velocity": 90,
              "position": 15.25,
              "duration": 0.158333
            },
            {
              "pitch": 64,
              "velocity": 92,
              "position": 15.5,
              "duration": 0.2
            },
            {
              "pitch": 42,
              "velocity": 90,
              "position": 15.725,
              "duration": 0.175
            },
            {
              "pitch": 60,
              "velocity": 86,
              "position": 15.75,
              "duration": 0.25
            },
            {
              "pitch": 75,
              "velocity": 80,
              "position": 16.041667,
              "duration": 0.35
            },
            {
              "pitch": 42,
              "velocity": 98,
              "position": 16.05,
              "duration": 0.241667
            },
            {
              "pitch": 60,
              "velocity": 49,
              "position": 16.25,
              "duration": 0.233333
            },
            {
              "pitch": 44,
              "velocity": 94,
              "position": 16.258333,
              "duration": 0.166667
            },
            {
              "pitch": 44,
              "velocity": 84,
              "position": 16.725,
              "duration": 0.2
            },
            {
              "pitch": 60,
              "velocity": 56,
              "position": 16.75,
              "duration": 0.166667
            },
            {
              "pitch": 75,
              "velocity": 87,
              "position": 16.791667,
              "duration": 0.358333
            },
            {
              "pitch": 42,
              "velocity": 94,
              "position": 17.025,
              "duration": 0.208333
            },
            {
              "pitch": 44,
              "velocity": 98,
              "position": 17.241667,
              "duration": 0.191667
            },
            {
              "pitch": 60,
              "velocity": 53,
              "position": 17.25,
              "duration": 0.075
            },
            {
              "pitch": 64,
              "velocity": 89,
              "position": 17.5,
              "duration": 0.158333
            },
            {
              "pitch": 75,
              "velocity": 84,
              "position": 17.725,
              "duration": 0.316667
            },
            {
              "pitch": 44,
              "velocity": 98,
              "position": 17.741667,
              "duration": 0.2
            },
            {
              "pitch": 61,
              "velocity": 87,
              "position": 17.75,
              "duration": 0.191667
            },
            {
              "pitch": 63,
              "velocity": 80,
              "position": 18.0,
              "duration": 0.433333
            },
            {
              "pitch": 42,
              "velocity": 98,
              "position": 18.025,
              "duration": 0.225
            },
            {
              "pitch": 44,
              "velocity": 98,
              "position": 18.458333,
              "duration": 0.241667
            },
            {
              "pitch": 75,
              "velocity": 87,
              "position": 18.458333,
              "duration": 0.216667
            },
            {
              "pitch": 61,
              "velocity": 80,
              "position": 18.5,
              "duration": 0.158333
            },
            {
              "pitch": 63,
              "velocity": 87,
              "position": 18.75,
              "duration": 0.408333
            },
            {
              "pitch": 75,
              "velocity": 87,
              "position": 18.991667,
              "duration": 0.25
            },
            {
              "pitch": 42,
              "velocity": 94,
              "position": 19.025,
              "duration": 0.191667
            },
            {
              "pitch": 61,
              "velocity": 67,
              "position": 19.25,
              "duration": 0.125
            },
            {
              "pitch": 44,
              "velocity": 98,
              "position": 19.258333,
              "duration": 0.183333
            },
            {
              "pitch": 64,
              "velocity": 83,
              "position": 19.5,
              "duration": 0.191667
            },
            {
              "pitch": 44,
              "velocity": 94,
              "position": 19.733333,
              "duration": 0.175
            },
            {
              "pitch": 61,
              "velocity": 73,
              "position": 19.75,
              "duration": 0.125
            },
            {
              "pitch": 61,
              "velocity": 84,
              "position": 20.0,
              "duration": 0.508333
            },
            {
              "pitch": 75,
              "velocity": 87,
              "position": 20.0,
              "duration": 0.233333
            },
            {
              "pitch": 42,
              "velocity": 94,
              "position": 20.016667,
              "duration": 0.291667
            },
            {
              "pitch": 75,
              "velocity": 84,
              "position": 20.7,
              "duration": 0.275
            },
            {
              "pitch": 48,
              "velocity": 75,
              "position": 20.733333,
              "duration": 0.158333
            },
            {
              "pitch": 62,
              "velocity": 89,
              "position": 20.75,
              "duration": 0.433333
            },
            {
              "pitch": 48,
              "velocity": 105,
              "position": 21.025,
              "duration": 0.241667
            },
            {
              "pitch": 61,
              "velocity": 90,
              "position": 21.25,
              "duration": 0.158333
            },
            {
              "pitch": 64,
              "velocity": 92,
              "position": 21.5,
              "duration": 0.2
            },
            {
              "pitch": 75,
              "velocity": 87,
              "position": 21.708333,
              "duration": 0.2
            },
            {
              "pitch": 45,
              "velocity": 77,
              "position": 21.725,
              "duration": 0.15
            },
            {
              "pitch": 61,
              "velocity": 106,
              "position": 21.75,
              "duration": 0.208333
            },
            {
              "pitch": 63,
              "velocity": 87,
              "position": 22.0,
              "duration": 0.383333
            },
            {
              "pitch": 45,
              "velocity": 96,
              "position": 22.016667,
              "duration": 0.183333
            },
            {
              "pitch": 45,
              "velocity": 83,
              "position": 22.475,
              "duration": 0.191667
            },
            {
              "pitch": 75,
              "velocity": 90,
              "position": 22.483333,
              "duration": 0.166667
            },
            {
              "pitch": 61,
              "velocity": 80,
              "position": 22.5,
              "duration": 0.158333
            },
            {
              "pitch": 63,
              "velocity": 84,
              "position": 22.75,
              "duration": 0.408333
            },
            {
              "pitch": 43,
              "velocity": 100,
              "position": 22.983333,
              "duration": 0.15
            },
            {
              "pitch": 75,
              "velocity": 94,
              "position": 23.05,
              "duration": 0.183333
            },
            {
              "pitch": 43,
              "velocity": 94,
              "position": 23.225,
              "duration": 0.175
            },
            {
              "pitch": 61,
              "velocity": 84,
              "position": 23.25,
              "duration": 0.2
            },
            {
              "pitch": 64,
              "velocity": 96,
              "position": 23.5,
              "duration": 0.266667
            },
            {
              "pitch": 43,
              "velocity": 89,
              "position": 23.7,
              "duration": 0.116667
            },
            {
              "pitch": 61,
              "velocity": 106,
              "position": 23.75,
              "duration": 0.25
            }
          ]
        },
        "10": {
          "ctab": {
            "srcChannel": 10,
            "name": "Bass",
            "accType": "BASS",
            "editable": true,
            "mutedNotes": [],
            "mutedChords": [],
            "sourceChordNote": 0,
            "sourceChordType": "Maj7",
            "ctb2Main": {
              "ntr": "ROOT_TRANSPOSITION",
              "ntt": "BYPASS",
              "bassOn": true,
              "noteLowLimit": 20,
              "noteHighLimit": 60,
              "chordRootUpperLimit": 127,
              "rtr": "NOTE_GENERATOR"
            }
          },
          "notes": [
            {
              "pitch": 36,
              "velocity": 73,
              "position": 8.0,
              "duration": 0.475
            },
            {
              "pitch": 36,
              "velocity": 76,
              "position": 8.683333,
              "duration": 0.566667
            },
            {
              "pitch": 36,
              "velocity": 80,
              "position": 9.508333,
              "duration": 0.375
            },
            {
              "pitch": 36,
              "velocity": 69,
              "position": 10.016667,
              "duration": 0.4
            },
            {
              "pitch": 36,
              "velocity": 83,
              "position": 10.475,
              "duration": 0.408333
            },
            {
              "pitch": 43,
              "velocity": 77,
              "position": 10.983333,
              "duration": 0.633333
            },
            {
              "pitch": 48,
              "velocity": 77,
              "position": 11.708333,
              "duration": 0.175
            },
            {
              "pitch": 36,
              "velocity": 73,
              "position": 12.0,
              "duration": 0.475
            },
            {
              "pitch": 36,
              "velocity": 76,
              "position": 12.683333,
              "duration": 0.483333
            },
            {
              "pitch": 36,
              "velocity": 72,
              "position": 13.508333,
              "duration": 0.033333
            },
            {
              "pitch": 36,
              "velocity": 80,
              "position": 15.008333,
              "duration": 0.841667
            },
            {
              "pitch": 48,
              "velocity": 76,
              "position": 16.0,
              "duration": 0.425
            },
            {
              "pitch": 48,
              "velocity": 76,
              "position": 16.733333,
              "duration": 0.416667
            },
            {
              "pitch": 36,
              "velocity": 73,
              "position": 17.433333,
              "duration": 1.8
            },
            {
              "pitch": 43,
              "velocity": 89,
              "position": 19.466667,
              "duration": 0.416667
            },
            {
              "pitch": 48,
              "velocity": 76,
              "position": 20.05,
              "duration": 0.341667
            },
            {
              "pitch": 48,
              "velocity": 76,
              "position": 20.683333,
              "duration": 0.491667
            },
            {
              "pitch": 36,
              "velocity": 76,
              "position": 21.433333,
              "duration": 1.883333
            },
            {
              "pitch": 48,
              "velocity": 73,
              "position": 23.45,
              "duration": 0.416667
            }
          ]
        },
        "11": {
          "ctab": {
            "srcChannel": 11,
            "name": "Piano",
            "accType": "CHORD1",
            "editable": true,
            "mutedNotes": [],
            "mutedChords": [],
            "sourceChordNote": 0,
            "sourceChordType": "Maj7",
            "ctb2Main": {
              "ntr": "ROOT_FIXED",
              "ntt": "CHORD",
              "bassOn": false,
              "noteLowLimit": 48,
              "noteHighLimit": 84,
              "chordRootUpperLimit": 127,
              "rtr": "NOTE_GENERATOR"
            }
          },
          "notes": [
            {
              "pitch": 55,
              "velocity": 59,
              "position": 8.016667,
              "duration": 0.191667
            },
            {
              "pitch": 67,
              "velocity": 59,
              "position": 8.016667,
              "duration": 0.191667
            },
            {
              "pitch": 79,
              "velocity": 59,
              "position": 8.025,
              "duration": 0.191667
            },
            {
              "pitch": 59,
              "velocity": 61,
              "position": 8.241667,
              "duration": 0.375
            },
            {
              "pitch": 64,
              "velocity": 61,
              "position": 8.241667,
              "duration": 0.325
            },
            {
              "pitch": 74,
              "velocity": 61,
              "position": 8.241667,
              "duration": 0.366667
            },
            {
              "pitch": 76,
              "velocity": 47,
              "position": 8.241667,
              "duration": 0.325
            },
            {
              "pitch": 52,
              "velocity": 55,
              "position": 8.75,
              "duration": 0.375
            },
            {
              "pitch": 79,
              "velocity": 61,
              "position": 8.75,
              "duration": 0.308333
            },
            {
              "pitch": 67,
              "velocity": 61,
              "position": 8.758333,
              "duration": 0.383333
            },
            {
              "pitch": 59,
              "velocity": 61,
              "position": 9.233333,
              "duration": 0.383333
            },
            {
              "pitch": 64,
              "velocity": 61,
              "position": 9.233333,
              "duration": 0.333333
            },
            {
              "pitch": 74,
              "velocity": 61,
              "position": 9.241667,
              "duration": 0.341667
            },
            {
              "pitch": 76,
              "velocity": 52,
              "position": 9.241667,
              "duration": 0.3
            },
            {
              "pitch": 79,
              "velocity": 59,
              "position": 9.766667,
              "duration": 0.425
            },
            {
              "pitch": 55,
              "velocity": 59,
              "position": 9.775,
              "duration": 0.416667
            },
            {
              "pitch": 67,
              "velocity": 59,
              "position": 9.791667,
              "duration": 0.4
            },
            {
              "pitch": 55,
              "velocity": 61,
              "position": 10.233333,
              "duration": 0.325
            },
            {
              "pitch": 60,
              "velocity": 55,
              "position": 10.25,
              "duration": 0.275
            },
            {
              "pitch": 74,
              "velocity": 61,
              "position": 10.25,
              "duration": 0.341667
            },
            {
              "pitch": 76,
              "velocity": 49,
              "position": 10.25,
              "duration": 0.308333
            },
            {
              "pitch": 52,
              "velocity": 58,
              "position": 10.766667,
              "duration": 0.391667
            },
            {
              "pitch": 67,
              "velocity": 61,
              "position": 10.766667,
              "duration": 0.275
            },
            {
              "pitch": 79,
              "velocity": 61,
              "position": 10.766667,
              "duration": 0.291667
            },
            {
              "pitch": 60,
              "velocity": 61,
              "position": 11.233333,
              "duration": 0.308333
            },
            {
              "pitch": 55,
              "velocity": 61,
              "position": 11.241667,
              "duration": 0.283333
            },
            {
              "pitch": 74,
              "velocity": 61,
              "position": 11.241667,
              "duration": 0.308333
            },
            {
              "pitch": 76,
              "velocity": 49,
              "position": 11.25,
              "duration": 0.233333
            },
            {
              "pitch": 52,
              "velocity": 42,
              "position": 11.683333,
              "duration": 0.158333
            },
            {
              "pitch": 67,
              "velocity": 40,
              "position": 11.691667,
              "duration": 0.083333
            },
            {
              "pitch": 79,
              "velocity": 40,
              "position": 11.691667,
              "duration": 0.116667
            },
            {
              "pitch": 52,
              "velocity": 62,
              "position": 12.033333,
              "duration": 0.483333
            },
            {
              "pitch": 67,
              "velocity": 58,
              "position": 12.033333,
              "duration": 0.308333
            },
            {
              "pitch": 79,
              "velocity": 52,
              "position": 12.033333,
              "duration": 0.316667
            },
            {
              "pitch": 59,
              "velocity": 62,
              "position": 12.516667,
              "duration": 0.308333
            },
            {
              "pitch": 71,
              "velocity": 62,
              "position": 12.516667,
              "duration": 0.225
            },
            {
              "pitch": 76,
              "velocity": 61,
              "position": 12.516667,
              "duration": 0.3
            },
            {
              "pitch": 64,
              "velocity": 62,
              "position": 12.533333,
              "duration": 0.233333
            },
            {
              "pitch": 52,
              "velocity": 62,
              "position": 13.025,
              "duration": 0.391667
            },
            {
              "pitch": 67,
              "velocity": 62,
              "position": 13.033333,
              "duration": 0.383333
            },
            {
              "pitch": 79,
              "velocity": 62,
              "position": 13.041667,
              "duration": 0.375
            },
            {
              "pitch": 59,
              "velocity": 42,
              "position": 13.25,
              "duration": 0.4
            },
            {
              "pitch": 67,
              "velocity": 61,
              "position": 13.766667,
              "duration": 0.433333
            },
            {
              "pitch": 55,
              "velocity": 61,
              "position": 13.775,
              "duration": 0.425
            },
            {
              "pitch": 79,
              "velocity": 61,
              "position": 13.775,
              "duration": 0.425
            },
            {
              "pitch": 74,
              "velocity": 55,
              "position": 14.25,
              "duration": 0.3
            },
            {
              "pitch": 76,
              "velocity": 47,
              "position": 14.25,
              "duration": 0.316667
            },
            {
              "pitch": 55,
              "velocity": 58,
              "position": 14.258333,
              "duration": 0.3
            },
            {
              "pitch": 60,
              "velocity": 61,
              "position": 14.258333,
              "duration": 0.3
            },
            {
              "pitch": 67,
              "velocity": 61,
              "position": 14.758333,
              "duration": 0.266667
            },
            {
              "pitch": 79,
              "velocity": 61,
              "position": 14.758333,
              "duration": 0.291667
            },
            {
              "pitch": 52,
              "velocity": 61,
              "position": 14.766667,
              "duration": 0.316667
            },
            {
              "pitch": 60,
              "velocity": 61,
              "position": 15.233333,
              "duration": 0.325
            },
            {
              "pitch": 74,
              "velocity": 61,
              "position": 15.241667,
              "duration": 0.275
            },
            {
              "pitch": 76,
              "velocity": 50,
              "position": 15.25,
              "duration": 0.258333
            },
            {
              "pitch": 55,
              "velocity": 61,
              "position": 15.258333,
              "duration": 0.266667
            },
            {
              "pitch": 64,
              "velocity": 62,
              "position": 16.283333,
              "duration": 0.291667
            },
            {
              "pitch": 76,
              "velocity": 62,
              "position": 16.291667,
              "duration": 0.325
            },
            {
              "pitch": 55,
              "velocity": 62,
              "position": 16.766667,
              "duration": 0.358333
            },
            {
              "pitch": 67,
              "velocity": 62,
              "position": 16.766667,
              "duration": 0.308333
            },
            {
              "pitch": 59,
              "velocity": 61,
              "position": 17.291667,
              "duration": 0.3
            },
            {
              "pitch": 71,
              "velocity": 62,
              "position": 17.291667,
              "duration": 0.308333
            },
            {
              "pitch": 60,
              "velocity": 62,
              "position": 17.75,
              "duration": 0.183333
            },
            {
              "pitch": 74,
              "velocity": 61,
              "position": 17.758333,
              "duration": 0.2
            },
            {
              "pitch": 60,
              "velocity": 62,
              "position": 18.058333,
              "duration": 0.35
            },
            {
              "pitch": 74,
              "velocity": 62,
              "position": 18.066667,
              "duration": 0.333333
            },
            {
              "pitch": 64,
              "velocity": 62,
              "position": 18.525,
              "duration": 0.275
            },
            {
              "pitch": 76,
              "velocity": 58,
              "position": 18.525,
              "duration": 0.25
            },
            {
              "pitch": 55,
              "velocity": 62,
              "position": 18.766667,
              "duration": 0.3
            },
            {
              "pitch": 67,
              "velocity": 62,
              "position": 18.766667,
              "duration": 0.291667
            },
            {
              "pitch": 59,
              "velocity": 62,
              "position": 19.258333,
              "duration": 0.275
            },
            {
              "pitch": 71,
              "velocity": 62,
              "position": 19.258333,
              "duration": 0.291667
            },
            {
              "pitch": 60,
              "velocity": 62,
              "position": 19.741667,
              "duration": 0.325
            },
            {
              "pitch": 74,
              "velocity": 62,
              "position": 19.758333,
              "duration": 0.3
            },
            {
              "pitch": 64,
              "velocity": 62,
              "position": 20.266667,
              "duration": 0.358333
            },
            {
              "pitch": 76,
              "velocity": 55,
              "position": 20.275,
              "duration": 0.275
            },
            {
              "pitch": 55,
              "velocity": 61,
              "position": 20.766667,
              "duration": 0.35
            },
            {
              "pitch": 67,
              "velocity": 62,
              "position": 20.766667,
              "duration": 0.291667
            },
            {
              "pitch": 71,
              "velocity": 62,
              "position": 21.258333,
              "duration": 0.291667
            },
            {
              "pitch": 59,
              "velocity": 58,
              "position": 21.266667,
              "duration": 0.291667
            },
            {
              "pitch": 74,
              "velocity": 58,
              "position": 21.725,
              "duration": 0.175
            },
            {
              "pitch": 60,
              "velocity": 58,
              "position": 21.741667,
              "duration": 0.158333
            },
            {
              "pitch": 60,
              "velocity": 62,
              "position": 22.025,
              "duration": 0.5
            },
            {
              "pitch": 74,
              "velocity": 62,
              "position": 22.025,
              "duration": 0.4
            },
            {
              "pitch": 76,
              "velocity": 45,
              "position": 22.475,
              "duration": 0.233333
            },
            {
              "pitch": 64,
              "velocity": 55,
              "position": 22.483333,
              "duration": 0.275
            },
            {
              "pitch": 67,
              "velocity": 62,
              "position": 22.733333,
              "duration": 0.3
            },
            {
              "pitch": 55,
              "velocity": 58,
              "position": 22.741667,
              "duration": 0.308333
            },
            {
              "pitch": 59,
              "velocity": 58,
              "position": 23.233333,
              "duration": 0.35
            },
            {
              "pitch": 71,
              "velocity": 62,
              "position": 23.25,
              "duration": 0.325
            },
            {
              "pitch": 55,
              "velocity": 59,
              "position": 23.766667,
              "duration": 0.425
            },
            {
              "pitch": 67,
              "velocity": 59,
              "position": 23.766667,
              "duration": 0.425
            },
            {
              "pitch": 79,
              "velocity": 59,
              "position": 23.775,
              "duration": 0.425
            }
          ]
        },
        "12": {
          "ctab": {
            "srcChannel": 12,
            "name": "Guitar",
            "accType": "CHORD2",
            "editable": true,
            "mutedNotes": [],
            "mutedChords": [],
            "sourceChordNote": 0,
            "sourceChordType": "Maj7",
            "ctb2Main": {
              "ntr": "ROOT_FIXED",
              "ntt": "CHORD",
              "bassOn": false,
              "noteLowLimit": 40,
              "noteHighLimit": 76,
              "chordRootUpperLimit": 127,
              "rtr": "NOTE_GENERATOR"
            }
          },
          "notes": [
            {
              "pitch": 55,
              "velocity": 41,
              "position": 8.008333,
              "duration": 132.066667
            },
            {
              "pitch": 59,
              "velocity": 41,
              "position": 8.016667,
              "duration": 132.0
            },
            {
              "pitch": 64,
              "velocity": 41,
              "position": 8.016667,
              "duration": 132.1
            }
          ]
        },
        "13": {
          "ctab": {
            "srcChannel": 13,
            "name": "Strings",
            "accType": "PAD",
            "editable": true,
            "mutedNotes": [],
            "mutedChords": [],
            "sourceChordNote": 0,
            "sourceChordType": "Maj7",
            "ctb2Main": {
              "ntr": "ROOT_FIXED",
              "ntt": "MELODY",
              "bassOn": false,
              "noteLowLimit": 36,
              "noteHighLimit": 96,
              "chordRootUpperLimit": 127,
              "rtr": "PITCH_SHIFT"
            }
          },
          "notes": [
            {
              "pitch": 76,
              "velocity": 43,
              "position": 8.725,
              "duration": 0.208333
            },
            {
              "pitch": 67,
              "velocity": 49,
              "position": 8.733333,
              "duration": 0.175
            },
            {
              "pitch": 71,
              "velocity": 53,
              "position": 8.733333,
              "duration": 0.216667
            },
            {
              "pitch": 74,
              "velocity": 46,
              "position": 8.733333,
              "duration": 0.233333
            },
            {
              "pitch": 67,
              "velocity": 55,
              "position": 9.008333,
              "duration": 0.216667
            },
            {
              "pitch": 71,
              "velocity": 56,
              "position": 9.008333,
              "duration": 0.275
            },
            {
              "pitch": 76,
              "velocity": 55,
              "position": 9.008333,
              "duration": 0.266667
            },
            {
              "pitch": 74,
              "velocity": 71,
              "position": 9.016667,
              "duration": 0.241667
            },
            {
              "pitch": 71,
              "velocity": 58,
              "position": 10.716667,
              "duration": 0.166667
            },
            {
              "pitch": 74,
              "velocity": 49,
              "position": 10.716667,
              "duration": 0.225
            },
            {
              "pitch": 76,
              "velocity": 52,
              "position": 10.716667,
              "duration": 0.233333
            },
            {
              "pitch": 76,
              "velocity": 62,
              "position": 10.991667,
              "duration": 0.25
            },
            {
              "pitch": 71,
              "velocity": 49,
              "position": 11.0,
              "duration": 0.241667
            },
            {
              "pitch": 74,
              "velocity": 49,
              "position": 11.0,
              "duration": 0.266667
            },
            {
              "pitch": 67,
              "velocity": 70,
              "position": 12.733333,
              "duration": 0.2
            },
            {
              "pitch": 71,
              "velocity": 60,
              "position": 12.733333,
              "duration": 0.225
            },
            {
              "pitch": 74,
              "velocity": 53,
              "position": 12.733333,
              "duration": 0.233333
            },
            {
              "pitch": 76,
              "velocity": 53,
              "position": 12.733333,
              "duration": 0.258333
            },
            {
              "pitch": 76,
              "velocity": 17,
              "position": 13.008333,
              "duration": 0.283333
            },
            {
              "pitch": 67,
              "velocity": 53,
              "position": 13.016667,
              "duration": 0.233333
            },
            {
              "pitch": 71,
              "velocity": 57,
              "position": 13.016667,
              "duration": 0.266667
            },
            {
              "pitch": 74,
              "velocity": 66,
              "position": 13.025,
              "duration": 0.25
            },
            {
              "pitch": 67,
              "velocity": 61,
              "position": 14.716667,
              "duration": 0.183333
            },
            {
              "pitch": 69,
              "velocity": 55,
              "position": 14.716667,
              "duration": 0.233333
            },
            {
              "pitch": 72,
              "velocity": 49,
              "position": 14.716667,
              "duration": 0.225
            },
            {
              "pitch": 76,
              "velocity": 49,
              "position": 14.716667,
              "duration": 0.233333
            },
            {
              "pitch": 67,
              "velocity": 49,
              "position": 15.0,
              "duration": 0.233333
            },
            {
              "pitch": 76,
              "velocity": 61,
              "position": 15.0,
              "duration": 0.25
            },
            {
              "pitch": 69,
              "velocity": 61,
              "position": 15.008333,
              "duration": 0.241667
            },
            {
              "pitch": 72,
              "velocity": 43,
              "position": 15.008333,
              "duration": 0.25
            },
            {
              "pitch": 76,
              "velocity": 48,
              "position": 18.733333,
              "duration": 0.233333
            },
            {
              "pitch": 67,
              "velocity": 60,
              "position": 18.741667,
              "duration": 0.166667
            },
            {
              "pitch": 71,
              "velocity": 54,
              "position": 18.741667,
              "duration": 0.225
            },
            {
              "pitch": 74,
              "velocity": 51,
              "position": 18.741667,
              "duration": 0.241667
            },
            {
              "pitch": 67,
              "velocity": 57,
              "position": 19.016667,
              "duration": 0.233333
            },
            {
              "pitch": 71,
              "velocity": 60,
              "position": 19.025,
              "duration": 0.2
            },
            {
              "pitch": 74,
              "velocity": 57,
              "position": 19.025,
              "duration": 0.233333
            },
            {
              "pitch": 76,
              "velocity": 57,
              "position": 19.025,
              "duration": 0.275
            },
            {
              "pitch": 76,
              "velocity": 51,
              "position": 22.716667,
              "duration": 0.25
            },
            {
              "pitch": 67,
              "velocity": 57,
              "position": 22.725,
              "duration": 0.191667
            },
            {
              "pitch": 71,
              "velocity": 48,
              "position": 22.725,
              "duration": 0.2
            },
            {
              "pitch": 74,
              "velocity": 45,
              "position": 22.725,
              "duration": 0.233333
            },
            {
              "pitch": 67,
              "velocity": 60,
              "position": 23.008333,
              "duration": 0.233333
            },
            {
              "pitch": 71,
              "velocity": 48,
              "position": 23.008333,
              "duration": 0.241667
            },
            {
              "pitch": 76,
              "velocity": 54,
              "position": 23.008333,
              "duration": 0.275
            },
            {
              "pitch": 74,
              "velocity": 54,
              "position": 23.016667,
              "duration": 0.266667
            },
            {
              "pitch": 64,
              "velocity": 49,
              "position": 23.691667,
              "duration": 1.825
            },
            {
              "pitch": 67,
              "velocity": 56,
              "position": 23.691667,
              "duration": 1.966667
            }
          ]
        }
      }
    },
    "Main_A": {
      "type": "Main_A",
      "sizeInBeats": 16,
      "channels": {
        "9": {
          "ctab": {
            "srcChannel": 9,
            "name": "Drums",
            "accType": "RHYTHM",
            "editable": false,
            "mutedNotes": [],
            "mutedChords": [],
            "sourceChordNote": 0,
            "sourceChordType": "Maj",
            "ctb2Main": {
              "ntr": "ROOT_FIXED",
              "ntt": "BYPASS",
              "bassOn": false,
              "noteLowLimit": 20,
              "noteHighLimit": 127,
              "chordRootUpperLimit": 127,
              "rtr": "RETRIGGER"
            }
          },
          "notes": [
            {
              "pitch": 36,
              "velocity": 86,
              "position": 0.0,
              "duration": 0.258333
            },
            {
              "pitch": 49,
              "velocity": 111,
              "position": 0.0,
              "duration": 0.191667
            },
            {
              "pitch": 75,
              "velocity": 80,
              "position": 0.041667,
              "duration": 0.35
            },
            {
              "pitch": 60,
              "velocity": 49,
              "position": 0.25,
              "duration": 0.233333
            },
            {
              "pitch": 53,
              "velocity": 96,
              "position": 0.691667,
              "duration": 0.2
            },
            {
              "pitch": 60,
              "velocity": 56,
              "position": 0.75,
              "duration": 0.166667
            },
            {
              "pitch": 75,
              "velocity": 87,
              "position": 0.791667,
              "duration": 0.358333
            },
            {
              "pitch": 60,
              "velocity": 53,
              "position": 1.25,
              "duration": 0.075
            },
            {
              "pitch": 64,
              "velocity": 89,
              "position": 1.5,
              "duration": 0.158333
            },
            {
              "pitch": 53,
              "velocity": 96,
              "position": 1.616667,
              "duration": 0.15
            },
            {
              "pitch": 75,
              "velocity": 84,
              "position": 1.725,
              "duration": 0.316667
            },
            {
              "pitch": 61,
              "velocity": 87,
              "position": 1.75,
              "duration": 0.191667
            },
            {
              "pitch": 53,
              "velocity": 74,
              "position": 1.941667,
              "duration": 0.141667
            },
            {
              "pitch": 63,
              "velocity": 80,
              "position": 2.0,
              "duration": 0.433333
            },
            {
              "pitch": 53,
              "velocity": 105,
              "position": 2.425,
              "duration": 0.191667
            },
            {
              "pitch": 75,
              "velocity": 87,
              "position": 2.458333,
              "duration": 0.216667
            },
            {
              "pitch": 61,
              "velocity": 80,
              "position": 2.5,
              "duration": 0.158333
            },
            {
              "pitch": 63,
              "velocity": 87,
              "position": 2.75,
              "duration": 0.408333
            },
            {
              "pitch": 53,
              "velocity": 96,
              "position": 2.983333,
              "duration": 0.15
            },
            {
              "pitch": 75,
              "velocity": 87,
              "position": 2.991667,
              "duration": 0.25
            },
            {
              "pitch": 53,
              "velocity": 96,
              "position": 3.241667,
              "duration": 0.216667
            },
            {
              "pitch": 61,
              "velocity": 67,
              "position": 3.25,
              "duration": 0.125
            },
            {
              "pitch": 64,
              "velocity": 83,
              "position": 3.5,
              "duration": 0.191667
            },
            {
              "pitch": 61,
              "velocity": 73,
              "position": 3.75,
              "duration": 0.125
            },
            {
              "pitch": 75,
              "velocity": 87,
              "position": 4.0,
              "duration": 0.233333
            },
            {
              "pitch": 53,
              "velocity": 109,
              "position": 4.016667,
              "duration": 0.233333
            },
            {
              "pitch": 61,
              "velocity": 80,
              "position": 4.25,
              "duration": 0.183333
            },
            {
              "pitch": 75,
              "velocity": 84,
              "position": 4.7,
              "duration": 0.275
            },
            {
              "pitch": 36,
              "velocity": 89,
              "position": 4.741667,
              "duration": 0.291667
            },
            {
              "pitch": 53,
              "velocity": 105,
              "position": 4.75,
              "duration": 0.233333
            },
            {
              "pitch": 62,
              "velocity": 89,
              "position": 4.75,
              "duration": 0.283333
            },
            {
              "pitch": 61,
              "velocity": 77,
              "position": 5.25,
              "duration": 0.141667
            },
            {
              "pitch": 53,
              "velocity": 109,
              "position": 5.258333,
              "duration": 0.275
            },
            {
              "pitch": 64,
              "velocity": 83,
              "position": 5.5,
              "duration": 0.2
            },
            {
              "pitch": 75,
              "velocity": 87,
              "position": 5.708333,
              "duration": 0.2
            },
            {
              "pitch": 61,
              "velocity": 80,
              "position": 5.75,
              "duration": 0.166667
            },
            {
              "pitch": 53,
              "velocity": 71,
              "position": 5.766667,
              "duration": 0.083333
            },
            {
              "pitch": 63,
              "velocity": 73,
              "position": 6.0,
              "duration": 0.408333
            },
            {
              "pitch": 53,
              "velocity": 92,
              "position": 6.025,
              "duration": 0.208333
            },
            {
              "pitch": 75,
              "velocity": 90,
              "position": 6.483333,
              "duration": 0.166667
            },
            {
              "pitch": 61,
              "velocity": 67,
              "position": 6.5,
              "duration": 0.116667
            },
            {
              "pitch": 53,
              "velocity": 113,
              "position": 6.516667,
              "duration": 0.283333
            },
            {
              "pitch": 63,
              "velocity": 84,
              "position": 6.75,
              "duration": 0.433333
            },
            {
              "pitch": 75,
              "velocity": 94,
              "position": 7.05,
              "duration": 0.183333
            },
            {
              "pitch": 61,
              "velocity": 70,
              "position": 7.25,
              "duration": 0.158333
            },
            {
              "pitch": 53,
              "velocity": 105,
              "position": 7.266667,
              "duration": 0.283333
            },
            {
              "pitch": 64,
              "velocity": 83,
              "position": 7.5,
              "duration": 0.208333
            },
            {
              "pitch": 53,
              "velocity": 61,
              "position": 7.733333,
              "duration": 0.108333
            },
            {
              "pitch": 61,
              "velocity": 90,
              "position": 7.75,
              "duration": 0.166667
            },
            {
              "pitch": 53,
              "velocity": 100,
              "position": 8.0,
              "duration": 0.25
            },
            {
              "pitch": 75,
              "velocity": 80,
              "position": 8.041667,
              "duration": 0.35
            },
            {
              "pitch": 62,
              "velocity": 86,
              "position": 8.25,
              "duration": 0.15
            },
            {
              "pitch": 53,
              "velocity": 66,
              "position": 8.475,
              "duration": 0.083333
            },
            {
              "pitch": 60,
              "velocity": 89,
              "position": 8.5,
              "duration": 0.191667
            },
            {
              "pitch": 36,
              "velocity": 100,
              "position": 8.708333,
              "duration": 0.3
            },
            {
              "pitch": 53,
              "velocity": 105,
              "position": 8.75,
              "duration": 0.258333
            },
            {
              "pitch": 62,
              "velocity": 100,
              "position": 8.75,
              "duration": 0.283333
            },
            {
              "pitch": 75,
              "velocity": 87,
              "position": 8.791667,
              "duration": 0.358333
            },
            {
              "pitch": 53,
              "velocity": 96,
              "position": 9.233333,
              "duration": 0.225
            },
            {
              "pitch": 60,
              "velocity": 83,
              "position": 9.25,
              "duration": 0.158333
            },
            {
              "pitch": 64,
              "velocity": 96,
              "position": 9.5,
              "duration": 0.191667
            },
            {
              "pitch": 53,
              "velocity": 86,
              "position": 9.725,
              "duration": 0.15
            },
            {
              "pitch": 75,
              "velocity": 84,
              "position": 9.725,
              "duration": 0.316667
            },
            {
              "pitch": 61,
              "velocity": 87,
              "position": 9.75,
              "duration": 0.2
            },
            {
              "pitch": 63,
              "velocity": 80,
              "position": 10.0,
              "duration": 0.408333
            },
            {
              "pitch": 53,
              "velocity": 96,
              "position": 10.033333,
              "duration": 0.25
            },
            {
              "pitch": 75,
              "velocity": 87,
              "position": 10.458333,
              "duration": 0.216667
            },
            {
              "pitch": 61,
              "velocity": 84,
              "position": 10.5,
              "duration": 0.183333
            },
            {
              "pitch": 53,
              "velocity": 100,
              "position": 10.508333,
              "duration": 0.2
            },
            {
              "pitch": 63,
              "velocity": 90,
              "position": 10.75,
              "duration": 0.375
            },
            {
              "pitch": 75,
              "velocity": 87,
              "position": 10.991667,
              "duration": 0.25
            },
            {
              "pitch": 53,
              "velocity": 96,
              "position": 11.008333,
              "duration": 0.15
            },
            {
              "pitch": 61,
              "velocity": 77,
              "position": 11.25,
              "duration": 0.166667
            },
            {
              "pitch": 53,
              "velocity": 100,
              "position": 11.266667,
              "duration": 0.191667
            },
            {
              "pitch": 64,
              "velocity": 96,
              "position": 11.5,
              "duration": 0.425
            },
            {
              "pitch": 53,
              "velocity": 96,
              "position": 11.666667,
              "duration": 0.141667
            },
            {
              "pitch": 75,
              "velocity": 87,
              "position": 12.0,
              "duration": 0.233333
            },
            {
              "pitch": 48,
              "velocity": 92,
              "position": 12.208333,
              "duration": 0.191667
            },
            {
              "pitch": 62,
              "velocity": 89,
              "position": 12.25,
              "duration": 0.15
            },
            {
              "pitch": 60,
              "velocity": 83,
              "position": 12.5,
              "duration": 0.133333
            },
            {
              "pitch": 75,
              "velocity": 84,
              "position": 12.7,
              "duration": 0.275
            },
            {
              "pitch": 62,
              "velocity": 96,
              "position": 12.75,
              "duration": 0.3
            },
            {
              "pitch": 48,
              "velocity": 92,
              "position": 12.758333,
              "duration": 0.2
            },
            {
              "pitch": 60,
              "velocity": 80,
              "position": 13.25,
              "duration": 0.1
            },
            {
              "pitch": 64,
              "velocity": 96,
              "position": 13.5,
              "duration": 0.175
            },
            {
              "pitch": 45,
              "velocity": 72,
              "position": 13.691667,
              "duration": 0.158333
            },
            {
              "pitch": 75,
              "velocity": 87,
              "position": 13.708333,
              "duration": 0.2
            },
            {
              "pitch": 61,
              "velocity": 90,
              "position": 13.75,
              "duration": 0.175
            },
            {
              "pitch": 45,
              "velocity": 113,
              "position": 13.966667,
              "duration": 0.175
            },
            {
              "pitch": 63,
              "velocity": 84,
              "position": 14.0,
              "duration": 0.391667
            },
            {
              "pitch": 45,
              "velocity": 81,
              "position": 14.433333,
              "duration": 0.2
            },
            {
              "pitch": 75,
              "velocity": 90,
              "position": 14.483333,
              "duration": 0.166667
            },
            {
              "pitch": 61,
              "velocity": 67,
              "position": 14.5,
              "duration": 0.15
            },
            {
              "pitch": 63,
              "velocity": 84,
              "position": 14.75,
              "duration": 0.433333
            },
            {
              "pitch": 43,
              "velocity": 101,
              "position": 14.941667,
              "duration": 0.191667
            },
            {
              "pitch": 75,
              "velocity": 94,
              "position": 15.05,
              "duration": 0.183333
            },
            {
              "pitch": 48,
              "velocity": 96,
              "position": 15.225,
              "duration": 0.166667
            },
            {
              "pitch": 61,
              "velocity": 87,
              "position": 15.25,
              "duration": 0.166667
            },
            {
              "pitch": 64,
              "velocity": 89,
              "position": 15.5,
              "duration": 0.233333
            },
            {
              "pitch": 43,
              "velocity": 96,
              "position": 15.7,
              "duration": 0.208333
            },
            {
              "pitch": 61,
              "velocity": 94,
              "position": 15.75,
              "duration": 0.216667
            }
          ]
        },
        "10": {
          "ctab": {
            "srcChannel": 10,
            "name": "Bass",
            "accType": "BASS",
            "editable": true,
            "mutedNotes": [],
            "mutedChords": [],
            "sourceChordNote": 0,
            "sourceChordType": "Maj7",
            "ctb2Main": {
              "ntr": "ROOT_TRANSPOSITION",
              "ntt": "BYPASS",
              "bassOn": true,
              "noteLowLimit": 20,
              "noteHighLimit": 60,
              "chordRootUpperLimit": 127,
              "rtr": "NOTE_GENERATOR"
            }
          },
          "notes": [
            {
              "pitch": 36,
              "velocity": 80,
              "position": 0.008333,
              "duration": 0.633333
            },
            {
              "pitch": 43,
              "velocity": 86,
              "position": 0.758333,
              "duration": 0.566667
            },
            {
              "pitch": 36,
              "velocity": 83,
              "position": 1.5,
              "duration": 0.058333
            },
            {
              "pitch": 48,
              "velocity": 102,
              "position": 2.991667,
              "duration": 0.4
            },
            {
              "pitch": 36,
              "velocity": 77,
              "position": 3.683333,
              "duration": 0.2
            },
            {
              "pitch": 36,
              "velocity": 83,
              "position": 4.016667,
              "duration": 0.591667
            },
            {
              "pitch": 48,
              "velocity": 92,
              "position": 4.75,
              "duration": 0.733333
            },
            {
              "pitch": 36,
              "velocity": 83,
              "position": 5.5,
              "duration": 1.35
            },
            {
              "pitch": 48,
              "velocity": 102,
              "position": 6.991667,
              "duration": 0.4
            },
            {
              "pitch": 36,
              "velocity": 77,
              "position": 7.683333,
              "duration": 0.2
            },
            {
              "pitch": 36,
              "velocity": 87,
              "position": 8.0,
              "duration": 0.633333
            },
            {
              "pitch": 43,
              "velocity": 90,
              "position": 8.708333,
              "duration": 0.708333
            },
            {
              "pitch": 48,
              "velocity": 90,
              "position": 9.458333,
              "duration": 1.45
            },
            {
              "pitch": 43,
              "velocity": 84,
              "position": 10.966667,
              "duration": 0.5
            },
            {
              "pitch": 43,
              "velocity": 88,
              "position": 11.616667,
              "duration": 0.275
            },
            {
              "pitch": 36,
              "velocity": 78,
              "position": 11.941667,
              "duration": 0.675
            },
            {
              "pitch": 43,
              "velocity": 87,
              "position": 12.691667,
              "duration": 0.683333
            },
            {
              "pitch": 48,
              "velocity": 93,
              "position": 13.433333,
              "duration": 1.608333
            },
            {
              "pitch": 43,
              "velocity": 96,
              "position": 15.016667,
              "duration": 0.783333
            },
            {
              "pitch": 36,
              "velocity": 84,
              "position": 15.691667,
              "duration": 0.191667
            }
          ]
        },
        "11": {
          "ctab": {
            "srcChannel": 11,
            "name": "Piano",
            "accType": "CHORD1",
            "editable": true,
            "mutedNotes": [],
            "mutedChords": [],
            "sourceChordNote": 0,
            "sourceChordType": "Maj7",
            "ctb2Main": {
              "ntr": "ROOT_FIXED",
              "ntt": "CHORD",
              "bassOn": false,
              "noteLowLimit": 48,
              "noteHighLimit": 84,
              "chordRootUpperLimit": 127,
              "rtr": "NOTE_GENERATOR"
            }
          },
          "notes": [
            {
              "pitch": 59,
              "velocity": 61,
              "position": 0.241667,
              "duration": 0.375
            },
            {
              "pitch": 64,
              "velocity": 61,
              "position": 0.241667,
              "duration": 0.325
            },
            {
              "pitch": 74,
              "velocity": 61,
              "position": 0.241667,
              "duration": 0.366667
            },
            {
              "pitch": 76,
              "velocity": 47,
              "position": 0.241667,
              "duration": 0.325
            },
            {
              "pitch": 52,
              "velocity": 55,
              "position": 0.75,
              "duration": 0.375
            },
            {
              "pitch": 79,
              "velocity": 61,
              "position": 0.75,
              "duration": 0.308333
            },
            {
              "pitch": 67,
              "velocity": 61,
              "position": 0.758333,
              "duration": 0.383333
            },
            {
              "pitch": 59,
              "velocity": 61,
              "position": 1.233333,
              "duration": 0.383333
            },
            {
              "pitch": 64,
              "velocity": 61,
              "position": 1.233333,
              "duration": 0.333333
            },
            {
              "pitch": 74,
              "velocity": 61,
              "position": 1.241667,
              "duration": 0.341667
            },
            {
              "pitch": 76,
              "velocity": 52,
              "position": 1.241667,
              "duration": 0.3
            },
            {
              "pitch": 67,
              "velocity": 61,
              "position": 1.766667,
              "duration": 0.433333
            },
            {
              "pitch": 55,
              "velocity": 61,
              "position": 1.775,
              "duration": 0.425
            },
            {
              "pitch": 79,
              "velocity": 61,
              "position": 1.775,
              "duration": 0.425
            },
            {
              "pitch": 74,
              "velocity": 55,
              "position": 2.25,
              "duration": 0.3
            },
            {
              "pitch": 76,
              "velocity": 47,
              "position": 2.25,
              "duration": 0.316667
            },
            {
              "pitch": 55,
              "velocity": 58,
              "position": 2.258333,
              "duration": 0.3
            },
            {
              "pitch": 60,
              "velocity": 61,
              "position": 2.258333,
              "duration": 0.3
            },
            {
              "pitch": 67,
              "velocity": 61,
              "position": 2.758333,
              "duration": 0.266667
            },
            {
              "pitch": 79,
              "velocity": 61,
              "position": 2.758333,
              "duration": 0.291667
            },
            {
              "pitch": 52,
              "velocity": 61,
              "position": 2.766667,
              "duration": 0.316667
            },
            {
              "pitch": 60,
              "velocity": 61,
              "position": 3.233333,
              "duration": 0.325
            },
            {
              "pitch": 74,
              "velocity": 61,
              "position": 3.241667,
              "duration": 0.275
            },
            {
              "pitch": 76,
              "velocity": 50,
              "position": 3.25,
              "duration": 0.258333
            },
            {
              "pitch": 55,
              "velocity": 61,
              "position": 3.258333,
              "duration": 0.266667
            },
            {
              "pitch": 52,
              "velocity": 38,
              "position": 3.675,
              "duration": 0.1
            },
            {
              "pitch": 79,
              "velocity": 42,
              "position": 3.708333,
              "duration": 0.083333
            },
            {
              "pitch": 67,
              "velocity": 35,
              "position": 3.716667,
              "duration": 0.066667
            },
            {
              "pitch": 52,
              "velocity": 62,
              "position": 4.033333,
              "duration": 0.483333
            },
            {
              "pitch": 67,
              "velocity": 58,
              "position": 4.033333,
              "duration": 0.308333
            },
            {
              "pitch": 79,
              "velocity": 52,
              "position": 4.033333,
              "duration": 0.316667
            },
            {
              "pitch": 59,
              "velocity": 62,
              "position": 4.516667,
              "duration": 0.308333
            },
            {
              "pitch": 71,
              "velocity": 62,
              "position": 4.516667,
              "duration": 0.225
            },
            {
              "pitch": 76,
              "velocity": 61,
              "position": 4.516667,
              "duration": 0.3
            },
            {
              "pitch": 64,
              "velocity": 62,
              "position": 4.533333,
              "duration": 0.233333
            },
            {
              "pitch": 52,
              "velocity": 62,
              "position": 5.025,
              "duration": 0.391667
            },
            {
              "pitch": 67,
              "velocity": 62,
              "position": 5.033333,
              "duration": 0.383333
            },
            {
              "pitch": 79,
              "velocity": 62,
              "position": 5.041667,
              "duration": 0.375
            },
            {
              "pitch": 59,
              "velocity": 42,
              "position": 5.25,
              "duration": 0.4
            },
            {
              "pitch": 67,
              "velocity": 61,
              "position": 5.766667,
              "duration": 0.433333
            },
            {
              "pitch": 55,
              "velocity": 61,
              "position": 5.775,
              "duration": 0.425
            },
            {
              "pitch": 79,
              "velocity": 61,
              "position": 5.775,
              "duration": 0.425
            },
            {
              "pitch": 74,
              "velocity": 55,
              "position": 6.25,
              "duration": 0.3
            },
            {
              "pitch": 76,
              "velocity": 47,
              "position": 6.25,
              "duration": 0.316667
            },
            {
              "pitch": 55,
              "velocity": 58,
              "position": 6.258333,
              "duration": 0.3
            },
            {
              "pitch": 60,
              "velocity": 61,
              "position": 6.258333,
              "duration": 0.3
            },
            {
              "pitch": 67,
              "velocity": 61,
              "position": 6.758333,
              "duration": 0.266667
            },
            {
              "pitch": 79,
              "velocity": 61,
              "position": 6.758333,
              "duration": 0.291667
            },
            {
              "pitch": 52,
              "velocity": 61,
              "position": 6.766667,
              "duration": 0.316667
            },
            {
              "pitch": 60,
              "velocity": 61,
              "position": 7.233333,
              "duration": 0.325
            },
            {
              "pitch": 74,
              "velocity": 61,
              "position": 7.241667,
              "duration": 0.275
            },
            {
              "pitch": 76,
              "velocity": 50,
              "position": 7.25,
              "duration": 0.258333
            },
            {
              "pitch": 55,
              "velocity": 61,
              "position": 7.258333,
              "duration": 0.266667
            },
            {
              "pitch": 72,
              "velocity": 63,
              "position": 7.758333,
              "duration": 0.416667
            },
            {
              "pitch": 52,
              "velocity": 63,
              "position": 7.766667,
              "duration": 0.408333
            },
            {
              "pitch": 60,
              "velocity": 63,
              "position": 7.766667,
              "duration": 0.408333
            },
            {
              "pitch": 76,
              "velocity": 54,
              "position": 8.216667,
              "duration": 0.375
            },
            {
              "pitch": 64,
              "velocity": 42,
              "position": 8.241667,
              "duration": 0.408333
            },
            {
              "pitch": 79,
              "velocity": 60,
              "position": 8.483333,
              "duration": 0.175
            },
            {
              "pitch": 67,
              "velocity": 63,
              "position": 8.491667,
              "duration": 0.175
            },
            {
              "pitch": 69,
              "velocity": 63,
              "position": 8.741667,
              "duration": 0.4
            },
            {
              "pitch": 57,
              "velocity": 63,
              "position": 8.75,
              "duration": 0.4
            },
            {
              "pitch": 81,
              "velocity": 63,
              "position": 8.75,
              "duration": 0.316667
            },
            {
              "pitch": 64,
              "velocity": 63,
              "position": 9.241667,
              "duration": 0.3
            },
            {
              "pitch": 67,
              "velocity": 63,
              "position": 9.241667,
              "duration": 0.283333
            },
            {
              "pitch": 76,
              "velocity": 63,
              "position": 9.241667,
              "duration": 0.233333
            },
            {
              "pitch": 79,
              "velocity": 63,
              "position": 9.25,
              "duration": 0.266667
            },
            {
              "pitch": 57,
              "velocity": 57,
              "position": 9.708333,
              "duration": 0.083333
            },
            {
              "pitch": 69,
              "velocity": 63,
              "position": 9.708333,
              "duration": 0.083333
            },
            {
              "pitch": 81,
              "velocity": 60,
              "position": 9.716667,
              "duration": 0.133333
            },
            {
              "pitch": 59,
              "velocity": 63,
              "position": 9.983333,
              "duration": 0.425
            },
            {
              "pitch": 71,
              "velocity": 63,
              "position": 10.0,
              "duration": 0.316667
            },
            {
              "pitch": 83,
              "velocity": 63,
              "position": 10.008333,
              "duration": 0.308333
            },
            {
              "pitch": 64,
              "velocity": 52,
              "position": 10.216667,
              "duration": 0.383333
            },
            {
              "pitch": 76,
              "velocity": 57,
              "position": 10.241667,
              "duration": 0.358333
            },
            {
              "pitch": 67,
              "velocity": 54,
              "position": 10.466667,
              "duration": 0.191667
            },
            {
              "pitch": 79,
              "velocity": 54,
              "position": 10.508333,
              "duration": 0.1
            },
            {
              "pitch": 57,
              "velocity": 63,
              "position": 10.725,
              "duration": 0.275
            },
            {
              "pitch": 69,
              "velocity": 63,
              "position": 10.758333,
              "duration": 0.216667
            },
            {
              "pitch": 81,
              "velocity": 63,
              "position": 10.758333,
              "duration": 0.258333
            },
            {
              "pitch": 64,
              "velocity": 63,
              "position": 11.225,
              "duration": 0.283333
            },
            {
              "pitch": 67,
              "velocity": 63,
              "position": 11.233333,
              "duration": 0.258333
            },
            {
              "pitch": 79,
              "velocity": 63,
              "position": 11.233333,
              "duration": 0.308333
            },
            {
              "pitch": 69,
              "velocity": 54,
              "position": 11.25,
              "duration": 0.191667
            },
            {
              "pitch": 76,
              "velocity": 63,
              "position": 11.25,
              "duration": 0.3
            },
            {
              "pitch": 59,
              "velocity": 63,
              "position": 11.741667,
              "duration": 0.375
            },
            {
              "pitch": 71,
              "velocity": 63,
              "position": 11.758333,
              "duration": 0.325
            },
            {
              "pitch": 83,
              "velocity": 63,
              "position": 11.758333,
              "duration": 0.325
            },
            {
              "pitch": 64,
              "velocity": 60,
              "position": 12.233333,
              "duration": 0.333333
            },
            {
              "pitch": 76,
              "velocity": 63,
              "position": 12.258333,
              "duration": 0.308333
            },
            {
              "pitch": 67,
              "velocity": 63,
              "position": 12.45,
              "duration": 0.183333
            },
            {
              "pitch": 79,
              "velocity": 52,
              "position": 12.491667,
              "duration": 0.116667
            },
            {
              "pitch": 57,
              "velocity": 63,
              "position": 12.691667,
              "duration": 0.433333
            },
            {
              "pitch": 69,
              "velocity": 63,
              "position": 12.716667,
              "duration": 0.325
            },
            {
              "pitch": 81,
              "velocity": 63,
              "position": 12.716667,
              "duration": 0.325
            },
            {
              "pitch": 67,
              "velocity": 63,
              "position": 13.2,
              "duration": 0.275
            },
            {
              "pitch": 64,
              "velocity": 60,
              "position": 13.208333,
              "duration": 0.333333
            },
            {
              "pitch": 79,
              "velocity": 60,
              "position": 13.208333,
              "duration": 0.25
            },
            {
              "pitch": 76,
              "velocity": 63,
              "position": 13.216667,
              "duration": 0.266667
            },
            {
              "pitch": 57,
              "velocity": 63,
              "position": 13.691667,
              "duration": 0.158333
            },
            {
              "pitch": 69,
              "velocity": 60,
              "position": 13.7,
              "duration": 0.091667
            },
            {
              "pitch": 81,
              "velocity": 63,
              "position": 13.7,
              "duration": 0.141667
            },
            {
              "pitch": 59,
              "velocity": 63,
              "position": 13.991667,
              "duration": 0.45
            },
            {
              "pitch": 71,
              "velocity": 63,
              "position": 13.991667,
              "duration": 0.425
            },
            {
              "pitch": 83,
              "velocity": 63,
              "position": 14.0,
              "duration": 0.358333
            },
            {
              "pitch": 64,
              "velocity": 47,
              "position": 14.208333,
              "duration": 0.408333
            },
            {
              "pitch": 76,
              "velocity": 52,
              "position": 14.258333,
              "duration": 0.375
            },
            {
              "pitch": 67,
              "velocity": 57,
              "position": 14.483333,
              "duration": 0.141667
            },
            {
              "pitch": 79,
              "velocity": 49,
              "position": 14.525,
              "duration": 0.091667
            },
            {
              "pitch": 57,
              "velocity": 63,
              "position": 14.75,
              "duration": 0.383333
            },
            {
              "pitch": 69,
              "velocity": 63,
              "position": 14.75,
              "duration": 0.241667
            },
            {
              "pitch": 81,
              "velocity": 63,
              "position": 14.758333,
              "duration": 0.3
            },
            {
              "pitch": 76,
              "velocity": 63,
              "position": 15.241667,
              "duration": 0.358333
            },
            {
              "pitch": 64,
              "velocity": 63,
              "position": 15.258333,
              "duration": 0.35
            },
            {
              "pitch": 67,
              "velocity": 63,
              "position": 15.258333,
              "duration": 0.283333
            },
            {
              "pitch": 69,
              "velocity": 57,
              "position": 15.258333,
              "duration": 0.166667
            },
            {
              "pitch": 60,
              "velocity": 16,
              "position": 15.758333,
              "duration": 0.241667
            },
            {
              "pitch": 84,
              "velocity": 17,
              "position": 15.758333,
              "duration": 0.241667
            },
            {
              "pitch": 72,
              "velocity": 14,
              "position": 15.766667,
              "duration": 0.233333
            }
          ]
        },
        "12": {
          "ctab": {
            "srcChannel": 12,
            "name": "Guitar",
            "accType": "CHORD2",
            "editable": true,
            "mutedNotes": [],
            "mutedChords": [],
            "sourceChordNote": 0,
            "sourceChordType": "Maj7",
            "ctb2Main": {
              "ntr": "ROOT_FIXED",
              "ntt": "CHORD",
              "bassOn": false,
              "noteLowLimit": 40,
              "noteHighLimit": 76,
              "chordRootUpperLimit": 127,
              "rtr": "NOTE_GENERATOR"
            }
          },
          "notes": [
            {
              "pitch": 67,
              "velocity": 41,
              "position": 0.025,
              "duration": 15.575
            }
          ]
        },
        "13": {
          "ctab": {
            "srcChannel": 13,
            "name": "Strings",
            "accType": "PAD",
            "editable": true,
            "mutedNotes": [],
            "mutedChords": [],
            "sourceChordNote": 0,
            "sourceChordType": "Maj7",
            "ctb2Main": {
              "ntr": "ROOT_FIXED",
              "ntt": "MELODY",
              "bassOn": false,
              "noteLowLimit": 36,
              "noteHighLimit": 96,
              "chordRootUpperLimit": 127,
              "rtr": "PITCH_SHIFT"
            }
          },
          "notes": [
            {
              "pitch": 60,
              "velocity": 63,
              "position": 2.0,
              "duration": 0.283333
            },
            {
              "pitch": 64,
              "velocity": 69,
              "position": 2.0,
              "duration": 0.333333
            },
            {
              "pitch": 64,
              "velocity": 54,
              "position": 2.433333,
              "duration": 0.3
            },
            {
              "pitch": 67,
              "velocity": 51,
              "position": 2.45,
              "duration": 0.341667
            },
            {
              "pitch": 64,
              "velocity": 66,
              "position": 2.95,
              "duration": 0.475
            },
            {
              "pitch": 67,
              "velocity": 63,
              "position": 2.958333,
              "duration": 0.508333
            },
            {
              "pitch": 60,
              "velocity": 70,
              "position": 4.0,
              "duration": 0.291667
            },
            {
              "pitch": 64,
              "velocity": 67,
              "position": 4.0,
              "duration": 0.341667
            },
            {
              "pitch": 64,
              "velocity": 58,
              "position": 4.416667,
              "duration": 0.275
            },
            {
              "pitch": 67,
              "velocity": 50,
              "position": 4.441667,
              "duration": 0.308333
            },
            {
              "pitch": 64,
              "velocity": 55,
              "position": 4.925,
              "duration": 0.25
            },
            {
              "pitch": 67,
              "velocity": 67,
              "position": 4.95,
              "duration": 0.258333
            },
            {
              "pitch": 60,
              "velocity": 68,
              "position": 6.0,
              "duration": 0.258333
            },
            {
              "pitch": 64,
              "velocity": 65,
              "position": 6.0,
              "duration": 0.308333
            },
            {
              "pitch": 64,
              "velocity": 59,
              "position": 6.433333,
              "duration": 0.358333
            },
            {
              "pitch": 60,
              "velocity": 53,
              "position": 6.441667,
              "duration": 0.258333
            },
            {
              "pitch": 64,
              "velocity": 68,
              "position": 6.958333,
              "duration": 0.333333
            },
            {
              "pitch": 67,
              "velocity": 56,
              "position": 6.975,
              "duration": 0.3
            },
            {
              "pitch": 64,
              "velocity": 71,
              "position": 8.0,
              "duration": 0.291667
            },
            {
              "pitch": 71,
              "velocity": 63,
              "position": 8.0,
              "duration": 0.3
            },
            {
              "pitch": 64,
              "velocity": 55,
              "position": 8.725,
              "duration": 6.266667
            },
            {
              "pitch": 71,
              "velocity": 58,
              "position": 8.725,
              "duration": 6.408333
            },
            {
              "pitch": 64,
              "velocity": 63,
              "position": 15.683333,
              "duration": 1.883333
            },
            {
              "pitch": 67,
              "velocity": 66,
              "position": 15.683333,
              "duration": 1.883333
            }
          ]
        }
      }
    },
    "Main_B": {
      "type": "Main_B",
      "sizeInBeats": 16,
      "channels": {
        "9": {
          "ctab": {
            "srcChannel": 9,
            "name": "Drums",
            "accType": "RHYTHM",
            "editable": false,
            "mutedNotes": [],
            "mutedChords": [],
            "sourceChordNote": 0,
            "sourceChordType": "Maj",
            "ctb2Main": {
              "ntr": "ROOT_FIXED",
              "ntt": "BYPASS",
              "bassOn": false,
              "noteLowLimit": 20,
              "noteHighLimit": 127,
              "chordRootUpperLimit": 127,
              "rtr": "RETRIGGER"
            }
          },
          "notes": [
            {
              "pitch": 36,
              "velocity": 100,
              "position": 0.0,
              "duration": 0.25
            },
            {
              "pitch": 57,
              "velocity": 91,
              "position": 0.0,
              "duration": 0.283333
            },
            {
              "pitch": 75,
              "velocity": 80,
              "position": 0.041667,
              "duration": 0.35
            },
            {
              "pitch": 60,
              "velocity": 49,
              "position": 0.25,
              "duration": 0.233333
            },
            {
              "pitch": 53,
              "velocity": 100,
              "position": 0.716667,
              "duration": 0.233333
            },
            {
              "pitch": 60,
              "velocity": 56,
              "position": 0.75,
              "duration": 0.166667
            },
            {
              "pitch": 75,
              "velocity": 87,
              "position": 0.791667,
              "duration": 0.358333
            },
            {
              "pitch": 53,
              "velocity": 100,
              "position": 1.183333,
              "duration": 0.208333
            },
            {
              "pitch": 60,
              "velocity": 53,
              "position": 1.25,
              "duration": 0.075
            },
            {
              "pitch": 64,
              "velocity": 89,
              "position": 1.5,
              "duration": 0.158333
            },
            {
              "pitch": 53,
              "velocity": 105,
              "position": 1.675,
              "duration": 0.133333
            },
            {
              "pitch": 75,
              "velocity": 84,
              "position": 1.725,
              "duration": 0.316667
            },
            {
              "pitch": 61,
              "velocity": 87,
              "position": 1.75,
              "duration": 0.191667
            },
            {
              "pitch": 53,
              "velocity": 96,
              "position": 1.941667,
              "duration": 0.175
            },
            {
              "pitch": 63,
              "velocity": 80,
              "position": 2.0,
              "duration": 0.433333
            },
            {
              "pitch": 75,
              "velocity": 87,
              "position": 2.458333,
              "duration": 0.216667
            },
            {
              "pitch": 53,
              "velocity": 89,
              "position": 2.475,
              "duration": 0.183333
            },
            {
              "pitch": 61,
              "velocity": 80,
              "position": 2.5,
              "duration": 0.158333
            },
            {
              "pitch": 63,
              "velocity": 87,
              "position": 2.75,
              "duration": 0.408333
            },
            {
              "pitch": 53,
              "velocity": 96,
              "position": 2.991667,
              "duration": 0.158333
            },
            {
              "pitch": 75,
              "velocity": 87,
              "position": 2.991667,
              "duration": 0.25
            },
            {
              "pitch": 61,
              "velocity": 67,
              "position": 3.25,
              "duration": 0.125
            },
            {
              "pitch": 53,
              "velocity": 105,
              "position": 3.258333,
              "duration": 0.2
            },
            {
              "pitch": 64,
              "velocity": 83,
              "position": 3.5,
              "duration": 0.191667
            },
            {
              "pitch": 53,
              "velocity": 89,
              "position": 3.716667,
              "duration": 0.125
            },
            {
              "pitch": 61,
              "velocity": 73,
              "position": 3.75,
              "duration": 0.125
            },
            {
              "pitch": 53,
              "velocity": 100,
              "position": 4.0,
              "duration": 0.225
            },
            {
              "pitch": 75,
              "velocity": 87,
              "position": 4.0,
              "duration": 0.233333
            },
            {
              "pitch": 61,
              "velocity": 80,
              "position": 4.25,
              "duration": 0.183333
            },
            {
              "pitch": 53,
              "velocity": 41,
              "position": 4.475,
              "duration": 0.083333
            },
            {
              "pitch": 75,
              "velocity": 84,
              "position": 4.7,
              "duration": 0.275
            },
            {
              "pitch": 36,
              "velocity": 92,
              "position": 4.708333,
              "duration": 0.266667
            },
            {
              "pitch": 53,
              "velocity": 96,
              "position": 4.708333,
              "duration": 0.266667
            },
            {
              "pitch": 62,
              "velocity": 89,
              "position": 4.75,
              "duration": 0.283333
            },
            {
              "pitch": 53,
              "velocity": 100,
              "position": 5.225,
              "duration": 0.216667
            },
            {
              "pitch": 61,
              "velocity": 77,
              "position": 5.25,
              "duration": 0.141667
            },
            {
              "pitch": 64,
              "velocity": 83,
              "position": 5.5,
              "duration": 0.2
            },
            {
              "pitch": 75,
              "velocity": 87,
              "position": 5.708333,
              "duration": 0.2
            },
            {
              "pitch": 53,
              "velocity": 77,
              "position": 5.716667,
              "duration": 0.091667
            },
            {
              "pitch": 61,
              "velocity": 80,
              "position": 5.75,
              "duration": 0.166667
            },
            {
              "pitch": 53,
              "velocity": 86,
              "position": 5.983333,
              "duration": 0.208333
            },
            {
              "pitch": 63,
              "velocity": 73,
              "position": 6.0,
              "duration": 0.408333
            },
            {
              "pitch": 53,
              "velocity": 100,
              "position": 6.475,
              "duration": 0.191667
            },
            {
              "pitch": 75,
              "velocity": 90,
              "position": 6.483333,
              "duration": 0.166667
            },
            {
              "pitch": 61,
              "velocity": 67,
              "position": 6.5,
              "duration": 0.116667
            },
            {
              "pitch": 63,
              "velocity": 84,
              "position": 6.75,
              "duration": 0.433333
            },
            {
              "pitch": 53,
              "velocity": 96,
              "position": 6.975,
              "duration": 0.141667
            },
            {
              "pitch": 75,
              "velocity": 94,
              "position": 7.05,
              "duration": 0.183333
            },
            {
              "pitch": 53,
              "velocity": 100,
              "position": 7.225,
              "duration": 0.225
            },
            {
              "pitch": 61,
              "velocity": 70,
              "position": 7.25,
              "duration": 0.158333
            },
            {
              "pitch": 64,
              "velocity": 83,
              "position": 7.5,
              "duration": 0.208333
            },
            {
              "pitch": 53,
              "velocity": 92,
              "position": 7.708333,
              "duration": 0.141667
            },
            {
              "pitch": 61,
              "velocity": 90,
              "position": 7.75,
              "duration": 0.166667
            },
            {
              "pitch": 53,
              "velocity": 96,
              "position": 8.025,
              "duration": 0.25
            },
            {
              "pitch": 45,
              "velocity": 92,
              "position": 8.033333,
              "duration": 0.208333
            },
            {
              "pitch": 75,
              "velocity": 80,
              "position": 8.041667,
              "duration": 0.35
            },
            {
              "pitch": 62,
              "velocity": 86,
              "position": 8.25,
              "duration": 0.15
            },
            {
              "pitch": 60,
              "velocity": 89,
              "position": 8.5,
              "duration": 0.191667
            },
            {
              "pitch": 53,
              "velocity": 89,
              "position": 8.508333,
              "duration": 0.133333
            },
            {
              "pitch": 36,
              "velocity": 105,
              "position": 8.75,
              "duration": 0.266667
            },
            {
              "pitch": 62,
              "velocity": 100,
              "position": 8.75,
              "duration": 0.283333
            },
            {
              "pitch": 53,
              "velocity": 105,
              "position": 8.758333,
              "duration": 0.25
            },
            {
              "pitch": 75,
              "velocity": 87,
              "position": 8.791667,
              "duration": 0.358333
            },
            {
              "pitch": 53,
              "velocity": 105,
              "position": 9.241667,
              "duration": 0.258333
            },
            {
              "pitch": 60,
              "velocity": 83,
              "position": 9.25,
              "duration": 0.158333
            },
            {
              "pitch": 64,
              "velocity": 96,
              "position": 9.5,
              "duration": 0.191667
            },
            {
              "pitch": 75,
              "velocity": 84,
              "position": 9.725,
              "duration": 0.316667
            },
            {
              "pitch": 61,
              "velocity": 87,
              "position": 9.75,
              "duration": 0.2
            },
            {
              "pitch": 53,
              "velocity": 80,
              "position": 9.775,
              "duration": 0.125
            },
            {
              "pitch": 63,
              "velocity": 80,
              "position": 10.0,
              "duration": 0.408333
            },
            {
              "pitch": 53,
              "velocity": 100,
              "position": 10.025,
              "duration": 0.225
            },
            {
              "pitch": 75,
              "velocity": 87,
              "position": 10.458333,
              "duration": 0.216667
            },
            {
              "pitch": 61,
              "velocity": 84,
              "position": 10.5,
              "duration": 0.183333
            },
            {
              "pitch": 53,
              "velocity": 105,
              "position": 10.516667,
              "duration": 0.208333
            },
            {
              "pitch": 63,
              "velocity": 90,
              "position": 10.75,
              "duration": 0.375
            },
            {
              "pitch": 75,
              "velocity": 87,
              "position": 10.991667,
              "duration": 0.25
            },
            {
              "pitch": 53,
              "velocity": 89,
              "position": 11.016667,
              "duration": 0.091667
            },
            {
              "pitch": 53,
              "velocity": 105,
              "position": 11.25,
              "duration": 0.216667
            },
            {
              "pitch": 61,
              "velocity": 77,
              "position": 11.25,
              "duration": 0.166667
            },
            {
              "pitch": 64,
              "velocity": 96,
              "position": 11.5,
              "duration": 0.425
            },
            {
              "pitch": 53,
              "velocity": 100,
              "position": 11.716667,
              "duration": 0.15
            },
            {
              "pitch": 53,
              "velocity": 113,
              "position": 12.0,
              "duration": 0.25
            },
            {
              "pitch": 61,
              "velocity": 84,
              "position": 12.0,
              "duration": 0.508333
            },
            {
              "pitch": 75,
              "velocity": 87,
              "position": 12.0,
              "duration": 0.233333
            },
            {
              "pitch": 53,
              "velocity": 71,
              "position": 12.45,
              "duration": 0.1
            },
            {
              "pitch": 36,
              "velocity": 96,
              "position": 12.7,
              "duration": 0.25
            },
            {
              "pitch": 75,
              "velocity": 84,
              "position": 12.7,
              "duration": 0.275
            },
            {
              "pitch": 53,
              "velocity": 100,
              "position": 12.716667,
              "duration": 0.225
            },
            {
              "pitch": 62,
              "velocity": 89,
              "position": 12.75,
              "duration": 0.433333
            },
            {
              "pitch": 53,
              "velocity": 100,
              "position": 13.2,
              "duration": 0.233333
            },
            {
              "pitch": 61,
              "velocity": 90,
              "position": 13.25,
              "duration": 0.158333
            },
            {
              "pitch": 64,
              "velocity": 92,
              "position": 13.5,
              "duration": 0.2
            },
            {
              "pitch": 48,
              "velocity": 81,
              "position": 13.708333,
              "duration": 0.15
            },
            {
              "pitch": 75,
              "velocity": 87,
              "position": 13.708333,
              "duration": 0.2
            },
            {
              "pitch": 61,
              "velocity": 106,
              "position": 13.75,
              "duration": 0.208333
            },
            {
              "pitch": 63,
              "velocity": 87,
              "position": 14.0,
              "duration": 0.383333
            },
            {
              "pitch": 48,
              "velocity": 90,
              "position": 14.008333,
              "duration": 0.225
            },
            {
              "pitch": 75,
              "velocity": 90,
              "position": 14.483333,
              "duration": 0.166667
            },
            {
              "pitch": 61,
              "velocity": 80,
              "position": 14.5,
              "duration": 0.158333
            },
            {
              "pitch": 45,
              "velocity": 100,
              "position": 14.7,
              "duration": 0.133333
            },
            {
              "pitch": 63,
              "velocity": 84,
              "position": 14.75,
              "duration": 0.408333
            },
            {
              "pitch": 45,
              "velocity": 64,
              "position": 14.966667,
              "duration": 0.166667
            },
            {
              "pitch": 75,
              "velocity": 94,
              "position": 15.05,
              "duration": 0.183333
            },
            {
              "pitch": 43,
              "velocity": 110,
              "position": 15.216667,
              "duration": 0.175
            },
            {
              "pitch": 61,
              "velocity": 84,
              "position": 15.25,
              "duration": 0.2
            },
            {
              "pitch": 45,
              "velocity": 47,
              "position": 15.258333,
              "duration": 0.083333
            },
            {
              "pitch": 64,
              "velocity": 96,
              "position": 15.5,
              "duration": 0.266667
            },
            {
              "pitch": 43,
              "velocity": 92,
              "position": 15.741667,
              "duration": 0.116667
            },
            {
              "pitch": 61,
              "velocity": 106,
              "position": 15.75,
              "duration": 0.25
            }
          ]
        },
        "10": {
          "ctab": {
            "srcChannel": 10,
            "name": "Bass",
            "accType": "BASS",
            "editable": true,
            "mutedNotes": [],
            "mutedChords": [],
            "sourceChordNote": 0,
            "sourceChordType": "Maj7",
            "ctb2Main": {
              "ntr": "ROOT_TRANSPOSITION",
              "ntt": "BYPASS",
              "bassOn": true,
              "noteLowLimit": 20,
              "noteHighLimit": 60,
              "chordRootUpperLimit": 127,
              "rtr": "NOTE_GENERATOR"
            }
          },
          "notes": [
            {
              "pitch": 36,
              "velocity": 80,
              "position": 0.008333,
              "duration": 0.633333
            },
            {
              "pitch": 43,
              "velocity": 86,
              "position": 0.758333,
              "duration": 0.566667
            },
            {
              "pitch": 36,
              "velocity": 83,
              "position": 1.5,
              "duration": 0.058333
            },
            {
              "pitch": 48,
              "velocity": 102,
              "position": 2.991667,
              "duration": 0.4
            },
            {
              "pitch": 36,
              "velocity": 77,
              "position": 3.683333,
              "duration": 0.2
            },
            {
              "pitch": 36,
              "velocity": 83,
              "position": 4.016667,
              "duration": 0.591667
            },
            {
              "pitch": 48,
              "velocity": 92,
              "position": 4.75,
              "duration": 0.733333
            },
            {
              "pitch": 36,
              "velocity": 88,
              "position": 5.5,
              "duration": 0.966667
            },
            {
              "pitch": 36,
              "velocity": 88,
              "position": 6.716667,
              "duration": 0.283333
            },
            {
              "pitch": 43,
              "velocity": 85,
              "position": 7.016667,
              "duration": 0.583333
            },
            {
              "pitch": 36,
              "velocity": 80,
              "position": 7.758333,
              "duration": 0.433333
            },
            {
              "pitch": 36,
              "velocity": 79,
              "position": 8.241667,
              "duration": 0.466667
            },
            {
              "pitch": 43,
              "velocity": 82,
              "position": 8.75,
              "duration": 0.691667
            },
            {
              "pitch": 48,
              "velocity": 98,
              "position": 9.483333,
              "duration": 1.233333
            },
            {
              "pitch": 43,
              "velocity": 85,
              "position": 10.733333,
              "duration": 0.2
            },
            {
              "pitch": 43,
              "velocity": 98,
              "position": 11.025,
              "duration": 0.641667
            },
            {
              "pitch": 36,
              "velocity": 91,
              "position": 11.691667,
              "duration": 0.358333
            },
            {
              "pitch": 36,
              "velocity": 85,
              "position": 12.233333,
              "duration": 0.408333
            },
            {
              "pitch": 43,
              "velocity": 82,
              "position": 12.741667,
              "duration": 0.666667
            },
            {
              "pitch": 52,
              "velocity": 98,
              "position": 13.433333,
              "duration": 1.266667
            },
            {
              "pitch": 43,
              "velocity": 85,
              "position": 14.733333,
              "duration": 0.2
            },
            {
              "pitch": 43,
              "velocity": 98,
              "position": 15.033333,
              "duration": 0.483333
            },
            {
              "pitch": 36,
              "velocity": 79,
              "position": 15.7,
              "duration": 0.183333
            }
          ]
        },
        "11": {
          "ctab": {
            "srcChannel": 11,
            "name": "Piano",
            "accType": "CHORD1",
            "editable": true,
            "mutedNotes": [],
            "mutedChords": [],
            "sourceChordNote": 0,
            "sourceChordType": "Maj7",
            "ctb2Main": {
              "ntr": "ROOT_FIXED",
              "ntt": "CHORD",
              "bassOn": false,
              "noteLowLimit": 48,
              "noteHighLimit": 84,
              "chordRootUpperLimit": 127,
              "rtr": "NOTE_GENERATOR"
            }
          },
          "notes": [
            {
              "pitch": 55,
              "velocity": 60,
              "position": 0.025,
              "duration": 0.2
            },
            {
              "pitch": 79,
              "velocity": 60,
              "position": 0.025,
              "duration": 0.2
            },
            {
              "pitch": 67,
              "velocity": 60,
              "position": 0.033333,
              "duration": 0.191667
            },
            {
              "pitch": 55,
              "velocity": 53,
              "position": 0.258333,
              "duration": 0.3
            },
            {
              "pitch": 74,
              "velocity": 61,
              "position": 0.266667,
              "duration": 0.275
            },
            {
              "pitch": 60,
              "velocity": 56,
              "position": 0.491667,
              "duration": 0.175
            },
            {
              "pitch": 76,
              "velocity": 45,
              "position": 0.516667,
              "duration": 0.125
            },
            {
              "pitch": 79,
              "velocity": 61,
              "position": 0.741667,
              "duration": 0.3
            },
            {
              "pitch": 52,
              "velocity": 56,
              "position": 0.75,
              "duration": 0.391667
            },
            {
              "pitch": 67,
              "velocity": 61,
              "position": 0.75,
              "duration": 0.3
            },
            {
              "pitch": 60,
              "velocity": 61,
              "position": 1.25,
              "duration": 0.341667
            },
            {
              "pitch": 74,
              "velocity": 61,
              "position": 1.25,
              "duration": 0.308333
            },
            {
              "pitch": 76,
              "velocity": 53,
              "position": 1.25,
              "duration": 0.25
            },
            {
              "pitch": 55,
              "velocity": 59,
              "position": 1.258333,
              "duration": 0.275
            },
            {
              "pitch": 52,
              "velocity": 42,
              "position": 1.7,
              "duration": 0.166667
            },
            {
              "pitch": 67,
              "velocity": 42,
              "position": 1.725,
              "duration": 0.075
            },
            {
              "pitch": 79,
              "velocity": 42,
              "position": 1.725,
              "duration": 0.116667
            },
            {
              "pitch": 55,
              "velocity": 59,
              "position": 2.016667,
              "duration": 0.191667
            },
            {
              "pitch": 67,
              "velocity": 59,
              "position": 2.016667,
              "duration": 0.191667
            },
            {
              "pitch": 79,
              "velocity": 59,
              "position": 2.025,
              "duration": 0.191667
            },
            {
              "pitch": 59,
              "velocity": 61,
              "position": 2.241667,
              "duration": 0.375
            },
            {
              "pitch": 64,
              "velocity": 61,
              "position": 2.241667,
              "duration": 0.325
            },
            {
              "pitch": 74,
              "velocity": 61,
              "position": 2.241667,
              "duration": 0.366667
            },
            {
              "pitch": 76,
              "velocity": 47,
              "position": 2.241667,
              "duration": 0.325
            },
            {
              "pitch": 52,
              "velocity": 55,
              "position": 2.75,
              "duration": 0.375
            },
            {
              "pitch": 79,
              "velocity": 61,
              "position": 2.75,
              "duration": 0.308333
            },
            {
              "pitch": 67,
              "velocity": 61,
              "position": 2.758333,
              "duration": 0.383333
            },
            {
              "pitch": 59,
              "velocity": 61,
              "position": 3.233333,
              "duration": 0.383333
            },
            {
              "pitch": 64,
              "velocity": 61,
              "position": 3.233333,
              "duration": 0.333333
            },
            {
              "pitch": 74,
              "velocity": 61,
              "position": 3.241667,
              "duration": 0.341667
            },
            {
              "pitch": 76,
              "velocity": 52,
              "position": 3.241667,
              "duration": 0.3
            },
            {
              "pitch": 52,
              "velocity": 40,
              "position": 3.733333,
              "duration": 0.1
            },
            {
              "pitch": 79,
              "velocity": 42,
              "position": 3.733333,
              "duration": 0.15
            },
            {
              "pitch": 67,
              "velocity": 42,
              "position": 3.741667,
              "duration": 0.15
            },
            {
              "pitch": 55,
              "velocity": 59,
              "position": 4.016667,
              "duration": 0.191667
            },
            {
              "pitch": 67,
              "velocity": 59,
              "position": 4.016667,
              "duration": 0.191667
            },
            {
              "pitch": 79,
              "velocity": 59,
              "position": 4.025,
              "duration": 0.191667
            },
            {
              "pitch": 59,
              "velocity": 61,
              "position": 4.241667,
              "duration": 0.375
            },
            {
              "pitch": 64,
              "velocity": 61,
              "position": 4.241667,
              "duration": 0.325
            },
            {
              "pitch": 74,
              "velocity": 61,
              "position": 4.241667,
              "duration": 0.366667
            },
            {
              "pitch": 76,
              "velocity": 47,
              "position": 4.241667,
              "duration": 0.325
            },
            {
              "pitch": 52,
              "velocity": 55,
              "position": 4.75,
              "duration": 0.375
            },
            {
              "pitch": 79,
              "velocity": 61,
              "position": 4.75,
              "duration": 0.308333
            },
            {
              "pitch": 67,
              "velocity": 61,
              "position": 4.758333,
              "duration": 0.383333
            },
            {
              "pitch": 59,
              "velocity": 61,
              "position": 5.233333,
              "duration": 0.383333
            },
            {
              "pitch": 64,
              "velocity": 61,
              "position": 5.233333,
              "duration": 0.333333
            },
            {
              "pitch": 74,
              "velocity": 61,
              "position": 5.241667,
              "duration": 0.341667
            },
            {
              "pitch": 76,
              "velocity": 52,
              "position": 5.241667,
              "duration": 0.3
            },
            {
              "pitch": 52,
              "velocity": 63,
              "position": 6.0,
              "duration": 0.483333
            },
            {
              "pitch": 71,
              "velocity": 63,
              "position": 6.0,
              "duration": 0.333333
            },
            {
              "pitch": 83,
              "velocity": 63,
              "position": 6.0,
              "duration": 0.366667
            },
            {
              "pitch": 64,
              "velocity": 63,
              "position": 6.45,
              "duration": 0.25
            },
            {
              "pitch": 59,
              "velocity": 63,
              "position": 6.458333,
              "duration": 0.275
            },
            {
              "pitch": 74,
              "velocity": 63,
              "position": 6.458333,
              "duration": 0.258333
            },
            {
              "pitch": 76,
              "velocity": 52,
              "position": 6.458333,
              "duration": 0.258333
            },
            {
              "pitch": 52,
              "velocity": 63,
              "position": 6.966667,
              "duration": 0.441667
            },
            {
              "pitch": 71,
              "velocity": 63,
              "position": 6.975,
              "duration": 0.516667
            },
            {
              "pitch": 83,
              "velocity": 63,
              "position": 6.983333,
              "duration": 0.491667
            },
            {
              "pitch": 59,
              "velocity": 33,
              "position": 7.208333,
              "duration": 0.341667
            },
            {
              "pitch": 67,
              "velocity": 63,
              "position": 7.758333,
              "duration": 0.425
            },
            {
              "pitch": 79,
              "velocity": 63,
              "position": 7.766667,
              "duration": 0.425
            },
            {
              "pitch": 55,
              "velocity": 63,
              "position": 7.775,
              "duration": 0.416667
            },
            {
              "pitch": 64,
              "velocity": 63,
              "position": 8.233333,
              "duration": 0.333333
            },
            {
              "pitch": 59,
              "velocity": 61,
              "position": 8.241667,
              "duration": 0.366667
            },
            {
              "pitch": 74,
              "velocity": 63,
              "position": 8.241667,
              "duration": 0.325
            },
            {
              "pitch": 76,
              "velocity": 58,
              "position": 8.241667,
              "duration": 0.333333
            },
            {
              "pitch": 67,
              "velocity": 63,
              "position": 8.741667,
              "duration": 0.416667
            },
            {
              "pitch": 79,
              "velocity": 63,
              "position": 8.741667,
              "duration": 0.433333
            },
            {
              "pitch": 52,
              "velocity": 63,
              "position": 8.75,
              "duration": 0.458333
            },
            {
              "pitch": 64,
              "velocity": 63,
              "position": 9.233333,
              "duration": 0.2
            },
            {
              "pitch": 74,
              "velocity": 63,
              "position": 9.233333,
              "duration": 0.266667
            },
            {
              "pitch": 59,
              "velocity": 63,
              "position": 9.241667,
              "duration": 0.258333
            },
            {
              "pitch": 76,
              "velocity": 50,
              "position": 9.25,
              "duration": 0.241667
            },
            {
              "pitch": 64,
              "velocity": 63,
              "position": 9.7,
              "duration": 0.191667
            },
            {
              "pitch": 59,
              "velocity": 58,
              "position": 9.708333,
              "duration": 0.191667
            },
            {
              "pitch": 76,
              "velocity": 50,
              "position": 9.733333,
              "duration": 0.183333
            },
            {
              "pitch": 74,
              "velocity": 50,
              "position": 9.741667,
              "duration": 0.133333
            },
            {
              "pitch": 79,
              "velocity": 63,
              "position": 10.0,
              "duration": 0.375
            },
            {
              "pitch": 52,
              "velocity": 61,
              "position": 10.008333,
              "duration": 0.541667
            },
            {
              "pitch": 67,
              "velocity": 63,
              "position": 10.008333,
              "duration": 0.425
            },
            {
              "pitch": 59,
              "velocity": 63,
              "position": 10.483333,
              "duration": 0.291667
            },
            {
              "pitch": 64,
              "velocity": 63,
              "position": 10.483333,
              "duration": 0.216667
            },
            {
              "pitch": 74,
              "velocity": 63,
              "position": 10.5,
              "duration": 0.225
            },
            {
              "pitch": 76,
              "velocity": 53,
              "position": 10.5,
              "duration": 0.258333
            },
            {
              "pitch": 52,
              "velocity": 63,
              "position": 11.0,
              "duration": 0.491667
            },
            {
              "pitch": 83,
              "velocity": 63,
              "position": 11.008333,
              "duration": 0.525
            },
            {
              "pitch": 71,
              "velocity": 63,
              "position": 11.016667,
              "duration": 0.533333
            },
            {
              "pitch": 59,
              "velocity": 45,
              "position": 11.233333,
              "duration": 0.375
            },
            {
              "pitch": 64,
              "velocity": 61,
              "position": 11.516667,
              "duration": 0.191667
            },
            {
              "pitch": 52,
              "velocity": 61,
              "position": 11.758333,
              "duration": 0.366667
            },
            {
              "pitch": 67,
              "velocity": 63,
              "position": 11.766667,
              "duration": 0.333333
            },
            {
              "pitch": 79,
              "velocity": 63,
              "position": 11.775,
              "duration": 0.325
            },
            {
              "pitch": 59,
              "velocity": 63,
              "position": 12.25,
              "duration": 0.316667
            },
            {
              "pitch": 64,
              "velocity": 63,
              "position": 12.25,
              "duration": 0.291667
            },
            {
              "pitch": 74,
              "velocity": 63,
              "position": 12.258333,
              "duration": 0.35
            },
            {
              "pitch": 76,
              "velocity": 58,
              "position": 12.258333,
              "duration": 0.325
            },
            {
              "pitch": 67,
              "velocity": 63,
              "position": 12.733333,
              "duration": 0.366667
            },
            {
              "pitch": 79,
              "velocity": 63,
              "position": 12.733333,
              "duration": 0.366667
            },
            {
              "pitch": 52,
              "velocity": 63,
              "position": 12.741667,
              "duration": 0.391667
            },
            {
              "pitch": 59,
              "velocity": 63,
              "position": 13.233333,
              "duration": 0.283333
            },
            {
              "pitch": 64,
              "velocity": 63,
              "position": 13.233333,
              "duration": 0.241667
            },
            {
              "pitch": 74,
              "velocity": 63,
              "position": 13.25,
              "duration": 0.283333
            },
            {
              "pitch": 76,
              "velocity": 61,
              "position": 13.258333,
              "duration": 0.275
            },
            {
              "pitch": 64,
              "velocity": 63,
              "position": 13.741667,
              "duration": 0.208333
            },
            {
              "pitch": 59,
              "velocity": 63,
              "position": 13.75,
              "duration": 0.2
            },
            {
              "pitch": 76,
              "velocity": 50,
              "position": 13.758333,
              "duration": 0.191667
            },
            {
              "pitch": 74,
              "velocity": 50,
              "position": 13.775,
              "duration": 0.15
            },
            {
              "pitch": 52,
              "velocity": 63,
              "position": 14.025,
              "duration": 0.508333
            },
            {
              "pitch": 67,
              "velocity": 63,
              "position": 14.041667,
              "duration": 0.45
            },
            {
              "pitch": 79,
              "velocity": 63,
              "position": 14.041667,
              "duration": 0.35
            },
            {
              "pitch": 64,
              "velocity": 63,
              "position": 14.491667,
              "duration": 0.266667
            },
            {
              "pitch": 59,
              "velocity": 61,
              "position": 14.508333,
              "duration": 0.291667
            },
            {
              "pitch": 74,
              "velocity": 63,
              "position": 14.516667,
              "duration": 0.258333
            },
            {
              "pitch": 76,
              "velocity": 53,
              "position": 14.525,
              "duration": 0.233333
            },
            {
              "pitch": 67,
              "velocity": 63,
              "position": 15.016667,
              "duration": 0.483333
            },
            {
              "pitch": 52,
              "velocity": 61,
              "position": 15.025,
              "duration": 0.391667
            },
            {
              "pitch": 79,
              "velocity": 63,
              "position": 15.025,
              "duration": 0.541667
            },
            {
              "pitch": 59,
              "velocity": 43,
              "position": 15.266667,
              "duration": 0.35
            },
            {
              "pitch": 79,
              "velocity": 59,
              "position": 15.766667,
              "duration": 0.425
            },
            {
              "pitch": 55,
              "velocity": 59,
              "position": 15.775,
              "duration": 0.416667
            },
            {
              "pitch": 67,
              "velocity": 59,
              "position": 15.791667,
              "duration": 0.4
            }
          ]
        },
        "12": {
          "ctab": {
            "srcChannel": 12,
            "name": "Guitar",
            "accType": "CHORD2",
            "editable": true,
            "mutedNotes": [],
            "mutedChords": [],
            "sourceChordNote": 0,
            "sourceChordType": "Maj7",
            "ctb2Main": {
              "ntr": "ROOT_FIXED",
              "ntt": "CHORD",
              "bassOn": false,
              "noteLowLimit": 40,
              "noteHighLimit": 76,
              "chordRootUpperLimit": 127,
              "rtr": "NOTE_GENERATOR"
            }
          },
          "notes": [
            {
              "pitch": 67,
              "velocity": 41,
              "position": 0.025,
              "duration": 15.575
            }
          ]
        },
        "13": {
          "ctab": {
            "srcChannel": 13,
            "name": "Strings",
            "accType": "PAD",
            "editable": true,
            "mutedNotes": [],
            "mutedChords": [],
            "sourceChordNote": 0,
            "sourceChordType": "Maj7",
            "ctb2Main": {
              "ntr": "ROOT_FIXED",
              "ntt": "MELODY",
              "bassOn": false,
              "noteLowLimit": 36,
              "noteHighLimit": 96,
              "chordRootUpperLimit": 127,
              "rtr": "PITCH_SHIFT"
            }
          },
          "notes": [
            {
              "pitch": 60,
              "velocity": 52,
              "position": 1.683333,
              "duration": 1.975
            },
            {
              "pitch": 64,
              "velocity": 49,
              "position": 1.683333,
              "duration": 1.775
            },
            {
              "pitch": 64,
              "velocity": 49,
              "position": 3.691667,
              "duration": 1.825
            },
            {
              "pitch": 67,
              "velocity": 56,
              "position": 3.691667,
              "duration": 1.966667
            },
            {
              "pitch": 64,
              "velocity": 49,
              "position": 5.691667,
              "duration": 1.825
            },
            {
              "pitch": 67,
              "velocity": 56,
              "position": 5.691667,
              "duration": 1.966667
            },
            {
              "pitch": 64,
              "velocity": 63,
              "position": 8.0,
              "duration": 0.4
            },
            {
              "pitch": 71,
              "velocity": 60,
              "position": 8.0,
              "duration": 0.366667
            },
            {
              "pitch": 64,
              "velocity": 66,
              "position": 8.716667,
              "duration": 0.441667
            },
            {
              "pitch": 71,
              "velocity": 57,
              "position": 8.716667,
              "duration": 0.5
            },
            {
              "pitch": 67,
              "velocity": 74,
              "position": 9.675,
              "duration": 0.308333
            },
            {
              "pitch": 64,
              "velocity": 60,
              "position": 9.983333,
              "duration": 0.241667
            },
            {
              "pitch": 71,
              "velocity": 57,
              "position": 9.983333,
              "duration": 0.291667
            },
            {
              "pitch": 64,
              "velocity": 63,
              "position": 10.475,
              "duration": 0.25
            },
            {
              "pitch": 71,
              "velocity": 54,
              "position": 10.475,
              "duration": 0.316667
            },
            {
              "pitch": 64,
              "velocity": 60,
              "position": 10.983333,
              "duration": 0.441667
            },
            {
              "pitch": 67,
              "velocity": 61,
              "position": 10.983333,
              "duration": 0.583333
            },
            {
              "pitch": 71,
              "velocity": 60,
              "position": 11.666667,
              "duration": 0.341667
            },
            {
              "pitch": 64,
              "velocity": 63,
              "position": 11.675,
              "duration": 0.341667
            }
          ]
        }
      }
    },
    "Main_C": {
      "type": "Main_C",
      "sizeInBeats": 16,
      "channels": {
        "9": {
          "ctab": {
            "srcChannel": 9,
            "name": "Drums",
            "accType": "RHYTHM",
            "editable": false,
            "mutedNotes": [],
            "mutedChords": [],
            "sourceChordNote": 0,
            "sourceChordType": "Maj",
            "ctb2Main": {
              "ntr": "ROOT_FIXED",
              "ntt": "BYPASS",
              "bassOn": false,
              "noteLowLimit": 20,
              "noteHighLimit": 127,
              "chordRootUpperLimit": 127,
              "rtr": "RETRIGGER"
            }
          },
          "notes": [
            {
              "pitch": 36,
              "velocity": 100,
              "position": 0.0,
              "duration": 0.25
            },
            {
              "pitch": 57,
              "velocity": 91,
              "position": 0.0,
              "duration": 0.283333
            },
            {
              "pitch": 75,
              "velocity": 80,
              "position": 0.041667,
              "duration": 0.35
            },
            {
              "pitch": 60,
              "velocity": 49,
              "position": 0.25,
              "duration": 0.233333
            },
            {
              "pitch": 53,
              "velocity": 100,
              "position": 0.716667,
              "duration": 0.233333
            },
            {
              "pitch": 60,
              "velocity": 56,
              "position": 0.75,
              "duration": 0.166667
            },
            {
              "pitch": 75,
              "velocity": 87,
              "position": 0.791667,
              "duration": 0.358333
            },
            {
              "pitch": 53,
              "velocity": 100,
              "position": 1.183333,
              "duration": 0.208333
            },
            {
              "pitch": 60,
              "velocity": 53,
              "position": 1.25,
              "duration": 0.075
            },
            {
              "pitch": 64,
              "velocity": 89,
              "position": 1.5,
              "duration": 0.158333
            },
            {
              "pitch": 53,
              "velocity": 105,
              "position": 1.675,
              "duration": 0.133333
            },
            {
              "pitch": 75,
              "velocity": 84,
              "position": 1.725,
              "duration": 0.316667
            },
            {
              "pitch": 61,
              "velocity": 87,
              "position": 1.75,
              "duration": 0.191667
            },
            {
              "pitch": 53,
              "velocity": 96,
              "position": 1.941667,
              "duration": 0.175
            },
            {
              "pitch": 63,
              "velocity": 80,
              "position": 2.0,
              "duration": 0.433333
            },
            {
              "pitch": 75,
              "velocity": 87,
              "position": 2.458333,
              "duration": 0.216667
            },
            {
              "pitch": 53,
              "velocity": 89,
              "position": 2.475,
              "duration": 0.183333
            },
            {
              "pitch": 61,
              "velocity": 80,
              "position": 2.5,
              "duration": 0.158333
            },
            {
              "pitch": 63,
              "velocity": 87,
              "position": 2.75,
              "duration": 0.408333
            },
            {
              "pitch": 53,
              "velocity": 96,
              "position": 2.991667,
              "duration": 0.158333
            },
            {
              "pitch": 75,
              "velocity": 87,
              "position": 2.991667,
              "duration": 0.25
            },
            {
              "pitch": 61,
              "velocity": 67,
              "position": 3.25,
              "duration": 0.125
            },
            {
              "pitch": 53,
              "velocity": 105,
              "position": 3.258333,
              "duration": 0.2
            },
            {
              "pitch": 64,
              "velocity": 83,
              "position": 3.5,
              "duration": 0.191667
            },
            {
              "pitch": 53,
              "velocity": 89,
              "position": 3.716667,
              "duration": 0.125
            },
            {
              "pitch": 61,
              "velocity": 73,
              "position": 3.75,
              "duration": 0.125
            },
            {
              "pitch": 43,
              "velocity": 92,
              "position": 4.0,
              "duration": 0.308333
            },
            {
              "pitch": 53,
              "velocity": 105,
              "position": 4.0,
              "duration": 0.2
            },
            {
              "pitch": 75,
              "velocity": 87,
              "position": 4.0,
              "duration": 0.233333
            },
            {
              "pitch": 62,
              "velocity": 96,
              "position": 4.25,
              "duration": 0.141667
            },
            {
              "pitch": 53,
              "velocity": 47,
              "position": 4.45,
              "duration": 0.075
            },
            {
              "pitch": 60,
              "velocity": 92,
              "position": 4.5,
              "duration": 0.191667
            },
            {
              "pitch": 75,
              "velocity": 84,
              "position": 4.7,
              "duration": 0.275
            },
            {
              "pitch": 36,
              "velocity": 100,
              "position": 4.733333,
              "duration": 0.241667
            },
            {
              "pitch": 53,
              "velocity": 113,
              "position": 4.741667,
              "duration": 0.25
            },
            {
              "pitch": 62,
              "velocity": 105,
              "position": 4.75,
              "duration": 0.35
            },
            {
              "pitch": 60,
              "velocity": 92,
              "position": 5.25,
              "duration": 0.15
            },
            {
              "pitch": 53,
              "velocity": 109,
              "position": 5.266667,
              "duration": 0.216667
            },
            {
              "pitch": 64,
              "velocity": 100,
              "position": 5.5,
              "duration": 0.183333
            },
            {
              "pitch": 75,
              "velocity": 87,
              "position": 5.708333,
              "duration": 0.2
            },
            {
              "pitch": 61,
              "velocity": 94,
              "position": 5.75,
              "duration": 0.2
            },
            {
              "pitch": 53,
              "velocity": 89,
              "position": 5.758333,
              "duration": 0.1
            },
            {
              "pitch": 63,
              "velocity": 73,
              "position": 6.0,
              "duration": 0.441667
            },
            {
              "pitch": 53,
              "velocity": 96,
              "position": 6.033333,
              "duration": 0.166667
            },
            {
              "pitch": 75,
              "velocity": 90,
              "position": 6.483333,
              "duration": 0.166667
            },
            {
              "pitch": 61,
              "velocity": 84,
              "position": 6.5,
              "duration": 0.158333
            },
            {
              "pitch": 53,
              "velocity": 105,
              "position": 6.525,
              "duration": 0.166667
            },
            {
              "pitch": 63,
              "velocity": 90,
              "position": 6.75,
              "duration": 0.416667
            },
            {
              "pitch": 53,
              "velocity": 92,
              "position": 7.041667,
              "duration": 0.116667
            },
            {
              "pitch": 75,
              "velocity": 94,
              "position": 7.05,
              "duration": 0.183333
            },
            {
              "pitch": 61,
              "velocity": 90,
              "position": 7.25,
              "duration": 0.158333
            },
            {
              "pitch": 53,
              "velocity": 100,
              "position": 7.308333,
              "duration": 0.2
            },
            {
              "pitch": 64,
              "velocity": 92,
              "position": 7.5,
              "duration": 0.2
            },
            {
              "pitch": 60,
              "velocity": 86,
              "position": 7.75,
              "duration": 0.25
            },
            {
              "pitch": 53,
              "velocity": 96,
              "position": 7.758333,
              "duration": 0.141667
            },
            {
              "pitch": 53,
              "velocity": 105,
              "position": 8.008333,
              "duration": 0.275
            },
            {
              "pitch": 75,
              "velocity": 80,
              "position": 8.041667,
              "duration": 0.35
            },
            {
              "pitch": 62,
              "velocity": 80,
              "position": 8.25,
              "duration": 0.2
            },
            {
              "pitch": 60,
              "velocity": 77,
              "position": 8.5,
              "duration": 0.166667
            },
            {
              "pitch": 53,
              "velocity": 37,
              "position": 8.516667,
              "duration": 0.083333
            },
            {
              "pitch": 62,
              "velocity": 100,
              "position": 8.75,
              "duration": 0.291667
            },
            {
              "pitch": 36,
              "velocity": 92,
              "position": 8.766667,
              "duration": 0.283333
            },
            {
              "pitch": 53,
              "velocity": 100,
              "position": 8.775,
              "duration": 0.258333
            },
            {
              "pitch": 75,
              "velocity": 87,
              "position": 8.791667,
              "duration": 0.358333
            },
            {
              "pitch": 53,
              "velocity": 109,
              "position": 9.25,
              "duration": 0.258333
            },
            {
              "pitch": 60,
              "velocity": 80,
              "position": 9.25,
              "duration": 0.091667
            },
            {
              "pitch": 64,
              "velocity": 92,
              "position": 9.5,
              "duration": 0.183333
            },
            {
              "pitch": 75,
              "velocity": 84,
              "position": 9.725,
              "duration": 0.316667
            },
            {
              "pitch": 53,
              "velocity": 96,
              "position": 9.741667,
              "duration": 0.158333
            },
            {
              "pitch": 61,
              "velocity": 90,
              "position": 9.75,
              "duration": 0.2
            },
            {
              "pitch": 63,
              "velocity": 84,
              "position": 10.0,
              "duration": 0.425
            },
            {
              "pitch": 53,
              "velocity": 83,
              "position": 10.016667,
              "duration": 0.175
            },
            {
              "pitch": 75,
              "velocity": 87,
              "position": 10.458333,
              "duration": 0.216667
            },
            {
              "pitch": 53,
              "velocity": 109,
              "position": 10.483333,
              "duration": 0.225
            },
            {
              "pitch": 61,
              "velocity": 70,
              "position": 10.5,
              "duration": 0.141667
            },
            {
              "pitch": 63,
              "velocity": 84,
              "position": 10.75,
              "duration": 0.416667
            },
            {
              "pitch": 75,
              "velocity": 87,
              "position": 10.991667,
              "duration": 0.25
            },
            {
              "pitch": 53,
              "velocity": 96,
              "position": 11.0,
              "duration": 0.15
            },
            {
              "pitch": 53,
              "velocity": 100,
              "position": 11.25,
              "duration": 0.208333
            },
            {
              "pitch": 61,
              "velocity": 70,
              "position": 11.25,
              "duration": 0.15
            },
            {
              "pitch": 64,
              "velocity": 89,
              "position": 11.5,
              "duration": 0.233333
            },
            {
              "pitch": 53,
              "velocity": 89,
              "position": 11.708333,
              "duration": 0.141667
            },
            {
              "pitch": 61,
              "velocity": 90,
              "position": 11.75,
              "duration": 0.166667
            },
            {
              "pitch": 75,
              "velocity": 87,
              "position": 12.0,
              "duration": 0.233333
            },
            {
              "pitch": 53,
              "velocity": 100,
              "position": 12.008333,
              "duration": 0.2
            },
            {
              "pitch": 62,
              "velocity": 89,
              "position": 12.25,
              "duration": 0.15
            },
            {
              "pitch": 53,
              "velocity": 74,
              "position": 12.466667,
              "duration": 0.108333
            },
            {
              "pitch": 60,
              "velocity": 83,
              "position": 12.5,
              "duration": 0.133333
            },
            {
              "pitch": 75,
              "velocity": 84,
              "position": 12.7,
              "duration": 0.275
            },
            {
              "pitch": 36,
              "velocity": 92,
              "position": 12.716667,
              "duration": 0.266667
            },
            {
              "pitch": 53,
              "velocity": 100,
              "position": 12.725,
              "duration": 0.216667
            },
            {
              "pitch": 62,
              "velocity": 96,
              "position": 12.75,
              "duration": 0.3
            },
            {
              "pitch": 53,
              "velocity": 100,
              "position": 13.225,
              "duration": 0.216667
            },
            {
              "pitch": 60,
              "velocity": 80,
              "position": 13.25,
              "duration": 0.1
            },
            {
              "pitch": 64,
              "velocity": 96,
              "position": 13.5,
              "duration": 0.175
            },
            {
              "pitch": 75,
              "velocity": 87,
              "position": 13.708333,
              "duration": 0.2
            },
            {
              "pitch": 45,
              "velocity": 81,
              "position": 13.733333,
              "duration": 0.191667
            },
            {
              "pitch": 61,
              "velocity": 90,
              "position": 13.75,
              "duration": 0.175
            },
            {
              "pitch": 63,
              "velocity": 84,
              "position": 14.0,
              "duration": 0.391667
            },
            {
              "pitch": 45,
              "velocity": 90,
              "position": 14.191667,
              "duration": 0.208333
            },
            {
              "pitch": 48,
              "velocity": 109,
              "position": 14.483333,
              "duration": 0.275
            },
            {
              "pitch": 75,
              "velocity": 90,
              "position": 14.483333,
              "duration": 0.166667
            },
            {
              "pitch": 61,
              "velocity": 67,
              "position": 14.5,
              "duration": 0.15
            },
            {
              "pitch": 63,
              "velocity": 84,
              "position": 14.75,
              "duration": 0.433333
            },
            {
              "pitch": 75,
              "velocity": 94,
              "position": 15.05,
              "duration": 0.183333
            },
            {
              "pitch": 43,
              "velocity": 96,
              "position": 15.25,
              "duration": 0.166667
            },
            {
              "pitch": 61,
              "velocity": 87,
              "position": 15.25,
              "duration": 0.166667
            },
            {
              "pitch": 64,
              "velocity": 89,
              "position": 15.5,
              "duration": 0.233333
            },
            {
              "pitch": 36,
              "velocity": 113,
              "position": 15.725,
              "duration": 0.233333
            },
            {
              "pitch": 49,
              "velocity": 111,
              "position": 15.75,
              "duration": 0.158333
            },
            {
              "pitch": 61,
              "velocity": 94,
              "position": 15.75,
              "duration": 0.216667
            }
          ]
        },
        "10": {
          "ctab": {
            "srcChannel": 10,
            "name": "Bass",
            "accType": "BASS",
            "editable": true,
            "mutedNotes": [],
            "mutedChords": [],
            "sourceChordNote": 0,
            "sourceChordType": "Maj7",
            "ctb2Main": {
              "ntr": "ROOT_TRANSPOSITION",
              "ntt": "BYPASS",
              "bassOn": true,
              "noteLowLimit": 20,
              "noteHighLimit": 60,
              "chordRootUpperLimit": 127,
              "rtr": "NOTE_GENERATOR"
            }
          },
          "notes": [
            {
              "pitch": 36,
              "velocity": 83,
              "position": 0.016667,
              "duration": 0.591667
            },
            {
              "pitch": 48,
              "velocity": 92,
              "position": 0.75,
              "duration": 0.733333
            },
            {
              "pitch": 36,
              "velocity": 88,
              "position": 1.5,
              "duration": 0.966667
            },
            {
              "pitch": 36,
              "velocity": 88,
              "position": 2.716667,
              "duration": 0.283333
            },
            {
              "pitch": 43,
              "velocity": 85,
              "position": 3.016667,
              "duration": 0.583333
            },
            {
              "pitch": 36,
              "velocity": 83,
              "position": 4.016667,
              "duration": 0.591667
            },
            {
              "pitch": 48,
              "velocity": 92,
              "position": 4.75,
              "duration": 0.733333
            },
            {
              "pitch": 36,
              "velocity": 88,
              "position": 5.5,
              "duration": 0.966667
            },
            {
              "pitch": 36,
              "velocity": 88,
              "position": 6.716667,
              "duration": 0.283333
            },
            {
              "pitch": 43,
              "velocity": 85,
              "position": 7.016667,
              "duration": 0.583333
            },
            {
              "pitch": 36,
              "velocity": 87,
              "position": 8.0,
              "duration": 0.633333
            },
            {
              "pitch": 43,
              "velocity": 90,
              "position": 8.708333,
              "duration": 0.708333
            },
            {
              "pitch": 48,
              "velocity": 90,
              "position": 9.458333,
              "duration": 1.45
            },
            {
              "pitch": 43,
              "velocity": 84,
              "position": 10.966667,
              "duration": 0.5
            },
            {
              "pitch": 43,
              "velocity": 88,
              "position": 11.616667,
              "duration": 0.275
            },
            {
              "pitch": 36,
              "velocity": 78,
              "position": 11.941667,
              "duration": 0.675
            },
            {
              "pitch": 43,
              "velocity": 87,
              "position": 12.691667,
              "duration": 0.683333
            },
            {
              "pitch": 48,
              "velocity": 93,
              "position": 13.433333,
              "duration": 1.608333
            },
            {
              "pitch": 43,
              "velocity": 96,
              "position": 15.016667,
              "duration": 0.783333
            },
            {
              "pitch": 36,
              "velocity": 84,
              "position": 15.691667,
              "duration": 0.191667
            }
          ]
        },
        "11": {
          "ctab": {
            "srcChannel": 11,
            "name": "Piano",
            "accType": "CHORD1",
            "editable": true,
            "mutedNotes": [],
            "mutedChords": [],
            "sourceChordNote": 0,
            "sourceChordType": "Maj7",
            "ctb2Main": {
              "ntr": "ROOT_FIXED",
              "ntt": "CHORD",
              "bassOn": false,
              "noteLowLimit": 48,
              "noteHighLimit": 84,
              "chordRootUpperLimit": 127,
              "rtr": "NOTE_GENERATOR"
            }
          },
          "notes": [
            {
              "pitch": 55,
              "velocity": 61,
              "position": 0.233333,
              "duration": 0.325
            },
            {
              "pitch": 60,
              "velocity": 55,
              "position": 0.25,
              "duration": 0.275
            },
            {
              "pitch": 74,
              "velocity": 61,
              "position": 0.25,
              "duration": 0.341667
            },
            {
              "pitch": 76,
              "velocity": 49,
              "position": 0.25,
              "duration": 0.308333
            },
            {
              "pitch": 52,
              "velocity": 58,
              "position": 0.766667,
              "duration": 0.391667
            },
            {
              "pitch": 67,
              "velocity": 61,
              "position": 0.766667,
              "duration": 0.275
            },
            {
              "pitch": 79,
              "velocity": 61,
              "position": 0.766667,
              "duration": 0.291667
            },
            {
              "pitch": 60,
              "velocity": 61,
              "position": 1.233333,
              "duration": 0.308333
            },
            {
              "pitch": 55,
              "velocity": 61,
              "position": 1.241667,
              "duration": 0.283333
            },
            {
              "pitch": 74,
              "velocity": 61,
              "position": 1.241667,
              "duration": 0.308333
            },
            {
              "pitch": 76,
              "velocity": 49,
              "position": 1.25,
              "duration": 0.233333
            },
            {
              "pitch": 52,
              "velocity": 42,
              "position": 1.683333,
              "duration": 0.158333
            },
            {
              "pitch": 67,
              "velocity": 40,
              "position": 1.691667,
              "duration": 0.083333
            },
            {
              "pitch": 79,
              "velocity": 40,
              "position": 1.691667,
              "duration": 0.116667
            },
            {
              "pitch": 67,
              "velocity": 61,
              "position": 2.016667,
              "duration": 0.2
            },
            {
              "pitch": 55,
              "velocity": 61,
              "position": 2.025,
              "duration": 0.191667
            },
            {
              "pitch": 79,
              "velocity": 61,
              "position": 2.025,
              "duration": 0.191667
            },
            {
              "pitch": 74,
              "velocity": 55,
              "position": 2.25,
              "duration": 0.3
            },
            {
              "pitch": 76,
              "velocity": 47,
              "position": 2.25,
              "duration": 0.316667
            },
            {
              "pitch": 55,
              "velocity": 58,
              "position": 2.258333,
              "duration": 0.3
            },
            {
              "pitch": 60,
              "velocity": 61,
              "position": 2.258333,
              "duration": 0.3
            },
            {
              "pitch": 67,
              "velocity": 61,
              "position": 2.758333,
              "duration": 0.266667
            },
            {
              "pitch": 79,
              "velocity": 61,
              "position": 2.758333,
              "duration": 0.291667
            },
            {
              "pitch": 52,
              "velocity": 61,
              "position": 2.766667,
              "duration": 0.316667
            },
            {
              "pitch": 60,
              "velocity": 61,
              "position": 3.233333,
              "duration": 0.325
            },
            {
              "pitch": 74,
              "velocity": 61,
              "position": 3.241667,
              "duration": 0.275
            },
            {
              "pitch": 76,
              "velocity": 50,
              "position": 3.25,
              "duration": 0.258333
            },
            {
              "pitch": 55,
              "velocity": 61,
              "position": 3.258333,
              "duration": 0.266667
            },
            {
              "pitch": 55,
              "velocity": 59,
              "position": 3.766667,
              "duration": 0.425
            },
            {
              "pitch": 67,
              "velocity": 59,
              "position": 3.766667,
              "duration": 0.425
            },
            {
              "pitch": 79,
              "velocity": 59,
              "position": 3.775,
              "duration": 0.425
            },
            {
              "pitch": 59,
              "velocity": 61,
              "position": 4.241667,
              "duration": 0.375
            },
            {
              "pitch": 64,
              "velocity": 61,
              "position": 4.241667,
              "duration": 0.325
            },
            {
              "pitch": 74,
              "velocity": 61,
              "position": 4.241667,
              "duration": 0.366667
            },
            {
              "pitch": 76,
              "velocity": 47,
              "position": 4.241667,
              "duration": 0.325
            },
            {
              "pitch": 52,
              "velocity": 55,
              "position": 4.75,
              "duration": 0.375
            },
            {
              "pitch": 79,
              "velocity": 61,
              "position": 4.75,
              "duration": 0.308333
            },
            {
              "pitch": 67,
              "velocity": 61,
              "position": 4.758333,
              "duration": 0.383333
            },
            {
              "pitch": 59,
              "velocity": 61,
              "position": 5.233333,
              "duration": 0.383333
            },
            {
              "pitch": 64,
              "velocity": 61,
              "position": 5.233333,
              "duration": 0.333333
            },
            {
              "pitch": 74,
              "velocity": 61,
              "position": 5.241667,
              "duration": 0.341667
            },
            {
              "pitch": 76,
              "velocity": 52,
              "position": 5.241667,
              "duration": 0.3
            },
            {
              "pitch": 52,
              "velocity": 62,
              "position": 6.0,
              "duration": 0.441667
            },
            {
              "pitch": 71,
              "velocity": 62,
              "position": 6.0,
              "duration": 0.325
            },
            {
              "pitch": 83,
              "velocity": 62,
              "position": 6.016667,
              "duration": 0.316667
            },
            {
              "pitch": 64,
              "velocity": 62,
              "position": 6.466667,
              "duration": 0.258333
            },
            {
              "pitch": 76,
              "velocity": 62,
              "position": 6.475,
              "duration": 0.241667
            },
            {
              "pitch": 79,
              "velocity": 52,
              "position": 6.483333,
              "duration": 0.258333
            },
            {
              "pitch": 59,
              "velocity": 58,
              "position": 6.491667,
              "duration": 0.25
            },
            {
              "pitch": 52,
              "velocity": 58,
              "position": 6.975,
              "duration": 0.425
            },
            {
              "pitch": 71,
              "velocity": 62,
              "position": 7.0,
              "duration": 0.5
            },
            {
              "pitch": 83,
              "velocity": 62,
              "position": 7.0,
              "duration": 0.5
            },
            {
              "pitch": 59,
              "velocity": 41,
              "position": 7.208333,
              "duration": 0.366667
            },
            {
              "pitch": 64,
              "velocity": 58,
              "position": 7.458333,
              "duration": 0.191667
            },
            {
              "pitch": 52,
              "velocity": 38,
              "position": 7.75,
              "duration": 0.25
            },
            {
              "pitch": 67,
              "velocity": 42,
              "position": 7.758333,
              "duration": 0.241667
            },
            {
              "pitch": 79,
              "velocity": 43,
              "position": 7.758333,
              "duration": 0.241667
            },
            {
              "pitch": 67,
              "velocity": 62,
              "position": 8.016667,
              "duration": 0.191667
            },
            {
              "pitch": 79,
              "velocity": 62,
              "position": 8.041667,
              "duration": 0.166667
            },
            {
              "pitch": 64,
              "velocity": 58,
              "position": 8.233333,
              "duration": 0.391667
            },
            {
              "pitch": 76,
              "velocity": 52,
              "position": 8.241667,
              "duration": 0.283333
            },
            {
              "pitch": 67,
              "velocity": 64,
              "position": 8.433333,
              "duration": 0.225
            },
            {
              "pitch": 79,
              "velocity": 55,
              "position": 8.483333,
              "duration": 0.216667
            },
            {
              "pitch": 59,
              "velocity": 64,
              "position": 8.716667,
              "duration": 0.341667
            },
            {
              "pitch": 71,
              "velocity": 64,
              "position": 8.741667,
              "duration": 0.3
            },
            {
              "pitch": 83,
              "velocity": 64,
              "position": 8.741667,
              "duration": 0.283333
            },
            {
              "pitch": 59,
              "velocity": 64,
              "position": 9.225,
              "duration": 0.3
            },
            {
              "pitch": 71,
              "velocity": 61,
              "position": 9.241667,
              "duration": 0.258333
            },
            {
              "pitch": 83,
              "velocity": 64,
              "position": 9.241667,
              "duration": 0.333333
            },
            {
              "pitch": 60,
              "velocity": 64,
              "position": 9.741667,
              "duration": 0.633333
            },
            {
              "pitch": 74,
              "velocity": 64,
              "position": 9.741667,
              "duration": 0.383333
            },
            {
              "pitch": 86,
              "velocity": 64,
              "position": 9.75,
              "duration": 0.308333
            },
            {
              "pitch": 64,
              "velocity": 64,
              "position": 10.241667,
              "duration": 0.291667
            },
            {
              "pitch": 76,
              "velocity": 50,
              "position": 10.241667,
              "duration": 0.266667
            },
            {
              "pitch": 67,
              "velocity": 64,
              "position": 10.458333,
              "duration": 0.241667
            },
            {
              "pitch": 79,
              "velocity": 61,
              "position": 10.458333,
              "duration": 0.191667
            },
            {
              "pitch": 71,
              "velocity": 64,
              "position": 10.716667,
              "duration": 0.15
            },
            {
              "pitch": 83,
              "velocity": 64,
              "position": 10.716667,
              "duration": 0.158333
            },
            {
              "pitch": 59,
              "velocity": 64,
              "position": 10.733333,
              "duration": 0.1
            },
            {
              "pitch": 59,
              "velocity": 64,
              "position": 10.966667,
              "duration": 0.375
            },
            {
              "pitch": 71,
              "velocity": 64,
              "position": 10.991667,
              "duration": 0.4
            },
            {
              "pitch": 83,
              "velocity": 64,
              "position": 10.991667,
              "duration": 0.483333
            },
            {
              "pitch": 64,
              "velocity": 52,
              "position": 11.166667,
              "duration": 0.425
            },
            {
              "pitch": 67,
              "velocity": 52,
              "position": 11.45,
              "duration": 0.216667
            },
            {
              "pitch": 60,
              "velocity": 64,
              "position": 11.691667,
              "duration": 0.316667
            },
            {
              "pitch": 86,
              "velocity": 64,
              "position": 11.716667,
              "duration": 0.275
            },
            {
              "pitch": 74,
              "velocity": 64,
              "position": 11.725,
              "duration": 0.241667
            },
            {
              "pitch": 79,
              "velocity": 64,
              "position": 12.233333,
              "duration": 0.308333
            },
            {
              "pitch": 64,
              "velocity": 64,
              "position": 12.241667,
              "duration": 0.341667
            },
            {
              "pitch": 67,
              "velocity": 64,
              "position": 12.241667,
              "duration": 0.233333
            },
            {
              "pitch": 76,
              "velocity": 52,
              "position": 12.25,
              "duration": 0.258333
            },
            {
              "pitch": 83,
              "velocity": 64,
              "position": 12.708333,
              "duration": 0.366667
            },
            {
              "pitch": 71,
              "velocity": 64,
              "position": 12.725,
              "duration": 0.266667
            },
            {
              "pitch": 59,
              "velocity": 64,
              "position": 12.733333,
              "duration": 0.316667
            },
            {
              "pitch": 64,
              "velocity": 64,
              "position": 13.233333,
              "duration": 0.341667
            },
            {
              "pitch": 67,
              "velocity": 64,
              "position": 13.233333,
              "duration": 0.208333
            },
            {
              "pitch": 76,
              "velocity": 64,
              "position": 13.233333,
              "duration": 0.291667
            },
            {
              "pitch": 79,
              "velocity": 64,
              "position": 13.241667,
              "duration": 0.283333
            },
            {
              "pitch": 59,
              "velocity": 64,
              "position": 13.716667,
              "duration": 0.183333
            },
            {
              "pitch": 71,
              "velocity": 45,
              "position": 13.725,
              "duration": 0.091667
            },
            {
              "pitch": 83,
              "velocity": 61,
              "position": 13.725,
              "duration": 0.2
            },
            {
              "pitch": 60,
              "velocity": 64,
              "position": 14.008333,
              "duration": 0.425
            },
            {
              "pitch": 74,
              "velocity": 64,
              "position": 14.025,
              "duration": 0.55
            },
            {
              "pitch": 86,
              "velocity": 64,
              "position": 14.033333,
              "duration": 0.308333
            },
            {
              "pitch": 64,
              "velocity": 64,
              "position": 14.466667,
              "duration": 0.3
            },
            {
              "pitch": 67,
              "velocity": 64,
              "position": 14.466667,
              "duration": 0.225
            },
            {
              "pitch": 76,
              "velocity": 50,
              "position": 14.466667,
              "duration": 0.266667
            },
            {
              "pitch": 79,
              "velocity": 55,
              "position": 14.483333,
              "duration": 0.25
            },
            {
              "pitch": 59,
              "velocity": 64,
              "position": 14.966667,
              "duration": 0.45
            },
            {
              "pitch": 71,
              "velocity": 64,
              "position": 14.975,
              "duration": 0.375
            },
            {
              "pitch": 83,
              "velocity": 64,
              "position": 14.975,
              "duration": 0.45
            },
            {
              "pitch": 64,
              "velocity": 9,
              "position": 15.241667,
              "duration": 0.308333
            },
            {
              "pitch": 55,
              "velocity": 59,
              "position": 15.766667,
              "duration": 0.425
            },
            {
              "pitch": 67,
              "velocity": 59,
              "position": 15.766667,
              "duration": 0.425
            },
            {
              "pitch": 79,
              "velocity": 59,
              "position": 15.775,
              "duration": 0.425
            }
          ]
        },
        "12": {
          "ctab": {
            "srcChannel": 12,
            "name": "Guitar",
            "accType": "CHORD2",
            "editable": true,
            "mutedNotes": [],
            "mutedChords": [],
            "sourceChordNote": 0,
            "sourceChordType": "Maj7",
            "ctb2Main": {
              "ntr": "ROOT_FIXED",
              "ntt": "CHORD",
              "bassOn": false,
              "noteLowLimit": 40,
              "noteHighLimit": 76,
              "chordRootUpperLimit": 127,
              "rtr": "NOTE_GENERATOR"
            }
          },
          "notes": [
            {
              "pitch": 67,
              "velocity": 41,
              "position": 0.025,
              "duration": 15.575
            }
          ]
        },
        "13": {
          "ctab": {
            "srcChannel": 13,
            "name": "Strings",
            "accType": "PAD",
            "editable": true,
            "mutedNotes": [],
            "mutedChords": [],
            "sourceChordNote": 0,
            "sourceChordType": "Maj7",
            "ctb2Main": {
              "ntr": "ROOT_FIXED",
              "ntt": "MELODY",
              "bassOn": false,
              "noteLowLimit": 36,
              "noteHighLimit": 96,
              "chordRootUpperLimit": 127,
              "rtr": "PITCH_SHIFT"
            }
          },
          "notes": [
            {
              "pitch": 60,
              "velocity": 51,
              "position": 0.0,
              "duration": 1.541667
            },
            {
              "pitch": 64,
              "velocity": 65,
              "position": 0.0,
              "duration": 1.6
            },
            {
              "pitch": 64,
              "velocity": 49,
              "position": 1.691667,
              "duration": 1.825
            },
            {
              "pitch": 67,
              "velocity": 56,
              "position": 1.691667,
              "duration": 1.966667
            },
            {
              "pitch": 60,
              "velocity": 52,
              "position": 3.683333,
              "duration": 1.975
            },
            {
              "pitch": 64,
              "velocity": 49,
              "position": 3.683333,
              "duration": 1.775
            },
            {
              "pitch": 60,
              "velocity": 63,
              "position": 6.0,
              "duration": 0.283333
            },
            {
              "pitch": 64,
              "velocity": 69,
              "position": 6.0,
              "duration": 0.333333
            },
            {
              "pitch": 64,
              "velocity": 54,
              "position": 6.433333,
              "duration": 0.3
            },
            {
              "pitch": 67,
              "velocity": 51,
              "position": 6.45,
              "duration": 0.341667
            },
            {
              "pitch": 64,
              "velocity": 66,
              "position": 6.95,
              "duration": 0.475
            },
            {
              "pitch": 67,
              "velocity": 63,
              "position": 6.958333,
              "duration": 0.508333
            },
            {
              "pitch": 67,
              "velocity": 70,
              "position": 8.691667,
              "duration": 0.175
            },
            {
              "pitch": 76,
              "velocity": 58,
              "position": 8.691667,
              "duration": 0.233333
            },
            {
              "pitch": 72,
              "velocity": 61,
              "position": 8.7,
              "duration": 0.208333
            },
            {
              "pitch": 67,
              "velocity": 70,
              "position": 9.016667,
              "duration": 0.275
            },
            {
              "pitch": 72,
              "velocity": 70,
              "position": 9.016667,
              "duration": 0.283333
            },
            {
              "pitch": 76,
              "velocity": 78,
              "position": 9.016667,
              "duration": 0.316667
            },
            {
              "pitch": 67,
              "velocity": 70,
              "position": 10.675,
              "duration": 0.183333
            },
            {
              "pitch": 72,
              "velocity": 61,
              "position": 10.675,
              "duration": 0.208333
            },
            {
              "pitch": 76,
              "velocity": 61,
              "position": 10.675,
              "duration": 0.225
            },
            {
              "pitch": 67,
              "velocity": 61,
              "position": 11.0,
              "duration": 0.258333
            },
            {
              "pitch": 72,
              "velocity": 52,
              "position": 11.0,
              "duration": 0.3
            },
            {
              "pitch": 76,
              "velocity": 70,
              "position": 11.008333,
              "duration": 0.291667
            },
            {
              "pitch": 76,
              "velocity": 58,
              "position": 12.641667,
              "duration": 0.258333
            },
            {
              "pitch": 67,
              "velocity": 64,
              "position": 12.65,
              "duration": 0.216667
            },
            {
              "pitch": 72,
              "velocity": 52,
              "position": 12.666667,
              "duration": 0.225
            },
            {
              "pitch": 67,
              "velocity": 67,
              "position": 13.008333,
              "duration": 0.25
            },
            {
              "pitch": 72,
              "velocity": 61,
              "position": 13.008333,
              "duration": 0.266667
            },
            {
              "pitch": 76,
              "velocity": 61,
              "position": 13.016667,
              "duration": 0.241667
            },
            {
              "pitch": 76,
              "velocity": 58,
              "position": 14.675,
              "duration": 0.225
            },
            {
              "pitch": 67,
              "velocity": 64,
              "position": 14.683333,
              "duration": 0.175
            },
            {
              "pitch": 72,
              "velocity": 55,
              "position": 14.683333,
              "duration": 0.191667
            },
            {
              "pitch": 67,
              "velocity": 58,
              "position": 15.008333,
              "duration": 0.316667
            },
            {
              "pitch": 76,
              "velocity": 58,
              "position": 15.008333,
              "duration": 0.3
            },
            {
              "pitch": 72,
              "velocity": 49,
              "position": 15.016667,
              "duration": 0.316667
            },
            {
              "pitch": 60,
              "velocity": 52,
              "position": 15.683333,
              "duration": 1.975
            },
            {
              "pitch": 64,
              "velocity": 49,
              "position": 15.683333,
              "duration": 1.775
            }
          ]
        }
      }
    },
    "Main_D": {
      "type": "Main_D",
      "sizeInBeats": 16,
      "channels": {
        "9": {
          "ctab": {
            "srcChannel": 9,
            "name": "Drums",
            "accType": "RHYTHM",
            "editable": false,
            "mutedNotes": [],
            "mutedChords": [],
            "sourceChordNote": 0,
            "sourceChordType": "Maj",
            "ctb2Main": {
              "ntr": "ROOT_FIXED",
              "ntt": "BYPASS",
              "bassOn": false,
              "noteLowLimit": 20,
              "noteHighLimit": 127,
              "chordRootUpperLimit": 127,
              "rtr": "RETRIGGER"
            }
          },
          "notes": [
            {
              "pitch": 36,
              "velocity": 100,
              "position": 0.0,
              "duration": 0.25
            },
            {
              "pitch": 57,
              "velocity": 91,
              "position": 0.0,
              "duration": 0.283333
            },
            {
              "pitch": 75,
              "velocity": 80,
              "position": 0.041667,
              "duration": 0.35
            },
            {
              "pitch": 60,
              "velocity": 49,
              "position": 0.25,
              "duration": 0.233333
            },
            {
              "pitch": 53,
              "velocity": 100,
              "position": 0.716667,
              "duration": 0.233333
            },
            {
              "pitch": 60,
              "velocity": 56,
              "position": 0.75,
              "duration": 0.166667
            },
            {
              "pitch": 75,
              "velocity": 87,
              "position": 0.791667,
              "duration": 0.358333
            },
            {
              "pitch": 53,
              "velocity": 100,
              "position": 1.183333,
              "duration": 0.208333
            },
            {
              "pitch": 60,
              "velocity": 53,
              "position": 1.25,
              "duration": 0.075
            },
            {
              "pitch": 64,
              "velocity": 89,
              "position": 1.5,
              "duration": 0.158333
            },
            {
              "pitch": 53,
              "velocity": 105,
              "position": 1.675,
              "duration": 0.133333
            },
            {
              "pitch": 75,
              "velocity": 84,
              "position": 1.725,
              "duration": 0.316667
            },
            {
              "pitch": 61,
              "velocity": 87,
              "position": 1.75,
              "duration": 0.191667
            },
            {
              "pitch": 53,
              "velocity": 96,
              "position": 1.941667,
              "duration": 0.175
            },
            {
              "pitch": 63,
              "velocity": 80,
              "position": 2.0,
              "duration": 0.433333
            },
            {
              "pitch": 75,
              "velocity": 87,
              "position": 2.458333,
              "duration": 0.216667
            },
            {
              "pitch": 53,
              "velocity": 89,
              "position": 2.475,
              "duration": 0.183333
            },
            {
              "pitch": 61,
              "velocity": 80,
              "position": 2.5,
              "duration": 0.158333
            },
            {
              "pitch": 63,
              "velocity": 87,
              "position": 2.75,
              "duration": 0.408333
            },
            {
              "pitch": 53,
              "velocity": 96,
              "position": 2.991667,
              "duration": 0.158333
            },
            {
              "pitch": 75,
              "velocity": 87,
              "position": 2.991667,
              "duration": 0.25
            },
            {
              "pitch": 61,
              "velocity": 67,
              "position": 3.25,
              "duration": 0.125
            },
            {
              "pitch": 53,
              "velocity": 105,
              "position": 3.258333,
              "duration": 0.2
            },
            {
              "pitch": 64,
              "velocity": 83,
              "position": 3.5,
              "duration": 0.191667
            },
            {
              "pitch": 53,
              "velocity": 89,
              "position": 3.716667,
              "duration": 0.125
            },
            {
              "pitch": 61,
              "velocity": 73,
              "position": 3.75,
              "duration": 0.125
            },
            {
              "pitch": 53,
              "velocity": 100,
              "position": 4.0,
              "duration": 0.241667
            },
            {
              "pitch": 75,
              "velocity": 87,
              "position": 4.0,
              "duration": 0.233333
            },
            {
              "pitch": 62,
              "velocity": 96,
              "position": 4.25,
              "duration": 0.141667
            },
            {
              "pitch": 53,
              "velocity": 37,
              "position": 4.483333,
              "duration": 0.075
            },
            {
              "pitch": 60,
              "velocity": 92,
              "position": 4.5,
              "duration": 0.191667
            },
            {
              "pitch": 75,
              "velocity": 84,
              "position": 4.7,
              "duration": 0.275
            },
            {
              "pitch": 36,
              "velocity": 96,
              "position": 4.716667,
              "duration": 0.325
            },
            {
              "pitch": 53,
              "velocity": 105,
              "position": 4.725,
              "duration": 0.258333
            },
            {
              "pitch": 62,
              "velocity": 105,
              "position": 4.75,
              "duration": 0.35
            },
            {
              "pitch": 53,
              "velocity": 100,
              "position": 5.216667,
              "duration": 0.216667
            },
            {
              "pitch": 60,
              "velocity": 92,
              "position": 5.25,
              "duration": 0.15
            },
            {
              "pitch": 64,
              "velocity": 100,
              "position": 5.5,
              "duration": 0.183333
            },
            {
              "pitch": 75,
              "velocity": 87,
              "position": 5.708333,
              "duration": 0.2
            },
            {
              "pitch": 53,
              "velocity": 83,
              "position": 5.716667,
              "duration": 0.1
            },
            {
              "pitch": 61,
              "velocity": 94,
              "position": 5.75,
              "duration": 0.2
            },
            {
              "pitch": 53,
              "velocity": 92,
              "position": 5.983333,
              "duration": 0.241667
            },
            {
              "pitch": 63,
              "velocity": 73,
              "position": 6.0,
              "duration": 0.441667
            },
            {
              "pitch": 75,
              "velocity": 90,
              "position": 6.483333,
              "duration": 0.166667
            },
            {
              "pitch": 61,
              "velocity": 84,
              "position": 6.5,
              "duration": 0.158333
            },
            {
              "pitch": 53,
              "velocity": 92,
              "position": 6.516667,
              "duration": 0.2
            },
            {
              "pitch": 63,
              "velocity": 90,
              "position": 6.75,
              "duration": 0.416667
            },
            {
              "pitch": 53,
              "velocity": 89,
              "position": 7.008333,
              "duration": 0.125
            },
            {
              "pitch": 75,
              "velocity": 94,
              "position": 7.05,
              "duration": 0.183333
            },
            {
              "pitch": 53,
              "velocity": 109,
              "position": 7.241667,
              "duration": 0.216667
            },
            {
              "pitch": 61,
              "velocity": 90,
              "position": 7.25,
              "duration": 0.158333
            },
            {
              "pitch": 64,
              "velocity": 92,
              "position": 7.5,
              "duration": 0.2
            },
            {
              "pitch": 53,
              "velocity": 105,
              "position": 7.691667,
              "duration": 0.15
            },
            {
              "pitch": 60,
              "velocity": 86,
              "position": 7.75,
              "duration": 0.25
            },
            {
              "pitch": 53,
              "velocity": 96,
              "position": 8.025,
              "duration": 0.25
            },
            {
              "pitch": 45,
              "velocity": 92,
              "position": 8.033333,
              "duration": 0.208333
            },
            {
              "pitch": 75,
              "velocity": 80,
              "position": 8.041667,
              "duration": 0.35
            },
            {
              "pitch": 62,
              "velocity": 86,
              "position": 8.25,
              "duration": 0.15
            },
            {
              "pitch": 60,
              "velocity": 89,
              "position": 8.5,
              "duration": 0.191667
            },
            {
              "pitch": 53,
              "velocity": 89,
              "position": 8.508333,
              "duration": 0.133333
            },
            {
              "pitch": 36,
              "velocity": 105,
              "position": 8.75,
              "duration": 0.266667
            },
            {
              "pitch": 62,
              "velocity": 100,
              "position": 8.75,
              "duration": 0.283333
            },
            {
              "pitch": 53,
              "velocity": 105,
              "position": 8.758333,
              "duration": 0.25
            },
            {
              "pitch": 75,
              "velocity": 87,
              "position": 8.791667,
              "duration": 0.358333
            },
            {
              "pitch": 53,
              "velocity": 105,
              "position": 9.241667,
              "duration": 0.258333
            },
            {
              "pitch": 60,
              "velocity": 83,
              "position": 9.25,
              "duration": 0.158333
            },
            {
              "pitch": 64,
              "velocity": 96,
              "position": 9.5,
              "duration": 0.191667
            },
            {
              "pitch": 75,
              "velocity": 84,
              "position": 9.725,
              "duration": 0.316667
            },
            {
              "pitch": 61,
              "velocity": 87,
              "position": 9.75,
              "duration": 0.2
            },
            {
              "pitch": 53,
              "velocity": 80,
              "position": 9.775,
              "duration": 0.125
            },
            {
              "pitch": 63,
              "velocity": 80,
              "position": 10.0,
              "duration": 0.408333
            },
            {
              "pitch": 53,
              "velocity": 100,
              "position": 10.025,
              "duration": 0.225
            },
            {
              "pitch": 75,
              "velocity": 87,
              "position": 10.458333,
              "duration": 0.216667
            },
            {
              "pitch": 61,
              "velocity": 84,
              "position": 10.5,
              "duration": 0.183333
            },
            {
              "pitch": 53,
              "velocity": 105,
              "position": 10.516667,
              "duration": 0.208333
            },
            {
              "pitch": 63,
              "velocity": 90,
              "position": 10.75,
              "duration": 0.375
            },
            {
              "pitch": 75,
              "velocity": 87,
              "position": 10.991667,
              "duration": 0.25
            },
            {
              "pitch": 53,
              "velocity": 89,
              "position": 11.016667,
              "duration": 0.091667
            },
            {
              "pitch": 53,
              "velocity": 105,
              "position": 11.25,
              "duration": 0.216667
            },
            {
              "pitch": 61,
              "velocity": 77,
              "position": 11.25,
              "duration": 0.166667
            },
            {
              "pitch": 64,
              "velocity": 96,
              "position": 11.5,
              "duration": 0.425
            },
            {
              "pitch": 53,
              "velocity": 100,
              "position": 11.716667,
              "duration": 0.15
            },
            {
              "pitch": 75,
              "velocity": 87,
              "position": 12.0,
              "duration": 0.233333
            },
            {
              "pitch": 53,
              "velocity": 100,
              "position": 12.008333,
              "duration": 0.2
            },
            {
              "pitch": 62,
              "velocity": 89,
              "position": 12.25,
              "duration": 0.15
            },
            {
              "pitch": 53,
              "velocity": 74,
              "position": 12.466667,
              "duration": 0.108333
            },
            {
              "pitch": 60,
              "velocity": 83,
              "position": 12.5,
              "duration": 0.133333
            },
            {
              "pitch": 75,
              "velocity": 84,
              "position": 12.7,
              "duration": 0.275
            },
            {
              "pitch": 36,
              "velocity": 92,
              "position": 12.716667,
              "duration": 0.266667
            },
            {
              "pitch": 53,
              "velocity": 100,
              "position": 12.725,
              "duration": 0.216667
            },
            {
              "pitch": 62,
              "velocity": 96,
              "position": 12.75,
              "duration": 0.3
            },
            {
              "pitch": 53,
              "velocity": 100,
              "position": 13.225,
              "duration": 0.216667
            },
            {
              "pitch": 60,
              "velocity": 80,
              "position": 13.25,
              "duration": 0.1
            },
            {
              "pitch": 64,
              "velocity": 96,
              "position": 13.5,
              "duration": 0.175
            },
            {
              "pitch": 75,
              "velocity": 87,
              "position": 13.708333,
              "duration": 0.2
            },
            {
              "pitch": 45,
              "velocity": 81,
              "position": 13.733333,
              "duration": 0.191667
            },
            {
              "pitch": 61,
              "velocity": 90,
              "position": 13.75,
              "duration": 0.175
            },
            {
              "pitch": 63,
              "velocity": 84,
              "position": 14.0,
              "duration": 0.391667
            },
            {
              "pitch": 45,
              "velocity": 90,
              "position": 14.191667,
              "duration": 0.208333
            },
            {
              "pitch": 48,
              "velocity": 109,
              "position": 14.483333,
              "duration": 0.275
            },
            {
              "pitch": 75,
              "velocity": 90,
              "position": 14.483333,
              "duration": 0.166667
            },
            {
              "pitch": 61,
              "velocity": 67,
              "position": 14.5,
              "duration": 0.15
            },
            {
              "pitch": 63,
              "velocity": 84,
              "position": 14.75,
              "duration": 0.433333
            },
            {
              "pitch": 75,
              "velocity": 94,
              "position": 15.05,
              "duration": 0.183333
            },
            {
              "pitch": 43,
              "velocity": 96,
              "position": 15.25,
              "duration": 0.166667
            },
            {
              "pitch": 61,
              "velocity": 87,
              "position": 15.25,
              "duration": 0.166667
            },
            {
              "pitch": 64,
              "velocity": 89,
              "position": 15.5,
              "duration": 0.233333
            },
            {
              "pitch": 36,
              "velocity": 113,
              "position": 15.725,
              "duration": 0.233333
            },
            {
              "pitch": 49,
              "velocity": 111,
              "position": 15.75,
              "duration": 0.158333
            },
            {
              "pitch": 61,
              "velocity": 94,
              "position": 15.75,
              "duration": 0.216667
            }
          ]
        },
        "10": {
          "ctab": {
            "srcChannel": 10,
            "name": "Bass",
            "accType": "BASS",
            "editable": true,
            "mutedNotes": [],
            "mutedChords": [],
            "sourceChordNote": 0,
            "sourceChordType": "Maj7",
            "ctb2Main": {
              "ntr": "ROOT_TRANSPOSITION",
              "ntt": "BYPASS",
              "bassOn": true,
              "noteLowLimit": 20,
              "noteHighLimit": 60,
              "chordRootUpperLimit": 127,
              "rtr": "NOTE_GENERATOR"
            }
          },
          "notes": [
            {
              "pitch": 36,
              "velocity": 80,
              "position": 0.008333,
              "duration": 0.633333
            },
            {
              "pitch": 43,
              "velocity": 86,
              "position": 0.758333,
              "duration": 0.566667
            },
            {
              "pitch": 36,
              "velocity": 83,
              "position": 1.5,
              "duration": 0.058333
            },
            {
              "pitch": 48,
              "velocity": 102,
              "position": 2.991667,
              "duration": 0.4
            },
            {
              "pitch": 36,
              "velocity": 77,
              "position": 3.683333,
              "duration": 0.2
            },
            {
              "pitch": 36,
              "velocity": 80,
              "position": 4.008333,
              "duration": 0.633333
            },
            {
              "pitch": 43,
              "velocity": 86,
              "position": 4.758333,
              "duration": 0.566667
            },
            {
              "pitch": 36,
              "velocity": 83,
              "position": 5.5,
              "duration": 0.058333
            },
            {
              "pitch": 48,
              "velocity": 102,
              "position": 6.991667,
              "duration": 0.4
            },
            {
              "pitch": 36,
              "velocity": 80,
              "position": 7.758333,
              "duration": 0.433333
            },
            {
              "pitch": 36,
              "velocity": 79,
              "position": 8.241667,
              "duration": 0.466667
            },
            {
              "pitch": 43,
              "velocity": 82,
              "position": 8.75,
              "duration": 0.691667
            },
            {
              "pitch": 48,
              "velocity": 98,
              "position": 9.483333,
              "duration": 1.233333
            },
            {
              "pitch": 43,
              "velocity": 85,
              "position": 10.733333,
              "duration": 0.2
            },
            {
              "pitch": 43,
              "velocity": 98,
              "position": 11.025,
              "duration": 0.641667
            },
            {
              "pitch": 36,
              "velocity": 91,
              "position": 11.691667,
              "duration": 0.358333
            },
            {
              "pitch": 36,
              "velocity": 85,
              "position": 12.233333,
              "duration": 0.408333
            },
            {
              "pitch": 43,
              "velocity": 82,
              "position": 12.741667,
              "duration": 0.666667
            },
            {
              "pitch": 52,
              "velocity": 98,
              "position": 13.433333,
              "duration": 1.266667
            },
            {
              "pitch": 43,
              "velocity": 85,
              "position": 14.733333,
              "duration": 0.2
            },
            {
              "pitch": 43,
              "velocity": 98,
              "position": 15.033333,
              "duration": 0.483333
            },
            {
              "pitch": 36,
              "velocity": 79,
              "position": 15.7,
              "duration": 0.183333
            }
          ]
        },
        "11": {
          "ctab": {
            "srcChannel": 11,
            "name": "Piano",
            "accType": "CHORD1",
            "editable": true,
            "mutedNotes": [],
            "mutedChords": [],
            "sourceChordNote": 0,
            "sourceChordType": "Maj7",
            "ctb2Main": {
              "ntr": "ROOT_FIXED",
              "ntt": "CHORD",
              "bassOn": false,
              "noteLowLimit": 48,
              "noteHighLimit": 84,
              "chordRootUpperLimit": 127,
              "rtr": "NOTE_GENERATOR"
            }
          },
          "notes": [
            {
              "pitch": 59,
              "velocity": 61,
              "position": 0.241667,
              "duration": 0.375
            },
            {
              "pitch": 64,
              "velocity": 61,
              "position": 0.241667,
              "duration": 0.325
            },
            {
              "pitch": 74,
              "velocity": 61,
              "position": 0.241667,
              "duration": 0.366667
            },
            {
              "pitch": 76,
              "velocity": 47,
              "position": 0.241667,
              "duration": 0.325
            },
            {
              "pitch": 52,
              "velocity": 55,
              "position": 0.75,
              "duration": 0.375
            },
            {
              "pitch": 79,
              "velocity": 61,
              "position": 0.75,
              "duration": 0.308333
            },
            {
              "pitch": 67,
              "velocity": 61,
              "position": 0.758333,
              "duration": 0.383333
            },
            {
              "pitch": 59,
              "velocity": 61,
              "position": 1.233333,
              "duration": 0.383333
            },
            {
              "pitch": 64,
              "velocity": 61,
              "position": 1.233333,
              "duration": 0.333333
            },
            {
              "pitch": 74,
              "velocity": 61,
              "position": 1.241667,
              "duration": 0.341667
            },
            {
              "pitch": 76,
              "velocity": 52,
              "position": 1.241667,
              "duration": 0.3
            },
            {
              "pitch": 52,
              "velocity": 62,
              "position": 2.0,
              "duration": 0.466667
            },
            {
              "pitch": 71,
              "velocity": 62,
              "position": 2.0,
              "duration": 0.375
            },
            {
              "pitch": 83,
              "velocity": 62,
              "position": 2.0,
              "duration": 0.333333
            },
            {
              "pitch": 64,
              "velocity": 62,
              "position": 2.466667,
              "duration": 0.283333
            },
            {
              "pitch": 59,
              "velocity": 57,
              "position": 2.491667,
              "duration": 0.3
            },
            {
              "pitch": 76,
              "velocity": 62,
              "position": 2.491667,
              "duration": 0.275
            },
            {
              "pitch": 79,
              "velocity": 54,
              "position": 2.5,
              "duration": 0.266667
            },
            {
              "pitch": 52,
              "velocity": 57,
              "position": 2.991667,
              "duration": 0.416667
            },
            {
              "pitch": 71,
              "velocity": 62,
              "position": 3.016667,
              "duration": 0.55
            },
            {
              "pitch": 83,
              "velocity": 62,
              "position": 3.016667,
              "duration": 0.5
            },
            {
              "pitch": 59,
              "velocity": 43,
              "position": 3.241667,
              "duration": 0.366667
            },
            {
              "pitch": 64,
              "velocity": 57,
              "position": 3.483333,
              "duration": 0.191667
            },
            {
              "pitch": 52,
              "velocity": 35,
              "position": 3.741667,
              "duration": 0.258333
            },
            {
              "pitch": 67,
              "velocity": 43,
              "position": 3.758333,
              "duration": 0.241667
            },
            {
              "pitch": 79,
              "velocity": 43,
              "position": 3.766667,
              "duration": 0.233333
            },
            {
              "pitch": 79,
              "velocity": 59,
              "position": 4.016667,
              "duration": 0.191667
            },
            {
              "pitch": 55,
              "velocity": 59,
              "position": 4.025,
              "duration": 0.183333
            },
            {
              "pitch": 67,
              "velocity": 59,
              "position": 4.041667,
              "duration": 0.166667
            },
            {
              "pitch": 55,
              "velocity": 61,
              "position": 4.233333,
              "duration": 0.325
            },
            {
              "pitch": 60,
              "velocity": 55,
              "position": 4.25,
              "duration": 0.275
            },
            {
              "pitch": 74,
              "velocity": 61,
              "position": 4.25,
              "duration": 0.341667
            },
            {
              "pitch": 76,
              "velocity": 49,
              "position": 4.25,
              "duration": 0.308333
            },
            {
              "pitch": 52,
              "velocity": 58,
              "position": 4.766667,
              "duration": 0.391667
            },
            {
              "pitch": 67,
              "velocity": 61,
              "position": 4.766667,
              "duration": 0.275
            },
            {
              "pitch": 79,
              "velocity": 61,
              "position": 4.766667,
              "duration": 0.291667
            },
            {
              "pitch": 60,
              "velocity": 61,
              "position": 5.233333,
              "duration": 0.308333
            },
            {
              "pitch": 55,
              "velocity": 61,
              "position": 5.241667,
              "duration": 0.283333
            },
            {
              "pitch": 74,
              "velocity": 61,
              "position": 5.241667,
              "duration": 0.308333
            },
            {
              "pitch": 76,
              "velocity": 49,
              "position": 5.25,
              "duration": 0.233333
            },
            {
              "pitch": 52,
              "velocity": 62,
              "position": 6.0,
              "duration": 0.466667
            },
            {
              "pitch": 71,
              "velocity": 62,
              "position": 6.0,
              "duration": 0.375
            },
            {
              "pitch": 83,
              "velocity": 62,
              "position": 6.0,
              "duration": 0.333333
            },
            {
              "pitch": 64,
              "velocity": 62,
              "position": 6.466667,
              "duration": 0.283333
            },
            {
              "pitch": 59,
              "velocity": 57,
              "position": 6.491667,
              "duration": 0.3
            },
            {
              "pitch": 76,
              "velocity": 62,
              "position": 6.491667,
              "duration": 0.275
            },
            {
              "pitch": 79,
              "velocity": 54,
              "position": 6.5,
              "duration": 0.266667
            },
            {
              "pitch": 52,
              "velocity": 57,
              "position": 6.991667,
              "duration": 0.416667
            },
            {
              "pitch": 71,
              "velocity": 62,
              "position": 7.016667,
              "duration": 0.55
            },
            {
              "pitch": 83,
              "velocity": 62,
              "position": 7.016667,
              "duration": 0.5
            },
            {
              "pitch": 59,
              "velocity": 43,
              "position": 7.241667,
              "duration": 0.366667
            },
            {
              "pitch": 67,
              "velocity": 63,
              "position": 7.75,
              "duration": 0.441667
            },
            {
              "pitch": 79,
              "velocity": 63,
              "position": 7.75,
              "duration": 0.433333
            },
            {
              "pitch": 55,
              "velocity": 63,
              "position": 7.758333,
              "duration": 0.425
            },
            {
              "pitch": 62,
              "velocity": 63,
              "position": 8.233333,
              "duration": 0.333333
            },
            {
              "pitch": 57,
              "velocity": 61,
              "position": 8.241667,
              "duration": 0.366667
            },
            {
              "pitch": 72,
              "velocity": 63,
              "position": 8.241667,
              "duration": 0.325
            },
            {
              "pitch": 76,
              "velocity": 58,
              "position": 8.241667,
              "duration": 0.333333
            },
            {
              "pitch": 67,
              "velocity": 63,
              "position": 8.741667,
              "duration": 0.416667
            },
            {
              "pitch": 79,
              "velocity": 63,
              "position": 8.741667,
              "duration": 0.433333
            },
            {
              "pitch": 52,
              "velocity": 63,
              "position": 8.75,
              "duration": 0.458333
            },
            {
              "pitch": 62,
              "velocity": 63,
              "position": 9.233333,
              "duration": 0.2
            },
            {
              "pitch": 72,
              "velocity": 63,
              "position": 9.233333,
              "duration": 0.266667
            },
            {
              "pitch": 57,
              "velocity": 63,
              "position": 9.241667,
              "duration": 0.258333
            },
            {
              "pitch": 76,
              "velocity": 50,
              "position": 9.25,
              "duration": 0.241667
            },
            {
              "pitch": 62,
              "velocity": 63,
              "position": 9.7,
              "duration": 0.191667
            },
            {
              "pitch": 57,
              "velocity": 58,
              "position": 9.708333,
              "duration": 0.191667
            },
            {
              "pitch": 76,
              "velocity": 50,
              "position": 9.733333,
              "duration": 0.183333
            },
            {
              "pitch": 72,
              "velocity": 50,
              "position": 9.741667,
              "duration": 0.133333
            },
            {
              "pitch": 79,
              "velocity": 63,
              "position": 10.0,
              "duration": 0.375
            },
            {
              "pitch": 52,
              "velocity": 61,
              "position": 10.008333,
              "duration": 0.541667
            },
            {
              "pitch": 67,
              "velocity": 63,
              "position": 10.008333,
              "duration": 0.425
            },
            {
              "pitch": 57,
              "velocity": 63,
              "position": 10.483333,
              "duration": 0.291667
            },
            {
              "pitch": 62,
              "velocity": 63,
              "position": 10.483333,
              "duration": 0.216667
            },
            {
              "pitch": 72,
              "velocity": 63,
              "position": 10.5,
              "duration": 0.225
            },
            {
              "pitch": 76,
              "velocity": 53,
              "position": 10.5,
              "duration": 0.258333
            },
            {
              "pitch": 52,
              "velocity": 63,
              "position": 11.0,
              "duration": 0.491667
            },
            {
              "pitch": 81,
              "velocity": 63,
              "position": 11.008333,
              "duration": 0.525
            },
            {
              "pitch": 69,
              "velocity": 63,
              "position": 11.016667,
              "duration": 0.533333
            },
            {
              "pitch": 57,
              "velocity": 45,
              "position": 11.233333,
              "duration": 0.375
            },
            {
              "pitch": 62,
              "velocity": 61,
              "position": 11.516667,
              "duration": 0.191667
            },
            {
              "pitch": 52,
              "velocity": 61,
              "position": 11.758333,
              "duration": 0.366667
            },
            {
              "pitch": 67,
              "velocity": 63,
              "position": 11.766667,
              "duration": 0.333333
            },
            {
              "pitch": 79,
              "velocity": 63,
              "position": 11.775,
              "duration": 0.325
            },
            {
              "pitch": 57,
              "velocity": 63,
              "position": 12.25,
              "duration": 0.316667
            },
            {
              "pitch": 62,
              "velocity": 63,
              "position": 12.25,
              "duration": 0.291667
            },
            {
              "pitch": 72,
              "velocity": 63,
              "position": 12.258333,
              "duration": 0.35
            },
            {
              "pitch": 76,
              "velocity": 58,
              "position": 12.258333,
              "duration": 0.325
            },
            {
              "pitch": 67,
              "velocity": 63,
              "position": 12.733333,
              "duration": 0.366667
            },
            {
              "pitch": 79,
              "velocity": 63,
              "position": 12.733333,
              "duration": 0.366667
            },
            {
              "pitch": 52,
              "velocity": 63,
              "position": 12.741667,
              "duration": 0.391667
            },
            {
              "pitch": 57,
              "velocity": 63,
              "position": 13.233333,
              "duration": 0.283333
            },
            {
              "pitch": 62,
              "velocity": 63,
              "position": 13.233333,
              "duration": 0.241667
            },
            {
              "pitch": 72,
              "velocity": 63,
              "position": 13.25,
              "duration": 0.283333
            },
            {
              "pitch": 76,
              "velocity": 61,
              "position": 13.258333,
              "duration": 0.275
            },
            {
              "pitch": 62,
              "velocity": 63,
              "position": 13.741667,
              "duration": 0.208333
            },
            {
              "pitch": 57,
              "velocity": 63,
              "position": 13.75,
              "duration": 0.2
            },
            {
              "pitch": 76,
              "velocity": 50,
              "position": 13.758333,
              "duration": 0.191667
            },
            {
              "pitch": 72,
              "velocity": 50,
              "position": 13.775,
              "duration": 0.15
            },
            {
              "pitch": 52,
              "velocity": 63,
              "position": 14.025,
              "duration": 0.508333
            },
            {
              "pitch": 67,
              "velocity": 63,
              "position": 14.041667,
              "duration": 0.45
            },
            {
              "pitch": 79,
              "velocity": 63,
              "position": 14.041667,
              "duration": 0.35
            },
            {
              "pitch": 62,
              "velocity": 63,
              "position": 14.491667,
              "duration": 0.266667
            },
            {
              "pitch": 57,
              "velocity": 61,
              "position": 14.508333,
              "duration": 0.291667
            },
            {
              "pitch": 72,
              "velocity": 63,
              "position": 14.516667,
              "duration": 0.258333
            },
            {
              "pitch": 76,
              "velocity": 53,
              "position": 14.525,
              "duration": 0.233333
            },
            {
              "pitch": 67,
              "velocity": 63,
              "position": 15.016667,
              "duration": 0.483333
            },
            {
              "pitch": 52,
              "velocity": 61,
              "position": 15.025,
              "duration": 0.425
            },
            {
              "pitch": 79,
              "velocity": 63,
              "position": 15.025,
              "duration": 0.541667
            },
            {
              "pitch": 59,
              "velocity": 43,
              "position": 15.266667,
              "duration": 0.35
            },
            {
              "pitch": 62,
              "velocity": 53,
              "position": 15.508333,
              "duration": 0.208333
            },
            {
              "pitch": 69,
              "velocity": 10,
              "position": 15.758333,
              "duration": 0.241667
            },
            {
              "pitch": 81,
              "velocity": 10,
              "position": 15.766667,
              "duration": 0.233333
            },
            {
              "pitch": 57,
              "velocity": 8,
              "position": 15.775,
              "duration": 0.225
            }
          ]
        },
        "12": {
          "ctab": {
            "srcChannel": 12,
            "name": "Guitar",
            "accType": "CHORD2",
            "editable": true,
            "mutedNotes": [],
            "mutedChords": [],
            "sourceChordNote": 0,
            "sourceChordType": "Maj7",
            "ctb2Main": {
              "ntr": "ROOT_FIXED",
              "ntt": "CHORD",
              "bassOn": false,
              "noteLowLimit": 40,
              "noteHighLimit": 76,
              "chordRootUpperLimit": 127,
              "rtr": "NOTE_GENERATOR"
            }
          },
          "notes": [
            {
              "pitch": 67,
              "velocity": 41,
              "position": 0.025,
              "duration": 15.575
            }
          ]
        },
        "13": {
          "ctab": {
            "srcChannel": 13,
            "name": "Strings",
            "accType": "PAD",
            "editable": true,
            "mutedNotes": [],
            "mutedChords": [],
            "sourceChordNote": 0,
            "sourceChordType": "Maj7",
            "ctb2Main": {
              "ntr": "ROOT_FIXED",
              "ntt": "MELODY",
              "bassOn": false,
              "noteLowLimit": 36,
              "noteHighLimit": 96,
              "chordRootUpperLimit": 127,
              "rtr": "PITCH_SHIFT"
            }
          },
          "notes": [
            {
              "pitch": 60,
              "velocity": 64,
              "position": 2.0,
              "duration": 0.291667
            },
            {
              "pitch": 64,
              "velocity": 70,
              "position": 2.0,
              "duration": 0.325
            },
            {
              "pitch": 60,
              "velocity": 39,
              "position": 2.416667,
              "duration": 0.216667
            },
            {
              "pitch": 64,
              "velocity": 61,
              "position": 2.416667,
              "duration": 0.358333
            },
            {
              "pitch": 64,
              "velocity": 56,
              "position": 2.941667,
              "duration": 0.416667
            },
            {
              "pitch": 67,
              "velocity": 76,
              "position": 2.941667,
              "duration": 0.458333
            },
            {
              "pitch": 60,
              "velocity": 52,
              "position": 3.683333,
              "duration": 1.975
            },
            {
              "pitch": 64,
              "velocity": 49,
              "position": 3.683333,
              "duration": 1.775
            },
            {
              "pitch": 60,
              "velocity": 63,
              "position": 6.0,
              "duration": 0.283333
            },
            {
              "pitch": 64,
              "velocity": 69,
              "position": 6.0,
              "duration": 0.333333
            },
            {
              "pitch": 64,
              "velocity": 54,
              "position": 6.433333,
              "duration": 0.3
            },
            {
              "pitch": 67,
              "velocity": 51,
              "position": 6.45,
              "duration": 0.341667
            },
            {
              "pitch": 64,
              "velocity": 66,
              "position": 6.95,
              "duration": 0.475
            },
            {
              "pitch": 67,
              "velocity": 63,
              "position": 6.958333,
              "duration": 0.508333
            },
            {
              "pitch": 74,
              "velocity": 65,
              "position": 10.7,
              "duration": 0.2
            },
            {
              "pitch": 76,
              "velocity": 68,
              "position": 10.7,
              "duration": 0.233333
            },
            {
              "pitch": 67,
              "velocity": 74,
              "position": 10.716667,
              "duration": 0.116667
            },
            {
              "pitch": 71,
              "velocity": 65,
              "position": 10.725,
              "duration": 0.183333
            },
            {
              "pitch": 76,
              "velocity": 38,
              "position": 11.0,
              "duration": 0.316667
            },
            {
              "pitch": 67,
              "velocity": 62,
              "position": 11.016667,
              "duration": 0.308333
            },
            {
              "pitch": 71,
              "velocity": 87,
              "position": 11.016667,
              "duration": 0.316667
            },
            {
              "pitch": 74,
              "velocity": 56,
              "position": 11.025,
              "duration": 0.308333
            },
            {
              "pitch": 76,
              "velocity": 53,
              "position": 14.675,
              "duration": 0.208333
            },
            {
              "pitch": 71,
              "velocity": 58,
              "position": 14.683333,
              "duration": 0.183333
            },
            {
              "pitch": 74,
              "velocity": 59,
              "position": 14.683333,
              "duration": 0.183333
            },
            {
              "pitch": 67,
              "velocity": 62,
              "position": 14.691667,
              "duration": 0.116667
            },
            {
              "pitch": 71,
              "velocity": 52,
              "position": 14.991667,
              "duration": 0.325
            },
            {
              "pitch": 67,
              "velocity": 56,
              "position": 15.0,
              "duration": 0.283333
            },
            {
              "pitch": 74,
              "velocity": 53,
              "position": 15.0,
              "duration": 0.25
            },
            {
              "pitch": 76,
              "velocity": 74,
              "position": 15.0,
              "duration": 0.258333
            }
          ]
        }
      }
    },
    "Fill_In_AA": {
      "type": "Fill_In_AA",
      "sizeInBeats": 16,
      "channels": {
        "9": {
          "ctab": {
            "srcChannel": 9,
            "name": "Drums",
            "accType": "RHYTHM",
            "editable": false,
            "mutedNotes": [],
            "mutedChords": [],
            "sourceChordNote": 0,
            "sourceChordType": "Maj",
            "ctb2Main": {
              "ntr": "ROOT_FIXED",
              "ntt": "BYPASS",
              "bassOn": false,
              "noteLowLimit": 20,
              "noteHighLimit": 127,
              "chordRootUpperLimit": 127,
              "rtr": "RETRIGGER"
            }
          },
          "notes": [
            {
              "pitch": 36,
              "velocity": 100,
              "position": 0.0,
              "duration": 0.25
            },
            {
              "pitch": 57,
              "velocity": 91,
              "position": 0.0,
              "duration": 0.283333
            },
            {
              "pitch": 75,
              "velocity": 80,
              "position": 0.041667,
              "duration": 0.35
            },
            {
              "pitch": 60,
              "velocity": 49,
              "position": 0.25,
              "duration": 0.233333
            },
            {
              "pitch": 53,
              "velocity": 100,
              "position": 0.716667,
              "duration": 0.233333
            },
            {
              "pitch": 60,
              "velocity": 56,
              "position": 0.75,
              "duration": 0.166667
            },
            {
              "pitch": 75,
              "velocity": 87,
              "position": 0.791667,
              "duration": 0.358333
            },
            {
              "pitch": 53,
              "velocity": 100,
              "position": 1.183333,
              "duration": 0.208333
            },
            {
              "pitch": 60,
              "velocity": 53,
              "position": 1.25,
              "duration": 0.075
            },
            {
              "pitch": 64,
              "velocity": 89,
              "position": 1.5,
              "duration": 0.158333
            },
            {
              "pitch": 53,
              "velocity": 105,
              "position": 1.675,
              "duration": 0.133333
            },
            {
              "pitch": 75,
              "velocity": 84,
              "position": 1.725,
              "duration": 0.316667
            },
            {
              "pitch": 61,
              "velocity": 87,
              "position": 1.75,
              "duration": 0.191667
            },
            {
              "pitch": 53,
              "velocity": 96,
              "position": 1.941667,
              "duration": 0.175
            },
            {
              "pitch": 63,
              "velocity": 80,
              "position": 2.0,
              "duration": 0.433333
            },
            {
              "pitch": 75,
              "velocity": 87,
              "position": 2.458333,
              "duration": 0.216667
            },
            {
              "pitch": 53,
              "velocity": 89,
              "position": 2.475,
              "duration": 0.183333
            },
            {
              "pitch": 61,
              "velocity": 80,
              "position": 2.5,
              "duration": 0.158333
            },
            {
              "pitch": 63,
              "velocity": 87,
              "position": 2.75,
              "duration": 0.408333
            },
            {
              "pitch": 53,
              "velocity": 96,
              "position": 2.991667,
              "duration": 0.158333
            },
            {
              "pitch": 75,
              "velocity": 87,
              "position": 2.991667,
              "duration": 0.25
            },
            {
              "pitch": 61,
              "velocity": 67,
              "position": 3.25,
              "duration": 0.125
            },
            {
              "pitch": 53,
              "velocity": 105,
              "position": 3.258333,
              "duration": 0.2
            },
            {
              "pitch": 64,
              "velocity": 83,
              "position": 3.5,
              "duration": 0.191667
            },
            {
              "pitch": 53,
              "velocity": 89,
              "position": 3.716667,
              "duration": 0.125
            },
            {
              "pitch": 61,
              "velocity": 73,
              "position": 3.75,
              "duration": 0.125
            },
            {
              "pitch": 53,
              "velocity": 100,
              "position": 4.0,
              "duration": 0.241667
            },
            {
              "pitch": 75,
              "velocity": 87,
              "position": 4.0,
              "duration": 0.233333
            },
            {
              "pitch": 62,
              "velocity": 96,
              "position": 4.25,
              "duration": 0.141667
            },
            {
              "pitch": 53,
              "velocity": 37,
              "position": 4.483333,
              "duration": 0.075
            },
            {
              "pitch": 60,
              "velocity": 92,
              "position": 4.5,
              "duration": 0.191667
            },
            {
              "pitch": 75,
              "velocity": 84,
              "position": 4.7,
              "duration": 0.275
            },
            {
              "pitch": 36,
              "velocity": 96,
              "position": 4.716667,
              "duration": 0.325
            },
            {
              "pitch": 53,
              "velocity": 105,
              "position": 4.725,
              "duration": 0.258333
            },
            {
              "pitch": 62,
              "velocity": 105,
              "position": 4.75,
              "duration": 0.35
            },
            {
              "pitch": 53,
              "velocity": 100,
              "position": 5.216667,
              "duration": 0.216667
            },
            {
              "pitch": 60,
              "velocity": 92,
              "position": 5.25,
              "duration": 0.15
            },
            {
              "pitch": 64,
              "velocity": 100,
              "position": 5.5,
              "duration": 0.183333
            },
            {
              "pitch": 75,
              "velocity": 87,
              "position": 5.708333,
              "duration": 0.2
            },
            {
              "pitch": 53,
              "velocity": 83,
              "position": 5.716667,
              "duration": 0.1
            },
            {
              "pitch": 61,
              "velocity": 94,
              "position": 5.75,
              "duration": 0.2
            },
            {
              "pitch": 53,
              "velocity": 92,
              "position": 5.983333,
              "duration": 0.241667
            },
            {
              "pitch": 63,
              "velocity": 73,
              "position": 6.0,
              "duration": 0.441667
            },
            {
              "pitch": 75,
              "velocity": 90,
              "position": 6.483333,
              "duration": 0.166667
            },
            {
              "pitch": 61,
              "velocity": 84,
              "position": 6.5,
              "duration": 0.158333
            },
            {
              "pitch": 53,
              "velocity": 92,
              "position": 6.516667,
              "duration": 0.2
            },
            {
              "pitch": 63,
              "velocity": 90,
              "position": 6.75,
              "duration": 0.416667
            },
            {
              "pitch": 53,
              "velocity": 89,
              "position": 7.008333,
              "duration": 0.125
            },
            {
              "pitch": 75,
              "velocity": 94,
              "position": 7.05,
              "duration": 0.183333
            },
            {
              "pitch": 53,
              "velocity": 109,
              "position": 7.241667,
              "duration": 0.216667
            },
            {
              "pitch": 61,
              "velocity": 90,
              "position": 7.25,
              "duration": 0.158333
            },
            {
              "pitch": 64,
              "velocity": 92,
              "position": 7.5,
              "duration": 0.2
            },
            {
              "pitch": 53,
              "velocity": 105,
              "position": 7.691667,
              "duration": 0.15
            },
            {
              "pitch": 60,
              "velocity": 86,
              "position": 7.75,
              "duration": 0.25
            },
            {
              "pitch": 36,
              "velocity": 96,
              "position": 8.0,
              "duration": 0.208333
            },
            {
              "pitch": 53,
              "velocity": 116,
              "position": 8.0,
              "duration": 0.191667
            },
            {
              "pitch": 75,
              "velocity": 80,
              "position": 8.041667,
              "duration": 0.35
            },
            {
              "pitch": 61,
              "velocity": 80,
              "position": 8.25,
              "duration": 0.241667
            },
            {
              "pitch": 36,
              "velocity": 89,
              "position": 8.716667,
              "duration": 0.2
            },
            {
              "pitch": 53,
              "velocity": 105,
              "position": 8.716667,
              "duration": 0.225
            },
            {
              "pitch": 62,
              "velocity": 96,
              "position": 8.75,
              "duration": 0.375
            },
            {
              "pitch": 75,
              "velocity": 87,
              "position": 8.791667,
              "duration": 0.358333
            },
            {
              "pitch": 53,
              "velocity": 86,
              "position": 9.241667,
              "duration": 0.225
            },
            {
              "pitch": 61,
              "velocity": 87,
              "position": 9.25,
              "duration": 0.175
            },
            {
              "pitch": 64,
              "velocity": 86,
              "position": 9.5,
              "duration": 0.166667
            },
            {
              "pitch": 75,
              "velocity": 84,
              "position": 9.725,
              "duration": 0.316667
            },
            {
              "pitch": 53,
              "velocity": 92,
              "position": 9.733333,
              "duration": 0.166667
            },
            {
              "pitch": 61,
              "velocity": 98,
              "position": 9.75,
              "duration": 0.191667
            },
            {
              "pitch": 63,
              "velocity": 84,
              "position": 10.0,
              "duration": 0.4
            },
            {
              "pitch": 53,
              "velocity": 92,
              "position": 10.008333,
              "duration": 0.141667
            },
            {
              "pitch": 75,
              "velocity": 87,
              "position": 10.458333,
              "duration": 0.216667
            },
            {
              "pitch": 53,
              "velocity": 109,
              "position": 10.475,
              "duration": 0.166667
            },
            {
              "pitch": 61,
              "velocity": 84,
              "position": 10.5,
              "duration": 0.175
            },
            {
              "pitch": 63,
              "velocity": 90,
              "position": 10.75,
              "duration": 0.441667
            },
            {
              "pitch": 53,
              "velocity": 96,
              "position": 10.991667,
              "duration": 0.108333
            },
            {
              "pitch": 75,
              "velocity": 87,
              "position": 10.991667,
              "duration": 0.25
            },
            {
              "pitch": 61,
              "velocity": 84,
              "position": 11.25,
              "duration": 0.183333
            },
            {
              "pitch": 53,
              "velocity": 96,
              "position": 11.258333,
              "duration": 0.208333
            },
            {
              "pitch": 64,
              "velocity": 92,
              "position": 11.5,
              "duration": 0.216667
            },
            {
              "pitch": 43,
              "velocity": 96,
              "position": 11.658333,
              "duration": 0.141667
            },
            {
              "pitch": 61,
              "velocity": 90,
              "position": 11.75,
              "duration": 0.25
            },
            {
              "pitch": 75,
              "velocity": 87,
              "position": 12.0,
              "duration": 0.233333
            },
            {
              "pitch": 48,
              "velocity": 96,
              "position": 12.175,
              "duration": 0.15
            },
            {
              "pitch": 62,
              "velocity": 89,
              "position": 12.25,
              "duration": 0.15
            },
            {
              "pitch": 50,
              "velocity": 79,
              "position": 12.425,
              "duration": 0.2
            },
            {
              "pitch": 60,
              "velocity": 83,
              "position": 12.5,
              "duration": 0.133333
            },
            {
              "pitch": 75,
              "velocity": 84,
              "position": 12.7,
              "duration": 0.275
            },
            {
              "pitch": 48,
              "velocity": 87,
              "position": 12.708333,
              "duration": 0.175
            },
            {
              "pitch": 62,
              "velocity": 96,
              "position": 12.75,
              "duration": 0.3
            },
            {
              "pitch": 45,
              "velocity": 96,
              "position": 13.2,
              "duration": 0.166667
            },
            {
              "pitch": 60,
              "velocity": 80,
              "position": 13.25,
              "duration": 0.1
            },
            {
              "pitch": 47,
              "velocity": 74,
              "position": 13.45,
              "duration": 0.191667
            },
            {
              "pitch": 64,
              "velocity": 96,
              "position": 13.5,
              "duration": 0.175
            },
            {
              "pitch": 45,
              "velocity": 77,
              "position": 13.708333,
              "duration": 0.183333
            },
            {
              "pitch": 75,
              "velocity": 87,
              "position": 13.708333,
              "duration": 0.2
            },
            {
              "pitch": 61,
              "velocity": 90,
              "position": 13.75,
              "duration": 0.175
            },
            {
              "pitch": 63,
              "velocity": 84,
              "position": 14.0,
              "duration": 0.391667
            },
            {
              "pitch": 45,
              "velocity": 79,
              "position": 14.175,
              "duration": 0.233333
            },
            {
              "pitch": 47,
              "velocity": 96,
              "position": 14.466667,
              "duration": 0.191667
            },
            {
              "pitch": 75,
              "velocity": 90,
              "position": 14.483333,
              "duration": 0.166667
            },
            {
              "pitch": 61,
              "velocity": 67,
              "position": 14.5,
              "duration": 0.15
            },
            {
              "pitch": 63,
              "velocity": 84,
              "position": 14.75,
              "duration": 0.433333
            },
            {
              "pitch": 43,
              "velocity": 103,
              "position": 14.958333,
              "duration": 0.158333
            },
            {
              "pitch": 75,
              "velocity": 94,
              "position": 15.05,
              "duration": 0.183333
            },
            {
              "pitch": 61,
              "velocity": 87,
              "position": 15.25,
              "duration": 0.166667
            },
            {
              "pitch": 43,
              "velocity": 94,
              "position": 15.483333,
              "duration": 0.225
            },
            {
              "pitch": 64,
              "velocity": 89,
              "position": 15.5,
              "duration": 0.233333
            },
            {
              "pitch": 61,
              "velocity": 94,
              "position": 15.75,
              "duration": 0.216667
            }
          ]
        },
        "10": {
          "ctab": {
            "srcChannel": 10,
            "name": "Bass",
            "accType": "BASS",
            "editable": true,
            "mutedNotes": [],
            "mutedChords": [],
            "sourceChordNote": 0,
            "sourceChordType": "Maj7",
            "ctb2Main": {
              "ntr": "ROOT_TRANSPOSITION",
              "ntt": "BYPASS",
              "bassOn": true,
              "noteLowLimit": 20,
              "noteHighLimit": 60,
              "chordRootUpperLimit": 127,
              "rtr": "NOTE_GENERATOR"
            }
          },
          "notes": [
            {
              "pitch": 36,
              "velocity": 83,
              "position": 0.016667,
              "duration": 0.591667
            },
            {
              "pitch": 48,
              "velocity": 92,
              "position": 0.75,
              "duration": 0.733333
            },
            {
              "pitch": 36,
              "velocity": 88,
              "position": 1.5,
              "duration": 0.966667
            },
            {
              "pitch": 36,
              "velocity": 88,
              "position": 2.716667,
              "duration": 0.283333
            },
            {
              "pitch": 43,
              "velocity": 85,
              "position": 3.016667,
              "duration": 0.583333
            },
            {
              "pitch": 36,
              "velocity": 80,
              "position": 3.758333,
              "duration": 0.866667
            },
            {
              "pitch": 43,
              "velocity": 86,
              "position": 4.758333,
              "duration": 0.566667
            },
            {
              "pitch": 36,
              "velocity": 88,
              "position": 5.5,
              "duration": 0.058333
            },
            {
              "pitch": 36,
              "velocity": 88,
              "position": 6.716667,
              "duration": 0.283333
            },
            {
              "pitch": 43,
              "velocity": 85,
              "position": 7.016667,
              "duration": 0.583333
            },
            {
              "pitch": 36,
              "velocity": 87,
              "position": 8.0,
              "duration": 0.633333
            },
            {
              "pitch": 43,
              "velocity": 90,
              "position": 8.708333,
              "duration": 0.708333
            },
            {
              "pitch": 48,
              "velocity": 90,
              "position": 9.458333,
              "duration": 1.45
            },
            {
              "pitch": 43,
              "velocity": 84,
              "position": 10.966667,
              "duration": 0.5
            },
            {
              "pitch": 43,
              "velocity": 88,
              "position": 11.616667,
              "duration": 0.275
            },
            {
              "pitch": 36,
              "velocity": 78,
              "position": 11.941667,
              "duration": 0.675
            },
            {
              "pitch": 43,
              "velocity": 87,
              "position": 12.691667,
              "duration": 0.683333
            },
            {
              "pitch": 48,
              "velocity": 93,
              "position": 13.433333,
              "duration": 1.608333
            },
            {
              "pitch": 43,
              "velocity": 96,
              "position": 15.016667,
              "duration": 0.783333
            },
            {
              "pitch": 36,
              "velocity": 84,
              "position": 15.691667,
              "duration": 0.191667
            }
          ]
        },
        "11": {
          "ctab": {
            "srcChannel": 11,
            "name": "Piano",
            "accType": "CHORD1",
            "editable": true,
            "mutedNotes": [],
            "mutedChords": [],
            "sourceChordNote": 0,
            "sourceChordType": "Maj7",
            "ctb2Main": {
              "ntr": "ROOT_FIXED",
              "ntt": "CHORD",
              "bassOn": false,
              "noteLowLimit": 48,
              "noteHighLimit": 84,
              "chordRootUpperLimit": 127,
              "rtr": "NOTE_GENERATOR"
            }
          },
          "notes": [
            {
              "pitch": 67,
              "velocity": 61,
              "position": 0.016667,
              "duration": 0.2
            },
            {
              "pitch": 55,
              "velocity": 61,
              "position": 0.025,
              "duration": 0.191667
            },
            {
              "pitch": 79,
              "velocity": 61,
              "position": 0.025,
              "duration": 0.191667
            },
            {
              "pitch": 74,
              "velocity": 55,
              "position": 0.25,
              "duration": 0.3
            },
            {
              "pitch": 76,
              "velocity": 47,
              "position": 0.25,
              "duration": 0.316667
            },
            {
              "pitch": 55,
              "velocity": 58,
              "position": 0.258333,
              "duration": 0.3
            },
            {
              "pitch": 60,
              "velocity": 61,
              "position": 0.258333,
              "duration": 0.3
            },
            {
              "pitch": 67,
              "velocity": 61,
              "position": 0.758333,
              "duration": 0.266667
            },
            {
              "pitch": 79,
              "velocity": 61,
              "position": 0.758333,
              "duration": 0.291667
            },
            {
              "pitch": 52,
              "velocity": 61,
              "position": 0.766667,
              "duration": 0.316667
            },
            {
              "pitch": 60,
              "velocity": 61,
              "position": 1.233333,
              "duration": 0.325
            },
            {
              "pitch": 74,
              "velocity": 61,
              "position": 1.241667,
              "duration": 0.275
            },
            {
              "pitch": 76,
              "velocity": 50,
              "position": 1.25,
              "duration": 0.258333
            },
            {
              "pitch": 55,
              "velocity": 61,
              "position": 1.258333,
              "duration": 0.266667
            },
            {
              "pitch": 52,
              "velocity": 38,
              "position": 1.675,
              "duration": 0.1
            },
            {
              "pitch": 79,
              "velocity": 42,
              "position": 1.708333,
              "duration": 0.083333
            },
            {
              "pitch": 67,
              "velocity": 35,
              "position": 1.716667,
              "duration": 0.066667
            },
            {
              "pitch": 79,
              "velocity": 59,
              "position": 2.016667,
              "duration": 0.191667
            },
            {
              "pitch": 55,
              "velocity": 59,
              "position": 2.025,
              "duration": 0.183333
            },
            {
              "pitch": 67,
              "velocity": 59,
              "position": 2.041667,
              "duration": 0.166667
            },
            {
              "pitch": 55,
              "velocity": 61,
              "position": 2.233333,
              "duration": 0.325
            },
            {
              "pitch": 60,
              "velocity": 55,
              "position": 2.25,
              "duration": 0.275
            },
            {
              "pitch": 74,
              "velocity": 61,
              "position": 2.25,
              "duration": 0.341667
            },
            {
              "pitch": 76,
              "velocity": 49,
              "position": 2.25,
              "duration": 0.308333
            },
            {
              "pitch": 52,
              "velocity": 58,
              "position": 2.766667,
              "duration": 0.391667
            },
            {
              "pitch": 67,
              "velocity": 61,
              "position": 2.766667,
              "duration": 0.275
            },
            {
              "pitch": 79,
              "velocity": 61,
              "position": 2.766667,
              "duration": 0.291667
            },
            {
              "pitch": 60,
              "velocity": 61,
              "position": 3.233333,
              "duration": 0.308333
            },
            {
              "pitch": 55,
              "velocity": 61,
              "position": 3.241667,
              "duration": 0.283333
            },
            {
              "pitch": 74,
              "velocity": 61,
              "position": 3.241667,
              "duration": 0.308333
            },
            {
              "pitch": 76,
              "velocity": 49,
              "position": 3.25,
              "duration": 0.233333
            },
            {
              "pitch": 55,
              "velocity": 60,
              "position": 3.775,
              "duration": 0.433333
            },
            {
              "pitch": 79,
              "velocity": 60,
              "position": 3.775,
              "duration": 0.433333
            },
            {
              "pitch": 67,
              "velocity": 60,
              "position": 3.783333,
              "duration": 0.425
            },
            {
              "pitch": 55,
              "velocity": 53,
              "position": 4.258333,
              "duration": 0.3
            },
            {
              "pitch": 74,
              "velocity": 61,
              "position": 4.266667,
              "duration": 0.275
            },
            {
              "pitch": 60,
              "velocity": 56,
              "position": 4.491667,
              "duration": 0.175
            },
            {
              "pitch": 76,
              "velocity": 45,
              "position": 4.516667,
              "duration": 0.125
            },
            {
              "pitch": 79,
              "velocity": 61,
              "position": 4.741667,
              "duration": 0.3
            },
            {
              "pitch": 52,
              "velocity": 56,
              "position": 4.75,
              "duration": 0.391667
            },
            {
              "pitch": 67,
              "velocity": 61,
              "position": 4.75,
              "duration": 0.3
            },
            {
              "pitch": 60,
              "velocity": 61,
              "position": 5.25,
              "duration": 0.341667
            },
            {
              "pitch": 74,
              "velocity": 61,
              "position": 5.25,
              "duration": 0.308333
            },
            {
              "pitch": 76,
              "velocity": 53,
              "position": 5.25,
              "duration": 0.25
            },
            {
              "pitch": 55,
              "velocity": 59,
              "position": 5.258333,
              "duration": 0.275
            },
            {
              "pitch": 52,
              "velocity": 62,
              "position": 6.0,
              "duration": 0.466667
            },
            {
              "pitch": 71,
              "velocity": 62,
              "position": 6.0,
              "duration": 0.375
            },
            {
              "pitch": 83,
              "velocity": 62,
              "position": 6.0,
              "duration": 0.333333
            },
            {
              "pitch": 64,
              "velocity": 62,
              "position": 6.466667,
              "duration": 0.283333
            },
            {
              "pitch": 59,
              "velocity": 57,
              "position": 6.491667,
              "duration": 0.3
            },
            {
              "pitch": 76,
              "velocity": 62,
              "position": 6.491667,
              "duration": 0.275
            },
            {
              "pitch": 79,
              "velocity": 54,
              "position": 6.5,
              "duration": 0.266667
            },
            {
              "pitch": 52,
              "velocity": 57,
              "position": 6.991667,
              "duration": 0.416667
            },
            {
              "pitch": 71,
              "velocity": 62,
              "position": 7.016667,
              "duration": 0.55
            },
            {
              "pitch": 83,
              "velocity": 62,
              "position": 7.016667,
              "duration": 0.5
            },
            {
              "pitch": 59,
              "velocity": 43,
              "position": 7.241667,
              "duration": 0.366667
            },
            {
              "pitch": 64,
              "velocity": 57,
              "position": 7.483333,
              "duration": 0.191667
            },
            {
              "pitch": 52,
              "velocity": 35,
              "position": 7.741667,
              "duration": 0.258333
            },
            {
              "pitch": 67,
              "velocity": 43,
              "position": 7.758333,
              "duration": 0.241667
            },
            {
              "pitch": 79,
              "velocity": 43,
              "position": 7.766667,
              "duration": 0.233333
            },
            {
              "pitch": 71,
              "velocity": 64,
              "position": 8.025,
              "duration": 0.183333
            },
            {
              "pitch": 83,
              "velocity": 64,
              "position": 8.025,
              "duration": 0.183333
            },
            {
              "pitch": 59,
              "velocity": 64,
              "position": 8.033333,
              "duration": 0.175
            },
            {
              "pitch": 76,
              "velocity": 60,
              "position": 8.233333,
              "duration": 0.316667
            },
            {
              "pitch": 64,
              "velocity": 64,
              "position": 8.241667,
              "duration": 0.375
            },
            {
              "pitch": 67,
              "velocity": 64,
              "position": 8.466667,
              "duration": 0.233333
            },
            {
              "pitch": 79,
              "velocity": 64,
              "position": 8.483333,
              "duration": 0.225
            },
            {
              "pitch": 59,
              "velocity": 64,
              "position": 8.75,
              "duration": 0.316667
            },
            {
              "pitch": 83,
              "velocity": 64,
              "position": 8.758333,
              "duration": 0.358333
            },
            {
              "pitch": 71,
              "velocity": 64,
              "position": 8.766667,
              "duration": 0.291667
            },
            {
              "pitch": 64,
              "velocity": 64,
              "position": 9.241667,
              "duration": 0.341667
            },
            {
              "pitch": 67,
              "velocity": 64,
              "position": 9.25,
              "duration": 0.225
            },
            {
              "pitch": 76,
              "velocity": 64,
              "position": 9.25,
              "duration": 0.283333
            },
            {
              "pitch": 79,
              "velocity": 64,
              "position": 9.25,
              "duration": 0.275
            },
            {
              "pitch": 59,
              "velocity": 64,
              "position": 9.7,
              "duration": 0.141667
            },
            {
              "pitch": 83,
              "velocity": 64,
              "position": 9.7,
              "duration": 0.175
            },
            {
              "pitch": 71,
              "velocity": 32,
              "position": 9.725,
              "duration": 0.075
            },
            {
              "pitch": 60,
              "velocity": 64,
              "position": 10.0,
              "duration": 0.35
            },
            {
              "pitch": 74,
              "velocity": 64,
              "position": 10.008333,
              "duration": 0.308333
            },
            {
              "pitch": 86,
              "velocity": 64,
              "position": 10.025,
              "duration": 0.291667
            },
            {
              "pitch": 64,
              "velocity": 47,
              "position": 10.225,
              "duration": 0.616667
            },
            {
              "pitch": 76,
              "velocity": 42,
              "position": 10.241667,
              "duration": 0.233333
            },
            {
              "pitch": 67,
              "velocity": 60,
              "position": 10.433333,
              "duration": 0.316667
            },
            {
              "pitch": 79,
              "velocity": 42,
              "position": 10.483333,
              "duration": 0.166667
            },
            {
              "pitch": 60,
              "velocity": 32,
              "position": 10.716667,
              "duration": 0.075
            },
            {
              "pitch": 74,
              "velocity": 64,
              "position": 10.716667,
              "duration": 0.083333
            },
            {
              "pitch": 83,
              "velocity": 64,
              "position": 10.966667,
              "duration": 0.533333
            },
            {
              "pitch": 59,
              "velocity": 64,
              "position": 10.975,
              "duration": 0.391667
            },
            {
              "pitch": 71,
              "velocity": 64,
              "position": 11.008333,
              "duration": 0.4
            },
            {
              "pitch": 64,
              "velocity": 45,
              "position": 11.208333,
              "duration": 0.375
            },
            {
              "pitch": 67,
              "velocity": 60,
              "position": 11.433333,
              "duration": 0.2
            },
            {
              "pitch": 60,
              "velocity": 64,
              "position": 11.725,
              "duration": 0.316667
            },
            {
              "pitch": 74,
              "velocity": 64,
              "position": 11.733333,
              "duration": 0.225
            },
            {
              "pitch": 86,
              "velocity": 64,
              "position": 11.733333,
              "duration": 0.233333
            },
            {
              "pitch": 67,
              "velocity": 64,
              "position": 12.216667,
              "duration": 0.25
            },
            {
              "pitch": 79,
              "velocity": 64,
              "position": 12.216667,
              "duration": 0.283333
            },
            {
              "pitch": 64,
              "velocity": 64,
              "position": 12.225,
              "duration": 0.35
            },
            {
              "pitch": 76,
              "velocity": 55,
              "position": 12.225,
              "duration": 0.291667
            },
            {
              "pitch": 83,
              "velocity": 64,
              "position": 12.716667,
              "duration": 0.35
            },
            {
              "pitch": 71,
              "velocity": 64,
              "position": 12.725,
              "duration": 0.341667
            },
            {
              "pitch": 59,
              "velocity": 64,
              "position": 12.733333,
              "duration": 0.325
            },
            {
              "pitch": 59,
              "velocity": 64,
              "position": 13.241667,
              "duration": 0.291667
            },
            {
              "pitch": 71,
              "velocity": 63,
              "position": 13.258333,
              "duration": 0.225
            },
            {
              "pitch": 83,
              "velocity": 64,
              "position": 13.266667,
              "duration": 0.325
            },
            {
              "pitch": 60,
              "velocity": 64,
              "position": 13.75,
              "duration": 0.558333
            },
            {
              "pitch": 86,
              "velocity": 64,
              "position": 13.758333,
              "duration": 0.291667
            },
            {
              "pitch": 74,
              "velocity": 64,
              "position": 13.766667,
              "duration": 0.383333
            },
            {
              "pitch": 76,
              "velocity": 63,
              "position": 14.233333,
              "duration": 0.258333
            },
            {
              "pitch": 64,
              "velocity": 64,
              "position": 14.241667,
              "duration": 0.341667
            },
            {
              "pitch": 67,
              "velocity": 55,
              "position": 14.483333,
              "duration": 0.258333
            },
            {
              "pitch": 79,
              "velocity": 45,
              "position": 14.491667,
              "duration": 0.316667
            },
            {
              "pitch": 60,
              "velocity": 64,
              "position": 14.675,
              "duration": 0.075
            },
            {
              "pitch": 74,
              "velocity": 52,
              "position": 14.683333,
              "duration": 0.1
            },
            {
              "pitch": 83,
              "velocity": 59,
              "position": 14.983333,
              "duration": 0.366667
            },
            {
              "pitch": 59,
              "velocity": 64,
              "position": 14.991667,
              "duration": 0.366667
            },
            {
              "pitch": 71,
              "velocity": 64,
              "position": 15.008333,
              "duration": 0.4
            },
            {
              "pitch": 52,
              "velocity": 14,
              "position": 15.766667,
              "duration": 0.233333
            },
            {
              "pitch": 79,
              "velocity": 17,
              "position": 15.766667,
              "duration": 0.233333
            },
            {
              "pitch": 67,
              "velocity": 17,
              "position": 15.783333,
              "duration": 0.216667
            }
          ]
        },
        "12": {
          "ctab": {
            "srcChannel": 12,
            "name": "Guitar",
            "accType": "CHORD2",
            "editable": true,
            "mutedNotes": [],
            "mutedChords": [],
            "sourceChordNote": 0,
            "sourceChordType": "Maj7",
            "ctb2Main": {
              "ntr": "ROOT_FIXED",
              "ntt": "CHORD",
              "bassOn": false,
              "noteLowLimit": 40,
              "noteHighLimit": 76,
              "chordRootUpperLimit": 127,
              "rtr": "NOTE_GENERATOR"
            }
          },
          "notes": [
            {
              "pitch": 67,
              "velocity": 41,
              "position": 0.025,
              "duration": 15.575
            }
          ]
        },
        "13": {
          "ctab": {
            "srcChannel": 13,
            "name": "Strings",
            "accType": "PAD",
            "editable": true,
            "mutedNotes": [],
            "mutedChords": [],
            "sourceChordNote": 0,
            "sourceChordType": "Maj7",
            "ctb2Main": {
              "ntr": "ROOT_FIXED",
              "ntt": "MELODY",
              "bassOn": false,
              "noteLowLimit": 36,
              "noteHighLimit": 96,
              "chordRootUpperLimit": 127,
              "rtr": "PITCH_SHIFT"
            }
          },
          "notes": [
            {
              "pitch": 60,
              "velocity": 51,
              "position": 0.0,
              "duration": 1.541667
            },
            {
              "pitch": 64,
              "velocity": 65,
              "position": 0.0,
              "duration": 1.6
            },
            {
              "pitch": 64,
              "velocity": 58,
              "position": 2.0,
              "duration": 0.325
            },
            {
              "pitch": 67,
              "velocity": 54,
              "position": 2.0,
              "duration": 0.4
            },
            {
              "pitch": 67,
              "velocity": 61,
              "position": 2.458333,
              "duration": 0.433333
            },
            {
              "pitch": 64,
              "velocity": 61,
              "position": 2.475,
              "duration": 0.25
            },
            {
              "pitch": 67,
              "velocity": 70,
              "position": 2.991667,
              "duration": 0.533333
            },
            {
              "pitch": 64,
              "velocity": 64,
              "position": 3.0,
              "duration": 0.425
            },
            {
              "pitch": 60,
              "velocity": 70,
              "position": 4.0,
              "duration": 0.291667
            },
            {
              "pitch": 64,
              "velocity": 67,
              "position": 4.0,
              "duration": 0.341667
            },
            {
              "pitch": 64,
              "velocity": 58,
              "position": 4.416667,
              "duration": 0.275
            },
            {
              "pitch": 67,
              "velocity": 50,
              "position": 4.441667,
              "duration": 0.308333
            },
            {
              "pitch": 64,
              "velocity": 55,
              "position": 4.925,
              "duration": 0.25
            },
            {
              "pitch": 67,
              "velocity": 67,
              "position": 4.95,
              "duration": 0.258333
            },
            {
              "pitch": 60,
              "velocity": 68,
              "position": 6.0,
              "duration": 0.258333
            },
            {
              "pitch": 64,
              "velocity": 65,
              "position": 6.0,
              "duration": 0.308333
            },
            {
              "pitch": 64,
              "velocity": 59,
              "position": 6.433333,
              "duration": 0.358333
            },
            {
              "pitch": 60,
              "velocity": 53,
              "position": 6.441667,
              "duration": 0.258333
            },
            {
              "pitch": 64,
              "velocity": 68,
              "position": 6.958333,
              "duration": 0.333333
            },
            {
              "pitch": 67,
              "velocity": 56,
              "position": 6.975,
              "duration": 0.3
            },
            {
              "pitch": 67,
              "velocity": 70,
              "position": 8.691667,
              "duration": 0.175
            },
            {
              "pitch": 76,
              "velocity": 58,
              "position": 8.691667,
              "duration": 0.233333
            },
            {
              "pitch": 72,
              "velocity": 61,
              "position": 8.7,
              "duration": 0.208333
            },
            {
              "pitch": 67,
              "velocity": 70,
              "position": 9.016667,
              "duration": 0.275
            },
            {
              "pitch": 72,
              "velocity": 70,
              "position": 9.016667,
              "duration": 0.283333
            },
            {
              "pitch": 76,
              "velocity": 78,
              "position": 9.016667,
              "duration": 0.316667
            },
            {
              "pitch": 67,
              "velocity": 70,
              "position": 10.675,
              "duration": 0.183333
            },
            {
              "pitch": 72,
              "velocity": 61,
              "position": 10.675,
              "duration": 0.208333
            },
            {
              "pitch": 76,
              "velocity": 61,
              "position": 10.675,
              "duration": 0.225
            },
            {
              "pitch": 67,
              "velocity": 61,
              "position": 11.0,
              "duration": 0.258333
            },
            {
              "pitch": 72,
              "velocity": 52,
              "position": 11.0,
              "duration": 0.3
            },
            {
              "pitch": 76,
              "velocity": 70,
              "position": 11.008333,
              "duration": 0.291667
            },
            {
              "pitch": 76,
              "velocity": 58,
              "position": 12.641667,
              "duration": 0.258333
            },
            {
              "pitch": 67,
              "velocity": 64,
              "position": 12.65,
              "duration": 0.216667
            },
            {
              "pitch": 72,
              "velocity": 52,
              "position": 12.666667,
              "duration": 0.225
            },
            {
              "pitch": 67,
              "velocity": 67,
              "position": 13.008333,
              "duration": 0.25
            },
            {
              "pitch": 72,
              "velocity": 61,
              "position": 13.008333,
              "duration": 0.266667
            },
            {
              "pitch": 76,
              "velocity": 61,
              "position": 13.016667,
              "duration": 0.241667
            },
            {
              "pitch": 76,
              "velocity": 58,
              "position": 14.675,
              "duration": 0.225
            },
            {
              "pitch": 67,
              "velocity": 64,
              "position": 14.683333,
              "duration": 0.175
            },
            {
              "pitch": 72,
              "velocity": 55,
              "position": 14.683333,
              "duration": 0.191667
            },
            {
              "pitch": 67,
              "velocity": 58,
              "position": 15.008333,
              "duration": 0.316667
            },
            {
              "pitch": 76,
              "velocity": 58,
              "position": 15.008333,
              "duration": 0.3
            },
            {
              "pitch": 72,
              "velocity": 49,
              "position": 15.016667,
              "duration": 0.316667
            },
            {
              "pitch": 60,
              "velocity": 52,
              "position": 15.683333,
              "duration": 1.975
            },
            {
              "pitch": 64,
              "velocity": 49,
              "position": 15.683333,
              "duration": 1.775
            }
          ]
        }
      }
    },
    "Ending_A": {
      "type": "Ending_A",
      "sizeInBeats": 16,
      "channels": {
        "9": {
          "ctab": {
            "srcChannel": 9,
            "name": "Drums",
            "accType": "RHYTHM",
            "editable": false,
            "mutedNotes": [],
            "mutedChords": [],
            "sourceChordNote": 0,
            "sourceChordType": "Maj",
            "ctb2Main": {
              "ntr": "ROOT_FIXED",
              "ntt": "BYPASS",
              "bassOn": false,
              "noteLowLimit": 20,
              "noteHighLimit": 127,
              "chordRootUpperLimit": 127,
              "rtr": "RETRIGGER"
            }
          },
          "notes": [
            {
              "pitch": 36,
              "velocity": 80,
              "position": 0.0,
              "duration": 0.283333
            },
            {
              "pitch": 48,
              "velocity": 46,
              "position": 0.016667,
              "duration": 0.2
            },
            {
              "pitch": 57,
              "velocity": 67,
              "position": 0.025,
              "duration": 0.191667
            },
            {
              "pitch": 75,
              "velocity": 80,
              "position": 0.041667,
              "duration": 0.35
            },
            {
              "pitch": 61,
              "velocity": 80,
              "position": 0.25,
              "duration": 0.241667
            },
            {
              "pitch": 42,
              "velocity": 90,
              "position": 0.725,
              "duration": 0.183333
            },
            {
              "pitch": 62,
              "velocity": 96,
              "position": 0.75,
              "duration": 0.375
            },
            {
              "pitch": 75,
              "velocity": 87,
              "position": 0.791667,
              "duration": 0.358333
            },
            {
              "pitch": 44,
              "velocity": 98,
              "position": 1.0,
              "duration": 0.175
            },
            {
              "pitch": 42,
              "velocity": 87,
              "position": 1.216667,
              "duration": 0.166667
            },
            {
              "pitch": 61,
              "velocity": 87,
              "position": 1.25,
              "duration": 0.175
            },
            {
              "pitch": 64,
              "velocity": 86,
              "position": 1.5,
              "duration": 0.166667
            },
            {
              "pitch": 42,
              "velocity": 87,
              "position": 1.708333,
              "duration": 0.183333
            },
            {
              "pitch": 75,
              "velocity": 84,
              "position": 1.725,
              "duration": 0.316667
            },
            {
              "pitch": 61,
              "velocity": 98,
              "position": 1.75,
              "duration": 0.191667
            },
            {
              "pitch": 44,
              "velocity": 98,
              "position": 2.0,
              "duration": 0.291667
            },
            {
              "pitch": 63,
              "velocity": 84,
              "position": 2.0,
              "duration": 0.4
            },
            {
              "pitch": 75,
              "velocity": 87,
              "position": 2.458333,
              "duration": 0.216667
            },
            {
              "pitch": 61,
              "velocity": 84,
              "position": 2.5,
              "duration": 0.175
            },
            {
              "pitch": 42,
              "velocity": 90,
              "position": 2.508333,
              "duration": 0.225
            },
            {
              "pitch": 63,
              "velocity": 90,
              "position": 2.75,
              "duration": 0.441667
            },
            {
              "pitch": 44,
              "velocity": 84,
              "position": 2.958333,
              "duration": 0.466667
            },
            {
              "pitch": 75,
              "velocity": 87,
              "position": 2.991667,
              "duration": 0.25
            },
            {
              "pitch": 42,
              "velocity": 84,
              "position": 3.216667,
              "duration": 0.191667
            },
            {
              "pitch": 61,
              "velocity": 84,
              "position": 3.25,
              "duration": 0.183333
            },
            {
              "pitch": 64,
              "velocity": 92,
              "position": 3.5,
              "duration": 0.216667
            },
            {
              "pitch": 42,
              "velocity": 80,
              "position": 3.725,
              "duration": 0.166667
            },
            {
              "pitch": 61,
              "velocity": 90,
              "position": 3.75,
              "duration": 0.25
            },
            {
              "pitch": 44,
              "velocity": 98,
              "position": 4.0,
              "duration": 0.408333
            },
            {
              "pitch": 75,
              "velocity": 87,
              "position": 4.0,
              "duration": 0.233333
            },
            {
              "pitch": 42,
              "velocity": 90,
              "position": 4.25,
              "duration": 0.175
            },
            {
              "pitch": 61,
              "velocity": 80,
              "position": 4.25,
              "duration": 0.183333
            },
            {
              "pitch": 75,
              "velocity": 84,
              "position": 4.7,
              "duration": 0.275
            },
            {
              "pitch": 36,
              "velocity": 89,
              "position": 4.75,
              "duration": 0.316667
            },
            {
              "pitch": 44,
              "velocity": 111,
              "position": 4.75,
              "duration": 0.275
            },
            {
              "pitch": 62,
              "velocity": 89,
              "position": 4.75,
              "duration": 0.283333
            },
            {
              "pitch": 42,
              "velocity": 98,
              "position": 5.0,
              "duration": 0.225
            },
            {
              "pitch": 44,
              "velocity": 102,
              "position": 5.25,
              "duration": 0.183333
            },
            {
              "pitch": 61,
              "velocity": 77,
              "position": 5.25,
              "duration": 0.141667
            },
            {
              "pitch": 64,
              "velocity": 83,
              "position": 5.5,
              "duration": 0.2
            },
            {
              "pitch": 75,
              "velocity": 87,
              "position": 5.708333,
              "duration": 0.2
            },
            {
              "pitch": 42,
              "velocity": 98,
              "position": 5.75,
              "duration": 0.191667
            },
            {
              "pitch": 61,
              "velocity": 80,
              "position": 5.75,
              "duration": 0.166667
            },
            {
              "pitch": 44,
              "velocity": 106,
              "position": 6.0,
              "duration": 0.308333
            },
            {
              "pitch": 63,
              "velocity": 73,
              "position": 6.0,
              "duration": 0.408333
            },
            {
              "pitch": 75,
              "velocity": 90,
              "position": 6.483333,
              "duration": 0.166667
            },
            {
              "pitch": 42,
              "velocity": 98,
              "position": 6.5,
              "duration": 0.225
            },
            {
              "pitch": 61,
              "velocity": 67,
              "position": 6.5,
              "duration": 0.116667
            },
            {
              "pitch": 63,
              "velocity": 84,
              "position": 6.75,
              "duration": 0.433333
            },
            {
              "pitch": 44,
              "velocity": 94,
              "position": 7.0,
              "duration": 0.241667
            },
            {
              "pitch": 75,
              "velocity": 94,
              "position": 7.05,
              "duration": 0.183333
            },
            {
              "pitch": 42,
              "velocity": 90,
              "position": 7.25,
              "duration": 0.183333
            },
            {
              "pitch": 61,
              "velocity": 70,
              "position": 7.25,
              "duration": 0.158333
            },
            {
              "pitch": 64,
              "velocity": 83,
              "position": 7.5,
              "duration": 0.208333
            },
            {
              "pitch": 42,
              "velocity": 90,
              "position": 7.75,
              "duration": 0.175
            },
            {
              "pitch": 61,
              "velocity": 90,
              "position": 7.75,
              "duration": 0.166667
            },
            {
              "pitch": 75,
              "velocity": 80,
              "position": 8.041667,
              "duration": 0.35
            },
            {
              "pitch": 42,
              "velocity": 98,
              "position": 8.05,
              "duration": 0.241667
            },
            {
              "pitch": 60,
              "velocity": 49,
              "position": 8.25,
              "duration": 0.233333
            },
            {
              "pitch": 44,
              "velocity": 94,
              "position": 8.258333,
              "duration": 0.166667
            },
            {
              "pitch": 44,
              "velocity": 84,
              "position": 8.725,
              "duration": 0.2
            },
            {
              "pitch": 60,
              "velocity": 56,
              "position": 8.75,
              "duration": 0.166667
            },
            {
              "pitch": 75,
              "velocity": 87,
              "position": 8.791667,
              "duration": 0.358333
            },
            {
              "pitch": 42,
              "velocity": 94,
              "position": 9.025,
              "duration": 0.208333
            },
            {
              "pitch": 44,
              "velocity": 98,
              "position": 9.241667,
              "duration": 0.191667
            },
            {
              "pitch": 60,
              "velocity": 53,
              "position": 9.25,
              "duration": 0.075
            },
            {
              "pitch": 64,
              "velocity": 89,
              "position": 9.5,
              "duration": 0.158333
            },
            {
              "pitch": 75,
              "velocity": 84,
              "position": 9.725,
              "duration": 0.316667
            },
            {
              "pitch": 44,
              "velocity": 98,
              "position": 9.741667,
              "duration": 0.2
            },
            {
              "pitch": 61,
              "velocity": 87,
              "position": 9.75,
              "duration": 0.191667
            },
            {
              "pitch": 63,
              "velocity": 80,
              "position": 10.0,
              "duration": 0.433333
            },
            {
              "pitch": 42,
              "velocity": 98,
              "position": 10.025,
              "duration": 0.225
            },
            {
              "pitch": 44,
              "velocity": 98,
              "position": 10.458333,
              "duration": 0.241667
            },
            {
              "pitch": 75,
              "velocity": 87,
              "position": 10.458333,
              "duration": 0.216667
            },
            {
              "pitch": 61,
              "velocity": 80,
              "position": 10.5,
              "duration": 0.158333
            },
            {
              "pitch": 63,
              "velocity": 87,
              "position": 10.75,
              "duration": 0.408333
            },
            {
              "pitch": 75,
              "velocity": 87,
              "position": 10.991667,
              "duration": 0.25
            },
            {
              "pitch": 42,
              "velocity": 94,
              "position": 11.025,
              "duration": 0.191667
            },
            {
              "pitch": 61,
              "velocity": 67,
              "position": 11.25,
              "duration": 0.125
            },
            {
              "pitch": 44,
              "velocity": 98,
              "position": 11.258333,
              "duration": 0.183333
            },
            {
              "pitch": 64,
              "velocity": 83,
              "position": 11.5,
              "duration": 0.191667
            },
            {
              "pitch": 44,
              "velocity": 94,
              "position": 11.733333,
              "duration": 0.175
            },
            {
              "pitch": 61,
              "velocity": 73,
              "position": 11.75,
              "duration": 0.125
            },
            {
              "pitch": 44,
              "velocity": 98,
              "position": 12.0,
              "duration": 0.541667
            },
            {
              "pitch": 75,
              "velocity": 87,
              "position": 12.0,
              "duration": 0.233333
            },
            {
              "pitch": 42,
              "velocity": 80,
              "position": 12.208333,
              "duration": 0.183333
            },
            {
              "pitch": 62,
              "velocity": 89,
              "position": 12.25,
              "duration": 0.15
            },
            {
              "pitch": 60,
              "velocity": 83,
              "position": 12.5,
              "duration": 0.133333
            },
            {
              "pitch": 42,
              "velocity": 84,
              "position": 12.7,
              "duration": 0.183333
            },
            {
              "pitch": 75,
              "velocity": 84,
              "position": 12.7,
              "duration": 0.275
            },
            {
              "pitch": 62,
              "velocity": 96,
              "position": 12.75,
              "duration": 0.3
            },
            {
              "pitch": 44,
              "velocity": 84,
              "position": 12.941667,
              "duration": 0.275
            },
            {
              "pitch": 42,
              "velocity": 90,
              "position": 13.183333,
              "duration": 0.191667
            },
            {
              "pitch": 60,
              "velocity": 80,
              "position": 13.25,
              "duration": 0.1
            },
            {
              "pitch": 64,
              "velocity": 96,
              "position": 13.5,
              "duration": 0.175
            },
            {
              "pitch": 42,
              "velocity": 87,
              "position": 13.691667,
              "duration": 0.183333
            },
            {
              "pitch": 75,
              "velocity": 87,
              "position": 13.708333,
              "duration": 0.2
            },
            {
              "pitch": 61,
              "velocity": 90,
              "position": 13.75,
              "duration": 0.175
            },
            {
              "pitch": 48,
              "velocity": 105,
              "position": 13.975,
              "duration": 0.225
            },
            {
              "pitch": 63,
              "velocity": 84,
              "position": 14.0,
              "duration": 0.391667
            },
            {
              "pitch": 48,
              "velocity": 113,
              "position": 14.45,
              "duration": 0.183333
            },
            {
              "pitch": 75,
              "velocity": 90,
              "position": 14.483333,
              "duration": 0.166667
            },
            {
              "pitch": 61,
              "velocity": 67,
              "position": 14.5,
              "duration": 0.15
            },
            {
              "pitch": 63,
              "velocity": 84,
              "position": 14.75,
              "duration": 0.433333
            },
            {
              "pitch": 45,
              "velocity": 80,
              "position": 14.933333,
              "duration": 0.158333
            },
            {
              "pitch": 75,
              "velocity": 94,
              "position": 15.05,
              "duration": 0.183333
            },
            {
              "pitch": 45,
              "velocity": 96,
              "position": 15.2,
              "duration": 0.233333
            },
            {
              "pitch": 61,
              "velocity": 87,
              "position": 15.25,
              "duration": 0.166667
            },
            {
              "pitch": 64,
              "velocity": 89,
              "position": 15.5,
              "duration": 0.233333
            },
            {
              "pitch": 61,
              "velocity": 94,
              "position": 15.75,
              "duration": 0.216667
            }
          ]
        },
        "10": {
          "ctab": {
            "srcChannel": 10,
            "name": "Bass",
            "accType": "BASS",
            "editable": true,
            "mutedNotes": [],
            "mutedChords": [],
            "sourceChordNote": 0,
            "sourceChordType": "Maj7",
            "ctb2Main": {
              "ntr": "ROOT_TRANSPOSITION",
              "ntt": "BYPASS",
              "bassOn": true,
              "noteLowLimit": 20,
              "noteHighLimit": 60,
              "chordRootUpperLimit": 127,
              "rtr": "NOTE_GENERATOR"
            }
          },
          "notes": [
            {
              "pitch": 36,
              "velocity": 79,
              "position": 0.0,
              "duration": 0.591667
            },
            {
              "pitch": 31,
              "velocity": 73,
              "position": 0.733333,
              "duration": 0.516667
            },
            {
              "pitch": 36,
              "velocity": 69,
              "position": 1.766667,
              "duration": 0.633333
            },
            {
              "pitch": 36,
              "velocity": 83,
              "position": 2.475,
              "duration": 0.408333
            },
            {
              "pitch": 43,
              "velocity": 77,
              "position": 2.983333,
              "duration": 0.433333
            },
            {
              "pitch": 36,
              "velocity": 79,
              "position": 3.5,
              "duration": 1.325
            },
            {
              "pitch": 31,
              "velocity": 73,
              "position": 4.991667,
              "duration": 0.508333
            },
            {
              "pitch": 36,
              "velocity": 76,
              "position": 5.675,
              "duration": 0.175
            },
            {
              "pitch": 36,
              "velocity": 69,
              "position": 6.016667,
              "duration": 0.4
            },
            {
              "pitch": 36,
              "velocity": 83,
              "position": 6.475,
              "duration": 0.408333
            },
            {
              "pitch": 43,
              "velocity": 77,
              "position": 6.983333,
              "duration": 0.633333
            },
            {
              "pitch": 48,
              "velocity": 77,
              "position": 7.708333,
              "duration": 0.175
            },
            {
              "pitch": 48,
              "velocity": 82,
              "position": 8.0,
              "duration": 0.583333
            },
            {
              "pitch": 43,
              "velocity": 73,
              "position": 8.75,
              "duration": 0.475
            },
            {
              "pitch": 36,
              "velocity": 76,
              "position": 9.433333,
              "duration": 1.883333
            },
            {
              "pitch": 48,
              "velocity": 73,
              "position": 11.458333,
              "duration": 0.425
            },
            {
              "pitch": 48,
              "velocity": 73,
              "position": 12.016667,
              "duration": 0.433333
            },
            {
              "pitch": 48,
              "velocity": 79,
              "position": 12.733333,
              "duration": 0.541667
            },
            {
              "pitch": 36,
              "velocity": 76,
              "position": 13.45,
              "duration": 1.916667
            },
            {
              "pitch": 36,
              "velocity": 84,
              "position": 15.75,
              "duration": 0.783333
            }
          ]
        },
        "11": {
          "ctab": {
            "srcChannel": 11,
            "name": "Piano",
            "accType": "CHORD1",
            "editable": true,
            "mutedNotes": [],
            "mutedChords": [],
            "sourceChordNote": 0,
            "sourceChordType": "Maj7",
            "ctb2Main": {
              "ntr": "ROOT_FIXED",
              "ntt": "CHORD",
              "bassOn": false,
              "noteLowLimit": 48,
              "noteHighLimit": 84,
              "chordRootUpperLimit": 127,
              "rtr": "NOTE_GENERATOR"
            }
          },
          "notes": [
            {
              "pitch": 55,
              "velocity": 59,
              "position": 0.016667,
              "duration": 0.191667
            },
            {
              "pitch": 67,
              "velocity": 59,
              "position": 0.016667,
              "duration": 0.191667
            },
            {
              "pitch": 79,
              "velocity": 59,
              "position": 0.025,
              "duration": 0.191667
            },
            {
              "pitch": 59,
              "velocity": 61,
              "position": 0.241667,
              "duration": 0.375
            },
            {
              "pitch": 64,
              "velocity": 61,
              "position": 0.241667,
              "duration": 0.325
            },
            {
              "pitch": 74,
              "velocity": 61,
              "position": 0.241667,
              "duration": 0.366667
            },
            {
              "pitch": 76,
              "velocity": 47,
              "position": 0.241667,
              "duration": 0.325
            },
            {
              "pitch": 52,
              "velocity": 55,
              "position": 0.75,
              "duration": 0.375
            },
            {
              "pitch": 79,
              "velocity": 61,
              "position": 0.75,
              "duration": 0.308333
            },
            {
              "pitch": 67,
              "velocity": 61,
              "position": 0.758333,
              "duration": 0.383333
            },
            {
              "pitch": 59,
              "velocity": 61,
              "position": 1.233333,
              "duration": 0.383333
            },
            {
              "pitch": 64,
              "velocity": 61,
              "position": 1.233333,
              "duration": 0.333333
            },
            {
              "pitch": 74,
              "velocity": 61,
              "position": 1.241667,
              "duration": 0.341667
            },
            {
              "pitch": 76,
              "velocity": 52,
              "position": 1.241667,
              "duration": 0.3
            },
            {
              "pitch": 52,
              "velocity": 62,
              "position": 2.0,
              "duration": 0.466667
            },
            {
              "pitch": 71,
              "velocity": 62,
              "position": 2.0,
              "duration": 0.375
            },
            {
              "pitch": 83,
              "velocity": 62,
              "position": 2.0,
              "duration": 0.333333
            },
            {
              "pitch": 64,
              "velocity": 62,
              "position": 2.466667,
              "duration": 0.283333
            },
            {
              "pitch": 59,
              "velocity": 57,
              "position": 2.491667,
              "duration": 0.3
            },
            {
              "pitch": 76,
              "velocity": 62,
              "position": 2.491667,
              "duration": 0.275
            },
            {
              "pitch": 79,
              "velocity": 54,
              "position": 2.5,
              "duration": 0.266667
            },
            {
              "pitch": 52,
              "velocity": 57,
              "position": 2.991667,
              "duration": 0.416667
            },
            {
              "pitch": 71,
              "velocity": 62,
              "position": 3.016667,
              "duration": 0.55
            },
            {
              "pitch": 83,
              "velocity": 62,
              "position": 3.016667,
              "duration": 0.5
            },
            {
              "pitch": 59,
              "velocity": 43,
              "position": 3.241667,
              "duration": 0.366667
            },
            {
              "pitch": 55,
              "velocity": 60,
              "position": 3.775,
              "duration": 0.433333
            },
            {
              "pitch": 79,
              "velocity": 60,
              "position": 3.775,
              "duration": 0.433333
            },
            {
              "pitch": 67,
              "velocity": 60,
              "position": 3.783333,
              "duration": 0.425
            },
            {
              "pitch": 55,
              "velocity": 53,
              "position": 4.258333,
              "duration": 0.3
            },
            {
              "pitch": 74,
              "velocity": 61,
              "position": 4.266667,
              "duration": 0.275
            },
            {
              "pitch": 60,
              "velocity": 56,
              "position": 4.491667,
              "duration": 0.175
            },
            {
              "pitch": 76,
              "velocity": 45,
              "position": 4.516667,
              "duration": 0.125
            },
            {
              "pitch": 79,
              "velocity": 61,
              "position": 4.741667,
              "duration": 0.3
            },
            {
              "pitch": 52,
              "velocity": 56,
              "position": 4.75,
              "duration": 0.391667
            },
            {
              "pitch": 67,
              "velocity": 61,
              "position": 4.75,
              "duration": 0.3
            },
            {
              "pitch": 60,
              "velocity": 61,
              "position": 5.25,
              "duration": 0.341667
            },
            {
              "pitch": 74,
              "velocity": 61,
              "position": 5.25,
              "duration": 0.308333
            },
            {
              "pitch": 76,
              "velocity": 53,
              "position": 5.25,
              "duration": 0.25
            },
            {
              "pitch": 55,
              "velocity": 59,
              "position": 5.258333,
              "duration": 0.275
            },
            {
              "pitch": 52,
              "velocity": 42,
              "position": 5.7,
              "duration": 0.166667
            },
            {
              "pitch": 67,
              "velocity": 42,
              "position": 5.725,
              "duration": 0.075
            },
            {
              "pitch": 79,
              "velocity": 42,
              "position": 5.725,
              "duration": 0.116667
            },
            {
              "pitch": 55,
              "velocity": 59,
              "position": 6.016667,
              "duration": 0.191667
            },
            {
              "pitch": 67,
              "velocity": 59,
              "position": 6.016667,
              "duration": 0.191667
            },
            {
              "pitch": 79,
              "velocity": 59,
              "position": 6.025,
              "duration": 0.191667
            },
            {
              "pitch": 59,
              "velocity": 61,
              "position": 6.241667,
              "duration": 0.375
            },
            {
              "pitch": 64,
              "velocity": 61,
              "position": 6.241667,
              "duration": 0.325
            },
            {
              "pitch": 74,
              "velocity": 61,
              "position": 6.241667,
              "duration": 0.366667
            },
            {
              "pitch": 76,
              "velocity": 47,
              "position": 6.241667,
              "duration": 0.325
            },
            {
              "pitch": 52,
              "velocity": 55,
              "position": 6.75,
              "duration": 0.375
            },
            {
              "pitch": 79,
              "velocity": 61,
              "position": 6.75,
              "duration": 0.308333
            },
            {
              "pitch": 67,
              "velocity": 61,
              "position": 6.758333,
              "duration": 0.383333
            },
            {
              "pitch": 59,
              "velocity": 61,
              "position": 7.233333,
              "duration": 0.383333
            },
            {
              "pitch": 64,
              "velocity": 61,
              "position": 7.233333,
              "duration": 0.333333
            },
            {
              "pitch": 74,
              "velocity": 61,
              "position": 7.241667,
              "duration": 0.341667
            },
            {
              "pitch": 76,
              "velocity": 52,
              "position": 7.241667,
              "duration": 0.3
            },
            {
              "pitch": 74,
              "velocity": 62,
              "position": 7.766667,
              "duration": 0.433333
            },
            {
              "pitch": 86,
              "velocity": 62,
              "position": 7.766667,
              "duration": 0.433333
            },
            {
              "pitch": 60,
              "velocity": 62,
              "position": 7.783333,
              "duration": 0.425
            },
            {
              "pitch": 64,
              "velocity": 60,
              "position": 8.25,
              "duration": 0.325
            },
            {
              "pitch": 76,
              "velocity": 47,
              "position": 8.25,
              "duration": 0.308333
            },
            {
              "pitch": 67,
              "velocity": 62,
              "position": 8.258333,
              "duration": 0.291667
            },
            {
              "pitch": 71,
              "velocity": 62,
              "position": 8.75,
              "duration": 0.3
            },
            {
              "pitch": 83,
              "velocity": 62,
              "position": 8.75,
              "duration": 0.3
            },
            {
              "pitch": 59,
              "velocity": 62,
              "position": 8.758333,
              "duration": 0.425
            },
            {
              "pitch": 67,
              "velocity": 62,
              "position": 9.266667,
              "duration": 0.325
            },
            {
              "pitch": 76,
              "velocity": 57,
              "position": 9.266667,
              "duration": 0.233333
            },
            {
              "pitch": 64,
              "velocity": 60,
              "position": 9.275,
              "duration": 0.3
            },
            {
              "pitch": 79,
              "velocity": 60,
              "position": 9.275,
              "duration": 0.241667
            },
            {
              "pitch": 59,
              "velocity": 57,
              "position": 9.725,
              "duration": 0.141667
            },
            {
              "pitch": 71,
              "velocity": 47,
              "position": 9.733333,
              "duration": 0.1
            },
            {
              "pitch": 83,
              "velocity": 52,
              "position": 9.733333,
              "duration": 0.083333
            },
            {
              "pitch": 59,
              "velocity": 62,
              "position": 10.008333,
              "duration": 0.533333
            },
            {
              "pitch": 71,
              "velocity": 62,
              "position": 10.008333,
              "duration": 0.433333
            },
            {
              "pitch": 83,
              "velocity": 57,
              "position": 10.025,
              "duration": 0.375
            },
            {
              "pitch": 67,
              "velocity": 62,
              "position": 10.475,
              "duration": 0.25
            },
            {
              "pitch": 64,
              "velocity": 62,
              "position": 10.483333,
              "duration": 0.266667
            },
            {
              "pitch": 76,
              "velocity": 57,
              "position": 10.483333,
              "duration": 0.283333
            },
            {
              "pitch": 59,
              "velocity": 57,
              "position": 10.983333,
              "duration": 0.458333
            },
            {
              "pitch": 71,
              "velocity": 62,
              "position": 11.0,
              "duration": 0.341667
            },
            {
              "pitch": 83,
              "velocity": 62,
              "position": 11.0,
              "duration": 0.4
            },
            {
              "pitch": 64,
              "velocity": 37,
              "position": 11.225,
              "duration": 0.366667
            },
            {
              "pitch": 60,
              "velocity": 59,
              "position": 11.758333,
              "duration": 0.425
            },
            {
              "pitch": 74,
              "velocity": 59,
              "position": 11.766667,
              "duration": 0.425
            },
            {
              "pitch": 52,
              "velocity": 59,
              "position": 11.775,
              "duration": 0.416667
            },
            {
              "pitch": 64,
              "velocity": 61,
              "position": 12.233333,
              "duration": 0.375
            },
            {
              "pitch": 76,
              "velocity": 55,
              "position": 12.241667,
              "duration": 0.375
            },
            {
              "pitch": 59,
              "velocity": 61,
              "position": 12.733333,
              "duration": 0.35
            },
            {
              "pitch": 71,
              "velocity": 61,
              "position": 12.741667,
              "duration": 0.341667
            },
            {
              "pitch": 59,
              "velocity": 55,
              "position": 13.225,
              "duration": 0.291667
            },
            {
              "pitch": 71,
              "velocity": 55,
              "position": 13.225,
              "duration": 0.283333
            },
            {
              "pitch": 76,
              "velocity": 61,
              "position": 13.691667,
              "duration": 0.183333
            },
            {
              "pitch": 64,
              "velocity": 61,
              "position": 13.7,
              "duration": 0.166667
            },
            {
              "pitch": 76,
              "velocity": 61,
              "position": 13.991667,
              "duration": 0.441667
            },
            {
              "pitch": 64,
              "velocity": 61,
              "position": 14.0,
              "duration": 0.441667
            },
            {
              "pitch": 64,
              "velocity": 52,
              "position": 14.466667,
              "duration": 0.2
            },
            {
              "pitch": 76,
              "velocity": 44,
              "position": 14.466667,
              "duration": 0.241667
            },
            {
              "pitch": 71,
              "velocity": 58,
              "position": 14.708333,
              "duration": 0.325
            },
            {
              "pitch": 59,
              "velocity": 61,
              "position": 14.725,
              "duration": 0.333333
            },
            {
              "pitch": 59,
              "velocity": 61,
              "position": 15.25,
              "duration": 0.291667
            },
            {
              "pitch": 71,
              "velocity": 61,
              "position": 15.25,
              "duration": 0.316667
            },
            {
              "pitch": 52,
              "velocity": 61,
              "position": 15.75,
              "duration": 0.658333
            },
            {
              "pitch": 59,
              "velocity": 56,
              "position": 15.75,
              "duration": 0.716667
            },
            {
              "pitch": 64,
              "velocity": 62,
              "position": 15.75,
              "duration": 0.658333
            },
            {
              "pitch": 74,
              "velocity": 58,
              "position": 15.75,
              "duration": 0.691667
            },
            {
              "pitch": 76,
              "velocity": 43,
              "position": 15.75,
              "duration": 0.758333
            },
            {
              "pitch": 86,
              "velocity": 62,
              "position": 15.75,
              "duration": 0.758333
            }
          ]
        },
        "12": {
          "ctab": {
            "srcChannel": 12,
            "name": "Guitar",
            "accType": "CHORD2",
            "editable": true,
            "mutedNotes": [],
            "mutedChords": [],
            "sourceChordNote": 0,
            "sourceChordType": "Maj7",
            "ctb2Main": {
              "ntr": "ROOT_FIXED",
              "ntt": "CHORD",
              "bassOn": false,
              "noteLowLimit": 40,
              "noteHighLimit": 76,
              "chordRootUpperLimit": 127,
              "rtr": "NOTE_GENERATOR"
            }
          },
          "notes": []
        },
        "13": {
          "ctab": {
            "srcChannel": 13,
            "name": "Strings",
            "accType": "PAD",
            "editable": true,
            "mutedNotes": [],
            "mutedChords": [],
            "sourceChordNote": 0,
            "sourceChordType": "Maj7",
            "ctb2Main": {
              "ntr": "ROOT_FIXED",
              "ntt": "MELODY",
              "bassOn": false,
              "noteLowLimit": 36,
              "noteHighLimit": 96,
              "chordRootUpperLimit": 127,
              "rtr": "PITCH_SHIFT"
            }
          },
          "notes": [
            {
              "pitch": 71,
              "velocity": 56,
              "position": 0.716667,
              "duration": 0.158333
            },
            {
              "pitch": 74,
              "velocity": 56,
              "position": 0.716667,
              "duration": 0.208333
            },
            {
              "pitch": 76,
              "velocity": 47,
              "position": 0.716667,
              "duration": 0.2
            },
            {
              "pitch": 67,
              "velocity": 56,
              "position": 0.991667,
              "duration": 0.25
            },
            {
              "pitch": 71,
              "velocity": 47,
              "position": 0.991667,
              "duration": 0.275
            },
            {
              "pitch": 74,
              "velocity": 59,
              "position": 0.991667,
              "duration": 0.241667
            },
            {
              "pitch": 76,
              "velocity": 53,
              "position": 0.991667,
              "duration": 0.233333
            },
            {
              "pitch": 71,
              "velocity": 58,
              "position": 2.716667,
              "duration": 0.166667
            },
            {
              "pitch": 74,
              "velocity": 49,
              "position": 2.716667,
              "duration": 0.225
            },
            {
              "pitch": 76,
              "velocity": 52,
              "position": 2.716667,
              "duration": 0.233333
            },
            {
              "pitch": 76,
              "velocity": 62,
              "position": 2.991667,
              "duration": 0.25
            },
            {
              "pitch": 71,
              "velocity": 49,
              "position": 3.0,
              "duration": 0.241667
            },
            {
              "pitch": 74,
              "velocity": 49,
              "position": 3.0,
              "duration": 0.266667
            },
            {
              "pitch": 67,
              "velocity": 61,
              "position": 4.716667,
              "duration": 0.183333
            },
            {
              "pitch": 69,
              "velocity": 55,
              "position": 4.716667,
              "duration": 0.233333
            },
            {
              "pitch": 72,
              "velocity": 49,
              "position": 4.716667,
              "duration": 0.225
            },
            {
              "pitch": 76,
              "velocity": 49,
              "position": 4.716667,
              "duration": 0.233333
            },
            {
              "pitch": 67,
              "velocity": 49,
              "position": 5.0,
              "duration": 0.233333
            },
            {
              "pitch": 76,
              "velocity": 61,
              "position": 5.0,
              "duration": 0.25
            },
            {
              "pitch": 69,
              "velocity": 61,
              "position": 5.008333,
              "duration": 0.241667
            },
            {
              "pitch": 72,
              "velocity": 43,
              "position": 5.008333,
              "duration": 0.25
            },
            {
              "pitch": 67,
              "velocity": 70,
              "position": 6.733333,
              "duration": 0.2
            },
            {
              "pitch": 71,
              "velocity": 60,
              "position": 6.733333,
              "duration": 0.225
            },
            {
              "pitch": 74,
              "velocity": 53,
              "position": 6.733333,
              "duration": 0.233333
            },
            {
              "pitch": 76,
              "velocity": 53,
              "position": 6.733333,
              "duration": 0.258333
            },
            {
              "pitch": 76,
              "velocity": 17,
              "position": 7.008333,
              "duration": 0.283333
            },
            {
              "pitch": 67,
              "velocity": 53,
              "position": 7.016667,
              "duration": 0.233333
            },
            {
              "pitch": 71,
              "velocity": 57,
              "position": 7.016667,
              "duration": 0.266667
            },
            {
              "pitch": 74,
              "velocity": 66,
              "position": 7.025,
              "duration": 0.25
            },
            {
              "pitch": 72,
              "velocity": 43,
              "position": 10.725,
              "duration": 0.233333
            },
            {
              "pitch": 76,
              "velocity": 49,
              "position": 10.725,
              "duration": 0.225
            },
            {
              "pitch": 67,
              "velocity": 55,
              "position": 10.733333,
              "duration": 0.175
            },
            {
              "pitch": 69,
              "velocity": 52,
              "position": 10.733333,
              "duration": 0.225
            },
            {
              "pitch": 67,
              "velocity": 52,
              "position": 11.008333,
              "duration": 0.241667
            },
            {
              "pitch": 76,
              "velocity": 55,
              "position": 11.008333,
              "duration": 0.275
            },
            {
              "pitch": 69,
              "velocity": 62,
              "position": 11.016667,
              "duration": 0.258333
            },
            {
              "pitch": 72,
              "velocity": 58,
              "position": 11.016667,
              "duration": 0.25
            },
            {
              "pitch": 71,
              "velocity": 59,
              "position": 14.733333,
              "duration": 0.225
            },
            {
              "pitch": 74,
              "velocity": 51,
              "position": 14.733333,
              "duration": 0.225
            },
            {
              "pitch": 76,
              "velocity": 51,
              "position": 14.733333,
              "duration": 0.25
            },
            {
              "pitch": 67,
              "velocity": 61,
              "position": 14.741667,
              "duration": 0.166667
            },
            {
              "pitch": 67,
              "velocity": 51,
              "position": 15.016667,
              "duration": 0.225
            },
            {
              "pitch": 71,
              "velocity": 49,
              "position": 15.016667,
              "duration": 0.283333
            },
            {
              "pitch": 76,
              "velocity": 51,
              "position": 15.016667,
              "duration": 0.25
            },
            {
              "pitch": 74,
              "velocity": 51,
              "position": 15.025,
              "duration": 0.275
            }
          ]
        }
      }
    }
  }
}