{
  "name": "Lullaby Slow Waltz",
  "tempo": 90,
  "timeSignature": "3/4",
  "ticksPerQuarter": 120,
  "sffType": "SFF1",
  "division": "BINARY",
  "channelPrograms": {
    "9": 0,
    "10": 32,
    "11": 0,
    "12": 25,
    "13": 48
  },
  "parts": {
    "Intro_A": {
      "type": "Intro_A",
      "sizeInBeats": 18,
      "channels": {
        "9": {
          "ctab": {
            "srcChannel": 9,
            "name": "Drums",
            "accType": "RHYTHM",
            "editable": false,
            "mutedNotes": [],
            "mutedChords": [],
            "sourceChordNote": 0,
            "sourceChordType": "Maj",
            "ctb2Main": {
              "ntr": "ROOT_FIXED",
              "ntt": "BYPASS",
              "bassOn": false,
              "noteLowLimit": 20,
              "noteHighLimit": 127,
              "chordRootUpperLimit": 127,
              "rtr": "RETRIGGER"
            }
          },
          "notes": [
            {
              "pitch": 37,
              "velocity": 84,
              "position": 0.0,
              "duration": 1.0
            },
            {
              "pitch": 37,
              "velocity": 64,
              "position": 1.0,
              "duration": 1.0
            },
            {
              "pitch": 37,
              "velocity": 64,
              "position": 2.0,
              "duration": 1.0
            },
            {
              "pitch": 37,
              "velocity": 84,
              "position": 3.0,
              "duration": 1.0
            },
            {
              "pitch": 37,
              "velocity": 64,
              "position": 4.0,
              "duration": 1.0
            },
            {
              "pitch": 37,
              "velocity": 64,
              "position": 5.0,
              "duration": 1.0
            },
            {
              "pitch": 35,
              "velocity": 40,
              "position": 6.0,
              "duration": 0.208333
            },
            {
              "pitch": 69,
              "velocity": 40,
              "position": 6.0,
              "duration": 0.208333
            },
            {
              "pitch": 69,
              "velocity": 20,
              "position": 6.25,
              "duration": 0.208333
            },
            {
              "pitch": 69,
              "velocity": 30,
              "position": 6.5,
              "duration": 0.208333
            },
            {
              "pitch": 37,
              "velocity": 40,
              "position": 7.0,
              "duration": 0.208333
            },
            {
              "pitch": 69,
              "velocity": 40,
              "position": 7.0,
              "duration": 0.208333
            },
            {
              "pitch": 69,
              "velocity": 30,
              "position": 7.5,
              "duration": 0.208333
            },
            {
              "pitch": 37,
              "velocity": 50,
              "position": 8.0,
              "duration": 0.208333
            },
            {
              "pitch": 69,
              "velocity": 40,
              "position": 8.0,
              "duration": 0.208333
            },
            {
              "pitch": 69,
              "velocity": 30,
              "position": 8.5,
              "duration": 0.208333
            },
            {
              "pitch": 35,
              "velocity": 50,
              "position": 9.0,
              "duration": 0.208333
            },
            {
              "pitch": 69,
              "velocity": 40,
              "position": 9.0,
              "duration": 0.208333
            },
            {
              "pitch": 69,
              "velocity": 30,
              "position": 9.5,
              "duration": 0.208333
            },
            {
              "pitch": 37,
              "velocity": 50,
              "position": 10.0,
              "duration": 0.208333
            },
            {
              "pitch": 69,
              "velocity": 40,
              "position": 10.0,
              "duration": 0.208333
            },
            {
              "pitch": 69,
              "velocity": 30,
              "position": 10.5,
              "duration": 0.208333
            },
            {
              "pitch": 37,
              "velocity": 50,
              "position": 11.0,
              "duration": 0.208333
            },
            {
              "pitch": 69,
              "velocity": 40,
              "position": 11.0,
              "duration": 0.208333
            },
            {
              "pitch": 69,
              "velocity": 30,
              "position": 11.5,
              "duration": 0.208333
            },
            {
              "pitch": 35,
              "velocity": 50,
              "position": 12.0,
              "duration": 0.208333
            },
            {
              "pitch": 69,
              "velocity": 40,
              "position": 12.0,
              "duration": 0.208333
            },
            {
              "pitch": 69,
              "velocity": 30,
              "position": 12.5,
              "duration": 0.208333
            },
            {
              "pitch": 37,
              "velocity": 50,
              "position": 13.0,
              "duration": 0.208333
            },
            {
              "pitch": 69,
              "velocity": 40,
              "position": 13.0,
              "duration": 0.208333
            },
            {
              "pitch": 69,
              "velocity": 30,
              "position": 13.5,
              "duration": 0.208333
            },
            {
              "pitch": 37,
              "velocity": 50,
              "position": 14.0,
              "duration": 0.208333
            },
            {
              "pitch": 69,
              "velocity": 40,
              "position": 14.0,
              "duration": 0.208333
            },
            {
              "pitch": 69,
              "velocity": 30,
              "position": 14.5,
              "duration": 0.208333
            },
            {
              "pitch": 35,
              "velocity": 40,
              "position": 15.0,
              "duration": 0.208333
            },
            {
              "pitch": 69,
              "velocity": 40,
              "position": 15.0,
              "duration": 0.208333
            },
            {
              "pitch": 69,
              "velocity": 30,
              "position": 15.5,
              "duration": 0.208333
            },
            {
              "pitch": 37,
              "velocity": 45,
              "position": 16.0,
              "duration": 0.208333
            },
            {
              "pitch": 69,
              "velocity": 30,
              "position": 16.0,
              "duration": 0.208333
            },
            {
              "pitch": 69,
              "velocity": 20,
              "position": 16.25,
              "duration": 0.208333
            },
            {
              "pitch": 69,
              "velocity": 30,
              "position": 16.5,
              "duration": 0.208333
            },
            {
              "pitch": 37,
              "velocity": 40,
              "position": 17.0,
              "duration": 0.208333
            },
            {
              "pitch": 69,
              "velocity": 40,
              "position": 17.0,
              "duration": 0.208333
            },
            {
              "pitch": 69,
              "velocity": 30,
              "position": 17.5,
              "duration": 0.208333
            }
          ]
        },
        "10": {
          "ctab": {
            "srcChannel": 10,
            "name": "Bass",
            "accType": "BASS",
            "editable": true,
            "mutedNotes": [],
            "mutedChords": [],
            "sourceChordNote": 0,
            "sourceChordType": "Maj7",
            "ctb2Main": {
              "ntr": "ROOT_TRANSPOSITION",
              "ntt": "BYPASS",
              "bassOn": true,
              "noteLowLimit": 20,
              "noteHighLimit": 60,
              "chordRootUpperLimit": 127,
              "rtr": "NOTE_GENERATOR"
            }
          },
          "notes": [
            {
              "pitch": 36,
              "velocity": 57,
              "position": 6.0,
              "duration": 1.958333
            },
            {
              "pitch": 36,
              "velocity": 57,
              "position": 8.0,
              "duration": 0.958333
            },
            {
              "pitch": 36,
              "velocity": 57,
              "position": 9.0,
              "duration": 1.958333
            },
            {
              "pitch": 36,
              "velocity": 57,
              "position": 11.0,
              "duration": 0.958333
            },
            {
              "pitch": 36,
              "velocity": 61,
              "position": 12.0,
              "duration": 2.516667
            },
            {
              "pitch": 31,
              "velocity": 55,
              "position": 14.516667,
              "duration": 0.483333
            },
            {
              "pitch": 36,
              "velocity": 61,
              "position": 15.0,
              "duration": 1.816667
            },
            {
              "pitch": 31,
              "velocity": 76,
              "position": 17.008333,
              "duration": 0.85
            }
          ]
        },
        "11": {
          "ctab": {
            "srcChannel": 11,
            "name": "Piano",
            "accType": "CHORD1",
            "editable": true,
            "mutedNotes": [],
            "mutedChords": [],
            "sourceChordNote": 0,
            "sourceChordType": "Maj7",
            "ctb2Main": {
              "ntr": "ROOT_FIXED",
              "ntt": "CHORD",
              "bassOn": false,
              "noteLowLimit": 48,
              "noteHighLimit": 84,
              "chordRootUpperLimit": 127,
              "rtr": "NOTE_GENERATOR"
            }
          },
          "notes": [
            {
              "pitch": 48,
              "velocity": 31,
              "position": 6.0,
              "duration": 1.516667
            },
            {
              "pitch": 55,
              "velocity": 38,
              "position": 6.0,
              "duration": 1.55
            },
            {
              "pitch": 59,
              "velocity": 61,
              "position": 6.016667,
              "duration": 1.216667
            },
            {
              "pitch": 64,
              "velocity": 51,
              "position": 6.191667,
              "duration": 1.041667
            },
            {
              "pitch": 67,
              "velocity": 45,
              "position": 6.283333,
              "duration": 0.966667
            },
            {
              "pitch": 55,
              "velocity": 21,
              "position": 8.0,
              "duration": 1.0
            },
            {
              "pitch": 64,
              "velocity": 42,
              "position": 8.0,
              "duration": 1.0
            },
            {
              "pitch": 59,
              "velocity": 50,
              "position": 8.016667,
              "duration": 0.983333
            },
            {
              "pitch": 48,
              "velocity": 44,
              "position": 9.0,
              "duration": 2.0
            },
            {
              "pitch": 55,
              "velocity": 32,
              "position": 9.508333,
              "duration": 1.491667
            },
            {
              "pitch": 59,
              "velocity": 54,
              "position": 10.008333,
              "duration": 0.991667
            },
            {
              "pitch": 67,
              "velocity": 37,
              "position": 10.025,
              "duration": 0.975
            },
            {
              "pitch": 64,
              "velocity": 60,
              "position": 10.041667,
              "duration": 0.958333
            },
            {
              "pitch": 55,
              "velocity": 21,
              "position": 11.0,
              "duration": 1.0
            },
            {
              "pitch": 64,
              "velocity": 42,
              "position": 11.0,
              "duration": 1.0
            },
            {
              "pitch": 59,
              "velocity": 50,
              "position": 11.016667,
              "duration": 0.983333
            },
            {
              "pitch": 36,
              "velocity": 46,
              "position": 12.016667,
              "duration": 2.233333
            },
            {
              "pitch": 43,
              "velocity": 37,
              "position": 12.55,
              "duration": 1.725
            },
            {
              "pitch": 64,
              "velocity": 45,
              "position": 13.041667,
              "duration": 1.316667
            },
            {
              "pitch": 59,
              "velocity": 42,
              "position": 13.058333,
              "duration": 1.075
            },
            {
              "pitch": 55,
              "velocity": 33,
              "position": 13.075,
              "duration": 1.075
            },
            {
              "pitch": 48,
              "velocity": 28,
              "position": 14.116667,
              "duration": 0.666667
            },
            {
              "pitch": 55,
              "velocity": 60,
              "position": 14.583333,
              "duration": 0.316667
            },
            {
              "pitch": 36,
              "velocity": 50,
              "position": 15.041667,
              "duration": 2.45
            },
            {
              "pitch": 43,
              "velocity": 55,
              "position": 15.466667,
              "duration": 2.075
            },
            {
              "pitch": 48,
              "velocity": 17,
              "position": 15.975,
              "duration": 1.566667
            },
            {
              "pitch": 55,
              "velocity": 36,
              "position": 16.008333,
              "duration": 0.425
            },
            {
              "pitch": 59,
              "velocity": 49,
              "position": 16.033333,
              "duration": 0.4
            },
            {
              "pitch": 64,
              "velocity": 41,
              "position": 16.033333,
              "duration": 0.45
            },
            {
              "pitch": 55,
              "velocity": 32,
              "position": 17.016667,
              "duration": 0.383333
            },
            {
              "pitch": 64,
              "velocity": 48,
              "position": 17.016667,
              "duration": 0.4
            },
            {
              "pitch": 59,
              "velocity": 38,
              "position": 17.033333,
              "duration": 0.316667
            }
          ]
        },
        "12": {
          "ctab": {
            "srcChannel": 12,
            "name": "Guitar",
            "accType": "CHORD2",
            "editable": true,
            "mutedNotes": [],
            "mutedChords": [],
            "sourceChordNote": 0,
            "sourceChordType": "Maj7",
            "ctb2Main": {
              "ntr": "ROOT_FIXED",
              "ntt": "CHORD",
              "bassOn": false,
              "noteLowLimit": 40,
              "noteHighLimit": 76,
              "chordRootUpperLimit": 127,
              "rtr": "NOTE_GENERATOR"
            }
          },
          "notes": [
            {
              "pitch": 48,
              "velocity": 51,
              "position": 6.0,
              "duration": 1.958333
            },
            {
              "pitch": 64,
              "velocity": 60,
              "position": 6.5,
              "duration": 1.458333
            },
            {
              "pitch": 59,
              "velocity": 60,
              "position": 7.0,
              "duration": 0.958333
            },
            {
              "pitch": 52,
              "velocity": 60,
              "position": 7.5,
              "duration": 0.458333
            },
            {
              "pitch": 59,
              "velocity": 61,
              "position": 8.0,
              "duration": 0.866667
            },
            {
              "pitch": 55,
              "velocity": 60,
              "position": 8.5,
              "duration": 0.358333
            },
            {
              "pitch": 64,
              "velocity": 61,
              "position": 9.0,
              "duration": 1.958333
            },
            {
              "pitch": 52,
              "velocity": 60,
              "position": 9.5,
              "duration": 1.458333
            },
            {
              "pitch": 55,
              "velocity": 60,
              "position": 10.0,
              "duration": 0.783333
            },
            {
              "pitch": 59,
              "velocity": 71,
              "position": 10.5,
              "duration": 0.458333
            },
            {
              "pitch": 59,
              "velocity": 61,
              "position": 11.0,
              "duration": 0.866667
            },
            {
              "pitch": 55,
              "velocity": 60,
              "position": 11.5,
              "duration": 0.358333
            },
            {
              "pitch": 48,
              "velocity": 51,
              "position": 12.0,
              "duration": 2.033333
            },
            {
              "pitch": 64,
              "velocity": 60,
              "position": 12.5,
              "duration": 2.258333
            },
            {
              "pitch": 59,
              "velocity": 60,
              "position": 13.0,
              "duration": 1.291667
            },
            {
              "pitch": 52,
              "velocity": 60,
              "position": 13.5,
              "duration": 1.483333
            },
            {
              "pitch": 55,
              "velocity": 60,
              "position": 14.0,
              "duration": 0.9
            },
            {
              "pitch": 59,
              "velocity": 60,
              "position": 14.5,
              "duration": 1.05
            },
            {
              "pitch": 48,
              "velocity": 51,
              "position": 15.0,
              "duration": 1.591667
            },
            {
              "pitch": 64,
              "velocity": 60,
              "position": 15.5,
              "duration": 1.358333
            },
            {
              "pitch": 59,
              "velocity": 60,
              "position": 16.0,
              "duration": 0.908333
            },
            {
              "pitch": 52,
              "velocity": 60,
              "position": 16.5,
              "duration": 0.833333
            },
            {
              "pitch": 59,
              "velocity": 60,
              "position": 17.0,
              "duration": 0.933333
            },
            {
              "pitch": 55,
              "velocity": 60,
              "position": 17.5,
              "duration": 0.458333
            }
          ]
        },
        "13": {
          "ctab": {
            "srcChannel": 13,
            "name": "Strings",
            "accType": "PAD",
            "editable": true,
            "mutedNotes": [],
            "mutedChords": [],
            "sourceChordNote": 0,
            "sourceChordType": "Maj7",
            "ctb2Main": {
              "ntr": "ROOT_FIXED",
              "ntt": "MELODY",
              "bassOn": false,
              "noteLowLimit": 36,
              "noteHighLimit": 96,
              "chordRootUpperLimit": 127,
              "rtr": "PITCH_SHIFT"
            }
          },
          "notes": [
            {
              "pitch": 55,
              "velocity": 40,
              "position": 6.0,
              "duration": 11.958333
            }
          ]
        }
      }
    },
    "Main_A": {
      "type": "Main_A",
      "sizeInBeats": 12,
      "channels": {
        "9": {
          "ctab": {
            "srcChannel": 9,
            "name": "Drums",
            "accType": "RHYTHM",
            "editable": false,
            "mutedNotes": [],
            "mutedChords": [],
            "sourceChordNote": 0,
            "sourceChordType": "Maj",
            "ctb2Main": {
              "ntr": "ROOT_FIXED",
              "ntt": "BYPASS",
              "bassOn": false,
              "noteLowLimit": 20,
              "noteHighLimit": 127,
              "chordRootUpperLimit": 127,
              "rtr": "RETRIGGER"
            }
          },
          "notes": [
            {
              "pitch": 35,
              "velocity": 50,
              "position": 0.0,
              "duration": 0.208333
            },
            {
              "pitch": 51,
              "velocity": 40,
              "position": 0.0,
              "duration": 0.208333
            },
            {
              "pitch": 69,
              "velocity": 40,
              "position": 0.0,
              "duration": 0.208333
            },
            {
              "pitch": 69,
              "velocity": 30,
              "position": 0.5,
              "duration": 0.208333
            },
            {
              "pitch": 37,
              "velocity": 50,
              "position": 1.0,
              "duration": 0.208333
            },
            {
              "pitch": 51,
              "velocity": 40,
              "position": 1.0,
              "duration": 0.208333
            },
            {
              "pitch": 69,
              "velocity": 40,
              "position": 1.0,
              "duration": 0.208333
            },
            {
              "pitch": 69,
              "velocity": 30,
              "position": 1.5,
              "duration": 0.208333
            },
            {
              "pitch": 37,
              "velocity": 50,
              "position": 2.0,
              "duration": 0.208333
            },
            {
              "pitch": 51,
              "velocity": 50,
              "position": 2.0,
              "duration": 0.208333
            },
            {
              "pitch": 69,
              "velocity": 40,
              "position": 2.0,
              "duration": 0.208333
            },
            {
              "pitch": 51,
              "velocity": 40,
              "position": 2.5,
              "duration": 0.208333
            },
            {
              "pitch": 69,
              "velocity": 30,
              "position": 2.5,
              "duration": 0.208333
            },
            {
              "pitch": 35,
              "velocity": 50,
              "position": 3.0,
              "duration": 0.208333
            },
            {
              "pitch": 51,
              "velocity": 40,
              "position": 3.0,
              "duration": 0.208333
            },
            {
              "pitch": 69,
              "velocity": 40,
              "position": 3.0,
              "duration": 0.208333
            },
            {
              "pitch": 69,
              "velocity": 30,
              "position": 3.5,
              "duration": 0.208333
            },
            {
              "pitch": 37,
              "velocity": 50,
              "position": 4.0,
              "duration": 0.208333
            },
            {
              "pitch": 51,
              "velocity": 40,
              "position": 4.0,
              "duration": 0.208333
            },
            {
              "pitch": 69,
              "velocity": 40,
              "position": 4.0,
              "duration": 0.208333
            },
            {
              "pitch": 69,
              "velocity": 30,
              "position": 4.5,
              "duration": 0.208333
            },
            {
              "pitch": 37,
              "velocity": 50,
              "position": 5.0,
              "duration": 0.208333
            },
            {
              "pitch": 51,
              "velocity": 50,
              "position": 5.0,
              "duration": 0.208333
            },
            {
              "pitch": 69,
              "velocity": 40,
              "position": 5.0,
              "duration": 0.208333
            },
            {
              "pitch": 51,
              "velocity": 40,
              "position": 5.5,
              "duration": 0.208333
            },
            {
              "pitch": 69,
              "velocity": 30,
              "position": 5.5,
              "duration": 0.208333
            },
            {
              "pitch": 35,
              "velocity": 50,
              "position": 6.0,
              "duration": 0.208333
            },
            {
              "pitch": 51,
              "velocity": 40,
              "position": 6.0,
              "duration": 0.208333
            },
            {
              "pitch": 69,
              "velocity": 40,
              "position": 6.0,
              "duration": 0.208333
            },
            {
              "pitch": 69,
              "velocity": 20,
              "position": 6.25,
              "duration": 0.208333
            },
            {
              "pitch": 69,
              "velocity": 30,
              "position": 6.5,
              "duration": 0.208333
            },
            {
              "pitch": 37,
              "velocity": 40,
              "position": 7.0,
              "duration": 0.208333
            },
            {
              "pitch": 51,
              "velocity": 40,
              "position": 7.0,
              "duration": 0.208333
            },
            {
              "pitch": 69,
              "velocity": 40,
              "position": 7.0,
              "duration": 0.208333
            },
            {
              "pitch": 69,
              "velocity": 30,
              "position": 7.5,
              "duration": 0.208333
            },
            {
              "pitch": 37,
              "velocity": 50,
              "position": 8.0,
              "duration": 0.208333
            },
            {
              "pitch": 51,
              "velocity": 50,
              "position": 8.0,
              "duration": 0.208333
            },
            {
              "pitch": 69,
              "velocity": 40,
              "position": 8.0,
              "duration": 0.208333
            },
            {
              "pitch": 51,
              "velocity": 40,
              "position": 8.5,
              "duration": 0.208333
            },
            {
              "pitch": 69,
              "velocity": 30,
              "position": 8.5,
              "duration": 0.208333
            },
            {
              "pitch": 35,
              "velocity": 50,
              "position": 9.0,
              "duration": 0.208333
            },
            {
              "pitch": 69,
              "velocity": 40,
              "position": 9.0,
              "duration": 0.208333
            },
            {
              "pitch": 69,
              "velocity": 30,
              "position": 9.5,
              "duration": 0.208333
            },
            {
              "pitch": 37,
              "velocity": 50,
              "position": 10.0,
              "duration": 0.208333
            },
            {
              "pitch": 69,
              "velocity": 40,
              "position": 10.0,
              "duration": 0.208333
            },
            {
              "pitch": 69,
              "velocity": 30,
              "position": 10.5,
              "duration": 0.208333
            },
            {
              "pitch": 37,
              "velocity": 50,
              "position": 11.0,
              "duration": 0.208333
            },
            {
              "pitch": 69,
              "velocity": 40,
              "position": 11.0,
              "duration": 0.208333
            },
            {
              "pitch": 38,
              "velocity": 40,
              "position": 11.5,
              "duration": 0.208333
            },
            {
              "pitch": 69,
              "velocity": 30,
              "position": 11.5,
              "duration": 0.208333
            }
          ]
        },
        "10": {
          "ctab": {
            "srcChannel": 10,
            "name": "Bass",
            "accType": "BASS",
            "editable": true,
            "mutedNotes": [],
            "mutedChords": [],
            "sourceChordNote": 0,
            "sourceChordType": "Maj7",
            "ctb2Main": {
              "ntr": "ROOT_TRANSPOSITION",
              "ntt": "BYPASS",
              "bassOn": true,
              "noteLowLimit": 20,
              "noteHighLimit": 60,
              "chordRootUpperLimit": 127,
              "rtr": "NOTE_GENERATOR"
            }
          },
          "notes": [
            {
              "pitch": 36,
              "velocity": 67,
              "position": 0.0,
              "duration": 1.958333
            },
            {
              "pitch": 36,
              "velocity": 67,
              "position": 2.0,
              "duration": 0.958333
            },
            {
              "pitch": 36,
              "velocity": 67,
              "position": 3.0,
              "duration": 1.958333
            },
            {
              "pitch": 36,
              "velocity": 67,
              "position": 5.0,
              "duration": 0.958333
            },
            {
              "pitch": 36,
              "velocity": 65,
              "position": 6.0,
              "duration": 2.516667
            },
            {
              "pitch": 31,
              "velocity": 59,
              "position": 8.516667,
              "duration": 0.483333
            },
            {
              "pitch": 36,
              "velocity": 65,
              "position": 9.0,
              "duration": 1.816667
            },
            {
              "pitch": 31,
              "velocity": 80,
              "position": 11.008333,
              "duration": 0.85
            }
          ]
        },
        "11": {
          "ctab": {
            "srcChannel": 11,
            "name": "Piano",
            "accType": "CHORD1",
            "editable": true,
            "mutedNotes": [],
            "mutedChords": [],
            "sourceChordNote": 0,
            "sourceChordType": "Maj7",
            "ctb2Main": {
              "ntr": "ROOT_FIXED",
              "ntt": "CHORD",
              "bassOn": false,
              "noteLowLimit": 48,
              "noteHighLimit": 84,
              "chordRootUpperLimit": 127,
              "rtr": "NOTE_GENERATOR"
            }
          },
          "notes": [
            {
              "pitch": 48,
              "velocity": 37,
              "position": 0.0,
              "duration": 1.516667
            },
            {
              "pitch": 55,
              "velocity": 44,
              "position": 0.0,
              "duration": 1.55
            },
            {
              "pitch": 59,
              "velocity": 67,
              "position": 0.016667,
              "duration": 1.216667
            },
            {
              "pitch": 64,
              "velocity": 57,
              "position": 0.191667,
              "duration": 1.041667
            },
            {
              "pitch": 67,
              "velocity": 51,
              "position": 0.283333,
              "duration": 0.966667
            },
            {
              "pitch": 55,
              "velocity": 35,
              "position": 2.0,
              "duration": 1.0
            },
            {
              "pitch": 64,
              "velocity": 56,
              "position": 2.0,
              "duration": 1.0
            },
            {
              "pitch": 59,
              "velocity": 64,
              "position": 2.016667,
              "duration": 0.983333
            },
            {
              "pitch": 48,
              "velocity": 50,
              "position": 3.0,
              "duration": 2.0
            },
            {
              "pitch": 55,
              "velocity": 38,
              "position": 3.508333,
              "duration": 1.491667
            },
            {
              "pitch": 59,
              "velocity": 60,
              "position": 4.008333,
              "duration": 0.991667
            },
            {
              "pitch": 67,
              "velocity": 43,
              "position": 4.025,
              "duration": 0.975
            },
            {
              "pitch": 64,
              "velocity": 66,
              "position": 4.041667,
              "duration": 0.958333
            },
            {
              "pitch": 55,
              "velocity": 35,
              "position": 5.0,
              "duration": 1.0
            },
            {
              "pitch": 64,
              "velocity": 56,
              "position": 5.0,
              "duration": 1.0
            },
            {
              "pitch": 59,
              "velocity": 64,
              "position": 5.016667,
              "duration": 0.983333
            },
            {
              "pitch": 48,
              "velocity": 52,
              "position": 6.041667,
              "duration": 1.366667
            },
            {
              "pitch": 55,
              "velocity": 62,
              "position": 6.55,
              "duration": 0.825
            },
            {
              "pitch": 59,
              "velocity": 44,
              "position": 7.041667,
              "duration": 1.233333
            },
            {
              "pitch": 64,
              "velocity": 61,
              "position": 7.041667,
              "duration": 1.141667
            },
            {
              "pitch": 67,
              "velocity": 44,
              "position": 7.058333,
              "duration": 1.216667
            },
            {
              "pitch": 43,
              "velocity": 77,
              "position": 8.516667,
              "duration": 0.458333
            },
            {
              "pitch": 36,
              "velocity": 57,
              "position": 9.016667,
              "duration": 2.741667
            },
            {
              "pitch": 43,
              "velocity": 55,
              "position": 9.525,
              "duration": 2.3
            },
            {
              "pitch": 64,
              "velocity": 40,
              "position": 10.016667,
              "duration": 0.75
            },
            {
              "pitch": 55,
              "velocity": 37,
              "position": 10.033333,
              "duration": 0.758333
            },
            {
              "pitch": 59,
              "velocity": 64,
              "position": 10.033333,
              "duration": 0.7
            },
            {
              "pitch": 64,
              "velocity": 48,
              "position": 11.066667,
              "duration": 0.666667
            },
            {
              "pitch": 55,
              "velocity": 36,
              "position": 11.083333,
              "duration": 0.616667
            },
            {
              "pitch": 59,
              "velocity": 50,
              "position": 11.083333,
              "duration": 0.516667
            }
          ]
        },
        "12": {
          "ctab": {
            "srcChannel": 12,
            "name": "Guitar",
            "accType": "CHORD2",
            "editable": true,
            "mutedNotes": [],
            "mutedChords": [],
            "sourceChordNote": 0,
            "sourceChordType": "Maj7",
            "ctb2Main": {
              "ntr": "ROOT_FIXED",
              "ntt": "CHORD",
              "bassOn": false,
              "noteLowLimit": 40,
              "noteHighLimit": 76,
              "chordRootUpperLimit": 127,
              "rtr": "NOTE_GENERATOR"
            }
          },
          "notes": [
            {
              "pitch": 48,
              "velocity": 56,
              "position": 0.0,
              "duration": 1.958333
            },
            {
              "pitch": 64,
              "velocity": 67,
              "position": 0.5,
              "duration": 1.458333
            },
            {
              "pitch": 59,
              "velocity": 67,
              "position": 1.0,
              "duration": 0.958333
            },
            {
              "pitch": 52,
              "velocity": 67,
              "position": 1.5,
              "duration": 0.458333
            },
            {
              "pitch": 59,
              "velocity": 68,
              "position": 2.0,
              "duration": 0.866667
            },
            {
              "pitch": 55,
              "velocity": 67,
              "position": 2.5,
              "duration": 0.358333
            },
            {
              "pitch": 48,
              "velocity": 56,
              "position": 3.0,
              "duration": 0.633333
            },
            {
              "pitch": 52,
              "velocity": 67,
              "position": 3.5,
              "duration": 0.758333
            },
            {
              "pitch": 59,
              "velocity": 67,
              "position": 4.0,
              "duration": 0.491667
            },
            {
              "pitch": 52,
              "velocity": 67,
              "position": 4.5,
              "duration": 0.458333
            },
            {
              "pitch": 59,
              "velocity": 68,
              "position": 5.0,
              "duration": 0.866667
            },
            {
              "pitch": 55,
              "velocity": 67,
              "position": 5.5,
              "duration": 0.358333
            },
            {
              "pitch": 48,
              "velocity": 56,
              "position": 6.0,
              "duration": 2.033333
            },
            {
              "pitch": 64,
              "velocity": 67,
              "position": 6.5,
              "duration": 2.258333
            },
            {
              "pitch": 59,
              "velocity": 67,
              "position": 7.0,
              "duration": 1.291667
            },
            {
              "pitch": 52,
              "velocity": 67,
              "position": 7.5,
              "duration": 1.483333
            },
            {
              "pitch": 55,
              "velocity": 67,
              "position": 8.0,
              "duration": 0.9
            },
            {
              "pitch": 59,
              "velocity": 67,
              "position": 8.5,
              "duration": 1.05
            },
            {
              "pitch": 48,
              "velocity": 56,
              "position": 9.0,
              "duration": 1.591667
            },
            {
              "pitch": 64,
              "velocity": 67,
              "position": 9.5,
              "duration": 1.358333
            },
            {
              "pitch": 59,
              "velocity": 67,
              "position": 10.0,
              "duration": 0.908333
            },
            {
              "pitch": 52,
              "velocity": 67,
              "position": 10.5,
              "duration": 0.833333
            },
            {
              "pitch": 59,
              "velocity": 67,
              "position": 11.0,
              "duration": 0.933333
            },
            {
              "pitch": 55,
              "velocity": 67,
              "position": 11.5,
              "duration": 0.458333
            }
          ]
        },
        "13": {
          "ctab": {
            "srcChannel": 13,
            "name": "Strings",
            "accType": "PAD",
            "editable": true,
            "mutedNotes": [],
            "mutedChords": [],
            "sourceChordNote": 0,
            "sourceChordType": "Maj7",
            "ctb2Main": {
              "ntr": "ROOT_FIXED",
              "ntt": "MELODY",
              "bassOn": false,
              "noteLowLimit": 36,
              "noteHighLimit": 96,
              "chordRootUpperLimit": 127,
              "rtr": "PITCH_SHIFT"
            }
          },
          "notes": [
            {
              "pitch": 64,
              "velocity": 33,
              "position": 0.0,
              "duration": 71.85
            },
            {
              "pitch": 71,
              "velocity": 33,
              "position": 0.0,
              "duration": 11.833333
            }
          ]
        }
      }
    },
    "Main_B": {
      "type": "Main_B",
      "sizeInBeats": 12,
      "channels": {
        "9": {
          "ctab": {
            "srcChannel": 9,
            "name": "Drums",
            "accType": "RHYTHM",
            "editable": false,
            "mutedNotes": [],
            "mutedChords": [],
            "sourceChordNote": 0,
            "sourceChordType": "Maj",
            "ctb2Main": {
              "ntr": "ROOT_FIXED",
              "ntt": "BYPASS",
              "bassOn": false,
              "noteLowLimit": 20,
              "noteHighLimit": 127,
              "chordRootUpperLimit": 127,
              "rtr": "RETRIGGER"
            }
          },
          "notes": [
            {
              "pitch": 35,
              "velocity": 40,
              "position": 0.0,
              "duration": 0.208333
            },
            {
              "pitch": 51,
              "velocity": 40,
              "position": 0.0,
              "duration": 0.208333
            },
            {
              "pitch": 69,
              "velocity": 40,
              "position": 0.0,
              "duration": 0.208333
            },
            {
              "pitch": 69,
              "velocity": 30,
              "position": 0.5,
              "duration": 0.208333
            },
            {
              "pitch": 37,
              "velocity": 50,
              "position": 1.0,
              "duration": 0.208333
            },
            {
              "pitch": 51,
              "velocity": 40,
              "position": 1.0,
              "duration": 0.208333
            },
            {
              "pitch": 69,
              "velocity": 40,
              "position": 1.0,
              "duration": 0.208333
            },
            {
              "pitch": 69,
              "velocity": 22,
              "position": 1.25,
              "duration": 0.208333
            },
            {
              "pitch": 69,
              "velocity": 30,
              "position": 1.5,
              "duration": 0.208333
            },
            {
              "pitch": 37,
              "velocity": 40,
              "position": 2.0,
              "duration": 0.208333
            },
            {
              "pitch": 51,
              "velocity": 50,
              "position": 2.0,
              "duration": 0.208333
            },
            {
              "pitch": 69,
              "velocity": 40,
              "position": 2.0,
              "duration": 0.208333
            },
            {
              "pitch": 51,
              "velocity": 40,
              "position": 2.5,
              "duration": 0.208333
            },
            {
              "pitch": 69,
              "velocity": 30,
              "position": 2.5,
              "duration": 0.208333
            },
            {
              "pitch": 35,
              "velocity": 50,
              "position": 3.0,
              "duration": 0.208333
            },
            {
              "pitch": 51,
              "velocity": 40,
              "position": 3.0,
              "duration": 0.208333
            },
            {
              "pitch": 69,
              "velocity": 40,
              "position": 3.0,
              "duration": 0.208333
            },
            {
              "pitch": 69,
              "velocity": 30,
              "position": 3.5,
              "duration": 0.208333
            },
            {
              "pitch": 37,
              "velocity": 50,
              "position": 4.0,
              "duration": 0.208333
            },
            {
              "pitch": 51,
              "velocity": 40,
              "position": 4.0,
              "duration": 0.208333
            },
            {
              "pitch": 69,
              "velocity": 40,
              "position": 4.0,
              "duration": 0.208333
            },
            {
              "pitch": 69,
              "velocity": 30,
              "position": 4.5,
              "duration": 0.208333
            },
            {
              "pitch": 37,
              "velocity": 50,
              "position": 5.0,
              "duration": 0.208333
            },
            {
              "pitch": 51,
              "velocity": 50,
              "position": 5.0,
              "duration": 0.208333
            },
            {
              "pitch": 69,
              "velocity": 40,
              "position": 5.0,
              "duration": 0.208333
            },
            {
              "pitch": 51,
              "velocity": 40,
              "position": 5.5,
              "duration": 0.208333
            },
            {
              "pitch": 69,
              "velocity": 30,
              "position": 5.5,
              "duration": 0.208333
            },
            {
              "pitch": 35,
              "velocity": 50,
              "position": 6.0,
              "duration": 0.208333
            },
            {
              "pitch": 51,
              "velocity": 40,
              "position": 6.0,
              "duration": 0.208333
            },
            {
              "pitch": 69,
              "velocity": 40,
              "position": 6.0,
              "duration": 0.208333
            },
            {
              "pitch": 69,
              "velocity": 20,
              "position": 6.25,
              "duration": 0.208333
            },
            {
              "pitch": 69,
              "velocity": 30,
              "position": 6.5,
              "duration": 0.208333
            },
            {
              "pitch": 37,
              "velocity": 40,
              "position": 7.0,
              "duration": 0.208333
            },
            {
              "pitch": 51,
              "velocity": 40,
              "position": 7.0,
              "duration": 0.208333
            },
            {
              "pitch": 69,
              "velocity": 40,
              "position": 7.0,
              "duration": 0.208333
            },
            {
              "pitch": 69,
              "velocity": 30,
              "position": 7.5,
              "duration": 0.208333
            },
            {
              "pitch": 37,
              "velocity": 50,
              "position": 8.0,
              "duration": 0.208333
            },
            {
              "pitch": 51,
              "velocity": 50,
              "position": 8.0,
              "duration": 0.208333
            },
            {
              "pitch": 69,
              "velocity": 40,
              "position": 8.0,
              "duration": 0.208333
            },
            {
              "pitch": 51,
              "velocity": 40,
              "position": 8.5,
              "duration": 0.208333
            },
            {
              "pitch": 69,
              "velocity": 30,
              "position": 8.5,
              "duration": 0.208333
            },
            {
              "pitch": 35,
              "velocity": 50,
              "position": 9.0,
              "duration": 0.208333
            },
            {
              "pitch": 69,
              "velocity": 40,
              "position": 9.0,
              "duration": 0.208333
            },
            {
              "pitch": 69,
              "velocity": 30,
              "position": 9.5,
              "duration": 0.208333
            },
            {
              "pitch": 37,
              "velocity": 50,
              "position": 10.0,
              "duration": 0.208333
            },
            {
              "pitch": 69,
              "velocity": 40,
              "position": 10.0,
              "duration": 0.208333
            },
            {
              "pitch": 69,
              "velocity": 30,
              "position": 10.5,
              "duration": 0.208333
            },
            {
              "pitch": 37,
              "velocity": 50,
              "position": 11.0,
              "duration": 0.208333
            },
            {
              "pitch": 69,
              "velocity": 40,
              "position": 11.0,
              "duration": 0.208333
            },
            {
              "pitch": 38,
              "velocity": 40,
              "position": 11.5,
              "duration": 0.208333
            },
            {
              "pitch": 69,
              "velocity": 30,
              "position": 11.5,
              "duration": 0.208333
            }
          ]
        },
        "10": {
          "ctab": {
            "srcChannel": 10,
            "name": "Bass",
            "accType": "BASS",
            "editable": true,
            "mutedNotes": [],
            "mutedChords": [],
            "sourceChordNote": 0,
            "sourceChordType": "Maj7",
            "ctb2Main": {
              "ntr": "ROOT_TRANSPOSITION",
              "ntt": "BYPASS",
              "bassOn": true,
              "noteLowLimit": 20,
              "noteHighLimit": 60,
              "chordRootUpperLimit": 127,
              "rtr": "NOTE_GENERATOR"
            }
          },
          "notes": [
            {
              "pitch": 36,
              "velocity": 67,
              "position": 0.0,
              "duration": 1.958333
            },
            {
              "pitch": 36,
              "velocity": 67,
              "position": 2.0,
              "duration": 0.958333
            },
            {
              "pitch": 36,
              "velocity": 67,
              "position": 3.0,
              "duration": 1.958333
            },
            {
              "pitch": 36,
              "velocity": 67,
              "position": 5.0,
              "duration": 0.958333
            },
            {
              "pitch": 36,
              "velocity": 65,
              "position": 6.0,
              "duration": 2.516667
            },
            {
              "pitch": 31,
              "velocity": 59,
              "position": 8.516667,
              "duration": 0.483333
            },
            {
              "pitch": 36,
              "velocity": 65,
              "position": 9.0,
              "duration": 1.816667
            },
            {
              "pitch": 31,
              "velocity": 80,
              "position": 11.008333,
              "duration": 0.85
            }
          ]
        },
        "11": {
          "ctab": {
            "srcChannel": 11,
            "name": "Piano",
            "accType": "CHORD1",
            "editable": true,
            "mutedNotes": [],
            "mutedChords": [],
            "sourceChordNote": 0,
            "sourceChordType": "Maj7",
            "ctb2Main": {
              "ntr": "ROOT_FIXED",
              "ntt": "CHORD",
              "bassOn": false,
              "noteLowLimit": 48,
              "noteHighLimit": 84,
              "chordRootUpperLimit": 127,
              "rtr": "NOTE_GENERATOR"
            }
          },
          "notes": [
            {
              "pitch": 48,
              "velocity": 50,
              "position": 0.0,
              "duration": 2.0
            },
            {
              "pitch": 55,
              "velocity": 38,
              "position": 0.508333,
              "duration": 1.491667
            },
            {
              "pitch": 59,
              "velocity": 60,
              "position": 1.008333,
              "duration": 0.991667
            },
            {
              "pitch": 67,
              "velocity": 43,
              "position": 1.025,
              "duration": 0.975
            },
            {
              "pitch": 64,
              "velocity": 66,
              "position": 1.041667,
              "duration": 0.958333
            },
            {
              "pitch": 55,
              "velocity": 35,
              "position": 2.0,
              "duration": 1.0
            },
            {
              "pitch": 64,
              "velocity": 56,
              "position": 2.0,
              "duration": 1.0
            },
            {
              "pitch": 59,
              "velocity": 64,
              "position": 2.016667,
              "duration": 0.983333
            },
            {
              "pitch": 48,
              "velocity": 37,
              "position": 3.0,
              "duration": 1.516667
            },
            {
              "pitch": 55,
              "velocity": 44,
              "position": 3.0,
              "duration": 1.55
            },
            {
              "pitch": 59,
              "velocity": 67,
              "position": 3.016667,
              "duration": 1.216667
            },
            {
              "pitch": 64,
              "velocity": 57,
              "position": 3.191667,
              "duration": 1.041667
            },
            {
              "pitch": 67,
              "velocity": 51,
              "position": 3.283333,
              "duration": 0.966667
            },
            {
              "pitch": 55,
              "velocity": 35,
              "position": 5.0,
              "duration": 1.0
            },
            {
              "pitch": 64,
              "velocity": 56,
              "position": 5.0,
              "duration": 1.0
            },
            {
              "pitch": 59,
              "velocity": 64,
              "position": 5.016667,
              "duration": 0.983333
            },
            {
              "pitch": 36,
              "velocity": 56,
              "position": 6.016667,
              "duration": 2.233333
            },
            {
              "pitch": 43,
              "velocity": 47,
              "position": 6.55,
              "duration": 1.725
            },
            {
              "pitch": 64,
              "velocity": 55,
              "position": 7.041667,
              "duration": 1.316667
            },
            {
              "pitch": 59,
              "velocity": 52,
              "position": 7.058333,
              "duration": 1.075
            },
            {
              "pitch": 55,
              "velocity": 43,
              "position": 7.075,
              "duration": 1.075
            },
            {
              "pitch": 48,
              "velocity": 38,
              "position": 8.116667,
              "duration": 0.666667
            },
            {
              "pitch": 55,
              "velocity": 70,
              "position": 8.583333,
              "duration": 0.316667
            },
            {
              "pitch": 36,
              "velocity": 60,
              "position": 9.041667,
              "duration": 2.45
            },
            {
              "pitch": 43,
              "velocity": 65,
              "position": 9.466667,
              "duration": 2.075
            },
            {
              "pitch": 48,
              "velocity": 27,
              "position": 9.975,
              "duration": 1.566667
            },
            {
              "pitch": 55,
              "velocity": 46,
              "position": 10.008333,
              "duration": 0.425
            },
            {
              "pitch": 59,
              "velocity": 59,
              "position": 10.033333,
              "duration": 0.4
            },
            {
              "pitch": 64,
              "velocity": 51,
              "position": 10.033333,
              "duration": 0.45
            },
            {
              "pitch": 55,
              "velocity": 42,
              "position": 11.016667,
              "duration": 0.383333
            },
            {
              "pitch": 64,
              "velocity": 58,
              "position": 11.016667,
              "duration": 0.4
            },
            {
              "pitch": 59,
              "velocity": 48,
              "position": 11.033333,
              "duration": 0.316667
            }
          ]
        },
        "12": {
          "ctab": {
            "srcChannel": 12,
            "name": "Guitar",
            "accType": "CHORD2",
            "editable": true,
            "mutedNotes": [],
            "mutedChords": [],
            "sourceChordNote": 0,
            "sourceChordType": "Maj7",
            "ctb2Main": {
              "ntr": "ROOT_FIXED",
              "ntt": "CHORD",
              "bassOn": false,
              "noteLowLimit": 40,
              "noteHighLimit": 76,
              "chordRootUpperLimit": 127,
              "rtr": "NOTE_GENERATOR"
            }
          },
          "notes": [
            {
              "pitch": 48,
              "velocity": 56,
              "position": 0.0,
              "duration": 1.958333
            },
            {
              "pitch": 52,
              "velocity": 67,
              "position": 0.5,
              "duration": 1.458333
            },
            {
              "pitch": 55,
              "velocity": 67,
              "position": 1.0,
              "duration": 0.783333
            },
            {
              "pitch": 59,
              "velocity": 67,
              "position": 1.5,
              "duration": 0.458333
            },
            {
              "pitch": 59,
              "velocity": 68,
              "position": 2.0,
              "duration": 0.866667
            },
            {
              "pitch": 55,
              "velocity": 67,
              "position": 2.5,
              "duration": 0.358333
            },
            {
              "pitch": 64,
              "velocity": 65,
              "position": 3.0,
              "duration": 1.958333
            },
            {
              "pitch": 52,
              "velocity": 64,
              "position": 3.5,
              "duration": 1.458333
            },
            {
              "pitch": 55,
              "velocity": 64,
              "position": 4.0,
              "duration": 0.783333
            },
            {
              "pitch": 59,
              "velocity": 75,
              "position": 4.5,
              "duration": 0.458333
            },
            {
              "pitch": 59,
              "velocity": 68,
              "position": 5.0,
              "duration": 0.866667
            },
            {
              "pitch": 55,
              "velocity": 67,
              "position": 5.5,
              "duration": 0.358333
            },
            {
              "pitch": 48,
              "velocity": 56,
              "position": 6.0,
              "duration": 2.033333
            },
            {
              "pitch": 64,
              "velocity": 67,
              "position": 6.5,
              "duration": 2.258333
            },
            {
              "pitch": 59,
              "velocity": 67,
              "position": 7.0,
              "duration": 1.291667
            },
            {
              "pitch": 52,
              "velocity": 67,
              "position": 7.5,
              "duration": 1.483333
            },
            {
              "pitch": 55,
              "velocity": 67,
              "position": 8.0,
              "duration": 0.9
            },
            {
              "pitch": 59,
              "velocity": 67,
              "position": 8.5,
              "duration": 1.05
            },
            {
              "pitch": 48,
              "velocity": 56,
              "position": 9.0,
              "duration": 1.591667
            },
            {
              "pitch": 64,
              "velocity": 67,
              "position": 9.5,
              "duration": 1.358333
            },
            {
              "pitch": 59,
              "velocity": 67,
              "position": 10.0,
              "duration": 0.908333
            },
            {
              "pitch": 52,
              "velocity": 67,
              "position": 10.5,
              "duration": 0.833333
            },
            {
              "pitch": 59,
              "velocity": 67,
              "position": 11.0,
              "duration": 0.933333
            },
            {
              "pitch": 55,
              "velocity": 67,
              "position": 11.5,
              "duration": 0.458333
            }
          ]
        },
        "13": {
          "ctab": {
            "srcChannel": 13,
            "name": "Strings",
            "accType": "PAD",
            "editable": true,
            "mutedNotes": [],
            "mutedChords": [],
            "sourceChordNote": 0,
            "sourceChordType": "Maj7",
            "ctb2Main": {
              "ntr": "ROOT_FIXED",
              "ntt": "MELODY",
              "bassOn": false,
              "noteLowLimit": 36,
              "noteHighLimit": 96,
              "chordRootUpperLimit": 127,
              "rtr": "PITCH_SHIFT"
            }
          },
          "notes": [
            {
              "pitch": 71,
              "velocity": 33,
              "position": 0.0,
              "duration": 11.833333
            }
          ]
        }
      }
    },
    "Main_C": {
      "type": "Main_C",
      "sizeInBeats": 12,
      "channels": {
        "9": {
          "ctab": {
            "srcChannel": 9,
            "name": "Drums",
            "accType": "RHYTHM",
            "editable": false,
            "mutedNotes": [],
            "mutedChords": [],
            "sourceChordNote": 0,
            "sourceChordType": "Maj",
            "ctb2Main": {
              "ntr": "ROOT_FIXED",
              "ntt": "BYPASS",
              "bassOn": false,
              "noteLowLimit": 20,
              "noteHighLimit": 127,
              "chordRootUpperLimit": 127,
              "rtr": "RETRIGGER"
            }
          },
          "notes": [
            {
              "pitch": 35,
              "velocity": 50,
              "position": 0.0,
              "duration": 0.208333
            },
            {
              "pitch": 49,
              "velocity": 30,
              "position": 0.0,
              "duration": 0.208333
            },
            {
              "pitch": 69,
              "velocity": 40,
              "position": 0.0,
              "duration": 0.208333
            },
            {
              "pitch": 69,
              "velocity": 30,
              "position": 0.5,
              "duration": 0.208333
            },
            {
              "pitch": 37,
              "velocity": 50,
              "position": 1.0,
              "duration": 0.208333
            },
            {
              "pitch": 51,
              "velocity": 40,
              "position": 1.0,
              "duration": 0.208333
            },
            {
              "pitch": 69,
              "velocity": 40,
              "position": 1.0,
              "duration": 0.208333
            },
            {
              "pitch": 69,
              "velocity": 30,
              "position": 1.5,
              "duration": 0.208333
            },
            {
              "pitch": 37,
              "velocity": 50,
              "position": 2.0,
              "duration": 0.208333
            },
            {
              "pitch": 51,
              "velocity": 50,
              "position": 2.0,
              "duration": 0.208333
            },
            {
              "pitch": 69,
              "velocity": 40,
              "position": 2.0,
              "duration": 0.208333
            },
            {
              "pitch": 51,
              "velocity": 40,
              "position": 2.5,
              "duration": 0.208333
            },
            {
              "pitch": 69,
              "velocity": 30,
              "position": 2.5,
              "duration": 0.208333
            },
            {
              "pitch": 35,
              "velocity": 50,
              "position": 3.0,
              "duration": 0.208333
            },
            {
              "pitch": 51,
              "velocity": 40,
              "position": 3.0,
              "duration": 0.208333
            },
            {
              "pitch": 69,
              "velocity": 40,
              "position": 3.0,
              "duration": 0.208333
            },
            {
              "pitch": 69,
              "velocity": 20,
              "position": 3.25,
              "duration": 0.208333
            },
            {
              "pitch": 69,
              "velocity": 30,
              "position": 3.5,
              "duration": 0.208333
            },
            {
              "pitch": 37,
              "velocity": 40,
              "position": 4.0,
              "duration": 0.208333
            },
            {
              "pitch": 51,
              "velocity": 40,
              "position": 4.0,
              "duration": 0.208333
            },
            {
              "pitch": 69,
              "velocity": 40,
              "position": 4.0,
              "duration": 0.208333
            },
            {
              "pitch": 69,
              "velocity": 30,
              "position": 4.5,
              "duration": 0.208333
            },
            {
              "pitch": 37,
              "velocity": 50,
              "position": 5.0,
              "duration": 0.208333
            },
            {
              "pitch": 51,
              "velocity": 50,
              "position": 5.0,
              "duration": 0.208333
            },
            {
              "pitch": 69,
              "velocity": 40,
              "position": 5.0,
              "duration": 0.208333
            },
            {
              "pitch": 51,
              "velocity": 40,
              "position": 5.5,
              "duration": 0.208333
            },
            {
              "pitch": 69,
              "velocity": 30,
              "position": 5.5,
              "duration": 0.208333
            },
            {
              "pitch": 35,
              "velocity": 50,
              "position": 6.0,
              "duration": 0.208333
            },
            {
              "pitch": 51,
              "velocity": 40,
              "position": 6.0,
              "duration": 0.208333
            },
            {
              "pitch": 69,
              "velocity": 40,
              "position": 6.0,
              "duration": 0.208333
            },
            {
              "pitch": 69,
              "velocity": 20,
              "position": 6.25,
              "duration": 0.208333
            },
            {
              "pitch": 69,
              "velocity": 30,
              "position": 6.5,
              "duration": 0.208333
            },
            {
              "pitch": 37,
              "velocity": 40,
              "position": 7.0,
              "duration": 0.208333
            },
            {
              "pitch": 51,
              "velocity": 40,
              "position": 7.0,
              "duration": 0.208333
            },
            {
              "pitch": 69,
              "velocity": 40,
              "position": 7.0,
              "duration": 0.208333
            },
            {
              "pitch": 69,
              "velocity": 30,
              "position": 7.5,
              "duration": 0.208333
            },
            {
              "pitch": 37,
              "velocity": 50,
              "position": 8.0,
              "duration": 0.208333
            },
            {
              "pitch": 51,
              "velocity": 50,
              "position": 8.0,
              "duration": 0.208333
            },
            {
              "pitch": 69,
              "velocity": 40,
              "position": 8.0,
              "duration": 0.208333
            },
            {
              "pitch": 51,
              "velocity": 40,
              "position": 8.5,
              "duration": 0.208333
            },
            {
              "pitch": 69,
              "velocity": 30,
              "position": 8.5,
              "duration": 0.208333
            },
            {
              "pitch": 35,
              "velocity": 50,
              "position": 9.0,
              "duration": 0.208333
            },
            {
              "pitch": 51,
              "velocity": 40,
              "position": 9.0,
              "duration": 0.208333
            },
            {
              "pitch": 69,
              "velocity": 40,
              "position": 9.0,
              "duration": 0.208333
            },
            {
              "pitch": 69,
              "velocity": 30,
              "position": 9.5,
              "duration": 0.208333
            },
            {
              "pitch": 37,
              "velocity": 50,
              "position": 10.0,
              "duration": 0.208333
            },
            {
              "pitch": 51,
              "velocity": 40,
              "position": 10.0,
              "duration": 0.208333
            },
            {
              "pitch": 69,
              "velocity": 40,
              "position": 10.0,
              "duration": 0.208333
            },
            {
              "pitch": 38,
              "velocity": 30,
              "position": 10.5,
              "duration": 0.208333
            },
            {
              "pitch": 69,
              "velocity": 30,
              "position": 10.5,
              "duration": 0.208333
            },
            {
              "pitch": 37,
              "velocity": 50,
              "position": 11.0,
              "duration": 0.208333
            },
            {
              "pitch": 38,
              "velocity": 40,
              "position": 11.0,
              "duration": 0.208333
            },
            {
              "pitch": 51,
              "velocity": 50,
              "position": 11.0,
              "duration": 0.208333
            },
            {
              "pitch": 69,
              "velocity": 40,
              "position": 11.0,
              "duration": 0.208333
            },
            {
              "pitch": 38,
              "velocity": 50,
              "position": 11.5,
              "duration": 0.208333
            },
            {
              "pitch": 51,
              "velocity": 40,
              "position": 11.5,
              "duration": 0.208333
            },
            {
              "pitch": 69,
              "velocity": 30,
              "position": 11.5,
              "duration": 0.208333
            }
          ]
        },
        "10": {
          "ctab": {
            "srcChannel": 10,
            "name": "Bass",
            "accType": "BASS",
            "editable": true,
            "mutedNotes": [],
            "mutedChords": [],
            "sourceChordNote": 0,
            "sourceChordType": "Maj7",
            "ctb2Main": {
              "ntr": "ROOT_TRANSPOSITION",
              "ntt": "BYPASS",
              "bassOn": true,
              "noteLowLimit": 20,
              "noteHighLimit": 60,
              "chordRootUpperLimit": 127,
              "rtr": "NOTE_GENERATOR"
            }
          },
          "notes": [
            {
              "pitch": 36,
              "velocity": 67,
              "position": 0.0,
              "duration": 1.958333
            },
            {
              "pitch": 36,
              "velocity": 67,
              "position": 2.0,
              "duration": 0.958333
            },
            {
              "pitch": 36,
              "velocity": 67,
              "position": 3.0,
              "duration": 1.958333
            },
            {
              "pitch": 36,
              "velocity": 67,
              "position": 5.0,
              "duration": 0.958333
            },
            {
              "pitch": 36,
              "velocity": 65,
              "position": 6.0,
              "duration": 2.516667
            },
            {
              "pitch": 31,
              "velocity": 59,
              "position": 8.516667,
              "duration": 0.483333
            },
            {
              "pitch": 36,
              "velocity": 65,
              "position": 9.0,
              "duration": 1.816667
            },
            {
              "pitch": 31,
              "velocity": 80,
              "position": 11.008333,
              "duration": 0.85
            }
          ]
        },
        "11": {
          "ctab": {
            "srcChannel": 11,
            "name": "Piano",
            "accType": "CHORD1",
            "editable": true,
            "mutedNotes": [],
            "mutedChords": [],
            "sourceChordNote": 0,
            "sourceChordType": "Maj7",
            "ctb2Main": {
              "ntr": "ROOT_FIXED",
              "ntt": "CHORD",
              "bassOn": false,
              "noteLowLimit": 48,
              "noteHighLimit": 84,
              "chordRootUpperLimit": 127,
              "rtr": "NOTE_GENERATOR"
            }
          },
          "notes": [
            {
              "pitch": 48,
              "velocity": 37,
              "position": 0.0,
              "duration": 1.516667
            },
            {
              "pitch": 55,
              "velocity": 44,
              "position": 0.0,
              "duration": 1.55
            },
            {
              "pitch": 59,
              "velocity": 67,
              "position": 0.016667,
              "duration": 1.216667
            },
            {
              "pitch": 64,
              "velocity": 57,
              "position": 0.191667,
              "duration": 1.041667
            },
            {
              "pitch": 67,
              "velocity": 51,
              "position": 0.283333,
              "duration": 0.966667
            },
            {
              "pitch": 55,
              "velocity": 35,
              "position": 2.0,
              "duration": 1.0
            },
            {
              "pitch": 64,
              "velocity": 56,
              "position": 2.0,
              "duration": 1.0
            },
            {
              "pitch": 59,
              "velocity": 64,
              "position": 2.016667,
              "duration": 0.983333
            },
            {
              "pitch": 48,
              "velocity": 37,
              "position": 3.0,
              "duration": 1.516667
            },
            {
              "pitch": 55,
              "velocity": 44,
              "position": 3.0,
              "duration": 1.55
            },
            {
              "pitch": 59,
              "velocity": 67,
              "position": 3.016667,
              "duration": 1.216667
            },
            {
              "pitch": 64,
              "velocity": 57,
              "position": 3.191667,
              "duration": 1.041667
            },
            {
              "pitch": 67,
              "velocity": 51,
              "position": 3.283333,
              "duration": 0.966667
            },
            {
              "pitch": 55,
              "velocity": 35,
              "position": 5.0,
              "duration": 1.0
            },
            {
              "pitch": 64,
              "velocity": 56,
              "position": 5.0,
              "duration": 1.0
            },
            {
              "pitch": 59,
              "velocity": 64,
              "position": 5.016667,
              "duration": 0.983333
            },
            {
              "pitch": 36,
              "velocity": 56,
              "position": 6.016667,
              "duration": 2.233333
            },
            {
              "pitch": 43,
              "velocity": 47,
              "position": 6.55,
              "duration": 1.725
            },
            {
              "pitch": 64,
              "velocity": 55,
              "position": 7.041667,
              "duration": 1.316667
            },
            {
              "pitch": 59,
              "velocity": 52,
              "position": 7.058333,
              "duration": 1.075
            },
            {
              "pitch": 55,
              "velocity": 43,
              "position": 7.075,
              "duration": 1.075
            },
            {
              "pitch": 48,
              "velocity": 38,
              "position": 8.116667,
              "duration": 0.666667
            },
            {
              "pitch": 55,
              "velocity": 70,
              "position": 8.583333,
              "duration": 0.316667
            },
            {
              "pitch": 36,
              "velocity": 60,
              "position": 9.041667,
              "duration": 2.45
            },
            {
              "pitch": 43,
              "velocity": 65,
              "position": 9.466667,
              "duration": 2.075
            },
            {
              "pitch": 48,
              "velocity": 27,
              "position": 9.975,
              "duration": 1.566667
            },
            {
              "pitch": 55,
              "velocity": 46,
              "position": 10.008333,
              "duration": 0.425
            },
            {
              "pitch": 59,
              "velocity": 59,
              "position": 10.033333,
              "duration": 0.4
            },
            {
              "pitch": 64,
              "velocity": 51,
              "position": 10.033333,
              "duration": 0.45
            },
            {
              "pitch": 55,
              "velocity": 42,
              "position": 11.016667,
              "duration": 0.383333
            },
            {
              "pitch": 64,
              "velocity": 58,
              "position": 11.016667,
              "duration": 0.4
            },
            {
              "pitch": 59,
              "velocity": 48,
              "position": 11.033333,
              "duration": 0.316667
            }
          ]
        },
        "12": {
          "ctab": {
            "srcChannel": 12,
            "name": "Guitar",
            "accType": "CHORD2",
            "editable": true,
            "mutedNotes": [],
            "mutedChords": [],
            "sourceChordNote": 0,
            "sourceChordType": "Maj7",
            "ctb2Main": {
              "ntr": "ROOT_FIXED",
              "ntt": "CHORD",
              "bassOn": false,
              "noteLowLimit": 40,
              "noteHighLimit": 76,
              "chordRootUpperLimit": 127,
              "rtr": "NOTE_GENERATOR"
            }
          },
          "notes": [
            {
              "pitch": 48,
              "velocity": 56,
              "position": 0.0,
              "duration": 1.958333
            },
            {
              "pitch": 52,
              "velocity": 67,
              "position": 0.5,
              "duration": 1.458333
            },
            {
              "pitch": 55,
              "velocity": 67,
              "position": 1.0,
              "duration": 0.783333
            },
            {
              "pitch": 59,
              "velocity": 67,
              "position": 1.5,
              "duration": 0.458333
            },
            {
              "pitch": 59,
              "velocity": 68,
              "position": 2.0,
              "duration": 0.866667
            },
            {
              "pitch": 55,
              "velocity": 67,
              "position": 2.5,
              "duration": 0.358333
            },
            {
              "pitch": 48,
              "velocity": 56,
              "position": 3.0,
              "duration": 1.958333
            },
            {
              "pitch": 52,
              "velocity": 67,
              "position": 3.5,
              "duration": 1.458333
            },
            {
              "pitch": 55,
              "velocity": 67,
              "position": 4.0,
              "duration": 0.783333
            },
            {
              "pitch": 59,
              "velocity": 67,
              "position": 4.5,
              "duration": 0.458333
            },
            {
              "pitch": 59,
              "velocity": 68,
              "position": 5.0,
              "duration": 0.866667
            },
            {
              "pitch": 55,
              "velocity": 67,
              "position": 5.5,
              "duration": 0.358333
            },
            {
              "pitch": 48,
              "velocity": 56,
              "position": 6.0,
              "duration": 0.633333
            },
            {
              "pitch": 52,
              "velocity": 67,
              "position": 6.5,
              "duration": 0.758333
            },
            {
              "pitch": 59,
              "velocity": 67,
              "position": 7.0,
              "duration": 0.491667
            },
            {
              "pitch": 52,
              "velocity": 67,
              "position": 7.5,
              "duration": 0.85
            },
            {
              "pitch": 55,
              "velocity": 67,
              "position": 8.0,
              "duration": 0.3
            },
            {
              "pitch": 52,
              "velocity": 67,
              "position": 8.5,
              "duration": 0.458333
            },
            {
              "pitch": 48,
              "velocity": 56,
              "position": 9.0,
              "duration": 0.966667
            },
            {
              "pitch": 52,
              "velocity": 67,
              "position": 9.5,
              "duration": 0.65
            },
            {
              "pitch": 59,
              "velocity": 67,
              "position": 10.0,
              "duration": 0.458333
            },
            {
              "pitch": 52,
              "velocity": 67,
              "position": 10.5,
              "duration": 0.833333
            },
            {
              "pitch": 55,
              "velocity": 67,
              "position": 11.0,
              "duration": 0.483333
            },
            {
              "pitch": 52,
              "velocity": 67,
              "position": 11.5,
              "duration": 0.458333
            }
          ]
        },
        "13": {
          "ctab": {
            "srcChannel": 13,
            "name": "Strings",
            "accType": "PAD",
            "editable": true,
            "mutedNotes": [],
            "mutedChords": [],
            "sourceChordNote": 0,
            "sourceChordType": "Maj7",
            "ctb2Main": {
              "ntr": "ROOT_FIXED",
              "ntt": "MELODY",
              "bassOn": false,
              "noteLowLimit": 36,
              "noteHighLimit": 96,
              "chordRootUpperLimit": 127,
              "rtr": "PITCH_SHIFT"
            }
          },
          "notes": [
            {
              "pitch": 71,
              "velocity": 33,
              "position": 0.0,
              "duration": 11.833333
            }
          ]
        }
      }
    },
    "Main_D": {
      "type": "Main_D",
      "sizeInBeats": 12,
      "channels": {
        "9": {
          "ctab": {
            "srcChannel": 9,
            "name": "Drums",
            "accType": "RHYTHM",
            "editable": false,
            "mutedNotes": [],
            "mutedChords": [],
            "sourceChordNote": 0,
            "sourceChordType": "Maj",
            "ctb2Main": {
              "ntr": "ROOT_FIXED",
              "ntt": "BYPASS",
              "bassOn": false,
              "noteLowLimit": 20,
              "noteHighLimit": 127,
              "chordRootUpperLimit": 127,
              "rtr": "RETRIGGER"
            }
          },
          "notes": [
            {
              "pitch": 35,
              "velocity": 50,
              "position": 0.0,
              "duration": 0.208333
            },
            {
              "pitch": 51,
              "velocity": 40,
              "position": 0.0,
              "duration": 0.208333
            },
            {
              "pitch": 69,
              "velocity": 40,
              "position": 0.0,
              "duration": 0.208333
            },
            {
              "pitch": 69,
              "velocity": 20,
              "position": 0.25,
              "duration": 0.208333
            },
            {
              "pitch": 69,
              "velocity": 30,
              "position": 0.5,
              "duration": 0.208333
            },
            {
              "pitch": 37,
              "velocity": 40,
              "position": 1.0,
              "duration": 0.208333
            },
            {
              "pitch": 51,
              "velocity": 40,
              "position": 1.0,
              "duration": 0.208333
            },
            {
              "pitch": 69,
              "velocity": 40,
              "position": 1.0,
              "duration": 0.208333
            },
            {
              "pitch": 69,
              "velocity": 30,
              "position": 1.5,
              "duration": 0.208333
            },
            {
              "pitch": 37,
              "velocity": 50,
              "position": 2.0,
              "duration": 0.208333
            },
            {
              "pitch": 51,
              "velocity": 50,
              "position": 2.0,
              "duration": 0.208333
            },
            {
              "pitch": 69,
              "velocity": 40,
              "position": 2.0,
              "duration": 0.208333
            },
            {
              "pitch": 51,
              "velocity": 40,
              "position": 2.5,
              "duration": 0.208333
            },
            {
              "pitch": 69,
              "velocity": 30,
              "position": 2.5,
              "duration": 0.208333
            },
            {
              "pitch": 35,
              "velocity": 50,
              "position": 3.0,
              "duration": 0.208333
            },
            {
              "pitch": 49,
              "velocity": 30,
              "position": 3.0,
              "duration": 0.208333
            },
            {
              "pitch": 69,
              "velocity": 40,
              "position": 3.0,
              "duration": 0.208333
            },
            {
              "pitch": 69,
              "velocity": 30,
              "position": 3.5,
              "duration": 0.208333
            },
            {
              "pitch": 37,
              "velocity": 50,
              "position": 4.0,
              "duration": 0.208333
            },
            {
              "pitch": 51,
              "velocity": 40,
              "position": 4.0,
              "duration": 0.208333
            },
            {
              "pitch": 69,
              "velocity": 40,
              "position": 4.0,
              "duration": 0.208333
            },
            {
              "pitch": 69,
              "velocity": 30,
              "position": 4.5,
              "duration": 0.208333
            },
            {
              "pitch": 37,
              "velocity": 50,
              "position": 5.0,
              "duration": 0.208333
            },
            {
              "pitch": 51,
              "velocity": 50,
              "position": 5.0,
              "duration": 0.208333
            },
            {
              "pitch": 69,
              "velocity": 40,
              "position": 5.0,
              "duration": 0.208333
            },
            {
              "pitch": 51,
              "velocity": 40,
              "position": 5.5,
              "duration": 0.208333
            },
            {
              "pitch": 69,
              "velocity": 30,
              "position": 5.5,
              "duration": 0.208333
            },
            {
              "pitch": 35,
              "velocity": 50,
              "position": 6.0,
              "duration": 0.208333
            },
            {
              "pitch": 49,
              "velocity": 30,
              "position": 6.0,
              "duration": 0.208333
            },
            {
              "pitch": 69,
              "velocity": 40,
              "position": 6.0,
              "duration": 0.208333
            },
            {
              "pitch": 69,
              "velocity": 30,
              "position": 6.5,
              "duration": 0.208333
            },
            {
              "pitch": 37,
              "velocity": 50,
              "position": 7.0,
              "duration": 0.208333
            },
            {
              "pitch": 51,
              "velocity": 40,
              "position": 7.0,
              "duration": 0.208333
            },
            {
              "pitch": 69,
              "velocity": 40,
              "position": 7.0,
              "duration": 0.208333
            },
            {
              "pitch": 69,
              "velocity": 30,
              "position": 7.5,
              "duration": 0.208333
            },
            {
              "pitch": 37,
              "velocity": 50,
              "position": 8.0,
              "duration": 0.208333
            },
            {
              "pitch": 51,
              "velocity": 50,
              "position": 8.0,
              "duration": 0.208333
            },
            {
              "pitch": 69,
              "velocity": 40,
              "position": 8.0,
              "duration": 0.208333
            },
            {
              "pitch": 51,
              "velocity": 40,
              "position": 8.5,
              "duration": 0.208333
            },
            {
              "pitch": 69,
              "velocity": 30,
              "position": 8.5,
              "duration": 0.208333
            },
            {
              "pitch": 35,
              "velocity": 50,
              "position": 9.0,
              "duration": 0.208333
            },
            {
              "pitch": 51,
              "velocity": 40,
              "position": 9.0,
              "duration": 0.208333
            },
            {
              "pitch": 69,
              "velocity": 40,
              "position": 9.0,
              "duration": 0.208333
            },
            {
              "pitch": 69,
              "velocity": 30,
              "position": 9.5,
              "duration": 0.208333
            },
            {
              "pitch": 37,
              "velocity": 50,
              "position": 10.0,
              "duration": 0.208333
            },
            {
              "pitch": 51,
              "velocity": 40,
              "position": 10.0,
              "duration": 0.208333
            },
            {
              "pitch": 69,
              "velocity": 40,
              "position": 10.0,
              "duration": 0.208333
            },
            {
              "pitch": 38,
              "velocity": 30,
              "position": 10.5,
              "duration": 0.208333
            },
            {
              "pitch": 69,
              "velocity": 30,
              "position": 10.5,
              "duration": 0.208333
            },
            {
              "pitch": 37,
              "velocity": 50,
              "position": 11.0,
              "duration": 0.208333
            },
            {
              "pitch": 38,
              "velocity": 40,
              "position": 11.0,
              "duration": 0.208333
            },
            {
              "pitch": 51,
              "velocity": 50,
              "position": 11.0,
              "duration": 0.208333
            },
            {
              "pitch": 69,
              "velocity": 40,
              "position": 11.0,
              "duration": 0.208333
            },
            {
              "pitch": 38,
              "velocity": 50,
              "position": 11.5,
              "duration": 0.208333
            },
            {
              "pitch": 51,
              "velocity": 40,
              "position": 11.5,
              "duration": 0.208333
            },
            {
              "pitch": 69,
              "velocity": 30,
              "position": 11.5,
              "duration": 0.208333
            }
          ]
        },
        "10": {
          "ctab": {
            "srcChannel": 10,
            "name": "Bass",
            "accType": "BASS",
            "editable": true,
            "mutedNotes": [],
            "mutedChords": [],
            "sourceChordNote": 0,
            "sourceChordType": "Maj7",
            "ctb2Main": {
              "ntr": "ROOT_TRANSPOSITION",
              "ntt": "BYPASS",
              "bassOn": true,
              "noteLowLimit": 20,
              "noteHighLimit": 60,
              "chordRootUpperLimit": 127,
              "rtr": "NOTE_GENERATOR"
            }
          },
          "notes": [
            {
              "pitch": 36,
              "velocity": 67,
              "position": 0.0,
              "duration": 1.958333
            },
            {
              "pitch": 36,
              "velocity": 67,
              "position": 2.0,
              "duration": 0.958333
            },
            {
              "pitch": 36,
              "velocity": 67,
              "position": 3.0,
              "duration": 1.958333
            },
            {
              "pitch": 36,
              "velocity": 67,
              "position": 5.0,
              "duration": 0.958333
            },
            {
              "pitch": 36,
              "velocity": 65,
              "position": 6.0,
              "duration": 2.516667
            },
            {
              "pitch": 31,
              "velocity": 59,
              "position": 8.516667,
              "duration": 0.483333
            },
            {
              "pitch": 36,
              "velocity": 65,
              "position": 9.0,
              "duration": 1.816667
            },
            {
              "pitch": 31,
              "velocity": 80,
              "position": 11.008333,
              "duration": 0.85
            }
          ]
        },
        "11": {
          "ctab": {
            "srcChannel": 11,
            "name": "Piano",
            "accType": "CHORD1",
            "editable": true,
            "mutedNotes": [],
            "mutedChords": [],
            "sourceChordNote": 0,
            "sourceChordType": "Maj7",
            "ctb2Main": {
              "ntr": "ROOT_FIXED",
              "ntt": "CHORD",
              "bassOn": false,
              "noteLowLimit": 48,
              "noteHighLimit": 84,
              "chordRootUpperLimit": 127,
              "rtr": "NOTE_GENERATOR"
            }
          },
          "notes": [
            {
              "pitch": 48,
              "velocity": 50,
              "position": 0.0,
              "duration": 2.0
            },
            {
              "pitch": 55,
              "velocity": 38,
              "position": 0.508333,
              "duration": 1.491667
            },
            {
              "pitch": 59,
              "velocity": 60,
              "position": 1.008333,
              "duration": 0.991667
            },
            {
              "pitch": 67,
              "velocity": 43,
              "position": 1.025,
              "duration": 0.975
            },
            {
              "pitch": 64,
              "velocity": 66,
              "position": 1.041667,
              "duration": 0.958333
            },
            {
              "pitch": 55,
              "velocity": 35,
              "position": 2.0,
              "duration": 1.0
            },
            {
              "pitch": 64,
              "velocity": 56,
              "position": 2.0,
              "duration": 1.0
            },
            {
              "pitch": 59,
              "velocity": 64,
              "position": 2.016667,
              "duration": 0.983333
            },
            {
              "pitch": 48,
              "velocity": 37,
              "position": 3.0,
              "duration": 1.516667
            },
            {
              "pitch": 55,
              "velocity": 44,
              "position": 3.0,
              "duration": 1.55
            },
            {
              "pitch": 59,
              "velocity": 67,
              "position": 3.016667,
              "duration": 1.216667
            },
            {
              "pitch": 64,
              "velocity": 57,
              "position": 3.191667,
              "duration": 1.041667
            },
            {
              "pitch": 67,
              "velocity": 51,
              "position": 3.283333,
              "duration": 0.966667
            },
            {
              "pitch": 55,
              "velocity": 35,
              "position": 5.0,
              "duration": 1.0
            },
            {
              "pitch": 64,
              "velocity": 56,
              "position": 5.0,
              "duration": 1.0
            },
            {
              "pitch": 59,
              "velocity": 64,
              "position": 5.016667,
              "duration": 0.983333
            },
            {
              "pitch": 36,
              "velocity": 56,
              "position": 6.016667,
              "duration": 2.233333
            },
            {
              "pitch": 43,
              "velocity": 47,
              "position": 6.55,
              "duration": 1.725
            },
            {
              "pitch": 64,
              "velocity": 55,
              "position": 7.041667,
              "duration": 1.316667
            },
            {
              "pitch": 59,
              "velocity": 52,
              "position": 7.058333,
              "duration": 1.075
            },
            {
              "pitch": 55,
              "velocity": 43,
              "position": 7.075,
              "duration": 1.075
            },
            {
              "pitch": 48,
              "velocity": 38,
              "position": 8.116667,
              "duration": 0.666667
            },
            {
              "pitch": 55,
              "velocity": 70,
              "position": 8.583333,
              "duration": 0.316667
            },
            {
              "pitch": 36,
              "velocity": 60,
              "position": 9.041667,
              "duration": 2.45
            },
            {
              "pitch": 43,
              "velocity": 65,
              "position": 9.466667,
              "duration": 2.075
            },
            {
              "pitch": 48,
              "velocity": 27,
              "position": 9.975,
              "duration": 1.566667
            },
            {
              "pitch": 55,
              "velocity": 46,
              "position": 10.008333,
              "duration": 0.425
            },
            {
              "pitch": 59,
              "velocity": 59,
              "position": 10.033333,
              "duration": 0.4
            },
            {
              "pitch": 64,
              "velocity": 51,
              "position": 10.033333,
              "duration": 0.45
            },
            {
              "pitch": 55,
              "velocity": 42,
              "position": 11.016667,
              "duration": 0.383333
            },
            {
              "pitch": 64,
              "velocity": 58,
              "position": 11.016667,
              "duration": 0.4
            },
            {
              "pitch": 59,
              "velocity": 48,
              "position": 11.033333,
              "duration": 0.316667
            }
          ]
        },
        "12": {
          "ctab": {
            "srcChannel": 12,
            "name": "Guitar",
            "accType": "CHORD2",
            "editable": true,
            "mutedNotes": [],
            "mutedChords": [],
            "sourceChordNote": 0,
            "sourceChordType": "Maj7",
            "ctb2Main": {
              "ntr": "ROOT_FIXED",
              "ntt": "CHORD",
              "bassOn": false,
              "noteLowLimit": 40,
              "noteHighLimit": 76,
              "chordRootUpperLimit": 127,
              "rtr": "NOTE_GENERATOR"
            }
          },
          "notes": [
            {
              "pitch": 48,
              "velocity": 56,
              "position": 0.0,
              "duration": 1.958333
            },
            {
              "pitch": 64,
              "velocity": 67,
              "position": 0.5,
              "duration": 1.458333
            },
            {
              "pitch": 59,
              "velocity": 67,
              "position": 1.0,
              "duration": 0.958333
            },
            {
              "pitch": 52,
              "velocity": 67,
              "position": 1.5,
              "duration": 0.458333
            },
            {
              "pitch": 59,
              "velocity": 68,
              "position": 2.0,
              "duration": 0.866667
            },
            {
              "pitch": 55,
              "velocity": 67,
              "position": 2.5,
              "duration": 0.358333
            },
            {
              "pitch": 48,
              "velocity": 56,
              "position": 3.0,
              "duration": 1.958333
            },
            {
              "pitch": 52,
              "velocity": 67,
              "position": 3.5,
              "duration": 1.458333
            },
            {
              "pitch": 55,
              "velocity": 67,
              "position": 4.0,
              "duration": 0.783333
            },
            {
              "pitch": 59,
              "velocity": 67,
              "position": 4.5,
              "duration": 0.458333
            },
            {
              "pitch": 59,
              "velocity": 68,
              "position": 5.0,
              "duration": 0.866667
            },
            {
              "pitch": 55,
              "velocity": 67,
              "position": 5.5,
              "duration": 0.358333
            },
            {
              "pitch": 48,
              "velocity": 56,
              "position": 6.0,
              "duration": 2.741667
            },
            {
              "pitch": 52,
              "velocity": 67,
              "position": 6.5,
              "duration": 1.775
            },
            {
              "pitch": 55,
              "velocity": 67,
              "position": 7.0,
              "duration": 0.783333
            },
            {
              "pitch": 59,
              "velocity": 67,
              "position": 7.5,
              "duration": 0.516667
            },
            {
              "pitch": 55,
              "velocity": 67,
              "position": 8.0,
              "duration": 0.866667
            },
            {
              "pitch": 52,
              "velocity": 67,
              "position": 8.5,
              "duration": 0.825
            },
            {
              "pitch": 48,
              "velocity": 56,
              "position": 9.0,
              "duration": 0.966667
            },
            {
              "pitch": 52,
              "velocity": 67,
              "position": 9.5,
              "duration": 1.3
            },
            {
              "pitch": 55,
              "velocity": 67,
              "position": 10.0,
              "duration": 0.866667
            },
            {
              "pitch": 59,
              "velocity": 67,
              "position": 10.5,
              "duration": 1.333333
            },
            {
              "pitch": 55,
              "velocity": 67,
              "position": 11.0,
              "duration": 0.866667
            },
            {
              "pitch": 52,
              "velocity": 67,
              "position": 11.5,
              "duration": 0.458333
            }
          ]
        },
        "13": {
          "ctab": {
            "srcChannel": 13,
            "name": "Strings",
            "accType": "PAD",
            "editable": true,
            "mutedNotes": [],
            "mutedChords": [],
            "sourceChordNote": 0,
            "sourceChordType": "Maj7",
            "ctb2Main": {
              "ntr": "ROOT_FIXED",
              "ntt": "MELODY",
              "bassOn": false,
              "noteLowLimit": 36,
              "noteHighLimit": 96,
              "chordRootUpperLimit": 127,
              "rtr": "PITCH_SHIFT"
            }
          },
          "notes": [
            {
              "pitch": 71,
              "velocity": 33,
              "position": 0.0,
              "duration": 11.833333
            }
          ]
        }
      }
    },
    "Fill_In_AA": {
      "type": "Fill_In_AA",
      "sizeInBeats": 12,
      "channels": {
        "9": {
          "ctab": {
            "srcChannel": 9,
            "name": "Drums",
            "accType": "RHYTHM",
            "editable": false,
            "mutedNotes": [],
            "mutedChords": [],
            "sourceChordNote": 0,
            "sourceChordType": "Maj",
            "ctb2Main": {
              "ntr": "ROOT_FIXED",
              "ntt": "BYPASS",
              "bassOn": false,
              "noteLowLimit": 20,
              "noteHighLimit": 127,
              "chordRootUpperLimit": 127,
              "rtr": "RETRIGGER"
            }
          },
          "notes": [
            {
              "pitch": 35,
              "velocity": 50,
              "position": 0.0,
              "duration": 0.208333
            },
            {
              "pitch": 49,
              "velocity": 30,
              "position": 0.0,
              "duration": 0.208333
            },
            {
              "pitch": 69,
              "velocity": 40,
              "position": 0.0,
              "duration": 0.208333
            },
            {
              "pitch": 69,
              "velocity": 30,
              "position": 0.5,
              "duration": 0.208333
            },
            {
              "pitch": 37,
              "velocity": 50,
              "position": 1.0,
              "duration": 0.208333
            },
            {
              "pitch": 51,
              "velocity": 40,
              "position": 1.0,
              "duration": 0.208333
            },
            {
              "pitch": 69,
              "velocity": 40,
              "position": 1.0,
              "duration": 0.208333
            },
            {
              "pitch": 69,
              "velocity": 30,
              "position": 1.5,
              "duration": 0.208333
            },
            {
              "pitch": 37,
              "velocity": 50,
              "position": 2.0,
              "duration": 0.208333
            },
            {
              "pitch": 51,
              "velocity": 50,
              "position": 2.0,
              "duration": 0.208333
            },
            {
              "pitch": 69,
              "velocity": 40,
              "position": 2.0,
              "duration": 0.208333
            },
            {
              "pitch": 51,
              "velocity": 40,
              "position": 2.5,
              "duration": 0.208333
            },
            {
              "pitch": 69,
              "velocity": 30,
              "position": 2.5,
              "duration": 0.208333
            },
            {
              "pitch": 35,
              "velocity": 50,
              "position": 3.0,
              "duration": 0.208333
            },
            {
              "pitch": 51,
              "velocity": 40,
              "position": 3.0,
              "duration": 0.208333
            },
            {
              "pitch": 69,
              "velocity": 40,
              "position": 3.0,
              "duration": 0.208333
            },
            {
              "pitch": 69,
              "velocity": 30,
              "position": 3.5,
              "duration": 0.208333
            },
            {
              "pitch": 37,
              "velocity": 50,
              "position": 4.0,
              "duration": 0.208333
            },
            {
              "pitch": 51,
              "velocity": 40,
              "position": 4.0,
              "duration": 0.208333
            },
            {
              "pitch": 69,
              "velocity": 40,
              "position": 4.0,
              "duration": 0.208333
            },
            {
              "pitch": 69,
              "velocity": 30,
              "position": 4.5,
              "duration": 0.208333
            },
            {
              "pitch": 37,
              "velocity": 50,
              "position": 5.0,
              "duration": 0.208333
            },
            {
              "pitch": 51,
              "velocity": 50,
              "position": 5.0,
              "duration": 0.208333
            },
            {
              "pitch": 69,
              "velocity": 40,
              "position": 5.0,
              "duration": 0.208333
            },
            {
              "pitch": 51,
              "velocity": 40,
              "position": 5.5,
              "duration": 0.208333
            },
            {
              "pitch": 69,
              "velocity": 30,
              "position": 5.5,
              "duration": 0.208333
            },
            {
              "pitch": 35,
              "velocity": 40,
              "position": 6.0,
              "duration": 0.208333
            },
            {
              "pitch": 51,
              "velocity": 40,
              "position": 6.0,
              "duration": 0.208333
            },
            {
              "pitch": 69,
              "velocity": 40,
              "position": 6.0,
              "duration": 0.208333
            },
            {
              "pitch": 69,
              "velocity": 30,
              "position": 6.5,
              "duration": 0.208333
            },
            {
              "pitch": 37,
              "velocity": 50,
              "position": 7.0,
              "duration": 0.208333
            },
            {
              "pitch": 51,
              "velocity": 40,
              "position": 7.0,
              "duration": 0.208333
            },
            {
              "pitch": 69,
              "velocity": 40,
              "position": 7.0,
              "duration": 0.208333
            },
            {
              "pitch": 69,
              "velocity": 22,
              "position": 7.25,
              "duration": 0.208333
            },
            {
              "pitch": 69,
              "velocity": 30,
              "position": 7.5,
              "duration": 0.208333
            },
            {
              "pitch": 37,
              "velocity": 40,
              "position": 8.0,
              "duration": 0.208333
            },
            {
              "pitch": 51,
              "velocity": 50,
              "position": 8.0,
              "duration": 0.208333
            },
            {
              "pitch": 69,
              "velocity": 40,
              "position": 8.0,
              "duration": 0.208333
            },
            {
              "pitch": 51,
              "velocity": 40,
              "position": 8.5,
              "duration": 0.208333
            },
            {
              "pitch": 69,
              "velocity": 30,
              "position": 8.5,
              "duration": 0.208333
            },
            {
              "pitch": 35,
              "velocity": 50,
              "position": 9.0,
              "duration": 0.208333
            },
            {
              "pitch": 69,
              "velocity": 40,
              "position": 9.0,
              "duration": 0.208333
            },
            {
              "pitch": 69,
              "velocity": 30,
              "position": 9.5,
              "duration": 0.208333
            },
            {
              "pitch": 37,
              "velocity": 50,
              "position": 10.0,
              "duration": 0.208333
            },
            {
              "pitch": 69,
              "velocity": 40,
              "position": 10.0,
              "duration": 0.208333
            },
            {
              "pitch": 69,
              "velocity": 30,
              "position": 10.5,
              "duration": 0.208333
            },
            {
              "pitch": 37,
              "velocity": 50,
              "position": 11.0,
              "duration": 0.208333
            },
            {
              "pitch": 69,
              "velocity": 40,
              "position": 11.0,
              "duration": 0.208333
            },
            {
              "pitch": 38,
              "velocity": 40,
              "position": 11.5,
              "duration": 0.208333
            },
            {
              "pitch": 69,
              "velocity": 30,
              "position": 11.5,
              "duration": 0.208333
            }
          ]
        },
        "10": {
          "ctab": {
            "srcChannel": 10,
            "name": "Bass",
            "accType": "BASS",
            "editable": true,
            "mutedNotes": [],
            "mutedChords": [],
            "sourceChordNote": 0,
            "sourceChordType": "Maj7",
            "ctb2Main": {
              "ntr": "ROOT_TRANSPOSITION",
              "ntt": "BYPASS",
              "bassOn": true,
              "noteLowLimit": 20,
              "noteHighLimit": 60,
              "chordRootUpperLimit": 127,
              "rtr": "NOTE_GENERATOR"
            }
          },
          "notes": [
            {
              "pitch": 36,
              "velocity": 67,
              "position": 0.0,
              "duration": 1.958333
            },
            {
              "pitch": 36,
              "velocity": 67,
              "position": 2.0,
              "duration": 0.958333
            },
            {
              "pitch": 36,
              "velocity": 67,
              "position": 3.0,
              "duration": 1.958333
            },
            {
              "pitch": 36,
              "velocity": 67,
              "position": 5.0,
              "duration": 0.958333
            },
            {
              "pitch": 36,
              "velocity": 65,
              "position": 6.0,
              "duration": 2.516667
            },
            {
              "pitch": 31,
              "velocity": 59,
              "position": 8.516667,
              "duration": 0.483333
            },
            {
              "pitch": 36,
              "velocity": 65,
              "position": 9.0,
              "duration": 1.816667
            },
            {
              "pitch": 31,
              "velocity": 80,
              "position": 11.008333,
              "duration": 0.85
            }
          ]
        },
        "11": {
          "ctab": {
            "srcChannel": 11,
            "name": "Piano",
            "accType": "CHORD1",
            "editable": true,
            "mutedNotes": [],
            "mutedChords": [],
            "sourceChordNote": 0,
            "sourceChordType": "Maj7",
            "ctb2Main": {
              "ntr": "ROOT_FIXED",
              "ntt": "CHORD",
              "bassOn": false,
              "noteLowLimit": 48,
              "noteHighLimit": 84,
              "chordRootUpperLimit": 127,
              "rtr": "NOTE_GENERATOR"
            }
          },
          "notes": [
            {
              "pitch": 48,
              "velocity": 37,
              "position": 0.0,
              "duration": 1.516667
            },
            {
              "pitch": 55,
              "velocity": 44,
              "position": 0.0,
              "duration": 1.55
            },
            {
              "pitch": 59,
              "velocity": 67,
              "position": 0.016667,
              "duration": 1.216667
            },
            {
              "pitch": 64,
              "velocity": 57,
              "position": 0.191667,
              "duration": 1.041667
            },
            {
              "pitch": 67,
              "velocity": 51,
              "position": 0.283333,
              "duration": 0.966667
            },
            {
              "pitch": 55,
              "velocity": 35,
              "position": 2.0,
              "duration": 1.0
            },
            {
              "pitch": 64,
              "velocity": 56,
              "position": 2.0,
              "duration": 1.0
            },
            {
              "pitch": 59,
              "velocity": 64,
              "position": 2.016667,
              "duration": 0.983333
            },
            {
              "pitch": 48,
              "velocity": 37,
              "position": 3.0,
              "duration": 1.516667
            },
            {
              "pitch": 55,
              "velocity": 44,
              "position": 3.0,
              "duration": 1.55
            },
            {
              "pitch": 59,
              "velocity": 67,
              "position": 3.016667,
              "duration": 1.216667
            },
            {
              "pitch": 64,
              "velocity": 57,
              "position": 3.191667,
              "duration": 1.041667
            },
            {
              "pitch": 67,
              "velocity": 51,
              "position": 3.283333,
              "duration": 0.966667
            },
            {
              "pitch": 55,
              "velocity": 35,
              "position": 5.0,
              "duration": 1.0
            },
            {
              "pitch": 64,
              "velocity": 56,
              "position": 5.0,
              "duration": 1.0
            },
            {
              "pitch": 59,
              "velocity": 64,
              "position": 5.016667,
              "duration": 0.983333
            },
            {
              "pitch": 36,
              "velocity": 56,
              "position": 6.016667,
              "duration": 2.233333
            },
            {
              "pitch": 43,
              "velocity": 47,
              "position": 6.55,
              "duration": 1.725
            },
            {
              "pitch": 64,
              "velocity": 55,
              "position": 7.041667,
              "duration": 1.316667
            },
            {
              "pitch": 59,
              "velocity": 52,
              "position": 7.058333,
              "duration": 1.075
            },
            {
              "pitch": 55,
              "velocity": 43,
              "position": 7.075,
              "duration": 1.075
            },
            {
              "pitch": 48,
              "velocity": 38,
              "position": 8.116667,
              "duration": 0.666667
            },
            {
              "pitch": 55,
              "velocity": 70,
              "position": 8.583333,
              "duration": 0.316667
            },
            {
              "pitch": 36,
              "velocity": 60,
              "position": 9.041667,
              "duration": 2.45
            },
            {
              "pitch": 43,
              "velocity": 65,
              "position": 9.466667,
              "duration": 2.075
            },
            {
              "pitch": 48,
              "velocity": 27,
              "position": 9.975,
              "duration": 1.566667
            },
            {
              "pitch": 55,
              "velocity": 46,
              "position": 10.008333,
              "duration": 0.425
            },
            {
              "pitch": 59,
              "velocity": 59,
              "position": 10.033333,
              "duration": 0.4
            },
            {
              "pitch": 64,
              "velocity": 51,
              "position": 10.033333,
              "duration": 0.45
            },
            {
              "pitch": 55,
              "velocity": 42,
              "position": 11.016667,
              "duration": 0.383333
            },
            {
              "pitch": 64,
              "velocity": 58,
              "position": 11.016667,
              "duration": 0.4
            },
            {
              "pitch": 59,
              "velocity": 48,
              "position": 11.033333,
              "duration": 0.316667
            }
          ]
        },
        "12": {
          "ctab": {
            "srcChannel": 12,
            "name": "Guitar",
            "accType": "CHORD2",
            "editable": true,
            "mutedNotes": [],
            "mutedChords": [],
            "sourceChordNote": 0,
            "sourceChordType": "Maj7",
            "ctb2Main": {
              "ntr": "ROOT_FIXED",
              "ntt": "CHORD",
              "bassOn": false,
              "noteLowLimit": 40,
              "noteHighLimit": 76,
              "chordRootUpperLimit": 127,
              "rtr": "NOTE_GENERATOR"
            }
          },
          "notes": [
            {
              "pitch": 48,
              "velocity": 56,
              "position": 0.0,
              "duration": 1.958333
            },
            {
              "pitch": 52,
              "velocity": 67,
              "position": 0.5,
              "duration": 1.458333
            },
            {
              "pitch": 55,
              "velocity": 67,
              "position": 1.0,
              "duration": 0.783333
            },
            {
              "pitch": 59,
              "velocity": 67,
              "position": 1.5,
              "duration": 0.458333
            },
            {
              "pitch": 59,
              "velocity": 68,
              "position": 2.0,
              "duration": 0.866667
            },
            {
              "pitch": 55,
              "velocity": 67,
              "position": 2.5,
              "duration": 0.358333
            },
            {
              "pitch": 48,
              "velocity": 56,
              "position": 3.0,
              "duration": 1.958333
            },
            {
              "pitch": 64,
              "velocity": 67,
              "position": 3.5,
              "duration": 1.458333
            },
            {
              "pitch": 59,
              "velocity": 67,
              "position": 4.0,
              "duration": 0.958333
            },
            {
              "pitch": 52,
              "velocity": 67,
              "position": 4.5,
              "duration": 0.458333
            },
            {
              "pitch": 59,
              "velocity": 68,
              "position": 5.0,
              "duration": 0.866667
            },
            {
              "pitch": 55,
              "velocity": 67,
              "position": 5.5,
              "duration": 0.358333
            },
            {
              "pitch": 48,
              "velocity": 56,
              "position": 6.0,
              "duration": 2.033333
            },
            {
              "pitch": 64,
              "velocity": 67,
              "position": 6.5,
              "duration": 2.258333
            },
            {
              "pitch": 59,
              "velocity": 67,
              "position": 7.0,
              "duration": 1.291667
            },
            {
              "pitch": 52,
              "velocity": 67,
              "position": 7.5,
              "duration": 1.483333
            },
            {
              "pitch": 55,
              "velocity": 67,
              "position": 8.0,
              "duration": 0.9
            },
            {
              "pitch": 59,
              "velocity": 67,
              "position": 8.5,
              "duration": 1.05
            },
            {
              "pitch": 48,
              "velocity": 56,
              "position": 9.0,
              "duration": 1.591667
            },
            {
              "pitch": 64,
              "velocity": 67,
              "position": 9.5,
              "duration": 1.358333
            },
            {
              "pitch": 59,
              "velocity": 67,
              "position": 10.0,
              "duration": 0.908333
            },
            {
              "pitch": 52,
              "velocity": 67,
              "position": 10.5,
              "duration": 0.833333
            },
            {
              "pitch": 59,
              "velocity": 67,
              "position": 11.0,
              "duration": 0.933333
            },
            {
              "pitch": 55,
              "velocity": 67,
              "position": 11.5,
              "duration": 0.458333
            }
          ]
        },
        "13": {
          "ctab": {
            "srcChannel": 13,
            "name": "Strings",
            "accType": "PAD",
            "editable": true,
            "mutedNotes": [],
            "mutedChords": [],
            "sourceChordNote": 0,
            "sourceChordType": "Maj7",
            "ctb2Main": {
              "ntr": "ROOT_FIXED",
              "ntt": "MELODY",
              "bassOn": false,
              "noteLowLimit": 36,
              "noteHighLimit": 96,
              "chordRootUpperLimit": 127,
              "rtr": "PITCH_SHIFT"
            }
          },
          "notes": [
            {
              "pitch": 71,
              "velocity": 33,
              "position": 0.0,
              "duration": 11.833333
            }
          ]
        }
      }
    },
    "Ending_A": {
      "type": "Ending_A",
      "sizeInBeats": 12,
      "channels": {
        "9": {
          "ctab": {
            "srcChannel": 9,
            "name": "Drums",
            "accType": "RHYTHM",
            "editable": false,
            "mutedNotes": [],
            "mutedChords": [],
            "sourceChordNote": 0,
            "sourceChordType": "Maj",
            "ctb2Main": {
              "ntr": "ROOT_FIXED",
              "ntt": "BYPASS",
              "bassOn": false,
              "noteLowLimit": 20,
              "noteHighLimit": 127,
              "chordRootUpperLimit": 127,
              "rtr": "RETRIGGER"
            }
          },
          "notes": [
            {
              "pitch": 35,
              "velocity": 40,
              "position": 0.0,
              "duration": 0.208333
            },
            {
              "pitch": 69,
              "velocity": 40,
              "position": 0.0,
              "duration": 0.208333
            },
            {
              "pitch": 69,
              "velocity": 30,
              "position": 0.5,
              "duration": 0.208333
            },
            {
              "pitch": 37,
              "velocity": 45,
              "position": 1.0,
              "duration": 0.208333
            },
            {
              "pitch": 69,
              "velocity": 30,
              "position": 1.0,
              "duration": 0.208333
            },
            {
              "pitch": 69,
              "velocity": 20,
              "position": 1.25,
              "duration": 0.208333
            },
            {
              "pitch": 69,
              "velocity": 30,
              "position": 1.5,
              "duration": 0.208333
            },
            {
              "pitch": 37,
              "velocity": 40,
              "position": 2.0,
              "duration": 0.208333
            },
            {
              "pitch": 69,
              "velocity": 40,
              "position": 2.0,
              "duration": 0.208333
            },
            {
              "pitch": 69,
              "velocity": 30,
              "position": 2.5,
              "duration": 0.208333
            },
            {
              "pitch": 35,
              "velocity": 40,
              "position": 3.0,
              "duration": 0.208333
            },
            {
              "pitch": 69,
              "velocity": 40,
              "position": 3.0,
              "duration": 0.208333
            },
            {
              "pitch": 69,
              "velocity": 30,
              "position": 3.5,
              "duration": 0.208333
            },
            {
              "pitch": 37,
              "velocity": 45,
              "position": 4.0,
              "duration": 0.208333
            },
            {
              "pitch": 69,
              "velocity": 30,
              "position": 4.0,
              "duration": 0.208333
            },
            {
              "pitch": 69,
              "velocity": 20,
              "position": 4.25,
              "duration": 0.208333
            },
            {
              "pitch": 69,
              "velocity": 30,
              "position": 4.5,
              "duration": 0.208333
            },
            {
              "pitch": 37,
              "velocity": 40,
              "position": 5.0,
              "duration": 0.208333
            },
            {
              "pitch": 69,
              "velocity": 40,
              "position": 5.0,
              "duration": 0.208333
            },
            {
              "pitch": 69,
              "velocity": 30,
              "position": 5.5,
              "duration": 0.208333
            },
            {
              "pitch": 35,
              "velocity": 50,
              "position": 6.0,
              "duration": 0.208333
            },
            {
              "pitch": 69,
              "velocity": 40,
              "position": 6.0,
              "duration": 0.208333
            },
            {
              "pitch": 69,
              "velocity": 30,
              "position": 6.5,
              "duration": 0.208333
            },
            {
              "pitch": 37,
              "velocity": 50,
              "position": 7.0,
              "duration": 0.208333
            },
            {
              "pitch": 69,
              "velocity": 40,
              "position": 7.0,
              "duration": 0.208333
            },
            {
              "pitch": 69,
              "velocity": 30,
              "position": 7.5,
              "duration": 0.208333
            },
            {
              "pitch": 37,
              "velocity": 50,
              "position": 8.0,
              "duration": 0.208333
            },
            {
              "pitch": 69,
              "velocity": 40,
              "position": 8.0,
              "duration": 0.208333
            },
            {
              "pitch": 69,
              "velocity": 30,
              "position": 8.5,
              "duration": 0.208333
            },
            {
              "pitch": 35,
              "velocity": 50,
              "position": 9.0,
              "duration": 0.208333
            },
            {
              "pitch": 69,
              "velocity": 40,
              "position": 9.0,
              "duration": 0.208333
            },
            {
              "pitch": 69,
              "velocity": 30,
              "position": 9.5,
              "duration": 0.208333
            },
            {
              "pitch": 37,
              "velocity": 50,
              "position": 10.0,
              "duration": 0.208333
            },
            {
              "pitch": 69,
              "velocity": 40,
              "position": 10.0,
              "duration": 0.208333
            },
            {
              "pitch": 69,
              "velocity": 30,
              "position": 10.5,
              "duration": 0.208333
            },
            {
              "pitch": 37,
              "velocity": 50,
              "position": 11.0,
              "duration": 0.208333
            },
            {
              "pitch": 69,
              "velocity": 40,
              "position": 11.0,
              "duration": 0.208333
            },
            {
              "pitch": 69,
              "velocity": 30,
              "position": 11.5,
              "duration": 0.208333
            }
          ]
        },
        "10": {
          "ctab": {
            "srcChannel": 10,
            "name": "Bass",
            "accType": "BASS",
            "editable": true,
            "mutedNotes": [],
            "mutedChords": [],
            "sourceChordNote": 0,
            "sourceChordType": "Maj7",
            "ctb2Main": {
              "ntr": "ROOT_TRANSPOSITION",
              "ntt": "BYPASS",
              "bassOn": true,
              "noteLowLimit": 20,
              "noteHighLimit": 60,
              "chordRootUpperLimit": 127,
              "rtr": "NOTE_GENERATOR"
            }
          },
          "notes": [
            {
              "pitch": 36,
              "velocity": 57,
              "position": 0.0,
              "duration": 1.958333
            },
            {
              "pitch": 36,
              "velocity": 57,
              "position": 2.0,
              "duration": 0.958333
            },
            {
              "pitch": 36,
              "velocity": 57,
              "position": 3.0,
              "duration": 1.958333
            },
            {
              "pitch": 36,
              "velocity": 57,
              "position": 5.0,
              "duration": 0.958333
            },
            {
              "pitch": 36,
              "velocity": 61,
              "position": 6.0,
              "duration": 2.016667
            },
            {
              "pitch": 31,
              "velocity": 61,
              "position": 8.016667,
              "duration": 0.941667
            },
            {
              "pitch": 36,
              "velocity": 61,
              "position": 9.0,
              "duration": 2.016667
            },
            {
              "pitch": 31,
              "velocity": 61,
              "position": 11.016667,
              "duration": 0.941667
            }
          ]
        },
        "11": {
          "ctab": {
            "srcChannel": 11,
            "name": "Piano",
            "accType": "CHORD1",
            "editable": true,
            "mutedNotes": [],
            "mutedChords": [],
            "sourceChordNote": 0,
            "sourceChordType": "Maj7",
            "ctb2Main": {
              "ntr": "ROOT_FIXED",
              "ntt": "CHORD",
              "bassOn": false,
              "noteLowLimit": 48,
              "noteHighLimit": 84,
              "chordRootUpperLimit": 127,
              "rtr": "NOTE_GENERATOR"
            }
          },
          "notes": [
            {
              "pitch": 48,
              "velocity": 31,
              "position": 0.0,
              "duration": 1.516667
            },
            {
              "pitch": 55,
              "velocity": 38,
              "position": 0.0,
              "duration": 1.55
            },
            {
              "pitch": 59,
              "velocity": 61,
              "position": 0.016667,
              "duration": 1.216667
            },
            {
              "pitch": 64,
              "velocity": 51,
              "position": 0.191667,
              "duration": 1.041667
            },
            {
              "pitch": 67,
              "velocity": 45,
              "position": 0.283333,
              "duration": 0.966667
            },
            {
              "pitch": 55,
              "velocity": 21,
              "position": 2.0,
              "duration": 1.0
            },
            {
              "pitch": 64,
              "velocity": 42,
              "position": 2.0,
              "duration": 1.0
            },
            {
              "pitch": 59,
              "velocity": 50,
              "position": 2.016667,
              "duration": 0.983333
            },
            {
              "pitch": 48,
              "velocity": 44,
              "position": 3.0,
              "duration": 2.0
            },
            {
              "pitch": 55,
              "velocity": 32,
              "position": 3.508333,
              "duration": 1.491667
            },
            {
              "pitch": 59,
              "velocity": 54,
              "position": 4.008333,
              "duration": 0.991667
            },
            {
              "pitch": 67,
              "velocity": 37,
              "position": 4.025,
              "duration": 0.975
            },
            {
              "pitch": 64,
              "velocity": 60,
              "position": 4.041667,
              "duration": 0.958333
            },
            {
              "pitch": 55,
              "velocity": 21,
              "position": 5.0,
              "duration": 1.0
            },
            {
              "pitch": 64,
              "velocity": 42,
              "position": 5.0,
              "duration": 1.0
            },
            {
              "pitch": 59,
              "velocity": 50,
              "position": 5.016667,
              "duration": 0.983333
            },
            {
              "pitch": 48,
              "velocity": 50,
              "position": 6.016667,
              "duration": 2.1
            },
            {
              "pitch": 55,
              "velocity": 55,
              "position": 6.491667,
              "duration": 1.775
            },
            {
              "pitch": 59,
              "velocity": 52,
              "position": 7.025,
              "duration": 1.758333
            },
            {
              "pitch": 64,
              "velocity": 52,
              "position": 7.041667,
              "duration": 1.741667
            },
            {
              "pitch": 67,
              "velocity": 50,
              "position": 7.058333,
              "duration": 1.791667
            },
            {
              "pitch": 55,
              "velocity": 40,
              "position": 8.516667,
              "duration": 0.483333
            },
            {
              "pitch": 48,
              "velocity": 41,
              "position": 9.0,
              "duration": 2.633333
            },
            {
              "pitch": 55,
              "velocity": 34,
              "position": 9.525,
              "duration": 2.216667
            },
            {
              "pitch": 67,
              "velocity": 51,
              "position": 10.033333,
              "duration": 1.025
            },
            {
              "pitch": 59,
              "velocity": 58,
              "position": 10.508333,
              "duration": 1.041667
            },
            {
              "pitch": 64,
              "velocity": 61,
              "position": 11.05,
              "duration": 0.616667
            },
            {
              "pitch": 67,
              "velocity": 63,
              "position": 11.566667,
              "duration": 0.433333
            }
          ]
        },
        "12": {
          "ctab": {
            "srcChannel": 12,
            "name": "Guitar",
            "accType": "CHORD2",
            "editable": true,
            "mutedNotes": [],
            "mutedChords": [],
            "sourceChordNote": 0,
            "sourceChordType": "Maj7",
            "ctb2Main": {
              "ntr": "ROOT_FIXED",
              "ntt": "CHORD",
              "bassOn": false,
              "noteLowLimit": 40,
              "noteHighLimit": 76,
              "chordRootUpperLimit": 127,
              "rtr": "NOTE_GENERATOR"
            }
          },
          "notes": [
            {
              "pitch": 48,
              "velocity": 51,
              "position": 0.0,
              "duration": 1.958333
            },
            {
              "pitch": 52,
              "velocity": 60,
              "position": 0.5,
              "duration": 1.458333
            },
            {
              "pitch": 55,
              "velocity": 60,
              "position": 1.0,
              "duration": 0.783333
            },
            {
              "pitch": 59,
              "velocity": 60,
              "position": 1.5,
              "duration": 0.458333
            },
            {
              "pitch": 59,
              "velocity": 61,
              "position": 2.0,
              "duration": 0.866667
            },
            {
              "pitch": 55,
              "velocity": 60,
              "position": 2.5,
              "duration": 0.358333
            },
            {
              "pitch": 48,
              "velocity": 51,
              "position": 3.0,
              "duration": 1.958333
            },
            {
              "pitch": 52,
              "velocity": 60,
              "position": 3.5,
              "duration": 1.458333
            },
            {
              "pitch": 55,
              "velocity": 60,
              "position": 4.0,
              "duration": 0.783333
            },
            {
              "pitch": 59,
              "velocity": 60,
              "position": 4.5,
              "duration": 0.458333
            },
            {
              "pitch": 59,
              "velocity": 61,
              "position": 5.0,
              "duration": 0.866667
            },
            {
              "pitch": 55,
              "velocity": 60,
              "position": 5.5,
              "duration": 0.358333
            },
            {
              "pitch": 64,
              "velocity": 61,
              "position": 6.0,
              "duration": 2.741667
            },
            {
              "pitch": 52,
              "velocity": 60,
              "position": 6.5,
              "duration": 1.925
            },
            {
              "pitch": 55,
              "velocity": 60,
              "position": 7.0,
              "duration": 0.783333
            },
            {
              "pitch": 59,
              "velocity": 71,
              "position": 7.5,
              "duration": 0.516667
            },
            {
              "pitch": 55,
              "velocity": 60,
              "position": 8.0,
              "duration": 0.866667
            },
            {
              "pitch": 52,
              "velocity": 56,
              "position": 8.5,
              "duration": 0.458333
            },
            {
              "pitch": 64,
              "velocity": 61,
              "position": 9.0,
              "duration": 2.741667
            },
            {
              "pitch": 52,
              "velocity": 60,
              "position": 9.5,
              "duration": 1.925
            },
            {
              "pitch": 55,
              "velocity": 60,
              "position": 10.0,
              "duration": 0.783333
            },
            {
              "pitch": 59,
              "velocity": 71,
              "position": 10.5,
              "duration": 0.516667
            },
            {
              "pitch": 55,
              "velocity": 60,
              "position": 11.0,
              "duration": 0.866667
            },
            {
              "pitch": 52,
              "velocity": 56,
              "position": 11.5,
              "duration": 0.458333
            }
          ]
        },
        "13": {
          "ctab": {
            "srcChannel": 13,
            "name": "Strings",
            "accType": "PAD",
            "editable": true,
            "mutedNotes": [],
            "mutedChords": [],
            "sourceChordNote": 0,
            "sourceChordType": "Maj7",
            "ctb2Main": {
              "ntr": "ROOT_FIXED",
              "ntt": "MELODY",
              "bassOn": false,
              "noteLowLimit": 36,
              "noteHighLimit": 96,
              "chordRootUpperLimit": 127,
              "rtr": "PITCH_SHIFT"
            }
          },
          "notes": [
            {
              "pitch": 55,
              "velocity": 40,
              "position": 0.0,
              "duration": 12.0
            }
          ]
        }
      }
    }
  }
}