{
  "name": "Luna Huapango 3/4 Argentina",
  "tempo": 85,
  "timeSignature": "3/4",
  "ticksPerQuarter": 120,
  "sffType": "SFF1",
  "division": "BINARY",
  "channelPrograms": {
    "9": 0,
    "10": 32,
    "11": 0,
    "12": 24,
    "13": 48
  },
  "parts": {
    "Intro_A": {
      "type": "Intro_A",
      "sizeInBeats": 18,
      "channels": {
        "9": {
          "ctab": {
            "srcChannel": 9,
            "name": "Drums",
            "accType": "RHYTHM",
            "editable": false,
            "mutedNotes": [],
            "mutedChords": [],
            "sourceChordNote": 0,
            "sourceChordType": "Maj",
            "ctb2Main": {
              "ntr": "ROOT_FIXED",
              "ntt": "BYPASS",
              "bassOn": false,
              "noteLowLimit": 20,
              "noteHighLimit": 127,
              "chordRootUpperLimit": 127,
              "rtr": "RETRIGGER"
            }
          },
          "notes": [
            {
              "pitch": 37,
              "velocity": 84,
              "position": 0.0,
              "duration": 1.0
            },
            {
              "pitch": 37,
              "velocity": 64,
              "position": 1.0,
              "duration": 1.0
            },
            {
              "pitch": 37,
              "velocity": 64,
              "position": 2.0,
              "duration": 1.0
            },
            {
              "pitch": 37,
              "velocity": 84,
              "position": 3.0,
              "duration": 1.0
            },
            {
              "pitch": 37,
              "velocity": 64,
              "position": 4.0,
              "duration": 1.0
            },
            {
              "pitch": 37,
              "velocity": 64,
              "position": 5.0,
              "duration": 1.0
            },
            {
              "pitch": 35,
              "velocity": 40,
              "position": 6.0,
              "duration": 0.208333
            },
            {
              "pitch": 42,
              "velocity": 40,
              "position": 6.0,
              "duration": 0.208333
            },
            {
              "pitch": 42,
              "velocity": 40,
              "position": 6.5,
              "duration": 0.208333
            },
            {
              "pitch": 35,
              "velocity": 40,
              "position": 6.75,
              "duration": 0.208333
            },
            {
              "pitch": 41,
              "velocity": 40,
              "position": 6.75,
              "duration": 0.208333
            },
            {
              "pitch": 35,
              "velocity": 40,
              "position": 7.0,
              "duration": 0.208333
            },
            {
              "pitch": 42,
              "velocity": 40,
              "position": 7.0,
              "duration": 0.208333
            },
            {
              "pitch": 87,
              "velocity": 40,
              "position": 7.0,
              "duration": 0.208333
            },
            {
              "pitch": 37,
              "velocity": 50,
              "position": 7.5,
              "duration": 0.208333
            },
            {
              "pitch": 42,
              "velocity": 40,
              "position": 7.5,
              "duration": 0.208333
            },
            {
              "pitch": 35,
              "velocity": 40,
              "position": 8.0,
              "duration": 0.208333
            },
            {
              "pitch": 42,
              "velocity": 40,
              "position": 8.0,
              "duration": 0.208333
            },
            {
              "pitch": 87,
              "velocity": 40,
              "position": 8.0,
              "duration": 0.208333
            },
            {
              "pitch": 42,
              "velocity": 40,
              "position": 8.5,
              "duration": 0.208333
            },
            {
              "pitch": 35,
              "velocity": 40,
              "position": 9.0,
              "duration": 0.208333
            },
            {
              "pitch": 37,
              "velocity": 40,
              "position": 9.0,
              "duration": 0.208333
            },
            {
              "pitch": 42,
              "velocity": 40,
              "position": 9.0,
              "duration": 0.208333
            },
            {
              "pitch": 42,
              "velocity": 40,
              "position": 9.5,
              "duration": 0.208333
            },
            {
              "pitch": 35,
              "velocity": 40,
              "position": 9.75,
              "duration": 0.208333
            },
            {
              "pitch": 35,
              "velocity": 40,
              "position": 10.0,
              "duration": 0.208333
            },
            {
              "pitch": 42,
              "velocity": 40,
              "position": 10.0,
              "duration": 0.208333
            },
            {
              "pitch": 87,
              "velocity": 40,
              "position": 10.0,
              "duration": 0.208333
            },
            {
              "pitch": 37,
              "velocity": 30,
              "position": 10.5,
              "duration": 0.208333
            },
            {
              "pitch": 42,
              "velocity": 40,
              "position": 10.5,
              "duration": 0.208333
            },
            {
              "pitch": 35,
              "velocity": 40,
              "position": 11.0,
              "duration": 0.208333
            },
            {
              "pitch": 42,
              "velocity": 40,
              "position": 11.0,
              "duration": 0.208333
            },
            {
              "pitch": 87,
              "velocity": 40,
              "position": 11.0,
              "duration": 0.208333
            },
            {
              "pitch": 42,
              "velocity": 40,
              "position": 11.5,
              "duration": 0.208333
            },
            {
              "pitch": 35,
              "velocity": 40,
              "position": 12.0,
              "duration": 0.208333
            },
            {
              "pitch": 42,
              "velocity": 40,
              "position": 12.0,
              "duration": 0.208333
            },
            {
              "pitch": 42,
              "velocity": 40,
              "position": 12.5,
              "duration": 0.208333
            },
            {
              "pitch": 35,
              "velocity": 40,
              "position": 12.75,
              "duration": 0.208333
            },
            {
              "pitch": 41,
              "velocity": 40,
              "position": 12.75,
              "duration": 0.208333
            },
            {
              "pitch": 35,
              "velocity": 40,
              "position": 13.0,
              "duration": 0.208333
            },
            {
              "pitch": 42,
              "velocity": 40,
              "position": 13.0,
              "duration": 0.208333
            },
            {
              "pitch": 87,
              "velocity": 40,
              "position": 13.0,
              "duration": 0.208333
            },
            {
              "pitch": 37,
              "velocity": 50,
              "position": 13.5,
              "duration": 0.208333
            },
            {
              "pitch": 42,
              "velocity": 40,
              "position": 13.5,
              "duration": 0.208333
            },
            {
              "pitch": 35,
              "velocity": 40,
              "position": 14.0,
              "duration": 0.208333
            },
            {
              "pitch": 42,
              "velocity": 40,
              "position": 14.0,
              "duration": 0.208333
            },
            {
              "pitch": 87,
              "velocity": 40,
              "position": 14.0,
              "duration": 0.208333
            },
            {
              "pitch": 42,
              "velocity": 40,
              "position": 14.5,
              "duration": 0.208333
            },
            {
              "pitch": 35,
              "velocity": 40,
              "position": 15.0,
              "duration": 0.208333
            },
            {
              "pitch": 37,
              "velocity": 40,
              "position": 15.0,
              "duration": 0.208333
            },
            {
              "pitch": 42,
              "velocity": 40,
              "position": 15.0,
              "duration": 0.208333
            },
            {
              "pitch": 42,
              "velocity": 40,
              "position": 15.5,
              "duration": 0.208333
            },
            {
              "pitch": 35,
              "velocity": 40,
              "position": 15.75,
              "duration": 0.208333
            },
            {
              "pitch": 35,
              "velocity": 40,
              "position": 16.0,
              "duration": 0.208333
            },
            {
              "pitch": 42,
              "velocity": 40,
              "position": 16.0,
              "duration": 0.208333
            },
            {
              "pitch": 87,
              "velocity": 40,
              "position": 16.0,
              "duration": 0.208333
            },
            {
              "pitch": 37,
              "velocity": 30,
              "position": 16.5,
              "duration": 0.208333
            },
            {
              "pitch": 42,
              "velocity": 40,
              "position": 16.5,
              "duration": 0.208333
            },
            {
              "pitch": 45,
              "velocity": 40,
              "position": 16.75,
              "duration": 0.208333
            },
            {
              "pitch": 35,
              "velocity": 40,
              "position": 17.0,
              "duration": 0.208333
            },
            {
              "pitch": 42,
              "velocity": 40,
              "position": 17.0,
              "duration": 0.208333
            },
            {
              "pitch": 48,
              "velocity": 40,
              "position": 17.0,
              "duration": 0.208333
            },
            {
              "pitch": 87,
              "velocity": 40,
              "position": 17.0,
              "duration": 0.208333
            },
            {
              "pitch": 45,
              "velocity": 40,
              "position": 17.25,
              "duration": 0.208333
            },
            {
              "pitch": 42,
              "velocity": 40,
              "position": 17.5,
              "duration": 0.208333
            },
            {
              "pitch": 48,
              "velocity": 50,
              "position": 17.75,
              "duration": 0.208333
            }
          ]
        },
        "10": {
          "ctab": {
            "srcChannel": 10,
            "name": "Bass",
            "accType": "BASS",
            "editable": true,
            "mutedNotes": [],
            "mutedChords": [],
            "sourceChordNote": 0,
            "sourceChordType": "Maj7",
            "ctb2Main": {
              "ntr": "ROOT_TRANSPOSITION",
              "ntt": "BYPASS",
              "bassOn": true,
              "noteLowLimit": 20,
              "noteHighLimit": 60,
              "chordRootUpperLimit": 127,
              "rtr": "NOTE_GENERATOR"
            }
          },
          "notes": [
            {
              "pitch": 36,
              "velocity": 60,
              "position": 6.008333,
              "duration": 1.325
            },
            {
              "pitch": 36,
              "velocity": 61,
              "position": 7.516667,
              "duration": 0.425
            },
            {
              "pitch": 36,
              "velocity": 60,
              "position": 8.008333,
              "duration": 0.95
            },
            {
              "pitch": 36,
              "velocity": 60,
              "position": 9.008333,
              "duration": 1.95
            },
            {
              "pitch": 36,
              "velocity": 60,
              "position": 11.008333,
              "duration": 0.95
            },
            {
              "pitch": 36,
              "velocity": 60,
              "position": 12.008333,
              "duration": 2.433333
            },
            {
              "pitch": 31,
              "velocity": 61,
              "position": 14.525,
              "duration": 0.483333
            },
            {
              "pitch": 36,
              "velocity": 61,
              "position": 15.016667,
              "duration": 2.35
            },
            {
              "pitch": 31,
              "velocity": 61,
              "position": 17.533333,
              "duration": 0.425
            }
          ]
        },
        "11": {
          "ctab": {
            "srcChannel": 11,
            "name": "Piano",
            "accType": "CHORD1",
            "editable": true,
            "mutedNotes": [],
            "mutedChords": [],
            "sourceChordNote": 0,
            "sourceChordType": "Maj7",
            "ctb2Main": {
              "ntr": "ROOT_FIXED",
              "ntt": "CHORD",
              "bassOn": false,
              "noteLowLimit": 48,
              "noteHighLimit": 84,
              "chordRootUpperLimit": 127,
              "rtr": "NOTE_GENERATOR"
            }
          },
          "notes": [
            {
              "pitch": 48,
              "velocity": 45,
              "position": 6.008333,
              "duration": 1.95
            },
            {
              "pitch": 59,
              "velocity": 45,
              "position": 6.033333,
              "duration": 1.925
            },
            {
              "pitch": 60,
              "velocity": 45,
              "position": 6.033333,
              "duration": 1.925
            },
            {
              "pitch": 64,
              "velocity": 45,
              "position": 6.058333,
              "duration": 1.9
            },
            {
              "pitch": 67,
              "velocity": 45,
              "position": 6.066667,
              "duration": 1.891667
            },
            {
              "pitch": 48,
              "velocity": 45,
              "position": 8.008333,
              "duration": 0.95
            },
            {
              "pitch": 59,
              "velocity": 45,
              "position": 8.033333,
              "duration": 0.925
            },
            {
              "pitch": 60,
              "velocity": 45,
              "position": 8.033333,
              "duration": 0.925
            },
            {
              "pitch": 64,
              "velocity": 45,
              "position": 8.058333,
              "duration": 0.9
            },
            {
              "pitch": 67,
              "velocity": 45,
              "position": 8.066667,
              "duration": 0.891667
            },
            {
              "pitch": 48,
              "velocity": 45,
              "position": 9.008333,
              "duration": 1.408333
            },
            {
              "pitch": 59,
              "velocity": 45,
              "position": 9.033333,
              "duration": 1.383333
            },
            {
              "pitch": 60,
              "velocity": 45,
              "position": 9.033333,
              "duration": 1.383333
            },
            {
              "pitch": 64,
              "velocity": 45,
              "position": 9.058333,
              "duration": 1.358333
            },
            {
              "pitch": 67,
              "velocity": 45,
              "position": 9.066667,
              "duration": 1.35
            },
            {
              "pitch": 48,
              "velocity": 45,
              "position": 10.508333,
              "duration": 1.433333
            },
            {
              "pitch": 59,
              "velocity": 45,
              "position": 10.533333,
              "duration": 1.408333
            },
            {
              "pitch": 60,
              "velocity": 45,
              "position": 10.533333,
              "duration": 1.408333
            },
            {
              "pitch": 64,
              "velocity": 45,
              "position": 10.558333,
              "duration": 1.383333
            },
            {
              "pitch": 67,
              "velocity": 45,
              "position": 10.566667,
              "duration": 1.375
            },
            {
              "pitch": 48,
              "velocity": 45,
              "position": 12.008333,
              "duration": 2.458333
            },
            {
              "pitch": 59,
              "velocity": 45,
              "position": 12.033333,
              "duration": 2.616667
            },
            {
              "pitch": 60,
              "velocity": 45,
              "position": 12.033333,
              "duration": 2.083333
            },
            {
              "pitch": 64,
              "velocity": 45,
              "position": 12.058333,
              "duration": 1.85
            },
            {
              "pitch": 67,
              "velocity": 45,
              "position": 12.066667,
              "duration": 1.425
            },
            {
              "pitch": 71,
              "velocity": 61,
              "position": 13.508333,
              "duration": 0.508333
            },
            {
              "pitch": 67,
              "velocity": 49,
              "position": 14.025,
              "duration": 0.491667
            },
            {
              "pitch": 60,
              "velocity": 56,
              "position": 14.525,
              "duration": 0.466667
            },
            {
              "pitch": 59,
              "velocity": 51,
              "position": 15.0,
              "duration": 2.958333
            },
            {
              "pitch": 62,
              "velocity": 51,
              "position": 15.0,
              "duration": 2.958333
            },
            {
              "pitch": 64,
              "velocity": 51,
              "position": 15.0,
              "duration": 2.958333
            },
            {
              "pitch": 67,
              "velocity": 51,
              "position": 15.0,
              "duration": 2.958333
            },
            {
              "pitch": 48,
              "velocity": 46,
              "position": 15.033333,
              "duration": 2.925
            }
          ]
        },
        "12": {
          "ctab": {
            "srcChannel": 12,
            "name": "Guitar",
            "accType": "CHORD2",
            "editable": true,
            "mutedNotes": [],
            "mutedChords": [],
            "sourceChordNote": 0,
            "sourceChordType": "Maj7",
            "ctb2Main": {
              "ntr": "ROOT_FIXED",
              "ntt": "CHORD",
              "bassOn": false,
              "noteLowLimit": 40,
              "noteHighLimit": 76,
              "chordRootUpperLimit": 127,
              "rtr": "NOTE_GENERATOR"
            }
          },
          "notes": [
            {
              "pitch": 48,
              "velocity": 43,
              "position": 5.975,
              "duration": 0.766667
            },
            {
              "pitch": 55,
              "velocity": 51,
              "position": 5.991667,
              "duration": 0.75
            },
            {
              "pitch": 59,
              "velocity": 51,
              "position": 6.0,
              "duration": 0.741667
            },
            {
              "pitch": 64,
              "velocity": 51,
              "position": 6.016667,
              "duration": 0.725
            },
            {
              "pitch": 67,
              "velocity": 51,
              "position": 6.025,
              "duration": 0.691667
            },
            {
              "pitch": 67,
              "velocity": 47,
              "position": 6.733333,
              "duration": 0.283333
            },
            {
              "pitch": 64,
              "velocity": 54,
              "position": 6.75,
              "duration": 0.25
            },
            {
              "pitch": 59,
              "velocity": 54,
              "position": 6.766667,
              "duration": 0.216667
            },
            {
              "pitch": 55,
              "velocity": 47,
              "position": 6.783333,
              "duration": 0.183333
            },
            {
              "pitch": 55,
              "velocity": 61,
              "position": 6.983333,
              "duration": 0.491667
            },
            {
              "pitch": 59,
              "velocity": 61,
              "position": 7.0,
              "duration": 0.475
            },
            {
              "pitch": 64,
              "velocity": 61,
              "position": 7.016667,
              "duration": 0.475
            },
            {
              "pitch": 67,
              "velocity": 61,
              "position": 7.033333,
              "duration": 0.458333
            },
            {
              "pitch": 48,
              "velocity": 72,
              "position": 7.483333,
              "duration": 0.208333
            },
            {
              "pitch": 55,
              "velocity": 85,
              "position": 7.491667,
              "duration": 0.2
            },
            {
              "pitch": 59,
              "velocity": 85,
              "position": 7.491667,
              "duration": 0.2
            },
            {
              "pitch": 64,
              "velocity": 85,
              "position": 7.5,
              "duration": 0.191667
            },
            {
              "pitch": 67,
              "velocity": 85,
              "position": 7.5,
              "duration": 0.191667
            },
            {
              "pitch": 43,
              "velocity": 40,
              "position": 7.975,
              "duration": 0.508333
            },
            {
              "pitch": 48,
              "velocity": 43,
              "position": 7.983333,
              "duration": 0.5
            },
            {
              "pitch": 55,
              "velocity": 51,
              "position": 8.0,
              "duration": 0.491667
            },
            {
              "pitch": 59,
              "velocity": 51,
              "position": 8.008333,
              "duration": 0.491667
            },
            {
              "pitch": 64,
              "velocity": 51,
              "position": 8.016667,
              "duration": 0.483333
            },
            {
              "pitch": 67,
              "velocity": 51,
              "position": 8.033333,
              "duration": 0.466667
            },
            {
              "pitch": 43,
              "velocity": 54,
              "position": 8.5,
              "duration": 0.166667
            },
            {
              "pitch": 48,
              "velocity": 57,
              "position": 8.5,
              "duration": 0.166667
            },
            {
              "pitch": 55,
              "velocity": 68,
              "position": 8.508333,
              "duration": 0.158333
            },
            {
              "pitch": 59,
              "velocity": 68,
              "position": 8.516667,
              "duration": 0.15
            },
            {
              "pitch": 64,
              "velocity": 68,
              "position": 8.516667,
              "duration": 0.15
            },
            {
              "pitch": 67,
              "velocity": 68,
              "position": 8.516667,
              "duration": 0.15
            },
            {
              "pitch": 48,
              "velocity": 43,
              "position": 9.0,
              "duration": 0.741667
            },
            {
              "pitch": 55,
              "velocity": 51,
              "position": 9.008333,
              "duration": 0.733333
            },
            {
              "pitch": 59,
              "velocity": 51,
              "position": 9.008333,
              "duration": 0.733333
            },
            {
              "pitch": 64,
              "velocity": 51,
              "position": 9.016667,
              "duration": 0.725
            },
            {
              "pitch": 67,
              "velocity": 51,
              "position": 9.016667,
              "duration": 0.7
            },
            {
              "pitch": 67,
              "velocity": 47,
              "position": 9.733333,
              "duration": 0.283333
            },
            {
              "pitch": 64,
              "velocity": 54,
              "position": 9.75,
              "duration": 0.25
            },
            {
              "pitch": 59,
              "velocity": 54,
              "position": 9.766667,
              "duration": 0.216667
            },
            {
              "pitch": 55,
              "velocity": 47,
              "position": 9.783333,
              "duration": 0.183333
            },
            {
              "pitch": 55,
              "velocity": 61,
              "position": 9.983333,
              "duration": 0.491667
            },
            {
              "pitch": 59,
              "velocity": 61,
              "position": 10.0,
              "duration": 0.475
            },
            {
              "pitch": 64,
              "velocity": 61,
              "position": 10.016667,
              "duration": 0.475
            },
            {
              "pitch": 67,
              "velocity": 61,
              "position": 10.033333,
              "duration": 0.458333
            },
            {
              "pitch": 48,
              "velocity": 72,
              "position": 10.483333,
              "duration": 0.208333
            },
            {
              "pitch": 55,
              "velocity": 85,
              "position": 10.491667,
              "duration": 0.2
            },
            {
              "pitch": 59,
              "velocity": 85,
              "position": 10.491667,
              "duration": 0.2
            },
            {
              "pitch": 64,
              "velocity": 85,
              "position": 10.5,
              "duration": 0.191667
            },
            {
              "pitch": 67,
              "velocity": 85,
              "position": 10.5,
              "duration": 0.191667
            },
            {
              "pitch": 48,
              "velocity": 43,
              "position": 10.975,
              "duration": 0.508333
            },
            {
              "pitch": 55,
              "velocity": 51,
              "position": 10.991667,
              "duration": 0.5
            },
            {
              "pitch": 59,
              "velocity": 51,
              "position": 11.0,
              "duration": 0.491667
            },
            {
              "pitch": 64,
              "velocity": 51,
              "position": 11.016667,
              "duration": 0.483333
            },
            {
              "pitch": 67,
              "velocity": 51,
              "position": 11.025,
              "duration": 0.475
            },
            {
              "pitch": 48,
              "velocity": 57,
              "position": 11.5,
              "duration": 0.166667
            },
            {
              "pitch": 55,
              "velocity": 68,
              "position": 11.508333,
              "duration": 0.158333
            },
            {
              "pitch": 59,
              "velocity": 68,
              "position": 11.508333,
              "duration": 0.158333
            },
            {
              "pitch": 64,
              "velocity": 68,
              "position": 11.516667,
              "duration": 0.15
            },
            {
              "pitch": 67,
              "velocity": 68,
              "position": 11.516667,
              "duration": 0.15
            },
            {
              "pitch": 48,
              "velocity": 43,
              "position": 12.0,
              "duration": 0.741667
            },
            {
              "pitch": 55,
              "velocity": 51,
              "position": 12.008333,
              "duration": 0.733333
            },
            {
              "pitch": 59,
              "velocity": 51,
              "position": 12.008333,
              "duration": 0.733333
            },
            {
              "pitch": 64,
              "velocity": 51,
              "position": 12.016667,
              "duration": 0.725
            },
            {
              "pitch": 67,
              "velocity": 51,
              "position": 12.016667,
              "duration": 0.7
            },
            {
              "pitch": 67,
              "velocity": 47,
              "position": 12.733333,
              "duration": 0.283333
            },
            {
              "pitch": 64,
              "velocity": 54,
              "position": 12.75,
              "duration": 0.25
            },
            {
              "pitch": 59,
              "velocity": 54,
              "position": 12.766667,
              "duration": 0.216667
            },
            {
              "pitch": 55,
              "velocity": 47,
              "position": 12.783333,
              "duration": 0.183333
            },
            {
              "pitch": 55,
              "velocity": 61,
              "position": 12.983333,
              "duration": 0.316667
            },
            {
              "pitch": 59,
              "velocity": 61,
              "position": 13.0,
              "duration": 0.283333
            },
            {
              "pitch": 64,
              "velocity": 61,
              "position": 13.016667,
              "duration": 0.25
            },
            {
              "pitch": 67,
              "velocity": 61,
              "position": 13.033333,
              "duration": 0.216667
            },
            {
              "pitch": 67,
              "velocity": 42,
              "position": 13.266667,
              "duration": 0.225
            },
            {
              "pitch": 64,
              "velocity": 48,
              "position": 13.283333,
              "duration": 0.208333
            },
            {
              "pitch": 59,
              "velocity": 48,
              "position": 13.3,
              "duration": 0.175
            },
            {
              "pitch": 55,
              "velocity": 42,
              "position": 13.316667,
              "duration": 0.158333
            },
            {
              "pitch": 48,
              "velocity": 72,
              "position": 13.483333,
              "duration": 0.208333
            },
            {
              "pitch": 55,
              "velocity": 85,
              "position": 13.491667,
              "duration": 0.2
            },
            {
              "pitch": 59,
              "velocity": 85,
              "position": 13.491667,
              "duration": 0.2
            },
            {
              "pitch": 64,
              "velocity": 85,
              "position": 13.5,
              "duration": 0.191667
            },
            {
              "pitch": 67,
              "velocity": 85,
              "position": 13.5,
              "duration": 0.191667
            },
            {
              "pitch": 55,
              "velocity": 39,
              "position": 13.983333,
              "duration": 0.516667
            },
            {
              "pitch": 59,
              "velocity": 39,
              "position": 14.0,
              "duration": 0.5
            },
            {
              "pitch": 64,
              "velocity": 39,
              "position": 14.016667,
              "duration": 0.5
            },
            {
              "pitch": 67,
              "velocity": 39,
              "position": 14.033333,
              "duration": 0.483333
            },
            {
              "pitch": 48,
              "velocity": 51,
              "position": 14.508333,
              "duration": 0.175
            },
            {
              "pitch": 55,
              "velocity": 61,
              "position": 14.516667,
              "duration": 0.166667
            },
            {
              "pitch": 59,
              "velocity": 61,
              "position": 14.516667,
              "duration": 0.166667
            },
            {
              "pitch": 64,
              "velocity": 61,
              "position": 14.525,
              "duration": 0.158333
            },
            {
              "pitch": 67,
              "velocity": 61,
              "position": 14.525,
              "duration": 0.158333
            },
            {
              "pitch": 48,
              "velocity": 47,
              "position": 14.991667,
              "duration": 0.775
            },
            {
              "pitch": 55,
              "velocity": 56,
              "position": 15.0,
              "duration": 0.766667
            },
            {
              "pitch": 59,
              "velocity": 56,
              "position": 15.0,
              "duration": 0.75
            },
            {
              "pitch": 64,
              "velocity": 56,
              "position": 15.008333,
              "duration": 0.725
            },
            {
              "pitch": 67,
              "velocity": 56,
              "position": 15.008333,
              "duration": 0.708333
            },
            {
              "pitch": 67,
              "velocity": 42,
              "position": 15.733333,
              "duration": 0.283333
            },
            {
              "pitch": 64,
              "velocity": 48,
              "position": 15.75,
              "duration": 0.25
            },
            {
              "pitch": 59,
              "velocity": 48,
              "position": 15.766667,
              "duration": 0.216667
            },
            {
              "pitch": 55,
              "velocity": 42,
              "position": 15.783333,
              "duration": 0.183333
            },
            {
              "pitch": 55,
              "velocity": 61,
              "position": 15.983333,
              "duration": 0.5
            },
            {
              "pitch": 59,
              "velocity": 61,
              "position": 16.0,
              "duration": 0.483333
            },
            {
              "pitch": 64,
              "velocity": 61,
              "position": 16.016667,
              "duration": 0.483333
            },
            {
              "pitch": 67,
              "velocity": 61,
              "position": 16.033333,
              "duration": 0.466667
            },
            {
              "pitch": 48,
              "velocity": 74,
              "position": 16.491667,
              "duration": 0.191667
            },
            {
              "pitch": 55,
              "velocity": 88,
              "position": 16.5,
              "duration": 0.183333
            },
            {
              "pitch": 59,
              "velocity": 88,
              "position": 16.5,
              "duration": 0.183333
            },
            {
              "pitch": 64,
              "velocity": 88,
              "position": 16.508333,
              "duration": 0.175
            },
            {
              "pitch": 67,
              "velocity": 88,
              "position": 16.508333,
              "duration": 0.175
            },
            {
              "pitch": 55,
              "velocity": 51,
              "position": 16.975,
              "duration": 0.516667
            },
            {
              "pitch": 59,
              "velocity": 51,
              "position": 16.991667,
              "duration": 0.5
            },
            {
              "pitch": 64,
              "velocity": 51,
              "position": 17.008333,
              "duration": 0.5
            },
            {
              "pitch": 67,
              "velocity": 51,
              "position": 17.025,
              "duration": 0.483333
            },
            {
              "pitch": 48,
              "velocity": 51,
              "position": 17.5,
              "duration": 0.275
            },
            {
              "pitch": 55,
              "velocity": 61,
              "position": 17.508333,
              "duration": 0.266667
            },
            {
              "pitch": 59,
              "velocity": 61,
              "position": 17.508333,
              "duration": 0.266667
            },
            {
              "pitch": 64,
              "velocity": 61,
              "position": 17.516667,
              "duration": 0.258333
            },
            {
              "pitch": 67,
              "velocity": 61,
              "position": 17.516667,
              "duration": 0.258333
            },
            {
              "pitch": 43,
              "velocity": 50,
              "position": 17.975,
              "duration": 0.766667
            },
            {
              "pitch": 48,
              "velocity": 53,
              "position": 17.983333,
              "duration": 0.758333
            }
          ]
        },
        "13": {
          "ctab": {
            "srcChannel": 13,
            "name": "Strings",
            "accType": "PAD",
            "editable": true,
            "mutedNotes": [],
            "mutedChords": [],
            "sourceChordNote": 0,
            "sourceChordType": "Maj7",
            "ctb2Main": {
              "ntr": "ROOT_FIXED",
              "ntt": "MELODY",
              "bassOn": false,
              "noteLowLimit": 36,
              "noteHighLimit": 96,
              "chordRootUpperLimit": 127,
              "rtr": "PITCH_SHIFT"
            }
          },
          "notes": [
            {
              "pitch": 55,
              "velocity": 40,
              "position": 6.016667,
              "duration": 100.925
            },
            {
              "pitch": 52,
              "velocity": 40,
              "position": 6.025,
              "duration": 100.916667
            }
          ]
        }
      }
    },
    "Main_A": {
      "type": "Main_A",
      "sizeInBeats": 12,
      "channels": {
        "9": {
          "ctab": {
            "srcChannel": 9,
            "name": "Drums",
            "accType": "RHYTHM",
            "editable": false,
            "mutedNotes": [],
            "mutedChords": [],
            "sourceChordNote": 0,
            "sourceChordType": "Maj",
            "ctb2Main": {
              "ntr": "ROOT_FIXED",
              "ntt": "BYPASS",
              "bassOn": false,
              "noteLowLimit": 20,
              "noteHighLimit": 127,
              "chordRootUpperLimit": 127,
              "rtr": "RETRIGGER"
            }
          },
          "notes": [
            {
              "pitch": 35,
              "velocity": 50,
              "position": 0.0,
              "duration": 0.208333
            },
            {
              "pitch": 42,
              "velocity": 50,
              "position": 0.0,
              "duration": 0.208333
            },
            {
              "pitch": 49,
              "velocity": 50,
              "position": 0.0,
              "duration": 0.208333
            },
            {
              "pitch": 42,
              "velocity": 50,
              "position": 0.5,
              "duration": 0.208333
            },
            {
              "pitch": 35,
              "velocity": 50,
              "position": 0.75,
              "duration": 0.208333
            },
            {
              "pitch": 35,
              "velocity": 50,
              "position": 1.0,
              "duration": 0.208333
            },
            {
              "pitch": 42,
              "velocity": 50,
              "position": 1.0,
              "duration": 0.208333
            },
            {
              "pitch": 87,
              "velocity": 50,
              "position": 1.0,
              "duration": 0.208333
            },
            {
              "pitch": 37,
              "velocity": 60,
              "position": 1.5,
              "duration": 0.208333
            },
            {
              "pitch": 42,
              "velocity": 50,
              "position": 1.5,
              "duration": 0.208333
            },
            {
              "pitch": 35,
              "velocity": 50,
              "position": 2.0,
              "duration": 0.208333
            },
            {
              "pitch": 42,
              "velocity": 50,
              "position": 2.0,
              "duration": 0.208333
            },
            {
              "pitch": 87,
              "velocity": 50,
              "position": 2.0,
              "duration": 0.208333
            },
            {
              "pitch": 42,
              "velocity": 50,
              "position": 2.5,
              "duration": 0.208333
            },
            {
              "pitch": 35,
              "velocity": 50,
              "position": 3.0,
              "duration": 0.208333
            },
            {
              "pitch": 37,
              "velocity": 50,
              "position": 3.0,
              "duration": 0.208333
            },
            {
              "pitch": 42,
              "velocity": 50,
              "position": 3.0,
              "duration": 0.208333
            },
            {
              "pitch": 42,
              "velocity": 50,
              "position": 3.5,
              "duration": 0.208333
            },
            {
              "pitch": 35,
              "velocity": 50,
              "position": 3.75,
              "duration": 0.208333
            },
            {
              "pitch": 35,
              "velocity": 50,
              "position": 4.0,
              "duration": 0.208333
            },
            {
              "pitch": 42,
              "velocity": 50,
              "position": 4.0,
              "duration": 0.208333
            },
            {
              "pitch": 87,
              "velocity": 50,
              "position": 4.0,
              "duration": 0.208333
            },
            {
              "pitch": 37,
              "velocity": 40,
              "position": 4.5,
              "duration": 0.208333
            },
            {
              "pitch": 42,
              "velocity": 50,
              "position": 4.5,
              "duration": 0.208333
            },
            {
              "pitch": 35,
              "velocity": 50,
              "position": 5.0,
              "duration": 0.208333
            },
            {
              "pitch": 42,
              "velocity": 50,
              "position": 5.0,
              "duration": 0.208333
            },
            {
              "pitch": 87,
              "velocity": 50,
              "position": 5.0,
              "duration": 0.208333
            },
            {
              "pitch": 42,
              "velocity": 50,
              "position": 5.5,
              "duration": 0.208333
            },
            {
              "pitch": 48,
              "velocity": 50,
              "position": 5.5,
              "duration": 0.208333
            },
            {
              "pitch": 45,
              "velocity": 40,
              "position": 5.75,
              "duration": 0.208333
            },
            {
              "pitch": 35,
              "velocity": 50,
              "position": 6.0,
              "duration": 0.208333
            },
            {
              "pitch": 42,
              "velocity": 50,
              "position": 6.0,
              "duration": 0.208333
            },
            {
              "pitch": 42,
              "velocity": 50,
              "position": 6.5,
              "duration": 0.208333
            },
            {
              "pitch": 35,
              "velocity": 50,
              "position": 6.75,
              "duration": 0.208333
            },
            {
              "pitch": 35,
              "velocity": 50,
              "position": 7.0,
              "duration": 0.208333
            },
            {
              "pitch": 42,
              "velocity": 50,
              "position": 7.0,
              "duration": 0.208333
            },
            {
              "pitch": 87,
              "velocity": 50,
              "position": 7.0,
              "duration": 0.208333
            },
            {
              "pitch": 37,
              "velocity": 60,
              "position": 7.5,
              "duration": 0.208333
            },
            {
              "pitch": 42,
              "velocity": 50,
              "position": 7.5,
              "duration": 0.208333
            },
            {
              "pitch": 35,
              "velocity": 50,
              "position": 8.0,
              "duration": 0.208333
            },
            {
              "pitch": 42,
              "velocity": 50,
              "position": 8.0,
              "duration": 0.208333
            },
            {
              "pitch": 87,
              "velocity": 50,
              "position": 8.0,
              "duration": 0.208333
            },
            {
              "pitch": 42,
              "velocity": 50,
              "position": 8.5,
              "duration": 0.208333
            },
            {
              "pitch": 35,
              "velocity": 50,
              "position": 9.0,
              "duration": 0.208333
            },
            {
              "pitch": 37,
              "velocity": 50,
              "position": 9.0,
              "duration": 0.208333
            },
            {
              "pitch": 42,
              "velocity": 50,
              "position": 9.0,
              "duration": 0.208333
            },
            {
              "pitch": 42,
              "velocity": 50,
              "position": 9.5,
              "duration": 0.208333
            },
            {
              "pitch": 35,
              "velocity": 50,
              "position": 9.75,
              "duration": 0.208333
            },
            {
              "pitch": 35,
              "velocity": 50,
              "position": 10.0,
              "duration": 0.208333
            },
            {
              "pitch": 42,
              "velocity": 50,
              "position": 10.0,
              "duration": 0.208333
            },
            {
              "pitch": 87,
              "velocity": 50,
              "position": 10.0,
              "duration": 0.208333
            },
            {
              "pitch": 37,
              "velocity": 40,
              "position": 10.5,
              "duration": 0.208333
            },
            {
              "pitch": 42,
              "velocity": 50,
              "position": 10.5,
              "duration": 0.208333
            },
            {
              "pitch": 35,
              "velocity": 50,
              "position": 11.0,
              "duration": 0.208333
            },
            {
              "pitch": 42,
              "velocity": 50,
              "position": 11.0,
              "duration": 0.208333
            },
            {
              "pitch": 48,
              "velocity": 40,
              "position": 11.0,
              "duration": 0.208333
            },
            {
              "pitch": 87,
              "velocity": 50,
              "position": 11.0,
              "duration": 0.208333
            },
            {
              "pitch": 48,
              "velocity": 40,
              "position": 11.25,
              "duration": 0.208333
            },
            {
              "pitch": 42,
              "velocity": 50,
              "position": 11.5,
              "duration": 0.208333
            },
            {
              "pitch": 45,
              "velocity": 40,
              "position": 11.75,
              "duration": 0.208333
            }
          ]
        },
        "10": {
          "ctab": {
            "srcChannel": 10,
            "name": "Bass",
            "accType": "BASS",
            "editable": true,
            "mutedNotes": [],
            "mutedChords": [],
            "sourceChordNote": 0,
            "sourceChordType": "Maj7",
            "ctb2Main": {
              "ntr": "ROOT_TRANSPOSITION",
              "ntt": "BYPASS",
              "bassOn": true,
              "noteLowLimit": 20,
              "noteHighLimit": 60,
              "chordRootUpperLimit": 127,
              "rtr": "NOTE_GENERATOR"
            }
          },
          "notes": [
            {
              "pitch": 36,
              "velocity": 60,
              "position": 0.008333,
              "duration": 1.95
            },
            {
              "pitch": 36,
              "velocity": 60,
              "position": 2.008333,
              "duration": 0.95
            },
            {
              "pitch": 36,
              "velocity": 60,
              "position": 3.008333,
              "duration": 1.95
            },
            {
              "pitch": 36,
              "velocity": 60,
              "position": 5.008333,
              "duration": 0.95
            },
            {
              "pitch": 36,
              "velocity": 60,
              "position": 6.008333,
              "duration": 2.433333
            },
            {
              "pitch": 31,
              "velocity": 61,
              "position": 8.525,
              "duration": 0.483333
            },
            {
              "pitch": 36,
              "velocity": 61,
              "position": 9.016667,
              "duration": 2.35
            },
            {
              "pitch": 31,
              "velocity": 61,
              "position": 11.533333,
              "duration": 0.425
            }
          ]
        },
        "11": {
          "ctab": {
            "srcChannel": 11,
            "name": "Piano",
            "accType": "CHORD1",
            "editable": true,
            "mutedNotes": [],
            "mutedChords": [],
            "sourceChordNote": 0,
            "sourceChordType": "Maj7",
            "ctb2Main": {
              "ntr": "ROOT_FIXED",
              "ntt": "CHORD",
              "bassOn": false,
              "noteLowLimit": 48,
              "noteHighLimit": 84,
              "chordRootUpperLimit": 127,
              "rtr": "NOTE_GENERATOR"
            }
          },
          "notes": [
            {
              "pitch": 48,
              "velocity": 45,
              "position": 0.008333,
              "duration": 0.95
            },
            {
              "pitch": 59,
              "velocity": 45,
              "position": 0.033333,
              "duration": 0.925
            },
            {
              "pitch": 60,
              "velocity": 45,
              "position": 0.033333,
              "duration": 0.925
            },
            {
              "pitch": 64,
              "velocity": 45,
              "position": 0.058333,
              "duration": 0.9
            },
            {
              "pitch": 67,
              "velocity": 45,
              "position": 0.066667,
              "duration": 0.891667
            },
            {
              "pitch": 48,
              "velocity": 45,
              "position": 2.008333,
              "duration": 0.95
            },
            {
              "pitch": 59,
              "velocity": 45,
              "position": 2.033333,
              "duration": 0.925
            },
            {
              "pitch": 60,
              "velocity": 45,
              "position": 2.033333,
              "duration": 0.925
            },
            {
              "pitch": 64,
              "velocity": 45,
              "position": 2.058333,
              "duration": 0.9
            },
            {
              "pitch": 67,
              "velocity": 45,
              "position": 2.066667,
              "duration": 0.891667
            },
            {
              "pitch": 48,
              "velocity": 45,
              "position": 3.008333,
              "duration": 0.95
            },
            {
              "pitch": 59,
              "velocity": 45,
              "position": 3.033333,
              "duration": 0.925
            },
            {
              "pitch": 60,
              "velocity": 45,
              "position": 3.033333,
              "duration": 0.925
            },
            {
              "pitch": 64,
              "velocity": 45,
              "position": 3.058333,
              "duration": 0.9
            },
            {
              "pitch": 67,
              "velocity": 45,
              "position": 3.066667,
              "duration": 0.891667
            },
            {
              "pitch": 48,
              "velocity": 45,
              "position": 5.008333,
              "duration": 0.95
            },
            {
              "pitch": 59,
              "velocity": 45,
              "position": 5.033333,
              "duration": 0.925
            },
            {
              "pitch": 60,
              "velocity": 45,
              "position": 5.033333,
              "duration": 0.925
            },
            {
              "pitch": 64,
              "velocity": 45,
              "position": 5.058333,
              "duration": 0.9
            },
            {
              "pitch": 67,
              "velocity": 45,
              "position": 5.066667,
              "duration": 0.891667
            },
            {
              "pitch": 48,
              "velocity": 45,
              "position": 6.008333,
              "duration": 2.458333
            },
            {
              "pitch": 59,
              "velocity": 45,
              "position": 6.033333,
              "duration": 2.616667
            },
            {
              "pitch": 60,
              "velocity": 45,
              "position": 6.033333,
              "duration": 2.083333
            },
            {
              "pitch": 64,
              "velocity": 45,
              "position": 6.058333,
              "duration": 1.85
            },
            {
              "pitch": 67,
              "velocity": 45,
              "position": 6.066667,
              "duration": 1.425
            },
            {
              "pitch": 71,
              "velocity": 61,
              "position": 7.508333,
              "duration": 0.508333
            },
            {
              "pitch": 67,
              "velocity": 49,
              "position": 8.025,
              "duration": 0.491667
            },
            {
              "pitch": 60,
              "velocity": 56,
              "position": 8.525,
              "duration": 0.466667
            },
            {
              "pitch": 59,
              "velocity": 51,
              "position": 9.0,
              "duration": 2.958333
            },
            {
              "pitch": 62,
              "velocity": 51,
              "position": 9.0,
              "duration": 2.958333
            },
            {
              "pitch": 64,
              "velocity": 51,
              "position": 9.0,
              "duration": 2.958333
            },
            {
              "pitch": 67,
              "velocity": 51,
              "position": 9.0,
              "duration": 2.958333
            },
            {
              "pitch": 48,
              "velocity": 46,
              "position": 9.033333,
              "duration": 2.925
            }
          ]
        },
        "12": {
          "ctab": {
            "srcChannel": 12,
            "name": "Guitar",
            "accType": "CHORD2",
            "editable": true,
            "mutedNotes": [],
            "mutedChords": [],
            "sourceChordNote": 0,
            "sourceChordType": "Maj7",
            "ctb2Main": {
              "ntr": "ROOT_FIXED",
              "ntt": "CHORD",
              "bassOn": false,
              "noteLowLimit": 40,
              "noteHighLimit": 76,
              "chordRootUpperLimit": 127,
              "rtr": "NOTE_GENERATOR"
            }
          },
          "notes": [
            {
              "pitch": 55,
              "velocity": 63,
              "position": 0.0,
              "duration": 0.741667
            },
            {
              "pitch": 59,
              "velocity": 63,
              "position": 0.008333,
              "duration": 0.733333
            },
            {
              "pitch": 64,
              "velocity": 63,
              "position": 0.016667,
              "duration": 0.725
            },
            {
              "pitch": 67,
              "velocity": 63,
              "position": 0.033333,
              "duration": 0.683333
            },
            {
              "pitch": 67,
              "velocity": 56,
              "position": 0.733333,
              "duration": 0.283333
            },
            {
              "pitch": 64,
              "velocity": 64,
              "position": 0.75,
              "duration": 0.258333
            },
            {
              "pitch": 59,
              "velocity": 64,
              "position": 0.766667,
              "duration": 0.225
            },
            {
              "pitch": 55,
              "velocity": 56,
              "position": 0.783333,
              "duration": 0.2
            },
            {
              "pitch": 48,
              "velocity": 62,
              "position": 0.983333,
              "duration": 0.483333
            },
            {
              "pitch": 55,
              "velocity": 73,
              "position": 1.0,
              "duration": 0.475
            },
            {
              "pitch": 59,
              "velocity": 73,
              "position": 1.008333,
              "duration": 0.483333
            },
            {
              "pitch": 64,
              "velocity": 73,
              "position": 1.025,
              "duration": 0.466667
            },
            {
              "pitch": 67,
              "velocity": 73,
              "position": 1.033333,
              "duration": 0.458333
            },
            {
              "pitch": 43,
              "velocity": 77,
              "position": 1.483333,
              "duration": 0.208333
            },
            {
              "pitch": 48,
              "velocity": 82,
              "position": 1.483333,
              "duration": 0.208333
            },
            {
              "pitch": 55,
              "velocity": 97,
              "position": 1.491667,
              "duration": 0.2
            },
            {
              "pitch": 59,
              "velocity": 97,
              "position": 1.5,
              "duration": 0.191667
            },
            {
              "pitch": 64,
              "velocity": 97,
              "position": 1.5,
              "duration": 0.191667
            },
            {
              "pitch": 67,
              "velocity": 97,
              "position": 1.5,
              "duration": 0.191667
            },
            {
              "pitch": 48,
              "velocity": 53,
              "position": 1.975,
              "duration": 0.508333
            },
            {
              "pitch": 55,
              "velocity": 63,
              "position": 1.991667,
              "duration": 0.5
            },
            {
              "pitch": 59,
              "velocity": 63,
              "position": 2.0,
              "duration": 0.491667
            },
            {
              "pitch": 64,
              "velocity": 63,
              "position": 2.016667,
              "duration": 0.483333
            },
            {
              "pitch": 67,
              "velocity": 63,
              "position": 2.025,
              "duration": 0.475
            },
            {
              "pitch": 48,
              "velocity": 68,
              "position": 2.5,
              "duration": 0.166667
            },
            {
              "pitch": 55,
              "velocity": 80,
              "position": 2.508333,
              "duration": 0.158333
            },
            {
              "pitch": 59,
              "velocity": 80,
              "position": 2.508333,
              "duration": 0.158333
            },
            {
              "pitch": 64,
              "velocity": 80,
              "position": 2.516667,
              "duration": 0.15
            },
            {
              "pitch": 67,
              "velocity": 80,
              "position": 2.516667,
              "duration": 0.15
            },
            {
              "pitch": 48,
              "velocity": 53,
              "position": 2.975,
              "duration": 0.766667
            },
            {
              "pitch": 55,
              "velocity": 63,
              "position": 2.991667,
              "duration": 0.75
            },
            {
              "pitch": 59,
              "velocity": 63,
              "position": 3.0,
              "duration": 0.741667
            },
            {
              "pitch": 64,
              "velocity": 63,
              "position": 3.016667,
              "duration": 0.725
            },
            {
              "pitch": 67,
              "velocity": 63,
              "position": 3.025,
              "duration": 0.691667
            },
            {
              "pitch": 67,
              "velocity": 56,
              "position": 3.733333,
              "duration": 0.283333
            },
            {
              "pitch": 64,
              "velocity": 64,
              "position": 3.75,
              "duration": 0.25
            },
            {
              "pitch": 59,
              "velocity": 64,
              "position": 3.766667,
              "duration": 0.216667
            },
            {
              "pitch": 55,
              "velocity": 56,
              "position": 3.783333,
              "duration": 0.183333
            },
            {
              "pitch": 55,
              "velocity": 73,
              "position": 3.983333,
              "duration": 0.491667
            },
            {
              "pitch": 59,
              "velocity": 73,
              "position": 4.0,
              "duration": 0.475
            },
            {
              "pitch": 64,
              "velocity": 73,
              "position": 4.016667,
              "duration": 0.475
            },
            {
              "pitch": 67,
              "velocity": 73,
              "position": 4.033333,
              "duration": 0.458333
            },
            {
              "pitch": 48,
              "velocity": 82,
              "position": 4.483333,
              "duration": 0.208333
            },
            {
              "pitch": 55,
              "velocity": 97,
              "position": 4.491667,
              "duration": 0.2
            },
            {
              "pitch": 59,
              "velocity": 97,
              "position": 4.491667,
              "duration": 0.2
            },
            {
              "pitch": 64,
              "velocity": 97,
              "position": 4.5,
              "duration": 0.191667
            },
            {
              "pitch": 67,
              "velocity": 97,
              "position": 4.5,
              "duration": 0.191667
            },
            {
              "pitch": 48,
              "velocity": 53,
              "position": 4.975,
              "duration": 0.4
            },
            {
              "pitch": 55,
              "velocity": 63,
              "position": 4.991667,
              "duration": 0.383333
            },
            {
              "pitch": 59,
              "velocity": 63,
              "position": 5.0,
              "duration": 0.375
            },
            {
              "pitch": 64,
              "velocity": 63,
              "position": 5.016667,
              "duration": 0.358333
            },
            {
              "pitch": 67,
              "velocity": 63,
              "position": 5.025,
              "duration": 0.35
            },
            {
              "pitch": 48,
              "velocity": 62,
              "position": 5.933333,
              "duration": 0.866667
            },
            {
              "pitch": 55,
              "velocity": 73,
              "position": 5.983333,
              "duration": 0.641667
            },
            {
              "pitch": 59,
              "velocity": 73,
              "position": 6.008333,
              "duration": 0.633333
            },
            {
              "pitch": 64,
              "velocity": 80,
              "position": 6.041667,
              "duration": 0.583333
            },
            {
              "pitch": 67,
              "velocity": 97,
              "position": 6.091667,
              "duration": 0.508333
            },
            {
              "pitch": 67,
              "velocity": 102,
              "position": 6.758333,
              "duration": 0.125
            },
            {
              "pitch": 64,
              "velocity": 83,
              "position": 6.783333,
              "duration": 0.133333
            },
            {
              "pitch": 59,
              "velocity": 56,
              "position": 6.825,
              "duration": 0.108333
            },
            {
              "pitch": 48,
              "velocity": 62,
              "position": 6.991667,
              "duration": 0.516667
            },
            {
              "pitch": 55,
              "velocity": 73,
              "position": 7.008333,
              "duration": 0.4
            },
            {
              "pitch": 64,
              "velocity": 63,
              "position": 7.016667,
              "duration": 0.35
            },
            {
              "pitch": 67,
              "velocity": 107,
              "position": 7.016667,
              "duration": 0.341667
            },
            {
              "pitch": 59,
              "velocity": 73,
              "position": 7.025,
              "duration": 0.358333
            },
            {
              "pitch": 55,
              "velocity": 88,
              "position": 7.491667,
              "duration": 0.166667
            },
            {
              "pitch": 64,
              "velocity": 117,
              "position": 7.508333,
              "duration": 0.158333
            },
            {
              "pitch": 67,
              "velocity": 122,
              "position": 7.508333,
              "duration": 0.225
            },
            {
              "pitch": 59,
              "velocity": 107,
              "position": 7.525,
              "duration": 0.15
            },
            {
              "pitch": 67,
              "velocity": 51,
              "position": 8.491667,
              "duration": 0.533333
            },
            {
              "pitch": 64,
              "velocity": 58,
              "position": 8.508333,
              "duration": 0.508333
            },
            {
              "pitch": 59,
              "velocity": 58,
              "position": 8.525,
              "duration": 0.475
            },
            {
              "pitch": 55,
              "velocity": 51,
              "position": 8.541667,
              "duration": 0.45
            },
            {
              "pitch": 48,
              "velocity": 56,
              "position": 8.991667,
              "duration": 0.766667
            },
            {
              "pitch": 55,
              "velocity": 66,
              "position": 9.008333,
              "duration": 0.75
            },
            {
              "pitch": 59,
              "velocity": 66,
              "position": 9.016667,
              "duration": 0.741667
            },
            {
              "pitch": 64,
              "velocity": 66,
              "position": 9.033333,
              "duration": 0.7
            },
            {
              "pitch": 67,
              "velocity": 66,
              "position": 9.041667,
              "duration": 0.675
            },
            {
              "pitch": 67,
              "velocity": 65,
              "position": 9.733333,
              "duration": 0.25
            },
            {
              "pitch": 64,
              "velocity": 74,
              "position": 9.75,
              "duration": 0.233333
            },
            {
              "pitch": 59,
              "velocity": 74,
              "position": 9.766667,
              "duration": 0.216667
            },
            {
              "pitch": 55,
              "velocity": 65,
              "position": 9.783333,
              "duration": 0.2
            },
            {
              "pitch": 48,
              "velocity": 43,
              "position": 10.0,
              "duration": 0.483333
            },
            {
              "pitch": 55,
              "velocity": 51,
              "position": 10.008333,
              "duration": 0.491667
            },
            {
              "pitch": 59,
              "velocity": 51,
              "position": 10.008333,
              "duration": 0.491667
            },
            {
              "pitch": 64,
              "velocity": 51,
              "position": 10.016667,
              "duration": 0.483333
            },
            {
              "pitch": 67,
              "velocity": 51,
              "position": 10.016667,
              "duration": 0.483333
            },
            {
              "pitch": 48,
              "velocity": 80,
              "position": 10.5,
              "duration": 0.125
            },
            {
              "pitch": 55,
              "velocity": 95,
              "position": 10.508333,
              "duration": 0.116667
            },
            {
              "pitch": 59,
              "velocity": 95,
              "position": 10.508333,
              "duration": 0.116667
            },
            {
              "pitch": 64,
              "velocity": 95,
              "position": 10.516667,
              "duration": 0.108333
            },
            {
              "pitch": 67,
              "velocity": 95,
              "position": 10.516667,
              "duration": 0.108333
            },
            {
              "pitch": 67,
              "velocity": 51,
              "position": 11.483333,
              "duration": 0.475
            },
            {
              "pitch": 64,
              "velocity": 58,
              "position": 11.5,
              "duration": 0.458333
            },
            {
              "pitch": 59,
              "velocity": 58,
              "position": 11.516667,
              "duration": 0.441667
            },
            {
              "pitch": 55,
              "velocity": 51,
              "position": 11.533333,
              "duration": 0.425
            }
          ]
        },
        "13": {
          "ctab": {
            "srcChannel": 13,
            "name": "Strings",
            "accType": "PAD",
            "editable": true,
            "mutedNotes": [],
            "mutedChords": [],
            "sourceChordNote": 0,
            "sourceChordType": "Maj7",
            "ctb2Main": {
              "ntr": "ROOT_FIXED",
              "ntt": "MELODY",
              "bassOn": false,
              "noteLowLimit": 36,
              "noteHighLimit": 96,
              "chordRootUpperLimit": 127,
              "rtr": "PITCH_SHIFT"
            }
          },
          "notes": [
            {
              "pitch": 64,
              "velocity": 42,
              "position": 0.016667,
              "duration": 71.925
            },
            {
              "pitch": 60,
              "velocity": 41,
              "position": 0.025,
              "duration": 71.916667
            }
          ]
        }
      }
    },
    "Main_B": {
      "type": "Main_B",
      "sizeInBeats": 12,
      "channels": {
        "9": {
          "ctab": {
            "srcChannel": 9,
            "name": "Drums",
            "accType": "RHYTHM",
            "editable": false,
            "mutedNotes": [],
            "mutedChords": [],
            "sourceChordNote": 0,
            "sourceChordType": "Maj",
            "ctb2Main": {
              "ntr": "ROOT_FIXED",
              "ntt": "BYPASS",
              "bassOn": false,
              "noteLowLimit": 20,
              "noteHighLimit": 127,
              "chordRootUpperLimit": 127,
              "rtr": "RETRIGGER"
            }
          },
          "notes": [
            {
              "pitch": 35,
              "velocity": 50,
              "position": 0.0,
              "duration": 0.208333
            },
            {
              "pitch": 42,
              "velocity": 50,
              "position": 0.0,
              "duration": 0.208333
            },
            {
              "pitch": 49,
              "velocity": 50,
              "position": 0.0,
              "duration": 0.208333
            },
            {
              "pitch": 42,
              "velocity": 50,
              "position": 0.5,
              "duration": 0.208333
            },
            {
              "pitch": 35,
              "velocity": 50,
              "position": 0.75,
              "duration": 0.208333
            },
            {
              "pitch": 35,
              "velocity": 50,
              "position": 1.0,
              "duration": 0.208333
            },
            {
              "pitch": 42,
              "velocity": 50,
              "position": 1.0,
              "duration": 0.208333
            },
            {
              "pitch": 87,
              "velocity": 50,
              "position": 1.0,
              "duration": 0.208333
            },
            {
              "pitch": 37,
              "velocity": 60,
              "position": 1.5,
              "duration": 0.208333
            },
            {
              "pitch": 42,
              "velocity": 50,
              "position": 1.5,
              "duration": 0.208333
            },
            {
              "pitch": 35,
              "velocity": 50,
              "position": 2.0,
              "duration": 0.208333
            },
            {
              "pitch": 42,
              "velocity": 50,
              "position": 2.0,
              "duration": 0.208333
            },
            {
              "pitch": 87,
              "velocity": 50,
              "position": 2.0,
              "duration": 0.208333
            },
            {
              "pitch": 42,
              "velocity": 50,
              "position": 2.5,
              "duration": 0.208333
            },
            {
              "pitch": 35,
              "velocity": 50,
              "position": 3.0,
              "duration": 0.208333
            },
            {
              "pitch": 42,
              "velocity": 50,
              "position": 3.0,
              "duration": 0.208333
            },
            {
              "pitch": 42,
              "velocity": 50,
              "position": 3.5,
              "duration": 0.208333
            },
            {
              "pitch": 48,
              "velocity": 30,
              "position": 3.5,
              "duration": 0.208333
            },
            {
              "pitch": 35,
              "velocity": 40,
              "position": 3.75,
              "duration": 0.208333
            },
            {
              "pitch": 48,
              "velocity": 30,
              "position": 3.75,
              "duration": 0.208333
            },
            {
              "pitch": 35,
              "velocity": 50,
              "position": 4.0,
              "duration": 0.208333
            },
            {
              "pitch": 42,
              "velocity": 50,
              "position": 4.0,
              "duration": 0.208333
            },
            {
              "pitch": 87,
              "velocity": 50,
              "position": 4.0,
              "duration": 0.208333
            },
            {
              "pitch": 37,
              "velocity": 60,
              "position": 4.5,
              "duration": 0.208333
            },
            {
              "pitch": 42,
              "velocity": 50,
              "position": 4.5,
              "duration": 0.208333
            },
            {
              "pitch": 35,
              "velocity": 50,
              "position": 5.0,
              "duration": 0.208333
            },
            {
              "pitch": 42,
              "velocity": 50,
              "position": 5.0,
              "duration": 0.208333
            },
            {
              "pitch": 87,
              "velocity": 50,
              "position": 5.0,
              "duration": 0.208333
            },
            {
              "pitch": 42,
              "velocity": 50,
              "position": 5.5,
              "duration": 0.208333
            },
            {
              "pitch": 35,
              "velocity": 50,
              "position": 6.0,
              "duration": 0.208333
            },
            {
              "pitch": 42,
              "velocity": 50,
              "position": 6.0,
              "duration": 0.208333
            },
            {
              "pitch": 42,
              "velocity": 50,
              "position": 6.5,
              "duration": 0.208333
            },
            {
              "pitch": 48,
              "velocity": 30,
              "position": 6.5,
              "duration": 0.208333
            },
            {
              "pitch": 35,
              "velocity": 40,
              "position": 6.75,
              "duration": 0.208333
            },
            {
              "pitch": 48,
              "velocity": 30,
              "position": 6.75,
              "duration": 0.208333
            },
            {
              "pitch": 35,
              "velocity": 50,
              "position": 7.0,
              "duration": 0.208333
            },
            {
              "pitch": 42,
              "velocity": 50,
              "position": 7.0,
              "duration": 0.208333
            },
            {
              "pitch": 87,
              "velocity": 50,
              "position": 7.0,
              "duration": 0.208333
            },
            {
              "pitch": 37,
              "velocity": 60,
              "position": 7.5,
              "duration": 0.208333
            },
            {
              "pitch": 42,
              "velocity": 50,
              "position": 7.5,
              "duration": 0.208333
            },
            {
              "pitch": 35,
              "velocity": 50,
              "position": 8.0,
              "duration": 0.208333
            },
            {
              "pitch": 42,
              "velocity": 50,
              "position": 8.0,
              "duration": 0.208333
            },
            {
              "pitch": 87,
              "velocity": 50,
              "position": 8.0,
              "duration": 0.208333
            },
            {
              "pitch": 42,
              "velocity": 50,
              "position": 8.5,
              "duration": 0.208333
            },
            {
              "pitch": 35,
              "velocity": 50,
              "position": 9.0,
              "duration": 0.208333
            },
            {
              "pitch": 37,
              "velocity": 50,
              "position": 9.0,
              "duration": 0.208333
            },
            {
              "pitch": 42,
              "velocity": 50,
              "position": 9.0,
              "duration": 0.208333
            },
            {
              "pitch": 42,
              "velocity": 50,
              "position": 9.5,
              "duration": 0.208333
            },
            {
              "pitch": 35,
              "velocity": 50,
              "position": 9.75,
              "duration": 0.208333
            },
            {
              "pitch": 35,
              "velocity": 50,
              "position": 10.0,
              "duration": 0.208333
            },
            {
              "pitch": 42,
              "velocity": 50,
              "position": 10.0,
              "duration": 0.208333
            },
            {
              "pitch": 87,
              "velocity": 50,
              "position": 10.0,
              "duration": 0.208333
            },
            {
              "pitch": 37,
              "velocity": 40,
              "position": 10.5,
              "duration": 0.208333
            },
            {
              "pitch": 42,
              "velocity": 50,
              "position": 10.5,
              "duration": 0.208333
            },
            {
              "pitch": 35,
              "velocity": 50,
              "position": 11.0,
              "duration": 0.208333
            },
            {
              "pitch": 42,
              "velocity": 50,
              "position": 11.0,
              "duration": 0.208333
            },
            {
              "pitch": 48,
              "velocity": 40,
              "position": 11.0,
              "duration": 0.208333
            },
            {
              "pitch": 87,
              "velocity": 50,
              "position": 11.0,
              "duration": 0.208333
            },
            {
              "pitch": 48,
              "velocity": 40,
              "position": 11.25,
              "duration": 0.208333
            },
            {
              "pitch": 42,
              "velocity": 50,
              "position": 11.5,
              "duration": 0.208333
            },
            {
              "pitch": 45,
              "velocity": 40,
              "position": 11.75,
              "duration": 0.208333
            }
          ]
        },
        "10": {
          "ctab": {
            "srcChannel": 10,
            "name": "Bass",
            "accType": "BASS",
            "editable": true,
            "mutedNotes": [],
            "mutedChords": [],
            "sourceChordNote": 0,
            "sourceChordType": "Maj7",
            "ctb2Main": {
              "ntr": "ROOT_TRANSPOSITION",
              "ntt": "BYPASS",
              "bassOn": true,
              "noteLowLimit": 20,
              "noteHighLimit": 60,
              "chordRootUpperLimit": 127,
              "rtr": "NOTE_GENERATOR"
            }
          },
          "notes": [
            {
              "pitch": 36,
              "velocity": 60,
              "position": 0.008333,
              "duration": 1.95
            },
            {
              "pitch": 36,
              "velocity": 60,
              "position": 2.008333,
              "duration": 0.95
            },
            {
              "pitch": 36,
              "velocity": 60,
              "position": 3.008333,
              "duration": 1.95
            },
            {
              "pitch": 36,
              "velocity": 60,
              "position": 5.008333,
              "duration": 0.95
            },
            {
              "pitch": 36,
              "velocity": 60,
              "position": 6.008333,
              "duration": 2.433333
            },
            {
              "pitch": 31,
              "velocity": 61,
              "position": 8.525,
              "duration": 0.483333
            },
            {
              "pitch": 36,
              "velocity": 61,
              "position": 9.016667,
              "duration": 2.35
            },
            {
              "pitch": 31,
              "velocity": 61,
              "position": 11.533333,
              "duration": 0.425
            }
          ]
        },
        "11": {
          "ctab": {
            "srcChannel": 11,
            "name": "Piano",
            "accType": "CHORD1",
            "editable": true,
            "mutedNotes": [],
            "mutedChords": [],
            "sourceChordNote": 0,
            "sourceChordType": "Maj7",
            "ctb2Main": {
              "ntr": "ROOT_FIXED",
              "ntt": "CHORD",
              "bassOn": false,
              "noteLowLimit": 48,
              "noteHighLimit": 84,
              "chordRootUpperLimit": 127,
              "rtr": "NOTE_GENERATOR"
            }
          },
          "notes": [
            {
              "pitch": 48,
              "velocity": 45,
              "position": 0.008333,
              "duration": 0.95
            },
            {
              "pitch": 59,
              "velocity": 45,
              "position": 0.033333,
              "duration": 0.925
            },
            {
              "pitch": 60,
              "velocity": 45,
              "position": 0.033333,
              "duration": 0.925
            },
            {
              "pitch": 64,
              "velocity": 45,
              "position": 0.058333,
              "duration": 0.9
            },
            {
              "pitch": 67,
              "velocity": 45,
              "position": 0.066667,
              "duration": 0.891667
            },
            {
              "pitch": 48,
              "velocity": 45,
              "position": 2.008333,
              "duration": 0.95
            },
            {
              "pitch": 59,
              "velocity": 45,
              "position": 2.033333,
              "duration": 0.925
            },
            {
              "pitch": 60,
              "velocity": 45,
              "position": 2.033333,
              "duration": 0.925
            },
            {
              "pitch": 64,
              "velocity": 45,
              "position": 2.058333,
              "duration": 0.9
            },
            {
              "pitch": 67,
              "velocity": 45,
              "position": 2.066667,
              "duration": 0.891667
            },
            {
              "pitch": 48,
              "velocity": 45,
              "position": 3.008333,
              "duration": 1.408333
            },
            {
              "pitch": 59,
              "velocity": 45,
              "position": 3.033333,
              "duration": 1.383333
            },
            {
              "pitch": 60,
              "velocity": 45,
              "position": 3.033333,
              "duration": 1.383333
            },
            {
              "pitch": 64,
              "velocity": 45,
              "position": 3.058333,
              "duration": 1.358333
            },
            {
              "pitch": 67,
              "velocity": 45,
              "position": 3.066667,
              "duration": 1.35
            },
            {
              "pitch": 48,
              "velocity": 45,
              "position": 4.508333,
              "duration": 1.433333
            },
            {
              "pitch": 59,
              "velocity": 45,
              "position": 4.533333,
              "duration": 1.408333
            },
            {
              "pitch": 60,
              "velocity": 45,
              "position": 4.533333,
              "duration": 1.408333
            },
            {
              "pitch": 64,
              "velocity": 45,
              "position": 4.558333,
              "duration": 1.383333
            },
            {
              "pitch": 67,
              "velocity": 45,
              "position": 4.566667,
              "duration": 1.375
            },
            {
              "pitch": 48,
              "velocity": 45,
              "position": 6.008333,
              "duration": 2.458333
            },
            {
              "pitch": 59,
              "velocity": 45,
              "position": 6.033333,
              "duration": 1.8
            },
            {
              "pitch": 60,
              "velocity": 45,
              "position": 6.033333,
              "duration": 2.083333
            },
            {
              "pitch": 64,
              "velocity": 45,
              "position": 6.058333,
              "duration": 1.85
            },
            {
              "pitch": 67,
              "velocity": 45,
              "position": 6.066667,
              "duration": 1.425
            },
            {
              "pitch": 55,
              "velocity": 61,
              "position": 7.508333,
              "duration": 0.508333
            },
            {
              "pitch": 59,
              "velocity": 49,
              "position": 8.025,
              "duration": 0.491667
            },
            {
              "pitch": 60,
              "velocity": 56,
              "position": 8.525,
              "duration": 0.466667
            },
            {
              "pitch": 59,
              "velocity": 51,
              "position": 9.0,
              "duration": 2.958333
            },
            {
              "pitch": 62,
              "velocity": 51,
              "position": 9.0,
              "duration": 2.958333
            },
            {
              "pitch": 64,
              "velocity": 51,
              "position": 9.0,
              "duration": 2.958333
            },
            {
              "pitch": 67,
              "velocity": 51,
              "position": 9.0,
              "duration": 2.958333
            },
            {
              "pitch": 48,
              "velocity": 46,
              "position": 9.033333,
              "duration": 2.925
            }
          ]
        },
        "12": {
          "ctab": {
            "srcChannel": 12,
            "name": "Guitar",
            "accType": "CHORD2",
            "editable": true,
            "mutedNotes": [],
            "mutedChords": [],
            "sourceChordNote": 0,
            "sourceChordType": "Maj7",
            "ctb2Main": {
              "ntr": "ROOT_FIXED",
              "ntt": "CHORD",
              "bassOn": false,
              "noteLowLimit": 40,
              "noteHighLimit": 76,
              "chordRootUpperLimit": 127,
              "rtr": "NOTE_GENERATOR"
            }
          },
          "notes": [
            {
              "pitch": 48,
              "velocity": 53,
              "position": 0.0,
              "duration": 0.741667
            },
            {
              "pitch": 55,
              "velocity": 63,
              "position": 0.008333,
              "duration": 0.733333
            },
            {
              "pitch": 59,
              "velocity": 63,
              "position": 0.008333,
              "duration": 0.733333
            },
            {
              "pitch": 64,
              "velocity": 63,
              "position": 0.016667,
              "duration": 0.725
            },
            {
              "pitch": 67,
              "velocity": 63,
              "position": 0.016667,
              "duration": 0.7
            },
            {
              "pitch": 67,
              "velocity": 56,
              "position": 0.733333,
              "duration": 0.283333
            },
            {
              "pitch": 64,
              "velocity": 64,
              "position": 0.75,
              "duration": 0.25
            },
            {
              "pitch": 59,
              "velocity": 64,
              "position": 0.766667,
              "duration": 0.216667
            },
            {
              "pitch": 55,
              "velocity": 56,
              "position": 0.783333,
              "duration": 0.183333
            },
            {
              "pitch": 55,
              "velocity": 73,
              "position": 0.983333,
              "duration": 0.316667
            },
            {
              "pitch": 59,
              "velocity": 73,
              "position": 1.0,
              "duration": 0.283333
            },
            {
              "pitch": 64,
              "velocity": 73,
              "position": 1.016667,
              "duration": 0.25
            },
            {
              "pitch": 67,
              "velocity": 73,
              "position": 1.033333,
              "duration": 0.216667
            },
            {
              "pitch": 67,
              "velocity": 51,
              "position": 1.266667,
              "duration": 0.225
            },
            {
              "pitch": 64,
              "velocity": 58,
              "position": 1.283333,
              "duration": 0.208333
            },
            {
              "pitch": 59,
              "velocity": 58,
              "position": 1.3,
              "duration": 0.175
            },
            {
              "pitch": 55,
              "velocity": 51,
              "position": 1.316667,
              "duration": 0.158333
            },
            {
              "pitch": 48,
              "velocity": 82,
              "position": 1.483333,
              "duration": 0.208333
            },
            {
              "pitch": 55,
              "velocity": 97,
              "position": 1.491667,
              "duration": 0.2
            },
            {
              "pitch": 59,
              "velocity": 97,
              "position": 1.491667,
              "duration": 0.2
            },
            {
              "pitch": 64,
              "velocity": 97,
              "position": 1.5,
              "duration": 0.191667
            },
            {
              "pitch": 67,
              "velocity": 97,
              "position": 1.5,
              "duration": 0.191667
            },
            {
              "pitch": 48,
              "velocity": 53,
              "position": 1.975,
              "duration": 0.508333
            },
            {
              "pitch": 55,
              "velocity": 63,
              "position": 1.991667,
              "duration": 0.5
            },
            {
              "pitch": 59,
              "velocity": 63,
              "position": 2.0,
              "duration": 0.491667
            },
            {
              "pitch": 64,
              "velocity": 63,
              "position": 2.016667,
              "duration": 0.483333
            },
            {
              "pitch": 67,
              "velocity": 63,
              "position": 2.025,
              "duration": 0.475
            },
            {
              "pitch": 48,
              "velocity": 68,
              "position": 2.5,
              "duration": 0.166667
            },
            {
              "pitch": 55,
              "velocity": 80,
              "position": 2.508333,
              "duration": 0.158333
            },
            {
              "pitch": 59,
              "velocity": 80,
              "position": 2.508333,
              "duration": 0.158333
            },
            {
              "pitch": 64,
              "velocity": 80,
              "position": 2.516667,
              "duration": 0.15
            },
            {
              "pitch": 67,
              "velocity": 80,
              "position": 2.516667,
              "duration": 0.15
            },
            {
              "pitch": 48,
              "velocity": 53,
              "position": 2.975,
              "duration": 0.766667
            },
            {
              "pitch": 55,
              "velocity": 63,
              "position": 2.991667,
              "duration": 0.75
            },
            {
              "pitch": 59,
              "velocity": 63,
              "position": 3.0,
              "duration": 0.741667
            },
            {
              "pitch": 64,
              "velocity": 63,
              "position": 3.016667,
              "duration": 0.725
            },
            {
              "pitch": 67,
              "velocity": 63,
              "position": 3.025,
              "duration": 0.691667
            },
            {
              "pitch": 67,
              "velocity": 56,
              "position": 3.733333,
              "duration": 0.283333
            },
            {
              "pitch": 64,
              "velocity": 64,
              "position": 3.75,
              "duration": 0.25
            },
            {
              "pitch": 59,
              "velocity": 64,
              "position": 3.766667,
              "duration": 0.216667
            },
            {
              "pitch": 55,
              "velocity": 56,
              "position": 3.783333,
              "duration": 0.183333
            },
            {
              "pitch": 55,
              "velocity": 73,
              "position": 3.983333,
              "duration": 0.491667
            },
            {
              "pitch": 59,
              "velocity": 73,
              "position": 4.0,
              "duration": 0.475
            },
            {
              "pitch": 64,
              "velocity": 73,
              "position": 4.016667,
              "duration": 0.475
            },
            {
              "pitch": 67,
              "velocity": 73,
              "position": 4.033333,
              "duration": 0.458333
            },
            {
              "pitch": 48,
              "velocity": 82,
              "position": 4.483333,
              "duration": 0.208333
            },
            {
              "pitch": 55,
              "velocity": 97,
              "position": 4.491667,
              "duration": 0.2
            },
            {
              "pitch": 59,
              "velocity": 97,
              "position": 4.491667,
              "duration": 0.2
            },
            {
              "pitch": 64,
              "velocity": 97,
              "position": 4.5,
              "duration": 0.191667
            },
            {
              "pitch": 67,
              "velocity": 97,
              "position": 4.5,
              "duration": 0.191667
            },
            {
              "pitch": 48,
              "velocity": 53,
              "position": 4.975,
              "duration": 0.508333
            },
            {
              "pitch": 55,
              "velocity": 63,
              "position": 4.991667,
              "duration": 0.5
            },
            {
              "pitch": 59,
              "velocity": 63,
              "position": 5.0,
              "duration": 0.491667
            },
            {
              "pitch": 64,
              "velocity": 63,
              "position": 5.016667,
              "duration": 0.483333
            },
            {
              "pitch": 67,
              "velocity": 63,
              "position": 5.025,
              "duration": 0.475
            },
            {
              "pitch": 48,
              "velocity": 68,
              "position": 5.5,
              "duration": 0.166667
            },
            {
              "pitch": 55,
              "velocity": 80,
              "position": 5.508333,
              "duration": 0.158333
            },
            {
              "pitch": 59,
              "velocity": 80,
              "position": 5.508333,
              "duration": 0.158333
            },
            {
              "pitch": 64,
              "velocity": 80,
              "position": 5.516667,
              "duration": 0.15
            },
            {
              "pitch": 67,
              "velocity": 80,
              "position": 5.516667,
              "duration": 0.15
            },
            {
              "pitch": 48,
              "velocity": 43,
              "position": 6.0,
              "duration": 0.741667
            },
            {
              "pitch": 55,
              "velocity": 51,
              "position": 6.008333,
              "duration": 0.733333
            },
            {
              "pitch": 59,
              "velocity": 51,
              "position": 6.008333,
              "duration": 0.733333
            },
            {
              "pitch": 64,
              "velocity": 51,
              "position": 6.016667,
              "duration": 0.725
            },
            {
              "pitch": 67,
              "velocity": 51,
              "position": 6.016667,
              "duration": 0.7
            },
            {
              "pitch": 67,
              "velocity": 47,
              "position": 6.733333,
              "duration": 0.283333
            },
            {
              "pitch": 64,
              "velocity": 54,
              "position": 6.75,
              "duration": 0.25
            },
            {
              "pitch": 59,
              "velocity": 54,
              "position": 6.766667,
              "duration": 0.216667
            },
            {
              "pitch": 55,
              "velocity": 47,
              "position": 6.783333,
              "duration": 0.183333
            },
            {
              "pitch": 55,
              "velocity": 61,
              "position": 6.983333,
              "duration": 0.316667
            },
            {
              "pitch": 59,
              "velocity": 61,
              "position": 7.0,
              "duration": 0.283333
            },
            {
              "pitch": 64,
              "velocity": 61,
              "position": 7.016667,
              "duration": 0.25
            },
            {
              "pitch": 67,
              "velocity": 61,
              "position": 7.033333,
              "duration": 0.216667
            },
            {
              "pitch": 67,
              "velocity": 42,
              "position": 7.266667,
              "duration": 0.225
            },
            {
              "pitch": 64,
              "velocity": 48,
              "position": 7.283333,
              "duration": 0.208333
            },
            {
              "pitch": 59,
              "velocity": 48,
              "position": 7.3,
              "duration": 0.175
            },
            {
              "pitch": 55,
              "velocity": 42,
              "position": 7.316667,
              "duration": 0.158333
            },
            {
              "pitch": 48,
              "velocity": 72,
              "position": 7.483333,
              "duration": 0.208333
            },
            {
              "pitch": 55,
              "velocity": 85,
              "position": 7.491667,
              "duration": 0.2
            },
            {
              "pitch": 59,
              "velocity": 85,
              "position": 7.491667,
              "duration": 0.2
            },
            {
              "pitch": 64,
              "velocity": 85,
              "position": 7.5,
              "duration": 0.191667
            },
            {
              "pitch": 67,
              "velocity": 85,
              "position": 7.5,
              "duration": 0.191667
            },
            {
              "pitch": 55,
              "velocity": 39,
              "position": 7.983333,
              "duration": 0.516667
            },
            {
              "pitch": 59,
              "velocity": 39,
              "position": 8.0,
              "duration": 0.5
            },
            {
              "pitch": 64,
              "velocity": 39,
              "position": 8.016667,
              "duration": 0.5
            },
            {
              "pitch": 67,
              "velocity": 39,
              "position": 8.033333,
              "duration": 0.483333
            },
            {
              "pitch": 48,
              "velocity": 51,
              "position": 8.508333,
              "duration": 0.175
            },
            {
              "pitch": 55,
              "velocity": 61,
              "position": 8.516667,
              "duration": 0.166667
            },
            {
              "pitch": 59,
              "velocity": 61,
              "position": 8.516667,
              "duration": 0.166667
            },
            {
              "pitch": 64,
              "velocity": 61,
              "position": 8.525,
              "duration": 0.158333
            },
            {
              "pitch": 67,
              "velocity": 61,
              "position": 8.525,
              "duration": 0.158333
            },
            {
              "pitch": 67,
              "velocity": 42,
              "position": 8.741667,
              "duration": 0.258333
            },
            {
              "pitch": 64,
              "velocity": 48,
              "position": 8.758333,
              "duration": 0.241667
            },
            {
              "pitch": 59,
              "velocity": 48,
              "position": 8.775,
              "duration": 0.208333
            },
            {
              "pitch": 55,
              "velocity": 42,
              "position": 8.791667,
              "duration": 0.191667
            },
            {
              "pitch": 48,
              "velocity": 57,
              "position": 8.991667,
              "duration": 0.775
            },
            {
              "pitch": 55,
              "velocity": 68,
              "position": 9.0,
              "duration": 0.766667
            },
            {
              "pitch": 59,
              "velocity": 68,
              "position": 9.0,
              "duration": 0.75
            },
            {
              "pitch": 64,
              "velocity": 68,
              "position": 9.008333,
              "duration": 0.725
            },
            {
              "pitch": 67,
              "velocity": 68,
              "position": 9.008333,
              "duration": 0.708333
            },
            {
              "pitch": 67,
              "velocity": 42,
              "position": 9.733333,
              "duration": 0.283333
            },
            {
              "pitch": 64,
              "velocity": 48,
              "position": 9.75,
              "duration": 0.25
            },
            {
              "pitch": 59,
              "velocity": 48,
              "position": 9.766667,
              "duration": 0.216667
            },
            {
              "pitch": 55,
              "velocity": 42,
              "position": 9.783333,
              "duration": 0.183333
            },
            {
              "pitch": 55,
              "velocity": 61,
              "position": 9.983333,
              "duration": 0.5
            },
            {
              "pitch": 59,
              "velocity": 61,
              "position": 10.0,
              "duration": 0.483333
            },
            {
              "pitch": 64,
              "velocity": 61,
              "position": 10.016667,
              "duration": 0.483333
            },
            {
              "pitch": 67,
              "velocity": 61,
              "position": 10.033333,
              "duration": 0.466667
            },
            {
              "pitch": 48,
              "velocity": 74,
              "position": 10.491667,
              "duration": 0.191667
            },
            {
              "pitch": 55,
              "velocity": 88,
              "position": 10.5,
              "duration": 0.183333
            },
            {
              "pitch": 59,
              "velocity": 88,
              "position": 10.5,
              "duration": 0.183333
            },
            {
              "pitch": 64,
              "velocity": 88,
              "position": 10.508333,
              "duration": 0.175
            },
            {
              "pitch": 67,
              "velocity": 88,
              "position": 10.508333,
              "duration": 0.175
            },
            {
              "pitch": 55,
              "velocity": 51,
              "position": 10.975,
              "duration": 0.516667
            },
            {
              "pitch": 59,
              "velocity": 51,
              "position": 10.991667,
              "duration": 0.5
            },
            {
              "pitch": 64,
              "velocity": 51,
              "position": 11.008333,
              "duration": 0.5
            },
            {
              "pitch": 67,
              "velocity": 51,
              "position": 11.025,
              "duration": 0.483333
            },
            {
              "pitch": 48,
              "velocity": 51,
              "position": 11.5,
              "duration": 0.275
            },
            {
              "pitch": 55,
              "velocity": 61,
              "position": 11.508333,
              "duration": 0.266667
            },
            {
              "pitch": 59,
              "velocity": 61,
              "position": 11.508333,
              "duration": 0.266667
            },
            {
              "pitch": 64,
              "velocity": 61,
              "position": 11.516667,
              "duration": 0.258333
            },
            {
              "pitch": 67,
              "velocity": 61,
              "position": 11.516667,
              "duration": 0.258333
            }
          ]
        },
        "13": {
          "ctab": {
            "srcChannel": 13,
            "name": "Strings",
            "accType": "PAD",
            "editable": true,
            "mutedNotes": [],
            "mutedChords": [],
            "sourceChordNote": 0,
            "sourceChordType": "Maj7",
            "ctb2Main": {
              "ntr": "ROOT_FIXED",
              "ntt": "MELODY",
              "bassOn": false,
              "noteLowLimit": 36,
              "noteHighLimit": 96,
              "chordRootUpperLimit": 127,
              "rtr": "PITCH_SHIFT"
            }
          },
          "notes": []
        }
      }
    },
    "Main_C": {
      "type": "Main_C",
      "sizeInBeats": 12,
      "channels": {
        "9": {
          "ctab": {
            "srcChannel": 9,
            "name": "Drums",
            "accType": "RHYTHM",
            "editable": false,
            "mutedNotes": [],
            "mutedChords": [],
            "sourceChordNote": 0,
            "sourceChordType": "Maj",
            "ctb2Main": {
              "ntr": "ROOT_FIXED",
              "ntt": "BYPASS",
              "bassOn": false,
              "noteLowLimit": 20,
              "noteHighLimit": 127,
              "chordRootUpperLimit": 127,
              "rtr": "RETRIGGER"
            }
          },
          "notes": [
            {
              "pitch": 35,
              "velocity": 50,
              "position": 0.0,
              "duration": 0.208333
            },
            {
              "pitch": 42,
              "velocity": 50,
              "position": 0.0,
              "duration": 0.208333
            },
            {
              "pitch": 49,
              "velocity": 50,
              "position": 0.0,
              "duration": 0.208333
            },
            {
              "pitch": 42,
              "velocity": 50,
              "position": 0.5,
              "duration": 0.208333
            },
            {
              "pitch": 35,
              "velocity": 50,
              "position": 0.75,
              "duration": 0.208333
            },
            {
              "pitch": 35,
              "velocity": 50,
              "position": 1.0,
              "duration": 0.208333
            },
            {
              "pitch": 42,
              "velocity": 50,
              "position": 1.0,
              "duration": 0.208333
            },
            {
              "pitch": 87,
              "velocity": 50,
              "position": 1.0,
              "duration": 0.208333
            },
            {
              "pitch": 37,
              "velocity": 60,
              "position": 1.5,
              "duration": 0.208333
            },
            {
              "pitch": 42,
              "velocity": 50,
              "position": 1.5,
              "duration": 0.208333
            },
            {
              "pitch": 35,
              "velocity": 50,
              "position": 2.0,
              "duration": 0.208333
            },
            {
              "pitch": 42,
              "velocity": 50,
              "position": 2.0,
              "duration": 0.208333
            },
            {
              "pitch": 87,
              "velocity": 50,
              "position": 2.0,
              "duration": 0.208333
            },
            {
              "pitch": 42,
              "velocity": 50,
              "position": 2.5,
              "duration": 0.208333
            },
            {
              "pitch": 35,
              "velocity": 50,
              "position": 3.0,
              "duration": 0.208333
            },
            {
              "pitch": 42,
              "velocity": 50,
              "position": 3.0,
              "duration": 0.208333
            },
            {
              "pitch": 42,
              "velocity": 50,
              "position": 3.5,
              "duration": 0.208333
            },
            {
              "pitch": 48,
              "velocity": 30,
              "position": 3.5,
              "duration": 0.208333
            },
            {
              "pitch": 35,
              "velocity": 40,
              "position": 3.75,
              "duration": 0.208333
            },
            {
              "pitch": 48,
              "velocity": 30,
              "position": 3.75,
              "duration": 0.208333
            },
            {
              "pitch": 35,
              "velocity": 50,
              "position": 4.0,
              "duration": 0.208333
            },
            {
              "pitch": 42,
              "velocity": 50,
              "position": 4.0,
              "duration": 0.208333
            },
            {
              "pitch": 87,
              "velocity": 50,
              "position": 4.0,
              "duration": 0.208333
            },
            {
              "pitch": 37,
              "velocity": 60,
              "position": 4.5,
              "duration": 0.208333
            },
            {
              "pitch": 42,
              "velocity": 50,
              "position": 4.5,
              "duration": 0.208333
            },
            {
              "pitch": 35,
              "velocity": 50,
              "position": 5.0,
              "duration": 0.208333
            },
            {
              "pitch": 42,
              "velocity": 50,
              "position": 5.0,
              "duration": 0.208333
            },
            {
              "pitch": 87,
              "velocity": 50,
              "position": 5.0,
              "duration": 0.208333
            },
            {
              "pitch": 42,
              "velocity": 50,
              "position": 5.5,
              "duration": 0.208333
            },
            {
              "pitch": 35,
              "velocity": 50,
              "position": 6.0,
              "duration": 0.208333
            },
            {
              "pitch": 42,
              "velocity": 50,
              "position": 6.0,
              "duration": 0.208333
            },
            {
              "pitch": 42,
              "velocity": 50,
              "position": 6.5,
              "duration": 0.208333
            },
            {
              "pitch": 48,
              "velocity": 30,
              "position": 6.5,
              "duration": 0.208333
            },
            {
              "pitch": 35,
              "velocity": 40,
              "position": 6.75,
              "duration": 0.208333
            },
            {
              "pitch": 48,
              "velocity": 30,
              "position": 6.75,
              "duration": 0.208333
            },
            {
              "pitch": 35,
              "velocity": 50,
              "position": 7.0,
              "duration": 0.208333
            },
            {
              "pitch": 42,
              "velocity": 50,
              "position": 7.0,
              "duration": 0.208333
            },
            {
              "pitch": 87,
              "velocity": 50,
              "position": 7.0,
              "duration": 0.208333
            },
            {
              "pitch": 37,
              "velocity": 60,
              "position": 7.5,
              "duration": 0.208333
            },
            {
              "pitch": 42,
              "velocity": 50,
              "position": 7.5,
              "duration": 0.208333
            },
            {
              "pitch": 35,
              "velocity": 50,
              "position": 8.0,
              "duration": 0.208333
            },
            {
              "pitch": 42,
              "velocity": 50,
              "position": 8.0,
              "duration": 0.208333
            },
            {
              "pitch": 87,
              "velocity": 50,
              "position": 8.0,
              "duration": 0.208333
            },
            {
              "pitch": 42,
              "velocity": 50,
              "position": 8.5,
              "duration": 0.208333
            },
            {
              "pitch": 35,
              "velocity": 50,
              "position": 9.0,
              "duration": 0.208333
            },
            {
              "pitch": 37,
              "velocity": 50,
              "position": 9.0,
              "duration": 0.208333
            },
            {
              "pitch": 42,
              "velocity": 50,
              "position": 9.0,
              "duration": 0.208333
            },
            {
              "pitch": 42,
              "velocity": 50,
              "position": 9.5,
              "duration": 0.208333
            },
            {
              "pitch": 35,
              "velocity": 50,
              "position": 9.75,
              "duration": 0.208333
            },
            {
              "pitch": 35,
              "velocity": 50,
              "position": 10.0,
              "duration": 0.208333
            },
            {
              "pitch": 42,
              "velocity": 50,
              "position": 10.0,
              "duration": 0.208333
            },
            {
              "pitch": 87,
              "velocity": 50,
              "position": 10.0,
              "duration": 0.208333
            },
            {
              "pitch": 37,
              "velocity": 40,
              "position": 10.5,
              "duration": 0.208333
            },
            {
              "pitch": 42,
              "velocity": 50,
              "position": 10.5,
              "duration": 0.208333
            },
            {
              "pitch": 35,
              "velocity": 50,
              "position": 11.0,
              "duration": 0.208333
            },
            {
              "pitch": 42,
              "velocity": 50,
              "position": 11.0,
              "duration": 0.208333
            },
            {
              "pitch": 87,
              "velocity": 50,
              "position": 11.0,
              "duration": 0.208333
            },
            {
              "pitch": 42,
              "velocity": 50,
              "position": 11.5,
              "duration": 0.208333
            },
            {
              "pitch": 48,
              "velocity": 50,
              "position": 11.5,
              "duration": 0.208333
            },
            {
              "pitch": 45,
              "velocity": 40,
              "position": 11.75,
              "duration": 0.208333
            }
          ]
        },
        "10": {
          "ctab": {
            "srcChannel": 10,
            "name": "Bass",
            "accType": "BASS",
            "editable": true,
            "mutedNotes": [],
            "mutedChords": [],
            "sourceChordNote": 0,
            "sourceChordType": "Maj7",
            "ctb2Main": {
              "ntr": "ROOT_TRANSPOSITION",
              "ntt": "BYPASS",
              "bassOn": true,
              "noteLowLimit": 20,
              "noteHighLimit": 60,
              "chordRootUpperLimit": 127,
              "rtr": "NOTE_GENERATOR"
            }
          },
          "notes": [
            {
              "pitch": 36,
              "velocity": 60,
              "position": 0.008333,
              "duration": 1.95
            },
            {
              "pitch": 36,
              "velocity": 60,
              "position": 2.008333,
              "duration": 0.95
            },
            {
              "pitch": 36,
              "velocity": 60,
              "position": 3.008333,
              "duration": 1.95
            },
            {
              "pitch": 36,
              "velocity": 60,
              "position": 5.008333,
              "duration": 0.95
            },
            {
              "pitch": 36,
              "velocity": 60,
              "position": 6.008333,
              "duration": 2.433333
            },
            {
              "pitch": 31,
              "velocity": 61,
              "position": 8.525,
              "duration": 0.483333
            },
            {
              "pitch": 36,
              "velocity": 61,
              "position": 9.016667,
              "duration": 2.35
            },
            {
              "pitch": 31,
              "velocity": 61,
              "position": 11.533333,
              "duration": 0.425
            }
          ]
        },
        "11": {
          "ctab": {
            "srcChannel": 11,
            "name": "Piano",
            "accType": "CHORD1",
            "editable": true,
            "mutedNotes": [],
            "mutedChords": [],
            "sourceChordNote": 0,
            "sourceChordType": "Maj7",
            "ctb2Main": {
              "ntr": "ROOT_FIXED",
              "ntt": "CHORD",
              "bassOn": false,
              "noteLowLimit": 48,
              "noteHighLimit": 84,
              "chordRootUpperLimit": 127,
              "rtr": "NOTE_GENERATOR"
            }
          },
          "notes": [
            {
              "pitch": 48,
              "velocity": 45,
              "position": 0.008333,
              "duration": 0.95
            },
            {
              "pitch": 59,
              "velocity": 45,
              "position": 0.033333,
              "duration": 0.925
            },
            {
              "pitch": 60,
              "velocity": 45,
              "position": 0.033333,
              "duration": 0.925
            },
            {
              "pitch": 64,
              "velocity": 45,
              "position": 0.058333,
              "duration": 0.9
            },
            {
              "pitch": 67,
              "velocity": 45,
              "position": 0.066667,
              "duration": 0.891667
            },
            {
              "pitch": 48,
              "velocity": 45,
              "position": 2.008333,
              "duration": 0.95
            },
            {
              "pitch": 59,
              "velocity": 45,
              "position": 2.033333,
              "duration": 0.925
            },
            {
              "pitch": 60,
              "velocity": 45,
              "position": 2.033333,
              "duration": 0.925
            },
            {
              "pitch": 64,
              "velocity": 45,
              "position": 2.058333,
              "duration": 0.9
            },
            {
              "pitch": 67,
              "velocity": 45,
              "position": 2.066667,
              "duration": 0.891667
            },
            {
              "pitch": 48,
              "velocity": 45,
              "position": 3.008333,
              "duration": 0.95
            },
            {
              "pitch": 59,
              "velocity": 45,
              "position": 3.033333,
              "duration": 0.925
            },
            {
              "pitch": 60,
              "velocity": 45,
              "position": 3.033333,
              "duration": 0.925
            },
            {
              "pitch": 64,
              "velocity": 45,
              "position": 3.058333,
              "duration": 0.9
            },
            {
              "pitch": 67,
              "velocity": 45,
              "position": 3.066667,
              "duration": 0.891667
            },
            {
              "pitch": 48,
              "velocity": 45,
              "position": 5.008333,
              "duration": 0.95
            },
            {
              "pitch": 59,
              "velocity": 45,
              "position": 5.033333,
              "duration": 0.925
            },
            {
              "pitch": 60,
              "velocity": 45,
              "position": 5.033333,
              "duration": 0.925
            },
            {
              "pitch": 64,
              "velocity": 45,
              "position": 5.058333,
              "duration": 0.9
            },
            {
              "pitch": 67,
              "velocity": 45,
              "position": 5.066667,
              "duration": 0.891667
            },
            {
              "pitch": 48,
              "velocity": 45,
              "position": 6.008333,
              "duration": 4.7
            },
            {
              "pitch": 59,
              "velocity": 45,
              "position": 6.033333,
              "duration": 4.675
            },
            {
              "pitch": 60,
              "velocity": 45,
              "position": 6.033333,
              "duration": 4.675
            },
            {
              "pitch": 64,
              "velocity": 45,
              "position": 6.058333,
              "duration": 4.65
            },
            {
              "pitch": 67,
              "velocity": 45,
              "position": 6.066667,
              "duration": 5.866667
            },
            {
              "pitch": 59,
              "velocity": 51,
              "position": 10.758333,
              "duration": 0.275
            },
            {
              "pitch": 60,
              "velocity": 61,
              "position": 11.033333,
              "duration": 0.208333
            },
            {
              "pitch": 59,
              "velocity": 46,
              "position": 11.241667,
              "duration": 0.275
            },
            {
              "pitch": 55,
              "velocity": 54,
              "position": 11.516667,
              "duration": 0.425
            }
          ]
        },
        "12": {
          "ctab": {
            "srcChannel": 12,
            "name": "Guitar",
            "accType": "CHORD2",
            "editable": true,
            "mutedNotes": [],
            "mutedChords": [],
            "sourceChordNote": 0,
            "sourceChordType": "Maj7",
            "ctb2Main": {
              "ntr": "ROOT_FIXED",
              "ntt": "CHORD",
              "bassOn": false,
              "noteLowLimit": 40,
              "noteHighLimit": 76,
              "chordRootUpperLimit": 127,
              "rtr": "NOTE_GENERATOR"
            }
          },
          "notes": [
            {
              "pitch": 48,
              "velocity": 53,
              "position": 0.0,
              "duration": 0.741667
            },
            {
              "pitch": 55,
              "velocity": 63,
              "position": 0.008333,
              "duration": 0.733333
            },
            {
              "pitch": 59,
              "velocity": 63,
              "position": 0.008333,
              "duration": 0.733333
            },
            {
              "pitch": 64,
              "velocity": 63,
              "position": 0.016667,
              "duration": 0.725
            },
            {
              "pitch": 67,
              "velocity": 63,
              "position": 0.016667,
              "duration": 0.7
            },
            {
              "pitch": 67,
              "velocity": 56,
              "position": 0.733333,
              "duration": 0.283333
            },
            {
              "pitch": 64,
              "velocity": 64,
              "position": 0.75,
              "duration": 0.25
            },
            {
              "pitch": 59,
              "velocity": 64,
              "position": 0.766667,
              "duration": 0.216667
            },
            {
              "pitch": 55,
              "velocity": 56,
              "position": 0.783333,
              "duration": 0.183333
            },
            {
              "pitch": 55,
              "velocity": 73,
              "position": 0.983333,
              "duration": 0.316667
            },
            {
              "pitch": 59,
              "velocity": 73,
              "position": 1.0,
              "duration": 0.283333
            },
            {
              "pitch": 64,
              "velocity": 73,
              "position": 1.016667,
              "duration": 0.25
            },
            {
              "pitch": 67,
              "velocity": 73,
              "position": 1.033333,
              "duration": 0.216667
            },
            {
              "pitch": 67,
              "velocity": 51,
              "position": 1.266667,
              "duration": 0.225
            },
            {
              "pitch": 64,
              "velocity": 58,
              "position": 1.283333,
              "duration": 0.208333
            },
            {
              "pitch": 59,
              "velocity": 58,
              "position": 1.3,
              "duration": 0.175
            },
            {
              "pitch": 55,
              "velocity": 51,
              "position": 1.316667,
              "duration": 0.158333
            },
            {
              "pitch": 48,
              "velocity": 82,
              "position": 1.483333,
              "duration": 0.208333
            },
            {
              "pitch": 55,
              "velocity": 97,
              "position": 1.491667,
              "duration": 0.2
            },
            {
              "pitch": 59,
              "velocity": 97,
              "position": 1.491667,
              "duration": 0.2
            },
            {
              "pitch": 64,
              "velocity": 97,
              "position": 1.5,
              "duration": 0.191667
            },
            {
              "pitch": 67,
              "velocity": 97,
              "position": 1.5,
              "duration": 0.191667
            },
            {
              "pitch": 48,
              "velocity": 53,
              "position": 1.975,
              "duration": 0.508333
            },
            {
              "pitch": 55,
              "velocity": 63,
              "position": 1.991667,
              "duration": 0.5
            },
            {
              "pitch": 59,
              "velocity": 63,
              "position": 2.0,
              "duration": 0.491667
            },
            {
              "pitch": 64,
              "velocity": 63,
              "position": 2.016667,
              "duration": 0.483333
            },
            {
              "pitch": 67,
              "velocity": 63,
              "position": 2.025,
              "duration": 0.475
            },
            {
              "pitch": 48,
              "velocity": 68,
              "position": 2.5,
              "duration": 0.166667
            },
            {
              "pitch": 55,
              "velocity": 80,
              "position": 2.508333,
              "duration": 0.158333
            },
            {
              "pitch": 59,
              "velocity": 80,
              "position": 2.508333,
              "duration": 0.158333
            },
            {
              "pitch": 64,
              "velocity": 80,
              "position": 2.516667,
              "duration": 0.15
            },
            {
              "pitch": 67,
              "velocity": 80,
              "position": 2.516667,
              "duration": 0.15
            },
            {
              "pitch": 48,
              "velocity": 53,
              "position": 3.0,
              "duration": 0.741667
            },
            {
              "pitch": 55,
              "velocity": 63,
              "position": 3.008333,
              "duration": 0.733333
            },
            {
              "pitch": 59,
              "velocity": 63,
              "position": 3.008333,
              "duration": 0.733333
            },
            {
              "pitch": 64,
              "velocity": 63,
              "position": 3.016667,
              "duration": 0.725
            },
            {
              "pitch": 67,
              "velocity": 63,
              "position": 3.016667,
              "duration": 0.7
            },
            {
              "pitch": 67,
              "velocity": 56,
              "position": 3.733333,
              "duration": 0.283333
            },
            {
              "pitch": 64,
              "velocity": 64,
              "position": 3.75,
              "duration": 0.25
            },
            {
              "pitch": 59,
              "velocity": 64,
              "position": 3.766667,
              "duration": 0.216667
            },
            {
              "pitch": 55,
              "velocity": 56,
              "position": 3.783333,
              "duration": 0.183333
            },
            {
              "pitch": 55,
              "velocity": 73,
              "position": 3.983333,
              "duration": 0.316667
            },
            {
              "pitch": 59,
              "velocity": 73,
              "position": 4.0,
              "duration": 0.283333
            },
            {
              "pitch": 64,
              "velocity": 73,
              "position": 4.016667,
              "duration": 0.25
            },
            {
              "pitch": 67,
              "velocity": 73,
              "position": 4.033333,
              "duration": 0.216667
            },
            {
              "pitch": 67,
              "velocity": 51,
              "position": 4.266667,
              "duration": 0.225
            },
            {
              "pitch": 64,
              "velocity": 58,
              "position": 4.283333,
              "duration": 0.208333
            },
            {
              "pitch": 59,
              "velocity": 58,
              "position": 4.3,
              "duration": 0.175
            },
            {
              "pitch": 55,
              "velocity": 51,
              "position": 4.316667,
              "duration": 0.158333
            },
            {
              "pitch": 48,
              "velocity": 82,
              "position": 4.483333,
              "duration": 0.208333
            },
            {
              "pitch": 55,
              "velocity": 97,
              "position": 4.491667,
              "duration": 0.2
            },
            {
              "pitch": 59,
              "velocity": 97,
              "position": 4.491667,
              "duration": 0.2
            },
            {
              "pitch": 64,
              "velocity": 97,
              "position": 4.5,
              "duration": 0.191667
            },
            {
              "pitch": 67,
              "velocity": 97,
              "position": 4.5,
              "duration": 0.191667
            },
            {
              "pitch": 48,
              "velocity": 53,
              "position": 4.975,
              "duration": 0.508333
            },
            {
              "pitch": 55,
              "velocity": 63,
              "position": 4.991667,
              "duration": 0.5
            },
            {
              "pitch": 59,
              "velocity": 63,
              "position": 5.0,
              "duration": 0.491667
            },
            {
              "pitch": 64,
              "velocity": 63,
              "position": 5.016667,
              "duration": 0.483333
            },
            {
              "pitch": 67,
              "velocity": 63,
              "position": 5.025,
              "duration": 0.475
            },
            {
              "pitch": 48,
              "velocity": 68,
              "position": 5.5,
              "duration": 0.166667
            },
            {
              "pitch": 55,
              "velocity": 80,
              "position": 5.508333,
              "duration": 0.158333
            },
            {
              "pitch": 59,
              "velocity": 80,
              "position": 5.508333,
              "duration": 0.158333
            },
            {
              "pitch": 64,
              "velocity": 80,
              "position": 5.516667,
              "duration": 0.15
            },
            {
              "pitch": 67,
              "velocity": 80,
              "position": 5.516667,
              "duration": 0.15
            },
            {
              "pitch": 48,
              "velocity": 53,
              "position": 5.975,
              "duration": 0.766667
            },
            {
              "pitch": 55,
              "velocity": 63,
              "position": 5.991667,
              "duration": 0.75
            },
            {
              "pitch": 59,
              "velocity": 63,
              "position": 6.0,
              "duration": 0.741667
            },
            {
              "pitch": 64,
              "velocity": 63,
              "position": 6.016667,
              "duration": 0.725
            },
            {
              "pitch": 67,
              "velocity": 63,
              "position": 6.025,
              "duration": 0.691667
            },
            {
              "pitch": 67,
              "velocity": 56,
              "position": 6.733333,
              "duration": 0.283333
            },
            {
              "pitch": 64,
              "velocity": 64,
              "position": 6.75,
              "duration": 0.25
            },
            {
              "pitch": 59,
              "velocity": 64,
              "position": 6.766667,
              "duration": 0.216667
            },
            {
              "pitch": 55,
              "velocity": 56,
              "position": 6.783333,
              "duration": 0.183333
            },
            {
              "pitch": 55,
              "velocity": 73,
              "position": 6.983333,
              "duration": 0.491667
            },
            {
              "pitch": 59,
              "velocity": 73,
              "position": 7.0,
              "duration": 0.475
            },
            {
              "pitch": 64,
              "velocity": 73,
              "position": 7.016667,
              "duration": 0.475
            },
            {
              "pitch": 67,
              "velocity": 73,
              "position": 7.033333,
              "duration": 0.458333
            },
            {
              "pitch": 48,
              "velocity": 82,
              "position": 7.483333,
              "duration": 0.208333
            },
            {
              "pitch": 55,
              "velocity": 97,
              "position": 7.491667,
              "duration": 0.2
            },
            {
              "pitch": 59,
              "velocity": 97,
              "position": 7.491667,
              "duration": 0.2
            },
            {
              "pitch": 64,
              "velocity": 97,
              "position": 7.5,
              "duration": 0.191667
            },
            {
              "pitch": 67,
              "velocity": 97,
              "position": 7.5,
              "duration": 0.191667
            },
            {
              "pitch": 55,
              "velocity": 51,
              "position": 7.983333,
              "duration": 0.516667
            },
            {
              "pitch": 59,
              "velocity": 51,
              "position": 8.0,
              "duration": 0.5
            },
            {
              "pitch": 64,
              "velocity": 51,
              "position": 8.016667,
              "duration": 0.5
            },
            {
              "pitch": 67,
              "velocity": 51,
              "position": 8.033333,
              "duration": 0.483333
            },
            {
              "pitch": 48,
              "velocity": 62,
              "position": 8.508333,
              "duration": 0.175
            },
            {
              "pitch": 55,
              "velocity": 73,
              "position": 8.516667,
              "duration": 0.166667
            },
            {
              "pitch": 59,
              "velocity": 73,
              "position": 8.516667,
              "duration": 0.166667
            },
            {
              "pitch": 64,
              "velocity": 73,
              "position": 8.525,
              "duration": 0.158333
            },
            {
              "pitch": 67,
              "velocity": 73,
              "position": 8.525,
              "duration": 0.158333
            },
            {
              "pitch": 48,
              "velocity": 49,
              "position": 8.966667,
              "duration": 0.8
            },
            {
              "pitch": 55,
              "velocity": 58,
              "position": 8.983333,
              "duration": 0.783333
            },
            {
              "pitch": 59,
              "velocity": 58,
              "position": 8.991667,
              "duration": 0.758333
            },
            {
              "pitch": 64,
              "velocity": 58,
              "position": 9.008333,
              "duration": 0.725
            },
            {
              "pitch": 67,
              "velocity": 58,
              "position": 9.016667,
              "duration": 0.7
            },
            {
              "pitch": 67,
              "velocity": 51,
              "position": 9.733333,
              "duration": 0.283333
            },
            {
              "pitch": 64,
              "velocity": 58,
              "position": 9.75,
              "duration": 0.25
            },
            {
              "pitch": 59,
              "velocity": 58,
              "position": 9.766667,
              "duration": 0.216667
            },
            {
              "pitch": 55,
              "velocity": 51,
              "position": 9.783333,
              "duration": 0.183333
            },
            {
              "pitch": 55,
              "velocity": 73,
              "position": 9.983333,
              "duration": 0.5
            },
            {
              "pitch": 59,
              "velocity": 73,
              "position": 10.0,
              "duration": 0.483333
            },
            {
              "pitch": 64,
              "velocity": 73,
              "position": 10.016667,
              "duration": 0.483333
            },
            {
              "pitch": 67,
              "velocity": 73,
              "position": 10.033333,
              "duration": 0.466667
            },
            {
              "pitch": 48,
              "velocity": 85,
              "position": 10.491667,
              "duration": 0.191667
            },
            {
              "pitch": 55,
              "velocity": 100,
              "position": 10.5,
              "duration": 0.183333
            },
            {
              "pitch": 59,
              "velocity": 100,
              "position": 10.5,
              "duration": 0.183333
            },
            {
              "pitch": 64,
              "velocity": 100,
              "position": 10.508333,
              "duration": 0.175
            },
            {
              "pitch": 67,
              "velocity": 100,
              "position": 10.508333,
              "duration": 0.175
            },
            {
              "pitch": 55,
              "velocity": 63,
              "position": 10.975,
              "duration": 0.4
            },
            {
              "pitch": 59,
              "velocity": 63,
              "position": 10.991667,
              "duration": 0.383333
            },
            {
              "pitch": 64,
              "velocity": 63,
              "position": 11.008333,
              "duration": 0.366667
            },
            {
              "pitch": 67,
              "velocity": 63,
              "position": 11.025,
              "duration": 0.35
            },
            {
              "pitch": 48,
              "velocity": 62,
              "position": 11.933333,
              "duration": 0.866667
            },
            {
              "pitch": 55,
              "velocity": 73,
              "position": 11.983333,
              "duration": 0.641667
            }
          ]
        },
        "13": {
          "ctab": {
            "srcChannel": 13,
            "name": "Strings",
            "accType": "PAD",
            "editable": true,
            "mutedNotes": [],
            "mutedChords": [],
            "sourceChordNote": 0,
            "sourceChordType": "Maj7",
            "ctb2Main": {
              "ntr": "ROOT_FIXED",
              "ntt": "MELODY",
              "bassOn": false,
              "noteLowLimit": 36,
              "noteHighLimit": 96,
              "chordRootUpperLimit": 127,
              "rtr": "PITCH_SHIFT"
            }
          },
          "notes": []
        }
      }
    },
    "Main_D": {
      "type": "Main_D",
      "sizeInBeats": 12,
      "channels": {
        "9": {
          "ctab": {
            "srcChannel": 9,
            "name": "Drums",
            "accType": "RHYTHM",
            "editable": false,
            "mutedNotes": [],
            "mutedChords": [],
            "sourceChordNote": 0,
            "sourceChordType": "Maj",
            "ctb2Main": {
              "ntr": "ROOT_FIXED",
              "ntt": "BYPASS",
              "bassOn": false,
              "noteLowLimit": 20,
              "noteHighLimit": 127,
              "chordRootUpperLimit": 127,
              "rtr": "RETRIGGER"
            }
          },
          "notes": [
            {
              "pitch": 35,
              "velocity": 50,
              "position": 0.0,
              "duration": 0.208333
            },
            {
              "pitch": 42,
              "velocity": 50,
              "position": 0.0,
              "duration": 0.208333
            },
            {
              "pitch": 49,
              "velocity": 50,
              "position": 0.0,
              "duration": 0.208333
            },
            {
              "pitch": 42,
              "velocity": 50,
              "position": 0.5,
              "duration": 0.208333
            },
            {
              "pitch": 35,
              "velocity": 50,
              "position": 0.75,
              "duration": 0.208333
            },
            {
              "pitch": 35,
              "velocity": 50,
              "position": 1.0,
              "duration": 0.208333
            },
            {
              "pitch": 42,
              "velocity": 50,
              "position": 1.0,
              "duration": 0.208333
            },
            {
              "pitch": 87,
              "velocity": 50,
              "position": 1.0,
              "duration": 0.208333
            },
            {
              "pitch": 37,
              "velocity": 60,
              "position": 1.5,
              "duration": 0.208333
            },
            {
              "pitch": 42,
              "velocity": 50,
              "position": 1.5,
              "duration": 0.208333
            },
            {
              "pitch": 35,
              "velocity": 50,
              "position": 2.0,
              "duration": 0.208333
            },
            {
              "pitch": 42,
              "velocity": 50,
              "position": 2.0,
              "duration": 0.208333
            },
            {
              "pitch": 87,
              "velocity": 50,
              "position": 2.0,
              "duration": 0.208333
            },
            {
              "pitch": 42,
              "velocity": 50,
              "position": 2.5,
              "duration": 0.208333
            },
            {
              "pitch": 35,
              "velocity": 50,
              "position": 3.0,
              "duration": 0.208333
            },
            {
              "pitch": 37,
              "velocity": 50,
              "position": 3.0,
              "duration": 0.208333
            },
            {
              "pitch": 42,
              "velocity": 50,
              "position": 3.0,
              "duration": 0.208333
            },
            {
              "pitch": 42,
              "velocity": 50,
              "position": 3.5,
              "duration": 0.208333
            },
            {
              "pitch": 35,
              "velocity": 50,
              "position": 3.75,
              "duration": 0.208333
            },
            {
              "pitch": 35,
              "velocity": 50,
              "position": 4.0,
              "duration": 0.208333
            },
            {
              "pitch": 42,
              "velocity": 50,
              "position": 4.0,
              "duration": 0.208333
            },
            {
              "pitch": 87,
              "velocity": 50,
              "position": 4.0,
              "duration": 0.208333
            },
            {
              "pitch": 37,
              "velocity": 40,
              "position": 4.5,
              "duration": 0.208333
            },
            {
              "pitch": 42,
              "velocity": 50,
              "position": 4.5,
              "duration": 0.208333
            },
            {
              "pitch": 35,
              "velocity": 50,
              "position": 5.0,
              "duration": 0.208333
            },
            {
              "pitch": 42,
              "velocity": 50,
              "position": 5.0,
              "duration": 0.208333
            },
            {
              "pitch": 87,
              "velocity": 50,
              "position": 5.0,
              "duration": 0.208333
            },
            {
              "pitch": 42,
              "velocity": 50,
              "position": 5.5,
              "duration": 0.208333
            },
            {
              "pitch": 48,
              "velocity": 50,
              "position": 5.5,
              "duration": 0.208333
            },
            {
              "pitch": 45,
              "velocity": 40,
              "position": 5.75,
              "duration": 0.208333
            },
            {
              "pitch": 35,
              "velocity": 50,
              "position": 6.0,
              "duration": 0.208333
            },
            {
              "pitch": 42,
              "velocity": 50,
              "position": 6.0,
              "duration": 0.208333
            },
            {
              "pitch": 42,
              "velocity": 50,
              "position": 6.5,
              "duration": 0.208333
            },
            {
              "pitch": 35,
              "velocity": 50,
              "position": 6.75,
              "duration": 0.208333
            },
            {
              "pitch": 35,
              "velocity": 50,
              "position": 7.0,
              "duration": 0.208333
            },
            {
              "pitch": 42,
              "velocity": 50,
              "position": 7.0,
              "duration": 0.208333
            },
            {
              "pitch": 87,
              "velocity": 50,
              "position": 7.0,
              "duration": 0.208333
            },
            {
              "pitch": 37,
              "velocity": 60,
              "position": 7.5,
              "duration": 0.208333
            },
            {
              "pitch": 42,
              "velocity": 50,
              "position": 7.5,
              "duration": 0.208333
            },
            {
              "pitch": 35,
              "velocity": 50,
              "position": 8.0,
              "duration": 0.208333
            },
            {
              "pitch": 42,
              "velocity": 50,
              "position": 8.0,
              "duration": 0.208333
            },
            {
              "pitch": 87,
              "velocity": 50,
              "position": 8.0,
              "duration": 0.208333
            },
            {
              "pitch": 42,
              "velocity": 50,
              "position": 8.5,
              "duration": 0.208333
            },
            {
              "pitch": 35,
              "velocity": 50,
              "position": 9.0,
              "duration": 0.208333
            },
            {
              "pitch": 37,
              "velocity": 50,
              "position": 9.0,
              "duration": 0.208333
            },
            {
              "pitch": 42,
              "velocity": 50,
              "position": 9.0,
              "duration": 0.208333
            },
            {
              "pitch": 42,
              "velocity": 50,
              "position": 9.5,
              "duration": 0.208333
            },
            {
              "pitch": 35,
              "velocity": 50,
              "position": 9.75,
              "duration": 0.208333
            },
            {
              "pitch": 35,
              "velocity": 50,
              "position": 10.0,
              "duration": 0.208333
            },
            {
              "pitch": 42,
              "velocity": 50,
              "position": 10.0,
              "duration": 0.208333
            },
            {
              "pitch": 87,
              "velocity": 50,
              "position": 10.0,
              "duration": 0.208333
            },
            {
              "pitch": 37,
              "velocity": 40,
              "position": 10.5,
              "duration": 0.208333
            },
            {
              "pitch": 42,
              "velocity": 50,
              "position": 10.5,
              "duration": 0.208333
            },
            {
              "pitch": 35,
              "velocity": 50,
              "position": 11.0,
              "duration": 0.208333
            },
            {
              "pitch": 42,
              "velocity": 50,
              "position": 11.0,
              "duration": 0.208333
            },
            {
              "pitch": 48,
              "velocity": 40,
              "position": 11.0,
              "duration": 0.208333
            },
            {
              "pitch": 87,
              "velocity": 50,
              "position": 11.0,
              "duration": 0.208333
            },
            {
              "pitch": 48,
              "velocity": 40,
              "position": 11.25,
              "duration": 0.208333
            },
            {
              "pitch": 42,
              "velocity": 50,
              "position": 11.5,
              "duration": 0.208333
            },
            {
              "pitch": 45,
              "velocity": 40,
              "position": 11.75,
              "duration": 0.208333
            }
          ]
        },
        "10": {
          "ctab": {
            "srcChannel": 10,
            "name": "Bass",
            "accType": "BASS",
            "editable": true,
            "mutedNotes": [],
            "mutedChords": [],
            "sourceChordNote": 0,
            "sourceChordType": "Maj7",
            "ctb2Main": {
              "ntr": "ROOT_TRANSPOSITION",
              "ntt": "BYPASS",
              "bassOn": true,
              "noteLowLimit": 20,
              "noteHighLimit": 60,
              "chordRootUpperLimit": 127,
              "rtr": "NOTE_GENERATOR"
            }
          },
          "notes": [
            {
              "pitch": 36,
              "velocity": 60,
              "position": 0.008333,
              "duration": 1.95
            },
            {
              "pitch": 36,
              "velocity": 60,
              "position": 2.008333,
              "duration": 0.95
            },
            {
              "pitch": 36,
              "velocity": 60,
              "position": 3.008333,
              "duration": 1.95
            },
            {
              "pitch": 36,
              "velocity": 60,
              "position": 5.008333,
              "duration": 0.95
            },
            {
              "pitch": 36,
              "velocity": 60,
              "position": 6.008333,
              "duration": 2.433333
            },
            {
              "pitch": 31,
              "velocity": 61,
              "position": 8.525,
              "duration": 0.483333
            },
            {
              "pitch": 36,
              "velocity": 61,
              "position": 9.016667,
              "duration": 2.35
            },
            {
              "pitch": 31,
              "velocity": 61,
              "position": 11.533333,
              "duration": 0.425
            }
          ]
        },
        "11": {
          "ctab": {
            "srcChannel": 11,
            "name": "Piano",
            "accType": "CHORD1",
            "editable": true,
            "mutedNotes": [],
            "mutedChords": [],
            "sourceChordNote": 0,
            "sourceChordType": "Maj7",
            "ctb2Main": {
              "ntr": "ROOT_FIXED",
              "ntt": "CHORD",
              "bassOn": false,
              "noteLowLimit": 48,
              "noteHighLimit": 84,
              "chordRootUpperLimit": 127,
              "rtr": "NOTE_GENERATOR"
            }
          },
          "notes": [
            {
              "pitch": 48,
              "velocity": 45,
              "position": 0.008333,
              "duration": 0.95
            },
            {
              "pitch": 59,
              "velocity": 45,
              "position": 0.033333,
              "duration": 0.925
            },
            {
              "pitch": 60,
              "velocity": 45,
              "position": 0.033333,
              "duration": 0.925
            },
            {
              "pitch": 64,
              "velocity": 45,
              "position": 0.058333,
              "duration": 0.9
            },
            {
              "pitch": 67,
              "velocity": 45,
              "position": 0.066667,
              "duration": 0.891667
            },
            {
              "pitch": 48,
              "velocity": 45,
              "position": 2.008333,
              "duration": 0.95
            },
            {
              "pitch": 59,
              "velocity": 45,
              "position": 2.033333,
              "duration": 0.925
            },
            {
              "pitch": 60,
              "velocity": 45,
              "position": 2.033333,
              "duration": 0.925
            },
            {
              "pitch": 64,
              "velocity": 45,
              "position": 2.058333,
              "duration": 0.9
            },
            {
              "pitch": 67,
              "velocity": 45,
              "position": 2.066667,
              "duration": 0.891667
            },
            {
              "pitch": 48,
              "velocity": 45,
              "position": 3.008333,
              "duration": 0.95
            },
            {
              "pitch": 59,
              "velocity": 45,
              "position": 3.033333,
              "duration": 0.925
            },
            {
              "pitch": 60,
              "velocity": 45,
              "position": 3.033333,
              "duration": 0.925
            },
            {
              "pitch": 64,
              "velocity": 45,
              "position": 3.058333,
              "duration": 0.9
            },
            {
              "pitch": 67,
              "velocity": 45,
              "position": 3.066667,
              "duration": 0.891667
            },
            {
              "pitch": 48,
              "velocity": 45,
              "position": 4.508333,
              "duration": 1.433333
            },
            {
              "pitch": 59,
              "velocity": 45,
              "position": 4.533333,
              "duration": 1.408333
            },
            {
              "pitch": 60,
              "velocity": 45,
              "position": 4.533333,
              "duration": 1.408333
            },
            {
              "pitch": 64,
              "velocity": 45,
              "position": 4.558333,
              "duration": 1.383333
            },
            {
              "pitch": 67,
              "velocity": 45,
              "position": 4.566667,
              "duration": 1.375
            },
            {
              "pitch": 48,
              "velocity": 45,
              "position": 6.008333,
              "duration": 5.933333
            },
            {
              "pitch": 59,
              "velocity": 45,
              "position": 6.033333,
              "duration": 5.908333
            },
            {
              "pitch": 60,
              "velocity": 45,
              "position": 6.033333,
              "duration": 5.908333
            },
            {
              "pitch": 64,
              "velocity": 45,
              "position": 6.058333,
              "duration": 5.883333
            },
            {
              "pitch": 67,
              "velocity": 45,
              "position": 6.066667,
              "duration": 5.875
            }
          ]
        },
        "12": {
          "ctab": {
            "srcChannel": 12,
            "name": "Guitar",
            "accType": "CHORD2",
            "editable": true,
            "mutedNotes": [],
            "mutedChords": [],
            "sourceChordNote": 0,
            "sourceChordType": "Maj7",
            "ctb2Main": {
              "ntr": "ROOT_FIXED",
              "ntt": "CHORD",
              "bassOn": false,
              "noteLowLimit": 40,
              "noteHighLimit": 76,
              "chordRootUpperLimit": 127,
              "rtr": "NOTE_GENERATOR"
            }
          },
          "notes": [
            {
              "pitch": 59,
              "velocity": 73,
              "position": 0.008333,
              "duration": 0.633333
            },
            {
              "pitch": 64,
              "velocity": 80,
              "position": 0.041667,
              "duration": 0.583333
            },
            {
              "pitch": 67,
              "velocity": 97,
              "position": 0.091667,
              "duration": 0.508333
            },
            {
              "pitch": 67,
              "velocity": 102,
              "position": 0.758333,
              "duration": 0.125
            },
            {
              "pitch": 64,
              "velocity": 83,
              "position": 0.783333,
              "duration": 0.133333
            },
            {
              "pitch": 59,
              "velocity": 56,
              "position": 0.825,
              "duration": 0.108333
            },
            {
              "pitch": 48,
              "velocity": 62,
              "position": 0.991667,
              "duration": 0.516667
            },
            {
              "pitch": 55,
              "velocity": 73,
              "position": 1.008333,
              "duration": 0.4
            },
            {
              "pitch": 64,
              "velocity": 63,
              "position": 1.016667,
              "duration": 0.35
            },
            {
              "pitch": 67,
              "velocity": 107,
              "position": 1.016667,
              "duration": 0.341667
            },
            {
              "pitch": 59,
              "velocity": 73,
              "position": 1.025,
              "duration": 0.358333
            },
            {
              "pitch": 55,
              "velocity": 88,
              "position": 1.491667,
              "duration": 0.166667
            },
            {
              "pitch": 64,
              "velocity": 117,
              "position": 1.508333,
              "duration": 0.158333
            },
            {
              "pitch": 67,
              "velocity": 122,
              "position": 1.508333,
              "duration": 0.225
            },
            {
              "pitch": 59,
              "velocity": 107,
              "position": 1.525,
              "duration": 0.15
            },
            {
              "pitch": 48,
              "velocity": 53,
              "position": 1.975,
              "duration": 0.508333
            },
            {
              "pitch": 55,
              "velocity": 63,
              "position": 1.991667,
              "duration": 0.5
            },
            {
              "pitch": 59,
              "velocity": 63,
              "position": 2.0,
              "duration": 0.491667
            },
            {
              "pitch": 64,
              "velocity": 63,
              "position": 2.016667,
              "duration": 0.483333
            },
            {
              "pitch": 67,
              "velocity": 63,
              "position": 2.025,
              "duration": 0.475
            },
            {
              "pitch": 48,
              "velocity": 68,
              "position": 2.5,
              "duration": 0.166667
            },
            {
              "pitch": 55,
              "velocity": 80,
              "position": 2.508333,
              "duration": 0.158333
            },
            {
              "pitch": 59,
              "velocity": 80,
              "position": 2.508333,
              "duration": 0.158333
            },
            {
              "pitch": 64,
              "velocity": 80,
              "position": 2.516667,
              "duration": 0.15
            },
            {
              "pitch": 67,
              "velocity": 80,
              "position": 2.516667,
              "duration": 0.15
            },
            {
              "pitch": 48,
              "velocity": 53,
              "position": 3.0,
              "duration": 0.741667
            },
            {
              "pitch": 55,
              "velocity": 63,
              "position": 3.008333,
              "duration": 0.733333
            },
            {
              "pitch": 59,
              "velocity": 63,
              "position": 3.008333,
              "duration": 0.733333
            },
            {
              "pitch": 64,
              "velocity": 63,
              "position": 3.016667,
              "duration": 0.725
            },
            {
              "pitch": 67,
              "velocity": 63,
              "position": 3.016667,
              "duration": 0.7
            },
            {
              "pitch": 67,
              "velocity": 56,
              "position": 3.733333,
              "duration": 0.283333
            },
            {
              "pitch": 64,
              "velocity": 64,
              "position": 3.75,
              "duration": 0.25
            },
            {
              "pitch": 59,
              "velocity": 64,
              "position": 3.766667,
              "duration": 0.216667
            },
            {
              "pitch": 55,
              "velocity": 56,
              "position": 3.783333,
              "duration": 0.183333
            },
            {
              "pitch": 55,
              "velocity": 73,
              "position": 3.983333,
              "duration": 0.316667
            },
            {
              "pitch": 59,
              "velocity": 73,
              "position": 4.0,
              "duration": 0.283333
            },
            {
              "pitch": 64,
              "velocity": 73,
              "position": 4.016667,
              "duration": 0.25
            },
            {
              "pitch": 67,
              "velocity": 73,
              "position": 4.033333,
              "duration": 0.216667
            },
            {
              "pitch": 67,
              "velocity": 51,
              "position": 4.266667,
              "duration": 0.225
            },
            {
              "pitch": 64,
              "velocity": 58,
              "position": 4.283333,
              "duration": 0.208333
            },
            {
              "pitch": 59,
              "velocity": 58,
              "position": 4.3,
              "duration": 0.175
            },
            {
              "pitch": 55,
              "velocity": 51,
              "position": 4.316667,
              "duration": 0.158333
            },
            {
              "pitch": 48,
              "velocity": 82,
              "position": 4.483333,
              "duration": 0.208333
            },
            {
              "pitch": 55,
              "velocity": 97,
              "position": 4.491667,
              "duration": 0.2
            },
            {
              "pitch": 59,
              "velocity": 97,
              "position": 4.491667,
              "duration": 0.2
            },
            {
              "pitch": 64,
              "velocity": 97,
              "position": 4.5,
              "duration": 0.191667
            },
            {
              "pitch": 67,
              "velocity": 97,
              "position": 4.5,
              "duration": 0.191667
            },
            {
              "pitch": 48,
              "velocity": 53,
              "position": 4.975,
              "duration": 0.4
            },
            {
              "pitch": 55,
              "velocity": 63,
              "position": 4.991667,
              "duration": 0.383333
            },
            {
              "pitch": 59,
              "velocity": 63,
              "position": 5.0,
              "duration": 0.375
            },
            {
              "pitch": 64,
              "velocity": 63,
              "position": 5.016667,
              "duration": 0.358333
            },
            {
              "pitch": 67,
              "velocity": 63,
              "position": 5.025,
              "duration": 0.35
            },
            {
              "pitch": 48,
              "velocity": 62,
              "position": 5.933333,
              "duration": 0.866667
            },
            {
              "pitch": 55,
              "velocity": 73,
              "position": 5.983333,
              "duration": 0.641667
            },
            {
              "pitch": 59,
              "velocity": 73,
              "position": 6.008333,
              "duration": 0.633333
            },
            {
              "pitch": 64,
              "velocity": 80,
              "position": 6.041667,
              "duration": 0.583333
            },
            {
              "pitch": 67,
              "velocity": 97,
              "position": 6.091667,
              "duration": 0.508333
            },
            {
              "pitch": 67,
              "velocity": 102,
              "position": 6.758333,
              "duration": 0.125
            },
            {
              "pitch": 64,
              "velocity": 83,
              "position": 6.783333,
              "duration": 0.133333
            },
            {
              "pitch": 59,
              "velocity": 56,
              "position": 6.825,
              "duration": 0.108333
            },
            {
              "pitch": 48,
              "velocity": 62,
              "position": 6.991667,
              "duration": 0.516667
            },
            {
              "pitch": 55,
              "velocity": 73,
              "position": 7.008333,
              "duration": 0.4
            },
            {
              "pitch": 64,
              "velocity": 63,
              "position": 7.016667,
              "duration": 0.35
            },
            {
              "pitch": 67,
              "velocity": 107,
              "position": 7.016667,
              "duration": 0.341667
            },
            {
              "pitch": 59,
              "velocity": 73,
              "position": 7.025,
              "duration": 0.358333
            },
            {
              "pitch": 55,
              "velocity": 88,
              "position": 7.491667,
              "duration": 0.166667
            },
            {
              "pitch": 64,
              "velocity": 117,
              "position": 7.508333,
              "duration": 0.158333
            },
            {
              "pitch": 67,
              "velocity": 122,
              "position": 7.508333,
              "duration": 0.225
            },
            {
              "pitch": 59,
              "velocity": 107,
              "position": 7.525,
              "duration": 0.15
            },
            {
              "pitch": 67,
              "velocity": 51,
              "position": 8.491667,
              "duration": 0.533333
            },
            {
              "pitch": 64,
              "velocity": 58,
              "position": 8.508333,
              "duration": 0.508333
            },
            {
              "pitch": 59,
              "velocity": 58,
              "position": 8.525,
              "duration": 0.475
            },
            {
              "pitch": 55,
              "velocity": 51,
              "position": 8.541667,
              "duration": 0.45
            },
            {
              "pitch": 48,
              "velocity": 56,
              "position": 8.991667,
              "duration": 0.766667
            },
            {
              "pitch": 55,
              "velocity": 66,
              "position": 9.008333,
              "duration": 0.75
            },
            {
              "pitch": 59,
              "velocity": 66,
              "position": 9.016667,
              "duration": 0.741667
            },
            {
              "pitch": 64,
              "velocity": 66,
              "position": 9.033333,
              "duration": 0.7
            },
            {
              "pitch": 67,
              "velocity": 66,
              "position": 9.041667,
              "duration": 0.675
            },
            {
              "pitch": 67,
              "velocity": 65,
              "position": 9.733333,
              "duration": 0.25
            },
            {
              "pitch": 64,
              "velocity": 74,
              "position": 9.75,
              "duration": 0.233333
            },
            {
              "pitch": 59,
              "velocity": 74,
              "position": 9.766667,
              "duration": 0.216667
            },
            {
              "pitch": 55,
              "velocity": 65,
              "position": 9.783333,
              "duration": 0.2
            },
            {
              "pitch": 48,
              "velocity": 43,
              "position": 10.0,
              "duration": 0.483333
            },
            {
              "pitch": 55,
              "velocity": 51,
              "position": 10.008333,
              "duration": 0.491667
            },
            {
              "pitch": 59,
              "velocity": 51,
              "position": 10.008333,
              "duration": 0.491667
            },
            {
              "pitch": 64,
              "velocity": 51,
              "position": 10.016667,
              "duration": 0.483333
            },
            {
              "pitch": 67,
              "velocity": 51,
              "position": 10.016667,
              "duration": 0.483333
            },
            {
              "pitch": 48,
              "velocity": 80,
              "position": 10.5,
              "duration": 0.125
            },
            {
              "pitch": 55,
              "velocity": 95,
              "position": 10.508333,
              "duration": 0.116667
            },
            {
              "pitch": 59,
              "velocity": 95,
              "position": 10.508333,
              "duration": 0.116667
            },
            {
              "pitch": 64,
              "velocity": 95,
              "position": 10.516667,
              "duration": 0.108333
            },
            {
              "pitch": 67,
              "velocity": 95,
              "position": 10.516667,
              "duration": 0.108333
            },
            {
              "pitch": 67,
              "velocity": 51,
              "position": 11.483333,
              "duration": 0.475
            },
            {
              "pitch": 64,
              "velocity": 58,
              "position": 11.5,
              "duration": 0.458333
            },
            {
              "pitch": 59,
              "velocity": 58,
              "position": 11.516667,
              "duration": 0.441667
            },
            {
              "pitch": 55,
              "velocity": 51,
              "position": 11.533333,
              "duration": 0.425
            },
            {
              "pitch": 43,
              "velocity": 50,
              "position": 11.975,
              "duration": 0.766667
            },
            {
              "pitch": 48,
              "velocity": 53,
              "position": 11.983333,
              "duration": 0.758333
            }
          ]
        },
        "13": {
          "ctab": {
            "srcChannel": 13,
            "name": "Strings",
            "accType": "PAD",
            "editable": true,
            "mutedNotes": [],
            "mutedChords": [],
            "sourceChordNote": 0,
            "sourceChordType": "Maj7",
            "ctb2Main": {
              "ntr": "ROOT_FIXED",
              "ntt": "MELODY",
              "bassOn": false,
              "noteLowLimit": 36,
              "noteHighLimit": 96,
              "chordRootUpperLimit": 127,
              "rtr": "PITCH_SHIFT"
            }
          },
          "notes": []
        }
      }
    },
    "Fill_In_AA": {
      "type": "Fill_In_AA",
      "sizeInBeats": 12,
      "channels": {
        "9": {
          "ctab": {
            "srcChannel": 9,
            "name": "Drums",
            "accType": "RHYTHM",
            "editable": false,
            "mutedNotes": [],
            "mutedChords": [],
            "sourceChordNote": 0,
            "sourceChordType": "Maj",
            "ctb2Main": {
              "ntr": "ROOT_FIXED",
              "ntt": "BYPASS",
              "bassOn": false,
              "noteLowLimit": 20,
              "noteHighLimit": 127,
              "chordRootUpperLimit": 127,
              "rtr": "RETRIGGER"
            }
          },
          "notes": [
            {
              "pitch": 35,
              "velocity": 50,
              "position": 0.0,
              "duration": 0.208333
            },
            {
              "pitch": 42,
              "velocity": 50,
              "position": 0.0,
              "duration": 0.208333
            },
            {
              "pitch": 49,
              "velocity": 50,
              "position": 0.0,
              "duration": 0.208333
            },
            {
              "pitch": 42,
              "velocity": 50,
              "position": 0.5,
              "duration": 0.208333
            },
            {
              "pitch": 35,
              "velocity": 50,
              "position": 0.75,
              "duration": 0.208333
            },
            {
              "pitch": 35,
              "velocity": 50,
              "position": 1.0,
              "duration": 0.208333
            },
            {
              "pitch": 42,
              "velocity": 50,
              "position": 1.0,
              "duration": 0.208333
            },
            {
              "pitch": 87,
              "velocity": 50,
              "position": 1.0,
              "duration": 0.208333
            },
            {
              "pitch": 37,
              "velocity": 60,
              "position": 1.5,
              "duration": 0.208333
            },
            {
              "pitch": 42,
              "velocity": 50,
              "position": 1.5,
              "duration": 0.208333
            },
            {
              "pitch": 35,
              "velocity": 50,
              "position": 2.0,
              "duration": 0.208333
            },
            {
              "pitch": 42,
              "velocity": 50,
              "position": 2.0,
              "duration": 0.208333
            },
            {
              "pitch": 87,
              "velocity": 50,
              "position": 2.0,
              "duration": 0.208333
            },
            {
              "pitch": 42,
              "velocity": 50,
              "position": 2.5,
              "duration": 0.208333
            },
            {
              "pitch": 35,
              "velocity": 50,
              "position": 3.0,
              "duration": 0.208333
            },
            {
              "pitch": 37,
              "velocity": 50,
              "position": 3.0,
              "duration": 0.208333
            },
            {
              "pitch": 42,
              "velocity": 50,
              "position": 3.0,
              "duration": 0.208333
            },
            {
              "pitch": 42,
              "velocity": 50,
              "position": 3.5,
              "duration": 0.208333
            },
            {
              "pitch": 35,
              "velocity": 50,
              "position": 3.75,
              "duration": 0.208333
            },
            {
              "pitch": 35,
              "velocity": 50,
              "position": 4.0,
              "duration": 0.208333
            },
            {
              "pitch": 42,
              "velocity": 50,
              "position": 4.0,
              "duration": 0.208333
            },
            {
              "pitch": 87,
              "velocity": 50,
              "position": 4.0,
              "duration": 0.208333
            },
            {
              "pitch": 37,
              "velocity": 40,
              "position": 4.5,
              "duration": 0.208333
            },
            {
              "pitch": 42,
              "velocity": 50,
              "position": 4.5,
              "duration": 0.208333
            },
            {
              "pitch": 35,
              "velocity": 50,
              "position": 5.0,
              "duration": 0.208333
            },
            {
              "pitch": 42,
              "velocity": 50,
              "position": 5.0,
              "duration": 0.208333
            },
            {
              "pitch": 87,
              "velocity": 50,
              "position": 5.0,
              "duration": 0.208333
            },
            {
              "pitch": 42,
              "velocity": 50,
              "position": 5.5,
              "duration": 0.208333
            },
            {
              "pitch": 48,
              "velocity": 50,
              "position": 5.5,
              "duration": 0.208333
            },
            {
              "pitch": 45,
              "velocity": 40,
              "position": 5.75,
              "duration": 0.208333
            },
            {
              "pitch": 35,
              "velocity": 50,
              "position": 6.0,
              "duration": 0.208333
            },
            {
              "pitch": 42,
              "velocity": 50,
              "position": 6.0,
              "duration": 0.208333
            },
            {
              "pitch": 42,
              "velocity": 50,
              "position": 6.5,
              "duration": 0.208333
            },
            {
              "pitch": 35,
              "velocity": 50,
              "position": 6.75,
              "duration": 0.208333
            },
            {
              "pitch": 35,
              "velocity": 50,
              "position": 7.0,
              "duration": 0.208333
            },
            {
              "pitch": 42,
              "velocity": 50,
              "position": 7.0,
              "duration": 0.208333
            },
            {
              "pitch": 87,
              "velocity": 50,
              "position": 7.0,
              "duration": 0.208333
            },
            {
              "pitch": 37,
              "velocity": 60,
              "position": 7.5,
              "duration": 0.208333
            },
            {
              "pitch": 42,
              "velocity": 50,
              "position": 7.5,
              "duration": 0.208333
            },
            {
              "pitch": 35,
              "velocity": 50,
              "position": 8.0,
              "duration": 0.208333
            },
            {
              "pitch": 42,
              "velocity": 50,
              "position": 8.0,
              "duration": 0.208333
            },
            {
              "pitch": 87,
              "velocity": 50,
              "position": 8.0,
              "duration": 0.208333
            },
            {
              "pitch": 42,
              "velocity": 50,
              "position": 8.5,
              "duration": 0.208333
            },
            {
              "pitch": 35,
              "velocity": 50,
              "position": 9.0,
              "duration": 0.208333
            },
            {
              "pitch": 37,
              "velocity": 50,
              "position": 9.0,
              "duration": 0.208333
            },
            {
              "pitch": 42,
              "velocity": 50,
              "position": 9.0,
              "duration": 0.208333
            },
            {
              "pitch": 42,
              "velocity": 50,
              "position": 9.5,
              "duration": 0.208333
            },
            {
              "pitch": 35,
              "velocity": 50,
              "position": 9.75,
              "duration": 0.208333
            },
            {
              "pitch": 35,
              "velocity": 50,
              "position": 10.0,
              "duration": 0.208333
            },
            {
              "pitch": 42,
              "velocity": 50,
              "position": 10.0,
              "duration": 0.208333
            },
            {
              "pitch": 87,
              "velocity": 50,
              "position": 10.0,
              "duration": 0.208333
            },
            {
              "pitch": 37,
              "velocity": 40,
              "position": 10.5,
              "duration": 0.208333
            },
            {
              "pitch": 42,
              "velocity": 50,
              "position": 10.5,
              "duration": 0.208333
            },
            {
              "pitch": 35,
              "velocity": 50,
              "position": 11.0,
              "duration": 0.208333
            },
            {
              "pitch": 42,
              "velocity": 50,
              "position": 11.0,
              "duration": 0.208333
            },
            {
              "pitch": 48,
              "velocity": 40,
              "position": 11.0,
              "duration": 0.208333
            },
            {
              "pitch": 87,
              "velocity": 50,
              "position": 11.0,
              "duration": 0.208333
            },
            {
              "pitch": 48,
              "velocity": 40,
              "position": 11.25,
              "duration": 0.208333
            },
            {
              "pitch": 42,
              "velocity": 50,
              "position": 11.5,
              "duration": 0.208333
            },
            {
              "pitch": 45,
              "velocity": 40,
              "position": 11.75,
              "duration": 0.208333
            }
          ]
        },
        "10": {
          "ctab": {
            "srcChannel": 10,
            "name": "Bass",
            "accType": "BASS",
            "editable": true,
            "mutedNotes": [],
            "mutedChords": [],
            "sourceChordNote": 0,
            "sourceChordType": "Maj7",
            "ctb2Main": {
              "ntr": "ROOT_TRANSPOSITION",
              "ntt": "BYPASS",
              "bassOn": true,
              "noteLowLimit": 20,
              "noteHighLimit": 60,
              "chordRootUpperLimit": 127,
              "rtr": "NOTE_GENERATOR"
            }
          },
          "notes": [
            {
              "pitch": 36,
              "velocity": 60,
              "position": 0.008333,
              "duration": 1.95
            },
            {
              "pitch": 36,
              "velocity": 60,
              "position": 2.008333,
              "duration": 0.95
            },
            {
              "pitch": 36,
              "velocity": 60,
              "position": 3.008333,
              "duration": 1.95
            },
            {
              "pitch": 36,
              "velocity": 60,
              "position": 5.008333,
              "duration": 0.95
            },
            {
              "pitch": 36,
              "velocity": 60,
              "position": 6.008333,
              "duration": 2.433333
            },
            {
              "pitch": 31,
              "velocity": 61,
              "position": 8.525,
              "duration": 0.483333
            },
            {
              "pitch": 36,
              "velocity": 61,
              "position": 9.016667,
              "duration": 2.35
            },
            {
              "pitch": 31,
              "velocity": 61,
              "position": 11.533333,
              "duration": 0.425
            }
          ]
        },
        "11": {
          "ctab": {
            "srcChannel": 11,
            "name": "Piano",
            "accType": "CHORD1",
            "editable": true,
            "mutedNotes": [],
            "mutedChords": [],
            "sourceChordNote": 0,
            "sourceChordType": "Maj7",
            "ctb2Main": {
              "ntr": "ROOT_FIXED",
              "ntt": "CHORD",
              "bassOn": false,
              "noteLowLimit": 48,
              "noteHighLimit": 84,
              "chordRootUpperLimit": 127,
              "rtr": "NOTE_GENERATOR"
            }
          },
          "notes": [
            {
              "pitch": 48,
              "velocity": 45,
              "position": 0.008333,
              "duration": 0.95
            },
            {
              "pitch": 59,
              "velocity": 45,
              "position": 0.033333,
              "duration": 0.925
            },
            {
              "pitch": 60,
              "velocity": 45,
              "position": 0.033333,
              "duration": 0.925
            },
            {
              "pitch": 64,
              "velocity": 45,
              "position": 0.058333,
              "duration": 0.9
            },
            {
              "pitch": 67,
              "velocity": 45,
              "position": 0.066667,
              "duration": 0.891667
            },
            {
              "pitch": 48,
              "velocity": 45,
              "position": 2.008333,
              "duration": 0.95
            },
            {
              "pitch": 59,
              "velocity": 45,
              "position": 2.033333,
              "duration": 0.925
            },
            {
              "pitch": 60,
              "velocity": 45,
              "position": 2.033333,
              "duration": 0.925
            },
            {
              "pitch": 64,
              "velocity": 45,
              "position": 2.058333,
              "duration": 0.9
            },
            {
              "pitch": 67,
              "velocity": 45,
              "position": 2.066667,
              "duration": 0.891667
            },
            {
              "pitch": 48,
              "velocity": 45,
              "position": 3.008333,
              "duration": 0.95
            },
            {
              "pitch": 59,
              "velocity": 45,
              "position": 3.033333,
              "duration": 0.925
            },
            {
              "pitch": 60,
              "velocity": 45,
              "position": 3.033333,
              "duration": 0.925
            },
            {
              "pitch": 64,
              "velocity": 45,
              "position": 3.058333,
              "duration": 0.9
            },
            {
              "pitch": 67,
              "velocity": 45,
              "position": 3.066667,
              "duration": 0.891667
            },
            {
              "pitch": 48,
              "velocity": 45,
              "position": 5.008333,
              "duration": 0.95
            },
            {
              "pitch": 59,
              "velocity": 45,
              "position": 5.033333,
              "duration": 0.925
            },
            {
              "pitch": 60,
              "velocity": 45,
              "position": 5.033333,
              "duration": 0.925
            },
            {
              "pitch": 64,
              "velocity": 45,
              "position": 5.058333,
              "duration": 0.9
            },
            {
              "pitch": 67,
              "velocity": 45,
              "position": 5.066667,
              "duration": 0.891667
            },
            {
              "pitch": 48,
              "velocity": 45,
              "position": 6.008333,
              "duration": 2.458333
            },
            {
              "pitch": 59,
              "velocity": 45,
              "position": 6.033333,
              "duration": 2.616667
            },
            {
              "pitch": 60,
              "velocity": 45,
              "position": 6.033333,
              "duration": 2.083333
            },
            {
              "pitch": 64,
              "velocity": 45,
              "position": 6.058333,
              "duration": 1.85
            },
            {
              "pitch": 67,
              "velocity": 45,
              "position": 6.066667,
              "duration": 1.425
            },
            {
              "pitch": 71,
              "velocity": 61,
              "position": 7.508333,
              "duration": 0.508333
            },
            {
              "pitch": 67,
              "velocity": 49,
              "position": 8.025,
              "duration": 0.491667
            },
            {
              "pitch": 60,
              "velocity": 56,
              "position": 8.525,
              "duration": 0.466667
            },
            {
              "pitch": 59,
              "velocity": 51,
              "position": 9.0,
              "duration": 2.958333
            },
            {
              "pitch": 62,
              "velocity": 51,
              "position": 9.0,
              "duration": 2.958333
            },
            {
              "pitch": 64,
              "velocity": 51,
              "position": 9.0,
              "duration": 2.958333
            },
            {
              "pitch": 67,
              "velocity": 51,
              "position": 9.0,
              "duration": 2.958333
            },
            {
              "pitch": 48,
              "velocity": 46,
              "position": 9.033333,
              "duration": 2.925
            }
          ]
        },
        "12": {
          "ctab": {
            "srcChannel": 12,
            "name": "Guitar",
            "accType": "CHORD2",
            "editable": true,
            "mutedNotes": [],
            "mutedChords": [],
            "sourceChordNote": 0,
            "sourceChordType": "Maj7",
            "ctb2Main": {
              "ntr": "ROOT_FIXED",
              "ntt": "CHORD",
              "bassOn": false,
              "noteLowLimit": 40,
              "noteHighLimit": 76,
              "chordRootUpperLimit": 127,
              "rtr": "NOTE_GENERATOR"
            }
          },
          "notes": [
            {
              "pitch": 55,
              "velocity": 63,
              "position": 0.0,
              "duration": 0.741667
            },
            {
              "pitch": 59,
              "velocity": 63,
              "position": 0.008333,
              "duration": 0.733333
            },
            {
              "pitch": 64,
              "velocity": 63,
              "position": 0.016667,
              "duration": 0.725
            },
            {
              "pitch": 67,
              "velocity": 63,
              "position": 0.033333,
              "duration": 0.683333
            },
            {
              "pitch": 67,
              "velocity": 56,
              "position": 0.733333,
              "duration": 0.283333
            },
            {
              "pitch": 64,
              "velocity": 64,
              "position": 0.75,
              "duration": 0.258333
            },
            {
              "pitch": 59,
              "velocity": 64,
              "position": 0.766667,
              "duration": 0.225
            },
            {
              "pitch": 55,
              "velocity": 56,
              "position": 0.783333,
              "duration": 0.2
            },
            {
              "pitch": 48,
              "velocity": 62,
              "position": 0.983333,
              "duration": 0.483333
            },
            {
              "pitch": 55,
              "velocity": 73,
              "position": 1.0,
              "duration": 0.475
            },
            {
              "pitch": 59,
              "velocity": 73,
              "position": 1.008333,
              "duration": 0.483333
            },
            {
              "pitch": 64,
              "velocity": 73,
              "position": 1.025,
              "duration": 0.466667
            },
            {
              "pitch": 67,
              "velocity": 73,
              "position": 1.033333,
              "duration": 0.458333
            },
            {
              "pitch": 43,
              "velocity": 77,
              "position": 1.483333,
              "duration": 0.208333
            },
            {
              "pitch": 48,
              "velocity": 82,
              "position": 1.483333,
              "duration": 0.208333
            },
            {
              "pitch": 55,
              "velocity": 97,
              "position": 1.491667,
              "duration": 0.2
            },
            {
              "pitch": 59,
              "velocity": 97,
              "position": 1.5,
              "duration": 0.191667
            },
            {
              "pitch": 64,
              "velocity": 97,
              "position": 1.5,
              "duration": 0.191667
            },
            {
              "pitch": 67,
              "velocity": 97,
              "position": 1.5,
              "duration": 0.191667
            },
            {
              "pitch": 48,
              "velocity": 53,
              "position": 1.975,
              "duration": 0.4
            },
            {
              "pitch": 55,
              "velocity": 63,
              "position": 1.991667,
              "duration": 0.383333
            },
            {
              "pitch": 59,
              "velocity": 63,
              "position": 2.0,
              "duration": 0.375
            },
            {
              "pitch": 64,
              "velocity": 63,
              "position": 2.016667,
              "duration": 0.358333
            },
            {
              "pitch": 67,
              "velocity": 63,
              "position": 2.025,
              "duration": 0.35
            },
            {
              "pitch": 48,
              "velocity": 62,
              "position": 2.933333,
              "duration": 0.866667
            },
            {
              "pitch": 55,
              "velocity": 73,
              "position": 2.983333,
              "duration": 0.641667
            },
            {
              "pitch": 59,
              "velocity": 73,
              "position": 3.008333,
              "duration": 0.633333
            },
            {
              "pitch": 64,
              "velocity": 80,
              "position": 3.041667,
              "duration": 0.583333
            },
            {
              "pitch": 67,
              "velocity": 97,
              "position": 3.091667,
              "duration": 0.508333
            },
            {
              "pitch": 67,
              "velocity": 102,
              "position": 3.758333,
              "duration": 0.125
            },
            {
              "pitch": 64,
              "velocity": 83,
              "position": 3.783333,
              "duration": 0.133333
            },
            {
              "pitch": 59,
              "velocity": 56,
              "position": 3.825,
              "duration": 0.108333
            },
            {
              "pitch": 48,
              "velocity": 62,
              "position": 3.991667,
              "duration": 0.516667
            },
            {
              "pitch": 55,
              "velocity": 73,
              "position": 4.008333,
              "duration": 0.4
            },
            {
              "pitch": 64,
              "velocity": 63,
              "position": 4.016667,
              "duration": 0.35
            },
            {
              "pitch": 67,
              "velocity": 107,
              "position": 4.016667,
              "duration": 0.341667
            },
            {
              "pitch": 59,
              "velocity": 73,
              "position": 4.025,
              "duration": 0.358333
            },
            {
              "pitch": 55,
              "velocity": 88,
              "position": 4.491667,
              "duration": 0.166667
            },
            {
              "pitch": 64,
              "velocity": 117,
              "position": 4.508333,
              "duration": 0.158333
            },
            {
              "pitch": 67,
              "velocity": 122,
              "position": 4.508333,
              "duration": 0.225
            },
            {
              "pitch": 59,
              "velocity": 107,
              "position": 4.525,
              "duration": 0.15
            },
            {
              "pitch": 48,
              "velocity": 53,
              "position": 4.975,
              "duration": 0.508333
            },
            {
              "pitch": 55,
              "velocity": 63,
              "position": 4.991667,
              "duration": 0.5
            },
            {
              "pitch": 59,
              "velocity": 63,
              "position": 5.0,
              "duration": 0.491667
            },
            {
              "pitch": 64,
              "velocity": 63,
              "position": 5.016667,
              "duration": 0.483333
            },
            {
              "pitch": 67,
              "velocity": 63,
              "position": 5.025,
              "duration": 0.475
            },
            {
              "pitch": 48,
              "velocity": 68,
              "position": 5.5,
              "duration": 0.166667
            },
            {
              "pitch": 55,
              "velocity": 80,
              "position": 5.508333,
              "duration": 0.158333
            },
            {
              "pitch": 59,
              "velocity": 80,
              "position": 5.508333,
              "duration": 0.158333
            },
            {
              "pitch": 64,
              "velocity": 80,
              "position": 5.516667,
              "duration": 0.15
            },
            {
              "pitch": 67,
              "velocity": 80,
              "position": 5.516667,
              "duration": 0.15
            },
            {
              "pitch": 48,
              "velocity": 53,
              "position": 6.0,
              "duration": 0.741667
            },
            {
              "pitch": 55,
              "velocity": 63,
              "position": 6.008333,
              "duration": 0.733333
            },
            {
              "pitch": 59,
              "velocity": 63,
              "position": 6.008333,
              "duration": 0.733333
            },
            {
              "pitch": 64,
              "velocity": 63,
              "position": 6.016667,
              "duration": 0.725
            },
            {
              "pitch": 67,
              "velocity": 63,
              "position": 6.016667,
              "duration": 0.7
            },
            {
              "pitch": 67,
              "velocity": 56,
              "position": 6.733333,
              "duration": 0.283333
            },
            {
              "pitch": 64,
              "velocity": 64,
              "position": 6.75,
              "duration": 0.25
            },
            {
              "pitch": 59,
              "velocity": 64,
              "position": 6.766667,
              "duration": 0.216667
            },
            {
              "pitch": 55,
              "velocity": 56,
              "position": 6.783333,
              "duration": 0.183333
            },
            {
              "pitch": 55,
              "velocity": 73,
              "position": 6.983333,
              "duration": 0.491667
            },
            {
              "pitch": 59,
              "velocity": 73,
              "position": 7.0,
              "duration": 0.475
            },
            {
              "pitch": 64,
              "velocity": 73,
              "position": 7.016667,
              "duration": 0.475
            },
            {
              "pitch": 67,
              "velocity": 73,
              "position": 7.033333,
              "duration": 0.458333
            },
            {
              "pitch": 48,
              "velocity": 82,
              "position": 7.483333,
              "duration": 0.208333
            },
            {
              "pitch": 55,
              "velocity": 97,
              "position": 7.491667,
              "duration": 0.2
            },
            {
              "pitch": 59,
              "velocity": 97,
              "position": 7.491667,
              "duration": 0.2
            },
            {
              "pitch": 64,
              "velocity": 97,
              "position": 7.5,
              "duration": 0.191667
            },
            {
              "pitch": 67,
              "velocity": 97,
              "position": 7.5,
              "duration": 0.191667
            },
            {
              "pitch": 55,
              "velocity": 51,
              "position": 7.983333,
              "duration": 0.516667
            },
            {
              "pitch": 59,
              "velocity": 51,
              "position": 8.0,
              "duration": 0.5
            },
            {
              "pitch": 64,
              "velocity": 51,
              "position": 8.016667,
              "duration": 0.5
            },
            {
              "pitch": 67,
              "velocity": 51,
              "position": 8.033333,
              "duration": 0.483333
            },
            {
              "pitch": 48,
              "velocity": 62,
              "position": 8.508333,
              "duration": 0.175
            },
            {
              "pitch": 55,
              "velocity": 73,
              "position": 8.516667,
              "duration": 0.166667
            },
            {
              "pitch": 59,
              "velocity": 73,
              "position": 8.516667,
              "duration": 0.166667
            },
            {
              "pitch": 64,
              "velocity": 73,
              "position": 8.525,
              "duration": 0.158333
            },
            {
              "pitch": 67,
              "velocity": 73,
              "position": 8.525,
              "duration": 0.158333
            },
            {
              "pitch": 48,
              "velocity": 57,
              "position": 8.991667,
              "duration": 0.775
            },
            {
              "pitch": 55,
              "velocity": 68,
              "position": 9.0,
              "duration": 0.766667
            },
            {
              "pitch": 59,
              "velocity": 68,
              "position": 9.0,
              "duration": 0.75
            },
            {
              "pitch": 64,
              "velocity": 68,
              "position": 9.008333,
              "duration": 0.725
            },
            {
              "pitch": 67,
              "velocity": 68,
              "position": 9.008333,
              "duration": 0.708333
            },
            {
              "pitch": 67,
              "velocity": 51,
              "position": 9.733333,
              "duration": 0.283333
            },
            {
              "pitch": 64,
              "velocity": 58,
              "position": 9.75,
              "duration": 0.25
            },
            {
              "pitch": 59,
              "velocity": 58,
              "position": 9.766667,
              "duration": 0.216667
            },
            {
              "pitch": 55,
              "velocity": 51,
              "position": 9.783333,
              "duration": 0.183333
            },
            {
              "pitch": 55,
              "velocity": 73,
              "position": 9.983333,
              "duration": 0.5
            },
            {
              "pitch": 59,
              "velocity": 73,
              "position": 10.0,
              "duration": 0.483333
            },
            {
              "pitch": 64,
              "velocity": 73,
              "position": 10.016667,
              "duration": 0.483333
            },
            {
              "pitch": 67,
              "velocity": 73,
              "position": 10.033333,
              "duration": 0.466667
            },
            {
              "pitch": 48,
              "velocity": 85,
              "position": 10.491667,
              "duration": 0.191667
            },
            {
              "pitch": 55,
              "velocity": 100,
              "position": 10.5,
              "duration": 0.183333
            },
            {
              "pitch": 59,
              "velocity": 100,
              "position": 10.5,
              "duration": 0.183333
            },
            {
              "pitch": 64,
              "velocity": 100,
              "position": 10.508333,
              "duration": 0.175
            },
            {
              "pitch": 67,
              "velocity": 100,
              "position": 10.508333,
              "duration": 0.175
            },
            {
              "pitch": 55,
              "velocity": 63,
              "position": 10.975,
              "duration": 0.516667
            },
            {
              "pitch": 59,
              "velocity": 63,
              "position": 10.991667,
              "duration": 0.5
            },
            {
              "pitch": 64,
              "velocity": 63,
              "position": 11.008333,
              "duration": 0.5
            },
            {
              "pitch": 67,
              "velocity": 63,
              "position": 11.025,
              "duration": 0.483333
            },
            {
              "pitch": 48,
              "velocity": 62,
              "position": 11.5,
              "duration": 0.275
            },
            {
              "pitch": 55,
              "velocity": 73,
              "position": 11.508333,
              "duration": 0.266667
            },
            {
              "pitch": 59,
              "velocity": 73,
              "position": 11.508333,
              "duration": 0.266667
            },
            {
              "pitch": 64,
              "velocity": 73,
              "position": 11.516667,
              "duration": 0.258333
            },
            {
              "pitch": 67,
              "velocity": 73,
              "position": 11.516667,
              "duration": 0.258333
            }
          ]
        },
        "13": {
          "ctab": {
            "srcChannel": 13,
            "name": "Strings",
            "accType": "PAD",
            "editable": true,
            "mutedNotes": [],
            "mutedChords": [],
            "sourceChordNote": 0,
            "sourceChordType": "Maj7",
            "ctb2Main": {
              "ntr": "ROOT_FIXED",
              "ntt": "MELODY",
              "bassOn": false,
              "noteLowLimit": 36,
              "noteHighLimit": 96,
              "chordRootUpperLimit": 127,
              "rtr": "PITCH_SHIFT"
            }
          },
          "notes": []
        }
      }
    },
    "Ending_A": {
      "type": "Ending_A",
      "sizeInBeats": 12,
      "channels": {
        "9": {
          "ctab": {
            "srcChannel": 9,
            "name": "Drums",
            "accType": "RHYTHM",
            "editable": false,
            "mutedNotes": [],
            "mutedChords": [],
            "sourceChordNote": 0,
            "sourceChordType": "Maj",
            "ctb2Main": {
              "ntr": "ROOT_FIXED",
              "ntt": "BYPASS",
              "bassOn": false,
              "noteLowLimit": 20,
              "noteHighLimit": 127,
              "chordRootUpperLimit": 127,
              "rtr": "RETRIGGER"
            }
          },
          "notes": [
            {
              "pitch": 35,
              "velocity": 40,
              "position": 0.0,
              "duration": 0.208333
            },
            {
              "pitch": 42,
              "velocity": 40,
              "position": 0.0,
              "duration": 0.208333
            },
            {
              "pitch": 49,
              "velocity": 48,
              "position": 0.0,
              "duration": 0.208333
            },
            {
              "pitch": 42,
              "velocity": 40,
              "position": 0.5,
              "duration": 0.208333
            },
            {
              "pitch": 35,
              "velocity": 40,
              "position": 0.75,
              "duration": 0.208333
            },
            {
              "pitch": 35,
              "velocity": 40,
              "position": 1.0,
              "duration": 0.208333
            },
            {
              "pitch": 42,
              "velocity": 40,
              "position": 1.0,
              "duration": 0.208333
            },
            {
              "pitch": 87,
              "velocity": 40,
              "position": 1.0,
              "duration": 0.208333
            },
            {
              "pitch": 37,
              "velocity": 50,
              "position": 1.5,
              "duration": 0.208333
            },
            {
              "pitch": 42,
              "velocity": 40,
              "position": 1.5,
              "duration": 0.208333
            },
            {
              "pitch": 35,
              "velocity": 40,
              "position": 2.0,
              "duration": 0.208333
            },
            {
              "pitch": 42,
              "velocity": 40,
              "position": 2.0,
              "duration": 0.208333
            },
            {
              "pitch": 87,
              "velocity": 40,
              "position": 2.0,
              "duration": 0.208333
            },
            {
              "pitch": 42,
              "velocity": 40,
              "position": 2.5,
              "duration": 0.208333
            },
            {
              "pitch": 35,
              "velocity": 40,
              "position": 3.0,
              "duration": 0.208333
            },
            {
              "pitch": 37,
              "velocity": 40,
              "position": 3.0,
              "duration": 0.208333
            },
            {
              "pitch": 42,
              "velocity": 40,
              "position": 3.0,
              "duration": 0.208333
            },
            {
              "pitch": 42,
              "velocity": 40,
              "position": 3.5,
              "duration": 0.208333
            },
            {
              "pitch": 35,
              "velocity": 40,
              "position": 3.75,
              "duration": 0.208333
            },
            {
              "pitch": 35,
              "velocity": 40,
              "position": 4.0,
              "duration": 0.208333
            },
            {
              "pitch": 42,
              "velocity": 40,
              "position": 4.0,
              "duration": 0.208333
            },
            {
              "pitch": 87,
              "velocity": 40,
              "position": 4.0,
              "duration": 0.208333
            },
            {
              "pitch": 37,
              "velocity": 30,
              "position": 4.5,
              "duration": 0.208333
            },
            {
              "pitch": 42,
              "velocity": 40,
              "position": 4.5,
              "duration": 0.208333
            },
            {
              "pitch": 35,
              "velocity": 40,
              "position": 5.0,
              "duration": 0.208333
            },
            {
              "pitch": 42,
              "velocity": 40,
              "position": 5.0,
              "duration": 0.208333
            },
            {
              "pitch": 87,
              "velocity": 40,
              "position": 5.0,
              "duration": 0.208333
            },
            {
              "pitch": 42,
              "velocity": 40,
              "position": 5.5,
              "duration": 0.208333
            },
            {
              "pitch": 35,
              "velocity": 40,
              "position": 6.0,
              "duration": 0.208333
            },
            {
              "pitch": 42,
              "velocity": 40,
              "position": 6.0,
              "duration": 0.208333
            },
            {
              "pitch": 42,
              "velocity": 40,
              "position": 6.5,
              "duration": 0.208333
            },
            {
              "pitch": 35,
              "velocity": 40,
              "position": 6.75,
              "duration": 0.208333
            },
            {
              "pitch": 41,
              "velocity": 40,
              "position": 6.75,
              "duration": 0.208333
            },
            {
              "pitch": 35,
              "velocity": 40,
              "position": 7.0,
              "duration": 0.208333
            },
            {
              "pitch": 42,
              "velocity": 40,
              "position": 7.0,
              "duration": 0.208333
            },
            {
              "pitch": 87,
              "velocity": 40,
              "position": 7.0,
              "duration": 0.208333
            },
            {
              "pitch": 37,
              "velocity": 50,
              "position": 7.5,
              "duration": 0.208333
            },
            {
              "pitch": 42,
              "velocity": 40,
              "position": 7.5,
              "duration": 0.208333
            },
            {
              "pitch": 35,
              "velocity": 40,
              "position": 8.0,
              "duration": 0.208333
            },
            {
              "pitch": 42,
              "velocity": 40,
              "position": 8.0,
              "duration": 0.208333
            },
            {
              "pitch": 87,
              "velocity": 40,
              "position": 8.0,
              "duration": 0.208333
            },
            {
              "pitch": 42,
              "velocity": 40,
              "position": 8.5,
              "duration": 0.208333
            },
            {
              "pitch": 35,
              "velocity": 40,
              "position": 9.0,
              "duration": 0.208333
            },
            {
              "pitch": 37,
              "velocity": 40,
              "position": 9.0,
              "duration": 0.208333
            },
            {
              "pitch": 42,
              "velocity": 40,
              "position": 9.0,
              "duration": 0.208333
            },
            {
              "pitch": 42,
              "velocity": 40,
              "position": 9.5,
              "duration": 0.208333
            },
            {
              "pitch": 35,
              "velocity": 40,
              "position": 9.75,
              "duration": 0.208333
            },
            {
              "pitch": 35,
              "velocity": 40,
              "position": 10.0,
              "duration": 0.208333
            },
            {
              "pitch": 42,
              "velocity": 40,
              "position": 10.0,
              "duration": 0.208333
            },
            {
              "pitch": 87,
              "velocity": 40,
              "position": 10.0,
              "duration": 0.208333
            },
            {
              "pitch": 37,
              "velocity": 30,
              "position": 10.5,
              "duration": 0.208333
            },
            {
              "pitch": 42,
              "velocity": 40,
              "position": 10.5,
              "duration": 0.208333
            },
            {
              "pitch": 45,
              "velocity": 40,
              "position": 10.75,
              "duration": 0.208333
            },
            {
              "pitch": 35,
              "velocity": 40,
              "position": 11.0,
              "duration": 0.208333
            },
            {
              "pitch": 42,
              "velocity": 40,
              "position": 11.0,
              "duration": 0.208333
            },
            {
              "pitch": 48,
              "velocity": 40,
              "position": 11.0,
              "duration": 0.208333
            },
            {
              "pitch": 87,
              "velocity": 40,
              "position": 11.0,
              "duration": 0.208333
            },
            {
              "pitch": 45,
              "velocity": 40,
              "position": 11.25,
              "duration": 0.208333
            },
            {
              "pitch": 42,
              "velocity": 40,
              "position": 11.5,
              "duration": 0.208333
            },
            {
              "pitch": 48,
              "velocity": 50,
              "position": 11.75,
              "duration": 0.208333
            }
          ]
        },
        "10": {
          "ctab": {
            "srcChannel": 10,
            "name": "Bass",
            "accType": "BASS",
            "editable": true,
            "mutedNotes": [],
            "mutedChords": [],
            "sourceChordNote": 0,
            "sourceChordType": "Maj7",
            "ctb2Main": {
              "ntr": "ROOT_TRANSPOSITION",
              "ntt": "BYPASS",
              "bassOn": true,
              "noteLowLimit": 20,
              "noteHighLimit": 60,
              "chordRootUpperLimit": 127,
              "rtr": "NOTE_GENERATOR"
            }
          },
          "notes": [
            {
              "pitch": 36,
              "velocity": 60,
              "position": 0.008333,
              "duration": 1.95
            },
            {
              "pitch": 36,
              "velocity": 60,
              "position": 2.008333,
              "duration": 0.95
            },
            {
              "pitch": 36,
              "velocity": 60,
              "position": 3.008333,
              "duration": 1.325
            },
            {
              "pitch": 36,
              "velocity": 61,
              "position": 4.516667,
              "duration": 0.425
            },
            {
              "pitch": 36,
              "velocity": 60,
              "position": 5.008333,
              "duration": 0.95
            },
            {
              "pitch": 36,
              "velocity": 60,
              "position": 6.008333,
              "duration": 2.433333
            },
            {
              "pitch": 31,
              "velocity": 61,
              "position": 8.525,
              "duration": 0.433333
            },
            {
              "pitch": 36,
              "velocity": 60,
              "position": 9.008333,
              "duration": 2.433333
            },
            {
              "pitch": 31,
              "velocity": 61,
              "position": 11.525,
              "duration": 0.433333
            }
          ]
        },
        "11": {
          "ctab": {
            "srcChannel": 11,
            "name": "Piano",
            "accType": "CHORD1",
            "editable": true,
            "mutedNotes": [],
            "mutedChords": [],
            "sourceChordNote": 0,
            "sourceChordType": "Maj7",
            "ctb2Main": {
              "ntr": "ROOT_FIXED",
              "ntt": "CHORD",
              "bassOn": false,
              "noteLowLimit": 48,
              "noteHighLimit": 84,
              "chordRootUpperLimit": 127,
              "rtr": "NOTE_GENERATOR"
            }
          },
          "notes": [
            {
              "pitch": 48,
              "velocity": 45,
              "position": 0.008333,
              "duration": 1.95
            },
            {
              "pitch": 59,
              "velocity": 45,
              "position": 0.033333,
              "duration": 1.925
            },
            {
              "pitch": 60,
              "velocity": 45,
              "position": 0.033333,
              "duration": 1.925
            },
            {
              "pitch": 64,
              "velocity": 45,
              "position": 0.058333,
              "duration": 1.9
            },
            {
              "pitch": 67,
              "velocity": 45,
              "position": 0.066667,
              "duration": 1.891667
            },
            {
              "pitch": 48,
              "velocity": 45,
              "position": 2.008333,
              "duration": 0.95
            },
            {
              "pitch": 59,
              "velocity": 45,
              "position": 2.033333,
              "duration": 0.925
            },
            {
              "pitch": 60,
              "velocity": 45,
              "position": 2.033333,
              "duration": 0.925
            },
            {
              "pitch": 64,
              "velocity": 45,
              "position": 2.058333,
              "duration": 0.9
            },
            {
              "pitch": 67,
              "velocity": 45,
              "position": 2.066667,
              "duration": 0.891667
            },
            {
              "pitch": 48,
              "velocity": 45,
              "position": 3.008333,
              "duration": 0.95
            },
            {
              "pitch": 59,
              "velocity": 45,
              "position": 3.033333,
              "duration": 0.925
            },
            {
              "pitch": 60,
              "velocity": 45,
              "position": 3.033333,
              "duration": 0.925
            },
            {
              "pitch": 64,
              "velocity": 45,
              "position": 3.058333,
              "duration": 0.9
            },
            {
              "pitch": 67,
              "velocity": 45,
              "position": 3.066667,
              "duration": 0.891667
            },
            {
              "pitch": 48,
              "velocity": 45,
              "position": 5.008333,
              "duration": 0.95
            },
            {
              "pitch": 59,
              "velocity": 45,
              "position": 5.033333,
              "duration": 0.925
            },
            {
              "pitch": 60,
              "velocity": 45,
              "position": 5.033333,
              "duration": 0.925
            },
            {
              "pitch": 64,
              "velocity": 45,
              "position": 5.058333,
              "duration": 0.9
            },
            {
              "pitch": 67,
              "velocity": 45,
              "position": 5.066667,
              "duration": 0.891667
            },
            {
              "pitch": 48,
              "velocity": 45,
              "position": 6.008333,
              "duration": 2.95
            },
            {
              "pitch": 59,
              "velocity": 45,
              "position": 6.033333,
              "duration": 2.925
            },
            {
              "pitch": 60,
              "velocity": 45,
              "position": 6.033333,
              "duration": 2.925
            },
            {
              "pitch": 64,
              "velocity": 45,
              "position": 6.058333,
              "duration": 2.9
            },
            {
              "pitch": 67,
              "velocity": 45,
              "position": 6.066667,
              "duration": 2.891667
            },
            {
              "pitch": 48,
              "velocity": 45,
              "position": 9.008333,
              "duration": 1.733333
            },
            {
              "pitch": 59,
              "velocity": 45,
              "position": 9.033333,
              "duration": 1.708333
            },
            {
              "pitch": 60,
              "velocity": 45,
              "position": 9.033333,
              "duration": 1.708333
            },
            {
              "pitch": 64,
              "velocity": 45,
              "position": 9.058333,
              "duration": 2.691667
            },
            {
              "pitch": 67,
              "velocity": 45,
              "position": 9.066667,
              "duration": 2.8
            },
            {
              "pitch": 55,
              "velocity": 56,
              "position": 10.758333,
              "duration": 0.258333
            },
            {
              "pitch": 60,
              "velocity": 49,
              "position": 11.016667,
              "duration": 0.233333
            },
            {
              "pitch": 59,
              "velocity": 61,
              "position": 11.25,
              "duration": 0.233333
            },
            {
              "pitch": 55,
              "velocity": 32,
              "position": 11.483333,
              "duration": 0.283333
            },
            {
              "pitch": 48,
              "velocity": 49,
              "position": 11.766667,
              "duration": 0.183333
            }
          ]
        },
        "12": {
          "ctab": {
            "srcChannel": 12,
            "name": "Guitar",
            "accType": "CHORD2",
            "editable": true,
            "mutedNotes": [],
            "mutedChords": [],
            "sourceChordNote": 0,
            "sourceChordType": "Maj7",
            "ctb2Main": {
              "ntr": "ROOT_FIXED",
              "ntt": "CHORD",
              "bassOn": false,
              "noteLowLimit": 40,
              "noteHighLimit": 76,
              "chordRootUpperLimit": 127,
              "rtr": "NOTE_GENERATOR"
            }
          },
          "notes": [
            {
              "pitch": 48,
              "velocity": 43,
              "position": 0.0,
              "duration": 0.741667
            },
            {
              "pitch": 55,
              "velocity": 51,
              "position": 0.008333,
              "duration": 0.733333
            },
            {
              "pitch": 59,
              "velocity": 51,
              "position": 0.008333,
              "duration": 0.733333
            },
            {
              "pitch": 64,
              "velocity": 51,
              "position": 0.016667,
              "duration": 0.725
            },
            {
              "pitch": 67,
              "velocity": 51,
              "position": 0.016667,
              "duration": 0.7
            },
            {
              "pitch": 67,
              "velocity": 47,
              "position": 0.733333,
              "duration": 0.283333
            },
            {
              "pitch": 64,
              "velocity": 54,
              "position": 0.75,
              "duration": 0.25
            },
            {
              "pitch": 59,
              "velocity": 54,
              "position": 0.766667,
              "duration": 0.216667
            },
            {
              "pitch": 55,
              "velocity": 47,
              "position": 0.783333,
              "duration": 0.183333
            },
            {
              "pitch": 55,
              "velocity": 61,
              "position": 0.983333,
              "duration": 0.491667
            },
            {
              "pitch": 59,
              "velocity": 61,
              "position": 1.0,
              "duration": 0.475
            },
            {
              "pitch": 64,
              "velocity": 61,
              "position": 1.016667,
              "duration": 0.475
            },
            {
              "pitch": 67,
              "velocity": 61,
              "position": 1.033333,
              "duration": 0.458333
            },
            {
              "pitch": 48,
              "velocity": 72,
              "position": 1.483333,
              "duration": 0.208333
            },
            {
              "pitch": 55,
              "velocity": 85,
              "position": 1.491667,
              "duration": 0.2
            },
            {
              "pitch": 59,
              "velocity": 85,
              "position": 1.491667,
              "duration": 0.2
            },
            {
              "pitch": 64,
              "velocity": 85,
              "position": 1.5,
              "duration": 0.191667
            },
            {
              "pitch": 67,
              "velocity": 85,
              "position": 1.5,
              "duration": 0.191667
            },
            {
              "pitch": 48,
              "velocity": 43,
              "position": 1.975,
              "duration": 0.4
            },
            {
              "pitch": 55,
              "velocity": 51,
              "position": 1.991667,
              "duration": 0.383333
            },
            {
              "pitch": 59,
              "velocity": 51,
              "position": 2.0,
              "duration": 0.375
            },
            {
              "pitch": 64,
              "velocity": 51,
              "position": 2.016667,
              "duration": 0.358333
            },
            {
              "pitch": 67,
              "velocity": 51,
              "position": 2.025,
              "duration": 0.35
            },
            {
              "pitch": 48,
              "velocity": 51,
              "position": 2.933333,
              "duration": 0.866667
            },
            {
              "pitch": 55,
              "velocity": 61,
              "position": 2.983333,
              "duration": 0.641667
            },
            {
              "pitch": 59,
              "velocity": 61,
              "position": 3.008333,
              "duration": 0.633333
            },
            {
              "pitch": 64,
              "velocity": 68,
              "position": 3.041667,
              "duration": 0.583333
            },
            {
              "pitch": 67,
              "velocity": 85,
              "position": 3.091667,
              "duration": 0.508333
            },
            {
              "pitch": 67,
              "velocity": 90,
              "position": 3.758333,
              "duration": 0.125
            },
            {
              "pitch": 64,
              "velocity": 71,
              "position": 3.783333,
              "duration": 0.133333
            },
            {
              "pitch": 59,
              "velocity": 44,
              "position": 3.825,
              "duration": 0.108333
            },
            {
              "pitch": 48,
              "velocity": 51,
              "position": 3.991667,
              "duration": 0.516667
            },
            {
              "pitch": 55,
              "velocity": 61,
              "position": 4.008333,
              "duration": 0.4
            },
            {
              "pitch": 64,
              "velocity": 51,
              "position": 4.016667,
              "duration": 0.35
            },
            {
              "pitch": 67,
              "velocity": 95,
              "position": 4.016667,
              "duration": 0.341667
            },
            {
              "pitch": 59,
              "velocity": 61,
              "position": 4.025,
              "duration": 0.358333
            },
            {
              "pitch": 55,
              "velocity": 76,
              "position": 4.491667,
              "duration": 0.166667
            },
            {
              "pitch": 64,
              "velocity": 105,
              "position": 4.508333,
              "duration": 0.158333
            },
            {
              "pitch": 67,
              "velocity": 110,
              "position": 4.508333,
              "duration": 0.225
            },
            {
              "pitch": 59,
              "velocity": 95,
              "position": 4.525,
              "duration": 0.15
            },
            {
              "pitch": 48,
              "velocity": 43,
              "position": 4.975,
              "duration": 0.508333
            },
            {
              "pitch": 55,
              "velocity": 51,
              "position": 4.991667,
              "duration": 0.5
            },
            {
              "pitch": 59,
              "velocity": 51,
              "position": 5.0,
              "duration": 0.491667
            },
            {
              "pitch": 64,
              "velocity": 51,
              "position": 5.016667,
              "duration": 0.483333
            },
            {
              "pitch": 67,
              "velocity": 51,
              "position": 5.025,
              "duration": 0.475
            },
            {
              "pitch": 48,
              "velocity": 57,
              "position": 5.5,
              "duration": 0.166667
            },
            {
              "pitch": 55,
              "velocity": 68,
              "position": 5.508333,
              "duration": 0.158333
            },
            {
              "pitch": 59,
              "velocity": 68,
              "position": 5.508333,
              "duration": 0.158333
            },
            {
              "pitch": 64,
              "velocity": 68,
              "position": 5.516667,
              "duration": 0.15
            },
            {
              "pitch": 67,
              "velocity": 68,
              "position": 5.516667,
              "duration": 0.15
            },
            {
              "pitch": 48,
              "velocity": 43,
              "position": 5.975,
              "duration": 0.766667
            },
            {
              "pitch": 55,
              "velocity": 51,
              "position": 5.991667,
              "duration": 0.75
            },
            {
              "pitch": 59,
              "velocity": 51,
              "position": 6.0,
              "duration": 0.741667
            },
            {
              "pitch": 64,
              "velocity": 51,
              "position": 6.016667,
              "duration": 0.725
            },
            {
              "pitch": 67,
              "velocity": 51,
              "position": 6.025,
              "duration": 0.691667
            },
            {
              "pitch": 67,
              "velocity": 47,
              "position": 6.733333,
              "duration": 0.283333
            },
            {
              "pitch": 64,
              "velocity": 54,
              "position": 6.75,
              "duration": 0.25
            },
            {
              "pitch": 59,
              "velocity": 54,
              "position": 6.766667,
              "duration": 0.216667
            },
            {
              "pitch": 55,
              "velocity": 47,
              "position": 6.783333,
              "duration": 0.183333
            },
            {
              "pitch": 55,
              "velocity": 61,
              "position": 6.983333,
              "duration": 0.491667
            },
            {
              "pitch": 59,
              "velocity": 61,
              "position": 7.0,
              "duration": 0.475
            },
            {
              "pitch": 64,
              "velocity": 61,
              "position": 7.016667,
              "duration": 0.475
            },
            {
              "pitch": 67,
              "velocity": 61,
              "position": 7.033333,
              "duration": 0.458333
            },
            {
              "pitch": 48,
              "velocity": 72,
              "position": 7.483333,
              "duration": 0.208333
            },
            {
              "pitch": 55,
              "velocity": 85,
              "position": 7.491667,
              "duration": 0.2
            },
            {
              "pitch": 59,
              "velocity": 85,
              "position": 7.491667,
              "duration": 0.2
            },
            {
              "pitch": 64,
              "velocity": 85,
              "position": 7.5,
              "duration": 0.191667
            },
            {
              "pitch": 67,
              "velocity": 85,
              "position": 7.5,
              "duration": 0.191667
            },
            {
              "pitch": 55,
              "velocity": 39,
              "position": 7.983333,
              "duration": 0.516667
            },
            {
              "pitch": 59,
              "velocity": 39,
              "position": 8.0,
              "duration": 0.5
            },
            {
              "pitch": 64,
              "velocity": 39,
              "position": 8.016667,
              "duration": 0.5
            },
            {
              "pitch": 67,
              "velocity": 39,
              "position": 8.033333,
              "duration": 0.483333
            },
            {
              "pitch": 48,
              "velocity": 51,
              "position": 8.508333,
              "duration": 0.175
            },
            {
              "pitch": 55,
              "velocity": 61,
              "position": 8.516667,
              "duration": 0.166667
            },
            {
              "pitch": 59,
              "velocity": 61,
              "position": 8.516667,
              "duration": 0.166667
            },
            {
              "pitch": 64,
              "velocity": 61,
              "position": 8.525,
              "duration": 0.158333
            },
            {
              "pitch": 67,
              "velocity": 61,
              "position": 8.525,
              "duration": 0.158333
            },
            {
              "pitch": 48,
              "velocity": 43,
              "position": 9.0,
              "duration": 0.741667
            },
            {
              "pitch": 55,
              "velocity": 51,
              "position": 9.008333,
              "duration": 0.733333
            },
            {
              "pitch": 59,
              "velocity": 51,
              "position": 9.008333,
              "duration": 0.733333
            },
            {
              "pitch": 64,
              "velocity": 51,
              "position": 9.016667,
              "duration": 0.725
            },
            {
              "pitch": 67,
              "velocity": 51,
              "position": 9.016667,
              "duration": 0.7
            },
            {
              "pitch": 67,
              "velocity": 47,
              "position": 9.733333,
              "duration": 0.283333
            },
            {
              "pitch": 64,
              "velocity": 54,
              "position": 9.75,
              "duration": 0.25
            },
            {
              "pitch": 59,
              "velocity": 54,
              "position": 9.766667,
              "duration": 0.216667
            },
            {
              "pitch": 55,
              "velocity": 47,
              "position": 9.783333,
              "duration": 0.183333
            },
            {
              "pitch": 55,
              "velocity": 61,
              "position": 9.983333,
              "duration": 0.316667
            },
            {
              "pitch": 59,
              "velocity": 61,
              "position": 10.0,
              "duration": 0.283333
            },
            {
              "pitch": 64,
              "velocity": 61,
              "position": 10.016667,
              "duration": 0.25
            },
            {
              "pitch": 67,
              "velocity": 61,
              "position": 10.033333,
              "duration": 0.216667
            },
            {
              "pitch": 67,
              "velocity": 42,
              "position": 10.266667,
              "duration": 0.225
            },
            {
              "pitch": 64,
              "velocity": 48,
              "position": 10.283333,
              "duration": 0.208333
            },
            {
              "pitch": 59,
              "velocity": 48,
              "position": 10.3,
              "duration": 0.175
            },
            {
              "pitch": 55,
              "velocity": 42,
              "position": 10.316667,
              "duration": 0.158333
            },
            {
              "pitch": 48,
              "velocity": 72,
              "position": 10.483333,
              "duration": 0.208333
            },
            {
              "pitch": 55,
              "velocity": 85,
              "position": 10.491667,
              "duration": 0.2
            },
            {
              "pitch": 59,
              "velocity": 85,
              "position": 10.491667,
              "duration": 0.2
            },
            {
              "pitch": 64,
              "velocity": 85,
              "position": 10.5,
              "duration": 0.191667
            },
            {
              "pitch": 67,
              "velocity": 85,
              "position": 10.5,
              "duration": 0.191667
            },
            {
              "pitch": 55,
              "velocity": 39,
              "position": 10.983333,
              "duration": 0.391667
            },
            {
              "pitch": 59,
              "velocity": 39,
              "position": 11.0,
              "duration": 0.375
            },
            {
              "pitch": 64,
              "velocity": 39,
              "position": 11.016667,
              "duration": 0.358333
            },
            {
              "pitch": 67,
              "velocity": 39,
              "position": 11.033333,
              "duration": 0.341667
            },
            {
              "pitch": 48,
              "velocity": 62,
              "position": 11.933333,
              "duration": 0.866667
            },
            {
              "pitch": 55,
              "velocity": 73,
              "position": 11.983333,
              "duration": 0.641667
            }
          ]
        },
        "13": {
          "ctab": {
            "srcChannel": 13,
            "name": "Strings",
            "accType": "PAD",
            "editable": true,
            "mutedNotes": [],
            "mutedChords": [],
            "sourceChordNote": 0,
            "sourceChordType": "Maj7",
            "ctb2Main": {
              "ntr": "ROOT_FIXED",
              "ntt": "MELODY",
              "bassOn": false,
              "noteLowLimit": 36,
              "noteHighLimit": 96,
              "chordRootUpperLimit": 127,
              "rtr": "PITCH_SHIFT"
            }
          },
          "notes": []
        }
      }
    }
  }
}