{
  "name": "Luther1 Fast Even 8th Country 2-Beat",
  "tempo": 235,
  "timeSignature": "4/4",
  "ticksPerQuarter": 120,
  "sffType": "SFF1",
  "division": "BINARY",
  "channelPrograms": {
    "9": 0,
    "10": 35,
    "11": 105,
    "12": 25,
    "13": 28
  },
  "parts": {
    "Intro_A": {
      "type": "Intro_A",
      "sizeInBeats": 24,
      "channels": {
        "9": {
          "ctab": {
            "srcChannel": 9,
            "name": "Drums",
            "accType": "RHYTHM",
            "editable": false,
            "mutedNotes": [],
            "mutedChords": [],
            "sourceChordNote": 0,
            "sourceChordType": "Maj",
            "ctb2Main": {
              "ntr": "ROOT_FIXED",
              "ntt": "BYPASS",
              "bassOn": false,
              "noteLowLimit": 20,
              "noteHighLimit": 127,
              "chordRootUpperLimit": 127,
              "rtr": "RETRIGGER"
            }
          },
          "notes": [
            {
              "pitch": 37,
              "velocity": 84,
              "position": 0.0,
              "duration": 1.0
            },
            {
              "pitch": 37,
              "velocity": 84,
              "position": 2.0,
              "duration": 1.0
            },
            {
              "pitch": 37,
              "velocity": 64,
              "position": 4.0,
              "duration": 1.0
            },
            {
              "pitch": 37,
              "velocity": 84,
              "position": 5.0,
              "duration": 1.0
            },
            {
              "pitch": 37,
              "velocity": 64,
              "position": 6.0,
              "duration": 1.0
            },
            {
              "pitch": 37,
              "velocity": 84,
              "position": 7.0,
              "duration": 1.0
            },
            {
              "pitch": 35,
              "velocity": 55,
              "position": 8.0,
              "duration": 0.208333
            },
            {
              "pitch": 76,
              "velocity": 35,
              "position": 8.0,
              "duration": 0.208333
            },
            {
              "pitch": 38,
              "velocity": 85,
              "position": 9.0,
              "duration": 0.208333
            },
            {
              "pitch": 44,
              "velocity": 81,
              "position": 9.0,
              "duration": 0.208333
            },
            {
              "pitch": 54,
              "velocity": 52,
              "position": 9.0,
              "duration": 0.208333
            },
            {
              "pitch": 76,
              "velocity": 47,
              "position": 9.0,
              "duration": 0.208333
            },
            {
              "pitch": 76,
              "velocity": 41,
              "position": 9.5,
              "duration": 0.208333
            },
            {
              "pitch": 35,
              "velocity": 57,
              "position": 10.0,
              "duration": 0.208333
            },
            {
              "pitch": 76,
              "velocity": 44,
              "position": 10.0,
              "duration": 0.208333
            },
            {
              "pitch": 38,
              "velocity": 79,
              "position": 11.0,
              "duration": 0.208333
            },
            {
              "pitch": 44,
              "velocity": 73,
              "position": 11.0,
              "duration": 0.208333
            },
            {
              "pitch": 54,
              "velocity": 56,
              "position": 11.0,
              "duration": 0.208333
            },
            {
              "pitch": 76,
              "velocity": 51,
              "position": 11.0,
              "duration": 0.208333
            },
            {
              "pitch": 76,
              "velocity": 35,
              "position": 11.5,
              "duration": 0.208333
            },
            {
              "pitch": 35,
              "velocity": 55,
              "position": 12.0,
              "duration": 0.208333
            },
            {
              "pitch": 76,
              "velocity": 40,
              "position": 12.0,
              "duration": 0.208333
            },
            {
              "pitch": 38,
              "velocity": 81,
              "position": 13.0,
              "duration": 0.208333
            },
            {
              "pitch": 44,
              "velocity": 75,
              "position": 13.0,
              "duration": 0.208333
            },
            {
              "pitch": 54,
              "velocity": 50,
              "position": 13.0,
              "duration": 0.208333
            },
            {
              "pitch": 76,
              "velocity": 50,
              "position": 13.0,
              "duration": 0.208333
            },
            {
              "pitch": 76,
              "velocity": 24,
              "position": 13.625,
              "duration": 0.208333
            },
            {
              "pitch": 35,
              "velocity": 65,
              "position": 14.0,
              "duration": 0.208333
            },
            {
              "pitch": 76,
              "velocity": 50,
              "position": 14.0,
              "duration": 0.208333
            },
            {
              "pitch": 38,
              "velocity": 76,
              "position": 15.0,
              "duration": 0.208333
            },
            {
              "pitch": 44,
              "velocity": 80,
              "position": 15.0,
              "duration": 0.208333
            },
            {
              "pitch": 54,
              "velocity": 50,
              "position": 15.0,
              "duration": 0.208333
            },
            {
              "pitch": 76,
              "velocity": 40,
              "position": 15.0,
              "duration": 0.208333
            },
            {
              "pitch": 76,
              "velocity": 24,
              "position": 15.625,
              "duration": 0.208333
            },
            {
              "pitch": 35,
              "velocity": 55,
              "position": 16.0,
              "duration": 0.208333
            },
            {
              "pitch": 76,
              "velocity": 35,
              "position": 16.0,
              "duration": 0.208333
            },
            {
              "pitch": 38,
              "velocity": 85,
              "position": 17.0,
              "duration": 0.208333
            },
            {
              "pitch": 44,
              "velocity": 81,
              "position": 17.0,
              "duration": 0.208333
            },
            {
              "pitch": 54,
              "velocity": 52,
              "position": 17.0,
              "duration": 0.208333
            },
            {
              "pitch": 76,
              "velocity": 47,
              "position": 17.0,
              "duration": 0.208333
            },
            {
              "pitch": 76,
              "velocity": 32,
              "position": 17.625,
              "duration": 0.208333
            },
            {
              "pitch": 35,
              "velocity": 57,
              "position": 18.0,
              "duration": 0.208333
            },
            {
              "pitch": 76,
              "velocity": 44,
              "position": 18.0,
              "duration": 0.208333
            },
            {
              "pitch": 38,
              "velocity": 79,
              "position": 19.0,
              "duration": 0.208333
            },
            {
              "pitch": 44,
              "velocity": 73,
              "position": 19.0,
              "duration": 0.208333
            },
            {
              "pitch": 54,
              "velocity": 56,
              "position": 19.0,
              "duration": 0.208333
            },
            {
              "pitch": 76,
              "velocity": 51,
              "position": 19.0,
              "duration": 0.208333
            },
            {
              "pitch": 76,
              "velocity": 28,
              "position": 19.625,
              "duration": 0.208333
            },
            {
              "pitch": 35,
              "velocity": 55,
              "position": 20.0,
              "duration": 0.208333
            },
            {
              "pitch": 76,
              "velocity": 35,
              "position": 20.0,
              "duration": 0.208333
            },
            {
              "pitch": 38,
              "velocity": 85,
              "position": 21.0,
              "duration": 0.208333
            },
            {
              "pitch": 44,
              "velocity": 81,
              "position": 21.0,
              "duration": 0.208333
            },
            {
              "pitch": 54,
              "velocity": 52,
              "position": 21.0,
              "duration": 0.208333
            },
            {
              "pitch": 76,
              "velocity": 41,
              "position": 21.5,
              "duration": 0.208333
            },
            {
              "pitch": 35,
              "velocity": 57,
              "position": 22.0,
              "duration": 0.208333
            },
            {
              "pitch": 76,
              "velocity": 44,
              "position": 22.0,
              "duration": 0.208333
            },
            {
              "pitch": 38,
              "velocity": 50,
              "position": 22.5,
              "duration": 0.208333
            },
            {
              "pitch": 38,
              "velocity": 79,
              "position": 23.0,
              "duration": 0.208333
            },
            {
              "pitch": 44,
              "velocity": 73,
              "position": 23.0,
              "duration": 0.208333
            },
            {
              "pitch": 54,
              "velocity": 56,
              "position": 23.0,
              "duration": 0.208333
            },
            {
              "pitch": 76,
              "velocity": 45,
              "position": 23.0,
              "duration": 0.208333
            },
            {
              "pitch": 38,
              "velocity": 50,
              "position": 23.5,
              "duration": 0.208333
            },
            {
              "pitch": 76,
              "velocity": 42,
              "position": 23.625,
              "duration": 0.208333
            }
          ]
        },
        "10": {
          "ctab": {
            "srcChannel": 10,
            "name": "Bass",
            "accType": "BASS",
            "editable": true,
            "mutedNotes": [],
            "mutedChords": [],
            "sourceChordNote": 0,
            "sourceChordType": "Maj7",
            "ctb2Main": {
              "ntr": "ROOT_TRANSPOSITION",
              "ntt": "BYPASS",
              "bassOn": true,
              "noteLowLimit": 20,
              "noteHighLimit": 60,
              "chordRootUpperLimit": 127,
              "rtr": "NOTE_GENERATOR"
            }
          },
          "notes": [
            {
              "pitch": 36,
              "velocity": 67,
              "position": 8.008333,
              "duration": 1.666667
            },
            {
              "pitch": 36,
              "velocity": 67,
              "position": 10.008333,
              "duration": 1.666667
            },
            {
              "pitch": 36,
              "velocity": 67,
              "position": 12.008333,
              "duration": 1.666667
            },
            {
              "pitch": 36,
              "velocity": 67,
              "position": 14.008333,
              "duration": 0.775
            },
            {
              "pitch": 35,
              "velocity": 67,
              "position": 15.008333,
              "duration": 0.866667
            },
            {
              "pitch": 36,
              "velocity": 67,
              "position": 16.008333,
              "duration": 1.666667
            },
            {
              "pitch": 43,
              "velocity": 67,
              "position": 18.008333,
              "duration": 1.55
            },
            {
              "pitch": 36,
              "velocity": 67,
              "position": 20.008333,
              "duration": 1.691667
            },
            {
              "pitch": 43,
              "velocity": 67,
              "position": 22.008333,
              "duration": 1.575
            }
          ]
        },
        "11": {
          "ctab": {
            "srcChannel": 11,
            "name": "Piano",
            "accType": "CHORD1",
            "editable": true,
            "mutedNotes": [],
            "mutedChords": [],
            "sourceChordNote": 0,
            "sourceChordType": "Maj7",
            "ctb2Main": {
              "ntr": "ROOT_FIXED",
              "ntt": "CHORD",
              "bassOn": false,
              "noteLowLimit": 48,
              "noteHighLimit": 84,
              "chordRootUpperLimit": 127,
              "rtr": "NOTE_GENERATOR"
            }
          },
          "notes": [
            {
              "pitch": 52,
              "velocity": 45,
              "position": 8.016667,
              "duration": 1.941667
            },
            {
              "pitch": 55,
              "velocity": 43,
              "position": 8.625,
              "duration": 0.875
            },
            {
              "pitch": 59,
              "velocity": 41,
              "position": 9.008333,
              "duration": 0.95
            },
            {
              "pitch": 55,
              "velocity": 43,
              "position": 9.641667,
              "duration": 0.258333
            },
            {
              "pitch": 55,
              "velocity": 28,
              "position": 9.916667,
              "duration": 0.975
            },
            {
              "pitch": 59,
              "velocity": 33,
              "position": 9.983333,
              "duration": 0.975
            },
            {
              "pitch": 64,
              "velocity": 33,
              "position": 10.05,
              "duration": 0.958333
            },
            {
              "pitch": 55,
              "velocity": 37,
              "position": 10.908333,
              "duration": 0.641667
            },
            {
              "pitch": 59,
              "velocity": 43,
              "position": 10.975,
              "duration": 0.575
            },
            {
              "pitch": 64,
              "velocity": 43,
              "position": 11.041667,
              "duration": 0.508333
            },
            {
              "pitch": 52,
              "velocity": 45,
              "position": 12.016667,
              "duration": 1.941667
            },
            {
              "pitch": 55,
              "velocity": 43,
              "position": 12.625,
              "duration": 0.875
            },
            {
              "pitch": 59,
              "velocity": 41,
              "position": 13.008333,
              "duration": 0.95
            },
            {
              "pitch": 55,
              "velocity": 43,
              "position": 13.641667,
              "duration": 0.316667
            },
            {
              "pitch": 52,
              "velocity": 45,
              "position": 14.016667,
              "duration": 0.991667
            },
            {
              "pitch": 55,
              "velocity": 35,
              "position": 14.908333,
              "duration": 1.05
            },
            {
              "pitch": 59,
              "velocity": 41,
              "position": 14.975,
              "duration": 0.983333
            },
            {
              "pitch": 64,
              "velocity": 41,
              "position": 15.041667,
              "duration": 0.916667
            },
            {
              "pitch": 52,
              "velocity": 45,
              "position": 16.016667,
              "duration": 0.991667
            },
            {
              "pitch": 59,
              "velocity": 50,
              "position": 17.591667,
              "duration": 1.283333
            },
            {
              "pitch": 55,
              "velocity": 46,
              "position": 17.991667,
              "duration": 1.45
            },
            {
              "pitch": 64,
              "velocity": 50,
              "position": 18.616667,
              "duration": 0.8
            },
            {
              "pitch": 59,
              "velocity": 41,
              "position": 19.008333,
              "duration": 0.55
            },
            {
              "pitch": 55,
              "velocity": 56,
              "position": 19.558333,
              "duration": 0.325
            },
            {
              "pitch": 55,
              "velocity": 34,
              "position": 19.908333,
              "duration": 0.991667
            },
            {
              "pitch": 59,
              "velocity": 40,
              "position": 19.975,
              "duration": 0.991667
            },
            {
              "pitch": 64,
              "velocity": 40,
              "position": 20.041667,
              "duration": 0.95
            },
            {
              "pitch": 55,
              "velocity": 35,
              "position": 20.916667,
              "duration": 0.625
            },
            {
              "pitch": 59,
              "velocity": 41,
              "position": 20.983333,
              "duration": 0.508333
            },
            {
              "pitch": 64,
              "velocity": 41,
              "position": 21.05,
              "duration": 0.391667
            },
            {
              "pitch": 64,
              "velocity": 27,
              "position": 21.458333,
              "duration": 0.566667
            },
            {
              "pitch": 59,
              "velocity": 31,
              "position": 21.508333,
              "duration": 0.516667
            },
            {
              "pitch": 55,
              "velocity": 31,
              "position": 21.558333,
              "duration": 0.45
            },
            {
              "pitch": 52,
              "velocity": 27,
              "position": 21.608333,
              "duration": 0.416667
            },
            {
              "pitch": 55,
              "velocity": 48,
              "position": 22.025,
              "duration": 1.733333
            },
            {
              "pitch": 59,
              "velocity": 50,
              "position": 22.6,
              "duration": 0.858333
            },
            {
              "pitch": 64,
              "velocity": 41,
              "position": 23.016667,
              "duration": 0.941667
            },
            {
              "pitch": 59,
              "velocity": 39,
              "position": 23.566667,
              "duration": 0.391667
            }
          ]
        },
        "12": {
          "ctab": {
            "srcChannel": 12,
            "name": "Guitar",
            "accType": "CHORD2",
            "editable": true,
            "mutedNotes": [],
            "mutedChords": [],
            "sourceChordNote": 0,
            "sourceChordType": "Maj7",
            "ctb2Main": {
              "ntr": "ROOT_FIXED",
              "ntt": "CHORD",
              "bassOn": false,
              "noteLowLimit": 40,
              "noteHighLimit": 76,
              "chordRootUpperLimit": 127,
              "rtr": "NOTE_GENERATOR"
            }
          },
          "notes": [
            {
              "pitch": 48,
              "velocity": 46,
              "position": 8.025,
              "duration": 0.983333
            },
            {
              "pitch": 55,
              "velocity": 46,
              "position": 9.008333,
              "duration": 0.591667
            },
            {
              "pitch": 60,
              "velocity": 46,
              "position": 9.025,
              "duration": 0.525
            },
            {
              "pitch": 64,
              "velocity": 46,
              "position": 9.041667,
              "duration": 0.55
            },
            {
              "pitch": 64,
              "velocity": 40,
              "position": 9.591667,
              "duration": 0.366667
            },
            {
              "pitch": 60,
              "velocity": 42,
              "position": 9.6,
              "duration": 0.358333
            },
            {
              "pitch": 55,
              "velocity": 46,
              "position": 9.641667,
              "duration": 0.316667
            },
            {
              "pitch": 48,
              "velocity": 46,
              "position": 10.025,
              "duration": 0.983333
            },
            {
              "pitch": 59,
              "velocity": 46,
              "position": 11.025,
              "duration": 0.616667
            },
            {
              "pitch": 64,
              "velocity": 46,
              "position": 11.041667,
              "duration": 0.55
            },
            {
              "pitch": 64,
              "velocity": 40,
              "position": 11.591667,
              "duration": 0.366667
            },
            {
              "pitch": 59,
              "velocity": 48,
              "position": 11.641667,
              "duration": 0.316667
            },
            {
              "pitch": 48,
              "velocity": 46,
              "position": 12.025,
              "duration": 0.983333
            },
            {
              "pitch": 55,
              "velocity": 46,
              "position": 13.008333,
              "duration": 0.591667
            },
            {
              "pitch": 60,
              "velocity": 46,
              "position": 13.025,
              "duration": 0.525
            },
            {
              "pitch": 64,
              "velocity": 46,
              "position": 13.041667,
              "duration": 0.55
            },
            {
              "pitch": 64,
              "velocity": 40,
              "position": 13.591667,
              "duration": 0.366667
            },
            {
              "pitch": 60,
              "velocity": 42,
              "position": 13.6,
              "duration": 0.358333
            },
            {
              "pitch": 55,
              "velocity": 46,
              "position": 13.641667,
              "duration": 0.316667
            },
            {
              "pitch": 48,
              "velocity": 46,
              "position": 14.025,
              "duration": 0.983333
            },
            {
              "pitch": 59,
              "velocity": 46,
              "position": 15.025,
              "duration": 0.616667
            },
            {
              "pitch": 64,
              "velocity": 46,
              "position": 15.041667,
              "duration": 0.55
            },
            {
              "pitch": 64,
              "velocity": 40,
              "position": 15.591667,
              "duration": 0.366667
            },
            {
              "pitch": 59,
              "velocity": 48,
              "position": 15.641667,
              "duration": 0.316667
            },
            {
              "pitch": 48,
              "velocity": 46,
              "position": 16.025,
              "duration": 0.983333
            },
            {
              "pitch": 55,
              "velocity": 46,
              "position": 17.008333,
              "duration": 0.591667
            },
            {
              "pitch": 60,
              "velocity": 46,
              "position": 17.025,
              "duration": 0.525
            },
            {
              "pitch": 64,
              "velocity": 46,
              "position": 17.041667,
              "duration": 0.55
            },
            {
              "pitch": 64,
              "velocity": 40,
              "position": 17.591667,
              "duration": 0.991667
            },
            {
              "pitch": 60,
              "velocity": 42,
              "position": 17.6,
              "duration": 0.925
            },
            {
              "pitch": 55,
              "velocity": 46,
              "position": 17.641667,
              "duration": 0.825
            },
            {
              "pitch": 52,
              "velocity": 46,
              "position": 18.025,
              "duration": 0.983333
            },
            {
              "pitch": 55,
              "velocity": 46,
              "position": 19.008333,
              "duration": 0.633333
            },
            {
              "pitch": 60,
              "velocity": 46,
              "position": 19.025,
              "duration": 0.616667
            },
            {
              "pitch": 64,
              "velocity": 46,
              "position": 19.041667,
              "duration": 0.583333
            },
            {
              "pitch": 64,
              "velocity": 38,
              "position": 19.625,
              "duration": 0.4
            },
            {
              "pitch": 60,
              "velocity": 48,
              "position": 19.641667,
              "duration": 0.383333
            },
            {
              "pitch": 55,
              "velocity": 46,
              "position": 20.025,
              "duration": 0.983333
            },
            {
              "pitch": 55,
              "velocity": 46,
              "position": 21.008333,
              "duration": 0.658333
            },
            {
              "pitch": 60,
              "velocity": 46,
              "position": 21.025,
              "duration": 0.566667
            },
            {
              "pitch": 64,
              "velocity": 46,
              "position": 21.05,
              "duration": 0.575
            },
            {
              "pitch": 64,
              "velocity": 46,
              "position": 21.625,
              "duration": 0.1
            },
            {
              "pitch": 60,
              "velocity": 46,
              "position": 21.666667,
              "duration": 0.366667
            },
            {
              "pitch": 55,
              "velocity": 42,
              "position": 21.725,
              "duration": 0.308333
            },
            {
              "pitch": 57,
              "velocity": 46,
              "position": 22.033333,
              "duration": 0.825
            },
            {
              "pitch": 55,
              "velocity": 46,
              "position": 23.05,
              "duration": 0.683333
            },
            {
              "pitch": 48,
              "velocity": 40,
              "position": 23.925,
              "duration": 1.075
            },
            {
              "pitch": 52,
              "velocity": 48,
              "position": 23.966667,
              "duration": 0.941667
            }
          ]
        },
        "13": {
          "ctab": {
            "srcChannel": 13,
            "name": "Strings",
            "accType": "PAD",
            "editable": true,
            "mutedNotes": [],
            "mutedChords": [],
            "sourceChordNote": 0,
            "sourceChordType": "Maj7",
            "ctb2Main": {
              "ntr": "ROOT_FIXED",
              "ntt": "MELODY",
              "bassOn": false,
              "noteLowLimit": 36,
              "noteHighLimit": 96,
              "chordRootUpperLimit": 127,
              "rtr": "PITCH_SHIFT"
            }
          },
          "notes": [
            {
              "pitch": 48,
              "velocity": 77,
              "position": 8.0,
              "duration": 1.025
            },
            {
              "pitch": 55,
              "velocity": 77,
              "position": 9.0,
              "duration": 0.233333
            },
            {
              "pitch": 48,
              "velocity": 77,
              "position": 10.008333,
              "duration": 0.616667
            },
            {
              "pitch": 55,
              "velocity": 77,
              "position": 11.008333,
              "duration": 0.233333
            },
            {
              "pitch": 48,
              "velocity": 77,
              "position": 12.0,
              "duration": 1.025
            },
            {
              "pitch": 55,
              "velocity": 77,
              "position": 13.0,
              "duration": 0.233333
            },
            {
              "pitch": 48,
              "velocity": 77,
              "position": 14.008333,
              "duration": 0.616667
            },
            {
              "pitch": 55,
              "velocity": 77,
              "position": 15.008333,
              "duration": 0.233333
            },
            {
              "pitch": 48,
              "velocity": 77,
              "position": 16.0,
              "duration": 1.05
            },
            {
              "pitch": 55,
              "velocity": 77,
              "position": 17.0,
              "duration": 0.233333
            },
            {
              "pitch": 43,
              "velocity": 77,
              "position": 18.0,
              "duration": 0.991667
            },
            {
              "pitch": 55,
              "velocity": 77,
              "position": 19.0,
              "duration": 0.233333
            },
            {
              "pitch": 48,
              "velocity": 77,
              "position": 20.0,
              "duration": 1.008333
            },
            {
              "pitch": 55,
              "velocity": 77,
              "position": 21.0,
              "duration": 0.233333
            },
            {
              "pitch": 43,
              "velocity": 77,
              "position": 22.0,
              "duration": 1.066667
            },
            {
              "pitch": 55,
              "velocity": 77,
              "position": 23.0,
              "duration": 0.325
            }
          ]
        }
      }
    },
    "Main_A": {
      "type": "Main_A",
      "sizeInBeats": 16,
      "channels": {
        "9": {
          "ctab": {
            "srcChannel": 9,
            "name": "Drums",
            "accType": "RHYTHM",
            "editable": false,
            "mutedNotes": [],
            "mutedChords": [],
            "sourceChordNote": 0,
            "sourceChordType": "Maj",
            "ctb2Main": {
              "ntr": "ROOT_FIXED",
              "ntt": "BYPASS",
              "bassOn": false,
              "noteLowLimit": 20,
              "noteHighLimit": 127,
              "chordRootUpperLimit": 127,
              "rtr": "RETRIGGER"
            }
          },
          "notes": [
            {
              "pitch": 35,
              "velocity": 77,
              "position": 0.0,
              "duration": 0.208333
            },
            {
              "pitch": 38,
              "velocity": 65,
              "position": 0.0,
              "duration": 0.208333
            },
            {
              "pitch": 49,
              "velocity": 77,
              "position": 0.0,
              "duration": 0.208333
            },
            {
              "pitch": 76,
              "velocity": 45,
              "position": 0.0,
              "duration": 0.208333
            },
            {
              "pitch": 38,
              "velocity": 80,
              "position": 1.0,
              "duration": 0.208333
            },
            {
              "pitch": 44,
              "velocity": 86,
              "position": 1.0,
              "duration": 0.208333
            },
            {
              "pitch": 54,
              "velocity": 55,
              "position": 1.0,
              "duration": 0.208333
            },
            {
              "pitch": 76,
              "velocity": 50,
              "position": 1.0,
              "duration": 0.208333
            },
            {
              "pitch": 76,
              "velocity": 44,
              "position": 1.625,
              "duration": 0.208333
            },
            {
              "pitch": 35,
              "velocity": 69,
              "position": 2.0,
              "duration": 0.208333
            },
            {
              "pitch": 76,
              "velocity": 55,
              "position": 2.0,
              "duration": 0.208333
            },
            {
              "pitch": 38,
              "velocity": 90,
              "position": 3.0,
              "duration": 0.208333
            },
            {
              "pitch": 44,
              "velocity": 92,
              "position": 3.0,
              "duration": 0.208333
            },
            {
              "pitch": 54,
              "velocity": 62,
              "position": 3.0,
              "duration": 0.208333
            },
            {
              "pitch": 76,
              "velocity": 50,
              "position": 3.0,
              "duration": 0.208333
            },
            {
              "pitch": 76,
              "velocity": 40,
              "position": 3.5,
              "duration": 0.208333
            },
            {
              "pitch": 35,
              "velocity": 65,
              "position": 4.0,
              "duration": 0.208333
            },
            {
              "pitch": 76,
              "velocity": 45,
              "position": 4.0,
              "duration": 0.208333
            },
            {
              "pitch": 38,
              "velocity": 95,
              "position": 5.0,
              "duration": 0.208333
            },
            {
              "pitch": 44,
              "velocity": 91,
              "position": 5.0,
              "duration": 0.208333
            },
            {
              "pitch": 54,
              "velocity": 62,
              "position": 5.0,
              "duration": 0.208333
            },
            {
              "pitch": 76,
              "velocity": 55,
              "position": 5.5,
              "duration": 0.208333
            },
            {
              "pitch": 35,
              "velocity": 67,
              "position": 6.0,
              "duration": 0.208333
            },
            {
              "pitch": 76,
              "velocity": 54,
              "position": 6.0,
              "duration": 0.208333
            },
            {
              "pitch": 38,
              "velocity": 60,
              "position": 6.5,
              "duration": 0.208333
            },
            {
              "pitch": 38,
              "velocity": 89,
              "position": 7.0,
              "duration": 0.208333
            },
            {
              "pitch": 44,
              "velocity": 83,
              "position": 7.0,
              "duration": 0.208333
            },
            {
              "pitch": 54,
              "velocity": 66,
              "position": 7.0,
              "duration": 0.208333
            },
            {
              "pitch": 76,
              "velocity": 55,
              "position": 7.0,
              "duration": 0.208333
            },
            {
              "pitch": 35,
              "velocity": 60,
              "position": 8.0,
              "duration": 0.208333
            },
            {
              "pitch": 76,
              "velocity": 60,
              "position": 8.0,
              "duration": 0.208333
            },
            {
              "pitch": 38,
              "velocity": 80,
              "position": 9.0,
              "duration": 0.208333
            },
            {
              "pitch": 44,
              "velocity": 90,
              "position": 9.0,
              "duration": 0.208333
            },
            {
              "pitch": 54,
              "velocity": 60,
              "position": 9.0,
              "duration": 0.208333
            },
            {
              "pitch": 76,
              "velocity": 60,
              "position": 9.0,
              "duration": 0.208333
            },
            {
              "pitch": 76,
              "velocity": 32,
              "position": 9.625,
              "duration": 0.208333
            },
            {
              "pitch": 35,
              "velocity": 70,
              "position": 10.0,
              "duration": 0.208333
            },
            {
              "pitch": 76,
              "velocity": 60,
              "position": 10.0,
              "duration": 0.208333
            },
            {
              "pitch": 38,
              "velocity": 90,
              "position": 11.0,
              "duration": 0.208333
            },
            {
              "pitch": 44,
              "velocity": 90,
              "position": 11.0,
              "duration": 0.208333
            },
            {
              "pitch": 54,
              "velocity": 60,
              "position": 11.0,
              "duration": 0.208333
            },
            {
              "pitch": 76,
              "velocity": 60,
              "position": 11.0,
              "duration": 0.208333
            },
            {
              "pitch": 76,
              "velocity": 32,
              "position": 11.625,
              "duration": 0.208333
            },
            {
              "pitch": 35,
              "velocity": 65,
              "position": 12.0,
              "duration": 0.208333
            },
            {
              "pitch": 76,
              "velocity": 45,
              "position": 12.0,
              "duration": 0.208333
            },
            {
              "pitch": 38,
              "velocity": 95,
              "position": 13.0,
              "duration": 0.208333
            },
            {
              "pitch": 44,
              "velocity": 91,
              "position": 13.0,
              "duration": 0.208333
            },
            {
              "pitch": 54,
              "velocity": 62,
              "position": 13.0,
              "duration": 0.208333
            },
            {
              "pitch": 76,
              "velocity": 45,
              "position": 13.0,
              "duration": 0.208333
            },
            {
              "pitch": 38,
              "velocity": 50,
              "position": 13.5,
              "duration": 0.208333
            },
            {
              "pitch": 45,
              "velocity": 70,
              "position": 13.5,
              "duration": 0.208333
            },
            {
              "pitch": 76,
              "velocity": 51,
              "position": 13.5,
              "duration": 0.208333
            },
            {
              "pitch": 35,
              "velocity": 67,
              "position": 14.0,
              "duration": 0.208333
            },
            {
              "pitch": 76,
              "velocity": 54,
              "position": 14.0,
              "duration": 0.208333
            },
            {
              "pitch": 38,
              "velocity": 60,
              "position": 14.5,
              "duration": 0.208333
            },
            {
              "pitch": 35,
              "velocity": 70,
              "position": 15.0,
              "duration": 0.208333
            },
            {
              "pitch": 38,
              "velocity": 80,
              "position": 15.0,
              "duration": 0.208333
            },
            {
              "pitch": 54,
              "velocity": 70,
              "position": 15.0,
              "duration": 0.208333
            },
            {
              "pitch": 76,
              "velocity": 55,
              "position": 15.0,
              "duration": 0.208333
            },
            {
              "pitch": 38,
              "velocity": 60,
              "position": 15.5,
              "duration": 0.208333
            }
          ]
        },
        "10": {
          "ctab": {
            "srcChannel": 10,
            "name": "Bass",
            "accType": "BASS",
            "editable": true,
            "mutedNotes": [],
            "mutedChords": [],
            "sourceChordNote": 0,
            "sourceChordType": "Maj7",
            "ctb2Main": {
              "ntr": "ROOT_TRANSPOSITION",
              "ntt": "BYPASS",
              "bassOn": true,
              "noteLowLimit": 20,
              "noteHighLimit": 60,
              "chordRootUpperLimit": 127,
              "rtr": "NOTE_GENERATOR"
            }
          },
          "notes": [
            {
              "pitch": 36,
              "velocity": 76,
              "position": 0.008333,
              "duration": 1.666667
            },
            {
              "pitch": 36,
              "velocity": 76,
              "position": 2.008333,
              "duration": 1.666667
            },
            {
              "pitch": 36,
              "velocity": 76,
              "position": 4.008333,
              "duration": 1.666667
            },
            {
              "pitch": 36,
              "velocity": 76,
              "position": 6.008333,
              "duration": 0.775
            },
            {
              "pitch": 38,
              "velocity": 76,
              "position": 7.008333,
              "duration": 0.866667
            },
            {
              "pitch": 36,
              "velocity": 74,
              "position": 8.008333,
              "duration": 1.666667
            },
            {
              "pitch": 43,
              "velocity": 74,
              "position": 10.008333,
              "duration": 1.55
            },
            {
              "pitch": 36,
              "velocity": 74,
              "position": 12.008333,
              "duration": 1.691667
            },
            {
              "pitch": 43,
              "velocity": 74,
              "position": 14.008333,
              "duration": 1.575
            }
          ]
        },
        "11": {
          "ctab": {
            "srcChannel": 11,
            "name": "Piano",
            "accType": "CHORD1",
            "editable": true,
            "mutedNotes": [],
            "mutedChords": [],
            "sourceChordNote": 0,
            "sourceChordType": "Maj7",
            "ctb2Main": {
              "ntr": "ROOT_FIXED",
              "ntt": "CHORD",
              "bassOn": false,
              "noteLowLimit": 48,
              "noteHighLimit": 84,
              "chordRootUpperLimit": 127,
              "rtr": "NOTE_GENERATOR"
            }
          },
          "notes": [
            {
              "pitch": 52,
              "velocity": 38,
              "position": 0.016667,
              "duration": 1.941667
            },
            {
              "pitch": 64,
              "velocity": 48,
              "position": 0.625,
              "duration": 1.208333
            },
            {
              "pitch": 55,
              "velocity": 30,
              "position": 1.008333,
              "duration": 0.95
            },
            {
              "pitch": 59,
              "velocity": 50,
              "position": 1.608333,
              "duration": 0.35
            },
            {
              "pitch": 52,
              "velocity": 45,
              "position": 2.016667,
              "duration": 0.991667
            },
            {
              "pitch": 59,
              "velocity": 50,
              "position": 3.591667,
              "duration": 0.366667
            },
            {
              "pitch": 55,
              "velocity": 28,
              "position": 3.916667,
              "duration": 0.975
            },
            {
              "pitch": 59,
              "velocity": 33,
              "position": 3.983333,
              "duration": 0.975
            },
            {
              "pitch": 64,
              "velocity": 33,
              "position": 4.05,
              "duration": 0.958333
            },
            {
              "pitch": 55,
              "velocity": 37,
              "position": 4.908333,
              "duration": 0.641667
            },
            {
              "pitch": 59,
              "velocity": 43,
              "position": 4.975,
              "duration": 0.575
            },
            {
              "pitch": 64,
              "velocity": 43,
              "position": 5.041667,
              "duration": 0.508333
            },
            {
              "pitch": 52,
              "velocity": 38,
              "position": 6.016667,
              "duration": 1.941667
            },
            {
              "pitch": 64,
              "velocity": 48,
              "position": 6.625,
              "duration": 1.208333
            },
            {
              "pitch": 55,
              "velocity": 30,
              "position": 7.008333,
              "duration": 0.95
            },
            {
              "pitch": 59,
              "velocity": 50,
              "position": 7.608333,
              "duration": 0.35
            },
            {
              "pitch": 52,
              "velocity": 45,
              "position": 8.016667,
              "duration": 3.083333
            },
            {
              "pitch": 55,
              "velocity": 43,
              "position": 8.625,
              "duration": 0.875
            },
            {
              "pitch": 59,
              "velocity": 41,
              "position": 9.008333,
              "duration": 1.85
            },
            {
              "pitch": 55,
              "velocity": 43,
              "position": 9.641667,
              "duration": 0.783333
            },
            {
              "pitch": 64,
              "velocity": 54,
              "position": 9.991667,
              "duration": 1.45
            },
            {
              "pitch": 55,
              "velocity": 43,
              "position": 10.616667,
              "duration": 1.275
            },
            {
              "pitch": 59,
              "velocity": 41,
              "position": 11.008333,
              "duration": 0.55
            },
            {
              "pitch": 64,
              "velocity": 38,
              "position": 11.591667,
              "duration": 0.408333
            },
            {
              "pitch": 55,
              "velocity": 39,
              "position": 11.908333,
              "duration": 0.991667
            },
            {
              "pitch": 59,
              "velocity": 45,
              "position": 11.975,
              "duration": 0.925
            },
            {
              "pitch": 64,
              "velocity": 45,
              "position": 12.041667,
              "duration": 0.858333
            },
            {
              "pitch": 55,
              "velocity": 35,
              "position": 12.908333,
              "duration": 0.641667
            },
            {
              "pitch": 59,
              "velocity": 41,
              "position": 12.975,
              "duration": 0.55
            },
            {
              "pitch": 64,
              "velocity": 41,
              "position": 13.041667,
              "duration": 0.433333
            },
            {
              "pitch": 64,
              "velocity": 27,
              "position": 13.491667,
              "duration": 0.566667
            },
            {
              "pitch": 59,
              "velocity": 31,
              "position": 13.541667,
              "duration": 0.516667
            },
            {
              "pitch": 55,
              "velocity": 31,
              "position": 13.591667,
              "duration": 0.416667
            },
            {
              "pitch": 52,
              "velocity": 27,
              "position": 13.641667,
              "duration": 0.416667
            },
            {
              "pitch": 55,
              "velocity": 48,
              "position": 14.025,
              "duration": 1.733333
            },
            {
              "pitch": 64,
              "velocity": 41,
              "position": 15.016667,
              "duration": 0.941667
            },
            {
              "pitch": 59,
              "velocity": 39,
              "position": 15.566667,
              "duration": 0.391667
            },
            {
              "pitch": 55,
              "velocity": 32,
              "position": 15.908333,
              "duration": 0.983333
            },
            {
              "pitch": 59,
              "velocity": 37,
              "position": 15.975,
              "duration": 0.983333
            }
          ]
        },
        "12": {
          "ctab": {
            "srcChannel": 12,
            "name": "Guitar",
            "accType": "CHORD2",
            "editable": true,
            "mutedNotes": [],
            "mutedChords": [],
            "sourceChordNote": 0,
            "sourceChordType": "Maj7",
            "ctb2Main": {
              "ntr": "ROOT_FIXED",
              "ntt": "CHORD",
              "bassOn": false,
              "noteLowLimit": 40,
              "noteHighLimit": 76,
              "chordRootUpperLimit": 127,
              "rtr": "NOTE_GENERATOR"
            }
          },
          "notes": [
            {
              "pitch": 55,
              "velocity": 48,
              "position": 0.008333,
              "duration": 0.95
            },
            {
              "pitch": 59,
              "velocity": 48,
              "position": 0.041667,
              "duration": 0.958333
            },
            {
              "pitch": 64,
              "velocity": 48,
              "position": 0.083333,
              "duration": 0.916667
            },
            {
              "pitch": 52,
              "velocity": 62,
              "position": 0.925,
              "duration": 0.308333
            },
            {
              "pitch": 55,
              "velocity": 62,
              "position": 0.975,
              "duration": 0.258333
            },
            {
              "pitch": 59,
              "velocity": 62,
              "position": 1.025,
              "duration": 0.208333
            },
            {
              "pitch": 64,
              "velocity": 62,
              "position": 1.075,
              "duration": 0.158333
            },
            {
              "pitch": 48,
              "velocity": 56,
              "position": 2.025,
              "duration": 0.983333
            },
            {
              "pitch": 55,
              "velocity": 56,
              "position": 3.008333,
              "duration": 0.633333
            },
            {
              "pitch": 59,
              "velocity": 56,
              "position": 3.025,
              "duration": 0.616667
            },
            {
              "pitch": 64,
              "velocity": 56,
              "position": 3.041667,
              "duration": 0.55
            },
            {
              "pitch": 64,
              "velocity": 50,
              "position": 3.591667,
              "duration": 0.366667
            },
            {
              "pitch": 55,
              "velocity": 56,
              "position": 3.641667,
              "duration": 0.316667
            },
            {
              "pitch": 48,
              "velocity": 57,
              "position": 4.025,
              "duration": 0.983333
            },
            {
              "pitch": 55,
              "velocity": 57,
              "position": 5.008333,
              "duration": 0.591667
            },
            {
              "pitch": 60,
              "velocity": 57,
              "position": 5.025,
              "duration": 0.525
            },
            {
              "pitch": 64,
              "velocity": 57,
              "position": 5.041667,
              "duration": 0.55
            },
            {
              "pitch": 64,
              "velocity": 51,
              "position": 5.591667,
              "duration": 0.366667
            },
            {
              "pitch": 60,
              "velocity": 53,
              "position": 5.6,
              "duration": 0.358333
            },
            {
              "pitch": 55,
              "velocity": 57,
              "position": 5.641667,
              "duration": 0.316667
            },
            {
              "pitch": 48,
              "velocity": 57,
              "position": 6.025,
              "duration": 0.983333
            },
            {
              "pitch": 55,
              "velocity": 57,
              "position": 7.008333,
              "duration": 0.591667
            },
            {
              "pitch": 60,
              "velocity": 57,
              "position": 7.025,
              "duration": 0.525
            },
            {
              "pitch": 64,
              "velocity": 57,
              "position": 7.041667,
              "duration": 0.55
            },
            {
              "pitch": 64,
              "velocity": 51,
              "position": 7.591667,
              "duration": 0.366667
            },
            {
              "pitch": 60,
              "velocity": 53,
              "position": 7.6,
              "duration": 0.358333
            },
            {
              "pitch": 55,
              "velocity": 57,
              "position": 7.641667,
              "duration": 0.316667
            },
            {
              "pitch": 48,
              "velocity": 56,
              "position": 8.025,
              "duration": 0.983333
            },
            {
              "pitch": 55,
              "velocity": 56,
              "position": 9.008333,
              "duration": 0.591667
            },
            {
              "pitch": 60,
              "velocity": 56,
              "position": 9.025,
              "duration": 0.525
            },
            {
              "pitch": 64,
              "velocity": 56,
              "position": 9.041667,
              "duration": 0.55
            },
            {
              "pitch": 64,
              "velocity": 50,
              "position": 9.591667,
              "duration": 0.991667
            },
            {
              "pitch": 60,
              "velocity": 52,
              "position": 9.6,
              "duration": 0.925
            },
            {
              "pitch": 55,
              "velocity": 56,
              "position": 9.641667,
              "duration": 0.825
            },
            {
              "pitch": 52,
              "velocity": 56,
              "position": 10.025,
              "duration": 0.983333
            },
            {
              "pitch": 55,
              "velocity": 56,
              "position": 11.008333,
              "duration": 0.633333
            },
            {
              "pitch": 60,
              "velocity": 56,
              "position": 11.025,
              "duration": 0.616667
            },
            {
              "pitch": 64,
              "velocity": 56,
              "position": 11.041667,
              "duration": 0.583333
            },
            {
              "pitch": 64,
              "velocity": 48,
              "position": 11.625,
              "duration": 0.4
            },
            {
              "pitch": 60,
              "velocity": 58,
              "position": 11.641667,
              "duration": 0.383333
            },
            {
              "pitch": 55,
              "velocity": 56,
              "position": 12.025,
              "duration": 0.983333
            },
            {
              "pitch": 55,
              "velocity": 56,
              "position": 13.008333,
              "duration": 0.658333
            },
            {
              "pitch": 60,
              "velocity": 56,
              "position": 13.025,
              "duration": 0.566667
            },
            {
              "pitch": 64,
              "velocity": 56,
              "position": 13.05,
              "duration": 0.575
            },
            {
              "pitch": 64,
              "velocity": 56,
              "position": 13.625,
              "duration": 0.1
            },
            {
              "pitch": 60,
              "velocity": 56,
              "position": 13.666667,
              "duration": 0.366667
            },
            {
              "pitch": 55,
              "velocity": 52,
              "position": 13.725,
              "duration": 0.308333
            },
            {
              "pitch": 57,
              "velocity": 56,
              "position": 14.033333,
              "duration": 0.825
            },
            {
              "pitch": 55,
              "velocity": 56,
              "position": 15.05,
              "duration": 0.683333
            },
            {
              "pitch": 48,
              "velocity": 40,
              "position": 15.925,
              "duration": 1.075
            },
            {
              "pitch": 52,
              "velocity": 48,
              "position": 15.966667,
              "duration": 0.941667
            }
          ]
        },
        "13": {
          "ctab": {
            "srcChannel": 13,
            "name": "Strings",
            "accType": "PAD",
            "editable": true,
            "mutedNotes": [],
            "mutedChords": [],
            "sourceChordNote": 0,
            "sourceChordType": "Maj7",
            "ctb2Main": {
              "ntr": "ROOT_FIXED",
              "ntt": "MELODY",
              "bassOn": false,
              "noteLowLimit": 36,
              "noteHighLimit": 96,
              "chordRootUpperLimit": 127,
              "rtr": "PITCH_SHIFT"
            }
          },
          "notes": [
            {
              "pitch": 48,
              "velocity": 85,
              "position": 0.008333,
              "duration": 0.4
            },
            {
              "pitch": 55,
              "velocity": 85,
              "position": 1.008333,
              "duration": 0.233333
            },
            {
              "pitch": 48,
              "velocity": 85,
              "position": 2.008333,
              "duration": 0.616667
            },
            {
              "pitch": 55,
              "velocity": 85,
              "position": 3.008333,
              "duration": 0.233333
            },
            {
              "pitch": 48,
              "velocity": 85,
              "position": 4.008333,
              "duration": 0.4
            },
            {
              "pitch": 55,
              "velocity": 85,
              "position": 5.008333,
              "duration": 0.233333
            },
            {
              "pitch": 48,
              "velocity": 85,
              "position": 6.008333,
              "duration": 0.4
            },
            {
              "pitch": 55,
              "velocity": 85,
              "position": 7.008333,
              "duration": 0.233333
            },
            {
              "pitch": 48,
              "velocity": 85,
              "position": 8.008333,
              "duration": 0.975
            },
            {
              "pitch": 55,
              "velocity": 85,
              "position": 9.008333,
              "duration": 0.233333
            },
            {
              "pitch": 52,
              "velocity": 85,
              "position": 10.008333,
              "duration": 0.95
            },
            {
              "pitch": 55,
              "velocity": 85,
              "position": 11.008333,
              "duration": 0.233333
            },
            {
              "pitch": 48,
              "velocity": 85,
              "position": 12.008333,
              "duration": 1.05
            },
            {
              "pitch": 55,
              "velocity": 85,
              "position": 13.008333,
              "duration": 0.233333
            },
            {
              "pitch": 52,
              "velocity": 85,
              "position": 14.008333,
              "duration": 0.958333
            },
            {
              "pitch": 55,
              "velocity": 85,
              "position": 15.008333,
              "duration": 0.325
            }
          ]
        }
      }
    },
    "Main_B": {
      "type": "Main_B",
      "sizeInBeats": 16,
      "channels": {
        "9": {
          "ctab": {
            "srcChannel": 9,
            "name": "Drums",
            "accType": "RHYTHM",
            "editable": false,
            "mutedNotes": [],
            "mutedChords": [],
            "sourceChordNote": 0,
            "sourceChordType": "Maj",
            "ctb2Main": {
              "ntr": "ROOT_FIXED",
              "ntt": "BYPASS",
              "bassOn": false,
              "noteLowLimit": 20,
              "noteHighLimit": 127,
              "chordRootUpperLimit": 127,
              "rtr": "RETRIGGER"
            }
          },
          "notes": [
            {
              "pitch": 35,
              "velocity": 65,
              "position": 0.0,
              "duration": 0.208333
            },
            {
              "pitch": 38,
              "velocity": 70,
              "position": 0.0,
              "duration": 0.208333
            },
            {
              "pitch": 49,
              "velocity": 70,
              "position": 0.0,
              "duration": 0.208333
            },
            {
              "pitch": 76,
              "velocity": 55,
              "position": 0.0,
              "duration": 0.208333
            },
            {
              "pitch": 38,
              "velocity": 80,
              "position": 1.0,
              "duration": 0.208333
            },
            {
              "pitch": 44,
              "velocity": 86,
              "position": 1.0,
              "duration": 0.208333
            },
            {
              "pitch": 54,
              "velocity": 55,
              "position": 1.0,
              "duration": 0.208333
            },
            {
              "pitch": 76,
              "velocity": 50,
              "position": 1.0,
              "duration": 0.208333
            },
            {
              "pitch": 76,
              "velocity": 40,
              "position": 1.5,
              "duration": 0.208333
            },
            {
              "pitch": 35,
              "velocity": 69,
              "position": 2.0,
              "duration": 0.208333
            },
            {
              "pitch": 76,
              "velocity": 55,
              "position": 2.0,
              "duration": 0.208333
            },
            {
              "pitch": 38,
              "velocity": 90,
              "position": 3.0,
              "duration": 0.208333
            },
            {
              "pitch": 44,
              "velocity": 92,
              "position": 3.0,
              "duration": 0.208333
            },
            {
              "pitch": 54,
              "velocity": 62,
              "position": 3.0,
              "duration": 0.208333
            },
            {
              "pitch": 76,
              "velocity": 50,
              "position": 3.0,
              "duration": 0.208333
            },
            {
              "pitch": 76,
              "velocity": 32,
              "position": 3.625,
              "duration": 0.208333
            },
            {
              "pitch": 35,
              "velocity": 60,
              "position": 4.0,
              "duration": 0.208333
            },
            {
              "pitch": 76,
              "velocity": 60,
              "position": 4.0,
              "duration": 0.208333
            },
            {
              "pitch": 38,
              "velocity": 80,
              "position": 5.0,
              "duration": 0.208333
            },
            {
              "pitch": 44,
              "velocity": 90,
              "position": 5.0,
              "duration": 0.208333
            },
            {
              "pitch": 54,
              "velocity": 60,
              "position": 5.0,
              "duration": 0.208333
            },
            {
              "pitch": 76,
              "velocity": 60,
              "position": 5.0,
              "duration": 0.208333
            },
            {
              "pitch": 76,
              "velocity": 32,
              "position": 5.625,
              "duration": 0.208333
            },
            {
              "pitch": 35,
              "velocity": 70,
              "position": 6.0,
              "duration": 0.208333
            },
            {
              "pitch": 76,
              "velocity": 60,
              "position": 6.0,
              "duration": 0.208333
            },
            {
              "pitch": 38,
              "velocity": 90,
              "position": 7.0,
              "duration": 0.208333
            },
            {
              "pitch": 44,
              "velocity": 90,
              "position": 7.0,
              "duration": 0.208333
            },
            {
              "pitch": 54,
              "velocity": 60,
              "position": 7.0,
              "duration": 0.208333
            },
            {
              "pitch": 76,
              "velocity": 60,
              "position": 7.0,
              "duration": 0.208333
            },
            {
              "pitch": 76,
              "velocity": 32,
              "position": 7.625,
              "duration": 0.208333
            },
            {
              "pitch": 35,
              "velocity": 65,
              "position": 8.0,
              "duration": 0.208333
            },
            {
              "pitch": 76,
              "velocity": 45,
              "position": 8.0,
              "duration": 0.208333
            },
            {
              "pitch": 38,
              "velocity": 95,
              "position": 9.0,
              "duration": 0.208333
            },
            {
              "pitch": 44,
              "velocity": 91,
              "position": 9.0,
              "duration": 0.208333
            },
            {
              "pitch": 54,
              "velocity": 62,
              "position": 9.0,
              "duration": 0.208333
            },
            {
              "pitch": 76,
              "velocity": 45,
              "position": 9.0,
              "duration": 0.208333
            },
            {
              "pitch": 76,
              "velocity": 40,
              "position": 9.625,
              "duration": 0.208333
            },
            {
              "pitch": 35,
              "velocity": 67,
              "position": 10.0,
              "duration": 0.208333
            },
            {
              "pitch": 76,
              "velocity": 54,
              "position": 10.0,
              "duration": 0.208333
            },
            {
              "pitch": 38,
              "velocity": 89,
              "position": 11.0,
              "duration": 0.208333
            },
            {
              "pitch": 44,
              "velocity": 83,
              "position": 11.0,
              "duration": 0.208333
            },
            {
              "pitch": 54,
              "velocity": 66,
              "position": 11.0,
              "duration": 0.208333
            },
            {
              "pitch": 76,
              "velocity": 55,
              "position": 11.0,
              "duration": 0.208333
            },
            {
              "pitch": 76,
              "velocity": 63,
              "position": 11.5,
              "duration": 0.208333
            },
            {
              "pitch": 35,
              "velocity": 65,
              "position": 12.0,
              "duration": 0.208333
            },
            {
              "pitch": 76,
              "velocity": 45,
              "position": 12.0,
              "duration": 0.208333
            },
            {
              "pitch": 38,
              "velocity": 95,
              "position": 13.0,
              "duration": 0.208333
            },
            {
              "pitch": 44,
              "velocity": 91,
              "position": 13.0,
              "duration": 0.208333
            },
            {
              "pitch": 54,
              "velocity": 62,
              "position": 13.0,
              "duration": 0.208333
            },
            {
              "pitch": 38,
              "velocity": 60,
              "position": 13.5,
              "duration": 0.208333
            },
            {
              "pitch": 76,
              "velocity": 51,
              "position": 13.5,
              "duration": 0.208333
            },
            {
              "pitch": 35,
              "velocity": 67,
              "position": 14.0,
              "duration": 0.208333
            },
            {
              "pitch": 38,
              "velocity": 80,
              "position": 14.0,
              "duration": 0.208333
            },
            {
              "pitch": 76,
              "velocity": 54,
              "position": 14.0,
              "duration": 0.208333
            },
            {
              "pitch": 38,
              "velocity": 60,
              "position": 14.5,
              "duration": 0.208333
            },
            {
              "pitch": 44,
              "velocity": 83,
              "position": 15.0,
              "duration": 0.208333
            },
            {
              "pitch": 54,
              "velocity": 66,
              "position": 15.0,
              "duration": 0.208333
            },
            {
              "pitch": 76,
              "velocity": 55,
              "position": 15.0,
              "duration": 0.208333
            },
            {
              "pitch": 38,
              "velocity": 60,
              "position": 15.5,
              "duration": 0.208333
            }
          ]
        },
        "10": {
          "ctab": {
            "srcChannel": 10,
            "name": "Bass",
            "accType": "BASS",
            "editable": true,
            "mutedNotes": [],
            "mutedChords": [],
            "sourceChordNote": 0,
            "sourceChordType": "Maj7",
            "ctb2Main": {
              "ntr": "ROOT_TRANSPOSITION",
              "ntt": "BYPASS",
              "bassOn": true,
              "noteLowLimit": 20,
              "noteHighLimit": 60,
              "chordRootUpperLimit": 127,
              "rtr": "NOTE_GENERATOR"
            }
          },
          "notes": [
            {
              "pitch": 36,
              "velocity": 76,
              "position": 0.008333,
              "duration": 1.666667
            },
            {
              "pitch": 36,
              "velocity": 76,
              "position": 2.008333,
              "duration": 1.666667
            },
            {
              "pitch": 36,
              "velocity": 76,
              "position": 4.008333,
              "duration": 1.666667
            },
            {
              "pitch": 36,
              "velocity": 76,
              "position": 6.008333,
              "duration": 0.775
            },
            {
              "pitch": 35,
              "velocity": 76,
              "position": 7.008333,
              "duration": 0.866667
            },
            {
              "pitch": 36,
              "velocity": 77,
              "position": 8.016667,
              "duration": 0.816667
            },
            {
              "pitch": 31,
              "velocity": 74,
              "position": 10.008333,
              "duration": 1.55
            },
            {
              "pitch": 36,
              "velocity": 74,
              "position": 12.008333,
              "duration": 1.691667
            },
            {
              "pitch": 31,
              "velocity": 74,
              "position": 14.016667,
              "duration": 1.575
            }
          ]
        },
        "11": {
          "ctab": {
            "srcChannel": 11,
            "name": "Piano",
            "accType": "CHORD1",
            "editable": true,
            "mutedNotes": [],
            "mutedChords": [],
            "sourceChordNote": 0,
            "sourceChordType": "Maj7",
            "ctb2Main": {
              "ntr": "ROOT_FIXED",
              "ntt": "CHORD",
              "bassOn": false,
              "noteLowLimit": 48,
              "noteHighLimit": 84,
              "chordRootUpperLimit": 127,
              "rtr": "NOTE_GENERATOR"
            }
          },
          "notes": [
            {
              "pitch": 64,
              "velocity": 37,
              "position": 0.041667,
              "duration": 0.958333
            },
            {
              "pitch": 55,
              "velocity": 40,
              "position": 0.908333,
              "duration": 0.375
            },
            {
              "pitch": 59,
              "velocity": 46,
              "position": 0.975,
              "duration": 0.308333
            },
            {
              "pitch": 64,
              "velocity": 46,
              "position": 1.041667,
              "duration": 0.241667
            },
            {
              "pitch": 64,
              "velocity": 23,
              "position": 1.55,
              "duration": 0.408333
            },
            {
              "pitch": 59,
              "velocity": 26,
              "position": 1.6,
              "duration": 0.358333
            },
            {
              "pitch": 55,
              "velocity": 26,
              "position": 1.65,
              "duration": 0.241667
            },
            {
              "pitch": 52,
              "velocity": 23,
              "position": 1.7,
              "duration": 0.258333
            },
            {
              "pitch": 55,
              "velocity": 32,
              "position": 1.908333,
              "duration": 0.983333
            },
            {
              "pitch": 59,
              "velocity": 37,
              "position": 1.975,
              "duration": 0.983333
            },
            {
              "pitch": 64,
              "velocity": 37,
              "position": 2.041667,
              "duration": 0.958333
            },
            {
              "pitch": 55,
              "velocity": 40,
              "position": 2.908333,
              "duration": 0.375
            },
            {
              "pitch": 59,
              "velocity": 46,
              "position": 2.975,
              "duration": 0.308333
            },
            {
              "pitch": 64,
              "velocity": 46,
              "position": 3.041667,
              "duration": 0.241667
            },
            {
              "pitch": 64,
              "velocity": 23,
              "position": 3.55,
              "duration": 0.408333
            },
            {
              "pitch": 59,
              "velocity": 26,
              "position": 3.6,
              "duration": 0.358333
            },
            {
              "pitch": 55,
              "velocity": 26,
              "position": 3.65,
              "duration": 0.308333
            },
            {
              "pitch": 52,
              "velocity": 23,
              "position": 3.7,
              "duration": 0.258333
            },
            {
              "pitch": 52,
              "velocity": 45,
              "position": 4.016667,
              "duration": 1.941667
            },
            {
              "pitch": 55,
              "velocity": 43,
              "position": 4.625,
              "duration": 0.875
            },
            {
              "pitch": 59,
              "velocity": 41,
              "position": 5.008333,
              "duration": 0.95
            },
            {
              "pitch": 55,
              "velocity": 43,
              "position": 5.641667,
              "duration": 0.25
            },
            {
              "pitch": 55,
              "velocity": 32,
              "position": 5.908333,
              "duration": 0.983333
            },
            {
              "pitch": 59,
              "velocity": 37,
              "position": 5.975,
              "duration": 0.983333
            },
            {
              "pitch": 64,
              "velocity": 37,
              "position": 6.041667,
              "duration": 0.958333
            },
            {
              "pitch": 55,
              "velocity": 40,
              "position": 6.908333,
              "duration": 0.375
            },
            {
              "pitch": 59,
              "velocity": 46,
              "position": 6.975,
              "duration": 0.308333
            },
            {
              "pitch": 64,
              "velocity": 46,
              "position": 7.041667,
              "duration": 0.241667
            },
            {
              "pitch": 64,
              "velocity": 23,
              "position": 7.55,
              "duration": 0.408333
            },
            {
              "pitch": 59,
              "velocity": 26,
              "position": 7.6,
              "duration": 0.358333
            },
            {
              "pitch": 55,
              "velocity": 26,
              "position": 7.65,
              "duration": 0.308333
            },
            {
              "pitch": 52,
              "velocity": 23,
              "position": 7.7,
              "duration": 0.258333
            },
            {
              "pitch": 52,
              "velocity": 45,
              "position": 8.016667,
              "duration": 3.083333
            },
            {
              "pitch": 55,
              "velocity": 43,
              "position": 8.625,
              "duration": 0.875
            },
            {
              "pitch": 59,
              "velocity": 41,
              "position": 9.008333,
              "duration": 1.85
            },
            {
              "pitch": 55,
              "velocity": 43,
              "position": 9.641667,
              "duration": 0.783333
            },
            {
              "pitch": 64,
              "velocity": 54,
              "position": 9.991667,
              "duration": 1.45
            },
            {
              "pitch": 55,
              "velocity": 43,
              "position": 10.616667,
              "duration": 1.275
            },
            {
              "pitch": 59,
              "velocity": 41,
              "position": 11.008333,
              "duration": 0.55
            },
            {
              "pitch": 64,
              "velocity": 38,
              "position": 11.591667,
              "duration": 0.408333
            },
            {
              "pitch": 55,
              "velocity": 39,
              "position": 11.908333,
              "duration": 0.991667
            },
            {
              "pitch": 59,
              "velocity": 45,
              "position": 11.975,
              "duration": 0.925
            },
            {
              "pitch": 64,
              "velocity": 45,
              "position": 12.041667,
              "duration": 0.858333
            },
            {
              "pitch": 55,
              "velocity": 35,
              "position": 12.908333,
              "duration": 0.641667
            },
            {
              "pitch": 59,
              "velocity": 41,
              "position": 12.975,
              "duration": 0.55
            },
            {
              "pitch": 64,
              "velocity": 41,
              "position": 13.041667,
              "duration": 0.433333
            },
            {
              "pitch": 64,
              "velocity": 27,
              "position": 13.491667,
              "duration": 0.566667
            },
            {
              "pitch": 59,
              "velocity": 31,
              "position": 13.541667,
              "duration": 0.516667
            },
            {
              "pitch": 55,
              "velocity": 31,
              "position": 13.591667,
              "duration": 0.416667
            },
            {
              "pitch": 52,
              "velocity": 27,
              "position": 13.641667,
              "duration": 0.416667
            },
            {
              "pitch": 55,
              "velocity": 48,
              "position": 14.025,
              "duration": 1.733333
            },
            {
              "pitch": 64,
              "velocity": 41,
              "position": 15.016667,
              "duration": 0.941667
            },
            {
              "pitch": 59,
              "velocity": 39,
              "position": 15.566667,
              "duration": 0.391667
            }
          ]
        },
        "12": {
          "ctab": {
            "srcChannel": 12,
            "name": "Guitar",
            "accType": "CHORD2",
            "editable": true,
            "mutedNotes": [],
            "mutedChords": [],
            "sourceChordNote": 0,
            "sourceChordType": "Maj7",
            "ctb2Main": {
              "ntr": "ROOT_FIXED",
              "ntt": "CHORD",
              "bassOn": false,
              "noteLowLimit": 40,
              "noteHighLimit": 76,
              "chordRootUpperLimit": 127,
              "rtr": "NOTE_GENERATOR"
            }
          },
          "notes": [
            {
              "pitch": 55,
              "velocity": 48,
              "position": 0.008333,
              "duration": 0.95
            },
            {
              "pitch": 59,
              "velocity": 48,
              "position": 0.041667,
              "duration": 0.958333
            },
            {
              "pitch": 64,
              "velocity": 48,
              "position": 0.083333,
              "duration": 0.916667
            },
            {
              "pitch": 52,
              "velocity": 62,
              "position": 0.925,
              "duration": 1.033333
            },
            {
              "pitch": 55,
              "velocity": 62,
              "position": 0.975,
              "duration": 0.983333
            },
            {
              "pitch": 59,
              "velocity": 62,
              "position": 1.025,
              "duration": 0.933333
            },
            {
              "pitch": 64,
              "velocity": 62,
              "position": 1.075,
              "duration": 0.883333
            },
            {
              "pitch": 48,
              "velocity": 57,
              "position": 2.025,
              "duration": 0.983333
            },
            {
              "pitch": 55,
              "velocity": 57,
              "position": 3.008333,
              "duration": 0.591667
            },
            {
              "pitch": 60,
              "velocity": 57,
              "position": 3.025,
              "duration": 0.525
            },
            {
              "pitch": 64,
              "velocity": 57,
              "position": 3.041667,
              "duration": 0.55
            },
            {
              "pitch": 64,
              "velocity": 51,
              "position": 3.591667,
              "duration": 0.366667
            },
            {
              "pitch": 60,
              "velocity": 53,
              "position": 3.6,
              "duration": 0.358333
            },
            {
              "pitch": 55,
              "velocity": 57,
              "position": 3.641667,
              "duration": 0.316667
            },
            {
              "pitch": 48,
              "velocity": 57,
              "position": 4.025,
              "duration": 0.983333
            },
            {
              "pitch": 55,
              "velocity": 57,
              "position": 5.008333,
              "duration": 0.591667
            },
            {
              "pitch": 60,
              "velocity": 57,
              "position": 5.025,
              "duration": 0.525
            },
            {
              "pitch": 64,
              "velocity": 57,
              "position": 5.041667,
              "duration": 0.55
            },
            {
              "pitch": 64,
              "velocity": 51,
              "position": 5.591667,
              "duration": 0.366667
            },
            {
              "pitch": 60,
              "velocity": 53,
              "position": 5.6,
              "duration": 0.358333
            },
            {
              "pitch": 55,
              "velocity": 57,
              "position": 5.641667,
              "duration": 0.316667
            },
            {
              "pitch": 48,
              "velocity": 57,
              "position": 6.025,
              "duration": 0.983333
            },
            {
              "pitch": 55,
              "velocity": 57,
              "position": 7.008333,
              "duration": 0.591667
            },
            {
              "pitch": 60,
              "velocity": 57,
              "position": 7.025,
              "duration": 0.525
            },
            {
              "pitch": 64,
              "velocity": 57,
              "position": 7.041667,
              "duration": 0.55
            },
            {
              "pitch": 64,
              "velocity": 51,
              "position": 7.591667,
              "duration": 0.366667
            },
            {
              "pitch": 60,
              "velocity": 53,
              "position": 7.6,
              "duration": 0.358333
            },
            {
              "pitch": 55,
              "velocity": 57,
              "position": 7.641667,
              "duration": 0.316667
            },
            {
              "pitch": 48,
              "velocity": 56,
              "position": 8.025,
              "duration": 0.983333
            },
            {
              "pitch": 59,
              "velocity": 56,
              "position": 9.025,
              "duration": 0.616667
            },
            {
              "pitch": 64,
              "velocity": 56,
              "position": 9.041667,
              "duration": 0.55
            },
            {
              "pitch": 64,
              "velocity": 50,
              "position": 9.591667,
              "duration": 0.658333
            },
            {
              "pitch": 59,
              "velocity": 58,
              "position": 9.641667,
              "duration": 0.383333
            },
            {
              "pitch": 52,
              "velocity": 56,
              "position": 10.025,
              "duration": 0.983333
            },
            {
              "pitch": 59,
              "velocity": 56,
              "position": 11.025,
              "duration": 0.591667
            },
            {
              "pitch": 64,
              "velocity": 56,
              "position": 11.041667,
              "duration": 0.583333
            },
            {
              "pitch": 64,
              "velocity": 48,
              "position": 11.625,
              "duration": 0.4
            },
            {
              "pitch": 59,
              "velocity": 56,
              "position": 11.691667,
              "duration": 0.333333
            },
            {
              "pitch": 55,
              "velocity": 56,
              "position": 12.025,
              "duration": 0.983333
            },
            {
              "pitch": 59,
              "velocity": 56,
              "position": 13.025,
              "duration": 0.641667
            },
            {
              "pitch": 64,
              "velocity": 56,
              "position": 13.05,
              "duration": 0.575
            },
            {
              "pitch": 64,
              "velocity": 56,
              "position": 13.625,
              "duration": 0.1
            },
            {
              "pitch": 59,
              "velocity": 56,
              "position": 13.666667,
              "duration": 0.366667
            },
            {
              "pitch": 52,
              "velocity": 56,
              "position": 14.033333,
              "duration": 0.825
            },
            {
              "pitch": 55,
              "velocity": 56,
              "position": 15.05,
              "duration": 0.683333
            },
            {
              "pitch": 48,
              "velocity": 40,
              "position": 15.925,
              "duration": 1.075
            },
            {
              "pitch": 52,
              "velocity": 48,
              "position": 15.966667,
              "duration": 0.941667
            }
          ]
        },
        "13": {
          "ctab": {
            "srcChannel": 13,
            "name": "Strings",
            "accType": "PAD",
            "editable": true,
            "mutedNotes": [],
            "mutedChords": [],
            "sourceChordNote": 0,
            "sourceChordType": "Maj7",
            "ctb2Main": {
              "ntr": "ROOT_FIXED",
              "ntt": "MELODY",
              "bassOn": false,
              "noteLowLimit": 36,
              "noteHighLimit": 96,
              "chordRootUpperLimit": 127,
              "rtr": "PITCH_SHIFT"
            }
          },
          "notes": [
            {
              "pitch": 48,
              "velocity": 85,
              "position": 0.0,
              "duration": 1.025
            },
            {
              "pitch": 55,
              "velocity": 85,
              "position": 1.0,
              "duration": 0.233333
            },
            {
              "pitch": 48,
              "velocity": 85,
              "position": 2.008333,
              "duration": 0.616667
            },
            {
              "pitch": 55,
              "velocity": 85,
              "position": 3.008333,
              "duration": 0.233333
            },
            {
              "pitch": 48,
              "velocity": 85,
              "position": 4.008333,
              "duration": 0.616667
            },
            {
              "pitch": 55,
              "velocity": 85,
              "position": 5.008333,
              "duration": 0.233333
            },
            {
              "pitch": 48,
              "velocity": 85,
              "position": 6.008333,
              "duration": 0.4
            },
            {
              "pitch": 55,
              "velocity": 85,
              "position": 7.008333,
              "duration": 0.233333
            },
            {
              "pitch": 48,
              "velocity": 85,
              "position": 8.008333,
              "duration": 1.041667
            },
            {
              "pitch": 55,
              "velocity": 85,
              "position": 9.008333,
              "duration": 0.233333
            },
            {
              "pitch": 43,
              "velocity": 85,
              "position": 10.008333,
              "duration": 0.583333
            },
            {
              "pitch": 55,
              "velocity": 85,
              "position": 11.008333,
              "duration": 0.233333
            },
            {
              "pitch": 48,
              "velocity": 85,
              "position": 12.008333,
              "duration": 0.983333
            },
            {
              "pitch": 55,
              "velocity": 85,
              "position": 13.008333,
              "duration": 0.233333
            },
            {
              "pitch": 43,
              "velocity": 85,
              "position": 14.008333,
              "duration": 0.958333
            },
            {
              "pitch": 55,
              "velocity": 85,
              "position": 15.008333,
              "duration": 0.325
            }
          ]
        }
      }
    },
    "Main_C": {
      "type": "Main_C",
      "sizeInBeats": 16,
      "channels": {
        "9": {
          "ctab": {
            "srcChannel": 9,
            "name": "Drums",
            "accType": "RHYTHM",
            "editable": false,
            "mutedNotes": [],
            "mutedChords": [],
            "sourceChordNote": 0,
            "sourceChordType": "Maj",
            "ctb2Main": {
              "ntr": "ROOT_FIXED",
              "ntt": "BYPASS",
              "bassOn": false,
              "noteLowLimit": 20,
              "noteHighLimit": 127,
              "chordRootUpperLimit": 127,
              "rtr": "RETRIGGER"
            }
          },
          "notes": [
            {
              "pitch": 35,
              "velocity": 65,
              "position": 0.0,
              "duration": 0.208333
            },
            {
              "pitch": 38,
              "velocity": 70,
              "position": 0.0,
              "duration": 0.208333
            },
            {
              "pitch": 49,
              "velocity": 70,
              "position": 0.0,
              "duration": 0.208333
            },
            {
              "pitch": 76,
              "velocity": 55,
              "position": 0.0,
              "duration": 0.208333
            },
            {
              "pitch": 38,
              "velocity": 80,
              "position": 1.0,
              "duration": 0.208333
            },
            {
              "pitch": 44,
              "velocity": 86,
              "position": 1.0,
              "duration": 0.208333
            },
            {
              "pitch": 54,
              "velocity": 55,
              "position": 1.0,
              "duration": 0.208333
            },
            {
              "pitch": 76,
              "velocity": 50,
              "position": 1.0,
              "duration": 0.208333
            },
            {
              "pitch": 76,
              "velocity": 40,
              "position": 1.5,
              "duration": 0.208333
            },
            {
              "pitch": 35,
              "velocity": 69,
              "position": 2.0,
              "duration": 0.208333
            },
            {
              "pitch": 76,
              "velocity": 55,
              "position": 2.0,
              "duration": 0.208333
            },
            {
              "pitch": 38,
              "velocity": 90,
              "position": 3.0,
              "duration": 0.208333
            },
            {
              "pitch": 44,
              "velocity": 92,
              "position": 3.0,
              "duration": 0.208333
            },
            {
              "pitch": 54,
              "velocity": 62,
              "position": 3.0,
              "duration": 0.208333
            },
            {
              "pitch": 76,
              "velocity": 50,
              "position": 3.0,
              "duration": 0.208333
            },
            {
              "pitch": 76,
              "velocity": 32,
              "position": 3.625,
              "duration": 0.208333
            },
            {
              "pitch": 35,
              "velocity": 65,
              "position": 4.0,
              "duration": 0.208333
            },
            {
              "pitch": 76,
              "velocity": 45,
              "position": 4.0,
              "duration": 0.208333
            },
            {
              "pitch": 38,
              "velocity": 95,
              "position": 5.0,
              "duration": 0.208333
            },
            {
              "pitch": 44,
              "velocity": 91,
              "position": 5.0,
              "duration": 0.208333
            },
            {
              "pitch": 54,
              "velocity": 62,
              "position": 5.0,
              "duration": 0.208333
            },
            {
              "pitch": 76,
              "velocity": 45,
              "position": 5.0,
              "duration": 0.208333
            },
            {
              "pitch": 76,
              "velocity": 40,
              "position": 5.625,
              "duration": 0.208333
            },
            {
              "pitch": 35,
              "velocity": 67,
              "position": 6.0,
              "duration": 0.208333
            },
            {
              "pitch": 76,
              "velocity": 54,
              "position": 6.0,
              "duration": 0.208333
            },
            {
              "pitch": 38,
              "velocity": 89,
              "position": 7.0,
              "duration": 0.208333
            },
            {
              "pitch": 44,
              "velocity": 83,
              "position": 7.0,
              "duration": 0.208333
            },
            {
              "pitch": 54,
              "velocity": 66,
              "position": 7.0,
              "duration": 0.208333
            },
            {
              "pitch": 76,
              "velocity": 55,
              "position": 7.0,
              "duration": 0.208333
            },
            {
              "pitch": 76,
              "velocity": 63,
              "position": 7.5,
              "duration": 0.208333
            },
            {
              "pitch": 35,
              "velocity": 70,
              "position": 8.0,
              "duration": 0.208333
            },
            {
              "pitch": 76,
              "velocity": 45,
              "position": 8.0,
              "duration": 0.208333
            },
            {
              "pitch": 38,
              "velocity": 90,
              "position": 9.0,
              "duration": 0.208333
            },
            {
              "pitch": 44,
              "velocity": 86,
              "position": 9.0,
              "duration": 0.208333
            },
            {
              "pitch": 54,
              "velocity": 62,
              "position": 9.0,
              "duration": 0.208333
            },
            {
              "pitch": 76,
              "velocity": 49,
              "position": 9.0,
              "duration": 0.208333
            },
            {
              "pitch": 76,
              "velocity": 36,
              "position": 9.625,
              "duration": 0.208333
            },
            {
              "pitch": 35,
              "velocity": 60,
              "position": 10.0,
              "duration": 0.208333
            },
            {
              "pitch": 76,
              "velocity": 54,
              "position": 10.0,
              "duration": 0.208333
            },
            {
              "pitch": 38,
              "velocity": 85,
              "position": 11.0,
              "duration": 0.208333
            },
            {
              "pitch": 44,
              "velocity": 88,
              "position": 11.0,
              "duration": 0.208333
            },
            {
              "pitch": 54,
              "velocity": 66,
              "position": 11.0,
              "duration": 0.208333
            },
            {
              "pitch": 76,
              "velocity": 56,
              "position": 11.0,
              "duration": 0.208333
            },
            {
              "pitch": 35,
              "velocity": 65,
              "position": 12.0,
              "duration": 0.208333
            },
            {
              "pitch": 76,
              "velocity": 45,
              "position": 12.0,
              "duration": 0.208333
            },
            {
              "pitch": 38,
              "velocity": 95,
              "position": 13.0,
              "duration": 0.208333
            },
            {
              "pitch": 44,
              "velocity": 91,
              "position": 13.0,
              "duration": 0.208333
            },
            {
              "pitch": 54,
              "velocity": 62,
              "position": 13.0,
              "duration": 0.208333
            },
            {
              "pitch": 76,
              "velocity": 45,
              "position": 13.0,
              "duration": 0.208333
            },
            {
              "pitch": 38,
              "velocity": 50,
              "position": 13.5,
              "duration": 0.208333
            },
            {
              "pitch": 45,
              "velocity": 70,
              "position": 13.5,
              "duration": 0.208333
            },
            {
              "pitch": 76,
              "velocity": 51,
              "position": 13.5,
              "duration": 0.208333
            },
            {
              "pitch": 35,
              "velocity": 67,
              "position": 14.0,
              "duration": 0.208333
            },
            {
              "pitch": 76,
              "velocity": 54,
              "position": 14.0,
              "duration": 0.208333
            },
            {
              "pitch": 38,
              "velocity": 60,
              "position": 14.5,
              "duration": 0.208333
            },
            {
              "pitch": 35,
              "velocity": 70,
              "position": 15.0,
              "duration": 0.208333
            },
            {
              "pitch": 38,
              "velocity": 80,
              "position": 15.0,
              "duration": 0.208333
            },
            {
              "pitch": 54,
              "velocity": 70,
              "position": 15.0,
              "duration": 0.208333
            },
            {
              "pitch": 76,
              "velocity": 55,
              "position": 15.0,
              "duration": 0.208333
            },
            {
              "pitch": 38,
              "velocity": 60,
              "position": 15.5,
              "duration": 0.208333
            }
          ]
        },
        "10": {
          "ctab": {
            "srcChannel": 10,
            "name": "Bass",
            "accType": "BASS",
            "editable": true,
            "mutedNotes": [],
            "mutedChords": [],
            "sourceChordNote": 0,
            "sourceChordType": "Maj7",
            "ctb2Main": {
              "ntr": "ROOT_TRANSPOSITION",
              "ntt": "BYPASS",
              "bassOn": true,
              "noteLowLimit": 20,
              "noteHighLimit": 60,
              "chordRootUpperLimit": 127,
              "rtr": "NOTE_GENERATOR"
            }
          },
          "notes": [
            {
              "pitch": 36,
              "velocity": 76,
              "position": 0.008333,
              "duration": 1.666667
            },
            {
              "pitch": 36,
              "velocity": 76,
              "position": 2.008333,
              "duration": 1.666667
            },
            {
              "pitch": 36,
              "velocity": 76,
              "position": 4.008333,
              "duration": 1.666667
            },
            {
              "pitch": 36,
              "velocity": 76,
              "position": 6.008333,
              "duration": 0.775
            },
            {
              "pitch": 35,
              "velocity": 76,
              "position": 7.008333,
              "duration": 0.866667
            },
            {
              "pitch": 36,
              "velocity": 77,
              "position": 8.016667,
              "duration": 0.816667
            },
            {
              "pitch": 31,
              "velocity": 74,
              "position": 10.008333,
              "duration": 1.55
            },
            {
              "pitch": 36,
              "velocity": 74,
              "position": 12.008333,
              "duration": 1.691667
            },
            {
              "pitch": 31,
              "velocity": 74,
              "position": 14.016667,
              "duration": 1.575
            }
          ]
        },
        "11": {
          "ctab": {
            "srcChannel": 11,
            "name": "Piano",
            "accType": "CHORD1",
            "editable": true,
            "mutedNotes": [],
            "mutedChords": [],
            "sourceChordNote": 0,
            "sourceChordType": "Maj7",
            "ctb2Main": {
              "ntr": "ROOT_FIXED",
              "ntt": "CHORD",
              "bassOn": false,
              "noteLowLimit": 48,
              "noteHighLimit": 84,
              "chordRootUpperLimit": 127,
              "rtr": "NOTE_GENERATOR"
            }
          },
          "notes": [
            {
              "pitch": 52,
              "velocity": 45,
              "position": 0.016667,
              "duration": 0.991667
            },
            {
              "pitch": 59,
              "velocity": 50,
              "position": 1.591667,
              "duration": 0.366667
            },
            {
              "pitch": 52,
              "velocity": 45,
              "position": 2.016667,
              "duration": 1.941667
            },
            {
              "pitch": 55,
              "velocity": 43,
              "position": 2.625,
              "duration": 0.875
            },
            {
              "pitch": 59,
              "velocity": 41,
              "position": 3.008333,
              "duration": 0.95
            },
            {
              "pitch": 55,
              "velocity": 43,
              "position": 3.641667,
              "duration": 0.258333
            },
            {
              "pitch": 55,
              "velocity": 28,
              "position": 3.916667,
              "duration": 0.975
            },
            {
              "pitch": 59,
              "velocity": 33,
              "position": 3.983333,
              "duration": 0.975
            },
            {
              "pitch": 64,
              "velocity": 33,
              "position": 4.05,
              "duration": 0.958333
            },
            {
              "pitch": 55,
              "velocity": 37,
              "position": 4.908333,
              "duration": 0.641667
            },
            {
              "pitch": 59,
              "velocity": 43,
              "position": 4.975,
              "duration": 0.575
            },
            {
              "pitch": 64,
              "velocity": 43,
              "position": 5.041667,
              "duration": 0.508333
            },
            {
              "pitch": 55,
              "velocity": 28,
              "position": 5.916667,
              "duration": 0.975
            },
            {
              "pitch": 59,
              "velocity": 33,
              "position": 5.983333,
              "duration": 0.975
            },
            {
              "pitch": 64,
              "velocity": 33,
              "position": 6.05,
              "duration": 0.958333
            },
            {
              "pitch": 55,
              "velocity": 37,
              "position": 6.908333,
              "duration": 0.641667
            },
            {
              "pitch": 59,
              "velocity": 43,
              "position": 6.975,
              "duration": 0.575
            },
            {
              "pitch": 64,
              "velocity": 43,
              "position": 7.041667,
              "duration": 0.508333
            },
            {
              "pitch": 52,
              "velocity": 38,
              "position": 8.016667,
              "duration": 3.083333
            },
            {
              "pitch": 64,
              "velocity": 48,
              "position": 8.625,
              "duration": 1.208333
            },
            {
              "pitch": 55,
              "velocity": 30,
              "position": 9.008333,
              "duration": 1.85
            },
            {
              "pitch": 59,
              "velocity": 50,
              "position": 9.608333,
              "duration": 0.783333
            },
            {
              "pitch": 64,
              "velocity": 54,
              "position": 10.008333,
              "duration": 1.45
            },
            {
              "pitch": 59,
              "velocity": 50,
              "position": 10.616667,
              "duration": 0.883333
            },
            {
              "pitch": 55,
              "velocity": 35,
              "position": 11.008333,
              "duration": 0.55
            },
            {
              "pitch": 59,
              "velocity": 38,
              "position": 11.6,
              "duration": 0.408333
            },
            {
              "pitch": 52,
              "velocity": 39,
              "position": 12.008333,
              "duration": 1.866667
            },
            {
              "pitch": 55,
              "velocity": 40,
              "position": 12.658333,
              "duration": 0.8
            },
            {
              "pitch": 59,
              "velocity": 41,
              "position": 13.008333,
              "duration": 1.533333
            },
            {
              "pitch": 55,
              "velocity": 33,
              "position": 13.608333,
              "duration": 0.466667
            },
            {
              "pitch": 52,
              "velocity": 48,
              "position": 14.025,
              "duration": 1.733333
            },
            {
              "pitch": 64,
              "velocity": 50,
              "position": 14.616667,
              "duration": 1.291667
            },
            {
              "pitch": 59,
              "velocity": 41,
              "position": 15.016667,
              "duration": 0.941667
            },
            {
              "pitch": 55,
              "velocity": 33,
              "position": 15.566667,
              "duration": 0.391667
            }
          ]
        },
        "12": {
          "ctab": {
            "srcChannel": 12,
            "name": "Guitar",
            "accType": "CHORD2",
            "editable": true,
            "mutedNotes": [],
            "mutedChords": [],
            "sourceChordNote": 0,
            "sourceChordType": "Maj7",
            "ctb2Main": {
              "ntr": "ROOT_FIXED",
              "ntt": "CHORD",
              "bassOn": false,
              "noteLowLimit": 40,
              "noteHighLimit": 76,
              "chordRootUpperLimit": 127,
              "rtr": "NOTE_GENERATOR"
            }
          },
          "notes": [
            {
              "pitch": 55,
              "velocity": 48,
              "position": 0.008333,
              "duration": 0.95
            },
            {
              "pitch": 59,
              "velocity": 48,
              "position": 0.041667,
              "duration": 0.958333
            },
            {
              "pitch": 64,
              "velocity": 48,
              "position": 0.083333,
              "duration": 0.916667
            },
            {
              "pitch": 52,
              "velocity": 62,
              "position": 0.925,
              "duration": 1.033333
            },
            {
              "pitch": 55,
              "velocity": 62,
              "position": 0.975,
              "duration": 0.983333
            },
            {
              "pitch": 59,
              "velocity": 62,
              "position": 1.025,
              "duration": 0.933333
            },
            {
              "pitch": 64,
              "velocity": 62,
              "position": 1.075,
              "duration": 0.883333
            },
            {
              "pitch": 48,
              "velocity": 56,
              "position": 2.025,
              "duration": 0.983333
            },
            {
              "pitch": 55,
              "velocity": 56,
              "position": 3.008333,
              "duration": 0.633333
            },
            {
              "pitch": 59,
              "velocity": 56,
              "position": 3.025,
              "duration": 0.616667
            },
            {
              "pitch": 64,
              "velocity": 56,
              "position": 3.041667,
              "duration": 0.55
            },
            {
              "pitch": 64,
              "velocity": 50,
              "position": 3.591667,
              "duration": 0.366667
            },
            {
              "pitch": 55,
              "velocity": 56,
              "position": 3.641667,
              "duration": 0.316667
            },
            {
              "pitch": 48,
              "velocity": 56,
              "position": 4.025,
              "duration": 0.983333
            },
            {
              "pitch": 55,
              "velocity": 56,
              "position": 5.008333,
              "duration": 0.633333
            },
            {
              "pitch": 59,
              "velocity": 56,
              "position": 5.025,
              "duration": 0.616667
            },
            {
              "pitch": 64,
              "velocity": 56,
              "position": 5.041667,
              "duration": 0.55
            },
            {
              "pitch": 64,
              "velocity": 50,
              "position": 5.591667,
              "duration": 0.366667
            },
            {
              "pitch": 55,
              "velocity": 56,
              "position": 5.641667,
              "duration": 0.316667
            },
            {
              "pitch": 48,
              "velocity": 56,
              "position": 6.025,
              "duration": 0.983333
            },
            {
              "pitch": 59,
              "velocity": 56,
              "position": 7.025,
              "duration": 0.616667
            },
            {
              "pitch": 64,
              "velocity": 56,
              "position": 7.041667,
              "duration": 0.55
            },
            {
              "pitch": 64,
              "velocity": 50,
              "position": 7.591667,
              "duration": 0.366667
            },
            {
              "pitch": 59,
              "velocity": 58,
              "position": 7.641667,
              "duration": 0.316667
            },
            {
              "pitch": 48,
              "velocity": 56,
              "position": 8.025,
              "duration": 0.983333
            },
            {
              "pitch": 55,
              "velocity": 56,
              "position": 9.008333,
              "duration": 0.633333
            },
            {
              "pitch": 59,
              "velocity": 56,
              "position": 9.025,
              "duration": 0.616667
            },
            {
              "pitch": 64,
              "velocity": 56,
              "position": 9.041667,
              "duration": 0.55
            },
            {
              "pitch": 64,
              "velocity": 50,
              "position": 9.591667,
              "duration": 0.991667
            },
            {
              "pitch": 55,
              "velocity": 56,
              "position": 9.641667,
              "duration": 0.383333
            },
            {
              "pitch": 52,
              "velocity": 56,
              "position": 10.025,
              "duration": 0.983333
            },
            {
              "pitch": 55,
              "velocity": 56,
              "position": 11.008333,
              "duration": 0.683333
            },
            {
              "pitch": 59,
              "velocity": 56,
              "position": 11.025,
              "duration": 0.666667
            },
            {
              "pitch": 64,
              "velocity": 56,
              "position": 11.041667,
              "duration": 0.583333
            },
            {
              "pitch": 64,
              "velocity": 48,
              "position": 11.625,
              "duration": 0.4
            },
            {
              "pitch": 55,
              "velocity": 56,
              "position": 11.691667,
              "duration": 0.333333
            },
            {
              "pitch": 55,
              "velocity": 56,
              "position": 12.025,
              "duration": 0.983333
            },
            {
              "pitch": 55,
              "velocity": 56,
              "position": 13.008333,
              "duration": 0.658333
            },
            {
              "pitch": 59,
              "velocity": 56,
              "position": 13.025,
              "duration": 0.641667
            },
            {
              "pitch": 64,
              "velocity": 56,
              "position": 13.05,
              "duration": 0.575
            },
            {
              "pitch": 64,
              "velocity": 56,
              "position": 13.625,
              "duration": 0.1
            },
            {
              "pitch": 59,
              "velocity": 56,
              "position": 13.666667,
              "duration": 0.366667
            },
            {
              "pitch": 55,
              "velocity": 52,
              "position": 13.725,
              "duration": 0.308333
            },
            {
              "pitch": 52,
              "velocity": 56,
              "position": 14.033333,
              "duration": 0.825
            },
            {
              "pitch": 55,
              "velocity": 56,
              "position": 15.05,
              "duration": 0.683333
            },
            {
              "pitch": 48,
              "velocity": 40,
              "position": 15.925,
              "duration": 1.075
            },
            {
              "pitch": 52,
              "velocity": 48,
              "position": 15.966667,
              "duration": 0.941667
            }
          ]
        },
        "13": {
          "ctab": {
            "srcChannel": 13,
            "name": "Strings",
            "accType": "PAD",
            "editable": true,
            "mutedNotes": [],
            "mutedChords": [],
            "sourceChordNote": 0,
            "sourceChordType": "Maj7",
            "ctb2Main": {
              "ntr": "ROOT_FIXED",
              "ntt": "MELODY",
              "bassOn": false,
              "noteLowLimit": 36,
              "noteHighLimit": 96,
              "chordRootUpperLimit": 127,
              "rtr": "PITCH_SHIFT"
            }
          },
          "notes": [
            {
              "pitch": 48,
              "velocity": 85,
              "position": 0.008333,
              "duration": 0.616667
            },
            {
              "pitch": 55,
              "velocity": 85,
              "position": 1.008333,
              "duration": 0.233333
            },
            {
              "pitch": 48,
              "velocity": 85,
              "position": 2.008333,
              "duration": 0.616667
            },
            {
              "pitch": 55,
              "velocity": 85,
              "position": 3.008333,
              "duration": 0.233333
            },
            {
              "pitch": 48,
              "velocity": 85,
              "position": 4.008333,
              "duration": 0.616667
            },
            {
              "pitch": 55,
              "velocity": 85,
              "position": 5.008333,
              "duration": 0.233333
            },
            {
              "pitch": 48,
              "velocity": 85,
              "position": 6.0,
              "duration": 1.025
            },
            {
              "pitch": 55,
              "velocity": 85,
              "position": 7.0,
              "duration": 0.233333
            },
            {
              "pitch": 48,
              "velocity": 85,
              "position": 8.0,
              "duration": 1.05
            },
            {
              "pitch": 55,
              "velocity": 85,
              "position": 9.0,
              "duration": 0.233333
            },
            {
              "pitch": 43,
              "velocity": 85,
              "position": 10.0,
              "duration": 0.991667
            },
            {
              "pitch": 55,
              "velocity": 85,
              "position": 11.0,
              "duration": 0.233333
            },
            {
              "pitch": 48,
              "velocity": 85,
              "position": 12.0,
              "duration": 1.008333
            },
            {
              "pitch": 55,
              "velocity": 85,
              "position": 13.0,
              "duration": 0.233333
            },
            {
              "pitch": 43,
              "velocity": 85,
              "position": 14.0,
              "duration": 1.066667
            },
            {
              "pitch": 55,
              "velocity": 85,
              "position": 15.0,
              "duration": 0.325
            }
          ]
        }
      }
    },
    "Main_D": {
      "type": "Main_D",
      "sizeInBeats": 16,
      "channels": {
        "9": {
          "ctab": {
            "srcChannel": 9,
            "name": "Drums",
            "accType": "RHYTHM",
            "editable": false,
            "mutedNotes": [],
            "mutedChords": [],
            "sourceChordNote": 0,
            "sourceChordType": "Maj",
            "ctb2Main": {
              "ntr": "ROOT_FIXED",
              "ntt": "BYPASS",
              "bassOn": false,
              "noteLowLimit": 20,
              "noteHighLimit": 127,
              "chordRootUpperLimit": 127,
              "rtr": "RETRIGGER"
            }
          },
          "notes": [
            {
              "pitch": 35,
              "velocity": 77,
              "position": 0.0,
              "duration": 0.208333
            },
            {
              "pitch": 38,
              "velocity": 65,
              "position": 0.0,
              "duration": 0.208333
            },
            {
              "pitch": 49,
              "velocity": 77,
              "position": 0.0,
              "duration": 0.208333
            },
            {
              "pitch": 76,
              "velocity": 45,
              "position": 0.0,
              "duration": 0.208333
            },
            {
              "pitch": 38,
              "velocity": 80,
              "position": 1.0,
              "duration": 0.208333
            },
            {
              "pitch": 44,
              "velocity": 86,
              "position": 1.0,
              "duration": 0.208333
            },
            {
              "pitch": 54,
              "velocity": 55,
              "position": 1.0,
              "duration": 0.208333
            },
            {
              "pitch": 76,
              "velocity": 50,
              "position": 1.0,
              "duration": 0.208333
            },
            {
              "pitch": 76,
              "velocity": 44,
              "position": 1.625,
              "duration": 0.208333
            },
            {
              "pitch": 35,
              "velocity": 69,
              "position": 2.0,
              "duration": 0.208333
            },
            {
              "pitch": 76,
              "velocity": 55,
              "position": 2.0,
              "duration": 0.208333
            },
            {
              "pitch": 38,
              "velocity": 90,
              "position": 3.0,
              "duration": 0.208333
            },
            {
              "pitch": 44,
              "velocity": 92,
              "position": 3.0,
              "duration": 0.208333
            },
            {
              "pitch": 54,
              "velocity": 62,
              "position": 3.0,
              "duration": 0.208333
            },
            {
              "pitch": 76,
              "velocity": 50,
              "position": 3.0,
              "duration": 0.208333
            },
            {
              "pitch": 76,
              "velocity": 40,
              "position": 3.5,
              "duration": 0.208333
            },
            {
              "pitch": 35,
              "velocity": 65,
              "position": 4.0,
              "duration": 0.208333
            },
            {
              "pitch": 76,
              "velocity": 45,
              "position": 4.0,
              "duration": 0.208333
            },
            {
              "pitch": 38,
              "velocity": 95,
              "position": 5.0,
              "duration": 0.208333
            },
            {
              "pitch": 44,
              "velocity": 91,
              "position": 5.0,
              "duration": 0.208333
            },
            {
              "pitch": 54,
              "velocity": 62,
              "position": 5.0,
              "duration": 0.208333
            },
            {
              "pitch": 76,
              "velocity": 45,
              "position": 5.0,
              "duration": 0.208333
            },
            {
              "pitch": 76,
              "velocity": 51,
              "position": 5.5,
              "duration": 0.208333
            },
            {
              "pitch": 35,
              "velocity": 67,
              "position": 6.0,
              "duration": 0.208333
            },
            {
              "pitch": 76,
              "velocity": 54,
              "position": 6.0,
              "duration": 0.208333
            },
            {
              "pitch": 38,
              "velocity": 89,
              "position": 7.0,
              "duration": 0.208333
            },
            {
              "pitch": 44,
              "velocity": 83,
              "position": 7.0,
              "duration": 0.208333
            },
            {
              "pitch": 54,
              "velocity": 66,
              "position": 7.0,
              "duration": 0.208333
            },
            {
              "pitch": 76,
              "velocity": 55,
              "position": 7.0,
              "duration": 0.208333
            },
            {
              "pitch": 76,
              "velocity": 50,
              "position": 7.625,
              "duration": 0.208333
            },
            {
              "pitch": 35,
              "velocity": 60,
              "position": 8.0,
              "duration": 0.208333
            },
            {
              "pitch": 76,
              "velocity": 50,
              "position": 8.0,
              "duration": 0.208333
            },
            {
              "pitch": 38,
              "velocity": 80,
              "position": 9.0,
              "duration": 0.208333
            },
            {
              "pitch": 44,
              "velocity": 90,
              "position": 9.0,
              "duration": 0.208333
            },
            {
              "pitch": 54,
              "velocity": 60,
              "position": 9.0,
              "duration": 0.208333
            },
            {
              "pitch": 76,
              "velocity": 60,
              "position": 9.0,
              "duration": 0.208333
            },
            {
              "pitch": 35,
              "velocity": 70,
              "position": 10.0,
              "duration": 0.208333
            },
            {
              "pitch": 76,
              "velocity": 50,
              "position": 10.0,
              "duration": 0.208333
            },
            {
              "pitch": 38,
              "velocity": 90,
              "position": 11.0,
              "duration": 0.208333
            },
            {
              "pitch": 44,
              "velocity": 90,
              "position": 11.0,
              "duration": 0.208333
            },
            {
              "pitch": 54,
              "velocity": 60,
              "position": 11.0,
              "duration": 0.208333
            },
            {
              "pitch": 76,
              "velocity": 60,
              "position": 11.0,
              "duration": 0.208333
            },
            {
              "pitch": 35,
              "velocity": 65,
              "position": 12.0,
              "duration": 0.208333
            },
            {
              "pitch": 76,
              "velocity": 45,
              "position": 12.0,
              "duration": 0.208333
            },
            {
              "pitch": 38,
              "velocity": 95,
              "position": 13.0,
              "duration": 0.208333
            },
            {
              "pitch": 44,
              "velocity": 91,
              "position": 13.0,
              "duration": 0.208333
            },
            {
              "pitch": 54,
              "velocity": 62,
              "position": 13.0,
              "duration": 0.208333
            },
            {
              "pitch": 76,
              "velocity": 51,
              "position": 13.5,
              "duration": 0.208333
            },
            {
              "pitch": 35,
              "velocity": 67,
              "position": 14.0,
              "duration": 0.208333
            },
            {
              "pitch": 76,
              "velocity": 54,
              "position": 14.0,
              "duration": 0.208333
            },
            {
              "pitch": 38,
              "velocity": 60,
              "position": 14.5,
              "duration": 0.208333
            },
            {
              "pitch": 38,
              "velocity": 89,
              "position": 15.0,
              "duration": 0.208333
            },
            {
              "pitch": 44,
              "velocity": 83,
              "position": 15.0,
              "duration": 0.208333
            },
            {
              "pitch": 54,
              "velocity": 66,
              "position": 15.0,
              "duration": 0.208333
            },
            {
              "pitch": 76,
              "velocity": 55,
              "position": 15.0,
              "duration": 0.208333
            },
            {
              "pitch": 38,
              "velocity": 60,
              "position": 15.5,
              "duration": 0.208333
            },
            {
              "pitch": 76,
              "velocity": 50,
              "position": 15.625,
              "duration": 0.208333
            }
          ]
        },
        "10": {
          "ctab": {
            "srcChannel": 10,
            "name": "Bass",
            "accType": "BASS",
            "editable": true,
            "mutedNotes": [],
            "mutedChords": [],
            "sourceChordNote": 0,
            "sourceChordType": "Maj7",
            "ctb2Main": {
              "ntr": "ROOT_TRANSPOSITION",
              "ntt": "BYPASS",
              "bassOn": true,
              "noteLowLimit": 20,
              "noteHighLimit": 60,
              "chordRootUpperLimit": 127,
              "rtr": "NOTE_GENERATOR"
            }
          },
          "notes": [
            {
              "pitch": 36,
              "velocity": 76,
              "position": 0.008333,
              "duration": 1.666667
            },
            {
              "pitch": 36,
              "velocity": 76,
              "position": 2.008333,
              "duration": 1.666667
            },
            {
              "pitch": 36,
              "velocity": 76,
              "position": 4.008333,
              "duration": 1.666667
            },
            {
              "pitch": 36,
              "velocity": 76,
              "position": 6.008333,
              "duration": 0.775
            },
            {
              "pitch": 35,
              "velocity": 76,
              "position": 7.008333,
              "duration": 0.866667
            },
            {
              "pitch": 36,
              "velocity": 74,
              "position": 8.008333,
              "duration": 1.666667
            },
            {
              "pitch": 43,
              "velocity": 74,
              "position": 10.008333,
              "duration": 1.55
            },
            {
              "pitch": 36,
              "velocity": 74,
              "position": 12.008333,
              "duration": 1.691667
            },
            {
              "pitch": 43,
              "velocity": 74,
              "position": 14.008333,
              "duration": 1.575
            }
          ]
        },
        "11": {
          "ctab": {
            "srcChannel": 11,
            "name": "Piano",
            "accType": "CHORD1",
            "editable": true,
            "mutedNotes": [],
            "mutedChords": [],
            "sourceChordNote": 0,
            "sourceChordType": "Maj7",
            "ctb2Main": {
              "ntr": "ROOT_FIXED",
              "ntt": "CHORD",
              "bassOn": false,
              "noteLowLimit": 48,
              "noteHighLimit": 84,
              "chordRootUpperLimit": 127,
              "rtr": "NOTE_GENERATOR"
            }
          },
          "notes": [
            {
              "pitch": 52,
              "velocity": 45,
              "position": 0.016667,
              "duration": 0.991667
            },
            {
              "pitch": 55,
              "velocity": 35,
              "position": 0.908333,
              "duration": 1.05
            },
            {
              "pitch": 59,
              "velocity": 41,
              "position": 0.975,
              "duration": 0.983333
            },
            {
              "pitch": 64,
              "velocity": 41,
              "position": 1.041667,
              "duration": 0.916667
            },
            {
              "pitch": 52,
              "velocity": 45,
              "position": 2.016667,
              "duration": 1.941667
            },
            {
              "pitch": 55,
              "velocity": 43,
              "position": 2.625,
              "duration": 0.875
            },
            {
              "pitch": 59,
              "velocity": 41,
              "position": 3.008333,
              "duration": 0.95
            },
            {
              "pitch": 55,
              "velocity": 43,
              "position": 3.641667,
              "duration": 0.316667
            },
            {
              "pitch": 52,
              "velocity": 45,
              "position": 4.016667,
              "duration": 0.991667
            },
            {
              "pitch": 55,
              "velocity": 35,
              "position": 4.908333,
              "duration": 1.05
            },
            {
              "pitch": 59,
              "velocity": 41,
              "position": 4.975,
              "duration": 0.983333
            },
            {
              "pitch": 64,
              "velocity": 41,
              "position": 5.041667,
              "duration": 0.916667
            },
            {
              "pitch": 52,
              "velocity": 45,
              "position": 6.016667,
              "duration": 0.991667
            },
            {
              "pitch": 55,
              "velocity": 35,
              "position": 6.908333,
              "duration": 1.05
            },
            {
              "pitch": 59,
              "velocity": 41,
              "position": 6.975,
              "duration": 0.983333
            },
            {
              "pitch": 64,
              "velocity": 41,
              "position": 7.041667,
              "duration": 0.916667
            },
            {
              "pitch": 52,
              "velocity": 45,
              "position": 8.016667,
              "duration": 0.991667
            },
            {
              "pitch": 55,
              "velocity": 35,
              "position": 8.908333,
              "duration": 1.05
            },
            {
              "pitch": 59,
              "velocity": 41,
              "position": 8.975,
              "duration": 0.983333
            },
            {
              "pitch": 64,
              "velocity": 41,
              "position": 9.041667,
              "duration": 0.916667
            },
            {
              "pitch": 64,
              "velocity": 50,
              "position": 10.616667,
              "duration": 0.8
            },
            {
              "pitch": 59,
              "velocity": 41,
              "position": 11.008333,
              "duration": 0.55
            },
            {
              "pitch": 55,
              "velocity": 50,
              "position": 11.583333,
              "duration": 0.308333
            },
            {
              "pitch": 55,
              "velocity": 34,
              "position": 11.908333,
              "duration": 0.933333
            },
            {
              "pitch": 59,
              "velocity": 40,
              "position": 11.975,
              "duration": 0.866667
            },
            {
              "pitch": 64,
              "velocity": 40,
              "position": 12.041667,
              "duration": 0.8
            },
            {
              "pitch": 55,
              "velocity": 35,
              "position": 12.916667,
              "duration": 0.625
            },
            {
              "pitch": 59,
              "velocity": 41,
              "position": 12.983333,
              "duration": 0.508333
            },
            {
              "pitch": 64,
              "velocity": 41,
              "position": 13.05,
              "duration": 0.391667
            },
            {
              "pitch": 64,
              "velocity": 27,
              "position": 13.458333,
              "duration": 0.566667
            },
            {
              "pitch": 59,
              "velocity": 31,
              "position": 13.508333,
              "duration": 0.516667
            },
            {
              "pitch": 55,
              "velocity": 31,
              "position": 13.558333,
              "duration": 0.45
            },
            {
              "pitch": 52,
              "velocity": 27,
              "position": 13.608333,
              "duration": 0.416667
            },
            {
              "pitch": 55,
              "velocity": 48,
              "position": 14.025,
              "duration": 1.733333
            },
            {
              "pitch": 64,
              "velocity": 41,
              "position": 15.016667,
              "duration": 0.941667
            },
            {
              "pitch": 59,
              "velocity": 39,
              "position": 15.566667,
              "duration": 0.391667
            }
          ]
        },
        "12": {
          "ctab": {
            "srcChannel": 12,
            "name": "Guitar",
            "accType": "CHORD2",
            "editable": true,
            "mutedNotes": [],
            "mutedChords": [],
            "sourceChordNote": 0,
            "sourceChordType": "Maj7",
            "ctb2Main": {
              "ntr": "ROOT_FIXED",
              "ntt": "CHORD",
              "bassOn": false,
              "noteLowLimit": 40,
              "noteHighLimit": 76,
              "chordRootUpperLimit": 127,
              "rtr": "NOTE_GENERATOR"
            }
          },
          "notes": [
            {
              "pitch": 55,
              "velocity": 48,
              "position": 0.008333,
              "duration": 0.95
            },
            {
              "pitch": 59,
              "velocity": 48,
              "position": 0.041667,
              "duration": 0.958333
            },
            {
              "pitch": 64,
              "velocity": 48,
              "position": 0.083333,
              "duration": 0.916667
            },
            {
              "pitch": 52,
              "velocity": 62,
              "position": 0.925,
              "duration": 1.033333
            },
            {
              "pitch": 55,
              "velocity": 62,
              "position": 0.975,
              "duration": 0.983333
            },
            {
              "pitch": 59,
              "velocity": 62,
              "position": 1.025,
              "duration": 0.933333
            },
            {
              "pitch": 64,
              "velocity": 62,
              "position": 1.075,
              "duration": 0.883333
            },
            {
              "pitch": 48,
              "velocity": 40,
              "position": 1.925,
              "duration": 1.075
            },
            {
              "pitch": 52,
              "velocity": 48,
              "position": 1.966667,
              "duration": 0.941667
            },
            {
              "pitch": 55,
              "velocity": 48,
              "position": 2.008333,
              "duration": 0.95
            },
            {
              "pitch": 59,
              "velocity": 48,
              "position": 2.041667,
              "duration": 0.958333
            },
            {
              "pitch": 64,
              "velocity": 48,
              "position": 2.083333,
              "duration": 0.916667
            },
            {
              "pitch": 52,
              "velocity": 62,
              "position": 2.925,
              "duration": 1.033333
            },
            {
              "pitch": 55,
              "velocity": 62,
              "position": 2.975,
              "duration": 0.983333
            },
            {
              "pitch": 59,
              "velocity": 62,
              "position": 3.025,
              "duration": 0.933333
            },
            {
              "pitch": 64,
              "velocity": 62,
              "position": 3.075,
              "duration": 0.883333
            },
            {
              "pitch": 48,
              "velocity": 56,
              "position": 4.025,
              "duration": 0.983333
            },
            {
              "pitch": 59,
              "velocity": 56,
              "position": 5.025,
              "duration": 0.616667
            },
            {
              "pitch": 64,
              "velocity": 56,
              "position": 5.041667,
              "duration": 0.55
            },
            {
              "pitch": 64,
              "velocity": 50,
              "position": 5.591667,
              "duration": 0.366667
            },
            {
              "pitch": 59,
              "velocity": 58,
              "position": 5.641667,
              "duration": 0.316667
            },
            {
              "pitch": 48,
              "velocity": 37,
              "position": 5.916667,
              "duration": 1.075
            },
            {
              "pitch": 52,
              "velocity": 44,
              "position": 5.958333,
              "duration": 0.941667
            },
            {
              "pitch": 55,
              "velocity": 44,
              "position": 6.0,
              "duration": 0.95
            },
            {
              "pitch": 59,
              "velocity": 44,
              "position": 6.033333,
              "duration": 0.958333
            },
            {
              "pitch": 64,
              "velocity": 44,
              "position": 6.075,
              "duration": 0.916667
            },
            {
              "pitch": 52,
              "velocity": 67,
              "position": 6.916667,
              "duration": 0.25
            },
            {
              "pitch": 55,
              "velocity": 67,
              "position": 6.966667,
              "duration": 0.2
            },
            {
              "pitch": 59,
              "velocity": 67,
              "position": 7.016667,
              "duration": 0.15
            },
            {
              "pitch": 64,
              "velocity": 67,
              "position": 7.066667,
              "duration": 0.1
            },
            {
              "pitch": 48,
              "velocity": 56,
              "position": 8.025,
              "duration": 0.983333
            },
            {
              "pitch": 55,
              "velocity": 56,
              "position": 9.008333,
              "duration": 0.591667
            },
            {
              "pitch": 60,
              "velocity": 56,
              "position": 9.025,
              "duration": 0.525
            },
            {
              "pitch": 64,
              "velocity": 56,
              "position": 9.041667,
              "duration": 0.55
            },
            {
              "pitch": 64,
              "velocity": 50,
              "position": 9.591667,
              "duration": 0.991667
            },
            {
              "pitch": 60,
              "velocity": 52,
              "position": 9.6,
              "duration": 0.925
            },
            {
              "pitch": 55,
              "velocity": 56,
              "position": 9.641667,
              "duration": 0.825
            },
            {
              "pitch": 52,
              "velocity": 56,
              "position": 10.025,
              "duration": 0.983333
            },
            {
              "pitch": 55,
              "velocity": 56,
              "position": 11.008333,
              "duration": 0.633333
            },
            {
              "pitch": 60,
              "velocity": 56,
              "position": 11.025,
              "duration": 0.616667
            },
            {
              "pitch": 64,
              "velocity": 56,
              "position": 11.041667,
              "duration": 0.583333
            },
            {
              "pitch": 64,
              "velocity": 48,
              "position": 11.625,
              "duration": 0.4
            },
            {
              "pitch": 60,
              "velocity": 58,
              "position": 11.641667,
              "duration": 0.383333
            },
            {
              "pitch": 55,
              "velocity": 56,
              "position": 12.025,
              "duration": 0.983333
            },
            {
              "pitch": 55,
              "velocity": 56,
              "position": 13.008333,
              "duration": 0.658333
            },
            {
              "pitch": 60,
              "velocity": 56,
              "position": 13.025,
              "duration": 0.566667
            },
            {
              "pitch": 64,
              "velocity": 56,
              "position": 13.05,
              "duration": 0.575
            },
            {
              "pitch": 64,
              "velocity": 56,
              "position": 13.625,
              "duration": 0.1
            },
            {
              "pitch": 60,
              "velocity": 56,
              "position": 13.666667,
              "duration": 0.366667
            },
            {
              "pitch": 55,
              "velocity": 52,
              "position": 13.725,
              "duration": 0.308333
            },
            {
              "pitch": 57,
              "velocity": 56,
              "position": 14.033333,
              "duration": 0.825
            },
            {
              "pitch": 55,
              "velocity": 56,
              "position": 15.05,
              "duration": 0.683333
            },
            {
              "pitch": 48,
              "velocity": 40,
              "position": 15.925,
              "duration": 1.075
            },
            {
              "pitch": 52,
              "velocity": 48,
              "position": 15.966667,
              "duration": 0.941667
            }
          ]
        },
        "13": {
          "ctab": {
            "srcChannel": 13,
            "name": "Strings",
            "accType": "PAD",
            "editable": true,
            "mutedNotes": [],
            "mutedChords": [],
            "sourceChordNote": 0,
            "sourceChordType": "Maj7",
            "ctb2Main": {
              "ntr": "ROOT_FIXED",
              "ntt": "MELODY",
              "bassOn": false,
              "noteLowLimit": 36,
              "noteHighLimit": 96,
              "chordRootUpperLimit": 127,
              "rtr": "PITCH_SHIFT"
            }
          },
          "notes": [
            {
              "pitch": 48,
              "velocity": 85,
              "position": 0.008333,
              "duration": 0.4
            },
            {
              "pitch": 55,
              "velocity": 85,
              "position": 1.008333,
              "duration": 0.233333
            },
            {
              "pitch": 48,
              "velocity": 85,
              "position": 2.0,
              "duration": 1.025
            },
            {
              "pitch": 55,
              "velocity": 85,
              "position": 3.0,
              "duration": 0.233333
            },
            {
              "pitch": 48,
              "velocity": 85,
              "position": 4.008333,
              "duration": 0.4
            },
            {
              "pitch": 55,
              "velocity": 85,
              "position": 5.008333,
              "duration": 0.233333
            },
            {
              "pitch": 48,
              "velocity": 85,
              "position": 6.0,
              "duration": 1.025
            },
            {
              "pitch": 55,
              "velocity": 85,
              "position": 7.0,
              "duration": 0.233333
            },
            {
              "pitch": 48,
              "velocity": 85,
              "position": 8.0,
              "duration": 1.025
            },
            {
              "pitch": 55,
              "velocity": 85,
              "position": 9.0,
              "duration": 0.233333
            },
            {
              "pitch": 43,
              "velocity": 85,
              "position": 10.0,
              "duration": 1.025
            },
            {
              "pitch": 55,
              "velocity": 85,
              "position": 11.0,
              "duration": 0.233333
            },
            {
              "pitch": 48,
              "velocity": 85,
              "position": 12.0,
              "duration": 0.725
            },
            {
              "pitch": 55,
              "velocity": 85,
              "position": 13.0,
              "duration": 0.233333
            },
            {
              "pitch": 43,
              "velocity": 85,
              "position": 14.0,
              "duration": 0.508333
            },
            {
              "pitch": 55,
              "velocity": 85,
              "position": 15.0,
              "duration": 0.325
            }
          ]
        }
      }
    },
    "Fill_In_AA": {
      "type": "Fill_In_AA",
      "sizeInBeats": 16,
      "channels": {
        "9": {
          "ctab": {
            "srcChannel": 9,
            "name": "Drums",
            "accType": "RHYTHM",
            "editable": false,
            "mutedNotes": [],
            "mutedChords": [],
            "sourceChordNote": 0,
            "sourceChordType": "Maj",
            "ctb2Main": {
              "ntr": "ROOT_FIXED",
              "ntt": "BYPASS",
              "bassOn": false,
              "noteLowLimit": 20,
              "noteHighLimit": 127,
              "chordRootUpperLimit": 127,
              "rtr": "RETRIGGER"
            }
          },
          "notes": [
            {
              "pitch": 35,
              "velocity": 65,
              "position": 0.0,
              "duration": 0.208333
            },
            {
              "pitch": 38,
              "velocity": 70,
              "position": 0.0,
              "duration": 0.208333
            },
            {
              "pitch": 49,
              "velocity": 70,
              "position": 0.0,
              "duration": 0.208333
            },
            {
              "pitch": 76,
              "velocity": 55,
              "position": 0.0,
              "duration": 0.208333
            },
            {
              "pitch": 38,
              "velocity": 80,
              "position": 1.0,
              "duration": 0.208333
            },
            {
              "pitch": 44,
              "velocity": 86,
              "position": 1.0,
              "duration": 0.208333
            },
            {
              "pitch": 54,
              "velocity": 55,
              "position": 1.0,
              "duration": 0.208333
            },
            {
              "pitch": 76,
              "velocity": 50,
              "position": 1.0,
              "duration": 0.208333
            },
            {
              "pitch": 76,
              "velocity": 40,
              "position": 1.5,
              "duration": 0.208333
            },
            {
              "pitch": 35,
              "velocity": 69,
              "position": 2.0,
              "duration": 0.208333
            },
            {
              "pitch": 76,
              "velocity": 55,
              "position": 2.0,
              "duration": 0.208333
            },
            {
              "pitch": 38,
              "velocity": 90,
              "position": 3.0,
              "duration": 0.208333
            },
            {
              "pitch": 44,
              "velocity": 92,
              "position": 3.0,
              "duration": 0.208333
            },
            {
              "pitch": 54,
              "velocity": 62,
              "position": 3.0,
              "duration": 0.208333
            },
            {
              "pitch": 76,
              "velocity": 50,
              "position": 3.0,
              "duration": 0.208333
            },
            {
              "pitch": 76,
              "velocity": 32,
              "position": 3.625,
              "duration": 0.208333
            },
            {
              "pitch": 35,
              "velocity": 65,
              "position": 4.0,
              "duration": 0.208333
            },
            {
              "pitch": 76,
              "velocity": 45,
              "position": 4.0,
              "duration": 0.208333
            },
            {
              "pitch": 38,
              "velocity": 95,
              "position": 5.0,
              "duration": 0.208333
            },
            {
              "pitch": 44,
              "velocity": 91,
              "position": 5.0,
              "duration": 0.208333
            },
            {
              "pitch": 54,
              "velocity": 62,
              "position": 5.0,
              "duration": 0.208333
            },
            {
              "pitch": 76,
              "velocity": 57,
              "position": 5.0,
              "duration": 0.208333
            },
            {
              "pitch": 76,
              "velocity": 40,
              "position": 5.625,
              "duration": 0.208333
            },
            {
              "pitch": 35,
              "velocity": 67,
              "position": 6.0,
              "duration": 0.208333
            },
            {
              "pitch": 76,
              "velocity": 54,
              "position": 6.0,
              "duration": 0.208333
            },
            {
              "pitch": 38,
              "velocity": 89,
              "position": 7.0,
              "duration": 0.208333
            },
            {
              "pitch": 44,
              "velocity": 83,
              "position": 7.0,
              "duration": 0.208333
            },
            {
              "pitch": 54,
              "velocity": 66,
              "position": 7.0,
              "duration": 0.208333
            },
            {
              "pitch": 76,
              "velocity": 61,
              "position": 7.0,
              "duration": 0.208333
            },
            {
              "pitch": 76,
              "velocity": 36,
              "position": 7.625,
              "duration": 0.208333
            },
            {
              "pitch": 35,
              "velocity": 70,
              "position": 8.0,
              "duration": 0.208333
            },
            {
              "pitch": 76,
              "velocity": 45,
              "position": 8.0,
              "duration": 0.208333
            },
            {
              "pitch": 38,
              "velocity": 90,
              "position": 9.0,
              "duration": 0.208333
            },
            {
              "pitch": 44,
              "velocity": 86,
              "position": 9.0,
              "duration": 0.208333
            },
            {
              "pitch": 54,
              "velocity": 62,
              "position": 9.0,
              "duration": 0.208333
            },
            {
              "pitch": 76,
              "velocity": 49,
              "position": 9.0,
              "duration": 0.208333
            },
            {
              "pitch": 76,
              "velocity": 36,
              "position": 9.625,
              "duration": 0.208333
            },
            {
              "pitch": 35,
              "velocity": 60,
              "position": 10.0,
              "duration": 0.208333
            },
            {
              "pitch": 76,
              "velocity": 54,
              "position": 10.0,
              "duration": 0.208333
            },
            {
              "pitch": 38,
              "velocity": 85,
              "position": 11.0,
              "duration": 0.208333
            },
            {
              "pitch": 44,
              "velocity": 88,
              "position": 11.0,
              "duration": 0.208333
            },
            {
              "pitch": 54,
              "velocity": 66,
              "position": 11.0,
              "duration": 0.208333
            },
            {
              "pitch": 76,
              "velocity": 56,
              "position": 11.0,
              "duration": 0.208333
            },
            {
              "pitch": 35,
              "velocity": 65,
              "position": 12.0,
              "duration": 0.208333
            },
            {
              "pitch": 76,
              "velocity": 45,
              "position": 12.0,
              "duration": 0.208333
            },
            {
              "pitch": 38,
              "velocity": 95,
              "position": 13.0,
              "duration": 0.208333
            },
            {
              "pitch": 44,
              "velocity": 91,
              "position": 13.0,
              "duration": 0.208333
            },
            {
              "pitch": 54,
              "velocity": 62,
              "position": 13.0,
              "duration": 0.208333
            },
            {
              "pitch": 76,
              "velocity": 45,
              "position": 13.0,
              "duration": 0.208333
            },
            {
              "pitch": 38,
              "velocity": 50,
              "position": 13.5,
              "duration": 0.208333
            },
            {
              "pitch": 45,
              "velocity": 70,
              "position": 13.5,
              "duration": 0.208333
            },
            {
              "pitch": 76,
              "velocity": 51,
              "position": 13.5,
              "duration": 0.208333
            },
            {
              "pitch": 35,
              "velocity": 67,
              "position": 14.0,
              "duration": 0.208333
            },
            {
              "pitch": 76,
              "velocity": 54,
              "position": 14.0,
              "duration": 0.208333
            },
            {
              "pitch": 38,
              "velocity": 60,
              "position": 14.5,
              "duration": 0.208333
            },
            {
              "pitch": 35,
              "velocity": 70,
              "position": 15.0,
              "duration": 0.208333
            },
            {
              "pitch": 38,
              "velocity": 80,
              "position": 15.0,
              "duration": 0.208333
            },
            {
              "pitch": 54,
              "velocity": 70,
              "position": 15.0,
              "duration": 0.208333
            },
            {
              "pitch": 76,
              "velocity": 55,
              "position": 15.0,
              "duration": 0.208333
            },
            {
              "pitch": 38,
              "velocity": 60,
              "position": 15.5,
              "duration": 0.208333
            }
          ]
        },
        "10": {
          "ctab": {
            "srcChannel": 10,
            "name": "Bass",
            "accType": "BASS",
            "editable": true,
            "mutedNotes": [],
            "mutedChords": [],
            "sourceChordNote": 0,
            "sourceChordType": "Maj7",
            "ctb2Main": {
              "ntr": "ROOT_TRANSPOSITION",
              "ntt": "BYPASS",
              "bassOn": true,
              "noteLowLimit": 20,
              "noteHighLimit": 60,
              "chordRootUpperLimit": 127,
              "rtr": "NOTE_GENERATOR"
            }
          },
          "notes": [
            {
              "pitch": 36,
              "velocity": 76,
              "position": 0.008333,
              "duration": 1.666667
            },
            {
              "pitch": 36,
              "velocity": 76,
              "position": 2.008333,
              "duration": 1.666667
            },
            {
              "pitch": 36,
              "velocity": 76,
              "position": 4.008333,
              "duration": 1.666667
            },
            {
              "pitch": 36,
              "velocity": 76,
              "position": 6.008333,
              "duration": 1.666667
            },
            {
              "pitch": 36,
              "velocity": 77,
              "position": 8.016667,
              "duration": 0.816667
            },
            {
              "pitch": 31,
              "velocity": 74,
              "position": 10.008333,
              "duration": 1.55
            },
            {
              "pitch": 36,
              "velocity": 74,
              "position": 12.008333,
              "duration": 1.691667
            },
            {
              "pitch": 31,
              "velocity": 74,
              "position": 14.016667,
              "duration": 1.575
            }
          ]
        },
        "11": {
          "ctab": {
            "srcChannel": 11,
            "name": "Piano",
            "accType": "CHORD1",
            "editable": true,
            "mutedNotes": [],
            "mutedChords": [],
            "sourceChordNote": 0,
            "sourceChordType": "Maj7",
            "ctb2Main": {
              "ntr": "ROOT_FIXED",
              "ntt": "CHORD",
              "bassOn": false,
              "noteLowLimit": 48,
              "noteHighLimit": 84,
              "chordRootUpperLimit": 127,
              "rtr": "NOTE_GENERATOR"
            }
          },
          "notes": [
            {
              "pitch": 52,
              "velocity": 45,
              "position": 0.016667,
              "duration": 1.941667
            },
            {
              "pitch": 55,
              "velocity": 43,
              "position": 0.625,
              "duration": 0.875
            },
            {
              "pitch": 59,
              "velocity": 41,
              "position": 1.008333,
              "duration": 0.95
            },
            {
              "pitch": 55,
              "velocity": 43,
              "position": 1.641667,
              "duration": 0.25
            },
            {
              "pitch": 55,
              "velocity": 32,
              "position": 1.908333,
              "duration": 0.983333
            },
            {
              "pitch": 59,
              "velocity": 37,
              "position": 1.975,
              "duration": 0.983333
            },
            {
              "pitch": 64,
              "velocity": 37,
              "position": 2.041667,
              "duration": 0.958333
            },
            {
              "pitch": 55,
              "velocity": 40,
              "position": 2.908333,
              "duration": 0.375
            },
            {
              "pitch": 59,
              "velocity": 46,
              "position": 2.975,
              "duration": 0.308333
            },
            {
              "pitch": 64,
              "velocity": 46,
              "position": 3.041667,
              "duration": 0.241667
            },
            {
              "pitch": 64,
              "velocity": 23,
              "position": 3.55,
              "duration": 0.408333
            },
            {
              "pitch": 59,
              "velocity": 26,
              "position": 3.6,
              "duration": 0.358333
            },
            {
              "pitch": 55,
              "velocity": 26,
              "position": 3.65,
              "duration": 0.308333
            },
            {
              "pitch": 52,
              "velocity": 23,
              "position": 3.7,
              "duration": 0.258333
            },
            {
              "pitch": 52,
              "velocity": 45,
              "position": 4.016667,
              "duration": 0.991667
            },
            {
              "pitch": 59,
              "velocity": 50,
              "position": 5.591667,
              "duration": 0.366667
            },
            {
              "pitch": 52,
              "velocity": 45,
              "position": 6.016667,
              "duration": 1.941667
            },
            {
              "pitch": 55,
              "velocity": 43,
              "position": 6.625,
              "duration": 0.875
            },
            {
              "pitch": 59,
              "velocity": 41,
              "position": 7.008333,
              "duration": 0.95
            },
            {
              "pitch": 55,
              "velocity": 43,
              "position": 7.641667,
              "duration": 0.316667
            },
            {
              "pitch": 52,
              "velocity": 38,
              "position": 8.016667,
              "duration": 3.083333
            },
            {
              "pitch": 64,
              "velocity": 48,
              "position": 8.625,
              "duration": 1.208333
            },
            {
              "pitch": 55,
              "velocity": 30,
              "position": 9.008333,
              "duration": 1.85
            },
            {
              "pitch": 59,
              "velocity": 50,
              "position": 9.608333,
              "duration": 0.783333
            },
            {
              "pitch": 64,
              "velocity": 54,
              "position": 10.008333,
              "duration": 1.45
            },
            {
              "pitch": 59,
              "velocity": 50,
              "position": 10.616667,
              "duration": 0.883333
            },
            {
              "pitch": 55,
              "velocity": 35,
              "position": 11.008333,
              "duration": 0.55
            },
            {
              "pitch": 59,
              "velocity": 38,
              "position": 11.6,
              "duration": 0.408333
            },
            {
              "pitch": 52,
              "velocity": 39,
              "position": 12.008333,
              "duration": 1.866667
            },
            {
              "pitch": 55,
              "velocity": 40,
              "position": 12.658333,
              "duration": 0.8
            },
            {
              "pitch": 59,
              "velocity": 41,
              "position": 13.008333,
              "duration": 1.533333
            },
            {
              "pitch": 55,
              "velocity": 33,
              "position": 13.608333,
              "duration": 0.466667
            },
            {
              "pitch": 52,
              "velocity": 48,
              "position": 14.025,
              "duration": 1.733333
            },
            {
              "pitch": 64,
              "velocity": 50,
              "position": 14.616667,
              "duration": 1.291667
            },
            {
              "pitch": 59,
              "velocity": 41,
              "position": 15.016667,
              "duration": 0.941667
            },
            {
              "pitch": 55,
              "velocity": 33,
              "position": 15.566667,
              "duration": 0.391667
            }
          ]
        },
        "12": {
          "ctab": {
            "srcChannel": 12,
            "name": "Guitar",
            "accType": "CHORD2",
            "editable": true,
            "mutedNotes": [],
            "mutedChords": [],
            "sourceChordNote": 0,
            "sourceChordType": "Maj7",
            "ctb2Main": {
              "ntr": "ROOT_FIXED",
              "ntt": "CHORD",
              "bassOn": false,
              "noteLowLimit": 40,
              "noteHighLimit": 76,
              "chordRootUpperLimit": 127,
              "rtr": "NOTE_GENERATOR"
            }
          },
          "notes": [
            {
              "pitch": 55,
              "velocity": 48,
              "position": 0.008333,
              "duration": 0.95
            },
            {
              "pitch": 59,
              "velocity": 48,
              "position": 0.041667,
              "duration": 0.958333
            },
            {
              "pitch": 64,
              "velocity": 48,
              "position": 0.083333,
              "duration": 0.916667
            },
            {
              "pitch": 52,
              "velocity": 62,
              "position": 0.925,
              "duration": 1.033333
            },
            {
              "pitch": 55,
              "velocity": 62,
              "position": 0.975,
              "duration": 0.983333
            },
            {
              "pitch": 59,
              "velocity": 62,
              "position": 1.025,
              "duration": 0.933333
            },
            {
              "pitch": 64,
              "velocity": 62,
              "position": 1.075,
              "duration": 0.883333
            },
            {
              "pitch": 48,
              "velocity": 40,
              "position": 1.925,
              "duration": 1.075
            },
            {
              "pitch": 52,
              "velocity": 48,
              "position": 1.966667,
              "duration": 0.941667
            },
            {
              "pitch": 55,
              "velocity": 48,
              "position": 2.008333,
              "duration": 0.95
            },
            {
              "pitch": 59,
              "velocity": 48,
              "position": 2.041667,
              "duration": 0.958333
            },
            {
              "pitch": 64,
              "velocity": 48,
              "position": 2.083333,
              "duration": 0.916667
            },
            {
              "pitch": 52,
              "velocity": 62,
              "position": 2.925,
              "duration": 1.016667
            },
            {
              "pitch": 55,
              "velocity": 62,
              "position": 2.975,
              "duration": 0.983333
            },
            {
              "pitch": 59,
              "velocity": 62,
              "position": 3.025,
              "duration": 0.933333
            },
            {
              "pitch": 64,
              "velocity": 62,
              "position": 3.075,
              "duration": 0.883333
            },
            {
              "pitch": 48,
              "velocity": 37,
              "position": 3.916667,
              "duration": 1.075
            },
            {
              "pitch": 52,
              "velocity": 44,
              "position": 3.958333,
              "duration": 0.941667
            },
            {
              "pitch": 55,
              "velocity": 44,
              "position": 4.0,
              "duration": 0.95
            },
            {
              "pitch": 59,
              "velocity": 44,
              "position": 4.033333,
              "duration": 0.958333
            },
            {
              "pitch": 64,
              "velocity": 44,
              "position": 4.075,
              "duration": 0.916667
            },
            {
              "pitch": 52,
              "velocity": 67,
              "position": 4.916667,
              "duration": 0.25
            },
            {
              "pitch": 55,
              "velocity": 67,
              "position": 4.966667,
              "duration": 0.2
            },
            {
              "pitch": 59,
              "velocity": 67,
              "position": 5.016667,
              "duration": 0.15
            },
            {
              "pitch": 64,
              "velocity": 67,
              "position": 5.066667,
              "duration": 0.1
            },
            {
              "pitch": 48,
              "velocity": 56,
              "position": 6.025,
              "duration": 0.983333
            },
            {
              "pitch": 59,
              "velocity": 56,
              "position": 7.025,
              "duration": 0.616667
            },
            {
              "pitch": 64,
              "velocity": 56,
              "position": 7.041667,
              "duration": 0.55
            },
            {
              "pitch": 64,
              "velocity": 50,
              "position": 7.591667,
              "duration": 0.366667
            },
            {
              "pitch": 59,
              "velocity": 58,
              "position": 7.641667,
              "duration": 0.316667
            },
            {
              "pitch": 48,
              "velocity": 44,
              "position": 7.925,
              "duration": 1.075
            },
            {
              "pitch": 52,
              "velocity": 52,
              "position": 7.966667,
              "duration": 0.941667
            },
            {
              "pitch": 55,
              "velocity": 52,
              "position": 8.008333,
              "duration": 0.95
            },
            {
              "pitch": 59,
              "velocity": 52,
              "position": 8.041667,
              "duration": 0.958333
            },
            {
              "pitch": 64,
              "velocity": 52,
              "position": 8.083333,
              "duration": 0.916667
            },
            {
              "pitch": 52,
              "velocity": 66,
              "position": 8.925,
              "duration": 1.583333
            },
            {
              "pitch": 55,
              "velocity": 66,
              "position": 8.975,
              "duration": 1.533333
            },
            {
              "pitch": 59,
              "velocity": 66,
              "position": 9.025,
              "duration": 1.483333
            },
            {
              "pitch": 64,
              "velocity": 66,
              "position": 9.075,
              "duration": 1.433333
            },
            {
              "pitch": 59,
              "velocity": 52,
              "position": 10.633333,
              "duration": 1.191667
            },
            {
              "pitch": 55,
              "velocity": 58,
              "position": 11.025,
              "duration": 0.866667
            },
            {
              "pitch": 52,
              "velocity": 62,
              "position": 11.591667,
              "duration": 0.266667
            },
            {
              "pitch": 48,
              "velocity": 42,
              "position": 11.925,
              "duration": 1.083333
            },
            {
              "pitch": 52,
              "velocity": 50,
              "position": 11.966667,
              "duration": 0.941667
            },
            {
              "pitch": 55,
              "velocity": 50,
              "position": 12.008333,
              "duration": 0.95
            },
            {
              "pitch": 59,
              "velocity": 50,
              "position": 12.041667,
              "duration": 0.966667
            },
            {
              "pitch": 64,
              "velocity": 50,
              "position": 12.083333,
              "duration": 0.925
            },
            {
              "pitch": 52,
              "velocity": 56,
              "position": 12.925,
              "duration": 0.666667
            },
            {
              "pitch": 55,
              "velocity": 56,
              "position": 12.975,
              "duration": 0.616667
            },
            {
              "pitch": 59,
              "velocity": 56,
              "position": 13.025,
              "duration": 0.533333
            },
            {
              "pitch": 64,
              "velocity": 56,
              "position": 13.075,
              "duration": 0.433333
            },
            {
              "pitch": 64,
              "velocity": 32,
              "position": 13.525,
              "duration": 0.5
            },
            {
              "pitch": 59,
              "velocity": 36,
              "position": 13.575,
              "duration": 0.45
            },
            {
              "pitch": 55,
              "velocity": 36,
              "position": 13.625,
              "duration": 0.366667
            },
            {
              "pitch": 52,
              "velocity": 32,
              "position": 13.675,
              "duration": 0.275
            },
            {
              "pitch": 48,
              "velocity": 47,
              "position": 13.925,
              "duration": 1.025
            },
            {
              "pitch": 52,
              "velocity": 56,
              "position": 13.966667,
              "duration": 1.016667
            },
            {
              "pitch": 55,
              "velocity": 56,
              "position": 14.008333,
              "duration": 0.975
            },
            {
              "pitch": 59,
              "velocity": 56,
              "position": 14.041667,
              "duration": 0.941667
            },
            {
              "pitch": 64,
              "velocity": 56,
              "position": 14.083333,
              "duration": 0.9
            },
            {
              "pitch": 48,
              "velocity": 49,
              "position": 14.966667,
              "duration": 0.266667
            },
            {
              "pitch": 52,
              "velocity": 58,
              "position": 14.991667,
              "duration": 0.241667
            },
            {
              "pitch": 55,
              "velocity": 58,
              "position": 15.016667,
              "duration": 0.216667
            },
            {
              "pitch": 59,
              "velocity": 58,
              "position": 15.033333,
              "duration": 0.2
            },
            {
              "pitch": 64,
              "velocity": 58,
              "position": 15.058333,
              "duration": 0.175
            },
            {
              "pitch": 48,
              "velocity": 40,
              "position": 15.925,
              "duration": 1.075
            },
            {
              "pitch": 52,
              "velocity": 48,
              "position": 15.966667,
              "duration": 0.941667
            }
          ]
        },
        "13": {
          "ctab": {
            "srcChannel": 13,
            "name": "Strings",
            "accType": "PAD",
            "editable": true,
            "mutedNotes": [],
            "mutedChords": [],
            "sourceChordNote": 0,
            "sourceChordType": "Maj7",
            "ctb2Main": {
              "ntr": "ROOT_FIXED",
              "ntt": "MELODY",
              "bassOn": false,
              "noteLowLimit": 36,
              "noteHighLimit": 96,
              "chordRootUpperLimit": 127,
              "rtr": "PITCH_SHIFT"
            }
          },
          "notes": [
            {
              "pitch": 48,
              "velocity": 85,
              "position": 0.008333,
              "duration": 0.616667
            },
            {
              "pitch": 55,
              "velocity": 85,
              "position": 1.008333,
              "duration": 0.233333
            },
            {
              "pitch": 48,
              "velocity": 85,
              "position": 2.0,
              "duration": 1.025
            },
            {
              "pitch": 55,
              "velocity": 85,
              "position": 3.0,
              "duration": 0.233333
            },
            {
              "pitch": 48,
              "velocity": 85,
              "position": 4.008333,
              "duration": 0.4
            },
            {
              "pitch": 55,
              "velocity": 85,
              "position": 5.008333,
              "duration": 0.233333
            },
            {
              "pitch": 48,
              "velocity": 85,
              "position": 6.008333,
              "duration": 0.616667
            },
            {
              "pitch": 55,
              "velocity": 85,
              "position": 7.008333,
              "duration": 0.233333
            },
            {
              "pitch": 48,
              "velocity": 85,
              "position": 8.008333,
              "duration": 0.975
            },
            {
              "pitch": 55,
              "velocity": 85,
              "position": 9.008333,
              "duration": 0.233333
            },
            {
              "pitch": 52,
              "velocity": 85,
              "position": 10.008333,
              "duration": 0.95
            },
            {
              "pitch": 55,
              "velocity": 85,
              "position": 11.008333,
              "duration": 0.233333
            },
            {
              "pitch": 48,
              "velocity": 85,
              "position": 12.008333,
              "duration": 1.05
            },
            {
              "pitch": 55,
              "velocity": 85,
              "position": 13.008333,
              "duration": 0.233333
            },
            {
              "pitch": 52,
              "velocity": 85,
              "position": 14.008333,
              "duration": 0.958333
            },
            {
              "pitch": 55,
              "velocity": 85,
              "position": 15.008333,
              "duration": 0.325
            }
          ]
        }
      }
    },
    "Ending_A": {
      "type": "Ending_A",
      "sizeInBeats": 16,
      "channels": {
        "9": {
          "ctab": {
            "srcChannel": 9,
            "name": "Drums",
            "accType": "RHYTHM",
            "editable": false,
            "mutedNotes": [],
            "mutedChords": [],
            "sourceChordNote": 0,
            "sourceChordType": "Maj",
            "ctb2Main": {
              "ntr": "ROOT_FIXED",
              "ntt": "BYPASS",
              "bassOn": false,
              "noteLowLimit": 20,
              "noteHighLimit": 127,
              "chordRootUpperLimit": 127,
              "rtr": "RETRIGGER"
            }
          },
          "notes": [
            {
              "pitch": 35,
              "velocity": 67,
              "position": 0.0,
              "duration": 0.208333
            },
            {
              "pitch": 38,
              "velocity": 55,
              "position": 0.0,
              "duration": 0.208333
            },
            {
              "pitch": 49,
              "velocity": 67,
              "position": 0.0,
              "duration": 0.208333
            },
            {
              "pitch": 76,
              "velocity": 35,
              "position": 0.0,
              "duration": 0.208333
            },
            {
              "pitch": 38,
              "velocity": 70,
              "position": 1.0,
              "duration": 0.208333
            },
            {
              "pitch": 44,
              "velocity": 76,
              "position": 1.0,
              "duration": 0.208333
            },
            {
              "pitch": 54,
              "velocity": 45,
              "position": 1.0,
              "duration": 0.208333
            },
            {
              "pitch": 76,
              "velocity": 40,
              "position": 1.0,
              "duration": 0.208333
            },
            {
              "pitch": 76,
              "velocity": 36,
              "position": 1.625,
              "duration": 0.208333
            },
            {
              "pitch": 35,
              "velocity": 59,
              "position": 2.0,
              "duration": 0.208333
            },
            {
              "pitch": 76,
              "velocity": 45,
              "position": 2.0,
              "duration": 0.208333
            },
            {
              "pitch": 38,
              "velocity": 80,
              "position": 3.0,
              "duration": 0.208333
            },
            {
              "pitch": 44,
              "velocity": 82,
              "position": 3.0,
              "duration": 0.208333
            },
            {
              "pitch": 54,
              "velocity": 52,
              "position": 3.0,
              "duration": 0.208333
            },
            {
              "pitch": 76,
              "velocity": 40,
              "position": 3.0,
              "duration": 0.208333
            },
            {
              "pitch": 76,
              "velocity": 30,
              "position": 3.5,
              "duration": 0.208333
            },
            {
              "pitch": 35,
              "velocity": 55,
              "position": 4.0,
              "duration": 0.208333
            },
            {
              "pitch": 76,
              "velocity": 35,
              "position": 4.0,
              "duration": 0.208333
            },
            {
              "pitch": 38,
              "velocity": 85,
              "position": 5.0,
              "duration": 0.208333
            },
            {
              "pitch": 44,
              "velocity": 81,
              "position": 5.0,
              "duration": 0.208333
            },
            {
              "pitch": 54,
              "velocity": 52,
              "position": 5.0,
              "duration": 0.208333
            },
            {
              "pitch": 76,
              "velocity": 47,
              "position": 5.0,
              "duration": 0.208333
            },
            {
              "pitch": 76,
              "velocity": 32,
              "position": 5.625,
              "duration": 0.208333
            },
            {
              "pitch": 35,
              "velocity": 57,
              "position": 6.0,
              "duration": 0.208333
            },
            {
              "pitch": 76,
              "velocity": 44,
              "position": 6.0,
              "duration": 0.208333
            },
            {
              "pitch": 38,
              "velocity": 79,
              "position": 7.0,
              "duration": 0.208333
            },
            {
              "pitch": 44,
              "velocity": 73,
              "position": 7.0,
              "duration": 0.208333
            },
            {
              "pitch": 54,
              "velocity": 56,
              "position": 7.0,
              "duration": 0.208333
            },
            {
              "pitch": 76,
              "velocity": 51,
              "position": 7.0,
              "duration": 0.208333
            },
            {
              "pitch": 76,
              "velocity": 28,
              "position": 7.625,
              "duration": 0.208333
            },
            {
              "pitch": 35,
              "velocity": 55,
              "position": 8.0,
              "duration": 0.208333
            },
            {
              "pitch": 76,
              "velocity": 35,
              "position": 8.0,
              "duration": 0.208333
            },
            {
              "pitch": 38,
              "velocity": 85,
              "position": 9.0,
              "duration": 0.208333
            },
            {
              "pitch": 44,
              "velocity": 81,
              "position": 9.0,
              "duration": 0.208333
            },
            {
              "pitch": 54,
              "velocity": 52,
              "position": 9.0,
              "duration": 0.208333
            },
            {
              "pitch": 76,
              "velocity": 35,
              "position": 9.0,
              "duration": 0.208333
            },
            {
              "pitch": 76,
              "velocity": 32,
              "position": 9.625,
              "duration": 0.208333
            },
            {
              "pitch": 35,
              "velocity": 57,
              "position": 10.0,
              "duration": 0.208333
            },
            {
              "pitch": 76,
              "velocity": 44,
              "position": 10.0,
              "duration": 0.208333
            },
            {
              "pitch": 38,
              "velocity": 79,
              "position": 11.0,
              "duration": 0.208333
            },
            {
              "pitch": 44,
              "velocity": 73,
              "position": 11.0,
              "duration": 0.208333
            },
            {
              "pitch": 54,
              "velocity": 56,
              "position": 11.0,
              "duration": 0.208333
            },
            {
              "pitch": 76,
              "velocity": 45,
              "position": 11.0,
              "duration": 0.208333
            },
            {
              "pitch": 76,
              "velocity": 53,
              "position": 11.5,
              "duration": 0.208333
            },
            {
              "pitch": 35,
              "velocity": 55,
              "position": 12.0,
              "duration": 0.208333
            },
            {
              "pitch": 76,
              "velocity": 35,
              "position": 12.0,
              "duration": 0.208333
            },
            {
              "pitch": 38,
              "velocity": 85,
              "position": 13.0,
              "duration": 0.208333
            },
            {
              "pitch": 44,
              "velocity": 81,
              "position": 13.0,
              "duration": 0.208333
            },
            {
              "pitch": 54,
              "velocity": 52,
              "position": 13.0,
              "duration": 0.208333
            },
            {
              "pitch": 76,
              "velocity": 35,
              "position": 13.0,
              "duration": 0.208333
            },
            {
              "pitch": 38,
              "velocity": 40,
              "position": 13.5,
              "duration": 0.208333
            },
            {
              "pitch": 45,
              "velocity": 60,
              "position": 13.5,
              "duration": 0.208333
            },
            {
              "pitch": 76,
              "velocity": 41,
              "position": 13.5,
              "duration": 0.208333
            },
            {
              "pitch": 35,
              "velocity": 57,
              "position": 14.0,
              "duration": 0.208333
            },
            {
              "pitch": 76,
              "velocity": 44,
              "position": 14.0,
              "duration": 0.208333
            },
            {
              "pitch": 38,
              "velocity": 50,
              "position": 14.5,
              "duration": 0.208333
            },
            {
              "pitch": 35,
              "velocity": 60,
              "position": 15.0,
              "duration": 0.208333
            },
            {
              "pitch": 38,
              "velocity": 70,
              "position": 15.0,
              "duration": 0.208333
            },
            {
              "pitch": 54,
              "velocity": 60,
              "position": 15.0,
              "duration": 0.208333
            },
            {
              "pitch": 76,
              "velocity": 45,
              "position": 15.0,
              "duration": 0.208333
            },
            {
              "pitch": 38,
              "velocity": 50,
              "position": 15.5,
              "duration": 0.208333
            }
          ]
        },
        "10": {
          "ctab": {
            "srcChannel": 10,
            "name": "Bass",
            "accType": "BASS",
            "editable": true,
            "mutedNotes": [],
            "mutedChords": [],
            "sourceChordNote": 0,
            "sourceChordType": "Maj7",
            "ctb2Main": {
              "ntr": "ROOT_TRANSPOSITION",
              "ntt": "BYPASS",
              "bassOn": true,
              "noteLowLimit": 20,
              "noteHighLimit": 60,
              "chordRootUpperLimit": 127,
              "rtr": "NOTE_GENERATOR"
            }
          },
          "notes": [
            {
              "pitch": 36,
              "velocity": 67,
              "position": 0.008333,
              "duration": 1.666667
            },
            {
              "pitch": 36,
              "velocity": 67,
              "position": 2.008333,
              "duration": 1.666667
            },
            {
              "pitch": 36,
              "velocity": 67,
              "position": 4.008333,
              "duration": 1.666667
            },
            {
              "pitch": 36,
              "velocity": 67,
              "position": 6.008333,
              "duration": 0.775
            },
            {
              "pitch": 36,
              "velocity": 67,
              "position": 7.008333,
              "duration": 0.866667
            },
            {
              "pitch": 36,
              "velocity": 67,
              "position": 8.008333,
              "duration": 1.666667
            },
            {
              "pitch": 31,
              "velocity": 67,
              "position": 10.008333,
              "duration": 1.55
            },
            {
              "pitch": 36,
              "velocity": 67,
              "position": 12.008333,
              "duration": 1.666667
            },
            {
              "pitch": 43,
              "velocity": 67,
              "position": 14.008333,
              "duration": 1.55
            }
          ]
        },
        "11": {
          "ctab": {
            "srcChannel": 11,
            "name": "Piano",
            "accType": "CHORD1",
            "editable": true,
            "mutedNotes": [],
            "mutedChords": [],
            "sourceChordNote": 0,
            "sourceChordType": "Maj7",
            "ctb2Main": {
              "ntr": "ROOT_FIXED",
              "ntt": "CHORD",
              "bassOn": false,
              "noteLowLimit": 48,
              "noteHighLimit": 84,
              "chordRootUpperLimit": 127,
              "rtr": "NOTE_GENERATOR"
            }
          },
          "notes": [
            {
              "pitch": 64,
              "velocity": 37,
              "position": 0.041667,
              "duration": 0.958333
            },
            {
              "pitch": 55,
              "velocity": 40,
              "position": 0.908333,
              "duration": 0.375
            },
            {
              "pitch": 59,
              "velocity": 46,
              "position": 0.975,
              "duration": 0.308333
            },
            {
              "pitch": 64,
              "velocity": 46,
              "position": 1.041667,
              "duration": 0.241667
            },
            {
              "pitch": 64,
              "velocity": 23,
              "position": 1.55,
              "duration": 0.408333
            },
            {
              "pitch": 59,
              "velocity": 26,
              "position": 1.6,
              "duration": 0.358333
            },
            {
              "pitch": 55,
              "velocity": 26,
              "position": 1.65,
              "duration": 0.308333
            },
            {
              "pitch": 52,
              "velocity": 23,
              "position": 1.7,
              "duration": 0.258333
            },
            {
              "pitch": 52,
              "velocity": 45,
              "position": 2.016667,
              "duration": 0.991667
            },
            {
              "pitch": 59,
              "velocity": 50,
              "position": 3.591667,
              "duration": 0.366667
            },
            {
              "pitch": 55,
              "velocity": 28,
              "position": 3.916667,
              "duration": 0.975
            },
            {
              "pitch": 59,
              "velocity": 33,
              "position": 3.983333,
              "duration": 0.975
            },
            {
              "pitch": 64,
              "velocity": 33,
              "position": 4.05,
              "duration": 0.958333
            },
            {
              "pitch": 55,
              "velocity": 37,
              "position": 4.908333,
              "duration": 0.641667
            },
            {
              "pitch": 59,
              "velocity": 43,
              "position": 4.975,
              "duration": 0.575
            },
            {
              "pitch": 64,
              "velocity": 43,
              "position": 5.041667,
              "duration": 0.508333
            },
            {
              "pitch": 52,
              "velocity": 38,
              "position": 6.016667,
              "duration": 1.941667
            },
            {
              "pitch": 64,
              "velocity": 48,
              "position": 6.625,
              "duration": 1.208333
            },
            {
              "pitch": 55,
              "velocity": 30,
              "position": 7.008333,
              "duration": 0.883333
            },
            {
              "pitch": 59,
              "velocity": 50,
              "position": 7.608333,
              "duration": 0.35
            },
            {
              "pitch": 55,
              "velocity": 32,
              "position": 7.908333,
              "duration": 0.983333
            },
            {
              "pitch": 59,
              "velocity": 37,
              "position": 7.975,
              "duration": 0.983333
            },
            {
              "pitch": 64,
              "velocity": 37,
              "position": 8.041667,
              "duration": 0.958333
            },
            {
              "pitch": 55,
              "velocity": 40,
              "position": 8.908333,
              "duration": 0.375
            },
            {
              "pitch": 59,
              "velocity": 46,
              "position": 8.975,
              "duration": 0.308333
            },
            {
              "pitch": 64,
              "velocity": 46,
              "position": 9.041667,
              "duration": 0.241667
            },
            {
              "pitch": 64,
              "velocity": 23,
              "position": 9.55,
              "duration": 0.466667
            },
            {
              "pitch": 59,
              "velocity": 26,
              "position": 9.6,
              "duration": 0.35
            },
            {
              "pitch": 55,
              "velocity": 26,
              "position": 9.65,
              "duration": 0.233333
            },
            {
              "pitch": 52,
              "velocity": 23,
              "position": 9.7,
              "duration": 0.391667
            },
            {
              "pitch": 55,
              "velocity": 23,
              "position": 9.9,
              "duration": 0.991667
            },
            {
              "pitch": 59,
              "velocity": 27,
              "position": 9.966667,
              "duration": 1.0
            },
            {
              "pitch": 64,
              "velocity": 27,
              "position": 10.033333,
              "duration": 0.933333
            },
            {
              "pitch": 55,
              "velocity": 40,
              "position": 10.908333,
              "duration": 0.65
            },
            {
              "pitch": 59,
              "velocity": 47,
              "position": 10.975,
              "duration": 0.583333
            },
            {
              "pitch": 64,
              "velocity": 47,
              "position": 11.041667,
              "duration": 0.458333
            },
            {
              "pitch": 64,
              "velocity": 23,
              "position": 11.516667,
              "duration": 0.441667
            },
            {
              "pitch": 59,
              "velocity": 26,
              "position": 11.566667,
              "duration": 0.391667
            },
            {
              "pitch": 55,
              "velocity": 26,
              "position": 11.616667,
              "duration": 0.341667
            },
            {
              "pitch": 52,
              "velocity": 23,
              "position": 11.666667,
              "duration": 0.291667
            },
            {
              "pitch": 52,
              "velocity": 38,
              "position": 12.016667,
              "duration": 3.083333
            },
            {
              "pitch": 64,
              "velocity": 48,
              "position": 12.625,
              "duration": 1.208333
            },
            {
              "pitch": 55,
              "velocity": 30,
              "position": 13.008333,
              "duration": 1.85
            },
            {
              "pitch": 59,
              "velocity": 50,
              "position": 13.608333,
              "duration": 0.783333
            },
            {
              "pitch": 64,
              "velocity": 54,
              "position": 14.008333,
              "duration": 1.45
            },
            {
              "pitch": 59,
              "velocity": 50,
              "position": 14.616667,
              "duration": 0.883333
            },
            {
              "pitch": 55,
              "velocity": 35,
              "position": 15.008333,
              "duration": 0.55
            },
            {
              "pitch": 59,
              "velocity": 38,
              "position": 15.6,
              "duration": 0.358333
            }
          ]
        },
        "12": {
          "ctab": {
            "srcChannel": 12,
            "name": "Guitar",
            "accType": "CHORD2",
            "editable": true,
            "mutedNotes": [],
            "mutedChords": [],
            "sourceChordNote": 0,
            "sourceChordType": "Maj7",
            "ctb2Main": {
              "ntr": "ROOT_FIXED",
              "ntt": "CHORD",
              "bassOn": false,
              "noteLowLimit": 40,
              "noteHighLimit": 76,
              "chordRootUpperLimit": 127,
              "rtr": "NOTE_GENERATOR"
            }
          },
          "notes": [
            {
              "pitch": 55,
              "velocity": 42,
              "position": 0.008333,
              "duration": 0.95
            },
            {
              "pitch": 59,
              "velocity": 42,
              "position": 0.041667,
              "duration": 0.958333
            },
            {
              "pitch": 64,
              "velocity": 42,
              "position": 0.083333,
              "duration": 0.916667
            },
            {
              "pitch": 52,
              "velocity": 56,
              "position": 0.925,
              "duration": 1.033333
            },
            {
              "pitch": 55,
              "velocity": 56,
              "position": 0.975,
              "duration": 0.983333
            },
            {
              "pitch": 59,
              "velocity": 56,
              "position": 1.025,
              "duration": 0.933333
            },
            {
              "pitch": 64,
              "velocity": 56,
              "position": 1.075,
              "duration": 0.883333
            },
            {
              "pitch": 48,
              "velocity": 46,
              "position": 2.025,
              "duration": 0.983333
            },
            {
              "pitch": 55,
              "velocity": 46,
              "position": 3.008333,
              "duration": 0.591667
            },
            {
              "pitch": 60,
              "velocity": 46,
              "position": 3.025,
              "duration": 0.525
            },
            {
              "pitch": 64,
              "velocity": 46,
              "position": 3.041667,
              "duration": 0.55
            },
            {
              "pitch": 64,
              "velocity": 40,
              "position": 3.591667,
              "duration": 0.366667
            },
            {
              "pitch": 60,
              "velocity": 42,
              "position": 3.6,
              "duration": 0.358333
            },
            {
              "pitch": 55,
              "velocity": 46,
              "position": 3.641667,
              "duration": 0.316667
            },
            {
              "pitch": 48,
              "velocity": 46,
              "position": 4.025,
              "duration": 0.983333
            },
            {
              "pitch": 55,
              "velocity": 46,
              "position": 5.008333,
              "duration": 0.591667
            },
            {
              "pitch": 60,
              "velocity": 46,
              "position": 5.025,
              "duration": 0.525
            },
            {
              "pitch": 64,
              "velocity": 46,
              "position": 5.041667,
              "duration": 0.55
            },
            {
              "pitch": 64,
              "velocity": 40,
              "position": 5.591667,
              "duration": 0.366667
            },
            {
              "pitch": 60,
              "velocity": 42,
              "position": 5.6,
              "duration": 0.358333
            },
            {
              "pitch": 55,
              "velocity": 46,
              "position": 5.641667,
              "duration": 0.316667
            },
            {
              "pitch": 48,
              "velocity": 35,
              "position": 5.925,
              "duration": 1.075
            },
            {
              "pitch": 52,
              "velocity": 42,
              "position": 5.966667,
              "duration": 0.941667
            },
            {
              "pitch": 55,
              "velocity": 42,
              "position": 6.008333,
              "duration": 0.95
            },
            {
              "pitch": 59,
              "velocity": 42,
              "position": 6.041667,
              "duration": 0.958333
            },
            {
              "pitch": 64,
              "velocity": 42,
              "position": 6.083333,
              "duration": 0.916667
            },
            {
              "pitch": 52,
              "velocity": 56,
              "position": 6.925,
              "duration": 1.033333
            },
            {
              "pitch": 55,
              "velocity": 56,
              "position": 6.975,
              "duration": 0.983333
            },
            {
              "pitch": 59,
              "velocity": 56,
              "position": 7.025,
              "duration": 0.933333
            },
            {
              "pitch": 64,
              "velocity": 56,
              "position": 7.075,
              "duration": 0.883333
            },
            {
              "pitch": 48,
              "velocity": 46,
              "position": 8.025,
              "duration": 0.983333
            },
            {
              "pitch": 55,
              "velocity": 46,
              "position": 9.008333,
              "duration": 0.591667
            },
            {
              "pitch": 60,
              "velocity": 46,
              "position": 9.025,
              "duration": 0.525
            },
            {
              "pitch": 64,
              "velocity": 46,
              "position": 9.041667,
              "duration": 0.55
            },
            {
              "pitch": 64,
              "velocity": 40,
              "position": 9.591667,
              "duration": 0.991667
            },
            {
              "pitch": 60,
              "velocity": 42,
              "position": 9.6,
              "duration": 0.925
            },
            {
              "pitch": 55,
              "velocity": 46,
              "position": 9.641667,
              "duration": 0.825
            },
            {
              "pitch": 52,
              "velocity": 46,
              "position": 10.025,
              "duration": 0.983333
            },
            {
              "pitch": 55,
              "velocity": 46,
              "position": 11.008333,
              "duration": 0.633333
            },
            {
              "pitch": 60,
              "velocity": 46,
              "position": 11.025,
              "duration": 0.616667
            },
            {
              "pitch": 64,
              "velocity": 46,
              "position": 11.041667,
              "duration": 0.583333
            },
            {
              "pitch": 64,
              "velocity": 38,
              "position": 11.625,
              "duration": 0.333333
            },
            {
              "pitch": 60,
              "velocity": 48,
              "position": 11.641667,
              "duration": 0.316667
            },
            {
              "pitch": 52,
              "velocity": 35,
              "position": 11.925,
              "duration": 0.7
            },
            {
              "pitch": 55,
              "velocity": 35,
              "position": 11.975,
              "duration": 0.633333
            },
            {
              "pitch": 59,
              "velocity": 35,
              "position": 12.025,
              "duration": 0.533333
            },
            {
              "pitch": 64,
              "velocity": 35,
              "position": 12.075,
              "duration": 0.433333
            },
            {
              "pitch": 64,
              "velocity": 21,
              "position": 12.525,
              "duration": 0.475
            },
            {
              "pitch": 59,
              "velocity": 24,
              "position": 12.575,
              "duration": 0.425
            },
            {
              "pitch": 55,
              "velocity": 24,
              "position": 12.625,
              "duration": 0.333333
            },
            {
              "pitch": 52,
              "velocity": 21,
              "position": 12.675,
              "duration": 0.233333
            },
            {
              "pitch": 52,
              "velocity": 57,
              "position": 12.925,
              "duration": 0.25
            },
            {
              "pitch": 55,
              "velocity": 57,
              "position": 12.975,
              "duration": 0.2
            },
            {
              "pitch": 59,
              "velocity": 57,
              "position": 13.025,
              "duration": 0.15
            },
            {
              "pitch": 64,
              "velocity": 57,
              "position": 13.075,
              "duration": 0.1
            },
            {
              "pitch": 52,
              "velocity": 42,
              "position": 13.925,
              "duration": 0.983333
            },
            {
              "pitch": 55,
              "velocity": 42,
              "position": 13.975,
              "duration": 0.983333
            },
            {
              "pitch": 59,
              "velocity": 42,
              "position": 14.025,
              "duration": 0.983333
            },
            {
              "pitch": 64,
              "velocity": 42,
              "position": 14.075,
              "duration": 0.933333
            },
            {
              "pitch": 52,
              "velocity": 49,
              "position": 14.925,
              "duration": 0.608333
            },
            {
              "pitch": 55,
              "velocity": 49,
              "position": 14.975,
              "duration": 0.558333
            },
            {
              "pitch": 59,
              "velocity": 49,
              "position": 15.025,
              "duration": 0.475
            },
            {
              "pitch": 64,
              "velocity": 49,
              "position": 15.075,
              "duration": 0.375
            },
            {
              "pitch": 64,
              "velocity": 30,
              "position": 15.466667,
              "duration": 0.491667
            },
            {
              "pitch": 59,
              "velocity": 34,
              "position": 15.516667,
              "duration": 0.441667
            },
            {
              "pitch": 55,
              "velocity": 34,
              "position": 15.566667,
              "duration": 0.391667
            },
            {
              "pitch": 52,
              "velocity": 30,
              "position": 15.616667,
              "duration": 0.341667
            },
            {
              "pitch": 48,
              "velocity": 41,
              "position": 15.925,
              "duration": 1.075
            },
            {
              "pitch": 52,
              "velocity": 49,
              "position": 15.966667,
              "duration": 0.941667
            }
          ]
        },
        "13": {
          "ctab": {
            "srcChannel": 13,
            "name": "Strings",
            "accType": "PAD",
            "editable": true,
            "mutedNotes": [],
            "mutedChords": [],
            "sourceChordNote": 0,
            "sourceChordType": "Maj7",
            "ctb2Main": {
              "ntr": "ROOT_FIXED",
              "ntt": "MELODY",
              "bassOn": false,
              "noteLowLimit": 36,
              "noteHighLimit": 96,
              "chordRootUpperLimit": 127,
              "rtr": "PITCH_SHIFT"
            }
          },
          "notes": [
            {
              "pitch": 48,
              "velocity": 77,
              "position": 0.0,
              "duration": 1.025
            },
            {
              "pitch": 55,
              "velocity": 77,
              "position": 1.0,
              "duration": 0.233333
            },
            {
              "pitch": 48,
              "velocity": 77,
              "position": 2.008333,
              "duration": 0.616667
            },
            {
              "pitch": 55,
              "velocity": 77,
              "position": 3.008333,
              "duration": 0.233333
            },
            {
              "pitch": 48,
              "velocity": 77,
              "position": 4.008333,
              "duration": 0.616667
            },
            {
              "pitch": 55,
              "velocity": 77,
              "position": 5.008333,
              "duration": 0.233333
            },
            {
              "pitch": 48,
              "velocity": 77,
              "position": 6.008333,
              "duration": 0.4
            },
            {
              "pitch": 55,
              "velocity": 77,
              "position": 7.008333,
              "duration": 0.233333
            },
            {
              "pitch": 48,
              "velocity": 77,
              "position": 8.008333,
              "duration": 0.975
            },
            {
              "pitch": 55,
              "velocity": 77,
              "position": 9.008333,
              "duration": 0.233333
            },
            {
              "pitch": 52,
              "velocity": 77,
              "position": 10.008333,
              "duration": 0.95
            },
            {
              "pitch": 55,
              "velocity": 77,
              "position": 11.008333,
              "duration": 0.233333
            },
            {
              "pitch": 48,
              "velocity": 77,
              "position": 12.0,
              "duration": 1.025
            },
            {
              "pitch": 55,
              "velocity": 77,
              "position": 13.0,
              "duration": 0.233333
            },
            {
              "pitch": 43,
              "velocity": 77,
              "position": 14.0,
              "duration": 1.025
            },
            {
              "pitch": 55,
              "velocity": 77,
              "position": 15.0,
              "duration": 0.233333
            }
          ]
        }
      }
    }
  }
}