{
  "name": "Lynyrd1 Bright Southern Stadium Rock",
  "tempo": 125,
  "timeSignature": "4/4",
  "ticksPerQuarter": 120,
  "sffType": "SFF1",
  "division": "BINARY",
  "channelPrograms": {
    "9": 16,
    "10": 33,
    "11": 0,
    "12": 29,
    "13": 30
  },
  "parts": {
    "Intro_A": {
      "type": "Intro_A",
      "sizeInBeats": 24,
      "channels": {
        "9": {
          "ctab": {
            "srcChannel": 9,
            "name": "Drums",
            "accType": "RHYTHM",
            "editable": false,
            "mutedNotes": [],
            "mutedChords": [],
            "sourceChordNote": 0,
            "sourceChordType": "Maj",
            "ctb2Main": {
              "ntr": "ROOT_FIXED",
              "ntt": "BYPASS",
              "bassOn": false,
              "noteLowLimit": 20,
              "noteHighLimit": 127,
              "chordRootUpperLimit": 127,
              "rtr": "RETRIGGER"
            }
          },
          "notes": [
            {
              "pitch": 37,
              "velocity": 84,
              "position": 0.0,
              "duration": 1.0
            },
            {
              "pitch": 37,
              "velocity": 84,
              "position": 2.0,
              "duration": 1.0
            },
            {
              "pitch": 37,
              "velocity": 64,
              "position": 4.0,
              "duration": 1.0
            },
            {
              "pitch": 37,
              "velocity": 84,
              "position": 5.0,
              "duration": 1.0
            },
            {
              "pitch": 37,
              "velocity": 64,
              "position": 6.0,
              "duration": 1.0
            },
            {
              "pitch": 37,
              "velocity": 84,
              "position": 7.0,
              "duration": 1.0
            },
            {
              "pitch": 42,
              "velocity": 80,
              "position": 8.0,
              "duration": 0.208333
            },
            {
              "pitch": 35,
              "velocity": 80,
              "position": 8.5,
              "duration": 0.208333
            },
            {
              "pitch": 42,
              "velocity": 70,
              "position": 8.5,
              "duration": 0.208333
            },
            {
              "pitch": 35,
              "velocity": 90,
              "position": 9.0,
              "duration": 0.208333
            },
            {
              "pitch": 38,
              "velocity": 90,
              "position": 9.0,
              "duration": 0.208333
            },
            {
              "pitch": 42,
              "velocity": 80,
              "position": 9.0,
              "duration": 0.208333
            },
            {
              "pitch": 42,
              "velocity": 70,
              "position": 9.5,
              "duration": 0.208333
            },
            {
              "pitch": 35,
              "velocity": 90,
              "position": 10.0,
              "duration": 0.208333
            },
            {
              "pitch": 42,
              "velocity": 80,
              "position": 10.0,
              "duration": 0.208333
            },
            {
              "pitch": 35,
              "velocity": 60,
              "position": 10.5,
              "duration": 0.208333
            },
            {
              "pitch": 42,
              "velocity": 70,
              "position": 10.5,
              "duration": 0.208333
            },
            {
              "pitch": 38,
              "velocity": 90,
              "position": 11.0,
              "duration": 0.208333
            },
            {
              "pitch": 42,
              "velocity": 100,
              "position": 11.0,
              "duration": 0.208333
            },
            {
              "pitch": 35,
              "velocity": 80,
              "position": 11.5,
              "duration": 0.208333
            },
            {
              "pitch": 42,
              "velocity": 60,
              "position": 11.5,
              "duration": 0.208333
            },
            {
              "pitch": 52,
              "velocity": 80,
              "position": 11.5,
              "duration": 0.208333
            },
            {
              "pitch": 42,
              "velocity": 80,
              "position": 12.0,
              "duration": 0.208333
            },
            {
              "pitch": 35,
              "velocity": 80,
              "position": 12.5,
              "duration": 0.208333
            },
            {
              "pitch": 42,
              "velocity": 70,
              "position": 12.5,
              "duration": 0.208333
            },
            {
              "pitch": 35,
              "velocity": 90,
              "position": 13.0,
              "duration": 0.208333
            },
            {
              "pitch": 38,
              "velocity": 90,
              "position": 13.0,
              "duration": 0.208333
            },
            {
              "pitch": 42,
              "velocity": 80,
              "position": 13.0,
              "duration": 0.208333
            },
            {
              "pitch": 42,
              "velocity": 70,
              "position": 13.5,
              "duration": 0.208333
            },
            {
              "pitch": 35,
              "velocity": 90,
              "position": 14.0,
              "duration": 0.208333
            },
            {
              "pitch": 42,
              "velocity": 80,
              "position": 14.0,
              "duration": 0.208333
            },
            {
              "pitch": 35,
              "velocity": 60,
              "position": 14.5,
              "duration": 0.208333
            },
            {
              "pitch": 42,
              "velocity": 70,
              "position": 14.5,
              "duration": 0.208333
            },
            {
              "pitch": 38,
              "velocity": 90,
              "position": 15.0,
              "duration": 0.208333
            },
            {
              "pitch": 42,
              "velocity": 100,
              "position": 15.0,
              "duration": 0.208333
            },
            {
              "pitch": 35,
              "velocity": 80,
              "position": 15.5,
              "duration": 0.208333
            },
            {
              "pitch": 42,
              "velocity": 60,
              "position": 15.5,
              "duration": 0.208333
            },
            {
              "pitch": 42,
              "velocity": 115,
              "position": 16.0,
              "duration": 0.208333
            },
            {
              "pitch": 35,
              "velocity": 80,
              "position": 16.5,
              "duration": 0.208333
            },
            {
              "pitch": 42,
              "velocity": 70,
              "position": 16.5,
              "duration": 0.208333
            },
            {
              "pitch": 35,
              "velocity": 90,
              "position": 17.0,
              "duration": 0.208333
            },
            {
              "pitch": 38,
              "velocity": 90,
              "position": 17.0,
              "duration": 0.208333
            },
            {
              "pitch": 42,
              "velocity": 80,
              "position": 17.0,
              "duration": 0.208333
            },
            {
              "pitch": 42,
              "velocity": 90,
              "position": 17.5,
              "duration": 0.208333
            },
            {
              "pitch": 35,
              "velocity": 90,
              "position": 18.0,
              "duration": 0.208333
            },
            {
              "pitch": 42,
              "velocity": 80,
              "position": 18.0,
              "duration": 0.208333
            },
            {
              "pitch": 35,
              "velocity": 60,
              "position": 18.5,
              "duration": 0.208333
            },
            {
              "pitch": 42,
              "velocity": 70,
              "position": 18.5,
              "duration": 0.208333
            },
            {
              "pitch": 38,
              "velocity": 90,
              "position": 19.0,
              "duration": 0.208333
            },
            {
              "pitch": 46,
              "velocity": 115,
              "position": 19.0,
              "duration": 0.208333
            },
            {
              "pitch": 35,
              "velocity": 80,
              "position": 19.5,
              "duration": 0.208333
            },
            {
              "pitch": 42,
              "velocity": 60,
              "position": 19.5,
              "duration": 0.208333
            },
            {
              "pitch": 42,
              "velocity": 90,
              "position": 20.0,
              "duration": 0.208333
            },
            {
              "pitch": 35,
              "velocity": 100,
              "position": 20.5,
              "duration": 0.208333
            },
            {
              "pitch": 42,
              "velocity": 100,
              "position": 20.5,
              "duration": 0.208333
            },
            {
              "pitch": 38,
              "velocity": 70,
              "position": 20.75,
              "duration": 0.125
            },
            {
              "pitch": 38,
              "velocity": 56,
              "position": 20.875,
              "duration": 0.083333
            },
            {
              "pitch": 35,
              "velocity": 80,
              "position": 21.0,
              "duration": 0.208333
            },
            {
              "pitch": 38,
              "velocity": 90,
              "position": 21.0,
              "duration": 0.083333
            },
            {
              "pitch": 42,
              "velocity": 90,
              "position": 21.0,
              "duration": 0.208333
            },
            {
              "pitch": 46,
              "velocity": 80,
              "position": 21.5,
              "duration": 0.208333
            },
            {
              "pitch": 35,
              "velocity": 100,
              "position": 22.0,
              "duration": 0.208333
            },
            {
              "pitch": 46,
              "velocity": 100,
              "position": 22.0,
              "duration": 0.208333
            },
            {
              "pitch": 48,
              "velocity": 100,
              "position": 22.0,
              "duration": 0.208333
            },
            {
              "pitch": 35,
              "velocity": 80,
              "position": 22.5,
              "duration": 0.208333
            },
            {
              "pitch": 46,
              "velocity": 80,
              "position": 22.5,
              "duration": 0.208333
            },
            {
              "pitch": 47,
              "velocity": 100,
              "position": 22.5,
              "duration": 0.208333
            },
            {
              "pitch": 35,
              "velocity": 90,
              "position": 23.0,
              "duration": 0.208333
            },
            {
              "pitch": 45,
              "velocity": 100,
              "position": 23.0,
              "duration": 0.208333
            },
            {
              "pitch": 46,
              "velocity": 100,
              "position": 23.0,
              "duration": 0.208333
            },
            {
              "pitch": 35,
              "velocity": 100,
              "position": 23.5,
              "duration": 0.208333
            },
            {
              "pitch": 38,
              "velocity": 100,
              "position": 23.5,
              "duration": 0.208333
            },
            {
              "pitch": 46,
              "velocity": 115,
              "position": 23.5,
              "duration": 0.208333
            },
            {
              "pitch": 52,
              "velocity": 100,
              "position": 23.5,
              "duration": 0.208333
            },
            {
              "pitch": 57,
              "velocity": 100,
              "position": 23.5,
              "duration": 0.208333
            }
          ]
        },
        "10": {
          "ctab": {
            "srcChannel": 10,
            "name": "Bass",
            "accType": "BASS",
            "editable": true,
            "mutedNotes": [],
            "mutedChords": [],
            "sourceChordNote": 0,
            "sourceChordType": "Maj7",
            "ctb2Main": {
              "ntr": "ROOT_TRANSPOSITION",
              "ntt": "BYPASS",
              "bassOn": true,
              "noteLowLimit": 20,
              "noteHighLimit": 60,
              "chordRootUpperLimit": 127,
              "rtr": "NOTE_GENERATOR"
            }
          },
          "notes": [
            {
              "pitch": 36,
              "velocity": 100,
              "position": 8.0,
              "duration": 0.375
            },
            {
              "pitch": 36,
              "velocity": 105,
              "position": 8.5,
              "duration": 0.3
            },
            {
              "pitch": 31,
              "velocity": 87,
              "position": 9.0,
              "duration": 0.316667
            },
            {
              "pitch": 36,
              "velocity": 111,
              "position": 9.5,
              "duration": 0.85
            },
            {
              "pitch": 36,
              "velocity": 88,
              "position": 10.5,
              "duration": 0.266667
            },
            {
              "pitch": 36,
              "velocity": 111,
              "position": 11.5,
              "duration": 0.858333
            },
            {
              "pitch": 36,
              "velocity": 105,
              "position": 12.5,
              "duration": 0.3
            },
            {
              "pitch": 31,
              "velocity": 87,
              "position": 13.0,
              "duration": 0.316667
            },
            {
              "pitch": 36,
              "velocity": 111,
              "position": 13.5,
              "duration": 0.85
            },
            {
              "pitch": 36,
              "velocity": 88,
              "position": 14.5,
              "duration": 0.266667
            },
            {
              "pitch": 36,
              "velocity": 100,
              "position": 16.0,
              "duration": 0.808333
            },
            {
              "pitch": 36,
              "velocity": 87,
              "position": 17.0,
              "duration": 0.316667
            },
            {
              "pitch": 36,
              "velocity": 101,
              "position": 18.0,
              "duration": 0.4
            },
            {
              "pitch": 36,
              "velocity": 91,
              "position": 18.5,
              "duration": 0.225
            },
            {
              "pitch": 36,
              "velocity": 109,
              "position": 19.5,
              "duration": 0.816667
            },
            {
              "pitch": 36,
              "velocity": 85,
              "position": 20.5,
              "duration": 0.25
            },
            {
              "pitch": 36,
              "velocity": 100,
              "position": 21.0,
              "duration": 0.308333
            },
            {
              "pitch": 36,
              "velocity": 103,
              "position": 22.0,
              "duration": 0.391667
            },
            {
              "pitch": 36,
              "velocity": 103,
              "position": 22.5,
              "duration": 0.275
            },
            {
              "pitch": 36,
              "velocity": 111,
              "position": 23.5,
              "duration": 0.858333
            }
          ]
        },
        "11": {
          "ctab": {
            "srcChannel": 11,
            "name": "Piano",
            "accType": "CHORD1",
            "editable": true,
            "mutedNotes": [],
            "mutedChords": [],
            "sourceChordNote": 0,
            "sourceChordType": "Maj7",
            "ctb2Main": {
              "ntr": "ROOT_FIXED",
              "ntt": "CHORD",
              "bassOn": false,
              "noteLowLimit": 48,
              "noteHighLimit": 84,
              "chordRootUpperLimit": 127,
              "rtr": "NOTE_GENERATOR"
            }
          },
          "notes": [
            {
              "pitch": 48,
              "velocity": 90,
              "position": 8.0,
              "duration": 0.325
            },
            {
              "pitch": 55,
              "velocity": 90,
              "position": 8.0,
              "duration": 0.4
            },
            {
              "pitch": 60,
              "velocity": 89,
              "position": 8.0,
              "duration": 0.641667
            },
            {
              "pitch": 67,
              "velocity": 109,
              "position": 8.0,
              "duration": 0.25
            },
            {
              "pitch": 71,
              "velocity": 110,
              "position": 8.0,
              "duration": 0.25
            },
            {
              "pitch": 67,
              "velocity": 54,
              "position": 8.5,
              "duration": 0.4
            },
            {
              "pitch": 71,
              "velocity": 64,
              "position": 8.5,
              "duration": 0.166667
            },
            {
              "pitch": 48,
              "velocity": 90,
              "position": 9.0,
              "duration": 0.4
            },
            {
              "pitch": 55,
              "velocity": 90,
              "position": 9.0,
              "duration": 0.4
            },
            {
              "pitch": 60,
              "velocity": 71,
              "position": 9.0,
              "duration": 0.233333
            },
            {
              "pitch": 67,
              "velocity": 100,
              "position": 9.0,
              "duration": 0.166667
            },
            {
              "pitch": 71,
              "velocity": 101,
              "position": 9.0,
              "duration": 0.233333
            },
            {
              "pitch": 67,
              "velocity": 71,
              "position": 9.5,
              "duration": 0.141667
            },
            {
              "pitch": 71,
              "velocity": 64,
              "position": 9.5,
              "duration": 0.108333
            },
            {
              "pitch": 48,
              "velocity": 90,
              "position": 10.0,
              "duration": 0.35
            },
            {
              "pitch": 55,
              "velocity": 90,
              "position": 10.0,
              "duration": 0.366667
            },
            {
              "pitch": 60,
              "velocity": 89,
              "position": 10.0,
              "duration": 0.741667
            },
            {
              "pitch": 67,
              "velocity": 109,
              "position": 10.0,
              "duration": 0.4
            },
            {
              "pitch": 71,
              "velocity": 110,
              "position": 10.0,
              "duration": 0.375
            },
            {
              "pitch": 48,
              "velocity": 44,
              "position": 10.5,
              "duration": 0.241667
            },
            {
              "pitch": 55,
              "velocity": 81,
              "position": 10.5,
              "duration": 0.216667
            },
            {
              "pitch": 67,
              "velocity": 100,
              "position": 10.5,
              "duration": 0.4
            },
            {
              "pitch": 71,
              "velocity": 54,
              "position": 10.5,
              "duration": 0.25
            },
            {
              "pitch": 48,
              "velocity": 90,
              "position": 11.5,
              "duration": 1.008333
            },
            {
              "pitch": 55,
              "velocity": 90,
              "position": 11.5,
              "duration": 1.033333
            },
            {
              "pitch": 60,
              "velocity": 89,
              "position": 11.5,
              "duration": 0.858333
            },
            {
              "pitch": 64,
              "velocity": 109,
              "position": 11.5,
              "duration": 0.733333
            },
            {
              "pitch": 71,
              "velocity": 110,
              "position": 11.5,
              "duration": 0.733333
            },
            {
              "pitch": 60,
              "velocity": 54,
              "position": 12.5,
              "duration": 0.25
            },
            {
              "pitch": 48,
              "velocity": 90,
              "position": 13.0,
              "duration": 0.4
            },
            {
              "pitch": 55,
              "velocity": 90,
              "position": 13.0,
              "duration": 0.4
            },
            {
              "pitch": 60,
              "velocity": 71,
              "position": 13.0,
              "duration": 0.35
            },
            {
              "pitch": 64,
              "velocity": 100,
              "position": 13.0,
              "duration": 0.4
            },
            {
              "pitch": 71,
              "velocity": 101,
              "position": 13.0,
              "duration": 0.4
            },
            {
              "pitch": 60,
              "velocity": 71,
              "position": 13.5,
              "duration": 0.291667
            },
            {
              "pitch": 48,
              "velocity": 90,
              "position": 14.0,
              "duration": 0.4
            },
            {
              "pitch": 55,
              "velocity": 90,
              "position": 14.0,
              "duration": 0.4
            },
            {
              "pitch": 60,
              "velocity": 89,
              "position": 14.0,
              "duration": 0.4
            },
            {
              "pitch": 64,
              "velocity": 109,
              "position": 14.0,
              "duration": 0.4
            },
            {
              "pitch": 71,
              "velocity": 110,
              "position": 14.0,
              "duration": 0.4
            },
            {
              "pitch": 48,
              "velocity": 44,
              "position": 14.5,
              "duration": 0.241667
            },
            {
              "pitch": 55,
              "velocity": 81,
              "position": 14.5,
              "duration": 0.216667
            },
            {
              "pitch": 60,
              "velocity": 59,
              "position": 14.5,
              "duration": 0.3
            },
            {
              "pitch": 64,
              "velocity": 100,
              "position": 14.5,
              "duration": 0.275
            },
            {
              "pitch": 71,
              "velocity": 54,
              "position": 14.5,
              "duration": 0.25
            },
            {
              "pitch": 48,
              "velocity": 95,
              "position": 16.0,
              "duration": 2.458333
            },
            {
              "pitch": 60,
              "velocity": 92,
              "position": 16.0,
              "duration": 0.291667
            },
            {
              "pitch": 67,
              "velocity": 101,
              "position": 16.0,
              "duration": 0.458333
            },
            {
              "pitch": 74,
              "velocity": 101,
              "position": 16.0,
              "duration": 0.5
            },
            {
              "pitch": 71,
              "velocity": 59,
              "position": 16.5,
              "duration": 0.166667
            },
            {
              "pitch": 60,
              "velocity": 84,
              "position": 17.0,
              "duration": 0.541667
            },
            {
              "pitch": 67,
              "velocity": 93,
              "position": 17.0,
              "duration": 0.416667
            },
            {
              "pitch": 74,
              "velocity": 101,
              "position": 17.0,
              "duration": 0.483333
            },
            {
              "pitch": 71,
              "velocity": 61,
              "position": 17.5,
              "duration": 0.191667
            },
            {
              "pitch": 67,
              "velocity": 93,
              "position": 18.0,
              "duration": 0.191667
            },
            {
              "pitch": 74,
              "velocity": 92,
              "position": 18.0,
              "duration": 0.191667
            },
            {
              "pitch": 67,
              "velocity": 106,
              "position": 18.5,
              "duration": 0.166667
            },
            {
              "pitch": 74,
              "velocity": 106,
              "position": 18.5,
              "duration": 0.275
            },
            {
              "pitch": 60,
              "velocity": 95,
              "position": 19.0,
              "duration": 2.25
            },
            {
              "pitch": 74,
              "velocity": 95,
              "position": 19.5,
              "duration": 0.291667
            },
            {
              "pitch": 79,
              "velocity": 103,
              "position": 19.5,
              "duration": 0.291667
            },
            {
              "pitch": 86,
              "velocity": 103,
              "position": 19.5,
              "duration": 0.275
            },
            {
              "pitch": 48,
              "velocity": 79,
              "position": 20.0,
              "duration": 1.375
            },
            {
              "pitch": 74,
              "velocity": 78,
              "position": 20.0,
              "duration": 0.15
            },
            {
              "pitch": 79,
              "velocity": 69,
              "position": 20.0,
              "duration": 0.15
            },
            {
              "pitch": 83,
              "velocity": 63,
              "position": 20.0,
              "duration": 0.183333
            },
            {
              "pitch": 86,
              "velocity": 74,
              "position": 20.0,
              "duration": 0.183333
            },
            {
              "pitch": 74,
              "velocity": 95,
              "position": 20.5,
              "duration": 0.15
            },
            {
              "pitch": 79,
              "velocity": 82,
              "position": 20.5,
              "duration": 0.15
            },
            {
              "pitch": 83,
              "velocity": 76,
              "position": 20.5,
              "duration": 0.183333
            },
            {
              "pitch": 86,
              "velocity": 87,
              "position": 20.5,
              "duration": 0.183333
            },
            {
              "pitch": 74,
              "velocity": 101,
              "position": 21.0,
              "duration": 0.141667
            },
            {
              "pitch": 79,
              "velocity": 90,
              "position": 21.0,
              "duration": 0.166667
            },
            {
              "pitch": 83,
              "velocity": 87,
              "position": 21.0,
              "duration": 0.208333
            },
            {
              "pitch": 86,
              "velocity": 95,
              "position": 21.0,
              "duration": 0.208333
            },
            {
              "pitch": 74,
              "velocity": 80,
              "position": 21.5,
              "duration": 0.166667
            },
            {
              "pitch": 79,
              "velocity": 74,
              "position": 21.5,
              "duration": 0.166667
            },
            {
              "pitch": 83,
              "velocity": 76,
              "position": 21.5,
              "duration": 0.208333
            },
            {
              "pitch": 86,
              "velocity": 78,
              "position": 21.5,
              "duration": 0.183333
            },
            {
              "pitch": 48,
              "velocity": 84,
              "position": 22.0,
              "duration": 0.791667
            },
            {
              "pitch": 74,
              "velocity": 96,
              "position": 22.0,
              "duration": 0.15
            },
            {
              "pitch": 79,
              "velocity": 90,
              "position": 22.0,
              "duration": 0.15
            },
            {
              "pitch": 83,
              "velocity": 82,
              "position": 22.0,
              "duration": 0.233333
            },
            {
              "pitch": 86,
              "velocity": 93,
              "position": 22.0,
              "duration": 0.208333
            },
            {
              "pitch": 74,
              "velocity": 104,
              "position": 22.5,
              "duration": 0.233333
            },
            {
              "pitch": 79,
              "velocity": 89,
              "position": 22.5,
              "duration": 0.191667
            },
            {
              "pitch": 83,
              "velocity": 87,
              "position": 22.5,
              "duration": 0.266667
            },
            {
              "pitch": 86,
              "velocity": 100,
              "position": 22.5,
              "duration": 0.291667
            },
            {
              "pitch": 48,
              "velocity": 90,
              "position": 23.5,
              "duration": 0.9
            },
            {
              "pitch": 55,
              "velocity": 90,
              "position": 23.5,
              "duration": 0.958333
            },
            {
              "pitch": 60,
              "velocity": 89,
              "position": 23.5,
              "duration": 1.125
            },
            {
              "pitch": 67,
              "velocity": 109,
              "position": 23.5,
              "duration": 0.733333
            },
            {
              "pitch": 71,
              "velocity": 110,
              "position": 23.5,
              "duration": 0.733333
            }
          ]
        },
        "12": {
          "ctab": {
            "srcChannel": 12,
            "name": "Guitar",
            "accType": "CHORD2",
            "editable": true,
            "mutedNotes": [],
            "mutedChords": [],
            "sourceChordNote": 0,
            "sourceChordType": "Maj7",
            "ctb2Main": {
              "ntr": "ROOT_FIXED",
              "ntt": "CHORD",
              "bassOn": false,
              "noteLowLimit": 40,
              "noteHighLimit": 76,
              "chordRootUpperLimit": 127,
              "rtr": "NOTE_GENERATOR"
            }
          },
          "notes": [
            {
              "pitch": 48,
              "velocity": 72,
              "position": 8.0,
              "duration": 0.841667
            },
            {
              "pitch": 55,
              "velocity": 72,
              "position": 8.0,
              "duration": 0.808333
            },
            {
              "pitch": 48,
              "velocity": 64,
              "position": 9.0,
              "duration": 0.266667
            },
            {
              "pitch": 55,
              "velocity": 74,
              "position": 9.0,
              "duration": 0.25
            },
            {
              "pitch": 48,
              "velocity": 80,
              "position": 10.0,
              "duration": 0.375
            },
            {
              "pitch": 55,
              "velocity": 80,
              "position": 10.0,
              "duration": 0.4
            },
            {
              "pitch": 48,
              "velocity": 69,
              "position": 10.5,
              "duration": 0.275
            },
            {
              "pitch": 55,
              "velocity": 52,
              "position": 10.5,
              "duration": 0.25
            },
            {
              "pitch": 48,
              "velocity": 88,
              "position": 11.5,
              "duration": 0.858333
            },
            {
              "pitch": 48,
              "velocity": 55,
              "position": 12.5,
              "duration": 0.275
            },
            {
              "pitch": 48,
              "velocity": 69,
              "position": 13.0,
              "duration": 0.266667
            },
            {
              "pitch": 55,
              "velocity": 79,
              "position": 13.0,
              "duration": 0.25
            },
            {
              "pitch": 48,
              "velocity": 80,
              "position": 14.0,
              "duration": 0.375
            },
            {
              "pitch": 55,
              "velocity": 80,
              "position": 14.0,
              "duration": 0.4
            },
            {
              "pitch": 48,
              "velocity": 69,
              "position": 14.5,
              "duration": 0.275
            },
            {
              "pitch": 55,
              "velocity": 52,
              "position": 14.5,
              "duration": 0.25
            },
            {
              "pitch": 48,
              "velocity": 84,
              "position": 15.5,
              "duration": 0.858333
            },
            {
              "pitch": 55,
              "velocity": 84,
              "position": 15.5,
              "duration": 0.85
            },
            {
              "pitch": 48,
              "velocity": 51,
              "position": 16.5,
              "duration": 0.275
            },
            {
              "pitch": 55,
              "velocity": 60,
              "position": 16.5,
              "duration": 0.25
            },
            {
              "pitch": 48,
              "velocity": 65,
              "position": 17.0,
              "duration": 0.216667
            },
            {
              "pitch": 55,
              "velocity": 75,
              "position": 17.0,
              "duration": 0.25
            },
            {
              "pitch": 48,
              "velocity": 76,
              "position": 17.5,
              "duration": 0.225
            },
            {
              "pitch": 55,
              "velocity": 54,
              "position": 17.5,
              "duration": 0.25
            },
            {
              "pitch": 48,
              "velocity": 69,
              "position": 18.0,
              "duration": 0.333333
            },
            {
              "pitch": 55,
              "velocity": 70,
              "position": 18.0,
              "duration": 0.375
            },
            {
              "pitch": 48,
              "velocity": 59,
              "position": 18.5,
              "duration": 0.233333
            },
            {
              "pitch": 55,
              "velocity": 67,
              "position": 18.5,
              "duration": 0.166667
            },
            {
              "pitch": 48,
              "velocity": 83,
              "position": 19.5,
              "duration": 0.875
            },
            {
              "pitch": 55,
              "velocity": 87,
              "position": 19.5,
              "duration": 0.875
            },
            {
              "pitch": 48,
              "velocity": 64,
              "position": 20.5,
              "duration": 0.25
            },
            {
              "pitch": 55,
              "velocity": 75,
              "position": 20.5,
              "duration": 0.233333
            },
            {
              "pitch": 48,
              "velocity": 79,
              "position": 21.0,
              "duration": 0.333333
            },
            {
              "pitch": 55,
              "velocity": 86,
              "position": 21.0,
              "duration": 0.291667
            },
            {
              "pitch": 48,
              "velocity": 77,
              "position": 22.0,
              "duration": 0.375
            },
            {
              "pitch": 55,
              "velocity": 82,
              "position": 22.0,
              "duration": 0.391667
            },
            {
              "pitch": 48,
              "velocity": 65,
              "position": 22.5,
              "duration": 0.225
            },
            {
              "pitch": 55,
              "velocity": 71,
              "position": 22.5,
              "duration": 0.225
            },
            {
              "pitch": 48,
              "velocity": 94,
              "position": 23.5,
              "duration": 0.858333
            },
            {
              "pitch": 55,
              "velocity": 94,
              "position": 23.5,
              "duration": 0.85
            }
          ]
        },
        "13": {
          "ctab": {
            "srcChannel": 13,
            "name": "Strings",
            "accType": "PAD",
            "editable": true,
            "mutedNotes": [],
            "mutedChords": [],
            "sourceChordNote": 0,
            "sourceChordType": "Maj7",
            "ctb2Main": {
              "ntr": "ROOT_FIXED",
              "ntt": "MELODY",
              "bassOn": false,
              "noteLowLimit": 36,
              "noteHighLimit": 96,
              "chordRootUpperLimit": 127,
              "rtr": "PITCH_SHIFT"
            }
          },
          "notes": [
            {
              "pitch": 48,
              "velocity": 83,
              "position": 8.0,
              "duration": 0.3
            },
            {
              "pitch": 55,
              "velocity": 89,
              "position": 8.0,
              "duration": 0.341667
            },
            {
              "pitch": 60,
              "velocity": 83,
              "position": 8.0,
              "duration": 0.366667
            },
            {
              "pitch": 48,
              "velocity": 59,
              "position": 8.491667,
              "duration": 0.208333
            },
            {
              "pitch": 55,
              "velocity": 53,
              "position": 8.55,
              "duration": 0.208333
            },
            {
              "pitch": 60,
              "velocity": 47,
              "position": 8.55,
              "duration": 0.25
            },
            {
              "pitch": 48,
              "velocity": 81,
              "position": 9.033333,
              "duration": 0.35
            },
            {
              "pitch": 55,
              "velocity": 79,
              "position": 9.033333,
              "duration": 0.416667
            },
            {
              "pitch": 60,
              "velocity": 64,
              "position": 9.033333,
              "duration": 0.458333
            },
            {
              "pitch": 48,
              "velocity": 82,
              "position": 10.0,
              "duration": 0.3
            },
            {
              "pitch": 55,
              "velocity": 88,
              "position": 10.0,
              "duration": 0.341667
            },
            {
              "pitch": 60,
              "velocity": 82,
              "position": 10.0,
              "duration": 0.366667
            },
            {
              "pitch": 48,
              "velocity": 58,
              "position": 10.5,
              "duration": 0.4
            },
            {
              "pitch": 55,
              "velocity": 52,
              "position": 10.5,
              "duration": 0.208333
            },
            {
              "pitch": 60,
              "velocity": 46,
              "position": 10.5,
              "duration": 0.4
            },
            {
              "pitch": 48,
              "velocity": 80,
              "position": 11.0,
              "duration": 0.35
            },
            {
              "pitch": 55,
              "velocity": 78,
              "position": 11.0,
              "duration": 0.416667
            },
            {
              "pitch": 48,
              "velocity": 95,
              "position": 11.5,
              "duration": 0.783333
            },
            {
              "pitch": 55,
              "velocity": 101,
              "position": 11.5,
              "duration": 0.825
            },
            {
              "pitch": 48,
              "velocity": 60,
              "position": 12.5,
              "duration": 0.208333
            },
            {
              "pitch": 55,
              "velocity": 54,
              "position": 12.5,
              "duration": 0.208333
            },
            {
              "pitch": 60,
              "velocity": 48,
              "position": 12.5,
              "duration": 0.25
            },
            {
              "pitch": 48,
              "velocity": 82,
              "position": 13.0,
              "duration": 0.35
            },
            {
              "pitch": 55,
              "velocity": 80,
              "position": 13.0,
              "duration": 0.416667
            },
            {
              "pitch": 60,
              "velocity": 65,
              "position": 13.0,
              "duration": 0.458333
            },
            {
              "pitch": 48,
              "velocity": 82,
              "position": 14.0,
              "duration": 0.3
            },
            {
              "pitch": 55,
              "velocity": 88,
              "position": 14.0,
              "duration": 0.341667
            },
            {
              "pitch": 60,
              "velocity": 82,
              "position": 14.0,
              "duration": 0.366667
            },
            {
              "pitch": 48,
              "velocity": 58,
              "position": 14.5,
              "duration": 0.4
            },
            {
              "pitch": 55,
              "velocity": 52,
              "position": 14.5,
              "duration": 0.208333
            },
            {
              "pitch": 60,
              "velocity": 46,
              "position": 14.5,
              "duration": 0.4
            },
            {
              "pitch": 48,
              "velocity": 80,
              "position": 15.0,
              "duration": 0.35
            },
            {
              "pitch": 55,
              "velocity": 78,
              "position": 15.0,
              "duration": 0.416667
            },
            {
              "pitch": 48,
              "velocity": 90,
              "position": 15.5,
              "duration": 0.783333
            },
            {
              "pitch": 55,
              "velocity": 96,
              "position": 15.5,
              "duration": 0.825
            },
            {
              "pitch": 60,
              "velocity": 90,
              "position": 15.5,
              "duration": 0.85
            },
            {
              "pitch": 48,
              "velocity": 55,
              "position": 16.491667,
              "duration": 0.208333
            },
            {
              "pitch": 55,
              "velocity": 49,
              "position": 16.55,
              "duration": 0.208333
            },
            {
              "pitch": 60,
              "velocity": 43,
              "position": 16.55,
              "duration": 0.25
            },
            {
              "pitch": 48,
              "velocity": 77,
              "position": 17.033333,
              "duration": 0.35
            },
            {
              "pitch": 55,
              "velocity": 75,
              "position": 17.033333,
              "duration": 0.416667
            },
            {
              "pitch": 60,
              "velocity": 60,
              "position": 17.033333,
              "duration": 0.458333
            },
            {
              "pitch": 60,
              "velocity": 67,
              "position": 17.991667,
              "duration": 0.375
            },
            {
              "pitch": 48,
              "velocity": 76,
              "position": 18.008333,
              "duration": 0.316667
            },
            {
              "pitch": 55,
              "velocity": 73,
              "position": 18.008333,
              "duration": 0.333333
            },
            {
              "pitch": 48,
              "velocity": 72,
              "position": 18.533333,
              "duration": 0.208333
            },
            {
              "pitch": 60,
              "velocity": 48,
              "position": 18.533333,
              "duration": 0.308333
            },
            {
              "pitch": 55,
              "velocity": 57,
              "position": 18.55,
              "duration": 0.208333
            },
            {
              "pitch": 60,
              "velocity": 77,
              "position": 19.508333,
              "duration": 0.833333
            },
            {
              "pitch": 48,
              "velocity": 82,
              "position": 19.533333,
              "duration": 0.766667
            },
            {
              "pitch": 55,
              "velocity": 80,
              "position": 19.533333,
              "duration": 0.791667
            },
            {
              "pitch": 48,
              "velocity": 67,
              "position": 20.508333,
              "duration": 0.191667
            },
            {
              "pitch": 55,
              "velocity": 61,
              "position": 20.533333,
              "duration": 0.166667
            },
            {
              "pitch": 60,
              "velocity": 50,
              "position": 20.533333,
              "duration": 0.225
            },
            {
              "pitch": 55,
              "velocity": 80,
              "position": 21.008333,
              "duration": 0.358333
            },
            {
              "pitch": 60,
              "velocity": 73,
              "position": 21.008333,
              "duration": 0.375
            },
            {
              "pitch": 48,
              "velocity": 84,
              "position": 21.033333,
              "duration": 0.308333
            },
            {
              "pitch": 60,
              "velocity": 74,
              "position": 21.966667,
              "duration": 0.458333
            },
            {
              "pitch": 48,
              "velocity": 81,
              "position": 21.991667,
              "duration": 0.35
            },
            {
              "pitch": 55,
              "velocity": 79,
              "position": 21.991667,
              "duration": 0.416667
            },
            {
              "pitch": 48,
              "velocity": 81,
              "position": 22.55,
              "duration": 0.25
            },
            {
              "pitch": 55,
              "velocity": 72,
              "position": 22.55,
              "duration": 0.275
            },
            {
              "pitch": 60,
              "velocity": 74,
              "position": 22.55,
              "duration": 0.316667
            },
            {
              "pitch": 48,
              "velocity": 85,
              "position": 23.5,
              "duration": 0.783333
            },
            {
              "pitch": 55,
              "velocity": 91,
              "position": 23.5,
              "duration": 0.825
            },
            {
              "pitch": 60,
              "velocity": 85,
              "position": 23.5,
              "duration": 0.85
            }
          ]
        }
      }
    },
    "Main_A": {
      "type": "Main_A",
      "sizeInBeats": 16,
      "channels": {
        "9": {
          "ctab": {
            "srcChannel": 9,
            "name": "Drums",
            "accType": "RHYTHM",
            "editable": false,
            "mutedNotes": [],
            "mutedChords": [],
            "sourceChordNote": 0,
            "sourceChordType": "Maj",
            "ctb2Main": {
              "ntr": "ROOT_FIXED",
              "ntt": "BYPASS",
              "bassOn": false,
              "noteLowLimit": 20,
              "noteHighLimit": 127,
              "chordRootUpperLimit": 127,
              "rtr": "RETRIGGER"
            }
          },
          "notes": [
            {
              "pitch": 42,
              "velocity": 98,
              "position": 0.0,
              "duration": 0.208333
            },
            {
              "pitch": 35,
              "velocity": 118,
              "position": 0.5,
              "duration": 0.208333
            },
            {
              "pitch": 38,
              "velocity": 108,
              "position": 0.5,
              "duration": 0.208333
            },
            {
              "pitch": 42,
              "velocity": 88,
              "position": 0.5,
              "duration": 0.208333
            },
            {
              "pitch": 52,
              "velocity": 98,
              "position": 0.5,
              "duration": 0.208333
            },
            {
              "pitch": 35,
              "velocity": 108,
              "position": 1.0,
              "duration": 0.208333
            },
            {
              "pitch": 38,
              "velocity": 108,
              "position": 1.0,
              "duration": 0.208333
            },
            {
              "pitch": 42,
              "velocity": 98,
              "position": 1.0,
              "duration": 0.208333
            },
            {
              "pitch": 52,
              "velocity": 108,
              "position": 1.0,
              "duration": 0.208333
            },
            {
              "pitch": 42,
              "velocity": 88,
              "position": 1.5,
              "duration": 0.208333
            },
            {
              "pitch": 35,
              "velocity": 108,
              "position": 2.0,
              "duration": 0.208333
            },
            {
              "pitch": 42,
              "velocity": 98,
              "position": 2.0,
              "duration": 0.208333
            },
            {
              "pitch": 35,
              "velocity": 78,
              "position": 2.5,
              "duration": 0.208333
            },
            {
              "pitch": 42,
              "velocity": 88,
              "position": 2.5,
              "duration": 0.208333
            },
            {
              "pitch": 38,
              "velocity": 108,
              "position": 3.0,
              "duration": 0.208333
            },
            {
              "pitch": 42,
              "velocity": 118,
              "position": 3.0,
              "duration": 0.208333
            },
            {
              "pitch": 35,
              "velocity": 98,
              "position": 3.5,
              "duration": 0.208333
            },
            {
              "pitch": 42,
              "velocity": 78,
              "position": 3.5,
              "duration": 0.208333
            },
            {
              "pitch": 42,
              "velocity": 112,
              "position": 4.0,
              "duration": 0.208333
            },
            {
              "pitch": 56,
              "velocity": 92,
              "position": 4.0,
              "duration": 0.208333
            },
            {
              "pitch": 35,
              "velocity": 102,
              "position": 4.5,
              "duration": 0.208333
            },
            {
              "pitch": 42,
              "velocity": 92,
              "position": 4.5,
              "duration": 0.208333
            },
            {
              "pitch": 35,
              "velocity": 112,
              "position": 5.0,
              "duration": 0.208333
            },
            {
              "pitch": 38,
              "velocity": 112,
              "position": 5.0,
              "duration": 0.208333
            },
            {
              "pitch": 42,
              "velocity": 102,
              "position": 5.0,
              "duration": 0.208333
            },
            {
              "pitch": 56,
              "velocity": 92,
              "position": 5.0,
              "duration": 0.208333
            },
            {
              "pitch": 42,
              "velocity": 92,
              "position": 5.5,
              "duration": 0.208333
            },
            {
              "pitch": 35,
              "velocity": 112,
              "position": 6.0,
              "duration": 0.208333
            },
            {
              "pitch": 42,
              "velocity": 102,
              "position": 6.0,
              "duration": 0.208333
            },
            {
              "pitch": 56,
              "velocity": 92,
              "position": 6.0,
              "duration": 0.208333
            },
            {
              "pitch": 35,
              "velocity": 82,
              "position": 6.5,
              "duration": 0.208333
            },
            {
              "pitch": 42,
              "velocity": 92,
              "position": 6.5,
              "duration": 0.208333
            },
            {
              "pitch": 38,
              "velocity": 112,
              "position": 7.0,
              "duration": 0.208333
            },
            {
              "pitch": 42,
              "velocity": 122,
              "position": 7.0,
              "duration": 0.208333
            },
            {
              "pitch": 56,
              "velocity": 92,
              "position": 7.0,
              "duration": 0.208333
            },
            {
              "pitch": 35,
              "velocity": 102,
              "position": 7.5,
              "duration": 0.208333
            },
            {
              "pitch": 42,
              "velocity": 82,
              "position": 7.5,
              "duration": 0.208333
            },
            {
              "pitch": 42,
              "velocity": 102,
              "position": 8.0,
              "duration": 0.208333
            },
            {
              "pitch": 56,
              "velocity": 92,
              "position": 8.0,
              "duration": 0.208333
            },
            {
              "pitch": 35,
              "velocity": 102,
              "position": 8.5,
              "duration": 0.208333
            },
            {
              "pitch": 42,
              "velocity": 92,
              "position": 8.5,
              "duration": 0.208333
            },
            {
              "pitch": 35,
              "velocity": 112,
              "position": 9.0,
              "duration": 0.208333
            },
            {
              "pitch": 38,
              "velocity": 112,
              "position": 9.0,
              "duration": 0.208333
            },
            {
              "pitch": 42,
              "velocity": 102,
              "position": 9.0,
              "duration": 0.208333
            },
            {
              "pitch": 56,
              "velocity": 92,
              "position": 9.0,
              "duration": 0.208333
            },
            {
              "pitch": 42,
              "velocity": 92,
              "position": 9.5,
              "duration": 0.208333
            },
            {
              "pitch": 35,
              "velocity": 112,
              "position": 10.0,
              "duration": 0.208333
            },
            {
              "pitch": 42,
              "velocity": 102,
              "position": 10.0,
              "duration": 0.208333
            },
            {
              "pitch": 56,
              "velocity": 92,
              "position": 10.0,
              "duration": 0.208333
            },
            {
              "pitch": 35,
              "velocity": 82,
              "position": 10.5,
              "duration": 0.208333
            },
            {
              "pitch": 42,
              "velocity": 92,
              "position": 10.5,
              "duration": 0.208333
            },
            {
              "pitch": 38,
              "velocity": 112,
              "position": 11.0,
              "duration": 0.208333
            },
            {
              "pitch": 42,
              "velocity": 122,
              "position": 11.0,
              "duration": 0.208333
            },
            {
              "pitch": 56,
              "velocity": 92,
              "position": 11.0,
              "duration": 0.208333
            },
            {
              "pitch": 35,
              "velocity": 102,
              "position": 11.5,
              "duration": 0.208333
            },
            {
              "pitch": 42,
              "velocity": 82,
              "position": 11.5,
              "duration": 0.208333
            },
            {
              "pitch": 52,
              "velocity": 102,
              "position": 11.5,
              "duration": 0.208333
            },
            {
              "pitch": 42,
              "velocity": 99,
              "position": 12.0,
              "duration": 0.208333
            },
            {
              "pitch": 56,
              "velocity": 89,
              "position": 12.0,
              "duration": 0.208333
            },
            {
              "pitch": 35,
              "velocity": 109,
              "position": 12.5,
              "duration": 0.208333
            },
            {
              "pitch": 42,
              "velocity": 109,
              "position": 12.5,
              "duration": 0.208333
            },
            {
              "pitch": 38,
              "velocity": 79,
              "position": 12.75,
              "duration": 0.125
            },
            {
              "pitch": 38,
              "velocity": 63,
              "position": 12.875,
              "duration": 0.083333
            },
            {
              "pitch": 35,
              "velocity": 89,
              "position": 13.0,
              "duration": 0.208333
            },
            {
              "pitch": 38,
              "velocity": 99,
              "position": 13.0,
              "duration": 0.083333
            },
            {
              "pitch": 42,
              "velocity": 99,
              "position": 13.0,
              "duration": 0.208333
            },
            {
              "pitch": 56,
              "velocity": 89,
              "position": 13.0,
              "duration": 0.208333
            },
            {
              "pitch": 46,
              "velocity": 89,
              "position": 13.5,
              "duration": 0.208333
            },
            {
              "pitch": 35,
              "velocity": 109,
              "position": 14.0,
              "duration": 0.208333
            },
            {
              "pitch": 46,
              "velocity": 109,
              "position": 14.0,
              "duration": 0.208333
            },
            {
              "pitch": 48,
              "velocity": 109,
              "position": 14.0,
              "duration": 0.208333
            },
            {
              "pitch": 56,
              "velocity": 89,
              "position": 14.0,
              "duration": 0.208333
            },
            {
              "pitch": 35,
              "velocity": 89,
              "position": 14.5,
              "duration": 0.208333
            },
            {
              "pitch": 46,
              "velocity": 89,
              "position": 14.5,
              "duration": 0.208333
            },
            {
              "pitch": 47,
              "velocity": 109,
              "position": 14.5,
              "duration": 0.208333
            },
            {
              "pitch": 56,
              "velocity": 79,
              "position": 14.5,
              "duration": 0.208333
            },
            {
              "pitch": 35,
              "velocity": 99,
              "position": 15.0,
              "duration": 0.208333
            },
            {
              "pitch": 45,
              "velocity": 109,
              "position": 15.0,
              "duration": 0.208333
            },
            {
              "pitch": 46,
              "velocity": 109,
              "position": 15.0,
              "duration": 0.208333
            },
            {
              "pitch": 56,
              "velocity": 89,
              "position": 15.0,
              "duration": 0.208333
            },
            {
              "pitch": 35,
              "velocity": 109,
              "position": 15.5,
              "duration": 0.208333
            },
            {
              "pitch": 38,
              "velocity": 109,
              "position": 15.5,
              "duration": 0.208333
            },
            {
              "pitch": 46,
              "velocity": 124,
              "position": 15.5,
              "duration": 0.208333
            },
            {
              "pitch": 52,
              "velocity": 109,
              "position": 15.5,
              "duration": 0.208333
            },
            {
              "pitch": 57,
              "velocity": 109,
              "position": 15.5,
              "duration": 0.208333
            }
          ]
        },
        "10": {
          "ctab": {
            "srcChannel": 10,
            "name": "Bass",
            "accType": "BASS",
            "editable": true,
            "mutedNotes": [],
            "mutedChords": [],
            "sourceChordNote": 0,
            "sourceChordType": "Maj7",
            "ctb2Main": {
              "ntr": "ROOT_TRANSPOSITION",
              "ntt": "BYPASS",
              "bassOn": true,
              "noteLowLimit": 20,
              "noteHighLimit": 60,
              "chordRootUpperLimit": 127,
              "rtr": "NOTE_GENERATOR"
            }
          },
          "notes": [
            {
              "pitch": 36,
              "velocity": 105,
              "position": 0.5,
              "duration": 0.3
            },
            {
              "pitch": 31,
              "velocity": 87,
              "position": 1.0,
              "duration": 0.316667
            },
            {
              "pitch": 36,
              "velocity": 111,
              "position": 1.5,
              "duration": 0.85
            },
            {
              "pitch": 36,
              "velocity": 88,
              "position": 2.5,
              "duration": 0.266667
            },
            {
              "pitch": 36,
              "velocity": 111,
              "position": 3.5,
              "duration": 0.858333
            },
            {
              "pitch": 36,
              "velocity": 105,
              "position": 4.5,
              "duration": 0.3
            },
            {
              "pitch": 31,
              "velocity": 87,
              "position": 5.0,
              "duration": 0.316667
            },
            {
              "pitch": 36,
              "velocity": 111,
              "position": 5.5,
              "duration": 0.85
            },
            {
              "pitch": 36,
              "velocity": 88,
              "position": 6.5,
              "duration": 0.266667
            },
            {
              "pitch": 36,
              "velocity": 111,
              "position": 7.5,
              "duration": 0.825
            },
            {
              "pitch": 36,
              "velocity": 106,
              "position": 8.5,
              "duration": 0.266667
            },
            {
              "pitch": 36,
              "velocity": 87,
              "position": 9.0,
              "duration": 0.316667
            },
            {
              "pitch": 36,
              "velocity": 101,
              "position": 10.0,
              "duration": 0.4
            },
            {
              "pitch": 36,
              "velocity": 91,
              "position": 10.5,
              "duration": 0.225
            },
            {
              "pitch": 36,
              "velocity": 109,
              "position": 11.5,
              "duration": 0.816667
            },
            {
              "pitch": 36,
              "velocity": 85,
              "position": 12.5,
              "duration": 0.25
            },
            {
              "pitch": 36,
              "velocity": 100,
              "position": 13.0,
              "duration": 0.308333
            },
            {
              "pitch": 36,
              "velocity": 103,
              "position": 14.0,
              "duration": 0.391667
            },
            {
              "pitch": 36,
              "velocity": 103,
              "position": 14.5,
              "duration": 0.275
            },
            {
              "pitch": 36,
              "velocity": 111,
              "position": 15.5,
              "duration": 0.858333
            }
          ]
        },
        "11": {
          "ctab": {
            "srcChannel": 11,
            "name": "Piano",
            "accType": "CHORD1",
            "editable": true,
            "mutedNotes": [],
            "mutedChords": [],
            "sourceChordNote": 0,
            "sourceChordType": "Maj7",
            "ctb2Main": {
              "ntr": "ROOT_FIXED",
              "ntt": "CHORD",
              "bassOn": false,
              "noteLowLimit": 48,
              "noteHighLimit": 84,
              "chordRootUpperLimit": 127,
              "rtr": "NOTE_GENERATOR"
            }
          },
          "notes": [
            {
              "pitch": 67,
              "velocity": 54,
              "position": 0.5,
              "duration": 0.4
            },
            {
              "pitch": 71,
              "velocity": 64,
              "position": 0.5,
              "duration": 0.166667
            },
            {
              "pitch": 48,
              "velocity": 90,
              "position": 1.0,
              "duration": 0.4
            },
            {
              "pitch": 55,
              "velocity": 90,
              "position": 1.0,
              "duration": 0.4
            },
            {
              "pitch": 60,
              "velocity": 71,
              "position": 1.0,
              "duration": 0.35
            },
            {
              "pitch": 67,
              "velocity": 100,
              "position": 1.0,
              "duration": 0.4
            },
            {
              "pitch": 71,
              "velocity": 101,
              "position": 1.0,
              "duration": 0.4
            },
            {
              "pitch": 60,
              "velocity": 71,
              "position": 1.5,
              "duration": 0.291667
            },
            {
              "pitch": 48,
              "velocity": 90,
              "position": 2.0,
              "duration": 0.525
            },
            {
              "pitch": 55,
              "velocity": 90,
              "position": 2.0,
              "duration": 0.55
            },
            {
              "pitch": 60,
              "velocity": 89,
              "position": 2.0,
              "duration": 0.375
            },
            {
              "pitch": 64,
              "velocity": 109,
              "position": 2.0,
              "duration": 0.25
            },
            {
              "pitch": 71,
              "velocity": 110,
              "position": 2.0,
              "duration": 0.25
            },
            {
              "pitch": 60,
              "velocity": 54,
              "position": 2.5,
              "duration": 0.25
            },
            {
              "pitch": 48,
              "velocity": 90,
              "position": 3.0,
              "duration": 0.4
            },
            {
              "pitch": 55,
              "velocity": 90,
              "position": 3.0,
              "duration": 0.4
            },
            {
              "pitch": 60,
              "velocity": 71,
              "position": 3.0,
              "duration": 0.166667
            },
            {
              "pitch": 64,
              "velocity": 100,
              "position": 3.0,
              "duration": 0.4
            },
            {
              "pitch": 71,
              "velocity": 101,
              "position": 3.0,
              "duration": 0.4
            },
            {
              "pitch": 48,
              "velocity": 90,
              "position": 3.5,
              "duration": 0.9
            },
            {
              "pitch": 55,
              "velocity": 90,
              "position": 3.5,
              "duration": 0.958333
            },
            {
              "pitch": 60,
              "velocity": 89,
              "position": 3.5,
              "duration": 1.125
            },
            {
              "pitch": 67,
              "velocity": 109,
              "position": 3.5,
              "duration": 0.733333
            },
            {
              "pitch": 71,
              "velocity": 110,
              "position": 3.5,
              "duration": 0.733333
            },
            {
              "pitch": 67,
              "velocity": 54,
              "position": 4.5,
              "duration": 0.4
            },
            {
              "pitch": 71,
              "velocity": 64,
              "position": 4.5,
              "duration": 0.166667
            },
            {
              "pitch": 48,
              "velocity": 90,
              "position": 5.0,
              "duration": 0.4
            },
            {
              "pitch": 55,
              "velocity": 90,
              "position": 5.0,
              "duration": 0.4
            },
            {
              "pitch": 60,
              "velocity": 71,
              "position": 5.0,
              "duration": 0.35
            },
            {
              "pitch": 67,
              "velocity": 100,
              "position": 5.0,
              "duration": 0.4
            },
            {
              "pitch": 71,
              "velocity": 101,
              "position": 5.0,
              "duration": 0.4
            },
            {
              "pitch": 60,
              "velocity": 71,
              "position": 5.5,
              "duration": 0.291667
            },
            {
              "pitch": 48,
              "velocity": 90,
              "position": 6.0,
              "duration": 0.4
            },
            {
              "pitch": 55,
              "velocity": 90,
              "position": 6.0,
              "duration": 0.4
            },
            {
              "pitch": 60,
              "velocity": 89,
              "position": 6.0,
              "duration": 0.4
            },
            {
              "pitch": 64,
              "velocity": 109,
              "position": 6.0,
              "duration": 0.4
            },
            {
              "pitch": 71,
              "velocity": 110,
              "position": 6.0,
              "duration": 0.4
            },
            {
              "pitch": 48,
              "velocity": 44,
              "position": 6.5,
              "duration": 0.241667
            },
            {
              "pitch": 55,
              "velocity": 81,
              "position": 6.5,
              "duration": 0.216667
            },
            {
              "pitch": 60,
              "velocity": 59,
              "position": 6.5,
              "duration": 0.3
            },
            {
              "pitch": 64,
              "velocity": 100,
              "position": 6.5,
              "duration": 0.275
            },
            {
              "pitch": 71,
              "velocity": 54,
              "position": 6.5,
              "duration": 0.25
            },
            {
              "pitch": 67,
              "velocity": 98,
              "position": 7.5,
              "duration": 0.8
            },
            {
              "pitch": 48,
              "velocity": 78,
              "position": 7.516667,
              "duration": 1.108333
            },
            {
              "pitch": 55,
              "velocity": 78,
              "position": 7.516667,
              "duration": 1.091667
            },
            {
              "pitch": 64,
              "velocity": 81,
              "position": 7.516667,
              "duration": 0.75
            },
            {
              "pitch": 71,
              "velocity": 94,
              "position": 7.516667,
              "duration": 0.758333
            },
            {
              "pitch": 67,
              "velocity": 59,
              "position": 8.525,
              "duration": 0.166667
            },
            {
              "pitch": 64,
              "velocity": 61,
              "position": 8.55,
              "duration": 0.141667
            },
            {
              "pitch": 71,
              "velocity": 51,
              "position": 8.55,
              "duration": 0.166667
            },
            {
              "pitch": 71,
              "velocity": 96,
              "position": 9.025,
              "duration": 0.208333
            },
            {
              "pitch": 64,
              "velocity": 80,
              "position": 9.05,
              "duration": 0.183333
            },
            {
              "pitch": 67,
              "velocity": 95,
              "position": 9.05,
              "duration": 0.125
            },
            {
              "pitch": 67,
              "velocity": 64,
              "position": 9.508333,
              "duration": 0.183333
            },
            {
              "pitch": 64,
              "velocity": 43,
              "position": 9.525,
              "duration": 0.208333
            },
            {
              "pitch": 71,
              "velocity": 65,
              "position": 9.525,
              "duration": 0.191667
            },
            {
              "pitch": 67,
              "velocity": 95,
              "position": 10.008333,
              "duration": 0.208333
            },
            {
              "pitch": 71,
              "velocity": 86,
              "position": 10.008333,
              "duration": 0.25
            },
            {
              "pitch": 64,
              "velocity": 80,
              "position": 10.025,
              "duration": 0.233333
            },
            {
              "pitch": 67,
              "velocity": 53,
              "position": 10.55,
              "duration": 0.125
            },
            {
              "pitch": 71,
              "velocity": 57,
              "position": 10.55,
              "duration": 0.125
            },
            {
              "pitch": 64,
              "velocity": 31,
              "position": 10.566667,
              "duration": 0.083333
            },
            {
              "pitch": 64,
              "velocity": 55,
              "position": 11.008333,
              "duration": 0.141667
            },
            {
              "pitch": 71,
              "velocity": 85,
              "position": 11.008333,
              "duration": 0.141667
            },
            {
              "pitch": 67,
              "velocity": 72,
              "position": 11.025,
              "duration": 0.083333
            },
            {
              "pitch": 64,
              "velocity": 93,
              "position": 11.525,
              "duration": 0.316667
            },
            {
              "pitch": 67,
              "velocity": 109,
              "position": 11.525,
              "duration": 0.275
            },
            {
              "pitch": 71,
              "velocity": 109,
              "position": 11.525,
              "duration": 0.275
            },
            {
              "pitch": 67,
              "velocity": 37,
              "position": 12.025,
              "duration": 0.15
            },
            {
              "pitch": 64,
              "velocity": 30,
              "position": 12.05,
              "duration": 0.141667
            },
            {
              "pitch": 71,
              "velocity": 34,
              "position": 12.05,
              "duration": 0.125
            },
            {
              "pitch": 64,
              "velocity": 54,
              "position": 12.508333,
              "duration": 0.166667
            },
            {
              "pitch": 67,
              "velocity": 74,
              "position": 12.508333,
              "duration": 0.141667
            },
            {
              "pitch": 71,
              "velocity": 74,
              "position": 12.508333,
              "duration": 0.141667
            },
            {
              "pitch": 71,
              "velocity": 101,
              "position": 13.008333,
              "duration": 0.25
            },
            {
              "pitch": 64,
              "velocity": 81,
              "position": 13.025,
              "duration": 0.233333
            },
            {
              "pitch": 67,
              "velocity": 101,
              "position": 13.025,
              "duration": 0.191667
            },
            {
              "pitch": 48,
              "velocity": 84,
              "position": 13.483333,
              "duration": 0.333333
            },
            {
              "pitch": 64,
              "velocity": 82,
              "position": 14.008333,
              "duration": 0.25
            },
            {
              "pitch": 67,
              "velocity": 100,
              "position": 14.008333,
              "duration": 0.208333
            },
            {
              "pitch": 71,
              "velocity": 101,
              "position": 14.008333,
              "duration": 0.25
            },
            {
              "pitch": 67,
              "velocity": 81,
              "position": 14.508333,
              "duration": 0.208333
            },
            {
              "pitch": 64,
              "velocity": 64,
              "position": 14.525,
              "duration": 0.191667
            },
            {
              "pitch": 71,
              "velocity": 80,
              "position": 14.525,
              "duration": 0.191667
            },
            {
              "pitch": 64,
              "velocity": 81,
              "position": 15.025,
              "duration": 0.191667
            },
            {
              "pitch": 67,
              "velocity": 101,
              "position": 15.025,
              "duration": 0.166667
            },
            {
              "pitch": 71,
              "velocity": 98,
              "position": 15.025,
              "duration": 0.208333
            },
            {
              "pitch": 48,
              "velocity": 90,
              "position": 15.5,
              "duration": 0.808333
            },
            {
              "pitch": 55,
              "velocity": 90,
              "position": 15.5,
              "duration": 0.883333
            },
            {
              "pitch": 60,
              "velocity": 89,
              "position": 15.5,
              "duration": 1.125
            },
            {
              "pitch": 67,
              "velocity": 109,
              "position": 15.5,
              "duration": 0.733333
            },
            {
              "pitch": 71,
              "velocity": 110,
              "position": 15.5,
              "duration": 0.733333
            }
          ]
        },
        "12": {
          "ctab": {
            "srcChannel": 12,
            "name": "Guitar",
            "accType": "CHORD2",
            "editable": true,
            "mutedNotes": [],
            "mutedChords": [],
            "sourceChordNote": 0,
            "sourceChordType": "Maj7",
            "ctb2Main": {
              "ntr": "ROOT_FIXED",
              "ntt": "CHORD",
              "bassOn": false,
              "noteLowLimit": 40,
              "noteHighLimit": 76,
              "chordRootUpperLimit": 127,
              "rtr": "NOTE_GENERATOR"
            }
          },
          "notes": [
            {
              "pitch": 48,
              "velocity": 72,
              "position": 0.5,
              "duration": 0.275
            },
            {
              "pitch": 55,
              "velocity": 55,
              "position": 0.5,
              "duration": 0.25
            },
            {
              "pitch": 48,
              "velocity": 75,
              "position": 1.0,
              "duration": 0.3
            },
            {
              "pitch": 55,
              "velocity": 85,
              "position": 1.0,
              "duration": 0.25
            },
            {
              "pitch": 48,
              "velocity": 52,
              "position": 1.5,
              "duration": 0.225
            },
            {
              "pitch": 55,
              "velocity": 57,
              "position": 1.5,
              "duration": 0.216667
            },
            {
              "pitch": 48,
              "velocity": 80,
              "position": 2.0,
              "duration": 0.375
            },
            {
              "pitch": 55,
              "velocity": 80,
              "position": 2.0,
              "duration": 0.4
            },
            {
              "pitch": 48,
              "velocity": 69,
              "position": 2.5,
              "duration": 0.275
            },
            {
              "pitch": 55,
              "velocity": 52,
              "position": 2.5,
              "duration": 0.25
            },
            {
              "pitch": 48,
              "velocity": 88,
              "position": 3.5,
              "duration": 0.858333
            },
            {
              "pitch": 48,
              "velocity": 55,
              "position": 4.5,
              "duration": 0.275
            },
            {
              "pitch": 48,
              "velocity": 69,
              "position": 5.0,
              "duration": 0.266667
            },
            {
              "pitch": 55,
              "velocity": 79,
              "position": 5.0,
              "duration": 0.25
            },
            {
              "pitch": 48,
              "velocity": 80,
              "position": 6.0,
              "duration": 0.375
            },
            {
              "pitch": 55,
              "velocity": 80,
              "position": 6.0,
              "duration": 0.4
            },
            {
              "pitch": 48,
              "velocity": 69,
              "position": 6.5,
              "duration": 0.275
            },
            {
              "pitch": 55,
              "velocity": 52,
              "position": 6.5,
              "duration": 0.25
            },
            {
              "pitch": 48,
              "velocity": 83,
              "position": 7.5,
              "duration": 0.858333
            },
            {
              "pitch": 55,
              "velocity": 83,
              "position": 7.5,
              "duration": 0.85
            },
            {
              "pitch": 48,
              "velocity": 50,
              "position": 8.5,
              "duration": 0.275
            },
            {
              "pitch": 55,
              "velocity": 59,
              "position": 8.5,
              "duration": 0.25
            },
            {
              "pitch": 48,
              "velocity": 64,
              "position": 9.0,
              "duration": 0.266667
            },
            {
              "pitch": 55,
              "velocity": 74,
              "position": 9.0,
              "duration": 0.25
            },
            {
              "pitch": 48,
              "velocity": 68,
              "position": 10.0,
              "duration": 0.333333
            },
            {
              "pitch": 55,
              "velocity": 69,
              "position": 10.0,
              "duration": 0.375
            },
            {
              "pitch": 48,
              "velocity": 58,
              "position": 10.5,
              "duration": 0.233333
            },
            {
              "pitch": 55,
              "velocity": 66,
              "position": 10.5,
              "duration": 0.166667
            },
            {
              "pitch": 48,
              "velocity": 82,
              "position": 11.5,
              "duration": 0.875
            },
            {
              "pitch": 55,
              "velocity": 86,
              "position": 11.5,
              "duration": 0.875
            },
            {
              "pitch": 48,
              "velocity": 63,
              "position": 12.5,
              "duration": 0.25
            },
            {
              "pitch": 55,
              "velocity": 74,
              "position": 12.5,
              "duration": 0.233333
            },
            {
              "pitch": 48,
              "velocity": 78,
              "position": 13.0,
              "duration": 0.333333
            },
            {
              "pitch": 55,
              "velocity": 85,
              "position": 13.0,
              "duration": 0.291667
            },
            {
              "pitch": 48,
              "velocity": 76,
              "position": 14.0,
              "duration": 0.375
            },
            {
              "pitch": 55,
              "velocity": 81,
              "position": 14.0,
              "duration": 0.391667
            },
            {
              "pitch": 48,
              "velocity": 64,
              "position": 14.5,
              "duration": 0.225
            },
            {
              "pitch": 55,
              "velocity": 70,
              "position": 14.5,
              "duration": 0.225
            },
            {
              "pitch": 48,
              "velocity": 87,
              "position": 15.5,
              "duration": 0.858333
            },
            {
              "pitch": 55,
              "velocity": 87,
              "position": 15.5,
              "duration": 0.85
            }
          ]
        },
        "13": {
          "ctab": {
            "srcChannel": 13,
            "name": "Strings",
            "accType": "PAD",
            "editable": true,
            "mutedNotes": [],
            "mutedChords": [],
            "sourceChordNote": 0,
            "sourceChordType": "Maj7",
            "ctb2Main": {
              "ntr": "ROOT_FIXED",
              "ntt": "MELODY",
              "bassOn": false,
              "noteLowLimit": 36,
              "noteHighLimit": 96,
              "chordRootUpperLimit": 127,
              "rtr": "PITCH_SHIFT"
            }
          },
          "notes": [
            {
              "pitch": 48,
              "velocity": 72,
              "position": 1.0,
              "duration": 0.35
            },
            {
              "pitch": 55,
              "velocity": 70,
              "position": 1.0,
              "duration": 0.475
            },
            {
              "pitch": 60,
              "velocity": 55,
              "position": 1.0,
              "duration": 0.458333
            },
            {
              "pitch": 48,
              "velocity": 83,
              "position": 2.0,
              "duration": 0.3
            },
            {
              "pitch": 55,
              "velocity": 89,
              "position": 2.0,
              "duration": 0.341667
            },
            {
              "pitch": 60,
              "velocity": 83,
              "position": 2.0,
              "duration": 0.366667
            },
            {
              "pitch": 48,
              "velocity": 59,
              "position": 2.5,
              "duration": 0.208333
            },
            {
              "pitch": 55,
              "velocity": 53,
              "position": 2.5,
              "duration": 0.208333
            },
            {
              "pitch": 60,
              "velocity": 47,
              "position": 2.5,
              "duration": 0.25
            },
            {
              "pitch": 48,
              "velocity": 81,
              "position": 3.0,
              "duration": 0.35
            },
            {
              "pitch": 55,
              "velocity": 79,
              "position": 3.0,
              "duration": 0.416667
            },
            {
              "pitch": 60,
              "velocity": 64,
              "position": 3.0,
              "duration": 0.458333
            },
            {
              "pitch": 48,
              "velocity": 94,
              "position": 3.5,
              "duration": 0.783333
            },
            {
              "pitch": 55,
              "velocity": 100,
              "position": 3.5,
              "duration": 0.825
            },
            {
              "pitch": 60,
              "velocity": 94,
              "position": 3.5,
              "duration": 0.85
            },
            {
              "pitch": 48,
              "velocity": 59,
              "position": 4.491667,
              "duration": 0.208333
            },
            {
              "pitch": 55,
              "velocity": 53,
              "position": 4.55,
              "duration": 0.208333
            },
            {
              "pitch": 60,
              "velocity": 47,
              "position": 4.55,
              "duration": 0.25
            },
            {
              "pitch": 48,
              "velocity": 81,
              "position": 5.033333,
              "duration": 0.35
            },
            {
              "pitch": 55,
              "velocity": 79,
              "position": 5.033333,
              "duration": 0.416667
            },
            {
              "pitch": 60,
              "velocity": 64,
              "position": 5.033333,
              "duration": 0.458333
            },
            {
              "pitch": 48,
              "velocity": 85,
              "position": 6.0,
              "duration": 0.316667
            },
            {
              "pitch": 55,
              "velocity": 91,
              "position": 6.0,
              "duration": 0.25
            },
            {
              "pitch": 60,
              "velocity": 85,
              "position": 6.0,
              "duration": 0.3
            },
            {
              "pitch": 48,
              "velocity": 61,
              "position": 6.5,
              "duration": 0.291667
            },
            {
              "pitch": 55,
              "velocity": 51,
              "position": 6.5,
              "duration": 0.208333
            },
            {
              "pitch": 60,
              "velocity": 49,
              "position": 6.5,
              "duration": 0.4
            },
            {
              "pitch": 48,
              "velocity": 89,
              "position": 7.516667,
              "duration": 0.941667
            },
            {
              "pitch": 55,
              "velocity": 92,
              "position": 7.516667,
              "duration": 1.008333
            },
            {
              "pitch": 60,
              "velocity": 86,
              "position": 7.516667,
              "duration": 1.025
            },
            {
              "pitch": 48,
              "velocity": 81,
              "position": 10.066667,
              "duration": 0.375
            },
            {
              "pitch": 55,
              "velocity": 85,
              "position": 10.066667,
              "duration": 0.391667
            },
            {
              "pitch": 60,
              "velocity": 78,
              "position": 10.066667,
              "duration": 0.416667
            },
            {
              "pitch": 48,
              "velocity": 70,
              "position": 10.566667,
              "duration": 0.183333
            },
            {
              "pitch": 55,
              "velocity": 62,
              "position": 10.608333,
              "duration": 0.183333
            },
            {
              "pitch": 60,
              "velocity": 69,
              "position": 10.625,
              "duration": 0.208333
            },
            {
              "pitch": 48,
              "velocity": 84,
              "position": 11.566667,
              "duration": 0.708333
            },
            {
              "pitch": 55,
              "velocity": 89,
              "position": 11.566667,
              "duration": 0.708333
            },
            {
              "pitch": 60,
              "velocity": 80,
              "position": 11.566667,
              "duration": 0.725
            },
            {
              "pitch": 48,
              "velocity": 60,
              "position": 12.483333,
              "duration": 0.166667
            },
            {
              "pitch": 55,
              "velocity": 56,
              "position": 12.525,
              "duration": 0.125
            },
            {
              "pitch": 60,
              "velocity": 41,
              "position": 12.525,
              "duration": 0.183333
            },
            {
              "pitch": 48,
              "velocity": 70,
              "position": 13.025,
              "duration": 0.125
            },
            {
              "pitch": 55,
              "velocity": 76,
              "position": 13.025,
              "duration": 0.141667
            },
            {
              "pitch": 60,
              "velocity": 68,
              "position": 13.025,
              "duration": 0.183333
            },
            {
              "pitch": 48,
              "velocity": 67,
              "position": 13.483333,
              "duration": 0.1
            },
            {
              "pitch": 55,
              "velocity": 52,
              "position": 13.483333,
              "duration": 0.141667
            },
            {
              "pitch": 60,
              "velocity": 52,
              "position": 13.5,
              "duration": 0.166667
            },
            {
              "pitch": 48,
              "velocity": 85,
              "position": 14.0,
              "duration": 0.333333
            },
            {
              "pitch": 55,
              "velocity": 91,
              "position": 14.0,
              "duration": 0.375
            },
            {
              "pitch": 60,
              "velocity": 79,
              "position": 14.025,
              "duration": 0.375
            },
            {
              "pitch": 48,
              "velocity": 70,
              "position": 14.5,
              "duration": 0.25
            },
            {
              "pitch": 55,
              "velocity": 64,
              "position": 14.541667,
              "duration": 0.208333
            },
            {
              "pitch": 60,
              "velocity": 53,
              "position": 14.541667,
              "duration": 0.25
            },
            {
              "pitch": 48,
              "velocity": 94,
              "position": 15.5,
              "duration": 0.783333
            },
            {
              "pitch": 55,
              "velocity": 100,
              "position": 15.5,
              "duration": 0.825
            },
            {
              "pitch": 60,
              "velocity": 94,
              "position": 15.5,
              "duration": 0.85
            }
          ]
        }
      }
    },
    "Main_B": {
      "type": "Main_B",
      "sizeInBeats": 16,
      "channels": {
        "9": {
          "ctab": {
            "srcChannel": 9,
            "name": "Drums",
            "accType": "RHYTHM",
            "editable": false,
            "mutedNotes": [],
            "mutedChords": [],
            "sourceChordNote": 0,
            "sourceChordType": "Maj",
            "ctb2Main": {
              "ntr": "ROOT_FIXED",
              "ntt": "BYPASS",
              "bassOn": false,
              "noteLowLimit": 20,
              "noteHighLimit": 127,
              "chordRootUpperLimit": 127,
              "rtr": "RETRIGGER"
            }
          },
          "notes": [
            {
              "pitch": 42,
              "velocity": 111,
              "position": 0.0,
              "duration": 0.208333
            },
            {
              "pitch": 56,
              "velocity": 91,
              "position": 0.0,
              "duration": 0.208333
            },
            {
              "pitch": 35,
              "velocity": 101,
              "position": 0.5,
              "duration": 0.208333
            },
            {
              "pitch": 46,
              "velocity": 121,
              "position": 0.5,
              "duration": 0.208333
            },
            {
              "pitch": 35,
              "velocity": 111,
              "position": 1.0,
              "duration": 0.208333
            },
            {
              "pitch": 38,
              "velocity": 111,
              "position": 1.0,
              "duration": 0.208333
            },
            {
              "pitch": 42,
              "velocity": 91,
              "position": 1.0,
              "duration": 0.208333
            },
            {
              "pitch": 56,
              "velocity": 91,
              "position": 1.0,
              "duration": 0.208333
            },
            {
              "pitch": 42,
              "velocity": 91,
              "position": 1.5,
              "duration": 0.208333
            },
            {
              "pitch": 35,
              "velocity": 111,
              "position": 2.0,
              "duration": 0.208333
            },
            {
              "pitch": 42,
              "velocity": 101,
              "position": 2.0,
              "duration": 0.208333
            },
            {
              "pitch": 56,
              "velocity": 91,
              "position": 2.0,
              "duration": 0.208333
            },
            {
              "pitch": 35,
              "velocity": 81,
              "position": 2.5,
              "duration": 0.208333
            },
            {
              "pitch": 42,
              "velocity": 91,
              "position": 2.5,
              "duration": 0.208333
            },
            {
              "pitch": 56,
              "velocity": 81,
              "position": 2.5,
              "duration": 0.208333
            },
            {
              "pitch": 38,
              "velocity": 111,
              "position": 3.0,
              "duration": 0.208333
            },
            {
              "pitch": 42,
              "velocity": 121,
              "position": 3.0,
              "duration": 0.208333
            },
            {
              "pitch": 56,
              "velocity": 91,
              "position": 3.0,
              "duration": 0.208333
            },
            {
              "pitch": 35,
              "velocity": 101,
              "position": 3.5,
              "duration": 0.208333
            },
            {
              "pitch": 42,
              "velocity": 81,
              "position": 3.5,
              "duration": 0.208333
            },
            {
              "pitch": 52,
              "velocity": 101,
              "position": 3.5,
              "duration": 0.208333
            },
            {
              "pitch": 42,
              "velocity": 112,
              "position": 4.0,
              "duration": 0.208333
            },
            {
              "pitch": 56,
              "velocity": 92,
              "position": 4.0,
              "duration": 0.208333
            },
            {
              "pitch": 35,
              "velocity": 102,
              "position": 4.5,
              "duration": 0.208333
            },
            {
              "pitch": 42,
              "velocity": 92,
              "position": 4.5,
              "duration": 0.208333
            },
            {
              "pitch": 35,
              "velocity": 112,
              "position": 5.0,
              "duration": 0.208333
            },
            {
              "pitch": 38,
              "velocity": 112,
              "position": 5.0,
              "duration": 0.208333
            },
            {
              "pitch": 42,
              "velocity": 102,
              "position": 5.0,
              "duration": 0.208333
            },
            {
              "pitch": 56,
              "velocity": 92,
              "position": 5.0,
              "duration": 0.208333
            },
            {
              "pitch": 42,
              "velocity": 92,
              "position": 5.5,
              "duration": 0.208333
            },
            {
              "pitch": 35,
              "velocity": 112,
              "position": 6.0,
              "duration": 0.208333
            },
            {
              "pitch": 42,
              "velocity": 102,
              "position": 6.0,
              "duration": 0.208333
            },
            {
              "pitch": 56,
              "velocity": 92,
              "position": 6.0,
              "duration": 0.208333
            },
            {
              "pitch": 35,
              "velocity": 82,
              "position": 6.5,
              "duration": 0.208333
            },
            {
              "pitch": 42,
              "velocity": 92,
              "position": 6.5,
              "duration": 0.208333
            },
            {
              "pitch": 38,
              "velocity": 112,
              "position": 7.0,
              "duration": 0.208333
            },
            {
              "pitch": 42,
              "velocity": 122,
              "position": 7.0,
              "duration": 0.208333
            },
            {
              "pitch": 56,
              "velocity": 92,
              "position": 7.0,
              "duration": 0.208333
            },
            {
              "pitch": 35,
              "velocity": 102,
              "position": 7.5,
              "duration": 0.208333
            },
            {
              "pitch": 42,
              "velocity": 82,
              "position": 7.5,
              "duration": 0.208333
            },
            {
              "pitch": 42,
              "velocity": 111,
              "position": 8.0,
              "duration": 0.208333
            },
            {
              "pitch": 56,
              "velocity": 91,
              "position": 8.0,
              "duration": 0.208333
            },
            {
              "pitch": 35,
              "velocity": 101,
              "position": 8.5,
              "duration": 0.208333
            },
            {
              "pitch": 46,
              "velocity": 121,
              "position": 8.5,
              "duration": 0.208333
            },
            {
              "pitch": 35,
              "velocity": 111,
              "position": 9.0,
              "duration": 0.208333
            },
            {
              "pitch": 38,
              "velocity": 111,
              "position": 9.0,
              "duration": 0.208333
            },
            {
              "pitch": 42,
              "velocity": 91,
              "position": 9.0,
              "duration": 0.208333
            },
            {
              "pitch": 56,
              "velocity": 91,
              "position": 9.0,
              "duration": 0.208333
            },
            {
              "pitch": 42,
              "velocity": 91,
              "position": 9.5,
              "duration": 0.208333
            },
            {
              "pitch": 35,
              "velocity": 111,
              "position": 10.0,
              "duration": 0.208333
            },
            {
              "pitch": 42,
              "velocity": 101,
              "position": 10.0,
              "duration": 0.208333
            },
            {
              "pitch": 56,
              "velocity": 91,
              "position": 10.0,
              "duration": 0.208333
            },
            {
              "pitch": 35,
              "velocity": 81,
              "position": 10.5,
              "duration": 0.208333
            },
            {
              "pitch": 42,
              "velocity": 91,
              "position": 10.5,
              "duration": 0.208333
            },
            {
              "pitch": 56,
              "velocity": 81,
              "position": 10.5,
              "duration": 0.208333
            },
            {
              "pitch": 38,
              "velocity": 111,
              "position": 11.0,
              "duration": 0.208333
            },
            {
              "pitch": 42,
              "velocity": 121,
              "position": 11.0,
              "duration": 0.208333
            },
            {
              "pitch": 56,
              "velocity": 91,
              "position": 11.0,
              "duration": 0.208333
            },
            {
              "pitch": 35,
              "velocity": 101,
              "position": 11.5,
              "duration": 0.208333
            },
            {
              "pitch": 42,
              "velocity": 81,
              "position": 11.5,
              "duration": 0.208333
            },
            {
              "pitch": 52,
              "velocity": 101,
              "position": 11.5,
              "duration": 0.208333
            },
            {
              "pitch": 42,
              "velocity": 99,
              "position": 12.0,
              "duration": 0.208333
            },
            {
              "pitch": 56,
              "velocity": 89,
              "position": 12.0,
              "duration": 0.208333
            },
            {
              "pitch": 35,
              "velocity": 109,
              "position": 12.5,
              "duration": 0.208333
            },
            {
              "pitch": 42,
              "velocity": 109,
              "position": 12.5,
              "duration": 0.208333
            },
            {
              "pitch": 38,
              "velocity": 79,
              "position": 12.75,
              "duration": 0.125
            },
            {
              "pitch": 38,
              "velocity": 63,
              "position": 12.875,
              "duration": 0.083333
            },
            {
              "pitch": 35,
              "velocity": 89,
              "position": 13.0,
              "duration": 0.208333
            },
            {
              "pitch": 38,
              "velocity": 99,
              "position": 13.0,
              "duration": 0.083333
            },
            {
              "pitch": 42,
              "velocity": 99,
              "position": 13.0,
              "duration": 0.208333
            },
            {
              "pitch": 56,
              "velocity": 89,
              "position": 13.0,
              "duration": 0.208333
            },
            {
              "pitch": 46,
              "velocity": 89,
              "position": 13.5,
              "duration": 0.208333
            },
            {
              "pitch": 35,
              "velocity": 109,
              "position": 14.0,
              "duration": 0.208333
            },
            {
              "pitch": 46,
              "velocity": 109,
              "position": 14.0,
              "duration": 0.208333
            },
            {
              "pitch": 48,
              "velocity": 109,
              "position": 14.0,
              "duration": 0.208333
            },
            {
              "pitch": 56,
              "velocity": 89,
              "position": 14.0,
              "duration": 0.208333
            },
            {
              "pitch": 35,
              "velocity": 89,
              "position": 14.5,
              "duration": 0.208333
            },
            {
              "pitch": 46,
              "velocity": 89,
              "position": 14.5,
              "duration": 0.208333
            },
            {
              "pitch": 47,
              "velocity": 109,
              "position": 14.5,
              "duration": 0.208333
            },
            {
              "pitch": 56,
              "velocity": 79,
              "position": 14.5,
              "duration": 0.208333
            },
            {
              "pitch": 35,
              "velocity": 99,
              "position": 15.0,
              "duration": 0.208333
            },
            {
              "pitch": 45,
              "velocity": 109,
              "position": 15.0,
              "duration": 0.208333
            },
            {
              "pitch": 46,
              "velocity": 109,
              "position": 15.0,
              "duration": 0.208333
            },
            {
              "pitch": 56,
              "velocity": 89,
              "position": 15.0,
              "duration": 0.208333
            },
            {
              "pitch": 35,
              "velocity": 109,
              "position": 15.5,
              "duration": 0.208333
            },
            {
              "pitch": 38,
              "velocity": 109,
              "position": 15.5,
              "duration": 0.208333
            },
            {
              "pitch": 46,
              "velocity": 124,
              "position": 15.5,
              "duration": 0.208333
            },
            {
              "pitch": 52,
              "velocity": 109,
              "position": 15.5,
              "duration": 0.208333
            },
            {
              "pitch": 57,
              "velocity": 109,
              "position": 15.5,
              "duration": 0.208333
            }
          ]
        },
        "10": {
          "ctab": {
            "srcChannel": 10,
            "name": "Bass",
            "accType": "BASS",
            "editable": true,
            "mutedNotes": [],
            "mutedChords": [],
            "sourceChordNote": 0,
            "sourceChordType": "Maj7",
            "ctb2Main": {
              "ntr": "ROOT_TRANSPOSITION",
              "ntt": "BYPASS",
              "bassOn": true,
              "noteLowLimit": 20,
              "noteHighLimit": 60,
              "chordRootUpperLimit": 127,
              "rtr": "NOTE_GENERATOR"
            }
          },
          "notes": [
            {
              "pitch": 36,
              "velocity": 106,
              "position": 0.5,
              "duration": 0.225
            },
            {
              "pitch": 43,
              "velocity": 87,
              "position": 1.0,
              "duration": 0.316667
            },
            {
              "pitch": 36,
              "velocity": 111,
              "position": 1.5,
              "duration": 0.85
            },
            {
              "pitch": 36,
              "velocity": 88,
              "position": 2.5,
              "duration": 0.266667
            },
            {
              "pitch": 36,
              "velocity": 111,
              "position": 3.5,
              "duration": 0.858333
            },
            {
              "pitch": 36,
              "velocity": 106,
              "position": 4.5,
              "duration": 0.225
            },
            {
              "pitch": 43,
              "velocity": 87,
              "position": 5.0,
              "duration": 0.316667
            },
            {
              "pitch": 36,
              "velocity": 111,
              "position": 5.5,
              "duration": 0.85
            },
            {
              "pitch": 36,
              "velocity": 88,
              "position": 6.5,
              "duration": 0.266667
            },
            {
              "pitch": 36,
              "velocity": 111,
              "position": 7.5,
              "duration": 0.975
            },
            {
              "pitch": 35,
              "velocity": 106,
              "position": 8.5,
              "duration": 0.441667
            },
            {
              "pitch": 36,
              "velocity": 87,
              "position": 9.0,
              "duration": 0.316667
            },
            {
              "pitch": 36,
              "velocity": 101,
              "position": 10.0,
              "duration": 0.4
            },
            {
              "pitch": 36,
              "velocity": 91,
              "position": 10.5,
              "duration": 0.225
            },
            {
              "pitch": 36,
              "velocity": 109,
              "position": 11.5,
              "duration": 0.958333
            },
            {
              "pitch": 35,
              "velocity": 85,
              "position": 12.5,
              "duration": 0.441667
            },
            {
              "pitch": 36,
              "velocity": 100,
              "position": 13.0,
              "duration": 0.308333
            },
            {
              "pitch": 36,
              "velocity": 103,
              "position": 14.0,
              "duration": 0.391667
            },
            {
              "pitch": 36,
              "velocity": 103,
              "position": 14.5,
              "duration": 0.275
            },
            {
              "pitch": 36,
              "velocity": 111,
              "position": 15.5,
              "duration": 0.825
            }
          ]
        },
        "11": {
          "ctab": {
            "srcChannel": 11,
            "name": "Piano",
            "accType": "CHORD1",
            "editable": true,
            "mutedNotes": [],
            "mutedChords": [],
            "sourceChordNote": 0,
            "sourceChordType": "Maj7",
            "ctb2Main": {
              "ntr": "ROOT_FIXED",
              "ntt": "CHORD",
              "bassOn": false,
              "noteLowLimit": 48,
              "noteHighLimit": 84,
              "chordRootUpperLimit": 127,
              "rtr": "NOTE_GENERATOR"
            }
          },
          "notes": [
            {
              "pitch": 67,
              "velocity": 54,
              "position": 0.5,
              "duration": 0.4
            },
            {
              "pitch": 71,
              "velocity": 64,
              "position": 0.5,
              "duration": 0.166667
            },
            {
              "pitch": 48,
              "velocity": 90,
              "position": 1.0,
              "duration": 0.4
            },
            {
              "pitch": 55,
              "velocity": 90,
              "position": 1.0,
              "duration": 0.4
            },
            {
              "pitch": 60,
              "velocity": 71,
              "position": 1.0,
              "duration": 0.233333
            },
            {
              "pitch": 67,
              "velocity": 100,
              "position": 1.0,
              "duration": 0.166667
            },
            {
              "pitch": 71,
              "velocity": 101,
              "position": 1.0,
              "duration": 0.233333
            },
            {
              "pitch": 67,
              "velocity": 71,
              "position": 1.5,
              "duration": 0.141667
            },
            {
              "pitch": 71,
              "velocity": 64,
              "position": 1.5,
              "duration": 0.108333
            },
            {
              "pitch": 48,
              "velocity": 90,
              "position": 2.0,
              "duration": 0.525
            },
            {
              "pitch": 55,
              "velocity": 90,
              "position": 2.0,
              "duration": 0.55
            },
            {
              "pitch": 60,
              "velocity": 89,
              "position": 2.0,
              "duration": 0.375
            },
            {
              "pitch": 64,
              "velocity": 109,
              "position": 2.0,
              "duration": 0.25
            },
            {
              "pitch": 71,
              "velocity": 110,
              "position": 2.0,
              "duration": 0.25
            },
            {
              "pitch": 60,
              "velocity": 54,
              "position": 2.5,
              "duration": 0.25
            },
            {
              "pitch": 48,
              "velocity": 90,
              "position": 3.0,
              "duration": 0.4
            },
            {
              "pitch": 55,
              "velocity": 90,
              "position": 3.0,
              "duration": 0.4
            },
            {
              "pitch": 60,
              "velocity": 71,
              "position": 3.0,
              "duration": 0.166667
            },
            {
              "pitch": 64,
              "velocity": 100,
              "position": 3.0,
              "duration": 0.4
            },
            {
              "pitch": 71,
              "velocity": 101,
              "position": 3.0,
              "duration": 0.4
            },
            {
              "pitch": 48,
              "velocity": 90,
              "position": 3.5,
              "duration": 0.9
            },
            {
              "pitch": 55,
              "velocity": 90,
              "position": 3.5,
              "duration": 0.958333
            },
            {
              "pitch": 60,
              "velocity": 89,
              "position": 3.5,
              "duration": 1.125
            },
            {
              "pitch": 64,
              "velocity": 109,
              "position": 3.5,
              "duration": 0.733333
            },
            {
              "pitch": 71,
              "velocity": 110,
              "position": 3.5,
              "duration": 0.733333
            },
            {
              "pitch": 64,
              "velocity": 54,
              "position": 4.5,
              "duration": 0.4
            },
            {
              "pitch": 71,
              "velocity": 64,
              "position": 4.5,
              "duration": 0.166667
            },
            {
              "pitch": 48,
              "velocity": 90,
              "position": 5.0,
              "duration": 0.4
            },
            {
              "pitch": 55,
              "velocity": 90,
              "position": 5.0,
              "duration": 0.4
            },
            {
              "pitch": 60,
              "velocity": 71,
              "position": 5.0,
              "duration": 0.35
            },
            {
              "pitch": 64,
              "velocity": 100,
              "position": 5.0,
              "duration": 0.4
            },
            {
              "pitch": 71,
              "velocity": 101,
              "position": 5.0,
              "duration": 0.4
            },
            {
              "pitch": 60,
              "velocity": 71,
              "position": 5.5,
              "duration": 0.291667
            },
            {
              "pitch": 48,
              "velocity": 90,
              "position": 6.0,
              "duration": 0.35
            },
            {
              "pitch": 55,
              "velocity": 90,
              "position": 6.0,
              "duration": 0.366667
            },
            {
              "pitch": 60,
              "velocity": 89,
              "position": 6.0,
              "duration": 0.741667
            },
            {
              "pitch": 67,
              "velocity": 109,
              "position": 6.0,
              "duration": 0.4
            },
            {
              "pitch": 71,
              "velocity": 110,
              "position": 6.0,
              "duration": 0.375
            },
            {
              "pitch": 48,
              "velocity": 44,
              "position": 6.5,
              "duration": 0.241667
            },
            {
              "pitch": 55,
              "velocity": 81,
              "position": 6.5,
              "duration": 0.216667
            },
            {
              "pitch": 67,
              "velocity": 100,
              "position": 6.5,
              "duration": 0.4
            },
            {
              "pitch": 71,
              "velocity": 54,
              "position": 6.5,
              "duration": 0.25
            },
            {
              "pitch": 48,
              "velocity": 95,
              "position": 8.0,
              "duration": 2.458333
            },
            {
              "pitch": 60,
              "velocity": 92,
              "position": 8.0,
              "duration": 0.291667
            },
            {
              "pitch": 67,
              "velocity": 101,
              "position": 8.0,
              "duration": 0.458333
            },
            {
              "pitch": 74,
              "velocity": 101,
              "position": 8.0,
              "duration": 0.5
            },
            {
              "pitch": 71,
              "velocity": 59,
              "position": 8.5,
              "duration": 0.166667
            },
            {
              "pitch": 60,
              "velocity": 84,
              "position": 9.0,
              "duration": 0.541667
            },
            {
              "pitch": 67,
              "velocity": 93,
              "position": 9.0,
              "duration": 0.416667
            },
            {
              "pitch": 74,
              "velocity": 101,
              "position": 9.0,
              "duration": 0.483333
            },
            {
              "pitch": 71,
              "velocity": 61,
              "position": 9.5,
              "duration": 0.191667
            },
            {
              "pitch": 67,
              "velocity": 93,
              "position": 10.0,
              "duration": 0.191667
            },
            {
              "pitch": 74,
              "velocity": 92,
              "position": 10.0,
              "duration": 0.191667
            },
            {
              "pitch": 67,
              "velocity": 106,
              "position": 10.5,
              "duration": 0.166667
            },
            {
              "pitch": 74,
              "velocity": 106,
              "position": 10.5,
              "duration": 0.275
            },
            {
              "pitch": 60,
              "velocity": 95,
              "position": 11.0,
              "duration": 2.25
            },
            {
              "pitch": 74,
              "velocity": 95,
              "position": 11.5,
              "duration": 0.291667
            },
            {
              "pitch": 79,
              "velocity": 103,
              "position": 11.5,
              "duration": 0.291667
            },
            {
              "pitch": 86,
              "velocity": 103,
              "position": 11.5,
              "duration": 0.275
            },
            {
              "pitch": 48,
              "velocity": 79,
              "position": 12.0,
              "duration": 1.375
            },
            {
              "pitch": 74,
              "velocity": 78,
              "position": 12.0,
              "duration": 0.15
            },
            {
              "pitch": 79,
              "velocity": 69,
              "position": 12.0,
              "duration": 0.15
            },
            {
              "pitch": 83,
              "velocity": 63,
              "position": 12.0,
              "duration": 0.183333
            },
            {
              "pitch": 86,
              "velocity": 74,
              "position": 12.0,
              "duration": 0.183333
            },
            {
              "pitch": 74,
              "velocity": 95,
              "position": 12.5,
              "duration": 0.15
            },
            {
              "pitch": 79,
              "velocity": 82,
              "position": 12.5,
              "duration": 0.15
            },
            {
              "pitch": 83,
              "velocity": 76,
              "position": 12.5,
              "duration": 0.183333
            },
            {
              "pitch": 86,
              "velocity": 87,
              "position": 12.5,
              "duration": 0.183333
            },
            {
              "pitch": 74,
              "velocity": 101,
              "position": 13.0,
              "duration": 0.141667
            },
            {
              "pitch": 79,
              "velocity": 90,
              "position": 13.0,
              "duration": 0.166667
            },
            {
              "pitch": 83,
              "velocity": 87,
              "position": 13.0,
              "duration": 0.208333
            },
            {
              "pitch": 86,
              "velocity": 95,
              "position": 13.0,
              "duration": 0.208333
            },
            {
              "pitch": 74,
              "velocity": 80,
              "position": 13.5,
              "duration": 0.166667
            },
            {
              "pitch": 79,
              "velocity": 74,
              "position": 13.5,
              "duration": 0.166667
            },
            {
              "pitch": 83,
              "velocity": 76,
              "position": 13.5,
              "duration": 0.208333
            },
            {
              "pitch": 86,
              "velocity": 78,
              "position": 13.5,
              "duration": 0.183333
            },
            {
              "pitch": 48,
              "velocity": 84,
              "position": 14.0,
              "duration": 0.791667
            },
            {
              "pitch": 74,
              "velocity": 96,
              "position": 14.0,
              "duration": 0.15
            },
            {
              "pitch": 79,
              "velocity": 90,
              "position": 14.0,
              "duration": 0.15
            },
            {
              "pitch": 83,
              "velocity": 82,
              "position": 14.0,
              "duration": 0.233333
            },
            {
              "pitch": 86,
              "velocity": 93,
              "position": 14.0,
              "duration": 0.208333
            },
            {
              "pitch": 74,
              "velocity": 104,
              "position": 14.5,
              "duration": 0.233333
            },
            {
              "pitch": 79,
              "velocity": 89,
              "position": 14.5,
              "duration": 0.191667
            },
            {
              "pitch": 83,
              "velocity": 87,
              "position": 14.5,
              "duration": 0.266667
            },
            {
              "pitch": 86,
              "velocity": 100,
              "position": 14.5,
              "duration": 0.291667
            },
            {
              "pitch": 48,
              "velocity": 90,
              "position": 15.5,
              "duration": 0.9
            },
            {
              "pitch": 55,
              "velocity": 90,
              "position": 15.5,
              "duration": 0.958333
            },
            {
              "pitch": 60,
              "velocity": 89,
              "position": 15.5,
              "duration": 1.125
            },
            {
              "pitch": 64,
              "velocity": 109,
              "position": 15.5,
              "duration": 0.733333
            },
            {
              "pitch": 71,
              "velocity": 110,
              "position": 15.5,
              "duration": 0.733333
            }
          ]
        },
        "12": {
          "ctab": {
            "srcChannel": 12,
            "name": "Guitar",
            "accType": "CHORD2",
            "editable": true,
            "mutedNotes": [],
            "mutedChords": [],
            "sourceChordNote": 0,
            "sourceChordType": "Maj7",
            "ctb2Main": {
              "ntr": "ROOT_FIXED",
              "ntt": "CHORD",
              "bassOn": false,
              "noteLowLimit": 40,
              "noteHighLimit": 76,
              "chordRootUpperLimit": 127,
              "rtr": "NOTE_GENERATOR"
            }
          },
          "notes": [
            {
              "pitch": 48,
              "velocity": 54,
              "position": 0.5,
              "duration": 0.275
            },
            {
              "pitch": 48,
              "velocity": 68,
              "position": 1.0,
              "duration": 0.266667
            },
            {
              "pitch": 55,
              "velocity": 78,
              "position": 1.0,
              "duration": 0.25
            },
            {
              "pitch": 48,
              "velocity": 80,
              "position": 2.0,
              "duration": 0.375
            },
            {
              "pitch": 55,
              "velocity": 80,
              "position": 2.0,
              "duration": 0.4
            },
            {
              "pitch": 48,
              "velocity": 69,
              "position": 2.5,
              "duration": 0.275
            },
            {
              "pitch": 55,
              "velocity": 52,
              "position": 2.5,
              "duration": 0.25
            },
            {
              "pitch": 48,
              "velocity": 87,
              "position": 3.5,
              "duration": 0.858333
            },
            {
              "pitch": 55,
              "velocity": 87,
              "position": 3.5,
              "duration": 0.85
            },
            {
              "pitch": 48,
              "velocity": 54,
              "position": 4.5,
              "duration": 0.275
            },
            {
              "pitch": 48,
              "velocity": 68,
              "position": 5.0,
              "duration": 0.266667
            },
            {
              "pitch": 55,
              "velocity": 78,
              "position": 5.0,
              "duration": 0.25
            },
            {
              "pitch": 48,
              "velocity": 80,
              "position": 6.0,
              "duration": 0.375
            },
            {
              "pitch": 55,
              "velocity": 80,
              "position": 6.0,
              "duration": 0.4
            },
            {
              "pitch": 48,
              "velocity": 69,
              "position": 6.5,
              "duration": 0.275
            },
            {
              "pitch": 55,
              "velocity": 52,
              "position": 6.5,
              "duration": 0.25
            },
            {
              "pitch": 48,
              "velocity": 82,
              "position": 7.5,
              "duration": 0.858333
            },
            {
              "pitch": 55,
              "velocity": 82,
              "position": 7.5,
              "duration": 0.85
            },
            {
              "pitch": 48,
              "velocity": 63,
              "position": 9.0,
              "duration": 0.266667
            },
            {
              "pitch": 55,
              "velocity": 73,
              "position": 9.0,
              "duration": 0.25
            },
            {
              "pitch": 48,
              "velocity": 67,
              "position": 10.0,
              "duration": 0.333333
            },
            {
              "pitch": 55,
              "velocity": 68,
              "position": 10.0,
              "duration": 0.375
            },
            {
              "pitch": 48,
              "velocity": 57,
              "position": 10.5,
              "duration": 0.233333
            },
            {
              "pitch": 55,
              "velocity": 65,
              "position": 10.5,
              "duration": 0.166667
            },
            {
              "pitch": 48,
              "velocity": 81,
              "position": 11.5,
              "duration": 0.875
            },
            {
              "pitch": 55,
              "velocity": 85,
              "position": 11.5,
              "duration": 0.875
            },
            {
              "pitch": 48,
              "velocity": 62,
              "position": 12.5,
              "duration": 0.25
            },
            {
              "pitch": 55,
              "velocity": 73,
              "position": 12.5,
              "duration": 0.233333
            },
            {
              "pitch": 48,
              "velocity": 77,
              "position": 13.0,
              "duration": 0.316667
            },
            {
              "pitch": 55,
              "velocity": 84,
              "position": 13.0,
              "duration": 0.291667
            },
            {
              "pitch": 48,
              "velocity": 74,
              "position": 13.5,
              "duration": 0.225
            },
            {
              "pitch": 55,
              "velocity": 60,
              "position": 13.5,
              "duration": 0.266667
            },
            {
              "pitch": 48,
              "velocity": 75,
              "position": 14.0,
              "duration": 0.375
            },
            {
              "pitch": 55,
              "velocity": 80,
              "position": 14.0,
              "duration": 0.391667
            },
            {
              "pitch": 48,
              "velocity": 63,
              "position": 14.5,
              "duration": 0.225
            },
            {
              "pitch": 55,
              "velocity": 69,
              "position": 14.5,
              "duration": 0.225
            },
            {
              "pitch": 48,
              "velocity": 83,
              "position": 15.5,
              "duration": 0.75
            },
            {
              "pitch": 55,
              "velocity": 83,
              "position": 15.5,
              "duration": 0.725
            }
          ]
        },
        "13": {
          "ctab": {
            "srcChannel": 13,
            "name": "Strings",
            "accType": "PAD",
            "editable": true,
            "mutedNotes": [],
            "mutedChords": [],
            "sourceChordNote": 0,
            "sourceChordType": "Maj7",
            "ctb2Main": {
              "ntr": "ROOT_FIXED",
              "ntt": "MELODY",
              "bassOn": false,
              "noteLowLimit": 36,
              "noteHighLimit": 96,
              "chordRootUpperLimit": 127,
              "rtr": "PITCH_SHIFT"
            }
          },
          "notes": [
            {
              "pitch": 48,
              "velocity": 59,
              "position": 0.491667,
              "duration": 0.208333
            },
            {
              "pitch": 55,
              "velocity": 53,
              "position": 0.55,
              "duration": 0.208333
            },
            {
              "pitch": 60,
              "velocity": 47,
              "position": 0.55,
              "duration": 0.25
            },
            {
              "pitch": 48,
              "velocity": 81,
              "position": 1.033333,
              "duration": 0.35
            },
            {
              "pitch": 55,
              "velocity": 79,
              "position": 1.033333,
              "duration": 0.416667
            },
            {
              "pitch": 60,
              "velocity": 64,
              "position": 1.033333,
              "duration": 0.458333
            },
            {
              "pitch": 48,
              "velocity": 85,
              "position": 2.0,
              "duration": 0.316667
            },
            {
              "pitch": 55,
              "velocity": 91,
              "position": 2.0,
              "duration": 0.25
            },
            {
              "pitch": 60,
              "velocity": 85,
              "position": 2.0,
              "duration": 0.3
            },
            {
              "pitch": 48,
              "velocity": 61,
              "position": 2.5,
              "duration": 0.291667
            },
            {
              "pitch": 55,
              "velocity": 51,
              "position": 2.5,
              "duration": 0.208333
            },
            {
              "pitch": 60,
              "velocity": 49,
              "position": 2.5,
              "duration": 0.4
            },
            {
              "pitch": 48,
              "velocity": 94,
              "position": 3.5,
              "duration": 0.783333
            },
            {
              "pitch": 55,
              "velocity": 100,
              "position": 3.5,
              "duration": 0.825
            },
            {
              "pitch": 60,
              "velocity": 94,
              "position": 3.5,
              "duration": 0.85
            },
            {
              "pitch": 48,
              "velocity": 59,
              "position": 4.5,
              "duration": 0.208333
            },
            {
              "pitch": 55,
              "velocity": 53,
              "position": 4.5,
              "duration": 0.208333
            },
            {
              "pitch": 60,
              "velocity": 47,
              "position": 4.5,
              "duration": 0.25
            },
            {
              "pitch": 48,
              "velocity": 81,
              "position": 5.0,
              "duration": 0.35
            },
            {
              "pitch": 55,
              "velocity": 79,
              "position": 5.0,
              "duration": 0.416667
            },
            {
              "pitch": 60,
              "velocity": 64,
              "position": 5.0,
              "duration": 0.458333
            },
            {
              "pitch": 48,
              "velocity": 82,
              "position": 6.0,
              "duration": 0.3
            },
            {
              "pitch": 55,
              "velocity": 88,
              "position": 6.0,
              "duration": 0.341667
            },
            {
              "pitch": 60,
              "velocity": 82,
              "position": 6.0,
              "duration": 0.366667
            },
            {
              "pitch": 48,
              "velocity": 58,
              "position": 6.5,
              "duration": 0.4
            },
            {
              "pitch": 55,
              "velocity": 52,
              "position": 6.5,
              "duration": 0.208333
            },
            {
              "pitch": 60,
              "velocity": 46,
              "position": 6.5,
              "duration": 0.4
            },
            {
              "pitch": 48,
              "velocity": 80,
              "position": 7.0,
              "duration": 0.35
            },
            {
              "pitch": 55,
              "velocity": 78,
              "position": 7.0,
              "duration": 0.416667
            },
            {
              "pitch": 48,
              "velocity": 87,
              "position": 7.5,
              "duration": 0.825
            },
            {
              "pitch": 55,
              "velocity": 89,
              "position": 7.5,
              "duration": 0.866667
            },
            {
              "pitch": 60,
              "velocity": 82,
              "position": 7.5,
              "duration": 0.825
            },
            {
              "pitch": 48,
              "velocity": 62,
              "position": 8.966667,
              "duration": 0.375
            },
            {
              "pitch": 55,
              "velocity": 73,
              "position": 8.975,
              "duration": 0.416667
            },
            {
              "pitch": 60,
              "velocity": 68,
              "position": 8.975,
              "duration": 0.483333
            },
            {
              "pitch": 48,
              "velocity": 77,
              "position": 9.983333,
              "duration": 0.358333
            },
            {
              "pitch": 55,
              "velocity": 79,
              "position": 9.983333,
              "duration": 0.4
            },
            {
              "pitch": 60,
              "velocity": 76,
              "position": 9.983333,
              "duration": 0.416667
            },
            {
              "pitch": 48,
              "velocity": 64,
              "position": 10.525,
              "duration": 0.166667
            },
            {
              "pitch": 55,
              "velocity": 62,
              "position": 10.566667,
              "duration": 0.166667
            },
            {
              "pitch": 60,
              "velocity": 51,
              "position": 10.566667,
              "duration": 0.233333
            },
            {
              "pitch": 48,
              "velocity": 81,
              "position": 11.483333,
              "duration": 0.791667
            },
            {
              "pitch": 55,
              "velocity": 82,
              "position": 11.483333,
              "duration": 0.816667
            },
            {
              "pitch": 60,
              "velocity": 76,
              "position": 11.483333,
              "duration": 0.816667
            },
            {
              "pitch": 48,
              "velocity": 57,
              "position": 12.483333,
              "duration": 0.166667
            },
            {
              "pitch": 55,
              "velocity": 61,
              "position": 12.525,
              "duration": 0.166667
            },
            {
              "pitch": 60,
              "velocity": 52,
              "position": 12.525,
              "duration": 0.208333
            },
            {
              "pitch": 55,
              "velocity": 81,
              "position": 13.025,
              "duration": 0.233333
            },
            {
              "pitch": 60,
              "velocity": 74,
              "position": 13.025,
              "duration": 0.316667
            },
            {
              "pitch": 48,
              "velocity": 81,
              "position": 13.05,
              "duration": 0.208333
            },
            {
              "pitch": 48,
              "velocity": 79,
              "position": 14.008333,
              "duration": 0.208333
            },
            {
              "pitch": 55,
              "velocity": 82,
              "position": 14.025,
              "duration": 0.166667
            },
            {
              "pitch": 60,
              "velocity": 73,
              "position": 14.025,
              "duration": 0.208333
            },
            {
              "pitch": 48,
              "velocity": 54,
              "position": 14.466667,
              "duration": 0.166667
            },
            {
              "pitch": 55,
              "velocity": 62,
              "position": 14.466667,
              "duration": 0.166667
            },
            {
              "pitch": 60,
              "velocity": 39,
              "position": 14.508333,
              "duration": 0.166667
            },
            {
              "pitch": 55,
              "velocity": 74,
              "position": 14.983333,
              "duration": 0.166667
            },
            {
              "pitch": 60,
              "velocity": 69,
              "position": 14.983333,
              "duration": 0.233333
            },
            {
              "pitch": 48,
              "velocity": 86,
              "position": 15.008333,
              "duration": 0.166667
            },
            {
              "pitch": 48,
              "velocity": 94,
              "position": 15.5,
              "duration": 0.783333
            },
            {
              "pitch": 55,
              "velocity": 100,
              "position": 15.5,
              "duration": 0.825
            },
            {
              "pitch": 60,
              "velocity": 94,
              "position": 15.5,
              "duration": 0.85
            }
          ]
        }
      }
    },
    "Main_C": {
      "type": "Main_C",
      "sizeInBeats": 16,
      "channels": {
        "9": {
          "ctab": {
            "srcChannel": 9,
            "name": "Drums",
            "accType": "RHYTHM",
            "editable": false,
            "mutedNotes": [],
            "mutedChords": [],
            "sourceChordNote": 0,
            "sourceChordType": "Maj",
            "ctb2Main": {
              "ntr": "ROOT_FIXED",
              "ntt": "BYPASS",
              "bassOn": false,
              "noteLowLimit": 20,
              "noteHighLimit": 127,
              "chordRootUpperLimit": 127,
              "rtr": "RETRIGGER"
            }
          },
          "notes": [
            {
              "pitch": 42,
              "velocity": 102,
              "position": 0.0,
              "duration": 0.208333
            },
            {
              "pitch": 56,
              "velocity": 92,
              "position": 0.0,
              "duration": 0.208333
            },
            {
              "pitch": 35,
              "velocity": 102,
              "position": 0.5,
              "duration": 0.208333
            },
            {
              "pitch": 42,
              "velocity": 92,
              "position": 0.5,
              "duration": 0.208333
            },
            {
              "pitch": 35,
              "velocity": 112,
              "position": 1.0,
              "duration": 0.208333
            },
            {
              "pitch": 38,
              "velocity": 112,
              "position": 1.0,
              "duration": 0.208333
            },
            {
              "pitch": 42,
              "velocity": 102,
              "position": 1.0,
              "duration": 0.208333
            },
            {
              "pitch": 56,
              "velocity": 92,
              "position": 1.0,
              "duration": 0.208333
            },
            {
              "pitch": 42,
              "velocity": 92,
              "position": 1.5,
              "duration": 0.208333
            },
            {
              "pitch": 35,
              "velocity": 112,
              "position": 2.0,
              "duration": 0.208333
            },
            {
              "pitch": 42,
              "velocity": 102,
              "position": 2.0,
              "duration": 0.208333
            },
            {
              "pitch": 56,
              "velocity": 92,
              "position": 2.0,
              "duration": 0.208333
            },
            {
              "pitch": 35,
              "velocity": 82,
              "position": 2.5,
              "duration": 0.208333
            },
            {
              "pitch": 42,
              "velocity": 92,
              "position": 2.5,
              "duration": 0.208333
            },
            {
              "pitch": 38,
              "velocity": 112,
              "position": 3.0,
              "duration": 0.208333
            },
            {
              "pitch": 42,
              "velocity": 122,
              "position": 3.0,
              "duration": 0.208333
            },
            {
              "pitch": 56,
              "velocity": 92,
              "position": 3.0,
              "duration": 0.208333
            },
            {
              "pitch": 35,
              "velocity": 102,
              "position": 3.5,
              "duration": 0.208333
            },
            {
              "pitch": 42,
              "velocity": 82,
              "position": 3.5,
              "duration": 0.208333
            },
            {
              "pitch": 52,
              "velocity": 102,
              "position": 3.5,
              "duration": 0.208333
            },
            {
              "pitch": 42,
              "velocity": 127,
              "position": 4.0,
              "duration": 0.208333
            },
            {
              "pitch": 56,
              "velocity": 88,
              "position": 4.0,
              "duration": 0.208333
            },
            {
              "pitch": 35,
              "velocity": 98,
              "position": 4.5,
              "duration": 0.208333
            },
            {
              "pitch": 42,
              "velocity": 88,
              "position": 4.5,
              "duration": 0.208333
            },
            {
              "pitch": 35,
              "velocity": 108,
              "position": 5.0,
              "duration": 0.208333
            },
            {
              "pitch": 38,
              "velocity": 108,
              "position": 5.0,
              "duration": 0.208333
            },
            {
              "pitch": 42,
              "velocity": 98,
              "position": 5.0,
              "duration": 0.208333
            },
            {
              "pitch": 56,
              "velocity": 88,
              "position": 5.0,
              "duration": 0.208333
            },
            {
              "pitch": 42,
              "velocity": 108,
              "position": 5.5,
              "duration": 0.208333
            },
            {
              "pitch": 35,
              "velocity": 108,
              "position": 6.0,
              "duration": 0.208333
            },
            {
              "pitch": 42,
              "velocity": 98,
              "position": 6.0,
              "duration": 0.208333
            },
            {
              "pitch": 56,
              "velocity": 88,
              "position": 6.0,
              "duration": 0.208333
            },
            {
              "pitch": 35,
              "velocity": 78,
              "position": 6.5,
              "duration": 0.208333
            },
            {
              "pitch": 42,
              "velocity": 88,
              "position": 6.5,
              "duration": 0.208333
            },
            {
              "pitch": 38,
              "velocity": 108,
              "position": 7.0,
              "duration": 0.208333
            },
            {
              "pitch": 46,
              "velocity": 127,
              "position": 7.0,
              "duration": 0.208333
            },
            {
              "pitch": 56,
              "velocity": 88,
              "position": 7.0,
              "duration": 0.208333
            },
            {
              "pitch": 35,
              "velocity": 98,
              "position": 7.5,
              "duration": 0.208333
            },
            {
              "pitch": 42,
              "velocity": 78,
              "position": 7.5,
              "duration": 0.208333
            },
            {
              "pitch": 42,
              "velocity": 102,
              "position": 8.0,
              "duration": 0.208333
            },
            {
              "pitch": 56,
              "velocity": 92,
              "position": 8.0,
              "duration": 0.208333
            },
            {
              "pitch": 35,
              "velocity": 102,
              "position": 8.5,
              "duration": 0.208333
            },
            {
              "pitch": 42,
              "velocity": 92,
              "position": 8.5,
              "duration": 0.208333
            },
            {
              "pitch": 35,
              "velocity": 112,
              "position": 9.0,
              "duration": 0.208333
            },
            {
              "pitch": 38,
              "velocity": 112,
              "position": 9.0,
              "duration": 0.208333
            },
            {
              "pitch": 42,
              "velocity": 102,
              "position": 9.0,
              "duration": 0.208333
            },
            {
              "pitch": 56,
              "velocity": 92,
              "position": 9.0,
              "duration": 0.208333
            },
            {
              "pitch": 42,
              "velocity": 92,
              "position": 9.5,
              "duration": 0.208333
            },
            {
              "pitch": 35,
              "velocity": 112,
              "position": 10.0,
              "duration": 0.208333
            },
            {
              "pitch": 42,
              "velocity": 102,
              "position": 10.0,
              "duration": 0.208333
            },
            {
              "pitch": 56,
              "velocity": 92,
              "position": 10.0,
              "duration": 0.208333
            },
            {
              "pitch": 35,
              "velocity": 82,
              "position": 10.5,
              "duration": 0.208333
            },
            {
              "pitch": 42,
              "velocity": 92,
              "position": 10.5,
              "duration": 0.208333
            },
            {
              "pitch": 38,
              "velocity": 112,
              "position": 11.0,
              "duration": 0.208333
            },
            {
              "pitch": 42,
              "velocity": 122,
              "position": 11.0,
              "duration": 0.208333
            },
            {
              "pitch": 56,
              "velocity": 92,
              "position": 11.0,
              "duration": 0.208333
            },
            {
              "pitch": 35,
              "velocity": 102,
              "position": 11.5,
              "duration": 0.208333
            },
            {
              "pitch": 42,
              "velocity": 82,
              "position": 11.5,
              "duration": 0.208333
            },
            {
              "pitch": 52,
              "velocity": 102,
              "position": 11.5,
              "duration": 0.208333
            },
            {
              "pitch": 42,
              "velocity": 97,
              "position": 12.0,
              "duration": 0.208333
            },
            {
              "pitch": 56,
              "velocity": 97,
              "position": 12.0,
              "duration": 0.208333
            },
            {
              "pitch": 35,
              "velocity": 107,
              "position": 12.5,
              "duration": 0.208333
            },
            {
              "pitch": 38,
              "velocity": 97,
              "position": 12.5,
              "duration": 0.208333
            },
            {
              "pitch": 42,
              "velocity": 107,
              "position": 12.5,
              "duration": 0.208333
            },
            {
              "pitch": 35,
              "velocity": 87,
              "position": 13.0,
              "duration": 0.208333
            },
            {
              "pitch": 38,
              "velocity": 107,
              "position": 13.0,
              "duration": 0.208333
            },
            {
              "pitch": 42,
              "velocity": 97,
              "position": 13.0,
              "duration": 0.208333
            },
            {
              "pitch": 56,
              "velocity": 97,
              "position": 13.0,
              "duration": 0.208333
            },
            {
              "pitch": 35,
              "velocity": 67,
              "position": 13.5,
              "duration": 0.208333
            },
            {
              "pitch": 38,
              "velocity": 67,
              "position": 13.5,
              "duration": 0.208333
            },
            {
              "pitch": 46,
              "velocity": 87,
              "position": 13.5,
              "duration": 0.208333
            },
            {
              "pitch": 35,
              "velocity": 107,
              "position": 14.0,
              "duration": 0.208333
            },
            {
              "pitch": 38,
              "velocity": 107,
              "position": 14.0,
              "duration": 0.208333
            },
            {
              "pitch": 46,
              "velocity": 107,
              "position": 14.0,
              "duration": 0.208333
            },
            {
              "pitch": 56,
              "velocity": 107,
              "position": 14.0,
              "duration": 0.208333
            },
            {
              "pitch": 35,
              "velocity": 87,
              "position": 14.5,
              "duration": 0.208333
            },
            {
              "pitch": 38,
              "velocity": 97,
              "position": 14.5,
              "duration": 0.208333
            },
            {
              "pitch": 46,
              "velocity": 87,
              "position": 14.5,
              "duration": 0.208333
            },
            {
              "pitch": 35,
              "velocity": 97,
              "position": 15.0,
              "duration": 0.208333
            },
            {
              "pitch": 38,
              "velocity": 97,
              "position": 15.0,
              "duration": 0.208333
            },
            {
              "pitch": 46,
              "velocity": 107,
              "position": 15.0,
              "duration": 0.208333
            },
            {
              "pitch": 56,
              "velocity": 107,
              "position": 15.0,
              "duration": 0.208333
            },
            {
              "pitch": 35,
              "velocity": 107,
              "position": 15.5,
              "duration": 0.208333
            },
            {
              "pitch": 38,
              "velocity": 122,
              "position": 15.5,
              "duration": 0.208333
            },
            {
              "pitch": 46,
              "velocity": 122,
              "position": 15.5,
              "duration": 0.208333
            },
            {
              "pitch": 52,
              "velocity": 107,
              "position": 15.5,
              "duration": 0.208333
            },
            {
              "pitch": 57,
              "velocity": 107,
              "position": 15.5,
              "duration": 0.208333
            }
          ]
        },
        "10": {
          "ctab": {
            "srcChannel": 10,
            "name": "Bass",
            "accType": "BASS",
            "editable": true,
            "mutedNotes": [],
            "mutedChords": [],
            "sourceChordNote": 0,
            "sourceChordType": "Maj7",
            "ctb2Main": {
              "ntr": "ROOT_TRANSPOSITION",
              "ntt": "BYPASS",
              "bassOn": true,
              "noteLowLimit": 20,
              "noteHighLimit": 60,
              "chordRootUpperLimit": 127,
              "rtr": "NOTE_GENERATOR"
            }
          },
          "notes": [
            {
              "pitch": 36,
              "velocity": 106,
              "position": 0.5,
              "duration": 0.266667
            },
            {
              "pitch": 36,
              "velocity": 87,
              "position": 1.0,
              "duration": 0.316667
            },
            {
              "pitch": 36,
              "velocity": 111,
              "position": 1.5,
              "duration": 0.85
            },
            {
              "pitch": 36,
              "velocity": 88,
              "position": 2.5,
              "duration": 0.266667
            },
            {
              "pitch": 36,
              "velocity": 111,
              "position": 3.5,
              "duration": 0.825
            },
            {
              "pitch": 36,
              "velocity": 106,
              "position": 4.5,
              "duration": 0.266667
            },
            {
              "pitch": 36,
              "velocity": 87,
              "position": 5.0,
              "duration": 0.316667
            },
            {
              "pitch": 36,
              "velocity": 111,
              "position": 5.5,
              "duration": 0.85
            },
            {
              "pitch": 36,
              "velocity": 88,
              "position": 6.5,
              "duration": 0.266667
            },
            {
              "pitch": 36,
              "velocity": 100,
              "position": 8.0,
              "duration": 0.341667
            },
            {
              "pitch": 36,
              "velocity": 106,
              "position": 8.5,
              "duration": 0.266667
            },
            {
              "pitch": 36,
              "velocity": 87,
              "position": 9.0,
              "duration": 0.316667
            },
            {
              "pitch": 36,
              "velocity": 101,
              "position": 10.0,
              "duration": 0.4
            },
            {
              "pitch": 36,
              "velocity": 91,
              "position": 10.5,
              "duration": 0.225
            },
            {
              "pitch": 36,
              "velocity": 109,
              "position": 11.5,
              "duration": 0.816667
            },
            {
              "pitch": 36,
              "velocity": 85,
              "position": 12.5,
              "duration": 0.25
            },
            {
              "pitch": 36,
              "velocity": 100,
              "position": 13.0,
              "duration": 0.308333
            },
            {
              "pitch": 36,
              "velocity": 103,
              "position": 14.0,
              "duration": 0.391667
            },
            {
              "pitch": 36,
              "velocity": 103,
              "position": 14.5,
              "duration": 0.275
            }
          ]
        },
        "11": {
          "ctab": {
            "srcChannel": 11,
            "name": "Piano",
            "accType": "CHORD1",
            "editable": true,
            "mutedNotes": [],
            "mutedChords": [],
            "sourceChordNote": 0,
            "sourceChordType": "Maj7",
            "ctb2Main": {
              "ntr": "ROOT_FIXED",
              "ntt": "CHORD",
              "bassOn": false,
              "noteLowLimit": 48,
              "noteHighLimit": 84,
              "chordRootUpperLimit": 127,
              "rtr": "NOTE_GENERATOR"
            }
          },
          "notes": [
            {
              "pitch": 64,
              "velocity": 54,
              "position": 0.5,
              "duration": 0.4
            },
            {
              "pitch": 71,
              "velocity": 64,
              "position": 0.5,
              "duration": 0.166667
            },
            {
              "pitch": 48,
              "velocity": 90,
              "position": 1.0,
              "duration": 0.316667
            },
            {
              "pitch": 55,
              "velocity": 90,
              "position": 1.0,
              "duration": 0.3
            },
            {
              "pitch": 60,
              "velocity": 71,
              "position": 1.0,
              "duration": 0.35
            },
            {
              "pitch": 64,
              "velocity": 100,
              "position": 1.0,
              "duration": 0.4
            },
            {
              "pitch": 71,
              "velocity": 101,
              "position": 1.0,
              "duration": 0.4
            },
            {
              "pitch": 48,
              "velocity": 71,
              "position": 1.5,
              "duration": 0.291667
            },
            {
              "pitch": 48,
              "velocity": 90,
              "position": 2.0,
              "duration": 0.4
            },
            {
              "pitch": 55,
              "velocity": 90,
              "position": 2.0,
              "duration": 0.4
            },
            {
              "pitch": 60,
              "velocity": 89,
              "position": 2.0,
              "duration": 0.4
            },
            {
              "pitch": 67,
              "velocity": 109,
              "position": 2.0,
              "duration": 0.4
            },
            {
              "pitch": 71,
              "velocity": 110,
              "position": 2.0,
              "duration": 0.4
            },
            {
              "pitch": 48,
              "velocity": 44,
              "position": 2.5,
              "duration": 0.241667
            },
            {
              "pitch": 55,
              "velocity": 81,
              "position": 2.5,
              "duration": 0.216667
            },
            {
              "pitch": 60,
              "velocity": 59,
              "position": 2.5,
              "duration": 0.3
            },
            {
              "pitch": 67,
              "velocity": 100,
              "position": 2.5,
              "duration": 0.275
            },
            {
              "pitch": 71,
              "velocity": 54,
              "position": 2.5,
              "duration": 0.25
            },
            {
              "pitch": 48,
              "velocity": 90,
              "position": 3.5,
              "duration": 0.9
            },
            {
              "pitch": 55,
              "velocity": 90,
              "position": 3.5,
              "duration": 0.958333
            },
            {
              "pitch": 60,
              "velocity": 89,
              "position": 3.5,
              "duration": 1.125
            },
            {
              "pitch": 67,
              "velocity": 109,
              "position": 3.5,
              "duration": 0.733333
            },
            {
              "pitch": 71,
              "velocity": 110,
              "position": 3.5,
              "duration": 0.733333
            },
            {
              "pitch": 67,
              "velocity": 54,
              "position": 4.5,
              "duration": 0.4
            },
            {
              "pitch": 71,
              "velocity": 64,
              "position": 4.5,
              "duration": 0.166667
            },
            {
              "pitch": 48,
              "velocity": 90,
              "position": 5.0,
              "duration": 0.4
            },
            {
              "pitch": 55,
              "velocity": 90,
              "position": 5.0,
              "duration": 0.4
            },
            {
              "pitch": 60,
              "velocity": 71,
              "position": 5.0,
              "duration": 0.35
            },
            {
              "pitch": 67,
              "velocity": 100,
              "position": 5.0,
              "duration": 0.4
            },
            {
              "pitch": 71,
              "velocity": 101,
              "position": 5.0,
              "duration": 0.4
            },
            {
              "pitch": 60,
              "velocity": 71,
              "position": 5.5,
              "duration": 0.291667
            },
            {
              "pitch": 48,
              "velocity": 90,
              "position": 6.0,
              "duration": 0.35
            },
            {
              "pitch": 55,
              "velocity": 90,
              "position": 6.0,
              "duration": 0.366667
            },
            {
              "pitch": 60,
              "velocity": 89,
              "position": 6.0,
              "duration": 0.741667
            },
            {
              "pitch": 67,
              "velocity": 109,
              "position": 6.0,
              "duration": 0.4
            },
            {
              "pitch": 71,
              "velocity": 110,
              "position": 6.0,
              "duration": 0.375
            },
            {
              "pitch": 48,
              "velocity": 44,
              "position": 6.5,
              "duration": 0.241667
            },
            {
              "pitch": 55,
              "velocity": 81,
              "position": 6.5,
              "duration": 0.216667
            },
            {
              "pitch": 67,
              "velocity": 100,
              "position": 6.5,
              "duration": 0.4
            },
            {
              "pitch": 71,
              "velocity": 54,
              "position": 6.5,
              "duration": 0.25
            },
            {
              "pitch": 67,
              "velocity": 98,
              "position": 7.5,
              "duration": 0.8
            },
            {
              "pitch": 48,
              "velocity": 78,
              "position": 7.516667,
              "duration": 1.108333
            },
            {
              "pitch": 55,
              "velocity": 78,
              "position": 7.516667,
              "duration": 1.091667
            },
            {
              "pitch": 64,
              "velocity": 81,
              "position": 7.516667,
              "duration": 0.75
            },
            {
              "pitch": 71,
              "velocity": 94,
              "position": 7.516667,
              "duration": 0.758333
            },
            {
              "pitch": 67,
              "velocity": 59,
              "position": 8.525,
              "duration": 0.166667
            },
            {
              "pitch": 64,
              "velocity": 61,
              "position": 8.55,
              "duration": 0.141667
            },
            {
              "pitch": 71,
              "velocity": 51,
              "position": 8.55,
              "duration": 0.166667
            },
            {
              "pitch": 71,
              "velocity": 96,
              "position": 9.025,
              "duration": 0.208333
            },
            {
              "pitch": 64,
              "velocity": 80,
              "position": 9.05,
              "duration": 0.183333
            },
            {
              "pitch": 67,
              "velocity": 95,
              "position": 9.05,
              "duration": 0.125
            },
            {
              "pitch": 67,
              "velocity": 64,
              "position": 9.508333,
              "duration": 0.183333
            },
            {
              "pitch": 64,
              "velocity": 43,
              "position": 9.525,
              "duration": 0.208333
            },
            {
              "pitch": 71,
              "velocity": 65,
              "position": 9.525,
              "duration": 0.191667
            },
            {
              "pitch": 67,
              "velocity": 95,
              "position": 10.008333,
              "duration": 0.208333
            },
            {
              "pitch": 71,
              "velocity": 86,
              "position": 10.008333,
              "duration": 0.25
            },
            {
              "pitch": 64,
              "velocity": 80,
              "position": 10.025,
              "duration": 0.233333
            },
            {
              "pitch": 67,
              "velocity": 53,
              "position": 10.55,
              "duration": 0.125
            },
            {
              "pitch": 71,
              "velocity": 57,
              "position": 10.55,
              "duration": 0.125
            },
            {
              "pitch": 64,
              "velocity": 31,
              "position": 10.566667,
              "duration": 0.083333
            },
            {
              "pitch": 64,
              "velocity": 55,
              "position": 11.008333,
              "duration": 0.141667
            },
            {
              "pitch": 71,
              "velocity": 85,
              "position": 11.008333,
              "duration": 0.141667
            },
            {
              "pitch": 67,
              "velocity": 72,
              "position": 11.025,
              "duration": 0.083333
            },
            {
              "pitch": 64,
              "velocity": 93,
              "position": 11.525,
              "duration": 0.316667
            },
            {
              "pitch": 67,
              "velocity": 109,
              "position": 11.525,
              "duration": 0.275
            },
            {
              "pitch": 71,
              "velocity": 109,
              "position": 11.525,
              "duration": 0.275
            },
            {
              "pitch": 67,
              "velocity": 37,
              "position": 12.025,
              "duration": 0.15
            },
            {
              "pitch": 64,
              "velocity": 30,
              "position": 12.05,
              "duration": 0.141667
            },
            {
              "pitch": 71,
              "velocity": 34,
              "position": 12.05,
              "duration": 0.125
            },
            {
              "pitch": 64,
              "velocity": 54,
              "position": 12.508333,
              "duration": 0.166667
            },
            {
              "pitch": 67,
              "velocity": 74,
              "position": 12.508333,
              "duration": 0.141667
            },
            {
              "pitch": 71,
              "velocity": 74,
              "position": 12.508333,
              "duration": 0.141667
            },
            {
              "pitch": 71,
              "velocity": 101,
              "position": 13.008333,
              "duration": 0.25
            },
            {
              "pitch": 64,
              "velocity": 81,
              "position": 13.025,
              "duration": 0.233333
            },
            {
              "pitch": 67,
              "velocity": 101,
              "position": 13.025,
              "duration": 0.191667
            },
            {
              "pitch": 48,
              "velocity": 84,
              "position": 13.483333,
              "duration": 0.333333
            },
            {
              "pitch": 64,
              "velocity": 82,
              "position": 14.008333,
              "duration": 0.25
            },
            {
              "pitch": 67,
              "velocity": 100,
              "position": 14.008333,
              "duration": 0.208333
            },
            {
              "pitch": 71,
              "velocity": 101,
              "position": 14.008333,
              "duration": 0.25
            },
            {
              "pitch": 67,
              "velocity": 81,
              "position": 14.508333,
              "duration": 0.208333
            },
            {
              "pitch": 64,
              "velocity": 64,
              "position": 14.525,
              "duration": 0.191667
            },
            {
              "pitch": 71,
              "velocity": 80,
              "position": 14.525,
              "duration": 0.191667
            },
            {
              "pitch": 64,
              "velocity": 81,
              "position": 15.025,
              "duration": 0.191667
            },
            {
              "pitch": 67,
              "velocity": 101,
              "position": 15.025,
              "duration": 0.166667
            },
            {
              "pitch": 71,
              "velocity": 98,
              "position": 15.025,
              "duration": 0.208333
            },
            {
              "pitch": 48,
              "velocity": 90,
              "position": 15.5,
              "duration": 0.9
            },
            {
              "pitch": 55,
              "velocity": 90,
              "position": 15.5,
              "duration": 0.958333
            },
            {
              "pitch": 60,
              "velocity": 89,
              "position": 15.5,
              "duration": 1.125
            },
            {
              "pitch": 67,
              "velocity": 109,
              "position": 15.5,
              "duration": 0.733333
            },
            {
              "pitch": 71,
              "velocity": 110,
              "position": 15.5,
              "duration": 0.733333
            }
          ]
        },
        "12": {
          "ctab": {
            "srcChannel": 12,
            "name": "Guitar",
            "accType": "CHORD2",
            "editable": true,
            "mutedNotes": [],
            "mutedChords": [],
            "sourceChordNote": 0,
            "sourceChordType": "Maj7",
            "ctb2Main": {
              "ntr": "ROOT_FIXED",
              "ntt": "CHORD",
              "bassOn": false,
              "noteLowLimit": 40,
              "noteHighLimit": 76,
              "chordRootUpperLimit": 127,
              "rtr": "NOTE_GENERATOR"
            }
          },
          "notes": [
            {
              "pitch": 48,
              "velocity": 64,
              "position": 1.0,
              "duration": 0.266667
            },
            {
              "pitch": 55,
              "velocity": 74,
              "position": 1.0,
              "duration": 0.25
            },
            {
              "pitch": 48,
              "velocity": 80,
              "position": 2.0,
              "duration": 0.375
            },
            {
              "pitch": 55,
              "velocity": 80,
              "position": 2.0,
              "duration": 0.4
            },
            {
              "pitch": 48,
              "velocity": 69,
              "position": 2.5,
              "duration": 0.275
            },
            {
              "pitch": 55,
              "velocity": 52,
              "position": 2.5,
              "duration": 0.25
            },
            {
              "pitch": 48,
              "velocity": 87,
              "position": 3.5,
              "duration": 0.858333
            },
            {
              "pitch": 55,
              "velocity": 87,
              "position": 3.5,
              "duration": 0.85
            },
            {
              "pitch": 48,
              "velocity": 54,
              "position": 4.5,
              "duration": 0.275
            },
            {
              "pitch": 48,
              "velocity": 68,
              "position": 5.0,
              "duration": 0.266667
            },
            {
              "pitch": 55,
              "velocity": 78,
              "position": 5.0,
              "duration": 0.25
            },
            {
              "pitch": 48,
              "velocity": 80,
              "position": 6.0,
              "duration": 0.375
            },
            {
              "pitch": 55,
              "velocity": 80,
              "position": 6.0,
              "duration": 0.4
            },
            {
              "pitch": 48,
              "velocity": 69,
              "position": 6.5,
              "duration": 0.275
            },
            {
              "pitch": 55,
              "velocity": 52,
              "position": 6.5,
              "duration": 0.25
            },
            {
              "pitch": 48,
              "velocity": 81,
              "position": 7.5,
              "duration": 0.858333
            },
            {
              "pitch": 55,
              "velocity": 81,
              "position": 7.5,
              "duration": 0.85
            },
            {
              "pitch": 48,
              "velocity": 62,
              "position": 9.0,
              "duration": 0.266667
            },
            {
              "pitch": 55,
              "velocity": 72,
              "position": 9.0,
              "duration": 0.25
            },
            {
              "pitch": 48,
              "velocity": 66,
              "position": 10.0,
              "duration": 0.333333
            },
            {
              "pitch": 55,
              "velocity": 67,
              "position": 10.0,
              "duration": 0.375
            },
            {
              "pitch": 48,
              "velocity": 56,
              "position": 10.5,
              "duration": 0.233333
            },
            {
              "pitch": 55,
              "velocity": 64,
              "position": 10.5,
              "duration": 0.166667
            },
            {
              "pitch": 48,
              "velocity": 80,
              "position": 11.5,
              "duration": 0.875
            },
            {
              "pitch": 55,
              "velocity": 84,
              "position": 11.5,
              "duration": 0.875
            },
            {
              "pitch": 48,
              "velocity": 61,
              "position": 12.5,
              "duration": 0.25
            },
            {
              "pitch": 55,
              "velocity": 72,
              "position": 12.5,
              "duration": 0.233333
            },
            {
              "pitch": 48,
              "velocity": 76,
              "position": 13.0,
              "duration": 0.316667
            },
            {
              "pitch": 55,
              "velocity": 83,
              "position": 13.0,
              "duration": 0.291667
            },
            {
              "pitch": 48,
              "velocity": 74,
              "position": 14.0,
              "duration": 0.375
            },
            {
              "pitch": 55,
              "velocity": 79,
              "position": 14.0,
              "duration": 0.391667
            },
            {
              "pitch": 48,
              "velocity": 62,
              "position": 14.5,
              "duration": 0.225
            },
            {
              "pitch": 55,
              "velocity": 68,
              "position": 14.5,
              "duration": 0.225
            },
            {
              "pitch": 48,
              "velocity": 83,
              "position": 15.5,
              "duration": 1.325
            },
            {
              "pitch": 55,
              "velocity": 83,
              "position": 15.5,
              "duration": 1.291667
            }
          ]
        },
        "13": {
          "ctab": {
            "srcChannel": 13,
            "name": "Strings",
            "accType": "PAD",
            "editable": true,
            "mutedNotes": [],
            "mutedChords": [],
            "sourceChordNote": 0,
            "sourceChordType": "Maj7",
            "ctb2Main": {
              "ntr": "ROOT_FIXED",
              "ntt": "MELODY",
              "bassOn": false,
              "noteLowLimit": 36,
              "noteHighLimit": 96,
              "chordRootUpperLimit": 127,
              "rtr": "PITCH_SHIFT"
            }
          },
          "notes": [
            {
              "pitch": 48,
              "velocity": 59,
              "position": 0.491667,
              "duration": 0.208333
            },
            {
              "pitch": 55,
              "velocity": 53,
              "position": 0.55,
              "duration": 0.208333
            },
            {
              "pitch": 60,
              "velocity": 47,
              "position": 0.55,
              "duration": 0.25
            },
            {
              "pitch": 48,
              "velocity": 81,
              "position": 1.033333,
              "duration": 0.35
            },
            {
              "pitch": 55,
              "velocity": 79,
              "position": 1.033333,
              "duration": 0.416667
            },
            {
              "pitch": 60,
              "velocity": 64,
              "position": 1.033333,
              "duration": 0.458333
            },
            {
              "pitch": 48,
              "velocity": 85,
              "position": 2.0,
              "duration": 0.316667
            },
            {
              "pitch": 55,
              "velocity": 91,
              "position": 2.0,
              "duration": 0.25
            },
            {
              "pitch": 60,
              "velocity": 85,
              "position": 2.0,
              "duration": 0.3
            },
            {
              "pitch": 48,
              "velocity": 61,
              "position": 2.5,
              "duration": 0.291667
            },
            {
              "pitch": 55,
              "velocity": 51,
              "position": 2.5,
              "duration": 0.208333
            },
            {
              "pitch": 60,
              "velocity": 49,
              "position": 2.5,
              "duration": 0.4
            },
            {
              "pitch": 48,
              "velocity": 85,
              "position": 3.5,
              "duration": 0.783333
            },
            {
              "pitch": 55,
              "velocity": 91,
              "position": 3.5,
              "duration": 0.825
            },
            {
              "pitch": 60,
              "velocity": 85,
              "position": 3.5,
              "duration": 0.85
            },
            {
              "pitch": 48,
              "velocity": 72,
              "position": 4.95,
              "duration": 0.35
            },
            {
              "pitch": 55,
              "velocity": 70,
              "position": 4.966667,
              "duration": 0.475
            },
            {
              "pitch": 60,
              "velocity": 55,
              "position": 4.966667,
              "duration": 0.458333
            },
            {
              "pitch": 48,
              "velocity": 85,
              "position": 6.0,
              "duration": 0.316667
            },
            {
              "pitch": 55,
              "velocity": 91,
              "position": 6.0,
              "duration": 0.25
            },
            {
              "pitch": 60,
              "velocity": 85,
              "position": 6.0,
              "duration": 0.3
            },
            {
              "pitch": 48,
              "velocity": 61,
              "position": 6.5,
              "duration": 0.291667
            },
            {
              "pitch": 55,
              "velocity": 51,
              "position": 6.5,
              "duration": 0.208333
            },
            {
              "pitch": 60,
              "velocity": 49,
              "position": 6.5,
              "duration": 0.4
            },
            {
              "pitch": 48,
              "velocity": 90,
              "position": 7.5,
              "duration": 0.783333
            },
            {
              "pitch": 55,
              "velocity": 96,
              "position": 7.5,
              "duration": 0.825
            },
            {
              "pitch": 60,
              "velocity": 90,
              "position": 7.5,
              "duration": 0.85
            },
            {
              "pitch": 48,
              "velocity": 55,
              "position": 8.491667,
              "duration": 0.208333
            },
            {
              "pitch": 55,
              "velocity": 49,
              "position": 8.55,
              "duration": 0.208333
            },
            {
              "pitch": 60,
              "velocity": 43,
              "position": 8.55,
              "duration": 0.25
            },
            {
              "pitch": 48,
              "velocity": 77,
              "position": 9.033333,
              "duration": 0.35
            },
            {
              "pitch": 55,
              "velocity": 75,
              "position": 9.033333,
              "duration": 0.416667
            },
            {
              "pitch": 60,
              "velocity": 60,
              "position": 9.033333,
              "duration": 0.458333
            },
            {
              "pitch": 60,
              "velocity": 67,
              "position": 9.991667,
              "duration": 0.375
            },
            {
              "pitch": 48,
              "velocity": 76,
              "position": 10.008333,
              "duration": 0.316667
            },
            {
              "pitch": 55,
              "velocity": 73,
              "position": 10.008333,
              "duration": 0.333333
            },
            {
              "pitch": 48,
              "velocity": 72,
              "position": 10.533333,
              "duration": 0.208333
            },
            {
              "pitch": 60,
              "velocity": 48,
              "position": 10.533333,
              "duration": 0.308333
            },
            {
              "pitch": 55,
              "velocity": 57,
              "position": 10.55,
              "duration": 0.208333
            },
            {
              "pitch": 60,
              "velocity": 77,
              "position": 11.508333,
              "duration": 0.833333
            },
            {
              "pitch": 48,
              "velocity": 82,
              "position": 11.533333,
              "duration": 0.766667
            },
            {
              "pitch": 55,
              "velocity": 80,
              "position": 11.533333,
              "duration": 0.791667
            },
            {
              "pitch": 48,
              "velocity": 67,
              "position": 12.508333,
              "duration": 0.191667
            },
            {
              "pitch": 55,
              "velocity": 61,
              "position": 12.533333,
              "duration": 0.166667
            },
            {
              "pitch": 60,
              "velocity": 50,
              "position": 12.533333,
              "duration": 0.225
            },
            {
              "pitch": 55,
              "velocity": 80,
              "position": 13.008333,
              "duration": 0.358333
            },
            {
              "pitch": 60,
              "velocity": 73,
              "position": 13.008333,
              "duration": 0.375
            },
            {
              "pitch": 48,
              "velocity": 84,
              "position": 13.033333,
              "duration": 0.308333
            },
            {
              "pitch": 60,
              "velocity": 74,
              "position": 13.966667,
              "duration": 0.458333
            },
            {
              "pitch": 48,
              "velocity": 81,
              "position": 13.991667,
              "duration": 0.35
            },
            {
              "pitch": 55,
              "velocity": 79,
              "position": 13.991667,
              "duration": 0.416667
            },
            {
              "pitch": 48,
              "velocity": 81,
              "position": 14.55,
              "duration": 0.25
            },
            {
              "pitch": 55,
              "velocity": 72,
              "position": 14.55,
              "duration": 0.275
            },
            {
              "pitch": 60,
              "velocity": 74,
              "position": 14.55,
              "duration": 0.316667
            },
            {
              "pitch": 48,
              "velocity": 94,
              "position": 15.5,
              "duration": 0.783333
            },
            {
              "pitch": 55,
              "velocity": 100,
              "position": 15.5,
              "duration": 0.825
            },
            {
              "pitch": 60,
              "velocity": 94,
              "position": 15.5,
              "duration": 0.85
            }
          ]
        }
      }
    },
    "Main_D": {
      "type": "Main_D",
      "sizeInBeats": 16,
      "channels": {
        "9": {
          "ctab": {
            "srcChannel": 9,
            "name": "Drums",
            "accType": "RHYTHM",
            "editable": false,
            "mutedNotes": [],
            "mutedChords": [],
            "sourceChordNote": 0,
            "sourceChordType": "Maj",
            "ctb2Main": {
              "ntr": "ROOT_FIXED",
              "ntt": "BYPASS",
              "bassOn": false,
              "noteLowLimit": 20,
              "noteHighLimit": 127,
              "chordRootUpperLimit": 127,
              "rtr": "RETRIGGER"
            }
          },
          "notes": [
            {
              "pitch": 42,
              "velocity": 98,
              "position": 0.0,
              "duration": 0.208333
            },
            {
              "pitch": 35,
              "velocity": 118,
              "position": 0.5,
              "duration": 0.208333
            },
            {
              "pitch": 38,
              "velocity": 108,
              "position": 0.5,
              "duration": 0.208333
            },
            {
              "pitch": 42,
              "velocity": 88,
              "position": 0.5,
              "duration": 0.208333
            },
            {
              "pitch": 52,
              "velocity": 98,
              "position": 0.5,
              "duration": 0.208333
            },
            {
              "pitch": 35,
              "velocity": 108,
              "position": 1.0,
              "duration": 0.208333
            },
            {
              "pitch": 38,
              "velocity": 108,
              "position": 1.0,
              "duration": 0.208333
            },
            {
              "pitch": 42,
              "velocity": 98,
              "position": 1.0,
              "duration": 0.208333
            },
            {
              "pitch": 52,
              "velocity": 108,
              "position": 1.0,
              "duration": 0.208333
            },
            {
              "pitch": 42,
              "velocity": 88,
              "position": 1.5,
              "duration": 0.208333
            },
            {
              "pitch": 35,
              "velocity": 108,
              "position": 2.0,
              "duration": 0.208333
            },
            {
              "pitch": 42,
              "velocity": 98,
              "position": 2.0,
              "duration": 0.208333
            },
            {
              "pitch": 35,
              "velocity": 78,
              "position": 2.5,
              "duration": 0.208333
            },
            {
              "pitch": 42,
              "velocity": 88,
              "position": 2.5,
              "duration": 0.208333
            },
            {
              "pitch": 38,
              "velocity": 108,
              "position": 3.0,
              "duration": 0.208333
            },
            {
              "pitch": 42,
              "velocity": 118,
              "position": 3.0,
              "duration": 0.208333
            },
            {
              "pitch": 35,
              "velocity": 98,
              "position": 3.5,
              "duration": 0.208333
            },
            {
              "pitch": 42,
              "velocity": 78,
              "position": 3.5,
              "duration": 0.208333
            },
            {
              "pitch": 42,
              "velocity": 102,
              "position": 4.0,
              "duration": 0.208333
            },
            {
              "pitch": 56,
              "velocity": 92,
              "position": 4.0,
              "duration": 0.208333
            },
            {
              "pitch": 35,
              "velocity": 102,
              "position": 4.5,
              "duration": 0.208333
            },
            {
              "pitch": 42,
              "velocity": 92,
              "position": 4.5,
              "duration": 0.208333
            },
            {
              "pitch": 35,
              "velocity": 112,
              "position": 5.0,
              "duration": 0.208333
            },
            {
              "pitch": 38,
              "velocity": 112,
              "position": 5.0,
              "duration": 0.208333
            },
            {
              "pitch": 42,
              "velocity": 102,
              "position": 5.0,
              "duration": 0.208333
            },
            {
              "pitch": 56,
              "velocity": 92,
              "position": 5.0,
              "duration": 0.208333
            },
            {
              "pitch": 42,
              "velocity": 92,
              "position": 5.5,
              "duration": 0.208333
            },
            {
              "pitch": 35,
              "velocity": 112,
              "position": 6.0,
              "duration": 0.208333
            },
            {
              "pitch": 42,
              "velocity": 102,
              "position": 6.0,
              "duration": 0.208333
            },
            {
              "pitch": 56,
              "velocity": 92,
              "position": 6.0,
              "duration": 0.208333
            },
            {
              "pitch": 35,
              "velocity": 82,
              "position": 6.5,
              "duration": 0.208333
            },
            {
              "pitch": 42,
              "velocity": 92,
              "position": 6.5,
              "duration": 0.208333
            },
            {
              "pitch": 38,
              "velocity": 112,
              "position": 7.0,
              "duration": 0.208333
            },
            {
              "pitch": 42,
              "velocity": 122,
              "position": 7.0,
              "duration": 0.208333
            },
            {
              "pitch": 56,
              "velocity": 92,
              "position": 7.0,
              "duration": 0.208333
            },
            {
              "pitch": 35,
              "velocity": 102,
              "position": 7.5,
              "duration": 0.208333
            },
            {
              "pitch": 42,
              "velocity": 82,
              "position": 7.5,
              "duration": 0.208333
            },
            {
              "pitch": 52,
              "velocity": 102,
              "position": 7.5,
              "duration": 0.208333
            },
            {
              "pitch": 42,
              "velocity": 81,
              "position": 8.0,
              "duration": 0.208333
            },
            {
              "pitch": 56,
              "velocity": 91,
              "position": 8.0,
              "duration": 0.208333
            },
            {
              "pitch": 35,
              "velocity": 101,
              "position": 8.5,
              "duration": 0.208333
            },
            {
              "pitch": 46,
              "velocity": 121,
              "position": 8.5,
              "duration": 0.208333
            },
            {
              "pitch": 56,
              "velocity": 81,
              "position": 8.5,
              "duration": 0.208333
            },
            {
              "pitch": 35,
              "velocity": 111,
              "position": 9.0,
              "duration": 0.208333
            },
            {
              "pitch": 38,
              "velocity": 111,
              "position": 9.0,
              "duration": 0.208333
            },
            {
              "pitch": 42,
              "velocity": 101,
              "position": 9.0,
              "duration": 0.208333
            },
            {
              "pitch": 56,
              "velocity": 91,
              "position": 9.0,
              "duration": 0.208333
            },
            {
              "pitch": 42,
              "velocity": 91,
              "position": 9.5,
              "duration": 0.208333
            },
            {
              "pitch": 35,
              "velocity": 111,
              "position": 10.0,
              "duration": 0.208333
            },
            {
              "pitch": 42,
              "velocity": 121,
              "position": 10.0,
              "duration": 0.208333
            },
            {
              "pitch": 56,
              "velocity": 91,
              "position": 10.0,
              "duration": 0.208333
            },
            {
              "pitch": 35,
              "velocity": 81,
              "position": 10.5,
              "duration": 0.208333
            },
            {
              "pitch": 42,
              "velocity": 101,
              "position": 10.5,
              "duration": 0.208333
            },
            {
              "pitch": 38,
              "velocity": 111,
              "position": 11.0,
              "duration": 0.208333
            },
            {
              "pitch": 42,
              "velocity": 121,
              "position": 11.0,
              "duration": 0.208333
            },
            {
              "pitch": 56,
              "velocity": 91,
              "position": 11.0,
              "duration": 0.208333
            },
            {
              "pitch": 35,
              "velocity": 101,
              "position": 11.5,
              "duration": 0.208333
            },
            {
              "pitch": 42,
              "velocity": 81,
              "position": 11.5,
              "duration": 0.208333
            },
            {
              "pitch": 42,
              "velocity": 99,
              "position": 12.0,
              "duration": 0.208333
            },
            {
              "pitch": 56,
              "velocity": 89,
              "position": 12.0,
              "duration": 0.208333
            },
            {
              "pitch": 35,
              "velocity": 109,
              "position": 12.5,
              "duration": 0.208333
            },
            {
              "pitch": 42,
              "velocity": 109,
              "position": 12.5,
              "duration": 0.208333
            },
            {
              "pitch": 38,
              "velocity": 79,
              "position": 12.75,
              "duration": 0.125
            },
            {
              "pitch": 38,
              "velocity": 63,
              "position": 12.875,
              "duration": 0.083333
            },
            {
              "pitch": 35,
              "velocity": 89,
              "position": 13.0,
              "duration": 0.208333
            },
            {
              "pitch": 38,
              "velocity": 99,
              "position": 13.0,
              "duration": 0.083333
            },
            {
              "pitch": 42,
              "velocity": 99,
              "position": 13.0,
              "duration": 0.208333
            },
            {
              "pitch": 56,
              "velocity": 89,
              "position": 13.0,
              "duration": 0.208333
            },
            {
              "pitch": 46,
              "velocity": 89,
              "position": 13.5,
              "duration": 0.208333
            },
            {
              "pitch": 35,
              "velocity": 109,
              "position": 14.0,
              "duration": 0.208333
            },
            {
              "pitch": 46,
              "velocity": 109,
              "position": 14.0,
              "duration": 0.208333
            },
            {
              "pitch": 48,
              "velocity": 109,
              "position": 14.0,
              "duration": 0.208333
            },
            {
              "pitch": 56,
              "velocity": 89,
              "position": 14.0,
              "duration": 0.208333
            },
            {
              "pitch": 35,
              "velocity": 89,
              "position": 14.5,
              "duration": 0.208333
            },
            {
              "pitch": 46,
              "velocity": 89,
              "position": 14.5,
              "duration": 0.208333
            },
            {
              "pitch": 47,
              "velocity": 109,
              "position": 14.5,
              "duration": 0.208333
            },
            {
              "pitch": 56,
              "velocity": 79,
              "position": 14.5,
              "duration": 0.208333
            },
            {
              "pitch": 35,
              "velocity": 99,
              "position": 15.0,
              "duration": 0.208333
            },
            {
              "pitch": 45,
              "velocity": 109,
              "position": 15.0,
              "duration": 0.208333
            },
            {
              "pitch": 46,
              "velocity": 109,
              "position": 15.0,
              "duration": 0.208333
            },
            {
              "pitch": 56,
              "velocity": 89,
              "position": 15.0,
              "duration": 0.208333
            },
            {
              "pitch": 35,
              "velocity": 109,
              "position": 15.5,
              "duration": 0.208333
            },
            {
              "pitch": 38,
              "velocity": 109,
              "position": 15.5,
              "duration": 0.208333
            },
            {
              "pitch": 46,
              "velocity": 124,
              "position": 15.5,
              "duration": 0.208333
            },
            {
              "pitch": 52,
              "velocity": 109,
              "position": 15.5,
              "duration": 0.208333
            },
            {
              "pitch": 57,
              "velocity": 109,
              "position": 15.5,
              "duration": 0.208333
            }
          ]
        },
        "10": {
          "ctab": {
            "srcChannel": 10,
            "name": "Bass",
            "accType": "BASS",
            "editable": true,
            "mutedNotes": [],
            "mutedChords": [],
            "sourceChordNote": 0,
            "sourceChordType": "Maj7",
            "ctb2Main": {
              "ntr": "ROOT_TRANSPOSITION",
              "ntt": "BYPASS",
              "bassOn": true,
              "noteLowLimit": 20,
              "noteHighLimit": 60,
              "chordRootUpperLimit": 127,
              "rtr": "NOTE_GENERATOR"
            }
          },
          "notes": [
            {
              "pitch": 36,
              "velocity": 100,
              "position": 0.0,
              "duration": 0.341667
            },
            {
              "pitch": 36,
              "velocity": 106,
              "position": 0.5,
              "duration": 0.266667
            },
            {
              "pitch": 36,
              "velocity": 87,
              "position": 1.0,
              "duration": 0.316667
            },
            {
              "pitch": 36,
              "velocity": 111,
              "position": 1.5,
              "duration": 0.85
            },
            {
              "pitch": 36,
              "velocity": 88,
              "position": 2.5,
              "duration": 0.266667
            },
            {
              "pitch": 36,
              "velocity": 111,
              "position": 3.5,
              "duration": 0.825
            },
            {
              "pitch": 36,
              "velocity": 106,
              "position": 4.5,
              "duration": 0.466667
            },
            {
              "pitch": 43,
              "velocity": 87,
              "position": 5.0,
              "duration": 0.316667
            },
            {
              "pitch": 36,
              "velocity": 111,
              "position": 5.5,
              "duration": 0.85
            },
            {
              "pitch": 36,
              "velocity": 88,
              "position": 6.5,
              "duration": 0.266667
            },
            {
              "pitch": 36,
              "velocity": 111,
              "position": 7.5,
              "duration": 0.825
            },
            {
              "pitch": 36,
              "velocity": 106,
              "position": 8.5,
              "duration": 0.266667
            },
            {
              "pitch": 36,
              "velocity": 87,
              "position": 9.0,
              "duration": 0.316667
            },
            {
              "pitch": 36,
              "velocity": 101,
              "position": 10.0,
              "duration": 0.4
            },
            {
              "pitch": 36,
              "velocity": 91,
              "position": 10.5,
              "duration": 0.225
            },
            {
              "pitch": 36,
              "velocity": 109,
              "position": 11.5,
              "duration": 0.816667
            },
            {
              "pitch": 36,
              "velocity": 85,
              "position": 12.5,
              "duration": 0.25
            },
            {
              "pitch": 36,
              "velocity": 100,
              "position": 13.0,
              "duration": 0.308333
            },
            {
              "pitch": 36,
              "velocity": 103,
              "position": 14.0,
              "duration": 0.391667
            },
            {
              "pitch": 36,
              "velocity": 103,
              "position": 14.5,
              "duration": 0.275
            },
            {
              "pitch": 36,
              "velocity": 111,
              "position": 15.5,
              "duration": 0.825
            }
          ]
        },
        "11": {
          "ctab": {
            "srcChannel": 11,
            "name": "Piano",
            "accType": "CHORD1",
            "editable": true,
            "mutedNotes": [],
            "mutedChords": [],
            "sourceChordNote": 0,
            "sourceChordType": "Maj7",
            "ctb2Main": {
              "ntr": "ROOT_FIXED",
              "ntt": "CHORD",
              "bassOn": false,
              "noteLowLimit": 48,
              "noteHighLimit": 84,
              "chordRootUpperLimit": 127,
              "rtr": "NOTE_GENERATOR"
            }
          },
          "notes": [
            {
              "pitch": 67,
              "velocity": 54,
              "position": 0.5,
              "duration": 0.4
            },
            {
              "pitch": 71,
              "velocity": 64,
              "position": 0.5,
              "duration": 0.166667
            },
            {
              "pitch": 48,
              "velocity": 90,
              "position": 1.0,
              "duration": 0.4
            },
            {
              "pitch": 55,
              "velocity": 90,
              "position": 1.0,
              "duration": 0.4
            },
            {
              "pitch": 60,
              "velocity": 71,
              "position": 1.0,
              "duration": 0.35
            },
            {
              "pitch": 67,
              "velocity": 100,
              "position": 1.0,
              "duration": 0.4
            },
            {
              "pitch": 71,
              "velocity": 101,
              "position": 1.0,
              "duration": 0.4
            },
            {
              "pitch": 60,
              "velocity": 71,
              "position": 1.5,
              "duration": 0.291667
            },
            {
              "pitch": 48,
              "velocity": 90,
              "position": 2.0,
              "duration": 0.525
            },
            {
              "pitch": 55,
              "velocity": 90,
              "position": 2.0,
              "duration": 0.55
            },
            {
              "pitch": 60,
              "velocity": 89,
              "position": 2.0,
              "duration": 0.375
            },
            {
              "pitch": 64,
              "velocity": 109,
              "position": 2.0,
              "duration": 0.25
            },
            {
              "pitch": 71,
              "velocity": 110,
              "position": 2.0,
              "duration": 0.25
            },
            {
              "pitch": 60,
              "velocity": 54,
              "position": 2.5,
              "duration": 0.25
            },
            {
              "pitch": 48,
              "velocity": 90,
              "position": 3.0,
              "duration": 0.4
            },
            {
              "pitch": 55,
              "velocity": 90,
              "position": 3.0,
              "duration": 0.4
            },
            {
              "pitch": 60,
              "velocity": 71,
              "position": 3.0,
              "duration": 0.166667
            },
            {
              "pitch": 64,
              "velocity": 100,
              "position": 3.0,
              "duration": 0.4
            },
            {
              "pitch": 71,
              "velocity": 101,
              "position": 3.0,
              "duration": 0.4
            },
            {
              "pitch": 48,
              "velocity": 90,
              "position": 3.5,
              "duration": 0.9
            },
            {
              "pitch": 55,
              "velocity": 90,
              "position": 3.5,
              "duration": 0.958333
            },
            {
              "pitch": 60,
              "velocity": 89,
              "position": 3.5,
              "duration": 1.125
            },
            {
              "pitch": 64,
              "velocity": 109,
              "position": 3.5,
              "duration": 0.733333
            },
            {
              "pitch": 71,
              "velocity": 110,
              "position": 3.5,
              "duration": 0.733333
            },
            {
              "pitch": 64,
              "velocity": 54,
              "position": 4.5,
              "duration": 0.4
            },
            {
              "pitch": 71,
              "velocity": 64,
              "position": 4.5,
              "duration": 0.166667
            },
            {
              "pitch": 48,
              "velocity": 90,
              "position": 5.0,
              "duration": 0.4
            },
            {
              "pitch": 55,
              "velocity": 90,
              "position": 5.0,
              "duration": 0.4
            },
            {
              "pitch": 60,
              "velocity": 71,
              "position": 5.0,
              "duration": 0.35
            },
            {
              "pitch": 64,
              "velocity": 100,
              "position": 5.0,
              "duration": 0.4
            },
            {
              "pitch": 71,
              "velocity": 101,
              "position": 5.0,
              "duration": 0.4
            },
            {
              "pitch": 60,
              "velocity": 71,
              "position": 5.5,
              "duration": 0.291667
            },
            {
              "pitch": 48,
              "velocity": 90,
              "position": 6.0,
              "duration": 0.525
            },
            {
              "pitch": 55,
              "velocity": 90,
              "position": 6.0,
              "duration": 0.55
            },
            {
              "pitch": 60,
              "velocity": 89,
              "position": 6.0,
              "duration": 0.375
            },
            {
              "pitch": 64,
              "velocity": 109,
              "position": 6.0,
              "duration": 0.25
            },
            {
              "pitch": 71,
              "velocity": 110,
              "position": 6.0,
              "duration": 0.25
            },
            {
              "pitch": 60,
              "velocity": 54,
              "position": 6.5,
              "duration": 0.25
            },
            {
              "pitch": 48,
              "velocity": 90,
              "position": 7.0,
              "duration": 0.4
            },
            {
              "pitch": 55,
              "velocity": 90,
              "position": 7.0,
              "duration": 0.4
            },
            {
              "pitch": 60,
              "velocity": 71,
              "position": 7.0,
              "duration": 0.166667
            },
            {
              "pitch": 64,
              "velocity": 100,
              "position": 7.0,
              "duration": 0.4
            },
            {
              "pitch": 71,
              "velocity": 101,
              "position": 7.0,
              "duration": 0.4
            },
            {
              "pitch": 67,
              "velocity": 93,
              "position": 7.508333,
              "duration": 0.75
            },
            {
              "pitch": 74,
              "velocity": 97,
              "position": 7.508333,
              "duration": 0.775
            },
            {
              "pitch": 60,
              "velocity": 91,
              "position": 7.525,
              "duration": 0.775
            },
            {
              "pitch": 60,
              "velocity": 79,
              "position": 9.025,
              "duration": 0.375
            },
            {
              "pitch": 67,
              "velocity": 90,
              "position": 9.05,
              "duration": 0.35
            },
            {
              "pitch": 74,
              "velocity": 98,
              "position": 9.05,
              "duration": 0.308333
            },
            {
              "pitch": 60,
              "velocity": 84,
              "position": 10.025,
              "duration": 0.333333
            },
            {
              "pitch": 67,
              "velocity": 90,
              "position": 10.025,
              "duration": 0.316667
            },
            {
              "pitch": 74,
              "velocity": 96,
              "position": 10.025,
              "duration": 0.316667
            },
            {
              "pitch": 60,
              "velocity": 68,
              "position": 10.508333,
              "duration": 0.183333
            },
            {
              "pitch": 67,
              "velocity": 75,
              "position": 10.508333,
              "duration": 0.208333
            },
            {
              "pitch": 74,
              "velocity": 77,
              "position": 10.508333,
              "duration": 0.208333
            },
            {
              "pitch": 48,
              "velocity": 88,
              "position": 11.008333,
              "duration": 0.25
            },
            {
              "pitch": 60,
              "velocity": 83,
              "position": 11.55,
              "duration": 0.708333
            },
            {
              "pitch": 67,
              "velocity": 88,
              "position": 11.55,
              "duration": 0.791667
            },
            {
              "pitch": 71,
              "velocity": 83,
              "position": 11.55,
              "duration": 0.85
            },
            {
              "pitch": 74,
              "velocity": 91,
              "position": 11.55,
              "duration": 0.641667
            },
            {
              "pitch": 48,
              "velocity": 74,
              "position": 12.025,
              "duration": 0.108333
            },
            {
              "pitch": 48,
              "velocity": 96,
              "position": 12.483333,
              "duration": 0.441667
            },
            {
              "pitch": 60,
              "velocity": 85,
              "position": 13.008333,
              "duration": 0.35
            },
            {
              "pitch": 71,
              "velocity": 93,
              "position": 13.008333,
              "duration": 0.391667
            },
            {
              "pitch": 67,
              "velocity": 92,
              "position": 13.025,
              "duration": 0.333333
            },
            {
              "pitch": 48,
              "velocity": 85,
              "position": 13.466667,
              "duration": 0.475
            },
            {
              "pitch": 71,
              "velocity": 81,
              "position": 13.966667,
              "duration": 0.35
            },
            {
              "pitch": 60,
              "velocity": 78,
              "position": 13.983333,
              "duration": 0.291667
            },
            {
              "pitch": 64,
              "velocity": 83,
              "position": 13.983333,
              "duration": 0.275
            },
            {
              "pitch": 67,
              "velocity": 82,
              "position": 13.983333,
              "duration": 0.316667
            },
            {
              "pitch": 67,
              "velocity": 65,
              "position": 14.466667,
              "duration": 0.225
            },
            {
              "pitch": 71,
              "velocity": 71,
              "position": 14.466667,
              "duration": 0.225
            },
            {
              "pitch": 60,
              "velocity": 55,
              "position": 14.483333,
              "duration": 0.166667
            },
            {
              "pitch": 64,
              "velocity": 72,
              "position": 14.483333,
              "duration": 0.166667
            },
            {
              "pitch": 48,
              "velocity": 90,
              "position": 15.5,
              "duration": 0.9
            },
            {
              "pitch": 55,
              "velocity": 90,
              "position": 15.5,
              "duration": 0.958333
            },
            {
              "pitch": 60,
              "velocity": 89,
              "position": 15.5,
              "duration": 1.125
            },
            {
              "pitch": 64,
              "velocity": 109,
              "position": 15.5,
              "duration": 0.733333
            },
            {
              "pitch": 71,
              "velocity": 110,
              "position": 15.5,
              "duration": 0.733333
            }
          ]
        },
        "12": {
          "ctab": {
            "srcChannel": 12,
            "name": "Guitar",
            "accType": "CHORD2",
            "editable": true,
            "mutedNotes": [],
            "mutedChords": [],
            "sourceChordNote": 0,
            "sourceChordType": "Maj7",
            "ctb2Main": {
              "ntr": "ROOT_FIXED",
              "ntt": "CHORD",
              "bassOn": false,
              "noteLowLimit": 40,
              "noteHighLimit": 76,
              "chordRootUpperLimit": 127,
              "rtr": "NOTE_GENERATOR"
            }
          },
          "notes": [
            {
              "pitch": 48,
              "velocity": 64,
              "position": 1.0,
              "duration": 0.266667
            },
            {
              "pitch": 55,
              "velocity": 74,
              "position": 1.0,
              "duration": 0.25
            },
            {
              "pitch": 48,
              "velocity": 80,
              "position": 2.0,
              "duration": 0.375
            },
            {
              "pitch": 55,
              "velocity": 80,
              "position": 2.0,
              "duration": 0.4
            },
            {
              "pitch": 48,
              "velocity": 69,
              "position": 2.5,
              "duration": 0.275
            },
            {
              "pitch": 55,
              "velocity": 52,
              "position": 2.5,
              "duration": 0.25
            },
            {
              "pitch": 48,
              "velocity": 94,
              "position": 3.5,
              "duration": 0.858333
            },
            {
              "pitch": 55,
              "velocity": 94,
              "position": 3.5,
              "duration": 0.85
            },
            {
              "pitch": 48,
              "velocity": 72,
              "position": 4.5,
              "duration": 0.275
            },
            {
              "pitch": 55,
              "velocity": 55,
              "position": 4.5,
              "duration": 0.25
            },
            {
              "pitch": 48,
              "velocity": 75,
              "position": 5.0,
              "duration": 0.3
            },
            {
              "pitch": 55,
              "velocity": 85,
              "position": 5.0,
              "duration": 0.25
            },
            {
              "pitch": 48,
              "velocity": 52,
              "position": 5.5,
              "duration": 0.225
            },
            {
              "pitch": 55,
              "velocity": 57,
              "position": 5.5,
              "duration": 0.216667
            },
            {
              "pitch": 48,
              "velocity": 80,
              "position": 6.0,
              "duration": 0.375
            },
            {
              "pitch": 55,
              "velocity": 80,
              "position": 6.0,
              "duration": 0.4
            },
            {
              "pitch": 48,
              "velocity": 69,
              "position": 6.5,
              "duration": 0.275
            },
            {
              "pitch": 55,
              "velocity": 52,
              "position": 6.5,
              "duration": 0.25
            },
            {
              "pitch": 48,
              "velocity": 81,
              "position": 7.5,
              "duration": 0.858333
            },
            {
              "pitch": 55,
              "velocity": 81,
              "position": 7.5,
              "duration": 0.85
            },
            {
              "pitch": 48,
              "velocity": 62,
              "position": 9.0,
              "duration": 0.266667
            },
            {
              "pitch": 55,
              "velocity": 72,
              "position": 9.0,
              "duration": 0.25
            },
            {
              "pitch": 48,
              "velocity": 66,
              "position": 10.0,
              "duration": 0.333333
            },
            {
              "pitch": 55,
              "velocity": 67,
              "position": 10.0,
              "duration": 0.375
            },
            {
              "pitch": 48,
              "velocity": 56,
              "position": 10.5,
              "duration": 0.233333
            },
            {
              "pitch": 55,
              "velocity": 64,
              "position": 10.5,
              "duration": 0.166667
            },
            {
              "pitch": 48,
              "velocity": 80,
              "position": 11.5,
              "duration": 0.875
            },
            {
              "pitch": 55,
              "velocity": 84,
              "position": 11.5,
              "duration": 0.875
            },
            {
              "pitch": 48,
              "velocity": 61,
              "position": 12.5,
              "duration": 0.25
            },
            {
              "pitch": 55,
              "velocity": 72,
              "position": 12.5,
              "duration": 0.233333
            },
            {
              "pitch": 48,
              "velocity": 76,
              "position": 13.0,
              "duration": 0.316667
            },
            {
              "pitch": 55,
              "velocity": 83,
              "position": 13.0,
              "duration": 0.291667
            },
            {
              "pitch": 48,
              "velocity": 74,
              "position": 14.0,
              "duration": 0.375
            },
            {
              "pitch": 55,
              "velocity": 79,
              "position": 14.0,
              "duration": 0.391667
            },
            {
              "pitch": 48,
              "velocity": 62,
              "position": 14.5,
              "duration": 0.225
            },
            {
              "pitch": 55,
              "velocity": 68,
              "position": 14.5,
              "duration": 0.225
            },
            {
              "pitch": 48,
              "velocity": 83,
              "position": 15.5,
              "duration": 1.325
            },
            {
              "pitch": 55,
              "velocity": 83,
              "position": 15.5,
              "duration": 1.291667
            }
          ]
        },
        "13": {
          "ctab": {
            "srcChannel": 13,
            "name": "Strings",
            "accType": "PAD",
            "editable": true,
            "mutedNotes": [],
            "mutedChords": [],
            "sourceChordNote": 0,
            "sourceChordType": "Maj7",
            "ctb2Main": {
              "ntr": "ROOT_FIXED",
              "ntt": "MELODY",
              "bassOn": false,
              "noteLowLimit": 36,
              "noteHighLimit": 96,
              "chordRootUpperLimit": 127,
              "rtr": "PITCH_SHIFT"
            }
          },
          "notes": [
            {
              "pitch": 48,
              "velocity": 59,
              "position": 0.466667,
              "duration": 0.425
            },
            {
              "pitch": 55,
              "velocity": 53,
              "position": 0.466667,
              "duration": 0.425
            },
            {
              "pitch": 60,
              "velocity": 47,
              "position": 0.475,
              "duration": 0.25
            },
            {
              "pitch": 48,
              "velocity": 81,
              "position": 0.95,
              "duration": 0.35
            },
            {
              "pitch": 55,
              "velocity": 79,
              "position": 0.966667,
              "duration": 0.475
            },
            {
              "pitch": 60,
              "velocity": 64,
              "position": 0.966667,
              "duration": 0.458333
            },
            {
              "pitch": 48,
              "velocity": 85,
              "position": 2.0,
              "duration": 0.316667
            },
            {
              "pitch": 55,
              "velocity": 91,
              "position": 2.0,
              "duration": 0.25
            },
            {
              "pitch": 60,
              "velocity": 85,
              "position": 2.0,
              "duration": 0.3
            },
            {
              "pitch": 48,
              "velocity": 61,
              "position": 2.5,
              "duration": 0.291667
            },
            {
              "pitch": 55,
              "velocity": 51,
              "position": 2.5,
              "duration": 0.208333
            },
            {
              "pitch": 60,
              "velocity": 49,
              "position": 2.5,
              "duration": 0.4
            },
            {
              "pitch": 48,
              "velocity": 92,
              "position": 3.5,
              "duration": 0.783333
            },
            {
              "pitch": 55,
              "velocity": 98,
              "position": 3.5,
              "duration": 0.825
            },
            {
              "pitch": 48,
              "velocity": 57,
              "position": 4.5,
              "duration": 0.208333
            },
            {
              "pitch": 55,
              "velocity": 51,
              "position": 4.5,
              "duration": 0.208333
            },
            {
              "pitch": 48,
              "velocity": 79,
              "position": 5.0,
              "duration": 0.35
            },
            {
              "pitch": 55,
              "velocity": 77,
              "position": 5.0,
              "duration": 0.416667
            },
            {
              "pitch": 60,
              "velocity": 62,
              "position": 5.0,
              "duration": 0.458333
            },
            {
              "pitch": 48,
              "velocity": 85,
              "position": 6.0,
              "duration": 0.316667
            },
            {
              "pitch": 55,
              "velocity": 91,
              "position": 6.0,
              "duration": 0.25
            },
            {
              "pitch": 60,
              "velocity": 85,
              "position": 6.0,
              "duration": 0.3
            },
            {
              "pitch": 48,
              "velocity": 61,
              "position": 6.5,
              "duration": 0.291667
            },
            {
              "pitch": 55,
              "velocity": 51,
              "position": 6.5,
              "duration": 0.208333
            },
            {
              "pitch": 60,
              "velocity": 49,
              "position": 6.5,
              "duration": 0.4
            },
            {
              "pitch": 48,
              "velocity": 90,
              "position": 7.5,
              "duration": 0.783333
            },
            {
              "pitch": 55,
              "velocity": 96,
              "position": 7.5,
              "duration": 0.825
            },
            {
              "pitch": 60,
              "velocity": 90,
              "position": 7.5,
              "duration": 0.85
            },
            {
              "pitch": 48,
              "velocity": 55,
              "position": 8.491667,
              "duration": 0.208333
            },
            {
              "pitch": 55,
              "velocity": 49,
              "position": 8.55,
              "duration": 0.208333
            },
            {
              "pitch": 60,
              "velocity": 43,
              "position": 8.55,
              "duration": 0.25
            },
            {
              "pitch": 48,
              "velocity": 77,
              "position": 9.033333,
              "duration": 0.35
            },
            {
              "pitch": 55,
              "velocity": 75,
              "position": 9.033333,
              "duration": 0.416667
            },
            {
              "pitch": 60,
              "velocity": 60,
              "position": 9.033333,
              "duration": 0.458333
            },
            {
              "pitch": 60,
              "velocity": 67,
              "position": 9.991667,
              "duration": 0.375
            },
            {
              "pitch": 48,
              "velocity": 76,
              "position": 10.008333,
              "duration": 0.316667
            },
            {
              "pitch": 55,
              "velocity": 73,
              "position": 10.008333,
              "duration": 0.333333
            },
            {
              "pitch": 48,
              "velocity": 72,
              "position": 10.533333,
              "duration": 0.208333
            },
            {
              "pitch": 60,
              "velocity": 48,
              "position": 10.533333,
              "duration": 0.308333
            },
            {
              "pitch": 55,
              "velocity": 57,
              "position": 10.55,
              "duration": 0.208333
            },
            {
              "pitch": 60,
              "velocity": 77,
              "position": 11.508333,
              "duration": 0.833333
            },
            {
              "pitch": 48,
              "velocity": 82,
              "position": 11.533333,
              "duration": 0.766667
            },
            {
              "pitch": 55,
              "velocity": 80,
              "position": 11.533333,
              "duration": 0.791667
            },
            {
              "pitch": 48,
              "velocity": 67,
              "position": 12.508333,
              "duration": 0.191667
            },
            {
              "pitch": 55,
              "velocity": 61,
              "position": 12.533333,
              "duration": 0.166667
            },
            {
              "pitch": 60,
              "velocity": 50,
              "position": 12.533333,
              "duration": 0.225
            },
            {
              "pitch": 55,
              "velocity": 80,
              "position": 13.008333,
              "duration": 0.358333
            },
            {
              "pitch": 60,
              "velocity": 73,
              "position": 13.008333,
              "duration": 0.375
            },
            {
              "pitch": 48,
              "velocity": 84,
              "position": 13.033333,
              "duration": 0.308333
            },
            {
              "pitch": 60,
              "velocity": 74,
              "position": 13.966667,
              "duration": 0.458333
            },
            {
              "pitch": 48,
              "velocity": 81,
              "position": 13.991667,
              "duration": 0.35
            },
            {
              "pitch": 55,
              "velocity": 79,
              "position": 13.991667,
              "duration": 0.416667
            },
            {
              "pitch": 48,
              "velocity": 81,
              "position": 14.55,
              "duration": 0.25
            },
            {
              "pitch": 55,
              "velocity": 72,
              "position": 14.55,
              "duration": 0.275
            },
            {
              "pitch": 60,
              "velocity": 74,
              "position": 14.55,
              "duration": 0.316667
            },
            {
              "pitch": 48,
              "velocity": 85,
              "position": 15.5,
              "duration": 0.783333
            },
            {
              "pitch": 55,
              "velocity": 91,
              "position": 15.5,
              "duration": 0.825
            },
            {
              "pitch": 60,
              "velocity": 85,
              "position": 15.5,
              "duration": 0.85
            }
          ]
        }
      }
    },
    "Fill_In_AA": {
      "type": "Fill_In_AA",
      "sizeInBeats": 16,
      "channels": {
        "9": {
          "ctab": {
            "srcChannel": 9,
            "name": "Drums",
            "accType": "RHYTHM",
            "editable": false,
            "mutedNotes": [],
            "mutedChords": [],
            "sourceChordNote": 0,
            "sourceChordType": "Maj",
            "ctb2Main": {
              "ntr": "ROOT_FIXED",
              "ntt": "BYPASS",
              "bassOn": false,
              "noteLowLimit": 20,
              "noteHighLimit": 127,
              "chordRootUpperLimit": 127,
              "rtr": "RETRIGGER"
            }
          },
          "notes": [
            {
              "pitch": 42,
              "velocity": 98,
              "position": 0.0,
              "duration": 0.208333
            },
            {
              "pitch": 35,
              "velocity": 118,
              "position": 0.5,
              "duration": 0.208333
            },
            {
              "pitch": 42,
              "velocity": 88,
              "position": 0.5,
              "duration": 0.208333
            },
            {
              "pitch": 52,
              "velocity": 98,
              "position": 0.5,
              "duration": 0.208333
            },
            {
              "pitch": 35,
              "velocity": 108,
              "position": 1.0,
              "duration": 0.208333
            },
            {
              "pitch": 38,
              "velocity": 80,
              "position": 1.0,
              "duration": 0.208333
            },
            {
              "pitch": 42,
              "velocity": 98,
              "position": 1.0,
              "duration": 0.208333
            },
            {
              "pitch": 52,
              "velocity": 108,
              "position": 1.0,
              "duration": 0.208333
            },
            {
              "pitch": 42,
              "velocity": 88,
              "position": 1.5,
              "duration": 0.208333
            },
            {
              "pitch": 35,
              "velocity": 108,
              "position": 2.0,
              "duration": 0.208333
            },
            {
              "pitch": 42,
              "velocity": 98,
              "position": 2.0,
              "duration": 0.208333
            },
            {
              "pitch": 35,
              "velocity": 78,
              "position": 2.5,
              "duration": 0.208333
            },
            {
              "pitch": 42,
              "velocity": 88,
              "position": 2.5,
              "duration": 0.208333
            },
            {
              "pitch": 38,
              "velocity": 108,
              "position": 3.0,
              "duration": 0.208333
            },
            {
              "pitch": 42,
              "velocity": 118,
              "position": 3.0,
              "duration": 0.208333
            },
            {
              "pitch": 35,
              "velocity": 98,
              "position": 3.5,
              "duration": 0.208333
            },
            {
              "pitch": 42,
              "velocity": 78,
              "position": 3.5,
              "duration": 0.208333
            },
            {
              "pitch": 42,
              "velocity": 111,
              "position": 4.0,
              "duration": 0.208333
            },
            {
              "pitch": 56,
              "velocity": 91,
              "position": 4.0,
              "duration": 0.208333
            },
            {
              "pitch": 35,
              "velocity": 101,
              "position": 4.5,
              "duration": 0.208333
            },
            {
              "pitch": 46,
              "velocity": 121,
              "position": 4.5,
              "duration": 0.208333
            },
            {
              "pitch": 35,
              "velocity": 111,
              "position": 5.0,
              "duration": 0.208333
            },
            {
              "pitch": 38,
              "velocity": 111,
              "position": 5.0,
              "duration": 0.208333
            },
            {
              "pitch": 42,
              "velocity": 91,
              "position": 5.0,
              "duration": 0.208333
            },
            {
              "pitch": 56,
              "velocity": 91,
              "position": 5.0,
              "duration": 0.208333
            },
            {
              "pitch": 42,
              "velocity": 91,
              "position": 5.5,
              "duration": 0.208333
            },
            {
              "pitch": 35,
              "velocity": 111,
              "position": 6.0,
              "duration": 0.208333
            },
            {
              "pitch": 42,
              "velocity": 101,
              "position": 6.0,
              "duration": 0.208333
            },
            {
              "pitch": 56,
              "velocity": 91,
              "position": 6.0,
              "duration": 0.208333
            },
            {
              "pitch": 35,
              "velocity": 81,
              "position": 6.5,
              "duration": 0.208333
            },
            {
              "pitch": 42,
              "velocity": 91,
              "position": 6.5,
              "duration": 0.208333
            },
            {
              "pitch": 56,
              "velocity": 81,
              "position": 6.5,
              "duration": 0.208333
            },
            {
              "pitch": 38,
              "velocity": 111,
              "position": 7.0,
              "duration": 0.208333
            },
            {
              "pitch": 42,
              "velocity": 121,
              "position": 7.0,
              "duration": 0.208333
            },
            {
              "pitch": 56,
              "velocity": 91,
              "position": 7.0,
              "duration": 0.208333
            },
            {
              "pitch": 35,
              "velocity": 101,
              "position": 7.5,
              "duration": 0.208333
            },
            {
              "pitch": 42,
              "velocity": 81,
              "position": 7.5,
              "duration": 0.208333
            },
            {
              "pitch": 52,
              "velocity": 101,
              "position": 7.5,
              "duration": 0.208333
            },
            {
              "pitch": 42,
              "velocity": 127,
              "position": 8.0,
              "duration": 0.208333
            },
            {
              "pitch": 56,
              "velocity": 88,
              "position": 8.0,
              "duration": 0.208333
            },
            {
              "pitch": 35,
              "velocity": 98,
              "position": 8.5,
              "duration": 0.208333
            },
            {
              "pitch": 42,
              "velocity": 88,
              "position": 8.5,
              "duration": 0.208333
            },
            {
              "pitch": 35,
              "velocity": 108,
              "position": 9.0,
              "duration": 0.208333
            },
            {
              "pitch": 38,
              "velocity": 108,
              "position": 9.0,
              "duration": 0.208333
            },
            {
              "pitch": 42,
              "velocity": 98,
              "position": 9.0,
              "duration": 0.208333
            },
            {
              "pitch": 56,
              "velocity": 88,
              "position": 9.0,
              "duration": 0.208333
            },
            {
              "pitch": 42,
              "velocity": 108,
              "position": 9.5,
              "duration": 0.208333
            },
            {
              "pitch": 35,
              "velocity": 108,
              "position": 10.0,
              "duration": 0.208333
            },
            {
              "pitch": 42,
              "velocity": 98,
              "position": 10.0,
              "duration": 0.208333
            },
            {
              "pitch": 56,
              "velocity": 88,
              "position": 10.0,
              "duration": 0.208333
            },
            {
              "pitch": 35,
              "velocity": 78,
              "position": 10.5,
              "duration": 0.208333
            },
            {
              "pitch": 42,
              "velocity": 88,
              "position": 10.5,
              "duration": 0.208333
            },
            {
              "pitch": 38,
              "velocity": 108,
              "position": 11.0,
              "duration": 0.208333
            },
            {
              "pitch": 46,
              "velocity": 127,
              "position": 11.0,
              "duration": 0.208333
            },
            {
              "pitch": 56,
              "velocity": 88,
              "position": 11.0,
              "duration": 0.208333
            },
            {
              "pitch": 35,
              "velocity": 98,
              "position": 11.5,
              "duration": 0.208333
            },
            {
              "pitch": 42,
              "velocity": 78,
              "position": 11.5,
              "duration": 0.208333
            },
            {
              "pitch": 42,
              "velocity": 99,
              "position": 12.0,
              "duration": 0.208333
            },
            {
              "pitch": 56,
              "velocity": 89,
              "position": 12.0,
              "duration": 0.208333
            },
            {
              "pitch": 35,
              "velocity": 109,
              "position": 12.5,
              "duration": 0.208333
            },
            {
              "pitch": 42,
              "velocity": 109,
              "position": 12.5,
              "duration": 0.208333
            },
            {
              "pitch": 38,
              "velocity": 79,
              "position": 12.75,
              "duration": 0.125
            },
            {
              "pitch": 38,
              "velocity": 63,
              "position": 12.875,
              "duration": 0.083333
            },
            {
              "pitch": 35,
              "velocity": 89,
              "position": 13.0,
              "duration": 0.208333
            },
            {
              "pitch": 38,
              "velocity": 99,
              "position": 13.0,
              "duration": 0.083333
            },
            {
              "pitch": 42,
              "velocity": 99,
              "position": 13.0,
              "duration": 0.208333
            },
            {
              "pitch": 56,
              "velocity": 89,
              "position": 13.0,
              "duration": 0.208333
            },
            {
              "pitch": 46,
              "velocity": 89,
              "position": 13.5,
              "duration": 0.208333
            },
            {
              "pitch": 35,
              "velocity": 109,
              "position": 14.0,
              "duration": 0.208333
            },
            {
              "pitch": 46,
              "velocity": 109,
              "position": 14.0,
              "duration": 0.208333
            },
            {
              "pitch": 48,
              "velocity": 109,
              "position": 14.0,
              "duration": 0.208333
            },
            {
              "pitch": 56,
              "velocity": 89,
              "position": 14.0,
              "duration": 0.208333
            },
            {
              "pitch": 35,
              "velocity": 89,
              "position": 14.5,
              "duration": 0.208333
            },
            {
              "pitch": 46,
              "velocity": 89,
              "position": 14.5,
              "duration": 0.208333
            },
            {
              "pitch": 47,
              "velocity": 109,
              "position": 14.5,
              "duration": 0.208333
            },
            {
              "pitch": 56,
              "velocity": 79,
              "position": 14.5,
              "duration": 0.208333
            },
            {
              "pitch": 35,
              "velocity": 99,
              "position": 15.0,
              "duration": 0.208333
            },
            {
              "pitch": 45,
              "velocity": 109,
              "position": 15.0,
              "duration": 0.208333
            },
            {
              "pitch": 46,
              "velocity": 109,
              "position": 15.0,
              "duration": 0.208333
            },
            {
              "pitch": 56,
              "velocity": 89,
              "position": 15.0,
              "duration": 0.208333
            },
            {
              "pitch": 35,
              "velocity": 109,
              "position": 15.5,
              "duration": 0.208333
            },
            {
              "pitch": 38,
              "velocity": 109,
              "position": 15.5,
              "duration": 0.208333
            },
            {
              "pitch": 46,
              "velocity": 124,
              "position": 15.5,
              "duration": 0.208333
            },
            {
              "pitch": 52,
              "velocity": 109,
              "position": 15.5,
              "duration": 0.208333
            },
            {
              "pitch": 57,
              "velocity": 109,
              "position": 15.5,
              "duration": 0.208333
            }
          ]
        },
        "10": {
          "ctab": {
            "srcChannel": 10,
            "name": "Bass",
            "accType": "BASS",
            "editable": true,
            "mutedNotes": [],
            "mutedChords": [],
            "sourceChordNote": 0,
            "sourceChordType": "Maj7",
            "ctb2Main": {
              "ntr": "ROOT_TRANSPOSITION",
              "ntt": "BYPASS",
              "bassOn": true,
              "noteLowLimit": 20,
              "noteHighLimit": 60,
              "chordRootUpperLimit": 127,
              "rtr": "NOTE_GENERATOR"
            }
          },
          "notes": [
            {
              "pitch": 36,
              "velocity": 106,
              "position": 0.5,
              "duration": 0.466667
            },
            {
              "pitch": 43,
              "velocity": 87,
              "position": 1.0,
              "duration": 0.316667
            },
            {
              "pitch": 36,
              "velocity": 111,
              "position": 1.5,
              "duration": 0.85
            },
            {
              "pitch": 36,
              "velocity": 88,
              "position": 2.5,
              "duration": 0.266667
            },
            {
              "pitch": 36,
              "velocity": 111,
              "position": 3.5,
              "duration": 0.858333
            },
            {
              "pitch": 36,
              "velocity": 105,
              "position": 4.5,
              "duration": 0.3
            },
            {
              "pitch": 31,
              "velocity": 87,
              "position": 5.0,
              "duration": 0.316667
            },
            {
              "pitch": 36,
              "velocity": 111,
              "position": 5.5,
              "duration": 0.958333
            },
            {
              "pitch": 31,
              "velocity": 88,
              "position": 6.5,
              "duration": 0.266667
            },
            {
              "pitch": 36,
              "velocity": 111,
              "position": 7.5,
              "duration": 0.825
            },
            {
              "pitch": 36,
              "velocity": 106,
              "position": 8.5,
              "duration": 0.266667
            },
            {
              "pitch": 36,
              "velocity": 87,
              "position": 9.0,
              "duration": 0.316667
            },
            {
              "pitch": 36,
              "velocity": 101,
              "position": 10.0,
              "duration": 0.4
            },
            {
              "pitch": 36,
              "velocity": 91,
              "position": 10.5,
              "duration": 0.225
            },
            {
              "pitch": 36,
              "velocity": 109,
              "position": 11.5,
              "duration": 0.816667
            },
            {
              "pitch": 36,
              "velocity": 85,
              "position": 12.5,
              "duration": 0.25
            },
            {
              "pitch": 36,
              "velocity": 100,
              "position": 13.0,
              "duration": 0.308333
            },
            {
              "pitch": 36,
              "velocity": 103,
              "position": 14.0,
              "duration": 0.391667
            },
            {
              "pitch": 36,
              "velocity": 103,
              "position": 14.5,
              "duration": 0.275
            },
            {
              "pitch": 36,
              "velocity": 111,
              "position": 15.5,
              "duration": 0.825
            }
          ]
        },
        "11": {
          "ctab": {
            "srcChannel": 11,
            "name": "Piano",
            "accType": "CHORD1",
            "editable": true,
            "mutedNotes": [],
            "mutedChords": [],
            "sourceChordNote": 0,
            "sourceChordType": "Maj7",
            "ctb2Main": {
              "ntr": "ROOT_FIXED",
              "ntt": "CHORD",
              "bassOn": false,
              "noteLowLimit": 48,
              "noteHighLimit": 84,
              "chordRootUpperLimit": 127,
              "rtr": "NOTE_GENERATOR"
            }
          },
          "notes": [
            {
              "pitch": 64,
              "velocity": 54,
              "position": 0.5,
              "duration": 0.4
            },
            {
              "pitch": 71,
              "velocity": 64,
              "position": 0.5,
              "duration": 0.166667
            },
            {
              "pitch": 48,
              "velocity": 90,
              "position": 1.0,
              "duration": 0.316667
            },
            {
              "pitch": 55,
              "velocity": 90,
              "position": 1.0,
              "duration": 0.3
            },
            {
              "pitch": 60,
              "velocity": 71,
              "position": 1.0,
              "duration": 0.35
            },
            {
              "pitch": 64,
              "velocity": 100,
              "position": 1.0,
              "duration": 0.4
            },
            {
              "pitch": 71,
              "velocity": 101,
              "position": 1.0,
              "duration": 0.4
            },
            {
              "pitch": 48,
              "velocity": 71,
              "position": 1.5,
              "duration": 0.291667
            },
            {
              "pitch": 48,
              "velocity": 90,
              "position": 2.0,
              "duration": 0.4
            },
            {
              "pitch": 55,
              "velocity": 90,
              "position": 2.0,
              "duration": 0.4
            },
            {
              "pitch": 60,
              "velocity": 89,
              "position": 2.0,
              "duration": 0.4
            },
            {
              "pitch": 64,
              "velocity": 109,
              "position": 2.0,
              "duration": 0.4
            },
            {
              "pitch": 71,
              "velocity": 110,
              "position": 2.0,
              "duration": 0.4
            },
            {
              "pitch": 48,
              "velocity": 44,
              "position": 2.5,
              "duration": 0.241667
            },
            {
              "pitch": 55,
              "velocity": 81,
              "position": 2.5,
              "duration": 0.216667
            },
            {
              "pitch": 60,
              "velocity": 59,
              "position": 2.5,
              "duration": 0.3
            },
            {
              "pitch": 64,
              "velocity": 100,
              "position": 2.5,
              "duration": 0.275
            },
            {
              "pitch": 71,
              "velocity": 54,
              "position": 2.5,
              "duration": 0.25
            },
            {
              "pitch": 48,
              "velocity": 90,
              "position": 3.5,
              "duration": 1.233333
            },
            {
              "pitch": 55,
              "velocity": 90,
              "position": 3.5,
              "duration": 1.291667
            },
            {
              "pitch": 60,
              "velocity": 89,
              "position": 3.5,
              "duration": 1.125
            },
            {
              "pitch": 67,
              "velocity": 109,
              "position": 3.5,
              "duration": 0.733333
            },
            {
              "pitch": 71,
              "velocity": 110,
              "position": 3.5,
              "duration": 0.733333
            },
            {
              "pitch": 67,
              "velocity": 54,
              "position": 4.5,
              "duration": 0.4
            },
            {
              "pitch": 71,
              "velocity": 64,
              "position": 4.5,
              "duration": 0.166667
            },
            {
              "pitch": 48,
              "velocity": 90,
              "position": 5.0,
              "duration": 0.4
            },
            {
              "pitch": 55,
              "velocity": 90,
              "position": 5.0,
              "duration": 0.4
            },
            {
              "pitch": 60,
              "velocity": 71,
              "position": 5.0,
              "duration": 0.233333
            },
            {
              "pitch": 67,
              "velocity": 100,
              "position": 5.0,
              "duration": 0.166667
            },
            {
              "pitch": 71,
              "velocity": 101,
              "position": 5.0,
              "duration": 0.233333
            },
            {
              "pitch": 67,
              "velocity": 71,
              "position": 5.5,
              "duration": 0.141667
            },
            {
              "pitch": 71,
              "velocity": 64,
              "position": 5.5,
              "duration": 0.108333
            },
            {
              "pitch": 48,
              "velocity": 90,
              "position": 6.0,
              "duration": 0.4
            },
            {
              "pitch": 55,
              "velocity": 90,
              "position": 6.0,
              "duration": 0.4
            },
            {
              "pitch": 60,
              "velocity": 89,
              "position": 6.0,
              "duration": 0.4
            },
            {
              "pitch": 64,
              "velocity": 109,
              "position": 6.0,
              "duration": 0.4
            },
            {
              "pitch": 71,
              "velocity": 110,
              "position": 6.0,
              "duration": 0.4
            },
            {
              "pitch": 48,
              "velocity": 44,
              "position": 6.5,
              "duration": 0.241667
            },
            {
              "pitch": 55,
              "velocity": 81,
              "position": 6.5,
              "duration": 0.216667
            },
            {
              "pitch": 60,
              "velocity": 59,
              "position": 6.5,
              "duration": 0.3
            },
            {
              "pitch": 64,
              "velocity": 100,
              "position": 6.5,
              "duration": 0.275
            },
            {
              "pitch": 71,
              "velocity": 54,
              "position": 6.5,
              "duration": 0.25
            },
            {
              "pitch": 60,
              "velocity": 79,
              "position": 7.516667,
              "duration": 0.8
            },
            {
              "pitch": 67,
              "velocity": 107,
              "position": 7.516667,
              "duration": 0.666667
            },
            {
              "pitch": 74,
              "velocity": 107,
              "position": 7.516667,
              "duration": 0.733333
            },
            {
              "pitch": 67,
              "velocity": 26,
              "position": 8.525,
              "duration": 0.083333
            },
            {
              "pitch": 74,
              "velocity": 39,
              "position": 8.525,
              "duration": 0.083333
            },
            {
              "pitch": 60,
              "velocity": 88,
              "position": 9.025,
              "duration": 0.375
            },
            {
              "pitch": 67,
              "velocity": 100,
              "position": 9.041667,
              "duration": 0.191667
            },
            {
              "pitch": 74,
              "velocity": 104,
              "position": 9.041667,
              "duration": 0.25
            },
            {
              "pitch": 67,
              "velocity": 55,
              "position": 9.541667,
              "duration": 0.15
            },
            {
              "pitch": 74,
              "velocity": 48,
              "position": 9.566667,
              "duration": 0.1
            },
            {
              "pitch": 60,
              "velocity": 77,
              "position": 10.041667,
              "duration": 0.25
            },
            {
              "pitch": 67,
              "velocity": 98,
              "position": 10.041667,
              "duration": 0.166667
            },
            {
              "pitch": 74,
              "velocity": 100,
              "position": 10.041667,
              "duration": 0.208333
            },
            {
              "pitch": 67,
              "velocity": 74,
              "position": 10.541667,
              "duration": 0.15
            },
            {
              "pitch": 74,
              "velocity": 82,
              "position": 10.541667,
              "duration": 0.166667
            },
            {
              "pitch": 67,
              "velocity": 89,
              "position": 11.041667,
              "duration": 0.125
            },
            {
              "pitch": 74,
              "velocity": 92,
              "position": 11.066667,
              "duration": 0.125
            },
            {
              "pitch": 67,
              "velocity": 124,
              "position": 11.566667,
              "duration": 0.141667
            },
            {
              "pitch": 74,
              "velocity": 118,
              "position": 11.566667,
              "duration": 0.25
            },
            {
              "pitch": 67,
              "velocity": 64,
              "position": 12.066667,
              "duration": 0.141667
            },
            {
              "pitch": 74,
              "velocity": 72,
              "position": 12.066667,
              "duration": 0.141667
            },
            {
              "pitch": 67,
              "velocity": 81,
              "position": 12.525,
              "duration": 0.141667
            },
            {
              "pitch": 74,
              "velocity": 84,
              "position": 12.541667,
              "duration": 0.15
            },
            {
              "pitch": 48,
              "velocity": 70,
              "position": 13.041667,
              "duration": 0.233333
            },
            {
              "pitch": 67,
              "velocity": 112,
              "position": 13.066667,
              "duration": 0.166667
            },
            {
              "pitch": 74,
              "velocity": 112,
              "position": 13.066667,
              "duration": 0.183333
            },
            {
              "pitch": 67,
              "velocity": 77,
              "position": 13.541667,
              "duration": 0.15
            },
            {
              "pitch": 74,
              "velocity": 84,
              "position": 13.541667,
              "duration": 0.166667
            },
            {
              "pitch": 48,
              "velocity": 64,
              "position": 14.041667,
              "duration": 0.25
            },
            {
              "pitch": 67,
              "velocity": 104,
              "position": 14.066667,
              "duration": 0.166667
            },
            {
              "pitch": 74,
              "velocity": 109,
              "position": 14.066667,
              "duration": 0.183333
            },
            {
              "pitch": 74,
              "velocity": 87,
              "position": 14.541667,
              "duration": 0.208333
            },
            {
              "pitch": 67,
              "velocity": 82,
              "position": 14.566667,
              "duration": 0.166667
            },
            {
              "pitch": 67,
              "velocity": 100,
              "position": 15.041667,
              "duration": 0.166667
            },
            {
              "pitch": 74,
              "velocity": 101,
              "position": 15.041667,
              "duration": 0.191667
            },
            {
              "pitch": 48,
              "velocity": 90,
              "position": 15.5,
              "duration": 0.808333
            },
            {
              "pitch": 55,
              "velocity": 90,
              "position": 15.5,
              "duration": 0.883333
            },
            {
              "pitch": 60,
              "velocity": 89,
              "position": 15.5,
              "duration": 1.125
            },
            {
              "pitch": 67,
              "velocity": 109,
              "position": 15.5,
              "duration": 0.733333
            },
            {
              "pitch": 74,
              "velocity": 110,
              "position": 15.5,
              "duration": 0.733333
            }
          ]
        },
        "12": {
          "ctab": {
            "srcChannel": 12,
            "name": "Guitar",
            "accType": "CHORD2",
            "editable": true,
            "mutedNotes": [],
            "mutedChords": [],
            "sourceChordNote": 0,
            "sourceChordType": "Maj7",
            "ctb2Main": {
              "ntr": "ROOT_FIXED",
              "ntt": "CHORD",
              "bassOn": false,
              "noteLowLimit": 40,
              "noteHighLimit": 76,
              "chordRootUpperLimit": 127,
              "rtr": "NOTE_GENERATOR"
            }
          },
          "notes": [
            {
              "pitch": 48,
              "velocity": 64,
              "position": 1.0,
              "duration": 0.266667
            },
            {
              "pitch": 55,
              "velocity": 74,
              "position": 1.0,
              "duration": 0.25
            },
            {
              "pitch": 48,
              "velocity": 80,
              "position": 2.0,
              "duration": 0.375
            },
            {
              "pitch": 55,
              "velocity": 80,
              "position": 2.0,
              "duration": 0.4
            },
            {
              "pitch": 48,
              "velocity": 69,
              "position": 2.5,
              "duration": 0.275
            },
            {
              "pitch": 55,
              "velocity": 52,
              "position": 2.5,
              "duration": 0.25
            },
            {
              "pitch": 48,
              "velocity": 94,
              "position": 3.5,
              "duration": 0.858333
            },
            {
              "pitch": 55,
              "velocity": 94,
              "position": 3.5,
              "duration": 0.85
            },
            {
              "pitch": 48,
              "velocity": 72,
              "position": 4.5,
              "duration": 0.275
            },
            {
              "pitch": 55,
              "velocity": 55,
              "position": 4.5,
              "duration": 0.25
            },
            {
              "pitch": 48,
              "velocity": 75,
              "position": 5.0,
              "duration": 0.3
            },
            {
              "pitch": 55,
              "velocity": 85,
              "position": 5.0,
              "duration": 0.25
            },
            {
              "pitch": 48,
              "velocity": 52,
              "position": 5.5,
              "duration": 0.225
            },
            {
              "pitch": 55,
              "velocity": 57,
              "position": 5.5,
              "duration": 0.216667
            },
            {
              "pitch": 48,
              "velocity": 80,
              "position": 6.0,
              "duration": 0.375
            },
            {
              "pitch": 55,
              "velocity": 80,
              "position": 6.0,
              "duration": 0.4
            },
            {
              "pitch": 48,
              "velocity": 69,
              "position": 6.5,
              "duration": 0.275
            },
            {
              "pitch": 55,
              "velocity": 52,
              "position": 6.5,
              "duration": 0.25
            },
            {
              "pitch": 48,
              "velocity": 82,
              "position": 7.5,
              "duration": 0.858333
            },
            {
              "pitch": 55,
              "velocity": 82,
              "position": 7.5,
              "duration": 0.85
            },
            {
              "pitch": 48,
              "velocity": 63,
              "position": 9.0,
              "duration": 0.266667
            },
            {
              "pitch": 55,
              "velocity": 73,
              "position": 9.0,
              "duration": 0.25
            },
            {
              "pitch": 48,
              "velocity": 67,
              "position": 10.0,
              "duration": 0.333333
            },
            {
              "pitch": 55,
              "velocity": 68,
              "position": 10.0,
              "duration": 0.375
            },
            {
              "pitch": 48,
              "velocity": 57,
              "position": 10.5,
              "duration": 0.233333
            },
            {
              "pitch": 55,
              "velocity": 65,
              "position": 10.5,
              "duration": 0.166667
            },
            {
              "pitch": 48,
              "velocity": 81,
              "position": 11.5,
              "duration": 0.875
            },
            {
              "pitch": 55,
              "velocity": 85,
              "position": 11.5,
              "duration": 0.875
            },
            {
              "pitch": 48,
              "velocity": 62,
              "position": 12.5,
              "duration": 0.25
            },
            {
              "pitch": 55,
              "velocity": 73,
              "position": 12.5,
              "duration": 0.233333
            },
            {
              "pitch": 48,
              "velocity": 77,
              "position": 13.0,
              "duration": 1.183333
            },
            {
              "pitch": 55,
              "velocity": 84,
              "position": 13.0,
              "duration": 1.158333
            },
            {
              "pitch": 48,
              "velocity": 63,
              "position": 14.5,
              "duration": 0.225
            },
            {
              "pitch": 55,
              "velocity": 69,
              "position": 14.5,
              "duration": 0.225
            },
            {
              "pitch": 48,
              "velocity": 83,
              "position": 15.5,
              "duration": 1.325
            },
            {
              "pitch": 55,
              "velocity": 83,
              "position": 15.5,
              "duration": 1.291667
            }
          ]
        },
        "13": {
          "ctab": {
            "srcChannel": 13,
            "name": "Strings",
            "accType": "PAD",
            "editable": true,
            "mutedNotes": [],
            "mutedChords": [],
            "sourceChordNote": 0,
            "sourceChordType": "Maj7",
            "ctb2Main": {
              "ntr": "ROOT_FIXED",
              "ntt": "MELODY",
              "bassOn": false,
              "noteLowLimit": 36,
              "noteHighLimit": 96,
              "chordRootUpperLimit": 127,
              "rtr": "PITCH_SHIFT"
            }
          },
          "notes": [
            {
              "pitch": 48,
              "velocity": 72,
              "position": 1.0,
              "duration": 0.35
            },
            {
              "pitch": 55,
              "velocity": 70,
              "position": 1.0,
              "duration": 0.475
            },
            {
              "pitch": 60,
              "velocity": 55,
              "position": 1.0,
              "duration": 0.458333
            },
            {
              "pitch": 48,
              "velocity": 83,
              "position": 2.0,
              "duration": 0.3
            },
            {
              "pitch": 55,
              "velocity": 89,
              "position": 2.0,
              "duration": 0.341667
            },
            {
              "pitch": 60,
              "velocity": 83,
              "position": 2.0,
              "duration": 0.366667
            },
            {
              "pitch": 48,
              "velocity": 59,
              "position": 2.5,
              "duration": 0.208333
            },
            {
              "pitch": 55,
              "velocity": 53,
              "position": 2.5,
              "duration": 0.208333
            },
            {
              "pitch": 60,
              "velocity": 47,
              "position": 2.5,
              "duration": 0.25
            },
            {
              "pitch": 48,
              "velocity": 81,
              "position": 3.0,
              "duration": 0.35
            },
            {
              "pitch": 55,
              "velocity": 79,
              "position": 3.0,
              "duration": 0.416667
            },
            {
              "pitch": 60,
              "velocity": 64,
              "position": 3.0,
              "duration": 0.458333
            },
            {
              "pitch": 48,
              "velocity": 94,
              "position": 3.5,
              "duration": 0.783333
            },
            {
              "pitch": 55,
              "velocity": 100,
              "position": 3.5,
              "duration": 0.825
            },
            {
              "pitch": 60,
              "velocity": 94,
              "position": 3.5,
              "duration": 0.85
            },
            {
              "pitch": 48,
              "velocity": 59,
              "position": 4.466667,
              "duration": 0.425
            },
            {
              "pitch": 55,
              "velocity": 53,
              "position": 4.466667,
              "duration": 0.425
            },
            {
              "pitch": 60,
              "velocity": 47,
              "position": 4.475,
              "duration": 0.25
            },
            {
              "pitch": 48,
              "velocity": 81,
              "position": 4.95,
              "duration": 0.35
            },
            {
              "pitch": 55,
              "velocity": 79,
              "position": 4.966667,
              "duration": 0.475
            },
            {
              "pitch": 60,
              "velocity": 64,
              "position": 4.966667,
              "duration": 0.458333
            },
            {
              "pitch": 48,
              "velocity": 82,
              "position": 6.0,
              "duration": 0.3
            },
            {
              "pitch": 55,
              "velocity": 88,
              "position": 6.0,
              "duration": 0.341667
            },
            {
              "pitch": 60,
              "velocity": 82,
              "position": 6.0,
              "duration": 0.366667
            },
            {
              "pitch": 48,
              "velocity": 58,
              "position": 6.5,
              "duration": 0.4
            },
            {
              "pitch": 55,
              "velocity": 52,
              "position": 6.5,
              "duration": 0.208333
            },
            {
              "pitch": 60,
              "velocity": 46,
              "position": 6.5,
              "duration": 0.4
            },
            {
              "pitch": 48,
              "velocity": 80,
              "position": 7.0,
              "duration": 0.35
            },
            {
              "pitch": 55,
              "velocity": 78,
              "position": 7.0,
              "duration": 0.416667
            },
            {
              "pitch": 48,
              "velocity": 87,
              "position": 7.5,
              "duration": 0.825
            },
            {
              "pitch": 55,
              "velocity": 89,
              "position": 7.5,
              "duration": 0.866667
            },
            {
              "pitch": 60,
              "velocity": 82,
              "position": 7.5,
              "duration": 0.825
            },
            {
              "pitch": 48,
              "velocity": 62,
              "position": 8.966667,
              "duration": 0.375
            },
            {
              "pitch": 55,
              "velocity": 73,
              "position": 8.975,
              "duration": 0.416667
            },
            {
              "pitch": 60,
              "velocity": 68,
              "position": 8.975,
              "duration": 0.483333
            },
            {
              "pitch": 48,
              "velocity": 77,
              "position": 9.983333,
              "duration": 0.358333
            },
            {
              "pitch": 55,
              "velocity": 79,
              "position": 9.983333,
              "duration": 0.4
            },
            {
              "pitch": 60,
              "velocity": 76,
              "position": 9.983333,
              "duration": 0.416667
            },
            {
              "pitch": 48,
              "velocity": 64,
              "position": 10.525,
              "duration": 0.166667
            },
            {
              "pitch": 55,
              "velocity": 62,
              "position": 10.566667,
              "duration": 0.166667
            },
            {
              "pitch": 60,
              "velocity": 51,
              "position": 10.566667,
              "duration": 0.233333
            },
            {
              "pitch": 48,
              "velocity": 81,
              "position": 11.483333,
              "duration": 0.791667
            },
            {
              "pitch": 55,
              "velocity": 82,
              "position": 11.483333,
              "duration": 0.816667
            },
            {
              "pitch": 60,
              "velocity": 76,
              "position": 11.483333,
              "duration": 0.816667
            },
            {
              "pitch": 48,
              "velocity": 57,
              "position": 12.483333,
              "duration": 0.166667
            },
            {
              "pitch": 55,
              "velocity": 61,
              "position": 12.525,
              "duration": 0.166667
            },
            {
              "pitch": 60,
              "velocity": 52,
              "position": 12.525,
              "duration": 0.208333
            },
            {
              "pitch": 55,
              "velocity": 81,
              "position": 13.025,
              "duration": 0.233333
            },
            {
              "pitch": 60,
              "velocity": 74,
              "position": 13.025,
              "duration": 0.316667
            },
            {
              "pitch": 48,
              "velocity": 81,
              "position": 13.05,
              "duration": 0.208333
            },
            {
              "pitch": 48,
              "velocity": 79,
              "position": 14.008333,
              "duration": 0.208333
            },
            {
              "pitch": 55,
              "velocity": 82,
              "position": 14.025,
              "duration": 0.166667
            },
            {
              "pitch": 60,
              "velocity": 73,
              "position": 14.025,
              "duration": 0.208333
            },
            {
              "pitch": 48,
              "velocity": 54,
              "position": 14.466667,
              "duration": 0.166667
            },
            {
              "pitch": 55,
              "velocity": 62,
              "position": 14.466667,
              "duration": 0.166667
            },
            {
              "pitch": 60,
              "velocity": 39,
              "position": 14.508333,
              "duration": 0.166667
            },
            {
              "pitch": 55,
              "velocity": 74,
              "position": 14.983333,
              "duration": 0.166667
            },
            {
              "pitch": 60,
              "velocity": 69,
              "position": 14.983333,
              "duration": 0.233333
            },
            {
              "pitch": 48,
              "velocity": 86,
              "position": 15.008333,
              "duration": 0.166667
            },
            {
              "pitch": 48,
              "velocity": 94,
              "position": 15.5,
              "duration": 0.783333
            },
            {
              "pitch": 55,
              "velocity": 100,
              "position": 15.5,
              "duration": 0.825
            },
            {
              "pitch": 60,
              "velocity": 94,
              "position": 15.5,
              "duration": 0.85
            }
          ]
        }
      }
    },
    "Ending_A": {
      "type": "Ending_A",
      "sizeInBeats": 16,
      "channels": {
        "9": {
          "ctab": {
            "srcChannel": 9,
            "name": "Drums",
            "accType": "RHYTHM",
            "editable": false,
            "mutedNotes": [],
            "mutedChords": [],
            "sourceChordNote": 0,
            "sourceChordType": "Maj",
            "ctb2Main": {
              "ntr": "ROOT_FIXED",
              "ntt": "BYPASS",
              "bassOn": false,
              "noteLowLimit": 20,
              "noteHighLimit": 127,
              "chordRootUpperLimit": 127,
              "rtr": "RETRIGGER"
            }
          },
          "notes": [
            {
              "pitch": 42,
              "velocity": 115,
              "position": 0.0,
              "duration": 0.208333
            },
            {
              "pitch": 35,
              "velocity": 80,
              "position": 0.5,
              "duration": 0.208333
            },
            {
              "pitch": 42,
              "velocity": 70,
              "position": 0.5,
              "duration": 0.208333
            },
            {
              "pitch": 35,
              "velocity": 90,
              "position": 1.0,
              "duration": 0.208333
            },
            {
              "pitch": 38,
              "velocity": 90,
              "position": 1.0,
              "duration": 0.208333
            },
            {
              "pitch": 42,
              "velocity": 80,
              "position": 1.0,
              "duration": 0.208333
            },
            {
              "pitch": 42,
              "velocity": 90,
              "position": 1.5,
              "duration": 0.208333
            },
            {
              "pitch": 35,
              "velocity": 90,
              "position": 2.0,
              "duration": 0.208333
            },
            {
              "pitch": 42,
              "velocity": 80,
              "position": 2.0,
              "duration": 0.208333
            },
            {
              "pitch": 35,
              "velocity": 60,
              "position": 2.5,
              "duration": 0.208333
            },
            {
              "pitch": 42,
              "velocity": 70,
              "position": 2.5,
              "duration": 0.208333
            },
            {
              "pitch": 38,
              "velocity": 90,
              "position": 3.0,
              "duration": 0.208333
            },
            {
              "pitch": 46,
              "velocity": 115,
              "position": 3.0,
              "duration": 0.208333
            },
            {
              "pitch": 35,
              "velocity": 80,
              "position": 3.5,
              "duration": 0.208333
            },
            {
              "pitch": 42,
              "velocity": 60,
              "position": 3.5,
              "duration": 0.208333
            },
            {
              "pitch": 42,
              "velocity": 80,
              "position": 4.0,
              "duration": 0.208333
            },
            {
              "pitch": 35,
              "velocity": 80,
              "position": 4.5,
              "duration": 0.208333
            },
            {
              "pitch": 42,
              "velocity": 70,
              "position": 4.5,
              "duration": 0.208333
            },
            {
              "pitch": 35,
              "velocity": 90,
              "position": 5.0,
              "duration": 0.208333
            },
            {
              "pitch": 38,
              "velocity": 90,
              "position": 5.0,
              "duration": 0.208333
            },
            {
              "pitch": 42,
              "velocity": 80,
              "position": 5.0,
              "duration": 0.208333
            },
            {
              "pitch": 42,
              "velocity": 70,
              "position": 5.5,
              "duration": 0.208333
            },
            {
              "pitch": 35,
              "velocity": 90,
              "position": 6.0,
              "duration": 0.208333
            },
            {
              "pitch": 42,
              "velocity": 80,
              "position": 6.0,
              "duration": 0.208333
            },
            {
              "pitch": 35,
              "velocity": 60,
              "position": 6.5,
              "duration": 0.208333
            },
            {
              "pitch": 42,
              "velocity": 70,
              "position": 6.5,
              "duration": 0.208333
            },
            {
              "pitch": 38,
              "velocity": 90,
              "position": 7.0,
              "duration": 0.208333
            },
            {
              "pitch": 42,
              "velocity": 100,
              "position": 7.0,
              "duration": 0.208333
            },
            {
              "pitch": 35,
              "velocity": 80,
              "position": 7.5,
              "duration": 0.208333
            },
            {
              "pitch": 42,
              "velocity": 60,
              "position": 7.5,
              "duration": 0.208333
            },
            {
              "pitch": 52,
              "velocity": 80,
              "position": 7.5,
              "duration": 0.208333
            },
            {
              "pitch": 42,
              "velocity": 80,
              "position": 8.0,
              "duration": 0.208333
            },
            {
              "pitch": 35,
              "velocity": 80,
              "position": 8.5,
              "duration": 0.208333
            },
            {
              "pitch": 42,
              "velocity": 70,
              "position": 8.5,
              "duration": 0.208333
            },
            {
              "pitch": 35,
              "velocity": 90,
              "position": 9.0,
              "duration": 0.208333
            },
            {
              "pitch": 38,
              "velocity": 90,
              "position": 9.0,
              "duration": 0.208333
            },
            {
              "pitch": 42,
              "velocity": 80,
              "position": 9.0,
              "duration": 0.208333
            },
            {
              "pitch": 42,
              "velocity": 70,
              "position": 9.5,
              "duration": 0.208333
            },
            {
              "pitch": 35,
              "velocity": 90,
              "position": 10.0,
              "duration": 0.208333
            },
            {
              "pitch": 42,
              "velocity": 80,
              "position": 10.0,
              "duration": 0.208333
            },
            {
              "pitch": 35,
              "velocity": 60,
              "position": 10.5,
              "duration": 0.208333
            },
            {
              "pitch": 42,
              "velocity": 70,
              "position": 10.5,
              "duration": 0.208333
            },
            {
              "pitch": 38,
              "velocity": 90,
              "position": 11.0,
              "duration": 0.208333
            },
            {
              "pitch": 42,
              "velocity": 100,
              "position": 11.0,
              "duration": 0.208333
            },
            {
              "pitch": 35,
              "velocity": 80,
              "position": 11.5,
              "duration": 0.208333
            },
            {
              "pitch": 42,
              "velocity": 60,
              "position": 11.5,
              "duration": 0.208333
            },
            {
              "pitch": 42,
              "velocity": 90,
              "position": 12.0,
              "duration": 0.208333
            },
            {
              "pitch": 35,
              "velocity": 100,
              "position": 12.5,
              "duration": 0.208333
            },
            {
              "pitch": 38,
              "velocity": 90,
              "position": 12.5,
              "duration": 0.208333
            },
            {
              "pitch": 42,
              "velocity": 100,
              "position": 12.5,
              "duration": 0.208333
            },
            {
              "pitch": 35,
              "velocity": 80,
              "position": 13.0,
              "duration": 0.208333
            },
            {
              "pitch": 38,
              "velocity": 100,
              "position": 13.0,
              "duration": 0.208333
            },
            {
              "pitch": 42,
              "velocity": 90,
              "position": 13.0,
              "duration": 0.208333
            },
            {
              "pitch": 38,
              "velocity": 70,
              "position": 13.5,
              "duration": 0.208333
            },
            {
              "pitch": 46,
              "velocity": 80,
              "position": 13.5,
              "duration": 0.208333
            },
            {
              "pitch": 38,
              "velocity": 50,
              "position": 13.75,
              "duration": 0.208333
            },
            {
              "pitch": 35,
              "velocity": 100,
              "position": 14.0,
              "duration": 0.208333
            },
            {
              "pitch": 38,
              "velocity": 100,
              "position": 14.0,
              "duration": 0.208333
            },
            {
              "pitch": 46,
              "velocity": 100,
              "position": 14.0,
              "duration": 0.208333
            },
            {
              "pitch": 35,
              "velocity": 80,
              "position": 14.5,
              "duration": 0.208333
            },
            {
              "pitch": 46,
              "velocity": 80,
              "position": 14.5,
              "duration": 0.208333
            },
            {
              "pitch": 49,
              "velocity": 115,
              "position": 14.5,
              "duration": 0.208333
            },
            {
              "pitch": 35,
              "velocity": 90,
              "position": 15.0,
              "duration": 0.208333
            },
            {
              "pitch": 46,
              "velocity": 100,
              "position": 15.0,
              "duration": 0.208333
            },
            {
              "pitch": 48,
              "velocity": 100,
              "position": 15.0,
              "duration": 0.208333
            },
            {
              "pitch": 35,
              "velocity": 100,
              "position": 15.5,
              "duration": 0.208333
            },
            {
              "pitch": 38,
              "velocity": 90,
              "position": 15.5,
              "duration": 0.208333
            },
            {
              "pitch": 46,
              "velocity": 115,
              "position": 15.5,
              "duration": 0.208333
            },
            {
              "pitch": 52,
              "velocity": 100,
              "position": 15.5,
              "duration": 0.208333
            },
            {
              "pitch": 57,
              "velocity": 100,
              "position": 15.5,
              "duration": 0.208333
            }
          ]
        },
        "10": {
          "ctab": {
            "srcChannel": 10,
            "name": "Bass",
            "accType": "BASS",
            "editable": true,
            "mutedNotes": [],
            "mutedChords": [],
            "sourceChordNote": 0,
            "sourceChordType": "Maj7",
            "ctb2Main": {
              "ntr": "ROOT_TRANSPOSITION",
              "ntt": "BYPASS",
              "bassOn": true,
              "noteLowLimit": 20,
              "noteHighLimit": 60,
              "chordRootUpperLimit": 127,
              "rtr": "NOTE_GENERATOR"
            }
          },
          "notes": [
            {
              "pitch": 36,
              "velocity": 106,
              "position": 0.5,
              "duration": 0.225
            },
            {
              "pitch": 43,
              "velocity": 87,
              "position": 1.0,
              "duration": 0.316667
            },
            {
              "pitch": 36,
              "velocity": 111,
              "position": 1.5,
              "duration": 0.85
            },
            {
              "pitch": 36,
              "velocity": 88,
              "position": 2.5,
              "duration": 0.266667
            },
            {
              "pitch": 36,
              "velocity": 111,
              "position": 3.5,
              "duration": 0.858333
            },
            {
              "pitch": 36,
              "velocity": 105,
              "position": 4.5,
              "duration": 0.3
            },
            {
              "pitch": 31,
              "velocity": 87,
              "position": 5.0,
              "duration": 0.316667
            },
            {
              "pitch": 36,
              "velocity": 111,
              "position": 5.5,
              "duration": 0.85
            },
            {
              "pitch": 36,
              "velocity": 88,
              "position": 6.5,
              "duration": 0.266667
            },
            {
              "pitch": 36,
              "velocity": 111,
              "position": 7.5,
              "duration": 0.958333
            },
            {
              "pitch": 35,
              "velocity": 106,
              "position": 8.5,
              "duration": 0.266667
            },
            {
              "pitch": 36,
              "velocity": 87,
              "position": 9.0,
              "duration": 0.316667
            },
            {
              "pitch": 36,
              "velocity": 101,
              "position": 10.0,
              "duration": 0.4
            },
            {
              "pitch": 36,
              "velocity": 91,
              "position": 10.5,
              "duration": 0.225
            },
            {
              "pitch": 36,
              "velocity": 109,
              "position": 12.0,
              "duration": 0.366667
            },
            {
              "pitch": 36,
              "velocity": 90,
              "position": 12.5,
              "duration": 0.225
            },
            {
              "pitch": 48,
              "velocity": 98,
              "position": 13.0,
              "duration": 0.583333
            },
            {
              "pitch": 47,
              "velocity": 70,
              "position": 13.5,
              "duration": 0.391667
            },
            {
              "pitch": 43,
              "velocity": 95,
              "position": 14.0,
              "duration": 0.458333
            },
            {
              "pitch": 31,
              "velocity": 87,
              "position": 14.5,
              "duration": 0.4
            },
            {
              "pitch": 36,
              "velocity": 97,
              "position": 15.0,
              "duration": 0.25
            },
            {
              "pitch": 36,
              "velocity": 118,
              "position": 15.5,
              "duration": 0.883333
            }
          ]
        },
        "11": {
          "ctab": {
            "srcChannel": 11,
            "name": "Piano",
            "accType": "CHORD1",
            "editable": true,
            "mutedNotes": [],
            "mutedChords": [],
            "sourceChordNote": 0,
            "sourceChordType": "Maj7",
            "ctb2Main": {
              "ntr": "ROOT_FIXED",
              "ntt": "CHORD",
              "bassOn": false,
              "noteLowLimit": 48,
              "noteHighLimit": 84,
              "chordRootUpperLimit": 127,
              "rtr": "NOTE_GENERATOR"
            }
          },
          "notes": [
            {
              "pitch": 64,
              "velocity": 54,
              "position": 0.5,
              "duration": 0.4
            },
            {
              "pitch": 71,
              "velocity": 64,
              "position": 0.5,
              "duration": 0.166667
            },
            {
              "pitch": 48,
              "velocity": 90,
              "position": 1.0,
              "duration": 0.4
            },
            {
              "pitch": 55,
              "velocity": 90,
              "position": 1.0,
              "duration": 0.4
            },
            {
              "pitch": 60,
              "velocity": 71,
              "position": 1.0,
              "duration": 0.35
            },
            {
              "pitch": 64,
              "velocity": 100,
              "position": 1.0,
              "duration": 0.4
            },
            {
              "pitch": 71,
              "velocity": 101,
              "position": 1.0,
              "duration": 0.4
            },
            {
              "pitch": 60,
              "velocity": 71,
              "position": 1.5,
              "duration": 0.291667
            },
            {
              "pitch": 48,
              "velocity": 90,
              "position": 2.0,
              "duration": 0.4
            },
            {
              "pitch": 55,
              "velocity": 90,
              "position": 2.0,
              "duration": 0.4
            },
            {
              "pitch": 60,
              "velocity": 89,
              "position": 2.0,
              "duration": 0.4
            },
            {
              "pitch": 67,
              "velocity": 109,
              "position": 2.0,
              "duration": 0.4
            },
            {
              "pitch": 71,
              "velocity": 110,
              "position": 2.0,
              "duration": 0.4
            },
            {
              "pitch": 48,
              "velocity": 44,
              "position": 2.5,
              "duration": 0.241667
            },
            {
              "pitch": 55,
              "velocity": 81,
              "position": 2.5,
              "duration": 0.216667
            },
            {
              "pitch": 60,
              "velocity": 59,
              "position": 2.5,
              "duration": 0.3
            },
            {
              "pitch": 67,
              "velocity": 100,
              "position": 2.5,
              "duration": 0.275
            },
            {
              "pitch": 71,
              "velocity": 54,
              "position": 2.5,
              "duration": 0.25
            },
            {
              "pitch": 48,
              "velocity": 90,
              "position": 3.5,
              "duration": 0.9
            },
            {
              "pitch": 55,
              "velocity": 90,
              "position": 3.5,
              "duration": 0.958333
            },
            {
              "pitch": 60,
              "velocity": 89,
              "position": 3.5,
              "duration": 1.125
            },
            {
              "pitch": 67,
              "velocity": 109,
              "position": 3.5,
              "duration": 0.733333
            },
            {
              "pitch": 71,
              "velocity": 110,
              "position": 3.5,
              "duration": 0.733333
            },
            {
              "pitch": 67,
              "velocity": 54,
              "position": 4.5,
              "duration": 0.4
            },
            {
              "pitch": 71,
              "velocity": 64,
              "position": 4.5,
              "duration": 0.166667
            },
            {
              "pitch": 48,
              "velocity": 90,
              "position": 5.0,
              "duration": 0.4
            },
            {
              "pitch": 55,
              "velocity": 90,
              "position": 5.0,
              "duration": 0.4
            },
            {
              "pitch": 60,
              "velocity": 71,
              "position": 5.0,
              "duration": 0.35
            },
            {
              "pitch": 67,
              "velocity": 100,
              "position": 5.0,
              "duration": 0.4
            },
            {
              "pitch": 71,
              "velocity": 101,
              "position": 5.0,
              "duration": 0.4
            },
            {
              "pitch": 60,
              "velocity": 71,
              "position": 5.5,
              "duration": 0.291667
            },
            {
              "pitch": 48,
              "velocity": 90,
              "position": 6.0,
              "duration": 0.4
            },
            {
              "pitch": 55,
              "velocity": 90,
              "position": 6.0,
              "duration": 0.4
            },
            {
              "pitch": 60,
              "velocity": 89,
              "position": 6.0,
              "duration": 0.4
            },
            {
              "pitch": 64,
              "velocity": 109,
              "position": 6.0,
              "duration": 0.4
            },
            {
              "pitch": 71,
              "velocity": 110,
              "position": 6.0,
              "duration": 0.4
            },
            {
              "pitch": 48,
              "velocity": 44,
              "position": 6.5,
              "duration": 0.241667
            },
            {
              "pitch": 55,
              "velocity": 81,
              "position": 6.5,
              "duration": 0.216667
            },
            {
              "pitch": 60,
              "velocity": 59,
              "position": 6.5,
              "duration": 0.3
            },
            {
              "pitch": 64,
              "velocity": 100,
              "position": 6.5,
              "duration": 0.275
            },
            {
              "pitch": 71,
              "velocity": 54,
              "position": 6.5,
              "duration": 0.25
            },
            {
              "pitch": 67,
              "velocity": 98,
              "position": 7.5,
              "duration": 0.8
            },
            {
              "pitch": 48,
              "velocity": 78,
              "position": 7.516667,
              "duration": 1.108333
            },
            {
              "pitch": 55,
              "velocity": 78,
              "position": 7.516667,
              "duration": 1.091667
            },
            {
              "pitch": 64,
              "velocity": 81,
              "position": 7.516667,
              "duration": 0.75
            },
            {
              "pitch": 71,
              "velocity": 94,
              "position": 7.516667,
              "duration": 0.758333
            },
            {
              "pitch": 67,
              "velocity": 59,
              "position": 8.525,
              "duration": 0.166667
            },
            {
              "pitch": 64,
              "velocity": 61,
              "position": 8.55,
              "duration": 0.141667
            },
            {
              "pitch": 71,
              "velocity": 51,
              "position": 8.55,
              "duration": 0.166667
            },
            {
              "pitch": 71,
              "velocity": 96,
              "position": 9.025,
              "duration": 0.208333
            },
            {
              "pitch": 64,
              "velocity": 80,
              "position": 9.05,
              "duration": 0.183333
            },
            {
              "pitch": 67,
              "velocity": 95,
              "position": 9.05,
              "duration": 0.125
            },
            {
              "pitch": 67,
              "velocity": 64,
              "position": 9.508333,
              "duration": 0.183333
            },
            {
              "pitch": 64,
              "velocity": 43,
              "position": 9.525,
              "duration": 0.208333
            },
            {
              "pitch": 71,
              "velocity": 65,
              "position": 9.525,
              "duration": 0.191667
            },
            {
              "pitch": 67,
              "velocity": 95,
              "position": 10.008333,
              "duration": 0.208333
            },
            {
              "pitch": 71,
              "velocity": 86,
              "position": 10.008333,
              "duration": 0.25
            },
            {
              "pitch": 64,
              "velocity": 80,
              "position": 10.025,
              "duration": 0.233333
            },
            {
              "pitch": 67,
              "velocity": 53,
              "position": 10.55,
              "duration": 0.125
            },
            {
              "pitch": 71,
              "velocity": 57,
              "position": 10.55,
              "duration": 0.125
            },
            {
              "pitch": 64,
              "velocity": 31,
              "position": 10.566667,
              "duration": 0.083333
            },
            {
              "pitch": 64,
              "velocity": 55,
              "position": 11.008333,
              "duration": 0.141667
            },
            {
              "pitch": 71,
              "velocity": 85,
              "position": 11.008333,
              "duration": 0.141667
            },
            {
              "pitch": 67,
              "velocity": 72,
              "position": 11.025,
              "duration": 0.083333
            },
            {
              "pitch": 64,
              "velocity": 93,
              "position": 11.525,
              "duration": 0.316667
            },
            {
              "pitch": 67,
              "velocity": 109,
              "position": 11.525,
              "duration": 0.275
            },
            {
              "pitch": 71,
              "velocity": 109,
              "position": 11.525,
              "duration": 0.275
            },
            {
              "pitch": 79,
              "velocity": 97,
              "position": 12.5,
              "duration": 0.141667
            },
            {
              "pitch": 83,
              "velocity": 91,
              "position": 12.5,
              "duration": 0.125
            },
            {
              "pitch": 79,
              "velocity": 98,
              "position": 12.75,
              "duration": 0.108333
            },
            {
              "pitch": 83,
              "velocity": 67,
              "position": 12.75,
              "duration": 0.108333
            },
            {
              "pitch": 79,
              "velocity": 93,
              "position": 13.0,
              "duration": 0.233333
            },
            {
              "pitch": 83,
              "velocity": 91,
              "position": 13.0,
              "duration": 0.208333
            },
            {
              "pitch": 79,
              "velocity": 97,
              "position": 13.5,
              "duration": 0.183333
            },
            {
              "pitch": 83,
              "velocity": 92,
              "position": 13.5,
              "duration": 0.208333
            },
            {
              "pitch": 79,
              "velocity": 101,
              "position": 14.0,
              "duration": 0.191667
            },
            {
              "pitch": 83,
              "velocity": 99,
              "position": 14.0,
              "duration": 0.233333
            },
            {
              "pitch": 79,
              "velocity": 97,
              "position": 14.5,
              "duration": 0.25
            },
            {
              "pitch": 83,
              "velocity": 87,
              "position": 14.5,
              "duration": 0.291667
            },
            {
              "pitch": 79,
              "velocity": 95,
              "position": 15.0,
              "duration": 0.166667
            },
            {
              "pitch": 83,
              "velocity": 79,
              "position": 15.0,
              "duration": 0.166667
            },
            {
              "pitch": 48,
              "velocity": 110,
              "position": 15.5,
              "duration": 3.583333
            },
            {
              "pitch": 36,
              "velocity": 109,
              "position": 15.508333,
              "duration": 3.608333
            }
          ]
        },
        "12": {
          "ctab": {
            "srcChannel": 12,
            "name": "Guitar",
            "accType": "CHORD2",
            "editable": true,
            "mutedNotes": [],
            "mutedChords": [],
            "sourceChordNote": 0,
            "sourceChordType": "Maj7",
            "ctb2Main": {
              "ntr": "ROOT_FIXED",
              "ntt": "CHORD",
              "bassOn": false,
              "noteLowLimit": 40,
              "noteHighLimit": 76,
              "chordRootUpperLimit": 127,
              "rtr": "NOTE_GENERATOR"
            }
          },
          "notes": [
            {
              "pitch": 48,
              "velocity": 64,
              "position": 1.0,
              "duration": 0.266667
            },
            {
              "pitch": 55,
              "velocity": 74,
              "position": 1.0,
              "duration": 0.25
            },
            {
              "pitch": 48,
              "velocity": 80,
              "position": 2.0,
              "duration": 0.375
            },
            {
              "pitch": 55,
              "velocity": 80,
              "position": 2.0,
              "duration": 0.4
            },
            {
              "pitch": 48,
              "velocity": 69,
              "position": 2.5,
              "duration": 0.275
            },
            {
              "pitch": 55,
              "velocity": 52,
              "position": 2.5,
              "duration": 0.25
            },
            {
              "pitch": 48,
              "velocity": 88,
              "position": 3.5,
              "duration": 0.858333
            },
            {
              "pitch": 55,
              "velocity": 88,
              "position": 3.5,
              "duration": 0.85
            },
            {
              "pitch": 48,
              "velocity": 55,
              "position": 4.5,
              "duration": 0.275
            },
            {
              "pitch": 55,
              "velocity": 64,
              "position": 4.5,
              "duration": 0.25
            },
            {
              "pitch": 48,
              "velocity": 69,
              "position": 5.0,
              "duration": 0.266667
            },
            {
              "pitch": 55,
              "velocity": 79,
              "position": 5.0,
              "duration": 0.25
            },
            {
              "pitch": 48,
              "velocity": 80,
              "position": 6.0,
              "duration": 0.375
            },
            {
              "pitch": 55,
              "velocity": 80,
              "position": 6.0,
              "duration": 0.4
            },
            {
              "pitch": 48,
              "velocity": 69,
              "position": 6.5,
              "duration": 0.275
            },
            {
              "pitch": 55,
              "velocity": 52,
              "position": 6.5,
              "duration": 0.25
            },
            {
              "pitch": 48,
              "velocity": 88,
              "position": 7.5,
              "duration": 0.858333
            },
            {
              "pitch": 55,
              "velocity": 88,
              "position": 7.5,
              "duration": 0.85
            },
            {
              "pitch": 48,
              "velocity": 55,
              "position": 8.5,
              "duration": 0.275
            },
            {
              "pitch": 55,
              "velocity": 64,
              "position": 8.5,
              "duration": 0.25
            },
            {
              "pitch": 48,
              "velocity": 69,
              "position": 9.0,
              "duration": 0.266667
            },
            {
              "pitch": 55,
              "velocity": 79,
              "position": 9.0,
              "duration": 0.25
            },
            {
              "pitch": 48,
              "velocity": 73,
              "position": 10.0,
              "duration": 0.333333
            },
            {
              "pitch": 55,
              "velocity": 74,
              "position": 10.0,
              "duration": 0.375
            },
            {
              "pitch": 48,
              "velocity": 63,
              "position": 10.5,
              "duration": 0.233333
            },
            {
              "pitch": 55,
              "velocity": 71,
              "position": 10.5,
              "duration": 0.166667
            },
            {
              "pitch": 48,
              "velocity": 88,
              "position": 11.5,
              "duration": 0.858333
            },
            {
              "pitch": 55,
              "velocity": 88,
              "position": 11.5,
              "duration": 0.85
            },
            {
              "pitch": 48,
              "velocity": 55,
              "position": 12.5,
              "duration": 0.275
            },
            {
              "pitch": 55,
              "velocity": 64,
              "position": 12.5,
              "duration": 0.25
            },
            {
              "pitch": 48,
              "velocity": 69,
              "position": 13.0,
              "duration": 0.266667
            },
            {
              "pitch": 55,
              "velocity": 79,
              "position": 13.0,
              "duration": 0.25
            },
            {
              "pitch": 48,
              "velocity": 73,
              "position": 14.0,
              "duration": 0.333333
            },
            {
              "pitch": 55,
              "velocity": 74,
              "position": 14.0,
              "duration": 0.375
            },
            {
              "pitch": 48,
              "velocity": 63,
              "position": 14.5,
              "duration": 0.233333
            },
            {
              "pitch": 55,
              "velocity": 71,
              "position": 14.5,
              "duration": 0.166667
            },
            {
              "pitch": 48,
              "velocity": 73,
              "position": 15.5,
              "duration": 0.883333
            },
            {
              "pitch": 55,
              "velocity": 81,
              "position": 15.5,
              "duration": 0.883333
            }
          ]
        },
        "13": {
          "ctab": {
            "srcChannel": 13,
            "name": "Strings",
            "accType": "PAD",
            "editable": true,
            "mutedNotes": [],
            "mutedChords": [],
            "sourceChordNote": 0,
            "sourceChordType": "Maj7",
            "ctb2Main": {
              "ntr": "ROOT_FIXED",
              "ntt": "MELODY",
              "bassOn": false,
              "noteLowLimit": 36,
              "noteHighLimit": 96,
              "chordRootUpperLimit": 127,
              "rtr": "PITCH_SHIFT"
            }
          },
          "notes": [
            {
              "pitch": 48,
              "velocity": 74,
              "position": 0.0,
              "duration": 0.3
            },
            {
              "pitch": 55,
              "velocity": 80,
              "position": 0.0,
              "duration": 0.341667
            },
            {
              "pitch": 60,
              "velocity": 74,
              "position": 0.0,
              "duration": 0.366667
            },
            {
              "pitch": 48,
              "velocity": 72,
              "position": 0.95,
              "duration": 0.35
            },
            {
              "pitch": 55,
              "velocity": 70,
              "position": 0.966667,
              "duration": 0.475
            },
            {
              "pitch": 60,
              "velocity": 55,
              "position": 0.966667,
              "duration": 0.458333
            },
            {
              "pitch": 48,
              "velocity": 83,
              "position": 2.0,
              "duration": 0.3
            },
            {
              "pitch": 55,
              "velocity": 89,
              "position": 2.0,
              "duration": 0.341667
            },
            {
              "pitch": 60,
              "velocity": 83,
              "position": 2.0,
              "duration": 0.366667
            },
            {
              "pitch": 48,
              "velocity": 59,
              "position": 2.5,
              "duration": 0.208333
            },
            {
              "pitch": 55,
              "velocity": 53,
              "position": 2.5,
              "duration": 0.208333
            },
            {
              "pitch": 60,
              "velocity": 47,
              "position": 2.5,
              "duration": 0.25
            },
            {
              "pitch": 48,
              "velocity": 81,
              "position": 3.0,
              "duration": 0.35
            },
            {
              "pitch": 55,
              "velocity": 79,
              "position": 3.0,
              "duration": 0.416667
            },
            {
              "pitch": 60,
              "velocity": 64,
              "position": 3.0,
              "duration": 0.458333
            },
            {
              "pitch": 48,
              "velocity": 94,
              "position": 3.5,
              "duration": 0.783333
            },
            {
              "pitch": 55,
              "velocity": 100,
              "position": 3.5,
              "duration": 0.825
            },
            {
              "pitch": 60,
              "velocity": 94,
              "position": 3.5,
              "duration": 0.85
            },
            {
              "pitch": 48,
              "velocity": 59,
              "position": 4.466667,
              "duration": 0.425
            },
            {
              "pitch": 55,
              "velocity": 53,
              "position": 4.466667,
              "duration": 0.425
            },
            {
              "pitch": 60,
              "velocity": 47,
              "position": 4.475,
              "duration": 0.25
            },
            {
              "pitch": 48,
              "velocity": 81,
              "position": 4.95,
              "duration": 0.35
            },
            {
              "pitch": 55,
              "velocity": 79,
              "position": 4.966667,
              "duration": 0.475
            },
            {
              "pitch": 60,
              "velocity": 64,
              "position": 4.966667,
              "duration": 0.458333
            },
            {
              "pitch": 48,
              "velocity": 82,
              "position": 6.0,
              "duration": 0.3
            },
            {
              "pitch": 55,
              "velocity": 88,
              "position": 6.0,
              "duration": 0.341667
            },
            {
              "pitch": 60,
              "velocity": 82,
              "position": 6.0,
              "duration": 0.366667
            },
            {
              "pitch": 48,
              "velocity": 58,
              "position": 6.5,
              "duration": 0.4
            },
            {
              "pitch": 55,
              "velocity": 52,
              "position": 6.5,
              "duration": 0.208333
            },
            {
              "pitch": 60,
              "velocity": 46,
              "position": 6.5,
              "duration": 0.4
            },
            {
              "pitch": 48,
              "velocity": 80,
              "position": 7.0,
              "duration": 0.35
            },
            {
              "pitch": 55,
              "velocity": 78,
              "position": 7.0,
              "duration": 0.416667
            },
            {
              "pitch": 48,
              "velocity": 92,
              "position": 7.5,
              "duration": 0.783333
            },
            {
              "pitch": 55,
              "velocity": 98,
              "position": 7.5,
              "duration": 0.825
            },
            {
              "pitch": 60,
              "velocity": 92,
              "position": 7.5,
              "duration": 0.85
            },
            {
              "pitch": 48,
              "velocity": 57,
              "position": 8.491667,
              "duration": 0.208333
            },
            {
              "pitch": 55,
              "velocity": 51,
              "position": 8.55,
              "duration": 0.208333
            },
            {
              "pitch": 48,
              "velocity": 79,
              "position": 9.033333,
              "duration": 0.35
            },
            {
              "pitch": 55,
              "velocity": 77,
              "position": 9.033333,
              "duration": 0.416667
            },
            {
              "pitch": 60,
              "velocity": 62,
              "position": 9.033333,
              "duration": 0.458333
            },
            {
              "pitch": 60,
              "velocity": 69,
              "position": 9.991667,
              "duration": 0.375
            },
            {
              "pitch": 48,
              "velocity": 78,
              "position": 10.008333,
              "duration": 0.316667
            },
            {
              "pitch": 55,
              "velocity": 75,
              "position": 10.008333,
              "duration": 0.333333
            },
            {
              "pitch": 48,
              "velocity": 74,
              "position": 10.533333,
              "duration": 0.208333
            },
            {
              "pitch": 60,
              "velocity": 50,
              "position": 10.533333,
              "duration": 0.308333
            },
            {
              "pitch": 55,
              "velocity": 59,
              "position": 10.55,
              "duration": 0.208333
            },
            {
              "pitch": 48,
              "velocity": 87,
              "position": 11.5,
              "duration": 0.783333
            },
            {
              "pitch": 55,
              "velocity": 93,
              "position": 11.5,
              "duration": 0.825
            },
            {
              "pitch": 60,
              "velocity": 87,
              "position": 11.5,
              "duration": 0.85
            },
            {
              "pitch": 48,
              "velocity": 74,
              "position": 13.033333,
              "duration": 0.35
            },
            {
              "pitch": 55,
              "velocity": 72,
              "position": 13.033333,
              "duration": 0.416667
            },
            {
              "pitch": 60,
              "velocity": 57,
              "position": 13.033333,
              "duration": 0.458333
            },
            {
              "pitch": 60,
              "velocity": 64,
              "position": 13.991667,
              "duration": 0.425
            },
            {
              "pitch": 48,
              "velocity": 73,
              "position": 14.008333,
              "duration": 0.341667
            },
            {
              "pitch": 55,
              "velocity": 70,
              "position": 14.008333,
              "duration": 0.333333
            },
            {
              "pitch": 48,
              "velocity": 82,
              "position": 15.516667,
              "duration": 0.05
            },
            {
              "pitch": 55,
              "velocity": 85,
              "position": 15.516667,
              "duration": 0.075
            },
            {
              "pitch": 60,
              "velocity": 79,
              "position": 15.516667,
              "duration": 0.066667
            }
          ]
        }
      }
    }
  }
}