{
  "name": "Motown Style",
  "tempo": 170,
  "timeSignature": "4/4",
  "ticksPerQuarter": 120,
  "sffType": "SFF1",
  "division": "BINARY",
  "channelPrograms": {
    "9": 0,
    "10": 35,
    "11": 28,
    "12": 27,
    "13": null
  },
  "parts": {
    "Intro_A": {
      "type": "Intro_A",
      "sizeInBeats": 24,
      "channels": {
        "9": {
          "ctab": {
            "srcChannel": 9,
            "name": "Drums",
            "accType": "RHYTHM",
            "editable": false,
            "mutedNotes": [],
            "mutedChords": [],
            "sourceChordNote": 0,
            "sourceChordType": "Maj",
            "ctb2Main": {
              "ntr": "ROOT_FIXED",
              "ntt": "BYPASS",
              "bassOn": false,
              "noteLowLimit": 20,
              "noteHighLimit": 127,
              "chordRootUpperLimit": 127,
              "rtr": "RETRIGGER"
            }
          },
          "notes": [
            {
              "pitch": 37,
              "velocity": 84,
              "position": 0.0,
              "duration": 1.0
            },
            {
              "pitch": 37,
              "velocity": 84,
              "position": 2.0,
              "duration": 1.0
            },
            {
              "pitch": 37,
              "velocity": 64,
              "position": 4.0,
              "duration": 1.0
            },
            {
              "pitch": 37,
              "velocity": 84,
              "position": 5.0,
              "duration": 1.0
            },
            {
              "pitch": 37,
              "velocity": 64,
              "position": 6.0,
              "duration": 1.0
            },
            {
              "pitch": 37,
              "velocity": 84,
              "position": 7.0,
              "duration": 1.0
            },
            {
              "pitch": 35,
              "velocity": 90,
              "position": 8.0,
              "duration": 0.208333
            },
            {
              "pitch": 42,
              "velocity": 90,
              "position": 8.0,
              "duration": 0.208333
            },
            {
              "pitch": 54,
              "velocity": 90,
              "position": 8.0,
              "duration": 0.208333
            },
            {
              "pitch": 42,
              "velocity": 115,
              "position": 8.666667,
              "duration": 0.208333
            },
            {
              "pitch": 54,
              "velocity": 50,
              "position": 8.666667,
              "duration": 0.208333
            },
            {
              "pitch": 35,
              "velocity": 100,
              "position": 9.0,
              "duration": 0.208333
            },
            {
              "pitch": 38,
              "velocity": 90,
              "position": 9.0,
              "duration": 0.208333
            },
            {
              "pitch": 42,
              "velocity": 100,
              "position": 9.0,
              "duration": 0.208333
            },
            {
              "pitch": 54,
              "velocity": 115,
              "position": 9.0,
              "duration": 0.208333
            },
            {
              "pitch": 54,
              "velocity": 50,
              "position": 9.666667,
              "duration": 0.208333
            },
            {
              "pitch": 35,
              "velocity": 90,
              "position": 10.0,
              "duration": 0.208333
            },
            {
              "pitch": 42,
              "velocity": 90,
              "position": 10.0,
              "duration": 0.208333
            },
            {
              "pitch": 54,
              "velocity": 90,
              "position": 10.0,
              "duration": 0.208333
            },
            {
              "pitch": 46,
              "velocity": 90,
              "position": 10.666667,
              "duration": 0.208333
            },
            {
              "pitch": 54,
              "velocity": 50,
              "position": 10.666667,
              "duration": 0.208333
            },
            {
              "pitch": 38,
              "velocity": 100,
              "position": 11.0,
              "duration": 0.208333
            },
            {
              "pitch": 42,
              "velocity": 100,
              "position": 11.0,
              "duration": 0.208333
            },
            {
              "pitch": 54,
              "velocity": 115,
              "position": 11.0,
              "duration": 0.208333
            },
            {
              "pitch": 35,
              "velocity": 80,
              "position": 11.666667,
              "duration": 0.208333
            },
            {
              "pitch": 42,
              "velocity": 60,
              "position": 11.666667,
              "duration": 0.208333
            },
            {
              "pitch": 54,
              "velocity": 50,
              "position": 11.666667,
              "duration": 0.208333
            },
            {
              "pitch": 42,
              "velocity": 90,
              "position": 12.0,
              "duration": 0.208333
            },
            {
              "pitch": 54,
              "velocity": 90,
              "position": 12.0,
              "duration": 0.208333
            },
            {
              "pitch": 35,
              "velocity": 100,
              "position": 12.666667,
              "duration": 0.208333
            },
            {
              "pitch": 42,
              "velocity": 115,
              "position": 12.666667,
              "duration": 0.208333
            },
            {
              "pitch": 54,
              "velocity": 50,
              "position": 12.666667,
              "duration": 0.208333
            },
            {
              "pitch": 38,
              "velocity": 90,
              "position": 13.0,
              "duration": 0.208333
            },
            {
              "pitch": 42,
              "velocity": 100,
              "position": 13.0,
              "duration": 0.208333
            },
            {
              "pitch": 54,
              "velocity": 115,
              "position": 13.0,
              "duration": 0.208333
            },
            {
              "pitch": 35,
              "velocity": 80,
              "position": 13.666667,
              "duration": 0.208333
            },
            {
              "pitch": 54,
              "velocity": 50,
              "position": 13.666667,
              "duration": 0.208333
            },
            {
              "pitch": 35,
              "velocity": 100,
              "position": 14.0,
              "duration": 0.208333
            },
            {
              "pitch": 42,
              "velocity": 90,
              "position": 14.0,
              "duration": 0.208333
            },
            {
              "pitch": 54,
              "velocity": 90,
              "position": 14.0,
              "duration": 0.208333
            },
            {
              "pitch": 42,
              "velocity": 100,
              "position": 14.666667,
              "duration": 0.208333
            },
            {
              "pitch": 54,
              "velocity": 50,
              "position": 14.666667,
              "duration": 0.208333
            },
            {
              "pitch": 38,
              "velocity": 100,
              "position": 15.0,
              "duration": 0.208333
            },
            {
              "pitch": 54,
              "velocity": 115,
              "position": 15.0,
              "duration": 0.208333
            },
            {
              "pitch": 42,
              "velocity": 70,
              "position": 15.333333,
              "duration": 0.208333
            },
            {
              "pitch": 42,
              "velocity": 100,
              "position": 15.666667,
              "duration": 0.208333
            },
            {
              "pitch": 54,
              "velocity": 50,
              "position": 15.666667,
              "duration": 0.208333
            },
            {
              "pitch": 35,
              "velocity": 90,
              "position": 16.0,
              "duration": 0.208333
            },
            {
              "pitch": 42,
              "velocity": 90,
              "position": 16.0,
              "duration": 0.208333
            },
            {
              "pitch": 54,
              "velocity": 90,
              "position": 16.0,
              "duration": 0.208333
            },
            {
              "pitch": 42,
              "velocity": 115,
              "position": 16.666667,
              "duration": 0.208333
            },
            {
              "pitch": 54,
              "velocity": 50,
              "position": 16.666667,
              "duration": 0.208333
            },
            {
              "pitch": 35,
              "velocity": 100,
              "position": 17.0,
              "duration": 0.208333
            },
            {
              "pitch": 38,
              "velocity": 90,
              "position": 17.0,
              "duration": 0.208333
            },
            {
              "pitch": 42,
              "velocity": 100,
              "position": 17.0,
              "duration": 0.208333
            },
            {
              "pitch": 54,
              "velocity": 115,
              "position": 17.0,
              "duration": 0.208333
            },
            {
              "pitch": 54,
              "velocity": 50,
              "position": 17.666667,
              "duration": 0.208333
            },
            {
              "pitch": 35,
              "velocity": 90,
              "position": 18.0,
              "duration": 0.208333
            },
            {
              "pitch": 42,
              "velocity": 90,
              "position": 18.0,
              "duration": 0.208333
            },
            {
              "pitch": 54,
              "velocity": 90,
              "position": 18.0,
              "duration": 0.208333
            },
            {
              "pitch": 42,
              "velocity": 115,
              "position": 18.666667,
              "duration": 0.208333
            },
            {
              "pitch": 54,
              "velocity": 50,
              "position": 18.666667,
              "duration": 0.208333
            },
            {
              "pitch": 38,
              "velocity": 100,
              "position": 19.0,
              "duration": 0.208333
            },
            {
              "pitch": 42,
              "velocity": 100,
              "position": 19.0,
              "duration": 0.208333
            },
            {
              "pitch": 54,
              "velocity": 115,
              "position": 19.0,
              "duration": 0.208333
            },
            {
              "pitch": 35,
              "velocity": 80,
              "position": 19.666667,
              "duration": 0.208333
            },
            {
              "pitch": 42,
              "velocity": 60,
              "position": 19.666667,
              "duration": 0.208333
            },
            {
              "pitch": 54,
              "velocity": 50,
              "position": 19.666667,
              "duration": 0.208333
            },
            {
              "pitch": 54,
              "velocity": 90,
              "position": 20.0,
              "duration": 0.208333
            },
            {
              "pitch": 35,
              "velocity": 90,
              "position": 20.666667,
              "duration": 0.208333
            },
            {
              "pitch": 38,
              "velocity": 80,
              "position": 20.666667,
              "duration": 0.208333
            },
            {
              "pitch": 41,
              "velocity": 60,
              "position": 20.666667,
              "duration": 0.208333
            },
            {
              "pitch": 42,
              "velocity": 115,
              "position": 20.666667,
              "duration": 0.208333
            },
            {
              "pitch": 54,
              "velocity": 50,
              "position": 20.666667,
              "duration": 0.208333
            },
            {
              "pitch": 54,
              "velocity": 115,
              "position": 21.0,
              "duration": 0.208333
            },
            {
              "pitch": 35,
              "velocity": 70,
              "position": 21.666667,
              "duration": 0.208333
            },
            {
              "pitch": 38,
              "velocity": 80,
              "position": 21.666667,
              "duration": 0.208333
            },
            {
              "pitch": 41,
              "velocity": 60,
              "position": 21.666667,
              "duration": 0.208333
            },
            {
              "pitch": 54,
              "velocity": 50,
              "position": 21.666667,
              "duration": 0.208333
            },
            {
              "pitch": 35,
              "velocity": 115,
              "position": 22.0,
              "duration": 0.208333
            },
            {
              "pitch": 38,
              "velocity": 100,
              "position": 22.0,
              "duration": 0.208333
            },
            {
              "pitch": 41,
              "velocity": 80,
              "position": 22.0,
              "duration": 0.208333
            },
            {
              "pitch": 42,
              "velocity": 90,
              "position": 22.0,
              "duration": 0.208333
            },
            {
              "pitch": 54,
              "velocity": 90,
              "position": 22.0,
              "duration": 0.208333
            },
            {
              "pitch": 38,
              "velocity": 80,
              "position": 22.666667,
              "duration": 0.208333
            },
            {
              "pitch": 54,
              "velocity": 50,
              "position": 22.666667,
              "duration": 0.208333
            },
            {
              "pitch": 38,
              "velocity": 115,
              "position": 23.0,
              "duration": 0.208333
            },
            {
              "pitch": 54,
              "velocity": 115,
              "position": 23.0,
              "duration": 0.208333
            },
            {
              "pitch": 38,
              "velocity": 80,
              "position": 23.333333,
              "duration": 0.208333
            },
            {
              "pitch": 38,
              "velocity": 115,
              "position": 23.666667,
              "duration": 0.208333
            },
            {
              "pitch": 54,
              "velocity": 50,
              "position": 23.666667,
              "duration": 0.208333
            }
          ]
        },
        "10": {
          "ctab": {
            "srcChannel": 10,
            "name": "Bass",
            "accType": "BASS",
            "editable": true,
            "mutedNotes": [],
            "mutedChords": [],
            "sourceChordNote": 0,
            "sourceChordType": "Maj7",
            "ctb2Main": {
              "ntr": "ROOT_TRANSPOSITION",
              "ntt": "BYPASS",
              "bassOn": true,
              "noteLowLimit": 20,
              "noteHighLimit": 60,
              "chordRootUpperLimit": 127,
              "rtr": "NOTE_GENERATOR"
            }
          },
          "notes": [
            {
              "pitch": 36,
              "velocity": 89,
              "position": 8.0,
              "duration": 0.45
            },
            {
              "pitch": 36,
              "velocity": 105,
              "position": 9.0,
              "duration": 0.383333
            },
            {
              "pitch": 36,
              "velocity": 102,
              "position": 10.0,
              "duration": 1.241667
            },
            {
              "pitch": 36,
              "velocity": 99,
              "position": 11.666667,
              "duration": 0.775
            },
            {
              "pitch": 36,
              "velocity": 110,
              "position": 12.666667,
              "duration": 0.233333
            },
            {
              "pitch": 36,
              "velocity": 110,
              "position": 13.666667,
              "duration": 0.233333
            },
            {
              "pitch": 36,
              "velocity": 102,
              "position": 14.0,
              "duration": 0.458333
            },
            {
              "pitch": 36,
              "velocity": 98,
              "position": 15.0,
              "duration": 0.366667
            },
            {
              "pitch": 36,
              "velocity": 102,
              "position": 16.0,
              "duration": 0.416667
            },
            {
              "pitch": 36,
              "velocity": 93,
              "position": 17.0,
              "duration": 0.35
            },
            {
              "pitch": 36,
              "velocity": 102,
              "position": 18.0,
              "duration": 1.591667
            },
            {
              "pitch": 24,
              "velocity": 78,
              "position": 19.666667,
              "duration": 0.158333
            },
            {
              "pitch": 36,
              "velocity": 95,
              "position": 20.0,
              "duration": 0.433333
            },
            {
              "pitch": 36,
              "velocity": 89,
              "position": 20.666667,
              "duration": 0.258333
            },
            {
              "pitch": 36,
              "velocity": 102,
              "position": 21.666667,
              "duration": 0.45
            },
            {
              "pitch": 24,
              "velocity": 81,
              "position": 22.666667,
              "duration": 0.15
            },
            {
              "pitch": 36,
              "velocity": 107,
              "position": 23.0,
              "duration": 0.366667
            }
          ]
        },
        "11": {
          "ctab": {
            "srcChannel": 11,
            "name": "Piano",
            "accType": "CHORD1",
            "editable": true,
            "mutedNotes": [],
            "mutedChords": [],
            "sourceChordNote": 0,
            "sourceChordType": "Maj7",
            "ctb2Main": {
              "ntr": "ROOT_FIXED",
              "ntt": "CHORD",
              "bassOn": false,
              "noteLowLimit": 48,
              "noteHighLimit": 84,
              "chordRootUpperLimit": 127,
              "rtr": "NOTE_GENERATOR"
            }
          },
          "notes": [
            {
              "pitch": 48,
              "velocity": 78,
              "position": 8.0,
              "duration": 0.433333
            },
            {
              "pitch": 55,
              "velocity": 74,
              "position": 8.0,
              "duration": 0.433333
            },
            {
              "pitch": 48,
              "velocity": 61,
              "position": 9.0,
              "duration": 0.325
            },
            {
              "pitch": 55,
              "velocity": 81,
              "position": 9.0,
              "duration": 0.458333
            },
            {
              "pitch": 48,
              "velocity": 73,
              "position": 10.0,
              "duration": 0.433333
            },
            {
              "pitch": 60,
              "velocity": 74,
              "position": 10.0,
              "duration": 0.433333
            },
            {
              "pitch": 48,
              "velocity": 57,
              "position": 11.0,
              "duration": 0.325
            },
            {
              "pitch": 60,
              "velocity": 81,
              "position": 11.0,
              "duration": 0.375
            },
            {
              "pitch": 48,
              "velocity": 43,
              "position": 11.666667,
              "duration": 0.95
            },
            {
              "pitch": 60,
              "velocity": 74,
              "position": 11.666667,
              "duration": 0.625
            },
            {
              "pitch": 64,
              "velocity": 74,
              "position": 11.666667,
              "duration": 0.625
            },
            {
              "pitch": 67,
              "velocity": 74,
              "position": 11.675,
              "duration": 0.616667
            },
            {
              "pitch": 60,
              "velocity": 89,
              "position": 12.633333,
              "duration": 0.3
            },
            {
              "pitch": 64,
              "velocity": 89,
              "position": 12.658333,
              "duration": 0.275
            },
            {
              "pitch": 67,
              "velocity": 89,
              "position": 12.675,
              "duration": 0.258333
            },
            {
              "pitch": 60,
              "velocity": 67,
              "position": 13.633333,
              "duration": 0.258333
            },
            {
              "pitch": 64,
              "velocity": 67,
              "position": 13.658333,
              "duration": 0.233333
            },
            {
              "pitch": 67,
              "velocity": 67,
              "position": 13.675,
              "duration": 0.216667
            },
            {
              "pitch": 48,
              "velocity": 65,
              "position": 14.0,
              "duration": 0.308333
            },
            {
              "pitch": 60,
              "velocity": 85,
              "position": 14.0,
              "duration": 0.375
            },
            {
              "pitch": 48,
              "velocity": 46,
              "position": 14.666667,
              "duration": 0.316667
            },
            {
              "pitch": 48,
              "velocity": 65,
              "position": 15.0,
              "duration": 0.408333
            },
            {
              "pitch": 60,
              "velocity": 92,
              "position": 15.0,
              "duration": 0.5
            },
            {
              "pitch": 55,
              "velocity": 73,
              "position": 16.0,
              "duration": 0.95
            },
            {
              "pitch": 64,
              "velocity": 67,
              "position": 16.966667,
              "duration": 0.35
            },
            {
              "pitch": 67,
              "velocity": 67,
              "position": 17.0,
              "duration": 0.316667
            },
            {
              "pitch": 64,
              "velocity": 78,
              "position": 17.966667,
              "duration": 0.466667
            },
            {
              "pitch": 67,
              "velocity": 78,
              "position": 18.0,
              "duration": 0.433333
            },
            {
              "pitch": 64,
              "velocity": 63,
              "position": 19.633333,
              "duration": 0.441667
            },
            {
              "pitch": 67,
              "velocity": 63,
              "position": 19.666667,
              "duration": 0.408333
            },
            {
              "pitch": 64,
              "velocity": 85,
              "position": 20.633333,
              "duration": 0.466667
            },
            {
              "pitch": 67,
              "velocity": 85,
              "position": 20.666667,
              "duration": 0.433333
            },
            {
              "pitch": 55,
              "velocity": 55,
              "position": 21.666667,
              "duration": 0.5
            },
            {
              "pitch": 55,
              "velocity": 63,
              "position": 22.666667,
              "duration": 0.175
            },
            {
              "pitch": 55,
              "velocity": 49,
              "position": 23.0,
              "duration": 0.466667
            },
            {
              "pitch": 55,
              "velocity": 73,
              "position": 23.666667,
              "duration": 0.158333
            }
          ]
        },
        "12": {
          "ctab": {
            "srcChannel": 12,
            "name": "Guitar",
            "accType": "CHORD2",
            "editable": true,
            "mutedNotes": [],
            "mutedChords": [],
            "sourceChordNote": 0,
            "sourceChordType": "Maj7",
            "ctb2Main": {
              "ntr": "ROOT_FIXED",
              "ntt": "CHORD",
              "bassOn": false,
              "noteLowLimit": 40,
              "noteHighLimit": 76,
              "chordRootUpperLimit": 127,
              "rtr": "NOTE_GENERATOR"
            }
          },
          "notes": [
            {
              "pitch": 60,
              "velocity": 68,
              "position": 8.975,
              "duration": 0.208333
            },
            {
              "pitch": 64,
              "velocity": 81,
              "position": 8.983333,
              "duration": 0.2
            },
            {
              "pitch": 67,
              "velocity": 81,
              "position": 9.0,
              "duration": 0.183333
            },
            {
              "pitch": 71,
              "velocity": 81,
              "position": 9.008333,
              "duration": 0.175
            },
            {
              "pitch": 76,
              "velocity": 81,
              "position": 9.025,
              "duration": 0.158333
            },
            {
              "pitch": 59,
              "velocity": 81,
              "position": 10.991667,
              "duration": 0.233333
            },
            {
              "pitch": 64,
              "velocity": 81,
              "position": 11.008333,
              "duration": 0.216667
            },
            {
              "pitch": 67,
              "velocity": 81,
              "position": 11.033333,
              "duration": 0.191667
            },
            {
              "pitch": 60,
              "velocity": 81,
              "position": 12.975,
              "duration": 0.208333
            },
            {
              "pitch": 64,
              "velocity": 81,
              "position": 12.991667,
              "duration": 0.191667
            },
            {
              "pitch": 67,
              "velocity": 81,
              "position": 13.008333,
              "duration": 0.175
            },
            {
              "pitch": 71,
              "velocity": 81,
              "position": 13.016667,
              "duration": 0.166667
            },
            {
              "pitch": 60,
              "velocity": 81,
              "position": 14.975,
              "duration": 0.208333
            },
            {
              "pitch": 64,
              "velocity": 81,
              "position": 14.991667,
              "duration": 0.191667
            },
            {
              "pitch": 67,
              "velocity": 81,
              "position": 15.008333,
              "duration": 0.175
            },
            {
              "pitch": 71,
              "velocity": 81,
              "position": 15.016667,
              "duration": 0.166667
            },
            {
              "pitch": 60,
              "velocity": 81,
              "position": 16.991667,
              "duration": 0.233333
            },
            {
              "pitch": 64,
              "velocity": 81,
              "position": 17.008333,
              "duration": 0.216667
            },
            {
              "pitch": 67,
              "velocity": 81,
              "position": 17.025,
              "duration": 0.2
            },
            {
              "pitch": 71,
              "velocity": 81,
              "position": 17.033333,
              "duration": 0.191667
            },
            {
              "pitch": 60,
              "velocity": 81,
              "position": 18.991667,
              "duration": 0.241667
            },
            {
              "pitch": 64,
              "velocity": 81,
              "position": 19.008333,
              "duration": 0.225
            },
            {
              "pitch": 67,
              "velocity": 81,
              "position": 19.025,
              "duration": 0.208333
            },
            {
              "pitch": 71,
              "velocity": 81,
              "position": 19.033333,
              "duration": 0.2
            },
            {
              "pitch": 60,
              "velocity": 81,
              "position": 20.991667,
              "duration": 0.216667
            },
            {
              "pitch": 64,
              "velocity": 81,
              "position": 21.008333,
              "duration": 0.2
            },
            {
              "pitch": 67,
              "velocity": 81,
              "position": 21.025,
              "duration": 0.183333
            },
            {
              "pitch": 71,
              "velocity": 81,
              "position": 21.033333,
              "duration": 0.175
            },
            {
              "pitch": 60,
              "velocity": 81,
              "position": 22.991667,
              "duration": 0.258333
            },
            {
              "pitch": 64,
              "velocity": 81,
              "position": 23.008333,
              "duration": 0.241667
            },
            {
              "pitch": 67,
              "velocity": 81,
              "position": 23.025,
              "duration": 0.225
            },
            {
              "pitch": 71,
              "velocity": 81,
              "position": 23.033333,
              "duration": 0.216667
            }
          ]
        },
        "13": {
          "ctab": {
            "srcChannel": 13,
            "name": "Strings",
            "accType": "PAD",
            "editable": true,
            "mutedNotes": [],
            "mutedChords": [],
            "sourceChordNote": 0,
            "sourceChordType": "Maj7",
            "ctb2Main": {
              "ntr": "ROOT_FIXED",
              "ntt": "MELODY",
              "bassOn": false,
              "noteLowLimit": 36,
              "noteHighLimit": 96,
              "chordRootUpperLimit": 127,
              "rtr": "PITCH_SHIFT"
            }
          },
          "notes": []
        }
      }
    },
    "Main_A": {
      "type": "Main_A",
      "sizeInBeats": 16,
      "channels": {
        "9": {
          "ctab": {
            "srcChannel": 9,
            "name": "Drums",
            "accType": "RHYTHM",
            "editable": false,
            "mutedNotes": [],
            "mutedChords": [],
            "sourceChordNote": 0,
            "sourceChordType": "Maj",
            "ctb2Main": {
              "ntr": "ROOT_FIXED",
              "ntt": "BYPASS",
              "bassOn": false,
              "noteLowLimit": 20,
              "noteHighLimit": 127,
              "chordRootUpperLimit": 127,
              "rtr": "RETRIGGER"
            }
          },
          "notes": [
            {
              "pitch": 35,
              "velocity": 90,
              "position": 0.0,
              "duration": 0.208333
            },
            {
              "pitch": 42,
              "velocity": 90,
              "position": 0.0,
              "duration": 0.208333
            },
            {
              "pitch": 49,
              "velocity": 90,
              "position": 0.0,
              "duration": 0.208333
            },
            {
              "pitch": 54,
              "velocity": 90,
              "position": 0.0,
              "duration": 0.208333
            },
            {
              "pitch": 70,
              "velocity": 100,
              "position": 0.0,
              "duration": 0.208333
            },
            {
              "pitch": 42,
              "velocity": 115,
              "position": 0.666667,
              "duration": 0.208333
            },
            {
              "pitch": 54,
              "velocity": 50,
              "position": 0.666667,
              "duration": 0.208333
            },
            {
              "pitch": 70,
              "velocity": 70,
              "position": 0.666667,
              "duration": 0.208333
            },
            {
              "pitch": 35,
              "velocity": 80,
              "position": 1.0,
              "duration": 0.208333
            },
            {
              "pitch": 38,
              "velocity": 100,
              "position": 1.0,
              "duration": 0.208333
            },
            {
              "pitch": 39,
              "velocity": 100,
              "position": 1.0,
              "duration": 0.208333
            },
            {
              "pitch": 41,
              "velocity": 70,
              "position": 1.0,
              "duration": 0.208333
            },
            {
              "pitch": 42,
              "velocity": 100,
              "position": 1.0,
              "duration": 0.208333
            },
            {
              "pitch": 54,
              "velocity": 115,
              "position": 1.0,
              "duration": 0.208333
            },
            {
              "pitch": 70,
              "velocity": 100,
              "position": 1.0,
              "duration": 0.208333
            },
            {
              "pitch": 54,
              "velocity": 50,
              "position": 1.666667,
              "duration": 0.208333
            },
            {
              "pitch": 70,
              "velocity": 70,
              "position": 1.666667,
              "duration": 0.208333
            },
            {
              "pitch": 35,
              "velocity": 90,
              "position": 2.0,
              "duration": 0.208333
            },
            {
              "pitch": 41,
              "velocity": 80,
              "position": 2.0,
              "duration": 0.208333
            },
            {
              "pitch": 42,
              "velocity": 90,
              "position": 2.0,
              "duration": 0.208333
            },
            {
              "pitch": 54,
              "velocity": 90,
              "position": 2.0,
              "duration": 0.208333
            },
            {
              "pitch": 70,
              "velocity": 100,
              "position": 2.0,
              "duration": 0.208333
            },
            {
              "pitch": 42,
              "velocity": 115,
              "position": 2.666667,
              "duration": 0.208333
            },
            {
              "pitch": 54,
              "velocity": 50,
              "position": 2.666667,
              "duration": 0.208333
            },
            {
              "pitch": 70,
              "velocity": 70,
              "position": 2.666667,
              "duration": 0.208333
            },
            {
              "pitch": 38,
              "velocity": 100,
              "position": 3.0,
              "duration": 0.208333
            },
            {
              "pitch": 39,
              "velocity": 100,
              "position": 3.0,
              "duration": 0.208333
            },
            {
              "pitch": 42,
              "velocity": 100,
              "position": 3.0,
              "duration": 0.208333
            },
            {
              "pitch": 54,
              "velocity": 115,
              "position": 3.0,
              "duration": 0.208333
            },
            {
              "pitch": 70,
              "velocity": 100,
              "position": 3.0,
              "duration": 0.208333
            },
            {
              "pitch": 35,
              "velocity": 60,
              "position": 3.666667,
              "duration": 0.208333
            },
            {
              "pitch": 41,
              "velocity": 70,
              "position": 3.666667,
              "duration": 0.208333
            },
            {
              "pitch": 42,
              "velocity": 60,
              "position": 3.666667,
              "duration": 0.208333
            },
            {
              "pitch": 54,
              "velocity": 50,
              "position": 3.666667,
              "duration": 0.208333
            },
            {
              "pitch": 70,
              "velocity": 70,
              "position": 3.666667,
              "duration": 0.208333
            },
            {
              "pitch": 42,
              "velocity": 90,
              "position": 4.0,
              "duration": 0.208333
            },
            {
              "pitch": 54,
              "velocity": 90,
              "position": 4.0,
              "duration": 0.208333
            },
            {
              "pitch": 70,
              "velocity": 100,
              "position": 4.0,
              "duration": 0.208333
            },
            {
              "pitch": 35,
              "velocity": 80,
              "position": 4.666667,
              "duration": 0.208333
            },
            {
              "pitch": 41,
              "velocity": 70,
              "position": 4.666667,
              "duration": 0.208333
            },
            {
              "pitch": 42,
              "velocity": 115,
              "position": 4.666667,
              "duration": 0.208333
            },
            {
              "pitch": 54,
              "velocity": 50,
              "position": 4.666667,
              "duration": 0.208333
            },
            {
              "pitch": 70,
              "velocity": 70,
              "position": 4.666667,
              "duration": 0.208333
            },
            {
              "pitch": 38,
              "velocity": 100,
              "position": 5.0,
              "duration": 0.208333
            },
            {
              "pitch": 39,
              "velocity": 100,
              "position": 5.0,
              "duration": 0.208333
            },
            {
              "pitch": 42,
              "velocity": 100,
              "position": 5.0,
              "duration": 0.208333
            },
            {
              "pitch": 54,
              "velocity": 115,
              "position": 5.0,
              "duration": 0.208333
            },
            {
              "pitch": 70,
              "velocity": 100,
              "position": 5.0,
              "duration": 0.208333
            },
            {
              "pitch": 35,
              "velocity": 80,
              "position": 5.666667,
              "duration": 0.208333
            },
            {
              "pitch": 41,
              "velocity": 60,
              "position": 5.666667,
              "duration": 0.208333
            },
            {
              "pitch": 54,
              "velocity": 50,
              "position": 5.666667,
              "duration": 0.208333
            },
            {
              "pitch": 70,
              "velocity": 70,
              "position": 5.666667,
              "duration": 0.208333
            },
            {
              "pitch": 35,
              "velocity": 90,
              "position": 6.0,
              "duration": 0.208333
            },
            {
              "pitch": 41,
              "velocity": 80,
              "position": 6.0,
              "duration": 0.208333
            },
            {
              "pitch": 42,
              "velocity": 90,
              "position": 6.0,
              "duration": 0.208333
            },
            {
              "pitch": 54,
              "velocity": 90,
              "position": 6.0,
              "duration": 0.208333
            },
            {
              "pitch": 70,
              "velocity": 100,
              "position": 6.0,
              "duration": 0.208333
            },
            {
              "pitch": 42,
              "velocity": 100,
              "position": 6.666667,
              "duration": 0.208333
            },
            {
              "pitch": 54,
              "velocity": 50,
              "position": 6.666667,
              "duration": 0.208333
            },
            {
              "pitch": 70,
              "velocity": 70,
              "position": 6.666667,
              "duration": 0.208333
            },
            {
              "pitch": 38,
              "velocity": 100,
              "position": 7.0,
              "duration": 0.208333
            },
            {
              "pitch": 39,
              "velocity": 100,
              "position": 7.0,
              "duration": 0.208333
            },
            {
              "pitch": 54,
              "velocity": 115,
              "position": 7.0,
              "duration": 0.208333
            },
            {
              "pitch": 70,
              "velocity": 100,
              "position": 7.0,
              "duration": 0.208333
            },
            {
              "pitch": 42,
              "velocity": 70,
              "position": 7.333333,
              "duration": 0.208333
            },
            {
              "pitch": 42,
              "velocity": 100,
              "position": 7.666667,
              "duration": 0.208333
            },
            {
              "pitch": 54,
              "velocity": 50,
              "position": 7.666667,
              "duration": 0.208333
            },
            {
              "pitch": 70,
              "velocity": 70,
              "position": 7.666667,
              "duration": 0.208333
            },
            {
              "pitch": 35,
              "velocity": 90,
              "position": 8.0,
              "duration": 0.208333
            },
            {
              "pitch": 42,
              "velocity": 90,
              "position": 8.0,
              "duration": 0.208333
            },
            {
              "pitch": 54,
              "velocity": 90,
              "position": 8.0,
              "duration": 0.208333
            },
            {
              "pitch": 70,
              "velocity": 100,
              "position": 8.0,
              "duration": 0.208333
            },
            {
              "pitch": 42,
              "velocity": 115,
              "position": 8.666667,
              "duration": 0.208333
            },
            {
              "pitch": 54,
              "velocity": 50,
              "position": 8.666667,
              "duration": 0.208333
            },
            {
              "pitch": 70,
              "velocity": 70,
              "position": 8.666667,
              "duration": 0.208333
            },
            {
              "pitch": 35,
              "velocity": 70,
              "position": 9.0,
              "duration": 0.208333
            },
            {
              "pitch": 38,
              "velocity": 115,
              "position": 9.0,
              "duration": 0.208333
            },
            {
              "pitch": 39,
              "velocity": 100,
              "position": 9.0,
              "duration": 0.208333
            },
            {
              "pitch": 41,
              "velocity": 80,
              "position": 9.0,
              "duration": 0.208333
            },
            {
              "pitch": 42,
              "velocity": 100,
              "position": 9.0,
              "duration": 0.208333
            },
            {
              "pitch": 54,
              "velocity": 115,
              "position": 9.0,
              "duration": 0.208333
            },
            {
              "pitch": 70,
              "velocity": 100,
              "position": 9.0,
              "duration": 0.208333
            },
            {
              "pitch": 54,
              "velocity": 50,
              "position": 9.666667,
              "duration": 0.208333
            },
            {
              "pitch": 70,
              "velocity": 70,
              "position": 9.666667,
              "duration": 0.208333
            },
            {
              "pitch": 35,
              "velocity": 100,
              "position": 10.0,
              "duration": 0.208333
            },
            {
              "pitch": 41,
              "velocity": 80,
              "position": 10.0,
              "duration": 0.208333
            },
            {
              "pitch": 42,
              "velocity": 90,
              "position": 10.0,
              "duration": 0.208333
            },
            {
              "pitch": 54,
              "velocity": 90,
              "position": 10.0,
              "duration": 0.208333
            },
            {
              "pitch": 70,
              "velocity": 100,
              "position": 10.0,
              "duration": 0.208333
            },
            {
              "pitch": 42,
              "velocity": 115,
              "position": 10.666667,
              "duration": 0.208333
            },
            {
              "pitch": 54,
              "velocity": 50,
              "position": 10.666667,
              "duration": 0.208333
            },
            {
              "pitch": 70,
              "velocity": 70,
              "position": 10.666667,
              "duration": 0.208333
            },
            {
              "pitch": 38,
              "velocity": 115,
              "position": 11.0,
              "duration": 0.208333
            },
            {
              "pitch": 39,
              "velocity": 100,
              "position": 11.0,
              "duration": 0.208333
            },
            {
              "pitch": 42,
              "velocity": 100,
              "position": 11.0,
              "duration": 0.208333
            },
            {
              "pitch": 54,
              "velocity": 115,
              "position": 11.0,
              "duration": 0.208333
            },
            {
              "pitch": 70,
              "velocity": 100,
              "position": 11.0,
              "duration": 0.208333
            },
            {
              "pitch": 35,
              "velocity": 70,
              "position": 11.666667,
              "duration": 0.208333
            },
            {
              "pitch": 41,
              "velocity": 60,
              "position": 11.666667,
              "duration": 0.208333
            },
            {
              "pitch": 54,
              "velocity": 50,
              "position": 11.666667,
              "duration": 0.208333
            },
            {
              "pitch": 70,
              "velocity": 70,
              "position": 11.666667,
              "duration": 0.208333
            },
            {
              "pitch": 35,
              "velocity": 90,
              "position": 12.0,
              "duration": 0.208333
            },
            {
              "pitch": 54,
              "velocity": 90,
              "position": 12.0,
              "duration": 0.208333
            },
            {
              "pitch": 38,
              "velocity": 70,
              "position": 12.666667,
              "duration": 0.208333
            },
            {
              "pitch": 54,
              "velocity": 50,
              "position": 12.666667,
              "duration": 0.208333
            },
            {
              "pitch": 38,
              "velocity": 90,
              "position": 13.0,
              "duration": 0.208333
            },
            {
              "pitch": 54,
              "velocity": 115,
              "position": 13.0,
              "duration": 0.208333
            },
            {
              "pitch": 38,
              "velocity": 60,
              "position": 13.333333,
              "duration": 0.208333
            },
            {
              "pitch": 38,
              "velocity": 80,
              "position": 13.666667,
              "duration": 0.208333
            },
            {
              "pitch": 54,
              "velocity": 50,
              "position": 13.666667,
              "duration": 0.208333
            },
            {
              "pitch": 35,
              "velocity": 90,
              "position": 14.0,
              "duration": 0.208333
            },
            {
              "pitch": 38,
              "velocity": 90,
              "position": 14.0,
              "duration": 0.208333
            },
            {
              "pitch": 54,
              "velocity": 90,
              "position": 14.0,
              "duration": 0.208333
            },
            {
              "pitch": 38,
              "velocity": 70,
              "position": 14.333333,
              "duration": 0.208333
            },
            {
              "pitch": 38,
              "velocity": 90,
              "position": 14.666667,
              "duration": 0.208333
            },
            {
              "pitch": 54,
              "velocity": 50,
              "position": 14.666667,
              "duration": 0.208333
            },
            {
              "pitch": 35,
              "velocity": 90,
              "position": 15.0,
              "duration": 0.208333
            },
            {
              "pitch": 38,
              "velocity": 100,
              "position": 15.0,
              "duration": 0.208333
            },
            {
              "pitch": 54,
              "velocity": 115,
              "position": 15.0,
              "duration": 0.208333
            },
            {
              "pitch": 38,
              "velocity": 80,
              "position": 15.333333,
              "duration": 0.208333
            },
            {
              "pitch": 38,
              "velocity": 70,
              "position": 15.666667,
              "duration": 0.208333
            },
            {
              "pitch": 54,
              "velocity": 50,
              "position": 15.666667,
              "duration": 0.208333
            }
          ]
        },
        "10": {
          "ctab": {
            "srcChannel": 10,
            "name": "Bass",
            "accType": "BASS",
            "editable": true,
            "mutedNotes": [],
            "mutedChords": [],
            "sourceChordNote": 0,
            "sourceChordType": "Maj7",
            "ctb2Main": {
              "ntr": "ROOT_TRANSPOSITION",
              "ntt": "BYPASS",
              "bassOn": true,
              "noteLowLimit": 20,
              "noteHighLimit": 60,
              "chordRootUpperLimit": 127,
              "rtr": "NOTE_GENERATOR"
            }
          },
          "notes": [
            {
              "pitch": 36,
              "velocity": 97,
              "position": 0.0,
              "duration": 0.45
            },
            {
              "pitch": 36,
              "velocity": 113,
              "position": 1.0,
              "duration": 0.383333
            },
            {
              "pitch": 36,
              "velocity": 105,
              "position": 2.0,
              "duration": 1.241667
            },
            {
              "pitch": 36,
              "velocity": 100,
              "position": 3.666667,
              "duration": 0.691667
            },
            {
              "pitch": 36,
              "velocity": 110,
              "position": 4.666667,
              "duration": 0.358333
            },
            {
              "pitch": 36,
              "velocity": 107,
              "position": 5.666667,
              "duration": 0.25
            },
            {
              "pitch": 36,
              "velocity": 107,
              "position": 6.0,
              "duration": 0.458333
            },
            {
              "pitch": 36,
              "velocity": 103,
              "position": 7.0,
              "duration": 0.366667
            },
            {
              "pitch": 36,
              "velocity": 103,
              "position": 8.0,
              "duration": 0.483333
            },
            {
              "pitch": 36,
              "velocity": 107,
              "position": 9.0,
              "duration": 0.425
            },
            {
              "pitch": 36,
              "velocity": 105,
              "position": 10.0,
              "duration": 1.366667
            },
            {
              "pitch": 36,
              "velocity": 110,
              "position": 11.666667,
              "duration": 0.333333
            },
            {
              "pitch": 36,
              "velocity": 103,
              "position": 12.666667,
              "duration": 0.3
            },
            {
              "pitch": 36,
              "velocity": 105,
              "position": 13.666667,
              "duration": 0.2
            },
            {
              "pitch": 36,
              "velocity": 100,
              "position": 14.0,
              "duration": 0.45
            },
            {
              "pitch": 36,
              "velocity": 112,
              "position": 15.0,
              "duration": 0.408333
            }
          ]
        },
        "11": {
          "ctab": {
            "srcChannel": 11,
            "name": "Piano",
            "accType": "CHORD1",
            "editable": true,
            "mutedNotes": [],
            "mutedChords": [],
            "sourceChordNote": 0,
            "sourceChordType": "Maj7",
            "ctb2Main": {
              "ntr": "ROOT_FIXED",
              "ntt": "CHORD",
              "bassOn": false,
              "noteLowLimit": 48,
              "noteHighLimit": 84,
              "chordRootUpperLimit": 127,
              "rtr": "NOTE_GENERATOR"
            }
          },
          "notes": [
            {
              "pitch": 48,
              "velocity": 73,
              "position": 0.0,
              "duration": 0.433333
            },
            {
              "pitch": 59,
              "velocity": 74,
              "position": 0.0,
              "duration": 0.433333
            },
            {
              "pitch": 48,
              "velocity": 57,
              "position": 1.0,
              "duration": 0.325
            },
            {
              "pitch": 59,
              "velocity": 81,
              "position": 1.0,
              "duration": 0.458333
            },
            {
              "pitch": 48,
              "velocity": 73,
              "position": 2.0,
              "duration": 0.433333
            },
            {
              "pitch": 59,
              "velocity": 74,
              "position": 2.0,
              "duration": 0.433333
            },
            {
              "pitch": 48,
              "velocity": 57,
              "position": 3.0,
              "duration": 0.325
            },
            {
              "pitch": 59,
              "velocity": 81,
              "position": 3.0,
              "duration": 0.375
            },
            {
              "pitch": 48,
              "velocity": 43,
              "position": 3.666667,
              "duration": 0.708333
            },
            {
              "pitch": 59,
              "velocity": 81,
              "position": 3.666667,
              "duration": 0.666667
            },
            {
              "pitch": 48,
              "velocity": 71,
              "position": 4.666667,
              "duration": 0.266667
            },
            {
              "pitch": 59,
              "velocity": 85,
              "position": 4.666667,
              "duration": 0.266667
            },
            {
              "pitch": 48,
              "velocity": 53,
              "position": 5.666667,
              "duration": 0.225
            },
            {
              "pitch": 59,
              "velocity": 82,
              "position": 5.966667,
              "duration": 0.433333
            },
            {
              "pitch": 64,
              "velocity": 82,
              "position": 6.0,
              "duration": 0.4
            },
            {
              "pitch": 48,
              "velocity": 39,
              "position": 6.666667,
              "duration": 0.316667
            },
            {
              "pitch": 59,
              "velocity": 82,
              "position": 6.966667,
              "duration": 0.441667
            },
            {
              "pitch": 64,
              "velocity": 82,
              "position": 7.0,
              "duration": 0.408333
            },
            {
              "pitch": 48,
              "velocity": 69,
              "position": 8.0,
              "duration": 0.95
            },
            {
              "pitch": 59,
              "velocity": 67,
              "position": 8.966667,
              "duration": 0.35
            },
            {
              "pitch": 64,
              "velocity": 67,
              "position": 9.0,
              "duration": 0.316667
            },
            {
              "pitch": 59,
              "velocity": 78,
              "position": 9.966667,
              "duration": 0.466667
            },
            {
              "pitch": 64,
              "velocity": 78,
              "position": 10.0,
              "duration": 0.433333
            },
            {
              "pitch": 59,
              "velocity": 63,
              "position": 11.633333,
              "duration": 0.441667
            },
            {
              "pitch": 64,
              "velocity": 63,
              "position": 11.666667,
              "duration": 0.408333
            },
            {
              "pitch": 59,
              "velocity": 85,
              "position": 12.633333,
              "duration": 0.466667
            },
            {
              "pitch": 64,
              "velocity": 85,
              "position": 12.666667,
              "duration": 0.433333
            },
            {
              "pitch": 48,
              "velocity": 52,
              "position": 13.666667,
              "duration": 0.5
            },
            {
              "pitch": 59,
              "velocity": 85,
              "position": 13.666667,
              "duration": 0.433333
            },
            {
              "pitch": 48,
              "velocity": 63,
              "position": 14.666667,
              "duration": 0.175
            },
            {
              "pitch": 48,
              "velocity": 46,
              "position": 15.0,
              "duration": 0.466667
            },
            {
              "pitch": 48,
              "velocity": 73,
              "position": 15.666667,
              "duration": 0.158333
            }
          ]
        },
        "12": {
          "ctab": {
            "srcChannel": 12,
            "name": "Guitar",
            "accType": "CHORD2",
            "editable": true,
            "mutedNotes": [],
            "mutedChords": [],
            "sourceChordNote": 0,
            "sourceChordType": "Maj7",
            "ctb2Main": {
              "ntr": "ROOT_FIXED",
              "ntt": "CHORD",
              "bassOn": false,
              "noteLowLimit": 40,
              "noteHighLimit": 76,
              "chordRootUpperLimit": 127,
              "rtr": "NOTE_GENERATOR"
            }
          },
          "notes": [
            {
              "pitch": 64,
              "velocity": 89,
              "position": 0.975,
              "duration": 0.208333
            },
            {
              "pitch": 67,
              "velocity": 89,
              "position": 0.991667,
              "duration": 0.191667
            },
            {
              "pitch": 71,
              "velocity": 89,
              "position": 1.016667,
              "duration": 0.166667
            },
            {
              "pitch": 60,
              "velocity": 89,
              "position": 2.991667,
              "duration": 0.233333
            },
            {
              "pitch": 64,
              "velocity": 89,
              "position": 3.008333,
              "duration": 0.216667
            },
            {
              "pitch": 67,
              "velocity": 89,
              "position": 3.025,
              "duration": 0.2
            },
            {
              "pitch": 71,
              "velocity": 89,
              "position": 3.033333,
              "duration": 0.191667
            },
            {
              "pitch": 59,
              "velocity": 89,
              "position": 4.975,
              "duration": 0.208333
            },
            {
              "pitch": 64,
              "velocity": 89,
              "position": 4.991667,
              "duration": 0.191667
            },
            {
              "pitch": 67,
              "velocity": 89,
              "position": 5.016667,
              "duration": 0.166667
            },
            {
              "pitch": 59,
              "velocity": 89,
              "position": 6.975,
              "duration": 0.208333
            },
            {
              "pitch": 64,
              "velocity": 89,
              "position": 6.991667,
              "duration": 0.191667
            },
            {
              "pitch": 67,
              "velocity": 89,
              "position": 7.016667,
              "duration": 0.166667
            },
            {
              "pitch": 60,
              "velocity": 89,
              "position": 8.975,
              "duration": 0.208333
            },
            {
              "pitch": 64,
              "velocity": 89,
              "position": 8.991667,
              "duration": 0.191667
            },
            {
              "pitch": 67,
              "velocity": 89,
              "position": 9.008333,
              "duration": 0.175
            },
            {
              "pitch": 71,
              "velocity": 89,
              "position": 9.016667,
              "duration": 0.166667
            },
            {
              "pitch": 60,
              "velocity": 89,
              "position": 10.975,
              "duration": 0.225
            },
            {
              "pitch": 64,
              "velocity": 89,
              "position": 10.991667,
              "duration": 0.208333
            },
            {
              "pitch": 67,
              "velocity": 89,
              "position": 11.008333,
              "duration": 0.191667
            },
            {
              "pitch": 71,
              "velocity": 89,
              "position": 11.016667,
              "duration": 0.183333
            },
            {
              "pitch": 60,
              "velocity": 89,
              "position": 12.975,
              "duration": 0.216667
            },
            {
              "pitch": 64,
              "velocity": 89,
              "position": 12.991667,
              "duration": 0.2
            },
            {
              "pitch": 67,
              "velocity": 89,
              "position": 13.008333,
              "duration": 0.183333
            },
            {
              "pitch": 71,
              "velocity": 89,
              "position": 13.016667,
              "duration": 0.175
            },
            {
              "pitch": 60,
              "velocity": 89,
              "position": 14.975,
              "duration": 0.233333
            },
            {
              "pitch": 64,
              "velocity": 89,
              "position": 14.991667,
              "duration": 0.216667
            },
            {
              "pitch": 67,
              "velocity": 89,
              "position": 15.008333,
              "duration": 0.2
            },
            {
              "pitch": 71,
              "velocity": 89,
              "position": 15.016667,
              "duration": 0.191667
            }
          ]
        },
        "13": {
          "ctab": {
            "srcChannel": 13,
            "name": "Strings",
            "accType": "PAD",
            "editable": true,
            "mutedNotes": [],
            "mutedChords": [],
            "sourceChordNote": 0,
            "sourceChordType": "Maj7",
            "ctb2Main": {
              "ntr": "ROOT_FIXED",
              "ntt": "MELODY",
              "bassOn": false,
              "noteLowLimit": 36,
              "noteHighLimit": 96,
              "chordRootUpperLimit": 127,
              "rtr": "PITCH_SHIFT"
            }
          },
          "notes": []
        }
      }
    },
    "Main_B": {
      "type": "Main_B",
      "sizeInBeats": 16,
      "channels": {
        "9": {
          "ctab": {
            "srcChannel": 9,
            "name": "Drums",
            "accType": "RHYTHM",
            "editable": false,
            "mutedNotes": [],
            "mutedChords": [],
            "sourceChordNote": 0,
            "sourceChordType": "Maj",
            "ctb2Main": {
              "ntr": "ROOT_FIXED",
              "ntt": "BYPASS",
              "bassOn": false,
              "noteLowLimit": 20,
              "noteHighLimit": 127,
              "chordRootUpperLimit": 127,
              "rtr": "RETRIGGER"
            }
          },
          "notes": [
            {
              "pitch": 35,
              "velocity": 90,
              "position": 0.0,
              "duration": 0.208333
            },
            {
              "pitch": 42,
              "velocity": 90,
              "position": 0.0,
              "duration": 0.208333
            },
            {
              "pitch": 49,
              "velocity": 90,
              "position": 0.0,
              "duration": 0.208333
            },
            {
              "pitch": 54,
              "velocity": 90,
              "position": 0.0,
              "duration": 0.208333
            },
            {
              "pitch": 70,
              "velocity": 100,
              "position": 0.0,
              "duration": 0.208333
            },
            {
              "pitch": 42,
              "velocity": 115,
              "position": 0.666667,
              "duration": 0.208333
            },
            {
              "pitch": 54,
              "velocity": 50,
              "position": 0.666667,
              "duration": 0.208333
            },
            {
              "pitch": 70,
              "velocity": 70,
              "position": 0.666667,
              "duration": 0.208333
            },
            {
              "pitch": 35,
              "velocity": 80,
              "position": 1.0,
              "duration": 0.208333
            },
            {
              "pitch": 38,
              "velocity": 100,
              "position": 1.0,
              "duration": 0.208333
            },
            {
              "pitch": 39,
              "velocity": 100,
              "position": 1.0,
              "duration": 0.208333
            },
            {
              "pitch": 41,
              "velocity": 70,
              "position": 1.0,
              "duration": 0.208333
            },
            {
              "pitch": 42,
              "velocity": 100,
              "position": 1.0,
              "duration": 0.208333
            },
            {
              "pitch": 54,
              "velocity": 115,
              "position": 1.0,
              "duration": 0.208333
            },
            {
              "pitch": 70,
              "velocity": 100,
              "position": 1.0,
              "duration": 0.208333
            },
            {
              "pitch": 54,
              "velocity": 50,
              "position": 1.666667,
              "duration": 0.208333
            },
            {
              "pitch": 70,
              "velocity": 70,
              "position": 1.666667,
              "duration": 0.208333
            },
            {
              "pitch": 35,
              "velocity": 90,
              "position": 2.0,
              "duration": 0.208333
            },
            {
              "pitch": 41,
              "velocity": 80,
              "position": 2.0,
              "duration": 0.208333
            },
            {
              "pitch": 42,
              "velocity": 90,
              "position": 2.0,
              "duration": 0.208333
            },
            {
              "pitch": 54,
              "velocity": 90,
              "position": 2.0,
              "duration": 0.208333
            },
            {
              "pitch": 70,
              "velocity": 100,
              "position": 2.0,
              "duration": 0.208333
            },
            {
              "pitch": 42,
              "velocity": 115,
              "position": 2.666667,
              "duration": 0.208333
            },
            {
              "pitch": 54,
              "velocity": 50,
              "position": 2.666667,
              "duration": 0.208333
            },
            {
              "pitch": 70,
              "velocity": 70,
              "position": 2.666667,
              "duration": 0.208333
            },
            {
              "pitch": 38,
              "velocity": 100,
              "position": 3.0,
              "duration": 0.208333
            },
            {
              "pitch": 39,
              "velocity": 100,
              "position": 3.0,
              "duration": 0.208333
            },
            {
              "pitch": 42,
              "velocity": 100,
              "position": 3.0,
              "duration": 0.208333
            },
            {
              "pitch": 54,
              "velocity": 115,
              "position": 3.0,
              "duration": 0.208333
            },
            {
              "pitch": 70,
              "velocity": 100,
              "position": 3.0,
              "duration": 0.208333
            },
            {
              "pitch": 35,
              "velocity": 60,
              "position": 3.666667,
              "duration": 0.208333
            },
            {
              "pitch": 41,
              "velocity": 70,
              "position": 3.666667,
              "duration": 0.208333
            },
            {
              "pitch": 54,
              "velocity": 50,
              "position": 3.666667,
              "duration": 0.208333
            },
            {
              "pitch": 70,
              "velocity": 70,
              "position": 3.666667,
              "duration": 0.208333
            },
            {
              "pitch": 42,
              "velocity": 90,
              "position": 4.0,
              "duration": 0.208333
            },
            {
              "pitch": 54,
              "velocity": 90,
              "position": 4.0,
              "duration": 0.208333
            },
            {
              "pitch": 70,
              "velocity": 100,
              "position": 4.0,
              "duration": 0.208333
            },
            {
              "pitch": 35,
              "velocity": 80,
              "position": 4.666667,
              "duration": 0.208333
            },
            {
              "pitch": 41,
              "velocity": 70,
              "position": 4.666667,
              "duration": 0.208333
            },
            {
              "pitch": 42,
              "velocity": 115,
              "position": 4.666667,
              "duration": 0.208333
            },
            {
              "pitch": 54,
              "velocity": 50,
              "position": 4.666667,
              "duration": 0.208333
            },
            {
              "pitch": 70,
              "velocity": 70,
              "position": 4.666667,
              "duration": 0.208333
            },
            {
              "pitch": 38,
              "velocity": 100,
              "position": 5.0,
              "duration": 0.208333
            },
            {
              "pitch": 39,
              "velocity": 100,
              "position": 5.0,
              "duration": 0.208333
            },
            {
              "pitch": 42,
              "velocity": 100,
              "position": 5.0,
              "duration": 0.208333
            },
            {
              "pitch": 54,
              "velocity": 115,
              "position": 5.0,
              "duration": 0.208333
            },
            {
              "pitch": 70,
              "velocity": 100,
              "position": 5.0,
              "duration": 0.208333
            },
            {
              "pitch": 35,
              "velocity": 80,
              "position": 5.666667,
              "duration": 0.208333
            },
            {
              "pitch": 41,
              "velocity": 60,
              "position": 5.666667,
              "duration": 0.208333
            },
            {
              "pitch": 54,
              "velocity": 50,
              "position": 5.666667,
              "duration": 0.208333
            },
            {
              "pitch": 70,
              "velocity": 70,
              "position": 5.666667,
              "duration": 0.208333
            },
            {
              "pitch": 35,
              "velocity": 90,
              "position": 6.0,
              "duration": 0.208333
            },
            {
              "pitch": 41,
              "velocity": 80,
              "position": 6.0,
              "duration": 0.208333
            },
            {
              "pitch": 42,
              "velocity": 90,
              "position": 6.0,
              "duration": 0.208333
            },
            {
              "pitch": 54,
              "velocity": 90,
              "position": 6.0,
              "duration": 0.208333
            },
            {
              "pitch": 70,
              "velocity": 100,
              "position": 6.0,
              "duration": 0.208333
            },
            {
              "pitch": 42,
              "velocity": 100,
              "position": 6.666667,
              "duration": 0.208333
            },
            {
              "pitch": 54,
              "velocity": 50,
              "position": 6.666667,
              "duration": 0.208333
            },
            {
              "pitch": 70,
              "velocity": 70,
              "position": 6.666667,
              "duration": 0.208333
            },
            {
              "pitch": 38,
              "velocity": 100,
              "position": 7.0,
              "duration": 0.208333
            },
            {
              "pitch": 39,
              "velocity": 100,
              "position": 7.0,
              "duration": 0.208333
            },
            {
              "pitch": 54,
              "velocity": 115,
              "position": 7.0,
              "duration": 0.208333
            },
            {
              "pitch": 70,
              "velocity": 100,
              "position": 7.0,
              "duration": 0.208333
            },
            {
              "pitch": 42,
              "velocity": 100,
              "position": 7.666667,
              "duration": 0.208333
            },
            {
              "pitch": 54,
              "velocity": 50,
              "position": 7.666667,
              "duration": 0.208333
            },
            {
              "pitch": 70,
              "velocity": 70,
              "position": 7.666667,
              "duration": 0.208333
            },
            {
              "pitch": 35,
              "velocity": 90,
              "position": 8.0,
              "duration": 0.208333
            },
            {
              "pitch": 42,
              "velocity": 90,
              "position": 8.0,
              "duration": 0.208333
            },
            {
              "pitch": 54,
              "velocity": 90,
              "position": 8.0,
              "duration": 0.208333
            },
            {
              "pitch": 70,
              "velocity": 100,
              "position": 8.0,
              "duration": 0.208333
            },
            {
              "pitch": 42,
              "velocity": 115,
              "position": 8.666667,
              "duration": 0.208333
            },
            {
              "pitch": 54,
              "velocity": 50,
              "position": 8.666667,
              "duration": 0.208333
            },
            {
              "pitch": 70,
              "velocity": 70,
              "position": 8.666667,
              "duration": 0.208333
            },
            {
              "pitch": 35,
              "velocity": 70,
              "position": 9.0,
              "duration": 0.208333
            },
            {
              "pitch": 38,
              "velocity": 115,
              "position": 9.0,
              "duration": 0.208333
            },
            {
              "pitch": 39,
              "velocity": 100,
              "position": 9.0,
              "duration": 0.208333
            },
            {
              "pitch": 41,
              "velocity": 80,
              "position": 9.0,
              "duration": 0.208333
            },
            {
              "pitch": 42,
              "velocity": 100,
              "position": 9.0,
              "duration": 0.208333
            },
            {
              "pitch": 54,
              "velocity": 115,
              "position": 9.0,
              "duration": 0.208333
            },
            {
              "pitch": 70,
              "velocity": 100,
              "position": 9.0,
              "duration": 0.208333
            },
            {
              "pitch": 54,
              "velocity": 50,
              "position": 9.666667,
              "duration": 0.208333
            },
            {
              "pitch": 70,
              "velocity": 70,
              "position": 9.666667,
              "duration": 0.208333
            },
            {
              "pitch": 35,
              "velocity": 100,
              "position": 10.0,
              "duration": 0.208333
            },
            {
              "pitch": 41,
              "velocity": 80,
              "position": 10.0,
              "duration": 0.208333
            },
            {
              "pitch": 42,
              "velocity": 90,
              "position": 10.0,
              "duration": 0.208333
            },
            {
              "pitch": 54,
              "velocity": 90,
              "position": 10.0,
              "duration": 0.208333
            },
            {
              "pitch": 70,
              "velocity": 100,
              "position": 10.0,
              "duration": 0.208333
            },
            {
              "pitch": 42,
              "velocity": 115,
              "position": 10.666667,
              "duration": 0.208333
            },
            {
              "pitch": 54,
              "velocity": 50,
              "position": 10.666667,
              "duration": 0.208333
            },
            {
              "pitch": 70,
              "velocity": 70,
              "position": 10.666667,
              "duration": 0.208333
            },
            {
              "pitch": 38,
              "velocity": 115,
              "position": 11.0,
              "duration": 0.208333
            },
            {
              "pitch": 39,
              "velocity": 100,
              "position": 11.0,
              "duration": 0.208333
            },
            {
              "pitch": 42,
              "velocity": 100,
              "position": 11.0,
              "duration": 0.208333
            },
            {
              "pitch": 54,
              "velocity": 115,
              "position": 11.0,
              "duration": 0.208333
            },
            {
              "pitch": 70,
              "velocity": 100,
              "position": 11.0,
              "duration": 0.208333
            },
            {
              "pitch": 35,
              "velocity": 70,
              "position": 11.666667,
              "duration": 0.208333
            },
            {
              "pitch": 41,
              "velocity": 60,
              "position": 11.666667,
              "duration": 0.208333
            },
            {
              "pitch": 42,
              "velocity": 60,
              "position": 11.666667,
              "duration": 0.208333
            },
            {
              "pitch": 54,
              "velocity": 50,
              "position": 11.666667,
              "duration": 0.208333
            },
            {
              "pitch": 70,
              "velocity": 70,
              "position": 11.666667,
              "duration": 0.208333
            },
            {
              "pitch": 35,
              "velocity": 90,
              "position": 12.0,
              "duration": 0.208333
            },
            {
              "pitch": 54,
              "velocity": 90,
              "position": 12.0,
              "duration": 0.208333
            },
            {
              "pitch": 38,
              "velocity": 70,
              "position": 12.666667,
              "duration": 0.208333
            },
            {
              "pitch": 54,
              "velocity": 50,
              "position": 12.666667,
              "duration": 0.208333
            },
            {
              "pitch": 38,
              "velocity": 90,
              "position": 13.0,
              "duration": 0.208333
            },
            {
              "pitch": 54,
              "velocity": 115,
              "position": 13.0,
              "duration": 0.208333
            },
            {
              "pitch": 38,
              "velocity": 60,
              "position": 13.333333,
              "duration": 0.208333
            },
            {
              "pitch": 38,
              "velocity": 80,
              "position": 13.666667,
              "duration": 0.208333
            },
            {
              "pitch": 54,
              "velocity": 50,
              "position": 13.666667,
              "duration": 0.208333
            },
            {
              "pitch": 35,
              "velocity": 90,
              "position": 14.0,
              "duration": 0.208333
            },
            {
              "pitch": 38,
              "velocity": 90,
              "position": 14.0,
              "duration": 0.208333
            },
            {
              "pitch": 54,
              "velocity": 90,
              "position": 14.0,
              "duration": 0.208333
            },
            {
              "pitch": 38,
              "velocity": 70,
              "position": 14.333333,
              "duration": 0.208333
            },
            {
              "pitch": 38,
              "velocity": 90,
              "position": 14.666667,
              "duration": 0.208333
            },
            {
              "pitch": 54,
              "velocity": 50,
              "position": 14.666667,
              "duration": 0.208333
            },
            {
              "pitch": 35,
              "velocity": 90,
              "position": 15.0,
              "duration": 0.208333
            },
            {
              "pitch": 38,
              "velocity": 100,
              "position": 15.0,
              "duration": 0.208333
            },
            {
              "pitch": 54,
              "velocity": 115,
              "position": 15.0,
              "duration": 0.208333
            },
            {
              "pitch": 38,
              "velocity": 80,
              "position": 15.333333,
              "duration": 0.208333
            },
            {
              "pitch": 38,
              "velocity": 70,
              "position": 15.666667,
              "duration": 0.208333
            },
            {
              "pitch": 54,
              "velocity": 50,
              "position": 15.666667,
              "duration": 0.208333
            }
          ]
        },
        "10": {
          "ctab": {
            "srcChannel": 10,
            "name": "Bass",
            "accType": "BASS",
            "editable": true,
            "mutedNotes": [],
            "mutedChords": [],
            "sourceChordNote": 0,
            "sourceChordType": "Maj7",
            "ctb2Main": {
              "ntr": "ROOT_TRANSPOSITION",
              "ntt": "BYPASS",
              "bassOn": true,
              "noteLowLimit": 20,
              "noteHighLimit": 60,
              "chordRootUpperLimit": 127,
              "rtr": "NOTE_GENERATOR"
            }
          },
          "notes": [
            {
              "pitch": 36,
              "velocity": 97,
              "position": 0.0,
              "duration": 0.45
            },
            {
              "pitch": 36,
              "velocity": 113,
              "position": 1.0,
              "duration": 0.383333
            },
            {
              "pitch": 36,
              "velocity": 105,
              "position": 2.0,
              "duration": 1.241667
            },
            {
              "pitch": 36,
              "velocity": 98,
              "position": 3.666667,
              "duration": 0.775
            },
            {
              "pitch": 36,
              "velocity": 109,
              "position": 4.666667,
              "duration": 0.233333
            },
            {
              "pitch": 36,
              "velocity": 109,
              "position": 5.666667,
              "duration": 0.233333
            },
            {
              "pitch": 36,
              "velocity": 107,
              "position": 6.0,
              "duration": 0.458333
            },
            {
              "pitch": 36,
              "velocity": 103,
              "position": 7.0,
              "duration": 0.366667
            },
            {
              "pitch": 36,
              "velocity": 111,
              "position": 8.0,
              "duration": 0.366667
            },
            {
              "pitch": 36,
              "velocity": 111,
              "position": 9.0,
              "duration": 0.358333
            },
            {
              "pitch": 36,
              "velocity": 108,
              "position": 10.0,
              "duration": 1.283333
            },
            {
              "pitch": 36,
              "velocity": 111,
              "position": 11.666667,
              "duration": 0.333333
            },
            {
              "pitch": 36,
              "velocity": 119,
              "position": 12.666667,
              "duration": 0.316667
            },
            {
              "pitch": 31,
              "velocity": 65,
              "position": 13.666667,
              "duration": 0.258333
            },
            {
              "pitch": 36,
              "velocity": 111,
              "position": 14.0,
              "duration": 0.491667
            },
            {
              "pitch": 36,
              "velocity": 111,
              "position": 15.0,
              "duration": 0.383333
            }
          ]
        },
        "11": {
          "ctab": {
            "srcChannel": 11,
            "name": "Piano",
            "accType": "CHORD1",
            "editable": true,
            "mutedNotes": [],
            "mutedChords": [],
            "sourceChordNote": 0,
            "sourceChordType": "Maj7",
            "ctb2Main": {
              "ntr": "ROOT_FIXED",
              "ntt": "CHORD",
              "bassOn": false,
              "noteLowLimit": 48,
              "noteHighLimit": 84,
              "chordRootUpperLimit": 127,
              "rtr": "NOTE_GENERATOR"
            }
          },
          "notes": [
            {
              "pitch": 48,
              "velocity": 73,
              "position": 0.0,
              "duration": 0.433333
            },
            {
              "pitch": 60,
              "velocity": 74,
              "position": 0.0,
              "duration": 0.433333
            },
            {
              "pitch": 48,
              "velocity": 57,
              "position": 1.0,
              "duration": 0.325
            },
            {
              "pitch": 60,
              "velocity": 81,
              "position": 1.0,
              "duration": 0.458333
            },
            {
              "pitch": 60,
              "velocity": 71,
              "position": 1.966667,
              "duration": 0.591667
            },
            {
              "pitch": 64,
              "velocity": 71,
              "position": 1.991667,
              "duration": 0.566667
            },
            {
              "pitch": 67,
              "velocity": 71,
              "position": 2.008333,
              "duration": 0.55
            },
            {
              "pitch": 48,
              "velocity": 43,
              "position": 3.666667,
              "duration": 0.708333
            },
            {
              "pitch": 60,
              "velocity": 81,
              "position": 3.666667,
              "duration": 0.666667
            },
            {
              "pitch": 48,
              "velocity": 71,
              "position": 4.666667,
              "duration": 0.266667
            },
            {
              "pitch": 60,
              "velocity": 85,
              "position": 4.666667,
              "duration": 0.266667
            },
            {
              "pitch": 48,
              "velocity": 53,
              "position": 5.666667,
              "duration": 0.225
            },
            {
              "pitch": 48,
              "velocity": 65,
              "position": 6.0,
              "duration": 0.308333
            },
            {
              "pitch": 60,
              "velocity": 85,
              "position": 6.0,
              "duration": 0.375
            },
            {
              "pitch": 48,
              "velocity": 46,
              "position": 6.666667,
              "duration": 0.316667
            },
            {
              "pitch": 48,
              "velocity": 65,
              "position": 7.0,
              "duration": 0.408333
            },
            {
              "pitch": 60,
              "velocity": 92,
              "position": 7.0,
              "duration": 0.5
            },
            {
              "pitch": 55,
              "velocity": 69,
              "position": 8.0,
              "duration": 0.766667
            },
            {
              "pitch": 64,
              "velocity": 73,
              "position": 9.016667,
              "duration": 0.308333
            },
            {
              "pitch": 67,
              "velocity": 73,
              "position": 9.05,
              "duration": 0.275
            },
            {
              "pitch": 64,
              "velocity": 78,
              "position": 10.008333,
              "duration": 0.383333
            },
            {
              "pitch": 67,
              "velocity": 78,
              "position": 10.041667,
              "duration": 0.35
            },
            {
              "pitch": 64,
              "velocity": 78,
              "position": 11.675,
              "duration": 0.266667
            },
            {
              "pitch": 67,
              "velocity": 78,
              "position": 11.708333,
              "duration": 0.233333
            },
            {
              "pitch": 64,
              "velocity": 72,
              "position": 12.666667,
              "duration": 0.216667
            },
            {
              "pitch": 67,
              "velocity": 72,
              "position": 12.7,
              "duration": 0.183333
            },
            {
              "pitch": 55,
              "velocity": 51,
              "position": 13.7,
              "duration": 0.241667
            },
            {
              "pitch": 64,
              "velocity": 75,
              "position": 14.016667,
              "duration": 0.391667
            },
            {
              "pitch": 67,
              "velocity": 75,
              "position": 14.05,
              "duration": 0.358333
            },
            {
              "pitch": 55,
              "velocity": 45,
              "position": 14.691667,
              "duration": 0.208333
            },
            {
              "pitch": 64,
              "velocity": 72,
              "position": 15.008333,
              "duration": 0.391667
            },
            {
              "pitch": 67,
              "velocity": 72,
              "position": 15.041667,
              "duration": 0.358333
            }
          ]
        },
        "12": {
          "ctab": {
            "srcChannel": 12,
            "name": "Guitar",
            "accType": "CHORD2",
            "editable": true,
            "mutedNotes": [],
            "mutedChords": [],
            "sourceChordNote": 0,
            "sourceChordType": "Maj7",
            "ctb2Main": {
              "ntr": "ROOT_FIXED",
              "ntt": "CHORD",
              "bassOn": false,
              "noteLowLimit": 40,
              "noteHighLimit": 76,
              "chordRootUpperLimit": 127,
              "rtr": "NOTE_GENERATOR"
            }
          },
          "notes": [
            {
              "pitch": 59,
              "velocity": 89,
              "position": 0.975,
              "duration": 0.208333
            },
            {
              "pitch": 64,
              "velocity": 89,
              "position": 0.991667,
              "duration": 0.191667
            },
            {
              "pitch": 67,
              "velocity": 89,
              "position": 1.016667,
              "duration": 0.166667
            },
            {
              "pitch": 64,
              "velocity": 89,
              "position": 2.975,
              "duration": 0.208333
            },
            {
              "pitch": 67,
              "velocity": 89,
              "position": 2.991667,
              "duration": 0.191667
            },
            {
              "pitch": 71,
              "velocity": 89,
              "position": 3.016667,
              "duration": 0.166667
            },
            {
              "pitch": 64,
              "velocity": 89,
              "position": 4.991667,
              "duration": 0.233333
            },
            {
              "pitch": 67,
              "velocity": 89,
              "position": 5.008333,
              "duration": 0.216667
            },
            {
              "pitch": 71,
              "velocity": 89,
              "position": 5.033333,
              "duration": 0.191667
            },
            {
              "pitch": 59,
              "velocity": 89,
              "position": 6.991667,
              "duration": 0.233333
            },
            {
              "pitch": 64,
              "velocity": 89,
              "position": 7.008333,
              "duration": 0.216667
            },
            {
              "pitch": 67,
              "velocity": 89,
              "position": 7.033333,
              "duration": 0.191667
            },
            {
              "pitch": 64,
              "velocity": 89,
              "position": 8.975,
              "duration": 0.208333
            },
            {
              "pitch": 67,
              "velocity": 89,
              "position": 8.991667,
              "duration": 0.191667
            },
            {
              "pitch": 71,
              "velocity": 89,
              "position": 9.016667,
              "duration": 0.166667
            },
            {
              "pitch": 64,
              "velocity": 89,
              "position": 10.975,
              "duration": 0.225
            },
            {
              "pitch": 67,
              "velocity": 89,
              "position": 10.991667,
              "duration": 0.208333
            },
            {
              "pitch": 71,
              "velocity": 89,
              "position": 11.016667,
              "duration": 0.183333
            },
            {
              "pitch": 64,
              "velocity": 89,
              "position": 12.975,
              "duration": 0.216667
            },
            {
              "pitch": 67,
              "velocity": 89,
              "position": 12.991667,
              "duration": 0.2
            },
            {
              "pitch": 71,
              "velocity": 89,
              "position": 13.016667,
              "duration": 0.175
            },
            {
              "pitch": 64,
              "velocity": 89,
              "position": 14.975,
              "duration": 0.233333
            },
            {
              "pitch": 67,
              "velocity": 89,
              "position": 14.991667,
              "duration": 0.216667
            },
            {
              "pitch": 71,
              "velocity": 89,
              "position": 15.016667,
              "duration": 0.191667
            }
          ]
        },
        "13": {
          "ctab": {
            "srcChannel": 13,
            "name": "Strings",
            "accType": "PAD",
            "editable": true,
            "mutedNotes": [],
            "mutedChords": [],
            "sourceChordNote": 0,
            "sourceChordType": "Maj7",
            "ctb2Main": {
              "ntr": "ROOT_FIXED",
              "ntt": "MELODY",
              "bassOn": false,
              "noteLowLimit": 36,
              "noteHighLimit": 96,
              "chordRootUpperLimit": 127,
              "rtr": "PITCH_SHIFT"
            }
          },
          "notes": []
        }
      }
    },
    "Main_C": {
      "type": "Main_C",
      "sizeInBeats": 16,
      "channels": {
        "9": {
          "ctab": {
            "srcChannel": 9,
            "name": "Drums",
            "accType": "RHYTHM",
            "editable": false,
            "mutedNotes": [],
            "mutedChords": [],
            "sourceChordNote": 0,
            "sourceChordType": "Maj",
            "ctb2Main": {
              "ntr": "ROOT_FIXED",
              "ntt": "BYPASS",
              "bassOn": false,
              "noteLowLimit": 20,
              "noteHighLimit": 127,
              "chordRootUpperLimit": 127,
              "rtr": "RETRIGGER"
            }
          },
          "notes": [
            {
              "pitch": 35,
              "velocity": 90,
              "position": 0.0,
              "duration": 0.208333
            },
            {
              "pitch": 42,
              "velocity": 90,
              "position": 0.0,
              "duration": 0.208333
            },
            {
              "pitch": 49,
              "velocity": 90,
              "position": 0.0,
              "duration": 0.208333
            },
            {
              "pitch": 54,
              "velocity": 90,
              "position": 0.0,
              "duration": 0.208333
            },
            {
              "pitch": 70,
              "velocity": 100,
              "position": 0.0,
              "duration": 0.208333
            },
            {
              "pitch": 42,
              "velocity": 115,
              "position": 0.666667,
              "duration": 0.208333
            },
            {
              "pitch": 54,
              "velocity": 50,
              "position": 0.666667,
              "duration": 0.208333
            },
            {
              "pitch": 70,
              "velocity": 70,
              "position": 0.666667,
              "duration": 0.208333
            },
            {
              "pitch": 35,
              "velocity": 80,
              "position": 1.0,
              "duration": 0.208333
            },
            {
              "pitch": 38,
              "velocity": 100,
              "position": 1.0,
              "duration": 0.208333
            },
            {
              "pitch": 39,
              "velocity": 100,
              "position": 1.0,
              "duration": 0.208333
            },
            {
              "pitch": 41,
              "velocity": 70,
              "position": 1.0,
              "duration": 0.208333
            },
            {
              "pitch": 42,
              "velocity": 100,
              "position": 1.0,
              "duration": 0.208333
            },
            {
              "pitch": 54,
              "velocity": 115,
              "position": 1.0,
              "duration": 0.208333
            },
            {
              "pitch": 70,
              "velocity": 100,
              "position": 1.0,
              "duration": 0.208333
            },
            {
              "pitch": 54,
              "velocity": 50,
              "position": 1.666667,
              "duration": 0.208333
            },
            {
              "pitch": 70,
              "velocity": 70,
              "position": 1.666667,
              "duration": 0.208333
            },
            {
              "pitch": 35,
              "velocity": 90,
              "position": 2.0,
              "duration": 0.208333
            },
            {
              "pitch": 41,
              "velocity": 80,
              "position": 2.0,
              "duration": 0.208333
            },
            {
              "pitch": 42,
              "velocity": 90,
              "position": 2.0,
              "duration": 0.208333
            },
            {
              "pitch": 54,
              "velocity": 90,
              "position": 2.0,
              "duration": 0.208333
            },
            {
              "pitch": 70,
              "velocity": 100,
              "position": 2.0,
              "duration": 0.208333
            },
            {
              "pitch": 42,
              "velocity": 115,
              "position": 2.666667,
              "duration": 0.208333
            },
            {
              "pitch": 54,
              "velocity": 50,
              "position": 2.666667,
              "duration": 0.208333
            },
            {
              "pitch": 70,
              "velocity": 70,
              "position": 2.666667,
              "duration": 0.208333
            },
            {
              "pitch": 38,
              "velocity": 100,
              "position": 3.0,
              "duration": 0.208333
            },
            {
              "pitch": 39,
              "velocity": 100,
              "position": 3.0,
              "duration": 0.208333
            },
            {
              "pitch": 42,
              "velocity": 100,
              "position": 3.0,
              "duration": 0.208333
            },
            {
              "pitch": 54,
              "velocity": 115,
              "position": 3.0,
              "duration": 0.208333
            },
            {
              "pitch": 70,
              "velocity": 100,
              "position": 3.0,
              "duration": 0.208333
            },
            {
              "pitch": 35,
              "velocity": 60,
              "position": 3.666667,
              "duration": 0.208333
            },
            {
              "pitch": 41,
              "velocity": 70,
              "position": 3.666667,
              "duration": 0.208333
            },
            {
              "pitch": 42,
              "velocity": 60,
              "position": 3.666667,
              "duration": 0.208333
            },
            {
              "pitch": 54,
              "velocity": 50,
              "position": 3.666667,
              "duration": 0.208333
            },
            {
              "pitch": 70,
              "velocity": 70,
              "position": 3.666667,
              "duration": 0.208333
            },
            {
              "pitch": 42,
              "velocity": 90,
              "position": 4.0,
              "duration": 0.208333
            },
            {
              "pitch": 54,
              "velocity": 90,
              "position": 4.0,
              "duration": 0.208333
            },
            {
              "pitch": 70,
              "velocity": 100,
              "position": 4.0,
              "duration": 0.208333
            },
            {
              "pitch": 35,
              "velocity": 80,
              "position": 4.666667,
              "duration": 0.208333
            },
            {
              "pitch": 41,
              "velocity": 70,
              "position": 4.666667,
              "duration": 0.208333
            },
            {
              "pitch": 42,
              "velocity": 115,
              "position": 4.666667,
              "duration": 0.208333
            },
            {
              "pitch": 54,
              "velocity": 50,
              "position": 4.666667,
              "duration": 0.208333
            },
            {
              "pitch": 70,
              "velocity": 70,
              "position": 4.666667,
              "duration": 0.208333
            },
            {
              "pitch": 38,
              "velocity": 100,
              "position": 5.0,
              "duration": 0.208333
            },
            {
              "pitch": 39,
              "velocity": 100,
              "position": 5.0,
              "duration": 0.208333
            },
            {
              "pitch": 42,
              "velocity": 100,
              "position": 5.0,
              "duration": 0.208333
            },
            {
              "pitch": 54,
              "velocity": 115,
              "position": 5.0,
              "duration": 0.208333
            },
            {
              "pitch": 70,
              "velocity": 100,
              "position": 5.0,
              "duration": 0.208333
            },
            {
              "pitch": 35,
              "velocity": 80,
              "position": 5.666667,
              "duration": 0.208333
            },
            {
              "pitch": 41,
              "velocity": 60,
              "position": 5.666667,
              "duration": 0.208333
            },
            {
              "pitch": 54,
              "velocity": 50,
              "position": 5.666667,
              "duration": 0.208333
            },
            {
              "pitch": 70,
              "velocity": 70,
              "position": 5.666667,
              "duration": 0.208333
            },
            {
              "pitch": 35,
              "velocity": 90,
              "position": 6.0,
              "duration": 0.208333
            },
            {
              "pitch": 41,
              "velocity": 80,
              "position": 6.0,
              "duration": 0.208333
            },
            {
              "pitch": 42,
              "velocity": 90,
              "position": 6.0,
              "duration": 0.208333
            },
            {
              "pitch": 54,
              "velocity": 90,
              "position": 6.0,
              "duration": 0.208333
            },
            {
              "pitch": 70,
              "velocity": 100,
              "position": 6.0,
              "duration": 0.208333
            },
            {
              "pitch": 42,
              "velocity": 100,
              "position": 6.666667,
              "duration": 0.208333
            },
            {
              "pitch": 54,
              "velocity": 50,
              "position": 6.666667,
              "duration": 0.208333
            },
            {
              "pitch": 70,
              "velocity": 70,
              "position": 6.666667,
              "duration": 0.208333
            },
            {
              "pitch": 38,
              "velocity": 100,
              "position": 7.0,
              "duration": 0.208333
            },
            {
              "pitch": 39,
              "velocity": 100,
              "position": 7.0,
              "duration": 0.208333
            },
            {
              "pitch": 54,
              "velocity": 115,
              "position": 7.0,
              "duration": 0.208333
            },
            {
              "pitch": 70,
              "velocity": 100,
              "position": 7.0,
              "duration": 0.208333
            },
            {
              "pitch": 42,
              "velocity": 70,
              "position": 7.333333,
              "duration": 0.208333
            },
            {
              "pitch": 42,
              "velocity": 100,
              "position": 7.666667,
              "duration": 0.208333
            },
            {
              "pitch": 54,
              "velocity": 50,
              "position": 7.666667,
              "duration": 0.208333
            },
            {
              "pitch": 70,
              "velocity": 70,
              "position": 7.666667,
              "duration": 0.208333
            },
            {
              "pitch": 35,
              "velocity": 80,
              "position": 8.0,
              "duration": 0.208333
            },
            {
              "pitch": 42,
              "velocity": 90,
              "position": 8.0,
              "duration": 0.208333
            },
            {
              "pitch": 54,
              "velocity": 90,
              "position": 8.0,
              "duration": 0.208333
            },
            {
              "pitch": 70,
              "velocity": 100,
              "position": 8.0,
              "duration": 0.208333
            },
            {
              "pitch": 42,
              "velocity": 50,
              "position": 8.333333,
              "duration": 0.208333
            },
            {
              "pitch": 42,
              "velocity": 115,
              "position": 8.666667,
              "duration": 0.208333
            },
            {
              "pitch": 54,
              "velocity": 50,
              "position": 8.666667,
              "duration": 0.208333
            },
            {
              "pitch": 70,
              "velocity": 70,
              "position": 8.666667,
              "duration": 0.208333
            },
            {
              "pitch": 35,
              "velocity": 80,
              "position": 9.0,
              "duration": 0.208333
            },
            {
              "pitch": 38,
              "velocity": 90,
              "position": 9.0,
              "duration": 0.208333
            },
            {
              "pitch": 39,
              "velocity": 100,
              "position": 9.0,
              "duration": 0.208333
            },
            {
              "pitch": 41,
              "velocity": 70,
              "position": 9.0,
              "duration": 0.208333
            },
            {
              "pitch": 42,
              "velocity": 100,
              "position": 9.0,
              "duration": 0.208333
            },
            {
              "pitch": 54,
              "velocity": 115,
              "position": 9.0,
              "duration": 0.208333
            },
            {
              "pitch": 70,
              "velocity": 100,
              "position": 9.0,
              "duration": 0.208333
            },
            {
              "pitch": 54,
              "velocity": 50,
              "position": 9.666667,
              "duration": 0.208333
            },
            {
              "pitch": 70,
              "velocity": 70,
              "position": 9.666667,
              "duration": 0.208333
            },
            {
              "pitch": 35,
              "velocity": 80,
              "position": 10.0,
              "duration": 0.208333
            },
            {
              "pitch": 41,
              "velocity": 80,
              "position": 10.0,
              "duration": 0.208333
            },
            {
              "pitch": 42,
              "velocity": 90,
              "position": 10.0,
              "duration": 0.208333
            },
            {
              "pitch": 54,
              "velocity": 90,
              "position": 10.0,
              "duration": 0.208333
            },
            {
              "pitch": 70,
              "velocity": 100,
              "position": 10.0,
              "duration": 0.208333
            },
            {
              "pitch": 42,
              "velocity": 115,
              "position": 10.666667,
              "duration": 0.208333
            },
            {
              "pitch": 54,
              "velocity": 50,
              "position": 10.666667,
              "duration": 0.208333
            },
            {
              "pitch": 70,
              "velocity": 70,
              "position": 10.666667,
              "duration": 0.208333
            },
            {
              "pitch": 38,
              "velocity": 100,
              "position": 11.0,
              "duration": 0.208333
            },
            {
              "pitch": 39,
              "velocity": 100,
              "position": 11.0,
              "duration": 0.208333
            },
            {
              "pitch": 42,
              "velocity": 100,
              "position": 11.0,
              "duration": 0.208333
            },
            {
              "pitch": 54,
              "velocity": 115,
              "position": 11.0,
              "duration": 0.208333
            },
            {
              "pitch": 70,
              "velocity": 100,
              "position": 11.0,
              "duration": 0.208333
            },
            {
              "pitch": 35,
              "velocity": 60,
              "position": 11.666667,
              "duration": 0.208333
            },
            {
              "pitch": 41,
              "velocity": 60,
              "position": 11.666667,
              "duration": 0.208333
            },
            {
              "pitch": 42,
              "velocity": 60,
              "position": 11.666667,
              "duration": 0.208333
            },
            {
              "pitch": 54,
              "velocity": 50,
              "position": 11.666667,
              "duration": 0.208333
            },
            {
              "pitch": 70,
              "velocity": 70,
              "position": 11.666667,
              "duration": 0.208333
            },
            {
              "pitch": 35,
              "velocity": 90,
              "position": 12.0,
              "duration": 0.208333
            },
            {
              "pitch": 54,
              "velocity": 90,
              "position": 12.0,
              "duration": 0.208333
            },
            {
              "pitch": 38,
              "velocity": 70,
              "position": 12.666667,
              "duration": 0.208333
            },
            {
              "pitch": 54,
              "velocity": 50,
              "position": 12.666667,
              "duration": 0.208333
            },
            {
              "pitch": 38,
              "velocity": 90,
              "position": 13.0,
              "duration": 0.208333
            },
            {
              "pitch": 54,
              "velocity": 115,
              "position": 13.0,
              "duration": 0.208333
            },
            {
              "pitch": 38,
              "velocity": 60,
              "position": 13.333333,
              "duration": 0.208333
            },
            {
              "pitch": 38,
              "velocity": 80,
              "position": 13.666667,
              "duration": 0.208333
            },
            {
              "pitch": 54,
              "velocity": 50,
              "position": 13.666667,
              "duration": 0.208333
            },
            {
              "pitch": 35,
              "velocity": 90,
              "position": 14.0,
              "duration": 0.208333
            },
            {
              "pitch": 38,
              "velocity": 90,
              "position": 14.0,
              "duration": 0.208333
            },
            {
              "pitch": 54,
              "velocity": 90,
              "position": 14.0,
              "duration": 0.208333
            },
            {
              "pitch": 38,
              "velocity": 70,
              "position": 14.333333,
              "duration": 0.208333
            },
            {
              "pitch": 38,
              "velocity": 90,
              "position": 14.666667,
              "duration": 0.208333
            },
            {
              "pitch": 54,
              "velocity": 50,
              "position": 14.666667,
              "duration": 0.208333
            },
            {
              "pitch": 35,
              "velocity": 90,
              "position": 15.0,
              "duration": 0.208333
            },
            {
              "pitch": 38,
              "velocity": 100,
              "position": 15.0,
              "duration": 0.208333
            },
            {
              "pitch": 54,
              "velocity": 115,
              "position": 15.0,
              "duration": 0.208333
            },
            {
              "pitch": 38,
              "velocity": 80,
              "position": 15.333333,
              "duration": 0.208333
            },
            {
              "pitch": 38,
              "velocity": 70,
              "position": 15.666667,
              "duration": 0.208333
            },
            {
              "pitch": 54,
              "velocity": 50,
              "position": 15.666667,
              "duration": 0.208333
            }
          ]
        },
        "10": {
          "ctab": {
            "srcChannel": 10,
            "name": "Bass",
            "accType": "BASS",
            "editable": true,
            "mutedNotes": [],
            "mutedChords": [],
            "sourceChordNote": 0,
            "sourceChordType": "Maj7",
            "ctb2Main": {
              "ntr": "ROOT_TRANSPOSITION",
              "ntt": "BYPASS",
              "bassOn": true,
              "noteLowLimit": 20,
              "noteHighLimit": 60,
              "chordRootUpperLimit": 127,
              "rtr": "NOTE_GENERATOR"
            }
          },
          "notes": [
            {
              "pitch": 36,
              "velocity": 114,
              "position": 0.0,
              "duration": 0.466667
            },
            {
              "pitch": 24,
              "velocity": 80,
              "position": 0.666667,
              "duration": 0.358333
            },
            {
              "pitch": 36,
              "velocity": 121,
              "position": 1.025,
              "duration": 0.533333
            },
            {
              "pitch": 36,
              "velocity": 105,
              "position": 2.0,
              "duration": 1.241667
            },
            {
              "pitch": 36,
              "velocity": 100,
              "position": 3.666667,
              "duration": 0.691667
            },
            {
              "pitch": 36,
              "velocity": 110,
              "position": 4.666667,
              "duration": 0.358333
            },
            {
              "pitch": 36,
              "velocity": 107,
              "position": 5.666667,
              "duration": 0.25
            },
            {
              "pitch": 36,
              "velocity": 107,
              "position": 6.0,
              "duration": 0.458333
            },
            {
              "pitch": 36,
              "velocity": 103,
              "position": 7.0,
              "duration": 0.366667
            },
            {
              "pitch": 36,
              "velocity": 105,
              "position": 8.0,
              "duration": 0.4
            },
            {
              "pitch": 36,
              "velocity": 109,
              "position": 9.0,
              "duration": 0.341667
            },
            {
              "pitch": 36,
              "velocity": 112,
              "position": 10.0,
              "duration": 1.441667
            },
            {
              "pitch": 36,
              "velocity": 112,
              "position": 11.666667,
              "duration": 0.341667
            },
            {
              "pitch": 36,
              "velocity": 107,
              "position": 12.666667,
              "duration": 0.358333
            },
            {
              "pitch": 36,
              "velocity": 88,
              "position": 13.666667,
              "duration": 0.183333
            },
            {
              "pitch": 36,
              "velocity": 100,
              "position": 14.0,
              "duration": 0.525
            },
            {
              "pitch": 38,
              "velocity": 96,
              "position": 14.666667,
              "duration": 0.283333
            },
            {
              "pitch": 36,
              "velocity": 117,
              "position": 15.0,
              "duration": 0.433333
            },
            {
              "pitch": 35,
              "velocity": 112,
              "position": 15.666667,
              "duration": 0.241667
            }
          ]
        },
        "11": {
          "ctab": {
            "srcChannel": 11,
            "name": "Piano",
            "accType": "CHORD1",
            "editable": true,
            "mutedNotes": [],
            "mutedChords": [],
            "sourceChordNote": 0,
            "sourceChordType": "Maj7",
            "ctb2Main": {
              "ntr": "ROOT_FIXED",
              "ntt": "CHORD",
              "bassOn": false,
              "noteLowLimit": 48,
              "noteHighLimit": 84,
              "chordRootUpperLimit": 127,
              "rtr": "NOTE_GENERATOR"
            }
          },
          "notes": [
            {
              "pitch": 48,
              "velocity": 73,
              "position": 0.0,
              "duration": 0.433333
            },
            {
              "pitch": 59,
              "velocity": 74,
              "position": 0.0,
              "duration": 0.433333
            },
            {
              "pitch": 48,
              "velocity": 57,
              "position": 1.0,
              "duration": 0.325
            },
            {
              "pitch": 59,
              "velocity": 81,
              "position": 1.0,
              "duration": 0.458333
            },
            {
              "pitch": 48,
              "velocity": 73,
              "position": 2.0,
              "duration": 0.433333
            },
            {
              "pitch": 60,
              "velocity": 74,
              "position": 2.0,
              "duration": 0.433333
            },
            {
              "pitch": 48,
              "velocity": 57,
              "position": 3.0,
              "duration": 0.325
            },
            {
              "pitch": 60,
              "velocity": 81,
              "position": 3.0,
              "duration": 0.375
            },
            {
              "pitch": 48,
              "velocity": 43,
              "position": 3.666667,
              "duration": 0.95
            },
            {
              "pitch": 59,
              "velocity": 74,
              "position": 3.666667,
              "duration": 0.625
            },
            {
              "pitch": 64,
              "velocity": 74,
              "position": 3.666667,
              "duration": 0.625
            },
            {
              "pitch": 59,
              "velocity": 89,
              "position": 4.633333,
              "duration": 0.3
            },
            {
              "pitch": 64,
              "velocity": 89,
              "position": 4.666667,
              "duration": 0.266667
            },
            {
              "pitch": 59,
              "velocity": 67,
              "position": 5.633333,
              "duration": 0.258333
            },
            {
              "pitch": 64,
              "velocity": 67,
              "position": 5.666667,
              "duration": 0.225
            },
            {
              "pitch": 48,
              "velocity": 65,
              "position": 6.0,
              "duration": 0.308333
            },
            {
              "pitch": 60,
              "velocity": 85,
              "position": 6.0,
              "duration": 0.375
            },
            {
              "pitch": 48,
              "velocity": 46,
              "position": 6.666667,
              "duration": 0.316667
            },
            {
              "pitch": 48,
              "velocity": 65,
              "position": 7.0,
              "duration": 0.408333
            },
            {
              "pitch": 60,
              "velocity": 92,
              "position": 7.0,
              "duration": 0.5
            },
            {
              "pitch": 48,
              "velocity": 65,
              "position": 8.0,
              "duration": 0.766667
            },
            {
              "pitch": 60,
              "velocity": 73,
              "position": 9.016667,
              "duration": 0.308333
            },
            {
              "pitch": 64,
              "velocity": 73,
              "position": 9.041667,
              "duration": 0.283333
            },
            {
              "pitch": 67,
              "velocity": 73,
              "position": 9.058333,
              "duration": 0.266667
            },
            {
              "pitch": 60,
              "velocity": 78,
              "position": 10.008333,
              "duration": 0.383333
            },
            {
              "pitch": 64,
              "velocity": 78,
              "position": 10.033333,
              "duration": 0.358333
            },
            {
              "pitch": 67,
              "velocity": 78,
              "position": 10.05,
              "duration": 0.341667
            },
            {
              "pitch": 60,
              "velocity": 78,
              "position": 11.675,
              "duration": 0.266667
            },
            {
              "pitch": 64,
              "velocity": 78,
              "position": 11.7,
              "duration": 0.241667
            },
            {
              "pitch": 67,
              "velocity": 78,
              "position": 11.716667,
              "duration": 0.225
            },
            {
              "pitch": 60,
              "velocity": 72,
              "position": 12.666667,
              "duration": 0.216667
            },
            {
              "pitch": 64,
              "velocity": 72,
              "position": 12.691667,
              "duration": 0.191667
            },
            {
              "pitch": 67,
              "velocity": 72,
              "position": 12.708333,
              "duration": 0.175
            },
            {
              "pitch": 48,
              "velocity": 48,
              "position": 13.7,
              "duration": 0.241667
            },
            {
              "pitch": 60,
              "velocity": 75,
              "position": 14.016667,
              "duration": 0.391667
            },
            {
              "pitch": 64,
              "velocity": 75,
              "position": 14.041667,
              "duration": 0.366667
            },
            {
              "pitch": 67,
              "velocity": 75,
              "position": 14.058333,
              "duration": 0.35
            },
            {
              "pitch": 48,
              "velocity": 43,
              "position": 14.691667,
              "duration": 0.208333
            },
            {
              "pitch": 60,
              "velocity": 72,
              "position": 15.008333,
              "duration": 0.391667
            },
            {
              "pitch": 64,
              "velocity": 72,
              "position": 15.033333,
              "duration": 0.366667
            },
            {
              "pitch": 67,
              "velocity": 72,
              "position": 15.05,
              "duration": 0.35
            },
            {
              "pitch": 60,
              "velocity": 71,
              "position": 15.966667,
              "duration": 0.4
            },
            {
              "pitch": 64,
              "velocity": 71,
              "position": 15.991667,
              "duration": 0.375
            }
          ]
        },
        "12": {
          "ctab": {
            "srcChannel": 12,
            "name": "Guitar",
            "accType": "CHORD2",
            "editable": true,
            "mutedNotes": [],
            "mutedChords": [],
            "sourceChordNote": 0,
            "sourceChordType": "Maj7",
            "ctb2Main": {
              "ntr": "ROOT_FIXED",
              "ntt": "CHORD",
              "bassOn": false,
              "noteLowLimit": 40,
              "noteHighLimit": 76,
              "chordRootUpperLimit": 127,
              "rtr": "NOTE_GENERATOR"
            }
          },
          "notes": [
            {
              "pitch": 60,
              "velocity": 89,
              "position": 0.991667,
              "duration": 0.233333
            },
            {
              "pitch": 64,
              "velocity": 89,
              "position": 1.008333,
              "duration": 0.216667
            },
            {
              "pitch": 67,
              "velocity": 89,
              "position": 1.025,
              "duration": 0.2
            },
            {
              "pitch": 71,
              "velocity": 89,
              "position": 1.033333,
              "duration": 0.191667
            },
            {
              "pitch": 60,
              "velocity": 89,
              "position": 2.975,
              "duration": 0.208333
            },
            {
              "pitch": 64,
              "velocity": 89,
              "position": 2.991667,
              "duration": 0.191667
            },
            {
              "pitch": 67,
              "velocity": 89,
              "position": 3.008333,
              "duration": 0.175
            },
            {
              "pitch": 71,
              "velocity": 89,
              "position": 3.016667,
              "duration": 0.166667
            },
            {
              "pitch": 60,
              "velocity": 89,
              "position": 4.991667,
              "duration": 0.233333
            },
            {
              "pitch": 64,
              "velocity": 89,
              "position": 5.008333,
              "duration": 0.216667
            },
            {
              "pitch": 67,
              "velocity": 89,
              "position": 5.025,
              "duration": 0.2
            },
            {
              "pitch": 71,
              "velocity": 89,
              "position": 5.033333,
              "duration": 0.191667
            },
            {
              "pitch": 60,
              "velocity": 89,
              "position": 6.991667,
              "duration": 0.233333
            },
            {
              "pitch": 64,
              "velocity": 89,
              "position": 7.008333,
              "duration": 0.216667
            },
            {
              "pitch": 67,
              "velocity": 89,
              "position": 7.025,
              "duration": 0.2
            },
            {
              "pitch": 71,
              "velocity": 89,
              "position": 7.033333,
              "duration": 0.191667
            },
            {
              "pitch": 59,
              "velocity": 89,
              "position": 8.991667,
              "duration": 0.233333
            },
            {
              "pitch": 64,
              "velocity": 89,
              "position": 9.008333,
              "duration": 0.216667
            },
            {
              "pitch": 67,
              "velocity": 89,
              "position": 9.033333,
              "duration": 0.191667
            },
            {
              "pitch": 59,
              "velocity": 89,
              "position": 10.991667,
              "duration": 0.241667
            },
            {
              "pitch": 64,
              "velocity": 89,
              "position": 11.008333,
              "duration": 0.225
            },
            {
              "pitch": 67,
              "velocity": 89,
              "position": 11.033333,
              "duration": 0.2
            },
            {
              "pitch": 59,
              "velocity": 89,
              "position": 12.991667,
              "duration": 0.216667
            },
            {
              "pitch": 64,
              "velocity": 89,
              "position": 13.008333,
              "duration": 0.2
            },
            {
              "pitch": 67,
              "velocity": 89,
              "position": 13.033333,
              "duration": 0.175
            },
            {
              "pitch": 59,
              "velocity": 89,
              "position": 14.991667,
              "duration": 0.258333
            },
            {
              "pitch": 64,
              "velocity": 89,
              "position": 15.008333,
              "duration": 0.241667
            },
            {
              "pitch": 67,
              "velocity": 89,
              "position": 15.033333,
              "duration": 0.216667
            }
          ]
        },
        "13": {
          "ctab": {
            "srcChannel": 13,
            "name": "Strings",
            "accType": "PAD",
            "editable": true,
            "mutedNotes": [],
            "mutedChords": [],
            "sourceChordNote": 0,
            "sourceChordType": "Maj7",
            "ctb2Main": {
              "ntr": "ROOT_FIXED",
              "ntt": "MELODY",
              "bassOn": false,
              "noteLowLimit": 36,
              "noteHighLimit": 96,
              "chordRootUpperLimit": 127,
              "rtr": "PITCH_SHIFT"
            }
          },
          "notes": []
        }
      }
    },
    "Main_D": {
      "type": "Main_D",
      "sizeInBeats": 16,
      "channels": {
        "9": {
          "ctab": {
            "srcChannel": 9,
            "name": "Drums",
            "accType": "RHYTHM",
            "editable": false,
            "mutedNotes": [],
            "mutedChords": [],
            "sourceChordNote": 0,
            "sourceChordType": "Maj",
            "ctb2Main": {
              "ntr": "ROOT_FIXED",
              "ntt": "BYPASS",
              "bassOn": false,
              "noteLowLimit": 20,
              "noteHighLimit": 127,
              "chordRootUpperLimit": 127,
              "rtr": "RETRIGGER"
            }
          },
          "notes": [
            {
              "pitch": 35,
              "velocity": 90,
              "position": 0.0,
              "duration": 0.208333
            },
            {
              "pitch": 42,
              "velocity": 90,
              "position": 0.0,
              "duration": 0.208333
            },
            {
              "pitch": 49,
              "velocity": 90,
              "position": 0.0,
              "duration": 0.208333
            },
            {
              "pitch": 54,
              "velocity": 90,
              "position": 0.0,
              "duration": 0.208333
            },
            {
              "pitch": 70,
              "velocity": 100,
              "position": 0.0,
              "duration": 0.208333
            },
            {
              "pitch": 42,
              "velocity": 115,
              "position": 0.666667,
              "duration": 0.208333
            },
            {
              "pitch": 54,
              "velocity": 50,
              "position": 0.666667,
              "duration": 0.208333
            },
            {
              "pitch": 70,
              "velocity": 70,
              "position": 0.666667,
              "duration": 0.208333
            },
            {
              "pitch": 35,
              "velocity": 80,
              "position": 1.0,
              "duration": 0.208333
            },
            {
              "pitch": 38,
              "velocity": 100,
              "position": 1.0,
              "duration": 0.208333
            },
            {
              "pitch": 39,
              "velocity": 100,
              "position": 1.0,
              "duration": 0.208333
            },
            {
              "pitch": 41,
              "velocity": 70,
              "position": 1.0,
              "duration": 0.208333
            },
            {
              "pitch": 42,
              "velocity": 100,
              "position": 1.0,
              "duration": 0.208333
            },
            {
              "pitch": 54,
              "velocity": 115,
              "position": 1.0,
              "duration": 0.208333
            },
            {
              "pitch": 70,
              "velocity": 100,
              "position": 1.0,
              "duration": 0.208333
            },
            {
              "pitch": 54,
              "velocity": 50,
              "position": 1.666667,
              "duration": 0.208333
            },
            {
              "pitch": 70,
              "velocity": 70,
              "position": 1.666667,
              "duration": 0.208333
            },
            {
              "pitch": 35,
              "velocity": 90,
              "position": 2.0,
              "duration": 0.208333
            },
            {
              "pitch": 41,
              "velocity": 80,
              "position": 2.0,
              "duration": 0.208333
            },
            {
              "pitch": 42,
              "velocity": 90,
              "position": 2.0,
              "duration": 0.208333
            },
            {
              "pitch": 54,
              "velocity": 90,
              "position": 2.0,
              "duration": 0.208333
            },
            {
              "pitch": 70,
              "velocity": 100,
              "position": 2.0,
              "duration": 0.208333
            },
            {
              "pitch": 42,
              "velocity": 115,
              "position": 2.666667,
              "duration": 0.208333
            },
            {
              "pitch": 54,
              "velocity": 50,
              "position": 2.666667,
              "duration": 0.208333
            },
            {
              "pitch": 70,
              "velocity": 70,
              "position": 2.666667,
              "duration": 0.208333
            },
            {
              "pitch": 38,
              "velocity": 100,
              "position": 3.0,
              "duration": 0.208333
            },
            {
              "pitch": 39,
              "velocity": 100,
              "position": 3.0,
              "duration": 0.208333
            },
            {
              "pitch": 42,
              "velocity": 100,
              "position": 3.0,
              "duration": 0.208333
            },
            {
              "pitch": 54,
              "velocity": 115,
              "position": 3.0,
              "duration": 0.208333
            },
            {
              "pitch": 70,
              "velocity": 100,
              "position": 3.0,
              "duration": 0.208333
            },
            {
              "pitch": 35,
              "velocity": 60,
              "position": 3.666667,
              "duration": 0.208333
            },
            {
              "pitch": 41,
              "velocity": 70,
              "position": 3.666667,
              "duration": 0.208333
            },
            {
              "pitch": 54,
              "velocity": 50,
              "position": 3.666667,
              "duration": 0.208333
            },
            {
              "pitch": 70,
              "velocity": 70,
              "position": 3.666667,
              "duration": 0.208333
            },
            {
              "pitch": 42,
              "velocity": 90,
              "position": 4.0,
              "duration": 0.208333
            },
            {
              "pitch": 54,
              "velocity": 90,
              "position": 4.0,
              "duration": 0.208333
            },
            {
              "pitch": 70,
              "velocity": 100,
              "position": 4.0,
              "duration": 0.208333
            },
            {
              "pitch": 35,
              "velocity": 80,
              "position": 4.666667,
              "duration": 0.208333
            },
            {
              "pitch": 41,
              "velocity": 70,
              "position": 4.666667,
              "duration": 0.208333
            },
            {
              "pitch": 42,
              "velocity": 115,
              "position": 4.666667,
              "duration": 0.208333
            },
            {
              "pitch": 54,
              "velocity": 50,
              "position": 4.666667,
              "duration": 0.208333
            },
            {
              "pitch": 70,
              "velocity": 70,
              "position": 4.666667,
              "duration": 0.208333
            },
            {
              "pitch": 38,
              "velocity": 100,
              "position": 5.0,
              "duration": 0.208333
            },
            {
              "pitch": 39,
              "velocity": 100,
              "position": 5.0,
              "duration": 0.208333
            },
            {
              "pitch": 42,
              "velocity": 100,
              "position": 5.0,
              "duration": 0.208333
            },
            {
              "pitch": 54,
              "velocity": 115,
              "position": 5.0,
              "duration": 0.208333
            },
            {
              "pitch": 70,
              "velocity": 100,
              "position": 5.0,
              "duration": 0.208333
            },
            {
              "pitch": 35,
              "velocity": 80,
              "position": 5.666667,
              "duration": 0.208333
            },
            {
              "pitch": 41,
              "velocity": 60,
              "position": 5.666667,
              "duration": 0.208333
            },
            {
              "pitch": 54,
              "velocity": 50,
              "position": 5.666667,
              "duration": 0.208333
            },
            {
              "pitch": 70,
              "velocity": 70,
              "position": 5.666667,
              "duration": 0.208333
            },
            {
              "pitch": 35,
              "velocity": 90,
              "position": 6.0,
              "duration": 0.208333
            },
            {
              "pitch": 41,
              "velocity": 80,
              "position": 6.0,
              "duration": 0.208333
            },
            {
              "pitch": 42,
              "velocity": 90,
              "position": 6.0,
              "duration": 0.208333
            },
            {
              "pitch": 54,
              "velocity": 90,
              "position": 6.0,
              "duration": 0.208333
            },
            {
              "pitch": 70,
              "velocity": 100,
              "position": 6.0,
              "duration": 0.208333
            },
            {
              "pitch": 42,
              "velocity": 100,
              "position": 6.666667,
              "duration": 0.208333
            },
            {
              "pitch": 54,
              "velocity": 50,
              "position": 6.666667,
              "duration": 0.208333
            },
            {
              "pitch": 70,
              "velocity": 70,
              "position": 6.666667,
              "duration": 0.208333
            },
            {
              "pitch": 38,
              "velocity": 100,
              "position": 7.0,
              "duration": 0.208333
            },
            {
              "pitch": 39,
              "velocity": 100,
              "position": 7.0,
              "duration": 0.208333
            },
            {
              "pitch": 54,
              "velocity": 115,
              "position": 7.0,
              "duration": 0.208333
            },
            {
              "pitch": 70,
              "velocity": 100,
              "position": 7.0,
              "duration": 0.208333
            },
            {
              "pitch": 42,
              "velocity": 70,
              "position": 7.333333,
              "duration": 0.208333
            },
            {
              "pitch": 42,
              "velocity": 100,
              "position": 7.666667,
              "duration": 0.208333
            },
            {
              "pitch": 54,
              "velocity": 50,
              "position": 7.666667,
              "duration": 0.208333
            },
            {
              "pitch": 70,
              "velocity": 70,
              "position": 7.666667,
              "duration": 0.208333
            },
            {
              "pitch": 35,
              "velocity": 90,
              "position": 8.0,
              "duration": 0.208333
            },
            {
              "pitch": 42,
              "velocity": 90,
              "position": 8.0,
              "duration": 0.208333
            },
            {
              "pitch": 54,
              "velocity": 90,
              "position": 8.0,
              "duration": 0.208333
            },
            {
              "pitch": 70,
              "velocity": 100,
              "position": 8.0,
              "duration": 0.208333
            },
            {
              "pitch": 42,
              "velocity": 115,
              "position": 8.666667,
              "duration": 0.208333
            },
            {
              "pitch": 54,
              "velocity": 50,
              "position": 8.666667,
              "duration": 0.208333
            },
            {
              "pitch": 70,
              "velocity": 70,
              "position": 8.666667,
              "duration": 0.208333
            },
            {
              "pitch": 35,
              "velocity": 70,
              "position": 9.0,
              "duration": 0.208333
            },
            {
              "pitch": 38,
              "velocity": 115,
              "position": 9.0,
              "duration": 0.208333
            },
            {
              "pitch": 39,
              "velocity": 100,
              "position": 9.0,
              "duration": 0.208333
            },
            {
              "pitch": 41,
              "velocity": 80,
              "position": 9.0,
              "duration": 0.208333
            },
            {
              "pitch": 42,
              "velocity": 100,
              "position": 9.0,
              "duration": 0.208333
            },
            {
              "pitch": 54,
              "velocity": 115,
              "position": 9.0,
              "duration": 0.208333
            },
            {
              "pitch": 70,
              "velocity": 100,
              "position": 9.0,
              "duration": 0.208333
            },
            {
              "pitch": 54,
              "velocity": 50,
              "position": 9.666667,
              "duration": 0.208333
            },
            {
              "pitch": 70,
              "velocity": 70,
              "position": 9.666667,
              "duration": 0.208333
            },
            {
              "pitch": 35,
              "velocity": 100,
              "position": 10.0,
              "duration": 0.208333
            },
            {
              "pitch": 41,
              "velocity": 80,
              "position": 10.0,
              "duration": 0.208333
            },
            {
              "pitch": 42,
              "velocity": 90,
              "position": 10.0,
              "duration": 0.208333
            },
            {
              "pitch": 54,
              "velocity": 90,
              "position": 10.0,
              "duration": 0.208333
            },
            {
              "pitch": 70,
              "velocity": 100,
              "position": 10.0,
              "duration": 0.208333
            },
            {
              "pitch": 42,
              "velocity": 115,
              "position": 10.666667,
              "duration": 0.208333
            },
            {
              "pitch": 54,
              "velocity": 50,
              "position": 10.666667,
              "duration": 0.208333
            },
            {
              "pitch": 70,
              "velocity": 70,
              "position": 10.666667,
              "duration": 0.208333
            },
            {
              "pitch": 38,
              "velocity": 115,
              "position": 11.0,
              "duration": 0.208333
            },
            {
              "pitch": 39,
              "velocity": 100,
              "position": 11.0,
              "duration": 0.208333
            },
            {
              "pitch": 42,
              "velocity": 100,
              "position": 11.0,
              "duration": 0.208333
            },
            {
              "pitch": 54,
              "velocity": 115,
              "position": 11.0,
              "duration": 0.208333
            },
            {
              "pitch": 70,
              "velocity": 100,
              "position": 11.0,
              "duration": 0.208333
            },
            {
              "pitch": 35,
              "velocity": 70,
              "position": 11.666667,
              "duration": 0.208333
            },
            {
              "pitch": 41,
              "velocity": 60,
              "position": 11.666667,
              "duration": 0.208333
            },
            {
              "pitch": 54,
              "velocity": 50,
              "position": 11.666667,
              "duration": 0.208333
            },
            {
              "pitch": 70,
              "velocity": 70,
              "position": 11.666667,
              "duration": 0.208333
            },
            {
              "pitch": 35,
              "velocity": 90,
              "position": 12.0,
              "duration": 0.208333
            },
            {
              "pitch": 54,
              "velocity": 90,
              "position": 12.0,
              "duration": 0.208333
            },
            {
              "pitch": 38,
              "velocity": 70,
              "position": 12.666667,
              "duration": 0.208333
            },
            {
              "pitch": 54,
              "velocity": 50,
              "position": 12.666667,
              "duration": 0.208333
            },
            {
              "pitch": 38,
              "velocity": 90,
              "position": 13.0,
              "duration": 0.208333
            },
            {
              "pitch": 54,
              "velocity": 115,
              "position": 13.0,
              "duration": 0.208333
            },
            {
              "pitch": 38,
              "velocity": 60,
              "position": 13.333333,
              "duration": 0.208333
            },
            {
              "pitch": 38,
              "velocity": 80,
              "position": 13.666667,
              "duration": 0.208333
            },
            {
              "pitch": 54,
              "velocity": 50,
              "position": 13.666667,
              "duration": 0.208333
            },
            {
              "pitch": 35,
              "velocity": 90,
              "position": 14.0,
              "duration": 0.208333
            },
            {
              "pitch": 38,
              "velocity": 90,
              "position": 14.0,
              "duration": 0.208333
            },
            {
              "pitch": 54,
              "velocity": 90,
              "position": 14.0,
              "duration": 0.208333
            },
            {
              "pitch": 38,
              "velocity": 70,
              "position": 14.333333,
              "duration": 0.208333
            },
            {
              "pitch": 38,
              "velocity": 90,
              "position": 14.666667,
              "duration": 0.208333
            },
            {
              "pitch": 54,
              "velocity": 50,
              "position": 14.666667,
              "duration": 0.208333
            },
            {
              "pitch": 35,
              "velocity": 90,
              "position": 15.0,
              "duration": 0.208333
            },
            {
              "pitch": 38,
              "velocity": 100,
              "position": 15.0,
              "duration": 0.208333
            },
            {
              "pitch": 54,
              "velocity": 115,
              "position": 15.0,
              "duration": 0.208333
            },
            {
              "pitch": 38,
              "velocity": 80,
              "position": 15.333333,
              "duration": 0.208333
            },
            {
              "pitch": 38,
              "velocity": 70,
              "position": 15.666667,
              "duration": 0.208333
            },
            {
              "pitch": 54,
              "velocity": 50,
              "position": 15.666667,
              "duration": 0.208333
            }
          ]
        },
        "10": {
          "ctab": {
            "srcChannel": 10,
            "name": "Bass",
            "accType": "BASS",
            "editable": true,
            "mutedNotes": [],
            "mutedChords": [],
            "sourceChordNote": 0,
            "sourceChordType": "Maj7",
            "ctb2Main": {
              "ntr": "ROOT_TRANSPOSITION",
              "ntt": "BYPASS",
              "bassOn": true,
              "noteLowLimit": 20,
              "noteHighLimit": 60,
              "chordRootUpperLimit": 127,
              "rtr": "NOTE_GENERATOR"
            }
          },
          "notes": [
            {
              "pitch": 36,
              "velocity": 114,
              "position": 0.0,
              "duration": 0.466667
            },
            {
              "pitch": 24,
              "velocity": 80,
              "position": 0.666667,
              "duration": 0.358333
            },
            {
              "pitch": 36,
              "velocity": 121,
              "position": 1.025,
              "duration": 0.533333
            },
            {
              "pitch": 36,
              "velocity": 105,
              "position": 2.0,
              "duration": 1.241667
            },
            {
              "pitch": 36,
              "velocity": 100,
              "position": 3.666667,
              "duration": 0.691667
            },
            {
              "pitch": 36,
              "velocity": 110,
              "position": 4.666667,
              "duration": 0.358333
            },
            {
              "pitch": 36,
              "velocity": 107,
              "position": 5.666667,
              "duration": 0.25
            },
            {
              "pitch": 36,
              "velocity": 107,
              "position": 6.0,
              "duration": 0.458333
            },
            {
              "pitch": 36,
              "velocity": 103,
              "position": 7.0,
              "duration": 0.366667
            },
            {
              "pitch": 36,
              "velocity": 113,
              "position": 8.0,
              "duration": 0.416667
            },
            {
              "pitch": 36,
              "velocity": 104,
              "position": 9.0,
              "duration": 0.35
            },
            {
              "pitch": 36,
              "velocity": 113,
              "position": 10.0,
              "duration": 1.591667
            },
            {
              "pitch": 24,
              "velocity": 89,
              "position": 11.666667,
              "duration": 0.158333
            },
            {
              "pitch": 36,
              "velocity": 106,
              "position": 12.0,
              "duration": 0.433333
            },
            {
              "pitch": 36,
              "velocity": 100,
              "position": 12.666667,
              "duration": 0.258333
            },
            {
              "pitch": 36,
              "velocity": 113,
              "position": 13.666667,
              "duration": 0.45
            },
            {
              "pitch": 24,
              "velocity": 92,
              "position": 14.666667,
              "duration": 0.15
            },
            {
              "pitch": 36,
              "velocity": 118,
              "position": 15.0,
              "duration": 0.366667
            }
          ]
        },
        "11": {
          "ctab": {
            "srcChannel": 11,
            "name": "Piano",
            "accType": "CHORD1",
            "editable": true,
            "mutedNotes": [],
            "mutedChords": [],
            "sourceChordNote": 0,
            "sourceChordType": "Maj7",
            "ctb2Main": {
              "ntr": "ROOT_FIXED",
              "ntt": "CHORD",
              "bassOn": false,
              "noteLowLimit": 48,
              "noteHighLimit": 84,
              "chordRootUpperLimit": 127,
              "rtr": "NOTE_GENERATOR"
            }
          },
          "notes": [
            {
              "pitch": 67,
              "velocity": 71,
              "position": 0.008333,
              "duration": 0.358333
            },
            {
              "pitch": 60,
              "velocity": 71,
              "position": 0.966667,
              "duration": 0.425
            },
            {
              "pitch": 64,
              "velocity": 71,
              "position": 0.991667,
              "duration": 0.4
            },
            {
              "pitch": 67,
              "velocity": 71,
              "position": 1.008333,
              "duration": 0.383333
            },
            {
              "pitch": 48,
              "velocity": 73,
              "position": 2.0,
              "duration": 0.433333
            },
            {
              "pitch": 59,
              "velocity": 74,
              "position": 2.0,
              "duration": 0.433333
            },
            {
              "pitch": 48,
              "velocity": 57,
              "position": 3.0,
              "duration": 0.325
            },
            {
              "pitch": 59,
              "velocity": 81,
              "position": 3.0,
              "duration": 0.375
            },
            {
              "pitch": 48,
              "velocity": 43,
              "position": 3.666667,
              "duration": 0.708333
            },
            {
              "pitch": 59,
              "velocity": 81,
              "position": 3.666667,
              "duration": 0.666667
            },
            {
              "pitch": 48,
              "velocity": 71,
              "position": 4.666667,
              "duration": 0.266667
            },
            {
              "pitch": 59,
              "velocity": 85,
              "position": 4.666667,
              "duration": 0.266667
            },
            {
              "pitch": 48,
              "velocity": 53,
              "position": 5.666667,
              "duration": 0.225
            },
            {
              "pitch": 48,
              "velocity": 65,
              "position": 6.0,
              "duration": 0.308333
            },
            {
              "pitch": 59,
              "velocity": 85,
              "position": 6.0,
              "duration": 0.375
            },
            {
              "pitch": 48,
              "velocity": 46,
              "position": 6.666667,
              "duration": 0.316667
            },
            {
              "pitch": 48,
              "velocity": 65,
              "position": 7.0,
              "duration": 0.408333
            },
            {
              "pitch": 59,
              "velocity": 92,
              "position": 7.0,
              "duration": 0.5
            },
            {
              "pitch": 48,
              "velocity": 73,
              "position": 8.0,
              "duration": 0.808333
            },
            {
              "pitch": 60,
              "velocity": 74,
              "position": 8.0,
              "duration": 0.6
            },
            {
              "pitch": 60,
              "velocity": 72,
              "position": 8.975,
              "duration": 0.35
            },
            {
              "pitch": 64,
              "velocity": 72,
              "position": 8.991667,
              "duration": 0.333333
            },
            {
              "pitch": 67,
              "velocity": 72,
              "position": 9.008333,
              "duration": 0.316667
            },
            {
              "pitch": 71,
              "velocity": 72,
              "position": 9.016667,
              "duration": 0.308333
            },
            {
              "pitch": 60,
              "velocity": 60,
              "position": 9.975,
              "duration": 0.333333
            },
            {
              "pitch": 64,
              "velocity": 60,
              "position": 9.991667,
              "duration": 0.316667
            },
            {
              "pitch": 67,
              "velocity": 60,
              "position": 10.008333,
              "duration": 0.3
            },
            {
              "pitch": 71,
              "velocity": 60,
              "position": 10.016667,
              "duration": 0.291667
            },
            {
              "pitch": 48,
              "velocity": 52,
              "position": 11.666667,
              "duration": 0.583333
            },
            {
              "pitch": 60,
              "velocity": 81,
              "position": 11.666667,
              "duration": 0.333333
            },
            {
              "pitch": 60,
              "velocity": 68,
              "position": 12.641667,
              "duration": 0.291667
            },
            {
              "pitch": 64,
              "velocity": 68,
              "position": 12.658333,
              "duration": 0.275
            },
            {
              "pitch": 67,
              "velocity": 68,
              "position": 12.675,
              "duration": 0.258333
            },
            {
              "pitch": 71,
              "velocity": 68,
              "position": 12.683333,
              "duration": 0.25
            },
            {
              "pitch": 48,
              "velocity": 45,
              "position": 13.666667,
              "duration": 0.516667
            },
            {
              "pitch": 60,
              "velocity": 64,
              "position": 13.975,
              "duration": 0.433333
            },
            {
              "pitch": 64,
              "velocity": 64,
              "position": 13.991667,
              "duration": 0.416667
            },
            {
              "pitch": 67,
              "velocity": 64,
              "position": 14.008333,
              "duration": 0.4
            },
            {
              "pitch": 71,
              "velocity": 64,
              "position": 14.016667,
              "duration": 0.391667
            },
            {
              "pitch": 60,
              "velocity": 72,
              "position": 14.975,
              "duration": 0.358333
            },
            {
              "pitch": 64,
              "velocity": 72,
              "position": 14.991667,
              "duration": 0.341667
            },
            {
              "pitch": 67,
              "velocity": 72,
              "position": 15.008333,
              "duration": 0.325
            },
            {
              "pitch": 71,
              "velocity": 72,
              "position": 15.016667,
              "duration": 0.316667
            },
            {
              "pitch": 59,
              "velocity": 71,
              "position": 15.966667,
              "duration": 0.4
            }
          ]
        },
        "12": {
          "ctab": {
            "srcChannel": 12,
            "name": "Guitar",
            "accType": "CHORD2",
            "editable": true,
            "mutedNotes": [],
            "mutedChords": [],
            "sourceChordNote": 0,
            "sourceChordType": "Maj7",
            "ctb2Main": {
              "ntr": "ROOT_FIXED",
              "ntt": "CHORD",
              "bassOn": false,
              "noteLowLimit": 40,
              "noteHighLimit": 76,
              "chordRootUpperLimit": 127,
              "rtr": "NOTE_GENERATOR"
            }
          },
          "notes": [
            {
              "pitch": 60,
              "velocity": 89,
              "position": 0.991667,
              "duration": 0.233333
            },
            {
              "pitch": 64,
              "velocity": 89,
              "position": 1.008333,
              "duration": 0.216667
            },
            {
              "pitch": 67,
              "velocity": 89,
              "position": 1.025,
              "duration": 0.2
            },
            {
              "pitch": 71,
              "velocity": 89,
              "position": 1.033333,
              "duration": 0.191667
            },
            {
              "pitch": 60,
              "velocity": 89,
              "position": 2.975,
              "duration": 0.208333
            },
            {
              "pitch": 64,
              "velocity": 89,
              "position": 2.991667,
              "duration": 0.191667
            },
            {
              "pitch": 67,
              "velocity": 89,
              "position": 3.008333,
              "duration": 0.175
            },
            {
              "pitch": 71,
              "velocity": 89,
              "position": 3.016667,
              "duration": 0.166667
            },
            {
              "pitch": 59,
              "velocity": 89,
              "position": 4.991667,
              "duration": 0.233333
            },
            {
              "pitch": 64,
              "velocity": 89,
              "position": 5.008333,
              "duration": 0.216667
            },
            {
              "pitch": 67,
              "velocity": 89,
              "position": 5.033333,
              "duration": 0.191667
            },
            {
              "pitch": 60,
              "velocity": 89,
              "position": 6.991667,
              "duration": 0.233333
            },
            {
              "pitch": 64,
              "velocity": 89,
              "position": 7.008333,
              "duration": 0.216667
            },
            {
              "pitch": 67,
              "velocity": 89,
              "position": 7.025,
              "duration": 0.2
            },
            {
              "pitch": 71,
              "velocity": 89,
              "position": 7.033333,
              "duration": 0.191667
            },
            {
              "pitch": 59,
              "velocity": 89,
              "position": 8.991667,
              "duration": 0.233333
            },
            {
              "pitch": 64,
              "velocity": 89,
              "position": 9.008333,
              "duration": 0.216667
            },
            {
              "pitch": 67,
              "velocity": 89,
              "position": 9.033333,
              "duration": 0.191667
            },
            {
              "pitch": 59,
              "velocity": 89,
              "position": 10.991667,
              "duration": 0.241667
            },
            {
              "pitch": 64,
              "velocity": 89,
              "position": 11.008333,
              "duration": 0.225
            },
            {
              "pitch": 67,
              "velocity": 89,
              "position": 11.033333,
              "duration": 0.2
            },
            {
              "pitch": 59,
              "velocity": 89,
              "position": 12.991667,
              "duration": 0.216667
            },
            {
              "pitch": 64,
              "velocity": 89,
              "position": 13.008333,
              "duration": 0.2
            },
            {
              "pitch": 67,
              "velocity": 89,
              "position": 13.033333,
              "duration": 0.175
            },
            {
              "pitch": 59,
              "velocity": 89,
              "position": 14.991667,
              "duration": 0.258333
            },
            {
              "pitch": 64,
              "velocity": 89,
              "position": 15.008333,
              "duration": 0.241667
            },
            {
              "pitch": 67,
              "velocity": 89,
              "position": 15.033333,
              "duration": 0.216667
            }
          ]
        },
        "13": {
          "ctab": {
            "srcChannel": 13,
            "name": "Strings",
            "accType": "PAD",
            "editable": true,
            "mutedNotes": [],
            "mutedChords": [],
            "sourceChordNote": 0,
            "sourceChordType": "Maj7",
            "ctb2Main": {
              "ntr": "ROOT_FIXED",
              "ntt": "MELODY",
              "bassOn": false,
              "noteLowLimit": 36,
              "noteHighLimit": 96,
              "chordRootUpperLimit": 127,
              "rtr": "PITCH_SHIFT"
            }
          },
          "notes": []
        }
      }
    },
    "Fill_In_AA": {
      "type": "Fill_In_AA",
      "sizeInBeats": 16,
      "channels": {
        "9": {
          "ctab": {
            "srcChannel": 9,
            "name": "Drums",
            "accType": "RHYTHM",
            "editable": false,
            "mutedNotes": [],
            "mutedChords": [],
            "sourceChordNote": 0,
            "sourceChordType": "Maj",
            "ctb2Main": {
              "ntr": "ROOT_FIXED",
              "ntt": "BYPASS",
              "bassOn": false,
              "noteLowLimit": 20,
              "noteHighLimit": 127,
              "chordRootUpperLimit": 127,
              "rtr": "RETRIGGER"
            }
          },
          "notes": [
            {
              "pitch": 35,
              "velocity": 90,
              "position": 0.0,
              "duration": 0.208333
            },
            {
              "pitch": 42,
              "velocity": 90,
              "position": 0.0,
              "duration": 0.208333
            },
            {
              "pitch": 49,
              "velocity": 90,
              "position": 0.0,
              "duration": 0.208333
            },
            {
              "pitch": 54,
              "velocity": 90,
              "position": 0.0,
              "duration": 0.208333
            },
            {
              "pitch": 70,
              "velocity": 100,
              "position": 0.0,
              "duration": 0.208333
            },
            {
              "pitch": 42,
              "velocity": 115,
              "position": 0.666667,
              "duration": 0.208333
            },
            {
              "pitch": 54,
              "velocity": 50,
              "position": 0.666667,
              "duration": 0.208333
            },
            {
              "pitch": 70,
              "velocity": 70,
              "position": 0.666667,
              "duration": 0.208333
            },
            {
              "pitch": 35,
              "velocity": 80,
              "position": 1.0,
              "duration": 0.208333
            },
            {
              "pitch": 38,
              "velocity": 100,
              "position": 1.0,
              "duration": 0.208333
            },
            {
              "pitch": 39,
              "velocity": 100,
              "position": 1.0,
              "duration": 0.208333
            },
            {
              "pitch": 41,
              "velocity": 70,
              "position": 1.0,
              "duration": 0.208333
            },
            {
              "pitch": 42,
              "velocity": 100,
              "position": 1.0,
              "duration": 0.208333
            },
            {
              "pitch": 54,
              "velocity": 115,
              "position": 1.0,
              "duration": 0.208333
            },
            {
              "pitch": 70,
              "velocity": 100,
              "position": 1.0,
              "duration": 0.208333
            },
            {
              "pitch": 54,
              "velocity": 50,
              "position": 1.666667,
              "duration": 0.208333
            },
            {
              "pitch": 70,
              "velocity": 70,
              "position": 1.666667,
              "duration": 0.208333
            },
            {
              "pitch": 35,
              "velocity": 90,
              "position": 2.0,
              "duration": 0.208333
            },
            {
              "pitch": 41,
              "velocity": 80,
              "position": 2.0,
              "duration": 0.208333
            },
            {
              "pitch": 42,
              "velocity": 90,
              "position": 2.0,
              "duration": 0.208333
            },
            {
              "pitch": 54,
              "velocity": 90,
              "position": 2.0,
              "duration": 0.208333
            },
            {
              "pitch": 70,
              "velocity": 100,
              "position": 2.0,
              "duration": 0.208333
            },
            {
              "pitch": 42,
              "velocity": 115,
              "position": 2.666667,
              "duration": 0.208333
            },
            {
              "pitch": 54,
              "velocity": 50,
              "position": 2.666667,
              "duration": 0.208333
            },
            {
              "pitch": 70,
              "velocity": 70,
              "position": 2.666667,
              "duration": 0.208333
            },
            {
              "pitch": 38,
              "velocity": 100,
              "position": 3.0,
              "duration": 0.208333
            },
            {
              "pitch": 39,
              "velocity": 100,
              "position": 3.0,
              "duration": 0.208333
            },
            {
              "pitch": 42,
              "velocity": 100,
              "position": 3.0,
              "duration": 0.208333
            },
            {
              "pitch": 54,
              "velocity": 115,
              "position": 3.0,
              "duration": 0.208333
            },
            {
              "pitch": 70,
              "velocity": 100,
              "position": 3.0,
              "duration": 0.208333
            },
            {
              "pitch": 35,
              "velocity": 60,
              "position": 3.666667,
              "duration": 0.208333
            },
            {
              "pitch": 41,
              "velocity": 70,
              "position": 3.666667,
              "duration": 0.208333
            },
            {
              "pitch": 42,
              "velocity": 60,
              "position": 3.666667,
              "duration": 0.208333
            },
            {
              "pitch": 54,
              "velocity": 50,
              "position": 3.666667,
              "duration": 0.208333
            },
            {
              "pitch": 70,
              "velocity": 70,
              "position": 3.666667,
              "duration": 0.208333
            },
            {
              "pitch": 42,
              "velocity": 90,
              "position": 4.0,
              "duration": 0.208333
            },
            {
              "pitch": 54,
              "velocity": 90,
              "position": 4.0,
              "duration": 0.208333
            },
            {
              "pitch": 70,
              "velocity": 100,
              "position": 4.0,
              "duration": 0.208333
            },
            {
              "pitch": 35,
              "velocity": 80,
              "position": 4.666667,
              "duration": 0.208333
            },
            {
              "pitch": 41,
              "velocity": 70,
              "position": 4.666667,
              "duration": 0.208333
            },
            {
              "pitch": 42,
              "velocity": 115,
              "position": 4.666667,
              "duration": 0.208333
            },
            {
              "pitch": 54,
              "velocity": 50,
              "position": 4.666667,
              "duration": 0.208333
            },
            {
              "pitch": 70,
              "velocity": 70,
              "position": 4.666667,
              "duration": 0.208333
            },
            {
              "pitch": 38,
              "velocity": 100,
              "position": 5.0,
              "duration": 0.208333
            },
            {
              "pitch": 39,
              "velocity": 100,
              "position": 5.0,
              "duration": 0.208333
            },
            {
              "pitch": 42,
              "velocity": 100,
              "position": 5.0,
              "duration": 0.208333
            },
            {
              "pitch": 54,
              "velocity": 115,
              "position": 5.0,
              "duration": 0.208333
            },
            {
              "pitch": 70,
              "velocity": 100,
              "position": 5.0,
              "duration": 0.208333
            },
            {
              "pitch": 35,
              "velocity": 80,
              "position": 5.666667,
              "duration": 0.208333
            },
            {
              "pitch": 41,
              "velocity": 60,
              "position": 5.666667,
              "duration": 0.208333
            },
            {
              "pitch": 54,
              "velocity": 50,
              "position": 5.666667,
              "duration": 0.208333
            },
            {
              "pitch": 70,
              "velocity": 70,
              "position": 5.666667,
              "duration": 0.208333
            },
            {
              "pitch": 35,
              "velocity": 90,
              "position": 6.0,
              "duration": 0.208333
            },
            {
              "pitch": 41,
              "velocity": 80,
              "position": 6.0,
              "duration": 0.208333
            },
            {
              "pitch": 42,
              "velocity": 90,
              "position": 6.0,
              "duration": 0.208333
            },
            {
              "pitch": 54,
              "velocity": 90,
              "position": 6.0,
              "duration": 0.208333
            },
            {
              "pitch": 70,
              "velocity": 100,
              "position": 6.0,
              "duration": 0.208333
            },
            {
              "pitch": 42,
              "velocity": 100,
              "position": 6.666667,
              "duration": 0.208333
            },
            {
              "pitch": 54,
              "velocity": 50,
              "position": 6.666667,
              "duration": 0.208333
            },
            {
              "pitch": 70,
              "velocity": 70,
              "position": 6.666667,
              "duration": 0.208333
            },
            {
              "pitch": 38,
              "velocity": 100,
              "position": 7.0,
              "duration": 0.208333
            },
            {
              "pitch": 39,
              "velocity": 100,
              "position": 7.0,
              "duration": 0.208333
            },
            {
              "pitch": 54,
              "velocity": 115,
              "position": 7.0,
              "duration": 0.208333
            },
            {
              "pitch": 70,
              "velocity": 100,
              "position": 7.0,
              "duration": 0.208333
            },
            {
              "pitch": 42,
              "velocity": 70,
              "position": 7.333333,
              "duration": 0.208333
            },
            {
              "pitch": 42,
              "velocity": 100,
              "position": 7.666667,
              "duration": 0.208333
            },
            {
              "pitch": 54,
              "velocity": 50,
              "position": 7.666667,
              "duration": 0.208333
            },
            {
              "pitch": 70,
              "velocity": 70,
              "position": 7.666667,
              "duration": 0.208333
            },
            {
              "pitch": 35,
              "velocity": 80,
              "position": 8.0,
              "duration": 0.208333
            },
            {
              "pitch": 42,
              "velocity": 90,
              "position": 8.0,
              "duration": 0.208333
            },
            {
              "pitch": 54,
              "velocity": 90,
              "position": 8.0,
              "duration": 0.208333
            },
            {
              "pitch": 70,
              "velocity": 100,
              "position": 8.0,
              "duration": 0.208333
            },
            {
              "pitch": 42,
              "velocity": 115,
              "position": 8.666667,
              "duration": 0.208333
            },
            {
              "pitch": 54,
              "velocity": 50,
              "position": 8.666667,
              "duration": 0.208333
            },
            {
              "pitch": 70,
              "velocity": 70,
              "position": 8.666667,
              "duration": 0.208333
            },
            {
              "pitch": 35,
              "velocity": 80,
              "position": 9.0,
              "duration": 0.208333
            },
            {
              "pitch": 38,
              "velocity": 90,
              "position": 9.0,
              "duration": 0.208333
            },
            {
              "pitch": 39,
              "velocity": 100,
              "position": 9.0,
              "duration": 0.208333
            },
            {
              "pitch": 41,
              "velocity": 70,
              "position": 9.0,
              "duration": 0.208333
            },
            {
              "pitch": 42,
              "velocity": 100,
              "position": 9.0,
              "duration": 0.208333
            },
            {
              "pitch": 54,
              "velocity": 115,
              "position": 9.0,
              "duration": 0.208333
            },
            {
              "pitch": 70,
              "velocity": 100,
              "position": 9.0,
              "duration": 0.208333
            },
            {
              "pitch": 54,
              "velocity": 50,
              "position": 9.666667,
              "duration": 0.208333
            },
            {
              "pitch": 70,
              "velocity": 70,
              "position": 9.666667,
              "duration": 0.208333
            },
            {
              "pitch": 35,
              "velocity": 80,
              "position": 10.0,
              "duration": 0.208333
            },
            {
              "pitch": 41,
              "velocity": 80,
              "position": 10.0,
              "duration": 0.208333
            },
            {
              "pitch": 42,
              "velocity": 90,
              "position": 10.0,
              "duration": 0.208333
            },
            {
              "pitch": 54,
              "velocity": 90,
              "position": 10.0,
              "duration": 0.208333
            },
            {
              "pitch": 70,
              "velocity": 100,
              "position": 10.0,
              "duration": 0.208333
            },
            {
              "pitch": 46,
              "velocity": 90,
              "position": 10.666667,
              "duration": 0.208333
            },
            {
              "pitch": 54,
              "velocity": 50,
              "position": 10.666667,
              "duration": 0.208333
            },
            {
              "pitch": 70,
              "velocity": 70,
              "position": 10.666667,
              "duration": 0.208333
            },
            {
              "pitch": 38,
              "velocity": 100,
              "position": 11.0,
              "duration": 0.208333
            },
            {
              "pitch": 39,
              "velocity": 100,
              "position": 11.0,
              "duration": 0.208333
            },
            {
              "pitch": 42,
              "velocity": 100,
              "position": 11.0,
              "duration": 0.208333
            },
            {
              "pitch": 54,
              "velocity": 115,
              "position": 11.0,
              "duration": 0.208333
            },
            {
              "pitch": 70,
              "velocity": 100,
              "position": 11.0,
              "duration": 0.208333
            },
            {
              "pitch": 35,
              "velocity": 60,
              "position": 11.666667,
              "duration": 0.208333
            },
            {
              "pitch": 41,
              "velocity": 60,
              "position": 11.666667,
              "duration": 0.208333
            },
            {
              "pitch": 42,
              "velocity": 60,
              "position": 11.666667,
              "duration": 0.208333
            },
            {
              "pitch": 54,
              "velocity": 50,
              "position": 11.666667,
              "duration": 0.208333
            },
            {
              "pitch": 70,
              "velocity": 70,
              "position": 11.666667,
              "duration": 0.208333
            },
            {
              "pitch": 35,
              "velocity": 90,
              "position": 12.0,
              "duration": 0.208333
            },
            {
              "pitch": 54,
              "velocity": 90,
              "position": 12.0,
              "duration": 0.208333
            },
            {
              "pitch": 38,
              "velocity": 70,
              "position": 12.666667,
              "duration": 0.208333
            },
            {
              "pitch": 54,
              "velocity": 50,
              "position": 12.666667,
              "duration": 0.208333
            },
            {
              "pitch": 38,
              "velocity": 90,
              "position": 13.0,
              "duration": 0.208333
            },
            {
              "pitch": 54,
              "velocity": 115,
              "position": 13.0,
              "duration": 0.208333
            },
            {
              "pitch": 38,
              "velocity": 60,
              "position": 13.333333,
              "duration": 0.208333
            },
            {
              "pitch": 38,
              "velocity": 80,
              "position": 13.666667,
              "duration": 0.208333
            },
            {
              "pitch": 54,
              "velocity": 50,
              "position": 13.666667,
              "duration": 0.208333
            },
            {
              "pitch": 35,
              "velocity": 90,
              "position": 14.0,
              "duration": 0.208333
            },
            {
              "pitch": 38,
              "velocity": 90,
              "position": 14.0,
              "duration": 0.208333
            },
            {
              "pitch": 54,
              "velocity": 90,
              "position": 14.0,
              "duration": 0.208333
            },
            {
              "pitch": 38,
              "velocity": 70,
              "position": 14.333333,
              "duration": 0.208333
            },
            {
              "pitch": 38,
              "velocity": 90,
              "position": 14.666667,
              "duration": 0.208333
            },
            {
              "pitch": 54,
              "velocity": 50,
              "position": 14.666667,
              "duration": 0.208333
            },
            {
              "pitch": 35,
              "velocity": 90,
              "position": 15.0,
              "duration": 0.208333
            },
            {
              "pitch": 38,
              "velocity": 100,
              "position": 15.0,
              "duration": 0.208333
            },
            {
              "pitch": 54,
              "velocity": 115,
              "position": 15.0,
              "duration": 0.208333
            },
            {
              "pitch": 38,
              "velocity": 80,
              "position": 15.333333,
              "duration": 0.208333
            },
            {
              "pitch": 38,
              "velocity": 70,
              "position": 15.666667,
              "duration": 0.208333
            },
            {
              "pitch": 54,
              "velocity": 50,
              "position": 15.666667,
              "duration": 0.208333
            }
          ]
        },
        "10": {
          "ctab": {
            "srcChannel": 10,
            "name": "Bass",
            "accType": "BASS",
            "editable": true,
            "mutedNotes": [],
            "mutedChords": [],
            "sourceChordNote": 0,
            "sourceChordType": "Maj7",
            "ctb2Main": {
              "ntr": "ROOT_TRANSPOSITION",
              "ntt": "BYPASS",
              "bassOn": true,
              "noteLowLimit": 20,
              "noteHighLimit": 60,
              "chordRootUpperLimit": 127,
              "rtr": "NOTE_GENERATOR"
            }
          },
          "notes": [
            {
              "pitch": 36,
              "velocity": 114,
              "position": 0.0,
              "duration": 0.466667
            },
            {
              "pitch": 24,
              "velocity": 80,
              "position": 0.666667,
              "duration": 0.358333
            },
            {
              "pitch": 36,
              "velocity": 121,
              "position": 1.025,
              "duration": 0.533333
            },
            {
              "pitch": 36,
              "velocity": 105,
              "position": 2.0,
              "duration": 1.241667
            },
            {
              "pitch": 36,
              "velocity": 98,
              "position": 3.666667,
              "duration": 0.775
            },
            {
              "pitch": 36,
              "velocity": 109,
              "position": 4.666667,
              "duration": 0.233333
            },
            {
              "pitch": 36,
              "velocity": 109,
              "position": 5.666667,
              "duration": 0.233333
            },
            {
              "pitch": 36,
              "velocity": 107,
              "position": 6.0,
              "duration": 0.458333
            },
            {
              "pitch": 36,
              "velocity": 103,
              "position": 7.0,
              "duration": 0.366667
            },
            {
              "pitch": 36,
              "velocity": 106,
              "position": 8.0,
              "duration": 0.358333
            },
            {
              "pitch": 36,
              "velocity": 113,
              "position": 9.0,
              "duration": 0.316667
            },
            {
              "pitch": 36,
              "velocity": 113,
              "position": 10.0,
              "duration": 1.141667
            },
            {
              "pitch": 36,
              "velocity": 113,
              "position": 11.666667,
              "duration": 0.283333
            },
            {
              "pitch": 36,
              "velocity": 113,
              "position": 12.666667,
              "duration": 0.283333
            },
            {
              "pitch": 31,
              "velocity": 74,
              "position": 13.666667,
              "duration": 0.258333
            },
            {
              "pitch": 36,
              "velocity": 110,
              "position": 14.0,
              "duration": 0.425
            },
            {
              "pitch": 36,
              "velocity": 99,
              "position": 15.0,
              "duration": 0.441667
            }
          ]
        },
        "11": {
          "ctab": {
            "srcChannel": 11,
            "name": "Piano",
            "accType": "CHORD1",
            "editable": true,
            "mutedNotes": [],
            "mutedChords": [],
            "sourceChordNote": 0,
            "sourceChordType": "Maj7",
            "ctb2Main": {
              "ntr": "ROOT_FIXED",
              "ntt": "CHORD",
              "bassOn": false,
              "noteLowLimit": 48,
              "noteHighLimit": 84,
              "chordRootUpperLimit": 127,
              "rtr": "NOTE_GENERATOR"
            }
          },
          "notes": [
            {
              "pitch": 64,
              "velocity": 71,
              "position": 0.0,
              "duration": 0.366667
            },
            {
              "pitch": 59,
              "velocity": 71,
              "position": 0.966667,
              "duration": 0.425
            },
            {
              "pitch": 64,
              "velocity": 71,
              "position": 1.0,
              "duration": 0.391667
            },
            {
              "pitch": 60,
              "velocity": 71,
              "position": 1.966667,
              "duration": 0.591667
            },
            {
              "pitch": 64,
              "velocity": 71,
              "position": 1.991667,
              "duration": 0.566667
            },
            {
              "pitch": 67,
              "velocity": 71,
              "position": 2.008333,
              "duration": 0.55
            },
            {
              "pitch": 48,
              "velocity": 43,
              "position": 3.666667,
              "duration": 0.708333
            },
            {
              "pitch": 60,
              "velocity": 81,
              "position": 3.666667,
              "duration": 0.666667
            },
            {
              "pitch": 48,
              "velocity": 71,
              "position": 4.666667,
              "duration": 0.266667
            },
            {
              "pitch": 60,
              "velocity": 85,
              "position": 4.666667,
              "duration": 0.266667
            },
            {
              "pitch": 48,
              "velocity": 53,
              "position": 5.666667,
              "duration": 0.225
            },
            {
              "pitch": 48,
              "velocity": 65,
              "position": 6.0,
              "duration": 0.308333
            },
            {
              "pitch": 60,
              "velocity": 85,
              "position": 6.0,
              "duration": 0.375
            },
            {
              "pitch": 48,
              "velocity": 46,
              "position": 6.666667,
              "duration": 0.316667
            },
            {
              "pitch": 48,
              "velocity": 65,
              "position": 7.0,
              "duration": 0.408333
            },
            {
              "pitch": 60,
              "velocity": 92,
              "position": 7.0,
              "duration": 0.5
            },
            {
              "pitch": 48,
              "velocity": 52,
              "position": 8.0,
              "duration": 0.416667
            },
            {
              "pitch": 59,
              "velocity": 65,
              "position": 8.0,
              "duration": 0.35
            },
            {
              "pitch": 48,
              "velocity": 39,
              "position": 8.666667,
              "duration": 0.366667
            },
            {
              "pitch": 59,
              "velocity": 77,
              "position": 9.016667,
              "duration": 0.308333
            },
            {
              "pitch": 64,
              "velocity": 77,
              "position": 9.05,
              "duration": 0.275
            },
            {
              "pitch": 59,
              "velocity": 82,
              "position": 10.008333,
              "duration": 0.341667
            },
            {
              "pitch": 64,
              "velocity": 82,
              "position": 10.041667,
              "duration": 0.308333
            },
            {
              "pitch": 59,
              "velocity": 82,
              "position": 11.675,
              "duration": 0.266667
            },
            {
              "pitch": 64,
              "velocity": 82,
              "position": 11.708333,
              "duration": 0.233333
            },
            {
              "pitch": 59,
              "velocity": 76,
              "position": 12.666667,
              "duration": 0.216667
            },
            {
              "pitch": 64,
              "velocity": 76,
              "position": 12.7,
              "duration": 0.183333
            },
            {
              "pitch": 48,
              "velocity": 51,
              "position": 13.7,
              "duration": 0.241667
            },
            {
              "pitch": 59,
              "velocity": 79,
              "position": 14.016667,
              "duration": 0.391667
            },
            {
              "pitch": 64,
              "velocity": 79,
              "position": 14.05,
              "duration": 0.358333
            },
            {
              "pitch": 48,
              "velocity": 46,
              "position": 14.691667,
              "duration": 0.208333
            },
            {
              "pitch": 59,
              "velocity": 76,
              "position": 15.008333,
              "duration": 0.391667
            },
            {
              "pitch": 64,
              "velocity": 76,
              "position": 15.041667,
              "duration": 0.358333
            }
          ]
        },
        "12": {
          "ctab": {
            "srcChannel": 12,
            "name": "Guitar",
            "accType": "CHORD2",
            "editable": true,
            "mutedNotes": [],
            "mutedChords": [],
            "sourceChordNote": 0,
            "sourceChordType": "Maj7",
            "ctb2Main": {
              "ntr": "ROOT_FIXED",
              "ntt": "CHORD",
              "bassOn": false,
              "noteLowLimit": 40,
              "noteHighLimit": 76,
              "chordRootUpperLimit": 127,
              "rtr": "NOTE_GENERATOR"
            }
          },
          "notes": [
            {
              "pitch": 59,
              "velocity": 89,
              "position": 0.991667,
              "duration": 0.233333
            },
            {
              "pitch": 64,
              "velocity": 89,
              "position": 1.008333,
              "duration": 0.216667
            },
            {
              "pitch": 67,
              "velocity": 89,
              "position": 1.033333,
              "duration": 0.191667
            },
            {
              "pitch": 60,
              "velocity": 89,
              "position": 2.975,
              "duration": 0.208333
            },
            {
              "pitch": 64,
              "velocity": 89,
              "position": 2.991667,
              "duration": 0.191667
            },
            {
              "pitch": 67,
              "velocity": 89,
              "position": 3.008333,
              "duration": 0.175
            },
            {
              "pitch": 71,
              "velocity": 89,
              "position": 3.016667,
              "duration": 0.166667
            },
            {
              "pitch": 60,
              "velocity": 89,
              "position": 4.991667,
              "duration": 0.233333
            },
            {
              "pitch": 64,
              "velocity": 89,
              "position": 5.008333,
              "duration": 0.216667
            },
            {
              "pitch": 67,
              "velocity": 89,
              "position": 5.025,
              "duration": 0.2
            },
            {
              "pitch": 71,
              "velocity": 89,
              "position": 5.033333,
              "duration": 0.191667
            },
            {
              "pitch": 60,
              "velocity": 89,
              "position": 6.975,
              "duration": 0.208333
            },
            {
              "pitch": 64,
              "velocity": 89,
              "position": 6.991667,
              "duration": 0.191667
            },
            {
              "pitch": 67,
              "velocity": 89,
              "position": 7.008333,
              "duration": 0.175
            },
            {
              "pitch": 71,
              "velocity": 89,
              "position": 7.016667,
              "duration": 0.166667
            },
            {
              "pitch": 59,
              "velocity": 89,
              "position": 8.975,
              "duration": 0.208333
            },
            {
              "pitch": 64,
              "velocity": 89,
              "position": 8.991667,
              "duration": 0.191667
            },
            {
              "pitch": 67,
              "velocity": 89,
              "position": 9.016667,
              "duration": 0.166667
            },
            {
              "pitch": 59,
              "velocity": 89,
              "position": 10.975,
              "duration": 0.225
            },
            {
              "pitch": 64,
              "velocity": 89,
              "position": 10.991667,
              "duration": 0.208333
            },
            {
              "pitch": 67,
              "velocity": 89,
              "position": 11.016667,
              "duration": 0.183333
            },
            {
              "pitch": 59,
              "velocity": 89,
              "position": 12.975,
              "duration": 0.216667
            },
            {
              "pitch": 64,
              "velocity": 89,
              "position": 12.991667,
              "duration": 0.2
            },
            {
              "pitch": 67,
              "velocity": 89,
              "position": 13.016667,
              "duration": 0.175
            },
            {
              "pitch": 59,
              "velocity": 89,
              "position": 14.975,
              "duration": 0.233333
            },
            {
              "pitch": 64,
              "velocity": 89,
              "position": 14.991667,
              "duration": 0.216667
            },
            {
              "pitch": 67,
              "velocity": 89,
              "position": 15.016667,
              "duration": 0.191667
            }
          ]
        },
        "13": {
          "ctab": {
            "srcChannel": 13,
            "name": "Strings",
            "accType": "PAD",
            "editable": true,
            "mutedNotes": [],
            "mutedChords": [],
            "sourceChordNote": 0,
            "sourceChordType": "Maj7",
            "ctb2Main": {
              "ntr": "ROOT_FIXED",
              "ntt": "MELODY",
              "bassOn": false,
              "noteLowLimit": 36,
              "noteHighLimit": 96,
              "chordRootUpperLimit": 127,
              "rtr": "PITCH_SHIFT"
            }
          },
          "notes": []
        }
      }
    },
    "Ending_A": {
      "type": "Ending_A",
      "sizeInBeats": 16,
      "channels": {
        "9": {
          "ctab": {
            "srcChannel": 9,
            "name": "Drums",
            "accType": "RHYTHM",
            "editable": false,
            "mutedNotes": [],
            "mutedChords": [],
            "sourceChordNote": 0,
            "sourceChordType": "Maj",
            "ctb2Main": {
              "ntr": "ROOT_FIXED",
              "ntt": "BYPASS",
              "bassOn": false,
              "noteLowLimit": 20,
              "noteHighLimit": 127,
              "chordRootUpperLimit": 127,
              "rtr": "RETRIGGER"
            }
          },
          "notes": [
            {
              "pitch": 35,
              "velocity": 80,
              "position": 0.0,
              "duration": 0.208333
            },
            {
              "pitch": 38,
              "velocity": 70,
              "position": 0.0,
              "duration": 0.208333
            },
            {
              "pitch": 49,
              "velocity": 80,
              "position": 0.0,
              "duration": 0.208333
            },
            {
              "pitch": 54,
              "velocity": 90,
              "position": 0.0,
              "duration": 0.208333
            },
            {
              "pitch": 42,
              "velocity": 115,
              "position": 0.666667,
              "duration": 0.208333
            },
            {
              "pitch": 54,
              "velocity": 50,
              "position": 0.666667,
              "duration": 0.208333
            },
            {
              "pitch": 35,
              "velocity": 80,
              "position": 1.0,
              "duration": 0.208333
            },
            {
              "pitch": 38,
              "velocity": 90,
              "position": 1.0,
              "duration": 0.208333
            },
            {
              "pitch": 42,
              "velocity": 100,
              "position": 1.0,
              "duration": 0.208333
            },
            {
              "pitch": 54,
              "velocity": 115,
              "position": 1.0,
              "duration": 0.208333
            },
            {
              "pitch": 54,
              "velocity": 50,
              "position": 1.666667,
              "duration": 0.208333
            },
            {
              "pitch": 35,
              "velocity": 90,
              "position": 2.0,
              "duration": 0.208333
            },
            {
              "pitch": 42,
              "velocity": 90,
              "position": 2.0,
              "duration": 0.208333
            },
            {
              "pitch": 54,
              "velocity": 90,
              "position": 2.0,
              "duration": 0.208333
            },
            {
              "pitch": 42,
              "velocity": 115,
              "position": 2.666667,
              "duration": 0.208333
            },
            {
              "pitch": 54,
              "velocity": 50,
              "position": 2.666667,
              "duration": 0.208333
            },
            {
              "pitch": 38,
              "velocity": 100,
              "position": 3.0,
              "duration": 0.208333
            },
            {
              "pitch": 42,
              "velocity": 100,
              "position": 3.0,
              "duration": 0.208333
            },
            {
              "pitch": 54,
              "velocity": 115,
              "position": 3.0,
              "duration": 0.208333
            },
            {
              "pitch": 35,
              "velocity": 70,
              "position": 3.666667,
              "duration": 0.208333
            },
            {
              "pitch": 54,
              "velocity": 50,
              "position": 3.666667,
              "duration": 0.208333
            },
            {
              "pitch": 42,
              "velocity": 90,
              "position": 4.0,
              "duration": 0.208333
            },
            {
              "pitch": 54,
              "velocity": 90,
              "position": 4.0,
              "duration": 0.208333
            },
            {
              "pitch": 35,
              "velocity": 100,
              "position": 4.666667,
              "duration": 0.208333
            },
            {
              "pitch": 42,
              "velocity": 115,
              "position": 4.666667,
              "duration": 0.208333
            },
            {
              "pitch": 54,
              "velocity": 50,
              "position": 4.666667,
              "duration": 0.208333
            },
            {
              "pitch": 38,
              "velocity": 90,
              "position": 5.0,
              "duration": 0.208333
            },
            {
              "pitch": 42,
              "velocity": 100,
              "position": 5.0,
              "duration": 0.208333
            },
            {
              "pitch": 54,
              "velocity": 115,
              "position": 5.0,
              "duration": 0.208333
            },
            {
              "pitch": 35,
              "velocity": 80,
              "position": 5.666667,
              "duration": 0.208333
            },
            {
              "pitch": 54,
              "velocity": 50,
              "position": 5.666667,
              "duration": 0.208333
            },
            {
              "pitch": 35,
              "velocity": 100,
              "position": 6.0,
              "duration": 0.208333
            },
            {
              "pitch": 42,
              "velocity": 90,
              "position": 6.0,
              "duration": 0.208333
            },
            {
              "pitch": 54,
              "velocity": 90,
              "position": 6.0,
              "duration": 0.208333
            },
            {
              "pitch": 42,
              "velocity": 100,
              "position": 6.666667,
              "duration": 0.208333
            },
            {
              "pitch": 54,
              "velocity": 50,
              "position": 6.666667,
              "duration": 0.208333
            },
            {
              "pitch": 38,
              "velocity": 100,
              "position": 7.0,
              "duration": 0.208333
            },
            {
              "pitch": 54,
              "velocity": 115,
              "position": 7.0,
              "duration": 0.208333
            },
            {
              "pitch": 42,
              "velocity": 100,
              "position": 7.666667,
              "duration": 0.208333
            },
            {
              "pitch": 54,
              "velocity": 50,
              "position": 7.666667,
              "duration": 0.208333
            },
            {
              "pitch": 35,
              "velocity": 90,
              "position": 8.0,
              "duration": 0.208333
            },
            {
              "pitch": 42,
              "velocity": 90,
              "position": 8.0,
              "duration": 0.208333
            },
            {
              "pitch": 54,
              "velocity": 90,
              "position": 8.0,
              "duration": 0.208333
            },
            {
              "pitch": 42,
              "velocity": 115,
              "position": 8.666667,
              "duration": 0.208333
            },
            {
              "pitch": 54,
              "velocity": 50,
              "position": 8.666667,
              "duration": 0.208333
            },
            {
              "pitch": 35,
              "velocity": 100,
              "position": 9.0,
              "duration": 0.208333
            },
            {
              "pitch": 38,
              "velocity": 90,
              "position": 9.0,
              "duration": 0.208333
            },
            {
              "pitch": 42,
              "velocity": 100,
              "position": 9.0,
              "duration": 0.208333
            },
            {
              "pitch": 54,
              "velocity": 115,
              "position": 9.0,
              "duration": 0.208333
            },
            {
              "pitch": 54,
              "velocity": 50,
              "position": 9.666667,
              "duration": 0.208333
            },
            {
              "pitch": 35,
              "velocity": 90,
              "position": 10.0,
              "duration": 0.208333
            },
            {
              "pitch": 42,
              "velocity": 90,
              "position": 10.0,
              "duration": 0.208333
            },
            {
              "pitch": 54,
              "velocity": 90,
              "position": 10.0,
              "duration": 0.208333
            },
            {
              "pitch": 46,
              "velocity": 90,
              "position": 10.666667,
              "duration": 0.208333
            },
            {
              "pitch": 54,
              "velocity": 50,
              "position": 10.666667,
              "duration": 0.208333
            },
            {
              "pitch": 38,
              "velocity": 100,
              "position": 11.0,
              "duration": 0.208333
            },
            {
              "pitch": 42,
              "velocity": 100,
              "position": 11.0,
              "duration": 0.208333
            },
            {
              "pitch": 54,
              "velocity": 115,
              "position": 11.0,
              "duration": 0.208333
            },
            {
              "pitch": 35,
              "velocity": 80,
              "position": 11.666667,
              "duration": 0.208333
            },
            {
              "pitch": 42,
              "velocity": 60,
              "position": 11.666667,
              "duration": 0.208333
            },
            {
              "pitch": 54,
              "velocity": 50,
              "position": 11.666667,
              "duration": 0.208333
            },
            {
              "pitch": 38,
              "velocity": 90,
              "position": 12.0,
              "duration": 0.208333
            },
            {
              "pitch": 54,
              "velocity": 90,
              "position": 12.0,
              "duration": 0.208333
            },
            {
              "pitch": 38,
              "velocity": 70,
              "position": 12.333333,
              "duration": 0.208333
            },
            {
              "pitch": 35,
              "velocity": 90,
              "position": 12.666667,
              "duration": 0.208333
            },
            {
              "pitch": 42,
              "velocity": 115,
              "position": 12.666667,
              "duration": 0.208333
            },
            {
              "pitch": 54,
              "velocity": 50,
              "position": 12.666667,
              "duration": 0.208333
            },
            {
              "pitch": 38,
              "velocity": 90,
              "position": 13.0,
              "duration": 0.208333
            },
            {
              "pitch": 54,
              "velocity": 115,
              "position": 13.0,
              "duration": 0.208333
            },
            {
              "pitch": 38,
              "velocity": 70,
              "position": 13.333333,
              "duration": 0.208333
            },
            {
              "pitch": 35,
              "velocity": 90,
              "position": 13.666667,
              "duration": 0.208333
            },
            {
              "pitch": 54,
              "velocity": 50,
              "position": 13.666667,
              "duration": 0.208333
            },
            {
              "pitch": 35,
              "velocity": 100,
              "position": 14.0,
              "duration": 0.208333
            },
            {
              "pitch": 42,
              "velocity": 90,
              "position": 14.0,
              "duration": 0.208333
            },
            {
              "pitch": 54,
              "velocity": 90,
              "position": 14.0,
              "duration": 0.208333
            },
            {
              "pitch": 38,
              "velocity": 80,
              "position": 14.333333,
              "duration": 0.208333
            },
            {
              "pitch": 38,
              "velocity": 70,
              "position": 14.666667,
              "duration": 0.208333
            },
            {
              "pitch": 54,
              "velocity": 50,
              "position": 14.666667,
              "duration": 0.208333
            },
            {
              "pitch": 38,
              "velocity": 100,
              "position": 15.0,
              "duration": 0.208333
            },
            {
              "pitch": 54,
              "velocity": 115,
              "position": 15.0,
              "duration": 0.208333
            },
            {
              "pitch": 38,
              "velocity": 70,
              "position": 15.333333,
              "duration": 0.208333
            },
            {
              "pitch": 38,
              "velocity": 90,
              "position": 15.666667,
              "duration": 0.208333
            },
            {
              "pitch": 54,
              "velocity": 50,
              "position": 15.666667,
              "duration": 0.208333
            }
          ]
        },
        "10": {
          "ctab": {
            "srcChannel": 10,
            "name": "Bass",
            "accType": "BASS",
            "editable": true,
            "mutedNotes": [],
            "mutedChords": [],
            "sourceChordNote": 0,
            "sourceChordType": "Maj7",
            "ctb2Main": {
              "ntr": "ROOT_TRANSPOSITION",
              "ntt": "BYPASS",
              "bassOn": true,
              "noteLowLimit": 20,
              "noteHighLimit": 60,
              "chordRootUpperLimit": 127,
              "rtr": "NOTE_GENERATOR"
            }
          },
          "notes": [
            {
              "pitch": 36,
              "velocity": 89,
              "position": 0.0,
              "duration": 0.45
            },
            {
              "pitch": 36,
              "velocity": 105,
              "position": 1.0,
              "duration": 0.383333
            },
            {
              "pitch": 36,
              "velocity": 102,
              "position": 2.0,
              "duration": 1.241667
            },
            {
              "pitch": 36,
              "velocity": 99,
              "position": 3.666667,
              "duration": 0.775
            },
            {
              "pitch": 36,
              "velocity": 110,
              "position": 4.666667,
              "duration": 0.233333
            },
            {
              "pitch": 36,
              "velocity": 110,
              "position": 5.666667,
              "duration": 0.233333
            },
            {
              "pitch": 36,
              "velocity": 102,
              "position": 6.0,
              "duration": 0.458333
            },
            {
              "pitch": 36,
              "velocity": 98,
              "position": 7.0,
              "duration": 0.366667
            },
            {
              "pitch": 36,
              "velocity": 98,
              "position": 8.0,
              "duration": 0.391667
            },
            {
              "pitch": 36,
              "velocity": 98,
              "position": 9.0,
              "duration": 0.416667
            },
            {
              "pitch": 36,
              "velocity": 102,
              "position": 10.0,
              "duration": 1.583333
            },
            {
              "pitch": 36,
              "velocity": 102,
              "position": 11.666667,
              "duration": 0.75
            },
            {
              "pitch": 36,
              "velocity": 100,
              "position": 12.666667,
              "duration": 0.275
            },
            {
              "pitch": 31,
              "velocity": 67,
              "position": 13.666667,
              "duration": 0.333333
            },
            {
              "pitch": 36,
              "velocity": 85,
              "position": 14.0,
              "duration": 0.45
            },
            {
              "pitch": 31,
              "velocity": 67,
              "position": 14.666667,
              "duration": 0.158333
            },
            {
              "pitch": 36,
              "velocity": 100,
              "position": 15.0,
              "duration": 0.475
            }
          ]
        },
        "11": {
          "ctab": {
            "srcChannel": 11,
            "name": "Piano",
            "accType": "CHORD1",
            "editable": true,
            "mutedNotes": [],
            "mutedChords": [],
            "sourceChordNote": 0,
            "sourceChordType": "Maj7",
            "ctb2Main": {
              "ntr": "ROOT_FIXED",
              "ntt": "CHORD",
              "bassOn": false,
              "noteLowLimit": 48,
              "noteHighLimit": 84,
              "chordRootUpperLimit": 127,
              "rtr": "NOTE_GENERATOR"
            }
          },
          "notes": [
            {
              "pitch": 48,
              "velocity": 73,
              "position": 0.0,
              "duration": 0.433333
            },
            {
              "pitch": 59,
              "velocity": 74,
              "position": 0.0,
              "duration": 0.433333
            },
            {
              "pitch": 48,
              "velocity": 57,
              "position": 1.0,
              "duration": 0.325
            },
            {
              "pitch": 59,
              "velocity": 81,
              "position": 1.0,
              "duration": 0.458333
            },
            {
              "pitch": 60,
              "velocity": 71,
              "position": 1.966667,
              "duration": 0.591667
            },
            {
              "pitch": 64,
              "velocity": 71,
              "position": 1.991667,
              "duration": 0.566667
            },
            {
              "pitch": 67,
              "velocity": 71,
              "position": 2.008333,
              "duration": 0.55
            },
            {
              "pitch": 48,
              "velocity": 43,
              "position": 3.666667,
              "duration": 0.708333
            },
            {
              "pitch": 59,
              "velocity": 81,
              "position": 3.666667,
              "duration": 0.666667
            },
            {
              "pitch": 48,
              "velocity": 71,
              "position": 4.666667,
              "duration": 0.266667
            },
            {
              "pitch": 59,
              "velocity": 85,
              "position": 4.666667,
              "duration": 0.266667
            },
            {
              "pitch": 48,
              "velocity": 53,
              "position": 5.666667,
              "duration": 0.225
            },
            {
              "pitch": 48,
              "velocity": 65,
              "position": 6.0,
              "duration": 0.308333
            },
            {
              "pitch": 60,
              "velocity": 85,
              "position": 6.0,
              "duration": 0.375
            },
            {
              "pitch": 48,
              "velocity": 46,
              "position": 6.666667,
              "duration": 0.316667
            },
            {
              "pitch": 48,
              "velocity": 65,
              "position": 7.0,
              "duration": 0.408333
            },
            {
              "pitch": 60,
              "velocity": 92,
              "position": 7.0,
              "duration": 0.5
            },
            {
              "pitch": 48,
              "velocity": 73,
              "position": 8.0,
              "duration": 0.433333
            },
            {
              "pitch": 59,
              "velocity": 74,
              "position": 8.0,
              "duration": 0.433333
            },
            {
              "pitch": 48,
              "velocity": 57,
              "position": 9.0,
              "duration": 0.325
            },
            {
              "pitch": 59,
              "velocity": 81,
              "position": 9.0,
              "duration": 0.458333
            },
            {
              "pitch": 48,
              "velocity": 48,
              "position": 10.0,
              "duration": 0.308333
            },
            {
              "pitch": 59,
              "velocity": 88,
              "position": 10.0,
              "duration": 0.433333
            },
            {
              "pitch": 55,
              "velocity": 71,
              "position": 12.0,
              "duration": 0.458333
            },
            {
              "pitch": 64,
              "velocity": 70,
              "position": 12.633333,
              "duration": 0.358333
            },
            {
              "pitch": 67,
              "velocity": 70,
              "position": 12.666667,
              "duration": 0.325
            },
            {
              "pitch": 55,
              "velocity": 39,
              "position": 13.666667,
              "duration": 0.391667
            },
            {
              "pitch": 64,
              "velocity": 75,
              "position": 13.966667,
              "duration": 0.475
            },
            {
              "pitch": 67,
              "velocity": 75,
              "position": 14.0,
              "duration": 0.441667
            },
            {
              "pitch": 64,
              "velocity": 82,
              "position": 14.966667,
              "duration": 0.5
            },
            {
              "pitch": 67,
              "velocity": 82,
              "position": 15.0,
              "duration": 0.466667
            },
            {
              "pitch": 59,
              "velocity": 59,
              "position": 15.966667,
              "duration": 4.05
            }
          ]
        },
        "12": {
          "ctab": {
            "srcChannel": 12,
            "name": "Guitar",
            "accType": "CHORD2",
            "editable": true,
            "mutedNotes": [],
            "mutedChords": [],
            "sourceChordNote": 0,
            "sourceChordType": "Maj7",
            "ctb2Main": {
              "ntr": "ROOT_FIXED",
              "ntt": "CHORD",
              "bassOn": false,
              "noteLowLimit": 40,
              "noteHighLimit": 76,
              "chordRootUpperLimit": 127,
              "rtr": "NOTE_GENERATOR"
            }
          },
          "notes": [
            {
              "pitch": 60,
              "velocity": 81,
              "position": 0.975,
              "duration": 0.208333
            },
            {
              "pitch": 64,
              "velocity": 81,
              "position": 0.991667,
              "duration": 0.191667
            },
            {
              "pitch": 67,
              "velocity": 81,
              "position": 1.008333,
              "duration": 0.175
            },
            {
              "pitch": 71,
              "velocity": 81,
              "position": 1.016667,
              "duration": 0.166667
            },
            {
              "pitch": 60,
              "velocity": 81,
              "position": 2.975,
              "duration": 0.208333
            },
            {
              "pitch": 64,
              "velocity": 81,
              "position": 2.991667,
              "duration": 0.191667
            },
            {
              "pitch": 67,
              "velocity": 81,
              "position": 3.008333,
              "duration": 0.175
            },
            {
              "pitch": 71,
              "velocity": 81,
              "position": 3.016667,
              "duration": 0.166667
            },
            {
              "pitch": 59,
              "velocity": 81,
              "position": 4.975,
              "duration": 0.208333
            },
            {
              "pitch": 64,
              "velocity": 81,
              "position": 4.991667,
              "duration": 0.191667
            },
            {
              "pitch": 67,
              "velocity": 81,
              "position": 5.016667,
              "duration": 0.166667
            },
            {
              "pitch": 59,
              "velocity": 81,
              "position": 6.975,
              "duration": 0.208333
            },
            {
              "pitch": 64,
              "velocity": 81,
              "position": 6.991667,
              "duration": 0.191667
            },
            {
              "pitch": 67,
              "velocity": 81,
              "position": 7.016667,
              "duration": 0.166667
            },
            {
              "pitch": 60,
              "velocity": 81,
              "position": 8.975,
              "duration": 0.208333
            },
            {
              "pitch": 64,
              "velocity": 81,
              "position": 8.991667,
              "duration": 0.191667
            },
            {
              "pitch": 67,
              "velocity": 81,
              "position": 9.008333,
              "duration": 0.175
            },
            {
              "pitch": 71,
              "velocity": 81,
              "position": 9.016667,
              "duration": 0.166667
            },
            {
              "pitch": 60,
              "velocity": 81,
              "position": 10.975,
              "duration": 0.225
            },
            {
              "pitch": 64,
              "velocity": 81,
              "position": 10.991667,
              "duration": 0.208333
            },
            {
              "pitch": 67,
              "velocity": 81,
              "position": 11.008333,
              "duration": 0.191667
            },
            {
              "pitch": 71,
              "velocity": 81,
              "position": 11.016667,
              "duration": 0.183333
            },
            {
              "pitch": 59,
              "velocity": 81,
              "position": 12.991667,
              "duration": 0.233333
            },
            {
              "pitch": 64,
              "velocity": 81,
              "position": 13.008333,
              "duration": 0.216667
            },
            {
              "pitch": 67,
              "velocity": 81,
              "position": 13.033333,
              "duration": 0.191667
            },
            {
              "pitch": 59,
              "velocity": 81,
              "position": 14.991667,
              "duration": 0.241667
            },
            {
              "pitch": 64,
              "velocity": 81,
              "position": 15.008333,
              "duration": 0.225
            },
            {
              "pitch": 67,
              "velocity": 81,
              "position": 15.033333,
              "duration": 0.2
            }
          ]
        },
        "13": {
          "ctab": {
            "srcChannel": 13,
            "name": "Strings",
            "accType": "PAD",
            "editable": true,
            "mutedNotes": [],
            "mutedChords": [],
            "sourceChordNote": 0,
            "sourceChordType": "Maj7",
            "ctb2Main": {
              "ntr": "ROOT_FIXED",
              "ntt": "MELODY",
              "bassOn": false,
              "noteLowLimit": 36,
              "noteHighLimit": 96,
              "chordRootUpperLimit": 127,
              "rtr": "PITCH_SHIFT"
            }
          },
          "notes": []
        }
      }
    }
  }
}