{
  "name": "Mozart Classical Style",
  "tempo": 120,
  "timeSignature": "4/4",
  "ticksPerQuarter": 120,
  "sffType": "SFF1",
  "division": "BINARY",
  "channelPrograms": {
    "9": 0,
    "10": 43,
    "11": 48,
    "12": 6,
    "13": 44
  },
  "parts": {
    "Intro_A": {
      "type": "Intro_A",
      "sizeInBeats": 24,
      "channels": {
        "9": {
          "ctab": {
            "srcChannel": 9,
            "name": "Drums",
            "accType": "RHYTHM",
            "editable": false,
            "mutedNotes": [],
            "mutedChords": [],
            "sourceChordNote": 0,
            "sourceChordType": "Maj",
            "ctb2Main": {
              "ntr": "ROOT_FIXED",
              "ntt": "BYPASS",
              "bassOn": false,
              "noteLowLimit": 20,
              "noteHighLimit": 127,
              "chordRootUpperLimit": 127,
              "rtr": "RETRIGGER"
            }
          },
          "notes": [
            {
              "pitch": 37,
              "velocity": 84,
              "position": 0.0,
              "duration": 1.0
            },
            {
              "pitch": 37,
              "velocity": 84,
              "position": 2.0,
              "duration": 1.0
            },
            {
              "pitch": 37,
              "velocity": 64,
              "position": 4.0,
              "duration": 1.0
            },
            {
              "pitch": 37,
              "velocity": 84,
              "position": 5.0,
              "duration": 1.0
            },
            {
              "pitch": 37,
              "velocity": 64,
              "position": 6.0,
              "duration": 1.0
            },
            {
              "pitch": 37,
              "velocity": 84,
              "position": 7.0,
              "duration": 1.0
            }
          ]
        },
        "10": {
          "ctab": {
            "srcChannel": 10,
            "name": "Bass",
            "accType": "BASS",
            "editable": true,
            "mutedNotes": [],
            "mutedChords": [],
            "sourceChordNote": 0,
            "sourceChordType": "Maj7",
            "ctb2Main": {
              "ntr": "ROOT_TRANSPOSITION",
              "ntt": "BYPASS",
              "bassOn": true,
              "noteLowLimit": 20,
              "noteHighLimit": 60,
              "chordRootUpperLimit": 127,
              "rtr": "NOTE_GENERATOR"
            }
          },
          "notes": [
            {
              "pitch": 36,
              "velocity": 49,
              "position": 8.0,
              "duration": 1.65
            },
            {
              "pitch": 48,
              "velocity": 38,
              "position": 8.5,
              "duration": 0.183333
            },
            {
              "pitch": 48,
              "velocity": 40,
              "position": 9.0,
              "duration": 0.2
            },
            {
              "pitch": 48,
              "velocity": 49,
              "position": 9.5,
              "duration": 0.458333
            },
            {
              "pitch": 36,
              "velocity": 49,
              "position": 10.0,
              "duration": 1.65
            },
            {
              "pitch": 48,
              "velocity": 38,
              "position": 10.5,
              "duration": 0.183333
            },
            {
              "pitch": 48,
              "velocity": 40,
              "position": 11.0,
              "duration": 0.2
            },
            {
              "pitch": 48,
              "velocity": 49,
              "position": 11.5,
              "duration": 0.458333
            },
            {
              "pitch": 36,
              "velocity": 49,
              "position": 12.0,
              "duration": 1.65
            },
            {
              "pitch": 48,
              "velocity": 38,
              "position": 12.5,
              "duration": 0.183333
            },
            {
              "pitch": 48,
              "velocity": 40,
              "position": 13.0,
              "duration": 0.2
            },
            {
              "pitch": 48,
              "velocity": 49,
              "position": 13.5,
              "duration": 0.458333
            },
            {
              "pitch": 36,
              "velocity": 49,
              "position": 14.0,
              "duration": 1.65
            },
            {
              "pitch": 48,
              "velocity": 38,
              "position": 14.5,
              "duration": 0.183333
            },
            {
              "pitch": 48,
              "velocity": 40,
              "position": 15.0,
              "duration": 0.2
            },
            {
              "pitch": 48,
              "velocity": 49,
              "position": 15.5,
              "duration": 0.458333
            },
            {
              "pitch": 36,
              "velocity": 49,
              "position": 16.0,
              "duration": 1.65
            },
            {
              "pitch": 48,
              "velocity": 38,
              "position": 16.5,
              "duration": 0.183333
            },
            {
              "pitch": 48,
              "velocity": 40,
              "position": 17.0,
              "duration": 0.2
            },
            {
              "pitch": 48,
              "velocity": 49,
              "position": 17.5,
              "duration": 0.625
            },
            {
              "pitch": 36,
              "velocity": 49,
              "position": 18.0,
              "duration": 1.658333
            },
            {
              "pitch": 48,
              "velocity": 38,
              "position": 18.5,
              "duration": 0.191667
            },
            {
              "pitch": 48,
              "velocity": 38,
              "position": 19.0,
              "duration": 0.183333
            },
            {
              "pitch": 48,
              "velocity": 49,
              "position": 19.5,
              "duration": 0.658333
            },
            {
              "pitch": 36,
              "velocity": 53,
              "position": 20.0,
              "duration": 1.533333
            },
            {
              "pitch": 48,
              "velocity": 32,
              "position": 20.5,
              "duration": 0.183333
            },
            {
              "pitch": 48,
              "velocity": 39,
              "position": 21.0,
              "duration": 0.15
            },
            {
              "pitch": 48,
              "velocity": 51,
              "position": 21.5,
              "duration": 0.6
            },
            {
              "pitch": 36,
              "velocity": 54,
              "position": 22.0,
              "duration": 1.958333
            },
            {
              "pitch": 48,
              "velocity": 35,
              "position": 22.5,
              "duration": 0.15
            },
            {
              "pitch": 48,
              "velocity": 39,
              "position": 23.0,
              "duration": 0.125
            },
            {
              "pitch": 48,
              "velocity": 50,
              "position": 23.5,
              "duration": 0.3
            }
          ]
        },
        "11": {
          "ctab": {
            "srcChannel": 11,
            "name": "Piano",
            "accType": "CHORD1",
            "editable": true,
            "mutedNotes": [],
            "mutedChords": [],
            "sourceChordNote": 0,
            "sourceChordType": "Maj7",
            "ctb2Main": {
              "ntr": "ROOT_FIXED",
              "ntt": "CHORD",
              "bassOn": false,
              "noteLowLimit": 48,
              "noteHighLimit": 84,
              "chordRootUpperLimit": 127,
              "rtr": "NOTE_GENERATOR"
            }
          },
          "notes": [
            {
              "pitch": 59,
              "velocity": 48,
              "position": 8.0,
              "duration": 131.733333
            },
            {
              "pitch": 62,
              "velocity": 48,
              "position": 8.0,
              "duration": 131.733333
            },
            {
              "pitch": 64,
              "velocity": 48,
              "position": 8.0,
              "duration": 131.733333
            },
            {
              "pitch": 67,
              "velocity": 48,
              "position": 8.0,
              "duration": 131.733333
            }
          ]
        },
        "12": {
          "ctab": {
            "srcChannel": 12,
            "name": "Guitar",
            "accType": "CHORD2",
            "editable": true,
            "mutedNotes": [],
            "mutedChords": [],
            "sourceChordNote": 0,
            "sourceChordType": "Maj7",
            "ctb2Main": {
              "ntr": "ROOT_FIXED",
              "ntt": "CHORD",
              "bassOn": false,
              "noteLowLimit": 40,
              "noteHighLimit": 76,
              "chordRootUpperLimit": 127,
              "rtr": "NOTE_GENERATOR"
            }
          },
          "notes": [
            {
              "pitch": 48,
              "velocity": 52,
              "position": 8.0,
              "duration": 2.0
            },
            {
              "pitch": 64,
              "velocity": 51,
              "position": 8.0,
              "duration": 0.733333
            },
            {
              "pitch": 55,
              "velocity": 41,
              "position": 8.5,
              "duration": 1.5
            },
            {
              "pitch": 59,
              "velocity": 45,
              "position": 9.0,
              "duration": 1.0
            },
            {
              "pitch": 64,
              "velocity": 52,
              "position": 9.5,
              "duration": 0.5
            },
            {
              "pitch": 48,
              "velocity": 52,
              "position": 10.0,
              "duration": 2.0
            },
            {
              "pitch": 64,
              "velocity": 51,
              "position": 10.0,
              "duration": 0.733333
            },
            {
              "pitch": 55,
              "velocity": 41,
              "position": 10.5,
              "duration": 1.5
            },
            {
              "pitch": 59,
              "velocity": 45,
              "position": 11.0,
              "duration": 1.0
            },
            {
              "pitch": 64,
              "velocity": 52,
              "position": 11.5,
              "duration": 0.5
            },
            {
              "pitch": 48,
              "velocity": 59,
              "position": 12.0,
              "duration": 2.0
            },
            {
              "pitch": 55,
              "velocity": 47,
              "position": 12.5,
              "duration": 1.5
            },
            {
              "pitch": 59,
              "velocity": 40,
              "position": 13.0,
              "duration": 1.0
            },
            {
              "pitch": 64,
              "velocity": 47,
              "position": 13.5,
              "duration": 0.5
            },
            {
              "pitch": 48,
              "velocity": 52,
              "position": 14.0,
              "duration": 2.0
            },
            {
              "pitch": 64,
              "velocity": 51,
              "position": 14.0,
              "duration": 0.733333
            },
            {
              "pitch": 55,
              "velocity": 41,
              "position": 14.5,
              "duration": 1.5
            },
            {
              "pitch": 59,
              "velocity": 45,
              "position": 15.0,
              "duration": 1.0
            },
            {
              "pitch": 64,
              "velocity": 52,
              "position": 15.5,
              "duration": 0.5
            },
            {
              "pitch": 48,
              "velocity": 56,
              "position": 16.0,
              "duration": 3.466667
            },
            {
              "pitch": 55,
              "velocity": 55,
              "position": 16.5,
              "duration": 2.633333
            },
            {
              "pitch": 59,
              "velocity": 40,
              "position": 17.0,
              "duration": 1.5
            },
            {
              "pitch": 64,
              "velocity": 51,
              "position": 17.5,
              "duration": 0.6
            },
            {
              "pitch": 67,
              "velocity": 55,
              "position": 18.0,
              "duration": 3.316667
            },
            {
              "pitch": 64,
              "velocity": 51,
              "position": 18.5,
              "duration": 2.375
            },
            {
              "pitch": 59,
              "velocity": 44,
              "position": 19.0,
              "duration": 1.475
            },
            {
              "pitch": 55,
              "velocity": 40,
              "position": 19.5,
              "duration": 0.616667
            },
            {
              "pitch": 48,
              "velocity": 61,
              "position": 20.0,
              "duration": 3.983333
            },
            {
              "pitch": 55,
              "velocity": 45,
              "position": 20.5,
              "duration": 2.658333
            },
            {
              "pitch": 59,
              "velocity": 44,
              "position": 21.0,
              "duration": 1.358333
            },
            {
              "pitch": 64,
              "velocity": 48,
              "position": 21.5,
              "duration": 0.633333
            },
            {
              "pitch": 67,
              "velocity": 53,
              "position": 22.0,
              "duration": 2.0
            },
            {
              "pitch": 64,
              "velocity": 45,
              "position": 22.5,
              "duration": 1.5
            },
            {
              "pitch": 59,
              "velocity": 44,
              "position": 23.0,
              "duration": 1.0
            },
            {
              "pitch": 55,
              "velocity": 43,
              "position": 23.5,
              "duration": 0.483333
            }
          ]
        },
        "13": {
          "ctab": {
            "srcChannel": 13,
            "name": "Strings",
            "accType": "PAD",
            "editable": true,
            "mutedNotes": [],
            "mutedChords": [],
            "sourceChordNote": 0,
            "sourceChordType": "Maj7",
            "ctb2Main": {
              "ntr": "ROOT_FIXED",
              "ntt": "MELODY",
              "bassOn": false,
              "noteLowLimit": 36,
              "noteHighLimit": 96,
              "chordRootUpperLimit": 127,
              "rtr": "PITCH_SHIFT"
            }
          },
          "notes": []
        }
      }
    },
    "Main_A": {
      "type": "Main_A",
      "sizeInBeats": 16,
      "channels": {
        "9": {
          "ctab": {
            "srcChannel": 9,
            "name": "Drums",
            "accType": "RHYTHM",
            "editable": false,
            "mutedNotes": [],
            "mutedChords": [],
            "sourceChordNote": 0,
            "sourceChordType": "Maj",
            "ctb2Main": {
              "ntr": "ROOT_FIXED",
              "ntt": "BYPASS",
              "bassOn": false,
              "noteLowLimit": 20,
              "noteHighLimit": 127,
              "chordRootUpperLimit": 127,
              "rtr": "RETRIGGER"
            }
          },
          "notes": []
        },
        "10": {
          "ctab": {
            "srcChannel": 10,
            "name": "Bass",
            "accType": "BASS",
            "editable": true,
            "mutedNotes": [],
            "mutedChords": [],
            "sourceChordNote": 0,
            "sourceChordType": "Maj7",
            "ctb2Main": {
              "ntr": "ROOT_TRANSPOSITION",
              "ntt": "BYPASS",
              "bassOn": true,
              "noteLowLimit": 20,
              "noteHighLimit": 60,
              "chordRootUpperLimit": 127,
              "rtr": "NOTE_GENERATOR"
            }
          },
          "notes": [
            {
              "pitch": 36,
              "velocity": 57,
              "position": 0.0,
              "duration": 1.65
            },
            {
              "pitch": 48,
              "velocity": 46,
              "position": 0.5,
              "duration": 0.183333
            },
            {
              "pitch": 48,
              "velocity": 48,
              "position": 1.0,
              "duration": 0.2
            },
            {
              "pitch": 48,
              "velocity": 57,
              "position": 1.5,
              "duration": 0.458333
            },
            {
              "pitch": 36,
              "velocity": 57,
              "position": 2.0,
              "duration": 1.65
            },
            {
              "pitch": 48,
              "velocity": 46,
              "position": 2.5,
              "duration": 0.183333
            },
            {
              "pitch": 48,
              "velocity": 48,
              "position": 3.0,
              "duration": 0.2
            },
            {
              "pitch": 48,
              "velocity": 57,
              "position": 3.5,
              "duration": 0.458333
            },
            {
              "pitch": 36,
              "velocity": 57,
              "position": 4.0,
              "duration": 1.65
            },
            {
              "pitch": 48,
              "velocity": 46,
              "position": 4.5,
              "duration": 0.183333
            },
            {
              "pitch": 48,
              "velocity": 48,
              "position": 5.0,
              "duration": 0.2
            },
            {
              "pitch": 48,
              "velocity": 57,
              "position": 5.5,
              "duration": 0.458333
            },
            {
              "pitch": 36,
              "velocity": 57,
              "position": 6.0,
              "duration": 1.65
            },
            {
              "pitch": 48,
              "velocity": 46,
              "position": 6.5,
              "duration": 0.183333
            },
            {
              "pitch": 48,
              "velocity": 48,
              "position": 7.0,
              "duration": 0.2
            },
            {
              "pitch": 48,
              "velocity": 57,
              "position": 7.5,
              "duration": 0.458333
            },
            {
              "pitch": 36,
              "velocity": 58,
              "position": 8.0,
              "duration": 1.65
            },
            {
              "pitch": 48,
              "velocity": 47,
              "position": 8.5,
              "duration": 0.183333
            },
            {
              "pitch": 48,
              "velocity": 49,
              "position": 9.0,
              "duration": 0.2
            },
            {
              "pitch": 48,
              "velocity": 58,
              "position": 9.5,
              "duration": 0.625
            },
            {
              "pitch": 36,
              "velocity": 58,
              "position": 10.0,
              "duration": 1.658333
            },
            {
              "pitch": 48,
              "velocity": 47,
              "position": 10.5,
              "duration": 0.191667
            },
            {
              "pitch": 48,
              "velocity": 47,
              "position": 11.0,
              "duration": 0.183333
            },
            {
              "pitch": 48,
              "velocity": 58,
              "position": 11.5,
              "duration": 0.658333
            },
            {
              "pitch": 36,
              "velocity": 62,
              "position": 12.0,
              "duration": 1.533333
            },
            {
              "pitch": 48,
              "velocity": 41,
              "position": 12.5,
              "duration": 0.183333
            },
            {
              "pitch": 48,
              "velocity": 48,
              "position": 13.0,
              "duration": 0.15
            },
            {
              "pitch": 48,
              "velocity": 60,
              "position": 13.5,
              "duration": 0.6
            },
            {
              "pitch": 36,
              "velocity": 63,
              "position": 14.0,
              "duration": 1.958333
            },
            {
              "pitch": 48,
              "velocity": 44,
              "position": 14.5,
              "duration": 0.15
            },
            {
              "pitch": 48,
              "velocity": 48,
              "position": 15.0,
              "duration": 0.125
            },
            {
              "pitch": 48,
              "velocity": 59,
              "position": 15.5,
              "duration": 0.3
            }
          ]
        },
        "11": {
          "ctab": {
            "srcChannel": 11,
            "name": "Piano",
            "accType": "CHORD1",
            "editable": true,
            "mutedNotes": [],
            "mutedChords": [],
            "sourceChordNote": 0,
            "sourceChordType": "Maj7",
            "ctb2Main": {
              "ntr": "ROOT_FIXED",
              "ntt": "CHORD",
              "bassOn": false,
              "noteLowLimit": 48,
              "noteHighLimit": 84,
              "chordRootUpperLimit": 127,
              "rtr": "NOTE_GENERATOR"
            }
          },
          "notes": []
        },
        "12": {
          "ctab": {
            "srcChannel": 12,
            "name": "Guitar",
            "accType": "CHORD2",
            "editable": true,
            "mutedNotes": [],
            "mutedChords": [],
            "sourceChordNote": 0,
            "sourceChordType": "Maj7",
            "ctb2Main": {
              "ntr": "ROOT_FIXED",
              "ntt": "CHORD",
              "bassOn": false,
              "noteLowLimit": 40,
              "noteHighLimit": 76,
              "chordRootUpperLimit": 127,
              "rtr": "NOTE_GENERATOR"
            }
          },
          "notes": []
        },
        "13": {
          "ctab": {
            "srcChannel": 13,
            "name": "Strings",
            "accType": "PAD",
            "editable": true,
            "mutedNotes": [],
            "mutedChords": [],
            "sourceChordNote": 0,
            "sourceChordType": "Maj7",
            "ctb2Main": {
              "ntr": "ROOT_FIXED",
              "ntt": "MELODY",
              "bassOn": false,
              "noteLowLimit": 36,
              "noteHighLimit": 96,
              "chordRootUpperLimit": 127,
              "rtr": "PITCH_SHIFT"
            }
          },
          "notes": [
            {
              "pitch": 88,
              "velocity": 51,
              "position": 0.0,
              "duration": 2.0
            },
            {
              "pitch": 95,
              "velocity": 49,
              "position": 0.0,
              "duration": 1.9
            },
            {
              "pitch": 95,
              "velocity": 49,
              "position": 2.058333,
              "duration": 1.9
            },
            {
              "pitch": 88,
              "velocity": 51,
              "position": 2.116667,
              "duration": 1.841667
            },
            {
              "pitch": 88,
              "velocity": 51,
              "position": 4.0,
              "duration": 2.0
            },
            {
              "pitch": 95,
              "velocity": 49,
              "position": 4.0,
              "duration": 1.9
            },
            {
              "pitch": 95,
              "velocity": 49,
              "position": 6.058333,
              "duration": 1.9
            },
            {
              "pitch": 88,
              "velocity": 51,
              "position": 6.116667,
              "duration": 1.841667
            },
            {
              "pitch": 88,
              "velocity": 51,
              "position": 8.0,
              "duration": 7.841667
            },
            {
              "pitch": 95,
              "velocity": 49,
              "position": 8.0,
              "duration": 7.9
            }
          ]
        }
      }
    },
    "Main_B": {
      "type": "Main_B",
      "sizeInBeats": 16,
      "channels": {
        "9": {
          "ctab": {
            "srcChannel": 9,
            "name": "Drums",
            "accType": "RHYTHM",
            "editable": false,
            "mutedNotes": [],
            "mutedChords": [],
            "sourceChordNote": 0,
            "sourceChordType": "Maj",
            "ctb2Main": {
              "ntr": "ROOT_FIXED",
              "ntt": "BYPASS",
              "bassOn": false,
              "noteLowLimit": 20,
              "noteHighLimit": 127,
              "chordRootUpperLimit": 127,
              "rtr": "RETRIGGER"
            }
          },
          "notes": []
        },
        "10": {
          "ctab": {
            "srcChannel": 10,
            "name": "Bass",
            "accType": "BASS",
            "editable": true,
            "mutedNotes": [],
            "mutedChords": [],
            "sourceChordNote": 0,
            "sourceChordType": "Maj7",
            "ctb2Main": {
              "ntr": "ROOT_TRANSPOSITION",
              "ntt": "BYPASS",
              "bassOn": true,
              "noteLowLimit": 20,
              "noteHighLimit": 60,
              "chordRootUpperLimit": 127,
              "rtr": "NOTE_GENERATOR"
            }
          },
          "notes": [
            {
              "pitch": 36,
              "velocity": 57,
              "position": 0.0,
              "duration": 1.65
            },
            {
              "pitch": 48,
              "velocity": 46,
              "position": 0.5,
              "duration": 0.183333
            },
            {
              "pitch": 48,
              "velocity": 48,
              "position": 1.0,
              "duration": 0.2
            },
            {
              "pitch": 48,
              "velocity": 57,
              "position": 1.5,
              "duration": 0.458333
            },
            {
              "pitch": 36,
              "velocity": 57,
              "position": 2.0,
              "duration": 1.65
            },
            {
              "pitch": 48,
              "velocity": 46,
              "position": 2.5,
              "duration": 0.183333
            },
            {
              "pitch": 48,
              "velocity": 48,
              "position": 3.0,
              "duration": 0.2
            },
            {
              "pitch": 48,
              "velocity": 57,
              "position": 3.5,
              "duration": 0.458333
            },
            {
              "pitch": 36,
              "velocity": 57,
              "position": 4.0,
              "duration": 1.65
            },
            {
              "pitch": 48,
              "velocity": 46,
              "position": 4.5,
              "duration": 0.183333
            },
            {
              "pitch": 48,
              "velocity": 48,
              "position": 5.0,
              "duration": 0.2
            },
            {
              "pitch": 48,
              "velocity": 57,
              "position": 5.5,
              "duration": 0.458333
            },
            {
              "pitch": 36,
              "velocity": 57,
              "position": 6.0,
              "duration": 1.65
            },
            {
              "pitch": 48,
              "velocity": 46,
              "position": 6.5,
              "duration": 0.183333
            },
            {
              "pitch": 48,
              "velocity": 48,
              "position": 7.0,
              "duration": 0.2
            },
            {
              "pitch": 48,
              "velocity": 57,
              "position": 7.5,
              "duration": 0.458333
            },
            {
              "pitch": 36,
              "velocity": 58,
              "position": 8.0,
              "duration": 1.65
            },
            {
              "pitch": 48,
              "velocity": 47,
              "position": 8.5,
              "duration": 0.183333
            },
            {
              "pitch": 48,
              "velocity": 49,
              "position": 9.0,
              "duration": 0.2
            },
            {
              "pitch": 48,
              "velocity": 58,
              "position": 9.5,
              "duration": 0.625
            },
            {
              "pitch": 36,
              "velocity": 58,
              "position": 10.0,
              "duration": 1.658333
            },
            {
              "pitch": 48,
              "velocity": 47,
              "position": 10.5,
              "duration": 0.191667
            },
            {
              "pitch": 48,
              "velocity": 47,
              "position": 11.0,
              "duration": 0.183333
            },
            {
              "pitch": 48,
              "velocity": 58,
              "position": 11.5,
              "duration": 0.658333
            },
            {
              "pitch": 36,
              "velocity": 62,
              "position": 12.0,
              "duration": 1.533333
            },
            {
              "pitch": 48,
              "velocity": 41,
              "position": 12.5,
              "duration": 0.183333
            },
            {
              "pitch": 48,
              "velocity": 48,
              "position": 13.0,
              "duration": 0.15
            },
            {
              "pitch": 48,
              "velocity": 60,
              "position": 13.5,
              "duration": 0.6
            },
            {
              "pitch": 36,
              "velocity": 63,
              "position": 14.0,
              "duration": 1.958333
            },
            {
              "pitch": 48,
              "velocity": 44,
              "position": 14.5,
              "duration": 0.15
            },
            {
              "pitch": 48,
              "velocity": 48,
              "position": 15.0,
              "duration": 0.125
            },
            {
              "pitch": 48,
              "velocity": 59,
              "position": 15.5,
              "duration": 0.3
            }
          ]
        },
        "11": {
          "ctab": {
            "srcChannel": 11,
            "name": "Piano",
            "accType": "CHORD1",
            "editable": true,
            "mutedNotes": [],
            "mutedChords": [],
            "sourceChordNote": 0,
            "sourceChordType": "Maj7",
            "ctb2Main": {
              "ntr": "ROOT_FIXED",
              "ntt": "CHORD",
              "bassOn": false,
              "noteLowLimit": 48,
              "noteHighLimit": 84,
              "chordRootUpperLimit": 127,
              "rtr": "NOTE_GENERATOR"
            }
          },
          "notes": []
        },
        "12": {
          "ctab": {
            "srcChannel": 12,
            "name": "Guitar",
            "accType": "CHORD2",
            "editable": true,
            "mutedNotes": [],
            "mutedChords": [],
            "sourceChordNote": 0,
            "sourceChordType": "Maj7",
            "ctb2Main": {
              "ntr": "ROOT_FIXED",
              "ntt": "CHORD",
              "bassOn": false,
              "noteLowLimit": 40,
              "noteHighLimit": 76,
              "chordRootUpperLimit": 127,
              "rtr": "NOTE_GENERATOR"
            }
          },
          "notes": []
        },
        "13": {
          "ctab": {
            "srcChannel": 13,
            "name": "Strings",
            "accType": "PAD",
            "editable": true,
            "mutedNotes": [],
            "mutedChords": [],
            "sourceChordNote": 0,
            "sourceChordType": "Maj7",
            "ctb2Main": {
              "ntr": "ROOT_FIXED",
              "ntt": "MELODY",
              "bassOn": false,
              "noteLowLimit": 36,
              "noteHighLimit": 96,
              "chordRootUpperLimit": 127,
              "rtr": "PITCH_SHIFT"
            }
          },
          "notes": [
            {
              "pitch": 88,
              "velocity": 51,
              "position": 0.0,
              "duration": 2.0
            },
            {
              "pitch": 95,
              "velocity": 49,
              "position": 0.0,
              "duration": 1.9
            },
            {
              "pitch": 95,
              "velocity": 49,
              "position": 2.058333,
              "duration": 1.9
            },
            {
              "pitch": 88,
              "velocity": 51,
              "position": 2.116667,
              "duration": 1.841667
            },
            {
              "pitch": 88,
              "velocity": 51,
              "position": 4.0,
              "duration": 2.0
            },
            {
              "pitch": 95,
              "velocity": 49,
              "position": 4.0,
              "duration": 1.9
            },
            {
              "pitch": 95,
              "velocity": 49,
              "position": 6.058333,
              "duration": 1.9
            },
            {
              "pitch": 88,
              "velocity": 51,
              "position": 6.116667,
              "duration": 1.841667
            },
            {
              "pitch": 95,
              "velocity": 49,
              "position": 8.058333,
              "duration": 7.9
            },
            {
              "pitch": 88,
              "velocity": 51,
              "position": 8.116667,
              "duration": 7.841667
            }
          ]
        }
      }
    },
    "Main_C": {
      "type": "Main_C",
      "sizeInBeats": 16,
      "channels": {
        "9": {
          "ctab": {
            "srcChannel": 9,
            "name": "Drums",
            "accType": "RHYTHM",
            "editable": false,
            "mutedNotes": [],
            "mutedChords": [],
            "sourceChordNote": 0,
            "sourceChordType": "Maj",
            "ctb2Main": {
              "ntr": "ROOT_FIXED",
              "ntt": "BYPASS",
              "bassOn": false,
              "noteLowLimit": 20,
              "noteHighLimit": 127,
              "chordRootUpperLimit": 127,
              "rtr": "RETRIGGER"
            }
          },
          "notes": []
        },
        "10": {
          "ctab": {
            "srcChannel": 10,
            "name": "Bass",
            "accType": "BASS",
            "editable": true,
            "mutedNotes": [],
            "mutedChords": [],
            "sourceChordNote": 0,
            "sourceChordType": "Maj7",
            "ctb2Main": {
              "ntr": "ROOT_TRANSPOSITION",
              "ntt": "BYPASS",
              "bassOn": true,
              "noteLowLimit": 20,
              "noteHighLimit": 60,
              "chordRootUpperLimit": 127,
              "rtr": "NOTE_GENERATOR"
            }
          },
          "notes": [
            {
              "pitch": 36,
              "velocity": 57,
              "position": 0.0,
              "duration": 1.65
            },
            {
              "pitch": 48,
              "velocity": 46,
              "position": 0.5,
              "duration": 0.183333
            },
            {
              "pitch": 48,
              "velocity": 48,
              "position": 1.0,
              "duration": 0.2
            },
            {
              "pitch": 48,
              "velocity": 57,
              "position": 1.5,
              "duration": 0.458333
            },
            {
              "pitch": 36,
              "velocity": 57,
              "position": 2.0,
              "duration": 1.65
            },
            {
              "pitch": 48,
              "velocity": 46,
              "position": 2.5,
              "duration": 0.183333
            },
            {
              "pitch": 48,
              "velocity": 48,
              "position": 3.0,
              "duration": 0.2
            },
            {
              "pitch": 48,
              "velocity": 57,
              "position": 3.5,
              "duration": 0.458333
            },
            {
              "pitch": 36,
              "velocity": 57,
              "position": 4.0,
              "duration": 1.65
            },
            {
              "pitch": 48,
              "velocity": 46,
              "position": 4.5,
              "duration": 0.183333
            },
            {
              "pitch": 48,
              "velocity": 48,
              "position": 5.0,
              "duration": 0.2
            },
            {
              "pitch": 48,
              "velocity": 57,
              "position": 5.5,
              "duration": 0.458333
            },
            {
              "pitch": 36,
              "velocity": 57,
              "position": 6.0,
              "duration": 1.65
            },
            {
              "pitch": 48,
              "velocity": 46,
              "position": 6.5,
              "duration": 0.183333
            },
            {
              "pitch": 48,
              "velocity": 48,
              "position": 7.0,
              "duration": 0.2
            },
            {
              "pitch": 48,
              "velocity": 57,
              "position": 7.5,
              "duration": 0.458333
            },
            {
              "pitch": 36,
              "velocity": 58,
              "position": 8.0,
              "duration": 1.65
            },
            {
              "pitch": 48,
              "velocity": 47,
              "position": 8.5,
              "duration": 0.183333
            },
            {
              "pitch": 48,
              "velocity": 49,
              "position": 9.0,
              "duration": 0.2
            },
            {
              "pitch": 48,
              "velocity": 58,
              "position": 9.5,
              "duration": 0.625
            },
            {
              "pitch": 36,
              "velocity": 58,
              "position": 10.0,
              "duration": 1.658333
            },
            {
              "pitch": 48,
              "velocity": 47,
              "position": 10.5,
              "duration": 0.191667
            },
            {
              "pitch": 48,
              "velocity": 47,
              "position": 11.0,
              "duration": 0.183333
            },
            {
              "pitch": 48,
              "velocity": 58,
              "position": 11.5,
              "duration": 0.658333
            },
            {
              "pitch": 36,
              "velocity": 62,
              "position": 12.0,
              "duration": 1.533333
            },
            {
              "pitch": 48,
              "velocity": 41,
              "position": 12.5,
              "duration": 0.183333
            },
            {
              "pitch": 48,
              "velocity": 48,
              "position": 13.0,
              "duration": 0.15
            },
            {
              "pitch": 48,
              "velocity": 60,
              "position": 13.5,
              "duration": 0.6
            },
            {
              "pitch": 36,
              "velocity": 63,
              "position": 14.0,
              "duration": 1.958333
            },
            {
              "pitch": 48,
              "velocity": 44,
              "position": 14.5,
              "duration": 0.15
            },
            {
              "pitch": 48,
              "velocity": 48,
              "position": 15.0,
              "duration": 0.125
            },
            {
              "pitch": 48,
              "velocity": 59,
              "position": 15.5,
              "duration": 0.3
            }
          ]
        },
        "11": {
          "ctab": {
            "srcChannel": 11,
            "name": "Piano",
            "accType": "CHORD1",
            "editable": true,
            "mutedNotes": [],
            "mutedChords": [],
            "sourceChordNote": 0,
            "sourceChordType": "Maj7",
            "ctb2Main": {
              "ntr": "ROOT_FIXED",
              "ntt": "CHORD",
              "bassOn": false,
              "noteLowLimit": 48,
              "noteHighLimit": 84,
              "chordRootUpperLimit": 127,
              "rtr": "NOTE_GENERATOR"
            }
          },
          "notes": []
        },
        "12": {
          "ctab": {
            "srcChannel": 12,
            "name": "Guitar",
            "accType": "CHORD2",
            "editable": true,
            "mutedNotes": [],
            "mutedChords": [],
            "sourceChordNote": 0,
            "sourceChordType": "Maj7",
            "ctb2Main": {
              "ntr": "ROOT_FIXED",
              "ntt": "CHORD",
              "bassOn": false,
              "noteLowLimit": 40,
              "noteHighLimit": 76,
              "chordRootUpperLimit": 127,
              "rtr": "NOTE_GENERATOR"
            }
          },
          "notes": []
        },
        "13": {
          "ctab": {
            "srcChannel": 13,
            "name": "Strings",
            "accType": "PAD",
            "editable": true,
            "mutedNotes": [],
            "mutedChords": [],
            "sourceChordNote": 0,
            "sourceChordType": "Maj7",
            "ctb2Main": {
              "ntr": "ROOT_FIXED",
              "ntt": "MELODY",
              "bassOn": false,
              "noteLowLimit": 36,
              "noteHighLimit": 96,
              "chordRootUpperLimit": 127,
              "rtr": "PITCH_SHIFT"
            }
          },
          "notes": [
            {
              "pitch": 95,
              "velocity": 49,
              "position": 0.058333,
              "duration": 1.9
            },
            {
              "pitch": 88,
              "velocity": 51,
              "position": 0.116667,
              "duration": 1.841667
            },
            {
              "pitch": 88,
              "velocity": 51,
              "position": 2.0,
              "duration": 2.0
            },
            {
              "pitch": 95,
              "velocity": 49,
              "position": 2.0,
              "duration": 1.9
            },
            {
              "pitch": 88,
              "velocity": 51,
              "position": 4.0,
              "duration": 2.0
            },
            {
              "pitch": 95,
              "velocity": 49,
              "position": 4.0,
              "duration": 1.9
            },
            {
              "pitch": 95,
              "velocity": 49,
              "position": 6.058333,
              "duration": 1.9
            },
            {
              "pitch": 88,
              "velocity": 51,
              "position": 6.116667,
              "duration": 1.841667
            },
            {
              "pitch": 88,
              "velocity": 51,
              "position": 8.0,
              "duration": 7.841667
            },
            {
              "pitch": 95,
              "velocity": 49,
              "position": 8.0,
              "duration": 7.9
            }
          ]
        }
      }
    },
    "Main_D": {
      "type": "Main_D",
      "sizeInBeats": 16,
      "channels": {
        "9": {
          "ctab": {
            "srcChannel": 9,
            "name": "Drums",
            "accType": "RHYTHM",
            "editable": false,
            "mutedNotes": [],
            "mutedChords": [],
            "sourceChordNote": 0,
            "sourceChordType": "Maj",
            "ctb2Main": {
              "ntr": "ROOT_FIXED",
              "ntt": "BYPASS",
              "bassOn": false,
              "noteLowLimit": 20,
              "noteHighLimit": 127,
              "chordRootUpperLimit": 127,
              "rtr": "RETRIGGER"
            }
          },
          "notes": []
        },
        "10": {
          "ctab": {
            "srcChannel": 10,
            "name": "Bass",
            "accType": "BASS",
            "editable": true,
            "mutedNotes": [],
            "mutedChords": [],
            "sourceChordNote": 0,
            "sourceChordType": "Maj7",
            "ctb2Main": {
              "ntr": "ROOT_TRANSPOSITION",
              "ntt": "BYPASS",
              "bassOn": true,
              "noteLowLimit": 20,
              "noteHighLimit": 60,
              "chordRootUpperLimit": 127,
              "rtr": "NOTE_GENERATOR"
            }
          },
          "notes": [
            {
              "pitch": 36,
              "velocity": 57,
              "position": 0.0,
              "duration": 1.65
            },
            {
              "pitch": 48,
              "velocity": 46,
              "position": 0.5,
              "duration": 0.183333
            },
            {
              "pitch": 48,
              "velocity": 48,
              "position": 1.0,
              "duration": 0.2
            },
            {
              "pitch": 48,
              "velocity": 57,
              "position": 1.5,
              "duration": 0.458333
            },
            {
              "pitch": 36,
              "velocity": 57,
              "position": 2.0,
              "duration": 1.65
            },
            {
              "pitch": 48,
              "velocity": 46,
              "position": 2.5,
              "duration": 0.183333
            },
            {
              "pitch": 48,
              "velocity": 48,
              "position": 3.0,
              "duration": 0.2
            },
            {
              "pitch": 48,
              "velocity": 57,
              "position": 3.5,
              "duration": 0.458333
            },
            {
              "pitch": 36,
              "velocity": 57,
              "position": 4.0,
              "duration": 1.65
            },
            {
              "pitch": 48,
              "velocity": 46,
              "position": 4.5,
              "duration": 0.183333
            },
            {
              "pitch": 48,
              "velocity": 48,
              "position": 5.0,
              "duration": 0.2
            },
            {
              "pitch": 48,
              "velocity": 57,
              "position": 5.5,
              "duration": 0.458333
            },
            {
              "pitch": 36,
              "velocity": 57,
              "position": 6.0,
              "duration": 1.65
            },
            {
              "pitch": 48,
              "velocity": 46,
              "position": 6.5,
              "duration": 0.183333
            },
            {
              "pitch": 48,
              "velocity": 48,
              "position": 7.0,
              "duration": 0.2
            },
            {
              "pitch": 48,
              "velocity": 57,
              "position": 7.5,
              "duration": 0.458333
            },
            {
              "pitch": 36,
              "velocity": 58,
              "position": 8.0,
              "duration": 1.65
            },
            {
              "pitch": 48,
              "velocity": 47,
              "position": 8.5,
              "duration": 0.183333
            },
            {
              "pitch": 48,
              "velocity": 49,
              "position": 9.0,
              "duration": 0.2
            },
            {
              "pitch": 48,
              "velocity": 58,
              "position": 9.5,
              "duration": 0.625
            },
            {
              "pitch": 36,
              "velocity": 58,
              "position": 10.0,
              "duration": 1.658333
            },
            {
              "pitch": 48,
              "velocity": 47,
              "position": 10.5,
              "duration": 0.191667
            },
            {
              "pitch": 48,
              "velocity": 47,
              "position": 11.0,
              "duration": 0.183333
            },
            {
              "pitch": 48,
              "velocity": 58,
              "position": 11.5,
              "duration": 0.658333
            },
            {
              "pitch": 36,
              "velocity": 62,
              "position": 12.0,
              "duration": 1.533333
            },
            {
              "pitch": 48,
              "velocity": 41,
              "position": 12.5,
              "duration": 0.183333
            },
            {
              "pitch": 48,
              "velocity": 48,
              "position": 13.0,
              "duration": 0.15
            },
            {
              "pitch": 48,
              "velocity": 60,
              "position": 13.5,
              "duration": 0.6
            },
            {
              "pitch": 36,
              "velocity": 63,
              "position": 14.0,
              "duration": 1.958333
            },
            {
              "pitch": 48,
              "velocity": 44,
              "position": 14.5,
              "duration": 0.15
            },
            {
              "pitch": 48,
              "velocity": 48,
              "position": 15.0,
              "duration": 0.125
            },
            {
              "pitch": 48,
              "velocity": 59,
              "position": 15.5,
              "duration": 0.3
            }
          ]
        },
        "11": {
          "ctab": {
            "srcChannel": 11,
            "name": "Piano",
            "accType": "CHORD1",
            "editable": true,
            "mutedNotes": [],
            "mutedChords": [],
            "sourceChordNote": 0,
            "sourceChordType": "Maj7",
            "ctb2Main": {
              "ntr": "ROOT_FIXED",
              "ntt": "CHORD",
              "bassOn": false,
              "noteLowLimit": 48,
              "noteHighLimit": 84,
              "chordRootUpperLimit": 127,
              "rtr": "NOTE_GENERATOR"
            }
          },
          "notes": []
        },
        "12": {
          "ctab": {
            "srcChannel": 12,
            "name": "Guitar",
            "accType": "CHORD2",
            "editable": true,
            "mutedNotes": [],
            "mutedChords": [],
            "sourceChordNote": 0,
            "sourceChordType": "Maj7",
            "ctb2Main": {
              "ntr": "ROOT_FIXED",
              "ntt": "CHORD",
              "bassOn": false,
              "noteLowLimit": 40,
              "noteHighLimit": 76,
              "chordRootUpperLimit": 127,
              "rtr": "NOTE_GENERATOR"
            }
          },
          "notes": []
        },
        "13": {
          "ctab": {
            "srcChannel": 13,
            "name": "Strings",
            "accType": "PAD",
            "editable": true,
            "mutedNotes": [],
            "mutedChords": [],
            "sourceChordNote": 0,
            "sourceChordType": "Maj7",
            "ctb2Main": {
              "ntr": "ROOT_FIXED",
              "ntt": "MELODY",
              "bassOn": false,
              "noteLowLimit": 36,
              "noteHighLimit": 96,
              "chordRootUpperLimit": 127,
              "rtr": "PITCH_SHIFT"
            }
          },
          "notes": [
            {
              "pitch": 95,
              "velocity": 49,
              "position": 0.058333,
              "duration": 1.9
            },
            {
              "pitch": 88,
              "velocity": 51,
              "position": 0.116667,
              "duration": 1.841667
            },
            {
              "pitch": 88,
              "velocity": 51,
              "position": 2.0,
              "duration": 2.0
            },
            {
              "pitch": 95,
              "velocity": 49,
              "position": 2.0,
              "duration": 1.9
            },
            {
              "pitch": 88,
              "velocity": 51,
              "position": 4.0,
              "duration": 2.0
            },
            {
              "pitch": 95,
              "velocity": 49,
              "position": 4.0,
              "duration": 1.9
            },
            {
              "pitch": 95,
              "velocity": 49,
              "position": 6.058333,
              "duration": 1.9
            },
            {
              "pitch": 88,
              "velocity": 51,
              "position": 6.116667,
              "duration": 1.841667
            },
            {
              "pitch": 95,
              "velocity": 49,
              "position": 8.058333,
              "duration": 7.9
            },
            {
              "pitch": 88,
              "velocity": 51,
              "position": 8.116667,
              "duration": 7.841667
            }
          ]
        }
      }
    },
    "Fill_In_AA": {
      "type": "Fill_In_AA",
      "sizeInBeats": 16,
      "channels": {
        "9": {
          "ctab": {
            "srcChannel": 9,
            "name": "Drums",
            "accType": "RHYTHM",
            "editable": false,
            "mutedNotes": [],
            "mutedChords": [],
            "sourceChordNote": 0,
            "sourceChordType": "Maj",
            "ctb2Main": {
              "ntr": "ROOT_FIXED",
              "ntt": "BYPASS",
              "bassOn": false,
              "noteLowLimit": 20,
              "noteHighLimit": 127,
              "chordRootUpperLimit": 127,
              "rtr": "RETRIGGER"
            }
          },
          "notes": []
        },
        "10": {
          "ctab": {
            "srcChannel": 10,
            "name": "Bass",
            "accType": "BASS",
            "editable": true,
            "mutedNotes": [],
            "mutedChords": [],
            "sourceChordNote": 0,
            "sourceChordType": "Maj7",
            "ctb2Main": {
              "ntr": "ROOT_TRANSPOSITION",
              "ntt": "BYPASS",
              "bassOn": true,
              "noteLowLimit": 20,
              "noteHighLimit": 60,
              "chordRootUpperLimit": 127,
              "rtr": "NOTE_GENERATOR"
            }
          },
          "notes": [
            {
              "pitch": 36,
              "velocity": 57,
              "position": 0.0,
              "duration": 1.65
            },
            {
              "pitch": 48,
              "velocity": 46,
              "position": 0.5,
              "duration": 0.183333
            },
            {
              "pitch": 48,
              "velocity": 48,
              "position": 1.0,
              "duration": 0.2
            },
            {
              "pitch": 48,
              "velocity": 57,
              "position": 1.5,
              "duration": 0.458333
            },
            {
              "pitch": 36,
              "velocity": 57,
              "position": 2.0,
              "duration": 1.65
            },
            {
              "pitch": 48,
              "velocity": 46,
              "position": 2.5,
              "duration": 0.183333
            },
            {
              "pitch": 48,
              "velocity": 48,
              "position": 3.0,
              "duration": 0.2
            },
            {
              "pitch": 48,
              "velocity": 57,
              "position": 3.5,
              "duration": 0.458333
            },
            {
              "pitch": 36,
              "velocity": 57,
              "position": 4.0,
              "duration": 1.65
            },
            {
              "pitch": 48,
              "velocity": 46,
              "position": 4.5,
              "duration": 0.183333
            },
            {
              "pitch": 48,
              "velocity": 48,
              "position": 5.0,
              "duration": 0.2
            },
            {
              "pitch": 48,
              "velocity": 57,
              "position": 5.5,
              "duration": 0.458333
            },
            {
              "pitch": 36,
              "velocity": 57,
              "position": 6.0,
              "duration": 1.65
            },
            {
              "pitch": 48,
              "velocity": 46,
              "position": 6.5,
              "duration": 0.183333
            },
            {
              "pitch": 48,
              "velocity": 48,
              "position": 7.0,
              "duration": 0.2
            },
            {
              "pitch": 48,
              "velocity": 57,
              "position": 7.5,
              "duration": 0.458333
            },
            {
              "pitch": 36,
              "velocity": 58,
              "position": 8.0,
              "duration": 1.65
            },
            {
              "pitch": 48,
              "velocity": 47,
              "position": 8.5,
              "duration": 0.183333
            },
            {
              "pitch": 48,
              "velocity": 49,
              "position": 9.0,
              "duration": 0.2
            },
            {
              "pitch": 48,
              "velocity": 58,
              "position": 9.5,
              "duration": 0.625
            },
            {
              "pitch": 36,
              "velocity": 58,
              "position": 10.0,
              "duration": 1.658333
            },
            {
              "pitch": 48,
              "velocity": 47,
              "position": 10.5,
              "duration": 0.191667
            },
            {
              "pitch": 48,
              "velocity": 47,
              "position": 11.0,
              "duration": 0.183333
            },
            {
              "pitch": 48,
              "velocity": 58,
              "position": 11.5,
              "duration": 0.658333
            },
            {
              "pitch": 36,
              "velocity": 62,
              "position": 12.0,
              "duration": 1.533333
            },
            {
              "pitch": 48,
              "velocity": 41,
              "position": 12.5,
              "duration": 0.183333
            },
            {
              "pitch": 48,
              "velocity": 48,
              "position": 13.0,
              "duration": 0.15
            },
            {
              "pitch": 48,
              "velocity": 60,
              "position": 13.5,
              "duration": 0.6
            },
            {
              "pitch": 36,
              "velocity": 63,
              "position": 14.0,
              "duration": 1.958333
            },
            {
              "pitch": 48,
              "velocity": 44,
              "position": 14.5,
              "duration": 0.15
            },
            {
              "pitch": 48,
              "velocity": 48,
              "position": 15.0,
              "duration": 0.125
            },
            {
              "pitch": 48,
              "velocity": 59,
              "position": 15.5,
              "duration": 0.3
            }
          ]
        },
        "11": {
          "ctab": {
            "srcChannel": 11,
            "name": "Piano",
            "accType": "CHORD1",
            "editable": true,
            "mutedNotes": [],
            "mutedChords": [],
            "sourceChordNote": 0,
            "sourceChordType": "Maj7",
            "ctb2Main": {
              "ntr": "ROOT_FIXED",
              "ntt": "CHORD",
              "bassOn": false,
              "noteLowLimit": 48,
              "noteHighLimit": 84,
              "chordRootUpperLimit": 127,
              "rtr": "NOTE_GENERATOR"
            }
          },
          "notes": []
        },
        "12": {
          "ctab": {
            "srcChannel": 12,
            "name": "Guitar",
            "accType": "CHORD2",
            "editable": true,
            "mutedNotes": [],
            "mutedChords": [],
            "sourceChordNote": 0,
            "sourceChordType": "Maj7",
            "ctb2Main": {
              "ntr": "ROOT_FIXED",
              "ntt": "CHORD",
              "bassOn": false,
              "noteLowLimit": 40,
              "noteHighLimit": 76,
              "chordRootUpperLimit": 127,
              "rtr": "NOTE_GENERATOR"
            }
          },
          "notes": []
        },
        "13": {
          "ctab": {
            "srcChannel": 13,
            "name": "Strings",
            "accType": "PAD",
            "editable": true,
            "mutedNotes": [],
            "mutedChords": [],
            "sourceChordNote": 0,
            "sourceChordType": "Maj7",
            "ctb2Main": {
              "ntr": "ROOT_FIXED",
              "ntt": "MELODY",
              "bassOn": false,
              "noteLowLimit": 36,
              "noteHighLimit": 96,
              "chordRootUpperLimit": 127,
              "rtr": "PITCH_SHIFT"
            }
          },
          "notes": [
            {
              "pitch": 95,
              "velocity": 49,
              "position": 0.058333,
              "duration": 1.9
            },
            {
              "pitch": 88,
              "velocity": 51,
              "position": 0.116667,
              "duration": 1.841667
            },
            {
              "pitch": 95,
              "velocity": 49,
              "position": 2.058333,
              "duration": 1.9
            },
            {
              "pitch": 88,
              "velocity": 51,
              "position": 2.116667,
              "duration": 1.841667
            },
            {
              "pitch": 88,
              "velocity": 51,
              "position": 4.0,
              "duration": 2.0
            },
            {
              "pitch": 95,
              "velocity": 49,
              "position": 4.0,
              "duration": 1.9
            },
            {
              "pitch": 88,
              "velocity": 51,
              "position": 6.0,
              "duration": 2.0
            },
            {
              "pitch": 95,
              "velocity": 49,
              "position": 6.0,
              "duration": 1.9
            },
            {
              "pitch": 88,
              "velocity": 51,
              "position": 8.0,
              "duration": 7.841667
            },
            {
              "pitch": 95,
              "velocity": 49,
              "position": 8.0,
              "duration": 7.9
            }
          ]
        }
      }
    },
    "Ending_A": {
      "type": "Ending_A",
      "sizeInBeats": 16,
      "channels": {
        "9": {
          "ctab": {
            "srcChannel": 9,
            "name": "Drums",
            "accType": "RHYTHM",
            "editable": false,
            "mutedNotes": [],
            "mutedChords": [],
            "sourceChordNote": 0,
            "sourceChordType": "Maj",
            "ctb2Main": {
              "ntr": "ROOT_FIXED",
              "ntt": "BYPASS",
              "bassOn": false,
              "noteLowLimit": 20,
              "noteHighLimit": 127,
              "chordRootUpperLimit": 127,
              "rtr": "RETRIGGER"
            }
          },
          "notes": []
        },
        "10": {
          "ctab": {
            "srcChannel": 10,
            "name": "Bass",
            "accType": "BASS",
            "editable": true,
            "mutedNotes": [],
            "mutedChords": [],
            "sourceChordNote": 0,
            "sourceChordType": "Maj7",
            "ctb2Main": {
              "ntr": "ROOT_TRANSPOSITION",
              "ntt": "BYPASS",
              "bassOn": true,
              "noteLowLimit": 20,
              "noteHighLimit": 60,
              "chordRootUpperLimit": 127,
              "rtr": "NOTE_GENERATOR"
            }
          },
          "notes": [
            {
              "pitch": 36,
              "velocity": 49,
              "position": 0.0,
              "duration": 1.65
            },
            {
              "pitch": 48,
              "velocity": 38,
              "position": 0.5,
              "duration": 0.183333
            },
            {
              "pitch": 48,
              "velocity": 40,
              "position": 1.0,
              "duration": 0.2
            },
            {
              "pitch": 48,
              "velocity": 49,
              "position": 1.5,
              "duration": 0.458333
            },
            {
              "pitch": 36,
              "velocity": 49,
              "position": 2.0,
              "duration": 1.65
            },
            {
              "pitch": 48,
              "velocity": 38,
              "position": 2.5,
              "duration": 0.183333
            },
            {
              "pitch": 48,
              "velocity": 40,
              "position": 3.0,
              "duration": 0.2
            },
            {
              "pitch": 48,
              "velocity": 49,
              "position": 3.5,
              "duration": 0.458333
            },
            {
              "pitch": 36,
              "velocity": 49,
              "position": 4.0,
              "duration": 1.65
            },
            {
              "pitch": 48,
              "velocity": 38,
              "position": 4.5,
              "duration": 0.183333
            },
            {
              "pitch": 48,
              "velocity": 40,
              "position": 5.0,
              "duration": 0.2
            },
            {
              "pitch": 48,
              "velocity": 49,
              "position": 5.5,
              "duration": 0.458333
            },
            {
              "pitch": 36,
              "velocity": 49,
              "position": 6.0,
              "duration": 1.65
            },
            {
              "pitch": 48,
              "velocity": 38,
              "position": 6.5,
              "duration": 0.183333
            },
            {
              "pitch": 48,
              "velocity": 40,
              "position": 7.0,
              "duration": 0.2
            },
            {
              "pitch": 48,
              "velocity": 49,
              "position": 7.5,
              "duration": 0.458333
            },
            {
              "pitch": 36,
              "velocity": 49,
              "position": 8.0,
              "duration": 1.65
            },
            {
              "pitch": 48,
              "velocity": 38,
              "position": 8.5,
              "duration": 0.183333
            },
            {
              "pitch": 48,
              "velocity": 40,
              "position": 9.0,
              "duration": 0.2
            },
            {
              "pitch": 48,
              "velocity": 49,
              "position": 9.5,
              "duration": 0.625
            },
            {
              "pitch": 36,
              "velocity": 49,
              "position": 10.0,
              "duration": 1.658333
            },
            {
              "pitch": 48,
              "velocity": 38,
              "position": 10.5,
              "duration": 0.191667
            },
            {
              "pitch": 48,
              "velocity": 38,
              "position": 11.0,
              "duration": 0.183333
            },
            {
              "pitch": 48,
              "velocity": 49,
              "position": 11.5,
              "duration": 0.458333
            },
            {
              "pitch": 36,
              "velocity": 49,
              "position": 12.0,
              "duration": 1.65
            },
            {
              "pitch": 48,
              "velocity": 38,
              "position": 12.5,
              "duration": 0.183333
            },
            {
              "pitch": 48,
              "velocity": 40,
              "position": 13.0,
              "duration": 0.2
            },
            {
              "pitch": 48,
              "velocity": 49,
              "position": 13.5,
              "duration": 0.625
            },
            {
              "pitch": 36,
              "velocity": 49,
              "position": 14.0,
              "duration": 1.658333
            },
            {
              "pitch": 48,
              "velocity": 38,
              "position": 14.5,
              "duration": 0.191667
            },
            {
              "pitch": 48,
              "velocity": 38,
              "position": 15.0,
              "duration": 0.183333
            },
            {
              "pitch": 48,
              "velocity": 49,
              "position": 15.5,
              "duration": 0.458333
            }
          ]
        },
        "11": {
          "ctab": {
            "srcChannel": 11,
            "name": "Piano",
            "accType": "CHORD1",
            "editable": true,
            "mutedNotes": [],
            "mutedChords": [],
            "sourceChordNote": 0,
            "sourceChordType": "Maj7",
            "ctb2Main": {
              "ntr": "ROOT_FIXED",
              "ntt": "CHORD",
              "bassOn": false,
              "noteLowLimit": 48,
              "noteHighLimit": 84,
              "chordRootUpperLimit": 127,
              "rtr": "NOTE_GENERATOR"
            }
          },
          "notes": []
        },
        "12": {
          "ctab": {
            "srcChannel": 12,
            "name": "Guitar",
            "accType": "CHORD2",
            "editable": true,
            "mutedNotes": [],
            "mutedChords": [],
            "sourceChordNote": 0,
            "sourceChordType": "Maj7",
            "ctb2Main": {
              "ntr": "ROOT_FIXED",
              "ntt": "CHORD",
              "bassOn": false,
              "noteLowLimit": 40,
              "noteHighLimit": 76,
              "chordRootUpperLimit": 127,
              "rtr": "NOTE_GENERATOR"
            }
          },
          "notes": [
            {
              "pitch": 48,
              "velocity": 59,
              "position": 0.0,
              "duration": 2.0
            },
            {
              "pitch": 55,
              "velocity": 47,
              "position": 0.5,
              "duration": 1.5
            },
            {
              "pitch": 59,
              "velocity": 40,
              "position": 1.0,
              "duration": 1.0
            },
            {
              "pitch": 64,
              "velocity": 47,
              "position": 1.5,
              "duration": 0.5
            },
            {
              "pitch": 48,
              "velocity": 59,
              "position": 2.0,
              "duration": 2.0
            },
            {
              "pitch": 55,
              "velocity": 47,
              "position": 2.5,
              "duration": 1.5
            },
            {
              "pitch": 59,
              "velocity": 40,
              "position": 3.0,
              "duration": 1.0
            },
            {
              "pitch": 64,
              "velocity": 47,
              "position": 3.5,
              "duration": 0.5
            },
            {
              "pitch": 48,
              "velocity": 52,
              "position": 4.0,
              "duration": 2.0
            },
            {
              "pitch": 64,
              "velocity": 51,
              "position": 4.0,
              "duration": 0.733333
            },
            {
              "pitch": 55,
              "velocity": 41,
              "position": 4.5,
              "duration": 1.5
            },
            {
              "pitch": 59,
              "velocity": 45,
              "position": 5.0,
              "duration": 1.0
            },
            {
              "pitch": 64,
              "velocity": 52,
              "position": 5.5,
              "duration": 0.5
            },
            {
              "pitch": 48,
              "velocity": 52,
              "position": 6.0,
              "duration": 2.0
            },
            {
              "pitch": 64,
              "velocity": 51,
              "position": 6.0,
              "duration": 0.733333
            },
            {
              "pitch": 55,
              "velocity": 41,
              "position": 6.5,
              "duration": 1.5
            },
            {
              "pitch": 59,
              "velocity": 45,
              "position": 7.0,
              "duration": 1.0
            },
            {
              "pitch": 64,
              "velocity": 52,
              "position": 7.5,
              "duration": 0.5
            },
            {
              "pitch": 48,
              "velocity": 63,
              "position": 8.0,
              "duration": 4.0
            },
            {
              "pitch": 55,
              "velocity": 56,
              "position": 8.5,
              "duration": 2.558333
            },
            {
              "pitch": 59,
              "velocity": 45,
              "position": 9.0,
              "duration": 1.275
            },
            {
              "pitch": 64,
              "velocity": 51,
              "position": 9.5,
              "duration": 0.566667
            },
            {
              "pitch": 67,
              "velocity": 50,
              "position": 10.0,
              "duration": 2.0
            },
            {
              "pitch": 64,
              "velocity": 22,
              "position": 10.5,
              "duration": 1.5
            },
            {
              "pitch": 59,
              "velocity": 46,
              "position": 11.0,
              "duration": 1.0
            },
            {
              "pitch": 55,
              "velocity": 57,
              "position": 11.5,
              "duration": 0.5
            },
            {
              "pitch": 48,
              "velocity": 59,
              "position": 12.0,
              "duration": 4.0
            },
            {
              "pitch": 55,
              "velocity": 48,
              "position": 12.5,
              "duration": 1.966667
            },
            {
              "pitch": 59,
              "velocity": 40,
              "position": 12.75,
              "duration": 1.0
            },
            {
              "pitch": 64,
              "velocity": 43,
              "position": 13.0,
              "duration": 3.0
            },
            {
              "pitch": 67,
              "velocity": 59,
              "position": 13.5,
              "duration": 2.5
            },
            {
              "pitch": 59,
              "velocity": 40,
              "position": 14.5,
              "duration": 0.483333
            },
            {
              "pitch": 55,
              "velocity": 53,
              "position": 15.0,
              "duration": 1.0
            },
            {
              "pitch": 59,
              "velocity": 43,
              "position": 15.5,
              "duration": 0.5
            }
          ]
        },
        "13": {
          "ctab": {
            "srcChannel": 13,
            "name": "Strings",
            "accType": "PAD",
            "editable": true,
            "mutedNotes": [],
            "mutedChords": [],
            "sourceChordNote": 0,
            "sourceChordType": "Maj7",
            "ctb2Main": {
              "ntr": "ROOT_FIXED",
              "ntt": "MELODY",
              "bassOn": false,
              "noteLowLimit": 36,
              "noteHighLimit": 96,
              "chordRootUpperLimit": 127,
              "rtr": "PITCH_SHIFT"
            }
          },
          "notes": []
        }
      }
    }
  }
}