{
  "name": "Mozart Orchestral 3/4",
  "tempo": 140,
  "timeSignature": "3/4",
  "ticksPerQuarter": 120,
  "sffType": "SFF1",
  "division": "BINARY",
  "channelPrograms": {
    "9": 0,
    "10": 32,
    "11": 0,
    "12": 44,
    "13": 48
  },
  "parts": {
    "Intro_A": {
      "type": "Intro_A",
      "sizeInBeats": 18,
      "channels": {
        "9": {
          "ctab": {
            "srcChannel": 9,
            "name": "Drums",
            "accType": "RHYTHM",
            "editable": false,
            "mutedNotes": [],
            "mutedChords": [],
            "sourceChordNote": 0,
            "sourceChordType": "Maj",
            "ctb2Main": {
              "ntr": "ROOT_FIXED",
              "ntt": "BYPASS",
              "bassOn": false,
              "noteLowLimit": 20,
              "noteHighLimit": 127,
              "chordRootUpperLimit": 127,
              "rtr": "RETRIGGER"
            }
          },
          "notes": [
            {
              "pitch": 37,
              "velocity": 84,
              "position": 0.0,
              "duration": 1.0
            },
            {
              "pitch": 37,
              "velocity": 64,
              "position": 1.0,
              "duration": 1.0
            },
            {
              "pitch": 37,
              "velocity": 64,
              "position": 2.0,
              "duration": 1.0
            },
            {
              "pitch": 37,
              "velocity": 84,
              "position": 3.0,
              "duration": 1.0
            },
            {
              "pitch": 37,
              "velocity": 64,
              "position": 4.0,
              "duration": 1.0
            },
            {
              "pitch": 37,
              "velocity": 64,
              "position": 5.0,
              "duration": 1.0
            }
          ]
        },
        "10": {
          "ctab": {
            "srcChannel": 10,
            "name": "Bass",
            "accType": "BASS",
            "editable": true,
            "mutedNotes": [],
            "mutedChords": [],
            "sourceChordNote": 0,
            "sourceChordType": "Maj7",
            "ctb2Main": {
              "ntr": "ROOT_TRANSPOSITION",
              "ntt": "BYPASS",
              "bassOn": true,
              "noteLowLimit": 20,
              "noteHighLimit": 60,
              "chordRootUpperLimit": 127,
              "rtr": "NOTE_GENERATOR"
            }
          },
          "notes": [
            {
              "pitch": 36,
              "velocity": 56,
              "position": 6.0,
              "duration": 1.958333
            },
            {
              "pitch": 36,
              "velocity": 56,
              "position": 8.0,
              "duration": 0.958333
            },
            {
              "pitch": 36,
              "velocity": 56,
              "position": 9.0,
              "duration": 1.958333
            },
            {
              "pitch": 36,
              "velocity": 56,
              "position": 11.0,
              "duration": 0.958333
            },
            {
              "pitch": 48,
              "velocity": 56,
              "position": 12.0,
              "duration": 2.541667
            },
            {
              "pitch": 43,
              "velocity": 57,
              "position": 15.041667,
              "duration": 0.383333
            },
            {
              "pitch": 40,
              "velocity": 60,
              "position": 16.033333,
              "duration": 0.366667
            },
            {
              "pitch": 36,
              "velocity": 49,
              "position": 17.008333,
              "duration": 0.558333
            }
          ]
        },
        "11": {
          "ctab": {
            "srcChannel": 11,
            "name": "Piano",
            "accType": "CHORD1",
            "editable": true,
            "mutedNotes": [],
            "mutedChords": [],
            "sourceChordNote": 0,
            "sourceChordType": "Maj7",
            "ctb2Main": {
              "ntr": "ROOT_FIXED",
              "ntt": "CHORD",
              "bassOn": false,
              "noteLowLimit": 48,
              "noteHighLimit": 84,
              "chordRootUpperLimit": 127,
              "rtr": "NOTE_GENERATOR"
            }
          },
          "notes": [
            {
              "pitch": 60,
              "velocity": 57,
              "position": 6.0,
              "duration": 0.5
            },
            {
              "pitch": 64,
              "velocity": 54,
              "position": 6.5,
              "duration": 0.5
            },
            {
              "pitch": 67,
              "velocity": 62,
              "position": 7.0,
              "duration": 0.5
            },
            {
              "pitch": 64,
              "velocity": 59,
              "position": 7.5,
              "duration": 0.458333
            },
            {
              "pitch": 59,
              "velocity": 57,
              "position": 8.0,
              "duration": 0.8
            },
            {
              "pitch": 60,
              "velocity": 54,
              "position": 8.0,
              "duration": 0.908333
            },
            {
              "pitch": 60,
              "velocity": 58,
              "position": 9.0,
              "duration": 0.491667
            },
            {
              "pitch": 71,
              "velocity": 49,
              "position": 9.5,
              "duration": 0.541667
            },
            {
              "pitch": 64,
              "velocity": 60,
              "position": 10.0,
              "duration": 0.5
            },
            {
              "pitch": 71,
              "velocity": 53,
              "position": 10.5,
              "duration": 0.458333
            },
            {
              "pitch": 59,
              "velocity": 54,
              "position": 11.0,
              "duration": 0.941667
            },
            {
              "pitch": 60,
              "velocity": 57,
              "position": 11.0,
              "duration": 0.9
            },
            {
              "pitch": 60,
              "velocity": 59,
              "position": 12.0,
              "duration": 0.458333
            },
            {
              "pitch": 67,
              "velocity": 51,
              "position": 12.5,
              "duration": 0.541667
            },
            {
              "pitch": 64,
              "velocity": 58,
              "position": 13.0,
              "duration": 0.466667
            },
            {
              "pitch": 67,
              "velocity": 41,
              "position": 13.5,
              "duration": 0.533333
            },
            {
              "pitch": 60,
              "velocity": 49,
              "position": 14.0,
              "duration": 0.458333
            },
            {
              "pitch": 67,
              "velocity": 57,
              "position": 14.5,
              "duration": 0.541667
            },
            {
              "pitch": 59,
              "velocity": 55,
              "position": 15.0,
              "duration": 0.525
            },
            {
              "pitch": 67,
              "velocity": 53,
              "position": 15.5,
              "duration": 0.541667
            },
            {
              "pitch": 64,
              "velocity": 61,
              "position": 16.0,
              "duration": 0.458333
            },
            {
              "pitch": 67,
              "velocity": 64,
              "position": 16.5,
              "duration": 0.533333
            },
            {
              "pitch": 59,
              "velocity": 52,
              "position": 17.0,
              "duration": 0.475
            },
            {
              "pitch": 67,
              "velocity": 62,
              "position": 17.5,
              "duration": 0.358333
            }
          ]
        },
        "12": {
          "ctab": {
            "srcChannel": 12,
            "name": "Guitar",
            "accType": "CHORD2",
            "editable": true,
            "mutedNotes": [],
            "mutedChords": [],
            "sourceChordNote": 0,
            "sourceChordType": "Maj7",
            "ctb2Main": {
              "ntr": "ROOT_FIXED",
              "ntt": "CHORD",
              "bassOn": false,
              "noteLowLimit": 40,
              "noteHighLimit": 76,
              "chordRootUpperLimit": 127,
              "rtr": "NOTE_GENERATOR"
            }
          },
          "notes": [
            {
              "pitch": 59,
              "velocity": 28,
              "position": 6.0,
              "duration": 1.958333
            },
            {
              "pitch": 67,
              "velocity": 26,
              "position": 6.008333,
              "duration": 1.95
            },
            {
              "pitch": 60,
              "velocity": 28,
              "position": 8.0,
              "duration": 0.958333
            },
            {
              "pitch": 64,
              "velocity": 26,
              "position": 8.008333,
              "duration": 0.95
            },
            {
              "pitch": 60,
              "velocity": 28,
              "position": 9.0,
              "duration": 1.958333
            },
            {
              "pitch": 64,
              "velocity": 26,
              "position": 9.008333,
              "duration": 1.95
            },
            {
              "pitch": 59,
              "velocity": 28,
              "position": 11.0,
              "duration": 0.958333
            },
            {
              "pitch": 67,
              "velocity": 26,
              "position": 11.008333,
              "duration": 0.95
            },
            {
              "pitch": 60,
              "velocity": 28,
              "position": 12.0,
              "duration": 2.983333
            },
            {
              "pitch": 64,
              "velocity": 26,
              "position": 12.008333,
              "duration": 2.933333
            },
            {
              "pitch": 67,
              "velocity": 33,
              "position": 14.916667,
              "duration": 2.7
            },
            {
              "pitch": 59,
              "velocity": 24,
              "position": 14.966667,
              "duration": 2.641667
            }
          ]
        },
        "13": {
          "ctab": {
            "srcChannel": 13,
            "name": "Strings",
            "accType": "PAD",
            "editable": true,
            "mutedNotes": [],
            "mutedChords": [],
            "sourceChordNote": 0,
            "sourceChordType": "Maj7",
            "ctb2Main": {
              "ntr": "ROOT_FIXED",
              "ntt": "MELODY",
              "bassOn": false,
              "noteLowLimit": 36,
              "noteHighLimit": 96,
              "chordRootUpperLimit": 127,
              "rtr": "PITCH_SHIFT"
            }
          },
          "notes": [
            {
              "pitch": 64,
              "velocity": 41,
              "position": 6.008333,
              "duration": 2.95
            },
            {
              "pitch": 67,
              "velocity": 43,
              "position": 6.008333,
              "duration": 2.95
            },
            {
              "pitch": 59,
              "velocity": 37,
              "position": 6.025,
              "duration": 2.933333
            },
            {
              "pitch": 52,
              "velocity": 44,
              "position": 9.0,
              "duration": 1.958333
            },
            {
              "pitch": 55,
              "velocity": 46,
              "position": 9.0,
              "duration": 1.958333
            },
            {
              "pitch": 60,
              "velocity": 32,
              "position": 9.0,
              "duration": 1.958333
            },
            {
              "pitch": 64,
              "velocity": 41,
              "position": 11.008333,
              "duration": 0.95
            },
            {
              "pitch": 67,
              "velocity": 43,
              "position": 11.008333,
              "duration": 0.95
            },
            {
              "pitch": 59,
              "velocity": 37,
              "position": 11.025,
              "duration": 6.891667
            },
            {
              "pitch": 52,
              "velocity": 44,
              "position": 12.0,
              "duration": 5.866667
            }
          ]
        }
      }
    },
    "Main_A": {
      "type": "Main_A",
      "sizeInBeats": 12,
      "channels": {
        "9": {
          "ctab": {
            "srcChannel": 9,
            "name": "Drums",
            "accType": "RHYTHM",
            "editable": false,
            "mutedNotes": [],
            "mutedChords": [],
            "sourceChordNote": 0,
            "sourceChordType": "Maj",
            "ctb2Main": {
              "ntr": "ROOT_FIXED",
              "ntt": "BYPASS",
              "bassOn": false,
              "noteLowLimit": 20,
              "noteHighLimit": 127,
              "chordRootUpperLimit": 127,
              "rtr": "RETRIGGER"
            }
          },
          "notes": []
        },
        "10": {
          "ctab": {
            "srcChannel": 10,
            "name": "Bass",
            "accType": "BASS",
            "editable": true,
            "mutedNotes": [],
            "mutedChords": [],
            "sourceChordNote": 0,
            "sourceChordType": "Maj7",
            "ctb2Main": {
              "ntr": "ROOT_TRANSPOSITION",
              "ntt": "BYPASS",
              "bassOn": true,
              "noteLowLimit": 20,
              "noteHighLimit": 60,
              "chordRootUpperLimit": 127,
              "rtr": "NOTE_GENERATOR"
            }
          },
          "notes": [
            {
              "pitch": 36,
              "velocity": 65,
              "position": 0.0,
              "duration": 0.2
            },
            {
              "pitch": 36,
              "velocity": 49,
              "position": 0.5,
              "duration": 0.183333
            },
            {
              "pitch": 36,
              "velocity": 57,
              "position": 1.0,
              "duration": 0.225
            },
            {
              "pitch": 36,
              "velocity": 50,
              "position": 1.5,
              "duration": 0.2
            },
            {
              "pitch": 36,
              "velocity": 65,
              "position": 2.0,
              "duration": 0.2
            },
            {
              "pitch": 36,
              "velocity": 49,
              "position": 2.5,
              "duration": 0.183333
            },
            {
              "pitch": 36,
              "velocity": 65,
              "position": 3.0,
              "duration": 0.2
            },
            {
              "pitch": 36,
              "velocity": 49,
              "position": 3.5,
              "duration": 0.183333
            },
            {
              "pitch": 36,
              "velocity": 57,
              "position": 4.0,
              "duration": 0.225
            },
            {
              "pitch": 36,
              "velocity": 50,
              "position": 4.5,
              "duration": 0.2
            },
            {
              "pitch": 36,
              "velocity": 65,
              "position": 5.0,
              "duration": 0.2
            },
            {
              "pitch": 36,
              "velocity": 49,
              "position": 5.5,
              "duration": 0.183333
            },
            {
              "pitch": 36,
              "velocity": 65,
              "position": 6.0,
              "duration": 0.2
            },
            {
              "pitch": 36,
              "velocity": 49,
              "position": 6.5,
              "duration": 0.183333
            },
            {
              "pitch": 36,
              "velocity": 57,
              "position": 7.0,
              "duration": 0.225
            },
            {
              "pitch": 36,
              "velocity": 50,
              "position": 7.5,
              "duration": 0.2
            },
            {
              "pitch": 36,
              "velocity": 61,
              "position": 8.0,
              "duration": 0.208333
            },
            {
              "pitch": 36,
              "velocity": 59,
              "position": 8.5,
              "duration": 0.241667
            },
            {
              "pitch": 48,
              "velocity": 69,
              "position": 9.0,
              "duration": 0.3
            },
            {
              "pitch": 48,
              "velocity": 49,
              "position": 9.5,
              "duration": 0.208333
            },
            {
              "pitch": 48,
              "velocity": 66,
              "position": 10.0,
              "duration": 0.2
            },
            {
              "pitch": 48,
              "velocity": 51,
              "position": 10.5,
              "duration": 0.208333
            },
            {
              "pitch": 36,
              "velocity": 58,
              "position": 11.0,
              "duration": 0.208333
            },
            {
              "pitch": 36,
              "velocity": 60,
              "position": 11.5,
              "duration": 0.266667
            }
          ]
        },
        "11": {
          "ctab": {
            "srcChannel": 11,
            "name": "Piano",
            "accType": "CHORD1",
            "editable": true,
            "mutedNotes": [],
            "mutedChords": [],
            "sourceChordNote": 0,
            "sourceChordType": "Maj7",
            "ctb2Main": {
              "ntr": "ROOT_FIXED",
              "ntt": "CHORD",
              "bassOn": false,
              "noteLowLimit": 48,
              "noteHighLimit": 84,
              "chordRootUpperLimit": 127,
              "rtr": "NOTE_GENERATOR"
            }
          },
          "notes": [
            {
              "pitch": 60,
              "velocity": 70,
              "position": 0.0,
              "duration": 0.225
            },
            {
              "pitch": 67,
              "velocity": 60,
              "position": 0.25,
              "duration": 0.25
            },
            {
              "pitch": 64,
              "velocity": 53,
              "position": 0.5,
              "duration": 0.225
            },
            {
              "pitch": 67,
              "velocity": 57,
              "position": 0.75,
              "duration": 0.25
            },
            {
              "pitch": 60,
              "velocity": 65,
              "position": 1.0,
              "duration": 0.208333
            },
            {
              "pitch": 67,
              "velocity": 54,
              "position": 1.25,
              "duration": 0.233333
            },
            {
              "pitch": 64,
              "velocity": 50,
              "position": 1.5,
              "duration": 0.216667
            },
            {
              "pitch": 67,
              "velocity": 57,
              "position": 1.75,
              "duration": 0.208333
            },
            {
              "pitch": 59,
              "velocity": 57,
              "position": 2.0,
              "duration": 0.8
            },
            {
              "pitch": 60,
              "velocity": 54,
              "position": 2.0,
              "duration": 0.908333
            },
            {
              "pitch": 60,
              "velocity": 60,
              "position": 3.0,
              "duration": 0.25
            },
            {
              "pitch": 64,
              "velocity": 58,
              "position": 3.25,
              "duration": 0.258333
            },
            {
              "pitch": 67,
              "velocity": 55,
              "position": 3.508333,
              "duration": 0.25
            },
            {
              "pitch": 64,
              "velocity": 52,
              "position": 3.75,
              "duration": 0.233333
            },
            {
              "pitch": 71,
              "velocity": 58,
              "position": 4.0,
              "duration": 0.258333
            },
            {
              "pitch": 67,
              "velocity": 56,
              "position": 4.25,
              "duration": 0.266667
            },
            {
              "pitch": 64,
              "velocity": 57,
              "position": 4.5,
              "duration": 0.266667
            },
            {
              "pitch": 67,
              "velocity": 62,
              "position": 4.766667,
              "duration": 0.191667
            },
            {
              "pitch": 59,
              "velocity": 57,
              "position": 5.0,
              "duration": 0.8
            },
            {
              "pitch": 60,
              "velocity": 54,
              "position": 5.0,
              "duration": 0.908333
            },
            {
              "pitch": 60,
              "velocity": 66,
              "position": 6.0,
              "duration": 0.258333
            },
            {
              "pitch": 64,
              "velocity": 61,
              "position": 6.258333,
              "duration": 0.233333
            },
            {
              "pitch": 67,
              "velocity": 57,
              "position": 6.5,
              "duration": 0.25
            },
            {
              "pitch": 64,
              "velocity": 59,
              "position": 6.75,
              "duration": 0.25
            },
            {
              "pitch": 67,
              "velocity": 66,
              "position": 7.0,
              "duration": 0.258333
            },
            {
              "pitch": 64,
              "velocity": 53,
              "position": 7.258333,
              "duration": 0.216667
            },
            {
              "pitch": 67,
              "velocity": 60,
              "position": 7.5,
              "duration": 0.266667
            },
            {
              "pitch": 64,
              "velocity": 61,
              "position": 7.75,
              "duration": 0.225
            },
            {
              "pitch": 67,
              "velocity": 66,
              "position": 8.0,
              "duration": 0.241667
            },
            {
              "pitch": 64,
              "velocity": 55,
              "position": 8.25,
              "duration": 0.216667
            },
            {
              "pitch": 67,
              "velocity": 50,
              "position": 8.5,
              "duration": 0.266667
            },
            {
              "pitch": 64,
              "velocity": 56,
              "position": 8.75,
              "duration": 0.25
            },
            {
              "pitch": 59,
              "velocity": 62,
              "position": 9.0,
              "duration": 0.308333
            },
            {
              "pitch": 64,
              "velocity": 58,
              "position": 9.25,
              "duration": 0.225
            },
            {
              "pitch": 67,
              "velocity": 63,
              "position": 9.5,
              "duration": 0.25
            },
            {
              "pitch": 64,
              "velocity": 59,
              "position": 9.75,
              "duration": 0.25
            },
            {
              "pitch": 67,
              "velocity": 66,
              "position": 10.0,
              "duration": 0.283333
            },
            {
              "pitch": 64,
              "velocity": 59,
              "position": 10.283333,
              "duration": 0.175
            },
            {
              "pitch": 67,
              "velocity": 65,
              "position": 10.5,
              "duration": 0.258333
            },
            {
              "pitch": 64,
              "velocity": 59,
              "position": 10.75,
              "duration": 0.233333
            },
            {
              "pitch": 67,
              "velocity": 68,
              "position": 11.0,
              "duration": 0.25
            },
            {
              "pitch": 64,
              "velocity": 58,
              "position": 11.25,
              "duration": 0.225
            },
            {
              "pitch": 67,
              "velocity": 67,
              "position": 11.5,
              "duration": 0.258333
            },
            {
              "pitch": 64,
              "velocity": 66,
              "position": 11.75,
              "duration": 0.191667
            }
          ]
        },
        "12": {
          "ctab": {
            "srcChannel": 12,
            "name": "Guitar",
            "accType": "CHORD2",
            "editable": true,
            "mutedNotes": [],
            "mutedChords": [],
            "sourceChordNote": 0,
            "sourceChordType": "Maj7",
            "ctb2Main": {
              "ntr": "ROOT_FIXED",
              "ntt": "CHORD",
              "bassOn": false,
              "noteLowLimit": 40,
              "noteHighLimit": 76,
              "chordRootUpperLimit": 127,
              "rtr": "NOTE_GENERATOR"
            }
          },
          "notes": [
            {
              "pitch": 67,
              "velocity": 45,
              "position": 0.016667,
              "duration": 0.158333
            },
            {
              "pitch": 64,
              "velocity": 49,
              "position": 0.5,
              "duration": 0.158333
            },
            {
              "pitch": 67,
              "velocity": 49,
              "position": 1.058333,
              "duration": 0.116667
            },
            {
              "pitch": 64,
              "velocity": 44,
              "position": 1.525,
              "duration": 0.158333
            },
            {
              "pitch": 64,
              "velocity": 50,
              "position": 2.016667,
              "duration": 0.183333
            },
            {
              "pitch": 60,
              "velocity": 33,
              "position": 2.508333,
              "duration": 0.183333
            },
            {
              "pitch": 55,
              "velocity": 42,
              "position": 2.525,
              "duration": 0.141667
            },
            {
              "pitch": 67,
              "velocity": 45,
              "position": 3.016667,
              "duration": 0.158333
            },
            {
              "pitch": 64,
              "velocity": 49,
              "position": 3.5,
              "duration": 0.158333
            },
            {
              "pitch": 67,
              "velocity": 49,
              "position": 4.058333,
              "duration": 0.116667
            },
            {
              "pitch": 64,
              "velocity": 44,
              "position": 4.525,
              "duration": 0.158333
            },
            {
              "pitch": 67,
              "velocity": 45,
              "position": 5.016667,
              "duration": 0.158333
            },
            {
              "pitch": 64,
              "velocity": 49,
              "position": 5.5,
              "duration": 0.158333
            },
            {
              "pitch": 64,
              "velocity": 50,
              "position": 6.016667,
              "duration": 0.183333
            },
            {
              "pitch": 60,
              "velocity": 33,
              "position": 6.508333,
              "duration": 0.183333
            },
            {
              "pitch": 55,
              "velocity": 42,
              "position": 6.525,
              "duration": 0.141667
            },
            {
              "pitch": 59,
              "velocity": 33,
              "position": 7.008333,
              "duration": 0.191667
            },
            {
              "pitch": 55,
              "velocity": 49,
              "position": 7.025,
              "duration": 0.15
            },
            {
              "pitch": 55,
              "velocity": 49,
              "position": 7.533333,
              "duration": 0.133333
            },
            {
              "pitch": 59,
              "velocity": 34,
              "position": 7.533333,
              "duration": 0.175
            },
            {
              "pitch": 55,
              "velocity": 48,
              "position": 8.025,
              "duration": 0.15
            },
            {
              "pitch": 59,
              "velocity": 33,
              "position": 8.05,
              "duration": 0.183333
            },
            {
              "pitch": 59,
              "velocity": 36,
              "position": 8.533333,
              "duration": 0.15
            },
            {
              "pitch": 55,
              "velocity": 55,
              "position": 8.55,
              "duration": 0.1
            },
            {
              "pitch": 71,
              "velocity": 54,
              "position": 9.008333,
              "duration": 0.125
            },
            {
              "pitch": 59,
              "velocity": 38,
              "position": 9.525,
              "duration": 0.166667
            },
            {
              "pitch": 67,
              "velocity": 45,
              "position": 9.525,
              "duration": 0.2
            },
            {
              "pitch": 59,
              "velocity": 34,
              "position": 10.016667,
              "duration": 0.15
            },
            {
              "pitch": 64,
              "velocity": 42,
              "position": 10.025,
              "duration": 0.175
            },
            {
              "pitch": 59,
              "velocity": 39,
              "position": 10.516667,
              "duration": 0.15
            },
            {
              "pitch": 64,
              "velocity": 43,
              "position": 10.525,
              "duration": 0.2
            },
            {
              "pitch": 59,
              "velocity": 45,
              "position": 11.008333,
              "duration": 0.166667
            },
            {
              "pitch": 64,
              "velocity": 42,
              "position": 11.033333,
              "duration": 0.175
            },
            {
              "pitch": 59,
              "velocity": 47,
              "position": 11.55,
              "duration": 0.15
            },
            {
              "pitch": 64,
              "velocity": 45,
              "position": 11.55,
              "duration": 0.166667
            }
          ]
        },
        "13": {
          "ctab": {
            "srcChannel": 13,
            "name": "Strings",
            "accType": "PAD",
            "editable": true,
            "mutedNotes": [],
            "mutedChords": [],
            "sourceChordNote": 0,
            "sourceChordType": "Maj7",
            "ctb2Main": {
              "ntr": "ROOT_FIXED",
              "ntt": "MELODY",
              "bassOn": false,
              "noteLowLimit": 36,
              "noteHighLimit": 96,
              "chordRootUpperLimit": 127,
              "rtr": "PITCH_SHIFT"
            }
          },
          "notes": [
            {
              "pitch": 48,
              "velocity": 53,
              "position": 0.0,
              "duration": 0.1
            },
            {
              "pitch": 67,
              "velocity": 64,
              "position": 0.0,
              "duration": 0.166667
            },
            {
              "pitch": 48,
              "velocity": 33,
              "position": 0.5,
              "duration": 0.15
            },
            {
              "pitch": 59,
              "velocity": 29,
              "position": 0.5,
              "duration": 0.166667
            },
            {
              "pitch": 64,
              "velocity": 39,
              "position": 0.5,
              "duration": 0.15
            },
            {
              "pitch": 67,
              "velocity": 45,
              "position": 0.5,
              "duration": 0.15
            },
            {
              "pitch": 48,
              "velocity": 35,
              "position": 1.0,
              "duration": 0.133333
            },
            {
              "pitch": 59,
              "velocity": 35,
              "position": 1.0,
              "duration": 0.183333
            },
            {
              "pitch": 64,
              "velocity": 47,
              "position": 1.0,
              "duration": 0.141667
            },
            {
              "pitch": 67,
              "velocity": 49,
              "position": 1.0,
              "duration": 0.183333
            },
            {
              "pitch": 48,
              "velocity": 37,
              "position": 1.5,
              "duration": 0.116667
            },
            {
              "pitch": 59,
              "velocity": 36,
              "position": 1.5,
              "duration": 0.175
            },
            {
              "pitch": 64,
              "velocity": 43,
              "position": 1.5,
              "duration": 0.133333
            },
            {
              "pitch": 67,
              "velocity": 50,
              "position": 1.5,
              "duration": 0.133333
            },
            {
              "pitch": 48,
              "velocity": 53,
              "position": 2.0,
              "duration": 0.1
            },
            {
              "pitch": 59,
              "velocity": 35,
              "position": 2.0,
              "duration": 0.141667
            },
            {
              "pitch": 67,
              "velocity": 64,
              "position": 2.0,
              "duration": 0.166667
            },
            {
              "pitch": 48,
              "velocity": 33,
              "position": 2.5,
              "duration": 0.15
            },
            {
              "pitch": 59,
              "velocity": 29,
              "position": 2.5,
              "duration": 0.166667
            },
            {
              "pitch": 64,
              "velocity": 39,
              "position": 2.5,
              "duration": 0.15
            },
            {
              "pitch": 67,
              "velocity": 45,
              "position": 2.5,
              "duration": 0.15
            },
            {
              "pitch": 48,
              "velocity": 53,
              "position": 3.0,
              "duration": 0.1
            },
            {
              "pitch": 67,
              "velocity": 64,
              "position": 3.0,
              "duration": 0.166667
            },
            {
              "pitch": 48,
              "velocity": 33,
              "position": 3.5,
              "duration": 0.15
            },
            {
              "pitch": 59,
              "velocity": 29,
              "position": 3.5,
              "duration": 0.166667
            },
            {
              "pitch": 64,
              "velocity": 39,
              "position": 3.5,
              "duration": 0.15
            },
            {
              "pitch": 67,
              "velocity": 45,
              "position": 3.5,
              "duration": 0.15
            },
            {
              "pitch": 48,
              "velocity": 35,
              "position": 4.0,
              "duration": 0.133333
            },
            {
              "pitch": 59,
              "velocity": 35,
              "position": 4.0,
              "duration": 0.183333
            },
            {
              "pitch": 64,
              "velocity": 47,
              "position": 4.0,
              "duration": 0.141667
            },
            {
              "pitch": 67,
              "velocity": 49,
              "position": 4.0,
              "duration": 0.183333
            },
            {
              "pitch": 48,
              "velocity": 37,
              "position": 4.5,
              "duration": 0.116667
            },
            {
              "pitch": 59,
              "velocity": 36,
              "position": 4.5,
              "duration": 0.175
            },
            {
              "pitch": 64,
              "velocity": 43,
              "position": 4.5,
              "duration": 0.133333
            },
            {
              "pitch": 67,
              "velocity": 50,
              "position": 4.5,
              "duration": 0.133333
            },
            {
              "pitch": 48,
              "velocity": 53,
              "position": 5.0,
              "duration": 0.1
            },
            {
              "pitch": 59,
              "velocity": 35,
              "position": 5.0,
              "duration": 0.141667
            },
            {
              "pitch": 67,
              "velocity": 64,
              "position": 5.0,
              "duration": 0.166667
            },
            {
              "pitch": 48,
              "velocity": 33,
              "position": 5.5,
              "duration": 0.15
            },
            {
              "pitch": 59,
              "velocity": 29,
              "position": 5.5,
              "duration": 0.166667
            },
            {
              "pitch": 64,
              "velocity": 39,
              "position": 5.5,
              "duration": 0.15
            },
            {
              "pitch": 67,
              "velocity": 45,
              "position": 5.5,
              "duration": 0.15
            },
            {
              "pitch": 48,
              "velocity": 54,
              "position": 6.0,
              "duration": 0.158333
            },
            {
              "pitch": 64,
              "velocity": 61,
              "position": 6.0,
              "duration": 0.158333
            },
            {
              "pitch": 48,
              "velocity": 40,
              "position": 6.5,
              "duration": 0.125
            },
            {
              "pitch": 55,
              "velocity": 27,
              "position": 6.5,
              "duration": 0.125
            },
            {
              "pitch": 60,
              "velocity": 48,
              "position": 6.5,
              "duration": 0.183333
            },
            {
              "pitch": 64,
              "velocity": 38,
              "position": 6.5,
              "duration": 0.116667
            },
            {
              "pitch": 48,
              "velocity": 50,
              "position": 7.0,
              "duration": 0.158333
            },
            {
              "pitch": 55,
              "velocity": 41,
              "position": 7.0,
              "duration": 0.158333
            },
            {
              "pitch": 60,
              "velocity": 46,
              "position": 7.0,
              "duration": 0.166667
            },
            {
              "pitch": 64,
              "velocity": 46,
              "position": 7.0,
              "duration": 0.166667
            },
            {
              "pitch": 48,
              "velocity": 47,
              "position": 7.5,
              "duration": 0.15
            },
            {
              "pitch": 55,
              "velocity": 43,
              "position": 7.5,
              "duration": 0.166667
            },
            {
              "pitch": 60,
              "velocity": 40,
              "position": 7.5,
              "duration": 0.166667
            },
            {
              "pitch": 64,
              "velocity": 39,
              "position": 7.5,
              "duration": 0.166667
            },
            {
              "pitch": 48,
              "velocity": 48,
              "position": 8.0,
              "duration": 0.133333
            },
            {
              "pitch": 55,
              "velocity": 33,
              "position": 8.0,
              "duration": 0.141667
            },
            {
              "pitch": 60,
              "velocity": 46,
              "position": 8.0,
              "duration": 0.15
            },
            {
              "pitch": 64,
              "velocity": 43,
              "position": 8.0,
              "duration": 0.141667
            },
            {
              "pitch": 48,
              "velocity": 53,
              "position": 8.5,
              "duration": 0.133333
            },
            {
              "pitch": 55,
              "velocity": 38,
              "position": 8.5,
              "duration": 0.158333
            },
            {
              "pitch": 60,
              "velocity": 40,
              "position": 8.5,
              "duration": 0.133333
            },
            {
              "pitch": 64,
              "velocity": 40,
              "position": 8.5,
              "duration": 0.133333
            },
            {
              "pitch": 48,
              "velocity": 62,
              "position": 9.0,
              "duration": 0.158333
            },
            {
              "pitch": 64,
              "velocity": 62,
              "position": 9.0,
              "duration": 0.2
            },
            {
              "pitch": 48,
              "velocity": 44,
              "position": 9.5,
              "duration": 0.15
            },
            {
              "pitch": 55,
              "velocity": 42,
              "position": 9.5,
              "duration": 0.15
            },
            {
              "pitch": 59,
              "velocity": 41,
              "position": 9.5,
              "duration": 0.183333
            },
            {
              "pitch": 64,
              "velocity": 41,
              "position": 9.5,
              "duration": 0.15
            },
            {
              "pitch": 48,
              "velocity": 53,
              "position": 10.0,
              "duration": 0.175
            },
            {
              "pitch": 55,
              "velocity": 51,
              "position": 10.0,
              "duration": 0.175
            },
            {
              "pitch": 59,
              "velocity": 39,
              "position": 10.0,
              "duration": 0.175
            },
            {
              "pitch": 64,
              "velocity": 60,
              "position": 10.0,
              "duration": 0.191667
            },
            {
              "pitch": 48,
              "velocity": 51,
              "position": 10.5,
              "duration": 0.158333
            },
            {
              "pitch": 55,
              "velocity": 47,
              "position": 10.5,
              "duration": 0.158333
            },
            {
              "pitch": 59,
              "velocity": 41,
              "position": 10.5,
              "duration": 0.175
            },
            {
              "pitch": 64,
              "velocity": 47,
              "position": 10.5,
              "duration": 0.183333
            },
            {
              "pitch": 48,
              "velocity": 58,
              "position": 11.0,
              "duration": 0.166667
            },
            {
              "pitch": 55,
              "velocity": 51,
              "position": 11.0,
              "duration": 0.166667
            },
            {
              "pitch": 59,
              "velocity": 40,
              "position": 11.0,
              "duration": 0.166667
            },
            {
              "pitch": 64,
              "velocity": 53,
              "position": 11.0,
              "duration": 0.191667
            },
            {
              "pitch": 48,
              "velocity": 59,
              "position": 11.5,
              "duration": 0.15
            },
            {
              "pitch": 55,
              "velocity": 49,
              "position": 11.5,
              "duration": 0.166667
            },
            {
              "pitch": 59,
              "velocity": 45,
              "position": 11.5,
              "duration": 0.166667
            },
            {
              "pitch": 64,
              "velocity": 53,
              "position": 11.5,
              "duration": 0.208333
            }
          ]
        }
      }
    },
    "Main_B": {
      "type": "Main_B",
      "sizeInBeats": 12,
      "channels": {
        "9": {
          "ctab": {
            "srcChannel": 9,
            "name": "Drums",
            "accType": "RHYTHM",
            "editable": false,
            "mutedNotes": [],
            "mutedChords": [],
            "sourceChordNote": 0,
            "sourceChordType": "Maj",
            "ctb2Main": {
              "ntr": "ROOT_FIXED",
              "ntt": "BYPASS",
              "bassOn": false,
              "noteLowLimit": 20,
              "noteHighLimit": 127,
              "chordRootUpperLimit": 127,
              "rtr": "RETRIGGER"
            }
          },
          "notes": []
        },
        "10": {
          "ctab": {
            "srcChannel": 10,
            "name": "Bass",
            "accType": "BASS",
            "editable": true,
            "mutedNotes": [],
            "mutedChords": [],
            "sourceChordNote": 0,
            "sourceChordType": "Maj7",
            "ctb2Main": {
              "ntr": "ROOT_TRANSPOSITION",
              "ntt": "BYPASS",
              "bassOn": true,
              "noteLowLimit": 20,
              "noteHighLimit": 60,
              "chordRootUpperLimit": 127,
              "rtr": "NOTE_GENERATOR"
            }
          },
          "notes": [
            {
              "pitch": 36,
              "velocity": 65,
              "position": 0.0,
              "duration": 0.2
            },
            {
              "pitch": 36,
              "velocity": 49,
              "position": 0.5,
              "duration": 0.183333
            },
            {
              "pitch": 36,
              "velocity": 57,
              "position": 1.0,
              "duration": 0.225
            },
            {
              "pitch": 36,
              "velocity": 50,
              "position": 1.5,
              "duration": 0.2
            },
            {
              "pitch": 36,
              "velocity": 65,
              "position": 2.0,
              "duration": 0.2
            },
            {
              "pitch": 36,
              "velocity": 49,
              "position": 2.5,
              "duration": 0.183333
            },
            {
              "pitch": 36,
              "velocity": 65,
              "position": 3.0,
              "duration": 0.2
            },
            {
              "pitch": 36,
              "velocity": 49,
              "position": 3.5,
              "duration": 0.183333
            },
            {
              "pitch": 36,
              "velocity": 57,
              "position": 4.0,
              "duration": 0.225
            },
            {
              "pitch": 36,
              "velocity": 50,
              "position": 4.5,
              "duration": 0.2
            },
            {
              "pitch": 36,
              "velocity": 65,
              "position": 5.0,
              "duration": 0.2
            },
            {
              "pitch": 36,
              "velocity": 49,
              "position": 5.5,
              "duration": 0.183333
            },
            {
              "pitch": 36,
              "velocity": 65,
              "position": 6.0,
              "duration": 0.2
            },
            {
              "pitch": 36,
              "velocity": 49,
              "position": 6.5,
              "duration": 0.183333
            },
            {
              "pitch": 36,
              "velocity": 57,
              "position": 7.0,
              "duration": 0.225
            },
            {
              "pitch": 36,
              "velocity": 50,
              "position": 7.5,
              "duration": 0.2
            },
            {
              "pitch": 36,
              "velocity": 61,
              "position": 8.0,
              "duration": 0.208333
            },
            {
              "pitch": 36,
              "velocity": 59,
              "position": 8.5,
              "duration": 0.241667
            },
            {
              "pitch": 48,
              "velocity": 69,
              "position": 9.0,
              "duration": 0.3
            },
            {
              "pitch": 48,
              "velocity": 49,
              "position": 9.5,
              "duration": 0.208333
            },
            {
              "pitch": 48,
              "velocity": 66,
              "position": 10.0,
              "duration": 0.2
            },
            {
              "pitch": 48,
              "velocity": 51,
              "position": 10.5,
              "duration": 0.208333
            },
            {
              "pitch": 36,
              "velocity": 58,
              "position": 11.0,
              "duration": 0.208333
            },
            {
              "pitch": 36,
              "velocity": 60,
              "position": 11.5,
              "duration": 0.266667
            }
          ]
        },
        "11": {
          "ctab": {
            "srcChannel": 11,
            "name": "Piano",
            "accType": "CHORD1",
            "editable": true,
            "mutedNotes": [],
            "mutedChords": [],
            "sourceChordNote": 0,
            "sourceChordType": "Maj7",
            "ctb2Main": {
              "ntr": "ROOT_FIXED",
              "ntt": "CHORD",
              "bassOn": false,
              "noteLowLimit": 48,
              "noteHighLimit": 84,
              "chordRootUpperLimit": 127,
              "rtr": "NOTE_GENERATOR"
            }
          },
          "notes": [
            {
              "pitch": 60,
              "velocity": 70,
              "position": 0.0,
              "duration": 0.225
            },
            {
              "pitch": 67,
              "velocity": 60,
              "position": 0.25,
              "duration": 0.25
            },
            {
              "pitch": 64,
              "velocity": 53,
              "position": 0.5,
              "duration": 0.225
            },
            {
              "pitch": 67,
              "velocity": 57,
              "position": 0.75,
              "duration": 0.25
            },
            {
              "pitch": 60,
              "velocity": 65,
              "position": 1.0,
              "duration": 0.208333
            },
            {
              "pitch": 67,
              "velocity": 54,
              "position": 1.25,
              "duration": 0.233333
            },
            {
              "pitch": 64,
              "velocity": 50,
              "position": 1.5,
              "duration": 0.216667
            },
            {
              "pitch": 67,
              "velocity": 57,
              "position": 1.75,
              "duration": 0.208333
            },
            {
              "pitch": 59,
              "velocity": 57,
              "position": 2.0,
              "duration": 0.8
            },
            {
              "pitch": 60,
              "velocity": 54,
              "position": 2.0,
              "duration": 0.908333
            },
            {
              "pitch": 60,
              "velocity": 67,
              "position": 3.0,
              "duration": 0.25
            },
            {
              "pitch": 71,
              "velocity": 62,
              "position": 3.25,
              "duration": 0.233333
            },
            {
              "pitch": 64,
              "velocity": 58,
              "position": 3.5,
              "duration": 0.208333
            },
            {
              "pitch": 71,
              "velocity": 55,
              "position": 3.75,
              "duration": 0.275
            },
            {
              "pitch": 60,
              "velocity": 66,
              "position": 4.025,
              "duration": 0.3
            },
            {
              "pitch": 71,
              "velocity": 46,
              "position": 4.25,
              "duration": 0.266667
            },
            {
              "pitch": 64,
              "velocity": 62,
              "position": 4.516667,
              "duration": 0.25
            },
            {
              "pitch": 71,
              "velocity": 54,
              "position": 4.75,
              "duration": 0.208333
            },
            {
              "pitch": 59,
              "velocity": 57,
              "position": 5.0,
              "duration": 0.8
            },
            {
              "pitch": 60,
              "velocity": 54,
              "position": 5.0,
              "duration": 0.908333
            },
            {
              "pitch": 60,
              "velocity": 66,
              "position": 6.0,
              "duration": 0.208333
            },
            {
              "pitch": 64,
              "velocity": 58,
              "position": 6.25,
              "duration": 0.225
            },
            {
              "pitch": 67,
              "velocity": 60,
              "position": 6.5,
              "duration": 0.25
            },
            {
              "pitch": 64,
              "velocity": 57,
              "position": 6.75,
              "duration": 0.25
            },
            {
              "pitch": 67,
              "velocity": 64,
              "position": 7.0,
              "duration": 0.225
            },
            {
              "pitch": 64,
              "velocity": 64,
              "position": 7.25,
              "duration": 0.216667
            },
            {
              "pitch": 67,
              "velocity": 53,
              "position": 7.5,
              "duration": 0.308333
            },
            {
              "pitch": 64,
              "velocity": 63,
              "position": 7.75,
              "duration": 0.25
            },
            {
              "pitch": 59,
              "velocity": 54,
              "position": 8.0,
              "duration": 0.3
            },
            {
              "pitch": 64,
              "velocity": 57,
              "position": 8.25,
              "duration": 0.266667
            },
            {
              "pitch": 67,
              "velocity": 55,
              "position": 8.5,
              "duration": 0.283333
            },
            {
              "pitch": 64,
              "velocity": 61,
              "position": 8.75,
              "duration": 0.283333
            },
            {
              "pitch": 60,
              "velocity": 65,
              "position": 9.0,
              "duration": 0.275
            },
            {
              "pitch": 64,
              "velocity": 63,
              "position": 9.25,
              "duration": 0.208333
            },
            {
              "pitch": 67,
              "velocity": 62,
              "position": 9.5,
              "duration": 0.25
            },
            {
              "pitch": 64,
              "velocity": 61,
              "position": 9.75,
              "duration": 0.2
            },
            {
              "pitch": 67,
              "velocity": 64,
              "position": 10.0,
              "duration": 0.25
            },
            {
              "pitch": 64,
              "velocity": 60,
              "position": 10.25,
              "duration": 0.225
            },
            {
              "pitch": 67,
              "velocity": 63,
              "position": 10.5,
              "duration": 0.241667
            },
            {
              "pitch": 64,
              "velocity": 59,
              "position": 10.75,
              "duration": 0.25
            },
            {
              "pitch": 55,
              "velocity": 69,
              "position": 11.0,
              "duration": 0.275
            },
            {
              "pitch": 64,
              "velocity": 60,
              "position": 11.25,
              "duration": 0.225
            },
            {
              "pitch": 67,
              "velocity": 53,
              "position": 11.5,
              "duration": 0.291667
            },
            {
              "pitch": 64,
              "velocity": 66,
              "position": 11.75,
              "duration": 0.175
            }
          ]
        },
        "12": {
          "ctab": {
            "srcChannel": 12,
            "name": "Guitar",
            "accType": "CHORD2",
            "editable": true,
            "mutedNotes": [],
            "mutedChords": [],
            "sourceChordNote": 0,
            "sourceChordType": "Maj7",
            "ctb2Main": {
              "ntr": "ROOT_FIXED",
              "ntt": "CHORD",
              "bassOn": false,
              "noteLowLimit": 40,
              "noteHighLimit": 76,
              "chordRootUpperLimit": 127,
              "rtr": "NOTE_GENERATOR"
            }
          },
          "notes": [
            {
              "pitch": 67,
              "velocity": 45,
              "position": 0.016667,
              "duration": 0.158333
            },
            {
              "pitch": 64,
              "velocity": 49,
              "position": 0.5,
              "duration": 0.158333
            },
            {
              "pitch": 67,
              "velocity": 49,
              "position": 1.058333,
              "duration": 0.116667
            },
            {
              "pitch": 64,
              "velocity": 44,
              "position": 1.525,
              "duration": 0.158333
            },
            {
              "pitch": 64,
              "velocity": 50,
              "position": 2.016667,
              "duration": 0.183333
            },
            {
              "pitch": 60,
              "velocity": 33,
              "position": 2.508333,
              "duration": 0.183333
            },
            {
              "pitch": 55,
              "velocity": 42,
              "position": 2.525,
              "duration": 0.141667
            },
            {
              "pitch": 67,
              "velocity": 45,
              "position": 3.016667,
              "duration": 0.158333
            },
            {
              "pitch": 64,
              "velocity": 49,
              "position": 3.5,
              "duration": 0.158333
            },
            {
              "pitch": 67,
              "velocity": 49,
              "position": 4.058333,
              "duration": 0.116667
            },
            {
              "pitch": 64,
              "velocity": 44,
              "position": 4.525,
              "duration": 0.158333
            },
            {
              "pitch": 64,
              "velocity": 50,
              "position": 5.016667,
              "duration": 0.183333
            },
            {
              "pitch": 60,
              "velocity": 33,
              "position": 5.508333,
              "duration": 0.183333
            },
            {
              "pitch": 55,
              "velocity": 42,
              "position": 5.525,
              "duration": 0.141667
            },
            {
              "pitch": 64,
              "velocity": 50,
              "position": 6.016667,
              "duration": 0.183333
            },
            {
              "pitch": 60,
              "velocity": 33,
              "position": 6.508333,
              "duration": 0.183333
            },
            {
              "pitch": 55,
              "velocity": 42,
              "position": 6.525,
              "duration": 0.141667
            },
            {
              "pitch": 59,
              "velocity": 33,
              "position": 7.008333,
              "duration": 0.191667
            },
            {
              "pitch": 55,
              "velocity": 49,
              "position": 7.025,
              "duration": 0.15
            },
            {
              "pitch": 55,
              "velocity": 49,
              "position": 7.533333,
              "duration": 0.133333
            },
            {
              "pitch": 59,
              "velocity": 34,
              "position": 7.533333,
              "duration": 0.175
            },
            {
              "pitch": 55,
              "velocity": 48,
              "position": 8.025,
              "duration": 0.15
            },
            {
              "pitch": 59,
              "velocity": 33,
              "position": 8.05,
              "duration": 0.183333
            },
            {
              "pitch": 59,
              "velocity": 36,
              "position": 8.533333,
              "duration": 0.15
            },
            {
              "pitch": 55,
              "velocity": 55,
              "position": 8.55,
              "duration": 0.1
            },
            {
              "pitch": 71,
              "velocity": 54,
              "position": 9.008333,
              "duration": 0.125
            },
            {
              "pitch": 59,
              "velocity": 38,
              "position": 9.525,
              "duration": 0.166667
            },
            {
              "pitch": 67,
              "velocity": 45,
              "position": 9.525,
              "duration": 0.2
            },
            {
              "pitch": 59,
              "velocity": 34,
              "position": 10.016667,
              "duration": 0.15
            },
            {
              "pitch": 64,
              "velocity": 42,
              "position": 10.025,
              "duration": 0.175
            },
            {
              "pitch": 59,
              "velocity": 39,
              "position": 10.516667,
              "duration": 0.15
            },
            {
              "pitch": 64,
              "velocity": 43,
              "position": 10.525,
              "duration": 0.2
            },
            {
              "pitch": 59,
              "velocity": 45,
              "position": 11.008333,
              "duration": 0.166667
            },
            {
              "pitch": 64,
              "velocity": 42,
              "position": 11.033333,
              "duration": 0.175
            },
            {
              "pitch": 59,
              "velocity": 47,
              "position": 11.55,
              "duration": 0.15
            },
            {
              "pitch": 64,
              "velocity": 45,
              "position": 11.55,
              "duration": 0.166667
            }
          ]
        },
        "13": {
          "ctab": {
            "srcChannel": 13,
            "name": "Strings",
            "accType": "PAD",
            "editable": true,
            "mutedNotes": [],
            "mutedChords": [],
            "sourceChordNote": 0,
            "sourceChordType": "Maj7",
            "ctb2Main": {
              "ntr": "ROOT_FIXED",
              "ntt": "MELODY",
              "bassOn": false,
              "noteLowLimit": 36,
              "noteHighLimit": 96,
              "chordRootUpperLimit": 127,
              "rtr": "PITCH_SHIFT"
            }
          },
          "notes": [
            {
              "pitch": 48,
              "velocity": 54,
              "position": 0.0,
              "duration": 0.158333
            },
            {
              "pitch": 55,
              "velocity": 44,
              "position": 0.0,
              "duration": 0.158333
            },
            {
              "pitch": 64,
              "velocity": 61,
              "position": 0.0,
              "duration": 0.158333
            },
            {
              "pitch": 48,
              "velocity": 40,
              "position": 0.5,
              "duration": 0.125
            },
            {
              "pitch": 55,
              "velocity": 27,
              "position": 0.5,
              "duration": 0.125
            },
            {
              "pitch": 60,
              "velocity": 48,
              "position": 0.5,
              "duration": 0.183333
            },
            {
              "pitch": 64,
              "velocity": 38,
              "position": 0.5,
              "duration": 0.116667
            },
            {
              "pitch": 48,
              "velocity": 50,
              "position": 1.0,
              "duration": 0.158333
            },
            {
              "pitch": 55,
              "velocity": 41,
              "position": 1.0,
              "duration": 0.158333
            },
            {
              "pitch": 60,
              "velocity": 46,
              "position": 1.0,
              "duration": 0.166667
            },
            {
              "pitch": 64,
              "velocity": 46,
              "position": 1.0,
              "duration": 0.166667
            },
            {
              "pitch": 48,
              "velocity": 47,
              "position": 1.5,
              "duration": 0.15
            },
            {
              "pitch": 55,
              "velocity": 43,
              "position": 1.5,
              "duration": 0.166667
            },
            {
              "pitch": 60,
              "velocity": 40,
              "position": 1.5,
              "duration": 0.166667
            },
            {
              "pitch": 64,
              "velocity": 39,
              "position": 1.5,
              "duration": 0.166667
            },
            {
              "pitch": 48,
              "velocity": 53,
              "position": 2.0,
              "duration": 0.1
            },
            {
              "pitch": 59,
              "velocity": 35,
              "position": 2.0,
              "duration": 0.141667
            },
            {
              "pitch": 67,
              "velocity": 64,
              "position": 2.0,
              "duration": 0.166667
            },
            {
              "pitch": 48,
              "velocity": 33,
              "position": 2.5,
              "duration": 0.15
            },
            {
              "pitch": 59,
              "velocity": 29,
              "position": 2.5,
              "duration": 0.166667
            },
            {
              "pitch": 64,
              "velocity": 39,
              "position": 2.5,
              "duration": 0.15
            },
            {
              "pitch": 67,
              "velocity": 45,
              "position": 2.5,
              "duration": 0.15
            },
            {
              "pitch": 48,
              "velocity": 53,
              "position": 3.0,
              "duration": 0.1
            },
            {
              "pitch": 67,
              "velocity": 64,
              "position": 3.0,
              "duration": 0.166667
            },
            {
              "pitch": 48,
              "velocity": 33,
              "position": 3.5,
              "duration": 0.15
            },
            {
              "pitch": 59,
              "velocity": 29,
              "position": 3.5,
              "duration": 0.166667
            },
            {
              "pitch": 64,
              "velocity": 39,
              "position": 3.5,
              "duration": 0.15
            },
            {
              "pitch": 67,
              "velocity": 45,
              "position": 3.5,
              "duration": 0.15
            },
            {
              "pitch": 48,
              "velocity": 35,
              "position": 4.0,
              "duration": 0.133333
            },
            {
              "pitch": 59,
              "velocity": 35,
              "position": 4.0,
              "duration": 0.183333
            },
            {
              "pitch": 64,
              "velocity": 47,
              "position": 4.0,
              "duration": 0.141667
            },
            {
              "pitch": 67,
              "velocity": 49,
              "position": 4.0,
              "duration": 0.183333
            },
            {
              "pitch": 48,
              "velocity": 37,
              "position": 4.5,
              "duration": 0.116667
            },
            {
              "pitch": 59,
              "velocity": 36,
              "position": 4.5,
              "duration": 0.175
            },
            {
              "pitch": 64,
              "velocity": 43,
              "position": 4.5,
              "duration": 0.133333
            },
            {
              "pitch": 67,
              "velocity": 50,
              "position": 4.5,
              "duration": 0.133333
            },
            {
              "pitch": 48,
              "velocity": 53,
              "position": 5.0,
              "duration": 0.1
            },
            {
              "pitch": 59,
              "velocity": 35,
              "position": 5.0,
              "duration": 0.141667
            },
            {
              "pitch": 67,
              "velocity": 64,
              "position": 5.0,
              "duration": 0.166667
            },
            {
              "pitch": 48,
              "velocity": 33,
              "position": 5.5,
              "duration": 0.15
            },
            {
              "pitch": 59,
              "velocity": 29,
              "position": 5.5,
              "duration": 0.166667
            },
            {
              "pitch": 64,
              "velocity": 39,
              "position": 5.5,
              "duration": 0.15
            },
            {
              "pitch": 67,
              "velocity": 45,
              "position": 5.5,
              "duration": 0.15
            },
            {
              "pitch": 48,
              "velocity": 53,
              "position": 6.0,
              "duration": 0.1
            },
            {
              "pitch": 67,
              "velocity": 64,
              "position": 6.0,
              "duration": 0.166667
            },
            {
              "pitch": 48,
              "velocity": 33,
              "position": 6.5,
              "duration": 0.15
            },
            {
              "pitch": 59,
              "velocity": 29,
              "position": 6.5,
              "duration": 0.166667
            },
            {
              "pitch": 64,
              "velocity": 39,
              "position": 6.5,
              "duration": 0.15
            },
            {
              "pitch": 67,
              "velocity": 45,
              "position": 6.5,
              "duration": 0.15
            },
            {
              "pitch": 48,
              "velocity": 35,
              "position": 7.0,
              "duration": 0.133333
            },
            {
              "pitch": 59,
              "velocity": 35,
              "position": 7.0,
              "duration": 0.183333
            },
            {
              "pitch": 64,
              "velocity": 47,
              "position": 7.0,
              "duration": 0.141667
            },
            {
              "pitch": 67,
              "velocity": 49,
              "position": 7.0,
              "duration": 0.183333
            },
            {
              "pitch": 48,
              "velocity": 37,
              "position": 7.5,
              "duration": 0.116667
            },
            {
              "pitch": 59,
              "velocity": 36,
              "position": 7.5,
              "duration": 0.175
            },
            {
              "pitch": 64,
              "velocity": 43,
              "position": 7.5,
              "duration": 0.133333
            },
            {
              "pitch": 67,
              "velocity": 50,
              "position": 7.5,
              "duration": 0.133333
            },
            {
              "pitch": 48,
              "velocity": 38,
              "position": 8.0,
              "duration": 0.116667
            },
            {
              "pitch": 59,
              "velocity": 36,
              "position": 8.0,
              "duration": 0.158333
            },
            {
              "pitch": 64,
              "velocity": 48,
              "position": 8.0,
              "duration": 0.158333
            },
            {
              "pitch": 67,
              "velocity": 49,
              "position": 8.0,
              "duration": 0.158333
            },
            {
              "pitch": 48,
              "velocity": 47,
              "position": 8.5,
              "duration": 0.116667
            },
            {
              "pitch": 59,
              "velocity": 39,
              "position": 8.5,
              "duration": 0.191667
            },
            {
              "pitch": 64,
              "velocity": 54,
              "position": 8.5,
              "duration": 0.141667
            },
            {
              "pitch": 67,
              "velocity": 50,
              "position": 8.5,
              "duration": 0.116667
            },
            {
              "pitch": 48,
              "velocity": 51,
              "position": 9.0,
              "duration": 0.158333
            },
            {
              "pitch": 71,
              "velocity": 70,
              "position": 9.0,
              "duration": 0.158333
            },
            {
              "pitch": 48,
              "velocity": 31,
              "position": 9.5,
              "duration": 0.183333
            },
            {
              "pitch": 60,
              "velocity": 41,
              "position": 9.5,
              "duration": 0.166667
            },
            {
              "pitch": 64,
              "velocity": 47,
              "position": 9.5,
              "duration": 0.15
            },
            {
              "pitch": 71,
              "velocity": 51,
              "position": 9.5,
              "duration": 0.183333
            },
            {
              "pitch": 48,
              "velocity": 40,
              "position": 10.0,
              "duration": 0.158333
            },
            {
              "pitch": 60,
              "velocity": 51,
              "position": 10.0,
              "duration": 0.158333
            },
            {
              "pitch": 64,
              "velocity": 42,
              "position": 10.0,
              "duration": 0.116667
            },
            {
              "pitch": 71,
              "velocity": 50,
              "position": 10.0,
              "duration": 0.183333
            },
            {
              "pitch": 48,
              "velocity": 43,
              "position": 10.5,
              "duration": 0.141667
            },
            {
              "pitch": 60,
              "velocity": 46,
              "position": 10.5,
              "duration": 0.141667
            },
            {
              "pitch": 64,
              "velocity": 46,
              "position": 10.5,
              "duration": 0.141667
            },
            {
              "pitch": 71,
              "velocity": 49,
              "position": 10.5,
              "duration": 0.175
            },
            {
              "pitch": 48,
              "velocity": 52,
              "position": 11.0,
              "duration": 0.166667
            },
            {
              "pitch": 60,
              "velocity": 48,
              "position": 11.0,
              "duration": 0.15
            },
            {
              "pitch": 64,
              "velocity": 45,
              "position": 11.0,
              "duration": 0.125
            },
            {
              "pitch": 71,
              "velocity": 52,
              "position": 11.0,
              "duration": 0.166667
            },
            {
              "pitch": 48,
              "velocity": 54,
              "position": 11.5,
              "duration": 0.191667
            },
            {
              "pitch": 60,
              "velocity": 52,
              "position": 11.5,
              "duration": 0.191667
            },
            {
              "pitch": 64,
              "velocity": 56,
              "position": 11.5,
              "duration": 0.158333
            },
            {
              "pitch": 71,
              "velocity": 58,
              "position": 11.5,
              "duration": 0.191667
            }
          ]
        }
      }
    },
    "Main_C": {
      "type": "Main_C",
      "sizeInBeats": 12,
      "channels": {
        "9": {
          "ctab": {
            "srcChannel": 9,
            "name": "Drums",
            "accType": "RHYTHM",
            "editable": false,
            "mutedNotes": [],
            "mutedChords": [],
            "sourceChordNote": 0,
            "sourceChordType": "Maj",
            "ctb2Main": {
              "ntr": "ROOT_FIXED",
              "ntt": "BYPASS",
              "bassOn": false,
              "noteLowLimit": 20,
              "noteHighLimit": 127,
              "chordRootUpperLimit": 127,
              "rtr": "RETRIGGER"
            }
          },
          "notes": []
        },
        "10": {
          "ctab": {
            "srcChannel": 10,
            "name": "Bass",
            "accType": "BASS",
            "editable": true,
            "mutedNotes": [],
            "mutedChords": [],
            "sourceChordNote": 0,
            "sourceChordType": "Maj7",
            "ctb2Main": {
              "ntr": "ROOT_TRANSPOSITION",
              "ntt": "BYPASS",
              "bassOn": true,
              "noteLowLimit": 20,
              "noteHighLimit": 60,
              "chordRootUpperLimit": 127,
              "rtr": "NOTE_GENERATOR"
            }
          },
          "notes": [
            {
              "pitch": 36,
              "velocity": 65,
              "position": 0.0,
              "duration": 0.2
            },
            {
              "pitch": 36,
              "velocity": 49,
              "position": 0.5,
              "duration": 0.183333
            },
            {
              "pitch": 36,
              "velocity": 57,
              "position": 1.0,
              "duration": 0.225
            },
            {
              "pitch": 36,
              "velocity": 50,
              "position": 1.5,
              "duration": 0.2
            },
            {
              "pitch": 36,
              "velocity": 65,
              "position": 2.0,
              "duration": 0.2
            },
            {
              "pitch": 36,
              "velocity": 49,
              "position": 2.5,
              "duration": 0.183333
            },
            {
              "pitch": 36,
              "velocity": 65,
              "position": 3.0,
              "duration": 0.2
            },
            {
              "pitch": 36,
              "velocity": 49,
              "position": 3.5,
              "duration": 0.183333
            },
            {
              "pitch": 36,
              "velocity": 57,
              "position": 4.0,
              "duration": 0.225
            },
            {
              "pitch": 36,
              "velocity": 50,
              "position": 4.5,
              "duration": 0.2
            },
            {
              "pitch": 36,
              "velocity": 65,
              "position": 5.0,
              "duration": 0.2
            },
            {
              "pitch": 36,
              "velocity": 49,
              "position": 5.5,
              "duration": 0.183333
            },
            {
              "pitch": 36,
              "velocity": 65,
              "position": 6.0,
              "duration": 0.2
            },
            {
              "pitch": 36,
              "velocity": 49,
              "position": 6.5,
              "duration": 0.183333
            },
            {
              "pitch": 36,
              "velocity": 57,
              "position": 7.0,
              "duration": 0.225
            },
            {
              "pitch": 36,
              "velocity": 50,
              "position": 7.5,
              "duration": 0.2
            },
            {
              "pitch": 36,
              "velocity": 61,
              "position": 8.0,
              "duration": 0.208333
            },
            {
              "pitch": 36,
              "velocity": 59,
              "position": 8.5,
              "duration": 0.241667
            },
            {
              "pitch": 48,
              "velocity": 69,
              "position": 9.0,
              "duration": 0.3
            },
            {
              "pitch": 48,
              "velocity": 49,
              "position": 9.5,
              "duration": 0.208333
            },
            {
              "pitch": 48,
              "velocity": 66,
              "position": 10.0,
              "duration": 0.2
            },
            {
              "pitch": 48,
              "velocity": 51,
              "position": 10.5,
              "duration": 0.208333
            },
            {
              "pitch": 36,
              "velocity": 58,
              "position": 11.0,
              "duration": 0.208333
            },
            {
              "pitch": 36,
              "velocity": 60,
              "position": 11.5,
              "duration": 0.266667
            }
          ]
        },
        "11": {
          "ctab": {
            "srcChannel": 11,
            "name": "Piano",
            "accType": "CHORD1",
            "editable": true,
            "mutedNotes": [],
            "mutedChords": [],
            "sourceChordNote": 0,
            "sourceChordType": "Maj7",
            "ctb2Main": {
              "ntr": "ROOT_FIXED",
              "ntt": "CHORD",
              "bassOn": false,
              "noteLowLimit": 48,
              "noteHighLimit": 84,
              "chordRootUpperLimit": 127,
              "rtr": "NOTE_GENERATOR"
            }
          },
          "notes": [
            {
              "pitch": 60,
              "velocity": 67,
              "position": 0.0,
              "duration": 0.25
            },
            {
              "pitch": 71,
              "velocity": 62,
              "position": 0.25,
              "duration": 0.233333
            },
            {
              "pitch": 64,
              "velocity": 58,
              "position": 0.5,
              "duration": 0.208333
            },
            {
              "pitch": 71,
              "velocity": 55,
              "position": 0.75,
              "duration": 0.275
            },
            {
              "pitch": 60,
              "velocity": 66,
              "position": 1.025,
              "duration": 0.3
            },
            {
              "pitch": 71,
              "velocity": 46,
              "position": 1.25,
              "duration": 0.266667
            },
            {
              "pitch": 64,
              "velocity": 62,
              "position": 1.516667,
              "duration": 0.25
            },
            {
              "pitch": 71,
              "velocity": 54,
              "position": 1.75,
              "duration": 0.208333
            },
            {
              "pitch": 59,
              "velocity": 57,
              "position": 2.0,
              "duration": 0.8
            },
            {
              "pitch": 60,
              "velocity": 54,
              "position": 2.0,
              "duration": 0.908333
            },
            {
              "pitch": 60,
              "velocity": 70,
              "position": 3.0,
              "duration": 0.225
            },
            {
              "pitch": 67,
              "velocity": 60,
              "position": 3.25,
              "duration": 0.25
            },
            {
              "pitch": 64,
              "velocity": 53,
              "position": 3.5,
              "duration": 0.225
            },
            {
              "pitch": 67,
              "velocity": 57,
              "position": 3.75,
              "duration": 0.25
            },
            {
              "pitch": 60,
              "velocity": 65,
              "position": 4.0,
              "duration": 0.208333
            },
            {
              "pitch": 67,
              "velocity": 54,
              "position": 4.25,
              "duration": 0.233333
            },
            {
              "pitch": 64,
              "velocity": 50,
              "position": 4.5,
              "duration": 0.216667
            },
            {
              "pitch": 67,
              "velocity": 57,
              "position": 4.75,
              "duration": 0.208333
            },
            {
              "pitch": 59,
              "velocity": 57,
              "position": 5.0,
              "duration": 0.8
            },
            {
              "pitch": 60,
              "velocity": 54,
              "position": 5.0,
              "duration": 0.908333
            },
            {
              "pitch": 60,
              "velocity": 66,
              "position": 6.0,
              "duration": 0.258333
            },
            {
              "pitch": 64,
              "velocity": 61,
              "position": 6.258333,
              "duration": 0.233333
            },
            {
              "pitch": 67,
              "velocity": 57,
              "position": 6.5,
              "duration": 0.25
            },
            {
              "pitch": 64,
              "velocity": 59,
              "position": 6.75,
              "duration": 0.25
            },
            {
              "pitch": 67,
              "velocity": 66,
              "position": 7.0,
              "duration": 0.258333
            },
            {
              "pitch": 64,
              "velocity": 53,
              "position": 7.258333,
              "duration": 0.216667
            },
            {
              "pitch": 67,
              "velocity": 60,
              "position": 7.5,
              "duration": 0.266667
            },
            {
              "pitch": 64,
              "velocity": 61,
              "position": 7.75,
              "duration": 0.225
            },
            {
              "pitch": 67,
              "velocity": 66,
              "position": 8.0,
              "duration": 0.241667
            },
            {
              "pitch": 64,
              "velocity": 55,
              "position": 8.25,
              "duration": 0.216667
            },
            {
              "pitch": 67,
              "velocity": 50,
              "position": 8.5,
              "duration": 0.266667
            },
            {
              "pitch": 64,
              "velocity": 56,
              "position": 8.75,
              "duration": 0.25
            },
            {
              "pitch": 59,
              "velocity": 62,
              "position": 9.0,
              "duration": 0.308333
            },
            {
              "pitch": 64,
              "velocity": 58,
              "position": 9.25,
              "duration": 0.225
            },
            {
              "pitch": 67,
              "velocity": 63,
              "position": 9.5,
              "duration": 0.25
            },
            {
              "pitch": 64,
              "velocity": 59,
              "position": 9.75,
              "duration": 0.25
            },
            {
              "pitch": 67,
              "velocity": 66,
              "position": 10.0,
              "duration": 0.283333
            },
            {
              "pitch": 64,
              "velocity": 59,
              "position": 10.283333,
              "duration": 0.175
            },
            {
              "pitch": 67,
              "velocity": 65,
              "position": 10.5,
              "duration": 0.258333
            },
            {
              "pitch": 64,
              "velocity": 59,
              "position": 10.75,
              "duration": 0.233333
            },
            {
              "pitch": 67,
              "velocity": 68,
              "position": 11.0,
              "duration": 0.25
            },
            {
              "pitch": 64,
              "velocity": 58,
              "position": 11.25,
              "duration": 0.225
            },
            {
              "pitch": 67,
              "velocity": 67,
              "position": 11.5,
              "duration": 0.258333
            },
            {
              "pitch": 64,
              "velocity": 66,
              "position": 11.75,
              "duration": 0.191667
            }
          ]
        },
        "12": {
          "ctab": {
            "srcChannel": 12,
            "name": "Guitar",
            "accType": "CHORD2",
            "editable": true,
            "mutedNotes": [],
            "mutedChords": [],
            "sourceChordNote": 0,
            "sourceChordType": "Maj7",
            "ctb2Main": {
              "ntr": "ROOT_FIXED",
              "ntt": "CHORD",
              "bassOn": false,
              "noteLowLimit": 40,
              "noteHighLimit": 76,
              "chordRootUpperLimit": 127,
              "rtr": "NOTE_GENERATOR"
            }
          },
          "notes": [
            {
              "pitch": 67,
              "velocity": 45,
              "position": 0.016667,
              "duration": 0.158333
            },
            {
              "pitch": 64,
              "velocity": 49,
              "position": 0.5,
              "duration": 0.158333
            },
            {
              "pitch": 67,
              "velocity": 49,
              "position": 1.058333,
              "duration": 0.116667
            },
            {
              "pitch": 64,
              "velocity": 44,
              "position": 1.525,
              "duration": 0.158333
            },
            {
              "pitch": 67,
              "velocity": 45,
              "position": 2.016667,
              "duration": 0.158333
            },
            {
              "pitch": 64,
              "velocity": 49,
              "position": 2.5,
              "duration": 0.158333
            },
            {
              "pitch": 67,
              "velocity": 45,
              "position": 3.016667,
              "duration": 0.158333
            },
            {
              "pitch": 64,
              "velocity": 49,
              "position": 3.5,
              "duration": 0.158333
            },
            {
              "pitch": 67,
              "velocity": 49,
              "position": 4.058333,
              "duration": 0.116667
            },
            {
              "pitch": 64,
              "velocity": 44,
              "position": 4.525,
              "duration": 0.158333
            },
            {
              "pitch": 67,
              "velocity": 45,
              "position": 5.016667,
              "duration": 0.158333
            },
            {
              "pitch": 64,
              "velocity": 49,
              "position": 5.5,
              "duration": 0.158333
            },
            {
              "pitch": 64,
              "velocity": 50,
              "position": 6.016667,
              "duration": 0.183333
            },
            {
              "pitch": 60,
              "velocity": 33,
              "position": 6.508333,
              "duration": 0.183333
            },
            {
              "pitch": 55,
              "velocity": 42,
              "position": 6.525,
              "duration": 0.141667
            },
            {
              "pitch": 59,
              "velocity": 33,
              "position": 7.008333,
              "duration": 0.191667
            },
            {
              "pitch": 55,
              "velocity": 49,
              "position": 7.025,
              "duration": 0.15
            },
            {
              "pitch": 55,
              "velocity": 49,
              "position": 7.533333,
              "duration": 0.133333
            },
            {
              "pitch": 59,
              "velocity": 34,
              "position": 7.533333,
              "duration": 0.175
            },
            {
              "pitch": 55,
              "velocity": 48,
              "position": 8.025,
              "duration": 0.15
            },
            {
              "pitch": 59,
              "velocity": 33,
              "position": 8.05,
              "duration": 0.183333
            },
            {
              "pitch": 59,
              "velocity": 36,
              "position": 8.533333,
              "duration": 0.15
            },
            {
              "pitch": 55,
              "velocity": 55,
              "position": 8.55,
              "duration": 0.1
            },
            {
              "pitch": 71,
              "velocity": 54,
              "position": 9.008333,
              "duration": 0.125
            },
            {
              "pitch": 59,
              "velocity": 38,
              "position": 9.525,
              "duration": 0.166667
            },
            {
              "pitch": 67,
              "velocity": 45,
              "position": 9.525,
              "duration": 0.2
            },
            {
              "pitch": 59,
              "velocity": 34,
              "position": 10.016667,
              "duration": 0.15
            },
            {
              "pitch": 64,
              "velocity": 42,
              "position": 10.025,
              "duration": 0.175
            },
            {
              "pitch": 59,
              "velocity": 39,
              "position": 10.516667,
              "duration": 0.15
            },
            {
              "pitch": 64,
              "velocity": 43,
              "position": 10.525,
              "duration": 0.2
            },
            {
              "pitch": 59,
              "velocity": 45,
              "position": 11.008333,
              "duration": 0.166667
            },
            {
              "pitch": 64,
              "velocity": 42,
              "position": 11.033333,
              "duration": 0.175
            },
            {
              "pitch": 59,
              "velocity": 47,
              "position": 11.55,
              "duration": 0.15
            },
            {
              "pitch": 64,
              "velocity": 45,
              "position": 11.55,
              "duration": 0.166667
            }
          ]
        },
        "13": {
          "ctab": {
            "srcChannel": 13,
            "name": "Strings",
            "accType": "PAD",
            "editable": true,
            "mutedNotes": [],
            "mutedChords": [],
            "sourceChordNote": 0,
            "sourceChordType": "Maj7",
            "ctb2Main": {
              "ntr": "ROOT_FIXED",
              "ntt": "MELODY",
              "bassOn": false,
              "noteLowLimit": 36,
              "noteHighLimit": 96,
              "chordRootUpperLimit": 127,
              "rtr": "PITCH_SHIFT"
            }
          },
          "notes": [
            {
              "pitch": 48,
              "velocity": 53,
              "position": 0.0,
              "duration": 0.1
            },
            {
              "pitch": 67,
              "velocity": 64,
              "position": 0.0,
              "duration": 0.166667
            },
            {
              "pitch": 48,
              "velocity": 33,
              "position": 0.5,
              "duration": 0.15
            },
            {
              "pitch": 59,
              "velocity": 29,
              "position": 0.5,
              "duration": 0.166667
            },
            {
              "pitch": 64,
              "velocity": 39,
              "position": 0.5,
              "duration": 0.15
            },
            {
              "pitch": 67,
              "velocity": 45,
              "position": 0.5,
              "duration": 0.15
            },
            {
              "pitch": 48,
              "velocity": 35,
              "position": 1.0,
              "duration": 0.133333
            },
            {
              "pitch": 59,
              "velocity": 35,
              "position": 1.0,
              "duration": 0.183333
            },
            {
              "pitch": 64,
              "velocity": 47,
              "position": 1.0,
              "duration": 0.141667
            },
            {
              "pitch": 67,
              "velocity": 49,
              "position": 1.0,
              "duration": 0.183333
            },
            {
              "pitch": 48,
              "velocity": 37,
              "position": 1.5,
              "duration": 0.116667
            },
            {
              "pitch": 59,
              "velocity": 36,
              "position": 1.5,
              "duration": 0.175
            },
            {
              "pitch": 64,
              "velocity": 43,
              "position": 1.5,
              "duration": 0.133333
            },
            {
              "pitch": 67,
              "velocity": 50,
              "position": 1.5,
              "duration": 0.133333
            },
            {
              "pitch": 48,
              "velocity": 53,
              "position": 2.0,
              "duration": 0.1
            },
            {
              "pitch": 59,
              "velocity": 35,
              "position": 2.0,
              "duration": 0.141667
            },
            {
              "pitch": 67,
              "velocity": 64,
              "position": 2.0,
              "duration": 0.166667
            },
            {
              "pitch": 48,
              "velocity": 33,
              "position": 2.5,
              "duration": 0.15
            },
            {
              "pitch": 59,
              "velocity": 29,
              "position": 2.5,
              "duration": 0.166667
            },
            {
              "pitch": 64,
              "velocity": 39,
              "position": 2.5,
              "duration": 0.15
            },
            {
              "pitch": 67,
              "velocity": 45,
              "position": 2.5,
              "duration": 0.15
            },
            {
              "pitch": 48,
              "velocity": 53,
              "position": 3.0,
              "duration": 0.1
            },
            {
              "pitch": 67,
              "velocity": 64,
              "position": 3.0,
              "duration": 0.166667
            },
            {
              "pitch": 48,
              "velocity": 33,
              "position": 3.5,
              "duration": 0.15
            },
            {
              "pitch": 59,
              "velocity": 29,
              "position": 3.5,
              "duration": 0.166667
            },
            {
              "pitch": 64,
              "velocity": 39,
              "position": 3.5,
              "duration": 0.15
            },
            {
              "pitch": 67,
              "velocity": 45,
              "position": 3.5,
              "duration": 0.15
            },
            {
              "pitch": 48,
              "velocity": 35,
              "position": 4.0,
              "duration": 0.133333
            },
            {
              "pitch": 59,
              "velocity": 35,
              "position": 4.0,
              "duration": 0.183333
            },
            {
              "pitch": 64,
              "velocity": 47,
              "position": 4.0,
              "duration": 0.141667
            },
            {
              "pitch": 67,
              "velocity": 49,
              "position": 4.0,
              "duration": 0.183333
            },
            {
              "pitch": 48,
              "velocity": 37,
              "position": 4.5,
              "duration": 0.116667
            },
            {
              "pitch": 59,
              "velocity": 36,
              "position": 4.5,
              "duration": 0.175
            },
            {
              "pitch": 64,
              "velocity": 43,
              "position": 4.5,
              "duration": 0.133333
            },
            {
              "pitch": 67,
              "velocity": 50,
              "position": 4.5,
              "duration": 0.133333
            },
            {
              "pitch": 48,
              "velocity": 53,
              "position": 5.0,
              "duration": 0.1
            },
            {
              "pitch": 59,
              "velocity": 35,
              "position": 5.0,
              "duration": 0.141667
            },
            {
              "pitch": 67,
              "velocity": 64,
              "position": 5.0,
              "duration": 0.166667
            },
            {
              "pitch": 48,
              "velocity": 33,
              "position": 5.5,
              "duration": 0.15
            },
            {
              "pitch": 59,
              "velocity": 29,
              "position": 5.5,
              "duration": 0.166667
            },
            {
              "pitch": 64,
              "velocity": 39,
              "position": 5.5,
              "duration": 0.15
            },
            {
              "pitch": 67,
              "velocity": 45,
              "position": 5.5,
              "duration": 0.15
            },
            {
              "pitch": 48,
              "velocity": 53,
              "position": 6.0,
              "duration": 0.1
            },
            {
              "pitch": 67,
              "velocity": 64,
              "position": 6.0,
              "duration": 0.166667
            },
            {
              "pitch": 48,
              "velocity": 33,
              "position": 6.5,
              "duration": 0.15
            },
            {
              "pitch": 59,
              "velocity": 29,
              "position": 6.5,
              "duration": 0.166667
            },
            {
              "pitch": 64,
              "velocity": 39,
              "position": 6.5,
              "duration": 0.15
            },
            {
              "pitch": 67,
              "velocity": 45,
              "position": 6.5,
              "duration": 0.15
            },
            {
              "pitch": 48,
              "velocity": 35,
              "position": 7.0,
              "duration": 0.133333
            },
            {
              "pitch": 59,
              "velocity": 35,
              "position": 7.0,
              "duration": 0.183333
            },
            {
              "pitch": 64,
              "velocity": 47,
              "position": 7.0,
              "duration": 0.141667
            },
            {
              "pitch": 67,
              "velocity": 49,
              "position": 7.0,
              "duration": 0.183333
            },
            {
              "pitch": 48,
              "velocity": 37,
              "position": 7.5,
              "duration": 0.116667
            },
            {
              "pitch": 59,
              "velocity": 36,
              "position": 7.5,
              "duration": 0.175
            },
            {
              "pitch": 64,
              "velocity": 43,
              "position": 7.5,
              "duration": 0.133333
            },
            {
              "pitch": 67,
              "velocity": 50,
              "position": 7.5,
              "duration": 0.133333
            },
            {
              "pitch": 48,
              "velocity": 38,
              "position": 8.0,
              "duration": 0.116667
            },
            {
              "pitch": 59,
              "velocity": 36,
              "position": 8.0,
              "duration": 0.158333
            },
            {
              "pitch": 64,
              "velocity": 48,
              "position": 8.0,
              "duration": 0.158333
            },
            {
              "pitch": 67,
              "velocity": 49,
              "position": 8.0,
              "duration": 0.158333
            },
            {
              "pitch": 48,
              "velocity": 47,
              "position": 8.5,
              "duration": 0.116667
            },
            {
              "pitch": 59,
              "velocity": 39,
              "position": 8.5,
              "duration": 0.191667
            },
            {
              "pitch": 64,
              "velocity": 54,
              "position": 8.5,
              "duration": 0.141667
            },
            {
              "pitch": 67,
              "velocity": 50,
              "position": 8.5,
              "duration": 0.116667
            },
            {
              "pitch": 48,
              "velocity": 51,
              "position": 9.0,
              "duration": 0.158333
            },
            {
              "pitch": 71,
              "velocity": 70,
              "position": 9.0,
              "duration": 0.158333
            },
            {
              "pitch": 48,
              "velocity": 31,
              "position": 9.5,
              "duration": 0.183333
            },
            {
              "pitch": 60,
              "velocity": 41,
              "position": 9.5,
              "duration": 0.166667
            },
            {
              "pitch": 64,
              "velocity": 47,
              "position": 9.5,
              "duration": 0.15
            },
            {
              "pitch": 71,
              "velocity": 51,
              "position": 9.5,
              "duration": 0.183333
            },
            {
              "pitch": 48,
              "velocity": 40,
              "position": 10.0,
              "duration": 0.158333
            },
            {
              "pitch": 60,
              "velocity": 51,
              "position": 10.0,
              "duration": 0.158333
            },
            {
              "pitch": 64,
              "velocity": 42,
              "position": 10.0,
              "duration": 0.116667
            },
            {
              "pitch": 71,
              "velocity": 50,
              "position": 10.0,
              "duration": 0.183333
            },
            {
              "pitch": 48,
              "velocity": 43,
              "position": 10.5,
              "duration": 0.141667
            },
            {
              "pitch": 60,
              "velocity": 46,
              "position": 10.5,
              "duration": 0.141667
            },
            {
              "pitch": 64,
              "velocity": 46,
              "position": 10.5,
              "duration": 0.141667
            },
            {
              "pitch": 71,
              "velocity": 49,
              "position": 10.5,
              "duration": 0.175
            },
            {
              "pitch": 48,
              "velocity": 52,
              "position": 11.0,
              "duration": 0.166667
            },
            {
              "pitch": 60,
              "velocity": 48,
              "position": 11.0,
              "duration": 0.15
            },
            {
              "pitch": 64,
              "velocity": 45,
              "position": 11.0,
              "duration": 0.125
            },
            {
              "pitch": 71,
              "velocity": 52,
              "position": 11.0,
              "duration": 0.166667
            },
            {
              "pitch": 48,
              "velocity": 54,
              "position": 11.5,
              "duration": 0.191667
            },
            {
              "pitch": 60,
              "velocity": 52,
              "position": 11.5,
              "duration": 0.191667
            },
            {
              "pitch": 64,
              "velocity": 56,
              "position": 11.5,
              "duration": 0.158333
            },
            {
              "pitch": 71,
              "velocity": 58,
              "position": 11.5,
              "duration": 0.191667
            }
          ]
        }
      }
    },
    "Main_D": {
      "type": "Main_D",
      "sizeInBeats": 12,
      "channels": {
        "9": {
          "ctab": {
            "srcChannel": 9,
            "name": "Drums",
            "accType": "RHYTHM",
            "editable": false,
            "mutedNotes": [],
            "mutedChords": [],
            "sourceChordNote": 0,
            "sourceChordType": "Maj",
            "ctb2Main": {
              "ntr": "ROOT_FIXED",
              "ntt": "BYPASS",
              "bassOn": false,
              "noteLowLimit": 20,
              "noteHighLimit": 127,
              "chordRootUpperLimit": 127,
              "rtr": "RETRIGGER"
            }
          },
          "notes": []
        },
        "10": {
          "ctab": {
            "srcChannel": 10,
            "name": "Bass",
            "accType": "BASS",
            "editable": true,
            "mutedNotes": [],
            "mutedChords": [],
            "sourceChordNote": 0,
            "sourceChordType": "Maj7",
            "ctb2Main": {
              "ntr": "ROOT_TRANSPOSITION",
              "ntt": "BYPASS",
              "bassOn": true,
              "noteLowLimit": 20,
              "noteHighLimit": 60,
              "chordRootUpperLimit": 127,
              "rtr": "NOTE_GENERATOR"
            }
          },
          "notes": [
            {
              "pitch": 36,
              "velocity": 65,
              "position": 0.0,
              "duration": 0.2
            },
            {
              "pitch": 36,
              "velocity": 49,
              "position": 0.5,
              "duration": 0.183333
            },
            {
              "pitch": 36,
              "velocity": 57,
              "position": 1.0,
              "duration": 0.225
            },
            {
              "pitch": 36,
              "velocity": 50,
              "position": 1.5,
              "duration": 0.2
            },
            {
              "pitch": 36,
              "velocity": 65,
              "position": 2.0,
              "duration": 0.2
            },
            {
              "pitch": 36,
              "velocity": 49,
              "position": 2.5,
              "duration": 0.183333
            },
            {
              "pitch": 36,
              "velocity": 65,
              "position": 3.0,
              "duration": 0.2
            },
            {
              "pitch": 36,
              "velocity": 49,
              "position": 3.5,
              "duration": 0.183333
            },
            {
              "pitch": 36,
              "velocity": 57,
              "position": 4.0,
              "duration": 0.225
            },
            {
              "pitch": 36,
              "velocity": 50,
              "position": 4.5,
              "duration": 0.2
            },
            {
              "pitch": 36,
              "velocity": 65,
              "position": 5.0,
              "duration": 0.2
            },
            {
              "pitch": 36,
              "velocity": 49,
              "position": 5.5,
              "duration": 0.183333
            },
            {
              "pitch": 36,
              "velocity": 65,
              "position": 6.0,
              "duration": 0.2
            },
            {
              "pitch": 36,
              "velocity": 49,
              "position": 6.5,
              "duration": 0.183333
            },
            {
              "pitch": 36,
              "velocity": 57,
              "position": 7.0,
              "duration": 0.225
            },
            {
              "pitch": 36,
              "velocity": 50,
              "position": 7.5,
              "duration": 0.2
            },
            {
              "pitch": 36,
              "velocity": 61,
              "position": 8.0,
              "duration": 0.208333
            },
            {
              "pitch": 36,
              "velocity": 59,
              "position": 8.5,
              "duration": 0.241667
            },
            {
              "pitch": 48,
              "velocity": 69,
              "position": 9.0,
              "duration": 0.3
            },
            {
              "pitch": 48,
              "velocity": 49,
              "position": 9.5,
              "duration": 0.208333
            },
            {
              "pitch": 48,
              "velocity": 66,
              "position": 10.0,
              "duration": 0.2
            },
            {
              "pitch": 48,
              "velocity": 51,
              "position": 10.5,
              "duration": 0.208333
            },
            {
              "pitch": 36,
              "velocity": 58,
              "position": 11.0,
              "duration": 0.208333
            },
            {
              "pitch": 36,
              "velocity": 60,
              "position": 11.5,
              "duration": 0.266667
            }
          ]
        },
        "11": {
          "ctab": {
            "srcChannel": 11,
            "name": "Piano",
            "accType": "CHORD1",
            "editable": true,
            "mutedNotes": [],
            "mutedChords": [],
            "sourceChordNote": 0,
            "sourceChordType": "Maj7",
            "ctb2Main": {
              "ntr": "ROOT_FIXED",
              "ntt": "CHORD",
              "bassOn": false,
              "noteLowLimit": 48,
              "noteHighLimit": 84,
              "chordRootUpperLimit": 127,
              "rtr": "NOTE_GENERATOR"
            }
          },
          "notes": [
            {
              "pitch": 60,
              "velocity": 64,
              "position": 0.0,
              "duration": 0.2
            },
            {
              "pitch": 71,
              "velocity": 60,
              "position": 0.25,
              "duration": 0.283333
            },
            {
              "pitch": 67,
              "velocity": 58,
              "position": 0.5,
              "duration": 0.258333
            },
            {
              "pitch": 71,
              "velocity": 57,
              "position": 0.75,
              "duration": 0.25
            },
            {
              "pitch": 60,
              "velocity": 65,
              "position": 1.0,
              "duration": 0.233333
            },
            {
              "pitch": 71,
              "velocity": 53,
              "position": 1.25,
              "duration": 0.3
            },
            {
              "pitch": 67,
              "velocity": 63,
              "position": 1.5,
              "duration": 0.266667
            },
            {
              "pitch": 71,
              "velocity": 61,
              "position": 1.75,
              "duration": 0.208333
            },
            {
              "pitch": 59,
              "velocity": 57,
              "position": 2.0,
              "duration": 0.8
            },
            {
              "pitch": 60,
              "velocity": 54,
              "position": 2.0,
              "duration": 0.908333
            },
            {
              "pitch": 60,
              "velocity": 64,
              "position": 3.0,
              "duration": 0.2
            },
            {
              "pitch": 71,
              "velocity": 60,
              "position": 3.25,
              "duration": 0.283333
            },
            {
              "pitch": 67,
              "velocity": 58,
              "position": 3.5,
              "duration": 0.258333
            },
            {
              "pitch": 71,
              "velocity": 57,
              "position": 3.75,
              "duration": 0.25
            },
            {
              "pitch": 60,
              "velocity": 65,
              "position": 4.0,
              "duration": 0.233333
            },
            {
              "pitch": 71,
              "velocity": 53,
              "position": 4.25,
              "duration": 0.3
            },
            {
              "pitch": 67,
              "velocity": 63,
              "position": 4.5,
              "duration": 0.266667
            },
            {
              "pitch": 71,
              "velocity": 61,
              "position": 4.75,
              "duration": 0.208333
            },
            {
              "pitch": 59,
              "velocity": 57,
              "position": 5.0,
              "duration": 0.8
            },
            {
              "pitch": 60,
              "velocity": 54,
              "position": 5.0,
              "duration": 0.908333
            },
            {
              "pitch": 60,
              "velocity": 66,
              "position": 6.0,
              "duration": 0.258333
            },
            {
              "pitch": 64,
              "velocity": 61,
              "position": 6.258333,
              "duration": 0.233333
            },
            {
              "pitch": 67,
              "velocity": 57,
              "position": 6.5,
              "duration": 0.25
            },
            {
              "pitch": 64,
              "velocity": 59,
              "position": 6.75,
              "duration": 0.25
            },
            {
              "pitch": 67,
              "velocity": 66,
              "position": 7.0,
              "duration": 0.258333
            },
            {
              "pitch": 64,
              "velocity": 53,
              "position": 7.258333,
              "duration": 0.216667
            },
            {
              "pitch": 67,
              "velocity": 60,
              "position": 7.5,
              "duration": 0.266667
            },
            {
              "pitch": 64,
              "velocity": 61,
              "position": 7.75,
              "duration": 0.225
            },
            {
              "pitch": 67,
              "velocity": 66,
              "position": 8.0,
              "duration": 0.241667
            },
            {
              "pitch": 64,
              "velocity": 55,
              "position": 8.25,
              "duration": 0.216667
            },
            {
              "pitch": 67,
              "velocity": 50,
              "position": 8.5,
              "duration": 0.266667
            },
            {
              "pitch": 64,
              "velocity": 56,
              "position": 8.75,
              "duration": 0.25
            },
            {
              "pitch": 59,
              "velocity": 62,
              "position": 9.0,
              "duration": 0.308333
            },
            {
              "pitch": 64,
              "velocity": 58,
              "position": 9.25,
              "duration": 0.225
            },
            {
              "pitch": 67,
              "velocity": 63,
              "position": 9.5,
              "duration": 0.25
            },
            {
              "pitch": 64,
              "velocity": 59,
              "position": 9.75,
              "duration": 0.25
            },
            {
              "pitch": 67,
              "velocity": 66,
              "position": 10.0,
              "duration": 0.283333
            },
            {
              "pitch": 64,
              "velocity": 59,
              "position": 10.283333,
              "duration": 0.175
            },
            {
              "pitch": 67,
              "velocity": 65,
              "position": 10.5,
              "duration": 0.258333
            },
            {
              "pitch": 64,
              "velocity": 59,
              "position": 10.75,
              "duration": 0.233333
            },
            {
              "pitch": 67,
              "velocity": 68,
              "position": 11.0,
              "duration": 0.25
            },
            {
              "pitch": 64,
              "velocity": 58,
              "position": 11.25,
              "duration": 0.225
            },
            {
              "pitch": 67,
              "velocity": 67,
              "position": 11.5,
              "duration": 0.258333
            },
            {
              "pitch": 64,
              "velocity": 66,
              "position": 11.75,
              "duration": 0.191667
            }
          ]
        },
        "12": {
          "ctab": {
            "srcChannel": 12,
            "name": "Guitar",
            "accType": "CHORD2",
            "editable": true,
            "mutedNotes": [],
            "mutedChords": [],
            "sourceChordNote": 0,
            "sourceChordType": "Maj7",
            "ctb2Main": {
              "ntr": "ROOT_FIXED",
              "ntt": "CHORD",
              "bassOn": false,
              "noteLowLimit": 40,
              "noteHighLimit": 76,
              "chordRootUpperLimit": 127,
              "rtr": "NOTE_GENERATOR"
            }
          },
          "notes": [
            {
              "pitch": 64,
              "velocity": 50,
              "position": 0.016667,
              "duration": 0.183333
            },
            {
              "pitch": 60,
              "velocity": 33,
              "position": 0.508333,
              "duration": 0.183333
            },
            {
              "pitch": 55,
              "velocity": 42,
              "position": 0.525,
              "duration": 0.141667
            },
            {
              "pitch": 59,
              "velocity": 33,
              "position": 1.008333,
              "duration": 0.191667
            },
            {
              "pitch": 55,
              "velocity": 49,
              "position": 1.025,
              "duration": 0.15
            },
            {
              "pitch": 55,
              "velocity": 49,
              "position": 1.533333,
              "duration": 0.133333
            },
            {
              "pitch": 59,
              "velocity": 34,
              "position": 1.533333,
              "duration": 0.175
            },
            {
              "pitch": 64,
              "velocity": 50,
              "position": 2.016667,
              "duration": 0.183333
            },
            {
              "pitch": 60,
              "velocity": 33,
              "position": 2.508333,
              "duration": 0.183333
            },
            {
              "pitch": 55,
              "velocity": 42,
              "position": 2.525,
              "duration": 0.141667
            },
            {
              "pitch": 67,
              "velocity": 45,
              "position": 3.016667,
              "duration": 0.158333
            },
            {
              "pitch": 64,
              "velocity": 49,
              "position": 3.5,
              "duration": 0.158333
            },
            {
              "pitch": 67,
              "velocity": 49,
              "position": 4.058333,
              "duration": 0.116667
            },
            {
              "pitch": 64,
              "velocity": 44,
              "position": 4.525,
              "duration": 0.158333
            },
            {
              "pitch": 67,
              "velocity": 45,
              "position": 5.016667,
              "duration": 0.158333
            },
            {
              "pitch": 64,
              "velocity": 49,
              "position": 5.5,
              "duration": 0.158333
            },
            {
              "pitch": 64,
              "velocity": 50,
              "position": 6.016667,
              "duration": 0.183333
            },
            {
              "pitch": 60,
              "velocity": 33,
              "position": 6.508333,
              "duration": 0.183333
            },
            {
              "pitch": 55,
              "velocity": 42,
              "position": 6.525,
              "duration": 0.141667
            },
            {
              "pitch": 59,
              "velocity": 33,
              "position": 7.008333,
              "duration": 0.191667
            },
            {
              "pitch": 55,
              "velocity": 49,
              "position": 7.025,
              "duration": 0.15
            },
            {
              "pitch": 55,
              "velocity": 49,
              "position": 7.533333,
              "duration": 0.133333
            },
            {
              "pitch": 59,
              "velocity": 34,
              "position": 7.533333,
              "duration": 0.175
            },
            {
              "pitch": 55,
              "velocity": 48,
              "position": 8.025,
              "duration": 0.15
            },
            {
              "pitch": 59,
              "velocity": 33,
              "position": 8.05,
              "duration": 0.183333
            },
            {
              "pitch": 59,
              "velocity": 36,
              "position": 8.533333,
              "duration": 0.15
            },
            {
              "pitch": 55,
              "velocity": 55,
              "position": 8.55,
              "duration": 0.1
            },
            {
              "pitch": 71,
              "velocity": 54,
              "position": 9.008333,
              "duration": 0.125
            },
            {
              "pitch": 59,
              "velocity": 38,
              "position": 9.525,
              "duration": 0.166667
            },
            {
              "pitch": 67,
              "velocity": 45,
              "position": 9.525,
              "duration": 0.2
            },
            {
              "pitch": 59,
              "velocity": 34,
              "position": 10.016667,
              "duration": 0.15
            },
            {
              "pitch": 64,
              "velocity": 42,
              "position": 10.025,
              "duration": 0.175
            },
            {
              "pitch": 59,
              "velocity": 39,
              "position": 10.516667,
              "duration": 0.15
            },
            {
              "pitch": 64,
              "velocity": 43,
              "position": 10.525,
              "duration": 0.2
            },
            {
              "pitch": 59,
              "velocity": 45,
              "position": 11.008333,
              "duration": 0.166667
            },
            {
              "pitch": 64,
              "velocity": 42,
              "position": 11.033333,
              "duration": 0.175
            },
            {
              "pitch": 59,
              "velocity": 47,
              "position": 11.55,
              "duration": 0.15
            },
            {
              "pitch": 64,
              "velocity": 45,
              "position": 11.55,
              "duration": 0.166667
            }
          ]
        },
        "13": {
          "ctab": {
            "srcChannel": 13,
            "name": "Strings",
            "accType": "PAD",
            "editable": true,
            "mutedNotes": [],
            "mutedChords": [],
            "sourceChordNote": 0,
            "sourceChordType": "Maj7",
            "ctb2Main": {
              "ntr": "ROOT_FIXED",
              "ntt": "MELODY",
              "bassOn": false,
              "noteLowLimit": 36,
              "noteHighLimit": 96,
              "chordRootUpperLimit": 127,
              "rtr": "PITCH_SHIFT"
            }
          },
          "notes": [
            {
              "pitch": 48,
              "velocity": 54,
              "position": 0.0,
              "duration": 0.158333
            },
            {
              "pitch": 55,
              "velocity": 44,
              "position": 0.0,
              "duration": 0.158333
            },
            {
              "pitch": 64,
              "velocity": 61,
              "position": 0.0,
              "duration": 0.158333
            },
            {
              "pitch": 48,
              "velocity": 40,
              "position": 0.5,
              "duration": 0.125
            },
            {
              "pitch": 55,
              "velocity": 27,
              "position": 0.5,
              "duration": 0.125
            },
            {
              "pitch": 60,
              "velocity": 48,
              "position": 0.5,
              "duration": 0.183333
            },
            {
              "pitch": 64,
              "velocity": 38,
              "position": 0.5,
              "duration": 0.116667
            },
            {
              "pitch": 48,
              "velocity": 50,
              "position": 1.0,
              "duration": 0.158333
            },
            {
              "pitch": 55,
              "velocity": 41,
              "position": 1.0,
              "duration": 0.158333
            },
            {
              "pitch": 60,
              "velocity": 46,
              "position": 1.0,
              "duration": 0.166667
            },
            {
              "pitch": 64,
              "velocity": 46,
              "position": 1.0,
              "duration": 0.166667
            },
            {
              "pitch": 48,
              "velocity": 47,
              "position": 1.5,
              "duration": 0.15
            },
            {
              "pitch": 55,
              "velocity": 43,
              "position": 1.5,
              "duration": 0.166667
            },
            {
              "pitch": 60,
              "velocity": 40,
              "position": 1.5,
              "duration": 0.166667
            },
            {
              "pitch": 64,
              "velocity": 39,
              "position": 1.5,
              "duration": 0.166667
            },
            {
              "pitch": 48,
              "velocity": 53,
              "position": 2.0,
              "duration": 0.1
            },
            {
              "pitch": 59,
              "velocity": 35,
              "position": 2.0,
              "duration": 0.141667
            },
            {
              "pitch": 67,
              "velocity": 64,
              "position": 2.0,
              "duration": 0.166667
            },
            {
              "pitch": 48,
              "velocity": 33,
              "position": 2.5,
              "duration": 0.15
            },
            {
              "pitch": 59,
              "velocity": 29,
              "position": 2.5,
              "duration": 0.166667
            },
            {
              "pitch": 64,
              "velocity": 39,
              "position": 2.5,
              "duration": 0.15
            },
            {
              "pitch": 67,
              "velocity": 45,
              "position": 2.5,
              "duration": 0.15
            },
            {
              "pitch": 48,
              "velocity": 53,
              "position": 3.0,
              "duration": 0.1
            },
            {
              "pitch": 67,
              "velocity": 64,
              "position": 3.0,
              "duration": 0.166667
            },
            {
              "pitch": 48,
              "velocity": 33,
              "position": 3.5,
              "duration": 0.15
            },
            {
              "pitch": 59,
              "velocity": 29,
              "position": 3.5,
              "duration": 0.166667
            },
            {
              "pitch": 64,
              "velocity": 39,
              "position": 3.5,
              "duration": 0.15
            },
            {
              "pitch": 67,
              "velocity": 45,
              "position": 3.5,
              "duration": 0.15
            },
            {
              "pitch": 48,
              "velocity": 35,
              "position": 4.0,
              "duration": 0.133333
            },
            {
              "pitch": 59,
              "velocity": 35,
              "position": 4.0,
              "duration": 0.183333
            },
            {
              "pitch": 64,
              "velocity": 47,
              "position": 4.0,
              "duration": 0.141667
            },
            {
              "pitch": 67,
              "velocity": 49,
              "position": 4.0,
              "duration": 0.183333
            },
            {
              "pitch": 48,
              "velocity": 37,
              "position": 4.5,
              "duration": 0.116667
            },
            {
              "pitch": 59,
              "velocity": 36,
              "position": 4.5,
              "duration": 0.175
            },
            {
              "pitch": 64,
              "velocity": 43,
              "position": 4.5,
              "duration": 0.133333
            },
            {
              "pitch": 67,
              "velocity": 50,
              "position": 4.5,
              "duration": 0.133333
            },
            {
              "pitch": 48,
              "velocity": 53,
              "position": 5.0,
              "duration": 0.1
            },
            {
              "pitch": 59,
              "velocity": 35,
              "position": 5.0,
              "duration": 0.141667
            },
            {
              "pitch": 67,
              "velocity": 64,
              "position": 5.0,
              "duration": 0.166667
            },
            {
              "pitch": 48,
              "velocity": 33,
              "position": 5.5,
              "duration": 0.15
            },
            {
              "pitch": 59,
              "velocity": 29,
              "position": 5.5,
              "duration": 0.166667
            },
            {
              "pitch": 64,
              "velocity": 39,
              "position": 5.5,
              "duration": 0.15
            },
            {
              "pitch": 67,
              "velocity": 45,
              "position": 5.5,
              "duration": 0.15
            },
            {
              "pitch": 48,
              "velocity": 53,
              "position": 6.0,
              "duration": 0.1
            },
            {
              "pitch": 67,
              "velocity": 64,
              "position": 6.0,
              "duration": 0.166667
            },
            {
              "pitch": 48,
              "velocity": 33,
              "position": 6.5,
              "duration": 0.15
            },
            {
              "pitch": 59,
              "velocity": 29,
              "position": 6.5,
              "duration": 0.166667
            },
            {
              "pitch": 64,
              "velocity": 39,
              "position": 6.5,
              "duration": 0.15
            },
            {
              "pitch": 67,
              "velocity": 45,
              "position": 6.5,
              "duration": 0.15
            },
            {
              "pitch": 48,
              "velocity": 35,
              "position": 7.0,
              "duration": 0.133333
            },
            {
              "pitch": 59,
              "velocity": 35,
              "position": 7.0,
              "duration": 0.183333
            },
            {
              "pitch": 64,
              "velocity": 47,
              "position": 7.0,
              "duration": 0.141667
            },
            {
              "pitch": 67,
              "velocity": 49,
              "position": 7.0,
              "duration": 0.183333
            },
            {
              "pitch": 48,
              "velocity": 37,
              "position": 7.5,
              "duration": 0.116667
            },
            {
              "pitch": 59,
              "velocity": 36,
              "position": 7.5,
              "duration": 0.175
            },
            {
              "pitch": 64,
              "velocity": 43,
              "position": 7.5,
              "duration": 0.133333
            },
            {
              "pitch": 67,
              "velocity": 50,
              "position": 7.5,
              "duration": 0.133333
            },
            {
              "pitch": 48,
              "velocity": 38,
              "position": 8.0,
              "duration": 0.116667
            },
            {
              "pitch": 59,
              "velocity": 36,
              "position": 8.0,
              "duration": 0.158333
            },
            {
              "pitch": 64,
              "velocity": 48,
              "position": 8.0,
              "duration": 0.158333
            },
            {
              "pitch": 67,
              "velocity": 49,
              "position": 8.0,
              "duration": 0.158333
            },
            {
              "pitch": 48,
              "velocity": 47,
              "position": 8.5,
              "duration": 0.116667
            },
            {
              "pitch": 59,
              "velocity": 39,
              "position": 8.5,
              "duration": 0.191667
            },
            {
              "pitch": 64,
              "velocity": 54,
              "position": 8.5,
              "duration": 0.141667
            },
            {
              "pitch": 67,
              "velocity": 50,
              "position": 8.5,
              "duration": 0.116667
            },
            {
              "pitch": 48,
              "velocity": 51,
              "position": 9.0,
              "duration": 0.158333
            },
            {
              "pitch": 71,
              "velocity": 70,
              "position": 9.0,
              "duration": 0.158333
            },
            {
              "pitch": 48,
              "velocity": 31,
              "position": 9.5,
              "duration": 0.183333
            },
            {
              "pitch": 60,
              "velocity": 41,
              "position": 9.5,
              "duration": 0.166667
            },
            {
              "pitch": 64,
              "velocity": 47,
              "position": 9.5,
              "duration": 0.15
            },
            {
              "pitch": 71,
              "velocity": 51,
              "position": 9.5,
              "duration": 0.183333
            },
            {
              "pitch": 48,
              "velocity": 40,
              "position": 10.0,
              "duration": 0.158333
            },
            {
              "pitch": 60,
              "velocity": 51,
              "position": 10.0,
              "duration": 0.158333
            },
            {
              "pitch": 64,
              "velocity": 42,
              "position": 10.0,
              "duration": 0.116667
            },
            {
              "pitch": 71,
              "velocity": 50,
              "position": 10.0,
              "duration": 0.183333
            },
            {
              "pitch": 48,
              "velocity": 43,
              "position": 10.5,
              "duration": 0.141667
            },
            {
              "pitch": 60,
              "velocity": 46,
              "position": 10.5,
              "duration": 0.141667
            },
            {
              "pitch": 64,
              "velocity": 46,
              "position": 10.5,
              "duration": 0.141667
            },
            {
              "pitch": 71,
              "velocity": 49,
              "position": 10.5,
              "duration": 0.175
            },
            {
              "pitch": 48,
              "velocity": 52,
              "position": 11.0,
              "duration": 0.166667
            },
            {
              "pitch": 60,
              "velocity": 48,
              "position": 11.0,
              "duration": 0.15
            },
            {
              "pitch": 64,
              "velocity": 45,
              "position": 11.0,
              "duration": 0.125
            },
            {
              "pitch": 71,
              "velocity": 52,
              "position": 11.0,
              "duration": 0.166667
            },
            {
              "pitch": 48,
              "velocity": 54,
              "position": 11.5,
              "duration": 0.191667
            },
            {
              "pitch": 60,
              "velocity": 52,
              "position": 11.5,
              "duration": 0.191667
            },
            {
              "pitch": 64,
              "velocity": 56,
              "position": 11.5,
              "duration": 0.158333
            },
            {
              "pitch": 71,
              "velocity": 58,
              "position": 11.5,
              "duration": 0.191667
            }
          ]
        }
      }
    },
    "Fill_In_AA": {
      "type": "Fill_In_AA",
      "sizeInBeats": 12,
      "channels": {
        "9": {
          "ctab": {
            "srcChannel": 9,
            "name": "Drums",
            "accType": "RHYTHM",
            "editable": false,
            "mutedNotes": [],
            "mutedChords": [],
            "sourceChordNote": 0,
            "sourceChordType": "Maj",
            "ctb2Main": {
              "ntr": "ROOT_FIXED",
              "ntt": "BYPASS",
              "bassOn": false,
              "noteLowLimit": 20,
              "noteHighLimit": 127,
              "chordRootUpperLimit": 127,
              "rtr": "RETRIGGER"
            }
          },
          "notes": []
        },
        "10": {
          "ctab": {
            "srcChannel": 10,
            "name": "Bass",
            "accType": "BASS",
            "editable": true,
            "mutedNotes": [],
            "mutedChords": [],
            "sourceChordNote": 0,
            "sourceChordType": "Maj7",
            "ctb2Main": {
              "ntr": "ROOT_TRANSPOSITION",
              "ntt": "BYPASS",
              "bassOn": true,
              "noteLowLimit": 20,
              "noteHighLimit": 60,
              "chordRootUpperLimit": 127,
              "rtr": "NOTE_GENERATOR"
            }
          },
          "notes": [
            {
              "pitch": 36,
              "velocity": 65,
              "position": 0.0,
              "duration": 0.2
            },
            {
              "pitch": 36,
              "velocity": 49,
              "position": 0.5,
              "duration": 0.183333
            },
            {
              "pitch": 36,
              "velocity": 57,
              "position": 1.0,
              "duration": 0.225
            },
            {
              "pitch": 36,
              "velocity": 50,
              "position": 1.5,
              "duration": 0.2
            },
            {
              "pitch": 36,
              "velocity": 65,
              "position": 2.0,
              "duration": 0.2
            },
            {
              "pitch": 36,
              "velocity": 49,
              "position": 2.5,
              "duration": 0.183333
            },
            {
              "pitch": 36,
              "velocity": 65,
              "position": 3.0,
              "duration": 0.2
            },
            {
              "pitch": 36,
              "velocity": 49,
              "position": 3.5,
              "duration": 0.183333
            },
            {
              "pitch": 36,
              "velocity": 57,
              "position": 4.0,
              "duration": 0.225
            },
            {
              "pitch": 36,
              "velocity": 50,
              "position": 4.5,
              "duration": 0.2
            },
            {
              "pitch": 36,
              "velocity": 65,
              "position": 5.0,
              "duration": 0.2
            },
            {
              "pitch": 36,
              "velocity": 49,
              "position": 5.5,
              "duration": 0.183333
            },
            {
              "pitch": 36,
              "velocity": 65,
              "position": 6.0,
              "duration": 0.2
            },
            {
              "pitch": 36,
              "velocity": 49,
              "position": 6.5,
              "duration": 0.183333
            },
            {
              "pitch": 36,
              "velocity": 57,
              "position": 7.0,
              "duration": 0.225
            },
            {
              "pitch": 36,
              "velocity": 50,
              "position": 7.5,
              "duration": 0.2
            },
            {
              "pitch": 36,
              "velocity": 61,
              "position": 8.0,
              "duration": 0.208333
            },
            {
              "pitch": 36,
              "velocity": 59,
              "position": 8.5,
              "duration": 0.241667
            },
            {
              "pitch": 48,
              "velocity": 69,
              "position": 9.0,
              "duration": 0.3
            },
            {
              "pitch": 48,
              "velocity": 49,
              "position": 9.5,
              "duration": 0.208333
            },
            {
              "pitch": 48,
              "velocity": 66,
              "position": 10.0,
              "duration": 0.2
            },
            {
              "pitch": 48,
              "velocity": 51,
              "position": 10.5,
              "duration": 0.208333
            },
            {
              "pitch": 36,
              "velocity": 58,
              "position": 11.0,
              "duration": 0.208333
            },
            {
              "pitch": 36,
              "velocity": 60,
              "position": 11.5,
              "duration": 0.266667
            }
          ]
        },
        "11": {
          "ctab": {
            "srcChannel": 11,
            "name": "Piano",
            "accType": "CHORD1",
            "editable": true,
            "mutedNotes": [],
            "mutedChords": [],
            "sourceChordNote": 0,
            "sourceChordType": "Maj7",
            "ctb2Main": {
              "ntr": "ROOT_FIXED",
              "ntt": "CHORD",
              "bassOn": false,
              "noteLowLimit": 48,
              "noteHighLimit": 84,
              "chordRootUpperLimit": 127,
              "rtr": "NOTE_GENERATOR"
            }
          },
          "notes": [
            {
              "pitch": 60,
              "velocity": 70,
              "position": 0.0,
              "duration": 0.225
            },
            {
              "pitch": 67,
              "velocity": 60,
              "position": 0.25,
              "duration": 0.25
            },
            {
              "pitch": 64,
              "velocity": 53,
              "position": 0.5,
              "duration": 0.225
            },
            {
              "pitch": 67,
              "velocity": 57,
              "position": 0.75,
              "duration": 0.25
            },
            {
              "pitch": 60,
              "velocity": 65,
              "position": 1.0,
              "duration": 0.208333
            },
            {
              "pitch": 67,
              "velocity": 54,
              "position": 1.25,
              "duration": 0.233333
            },
            {
              "pitch": 64,
              "velocity": 50,
              "position": 1.5,
              "duration": 0.216667
            },
            {
              "pitch": 67,
              "velocity": 57,
              "position": 1.75,
              "duration": 0.208333
            },
            {
              "pitch": 59,
              "velocity": 57,
              "position": 2.0,
              "duration": 0.8
            },
            {
              "pitch": 60,
              "velocity": 54,
              "position": 2.0,
              "duration": 0.908333
            },
            {
              "pitch": 60,
              "velocity": 63,
              "position": 3.0,
              "duration": 0.25
            },
            {
              "pitch": 64,
              "velocity": 59,
              "position": 3.25,
              "duration": 0.241667
            },
            {
              "pitch": 67,
              "velocity": 58,
              "position": 3.5,
              "duration": 0.25
            },
            {
              "pitch": 64,
              "velocity": 57,
              "position": 3.75,
              "duration": 0.266667
            },
            {
              "pitch": 67,
              "velocity": 62,
              "position": 4.0,
              "duration": 0.233333
            },
            {
              "pitch": 64,
              "velocity": 59,
              "position": 4.25,
              "duration": 0.233333
            },
            {
              "pitch": 67,
              "velocity": 59,
              "position": 4.5,
              "duration": 0.25
            },
            {
              "pitch": 64,
              "velocity": 66,
              "position": 4.75,
              "duration": 0.216667
            },
            {
              "pitch": 59,
              "velocity": 57,
              "position": 5.0,
              "duration": 0.8
            },
            {
              "pitch": 60,
              "velocity": 54,
              "position": 5.0,
              "duration": 0.908333
            },
            {
              "pitch": 60,
              "velocity": 67,
              "position": 6.0,
              "duration": 0.208333
            },
            {
              "pitch": 67,
              "velocity": 50,
              "position": 6.25,
              "duration": 0.258333
            },
            {
              "pitch": 64,
              "velocity": 58,
              "position": 6.5,
              "duration": 0.25
            },
            {
              "pitch": 67,
              "velocity": 61,
              "position": 6.75,
              "duration": 0.216667
            },
            {
              "pitch": 60,
              "velocity": 63,
              "position": 7.0,
              "duration": 0.266667
            },
            {
              "pitch": 67,
              "velocity": 51,
              "position": 7.25,
              "duration": 0.25
            },
            {
              "pitch": 64,
              "velocity": 59,
              "position": 7.5,
              "duration": 0.266667
            },
            {
              "pitch": 67,
              "velocity": 67,
              "position": 7.766667,
              "duration": 0.241667
            },
            {
              "pitch": 64,
              "velocity": 63,
              "position": 8.0,
              "duration": 0.233333
            },
            {
              "pitch": 67,
              "velocity": 56,
              "position": 8.25,
              "duration": 0.183333
            },
            {
              "pitch": 64,
              "velocity": 57,
              "position": 8.5,
              "duration": 0.241667
            },
            {
              "pitch": 67,
              "velocity": 66,
              "position": 8.75,
              "duration": 0.25
            },
            {
              "pitch": 60,
              "velocity": 67,
              "position": 9.0,
              "duration": 0.25
            },
            {
              "pitch": 67,
              "velocity": 56,
              "position": 9.25,
              "duration": 0.25
            },
            {
              "pitch": 64,
              "velocity": 59,
              "position": 9.5,
              "duration": 0.216667
            },
            {
              "pitch": 67,
              "velocity": 67,
              "position": 9.75,
              "duration": 0.225
            },
            {
              "pitch": 60,
              "velocity": 67,
              "position": 10.0,
              "duration": 0.25
            },
            {
              "pitch": 67,
              "velocity": 60,
              "position": 10.25,
              "duration": 0.25
            },
            {
              "pitch": 64,
              "velocity": 59,
              "position": 10.5,
              "duration": 0.241667
            },
            {
              "pitch": 67,
              "velocity": 61,
              "position": 10.75,
              "duration": 0.208333
            },
            {
              "pitch": 59,
              "velocity": 61,
              "position": 11.0,
              "duration": 0.316667
            },
            {
              "pitch": 67,
              "velocity": 57,
              "position": 11.25,
              "duration": 0.25
            },
            {
              "pitch": 64,
              "velocity": 62,
              "position": 11.5,
              "duration": 0.258333
            },
            {
              "pitch": 67,
              "velocity": 65,
              "position": 11.758333,
              "duration": 0.2
            }
          ]
        },
        "12": {
          "ctab": {
            "srcChannel": 12,
            "name": "Guitar",
            "accType": "CHORD2",
            "editable": true,
            "mutedNotes": [],
            "mutedChords": [],
            "sourceChordNote": 0,
            "sourceChordType": "Maj7",
            "ctb2Main": {
              "ntr": "ROOT_FIXED",
              "ntt": "CHORD",
              "bassOn": false,
              "noteLowLimit": 40,
              "noteHighLimit": 76,
              "chordRootUpperLimit": 127,
              "rtr": "NOTE_GENERATOR"
            }
          },
          "notes": [
            {
              "pitch": 64,
              "velocity": 50,
              "position": 0.016667,
              "duration": 0.183333
            },
            {
              "pitch": 60,
              "velocity": 33,
              "position": 0.508333,
              "duration": 0.183333
            },
            {
              "pitch": 55,
              "velocity": 42,
              "position": 0.525,
              "duration": 0.141667
            },
            {
              "pitch": 59,
              "velocity": 33,
              "position": 1.008333,
              "duration": 0.191667
            },
            {
              "pitch": 55,
              "velocity": 49,
              "position": 1.025,
              "duration": 0.15
            },
            {
              "pitch": 55,
              "velocity": 49,
              "position": 1.533333,
              "duration": 0.133333
            },
            {
              "pitch": 59,
              "velocity": 34,
              "position": 1.533333,
              "duration": 0.175
            },
            {
              "pitch": 64,
              "velocity": 50,
              "position": 2.016667,
              "duration": 0.183333
            },
            {
              "pitch": 60,
              "velocity": 33,
              "position": 2.508333,
              "duration": 0.183333
            },
            {
              "pitch": 55,
              "velocity": 42,
              "position": 2.525,
              "duration": 0.141667
            },
            {
              "pitch": 67,
              "velocity": 45,
              "position": 3.016667,
              "duration": 0.158333
            },
            {
              "pitch": 64,
              "velocity": 49,
              "position": 3.5,
              "duration": 0.158333
            },
            {
              "pitch": 67,
              "velocity": 49,
              "position": 4.058333,
              "duration": 0.116667
            },
            {
              "pitch": 64,
              "velocity": 44,
              "position": 4.525,
              "duration": 0.158333
            },
            {
              "pitch": 67,
              "velocity": 45,
              "position": 5.016667,
              "duration": 0.158333
            },
            {
              "pitch": 64,
              "velocity": 49,
              "position": 5.5,
              "duration": 0.158333
            },
            {
              "pitch": 64,
              "velocity": 50,
              "position": 6.016667,
              "duration": 0.183333
            },
            {
              "pitch": 60,
              "velocity": 33,
              "position": 6.508333,
              "duration": 0.183333
            },
            {
              "pitch": 55,
              "velocity": 42,
              "position": 6.525,
              "duration": 0.141667
            },
            {
              "pitch": 59,
              "velocity": 33,
              "position": 7.008333,
              "duration": 0.191667
            },
            {
              "pitch": 55,
              "velocity": 49,
              "position": 7.025,
              "duration": 0.15
            },
            {
              "pitch": 55,
              "velocity": 49,
              "position": 7.533333,
              "duration": 0.133333
            },
            {
              "pitch": 59,
              "velocity": 34,
              "position": 7.533333,
              "duration": 0.175
            },
            {
              "pitch": 55,
              "velocity": 48,
              "position": 8.025,
              "duration": 0.15
            },
            {
              "pitch": 59,
              "velocity": 33,
              "position": 8.05,
              "duration": 0.183333
            },
            {
              "pitch": 59,
              "velocity": 36,
              "position": 8.533333,
              "duration": 0.15
            },
            {
              "pitch": 55,
              "velocity": 55,
              "position": 8.55,
              "duration": 0.1
            },
            {
              "pitch": 71,
              "velocity": 54,
              "position": 9.008333,
              "duration": 0.125
            },
            {
              "pitch": 59,
              "velocity": 38,
              "position": 9.525,
              "duration": 0.166667
            },
            {
              "pitch": 67,
              "velocity": 45,
              "position": 9.525,
              "duration": 0.2
            },
            {
              "pitch": 59,
              "velocity": 34,
              "position": 10.016667,
              "duration": 0.15
            },
            {
              "pitch": 64,
              "velocity": 42,
              "position": 10.025,
              "duration": 0.175
            },
            {
              "pitch": 59,
              "velocity": 39,
              "position": 10.516667,
              "duration": 0.15
            },
            {
              "pitch": 64,
              "velocity": 43,
              "position": 10.525,
              "duration": 0.2
            },
            {
              "pitch": 59,
              "velocity": 45,
              "position": 11.008333,
              "duration": 0.166667
            },
            {
              "pitch": 64,
              "velocity": 42,
              "position": 11.033333,
              "duration": 0.175
            },
            {
              "pitch": 59,
              "velocity": 47,
              "position": 11.55,
              "duration": 0.15
            },
            {
              "pitch": 64,
              "velocity": 45,
              "position": 11.55,
              "duration": 0.166667
            }
          ]
        },
        "13": {
          "ctab": {
            "srcChannel": 13,
            "name": "Strings",
            "accType": "PAD",
            "editable": true,
            "mutedNotes": [],
            "mutedChords": [],
            "sourceChordNote": 0,
            "sourceChordType": "Maj7",
            "ctb2Main": {
              "ntr": "ROOT_FIXED",
              "ntt": "MELODY",
              "bassOn": false,
              "noteLowLimit": 36,
              "noteHighLimit": 96,
              "chordRootUpperLimit": 127,
              "rtr": "PITCH_SHIFT"
            }
          },
          "notes": [
            {
              "pitch": 48,
              "velocity": 54,
              "position": 0.0,
              "duration": 0.158333
            },
            {
              "pitch": 55,
              "velocity": 44,
              "position": 0.0,
              "duration": 0.158333
            },
            {
              "pitch": 64,
              "velocity": 61,
              "position": 0.0,
              "duration": 0.158333
            },
            {
              "pitch": 48,
              "velocity": 40,
              "position": 0.5,
              "duration": 0.125
            },
            {
              "pitch": 55,
              "velocity": 27,
              "position": 0.5,
              "duration": 0.125
            },
            {
              "pitch": 60,
              "velocity": 48,
              "position": 0.5,
              "duration": 0.183333
            },
            {
              "pitch": 64,
              "velocity": 38,
              "position": 0.5,
              "duration": 0.116667
            },
            {
              "pitch": 48,
              "velocity": 50,
              "position": 1.0,
              "duration": 0.158333
            },
            {
              "pitch": 55,
              "velocity": 41,
              "position": 1.0,
              "duration": 0.158333
            },
            {
              "pitch": 60,
              "velocity": 46,
              "position": 1.0,
              "duration": 0.166667
            },
            {
              "pitch": 64,
              "velocity": 46,
              "position": 1.0,
              "duration": 0.166667
            },
            {
              "pitch": 48,
              "velocity": 47,
              "position": 1.5,
              "duration": 0.15
            },
            {
              "pitch": 55,
              "velocity": 43,
              "position": 1.5,
              "duration": 0.166667
            },
            {
              "pitch": 60,
              "velocity": 40,
              "position": 1.5,
              "duration": 0.166667
            },
            {
              "pitch": 64,
              "velocity": 39,
              "position": 1.5,
              "duration": 0.166667
            },
            {
              "pitch": 48,
              "velocity": 53,
              "position": 2.0,
              "duration": 0.1
            },
            {
              "pitch": 59,
              "velocity": 35,
              "position": 2.0,
              "duration": 0.141667
            },
            {
              "pitch": 67,
              "velocity": 64,
              "position": 2.0,
              "duration": 0.166667
            },
            {
              "pitch": 48,
              "velocity": 33,
              "position": 2.5,
              "duration": 0.15
            },
            {
              "pitch": 59,
              "velocity": 29,
              "position": 2.5,
              "duration": 0.166667
            },
            {
              "pitch": 64,
              "velocity": 39,
              "position": 2.5,
              "duration": 0.15
            },
            {
              "pitch": 67,
              "velocity": 45,
              "position": 2.5,
              "duration": 0.15
            },
            {
              "pitch": 48,
              "velocity": 53,
              "position": 3.0,
              "duration": 0.1
            },
            {
              "pitch": 67,
              "velocity": 64,
              "position": 3.0,
              "duration": 0.166667
            },
            {
              "pitch": 48,
              "velocity": 33,
              "position": 3.5,
              "duration": 0.15
            },
            {
              "pitch": 59,
              "velocity": 29,
              "position": 3.5,
              "duration": 0.166667
            },
            {
              "pitch": 64,
              "velocity": 39,
              "position": 3.5,
              "duration": 0.15
            },
            {
              "pitch": 67,
              "velocity": 45,
              "position": 3.5,
              "duration": 0.15
            },
            {
              "pitch": 48,
              "velocity": 35,
              "position": 4.0,
              "duration": 0.133333
            },
            {
              "pitch": 59,
              "velocity": 35,
              "position": 4.0,
              "duration": 0.183333
            },
            {
              "pitch": 64,
              "velocity": 47,
              "position": 4.0,
              "duration": 0.141667
            },
            {
              "pitch": 67,
              "velocity": 49,
              "position": 4.0,
              "duration": 0.183333
            },
            {
              "pitch": 48,
              "velocity": 37,
              "position": 4.5,
              "duration": 0.116667
            },
            {
              "pitch": 59,
              "velocity": 36,
              "position": 4.5,
              "duration": 0.175
            },
            {
              "pitch": 64,
              "velocity": 43,
              "position": 4.5,
              "duration": 0.133333
            },
            {
              "pitch": 67,
              "velocity": 50,
              "position": 4.5,
              "duration": 0.133333
            },
            {
              "pitch": 48,
              "velocity": 53,
              "position": 5.0,
              "duration": 0.1
            },
            {
              "pitch": 59,
              "velocity": 35,
              "position": 5.0,
              "duration": 0.141667
            },
            {
              "pitch": 67,
              "velocity": 64,
              "position": 5.0,
              "duration": 0.166667
            },
            {
              "pitch": 48,
              "velocity": 33,
              "position": 5.5,
              "duration": 0.15
            },
            {
              "pitch": 59,
              "velocity": 29,
              "position": 5.5,
              "duration": 0.166667
            },
            {
              "pitch": 64,
              "velocity": 39,
              "position": 5.5,
              "duration": 0.15
            },
            {
              "pitch": 67,
              "velocity": 45,
              "position": 5.5,
              "duration": 0.15
            },
            {
              "pitch": 48,
              "velocity": 54,
              "position": 6.0,
              "duration": 0.158333
            },
            {
              "pitch": 64,
              "velocity": 61,
              "position": 6.0,
              "duration": 0.158333
            },
            {
              "pitch": 48,
              "velocity": 40,
              "position": 6.5,
              "duration": 0.125
            },
            {
              "pitch": 55,
              "velocity": 27,
              "position": 6.5,
              "duration": 0.125
            },
            {
              "pitch": 60,
              "velocity": 48,
              "position": 6.5,
              "duration": 0.183333
            },
            {
              "pitch": 64,
              "velocity": 38,
              "position": 6.5,
              "duration": 0.116667
            },
            {
              "pitch": 48,
              "velocity": 50,
              "position": 7.0,
              "duration": 0.158333
            },
            {
              "pitch": 55,
              "velocity": 41,
              "position": 7.0,
              "duration": 0.158333
            },
            {
              "pitch": 60,
              "velocity": 46,
              "position": 7.0,
              "duration": 0.166667
            },
            {
              "pitch": 64,
              "velocity": 46,
              "position": 7.0,
              "duration": 0.166667
            },
            {
              "pitch": 48,
              "velocity": 47,
              "position": 7.5,
              "duration": 0.15
            },
            {
              "pitch": 55,
              "velocity": 43,
              "position": 7.5,
              "duration": 0.166667
            },
            {
              "pitch": 60,
              "velocity": 40,
              "position": 7.5,
              "duration": 0.166667
            },
            {
              "pitch": 64,
              "velocity": 39,
              "position": 7.5,
              "duration": 0.166667
            },
            {
              "pitch": 48,
              "velocity": 48,
              "position": 8.0,
              "duration": 0.133333
            },
            {
              "pitch": 55,
              "velocity": 33,
              "position": 8.0,
              "duration": 0.141667
            },
            {
              "pitch": 60,
              "velocity": 46,
              "position": 8.0,
              "duration": 0.15
            },
            {
              "pitch": 64,
              "velocity": 43,
              "position": 8.0,
              "duration": 0.141667
            },
            {
              "pitch": 48,
              "velocity": 53,
              "position": 8.5,
              "duration": 0.133333
            },
            {
              "pitch": 55,
              "velocity": 38,
              "position": 8.5,
              "duration": 0.158333
            },
            {
              "pitch": 60,
              "velocity": 40,
              "position": 8.5,
              "duration": 0.133333
            },
            {
              "pitch": 64,
              "velocity": 40,
              "position": 8.5,
              "duration": 0.133333
            },
            {
              "pitch": 48,
              "velocity": 62,
              "position": 9.0,
              "duration": 0.158333
            },
            {
              "pitch": 64,
              "velocity": 62,
              "position": 9.0,
              "duration": 0.2
            },
            {
              "pitch": 48,
              "velocity": 44,
              "position": 9.5,
              "duration": 0.15
            },
            {
              "pitch": 55,
              "velocity": 42,
              "position": 9.5,
              "duration": 0.15
            },
            {
              "pitch": 59,
              "velocity": 41,
              "position": 9.5,
              "duration": 0.183333
            },
            {
              "pitch": 64,
              "velocity": 41,
              "position": 9.5,
              "duration": 0.15
            },
            {
              "pitch": 48,
              "velocity": 53,
              "position": 10.0,
              "duration": 0.175
            },
            {
              "pitch": 55,
              "velocity": 51,
              "position": 10.0,
              "duration": 0.175
            },
            {
              "pitch": 59,
              "velocity": 39,
              "position": 10.0,
              "duration": 0.175
            },
            {
              "pitch": 64,
              "velocity": 60,
              "position": 10.0,
              "duration": 0.191667
            },
            {
              "pitch": 48,
              "velocity": 51,
              "position": 10.5,
              "duration": 0.158333
            },
            {
              "pitch": 55,
              "velocity": 47,
              "position": 10.5,
              "duration": 0.158333
            },
            {
              "pitch": 59,
              "velocity": 41,
              "position": 10.5,
              "duration": 0.175
            },
            {
              "pitch": 64,
              "velocity": 47,
              "position": 10.5,
              "duration": 0.183333
            },
            {
              "pitch": 48,
              "velocity": 58,
              "position": 11.0,
              "duration": 0.166667
            },
            {
              "pitch": 55,
              "velocity": 51,
              "position": 11.0,
              "duration": 0.166667
            },
            {
              "pitch": 59,
              "velocity": 40,
              "position": 11.0,
              "duration": 0.166667
            },
            {
              "pitch": 64,
              "velocity": 53,
              "position": 11.0,
              "duration": 0.191667
            },
            {
              "pitch": 48,
              "velocity": 59,
              "position": 11.5,
              "duration": 0.15
            },
            {
              "pitch": 55,
              "velocity": 49,
              "position": 11.5,
              "duration": 0.166667
            },
            {
              "pitch": 59,
              "velocity": 45,
              "position": 11.5,
              "duration": 0.166667
            },
            {
              "pitch": 64,
              "velocity": 53,
              "position": 11.5,
              "duration": 0.208333
            }
          ]
        }
      }
    },
    "Ending_A": {
      "type": "Ending_A",
      "sizeInBeats": 12,
      "channels": {
        "9": {
          "ctab": {
            "srcChannel": 9,
            "name": "Drums",
            "accType": "RHYTHM",
            "editable": false,
            "mutedNotes": [],
            "mutedChords": [],
            "sourceChordNote": 0,
            "sourceChordType": "Maj",
            "ctb2Main": {
              "ntr": "ROOT_FIXED",
              "ntt": "BYPASS",
              "bassOn": false,
              "noteLowLimit": 20,
              "noteHighLimit": 127,
              "chordRootUpperLimit": 127,
              "rtr": "RETRIGGER"
            }
          },
          "notes": []
        },
        "10": {
          "ctab": {
            "srcChannel": 10,
            "name": "Bass",
            "accType": "BASS",
            "editable": true,
            "mutedNotes": [],
            "mutedChords": [],
            "sourceChordNote": 0,
            "sourceChordType": "Maj7",
            "ctb2Main": {
              "ntr": "ROOT_TRANSPOSITION",
              "ntt": "BYPASS",
              "bassOn": true,
              "noteLowLimit": 20,
              "noteHighLimit": 60,
              "chordRootUpperLimit": 127,
              "rtr": "NOTE_GENERATOR"
            }
          },
          "notes": [
            {
              "pitch": 36,
              "velocity": 56,
              "position": 0.0,
              "duration": 1.958333
            },
            {
              "pitch": 36,
              "velocity": 56,
              "position": 2.0,
              "duration": 0.958333
            },
            {
              "pitch": 36,
              "velocity": 56,
              "position": 3.0,
              "duration": 1.958333
            },
            {
              "pitch": 36,
              "velocity": 56,
              "position": 5.0,
              "duration": 0.958333
            },
            {
              "pitch": 36,
              "velocity": 56,
              "position": 6.0,
              "duration": 2.458333
            },
            {
              "pitch": 36,
              "velocity": 54,
              "position": 9.0,
              "duration": 0.466667
            },
            {
              "pitch": 40,
              "velocity": 56,
              "position": 10.0,
              "duration": 0.55
            },
            {
              "pitch": 43,
              "velocity": 57,
              "position": 11.0,
              "duration": 0.458333
            }
          ]
        },
        "11": {
          "ctab": {
            "srcChannel": 11,
            "name": "Piano",
            "accType": "CHORD1",
            "editable": true,
            "mutedNotes": [],
            "mutedChords": [],
            "sourceChordNote": 0,
            "sourceChordType": "Maj7",
            "ctb2Main": {
              "ntr": "ROOT_FIXED",
              "ntt": "CHORD",
              "bassOn": false,
              "noteLowLimit": 48,
              "noteHighLimit": 84,
              "chordRootUpperLimit": 127,
              "rtr": "NOTE_GENERATOR"
            }
          },
          "notes": [
            {
              "pitch": 60,
              "velocity": 59,
              "position": 0.0,
              "duration": 0.45
            },
            {
              "pitch": 67,
              "velocity": 51,
              "position": 0.5,
              "duration": 0.516667
            },
            {
              "pitch": 64,
              "velocity": 57,
              "position": 1.0,
              "duration": 0.491667
            },
            {
              "pitch": 67,
              "velocity": 58,
              "position": 1.5,
              "duration": 0.458333
            },
            {
              "pitch": 59,
              "velocity": 54,
              "position": 2.0,
              "duration": 0.941667
            },
            {
              "pitch": 60,
              "velocity": 57,
              "position": 2.0,
              "duration": 0.9
            },
            {
              "pitch": 60,
              "velocity": 57,
              "position": 3.0,
              "duration": 0.5
            },
            {
              "pitch": 64,
              "velocity": 54,
              "position": 3.5,
              "duration": 0.5
            },
            {
              "pitch": 67,
              "velocity": 62,
              "position": 4.0,
              "duration": 0.5
            },
            {
              "pitch": 64,
              "velocity": 59,
              "position": 4.5,
              "duration": 0.458333
            },
            {
              "pitch": 59,
              "velocity": 54,
              "position": 5.0,
              "duration": 0.941667
            },
            {
              "pitch": 60,
              "velocity": 57,
              "position": 5.0,
              "duration": 0.9
            },
            {
              "pitch": 60,
              "velocity": 58,
              "position": 6.0,
              "duration": 0.491667
            },
            {
              "pitch": 71,
              "velocity": 49,
              "position": 6.5,
              "duration": 0.541667
            },
            {
              "pitch": 64,
              "velocity": 60,
              "position": 7.0,
              "duration": 0.5
            },
            {
              "pitch": 71,
              "velocity": 53,
              "position": 7.5,
              "duration": 0.5
            },
            {
              "pitch": 67,
              "velocity": 59,
              "position": 8.0,
              "duration": 0.516667
            },
            {
              "pitch": 71,
              "velocity": 53,
              "position": 8.5,
              "duration": 0.425
            },
            {
              "pitch": 60,
              "velocity": 58,
              "position": 9.0,
              "duration": 0.491667
            },
            {
              "pitch": 71,
              "velocity": 49,
              "position": 9.5,
              "duration": 0.541667
            },
            {
              "pitch": 64,
              "velocity": 60,
              "position": 10.0,
              "duration": 0.5
            },
            {
              "pitch": 71,
              "velocity": 53,
              "position": 10.5,
              "duration": 0.5
            },
            {
              "pitch": 67,
              "velocity": 59,
              "position": 11.0,
              "duration": 0.516667
            },
            {
              "pitch": 71,
              "velocity": 53,
              "position": 11.5,
              "duration": 0.425
            }
          ]
        },
        "12": {
          "ctab": {
            "srcChannel": 12,
            "name": "Guitar",
            "accType": "CHORD2",
            "editable": true,
            "mutedNotes": [],
            "mutedChords": [],
            "sourceChordNote": 0,
            "sourceChordType": "Maj7",
            "ctb2Main": {
              "ntr": "ROOT_FIXED",
              "ntt": "CHORD",
              "bassOn": false,
              "noteLowLimit": 40,
              "noteHighLimit": 76,
              "chordRootUpperLimit": 127,
              "rtr": "NOTE_GENERATOR"
            }
          },
          "notes": [
            {
              "pitch": 59,
              "velocity": 28,
              "position": 0.0,
              "duration": 1.958333
            },
            {
              "pitch": 67,
              "velocity": 26,
              "position": 0.008333,
              "duration": 1.95
            },
            {
              "pitch": 60,
              "velocity": 28,
              "position": 2.0,
              "duration": 0.958333
            },
            {
              "pitch": 64,
              "velocity": 26,
              "position": 2.008333,
              "duration": 0.95
            },
            {
              "pitch": 59,
              "velocity": 28,
              "position": 3.0,
              "duration": 1.958333
            },
            {
              "pitch": 67,
              "velocity": 26,
              "position": 3.008333,
              "duration": 1.95
            },
            {
              "pitch": 59,
              "velocity": 28,
              "position": 5.0,
              "duration": 0.958333
            },
            {
              "pitch": 67,
              "velocity": 26,
              "position": 5.008333,
              "duration": 0.95
            },
            {
              "pitch": 60,
              "velocity": 28,
              "position": 6.0,
              "duration": 2.958333
            },
            {
              "pitch": 64,
              "velocity": 26,
              "position": 6.008333,
              "duration": 2.933333
            },
            {
              "pitch": 67,
              "velocity": 33,
              "position": 8.916667,
              "duration": 0.041667
            },
            {
              "pitch": 59,
              "velocity": 28,
              "position": 9.0,
              "duration": 2.958333
            },
            {
              "pitch": 67,
              "velocity": 26,
              "position": 9.008333,
              "duration": 2.933333
            }
          ]
        },
        "13": {
          "ctab": {
            "srcChannel": 13,
            "name": "Strings",
            "accType": "PAD",
            "editable": true,
            "mutedNotes": [],
            "mutedChords": [],
            "sourceChordNote": 0,
            "sourceChordType": "Maj7",
            "ctb2Main": {
              "ntr": "ROOT_FIXED",
              "ntt": "MELODY",
              "bassOn": false,
              "noteLowLimit": 36,
              "noteHighLimit": 96,
              "chordRootUpperLimit": 127,
              "rtr": "PITCH_SHIFT"
            }
          },
          "notes": [
            {
              "pitch": 52,
              "velocity": 44,
              "position": 0.0,
              "duration": 1.958333
            },
            {
              "pitch": 55,
              "velocity": 46,
              "position": 0.0,
              "duration": 1.958333
            },
            {
              "pitch": 60,
              "velocity": 32,
              "position": 0.0,
              "duration": 1.958333
            },
            {
              "pitch": 64,
              "velocity": 41,
              "position": 2.008333,
              "duration": 0.95
            },
            {
              "pitch": 67,
              "velocity": 43,
              "position": 2.008333,
              "duration": 0.95
            },
            {
              "pitch": 59,
              "velocity": 37,
              "position": 2.025,
              "duration": 3.933333
            },
            {
              "pitch": 52,
              "velocity": 44,
              "position": 3.0,
              "duration": 1.958333
            },
            {
              "pitch": 64,
              "velocity": 41,
              "position": 5.008333,
              "duration": 3.95
            },
            {
              "pitch": 67,
              "velocity": 43,
              "position": 5.008333,
              "duration": 0.95
            },
            {
              "pitch": 60,
              "velocity": 37,
              "position": 6.008333,
              "duration": 2.95
            },
            {
              "pitch": 71,
              "velocity": 42,
              "position": 6.008333,
              "duration": 2.95
            },
            {
              "pitch": 52,
              "velocity": 44,
              "position": 9.0,
              "duration": 8.583333
            },
            {
              "pitch": 59,
              "velocity": 36,
              "position": 9.0,
              "duration": 8.6
            }
          ]
        }
      }
    }
  }
}