{
  "name": "Mudy Slow Blues",
  "tempo": 65,
  "timeSignature": "4/4",
  "ticksPerQuarter": 120,
  "sffType": "SFF1",
  "division": "BINARY",
  "channelPrograms": {
    "9": 0,
    "10": 32,
    "11": 0,
    "12": 27,
    "13": 18
  },
  "parts": {
    "Intro_A": {
      "type": "Intro_A",
      "sizeInBeats": 24,
      "channels": {
        "9": {
          "ctab": {
            "srcChannel": 9,
            "name": "Drums",
            "accType": "RHYTHM",
            "editable": false,
            "mutedNotes": [],
            "mutedChords": [],
            "sourceChordNote": 0,
            "sourceChordType": "Maj",
            "ctb2Main": {
              "ntr": "ROOT_FIXED",
              "ntt": "BYPASS",
              "bassOn": false,
              "noteLowLimit": 20,
              "noteHighLimit": 127,
              "chordRootUpperLimit": 127,
              "rtr": "RETRIGGER"
            }
          },
          "notes": [
            {
              "pitch": 37,
              "velocity": 84,
              "position": 0.0,
              "duration": 1.0
            },
            {
              "pitch": 37,
              "velocity": 84,
              "position": 2.0,
              "duration": 1.0
            },
            {
              "pitch": 37,
              "velocity": 64,
              "position": 4.0,
              "duration": 1.0
            },
            {
              "pitch": 37,
              "velocity": 84,
              "position": 5.0,
              "duration": 1.0
            },
            {
              "pitch": 37,
              "velocity": 64,
              "position": 6.0,
              "duration": 1.0
            },
            {
              "pitch": 37,
              "velocity": 84,
              "position": 7.0,
              "duration": 1.0
            },
            {
              "pitch": 36,
              "velocity": 83,
              "position": 8.0,
              "duration": 0.1
            },
            {
              "pitch": 51,
              "velocity": 95,
              "position": 8.0,
              "duration": 0.091667
            },
            {
              "pitch": 51,
              "velocity": 72,
              "position": 8.333333,
              "duration": 0.091667
            },
            {
              "pitch": 51,
              "velocity": 93,
              "position": 8.666667,
              "duration": 0.1
            },
            {
              "pitch": 38,
              "velocity": 105,
              "position": 9.0,
              "duration": 0.1
            },
            {
              "pitch": 51,
              "velocity": 96,
              "position": 9.0,
              "duration": 0.091667
            },
            {
              "pitch": 51,
              "velocity": 72,
              "position": 9.333333,
              "duration": 0.091667
            },
            {
              "pitch": 51,
              "velocity": 81,
              "position": 9.666667,
              "duration": 0.091667
            },
            {
              "pitch": 36,
              "velocity": 88,
              "position": 10.0,
              "duration": 0.091667
            },
            {
              "pitch": 51,
              "velocity": 77,
              "position": 10.0,
              "duration": 0.091667
            },
            {
              "pitch": 51,
              "velocity": 67,
              "position": 10.333333,
              "duration": 0.083333
            },
            {
              "pitch": 51,
              "velocity": 96,
              "position": 10.666667,
              "duration": 0.083333
            },
            {
              "pitch": 38,
              "velocity": 124,
              "position": 11.0,
              "duration": 0.1
            },
            {
              "pitch": 51,
              "velocity": 85,
              "position": 11.0,
              "duration": 0.1
            },
            {
              "pitch": 51,
              "velocity": 70,
              "position": 11.333333,
              "duration": 0.091667
            },
            {
              "pitch": 36,
              "velocity": 68,
              "position": 11.666667,
              "duration": 0.091667
            },
            {
              "pitch": 51,
              "velocity": 79,
              "position": 11.666667,
              "duration": 0.1
            },
            {
              "pitch": 36,
              "velocity": 80,
              "position": 12.0,
              "duration": 0.091667
            },
            {
              "pitch": 51,
              "velocity": 70,
              "position": 12.0,
              "duration": 0.1
            },
            {
              "pitch": 51,
              "velocity": 74,
              "position": 12.333333,
              "duration": 0.1
            },
            {
              "pitch": 51,
              "velocity": 74,
              "position": 12.666667,
              "duration": 0.1
            },
            {
              "pitch": 38,
              "velocity": 127,
              "position": 13.0,
              "duration": 0.091667
            },
            {
              "pitch": 51,
              "velocity": 72,
              "position": 13.0,
              "duration": 0.091667
            },
            {
              "pitch": 51,
              "velocity": 74,
              "position": 13.333333,
              "duration": 0.083333
            },
            {
              "pitch": 51,
              "velocity": 70,
              "position": 13.666667,
              "duration": 0.1
            },
            {
              "pitch": 36,
              "velocity": 76,
              "position": 14.0,
              "duration": 0.091667
            },
            {
              "pitch": 51,
              "velocity": 82,
              "position": 14.0,
              "duration": 0.091667
            },
            {
              "pitch": 51,
              "velocity": 67,
              "position": 14.35,
              "duration": 0.1
            },
            {
              "pitch": 51,
              "velocity": 86,
              "position": 14.658333,
              "duration": 0.1
            },
            {
              "pitch": 38,
              "velocity": 127,
              "position": 15.0,
              "duration": 0.091667
            },
            {
              "pitch": 51,
              "velocity": 93,
              "position": 15.0,
              "duration": 0.091667
            },
            {
              "pitch": 51,
              "velocity": 67,
              "position": 15.333333,
              "duration": 0.091667
            },
            {
              "pitch": 36,
              "velocity": 77,
              "position": 15.666667,
              "duration": 0.1
            },
            {
              "pitch": 51,
              "velocity": 72,
              "position": 15.666667,
              "duration": 0.091667
            },
            {
              "pitch": 36,
              "velocity": 80,
              "position": 16.0,
              "duration": 0.091667
            },
            {
              "pitch": 51,
              "velocity": 70,
              "position": 16.0,
              "duration": 0.1
            },
            {
              "pitch": 51,
              "velocity": 74,
              "position": 16.333333,
              "duration": 0.1
            },
            {
              "pitch": 51,
              "velocity": 74,
              "position": 16.666667,
              "duration": 0.1
            },
            {
              "pitch": 38,
              "velocity": 127,
              "position": 17.0,
              "duration": 0.091667
            },
            {
              "pitch": 51,
              "velocity": 72,
              "position": 17.0,
              "duration": 0.091667
            },
            {
              "pitch": 51,
              "velocity": 74,
              "position": 17.333333,
              "duration": 0.083333
            },
            {
              "pitch": 51,
              "velocity": 70,
              "position": 17.666667,
              "duration": 0.1
            },
            {
              "pitch": 36,
              "velocity": 76,
              "position": 18.0,
              "duration": 0.091667
            },
            {
              "pitch": 51,
              "velocity": 82,
              "position": 18.0,
              "duration": 0.091667
            },
            {
              "pitch": 51,
              "velocity": 67,
              "position": 18.35,
              "duration": 0.1
            },
            {
              "pitch": 51,
              "velocity": 86,
              "position": 18.658333,
              "duration": 0.1
            },
            {
              "pitch": 38,
              "velocity": 127,
              "position": 19.0,
              "duration": 0.091667
            },
            {
              "pitch": 51,
              "velocity": 93,
              "position": 19.0,
              "duration": 0.091667
            },
            {
              "pitch": 51,
              "velocity": 67,
              "position": 19.333333,
              "duration": 0.091667
            },
            {
              "pitch": 36,
              "velocity": 77,
              "position": 19.666667,
              "duration": 0.1
            },
            {
              "pitch": 51,
              "velocity": 72,
              "position": 19.666667,
              "duration": 0.091667
            },
            {
              "pitch": 36,
              "velocity": 102,
              "position": 20.0,
              "duration": 0.208333
            },
            {
              "pitch": 38,
              "velocity": 127,
              "position": 20.0,
              "duration": 0.208333
            },
            {
              "pitch": 46,
              "velocity": 109,
              "position": 20.0,
              "duration": 0.208333
            },
            {
              "pitch": 51,
              "velocity": 116,
              "position": 20.0,
              "duration": 0.208333
            },
            {
              "pitch": 51,
              "velocity": 72,
              "position": 20.333333,
              "duration": 0.208333
            },
            {
              "pitch": 36,
              "velocity": 88,
              "position": 20.666667,
              "duration": 0.208333
            },
            {
              "pitch": 51,
              "velocity": 84,
              "position": 20.666667,
              "duration": 0.208333
            },
            {
              "pitch": 38,
              "velocity": 127,
              "position": 21.0,
              "duration": 0.208333
            },
            {
              "pitch": 51,
              "velocity": 86,
              "position": 21.0,
              "duration": 0.208333
            },
            {
              "pitch": 51,
              "velocity": 92,
              "position": 21.333333,
              "duration": 0.208333
            },
            {
              "pitch": 36,
              "velocity": 108,
              "position": 21.666667,
              "duration": 0.208333
            },
            {
              "pitch": 49,
              "velocity": 127,
              "position": 21.666667,
              "duration": 0.208333
            },
            {
              "pitch": 51,
              "velocity": 81,
              "position": 21.666667,
              "duration": 0.208333
            },
            {
              "pitch": 51,
              "velocity": 67,
              "position": 22.0,
              "duration": 0.208333
            },
            {
              "pitch": 38,
              "velocity": 127,
              "position": 22.333333,
              "duration": 0.208333
            },
            {
              "pitch": 51,
              "velocity": 85,
              "position": 22.333333,
              "duration": 0.208333
            },
            {
              "pitch": 51,
              "velocity": 72,
              "position": 22.666667,
              "duration": 0.208333
            },
            {
              "pitch": 48,
              "velocity": 127,
              "position": 23.0,
              "duration": 0.208333
            },
            {
              "pitch": 45,
              "velocity": 127,
              "position": 23.333333,
              "duration": 0.208333
            },
            {
              "pitch": 41,
              "velocity": 121,
              "position": 23.666667,
              "duration": 0.208333
            }
          ]
        },
        "10": {
          "ctab": {
            "srcChannel": 10,
            "name": "Bass",
            "accType": "BASS",
            "editable": true,
            "mutedNotes": [],
            "mutedChords": [],
            "sourceChordNote": 0,
            "sourceChordType": "Maj7",
            "ctb2Main": {
              "ntr": "ROOT_TRANSPOSITION",
              "ntt": "BYPASS",
              "bassOn": true,
              "noteLowLimit": 20,
              "noteHighLimit": 60,
              "chordRootUpperLimit": 127,
              "rtr": "NOTE_GENERATOR"
            }
          },
          "notes": [
            {
              "pitch": 36,
              "velocity": 62,
              "position": 8.0,
              "duration": 0.9
            },
            {
              "pitch": 35,
              "velocity": 61,
              "position": 9.0,
              "duration": 0.858333
            },
            {
              "pitch": 36,
              "velocity": 62,
              "position": 10.0,
              "duration": 0.9
            },
            {
              "pitch": 36,
              "velocity": 61,
              "position": 11.0,
              "duration": 0.858333
            },
            {
              "pitch": 36,
              "velocity": 62,
              "position": 12.0,
              "duration": 0.9
            },
            {
              "pitch": 35,
              "velocity": 61,
              "position": 13.0,
              "duration": 0.858333
            },
            {
              "pitch": 36,
              "velocity": 62,
              "position": 14.0,
              "duration": 0.9
            },
            {
              "pitch": 35,
              "velocity": 61,
              "position": 15.0,
              "duration": 0.858333
            },
            {
              "pitch": 36,
              "velocity": 71,
              "position": 16.0,
              "duration": 0.983333
            },
            {
              "pitch": 40,
              "velocity": 59,
              "position": 17.0,
              "duration": 1.008333
            },
            {
              "pitch": 43,
              "velocity": 73,
              "position": 18.0,
              "duration": 1.05
            },
            {
              "pitch": 40,
              "velocity": 55,
              "position": 19.0,
              "duration": 0.6
            },
            {
              "pitch": 43,
              "velocity": 57,
              "position": 19.666667,
              "duration": 0.35
            },
            {
              "pitch": 36,
              "velocity": 50,
              "position": 20.0,
              "duration": 1.05
            },
            {
              "pitch": 40,
              "velocity": 60,
              "position": 21.0,
              "duration": 1.033333
            },
            {
              "pitch": 43,
              "velocity": 58,
              "position": 22.0,
              "duration": 1.016667
            },
            {
              "pitch": 36,
              "velocity": 64,
              "position": 23.0,
              "duration": 0.9
            }
          ]
        },
        "11": {
          "ctab": {
            "srcChannel": 11,
            "name": "Piano",
            "accType": "CHORD1",
            "editable": true,
            "mutedNotes": [],
            "mutedChords": [],
            "sourceChordNote": 0,
            "sourceChordType": "Maj7",
            "ctb2Main": {
              "ntr": "ROOT_FIXED",
              "ntt": "CHORD",
              "bassOn": false,
              "noteLowLimit": 48,
              "noteHighLimit": 84,
              "chordRootUpperLimit": 127,
              "rtr": "NOTE_GENERATOR"
            }
          },
          "notes": []
        },
        "12": {
          "ctab": {
            "srcChannel": 12,
            "name": "Guitar",
            "accType": "CHORD2",
            "editable": true,
            "mutedNotes": [],
            "mutedChords": [],
            "sourceChordNote": 0,
            "sourceChordType": "Maj7",
            "ctb2Main": {
              "ntr": "ROOT_FIXED",
              "ntt": "CHORD",
              "bassOn": false,
              "noteLowLimit": 40,
              "noteHighLimit": 76,
              "chordRootUpperLimit": 127,
              "rtr": "NOTE_GENERATOR"
            }
          },
          "notes": [
            {
              "pitch": 48,
              "velocity": 68,
              "position": 8.0,
              "duration": 0.341667
            },
            {
              "pitch": 54,
              "velocity": 32,
              "position": 8.0,
              "duration": 0.133333
            },
            {
              "pitch": 55,
              "velocity": 52,
              "position": 8.041667,
              "duration": 0.316667
            },
            {
              "pitch": 48,
              "velocity": 60,
              "position": 8.666667,
              "duration": 0.308333
            },
            {
              "pitch": 55,
              "velocity": 65,
              "position": 8.666667,
              "duration": 0.316667
            },
            {
              "pitch": 48,
              "velocity": 62,
              "position": 9.0,
              "duration": 0.275
            },
            {
              "pitch": 55,
              "velocity": 74,
              "position": 9.0,
              "duration": 0.283333
            },
            {
              "pitch": 48,
              "velocity": 59,
              "position": 9.666667,
              "duration": 0.291667
            },
            {
              "pitch": 55,
              "velocity": 68,
              "position": 9.666667,
              "duration": 0.275
            },
            {
              "pitch": 48,
              "velocity": 68,
              "position": 10.0,
              "duration": 0.341667
            },
            {
              "pitch": 54,
              "velocity": 32,
              "position": 10.0,
              "duration": 0.133333
            },
            {
              "pitch": 55,
              "velocity": 52,
              "position": 10.041667,
              "duration": 0.316667
            },
            {
              "pitch": 48,
              "velocity": 60,
              "position": 10.666667,
              "duration": 0.308333
            },
            {
              "pitch": 55,
              "velocity": 65,
              "position": 10.666667,
              "duration": 0.316667
            },
            {
              "pitch": 48,
              "velocity": 62,
              "position": 11.0,
              "duration": 0.275
            },
            {
              "pitch": 55,
              "velocity": 74,
              "position": 11.0,
              "duration": 0.283333
            },
            {
              "pitch": 48,
              "velocity": 59,
              "position": 11.666667,
              "duration": 0.291667
            },
            {
              "pitch": 55,
              "velocity": 68,
              "position": 11.666667,
              "duration": 0.275
            },
            {
              "pitch": 48,
              "velocity": 68,
              "position": 12.0,
              "duration": 0.341667
            },
            {
              "pitch": 54,
              "velocity": 32,
              "position": 12.0,
              "duration": 0.133333
            },
            {
              "pitch": 55,
              "velocity": 52,
              "position": 12.041667,
              "duration": 0.316667
            },
            {
              "pitch": 48,
              "velocity": 60,
              "position": 12.666667,
              "duration": 0.308333
            },
            {
              "pitch": 55,
              "velocity": 65,
              "position": 12.666667,
              "duration": 0.316667
            },
            {
              "pitch": 48,
              "velocity": 62,
              "position": 13.0,
              "duration": 0.275
            },
            {
              "pitch": 55,
              "velocity": 74,
              "position": 13.0,
              "duration": 0.283333
            },
            {
              "pitch": 48,
              "velocity": 59,
              "position": 13.666667,
              "duration": 0.291667
            },
            {
              "pitch": 55,
              "velocity": 68,
              "position": 13.666667,
              "duration": 0.275
            },
            {
              "pitch": 48,
              "velocity": 68,
              "position": 14.0,
              "duration": 0.341667
            },
            {
              "pitch": 54,
              "velocity": 32,
              "position": 14.0,
              "duration": 0.133333
            },
            {
              "pitch": 55,
              "velocity": 52,
              "position": 14.041667,
              "duration": 0.316667
            },
            {
              "pitch": 48,
              "velocity": 60,
              "position": 14.666667,
              "duration": 0.308333
            },
            {
              "pitch": 55,
              "velocity": 65,
              "position": 14.666667,
              "duration": 0.316667
            },
            {
              "pitch": 48,
              "velocity": 62,
              "position": 15.0,
              "duration": 0.275
            },
            {
              "pitch": 55,
              "velocity": 74,
              "position": 15.0,
              "duration": 0.283333
            },
            {
              "pitch": 48,
              "velocity": 59,
              "position": 15.666667,
              "duration": 0.291667
            },
            {
              "pitch": 55,
              "velocity": 68,
              "position": 15.666667,
              "duration": 0.275
            },
            {
              "pitch": 48,
              "velocity": 65,
              "position": 16.0,
              "duration": 0.341667
            },
            {
              "pitch": 54,
              "velocity": 29,
              "position": 16.0,
              "duration": 0.133333
            },
            {
              "pitch": 55,
              "velocity": 49,
              "position": 16.0,
              "duration": 0.316667
            },
            {
              "pitch": 48,
              "velocity": 57,
              "position": 16.666667,
              "duration": 0.233333
            },
            {
              "pitch": 55,
              "velocity": 62,
              "position": 16.666667,
              "duration": 0.3
            },
            {
              "pitch": 48,
              "velocity": 55,
              "position": 17.0,
              "duration": 0.275
            },
            {
              "pitch": 55,
              "velocity": 68,
              "position": 17.0,
              "duration": 0.283333
            },
            {
              "pitch": 48,
              "velocity": 56,
              "position": 17.666667,
              "duration": 0.375
            },
            {
              "pitch": 55,
              "velocity": 65,
              "position": 17.666667,
              "duration": 0.225
            },
            {
              "pitch": 55,
              "velocity": 65,
              "position": 18.0,
              "duration": 0.333333
            },
            {
              "pitch": 48,
              "velocity": 62,
              "position": 18.666667,
              "duration": 0.208333
            },
            {
              "pitch": 55,
              "velocity": 65,
              "position": 18.666667,
              "duration": 0.208333
            },
            {
              "pitch": 48,
              "velocity": 68,
              "position": 19.0,
              "duration": 0.333333
            },
            {
              "pitch": 55,
              "velocity": 83,
              "position": 19.0,
              "duration": 0.333333
            },
            {
              "pitch": 48,
              "velocity": 56,
              "position": 19.666667,
              "duration": 0.241667
            },
            {
              "pitch": 55,
              "velocity": 65,
              "position": 19.666667,
              "duration": 0.166667
            },
            {
              "pitch": 48,
              "velocity": 59,
              "position": 20.0,
              "duration": 0.333333
            },
            {
              "pitch": 54,
              "velocity": 51,
              "position": 20.0,
              "duration": 0.133333
            },
            {
              "pitch": 55,
              "velocity": 57,
              "position": 20.0,
              "duration": 0.333333
            },
            {
              "pitch": 48,
              "velocity": 59,
              "position": 20.666667,
              "duration": 0.216667
            },
            {
              "pitch": 55,
              "velocity": 61,
              "position": 20.666667,
              "duration": 0.275
            },
            {
              "pitch": 48,
              "velocity": 54,
              "position": 21.0,
              "duration": 0.308333
            },
            {
              "pitch": 55,
              "velocity": 60,
              "position": 21.0,
              "duration": 0.325
            },
            {
              "pitch": 48,
              "velocity": 62,
              "position": 21.666667,
              "duration": 0.208333
            },
            {
              "pitch": 55,
              "velocity": 74,
              "position": 21.666667,
              "duration": 0.216667
            },
            {
              "pitch": 48,
              "velocity": 55,
              "position": 22.0,
              "duration": 0.216667
            },
            {
              "pitch": 59,
              "velocity": 72,
              "position": 22.0,
              "duration": 0.2
            },
            {
              "pitch": 48,
              "velocity": 60,
              "position": 22.666667,
              "duration": 0.241667
            },
            {
              "pitch": 59,
              "velocity": 78,
              "position": 22.666667,
              "duration": 0.283333
            },
            {
              "pitch": 48,
              "velocity": 51,
              "position": 23.0,
              "duration": 0.283333
            },
            {
              "pitch": 55,
              "velocity": 64,
              "position": 23.0,
              "duration": 0.283333
            },
            {
              "pitch": 48,
              "velocity": 53,
              "position": 23.666667,
              "duration": 0.216667
            },
            {
              "pitch": 55,
              "velocity": 61,
              "position": 23.666667,
              "duration": 0.291667
            }
          ]
        },
        "13": {
          "ctab": {
            "srcChannel": 13,
            "name": "Strings",
            "accType": "PAD",
            "editable": true,
            "mutedNotes": [],
            "mutedChords": [],
            "sourceChordNote": 0,
            "sourceChordType": "Maj7",
            "ctb2Main": {
              "ntr": "ROOT_FIXED",
              "ntt": "MELODY",
              "bassOn": false,
              "noteLowLimit": 36,
              "noteHighLimit": 96,
              "chordRootUpperLimit": 127,
              "rtr": "PITCH_SHIFT"
            }
          },
          "notes": [
            {
              "pitch": 66,
              "velocity": 50,
              "position": 8.025,
              "duration": 0.116667
            },
            {
              "pitch": 71,
              "velocity": 46,
              "position": 8.033333,
              "duration": 1.566667
            },
            {
              "pitch": 64,
              "velocity": 42,
              "position": 8.041667,
              "duration": 1.558333
            },
            {
              "pitch": 67,
              "velocity": 24,
              "position": 8.166667,
              "duration": 1.433333
            },
            {
              "pitch": 64,
              "velocity": 42,
              "position": 9.683333,
              "duration": 2.258333
            },
            {
              "pitch": 66,
              "velocity": 50,
              "position": 9.683333,
              "duration": 0.416667
            },
            {
              "pitch": 71,
              "velocity": 46,
              "position": 9.683333,
              "duration": 2.258333
            },
            {
              "pitch": 67,
              "velocity": 24,
              "position": 9.741667,
              "duration": 2.2
            },
            {
              "pitch": 66,
              "velocity": 50,
              "position": 12.025,
              "duration": 0.116667
            },
            {
              "pitch": 71,
              "velocity": 46,
              "position": 12.033333,
              "duration": 1.566667
            },
            {
              "pitch": 64,
              "velocity": 42,
              "position": 12.041667,
              "duration": 1.558333
            },
            {
              "pitch": 67,
              "velocity": 24,
              "position": 12.166667,
              "duration": 1.433333
            },
            {
              "pitch": 64,
              "velocity": 42,
              "position": 13.683333,
              "duration": 1.916667
            },
            {
              "pitch": 66,
              "velocity": 50,
              "position": 13.683333,
              "duration": 0.416667
            },
            {
              "pitch": 71,
              "velocity": 46,
              "position": 13.683333,
              "duration": 1.916667
            },
            {
              "pitch": 67,
              "velocity": 24,
              "position": 13.741667,
              "duration": 1.858333
            },
            {
              "pitch": 74,
              "velocity": 34,
              "position": 15.683333,
              "duration": 8.258333
            },
            {
              "pitch": 66,
              "velocity": 54,
              "position": 15.7,
              "duration": 0.433333
            },
            {
              "pitch": 64,
              "velocity": 36,
              "position": 15.708333,
              "duration": 8.075
            },
            {
              "pitch": 67,
              "velocity": 29,
              "position": 16.166667,
              "duration": 7.55
            }
          ]
        }
      }
    },
    "Main_A": {
      "type": "Main_A",
      "sizeInBeats": 16,
      "channels": {
        "9": {
          "ctab": {
            "srcChannel": 9,
            "name": "Drums",
            "accType": "RHYTHM",
            "editable": false,
            "mutedNotes": [],
            "mutedChords": [],
            "sourceChordNote": 0,
            "sourceChordType": "Maj",
            "ctb2Main": {
              "ntr": "ROOT_FIXED",
              "ntt": "BYPASS",
              "bassOn": false,
              "noteLowLimit": 20,
              "noteHighLimit": 127,
              "chordRootUpperLimit": 127,
              "rtr": "RETRIGGER"
            }
          },
          "notes": [
            {
              "pitch": 36,
              "velocity": 119,
              "position": 0.0,
              "duration": 0.1
            },
            {
              "pitch": 49,
              "velocity": 127,
              "position": 0.0,
              "duration": 0.091667
            },
            {
              "pitch": 36,
              "velocity": 91,
              "position": 0.666667,
              "duration": 0.091667
            },
            {
              "pitch": 51,
              "velocity": 72,
              "position": 0.666667,
              "duration": 0.108333
            },
            {
              "pitch": 38,
              "velocity": 127,
              "position": 1.0,
              "duration": 0.1
            },
            {
              "pitch": 51,
              "velocity": 122,
              "position": 1.0,
              "duration": 0.091667
            },
            {
              "pitch": 51,
              "velocity": 98,
              "position": 1.333333,
              "duration": 0.1
            },
            {
              "pitch": 36,
              "velocity": 86,
              "position": 1.666667,
              "duration": 0.033333
            },
            {
              "pitch": 51,
              "velocity": 116,
              "position": 1.666667,
              "duration": 0.091667
            },
            {
              "pitch": 36,
              "velocity": 92,
              "position": 2.0,
              "duration": 0.1
            },
            {
              "pitch": 51,
              "velocity": 127,
              "position": 2.0,
              "duration": 0.083333
            },
            {
              "pitch": 51,
              "velocity": 127,
              "position": 2.333333,
              "duration": 0.1
            },
            {
              "pitch": 36,
              "velocity": 89,
              "position": 2.666667,
              "duration": 0.083333
            },
            {
              "pitch": 51,
              "velocity": 86,
              "position": 2.666667,
              "duration": 0.1
            },
            {
              "pitch": 38,
              "velocity": 127,
              "position": 3.0,
              "duration": 0.091667
            },
            {
              "pitch": 51,
              "velocity": 127,
              "position": 3.0,
              "duration": 0.091667
            },
            {
              "pitch": 51,
              "velocity": 90,
              "position": 3.333333,
              "duration": 0.1
            },
            {
              "pitch": 36,
              "velocity": 92,
              "position": 3.666667,
              "duration": 0.1
            },
            {
              "pitch": 51,
              "velocity": 119,
              "position": 3.666667,
              "duration": 0.108333
            },
            {
              "pitch": 36,
              "velocity": 98,
              "position": 4.0,
              "duration": 0.041667
            },
            {
              "pitch": 51,
              "velocity": 103,
              "position": 4.0,
              "duration": 0.1
            },
            {
              "pitch": 51,
              "velocity": 127,
              "position": 4.333333,
              "duration": 0.1
            },
            {
              "pitch": 36,
              "velocity": 86,
              "position": 4.666667,
              "duration": 0.041667
            },
            {
              "pitch": 51,
              "velocity": 103,
              "position": 4.666667,
              "duration": 0.1
            },
            {
              "pitch": 38,
              "velocity": 127,
              "position": 5.0,
              "duration": 0.091667
            },
            {
              "pitch": 51,
              "velocity": 113,
              "position": 5.0,
              "duration": 0.091667
            },
            {
              "pitch": 51,
              "velocity": 101,
              "position": 5.333333,
              "duration": 0.083333
            },
            {
              "pitch": 36,
              "velocity": 95,
              "position": 5.666667,
              "duration": 0.1
            },
            {
              "pitch": 51,
              "velocity": 88,
              "position": 5.666667,
              "duration": 0.1
            },
            {
              "pitch": 36,
              "velocity": 104,
              "position": 6.0,
              "duration": 0.033333
            },
            {
              "pitch": 51,
              "velocity": 77,
              "position": 6.0,
              "duration": 0.091667
            },
            {
              "pitch": 51,
              "velocity": 93,
              "position": 6.35,
              "duration": 0.1
            },
            {
              "pitch": 51,
              "velocity": 106,
              "position": 6.658333,
              "duration": 0.1
            },
            {
              "pitch": 36,
              "velocity": 96,
              "position": 6.666667,
              "duration": 0.05
            },
            {
              "pitch": 38,
              "velocity": 127,
              "position": 6.991667,
              "duration": 0.091667
            },
            {
              "pitch": 51,
              "velocity": 119,
              "position": 7.0,
              "duration": 0.1
            },
            {
              "pitch": 51,
              "velocity": 98,
              "position": 7.333333,
              "duration": 0.1
            },
            {
              "pitch": 36,
              "velocity": 99,
              "position": 7.658333,
              "duration": 0.083333
            },
            {
              "pitch": 51,
              "velocity": 113,
              "position": 7.658333,
              "duration": 0.091667
            },
            {
              "pitch": 36,
              "velocity": 119,
              "position": 8.0,
              "duration": 0.1
            },
            {
              "pitch": 49,
              "velocity": 127,
              "position": 8.0,
              "duration": 0.091667
            },
            {
              "pitch": 36,
              "velocity": 91,
              "position": 8.666667,
              "duration": 0.091667
            },
            {
              "pitch": 51,
              "velocity": 72,
              "position": 8.666667,
              "duration": 0.108333
            },
            {
              "pitch": 38,
              "velocity": 127,
              "position": 9.0,
              "duration": 0.1
            },
            {
              "pitch": 51,
              "velocity": 122,
              "position": 9.0,
              "duration": 0.091667
            },
            {
              "pitch": 51,
              "velocity": 98,
              "position": 9.333333,
              "duration": 0.1
            },
            {
              "pitch": 36,
              "velocity": 86,
              "position": 9.666667,
              "duration": 0.033333
            },
            {
              "pitch": 51,
              "velocity": 116,
              "position": 9.666667,
              "duration": 0.091667
            },
            {
              "pitch": 36,
              "velocity": 92,
              "position": 10.0,
              "duration": 0.1
            },
            {
              "pitch": 51,
              "velocity": 127,
              "position": 10.0,
              "duration": 0.083333
            },
            {
              "pitch": 51,
              "velocity": 127,
              "position": 10.333333,
              "duration": 0.1
            },
            {
              "pitch": 36,
              "velocity": 89,
              "position": 10.666667,
              "duration": 0.083333
            },
            {
              "pitch": 51,
              "velocity": 86,
              "position": 10.666667,
              "duration": 0.1
            },
            {
              "pitch": 38,
              "velocity": 127,
              "position": 11.0,
              "duration": 0.091667
            },
            {
              "pitch": 51,
              "velocity": 127,
              "position": 11.0,
              "duration": 0.091667
            },
            {
              "pitch": 51,
              "velocity": 90,
              "position": 11.333333,
              "duration": 0.1
            },
            {
              "pitch": 36,
              "velocity": 92,
              "position": 11.666667,
              "duration": 0.1
            },
            {
              "pitch": 51,
              "velocity": 119,
              "position": 11.666667,
              "duration": 0.108333
            },
            {
              "pitch": 36,
              "velocity": 61,
              "position": 12.0,
              "duration": 0.208333
            },
            {
              "pitch": 51,
              "velocity": 127,
              "position": 12.0,
              "duration": 0.208333
            },
            {
              "pitch": 51,
              "velocity": 69,
              "position": 12.333333,
              "duration": 0.208333
            },
            {
              "pitch": 36,
              "velocity": 99,
              "position": 12.666667,
              "duration": 0.208333
            },
            {
              "pitch": 51,
              "velocity": 96,
              "position": 12.666667,
              "duration": 0.208333
            },
            {
              "pitch": 40,
              "velocity": 127,
              "position": 13.0,
              "duration": 0.208333
            },
            {
              "pitch": 51,
              "velocity": 93,
              "position": 13.0,
              "duration": 0.208333
            },
            {
              "pitch": 51,
              "velocity": 74,
              "position": 13.333333,
              "duration": 0.208333
            },
            {
              "pitch": 38,
              "velocity": 127,
              "position": 13.666667,
              "duration": 0.208333
            },
            {
              "pitch": 51,
              "velocity": 122,
              "position": 13.666667,
              "duration": 0.208333
            },
            {
              "pitch": 36,
              "velocity": 113,
              "position": 14.0,
              "duration": 0.208333
            },
            {
              "pitch": 51,
              "velocity": 105,
              "position": 14.0,
              "duration": 0.208333
            },
            {
              "pitch": 38,
              "velocity": 127,
              "position": 14.333333,
              "duration": 0.208333
            },
            {
              "pitch": 51,
              "velocity": 98,
              "position": 14.333333,
              "duration": 0.208333
            },
            {
              "pitch": 38,
              "velocity": 127,
              "position": 14.666667,
              "duration": 0.208333
            },
            {
              "pitch": 48,
              "velocity": 82,
              "position": 14.666667,
              "duration": 0.208333
            },
            {
              "pitch": 40,
              "velocity": 127,
              "position": 15.0,
              "duration": 0.208333
            },
            {
              "pitch": 48,
              "velocity": 127,
              "position": 15.0,
              "duration": 0.208333
            },
            {
              "pitch": 38,
              "velocity": 127,
              "position": 15.333333,
              "duration": 0.208333
            },
            {
              "pitch": 45,
              "velocity": 87,
              "position": 15.333333,
              "duration": 0.208333
            },
            {
              "pitch": 41,
              "velocity": 126,
              "position": 15.666667,
              "duration": 0.208333
            }
          ]
        },
        "10": {
          "ctab": {
            "srcChannel": 10,
            "name": "Bass",
            "accType": "BASS",
            "editable": true,
            "mutedNotes": [],
            "mutedChords": [],
            "sourceChordNote": 0,
            "sourceChordType": "Maj7",
            "ctb2Main": {
              "ntr": "ROOT_TRANSPOSITION",
              "ntt": "BYPASS",
              "bassOn": true,
              "noteLowLimit": 20,
              "noteHighLimit": 60,
              "chordRootUpperLimit": 127,
              "rtr": "NOTE_GENERATOR"
            }
          },
          "notes": [
            {
              "pitch": 36,
              "velocity": 62,
              "position": 0.0,
              "duration": 0.9
            },
            {
              "pitch": 36,
              "velocity": 61,
              "position": 1.0,
              "duration": 0.858333
            },
            {
              "pitch": 36,
              "velocity": 62,
              "position": 2.0,
              "duration": 0.9
            },
            {
              "pitch": 40,
              "velocity": 61,
              "position": 3.0,
              "duration": 0.575
            },
            {
              "pitch": 43,
              "velocity": 70,
              "position": 3.683333,
              "duration": 0.258333
            },
            {
              "pitch": 36,
              "velocity": 62,
              "position": 4.0,
              "duration": 0.9
            },
            {
              "pitch": 36,
              "velocity": 61,
              "position": 5.0,
              "duration": 0.858333
            },
            {
              "pitch": 36,
              "velocity": 62,
              "position": 6.0,
              "duration": 0.9
            },
            {
              "pitch": 36,
              "velocity": 61,
              "position": 7.0,
              "duration": 0.858333
            },
            {
              "pitch": 36,
              "velocity": 71,
              "position": 8.0,
              "duration": 0.983333
            },
            {
              "pitch": 40,
              "velocity": 59,
              "position": 9.0,
              "duration": 1.008333
            },
            {
              "pitch": 43,
              "velocity": 73,
              "position": 10.0,
              "duration": 1.05
            },
            {
              "pitch": 40,
              "velocity": 55,
              "position": 11.0,
              "duration": 0.6
            },
            {
              "pitch": 43,
              "velocity": 57,
              "position": 11.666667,
              "duration": 0.35
            },
            {
              "pitch": 36,
              "velocity": 50,
              "position": 12.0,
              "duration": 1.05
            },
            {
              "pitch": 40,
              "velocity": 60,
              "position": 13.0,
              "duration": 1.033333
            },
            {
              "pitch": 43,
              "velocity": 58,
              "position": 14.0,
              "duration": 1.016667
            },
            {
              "pitch": 36,
              "velocity": 64,
              "position": 15.0,
              "duration": 0.9
            }
          ]
        },
        "11": {
          "ctab": {
            "srcChannel": 11,
            "name": "Piano",
            "accType": "CHORD1",
            "editable": true,
            "mutedNotes": [],
            "mutedChords": [],
            "sourceChordNote": 0,
            "sourceChordType": "Maj7",
            "ctb2Main": {
              "ntr": "ROOT_FIXED",
              "ntt": "CHORD",
              "bassOn": false,
              "noteLowLimit": 48,
              "noteHighLimit": 84,
              "chordRootUpperLimit": 127,
              "rtr": "NOTE_GENERATOR"
            }
          },
          "notes": [
            {
              "pitch": 90,
              "velocity": 94,
              "position": 0.033333,
              "duration": 0.116667
            },
            {
              "pitch": 98,
              "velocity": 84,
              "position": 0.041667,
              "duration": 0.491667
            },
            {
              "pitch": 91,
              "velocity": 68,
              "position": 0.066667,
              "duration": 0.2
            },
            {
              "pitch": 91,
              "velocity": 45,
              "position": 0.35,
              "duration": 0.166667
            },
            {
              "pitch": 91,
              "velocity": 70,
              "position": 0.683333,
              "duration": 0.158333
            },
            {
              "pitch": 98,
              "velocity": 64,
              "position": 0.683333,
              "duration": 0.175
            },
            {
              "pitch": 91,
              "velocity": 68,
              "position": 1.016667,
              "duration": 0.466667
            },
            {
              "pitch": 98,
              "velocity": 64,
              "position": 1.016667,
              "duration": 0.45
            },
            {
              "pitch": 91,
              "velocity": 73,
              "position": 1.683333,
              "duration": 0.141667
            },
            {
              "pitch": 95,
              "velocity": 71,
              "position": 1.683333,
              "duration": 0.158333
            },
            {
              "pitch": 90,
              "velocity": 94,
              "position": 2.033333,
              "duration": 0.116667
            },
            {
              "pitch": 98,
              "velocity": 84,
              "position": 2.041667,
              "duration": 0.491667
            },
            {
              "pitch": 91,
              "velocity": 68,
              "position": 2.066667,
              "duration": 0.366667
            },
            {
              "pitch": 91,
              "velocity": 70,
              "position": 2.683333,
              "duration": 0.475
            },
            {
              "pitch": 98,
              "velocity": 64,
              "position": 2.683333,
              "duration": 0.416667
            },
            {
              "pitch": 90,
              "velocity": 94,
              "position": 4.033333,
              "duration": 0.116667
            },
            {
              "pitch": 98,
              "velocity": 84,
              "position": 4.041667,
              "duration": 0.491667
            },
            {
              "pitch": 91,
              "velocity": 68,
              "position": 4.066667,
              "duration": 0.2
            },
            {
              "pitch": 91,
              "velocity": 45,
              "position": 4.35,
              "duration": 0.166667
            },
            {
              "pitch": 91,
              "velocity": 70,
              "position": 4.683333,
              "duration": 0.158333
            },
            {
              "pitch": 98,
              "velocity": 64,
              "position": 4.683333,
              "duration": 0.175
            },
            {
              "pitch": 91,
              "velocity": 68,
              "position": 5.016667,
              "duration": 0.466667
            },
            {
              "pitch": 98,
              "velocity": 64,
              "position": 5.016667,
              "duration": 0.45
            },
            {
              "pitch": 91,
              "velocity": 73,
              "position": 5.683333,
              "duration": 0.141667
            },
            {
              "pitch": 95,
              "velocity": 71,
              "position": 5.683333,
              "duration": 0.158333
            },
            {
              "pitch": 90,
              "velocity": 94,
              "position": 6.033333,
              "duration": 0.116667
            },
            {
              "pitch": 98,
              "velocity": 84,
              "position": 6.041667,
              "duration": 0.491667
            },
            {
              "pitch": 91,
              "velocity": 68,
              "position": 6.066667,
              "duration": 0.366667
            },
            {
              "pitch": 91,
              "velocity": 70,
              "position": 6.683333,
              "duration": 0.475
            },
            {
              "pitch": 98,
              "velocity": 64,
              "position": 6.683333,
              "duration": 0.416667
            },
            {
              "pitch": 90,
              "velocity": 94,
              "position": 8.033333,
              "duration": 0.116667
            },
            {
              "pitch": 98,
              "velocity": 84,
              "position": 8.041667,
              "duration": 0.491667
            },
            {
              "pitch": 91,
              "velocity": 68,
              "position": 8.066667,
              "duration": 0.2
            },
            {
              "pitch": 91,
              "velocity": 45,
              "position": 8.35,
              "duration": 0.166667
            },
            {
              "pitch": 91,
              "velocity": 70,
              "position": 8.683333,
              "duration": 0.158333
            },
            {
              "pitch": 98,
              "velocity": 64,
              "position": 8.683333,
              "duration": 0.175
            },
            {
              "pitch": 91,
              "velocity": 68,
              "position": 9.016667,
              "duration": 0.466667
            },
            {
              "pitch": 98,
              "velocity": 64,
              "position": 9.016667,
              "duration": 0.45
            },
            {
              "pitch": 91,
              "velocity": 73,
              "position": 9.683333,
              "duration": 0.141667
            },
            {
              "pitch": 95,
              "velocity": 71,
              "position": 9.683333,
              "duration": 0.158333
            },
            {
              "pitch": 87,
              "velocity": 68,
              "position": 10.041667,
              "duration": 0.125
            },
            {
              "pitch": 91,
              "velocity": 64,
              "position": 10.058333,
              "duration": 0.358333
            },
            {
              "pitch": 88,
              "velocity": 70,
              "position": 10.175,
              "duration": 0.241667
            },
            {
              "pitch": 86,
              "velocity": 51,
              "position": 10.625,
              "duration": 1.008333
            },
            {
              "pitch": 91,
              "velocity": 65,
              "position": 10.625,
              "duration": 1.033333
            },
            {
              "pitch": 90,
              "velocity": 90,
              "position": 12.641667,
              "duration": 0.075
            },
            {
              "pitch": 98,
              "velocity": 81,
              "position": 12.65,
              "duration": 0.208333
            },
            {
              "pitch": 91,
              "velocity": 64,
              "position": 12.658333,
              "duration": 0.233333
            },
            {
              "pitch": 98,
              "velocity": 73,
              "position": 13.0,
              "duration": 0.333333
            },
            {
              "pitch": 90,
              "velocity": 77,
              "position": 13.008333,
              "duration": 0.1
            },
            {
              "pitch": 91,
              "velocity": 71,
              "position": 13.075,
              "duration": 0.3
            },
            {
              "pitch": 91,
              "velocity": 64,
              "position": 13.608333,
              "duration": 0.166667
            },
            {
              "pitch": 95,
              "velocity": 59,
              "position": 13.608333,
              "duration": 0.166667
            },
            {
              "pitch": 87,
              "velocity": 79,
              "position": 14.016667,
              "duration": 0.283333
            },
            {
              "pitch": 91,
              "velocity": 66,
              "position": 14.041667,
              "duration": 0.333333
            },
            {
              "pitch": 88,
              "velocity": 64,
              "position": 14.15,
              "duration": 0.208333
            },
            {
              "pitch": 86,
              "velocity": 47,
              "position": 14.625,
              "duration": 0.758333
            },
            {
              "pitch": 88,
              "velocity": 55,
              "position": 14.625,
              "duration": 0.741667
            }
          ]
        },
        "12": {
          "ctab": {
            "srcChannel": 12,
            "name": "Guitar",
            "accType": "CHORD2",
            "editable": true,
            "mutedNotes": [],
            "mutedChords": [],
            "sourceChordNote": 0,
            "sourceChordType": "Maj7",
            "ctb2Main": {
              "ntr": "ROOT_FIXED",
              "ntt": "CHORD",
              "bassOn": false,
              "noteLowLimit": 40,
              "noteHighLimit": 76,
              "chordRootUpperLimit": 127,
              "rtr": "NOTE_GENERATOR"
            }
          },
          "notes": [
            {
              "pitch": 48,
              "velocity": 68,
              "position": 0.0,
              "duration": 0.341667
            },
            {
              "pitch": 54,
              "velocity": 32,
              "position": 0.0,
              "duration": 0.133333
            },
            {
              "pitch": 55,
              "velocity": 52,
              "position": 0.041667,
              "duration": 0.316667
            },
            {
              "pitch": 48,
              "velocity": 60,
              "position": 0.666667,
              "duration": 0.308333
            },
            {
              "pitch": 55,
              "velocity": 65,
              "position": 0.666667,
              "duration": 0.316667
            },
            {
              "pitch": 48,
              "velocity": 62,
              "position": 1.0,
              "duration": 0.275
            },
            {
              "pitch": 55,
              "velocity": 74,
              "position": 1.0,
              "duration": 0.283333
            },
            {
              "pitch": 48,
              "velocity": 59,
              "position": 1.666667,
              "duration": 0.291667
            },
            {
              "pitch": 55,
              "velocity": 68,
              "position": 1.666667,
              "duration": 0.275
            },
            {
              "pitch": 48,
              "velocity": 68,
              "position": 2.0,
              "duration": 0.341667
            },
            {
              "pitch": 54,
              "velocity": 32,
              "position": 2.0,
              "duration": 0.133333
            },
            {
              "pitch": 55,
              "velocity": 52,
              "position": 2.041667,
              "duration": 0.316667
            },
            {
              "pitch": 48,
              "velocity": 60,
              "position": 2.666667,
              "duration": 0.308333
            },
            {
              "pitch": 55,
              "velocity": 65,
              "position": 2.666667,
              "duration": 0.316667
            },
            {
              "pitch": 48,
              "velocity": 62,
              "position": 3.0,
              "duration": 0.275
            },
            {
              "pitch": 55,
              "velocity": 74,
              "position": 3.0,
              "duration": 0.283333
            },
            {
              "pitch": 48,
              "velocity": 59,
              "position": 3.666667,
              "duration": 0.291667
            },
            {
              "pitch": 55,
              "velocity": 68,
              "position": 3.666667,
              "duration": 0.275
            },
            {
              "pitch": 48,
              "velocity": 68,
              "position": 4.0,
              "duration": 0.341667
            },
            {
              "pitch": 54,
              "velocity": 32,
              "position": 4.0,
              "duration": 0.133333
            },
            {
              "pitch": 55,
              "velocity": 52,
              "position": 4.041667,
              "duration": 0.316667
            },
            {
              "pitch": 48,
              "velocity": 60,
              "position": 4.666667,
              "duration": 0.308333
            },
            {
              "pitch": 55,
              "velocity": 65,
              "position": 4.666667,
              "duration": 0.316667
            },
            {
              "pitch": 48,
              "velocity": 62,
              "position": 5.0,
              "duration": 0.275
            },
            {
              "pitch": 55,
              "velocity": 74,
              "position": 5.0,
              "duration": 0.283333
            },
            {
              "pitch": 48,
              "velocity": 59,
              "position": 5.666667,
              "duration": 0.291667
            },
            {
              "pitch": 55,
              "velocity": 68,
              "position": 5.666667,
              "duration": 0.275
            },
            {
              "pitch": 48,
              "velocity": 68,
              "position": 6.0,
              "duration": 0.341667
            },
            {
              "pitch": 54,
              "velocity": 32,
              "position": 6.0,
              "duration": 0.133333
            },
            {
              "pitch": 55,
              "velocity": 52,
              "position": 6.041667,
              "duration": 0.316667
            },
            {
              "pitch": 48,
              "velocity": 60,
              "position": 6.666667,
              "duration": 0.308333
            },
            {
              "pitch": 55,
              "velocity": 65,
              "position": 6.666667,
              "duration": 0.316667
            },
            {
              "pitch": 48,
              "velocity": 62,
              "position": 7.0,
              "duration": 0.275
            },
            {
              "pitch": 55,
              "velocity": 74,
              "position": 7.0,
              "duration": 0.283333
            },
            {
              "pitch": 48,
              "velocity": 59,
              "position": 7.666667,
              "duration": 0.291667
            },
            {
              "pitch": 55,
              "velocity": 68,
              "position": 7.666667,
              "duration": 0.275
            },
            {
              "pitch": 48,
              "velocity": 65,
              "position": 8.0,
              "duration": 0.341667
            },
            {
              "pitch": 54,
              "velocity": 29,
              "position": 8.0,
              "duration": 0.133333
            },
            {
              "pitch": 55,
              "velocity": 49,
              "position": 8.0,
              "duration": 0.316667
            },
            {
              "pitch": 48,
              "velocity": 57,
              "position": 8.666667,
              "duration": 0.233333
            },
            {
              "pitch": 55,
              "velocity": 62,
              "position": 8.666667,
              "duration": 0.3
            },
            {
              "pitch": 48,
              "velocity": 55,
              "position": 9.0,
              "duration": 0.275
            },
            {
              "pitch": 55,
              "velocity": 68,
              "position": 9.0,
              "duration": 0.283333
            },
            {
              "pitch": 48,
              "velocity": 56,
              "position": 9.666667,
              "duration": 0.375
            },
            {
              "pitch": 55,
              "velocity": 65,
              "position": 9.666667,
              "duration": 0.225
            },
            {
              "pitch": 55,
              "velocity": 65,
              "position": 10.0,
              "duration": 0.333333
            },
            {
              "pitch": 48,
              "velocity": 62,
              "position": 10.666667,
              "duration": 0.208333
            },
            {
              "pitch": 55,
              "velocity": 65,
              "position": 10.666667,
              "duration": 0.208333
            },
            {
              "pitch": 48,
              "velocity": 68,
              "position": 11.0,
              "duration": 0.333333
            },
            {
              "pitch": 55,
              "velocity": 83,
              "position": 11.0,
              "duration": 0.333333
            },
            {
              "pitch": 48,
              "velocity": 56,
              "position": 11.666667,
              "duration": 0.241667
            },
            {
              "pitch": 55,
              "velocity": 65,
              "position": 11.666667,
              "duration": 0.166667
            },
            {
              "pitch": 48,
              "velocity": 59,
              "position": 12.0,
              "duration": 0.333333
            },
            {
              "pitch": 54,
              "velocity": 51,
              "position": 12.0,
              "duration": 0.133333
            },
            {
              "pitch": 55,
              "velocity": 57,
              "position": 12.0,
              "duration": 0.333333
            },
            {
              "pitch": 48,
              "velocity": 59,
              "position": 12.666667,
              "duration": 0.216667
            },
            {
              "pitch": 55,
              "velocity": 61,
              "position": 12.666667,
              "duration": 0.275
            },
            {
              "pitch": 48,
              "velocity": 54,
              "position": 13.0,
              "duration": 0.308333
            },
            {
              "pitch": 55,
              "velocity": 60,
              "position": 13.0,
              "duration": 0.325
            },
            {
              "pitch": 48,
              "velocity": 62,
              "position": 13.666667,
              "duration": 0.208333
            },
            {
              "pitch": 55,
              "velocity": 74,
              "position": 13.666667,
              "duration": 0.216667
            },
            {
              "pitch": 48,
              "velocity": 55,
              "position": 14.0,
              "duration": 0.216667
            },
            {
              "pitch": 59,
              "velocity": 72,
              "position": 14.0,
              "duration": 0.2
            },
            {
              "pitch": 48,
              "velocity": 60,
              "position": 14.666667,
              "duration": 0.241667
            },
            {
              "pitch": 59,
              "velocity": 78,
              "position": 14.666667,
              "duration": 0.283333
            },
            {
              "pitch": 48,
              "velocity": 51,
              "position": 15.0,
              "duration": 0.283333
            },
            {
              "pitch": 55,
              "velocity": 64,
              "position": 15.0,
              "duration": 0.283333
            },
            {
              "pitch": 48,
              "velocity": 53,
              "position": 15.666667,
              "duration": 0.216667
            },
            {
              "pitch": 55,
              "velocity": 61,
              "position": 15.666667,
              "duration": 0.291667
            }
          ]
        },
        "13": {
          "ctab": {
            "srcChannel": 13,
            "name": "Strings",
            "accType": "PAD",
            "editable": true,
            "mutedNotes": [],
            "mutedChords": [],
            "sourceChordNote": 0,
            "sourceChordType": "Maj7",
            "ctb2Main": {
              "ntr": "ROOT_FIXED",
              "ntt": "MELODY",
              "bassOn": false,
              "noteLowLimit": 36,
              "noteHighLimit": 96,
              "chordRootUpperLimit": 127,
              "rtr": "PITCH_SHIFT"
            }
          },
          "notes": [
            {
              "pitch": 78,
              "velocity": 44,
              "position": 0.025,
              "duration": 0.116667
            },
            {
              "pitch": 71,
              "velocity": 46,
              "position": 0.033333,
              "duration": 1.925
            },
            {
              "pitch": 76,
              "velocity": 42,
              "position": 0.041667,
              "duration": 1.916667
            },
            {
              "pitch": 79,
              "velocity": 51,
              "position": 0.166667,
              "duration": 1.791667
            },
            {
              "pitch": 78,
              "velocity": 44,
              "position": 2.025,
              "duration": 0.116667
            },
            {
              "pitch": 71,
              "velocity": 46,
              "position": 2.033333,
              "duration": 1.925
            },
            {
              "pitch": 76,
              "velocity": 42,
              "position": 2.041667,
              "duration": 1.916667
            },
            {
              "pitch": 79,
              "velocity": 51,
              "position": 2.166667,
              "duration": 1.791667
            },
            {
              "pitch": 75,
              "velocity": 53,
              "position": 4.041667,
              "duration": 0.116667
            },
            {
              "pitch": 71,
              "velocity": 54,
              "position": 4.05,
              "duration": 0.425
            },
            {
              "pitch": 79,
              "velocity": 41,
              "position": 4.05,
              "duration": 0.458333
            },
            {
              "pitch": 76,
              "velocity": 49,
              "position": 4.125,
              "duration": 0.408333
            },
            {
              "pitch": 71,
              "velocity": 40,
              "position": 4.675,
              "duration": 0.925
            },
            {
              "pitch": 75,
              "velocity": 41,
              "position": 4.675,
              "duration": 0.091667
            },
            {
              "pitch": 79,
              "velocity": 31,
              "position": 4.691667,
              "duration": 0.908333
            },
            {
              "pitch": 76,
              "velocity": 50,
              "position": 4.75,
              "duration": 0.85
            },
            {
              "pitch": 71,
              "velocity": 46,
              "position": 5.683333,
              "duration": 2.258333
            },
            {
              "pitch": 76,
              "velocity": 42,
              "position": 5.683333,
              "duration": 2.258333
            },
            {
              "pitch": 78,
              "velocity": 48,
              "position": 5.683333,
              "duration": 0.416667
            },
            {
              "pitch": 79,
              "velocity": 52,
              "position": 5.741667,
              "duration": 2.2
            },
            {
              "pitch": 75,
              "velocity": 53,
              "position": 8.041667,
              "duration": 0.116667
            },
            {
              "pitch": 71,
              "velocity": 54,
              "position": 8.05,
              "duration": 0.425
            },
            {
              "pitch": 79,
              "velocity": 41,
              "position": 8.05,
              "duration": 0.458333
            },
            {
              "pitch": 76,
              "velocity": 49,
              "position": 8.125,
              "duration": 0.408333
            },
            {
              "pitch": 71,
              "velocity": 40,
              "position": 8.675,
              "duration": 3.116667
            },
            {
              "pitch": 75,
              "velocity": 41,
              "position": 8.675,
              "duration": 0.091667
            },
            {
              "pitch": 79,
              "velocity": 31,
              "position": 8.691667,
              "duration": 3.141667
            },
            {
              "pitch": 76,
              "velocity": 50,
              "position": 8.75,
              "duration": 2.958333
            },
            {
              "pitch": 67,
              "velocity": 33,
              "position": 12.008333,
              "duration": 0.3
            },
            {
              "pitch": 76,
              "velocity": 40,
              "position": 12.016667,
              "duration": 0.241667
            },
            {
              "pitch": 74,
              "velocity": 38,
              "position": 12.025,
              "duration": 0.258333
            },
            {
              "pitch": 74,
              "velocity": 36,
              "position": 12.633333,
              "duration": 3.075
            },
            {
              "pitch": 76,
              "velocity": 45,
              "position": 12.633333,
              "duration": 2.941667
            },
            {
              "pitch": 67,
              "velocity": 26,
              "position": 12.65,
              "duration": 3.133333
            }
          ]
        }
      }
    },
    "Main_B": {
      "type": "Main_B",
      "sizeInBeats": 16,
      "channels": {
        "9": {
          "ctab": {
            "srcChannel": 9,
            "name": "Drums",
            "accType": "RHYTHM",
            "editable": false,
            "mutedNotes": [],
            "mutedChords": [],
            "sourceChordNote": 0,
            "sourceChordType": "Maj",
            "ctb2Main": {
              "ntr": "ROOT_FIXED",
              "ntt": "BYPASS",
              "bassOn": false,
              "noteLowLimit": 20,
              "noteHighLimit": 127,
              "chordRootUpperLimit": 127,
              "rtr": "RETRIGGER"
            }
          },
          "notes": [
            {
              "pitch": 36,
              "velocity": 119,
              "position": 0.0,
              "duration": 0.1
            },
            {
              "pitch": 49,
              "velocity": 127,
              "position": 0.0,
              "duration": 0.091667
            },
            {
              "pitch": 36,
              "velocity": 91,
              "position": 0.666667,
              "duration": 0.091667
            },
            {
              "pitch": 51,
              "velocity": 72,
              "position": 0.666667,
              "duration": 0.108333
            },
            {
              "pitch": 38,
              "velocity": 127,
              "position": 1.0,
              "duration": 0.1
            },
            {
              "pitch": 51,
              "velocity": 122,
              "position": 1.0,
              "duration": 0.091667
            },
            {
              "pitch": 51,
              "velocity": 98,
              "position": 1.333333,
              "duration": 0.1
            },
            {
              "pitch": 36,
              "velocity": 86,
              "position": 1.666667,
              "duration": 0.033333
            },
            {
              "pitch": 51,
              "velocity": 116,
              "position": 1.666667,
              "duration": 0.091667
            },
            {
              "pitch": 36,
              "velocity": 92,
              "position": 2.0,
              "duration": 0.1
            },
            {
              "pitch": 51,
              "velocity": 127,
              "position": 2.0,
              "duration": 0.083333
            },
            {
              "pitch": 51,
              "velocity": 127,
              "position": 2.333333,
              "duration": 0.1
            },
            {
              "pitch": 36,
              "velocity": 89,
              "position": 2.666667,
              "duration": 0.083333
            },
            {
              "pitch": 51,
              "velocity": 86,
              "position": 2.666667,
              "duration": 0.1
            },
            {
              "pitch": 38,
              "velocity": 127,
              "position": 3.0,
              "duration": 0.091667
            },
            {
              "pitch": 51,
              "velocity": 127,
              "position": 3.0,
              "duration": 0.091667
            },
            {
              "pitch": 51,
              "velocity": 90,
              "position": 3.333333,
              "duration": 0.1
            },
            {
              "pitch": 36,
              "velocity": 92,
              "position": 3.666667,
              "duration": 0.1
            },
            {
              "pitch": 51,
              "velocity": 119,
              "position": 3.666667,
              "duration": 0.108333
            },
            {
              "pitch": 36,
              "velocity": 98,
              "position": 4.0,
              "duration": 0.041667
            },
            {
              "pitch": 51,
              "velocity": 103,
              "position": 4.0,
              "duration": 0.1
            },
            {
              "pitch": 51,
              "velocity": 127,
              "position": 4.333333,
              "duration": 0.1
            },
            {
              "pitch": 36,
              "velocity": 86,
              "position": 4.666667,
              "duration": 0.041667
            },
            {
              "pitch": 51,
              "velocity": 103,
              "position": 4.666667,
              "duration": 0.1
            },
            {
              "pitch": 38,
              "velocity": 127,
              "position": 5.0,
              "duration": 0.091667
            },
            {
              "pitch": 51,
              "velocity": 113,
              "position": 5.0,
              "duration": 0.091667
            },
            {
              "pitch": 51,
              "velocity": 101,
              "position": 5.333333,
              "duration": 0.083333
            },
            {
              "pitch": 36,
              "velocity": 95,
              "position": 5.666667,
              "duration": 0.1
            },
            {
              "pitch": 51,
              "velocity": 88,
              "position": 5.666667,
              "duration": 0.1
            },
            {
              "pitch": 36,
              "velocity": 104,
              "position": 6.0,
              "duration": 0.033333
            },
            {
              "pitch": 51,
              "velocity": 77,
              "position": 6.0,
              "duration": 0.091667
            },
            {
              "pitch": 51,
              "velocity": 93,
              "position": 6.35,
              "duration": 0.1
            },
            {
              "pitch": 51,
              "velocity": 106,
              "position": 6.658333,
              "duration": 0.1
            },
            {
              "pitch": 36,
              "velocity": 96,
              "position": 6.666667,
              "duration": 0.05
            },
            {
              "pitch": 38,
              "velocity": 127,
              "position": 6.991667,
              "duration": 0.091667
            },
            {
              "pitch": 51,
              "velocity": 119,
              "position": 7.0,
              "duration": 0.1
            },
            {
              "pitch": 51,
              "velocity": 98,
              "position": 7.333333,
              "duration": 0.1
            },
            {
              "pitch": 36,
              "velocity": 99,
              "position": 7.658333,
              "duration": 0.083333
            },
            {
              "pitch": 51,
              "velocity": 113,
              "position": 7.658333,
              "duration": 0.091667
            },
            {
              "pitch": 36,
              "velocity": 99,
              "position": 8.0,
              "duration": 0.041667
            },
            {
              "pitch": 51,
              "velocity": 114,
              "position": 8.0,
              "duration": 0.091667
            },
            {
              "pitch": 51,
              "velocity": 66,
              "position": 8.35,
              "duration": 0.083333
            },
            {
              "pitch": 51,
              "velocity": 105,
              "position": 8.658333,
              "duration": 0.083333
            },
            {
              "pitch": 36,
              "velocity": 92,
              "position": 8.666667,
              "duration": 0.041667
            },
            {
              "pitch": 38,
              "velocity": 127,
              "position": 9.0,
              "duration": 0.083333
            },
            {
              "pitch": 51,
              "velocity": 122,
              "position": 9.0,
              "duration": 0.1
            },
            {
              "pitch": 51,
              "velocity": 114,
              "position": 9.333333,
              "duration": 0.1
            },
            {
              "pitch": 36,
              "velocity": 98,
              "position": 9.666667,
              "duration": 0.033333
            },
            {
              "pitch": 51,
              "velocity": 111,
              "position": 9.666667,
              "duration": 0.1
            },
            {
              "pitch": 36,
              "velocity": 98,
              "position": 10.0,
              "duration": 0.041667
            },
            {
              "pitch": 51,
              "velocity": 127,
              "position": 10.0,
              "duration": 0.1
            },
            {
              "pitch": 51,
              "velocity": 113,
              "position": 10.333333,
              "duration": 0.091667
            },
            {
              "pitch": 36,
              "velocity": 99,
              "position": 10.666667,
              "duration": 0.033333
            },
            {
              "pitch": 51,
              "velocity": 95,
              "position": 10.666667,
              "duration": 0.091667
            },
            {
              "pitch": 38,
              "velocity": 127,
              "position": 11.0,
              "duration": 0.083333
            },
            {
              "pitch": 51,
              "velocity": 127,
              "position": 11.0,
              "duration": 0.083333
            },
            {
              "pitch": 51,
              "velocity": 90,
              "position": 11.333333,
              "duration": 0.1
            },
            {
              "pitch": 36,
              "velocity": 92,
              "position": 11.666667,
              "duration": 0.116667
            },
            {
              "pitch": 51,
              "velocity": 124,
              "position": 11.666667,
              "duration": 0.125
            },
            {
              "pitch": 36,
              "velocity": 96,
              "position": 12.0,
              "duration": 0.208333
            },
            {
              "pitch": 38,
              "velocity": 127,
              "position": 12.0,
              "duration": 0.208333
            },
            {
              "pitch": 51,
              "velocity": 127,
              "position": 12.0,
              "duration": 0.208333
            },
            {
              "pitch": 38,
              "velocity": 20,
              "position": 12.333333,
              "duration": 0.208333
            },
            {
              "pitch": 51,
              "velocity": 72,
              "position": 12.333333,
              "duration": 0.208333
            },
            {
              "pitch": 36,
              "velocity": 80,
              "position": 12.666667,
              "duration": 0.208333
            },
            {
              "pitch": 38,
              "velocity": 46,
              "position": 12.666667,
              "duration": 0.208333
            },
            {
              "pitch": 51,
              "velocity": 109,
              "position": 12.666667,
              "duration": 0.208333
            },
            {
              "pitch": 36,
              "velocity": 99,
              "position": 13.0,
              "duration": 0.208333
            },
            {
              "pitch": 40,
              "velocity": 127,
              "position": 13.0,
              "duration": 0.208333
            },
            {
              "pitch": 51,
              "velocity": 127,
              "position": 13.0,
              "duration": 0.208333
            },
            {
              "pitch": 36,
              "velocity": 123,
              "position": 13.666667,
              "duration": 0.208333
            },
            {
              "pitch": 49,
              "velocity": 127,
              "position": 13.666667,
              "duration": 0.208333
            },
            {
              "pitch": 48,
              "velocity": 124,
              "position": 15.0,
              "duration": 0.208333
            },
            {
              "pitch": 50,
              "velocity": 15,
              "position": 15.0,
              "duration": 0.208333
            },
            {
              "pitch": 45,
              "velocity": 105,
              "position": 15.333333,
              "duration": 0.208333
            },
            {
              "pitch": 41,
              "velocity": 119,
              "position": 15.666667,
              "duration": 0.208333
            }
          ]
        },
        "10": {
          "ctab": {
            "srcChannel": 10,
            "name": "Bass",
            "accType": "BASS",
            "editable": true,
            "mutedNotes": [],
            "mutedChords": [],
            "sourceChordNote": 0,
            "sourceChordType": "Maj7",
            "ctb2Main": {
              "ntr": "ROOT_TRANSPOSITION",
              "ntt": "BYPASS",
              "bassOn": true,
              "noteLowLimit": 20,
              "noteHighLimit": 60,
              "chordRootUpperLimit": 127,
              "rtr": "NOTE_GENERATOR"
            }
          },
          "notes": [
            {
              "pitch": 36,
              "velocity": 62,
              "position": 0.0,
              "duration": 0.9
            },
            {
              "pitch": 36,
              "velocity": 61,
              "position": 1.0,
              "duration": 0.858333
            },
            {
              "pitch": 36,
              "velocity": 62,
              "position": 2.0,
              "duration": 0.9
            },
            {
              "pitch": 36,
              "velocity": 61,
              "position": 3.0,
              "duration": 0.858333
            },
            {
              "pitch": 36,
              "velocity": 62,
              "position": 4.0,
              "duration": 0.9
            },
            {
              "pitch": 36,
              "velocity": 61,
              "position": 5.0,
              "duration": 0.858333
            },
            {
              "pitch": 36,
              "velocity": 62,
              "position": 6.0,
              "duration": 0.9
            },
            {
              "pitch": 35,
              "velocity": 61,
              "position": 7.0,
              "duration": 0.858333
            },
            {
              "pitch": 36,
              "velocity": 71,
              "position": 8.0,
              "duration": 0.983333
            },
            {
              "pitch": 40,
              "velocity": 59,
              "position": 9.0,
              "duration": 1.008333
            },
            {
              "pitch": 43,
              "velocity": 73,
              "position": 10.0,
              "duration": 1.05
            },
            {
              "pitch": 40,
              "velocity": 55,
              "position": 11.0,
              "duration": 0.6
            },
            {
              "pitch": 43,
              "velocity": 57,
              "position": 11.666667,
              "duration": 0.35
            },
            {
              "pitch": 36,
              "velocity": 50,
              "position": 12.0,
              "duration": 1.05
            },
            {
              "pitch": 40,
              "velocity": 60,
              "position": 13.0,
              "duration": 1.033333
            },
            {
              "pitch": 43,
              "velocity": 58,
              "position": 14.0,
              "duration": 1.016667
            },
            {
              "pitch": 36,
              "velocity": 64,
              "position": 15.0,
              "duration": 0.9
            }
          ]
        },
        "11": {
          "ctab": {
            "srcChannel": 11,
            "name": "Piano",
            "accType": "CHORD1",
            "editable": true,
            "mutedNotes": [],
            "mutedChords": [],
            "sourceChordNote": 0,
            "sourceChordType": "Maj7",
            "ctb2Main": {
              "ntr": "ROOT_FIXED",
              "ntt": "CHORD",
              "bassOn": false,
              "noteLowLimit": 48,
              "noteHighLimit": 84,
              "chordRootUpperLimit": 127,
              "rtr": "NOTE_GENERATOR"
            }
          },
          "notes": [
            {
              "pitch": 90,
              "velocity": 94,
              "position": 0.033333,
              "duration": 0.116667
            },
            {
              "pitch": 98,
              "velocity": 84,
              "position": 0.041667,
              "duration": 0.491667
            },
            {
              "pitch": 91,
              "velocity": 68,
              "position": 0.066667,
              "duration": 0.2
            },
            {
              "pitch": 91,
              "velocity": 45,
              "position": 0.35,
              "duration": 0.166667
            },
            {
              "pitch": 91,
              "velocity": 70,
              "position": 0.683333,
              "duration": 0.158333
            },
            {
              "pitch": 98,
              "velocity": 64,
              "position": 0.683333,
              "duration": 0.175
            },
            {
              "pitch": 91,
              "velocity": 68,
              "position": 1.016667,
              "duration": 0.466667
            },
            {
              "pitch": 98,
              "velocity": 64,
              "position": 1.016667,
              "duration": 0.45
            },
            {
              "pitch": 91,
              "velocity": 73,
              "position": 1.683333,
              "duration": 0.141667
            },
            {
              "pitch": 95,
              "velocity": 71,
              "position": 1.683333,
              "duration": 0.158333
            },
            {
              "pitch": 90,
              "velocity": 94,
              "position": 2.033333,
              "duration": 0.116667
            },
            {
              "pitch": 98,
              "velocity": 84,
              "position": 2.041667,
              "duration": 0.491667
            },
            {
              "pitch": 91,
              "velocity": 68,
              "position": 2.066667,
              "duration": 0.366667
            },
            {
              "pitch": 91,
              "velocity": 70,
              "position": 2.683333,
              "duration": 0.475
            },
            {
              "pitch": 98,
              "velocity": 64,
              "position": 2.683333,
              "duration": 0.416667
            },
            {
              "pitch": 90,
              "velocity": 94,
              "position": 4.033333,
              "duration": 0.116667
            },
            {
              "pitch": 98,
              "velocity": 84,
              "position": 4.041667,
              "duration": 0.491667
            },
            {
              "pitch": 91,
              "velocity": 68,
              "position": 4.066667,
              "duration": 0.2
            },
            {
              "pitch": 91,
              "velocity": 45,
              "position": 4.35,
              "duration": 0.166667
            },
            {
              "pitch": 91,
              "velocity": 70,
              "position": 4.683333,
              "duration": 0.158333
            },
            {
              "pitch": 98,
              "velocity": 64,
              "position": 4.683333,
              "duration": 0.175
            },
            {
              "pitch": 91,
              "velocity": 68,
              "position": 5.016667,
              "duration": 0.466667
            },
            {
              "pitch": 98,
              "velocity": 64,
              "position": 5.016667,
              "duration": 0.45
            },
            {
              "pitch": 91,
              "velocity": 73,
              "position": 5.683333,
              "duration": 0.141667
            },
            {
              "pitch": 95,
              "velocity": 71,
              "position": 5.683333,
              "duration": 0.158333
            },
            {
              "pitch": 90,
              "velocity": 94,
              "position": 6.033333,
              "duration": 0.116667
            },
            {
              "pitch": 98,
              "velocity": 84,
              "position": 6.041667,
              "duration": 0.491667
            },
            {
              "pitch": 91,
              "velocity": 68,
              "position": 6.066667,
              "duration": 0.366667
            },
            {
              "pitch": 91,
              "velocity": 70,
              "position": 6.683333,
              "duration": 0.475
            },
            {
              "pitch": 98,
              "velocity": 64,
              "position": 6.683333,
              "duration": 0.416667
            },
            {
              "pitch": 90,
              "velocity": 94,
              "position": 8.033333,
              "duration": 0.116667
            },
            {
              "pitch": 98,
              "velocity": 84,
              "position": 8.041667,
              "duration": 0.491667
            },
            {
              "pitch": 91,
              "velocity": 68,
              "position": 8.066667,
              "duration": 0.2
            },
            {
              "pitch": 91,
              "velocity": 45,
              "position": 8.35,
              "duration": 0.166667
            },
            {
              "pitch": 91,
              "velocity": 70,
              "position": 8.683333,
              "duration": 0.158333
            },
            {
              "pitch": 98,
              "velocity": 64,
              "position": 8.683333,
              "duration": 0.175
            },
            {
              "pitch": 91,
              "velocity": 68,
              "position": 9.016667,
              "duration": 0.466667
            },
            {
              "pitch": 98,
              "velocity": 64,
              "position": 9.016667,
              "duration": 0.45
            },
            {
              "pitch": 91,
              "velocity": 73,
              "position": 9.683333,
              "duration": 0.141667
            },
            {
              "pitch": 95,
              "velocity": 71,
              "position": 9.683333,
              "duration": 0.158333
            },
            {
              "pitch": 87,
              "velocity": 68,
              "position": 10.041667,
              "duration": 0.125
            },
            {
              "pitch": 91,
              "velocity": 64,
              "position": 10.058333,
              "duration": 0.358333
            },
            {
              "pitch": 88,
              "velocity": 70,
              "position": 10.175,
              "duration": 0.241667
            },
            {
              "pitch": 86,
              "velocity": 51,
              "position": 10.625,
              "duration": 1.008333
            },
            {
              "pitch": 91,
              "velocity": 65,
              "position": 10.625,
              "duration": 1.033333
            },
            {
              "pitch": 90,
              "velocity": 90,
              "position": 12.641667,
              "duration": 0.075
            },
            {
              "pitch": 98,
              "velocity": 81,
              "position": 12.65,
              "duration": 0.208333
            },
            {
              "pitch": 91,
              "velocity": 64,
              "position": 12.658333,
              "duration": 0.233333
            },
            {
              "pitch": 98,
              "velocity": 73,
              "position": 13.0,
              "duration": 0.333333
            },
            {
              "pitch": 90,
              "velocity": 77,
              "position": 13.008333,
              "duration": 0.1
            },
            {
              "pitch": 91,
              "velocity": 71,
              "position": 13.075,
              "duration": 0.3
            },
            {
              "pitch": 91,
              "velocity": 64,
              "position": 13.608333,
              "duration": 0.166667
            },
            {
              "pitch": 95,
              "velocity": 59,
              "position": 13.608333,
              "duration": 0.166667
            },
            {
              "pitch": 87,
              "velocity": 79,
              "position": 14.016667,
              "duration": 0.283333
            },
            {
              "pitch": 91,
              "velocity": 66,
              "position": 14.041667,
              "duration": 0.333333
            },
            {
              "pitch": 88,
              "velocity": 64,
              "position": 14.15,
              "duration": 0.208333
            },
            {
              "pitch": 86,
              "velocity": 47,
              "position": 14.625,
              "duration": 0.758333
            },
            {
              "pitch": 88,
              "velocity": 55,
              "position": 14.625,
              "duration": 0.741667
            }
          ]
        },
        "12": {
          "ctab": {
            "srcChannel": 12,
            "name": "Guitar",
            "accType": "CHORD2",
            "editable": true,
            "mutedNotes": [],
            "mutedChords": [],
            "sourceChordNote": 0,
            "sourceChordType": "Maj7",
            "ctb2Main": {
              "ntr": "ROOT_FIXED",
              "ntt": "CHORD",
              "bassOn": false,
              "noteLowLimit": 40,
              "noteHighLimit": 76,
              "chordRootUpperLimit": 127,
              "rtr": "NOTE_GENERATOR"
            }
          },
          "notes": [
            {
              "pitch": 48,
              "velocity": 68,
              "position": 0.0,
              "duration": 0.341667
            },
            {
              "pitch": 54,
              "velocity": 32,
              "position": 0.0,
              "duration": 0.133333
            },
            {
              "pitch": 55,
              "velocity": 52,
              "position": 0.041667,
              "duration": 0.316667
            },
            {
              "pitch": 48,
              "velocity": 60,
              "position": 0.666667,
              "duration": 0.308333
            },
            {
              "pitch": 55,
              "velocity": 65,
              "position": 0.666667,
              "duration": 0.316667
            },
            {
              "pitch": 48,
              "velocity": 62,
              "position": 1.0,
              "duration": 0.275
            },
            {
              "pitch": 55,
              "velocity": 74,
              "position": 1.0,
              "duration": 0.283333
            },
            {
              "pitch": 48,
              "velocity": 59,
              "position": 1.666667,
              "duration": 0.291667
            },
            {
              "pitch": 55,
              "velocity": 68,
              "position": 1.666667,
              "duration": 0.275
            },
            {
              "pitch": 48,
              "velocity": 68,
              "position": 2.0,
              "duration": 0.341667
            },
            {
              "pitch": 54,
              "velocity": 32,
              "position": 2.0,
              "duration": 0.133333
            },
            {
              "pitch": 55,
              "velocity": 52,
              "position": 2.041667,
              "duration": 0.316667
            },
            {
              "pitch": 48,
              "velocity": 60,
              "position": 2.666667,
              "duration": 0.308333
            },
            {
              "pitch": 55,
              "velocity": 65,
              "position": 2.666667,
              "duration": 0.316667
            },
            {
              "pitch": 48,
              "velocity": 62,
              "position": 3.0,
              "duration": 0.275
            },
            {
              "pitch": 55,
              "velocity": 74,
              "position": 3.0,
              "duration": 0.283333
            },
            {
              "pitch": 48,
              "velocity": 59,
              "position": 3.666667,
              "duration": 0.291667
            },
            {
              "pitch": 55,
              "velocity": 68,
              "position": 3.666667,
              "duration": 0.275
            },
            {
              "pitch": 48,
              "velocity": 68,
              "position": 4.0,
              "duration": 0.341667
            },
            {
              "pitch": 54,
              "velocity": 32,
              "position": 4.0,
              "duration": 0.133333
            },
            {
              "pitch": 55,
              "velocity": 52,
              "position": 4.041667,
              "duration": 0.316667
            },
            {
              "pitch": 48,
              "velocity": 60,
              "position": 4.666667,
              "duration": 0.308333
            },
            {
              "pitch": 55,
              "velocity": 65,
              "position": 4.666667,
              "duration": 0.316667
            },
            {
              "pitch": 48,
              "velocity": 62,
              "position": 5.0,
              "duration": 0.275
            },
            {
              "pitch": 55,
              "velocity": 74,
              "position": 5.0,
              "duration": 0.283333
            },
            {
              "pitch": 48,
              "velocity": 59,
              "position": 5.666667,
              "duration": 0.291667
            },
            {
              "pitch": 55,
              "velocity": 68,
              "position": 5.666667,
              "duration": 0.275
            },
            {
              "pitch": 48,
              "velocity": 68,
              "position": 6.0,
              "duration": 0.341667
            },
            {
              "pitch": 54,
              "velocity": 32,
              "position": 6.0,
              "duration": 0.133333
            },
            {
              "pitch": 55,
              "velocity": 52,
              "position": 6.041667,
              "duration": 0.316667
            },
            {
              "pitch": 48,
              "velocity": 60,
              "position": 6.666667,
              "duration": 0.308333
            },
            {
              "pitch": 55,
              "velocity": 65,
              "position": 6.666667,
              "duration": 0.316667
            },
            {
              "pitch": 48,
              "velocity": 62,
              "position": 7.0,
              "duration": 0.275
            },
            {
              "pitch": 55,
              "velocity": 74,
              "position": 7.0,
              "duration": 0.283333
            },
            {
              "pitch": 48,
              "velocity": 59,
              "position": 7.666667,
              "duration": 0.291667
            },
            {
              "pitch": 55,
              "velocity": 68,
              "position": 7.666667,
              "duration": 0.275
            },
            {
              "pitch": 48,
              "velocity": 65,
              "position": 8.0,
              "duration": 0.341667
            },
            {
              "pitch": 54,
              "velocity": 29,
              "position": 8.0,
              "duration": 0.133333
            },
            {
              "pitch": 55,
              "velocity": 49,
              "position": 8.0,
              "duration": 0.316667
            },
            {
              "pitch": 48,
              "velocity": 57,
              "position": 8.666667,
              "duration": 0.233333
            },
            {
              "pitch": 55,
              "velocity": 62,
              "position": 8.666667,
              "duration": 0.3
            },
            {
              "pitch": 48,
              "velocity": 55,
              "position": 9.0,
              "duration": 0.275
            },
            {
              "pitch": 55,
              "velocity": 68,
              "position": 9.0,
              "duration": 0.283333
            },
            {
              "pitch": 48,
              "velocity": 56,
              "position": 9.666667,
              "duration": 0.375
            },
            {
              "pitch": 55,
              "velocity": 65,
              "position": 9.666667,
              "duration": 0.225
            },
            {
              "pitch": 55,
              "velocity": 65,
              "position": 10.0,
              "duration": 0.333333
            },
            {
              "pitch": 48,
              "velocity": 62,
              "position": 10.666667,
              "duration": 0.208333
            },
            {
              "pitch": 55,
              "velocity": 65,
              "position": 10.666667,
              "duration": 0.208333
            },
            {
              "pitch": 48,
              "velocity": 68,
              "position": 11.0,
              "duration": 0.333333
            },
            {
              "pitch": 55,
              "velocity": 83,
              "position": 11.0,
              "duration": 0.333333
            },
            {
              "pitch": 48,
              "velocity": 56,
              "position": 11.666667,
              "duration": 0.241667
            },
            {
              "pitch": 55,
              "velocity": 65,
              "position": 11.666667,
              "duration": 0.166667
            },
            {
              "pitch": 48,
              "velocity": 59,
              "position": 12.0,
              "duration": 0.333333
            },
            {
              "pitch": 54,
              "velocity": 51,
              "position": 12.0,
              "duration": 0.133333
            },
            {
              "pitch": 55,
              "velocity": 57,
              "position": 12.0,
              "duration": 0.333333
            },
            {
              "pitch": 48,
              "velocity": 59,
              "position": 12.666667,
              "duration": 0.216667
            },
            {
              "pitch": 55,
              "velocity": 61,
              "position": 12.666667,
              "duration": 0.275
            },
            {
              "pitch": 48,
              "velocity": 54,
              "position": 13.0,
              "duration": 0.308333
            },
            {
              "pitch": 55,
              "velocity": 60,
              "position": 13.0,
              "duration": 0.325
            },
            {
              "pitch": 48,
              "velocity": 62,
              "position": 13.666667,
              "duration": 0.208333
            },
            {
              "pitch": 55,
              "velocity": 74,
              "position": 13.666667,
              "duration": 0.216667
            },
            {
              "pitch": 48,
              "velocity": 55,
              "position": 14.0,
              "duration": 0.216667
            },
            {
              "pitch": 59,
              "velocity": 72,
              "position": 14.0,
              "duration": 0.2
            },
            {
              "pitch": 48,
              "velocity": 60,
              "position": 14.666667,
              "duration": 0.241667
            },
            {
              "pitch": 59,
              "velocity": 78,
              "position": 14.666667,
              "duration": 0.283333
            },
            {
              "pitch": 48,
              "velocity": 51,
              "position": 15.0,
              "duration": 0.283333
            },
            {
              "pitch": 55,
              "velocity": 64,
              "position": 15.0,
              "duration": 0.283333
            },
            {
              "pitch": 48,
              "velocity": 53,
              "position": 15.666667,
              "duration": 0.216667
            },
            {
              "pitch": 55,
              "velocity": 61,
              "position": 15.666667,
              "duration": 0.291667
            }
          ]
        },
        "13": {
          "ctab": {
            "srcChannel": 13,
            "name": "Strings",
            "accType": "PAD",
            "editable": true,
            "mutedNotes": [],
            "mutedChords": [],
            "sourceChordNote": 0,
            "sourceChordType": "Maj7",
            "ctb2Main": {
              "ntr": "ROOT_FIXED",
              "ntt": "MELODY",
              "bassOn": false,
              "noteLowLimit": 36,
              "noteHighLimit": 96,
              "chordRootUpperLimit": 127,
              "rtr": "PITCH_SHIFT"
            }
          },
          "notes": [
            {
              "pitch": 78,
              "velocity": 44,
              "position": 0.025,
              "duration": 0.116667
            },
            {
              "pitch": 71,
              "velocity": 46,
              "position": 0.033333,
              "duration": 1.566667
            },
            {
              "pitch": 76,
              "velocity": 42,
              "position": 0.041667,
              "duration": 1.558333
            },
            {
              "pitch": 79,
              "velocity": 51,
              "position": 0.166667,
              "duration": 1.433333
            },
            {
              "pitch": 71,
              "velocity": 46,
              "position": 1.683333,
              "duration": 2.258333
            },
            {
              "pitch": 76,
              "velocity": 42,
              "position": 1.683333,
              "duration": 2.258333
            },
            {
              "pitch": 78,
              "velocity": 48,
              "position": 1.683333,
              "duration": 0.416667
            },
            {
              "pitch": 79,
              "velocity": 52,
              "position": 1.741667,
              "duration": 2.2
            },
            {
              "pitch": 75,
              "velocity": 53,
              "position": 4.041667,
              "duration": 0.116667
            },
            {
              "pitch": 71,
              "velocity": 54,
              "position": 4.05,
              "duration": 0.425
            },
            {
              "pitch": 79,
              "velocity": 41,
              "position": 4.05,
              "duration": 0.458333
            },
            {
              "pitch": 76,
              "velocity": 49,
              "position": 4.125,
              "duration": 0.408333
            },
            {
              "pitch": 71,
              "velocity": 40,
              "position": 4.675,
              "duration": 0.925
            },
            {
              "pitch": 75,
              "velocity": 41,
              "position": 4.675,
              "duration": 0.091667
            },
            {
              "pitch": 79,
              "velocity": 31,
              "position": 4.691667,
              "duration": 0.908333
            },
            {
              "pitch": 76,
              "velocity": 50,
              "position": 4.75,
              "duration": 0.85
            },
            {
              "pitch": 71,
              "velocity": 46,
              "position": 5.683333,
              "duration": 2.258333
            },
            {
              "pitch": 76,
              "velocity": 42,
              "position": 5.683333,
              "duration": 2.258333
            },
            {
              "pitch": 78,
              "velocity": 48,
              "position": 5.683333,
              "duration": 0.416667
            },
            {
              "pitch": 79,
              "velocity": 52,
              "position": 5.741667,
              "duration": 2.2
            },
            {
              "pitch": 75,
              "velocity": 53,
              "position": 8.041667,
              "duration": 0.116667
            },
            {
              "pitch": 71,
              "velocity": 54,
              "position": 8.05,
              "duration": 0.425
            },
            {
              "pitch": 79,
              "velocity": 41,
              "position": 8.05,
              "duration": 0.458333
            },
            {
              "pitch": 76,
              "velocity": 49,
              "position": 8.125,
              "duration": 0.408333
            },
            {
              "pitch": 71,
              "velocity": 40,
              "position": 8.675,
              "duration": 3.116667
            },
            {
              "pitch": 75,
              "velocity": 41,
              "position": 8.675,
              "duration": 0.091667
            },
            {
              "pitch": 79,
              "velocity": 31,
              "position": 8.691667,
              "duration": 3.141667
            },
            {
              "pitch": 76,
              "velocity": 50,
              "position": 8.75,
              "duration": 2.958333
            },
            {
              "pitch": 67,
              "velocity": 33,
              "position": 12.008333,
              "duration": 0.3
            },
            {
              "pitch": 76,
              "velocity": 40,
              "position": 12.016667,
              "duration": 0.241667
            },
            {
              "pitch": 74,
              "velocity": 38,
              "position": 12.025,
              "duration": 0.258333
            },
            {
              "pitch": 74,
              "velocity": 36,
              "position": 12.633333,
              "duration": 3.075
            },
            {
              "pitch": 76,
              "velocity": 45,
              "position": 12.633333,
              "duration": 2.941667
            },
            {
              "pitch": 67,
              "velocity": 26,
              "position": 12.65,
              "duration": 3.133333
            }
          ]
        }
      }
    },
    "Main_C": {
      "type": "Main_C",
      "sizeInBeats": 16,
      "channels": {
        "9": {
          "ctab": {
            "srcChannel": 9,
            "name": "Drums",
            "accType": "RHYTHM",
            "editable": false,
            "mutedNotes": [],
            "mutedChords": [],
            "sourceChordNote": 0,
            "sourceChordType": "Maj",
            "ctb2Main": {
              "ntr": "ROOT_FIXED",
              "ntt": "BYPASS",
              "bassOn": false,
              "noteLowLimit": 20,
              "noteHighLimit": 127,
              "chordRootUpperLimit": 127,
              "rtr": "RETRIGGER"
            }
          },
          "notes": [
            {
              "pitch": 36,
              "velocity": 119,
              "position": 0.0,
              "duration": 0.1
            },
            {
              "pitch": 49,
              "velocity": 127,
              "position": 0.0,
              "duration": 0.091667
            },
            {
              "pitch": 36,
              "velocity": 91,
              "position": 0.666667,
              "duration": 0.091667
            },
            {
              "pitch": 51,
              "velocity": 72,
              "position": 0.666667,
              "duration": 0.108333
            },
            {
              "pitch": 38,
              "velocity": 127,
              "position": 1.0,
              "duration": 0.1
            },
            {
              "pitch": 51,
              "velocity": 122,
              "position": 1.0,
              "duration": 0.091667
            },
            {
              "pitch": 51,
              "velocity": 98,
              "position": 1.333333,
              "duration": 0.1
            },
            {
              "pitch": 36,
              "velocity": 86,
              "position": 1.666667,
              "duration": 0.033333
            },
            {
              "pitch": 51,
              "velocity": 116,
              "position": 1.666667,
              "duration": 0.091667
            },
            {
              "pitch": 36,
              "velocity": 92,
              "position": 2.0,
              "duration": 0.1
            },
            {
              "pitch": 51,
              "velocity": 127,
              "position": 2.0,
              "duration": 0.083333
            },
            {
              "pitch": 51,
              "velocity": 127,
              "position": 2.333333,
              "duration": 0.1
            },
            {
              "pitch": 36,
              "velocity": 89,
              "position": 2.666667,
              "duration": 0.083333
            },
            {
              "pitch": 51,
              "velocity": 86,
              "position": 2.666667,
              "duration": 0.1
            },
            {
              "pitch": 38,
              "velocity": 127,
              "position": 3.0,
              "duration": 0.091667
            },
            {
              "pitch": 51,
              "velocity": 127,
              "position": 3.0,
              "duration": 0.091667
            },
            {
              "pitch": 51,
              "velocity": 90,
              "position": 3.333333,
              "duration": 0.1
            },
            {
              "pitch": 36,
              "velocity": 92,
              "position": 3.666667,
              "duration": 0.1
            },
            {
              "pitch": 51,
              "velocity": 119,
              "position": 3.666667,
              "duration": 0.108333
            },
            {
              "pitch": 36,
              "velocity": 98,
              "position": 4.0,
              "duration": 0.041667
            },
            {
              "pitch": 51,
              "velocity": 103,
              "position": 4.0,
              "duration": 0.1
            },
            {
              "pitch": 51,
              "velocity": 127,
              "position": 4.333333,
              "duration": 0.1
            },
            {
              "pitch": 36,
              "velocity": 86,
              "position": 4.666667,
              "duration": 0.041667
            },
            {
              "pitch": 51,
              "velocity": 103,
              "position": 4.666667,
              "duration": 0.1
            },
            {
              "pitch": 38,
              "velocity": 127,
              "position": 5.0,
              "duration": 0.091667
            },
            {
              "pitch": 51,
              "velocity": 113,
              "position": 5.0,
              "duration": 0.091667
            },
            {
              "pitch": 51,
              "velocity": 101,
              "position": 5.333333,
              "duration": 0.083333
            },
            {
              "pitch": 36,
              "velocity": 95,
              "position": 5.666667,
              "duration": 0.1
            },
            {
              "pitch": 51,
              "velocity": 88,
              "position": 5.666667,
              "duration": 0.1
            },
            {
              "pitch": 36,
              "velocity": 104,
              "position": 6.0,
              "duration": 0.033333
            },
            {
              "pitch": 51,
              "velocity": 77,
              "position": 6.0,
              "duration": 0.091667
            },
            {
              "pitch": 51,
              "velocity": 93,
              "position": 6.35,
              "duration": 0.1
            },
            {
              "pitch": 51,
              "velocity": 106,
              "position": 6.658333,
              "duration": 0.1
            },
            {
              "pitch": 36,
              "velocity": 96,
              "position": 6.666667,
              "duration": 0.05
            },
            {
              "pitch": 38,
              "velocity": 127,
              "position": 6.991667,
              "duration": 0.091667
            },
            {
              "pitch": 51,
              "velocity": 119,
              "position": 7.0,
              "duration": 0.1
            },
            {
              "pitch": 51,
              "velocity": 98,
              "position": 7.333333,
              "duration": 0.1
            },
            {
              "pitch": 36,
              "velocity": 99,
              "position": 7.658333,
              "duration": 0.083333
            },
            {
              "pitch": 51,
              "velocity": 113,
              "position": 7.658333,
              "duration": 0.091667
            },
            {
              "pitch": 36,
              "velocity": 99,
              "position": 8.0,
              "duration": 0.041667
            },
            {
              "pitch": 51,
              "velocity": 114,
              "position": 8.0,
              "duration": 0.091667
            },
            {
              "pitch": 51,
              "velocity": 66,
              "position": 8.35,
              "duration": 0.083333
            },
            {
              "pitch": 51,
              "velocity": 105,
              "position": 8.658333,
              "duration": 0.083333
            },
            {
              "pitch": 36,
              "velocity": 92,
              "position": 8.666667,
              "duration": 0.041667
            },
            {
              "pitch": 38,
              "velocity": 127,
              "position": 9.0,
              "duration": 0.083333
            },
            {
              "pitch": 51,
              "velocity": 122,
              "position": 9.0,
              "duration": 0.1
            },
            {
              "pitch": 51,
              "velocity": 114,
              "position": 9.333333,
              "duration": 0.1
            },
            {
              "pitch": 36,
              "velocity": 98,
              "position": 9.666667,
              "duration": 0.033333
            },
            {
              "pitch": 51,
              "velocity": 111,
              "position": 9.666667,
              "duration": 0.1
            },
            {
              "pitch": 36,
              "velocity": 98,
              "position": 10.0,
              "duration": 0.041667
            },
            {
              "pitch": 51,
              "velocity": 127,
              "position": 10.0,
              "duration": 0.1
            },
            {
              "pitch": 51,
              "velocity": 113,
              "position": 10.333333,
              "duration": 0.091667
            },
            {
              "pitch": 36,
              "velocity": 99,
              "position": 10.666667,
              "duration": 0.033333
            },
            {
              "pitch": 51,
              "velocity": 95,
              "position": 10.666667,
              "duration": 0.091667
            },
            {
              "pitch": 38,
              "velocity": 127,
              "position": 11.0,
              "duration": 0.083333
            },
            {
              "pitch": 51,
              "velocity": 127,
              "position": 11.0,
              "duration": 0.083333
            },
            {
              "pitch": 51,
              "velocity": 90,
              "position": 11.333333,
              "duration": 0.1
            },
            {
              "pitch": 36,
              "velocity": 92,
              "position": 11.666667,
              "duration": 0.116667
            },
            {
              "pitch": 51,
              "velocity": 124,
              "position": 11.666667,
              "duration": 0.125
            },
            {
              "pitch": 36,
              "velocity": 96,
              "position": 12.0,
              "duration": 0.208333
            },
            {
              "pitch": 38,
              "velocity": 127,
              "position": 12.0,
              "duration": 0.208333
            },
            {
              "pitch": 51,
              "velocity": 127,
              "position": 12.0,
              "duration": 0.208333
            },
            {
              "pitch": 38,
              "velocity": 20,
              "position": 12.333333,
              "duration": 0.208333
            },
            {
              "pitch": 51,
              "velocity": 72,
              "position": 12.333333,
              "duration": 0.208333
            },
            {
              "pitch": 36,
              "velocity": 80,
              "position": 12.666667,
              "duration": 0.208333
            },
            {
              "pitch": 38,
              "velocity": 46,
              "position": 12.666667,
              "duration": 0.208333
            },
            {
              "pitch": 51,
              "velocity": 109,
              "position": 12.666667,
              "duration": 0.208333
            },
            {
              "pitch": 36,
              "velocity": 99,
              "position": 13.0,
              "duration": 0.208333
            },
            {
              "pitch": 40,
              "velocity": 127,
              "position": 13.0,
              "duration": 0.208333
            },
            {
              "pitch": 51,
              "velocity": 127,
              "position": 13.0,
              "duration": 0.208333
            },
            {
              "pitch": 36,
              "velocity": 123,
              "position": 13.666667,
              "duration": 0.208333
            },
            {
              "pitch": 49,
              "velocity": 127,
              "position": 13.666667,
              "duration": 0.208333
            },
            {
              "pitch": 48,
              "velocity": 124,
              "position": 15.0,
              "duration": 0.208333
            },
            {
              "pitch": 50,
              "velocity": 15,
              "position": 15.0,
              "duration": 0.208333
            },
            {
              "pitch": 45,
              "velocity": 105,
              "position": 15.333333,
              "duration": 0.208333
            },
            {
              "pitch": 41,
              "velocity": 119,
              "position": 15.666667,
              "duration": 0.208333
            }
          ]
        },
        "10": {
          "ctab": {
            "srcChannel": 10,
            "name": "Bass",
            "accType": "BASS",
            "editable": true,
            "mutedNotes": [],
            "mutedChords": [],
            "sourceChordNote": 0,
            "sourceChordType": "Maj7",
            "ctb2Main": {
              "ntr": "ROOT_TRANSPOSITION",
              "ntt": "BYPASS",
              "bassOn": true,
              "noteLowLimit": 20,
              "noteHighLimit": 60,
              "chordRootUpperLimit": 127,
              "rtr": "NOTE_GENERATOR"
            }
          },
          "notes": [
            {
              "pitch": 36,
              "velocity": 62,
              "position": 0.0,
              "duration": 0.9
            },
            {
              "pitch": 43,
              "velocity": 61,
              "position": 1.0,
              "duration": 0.858333
            },
            {
              "pitch": 36,
              "velocity": 62,
              "position": 2.0,
              "duration": 0.9
            },
            {
              "pitch": 43,
              "velocity": 61,
              "position": 3.0,
              "duration": 0.858333
            },
            {
              "pitch": 36,
              "velocity": 62,
              "position": 4.0,
              "duration": 0.9
            },
            {
              "pitch": 36,
              "velocity": 61,
              "position": 5.0,
              "duration": 0.858333
            },
            {
              "pitch": 36,
              "velocity": 62,
              "position": 6.0,
              "duration": 0.9
            },
            {
              "pitch": 36,
              "velocity": 61,
              "position": 7.0,
              "duration": 0.858333
            },
            {
              "pitch": 36,
              "velocity": 71,
              "position": 8.0,
              "duration": 0.983333
            },
            {
              "pitch": 40,
              "velocity": 59,
              "position": 9.0,
              "duration": 1.008333
            },
            {
              "pitch": 43,
              "velocity": 73,
              "position": 10.0,
              "duration": 1.05
            },
            {
              "pitch": 40,
              "velocity": 55,
              "position": 11.0,
              "duration": 0.6
            },
            {
              "pitch": 43,
              "velocity": 57,
              "position": 11.666667,
              "duration": 0.35
            },
            {
              "pitch": 36,
              "velocity": 50,
              "position": 12.0,
              "duration": 1.05
            },
            {
              "pitch": 40,
              "velocity": 60,
              "position": 13.0,
              "duration": 1.033333
            },
            {
              "pitch": 43,
              "velocity": 58,
              "position": 14.0,
              "duration": 1.016667
            },
            {
              "pitch": 36,
              "velocity": 64,
              "position": 15.0,
              "duration": 0.9
            }
          ]
        },
        "11": {
          "ctab": {
            "srcChannel": 11,
            "name": "Piano",
            "accType": "CHORD1",
            "editable": true,
            "mutedNotes": [],
            "mutedChords": [],
            "sourceChordNote": 0,
            "sourceChordType": "Maj7",
            "ctb2Main": {
              "ntr": "ROOT_FIXED",
              "ntt": "CHORD",
              "bassOn": false,
              "noteLowLimit": 48,
              "noteHighLimit": 84,
              "chordRootUpperLimit": 127,
              "rtr": "NOTE_GENERATOR"
            }
          },
          "notes": [
            {
              "pitch": 90,
              "velocity": 94,
              "position": 0.033333,
              "duration": 0.116667
            },
            {
              "pitch": 98,
              "velocity": 84,
              "position": 0.041667,
              "duration": 0.491667
            },
            {
              "pitch": 91,
              "velocity": 68,
              "position": 0.066667,
              "duration": 0.2
            },
            {
              "pitch": 91,
              "velocity": 45,
              "position": 0.35,
              "duration": 0.166667
            },
            {
              "pitch": 91,
              "velocity": 70,
              "position": 0.683333,
              "duration": 0.158333
            },
            {
              "pitch": 98,
              "velocity": 64,
              "position": 0.683333,
              "duration": 0.175
            },
            {
              "pitch": 91,
              "velocity": 68,
              "position": 1.016667,
              "duration": 0.25
            },
            {
              "pitch": 98,
              "velocity": 64,
              "position": 1.016667,
              "duration": 0.45
            },
            {
              "pitch": 90,
              "velocity": 94,
              "position": 1.716667,
              "duration": 0.416667
            },
            {
              "pitch": 98,
              "velocity": 84,
              "position": 1.725,
              "duration": 0.791667
            },
            {
              "pitch": 91,
              "velocity": 68,
              "position": 1.75,
              "duration": 0.666667
            },
            {
              "pitch": 91,
              "velocity": 70,
              "position": 2.683333,
              "duration": 0.475
            },
            {
              "pitch": 98,
              "velocity": 64,
              "position": 2.683333,
              "duration": 0.416667
            },
            {
              "pitch": 90,
              "velocity": 94,
              "position": 4.033333,
              "duration": 0.116667
            },
            {
              "pitch": 98,
              "velocity": 84,
              "position": 4.041667,
              "duration": 0.491667
            },
            {
              "pitch": 91,
              "velocity": 68,
              "position": 4.066667,
              "duration": 0.2
            },
            {
              "pitch": 91,
              "velocity": 45,
              "position": 4.35,
              "duration": 0.166667
            },
            {
              "pitch": 91,
              "velocity": 70,
              "position": 4.683333,
              "duration": 0.158333
            },
            {
              "pitch": 98,
              "velocity": 64,
              "position": 4.683333,
              "duration": 0.175
            },
            {
              "pitch": 91,
              "velocity": 68,
              "position": 5.016667,
              "duration": 0.25
            },
            {
              "pitch": 98,
              "velocity": 64,
              "position": 5.016667,
              "duration": 0.45
            },
            {
              "pitch": 90,
              "velocity": 94,
              "position": 5.716667,
              "duration": 0.416667
            },
            {
              "pitch": 98,
              "velocity": 84,
              "position": 5.725,
              "duration": 0.791667
            },
            {
              "pitch": 91,
              "velocity": 68,
              "position": 5.75,
              "duration": 0.666667
            },
            {
              "pitch": 91,
              "velocity": 70,
              "position": 6.683333,
              "duration": 0.475
            },
            {
              "pitch": 98,
              "velocity": 64,
              "position": 6.683333,
              "duration": 0.416667
            },
            {
              "pitch": 90,
              "velocity": 94,
              "position": 8.033333,
              "duration": 0.116667
            },
            {
              "pitch": 98,
              "velocity": 84,
              "position": 8.041667,
              "duration": 0.491667
            },
            {
              "pitch": 91,
              "velocity": 68,
              "position": 8.066667,
              "duration": 0.2
            },
            {
              "pitch": 91,
              "velocity": 45,
              "position": 8.35,
              "duration": 0.166667
            },
            {
              "pitch": 91,
              "velocity": 70,
              "position": 8.683333,
              "duration": 0.158333
            },
            {
              "pitch": 98,
              "velocity": 64,
              "position": 8.683333,
              "duration": 0.175
            },
            {
              "pitch": 91,
              "velocity": 68,
              "position": 9.016667,
              "duration": 0.466667
            },
            {
              "pitch": 98,
              "velocity": 64,
              "position": 9.016667,
              "duration": 0.45
            },
            {
              "pitch": 91,
              "velocity": 73,
              "position": 9.683333,
              "duration": 0.141667
            },
            {
              "pitch": 95,
              "velocity": 71,
              "position": 9.683333,
              "duration": 0.158333
            },
            {
              "pitch": 87,
              "velocity": 68,
              "position": 10.041667,
              "duration": 0.125
            },
            {
              "pitch": 91,
              "velocity": 64,
              "position": 10.058333,
              "duration": 0.358333
            },
            {
              "pitch": 88,
              "velocity": 70,
              "position": 10.175,
              "duration": 0.241667
            },
            {
              "pitch": 86,
              "velocity": 51,
              "position": 10.625,
              "duration": 1.008333
            },
            {
              "pitch": 91,
              "velocity": 65,
              "position": 10.625,
              "duration": 1.033333
            },
            {
              "pitch": 90,
              "velocity": 90,
              "position": 12.641667,
              "duration": 0.075
            },
            {
              "pitch": 98,
              "velocity": 81,
              "position": 12.65,
              "duration": 0.208333
            },
            {
              "pitch": 91,
              "velocity": 64,
              "position": 12.658333,
              "duration": 0.233333
            },
            {
              "pitch": 98,
              "velocity": 73,
              "position": 13.0,
              "duration": 0.333333
            },
            {
              "pitch": 90,
              "velocity": 77,
              "position": 13.008333,
              "duration": 0.1
            },
            {
              "pitch": 91,
              "velocity": 71,
              "position": 13.075,
              "duration": 0.3
            },
            {
              "pitch": 91,
              "velocity": 64,
              "position": 13.608333,
              "duration": 0.166667
            },
            {
              "pitch": 95,
              "velocity": 59,
              "position": 13.608333,
              "duration": 0.166667
            },
            {
              "pitch": 87,
              "velocity": 79,
              "position": 14.016667,
              "duration": 0.283333
            },
            {
              "pitch": 91,
              "velocity": 66,
              "position": 14.041667,
              "duration": 0.333333
            },
            {
              "pitch": 88,
              "velocity": 64,
              "position": 14.15,
              "duration": 0.208333
            },
            {
              "pitch": 86,
              "velocity": 47,
              "position": 14.625,
              "duration": 0.758333
            },
            {
              "pitch": 88,
              "velocity": 55,
              "position": 14.625,
              "duration": 0.741667
            }
          ]
        },
        "12": {
          "ctab": {
            "srcChannel": 12,
            "name": "Guitar",
            "accType": "CHORD2",
            "editable": true,
            "mutedNotes": [],
            "mutedChords": [],
            "sourceChordNote": 0,
            "sourceChordType": "Maj7",
            "ctb2Main": {
              "ntr": "ROOT_FIXED",
              "ntt": "CHORD",
              "bassOn": false,
              "noteLowLimit": 40,
              "noteHighLimit": 76,
              "chordRootUpperLimit": 127,
              "rtr": "NOTE_GENERATOR"
            }
          },
          "notes": [
            {
              "pitch": 48,
              "velocity": 68,
              "position": 0.0,
              "duration": 0.341667
            },
            {
              "pitch": 54,
              "velocity": 32,
              "position": 0.0,
              "duration": 0.133333
            },
            {
              "pitch": 55,
              "velocity": 52,
              "position": 0.041667,
              "duration": 0.316667
            },
            {
              "pitch": 48,
              "velocity": 60,
              "position": 0.666667,
              "duration": 0.308333
            },
            {
              "pitch": 55,
              "velocity": 65,
              "position": 0.666667,
              "duration": 0.316667
            },
            {
              "pitch": 48,
              "velocity": 62,
              "position": 1.0,
              "duration": 0.275
            },
            {
              "pitch": 55,
              "velocity": 74,
              "position": 1.0,
              "duration": 0.283333
            },
            {
              "pitch": 48,
              "velocity": 59,
              "position": 1.666667,
              "duration": 0.291667
            },
            {
              "pitch": 55,
              "velocity": 68,
              "position": 1.666667,
              "duration": 0.275
            },
            {
              "pitch": 48,
              "velocity": 68,
              "position": 2.0,
              "duration": 0.341667
            },
            {
              "pitch": 54,
              "velocity": 32,
              "position": 2.0,
              "duration": 0.133333
            },
            {
              "pitch": 55,
              "velocity": 52,
              "position": 2.041667,
              "duration": 0.316667
            },
            {
              "pitch": 48,
              "velocity": 60,
              "position": 2.666667,
              "duration": 0.308333
            },
            {
              "pitch": 55,
              "velocity": 65,
              "position": 2.666667,
              "duration": 0.316667
            },
            {
              "pitch": 48,
              "velocity": 62,
              "position": 3.0,
              "duration": 0.275
            },
            {
              "pitch": 55,
              "velocity": 74,
              "position": 3.0,
              "duration": 0.283333
            },
            {
              "pitch": 48,
              "velocity": 59,
              "position": 3.666667,
              "duration": 0.291667
            },
            {
              "pitch": 55,
              "velocity": 68,
              "position": 3.666667,
              "duration": 0.275
            },
            {
              "pitch": 48,
              "velocity": 68,
              "position": 4.0,
              "duration": 0.341667
            },
            {
              "pitch": 54,
              "velocity": 32,
              "position": 4.0,
              "duration": 0.133333
            },
            {
              "pitch": 55,
              "velocity": 52,
              "position": 4.041667,
              "duration": 0.316667
            },
            {
              "pitch": 48,
              "velocity": 60,
              "position": 4.666667,
              "duration": 0.308333
            },
            {
              "pitch": 55,
              "velocity": 65,
              "position": 4.666667,
              "duration": 0.316667
            },
            {
              "pitch": 48,
              "velocity": 62,
              "position": 5.0,
              "duration": 0.275
            },
            {
              "pitch": 55,
              "velocity": 74,
              "position": 5.0,
              "duration": 0.283333
            },
            {
              "pitch": 48,
              "velocity": 59,
              "position": 5.666667,
              "duration": 0.291667
            },
            {
              "pitch": 55,
              "velocity": 68,
              "position": 5.666667,
              "duration": 0.275
            },
            {
              "pitch": 48,
              "velocity": 68,
              "position": 6.0,
              "duration": 0.341667
            },
            {
              "pitch": 54,
              "velocity": 32,
              "position": 6.0,
              "duration": 0.133333
            },
            {
              "pitch": 55,
              "velocity": 52,
              "position": 6.041667,
              "duration": 0.316667
            },
            {
              "pitch": 48,
              "velocity": 60,
              "position": 6.666667,
              "duration": 0.308333
            },
            {
              "pitch": 55,
              "velocity": 65,
              "position": 6.666667,
              "duration": 0.316667
            },
            {
              "pitch": 48,
              "velocity": 62,
              "position": 7.0,
              "duration": 0.275
            },
            {
              "pitch": 55,
              "velocity": 74,
              "position": 7.0,
              "duration": 0.283333
            },
            {
              "pitch": 48,
              "velocity": 59,
              "position": 7.666667,
              "duration": 0.291667
            },
            {
              "pitch": 55,
              "velocity": 68,
              "position": 7.666667,
              "duration": 0.275
            },
            {
              "pitch": 48,
              "velocity": 65,
              "position": 8.0,
              "duration": 0.341667
            },
            {
              "pitch": 54,
              "velocity": 29,
              "position": 8.0,
              "duration": 0.133333
            },
            {
              "pitch": 55,
              "velocity": 49,
              "position": 8.0,
              "duration": 0.316667
            },
            {
              "pitch": 48,
              "velocity": 57,
              "position": 8.666667,
              "duration": 0.233333
            },
            {
              "pitch": 55,
              "velocity": 62,
              "position": 8.666667,
              "duration": 0.3
            },
            {
              "pitch": 48,
              "velocity": 55,
              "position": 9.0,
              "duration": 0.275
            },
            {
              "pitch": 55,
              "velocity": 68,
              "position": 9.0,
              "duration": 0.283333
            },
            {
              "pitch": 48,
              "velocity": 56,
              "position": 9.666667,
              "duration": 0.375
            },
            {
              "pitch": 55,
              "velocity": 65,
              "position": 9.666667,
              "duration": 0.225
            },
            {
              "pitch": 55,
              "velocity": 65,
              "position": 10.0,
              "duration": 0.333333
            },
            {
              "pitch": 48,
              "velocity": 62,
              "position": 10.666667,
              "duration": 0.208333
            },
            {
              "pitch": 55,
              "velocity": 65,
              "position": 10.666667,
              "duration": 0.208333
            },
            {
              "pitch": 48,
              "velocity": 68,
              "position": 11.0,
              "duration": 0.333333
            },
            {
              "pitch": 55,
              "velocity": 83,
              "position": 11.0,
              "duration": 0.333333
            },
            {
              "pitch": 48,
              "velocity": 56,
              "position": 11.666667,
              "duration": 0.241667
            },
            {
              "pitch": 55,
              "velocity": 65,
              "position": 11.666667,
              "duration": 0.166667
            },
            {
              "pitch": 48,
              "velocity": 59,
              "position": 12.0,
              "duration": 0.333333
            },
            {
              "pitch": 54,
              "velocity": 51,
              "position": 12.0,
              "duration": 0.133333
            },
            {
              "pitch": 55,
              "velocity": 57,
              "position": 12.0,
              "duration": 0.333333
            },
            {
              "pitch": 48,
              "velocity": 59,
              "position": 12.666667,
              "duration": 0.216667
            },
            {
              "pitch": 55,
              "velocity": 61,
              "position": 12.666667,
              "duration": 0.275
            },
            {
              "pitch": 48,
              "velocity": 54,
              "position": 13.0,
              "duration": 0.308333
            },
            {
              "pitch": 55,
              "velocity": 60,
              "position": 13.0,
              "duration": 0.325
            },
            {
              "pitch": 48,
              "velocity": 62,
              "position": 13.666667,
              "duration": 0.208333
            },
            {
              "pitch": 55,
              "velocity": 74,
              "position": 13.666667,
              "duration": 0.216667
            },
            {
              "pitch": 48,
              "velocity": 55,
              "position": 14.0,
              "duration": 0.216667
            },
            {
              "pitch": 59,
              "velocity": 72,
              "position": 14.0,
              "duration": 0.2
            },
            {
              "pitch": 48,
              "velocity": 60,
              "position": 14.666667,
              "duration": 0.241667
            },
            {
              "pitch": 59,
              "velocity": 78,
              "position": 14.666667,
              "duration": 0.283333
            },
            {
              "pitch": 48,
              "velocity": 51,
              "position": 15.0,
              "duration": 0.283333
            },
            {
              "pitch": 55,
              "velocity": 64,
              "position": 15.0,
              "duration": 0.283333
            },
            {
              "pitch": 48,
              "velocity": 53,
              "position": 15.666667,
              "duration": 0.216667
            },
            {
              "pitch": 55,
              "velocity": 61,
              "position": 15.666667,
              "duration": 0.291667
            }
          ]
        },
        "13": {
          "ctab": {
            "srcChannel": 13,
            "name": "Strings",
            "accType": "PAD",
            "editable": true,
            "mutedNotes": [],
            "mutedChords": [],
            "sourceChordNote": 0,
            "sourceChordType": "Maj7",
            "ctb2Main": {
              "ntr": "ROOT_FIXED",
              "ntt": "MELODY",
              "bassOn": false,
              "noteLowLimit": 36,
              "noteHighLimit": 96,
              "chordRootUpperLimit": 127,
              "rtr": "PITCH_SHIFT"
            }
          },
          "notes": [
            {
              "pitch": 78,
              "velocity": 44,
              "position": 0.025,
              "duration": 0.116667
            },
            {
              "pitch": 71,
              "velocity": 46,
              "position": 0.033333,
              "duration": 1.925
            },
            {
              "pitch": 76,
              "velocity": 42,
              "position": 0.041667,
              "duration": 1.916667
            },
            {
              "pitch": 79,
              "velocity": 51,
              "position": 0.166667,
              "duration": 1.791667
            },
            {
              "pitch": 78,
              "velocity": 44,
              "position": 2.025,
              "duration": 0.116667
            },
            {
              "pitch": 71,
              "velocity": 46,
              "position": 2.033333,
              "duration": 1.925
            },
            {
              "pitch": 76,
              "velocity": 42,
              "position": 2.041667,
              "duration": 1.916667
            },
            {
              "pitch": 79,
              "velocity": 51,
              "position": 2.166667,
              "duration": 1.791667
            },
            {
              "pitch": 75,
              "velocity": 53,
              "position": 4.041667,
              "duration": 0.116667
            },
            {
              "pitch": 71,
              "velocity": 54,
              "position": 4.05,
              "duration": 0.425
            },
            {
              "pitch": 79,
              "velocity": 41,
              "position": 4.05,
              "duration": 0.458333
            },
            {
              "pitch": 76,
              "velocity": 49,
              "position": 4.125,
              "duration": 0.408333
            },
            {
              "pitch": 71,
              "velocity": 40,
              "position": 4.675,
              "duration": 0.925
            },
            {
              "pitch": 75,
              "velocity": 41,
              "position": 4.675,
              "duration": 0.091667
            },
            {
              "pitch": 79,
              "velocity": 31,
              "position": 4.691667,
              "duration": 0.908333
            },
            {
              "pitch": 76,
              "velocity": 50,
              "position": 4.75,
              "duration": 0.85
            },
            {
              "pitch": 71,
              "velocity": 46,
              "position": 5.683333,
              "duration": 2.258333
            },
            {
              "pitch": 76,
              "velocity": 42,
              "position": 5.683333,
              "duration": 2.258333
            },
            {
              "pitch": 78,
              "velocity": 48,
              "position": 5.683333,
              "duration": 0.416667
            },
            {
              "pitch": 79,
              "velocity": 52,
              "position": 5.741667,
              "duration": 2.2
            },
            {
              "pitch": 75,
              "velocity": 53,
              "position": 8.041667,
              "duration": 0.116667
            },
            {
              "pitch": 71,
              "velocity": 54,
              "position": 8.05,
              "duration": 0.425
            },
            {
              "pitch": 79,
              "velocity": 41,
              "position": 8.05,
              "duration": 0.458333
            },
            {
              "pitch": 76,
              "velocity": 49,
              "position": 8.125,
              "duration": 0.408333
            },
            {
              "pitch": 71,
              "velocity": 40,
              "position": 8.675,
              "duration": 3.116667
            },
            {
              "pitch": 75,
              "velocity": 41,
              "position": 8.675,
              "duration": 0.091667
            },
            {
              "pitch": 79,
              "velocity": 31,
              "position": 8.691667,
              "duration": 3.141667
            },
            {
              "pitch": 76,
              "velocity": 50,
              "position": 8.75,
              "duration": 2.958333
            },
            {
              "pitch": 67,
              "velocity": 33,
              "position": 12.008333,
              "duration": 0.3
            },
            {
              "pitch": 76,
              "velocity": 40,
              "position": 12.016667,
              "duration": 0.241667
            },
            {
              "pitch": 74,
              "velocity": 38,
              "position": 12.025,
              "duration": 0.258333
            },
            {
              "pitch": 74,
              "velocity": 36,
              "position": 12.633333,
              "duration": 3.075
            },
            {
              "pitch": 76,
              "velocity": 45,
              "position": 12.633333,
              "duration": 2.941667
            },
            {
              "pitch": 67,
              "velocity": 26,
              "position": 12.65,
              "duration": 3.133333
            }
          ]
        }
      }
    },
    "Main_D": {
      "type": "Main_D",
      "sizeInBeats": 16,
      "channels": {
        "9": {
          "ctab": {
            "srcChannel": 9,
            "name": "Drums",
            "accType": "RHYTHM",
            "editable": false,
            "mutedNotes": [],
            "mutedChords": [],
            "sourceChordNote": 0,
            "sourceChordType": "Maj",
            "ctb2Main": {
              "ntr": "ROOT_FIXED",
              "ntt": "BYPASS",
              "bassOn": false,
              "noteLowLimit": 20,
              "noteHighLimit": 127,
              "chordRootUpperLimit": 127,
              "rtr": "RETRIGGER"
            }
          },
          "notes": [
            {
              "pitch": 36,
              "velocity": 119,
              "position": 0.0,
              "duration": 0.1
            },
            {
              "pitch": 49,
              "velocity": 127,
              "position": 0.0,
              "duration": 0.091667
            },
            {
              "pitch": 36,
              "velocity": 91,
              "position": 0.666667,
              "duration": 0.091667
            },
            {
              "pitch": 51,
              "velocity": 72,
              "position": 0.666667,
              "duration": 0.108333
            },
            {
              "pitch": 38,
              "velocity": 127,
              "position": 1.0,
              "duration": 0.1
            },
            {
              "pitch": 51,
              "velocity": 122,
              "position": 1.0,
              "duration": 0.091667
            },
            {
              "pitch": 51,
              "velocity": 98,
              "position": 1.333333,
              "duration": 0.1
            },
            {
              "pitch": 36,
              "velocity": 86,
              "position": 1.666667,
              "duration": 0.033333
            },
            {
              "pitch": 51,
              "velocity": 116,
              "position": 1.666667,
              "duration": 0.091667
            },
            {
              "pitch": 36,
              "velocity": 92,
              "position": 2.0,
              "duration": 0.1
            },
            {
              "pitch": 51,
              "velocity": 127,
              "position": 2.0,
              "duration": 0.083333
            },
            {
              "pitch": 51,
              "velocity": 127,
              "position": 2.333333,
              "duration": 0.1
            },
            {
              "pitch": 36,
              "velocity": 89,
              "position": 2.666667,
              "duration": 0.083333
            },
            {
              "pitch": 51,
              "velocity": 86,
              "position": 2.666667,
              "duration": 0.1
            },
            {
              "pitch": 38,
              "velocity": 127,
              "position": 3.0,
              "duration": 0.091667
            },
            {
              "pitch": 51,
              "velocity": 127,
              "position": 3.0,
              "duration": 0.091667
            },
            {
              "pitch": 51,
              "velocity": 90,
              "position": 3.333333,
              "duration": 0.1
            },
            {
              "pitch": 36,
              "velocity": 92,
              "position": 3.666667,
              "duration": 0.1
            },
            {
              "pitch": 51,
              "velocity": 119,
              "position": 3.666667,
              "duration": 0.108333
            },
            {
              "pitch": 36,
              "velocity": 98,
              "position": 4.0,
              "duration": 0.041667
            },
            {
              "pitch": 51,
              "velocity": 103,
              "position": 4.0,
              "duration": 0.1
            },
            {
              "pitch": 51,
              "velocity": 127,
              "position": 4.333333,
              "duration": 0.1
            },
            {
              "pitch": 36,
              "velocity": 86,
              "position": 4.666667,
              "duration": 0.041667
            },
            {
              "pitch": 51,
              "velocity": 103,
              "position": 4.666667,
              "duration": 0.1
            },
            {
              "pitch": 38,
              "velocity": 127,
              "position": 5.0,
              "duration": 0.091667
            },
            {
              "pitch": 51,
              "velocity": 113,
              "position": 5.0,
              "duration": 0.091667
            },
            {
              "pitch": 51,
              "velocity": 101,
              "position": 5.333333,
              "duration": 0.083333
            },
            {
              "pitch": 36,
              "velocity": 95,
              "position": 5.666667,
              "duration": 0.1
            },
            {
              "pitch": 51,
              "velocity": 88,
              "position": 5.666667,
              "duration": 0.1
            },
            {
              "pitch": 36,
              "velocity": 104,
              "position": 6.0,
              "duration": 0.033333
            },
            {
              "pitch": 51,
              "velocity": 77,
              "position": 6.0,
              "duration": 0.091667
            },
            {
              "pitch": 51,
              "velocity": 93,
              "position": 6.35,
              "duration": 0.1
            },
            {
              "pitch": 51,
              "velocity": 106,
              "position": 6.658333,
              "duration": 0.1
            },
            {
              "pitch": 36,
              "velocity": 96,
              "position": 6.666667,
              "duration": 0.05
            },
            {
              "pitch": 38,
              "velocity": 127,
              "position": 6.991667,
              "duration": 0.091667
            },
            {
              "pitch": 51,
              "velocity": 119,
              "position": 7.0,
              "duration": 0.1
            },
            {
              "pitch": 51,
              "velocity": 98,
              "position": 7.333333,
              "duration": 0.1
            },
            {
              "pitch": 36,
              "velocity": 99,
              "position": 7.658333,
              "duration": 0.083333
            },
            {
              "pitch": 51,
              "velocity": 113,
              "position": 7.658333,
              "duration": 0.091667
            },
            {
              "pitch": 36,
              "velocity": 108,
              "position": 8.0,
              "duration": 0.1
            },
            {
              "pitch": 49,
              "velocity": 127,
              "position": 8.0,
              "duration": 0.1
            },
            {
              "pitch": 51,
              "velocity": 127,
              "position": 8.0,
              "duration": 0.091667
            },
            {
              "pitch": 51,
              "velocity": 87,
              "position": 8.333333,
              "duration": 0.091667
            },
            {
              "pitch": 36,
              "velocity": 95,
              "position": 8.666667,
              "duration": 0.116667
            },
            {
              "pitch": 51,
              "velocity": 92,
              "position": 8.666667,
              "duration": 0.116667
            },
            {
              "pitch": 38,
              "velocity": 127,
              "position": 9.0,
              "duration": 0.091667
            },
            {
              "pitch": 51,
              "velocity": 127,
              "position": 9.0,
              "duration": 0.091667
            },
            {
              "pitch": 51,
              "velocity": 105,
              "position": 9.333333,
              "duration": 0.1
            },
            {
              "pitch": 36,
              "velocity": 96,
              "position": 9.666667,
              "duration": 0.1
            },
            {
              "pitch": 51,
              "velocity": 87,
              "position": 9.666667,
              "duration": 0.1
            },
            {
              "pitch": 36,
              "velocity": 110,
              "position": 10.0,
              "duration": 0.083333
            },
            {
              "pitch": 51,
              "velocity": 127,
              "position": 10.0,
              "duration": 0.1
            },
            {
              "pitch": 51,
              "velocity": 126,
              "position": 10.333333,
              "duration": 0.091667
            },
            {
              "pitch": 36,
              "velocity": 101,
              "position": 10.666667,
              "duration": 0.1
            },
            {
              "pitch": 51,
              "velocity": 124,
              "position": 10.666667,
              "duration": 0.1
            },
            {
              "pitch": 38,
              "velocity": 127,
              "position": 11.0,
              "duration": 0.083333
            },
            {
              "pitch": 51,
              "velocity": 127,
              "position": 11.0,
              "duration": 0.083333
            },
            {
              "pitch": 51,
              "velocity": 96,
              "position": 11.333333,
              "duration": 0.083333
            },
            {
              "pitch": 36,
              "velocity": 98,
              "position": 11.666667,
              "duration": 0.1
            },
            {
              "pitch": 51,
              "velocity": 127,
              "position": 11.666667,
              "duration": 0.091667
            },
            {
              "pitch": 36,
              "velocity": 61,
              "position": 12.0,
              "duration": 0.208333
            },
            {
              "pitch": 51,
              "velocity": 127,
              "position": 12.0,
              "duration": 0.208333
            },
            {
              "pitch": 51,
              "velocity": 69,
              "position": 12.333333,
              "duration": 0.208333
            },
            {
              "pitch": 36,
              "velocity": 99,
              "position": 12.666667,
              "duration": 0.208333
            },
            {
              "pitch": 51,
              "velocity": 96,
              "position": 12.666667,
              "duration": 0.208333
            },
            {
              "pitch": 40,
              "velocity": 127,
              "position": 13.0,
              "duration": 0.208333
            },
            {
              "pitch": 51,
              "velocity": 93,
              "position": 13.0,
              "duration": 0.208333
            },
            {
              "pitch": 51,
              "velocity": 74,
              "position": 13.333333,
              "duration": 0.208333
            },
            {
              "pitch": 38,
              "velocity": 127,
              "position": 13.666667,
              "duration": 0.208333
            },
            {
              "pitch": 51,
              "velocity": 122,
              "position": 13.666667,
              "duration": 0.208333
            },
            {
              "pitch": 36,
              "velocity": 113,
              "position": 14.0,
              "duration": 0.208333
            },
            {
              "pitch": 51,
              "velocity": 105,
              "position": 14.0,
              "duration": 0.208333
            },
            {
              "pitch": 38,
              "velocity": 127,
              "position": 14.333333,
              "duration": 0.208333
            },
            {
              "pitch": 51,
              "velocity": 98,
              "position": 14.333333,
              "duration": 0.208333
            },
            {
              "pitch": 38,
              "velocity": 127,
              "position": 14.666667,
              "duration": 0.208333
            },
            {
              "pitch": 48,
              "velocity": 82,
              "position": 14.666667,
              "duration": 0.208333
            },
            {
              "pitch": 40,
              "velocity": 127,
              "position": 15.0,
              "duration": 0.208333
            },
            {
              "pitch": 48,
              "velocity": 127,
              "position": 15.0,
              "duration": 0.208333
            },
            {
              "pitch": 38,
              "velocity": 127,
              "position": 15.333333,
              "duration": 0.208333
            },
            {
              "pitch": 45,
              "velocity": 87,
              "position": 15.333333,
              "duration": 0.208333
            },
            {
              "pitch": 41,
              "velocity": 126,
              "position": 15.666667,
              "duration": 0.208333
            }
          ]
        },
        "10": {
          "ctab": {
            "srcChannel": 10,
            "name": "Bass",
            "accType": "BASS",
            "editable": true,
            "mutedNotes": [],
            "mutedChords": [],
            "sourceChordNote": 0,
            "sourceChordType": "Maj7",
            "ctb2Main": {
              "ntr": "ROOT_TRANSPOSITION",
              "ntt": "BYPASS",
              "bassOn": true,
              "noteLowLimit": 20,
              "noteHighLimit": 60,
              "chordRootUpperLimit": 127,
              "rtr": "NOTE_GENERATOR"
            }
          },
          "notes": [
            {
              "pitch": 36,
              "velocity": 62,
              "position": 0.0,
              "duration": 0.9
            },
            {
              "pitch": 36,
              "velocity": 61,
              "position": 1.0,
              "duration": 0.858333
            },
            {
              "pitch": 36,
              "velocity": 62,
              "position": 2.0,
              "duration": 0.9
            },
            {
              "pitch": 43,
              "velocity": 61,
              "position": 3.0,
              "duration": 0.858333
            },
            {
              "pitch": 36,
              "velocity": 62,
              "position": 4.0,
              "duration": 0.9
            },
            {
              "pitch": 36,
              "velocity": 61,
              "position": 5.0,
              "duration": 0.858333
            },
            {
              "pitch": 36,
              "velocity": 62,
              "position": 6.0,
              "duration": 0.9
            },
            {
              "pitch": 36,
              "velocity": 61,
              "position": 7.0,
              "duration": 0.858333
            },
            {
              "pitch": 36,
              "velocity": 71,
              "position": 8.0,
              "duration": 0.983333
            },
            {
              "pitch": 40,
              "velocity": 59,
              "position": 9.0,
              "duration": 1.008333
            },
            {
              "pitch": 43,
              "velocity": 73,
              "position": 10.0,
              "duration": 1.05
            },
            {
              "pitch": 40,
              "velocity": 55,
              "position": 11.0,
              "duration": 0.6
            },
            {
              "pitch": 43,
              "velocity": 57,
              "position": 11.666667,
              "duration": 0.35
            },
            {
              "pitch": 36,
              "velocity": 50,
              "position": 12.0,
              "duration": 1.05
            },
            {
              "pitch": 40,
              "velocity": 60,
              "position": 13.0,
              "duration": 1.033333
            },
            {
              "pitch": 43,
              "velocity": 58,
              "position": 14.0,
              "duration": 1.016667
            },
            {
              "pitch": 36,
              "velocity": 64,
              "position": 15.0,
              "duration": 0.9
            }
          ]
        },
        "11": {
          "ctab": {
            "srcChannel": 11,
            "name": "Piano",
            "accType": "CHORD1",
            "editable": true,
            "mutedNotes": [],
            "mutedChords": [],
            "sourceChordNote": 0,
            "sourceChordType": "Maj7",
            "ctb2Main": {
              "ntr": "ROOT_FIXED",
              "ntt": "CHORD",
              "bassOn": false,
              "noteLowLimit": 48,
              "noteHighLimit": 84,
              "chordRootUpperLimit": 127,
              "rtr": "NOTE_GENERATOR"
            }
          },
          "notes": [
            {
              "pitch": 90,
              "velocity": 94,
              "position": 0.033333,
              "duration": 0.116667
            },
            {
              "pitch": 98,
              "velocity": 84,
              "position": 0.041667,
              "duration": 0.491667
            },
            {
              "pitch": 91,
              "velocity": 68,
              "position": 0.066667,
              "duration": 0.2
            },
            {
              "pitch": 91,
              "velocity": 45,
              "position": 0.35,
              "duration": 0.166667
            },
            {
              "pitch": 91,
              "velocity": 70,
              "position": 0.683333,
              "duration": 0.158333
            },
            {
              "pitch": 98,
              "velocity": 64,
              "position": 0.683333,
              "duration": 0.175
            },
            {
              "pitch": 91,
              "velocity": 68,
              "position": 1.016667,
              "duration": 0.25
            },
            {
              "pitch": 98,
              "velocity": 64,
              "position": 1.016667,
              "duration": 0.45
            },
            {
              "pitch": 90,
              "velocity": 94,
              "position": 1.716667,
              "duration": 0.416667
            },
            {
              "pitch": 98,
              "velocity": 84,
              "position": 1.725,
              "duration": 0.791667
            },
            {
              "pitch": 91,
              "velocity": 68,
              "position": 1.75,
              "duration": 0.666667
            },
            {
              "pitch": 91,
              "velocity": 70,
              "position": 2.683333,
              "duration": 0.475
            },
            {
              "pitch": 98,
              "velocity": 64,
              "position": 2.683333,
              "duration": 0.416667
            },
            {
              "pitch": 90,
              "velocity": 94,
              "position": 4.033333,
              "duration": 0.116667
            },
            {
              "pitch": 98,
              "velocity": 84,
              "position": 4.041667,
              "duration": 0.491667
            },
            {
              "pitch": 91,
              "velocity": 68,
              "position": 4.066667,
              "duration": 0.2
            },
            {
              "pitch": 91,
              "velocity": 45,
              "position": 4.35,
              "duration": 0.166667
            },
            {
              "pitch": 91,
              "velocity": 70,
              "position": 4.683333,
              "duration": 0.158333
            },
            {
              "pitch": 98,
              "velocity": 64,
              "position": 4.683333,
              "duration": 0.175
            },
            {
              "pitch": 91,
              "velocity": 68,
              "position": 5.016667,
              "duration": 0.25
            },
            {
              "pitch": 98,
              "velocity": 64,
              "position": 5.016667,
              "duration": 0.45
            },
            {
              "pitch": 90,
              "velocity": 94,
              "position": 5.716667,
              "duration": 0.416667
            },
            {
              "pitch": 98,
              "velocity": 84,
              "position": 5.725,
              "duration": 0.791667
            },
            {
              "pitch": 91,
              "velocity": 68,
              "position": 5.75,
              "duration": 0.666667
            },
            {
              "pitch": 91,
              "velocity": 70,
              "position": 6.683333,
              "duration": 0.475
            },
            {
              "pitch": 98,
              "velocity": 64,
              "position": 6.683333,
              "duration": 0.416667
            },
            {
              "pitch": 90,
              "velocity": 94,
              "position": 8.033333,
              "duration": 0.116667
            },
            {
              "pitch": 98,
              "velocity": 84,
              "position": 8.041667,
              "duration": 0.491667
            },
            {
              "pitch": 91,
              "velocity": 68,
              "position": 8.066667,
              "duration": 0.2
            },
            {
              "pitch": 91,
              "velocity": 45,
              "position": 8.35,
              "duration": 0.166667
            },
            {
              "pitch": 91,
              "velocity": 70,
              "position": 8.683333,
              "duration": 0.158333
            },
            {
              "pitch": 98,
              "velocity": 64,
              "position": 8.683333,
              "duration": 0.175
            },
            {
              "pitch": 91,
              "velocity": 68,
              "position": 9.016667,
              "duration": 0.466667
            },
            {
              "pitch": 98,
              "velocity": 64,
              "position": 9.016667,
              "duration": 0.45
            },
            {
              "pitch": 91,
              "velocity": 73,
              "position": 9.683333,
              "duration": 0.141667
            },
            {
              "pitch": 95,
              "velocity": 71,
              "position": 9.683333,
              "duration": 0.158333
            },
            {
              "pitch": 87,
              "velocity": 68,
              "position": 10.041667,
              "duration": 0.125
            },
            {
              "pitch": 91,
              "velocity": 64,
              "position": 10.058333,
              "duration": 0.358333
            },
            {
              "pitch": 88,
              "velocity": 70,
              "position": 10.175,
              "duration": 0.241667
            },
            {
              "pitch": 86,
              "velocity": 51,
              "position": 10.625,
              "duration": 1.008333
            },
            {
              "pitch": 91,
              "velocity": 65,
              "position": 10.625,
              "duration": 1.033333
            },
            {
              "pitch": 90,
              "velocity": 90,
              "position": 12.641667,
              "duration": 0.075
            },
            {
              "pitch": 98,
              "velocity": 81,
              "position": 12.65,
              "duration": 0.208333
            },
            {
              "pitch": 91,
              "velocity": 64,
              "position": 12.658333,
              "duration": 0.233333
            },
            {
              "pitch": 98,
              "velocity": 73,
              "position": 13.0,
              "duration": 0.333333
            },
            {
              "pitch": 90,
              "velocity": 77,
              "position": 13.008333,
              "duration": 0.1
            },
            {
              "pitch": 91,
              "velocity": 71,
              "position": 13.075,
              "duration": 0.3
            },
            {
              "pitch": 91,
              "velocity": 64,
              "position": 13.608333,
              "duration": 0.166667
            },
            {
              "pitch": 95,
              "velocity": 59,
              "position": 13.608333,
              "duration": 0.166667
            },
            {
              "pitch": 87,
              "velocity": 79,
              "position": 14.016667,
              "duration": 0.283333
            },
            {
              "pitch": 91,
              "velocity": 66,
              "position": 14.041667,
              "duration": 0.333333
            },
            {
              "pitch": 88,
              "velocity": 64,
              "position": 14.15,
              "duration": 0.208333
            },
            {
              "pitch": 86,
              "velocity": 47,
              "position": 14.625,
              "duration": 0.758333
            },
            {
              "pitch": 88,
              "velocity": 55,
              "position": 14.625,
              "duration": 0.741667
            }
          ]
        },
        "12": {
          "ctab": {
            "srcChannel": 12,
            "name": "Guitar",
            "accType": "CHORD2",
            "editable": true,
            "mutedNotes": [],
            "mutedChords": [],
            "sourceChordNote": 0,
            "sourceChordType": "Maj7",
            "ctb2Main": {
              "ntr": "ROOT_FIXED",
              "ntt": "CHORD",
              "bassOn": false,
              "noteLowLimit": 40,
              "noteHighLimit": 76,
              "chordRootUpperLimit": 127,
              "rtr": "NOTE_GENERATOR"
            }
          },
          "notes": [
            {
              "pitch": 48,
              "velocity": 68,
              "position": 0.0,
              "duration": 0.341667
            },
            {
              "pitch": 54,
              "velocity": 32,
              "position": 0.0,
              "duration": 0.133333
            },
            {
              "pitch": 55,
              "velocity": 52,
              "position": 0.041667,
              "duration": 0.316667
            },
            {
              "pitch": 48,
              "velocity": 60,
              "position": 0.666667,
              "duration": 0.308333
            },
            {
              "pitch": 55,
              "velocity": 65,
              "position": 0.666667,
              "duration": 0.316667
            },
            {
              "pitch": 48,
              "velocity": 62,
              "position": 1.0,
              "duration": 0.275
            },
            {
              "pitch": 55,
              "velocity": 74,
              "position": 1.0,
              "duration": 0.283333
            },
            {
              "pitch": 48,
              "velocity": 59,
              "position": 1.666667,
              "duration": 0.291667
            },
            {
              "pitch": 55,
              "velocity": 68,
              "position": 1.666667,
              "duration": 0.275
            },
            {
              "pitch": 48,
              "velocity": 68,
              "position": 2.0,
              "duration": 0.341667
            },
            {
              "pitch": 54,
              "velocity": 32,
              "position": 2.0,
              "duration": 0.133333
            },
            {
              "pitch": 55,
              "velocity": 52,
              "position": 2.041667,
              "duration": 0.316667
            },
            {
              "pitch": 48,
              "velocity": 60,
              "position": 2.666667,
              "duration": 0.308333
            },
            {
              "pitch": 55,
              "velocity": 65,
              "position": 2.666667,
              "duration": 0.316667
            },
            {
              "pitch": 48,
              "velocity": 62,
              "position": 3.0,
              "duration": 0.275
            },
            {
              "pitch": 55,
              "velocity": 74,
              "position": 3.0,
              "duration": 0.283333
            },
            {
              "pitch": 48,
              "velocity": 59,
              "position": 3.666667,
              "duration": 0.291667
            },
            {
              "pitch": 55,
              "velocity": 68,
              "position": 3.666667,
              "duration": 0.275
            },
            {
              "pitch": 48,
              "velocity": 68,
              "position": 4.0,
              "duration": 0.341667
            },
            {
              "pitch": 54,
              "velocity": 32,
              "position": 4.0,
              "duration": 0.133333
            },
            {
              "pitch": 55,
              "velocity": 52,
              "position": 4.041667,
              "duration": 0.316667
            },
            {
              "pitch": 48,
              "velocity": 60,
              "position": 4.666667,
              "duration": 0.308333
            },
            {
              "pitch": 55,
              "velocity": 65,
              "position": 4.666667,
              "duration": 0.316667
            },
            {
              "pitch": 48,
              "velocity": 62,
              "position": 5.0,
              "duration": 0.275
            },
            {
              "pitch": 55,
              "velocity": 74,
              "position": 5.0,
              "duration": 0.283333
            },
            {
              "pitch": 48,
              "velocity": 59,
              "position": 5.666667,
              "duration": 0.291667
            },
            {
              "pitch": 55,
              "velocity": 68,
              "position": 5.666667,
              "duration": 0.275
            },
            {
              "pitch": 48,
              "velocity": 68,
              "position": 6.0,
              "duration": 0.341667
            },
            {
              "pitch": 54,
              "velocity": 32,
              "position": 6.0,
              "duration": 0.133333
            },
            {
              "pitch": 55,
              "velocity": 52,
              "position": 6.041667,
              "duration": 0.316667
            },
            {
              "pitch": 48,
              "velocity": 60,
              "position": 6.666667,
              "duration": 0.308333
            },
            {
              "pitch": 55,
              "velocity": 65,
              "position": 6.666667,
              "duration": 0.316667
            },
            {
              "pitch": 48,
              "velocity": 62,
              "position": 7.0,
              "duration": 0.275
            },
            {
              "pitch": 55,
              "velocity": 74,
              "position": 7.0,
              "duration": 0.283333
            },
            {
              "pitch": 48,
              "velocity": 59,
              "position": 7.666667,
              "duration": 0.291667
            },
            {
              "pitch": 55,
              "velocity": 68,
              "position": 7.666667,
              "duration": 0.275
            },
            {
              "pitch": 48,
              "velocity": 65,
              "position": 8.0,
              "duration": 0.341667
            },
            {
              "pitch": 54,
              "velocity": 29,
              "position": 8.0,
              "duration": 0.133333
            },
            {
              "pitch": 55,
              "velocity": 49,
              "position": 8.0,
              "duration": 0.316667
            },
            {
              "pitch": 48,
              "velocity": 57,
              "position": 8.666667,
              "duration": 0.233333
            },
            {
              "pitch": 55,
              "velocity": 62,
              "position": 8.666667,
              "duration": 0.3
            },
            {
              "pitch": 48,
              "velocity": 55,
              "position": 9.0,
              "duration": 0.275
            },
            {
              "pitch": 55,
              "velocity": 68,
              "position": 9.0,
              "duration": 0.283333
            },
            {
              "pitch": 48,
              "velocity": 56,
              "position": 9.666667,
              "duration": 0.375
            },
            {
              "pitch": 55,
              "velocity": 65,
              "position": 9.666667,
              "duration": 0.225
            },
            {
              "pitch": 55,
              "velocity": 65,
              "position": 10.0,
              "duration": 0.333333
            },
            {
              "pitch": 48,
              "velocity": 62,
              "position": 10.666667,
              "duration": 0.208333
            },
            {
              "pitch": 55,
              "velocity": 65,
              "position": 10.666667,
              "duration": 0.208333
            },
            {
              "pitch": 48,
              "velocity": 68,
              "position": 11.0,
              "duration": 0.333333
            },
            {
              "pitch": 55,
              "velocity": 83,
              "position": 11.0,
              "duration": 0.333333
            },
            {
              "pitch": 48,
              "velocity": 56,
              "position": 11.666667,
              "duration": 0.241667
            },
            {
              "pitch": 55,
              "velocity": 65,
              "position": 11.666667,
              "duration": 0.166667
            },
            {
              "pitch": 48,
              "velocity": 59,
              "position": 12.0,
              "duration": 0.333333
            },
            {
              "pitch": 54,
              "velocity": 51,
              "position": 12.0,
              "duration": 0.133333
            },
            {
              "pitch": 55,
              "velocity": 57,
              "position": 12.0,
              "duration": 0.333333
            },
            {
              "pitch": 48,
              "velocity": 59,
              "position": 12.666667,
              "duration": 0.216667
            },
            {
              "pitch": 55,
              "velocity": 61,
              "position": 12.666667,
              "duration": 0.275
            },
            {
              "pitch": 48,
              "velocity": 54,
              "position": 13.0,
              "duration": 0.308333
            },
            {
              "pitch": 55,
              "velocity": 60,
              "position": 13.0,
              "duration": 0.325
            },
            {
              "pitch": 48,
              "velocity": 62,
              "position": 13.666667,
              "duration": 0.208333
            },
            {
              "pitch": 55,
              "velocity": 74,
              "position": 13.666667,
              "duration": 0.216667
            },
            {
              "pitch": 48,
              "velocity": 55,
              "position": 14.0,
              "duration": 0.216667
            },
            {
              "pitch": 59,
              "velocity": 72,
              "position": 14.0,
              "duration": 0.2
            },
            {
              "pitch": 48,
              "velocity": 60,
              "position": 14.666667,
              "duration": 0.241667
            },
            {
              "pitch": 59,
              "velocity": 78,
              "position": 14.666667,
              "duration": 0.283333
            },
            {
              "pitch": 48,
              "velocity": 51,
              "position": 15.0,
              "duration": 0.283333
            },
            {
              "pitch": 55,
              "velocity": 64,
              "position": 15.0,
              "duration": 0.283333
            },
            {
              "pitch": 48,
              "velocity": 53,
              "position": 15.666667,
              "duration": 0.216667
            },
            {
              "pitch": 55,
              "velocity": 61,
              "position": 15.666667,
              "duration": 0.291667
            }
          ]
        },
        "13": {
          "ctab": {
            "srcChannel": 13,
            "name": "Strings",
            "accType": "PAD",
            "editable": true,
            "mutedNotes": [],
            "mutedChords": [],
            "sourceChordNote": 0,
            "sourceChordType": "Maj7",
            "ctb2Main": {
              "ntr": "ROOT_FIXED",
              "ntt": "MELODY",
              "bassOn": false,
              "noteLowLimit": 36,
              "noteHighLimit": 96,
              "chordRootUpperLimit": 127,
              "rtr": "PITCH_SHIFT"
            }
          },
          "notes": [
            {
              "pitch": 78,
              "velocity": 44,
              "position": 0.025,
              "duration": 0.116667
            },
            {
              "pitch": 71,
              "velocity": 46,
              "position": 0.033333,
              "duration": 1.925
            },
            {
              "pitch": 76,
              "velocity": 42,
              "position": 0.041667,
              "duration": 1.916667
            },
            {
              "pitch": 79,
              "velocity": 51,
              "position": 0.166667,
              "duration": 1.791667
            },
            {
              "pitch": 78,
              "velocity": 44,
              "position": 2.025,
              "duration": 0.116667
            },
            {
              "pitch": 71,
              "velocity": 46,
              "position": 2.033333,
              "duration": 1.925
            },
            {
              "pitch": 76,
              "velocity": 42,
              "position": 2.041667,
              "duration": 1.916667
            },
            {
              "pitch": 79,
              "velocity": 51,
              "position": 2.166667,
              "duration": 1.791667
            },
            {
              "pitch": 75,
              "velocity": 53,
              "position": 4.041667,
              "duration": 0.116667
            },
            {
              "pitch": 71,
              "velocity": 54,
              "position": 4.05,
              "duration": 0.425
            },
            {
              "pitch": 79,
              "velocity": 41,
              "position": 4.05,
              "duration": 0.458333
            },
            {
              "pitch": 76,
              "velocity": 49,
              "position": 4.125,
              "duration": 0.408333
            },
            {
              "pitch": 71,
              "velocity": 40,
              "position": 4.675,
              "duration": 0.925
            },
            {
              "pitch": 75,
              "velocity": 41,
              "position": 4.675,
              "duration": 0.091667
            },
            {
              "pitch": 79,
              "velocity": 31,
              "position": 4.691667,
              "duration": 0.908333
            },
            {
              "pitch": 76,
              "velocity": 50,
              "position": 4.75,
              "duration": 0.85
            },
            {
              "pitch": 71,
              "velocity": 46,
              "position": 5.683333,
              "duration": 2.258333
            },
            {
              "pitch": 76,
              "velocity": 42,
              "position": 5.683333,
              "duration": 2.258333
            },
            {
              "pitch": 78,
              "velocity": 48,
              "position": 5.683333,
              "duration": 0.416667
            },
            {
              "pitch": 79,
              "velocity": 52,
              "position": 5.741667,
              "duration": 2.2
            },
            {
              "pitch": 75,
              "velocity": 53,
              "position": 8.041667,
              "duration": 0.116667
            },
            {
              "pitch": 71,
              "velocity": 54,
              "position": 8.05,
              "duration": 0.425
            },
            {
              "pitch": 79,
              "velocity": 41,
              "position": 8.05,
              "duration": 0.458333
            },
            {
              "pitch": 76,
              "velocity": 49,
              "position": 8.125,
              "duration": 0.408333
            },
            {
              "pitch": 71,
              "velocity": 40,
              "position": 8.675,
              "duration": 3.116667
            },
            {
              "pitch": 75,
              "velocity": 41,
              "position": 8.675,
              "duration": 0.091667
            },
            {
              "pitch": 79,
              "velocity": 31,
              "position": 8.691667,
              "duration": 3.141667
            },
            {
              "pitch": 76,
              "velocity": 50,
              "position": 8.75,
              "duration": 2.958333
            },
            {
              "pitch": 67,
              "velocity": 33,
              "position": 12.008333,
              "duration": 0.3
            },
            {
              "pitch": 76,
              "velocity": 40,
              "position": 12.016667,
              "duration": 0.241667
            },
            {
              "pitch": 74,
              "velocity": 38,
              "position": 12.025,
              "duration": 0.258333
            },
            {
              "pitch": 74,
              "velocity": 36,
              "position": 12.633333,
              "duration": 3.075
            },
            {
              "pitch": 76,
              "velocity": 45,
              "position": 12.633333,
              "duration": 2.941667
            },
            {
              "pitch": 67,
              "velocity": 26,
              "position": 12.65,
              "duration": 3.133333
            }
          ]
        }
      }
    },
    "Fill_In_AA": {
      "type": "Fill_In_AA",
      "sizeInBeats": 16,
      "channels": {
        "9": {
          "ctab": {
            "srcChannel": 9,
            "name": "Drums",
            "accType": "RHYTHM",
            "editable": false,
            "mutedNotes": [],
            "mutedChords": [],
            "sourceChordNote": 0,
            "sourceChordType": "Maj",
            "ctb2Main": {
              "ntr": "ROOT_FIXED",
              "ntt": "BYPASS",
              "bassOn": false,
              "noteLowLimit": 20,
              "noteHighLimit": 127,
              "chordRootUpperLimit": 127,
              "rtr": "RETRIGGER"
            }
          },
          "notes": [
            {
              "pitch": 36,
              "velocity": 119,
              "position": 0.0,
              "duration": 0.1
            },
            {
              "pitch": 49,
              "velocity": 127,
              "position": 0.0,
              "duration": 0.091667
            },
            {
              "pitch": 36,
              "velocity": 91,
              "position": 0.666667,
              "duration": 0.091667
            },
            {
              "pitch": 51,
              "velocity": 72,
              "position": 0.666667,
              "duration": 0.108333
            },
            {
              "pitch": 38,
              "velocity": 127,
              "position": 1.0,
              "duration": 0.1
            },
            {
              "pitch": 51,
              "velocity": 122,
              "position": 1.0,
              "duration": 0.091667
            },
            {
              "pitch": 51,
              "velocity": 98,
              "position": 1.333333,
              "duration": 0.1
            },
            {
              "pitch": 36,
              "velocity": 86,
              "position": 1.666667,
              "duration": 0.033333
            },
            {
              "pitch": 51,
              "velocity": 116,
              "position": 1.666667,
              "duration": 0.091667
            },
            {
              "pitch": 36,
              "velocity": 92,
              "position": 2.0,
              "duration": 0.1
            },
            {
              "pitch": 51,
              "velocity": 127,
              "position": 2.0,
              "duration": 0.083333
            },
            {
              "pitch": 51,
              "velocity": 127,
              "position": 2.333333,
              "duration": 0.1
            },
            {
              "pitch": 36,
              "velocity": 89,
              "position": 2.666667,
              "duration": 0.083333
            },
            {
              "pitch": 51,
              "velocity": 86,
              "position": 2.666667,
              "duration": 0.1
            },
            {
              "pitch": 38,
              "velocity": 127,
              "position": 3.0,
              "duration": 0.091667
            },
            {
              "pitch": 51,
              "velocity": 127,
              "position": 3.0,
              "duration": 0.091667
            },
            {
              "pitch": 51,
              "velocity": 90,
              "position": 3.333333,
              "duration": 0.1
            },
            {
              "pitch": 36,
              "velocity": 92,
              "position": 3.666667,
              "duration": 0.1
            },
            {
              "pitch": 51,
              "velocity": 119,
              "position": 3.666667,
              "duration": 0.108333
            },
            {
              "pitch": 36,
              "velocity": 98,
              "position": 4.0,
              "duration": 0.041667
            },
            {
              "pitch": 51,
              "velocity": 103,
              "position": 4.0,
              "duration": 0.1
            },
            {
              "pitch": 51,
              "velocity": 127,
              "position": 4.333333,
              "duration": 0.1
            },
            {
              "pitch": 36,
              "velocity": 86,
              "position": 4.666667,
              "duration": 0.041667
            },
            {
              "pitch": 51,
              "velocity": 103,
              "position": 4.666667,
              "duration": 0.1
            },
            {
              "pitch": 38,
              "velocity": 127,
              "position": 5.0,
              "duration": 0.091667
            },
            {
              "pitch": 51,
              "velocity": 113,
              "position": 5.0,
              "duration": 0.091667
            },
            {
              "pitch": 51,
              "velocity": 101,
              "position": 5.333333,
              "duration": 0.083333
            },
            {
              "pitch": 36,
              "velocity": 95,
              "position": 5.666667,
              "duration": 0.1
            },
            {
              "pitch": 51,
              "velocity": 88,
              "position": 5.666667,
              "duration": 0.1
            },
            {
              "pitch": 36,
              "velocity": 104,
              "position": 6.0,
              "duration": 0.033333
            },
            {
              "pitch": 51,
              "velocity": 77,
              "position": 6.0,
              "duration": 0.091667
            },
            {
              "pitch": 51,
              "velocity": 93,
              "position": 6.35,
              "duration": 0.1
            },
            {
              "pitch": 51,
              "velocity": 106,
              "position": 6.658333,
              "duration": 0.1
            },
            {
              "pitch": 36,
              "velocity": 96,
              "position": 6.666667,
              "duration": 0.05
            },
            {
              "pitch": 38,
              "velocity": 127,
              "position": 6.991667,
              "duration": 0.091667
            },
            {
              "pitch": 51,
              "velocity": 119,
              "position": 7.0,
              "duration": 0.1
            },
            {
              "pitch": 51,
              "velocity": 98,
              "position": 7.333333,
              "duration": 0.1
            },
            {
              "pitch": 36,
              "velocity": 99,
              "position": 7.658333,
              "duration": 0.083333
            },
            {
              "pitch": 51,
              "velocity": 113,
              "position": 7.658333,
              "duration": 0.091667
            },
            {
              "pitch": 36,
              "velocity": 99,
              "position": 8.0,
              "duration": 0.041667
            },
            {
              "pitch": 51,
              "velocity": 114,
              "position": 8.0,
              "duration": 0.091667
            },
            {
              "pitch": 51,
              "velocity": 66,
              "position": 8.35,
              "duration": 0.083333
            },
            {
              "pitch": 51,
              "velocity": 105,
              "position": 8.658333,
              "duration": 0.083333
            },
            {
              "pitch": 36,
              "velocity": 92,
              "position": 8.666667,
              "duration": 0.041667
            },
            {
              "pitch": 38,
              "velocity": 127,
              "position": 9.0,
              "duration": 0.083333
            },
            {
              "pitch": 51,
              "velocity": 122,
              "position": 9.0,
              "duration": 0.1
            },
            {
              "pitch": 51,
              "velocity": 114,
              "position": 9.333333,
              "duration": 0.1
            },
            {
              "pitch": 36,
              "velocity": 98,
              "position": 9.666667,
              "duration": 0.033333
            },
            {
              "pitch": 51,
              "velocity": 111,
              "position": 9.666667,
              "duration": 0.1
            },
            {
              "pitch": 36,
              "velocity": 98,
              "position": 10.0,
              "duration": 0.041667
            },
            {
              "pitch": 51,
              "velocity": 127,
              "position": 10.0,
              "duration": 0.1
            },
            {
              "pitch": 51,
              "velocity": 113,
              "position": 10.333333,
              "duration": 0.091667
            },
            {
              "pitch": 36,
              "velocity": 99,
              "position": 10.666667,
              "duration": 0.033333
            },
            {
              "pitch": 51,
              "velocity": 95,
              "position": 10.666667,
              "duration": 0.091667
            },
            {
              "pitch": 38,
              "velocity": 127,
              "position": 11.0,
              "duration": 0.083333
            },
            {
              "pitch": 51,
              "velocity": 127,
              "position": 11.0,
              "duration": 0.083333
            },
            {
              "pitch": 51,
              "velocity": 90,
              "position": 11.333333,
              "duration": 0.1
            },
            {
              "pitch": 36,
              "velocity": 92,
              "position": 11.666667,
              "duration": 0.116667
            },
            {
              "pitch": 51,
              "velocity": 124,
              "position": 11.666667,
              "duration": 0.125
            },
            {
              "pitch": 36,
              "velocity": 61,
              "position": 12.0,
              "duration": 0.208333
            },
            {
              "pitch": 51,
              "velocity": 127,
              "position": 12.0,
              "duration": 0.208333
            },
            {
              "pitch": 51,
              "velocity": 69,
              "position": 12.333333,
              "duration": 0.208333
            },
            {
              "pitch": 36,
              "velocity": 99,
              "position": 12.666667,
              "duration": 0.208333
            },
            {
              "pitch": 51,
              "velocity": 96,
              "position": 12.666667,
              "duration": 0.208333
            },
            {
              "pitch": 40,
              "velocity": 127,
              "position": 13.0,
              "duration": 0.208333
            },
            {
              "pitch": 51,
              "velocity": 93,
              "position": 13.0,
              "duration": 0.208333
            },
            {
              "pitch": 51,
              "velocity": 74,
              "position": 13.333333,
              "duration": 0.208333
            },
            {
              "pitch": 38,
              "velocity": 127,
              "position": 13.666667,
              "duration": 0.208333
            },
            {
              "pitch": 51,
              "velocity": 122,
              "position": 13.666667,
              "duration": 0.208333
            },
            {
              "pitch": 36,
              "velocity": 113,
              "position": 14.0,
              "duration": 0.208333
            },
            {
              "pitch": 51,
              "velocity": 105,
              "position": 14.0,
              "duration": 0.208333
            },
            {
              "pitch": 38,
              "velocity": 127,
              "position": 14.333333,
              "duration": 0.208333
            },
            {
              "pitch": 51,
              "velocity": 98,
              "position": 14.333333,
              "duration": 0.208333
            },
            {
              "pitch": 38,
              "velocity": 127,
              "position": 14.666667,
              "duration": 0.208333
            },
            {
              "pitch": 48,
              "velocity": 82,
              "position": 14.666667,
              "duration": 0.208333
            },
            {
              "pitch": 40,
              "velocity": 127,
              "position": 15.0,
              "duration": 0.208333
            },
            {
              "pitch": 48,
              "velocity": 127,
              "position": 15.0,
              "duration": 0.208333
            },
            {
              "pitch": 38,
              "velocity": 127,
              "position": 15.333333,
              "duration": 0.208333
            },
            {
              "pitch": 45,
              "velocity": 87,
              "position": 15.333333,
              "duration": 0.208333
            },
            {
              "pitch": 41,
              "velocity": 126,
              "position": 15.666667,
              "duration": 0.208333
            }
          ]
        },
        "10": {
          "ctab": {
            "srcChannel": 10,
            "name": "Bass",
            "accType": "BASS",
            "editable": true,
            "mutedNotes": [],
            "mutedChords": [],
            "sourceChordNote": 0,
            "sourceChordType": "Maj7",
            "ctb2Main": {
              "ntr": "ROOT_TRANSPOSITION",
              "ntt": "BYPASS",
              "bassOn": true,
              "noteLowLimit": 20,
              "noteHighLimit": 60,
              "chordRootUpperLimit": 127,
              "rtr": "NOTE_GENERATOR"
            }
          },
          "notes": [
            {
              "pitch": 36,
              "velocity": 62,
              "position": 0.0,
              "duration": 0.9
            },
            {
              "pitch": 35,
              "velocity": 61,
              "position": 1.0,
              "duration": 0.858333
            },
            {
              "pitch": 36,
              "velocity": 62,
              "position": 2.0,
              "duration": 0.9
            },
            {
              "pitch": 40,
              "velocity": 61,
              "position": 3.0,
              "duration": 0.575
            },
            {
              "pitch": 43,
              "velocity": 70,
              "position": 3.683333,
              "duration": 0.258333
            },
            {
              "pitch": 36,
              "velocity": 62,
              "position": 4.0,
              "duration": 0.9
            },
            {
              "pitch": 43,
              "velocity": 61,
              "position": 5.0,
              "duration": 0.858333
            },
            {
              "pitch": 36,
              "velocity": 62,
              "position": 6.0,
              "duration": 0.9
            },
            {
              "pitch": 40,
              "velocity": 61,
              "position": 7.0,
              "duration": 0.575
            },
            {
              "pitch": 43,
              "velocity": 70,
              "position": 7.683333,
              "duration": 0.258333
            },
            {
              "pitch": 36,
              "velocity": 71,
              "position": 8.0,
              "duration": 0.983333
            },
            {
              "pitch": 40,
              "velocity": 59,
              "position": 9.0,
              "duration": 1.008333
            },
            {
              "pitch": 43,
              "velocity": 73,
              "position": 10.0,
              "duration": 1.05
            },
            {
              "pitch": 40,
              "velocity": 55,
              "position": 11.0,
              "duration": 0.6
            },
            {
              "pitch": 43,
              "velocity": 57,
              "position": 11.666667,
              "duration": 0.35
            },
            {
              "pitch": 36,
              "velocity": 50,
              "position": 12.0,
              "duration": 1.05
            },
            {
              "pitch": 40,
              "velocity": 60,
              "position": 13.0,
              "duration": 1.033333
            },
            {
              "pitch": 43,
              "velocity": 58,
              "position": 14.0,
              "duration": 1.016667
            },
            {
              "pitch": 36,
              "velocity": 64,
              "position": 15.0,
              "duration": 0.9
            }
          ]
        },
        "11": {
          "ctab": {
            "srcChannel": 11,
            "name": "Piano",
            "accType": "CHORD1",
            "editable": true,
            "mutedNotes": [],
            "mutedChords": [],
            "sourceChordNote": 0,
            "sourceChordType": "Maj7",
            "ctb2Main": {
              "ntr": "ROOT_FIXED",
              "ntt": "CHORD",
              "bassOn": false,
              "noteLowLimit": 48,
              "noteHighLimit": 84,
              "chordRootUpperLimit": 127,
              "rtr": "NOTE_GENERATOR"
            }
          },
          "notes": [
            {
              "pitch": 90,
              "velocity": 94,
              "position": 0.033333,
              "duration": 0.116667
            },
            {
              "pitch": 98,
              "velocity": 84,
              "position": 0.041667,
              "duration": 0.491667
            },
            {
              "pitch": 91,
              "velocity": 68,
              "position": 0.066667,
              "duration": 0.2
            },
            {
              "pitch": 91,
              "velocity": 45,
              "position": 0.35,
              "duration": 0.166667
            },
            {
              "pitch": 91,
              "velocity": 70,
              "position": 0.683333,
              "duration": 0.158333
            },
            {
              "pitch": 98,
              "velocity": 64,
              "position": 0.683333,
              "duration": 0.175
            },
            {
              "pitch": 91,
              "velocity": 68,
              "position": 1.016667,
              "duration": 0.466667
            },
            {
              "pitch": 98,
              "velocity": 64,
              "position": 1.016667,
              "duration": 0.45
            },
            {
              "pitch": 91,
              "velocity": 73,
              "position": 1.683333,
              "duration": 0.141667
            },
            {
              "pitch": 95,
              "velocity": 71,
              "position": 1.683333,
              "duration": 0.158333
            },
            {
              "pitch": 90,
              "velocity": 94,
              "position": 2.033333,
              "duration": 0.116667
            },
            {
              "pitch": 98,
              "velocity": 84,
              "position": 2.041667,
              "duration": 0.491667
            },
            {
              "pitch": 91,
              "velocity": 68,
              "position": 2.066667,
              "duration": 0.366667
            },
            {
              "pitch": 91,
              "velocity": 70,
              "position": 2.683333,
              "duration": 0.475
            },
            {
              "pitch": 98,
              "velocity": 64,
              "position": 2.683333,
              "duration": 0.416667
            },
            {
              "pitch": 90,
              "velocity": 94,
              "position": 4.033333,
              "duration": 0.116667
            },
            {
              "pitch": 98,
              "velocity": 84,
              "position": 4.041667,
              "duration": 0.491667
            },
            {
              "pitch": 91,
              "velocity": 68,
              "position": 4.066667,
              "duration": 0.2
            },
            {
              "pitch": 91,
              "velocity": 45,
              "position": 4.35,
              "duration": 0.166667
            },
            {
              "pitch": 91,
              "velocity": 70,
              "position": 4.683333,
              "duration": 0.158333
            },
            {
              "pitch": 98,
              "velocity": 64,
              "position": 4.683333,
              "duration": 0.175
            },
            {
              "pitch": 91,
              "velocity": 68,
              "position": 5.016667,
              "duration": 0.466667
            },
            {
              "pitch": 98,
              "velocity": 64,
              "position": 5.016667,
              "duration": 0.45
            },
            {
              "pitch": 91,
              "velocity": 73,
              "position": 5.683333,
              "duration": 0.141667
            },
            {
              "pitch": 95,
              "velocity": 71,
              "position": 5.683333,
              "duration": 0.158333
            },
            {
              "pitch": 90,
              "velocity": 94,
              "position": 6.033333,
              "duration": 0.116667
            },
            {
              "pitch": 98,
              "velocity": 84,
              "position": 6.041667,
              "duration": 0.491667
            },
            {
              "pitch": 91,
              "velocity": 68,
              "position": 6.066667,
              "duration": 0.366667
            },
            {
              "pitch": 91,
              "velocity": 70,
              "position": 6.683333,
              "duration": 0.475
            },
            {
              "pitch": 98,
              "velocity": 64,
              "position": 6.683333,
              "duration": 0.416667
            },
            {
              "pitch": 90,
              "velocity": 94,
              "position": 8.033333,
              "duration": 0.116667
            },
            {
              "pitch": 98,
              "velocity": 84,
              "position": 8.041667,
              "duration": 0.491667
            },
            {
              "pitch": 91,
              "velocity": 68,
              "position": 8.066667,
              "duration": 0.2
            },
            {
              "pitch": 91,
              "velocity": 45,
              "position": 8.35,
              "duration": 0.166667
            },
            {
              "pitch": 91,
              "velocity": 70,
              "position": 8.683333,
              "duration": 0.158333
            },
            {
              "pitch": 98,
              "velocity": 64,
              "position": 8.683333,
              "duration": 0.175
            },
            {
              "pitch": 91,
              "velocity": 68,
              "position": 9.016667,
              "duration": 0.466667
            },
            {
              "pitch": 98,
              "velocity": 64,
              "position": 9.016667,
              "duration": 0.45
            },
            {
              "pitch": 91,
              "velocity": 73,
              "position": 9.683333,
              "duration": 0.141667
            },
            {
              "pitch": 95,
              "velocity": 71,
              "position": 9.683333,
              "duration": 0.158333
            },
            {
              "pitch": 87,
              "velocity": 68,
              "position": 10.041667,
              "duration": 0.125
            },
            {
              "pitch": 91,
              "velocity": 64,
              "position": 10.058333,
              "duration": 0.358333
            },
            {
              "pitch": 88,
              "velocity": 70,
              "position": 10.175,
              "duration": 0.241667
            },
            {
              "pitch": 86,
              "velocity": 51,
              "position": 10.625,
              "duration": 1.008333
            },
            {
              "pitch": 91,
              "velocity": 65,
              "position": 10.625,
              "duration": 1.033333
            },
            {
              "pitch": 90,
              "velocity": 90,
              "position": 12.641667,
              "duration": 0.075
            },
            {
              "pitch": 98,
              "velocity": 81,
              "position": 12.65,
              "duration": 0.208333
            },
            {
              "pitch": 91,
              "velocity": 64,
              "position": 12.658333,
              "duration": 0.233333
            },
            {
              "pitch": 98,
              "velocity": 73,
              "position": 13.0,
              "duration": 0.333333
            },
            {
              "pitch": 90,
              "velocity": 77,
              "position": 13.008333,
              "duration": 0.1
            },
            {
              "pitch": 91,
              "velocity": 71,
              "position": 13.075,
              "duration": 0.3
            },
            {
              "pitch": 91,
              "velocity": 64,
              "position": 13.608333,
              "duration": 0.166667
            },
            {
              "pitch": 95,
              "velocity": 59,
              "position": 13.608333,
              "duration": 0.166667
            },
            {
              "pitch": 87,
              "velocity": 79,
              "position": 14.016667,
              "duration": 0.283333
            },
            {
              "pitch": 91,
              "velocity": 66,
              "position": 14.041667,
              "duration": 0.333333
            },
            {
              "pitch": 88,
              "velocity": 64,
              "position": 14.15,
              "duration": 0.208333
            },
            {
              "pitch": 86,
              "velocity": 47,
              "position": 14.625,
              "duration": 0.758333
            },
            {
              "pitch": 88,
              "velocity": 55,
              "position": 14.625,
              "duration": 0.741667
            }
          ]
        },
        "12": {
          "ctab": {
            "srcChannel": 12,
            "name": "Guitar",
            "accType": "CHORD2",
            "editable": true,
            "mutedNotes": [],
            "mutedChords": [],
            "sourceChordNote": 0,
            "sourceChordType": "Maj7",
            "ctb2Main": {
              "ntr": "ROOT_FIXED",
              "ntt": "CHORD",
              "bassOn": false,
              "noteLowLimit": 40,
              "noteHighLimit": 76,
              "chordRootUpperLimit": 127,
              "rtr": "NOTE_GENERATOR"
            }
          },
          "notes": [
            {
              "pitch": 48,
              "velocity": 68,
              "position": 0.0,
              "duration": 0.341667
            },
            {
              "pitch": 54,
              "velocity": 32,
              "position": 0.0,
              "duration": 0.133333
            },
            {
              "pitch": 55,
              "velocity": 52,
              "position": 0.041667,
              "duration": 0.316667
            },
            {
              "pitch": 48,
              "velocity": 60,
              "position": 0.666667,
              "duration": 0.308333
            },
            {
              "pitch": 55,
              "velocity": 65,
              "position": 0.666667,
              "duration": 0.316667
            },
            {
              "pitch": 48,
              "velocity": 62,
              "position": 1.0,
              "duration": 0.275
            },
            {
              "pitch": 55,
              "velocity": 74,
              "position": 1.0,
              "duration": 0.283333
            },
            {
              "pitch": 48,
              "velocity": 59,
              "position": 1.666667,
              "duration": 0.291667
            },
            {
              "pitch": 55,
              "velocity": 68,
              "position": 1.666667,
              "duration": 0.275
            },
            {
              "pitch": 48,
              "velocity": 68,
              "position": 2.0,
              "duration": 0.341667
            },
            {
              "pitch": 54,
              "velocity": 32,
              "position": 2.0,
              "duration": 0.133333
            },
            {
              "pitch": 55,
              "velocity": 52,
              "position": 2.041667,
              "duration": 0.316667
            },
            {
              "pitch": 48,
              "velocity": 60,
              "position": 2.666667,
              "duration": 0.308333
            },
            {
              "pitch": 55,
              "velocity": 65,
              "position": 2.666667,
              "duration": 0.316667
            },
            {
              "pitch": 48,
              "velocity": 62,
              "position": 3.0,
              "duration": 0.275
            },
            {
              "pitch": 55,
              "velocity": 74,
              "position": 3.0,
              "duration": 0.283333
            },
            {
              "pitch": 48,
              "velocity": 59,
              "position": 3.666667,
              "duration": 0.291667
            },
            {
              "pitch": 55,
              "velocity": 68,
              "position": 3.666667,
              "duration": 0.275
            },
            {
              "pitch": 48,
              "velocity": 68,
              "position": 4.0,
              "duration": 0.341667
            },
            {
              "pitch": 54,
              "velocity": 32,
              "position": 4.0,
              "duration": 0.133333
            },
            {
              "pitch": 55,
              "velocity": 52,
              "position": 4.041667,
              "duration": 0.316667
            },
            {
              "pitch": 48,
              "velocity": 60,
              "position": 4.666667,
              "duration": 0.308333
            },
            {
              "pitch": 55,
              "velocity": 65,
              "position": 4.666667,
              "duration": 0.316667
            },
            {
              "pitch": 48,
              "velocity": 62,
              "position": 5.0,
              "duration": 0.275
            },
            {
              "pitch": 55,
              "velocity": 74,
              "position": 5.0,
              "duration": 0.283333
            },
            {
              "pitch": 48,
              "velocity": 59,
              "position": 5.666667,
              "duration": 0.291667
            },
            {
              "pitch": 55,
              "velocity": 68,
              "position": 5.666667,
              "duration": 0.275
            },
            {
              "pitch": 48,
              "velocity": 68,
              "position": 6.0,
              "duration": 0.341667
            },
            {
              "pitch": 54,
              "velocity": 32,
              "position": 6.0,
              "duration": 0.133333
            },
            {
              "pitch": 55,
              "velocity": 52,
              "position": 6.041667,
              "duration": 0.316667
            },
            {
              "pitch": 48,
              "velocity": 60,
              "position": 6.666667,
              "duration": 0.308333
            },
            {
              "pitch": 55,
              "velocity": 65,
              "position": 6.666667,
              "duration": 0.316667
            },
            {
              "pitch": 48,
              "velocity": 62,
              "position": 7.0,
              "duration": 0.275
            },
            {
              "pitch": 55,
              "velocity": 74,
              "position": 7.0,
              "duration": 0.283333
            },
            {
              "pitch": 48,
              "velocity": 59,
              "position": 7.666667,
              "duration": 0.291667
            },
            {
              "pitch": 55,
              "velocity": 68,
              "position": 7.666667,
              "duration": 0.275
            },
            {
              "pitch": 48,
              "velocity": 65,
              "position": 8.0,
              "duration": 0.341667
            },
            {
              "pitch": 54,
              "velocity": 29,
              "position": 8.0,
              "duration": 0.133333
            },
            {
              "pitch": 55,
              "velocity": 49,
              "position": 8.0,
              "duration": 0.316667
            },
            {
              "pitch": 48,
              "velocity": 57,
              "position": 8.666667,
              "duration": 0.233333
            },
            {
              "pitch": 55,
              "velocity": 62,
              "position": 8.666667,
              "duration": 0.3
            },
            {
              "pitch": 48,
              "velocity": 55,
              "position": 9.0,
              "duration": 0.275
            },
            {
              "pitch": 55,
              "velocity": 68,
              "position": 9.0,
              "duration": 0.283333
            },
            {
              "pitch": 48,
              "velocity": 56,
              "position": 9.666667,
              "duration": 0.375
            },
            {
              "pitch": 55,
              "velocity": 65,
              "position": 9.666667,
              "duration": 0.225
            },
            {
              "pitch": 55,
              "velocity": 65,
              "position": 10.0,
              "duration": 0.333333
            },
            {
              "pitch": 48,
              "velocity": 62,
              "position": 10.666667,
              "duration": 0.208333
            },
            {
              "pitch": 55,
              "velocity": 65,
              "position": 10.666667,
              "duration": 0.208333
            },
            {
              "pitch": 48,
              "velocity": 68,
              "position": 11.0,
              "duration": 0.333333
            },
            {
              "pitch": 55,
              "velocity": 83,
              "position": 11.0,
              "duration": 0.333333
            },
            {
              "pitch": 48,
              "velocity": 56,
              "position": 11.666667,
              "duration": 0.241667
            },
            {
              "pitch": 55,
              "velocity": 65,
              "position": 11.666667,
              "duration": 0.166667
            },
            {
              "pitch": 48,
              "velocity": 59,
              "position": 12.0,
              "duration": 0.333333
            },
            {
              "pitch": 54,
              "velocity": 51,
              "position": 12.0,
              "duration": 0.133333
            },
            {
              "pitch": 55,
              "velocity": 57,
              "position": 12.0,
              "duration": 0.333333
            },
            {
              "pitch": 48,
              "velocity": 59,
              "position": 12.666667,
              "duration": 0.216667
            },
            {
              "pitch": 55,
              "velocity": 61,
              "position": 12.666667,
              "duration": 0.275
            },
            {
              "pitch": 48,
              "velocity": 54,
              "position": 13.0,
              "duration": 0.308333
            },
            {
              "pitch": 55,
              "velocity": 60,
              "position": 13.0,
              "duration": 0.325
            },
            {
              "pitch": 48,
              "velocity": 62,
              "position": 13.666667,
              "duration": 0.208333
            },
            {
              "pitch": 55,
              "velocity": 74,
              "position": 13.666667,
              "duration": 0.216667
            },
            {
              "pitch": 48,
              "velocity": 55,
              "position": 14.0,
              "duration": 0.216667
            },
            {
              "pitch": 59,
              "velocity": 72,
              "position": 14.0,
              "duration": 0.2
            },
            {
              "pitch": 48,
              "velocity": 60,
              "position": 14.666667,
              "duration": 0.241667
            },
            {
              "pitch": 59,
              "velocity": 78,
              "position": 14.666667,
              "duration": 0.283333
            },
            {
              "pitch": 48,
              "velocity": 51,
              "position": 15.0,
              "duration": 0.283333
            },
            {
              "pitch": 55,
              "velocity": 64,
              "position": 15.0,
              "duration": 0.283333
            },
            {
              "pitch": 48,
              "velocity": 53,
              "position": 15.666667,
              "duration": 0.216667
            },
            {
              "pitch": 55,
              "velocity": 61,
              "position": 15.666667,
              "duration": 0.291667
            }
          ]
        },
        "13": {
          "ctab": {
            "srcChannel": 13,
            "name": "Strings",
            "accType": "PAD",
            "editable": true,
            "mutedNotes": [],
            "mutedChords": [],
            "sourceChordNote": 0,
            "sourceChordType": "Maj7",
            "ctb2Main": {
              "ntr": "ROOT_FIXED",
              "ntt": "MELODY",
              "bassOn": false,
              "noteLowLimit": 36,
              "noteHighLimit": 96,
              "chordRootUpperLimit": 127,
              "rtr": "PITCH_SHIFT"
            }
          },
          "notes": [
            {
              "pitch": 78,
              "velocity": 44,
              "position": 0.025,
              "duration": 0.116667
            },
            {
              "pitch": 71,
              "velocity": 46,
              "position": 0.033333,
              "duration": 1.925
            },
            {
              "pitch": 76,
              "velocity": 42,
              "position": 0.041667,
              "duration": 1.916667
            },
            {
              "pitch": 79,
              "velocity": 51,
              "position": 0.166667,
              "duration": 1.791667
            },
            {
              "pitch": 78,
              "velocity": 44,
              "position": 2.025,
              "duration": 0.116667
            },
            {
              "pitch": 71,
              "velocity": 46,
              "position": 2.033333,
              "duration": 1.925
            },
            {
              "pitch": 76,
              "velocity": 42,
              "position": 2.041667,
              "duration": 1.916667
            },
            {
              "pitch": 79,
              "velocity": 51,
              "position": 2.166667,
              "duration": 1.791667
            },
            {
              "pitch": 75,
              "velocity": 53,
              "position": 4.041667,
              "duration": 0.116667
            },
            {
              "pitch": 71,
              "velocity": 54,
              "position": 4.05,
              "duration": 0.425
            },
            {
              "pitch": 79,
              "velocity": 41,
              "position": 4.05,
              "duration": 0.458333
            },
            {
              "pitch": 76,
              "velocity": 49,
              "position": 4.125,
              "duration": 0.408333
            },
            {
              "pitch": 71,
              "velocity": 40,
              "position": 4.675,
              "duration": 1.325
            },
            {
              "pitch": 75,
              "velocity": 41,
              "position": 4.675,
              "duration": 0.091667
            },
            {
              "pitch": 79,
              "velocity": 31,
              "position": 4.691667,
              "duration": 1.308333
            },
            {
              "pitch": 76,
              "velocity": 50,
              "position": 4.75,
              "duration": 1.25
            },
            {
              "pitch": 71,
              "velocity": 46,
              "position": 6.0,
              "duration": 1.958333
            },
            {
              "pitch": 76,
              "velocity": 42,
              "position": 6.0,
              "duration": 1.958333
            },
            {
              "pitch": 78,
              "velocity": 48,
              "position": 6.0,
              "duration": 0.116667
            },
            {
              "pitch": 79,
              "velocity": 52,
              "position": 6.058333,
              "duration": 1.9
            },
            {
              "pitch": 75,
              "velocity": 53,
              "position": 8.041667,
              "duration": 0.116667
            },
            {
              "pitch": 71,
              "velocity": 54,
              "position": 8.05,
              "duration": 0.425
            },
            {
              "pitch": 79,
              "velocity": 41,
              "position": 8.05,
              "duration": 0.458333
            },
            {
              "pitch": 76,
              "velocity": 49,
              "position": 8.125,
              "duration": 0.408333
            },
            {
              "pitch": 71,
              "velocity": 40,
              "position": 8.675,
              "duration": 3.116667
            },
            {
              "pitch": 75,
              "velocity": 41,
              "position": 8.675,
              "duration": 0.091667
            },
            {
              "pitch": 79,
              "velocity": 31,
              "position": 8.691667,
              "duration": 3.141667
            },
            {
              "pitch": 76,
              "velocity": 50,
              "position": 8.75,
              "duration": 2.958333
            },
            {
              "pitch": 67,
              "velocity": 33,
              "position": 12.008333,
              "duration": 0.3
            },
            {
              "pitch": 76,
              "velocity": 40,
              "position": 12.016667,
              "duration": 0.241667
            },
            {
              "pitch": 74,
              "velocity": 38,
              "position": 12.025,
              "duration": 0.258333
            },
            {
              "pitch": 74,
              "velocity": 36,
              "position": 12.633333,
              "duration": 3.075
            },
            {
              "pitch": 76,
              "velocity": 45,
              "position": 12.633333,
              "duration": 2.941667
            },
            {
              "pitch": 67,
              "velocity": 26,
              "position": 12.65,
              "duration": 3.133333
            }
          ]
        }
      }
    },
    "Ending_A": {
      "type": "Ending_A",
      "sizeInBeats": 16,
      "channels": {
        "9": {
          "ctab": {
            "srcChannel": 9,
            "name": "Drums",
            "accType": "RHYTHM",
            "editable": false,
            "mutedNotes": [],
            "mutedChords": [],
            "sourceChordNote": 0,
            "sourceChordType": "Maj",
            "ctb2Main": {
              "ntr": "ROOT_FIXED",
              "ntt": "BYPASS",
              "bassOn": false,
              "noteLowLimit": 20,
              "noteHighLimit": 127,
              "chordRootUpperLimit": 127,
              "rtr": "RETRIGGER"
            }
          },
          "notes": [
            {
              "pitch": 36,
              "velocity": 85,
              "position": 0.0,
              "duration": 0.091667
            },
            {
              "pitch": 49,
              "velocity": 127,
              "position": 0.0,
              "duration": 0.1
            },
            {
              "pitch": 51,
              "velocity": 82,
              "position": 0.0,
              "duration": 0.1
            },
            {
              "pitch": 51,
              "velocity": 66,
              "position": 0.333333,
              "duration": 0.1
            },
            {
              "pitch": 51,
              "velocity": 75,
              "position": 0.666667,
              "duration": 0.091667
            },
            {
              "pitch": 38,
              "velocity": 127,
              "position": 1.0,
              "duration": 0.083333
            },
            {
              "pitch": 51,
              "velocity": 93,
              "position": 1.0,
              "duration": 0.091667
            },
            {
              "pitch": 51,
              "velocity": 81,
              "position": 1.333333,
              "duration": 0.091667
            },
            {
              "pitch": 51,
              "velocity": 75,
              "position": 1.666667,
              "duration": 0.1
            },
            {
              "pitch": 36,
              "velocity": 83,
              "position": 2.0,
              "duration": 0.108333
            },
            {
              "pitch": 51,
              "velocity": 80,
              "position": 2.0,
              "duration": 0.116667
            },
            {
              "pitch": 51,
              "velocity": 86,
              "position": 2.333333,
              "duration": 0.091667
            },
            {
              "pitch": 51,
              "velocity": 74,
              "position": 2.666667,
              "duration": 0.091667
            },
            {
              "pitch": 38,
              "velocity": 106,
              "position": 3.0,
              "duration": 0.1
            },
            {
              "pitch": 51,
              "velocity": 92,
              "position": 3.0,
              "duration": 0.1
            },
            {
              "pitch": 51,
              "velocity": 81,
              "position": 3.333333,
              "duration": 0.083333
            },
            {
              "pitch": 51,
              "velocity": 79,
              "position": 3.666667,
              "duration": 0.083333
            },
            {
              "pitch": 36,
              "velocity": 80,
              "position": 4.0,
              "duration": 0.091667
            },
            {
              "pitch": 51,
              "velocity": 75,
              "position": 4.0,
              "duration": 0.1
            },
            {
              "pitch": 51,
              "velocity": 81,
              "position": 4.333333,
              "duration": 0.091667
            },
            {
              "pitch": 51,
              "velocity": 89,
              "position": 4.666667,
              "duration": 0.091667
            },
            {
              "pitch": 38,
              "velocity": 127,
              "position": 5.0,
              "duration": 0.091667
            },
            {
              "pitch": 51,
              "velocity": 67,
              "position": 5.0,
              "duration": 0.091667
            },
            {
              "pitch": 51,
              "velocity": 93,
              "position": 5.333333,
              "duration": 0.1
            },
            {
              "pitch": 51,
              "velocity": 79,
              "position": 5.666667,
              "duration": 0.083333
            },
            {
              "pitch": 36,
              "velocity": 76,
              "position": 6.0,
              "duration": 0.091667
            },
            {
              "pitch": 51,
              "velocity": 72,
              "position": 6.0,
              "duration": 0.1
            },
            {
              "pitch": 51,
              "velocity": 66,
              "position": 6.333333,
              "duration": 0.083333
            },
            {
              "pitch": 51,
              "velocity": 66,
              "position": 6.666667,
              "duration": 0.1
            },
            {
              "pitch": 38,
              "velocity": 127,
              "position": 7.0,
              "duration": 0.091667
            },
            {
              "pitch": 51,
              "velocity": 88,
              "position": 7.0,
              "duration": 0.091667
            },
            {
              "pitch": 51,
              "velocity": 80,
              "position": 7.333333,
              "duration": 0.091667
            },
            {
              "pitch": 38,
              "velocity": 36,
              "position": 7.65,
              "duration": 0.1
            },
            {
              "pitch": 36,
              "velocity": 76,
              "position": 7.666667,
              "duration": 0.091667
            },
            {
              "pitch": 51,
              "velocity": 95,
              "position": 7.666667,
              "duration": 0.091667
            },
            {
              "pitch": 36,
              "velocity": 74,
              "position": 8.0,
              "duration": 0.091667
            },
            {
              "pitch": 49,
              "velocity": 122,
              "position": 8.0,
              "duration": 0.05
            },
            {
              "pitch": 36,
              "velocity": 68,
              "position": 8.658333,
              "duration": 0.1
            },
            {
              "pitch": 51,
              "velocity": 75,
              "position": 8.658333,
              "duration": 0.091667
            },
            {
              "pitch": 38,
              "velocity": 121,
              "position": 9.0,
              "duration": 0.091667
            },
            {
              "pitch": 51,
              "velocity": 96,
              "position": 9.0,
              "duration": 0.083333
            },
            {
              "pitch": 51,
              "velocity": 89,
              "position": 9.333333,
              "duration": 0.091667
            },
            {
              "pitch": 36,
              "velocity": 65,
              "position": 9.666667,
              "duration": 0.1
            },
            {
              "pitch": 51,
              "velocity": 77,
              "position": 9.666667,
              "duration": 0.1
            },
            {
              "pitch": 36,
              "velocity": 68,
              "position": 10.0,
              "duration": 0.091667
            },
            {
              "pitch": 51,
              "velocity": 75,
              "position": 10.0,
              "duration": 0.1
            },
            {
              "pitch": 51,
              "velocity": 72,
              "position": 10.333333,
              "duration": 0.091667
            },
            {
              "pitch": 36,
              "velocity": 67,
              "position": 10.658333,
              "duration": 0.091667
            },
            {
              "pitch": 51,
              "velocity": 84,
              "position": 10.666667,
              "duration": 0.1
            },
            {
              "pitch": 38,
              "velocity": 111,
              "position": 10.991667,
              "duration": 0.091667
            },
            {
              "pitch": 51,
              "velocity": 121,
              "position": 10.991667,
              "duration": 0.091667
            },
            {
              "pitch": 51,
              "velocity": 72,
              "position": 11.333333,
              "duration": 0.1
            },
            {
              "pitch": 36,
              "velocity": 64,
              "position": 11.658333,
              "duration": 0.083333
            },
            {
              "pitch": 51,
              "velocity": 92,
              "position": 11.658333,
              "duration": 0.091667
            },
            {
              "pitch": 36,
              "velocity": 71,
              "position": 12.0,
              "duration": 0.208333
            },
            {
              "pitch": 51,
              "velocity": 100,
              "position": 12.0,
              "duration": 0.208333
            },
            {
              "pitch": 51,
              "velocity": 70,
              "position": 12.333333,
              "duration": 0.208333
            },
            {
              "pitch": 38,
              "velocity": 127,
              "position": 12.666667,
              "duration": 0.208333
            },
            {
              "pitch": 51,
              "velocity": 119,
              "position": 12.666667,
              "duration": 0.208333
            },
            {
              "pitch": 36,
              "velocity": 74,
              "position": 13.0,
              "duration": 0.208333
            },
            {
              "pitch": 51,
              "velocity": 108,
              "position": 13.0,
              "duration": 0.208333
            },
            {
              "pitch": 51,
              "velocity": 81,
              "position": 13.333333,
              "duration": 0.208333
            },
            {
              "pitch": 38,
              "velocity": 127,
              "position": 13.666667,
              "duration": 0.208333
            },
            {
              "pitch": 51,
              "velocity": 124,
              "position": 13.666667,
              "duration": 0.208333
            },
            {
              "pitch": 36,
              "velocity": 70,
              "position": 14.0,
              "duration": 0.208333
            },
            {
              "pitch": 51,
              "velocity": 82,
              "position": 14.0,
              "duration": 0.208333
            },
            {
              "pitch": 51,
              "velocity": 66,
              "position": 14.333333,
              "duration": 0.208333
            },
            {
              "pitch": 38,
              "velocity": 127,
              "position": 14.666667,
              "duration": 0.208333
            },
            {
              "pitch": 51,
              "velocity": 93,
              "position": 14.666667,
              "duration": 0.208333
            },
            {
              "pitch": 36,
              "velocity": 100,
              "position": 15.0,
              "duration": 0.208333
            },
            {
              "pitch": 51,
              "velocity": 70,
              "position": 15.0,
              "duration": 0.208333
            },
            {
              "pitch": 38,
              "velocity": 100,
              "position": 15.333333,
              "duration": 0.208333
            },
            {
              "pitch": 51,
              "velocity": 79,
              "position": 15.333333,
              "duration": 0.208333
            },
            {
              "pitch": 38,
              "velocity": 126,
              "position": 15.666667,
              "duration": 0.208333
            },
            {
              "pitch": 51,
              "velocity": 85,
              "position": 15.666667,
              "duration": 0.208333
            }
          ]
        },
        "10": {
          "ctab": {
            "srcChannel": 10,
            "name": "Bass",
            "accType": "BASS",
            "editable": true,
            "mutedNotes": [],
            "mutedChords": [],
            "sourceChordNote": 0,
            "sourceChordType": "Maj7",
            "ctb2Main": {
              "ntr": "ROOT_TRANSPOSITION",
              "ntt": "BYPASS",
              "bassOn": true,
              "noteLowLimit": 20,
              "noteHighLimit": 60,
              "chordRootUpperLimit": 127,
              "rtr": "NOTE_GENERATOR"
            }
          },
          "notes": [
            {
              "pitch": 36,
              "velocity": 62,
              "position": 0.0,
              "duration": 0.9
            },
            {
              "pitch": 43,
              "velocity": 61,
              "position": 1.0,
              "duration": 0.858333
            },
            {
              "pitch": 36,
              "velocity": 62,
              "position": 2.0,
              "duration": 0.9
            },
            {
              "pitch": 36,
              "velocity": 61,
              "position": 3.0,
              "duration": 0.858333
            },
            {
              "pitch": 36,
              "velocity": 62,
              "position": 4.0,
              "duration": 0.9
            },
            {
              "pitch": 36,
              "velocity": 61,
              "position": 5.0,
              "duration": 0.858333
            },
            {
              "pitch": 36,
              "velocity": 62,
              "position": 6.0,
              "duration": 0.9
            },
            {
              "pitch": 36,
              "velocity": 61,
              "position": 7.0,
              "duration": 0.858333
            },
            {
              "pitch": 48,
              "velocity": 62,
              "position": 8.0,
              "duration": 0.9
            },
            {
              "pitch": 43,
              "velocity": 61,
              "position": 9.0,
              "duration": 1.008333
            },
            {
              "pitch": 40,
              "velocity": 74,
              "position": 10.0,
              "duration": 0.858333
            },
            {
              "pitch": 36,
              "velocity": 88,
              "position": 11.0,
              "duration": 0.833333
            },
            {
              "pitch": 36,
              "velocity": 62,
              "position": 12.0,
              "duration": 0.9
            },
            {
              "pitch": 40,
              "velocity": 61,
              "position": 13.0,
              "duration": 1.008333
            },
            {
              "pitch": 43,
              "velocity": 74,
              "position": 14.0,
              "duration": 0.858333
            },
            {
              "pitch": 40,
              "velocity": 88,
              "position": 15.0,
              "duration": 0.558333
            },
            {
              "pitch": 43,
              "velocity": 51,
              "position": 15.658333,
              "duration": 0.3
            }
          ]
        },
        "11": {
          "ctab": {
            "srcChannel": 11,
            "name": "Piano",
            "accType": "CHORD1",
            "editable": true,
            "mutedNotes": [],
            "mutedChords": [],
            "sourceChordNote": 0,
            "sourceChordType": "Maj7",
            "ctb2Main": {
              "ntr": "ROOT_FIXED",
              "ntt": "CHORD",
              "bassOn": false,
              "noteLowLimit": 48,
              "noteHighLimit": 84,
              "chordRootUpperLimit": 127,
              "rtr": "NOTE_GENERATOR"
            }
          },
          "notes": []
        },
        "12": {
          "ctab": {
            "srcChannel": 12,
            "name": "Guitar",
            "accType": "CHORD2",
            "editable": true,
            "mutedNotes": [],
            "mutedChords": [],
            "sourceChordNote": 0,
            "sourceChordType": "Maj7",
            "ctb2Main": {
              "ntr": "ROOT_FIXED",
              "ntt": "CHORD",
              "bassOn": false,
              "noteLowLimit": 40,
              "noteHighLimit": 76,
              "chordRootUpperLimit": 127,
              "rtr": "NOTE_GENERATOR"
            }
          },
          "notes": [
            {
              "pitch": 48,
              "velocity": 68,
              "position": 0.0,
              "duration": 0.341667
            },
            {
              "pitch": 54,
              "velocity": 32,
              "position": 0.0,
              "duration": 0.133333
            },
            {
              "pitch": 55,
              "velocity": 52,
              "position": 0.041667,
              "duration": 0.316667
            },
            {
              "pitch": 48,
              "velocity": 60,
              "position": 0.666667,
              "duration": 0.308333
            },
            {
              "pitch": 55,
              "velocity": 65,
              "position": 0.666667,
              "duration": 0.316667
            },
            {
              "pitch": 48,
              "velocity": 62,
              "position": 1.0,
              "duration": 0.275
            },
            {
              "pitch": 55,
              "velocity": 74,
              "position": 1.0,
              "duration": 0.283333
            },
            {
              "pitch": 48,
              "velocity": 59,
              "position": 1.666667,
              "duration": 0.291667
            },
            {
              "pitch": 55,
              "velocity": 68,
              "position": 1.666667,
              "duration": 0.275
            },
            {
              "pitch": 48,
              "velocity": 68,
              "position": 2.0,
              "duration": 0.341667
            },
            {
              "pitch": 54,
              "velocity": 32,
              "position": 2.0,
              "duration": 0.133333
            },
            {
              "pitch": 55,
              "velocity": 52,
              "position": 2.041667,
              "duration": 0.316667
            },
            {
              "pitch": 48,
              "velocity": 60,
              "position": 2.666667,
              "duration": 0.308333
            },
            {
              "pitch": 55,
              "velocity": 65,
              "position": 2.666667,
              "duration": 0.316667
            },
            {
              "pitch": 48,
              "velocity": 62,
              "position": 3.0,
              "duration": 0.275
            },
            {
              "pitch": 55,
              "velocity": 74,
              "position": 3.0,
              "duration": 0.283333
            },
            {
              "pitch": 48,
              "velocity": 59,
              "position": 3.666667,
              "duration": 0.291667
            },
            {
              "pitch": 55,
              "velocity": 68,
              "position": 3.666667,
              "duration": 0.275
            },
            {
              "pitch": 48,
              "velocity": 68,
              "position": 4.0,
              "duration": 0.341667
            },
            {
              "pitch": 54,
              "velocity": 32,
              "position": 4.0,
              "duration": 0.133333
            },
            {
              "pitch": 55,
              "velocity": 52,
              "position": 4.041667,
              "duration": 0.316667
            },
            {
              "pitch": 48,
              "velocity": 60,
              "position": 4.666667,
              "duration": 0.308333
            },
            {
              "pitch": 55,
              "velocity": 65,
              "position": 4.666667,
              "duration": 0.316667
            },
            {
              "pitch": 48,
              "velocity": 62,
              "position": 5.0,
              "duration": 0.275
            },
            {
              "pitch": 55,
              "velocity": 74,
              "position": 5.0,
              "duration": 0.283333
            },
            {
              "pitch": 48,
              "velocity": 59,
              "position": 5.666667,
              "duration": 0.291667
            },
            {
              "pitch": 55,
              "velocity": 68,
              "position": 5.666667,
              "duration": 0.275
            },
            {
              "pitch": 48,
              "velocity": 68,
              "position": 6.0,
              "duration": 0.341667
            },
            {
              "pitch": 54,
              "velocity": 32,
              "position": 6.0,
              "duration": 0.133333
            },
            {
              "pitch": 55,
              "velocity": 52,
              "position": 6.041667,
              "duration": 0.316667
            },
            {
              "pitch": 48,
              "velocity": 60,
              "position": 6.666667,
              "duration": 0.308333
            },
            {
              "pitch": 55,
              "velocity": 65,
              "position": 6.666667,
              "duration": 0.316667
            },
            {
              "pitch": 48,
              "velocity": 62,
              "position": 7.0,
              "duration": 0.275
            },
            {
              "pitch": 55,
              "velocity": 74,
              "position": 7.0,
              "duration": 0.283333
            },
            {
              "pitch": 48,
              "velocity": 59,
              "position": 7.666667,
              "duration": 0.291667
            },
            {
              "pitch": 55,
              "velocity": 68,
              "position": 7.666667,
              "duration": 0.275
            },
            {
              "pitch": 48,
              "velocity": 64,
              "position": 8.0,
              "duration": 0.566667
            },
            {
              "pitch": 54,
              "velocity": 28,
              "position": 8.0,
              "duration": 0.133333
            },
            {
              "pitch": 55,
              "velocity": 48,
              "position": 8.0,
              "duration": 0.458333
            },
            {
              "pitch": 48,
              "velocity": 56,
              "position": 8.666667,
              "duration": 0.333333
            },
            {
              "pitch": 55,
              "velocity": 61,
              "position": 8.666667,
              "duration": 0.333333
            },
            {
              "pitch": 48,
              "velocity": 55,
              "position": 9.675,
              "duration": 0.3
            },
            {
              "pitch": 55,
              "velocity": 64,
              "position": 9.675,
              "duration": 0.308333
            },
            {
              "pitch": 48,
              "velocity": 64,
              "position": 10.0,
              "duration": 0.266667
            },
            {
              "pitch": 55,
              "velocity": 64,
              "position": 10.0,
              "duration": 0.458333
            },
            {
              "pitch": 48,
              "velocity": 64,
              "position": 10.666667,
              "duration": 0.3
            },
            {
              "pitch": 55,
              "velocity": 64,
              "position": 10.666667,
              "duration": 0.3
            },
            {
              "pitch": 48,
              "velocity": 73,
              "position": 11.0,
              "duration": 0.333333
            },
            {
              "pitch": 55,
              "velocity": 82,
              "position": 11.0,
              "duration": 0.333333
            },
            {
              "pitch": 48,
              "velocity": 55,
              "position": 11.666667,
              "duration": 0.3
            },
            {
              "pitch": 55,
              "velocity": 64,
              "position": 11.666667,
              "duration": 0.291667
            },
            {
              "pitch": 48,
              "velocity": 64,
              "position": 12.0,
              "duration": 0.566667
            },
            {
              "pitch": 54,
              "velocity": 28,
              "position": 12.0,
              "duration": 0.133333
            },
            {
              "pitch": 55,
              "velocity": 48,
              "position": 12.0,
              "duration": 0.458333
            },
            {
              "pitch": 48,
              "velocity": 56,
              "position": 12.666667,
              "duration": 0.333333
            },
            {
              "pitch": 55,
              "velocity": 61,
              "position": 12.666667,
              "duration": 0.333333
            },
            {
              "pitch": 48,
              "velocity": 55,
              "position": 13.675,
              "duration": 0.3
            },
            {
              "pitch": 55,
              "velocity": 64,
              "position": 13.675,
              "duration": 0.308333
            },
            {
              "pitch": 48,
              "velocity": 64,
              "position": 14.0,
              "duration": 0.266667
            },
            {
              "pitch": 55,
              "velocity": 64,
              "position": 14.0,
              "duration": 0.458333
            },
            {
              "pitch": 48,
              "velocity": 64,
              "position": 14.666667,
              "duration": 0.3
            },
            {
              "pitch": 55,
              "velocity": 64,
              "position": 14.666667,
              "duration": 0.3
            },
            {
              "pitch": 48,
              "velocity": 73,
              "position": 15.0,
              "duration": 0.333333
            },
            {
              "pitch": 55,
              "velocity": 82,
              "position": 15.0,
              "duration": 0.333333
            },
            {
              "pitch": 48,
              "velocity": 55,
              "position": 15.666667,
              "duration": 0.3
            },
            {
              "pitch": 55,
              "velocity": 64,
              "position": 15.666667,
              "duration": 0.291667
            }
          ]
        },
        "13": {
          "ctab": {
            "srcChannel": 13,
            "name": "Strings",
            "accType": "PAD",
            "editable": true,
            "mutedNotes": [],
            "mutedChords": [],
            "sourceChordNote": 0,
            "sourceChordType": "Maj7",
            "ctb2Main": {
              "ntr": "ROOT_FIXED",
              "ntt": "MELODY",
              "bassOn": false,
              "noteLowLimit": 36,
              "noteHighLimit": 96,
              "chordRootUpperLimit": 127,
              "rtr": "PITCH_SHIFT"
            }
          },
          "notes": [
            {
              "pitch": 66,
              "velocity": 50,
              "position": 0.025,
              "duration": 0.116667
            },
            {
              "pitch": 71,
              "velocity": 46,
              "position": 0.033333,
              "duration": 1.566667
            },
            {
              "pitch": 64,
              "velocity": 42,
              "position": 0.041667,
              "duration": 1.558333
            },
            {
              "pitch": 67,
              "velocity": 24,
              "position": 0.166667,
              "duration": 1.433333
            },
            {
              "pitch": 64,
              "velocity": 42,
              "position": 1.683333,
              "duration": 2.258333
            },
            {
              "pitch": 66,
              "velocity": 50,
              "position": 1.683333,
              "duration": 0.416667
            },
            {
              "pitch": 71,
              "velocity": 46,
              "position": 1.683333,
              "duration": 2.258333
            },
            {
              "pitch": 67,
              "velocity": 24,
              "position": 1.741667,
              "duration": 2.2
            },
            {
              "pitch": 66,
              "velocity": 50,
              "position": 4.025,
              "duration": 0.116667
            },
            {
              "pitch": 71,
              "velocity": 46,
              "position": 4.033333,
              "duration": 1.566667
            },
            {
              "pitch": 64,
              "velocity": 42,
              "position": 4.041667,
              "duration": 1.558333
            },
            {
              "pitch": 67,
              "velocity": 24,
              "position": 4.166667,
              "duration": 1.433333
            },
            {
              "pitch": 64,
              "velocity": 42,
              "position": 5.683333,
              "duration": 2.258333
            },
            {
              "pitch": 66,
              "velocity": 50,
              "position": 5.683333,
              "duration": 0.416667
            },
            {
              "pitch": 71,
              "velocity": 46,
              "position": 5.683333,
              "duration": 2.258333
            },
            {
              "pitch": 67,
              "velocity": 24,
              "position": 5.741667,
              "duration": 2.2
            },
            {
              "pitch": 64,
              "velocity": 38,
              "position": 8.033333,
              "duration": 3.566667
            },
            {
              "pitch": 74,
              "velocity": 33,
              "position": 8.041667,
              "duration": 3.558333
            },
            {
              "pitch": 67,
              "velocity": 40,
              "position": 8.058333,
              "duration": 3.541667
            },
            {
              "pitch": 74,
              "velocity": 34,
              "position": 11.683333,
              "duration": 4.258333
            },
            {
              "pitch": 66,
              "velocity": 54,
              "position": 11.7,
              "duration": 0.433333
            },
            {
              "pitch": 64,
              "velocity": 36,
              "position": 11.708333,
              "duration": 4.233333
            },
            {
              "pitch": 67,
              "velocity": 29,
              "position": 12.166667,
              "duration": 3.791667
            }
          ]
        }
      }
    }
  }
}