{
  "name": "Nashville G Country Swing",
  "tempo": 80,
  "timeSignature": "4/4",
  "ticksPerQuarter": 120,
  "sffType": "SFF1",
  "division": "BINARY",
  "channelPrograms": {
    "9": 0,
    "10": 32,
    "11": 4,
    "12": 27,
    "13": 49
  },
  "parts": {
    "Intro_A": {
      "type": "Intro_A",
      "sizeInBeats": 24,
      "channels": {
        "9": {
          "ctab": {
            "srcChannel": 9,
            "name": "Drums",
            "accType": "RHYTHM",
            "editable": false,
            "mutedNotes": [],
            "mutedChords": [],
            "sourceChordNote": 0,
            "sourceChordType": "Maj",
            "ctb2Main": {
              "ntr": "ROOT_FIXED",
              "ntt": "BYPASS",
              "bassOn": false,
              "noteLowLimit": 20,
              "noteHighLimit": 127,
              "chordRootUpperLimit": 127,
              "rtr": "RETRIGGER"
            }
          },
          "notes": [
            {
              "pitch": 37,
              "velocity": 84,
              "position": 0.0,
              "duration": 1.0
            },
            {
              "pitch": 37,
              "velocity": 84,
              "position": 2.0,
              "duration": 1.0
            },
            {
              "pitch": 37,
              "velocity": 64,
              "position": 4.0,
              "duration": 1.0
            },
            {
              "pitch": 37,
              "velocity": 84,
              "position": 5.0,
              "duration": 1.0
            },
            {
              "pitch": 37,
              "velocity": 64,
              "position": 6.0,
              "duration": 1.0
            },
            {
              "pitch": 37,
              "velocity": 84,
              "position": 7.0,
              "duration": 1.0
            },
            {
              "pitch": 35,
              "velocity": 90,
              "position": 8.0,
              "duration": 0.208333
            },
            {
              "pitch": 42,
              "velocity": 90,
              "position": 8.0,
              "duration": 0.208333
            },
            {
              "pitch": 42,
              "velocity": 70,
              "position": 8.333333,
              "duration": 0.208333
            },
            {
              "pitch": 42,
              "velocity": 80,
              "position": 8.666667,
              "duration": 0.208333
            },
            {
              "pitch": 37,
              "velocity": 100,
              "position": 9.0,
              "duration": 0.208333
            },
            {
              "pitch": 42,
              "velocity": 90,
              "position": 9.0,
              "duration": 0.208333
            },
            {
              "pitch": 42,
              "velocity": 70,
              "position": 9.333333,
              "duration": 0.208333
            },
            {
              "pitch": 35,
              "velocity": 80,
              "position": 9.666667,
              "duration": 0.208333
            },
            {
              "pitch": 42,
              "velocity": 80,
              "position": 9.666667,
              "duration": 0.208333
            },
            {
              "pitch": 35,
              "velocity": 90,
              "position": 10.0,
              "duration": 0.208333
            },
            {
              "pitch": 42,
              "velocity": 90,
              "position": 10.0,
              "duration": 0.208333
            },
            {
              "pitch": 42,
              "velocity": 70,
              "position": 10.333333,
              "duration": 0.208333
            },
            {
              "pitch": 42,
              "velocity": 80,
              "position": 10.666667,
              "duration": 0.208333
            },
            {
              "pitch": 37,
              "velocity": 100,
              "position": 11.0,
              "duration": 0.208333
            },
            {
              "pitch": 42,
              "velocity": 90,
              "position": 11.0,
              "duration": 0.208333
            },
            {
              "pitch": 42,
              "velocity": 70,
              "position": 11.333333,
              "duration": 0.208333
            },
            {
              "pitch": 42,
              "velocity": 60,
              "position": 11.666667,
              "duration": 0.208333
            },
            {
              "pitch": 35,
              "velocity": 90,
              "position": 12.0,
              "duration": 0.208333
            },
            {
              "pitch": 42,
              "velocity": 90,
              "position": 12.0,
              "duration": 0.208333
            },
            {
              "pitch": 42,
              "velocity": 70,
              "position": 12.333333,
              "duration": 0.208333
            },
            {
              "pitch": 42,
              "velocity": 80,
              "position": 12.666667,
              "duration": 0.208333
            },
            {
              "pitch": 37,
              "velocity": 100,
              "position": 13.0,
              "duration": 0.208333
            },
            {
              "pitch": 42,
              "velocity": 90,
              "position": 13.0,
              "duration": 0.208333
            },
            {
              "pitch": 42,
              "velocity": 70,
              "position": 13.333333,
              "duration": 0.208333
            },
            {
              "pitch": 35,
              "velocity": 80,
              "position": 13.666667,
              "duration": 0.208333
            },
            {
              "pitch": 42,
              "velocity": 80,
              "position": 13.666667,
              "duration": 0.208333
            },
            {
              "pitch": 35,
              "velocity": 90,
              "position": 14.0,
              "duration": 0.208333
            },
            {
              "pitch": 42,
              "velocity": 90,
              "position": 14.0,
              "duration": 0.208333
            },
            {
              "pitch": 42,
              "velocity": 70,
              "position": 14.333333,
              "duration": 0.208333
            },
            {
              "pitch": 42,
              "velocity": 80,
              "position": 14.666667,
              "duration": 0.208333
            },
            {
              "pitch": 37,
              "velocity": 100,
              "position": 15.0,
              "duration": 0.208333
            },
            {
              "pitch": 42,
              "velocity": 90,
              "position": 15.0,
              "duration": 0.208333
            },
            {
              "pitch": 42,
              "velocity": 70,
              "position": 15.333333,
              "duration": 0.208333
            },
            {
              "pitch": 42,
              "velocity": 60,
              "position": 15.666667,
              "duration": 0.208333
            },
            {
              "pitch": 35,
              "velocity": 90,
              "position": 16.0,
              "duration": 0.208333
            },
            {
              "pitch": 42,
              "velocity": 90,
              "position": 16.0,
              "duration": 0.208333
            },
            {
              "pitch": 42,
              "velocity": 70,
              "position": 16.333333,
              "duration": 0.208333
            },
            {
              "pitch": 42,
              "velocity": 80,
              "position": 16.666667,
              "duration": 0.208333
            },
            {
              "pitch": 37,
              "velocity": 100,
              "position": 17.0,
              "duration": 0.208333
            },
            {
              "pitch": 42,
              "velocity": 90,
              "position": 17.0,
              "duration": 0.208333
            },
            {
              "pitch": 42,
              "velocity": 70,
              "position": 17.333333,
              "duration": 0.208333
            },
            {
              "pitch": 35,
              "velocity": 80,
              "position": 17.666667,
              "duration": 0.208333
            },
            {
              "pitch": 42,
              "velocity": 80,
              "position": 17.666667,
              "duration": 0.208333
            },
            {
              "pitch": 35,
              "velocity": 90,
              "position": 18.0,
              "duration": 0.208333
            },
            {
              "pitch": 42,
              "velocity": 90,
              "position": 18.0,
              "duration": 0.208333
            },
            {
              "pitch": 42,
              "velocity": 70,
              "position": 18.333333,
              "duration": 0.208333
            },
            {
              "pitch": 42,
              "velocity": 80,
              "position": 18.666667,
              "duration": 0.208333
            },
            {
              "pitch": 37,
              "velocity": 100,
              "position": 19.0,
              "duration": 0.208333
            },
            {
              "pitch": 42,
              "velocity": 90,
              "position": 19.0,
              "duration": 0.208333
            },
            {
              "pitch": 42,
              "velocity": 70,
              "position": 19.333333,
              "duration": 0.208333
            },
            {
              "pitch": 42,
              "velocity": 60,
              "position": 19.666667,
              "duration": 0.208333
            },
            {
              "pitch": 35,
              "velocity": 100,
              "position": 20.0,
              "duration": 0.208333
            },
            {
              "pitch": 42,
              "velocity": 90,
              "position": 20.0,
              "duration": 0.208333
            },
            {
              "pitch": 42,
              "velocity": 70,
              "position": 20.333333,
              "duration": 0.208333
            },
            {
              "pitch": 42,
              "velocity": 80,
              "position": 20.666667,
              "duration": 0.208333
            },
            {
              "pitch": 37,
              "velocity": 100,
              "position": 21.0,
              "duration": 0.208333
            },
            {
              "pitch": 38,
              "velocity": 90,
              "position": 21.0,
              "duration": 0.208333
            },
            {
              "pitch": 42,
              "velocity": 90,
              "position": 21.0,
              "duration": 0.208333
            },
            {
              "pitch": 42,
              "velocity": 70,
              "position": 21.333333,
              "duration": 0.208333
            },
            {
              "pitch": 35,
              "velocity": 80,
              "position": 21.666667,
              "duration": 0.208333
            },
            {
              "pitch": 42,
              "velocity": 80,
              "position": 21.666667,
              "duration": 0.208333
            },
            {
              "pitch": 35,
              "velocity": 100,
              "position": 22.0,
              "duration": 0.208333
            },
            {
              "pitch": 42,
              "velocity": 90,
              "position": 22.0,
              "duration": 0.208333
            },
            {
              "pitch": 42,
              "velocity": 70,
              "position": 22.333333,
              "duration": 0.208333
            },
            {
              "pitch": 35,
              "velocity": 80,
              "position": 22.666667,
              "duration": 0.208333
            },
            {
              "pitch": 42,
              "velocity": 80,
              "position": 22.666667,
              "duration": 0.208333
            },
            {
              "pitch": 48,
              "velocity": 80,
              "position": 22.666667,
              "duration": 0.208333
            },
            {
              "pitch": 37,
              "velocity": 100,
              "position": 23.0,
              "duration": 0.208333
            },
            {
              "pitch": 38,
              "velocity": 100,
              "position": 23.0,
              "duration": 0.208333
            },
            {
              "pitch": 42,
              "velocity": 90,
              "position": 23.0,
              "duration": 0.208333
            },
            {
              "pitch": 42,
              "velocity": 70,
              "position": 23.333333,
              "duration": 0.208333
            },
            {
              "pitch": 45,
              "velocity": 80,
              "position": 23.333333,
              "duration": 0.208333
            },
            {
              "pitch": 35,
              "velocity": 80,
              "position": 23.666667,
              "duration": 0.208333
            },
            {
              "pitch": 45,
              "velocity": 60,
              "position": 23.666667,
              "duration": 0.208333
            },
            {
              "pitch": 46,
              "velocity": 90,
              "position": 23.666667,
              "duration": 0.208333
            }
          ]
        },
        "10": {
          "ctab": {
            "srcChannel": 10,
            "name": "Bass",
            "accType": "BASS",
            "editable": true,
            "mutedNotes": [],
            "mutedChords": [],
            "sourceChordNote": 0,
            "sourceChordType": "Maj7",
            "ctb2Main": {
              "ntr": "ROOT_TRANSPOSITION",
              "ntt": "BYPASS",
              "bassOn": true,
              "noteLowLimit": 20,
              "noteHighLimit": 60,
              "chordRootUpperLimit": 127,
              "rtr": "NOTE_GENERATOR"
            }
          },
          "notes": [
            {
              "pitch": 36,
              "velocity": 100,
              "position": 8.0,
              "duration": 1.766667
            },
            {
              "pitch": 43,
              "velocity": 82,
              "position": 9.666667,
              "duration": 0.275
            },
            {
              "pitch": 36,
              "velocity": 100,
              "position": 10.0,
              "duration": 0.675
            },
            {
              "pitch": 36,
              "velocity": 90,
              "position": 10.675,
              "duration": 0.516667
            },
            {
              "pitch": 36,
              "velocity": 82,
              "position": 11.666667,
              "duration": 0.275
            },
            {
              "pitch": 36,
              "velocity": 100,
              "position": 12.0,
              "duration": 1.941667
            },
            {
              "pitch": 36,
              "velocity": 98,
              "position": 14.0,
              "duration": 1.066667
            },
            {
              "pitch": 31,
              "velocity": 98,
              "position": 15.0,
              "duration": 0.941667
            },
            {
              "pitch": 36,
              "velocity": 85,
              "position": 16.0,
              "duration": 2.108333
            },
            {
              "pitch": 43,
              "velocity": 89,
              "position": 18.0,
              "duration": 1.366667
            },
            {
              "pitch": 43,
              "velocity": 87,
              "position": 19.666667,
              "duration": 0.416667
            },
            {
              "pitch": 36,
              "velocity": 102,
              "position": 20.0,
              "duration": 2.075
            },
            {
              "pitch": 43,
              "velocity": 85,
              "position": 22.0,
              "duration": 1.016667
            },
            {
              "pitch": 31,
              "velocity": 76,
              "position": 23.016667,
              "duration": 0.891667
            }
          ]
        },
        "11": {
          "ctab": {
            "srcChannel": 11,
            "name": "Piano",
            "accType": "CHORD1",
            "editable": true,
            "mutedNotes": [],
            "mutedChords": [],
            "sourceChordNote": 0,
            "sourceChordType": "Maj7",
            "ctb2Main": {
              "ntr": "ROOT_FIXED",
              "ntt": "CHORD",
              "bassOn": false,
              "noteLowLimit": 48,
              "noteHighLimit": 84,
              "chordRootUpperLimit": 127,
              "rtr": "NOTE_GENERATOR"
            }
          },
          "notes": [
            {
              "pitch": 59,
              "velocity": 76,
              "position": 8.0,
              "duration": 1.958333
            },
            {
              "pitch": 62,
              "velocity": 76,
              "position": 8.0,
              "duration": 1.958333
            },
            {
              "pitch": 64,
              "velocity": 76,
              "position": 8.0,
              "duration": 1.958333
            },
            {
              "pitch": 67,
              "velocity": 76,
              "position": 8.0,
              "duration": 1.958333
            },
            {
              "pitch": 55,
              "velocity": 65,
              "position": 10.0,
              "duration": 1.958333
            },
            {
              "pitch": 59,
              "velocity": 65,
              "position": 10.0,
              "duration": 1.958333
            },
            {
              "pitch": 60,
              "velocity": 61,
              "position": 10.0,
              "duration": 1.958333
            },
            {
              "pitch": 67,
              "velocity": 80,
              "position": 10.666667,
              "duration": 0.3
            },
            {
              "pitch": 74,
              "velocity": 78,
              "position": 11.0,
              "duration": 0.958333
            },
            {
              "pitch": 67,
              "velocity": 61,
              "position": 11.333333,
              "duration": 0.625
            },
            {
              "pitch": 64,
              "velocity": 57,
              "position": 11.666667,
              "duration": 0.291667
            },
            {
              "pitch": 59,
              "velocity": 76,
              "position": 12.0,
              "duration": 1.958333
            },
            {
              "pitch": 62,
              "velocity": 76,
              "position": 12.0,
              "duration": 1.958333
            },
            {
              "pitch": 64,
              "velocity": 76,
              "position": 12.0,
              "duration": 1.958333
            },
            {
              "pitch": 67,
              "velocity": 76,
              "position": 12.0,
              "duration": 1.958333
            },
            {
              "pitch": 59,
              "velocity": 76,
              "position": 14.0,
              "duration": 1.958333
            },
            {
              "pitch": 62,
              "velocity": 76,
              "position": 14.0,
              "duration": 1.958333
            },
            {
              "pitch": 64,
              "velocity": 76,
              "position": 14.0,
              "duration": 1.958333
            },
            {
              "pitch": 67,
              "velocity": 76,
              "position": 14.0,
              "duration": 1.958333
            },
            {
              "pitch": 59,
              "velocity": 80,
              "position": 16.666667,
              "duration": 3.5
            },
            {
              "pitch": 62,
              "velocity": 80,
              "position": 16.666667,
              "duration": 3.5
            },
            {
              "pitch": 64,
              "velocity": 80,
              "position": 16.666667,
              "duration": 3.5
            },
            {
              "pitch": 67,
              "velocity": 80,
              "position": 16.666667,
              "duration": 3.5
            },
            {
              "pitch": 59,
              "velocity": 89,
              "position": 20.666667,
              "duration": 1.666667
            },
            {
              "pitch": 62,
              "velocity": 89,
              "position": 20.666667,
              "duration": 1.666667
            },
            {
              "pitch": 64,
              "velocity": 89,
              "position": 20.666667,
              "duration": 1.666667
            },
            {
              "pitch": 67,
              "velocity": 89,
              "position": 20.666667,
              "duration": 1.666667
            },
            {
              "pitch": 59,
              "velocity": 91,
              "position": 22.666667,
              "duration": 1.266667
            },
            {
              "pitch": 62,
              "velocity": 91,
              "position": 22.666667,
              "duration": 1.266667
            },
            {
              "pitch": 64,
              "velocity": 91,
              "position": 22.666667,
              "duration": 1.266667
            },
            {
              "pitch": 67,
              "velocity": 91,
              "position": 22.666667,
              "duration": 1.266667
            }
          ]
        },
        "12": {
          "ctab": {
            "srcChannel": 12,
            "name": "Guitar",
            "accType": "CHORD2",
            "editable": true,
            "mutedNotes": [],
            "mutedChords": [],
            "sourceChordNote": 0,
            "sourceChordType": "Maj7",
            "ctb2Main": {
              "ntr": "ROOT_FIXED",
              "ntt": "CHORD",
              "bassOn": false,
              "noteLowLimit": 40,
              "noteHighLimit": 76,
              "chordRootUpperLimit": 127,
              "rtr": "NOTE_GENERATOR"
            }
          },
          "notes": [
            {
              "pitch": 64,
              "velocity": 55,
              "position": 9.0,
              "duration": 0.141667
            },
            {
              "pitch": 71,
              "velocity": 75,
              "position": 9.0,
              "duration": 0.125
            },
            {
              "pitch": 67,
              "velocity": 65,
              "position": 9.008333,
              "duration": 0.15
            },
            {
              "pitch": 64,
              "velocity": 55,
              "position": 11.0,
              "duration": 0.141667
            },
            {
              "pitch": 67,
              "velocity": 65,
              "position": 11.0,
              "duration": 0.15
            },
            {
              "pitch": 64,
              "velocity": 55,
              "position": 13.0,
              "duration": 0.141667
            },
            {
              "pitch": 67,
              "velocity": 65,
              "position": 13.0,
              "duration": 0.15
            },
            {
              "pitch": 71,
              "velocity": 75,
              "position": 13.0,
              "duration": 0.125
            },
            {
              "pitch": 64,
              "velocity": 55,
              "position": 15.0,
              "duration": 0.141667
            },
            {
              "pitch": 67,
              "velocity": 65,
              "position": 15.008333,
              "duration": 0.15
            },
            {
              "pitch": 64,
              "velocity": 55,
              "position": 17.0,
              "duration": 0.116667
            },
            {
              "pitch": 67,
              "velocity": 65,
              "position": 17.0,
              "duration": 0.125
            },
            {
              "pitch": 71,
              "velocity": 75,
              "position": 17.0,
              "duration": 0.1
            },
            {
              "pitch": 64,
              "velocity": 55,
              "position": 19.0,
              "duration": 0.15
            },
            {
              "pitch": 67,
              "velocity": 65,
              "position": 19.0,
              "duration": 0.116667
            },
            {
              "pitch": 71,
              "velocity": 75,
              "position": 19.0,
              "duration": 0.116667
            },
            {
              "pitch": 64,
              "velocity": 55,
              "position": 21.0,
              "duration": 0.225
            },
            {
              "pitch": 67,
              "velocity": 75,
              "position": 21.0,
              "duration": 0.141667
            },
            {
              "pitch": 71,
              "velocity": 75,
              "position": 21.0,
              "duration": 0.166667
            },
            {
              "pitch": 64,
              "velocity": 55,
              "position": 23.0,
              "duration": 0.1
            },
            {
              "pitch": 67,
              "velocity": 65,
              "position": 23.0,
              "duration": 0.141667
            },
            {
              "pitch": 71,
              "velocity": 75,
              "position": 23.0,
              "duration": 0.125
            }
          ]
        },
        "13": {
          "ctab": {
            "srcChannel": 13,
            "name": "Strings",
            "accType": "PAD",
            "editable": true,
            "mutedNotes": [],
            "mutedChords": [],
            "sourceChordNote": 0,
            "sourceChordType": "Maj7",
            "ctb2Main": {
              "ntr": "ROOT_FIXED",
              "ntt": "MELODY",
              "bassOn": false,
              "noteLowLimit": 36,
              "noteHighLimit": 96,
              "chordRootUpperLimit": 127,
              "rtr": "PITCH_SHIFT"
            }
          },
          "notes": []
        }
      }
    },
    "Main_A": {
      "type": "Main_A",
      "sizeInBeats": 16,
      "channels": {
        "9": {
          "ctab": {
            "srcChannel": 9,
            "name": "Drums",
            "accType": "RHYTHM",
            "editable": false,
            "mutedNotes": [],
            "mutedChords": [],
            "sourceChordNote": 0,
            "sourceChordType": "Maj",
            "ctb2Main": {
              "ntr": "ROOT_FIXED",
              "ntt": "BYPASS",
              "bassOn": false,
              "noteLowLimit": 20,
              "noteHighLimit": 127,
              "chordRootUpperLimit": 127,
              "rtr": "RETRIGGER"
            }
          },
          "notes": [
            {
              "pitch": 35,
              "velocity": 100,
              "position": 0.0,
              "duration": 0.208333
            },
            {
              "pitch": 42,
              "velocity": 90,
              "position": 0.0,
              "duration": 0.208333
            },
            {
              "pitch": 49,
              "velocity": 80,
              "position": 0.0,
              "duration": 0.208333
            },
            {
              "pitch": 42,
              "velocity": 70,
              "position": 0.333333,
              "duration": 0.208333
            },
            {
              "pitch": 42,
              "velocity": 80,
              "position": 0.666667,
              "duration": 0.208333
            },
            {
              "pitch": 37,
              "velocity": 100,
              "position": 1.0,
              "duration": 0.208333
            },
            {
              "pitch": 38,
              "velocity": 90,
              "position": 1.0,
              "duration": 0.208333
            },
            {
              "pitch": 42,
              "velocity": 90,
              "position": 1.0,
              "duration": 0.208333
            },
            {
              "pitch": 54,
              "velocity": 90,
              "position": 1.0,
              "duration": 0.208333
            },
            {
              "pitch": 46,
              "velocity": 90,
              "position": 1.333333,
              "duration": 0.208333
            },
            {
              "pitch": 35,
              "velocity": 80,
              "position": 1.666667,
              "duration": 0.208333
            },
            {
              "pitch": 42,
              "velocity": 80,
              "position": 1.666667,
              "duration": 0.208333
            },
            {
              "pitch": 35,
              "velocity": 100,
              "position": 2.0,
              "duration": 0.208333
            },
            {
              "pitch": 42,
              "velocity": 90,
              "position": 2.0,
              "duration": 0.208333
            },
            {
              "pitch": 42,
              "velocity": 70,
              "position": 2.333333,
              "duration": 0.208333
            },
            {
              "pitch": 35,
              "velocity": 80,
              "position": 2.666667,
              "duration": 0.208333
            },
            {
              "pitch": 42,
              "velocity": 80,
              "position": 2.666667,
              "duration": 0.208333
            },
            {
              "pitch": 37,
              "velocity": 100,
              "position": 3.0,
              "duration": 0.208333
            },
            {
              "pitch": 38,
              "velocity": 100,
              "position": 3.0,
              "duration": 0.208333
            },
            {
              "pitch": 42,
              "velocity": 90,
              "position": 3.0,
              "duration": 0.208333
            },
            {
              "pitch": 54,
              "velocity": 90,
              "position": 3.0,
              "duration": 0.208333
            },
            {
              "pitch": 42,
              "velocity": 70,
              "position": 3.333333,
              "duration": 0.208333
            },
            {
              "pitch": 35,
              "velocity": 80,
              "position": 3.666667,
              "duration": 0.208333
            },
            {
              "pitch": 42,
              "velocity": 60,
              "position": 3.666667,
              "duration": 0.208333
            },
            {
              "pitch": 35,
              "velocity": 100,
              "position": 4.0,
              "duration": 0.208333
            },
            {
              "pitch": 42,
              "velocity": 90,
              "position": 4.0,
              "duration": 0.208333
            },
            {
              "pitch": 42,
              "velocity": 70,
              "position": 4.333333,
              "duration": 0.208333
            },
            {
              "pitch": 42,
              "velocity": 80,
              "position": 4.666667,
              "duration": 0.208333
            },
            {
              "pitch": 37,
              "velocity": 100,
              "position": 5.0,
              "duration": 0.208333
            },
            {
              "pitch": 38,
              "velocity": 90,
              "position": 5.0,
              "duration": 0.208333
            },
            {
              "pitch": 42,
              "velocity": 90,
              "position": 5.0,
              "duration": 0.208333
            },
            {
              "pitch": 54,
              "velocity": 90,
              "position": 5.0,
              "duration": 0.208333
            },
            {
              "pitch": 42,
              "velocity": 70,
              "position": 5.333333,
              "duration": 0.208333
            },
            {
              "pitch": 35,
              "velocity": 80,
              "position": 5.666667,
              "duration": 0.208333
            },
            {
              "pitch": 42,
              "velocity": 80,
              "position": 5.666667,
              "duration": 0.208333
            },
            {
              "pitch": 35,
              "velocity": 100,
              "position": 6.0,
              "duration": 0.208333
            },
            {
              "pitch": 42,
              "velocity": 90,
              "position": 6.0,
              "duration": 0.208333
            },
            {
              "pitch": 42,
              "velocity": 70,
              "position": 6.333333,
              "duration": 0.208333
            },
            {
              "pitch": 35,
              "velocity": 80,
              "position": 6.666667,
              "duration": 0.208333
            },
            {
              "pitch": 42,
              "velocity": 80,
              "position": 6.666667,
              "duration": 0.208333
            },
            {
              "pitch": 37,
              "velocity": 100,
              "position": 7.0,
              "duration": 0.208333
            },
            {
              "pitch": 38,
              "velocity": 100,
              "position": 7.0,
              "duration": 0.208333
            },
            {
              "pitch": 42,
              "velocity": 90,
              "position": 7.0,
              "duration": 0.208333
            },
            {
              "pitch": 54,
              "velocity": 90,
              "position": 7.0,
              "duration": 0.208333
            },
            {
              "pitch": 42,
              "velocity": 70,
              "position": 7.333333,
              "duration": 0.208333
            },
            {
              "pitch": 35,
              "velocity": 80,
              "position": 7.666667,
              "duration": 0.208333
            },
            {
              "pitch": 42,
              "velocity": 60,
              "position": 7.666667,
              "duration": 0.208333
            },
            {
              "pitch": 35,
              "velocity": 100,
              "position": 8.0,
              "duration": 0.208333
            },
            {
              "pitch": 42,
              "velocity": 90,
              "position": 8.0,
              "duration": 0.208333
            },
            {
              "pitch": 42,
              "velocity": 70,
              "position": 8.333333,
              "duration": 0.208333
            },
            {
              "pitch": 42,
              "velocity": 80,
              "position": 8.666667,
              "duration": 0.208333
            },
            {
              "pitch": 37,
              "velocity": 100,
              "position": 9.0,
              "duration": 0.208333
            },
            {
              "pitch": 38,
              "velocity": 90,
              "position": 9.0,
              "duration": 0.208333
            },
            {
              "pitch": 42,
              "velocity": 90,
              "position": 9.0,
              "duration": 0.208333
            },
            {
              "pitch": 54,
              "velocity": 90,
              "position": 9.0,
              "duration": 0.208333
            },
            {
              "pitch": 42,
              "velocity": 70,
              "position": 9.333333,
              "duration": 0.208333
            },
            {
              "pitch": 35,
              "velocity": 80,
              "position": 9.666667,
              "duration": 0.208333
            },
            {
              "pitch": 42,
              "velocity": 80,
              "position": 9.666667,
              "duration": 0.208333
            },
            {
              "pitch": 35,
              "velocity": 100,
              "position": 10.0,
              "duration": 0.208333
            },
            {
              "pitch": 42,
              "velocity": 90,
              "position": 10.0,
              "duration": 0.208333
            },
            {
              "pitch": 42,
              "velocity": 70,
              "position": 10.333333,
              "duration": 0.208333
            },
            {
              "pitch": 35,
              "velocity": 80,
              "position": 10.666667,
              "duration": 0.208333
            },
            {
              "pitch": 42,
              "velocity": 80,
              "position": 10.666667,
              "duration": 0.208333
            },
            {
              "pitch": 37,
              "velocity": 100,
              "position": 11.0,
              "duration": 0.208333
            },
            {
              "pitch": 38,
              "velocity": 100,
              "position": 11.0,
              "duration": 0.208333
            },
            {
              "pitch": 42,
              "velocity": 90,
              "position": 11.0,
              "duration": 0.208333
            },
            {
              "pitch": 54,
              "velocity": 90,
              "position": 11.0,
              "duration": 0.208333
            },
            {
              "pitch": 42,
              "velocity": 70,
              "position": 11.333333,
              "duration": 0.208333
            },
            {
              "pitch": 35,
              "velocity": 80,
              "position": 11.666667,
              "duration": 0.208333
            },
            {
              "pitch": 42,
              "velocity": 80,
              "position": 11.666667,
              "duration": 0.208333
            },
            {
              "pitch": 35,
              "velocity": 100,
              "position": 12.0,
              "duration": 0.208333
            },
            {
              "pitch": 42,
              "velocity": 90,
              "position": 12.0,
              "duration": 0.208333
            },
            {
              "pitch": 42,
              "velocity": 70,
              "position": 12.333333,
              "duration": 0.208333
            },
            {
              "pitch": 42,
              "velocity": 80,
              "position": 12.666667,
              "duration": 0.208333
            },
            {
              "pitch": 37,
              "velocity": 100,
              "position": 13.0,
              "duration": 0.208333
            },
            {
              "pitch": 38,
              "velocity": 90,
              "position": 13.0,
              "duration": 0.208333
            },
            {
              "pitch": 42,
              "velocity": 90,
              "position": 13.0,
              "duration": 0.208333
            },
            {
              "pitch": 42,
              "velocity": 70,
              "position": 13.333333,
              "duration": 0.208333
            },
            {
              "pitch": 35,
              "velocity": 80,
              "position": 13.666667,
              "duration": 0.208333
            },
            {
              "pitch": 42,
              "velocity": 80,
              "position": 13.666667,
              "duration": 0.208333
            },
            {
              "pitch": 35,
              "velocity": 100,
              "position": 14.0,
              "duration": 0.208333
            },
            {
              "pitch": 38,
              "velocity": 70,
              "position": 14.0,
              "duration": 0.208333
            },
            {
              "pitch": 42,
              "velocity": 90,
              "position": 14.0,
              "duration": 0.208333
            },
            {
              "pitch": 38,
              "velocity": 90,
              "position": 14.333333,
              "duration": 0.208333
            },
            {
              "pitch": 42,
              "velocity": 70,
              "position": 14.333333,
              "duration": 0.208333
            },
            {
              "pitch": 35,
              "velocity": 80,
              "position": 14.666667,
              "duration": 0.208333
            },
            {
              "pitch": 42,
              "velocity": 80,
              "position": 14.666667,
              "duration": 0.208333
            },
            {
              "pitch": 37,
              "velocity": 100,
              "position": 15.0,
              "duration": 0.208333
            },
            {
              "pitch": 38,
              "velocity": 90,
              "position": 15.0,
              "duration": 0.208333
            },
            {
              "pitch": 42,
              "velocity": 90,
              "position": 15.0,
              "duration": 0.208333
            },
            {
              "pitch": 38,
              "velocity": 70,
              "position": 15.333333,
              "duration": 0.208333
            },
            {
              "pitch": 42,
              "velocity": 70,
              "position": 15.333333,
              "duration": 0.208333
            },
            {
              "pitch": 35,
              "velocity": 80,
              "position": 15.666667,
              "duration": 0.208333
            },
            {
              "pitch": 38,
              "velocity": 60,
              "position": 15.666667,
              "duration": 0.208333
            },
            {
              "pitch": 42,
              "velocity": 60,
              "position": 15.666667,
              "duration": 0.208333
            }
          ]
        },
        "10": {
          "ctab": {
            "srcChannel": 10,
            "name": "Bass",
            "accType": "BASS",
            "editable": true,
            "mutedNotes": [],
            "mutedChords": [],
            "sourceChordNote": 0,
            "sourceChordType": "Maj7",
            "ctb2Main": {
              "ntr": "ROOT_TRANSPOSITION",
              "ntt": "BYPASS",
              "bassOn": true,
              "noteLowLimit": 20,
              "noteHighLimit": 60,
              "chordRootUpperLimit": 127,
              "rtr": "NOTE_GENERATOR"
            }
          },
          "notes": [
            {
              "pitch": 36,
              "velocity": 93,
              "position": 0.0,
              "duration": 1.666667
            },
            {
              "pitch": 43,
              "velocity": 91,
              "position": 1.666667,
              "duration": 0.275
            },
            {
              "pitch": 36,
              "velocity": 93,
              "position": 2.0,
              "duration": 1.666667
            },
            {
              "pitch": 43,
              "velocity": 91,
              "position": 3.666667,
              "duration": 0.275
            },
            {
              "pitch": 36,
              "velocity": 93,
              "position": 4.0,
              "duration": 1.533333
            },
            {
              "pitch": 36,
              "velocity": 91,
              "position": 5.666667,
              "duration": 0.275
            },
            {
              "pitch": 36,
              "velocity": 93,
              "position": 6.0,
              "duration": 1.533333
            },
            {
              "pitch": 36,
              "velocity": 91,
              "position": 7.666667,
              "duration": 0.275
            },
            {
              "pitch": 36,
              "velocity": 89,
              "position": 8.0,
              "duration": 1.758333
            },
            {
              "pitch": 40,
              "velocity": 93,
              "position": 9.666667,
              "duration": 0.383333
            },
            {
              "pitch": 43,
              "velocity": 87,
              "position": 10.0,
              "duration": 1.05
            },
            {
              "pitch": 40,
              "velocity": 72,
              "position": 11.0,
              "duration": 0.666667
            },
            {
              "pitch": 43,
              "velocity": 85,
              "position": 11.666667,
              "duration": 0.375
            },
            {
              "pitch": 36,
              "velocity": 72,
              "position": 12.0,
              "duration": 1.8
            },
            {
              "pitch": 40,
              "velocity": 87,
              "position": 13.666667,
              "duration": 0.391667
            },
            {
              "pitch": 43,
              "velocity": 91,
              "position": 14.0,
              "duration": 1.0
            },
            {
              "pitch": 40,
              "velocity": 102,
              "position": 15.0,
              "duration": 0.708333
            },
            {
              "pitch": 43,
              "velocity": 89,
              "position": 15.666667,
              "duration": 0.275
            }
          ]
        },
        "11": {
          "ctab": {
            "srcChannel": 11,
            "name": "Piano",
            "accType": "CHORD1",
            "editable": true,
            "mutedNotes": [],
            "mutedChords": [],
            "sourceChordNote": 0,
            "sourceChordType": "Maj7",
            "ctb2Main": {
              "ntr": "ROOT_FIXED",
              "ntt": "CHORD",
              "bassOn": false,
              "noteLowLimit": 48,
              "noteHighLimit": 84,
              "chordRootUpperLimit": 127,
              "rtr": "NOTE_GENERATOR"
            }
          },
          "notes": [
            {
              "pitch": 59,
              "velocity": 80,
              "position": 0.0,
              "duration": 0.175
            },
            {
              "pitch": 62,
              "velocity": 80,
              "position": 0.0,
              "duration": 0.175
            },
            {
              "pitch": 64,
              "velocity": 80,
              "position": 0.0,
              "duration": 0.175
            },
            {
              "pitch": 67,
              "velocity": 80,
              "position": 0.0,
              "duration": 0.175
            },
            {
              "pitch": 59,
              "velocity": 59,
              "position": 0.333333,
              "duration": 0.158333
            },
            {
              "pitch": 62,
              "velocity": 59,
              "position": 0.333333,
              "duration": 0.158333
            },
            {
              "pitch": 64,
              "velocity": 59,
              "position": 0.333333,
              "duration": 0.158333
            },
            {
              "pitch": 67,
              "velocity": 59,
              "position": 0.333333,
              "duration": 0.158333
            },
            {
              "pitch": 59,
              "velocity": 59,
              "position": 0.666667,
              "duration": 0.183333
            },
            {
              "pitch": 62,
              "velocity": 59,
              "position": 0.666667,
              "duration": 0.183333
            },
            {
              "pitch": 64,
              "velocity": 59,
              "position": 0.666667,
              "duration": 0.183333
            },
            {
              "pitch": 67,
              "velocity": 59,
              "position": 0.666667,
              "duration": 0.183333
            },
            {
              "pitch": 59,
              "velocity": 57,
              "position": 1.0,
              "duration": 0.183333
            },
            {
              "pitch": 62,
              "velocity": 57,
              "position": 1.0,
              "duration": 0.183333
            },
            {
              "pitch": 64,
              "velocity": 57,
              "position": 1.0,
              "duration": 0.183333
            },
            {
              "pitch": 67,
              "velocity": 57,
              "position": 1.0,
              "duration": 0.183333
            },
            {
              "pitch": 59,
              "velocity": 63,
              "position": 1.333333,
              "duration": 0.175
            },
            {
              "pitch": 62,
              "velocity": 63,
              "position": 1.333333,
              "duration": 0.175
            },
            {
              "pitch": 64,
              "velocity": 63,
              "position": 1.333333,
              "duration": 0.175
            },
            {
              "pitch": 67,
              "velocity": 63,
              "position": 1.333333,
              "duration": 0.175
            },
            {
              "pitch": 59,
              "velocity": 69,
              "position": 1.666667,
              "duration": 0.175
            },
            {
              "pitch": 62,
              "velocity": 69,
              "position": 1.666667,
              "duration": 0.175
            },
            {
              "pitch": 64,
              "velocity": 69,
              "position": 1.666667,
              "duration": 0.175
            },
            {
              "pitch": 67,
              "velocity": 69,
              "position": 1.666667,
              "duration": 0.175
            },
            {
              "pitch": 59,
              "velocity": 80,
              "position": 2.0,
              "duration": 0.175
            },
            {
              "pitch": 62,
              "velocity": 80,
              "position": 2.0,
              "duration": 0.175
            },
            {
              "pitch": 64,
              "velocity": 80,
              "position": 2.0,
              "duration": 0.175
            },
            {
              "pitch": 67,
              "velocity": 80,
              "position": 2.0,
              "duration": 0.175
            },
            {
              "pitch": 59,
              "velocity": 59,
              "position": 2.333333,
              "duration": 0.158333
            },
            {
              "pitch": 62,
              "velocity": 59,
              "position": 2.333333,
              "duration": 0.158333
            },
            {
              "pitch": 64,
              "velocity": 59,
              "position": 2.333333,
              "duration": 0.158333
            },
            {
              "pitch": 67,
              "velocity": 59,
              "position": 2.333333,
              "duration": 0.158333
            },
            {
              "pitch": 59,
              "velocity": 59,
              "position": 2.666667,
              "duration": 0.183333
            },
            {
              "pitch": 62,
              "velocity": 59,
              "position": 2.666667,
              "duration": 0.183333
            },
            {
              "pitch": 64,
              "velocity": 59,
              "position": 2.666667,
              "duration": 0.183333
            },
            {
              "pitch": 67,
              "velocity": 59,
              "position": 2.666667,
              "duration": 0.183333
            },
            {
              "pitch": 59,
              "velocity": 57,
              "position": 3.0,
              "duration": 0.183333
            },
            {
              "pitch": 62,
              "velocity": 57,
              "position": 3.0,
              "duration": 0.183333
            },
            {
              "pitch": 64,
              "velocity": 57,
              "position": 3.0,
              "duration": 0.183333
            },
            {
              "pitch": 67,
              "velocity": 57,
              "position": 3.0,
              "duration": 0.183333
            },
            {
              "pitch": 59,
              "velocity": 63,
              "position": 3.333333,
              "duration": 0.175
            },
            {
              "pitch": 62,
              "velocity": 63,
              "position": 3.333333,
              "duration": 0.175
            },
            {
              "pitch": 64,
              "velocity": 63,
              "position": 3.333333,
              "duration": 0.175
            },
            {
              "pitch": 67,
              "velocity": 63,
              "position": 3.333333,
              "duration": 0.175
            },
            {
              "pitch": 59,
              "velocity": 69,
              "position": 3.666667,
              "duration": 0.175
            },
            {
              "pitch": 62,
              "velocity": 69,
              "position": 3.666667,
              "duration": 0.175
            },
            {
              "pitch": 64,
              "velocity": 69,
              "position": 3.666667,
              "duration": 0.175
            },
            {
              "pitch": 67,
              "velocity": 69,
              "position": 3.666667,
              "duration": 0.175
            },
            {
              "pitch": 59,
              "velocity": 80,
              "position": 4.0,
              "duration": 0.175
            },
            {
              "pitch": 62,
              "velocity": 80,
              "position": 4.0,
              "duration": 0.175
            },
            {
              "pitch": 64,
              "velocity": 80,
              "position": 4.0,
              "duration": 0.175
            },
            {
              "pitch": 67,
              "velocity": 80,
              "position": 4.0,
              "duration": 0.175
            },
            {
              "pitch": 59,
              "velocity": 59,
              "position": 4.333333,
              "duration": 0.158333
            },
            {
              "pitch": 62,
              "velocity": 59,
              "position": 4.333333,
              "duration": 0.158333
            },
            {
              "pitch": 64,
              "velocity": 59,
              "position": 4.333333,
              "duration": 0.158333
            },
            {
              "pitch": 67,
              "velocity": 59,
              "position": 4.333333,
              "duration": 0.158333
            },
            {
              "pitch": 59,
              "velocity": 59,
              "position": 4.666667,
              "duration": 0.183333
            },
            {
              "pitch": 62,
              "velocity": 59,
              "position": 4.666667,
              "duration": 0.183333
            },
            {
              "pitch": 64,
              "velocity": 59,
              "position": 4.666667,
              "duration": 0.183333
            },
            {
              "pitch": 67,
              "velocity": 59,
              "position": 4.666667,
              "duration": 0.183333
            },
            {
              "pitch": 59,
              "velocity": 57,
              "position": 5.0,
              "duration": 0.183333
            },
            {
              "pitch": 62,
              "velocity": 57,
              "position": 5.0,
              "duration": 0.183333
            },
            {
              "pitch": 64,
              "velocity": 57,
              "position": 5.0,
              "duration": 0.183333
            },
            {
              "pitch": 67,
              "velocity": 57,
              "position": 5.0,
              "duration": 0.183333
            },
            {
              "pitch": 59,
              "velocity": 63,
              "position": 5.333333,
              "duration": 0.175
            },
            {
              "pitch": 62,
              "velocity": 63,
              "position": 5.333333,
              "duration": 0.175
            },
            {
              "pitch": 64,
              "velocity": 63,
              "position": 5.333333,
              "duration": 0.175
            },
            {
              "pitch": 67,
              "velocity": 63,
              "position": 5.333333,
              "duration": 0.175
            },
            {
              "pitch": 59,
              "velocity": 69,
              "position": 5.666667,
              "duration": 0.175
            },
            {
              "pitch": 62,
              "velocity": 69,
              "position": 5.666667,
              "duration": 0.175
            },
            {
              "pitch": 64,
              "velocity": 69,
              "position": 5.666667,
              "duration": 0.175
            },
            {
              "pitch": 67,
              "velocity": 69,
              "position": 5.666667,
              "duration": 0.175
            },
            {
              "pitch": 59,
              "velocity": 80,
              "position": 6.0,
              "duration": 0.175
            },
            {
              "pitch": 62,
              "velocity": 80,
              "position": 6.0,
              "duration": 0.175
            },
            {
              "pitch": 64,
              "velocity": 80,
              "position": 6.0,
              "duration": 0.175
            },
            {
              "pitch": 67,
              "velocity": 80,
              "position": 6.0,
              "duration": 0.175
            },
            {
              "pitch": 59,
              "velocity": 59,
              "position": 6.333333,
              "duration": 0.158333
            },
            {
              "pitch": 62,
              "velocity": 59,
              "position": 6.333333,
              "duration": 0.158333
            },
            {
              "pitch": 64,
              "velocity": 59,
              "position": 6.333333,
              "duration": 0.158333
            },
            {
              "pitch": 67,
              "velocity": 59,
              "position": 6.333333,
              "duration": 0.158333
            },
            {
              "pitch": 59,
              "velocity": 59,
              "position": 6.666667,
              "duration": 0.183333
            },
            {
              "pitch": 62,
              "velocity": 59,
              "position": 6.666667,
              "duration": 0.183333
            },
            {
              "pitch": 64,
              "velocity": 59,
              "position": 6.666667,
              "duration": 0.183333
            },
            {
              "pitch": 67,
              "velocity": 59,
              "position": 6.666667,
              "duration": 0.183333
            },
            {
              "pitch": 59,
              "velocity": 57,
              "position": 7.0,
              "duration": 0.183333
            },
            {
              "pitch": 62,
              "velocity": 57,
              "position": 7.0,
              "duration": 0.183333
            },
            {
              "pitch": 64,
              "velocity": 57,
              "position": 7.0,
              "duration": 0.183333
            },
            {
              "pitch": 67,
              "velocity": 57,
              "position": 7.0,
              "duration": 0.183333
            },
            {
              "pitch": 59,
              "velocity": 63,
              "position": 7.333333,
              "duration": 0.175
            },
            {
              "pitch": 62,
              "velocity": 63,
              "position": 7.333333,
              "duration": 0.175
            },
            {
              "pitch": 64,
              "velocity": 63,
              "position": 7.333333,
              "duration": 0.175
            },
            {
              "pitch": 67,
              "velocity": 63,
              "position": 7.333333,
              "duration": 0.175
            },
            {
              "pitch": 59,
              "velocity": 69,
              "position": 7.666667,
              "duration": 0.175
            },
            {
              "pitch": 62,
              "velocity": 69,
              "position": 7.666667,
              "duration": 0.175
            },
            {
              "pitch": 64,
              "velocity": 69,
              "position": 7.666667,
              "duration": 0.175
            },
            {
              "pitch": 67,
              "velocity": 69,
              "position": 7.666667,
              "duration": 0.175
            },
            {
              "pitch": 59,
              "velocity": 73,
              "position": 8.0,
              "duration": 0.141667
            },
            {
              "pitch": 62,
              "velocity": 73,
              "position": 8.0,
              "duration": 0.141667
            },
            {
              "pitch": 64,
              "velocity": 73,
              "position": 8.0,
              "duration": 0.141667
            },
            {
              "pitch": 67,
              "velocity": 73,
              "position": 8.0,
              "duration": 0.141667
            },
            {
              "pitch": 59,
              "velocity": 57,
              "position": 8.333333,
              "duration": 0.158333
            },
            {
              "pitch": 62,
              "velocity": 57,
              "position": 8.333333,
              "duration": 0.158333
            },
            {
              "pitch": 64,
              "velocity": 57,
              "position": 8.333333,
              "duration": 0.158333
            },
            {
              "pitch": 67,
              "velocity": 57,
              "position": 8.333333,
              "duration": 0.158333
            },
            {
              "pitch": 59,
              "velocity": 55,
              "position": 8.666667,
              "duration": 0.15
            },
            {
              "pitch": 62,
              "velocity": 55,
              "position": 8.666667,
              "duration": 0.15
            },
            {
              "pitch": 64,
              "velocity": 55,
              "position": 8.666667,
              "duration": 0.15
            },
            {
              "pitch": 67,
              "velocity": 55,
              "position": 8.666667,
              "duration": 0.15
            },
            {
              "pitch": 59,
              "velocity": 59,
              "position": 9.0,
              "duration": 0.15
            },
            {
              "pitch": 62,
              "velocity": 59,
              "position": 9.0,
              "duration": 0.15
            },
            {
              "pitch": 64,
              "velocity": 59,
              "position": 9.0,
              "duration": 0.15
            },
            {
              "pitch": 67,
              "velocity": 59,
              "position": 9.0,
              "duration": 0.15
            },
            {
              "pitch": 59,
              "velocity": 59,
              "position": 9.333333,
              "duration": 0.15
            },
            {
              "pitch": 62,
              "velocity": 59,
              "position": 9.333333,
              "duration": 0.15
            },
            {
              "pitch": 64,
              "velocity": 59,
              "position": 9.333333,
              "duration": 0.15
            },
            {
              "pitch": 67,
              "velocity": 59,
              "position": 9.333333,
              "duration": 0.15
            },
            {
              "pitch": 59,
              "velocity": 59,
              "position": 9.666667,
              "duration": 0.166667
            },
            {
              "pitch": 62,
              "velocity": 59,
              "position": 9.666667,
              "duration": 0.166667
            },
            {
              "pitch": 64,
              "velocity": 59,
              "position": 9.666667,
              "duration": 0.166667
            },
            {
              "pitch": 67,
              "velocity": 59,
              "position": 9.666667,
              "duration": 0.166667
            },
            {
              "pitch": 59,
              "velocity": 59,
              "position": 10.0,
              "duration": 0.158333
            },
            {
              "pitch": 62,
              "velocity": 59,
              "position": 10.0,
              "duration": 0.158333
            },
            {
              "pitch": 64,
              "velocity": 59,
              "position": 10.0,
              "duration": 0.158333
            },
            {
              "pitch": 67,
              "velocity": 59,
              "position": 10.0,
              "duration": 0.158333
            },
            {
              "pitch": 59,
              "velocity": 59,
              "position": 10.333333,
              "duration": 0.166667
            },
            {
              "pitch": 62,
              "velocity": 59,
              "position": 10.333333,
              "duration": 0.166667
            },
            {
              "pitch": 64,
              "velocity": 59,
              "position": 10.333333,
              "duration": 0.166667
            },
            {
              "pitch": 67,
              "velocity": 59,
              "position": 10.333333,
              "duration": 0.166667
            },
            {
              "pitch": 59,
              "velocity": 59,
              "position": 10.666667,
              "duration": 0.166667
            },
            {
              "pitch": 62,
              "velocity": 59,
              "position": 10.666667,
              "duration": 0.166667
            },
            {
              "pitch": 64,
              "velocity": 59,
              "position": 10.666667,
              "duration": 0.166667
            },
            {
              "pitch": 67,
              "velocity": 59,
              "position": 10.666667,
              "duration": 0.166667
            },
            {
              "pitch": 59,
              "velocity": 59,
              "position": 11.0,
              "duration": 0.166667
            },
            {
              "pitch": 62,
              "velocity": 59,
              "position": 11.0,
              "duration": 0.166667
            },
            {
              "pitch": 64,
              "velocity": 59,
              "position": 11.0,
              "duration": 0.166667
            },
            {
              "pitch": 67,
              "velocity": 59,
              "position": 11.0,
              "duration": 0.166667
            },
            {
              "pitch": 59,
              "velocity": 55,
              "position": 11.333333,
              "duration": 0.15
            },
            {
              "pitch": 62,
              "velocity": 55,
              "position": 11.333333,
              "duration": 0.15
            },
            {
              "pitch": 64,
              "velocity": 55,
              "position": 11.333333,
              "duration": 0.15
            },
            {
              "pitch": 67,
              "velocity": 55,
              "position": 11.333333,
              "duration": 0.15
            },
            {
              "pitch": 59,
              "velocity": 59,
              "position": 11.666667,
              "duration": 0.175
            },
            {
              "pitch": 62,
              "velocity": 59,
              "position": 11.666667,
              "duration": 0.175
            },
            {
              "pitch": 64,
              "velocity": 59,
              "position": 11.666667,
              "duration": 0.175
            },
            {
              "pitch": 67,
              "velocity": 59,
              "position": 11.666667,
              "duration": 0.175
            },
            {
              "pitch": 59,
              "velocity": 61,
              "position": 12.0,
              "duration": 0.175
            },
            {
              "pitch": 62,
              "velocity": 61,
              "position": 12.0,
              "duration": 0.175
            },
            {
              "pitch": 64,
              "velocity": 61,
              "position": 12.0,
              "duration": 0.175
            },
            {
              "pitch": 67,
              "velocity": 61,
              "position": 12.0,
              "duration": 0.175
            },
            {
              "pitch": 59,
              "velocity": 59,
              "position": 12.333333,
              "duration": 0.166667
            },
            {
              "pitch": 62,
              "velocity": 59,
              "position": 12.333333,
              "duration": 0.166667
            },
            {
              "pitch": 64,
              "velocity": 59,
              "position": 12.333333,
              "duration": 0.166667
            },
            {
              "pitch": 67,
              "velocity": 59,
              "position": 12.333333,
              "duration": 0.166667
            },
            {
              "pitch": 59,
              "velocity": 61,
              "position": 12.666667,
              "duration": 0.141667
            },
            {
              "pitch": 62,
              "velocity": 61,
              "position": 12.666667,
              "duration": 0.141667
            },
            {
              "pitch": 64,
              "velocity": 61,
              "position": 12.666667,
              "duration": 0.141667
            },
            {
              "pitch": 67,
              "velocity": 61,
              "position": 12.666667,
              "duration": 0.141667
            },
            {
              "pitch": 59,
              "velocity": 63,
              "position": 13.0,
              "duration": 0.158333
            },
            {
              "pitch": 62,
              "velocity": 63,
              "position": 13.0,
              "duration": 0.158333
            },
            {
              "pitch": 64,
              "velocity": 63,
              "position": 13.0,
              "duration": 0.158333
            },
            {
              "pitch": 67,
              "velocity": 63,
              "position": 13.0,
              "duration": 0.158333
            },
            {
              "pitch": 59,
              "velocity": 51,
              "position": 13.333333,
              "duration": 0.175
            },
            {
              "pitch": 62,
              "velocity": 51,
              "position": 13.333333,
              "duration": 0.175
            },
            {
              "pitch": 64,
              "velocity": 51,
              "position": 13.333333,
              "duration": 0.175
            },
            {
              "pitch": 67,
              "velocity": 51,
              "position": 13.333333,
              "duration": 0.175
            },
            {
              "pitch": 59,
              "velocity": 59,
              "position": 13.666667,
              "duration": 0.175
            },
            {
              "pitch": 62,
              "velocity": 59,
              "position": 13.666667,
              "duration": 0.175
            },
            {
              "pitch": 64,
              "velocity": 59,
              "position": 13.666667,
              "duration": 0.175
            },
            {
              "pitch": 67,
              "velocity": 59,
              "position": 13.666667,
              "duration": 0.175
            },
            {
              "pitch": 59,
              "velocity": 61,
              "position": 14.0,
              "duration": 0.166667
            },
            {
              "pitch": 62,
              "velocity": 61,
              "position": 14.0,
              "duration": 0.166667
            },
            {
              "pitch": 64,
              "velocity": 61,
              "position": 14.0,
              "duration": 0.166667
            },
            {
              "pitch": 67,
              "velocity": 61,
              "position": 14.0,
              "duration": 0.166667
            },
            {
              "pitch": 59,
              "velocity": 63,
              "position": 14.333333,
              "duration": 0.158333
            },
            {
              "pitch": 62,
              "velocity": 63,
              "position": 14.333333,
              "duration": 0.158333
            },
            {
              "pitch": 64,
              "velocity": 63,
              "position": 14.333333,
              "duration": 0.158333
            },
            {
              "pitch": 67,
              "velocity": 63,
              "position": 14.333333,
              "duration": 0.158333
            },
            {
              "pitch": 59,
              "velocity": 61,
              "position": 14.666667,
              "duration": 0.158333
            },
            {
              "pitch": 62,
              "velocity": 61,
              "position": 14.666667,
              "duration": 0.158333
            },
            {
              "pitch": 64,
              "velocity": 61,
              "position": 14.666667,
              "duration": 0.158333
            },
            {
              "pitch": 67,
              "velocity": 61,
              "position": 14.666667,
              "duration": 0.158333
            },
            {
              "pitch": 59,
              "velocity": 67,
              "position": 15.0,
              "duration": 0.175
            },
            {
              "pitch": 62,
              "velocity": 67,
              "position": 15.0,
              "duration": 0.175
            },
            {
              "pitch": 64,
              "velocity": 67,
              "position": 15.0,
              "duration": 0.175
            },
            {
              "pitch": 67,
              "velocity": 67,
              "position": 15.0,
              "duration": 0.175
            },
            {
              "pitch": 59,
              "velocity": 61,
              "position": 15.333333,
              "duration": 0.166667
            },
            {
              "pitch": 62,
              "velocity": 61,
              "position": 15.333333,
              "duration": 0.166667
            },
            {
              "pitch": 64,
              "velocity": 61,
              "position": 15.333333,
              "duration": 0.166667
            },
            {
              "pitch": 67,
              "velocity": 61,
              "position": 15.333333,
              "duration": 0.166667
            },
            {
              "pitch": 59,
              "velocity": 69,
              "position": 15.666667,
              "duration": 0.166667
            },
            {
              "pitch": 62,
              "velocity": 69,
              "position": 15.666667,
              "duration": 0.166667
            },
            {
              "pitch": 64,
              "velocity": 69,
              "position": 15.666667,
              "duration": 0.166667
            },
            {
              "pitch": 67,
              "velocity": 69,
              "position": 15.666667,
              "duration": 0.166667
            }
          ]
        },
        "12": {
          "ctab": {
            "srcChannel": 12,
            "name": "Guitar",
            "accType": "CHORD2",
            "editable": true,
            "mutedNotes": [],
            "mutedChords": [],
            "sourceChordNote": 0,
            "sourceChordType": "Maj7",
            "ctb2Main": {
              "ntr": "ROOT_FIXED",
              "ntt": "CHORD",
              "bassOn": false,
              "noteLowLimit": 40,
              "noteHighLimit": 76,
              "chordRootUpperLimit": 127,
              "rtr": "NOTE_GENERATOR"
            }
          },
          "notes": [
            {
              "pitch": 64,
              "velocity": 65,
              "position": 1.0,
              "duration": 0.116667
            },
            {
              "pitch": 67,
              "velocity": 75,
              "position": 1.0,
              "duration": 0.125
            },
            {
              "pitch": 64,
              "velocity": 65,
              "position": 3.0,
              "duration": 0.116667
            },
            {
              "pitch": 67,
              "velocity": 75,
              "position": 3.0,
              "duration": 0.125
            },
            {
              "pitch": 71,
              "velocity": 85,
              "position": 3.0,
              "duration": 0.1
            },
            {
              "pitch": 64,
              "velocity": 65,
              "position": 5.0,
              "duration": 0.141667
            },
            {
              "pitch": 71,
              "velocity": 85,
              "position": 5.0,
              "duration": 0.125
            },
            {
              "pitch": 67,
              "velocity": 75,
              "position": 5.008333,
              "duration": 0.15
            },
            {
              "pitch": 64,
              "velocity": 65,
              "position": 7.0,
              "duration": 0.116667
            },
            {
              "pitch": 67,
              "velocity": 75,
              "position": 7.0,
              "duration": 0.125
            },
            {
              "pitch": 71,
              "velocity": 85,
              "position": 7.0,
              "duration": 0.1
            },
            {
              "pitch": 64,
              "velocity": 65,
              "position": 9.0,
              "duration": 0.116667
            },
            {
              "pitch": 67,
              "velocity": 75,
              "position": 9.0,
              "duration": 0.125
            },
            {
              "pitch": 71,
              "velocity": 85,
              "position": 9.0,
              "duration": 0.1
            },
            {
              "pitch": 64,
              "velocity": 65,
              "position": 11.0,
              "duration": 0.15
            },
            {
              "pitch": 67,
              "velocity": 75,
              "position": 11.0,
              "duration": 0.116667
            },
            {
              "pitch": 71,
              "velocity": 85,
              "position": 11.0,
              "duration": 0.116667
            },
            {
              "pitch": 64,
              "velocity": 65,
              "position": 13.0,
              "duration": 0.225
            },
            {
              "pitch": 67,
              "velocity": 85,
              "position": 13.0,
              "duration": 0.141667
            },
            {
              "pitch": 71,
              "velocity": 85,
              "position": 13.0,
              "duration": 0.166667
            },
            {
              "pitch": 64,
              "velocity": 65,
              "position": 15.0,
              "duration": 0.1
            },
            {
              "pitch": 67,
              "velocity": 75,
              "position": 15.0,
              "duration": 0.141667
            },
            {
              "pitch": 71,
              "velocity": 85,
              "position": 15.0,
              "duration": 0.125
            }
          ]
        },
        "13": {
          "ctab": {
            "srcChannel": 13,
            "name": "Strings",
            "accType": "PAD",
            "editable": true,
            "mutedNotes": [],
            "mutedChords": [],
            "sourceChordNote": 0,
            "sourceChordType": "Maj7",
            "ctb2Main": {
              "ntr": "ROOT_FIXED",
              "ntt": "MELODY",
              "bassOn": false,
              "noteLowLimit": 36,
              "noteHighLimit": 96,
              "chordRootUpperLimit": 127,
              "rtr": "PITCH_SHIFT"
            }
          },
          "notes": [
            {
              "pitch": 71,
              "velocity": 41,
              "position": 0.0,
              "duration": 95.941667
            },
            {
              "pitch": 64,
              "velocity": 41,
              "position": 0.008333,
              "duration": 95.933333
            }
          ]
        }
      }
    },
    "Main_B": {
      "type": "Main_B",
      "sizeInBeats": 16,
      "channels": {
        "9": {
          "ctab": {
            "srcChannel": 9,
            "name": "Drums",
            "accType": "RHYTHM",
            "editable": false,
            "mutedNotes": [],
            "mutedChords": [],
            "sourceChordNote": 0,
            "sourceChordType": "Maj",
            "ctb2Main": {
              "ntr": "ROOT_FIXED",
              "ntt": "BYPASS",
              "bassOn": false,
              "noteLowLimit": 20,
              "noteHighLimit": 127,
              "chordRootUpperLimit": 127,
              "rtr": "RETRIGGER"
            }
          },
          "notes": [
            {
              "pitch": 35,
              "velocity": 100,
              "position": 0.0,
              "duration": 0.208333
            },
            {
              "pitch": 42,
              "velocity": 90,
              "position": 0.0,
              "duration": 0.208333
            },
            {
              "pitch": 49,
              "velocity": 80,
              "position": 0.0,
              "duration": 0.208333
            },
            {
              "pitch": 42,
              "velocity": 70,
              "position": 0.333333,
              "duration": 0.208333
            },
            {
              "pitch": 42,
              "velocity": 80,
              "position": 0.666667,
              "duration": 0.208333
            },
            {
              "pitch": 37,
              "velocity": 100,
              "position": 1.0,
              "duration": 0.208333
            },
            {
              "pitch": 38,
              "velocity": 90,
              "position": 1.0,
              "duration": 0.208333
            },
            {
              "pitch": 42,
              "velocity": 90,
              "position": 1.0,
              "duration": 0.208333
            },
            {
              "pitch": 54,
              "velocity": 90,
              "position": 1.0,
              "duration": 0.208333
            },
            {
              "pitch": 46,
              "velocity": 90,
              "position": 1.333333,
              "duration": 0.208333
            },
            {
              "pitch": 35,
              "velocity": 80,
              "position": 1.666667,
              "duration": 0.208333
            },
            {
              "pitch": 42,
              "velocity": 80,
              "position": 1.666667,
              "duration": 0.208333
            },
            {
              "pitch": 35,
              "velocity": 100,
              "position": 2.0,
              "duration": 0.208333
            },
            {
              "pitch": 42,
              "velocity": 90,
              "position": 2.0,
              "duration": 0.208333
            },
            {
              "pitch": 42,
              "velocity": 70,
              "position": 2.333333,
              "duration": 0.208333
            },
            {
              "pitch": 35,
              "velocity": 80,
              "position": 2.666667,
              "duration": 0.208333
            },
            {
              "pitch": 42,
              "velocity": 80,
              "position": 2.666667,
              "duration": 0.208333
            },
            {
              "pitch": 37,
              "velocity": 100,
              "position": 3.0,
              "duration": 0.208333
            },
            {
              "pitch": 38,
              "velocity": 100,
              "position": 3.0,
              "duration": 0.208333
            },
            {
              "pitch": 42,
              "velocity": 90,
              "position": 3.0,
              "duration": 0.208333
            },
            {
              "pitch": 54,
              "velocity": 90,
              "position": 3.0,
              "duration": 0.208333
            },
            {
              "pitch": 42,
              "velocity": 70,
              "position": 3.333333,
              "duration": 0.208333
            },
            {
              "pitch": 35,
              "velocity": 80,
              "position": 3.666667,
              "duration": 0.208333
            },
            {
              "pitch": 42,
              "velocity": 60,
              "position": 3.666667,
              "duration": 0.208333
            },
            {
              "pitch": 35,
              "velocity": 100,
              "position": 4.0,
              "duration": 0.208333
            },
            {
              "pitch": 42,
              "velocity": 90,
              "position": 4.0,
              "duration": 0.208333
            },
            {
              "pitch": 42,
              "velocity": 70,
              "position": 4.333333,
              "duration": 0.208333
            },
            {
              "pitch": 42,
              "velocity": 80,
              "position": 4.666667,
              "duration": 0.208333
            },
            {
              "pitch": 37,
              "velocity": 100,
              "position": 5.0,
              "duration": 0.208333
            },
            {
              "pitch": 38,
              "velocity": 90,
              "position": 5.0,
              "duration": 0.208333
            },
            {
              "pitch": 42,
              "velocity": 90,
              "position": 5.0,
              "duration": 0.208333
            },
            {
              "pitch": 54,
              "velocity": 90,
              "position": 5.0,
              "duration": 0.208333
            },
            {
              "pitch": 42,
              "velocity": 70,
              "position": 5.333333,
              "duration": 0.208333
            },
            {
              "pitch": 35,
              "velocity": 80,
              "position": 5.666667,
              "duration": 0.208333
            },
            {
              "pitch": 42,
              "velocity": 80,
              "position": 5.666667,
              "duration": 0.208333
            },
            {
              "pitch": 35,
              "velocity": 100,
              "position": 6.0,
              "duration": 0.208333
            },
            {
              "pitch": 42,
              "velocity": 90,
              "position": 6.0,
              "duration": 0.208333
            },
            {
              "pitch": 42,
              "velocity": 70,
              "position": 6.333333,
              "duration": 0.208333
            },
            {
              "pitch": 35,
              "velocity": 80,
              "position": 6.666667,
              "duration": 0.208333
            },
            {
              "pitch": 42,
              "velocity": 80,
              "position": 6.666667,
              "duration": 0.208333
            },
            {
              "pitch": 37,
              "velocity": 100,
              "position": 7.0,
              "duration": 0.208333
            },
            {
              "pitch": 38,
              "velocity": 100,
              "position": 7.0,
              "duration": 0.208333
            },
            {
              "pitch": 42,
              "velocity": 90,
              "position": 7.0,
              "duration": 0.208333
            },
            {
              "pitch": 54,
              "velocity": 90,
              "position": 7.0,
              "duration": 0.208333
            },
            {
              "pitch": 42,
              "velocity": 70,
              "position": 7.333333,
              "duration": 0.208333
            },
            {
              "pitch": 35,
              "velocity": 80,
              "position": 7.666667,
              "duration": 0.208333
            },
            {
              "pitch": 42,
              "velocity": 60,
              "position": 7.666667,
              "duration": 0.208333
            },
            {
              "pitch": 35,
              "velocity": 100,
              "position": 8.0,
              "duration": 0.208333
            },
            {
              "pitch": 42,
              "velocity": 90,
              "position": 8.0,
              "duration": 0.208333
            },
            {
              "pitch": 42,
              "velocity": 70,
              "position": 8.333333,
              "duration": 0.208333
            },
            {
              "pitch": 42,
              "velocity": 80,
              "position": 8.666667,
              "duration": 0.208333
            },
            {
              "pitch": 37,
              "velocity": 100,
              "position": 9.0,
              "duration": 0.208333
            },
            {
              "pitch": 38,
              "velocity": 90,
              "position": 9.0,
              "duration": 0.208333
            },
            {
              "pitch": 42,
              "velocity": 90,
              "position": 9.0,
              "duration": 0.208333
            },
            {
              "pitch": 54,
              "velocity": 90,
              "position": 9.0,
              "duration": 0.208333
            },
            {
              "pitch": 42,
              "velocity": 70,
              "position": 9.333333,
              "duration": 0.208333
            },
            {
              "pitch": 35,
              "velocity": 80,
              "position": 9.666667,
              "duration": 0.208333
            },
            {
              "pitch": 42,
              "velocity": 80,
              "position": 9.666667,
              "duration": 0.208333
            },
            {
              "pitch": 35,
              "velocity": 100,
              "position": 10.0,
              "duration": 0.208333
            },
            {
              "pitch": 42,
              "velocity": 90,
              "position": 10.0,
              "duration": 0.208333
            },
            {
              "pitch": 42,
              "velocity": 70,
              "position": 10.333333,
              "duration": 0.208333
            },
            {
              "pitch": 35,
              "velocity": 80,
              "position": 10.666667,
              "duration": 0.208333
            },
            {
              "pitch": 42,
              "velocity": 80,
              "position": 10.666667,
              "duration": 0.208333
            },
            {
              "pitch": 48,
              "velocity": 70,
              "position": 10.666667,
              "duration": 0.208333
            },
            {
              "pitch": 37,
              "velocity": 100,
              "position": 11.0,
              "duration": 0.208333
            },
            {
              "pitch": 38,
              "velocity": 100,
              "position": 11.0,
              "duration": 0.208333
            },
            {
              "pitch": 42,
              "velocity": 90,
              "position": 11.0,
              "duration": 0.208333
            },
            {
              "pitch": 54,
              "velocity": 90,
              "position": 11.0,
              "duration": 0.208333
            },
            {
              "pitch": 42,
              "velocity": 70,
              "position": 11.333333,
              "duration": 0.208333
            },
            {
              "pitch": 45,
              "velocity": 80,
              "position": 11.333333,
              "duration": 0.208333
            },
            {
              "pitch": 35,
              "velocity": 80,
              "position": 11.666667,
              "duration": 0.208333
            },
            {
              "pitch": 42,
              "velocity": 60,
              "position": 11.666667,
              "duration": 0.208333
            },
            {
              "pitch": 45,
              "velocity": 60,
              "position": 11.666667,
              "duration": 0.208333
            },
            {
              "pitch": 35,
              "velocity": 100,
              "position": 12.0,
              "duration": 0.208333
            },
            {
              "pitch": 42,
              "velocity": 90,
              "position": 12.0,
              "duration": 0.208333
            },
            {
              "pitch": 42,
              "velocity": 70,
              "position": 12.333333,
              "duration": 0.208333
            },
            {
              "pitch": 42,
              "velocity": 80,
              "position": 12.666667,
              "duration": 0.208333
            },
            {
              "pitch": 37,
              "velocity": 100,
              "position": 13.0,
              "duration": 0.208333
            },
            {
              "pitch": 38,
              "velocity": 90,
              "position": 13.0,
              "duration": 0.208333
            },
            {
              "pitch": 42,
              "velocity": 90,
              "position": 13.0,
              "duration": 0.208333
            },
            {
              "pitch": 42,
              "velocity": 70,
              "position": 13.333333,
              "duration": 0.208333
            },
            {
              "pitch": 35,
              "velocity": 80,
              "position": 13.666667,
              "duration": 0.208333
            },
            {
              "pitch": 42,
              "velocity": 80,
              "position": 13.666667,
              "duration": 0.208333
            },
            {
              "pitch": 35,
              "velocity": 100,
              "position": 14.0,
              "duration": 0.208333
            },
            {
              "pitch": 42,
              "velocity": 90,
              "position": 14.0,
              "duration": 0.208333
            },
            {
              "pitch": 38,
              "velocity": 90,
              "position": 14.333333,
              "duration": 0.208333
            },
            {
              "pitch": 42,
              "velocity": 70,
              "position": 14.333333,
              "duration": 0.208333
            },
            {
              "pitch": 35,
              "velocity": 80,
              "position": 14.666667,
              "duration": 0.208333
            },
            {
              "pitch": 42,
              "velocity": 80,
              "position": 14.666667,
              "duration": 0.208333
            },
            {
              "pitch": 37,
              "velocity": 100,
              "position": 15.0,
              "duration": 0.208333
            },
            {
              "pitch": 38,
              "velocity": 100,
              "position": 15.0,
              "duration": 0.208333
            },
            {
              "pitch": 42,
              "velocity": 90,
              "position": 15.0,
              "duration": 0.208333
            },
            {
              "pitch": 42,
              "velocity": 70,
              "position": 15.333333,
              "duration": 0.208333
            },
            {
              "pitch": 35,
              "velocity": 80,
              "position": 15.666667,
              "duration": 0.208333
            },
            {
              "pitch": 38,
              "velocity": 70,
              "position": 15.666667,
              "duration": 0.208333
            },
            {
              "pitch": 42,
              "velocity": 60,
              "position": 15.666667,
              "duration": 0.208333
            }
          ]
        },
        "10": {
          "ctab": {
            "srcChannel": 10,
            "name": "Bass",
            "accType": "BASS",
            "editable": true,
            "mutedNotes": [],
            "mutedChords": [],
            "sourceChordNote": 0,
            "sourceChordType": "Maj7",
            "ctb2Main": {
              "ntr": "ROOT_TRANSPOSITION",
              "ntt": "BYPASS",
              "bassOn": true,
              "noteLowLimit": 20,
              "noteHighLimit": 60,
              "chordRootUpperLimit": 127,
              "rtr": "NOTE_GENERATOR"
            }
          },
          "notes": [
            {
              "pitch": 36,
              "velocity": 93,
              "position": 0.0,
              "duration": 1.666667
            },
            {
              "pitch": 43,
              "velocity": 91,
              "position": 1.666667,
              "duration": 0.275
            },
            {
              "pitch": 36,
              "velocity": 93,
              "position": 2.0,
              "duration": 1.533333
            },
            {
              "pitch": 36,
              "velocity": 91,
              "position": 3.666667,
              "duration": 0.275
            },
            {
              "pitch": 36,
              "velocity": 93,
              "position": 4.0,
              "duration": 1.533333
            },
            {
              "pitch": 36,
              "velocity": 91,
              "position": 5.666667,
              "duration": 0.275
            },
            {
              "pitch": 36,
              "velocity": 93,
              "position": 6.0,
              "duration": 1.533333
            },
            {
              "pitch": 36,
              "velocity": 91,
              "position": 7.666667,
              "duration": 0.275
            },
            {
              "pitch": 36,
              "velocity": 89,
              "position": 8.0,
              "duration": 1.758333
            },
            {
              "pitch": 40,
              "velocity": 93,
              "position": 9.666667,
              "duration": 0.383333
            },
            {
              "pitch": 43,
              "velocity": 87,
              "position": 10.0,
              "duration": 1.05
            },
            {
              "pitch": 40,
              "velocity": 72,
              "position": 11.0,
              "duration": 0.666667
            },
            {
              "pitch": 43,
              "velocity": 85,
              "position": 11.666667,
              "duration": 0.375
            },
            {
              "pitch": 36,
              "velocity": 72,
              "position": 12.0,
              "duration": 1.8
            },
            {
              "pitch": 40,
              "velocity": 87,
              "position": 13.666667,
              "duration": 0.391667
            },
            {
              "pitch": 43,
              "velocity": 91,
              "position": 14.0,
              "duration": 1.0
            },
            {
              "pitch": 40,
              "velocity": 102,
              "position": 15.0,
              "duration": 0.708333
            },
            {
              "pitch": 43,
              "velocity": 89,
              "position": 15.666667,
              "duration": 0.275
            }
          ]
        },
        "11": {
          "ctab": {
            "srcChannel": 11,
            "name": "Piano",
            "accType": "CHORD1",
            "editable": true,
            "mutedNotes": [],
            "mutedChords": [],
            "sourceChordNote": 0,
            "sourceChordType": "Maj7",
            "ctb2Main": {
              "ntr": "ROOT_FIXED",
              "ntt": "CHORD",
              "bassOn": false,
              "noteLowLimit": 48,
              "noteHighLimit": 84,
              "chordRootUpperLimit": 127,
              "rtr": "NOTE_GENERATOR"
            }
          },
          "notes": [
            {
              "pitch": 59,
              "velocity": 80,
              "position": 0.0,
              "duration": 0.175
            },
            {
              "pitch": 62,
              "velocity": 80,
              "position": 0.0,
              "duration": 0.175
            },
            {
              "pitch": 64,
              "velocity": 80,
              "position": 0.0,
              "duration": 0.175
            },
            {
              "pitch": 67,
              "velocity": 80,
              "position": 0.0,
              "duration": 0.175
            },
            {
              "pitch": 59,
              "velocity": 59,
              "position": 0.333333,
              "duration": 0.158333
            },
            {
              "pitch": 62,
              "velocity": 59,
              "position": 0.333333,
              "duration": 0.158333
            },
            {
              "pitch": 64,
              "velocity": 59,
              "position": 0.333333,
              "duration": 0.158333
            },
            {
              "pitch": 67,
              "velocity": 59,
              "position": 0.333333,
              "duration": 0.158333
            },
            {
              "pitch": 59,
              "velocity": 59,
              "position": 0.666667,
              "duration": 0.183333
            },
            {
              "pitch": 62,
              "velocity": 59,
              "position": 0.666667,
              "duration": 0.183333
            },
            {
              "pitch": 64,
              "velocity": 59,
              "position": 0.666667,
              "duration": 0.183333
            },
            {
              "pitch": 67,
              "velocity": 59,
              "position": 0.666667,
              "duration": 0.183333
            },
            {
              "pitch": 59,
              "velocity": 57,
              "position": 1.0,
              "duration": 0.183333
            },
            {
              "pitch": 62,
              "velocity": 57,
              "position": 1.0,
              "duration": 0.183333
            },
            {
              "pitch": 64,
              "velocity": 57,
              "position": 1.0,
              "duration": 0.183333
            },
            {
              "pitch": 67,
              "velocity": 57,
              "position": 1.0,
              "duration": 0.183333
            },
            {
              "pitch": 59,
              "velocity": 63,
              "position": 1.333333,
              "duration": 0.175
            },
            {
              "pitch": 62,
              "velocity": 63,
              "position": 1.333333,
              "duration": 0.175
            },
            {
              "pitch": 64,
              "velocity": 63,
              "position": 1.333333,
              "duration": 0.175
            },
            {
              "pitch": 67,
              "velocity": 63,
              "position": 1.333333,
              "duration": 0.175
            },
            {
              "pitch": 59,
              "velocity": 69,
              "position": 1.666667,
              "duration": 0.175
            },
            {
              "pitch": 62,
              "velocity": 69,
              "position": 1.666667,
              "duration": 0.175
            },
            {
              "pitch": 64,
              "velocity": 69,
              "position": 1.666667,
              "duration": 0.175
            },
            {
              "pitch": 67,
              "velocity": 69,
              "position": 1.666667,
              "duration": 0.175
            },
            {
              "pitch": 59,
              "velocity": 80,
              "position": 2.0,
              "duration": 0.175
            },
            {
              "pitch": 62,
              "velocity": 80,
              "position": 2.0,
              "duration": 0.175
            },
            {
              "pitch": 64,
              "velocity": 80,
              "position": 2.0,
              "duration": 0.175
            },
            {
              "pitch": 67,
              "velocity": 80,
              "position": 2.0,
              "duration": 0.175
            },
            {
              "pitch": 59,
              "velocity": 59,
              "position": 2.333333,
              "duration": 0.158333
            },
            {
              "pitch": 62,
              "velocity": 59,
              "position": 2.333333,
              "duration": 0.158333
            },
            {
              "pitch": 64,
              "velocity": 59,
              "position": 2.333333,
              "duration": 0.158333
            },
            {
              "pitch": 67,
              "velocity": 59,
              "position": 2.333333,
              "duration": 0.158333
            },
            {
              "pitch": 59,
              "velocity": 59,
              "position": 2.666667,
              "duration": 0.183333
            },
            {
              "pitch": 62,
              "velocity": 59,
              "position": 2.666667,
              "duration": 0.183333
            },
            {
              "pitch": 64,
              "velocity": 59,
              "position": 2.666667,
              "duration": 0.183333
            },
            {
              "pitch": 67,
              "velocity": 59,
              "position": 2.666667,
              "duration": 0.183333
            },
            {
              "pitch": 59,
              "velocity": 57,
              "position": 3.0,
              "duration": 0.183333
            },
            {
              "pitch": 62,
              "velocity": 57,
              "position": 3.0,
              "duration": 0.183333
            },
            {
              "pitch": 64,
              "velocity": 57,
              "position": 3.0,
              "duration": 0.183333
            },
            {
              "pitch": 67,
              "velocity": 57,
              "position": 3.0,
              "duration": 0.183333
            },
            {
              "pitch": 59,
              "velocity": 63,
              "position": 3.333333,
              "duration": 0.175
            },
            {
              "pitch": 62,
              "velocity": 63,
              "position": 3.333333,
              "duration": 0.175
            },
            {
              "pitch": 64,
              "velocity": 63,
              "position": 3.333333,
              "duration": 0.175
            },
            {
              "pitch": 67,
              "velocity": 63,
              "position": 3.333333,
              "duration": 0.175
            },
            {
              "pitch": 59,
              "velocity": 69,
              "position": 3.666667,
              "duration": 0.175
            },
            {
              "pitch": 62,
              "velocity": 69,
              "position": 3.666667,
              "duration": 0.175
            },
            {
              "pitch": 64,
              "velocity": 69,
              "position": 3.666667,
              "duration": 0.175
            },
            {
              "pitch": 67,
              "velocity": 69,
              "position": 3.666667,
              "duration": 0.175
            },
            {
              "pitch": 59,
              "velocity": 80,
              "position": 4.0,
              "duration": 0.175
            },
            {
              "pitch": 62,
              "velocity": 80,
              "position": 4.0,
              "duration": 0.175
            },
            {
              "pitch": 64,
              "velocity": 80,
              "position": 4.0,
              "duration": 0.175
            },
            {
              "pitch": 67,
              "velocity": 80,
              "position": 4.0,
              "duration": 0.175
            },
            {
              "pitch": 59,
              "velocity": 59,
              "position": 4.333333,
              "duration": 0.158333
            },
            {
              "pitch": 62,
              "velocity": 59,
              "position": 4.333333,
              "duration": 0.158333
            },
            {
              "pitch": 64,
              "velocity": 59,
              "position": 4.333333,
              "duration": 0.158333
            },
            {
              "pitch": 67,
              "velocity": 59,
              "position": 4.333333,
              "duration": 0.158333
            },
            {
              "pitch": 59,
              "velocity": 59,
              "position": 4.666667,
              "duration": 0.183333
            },
            {
              "pitch": 62,
              "velocity": 59,
              "position": 4.666667,
              "duration": 0.183333
            },
            {
              "pitch": 64,
              "velocity": 59,
              "position": 4.666667,
              "duration": 0.183333
            },
            {
              "pitch": 67,
              "velocity": 59,
              "position": 4.666667,
              "duration": 0.183333
            },
            {
              "pitch": 59,
              "velocity": 57,
              "position": 5.0,
              "duration": 0.183333
            },
            {
              "pitch": 62,
              "velocity": 57,
              "position": 5.0,
              "duration": 0.183333
            },
            {
              "pitch": 64,
              "velocity": 57,
              "position": 5.0,
              "duration": 0.183333
            },
            {
              "pitch": 67,
              "velocity": 57,
              "position": 5.0,
              "duration": 0.183333
            },
            {
              "pitch": 59,
              "velocity": 63,
              "position": 5.333333,
              "duration": 0.175
            },
            {
              "pitch": 62,
              "velocity": 63,
              "position": 5.333333,
              "duration": 0.175
            },
            {
              "pitch": 64,
              "velocity": 63,
              "position": 5.333333,
              "duration": 0.175
            },
            {
              "pitch": 67,
              "velocity": 63,
              "position": 5.333333,
              "duration": 0.175
            },
            {
              "pitch": 59,
              "velocity": 69,
              "position": 5.666667,
              "duration": 0.175
            },
            {
              "pitch": 62,
              "velocity": 69,
              "position": 5.666667,
              "duration": 0.175
            },
            {
              "pitch": 64,
              "velocity": 69,
              "position": 5.666667,
              "duration": 0.175
            },
            {
              "pitch": 67,
              "velocity": 69,
              "position": 5.666667,
              "duration": 0.175
            },
            {
              "pitch": 59,
              "velocity": 80,
              "position": 6.0,
              "duration": 0.175
            },
            {
              "pitch": 62,
              "velocity": 80,
              "position": 6.0,
              "duration": 0.175
            },
            {
              "pitch": 64,
              "velocity": 80,
              "position": 6.0,
              "duration": 0.175
            },
            {
              "pitch": 67,
              "velocity": 80,
              "position": 6.0,
              "duration": 0.175
            },
            {
              "pitch": 59,
              "velocity": 59,
              "position": 6.333333,
              "duration": 0.158333
            },
            {
              "pitch": 62,
              "velocity": 59,
              "position": 6.333333,
              "duration": 0.158333
            },
            {
              "pitch": 64,
              "velocity": 59,
              "position": 6.333333,
              "duration": 0.158333
            },
            {
              "pitch": 67,
              "velocity": 59,
              "position": 6.333333,
              "duration": 0.158333
            },
            {
              "pitch": 59,
              "velocity": 59,
              "position": 6.666667,
              "duration": 0.183333
            },
            {
              "pitch": 62,
              "velocity": 59,
              "position": 6.666667,
              "duration": 0.183333
            },
            {
              "pitch": 64,
              "velocity": 59,
              "position": 6.666667,
              "duration": 0.183333
            },
            {
              "pitch": 67,
              "velocity": 59,
              "position": 6.666667,
              "duration": 0.183333
            },
            {
              "pitch": 59,
              "velocity": 57,
              "position": 7.0,
              "duration": 0.183333
            },
            {
              "pitch": 62,
              "velocity": 57,
              "position": 7.0,
              "duration": 0.183333
            },
            {
              "pitch": 64,
              "velocity": 57,
              "position": 7.0,
              "duration": 0.183333
            },
            {
              "pitch": 67,
              "velocity": 57,
              "position": 7.0,
              "duration": 0.183333
            },
            {
              "pitch": 59,
              "velocity": 63,
              "position": 7.333333,
              "duration": 0.175
            },
            {
              "pitch": 62,
              "velocity": 63,
              "position": 7.333333,
              "duration": 0.175
            },
            {
              "pitch": 64,
              "velocity": 63,
              "position": 7.333333,
              "duration": 0.175
            },
            {
              "pitch": 67,
              "velocity": 63,
              "position": 7.333333,
              "duration": 0.175
            },
            {
              "pitch": 59,
              "velocity": 69,
              "position": 7.666667,
              "duration": 0.175
            },
            {
              "pitch": 62,
              "velocity": 69,
              "position": 7.666667,
              "duration": 0.175
            },
            {
              "pitch": 64,
              "velocity": 69,
              "position": 7.666667,
              "duration": 0.175
            },
            {
              "pitch": 67,
              "velocity": 69,
              "position": 7.666667,
              "duration": 0.175
            },
            {
              "pitch": 59,
              "velocity": 73,
              "position": 8.0,
              "duration": 0.141667
            },
            {
              "pitch": 62,
              "velocity": 73,
              "position": 8.0,
              "duration": 0.141667
            },
            {
              "pitch": 64,
              "velocity": 73,
              "position": 8.0,
              "duration": 0.141667
            },
            {
              "pitch": 67,
              "velocity": 73,
              "position": 8.0,
              "duration": 0.141667
            },
            {
              "pitch": 59,
              "velocity": 57,
              "position": 8.333333,
              "duration": 0.158333
            },
            {
              "pitch": 62,
              "velocity": 57,
              "position": 8.333333,
              "duration": 0.158333
            },
            {
              "pitch": 64,
              "velocity": 57,
              "position": 8.333333,
              "duration": 0.158333
            },
            {
              "pitch": 67,
              "velocity": 57,
              "position": 8.333333,
              "duration": 0.158333
            },
            {
              "pitch": 59,
              "velocity": 55,
              "position": 8.666667,
              "duration": 0.15
            },
            {
              "pitch": 62,
              "velocity": 55,
              "position": 8.666667,
              "duration": 0.15
            },
            {
              "pitch": 64,
              "velocity": 55,
              "position": 8.666667,
              "duration": 0.15
            },
            {
              "pitch": 67,
              "velocity": 55,
              "position": 8.666667,
              "duration": 0.15
            },
            {
              "pitch": 59,
              "velocity": 59,
              "position": 9.0,
              "duration": 0.15
            },
            {
              "pitch": 62,
              "velocity": 59,
              "position": 9.0,
              "duration": 0.15
            },
            {
              "pitch": 64,
              "velocity": 59,
              "position": 9.0,
              "duration": 0.15
            },
            {
              "pitch": 67,
              "velocity": 59,
              "position": 9.0,
              "duration": 0.15
            },
            {
              "pitch": 59,
              "velocity": 59,
              "position": 9.333333,
              "duration": 0.15
            },
            {
              "pitch": 62,
              "velocity": 59,
              "position": 9.333333,
              "duration": 0.15
            },
            {
              "pitch": 64,
              "velocity": 59,
              "position": 9.333333,
              "duration": 0.15
            },
            {
              "pitch": 67,
              "velocity": 59,
              "position": 9.333333,
              "duration": 0.15
            },
            {
              "pitch": 59,
              "velocity": 59,
              "position": 9.666667,
              "duration": 0.166667
            },
            {
              "pitch": 62,
              "velocity": 59,
              "position": 9.666667,
              "duration": 0.166667
            },
            {
              "pitch": 64,
              "velocity": 59,
              "position": 9.666667,
              "duration": 0.166667
            },
            {
              "pitch": 67,
              "velocity": 59,
              "position": 9.666667,
              "duration": 0.166667
            },
            {
              "pitch": 59,
              "velocity": 59,
              "position": 10.0,
              "duration": 0.158333
            },
            {
              "pitch": 62,
              "velocity": 59,
              "position": 10.0,
              "duration": 0.158333
            },
            {
              "pitch": 64,
              "velocity": 59,
              "position": 10.0,
              "duration": 0.158333
            },
            {
              "pitch": 67,
              "velocity": 59,
              "position": 10.0,
              "duration": 0.158333
            },
            {
              "pitch": 59,
              "velocity": 59,
              "position": 10.333333,
              "duration": 0.166667
            },
            {
              "pitch": 62,
              "velocity": 59,
              "position": 10.333333,
              "duration": 0.166667
            },
            {
              "pitch": 64,
              "velocity": 59,
              "position": 10.333333,
              "duration": 0.166667
            },
            {
              "pitch": 67,
              "velocity": 59,
              "position": 10.333333,
              "duration": 0.166667
            },
            {
              "pitch": 59,
              "velocity": 59,
              "position": 10.666667,
              "duration": 0.166667
            },
            {
              "pitch": 62,
              "velocity": 59,
              "position": 10.666667,
              "duration": 0.166667
            },
            {
              "pitch": 64,
              "velocity": 59,
              "position": 10.666667,
              "duration": 0.166667
            },
            {
              "pitch": 67,
              "velocity": 59,
              "position": 10.666667,
              "duration": 0.166667
            },
            {
              "pitch": 59,
              "velocity": 59,
              "position": 11.0,
              "duration": 0.166667
            },
            {
              "pitch": 62,
              "velocity": 59,
              "position": 11.0,
              "duration": 0.166667
            },
            {
              "pitch": 64,
              "velocity": 59,
              "position": 11.0,
              "duration": 0.166667
            },
            {
              "pitch": 67,
              "velocity": 59,
              "position": 11.0,
              "duration": 0.166667
            },
            {
              "pitch": 59,
              "velocity": 55,
              "position": 11.333333,
              "duration": 0.15
            },
            {
              "pitch": 62,
              "velocity": 55,
              "position": 11.333333,
              "duration": 0.15
            },
            {
              "pitch": 64,
              "velocity": 55,
              "position": 11.333333,
              "duration": 0.15
            },
            {
              "pitch": 67,
              "velocity": 55,
              "position": 11.333333,
              "duration": 0.15
            },
            {
              "pitch": 59,
              "velocity": 59,
              "position": 11.666667,
              "duration": 0.175
            },
            {
              "pitch": 62,
              "velocity": 59,
              "position": 11.666667,
              "duration": 0.175
            },
            {
              "pitch": 64,
              "velocity": 59,
              "position": 11.666667,
              "duration": 0.175
            },
            {
              "pitch": 67,
              "velocity": 59,
              "position": 11.666667,
              "duration": 0.175
            },
            {
              "pitch": 59,
              "velocity": 61,
              "position": 12.0,
              "duration": 0.175
            },
            {
              "pitch": 62,
              "velocity": 61,
              "position": 12.0,
              "duration": 0.175
            },
            {
              "pitch": 64,
              "velocity": 61,
              "position": 12.0,
              "duration": 0.175
            },
            {
              "pitch": 67,
              "velocity": 61,
              "position": 12.0,
              "duration": 0.175
            },
            {
              "pitch": 59,
              "velocity": 59,
              "position": 12.333333,
              "duration": 0.166667
            },
            {
              "pitch": 62,
              "velocity": 59,
              "position": 12.333333,
              "duration": 0.166667
            },
            {
              "pitch": 64,
              "velocity": 59,
              "position": 12.333333,
              "duration": 0.166667
            },
            {
              "pitch": 67,
              "velocity": 59,
              "position": 12.333333,
              "duration": 0.166667
            },
            {
              "pitch": 59,
              "velocity": 61,
              "position": 12.666667,
              "duration": 0.141667
            },
            {
              "pitch": 62,
              "velocity": 61,
              "position": 12.666667,
              "duration": 0.141667
            },
            {
              "pitch": 64,
              "velocity": 61,
              "position": 12.666667,
              "duration": 0.141667
            },
            {
              "pitch": 67,
              "velocity": 61,
              "position": 12.666667,
              "duration": 0.141667
            },
            {
              "pitch": 59,
              "velocity": 63,
              "position": 13.0,
              "duration": 0.158333
            },
            {
              "pitch": 62,
              "velocity": 63,
              "position": 13.0,
              "duration": 0.158333
            },
            {
              "pitch": 64,
              "velocity": 63,
              "position": 13.0,
              "duration": 0.158333
            },
            {
              "pitch": 67,
              "velocity": 63,
              "position": 13.0,
              "duration": 0.158333
            },
            {
              "pitch": 59,
              "velocity": 51,
              "position": 13.333333,
              "duration": 0.175
            },
            {
              "pitch": 62,
              "velocity": 51,
              "position": 13.333333,
              "duration": 0.175
            },
            {
              "pitch": 64,
              "velocity": 51,
              "position": 13.333333,
              "duration": 0.175
            },
            {
              "pitch": 67,
              "velocity": 51,
              "position": 13.333333,
              "duration": 0.175
            },
            {
              "pitch": 59,
              "velocity": 59,
              "position": 13.666667,
              "duration": 0.175
            },
            {
              "pitch": 62,
              "velocity": 59,
              "position": 13.666667,
              "duration": 0.175
            },
            {
              "pitch": 64,
              "velocity": 59,
              "position": 13.666667,
              "duration": 0.175
            },
            {
              "pitch": 67,
              "velocity": 59,
              "position": 13.666667,
              "duration": 0.175
            },
            {
              "pitch": 59,
              "velocity": 61,
              "position": 14.0,
              "duration": 0.166667
            },
            {
              "pitch": 62,
              "velocity": 61,
              "position": 14.0,
              "duration": 0.166667
            },
            {
              "pitch": 64,
              "velocity": 61,
              "position": 14.0,
              "duration": 0.166667
            },
            {
              "pitch": 67,
              "velocity": 61,
              "position": 14.0,
              "duration": 0.166667
            },
            {
              "pitch": 59,
              "velocity": 63,
              "position": 14.333333,
              "duration": 0.158333
            },
            {
              "pitch": 62,
              "velocity": 63,
              "position": 14.333333,
              "duration": 0.158333
            },
            {
              "pitch": 64,
              "velocity": 63,
              "position": 14.333333,
              "duration": 0.158333
            },
            {
              "pitch": 67,
              "velocity": 63,
              "position": 14.333333,
              "duration": 0.158333
            },
            {
              "pitch": 59,
              "velocity": 61,
              "position": 14.666667,
              "duration": 0.158333
            },
            {
              "pitch": 62,
              "velocity": 61,
              "position": 14.666667,
              "duration": 0.158333
            },
            {
              "pitch": 64,
              "velocity": 61,
              "position": 14.666667,
              "duration": 0.158333
            },
            {
              "pitch": 67,
              "velocity": 61,
              "position": 14.666667,
              "duration": 0.158333
            },
            {
              "pitch": 59,
              "velocity": 67,
              "position": 15.0,
              "duration": 0.175
            },
            {
              "pitch": 62,
              "velocity": 67,
              "position": 15.0,
              "duration": 0.175
            },
            {
              "pitch": 64,
              "velocity": 67,
              "position": 15.0,
              "duration": 0.175
            },
            {
              "pitch": 67,
              "velocity": 67,
              "position": 15.0,
              "duration": 0.175
            },
            {
              "pitch": 59,
              "velocity": 61,
              "position": 15.333333,
              "duration": 0.166667
            },
            {
              "pitch": 62,
              "velocity": 61,
              "position": 15.333333,
              "duration": 0.166667
            },
            {
              "pitch": 64,
              "velocity": 61,
              "position": 15.333333,
              "duration": 0.166667
            },
            {
              "pitch": 67,
              "velocity": 61,
              "position": 15.333333,
              "duration": 0.166667
            },
            {
              "pitch": 59,
              "velocity": 69,
              "position": 15.666667,
              "duration": 0.166667
            },
            {
              "pitch": 62,
              "velocity": 69,
              "position": 15.666667,
              "duration": 0.166667
            },
            {
              "pitch": 64,
              "velocity": 69,
              "position": 15.666667,
              "duration": 0.166667
            },
            {
              "pitch": 67,
              "velocity": 69,
              "position": 15.666667,
              "duration": 0.166667
            }
          ]
        },
        "12": {
          "ctab": {
            "srcChannel": 12,
            "name": "Guitar",
            "accType": "CHORD2",
            "editable": true,
            "mutedNotes": [],
            "mutedChords": [],
            "sourceChordNote": 0,
            "sourceChordType": "Maj7",
            "ctb2Main": {
              "ntr": "ROOT_FIXED",
              "ntt": "CHORD",
              "bassOn": false,
              "noteLowLimit": 40,
              "noteHighLimit": 76,
              "chordRootUpperLimit": 127,
              "rtr": "NOTE_GENERATOR"
            }
          },
          "notes": [
            {
              "pitch": 64,
              "velocity": 65,
              "position": 1.0,
              "duration": 0.141667
            },
            {
              "pitch": 71,
              "velocity": 85,
              "position": 1.0,
              "duration": 0.125
            },
            {
              "pitch": 67,
              "velocity": 75,
              "position": 1.008333,
              "duration": 0.15
            },
            {
              "pitch": 64,
              "velocity": 65,
              "position": 3.0,
              "duration": 0.116667
            },
            {
              "pitch": 67,
              "velocity": 75,
              "position": 3.0,
              "duration": 0.125
            },
            {
              "pitch": 64,
              "velocity": 65,
              "position": 5.0,
              "duration": 0.141667
            },
            {
              "pitch": 67,
              "velocity": 75,
              "position": 5.008333,
              "duration": 0.15
            },
            {
              "pitch": 64,
              "velocity": 65,
              "position": 7.0,
              "duration": 0.116667
            },
            {
              "pitch": 67,
              "velocity": 75,
              "position": 7.0,
              "duration": 0.125
            },
            {
              "pitch": 71,
              "velocity": 85,
              "position": 7.0,
              "duration": 0.1
            },
            {
              "pitch": 64,
              "velocity": 65,
              "position": 9.0,
              "duration": 0.116667
            },
            {
              "pitch": 67,
              "velocity": 75,
              "position": 9.0,
              "duration": 0.125
            },
            {
              "pitch": 64,
              "velocity": 65,
              "position": 11.0,
              "duration": 0.15
            },
            {
              "pitch": 67,
              "velocity": 75,
              "position": 11.0,
              "duration": 0.116667
            },
            {
              "pitch": 64,
              "velocity": 65,
              "position": 13.0,
              "duration": 0.225
            },
            {
              "pitch": 67,
              "velocity": 85,
              "position": 13.0,
              "duration": 0.141667
            },
            {
              "pitch": 64,
              "velocity": 65,
              "position": 15.0,
              "duration": 0.1
            },
            {
              "pitch": 67,
              "velocity": 75,
              "position": 15.0,
              "duration": 0.141667
            }
          ]
        },
        "13": {
          "ctab": {
            "srcChannel": 13,
            "name": "Strings",
            "accType": "PAD",
            "editable": true,
            "mutedNotes": [],
            "mutedChords": [],
            "sourceChordNote": 0,
            "sourceChordType": "Maj7",
            "ctb2Main": {
              "ntr": "ROOT_FIXED",
              "ntt": "MELODY",
              "bassOn": false,
              "noteLowLimit": 36,
              "noteHighLimit": 96,
              "chordRootUpperLimit": 127,
              "rtr": "PITCH_SHIFT"
            }
          },
          "notes": []
        }
      }
    },
    "Main_C": {
      "type": "Main_C",
      "sizeInBeats": 16,
      "channels": {
        "9": {
          "ctab": {
            "srcChannel": 9,
            "name": "Drums",
            "accType": "RHYTHM",
            "editable": false,
            "mutedNotes": [],
            "mutedChords": [],
            "sourceChordNote": 0,
            "sourceChordType": "Maj",
            "ctb2Main": {
              "ntr": "ROOT_FIXED",
              "ntt": "BYPASS",
              "bassOn": false,
              "noteLowLimit": 20,
              "noteHighLimit": 127,
              "chordRootUpperLimit": 127,
              "rtr": "RETRIGGER"
            }
          },
          "notes": [
            {
              "pitch": 35,
              "velocity": 100,
              "position": 0.0,
              "duration": 0.208333
            },
            {
              "pitch": 42,
              "velocity": 90,
              "position": 0.0,
              "duration": 0.208333
            },
            {
              "pitch": 49,
              "velocity": 80,
              "position": 0.0,
              "duration": 0.208333
            },
            {
              "pitch": 42,
              "velocity": 70,
              "position": 0.333333,
              "duration": 0.208333
            },
            {
              "pitch": 42,
              "velocity": 80,
              "position": 0.666667,
              "duration": 0.208333
            },
            {
              "pitch": 37,
              "velocity": 100,
              "position": 1.0,
              "duration": 0.208333
            },
            {
              "pitch": 38,
              "velocity": 90,
              "position": 1.0,
              "duration": 0.208333
            },
            {
              "pitch": 42,
              "velocity": 90,
              "position": 1.0,
              "duration": 0.208333
            },
            {
              "pitch": 54,
              "velocity": 90,
              "position": 1.0,
              "duration": 0.208333
            },
            {
              "pitch": 42,
              "velocity": 70,
              "position": 1.333333,
              "duration": 0.208333
            },
            {
              "pitch": 35,
              "velocity": 80,
              "position": 1.666667,
              "duration": 0.208333
            },
            {
              "pitch": 42,
              "velocity": 80,
              "position": 1.666667,
              "duration": 0.208333
            },
            {
              "pitch": 35,
              "velocity": 100,
              "position": 2.0,
              "duration": 0.208333
            },
            {
              "pitch": 42,
              "velocity": 90,
              "position": 2.0,
              "duration": 0.208333
            },
            {
              "pitch": 42,
              "velocity": 70,
              "position": 2.333333,
              "duration": 0.208333
            },
            {
              "pitch": 35,
              "velocity": 80,
              "position": 2.666667,
              "duration": 0.208333
            },
            {
              "pitch": 42,
              "velocity": 80,
              "position": 2.666667,
              "duration": 0.208333
            },
            {
              "pitch": 37,
              "velocity": 100,
              "position": 3.0,
              "duration": 0.208333
            },
            {
              "pitch": 38,
              "velocity": 100,
              "position": 3.0,
              "duration": 0.208333
            },
            {
              "pitch": 42,
              "velocity": 90,
              "position": 3.0,
              "duration": 0.208333
            },
            {
              "pitch": 54,
              "velocity": 90,
              "position": 3.0,
              "duration": 0.208333
            },
            {
              "pitch": 42,
              "velocity": 70,
              "position": 3.333333,
              "duration": 0.208333
            },
            {
              "pitch": 35,
              "velocity": 80,
              "position": 3.666667,
              "duration": 0.208333
            },
            {
              "pitch": 42,
              "velocity": 60,
              "position": 3.666667,
              "duration": 0.208333
            },
            {
              "pitch": 35,
              "velocity": 100,
              "position": 4.0,
              "duration": 0.208333
            },
            {
              "pitch": 42,
              "velocity": 90,
              "position": 4.0,
              "duration": 0.208333
            },
            {
              "pitch": 42,
              "velocity": 70,
              "position": 4.333333,
              "duration": 0.208333
            },
            {
              "pitch": 42,
              "velocity": 80,
              "position": 4.666667,
              "duration": 0.208333
            },
            {
              "pitch": 37,
              "velocity": 100,
              "position": 5.0,
              "duration": 0.208333
            },
            {
              "pitch": 38,
              "velocity": 90,
              "position": 5.0,
              "duration": 0.208333
            },
            {
              "pitch": 42,
              "velocity": 90,
              "position": 5.0,
              "duration": 0.208333
            },
            {
              "pitch": 54,
              "velocity": 90,
              "position": 5.0,
              "duration": 0.208333
            },
            {
              "pitch": 42,
              "velocity": 70,
              "position": 5.333333,
              "duration": 0.208333
            },
            {
              "pitch": 35,
              "velocity": 80,
              "position": 5.666667,
              "duration": 0.208333
            },
            {
              "pitch": 42,
              "velocity": 80,
              "position": 5.666667,
              "duration": 0.208333
            },
            {
              "pitch": 35,
              "velocity": 100,
              "position": 6.0,
              "duration": 0.208333
            },
            {
              "pitch": 42,
              "velocity": 90,
              "position": 6.0,
              "duration": 0.208333
            },
            {
              "pitch": 42,
              "velocity": 70,
              "position": 6.333333,
              "duration": 0.208333
            },
            {
              "pitch": 35,
              "velocity": 80,
              "position": 6.666667,
              "duration": 0.208333
            },
            {
              "pitch": 42,
              "velocity": 80,
              "position": 6.666667,
              "duration": 0.208333
            },
            {
              "pitch": 48,
              "velocity": 70,
              "position": 6.666667,
              "duration": 0.208333
            },
            {
              "pitch": 37,
              "velocity": 100,
              "position": 7.0,
              "duration": 0.208333
            },
            {
              "pitch": 38,
              "velocity": 100,
              "position": 7.0,
              "duration": 0.208333
            },
            {
              "pitch": 42,
              "velocity": 90,
              "position": 7.0,
              "duration": 0.208333
            },
            {
              "pitch": 54,
              "velocity": 90,
              "position": 7.0,
              "duration": 0.208333
            },
            {
              "pitch": 42,
              "velocity": 70,
              "position": 7.333333,
              "duration": 0.208333
            },
            {
              "pitch": 45,
              "velocity": 80,
              "position": 7.333333,
              "duration": 0.208333
            },
            {
              "pitch": 35,
              "velocity": 80,
              "position": 7.666667,
              "duration": 0.208333
            },
            {
              "pitch": 42,
              "velocity": 60,
              "position": 7.666667,
              "duration": 0.208333
            },
            {
              "pitch": 45,
              "velocity": 60,
              "position": 7.666667,
              "duration": 0.208333
            },
            {
              "pitch": 35,
              "velocity": 100,
              "position": 8.0,
              "duration": 0.208333
            },
            {
              "pitch": 42,
              "velocity": 90,
              "position": 8.0,
              "duration": 0.208333
            },
            {
              "pitch": 42,
              "velocity": 70,
              "position": 8.333333,
              "duration": 0.208333
            },
            {
              "pitch": 42,
              "velocity": 80,
              "position": 8.666667,
              "duration": 0.208333
            },
            {
              "pitch": 37,
              "velocity": 100,
              "position": 9.0,
              "duration": 0.208333
            },
            {
              "pitch": 38,
              "velocity": 90,
              "position": 9.0,
              "duration": 0.208333
            },
            {
              "pitch": 42,
              "velocity": 90,
              "position": 9.0,
              "duration": 0.208333
            },
            {
              "pitch": 54,
              "velocity": 90,
              "position": 9.0,
              "duration": 0.208333
            },
            {
              "pitch": 42,
              "velocity": 70,
              "position": 9.333333,
              "duration": 0.208333
            },
            {
              "pitch": 35,
              "velocity": 80,
              "position": 9.666667,
              "duration": 0.208333
            },
            {
              "pitch": 42,
              "velocity": 80,
              "position": 9.666667,
              "duration": 0.208333
            },
            {
              "pitch": 35,
              "velocity": 100,
              "position": 10.0,
              "duration": 0.208333
            },
            {
              "pitch": 42,
              "velocity": 90,
              "position": 10.0,
              "duration": 0.208333
            },
            {
              "pitch": 42,
              "velocity": 70,
              "position": 10.333333,
              "duration": 0.208333
            },
            {
              "pitch": 35,
              "velocity": 80,
              "position": 10.666667,
              "duration": 0.208333
            },
            {
              "pitch": 42,
              "velocity": 80,
              "position": 10.666667,
              "duration": 0.208333
            },
            {
              "pitch": 48,
              "velocity": 70,
              "position": 10.666667,
              "duration": 0.208333
            },
            {
              "pitch": 37,
              "velocity": 100,
              "position": 11.0,
              "duration": 0.208333
            },
            {
              "pitch": 38,
              "velocity": 100,
              "position": 11.0,
              "duration": 0.208333
            },
            {
              "pitch": 42,
              "velocity": 90,
              "position": 11.0,
              "duration": 0.208333
            },
            {
              "pitch": 54,
              "velocity": 90,
              "position": 11.0,
              "duration": 0.208333
            },
            {
              "pitch": 42,
              "velocity": 70,
              "position": 11.333333,
              "duration": 0.208333
            },
            {
              "pitch": 45,
              "velocity": 80,
              "position": 11.333333,
              "duration": 0.208333
            },
            {
              "pitch": 35,
              "velocity": 80,
              "position": 11.666667,
              "duration": 0.208333
            },
            {
              "pitch": 42,
              "velocity": 60,
              "position": 11.666667,
              "duration": 0.208333
            },
            {
              "pitch": 45,
              "velocity": 60,
              "position": 11.666667,
              "duration": 0.208333
            },
            {
              "pitch": 35,
              "velocity": 100,
              "position": 12.0,
              "duration": 0.208333
            },
            {
              "pitch": 42,
              "velocity": 90,
              "position": 12.0,
              "duration": 0.208333
            },
            {
              "pitch": 42,
              "velocity": 70,
              "position": 12.333333,
              "duration": 0.208333
            },
            {
              "pitch": 42,
              "velocity": 80,
              "position": 12.666667,
              "duration": 0.208333
            },
            {
              "pitch": 37,
              "velocity": 100,
              "position": 13.0,
              "duration": 0.208333
            },
            {
              "pitch": 38,
              "velocity": 90,
              "position": 13.0,
              "duration": 0.208333
            },
            {
              "pitch": 42,
              "velocity": 90,
              "position": 13.0,
              "duration": 0.208333
            },
            {
              "pitch": 42,
              "velocity": 70,
              "position": 13.333333,
              "duration": 0.208333
            },
            {
              "pitch": 35,
              "velocity": 80,
              "position": 13.666667,
              "duration": 0.208333
            },
            {
              "pitch": 42,
              "velocity": 80,
              "position": 13.666667,
              "duration": 0.208333
            },
            {
              "pitch": 35,
              "velocity": 100,
              "position": 14.0,
              "duration": 0.208333
            },
            {
              "pitch": 38,
              "velocity": 70,
              "position": 14.0,
              "duration": 0.208333
            },
            {
              "pitch": 42,
              "velocity": 90,
              "position": 14.0,
              "duration": 0.208333
            },
            {
              "pitch": 38,
              "velocity": 90,
              "position": 14.333333,
              "duration": 0.208333
            },
            {
              "pitch": 42,
              "velocity": 70,
              "position": 14.333333,
              "duration": 0.208333
            },
            {
              "pitch": 35,
              "velocity": 80,
              "position": 14.666667,
              "duration": 0.208333
            },
            {
              "pitch": 42,
              "velocity": 80,
              "position": 14.666667,
              "duration": 0.208333
            },
            {
              "pitch": 37,
              "velocity": 100,
              "position": 15.0,
              "duration": 0.208333
            },
            {
              "pitch": 38,
              "velocity": 90,
              "position": 15.0,
              "duration": 0.208333
            },
            {
              "pitch": 42,
              "velocity": 90,
              "position": 15.0,
              "duration": 0.208333
            },
            {
              "pitch": 38,
              "velocity": 70,
              "position": 15.333333,
              "duration": 0.208333
            },
            {
              "pitch": 42,
              "velocity": 70,
              "position": 15.333333,
              "duration": 0.208333
            },
            {
              "pitch": 35,
              "velocity": 80,
              "position": 15.666667,
              "duration": 0.208333
            },
            {
              "pitch": 38,
              "velocity": 60,
              "position": 15.666667,
              "duration": 0.208333
            },
            {
              "pitch": 42,
              "velocity": 60,
              "position": 15.666667,
              "duration": 0.208333
            }
          ]
        },
        "10": {
          "ctab": {
            "srcChannel": 10,
            "name": "Bass",
            "accType": "BASS",
            "editable": true,
            "mutedNotes": [],
            "mutedChords": [],
            "sourceChordNote": 0,
            "sourceChordType": "Maj7",
            "ctb2Main": {
              "ntr": "ROOT_TRANSPOSITION",
              "ntt": "BYPASS",
              "bassOn": true,
              "noteLowLimit": 20,
              "noteHighLimit": 60,
              "chordRootUpperLimit": 127,
              "rtr": "NOTE_GENERATOR"
            }
          },
          "notes": [
            {
              "pitch": 36,
              "velocity": 93,
              "position": 0.0,
              "duration": 1.533333
            },
            {
              "pitch": 36,
              "velocity": 91,
              "position": 1.666667,
              "duration": 0.275
            },
            {
              "pitch": 36,
              "velocity": 93,
              "position": 2.0,
              "duration": 1.666667
            },
            {
              "pitch": 43,
              "velocity": 91,
              "position": 3.666667,
              "duration": 0.275
            },
            {
              "pitch": 36,
              "velocity": 93,
              "position": 4.0,
              "duration": 1.666667
            },
            {
              "pitch": 43,
              "velocity": 91,
              "position": 5.666667,
              "duration": 0.275
            },
            {
              "pitch": 36,
              "velocity": 93,
              "position": 6.0,
              "duration": 1.533333
            },
            {
              "pitch": 36,
              "velocity": 91,
              "position": 7.666667,
              "duration": 0.275
            },
            {
              "pitch": 36,
              "velocity": 93,
              "position": 8.0,
              "duration": 1.741667
            },
            {
              "pitch": 40,
              "velocity": 89,
              "position": 9.666667,
              "duration": 0.408333
            },
            {
              "pitch": 43,
              "velocity": 89,
              "position": 10.0,
              "duration": 0.458333
            },
            {
              "pitch": 43,
              "velocity": 102,
              "position": 10.666667,
              "duration": 0.366667
            },
            {
              "pitch": 40,
              "velocity": 85,
              "position": 11.0,
              "duration": 0.641667
            },
            {
              "pitch": 43,
              "velocity": 93,
              "position": 11.666667,
              "duration": 0.466667
            },
            {
              "pitch": 36,
              "velocity": 82,
              "position": 12.0,
              "duration": 1.7
            },
            {
              "pitch": 40,
              "velocity": 95,
              "position": 13.666667,
              "duration": 0.4
            },
            {
              "pitch": 43,
              "velocity": 85,
              "position": 14.0,
              "duration": 0.491667
            },
            {
              "pitch": 43,
              "velocity": 95,
              "position": 14.666667,
              "duration": 0.358333
            },
            {
              "pitch": 40,
              "velocity": 89,
              "position": 15.0,
              "duration": 0.683333
            },
            {
              "pitch": 43,
              "velocity": 93,
              "position": 15.666667,
              "duration": 0.275
            }
          ]
        },
        "11": {
          "ctab": {
            "srcChannel": 11,
            "name": "Piano",
            "accType": "CHORD1",
            "editable": true,
            "mutedNotes": [],
            "mutedChords": [],
            "sourceChordNote": 0,
            "sourceChordType": "Maj7",
            "ctb2Main": {
              "ntr": "ROOT_FIXED",
              "ntt": "CHORD",
              "bassOn": false,
              "noteLowLimit": 48,
              "noteHighLimit": 84,
              "chordRootUpperLimit": 127,
              "rtr": "NOTE_GENERATOR"
            }
          },
          "notes": [
            {
              "pitch": 59,
              "velocity": 80,
              "position": 0.0,
              "duration": 0.175
            },
            {
              "pitch": 62,
              "velocity": 80,
              "position": 0.0,
              "duration": 0.175
            },
            {
              "pitch": 64,
              "velocity": 80,
              "position": 0.0,
              "duration": 0.175
            },
            {
              "pitch": 67,
              "velocity": 80,
              "position": 0.0,
              "duration": 0.175
            },
            {
              "pitch": 59,
              "velocity": 59,
              "position": 0.333333,
              "duration": 0.158333
            },
            {
              "pitch": 62,
              "velocity": 59,
              "position": 0.333333,
              "duration": 0.158333
            },
            {
              "pitch": 64,
              "velocity": 59,
              "position": 0.333333,
              "duration": 0.158333
            },
            {
              "pitch": 67,
              "velocity": 59,
              "position": 0.333333,
              "duration": 0.158333
            },
            {
              "pitch": 59,
              "velocity": 59,
              "position": 0.666667,
              "duration": 0.183333
            },
            {
              "pitch": 62,
              "velocity": 59,
              "position": 0.666667,
              "duration": 0.183333
            },
            {
              "pitch": 64,
              "velocity": 59,
              "position": 0.666667,
              "duration": 0.183333
            },
            {
              "pitch": 67,
              "velocity": 59,
              "position": 0.666667,
              "duration": 0.183333
            },
            {
              "pitch": 59,
              "velocity": 57,
              "position": 1.0,
              "duration": 0.183333
            },
            {
              "pitch": 62,
              "velocity": 57,
              "position": 1.0,
              "duration": 0.183333
            },
            {
              "pitch": 64,
              "velocity": 57,
              "position": 1.0,
              "duration": 0.183333
            },
            {
              "pitch": 67,
              "velocity": 57,
              "position": 1.0,
              "duration": 0.183333
            },
            {
              "pitch": 59,
              "velocity": 63,
              "position": 1.333333,
              "duration": 0.175
            },
            {
              "pitch": 62,
              "velocity": 63,
              "position": 1.333333,
              "duration": 0.175
            },
            {
              "pitch": 64,
              "velocity": 63,
              "position": 1.333333,
              "duration": 0.175
            },
            {
              "pitch": 67,
              "velocity": 63,
              "position": 1.333333,
              "duration": 0.175
            },
            {
              "pitch": 59,
              "velocity": 69,
              "position": 1.666667,
              "duration": 0.175
            },
            {
              "pitch": 62,
              "velocity": 69,
              "position": 1.666667,
              "duration": 0.175
            },
            {
              "pitch": 64,
              "velocity": 69,
              "position": 1.666667,
              "duration": 0.175
            },
            {
              "pitch": 67,
              "velocity": 69,
              "position": 1.666667,
              "duration": 0.175
            },
            {
              "pitch": 59,
              "velocity": 80,
              "position": 2.0,
              "duration": 0.175
            },
            {
              "pitch": 62,
              "velocity": 80,
              "position": 2.0,
              "duration": 0.175
            },
            {
              "pitch": 64,
              "velocity": 80,
              "position": 2.0,
              "duration": 0.175
            },
            {
              "pitch": 67,
              "velocity": 80,
              "position": 2.0,
              "duration": 0.175
            },
            {
              "pitch": 59,
              "velocity": 59,
              "position": 2.333333,
              "duration": 0.158333
            },
            {
              "pitch": 62,
              "velocity": 59,
              "position": 2.333333,
              "duration": 0.158333
            },
            {
              "pitch": 64,
              "velocity": 59,
              "position": 2.333333,
              "duration": 0.158333
            },
            {
              "pitch": 67,
              "velocity": 59,
              "position": 2.333333,
              "duration": 0.158333
            },
            {
              "pitch": 59,
              "velocity": 59,
              "position": 2.666667,
              "duration": 0.183333
            },
            {
              "pitch": 62,
              "velocity": 59,
              "position": 2.666667,
              "duration": 0.183333
            },
            {
              "pitch": 64,
              "velocity": 59,
              "position": 2.666667,
              "duration": 0.183333
            },
            {
              "pitch": 67,
              "velocity": 59,
              "position": 2.666667,
              "duration": 0.183333
            },
            {
              "pitch": 59,
              "velocity": 57,
              "position": 3.0,
              "duration": 0.183333
            },
            {
              "pitch": 62,
              "velocity": 57,
              "position": 3.0,
              "duration": 0.183333
            },
            {
              "pitch": 64,
              "velocity": 57,
              "position": 3.0,
              "duration": 0.183333
            },
            {
              "pitch": 67,
              "velocity": 57,
              "position": 3.0,
              "duration": 0.183333
            },
            {
              "pitch": 59,
              "velocity": 63,
              "position": 3.333333,
              "duration": 0.175
            },
            {
              "pitch": 62,
              "velocity": 63,
              "position": 3.333333,
              "duration": 0.175
            },
            {
              "pitch": 64,
              "velocity": 63,
              "position": 3.333333,
              "duration": 0.175
            },
            {
              "pitch": 67,
              "velocity": 63,
              "position": 3.333333,
              "duration": 0.175
            },
            {
              "pitch": 59,
              "velocity": 69,
              "position": 3.666667,
              "duration": 0.175
            },
            {
              "pitch": 62,
              "velocity": 69,
              "position": 3.666667,
              "duration": 0.175
            },
            {
              "pitch": 64,
              "velocity": 69,
              "position": 3.666667,
              "duration": 0.175
            },
            {
              "pitch": 67,
              "velocity": 69,
              "position": 3.666667,
              "duration": 0.175
            },
            {
              "pitch": 59,
              "velocity": 80,
              "position": 4.0,
              "duration": 0.175
            },
            {
              "pitch": 62,
              "velocity": 80,
              "position": 4.0,
              "duration": 0.175
            },
            {
              "pitch": 64,
              "velocity": 80,
              "position": 4.0,
              "duration": 0.175
            },
            {
              "pitch": 67,
              "velocity": 80,
              "position": 4.0,
              "duration": 0.175
            },
            {
              "pitch": 59,
              "velocity": 59,
              "position": 4.333333,
              "duration": 0.158333
            },
            {
              "pitch": 62,
              "velocity": 59,
              "position": 4.333333,
              "duration": 0.158333
            },
            {
              "pitch": 64,
              "velocity": 59,
              "position": 4.333333,
              "duration": 0.158333
            },
            {
              "pitch": 67,
              "velocity": 59,
              "position": 4.333333,
              "duration": 0.158333
            },
            {
              "pitch": 59,
              "velocity": 59,
              "position": 4.666667,
              "duration": 0.183333
            },
            {
              "pitch": 62,
              "velocity": 59,
              "position": 4.666667,
              "duration": 0.183333
            },
            {
              "pitch": 64,
              "velocity": 59,
              "position": 4.666667,
              "duration": 0.183333
            },
            {
              "pitch": 67,
              "velocity": 59,
              "position": 4.666667,
              "duration": 0.183333
            },
            {
              "pitch": 59,
              "velocity": 57,
              "position": 5.0,
              "duration": 0.183333
            },
            {
              "pitch": 62,
              "velocity": 57,
              "position": 5.0,
              "duration": 0.183333
            },
            {
              "pitch": 64,
              "velocity": 57,
              "position": 5.0,
              "duration": 0.183333
            },
            {
              "pitch": 67,
              "velocity": 57,
              "position": 5.0,
              "duration": 0.183333
            },
            {
              "pitch": 59,
              "velocity": 63,
              "position": 5.333333,
              "duration": 0.175
            },
            {
              "pitch": 62,
              "velocity": 63,
              "position": 5.333333,
              "duration": 0.175
            },
            {
              "pitch": 64,
              "velocity": 63,
              "position": 5.333333,
              "duration": 0.175
            },
            {
              "pitch": 67,
              "velocity": 63,
              "position": 5.333333,
              "duration": 0.175
            },
            {
              "pitch": 59,
              "velocity": 69,
              "position": 5.666667,
              "duration": 0.175
            },
            {
              "pitch": 62,
              "velocity": 69,
              "position": 5.666667,
              "duration": 0.175
            },
            {
              "pitch": 64,
              "velocity": 69,
              "position": 5.666667,
              "duration": 0.175
            },
            {
              "pitch": 67,
              "velocity": 69,
              "position": 5.666667,
              "duration": 0.175
            },
            {
              "pitch": 59,
              "velocity": 80,
              "position": 6.0,
              "duration": 0.175
            },
            {
              "pitch": 62,
              "velocity": 80,
              "position": 6.0,
              "duration": 0.175
            },
            {
              "pitch": 64,
              "velocity": 80,
              "position": 6.0,
              "duration": 0.175
            },
            {
              "pitch": 67,
              "velocity": 80,
              "position": 6.0,
              "duration": 0.175
            },
            {
              "pitch": 59,
              "velocity": 59,
              "position": 6.333333,
              "duration": 0.158333
            },
            {
              "pitch": 62,
              "velocity": 59,
              "position": 6.333333,
              "duration": 0.158333
            },
            {
              "pitch": 64,
              "velocity": 59,
              "position": 6.333333,
              "duration": 0.158333
            },
            {
              "pitch": 67,
              "velocity": 59,
              "position": 6.333333,
              "duration": 0.158333
            },
            {
              "pitch": 59,
              "velocity": 59,
              "position": 6.666667,
              "duration": 0.183333
            },
            {
              "pitch": 62,
              "velocity": 59,
              "position": 6.666667,
              "duration": 0.183333
            },
            {
              "pitch": 64,
              "velocity": 59,
              "position": 6.666667,
              "duration": 0.183333
            },
            {
              "pitch": 67,
              "velocity": 59,
              "position": 6.666667,
              "duration": 0.183333
            },
            {
              "pitch": 59,
              "velocity": 57,
              "position": 7.0,
              "duration": 0.183333
            },
            {
              "pitch": 62,
              "velocity": 57,
              "position": 7.0,
              "duration": 0.183333
            },
            {
              "pitch": 64,
              "velocity": 57,
              "position": 7.0,
              "duration": 0.183333
            },
            {
              "pitch": 67,
              "velocity": 57,
              "position": 7.0,
              "duration": 0.183333
            },
            {
              "pitch": 59,
              "velocity": 63,
              "position": 7.333333,
              "duration": 0.175
            },
            {
              "pitch": 62,
              "velocity": 63,
              "position": 7.333333,
              "duration": 0.175
            },
            {
              "pitch": 64,
              "velocity": 63,
              "position": 7.333333,
              "duration": 0.175
            },
            {
              "pitch": 67,
              "velocity": 63,
              "position": 7.333333,
              "duration": 0.175
            },
            {
              "pitch": 59,
              "velocity": 69,
              "position": 7.666667,
              "duration": 0.175
            },
            {
              "pitch": 62,
              "velocity": 69,
              "position": 7.666667,
              "duration": 0.175
            },
            {
              "pitch": 64,
              "velocity": 69,
              "position": 7.666667,
              "duration": 0.175
            },
            {
              "pitch": 67,
              "velocity": 69,
              "position": 7.666667,
              "duration": 0.175
            },
            {
              "pitch": 59,
              "velocity": 73,
              "position": 8.0,
              "duration": 0.141667
            },
            {
              "pitch": 62,
              "velocity": 73,
              "position": 8.0,
              "duration": 0.141667
            },
            {
              "pitch": 64,
              "velocity": 73,
              "position": 8.0,
              "duration": 0.141667
            },
            {
              "pitch": 67,
              "velocity": 73,
              "position": 8.0,
              "duration": 0.141667
            },
            {
              "pitch": 59,
              "velocity": 57,
              "position": 8.333333,
              "duration": 0.158333
            },
            {
              "pitch": 62,
              "velocity": 57,
              "position": 8.333333,
              "duration": 0.158333
            },
            {
              "pitch": 64,
              "velocity": 57,
              "position": 8.333333,
              "duration": 0.158333
            },
            {
              "pitch": 67,
              "velocity": 57,
              "position": 8.333333,
              "duration": 0.158333
            },
            {
              "pitch": 59,
              "velocity": 55,
              "position": 8.666667,
              "duration": 0.15
            },
            {
              "pitch": 62,
              "velocity": 55,
              "position": 8.666667,
              "duration": 0.15
            },
            {
              "pitch": 64,
              "velocity": 55,
              "position": 8.666667,
              "duration": 0.15
            },
            {
              "pitch": 67,
              "velocity": 55,
              "position": 8.666667,
              "duration": 0.15
            },
            {
              "pitch": 59,
              "velocity": 59,
              "position": 9.0,
              "duration": 0.15
            },
            {
              "pitch": 62,
              "velocity": 59,
              "position": 9.0,
              "duration": 0.15
            },
            {
              "pitch": 64,
              "velocity": 59,
              "position": 9.0,
              "duration": 0.15
            },
            {
              "pitch": 67,
              "velocity": 59,
              "position": 9.0,
              "duration": 0.15
            },
            {
              "pitch": 59,
              "velocity": 59,
              "position": 9.333333,
              "duration": 0.15
            },
            {
              "pitch": 62,
              "velocity": 59,
              "position": 9.333333,
              "duration": 0.15
            },
            {
              "pitch": 64,
              "velocity": 59,
              "position": 9.333333,
              "duration": 0.15
            },
            {
              "pitch": 67,
              "velocity": 59,
              "position": 9.333333,
              "duration": 0.15
            },
            {
              "pitch": 59,
              "velocity": 59,
              "position": 9.666667,
              "duration": 0.166667
            },
            {
              "pitch": 62,
              "velocity": 59,
              "position": 9.666667,
              "duration": 0.166667
            },
            {
              "pitch": 64,
              "velocity": 59,
              "position": 9.666667,
              "duration": 0.166667
            },
            {
              "pitch": 67,
              "velocity": 59,
              "position": 9.666667,
              "duration": 0.166667
            },
            {
              "pitch": 59,
              "velocity": 59,
              "position": 10.0,
              "duration": 0.158333
            },
            {
              "pitch": 62,
              "velocity": 59,
              "position": 10.0,
              "duration": 0.158333
            },
            {
              "pitch": 64,
              "velocity": 59,
              "position": 10.0,
              "duration": 0.158333
            },
            {
              "pitch": 67,
              "velocity": 59,
              "position": 10.0,
              "duration": 0.158333
            },
            {
              "pitch": 59,
              "velocity": 59,
              "position": 10.333333,
              "duration": 0.166667
            },
            {
              "pitch": 62,
              "velocity": 59,
              "position": 10.333333,
              "duration": 0.166667
            },
            {
              "pitch": 64,
              "velocity": 59,
              "position": 10.333333,
              "duration": 0.166667
            },
            {
              "pitch": 67,
              "velocity": 59,
              "position": 10.333333,
              "duration": 0.166667
            },
            {
              "pitch": 59,
              "velocity": 59,
              "position": 10.666667,
              "duration": 0.166667
            },
            {
              "pitch": 62,
              "velocity": 59,
              "position": 10.666667,
              "duration": 0.166667
            },
            {
              "pitch": 64,
              "velocity": 59,
              "position": 10.666667,
              "duration": 0.166667
            },
            {
              "pitch": 67,
              "velocity": 59,
              "position": 10.666667,
              "duration": 0.166667
            },
            {
              "pitch": 59,
              "velocity": 59,
              "position": 11.0,
              "duration": 0.166667
            },
            {
              "pitch": 62,
              "velocity": 59,
              "position": 11.0,
              "duration": 0.166667
            },
            {
              "pitch": 64,
              "velocity": 59,
              "position": 11.0,
              "duration": 0.166667
            },
            {
              "pitch": 67,
              "velocity": 59,
              "position": 11.0,
              "duration": 0.166667
            },
            {
              "pitch": 59,
              "velocity": 55,
              "position": 11.333333,
              "duration": 0.15
            },
            {
              "pitch": 62,
              "velocity": 55,
              "position": 11.333333,
              "duration": 0.15
            },
            {
              "pitch": 64,
              "velocity": 55,
              "position": 11.333333,
              "duration": 0.15
            },
            {
              "pitch": 67,
              "velocity": 55,
              "position": 11.333333,
              "duration": 0.15
            },
            {
              "pitch": 59,
              "velocity": 59,
              "position": 11.666667,
              "duration": 0.175
            },
            {
              "pitch": 62,
              "velocity": 59,
              "position": 11.666667,
              "duration": 0.175
            },
            {
              "pitch": 64,
              "velocity": 59,
              "position": 11.666667,
              "duration": 0.175
            },
            {
              "pitch": 67,
              "velocity": 59,
              "position": 11.666667,
              "duration": 0.175
            },
            {
              "pitch": 59,
              "velocity": 61,
              "position": 12.0,
              "duration": 0.175
            },
            {
              "pitch": 62,
              "velocity": 61,
              "position": 12.0,
              "duration": 0.175
            },
            {
              "pitch": 64,
              "velocity": 61,
              "position": 12.0,
              "duration": 0.175
            },
            {
              "pitch": 67,
              "velocity": 61,
              "position": 12.0,
              "duration": 0.175
            },
            {
              "pitch": 59,
              "velocity": 59,
              "position": 12.333333,
              "duration": 0.166667
            },
            {
              "pitch": 62,
              "velocity": 59,
              "position": 12.333333,
              "duration": 0.166667
            },
            {
              "pitch": 64,
              "velocity": 59,
              "position": 12.333333,
              "duration": 0.166667
            },
            {
              "pitch": 67,
              "velocity": 59,
              "position": 12.333333,
              "duration": 0.166667
            },
            {
              "pitch": 59,
              "velocity": 61,
              "position": 12.666667,
              "duration": 0.141667
            },
            {
              "pitch": 62,
              "velocity": 61,
              "position": 12.666667,
              "duration": 0.141667
            },
            {
              "pitch": 64,
              "velocity": 61,
              "position": 12.666667,
              "duration": 0.141667
            },
            {
              "pitch": 67,
              "velocity": 61,
              "position": 12.666667,
              "duration": 0.141667
            },
            {
              "pitch": 59,
              "velocity": 63,
              "position": 13.0,
              "duration": 0.158333
            },
            {
              "pitch": 62,
              "velocity": 63,
              "position": 13.0,
              "duration": 0.158333
            },
            {
              "pitch": 64,
              "velocity": 63,
              "position": 13.0,
              "duration": 0.158333
            },
            {
              "pitch": 67,
              "velocity": 63,
              "position": 13.0,
              "duration": 0.158333
            },
            {
              "pitch": 59,
              "velocity": 51,
              "position": 13.333333,
              "duration": 0.175
            },
            {
              "pitch": 62,
              "velocity": 51,
              "position": 13.333333,
              "duration": 0.175
            },
            {
              "pitch": 64,
              "velocity": 51,
              "position": 13.333333,
              "duration": 0.175
            },
            {
              "pitch": 67,
              "velocity": 51,
              "position": 13.333333,
              "duration": 0.175
            },
            {
              "pitch": 59,
              "velocity": 59,
              "position": 13.666667,
              "duration": 0.175
            },
            {
              "pitch": 62,
              "velocity": 59,
              "position": 13.666667,
              "duration": 0.175
            },
            {
              "pitch": 64,
              "velocity": 59,
              "position": 13.666667,
              "duration": 0.175
            },
            {
              "pitch": 67,
              "velocity": 59,
              "position": 13.666667,
              "duration": 0.175
            },
            {
              "pitch": 59,
              "velocity": 61,
              "position": 14.0,
              "duration": 0.166667
            },
            {
              "pitch": 62,
              "velocity": 61,
              "position": 14.0,
              "duration": 0.166667
            },
            {
              "pitch": 64,
              "velocity": 61,
              "position": 14.0,
              "duration": 0.166667
            },
            {
              "pitch": 67,
              "velocity": 61,
              "position": 14.0,
              "duration": 0.166667
            },
            {
              "pitch": 59,
              "velocity": 63,
              "position": 14.333333,
              "duration": 0.158333
            },
            {
              "pitch": 62,
              "velocity": 63,
              "position": 14.333333,
              "duration": 0.158333
            },
            {
              "pitch": 64,
              "velocity": 63,
              "position": 14.333333,
              "duration": 0.158333
            },
            {
              "pitch": 67,
              "velocity": 63,
              "position": 14.333333,
              "duration": 0.158333
            },
            {
              "pitch": 59,
              "velocity": 61,
              "position": 14.666667,
              "duration": 0.158333
            },
            {
              "pitch": 62,
              "velocity": 61,
              "position": 14.666667,
              "duration": 0.158333
            },
            {
              "pitch": 64,
              "velocity": 61,
              "position": 14.666667,
              "duration": 0.158333
            },
            {
              "pitch": 67,
              "velocity": 61,
              "position": 14.666667,
              "duration": 0.158333
            },
            {
              "pitch": 59,
              "velocity": 67,
              "position": 15.0,
              "duration": 0.175
            },
            {
              "pitch": 62,
              "velocity": 67,
              "position": 15.0,
              "duration": 0.175
            },
            {
              "pitch": 64,
              "velocity": 67,
              "position": 15.0,
              "duration": 0.175
            },
            {
              "pitch": 67,
              "velocity": 67,
              "position": 15.0,
              "duration": 0.175
            },
            {
              "pitch": 59,
              "velocity": 61,
              "position": 15.333333,
              "duration": 0.166667
            },
            {
              "pitch": 62,
              "velocity": 61,
              "position": 15.333333,
              "duration": 0.166667
            },
            {
              "pitch": 64,
              "velocity": 61,
              "position": 15.333333,
              "duration": 0.166667
            },
            {
              "pitch": 67,
              "velocity": 61,
              "position": 15.333333,
              "duration": 0.166667
            },
            {
              "pitch": 59,
              "velocity": 69,
              "position": 15.666667,
              "duration": 0.166667
            },
            {
              "pitch": 62,
              "velocity": 69,
              "position": 15.666667,
              "duration": 0.166667
            },
            {
              "pitch": 64,
              "velocity": 69,
              "position": 15.666667,
              "duration": 0.166667
            },
            {
              "pitch": 67,
              "velocity": 69,
              "position": 15.666667,
              "duration": 0.166667
            }
          ]
        },
        "12": {
          "ctab": {
            "srcChannel": 12,
            "name": "Guitar",
            "accType": "CHORD2",
            "editable": true,
            "mutedNotes": [],
            "mutedChords": [],
            "sourceChordNote": 0,
            "sourceChordType": "Maj7",
            "ctb2Main": {
              "ntr": "ROOT_FIXED",
              "ntt": "CHORD",
              "bassOn": false,
              "noteLowLimit": 40,
              "noteHighLimit": 76,
              "chordRootUpperLimit": 127,
              "rtr": "NOTE_GENERATOR"
            }
          },
          "notes": [
            {
              "pitch": 64,
              "velocity": 65,
              "position": 1.0,
              "duration": 0.141667
            },
            {
              "pitch": 71,
              "velocity": 85,
              "position": 1.0,
              "duration": 0.125
            },
            {
              "pitch": 67,
              "velocity": 75,
              "position": 1.008333,
              "duration": 0.15
            },
            {
              "pitch": 64,
              "velocity": 65,
              "position": 3.0,
              "duration": 0.141667
            },
            {
              "pitch": 71,
              "velocity": 85,
              "position": 3.0,
              "duration": 0.125
            },
            {
              "pitch": 67,
              "velocity": 75,
              "position": 3.008333,
              "duration": 0.15
            },
            {
              "pitch": 64,
              "velocity": 65,
              "position": 5.0,
              "duration": 0.116667
            },
            {
              "pitch": 67,
              "velocity": 75,
              "position": 5.0,
              "duration": 0.125
            },
            {
              "pitch": 64,
              "velocity": 65,
              "position": 7.0,
              "duration": 0.141667
            },
            {
              "pitch": 71,
              "velocity": 85,
              "position": 7.0,
              "duration": 0.125
            },
            {
              "pitch": 67,
              "velocity": 75,
              "position": 7.008333,
              "duration": 0.15
            },
            {
              "pitch": 64,
              "velocity": 65,
              "position": 9.0,
              "duration": 0.141667
            },
            {
              "pitch": 71,
              "velocity": 85,
              "position": 9.0,
              "duration": 0.125
            },
            {
              "pitch": 67,
              "velocity": 75,
              "position": 9.008333,
              "duration": 0.15
            },
            {
              "pitch": 64,
              "velocity": 65,
              "position": 11.016667,
              "duration": 0.175
            },
            {
              "pitch": 71,
              "velocity": 85,
              "position": 11.016667,
              "duration": 0.141667
            },
            {
              "pitch": 67,
              "velocity": 75,
              "position": 11.041667,
              "duration": 0.141667
            },
            {
              "pitch": 64,
              "velocity": 65,
              "position": 13.016667,
              "duration": 0.141667
            },
            {
              "pitch": 71,
              "velocity": 85,
              "position": 13.016667,
              "duration": 0.191667
            },
            {
              "pitch": 67,
              "velocity": 85,
              "position": 13.025,
              "duration": 0.166667
            },
            {
              "pitch": 64,
              "velocity": 65,
              "position": 15.008333,
              "duration": 0.125
            },
            {
              "pitch": 71,
              "velocity": 85,
              "position": 15.008333,
              "duration": 0.15
            },
            {
              "pitch": 67,
              "velocity": 75,
              "position": 15.016667,
              "duration": 0.166667
            }
          ]
        },
        "13": {
          "ctab": {
            "srcChannel": 13,
            "name": "Strings",
            "accType": "PAD",
            "editable": true,
            "mutedNotes": [],
            "mutedChords": [],
            "sourceChordNote": 0,
            "sourceChordType": "Maj7",
            "ctb2Main": {
              "ntr": "ROOT_FIXED",
              "ntt": "MELODY",
              "bassOn": false,
              "noteLowLimit": 36,
              "noteHighLimit": 96,
              "chordRootUpperLimit": 127,
              "rtr": "PITCH_SHIFT"
            }
          },
          "notes": []
        }
      }
    },
    "Main_D": {
      "type": "Main_D",
      "sizeInBeats": 16,
      "channels": {
        "9": {
          "ctab": {
            "srcChannel": 9,
            "name": "Drums",
            "accType": "RHYTHM",
            "editable": false,
            "mutedNotes": [],
            "mutedChords": [],
            "sourceChordNote": 0,
            "sourceChordType": "Maj",
            "ctb2Main": {
              "ntr": "ROOT_FIXED",
              "ntt": "BYPASS",
              "bassOn": false,
              "noteLowLimit": 20,
              "noteHighLimit": 127,
              "chordRootUpperLimit": 127,
              "rtr": "RETRIGGER"
            }
          },
          "notes": [
            {
              "pitch": 35,
              "velocity": 100,
              "position": 0.0,
              "duration": 0.208333
            },
            {
              "pitch": 42,
              "velocity": 90,
              "position": 0.0,
              "duration": 0.208333
            },
            {
              "pitch": 49,
              "velocity": 80,
              "position": 0.0,
              "duration": 0.208333
            },
            {
              "pitch": 42,
              "velocity": 70,
              "position": 0.333333,
              "duration": 0.208333
            },
            {
              "pitch": 42,
              "velocity": 80,
              "position": 0.666667,
              "duration": 0.208333
            },
            {
              "pitch": 37,
              "velocity": 100,
              "position": 1.0,
              "duration": 0.208333
            },
            {
              "pitch": 38,
              "velocity": 90,
              "position": 1.0,
              "duration": 0.208333
            },
            {
              "pitch": 42,
              "velocity": 90,
              "position": 1.0,
              "duration": 0.208333
            },
            {
              "pitch": 54,
              "velocity": 90,
              "position": 1.0,
              "duration": 0.208333
            },
            {
              "pitch": 46,
              "velocity": 90,
              "position": 1.333333,
              "duration": 0.208333
            },
            {
              "pitch": 35,
              "velocity": 80,
              "position": 1.666667,
              "duration": 0.208333
            },
            {
              "pitch": 42,
              "velocity": 80,
              "position": 1.666667,
              "duration": 0.208333
            },
            {
              "pitch": 35,
              "velocity": 100,
              "position": 2.0,
              "duration": 0.208333
            },
            {
              "pitch": 42,
              "velocity": 90,
              "position": 2.0,
              "duration": 0.208333
            },
            {
              "pitch": 42,
              "velocity": 70,
              "position": 2.333333,
              "duration": 0.208333
            },
            {
              "pitch": 35,
              "velocity": 80,
              "position": 2.666667,
              "duration": 0.208333
            },
            {
              "pitch": 42,
              "velocity": 80,
              "position": 2.666667,
              "duration": 0.208333
            },
            {
              "pitch": 37,
              "velocity": 100,
              "position": 3.0,
              "duration": 0.208333
            },
            {
              "pitch": 38,
              "velocity": 100,
              "position": 3.0,
              "duration": 0.208333
            },
            {
              "pitch": 42,
              "velocity": 90,
              "position": 3.0,
              "duration": 0.208333
            },
            {
              "pitch": 54,
              "velocity": 90,
              "position": 3.0,
              "duration": 0.208333
            },
            {
              "pitch": 42,
              "velocity": 70,
              "position": 3.333333,
              "duration": 0.208333
            },
            {
              "pitch": 35,
              "velocity": 80,
              "position": 3.666667,
              "duration": 0.208333
            },
            {
              "pitch": 42,
              "velocity": 60,
              "position": 3.666667,
              "duration": 0.208333
            },
            {
              "pitch": 35,
              "velocity": 100,
              "position": 4.0,
              "duration": 0.208333
            },
            {
              "pitch": 42,
              "velocity": 90,
              "position": 4.0,
              "duration": 0.208333
            },
            {
              "pitch": 42,
              "velocity": 70,
              "position": 4.333333,
              "duration": 0.208333
            },
            {
              "pitch": 46,
              "velocity": 90,
              "position": 4.666667,
              "duration": 0.208333
            },
            {
              "pitch": 37,
              "velocity": 100,
              "position": 5.0,
              "duration": 0.208333
            },
            {
              "pitch": 38,
              "velocity": 90,
              "position": 5.0,
              "duration": 0.208333
            },
            {
              "pitch": 42,
              "velocity": 90,
              "position": 5.0,
              "duration": 0.208333
            },
            {
              "pitch": 54,
              "velocity": 90,
              "position": 5.0,
              "duration": 0.208333
            },
            {
              "pitch": 42,
              "velocity": 70,
              "position": 5.333333,
              "duration": 0.208333
            },
            {
              "pitch": 35,
              "velocity": 80,
              "position": 5.666667,
              "duration": 0.208333
            },
            {
              "pitch": 42,
              "velocity": 80,
              "position": 5.666667,
              "duration": 0.208333
            },
            {
              "pitch": 35,
              "velocity": 100,
              "position": 6.0,
              "duration": 0.208333
            },
            {
              "pitch": 42,
              "velocity": 90,
              "position": 6.0,
              "duration": 0.208333
            },
            {
              "pitch": 42,
              "velocity": 70,
              "position": 6.333333,
              "duration": 0.208333
            },
            {
              "pitch": 35,
              "velocity": 80,
              "position": 6.666667,
              "duration": 0.208333
            },
            {
              "pitch": 42,
              "velocity": 80,
              "position": 6.666667,
              "duration": 0.208333
            },
            {
              "pitch": 37,
              "velocity": 100,
              "position": 7.0,
              "duration": 0.208333
            },
            {
              "pitch": 38,
              "velocity": 100,
              "position": 7.0,
              "duration": 0.208333
            },
            {
              "pitch": 42,
              "velocity": 90,
              "position": 7.0,
              "duration": 0.208333
            },
            {
              "pitch": 54,
              "velocity": 90,
              "position": 7.0,
              "duration": 0.208333
            },
            {
              "pitch": 42,
              "velocity": 70,
              "position": 7.333333,
              "duration": 0.208333
            },
            {
              "pitch": 35,
              "velocity": 80,
              "position": 7.666667,
              "duration": 0.208333
            },
            {
              "pitch": 46,
              "velocity": 90,
              "position": 7.666667,
              "duration": 0.208333
            },
            {
              "pitch": 35,
              "velocity": 100,
              "position": 8.0,
              "duration": 0.208333
            },
            {
              "pitch": 42,
              "velocity": 90,
              "position": 8.0,
              "duration": 0.208333
            },
            {
              "pitch": 42,
              "velocity": 70,
              "position": 8.333333,
              "duration": 0.208333
            },
            {
              "pitch": 42,
              "velocity": 80,
              "position": 8.666667,
              "duration": 0.208333
            },
            {
              "pitch": 37,
              "velocity": 100,
              "position": 9.0,
              "duration": 0.208333
            },
            {
              "pitch": 38,
              "velocity": 90,
              "position": 9.0,
              "duration": 0.208333
            },
            {
              "pitch": 42,
              "velocity": 90,
              "position": 9.0,
              "duration": 0.208333
            },
            {
              "pitch": 54,
              "velocity": 90,
              "position": 9.0,
              "duration": 0.208333
            },
            {
              "pitch": 42,
              "velocity": 70,
              "position": 9.333333,
              "duration": 0.208333
            },
            {
              "pitch": 35,
              "velocity": 80,
              "position": 9.666667,
              "duration": 0.208333
            },
            {
              "pitch": 42,
              "velocity": 80,
              "position": 9.666667,
              "duration": 0.208333
            },
            {
              "pitch": 35,
              "velocity": 100,
              "position": 10.0,
              "duration": 0.208333
            },
            {
              "pitch": 42,
              "velocity": 90,
              "position": 10.0,
              "duration": 0.208333
            },
            {
              "pitch": 42,
              "velocity": 70,
              "position": 10.333333,
              "duration": 0.208333
            },
            {
              "pitch": 35,
              "velocity": 80,
              "position": 10.666667,
              "duration": 0.208333
            },
            {
              "pitch": 42,
              "velocity": 80,
              "position": 10.666667,
              "duration": 0.208333
            },
            {
              "pitch": 37,
              "velocity": 100,
              "position": 11.0,
              "duration": 0.208333
            },
            {
              "pitch": 38,
              "velocity": 100,
              "position": 11.0,
              "duration": 0.208333
            },
            {
              "pitch": 42,
              "velocity": 90,
              "position": 11.0,
              "duration": 0.208333
            },
            {
              "pitch": 54,
              "velocity": 90,
              "position": 11.0,
              "duration": 0.208333
            },
            {
              "pitch": 42,
              "velocity": 70,
              "position": 11.333333,
              "duration": 0.208333
            },
            {
              "pitch": 35,
              "velocity": 80,
              "position": 11.666667,
              "duration": 0.208333
            },
            {
              "pitch": 42,
              "velocity": 60,
              "position": 11.666667,
              "duration": 0.208333
            },
            {
              "pitch": 35,
              "velocity": 100,
              "position": 12.0,
              "duration": 0.208333
            },
            {
              "pitch": 42,
              "velocity": 90,
              "position": 12.0,
              "duration": 0.208333
            },
            {
              "pitch": 42,
              "velocity": 70,
              "position": 12.333333,
              "duration": 0.208333
            },
            {
              "pitch": 42,
              "velocity": 80,
              "position": 12.666667,
              "duration": 0.208333
            },
            {
              "pitch": 37,
              "velocity": 100,
              "position": 13.0,
              "duration": 0.208333
            },
            {
              "pitch": 38,
              "velocity": 90,
              "position": 13.0,
              "duration": 0.208333
            },
            {
              "pitch": 42,
              "velocity": 90,
              "position": 13.0,
              "duration": 0.208333
            },
            {
              "pitch": 42,
              "velocity": 70,
              "position": 13.333333,
              "duration": 0.208333
            },
            {
              "pitch": 35,
              "velocity": 80,
              "position": 13.666667,
              "duration": 0.208333
            },
            {
              "pitch": 42,
              "velocity": 80,
              "position": 13.666667,
              "duration": 0.208333
            },
            {
              "pitch": 35,
              "velocity": 100,
              "position": 14.0,
              "duration": 0.208333
            },
            {
              "pitch": 38,
              "velocity": 70,
              "position": 14.0,
              "duration": 0.208333
            },
            {
              "pitch": 42,
              "velocity": 90,
              "position": 14.0,
              "duration": 0.208333
            },
            {
              "pitch": 38,
              "velocity": 90,
              "position": 14.333333,
              "duration": 0.208333
            },
            {
              "pitch": 42,
              "velocity": 70,
              "position": 14.333333,
              "duration": 0.208333
            },
            {
              "pitch": 35,
              "velocity": 80,
              "position": 14.666667,
              "duration": 0.208333
            },
            {
              "pitch": 42,
              "velocity": 80,
              "position": 14.666667,
              "duration": 0.208333
            },
            {
              "pitch": 37,
              "velocity": 100,
              "position": 15.0,
              "duration": 0.208333
            },
            {
              "pitch": 38,
              "velocity": 90,
              "position": 15.0,
              "duration": 0.208333
            },
            {
              "pitch": 42,
              "velocity": 90,
              "position": 15.0,
              "duration": 0.208333
            },
            {
              "pitch": 38,
              "velocity": 70,
              "position": 15.333333,
              "duration": 0.208333
            },
            {
              "pitch": 42,
              "velocity": 70,
              "position": 15.333333,
              "duration": 0.208333
            },
            {
              "pitch": 35,
              "velocity": 80,
              "position": 15.666667,
              "duration": 0.208333
            },
            {
              "pitch": 38,
              "velocity": 60,
              "position": 15.666667,
              "duration": 0.208333
            },
            {
              "pitch": 42,
              "velocity": 60,
              "position": 15.666667,
              "duration": 0.208333
            }
          ]
        },
        "10": {
          "ctab": {
            "srcChannel": 10,
            "name": "Bass",
            "accType": "BASS",
            "editable": true,
            "mutedNotes": [],
            "mutedChords": [],
            "sourceChordNote": 0,
            "sourceChordType": "Maj7",
            "ctb2Main": {
              "ntr": "ROOT_TRANSPOSITION",
              "ntt": "BYPASS",
              "bassOn": true,
              "noteLowLimit": 20,
              "noteHighLimit": 60,
              "chordRootUpperLimit": 127,
              "rtr": "NOTE_GENERATOR"
            }
          },
          "notes": [
            {
              "pitch": 36,
              "velocity": 93,
              "position": 0.0,
              "duration": 1.533333
            },
            {
              "pitch": 36,
              "velocity": 91,
              "position": 1.666667,
              "duration": 0.275
            },
            {
              "pitch": 36,
              "velocity": 93,
              "position": 2.0,
              "duration": 1.666667
            },
            {
              "pitch": 43,
              "velocity": 91,
              "position": 3.666667,
              "duration": 0.275
            },
            {
              "pitch": 36,
              "velocity": 93,
              "position": 4.0,
              "duration": 1.666667
            },
            {
              "pitch": 43,
              "velocity": 91,
              "position": 5.666667,
              "duration": 0.275
            },
            {
              "pitch": 36,
              "velocity": 93,
              "position": 6.0,
              "duration": 1.666667
            },
            {
              "pitch": 43,
              "velocity": 91,
              "position": 7.666667,
              "duration": 0.275
            },
            {
              "pitch": 36,
              "velocity": 93,
              "position": 8.0,
              "duration": 1.741667
            },
            {
              "pitch": 40,
              "velocity": 89,
              "position": 9.666667,
              "duration": 0.408333
            },
            {
              "pitch": 43,
              "velocity": 89,
              "position": 10.0,
              "duration": 0.458333
            },
            {
              "pitch": 43,
              "velocity": 102,
              "position": 10.666667,
              "duration": 0.366667
            },
            {
              "pitch": 40,
              "velocity": 85,
              "position": 11.0,
              "duration": 0.641667
            },
            {
              "pitch": 43,
              "velocity": 93,
              "position": 11.666667,
              "duration": 0.466667
            },
            {
              "pitch": 36,
              "velocity": 82,
              "position": 12.0,
              "duration": 1.7
            },
            {
              "pitch": 40,
              "velocity": 95,
              "position": 13.666667,
              "duration": 0.4
            },
            {
              "pitch": 43,
              "velocity": 85,
              "position": 14.0,
              "duration": 0.491667
            },
            {
              "pitch": 43,
              "velocity": 95,
              "position": 14.666667,
              "duration": 0.358333
            },
            {
              "pitch": 40,
              "velocity": 89,
              "position": 15.0,
              "duration": 0.683333
            },
            {
              "pitch": 43,
              "velocity": 93,
              "position": 15.666667,
              "duration": 0.275
            }
          ]
        },
        "11": {
          "ctab": {
            "srcChannel": 11,
            "name": "Piano",
            "accType": "CHORD1",
            "editable": true,
            "mutedNotes": [],
            "mutedChords": [],
            "sourceChordNote": 0,
            "sourceChordType": "Maj7",
            "ctb2Main": {
              "ntr": "ROOT_FIXED",
              "ntt": "CHORD",
              "bassOn": false,
              "noteLowLimit": 48,
              "noteHighLimit": 84,
              "chordRootUpperLimit": 127,
              "rtr": "NOTE_GENERATOR"
            }
          },
          "notes": [
            {
              "pitch": 59,
              "velocity": 80,
              "position": 0.0,
              "duration": 0.175
            },
            {
              "pitch": 62,
              "velocity": 80,
              "position": 0.0,
              "duration": 0.175
            },
            {
              "pitch": 64,
              "velocity": 80,
              "position": 0.0,
              "duration": 0.175
            },
            {
              "pitch": 67,
              "velocity": 80,
              "position": 0.0,
              "duration": 0.175
            },
            {
              "pitch": 59,
              "velocity": 59,
              "position": 0.333333,
              "duration": 0.158333
            },
            {
              "pitch": 62,
              "velocity": 59,
              "position": 0.333333,
              "duration": 0.158333
            },
            {
              "pitch": 64,
              "velocity": 59,
              "position": 0.333333,
              "duration": 0.158333
            },
            {
              "pitch": 67,
              "velocity": 59,
              "position": 0.333333,
              "duration": 0.158333
            },
            {
              "pitch": 59,
              "velocity": 59,
              "position": 0.666667,
              "duration": 0.183333
            },
            {
              "pitch": 62,
              "velocity": 59,
              "position": 0.666667,
              "duration": 0.183333
            },
            {
              "pitch": 64,
              "velocity": 59,
              "position": 0.666667,
              "duration": 0.183333
            },
            {
              "pitch": 67,
              "velocity": 59,
              "position": 0.666667,
              "duration": 0.183333
            },
            {
              "pitch": 59,
              "velocity": 57,
              "position": 1.0,
              "duration": 0.183333
            },
            {
              "pitch": 62,
              "velocity": 57,
              "position": 1.0,
              "duration": 0.183333
            },
            {
              "pitch": 64,
              "velocity": 57,
              "position": 1.0,
              "duration": 0.183333
            },
            {
              "pitch": 67,
              "velocity": 57,
              "position": 1.0,
              "duration": 0.183333
            },
            {
              "pitch": 59,
              "velocity": 63,
              "position": 1.333333,
              "duration": 0.175
            },
            {
              "pitch": 62,
              "velocity": 63,
              "position": 1.333333,
              "duration": 0.175
            },
            {
              "pitch": 64,
              "velocity": 63,
              "position": 1.333333,
              "duration": 0.175
            },
            {
              "pitch": 67,
              "velocity": 63,
              "position": 1.333333,
              "duration": 0.175
            },
            {
              "pitch": 59,
              "velocity": 69,
              "position": 1.666667,
              "duration": 0.175
            },
            {
              "pitch": 62,
              "velocity": 69,
              "position": 1.666667,
              "duration": 0.175
            },
            {
              "pitch": 64,
              "velocity": 69,
              "position": 1.666667,
              "duration": 0.175
            },
            {
              "pitch": 67,
              "velocity": 69,
              "position": 1.666667,
              "duration": 0.175
            },
            {
              "pitch": 59,
              "velocity": 80,
              "position": 2.0,
              "duration": 0.175
            },
            {
              "pitch": 62,
              "velocity": 80,
              "position": 2.0,
              "duration": 0.175
            },
            {
              "pitch": 64,
              "velocity": 80,
              "position": 2.0,
              "duration": 0.175
            },
            {
              "pitch": 67,
              "velocity": 80,
              "position": 2.0,
              "duration": 0.175
            },
            {
              "pitch": 59,
              "velocity": 59,
              "position": 2.333333,
              "duration": 0.158333
            },
            {
              "pitch": 62,
              "velocity": 59,
              "position": 2.333333,
              "duration": 0.158333
            },
            {
              "pitch": 64,
              "velocity": 59,
              "position": 2.333333,
              "duration": 0.158333
            },
            {
              "pitch": 67,
              "velocity": 59,
              "position": 2.333333,
              "duration": 0.158333
            },
            {
              "pitch": 59,
              "velocity": 59,
              "position": 2.666667,
              "duration": 0.183333
            },
            {
              "pitch": 62,
              "velocity": 59,
              "position": 2.666667,
              "duration": 0.183333
            },
            {
              "pitch": 64,
              "velocity": 59,
              "position": 2.666667,
              "duration": 0.183333
            },
            {
              "pitch": 67,
              "velocity": 59,
              "position": 2.666667,
              "duration": 0.183333
            },
            {
              "pitch": 59,
              "velocity": 57,
              "position": 3.0,
              "duration": 0.183333
            },
            {
              "pitch": 62,
              "velocity": 57,
              "position": 3.0,
              "duration": 0.183333
            },
            {
              "pitch": 64,
              "velocity": 57,
              "position": 3.0,
              "duration": 0.183333
            },
            {
              "pitch": 67,
              "velocity": 57,
              "position": 3.0,
              "duration": 0.183333
            },
            {
              "pitch": 59,
              "velocity": 63,
              "position": 3.333333,
              "duration": 0.175
            },
            {
              "pitch": 62,
              "velocity": 63,
              "position": 3.333333,
              "duration": 0.175
            },
            {
              "pitch": 64,
              "velocity": 63,
              "position": 3.333333,
              "duration": 0.175
            },
            {
              "pitch": 67,
              "velocity": 63,
              "position": 3.333333,
              "duration": 0.175
            },
            {
              "pitch": 59,
              "velocity": 69,
              "position": 3.666667,
              "duration": 0.175
            },
            {
              "pitch": 62,
              "velocity": 69,
              "position": 3.666667,
              "duration": 0.175
            },
            {
              "pitch": 64,
              "velocity": 69,
              "position": 3.666667,
              "duration": 0.175
            },
            {
              "pitch": 67,
              "velocity": 69,
              "position": 3.666667,
              "duration": 0.175
            },
            {
              "pitch": 59,
              "velocity": 80,
              "position": 4.0,
              "duration": 0.175
            },
            {
              "pitch": 62,
              "velocity": 80,
              "position": 4.0,
              "duration": 0.175
            },
            {
              "pitch": 64,
              "velocity": 80,
              "position": 4.0,
              "duration": 0.175
            },
            {
              "pitch": 67,
              "velocity": 80,
              "position": 4.0,
              "duration": 0.175
            },
            {
              "pitch": 59,
              "velocity": 59,
              "position": 4.333333,
              "duration": 0.158333
            },
            {
              "pitch": 62,
              "velocity": 59,
              "position": 4.333333,
              "duration": 0.158333
            },
            {
              "pitch": 64,
              "velocity": 59,
              "position": 4.333333,
              "duration": 0.158333
            },
            {
              "pitch": 67,
              "velocity": 59,
              "position": 4.333333,
              "duration": 0.158333
            },
            {
              "pitch": 59,
              "velocity": 59,
              "position": 4.666667,
              "duration": 0.183333
            },
            {
              "pitch": 62,
              "velocity": 59,
              "position": 4.666667,
              "duration": 0.183333
            },
            {
              "pitch": 64,
              "velocity": 59,
              "position": 4.666667,
              "duration": 0.183333
            },
            {
              "pitch": 67,
              "velocity": 59,
              "position": 4.666667,
              "duration": 0.183333
            },
            {
              "pitch": 59,
              "velocity": 57,
              "position": 5.0,
              "duration": 0.183333
            },
            {
              "pitch": 62,
              "velocity": 57,
              "position": 5.0,
              "duration": 0.183333
            },
            {
              "pitch": 64,
              "velocity": 57,
              "position": 5.0,
              "duration": 0.183333
            },
            {
              "pitch": 67,
              "velocity": 57,
              "position": 5.0,
              "duration": 0.183333
            },
            {
              "pitch": 59,
              "velocity": 63,
              "position": 5.333333,
              "duration": 0.175
            },
            {
              "pitch": 62,
              "velocity": 63,
              "position": 5.333333,
              "duration": 0.175
            },
            {
              "pitch": 64,
              "velocity": 63,
              "position": 5.333333,
              "duration": 0.175
            },
            {
              "pitch": 67,
              "velocity": 63,
              "position": 5.333333,
              "duration": 0.175
            },
            {
              "pitch": 59,
              "velocity": 69,
              "position": 5.666667,
              "duration": 0.175
            },
            {
              "pitch": 62,
              "velocity": 69,
              "position": 5.666667,
              "duration": 0.175
            },
            {
              "pitch": 64,
              "velocity": 69,
              "position": 5.666667,
              "duration": 0.175
            },
            {
              "pitch": 67,
              "velocity": 69,
              "position": 5.666667,
              "duration": 0.175
            },
            {
              "pitch": 59,
              "velocity": 80,
              "position": 6.0,
              "duration": 0.175
            },
            {
              "pitch": 62,
              "velocity": 80,
              "position": 6.0,
              "duration": 0.175
            },
            {
              "pitch": 64,
              "velocity": 80,
              "position": 6.0,
              "duration": 0.175
            },
            {
              "pitch": 67,
              "velocity": 80,
              "position": 6.0,
              "duration": 0.175
            },
            {
              "pitch": 59,
              "velocity": 59,
              "position": 6.333333,
              "duration": 0.158333
            },
            {
              "pitch": 62,
              "velocity": 59,
              "position": 6.333333,
              "duration": 0.158333
            },
            {
              "pitch": 64,
              "velocity": 59,
              "position": 6.333333,
              "duration": 0.158333
            },
            {
              "pitch": 67,
              "velocity": 59,
              "position": 6.333333,
              "duration": 0.158333
            },
            {
              "pitch": 59,
              "velocity": 59,
              "position": 6.666667,
              "duration": 0.183333
            },
            {
              "pitch": 62,
              "velocity": 59,
              "position": 6.666667,
              "duration": 0.183333
            },
            {
              "pitch": 64,
              "velocity": 59,
              "position": 6.666667,
              "duration": 0.183333
            },
            {
              "pitch": 67,
              "velocity": 59,
              "position": 6.666667,
              "duration": 0.183333
            },
            {
              "pitch": 59,
              "velocity": 57,
              "position": 7.0,
              "duration": 0.183333
            },
            {
              "pitch": 62,
              "velocity": 57,
              "position": 7.0,
              "duration": 0.183333
            },
            {
              "pitch": 64,
              "velocity": 57,
              "position": 7.0,
              "duration": 0.183333
            },
            {
              "pitch": 67,
              "velocity": 57,
              "position": 7.0,
              "duration": 0.183333
            },
            {
              "pitch": 59,
              "velocity": 63,
              "position": 7.333333,
              "duration": 0.175
            },
            {
              "pitch": 62,
              "velocity": 63,
              "position": 7.333333,
              "duration": 0.175
            },
            {
              "pitch": 64,
              "velocity": 63,
              "position": 7.333333,
              "duration": 0.175
            },
            {
              "pitch": 67,
              "velocity": 63,
              "position": 7.333333,
              "duration": 0.175
            },
            {
              "pitch": 59,
              "velocity": 69,
              "position": 7.666667,
              "duration": 0.175
            },
            {
              "pitch": 62,
              "velocity": 69,
              "position": 7.666667,
              "duration": 0.175
            },
            {
              "pitch": 64,
              "velocity": 69,
              "position": 7.666667,
              "duration": 0.175
            },
            {
              "pitch": 67,
              "velocity": 69,
              "position": 7.666667,
              "duration": 0.175
            },
            {
              "pitch": 59,
              "velocity": 73,
              "position": 8.0,
              "duration": 0.141667
            },
            {
              "pitch": 62,
              "velocity": 73,
              "position": 8.0,
              "duration": 0.141667
            },
            {
              "pitch": 64,
              "velocity": 73,
              "position": 8.0,
              "duration": 0.141667
            },
            {
              "pitch": 67,
              "velocity": 73,
              "position": 8.0,
              "duration": 0.141667
            },
            {
              "pitch": 59,
              "velocity": 57,
              "position": 8.333333,
              "duration": 0.158333
            },
            {
              "pitch": 62,
              "velocity": 57,
              "position": 8.333333,
              "duration": 0.158333
            },
            {
              "pitch": 64,
              "velocity": 57,
              "position": 8.333333,
              "duration": 0.158333
            },
            {
              "pitch": 67,
              "velocity": 57,
              "position": 8.333333,
              "duration": 0.158333
            },
            {
              "pitch": 59,
              "velocity": 55,
              "position": 8.666667,
              "duration": 0.15
            },
            {
              "pitch": 62,
              "velocity": 55,
              "position": 8.666667,
              "duration": 0.15
            },
            {
              "pitch": 64,
              "velocity": 55,
              "position": 8.666667,
              "duration": 0.15
            },
            {
              "pitch": 67,
              "velocity": 55,
              "position": 8.666667,
              "duration": 0.15
            },
            {
              "pitch": 59,
              "velocity": 59,
              "position": 9.0,
              "duration": 0.15
            },
            {
              "pitch": 62,
              "velocity": 59,
              "position": 9.0,
              "duration": 0.15
            },
            {
              "pitch": 64,
              "velocity": 59,
              "position": 9.0,
              "duration": 0.15
            },
            {
              "pitch": 67,
              "velocity": 59,
              "position": 9.0,
              "duration": 0.15
            },
            {
              "pitch": 59,
              "velocity": 59,
              "position": 9.333333,
              "duration": 0.15
            },
            {
              "pitch": 62,
              "velocity": 59,
              "position": 9.333333,
              "duration": 0.15
            },
            {
              "pitch": 64,
              "velocity": 59,
              "position": 9.333333,
              "duration": 0.15
            },
            {
              "pitch": 67,
              "velocity": 59,
              "position": 9.333333,
              "duration": 0.15
            },
            {
              "pitch": 59,
              "velocity": 59,
              "position": 9.666667,
              "duration": 0.166667
            },
            {
              "pitch": 62,
              "velocity": 59,
              "position": 9.666667,
              "duration": 0.166667
            },
            {
              "pitch": 64,
              "velocity": 59,
              "position": 9.666667,
              "duration": 0.166667
            },
            {
              "pitch": 67,
              "velocity": 59,
              "position": 9.666667,
              "duration": 0.166667
            },
            {
              "pitch": 59,
              "velocity": 59,
              "position": 10.0,
              "duration": 0.158333
            },
            {
              "pitch": 62,
              "velocity": 59,
              "position": 10.0,
              "duration": 0.158333
            },
            {
              "pitch": 64,
              "velocity": 59,
              "position": 10.0,
              "duration": 0.158333
            },
            {
              "pitch": 67,
              "velocity": 59,
              "position": 10.0,
              "duration": 0.158333
            },
            {
              "pitch": 59,
              "velocity": 59,
              "position": 10.333333,
              "duration": 0.166667
            },
            {
              "pitch": 62,
              "velocity": 59,
              "position": 10.333333,
              "duration": 0.166667
            },
            {
              "pitch": 64,
              "velocity": 59,
              "position": 10.333333,
              "duration": 0.166667
            },
            {
              "pitch": 67,
              "velocity": 59,
              "position": 10.333333,
              "duration": 0.166667
            },
            {
              "pitch": 59,
              "velocity": 59,
              "position": 10.666667,
              "duration": 0.166667
            },
            {
              "pitch": 62,
              "velocity": 59,
              "position": 10.666667,
              "duration": 0.166667
            },
            {
              "pitch": 64,
              "velocity": 59,
              "position": 10.666667,
              "duration": 0.166667
            },
            {
              "pitch": 67,
              "velocity": 59,
              "position": 10.666667,
              "duration": 0.166667
            },
            {
              "pitch": 59,
              "velocity": 59,
              "position": 11.0,
              "duration": 0.166667
            },
            {
              "pitch": 62,
              "velocity": 59,
              "position": 11.0,
              "duration": 0.166667
            },
            {
              "pitch": 64,
              "velocity": 59,
              "position": 11.0,
              "duration": 0.166667
            },
            {
              "pitch": 67,
              "velocity": 59,
              "position": 11.0,
              "duration": 0.166667
            },
            {
              "pitch": 59,
              "velocity": 55,
              "position": 11.333333,
              "duration": 0.15
            },
            {
              "pitch": 62,
              "velocity": 55,
              "position": 11.333333,
              "duration": 0.15
            },
            {
              "pitch": 64,
              "velocity": 55,
              "position": 11.333333,
              "duration": 0.15
            },
            {
              "pitch": 67,
              "velocity": 55,
              "position": 11.333333,
              "duration": 0.15
            },
            {
              "pitch": 59,
              "velocity": 59,
              "position": 11.666667,
              "duration": 0.175
            },
            {
              "pitch": 62,
              "velocity": 59,
              "position": 11.666667,
              "duration": 0.175
            },
            {
              "pitch": 64,
              "velocity": 59,
              "position": 11.666667,
              "duration": 0.175
            },
            {
              "pitch": 67,
              "velocity": 59,
              "position": 11.666667,
              "duration": 0.175
            },
            {
              "pitch": 59,
              "velocity": 61,
              "position": 12.0,
              "duration": 0.175
            },
            {
              "pitch": 62,
              "velocity": 61,
              "position": 12.0,
              "duration": 0.175
            },
            {
              "pitch": 64,
              "velocity": 61,
              "position": 12.0,
              "duration": 0.175
            },
            {
              "pitch": 67,
              "velocity": 61,
              "position": 12.0,
              "duration": 0.175
            },
            {
              "pitch": 59,
              "velocity": 59,
              "position": 12.333333,
              "duration": 0.166667
            },
            {
              "pitch": 62,
              "velocity": 59,
              "position": 12.333333,
              "duration": 0.166667
            },
            {
              "pitch": 64,
              "velocity": 59,
              "position": 12.333333,
              "duration": 0.166667
            },
            {
              "pitch": 67,
              "velocity": 59,
              "position": 12.333333,
              "duration": 0.166667
            },
            {
              "pitch": 59,
              "velocity": 61,
              "position": 12.666667,
              "duration": 0.141667
            },
            {
              "pitch": 62,
              "velocity": 61,
              "position": 12.666667,
              "duration": 0.141667
            },
            {
              "pitch": 64,
              "velocity": 61,
              "position": 12.666667,
              "duration": 0.141667
            },
            {
              "pitch": 67,
              "velocity": 61,
              "position": 12.666667,
              "duration": 0.141667
            },
            {
              "pitch": 59,
              "velocity": 63,
              "position": 13.0,
              "duration": 0.158333
            },
            {
              "pitch": 62,
              "velocity": 63,
              "position": 13.0,
              "duration": 0.158333
            },
            {
              "pitch": 64,
              "velocity": 63,
              "position": 13.0,
              "duration": 0.158333
            },
            {
              "pitch": 67,
              "velocity": 63,
              "position": 13.0,
              "duration": 0.158333
            },
            {
              "pitch": 59,
              "velocity": 51,
              "position": 13.333333,
              "duration": 0.175
            },
            {
              "pitch": 62,
              "velocity": 51,
              "position": 13.333333,
              "duration": 0.175
            },
            {
              "pitch": 64,
              "velocity": 51,
              "position": 13.333333,
              "duration": 0.175
            },
            {
              "pitch": 67,
              "velocity": 51,
              "position": 13.333333,
              "duration": 0.175
            },
            {
              "pitch": 59,
              "velocity": 59,
              "position": 13.666667,
              "duration": 0.175
            },
            {
              "pitch": 62,
              "velocity": 59,
              "position": 13.666667,
              "duration": 0.175
            },
            {
              "pitch": 64,
              "velocity": 59,
              "position": 13.666667,
              "duration": 0.175
            },
            {
              "pitch": 67,
              "velocity": 59,
              "position": 13.666667,
              "duration": 0.175
            },
            {
              "pitch": 59,
              "velocity": 61,
              "position": 14.0,
              "duration": 0.166667
            },
            {
              "pitch": 62,
              "velocity": 61,
              "position": 14.0,
              "duration": 0.166667
            },
            {
              "pitch": 64,
              "velocity": 61,
              "position": 14.0,
              "duration": 0.166667
            },
            {
              "pitch": 67,
              "velocity": 61,
              "position": 14.0,
              "duration": 0.166667
            },
            {
              "pitch": 59,
              "velocity": 63,
              "position": 14.333333,
              "duration": 0.158333
            },
            {
              "pitch": 62,
              "velocity": 63,
              "position": 14.333333,
              "duration": 0.158333
            },
            {
              "pitch": 64,
              "velocity": 63,
              "position": 14.333333,
              "duration": 0.158333
            },
            {
              "pitch": 67,
              "velocity": 63,
              "position": 14.333333,
              "duration": 0.158333
            },
            {
              "pitch": 59,
              "velocity": 61,
              "position": 14.666667,
              "duration": 0.158333
            },
            {
              "pitch": 62,
              "velocity": 61,
              "position": 14.666667,
              "duration": 0.158333
            },
            {
              "pitch": 64,
              "velocity": 61,
              "position": 14.666667,
              "duration": 0.158333
            },
            {
              "pitch": 67,
              "velocity": 61,
              "position": 14.666667,
              "duration": 0.158333
            },
            {
              "pitch": 59,
              "velocity": 67,
              "position": 15.0,
              "duration": 0.175
            },
            {
              "pitch": 62,
              "velocity": 67,
              "position": 15.0,
              "duration": 0.175
            },
            {
              "pitch": 64,
              "velocity": 67,
              "position": 15.0,
              "duration": 0.175
            },
            {
              "pitch": 67,
              "velocity": 67,
              "position": 15.0,
              "duration": 0.175
            },
            {
              "pitch": 59,
              "velocity": 61,
              "position": 15.333333,
              "duration": 0.166667
            },
            {
              "pitch": 62,
              "velocity": 61,
              "position": 15.333333,
              "duration": 0.166667
            },
            {
              "pitch": 64,
              "velocity": 61,
              "position": 15.333333,
              "duration": 0.166667
            },
            {
              "pitch": 67,
              "velocity": 61,
              "position": 15.333333,
              "duration": 0.166667
            },
            {
              "pitch": 59,
              "velocity": 69,
              "position": 15.666667,
              "duration": 0.166667
            },
            {
              "pitch": 62,
              "velocity": 69,
              "position": 15.666667,
              "duration": 0.166667
            },
            {
              "pitch": 64,
              "velocity": 69,
              "position": 15.666667,
              "duration": 0.166667
            },
            {
              "pitch": 67,
              "velocity": 69,
              "position": 15.666667,
              "duration": 0.166667
            }
          ]
        },
        "12": {
          "ctab": {
            "srcChannel": 12,
            "name": "Guitar",
            "accType": "CHORD2",
            "editable": true,
            "mutedNotes": [],
            "mutedChords": [],
            "sourceChordNote": 0,
            "sourceChordType": "Maj7",
            "ctb2Main": {
              "ntr": "ROOT_FIXED",
              "ntt": "CHORD",
              "bassOn": false,
              "noteLowLimit": 40,
              "noteHighLimit": 76,
              "chordRootUpperLimit": 127,
              "rtr": "NOTE_GENERATOR"
            }
          },
          "notes": [
            {
              "pitch": 64,
              "velocity": 65,
              "position": 1.0,
              "duration": 0.141667
            },
            {
              "pitch": 71,
              "velocity": 85,
              "position": 1.0,
              "duration": 0.125
            },
            {
              "pitch": 67,
              "velocity": 75,
              "position": 1.008333,
              "duration": 0.15
            },
            {
              "pitch": 64,
              "velocity": 65,
              "position": 3.0,
              "duration": 0.116667
            },
            {
              "pitch": 67,
              "velocity": 75,
              "position": 3.0,
              "duration": 0.125
            },
            {
              "pitch": 71,
              "velocity": 85,
              "position": 3.0,
              "duration": 0.1
            },
            {
              "pitch": 64,
              "velocity": 65,
              "position": 5.0,
              "duration": 0.141667
            },
            {
              "pitch": 67,
              "velocity": 75,
              "position": 5.008333,
              "duration": 0.15
            },
            {
              "pitch": 64,
              "velocity": 65,
              "position": 7.0,
              "duration": 0.116667
            },
            {
              "pitch": 67,
              "velocity": 75,
              "position": 7.0,
              "duration": 0.125
            },
            {
              "pitch": 64,
              "velocity": 65,
              "position": 9.0,
              "duration": 0.116667
            },
            {
              "pitch": 67,
              "velocity": 75,
              "position": 9.0,
              "duration": 0.125
            },
            {
              "pitch": 71,
              "velocity": 85,
              "position": 9.0,
              "duration": 0.1
            },
            {
              "pitch": 64,
              "velocity": 65,
              "position": 11.0,
              "duration": 0.15
            },
            {
              "pitch": 67,
              "velocity": 75,
              "position": 11.0,
              "duration": 0.116667
            },
            {
              "pitch": 71,
              "velocity": 85,
              "position": 11.0,
              "duration": 0.116667
            },
            {
              "pitch": 64,
              "velocity": 65,
              "position": 13.0,
              "duration": 0.225
            },
            {
              "pitch": 67,
              "velocity": 85,
              "position": 13.0,
              "duration": 0.141667
            },
            {
              "pitch": 71,
              "velocity": 85,
              "position": 13.0,
              "duration": 0.166667
            },
            {
              "pitch": 64,
              "velocity": 65,
              "position": 15.0,
              "duration": 0.1
            },
            {
              "pitch": 67,
              "velocity": 75,
              "position": 15.0,
              "duration": 0.141667
            },
            {
              "pitch": 71,
              "velocity": 85,
              "position": 15.0,
              "duration": 0.125
            }
          ]
        },
        "13": {
          "ctab": {
            "srcChannel": 13,
            "name": "Strings",
            "accType": "PAD",
            "editable": true,
            "mutedNotes": [],
            "mutedChords": [],
            "sourceChordNote": 0,
            "sourceChordType": "Maj7",
            "ctb2Main": {
              "ntr": "ROOT_FIXED",
              "ntt": "MELODY",
              "bassOn": false,
              "noteLowLimit": 36,
              "noteHighLimit": 96,
              "chordRootUpperLimit": 127,
              "rtr": "PITCH_SHIFT"
            }
          },
          "notes": []
        }
      }
    },
    "Fill_In_AA": {
      "type": "Fill_In_AA",
      "sizeInBeats": 16,
      "channels": {
        "9": {
          "ctab": {
            "srcChannel": 9,
            "name": "Drums",
            "accType": "RHYTHM",
            "editable": false,
            "mutedNotes": [],
            "mutedChords": [],
            "sourceChordNote": 0,
            "sourceChordType": "Maj",
            "ctb2Main": {
              "ntr": "ROOT_FIXED",
              "ntt": "BYPASS",
              "bassOn": false,
              "noteLowLimit": 20,
              "noteHighLimit": 127,
              "chordRootUpperLimit": 127,
              "rtr": "RETRIGGER"
            }
          },
          "notes": [
            {
              "pitch": 35,
              "velocity": 100,
              "position": 0.0,
              "duration": 0.208333
            },
            {
              "pitch": 42,
              "velocity": 90,
              "position": 0.0,
              "duration": 0.208333
            },
            {
              "pitch": 49,
              "velocity": 80,
              "position": 0.0,
              "duration": 0.208333
            },
            {
              "pitch": 42,
              "velocity": 70,
              "position": 0.333333,
              "duration": 0.208333
            },
            {
              "pitch": 42,
              "velocity": 80,
              "position": 0.666667,
              "duration": 0.208333
            },
            {
              "pitch": 37,
              "velocity": 100,
              "position": 1.0,
              "duration": 0.208333
            },
            {
              "pitch": 38,
              "velocity": 90,
              "position": 1.0,
              "duration": 0.208333
            },
            {
              "pitch": 42,
              "velocity": 90,
              "position": 1.0,
              "duration": 0.208333
            },
            {
              "pitch": 54,
              "velocity": 90,
              "position": 1.0,
              "duration": 0.208333
            },
            {
              "pitch": 42,
              "velocity": 70,
              "position": 1.333333,
              "duration": 0.208333
            },
            {
              "pitch": 35,
              "velocity": 80,
              "position": 1.666667,
              "duration": 0.208333
            },
            {
              "pitch": 42,
              "velocity": 80,
              "position": 1.666667,
              "duration": 0.208333
            },
            {
              "pitch": 35,
              "velocity": 100,
              "position": 2.0,
              "duration": 0.208333
            },
            {
              "pitch": 42,
              "velocity": 90,
              "position": 2.0,
              "duration": 0.208333
            },
            {
              "pitch": 42,
              "velocity": 70,
              "position": 2.333333,
              "duration": 0.208333
            },
            {
              "pitch": 35,
              "velocity": 80,
              "position": 2.666667,
              "duration": 0.208333
            },
            {
              "pitch": 42,
              "velocity": 80,
              "position": 2.666667,
              "duration": 0.208333
            },
            {
              "pitch": 37,
              "velocity": 100,
              "position": 3.0,
              "duration": 0.208333
            },
            {
              "pitch": 38,
              "velocity": 100,
              "position": 3.0,
              "duration": 0.208333
            },
            {
              "pitch": 42,
              "velocity": 90,
              "position": 3.0,
              "duration": 0.208333
            },
            {
              "pitch": 54,
              "velocity": 90,
              "position": 3.0,
              "duration": 0.208333
            },
            {
              "pitch": 42,
              "velocity": 70,
              "position": 3.333333,
              "duration": 0.208333
            },
            {
              "pitch": 35,
              "velocity": 80,
              "position": 3.666667,
              "duration": 0.208333
            },
            {
              "pitch": 46,
              "velocity": 90,
              "position": 3.666667,
              "duration": 0.208333
            },
            {
              "pitch": 35,
              "velocity": 100,
              "position": 4.0,
              "duration": 0.208333
            },
            {
              "pitch": 42,
              "velocity": 90,
              "position": 4.0,
              "duration": 0.208333
            },
            {
              "pitch": 42,
              "velocity": 70,
              "position": 4.333333,
              "duration": 0.208333
            },
            {
              "pitch": 42,
              "velocity": 80,
              "position": 4.666667,
              "duration": 0.208333
            },
            {
              "pitch": 37,
              "velocity": 100,
              "position": 5.0,
              "duration": 0.208333
            },
            {
              "pitch": 38,
              "velocity": 90,
              "position": 5.0,
              "duration": 0.208333
            },
            {
              "pitch": 42,
              "velocity": 90,
              "position": 5.0,
              "duration": 0.208333
            },
            {
              "pitch": 54,
              "velocity": 90,
              "position": 5.0,
              "duration": 0.208333
            },
            {
              "pitch": 42,
              "velocity": 70,
              "position": 5.333333,
              "duration": 0.208333
            },
            {
              "pitch": 35,
              "velocity": 80,
              "position": 5.666667,
              "duration": 0.208333
            },
            {
              "pitch": 42,
              "velocity": 80,
              "position": 5.666667,
              "duration": 0.208333
            },
            {
              "pitch": 35,
              "velocity": 100,
              "position": 6.0,
              "duration": 0.208333
            },
            {
              "pitch": 42,
              "velocity": 90,
              "position": 6.0,
              "duration": 0.208333
            },
            {
              "pitch": 42,
              "velocity": 70,
              "position": 6.333333,
              "duration": 0.208333
            },
            {
              "pitch": 35,
              "velocity": 80,
              "position": 6.666667,
              "duration": 0.208333
            },
            {
              "pitch": 42,
              "velocity": 80,
              "position": 6.666667,
              "duration": 0.208333
            },
            {
              "pitch": 37,
              "velocity": 100,
              "position": 7.0,
              "duration": 0.208333
            },
            {
              "pitch": 38,
              "velocity": 100,
              "position": 7.0,
              "duration": 0.208333
            },
            {
              "pitch": 42,
              "velocity": 90,
              "position": 7.0,
              "duration": 0.208333
            },
            {
              "pitch": 54,
              "velocity": 90,
              "position": 7.0,
              "duration": 0.208333
            },
            {
              "pitch": 42,
              "velocity": 70,
              "position": 7.333333,
              "duration": 0.208333
            },
            {
              "pitch": 35,
              "velocity": 80,
              "position": 7.666667,
              "duration": 0.208333
            },
            {
              "pitch": 42,
              "velocity": 80,
              "position": 7.666667,
              "duration": 0.208333
            },
            {
              "pitch": 35,
              "velocity": 100,
              "position": 8.0,
              "duration": 0.208333
            },
            {
              "pitch": 42,
              "velocity": 90,
              "position": 8.0,
              "duration": 0.208333
            },
            {
              "pitch": 42,
              "velocity": 70,
              "position": 8.333333,
              "duration": 0.208333
            },
            {
              "pitch": 42,
              "velocity": 80,
              "position": 8.666667,
              "duration": 0.208333
            },
            {
              "pitch": 37,
              "velocity": 100,
              "position": 9.0,
              "duration": 0.208333
            },
            {
              "pitch": 38,
              "velocity": 90,
              "position": 9.0,
              "duration": 0.208333
            },
            {
              "pitch": 42,
              "velocity": 90,
              "position": 9.0,
              "duration": 0.208333
            },
            {
              "pitch": 54,
              "velocity": 90,
              "position": 9.0,
              "duration": 0.208333
            },
            {
              "pitch": 42,
              "velocity": 70,
              "position": 9.333333,
              "duration": 0.208333
            },
            {
              "pitch": 35,
              "velocity": 80,
              "position": 9.666667,
              "duration": 0.208333
            },
            {
              "pitch": 42,
              "velocity": 80,
              "position": 9.666667,
              "duration": 0.208333
            },
            {
              "pitch": 35,
              "velocity": 100,
              "position": 10.0,
              "duration": 0.208333
            },
            {
              "pitch": 42,
              "velocity": 90,
              "position": 10.0,
              "duration": 0.208333
            },
            {
              "pitch": 42,
              "velocity": 70,
              "position": 10.333333,
              "duration": 0.208333
            },
            {
              "pitch": 35,
              "velocity": 80,
              "position": 10.666667,
              "duration": 0.208333
            },
            {
              "pitch": 42,
              "velocity": 80,
              "position": 10.666667,
              "duration": 0.208333
            },
            {
              "pitch": 37,
              "velocity": 100,
              "position": 11.0,
              "duration": 0.208333
            },
            {
              "pitch": 38,
              "velocity": 100,
              "position": 11.0,
              "duration": 0.208333
            },
            {
              "pitch": 42,
              "velocity": 90,
              "position": 11.0,
              "duration": 0.208333
            },
            {
              "pitch": 54,
              "velocity": 90,
              "position": 11.0,
              "duration": 0.208333
            },
            {
              "pitch": 42,
              "velocity": 70,
              "position": 11.333333,
              "duration": 0.208333
            },
            {
              "pitch": 35,
              "velocity": 80,
              "position": 11.666667,
              "duration": 0.208333
            },
            {
              "pitch": 46,
              "velocity": 90,
              "position": 11.666667,
              "duration": 0.208333
            },
            {
              "pitch": 35,
              "velocity": 100,
              "position": 12.0,
              "duration": 0.208333
            },
            {
              "pitch": 42,
              "velocity": 90,
              "position": 12.0,
              "duration": 0.208333
            },
            {
              "pitch": 42,
              "velocity": 70,
              "position": 12.333333,
              "duration": 0.208333
            },
            {
              "pitch": 42,
              "velocity": 80,
              "position": 12.666667,
              "duration": 0.208333
            },
            {
              "pitch": 37,
              "velocity": 100,
              "position": 13.0,
              "duration": 0.208333
            },
            {
              "pitch": 38,
              "velocity": 90,
              "position": 13.0,
              "duration": 0.208333
            },
            {
              "pitch": 42,
              "velocity": 90,
              "position": 13.0,
              "duration": 0.208333
            },
            {
              "pitch": 42,
              "velocity": 70,
              "position": 13.333333,
              "duration": 0.208333
            },
            {
              "pitch": 35,
              "velocity": 80,
              "position": 13.666667,
              "duration": 0.208333
            },
            {
              "pitch": 42,
              "velocity": 80,
              "position": 13.666667,
              "duration": 0.208333
            },
            {
              "pitch": 35,
              "velocity": 100,
              "position": 14.0,
              "duration": 0.208333
            },
            {
              "pitch": 42,
              "velocity": 90,
              "position": 14.0,
              "duration": 0.208333
            },
            {
              "pitch": 38,
              "velocity": 90,
              "position": 14.333333,
              "duration": 0.208333
            },
            {
              "pitch": 42,
              "velocity": 70,
              "position": 14.333333,
              "duration": 0.208333
            },
            {
              "pitch": 35,
              "velocity": 80,
              "position": 14.666667,
              "duration": 0.208333
            },
            {
              "pitch": 42,
              "velocity": 80,
              "position": 14.666667,
              "duration": 0.208333
            },
            {
              "pitch": 37,
              "velocity": 100,
              "position": 15.0,
              "duration": 0.208333
            },
            {
              "pitch": 38,
              "velocity": 100,
              "position": 15.0,
              "duration": 0.208333
            },
            {
              "pitch": 42,
              "velocity": 90,
              "position": 15.0,
              "duration": 0.208333
            },
            {
              "pitch": 42,
              "velocity": 70,
              "position": 15.333333,
              "duration": 0.208333
            },
            {
              "pitch": 35,
              "velocity": 80,
              "position": 15.666667,
              "duration": 0.208333
            },
            {
              "pitch": 38,
              "velocity": 70,
              "position": 15.666667,
              "duration": 0.208333
            },
            {
              "pitch": 46,
              "velocity": 90,
              "position": 15.666667,
              "duration": 0.208333
            }
          ]
        },
        "10": {
          "ctab": {
            "srcChannel": 10,
            "name": "Bass",
            "accType": "BASS",
            "editable": true,
            "mutedNotes": [],
            "mutedChords": [],
            "sourceChordNote": 0,
            "sourceChordType": "Maj7",
            "ctb2Main": {
              "ntr": "ROOT_TRANSPOSITION",
              "ntt": "BYPASS",
              "bassOn": true,
              "noteLowLimit": 20,
              "noteHighLimit": 60,
              "chordRootUpperLimit": 127,
              "rtr": "NOTE_GENERATOR"
            }
          },
          "notes": [
            {
              "pitch": 36,
              "velocity": 93,
              "position": 0.0,
              "duration": 1.666667
            },
            {
              "pitch": 43,
              "velocity": 91,
              "position": 1.666667,
              "duration": 0.275
            },
            {
              "pitch": 36,
              "velocity": 93,
              "position": 2.0,
              "duration": 1.666667
            },
            {
              "pitch": 43,
              "velocity": 91,
              "position": 3.666667,
              "duration": 0.275
            },
            {
              "pitch": 36,
              "velocity": 93,
              "position": 4.0,
              "duration": 1.666667
            },
            {
              "pitch": 43,
              "velocity": 91,
              "position": 5.666667,
              "duration": 0.275
            },
            {
              "pitch": 36,
              "velocity": 93,
              "position": 6.0,
              "duration": 1.533333
            },
            {
              "pitch": 36,
              "velocity": 91,
              "position": 7.666667,
              "duration": 0.275
            },
            {
              "pitch": 36,
              "velocity": 89,
              "position": 8.0,
              "duration": 1.758333
            },
            {
              "pitch": 40,
              "velocity": 93,
              "position": 9.666667,
              "duration": 0.383333
            },
            {
              "pitch": 43,
              "velocity": 87,
              "position": 10.0,
              "duration": 1.05
            },
            {
              "pitch": 40,
              "velocity": 72,
              "position": 11.0,
              "duration": 0.666667
            },
            {
              "pitch": 43,
              "velocity": 85,
              "position": 11.666667,
              "duration": 0.375
            },
            {
              "pitch": 36,
              "velocity": 72,
              "position": 12.0,
              "duration": 1.8
            },
            {
              "pitch": 40,
              "velocity": 87,
              "position": 13.666667,
              "duration": 0.391667
            },
            {
              "pitch": 43,
              "velocity": 91,
              "position": 14.0,
              "duration": 1.0
            },
            {
              "pitch": 40,
              "velocity": 102,
              "position": 15.0,
              "duration": 0.708333
            },
            {
              "pitch": 43,
              "velocity": 89,
              "position": 15.666667,
              "duration": 0.275
            }
          ]
        },
        "11": {
          "ctab": {
            "srcChannel": 11,
            "name": "Piano",
            "accType": "CHORD1",
            "editable": true,
            "mutedNotes": [],
            "mutedChords": [],
            "sourceChordNote": 0,
            "sourceChordType": "Maj7",
            "ctb2Main": {
              "ntr": "ROOT_FIXED",
              "ntt": "CHORD",
              "bassOn": false,
              "noteLowLimit": 48,
              "noteHighLimit": 84,
              "chordRootUpperLimit": 127,
              "rtr": "NOTE_GENERATOR"
            }
          },
          "notes": [
            {
              "pitch": 59,
              "velocity": 80,
              "position": 0.0,
              "duration": 0.175
            },
            {
              "pitch": 62,
              "velocity": 80,
              "position": 0.0,
              "duration": 0.175
            },
            {
              "pitch": 64,
              "velocity": 80,
              "position": 0.0,
              "duration": 0.175
            },
            {
              "pitch": 67,
              "velocity": 80,
              "position": 0.0,
              "duration": 0.175
            },
            {
              "pitch": 59,
              "velocity": 59,
              "position": 0.333333,
              "duration": 0.158333
            },
            {
              "pitch": 62,
              "velocity": 59,
              "position": 0.333333,
              "duration": 0.158333
            },
            {
              "pitch": 64,
              "velocity": 59,
              "position": 0.333333,
              "duration": 0.158333
            },
            {
              "pitch": 67,
              "velocity": 59,
              "position": 0.333333,
              "duration": 0.158333
            },
            {
              "pitch": 59,
              "velocity": 59,
              "position": 0.666667,
              "duration": 0.183333
            },
            {
              "pitch": 62,
              "velocity": 59,
              "position": 0.666667,
              "duration": 0.183333
            },
            {
              "pitch": 64,
              "velocity": 59,
              "position": 0.666667,
              "duration": 0.183333
            },
            {
              "pitch": 67,
              "velocity": 59,
              "position": 0.666667,
              "duration": 0.183333
            },
            {
              "pitch": 59,
              "velocity": 57,
              "position": 1.0,
              "duration": 0.183333
            },
            {
              "pitch": 62,
              "velocity": 57,
              "position": 1.0,
              "duration": 0.183333
            },
            {
              "pitch": 64,
              "velocity": 57,
              "position": 1.0,
              "duration": 0.183333
            },
            {
              "pitch": 67,
              "velocity": 57,
              "position": 1.0,
              "duration": 0.183333
            },
            {
              "pitch": 59,
              "velocity": 63,
              "position": 1.333333,
              "duration": 0.175
            },
            {
              "pitch": 62,
              "velocity": 63,
              "position": 1.333333,
              "duration": 0.175
            },
            {
              "pitch": 64,
              "velocity": 63,
              "position": 1.333333,
              "duration": 0.175
            },
            {
              "pitch": 67,
              "velocity": 63,
              "position": 1.333333,
              "duration": 0.175
            },
            {
              "pitch": 59,
              "velocity": 69,
              "position": 1.666667,
              "duration": 0.175
            },
            {
              "pitch": 62,
              "velocity": 69,
              "position": 1.666667,
              "duration": 0.175
            },
            {
              "pitch": 64,
              "velocity": 69,
              "position": 1.666667,
              "duration": 0.175
            },
            {
              "pitch": 67,
              "velocity": 69,
              "position": 1.666667,
              "duration": 0.175
            },
            {
              "pitch": 59,
              "velocity": 80,
              "position": 2.0,
              "duration": 0.175
            },
            {
              "pitch": 62,
              "velocity": 80,
              "position": 2.0,
              "duration": 0.175
            },
            {
              "pitch": 64,
              "velocity": 80,
              "position": 2.0,
              "duration": 0.175
            },
            {
              "pitch": 67,
              "velocity": 80,
              "position": 2.0,
              "duration": 0.175
            },
            {
              "pitch": 59,
              "velocity": 59,
              "position": 2.333333,
              "duration": 0.158333
            },
            {
              "pitch": 62,
              "velocity": 59,
              "position": 2.333333,
              "duration": 0.158333
            },
            {
              "pitch": 64,
              "velocity": 59,
              "position": 2.333333,
              "duration": 0.158333
            },
            {
              "pitch": 67,
              "velocity": 59,
              "position": 2.333333,
              "duration": 0.158333
            },
            {
              "pitch": 59,
              "velocity": 59,
              "position": 2.666667,
              "duration": 0.183333
            },
            {
              "pitch": 62,
              "velocity": 59,
              "position": 2.666667,
              "duration": 0.183333
            },
            {
              "pitch": 64,
              "velocity": 59,
              "position": 2.666667,
              "duration": 0.183333
            },
            {
              "pitch": 67,
              "velocity": 59,
              "position": 2.666667,
              "duration": 0.183333
            },
            {
              "pitch": 59,
              "velocity": 57,
              "position": 3.0,
              "duration": 0.183333
            },
            {
              "pitch": 62,
              "velocity": 57,
              "position": 3.0,
              "duration": 0.183333
            },
            {
              "pitch": 64,
              "velocity": 57,
              "position": 3.0,
              "duration": 0.183333
            },
            {
              "pitch": 67,
              "velocity": 57,
              "position": 3.0,
              "duration": 0.183333
            },
            {
              "pitch": 59,
              "velocity": 63,
              "position": 3.333333,
              "duration": 0.175
            },
            {
              "pitch": 62,
              "velocity": 63,
              "position": 3.333333,
              "duration": 0.175
            },
            {
              "pitch": 64,
              "velocity": 63,
              "position": 3.333333,
              "duration": 0.175
            },
            {
              "pitch": 67,
              "velocity": 63,
              "position": 3.333333,
              "duration": 0.175
            },
            {
              "pitch": 59,
              "velocity": 69,
              "position": 3.666667,
              "duration": 0.175
            },
            {
              "pitch": 62,
              "velocity": 69,
              "position": 3.666667,
              "duration": 0.175
            },
            {
              "pitch": 64,
              "velocity": 69,
              "position": 3.666667,
              "duration": 0.175
            },
            {
              "pitch": 67,
              "velocity": 69,
              "position": 3.666667,
              "duration": 0.175
            },
            {
              "pitch": 59,
              "velocity": 80,
              "position": 4.0,
              "duration": 0.175
            },
            {
              "pitch": 62,
              "velocity": 80,
              "position": 4.0,
              "duration": 0.175
            },
            {
              "pitch": 64,
              "velocity": 80,
              "position": 4.0,
              "duration": 0.175
            },
            {
              "pitch": 67,
              "velocity": 80,
              "position": 4.0,
              "duration": 0.175
            },
            {
              "pitch": 59,
              "velocity": 59,
              "position": 4.333333,
              "duration": 0.158333
            },
            {
              "pitch": 62,
              "velocity": 59,
              "position": 4.333333,
              "duration": 0.158333
            },
            {
              "pitch": 64,
              "velocity": 59,
              "position": 4.333333,
              "duration": 0.158333
            },
            {
              "pitch": 67,
              "velocity": 59,
              "position": 4.333333,
              "duration": 0.158333
            },
            {
              "pitch": 59,
              "velocity": 59,
              "position": 4.666667,
              "duration": 0.183333
            },
            {
              "pitch": 62,
              "velocity": 59,
              "position": 4.666667,
              "duration": 0.183333
            },
            {
              "pitch": 64,
              "velocity": 59,
              "position": 4.666667,
              "duration": 0.183333
            },
            {
              "pitch": 67,
              "velocity": 59,
              "position": 4.666667,
              "duration": 0.183333
            },
            {
              "pitch": 59,
              "velocity": 57,
              "position": 5.0,
              "duration": 0.183333
            },
            {
              "pitch": 62,
              "velocity": 57,
              "position": 5.0,
              "duration": 0.183333
            },
            {
              "pitch": 64,
              "velocity": 57,
              "position": 5.0,
              "duration": 0.183333
            },
            {
              "pitch": 67,
              "velocity": 57,
              "position": 5.0,
              "duration": 0.183333
            },
            {
              "pitch": 59,
              "velocity": 63,
              "position": 5.333333,
              "duration": 0.175
            },
            {
              "pitch": 62,
              "velocity": 63,
              "position": 5.333333,
              "duration": 0.175
            },
            {
              "pitch": 64,
              "velocity": 63,
              "position": 5.333333,
              "duration": 0.175
            },
            {
              "pitch": 67,
              "velocity": 63,
              "position": 5.333333,
              "duration": 0.175
            },
            {
              "pitch": 59,
              "velocity": 69,
              "position": 5.666667,
              "duration": 0.175
            },
            {
              "pitch": 62,
              "velocity": 69,
              "position": 5.666667,
              "duration": 0.175
            },
            {
              "pitch": 64,
              "velocity": 69,
              "position": 5.666667,
              "duration": 0.175
            },
            {
              "pitch": 67,
              "velocity": 69,
              "position": 5.666667,
              "duration": 0.175
            },
            {
              "pitch": 59,
              "velocity": 80,
              "position": 6.0,
              "duration": 0.175
            },
            {
              "pitch": 62,
              "velocity": 80,
              "position": 6.0,
              "duration": 0.175
            },
            {
              "pitch": 64,
              "velocity": 80,
              "position": 6.0,
              "duration": 0.175
            },
            {
              "pitch": 67,
              "velocity": 80,
              "position": 6.0,
              "duration": 0.175
            },
            {
              "pitch": 59,
              "velocity": 59,
              "position": 6.333333,
              "duration": 0.158333
            },
            {
              "pitch": 62,
              "velocity": 59,
              "position": 6.333333,
              "duration": 0.158333
            },
            {
              "pitch": 64,
              "velocity": 59,
              "position": 6.333333,
              "duration": 0.158333
            },
            {
              "pitch": 67,
              "velocity": 59,
              "position": 6.333333,
              "duration": 0.158333
            },
            {
              "pitch": 59,
              "velocity": 59,
              "position": 6.666667,
              "duration": 0.183333
            },
            {
              "pitch": 62,
              "velocity": 59,
              "position": 6.666667,
              "duration": 0.183333
            },
            {
              "pitch": 64,
              "velocity": 59,
              "position": 6.666667,
              "duration": 0.183333
            },
            {
              "pitch": 67,
              "velocity": 59,
              "position": 6.666667,
              "duration": 0.183333
            },
            {
              "pitch": 59,
              "velocity": 57,
              "position": 7.0,
              "duration": 0.183333
            },
            {
              "pitch": 62,
              "velocity": 57,
              "position": 7.0,
              "duration": 0.183333
            },
            {
              "pitch": 64,
              "velocity": 57,
              "position": 7.0,
              "duration": 0.183333
            },
            {
              "pitch": 67,
              "velocity": 57,
              "position": 7.0,
              "duration": 0.183333
            },
            {
              "pitch": 59,
              "velocity": 63,
              "position": 7.333333,
              "duration": 0.175
            },
            {
              "pitch": 62,
              "velocity": 63,
              "position": 7.333333,
              "duration": 0.175
            },
            {
              "pitch": 64,
              "velocity": 63,
              "position": 7.333333,
              "duration": 0.175
            },
            {
              "pitch": 67,
              "velocity": 63,
              "position": 7.333333,
              "duration": 0.175
            },
            {
              "pitch": 59,
              "velocity": 69,
              "position": 7.666667,
              "duration": 0.175
            },
            {
              "pitch": 62,
              "velocity": 69,
              "position": 7.666667,
              "duration": 0.175
            },
            {
              "pitch": 64,
              "velocity": 69,
              "position": 7.666667,
              "duration": 0.175
            },
            {
              "pitch": 67,
              "velocity": 69,
              "position": 7.666667,
              "duration": 0.175
            },
            {
              "pitch": 59,
              "velocity": 73,
              "position": 8.0,
              "duration": 0.141667
            },
            {
              "pitch": 62,
              "velocity": 73,
              "position": 8.0,
              "duration": 0.141667
            },
            {
              "pitch": 64,
              "velocity": 73,
              "position": 8.0,
              "duration": 0.141667
            },
            {
              "pitch": 67,
              "velocity": 73,
              "position": 8.0,
              "duration": 0.141667
            },
            {
              "pitch": 59,
              "velocity": 57,
              "position": 8.333333,
              "duration": 0.158333
            },
            {
              "pitch": 62,
              "velocity": 57,
              "position": 8.333333,
              "duration": 0.158333
            },
            {
              "pitch": 64,
              "velocity": 57,
              "position": 8.333333,
              "duration": 0.158333
            },
            {
              "pitch": 67,
              "velocity": 57,
              "position": 8.333333,
              "duration": 0.158333
            },
            {
              "pitch": 59,
              "velocity": 55,
              "position": 8.666667,
              "duration": 0.15
            },
            {
              "pitch": 62,
              "velocity": 55,
              "position": 8.666667,
              "duration": 0.15
            },
            {
              "pitch": 64,
              "velocity": 55,
              "position": 8.666667,
              "duration": 0.15
            },
            {
              "pitch": 67,
              "velocity": 55,
              "position": 8.666667,
              "duration": 0.15
            },
            {
              "pitch": 59,
              "velocity": 59,
              "position": 9.0,
              "duration": 0.15
            },
            {
              "pitch": 62,
              "velocity": 59,
              "position": 9.0,
              "duration": 0.15
            },
            {
              "pitch": 64,
              "velocity": 59,
              "position": 9.0,
              "duration": 0.15
            },
            {
              "pitch": 67,
              "velocity": 59,
              "position": 9.0,
              "duration": 0.15
            },
            {
              "pitch": 59,
              "velocity": 59,
              "position": 9.333333,
              "duration": 0.15
            },
            {
              "pitch": 62,
              "velocity": 59,
              "position": 9.333333,
              "duration": 0.15
            },
            {
              "pitch": 64,
              "velocity": 59,
              "position": 9.333333,
              "duration": 0.15
            },
            {
              "pitch": 67,
              "velocity": 59,
              "position": 9.333333,
              "duration": 0.15
            },
            {
              "pitch": 59,
              "velocity": 59,
              "position": 9.666667,
              "duration": 0.166667
            },
            {
              "pitch": 62,
              "velocity": 59,
              "position": 9.666667,
              "duration": 0.166667
            },
            {
              "pitch": 64,
              "velocity": 59,
              "position": 9.666667,
              "duration": 0.166667
            },
            {
              "pitch": 67,
              "velocity": 59,
              "position": 9.666667,
              "duration": 0.166667
            },
            {
              "pitch": 59,
              "velocity": 59,
              "position": 10.0,
              "duration": 0.158333
            },
            {
              "pitch": 62,
              "velocity": 59,
              "position": 10.0,
              "duration": 0.158333
            },
            {
              "pitch": 64,
              "velocity": 59,
              "position": 10.0,
              "duration": 0.158333
            },
            {
              "pitch": 67,
              "velocity": 59,
              "position": 10.0,
              "duration": 0.158333
            },
            {
              "pitch": 59,
              "velocity": 59,
              "position": 10.333333,
              "duration": 0.166667
            },
            {
              "pitch": 62,
              "velocity": 59,
              "position": 10.333333,
              "duration": 0.166667
            },
            {
              "pitch": 64,
              "velocity": 59,
              "position": 10.333333,
              "duration": 0.166667
            },
            {
              "pitch": 67,
              "velocity": 59,
              "position": 10.333333,
              "duration": 0.166667
            },
            {
              "pitch": 59,
              "velocity": 59,
              "position": 10.666667,
              "duration": 0.166667
            },
            {
              "pitch": 62,
              "velocity": 59,
              "position": 10.666667,
              "duration": 0.166667
            },
            {
              "pitch": 64,
              "velocity": 59,
              "position": 10.666667,
              "duration": 0.166667
            },
            {
              "pitch": 67,
              "velocity": 59,
              "position": 10.666667,
              "duration": 0.166667
            },
            {
              "pitch": 59,
              "velocity": 59,
              "position": 11.0,
              "duration": 0.166667
            },
            {
              "pitch": 62,
              "velocity": 59,
              "position": 11.0,
              "duration": 0.166667
            },
            {
              "pitch": 64,
              "velocity": 59,
              "position": 11.0,
              "duration": 0.166667
            },
            {
              "pitch": 67,
              "velocity": 59,
              "position": 11.0,
              "duration": 0.166667
            },
            {
              "pitch": 59,
              "velocity": 55,
              "position": 11.333333,
              "duration": 0.15
            },
            {
              "pitch": 62,
              "velocity": 55,
              "position": 11.333333,
              "duration": 0.15
            },
            {
              "pitch": 64,
              "velocity": 55,
              "position": 11.333333,
              "duration": 0.15
            },
            {
              "pitch": 67,
              "velocity": 55,
              "position": 11.333333,
              "duration": 0.15
            },
            {
              "pitch": 59,
              "velocity": 59,
              "position": 11.666667,
              "duration": 0.175
            },
            {
              "pitch": 62,
              "velocity": 59,
              "position": 11.666667,
              "duration": 0.175
            },
            {
              "pitch": 64,
              "velocity": 59,
              "position": 11.666667,
              "duration": 0.175
            },
            {
              "pitch": 67,
              "velocity": 59,
              "position": 11.666667,
              "duration": 0.175
            },
            {
              "pitch": 59,
              "velocity": 61,
              "position": 12.0,
              "duration": 0.175
            },
            {
              "pitch": 62,
              "velocity": 61,
              "position": 12.0,
              "duration": 0.175
            },
            {
              "pitch": 64,
              "velocity": 61,
              "position": 12.0,
              "duration": 0.175
            },
            {
              "pitch": 67,
              "velocity": 61,
              "position": 12.0,
              "duration": 0.175
            },
            {
              "pitch": 59,
              "velocity": 59,
              "position": 12.333333,
              "duration": 0.166667
            },
            {
              "pitch": 62,
              "velocity": 59,
              "position": 12.333333,
              "duration": 0.166667
            },
            {
              "pitch": 64,
              "velocity": 59,
              "position": 12.333333,
              "duration": 0.166667
            },
            {
              "pitch": 67,
              "velocity": 59,
              "position": 12.333333,
              "duration": 0.166667
            },
            {
              "pitch": 59,
              "velocity": 61,
              "position": 12.666667,
              "duration": 0.141667
            },
            {
              "pitch": 62,
              "velocity": 61,
              "position": 12.666667,
              "duration": 0.141667
            },
            {
              "pitch": 64,
              "velocity": 61,
              "position": 12.666667,
              "duration": 0.141667
            },
            {
              "pitch": 67,
              "velocity": 61,
              "position": 12.666667,
              "duration": 0.141667
            },
            {
              "pitch": 59,
              "velocity": 63,
              "position": 13.0,
              "duration": 0.158333
            },
            {
              "pitch": 62,
              "velocity": 63,
              "position": 13.0,
              "duration": 0.158333
            },
            {
              "pitch": 64,
              "velocity": 63,
              "position": 13.0,
              "duration": 0.158333
            },
            {
              "pitch": 67,
              "velocity": 63,
              "position": 13.0,
              "duration": 0.158333
            },
            {
              "pitch": 59,
              "velocity": 51,
              "position": 13.333333,
              "duration": 0.175
            },
            {
              "pitch": 62,
              "velocity": 51,
              "position": 13.333333,
              "duration": 0.175
            },
            {
              "pitch": 64,
              "velocity": 51,
              "position": 13.333333,
              "duration": 0.175
            },
            {
              "pitch": 67,
              "velocity": 51,
              "position": 13.333333,
              "duration": 0.175
            },
            {
              "pitch": 59,
              "velocity": 59,
              "position": 13.666667,
              "duration": 0.175
            },
            {
              "pitch": 62,
              "velocity": 59,
              "position": 13.666667,
              "duration": 0.175
            },
            {
              "pitch": 64,
              "velocity": 59,
              "position": 13.666667,
              "duration": 0.175
            },
            {
              "pitch": 67,
              "velocity": 59,
              "position": 13.666667,
              "duration": 0.175
            },
            {
              "pitch": 59,
              "velocity": 61,
              "position": 14.0,
              "duration": 0.166667
            },
            {
              "pitch": 62,
              "velocity": 61,
              "position": 14.0,
              "duration": 0.166667
            },
            {
              "pitch": 64,
              "velocity": 61,
              "position": 14.0,
              "duration": 0.166667
            },
            {
              "pitch": 67,
              "velocity": 61,
              "position": 14.0,
              "duration": 0.166667
            },
            {
              "pitch": 59,
              "velocity": 63,
              "position": 14.333333,
              "duration": 0.158333
            },
            {
              "pitch": 62,
              "velocity": 63,
              "position": 14.333333,
              "duration": 0.158333
            },
            {
              "pitch": 64,
              "velocity": 63,
              "position": 14.333333,
              "duration": 0.158333
            },
            {
              "pitch": 67,
              "velocity": 63,
              "position": 14.333333,
              "duration": 0.158333
            },
            {
              "pitch": 59,
              "velocity": 61,
              "position": 14.666667,
              "duration": 0.158333
            },
            {
              "pitch": 62,
              "velocity": 61,
              "position": 14.666667,
              "duration": 0.158333
            },
            {
              "pitch": 64,
              "velocity": 61,
              "position": 14.666667,
              "duration": 0.158333
            },
            {
              "pitch": 67,
              "velocity": 61,
              "position": 14.666667,
              "duration": 0.158333
            },
            {
              "pitch": 59,
              "velocity": 67,
              "position": 15.0,
              "duration": 0.175
            },
            {
              "pitch": 62,
              "velocity": 67,
              "position": 15.0,
              "duration": 0.175
            },
            {
              "pitch": 64,
              "velocity": 67,
              "position": 15.0,
              "duration": 0.175
            },
            {
              "pitch": 67,
              "velocity": 67,
              "position": 15.0,
              "duration": 0.175
            },
            {
              "pitch": 59,
              "velocity": 61,
              "position": 15.333333,
              "duration": 0.166667
            },
            {
              "pitch": 62,
              "velocity": 61,
              "position": 15.333333,
              "duration": 0.166667
            },
            {
              "pitch": 64,
              "velocity": 61,
              "position": 15.333333,
              "duration": 0.166667
            },
            {
              "pitch": 67,
              "velocity": 61,
              "position": 15.333333,
              "duration": 0.166667
            },
            {
              "pitch": 59,
              "velocity": 69,
              "position": 15.666667,
              "duration": 0.166667
            },
            {
              "pitch": 62,
              "velocity": 69,
              "position": 15.666667,
              "duration": 0.166667
            },
            {
              "pitch": 64,
              "velocity": 69,
              "position": 15.666667,
              "duration": 0.166667
            },
            {
              "pitch": 67,
              "velocity": 69,
              "position": 15.666667,
              "duration": 0.166667
            }
          ]
        },
        "12": {
          "ctab": {
            "srcChannel": 12,
            "name": "Guitar",
            "accType": "CHORD2",
            "editable": true,
            "mutedNotes": [],
            "mutedChords": [],
            "sourceChordNote": 0,
            "sourceChordType": "Maj7",
            "ctb2Main": {
              "ntr": "ROOT_FIXED",
              "ntt": "CHORD",
              "bassOn": false,
              "noteLowLimit": 40,
              "noteHighLimit": 76,
              "chordRootUpperLimit": 127,
              "rtr": "NOTE_GENERATOR"
            }
          },
          "notes": [
            {
              "pitch": 64,
              "velocity": 65,
              "position": 1.0,
              "duration": 0.141667
            },
            {
              "pitch": 67,
              "velocity": 75,
              "position": 1.008333,
              "duration": 0.15
            },
            {
              "pitch": 64,
              "velocity": 65,
              "position": 3.0,
              "duration": 0.116667
            },
            {
              "pitch": 67,
              "velocity": 75,
              "position": 3.0,
              "duration": 0.125
            },
            {
              "pitch": 71,
              "velocity": 85,
              "position": 3.0,
              "duration": 0.1
            },
            {
              "pitch": 64,
              "velocity": 65,
              "position": 5.0,
              "duration": 0.141667
            },
            {
              "pitch": 67,
              "velocity": 75,
              "position": 5.008333,
              "duration": 0.15
            },
            {
              "pitch": 64,
              "velocity": 65,
              "position": 7.0,
              "duration": 0.141667
            },
            {
              "pitch": 71,
              "velocity": 85,
              "position": 7.0,
              "duration": 0.125
            },
            {
              "pitch": 67,
              "velocity": 75,
              "position": 7.008333,
              "duration": 0.15
            },
            {
              "pitch": 64,
              "velocity": 65,
              "position": 9.0,
              "duration": 0.141667
            },
            {
              "pitch": 71,
              "velocity": 85,
              "position": 9.0,
              "duration": 0.125
            },
            {
              "pitch": 67,
              "velocity": 75,
              "position": 9.008333,
              "duration": 0.15
            },
            {
              "pitch": 64,
              "velocity": 65,
              "position": 11.016667,
              "duration": 0.175
            },
            {
              "pitch": 71,
              "velocity": 85,
              "position": 11.016667,
              "duration": 0.141667
            },
            {
              "pitch": 67,
              "velocity": 75,
              "position": 11.041667,
              "duration": 0.141667
            },
            {
              "pitch": 64,
              "velocity": 65,
              "position": 13.016667,
              "duration": 0.141667
            },
            {
              "pitch": 71,
              "velocity": 85,
              "position": 13.016667,
              "duration": 0.191667
            },
            {
              "pitch": 67,
              "velocity": 85,
              "position": 13.025,
              "duration": 0.166667
            },
            {
              "pitch": 64,
              "velocity": 65,
              "position": 15.008333,
              "duration": 0.125
            },
            {
              "pitch": 71,
              "velocity": 85,
              "position": 15.008333,
              "duration": 0.15
            },
            {
              "pitch": 67,
              "velocity": 75,
              "position": 15.016667,
              "duration": 0.166667
            }
          ]
        },
        "13": {
          "ctab": {
            "srcChannel": 13,
            "name": "Strings",
            "accType": "PAD",
            "editable": true,
            "mutedNotes": [],
            "mutedChords": [],
            "sourceChordNote": 0,
            "sourceChordType": "Maj7",
            "ctb2Main": {
              "ntr": "ROOT_FIXED",
              "ntt": "MELODY",
              "bassOn": false,
              "noteLowLimit": 36,
              "noteHighLimit": 96,
              "chordRootUpperLimit": 127,
              "rtr": "PITCH_SHIFT"
            }
          },
          "notes": []
        }
      }
    },
    "Ending_A": {
      "type": "Ending_A",
      "sizeInBeats": 16,
      "channels": {
        "9": {
          "ctab": {
            "srcChannel": 9,
            "name": "Drums",
            "accType": "RHYTHM",
            "editable": false,
            "mutedNotes": [],
            "mutedChords": [],
            "sourceChordNote": 0,
            "sourceChordType": "Maj",
            "ctb2Main": {
              "ntr": "ROOT_FIXED",
              "ntt": "BYPASS",
              "bassOn": false,
              "noteLowLimit": 20,
              "noteHighLimit": 127,
              "chordRootUpperLimit": 127,
              "rtr": "RETRIGGER"
            }
          },
          "notes": [
            {
              "pitch": 35,
              "velocity": 90,
              "position": 0.0,
              "duration": 0.208333
            },
            {
              "pitch": 42,
              "velocity": 90,
              "position": 0.0,
              "duration": 0.208333
            },
            {
              "pitch": 42,
              "velocity": 70,
              "position": 0.333333,
              "duration": 0.208333
            },
            {
              "pitch": 42,
              "velocity": 80,
              "position": 0.666667,
              "duration": 0.208333
            },
            {
              "pitch": 37,
              "velocity": 100,
              "position": 1.0,
              "duration": 0.208333
            },
            {
              "pitch": 42,
              "velocity": 90,
              "position": 1.0,
              "duration": 0.208333
            },
            {
              "pitch": 42,
              "velocity": 70,
              "position": 1.333333,
              "duration": 0.208333
            },
            {
              "pitch": 35,
              "velocity": 80,
              "position": 1.666667,
              "duration": 0.208333
            },
            {
              "pitch": 42,
              "velocity": 80,
              "position": 1.666667,
              "duration": 0.208333
            },
            {
              "pitch": 35,
              "velocity": 90,
              "position": 2.0,
              "duration": 0.208333
            },
            {
              "pitch": 42,
              "velocity": 90,
              "position": 2.0,
              "duration": 0.208333
            },
            {
              "pitch": 42,
              "velocity": 70,
              "position": 2.333333,
              "duration": 0.208333
            },
            {
              "pitch": 42,
              "velocity": 80,
              "position": 2.666667,
              "duration": 0.208333
            },
            {
              "pitch": 37,
              "velocity": 100,
              "position": 3.0,
              "duration": 0.208333
            },
            {
              "pitch": 42,
              "velocity": 90,
              "position": 3.0,
              "duration": 0.208333
            },
            {
              "pitch": 42,
              "velocity": 70,
              "position": 3.333333,
              "duration": 0.208333
            },
            {
              "pitch": 42,
              "velocity": 60,
              "position": 3.666667,
              "duration": 0.208333
            },
            {
              "pitch": 35,
              "velocity": 90,
              "position": 4.0,
              "duration": 0.208333
            },
            {
              "pitch": 42,
              "velocity": 90,
              "position": 4.0,
              "duration": 0.208333
            },
            {
              "pitch": 42,
              "velocity": 70,
              "position": 4.333333,
              "duration": 0.208333
            },
            {
              "pitch": 42,
              "velocity": 80,
              "position": 4.666667,
              "duration": 0.208333
            },
            {
              "pitch": 37,
              "velocity": 100,
              "position": 5.0,
              "duration": 0.208333
            },
            {
              "pitch": 42,
              "velocity": 90,
              "position": 5.0,
              "duration": 0.208333
            },
            {
              "pitch": 42,
              "velocity": 70,
              "position": 5.333333,
              "duration": 0.208333
            },
            {
              "pitch": 35,
              "velocity": 80,
              "position": 5.666667,
              "duration": 0.208333
            },
            {
              "pitch": 42,
              "velocity": 80,
              "position": 5.666667,
              "duration": 0.208333
            },
            {
              "pitch": 35,
              "velocity": 90,
              "position": 6.0,
              "duration": 0.208333
            },
            {
              "pitch": 42,
              "velocity": 90,
              "position": 6.0,
              "duration": 0.208333
            },
            {
              "pitch": 42,
              "velocity": 70,
              "position": 6.333333,
              "duration": 0.208333
            },
            {
              "pitch": 42,
              "velocity": 80,
              "position": 6.666667,
              "duration": 0.208333
            },
            {
              "pitch": 37,
              "velocity": 100,
              "position": 7.0,
              "duration": 0.208333
            },
            {
              "pitch": 42,
              "velocity": 90,
              "position": 7.0,
              "duration": 0.208333
            },
            {
              "pitch": 42,
              "velocity": 70,
              "position": 7.333333,
              "duration": 0.208333
            },
            {
              "pitch": 42,
              "velocity": 60,
              "position": 7.666667,
              "duration": 0.208333
            },
            {
              "pitch": 35,
              "velocity": 90,
              "position": 8.0,
              "duration": 0.208333
            },
            {
              "pitch": 42,
              "velocity": 90,
              "position": 8.0,
              "duration": 0.208333
            },
            {
              "pitch": 42,
              "velocity": 70,
              "position": 8.333333,
              "duration": 0.208333
            },
            {
              "pitch": 42,
              "velocity": 80,
              "position": 8.666667,
              "duration": 0.208333
            },
            {
              "pitch": 37,
              "velocity": 100,
              "position": 9.0,
              "duration": 0.208333
            },
            {
              "pitch": 42,
              "velocity": 90,
              "position": 9.0,
              "duration": 0.208333
            },
            {
              "pitch": 42,
              "velocity": 70,
              "position": 9.333333,
              "duration": 0.208333
            },
            {
              "pitch": 35,
              "velocity": 80,
              "position": 9.666667,
              "duration": 0.208333
            },
            {
              "pitch": 42,
              "velocity": 80,
              "position": 9.666667,
              "duration": 0.208333
            },
            {
              "pitch": 35,
              "velocity": 90,
              "position": 10.0,
              "duration": 0.208333
            },
            {
              "pitch": 42,
              "velocity": 90,
              "position": 10.0,
              "duration": 0.208333
            },
            {
              "pitch": 42,
              "velocity": 70,
              "position": 10.333333,
              "duration": 0.208333
            },
            {
              "pitch": 42,
              "velocity": 80,
              "position": 10.666667,
              "duration": 0.208333
            },
            {
              "pitch": 37,
              "velocity": 100,
              "position": 11.0,
              "duration": 0.208333
            },
            {
              "pitch": 42,
              "velocity": 90,
              "position": 11.0,
              "duration": 0.208333
            },
            {
              "pitch": 42,
              "velocity": 70,
              "position": 11.333333,
              "duration": 0.208333
            },
            {
              "pitch": 42,
              "velocity": 60,
              "position": 11.666667,
              "duration": 0.208333
            },
            {
              "pitch": 35,
              "velocity": 100,
              "position": 12.0,
              "duration": 0.208333
            },
            {
              "pitch": 42,
              "velocity": 90,
              "position": 12.0,
              "duration": 0.208333
            },
            {
              "pitch": 42,
              "velocity": 70,
              "position": 12.333333,
              "duration": 0.208333
            },
            {
              "pitch": 42,
              "velocity": 80,
              "position": 12.666667,
              "duration": 0.208333
            },
            {
              "pitch": 37,
              "velocity": 100,
              "position": 13.0,
              "duration": 0.208333
            },
            {
              "pitch": 38,
              "velocity": 90,
              "position": 13.0,
              "duration": 0.208333
            },
            {
              "pitch": 42,
              "velocity": 90,
              "position": 13.0,
              "duration": 0.208333
            },
            {
              "pitch": 42,
              "velocity": 70,
              "position": 13.333333,
              "duration": 0.208333
            },
            {
              "pitch": 35,
              "velocity": 80,
              "position": 13.666667,
              "duration": 0.208333
            },
            {
              "pitch": 42,
              "velocity": 80,
              "position": 13.666667,
              "duration": 0.208333
            },
            {
              "pitch": 35,
              "velocity": 100,
              "position": 14.0,
              "duration": 0.208333
            },
            {
              "pitch": 42,
              "velocity": 90,
              "position": 14.0,
              "duration": 0.208333
            },
            {
              "pitch": 42,
              "velocity": 70,
              "position": 14.333333,
              "duration": 0.208333
            },
            {
              "pitch": 35,
              "velocity": 80,
              "position": 14.666667,
              "duration": 0.208333
            },
            {
              "pitch": 42,
              "velocity": 80,
              "position": 14.666667,
              "duration": 0.208333
            },
            {
              "pitch": 48,
              "velocity": 80,
              "position": 14.666667,
              "duration": 0.208333
            },
            {
              "pitch": 37,
              "velocity": 100,
              "position": 15.0,
              "duration": 0.208333
            },
            {
              "pitch": 38,
              "velocity": 100,
              "position": 15.0,
              "duration": 0.208333
            },
            {
              "pitch": 42,
              "velocity": 90,
              "position": 15.0,
              "duration": 0.208333
            },
            {
              "pitch": 42,
              "velocity": 70,
              "position": 15.333333,
              "duration": 0.208333
            },
            {
              "pitch": 45,
              "velocity": 80,
              "position": 15.333333,
              "duration": 0.208333
            },
            {
              "pitch": 35,
              "velocity": 80,
              "position": 15.666667,
              "duration": 0.208333
            },
            {
              "pitch": 45,
              "velocity": 60,
              "position": 15.666667,
              "duration": 0.208333
            },
            {
              "pitch": 46,
              "velocity": 90,
              "position": 15.666667,
              "duration": 0.208333
            }
          ]
        },
        "10": {
          "ctab": {
            "srcChannel": 10,
            "name": "Bass",
            "accType": "BASS",
            "editable": true,
            "mutedNotes": [],
            "mutedChords": [],
            "sourceChordNote": 0,
            "sourceChordType": "Maj7",
            "ctb2Main": {
              "ntr": "ROOT_TRANSPOSITION",
              "ntt": "BYPASS",
              "bassOn": true,
              "noteLowLimit": 20,
              "noteHighLimit": 60,
              "chordRootUpperLimit": 127,
              "rtr": "NOTE_GENERATOR"
            }
          },
          "notes": [
            {
              "pitch": 36,
              "velocity": 98,
              "position": 0.0,
              "duration": 1.066667
            },
            {
              "pitch": 31,
              "velocity": 98,
              "position": 1.0,
              "duration": 0.941667
            },
            {
              "pitch": 36,
              "velocity": 98,
              "position": 2.0,
              "duration": 1.066667
            },
            {
              "pitch": 31,
              "velocity": 98,
              "position": 3.0,
              "duration": 0.941667
            },
            {
              "pitch": 36,
              "velocity": 80,
              "position": 4.0,
              "duration": 0.9
            },
            {
              "pitch": 36,
              "velocity": 95,
              "position": 5.0,
              "duration": 0.941667
            },
            {
              "pitch": 36,
              "velocity": 100,
              "position": 6.0,
              "duration": 1.941667
            },
            {
              "pitch": 36,
              "velocity": 82,
              "position": 8.0,
              "duration": 2.058333
            },
            {
              "pitch": 43,
              "velocity": 98,
              "position": 10.0,
              "duration": 1.366667
            },
            {
              "pitch": 31,
              "velocity": 102,
              "position": 11.666667,
              "duration": 0.216667
            },
            {
              "pitch": 36,
              "velocity": 82,
              "position": 12.0,
              "duration": 2.058333
            },
            {
              "pitch": 43,
              "velocity": 98,
              "position": 14.0,
              "duration": 1.366667
            },
            {
              "pitch": 31,
              "velocity": 102,
              "position": 15.666667,
              "duration": 0.216667
            }
          ]
        },
        "11": {
          "ctab": {
            "srcChannel": 11,
            "name": "Piano",
            "accType": "CHORD1",
            "editable": true,
            "mutedNotes": [],
            "mutedChords": [],
            "sourceChordNote": 0,
            "sourceChordType": "Maj7",
            "ctb2Main": {
              "ntr": "ROOT_FIXED",
              "ntt": "CHORD",
              "bassOn": false,
              "noteLowLimit": 48,
              "noteHighLimit": 84,
              "chordRootUpperLimit": 127,
              "rtr": "NOTE_GENERATOR"
            }
          },
          "notes": [
            {
              "pitch": 59,
              "velocity": 76,
              "position": 0.0,
              "duration": 1.958333
            },
            {
              "pitch": 62,
              "velocity": 76,
              "position": 0.0,
              "duration": 1.958333
            },
            {
              "pitch": 64,
              "velocity": 76,
              "position": 0.0,
              "duration": 1.958333
            },
            {
              "pitch": 67,
              "velocity": 76,
              "position": 0.0,
              "duration": 1.958333
            },
            {
              "pitch": 55,
              "velocity": 65,
              "position": 2.0,
              "duration": 1.958333
            },
            {
              "pitch": 59,
              "velocity": 65,
              "position": 2.0,
              "duration": 1.958333
            },
            {
              "pitch": 60,
              "velocity": 61,
              "position": 2.0,
              "duration": 1.958333
            },
            {
              "pitch": 67,
              "velocity": 80,
              "position": 2.666667,
              "duration": 0.3
            },
            {
              "pitch": 74,
              "velocity": 78,
              "position": 3.0,
              "duration": 0.958333
            },
            {
              "pitch": 67,
              "velocity": 61,
              "position": 3.333333,
              "duration": 0.625
            },
            {
              "pitch": 64,
              "velocity": 57,
              "position": 3.666667,
              "duration": 0.291667
            },
            {
              "pitch": 59,
              "velocity": 76,
              "position": 4.0,
              "duration": 0.308333
            },
            {
              "pitch": 62,
              "velocity": 76,
              "position": 4.0,
              "duration": 0.308333
            },
            {
              "pitch": 64,
              "velocity": 76,
              "position": 4.0,
              "duration": 0.308333
            },
            {
              "pitch": 67,
              "velocity": 76,
              "position": 4.0,
              "duration": 0.308333
            },
            {
              "pitch": 35,
              "velocity": 71,
              "position": 4.333333,
              "duration": 0.275
            },
            {
              "pitch": 59,
              "velocity": 73,
              "position": 4.666667,
              "duration": 1.291667
            },
            {
              "pitch": 62,
              "velocity": 73,
              "position": 4.666667,
              "duration": 1.291667
            },
            {
              "pitch": 64,
              "velocity": 73,
              "position": 4.666667,
              "duration": 1.291667
            },
            {
              "pitch": 67,
              "velocity": 73,
              "position": 4.666667,
              "duration": 1.291667
            },
            {
              "pitch": 55,
              "velocity": 61,
              "position": 6.0,
              "duration": 1.958333
            },
            {
              "pitch": 59,
              "velocity": 57,
              "position": 6.0,
              "duration": 1.958333
            },
            {
              "pitch": 60,
              "velocity": 57,
              "position": 6.0,
              "duration": 1.958333
            },
            {
              "pitch": 64,
              "velocity": 55,
              "position": 6.0,
              "duration": 1.958333
            },
            {
              "pitch": 79,
              "velocity": 82,
              "position": 6.666667,
              "duration": 1.291667
            },
            {
              "pitch": 76,
              "velocity": 67,
              "position": 7.0,
              "duration": 0.958333
            },
            {
              "pitch": 74,
              "velocity": 57,
              "position": 7.333333,
              "duration": 0.625
            },
            {
              "pitch": 67,
              "velocity": 86,
              "position": 7.666667,
              "duration": 0.291667
            },
            {
              "pitch": 59,
              "velocity": 78,
              "position": 8.0,
              "duration": 3.866667
            },
            {
              "pitch": 62,
              "velocity": 78,
              "position": 8.0,
              "duration": 3.866667
            },
            {
              "pitch": 64,
              "velocity": 78,
              "position": 8.0,
              "duration": 3.866667
            },
            {
              "pitch": 67,
              "velocity": 78,
              "position": 8.0,
              "duration": 3.866667
            },
            {
              "pitch": 55,
              "velocity": 51,
              "position": 12.0,
              "duration": 2.208333
            },
            {
              "pitch": 59,
              "velocity": 54,
              "position": 12.0,
              "duration": 2.241667
            },
            {
              "pitch": 60,
              "velocity": 55,
              "position": 12.0,
              "duration": 2.225
            },
            {
              "pitch": 64,
              "velocity": 55,
              "position": 12.0,
              "duration": 2.233333
            },
            {
              "pitch": 67,
              "velocity": 73,
              "position": 12.0,
              "duration": 2.266667
            },
            {
              "pitch": 55,
              "velocity": 51,
              "position": 14.666667,
              "duration": 1.291667
            },
            {
              "pitch": 59,
              "velocity": 44,
              "position": 14.666667,
              "duration": 1.291667
            },
            {
              "pitch": 60,
              "velocity": 44,
              "position": 14.666667,
              "duration": 1.291667
            },
            {
              "pitch": 64,
              "velocity": 48,
              "position": 14.666667,
              "duration": 1.291667
            },
            {
              "pitch": 67,
              "velocity": 76,
              "position": 14.666667,
              "duration": 1.291667
            }
          ]
        },
        "12": {
          "ctab": {
            "srcChannel": 12,
            "name": "Guitar",
            "accType": "CHORD2",
            "editable": true,
            "mutedNotes": [],
            "mutedChords": [],
            "sourceChordNote": 0,
            "sourceChordType": "Maj7",
            "ctb2Main": {
              "ntr": "ROOT_FIXED",
              "ntt": "CHORD",
              "bassOn": false,
              "noteLowLimit": 40,
              "noteHighLimit": 76,
              "chordRootUpperLimit": 127,
              "rtr": "NOTE_GENERATOR"
            }
          },
          "notes": [
            {
              "pitch": 64,
              "velocity": 55,
              "position": 1.0,
              "duration": 0.141667
            },
            {
              "pitch": 67,
              "velocity": 65,
              "position": 1.0,
              "duration": 0.15
            },
            {
              "pitch": 64,
              "velocity": 55,
              "position": 3.0,
              "duration": 0.141667
            },
            {
              "pitch": 67,
              "velocity": 65,
              "position": 3.0,
              "duration": 0.15
            },
            {
              "pitch": 71,
              "velocity": 75,
              "position": 3.0,
              "duration": 0.125
            },
            {
              "pitch": 64,
              "velocity": 55,
              "position": 5.0,
              "duration": 0.141667
            },
            {
              "pitch": 67,
              "velocity": 65,
              "position": 5.0,
              "duration": 0.15
            },
            {
              "pitch": 71,
              "velocity": 75,
              "position": 5.0,
              "duration": 0.125
            },
            {
              "pitch": 64,
              "velocity": 55,
              "position": 7.0,
              "duration": 0.141667
            },
            {
              "pitch": 67,
              "velocity": 65,
              "position": 7.0,
              "duration": 0.15
            },
            {
              "pitch": 71,
              "velocity": 75,
              "position": 7.0,
              "duration": 0.125
            },
            {
              "pitch": 64,
              "velocity": 50,
              "position": 9.0,
              "duration": 0.275
            },
            {
              "pitch": 67,
              "velocity": 60,
              "position": 9.0,
              "duration": 0.15
            },
            {
              "pitch": 71,
              "velocity": 70,
              "position": 9.0,
              "duration": 0.15
            },
            {
              "pitch": 60,
              "velocity": 70,
              "position": 10.35,
              "duration": 1.533333
            },
            {
              "pitch": 67,
              "velocity": 70,
              "position": 10.658333,
              "duration": 0.5
            },
            {
              "pitch": 71,
              "velocity": 70,
              "position": 11.0,
              "duration": 0.883333
            },
            {
              "pitch": 67,
              "velocity": 60,
              "position": 11.341667,
              "duration": 0.516667
            },
            {
              "pitch": 64,
              "velocity": 70,
              "position": 11.666667,
              "duration": 0.225
            },
            {
              "pitch": 64,
              "velocity": 50,
              "position": 13.0,
              "duration": 0.275
            },
            {
              "pitch": 67,
              "velocity": 60,
              "position": 13.0,
              "duration": 0.15
            },
            {
              "pitch": 59,
              "velocity": 70,
              "position": 14.35,
              "duration": 1.533333
            },
            {
              "pitch": 67,
              "velocity": 70,
              "position": 14.658333,
              "duration": 0.5
            },
            {
              "pitch": 67,
              "velocity": 60,
              "position": 15.341667,
              "duration": 0.516667
            },
            {
              "pitch": 64,
              "velocity": 70,
              "position": 15.666667,
              "duration": 0.225
            }
          ]
        },
        "13": {
          "ctab": {
            "srcChannel": 13,
            "name": "Strings",
            "accType": "PAD",
            "editable": true,
            "mutedNotes": [],
            "mutedChords": [],
            "sourceChordNote": 0,
            "sourceChordType": "Maj7",
            "ctb2Main": {
              "ntr": "ROOT_FIXED",
              "ntt": "MELODY",
              "bassOn": false,
              "noteLowLimit": 36,
              "noteHighLimit": 96,
              "chordRootUpperLimit": 127,
              "rtr": "PITCH_SHIFT"
            }
          },
          "notes": []
        }
      }
    }
  }
}