{
  "name": "Neal Even 16ths Acoustic Country Rock",
  "tempo": 80,
  "timeSignature": "4/4",
  "ticksPerQuarter": 120,
  "sffType": "SFF1",
  "division": "BINARY",
  "channelPrograms": {
    "9": 0,
    "10": 32,
    "11": 105,
    "12": 25,
    "13": 25
  },
  "parts": {
    "Intro_A": {
      "type": "Intro_A",
      "sizeInBeats": 24,
      "channels": {
        "9": {
          "ctab": {
            "srcChannel": 9,
            "name": "Drums",
            "accType": "RHYTHM",
            "editable": false,
            "mutedNotes": [],
            "mutedChords": [],
            "sourceChordNote": 0,
            "sourceChordType": "Maj",
            "ctb2Main": {
              "ntr": "ROOT_FIXED",
              "ntt": "BYPASS",
              "bassOn": false,
              "noteLowLimit": 20,
              "noteHighLimit": 127,
              "chordRootUpperLimit": 127,
              "rtr": "RETRIGGER"
            }
          },
          "notes": [
            {
              "pitch": 37,
              "velocity": 84,
              "position": 0.0,
              "duration": 1.0
            },
            {
              "pitch": 37,
              "velocity": 84,
              "position": 2.0,
              "duration": 1.0
            },
            {
              "pitch": 37,
              "velocity": 64,
              "position": 4.0,
              "duration": 1.0
            },
            {
              "pitch": 37,
              "velocity": 84,
              "position": 5.0,
              "duration": 1.0
            },
            {
              "pitch": 37,
              "velocity": 64,
              "position": 6.0,
              "duration": 1.0
            },
            {
              "pitch": 37,
              "velocity": 84,
              "position": 7.0,
              "duration": 1.0
            },
            {
              "pitch": 36,
              "velocity": 82,
              "position": 8.0,
              "duration": 0.266667
            },
            {
              "pitch": 42,
              "velocity": 89,
              "position": 8.0,
              "duration": 0.083333
            },
            {
              "pitch": 38,
              "velocity": 82,
              "position": 9.0,
              "duration": 0.166667
            },
            {
              "pitch": 36,
              "velocity": 76,
              "position": 10.0,
              "duration": 0.183333
            },
            {
              "pitch": 42,
              "velocity": 78,
              "position": 10.0,
              "duration": 0.108333
            },
            {
              "pitch": 36,
              "velocity": 78,
              "position": 10.5,
              "duration": 0.525
            },
            {
              "pitch": 38,
              "velocity": 94,
              "position": 11.0,
              "duration": 0.116667
            },
            {
              "pitch": 36,
              "velocity": 82,
              "position": 12.0,
              "duration": 0.133333
            },
            {
              "pitch": 42,
              "velocity": 69,
              "position": 12.0,
              "duration": 0.183333
            },
            {
              "pitch": 42,
              "velocity": 89,
              "position": 12.5,
              "duration": 0.1
            },
            {
              "pitch": 38,
              "velocity": 85,
              "position": 13.0,
              "duration": 0.483333
            },
            {
              "pitch": 42,
              "velocity": 65,
              "position": 13.008333,
              "duration": 0.475
            },
            {
              "pitch": 42,
              "velocity": 65,
              "position": 13.491667,
              "duration": 0.3
            },
            {
              "pitch": 40,
              "velocity": 65,
              "position": 13.791667,
              "duration": 0.208333
            },
            {
              "pitch": 36,
              "velocity": 78,
              "position": 14.0,
              "duration": 0.366667
            },
            {
              "pitch": 42,
              "velocity": 78,
              "position": 14.0,
              "duration": 0.116667
            },
            {
              "pitch": 42,
              "velocity": 71,
              "position": 14.5,
              "duration": 0.175
            },
            {
              "pitch": 40,
              "velocity": 76,
              "position": 14.775,
              "duration": 0.225
            },
            {
              "pitch": 38,
              "velocity": 93,
              "position": 15.0,
              "duration": 0.191667
            },
            {
              "pitch": 42,
              "velocity": 65,
              "position": 15.0,
              "duration": 0.283333
            },
            {
              "pitch": 38,
              "velocity": 65,
              "position": 15.333333,
              "duration": 0.2
            },
            {
              "pitch": 42,
              "velocity": 65,
              "position": 15.508333,
              "duration": 0.166667
            },
            {
              "pitch": 38,
              "velocity": 68,
              "position": 15.666667,
              "duration": 0.1
            },
            {
              "pitch": 38,
              "velocity": 44,
              "position": 15.833333,
              "duration": 0.1
            },
            {
              "pitch": 36,
              "velocity": 90,
              "position": 16.0,
              "duration": 0.166667
            },
            {
              "pitch": 42,
              "velocity": 77,
              "position": 16.0,
              "duration": 0.116667
            },
            {
              "pitch": 36,
              "velocity": 86,
              "position": 16.5,
              "duration": 0.425
            },
            {
              "pitch": 38,
              "velocity": 98,
              "position": 17.0,
              "duration": 0.325
            },
            {
              "pitch": 36,
              "velocity": 70,
              "position": 18.0,
              "duration": 0.208333
            },
            {
              "pitch": 42,
              "velocity": 92,
              "position": 18.0,
              "duration": 0.091667
            },
            {
              "pitch": 36,
              "velocity": 74,
              "position": 18.5,
              "duration": 0.416667
            },
            {
              "pitch": 38,
              "velocity": 90,
              "position": 19.0,
              "duration": 0.3
            },
            {
              "pitch": 36,
              "velocity": 81,
              "position": 20.0,
              "duration": 0.15
            },
            {
              "pitch": 42,
              "velocity": 81,
              "position": 20.0,
              "duration": 0.15
            },
            {
              "pitch": 38,
              "velocity": 76,
              "position": 21.0,
              "duration": 0.333333
            },
            {
              "pitch": 36,
              "velocity": 82,
              "position": 22.0,
              "duration": 0.158333
            },
            {
              "pitch": 42,
              "velocity": 81,
              "position": 22.0,
              "duration": 0.166667
            },
            {
              "pitch": 36,
              "velocity": 82,
              "position": 22.5,
              "duration": 0.133333
            },
            {
              "pitch": 42,
              "velocity": 81,
              "position": 22.5,
              "duration": 0.15
            },
            {
              "pitch": 38,
              "velocity": 83,
              "position": 23.0,
              "duration": 0.275
            },
            {
              "pitch": 48,
              "velocity": 65,
              "position": 23.275,
              "duration": 0.258333
            },
            {
              "pitch": 38,
              "velocity": 49,
              "position": 23.533333,
              "duration": 0.233333
            },
            {
              "pitch": 45,
              "velocity": 65,
              "position": 23.766667,
              "duration": 0.233333
            }
          ]
        },
        "10": {
          "ctab": {
            "srcChannel": 10,
            "name": "Bass",
            "accType": "BASS",
            "editable": true,
            "mutedNotes": [],
            "mutedChords": [],
            "sourceChordNote": 0,
            "sourceChordType": "Maj7",
            "ctb2Main": {
              "ntr": "ROOT_TRANSPOSITION",
              "ntt": "BYPASS",
              "bassOn": true,
              "noteLowLimit": 20,
              "noteHighLimit": 60,
              "chordRootUpperLimit": 127,
              "rtr": "NOTE_GENERATOR"
            }
          },
          "notes": [
            {
              "pitch": 36,
              "velocity": 89,
              "position": 8.0,
              "duration": 1.725
            },
            {
              "pitch": 31,
              "velocity": 65,
              "position": 9.783333,
              "duration": 0.175
            },
            {
              "pitch": 36,
              "velocity": 89,
              "position": 10.0,
              "duration": 1.725
            },
            {
              "pitch": 31,
              "velocity": 65,
              "position": 11.783333,
              "duration": 0.175
            },
            {
              "pitch": 36,
              "velocity": 89,
              "position": 12.0,
              "duration": 1.725
            },
            {
              "pitch": 31,
              "velocity": 65,
              "position": 13.783333,
              "duration": 0.175
            },
            {
              "pitch": 36,
              "velocity": 89,
              "position": 14.0,
              "duration": 1.725
            },
            {
              "pitch": 31,
              "velocity": 65,
              "position": 15.783333,
              "duration": 0.175
            },
            {
              "pitch": 36,
              "velocity": 89,
              "position": 16.0,
              "duration": 1.725
            },
            {
              "pitch": 36,
              "velocity": 98,
              "position": 18.0,
              "duration": 1.875
            },
            {
              "pitch": 36,
              "velocity": 90,
              "position": 20.0,
              "duration": 1.791667
            },
            {
              "pitch": 36,
              "velocity": 96,
              "position": 21.991667,
              "duration": 1.441667
            },
            {
              "pitch": 34,
              "velocity": 97,
              "position": 23.491667,
              "duration": 0.216667
            }
          ]
        },
        "11": {
          "ctab": {
            "srcChannel": 11,
            "name": "Piano",
            "accType": "CHORD1",
            "editable": true,
            "mutedNotes": [],
            "mutedChords": [],
            "sourceChordNote": 0,
            "sourceChordType": "Maj7",
            "ctb2Main": {
              "ntr": "ROOT_FIXED",
              "ntt": "CHORD",
              "bassOn": false,
              "noteLowLimit": 48,
              "noteHighLimit": 84,
              "chordRootUpperLimit": 127,
              "rtr": "NOTE_GENERATOR"
            }
          },
          "notes": []
        },
        "12": {
          "ctab": {
            "srcChannel": 12,
            "name": "Guitar",
            "accType": "CHORD2",
            "editable": true,
            "mutedNotes": [],
            "mutedChords": [],
            "sourceChordNote": 0,
            "sourceChordType": "Maj7",
            "ctb2Main": {
              "ntr": "ROOT_FIXED",
              "ntt": "CHORD",
              "bassOn": false,
              "noteLowLimit": 40,
              "noteHighLimit": 76,
              "chordRootUpperLimit": 127,
              "rtr": "NOTE_GENERATOR"
            }
          },
          "notes": [
            {
              "pitch": 48,
              "velocity": 58,
              "position": 8.041667,
              "duration": 0.725
            },
            {
              "pitch": 55,
              "velocity": 67,
              "position": 8.316667,
              "duration": 0.666667
            },
            {
              "pitch": 48,
              "velocity": 45,
              "position": 8.766667,
              "duration": 0.183333
            },
            {
              "pitch": 48,
              "velocity": 51,
              "position": 8.95,
              "duration": 0.025
            },
            {
              "pitch": 48,
              "velocity": 69,
              "position": 8.975,
              "duration": 0.975
            },
            {
              "pitch": 55,
              "velocity": 76,
              "position": 8.991667,
              "duration": 0.791667
            },
            {
              "pitch": 59,
              "velocity": 55,
              "position": 9.008333,
              "duration": 0.85
            },
            {
              "pitch": 60,
              "velocity": 45,
              "position": 9.025,
              "duration": 0.65
            },
            {
              "pitch": 48,
              "velocity": 45,
              "position": 10.0,
              "duration": 0.975
            },
            {
              "pitch": 48,
              "velocity": 77,
              "position": 10.975,
              "duration": 0.983333
            },
            {
              "pitch": 55,
              "velocity": 60,
              "position": 11.0,
              "duration": 0.958333
            },
            {
              "pitch": 59,
              "velocity": 45,
              "position": 11.008333,
              "duration": 0.95
            },
            {
              "pitch": 60,
              "velocity": 56,
              "position": 11.758333,
              "duration": 0.2
            },
            {
              "pitch": 48,
              "velocity": 45,
              "position": 12.0,
              "duration": 0.975
            },
            {
              "pitch": 48,
              "velocity": 77,
              "position": 12.975,
              "duration": 0.983333
            },
            {
              "pitch": 55,
              "velocity": 60,
              "position": 13.0,
              "duration": 0.958333
            },
            {
              "pitch": 59,
              "velocity": 45,
              "position": 13.008333,
              "duration": 0.95
            },
            {
              "pitch": 60,
              "velocity": 56,
              "position": 13.758333,
              "duration": 0.2
            },
            {
              "pitch": 48,
              "velocity": 74,
              "position": 14.0,
              "duration": 1.016667
            },
            {
              "pitch": 48,
              "velocity": 82,
              "position": 15.025,
              "duration": 0.875
            },
            {
              "pitch": 55,
              "velocity": 77,
              "position": 15.05,
              "duration": 0.908333
            },
            {
              "pitch": 59,
              "velocity": 59,
              "position": 15.066667,
              "duration": 0.891667
            },
            {
              "pitch": 60,
              "velocity": 41,
              "position": 15.083333,
              "duration": 0.616667
            },
            {
              "pitch": 60,
              "velocity": 51,
              "position": 15.758333,
              "duration": 0.2
            },
            {
              "pitch": 48,
              "velocity": 76,
              "position": 16.0,
              "duration": 0.866667
            },
            {
              "pitch": 43,
              "velocity": 60,
              "position": 16.966667,
              "duration": 0.975
            },
            {
              "pitch": 48,
              "velocity": 80,
              "position": 16.975,
              "duration": 1.216667
            },
            {
              "pitch": 55,
              "velocity": 79,
              "position": 16.983333,
              "duration": 1.158333
            },
            {
              "pitch": 60,
              "velocity": 64,
              "position": 17.0,
              "duration": 0.741667
            },
            {
              "pitch": 59,
              "velocity": 57,
              "position": 17.041667,
              "duration": 0.683333
            },
            {
              "pitch": 60,
              "velocity": 72,
              "position": 17.783333,
              "duration": 1.108333
            },
            {
              "pitch": 59,
              "velocity": 45,
              "position": 17.791667,
              "duration": 1.083333
            },
            {
              "pitch": 43,
              "velocity": 80,
              "position": 18.016667,
              "duration": 1.708333
            },
            {
              "pitch": 55,
              "velocity": 80,
              "position": 18.275,
              "duration": 0.708333
            },
            {
              "pitch": 48,
              "velocity": 60,
              "position": 18.283333,
              "duration": 0.625
            },
            {
              "pitch": 48,
              "velocity": 62,
              "position": 19.008333,
              "duration": 0.783333
            },
            {
              "pitch": 55,
              "velocity": 74,
              "position": 19.016667,
              "duration": 0.783333
            },
            {
              "pitch": 59,
              "velocity": 77,
              "position": 19.025,
              "duration": 0.925
            },
            {
              "pitch": 60,
              "velocity": 69,
              "position": 19.033333,
              "duration": 0.816667
            },
            {
              "pitch": 48,
              "velocity": 80,
              "position": 20.016667,
              "duration": 0.866667
            },
            {
              "pitch": 48,
              "velocity": 68,
              "position": 20.975,
              "duration": 0.891667
            },
            {
              "pitch": 55,
              "velocity": 80,
              "position": 20.991667,
              "duration": 1.125
            },
            {
              "pitch": 59,
              "velocity": 73,
              "position": 21.008333,
              "duration": 1.533333
            },
            {
              "pitch": 60,
              "velocity": 79,
              "position": 21.016667,
              "duration": 0.675
            },
            {
              "pitch": 60,
              "velocity": 59,
              "position": 21.758333,
              "duration": 0.883333
            },
            {
              "pitch": 48,
              "velocity": 56,
              "position": 21.966667,
              "duration": 0.891667
            },
            {
              "pitch": 55,
              "velocity": 51,
              "position": 22.266667,
              "duration": 0.45
            },
            {
              "pitch": 60,
              "velocity": 49,
              "position": 22.741667,
              "duration": 1.075
            },
            {
              "pitch": 59,
              "velocity": 45,
              "position": 22.775,
              "duration": 0.191667
            },
            {
              "pitch": 55,
              "velocity": 45,
              "position": 22.783333,
              "duration": 0.166667
            },
            {
              "pitch": 43,
              "velocity": 71,
              "position": 22.95,
              "duration": 0.925
            },
            {
              "pitch": 48,
              "velocity": 75,
              "position": 22.966667,
              "duration": 0.908333
            },
            {
              "pitch": 55,
              "velocity": 80,
              "position": 22.975,
              "duration": 0.791667
            },
            {
              "pitch": 59,
              "velocity": 60,
              "position": 22.991667,
              "duration": 0.858333
            }
          ]
        },
        "13": {
          "ctab": {
            "srcChannel": 13,
            "name": "Strings",
            "accType": "PAD",
            "editable": true,
            "mutedNotes": [],
            "mutedChords": [],
            "sourceChordNote": 0,
            "sourceChordType": "Maj7",
            "ctb2Main": {
              "ntr": "ROOT_FIXED",
              "ntt": "MELODY",
              "bassOn": false,
              "noteLowLimit": 36,
              "noteHighLimit": 96,
              "chordRootUpperLimit": 127,
              "rtr": "PITCH_SHIFT"
            }
          },
          "notes": [
            {
              "pitch": 60,
              "velocity": 95,
              "position": 12.0,
              "duration": 1.958333
            },
            {
              "pitch": 67,
              "velocity": 46,
              "position": 14.533333,
              "duration": 0.016667
            },
            {
              "pitch": 64,
              "velocity": 93,
              "position": 14.541667,
              "duration": 0.008333
            },
            {
              "pitch": 64,
              "velocity": 90,
              "position": 14.558333,
              "duration": 0.283333
            },
            {
              "pitch": 67,
              "velocity": 92,
              "position": 14.558333,
              "duration": 0.25
            },
            {
              "pitch": 64,
              "velocity": 79,
              "position": 14.85,
              "duration": 0.208333
            },
            {
              "pitch": 60,
              "velocity": 78,
              "position": 15.008333,
              "duration": 0.15
            },
            {
              "pitch": 60,
              "velocity": 41,
              "position": 15.208333,
              "duration": 0.075
            },
            {
              "pitch": 60,
              "velocity": 65,
              "position": 15.3,
              "duration": 0.391667
            },
            {
              "pitch": 59,
              "velocity": 59,
              "position": 15.533333,
              "duration": 0.275
            },
            {
              "pitch": 48,
              "velocity": 92,
              "position": 16.033333,
              "duration": 1.633333
            },
            {
              "pitch": 52,
              "velocity": 97,
              "position": 22.533333,
              "duration": 0.266667
            },
            {
              "pitch": 55,
              "velocity": 84,
              "position": 22.8,
              "duration": 0.166667
            },
            {
              "pitch": 59,
              "velocity": 79,
              "position": 23.033333,
              "duration": 0.325
            },
            {
              "pitch": 55,
              "velocity": 86,
              "position": 23.283333,
              "duration": 0.191667
            },
            {
              "pitch": 52,
              "velocity": 78,
              "position": 23.533333,
              "duration": 0.45
            }
          ]
        }
      }
    },
    "Main_A": {
      "type": "Main_A",
      "sizeInBeats": 16,
      "channels": {
        "9": {
          "ctab": {
            "srcChannel": 9,
            "name": "Drums",
            "accType": "RHYTHM",
            "editable": false,
            "mutedNotes": [],
            "mutedChords": [],
            "sourceChordNote": 0,
            "sourceChordType": "Maj",
            "ctb2Main": {
              "ntr": "ROOT_FIXED",
              "ntt": "BYPASS",
              "bassOn": false,
              "noteLowLimit": 20,
              "noteHighLimit": 127,
              "chordRootUpperLimit": 127,
              "rtr": "RETRIGGER"
            }
          },
          "notes": [
            {
              "pitch": 36,
              "velocity": 84,
              "position": 0.0,
              "duration": 0.183333
            },
            {
              "pitch": 49,
              "velocity": 89,
              "position": 0.0,
              "duration": 0.141667
            },
            {
              "pitch": 36,
              "velocity": 80,
              "position": 0.5,
              "duration": 0.191667
            },
            {
              "pitch": 38,
              "velocity": 92,
              "position": 1.0,
              "duration": 0.15
            },
            {
              "pitch": 42,
              "velocity": 92,
              "position": 1.5,
              "duration": 0.15
            },
            {
              "pitch": 36,
              "velocity": 75,
              "position": 2.0,
              "duration": 0.191667
            },
            {
              "pitch": 36,
              "velocity": 76,
              "position": 2.5,
              "duration": 0.241667
            },
            {
              "pitch": 42,
              "velocity": 81,
              "position": 2.5,
              "duration": 0.183333
            },
            {
              "pitch": 38,
              "velocity": 82,
              "position": 3.0,
              "duration": 0.108333
            },
            {
              "pitch": 42,
              "velocity": 87,
              "position": 3.5,
              "duration": 0.125
            },
            {
              "pitch": 42,
              "velocity": 99,
              "position": 4.0,
              "duration": 0.108333
            },
            {
              "pitch": 36,
              "velocity": 86,
              "position": 4.05,
              "duration": 0.191667
            },
            {
              "pitch": 49,
              "velocity": 89,
              "position": 4.05,
              "duration": 0.191667
            },
            {
              "pitch": 42,
              "velocity": 89,
              "position": 4.5,
              "duration": 0.075
            },
            {
              "pitch": 36,
              "velocity": 82,
              "position": 4.55,
              "duration": 0.283333
            },
            {
              "pitch": 38,
              "velocity": 84,
              "position": 5.05,
              "duration": 0.15
            },
            {
              "pitch": 42,
              "velocity": 96,
              "position": 5.8,
              "duration": 0.116667
            },
            {
              "pitch": 42,
              "velocity": 92,
              "position": 6.0,
              "duration": 0.158333
            },
            {
              "pitch": 36,
              "velocity": 80,
              "position": 6.05,
              "duration": 0.166667
            },
            {
              "pitch": 42,
              "velocity": 117,
              "position": 6.5,
              "duration": 0.125
            },
            {
              "pitch": 36,
              "velocity": 75,
              "position": 6.55,
              "duration": 0.3
            },
            {
              "pitch": 38,
              "velocity": 83,
              "position": 7.05,
              "duration": 0.225
            },
            {
              "pitch": 36,
              "velocity": 103,
              "position": 7.333333,
              "duration": 0.166667
            },
            {
              "pitch": 36,
              "velocity": 56,
              "position": 8.0,
              "duration": 0.183333
            },
            {
              "pitch": 36,
              "velocity": 81,
              "position": 8.5,
              "duration": 0.283333
            },
            {
              "pitch": 42,
              "velocity": 96,
              "position": 8.5,
              "duration": 0.141667
            },
            {
              "pitch": 38,
              "velocity": 93,
              "position": 9.0,
              "duration": 0.133333
            },
            {
              "pitch": 42,
              "velocity": 92,
              "position": 9.5,
              "duration": 0.15
            },
            {
              "pitch": 36,
              "velocity": 81,
              "position": 10.0,
              "duration": 0.2
            },
            {
              "pitch": 36,
              "velocity": 75,
              "position": 10.5,
              "duration": 0.183333
            },
            {
              "pitch": 42,
              "velocity": 84,
              "position": 10.5,
              "duration": 0.141667
            },
            {
              "pitch": 38,
              "velocity": 82,
              "position": 11.0,
              "duration": 0.166667
            },
            {
              "pitch": 42,
              "velocity": 97,
              "position": 11.5,
              "duration": 0.116667
            },
            {
              "pitch": 36,
              "velocity": 72,
              "position": 12.0,
              "duration": 0.225
            },
            {
              "pitch": 36,
              "velocity": 81,
              "position": 12.5,
              "duration": 0.141667
            },
            {
              "pitch": 42,
              "velocity": 99,
              "position": 12.5,
              "duration": 0.133333
            },
            {
              "pitch": 38,
              "velocity": 81,
              "position": 13.0,
              "duration": 0.166667
            },
            {
              "pitch": 42,
              "velocity": 83,
              "position": 13.5,
              "duration": 0.133333
            },
            {
              "pitch": 36,
              "velocity": 76,
              "position": 14.0,
              "duration": 0.191667
            },
            {
              "pitch": 36,
              "velocity": 74,
              "position": 14.5,
              "duration": 0.225
            },
            {
              "pitch": 42,
              "velocity": 92,
              "position": 14.5,
              "duration": 0.1
            },
            {
              "pitch": 38,
              "velocity": 93,
              "position": 15.0,
              "duration": 0.125
            },
            {
              "pitch": 42,
              "velocity": 93,
              "position": 15.5,
              "duration": 0.083333
            }
          ]
        },
        "10": {
          "ctab": {
            "srcChannel": 10,
            "name": "Bass",
            "accType": "BASS",
            "editable": true,
            "mutedNotes": [],
            "mutedChords": [],
            "sourceChordNote": 0,
            "sourceChordType": "Maj7",
            "ctb2Main": {
              "ntr": "ROOT_TRANSPOSITION",
              "ntt": "BYPASS",
              "bassOn": true,
              "noteLowLimit": 20,
              "noteHighLimit": 60,
              "chordRootUpperLimit": 127,
              "rtr": "NOTE_GENERATOR"
            }
          },
          "notes": [
            {
              "pitch": 36,
              "velocity": 79,
              "position": 0.008333,
              "duration": 0.241667
            },
            {
              "pitch": 36,
              "velocity": 96,
              "position": 0.516667,
              "duration": 1.35
            },
            {
              "pitch": 36,
              "velocity": 102,
              "position": 2.008333,
              "duration": 0.225
            },
            {
              "pitch": 36,
              "velocity": 99,
              "position": 2.508333,
              "duration": 1.133333
            },
            {
              "pitch": 36,
              "velocity": 76,
              "position": 3.758333,
              "duration": 0.15
            },
            {
              "pitch": 36,
              "velocity": 99,
              "position": 4.016667,
              "duration": 0.208333
            },
            {
              "pitch": 36,
              "velocity": 83,
              "position": 4.5,
              "duration": 0.533333
            },
            {
              "pitch": 36,
              "velocity": 95,
              "position": 5.783333,
              "duration": 0.2
            },
            {
              "pitch": 36,
              "velocity": 102,
              "position": 6.008333,
              "duration": 0.225
            },
            {
              "pitch": 36,
              "velocity": 99,
              "position": 6.508333,
              "duration": 1.133333
            },
            {
              "pitch": 36,
              "velocity": 76,
              "position": 7.758333,
              "duration": 0.15
            },
            {
              "pitch": 36,
              "velocity": 103,
              "position": 8.008333,
              "duration": 0.183333
            },
            {
              "pitch": 36,
              "velocity": 96,
              "position": 8.5,
              "duration": 1.233333
            },
            {
              "pitch": 36,
              "velocity": 94,
              "position": 10.0,
              "duration": 0.216667
            },
            {
              "pitch": 36,
              "velocity": 101,
              "position": 10.508333,
              "duration": 1.216667
            },
            {
              "pitch": 36,
              "velocity": 96,
              "position": 12.0,
              "duration": 0.608333
            },
            {
              "pitch": 36,
              "velocity": 99,
              "position": 12.766667,
              "duration": 0.55
            },
            {
              "pitch": 36,
              "velocity": 103,
              "position": 13.5,
              "duration": 1.716667
            },
            {
              "pitch": 36,
              "velocity": 98,
              "position": 15.5,
              "duration": 0.258333
            },
            {
              "pitch": 31,
              "velocity": 93,
              "position": 15.758333,
              "duration": 0.241667
            }
          ]
        },
        "11": {
          "ctab": {
            "srcChannel": 11,
            "name": "Piano",
            "accType": "CHORD1",
            "editable": true,
            "mutedNotes": [],
            "mutedChords": [],
            "sourceChordNote": 0,
            "sourceChordType": "Maj7",
            "ctb2Main": {
              "ntr": "ROOT_FIXED",
              "ntt": "CHORD",
              "bassOn": false,
              "noteLowLimit": 48,
              "noteHighLimit": 84,
              "chordRootUpperLimit": 127,
              "rtr": "NOTE_GENERATOR"
            }
          },
          "notes": [
            {
              "pitch": 48,
              "velocity": 41,
              "position": 0.0,
              "duration": 1.958333
            },
            {
              "pitch": 60,
              "velocity": 59,
              "position": 0.5,
              "duration": 0.558333
            },
            {
              "pitch": 55,
              "velocity": 41,
              "position": 0.8,
              "duration": 0.558333
            },
            {
              "pitch": 59,
              "velocity": 41,
              "position": 1.0,
              "duration": 0.591667
            },
            {
              "pitch": 60,
              "velocity": 56,
              "position": 1.3,
              "duration": 0.508333
            },
            {
              "pitch": 55,
              "velocity": 41,
              "position": 1.5,
              "duration": 0.458333
            },
            {
              "pitch": 59,
              "velocity": 41,
              "position": 1.8,
              "duration": 0.158333
            },
            {
              "pitch": 48,
              "velocity": 41,
              "position": 2.0,
              "duration": 0.766667
            },
            {
              "pitch": 60,
              "velocity": 75,
              "position": 2.5,
              "duration": 0.616667
            },
            {
              "pitch": 55,
              "velocity": 41,
              "position": 2.8,
              "duration": 0.583333
            },
            {
              "pitch": 59,
              "velocity": 41,
              "position": 3.0,
              "duration": 0.608333
            },
            {
              "pitch": 60,
              "velocity": 58,
              "position": 3.3,
              "duration": 0.558333
            },
            {
              "pitch": 55,
              "velocity": 41,
              "position": 3.5,
              "duration": 0.458333
            },
            {
              "pitch": 59,
              "velocity": 41,
              "position": 3.8,
              "duration": 0.158333
            },
            {
              "pitch": 48,
              "velocity": 41,
              "position": 4.0,
              "duration": 1.458333
            },
            {
              "pitch": 60,
              "velocity": 69,
              "position": 4.5,
              "duration": 0.658333
            },
            {
              "pitch": 55,
              "velocity": 41,
              "position": 4.8,
              "duration": 0.591667
            },
            {
              "pitch": 59,
              "velocity": 41,
              "position": 5.0,
              "duration": 0.616667
            },
            {
              "pitch": 60,
              "velocity": 53,
              "position": 5.3,
              "duration": 0.6
            },
            {
              "pitch": 55,
              "velocity": 41,
              "position": 5.5,
              "duration": 0.458333
            },
            {
              "pitch": 59,
              "velocity": 41,
              "position": 5.8,
              "duration": 0.158333
            },
            {
              "pitch": 48,
              "velocity": 41,
              "position": 6.0,
              "duration": 0.766667
            },
            {
              "pitch": 60,
              "velocity": 75,
              "position": 6.5,
              "duration": 0.616667
            },
            {
              "pitch": 55,
              "velocity": 41,
              "position": 6.8,
              "duration": 0.583333
            },
            {
              "pitch": 59,
              "velocity": 41,
              "position": 7.0,
              "duration": 0.608333
            },
            {
              "pitch": 60,
              "velocity": 58,
              "position": 7.3,
              "duration": 0.558333
            },
            {
              "pitch": 55,
              "velocity": 41,
              "position": 7.5,
              "duration": 0.458333
            },
            {
              "pitch": 59,
              "velocity": 41,
              "position": 7.8,
              "duration": 0.158333
            },
            {
              "pitch": 48,
              "velocity": 41,
              "position": 8.0,
              "duration": 1.458333
            },
            {
              "pitch": 60,
              "velocity": 69,
              "position": 8.5,
              "duration": 0.658333
            },
            {
              "pitch": 55,
              "velocity": 41,
              "position": 8.8,
              "duration": 0.591667
            },
            {
              "pitch": 59,
              "velocity": 41,
              "position": 9.0,
              "duration": 0.616667
            },
            {
              "pitch": 60,
              "velocity": 53,
              "position": 9.3,
              "duration": 0.6
            },
            {
              "pitch": 55,
              "velocity": 41,
              "position": 9.5,
              "duration": 0.691667
            },
            {
              "pitch": 59,
              "velocity": 41,
              "position": 9.8,
              "duration": 0.616667
            },
            {
              "pitch": 60,
              "velocity": 59,
              "position": 10.0,
              "duration": 0.7
            },
            {
              "pitch": 55,
              "velocity": 41,
              "position": 10.3,
              "duration": 1.141667
            },
            {
              "pitch": 59,
              "velocity": 41,
              "position": 10.5,
              "duration": 0.691667
            },
            {
              "pitch": 60,
              "velocity": 56,
              "position": 10.8,
              "duration": 0.841667
            },
            {
              "pitch": 67,
              "velocity": 41,
              "position": 11.0,
              "duration": 0.708333
            },
            {
              "pitch": 59,
              "velocity": 43,
              "position": 11.3,
              "duration": 0.341667
            },
            {
              "pitch": 55,
              "velocity": 44,
              "position": 11.5,
              "duration": 0.15
            },
            {
              "pitch": 60,
              "velocity": 41,
              "position": 11.8,
              "duration": 0.225
            },
            {
              "pitch": 67,
              "velocity": 63,
              "position": 12.0,
              "duration": 0.716667
            },
            {
              "pitch": 59,
              "velocity": 41,
              "position": 12.3,
              "duration": 0.883333
            },
            {
              "pitch": 60,
              "velocity": 44,
              "position": 12.5,
              "duration": 0.625
            },
            {
              "pitch": 67,
              "velocity": 42,
              "position": 12.8,
              "duration": 0.716667
            },
            {
              "pitch": 74,
              "velocity": 61,
              "position": 13.5,
              "duration": 0.691667
            },
            {
              "pitch": 67,
              "velocity": 41,
              "position": 13.8,
              "duration": 0.2
            },
            {
              "pitch": 67,
              "velocity": 41,
              "position": 14.0,
              "duration": 0.25
            },
            {
              "pitch": 74,
              "velocity": 48,
              "position": 14.3,
              "duration": 0.608333
            },
            {
              "pitch": 67,
              "velocity": 41,
              "position": 14.5,
              "duration": 0.258333
            },
            {
              "pitch": 67,
              "velocity": 41,
              "position": 14.8,
              "duration": 0.258333
            },
            {
              "pitch": 74,
              "velocity": 47,
              "position": 15.0,
              "duration": 0.691667
            },
            {
              "pitch": 67,
              "velocity": 41,
              "position": 15.3,
              "duration": 0.2
            },
            {
              "pitch": 67,
              "velocity": 51,
              "position": 15.5,
              "duration": 0.375
            }
          ]
        },
        "12": {
          "ctab": {
            "srcChannel": 12,
            "name": "Guitar",
            "accType": "CHORD2",
            "editable": true,
            "mutedNotes": [],
            "mutedChords": [],
            "sourceChordNote": 0,
            "sourceChordType": "Maj7",
            "ctb2Main": {
              "ntr": "ROOT_FIXED",
              "ntt": "CHORD",
              "bassOn": false,
              "noteLowLimit": 40,
              "noteHighLimit": 76,
              "chordRootUpperLimit": 127,
              "rtr": "NOTE_GENERATOR"
            }
          },
          "notes": [
            {
              "pitch": 43,
              "velocity": 84,
              "position": 0.0,
              "duration": 0.933333
            },
            {
              "pitch": 48,
              "velocity": 79,
              "position": 0.0,
              "duration": 0.916667
            },
            {
              "pitch": 59,
              "velocity": 77,
              "position": 0.0,
              "duration": 0.95
            },
            {
              "pitch": 64,
              "velocity": 53,
              "position": 0.0,
              "duration": 0.95
            },
            {
              "pitch": 43,
              "velocity": 90,
              "position": 1.0,
              "duration": 0.958333
            },
            {
              "pitch": 48,
              "velocity": 81,
              "position": 1.0,
              "duration": 0.791667
            },
            {
              "pitch": 59,
              "velocity": 90,
              "position": 1.0,
              "duration": 0.775
            },
            {
              "pitch": 64,
              "velocity": 88,
              "position": 1.0,
              "duration": 0.766667
            },
            {
              "pitch": 67,
              "velocity": 90,
              "position": 1.0,
              "duration": 0.733333
            },
            {
              "pitch": 48,
              "velocity": 42,
              "position": 1.8,
              "duration": 0.158333
            },
            {
              "pitch": 59,
              "velocity": 42,
              "position": 1.8,
              "duration": 0.158333
            },
            {
              "pitch": 43,
              "velocity": 77,
              "position": 2.0,
              "duration": 0.858333
            },
            {
              "pitch": 48,
              "velocity": 57,
              "position": 2.0,
              "duration": 0.85
            },
            {
              "pitch": 59,
              "velocity": 65,
              "position": 2.0,
              "duration": 0.875
            },
            {
              "pitch": 43,
              "velocity": 90,
              "position": 3.0,
              "duration": 0.958333
            },
            {
              "pitch": 48,
              "velocity": 89,
              "position": 3.0,
              "duration": 0.958333
            },
            {
              "pitch": 59,
              "velocity": 90,
              "position": 3.0,
              "duration": 0.791667
            },
            {
              "pitch": 64,
              "velocity": 90,
              "position": 3.0,
              "duration": 0.75
            },
            {
              "pitch": 67,
              "velocity": 72,
              "position": 3.0,
              "duration": 0.733333
            },
            {
              "pitch": 59,
              "velocity": 56,
              "position": 3.8,
              "duration": 0.158333
            },
            {
              "pitch": 64,
              "velocity": 61,
              "position": 3.8,
              "duration": 0.158333
            },
            {
              "pitch": 43,
              "velocity": 86,
              "position": 4.0,
              "duration": 0.833333
            },
            {
              "pitch": 48,
              "velocity": 74,
              "position": 4.0,
              "duration": 0.825
            },
            {
              "pitch": 59,
              "velocity": 83,
              "position": 4.0,
              "duration": 0.841667
            },
            {
              "pitch": 43,
              "velocity": 90,
              "position": 5.0,
              "duration": 0.933333
            },
            {
              "pitch": 48,
              "velocity": 82,
              "position": 5.0,
              "duration": 0.95
            },
            {
              "pitch": 59,
              "velocity": 90,
              "position": 5.0,
              "duration": 0.758333
            },
            {
              "pitch": 64,
              "velocity": 90,
              "position": 5.0,
              "duration": 0.733333
            },
            {
              "pitch": 67,
              "velocity": 90,
              "position": 5.0,
              "duration": 0.691667
            },
            {
              "pitch": 59,
              "velocity": 49,
              "position": 5.8,
              "duration": 0.158333
            },
            {
              "pitch": 43,
              "velocity": 82,
              "position": 6.0,
              "duration": 1.75
            },
            {
              "pitch": 48,
              "velocity": 87,
              "position": 6.0,
              "duration": 1.758333
            },
            {
              "pitch": 59,
              "velocity": 90,
              "position": 6.0,
              "duration": 0.841667
            },
            {
              "pitch": 64,
              "velocity": 87,
              "position": 6.0,
              "duration": 0.85
            },
            {
              "pitch": 67,
              "velocity": 90,
              "position": 6.0,
              "duration": 0.816667
            },
            {
              "pitch": 59,
              "velocity": 90,
              "position": 7.0,
              "duration": 0.733333
            },
            {
              "pitch": 64,
              "velocity": 90,
              "position": 7.0,
              "duration": 0.666667
            },
            {
              "pitch": 67,
              "velocity": 90,
              "position": 7.0,
              "duration": 0.675
            },
            {
              "pitch": 59,
              "velocity": 59,
              "position": 7.8,
              "duration": 0.158333
            },
            {
              "pitch": 64,
              "velocity": 71,
              "position": 7.8,
              "duration": 0.158333
            },
            {
              "pitch": 67,
              "velocity": 90,
              "position": 7.8,
              "duration": 0.158333
            },
            {
              "pitch": 43,
              "velocity": 84,
              "position": 8.0,
              "duration": 0.933333
            },
            {
              "pitch": 48,
              "velocity": 79,
              "position": 8.0,
              "duration": 0.916667
            },
            {
              "pitch": 59,
              "velocity": 77,
              "position": 8.0,
              "duration": 0.95
            },
            {
              "pitch": 64,
              "velocity": 53,
              "position": 8.0,
              "duration": 0.95
            },
            {
              "pitch": 43,
              "velocity": 90,
              "position": 9.0,
              "duration": 1.0
            },
            {
              "pitch": 48,
              "velocity": 81,
              "position": 9.0,
              "duration": 0.791667
            },
            {
              "pitch": 59,
              "velocity": 90,
              "position": 9.0,
              "duration": 0.775
            },
            {
              "pitch": 64,
              "velocity": 88,
              "position": 9.0,
              "duration": 0.766667
            },
            {
              "pitch": 67,
              "velocity": 90,
              "position": 9.0,
              "duration": 0.733333
            },
            {
              "pitch": 48,
              "velocity": 61,
              "position": 9.8,
              "duration": 0.458333
            },
            {
              "pitch": 59,
              "velocity": 78,
              "position": 9.8,
              "duration": 0.45
            },
            {
              "pitch": 64,
              "velocity": 67,
              "position": 9.8,
              "duration": 0.433333
            },
            {
              "pitch": 67,
              "velocity": 88,
              "position": 9.8,
              "duration": 0.408333
            },
            {
              "pitch": 43,
              "velocity": 83,
              "position": 10.0,
              "duration": 1.0
            },
            {
              "pitch": 48,
              "velocity": 52,
              "position": 10.3,
              "duration": 0.7
            },
            {
              "pitch": 59,
              "velocity": 65,
              "position": 10.3,
              "duration": 0.5
            },
            {
              "pitch": 64,
              "velocity": 68,
              "position": 10.3,
              "duration": 0.5
            },
            {
              "pitch": 67,
              "velocity": 84,
              "position": 10.3,
              "duration": 0.5
            },
            {
              "pitch": 59,
              "velocity": 57,
              "position": 10.8,
              "duration": 0.191667
            },
            {
              "pitch": 64,
              "velocity": 61,
              "position": 10.8,
              "duration": 1.2
            },
            {
              "pitch": 67,
              "velocity": 58,
              "position": 10.8,
              "duration": 1.233333
            },
            {
              "pitch": 43,
              "velocity": 90,
              "position": 11.0,
              "duration": 0.966667
            },
            {
              "pitch": 48,
              "velocity": 88,
              "position": 11.0,
              "duration": 1.0
            },
            {
              "pitch": 59,
              "velocity": 86,
              "position": 11.0,
              "duration": 0.966667
            },
            {
              "pitch": 43,
              "velocity": 90,
              "position": 12.0,
              "duration": 0.35
            },
            {
              "pitch": 48,
              "velocity": 87,
              "position": 12.0,
              "duration": 1.233333
            },
            {
              "pitch": 59,
              "velocity": 88,
              "position": 12.0,
              "duration": 0.65
            },
            {
              "pitch": 64,
              "velocity": 56,
              "position": 12.0,
              "duration": 0.608333
            },
            {
              "pitch": 43,
              "velocity": 90,
              "position": 12.5,
              "duration": 0.8
            },
            {
              "pitch": 59,
              "velocity": 87,
              "position": 12.8,
              "duration": 0.575
            },
            {
              "pitch": 64,
              "velocity": 90,
              "position": 12.8,
              "duration": 0.391667
            },
            {
              "pitch": 67,
              "velocity": 90,
              "position": 12.8,
              "duration": 0.383333
            },
            {
              "pitch": 43,
              "velocity": 90,
              "position": 13.5,
              "duration": 0.95
            },
            {
              "pitch": 48,
              "velocity": 90,
              "position": 13.5,
              "duration": 0.941667
            },
            {
              "pitch": 59,
              "velocity": 90,
              "position": 13.5,
              "duration": 1.208333
            },
            {
              "pitch": 64,
              "velocity": 88,
              "position": 13.5,
              "duration": 0.708333
            },
            {
              "pitch": 67,
              "velocity": 72,
              "position": 13.5,
              "duration": 0.691667
            },
            {
              "pitch": 64,
              "velocity": 70,
              "position": 14.3,
              "duration": 0.458333
            },
            {
              "pitch": 48,
              "velocity": 79,
              "position": 14.5,
              "duration": 1.316667
            },
            {
              "pitch": 59,
              "velocity": 62,
              "position": 14.8,
              "duration": 0.85
            },
            {
              "pitch": 64,
              "velocity": 69,
              "position": 14.8,
              "duration": 0.391667
            },
            {
              "pitch": 67,
              "velocity": 90,
              "position": 14.8,
              "duration": 0.391667
            },
            {
              "pitch": 64,
              "velocity": 75,
              "position": 15.3,
              "duration": 0.433333
            },
            {
              "pitch": 59,
              "velocity": 76,
              "position": 15.8,
              "duration": 0.158333
            },
            {
              "pitch": 64,
              "velocity": 74,
              "position": 15.8,
              "duration": 0.158333
            },
            {
              "pitch": 67,
              "velocity": 90,
              "position": 15.8,
              "duration": 0.158333
            }
          ]
        },
        "13": {
          "ctab": {
            "srcChannel": 13,
            "name": "Strings",
            "accType": "PAD",
            "editable": true,
            "mutedNotes": [],
            "mutedChords": [],
            "sourceChordNote": 0,
            "sourceChordType": "Maj7",
            "ctb2Main": {
              "ntr": "ROOT_FIXED",
              "ntt": "MELODY",
              "bassOn": false,
              "noteLowLimit": 36,
              "noteHighLimit": 96,
              "chordRootUpperLimit": 127,
              "rtr": "PITCH_SHIFT"
            }
          },
          "notes": [
            {
              "pitch": 60,
              "velocity": 95,
              "position": 4.0,
              "duration": 1.958333
            },
            {
              "pitch": 67,
              "velocity": 46,
              "position": 6.533333,
              "duration": 0.016667
            },
            {
              "pitch": 64,
              "velocity": 93,
              "position": 6.541667,
              "duration": 0.008333
            },
            {
              "pitch": 64,
              "velocity": 90,
              "position": 6.558333,
              "duration": 0.283333
            },
            {
              "pitch": 67,
              "velocity": 92,
              "position": 6.558333,
              "duration": 0.25
            },
            {
              "pitch": 64,
              "velocity": 79,
              "position": 6.85,
              "duration": 0.208333
            },
            {
              "pitch": 60,
              "velocity": 78,
              "position": 7.008333,
              "duration": 0.15
            },
            {
              "pitch": 60,
              "velocity": 41,
              "position": 7.208333,
              "duration": 0.075
            },
            {
              "pitch": 60,
              "velocity": 65,
              "position": 7.3,
              "duration": 0.391667
            },
            {
              "pitch": 59,
              "velocity": 59,
              "position": 7.533333,
              "duration": 0.275
            },
            {
              "pitch": 48,
              "velocity": 77,
              "position": 8.025,
              "duration": 2.866667
            },
            {
              "pitch": 52,
              "velocity": 87,
              "position": 14.025,
              "duration": 0.241667
            },
            {
              "pitch": 52,
              "velocity": 76,
              "position": 14.275,
              "duration": 0.241667
            },
            {
              "pitch": 55,
              "velocity": 97,
              "position": 14.525,
              "duration": 0.35
            },
            {
              "pitch": 43,
              "velocity": 95,
              "position": 15.025,
              "duration": 0.316667
            },
            {
              "pitch": 45,
              "velocity": 82,
              "position": 15.341667,
              "duration": 0.15
            },
            {
              "pitch": 48,
              "velocity": 90,
              "position": 15.525,
              "duration": 0.383333
            }
          ]
        }
      }
    },
    "Main_B": {
      "type": "Main_B",
      "sizeInBeats": 16,
      "channels": {
        "9": {
          "ctab": {
            "srcChannel": 9,
            "name": "Drums",
            "accType": "RHYTHM",
            "editable": false,
            "mutedNotes": [],
            "mutedChords": [],
            "sourceChordNote": 0,
            "sourceChordType": "Maj",
            "ctb2Main": {
              "ntr": "ROOT_FIXED",
              "ntt": "BYPASS",
              "bassOn": false,
              "noteLowLimit": 20,
              "noteHighLimit": 127,
              "chordRootUpperLimit": 127,
              "rtr": "RETRIGGER"
            }
          },
          "notes": [
            {
              "pitch": 36,
              "velocity": 82,
              "position": 0.0,
              "duration": 0.583333
            },
            {
              "pitch": 49,
              "velocity": 86,
              "position": 0.0,
              "duration": 0.441667
            },
            {
              "pitch": 38,
              "velocity": 70,
              "position": 1.0,
              "duration": 0.225
            },
            {
              "pitch": 36,
              "velocity": 66,
              "position": 2.0,
              "duration": 0.233333
            },
            {
              "pitch": 42,
              "velocity": 77,
              "position": 2.0,
              "duration": 0.183333
            },
            {
              "pitch": 36,
              "velocity": 68,
              "position": 2.5,
              "duration": 0.258333
            },
            {
              "pitch": 42,
              "velocity": 87,
              "position": 2.5,
              "duration": 0.133333
            },
            {
              "pitch": 38,
              "velocity": 68,
              "position": 3.0,
              "duration": 0.116667
            },
            {
              "pitch": 36,
              "velocity": 88,
              "position": 4.0,
              "duration": 0.191667
            },
            {
              "pitch": 42,
              "velocity": 103,
              "position": 4.0,
              "duration": 0.116667
            },
            {
              "pitch": 36,
              "velocity": 78,
              "position": 4.5,
              "duration": 0.241667
            },
            {
              "pitch": 42,
              "velocity": 96,
              "position": 4.5,
              "duration": 0.133333
            },
            {
              "pitch": 38,
              "velocity": 82,
              "position": 5.0,
              "duration": 0.116667
            },
            {
              "pitch": 36,
              "velocity": 80,
              "position": 6.0,
              "duration": 0.166667
            },
            {
              "pitch": 42,
              "velocity": 92,
              "position": 6.0,
              "duration": 0.175
            },
            {
              "pitch": 36,
              "velocity": 78,
              "position": 6.5,
              "duration": 0.308333
            },
            {
              "pitch": 42,
              "velocity": 96,
              "position": 6.5,
              "duration": 0.108333
            },
            {
              "pitch": 38,
              "velocity": 92,
              "position": 7.0,
              "duration": 0.125
            },
            {
              "pitch": 42,
              "velocity": 65,
              "position": 7.508333,
              "duration": 0.275
            },
            {
              "pitch": 46,
              "velocity": 65,
              "position": 7.783333,
              "duration": 0.216667
            },
            {
              "pitch": 36,
              "velocity": 96,
              "position": 8.0,
              "duration": 0.166667
            },
            {
              "pitch": 42,
              "velocity": 66,
              "position": 8.0,
              "duration": 0.525
            },
            {
              "pitch": 42,
              "velocity": 65,
              "position": 8.533333,
              "duration": 0.458333
            },
            {
              "pitch": 38,
              "velocity": 99,
              "position": 9.0,
              "duration": 0.508333
            },
            {
              "pitch": 42,
              "velocity": 65,
              "position": 9.008333,
              "duration": 0.5
            },
            {
              "pitch": 42,
              "velocity": 65,
              "position": 9.516667,
              "duration": 0.283333
            },
            {
              "pitch": 46,
              "velocity": 89,
              "position": 9.8,
              "duration": 0.108333
            },
            {
              "pitch": 36,
              "velocity": 78,
              "position": 10.0,
              "duration": 0.2
            },
            {
              "pitch": 42,
              "velocity": 106,
              "position": 10.0,
              "duration": 0.158333
            },
            {
              "pitch": 36,
              "velocity": 82,
              "position": 10.5,
              "duration": 0.491667
            },
            {
              "pitch": 42,
              "velocity": 112,
              "position": 10.5,
              "duration": 0.491667
            },
            {
              "pitch": 38,
              "velocity": 74,
              "position": 11.0,
              "duration": 0.508333
            },
            {
              "pitch": 42,
              "velocity": 65,
              "position": 11.0,
              "duration": 0.508333
            },
            {
              "pitch": 42,
              "velocity": 65,
              "position": 11.516667,
              "duration": 0.475
            },
            {
              "pitch": 36,
              "velocity": 72,
              "position": 12.0,
              "duration": 0.225
            },
            {
              "pitch": 36,
              "velocity": 81,
              "position": 12.5,
              "duration": 0.141667
            },
            {
              "pitch": 42,
              "velocity": 99,
              "position": 12.5,
              "duration": 0.133333
            },
            {
              "pitch": 38,
              "velocity": 81,
              "position": 13.0,
              "duration": 0.166667
            },
            {
              "pitch": 42,
              "velocity": 83,
              "position": 13.5,
              "duration": 0.133333
            },
            {
              "pitch": 36,
              "velocity": 76,
              "position": 14.0,
              "duration": 0.191667
            },
            {
              "pitch": 36,
              "velocity": 74,
              "position": 14.5,
              "duration": 0.225
            },
            {
              "pitch": 42,
              "velocity": 92,
              "position": 14.5,
              "duration": 0.1
            },
            {
              "pitch": 38,
              "velocity": 93,
              "position": 15.0,
              "duration": 0.125
            },
            {
              "pitch": 42,
              "velocity": 93,
              "position": 15.5,
              "duration": 0.083333
            }
          ]
        },
        "10": {
          "ctab": {
            "srcChannel": 10,
            "name": "Bass",
            "accType": "BASS",
            "editable": true,
            "mutedNotes": [],
            "mutedChords": [],
            "sourceChordNote": 0,
            "sourceChordType": "Maj7",
            "ctb2Main": {
              "ntr": "ROOT_TRANSPOSITION",
              "ntt": "BYPASS",
              "bassOn": true,
              "noteLowLimit": 20,
              "noteHighLimit": 60,
              "chordRootUpperLimit": 127,
              "rtr": "NOTE_GENERATOR"
            }
          },
          "notes": [
            {
              "pitch": 36,
              "velocity": 105,
              "position": 0.008333,
              "duration": 0.183333
            },
            {
              "pitch": 36,
              "velocity": 105,
              "position": 0.508333,
              "duration": 1.166667
            },
            {
              "pitch": 35,
              "velocity": 81,
              "position": 1.783333,
              "duration": 0.216667
            },
            {
              "pitch": 36,
              "velocity": 92,
              "position": 2.0,
              "duration": 0.216667
            },
            {
              "pitch": 36,
              "velocity": 102,
              "position": 2.5,
              "duration": 1.066667
            },
            {
              "pitch": 36,
              "velocity": 93,
              "position": 3.75,
              "duration": 0.225
            },
            {
              "pitch": 36,
              "velocity": 96,
              "position": 4.008333,
              "duration": 1.516667
            },
            {
              "pitch": 36,
              "velocity": 99,
              "position": 5.75,
              "duration": 0.2
            },
            {
              "pitch": 36,
              "velocity": 79,
              "position": 6.008333,
              "duration": 0.241667
            },
            {
              "pitch": 36,
              "velocity": 96,
              "position": 6.516667,
              "duration": 1.35
            },
            {
              "pitch": 36,
              "velocity": 103,
              "position": 8.008333,
              "duration": 0.183333
            },
            {
              "pitch": 36,
              "velocity": 96,
              "position": 8.5,
              "duration": 1.233333
            },
            {
              "pitch": 36,
              "velocity": 94,
              "position": 10.0,
              "duration": 0.216667
            },
            {
              "pitch": 36,
              "velocity": 101,
              "position": 10.508333,
              "duration": 1.216667
            },
            {
              "pitch": 36,
              "velocity": 96,
              "position": 12.0,
              "duration": 0.608333
            },
            {
              "pitch": 36,
              "velocity": 99,
              "position": 12.766667,
              "duration": 0.55
            },
            {
              "pitch": 36,
              "velocity": 103,
              "position": 13.5,
              "duration": 1.716667
            },
            {
              "pitch": 36,
              "velocity": 98,
              "position": 15.5,
              "duration": 0.258333
            },
            {
              "pitch": 31,
              "velocity": 93,
              "position": 15.758333,
              "duration": 0.241667
            }
          ]
        },
        "11": {
          "ctab": {
            "srcChannel": 11,
            "name": "Piano",
            "accType": "CHORD1",
            "editable": true,
            "mutedNotes": [],
            "mutedChords": [],
            "sourceChordNote": 0,
            "sourceChordType": "Maj7",
            "ctb2Main": {
              "ntr": "ROOT_FIXED",
              "ntt": "CHORD",
              "bassOn": false,
              "noteLowLimit": 48,
              "noteHighLimit": 84,
              "chordRootUpperLimit": 127,
              "rtr": "NOTE_GENERATOR"
            }
          },
          "notes": [
            {
              "pitch": 48,
              "velocity": 41,
              "position": 0.0,
              "duration": 0.916667
            },
            {
              "pitch": 64,
              "velocity": 68,
              "position": 0.5,
              "duration": 0.65
            },
            {
              "pitch": 55,
              "velocity": 41,
              "position": 0.8,
              "duration": 0.583333
            },
            {
              "pitch": 60,
              "velocity": 41,
              "position": 1.0,
              "duration": 0.641667
            },
            {
              "pitch": 64,
              "velocity": 59,
              "position": 1.3,
              "duration": 0.616667
            },
            {
              "pitch": 55,
              "velocity": 42,
              "position": 1.5,
              "duration": 0.458333
            },
            {
              "pitch": 60,
              "velocity": 41,
              "position": 1.8,
              "duration": 0.158333
            },
            {
              "pitch": 48,
              "velocity": 41,
              "position": 2.0,
              "duration": 1.458333
            },
            {
              "pitch": 60,
              "velocity": 69,
              "position": 2.5,
              "duration": 0.658333
            },
            {
              "pitch": 55,
              "velocity": 41,
              "position": 2.8,
              "duration": 0.591667
            },
            {
              "pitch": 59,
              "velocity": 41,
              "position": 3.0,
              "duration": 0.616667
            },
            {
              "pitch": 60,
              "velocity": 53,
              "position": 3.3,
              "duration": 0.6
            },
            {
              "pitch": 55,
              "velocity": 41,
              "position": 3.5,
              "duration": 0.458333
            },
            {
              "pitch": 59,
              "velocity": 41,
              "position": 3.8,
              "duration": 0.158333
            },
            {
              "pitch": 48,
              "velocity": 41,
              "position": 4.0,
              "duration": 0.916667
            },
            {
              "pitch": 64,
              "velocity": 68,
              "position": 4.5,
              "duration": 0.65
            },
            {
              "pitch": 55,
              "velocity": 41,
              "position": 4.8,
              "duration": 0.583333
            },
            {
              "pitch": 60,
              "velocity": 41,
              "position": 5.0,
              "duration": 0.641667
            },
            {
              "pitch": 64,
              "velocity": 59,
              "position": 5.3,
              "duration": 0.616667
            },
            {
              "pitch": 55,
              "velocity": 42,
              "position": 5.5,
              "duration": 0.458333
            },
            {
              "pitch": 60,
              "velocity": 41,
              "position": 5.8,
              "duration": 0.158333
            },
            {
              "pitch": 48,
              "velocity": 41,
              "position": 6.0,
              "duration": 0.916667
            },
            {
              "pitch": 64,
              "velocity": 68,
              "position": 6.5,
              "duration": 0.65
            },
            {
              "pitch": 55,
              "velocity": 41,
              "position": 6.8,
              "duration": 0.583333
            },
            {
              "pitch": 60,
              "velocity": 41,
              "position": 7.0,
              "duration": 0.641667
            },
            {
              "pitch": 64,
              "velocity": 59,
              "position": 7.3,
              "duration": 0.616667
            },
            {
              "pitch": 55,
              "velocity": 42,
              "position": 7.5,
              "duration": 0.458333
            },
            {
              "pitch": 60,
              "velocity": 41,
              "position": 7.8,
              "duration": 0.158333
            },
            {
              "pitch": 48,
              "velocity": 41,
              "position": 8.0,
              "duration": 1.35
            },
            {
              "pitch": 64,
              "velocity": 69,
              "position": 8.5,
              "duration": 0.708333
            },
            {
              "pitch": 55,
              "velocity": 41,
              "position": 8.8,
              "duration": 0.616667
            },
            {
              "pitch": 59,
              "velocity": 43,
              "position": 9.0,
              "duration": 0.625
            },
            {
              "pitch": 64,
              "velocity": 51,
              "position": 9.3,
              "duration": 0.566667
            },
            {
              "pitch": 55,
              "velocity": 41,
              "position": 9.5,
              "duration": 0.75
            },
            {
              "pitch": 59,
              "velocity": 41,
              "position": 9.8,
              "duration": 0.641667
            },
            {
              "pitch": 64,
              "velocity": 63,
              "position": 10.0,
              "duration": 0.733333
            },
            {
              "pitch": 55,
              "velocity": 41,
              "position": 10.3,
              "duration": 1.116667
            },
            {
              "pitch": 59,
              "velocity": 41,
              "position": 10.5,
              "duration": 0.691667
            },
            {
              "pitch": 64,
              "velocity": 56,
              "position": 10.8,
              "duration": 0.75
            },
            {
              "pitch": 67,
              "velocity": 41,
              "position": 11.0,
              "duration": 0.258333
            },
            {
              "pitch": 59,
              "velocity": 67,
              "position": 11.3,
              "duration": 0.291667
            },
            {
              "pitch": 55,
              "velocity": 61,
              "position": 11.5,
              "duration": 0.358333
            },
            {
              "pitch": 64,
              "velocity": 41,
              "position": 11.8,
              "duration": 0.191667
            },
            {
              "pitch": 60,
              "velocity": 74,
              "position": 12.0,
              "duration": 0.258333
            },
            {
              "pitch": 59,
              "velocity": 41,
              "position": 12.3,
              "duration": 0.875
            },
            {
              "pitch": 64,
              "velocity": 41,
              "position": 12.5,
              "duration": 0.6
            },
            {
              "pitch": 67,
              "velocity": 64,
              "position": 12.8,
              "duration": 0.258333
            },
            {
              "pitch": 74,
              "velocity": 60,
              "position": 13.5,
              "duration": 0.733333
            },
            {
              "pitch": 67,
              "velocity": 41,
              "position": 13.8,
              "duration": 0.2
            },
            {
              "pitch": 67,
              "velocity": 41,
              "position": 14.0,
              "duration": 0.258333
            },
            {
              "pitch": 74,
              "velocity": 62,
              "position": 14.3,
              "duration": 0.591667
            },
            {
              "pitch": 67,
              "velocity": 41,
              "position": 14.5,
              "duration": 0.25
            },
            {
              "pitch": 67,
              "velocity": 41,
              "position": 14.8,
              "duration": 0.25
            },
            {
              "pitch": 74,
              "velocity": 59,
              "position": 15.0,
              "duration": 0.691667
            },
            {
              "pitch": 67,
              "velocity": 41,
              "position": 15.3,
              "duration": 0.2
            },
            {
              "pitch": 67,
              "velocity": 41,
              "position": 15.5,
              "duration": 0.258333
            },
            {
              "pitch": 74,
              "velocity": 41,
              "position": 15.8,
              "duration": 0.158333
            }
          ]
        },
        "12": {
          "ctab": {
            "srcChannel": 12,
            "name": "Guitar",
            "accType": "CHORD2",
            "editable": true,
            "mutedNotes": [],
            "mutedChords": [],
            "sourceChordNote": 0,
            "sourceChordType": "Maj7",
            "ctb2Main": {
              "ntr": "ROOT_FIXED",
              "ntt": "CHORD",
              "bassOn": false,
              "noteLowLimit": 40,
              "noteHighLimit": 76,
              "chordRootUpperLimit": 127,
              "rtr": "NOTE_GENERATOR"
            }
          },
          "notes": [
            {
              "pitch": 43,
              "velocity": 84,
              "position": 0.0,
              "duration": 0.933333
            },
            {
              "pitch": 48,
              "velocity": 79,
              "position": 0.0,
              "duration": 0.916667
            },
            {
              "pitch": 59,
              "velocity": 77,
              "position": 0.0,
              "duration": 0.95
            },
            {
              "pitch": 64,
              "velocity": 53,
              "position": 0.0,
              "duration": 0.95
            },
            {
              "pitch": 43,
              "velocity": 90,
              "position": 1.0,
              "duration": 0.958333
            },
            {
              "pitch": 48,
              "velocity": 81,
              "position": 1.0,
              "duration": 0.791667
            },
            {
              "pitch": 59,
              "velocity": 90,
              "position": 1.0,
              "duration": 0.775
            },
            {
              "pitch": 64,
              "velocity": 88,
              "position": 1.0,
              "duration": 0.766667
            },
            {
              "pitch": 67,
              "velocity": 90,
              "position": 1.0,
              "duration": 0.733333
            },
            {
              "pitch": 48,
              "velocity": 42,
              "position": 1.8,
              "duration": 0.158333
            },
            {
              "pitch": 59,
              "velocity": 42,
              "position": 1.8,
              "duration": 0.158333
            },
            {
              "pitch": 43,
              "velocity": 86,
              "position": 2.0,
              "duration": 0.833333
            },
            {
              "pitch": 48,
              "velocity": 74,
              "position": 2.0,
              "duration": 0.825
            },
            {
              "pitch": 59,
              "velocity": 83,
              "position": 2.0,
              "duration": 0.841667
            },
            {
              "pitch": 43,
              "velocity": 90,
              "position": 3.0,
              "duration": 0.933333
            },
            {
              "pitch": 48,
              "velocity": 82,
              "position": 3.0,
              "duration": 0.95
            },
            {
              "pitch": 59,
              "velocity": 90,
              "position": 3.0,
              "duration": 0.758333
            },
            {
              "pitch": 64,
              "velocity": 90,
              "position": 3.0,
              "duration": 0.733333
            },
            {
              "pitch": 67,
              "velocity": 90,
              "position": 3.0,
              "duration": 0.691667
            },
            {
              "pitch": 59,
              "velocity": 49,
              "position": 3.8,
              "duration": 0.158333
            },
            {
              "pitch": 43,
              "velocity": 90,
              "position": 4.0,
              "duration": 0.85
            },
            {
              "pitch": 48,
              "velocity": 58,
              "position": 4.0,
              "duration": 0.808333
            },
            {
              "pitch": 59,
              "velocity": 75,
              "position": 4.0,
              "duration": 0.85
            },
            {
              "pitch": 64,
              "velocity": 56,
              "position": 4.0,
              "duration": 0.883333
            },
            {
              "pitch": 67,
              "velocity": 51,
              "position": 4.0,
              "duration": 0.825
            },
            {
              "pitch": 43,
              "velocity": 90,
              "position": 5.0,
              "duration": 0.891667
            },
            {
              "pitch": 48,
              "velocity": 84,
              "position": 5.0,
              "duration": 0.9
            },
            {
              "pitch": 59,
              "velocity": 89,
              "position": 5.0,
              "duration": 0.908333
            },
            {
              "pitch": 64,
              "velocity": 75,
              "position": 5.0,
              "duration": 0.9
            },
            {
              "pitch": 67,
              "velocity": 83,
              "position": 5.0,
              "duration": 0.916667
            },
            {
              "pitch": 43,
              "velocity": 77,
              "position": 6.0,
              "duration": 0.858333
            },
            {
              "pitch": 48,
              "velocity": 57,
              "position": 6.0,
              "duration": 0.85
            },
            {
              "pitch": 59,
              "velocity": 65,
              "position": 6.0,
              "duration": 0.875
            },
            {
              "pitch": 43,
              "velocity": 90,
              "position": 7.0,
              "duration": 0.958333
            },
            {
              "pitch": 48,
              "velocity": 89,
              "position": 7.0,
              "duration": 0.958333
            },
            {
              "pitch": 59,
              "velocity": 90,
              "position": 7.0,
              "duration": 0.791667
            },
            {
              "pitch": 64,
              "velocity": 90,
              "position": 7.0,
              "duration": 0.75
            },
            {
              "pitch": 67,
              "velocity": 72,
              "position": 7.0,
              "duration": 0.733333
            },
            {
              "pitch": 59,
              "velocity": 56,
              "position": 7.8,
              "duration": 0.158333
            },
            {
              "pitch": 64,
              "velocity": 61,
              "position": 7.8,
              "duration": 0.158333
            },
            {
              "pitch": 43,
              "velocity": 90,
              "position": 8.0,
              "duration": 0.85
            },
            {
              "pitch": 48,
              "velocity": 58,
              "position": 8.0,
              "duration": 0.808333
            },
            {
              "pitch": 59,
              "velocity": 75,
              "position": 8.0,
              "duration": 0.85
            },
            {
              "pitch": 64,
              "velocity": 56,
              "position": 8.0,
              "duration": 0.883333
            },
            {
              "pitch": 67,
              "velocity": 51,
              "position": 8.0,
              "duration": 0.825
            },
            {
              "pitch": 43,
              "velocity": 90,
              "position": 9.0,
              "duration": 0.891667
            },
            {
              "pitch": 48,
              "velocity": 84,
              "position": 9.0,
              "duration": 0.9
            },
            {
              "pitch": 59,
              "velocity": 89,
              "position": 9.0,
              "duration": 0.908333
            },
            {
              "pitch": 64,
              "velocity": 75,
              "position": 9.0,
              "duration": 0.9
            },
            {
              "pitch": 67,
              "velocity": 83,
              "position": 9.0,
              "duration": 0.916667
            },
            {
              "pitch": 43,
              "velocity": 90,
              "position": 10.0,
              "duration": 0.891667
            },
            {
              "pitch": 48,
              "velocity": 77,
              "position": 10.0,
              "duration": 0.9
            },
            {
              "pitch": 59,
              "velocity": 79,
              "position": 10.0,
              "duration": 0.258333
            },
            {
              "pitch": 64,
              "velocity": 66,
              "position": 10.0,
              "duration": 0.225
            },
            {
              "pitch": 67,
              "velocity": 63,
              "position": 10.0,
              "duration": 0.2
            },
            {
              "pitch": 59,
              "velocity": 69,
              "position": 10.3,
              "duration": 0.466667
            },
            {
              "pitch": 64,
              "velocity": 68,
              "position": 10.3,
              "duration": 0.425
            },
            {
              "pitch": 67,
              "velocity": 69,
              "position": 10.3,
              "duration": 0.433333
            },
            {
              "pitch": 59,
              "velocity": 58,
              "position": 10.8,
              "duration": 0.175
            },
            {
              "pitch": 64,
              "velocity": 56,
              "position": 10.8,
              "duration": 0.2
            },
            {
              "pitch": 67,
              "velocity": 45,
              "position": 10.8,
              "duration": 0.2
            },
            {
              "pitch": 43,
              "velocity": 65,
              "position": 11.0,
              "duration": 0.858333
            },
            {
              "pitch": 48,
              "velocity": 83,
              "position": 11.0,
              "duration": 0.833333
            },
            {
              "pitch": 59,
              "velocity": 90,
              "position": 11.0,
              "duration": 0.875
            },
            {
              "pitch": 64,
              "velocity": 87,
              "position": 11.0,
              "duration": 0.808333
            },
            {
              "pitch": 67,
              "velocity": 90,
              "position": 11.0,
              "duration": 0.791667
            },
            {
              "pitch": 43,
              "velocity": 90,
              "position": 12.0,
              "duration": 1.308333
            },
            {
              "pitch": 48,
              "velocity": 88,
              "position": 12.0,
              "duration": 1.233333
            },
            {
              "pitch": 59,
              "velocity": 83,
              "position": 12.0,
              "duration": 0.691667
            },
            {
              "pitch": 64,
              "velocity": 77,
              "position": 12.0,
              "duration": 0.233333
            },
            {
              "pitch": 67,
              "velocity": 72,
              "position": 12.0,
              "duration": 0.216667
            },
            {
              "pitch": 64,
              "velocity": 51,
              "position": 12.3,
              "duration": 0.416667
            },
            {
              "pitch": 67,
              "velocity": 69,
              "position": 12.3,
              "duration": 0.416667
            },
            {
              "pitch": 59,
              "velocity": 84,
              "position": 12.8,
              "duration": 0.441667
            },
            {
              "pitch": 64,
              "velocity": 76,
              "position": 12.8,
              "duration": 0.641667
            },
            {
              "pitch": 67,
              "velocity": 90,
              "position": 12.8,
              "duration": 0.425
            },
            {
              "pitch": 59,
              "velocity": 45,
              "position": 13.3,
              "duration": 0.175
            },
            {
              "pitch": 67,
              "velocity": 49,
              "position": 13.3,
              "duration": 0.2
            },
            {
              "pitch": 43,
              "velocity": 90,
              "position": 13.5,
              "duration": 0.725
            },
            {
              "pitch": 48,
              "velocity": 89,
              "position": 13.5,
              "duration": 0.716667
            },
            {
              "pitch": 59,
              "velocity": 80,
              "position": 13.5,
              "duration": 0.666667
            },
            {
              "pitch": 64,
              "velocity": 61,
              "position": 13.5,
              "duration": 0.666667
            },
            {
              "pitch": 67,
              "velocity": 47,
              "position": 13.5,
              "duration": 0.65
            },
            {
              "pitch": 43,
              "velocity": 76,
              "position": 14.3,
              "duration": 1.05
            },
            {
              "pitch": 48,
              "velocity": 80,
              "position": 14.3,
              "duration": 0.925
            },
            {
              "pitch": 59,
              "velocity": 84,
              "position": 14.3,
              "duration": 0.458333
            },
            {
              "pitch": 64,
              "velocity": 84,
              "position": 14.3,
              "duration": 0.475
            },
            {
              "pitch": 67,
              "velocity": 90,
              "position": 14.3,
              "duration": 0.433333
            },
            {
              "pitch": 59,
              "velocity": 63,
              "position": 14.8,
              "duration": 0.441667
            },
            {
              "pitch": 64,
              "velocity": 56,
              "position": 14.8,
              "duration": 0.416667
            },
            {
              "pitch": 67,
              "velocity": 76,
              "position": 14.8,
              "duration": 0.275
            },
            {
              "pitch": 48,
              "velocity": 59,
              "position": 15.3,
              "duration": 0.625
            },
            {
              "pitch": 59,
              "velocity": 63,
              "position": 15.3,
              "duration": 0.466667
            },
            {
              "pitch": 64,
              "velocity": 45,
              "position": 15.3,
              "duration": 0.491667
            },
            {
              "pitch": 43,
              "velocity": 88,
              "position": 15.5,
              "duration": 0.45
            },
            {
              "pitch": 59,
              "velocity": 61,
              "position": 15.8,
              "duration": 0.158333
            },
            {
              "pitch": 64,
              "velocity": 56,
              "position": 15.8,
              "duration": 0.158333
            }
          ]
        },
        "13": {
          "ctab": {
            "srcChannel": 13,
            "name": "Strings",
            "accType": "PAD",
            "editable": true,
            "mutedNotes": [],
            "mutedChords": [],
            "sourceChordNote": 0,
            "sourceChordType": "Maj7",
            "ctb2Main": {
              "ntr": "ROOT_FIXED",
              "ntt": "MELODY",
              "bassOn": false,
              "noteLowLimit": 36,
              "noteHighLimit": 96,
              "chordRootUpperLimit": 127,
              "rtr": "PITCH_SHIFT"
            }
          },
          "notes": [
            {
              "pitch": 60,
              "velocity": 95,
              "position": 0.0,
              "duration": 1.958333
            },
            {
              "pitch": 60,
              "velocity": 95,
              "position": 4.0,
              "duration": 1.958333
            },
            {
              "pitch": 64,
              "velocity": 87,
              "position": 6.033333,
              "duration": 0.191667
            },
            {
              "pitch": 67,
              "velocity": 61,
              "position": 6.058333,
              "duration": 1.158333
            },
            {
              "pitch": 64,
              "velocity": 67,
              "position": 6.258333,
              "duration": 0.983333
            },
            {
              "pitch": 55,
              "velocity": 93,
              "position": 14.516667,
              "duration": 0.25
            },
            {
              "pitch": 59,
              "velocity": 83,
              "position": 14.766667,
              "duration": 0.175
            },
            {
              "pitch": 55,
              "velocity": 72,
              "position": 15.016667,
              "duration": 0.75
            },
            {
              "pitch": 60,
              "velocity": 97,
              "position": 15.016667,
              "duration": 0.25
            },
            {
              "pitch": 64,
              "velocity": 88,
              "position": 15.266667,
              "duration": 0.208333
            },
            {
              "pitch": 60,
              "velocity": 81,
              "position": 15.516667,
              "duration": 0.241667
            },
            {
              "pitch": 59,
              "velocity": 90,
              "position": 15.766667,
              "duration": 0.225
            }
          ]
        }
      }
    },
    "Main_C": {
      "type": "Main_C",
      "sizeInBeats": 16,
      "channels": {
        "9": {
          "ctab": {
            "srcChannel": 9,
            "name": "Drums",
            "accType": "RHYTHM",
            "editable": false,
            "mutedNotes": [],
            "mutedChords": [],
            "sourceChordNote": 0,
            "sourceChordType": "Maj",
            "ctb2Main": {
              "ntr": "ROOT_FIXED",
              "ntt": "BYPASS",
              "bassOn": false,
              "noteLowLimit": 20,
              "noteHighLimit": 127,
              "chordRootUpperLimit": 127,
              "rtr": "RETRIGGER"
            }
          },
          "notes": [
            {
              "pitch": 36,
              "velocity": 84,
              "position": 0.0,
              "duration": 0.183333
            },
            {
              "pitch": 49,
              "velocity": 89,
              "position": 0.0,
              "duration": 0.141667
            },
            {
              "pitch": 36,
              "velocity": 80,
              "position": 0.5,
              "duration": 0.191667
            },
            {
              "pitch": 38,
              "velocity": 92,
              "position": 1.0,
              "duration": 0.15
            },
            {
              "pitch": 42,
              "velocity": 92,
              "position": 1.5,
              "duration": 0.15
            },
            {
              "pitch": 36,
              "velocity": 75,
              "position": 2.0,
              "duration": 0.191667
            },
            {
              "pitch": 36,
              "velocity": 76,
              "position": 2.5,
              "duration": 0.241667
            },
            {
              "pitch": 42,
              "velocity": 81,
              "position": 2.5,
              "duration": 0.183333
            },
            {
              "pitch": 38,
              "velocity": 82,
              "position": 3.0,
              "duration": 0.108333
            },
            {
              "pitch": 42,
              "velocity": 87,
              "position": 3.5,
              "duration": 0.125
            },
            {
              "pitch": 36,
              "velocity": 88,
              "position": 4.0,
              "duration": 0.183333
            },
            {
              "pitch": 42,
              "velocity": 83,
              "position": 4.0,
              "duration": 0.158333
            },
            {
              "pitch": 36,
              "velocity": 83,
              "position": 4.5,
              "duration": 0.133333
            },
            {
              "pitch": 42,
              "velocity": 108,
              "position": 4.5,
              "duration": 0.108333
            },
            {
              "pitch": 38,
              "velocity": 93,
              "position": 5.0,
              "duration": 0.15
            },
            {
              "pitch": 42,
              "velocity": 65,
              "position": 5.5,
              "duration": 0.491667
            },
            {
              "pitch": 36,
              "velocity": 85,
              "position": 6.0,
              "duration": 0.133333
            },
            {
              "pitch": 42,
              "velocity": 103,
              "position": 6.0,
              "duration": 0.158333
            },
            {
              "pitch": 36,
              "velocity": 83,
              "position": 6.5,
              "duration": 0.166667
            },
            {
              "pitch": 42,
              "velocity": 99,
              "position": 6.5,
              "duration": 0.508333
            },
            {
              "pitch": 38,
              "velocity": 84,
              "position": 7.0,
              "duration": 0.225
            },
            {
              "pitch": 42,
              "velocity": 65,
              "position": 7.016667,
              "duration": 0.775
            },
            {
              "pitch": 42,
              "velocity": 87,
              "position": 7.8,
              "duration": 0.091667
            },
            {
              "pitch": 36,
              "velocity": 82,
              "position": 8.0,
              "duration": 0.216667
            },
            {
              "pitch": 42,
              "velocity": 116,
              "position": 8.0,
              "duration": 0.091667
            },
            {
              "pitch": 36,
              "velocity": 79,
              "position": 8.5,
              "duration": 0.441667
            },
            {
              "pitch": 42,
              "velocity": 115,
              "position": 8.5,
              "duration": 0.091667
            },
            {
              "pitch": 38,
              "velocity": 80,
              "position": 9.0,
              "duration": 0.166667
            },
            {
              "pitch": 36,
              "velocity": 65,
              "position": 10.0,
              "duration": 0.216667
            },
            {
              "pitch": 42,
              "velocity": 95,
              "position": 10.0,
              "duration": 0.108333
            },
            {
              "pitch": 36,
              "velocity": 75,
              "position": 10.5,
              "duration": 0.3
            },
            {
              "pitch": 42,
              "velocity": 87,
              "position": 10.5,
              "duration": 0.116667
            },
            {
              "pitch": 38,
              "velocity": 85,
              "position": 11.0,
              "duration": 0.116667
            },
            {
              "pitch": 46,
              "velocity": 70,
              "position": 11.5,
              "duration": 0.408333
            },
            {
              "pitch": 42,
              "velocity": 99,
              "position": 12.0,
              "duration": 0.108333
            },
            {
              "pitch": 36,
              "velocity": 86,
              "position": 12.05,
              "duration": 0.191667
            },
            {
              "pitch": 49,
              "velocity": 89,
              "position": 12.05,
              "duration": 0.191667
            },
            {
              "pitch": 42,
              "velocity": 89,
              "position": 12.5,
              "duration": 0.075
            },
            {
              "pitch": 36,
              "velocity": 82,
              "position": 12.55,
              "duration": 0.283333
            },
            {
              "pitch": 38,
              "velocity": 84,
              "position": 13.05,
              "duration": 0.15
            },
            {
              "pitch": 42,
              "velocity": 96,
              "position": 13.8,
              "duration": 0.116667
            },
            {
              "pitch": 42,
              "velocity": 92,
              "position": 14.0,
              "duration": 0.158333
            },
            {
              "pitch": 36,
              "velocity": 80,
              "position": 14.05,
              "duration": 0.166667
            },
            {
              "pitch": 42,
              "velocity": 117,
              "position": 14.5,
              "duration": 0.125
            },
            {
              "pitch": 36,
              "velocity": 75,
              "position": 14.55,
              "duration": 0.3
            },
            {
              "pitch": 38,
              "velocity": 83,
              "position": 15.05,
              "duration": 0.225
            },
            {
              "pitch": 36,
              "velocity": 103,
              "position": 15.333333,
              "duration": 0.166667
            }
          ]
        },
        "10": {
          "ctab": {
            "srcChannel": 10,
            "name": "Bass",
            "accType": "BASS",
            "editable": true,
            "mutedNotes": [],
            "mutedChords": [],
            "sourceChordNote": 0,
            "sourceChordType": "Maj7",
            "ctb2Main": {
              "ntr": "ROOT_TRANSPOSITION",
              "ntt": "BYPASS",
              "bassOn": true,
              "noteLowLimit": 20,
              "noteHighLimit": 60,
              "chordRootUpperLimit": 127,
              "rtr": "NOTE_GENERATOR"
            }
          },
          "notes": [
            {
              "pitch": 36,
              "velocity": 79,
              "position": 0.008333,
              "duration": 0.241667
            },
            {
              "pitch": 36,
              "velocity": 96,
              "position": 0.516667,
              "duration": 1.35
            },
            {
              "pitch": 36,
              "velocity": 96,
              "position": 2.008333,
              "duration": 1.516667
            },
            {
              "pitch": 36,
              "velocity": 99,
              "position": 3.75,
              "duration": 0.2
            },
            {
              "pitch": 36,
              "velocity": 105,
              "position": 4.008333,
              "duration": 0.183333
            },
            {
              "pitch": 36,
              "velocity": 105,
              "position": 4.508333,
              "duration": 1.166667
            },
            {
              "pitch": 36,
              "velocity": 90,
              "position": 5.783333,
              "duration": 0.216667
            },
            {
              "pitch": 36,
              "velocity": 105,
              "position": 6.008333,
              "duration": 0.183333
            },
            {
              "pitch": 36,
              "velocity": 105,
              "position": 6.508333,
              "duration": 1.166667
            },
            {
              "pitch": 36,
              "velocity": 90,
              "position": 7.783333,
              "duration": 0.216667
            },
            {
              "pitch": 36,
              "velocity": 103,
              "position": 8.008333,
              "duration": 0.183333
            },
            {
              "pitch": 36,
              "velocity": 96,
              "position": 8.5,
              "duration": 1.233333
            },
            {
              "pitch": 36,
              "velocity": 94,
              "position": 10.0,
              "duration": 0.216667
            },
            {
              "pitch": 36,
              "velocity": 101,
              "position": 10.508333,
              "duration": 1.216667
            },
            {
              "pitch": 36,
              "velocity": 96,
              "position": 12.0,
              "duration": 0.608333
            },
            {
              "pitch": 36,
              "velocity": 99,
              "position": 12.766667,
              "duration": 0.55
            },
            {
              "pitch": 36,
              "velocity": 103,
              "position": 13.5,
              "duration": 1.716667
            },
            {
              "pitch": 36,
              "velocity": 98,
              "position": 15.5,
              "duration": 0.258333
            },
            {
              "pitch": 31,
              "velocity": 93,
              "position": 15.758333,
              "duration": 0.241667
            }
          ]
        },
        "11": {
          "ctab": {
            "srcChannel": 11,
            "name": "Piano",
            "accType": "CHORD1",
            "editable": true,
            "mutedNotes": [],
            "mutedChords": [],
            "sourceChordNote": 0,
            "sourceChordType": "Maj7",
            "ctb2Main": {
              "ntr": "ROOT_FIXED",
              "ntt": "CHORD",
              "bassOn": false,
              "noteLowLimit": 48,
              "noteHighLimit": 84,
              "chordRootUpperLimit": 127,
              "rtr": "NOTE_GENERATOR"
            }
          },
          "notes": [
            {
              "pitch": 48,
              "velocity": 41,
              "position": 0.0,
              "duration": 1.458333
            },
            {
              "pitch": 60,
              "velocity": 69,
              "position": 0.5,
              "duration": 0.658333
            },
            {
              "pitch": 55,
              "velocity": 41,
              "position": 0.8,
              "duration": 0.591667
            },
            {
              "pitch": 59,
              "velocity": 41,
              "position": 1.0,
              "duration": 0.616667
            },
            {
              "pitch": 60,
              "velocity": 53,
              "position": 1.3,
              "duration": 0.6
            },
            {
              "pitch": 55,
              "velocity": 41,
              "position": 1.5,
              "duration": 0.458333
            },
            {
              "pitch": 59,
              "velocity": 41,
              "position": 1.8,
              "duration": 0.158333
            },
            {
              "pitch": 48,
              "velocity": 41,
              "position": 2.0,
              "duration": 1.341667
            },
            {
              "pitch": 64,
              "velocity": 63,
              "position": 2.5,
              "duration": 0.633333
            },
            {
              "pitch": 55,
              "velocity": 41,
              "position": 2.8,
              "duration": 0.608333
            },
            {
              "pitch": 60,
              "velocity": 41,
              "position": 3.0,
              "duration": 0.625
            },
            {
              "pitch": 64,
              "velocity": 61,
              "position": 3.3,
              "duration": 0.616667
            },
            {
              "pitch": 55,
              "velocity": 41,
              "position": 3.5,
              "duration": 0.458333
            },
            {
              "pitch": 60,
              "velocity": 41,
              "position": 3.8,
              "duration": 0.158333
            },
            {
              "pitch": 48,
              "velocity": 41,
              "position": 4.0,
              "duration": 0.741667
            },
            {
              "pitch": 60,
              "velocity": 63,
              "position": 4.5,
              "duration": 0.658333
            },
            {
              "pitch": 55,
              "velocity": 43,
              "position": 4.8,
              "duration": 0.366667
            },
            {
              "pitch": 59,
              "velocity": 41,
              "position": 5.0,
              "duration": 0.65
            },
            {
              "pitch": 60,
              "velocity": 51,
              "position": 5.3,
              "duration": 0.375
            },
            {
              "pitch": 55,
              "velocity": 41,
              "position": 5.5,
              "duration": 0.458333
            },
            {
              "pitch": 60,
              "velocity": 41,
              "position": 5.8,
              "duration": 0.158333
            },
            {
              "pitch": 48,
              "velocity": 41,
              "position": 6.0,
              "duration": 1.341667
            },
            {
              "pitch": 64,
              "velocity": 63,
              "position": 6.5,
              "duration": 0.633333
            },
            {
              "pitch": 55,
              "velocity": 41,
              "position": 6.8,
              "duration": 0.608333
            },
            {
              "pitch": 60,
              "velocity": 41,
              "position": 7.0,
              "duration": 0.625
            },
            {
              "pitch": 64,
              "velocity": 61,
              "position": 7.3,
              "duration": 0.616667
            },
            {
              "pitch": 55,
              "velocity": 41,
              "position": 7.5,
              "duration": 0.458333
            },
            {
              "pitch": 60,
              "velocity": 41,
              "position": 7.8,
              "duration": 0.158333
            },
            {
              "pitch": 48,
              "velocity": 41,
              "position": 8.0,
              "duration": 0.741667
            },
            {
              "pitch": 60,
              "velocity": 63,
              "position": 8.5,
              "duration": 0.658333
            },
            {
              "pitch": 55,
              "velocity": 43,
              "position": 8.8,
              "duration": 0.366667
            },
            {
              "pitch": 59,
              "velocity": 41,
              "position": 9.0,
              "duration": 0.65
            },
            {
              "pitch": 60,
              "velocity": 51,
              "position": 9.3,
              "duration": 0.375
            },
            {
              "pitch": 55,
              "velocity": 41,
              "position": 9.5,
              "duration": 0.775
            },
            {
              "pitch": 60,
              "velocity": 41,
              "position": 9.8,
              "duration": 0.608333
            },
            {
              "pitch": 64,
              "velocity": 65,
              "position": 10.0,
              "duration": 0.691667
            },
            {
              "pitch": 55,
              "velocity": 41,
              "position": 10.3,
              "duration": 1.633333
            },
            {
              "pitch": 60,
              "velocity": 41,
              "position": 10.5,
              "duration": 0.675
            },
            {
              "pitch": 64,
              "velocity": 56,
              "position": 10.8,
              "duration": 1.075
            },
            {
              "pitch": 60,
              "velocity": 41,
              "position": 11.3,
              "duration": 0.358333
            },
            {
              "pitch": 48,
              "velocity": 41,
              "position": 11.5,
              "duration": 0.516667
            },
            {
              "pitch": 60,
              "velocity": 41,
              "position": 11.8,
              "duration": 0.208333
            },
            {
              "pitch": 64,
              "velocity": 67,
              "position": 12.0,
              "duration": 0.733333
            },
            {
              "pitch": 55,
              "velocity": 41,
              "position": 12.3,
              "duration": 1.625
            },
            {
              "pitch": 60,
              "velocity": 41,
              "position": 12.5,
              "duration": 0.691667
            },
            {
              "pitch": 64,
              "velocity": 42,
              "position": 12.8,
              "duration": 0.316667
            },
            {
              "pitch": 67,
              "velocity": 41,
              "position": 13.0,
              "duration": 0.25
            },
            {
              "pitch": 60,
              "velocity": 41,
              "position": 13.3,
              "duration": 0.608333
            },
            {
              "pitch": 64,
              "velocity": 65,
              "position": 13.5,
              "duration": 0.733333
            },
            {
              "pitch": 67,
              "velocity": 41,
              "position": 13.8,
              "duration": 0.25
            },
            {
              "pitch": 60,
              "velocity": 41,
              "position": 14.0,
              "duration": 0.616667
            },
            {
              "pitch": 64,
              "velocity": 55,
              "position": 14.3,
              "duration": 0.541667
            },
            {
              "pitch": 67,
              "velocity": 44,
              "position": 14.5,
              "duration": 0.258333
            },
            {
              "pitch": 60,
              "velocity": 41,
              "position": 14.8,
              "duration": 0.441667
            },
            {
              "pitch": 64,
              "velocity": 52,
              "position": 15.0,
              "duration": 0.191667
            },
            {
              "pitch": 60,
              "velocity": 41,
              "position": 15.3,
              "duration": 0.1
            },
            {
              "pitch": 59,
              "velocity": 44,
              "position": 15.5,
              "duration": 0.266667
            },
            {
              "pitch": 55,
              "velocity": 51,
              "position": 15.8,
              "duration": 0.158333
            }
          ]
        },
        "12": {
          "ctab": {
            "srcChannel": 12,
            "name": "Guitar",
            "accType": "CHORD2",
            "editable": true,
            "mutedNotes": [],
            "mutedChords": [],
            "sourceChordNote": 0,
            "sourceChordType": "Maj7",
            "ctb2Main": {
              "ntr": "ROOT_FIXED",
              "ntt": "CHORD",
              "bassOn": false,
              "noteLowLimit": 40,
              "noteHighLimit": 76,
              "chordRootUpperLimit": 127,
              "rtr": "NOTE_GENERATOR"
            }
          },
          "notes": [
            {
              "pitch": 43,
              "velocity": 86,
              "position": 0.0,
              "duration": 0.833333
            },
            {
              "pitch": 48,
              "velocity": 74,
              "position": 0.0,
              "duration": 0.825
            },
            {
              "pitch": 59,
              "velocity": 83,
              "position": 0.0,
              "duration": 0.841667
            },
            {
              "pitch": 43,
              "velocity": 90,
              "position": 1.0,
              "duration": 0.933333
            },
            {
              "pitch": 48,
              "velocity": 82,
              "position": 1.0,
              "duration": 0.95
            },
            {
              "pitch": 59,
              "velocity": 90,
              "position": 1.0,
              "duration": 0.758333
            },
            {
              "pitch": 64,
              "velocity": 90,
              "position": 1.0,
              "duration": 0.733333
            },
            {
              "pitch": 67,
              "velocity": 90,
              "position": 1.0,
              "duration": 0.691667
            },
            {
              "pitch": 59,
              "velocity": 49,
              "position": 1.8,
              "duration": 0.158333
            },
            {
              "pitch": 43,
              "velocity": 90,
              "position": 2.0,
              "duration": 0.85
            },
            {
              "pitch": 48,
              "velocity": 58,
              "position": 2.0,
              "duration": 0.808333
            },
            {
              "pitch": 59,
              "velocity": 75,
              "position": 2.0,
              "duration": 0.85
            },
            {
              "pitch": 64,
              "velocity": 56,
              "position": 2.0,
              "duration": 0.883333
            },
            {
              "pitch": 67,
              "velocity": 51,
              "position": 2.0,
              "duration": 0.825
            },
            {
              "pitch": 43,
              "velocity": 90,
              "position": 3.0,
              "duration": 0.891667
            },
            {
              "pitch": 48,
              "velocity": 84,
              "position": 3.0,
              "duration": 0.9
            },
            {
              "pitch": 59,
              "velocity": 89,
              "position": 3.0,
              "duration": 0.908333
            },
            {
              "pitch": 64,
              "velocity": 75,
              "position": 3.0,
              "duration": 0.9
            },
            {
              "pitch": 67,
              "velocity": 83,
              "position": 3.0,
              "duration": 0.916667
            },
            {
              "pitch": 43,
              "velocity": 86,
              "position": 4.0,
              "duration": 0.833333
            },
            {
              "pitch": 48,
              "velocity": 74,
              "position": 4.0,
              "duration": 0.825
            },
            {
              "pitch": 59,
              "velocity": 83,
              "position": 4.0,
              "duration": 0.841667
            },
            {
              "pitch": 43,
              "velocity": 90,
              "position": 5.0,
              "duration": 0.933333
            },
            {
              "pitch": 48,
              "velocity": 82,
              "position": 5.0,
              "duration": 0.95
            },
            {
              "pitch": 59,
              "velocity": 90,
              "position": 5.0,
              "duration": 0.758333
            },
            {
              "pitch": 64,
              "velocity": 90,
              "position": 5.0,
              "duration": 0.733333
            },
            {
              "pitch": 67,
              "velocity": 90,
              "position": 5.0,
              "duration": 0.691667
            },
            {
              "pitch": 59,
              "velocity": 49,
              "position": 5.8,
              "duration": 0.158333
            },
            {
              "pitch": 43,
              "velocity": 90,
              "position": 6.0,
              "duration": 0.85
            },
            {
              "pitch": 48,
              "velocity": 58,
              "position": 6.0,
              "duration": 0.808333
            },
            {
              "pitch": 59,
              "velocity": 75,
              "position": 6.0,
              "duration": 0.85
            },
            {
              "pitch": 64,
              "velocity": 56,
              "position": 6.0,
              "duration": 0.883333
            },
            {
              "pitch": 67,
              "velocity": 51,
              "position": 6.0,
              "duration": 0.825
            },
            {
              "pitch": 43,
              "velocity": 90,
              "position": 7.0,
              "duration": 0.891667
            },
            {
              "pitch": 48,
              "velocity": 84,
              "position": 7.0,
              "duration": 0.9
            },
            {
              "pitch": 59,
              "velocity": 89,
              "position": 7.0,
              "duration": 0.908333
            },
            {
              "pitch": 64,
              "velocity": 75,
              "position": 7.0,
              "duration": 0.9
            },
            {
              "pitch": 67,
              "velocity": 83,
              "position": 7.0,
              "duration": 0.916667
            },
            {
              "pitch": 43,
              "velocity": 90,
              "position": 8.0,
              "duration": 0.85
            },
            {
              "pitch": 48,
              "velocity": 58,
              "position": 8.0,
              "duration": 0.808333
            },
            {
              "pitch": 59,
              "velocity": 75,
              "position": 8.0,
              "duration": 0.85
            },
            {
              "pitch": 64,
              "velocity": 56,
              "position": 8.0,
              "duration": 0.883333
            },
            {
              "pitch": 67,
              "velocity": 51,
              "position": 8.0,
              "duration": 0.825
            },
            {
              "pitch": 43,
              "velocity": 90,
              "position": 9.0,
              "duration": 0.891667
            },
            {
              "pitch": 48,
              "velocity": 84,
              "position": 9.0,
              "duration": 0.9
            },
            {
              "pitch": 59,
              "velocity": 89,
              "position": 9.0,
              "duration": 0.908333
            },
            {
              "pitch": 64,
              "velocity": 75,
              "position": 9.0,
              "duration": 0.9
            },
            {
              "pitch": 67,
              "velocity": 83,
              "position": 9.0,
              "duration": 0.916667
            },
            {
              "pitch": 43,
              "velocity": 90,
              "position": 10.0,
              "duration": 0.891667
            },
            {
              "pitch": 48,
              "velocity": 77,
              "position": 10.0,
              "duration": 0.9
            },
            {
              "pitch": 59,
              "velocity": 79,
              "position": 10.0,
              "duration": 0.258333
            },
            {
              "pitch": 64,
              "velocity": 66,
              "position": 10.0,
              "duration": 0.225
            },
            {
              "pitch": 67,
              "velocity": 63,
              "position": 10.0,
              "duration": 0.2
            },
            {
              "pitch": 59,
              "velocity": 69,
              "position": 10.3,
              "duration": 0.466667
            },
            {
              "pitch": 64,
              "velocity": 68,
              "position": 10.3,
              "duration": 0.425
            },
            {
              "pitch": 67,
              "velocity": 69,
              "position": 10.3,
              "duration": 0.433333
            },
            {
              "pitch": 59,
              "velocity": 58,
              "position": 10.8,
              "duration": 0.175
            },
            {
              "pitch": 64,
              "velocity": 56,
              "position": 10.8,
              "duration": 0.2
            },
            {
              "pitch": 67,
              "velocity": 45,
              "position": 10.8,
              "duration": 0.2
            },
            {
              "pitch": 43,
              "velocity": 65,
              "position": 11.0,
              "duration": 0.858333
            },
            {
              "pitch": 48,
              "velocity": 83,
              "position": 11.0,
              "duration": 0.833333
            },
            {
              "pitch": 59,
              "velocity": 90,
              "position": 11.0,
              "duration": 0.875
            },
            {
              "pitch": 64,
              "velocity": 87,
              "position": 11.0,
              "duration": 0.808333
            },
            {
              "pitch": 67,
              "velocity": 90,
              "position": 11.0,
              "duration": 0.791667
            },
            {
              "pitch": 43,
              "velocity": 90,
              "position": 12.0,
              "duration": 1.308333
            },
            {
              "pitch": 48,
              "velocity": 88,
              "position": 12.0,
              "duration": 1.233333
            },
            {
              "pitch": 59,
              "velocity": 83,
              "position": 12.0,
              "duration": 0.691667
            },
            {
              "pitch": 64,
              "velocity": 77,
              "position": 12.0,
              "duration": 0.233333
            },
            {
              "pitch": 67,
              "velocity": 72,
              "position": 12.0,
              "duration": 0.216667
            },
            {
              "pitch": 64,
              "velocity": 51,
              "position": 12.3,
              "duration": 0.416667
            },
            {
              "pitch": 67,
              "velocity": 69,
              "position": 12.3,
              "duration": 0.416667
            },
            {
              "pitch": 59,
              "velocity": 84,
              "position": 12.8,
              "duration": 0.441667
            },
            {
              "pitch": 64,
              "velocity": 76,
              "position": 12.8,
              "duration": 0.641667
            },
            {
              "pitch": 67,
              "velocity": 90,
              "position": 12.8,
              "duration": 0.425
            },
            {
              "pitch": 59,
              "velocity": 45,
              "position": 13.3,
              "duration": 0.175
            },
            {
              "pitch": 67,
              "velocity": 49,
              "position": 13.3,
              "duration": 0.2
            },
            {
              "pitch": 43,
              "velocity": 90,
              "position": 13.5,
              "duration": 0.725
            },
            {
              "pitch": 48,
              "velocity": 89,
              "position": 13.5,
              "duration": 0.716667
            },
            {
              "pitch": 59,
              "velocity": 80,
              "position": 13.5,
              "duration": 0.666667
            },
            {
              "pitch": 64,
              "velocity": 61,
              "position": 13.5,
              "duration": 0.666667
            },
            {
              "pitch": 67,
              "velocity": 47,
              "position": 13.5,
              "duration": 0.65
            },
            {
              "pitch": 43,
              "velocity": 76,
              "position": 14.3,
              "duration": 1.05
            },
            {
              "pitch": 48,
              "velocity": 80,
              "position": 14.3,
              "duration": 0.925
            },
            {
              "pitch": 59,
              "velocity": 84,
              "position": 14.3,
              "duration": 0.458333
            },
            {
              "pitch": 64,
              "velocity": 84,
              "position": 14.3,
              "duration": 0.475
            },
            {
              "pitch": 67,
              "velocity": 90,
              "position": 14.3,
              "duration": 0.433333
            },
            {
              "pitch": 59,
              "velocity": 63,
              "position": 14.8,
              "duration": 0.441667
            },
            {
              "pitch": 64,
              "velocity": 56,
              "position": 14.8,
              "duration": 0.416667
            },
            {
              "pitch": 67,
              "velocity": 76,
              "position": 14.8,
              "duration": 0.275
            },
            {
              "pitch": 48,
              "velocity": 59,
              "position": 15.3,
              "duration": 0.625
            },
            {
              "pitch": 59,
              "velocity": 63,
              "position": 15.3,
              "duration": 0.466667
            },
            {
              "pitch": 64,
              "velocity": 45,
              "position": 15.3,
              "duration": 0.491667
            },
            {
              "pitch": 43,
              "velocity": 88,
              "position": 15.5,
              "duration": 0.45
            },
            {
              "pitch": 59,
              "velocity": 61,
              "position": 15.8,
              "duration": 0.158333
            },
            {
              "pitch": 64,
              "velocity": 56,
              "position": 15.8,
              "duration": 0.158333
            }
          ]
        },
        "13": {
          "ctab": {
            "srcChannel": 13,
            "name": "Strings",
            "accType": "PAD",
            "editable": true,
            "mutedNotes": [],
            "mutedChords": [],
            "sourceChordNote": 0,
            "sourceChordType": "Maj7",
            "ctb2Main": {
              "ntr": "ROOT_FIXED",
              "ntt": "MELODY",
              "bassOn": false,
              "noteLowLimit": 36,
              "noteHighLimit": 96,
              "chordRootUpperLimit": 127,
              "rtr": "PITCH_SHIFT"
            }
          },
          "notes": [
            {
              "pitch": 60,
              "velocity": 95,
              "position": 4.0,
              "duration": 1.958333
            },
            {
              "pitch": 64,
              "velocity": 87,
              "position": 6.033333,
              "duration": 0.191667
            },
            {
              "pitch": 67,
              "velocity": 61,
              "position": 6.058333,
              "duration": 1.158333
            },
            {
              "pitch": 64,
              "velocity": 67,
              "position": 6.258333,
              "duration": 0.983333
            },
            {
              "pitch": 48,
              "velocity": 90,
              "position": 8.0,
              "duration": 2.333333
            },
            {
              "pitch": 60,
              "velocity": 71,
              "position": 14.5,
              "duration": 0.4
            },
            {
              "pitch": 64,
              "velocity": 93,
              "position": 14.5,
              "duration": 0.166667
            },
            {
              "pitch": 64,
              "velocity": 68,
              "position": 14.75,
              "duration": 0.241667
            },
            {
              "pitch": 60,
              "velocity": 80,
              "position": 15.0,
              "duration": 0.341667
            },
            {
              "pitch": 64,
              "velocity": 90,
              "position": 15.0,
              "duration": 0.166667
            },
            {
              "pitch": 64,
              "velocity": 86,
              "position": 15.25,
              "duration": 0.275
            },
            {
              "pitch": 59,
              "velocity": 41,
              "position": 15.525,
              "duration": 0.016667
            },
            {
              "pitch": 64,
              "velocity": 93,
              "position": 15.525,
              "duration": 0.458333
            },
            {
              "pitch": 60,
              "velocity": 88,
              "position": 15.541667,
              "duration": 0.458333
            }
          ]
        }
      }
    },
    "Main_D": {
      "type": "Main_D",
      "sizeInBeats": 16,
      "channels": {
        "9": {
          "ctab": {
            "srcChannel": 9,
            "name": "Drums",
            "accType": "RHYTHM",
            "editable": false,
            "mutedNotes": [],
            "mutedChords": [],
            "sourceChordNote": 0,
            "sourceChordType": "Maj",
            "ctb2Main": {
              "ntr": "ROOT_FIXED",
              "ntt": "BYPASS",
              "bassOn": false,
              "noteLowLimit": 20,
              "noteHighLimit": 127,
              "chordRootUpperLimit": 127,
              "rtr": "RETRIGGER"
            }
          },
          "notes": [
            {
              "pitch": 36,
              "velocity": 79,
              "position": 0.0,
              "duration": 0.183333
            },
            {
              "pitch": 42,
              "velocity": 117,
              "position": 0.0,
              "duration": 0.108333
            },
            {
              "pitch": 49,
              "velocity": 86,
              "position": 0.0,
              "duration": 0.141667
            },
            {
              "pitch": 36,
              "velocity": 75,
              "position": 0.5,
              "duration": 0.216667
            },
            {
              "pitch": 42,
              "velocity": 112,
              "position": 0.5,
              "duration": 0.091667
            },
            {
              "pitch": 38,
              "velocity": 70,
              "position": 1.0,
              "duration": 0.025
            },
            {
              "pitch": 36,
              "velocity": 78,
              "position": 2.0,
              "duration": 0.191667
            },
            {
              "pitch": 42,
              "velocity": 92,
              "position": 2.0,
              "duration": 0.108333
            },
            {
              "pitch": 36,
              "velocity": 73,
              "position": 2.5,
              "duration": 0.266667
            },
            {
              "pitch": 42,
              "velocity": 109,
              "position": 2.5,
              "duration": 0.091667
            },
            {
              "pitch": 38,
              "velocity": 77,
              "position": 3.0,
              "duration": 0.141667
            },
            {
              "pitch": 36,
              "velocity": 72,
              "position": 4.0,
              "duration": 0.225
            },
            {
              "pitch": 36,
              "velocity": 81,
              "position": 4.5,
              "duration": 0.141667
            },
            {
              "pitch": 42,
              "velocity": 99,
              "position": 4.5,
              "duration": 0.133333
            },
            {
              "pitch": 38,
              "velocity": 81,
              "position": 5.0,
              "duration": 0.166667
            },
            {
              "pitch": 42,
              "velocity": 83,
              "position": 5.5,
              "duration": 0.133333
            },
            {
              "pitch": 36,
              "velocity": 76,
              "position": 6.0,
              "duration": 0.191667
            },
            {
              "pitch": 36,
              "velocity": 74,
              "position": 6.5,
              "duration": 0.225
            },
            {
              "pitch": 42,
              "velocity": 92,
              "position": 6.5,
              "duration": 0.1
            },
            {
              "pitch": 38,
              "velocity": 93,
              "position": 7.0,
              "duration": 0.125
            },
            {
              "pitch": 42,
              "velocity": 93,
              "position": 7.5,
              "duration": 0.083333
            },
            {
              "pitch": 36,
              "velocity": 82,
              "position": 8.0,
              "duration": 0.216667
            },
            {
              "pitch": 42,
              "velocity": 116,
              "position": 8.0,
              "duration": 0.091667
            },
            {
              "pitch": 36,
              "velocity": 79,
              "position": 8.5,
              "duration": 0.441667
            },
            {
              "pitch": 42,
              "velocity": 115,
              "position": 8.5,
              "duration": 0.091667
            },
            {
              "pitch": 38,
              "velocity": 80,
              "position": 9.0,
              "duration": 0.166667
            },
            {
              "pitch": 36,
              "velocity": 65,
              "position": 10.0,
              "duration": 0.216667
            },
            {
              "pitch": 42,
              "velocity": 95,
              "position": 10.0,
              "duration": 0.108333
            },
            {
              "pitch": 36,
              "velocity": 75,
              "position": 10.5,
              "duration": 0.3
            },
            {
              "pitch": 42,
              "velocity": 87,
              "position": 10.5,
              "duration": 0.116667
            },
            {
              "pitch": 38,
              "velocity": 85,
              "position": 11.0,
              "duration": 0.116667
            },
            {
              "pitch": 46,
              "velocity": 70,
              "position": 11.5,
              "duration": 0.408333
            },
            {
              "pitch": 36,
              "velocity": 86,
              "position": 12.0,
              "duration": 0.191667
            },
            {
              "pitch": 42,
              "velocity": 99,
              "position": 12.0,
              "duration": 0.108333
            },
            {
              "pitch": 49,
              "velocity": 89,
              "position": 12.0,
              "duration": 0.191667
            },
            {
              "pitch": 36,
              "velocity": 82,
              "position": 12.5,
              "duration": 0.283333
            },
            {
              "pitch": 42,
              "velocity": 89,
              "position": 12.5,
              "duration": 0.075
            },
            {
              "pitch": 38,
              "velocity": 84,
              "position": 13.0,
              "duration": 0.15
            },
            {
              "pitch": 42,
              "velocity": 96,
              "position": 13.8,
              "duration": 0.116667
            },
            {
              "pitch": 36,
              "velocity": 80,
              "position": 14.0,
              "duration": 0.166667
            },
            {
              "pitch": 42,
              "velocity": 92,
              "position": 14.0,
              "duration": 0.158333
            },
            {
              "pitch": 36,
              "velocity": 75,
              "position": 14.5,
              "duration": 0.3
            },
            {
              "pitch": 42,
              "velocity": 117,
              "position": 14.5,
              "duration": 0.125
            },
            {
              "pitch": 38,
              "velocity": 83,
              "position": 15.0,
              "duration": 0.225
            }
          ]
        },
        "10": {
          "ctab": {
            "srcChannel": 10,
            "name": "Bass",
            "accType": "BASS",
            "editable": true,
            "mutedNotes": [],
            "mutedChords": [],
            "sourceChordNote": 0,
            "sourceChordType": "Maj7",
            "ctb2Main": {
              "ntr": "ROOT_TRANSPOSITION",
              "ntt": "BYPASS",
              "bassOn": true,
              "noteLowLimit": 20,
              "noteHighLimit": 60,
              "chordRootUpperLimit": 127,
              "rtr": "NOTE_GENERATOR"
            }
          },
          "notes": [
            {
              "pitch": 36,
              "velocity": 92,
              "position": 0.0,
              "duration": 0.216667
            },
            {
              "pitch": 36,
              "velocity": 102,
              "position": 0.5,
              "duration": 1.066667
            },
            {
              "pitch": 36,
              "velocity": 93,
              "position": 1.75,
              "duration": 0.225
            },
            {
              "pitch": 36,
              "velocity": 105,
              "position": 2.008333,
              "duration": 0.183333
            },
            {
              "pitch": 36,
              "velocity": 105,
              "position": 2.508333,
              "duration": 1.166667
            },
            {
              "pitch": 35,
              "velocity": 81,
              "position": 3.783333,
              "duration": 0.216667
            },
            {
              "pitch": 36,
              "velocity": 96,
              "position": 4.008333,
              "duration": 1.516667
            },
            {
              "pitch": 36,
              "velocity": 99,
              "position": 5.75,
              "duration": 0.2
            },
            {
              "pitch": 36,
              "velocity": 79,
              "position": 6.008333,
              "duration": 0.241667
            },
            {
              "pitch": 36,
              "velocity": 96,
              "position": 6.516667,
              "duration": 1.35
            },
            {
              "pitch": 36,
              "velocity": 103,
              "position": 8.008333,
              "duration": 0.183333
            },
            {
              "pitch": 36,
              "velocity": 96,
              "position": 8.5,
              "duration": 1.233333
            },
            {
              "pitch": 36,
              "velocity": 94,
              "position": 10.0,
              "duration": 0.216667
            },
            {
              "pitch": 36,
              "velocity": 101,
              "position": 10.508333,
              "duration": 1.216667
            },
            {
              "pitch": 36,
              "velocity": 96,
              "position": 12.0,
              "duration": 0.608333
            },
            {
              "pitch": 36,
              "velocity": 99,
              "position": 12.766667,
              "duration": 0.55
            },
            {
              "pitch": 36,
              "velocity": 103,
              "position": 13.5,
              "duration": 1.716667
            },
            {
              "pitch": 36,
              "velocity": 98,
              "position": 15.5,
              "duration": 0.258333
            },
            {
              "pitch": 31,
              "velocity": 93,
              "position": 15.758333,
              "duration": 0.241667
            }
          ]
        },
        "11": {
          "ctab": {
            "srcChannel": 11,
            "name": "Piano",
            "accType": "CHORD1",
            "editable": true,
            "mutedNotes": [],
            "mutedChords": [],
            "sourceChordNote": 0,
            "sourceChordType": "Maj7",
            "ctb2Main": {
              "ntr": "ROOT_FIXED",
              "ntt": "CHORD",
              "bassOn": false,
              "noteLowLimit": 48,
              "noteHighLimit": 84,
              "chordRootUpperLimit": 127,
              "rtr": "NOTE_GENERATOR"
            }
          },
          "notes": [
            {
              "pitch": 48,
              "velocity": 41,
              "position": 0.0,
              "duration": 1.958333
            },
            {
              "pitch": 60,
              "velocity": 59,
              "position": 0.5,
              "duration": 0.558333
            },
            {
              "pitch": 55,
              "velocity": 41,
              "position": 0.8,
              "duration": 0.558333
            },
            {
              "pitch": 59,
              "velocity": 41,
              "position": 1.0,
              "duration": 0.591667
            },
            {
              "pitch": 60,
              "velocity": 56,
              "position": 1.3,
              "duration": 0.508333
            },
            {
              "pitch": 55,
              "velocity": 41,
              "position": 1.5,
              "duration": 0.458333
            },
            {
              "pitch": 59,
              "velocity": 41,
              "position": 1.8,
              "duration": 0.158333
            },
            {
              "pitch": 48,
              "velocity": 41,
              "position": 2.0,
              "duration": 1.35
            },
            {
              "pitch": 64,
              "velocity": 69,
              "position": 2.5,
              "duration": 0.708333
            },
            {
              "pitch": 55,
              "velocity": 41,
              "position": 2.8,
              "duration": 0.616667
            },
            {
              "pitch": 59,
              "velocity": 43,
              "position": 3.0,
              "duration": 0.625
            },
            {
              "pitch": 64,
              "velocity": 51,
              "position": 3.3,
              "duration": 0.566667
            },
            {
              "pitch": 55,
              "velocity": 41,
              "position": 3.5,
              "duration": 0.458333
            },
            {
              "pitch": 59,
              "velocity": 41,
              "position": 3.8,
              "duration": 0.158333
            },
            {
              "pitch": 48,
              "velocity": 41,
              "position": 4.0,
              "duration": 1.308333
            },
            {
              "pitch": 64,
              "velocity": 62,
              "position": 4.5,
              "duration": 0.608333
            },
            {
              "pitch": 55,
              "velocity": 41,
              "position": 4.8,
              "duration": 0.608333
            },
            {
              "pitch": 60,
              "velocity": 41,
              "position": 5.0,
              "duration": 0.608333
            },
            {
              "pitch": 64,
              "velocity": 59,
              "position": 5.3,
              "duration": 0.558333
            },
            {
              "pitch": 55,
              "velocity": 41,
              "position": 5.5,
              "duration": 0.458333
            },
            {
              "pitch": 60,
              "velocity": 41,
              "position": 5.8,
              "duration": 0.158333
            },
            {
              "pitch": 48,
              "velocity": 41,
              "position": 6.0,
              "duration": 0.916667
            },
            {
              "pitch": 64,
              "velocity": 68,
              "position": 6.5,
              "duration": 0.65
            },
            {
              "pitch": 55,
              "velocity": 41,
              "position": 6.8,
              "duration": 0.583333
            },
            {
              "pitch": 60,
              "velocity": 41,
              "position": 7.0,
              "duration": 0.641667
            },
            {
              "pitch": 64,
              "velocity": 59,
              "position": 7.3,
              "duration": 0.616667
            },
            {
              "pitch": 55,
              "velocity": 42,
              "position": 7.5,
              "duration": 0.458333
            },
            {
              "pitch": 60,
              "velocity": 41,
              "position": 7.8,
              "duration": 0.158333
            },
            {
              "pitch": 48,
              "velocity": 41,
              "position": 8.0,
              "duration": 0.766667
            },
            {
              "pitch": 60,
              "velocity": 75,
              "position": 8.5,
              "duration": 0.616667
            },
            {
              "pitch": 55,
              "velocity": 41,
              "position": 8.8,
              "duration": 0.583333
            },
            {
              "pitch": 59,
              "velocity": 41,
              "position": 9.0,
              "duration": 0.608333
            },
            {
              "pitch": 60,
              "velocity": 58,
              "position": 9.3,
              "duration": 0.558333
            },
            {
              "pitch": 55,
              "velocity": 41,
              "position": 9.5,
              "duration": 0.733333
            },
            {
              "pitch": 59,
              "velocity": 41,
              "position": 9.8,
              "duration": 0.416667
            },
            {
              "pitch": 60,
              "velocity": 44,
              "position": 10.0,
              "duration": 0.641667
            },
            {
              "pitch": 55,
              "velocity": 41,
              "position": 10.3,
              "duration": 0.441667
            },
            {
              "pitch": 59,
              "velocity": 41,
              "position": 10.5,
              "duration": 0.633333
            },
            {
              "pitch": 60,
              "velocity": 55,
              "position": 10.8,
              "duration": 0.933333
            },
            {
              "pitch": 67,
              "velocity": 41,
              "position": 11.0,
              "duration": 0.258333
            },
            {
              "pitch": 59,
              "velocity": 42,
              "position": 11.3,
              "duration": 0.341667
            },
            {
              "pitch": 55,
              "velocity": 41,
              "position": 11.5,
              "duration": 0.441667
            },
            {
              "pitch": 59,
              "velocity": 41,
              "position": 11.8,
              "duration": 0.191667
            },
            {
              "pitch": 60,
              "velocity": 52,
              "position": 12.0,
              "duration": 0.733333
            },
            {
              "pitch": 55,
              "velocity": 41,
              "position": 12.3,
              "duration": 1.641667
            },
            {
              "pitch": 59,
              "velocity": 41,
              "position": 12.5,
              "duration": 0.975
            },
            {
              "pitch": 60,
              "velocity": 46,
              "position": 12.8,
              "duration": 0.675
            },
            {
              "pitch": 67,
              "velocity": 41,
              "position": 13.0,
              "duration": 0.25
            },
            {
              "pitch": 48,
              "velocity": 41,
              "position": 13.5,
              "duration": 1.85
            },
            {
              "pitch": 59,
              "velocity": 42,
              "position": 13.5,
              "duration": 0.583333
            },
            {
              "pitch": 60,
              "velocity": 67,
              "position": 13.5,
              "duration": 0.858333
            },
            {
              "pitch": 67,
              "velocity": 42,
              "position": 14.0,
              "duration": 0.258333
            },
            {
              "pitch": 59,
              "velocity": 41,
              "position": 14.3,
              "duration": 0.941667
            },
            {
              "pitch": 60,
              "velocity": 47,
              "position": 14.5,
              "duration": 0.408333
            },
            {
              "pitch": 67,
              "velocity": 44,
              "position": 14.8,
              "duration": 0.258333
            },
            {
              "pitch": 60,
              "velocity": 57,
              "position": 15.0,
              "duration": 0.658333
            },
            {
              "pitch": 59,
              "velocity": 44,
              "position": 15.3,
              "duration": 0.225
            },
            {
              "pitch": 55,
              "velocity": 55,
              "position": 15.5,
              "duration": 0.458333
            },
            {
              "pitch": 59,
              "velocity": 52,
              "position": 15.8,
              "duration": 0.158333
            }
          ]
        },
        "12": {
          "ctab": {
            "srcChannel": 12,
            "name": "Guitar",
            "accType": "CHORD2",
            "editable": true,
            "mutedNotes": [],
            "mutedChords": [],
            "sourceChordNote": 0,
            "sourceChordType": "Maj7",
            "ctb2Main": {
              "ntr": "ROOT_FIXED",
              "ntt": "CHORD",
              "bassOn": false,
              "noteLowLimit": 40,
              "noteHighLimit": 76,
              "chordRootUpperLimit": 127,
              "rtr": "NOTE_GENERATOR"
            }
          },
          "notes": [
            {
              "pitch": 43,
              "velocity": 77,
              "position": 0.0,
              "duration": 0.858333
            },
            {
              "pitch": 48,
              "velocity": 57,
              "position": 0.0,
              "duration": 0.85
            },
            {
              "pitch": 59,
              "velocity": 65,
              "position": 0.0,
              "duration": 0.875
            },
            {
              "pitch": 43,
              "velocity": 90,
              "position": 1.0,
              "duration": 0.958333
            },
            {
              "pitch": 48,
              "velocity": 89,
              "position": 1.0,
              "duration": 0.958333
            },
            {
              "pitch": 59,
              "velocity": 90,
              "position": 1.0,
              "duration": 0.791667
            },
            {
              "pitch": 64,
              "velocity": 90,
              "position": 1.0,
              "duration": 0.75
            },
            {
              "pitch": 67,
              "velocity": 72,
              "position": 1.0,
              "duration": 0.733333
            },
            {
              "pitch": 59,
              "velocity": 56,
              "position": 1.8,
              "duration": 0.158333
            },
            {
              "pitch": 64,
              "velocity": 61,
              "position": 1.8,
              "duration": 0.158333
            },
            {
              "pitch": 43,
              "velocity": 90,
              "position": 2.0,
              "duration": 0.85
            },
            {
              "pitch": 48,
              "velocity": 66,
              "position": 2.0,
              "duration": 0.858333
            },
            {
              "pitch": 59,
              "velocity": 89,
              "position": 2.0,
              "duration": 0.875
            },
            {
              "pitch": 64,
              "velocity": 67,
              "position": 2.0,
              "duration": 0.875
            },
            {
              "pitch": 43,
              "velocity": 90,
              "position": 3.0,
              "duration": 0.875
            },
            {
              "pitch": 48,
              "velocity": 88,
              "position": 3.0,
              "duration": 0.85
            },
            {
              "pitch": 59,
              "velocity": 90,
              "position": 3.0,
              "duration": 0.7
            },
            {
              "pitch": 64,
              "velocity": 88,
              "position": 3.0,
              "duration": 0.7
            },
            {
              "pitch": 67,
              "velocity": 90,
              "position": 3.0,
              "duration": 0.666667
            },
            {
              "pitch": 59,
              "velocity": 53,
              "position": 3.8,
              "duration": 0.158333
            },
            {
              "pitch": 60,
              "velocity": 49,
              "position": 3.8,
              "duration": 0.158333
            },
            {
              "pitch": 64,
              "velocity": 65,
              "position": 3.8,
              "duration": 0.158333
            },
            {
              "pitch": 43,
              "velocity": 82,
              "position": 4.0,
              "duration": 1.75
            },
            {
              "pitch": 48,
              "velocity": 87,
              "position": 4.0,
              "duration": 1.758333
            },
            {
              "pitch": 59,
              "velocity": 90,
              "position": 4.0,
              "duration": 0.841667
            },
            {
              "pitch": 64,
              "velocity": 87,
              "position": 4.0,
              "duration": 0.85
            },
            {
              "pitch": 67,
              "velocity": 90,
              "position": 4.0,
              "duration": 0.816667
            },
            {
              "pitch": 59,
              "velocity": 90,
              "position": 5.0,
              "duration": 0.733333
            },
            {
              "pitch": 64,
              "velocity": 90,
              "position": 5.0,
              "duration": 0.666667
            },
            {
              "pitch": 67,
              "velocity": 90,
              "position": 5.0,
              "duration": 0.675
            },
            {
              "pitch": 59,
              "velocity": 59,
              "position": 5.8,
              "duration": 0.158333
            },
            {
              "pitch": 64,
              "velocity": 71,
              "position": 5.8,
              "duration": 0.158333
            },
            {
              "pitch": 67,
              "velocity": 90,
              "position": 5.8,
              "duration": 0.158333
            },
            {
              "pitch": 43,
              "velocity": 82,
              "position": 6.0,
              "duration": 1.75
            },
            {
              "pitch": 48,
              "velocity": 87,
              "position": 6.0,
              "duration": 1.758333
            },
            {
              "pitch": 59,
              "velocity": 90,
              "position": 6.0,
              "duration": 0.841667
            },
            {
              "pitch": 64,
              "velocity": 87,
              "position": 6.0,
              "duration": 0.85
            },
            {
              "pitch": 67,
              "velocity": 90,
              "position": 6.0,
              "duration": 0.816667
            },
            {
              "pitch": 59,
              "velocity": 90,
              "position": 7.0,
              "duration": 0.733333
            },
            {
              "pitch": 64,
              "velocity": 90,
              "position": 7.0,
              "duration": 0.666667
            },
            {
              "pitch": 67,
              "velocity": 90,
              "position": 7.0,
              "duration": 0.675
            },
            {
              "pitch": 59,
              "velocity": 59,
              "position": 7.8,
              "duration": 0.158333
            },
            {
              "pitch": 64,
              "velocity": 71,
              "position": 7.8,
              "duration": 0.158333
            },
            {
              "pitch": 67,
              "velocity": 90,
              "position": 7.8,
              "duration": 0.158333
            },
            {
              "pitch": 43,
              "velocity": 84,
              "position": 8.0,
              "duration": 0.933333
            },
            {
              "pitch": 48,
              "velocity": 79,
              "position": 8.0,
              "duration": 0.916667
            },
            {
              "pitch": 59,
              "velocity": 77,
              "position": 8.0,
              "duration": 0.95
            },
            {
              "pitch": 64,
              "velocity": 53,
              "position": 8.0,
              "duration": 0.95
            },
            {
              "pitch": 43,
              "velocity": 90,
              "position": 9.0,
              "duration": 1.0
            },
            {
              "pitch": 48,
              "velocity": 81,
              "position": 9.0,
              "duration": 0.791667
            },
            {
              "pitch": 59,
              "velocity": 90,
              "position": 9.0,
              "duration": 0.775
            },
            {
              "pitch": 64,
              "velocity": 88,
              "position": 9.0,
              "duration": 0.766667
            },
            {
              "pitch": 67,
              "velocity": 90,
              "position": 9.0,
              "duration": 0.733333
            },
            {
              "pitch": 48,
              "velocity": 61,
              "position": 9.8,
              "duration": 0.458333
            },
            {
              "pitch": 59,
              "velocity": 78,
              "position": 9.8,
              "duration": 0.45
            },
            {
              "pitch": 64,
              "velocity": 67,
              "position": 9.8,
              "duration": 0.433333
            },
            {
              "pitch": 67,
              "velocity": 88,
              "position": 9.8,
              "duration": 0.408333
            },
            {
              "pitch": 43,
              "velocity": 83,
              "position": 10.0,
              "duration": 1.0
            },
            {
              "pitch": 48,
              "velocity": 52,
              "position": 10.3,
              "duration": 0.7
            },
            {
              "pitch": 59,
              "velocity": 65,
              "position": 10.3,
              "duration": 0.5
            },
            {
              "pitch": 64,
              "velocity": 68,
              "position": 10.3,
              "duration": 0.5
            },
            {
              "pitch": 67,
              "velocity": 84,
              "position": 10.3,
              "duration": 0.5
            },
            {
              "pitch": 59,
              "velocity": 57,
              "position": 10.8,
              "duration": 0.191667
            },
            {
              "pitch": 64,
              "velocity": 61,
              "position": 10.8,
              "duration": 1.2
            },
            {
              "pitch": 67,
              "velocity": 58,
              "position": 10.8,
              "duration": 1.233333
            },
            {
              "pitch": 43,
              "velocity": 90,
              "position": 11.0,
              "duration": 0.966667
            },
            {
              "pitch": 48,
              "velocity": 88,
              "position": 11.0,
              "duration": 1.0
            },
            {
              "pitch": 59,
              "velocity": 86,
              "position": 11.0,
              "duration": 0.966667
            },
            {
              "pitch": 43,
              "velocity": 90,
              "position": 12.0,
              "duration": 0.35
            },
            {
              "pitch": 48,
              "velocity": 87,
              "position": 12.0,
              "duration": 1.233333
            },
            {
              "pitch": 59,
              "velocity": 88,
              "position": 12.0,
              "duration": 0.65
            },
            {
              "pitch": 64,
              "velocity": 56,
              "position": 12.0,
              "duration": 0.608333
            },
            {
              "pitch": 43,
              "velocity": 90,
              "position": 12.5,
              "duration": 0.8
            },
            {
              "pitch": 59,
              "velocity": 87,
              "position": 12.8,
              "duration": 0.575
            },
            {
              "pitch": 64,
              "velocity": 90,
              "position": 12.8,
              "duration": 0.391667
            },
            {
              "pitch": 67,
              "velocity": 90,
              "position": 12.8,
              "duration": 0.383333
            },
            {
              "pitch": 43,
              "velocity": 90,
              "position": 13.5,
              "duration": 0.95
            },
            {
              "pitch": 48,
              "velocity": 90,
              "position": 13.5,
              "duration": 0.941667
            },
            {
              "pitch": 59,
              "velocity": 90,
              "position": 13.5,
              "duration": 1.208333
            },
            {
              "pitch": 64,
              "velocity": 88,
              "position": 13.5,
              "duration": 0.708333
            },
            {
              "pitch": 67,
              "velocity": 72,
              "position": 13.5,
              "duration": 0.691667
            },
            {
              "pitch": 64,
              "velocity": 70,
              "position": 14.3,
              "duration": 0.458333
            },
            {
              "pitch": 48,
              "velocity": 79,
              "position": 14.5,
              "duration": 1.316667
            },
            {
              "pitch": 59,
              "velocity": 62,
              "position": 14.8,
              "duration": 0.85
            },
            {
              "pitch": 64,
              "velocity": 69,
              "position": 14.8,
              "duration": 0.391667
            },
            {
              "pitch": 67,
              "velocity": 90,
              "position": 14.8,
              "duration": 0.391667
            },
            {
              "pitch": 64,
              "velocity": 75,
              "position": 15.3,
              "duration": 0.433333
            },
            {
              "pitch": 59,
              "velocity": 76,
              "position": 15.8,
              "duration": 0.158333
            },
            {
              "pitch": 64,
              "velocity": 74,
              "position": 15.8,
              "duration": 0.158333
            },
            {
              "pitch": 67,
              "velocity": 90,
              "position": 15.8,
              "duration": 0.158333
            }
          ]
        },
        "13": {
          "ctab": {
            "srcChannel": 13,
            "name": "Strings",
            "accType": "PAD",
            "editable": true,
            "mutedNotes": [],
            "mutedChords": [],
            "sourceChordNote": 0,
            "sourceChordType": "Maj7",
            "ctb2Main": {
              "ntr": "ROOT_FIXED",
              "ntt": "MELODY",
              "bassOn": false,
              "noteLowLimit": 36,
              "noteHighLimit": 96,
              "chordRootUpperLimit": 127,
              "rtr": "PITCH_SHIFT"
            }
          },
          "notes": [
            {
              "pitch": 60,
              "velocity": 95,
              "position": 4.0,
              "duration": 1.958333
            },
            {
              "pitch": 55,
              "velocity": 97,
              "position": 6.0,
              "duration": 0.35
            },
            {
              "pitch": 59,
              "velocity": 96,
              "position": 6.266667,
              "duration": 0.233333
            },
            {
              "pitch": 55,
              "velocity": 71,
              "position": 6.5,
              "duration": 0.316667
            },
            {
              "pitch": 48,
              "velocity": 71,
              "position": 6.75,
              "duration": 0.241667
            },
            {
              "pitch": 52,
              "velocity": 87,
              "position": 6.991667,
              "duration": 0.266667
            },
            {
              "pitch": 55,
              "velocity": 83,
              "position": 7.266667,
              "duration": 0.4
            },
            {
              "pitch": 48,
              "velocity": 56,
              "position": 8.025,
              "duration": 3.233333
            },
            {
              "pitch": 52,
              "velocity": 88,
              "position": 14.025,
              "duration": 0.266667
            },
            {
              "pitch": 52,
              "velocity": 81,
              "position": 14.291667,
              "duration": 0.241667
            },
            {
              "pitch": 55,
              "velocity": 95,
              "position": 14.533333,
              "duration": 0.466667
            },
            {
              "pitch": 52,
              "velocity": 88,
              "position": 14.775,
              "duration": 0.225
            },
            {
              "pitch": 52,
              "velocity": 90,
              "position": 15.025,
              "duration": 0.225
            },
            {
              "pitch": 55,
              "velocity": 95,
              "position": 15.275,
              "duration": 0.191667
            },
            {
              "pitch": 52,
              "velocity": 86,
              "position": 15.525,
              "duration": 0.233333
            },
            {
              "pitch": 52,
              "velocity": 80,
              "position": 15.775,
              "duration": 0.2
            }
          ]
        }
      }
    },
    "Fill_In_AA": {
      "type": "Fill_In_AA",
      "sizeInBeats": 16,
      "channels": {
        "9": {
          "ctab": {
            "srcChannel": 9,
            "name": "Drums",
            "accType": "RHYTHM",
            "editable": false,
            "mutedNotes": [],
            "mutedChords": [],
            "sourceChordNote": 0,
            "sourceChordType": "Maj",
            "ctb2Main": {
              "ntr": "ROOT_FIXED",
              "ntt": "BYPASS",
              "bassOn": false,
              "noteLowLimit": 20,
              "noteHighLimit": 127,
              "chordRootUpperLimit": 127,
              "rtr": "RETRIGGER"
            }
          },
          "notes": [
            {
              "pitch": 36,
              "velocity": 82,
              "position": 0.0,
              "duration": 0.583333
            },
            {
              "pitch": 49,
              "velocity": 86,
              "position": 0.0,
              "duration": 0.441667
            },
            {
              "pitch": 38,
              "velocity": 70,
              "position": 1.0,
              "duration": 0.225
            },
            {
              "pitch": 36,
              "velocity": 66,
              "position": 2.0,
              "duration": 0.233333
            },
            {
              "pitch": 42,
              "velocity": 77,
              "position": 2.0,
              "duration": 0.183333
            },
            {
              "pitch": 36,
              "velocity": 68,
              "position": 2.5,
              "duration": 0.258333
            },
            {
              "pitch": 42,
              "velocity": 87,
              "position": 2.5,
              "duration": 0.133333
            },
            {
              "pitch": 38,
              "velocity": 68,
              "position": 3.0,
              "duration": 0.116667
            },
            {
              "pitch": 36,
              "velocity": 77,
              "position": 4.0,
              "duration": 0.175
            },
            {
              "pitch": 42,
              "velocity": 87,
              "position": 4.0,
              "duration": 0.258333
            },
            {
              "pitch": 36,
              "velocity": 79,
              "position": 4.5,
              "duration": 0.408333
            },
            {
              "pitch": 42,
              "velocity": 103,
              "position": 4.5,
              "duration": 0.125
            },
            {
              "pitch": 38,
              "velocity": 86,
              "position": 5.0,
              "duration": 0.191667
            },
            {
              "pitch": 36,
              "velocity": 76,
              "position": 6.0,
              "duration": 0.166667
            },
            {
              "pitch": 42,
              "velocity": 72,
              "position": 6.0,
              "duration": 0.15
            },
            {
              "pitch": 36,
              "velocity": 77,
              "position": 6.5,
              "duration": 0.241667
            },
            {
              "pitch": 42,
              "velocity": 77,
              "position": 6.5,
              "duration": 0.116667
            },
            {
              "pitch": 38,
              "velocity": 82,
              "position": 7.0,
              "duration": 0.133333
            },
            {
              "pitch": 46,
              "velocity": 72,
              "position": 7.5,
              "duration": 0.275
            },
            {
              "pitch": 36,
              "velocity": 82,
              "position": 8.0,
              "duration": 0.216667
            },
            {
              "pitch": 42,
              "velocity": 116,
              "position": 8.0,
              "duration": 0.091667
            },
            {
              "pitch": 36,
              "velocity": 79,
              "position": 8.5,
              "duration": 0.441667
            },
            {
              "pitch": 42,
              "velocity": 115,
              "position": 8.5,
              "duration": 0.091667
            },
            {
              "pitch": 38,
              "velocity": 80,
              "position": 9.0,
              "duration": 0.166667
            },
            {
              "pitch": 36,
              "velocity": 65,
              "position": 10.0,
              "duration": 0.216667
            },
            {
              "pitch": 42,
              "velocity": 95,
              "position": 10.0,
              "duration": 0.108333
            },
            {
              "pitch": 36,
              "velocity": 75,
              "position": 10.5,
              "duration": 0.3
            },
            {
              "pitch": 42,
              "velocity": 87,
              "position": 10.5,
              "duration": 0.116667
            },
            {
              "pitch": 38,
              "velocity": 85,
              "position": 11.0,
              "duration": 0.116667
            },
            {
              "pitch": 46,
              "velocity": 70,
              "position": 11.5,
              "duration": 0.408333
            },
            {
              "pitch": 36,
              "velocity": 86,
              "position": 12.0,
              "duration": 0.191667
            },
            {
              "pitch": 42,
              "velocity": 99,
              "position": 12.0,
              "duration": 0.108333
            },
            {
              "pitch": 49,
              "velocity": 89,
              "position": 12.0,
              "duration": 0.191667
            },
            {
              "pitch": 36,
              "velocity": 82,
              "position": 12.5,
              "duration": 0.283333
            },
            {
              "pitch": 42,
              "velocity": 89,
              "position": 12.5,
              "duration": 0.075
            },
            {
              "pitch": 38,
              "velocity": 84,
              "position": 13.0,
              "duration": 0.15
            },
            {
              "pitch": 42,
              "velocity": 96,
              "position": 13.8,
              "duration": 0.116667
            },
            {
              "pitch": 36,
              "velocity": 80,
              "position": 14.0,
              "duration": 0.166667
            },
            {
              "pitch": 42,
              "velocity": 92,
              "position": 14.0,
              "duration": 0.158333
            },
            {
              "pitch": 36,
              "velocity": 75,
              "position": 14.5,
              "duration": 0.3
            },
            {
              "pitch": 42,
              "velocity": 117,
              "position": 14.5,
              "duration": 0.125
            },
            {
              "pitch": 38,
              "velocity": 83,
              "position": 15.0,
              "duration": 0.225
            }
          ]
        },
        "10": {
          "ctab": {
            "srcChannel": 10,
            "name": "Bass",
            "accType": "BASS",
            "editable": true,
            "mutedNotes": [],
            "mutedChords": [],
            "sourceChordNote": 0,
            "sourceChordType": "Maj7",
            "ctb2Main": {
              "ntr": "ROOT_TRANSPOSITION",
              "ntt": "BYPASS",
              "bassOn": true,
              "noteLowLimit": 20,
              "noteHighLimit": 60,
              "chordRootUpperLimit": 127,
              "rtr": "NOTE_GENERATOR"
            }
          },
          "notes": [
            {
              "pitch": 36,
              "velocity": 105,
              "position": 0.008333,
              "duration": 0.183333
            },
            {
              "pitch": 36,
              "velocity": 105,
              "position": 0.508333,
              "duration": 1.166667
            },
            {
              "pitch": 35,
              "velocity": 81,
              "position": 1.783333,
              "duration": 0.216667
            },
            {
              "pitch": 36,
              "velocity": 96,
              "position": 2.008333,
              "duration": 1.516667
            },
            {
              "pitch": 36,
              "velocity": 99,
              "position": 3.75,
              "duration": 0.2
            },
            {
              "pitch": 36,
              "velocity": 92,
              "position": 4.0,
              "duration": 0.216667
            },
            {
              "pitch": 36,
              "velocity": 102,
              "position": 4.5,
              "duration": 1.066667
            },
            {
              "pitch": 36,
              "velocity": 93,
              "position": 5.75,
              "duration": 0.225
            },
            {
              "pitch": 36,
              "velocity": 99,
              "position": 6.016667,
              "duration": 0.208333
            },
            {
              "pitch": 36,
              "velocity": 83,
              "position": 6.5,
              "duration": 0.533333
            },
            {
              "pitch": 36,
              "velocity": 95,
              "position": 7.783333,
              "duration": 0.2
            },
            {
              "pitch": 36,
              "velocity": 103,
              "position": 8.008333,
              "duration": 0.183333
            },
            {
              "pitch": 36,
              "velocity": 96,
              "position": 8.5,
              "duration": 1.233333
            },
            {
              "pitch": 36,
              "velocity": 94,
              "position": 10.0,
              "duration": 0.216667
            },
            {
              "pitch": 36,
              "velocity": 101,
              "position": 10.508333,
              "duration": 1.216667
            },
            {
              "pitch": 36,
              "velocity": 96,
              "position": 12.0,
              "duration": 0.608333
            },
            {
              "pitch": 36,
              "velocity": 99,
              "position": 12.766667,
              "duration": 0.55
            },
            {
              "pitch": 36,
              "velocity": 103,
              "position": 13.5,
              "duration": 1.716667
            },
            {
              "pitch": 36,
              "velocity": 98,
              "position": 15.5,
              "duration": 0.258333
            },
            {
              "pitch": 31,
              "velocity": 93,
              "position": 15.758333,
              "duration": 0.241667
            }
          ]
        },
        "11": {
          "ctab": {
            "srcChannel": 11,
            "name": "Piano",
            "accType": "CHORD1",
            "editable": true,
            "mutedNotes": [],
            "mutedChords": [],
            "sourceChordNote": 0,
            "sourceChordType": "Maj7",
            "ctb2Main": {
              "ntr": "ROOT_FIXED",
              "ntt": "CHORD",
              "bassOn": false,
              "noteLowLimit": 48,
              "noteHighLimit": 84,
              "chordRootUpperLimit": 127,
              "rtr": "NOTE_GENERATOR"
            }
          },
          "notes": [
            {
              "pitch": 48,
              "velocity": 41,
              "position": 0.0,
              "duration": 1.958333
            },
            {
              "pitch": 60,
              "velocity": 59,
              "position": 0.5,
              "duration": 0.558333
            },
            {
              "pitch": 55,
              "velocity": 41,
              "position": 0.8,
              "duration": 0.558333
            },
            {
              "pitch": 59,
              "velocity": 41,
              "position": 1.0,
              "duration": 0.591667
            },
            {
              "pitch": 60,
              "velocity": 56,
              "position": 1.3,
              "duration": 0.508333
            },
            {
              "pitch": 55,
              "velocity": 41,
              "position": 1.5,
              "duration": 0.458333
            },
            {
              "pitch": 59,
              "velocity": 41,
              "position": 1.8,
              "duration": 0.158333
            },
            {
              "pitch": 48,
              "velocity": 41,
              "position": 2.0,
              "duration": 1.308333
            },
            {
              "pitch": 64,
              "velocity": 62,
              "position": 2.5,
              "duration": 0.608333
            },
            {
              "pitch": 55,
              "velocity": 41,
              "position": 2.8,
              "duration": 0.608333
            },
            {
              "pitch": 60,
              "velocity": 41,
              "position": 3.0,
              "duration": 0.608333
            },
            {
              "pitch": 64,
              "velocity": 59,
              "position": 3.3,
              "duration": 0.558333
            },
            {
              "pitch": 55,
              "velocity": 41,
              "position": 3.5,
              "duration": 0.458333
            },
            {
              "pitch": 60,
              "velocity": 41,
              "position": 3.8,
              "duration": 0.158333
            },
            {
              "pitch": 48,
              "velocity": 41,
              "position": 4.0,
              "duration": 0.741667
            },
            {
              "pitch": 60,
              "velocity": 63,
              "position": 4.5,
              "duration": 0.658333
            },
            {
              "pitch": 55,
              "velocity": 43,
              "position": 4.8,
              "duration": 0.366667
            },
            {
              "pitch": 59,
              "velocity": 41,
              "position": 5.0,
              "duration": 0.65
            },
            {
              "pitch": 60,
              "velocity": 51,
              "position": 5.3,
              "duration": 0.375
            },
            {
              "pitch": 55,
              "velocity": 41,
              "position": 5.5,
              "duration": 0.458333
            },
            {
              "pitch": 60,
              "velocity": 41,
              "position": 5.8,
              "duration": 0.158333
            },
            {
              "pitch": 48,
              "velocity": 41,
              "position": 6.0,
              "duration": 1.308333
            },
            {
              "pitch": 64,
              "velocity": 62,
              "position": 6.5,
              "duration": 0.608333
            },
            {
              "pitch": 55,
              "velocity": 41,
              "position": 6.8,
              "duration": 0.608333
            },
            {
              "pitch": 60,
              "velocity": 41,
              "position": 7.0,
              "duration": 0.608333
            },
            {
              "pitch": 64,
              "velocity": 59,
              "position": 7.3,
              "duration": 0.558333
            },
            {
              "pitch": 55,
              "velocity": 41,
              "position": 7.5,
              "duration": 0.458333
            },
            {
              "pitch": 60,
              "velocity": 41,
              "position": 7.8,
              "duration": 0.158333
            },
            {
              "pitch": 48,
              "velocity": 41,
              "position": 8.0,
              "duration": 2.216667
            },
            {
              "pitch": 60,
              "velocity": 59,
              "position": 8.5,
              "duration": 0.558333
            },
            {
              "pitch": 55,
              "velocity": 41,
              "position": 8.8,
              "duration": 0.558333
            },
            {
              "pitch": 59,
              "velocity": 41,
              "position": 9.0,
              "duration": 0.591667
            },
            {
              "pitch": 60,
              "velocity": 56,
              "position": 9.3,
              "duration": 0.508333
            },
            {
              "pitch": 55,
              "velocity": 41,
              "position": 9.5,
              "duration": 0.658333
            },
            {
              "pitch": 59,
              "velocity": 41,
              "position": 9.8,
              "duration": 0.541667
            },
            {
              "pitch": 60,
              "velocity": 66,
              "position": 10.0,
              "duration": 0.583333
            },
            {
              "pitch": 55,
              "velocity": 41,
              "position": 10.3,
              "duration": 0.883333
            },
            {
              "pitch": 59,
              "velocity": 41,
              "position": 10.5,
              "duration": 0.558333
            },
            {
              "pitch": 60,
              "velocity": 53,
              "position": 10.8,
              "duration": 0.908333
            },
            {
              "pitch": 67,
              "velocity": 41,
              "position": 11.0,
              "duration": 0.258333
            },
            {
              "pitch": 59,
              "velocity": 41,
              "position": 11.3,
              "duration": 0.316667
            },
            {
              "pitch": 55,
              "velocity": 44,
              "position": 11.5,
              "duration": 0.391667
            },
            {
              "pitch": 59,
              "velocity": 41,
              "position": 11.8,
              "duration": 0.175
            },
            {
              "pitch": 60,
              "velocity": 69,
              "position": 12.0,
              "duration": 0.633333
            },
            {
              "pitch": 55,
              "velocity": 41,
              "position": 12.3,
              "duration": 1.875
            },
            {
              "pitch": 59,
              "velocity": 41,
              "position": 12.5,
              "duration": 1.433333
            },
            {
              "pitch": 60,
              "velocity": 51,
              "position": 12.8,
              "duration": 1.466667
            },
            {
              "pitch": 67,
              "velocity": 42,
              "position": 13.0,
              "duration": 0.25
            },
            {
              "pitch": 48,
              "velocity": 41,
              "position": 13.5,
              "duration": 1.825
            },
            {
              "pitch": 67,
              "velocity": 47,
              "position": 14.0,
              "duration": 0.25
            },
            {
              "pitch": 59,
              "velocity": 41,
              "position": 14.3,
              "duration": 0.833333
            },
            {
              "pitch": 60,
              "velocity": 52,
              "position": 14.5,
              "duration": 0.366667
            },
            {
              "pitch": 67,
              "velocity": 41,
              "position": 14.8,
              "duration": 0.258333
            },
            {
              "pitch": 60,
              "velocity": 47,
              "position": 15.0,
              "duration": 0.633333
            },
            {
              "pitch": 59,
              "velocity": 41,
              "position": 15.3,
              "duration": 0.45
            },
            {
              "pitch": 55,
              "velocity": 45,
              "position": 15.5,
              "duration": 0.458333
            },
            {
              "pitch": 59,
              "velocity": 44,
              "position": 15.8,
              "duration": 0.15
            }
          ]
        },
        "12": {
          "ctab": {
            "srcChannel": 12,
            "name": "Guitar",
            "accType": "CHORD2",
            "editable": true,
            "mutedNotes": [],
            "mutedChords": [],
            "sourceChordNote": 0,
            "sourceChordType": "Maj7",
            "ctb2Main": {
              "ntr": "ROOT_FIXED",
              "ntt": "CHORD",
              "bassOn": false,
              "noteLowLimit": 40,
              "noteHighLimit": 76,
              "chordRootUpperLimit": 127,
              "rtr": "NOTE_GENERATOR"
            }
          },
          "notes": [
            {
              "pitch": 43,
              "velocity": 90,
              "position": 0.0,
              "duration": 0.85
            },
            {
              "pitch": 48,
              "velocity": 66,
              "position": 0.0,
              "duration": 0.858333
            },
            {
              "pitch": 59,
              "velocity": 89,
              "position": 0.0,
              "duration": 0.875
            },
            {
              "pitch": 64,
              "velocity": 67,
              "position": 0.0,
              "duration": 0.875
            },
            {
              "pitch": 43,
              "velocity": 90,
              "position": 1.0,
              "duration": 0.875
            },
            {
              "pitch": 48,
              "velocity": 88,
              "position": 1.0,
              "duration": 0.85
            },
            {
              "pitch": 59,
              "velocity": 90,
              "position": 1.0,
              "duration": 0.7
            },
            {
              "pitch": 64,
              "velocity": 88,
              "position": 1.0,
              "duration": 0.7
            },
            {
              "pitch": 67,
              "velocity": 90,
              "position": 1.0,
              "duration": 0.666667
            },
            {
              "pitch": 59,
              "velocity": 53,
              "position": 1.8,
              "duration": 0.158333
            },
            {
              "pitch": 60,
              "velocity": 49,
              "position": 1.8,
              "duration": 0.158333
            },
            {
              "pitch": 64,
              "velocity": 65,
              "position": 1.8,
              "duration": 0.158333
            },
            {
              "pitch": 43,
              "velocity": 90,
              "position": 2.0,
              "duration": 0.85
            },
            {
              "pitch": 48,
              "velocity": 66,
              "position": 2.0,
              "duration": 0.858333
            },
            {
              "pitch": 59,
              "velocity": 89,
              "position": 2.0,
              "duration": 0.875
            },
            {
              "pitch": 64,
              "velocity": 67,
              "position": 2.0,
              "duration": 0.875
            },
            {
              "pitch": 43,
              "velocity": 90,
              "position": 3.0,
              "duration": 0.875
            },
            {
              "pitch": 48,
              "velocity": 88,
              "position": 3.0,
              "duration": 0.85
            },
            {
              "pitch": 59,
              "velocity": 90,
              "position": 3.0,
              "duration": 0.7
            },
            {
              "pitch": 64,
              "velocity": 88,
              "position": 3.0,
              "duration": 0.7
            },
            {
              "pitch": 67,
              "velocity": 90,
              "position": 3.0,
              "duration": 0.666667
            },
            {
              "pitch": 59,
              "velocity": 53,
              "position": 3.8,
              "duration": 0.158333
            },
            {
              "pitch": 60,
              "velocity": 49,
              "position": 3.8,
              "duration": 0.158333
            },
            {
              "pitch": 64,
              "velocity": 65,
              "position": 3.8,
              "duration": 0.158333
            },
            {
              "pitch": 43,
              "velocity": 90,
              "position": 4.0,
              "duration": 0.85
            },
            {
              "pitch": 48,
              "velocity": 66,
              "position": 4.0,
              "duration": 0.858333
            },
            {
              "pitch": 59,
              "velocity": 89,
              "position": 4.0,
              "duration": 0.875
            },
            {
              "pitch": 64,
              "velocity": 67,
              "position": 4.0,
              "duration": 0.875
            },
            {
              "pitch": 43,
              "velocity": 90,
              "position": 5.0,
              "duration": 0.875
            },
            {
              "pitch": 48,
              "velocity": 88,
              "position": 5.0,
              "duration": 0.85
            },
            {
              "pitch": 59,
              "velocity": 90,
              "position": 5.0,
              "duration": 0.7
            },
            {
              "pitch": 64,
              "velocity": 88,
              "position": 5.0,
              "duration": 0.7
            },
            {
              "pitch": 67,
              "velocity": 90,
              "position": 5.0,
              "duration": 0.666667
            },
            {
              "pitch": 59,
              "velocity": 53,
              "position": 5.8,
              "duration": 0.158333
            },
            {
              "pitch": 60,
              "velocity": 49,
              "position": 5.8,
              "duration": 0.158333
            },
            {
              "pitch": 64,
              "velocity": 65,
              "position": 5.8,
              "duration": 0.158333
            },
            {
              "pitch": 43,
              "velocity": 77,
              "position": 6.0,
              "duration": 0.858333
            },
            {
              "pitch": 48,
              "velocity": 57,
              "position": 6.0,
              "duration": 0.85
            },
            {
              "pitch": 59,
              "velocity": 65,
              "position": 6.0,
              "duration": 0.875
            },
            {
              "pitch": 43,
              "velocity": 90,
              "position": 7.0,
              "duration": 0.958333
            },
            {
              "pitch": 48,
              "velocity": 89,
              "position": 7.0,
              "duration": 0.958333
            },
            {
              "pitch": 59,
              "velocity": 90,
              "position": 7.0,
              "duration": 0.791667
            },
            {
              "pitch": 64,
              "velocity": 90,
              "position": 7.0,
              "duration": 0.75
            },
            {
              "pitch": 67,
              "velocity": 72,
              "position": 7.0,
              "duration": 0.733333
            },
            {
              "pitch": 59,
              "velocity": 56,
              "position": 7.8,
              "duration": 0.158333
            },
            {
              "pitch": 64,
              "velocity": 61,
              "position": 7.8,
              "duration": 0.158333
            },
            {
              "pitch": 43,
              "velocity": 90,
              "position": 8.0,
              "duration": 0.85
            },
            {
              "pitch": 48,
              "velocity": 66,
              "position": 8.0,
              "duration": 0.858333
            },
            {
              "pitch": 59,
              "velocity": 89,
              "position": 8.0,
              "duration": 0.875
            },
            {
              "pitch": 64,
              "velocity": 67,
              "position": 8.0,
              "duration": 0.875
            },
            {
              "pitch": 43,
              "velocity": 90,
              "position": 9.0,
              "duration": 0.875
            },
            {
              "pitch": 48,
              "velocity": 88,
              "position": 9.0,
              "duration": 0.85
            },
            {
              "pitch": 59,
              "velocity": 90,
              "position": 9.0,
              "duration": 0.7
            },
            {
              "pitch": 64,
              "velocity": 88,
              "position": 9.0,
              "duration": 0.7
            },
            {
              "pitch": 67,
              "velocity": 90,
              "position": 9.0,
              "duration": 0.666667
            },
            {
              "pitch": 59,
              "velocity": 53,
              "position": 9.8,
              "duration": 0.191667
            },
            {
              "pitch": 64,
              "velocity": 65,
              "position": 9.8,
              "duration": 0.425
            },
            {
              "pitch": 67,
              "velocity": 85,
              "position": 9.8,
              "duration": 0.4
            },
            {
              "pitch": 43,
              "velocity": 63,
              "position": 10.0,
              "duration": 0.85
            },
            {
              "pitch": 48,
              "velocity": 82,
              "position": 10.0,
              "duration": 0.658333
            },
            {
              "pitch": 59,
              "velocity": 61,
              "position": 10.0,
              "duration": 0.216667
            },
            {
              "pitch": 59,
              "velocity": 69,
              "position": 10.3,
              "duration": 0.4
            },
            {
              "pitch": 64,
              "velocity": 74,
              "position": 10.3,
              "duration": 0.375
            },
            {
              "pitch": 67,
              "velocity": 90,
              "position": 10.3,
              "duration": 0.633333
            },
            {
              "pitch": 48,
              "velocity": 56,
              "position": 10.8,
              "duration": 0.166667
            },
            {
              "pitch": 59,
              "velocity": 53,
              "position": 10.8,
              "duration": 0.191667
            },
            {
              "pitch": 64,
              "velocity": 45,
              "position": 10.8,
              "duration": 0.2
            },
            {
              "pitch": 43,
              "velocity": 76,
              "position": 11.0,
              "duration": 0.875
            },
            {
              "pitch": 48,
              "velocity": 87,
              "position": 11.0,
              "duration": 0.866667
            },
            {
              "pitch": 59,
              "velocity": 90,
              "position": 11.0,
              "duration": 0.883333
            },
            {
              "pitch": 64,
              "velocity": 89,
              "position": 11.0,
              "duration": 0.891667
            },
            {
              "pitch": 67,
              "velocity": 90,
              "position": 11.0,
              "duration": 0.9
            },
            {
              "pitch": 43,
              "velocity": 90,
              "position": 12.0,
              "duration": 1.3
            },
            {
              "pitch": 48,
              "velocity": 90,
              "position": 12.0,
              "duration": 0.716667
            },
            {
              "pitch": 59,
              "velocity": 90,
              "position": 12.0,
              "duration": 0.691667
            },
            {
              "pitch": 64,
              "velocity": 86,
              "position": 12.0,
              "duration": 0.183333
            },
            {
              "pitch": 67,
              "velocity": 90,
              "position": 12.0,
              "duration": 0.166667
            },
            {
              "pitch": 48,
              "velocity": 66,
              "position": 12.8,
              "duration": 0.583333
            },
            {
              "pitch": 59,
              "velocity": 77,
              "position": 12.8,
              "duration": 0.408333
            },
            {
              "pitch": 64,
              "velocity": 90,
              "position": 12.8,
              "duration": 0.383333
            },
            {
              "pitch": 67,
              "velocity": 90,
              "position": 12.8,
              "duration": 0.375
            },
            {
              "pitch": 59,
              "velocity": 63,
              "position": 13.3,
              "duration": 0.175
            },
            {
              "pitch": 64,
              "velocity": 56,
              "position": 13.3,
              "duration": 0.191667
            },
            {
              "pitch": 67,
              "velocity": 63,
              "position": 13.3,
              "duration": 0.2
            },
            {
              "pitch": 43,
              "velocity": 90,
              "position": 13.5,
              "duration": 0.916667
            },
            {
              "pitch": 48,
              "velocity": 77,
              "position": 13.5,
              "duration": 0.733333
            },
            {
              "pitch": 59,
              "velocity": 90,
              "position": 13.5,
              "duration": 0.483333
            },
            {
              "pitch": 64,
              "velocity": 90,
              "position": 13.5,
              "duration": 0.683333
            },
            {
              "pitch": 67,
              "velocity": 90,
              "position": 13.5,
              "duration": 0.666667
            },
            {
              "pitch": 59,
              "velocity": 78,
              "position": 14.0,
              "duration": 0.166667
            },
            {
              "pitch": 48,
              "velocity": 55,
              "position": 14.3,
              "duration": 0.616667
            },
            {
              "pitch": 59,
              "velocity": 77,
              "position": 14.3,
              "duration": 0.45
            },
            {
              "pitch": 64,
              "velocity": 70,
              "position": 14.3,
              "duration": 0.233333
            },
            {
              "pitch": 67,
              "velocity": 90,
              "position": 14.3,
              "duration": 0.45
            },
            {
              "pitch": 59,
              "velocity": 46,
              "position": 14.8,
              "duration": 0.183333
            },
            {
              "pitch": 67,
              "velocity": 57,
              "position": 14.8,
              "duration": 0.2
            },
            {
              "pitch": 43,
              "velocity": 81,
              "position": 15.0,
              "duration": 0.866667
            },
            {
              "pitch": 48,
              "velocity": 77,
              "position": 15.0,
              "duration": 0.858333
            },
            {
              "pitch": 59,
              "velocity": 87,
              "position": 15.0,
              "duration": 0.666667
            },
            {
              "pitch": 64,
              "velocity": 79,
              "position": 15.0,
              "duration": 0.641667
            },
            {
              "pitch": 67,
              "velocity": 67,
              "position": 15.0,
              "duration": 0.183333
            },
            {
              "pitch": 67,
              "velocity": 72,
              "position": 15.3,
              "duration": 0.391667
            },
            {
              "pitch": 59,
              "velocity": 62,
              "position": 15.8,
              "duration": 0.166667
            },
            {
              "pitch": 64,
              "velocity": 58,
              "position": 15.8,
              "duration": 0.158333
            },
            {
              "pitch": 67,
              "velocity": 82,
              "position": 15.8,
              "duration": 0.166667
            }
          ]
        },
        "13": {
          "ctab": {
            "srcChannel": 13,
            "name": "Strings",
            "accType": "PAD",
            "editable": true,
            "mutedNotes": [],
            "mutedChords": [],
            "sourceChordNote": 0,
            "sourceChordType": "Maj7",
            "ctb2Main": {
              "ntr": "ROOT_FIXED",
              "ntt": "MELODY",
              "bassOn": false,
              "noteLowLimit": 36,
              "noteHighLimit": 96,
              "chordRootUpperLimit": 127,
              "rtr": "PITCH_SHIFT"
            }
          },
          "notes": [
            {
              "pitch": 60,
              "velocity": 95,
              "position": 4.0,
              "duration": 1.958333
            },
            {
              "pitch": 52,
              "velocity": 56,
              "position": 6.533333,
              "duration": 0.291667
            },
            {
              "pitch": 43,
              "velocity": 60,
              "position": 6.816667,
              "duration": 0.2
            },
            {
              "pitch": 48,
              "velocity": 85,
              "position": 7.016667,
              "duration": 0.2
            },
            {
              "pitch": 47,
              "velocity": 88,
              "position": 7.266667,
              "duration": 0.508333
            },
            {
              "pitch": 48,
              "velocity": 54,
              "position": 7.783333,
              "duration": 0.183333
            },
            {
              "pitch": 48,
              "velocity": 77,
              "position": 8.025,
              "duration": 2.866667
            },
            {
              "pitch": 52,
              "velocity": 87,
              "position": 14.025,
              "duration": 0.241667
            },
            {
              "pitch": 52,
              "velocity": 76,
              "position": 14.275,
              "duration": 0.241667
            },
            {
              "pitch": 55,
              "velocity": 97,
              "position": 14.525,
              "duration": 0.35
            },
            {
              "pitch": 43,
              "velocity": 95,
              "position": 15.025,
              "duration": 0.316667
            },
            {
              "pitch": 45,
              "velocity": 82,
              "position": 15.341667,
              "duration": 0.15
            },
            {
              "pitch": 48,
              "velocity": 90,
              "position": 15.525,
              "duration": 0.383333
            }
          ]
        }
      }
    },
    "Ending_A": {
      "type": "Ending_A",
      "sizeInBeats": 16,
      "channels": {
        "9": {
          "ctab": {
            "srcChannel": 9,
            "name": "Drums",
            "accType": "RHYTHM",
            "editable": false,
            "mutedNotes": [],
            "mutedChords": [],
            "sourceChordNote": 0,
            "sourceChordType": "Maj",
            "ctb2Main": {
              "ntr": "ROOT_FIXED",
              "ntt": "BYPASS",
              "bassOn": false,
              "noteLowLimit": 20,
              "noteHighLimit": 127,
              "chordRootUpperLimit": 127,
              "rtr": "RETRIGGER"
            }
          },
          "notes": [
            {
              "pitch": 36,
              "velocity": 97,
              "position": 0.0,
              "duration": 0.466667
            },
            {
              "pitch": 42,
              "velocity": 95,
              "position": 0.0,
              "duration": 0.083333
            },
            {
              "pitch": 38,
              "velocity": 65,
              "position": 0.008333,
              "duration": 0.983333
            },
            {
              "pitch": 57,
              "velocity": 54,
              "position": 0.016667,
              "duration": 0.975
            },
            {
              "pitch": 38,
              "velocity": 90,
              "position": 1.0,
              "duration": 0.991667
            },
            {
              "pitch": 36,
              "velocity": 75,
              "position": 2.0,
              "duration": 0.283333
            },
            {
              "pitch": 42,
              "velocity": 109,
              "position": 2.0,
              "duration": 0.091667
            },
            {
              "pitch": 36,
              "velocity": 56,
              "position": 2.5,
              "duration": 0.341667
            },
            {
              "pitch": 38,
              "velocity": 88,
              "position": 3.0,
              "duration": 0.183333
            },
            {
              "pitch": 36,
              "velocity": 77,
              "position": 4.0,
              "duration": 0.941667
            },
            {
              "pitch": 42,
              "velocity": 87,
              "position": 4.0,
              "duration": 0.116667
            },
            {
              "pitch": 38,
              "velocity": 81,
              "position": 5.0,
              "duration": 0.133333
            },
            {
              "pitch": 42,
              "velocity": 73,
              "position": 5.5,
              "duration": 0.2
            },
            {
              "pitch": 36,
              "velocity": 66,
              "position": 6.0,
              "duration": 0.225
            },
            {
              "pitch": 42,
              "velocity": 67,
              "position": 6.0,
              "duration": 0.183333
            },
            {
              "pitch": 36,
              "velocity": 67,
              "position": 6.5,
              "duration": 0.533333
            },
            {
              "pitch": 42,
              "velocity": 74,
              "position": 6.5,
              "duration": 0.1
            },
            {
              "pitch": 38,
              "velocity": 82,
              "position": 7.0,
              "duration": 0.116667
            },
            {
              "pitch": 46,
              "velocity": 72,
              "position": 7.5,
              "duration": 0.125
            },
            {
              "pitch": 36,
              "velocity": 67,
              "position": 8.0,
              "duration": 0.158333
            },
            {
              "pitch": 42,
              "velocity": 92,
              "position": 8.0,
              "duration": 0.091667
            },
            {
              "pitch": 38,
              "velocity": 82,
              "position": 9.0,
              "duration": 0.191667
            },
            {
              "pitch": 36,
              "velocity": 65,
              "position": 10.0,
              "duration": 0.191667
            },
            {
              "pitch": 42,
              "velocity": 84,
              "position": 10.0,
              "duration": 0.133333
            },
            {
              "pitch": 36,
              "velocity": 74,
              "position": 10.5,
              "duration": 0.375
            },
            {
              "pitch": 38,
              "velocity": 90,
              "position": 11.0,
              "duration": 0.3
            },
            {
              "pitch": 36,
              "velocity": 81,
              "position": 12.0,
              "duration": 0.133333
            },
            {
              "pitch": 42,
              "velocity": 70,
              "position": 12.0,
              "duration": 0.175
            },
            {
              "pitch": 38,
              "velocity": 96,
              "position": 13.0,
              "duration": 0.125
            },
            {
              "pitch": 42,
              "velocity": 74,
              "position": 13.5,
              "duration": 0.133333
            },
            {
              "pitch": 36,
              "velocity": 80,
              "position": 14.0,
              "duration": 0.191667
            },
            {
              "pitch": 42,
              "velocity": 74,
              "position": 14.0,
              "duration": 0.15
            },
            {
              "pitch": 36,
              "velocity": 68,
              "position": 14.5,
              "duration": 0.175
            },
            {
              "pitch": 42,
              "velocity": 84,
              "position": 14.5,
              "duration": 0.1
            },
            {
              "pitch": 38,
              "velocity": 92,
              "position": 15.0,
              "duration": 0.183333
            },
            {
              "pitch": 46,
              "velocity": 77,
              "position": 15.5,
              "duration": 0.108333
            }
          ]
        },
        "10": {
          "ctab": {
            "srcChannel": 10,
            "name": "Bass",
            "accType": "BASS",
            "editable": true,
            "mutedNotes": [],
            "mutedChords": [],
            "sourceChordNote": 0,
            "sourceChordType": "Maj7",
            "ctb2Main": {
              "ntr": "ROOT_TRANSPOSITION",
              "ntt": "BYPASS",
              "bassOn": true,
              "noteLowLimit": 20,
              "noteHighLimit": 60,
              "chordRootUpperLimit": 127,
              "rtr": "NOTE_GENERATOR"
            }
          },
          "notes": [
            {
              "pitch": 36,
              "velocity": 89,
              "position": 0.0,
              "duration": 1.725
            },
            {
              "pitch": 31,
              "velocity": 65,
              "position": 1.783333,
              "duration": 0.175
            },
            {
              "pitch": 36,
              "velocity": 89,
              "position": 2.0,
              "duration": 1.725
            },
            {
              "pitch": 31,
              "velocity": 65,
              "position": 3.783333,
              "duration": 0.175
            },
            {
              "pitch": 36,
              "velocity": 89,
              "position": 4.0,
              "duration": 1.725
            },
            {
              "pitch": 31,
              "velocity": 65,
              "position": 5.783333,
              "duration": 0.175
            },
            {
              "pitch": 36,
              "velocity": 89,
              "position": 6.0,
              "duration": 1.725
            },
            {
              "pitch": 31,
              "velocity": 65,
              "position": 7.783333,
              "duration": 0.175
            },
            {
              "pitch": 36,
              "velocity": 89,
              "position": 8.0,
              "duration": 1.725
            },
            {
              "pitch": 36,
              "velocity": 98,
              "position": 10.0,
              "duration": 1.733333
            },
            {
              "pitch": 31,
              "velocity": 76,
              "position": 11.758333,
              "duration": 0.2
            },
            {
              "pitch": 36,
              "velocity": 89,
              "position": 12.0,
              "duration": 1.725
            },
            {
              "pitch": 36,
              "velocity": 98,
              "position": 14.0,
              "duration": 1.733333
            },
            {
              "pitch": 31,
              "velocity": 76,
              "position": 15.758333,
              "duration": 0.2
            }
          ]
        },
        "11": {
          "ctab": {
            "srcChannel": 11,
            "name": "Piano",
            "accType": "CHORD1",
            "editable": true,
            "mutedNotes": [],
            "mutedChords": [],
            "sourceChordNote": 0,
            "sourceChordType": "Maj7",
            "ctb2Main": {
              "ntr": "ROOT_FIXED",
              "ntt": "CHORD",
              "bassOn": false,
              "noteLowLimit": 48,
              "noteHighLimit": 84,
              "chordRootUpperLimit": 127,
              "rtr": "NOTE_GENERATOR"
            }
          },
          "notes": []
        },
        "12": {
          "ctab": {
            "srcChannel": 12,
            "name": "Guitar",
            "accType": "CHORD2",
            "editable": true,
            "mutedNotes": [],
            "mutedChords": [],
            "sourceChordNote": 0,
            "sourceChordType": "Maj7",
            "ctb2Main": {
              "ntr": "ROOT_FIXED",
              "ntt": "CHORD",
              "bassOn": false,
              "noteLowLimit": 40,
              "noteHighLimit": 76,
              "chordRootUpperLimit": 127,
              "rtr": "NOTE_GENERATOR"
            }
          },
          "notes": [
            {
              "pitch": 48,
              "velocity": 64,
              "position": 0.016667,
              "duration": 0.258333
            },
            {
              "pitch": 55,
              "velocity": 45,
              "position": 0.308333,
              "duration": 0.491667
            },
            {
              "pitch": 48,
              "velocity": 45,
              "position": 0.35,
              "duration": 0.175
            },
            {
              "pitch": 48,
              "velocity": 61,
              "position": 0.983333,
              "duration": 0.833333
            },
            {
              "pitch": 55,
              "velocity": 76,
              "position": 0.983333,
              "duration": 0.883333
            },
            {
              "pitch": 59,
              "velocity": 46,
              "position": 0.991667,
              "duration": 0.883333
            },
            {
              "pitch": 43,
              "velocity": 65,
              "position": 1.0,
              "duration": 0.758333
            },
            {
              "pitch": 48,
              "velocity": 74,
              "position": 2.0,
              "duration": 1.016667
            },
            {
              "pitch": 48,
              "velocity": 82,
              "position": 3.025,
              "duration": 0.875
            },
            {
              "pitch": 55,
              "velocity": 77,
              "position": 3.05,
              "duration": 0.908333
            },
            {
              "pitch": 59,
              "velocity": 59,
              "position": 3.066667,
              "duration": 0.891667
            },
            {
              "pitch": 60,
              "velocity": 41,
              "position": 3.083333,
              "duration": 0.616667
            },
            {
              "pitch": 60,
              "velocity": 51,
              "position": 3.758333,
              "duration": 0.2
            },
            {
              "pitch": 48,
              "velocity": 55,
              "position": 4.0,
              "duration": 0.975
            },
            {
              "pitch": 43,
              "velocity": 45,
              "position": 4.983333,
              "duration": 0.975
            },
            {
              "pitch": 48,
              "velocity": 72,
              "position": 4.983333,
              "duration": 0.983333
            },
            {
              "pitch": 55,
              "velocity": 63,
              "position": 5.008333,
              "duration": 0.95
            },
            {
              "pitch": 59,
              "velocity": 45,
              "position": 5.025,
              "duration": 0.933333
            },
            {
              "pitch": 60,
              "velocity": 45,
              "position": 5.033333,
              "duration": 0.725
            },
            {
              "pitch": 60,
              "velocity": 45,
              "position": 5.775,
              "duration": 0.183333
            },
            {
              "pitch": 48,
              "velocity": 58,
              "position": 6.041667,
              "duration": 0.725
            },
            {
              "pitch": 55,
              "velocity": 67,
              "position": 6.316667,
              "duration": 0.666667
            },
            {
              "pitch": 48,
              "velocity": 45,
              "position": 6.766667,
              "duration": 0.183333
            },
            {
              "pitch": 48,
              "velocity": 51,
              "position": 6.95,
              "duration": 0.025
            },
            {
              "pitch": 48,
              "velocity": 69,
              "position": 6.975,
              "duration": 0.975
            },
            {
              "pitch": 55,
              "velocity": 76,
              "position": 6.991667,
              "duration": 0.791667
            },
            {
              "pitch": 59,
              "velocity": 55,
              "position": 7.008333,
              "duration": 0.85
            },
            {
              "pitch": 60,
              "velocity": 45,
              "position": 7.025,
              "duration": 0.65
            },
            {
              "pitch": 48,
              "velocity": 79,
              "position": 8.0,
              "duration": 0.708333
            },
            {
              "pitch": 48,
              "velocity": 46,
              "position": 8.966667,
              "duration": 1.016667
            },
            {
              "pitch": 55,
              "velocity": 70,
              "position": 8.991667,
              "duration": 1.108333
            },
            {
              "pitch": 59,
              "velocity": 59,
              "position": 9.0,
              "duration": 0.658333
            },
            {
              "pitch": 60,
              "velocity": 45,
              "position": 9.016667,
              "duration": 0.65
            },
            {
              "pitch": 60,
              "velocity": 69,
              "position": 9.75,
              "duration": 1.091667
            },
            {
              "pitch": 59,
              "velocity": 48,
              "position": 9.766667,
              "duration": 0.391667
            },
            {
              "pitch": 59,
              "velocity": 62,
              "position": 10.258333,
              "duration": 0.625
            },
            {
              "pitch": 55,
              "velocity": 69,
              "position": 10.275,
              "duration": 0.408333
            },
            {
              "pitch": 48,
              "velocity": 45,
              "position": 10.291667,
              "duration": 0.575
            },
            {
              "pitch": 43,
              "velocity": 45,
              "position": 10.458333,
              "duration": 1.308333
            },
            {
              "pitch": 55,
              "velocity": 54,
              "position": 10.758333,
              "duration": 0.175
            },
            {
              "pitch": 48,
              "velocity": 76,
              "position": 10.933333,
              "duration": 0.908333
            },
            {
              "pitch": 55,
              "velocity": 80,
              "position": 10.95,
              "duration": 0.9
            },
            {
              "pitch": 59,
              "velocity": 70,
              "position": 10.958333,
              "duration": 0.775
            },
            {
              "pitch": 60,
              "velocity": 47,
              "position": 10.975,
              "duration": 0.683333
            },
            {
              "pitch": 48,
              "velocity": 80,
              "position": 12.025,
              "duration": 0.908333
            },
            {
              "pitch": 55,
              "velocity": 54,
              "position": 12.041667,
              "duration": 0.9
            },
            {
              "pitch": 48,
              "velocity": 68,
              "position": 12.95,
              "duration": 1.633333
            },
            {
              "pitch": 55,
              "velocity": 80,
              "position": 12.966667,
              "duration": 1.275
            },
            {
              "pitch": 59,
              "velocity": 72,
              "position": 12.983333,
              "duration": 1.975
            },
            {
              "pitch": 60,
              "velocity": 63,
              "position": 13.0,
              "duration": 0.708333
            },
            {
              "pitch": 60,
              "velocity": 71,
              "position": 13.758333,
              "duration": 1.216667
            },
            {
              "pitch": 43,
              "velocity": 77,
              "position": 13.991667,
              "duration": 0.933333
            },
            {
              "pitch": 55,
              "velocity": 56,
              "position": 14.291667,
              "duration": 0.408333
            },
            {
              "pitch": 55,
              "velocity": 45,
              "position": 14.741667,
              "duration": 0.191667
            },
            {
              "pitch": 48,
              "velocity": 65,
              "position": 14.95,
              "duration": 0.966667
            },
            {
              "pitch": 43,
              "velocity": 63,
              "position": 14.958333,
              "duration": 0.925
            },
            {
              "pitch": 55,
              "velocity": 80,
              "position": 14.966667,
              "duration": 0.941667
            },
            {
              "pitch": 59,
              "velocity": 67,
              "position": 14.975,
              "duration": 0.975
            },
            {
              "pitch": 60,
              "velocity": 45,
              "position": 14.991667,
              "duration": 0.958333
            }
          ]
        },
        "13": {
          "ctab": {
            "srcChannel": 13,
            "name": "Strings",
            "accType": "PAD",
            "editable": true,
            "mutedNotes": [],
            "mutedChords": [],
            "sourceChordNote": 0,
            "sourceChordType": "Maj7",
            "ctb2Main": {
              "ntr": "ROOT_FIXED",
              "ntt": "MELODY",
              "bassOn": false,
              "noteLowLimit": 36,
              "noteHighLimit": 96,
              "chordRootUpperLimit": 127,
              "rtr": "PITCH_SHIFT"
            }
          },
          "notes": [
            {
              "pitch": 60,
              "velocity": 95,
              "position": 0.0,
              "duration": 1.958333
            },
            {
              "pitch": 60,
              "velocity": 95,
              "position": 4.0,
              "duration": 1.958333
            },
            {
              "pitch": 43,
              "velocity": 96,
              "position": 6.525,
              "duration": 0.241667
            },
            {
              "pitch": 47,
              "velocity": 60,
              "position": 6.775,
              "duration": 0.141667
            },
            {
              "pitch": 48,
              "velocity": 85,
              "position": 7.025,
              "duration": 0.25
            },
            {
              "pitch": 52,
              "velocity": 88,
              "position": 7.275,
              "duration": 0.491667
            },
            {
              "pitch": 48,
              "velocity": 56,
              "position": 7.775,
              "duration": 0.183333
            },
            {
              "pitch": 55,
              "velocity": 93,
              "position": 14.533333,
              "duration": 0.25
            },
            {
              "pitch": 59,
              "velocity": 83,
              "position": 14.783333,
              "duration": 0.175
            },
            {
              "pitch": 55,
              "velocity": 72,
              "position": 15.033333,
              "duration": 0.75
            },
            {
              "pitch": 60,
              "velocity": 97,
              "position": 15.033333,
              "duration": 0.25
            },
            {
              "pitch": 67,
              "velocity": 88,
              "position": 15.283333,
              "duration": 0.208333
            },
            {
              "pitch": 60,
              "velocity": 81,
              "position": 15.533333,
              "duration": 0.241667
            },
            {
              "pitch": 59,
              "velocity": 54,
              "position": 15.783333,
              "duration": 0.216667
            }
          ]
        }
      }
    }
  }
}