{
  "name": "New Jazz 1 Medium 4/4 Swing",
  "tempo": 105,
  "timeSignature": "4/4",
  "ticksPerQuarter": 120,
  "sffType": "SFF1",
  "division": "BINARY",
  "channelPrograms": {
    "9": 40,
    "10": 32,
    "11": 11,
    "12": 12,
    "13": 71
  },
  "parts": {
    "Intro_A": {
      "type": "Intro_A",
      "sizeInBeats": 24,
      "channels": {
        "9": {
          "ctab": {
            "srcChannel": 9,
            "name": "Drums",
            "accType": "RHYTHM",
            "editable": false,
            "mutedNotes": [],
            "mutedChords": [],
            "sourceChordNote": 0,
            "sourceChordType": "Maj",
            "ctb2Main": {
              "ntr": "ROOT_FIXED",
              "ntt": "BYPASS",
              "bassOn": false,
              "noteLowLimit": 20,
              "noteHighLimit": 127,
              "chordRootUpperLimit": 127,
              "rtr": "RETRIGGER"
            }
          },
          "notes": [
            {
              "pitch": 37,
              "velocity": 84,
              "position": 0.0,
              "duration": 1.0
            },
            {
              "pitch": 37,
              "velocity": 84,
              "position": 2.0,
              "duration": 1.0
            },
            {
              "pitch": 37,
              "velocity": 64,
              "position": 4.0,
              "duration": 1.0
            },
            {
              "pitch": 37,
              "velocity": 84,
              "position": 5.0,
              "duration": 1.0
            },
            {
              "pitch": 37,
              "velocity": 64,
              "position": 6.0,
              "duration": 1.0
            },
            {
              "pitch": 37,
              "velocity": 84,
              "position": 7.0,
              "duration": 1.0
            },
            {
              "pitch": 35,
              "velocity": 46,
              "position": 8.0,
              "duration": 0.166667
            },
            {
              "pitch": 40,
              "velocity": 28,
              "position": 8.0,
              "duration": 0.45
            },
            {
              "pitch": 56,
              "velocity": 29,
              "position": 8.0,
              "duration": 0.366667
            },
            {
              "pitch": 64,
              "velocity": 35,
              "position": 8.325,
              "duration": 0.191667
            },
            {
              "pitch": 40,
              "velocity": 17,
              "position": 8.675,
              "duration": 0.133333
            },
            {
              "pitch": 56,
              "velocity": 26,
              "position": 8.991667,
              "duration": 0.4
            },
            {
              "pitch": 40,
              "velocity": 17,
              "position": 9.008333,
              "duration": 0.283333
            },
            {
              "pitch": 44,
              "velocity": 51,
              "position": 9.008333,
              "duration": 0.2
            },
            {
              "pitch": 63,
              "velocity": 35,
              "position": 9.008333,
              "duration": 0.216667
            },
            {
              "pitch": 35,
              "velocity": 50,
              "position": 9.658333,
              "duration": 0.158333
            },
            {
              "pitch": 38,
              "velocity": 64,
              "position": 9.658333,
              "duration": 0.933333
            },
            {
              "pitch": 40,
              "velocity": 36,
              "position": 9.658333,
              "duration": 0.833333
            },
            {
              "pitch": 62,
              "velocity": 60,
              "position": 9.675,
              "duration": 0.2
            },
            {
              "pitch": 56,
              "velocity": 25,
              "position": 9.991667,
              "duration": 0.416667
            },
            {
              "pitch": 40,
              "velocity": 17,
              "position": 10.658333,
              "duration": 0.183333
            },
            {
              "pitch": 44,
              "velocity": 63,
              "position": 10.991667,
              "duration": 0.191667
            },
            {
              "pitch": 56,
              "velocity": 27,
              "position": 10.991667,
              "duration": 0.516667
            },
            {
              "pitch": 40,
              "velocity": 16,
              "position": 11.008333,
              "duration": 0.416667
            },
            {
              "pitch": 40,
              "velocity": 13,
              "position": 11.675,
              "duration": 0.091667
            },
            {
              "pitch": 40,
              "velocity": 16,
              "position": 11.991667,
              "duration": 0.741667
            },
            {
              "pitch": 56,
              "velocity": 27,
              "position": 11.991667,
              "duration": 0.425
            },
            {
              "pitch": 35,
              "velocity": 51,
              "position": 12.658333,
              "duration": 0.208333
            },
            {
              "pitch": 62,
              "velocity": 36,
              "position": 12.658333,
              "duration": 0.233333
            },
            {
              "pitch": 38,
              "velocity": 53,
              "position": 12.991667,
              "duration": 0.416667
            },
            {
              "pitch": 40,
              "velocity": 42,
              "position": 12.991667,
              "duration": 0.45
            },
            {
              "pitch": 44,
              "velocity": 51,
              "position": 12.991667,
              "duration": 0.175
            },
            {
              "pitch": 56,
              "velocity": 25,
              "position": 12.991667,
              "duration": 0.466667
            },
            {
              "pitch": 63,
              "velocity": 25,
              "position": 13.008333,
              "duration": 0.116667
            },
            {
              "pitch": 38,
              "velocity": 54,
              "position": 13.658333,
              "duration": 0.075
            },
            {
              "pitch": 63,
              "velocity": 52,
              "position": 13.658333,
              "duration": 0.183333
            },
            {
              "pitch": 35,
              "velocity": 38,
              "position": 13.991667,
              "duration": 0.191667
            },
            {
              "pitch": 40,
              "velocity": 21,
              "position": 13.991667,
              "duration": 0.283333
            },
            {
              "pitch": 56,
              "velocity": 25,
              "position": 13.991667,
              "duration": 0.516667
            },
            {
              "pitch": 64,
              "velocity": 29,
              "position": 14.008333,
              "duration": 0.2
            },
            {
              "pitch": 38,
              "velocity": 55,
              "position": 14.325,
              "duration": 0.066667
            },
            {
              "pitch": 38,
              "velocity": 46,
              "position": 14.658333,
              "duration": 0.2
            },
            {
              "pitch": 64,
              "velocity": 54,
              "position": 14.658333,
              "duration": 0.166667
            },
            {
              "pitch": 40,
              "velocity": 50,
              "position": 14.991667,
              "duration": 0.616667
            },
            {
              "pitch": 44,
              "velocity": 64,
              "position": 14.991667,
              "duration": 0.183333
            },
            {
              "pitch": 56,
              "velocity": 27,
              "position": 14.991667,
              "duration": 0.508333
            },
            {
              "pitch": 63,
              "velocity": 33,
              "position": 14.991667,
              "duration": 0.266667
            },
            {
              "pitch": 39,
              "velocity": 57,
              "position": 15.658333,
              "duration": 0.216667
            },
            {
              "pitch": 35,
              "velocity": 46,
              "position": 16.0,
              "duration": 0.166667
            },
            {
              "pitch": 56,
              "velocity": 34,
              "position": 16.0,
              "duration": 0.391667
            },
            {
              "pitch": 40,
              "velocity": 22,
              "position": 16.008333,
              "duration": 0.625
            },
            {
              "pitch": 64,
              "velocity": 31,
              "position": 16.658333,
              "duration": 0.15
            },
            {
              "pitch": 38,
              "velocity": 35,
              "position": 16.675,
              "duration": 0.166667
            },
            {
              "pitch": 56,
              "velocity": 27,
              "position": 16.991667,
              "duration": 0.583333
            },
            {
              "pitch": 40,
              "velocity": 17,
              "position": 17.0,
              "duration": 0.183333
            },
            {
              "pitch": 44,
              "velocity": 51,
              "position": 17.008333,
              "duration": 0.2
            },
            {
              "pitch": 63,
              "velocity": 30,
              "position": 17.008333,
              "duration": 0.166667
            },
            {
              "pitch": 35,
              "velocity": 50,
              "position": 17.658333,
              "duration": 0.158333
            },
            {
              "pitch": 62,
              "velocity": 60,
              "position": 17.658333,
              "duration": 0.183333
            },
            {
              "pitch": 40,
              "velocity": 29,
              "position": 17.675,
              "duration": 0.1
            },
            {
              "pitch": 40,
              "velocity": 24,
              "position": 17.991667,
              "duration": 0.65
            },
            {
              "pitch": 56,
              "velocity": 28,
              "position": 17.991667,
              "duration": 0.5
            },
            {
              "pitch": 38,
              "velocity": 61,
              "position": 18.991667,
              "duration": 1.008333
            },
            {
              "pitch": 44,
              "velocity": 63,
              "position": 18.991667,
              "duration": 0.191667
            },
            {
              "pitch": 56,
              "velocity": 29,
              "position": 18.991667,
              "duration": 0.55
            },
            {
              "pitch": 40,
              "velocity": 32,
              "position": 19.008333,
              "duration": 0.266667
            },
            {
              "pitch": 35,
              "velocity": 67,
              "position": 20.008333,
              "duration": 0.266667
            },
            {
              "pitch": 38,
              "velocity": 52,
              "position": 20.666667,
              "duration": 0.2
            },
            {
              "pitch": 56,
              "velocity": 33,
              "position": 20.675,
              "duration": 0.083333
            },
            {
              "pitch": 62,
              "velocity": 37,
              "position": 20.675,
              "duration": 0.1
            },
            {
              "pitch": 39,
              "velocity": 65,
              "position": 21.008333,
              "duration": 0.258333
            },
            {
              "pitch": 46,
              "velocity": 56,
              "position": 21.008333,
              "duration": 0.3
            },
            {
              "pitch": 63,
              "velocity": 29,
              "position": 21.008333,
              "duration": 0.083333
            },
            {
              "pitch": 39,
              "velocity": 87,
              "position": 21.675,
              "duration": 0.75
            },
            {
              "pitch": 46,
              "velocity": 83,
              "position": 21.675,
              "duration": 1.0
            },
            {
              "pitch": 56,
              "velocity": 21,
              "position": 21.675,
              "duration": 0.083333
            },
            {
              "pitch": 63,
              "velocity": 25,
              "position": 21.675,
              "duration": 0.1
            },
            {
              "pitch": 56,
              "velocity": 31,
              "position": 22.008333,
              "duration": 0.116667
            },
            {
              "pitch": 63,
              "velocity": 33,
              "position": 22.008333,
              "duration": 0.116667
            },
            {
              "pitch": 56,
              "velocity": 30,
              "position": 22.341667,
              "duration": 0.108333
            },
            {
              "pitch": 63,
              "velocity": 35,
              "position": 22.341667,
              "duration": 0.108333
            },
            {
              "pitch": 35,
              "velocity": 62,
              "position": 22.675,
              "duration": 0.216667
            },
            {
              "pitch": 56,
              "velocity": 35,
              "position": 22.675,
              "duration": 0.116667
            },
            {
              "pitch": 63,
              "velocity": 52,
              "position": 22.675,
              "duration": 0.116667
            },
            {
              "pitch": 39,
              "velocity": 81,
              "position": 23.008333,
              "duration": 0.375
            },
            {
              "pitch": 46,
              "velocity": 81,
              "position": 23.008333,
              "duration": 0.283333
            },
            {
              "pitch": 56,
              "velocity": 36,
              "position": 23.008333,
              "duration": 0.1
            },
            {
              "pitch": 63,
              "velocity": 62,
              "position": 23.008333,
              "duration": 0.133333
            },
            {
              "pitch": 56,
              "velocity": 35,
              "position": 23.341667,
              "duration": 0.116667
            },
            {
              "pitch": 63,
              "velocity": 45,
              "position": 23.341667,
              "duration": 0.1
            },
            {
              "pitch": 56,
              "velocity": 49,
              "position": 23.675,
              "duration": 0.1
            },
            {
              "pitch": 63,
              "velocity": 65,
              "position": 23.675,
              "duration": 0.116667
            }
          ]
        },
        "10": {
          "ctab": {
            "srcChannel": 10,
            "name": "Bass",
            "accType": "BASS",
            "editable": true,
            "mutedNotes": [],
            "mutedChords": [],
            "sourceChordNote": 0,
            "sourceChordType": "Maj7",
            "ctb2Main": {
              "ntr": "ROOT_TRANSPOSITION",
              "ntt": "BYPASS",
              "bassOn": true,
              "noteLowLimit": 20,
              "noteHighLimit": 60,
              "chordRootUpperLimit": 127,
              "rtr": "NOTE_GENERATOR"
            }
          },
          "notes": [
            {
              "pitch": 36,
              "velocity": 66,
              "position": 8.016667,
              "duration": 0.541667
            },
            {
              "pitch": 36,
              "velocity": 56,
              "position": 8.691667,
              "duration": 0.141667
            },
            {
              "pitch": 36,
              "velocity": 64,
              "position": 9.041667,
              "duration": 0.225
            },
            {
              "pitch": 36,
              "velocity": 66,
              "position": 9.716667,
              "duration": 0.833333
            },
            {
              "pitch": 36,
              "velocity": 61,
              "position": 10.708333,
              "duration": 0.25
            },
            {
              "pitch": 48,
              "velocity": 66,
              "position": 11.016667,
              "duration": 0.316667
            },
            {
              "pitch": 36,
              "velocity": 71,
              "position": 12.016667,
              "duration": 0.175
            },
            {
              "pitch": 40,
              "velocity": 61,
              "position": 12.325,
              "duration": 0.2
            },
            {
              "pitch": 36,
              "velocity": 71,
              "position": 13.016667,
              "duration": 0.6
            },
            {
              "pitch": 36,
              "velocity": 66,
              "position": 13.716667,
              "duration": 1.275
            },
            {
              "pitch": 35,
              "velocity": 66,
              "position": 15.016667,
              "duration": 0.958333
            },
            {
              "pitch": 36,
              "velocity": 71,
              "position": 16.016667,
              "duration": 1.675
            },
            {
              "pitch": 40,
              "velocity": 78,
              "position": 17.641667,
              "duration": 1.366667
            },
            {
              "pitch": 35,
              "velocity": 49,
              "position": 19.008333,
              "duration": 0.3
            }
          ]
        },
        "11": {
          "ctab": {
            "srcChannel": 11,
            "name": "Piano",
            "accType": "CHORD1",
            "editable": true,
            "mutedNotes": [],
            "mutedChords": [],
            "sourceChordNote": 0,
            "sourceChordType": "Maj7",
            "ctb2Main": {
              "ntr": "ROOT_FIXED",
              "ntt": "CHORD",
              "bassOn": false,
              "noteLowLimit": 48,
              "noteHighLimit": 84,
              "chordRootUpperLimit": 127,
              "rtr": "NOTE_GENERATOR"
            }
          },
          "notes": [
            {
              "pitch": 71,
              "velocity": 29,
              "position": 8.958333,
              "duration": 0.241667
            },
            {
              "pitch": 55,
              "velocity": 24,
              "position": 8.975,
              "duration": 0.25
            },
            {
              "pitch": 64,
              "velocity": 29,
              "position": 8.975,
              "duration": 0.208333
            },
            {
              "pitch": 60,
              "velocity": 22,
              "position": 8.991667,
              "duration": 0.208333
            },
            {
              "pitch": 67,
              "velocity": 29,
              "position": 10.008333,
              "duration": 1.608333
            },
            {
              "pitch": 64,
              "velocity": 33,
              "position": 10.025,
              "duration": 1.591667
            },
            {
              "pitch": 71,
              "velocity": 32,
              "position": 10.041667,
              "duration": 1.575
            },
            {
              "pitch": 67,
              "velocity": 29,
              "position": 12.666667,
              "duration": 0.95
            },
            {
              "pitch": 64,
              "velocity": 33,
              "position": 12.683333,
              "duration": 0.933333
            },
            {
              "pitch": 71,
              "velocity": 32,
              "position": 12.683333,
              "duration": 0.933333
            },
            {
              "pitch": 67,
              "velocity": 29,
              "position": 13.708333,
              "duration": 2.216667
            },
            {
              "pitch": 64,
              "velocity": 33,
              "position": 13.725,
              "duration": 2.2
            },
            {
              "pitch": 71,
              "velocity": 32,
              "position": 13.741667,
              "duration": 2.183333
            },
            {
              "pitch": 74,
              "velocity": 31,
              "position": 16.033333,
              "duration": 0.141667
            },
            {
              "pitch": 79,
              "velocity": 37,
              "position": 16.033333,
              "duration": 0.175
            },
            {
              "pitch": 64,
              "velocity": 29,
              "position": 19.708333,
              "duration": 0.266667
            },
            {
              "pitch": 71,
              "velocity": 28,
              "position": 19.741667,
              "duration": 0.208333
            },
            {
              "pitch": 71,
              "velocity": 29,
              "position": 21.691667,
              "duration": 0.15
            },
            {
              "pitch": 64,
              "velocity": 28,
              "position": 21.7,
              "duration": 0.125
            }
          ]
        },
        "12": {
          "ctab": {
            "srcChannel": 12,
            "name": "Guitar",
            "accType": "CHORD2",
            "editable": true,
            "mutedNotes": [],
            "mutedChords": [],
            "sourceChordNote": 0,
            "sourceChordType": "Maj7",
            "ctb2Main": {
              "ntr": "ROOT_FIXED",
              "ntt": "CHORD",
              "bassOn": false,
              "noteLowLimit": 40,
              "noteHighLimit": 76,
              "chordRootUpperLimit": 127,
              "rtr": "NOTE_GENERATOR"
            }
          },
          "notes": [
            {
              "pitch": 64,
              "velocity": 34,
              "position": 9.066667,
              "duration": 0.175
            },
            {
              "pitch": 67,
              "velocity": 36,
              "position": 9.066667,
              "duration": 0.191667
            },
            {
              "pitch": 64,
              "velocity": 34,
              "position": 11.066667,
              "duration": 0.175
            },
            {
              "pitch": 67,
              "velocity": 36,
              "position": 11.066667,
              "duration": 0.191667
            },
            {
              "pitch": 64,
              "velocity": 35,
              "position": 13.05,
              "duration": 0.458333
            },
            {
              "pitch": 67,
              "velocity": 31,
              "position": 13.05,
              "duration": 0.425
            },
            {
              "pitch": 64,
              "velocity": 49,
              "position": 13.716667,
              "duration": 0.175
            },
            {
              "pitch": 67,
              "velocity": 51,
              "position": 13.733333,
              "duration": 0.125
            },
            {
              "pitch": 64,
              "velocity": 34,
              "position": 15.066667,
              "duration": 0.175
            },
            {
              "pitch": 67,
              "velocity": 36,
              "position": 15.066667,
              "duration": 0.191667
            },
            {
              "pitch": 64,
              "velocity": 31,
              "position": 16.975,
              "duration": 0.258333
            },
            {
              "pitch": 67,
              "velocity": 31,
              "position": 16.975,
              "duration": 0.241667
            },
            {
              "pitch": 64,
              "velocity": 32,
              "position": 17.633333,
              "duration": 0.158333
            },
            {
              "pitch": 67,
              "velocity": 33,
              "position": 17.633333,
              "duration": 0.158333
            },
            {
              "pitch": 64,
              "velocity": 33,
              "position": 21.1,
              "duration": 0.4
            },
            {
              "pitch": 67,
              "velocity": 28,
              "position": 21.1,
              "duration": 0.366667
            },
            {
              "pitch": 64,
              "velocity": 27,
              "position": 21.75,
              "duration": 0.141667
            },
            {
              "pitch": 67,
              "velocity": 30,
              "position": 21.766667,
              "duration": 0.125
            },
            {
              "pitch": 67,
              "velocity": 28,
              "position": 23.083333,
              "duration": 0.166667
            },
            {
              "pitch": 64,
              "velocity": 35,
              "position": 23.1,
              "duration": 0.15
            }
          ]
        },
        "13": {
          "ctab": {
            "srcChannel": 13,
            "name": "Strings",
            "accType": "PAD",
            "editable": true,
            "mutedNotes": [],
            "mutedChords": [],
            "sourceChordNote": 0,
            "sourceChordType": "Maj7",
            "ctb2Main": {
              "ntr": "ROOT_FIXED",
              "ntt": "MELODY",
              "bassOn": false,
              "noteLowLimit": 36,
              "noteHighLimit": 96,
              "chordRootUpperLimit": 127,
              "rtr": "PITCH_SHIFT"
            }
          },
          "notes": [
            {
              "pitch": 64,
              "velocity": 24,
              "position": 10.975,
              "duration": 0.491667
            },
            {
              "pitch": 64,
              "velocity": 24,
              "position": 11.708333,
              "duration": 0.125
            },
            {
              "pitch": 83,
              "velocity": 45,
              "position": 16.65,
              "duration": 0.133333
            },
            {
              "pitch": 84,
              "velocity": 32,
              "position": 16.825,
              "duration": 0.066667
            },
            {
              "pitch": 83,
              "velocity": 40,
              "position": 19.641667,
              "duration": 0.208333
            },
            {
              "pitch": 84,
              "velocity": 33,
              "position": 19.8,
              "duration": 0.116667
            }
          ]
        }
      }
    },
    "Main_A": {
      "type": "Main_A",
      "sizeInBeats": 16,
      "channels": {
        "9": {
          "ctab": {
            "srcChannel": 9,
            "name": "Drums",
            "accType": "RHYTHM",
            "editable": false,
            "mutedNotes": [],
            "mutedChords": [],
            "sourceChordNote": 0,
            "sourceChordType": "Maj",
            "ctb2Main": {
              "ntr": "ROOT_FIXED",
              "ntt": "BYPASS",
              "bassOn": false,
              "noteLowLimit": 20,
              "noteHighLimit": 127,
              "chordRootUpperLimit": 127,
              "rtr": "RETRIGGER"
            }
          },
          "notes": [
            {
              "pitch": 35,
              "velocity": 55,
              "position": 0.008333,
              "duration": 0.2
            },
            {
              "pitch": 51,
              "velocity": 57,
              "position": 0.008333,
              "duration": 0.658333
            },
            {
              "pitch": 56,
              "velocity": 31,
              "position": 0.008333,
              "duration": 0.4
            },
            {
              "pitch": 56,
              "velocity": 43,
              "position": 1.0,
              "duration": 0.341667
            },
            {
              "pitch": 44,
              "velocity": 85,
              "position": 1.008333,
              "duration": 0.158333
            },
            {
              "pitch": 51,
              "velocity": 53,
              "position": 1.008333,
              "duration": 0.666667
            },
            {
              "pitch": 35,
              "velocity": 57,
              "position": 1.675,
              "duration": 0.141667
            },
            {
              "pitch": 51,
              "velocity": 57,
              "position": 1.991667,
              "duration": 0.2
            },
            {
              "pitch": 56,
              "velocity": 29,
              "position": 2.008333,
              "duration": 0.2
            },
            {
              "pitch": 55,
              "velocity": 47,
              "position": 2.325,
              "duration": 0.175
            },
            {
              "pitch": 64,
              "velocity": 35,
              "position": 2.341667,
              "duration": 0.15
            },
            {
              "pitch": 37,
              "velocity": 49,
              "position": 2.991667,
              "duration": 0.141667
            },
            {
              "pitch": 51,
              "velocity": 77,
              "position": 2.991667,
              "duration": 0.708333
            },
            {
              "pitch": 44,
              "velocity": 87,
              "position": 3.008333,
              "duration": 0.258333
            },
            {
              "pitch": 56,
              "velocity": 33,
              "position": 3.008333,
              "duration": 0.266667
            },
            {
              "pitch": 63,
              "velocity": 64,
              "position": 3.008333,
              "duration": 0.183333
            },
            {
              "pitch": 62,
              "velocity": 56,
              "position": 3.666667,
              "duration": 0.15
            },
            {
              "pitch": 56,
              "velocity": 28,
              "position": 3.991667,
              "duration": 0.266667
            },
            {
              "pitch": 51,
              "velocity": 57,
              "position": 4.008333,
              "duration": 0.516667
            },
            {
              "pitch": 35,
              "velocity": 44,
              "position": 4.341667,
              "duration": 0.175
            },
            {
              "pitch": 39,
              "velocity": 64,
              "position": 4.991667,
              "duration": 0.116667
            },
            {
              "pitch": 51,
              "velocity": 67,
              "position": 4.991667,
              "duration": 0.641667
            },
            {
              "pitch": 56,
              "velocity": 32,
              "position": 4.991667,
              "duration": 0.283333
            },
            {
              "pitch": 44,
              "velocity": 99,
              "position": 5.008333,
              "duration": 0.3
            },
            {
              "pitch": 35,
              "velocity": 44,
              "position": 5.658333,
              "duration": 0.216667
            },
            {
              "pitch": 39,
              "velocity": 86,
              "position": 5.658333,
              "duration": 0.166667
            },
            {
              "pitch": 51,
              "velocity": 53,
              "position": 5.991667,
              "duration": 0.183333
            },
            {
              "pitch": 56,
              "velocity": 29,
              "position": 5.991667,
              "duration": 0.216667
            },
            {
              "pitch": 53,
              "velocity": 58,
              "position": 6.325,
              "duration": 0.2
            },
            {
              "pitch": 64,
              "velocity": 34,
              "position": 6.658333,
              "duration": 0.133333
            },
            {
              "pitch": 35,
              "velocity": 44,
              "position": 6.675,
              "duration": 0.175
            },
            {
              "pitch": 51,
              "velocity": 69,
              "position": 6.991667,
              "duration": 0.725
            },
            {
              "pitch": 56,
              "velocity": 26,
              "position": 6.991667,
              "duration": 0.291667
            },
            {
              "pitch": 63,
              "velocity": 26,
              "position": 6.991667,
              "duration": 0.233333
            },
            {
              "pitch": 44,
              "velocity": 92,
              "position": 7.008333,
              "duration": 0.3
            },
            {
              "pitch": 56,
              "velocity": 31,
              "position": 8.0,
              "duration": 0.35
            },
            {
              "pitch": 35,
              "velocity": 62,
              "position": 8.008333,
              "duration": 0.166667
            },
            {
              "pitch": 51,
              "velocity": 74,
              "position": 8.008333,
              "duration": 0.708333
            },
            {
              "pitch": 48,
              "velocity": 54,
              "position": 8.991667,
              "duration": 0.191667
            },
            {
              "pitch": 51,
              "velocity": 59,
              "position": 8.991667,
              "duration": 0.308333
            },
            {
              "pitch": 44,
              "velocity": 75,
              "position": 9.008333,
              "duration": 0.133333
            },
            {
              "pitch": 56,
              "velocity": 33,
              "position": 9.008333,
              "duration": 0.35
            },
            {
              "pitch": 35,
              "velocity": 54,
              "position": 9.658333,
              "duration": 0.166667
            },
            {
              "pitch": 45,
              "velocity": 68,
              "position": 9.675,
              "duration": 0.133333
            },
            {
              "pitch": 51,
              "velocity": 94,
              "position": 9.675,
              "duration": 0.166667
            },
            {
              "pitch": 62,
              "velocity": 66,
              "position": 9.675,
              "duration": 0.141667
            },
            {
              "pitch": 51,
              "velocity": 47,
              "position": 10.008333,
              "duration": 0.425
            },
            {
              "pitch": 56,
              "velocity": 30,
              "position": 10.008333,
              "duration": 0.333333
            },
            {
              "pitch": 35,
              "velocity": 30,
              "position": 10.675,
              "duration": 0.15
            },
            {
              "pitch": 51,
              "velocity": 56,
              "position": 10.991667,
              "duration": 0.25
            },
            {
              "pitch": 56,
              "velocity": 37,
              "position": 10.991667,
              "duration": 0.4
            },
            {
              "pitch": 44,
              "velocity": 86,
              "position": 11.008333,
              "duration": 0.25
            },
            {
              "pitch": 51,
              "velocity": 80,
              "position": 11.658333,
              "duration": 0.341667
            },
            {
              "pitch": 63,
              "velocity": 68,
              "position": 11.658333,
              "duration": 0.158333
            },
            {
              "pitch": 35,
              "velocity": 66,
              "position": 12.0,
              "duration": 0.408333
            },
            {
              "pitch": 51,
              "velocity": 65,
              "position": 12.0,
              "duration": 0.375
            },
            {
              "pitch": 56,
              "velocity": 38,
              "position": 12.008333,
              "duration": 0.141667
            },
            {
              "pitch": 62,
              "velocity": 33,
              "position": 12.358333,
              "duration": 0.116667
            },
            {
              "pitch": 39,
              "velocity": 72,
              "position": 12.658333,
              "duration": 0.25
            },
            {
              "pitch": 63,
              "velocity": 23,
              "position": 12.683333,
              "duration": 0.075
            },
            {
              "pitch": 44,
              "velocity": 67,
              "position": 12.991667,
              "duration": 0.133333
            },
            {
              "pitch": 46,
              "velocity": 76,
              "position": 12.991667,
              "duration": 0.116667
            },
            {
              "pitch": 56,
              "velocity": 39,
              "position": 13.016667,
              "duration": 0.15
            },
            {
              "pitch": 63,
              "velocity": 48,
              "position": 13.016667,
              "duration": 0.166667
            },
            {
              "pitch": 45,
              "velocity": 79,
              "position": 13.658333,
              "duration": 0.5
            },
            {
              "pitch": 48,
              "velocity": 94,
              "position": 13.658333,
              "duration": 0.416667
            },
            {
              "pitch": 63,
              "velocity": 79,
              "position": 13.658333,
              "duration": 0.266667
            },
            {
              "pitch": 56,
              "velocity": 39,
              "position": 13.991667,
              "duration": 0.15
            },
            {
              "pitch": 64,
              "velocity": 51,
              "position": 14.308333,
              "duration": 0.15
            },
            {
              "pitch": 51,
              "velocity": 77,
              "position": 14.325,
              "duration": 0.316667
            },
            {
              "pitch": 46,
              "velocity": 73,
              "position": 14.341667,
              "duration": 0.116667
            },
            {
              "pitch": 63,
              "velocity": 35,
              "position": 14.641667,
              "duration": 0.116667
            },
            {
              "pitch": 39,
              "velocity": 70,
              "position": 14.675,
              "duration": 0.25
            },
            {
              "pitch": 56,
              "velocity": 49,
              "position": 14.975,
              "duration": 0.233333
            },
            {
              "pitch": 62,
              "velocity": 52,
              "position": 14.991667,
              "duration": 0.175
            },
            {
              "pitch": 48,
              "velocity": 81,
              "position": 15.008333,
              "duration": 0.316667
            },
            {
              "pitch": 39,
              "velocity": 61,
              "position": 15.675,
              "duration": 0.083333
            }
          ]
        },
        "10": {
          "ctab": {
            "srcChannel": 10,
            "name": "Bass",
            "accType": "BASS",
            "editable": true,
            "mutedNotes": [],
            "mutedChords": [],
            "sourceChordNote": 0,
            "sourceChordType": "Maj7",
            "ctb2Main": {
              "ntr": "ROOT_TRANSPOSITION",
              "ntt": "BYPASS",
              "bassOn": true,
              "noteLowLimit": 20,
              "noteHighLimit": 60,
              "chordRootUpperLimit": 127,
              "rtr": "NOTE_GENERATOR"
            }
          },
          "notes": [
            {
              "pitch": 36,
              "velocity": 66,
              "position": 0.016667,
              "duration": 0.375
            },
            {
              "pitch": 36,
              "velocity": 66,
              "position": 1.716667,
              "duration": 1.341667
            },
            {
              "pitch": 43,
              "velocity": 71,
              "position": 3.016667,
              "duration": 0.316667
            },
            {
              "pitch": 36,
              "velocity": 71,
              "position": 4.016667,
              "duration": 0.275
            },
            {
              "pitch": 35,
              "velocity": 61,
              "position": 4.325,
              "duration": 0.2
            },
            {
              "pitch": 35,
              "velocity": 71,
              "position": 5.016667,
              "duration": 0.6
            },
            {
              "pitch": 36,
              "velocity": 66,
              "position": 5.716667,
              "duration": 0.833333
            },
            {
              "pitch": 35,
              "velocity": 61,
              "position": 6.708333,
              "duration": 0.25
            },
            {
              "pitch": 36,
              "velocity": 66,
              "position": 7.016667,
              "duration": 0.958333
            },
            {
              "pitch": 36,
              "velocity": 57,
              "position": 8.0,
              "duration": 1.25
            },
            {
              "pitch": 48,
              "velocity": 62,
              "position": 9.616667,
              "duration": 1.383333
            },
            {
              "pitch": 43,
              "velocity": 55,
              "position": 10.983333,
              "duration": 1.0
            },
            {
              "pitch": 31,
              "velocity": 51,
              "position": 12.683333,
              "duration": 0.316667
            },
            {
              "pitch": 35,
              "velocity": 44,
              "position": 13.033333,
              "duration": 0.258333
            },
            {
              "pitch": 35,
              "velocity": 55,
              "position": 13.716667,
              "duration": 0.283333
            },
            {
              "pitch": 36,
              "velocity": 63,
              "position": 14.033333,
              "duration": 1.433333
            }
          ]
        },
        "11": {
          "ctab": {
            "srcChannel": 11,
            "name": "Piano",
            "accType": "CHORD1",
            "editable": true,
            "mutedNotes": [],
            "mutedChords": [],
            "sourceChordNote": 0,
            "sourceChordType": "Maj7",
            "ctb2Main": {
              "ntr": "ROOT_FIXED",
              "ntt": "CHORD",
              "bassOn": false,
              "noteLowLimit": 48,
              "noteHighLimit": 84,
              "chordRootUpperLimit": 127,
              "rtr": "NOTE_GENERATOR"
            }
          },
          "notes": [
            {
              "pitch": 71,
              "velocity": 33,
              "position": 0.666667,
              "duration": 0.95
            },
            {
              "pitch": 62,
              "velocity": 26,
              "position": 0.683333,
              "duration": 0.933333
            },
            {
              "pitch": 64,
              "velocity": 33,
              "position": 0.691667,
              "duration": 0.925
            },
            {
              "pitch": 67,
              "velocity": 31,
              "position": 0.691667,
              "duration": 0.925
            },
            {
              "pitch": 62,
              "velocity": 26,
              "position": 1.725,
              "duration": 1.633333
            },
            {
              "pitch": 64,
              "velocity": 33,
              "position": 1.725,
              "duration": 1.65
            },
            {
              "pitch": 67,
              "velocity": 31,
              "position": 1.725,
              "duration": 1.65
            },
            {
              "pitch": 71,
              "velocity": 33,
              "position": 1.725,
              "duration": 1.725
            },
            {
              "pitch": 62,
              "velocity": 26,
              "position": 4.025,
              "duration": 1.633333
            },
            {
              "pitch": 64,
              "velocity": 33,
              "position": 4.025,
              "duration": 1.658333
            },
            {
              "pitch": 71,
              "velocity": 33,
              "position": 4.025,
              "duration": 1.591667
            },
            {
              "pitch": 71,
              "velocity": 33,
              "position": 6.666667,
              "duration": 1.316667
            },
            {
              "pitch": 62,
              "velocity": 26,
              "position": 6.683333,
              "duration": 1.3
            },
            {
              "pitch": 64,
              "velocity": 33,
              "position": 6.691667,
              "duration": 1.291667
            },
            {
              "pitch": 67,
              "velocity": 31,
              "position": 6.691667,
              "duration": 1.291667
            },
            {
              "pitch": 60,
              "velocity": 38,
              "position": 8.033333,
              "duration": 0.158333
            },
            {
              "pitch": 55,
              "velocity": 32,
              "position": 9.666667,
              "duration": 1.45
            },
            {
              "pitch": 59,
              "velocity": 31,
              "position": 11.066667,
              "duration": 4.508333
            }
          ]
        },
        "12": {
          "ctab": {
            "srcChannel": 12,
            "name": "Guitar",
            "accType": "CHORD2",
            "editable": true,
            "mutedNotes": [],
            "mutedChords": [],
            "sourceChordNote": 0,
            "sourceChordType": "Maj7",
            "ctb2Main": {
              "ntr": "ROOT_FIXED",
              "ntt": "CHORD",
              "bassOn": false,
              "noteLowLimit": 40,
              "noteHighLimit": 76,
              "chordRootUpperLimit": 127,
              "rtr": "NOTE_GENERATOR"
            }
          },
          "notes": [
            {
              "pitch": 64,
              "velocity": 34,
              "position": 1.066667,
              "duration": 0.175
            },
            {
              "pitch": 67,
              "velocity": 36,
              "position": 1.066667,
              "duration": 0.191667
            },
            {
              "pitch": 64,
              "velocity": 35,
              "position": 3.05,
              "duration": 0.458333
            },
            {
              "pitch": 67,
              "velocity": 31,
              "position": 3.05,
              "duration": 0.425
            },
            {
              "pitch": 64,
              "velocity": 28,
              "position": 3.716667,
              "duration": 0.175
            },
            {
              "pitch": 67,
              "velocity": 29,
              "position": 3.733333,
              "duration": 0.125
            },
            {
              "pitch": 64,
              "velocity": 59,
              "position": 7.066667,
              "duration": 0.175
            },
            {
              "pitch": 67,
              "velocity": 49,
              "position": 7.066667,
              "duration": 0.191667
            },
            {
              "pitch": 64,
              "velocity": 36,
              "position": 10.658333,
              "duration": 0.116667
            },
            {
              "pitch": 67,
              "velocity": 28,
              "position": 11.008333,
              "duration": 0.166667
            },
            {
              "pitch": 60,
              "velocity": 32,
              "position": 12.683333,
              "duration": 0.091667
            },
            {
              "pitch": 71,
              "velocity": 43,
              "position": 13.0,
              "duration": 0.158333
            }
          ]
        },
        "13": {
          "ctab": {
            "srcChannel": 13,
            "name": "Strings",
            "accType": "PAD",
            "editable": true,
            "mutedNotes": [],
            "mutedChords": [],
            "sourceChordNote": 0,
            "sourceChordType": "Maj7",
            "ctb2Main": {
              "ntr": "ROOT_FIXED",
              "ntt": "MELODY",
              "bassOn": false,
              "noteLowLimit": 36,
              "noteHighLimit": 96,
              "chordRootUpperLimit": 127,
              "rtr": "PITCH_SHIFT"
            }
          },
          "notes": []
        }
      }
    },
    "Main_B": {
      "type": "Main_B",
      "sizeInBeats": 16,
      "channels": {
        "9": {
          "ctab": {
            "srcChannel": 9,
            "name": "Drums",
            "accType": "RHYTHM",
            "editable": false,
            "mutedNotes": [],
            "mutedChords": [],
            "sourceChordNote": 0,
            "sourceChordType": "Maj",
            "ctb2Main": {
              "ntr": "ROOT_FIXED",
              "ntt": "BYPASS",
              "bassOn": false,
              "noteLowLimit": 20,
              "noteHighLimit": 127,
              "chordRootUpperLimit": 127,
              "rtr": "RETRIGGER"
            }
          },
          "notes": [
            {
              "pitch": 35,
              "velocity": 55,
              "position": 0.008333,
              "duration": 0.2
            },
            {
              "pitch": 51,
              "velocity": 57,
              "position": 0.008333,
              "duration": 0.658333
            },
            {
              "pitch": 56,
              "velocity": 31,
              "position": 0.008333,
              "duration": 0.4
            },
            {
              "pitch": 56,
              "velocity": 43,
              "position": 1.0,
              "duration": 0.341667
            },
            {
              "pitch": 44,
              "velocity": 85,
              "position": 1.008333,
              "duration": 0.158333
            },
            {
              "pitch": 51,
              "velocity": 53,
              "position": 1.008333,
              "duration": 0.666667
            },
            {
              "pitch": 35,
              "velocity": 57,
              "position": 1.675,
              "duration": 0.141667
            },
            {
              "pitch": 51,
              "velocity": 57,
              "position": 1.991667,
              "duration": 0.2
            },
            {
              "pitch": 56,
              "velocity": 29,
              "position": 2.008333,
              "duration": 0.2
            },
            {
              "pitch": 55,
              "velocity": 47,
              "position": 2.325,
              "duration": 0.175
            },
            {
              "pitch": 64,
              "velocity": 35,
              "position": 2.341667,
              "duration": 0.15
            },
            {
              "pitch": 37,
              "velocity": 49,
              "position": 2.991667,
              "duration": 0.141667
            },
            {
              "pitch": 51,
              "velocity": 77,
              "position": 2.991667,
              "duration": 0.708333
            },
            {
              "pitch": 44,
              "velocity": 87,
              "position": 3.008333,
              "duration": 0.258333
            },
            {
              "pitch": 56,
              "velocity": 33,
              "position": 3.008333,
              "duration": 0.266667
            },
            {
              "pitch": 63,
              "velocity": 64,
              "position": 3.008333,
              "duration": 0.183333
            },
            {
              "pitch": 62,
              "velocity": 56,
              "position": 3.666667,
              "duration": 0.15
            },
            {
              "pitch": 56,
              "velocity": 28,
              "position": 3.991667,
              "duration": 0.266667
            },
            {
              "pitch": 51,
              "velocity": 57,
              "position": 4.008333,
              "duration": 0.516667
            },
            {
              "pitch": 35,
              "velocity": 44,
              "position": 4.341667,
              "duration": 0.175
            },
            {
              "pitch": 39,
              "velocity": 64,
              "position": 4.991667,
              "duration": 0.116667
            },
            {
              "pitch": 51,
              "velocity": 67,
              "position": 4.991667,
              "duration": 0.641667
            },
            {
              "pitch": 56,
              "velocity": 32,
              "position": 4.991667,
              "duration": 0.283333
            },
            {
              "pitch": 44,
              "velocity": 99,
              "position": 5.008333,
              "duration": 0.3
            },
            {
              "pitch": 35,
              "velocity": 44,
              "position": 5.658333,
              "duration": 0.216667
            },
            {
              "pitch": 39,
              "velocity": 86,
              "position": 5.658333,
              "duration": 0.166667
            },
            {
              "pitch": 51,
              "velocity": 53,
              "position": 5.991667,
              "duration": 0.183333
            },
            {
              "pitch": 56,
              "velocity": 29,
              "position": 5.991667,
              "duration": 0.216667
            },
            {
              "pitch": 53,
              "velocity": 58,
              "position": 6.325,
              "duration": 0.2
            },
            {
              "pitch": 64,
              "velocity": 34,
              "position": 6.658333,
              "duration": 0.133333
            },
            {
              "pitch": 35,
              "velocity": 44,
              "position": 6.675,
              "duration": 0.175
            },
            {
              "pitch": 51,
              "velocity": 69,
              "position": 6.991667,
              "duration": 0.725
            },
            {
              "pitch": 56,
              "velocity": 26,
              "position": 6.991667,
              "duration": 0.291667
            },
            {
              "pitch": 63,
              "velocity": 26,
              "position": 6.991667,
              "duration": 0.233333
            },
            {
              "pitch": 44,
              "velocity": 92,
              "position": 7.008333,
              "duration": 0.3
            },
            {
              "pitch": 56,
              "velocity": 31,
              "position": 8.0,
              "duration": 0.35
            },
            {
              "pitch": 35,
              "velocity": 62,
              "position": 8.008333,
              "duration": 0.166667
            },
            {
              "pitch": 51,
              "velocity": 74,
              "position": 8.008333,
              "duration": 0.708333
            },
            {
              "pitch": 48,
              "velocity": 54,
              "position": 8.991667,
              "duration": 0.191667
            },
            {
              "pitch": 51,
              "velocity": 59,
              "position": 8.991667,
              "duration": 0.308333
            },
            {
              "pitch": 44,
              "velocity": 75,
              "position": 9.008333,
              "duration": 0.133333
            },
            {
              "pitch": 56,
              "velocity": 33,
              "position": 9.008333,
              "duration": 0.35
            },
            {
              "pitch": 35,
              "velocity": 54,
              "position": 9.658333,
              "duration": 0.166667
            },
            {
              "pitch": 45,
              "velocity": 68,
              "position": 9.675,
              "duration": 0.133333
            },
            {
              "pitch": 51,
              "velocity": 94,
              "position": 9.675,
              "duration": 0.166667
            },
            {
              "pitch": 62,
              "velocity": 66,
              "position": 9.675,
              "duration": 0.141667
            },
            {
              "pitch": 51,
              "velocity": 47,
              "position": 10.008333,
              "duration": 0.425
            },
            {
              "pitch": 56,
              "velocity": 30,
              "position": 10.008333,
              "duration": 0.333333
            },
            {
              "pitch": 35,
              "velocity": 30,
              "position": 10.675,
              "duration": 0.15
            },
            {
              "pitch": 51,
              "velocity": 56,
              "position": 10.991667,
              "duration": 0.25
            },
            {
              "pitch": 56,
              "velocity": 37,
              "position": 10.991667,
              "duration": 0.4
            },
            {
              "pitch": 44,
              "velocity": 86,
              "position": 11.008333,
              "duration": 0.25
            },
            {
              "pitch": 51,
              "velocity": 80,
              "position": 11.658333,
              "duration": 0.341667
            },
            {
              "pitch": 63,
              "velocity": 68,
              "position": 11.658333,
              "duration": 0.158333
            },
            {
              "pitch": 56,
              "velocity": 42,
              "position": 12.016667,
              "duration": 0.15
            },
            {
              "pitch": 35,
              "velocity": 22,
              "position": 12.358333,
              "duration": 0.066667
            },
            {
              "pitch": 39,
              "velocity": 62,
              "position": 12.675,
              "duration": 0.1
            },
            {
              "pitch": 44,
              "velocity": 74,
              "position": 12.675,
              "duration": 0.166667
            },
            {
              "pitch": 56,
              "velocity": 35,
              "position": 12.975,
              "duration": 0.183333
            },
            {
              "pitch": 39,
              "velocity": 58,
              "position": 13.008333,
              "duration": 0.116667
            },
            {
              "pitch": 51,
              "velocity": 37,
              "position": 13.008333,
              "duration": 0.133333
            },
            {
              "pitch": 61,
              "velocity": 25,
              "position": 13.308333,
              "duration": 0.116667
            },
            {
              "pitch": 51,
              "velocity": 37,
              "position": 13.341667,
              "duration": 0.116667
            },
            {
              "pitch": 39,
              "velocity": 58,
              "position": 13.35,
              "duration": 0.083333
            },
            {
              "pitch": 62,
              "velocity": 43,
              "position": 13.633333,
              "duration": 0.1
            },
            {
              "pitch": 39,
              "velocity": 75,
              "position": 13.675,
              "duration": 0.1
            },
            {
              "pitch": 51,
              "velocity": 60,
              "position": 13.675,
              "duration": 0.133333
            },
            {
              "pitch": 46,
              "velocity": 75,
              "position": 13.683333,
              "duration": 0.133333
            },
            {
              "pitch": 56,
              "velocity": 50,
              "position": 13.975,
              "duration": 0.233333
            },
            {
              "pitch": 62,
              "velocity": 68,
              "position": 13.975,
              "duration": 0.216667
            },
            {
              "pitch": 39,
              "velocity": 87,
              "position": 14.008333,
              "duration": 0.7
            },
            {
              "pitch": 51,
              "velocity": 83,
              "position": 14.008333,
              "duration": 0.283333
            },
            {
              "pitch": 46,
              "velocity": 53,
              "position": 14.35,
              "duration": 0.083333
            },
            {
              "pitch": 48,
              "velocity": 105,
              "position": 14.658333,
              "duration": 0.3
            },
            {
              "pitch": 56,
              "velocity": 49,
              "position": 14.658333,
              "duration": 0.133333
            },
            {
              "pitch": 62,
              "velocity": 66,
              "position": 14.658333,
              "duration": 0.116667
            },
            {
              "pitch": 46,
              "velocity": 38,
              "position": 14.675,
              "duration": 0.066667
            },
            {
              "pitch": 39,
              "velocity": 64,
              "position": 14.991667,
              "duration": 0.3
            },
            {
              "pitch": 56,
              "velocity": 33,
              "position": 15.008333,
              "duration": 0.116667
            },
            {
              "pitch": 62,
              "velocity": 38,
              "position": 15.016667,
              "duration": 0.116667
            },
            {
              "pitch": 45,
              "velocity": 66,
              "position": 15.325,
              "duration": 0.1
            },
            {
              "pitch": 39,
              "velocity": 52,
              "position": 15.658333,
              "duration": 0.183333
            },
            {
              "pitch": 62,
              "velocity": 55,
              "position": 15.666667,
              "duration": 0.1
            }
          ]
        },
        "10": {
          "ctab": {
            "srcChannel": 10,
            "name": "Bass",
            "accType": "BASS",
            "editable": true,
            "mutedNotes": [],
            "mutedChords": [],
            "sourceChordNote": 0,
            "sourceChordType": "Maj7",
            "ctb2Main": {
              "ntr": "ROOT_TRANSPOSITION",
              "ntt": "BYPASS",
              "bassOn": true,
              "noteLowLimit": 20,
              "noteHighLimit": 60,
              "chordRootUpperLimit": 127,
              "rtr": "NOTE_GENERATOR"
            }
          },
          "notes": [
            {
              "pitch": 36,
              "velocity": 71,
              "position": 0.016667,
              "duration": 0.441667
            },
            {
              "pitch": 36,
              "velocity": 66,
              "position": 1.716667,
              "duration": 1.891667
            },
            {
              "pitch": 36,
              "velocity": 71,
              "position": 4.016667,
              "duration": 0.275
            },
            {
              "pitch": 35,
              "velocity": 61,
              "position": 4.325,
              "duration": 0.2
            },
            {
              "pitch": 35,
              "velocity": 71,
              "position": 5.016667,
              "duration": 0.6
            },
            {
              "pitch": 36,
              "velocity": 66,
              "position": 5.716667,
              "duration": 0.833333
            },
            {
              "pitch": 36,
              "velocity": 61,
              "position": 6.708333,
              "duration": 0.25
            },
            {
              "pitch": 36,
              "velocity": 66,
              "position": 7.016667,
              "duration": 0.958333
            },
            {
              "pitch": 36,
              "velocity": 57,
              "position": 8.033333,
              "duration": 1.608333
            },
            {
              "pitch": 47,
              "velocity": 64,
              "position": 9.625,
              "duration": 1.433333
            },
            {
              "pitch": 43,
              "velocity": 39,
              "position": 10.991667,
              "duration": 0.925
            },
            {
              "pitch": 31,
              "velocity": 44,
              "position": 13.683333,
              "duration": 0.241667
            },
            {
              "pitch": 36,
              "velocity": 46,
              "position": 14.0,
              "duration": 0.975
            },
            {
              "pitch": 35,
              "velocity": 51,
              "position": 15.041667,
              "duration": 0.883333
            }
          ]
        },
        "11": {
          "ctab": {
            "srcChannel": 11,
            "name": "Piano",
            "accType": "CHORD1",
            "editable": true,
            "mutedNotes": [],
            "mutedChords": [],
            "sourceChordNote": 0,
            "sourceChordType": "Maj7",
            "ctb2Main": {
              "ntr": "ROOT_FIXED",
              "ntt": "CHORD",
              "bassOn": false,
              "noteLowLimit": 48,
              "noteHighLimit": 84,
              "chordRootUpperLimit": 127,
              "rtr": "NOTE_GENERATOR"
            }
          },
          "notes": [
            {
              "pitch": 71,
              "velocity": 33,
              "position": 0.666667,
              "duration": 1.316667
            },
            {
              "pitch": 62,
              "velocity": 26,
              "position": 0.683333,
              "duration": 1.3
            },
            {
              "pitch": 64,
              "velocity": 33,
              "position": 0.691667,
              "duration": 1.291667
            },
            {
              "pitch": 67,
              "velocity": 31,
              "position": 0.691667,
              "duration": 1.291667
            },
            {
              "pitch": 62,
              "velocity": 26,
              "position": 2.025,
              "duration": 1.35
            },
            {
              "pitch": 64,
              "velocity": 33,
              "position": 2.025,
              "duration": 1.366667
            },
            {
              "pitch": 67,
              "velocity": 31,
              "position": 2.025,
              "duration": 1.366667
            },
            {
              "pitch": 71,
              "velocity": 33,
              "position": 2.025,
              "duration": 1.441667
            },
            {
              "pitch": 62,
              "velocity": 26,
              "position": 4.025,
              "duration": 1.633333
            },
            {
              "pitch": 64,
              "velocity": 33,
              "position": 4.025,
              "duration": 1.658333
            },
            {
              "pitch": 71,
              "velocity": 33,
              "position": 4.025,
              "duration": 1.7
            },
            {
              "pitch": 62,
              "velocity": 26,
              "position": 6.025,
              "duration": 1.35
            },
            {
              "pitch": 64,
              "velocity": 33,
              "position": 6.025,
              "duration": 1.366667
            },
            {
              "pitch": 67,
              "velocity": 31,
              "position": 6.025,
              "duration": 1.366667
            },
            {
              "pitch": 71,
              "velocity": 33,
              "position": 6.025,
              "duration": 1.441667
            },
            {
              "pitch": 74,
              "velocity": 41,
              "position": 9.075,
              "duration": 0.716667
            },
            {
              "pitch": 60,
              "velocity": 26,
              "position": 9.725,
              "duration": 0.35
            },
            {
              "pitch": 55,
              "velocity": 26,
              "position": 11.066667,
              "duration": 0.108333
            }
          ]
        },
        "12": {
          "ctab": {
            "srcChannel": 12,
            "name": "Guitar",
            "accType": "CHORD2",
            "editable": true,
            "mutedNotes": [],
            "mutedChords": [],
            "sourceChordNote": 0,
            "sourceChordType": "Maj7",
            "ctb2Main": {
              "ntr": "ROOT_FIXED",
              "ntt": "CHORD",
              "bassOn": false,
              "noteLowLimit": 40,
              "noteHighLimit": 76,
              "chordRootUpperLimit": 127,
              "rtr": "NOTE_GENERATOR"
            }
          },
          "notes": [
            {
              "pitch": 64,
              "velocity": 35,
              "position": 1.05,
              "duration": 0.458333
            },
            {
              "pitch": 67,
              "velocity": 31,
              "position": 1.05,
              "duration": 0.425
            },
            {
              "pitch": 64,
              "velocity": 28,
              "position": 1.716667,
              "duration": 0.175
            },
            {
              "pitch": 67,
              "velocity": 29,
              "position": 1.733333,
              "duration": 0.125
            },
            {
              "pitch": 64,
              "velocity": 35,
              "position": 3.05,
              "duration": 0.458333
            },
            {
              "pitch": 67,
              "velocity": 31,
              "position": 3.05,
              "duration": 0.425
            },
            {
              "pitch": 64,
              "velocity": 28,
              "position": 3.716667,
              "duration": 0.175
            },
            {
              "pitch": 67,
              "velocity": 29,
              "position": 3.733333,
              "duration": 0.125
            },
            {
              "pitch": 64,
              "velocity": 34,
              "position": 5.066667,
              "duration": 0.175
            },
            {
              "pitch": 67,
              "velocity": 36,
              "position": 5.066667,
              "duration": 0.191667
            },
            {
              "pitch": 64,
              "velocity": 35,
              "position": 7.05,
              "duration": 0.458333
            },
            {
              "pitch": 67,
              "velocity": 31,
              "position": 7.05,
              "duration": 0.425
            },
            {
              "pitch": 64,
              "velocity": 28,
              "position": 7.716667,
              "duration": 0.175
            },
            {
              "pitch": 67,
              "velocity": 29,
              "position": 7.733333,
              "duration": 0.125
            },
            {
              "pitch": 55,
              "velocity": 24,
              "position": 8.375,
              "duration": 0.116667
            },
            {
              "pitch": 55,
              "velocity": 36,
              "position": 8.708333,
              "duration": 0.1
            },
            {
              "pitch": 59,
              "velocity": 31,
              "position": 8.825,
              "duration": 0.141667
            },
            {
              "pitch": 55,
              "velocity": 31,
              "position": 9.016667,
              "duration": 0.108333
            },
            {
              "pitch": 59,
              "velocity": 26,
              "position": 9.141667,
              "duration": 0.108333
            },
            {
              "pitch": 55,
              "velocity": 44,
              "position": 9.3,
              "duration": 0.141667
            },
            {
              "pitch": 59,
              "velocity": 32,
              "position": 9.441667,
              "duration": 0.125
            },
            {
              "pitch": 55,
              "velocity": 45,
              "position": 9.616667,
              "duration": 0.133333
            },
            {
              "pitch": 59,
              "velocity": 31,
              "position": 9.741667,
              "duration": 0.116667
            },
            {
              "pitch": 55,
              "velocity": 54,
              "position": 9.891667,
              "duration": 0.175
            },
            {
              "pitch": 59,
              "velocity": 38,
              "position": 10.033333,
              "duration": 0.141667
            },
            {
              "pitch": 55,
              "velocity": 40,
              "position": 10.208333,
              "duration": 0.158333
            },
            {
              "pitch": 59,
              "velocity": 33,
              "position": 10.333333,
              "duration": 0.158333
            },
            {
              "pitch": 55,
              "velocity": 36,
              "position": 10.541667,
              "duration": 0.141667
            },
            {
              "pitch": 59,
              "velocity": 33,
              "position": 10.666667,
              "duration": 0.141667
            },
            {
              "pitch": 55,
              "velocity": 44,
              "position": 10.841667,
              "duration": 0.175
            },
            {
              "pitch": 59,
              "velocity": 35,
              "position": 11.0,
              "duration": 0.133333
            },
            {
              "pitch": 55,
              "velocity": 30,
              "position": 11.191667,
              "duration": 0.158333
            },
            {
              "pitch": 59,
              "velocity": 28,
              "position": 11.316667,
              "duration": 0.116667
            },
            {
              "pitch": 55,
              "velocity": 33,
              "position": 11.541667,
              "duration": 0.1
            },
            {
              "pitch": 59,
              "velocity": 26,
              "position": 11.658333,
              "duration": 0.108333
            },
            {
              "pitch": 55,
              "velocity": 27,
              "position": 11.858333,
              "duration": 0.133333
            },
            {
              "pitch": 59,
              "velocity": 23,
              "position": 12.008333,
              "duration": 0.2
            },
            {
              "pitch": 55,
              "velocity": 35,
              "position": 12.191667,
              "duration": 0.116667
            },
            {
              "pitch": 60,
              "velocity": 35,
              "position": 12.4,
              "duration": 0.083333
            },
            {
              "pitch": 55,
              "velocity": 32,
              "position": 12.533333,
              "duration": 0.141667
            },
            {
              "pitch": 60,
              "velocity": 37,
              "position": 12.675,
              "duration": 0.158333
            },
            {
              "pitch": 55,
              "velocity": 30,
              "position": 12.866667,
              "duration": 0.125
            },
            {
              "pitch": 60,
              "velocity": 33,
              "position": 13.008333,
              "duration": 0.108333
            },
            {
              "pitch": 55,
              "velocity": 34,
              "position": 13.183333,
              "duration": 0.108333
            },
            {
              "pitch": 60,
              "velocity": 30,
              "position": 13.308333,
              "duration": 0.125
            },
            {
              "pitch": 55,
              "velocity": 26,
              "position": 13.5,
              "duration": 0.108333
            },
            {
              "pitch": 60,
              "velocity": 24,
              "position": 13.658333,
              "duration": 0.1
            },
            {
              "pitch": 55,
              "velocity": 30,
              "position": 13.8,
              "duration": 0.158333
            },
            {
              "pitch": 60,
              "velocity": 16,
              "position": 13.866667,
              "duration": 0.158333
            }
          ]
        },
        "13": {
          "ctab": {
            "srcChannel": 13,
            "name": "Strings",
            "accType": "PAD",
            "editable": true,
            "mutedNotes": [],
            "mutedChords": [],
            "sourceChordNote": 0,
            "sourceChordType": "Maj7",
            "ctb2Main": {
              "ntr": "ROOT_FIXED",
              "ntt": "MELODY",
              "bassOn": false,
              "noteLowLimit": 36,
              "noteHighLimit": 96,
              "chordRootUpperLimit": 127,
              "rtr": "PITCH_SHIFT"
            }
          },
          "notes": []
        }
      }
    },
    "Main_C": {
      "type": "Main_C",
      "sizeInBeats": 16,
      "channels": {
        "9": {
          "ctab": {
            "srcChannel": 9,
            "name": "Drums",
            "accType": "RHYTHM",
            "editable": false,
            "mutedNotes": [],
            "mutedChords": [],
            "sourceChordNote": 0,
            "sourceChordType": "Maj",
            "ctb2Main": {
              "ntr": "ROOT_FIXED",
              "ntt": "BYPASS",
              "bassOn": false,
              "noteLowLimit": 20,
              "noteHighLimit": 127,
              "chordRootUpperLimit": 127,
              "rtr": "RETRIGGER"
            }
          },
          "notes": [
            {
              "pitch": 51,
              "velocity": 71,
              "position": 0.0,
              "duration": 0.616667
            },
            {
              "pitch": 56,
              "velocity": 26,
              "position": 0.0,
              "duration": 0.316667
            },
            {
              "pitch": 35,
              "velocity": 54,
              "position": 0.008333,
              "duration": 0.183333
            },
            {
              "pitch": 37,
              "velocity": 42,
              "position": 0.325,
              "duration": 0.116667
            },
            {
              "pitch": 62,
              "velocity": 34,
              "position": 0.666667,
              "duration": 0.233333
            },
            {
              "pitch": 56,
              "velocity": 29,
              "position": 0.991667,
              "duration": 0.283333
            },
            {
              "pitch": 63,
              "velocity": 37,
              "position": 0.991667,
              "duration": 0.2
            },
            {
              "pitch": 44,
              "velocity": 73,
              "position": 1.008333,
              "duration": 0.166667
            },
            {
              "pitch": 51,
              "velocity": 71,
              "position": 1.008333,
              "duration": 0.591667
            },
            {
              "pitch": 63,
              "velocity": 51,
              "position": 1.658333,
              "duration": 0.216667
            },
            {
              "pitch": 35,
              "velocity": 50,
              "position": 1.675,
              "duration": 0.15
            },
            {
              "pitch": 37,
              "velocity": 36,
              "position": 1.675,
              "duration": 0.133333
            },
            {
              "pitch": 56,
              "velocity": 27,
              "position": 1.991667,
              "duration": 0.35
            },
            {
              "pitch": 51,
              "velocity": 71,
              "position": 2.008333,
              "duration": 0.55
            },
            {
              "pitch": 44,
              "velocity": 84,
              "position": 3.008333,
              "duration": 0.266667
            },
            {
              "pitch": 51,
              "velocity": 74,
              "position": 3.008333,
              "duration": 0.625
            },
            {
              "pitch": 56,
              "velocity": 33,
              "position": 3.008333,
              "duration": 0.283333
            },
            {
              "pitch": 45,
              "velocity": 38,
              "position": 3.341667,
              "duration": 0.133333
            },
            {
              "pitch": 48,
              "velocity": 64,
              "position": 4.008333,
              "duration": 0.25
            },
            {
              "pitch": 51,
              "velocity": 71,
              "position": 4.008333,
              "duration": 0.583333
            },
            {
              "pitch": 56,
              "velocity": 47,
              "position": 4.008333,
              "duration": 0.266667
            },
            {
              "pitch": 35,
              "velocity": 46,
              "position": 4.341667,
              "duration": 0.233333
            },
            {
              "pitch": 48,
              "velocity": 49,
              "position": 4.675,
              "duration": 0.133333
            },
            {
              "pitch": 62,
              "velocity": 40,
              "position": 4.675,
              "duration": 0.15
            },
            {
              "pitch": 51,
              "velocity": 71,
              "position": 4.991667,
              "duration": 0.666667
            },
            {
              "pitch": 44,
              "velocity": 92,
              "position": 5.008333,
              "duration": 0.216667
            },
            {
              "pitch": 56,
              "velocity": 33,
              "position": 5.008333,
              "duration": 0.183333
            },
            {
              "pitch": 63,
              "velocity": 40,
              "position": 5.008333,
              "duration": 0.166667
            },
            {
              "pitch": 39,
              "velocity": 25,
              "position": 5.325,
              "duration": 0.116667
            },
            {
              "pitch": 39,
              "velocity": 33,
              "position": 5.658333,
              "duration": 0.116667
            },
            {
              "pitch": 63,
              "velocity": 65,
              "position": 5.675,
              "duration": 0.183333
            },
            {
              "pitch": 39,
              "velocity": 71,
              "position": 5.991667,
              "duration": 0.216667
            },
            {
              "pitch": 51,
              "velocity": 59,
              "position": 5.991667,
              "duration": 0.116667
            },
            {
              "pitch": 35,
              "velocity": 42,
              "position": 6.0,
              "duration": 0.216667
            },
            {
              "pitch": 56,
              "velocity": 36,
              "position": 6.008333,
              "duration": 0.25
            },
            {
              "pitch": 51,
              "velocity": 55,
              "position": 6.325,
              "duration": 0.3
            },
            {
              "pitch": 35,
              "velocity": 32,
              "position": 6.675,
              "duration": 0.15
            },
            {
              "pitch": 39,
              "velocity": 83,
              "position": 6.675,
              "duration": 0.266667
            },
            {
              "pitch": 56,
              "velocity": 39,
              "position": 6.991667,
              "duration": 0.2
            },
            {
              "pitch": 64,
              "velocity": 66,
              "position": 6.991667,
              "duration": 0.166667
            },
            {
              "pitch": 44,
              "velocity": 84,
              "position": 7.008333,
              "duration": 0.283333
            },
            {
              "pitch": 51,
              "velocity": 81,
              "position": 7.008333,
              "duration": 0.6
            },
            {
              "pitch": 48,
              "velocity": 52,
              "position": 8.0,
              "duration": 0.15
            },
            {
              "pitch": 35,
              "velocity": 54,
              "position": 8.008333,
              "duration": 0.183333
            },
            {
              "pitch": 51,
              "velocity": 80,
              "position": 8.008333,
              "duration": 0.633333
            },
            {
              "pitch": 56,
              "velocity": 44,
              "position": 8.008333,
              "duration": 0.233333
            },
            {
              "pitch": 62,
              "velocity": 40,
              "position": 8.675,
              "duration": 0.166667
            },
            {
              "pitch": 44,
              "velocity": 73,
              "position": 9.008333,
              "duration": 0.166667
            },
            {
              "pitch": 51,
              "velocity": 61,
              "position": 9.008333,
              "duration": 0.3
            },
            {
              "pitch": 56,
              "velocity": 29,
              "position": 9.008333,
              "duration": 0.2
            },
            {
              "pitch": 63,
              "velocity": 43,
              "position": 9.008333,
              "duration": 0.15
            },
            {
              "pitch": 37,
              "velocity": 52,
              "position": 9.658333,
              "duration": 0.15
            },
            {
              "pitch": 35,
              "velocity": 50,
              "position": 9.675,
              "duration": 0.15
            },
            {
              "pitch": 51,
              "velocity": 80,
              "position": 9.675,
              "duration": 0.2
            },
            {
              "pitch": 63,
              "velocity": 69,
              "position": 9.675,
              "duration": 0.15
            },
            {
              "pitch": 56,
              "velocity": 33,
              "position": 9.991667,
              "duration": 0.316667
            },
            {
              "pitch": 51,
              "velocity": 51,
              "position": 10.325,
              "duration": 0.066667
            },
            {
              "pitch": 39,
              "velocity": 78,
              "position": 10.675,
              "duration": 0.166667
            },
            {
              "pitch": 44,
              "velocity": 84,
              "position": 11.008333,
              "duration": 0.266667
            },
            {
              "pitch": 51,
              "velocity": 73,
              "position": 11.008333,
              "duration": 0.3
            },
            {
              "pitch": 56,
              "velocity": 39,
              "position": 11.008333,
              "duration": 0.216667
            },
            {
              "pitch": 56,
              "velocity": 32,
              "position": 12.0,
              "duration": 0.183333
            },
            {
              "pitch": 35,
              "velocity": 56,
              "position": 12.008333,
              "duration": 0.133333
            },
            {
              "pitch": 37,
              "velocity": 64,
              "position": 12.325,
              "duration": 0.15
            },
            {
              "pitch": 63,
              "velocity": 27,
              "position": 12.591667,
              "duration": 0.116667
            },
            {
              "pitch": 48,
              "velocity": 74,
              "position": 12.658333,
              "duration": 0.1
            },
            {
              "pitch": 46,
              "velocity": 57,
              "position": 12.675,
              "duration": 0.083333
            },
            {
              "pitch": 39,
              "velocity": 67,
              "position": 12.991667,
              "duration": 0.333333
            },
            {
              "pitch": 56,
              "velocity": 28,
              "position": 13.0,
              "duration": 0.141667
            },
            {
              "pitch": 63,
              "velocity": 37,
              "position": 13.0,
              "duration": 0.133333
            },
            {
              "pitch": 63,
              "velocity": 54,
              "position": 13.308333,
              "duration": 0.158333
            },
            {
              "pitch": 50,
              "velocity": 63,
              "position": 13.325,
              "duration": 0.15
            },
            {
              "pitch": 38,
              "velocity": 63,
              "position": 13.658333,
              "duration": 0.166667
            },
            {
              "pitch": 46,
              "velocity": 56,
              "position": 13.658333,
              "duration": 0.125
            },
            {
              "pitch": 48,
              "velocity": 87,
              "position": 13.991667,
              "duration": 0.15
            },
            {
              "pitch": 56,
              "velocity": 36,
              "position": 14.008333,
              "duration": 0.133333
            },
            {
              "pitch": 48,
              "velocity": 74,
              "position": 14.325,
              "duration": 0.141667
            },
            {
              "pitch": 63,
              "velocity": 51,
              "position": 14.325,
              "duration": 0.133333
            },
            {
              "pitch": 39,
              "velocity": 81,
              "position": 14.658333,
              "duration": 0.483333
            },
            {
              "pitch": 51,
              "velocity": 98,
              "position": 14.991667,
              "duration": 0.25
            },
            {
              "pitch": 56,
              "velocity": 31,
              "position": 15.025,
              "duration": 0.166667
            },
            {
              "pitch": 64,
              "velocity": 65,
              "position": 15.025,
              "duration": 0.166667
            },
            {
              "pitch": 35,
              "velocity": 66,
              "position": 15.333333,
              "duration": 0.166667
            },
            {
              "pitch": 63,
              "velocity": 51,
              "position": 15.35,
              "duration": 0.108333
            },
            {
              "pitch": 46,
              "velocity": 83,
              "position": 15.658333,
              "duration": 0.15
            }
          ]
        },
        "10": {
          "ctab": {
            "srcChannel": 10,
            "name": "Bass",
            "accType": "BASS",
            "editable": true,
            "mutedNotes": [],
            "mutedChords": [],
            "sourceChordNote": 0,
            "sourceChordType": "Maj7",
            "ctb2Main": {
              "ntr": "ROOT_TRANSPOSITION",
              "ntt": "BYPASS",
              "bassOn": true,
              "noteLowLimit": 20,
              "noteHighLimit": 60,
              "chordRootUpperLimit": 127,
              "rtr": "NOTE_GENERATOR"
            }
          },
          "notes": [
            {
              "pitch": 36,
              "velocity": 66,
              "position": 0.016667,
              "duration": 0.541667
            },
            {
              "pitch": 36,
              "velocity": 56,
              "position": 0.691667,
              "duration": 0.141667
            },
            {
              "pitch": 36,
              "velocity": 64,
              "position": 1.041667,
              "duration": 0.225
            },
            {
              "pitch": 36,
              "velocity": 66,
              "position": 1.716667,
              "duration": 0.833333
            },
            {
              "pitch": 36,
              "velocity": 61,
              "position": 2.708333,
              "duration": 0.25
            },
            {
              "pitch": 36,
              "velocity": 66,
              "position": 3.016667,
              "duration": 0.316667
            },
            {
              "pitch": 36,
              "velocity": 71,
              "position": 4.016667,
              "duration": 0.175
            },
            {
              "pitch": 40,
              "velocity": 61,
              "position": 4.325,
              "duration": 0.2
            },
            {
              "pitch": 36,
              "velocity": 71,
              "position": 5.016667,
              "duration": 0.6
            },
            {
              "pitch": 36,
              "velocity": 66,
              "position": 5.716667,
              "duration": 0.833333
            },
            {
              "pitch": 35,
              "velocity": 61,
              "position": 6.708333,
              "duration": 0.25
            },
            {
              "pitch": 36,
              "velocity": 66,
              "position": 7.016667,
              "duration": 0.958333
            },
            {
              "pitch": 36,
              "velocity": 69,
              "position": 8.058333,
              "duration": 0.316667
            },
            {
              "pitch": 40,
              "velocity": 72,
              "position": 9.666667,
              "duration": 1.433333
            },
            {
              "pitch": 36,
              "velocity": 57,
              "position": 11.033333,
              "duration": 0.508333
            },
            {
              "pitch": 35,
              "velocity": 62,
              "position": 13.708333,
              "duration": 0.3
            },
            {
              "pitch": 36,
              "velocity": 60,
              "position": 14.025,
              "duration": 0.983333
            },
            {
              "pitch": 36,
              "velocity": 60,
              "position": 15.025,
              "duration": 0.925
            }
          ]
        },
        "11": {
          "ctab": {
            "srcChannel": 11,
            "name": "Piano",
            "accType": "CHORD1",
            "editable": true,
            "mutedNotes": [],
            "mutedChords": [],
            "sourceChordNote": 0,
            "sourceChordType": "Maj7",
            "ctb2Main": {
              "ntr": "ROOT_FIXED",
              "ntt": "CHORD",
              "bassOn": false,
              "noteLowLimit": 48,
              "noteHighLimit": 84,
              "chordRootUpperLimit": 127,
              "rtr": "NOTE_GENERATOR"
            }
          },
          "notes": [
            {
              "pitch": 71,
              "velocity": 33,
              "position": 0.666667,
              "duration": 0.95
            },
            {
              "pitch": 62,
              "velocity": 26,
              "position": 0.683333,
              "duration": 0.933333
            },
            {
              "pitch": 64,
              "velocity": 33,
              "position": 0.691667,
              "duration": 0.925
            },
            {
              "pitch": 67,
              "velocity": 31,
              "position": 0.691667,
              "duration": 0.925
            },
            {
              "pitch": 62,
              "velocity": 26,
              "position": 1.725,
              "duration": 1.633333
            },
            {
              "pitch": 64,
              "velocity": 33,
              "position": 1.725,
              "duration": 1.65
            },
            {
              "pitch": 67,
              "velocity": 31,
              "position": 1.725,
              "duration": 1.65
            },
            {
              "pitch": 71,
              "velocity": 33,
              "position": 1.725,
              "duration": 1.725
            },
            {
              "pitch": 62,
              "velocity": 26,
              "position": 3.725,
              "duration": 1.633333
            },
            {
              "pitch": 64,
              "velocity": 33,
              "position": 3.725,
              "duration": 1.65
            },
            {
              "pitch": 67,
              "velocity": 31,
              "position": 3.725,
              "duration": 1.65
            },
            {
              "pitch": 71,
              "velocity": 33,
              "position": 3.725,
              "duration": 1.725
            },
            {
              "pitch": 62,
              "velocity": 26,
              "position": 6.025,
              "duration": 1.35
            },
            {
              "pitch": 64,
              "velocity": 33,
              "position": 6.025,
              "duration": 1.366667
            },
            {
              "pitch": 67,
              "velocity": 31,
              "position": 6.025,
              "duration": 1.366667
            },
            {
              "pitch": 71,
              "velocity": 33,
              "position": 6.025,
              "duration": 1.441667
            },
            {
              "pitch": 60,
              "velocity": 24,
              "position": 8.066667,
              "duration": 0.166667
            },
            {
              "pitch": 71,
              "velocity": 28,
              "position": 8.066667,
              "duration": 0.15
            },
            {
              "pitch": 64,
              "velocity": 34,
              "position": 8.075,
              "duration": 0.108333
            },
            {
              "pitch": 64,
              "velocity": 22,
              "position": 11.683333,
              "duration": 1.608333
            },
            {
              "pitch": 67,
              "velocity": 28,
              "position": 11.683333,
              "duration": 1.591667
            },
            {
              "pitch": 71,
              "velocity": 35,
              "position": 11.683333,
              "duration": 1.633333
            },
            {
              "pitch": 74,
              "velocity": 36,
              "position": 11.7,
              "duration": 1.616667
            }
          ]
        },
        "12": {
          "ctab": {
            "srcChannel": 12,
            "name": "Guitar",
            "accType": "CHORD2",
            "editable": true,
            "mutedNotes": [],
            "mutedChords": [],
            "sourceChordNote": 0,
            "sourceChordType": "Maj7",
            "ctb2Main": {
              "ntr": "ROOT_FIXED",
              "ntt": "CHORD",
              "bassOn": false,
              "noteLowLimit": 40,
              "noteHighLimit": 76,
              "chordRootUpperLimit": 127,
              "rtr": "NOTE_GENERATOR"
            }
          },
          "notes": [
            {
              "pitch": 64,
              "velocity": 34,
              "position": 1.066667,
              "duration": 0.175
            },
            {
              "pitch": 67,
              "velocity": 36,
              "position": 1.066667,
              "duration": 0.191667
            },
            {
              "pitch": 64,
              "velocity": 35,
              "position": 3.05,
              "duration": 0.458333
            },
            {
              "pitch": 67,
              "velocity": 31,
              "position": 3.05,
              "duration": 0.425
            },
            {
              "pitch": 64,
              "velocity": 28,
              "position": 3.716667,
              "duration": 0.175
            },
            {
              "pitch": 67,
              "velocity": 29,
              "position": 3.733333,
              "duration": 0.125
            },
            {
              "pitch": 64,
              "velocity": 59,
              "position": 7.066667,
              "duration": 0.175
            },
            {
              "pitch": 67,
              "velocity": 49,
              "position": 7.066667,
              "duration": 0.191667
            },
            {
              "pitch": 64,
              "velocity": 36,
              "position": 10.658333,
              "duration": 0.116667
            },
            {
              "pitch": 67,
              "velocity": 28,
              "position": 11.008333,
              "duration": 0.166667
            },
            {
              "pitch": 60,
              "velocity": 32,
              "position": 12.683333,
              "duration": 0.091667
            },
            {
              "pitch": 71,
              "velocity": 43,
              "position": 13.0,
              "duration": 0.158333
            }
          ]
        },
        "13": {
          "ctab": {
            "srcChannel": 13,
            "name": "Strings",
            "accType": "PAD",
            "editable": true,
            "mutedNotes": [],
            "mutedChords": [],
            "sourceChordNote": 0,
            "sourceChordType": "Maj7",
            "ctb2Main": {
              "ntr": "ROOT_FIXED",
              "ntt": "MELODY",
              "bassOn": false,
              "noteLowLimit": 36,
              "noteHighLimit": 96,
              "chordRootUpperLimit": 127,
              "rtr": "PITCH_SHIFT"
            }
          },
          "notes": []
        }
      }
    },
    "Main_D": {
      "type": "Main_D",
      "sizeInBeats": 16,
      "channels": {
        "9": {
          "ctab": {
            "srcChannel": 9,
            "name": "Drums",
            "accType": "RHYTHM",
            "editable": false,
            "mutedNotes": [],
            "mutedChords": [],
            "sourceChordNote": 0,
            "sourceChordType": "Maj",
            "ctb2Main": {
              "ntr": "ROOT_FIXED",
              "ntt": "BYPASS",
              "bassOn": false,
              "noteLowLimit": 20,
              "noteHighLimit": 127,
              "chordRootUpperLimit": 127,
              "rtr": "RETRIGGER"
            }
          },
          "notes": [
            {
              "pitch": 49,
              "velocity": 83,
              "position": 0.0,
              "duration": 0.658333
            },
            {
              "pitch": 35,
              "velocity": 55,
              "position": 0.008333,
              "duration": 0.2
            },
            {
              "pitch": 56,
              "velocity": 44,
              "position": 0.008333,
              "duration": 0.15
            },
            {
              "pitch": 37,
              "velocity": 40,
              "position": 0.341667,
              "duration": 0.116667
            },
            {
              "pitch": 62,
              "velocity": 34,
              "position": 0.675,
              "duration": 0.15
            },
            {
              "pitch": 51,
              "velocity": 44,
              "position": 0.991667,
              "duration": 0.275
            },
            {
              "pitch": 63,
              "velocity": 32,
              "position": 1.0,
              "duration": 0.266667
            },
            {
              "pitch": 44,
              "velocity": 85,
              "position": 1.008333,
              "duration": 0.158333
            },
            {
              "pitch": 56,
              "velocity": 28,
              "position": 1.008333,
              "duration": 0.2
            },
            {
              "pitch": 35,
              "velocity": 57,
              "position": 1.675,
              "duration": 0.141667
            },
            {
              "pitch": 51,
              "velocity": 79,
              "position": 1.675,
              "duration": 0.15
            },
            {
              "pitch": 63,
              "velocity": 47,
              "position": 1.675,
              "duration": 0.208333
            },
            {
              "pitch": 56,
              "velocity": 36,
              "position": 1.991667,
              "duration": 0.35
            },
            {
              "pitch": 51,
              "velocity": 46,
              "position": 2.008333,
              "duration": 0.6
            },
            {
              "pitch": 37,
              "velocity": 37,
              "position": 2.325,
              "duration": 0.125
            },
            {
              "pitch": 44,
              "velocity": 87,
              "position": 3.008333,
              "duration": 0.258333
            },
            {
              "pitch": 50,
              "velocity": 64,
              "position": 3.008333,
              "duration": 0.133333
            },
            {
              "pitch": 51,
              "velocity": 70,
              "position": 3.008333,
              "duration": 0.316667
            },
            {
              "pitch": 56,
              "velocity": 34,
              "position": 3.008333,
              "duration": 0.225
            },
            {
              "pitch": 48,
              "velocity": 58,
              "position": 3.675,
              "duration": 0.133333
            },
            {
              "pitch": 51,
              "velocity": 65,
              "position": 3.675,
              "duration": 0.133333
            },
            {
              "pitch": 56,
              "velocity": 47,
              "position": 4.0,
              "duration": 0.1
            },
            {
              "pitch": 35,
              "velocity": 62,
              "position": 4.008333,
              "duration": 0.166667
            },
            {
              "pitch": 51,
              "velocity": 74,
              "position": 4.008333,
              "duration": 0.541667
            },
            {
              "pitch": 56,
              "velocity": 34,
              "position": 4.325,
              "duration": 0.15
            },
            {
              "pitch": 39,
              "velocity": 75,
              "position": 4.675,
              "duration": 0.133333
            },
            {
              "pitch": 44,
              "velocity": 75,
              "position": 5.008333,
              "duration": 0.133333
            },
            {
              "pitch": 51,
              "velocity": 67,
              "position": 5.008333,
              "duration": 0.3
            },
            {
              "pitch": 56,
              "velocity": 37,
              "position": 5.008333,
              "duration": 0.25
            },
            {
              "pitch": 62,
              "velocity": 44,
              "position": 5.008333,
              "duration": 0.166667
            },
            {
              "pitch": 35,
              "velocity": 54,
              "position": 5.658333,
              "duration": 0.166667
            },
            {
              "pitch": 37,
              "velocity": 36,
              "position": 5.675,
              "duration": 0.116667
            },
            {
              "pitch": 51,
              "velocity": 74,
              "position": 5.675,
              "duration": 0.15
            },
            {
              "pitch": 63,
              "velocity": 67,
              "position": 5.675,
              "duration": 0.166667
            },
            {
              "pitch": 51,
              "velocity": 56,
              "position": 6.008333,
              "duration": 0.4
            },
            {
              "pitch": 56,
              "velocity": 28,
              "position": 6.008333,
              "duration": 0.233333
            },
            {
              "pitch": 53,
              "velocity": 81,
              "position": 6.666667,
              "duration": 0.166667
            },
            {
              "pitch": 35,
              "velocity": 30,
              "position": 6.675,
              "duration": 0.15
            },
            {
              "pitch": 37,
              "velocity": 32,
              "position": 6.675,
              "duration": 0.133333
            },
            {
              "pitch": 51,
              "velocity": 64,
              "position": 6.991667,
              "duration": 0.633333
            },
            {
              "pitch": 56,
              "velocity": 37,
              "position": 7.0,
              "duration": 0.166667
            },
            {
              "pitch": 44,
              "velocity": 86,
              "position": 7.008333,
              "duration": 0.25
            },
            {
              "pitch": 50,
              "velocity": 42,
              "position": 7.008333,
              "duration": 0.15
            },
            {
              "pitch": 48,
              "velocity": 34,
              "position": 7.341667,
              "duration": 0.133333
            },
            {
              "pitch": 45,
              "velocity": 42,
              "position": 7.658333,
              "duration": 0.133333
            },
            {
              "pitch": 56,
              "velocity": 49,
              "position": 7.675,
              "duration": 0.266667
            },
            {
              "pitch": 56,
              "velocity": 31,
              "position": 8.0,
              "duration": 0.266667
            },
            {
              "pitch": 35,
              "velocity": 54,
              "position": 8.008333,
              "duration": 0.183333
            },
            {
              "pitch": 51,
              "velocity": 61,
              "position": 8.008333,
              "duration": 0.616667
            },
            {
              "pitch": 51,
              "velocity": 67,
              "position": 8.991667,
              "duration": 0.275
            },
            {
              "pitch": 56,
              "velocity": 33,
              "position": 8.991667,
              "duration": 0.3
            },
            {
              "pitch": 44,
              "velocity": 73,
              "position": 9.008333,
              "duration": 0.166667
            },
            {
              "pitch": 39,
              "velocity": 44,
              "position": 9.333333,
              "duration": 0.141667
            },
            {
              "pitch": 35,
              "velocity": 50,
              "position": 9.675,
              "duration": 0.15
            },
            {
              "pitch": 57,
              "velocity": 60,
              "position": 9.675,
              "duration": 0.15
            },
            {
              "pitch": 56,
              "velocity": 33,
              "position": 9.991667,
              "duration": 0.25
            },
            {
              "pitch": 51,
              "velocity": 50,
              "position": 10.008333,
              "duration": 0.591667
            },
            {
              "pitch": 39,
              "velocity": 44,
              "position": 10.333333,
              "duration": 0.2
            },
            {
              "pitch": 64,
              "velocity": 33,
              "position": 10.675,
              "duration": 0.166667
            },
            {
              "pitch": 44,
              "velocity": 84,
              "position": 11.008333,
              "duration": 0.266667
            },
            {
              "pitch": 51,
              "velocity": 61,
              "position": 11.008333,
              "duration": 0.65
            },
            {
              "pitch": 56,
              "velocity": 28,
              "position": 11.008333,
              "duration": 0.2
            },
            {
              "pitch": 63,
              "velocity": 35,
              "position": 11.008333,
              "duration": 0.15
            },
            {
              "pitch": 39,
              "velocity": 54,
              "position": 11.341667,
              "duration": 0.175
            },
            {
              "pitch": 62,
              "velocity": 60,
              "position": 11.658333,
              "duration": 0.141667
            },
            {
              "pitch": 35,
              "velocity": 63,
              "position": 12.0,
              "duration": 0.366667
            },
            {
              "pitch": 56,
              "velocity": 36,
              "position": 12.0,
              "duration": 0.283333
            },
            {
              "pitch": 57,
              "velocity": 74,
              "position": 12.658333,
              "duration": 0.233333
            },
            {
              "pitch": 39,
              "velocity": 70,
              "position": 12.675,
              "duration": 0.166667
            },
            {
              "pitch": 46,
              "velocity": 70,
              "position": 12.675,
              "duration": 0.15
            },
            {
              "pitch": 56,
              "velocity": 48,
              "position": 12.975,
              "duration": 0.266667
            },
            {
              "pitch": 38,
              "velocity": 43,
              "position": 13.008333,
              "duration": 0.066667
            },
            {
              "pitch": 64,
              "velocity": 44,
              "position": 13.333333,
              "duration": 0.1
            },
            {
              "pitch": 50,
              "velocity": 63,
              "position": 13.341667,
              "duration": 0.108333
            },
            {
              "pitch": 63,
              "velocity": 39,
              "position": 13.65,
              "duration": 0.1
            },
            {
              "pitch": 39,
              "velocity": 40,
              "position": 13.658333,
              "duration": 0.141667
            },
            {
              "pitch": 46,
              "velocity": 34,
              "position": 13.675,
              "duration": 0.1
            },
            {
              "pitch": 63,
              "velocity": 52,
              "position": 13.975,
              "duration": 0.133333
            },
            {
              "pitch": 39,
              "velocity": 59,
              "position": 13.991667,
              "duration": 0.116667
            },
            {
              "pitch": 46,
              "velocity": 45,
              "position": 13.991667,
              "duration": 0.116667
            },
            {
              "pitch": 51,
              "velocity": 55,
              "position": 13.991667,
              "duration": 0.141667
            },
            {
              "pitch": 56,
              "velocity": 42,
              "position": 13.991667,
              "duration": 0.225
            },
            {
              "pitch": 39,
              "velocity": 63,
              "position": 14.325,
              "duration": 0.116667
            },
            {
              "pitch": 63,
              "velocity": 50,
              "position": 14.325,
              "duration": 0.1
            },
            {
              "pitch": 51,
              "velocity": 30,
              "position": 14.333333,
              "duration": 0.083333
            },
            {
              "pitch": 46,
              "velocity": 49,
              "position": 14.341667,
              "duration": 0.133333
            },
            {
              "pitch": 63,
              "velocity": 71,
              "position": 14.65,
              "duration": 0.225
            },
            {
              "pitch": 39,
              "velocity": 90,
              "position": 14.658333,
              "duration": 0.133333
            },
            {
              "pitch": 51,
              "velocity": 64,
              "position": 14.658333,
              "duration": 0.133333
            },
            {
              "pitch": 46,
              "velocity": 71,
              "position": 14.675,
              "duration": 0.133333
            },
            {
              "pitch": 56,
              "velocity": 56,
              "position": 14.983333,
              "duration": 0.183333
            },
            {
              "pitch": 39,
              "velocity": 98,
              "position": 15.0,
              "duration": 0.441667
            },
            {
              "pitch": 51,
              "velocity": 93,
              "position": 15.0,
              "duration": 0.408333
            },
            {
              "pitch": 46,
              "velocity": 85,
              "position": 15.008333,
              "duration": 0.208333
            },
            {
              "pitch": 39,
              "velocity": 55,
              "position": 15.65,
              "duration": 0.166667
            }
          ]
        },
        "10": {
          "ctab": {
            "srcChannel": 10,
            "name": "Bass",
            "accType": "BASS",
            "editable": true,
            "mutedNotes": [],
            "mutedChords": [],
            "sourceChordNote": 0,
            "sourceChordType": "Maj7",
            "ctb2Main": {
              "ntr": "ROOT_TRANSPOSITION",
              "ntt": "BYPASS",
              "bassOn": true,
              "noteLowLimit": 20,
              "noteHighLimit": 60,
              "chordRootUpperLimit": 127,
              "rtr": "NOTE_GENERATOR"
            }
          },
          "notes": [
            {
              "pitch": 36,
              "velocity": 66,
              "position": 0.016667,
              "duration": 0.541667
            },
            {
              "pitch": 36,
              "velocity": 56,
              "position": 0.691667,
              "duration": 0.141667
            },
            {
              "pitch": 36,
              "velocity": 64,
              "position": 1.041667,
              "duration": 0.225
            },
            {
              "pitch": 36,
              "velocity": 66,
              "position": 1.716667,
              "duration": 0.833333
            },
            {
              "pitch": 36,
              "velocity": 61,
              "position": 2.708333,
              "duration": 0.25
            },
            {
              "pitch": 48,
              "velocity": 66,
              "position": 3.016667,
              "duration": 0.316667
            },
            {
              "pitch": 36,
              "velocity": 71,
              "position": 4.016667,
              "duration": 0.175
            },
            {
              "pitch": 36,
              "velocity": 61,
              "position": 4.325,
              "duration": 0.2
            },
            {
              "pitch": 36,
              "velocity": 71,
              "position": 5.016667,
              "duration": 0.6
            },
            {
              "pitch": 36,
              "velocity": 66,
              "position": 5.716667,
              "duration": 0.833333
            },
            {
              "pitch": 36,
              "velocity": 61,
              "position": 6.708333,
              "duration": 0.25
            },
            {
              "pitch": 48,
              "velocity": 66,
              "position": 7.016667,
              "duration": 0.958333
            },
            {
              "pitch": 36,
              "velocity": 58,
              "position": 8.025,
              "duration": 1.608333
            },
            {
              "pitch": 43,
              "velocity": 59,
              "position": 9.633333,
              "duration": 1.4
            },
            {
              "pitch": 31,
              "velocity": 42,
              "position": 10.991667,
              "duration": 2.191667
            },
            {
              "pitch": 35,
              "velocity": 51,
              "position": 13.641667,
              "duration": 0.258333
            },
            {
              "pitch": 36,
              "velocity": 66,
              "position": 14.633333,
              "duration": 0.316667
            },
            {
              "pitch": 35,
              "velocity": 62,
              "position": 15.0,
              "duration": 0.875
            }
          ]
        },
        "11": {
          "ctab": {
            "srcChannel": 11,
            "name": "Piano",
            "accType": "CHORD1",
            "editable": true,
            "mutedNotes": [],
            "mutedChords": [],
            "sourceChordNote": 0,
            "sourceChordType": "Maj7",
            "ctb2Main": {
              "ntr": "ROOT_FIXED",
              "ntt": "CHORD",
              "bassOn": false,
              "noteLowLimit": 48,
              "noteHighLimit": 84,
              "chordRootUpperLimit": 127,
              "rtr": "NOTE_GENERATOR"
            }
          },
          "notes": [
            {
              "pitch": 71,
              "velocity": 33,
              "position": 0.666667,
              "duration": 1.316667
            },
            {
              "pitch": 62,
              "velocity": 26,
              "position": 0.683333,
              "duration": 1.3
            },
            {
              "pitch": 64,
              "velocity": 33,
              "position": 0.691667,
              "duration": 1.291667
            },
            {
              "pitch": 67,
              "velocity": 31,
              "position": 0.691667,
              "duration": 1.291667
            },
            {
              "pitch": 71,
              "velocity": 33,
              "position": 2.666667,
              "duration": 0.95
            },
            {
              "pitch": 62,
              "velocity": 26,
              "position": 2.683333,
              "duration": 0.933333
            },
            {
              "pitch": 64,
              "velocity": 33,
              "position": 2.691667,
              "duration": 0.925
            },
            {
              "pitch": 67,
              "velocity": 31,
              "position": 2.691667,
              "duration": 0.925
            },
            {
              "pitch": 62,
              "velocity": 26,
              "position": 3.725,
              "duration": 1.916667
            },
            {
              "pitch": 64,
              "velocity": 33,
              "position": 3.725,
              "duration": 1.941667
            },
            {
              "pitch": 71,
              "velocity": 33,
              "position": 3.725,
              "duration": 1.891667
            },
            {
              "pitch": 62,
              "velocity": 26,
              "position": 5.725,
              "duration": 1.916667
            },
            {
              "pitch": 64,
              "velocity": 33,
              "position": 5.725,
              "duration": 1.941667
            },
            {
              "pitch": 71,
              "velocity": 33,
              "position": 5.725,
              "duration": 1.983333
            },
            {
              "pitch": 60,
              "velocity": 38,
              "position": 8.033333,
              "duration": 0.158333
            },
            {
              "pitch": 55,
              "velocity": 32,
              "position": 9.666667,
              "duration": 1.45
            },
            {
              "pitch": 59,
              "velocity": 31,
              "position": 11.066667,
              "duration": 4.508333
            },
            {
              "pitch": 62,
              "velocity": 26,
              "position": 15.725,
              "duration": 1.633333
            },
            {
              "pitch": 64,
              "velocity": 33,
              "position": 15.725,
              "duration": 1.65
            },
            {
              "pitch": 67,
              "velocity": 31,
              "position": 15.725,
              "duration": 1.65
            },
            {
              "pitch": 71,
              "velocity": 33,
              "position": 15.725,
              "duration": 1.725
            }
          ]
        },
        "12": {
          "ctab": {
            "srcChannel": 12,
            "name": "Guitar",
            "accType": "CHORD2",
            "editable": true,
            "mutedNotes": [],
            "mutedChords": [],
            "sourceChordNote": 0,
            "sourceChordType": "Maj7",
            "ctb2Main": {
              "ntr": "ROOT_FIXED",
              "ntt": "CHORD",
              "bassOn": false,
              "noteLowLimit": 40,
              "noteHighLimit": 76,
              "chordRootUpperLimit": 127,
              "rtr": "NOTE_GENERATOR"
            }
          },
          "notes": [
            {
              "pitch": 64,
              "velocity": 59,
              "position": 1.066667,
              "duration": 0.175
            },
            {
              "pitch": 67,
              "velocity": 49,
              "position": 1.066667,
              "duration": 0.191667
            },
            {
              "pitch": 64,
              "velocity": 35,
              "position": 3.05,
              "duration": 0.458333
            },
            {
              "pitch": 67,
              "velocity": 31,
              "position": 3.05,
              "duration": 0.425
            },
            {
              "pitch": 64,
              "velocity": 28,
              "position": 3.716667,
              "duration": 0.175
            },
            {
              "pitch": 67,
              "velocity": 29,
              "position": 3.733333,
              "duration": 0.125
            },
            {
              "pitch": 64,
              "velocity": 35,
              "position": 7.05,
              "duration": 0.458333
            },
            {
              "pitch": 67,
              "velocity": 31,
              "position": 7.05,
              "duration": 0.425
            },
            {
              "pitch": 64,
              "velocity": 49,
              "position": 7.716667,
              "duration": 0.175
            },
            {
              "pitch": 67,
              "velocity": 51,
              "position": 7.733333,
              "duration": 0.125
            },
            {
              "pitch": 64,
              "velocity": 36,
              "position": 10.658333,
              "duration": 0.116667
            },
            {
              "pitch": 67,
              "velocity": 28,
              "position": 11.008333,
              "duration": 0.166667
            },
            {
              "pitch": 60,
              "velocity": 32,
              "position": 12.683333,
              "duration": 0.091667
            },
            {
              "pitch": 71,
              "velocity": 43,
              "position": 13.0,
              "duration": 0.158333
            }
          ]
        },
        "13": {
          "ctab": {
            "srcChannel": 13,
            "name": "Strings",
            "accType": "PAD",
            "editable": true,
            "mutedNotes": [],
            "mutedChords": [],
            "sourceChordNote": 0,
            "sourceChordType": "Maj7",
            "ctb2Main": {
              "ntr": "ROOT_FIXED",
              "ntt": "MELODY",
              "bassOn": false,
              "noteLowLimit": 36,
              "noteHighLimit": 96,
              "chordRootUpperLimit": 127,
              "rtr": "PITCH_SHIFT"
            }
          },
          "notes": []
        }
      }
    },
    "Fill_In_AA": {
      "type": "Fill_In_AA",
      "sizeInBeats": 16,
      "channels": {
        "9": {
          "ctab": {
            "srcChannel": 9,
            "name": "Drums",
            "accType": "RHYTHM",
            "editable": false,
            "mutedNotes": [],
            "mutedChords": [],
            "sourceChordNote": 0,
            "sourceChordType": "Maj",
            "ctb2Main": {
              "ntr": "ROOT_FIXED",
              "ntt": "BYPASS",
              "bassOn": false,
              "noteLowLimit": 20,
              "noteHighLimit": 127,
              "chordRootUpperLimit": 127,
              "rtr": "RETRIGGER"
            }
          },
          "notes": [
            {
              "pitch": 56,
              "velocity": 46,
              "position": 0.0,
              "duration": 0.25
            },
            {
              "pitch": 35,
              "velocity": 55,
              "position": 0.008333,
              "duration": 0.2
            },
            {
              "pitch": 51,
              "velocity": 60,
              "position": 0.008333,
              "duration": 0.166667
            },
            {
              "pitch": 51,
              "velocity": 83,
              "position": 0.675,
              "duration": 0.441667
            },
            {
              "pitch": 44,
              "velocity": 85,
              "position": 1.008333,
              "duration": 0.158333
            },
            {
              "pitch": 56,
              "velocity": 51,
              "position": 1.008333,
              "duration": 0.2
            },
            {
              "pitch": 51,
              "velocity": 45,
              "position": 1.325,
              "duration": 0.15
            },
            {
              "pitch": 51,
              "velocity": 50,
              "position": 1.666667,
              "duration": 0.116667
            },
            {
              "pitch": 35,
              "velocity": 57,
              "position": 1.675,
              "duration": 0.141667
            },
            {
              "pitch": 39,
              "velocity": 47,
              "position": 1.675,
              "duration": 0.1
            },
            {
              "pitch": 51,
              "velocity": 79,
              "position": 2.0,
              "duration": 0.5
            },
            {
              "pitch": 56,
              "velocity": 37,
              "position": 2.008333,
              "duration": 0.2
            },
            {
              "pitch": 62,
              "velocity": 45,
              "position": 2.008333,
              "duration": 0.183333
            },
            {
              "pitch": 39,
              "velocity": 49,
              "position": 2.675,
              "duration": 0.125
            },
            {
              "pitch": 63,
              "velocity": 71,
              "position": 2.675,
              "duration": 0.166667
            },
            {
              "pitch": 51,
              "velocity": 74,
              "position": 2.991667,
              "duration": 0.416667
            },
            {
              "pitch": 39,
              "velocity": 52,
              "position": 3.008333,
              "duration": 0.133333
            },
            {
              "pitch": 44,
              "velocity": 87,
              "position": 3.008333,
              "duration": 0.258333
            },
            {
              "pitch": 56,
              "velocity": 25,
              "position": 3.008333,
              "duration": 0.266667
            },
            {
              "pitch": 64,
              "velocity": 44,
              "position": 3.008333,
              "duration": 0.25
            },
            {
              "pitch": 63,
              "velocity": 42,
              "position": 3.675,
              "duration": 0.15
            },
            {
              "pitch": 56,
              "velocity": 29,
              "position": 4.0,
              "duration": 0.283333
            },
            {
              "pitch": 51,
              "velocity": 69,
              "position": 4.008333,
              "duration": 0.408333
            },
            {
              "pitch": 35,
              "velocity": 44,
              "position": 4.341667,
              "duration": 0.175
            },
            {
              "pitch": 39,
              "velocity": 97,
              "position": 4.675,
              "duration": 0.158333
            },
            {
              "pitch": 51,
              "velocity": 71,
              "position": 4.991667,
              "duration": 0.433333
            },
            {
              "pitch": 44,
              "velocity": 99,
              "position": 5.008333,
              "duration": 0.3
            },
            {
              "pitch": 56,
              "velocity": 43,
              "position": 5.008333,
              "duration": 0.333333
            },
            {
              "pitch": 35,
              "velocity": 44,
              "position": 5.658333,
              "duration": 0.216667
            },
            {
              "pitch": 40,
              "velocity": 17,
              "position": 5.658333,
              "duration": 0.183333
            },
            {
              "pitch": 51,
              "velocity": 50,
              "position": 5.675,
              "duration": 0.116667
            },
            {
              "pitch": 39,
              "velocity": 42,
              "position": 6.008333,
              "duration": 0.233333
            },
            {
              "pitch": 51,
              "velocity": 69,
              "position": 6.008333,
              "duration": 0.15
            },
            {
              "pitch": 56,
              "velocity": 40,
              "position": 6.008333,
              "duration": 0.2
            },
            {
              "pitch": 62,
              "velocity": 35,
              "position": 6.341667,
              "duration": 0.158333
            },
            {
              "pitch": 51,
              "velocity": 85,
              "position": 6.666667,
              "duration": 0.5
            },
            {
              "pitch": 35,
              "velocity": 44,
              "position": 6.675,
              "duration": 0.175
            },
            {
              "pitch": 39,
              "velocity": 67,
              "position": 6.675,
              "duration": 0.166667
            },
            {
              "pitch": 63,
              "velocity": 29,
              "position": 6.675,
              "duration": 0.133333
            },
            {
              "pitch": 39,
              "velocity": 58,
              "position": 6.991667,
              "duration": 0.183333
            },
            {
              "pitch": 56,
              "velocity": 37,
              "position": 7.0,
              "duration": 0.35
            },
            {
              "pitch": 44,
              "velocity": 92,
              "position": 7.008333,
              "duration": 0.3
            },
            {
              "pitch": 64,
              "velocity": 60,
              "position": 7.008333,
              "duration": 0.191667
            },
            {
              "pitch": 51,
              "velocity": 59,
              "position": 7.341667,
              "duration": 0.133333
            },
            {
              "pitch": 51,
              "velocity": 47,
              "position": 7.666667,
              "duration": 0.116667
            },
            {
              "pitch": 48,
              "velocity": 52,
              "position": 8.0,
              "duration": 0.15
            },
            {
              "pitch": 35,
              "velocity": 54,
              "position": 8.008333,
              "duration": 0.183333
            },
            {
              "pitch": 51,
              "velocity": 80,
              "position": 8.008333,
              "duration": 0.633333
            },
            {
              "pitch": 56,
              "velocity": 44,
              "position": 8.008333,
              "duration": 0.233333
            },
            {
              "pitch": 62,
              "velocity": 40,
              "position": 8.675,
              "duration": 0.166667
            },
            {
              "pitch": 44,
              "velocity": 73,
              "position": 9.008333,
              "duration": 0.166667
            },
            {
              "pitch": 51,
              "velocity": 61,
              "position": 9.008333,
              "duration": 0.3
            },
            {
              "pitch": 56,
              "velocity": 29,
              "position": 9.008333,
              "duration": 0.2
            },
            {
              "pitch": 63,
              "velocity": 43,
              "position": 9.008333,
              "duration": 0.15
            },
            {
              "pitch": 37,
              "velocity": 52,
              "position": 9.658333,
              "duration": 0.15
            },
            {
              "pitch": 35,
              "velocity": 50,
              "position": 9.675,
              "duration": 0.15
            },
            {
              "pitch": 51,
              "velocity": 80,
              "position": 9.675,
              "duration": 0.2
            },
            {
              "pitch": 63,
              "velocity": 69,
              "position": 9.675,
              "duration": 0.15
            },
            {
              "pitch": 56,
              "velocity": 33,
              "position": 9.991667,
              "duration": 0.316667
            },
            {
              "pitch": 51,
              "velocity": 51,
              "position": 10.325,
              "duration": 0.066667
            },
            {
              "pitch": 39,
              "velocity": 78,
              "position": 10.675,
              "duration": 0.166667
            },
            {
              "pitch": 44,
              "velocity": 84,
              "position": 11.008333,
              "duration": 0.266667
            },
            {
              "pitch": 51,
              "velocity": 73,
              "position": 11.008333,
              "duration": 0.3
            },
            {
              "pitch": 56,
              "velocity": 39,
              "position": 11.008333,
              "duration": 0.216667
            },
            {
              "pitch": 35,
              "velocity": 64,
              "position": 12.008333,
              "duration": 0.183333
            },
            {
              "pitch": 51,
              "velocity": 30,
              "position": 12.008333,
              "duration": 0.583333
            },
            {
              "pitch": 56,
              "velocity": 43,
              "position": 12.008333,
              "duration": 0.183333
            },
            {
              "pitch": 62,
              "velocity": 44,
              "position": 12.416667,
              "duration": 0.083333
            },
            {
              "pitch": 35,
              "velocity": 64,
              "position": 12.658333,
              "duration": 0.166667
            },
            {
              "pitch": 46,
              "velocity": 58,
              "position": 12.658333,
              "duration": 0.116667
            },
            {
              "pitch": 39,
              "velocity": 79,
              "position": 13.0,
              "duration": 0.116667
            },
            {
              "pitch": 51,
              "velocity": 76,
              "position": 13.0,
              "duration": 0.083333
            },
            {
              "pitch": 56,
              "velocity": 44,
              "position": 13.008333,
              "duration": 0.3
            },
            {
              "pitch": 63,
              "velocity": 75,
              "position": 13.008333,
              "duration": 0.2
            },
            {
              "pitch": 39,
              "velocity": 98,
              "position": 13.658333,
              "duration": 0.416667
            },
            {
              "pitch": 46,
              "velocity": 67,
              "position": 13.658333,
              "duration": 0.15
            },
            {
              "pitch": 51,
              "velocity": 56,
              "position": 14.0,
              "duration": 0.233333
            },
            {
              "pitch": 56,
              "velocity": 53,
              "position": 14.008333,
              "duration": 0.2
            },
            {
              "pitch": 64,
              "velocity": 71,
              "position": 14.008333,
              "duration": 0.183333
            },
            {
              "pitch": 35,
              "velocity": 67,
              "position": 14.341667,
              "duration": 0.225
            },
            {
              "pitch": 63,
              "velocity": 44,
              "position": 14.341667,
              "duration": 0.1
            },
            {
              "pitch": 39,
              "velocity": 71,
              "position": 14.658333,
              "duration": 0.25
            },
            {
              "pitch": 46,
              "velocity": 74,
              "position": 14.658333,
              "duration": 0.15
            },
            {
              "pitch": 62,
              "velocity": 59,
              "position": 14.675,
              "duration": 0.15
            },
            {
              "pitch": 51,
              "velocity": 97,
              "position": 14.991667,
              "duration": 0.2
            },
            {
              "pitch": 56,
              "velocity": 62,
              "position": 15.008333,
              "duration": 0.133333
            },
            {
              "pitch": 62,
              "velocity": 62,
              "position": 15.325,
              "duration": 0.15
            },
            {
              "pitch": 53,
              "velocity": 85,
              "position": 15.341667,
              "duration": 0.516667
            },
            {
              "pitch": 63,
              "velocity": 52,
              "position": 15.65,
              "duration": 0.066667
            }
          ]
        },
        "10": {
          "ctab": {
            "srcChannel": 10,
            "name": "Bass",
            "accType": "BASS",
            "editable": true,
            "mutedNotes": [],
            "mutedChords": [],
            "sourceChordNote": 0,
            "sourceChordType": "Maj7",
            "ctb2Main": {
              "ntr": "ROOT_TRANSPOSITION",
              "ntt": "BYPASS",
              "bassOn": true,
              "noteLowLimit": 20,
              "noteHighLimit": 60,
              "chordRootUpperLimit": 127,
              "rtr": "NOTE_GENERATOR"
            }
          },
          "notes": [
            {
              "pitch": 36,
              "velocity": 71,
              "position": 0.016667,
              "duration": 0.441667
            },
            {
              "pitch": 36,
              "velocity": 66,
              "position": 1.716667,
              "duration": 1.341667
            },
            {
              "pitch": 48,
              "velocity": 66,
              "position": 3.016667,
              "duration": 0.316667
            },
            {
              "pitch": 36,
              "velocity": 71,
              "position": 4.016667,
              "duration": 0.275
            },
            {
              "pitch": 35,
              "velocity": 61,
              "position": 4.325,
              "duration": 0.2
            },
            {
              "pitch": 35,
              "velocity": 71,
              "position": 5.016667,
              "duration": 0.6
            },
            {
              "pitch": 36,
              "velocity": 66,
              "position": 5.716667,
              "duration": 0.833333
            },
            {
              "pitch": 35,
              "velocity": 61,
              "position": 6.708333,
              "duration": 0.25
            },
            {
              "pitch": 35,
              "velocity": 66,
              "position": 7.016667,
              "duration": 0.958333
            },
            {
              "pitch": 36,
              "velocity": 69,
              "position": 8.041667,
              "duration": 0.875
            },
            {
              "pitch": 31,
              "velocity": 44,
              "position": 9.616667,
              "duration": 1.383333
            },
            {
              "pitch": 35,
              "velocity": 57,
              "position": 11.0,
              "duration": 1.083333
            },
            {
              "pitch": 36,
              "velocity": 52,
              "position": 12.691667,
              "duration": 0.25
            },
            {
              "pitch": 35,
              "velocity": 59,
              "position": 13.708333,
              "duration": 0.283333
            },
            {
              "pitch": 36,
              "velocity": 65,
              "position": 14.041667,
              "duration": 0.966667
            },
            {
              "pitch": 36,
              "velocity": 57,
              "position": 15.058333,
              "duration": 0.941667
            }
          ]
        },
        "11": {
          "ctab": {
            "srcChannel": 11,
            "name": "Piano",
            "accType": "CHORD1",
            "editable": true,
            "mutedNotes": [],
            "mutedChords": [],
            "sourceChordNote": 0,
            "sourceChordType": "Maj7",
            "ctb2Main": {
              "ntr": "ROOT_FIXED",
              "ntt": "CHORD",
              "bassOn": false,
              "noteLowLimit": 48,
              "noteHighLimit": 84,
              "chordRootUpperLimit": 127,
              "rtr": "NOTE_GENERATOR"
            }
          },
          "notes": [
            {
              "pitch": 71,
              "velocity": 33,
              "position": 6.666667,
              "duration": 1.316667
            },
            {
              "pitch": 62,
              "velocity": 26,
              "position": 6.683333,
              "duration": 1.3
            },
            {
              "pitch": 64,
              "velocity": 33,
              "position": 6.691667,
              "duration": 1.291667
            },
            {
              "pitch": 67,
              "velocity": 31,
              "position": 6.691667,
              "duration": 1.291667
            },
            {
              "pitch": 60,
              "velocity": 38,
              "position": 8.033333,
              "duration": 0.158333
            },
            {
              "pitch": 55,
              "velocity": 32,
              "position": 9.666667,
              "duration": 1.45
            },
            {
              "pitch": 59,
              "velocity": 31,
              "position": 11.066667,
              "duration": 4.508333
            }
          ]
        },
        "12": {
          "ctab": {
            "srcChannel": 12,
            "name": "Guitar",
            "accType": "CHORD2",
            "editable": true,
            "mutedNotes": [],
            "mutedChords": [],
            "sourceChordNote": 0,
            "sourceChordType": "Maj7",
            "ctb2Main": {
              "ntr": "ROOT_FIXED",
              "ntt": "CHORD",
              "bassOn": false,
              "noteLowLimit": 40,
              "noteHighLimit": 76,
              "chordRootUpperLimit": 127,
              "rtr": "NOTE_GENERATOR"
            }
          },
          "notes": [
            {
              "pitch": 64,
              "velocity": 35,
              "position": 1.05,
              "duration": 0.458333
            },
            {
              "pitch": 67,
              "velocity": 31,
              "position": 1.05,
              "duration": 0.425
            },
            {
              "pitch": 64,
              "velocity": 28,
              "position": 1.716667,
              "duration": 0.175
            },
            {
              "pitch": 67,
              "velocity": 29,
              "position": 1.733333,
              "duration": 0.125
            },
            {
              "pitch": 64,
              "velocity": 59,
              "position": 3.066667,
              "duration": 0.175
            },
            {
              "pitch": 67,
              "velocity": 49,
              "position": 3.066667,
              "duration": 0.191667
            },
            {
              "pitch": 64,
              "velocity": 59,
              "position": 7.066667,
              "duration": 0.175
            },
            {
              "pitch": 67,
              "velocity": 49,
              "position": 7.066667,
              "duration": 0.191667
            },
            {
              "pitch": 54,
              "velocity": 31,
              "position": 12.016667,
              "duration": 0.075
            },
            {
              "pitch": 62,
              "velocity": 32,
              "position": 12.241667,
              "duration": 0.233333
            },
            {
              "pitch": 61,
              "velocity": 35,
              "position": 12.508333,
              "duration": 0.225
            },
            {
              "pitch": 56,
              "velocity": 38,
              "position": 12.808333,
              "duration": 0.341667
            },
            {
              "pitch": 64,
              "velocity": 43,
              "position": 13.225,
              "duration": 0.225
            },
            {
              "pitch": 57,
              "velocity": 29,
              "position": 13.241667,
              "duration": 0.175
            },
            {
              "pitch": 61,
              "velocity": 37,
              "position": 13.858333,
              "duration": 0.191667
            },
            {
              "pitch": 67,
              "velocity": 38,
              "position": 14.133333,
              "duration": 0.208333
            },
            {
              "pitch": 61,
              "velocity": 34,
              "position": 14.558333,
              "duration": 0.116667
            },
            {
              "pitch": 62,
              "velocity": 27,
              "position": 14.766667,
              "duration": 0.066667
            },
            {
              "pitch": 69,
              "velocity": 37,
              "position": 14.883333,
              "duration": 0.2
            },
            {
              "pitch": 68,
              "velocity": 32,
              "position": 15.116667,
              "duration": 0.1
            }
          ]
        },
        "13": {
          "ctab": {
            "srcChannel": 13,
            "name": "Strings",
            "accType": "PAD",
            "editable": true,
            "mutedNotes": [],
            "mutedChords": [],
            "sourceChordNote": 0,
            "sourceChordType": "Maj7",
            "ctb2Main": {
              "ntr": "ROOT_FIXED",
              "ntt": "MELODY",
              "bassOn": false,
              "noteLowLimit": 36,
              "noteHighLimit": 96,
              "chordRootUpperLimit": 127,
              "rtr": "PITCH_SHIFT"
            }
          },
          "notes": []
        }
      }
    },
    "Ending_A": {
      "type": "Ending_A",
      "sizeInBeats": 16,
      "channels": {
        "9": {
          "ctab": {
            "srcChannel": 9,
            "name": "Drums",
            "accType": "RHYTHM",
            "editable": false,
            "mutedNotes": [],
            "mutedChords": [],
            "sourceChordNote": 0,
            "sourceChordType": "Maj",
            "ctb2Main": {
              "ntr": "ROOT_FIXED",
              "ntt": "BYPASS",
              "bassOn": false,
              "noteLowLimit": 20,
              "noteHighLimit": 127,
              "chordRootUpperLimit": 127,
              "rtr": "RETRIGGER"
            }
          },
          "notes": [
            {
              "pitch": 35,
              "velocity": 46,
              "position": 0.0,
              "duration": 0.166667
            },
            {
              "pitch": 57,
              "velocity": 55,
              "position": 0.0,
              "duration": 0.558333
            },
            {
              "pitch": 40,
              "velocity": 31,
              "position": 0.008333,
              "duration": 1.016667
            },
            {
              "pitch": 64,
              "velocity": 50,
              "position": 0.675,
              "duration": 0.175
            },
            {
              "pitch": 38,
              "velocity": 48,
              "position": 0.991667,
              "duration": 0.2
            },
            {
              "pitch": 44,
              "velocity": 51,
              "position": 1.008333,
              "duration": 0.2
            },
            {
              "pitch": 56,
              "velocity": 28,
              "position": 1.008333,
              "duration": 0.216667
            },
            {
              "pitch": 63,
              "velocity": 25,
              "position": 1.008333,
              "duration": 0.375
            },
            {
              "pitch": 35,
              "velocity": 50,
              "position": 1.658333,
              "duration": 0.158333
            },
            {
              "pitch": 40,
              "velocity": 33,
              "position": 1.658333,
              "duration": 0.1
            },
            {
              "pitch": 62,
              "velocity": 58,
              "position": 1.675,
              "duration": 0.241667
            },
            {
              "pitch": 40,
              "velocity": 9,
              "position": 1.991667,
              "duration": 0.983333
            },
            {
              "pitch": 56,
              "velocity": 25,
              "position": 1.991667,
              "duration": 0.316667
            },
            {
              "pitch": 38,
              "velocity": 54,
              "position": 2.991667,
              "duration": 0.2
            },
            {
              "pitch": 44,
              "velocity": 63,
              "position": 2.991667,
              "duration": 0.191667
            },
            {
              "pitch": 56,
              "velocity": 28,
              "position": 2.991667,
              "duration": 0.283333
            },
            {
              "pitch": 40,
              "velocity": 11,
              "position": 3.658333,
              "duration": 0.091667
            },
            {
              "pitch": 35,
              "velocity": 50,
              "position": 4.0,
              "duration": 0.183333
            },
            {
              "pitch": 40,
              "velocity": 14,
              "position": 4.0,
              "duration": 0.658333
            },
            {
              "pitch": 56,
              "velocity": 30,
              "position": 4.0,
              "duration": 0.5
            },
            {
              "pitch": 38,
              "velocity": 62,
              "position": 4.991667,
              "duration": 0.191667
            },
            {
              "pitch": 44,
              "velocity": 47,
              "position": 4.991667,
              "duration": 0.166667
            },
            {
              "pitch": 56,
              "velocity": 28,
              "position": 4.991667,
              "duration": 0.516667
            },
            {
              "pitch": 40,
              "velocity": 11,
              "position": 5.008333,
              "duration": 0.441667
            },
            {
              "pitch": 62,
              "velocity": 32,
              "position": 5.008333,
              "duration": 0.1
            },
            {
              "pitch": 35,
              "velocity": 53,
              "position": 5.658333,
              "duration": 0.2
            },
            {
              "pitch": 38,
              "velocity": 35,
              "position": 5.658333,
              "duration": 0.216667
            },
            {
              "pitch": 63,
              "velocity": 69,
              "position": 5.675,
              "duration": 0.133333
            },
            {
              "pitch": 40,
              "velocity": 25,
              "position": 5.991667,
              "duration": 0.641667
            },
            {
              "pitch": 56,
              "velocity": 27,
              "position": 5.991667,
              "duration": 0.45
            },
            {
              "pitch": 40,
              "velocity": 30,
              "position": 6.991667,
              "duration": 0.583333
            },
            {
              "pitch": 44,
              "velocity": 58,
              "position": 6.991667,
              "duration": 0.2
            },
            {
              "pitch": 56,
              "velocity": 27,
              "position": 6.991667,
              "duration": 0.608333
            },
            {
              "pitch": 38,
              "velocity": 56,
              "position": 7.658333,
              "duration": 0.341667
            },
            {
              "pitch": 64,
              "velocity": 45,
              "position": 7.658333,
              "duration": 0.216667
            },
            {
              "pitch": 35,
              "velocity": 46,
              "position": 8.0,
              "duration": 0.166667
            },
            {
              "pitch": 40,
              "velocity": 29,
              "position": 8.0,
              "duration": 1.033333
            },
            {
              "pitch": 56,
              "velocity": 30,
              "position": 8.0,
              "duration": 0.5
            },
            {
              "pitch": 38,
              "velocity": 60,
              "position": 9.008333,
              "duration": 0.15
            },
            {
              "pitch": 44,
              "velocity": 51,
              "position": 9.008333,
              "duration": 0.2
            },
            {
              "pitch": 56,
              "velocity": 31,
              "position": 9.008333,
              "duration": 0.391667
            },
            {
              "pitch": 64,
              "velocity": 41,
              "position": 9.008333,
              "duration": 0.216667
            },
            {
              "pitch": 35,
              "velocity": 50,
              "position": 9.658333,
              "duration": 0.158333
            },
            {
              "pitch": 40,
              "velocity": 38,
              "position": 9.675,
              "duration": 0.1
            },
            {
              "pitch": 63,
              "velocity": 53,
              "position": 9.675,
              "duration": 0.166667
            },
            {
              "pitch": 40,
              "velocity": 16,
              "position": 9.991667,
              "duration": 0.416667
            },
            {
              "pitch": 56,
              "velocity": 25,
              "position": 10.008333,
              "duration": 0.441667
            },
            {
              "pitch": 38,
              "velocity": 71,
              "position": 10.991667,
              "duration": 0.066667
            },
            {
              "pitch": 44,
              "velocity": 63,
              "position": 10.991667,
              "duration": 0.191667
            },
            {
              "pitch": 56,
              "velocity": 23,
              "position": 11.008333,
              "duration": 0.433333
            },
            {
              "pitch": 40,
              "velocity": 37,
              "position": 11.666667,
              "duration": 0.066667
            },
            {
              "pitch": 35,
              "velocity": 67,
              "position": 12.008333,
              "duration": 0.266667
            },
            {
              "pitch": 38,
              "velocity": 52,
              "position": 12.666667,
              "duration": 0.2
            },
            {
              "pitch": 56,
              "velocity": 33,
              "position": 12.675,
              "duration": 0.083333
            },
            {
              "pitch": 62,
              "velocity": 37,
              "position": 12.675,
              "duration": 0.1
            },
            {
              "pitch": 39,
              "velocity": 65,
              "position": 13.008333,
              "duration": 0.258333
            },
            {
              "pitch": 46,
              "velocity": 56,
              "position": 13.008333,
              "duration": 0.3
            },
            {
              "pitch": 63,
              "velocity": 29,
              "position": 13.008333,
              "duration": 0.083333
            },
            {
              "pitch": 39,
              "velocity": 87,
              "position": 13.675,
              "duration": 0.75
            },
            {
              "pitch": 46,
              "velocity": 83,
              "position": 13.675,
              "duration": 1.0
            },
            {
              "pitch": 56,
              "velocity": 21,
              "position": 13.675,
              "duration": 0.083333
            },
            {
              "pitch": 63,
              "velocity": 25,
              "position": 13.675,
              "duration": 0.1
            },
            {
              "pitch": 56,
              "velocity": 31,
              "position": 14.008333,
              "duration": 0.116667
            },
            {
              "pitch": 63,
              "velocity": 33,
              "position": 14.008333,
              "duration": 0.116667
            },
            {
              "pitch": 56,
              "velocity": 30,
              "position": 14.341667,
              "duration": 0.108333
            },
            {
              "pitch": 63,
              "velocity": 35,
              "position": 14.341667,
              "duration": 0.108333
            },
            {
              "pitch": 35,
              "velocity": 62,
              "position": 14.675,
              "duration": 0.216667
            },
            {
              "pitch": 56,
              "velocity": 35,
              "position": 14.675,
              "duration": 0.116667
            },
            {
              "pitch": 63,
              "velocity": 52,
              "position": 14.675,
              "duration": 0.116667
            },
            {
              "pitch": 39,
              "velocity": 81,
              "position": 15.008333,
              "duration": 0.375
            },
            {
              "pitch": 46,
              "velocity": 81,
              "position": 15.008333,
              "duration": 0.283333
            },
            {
              "pitch": 56,
              "velocity": 36,
              "position": 15.008333,
              "duration": 0.1
            },
            {
              "pitch": 63,
              "velocity": 62,
              "position": 15.008333,
              "duration": 0.133333
            },
            {
              "pitch": 56,
              "velocity": 35,
              "position": 15.341667,
              "duration": 0.116667
            },
            {
              "pitch": 63,
              "velocity": 45,
              "position": 15.341667,
              "duration": 0.1
            },
            {
              "pitch": 56,
              "velocity": 49,
              "position": 15.675,
              "duration": 0.1
            },
            {
              "pitch": 63,
              "velocity": 65,
              "position": 15.675,
              "duration": 0.116667
            }
          ]
        },
        "10": {
          "ctab": {
            "srcChannel": 10,
            "name": "Bass",
            "accType": "BASS",
            "editable": true,
            "mutedNotes": [],
            "mutedChords": [],
            "sourceChordNote": 0,
            "sourceChordType": "Maj7",
            "ctb2Main": {
              "ntr": "ROOT_TRANSPOSITION",
              "ntt": "BYPASS",
              "bassOn": true,
              "noteLowLimit": 20,
              "noteHighLimit": 60,
              "chordRootUpperLimit": 127,
              "rtr": "NOTE_GENERATOR"
            }
          },
          "notes": [
            {
              "pitch": 36,
              "velocity": 71,
              "position": 0.016667,
              "duration": 0.441667
            },
            {
              "pitch": 36,
              "velocity": 66,
              "position": 1.716667,
              "duration": 1.083333
            },
            {
              "pitch": 36,
              "velocity": 54,
              "position": 3.016667,
              "duration": 0.316667
            },
            {
              "pitch": 36,
              "velocity": 71,
              "position": 4.016667,
              "duration": 0.175
            },
            {
              "pitch": 36,
              "velocity": 61,
              "position": 4.325,
              "duration": 0.2
            },
            {
              "pitch": 36,
              "velocity": 71,
              "position": 5.016667,
              "duration": 0.858333
            },
            {
              "pitch": 36,
              "velocity": 66,
              "position": 6.341667,
              "duration": 0.691667
            },
            {
              "pitch": 43,
              "velocity": 56,
              "position": 7.016667,
              "duration": 0.191667
            },
            {
              "pitch": 36,
              "velocity": 64,
              "position": 7.333333,
              "duration": 0.2
            },
            {
              "pitch": 35,
              "velocity": 64,
              "position": 7.683333,
              "duration": 0.225
            },
            {
              "pitch": 36,
              "velocity": 71,
              "position": 8.016667,
              "duration": 1.7
            },
            {
              "pitch": 47,
              "velocity": 68,
              "position": 9.683333,
              "duration": 1.283333
            },
            {
              "pitch": 43,
              "velocity": 64,
              "position": 11.008333,
              "duration": 0.216667
            },
            {
              "pitch": 48,
              "velocity": 51,
              "position": 12.708333,
              "duration": 0.258333
            },
            {
              "pitch": 47,
              "velocity": 71,
              "position": 13.008333,
              "duration": 0.916667
            },
            {
              "pitch": 43,
              "velocity": 66,
              "position": 14.0,
              "duration": 0.983333
            },
            {
              "pitch": 35,
              "velocity": 66,
              "position": 15.008333,
              "duration": 0.908333
            }
          ]
        },
        "11": {
          "ctab": {
            "srcChannel": 11,
            "name": "Piano",
            "accType": "CHORD1",
            "editable": true,
            "mutedNotes": [],
            "mutedChords": [],
            "sourceChordNote": 0,
            "sourceChordType": "Maj7",
            "ctb2Main": {
              "ntr": "ROOT_FIXED",
              "ntt": "CHORD",
              "bassOn": false,
              "noteLowLimit": 48,
              "noteHighLimit": 84,
              "chordRootUpperLimit": 127,
              "rtr": "NOTE_GENERATOR"
            }
          },
          "notes": [
            {
              "pitch": 67,
              "velocity": 29,
              "position": 0.666667,
              "duration": 1.316667
            },
            {
              "pitch": 64,
              "velocity": 33,
              "position": 0.683333,
              "duration": 1.3
            },
            {
              "pitch": 71,
              "velocity": 32,
              "position": 0.683333,
              "duration": 1.3
            },
            {
              "pitch": 67,
              "velocity": 29,
              "position": 2.008333,
              "duration": 1.975
            },
            {
              "pitch": 64,
              "velocity": 33,
              "position": 2.025,
              "duration": 1.958333
            },
            {
              "pitch": 71,
              "velocity": 32,
              "position": 2.041667,
              "duration": 1.941667
            },
            {
              "pitch": 67,
              "velocity": 29,
              "position": 4.008333,
              "duration": 1.975
            },
            {
              "pitch": 64,
              "velocity": 33,
              "position": 4.025,
              "duration": 1.958333
            },
            {
              "pitch": 71,
              "velocity": 32,
              "position": 4.041667,
              "duration": 1.941667
            },
            {
              "pitch": 67,
              "velocity": 29,
              "position": 6.666667,
              "duration": 1.316667
            },
            {
              "pitch": 64,
              "velocity": 33,
              "position": 6.683333,
              "duration": 1.3
            },
            {
              "pitch": 71,
              "velocity": 32,
              "position": 6.683333,
              "duration": 1.3
            },
            {
              "pitch": 74,
              "velocity": 24,
              "position": 9.025,
              "duration": 0.408333
            },
            {
              "pitch": 64,
              "velocity": 24,
              "position": 9.05,
              "duration": 0.366667
            },
            {
              "pitch": 67,
              "velocity": 27,
              "position": 9.066667,
              "duration": 0.333333
            },
            {
              "pitch": 67,
              "velocity": 24,
              "position": 9.716667,
              "duration": 0.116667
            },
            {
              "pitch": 74,
              "velocity": 20,
              "position": 9.716667,
              "duration": 0.116667
            },
            {
              "pitch": 64,
              "velocity": 20,
              "position": 9.733333,
              "duration": 0.116667
            },
            {
              "pitch": 59,
              "velocity": 23,
              "position": 12.65,
              "duration": 0.583333
            },
            {
              "pitch": 62,
              "velocity": 24,
              "position": 12.675,
              "duration": 0.466667
            },
            {
              "pitch": 64,
              "velocity": 33,
              "position": 12.675,
              "duration": 0.466667
            },
            {
              "pitch": 67,
              "velocity": 30,
              "position": 12.675,
              "duration": 0.483333
            }
          ]
        },
        "12": {
          "ctab": {
            "srcChannel": 12,
            "name": "Guitar",
            "accType": "CHORD2",
            "editable": true,
            "mutedNotes": [],
            "mutedChords": [],
            "sourceChordNote": 0,
            "sourceChordType": "Maj7",
            "ctb2Main": {
              "ntr": "ROOT_FIXED",
              "ntt": "CHORD",
              "bassOn": false,
              "noteLowLimit": 40,
              "noteHighLimit": 76,
              "chordRootUpperLimit": 127,
              "rtr": "NOTE_GENERATOR"
            }
          },
          "notes": [
            {
              "pitch": 64,
              "velocity": 59,
              "position": 1.066667,
              "duration": 0.175
            },
            {
              "pitch": 67,
              "velocity": 49,
              "position": 1.066667,
              "duration": 0.191667
            },
            {
              "pitch": 64,
              "velocity": 34,
              "position": 5.066667,
              "duration": 0.175
            },
            {
              "pitch": 67,
              "velocity": 36,
              "position": 5.066667,
              "duration": 0.191667
            },
            {
              "pitch": 64,
              "velocity": 35,
              "position": 7.05,
              "duration": 0.458333
            },
            {
              "pitch": 67,
              "velocity": 31,
              "position": 7.05,
              "duration": 0.425
            },
            {
              "pitch": 64,
              "velocity": 49,
              "position": 7.716667,
              "duration": 0.175
            },
            {
              "pitch": 67,
              "velocity": 51,
              "position": 7.733333,
              "duration": 0.125
            },
            {
              "pitch": 64,
              "velocity": 39,
              "position": 9.058333,
              "duration": 0.191667
            },
            {
              "pitch": 67,
              "velocity": 44,
              "position": 9.075,
              "duration": 0.141667
            },
            {
              "pitch": 64,
              "velocity": 27,
              "position": 11.075,
              "duration": 0.258333
            },
            {
              "pitch": 67,
              "velocity": 17,
              "position": 11.366667,
              "duration": 0.125
            },
            {
              "pitch": 64,
              "velocity": 34,
              "position": 11.566667,
              "duration": 0.133333
            },
            {
              "pitch": 67,
              "velocity": 20,
              "position": 11.75,
              "duration": 0.091667
            },
            {
              "pitch": 64,
              "velocity": 32,
              "position": 11.908333,
              "duration": 0.075
            },
            {
              "pitch": 64,
              "velocity": 39,
              "position": 13.058333,
              "duration": 0.191667
            },
            {
              "pitch": 67,
              "velocity": 44,
              "position": 13.075,
              "duration": 0.141667
            },
            {
              "pitch": 64,
              "velocity": 27,
              "position": 15.075,
              "duration": 0.258333
            },
            {
              "pitch": 67,
              "velocity": 17,
              "position": 15.366667,
              "duration": 0.125
            },
            {
              "pitch": 64,
              "velocity": 34,
              "position": 15.566667,
              "duration": 0.133333
            },
            {
              "pitch": 67,
              "velocity": 20,
              "position": 15.75,
              "duration": 0.091667
            },
            {
              "pitch": 64,
              "velocity": 32,
              "position": 15.908333,
              "duration": 0.075
            }
          ]
        },
        "13": {
          "ctab": {
            "srcChannel": 13,
            "name": "Strings",
            "accType": "PAD",
            "editable": true,
            "mutedNotes": [],
            "mutedChords": [],
            "sourceChordNote": 0,
            "sourceChordType": "Maj7",
            "ctb2Main": {
              "ntr": "ROOT_FIXED",
              "ntt": "MELODY",
              "bassOn": false,
              "noteLowLimit": 36,
              "noteHighLimit": 96,
              "chordRootUpperLimit": 127,
              "rtr": "PITCH_SHIFT"
            }
          },
          "notes": [
            {
              "pitch": 64,
              "velocity": 24,
              "position": 4.975,
              "duration": 0.491667
            },
            {
              "pitch": 64,
              "velocity": 24,
              "position": 5.708333,
              "duration": 0.125
            },
            {
              "pitch": 60,
              "velocity": 24,
              "position": 9.708333,
              "duration": 0.125
            },
            {
              "pitch": 60,
              "velocity": 29,
              "position": 11.691667,
              "duration": 0.15
            },
            {
              "pitch": 60,
              "velocity": 24,
              "position": 12.975,
              "duration": 0.491667
            },
            {
              "pitch": 60,
              "velocity": 24,
              "position": 13.708333,
              "duration": 0.125
            },
            {
              "pitch": 60,
              "velocity": 25,
              "position": 15.008333,
              "duration": 0.416667
            },
            {
              "pitch": 60,
              "velocity": 29,
              "position": 15.691667,
              "duration": 0.15
            }
          ]
        }
      }
    }
  }
}