{
  "name": "Newport LA Pop Jazz",
  "tempo": 64,
  "timeSignature": "4/4",
  "ticksPerQuarter": 120,
  "sffType": "SFF1",
  "division": "BINARY",
  "channelPrograms": {
    "9": 0,
    "10": 33,
    "11": 1,
    "12": 27,
    "13": 4
  },
  "parts": {
    "Intro_A": {
      "type": "Intro_A",
      "sizeInBeats": 24,
      "channels": {
        "9": {
          "ctab": {
            "srcChannel": 9,
            "name": "Drums",
            "accType": "RHYTHM",
            "editable": false,
            "mutedNotes": [],
            "mutedChords": [],
            "sourceChordNote": 0,
            "sourceChordType": "Maj",
            "ctb2Main": {
              "ntr": "ROOT_FIXED",
              "ntt": "BYPASS",
              "bassOn": false,
              "noteLowLimit": 20,
              "noteHighLimit": 127,
              "chordRootUpperLimit": 127,
              "rtr": "RETRIGGER"
            }
          },
          "notes": [
            {
              "pitch": 37,
              "velocity": 84,
              "position": 0.0,
              "duration": 1.0
            },
            {
              "pitch": 37,
              "velocity": 84,
              "position": 2.0,
              "duration": 1.0
            },
            {
              "pitch": 37,
              "velocity": 64,
              "position": 4.0,
              "duration": 1.0
            },
            {
              "pitch": 37,
              "velocity": 84,
              "position": 5.0,
              "duration": 1.0
            },
            {
              "pitch": 37,
              "velocity": 64,
              "position": 6.0,
              "duration": 1.0
            },
            {
              "pitch": 37,
              "velocity": 84,
              "position": 7.0,
              "duration": 1.0
            },
            {
              "pitch": 35,
              "velocity": 58,
              "position": 8.0,
              "duration": 0.391667
            },
            {
              "pitch": 42,
              "velocity": 64,
              "position": 8.0,
              "duration": 0.225
            },
            {
              "pitch": 42,
              "velocity": 42,
              "position": 8.508333,
              "duration": 0.408333
            },
            {
              "pitch": 38,
              "velocity": 68,
              "position": 9.0,
              "duration": 0.325
            },
            {
              "pitch": 42,
              "velocity": 47,
              "position": 9.0,
              "duration": 0.191667
            },
            {
              "pitch": 42,
              "velocity": 23,
              "position": 9.5,
              "duration": 0.141667
            },
            {
              "pitch": 35,
              "velocity": 34,
              "position": 9.75,
              "duration": 0.058333
            },
            {
              "pitch": 35,
              "velocity": 56,
              "position": 10.0,
              "duration": 0.416667
            },
            {
              "pitch": 42,
              "velocity": 38,
              "position": 10.0,
              "duration": 0.175
            },
            {
              "pitch": 42,
              "velocity": 27,
              "position": 10.5,
              "duration": 0.125
            },
            {
              "pitch": 38,
              "velocity": 70,
              "position": 11.0,
              "duration": 0.258333
            },
            {
              "pitch": 42,
              "velocity": 52,
              "position": 11.0,
              "duration": 0.166667
            },
            {
              "pitch": 35,
              "velocity": 29,
              "position": 11.5,
              "duration": 0.125
            },
            {
              "pitch": 42,
              "velocity": 27,
              "position": 11.5,
              "duration": 0.141667
            },
            {
              "pitch": 35,
              "velocity": 55,
              "position": 12.0,
              "duration": 0.491667
            },
            {
              "pitch": 42,
              "velocity": 51,
              "position": 12.0,
              "duration": 0.208333
            },
            {
              "pitch": 42,
              "velocity": 28,
              "position": 12.5,
              "duration": 0.15
            },
            {
              "pitch": 38,
              "velocity": 20,
              "position": 12.866667,
              "duration": 0.108333
            },
            {
              "pitch": 38,
              "velocity": 70,
              "position": 13.0,
              "duration": 0.2
            },
            {
              "pitch": 42,
              "velocity": 51,
              "position": 13.0,
              "duration": 0.191667
            },
            {
              "pitch": 42,
              "velocity": 26,
              "position": 13.5,
              "duration": 0.133333
            },
            {
              "pitch": 35,
              "velocity": 36,
              "position": 13.75,
              "duration": 0.066667
            },
            {
              "pitch": 35,
              "velocity": 55,
              "position": 14.0,
              "duration": 1.0
            },
            {
              "pitch": 42,
              "velocity": 59,
              "position": 14.0,
              "duration": 0.175
            },
            {
              "pitch": 42,
              "velocity": 19,
              "position": 14.5,
              "duration": 0.116667
            },
            {
              "pitch": 38,
              "velocity": 70,
              "position": 15.0,
              "duration": 0.4
            },
            {
              "pitch": 42,
              "velocity": 59,
              "position": 15.0,
              "duration": 0.183333
            },
            {
              "pitch": 35,
              "velocity": 50,
              "position": 15.5,
              "duration": 0.141667
            },
            {
              "pitch": 38,
              "velocity": 17,
              "position": 15.5,
              "duration": 0.141667
            },
            {
              "pitch": 42,
              "velocity": 25,
              "position": 15.5,
              "duration": 0.075
            },
            {
              "pitch": 38,
              "velocity": 11,
              "position": 15.75,
              "duration": 0.016667
            },
            {
              "pitch": 38,
              "velocity": 7,
              "position": 15.808333,
              "duration": 0.141667
            },
            {
              "pitch": 35,
              "velocity": 58,
              "position": 16.0,
              "duration": 0.391667
            },
            {
              "pitch": 42,
              "velocity": 64,
              "position": 16.0,
              "duration": 0.225
            },
            {
              "pitch": 42,
              "velocity": 42,
              "position": 16.508333,
              "duration": 0.408333
            },
            {
              "pitch": 38,
              "velocity": 68,
              "position": 17.0,
              "duration": 0.325
            },
            {
              "pitch": 42,
              "velocity": 47,
              "position": 17.0,
              "duration": 0.191667
            },
            {
              "pitch": 42,
              "velocity": 23,
              "position": 17.5,
              "duration": 0.141667
            },
            {
              "pitch": 35,
              "velocity": 34,
              "position": 17.75,
              "duration": 0.058333
            },
            {
              "pitch": 35,
              "velocity": 56,
              "position": 18.0,
              "duration": 0.416667
            },
            {
              "pitch": 42,
              "velocity": 38,
              "position": 18.0,
              "duration": 0.175
            },
            {
              "pitch": 42,
              "velocity": 27,
              "position": 18.5,
              "duration": 0.125
            },
            {
              "pitch": 38,
              "velocity": 70,
              "position": 19.0,
              "duration": 0.258333
            },
            {
              "pitch": 42,
              "velocity": 52,
              "position": 19.0,
              "duration": 0.166667
            },
            {
              "pitch": 35,
              "velocity": 29,
              "position": 19.5,
              "duration": 0.125
            },
            {
              "pitch": 42,
              "velocity": 27,
              "position": 19.5,
              "duration": 0.141667
            },
            {
              "pitch": 35,
              "velocity": 55,
              "position": 20.0,
              "duration": 0.491667
            },
            {
              "pitch": 42,
              "velocity": 68,
              "position": 20.0,
              "duration": 0.208333
            },
            {
              "pitch": 42,
              "velocity": 59,
              "position": 20.5,
              "duration": 0.15
            },
            {
              "pitch": 38,
              "velocity": 70,
              "position": 21.0,
              "duration": 0.391667
            },
            {
              "pitch": 46,
              "velocity": 85,
              "position": 21.008333,
              "duration": 0.191667
            },
            {
              "pitch": 45,
              "velocity": 68,
              "position": 21.491667,
              "duration": 0.208333
            },
            {
              "pitch": 35,
              "velocity": 39,
              "position": 21.75,
              "duration": 0.191667
            },
            {
              "pitch": 45,
              "velocity": 40,
              "position": 21.75,
              "duration": 0.2
            },
            {
              "pitch": 35,
              "velocity": 70,
              "position": 21.991667,
              "duration": 0.408333
            },
            {
              "pitch": 43,
              "velocity": 85,
              "position": 22.0,
              "duration": 0.4
            },
            {
              "pitch": 46,
              "velocity": 87,
              "position": 22.0,
              "duration": 0.4
            },
            {
              "pitch": 43,
              "velocity": 85,
              "position": 22.5,
              "duration": 0.4
            },
            {
              "pitch": 46,
              "velocity": 87,
              "position": 22.5,
              "duration": 0.391667
            },
            {
              "pitch": 35,
              "velocity": 67,
              "position": 23.0,
              "duration": 0.208333
            },
            {
              "pitch": 43,
              "velocity": 99,
              "position": 23.0,
              "duration": 0.208333
            },
            {
              "pitch": 38,
              "velocity": 67,
              "position": 23.008333,
              "duration": 0.2
            },
            {
              "pitch": 46,
              "velocity": 68,
              "position": 23.008333,
              "duration": 0.208333
            },
            {
              "pitch": 43,
              "velocity": 81,
              "position": 23.258333,
              "duration": 0.183333
            },
            {
              "pitch": 38,
              "velocity": 67,
              "position": 23.266667,
              "duration": 0.183333
            },
            {
              "pitch": 35,
              "velocity": 67,
              "position": 23.491667,
              "duration": 0.2
            },
            {
              "pitch": 43,
              "velocity": 92,
              "position": 23.491667,
              "duration": 0.2
            },
            {
              "pitch": 38,
              "velocity": 67,
              "position": 23.5,
              "duration": 0.191667
            },
            {
              "pitch": 38,
              "velocity": 67,
              "position": 23.75,
              "duration": 0.091667
            },
            {
              "pitch": 43,
              "velocity": 90,
              "position": 23.75,
              "duration": 0.091667
            },
            {
              "pitch": 38,
              "velocity": 26,
              "position": 23.866667,
              "duration": 0.108333
            }
          ]
        },
        "10": {
          "ctab": {
            "srcChannel": 10,
            "name": "Bass",
            "accType": "BASS",
            "editable": true,
            "mutedNotes": [],
            "mutedChords": [],
            "sourceChordNote": 0,
            "sourceChordType": "Maj7",
            "ctb2Main": {
              "ntr": "ROOT_TRANSPOSITION",
              "ntt": "BYPASS",
              "bassOn": true,
              "noteLowLimit": 20,
              "noteHighLimit": 60,
              "chordRootUpperLimit": 127,
              "rtr": "NOTE_GENERATOR"
            }
          },
          "notes": [
            {
              "pitch": 36,
              "velocity": 80,
              "position": 8.0,
              "duration": 0.483333
            },
            {
              "pitch": 43,
              "velocity": 53,
              "position": 9.25,
              "duration": 0.2
            },
            {
              "pitch": 36,
              "velocity": 89,
              "position": 9.5,
              "duration": 0.466667
            },
            {
              "pitch": 36,
              "velocity": 77,
              "position": 10.0,
              "duration": 1.516667
            },
            {
              "pitch": 48,
              "velocity": 71,
              "position": 11.5,
              "duration": 0.466667
            },
            {
              "pitch": 48,
              "velocity": 77,
              "position": 12.025,
              "duration": 0.966667
            },
            {
              "pitch": 43,
              "velocity": 82,
              "position": 13.0,
              "duration": 0.741667
            },
            {
              "pitch": 36,
              "velocity": 64,
              "position": 13.75,
              "duration": 0.216667
            },
            {
              "pitch": 36,
              "velocity": 81,
              "position": 14.0,
              "duration": 0.875
            },
            {
              "pitch": 36,
              "velocity": 67,
              "position": 15.75,
              "duration": 0.216667
            },
            {
              "pitch": 36,
              "velocity": 82,
              "position": 16.0,
              "duration": 0.875
            },
            {
              "pitch": 36,
              "velocity": 51,
              "position": 17.75,
              "duration": 0.1
            },
            {
              "pitch": 36,
              "velocity": 94,
              "position": 18.0,
              "duration": 0.591667
            },
            {
              "pitch": 40,
              "velocity": 46,
              "position": 19.75,
              "duration": 0.058333
            },
            {
              "pitch": 36,
              "velocity": 86,
              "position": 20.0,
              "duration": 0.583333
            },
            {
              "pitch": 36,
              "velocity": 56,
              "position": 21.75,
              "duration": 0.066667
            },
            {
              "pitch": 36,
              "velocity": 94,
              "position": 22.0,
              "duration": 0.491667
            },
            {
              "pitch": 36,
              "velocity": 85,
              "position": 23.75,
              "duration": 0.216667
            }
          ]
        },
        "11": {
          "ctab": {
            "srcChannel": 11,
            "name": "Piano",
            "accType": "CHORD1",
            "editable": true,
            "mutedNotes": [],
            "mutedChords": [],
            "sourceChordNote": 0,
            "sourceChordType": "Maj7",
            "ctb2Main": {
              "ntr": "ROOT_FIXED",
              "ntt": "CHORD",
              "bassOn": false,
              "noteLowLimit": 48,
              "noteHighLimit": 84,
              "chordRootUpperLimit": 127,
              "rtr": "NOTE_GENERATOR"
            }
          },
          "notes": [
            {
              "pitch": 36,
              "velocity": 59,
              "position": 8.475,
              "duration": 0.291667
            },
            {
              "pitch": 55,
              "velocity": 48,
              "position": 8.733333,
              "duration": 0.625
            },
            {
              "pitch": 64,
              "velocity": 64,
              "position": 8.983333,
              "duration": 0.316667
            },
            {
              "pitch": 67,
              "velocity": 36,
              "position": 9.241667,
              "duration": 0.241667
            },
            {
              "pitch": 71,
              "velocity": 70,
              "position": 9.483333,
              "duration": 0.3
            },
            {
              "pitch": 48,
              "velocity": 53,
              "position": 10.0,
              "duration": 0.991667
            },
            {
              "pitch": 64,
              "velocity": 47,
              "position": 10.0,
              "duration": 0.541667
            },
            {
              "pitch": 67,
              "velocity": 56,
              "position": 10.0,
              "duration": 0.583333
            },
            {
              "pitch": 59,
              "velocity": 64,
              "position": 10.008333,
              "duration": 0.483333
            },
            {
              "pitch": 36,
              "velocity": 59,
              "position": 12.475,
              "duration": 0.291667
            },
            {
              "pitch": 55,
              "velocity": 48,
              "position": 12.733333,
              "duration": 0.625
            },
            {
              "pitch": 64,
              "velocity": 64,
              "position": 12.983333,
              "duration": 0.316667
            },
            {
              "pitch": 67,
              "velocity": 36,
              "position": 13.241667,
              "duration": 0.241667
            },
            {
              "pitch": 71,
              "velocity": 70,
              "position": 13.483333,
              "duration": 0.3
            },
            {
              "pitch": 36,
              "velocity": 52,
              "position": 14.0,
              "duration": 0.183333
            },
            {
              "pitch": 52,
              "velocity": 51,
              "position": 14.0,
              "duration": 0.183333
            },
            {
              "pitch": 62,
              "velocity": 38,
              "position": 14.008333,
              "duration": 0.1
            },
            {
              "pitch": 64,
              "velocity": 56,
              "position": 14.008333,
              "duration": 0.125
            },
            {
              "pitch": 67,
              "velocity": 48,
              "position": 14.008333,
              "duration": 0.125
            },
            {
              "pitch": 62,
              "velocity": 39,
              "position": 14.508333,
              "duration": 0.158333
            },
            {
              "pitch": 64,
              "velocity": 34,
              "position": 14.508333,
              "duration": 0.141667
            },
            {
              "pitch": 67,
              "velocity": 45,
              "position": 14.508333,
              "duration": 0.141667
            },
            {
              "pitch": 62,
              "velocity": 71,
              "position": 15.233333,
              "duration": 0.166667
            },
            {
              "pitch": 64,
              "velocity": 95,
              "position": 15.483333,
              "duration": 0.166667
            },
            {
              "pitch": 67,
              "velocity": 91,
              "position": 15.483333,
              "duration": 0.191667
            },
            {
              "pitch": 52,
              "velocity": 42,
              "position": 15.733333,
              "duration": 0.208333
            },
            {
              "pitch": 52,
              "velocity": 57,
              "position": 16.0,
              "duration": 0.125
            },
            {
              "pitch": 64,
              "velocity": 48,
              "position": 16.0,
              "duration": 0.1
            },
            {
              "pitch": 71,
              "velocity": 71,
              "position": 16.0,
              "duration": 0.125
            },
            {
              "pitch": 36,
              "velocity": 50,
              "position": 16.008333,
              "duration": 0.125
            },
            {
              "pitch": 62,
              "velocity": 65,
              "position": 16.008333,
              "duration": 0.125
            },
            {
              "pitch": 62,
              "velocity": 93,
              "position": 16.975,
              "duration": 0.166667
            },
            {
              "pitch": 64,
              "velocity": 83,
              "position": 16.975,
              "duration": 0.15
            },
            {
              "pitch": 71,
              "velocity": 103,
              "position": 16.975,
              "duration": 0.175
            },
            {
              "pitch": 62,
              "velocity": 36,
              "position": 17.25,
              "duration": 0.066667
            },
            {
              "pitch": 64,
              "velocity": 29,
              "position": 17.25,
              "duration": 0.075
            },
            {
              "pitch": 71,
              "velocity": 41,
              "position": 17.258333,
              "duration": 0.058333
            },
            {
              "pitch": 64,
              "velocity": 33,
              "position": 17.5,
              "duration": 0.091667
            },
            {
              "pitch": 62,
              "velocity": 39,
              "position": 17.508333,
              "duration": 0.041667
            },
            {
              "pitch": 71,
              "velocity": 49,
              "position": 17.508333,
              "duration": 0.041667
            },
            {
              "pitch": 64,
              "velocity": 57,
              "position": 17.75,
              "duration": 0.408333
            },
            {
              "pitch": 67,
              "velocity": 34,
              "position": 17.758333,
              "duration": 0.058333
            },
            {
              "pitch": 71,
              "velocity": 62,
              "position": 17.758333,
              "duration": 0.391667
            },
            {
              "pitch": 36,
              "velocity": 48,
              "position": 18.008333,
              "duration": 0.1
            },
            {
              "pitch": 62,
              "velocity": 30,
              "position": 18.516667,
              "duration": 0.1
            },
            {
              "pitch": 64,
              "velocity": 27,
              "position": 18.516667,
              "duration": 0.083333
            },
            {
              "pitch": 71,
              "velocity": 33,
              "position": 18.525,
              "duration": 0.041667
            },
            {
              "pitch": 36,
              "velocity": 76,
              "position": 20.733333,
              "duration": 0.266667
            },
            {
              "pitch": 59,
              "velocity": 62,
              "position": 21.008333,
              "duration": 0.266667
            },
            {
              "pitch": 62,
              "velocity": 68,
              "position": 21.008333,
              "duration": 0.25
            },
            {
              "pitch": 64,
              "velocity": 57,
              "position": 21.008333,
              "duration": 0.291667
            },
            {
              "pitch": 59,
              "velocity": 33,
              "position": 21.483333,
              "duration": 0.125
            },
            {
              "pitch": 62,
              "velocity": 34,
              "position": 21.483333,
              "duration": 0.208333
            },
            {
              "pitch": 64,
              "velocity": 25,
              "position": 21.483333,
              "duration": 0.216667
            },
            {
              "pitch": 52,
              "velocity": 63,
              "position": 21.741667,
              "duration": 0.233333
            },
            {
              "pitch": 59,
              "velocity": 75,
              "position": 21.975,
              "duration": 0.375
            },
            {
              "pitch": 64,
              "velocity": 83,
              "position": 21.983333,
              "duration": 0.375
            },
            {
              "pitch": 67,
              "velocity": 72,
              "position": 21.983333,
              "duration": 0.65
            },
            {
              "pitch": 59,
              "velocity": 38,
              "position": 22.508333,
              "duration": 0.066667
            },
            {
              "pitch": 62,
              "velocity": 39,
              "position": 22.508333,
              "duration": 0.066667
            },
            {
              "pitch": 36,
              "velocity": 55,
              "position": 22.983333,
              "duration": 0.15
            },
            {
              "pitch": 64,
              "velocity": 77,
              "position": 23.241667,
              "duration": 0.225
            },
            {
              "pitch": 71,
              "velocity": 93,
              "position": 23.241667,
              "duration": 0.216667
            },
            {
              "pitch": 64,
              "velocity": 69,
              "position": 23.733333,
              "duration": 0.716667
            },
            {
              "pitch": 67,
              "velocity": 73,
              "position": 23.733333,
              "duration": 0.666667
            },
            {
              "pitch": 74,
              "velocity": 76,
              "position": 23.733333,
              "duration": 0.733333
            }
          ]
        },
        "12": {
          "ctab": {
            "srcChannel": 12,
            "name": "Guitar",
            "accType": "CHORD2",
            "editable": true,
            "mutedNotes": [],
            "mutedChords": [],
            "sourceChordNote": 0,
            "sourceChordType": "Maj7",
            "ctb2Main": {
              "ntr": "ROOT_FIXED",
              "ntt": "CHORD",
              "bassOn": false,
              "noteLowLimit": 40,
              "noteHighLimit": 76,
              "chordRootUpperLimit": 127,
              "rtr": "NOTE_GENERATOR"
            }
          },
          "notes": []
        },
        "13": {
          "ctab": {
            "srcChannel": 13,
            "name": "Strings",
            "accType": "PAD",
            "editable": true,
            "mutedNotes": [],
            "mutedChords": [],
            "sourceChordNote": 0,
            "sourceChordType": "Maj7",
            "ctb2Main": {
              "ntr": "ROOT_FIXED",
              "ntt": "MELODY",
              "bassOn": false,
              "noteLowLimit": 36,
              "noteHighLimit": 96,
              "chordRootUpperLimit": 127,
              "rtr": "PITCH_SHIFT"
            }
          },
          "notes": [
            {
              "pitch": 64,
              "velocity": 48,
              "position": 8.0,
              "duration": 0.741667
            },
            {
              "pitch": 67,
              "velocity": 49,
              "position": 8.0,
              "duration": 0.775
            },
            {
              "pitch": 74,
              "velocity": 55,
              "position": 8.0,
              "duration": 0.808333
            },
            {
              "pitch": 74,
              "velocity": 48,
              "position": 10.0,
              "duration": 0.558333
            },
            {
              "pitch": 76,
              "velocity": 42,
              "position": 10.0,
              "duration": 0.541667
            },
            {
              "pitch": 83,
              "velocity": 49,
              "position": 10.0,
              "duration": 0.516667
            },
            {
              "pitch": 71,
              "velocity": 55,
              "position": 11.0,
              "duration": 0.316667
            },
            {
              "pitch": 76,
              "velocity": 58,
              "position": 11.0,
              "duration": 0.358333
            },
            {
              "pitch": 71,
              "velocity": 58,
              "position": 12.0,
              "duration": 1.516667
            },
            {
              "pitch": 74,
              "velocity": 55,
              "position": 12.0,
              "duration": 1.458333
            },
            {
              "pitch": 64,
              "velocity": 37,
              "position": 12.008333,
              "duration": 1.408333
            },
            {
              "pitch": 64,
              "velocity": 48,
              "position": 14.0,
              "duration": 0.741667
            },
            {
              "pitch": 67,
              "velocity": 49,
              "position": 14.0,
              "duration": 0.775
            },
            {
              "pitch": 74,
              "velocity": 55,
              "position": 14.0,
              "duration": 0.808333
            },
            {
              "pitch": 71,
              "velocity": 51,
              "position": 16.0,
              "duration": 2.258333
            },
            {
              "pitch": 74,
              "velocity": 49,
              "position": 16.0,
              "duration": 2.208333
            },
            {
              "pitch": 76,
              "velocity": 44,
              "position": 16.0,
              "duration": 2.208333
            },
            {
              "pitch": 64,
              "velocity": 45,
              "position": 22.508333,
              "duration": 1.175
            },
            {
              "pitch": 71,
              "velocity": 65,
              "position": 23.008333,
              "duration": 0.6
            }
          ]
        }
      }
    },
    "Main_A": {
      "type": "Main_A",
      "sizeInBeats": 16,
      "channels": {
        "9": {
          "ctab": {
            "srcChannel": 9,
            "name": "Drums",
            "accType": "RHYTHM",
            "editable": false,
            "mutedNotes": [],
            "mutedChords": [],
            "sourceChordNote": 0,
            "sourceChordType": "Maj",
            "ctb2Main": {
              "ntr": "ROOT_FIXED",
              "ntt": "BYPASS",
              "bassOn": false,
              "noteLowLimit": 20,
              "noteHighLimit": 127,
              "chordRootUpperLimit": 127,
              "rtr": "RETRIGGER"
            }
          },
          "notes": [
            {
              "pitch": 35,
              "velocity": 92,
              "position": 0.0,
              "duration": 0.425
            },
            {
              "pitch": 49,
              "velocity": 90,
              "position": 0.0,
              "duration": 0.091667
            },
            {
              "pitch": 35,
              "velocity": 65,
              "position": 0.5,
              "duration": 0.116667
            },
            {
              "pitch": 51,
              "velocity": 78,
              "position": 0.5,
              "duration": 0.083333
            },
            {
              "pitch": 38,
              "velocity": 103,
              "position": 1.0,
              "duration": 0.208333
            },
            {
              "pitch": 51,
              "velocity": 98,
              "position": 1.0,
              "duration": 0.208333
            },
            {
              "pitch": 51,
              "velocity": 64,
              "position": 1.241667,
              "duration": 0.083333
            },
            {
              "pitch": 38,
              "velocity": 33,
              "position": 1.258333,
              "duration": 0.1
            },
            {
              "pitch": 51,
              "velocity": 50,
              "position": 1.383333,
              "duration": 0.058333
            },
            {
              "pitch": 35,
              "velocity": 49,
              "position": 1.491667,
              "duration": 0.041667
            },
            {
              "pitch": 51,
              "velocity": 98,
              "position": 1.741667,
              "duration": 0.15
            },
            {
              "pitch": 51,
              "velocity": 46,
              "position": 1.991667,
              "duration": 0.075
            },
            {
              "pitch": 35,
              "velocity": 67,
              "position": 2.241667,
              "duration": 0.108333
            },
            {
              "pitch": 51,
              "velocity": 82,
              "position": 2.241667,
              "duration": 0.083333
            },
            {
              "pitch": 38,
              "velocity": 103,
              "position": 2.491667,
              "duration": 0.566667
            },
            {
              "pitch": 51,
              "velocity": 102,
              "position": 2.5,
              "duration": 0.108333
            },
            {
              "pitch": 51,
              "velocity": 55,
              "position": 2.633333,
              "duration": 0.091667
            },
            {
              "pitch": 51,
              "velocity": 84,
              "position": 2.991667,
              "duration": 0.108333
            },
            {
              "pitch": 38,
              "velocity": 26,
              "position": 3.183333,
              "duration": 0.141667
            },
            {
              "pitch": 51,
              "velocity": 87,
              "position": 3.241667,
              "duration": 0.2
            },
            {
              "pitch": 35,
              "velocity": 53,
              "position": 3.491667,
              "duration": 0.3
            },
            {
              "pitch": 47,
              "velocity": 92,
              "position": 3.491667,
              "duration": 0.4
            },
            {
              "pitch": 51,
              "velocity": 92,
              "position": 3.491667,
              "duration": 0.133333
            },
            {
              "pitch": 35,
              "velocity": 85,
              "position": 4.0,
              "duration": 0.8
            },
            {
              "pitch": 51,
              "velocity": 102,
              "position": 4.0,
              "duration": 0.083333
            },
            {
              "pitch": 51,
              "velocity": 47,
              "position": 4.25,
              "duration": 0.058333
            },
            {
              "pitch": 51,
              "velocity": 76,
              "position": 4.5,
              "duration": 0.108333
            },
            {
              "pitch": 53,
              "velocity": 92,
              "position": 4.75,
              "duration": 0.108333
            },
            {
              "pitch": 38,
              "velocity": 90,
              "position": 5.0,
              "duration": 0.575
            },
            {
              "pitch": 51,
              "velocity": 90,
              "position": 5.0,
              "duration": 0.1
            },
            {
              "pitch": 51,
              "velocity": 53,
              "position": 5.25,
              "duration": 0.091667
            },
            {
              "pitch": 51,
              "velocity": 74,
              "position": 5.5,
              "duration": 0.108333
            },
            {
              "pitch": 35,
              "velocity": 71,
              "position": 5.75,
              "duration": 0.083333
            },
            {
              "pitch": 51,
              "velocity": 77,
              "position": 5.75,
              "duration": 0.066667
            },
            {
              "pitch": 35,
              "velocity": 87,
              "position": 6.0,
              "duration": 0.216667
            },
            {
              "pitch": 51,
              "velocity": 95,
              "position": 6.0,
              "duration": 0.116667
            },
            {
              "pitch": 38,
              "velocity": 67,
              "position": 6.25,
              "duration": 0.2
            },
            {
              "pitch": 51,
              "velocity": 59,
              "position": 6.25,
              "duration": 0.083333
            },
            {
              "pitch": 45,
              "velocity": 67,
              "position": 6.5,
              "duration": 0.2
            },
            {
              "pitch": 51,
              "velocity": 83,
              "position": 6.5,
              "duration": 0.125
            },
            {
              "pitch": 51,
              "velocity": 33,
              "position": 6.75,
              "duration": 0.058333
            },
            {
              "pitch": 38,
              "velocity": 103,
              "position": 7.0,
              "duration": 0.6
            },
            {
              "pitch": 51,
              "velocity": 98,
              "position": 7.0,
              "duration": 0.116667
            },
            {
              "pitch": 51,
              "velocity": 71,
              "position": 7.25,
              "duration": 0.108333
            },
            {
              "pitch": 53,
              "velocity": 101,
              "position": 7.5,
              "duration": 0.141667
            },
            {
              "pitch": 51,
              "velocity": 69,
              "position": 7.75,
              "duration": 0.058333
            },
            {
              "pitch": 35,
              "velocity": 87,
              "position": 8.0,
              "duration": 0.766667
            },
            {
              "pitch": 51,
              "velocity": 92,
              "position": 8.0,
              "duration": 0.1
            },
            {
              "pitch": 51,
              "velocity": 56,
              "position": 8.25,
              "duration": 0.066667
            },
            {
              "pitch": 51,
              "velocity": 62,
              "position": 8.5,
              "duration": 0.083333
            },
            {
              "pitch": 51,
              "velocity": 57,
              "position": 8.75,
              "duration": 0.058333
            },
            {
              "pitch": 38,
              "velocity": 105,
              "position": 9.0,
              "duration": 0.541667
            },
            {
              "pitch": 51,
              "velocity": 102,
              "position": 9.0,
              "duration": 0.091667
            },
            {
              "pitch": 51,
              "velocity": 57,
              "position": 9.25,
              "duration": 0.066667
            },
            {
              "pitch": 51,
              "velocity": 74,
              "position": 9.5,
              "duration": 0.083333
            },
            {
              "pitch": 51,
              "velocity": 77,
              "position": 9.75,
              "duration": 0.066667
            },
            {
              "pitch": 35,
              "velocity": 78,
              "position": 10.0,
              "duration": 0.191667
            },
            {
              "pitch": 51,
              "velocity": 67,
              "position": 10.0,
              "duration": 0.191667
            },
            {
              "pitch": 51,
              "velocity": 55,
              "position": 10.25,
              "duration": 0.2
            },
            {
              "pitch": 38,
              "velocity": 57,
              "position": 10.258333,
              "duration": 0.191667
            },
            {
              "pitch": 38,
              "velocity": 35,
              "position": 10.5,
              "duration": 0.2
            },
            {
              "pitch": 51,
              "velocity": 71,
              "position": 10.5,
              "duration": 0.091667
            },
            {
              "pitch": 51,
              "velocity": 60,
              "position": 10.75,
              "duration": 0.05
            },
            {
              "pitch": 38,
              "velocity": 101,
              "position": 11.0,
              "duration": 0.566667
            },
            {
              "pitch": 51,
              "velocity": 106,
              "position": 11.0,
              "duration": 0.325
            },
            {
              "pitch": 51,
              "velocity": 83,
              "position": 11.5,
              "duration": 0.083333
            },
            {
              "pitch": 38,
              "velocity": 33,
              "position": 11.608333,
              "duration": 0.116667
            },
            {
              "pitch": 35,
              "velocity": 79,
              "position": 11.75,
              "duration": 0.075
            },
            {
              "pitch": 38,
              "velocity": 22,
              "position": 11.758333,
              "duration": 0.175
            },
            {
              "pitch": 35,
              "velocity": 89,
              "position": 12.0,
              "duration": 0.608333
            },
            {
              "pitch": 51,
              "velocity": 104,
              "position": 12.0,
              "duration": 0.2
            },
            {
              "pitch": 51,
              "velocity": 15,
              "position": 12.25,
              "duration": 0.058333
            },
            {
              "pitch": 51,
              "velocity": 76,
              "position": 12.5,
              "duration": 0.266667
            },
            {
              "pitch": 35,
              "velocity": 74,
              "position": 12.75,
              "duration": 0.083333
            },
            {
              "pitch": 38,
              "velocity": 99,
              "position": 13.0,
              "duration": 0.575
            },
            {
              "pitch": 51,
              "velocity": 104,
              "position": 13.0,
              "duration": 0.375
            },
            {
              "pitch": 51,
              "velocity": 92,
              "position": 13.5,
              "duration": 0.316667
            },
            {
              "pitch": 35,
              "velocity": 66,
              "position": 13.741667,
              "duration": 0.075
            },
            {
              "pitch": 35,
              "velocity": 89,
              "position": 14.0,
              "duration": 0.575
            },
            {
              "pitch": 51,
              "velocity": 98,
              "position": 14.0,
              "duration": 0.366667
            },
            {
              "pitch": 51,
              "velocity": 95,
              "position": 14.5,
              "duration": 0.116667
            },
            {
              "pitch": 35,
              "velocity": 72,
              "position": 14.75,
              "duration": 0.075
            },
            {
              "pitch": 38,
              "velocity": 103,
              "position": 15.0,
              "duration": 0.275
            },
            {
              "pitch": 46,
              "velocity": 85,
              "position": 15.0,
              "duration": 0.2
            },
            {
              "pitch": 48,
              "velocity": 101,
              "position": 15.25,
              "duration": 0.15
            },
            {
              "pitch": 45,
              "velocity": 94,
              "position": 15.491667,
              "duration": 0.108333
            },
            {
              "pitch": 41,
              "velocity": 68,
              "position": 15.741667,
              "duration": 0.058333
            }
          ]
        },
        "10": {
          "ctab": {
            "srcChannel": 10,
            "name": "Bass",
            "accType": "BASS",
            "editable": true,
            "mutedNotes": [],
            "mutedChords": [],
            "sourceChordNote": 0,
            "sourceChordType": "Maj7",
            "ctb2Main": {
              "ntr": "ROOT_TRANSPOSITION",
              "ntt": "BYPASS",
              "bassOn": true,
              "noteLowLimit": 20,
              "noteHighLimit": 60,
              "chordRootUpperLimit": 127,
              "rtr": "NOTE_GENERATOR"
            }
          },
          "notes": [
            {
              "pitch": 36,
              "velocity": 90,
              "position": 0.0,
              "duration": 0.6
            },
            {
              "pitch": 36,
              "velocity": 85,
              "position": 0.75,
              "duration": 0.241667
            },
            {
              "pitch": 43,
              "velocity": 94,
              "position": 1.0,
              "duration": 0.491667
            },
            {
              "pitch": 36,
              "velocity": 70,
              "position": 1.5,
              "duration": 0.183333
            },
            {
              "pitch": 36,
              "velocity": 79,
              "position": 2.0,
              "duration": 0.933333
            },
            {
              "pitch": 31,
              "velocity": 90,
              "position": 3.75,
              "duration": 0.216667
            },
            {
              "pitch": 36,
              "velocity": 96,
              "position": 4.0,
              "duration": 0.933333
            },
            {
              "pitch": 43,
              "velocity": 82,
              "position": 5.25,
              "duration": 0.25
            },
            {
              "pitch": 36,
              "velocity": 75,
              "position": 5.75,
              "duration": 0.216667
            },
            {
              "pitch": 36,
              "velocity": 90,
              "position": 6.0,
              "duration": 0.6
            },
            {
              "pitch": 36,
              "velocity": 85,
              "position": 6.75,
              "duration": 0.241667
            },
            {
              "pitch": 43,
              "velocity": 94,
              "position": 7.0,
              "duration": 0.491667
            },
            {
              "pitch": 36,
              "velocity": 70,
              "position": 7.5,
              "duration": 0.183333
            },
            {
              "pitch": 36,
              "velocity": 101,
              "position": 8.0,
              "duration": 0.966667
            },
            {
              "pitch": 43,
              "velocity": 74,
              "position": 9.75,
              "duration": 0.283333
            },
            {
              "pitch": 48,
              "velocity": 97,
              "position": 10.0,
              "duration": 1.0
            },
            {
              "pitch": 48,
              "velocity": 64,
              "position": 11.25,
              "duration": 0.208333
            },
            {
              "pitch": 43,
              "velocity": 65,
              "position": 11.5,
              "duration": 0.216667
            },
            {
              "pitch": 40,
              "velocity": 85,
              "position": 11.75,
              "duration": 0.208333
            },
            {
              "pitch": 36,
              "velocity": 101,
              "position": 12.0,
              "duration": 0.633333
            },
            {
              "pitch": 43,
              "velocity": 109,
              "position": 13.25,
              "duration": 0.083333
            },
            {
              "pitch": 48,
              "velocity": 85,
              "position": 13.75,
              "duration": 0.25
            },
            {
              "pitch": 48,
              "velocity": 93,
              "position": 14.0,
              "duration": 0.658333
            },
            {
              "pitch": 43,
              "velocity": 81,
              "position": 14.75,
              "duration": 0.233333
            },
            {
              "pitch": 48,
              "velocity": 81,
              "position": 15.0,
              "duration": 0.258333
            },
            {
              "pitch": 43,
              "velocity": 57,
              "position": 15.25,
              "duration": 0.166667
            },
            {
              "pitch": 36,
              "velocity": 89,
              "position": 15.75,
              "duration": 0.216667
            }
          ]
        },
        "11": {
          "ctab": {
            "srcChannel": 11,
            "name": "Piano",
            "accType": "CHORD1",
            "editable": true,
            "mutedNotes": [],
            "mutedChords": [],
            "sourceChordNote": 0,
            "sourceChordType": "Maj7",
            "ctb2Main": {
              "ntr": "ROOT_FIXED",
              "ntt": "CHORD",
              "bassOn": false,
              "noteLowLimit": 48,
              "noteHighLimit": 84,
              "chordRootUpperLimit": 127,
              "rtr": "NOTE_GENERATOR"
            }
          },
          "notes": [
            {
              "pitch": 48,
              "velocity": 65,
              "position": 0.741667,
              "duration": 0.216667
            },
            {
              "pitch": 62,
              "velocity": 76,
              "position": 1.0,
              "duration": 0.291667
            },
            {
              "pitch": 67,
              "velocity": 64,
              "position": 1.491667,
              "duration": 0.233333
            },
            {
              "pitch": 52,
              "velocity": 30,
              "position": 1.741667,
              "duration": 0.2
            },
            {
              "pitch": 48,
              "velocity": 52,
              "position": 2.0,
              "duration": 0.658333
            },
            {
              "pitch": 64,
              "velocity": 46,
              "position": 2.508333,
              "duration": 0.058333
            },
            {
              "pitch": 59,
              "velocity": 64,
              "position": 2.758333,
              "duration": 0.333333
            },
            {
              "pitch": 74,
              "velocity": 89,
              "position": 3.008333,
              "duration": 0.283333
            },
            {
              "pitch": 71,
              "velocity": 61,
              "position": 3.258333,
              "duration": 0.15
            },
            {
              "pitch": 48,
              "velocity": 52,
              "position": 3.741667,
              "duration": 1.266667
            },
            {
              "pitch": 64,
              "velocity": 72,
              "position": 3.741667,
              "duration": 0.425
            },
            {
              "pitch": 67,
              "velocity": 70,
              "position": 3.741667,
              "duration": 0.483333
            },
            {
              "pitch": 71,
              "velocity": 67,
              "position": 3.741667,
              "duration": 0.525
            },
            {
              "pitch": 76,
              "velocity": 74,
              "position": 3.741667,
              "duration": 0.533333
            },
            {
              "pitch": 67,
              "velocity": 74,
              "position": 5.008333,
              "duration": 0.216667
            },
            {
              "pitch": 79,
              "velocity": 82,
              "position": 5.008333,
              "duration": 0.266667
            },
            {
              "pitch": 67,
              "velocity": 44,
              "position": 5.483333,
              "duration": 0.125
            },
            {
              "pitch": 62,
              "velocity": 41,
              "position": 5.733333,
              "duration": 0.208333
            },
            {
              "pitch": 48,
              "velocity": 54,
              "position": 6.0,
              "duration": 1.016667
            },
            {
              "pitch": 62,
              "velocity": 52,
              "position": 6.0,
              "duration": 0.2
            },
            {
              "pitch": 64,
              "velocity": 31,
              "position": 6.0,
              "duration": 0.2
            },
            {
              "pitch": 71,
              "velocity": 46,
              "position": 6.0,
              "duration": 0.258333
            },
            {
              "pitch": 74,
              "velocity": 53,
              "position": 6.0,
              "duration": 0.233333
            },
            {
              "pitch": 79,
              "velocity": 86,
              "position": 6.991667,
              "duration": 0.125
            },
            {
              "pitch": 67,
              "velocity": 83,
              "position": 7.0,
              "duration": 0.083333
            },
            {
              "pitch": 83,
              "velocity": 70,
              "position": 7.25,
              "duration": 0.125
            },
            {
              "pitch": 71,
              "velocity": 71,
              "position": 7.258333,
              "duration": 0.066667
            },
            {
              "pitch": 74,
              "velocity": 80,
              "position": 7.741667,
              "duration": 0.2
            },
            {
              "pitch": 86,
              "velocity": 80,
              "position": 7.741667,
              "duration": 0.2
            },
            {
              "pitch": 48,
              "velocity": 42,
              "position": 8.0,
              "duration": 1.033333
            },
            {
              "pitch": 64,
              "velocity": 32,
              "position": 8.0,
              "duration": 0.408333
            },
            {
              "pitch": 62,
              "velocity": 45,
              "position": 8.008333,
              "duration": 0.383333
            },
            {
              "pitch": 71,
              "velocity": 51,
              "position": 8.008333,
              "duration": 0.408333
            },
            {
              "pitch": 74,
              "velocity": 33,
              "position": 8.008333,
              "duration": 0.466667
            },
            {
              "pitch": 74,
              "velocity": 83,
              "position": 9.008333,
              "duration": 0.158333
            },
            {
              "pitch": 76,
              "velocity": 80,
              "position": 9.008333,
              "duration": 0.175
            },
            {
              "pitch": 83,
              "velocity": 83,
              "position": 9.008333,
              "duration": 0.183333
            },
            {
              "pitch": 74,
              "velocity": 77,
              "position": 9.308333,
              "duration": 0.125
            },
            {
              "pitch": 76,
              "velocity": 76,
              "position": 9.308333,
              "duration": 0.141667
            },
            {
              "pitch": 83,
              "velocity": 74,
              "position": 9.308333,
              "duration": 0.125
            },
            {
              "pitch": 52,
              "velocity": 61,
              "position": 9.516667,
              "duration": 0.066667
            },
            {
              "pitch": 76,
              "velocity": 66,
              "position": 9.7,
              "duration": 0.125
            },
            {
              "pitch": 79,
              "velocity": 72,
              "position": 9.7,
              "duration": 0.141667
            },
            {
              "pitch": 71,
              "velocity": 58,
              "position": 9.708333,
              "duration": 0.125
            },
            {
              "pitch": 52,
              "velocity": 62,
              "position": 10.0,
              "duration": 0.358333
            },
            {
              "pitch": 71,
              "velocity": 81,
              "position": 10.0,
              "duration": 0.258333
            },
            {
              "pitch": 76,
              "velocity": 82,
              "position": 10.0,
              "duration": 0.216667
            },
            {
              "pitch": 79,
              "velocity": 84,
              "position": 10.0,
              "duration": 0.258333
            },
            {
              "pitch": 76,
              "velocity": 68,
              "position": 10.483333,
              "duration": 0.133333
            },
            {
              "pitch": 71,
              "velocity": 70,
              "position": 10.491667,
              "duration": 0.116667
            },
            {
              "pitch": 74,
              "velocity": 68,
              "position": 10.491667,
              "duration": 0.091667
            },
            {
              "pitch": 64,
              "velocity": 42,
              "position": 11.733333,
              "duration": 0.116667
            },
            {
              "pitch": 71,
              "velocity": 63,
              "position": 11.733333,
              "duration": 0.125
            },
            {
              "pitch": 76,
              "velocity": 55,
              "position": 11.733333,
              "duration": 0.141667
            },
            {
              "pitch": 52,
              "velocity": 62,
              "position": 12.008333,
              "duration": 1.15
            },
            {
              "pitch": 64,
              "velocity": 63,
              "position": 12.008333,
              "duration": 0.25
            },
            {
              "pitch": 71,
              "velocity": 81,
              "position": 12.008333,
              "duration": 0.191667
            },
            {
              "pitch": 76,
              "velocity": 79,
              "position": 12.008333,
              "duration": 0.175
            },
            {
              "pitch": 62,
              "velocity": 73,
              "position": 12.766667,
              "duration": 0.391667
            },
            {
              "pitch": 64,
              "velocity": 63,
              "position": 12.766667,
              "duration": 0.425
            },
            {
              "pitch": 74,
              "velocity": 76,
              "position": 12.766667,
              "duration": 0.35
            },
            {
              "pitch": 59,
              "velocity": 51,
              "position": 13.008333,
              "duration": 0.116667
            },
            {
              "pitch": 62,
              "velocity": 56,
              "position": 13.483333,
              "duration": 0.533333
            },
            {
              "pitch": 64,
              "velocity": 43,
              "position": 13.483333,
              "duration": 0.633333
            },
            {
              "pitch": 71,
              "velocity": 62,
              "position": 13.483333,
              "duration": 0.616667
            },
            {
              "pitch": 62,
              "velocity": 36,
              "position": 14.491667,
              "duration": 0.058333
            },
            {
              "pitch": 36,
              "velocity": 56,
              "position": 14.725,
              "duration": 0.116667
            },
            {
              "pitch": 62,
              "velocity": 81,
              "position": 14.991667,
              "duration": 0.066667
            },
            {
              "pitch": 74,
              "velocity": 81,
              "position": 14.991667,
              "duration": 0.091667
            },
            {
              "pitch": 64,
              "velocity": 52,
              "position": 15.241667,
              "duration": 0.05
            },
            {
              "pitch": 76,
              "velocity": 62,
              "position": 15.241667,
              "duration": 0.05
            },
            {
              "pitch": 59,
              "velocity": 52,
              "position": 15.741667,
              "duration": 0.875
            },
            {
              "pitch": 64,
              "velocity": 67,
              "position": 15.741667,
              "duration": 0.391667
            },
            {
              "pitch": 67,
              "velocity": 71,
              "position": 15.741667,
              "duration": 0.45
            },
            {
              "pitch": 74,
              "velocity": 75,
              "position": 15.741667,
              "duration": 0.491667
            }
          ]
        },
        "12": {
          "ctab": {
            "srcChannel": 12,
            "name": "Guitar",
            "accType": "CHORD2",
            "editable": true,
            "mutedNotes": [],
            "mutedChords": [],
            "sourceChordNote": 0,
            "sourceChordType": "Maj7",
            "ctb2Main": {
              "ntr": "ROOT_FIXED",
              "ntt": "CHORD",
              "bassOn": false,
              "noteLowLimit": 40,
              "noteHighLimit": 76,
              "chordRootUpperLimit": 127,
              "rtr": "NOTE_GENERATOR"
            }
          },
          "notes": [
            {
              "pitch": 62,
              "velocity": 67,
              "position": 0.0,
              "duration": 1.45
            },
            {
              "pitch": 64,
              "velocity": 43,
              "position": 0.258333,
              "duration": 1.241667
            },
            {
              "pitch": 71,
              "velocity": 45,
              "position": 0.491667,
              "duration": 0.958333
            },
            {
              "pitch": 76,
              "velocity": 59,
              "position": 0.758333,
              "duration": 0.641667
            },
            {
              "pitch": 59,
              "velocity": 57,
              "position": 2.25,
              "duration": 1.208333
            },
            {
              "pitch": 64,
              "velocity": 46,
              "position": 2.516667,
              "duration": 0.816667
            },
            {
              "pitch": 71,
              "velocity": 62,
              "position": 2.766667,
              "duration": 0.583333
            },
            {
              "pitch": 62,
              "velocity": 53,
              "position": 4.241667,
              "duration": 1.133333
            },
            {
              "pitch": 64,
              "velocity": 42,
              "position": 4.491667,
              "duration": 0.883333
            },
            {
              "pitch": 71,
              "velocity": 60,
              "position": 5.008333,
              "duration": 0.358333
            },
            {
              "pitch": 76,
              "velocity": 65,
              "position": 6.0,
              "duration": 1.358333
            },
            {
              "pitch": 71,
              "velocity": 41,
              "position": 6.241667,
              "duration": 1.108333
            },
            {
              "pitch": 64,
              "velocity": 26,
              "position": 6.491667,
              "duration": 0.808333
            },
            {
              "pitch": 62,
              "velocity": 47,
              "position": 6.741667,
              "duration": 0.55
            },
            {
              "pitch": 62,
              "velocity": 60,
              "position": 8.008333,
              "duration": 3.666667
            },
            {
              "pitch": 67,
              "velocity": 62,
              "position": 8.766667,
              "duration": 3.275
            },
            {
              "pitch": 76,
              "velocity": 62,
              "position": 9.516667,
              "duration": 1.516667
            },
            {
              "pitch": 74,
              "velocity": 62,
              "position": 11.016667,
              "duration": 1.025
            },
            {
              "pitch": 62,
              "velocity": 62,
              "position": 12.008333,
              "duration": 2.5
            },
            {
              "pitch": 67,
              "velocity": 34,
              "position": 12.483333,
              "duration": 2.316667
            },
            {
              "pitch": 74,
              "velocity": 53,
              "position": 12.75,
              "duration": 2.025
            },
            {
              "pitch": 76,
              "velocity": 51,
              "position": 13.241667,
              "duration": 1.525
            },
            {
              "pitch": 79,
              "velocity": 59,
              "position": 13.758333,
              "duration": 0.983333
            }
          ]
        },
        "13": {
          "ctab": {
            "srcChannel": 13,
            "name": "Strings",
            "accType": "PAD",
            "editable": true,
            "mutedNotes": [],
            "mutedChords": [],
            "sourceChordNote": 0,
            "sourceChordType": "Maj7",
            "ctb2Main": {
              "ntr": "ROOT_FIXED",
              "ntt": "MELODY",
              "bassOn": false,
              "noteLowLimit": 36,
              "noteHighLimit": 96,
              "chordRootUpperLimit": 127,
              "rtr": "PITCH_SHIFT"
            }
          },
          "notes": [
            {
              "pitch": 64,
              "velocity": 50,
              "position": 0.008333,
              "duration": 1.091667
            },
            {
              "pitch": 71,
              "velocity": 49,
              "position": 0.008333,
              "duration": 1.125
            },
            {
              "pitch": 76,
              "velocity": 52,
              "position": 0.008333,
              "duration": 1.058333
            },
            {
              "pitch": 67,
              "velocity": 49,
              "position": 2.0,
              "duration": 1.033333
            },
            {
              "pitch": 74,
              "velocity": 48,
              "position": 2.0,
              "duration": 1.166667
            },
            {
              "pitch": 76,
              "velocity": 63,
              "position": 2.0,
              "duration": 1.15
            },
            {
              "pitch": 67,
              "velocity": 43,
              "position": 3.25,
              "duration": 0.275
            },
            {
              "pitch": 74,
              "velocity": 51,
              "position": 3.5,
              "duration": 0.066667
            },
            {
              "pitch": 67,
              "velocity": 50,
              "position": 4.0,
              "duration": 1.05
            },
            {
              "pitch": 71,
              "velocity": 50,
              "position": 4.0,
              "duration": 1.15
            },
            {
              "pitch": 74,
              "velocity": 52,
              "position": 4.0,
              "duration": 1.15
            },
            {
              "pitch": 76,
              "velocity": 51,
              "position": 4.0,
              "duration": 1.2
            },
            {
              "pitch": 71,
              "velocity": 47,
              "position": 5.75,
              "duration": 1.566667
            },
            {
              "pitch": 74,
              "velocity": 42,
              "position": 5.75,
              "duration": 1.1
            },
            {
              "pitch": 76,
              "velocity": 46,
              "position": 5.75,
              "duration": 1.058333
            },
            {
              "pitch": 79,
              "velocity": 66,
              "position": 5.766667,
              "duration": 1.55
            },
            {
              "pitch": 64,
              "velocity": 41,
              "position": 8.0,
              "duration": 0.45
            },
            {
              "pitch": 67,
              "velocity": 41,
              "position": 8.0,
              "duration": 0.508333
            },
            {
              "pitch": 67,
              "velocity": 14,
              "position": 11.25,
              "duration": 2.291667
            },
            {
              "pitch": 76,
              "velocity": 60,
              "position": 11.5,
              "duration": 0.25
            },
            {
              "pitch": 76,
              "velocity": 51,
              "position": 11.75,
              "duration": 0.291667
            },
            {
              "pitch": 79,
              "velocity": 59,
              "position": 12.0,
              "duration": 1.408333
            },
            {
              "pitch": 74,
              "velocity": 48,
              "position": 12.75,
              "duration": 0.725
            },
            {
              "pitch": 67,
              "velocity": 56,
              "position": 14.0,
              "duration": 0.091667
            },
            {
              "pitch": 74,
              "velocity": 64,
              "position": 14.0,
              "duration": 0.083333
            },
            {
              "pitch": 76,
              "velocity": 66,
              "position": 14.0,
              "duration": 0.116667
            },
            {
              "pitch": 67,
              "velocity": 47,
              "position": 14.5,
              "duration": 0.791667
            },
            {
              "pitch": 76,
              "velocity": 53,
              "position": 14.5,
              "duration": 0.516667
            },
            {
              "pitch": 74,
              "velocity": 57,
              "position": 15.0,
              "duration": 0.516667
            },
            {
              "pitch": 67,
              "velocity": 49,
              "position": 15.5,
              "duration": 0.141667
            }
          ]
        }
      }
    },
    "Main_B": {
      "type": "Main_B",
      "sizeInBeats": 16,
      "channels": {
        "9": {
          "ctab": {
            "srcChannel": 9,
            "name": "Drums",
            "accType": "RHYTHM",
            "editable": false,
            "mutedNotes": [],
            "mutedChords": [],
            "sourceChordNote": 0,
            "sourceChordType": "Maj",
            "ctb2Main": {
              "ntr": "ROOT_FIXED",
              "ntt": "BYPASS",
              "bassOn": false,
              "noteLowLimit": 20,
              "noteHighLimit": 127,
              "chordRootUpperLimit": 127,
              "rtr": "RETRIGGER"
            }
          },
          "notes": [
            {
              "pitch": 35,
              "velocity": 85,
              "position": 0.0,
              "duration": 0.633333
            },
            {
              "pitch": 49,
              "velocity": 88,
              "position": 0.0,
              "duration": 0.066667
            },
            {
              "pitch": 51,
              "velocity": 77,
              "position": 0.5,
              "duration": 0.091667
            },
            {
              "pitch": 38,
              "velocity": 96,
              "position": 1.0,
              "duration": 0.433333
            },
            {
              "pitch": 51,
              "velocity": 102,
              "position": 1.0,
              "duration": 0.083333
            },
            {
              "pitch": 51,
              "velocity": 49,
              "position": 1.25,
              "duration": 0.075
            },
            {
              "pitch": 51,
              "velocity": 45,
              "position": 1.5,
              "duration": 0.066667
            },
            {
              "pitch": 35,
              "velocity": 67,
              "position": 1.75,
              "duration": 0.075
            },
            {
              "pitch": 51,
              "velocity": 65,
              "position": 1.75,
              "duration": 0.066667
            },
            {
              "pitch": 35,
              "velocity": 78,
              "position": 2.0,
              "duration": 0.275
            },
            {
              "pitch": 51,
              "velocity": 76,
              "position": 2.0,
              "duration": 0.083333
            },
            {
              "pitch": 51,
              "velocity": 42,
              "position": 2.25,
              "duration": 0.066667
            },
            {
              "pitch": 51,
              "velocity": 57,
              "position": 2.5,
              "duration": 0.066667
            },
            {
              "pitch": 51,
              "velocity": 61,
              "position": 2.75,
              "duration": 0.058333
            },
            {
              "pitch": 38,
              "velocity": 96,
              "position": 3.0,
              "duration": 0.375
            },
            {
              "pitch": 51,
              "velocity": 102,
              "position": 3.0,
              "duration": 0.108333
            },
            {
              "pitch": 51,
              "velocity": 50,
              "position": 3.25,
              "duration": 0.066667
            },
            {
              "pitch": 51,
              "velocity": 46,
              "position": 3.5,
              "duration": 0.25
            },
            {
              "pitch": 35,
              "velocity": 29,
              "position": 3.508333,
              "duration": 0.033333
            },
            {
              "pitch": 38,
              "velocity": 29,
              "position": 3.741667,
              "duration": 0.158333
            },
            {
              "pitch": 51,
              "velocity": 70,
              "position": 3.75,
              "duration": 0.15
            },
            {
              "pitch": 35,
              "velocity": 88,
              "position": 4.0,
              "duration": 0.691667
            },
            {
              "pitch": 51,
              "velocity": 99,
              "position": 4.0,
              "duration": 0.175
            },
            {
              "pitch": 51,
              "velocity": 28,
              "position": 4.25,
              "duration": 0.066667
            },
            {
              "pitch": 51,
              "velocity": 80,
              "position": 4.5,
              "duration": 0.083333
            },
            {
              "pitch": 51,
              "velocity": 64,
              "position": 4.741667,
              "duration": 0.058333
            },
            {
              "pitch": 38,
              "velocity": 92,
              "position": 4.991667,
              "duration": 0.175
            },
            {
              "pitch": 51,
              "velocity": 104,
              "position": 5.0,
              "duration": 0.1
            },
            {
              "pitch": 38,
              "velocity": 29,
              "position": 5.183333,
              "duration": 0.191667
            },
            {
              "pitch": 51,
              "velocity": 38,
              "position": 5.241667,
              "duration": 0.166667
            },
            {
              "pitch": 38,
              "velocity": 24,
              "position": 5.45,
              "duration": 0.025
            },
            {
              "pitch": 51,
              "velocity": 69,
              "position": 5.5,
              "duration": 0.075
            },
            {
              "pitch": 35,
              "velocity": 68,
              "position": 5.75,
              "duration": 0.091667
            },
            {
              "pitch": 51,
              "velocity": 87,
              "position": 5.75,
              "duration": 0.075
            },
            {
              "pitch": 35,
              "velocity": 85,
              "position": 6.0,
              "duration": 0.641667
            },
            {
              "pitch": 51,
              "velocity": 94,
              "position": 6.0,
              "duration": 0.116667
            },
            {
              "pitch": 51,
              "velocity": 32,
              "position": 6.25,
              "duration": 0.058333
            },
            {
              "pitch": 51,
              "velocity": 78,
              "position": 6.5,
              "duration": 0.066667
            },
            {
              "pitch": 35,
              "velocity": 64,
              "position": 6.75,
              "duration": 0.091667
            },
            {
              "pitch": 51,
              "velocity": 76,
              "position": 6.75,
              "duration": 0.066667
            },
            {
              "pitch": 38,
              "velocity": 96,
              "position": 7.0,
              "duration": 0.55
            },
            {
              "pitch": 51,
              "velocity": 99,
              "position": 7.0,
              "duration": 0.125
            },
            {
              "pitch": 51,
              "velocity": 57,
              "position": 7.25,
              "duration": 0.075
            },
            {
              "pitch": 51,
              "velocity": 97,
              "position": 7.5,
              "duration": 0.291667
            },
            {
              "pitch": 35,
              "velocity": 54,
              "position": 7.508333,
              "duration": 0.041667
            },
            {
              "pitch": 35,
              "velocity": 92,
              "position": 8.0,
              "duration": 0.641667
            },
            {
              "pitch": 57,
              "velocity": 87,
              "position": 8.0,
              "duration": 0.391667
            },
            {
              "pitch": 51,
              "velocity": 95,
              "position": 8.491667,
              "duration": 0.258333
            },
            {
              "pitch": 35,
              "velocity": 58,
              "position": 8.75,
              "duration": 0.041667
            },
            {
              "pitch": 38,
              "velocity": 99,
              "position": 8.991667,
              "duration": 0.575
            },
            {
              "pitch": 51,
              "velocity": 102,
              "position": 8.991667,
              "duration": 0.333333
            },
            {
              "pitch": 51,
              "velocity": 72,
              "position": 9.5,
              "duration": 0.3
            },
            {
              "pitch": 35,
              "velocity": 69,
              "position": 9.75,
              "duration": 0.083333
            },
            {
              "pitch": 35,
              "velocity": 87,
              "position": 10.0,
              "duration": 0.191667
            },
            {
              "pitch": 53,
              "velocity": 99,
              "position": 10.0,
              "duration": 0.191667
            },
            {
              "pitch": 38,
              "velocity": 67,
              "position": 10.241667,
              "duration": 0.125
            },
            {
              "pitch": 51,
              "velocity": 42,
              "position": 10.25,
              "duration": 0.083333
            },
            {
              "pitch": 38,
              "velocity": 35,
              "position": 10.4,
              "duration": 0.075
            },
            {
              "pitch": 38,
              "velocity": 40,
              "position": 10.5,
              "duration": 0.208333
            },
            {
              "pitch": 51,
              "velocity": 77,
              "position": 10.5,
              "duration": 0.083333
            },
            {
              "pitch": 38,
              "velocity": 42,
              "position": 10.75,
              "duration": 0.2
            },
            {
              "pitch": 51,
              "velocity": 61,
              "position": 10.75,
              "duration": 0.041667
            },
            {
              "pitch": 38,
              "velocity": 103,
              "position": 11.0,
              "duration": 0.266667
            },
            {
              "pitch": 51,
              "velocity": 108,
              "position": 11.0,
              "duration": 0.108333
            },
            {
              "pitch": 51,
              "velocity": 46,
              "position": 11.25,
              "duration": 0.066667
            },
            {
              "pitch": 35,
              "velocity": 75,
              "position": 11.5,
              "duration": 0.2
            },
            {
              "pitch": 51,
              "velocity": 80,
              "position": 11.5,
              "duration": 0.075
            },
            {
              "pitch": 38,
              "velocity": 42,
              "position": 11.75,
              "duration": 0.2
            },
            {
              "pitch": 51,
              "velocity": 98,
              "position": 11.75,
              "duration": 0.041667
            },
            {
              "pitch": 35,
              "velocity": 88,
              "position": 12.0,
              "duration": 0.808333
            },
            {
              "pitch": 51,
              "velocity": 98,
              "position": 12.0,
              "duration": 0.116667
            },
            {
              "pitch": 51,
              "velocity": 38,
              "position": 12.25,
              "duration": 0.091667
            },
            {
              "pitch": 51,
              "velocity": 54,
              "position": 12.5,
              "duration": 0.091667
            },
            {
              "pitch": 51,
              "velocity": 48,
              "position": 12.75,
              "duration": 0.066667
            },
            {
              "pitch": 38,
              "velocity": 105,
              "position": 13.0,
              "duration": 0.45
            },
            {
              "pitch": 51,
              "velocity": 106,
              "position": 13.0,
              "duration": 0.133333
            },
            {
              "pitch": 51,
              "velocity": 43,
              "position": 13.25,
              "duration": 0.1
            },
            {
              "pitch": 51,
              "velocity": 52,
              "position": 13.5,
              "duration": 0.083333
            },
            {
              "pitch": 35,
              "velocity": 46,
              "position": 13.75,
              "duration": 0.05
            },
            {
              "pitch": 51,
              "velocity": 73,
              "position": 13.75,
              "duration": 0.075
            },
            {
              "pitch": 35,
              "velocity": 89,
              "position": 14.0,
              "duration": 0.6
            },
            {
              "pitch": 51,
              "velocity": 90,
              "position": 14.0,
              "duration": 0.141667
            },
            {
              "pitch": 51,
              "velocity": 67,
              "position": 14.25,
              "duration": 0.091667
            },
            {
              "pitch": 51,
              "velocity": 86,
              "position": 14.5,
              "duration": 0.108333
            },
            {
              "pitch": 35,
              "velocity": 82,
              "position": 14.75,
              "duration": 0.108333
            },
            {
              "pitch": 51,
              "velocity": 82,
              "position": 14.75,
              "duration": 0.108333
            },
            {
              "pitch": 38,
              "velocity": 105,
              "position": 15.0,
              "duration": 0.641667
            },
            {
              "pitch": 53,
              "velocity": 94,
              "position": 15.008333,
              "duration": 0.108333
            },
            {
              "pitch": 48,
              "velocity": 94,
              "position": 15.25,
              "duration": 0.091667
            },
            {
              "pitch": 45,
              "velocity": 99,
              "position": 15.5,
              "duration": 0.108333
            },
            {
              "pitch": 41,
              "velocity": 75,
              "position": 15.75,
              "duration": 0.058333
            }
          ]
        },
        "10": {
          "ctab": {
            "srcChannel": 10,
            "name": "Bass",
            "accType": "BASS",
            "editable": true,
            "mutedNotes": [],
            "mutedChords": [],
            "sourceChordNote": 0,
            "sourceChordType": "Maj7",
            "ctb2Main": {
              "ntr": "ROOT_TRANSPOSITION",
              "ntt": "BYPASS",
              "bassOn": true,
              "noteLowLimit": 20,
              "noteHighLimit": 60,
              "chordRootUpperLimit": 127,
              "rtr": "NOTE_GENERATOR"
            }
          },
          "notes": [
            {
              "pitch": 36,
              "velocity": 96,
              "position": 0.0,
              "duration": 0.933333
            },
            {
              "pitch": 43,
              "velocity": 82,
              "position": 1.25,
              "duration": 0.25
            },
            {
              "pitch": 36,
              "velocity": 75,
              "position": 1.75,
              "duration": 0.216667
            },
            {
              "pitch": 36,
              "velocity": 76,
              "position": 2.0,
              "duration": 0.258333
            },
            {
              "pitch": 36,
              "velocity": 88,
              "position": 2.5,
              "duration": 0.766667
            },
            {
              "pitch": 43,
              "velocity": 87,
              "position": 3.25,
              "duration": 0.508333
            },
            {
              "pitch": 36,
              "velocity": 87,
              "position": 3.766667,
              "duration": 0.2
            },
            {
              "pitch": 36,
              "velocity": 96,
              "position": 4.0,
              "duration": 1.216667
            },
            {
              "pitch": 43,
              "velocity": 61,
              "position": 5.25,
              "duration": 0.108333
            },
            {
              "pitch": 36,
              "velocity": 96,
              "position": 5.75,
              "duration": 0.216667
            },
            {
              "pitch": 36,
              "velocity": 90,
              "position": 6.0,
              "duration": 0.6
            },
            {
              "pitch": 36,
              "velocity": 85,
              "position": 6.75,
              "duration": 0.241667
            },
            {
              "pitch": 43,
              "velocity": 94,
              "position": 7.0,
              "duration": 0.491667
            },
            {
              "pitch": 36,
              "velocity": 70,
              "position": 7.5,
              "duration": 0.183333
            },
            {
              "pitch": 36,
              "velocity": 91,
              "position": 8.0,
              "duration": 2.45
            },
            {
              "pitch": 43,
              "velocity": 101,
              "position": 10.5,
              "duration": 0.541667
            },
            {
              "pitch": 48,
              "velocity": 83,
              "position": 11.0,
              "duration": 0.658333
            },
            {
              "pitch": 43,
              "velocity": 71,
              "position": 11.75,
              "duration": 0.041667
            },
            {
              "pitch": 36,
              "velocity": 90,
              "position": 12.0,
              "duration": 0.416667
            },
            {
              "pitch": 36,
              "velocity": 86,
              "position": 14.0,
              "duration": 0.208333
            },
            {
              "pitch": 36,
              "velocity": 84,
              "position": 14.75,
              "duration": 0.166667
            },
            {
              "pitch": 36,
              "velocity": 73,
              "position": 15.0,
              "duration": 0.158333
            },
            {
              "pitch": 36,
              "velocity": 79,
              "position": 15.25,
              "duration": 0.725
            }
          ]
        },
        "11": {
          "ctab": {
            "srcChannel": 11,
            "name": "Piano",
            "accType": "CHORD1",
            "editable": true,
            "mutedNotes": [],
            "mutedChords": [],
            "sourceChordNote": 0,
            "sourceChordType": "Maj7",
            "ctb2Main": {
              "ntr": "ROOT_FIXED",
              "ntt": "CHORD",
              "bassOn": false,
              "noteLowLimit": 48,
              "noteHighLimit": 84,
              "chordRootUpperLimit": 127,
              "rtr": "NOTE_GENERATOR"
            }
          },
          "notes": [
            {
              "pitch": 59,
              "velocity": 61,
              "position": 1.008333,
              "duration": 0.258333
            },
            {
              "pitch": 76,
              "velocity": 82,
              "position": 1.008333,
              "duration": 0.25
            },
            {
              "pitch": 79,
              "velocity": 77,
              "position": 1.008333,
              "duration": 0.233333
            },
            {
              "pitch": 74,
              "velocity": 49,
              "position": 1.258333,
              "duration": 0.066667
            },
            {
              "pitch": 55,
              "velocity": 48,
              "position": 1.741667,
              "duration": 0.2
            },
            {
              "pitch": 64,
              "velocity": 51,
              "position": 1.741667,
              "duration": 0.2
            },
            {
              "pitch": 71,
              "velocity": 69,
              "position": 1.741667,
              "duration": 0.2
            },
            {
              "pitch": 74,
              "velocity": 69,
              "position": 1.741667,
              "duration": 0.2
            },
            {
              "pitch": 76,
              "velocity": 66,
              "position": 1.741667,
              "duration": 0.2
            },
            {
              "pitch": 79,
              "velocity": 71,
              "position": 1.758333,
              "duration": 0.183333
            },
            {
              "pitch": 36,
              "velocity": 45,
              "position": 2.008333,
              "duration": 0.991667
            },
            {
              "pitch": 52,
              "velocity": 47,
              "position": 2.008333,
              "duration": 0.725
            },
            {
              "pitch": 64,
              "velocity": 57,
              "position": 2.008333,
              "duration": 0.216667
            },
            {
              "pitch": 67,
              "velocity": 54,
              "position": 2.008333,
              "duration": 0.308333
            },
            {
              "pitch": 52,
              "velocity": 69,
              "position": 3.0,
              "duration": 0.075
            },
            {
              "pitch": 64,
              "velocity": 90,
              "position": 3.241667,
              "duration": 0.283333
            },
            {
              "pitch": 76,
              "velocity": 96,
              "position": 3.258333,
              "duration": 0.35
            },
            {
              "pitch": 59,
              "velocity": 61,
              "position": 3.733333,
              "duration": 0.208333
            },
            {
              "pitch": 48,
              "velocity": 52,
              "position": 4.0,
              "duration": 0.658333
            },
            {
              "pitch": 64,
              "velocity": 46,
              "position": 4.508333,
              "duration": 0.058333
            },
            {
              "pitch": 59,
              "velocity": 64,
              "position": 4.758333,
              "duration": 0.333333
            },
            {
              "pitch": 74,
              "velocity": 89,
              "position": 5.008333,
              "duration": 0.283333
            },
            {
              "pitch": 71,
              "velocity": 61,
              "position": 5.258333,
              "duration": 0.158333
            },
            {
              "pitch": 64,
              "velocity": 57,
              "position": 5.491667,
              "duration": 0.091667
            },
            {
              "pitch": 64,
              "velocity": 60,
              "position": 5.741667,
              "duration": 0.2
            },
            {
              "pitch": 74,
              "velocity": 72,
              "position": 5.741667,
              "duration": 0.2
            },
            {
              "pitch": 71,
              "velocity": 78,
              "position": 5.75,
              "duration": 0.191667
            },
            {
              "pitch": 36,
              "velocity": 45,
              "position": 6.008333,
              "duration": 0.991667
            },
            {
              "pitch": 52,
              "velocity": 47,
              "position": 6.008333,
              "duration": 0.725
            },
            {
              "pitch": 64,
              "velocity": 57,
              "position": 6.008333,
              "duration": 0.216667
            },
            {
              "pitch": 67,
              "velocity": 54,
              "position": 6.008333,
              "duration": 0.308333
            },
            {
              "pitch": 52,
              "velocity": 69,
              "position": 7.0,
              "duration": 0.075
            },
            {
              "pitch": 64,
              "velocity": 90,
              "position": 7.241667,
              "duration": 0.283333
            },
            {
              "pitch": 76,
              "velocity": 96,
              "position": 7.258333,
              "duration": 0.35
            },
            {
              "pitch": 59,
              "velocity": 61,
              "position": 7.733333,
              "duration": 0.208333
            },
            {
              "pitch": 48,
              "velocity": 32,
              "position": 8.0,
              "duration": 2.05
            },
            {
              "pitch": 55,
              "velocity": 29,
              "position": 8.0,
              "duration": 2.041667
            },
            {
              "pitch": 64,
              "velocity": 49,
              "position": 8.0,
              "duration": 0.333333
            },
            {
              "pitch": 67,
              "velocity": 45,
              "position": 8.0,
              "duration": 0.358333
            },
            {
              "pitch": 67,
              "velocity": 83,
              "position": 8.991667,
              "duration": 0.233333
            },
            {
              "pitch": 76,
              "velocity": 91,
              "position": 8.991667,
              "duration": 0.241667
            },
            {
              "pitch": 76,
              "velocity": 77,
              "position": 9.308333,
              "duration": 0.191667
            },
            {
              "pitch": 67,
              "velocity": 74,
              "position": 9.316667,
              "duration": 0.166667
            },
            {
              "pitch": 67,
              "velocity": 62,
              "position": 9.708333,
              "duration": 0.158333
            },
            {
              "pitch": 74,
              "velocity": 67,
              "position": 9.708333,
              "duration": 0.158333
            },
            {
              "pitch": 76,
              "velocity": 64,
              "position": 9.708333,
              "duration": 0.166667
            },
            {
              "pitch": 67,
              "velocity": 67,
              "position": 10.008333,
              "duration": 0.166667
            },
            {
              "pitch": 74,
              "velocity": 72,
              "position": 10.008333,
              "duration": 0.125
            },
            {
              "pitch": 76,
              "velocity": 71,
              "position": 10.008333,
              "duration": 0.15
            },
            {
              "pitch": 67,
              "velocity": 97,
              "position": 11.241667,
              "duration": 0.2
            },
            {
              "pitch": 74,
              "velocity": 90,
              "position": 11.241667,
              "duration": 0.425
            },
            {
              "pitch": 64,
              "velocity": 40,
              "position": 11.491667,
              "duration": 0.191667
            },
            {
              "pitch": 55,
              "velocity": 51,
              "position": 11.741667,
              "duration": 0.416667
            },
            {
              "pitch": 64,
              "velocity": 44,
              "position": 12.008333,
              "duration": 0.133333
            },
            {
              "pitch": 67,
              "velocity": 43,
              "position": 12.008333,
              "duration": 0.108333
            },
            {
              "pitch": 36,
              "velocity": 44,
              "position": 12.758333,
              "duration": 0.208333
            },
            {
              "pitch": 62,
              "velocity": 84,
              "position": 13.008333,
              "duration": 0.15
            },
            {
              "pitch": 67,
              "velocity": 85,
              "position": 13.008333,
              "duration": 0.15
            },
            {
              "pitch": 74,
              "velocity": 84,
              "position": 13.008333,
              "duration": 0.15
            },
            {
              "pitch": 62,
              "velocity": 47,
              "position": 13.258333,
              "duration": 0.075
            },
            {
              "pitch": 67,
              "velocity": 44,
              "position": 13.258333,
              "duration": 0.083333
            },
            {
              "pitch": 74,
              "velocity": 33,
              "position": 13.266667,
              "duration": 0.05
            },
            {
              "pitch": 67,
              "velocity": 60,
              "position": 13.5,
              "duration": 0.116667
            },
            {
              "pitch": 74,
              "velocity": 47,
              "position": 13.508333,
              "duration": 0.091667
            },
            {
              "pitch": 62,
              "velocity": 42,
              "position": 13.516667,
              "duration": 0.05
            },
            {
              "pitch": 62,
              "velocity": 75,
              "position": 13.758333,
              "duration": 0.5
            },
            {
              "pitch": 64,
              "velocity": 65,
              "position": 13.758333,
              "duration": 0.475
            },
            {
              "pitch": 71,
              "velocity": 77,
              "position": 13.758333,
              "duration": 0.516667
            },
            {
              "pitch": 74,
              "velocity": 74,
              "position": 13.758333,
              "duration": 0.5
            },
            {
              "pitch": 48,
              "velocity": 56,
              "position": 14.0,
              "duration": 0.075
            },
            {
              "pitch": 36,
              "velocity": 76,
              "position": 14.266667,
              "duration": 0.2
            },
            {
              "pitch": 62,
              "velocity": 83,
              "position": 14.508333,
              "duration": 0.225
            },
            {
              "pitch": 74,
              "velocity": 87,
              "position": 14.508333,
              "duration": 0.233333
            },
            {
              "pitch": 48,
              "velocity": 74,
              "position": 14.758333,
              "duration": 0.258333
            },
            {
              "pitch": 62,
              "velocity": 74,
              "position": 15.016667,
              "duration": 0.275
            },
            {
              "pitch": 36,
              "velocity": 65,
              "position": 15.241667,
              "duration": 0.208333
            },
            {
              "pitch": 64,
              "velocity": 76,
              "position": 15.508333,
              "duration": 0.2
            },
            {
              "pitch": 67,
              "velocity": 76,
              "position": 15.508333,
              "duration": 0.2
            }
          ]
        },
        "12": {
          "ctab": {
            "srcChannel": 12,
            "name": "Guitar",
            "accType": "CHORD2",
            "editable": true,
            "mutedNotes": [],
            "mutedChords": [],
            "sourceChordNote": 0,
            "sourceChordType": "Maj7",
            "ctb2Main": {
              "ntr": "ROOT_FIXED",
              "ntt": "CHORD",
              "bassOn": false,
              "noteLowLimit": 40,
              "noteHighLimit": 76,
              "chordRootUpperLimit": 127,
              "rtr": "NOTE_GENERATOR"
            }
          },
          "notes": [
            {
              "pitch": 59,
              "velocity": 70,
              "position": 0.008333,
              "duration": 1.55
            },
            {
              "pitch": 67,
              "velocity": 43,
              "position": 0.258333,
              "duration": 1.016667
            },
            {
              "pitch": 71,
              "velocity": 46,
              "position": 0.5,
              "duration": 0.741667
            },
            {
              "pitch": 76,
              "velocity": 57,
              "position": 0.758333,
              "duration": 0.533333
            },
            {
              "pitch": 59,
              "velocity": 68,
              "position": 2.008333,
              "duration": 1.266667
            },
            {
              "pitch": 67,
              "velocity": 40,
              "position": 2.25,
              "duration": 0.941667
            },
            {
              "pitch": 74,
              "velocity": 52,
              "position": 2.5,
              "duration": 0.65
            },
            {
              "pitch": 76,
              "velocity": 61,
              "position": 2.758333,
              "duration": 0.375
            },
            {
              "pitch": 74,
              "velocity": 69,
              "position": 4.016667,
              "duration": 1.183333
            },
            {
              "pitch": 64,
              "velocity": 34,
              "position": 4.508333,
              "duration": 0.708333
            },
            {
              "pitch": 67,
              "velocity": 56,
              "position": 4.758333,
              "duration": 0.441667
            },
            {
              "pitch": 55,
              "velocity": 65,
              "position": 5.75,
              "duration": 0.25
            },
            {
              "pitch": 59,
              "velocity": 70,
              "position": 6.008333,
              "duration": 1.55
            },
            {
              "pitch": 67,
              "velocity": 43,
              "position": 6.258333,
              "duration": 1.016667
            },
            {
              "pitch": 71,
              "velocity": 46,
              "position": 6.5,
              "duration": 0.741667
            },
            {
              "pitch": 76,
              "velocity": 57,
              "position": 6.758333,
              "duration": 0.533333
            },
            {
              "pitch": 60,
              "velocity": 65,
              "position": 8.25,
              "duration": 3.466667
            },
            {
              "pitch": 67,
              "velocity": 37,
              "position": 8.491667,
              "duration": 2.616667
            },
            {
              "pitch": 72,
              "velocity": 56,
              "position": 8.75,
              "duration": 2.291667
            },
            {
              "pitch": 74,
              "velocity": 56,
              "position": 9.25,
              "duration": 1.791667
            },
            {
              "pitch": 72,
              "velocity": 69,
              "position": 12.016667,
              "duration": 3.025
            },
            {
              "pitch": 67,
              "velocity": 57,
              "position": 12.75,
              "duration": 2.291667
            },
            {
              "pitch": 64,
              "velocity": 46,
              "position": 13.491667,
              "duration": 1.516667
            },
            {
              "pitch": 60,
              "velocity": 74,
              "position": 15.0,
              "duration": 0.641667
            },
            {
              "pitch": 64,
              "velocity": 44,
              "position": 15.241667,
              "duration": 0.4
            },
            {
              "pitch": 67,
              "velocity": 58,
              "position": 15.5,
              "duration": 0.191667
            }
          ]
        },
        "13": {
          "ctab": {
            "srcChannel": 13,
            "name": "Strings",
            "accType": "PAD",
            "editable": true,
            "mutedNotes": [],
            "mutedChords": [],
            "sourceChordNote": 0,
            "sourceChordType": "Maj7",
            "ctb2Main": {
              "ntr": "ROOT_FIXED",
              "ntt": "MELODY",
              "bassOn": false,
              "noteLowLimit": 36,
              "noteHighLimit": 96,
              "chordRootUpperLimit": 127,
              "rtr": "PITCH_SHIFT"
            }
          },
          "notes": [
            {
              "pitch": 71,
              "velocity": 50,
              "position": 0.0,
              "duration": 0.783333
            },
            {
              "pitch": 76,
              "velocity": 45,
              "position": 0.0,
              "duration": 0.783333
            },
            {
              "pitch": 79,
              "velocity": 56,
              "position": 0.0,
              "duration": 0.875
            },
            {
              "pitch": 67,
              "velocity": 56,
              "position": 1.75,
              "duration": 0.375
            },
            {
              "pitch": 71,
              "velocity": 57,
              "position": 1.75,
              "duration": 0.475
            },
            {
              "pitch": 74,
              "velocity": 51,
              "position": 1.75,
              "duration": 0.425
            },
            {
              "pitch": 76,
              "velocity": 47,
              "position": 1.75,
              "duration": 0.416667
            },
            {
              "pitch": 64,
              "velocity": 49,
              "position": 2.75,
              "duration": 0.416667
            },
            {
              "pitch": 71,
              "velocity": 54,
              "position": 3.0,
              "duration": 0.233333
            },
            {
              "pitch": 64,
              "velocity": 40,
              "position": 3.5,
              "duration": 0.208333
            },
            {
              "pitch": 64,
              "velocity": 39,
              "position": 4.5,
              "duration": 0.625
            },
            {
              "pitch": 67,
              "velocity": 52,
              "position": 4.5,
              "duration": 0.641667
            },
            {
              "pitch": 74,
              "velocity": 52,
              "position": 4.5,
              "duration": 0.591667
            },
            {
              "pitch": 71,
              "velocity": 54,
              "position": 5.258333,
              "duration": 0.45
            },
            {
              "pitch": 74,
              "velocity": 56,
              "position": 5.258333,
              "duration": 0.441667
            },
            {
              "pitch": 67,
              "velocity": 56,
              "position": 5.75,
              "duration": 0.375
            },
            {
              "pitch": 71,
              "velocity": 57,
              "position": 5.75,
              "duration": 0.475
            },
            {
              "pitch": 74,
              "velocity": 51,
              "position": 5.75,
              "duration": 0.425
            },
            {
              "pitch": 76,
              "velocity": 47,
              "position": 5.75,
              "duration": 0.416667
            },
            {
              "pitch": 64,
              "velocity": 49,
              "position": 6.75,
              "duration": 0.416667
            },
            {
              "pitch": 71,
              "velocity": 54,
              "position": 7.0,
              "duration": 0.233333
            },
            {
              "pitch": 64,
              "velocity": 40,
              "position": 7.5,
              "duration": 0.208333
            },
            {
              "pitch": 86,
              "velocity": 77,
              "position": 8.0,
              "duration": 2.433333
            },
            {
              "pitch": 79,
              "velocity": 39,
              "position": 8.491667,
              "duration": 0.65
            },
            {
              "pitch": 83,
              "velocity": 57,
              "position": 9.0,
              "duration": 0.575
            },
            {
              "pitch": 76,
              "velocity": 41,
              "position": 9.5,
              "duration": 0.475
            },
            {
              "pitch": 79,
              "velocity": 60,
              "position": 9.991667,
              "duration": 0.533333
            },
            {
              "pitch": 74,
              "velocity": 33,
              "position": 10.5,
              "duration": 0.15
            },
            {
              "pitch": 71,
              "velocity": 54,
              "position": 11.0,
              "duration": 0.491667
            },
            {
              "pitch": 67,
              "velocity": 35,
              "position": 11.5,
              "duration": 0.1
            },
            {
              "pitch": 64,
              "velocity": 35,
              "position": 11.991667,
              "duration": 1.225
            },
            {
              "pitch": 71,
              "velocity": 57,
              "position": 11.991667,
              "duration": 1.208333
            },
            {
              "pitch": 74,
              "velocity": 52,
              "position": 11.991667,
              "duration": 1.2
            },
            {
              "pitch": 64,
              "velocity": 44,
              "position": 13.5,
              "duration": 0.758333
            },
            {
              "pitch": 71,
              "velocity": 60,
              "position": 13.5,
              "duration": 0.683333
            },
            {
              "pitch": 74,
              "velocity": 57,
              "position": 13.5,
              "duration": 0.633333
            },
            {
              "pitch": 62,
              "velocity": 51,
              "position": 14.491667,
              "duration": 0.191667
            },
            {
              "pitch": 64,
              "velocity": 47,
              "position": 15.0,
              "duration": 0.35
            },
            {
              "pitch": 67,
              "velocity": 54,
              "position": 15.5,
              "duration": 0.183333
            }
          ]
        }
      }
    },
    "Main_C": {
      "type": "Main_C",
      "sizeInBeats": 16,
      "channels": {
        "9": {
          "ctab": {
            "srcChannel": 9,
            "name": "Drums",
            "accType": "RHYTHM",
            "editable": false,
            "mutedNotes": [],
            "mutedChords": [],
            "sourceChordNote": 0,
            "sourceChordType": "Maj",
            "ctb2Main": {
              "ntr": "ROOT_FIXED",
              "ntt": "BYPASS",
              "bassOn": false,
              "noteLowLimit": 20,
              "noteHighLimit": 127,
              "chordRootUpperLimit": 127,
              "rtr": "RETRIGGER"
            }
          },
          "notes": [
            {
              "pitch": 35,
              "velocity": 92,
              "position": 0.0,
              "duration": 0.425
            },
            {
              "pitch": 49,
              "velocity": 90,
              "position": 0.0,
              "duration": 0.091667
            },
            {
              "pitch": 35,
              "velocity": 65,
              "position": 0.5,
              "duration": 0.116667
            },
            {
              "pitch": 51,
              "velocity": 78,
              "position": 0.5,
              "duration": 0.083333
            },
            {
              "pitch": 38,
              "velocity": 103,
              "position": 1.0,
              "duration": 0.208333
            },
            {
              "pitch": 51,
              "velocity": 98,
              "position": 1.0,
              "duration": 0.208333
            },
            {
              "pitch": 51,
              "velocity": 64,
              "position": 1.241667,
              "duration": 0.083333
            },
            {
              "pitch": 38,
              "velocity": 33,
              "position": 1.258333,
              "duration": 0.1
            },
            {
              "pitch": 51,
              "velocity": 50,
              "position": 1.383333,
              "duration": 0.058333
            },
            {
              "pitch": 35,
              "velocity": 49,
              "position": 1.491667,
              "duration": 0.041667
            },
            {
              "pitch": 51,
              "velocity": 98,
              "position": 1.741667,
              "duration": 0.15
            },
            {
              "pitch": 51,
              "velocity": 46,
              "position": 1.991667,
              "duration": 0.075
            },
            {
              "pitch": 35,
              "velocity": 67,
              "position": 2.241667,
              "duration": 0.108333
            },
            {
              "pitch": 51,
              "velocity": 82,
              "position": 2.241667,
              "duration": 0.083333
            },
            {
              "pitch": 38,
              "velocity": 103,
              "position": 2.491667,
              "duration": 0.566667
            },
            {
              "pitch": 51,
              "velocity": 102,
              "position": 2.5,
              "duration": 0.108333
            },
            {
              "pitch": 51,
              "velocity": 55,
              "position": 2.633333,
              "duration": 0.091667
            },
            {
              "pitch": 51,
              "velocity": 84,
              "position": 2.991667,
              "duration": 0.108333
            },
            {
              "pitch": 38,
              "velocity": 26,
              "position": 3.183333,
              "duration": 0.141667
            },
            {
              "pitch": 51,
              "velocity": 87,
              "position": 3.241667,
              "duration": 0.2
            },
            {
              "pitch": 35,
              "velocity": 53,
              "position": 3.491667,
              "duration": 0.3
            },
            {
              "pitch": 47,
              "velocity": 92,
              "position": 3.491667,
              "duration": 0.4
            },
            {
              "pitch": 51,
              "velocity": 92,
              "position": 3.491667,
              "duration": 0.133333
            },
            {
              "pitch": 35,
              "velocity": 88,
              "position": 4.0,
              "duration": 0.691667
            },
            {
              "pitch": 51,
              "velocity": 99,
              "position": 4.0,
              "duration": 0.175
            },
            {
              "pitch": 51,
              "velocity": 28,
              "position": 4.25,
              "duration": 0.066667
            },
            {
              "pitch": 51,
              "velocity": 80,
              "position": 4.5,
              "duration": 0.083333
            },
            {
              "pitch": 51,
              "velocity": 64,
              "position": 4.741667,
              "duration": 0.058333
            },
            {
              "pitch": 38,
              "velocity": 92,
              "position": 4.991667,
              "duration": 0.175
            },
            {
              "pitch": 51,
              "velocity": 104,
              "position": 5.0,
              "duration": 0.1
            },
            {
              "pitch": 38,
              "velocity": 29,
              "position": 5.183333,
              "duration": 0.191667
            },
            {
              "pitch": 51,
              "velocity": 38,
              "position": 5.241667,
              "duration": 0.166667
            },
            {
              "pitch": 38,
              "velocity": 24,
              "position": 5.45,
              "duration": 0.025
            },
            {
              "pitch": 51,
              "velocity": 69,
              "position": 5.5,
              "duration": 0.075
            },
            {
              "pitch": 35,
              "velocity": 68,
              "position": 5.75,
              "duration": 0.091667
            },
            {
              "pitch": 51,
              "velocity": 87,
              "position": 5.75,
              "duration": 0.075
            },
            {
              "pitch": 35,
              "velocity": 85,
              "position": 6.0,
              "duration": 0.641667
            },
            {
              "pitch": 51,
              "velocity": 94,
              "position": 6.0,
              "duration": 0.116667
            },
            {
              "pitch": 51,
              "velocity": 32,
              "position": 6.25,
              "duration": 0.058333
            },
            {
              "pitch": 51,
              "velocity": 78,
              "position": 6.5,
              "duration": 0.066667
            },
            {
              "pitch": 35,
              "velocity": 64,
              "position": 6.75,
              "duration": 0.091667
            },
            {
              "pitch": 51,
              "velocity": 76,
              "position": 6.75,
              "duration": 0.066667
            },
            {
              "pitch": 38,
              "velocity": 96,
              "position": 7.0,
              "duration": 0.55
            },
            {
              "pitch": 51,
              "velocity": 99,
              "position": 7.0,
              "duration": 0.125
            },
            {
              "pitch": 51,
              "velocity": 57,
              "position": 7.25,
              "duration": 0.075
            },
            {
              "pitch": 51,
              "velocity": 97,
              "position": 7.5,
              "duration": 0.291667
            },
            {
              "pitch": 35,
              "velocity": 54,
              "position": 7.508333,
              "duration": 0.041667
            },
            {
              "pitch": 35,
              "velocity": 85,
              "position": 8.0,
              "duration": 0.675
            },
            {
              "pitch": 51,
              "velocity": 63,
              "position": 8.0,
              "duration": 0.033333
            },
            {
              "pitch": 51,
              "velocity": 85,
              "position": 8.5,
              "duration": 0.275
            },
            {
              "pitch": 38,
              "velocity": 95,
              "position": 9.0,
              "duration": 0.6
            },
            {
              "pitch": 51,
              "velocity": 94,
              "position": 9.0,
              "duration": 0.3
            },
            {
              "pitch": 51,
              "velocity": 67,
              "position": 9.5,
              "duration": 0.1
            },
            {
              "pitch": 35,
              "velocity": 55,
              "position": 9.75,
              "duration": 0.091667
            },
            {
              "pitch": 51,
              "velocity": 58,
              "position": 9.75,
              "duration": 0.066667
            },
            {
              "pitch": 35,
              "velocity": 90,
              "position": 10.0,
              "duration": 0.8
            },
            {
              "pitch": 51,
              "velocity": 99,
              "position": 10.0,
              "duration": 0.208333
            },
            {
              "pitch": 51,
              "velocity": 14,
              "position": 10.25,
              "duration": 0.041667
            },
            {
              "pitch": 51,
              "velocity": 77,
              "position": 10.5,
              "duration": 0.275
            },
            {
              "pitch": 38,
              "velocity": 101,
              "position": 11.0,
              "duration": 0.508333
            },
            {
              "pitch": 51,
              "velocity": 102,
              "position": 11.0,
              "duration": 0.308333
            },
            {
              "pitch": 51,
              "velocity": 83,
              "position": 11.5,
              "duration": 0.125
            },
            {
              "pitch": 35,
              "velocity": 63,
              "position": 11.75,
              "duration": 0.083333
            },
            {
              "pitch": 35,
              "velocity": 85,
              "position": 12.0,
              "duration": 0.8
            },
            {
              "pitch": 51,
              "velocity": 102,
              "position": 12.0,
              "duration": 0.083333
            },
            {
              "pitch": 51,
              "velocity": 47,
              "position": 12.25,
              "duration": 0.058333
            },
            {
              "pitch": 51,
              "velocity": 76,
              "position": 12.5,
              "duration": 0.108333
            },
            {
              "pitch": 53,
              "velocity": 92,
              "position": 12.75,
              "duration": 0.108333
            },
            {
              "pitch": 38,
              "velocity": 90,
              "position": 13.0,
              "duration": 0.575
            },
            {
              "pitch": 51,
              "velocity": 90,
              "position": 13.0,
              "duration": 0.1
            },
            {
              "pitch": 51,
              "velocity": 53,
              "position": 13.25,
              "duration": 0.091667
            },
            {
              "pitch": 51,
              "velocity": 74,
              "position": 13.5,
              "duration": 0.108333
            },
            {
              "pitch": 35,
              "velocity": 71,
              "position": 13.75,
              "duration": 0.083333
            },
            {
              "pitch": 51,
              "velocity": 77,
              "position": 13.75,
              "duration": 0.066667
            },
            {
              "pitch": 35,
              "velocity": 87,
              "position": 14.0,
              "duration": 0.216667
            },
            {
              "pitch": 51,
              "velocity": 95,
              "position": 14.0,
              "duration": 0.116667
            },
            {
              "pitch": 38,
              "velocity": 67,
              "position": 14.25,
              "duration": 0.2
            },
            {
              "pitch": 51,
              "velocity": 59,
              "position": 14.25,
              "duration": 0.083333
            },
            {
              "pitch": 45,
              "velocity": 67,
              "position": 14.5,
              "duration": 0.2
            },
            {
              "pitch": 51,
              "velocity": 83,
              "position": 14.5,
              "duration": 0.125
            },
            {
              "pitch": 51,
              "velocity": 33,
              "position": 14.75,
              "duration": 0.058333
            },
            {
              "pitch": 38,
              "velocity": 103,
              "position": 15.0,
              "duration": 0.6
            },
            {
              "pitch": 51,
              "velocity": 98,
              "position": 15.0,
              "duration": 0.116667
            },
            {
              "pitch": 51,
              "velocity": 71,
              "position": 15.25,
              "duration": 0.108333
            },
            {
              "pitch": 53,
              "velocity": 101,
              "position": 15.5,
              "duration": 0.141667
            },
            {
              "pitch": 51,
              "velocity": 69,
              "position": 15.75,
              "duration": 0.058333
            }
          ]
        },
        "10": {
          "ctab": {
            "srcChannel": 10,
            "name": "Bass",
            "accType": "BASS",
            "editable": true,
            "mutedNotes": [],
            "mutedChords": [],
            "sourceChordNote": 0,
            "sourceChordType": "Maj7",
            "ctb2Main": {
              "ntr": "ROOT_TRANSPOSITION",
              "ntt": "BYPASS",
              "bassOn": true,
              "noteLowLimit": 20,
              "noteHighLimit": 60,
              "chordRootUpperLimit": 127,
              "rtr": "NOTE_GENERATOR"
            }
          },
          "notes": [
            {
              "pitch": 36,
              "velocity": 77,
              "position": 0.0,
              "duration": 0.708333
            },
            {
              "pitch": 36,
              "velocity": 92,
              "position": 1.758333,
              "duration": 0.2
            },
            {
              "pitch": 36,
              "velocity": 77,
              "position": 2.0,
              "duration": 0.708333
            },
            {
              "pitch": 36,
              "velocity": 92,
              "position": 3.758333,
              "duration": 0.2
            },
            {
              "pitch": 36,
              "velocity": 96,
              "position": 4.0,
              "duration": 1.216667
            },
            {
              "pitch": 43,
              "velocity": 61,
              "position": 5.25,
              "duration": 0.108333
            },
            {
              "pitch": 36,
              "velocity": 96,
              "position": 5.75,
              "duration": 0.216667
            },
            {
              "pitch": 36,
              "velocity": 79,
              "position": 6.0,
              "duration": 0.933333
            },
            {
              "pitch": 36,
              "velocity": 90,
              "position": 7.75,
              "duration": 0.216667
            },
            {
              "pitch": 36,
              "velocity": 77,
              "position": 8.0,
              "duration": 0.975
            },
            {
              "pitch": 43,
              "velocity": 95,
              "position": 9.75,
              "duration": 0.316667
            },
            {
              "pitch": 43,
              "velocity": 77,
              "position": 10.25,
              "duration": 0.25
            },
            {
              "pitch": 36,
              "velocity": 86,
              "position": 10.5,
              "duration": 0.775
            },
            {
              "pitch": 40,
              "velocity": 91,
              "position": 11.25,
              "duration": 0.241667
            },
            {
              "pitch": 43,
              "velocity": 82,
              "position": 11.5,
              "duration": 0.483333
            },
            {
              "pitch": 36,
              "velocity": 83,
              "position": 12.0,
              "duration": 0.391667
            },
            {
              "pitch": 43,
              "velocity": 71,
              "position": 13.75,
              "duration": 0.208333
            },
            {
              "pitch": 36,
              "velocity": 89,
              "position": 14.0,
              "duration": 0.533333
            },
            {
              "pitch": 36,
              "velocity": 98,
              "position": 15.5,
              "duration": 0.125
            }
          ]
        },
        "11": {
          "ctab": {
            "srcChannel": 11,
            "name": "Piano",
            "accType": "CHORD1",
            "editable": true,
            "mutedNotes": [],
            "mutedChords": [],
            "sourceChordNote": 0,
            "sourceChordType": "Maj7",
            "ctb2Main": {
              "ntr": "ROOT_FIXED",
              "ntt": "CHORD",
              "bassOn": false,
              "noteLowLimit": 48,
              "noteHighLimit": 84,
              "chordRootUpperLimit": 127,
              "rtr": "NOTE_GENERATOR"
            }
          },
          "notes": [
            {
              "pitch": 48,
              "velocity": 64,
              "position": 0.0,
              "duration": 0.541667
            },
            {
              "pitch": 64,
              "velocity": 34,
              "position": 0.491667,
              "duration": 0.05
            },
            {
              "pitch": 59,
              "velocity": 68,
              "position": 0.741667,
              "duration": 0.516667
            },
            {
              "pitch": 64,
              "velocity": 75,
              "position": 0.983333,
              "duration": 0.266667
            },
            {
              "pitch": 71,
              "velocity": 89,
              "position": 0.983333,
              "duration": 0.275
            },
            {
              "pitch": 74,
              "velocity": 84,
              "position": 0.991667,
              "duration": 0.25
            },
            {
              "pitch": 67,
              "velocity": 59,
              "position": 1.491667,
              "duration": 0.183333
            },
            {
              "pitch": 71,
              "velocity": 55,
              "position": 1.491667,
              "duration": 0.2
            },
            {
              "pitch": 64,
              "velocity": 54,
              "position": 1.5,
              "duration": 0.166667
            },
            {
              "pitch": 55,
              "velocity": 56,
              "position": 2.0,
              "duration": 0.108333
            },
            {
              "pitch": 62,
              "velocity": 58,
              "position": 2.241667,
              "duration": 0.166667
            },
            {
              "pitch": 48,
              "velocity": 67,
              "position": 2.491667,
              "duration": 0.516667
            },
            {
              "pitch": 55,
              "velocity": 59,
              "position": 2.75,
              "duration": 0.25
            },
            {
              "pitch": 62,
              "velocity": 76,
              "position": 3.0,
              "duration": 0.291667
            },
            {
              "pitch": 74,
              "velocity": 76,
              "position": 3.0,
              "duration": 0.366667
            },
            {
              "pitch": 48,
              "velocity": 60,
              "position": 3.25,
              "duration": 0.191667
            },
            {
              "pitch": 62,
              "velocity": 63,
              "position": 3.508333,
              "duration": 0.266667
            },
            {
              "pitch": 48,
              "velocity": 64,
              "position": 4.0,
              "duration": 0.541667
            },
            {
              "pitch": 64,
              "velocity": 34,
              "position": 4.491667,
              "duration": 0.05
            },
            {
              "pitch": 59,
              "velocity": 68,
              "position": 4.741667,
              "duration": 0.516667
            },
            {
              "pitch": 64,
              "velocity": 75,
              "position": 4.983333,
              "duration": 0.266667
            },
            {
              "pitch": 71,
              "velocity": 89,
              "position": 4.983333,
              "duration": 0.275
            },
            {
              "pitch": 74,
              "velocity": 84,
              "position": 4.991667,
              "duration": 0.25
            },
            {
              "pitch": 67,
              "velocity": 59,
              "position": 5.491667,
              "duration": 0.183333
            },
            {
              "pitch": 71,
              "velocity": 55,
              "position": 5.491667,
              "duration": 0.2
            },
            {
              "pitch": 64,
              "velocity": 54,
              "position": 5.5,
              "duration": 0.166667
            },
            {
              "pitch": 67,
              "velocity": 71,
              "position": 6.0,
              "duration": 0.133333
            },
            {
              "pitch": 74,
              "velocity": 77,
              "position": 6.0,
              "duration": 0.133333
            },
            {
              "pitch": 64,
              "velocity": 65,
              "position": 6.008333,
              "duration": 0.133333
            },
            {
              "pitch": 64,
              "velocity": 45,
              "position": 6.5,
              "duration": 0.85
            },
            {
              "pitch": 67,
              "velocity": 55,
              "position": 6.5,
              "duration": 0.941667
            },
            {
              "pitch": 74,
              "velocity": 58,
              "position": 6.5,
              "duration": 0.875
            },
            {
              "pitch": 48,
              "velocity": 83,
              "position": 7.741667,
              "duration": 0.125
            },
            {
              "pitch": 48,
              "velocity": 32,
              "position": 8.0,
              "duration": 2.05
            },
            {
              "pitch": 55,
              "velocity": 29,
              "position": 8.0,
              "duration": 2.041667
            },
            {
              "pitch": 64,
              "velocity": 49,
              "position": 8.0,
              "duration": 0.333333
            },
            {
              "pitch": 67,
              "velocity": 45,
              "position": 8.0,
              "duration": 0.358333
            },
            {
              "pitch": 67,
              "velocity": 83,
              "position": 8.991667,
              "duration": 0.233333
            },
            {
              "pitch": 76,
              "velocity": 91,
              "position": 8.991667,
              "duration": 0.241667
            },
            {
              "pitch": 76,
              "velocity": 77,
              "position": 9.308333,
              "duration": 0.191667
            },
            {
              "pitch": 67,
              "velocity": 74,
              "position": 9.316667,
              "duration": 0.166667
            },
            {
              "pitch": 67,
              "velocity": 62,
              "position": 9.708333,
              "duration": 0.158333
            },
            {
              "pitch": 74,
              "velocity": 67,
              "position": 9.708333,
              "duration": 0.158333
            },
            {
              "pitch": 76,
              "velocity": 64,
              "position": 9.708333,
              "duration": 0.166667
            },
            {
              "pitch": 67,
              "velocity": 67,
              "position": 10.008333,
              "duration": 0.166667
            },
            {
              "pitch": 74,
              "velocity": 72,
              "position": 10.008333,
              "duration": 0.125
            },
            {
              "pitch": 76,
              "velocity": 71,
              "position": 10.008333,
              "duration": 0.15
            },
            {
              "pitch": 67,
              "velocity": 97,
              "position": 11.241667,
              "duration": 0.2
            },
            {
              "pitch": 74,
              "velocity": 90,
              "position": 11.241667,
              "duration": 0.425
            },
            {
              "pitch": 64,
              "velocity": 40,
              "position": 11.491667,
              "duration": 0.191667
            },
            {
              "pitch": 55,
              "velocity": 51,
              "position": 11.741667,
              "duration": 0.416667
            },
            {
              "pitch": 64,
              "velocity": 44,
              "position": 12.008333,
              "duration": 0.133333
            },
            {
              "pitch": 67,
              "velocity": 43,
              "position": 12.008333,
              "duration": 0.108333
            },
            {
              "pitch": 36,
              "velocity": 44,
              "position": 12.758333,
              "duration": 0.208333
            },
            {
              "pitch": 62,
              "velocity": 84,
              "position": 13.008333,
              "duration": 0.15
            },
            {
              "pitch": 67,
              "velocity": 85,
              "position": 13.008333,
              "duration": 0.15
            },
            {
              "pitch": 74,
              "velocity": 84,
              "position": 13.008333,
              "duration": 0.15
            },
            {
              "pitch": 62,
              "velocity": 47,
              "position": 13.258333,
              "duration": 0.075
            },
            {
              "pitch": 67,
              "velocity": 44,
              "position": 13.258333,
              "duration": 0.083333
            },
            {
              "pitch": 74,
              "velocity": 33,
              "position": 13.266667,
              "duration": 0.05
            },
            {
              "pitch": 67,
              "velocity": 60,
              "position": 13.5,
              "duration": 0.116667
            },
            {
              "pitch": 74,
              "velocity": 47,
              "position": 13.508333,
              "duration": 0.091667
            },
            {
              "pitch": 62,
              "velocity": 42,
              "position": 13.516667,
              "duration": 0.05
            },
            {
              "pitch": 62,
              "velocity": 75,
              "position": 13.758333,
              "duration": 0.5
            },
            {
              "pitch": 64,
              "velocity": 65,
              "position": 13.758333,
              "duration": 0.475
            },
            {
              "pitch": 71,
              "velocity": 77,
              "position": 13.758333,
              "duration": 0.516667
            },
            {
              "pitch": 74,
              "velocity": 74,
              "position": 13.758333,
              "duration": 0.5
            },
            {
              "pitch": 48,
              "velocity": 56,
              "position": 14.0,
              "duration": 0.075
            },
            {
              "pitch": 36,
              "velocity": 76,
              "position": 14.266667,
              "duration": 0.2
            },
            {
              "pitch": 62,
              "velocity": 83,
              "position": 14.508333,
              "duration": 0.225
            },
            {
              "pitch": 74,
              "velocity": 87,
              "position": 14.508333,
              "duration": 0.233333
            },
            {
              "pitch": 48,
              "velocity": 74,
              "position": 14.758333,
              "duration": 0.258333
            },
            {
              "pitch": 62,
              "velocity": 74,
              "position": 15.016667,
              "duration": 0.275
            },
            {
              "pitch": 36,
              "velocity": 65,
              "position": 15.241667,
              "duration": 0.208333
            },
            {
              "pitch": 64,
              "velocity": 76,
              "position": 15.508333,
              "duration": 0.2
            },
            {
              "pitch": 67,
              "velocity": 76,
              "position": 15.508333,
              "duration": 0.2
            }
          ]
        },
        "12": {
          "ctab": {
            "srcChannel": 12,
            "name": "Guitar",
            "accType": "CHORD2",
            "editable": true,
            "mutedNotes": [],
            "mutedChords": [],
            "sourceChordNote": 0,
            "sourceChordType": "Maj7",
            "ctb2Main": {
              "ntr": "ROOT_FIXED",
              "ntt": "CHORD",
              "bassOn": false,
              "noteLowLimit": 40,
              "noteHighLimit": 76,
              "chordRootUpperLimit": 127,
              "rtr": "NOTE_GENERATOR"
            }
          },
          "notes": [
            {
              "pitch": 52,
              "velocity": 63,
              "position": 0.008333,
              "duration": 1.541667
            },
            {
              "pitch": 64,
              "velocity": 44,
              "position": 0.266667,
              "duration": 0.241667
            },
            {
              "pitch": 64,
              "velocity": 50,
              "position": 0.508333,
              "duration": 0.925
            },
            {
              "pitch": 67,
              "velocity": 56,
              "position": 0.766667,
              "duration": 0.675
            },
            {
              "pitch": 59,
              "velocity": 57,
              "position": 2.25,
              "duration": 1.208333
            },
            {
              "pitch": 64,
              "velocity": 46,
              "position": 2.516667,
              "duration": 0.816667
            },
            {
              "pitch": 71,
              "velocity": 62,
              "position": 2.766667,
              "duration": 0.583333
            },
            {
              "pitch": 59,
              "velocity": 68,
              "position": 4.008333,
              "duration": 1.266667
            },
            {
              "pitch": 67,
              "velocity": 40,
              "position": 4.25,
              "duration": 0.941667
            },
            {
              "pitch": 74,
              "velocity": 52,
              "position": 4.5,
              "duration": 0.65
            },
            {
              "pitch": 76,
              "velocity": 61,
              "position": 4.758333,
              "duration": 0.375
            },
            {
              "pitch": 76,
              "velocity": 60,
              "position": 6.0,
              "duration": 0.333333
            },
            {
              "pitch": 74,
              "velocity": 38,
              "position": 6.266667,
              "duration": 1.333333
            },
            {
              "pitch": 76,
              "velocity": 43,
              "position": 6.508333,
              "duration": 1.133333
            },
            {
              "pitch": 74,
              "velocity": 60,
              "position": 7.733333,
              "duration": 0.266667
            },
            {
              "pitch": 52,
              "velocity": 60,
              "position": 8.0,
              "duration": 5.85
            },
            {
              "pitch": 64,
              "velocity": 58,
              "position": 8.758333,
              "duration": 0.741667
            },
            {
              "pitch": 64,
              "velocity": 52,
              "position": 9.5,
              "duration": 3.575
            },
            {
              "pitch": 74,
              "velocity": 58,
              "position": 9.991667,
              "duration": 3.241667
            },
            {
              "pitch": 71,
              "velocity": 53,
              "position": 11.0,
              "duration": 2.291667
            },
            {
              "pitch": 64,
              "velocity": 55,
              "position": 13.25,
              "duration": 1.533333
            },
            {
              "pitch": 67,
              "velocity": 38,
              "position": 13.508333,
              "duration": 1.333333
            },
            {
              "pitch": 74,
              "velocity": 62,
              "position": 13.741667,
              "duration": 1.033333
            },
            {
              "pitch": 67,
              "velocity": 60,
              "position": 15.0,
              "duration": 0.633333
            }
          ]
        },
        "13": {
          "ctab": {
            "srcChannel": 13,
            "name": "Strings",
            "accType": "PAD",
            "editable": true,
            "mutedNotes": [],
            "mutedChords": [],
            "sourceChordNote": 0,
            "sourceChordType": "Maj7",
            "ctb2Main": {
              "ntr": "ROOT_FIXED",
              "ntt": "MELODY",
              "bassOn": false,
              "noteLowLimit": 36,
              "noteHighLimit": 96,
              "chordRootUpperLimit": 127,
              "rtr": "PITCH_SHIFT"
            }
          },
          "notes": [
            {
              "pitch": 67,
              "velocity": 50,
              "position": 0.0,
              "duration": 1.05
            },
            {
              "pitch": 71,
              "velocity": 50,
              "position": 0.0,
              "duration": 1.15
            },
            {
              "pitch": 74,
              "velocity": 52,
              "position": 0.0,
              "duration": 1.15
            },
            {
              "pitch": 76,
              "velocity": 51,
              "position": 0.0,
              "duration": 1.2
            },
            {
              "pitch": 71,
              "velocity": 47,
              "position": 1.75,
              "duration": 1.566667
            },
            {
              "pitch": 74,
              "velocity": 42,
              "position": 1.75,
              "duration": 1.1
            },
            {
              "pitch": 76,
              "velocity": 46,
              "position": 1.75,
              "duration": 1.058333
            },
            {
              "pitch": 79,
              "velocity": 66,
              "position": 1.766667,
              "duration": 1.55
            },
            {
              "pitch": 67,
              "velocity": 48,
              "position": 4.0,
              "duration": 1.3
            },
            {
              "pitch": 71,
              "velocity": 56,
              "position": 4.0,
              "duration": 1.25
            },
            {
              "pitch": 76,
              "velocity": 48,
              "position": 4.0,
              "duration": 1.241667
            },
            {
              "pitch": 64,
              "velocity": 39,
              "position": 6.5,
              "duration": 0.625
            },
            {
              "pitch": 67,
              "velocity": 52,
              "position": 6.5,
              "duration": 0.641667
            },
            {
              "pitch": 74,
              "velocity": 52,
              "position": 6.5,
              "duration": 0.591667
            },
            {
              "pitch": 71,
              "velocity": 54,
              "position": 7.258333,
              "duration": 0.45
            },
            {
              "pitch": 74,
              "velocity": 56,
              "position": 7.258333,
              "duration": 0.441667
            },
            {
              "pitch": 74,
              "velocity": 67,
              "position": 8.0,
              "duration": 1.691667
            },
            {
              "pitch": 76,
              "velocity": 61,
              "position": 8.0,
              "duration": 1.683333
            },
            {
              "pitch": 83,
              "velocity": 68,
              "position": 8.0,
              "duration": 1.633333
            },
            {
              "pitch": 71,
              "velocity": 38,
              "position": 12.0,
              "duration": 1.35
            },
            {
              "pitch": 74,
              "velocity": 38,
              "position": 12.0,
              "duration": 1.308333
            },
            {
              "pitch": 76,
              "velocity": 39,
              "position": 12.0,
              "duration": 1.333333
            },
            {
              "pitch": 79,
              "velocity": 36,
              "position": 12.0,
              "duration": 1.233333
            },
            {
              "pitch": 64,
              "velocity": 48,
              "position": 14.5,
              "duration": 0.541667
            },
            {
              "pitch": 71,
              "velocity": 63,
              "position": 15.25,
              "duration": 0.308333
            }
          ]
        }
      }
    },
    "Main_D": {
      "type": "Main_D",
      "sizeInBeats": 16,
      "channels": {
        "9": {
          "ctab": {
            "srcChannel": 9,
            "name": "Drums",
            "accType": "RHYTHM",
            "editable": false,
            "mutedNotes": [],
            "mutedChords": [],
            "sourceChordNote": 0,
            "sourceChordType": "Maj",
            "ctb2Main": {
              "ntr": "ROOT_FIXED",
              "ntt": "BYPASS",
              "bassOn": false,
              "noteLowLimit": 20,
              "noteHighLimit": 127,
              "chordRootUpperLimit": 127,
              "rtr": "RETRIGGER"
            }
          },
          "notes": [
            {
              "pitch": 35,
              "velocity": 90,
              "position": 0.0,
              "duration": 0.683333
            },
            {
              "pitch": 49,
              "velocity": 102,
              "position": 0.0,
              "duration": 0.041667
            },
            {
              "pitch": 51,
              "velocity": 84,
              "position": 0.5,
              "duration": 0.25
            },
            {
              "pitch": 38,
              "velocity": 95,
              "position": 1.0,
              "duration": 0.491667
            },
            {
              "pitch": 51,
              "velocity": 102,
              "position": 1.0,
              "duration": 0.108333
            },
            {
              "pitch": 51,
              "velocity": 44,
              "position": 1.25,
              "duration": 0.075
            },
            {
              "pitch": 51,
              "velocity": 59,
              "position": 1.5,
              "duration": 0.075
            },
            {
              "pitch": 35,
              "velocity": 50,
              "position": 1.75,
              "duration": 0.05
            },
            {
              "pitch": 51,
              "velocity": 49,
              "position": 1.75,
              "duration": 0.058333
            },
            {
              "pitch": 35,
              "velocity": 90,
              "position": 2.0,
              "duration": 0.266667
            },
            {
              "pitch": 51,
              "velocity": 98,
              "position": 2.0,
              "duration": 0.141667
            },
            {
              "pitch": 51,
              "velocity": 46,
              "position": 2.25,
              "duration": 0.158333
            },
            {
              "pitch": 38,
              "velocity": 48,
              "position": 2.258333,
              "duration": 0.15
            },
            {
              "pitch": 38,
              "velocity": 22,
              "position": 2.45,
              "duration": 0.025
            },
            {
              "pitch": 51,
              "velocity": 57,
              "position": 2.5,
              "duration": 0.091667
            },
            {
              "pitch": 51,
              "velocity": 48,
              "position": 2.75,
              "duration": 0.05
            },
            {
              "pitch": 38,
              "velocity": 101,
              "position": 3.0,
              "duration": 0.575
            },
            {
              "pitch": 51,
              "velocity": 99,
              "position": 3.0,
              "duration": 0.275
            },
            {
              "pitch": 51,
              "velocity": 70,
              "position": 3.5,
              "duration": 0.058333
            },
            {
              "pitch": 35,
              "velocity": 51,
              "position": 3.75,
              "duration": 0.058333
            },
            {
              "pitch": 51,
              "velocity": 54,
              "position": 3.75,
              "duration": 0.075
            },
            {
              "pitch": 35,
              "velocity": 89,
              "position": 4.0,
              "duration": 0.791667
            },
            {
              "pitch": 51,
              "velocity": 98,
              "position": 4.0,
              "duration": 0.15
            },
            {
              "pitch": 51,
              "velocity": 38,
              "position": 4.25,
              "duration": 0.066667
            },
            {
              "pitch": 51,
              "velocity": 52,
              "position": 4.5,
              "duration": 0.083333
            },
            {
              "pitch": 51,
              "velocity": 58,
              "position": 4.75,
              "duration": 0.05
            },
            {
              "pitch": 38,
              "velocity": 101,
              "position": 5.0,
              "duration": 0.525
            },
            {
              "pitch": 51,
              "velocity": 106,
              "position": 5.0,
              "duration": 0.1
            },
            {
              "pitch": 51,
              "velocity": 53,
              "position": 5.25,
              "duration": 0.075
            },
            {
              "pitch": 51,
              "velocity": 55,
              "position": 5.5,
              "duration": 0.075
            },
            {
              "pitch": 35,
              "velocity": 53,
              "position": 5.75,
              "duration": 0.05
            },
            {
              "pitch": 51,
              "velocity": 49,
              "position": 5.75,
              "duration": 0.05
            },
            {
              "pitch": 35,
              "velocity": 88,
              "position": 6.0,
              "duration": 0.758333
            },
            {
              "pitch": 51,
              "velocity": 97,
              "position": 6.0,
              "duration": 0.133333
            },
            {
              "pitch": 51,
              "velocity": 46,
              "position": 6.25,
              "duration": 0.083333
            },
            {
              "pitch": 51,
              "velocity": 70,
              "position": 6.5,
              "duration": 0.075
            },
            {
              "pitch": 51,
              "velocity": 49,
              "position": 6.75,
              "duration": 0.05
            },
            {
              "pitch": 38,
              "velocity": 105,
              "position": 7.0,
              "duration": 0.2
            },
            {
              "pitch": 51,
              "velocity": 102,
              "position": 7.0,
              "duration": 0.2
            },
            {
              "pitch": 51,
              "velocity": 49,
              "position": 7.25,
              "duration": 0.05
            },
            {
              "pitch": 35,
              "velocity": 71,
              "position": 7.5,
              "duration": 0.083333
            },
            {
              "pitch": 51,
              "velocity": 73,
              "position": 7.5,
              "duration": 0.075
            },
            {
              "pitch": 46,
              "velocity": 74,
              "position": 7.508333,
              "duration": 0.2
            },
            {
              "pitch": 51,
              "velocity": 26,
              "position": 7.75,
              "duration": 0.033333
            },
            {
              "pitch": 35,
              "velocity": 87,
              "position": 8.0,
              "duration": 0.766667
            },
            {
              "pitch": 51,
              "velocity": 92,
              "position": 8.0,
              "duration": 0.1
            },
            {
              "pitch": 51,
              "velocity": 56,
              "position": 8.25,
              "duration": 0.066667
            },
            {
              "pitch": 51,
              "velocity": 62,
              "position": 8.5,
              "duration": 0.083333
            },
            {
              "pitch": 51,
              "velocity": 57,
              "position": 8.75,
              "duration": 0.058333
            },
            {
              "pitch": 38,
              "velocity": 105,
              "position": 9.0,
              "duration": 0.541667
            },
            {
              "pitch": 51,
              "velocity": 102,
              "position": 9.0,
              "duration": 0.091667
            },
            {
              "pitch": 51,
              "velocity": 57,
              "position": 9.25,
              "duration": 0.066667
            },
            {
              "pitch": 51,
              "velocity": 74,
              "position": 9.5,
              "duration": 0.083333
            },
            {
              "pitch": 51,
              "velocity": 77,
              "position": 9.75,
              "duration": 0.066667
            },
            {
              "pitch": 35,
              "velocity": 78,
              "position": 10.0,
              "duration": 0.191667
            },
            {
              "pitch": 51,
              "velocity": 67,
              "position": 10.0,
              "duration": 0.191667
            },
            {
              "pitch": 51,
              "velocity": 55,
              "position": 10.25,
              "duration": 0.2
            },
            {
              "pitch": 38,
              "velocity": 57,
              "position": 10.258333,
              "duration": 0.191667
            },
            {
              "pitch": 38,
              "velocity": 35,
              "position": 10.5,
              "duration": 0.2
            },
            {
              "pitch": 51,
              "velocity": 71,
              "position": 10.5,
              "duration": 0.091667
            },
            {
              "pitch": 51,
              "velocity": 60,
              "position": 10.75,
              "duration": 0.05
            },
            {
              "pitch": 38,
              "velocity": 101,
              "position": 11.0,
              "duration": 0.566667
            },
            {
              "pitch": 51,
              "velocity": 106,
              "position": 11.0,
              "duration": 0.325
            },
            {
              "pitch": 51,
              "velocity": 83,
              "position": 11.5,
              "duration": 0.083333
            },
            {
              "pitch": 38,
              "velocity": 33,
              "position": 11.608333,
              "duration": 0.116667
            },
            {
              "pitch": 35,
              "velocity": 79,
              "position": 11.75,
              "duration": 0.075
            },
            {
              "pitch": 38,
              "velocity": 22,
              "position": 11.758333,
              "duration": 0.175
            },
            {
              "pitch": 35,
              "velocity": 90,
              "position": 12.0,
              "duration": 0.65
            },
            {
              "pitch": 51,
              "velocity": 95,
              "position": 12.0,
              "duration": 0.108333
            },
            {
              "pitch": 51,
              "velocity": 46,
              "position": 12.25,
              "duration": 0.075
            },
            {
              "pitch": 51,
              "velocity": 57,
              "position": 12.5,
              "duration": 0.075
            },
            {
              "pitch": 51,
              "velocity": 62,
              "position": 12.75,
              "duration": 0.05
            },
            {
              "pitch": 38,
              "velocity": 103,
              "position": 13.0,
              "duration": 0.541667
            },
            {
              "pitch": 51,
              "velocity": 106,
              "position": 13.0,
              "duration": 0.108333
            },
            {
              "pitch": 51,
              "velocity": 39,
              "position": 13.241667,
              "duration": 0.075
            },
            {
              "pitch": 51,
              "velocity": 85,
              "position": 13.5,
              "duration": 0.075
            },
            {
              "pitch": 35,
              "velocity": 66,
              "position": 13.75,
              "duration": 0.066667
            },
            {
              "pitch": 51,
              "velocity": 85,
              "position": 13.75,
              "duration": 0.058333
            },
            {
              "pitch": 35,
              "velocity": 92,
              "position": 14.0,
              "duration": 0.6
            },
            {
              "pitch": 51,
              "velocity": 99,
              "position": 14.0,
              "duration": 0.083333
            },
            {
              "pitch": 48,
              "velocity": 84,
              "position": 14.241667,
              "duration": 0.033333
            },
            {
              "pitch": 48,
              "velocity": 85,
              "position": 14.375,
              "duration": 0.05
            },
            {
              "pitch": 48,
              "velocity": 99,
              "position": 14.491667,
              "duration": 0.108333
            },
            {
              "pitch": 45,
              "velocity": 101,
              "position": 14.741667,
              "duration": 0.05
            },
            {
              "pitch": 45,
              "velocity": 118,
              "position": 15.0,
              "duration": 0.075
            },
            {
              "pitch": 43,
              "velocity": 78,
              "position": 15.241667,
              "duration": 0.05
            },
            {
              "pitch": 43,
              "velocity": 101,
              "position": 15.508333,
              "duration": 0.075
            }
          ]
        },
        "10": {
          "ctab": {
            "srcChannel": 10,
            "name": "Bass",
            "accType": "BASS",
            "editable": true,
            "mutedNotes": [],
            "mutedChords": [],
            "sourceChordNote": 0,
            "sourceChordType": "Maj7",
            "ctb2Main": {
              "ntr": "ROOT_TRANSPOSITION",
              "ntt": "BYPASS",
              "bassOn": true,
              "noteLowLimit": 20,
              "noteHighLimit": 60,
              "chordRootUpperLimit": 127,
              "rtr": "NOTE_GENERATOR"
            }
          },
          "notes": [
            {
              "pitch": 36,
              "velocity": 96,
              "position": 0.0,
              "duration": 0.933333
            },
            {
              "pitch": 43,
              "velocity": 82,
              "position": 1.25,
              "duration": 0.25
            },
            {
              "pitch": 36,
              "velocity": 75,
              "position": 1.75,
              "duration": 0.216667
            },
            {
              "pitch": 36,
              "velocity": 96,
              "position": 2.0,
              "duration": 1.216667
            },
            {
              "pitch": 43,
              "velocity": 61,
              "position": 3.25,
              "duration": 0.108333
            },
            {
              "pitch": 36,
              "velocity": 96,
              "position": 3.75,
              "duration": 0.216667
            },
            {
              "pitch": 36,
              "velocity": 96,
              "position": 4.0,
              "duration": 0.933333
            },
            {
              "pitch": 43,
              "velocity": 82,
              "position": 5.25,
              "duration": 0.25
            },
            {
              "pitch": 36,
              "velocity": 75,
              "position": 5.75,
              "duration": 0.216667
            },
            {
              "pitch": 36,
              "velocity": 96,
              "position": 6.0,
              "duration": 0.933333
            },
            {
              "pitch": 43,
              "velocity": 82,
              "position": 7.25,
              "duration": 0.25
            },
            {
              "pitch": 36,
              "velocity": 75,
              "position": 7.75,
              "duration": 0.216667
            },
            {
              "pitch": 36,
              "velocity": 101,
              "position": 8.0,
              "duration": 0.966667
            },
            {
              "pitch": 43,
              "velocity": 74,
              "position": 9.75,
              "duration": 0.283333
            },
            {
              "pitch": 48,
              "velocity": 97,
              "position": 10.0,
              "duration": 1.0
            },
            {
              "pitch": 48,
              "velocity": 64,
              "position": 11.25,
              "duration": 0.208333
            },
            {
              "pitch": 43,
              "velocity": 65,
              "position": 11.5,
              "duration": 0.216667
            },
            {
              "pitch": 40,
              "velocity": 85,
              "position": 11.75,
              "duration": 0.208333
            },
            {
              "pitch": 36,
              "velocity": 101,
              "position": 12.0,
              "duration": 0.633333
            },
            {
              "pitch": 43,
              "velocity": 109,
              "position": 13.25,
              "duration": 0.083333
            },
            {
              "pitch": 48,
              "velocity": 85,
              "position": 13.75,
              "duration": 0.25
            },
            {
              "pitch": 48,
              "velocity": 93,
              "position": 14.0,
              "duration": 0.658333
            },
            {
              "pitch": 43,
              "velocity": 81,
              "position": 14.75,
              "duration": 0.233333
            },
            {
              "pitch": 48,
              "velocity": 81,
              "position": 15.0,
              "duration": 0.258333
            },
            {
              "pitch": 43,
              "velocity": 57,
              "position": 15.25,
              "duration": 0.166667
            },
            {
              "pitch": 36,
              "velocity": 89,
              "position": 15.75,
              "duration": 0.216667
            }
          ]
        },
        "11": {
          "ctab": {
            "srcChannel": 11,
            "name": "Piano",
            "accType": "CHORD1",
            "editable": true,
            "mutedNotes": [],
            "mutedChords": [],
            "sourceChordNote": 0,
            "sourceChordType": "Maj7",
            "ctb2Main": {
              "ntr": "ROOT_FIXED",
              "ntt": "CHORD",
              "bassOn": false,
              "noteLowLimit": 48,
              "noteHighLimit": 84,
              "chordRootUpperLimit": 127,
              "rtr": "NOTE_GENERATOR"
            }
          },
          "notes": [
            {
              "pitch": 48,
              "velocity": 54,
              "position": 0.0,
              "duration": 1.016667
            },
            {
              "pitch": 62,
              "velocity": 52,
              "position": 0.0,
              "duration": 0.2
            },
            {
              "pitch": 64,
              "velocity": 31,
              "position": 0.0,
              "duration": 0.2
            },
            {
              "pitch": 71,
              "velocity": 46,
              "position": 0.0,
              "duration": 0.258333
            },
            {
              "pitch": 74,
              "velocity": 53,
              "position": 0.0,
              "duration": 0.233333
            },
            {
              "pitch": 79,
              "velocity": 86,
              "position": 0.991667,
              "duration": 0.125
            },
            {
              "pitch": 67,
              "velocity": 83,
              "position": 1.0,
              "duration": 0.083333
            },
            {
              "pitch": 83,
              "velocity": 70,
              "position": 1.25,
              "duration": 0.125
            },
            {
              "pitch": 71,
              "velocity": 71,
              "position": 1.258333,
              "duration": 0.066667
            },
            {
              "pitch": 74,
              "velocity": 80,
              "position": 1.741667,
              "duration": 0.2
            },
            {
              "pitch": 86,
              "velocity": 80,
              "position": 1.741667,
              "duration": 0.2
            },
            {
              "pitch": 67,
              "velocity": 71,
              "position": 2.0,
              "duration": 0.133333
            },
            {
              "pitch": 74,
              "velocity": 77,
              "position": 2.0,
              "duration": 0.133333
            },
            {
              "pitch": 64,
              "velocity": 65,
              "position": 2.008333,
              "duration": 0.133333
            },
            {
              "pitch": 64,
              "velocity": 45,
              "position": 2.5,
              "duration": 0.85
            },
            {
              "pitch": 67,
              "velocity": 55,
              "position": 2.5,
              "duration": 0.941667
            },
            {
              "pitch": 74,
              "velocity": 58,
              "position": 2.5,
              "duration": 0.875
            },
            {
              "pitch": 48,
              "velocity": 83,
              "position": 3.741667,
              "duration": 0.125
            },
            {
              "pitch": 67,
              "velocity": 62,
              "position": 4.0,
              "duration": 0.258333
            },
            {
              "pitch": 74,
              "velocity": 61,
              "position": 4.0,
              "duration": 0.25
            },
            {
              "pitch": 76,
              "velocity": 60,
              "position": 4.0,
              "duration": 0.291667
            },
            {
              "pitch": 67,
              "velocity": 31,
              "position": 4.516667,
              "duration": 0.075
            },
            {
              "pitch": 48,
              "velocity": 71,
              "position": 4.741667,
              "duration": 0.341667
            },
            {
              "pitch": 67,
              "velocity": 89,
              "position": 5.008333,
              "duration": 0.291667
            },
            {
              "pitch": 79,
              "velocity": 96,
              "position": 5.008333,
              "duration": 0.333333
            },
            {
              "pitch": 59,
              "velocity": 52,
              "position": 5.741667,
              "duration": 0.875
            },
            {
              "pitch": 64,
              "velocity": 67,
              "position": 5.741667,
              "duration": 0.391667
            },
            {
              "pitch": 67,
              "velocity": 71,
              "position": 5.741667,
              "duration": 0.45
            },
            {
              "pitch": 74,
              "velocity": 75,
              "position": 5.741667,
              "duration": 0.491667
            },
            {
              "pitch": 59,
              "velocity": 61,
              "position": 7.008333,
              "duration": 0.258333
            },
            {
              "pitch": 76,
              "velocity": 82,
              "position": 7.008333,
              "duration": 0.25
            },
            {
              "pitch": 79,
              "velocity": 77,
              "position": 7.008333,
              "duration": 0.233333
            },
            {
              "pitch": 74,
              "velocity": 49,
              "position": 7.258333,
              "duration": 0.066667
            },
            {
              "pitch": 55,
              "velocity": 48,
              "position": 7.741667,
              "duration": 0.2
            },
            {
              "pitch": 64,
              "velocity": 51,
              "position": 7.741667,
              "duration": 0.2
            },
            {
              "pitch": 71,
              "velocity": 69,
              "position": 7.741667,
              "duration": 0.2
            },
            {
              "pitch": 74,
              "velocity": 69,
              "position": 7.741667,
              "duration": 0.2
            },
            {
              "pitch": 76,
              "velocity": 66,
              "position": 7.741667,
              "duration": 0.2
            },
            {
              "pitch": 79,
              "velocity": 71,
              "position": 7.758333,
              "duration": 0.183333
            },
            {
              "pitch": 48,
              "velocity": 32,
              "position": 8.0,
              "duration": 2.05
            },
            {
              "pitch": 55,
              "velocity": 29,
              "position": 8.0,
              "duration": 2.041667
            },
            {
              "pitch": 64,
              "velocity": 49,
              "position": 8.0,
              "duration": 0.333333
            },
            {
              "pitch": 67,
              "velocity": 45,
              "position": 8.0,
              "duration": 0.358333
            },
            {
              "pitch": 67,
              "velocity": 83,
              "position": 8.991667,
              "duration": 0.233333
            },
            {
              "pitch": 76,
              "velocity": 91,
              "position": 8.991667,
              "duration": 0.241667
            },
            {
              "pitch": 76,
              "velocity": 77,
              "position": 9.308333,
              "duration": 0.191667
            },
            {
              "pitch": 67,
              "velocity": 74,
              "position": 9.316667,
              "duration": 0.166667
            },
            {
              "pitch": 67,
              "velocity": 62,
              "position": 9.708333,
              "duration": 0.158333
            },
            {
              "pitch": 74,
              "velocity": 67,
              "position": 9.708333,
              "duration": 0.158333
            },
            {
              "pitch": 76,
              "velocity": 64,
              "position": 9.708333,
              "duration": 0.166667
            },
            {
              "pitch": 67,
              "velocity": 67,
              "position": 10.008333,
              "duration": 0.166667
            },
            {
              "pitch": 74,
              "velocity": 72,
              "position": 10.008333,
              "duration": 0.125
            },
            {
              "pitch": 76,
              "velocity": 71,
              "position": 10.008333,
              "duration": 0.15
            },
            {
              "pitch": 67,
              "velocity": 97,
              "position": 11.241667,
              "duration": 0.2
            },
            {
              "pitch": 74,
              "velocity": 90,
              "position": 11.241667,
              "duration": 0.425
            },
            {
              "pitch": 64,
              "velocity": 40,
              "position": 11.491667,
              "duration": 0.191667
            },
            {
              "pitch": 55,
              "velocity": 51,
              "position": 11.741667,
              "duration": 0.416667
            },
            {
              "pitch": 64,
              "velocity": 44,
              "position": 12.008333,
              "duration": 0.133333
            },
            {
              "pitch": 67,
              "velocity": 43,
              "position": 12.008333,
              "duration": 0.108333
            },
            {
              "pitch": 36,
              "velocity": 44,
              "position": 12.758333,
              "duration": 0.208333
            },
            {
              "pitch": 62,
              "velocity": 84,
              "position": 13.008333,
              "duration": 0.15
            },
            {
              "pitch": 67,
              "velocity": 85,
              "position": 13.008333,
              "duration": 0.15
            },
            {
              "pitch": 74,
              "velocity": 84,
              "position": 13.008333,
              "duration": 0.15
            },
            {
              "pitch": 62,
              "velocity": 47,
              "position": 13.258333,
              "duration": 0.075
            },
            {
              "pitch": 67,
              "velocity": 44,
              "position": 13.258333,
              "duration": 0.083333
            },
            {
              "pitch": 74,
              "velocity": 33,
              "position": 13.266667,
              "duration": 0.05
            },
            {
              "pitch": 67,
              "velocity": 60,
              "position": 13.5,
              "duration": 0.116667
            },
            {
              "pitch": 74,
              "velocity": 47,
              "position": 13.508333,
              "duration": 0.091667
            },
            {
              "pitch": 62,
              "velocity": 42,
              "position": 13.516667,
              "duration": 0.05
            },
            {
              "pitch": 62,
              "velocity": 75,
              "position": 13.758333,
              "duration": 0.5
            },
            {
              "pitch": 64,
              "velocity": 65,
              "position": 13.758333,
              "duration": 0.475
            },
            {
              "pitch": 71,
              "velocity": 77,
              "position": 13.758333,
              "duration": 0.516667
            },
            {
              "pitch": 74,
              "velocity": 74,
              "position": 13.758333,
              "duration": 0.5
            },
            {
              "pitch": 48,
              "velocity": 56,
              "position": 14.0,
              "duration": 0.075
            },
            {
              "pitch": 36,
              "velocity": 76,
              "position": 14.266667,
              "duration": 0.2
            },
            {
              "pitch": 62,
              "velocity": 83,
              "position": 14.508333,
              "duration": 0.225
            },
            {
              "pitch": 74,
              "velocity": 87,
              "position": 14.508333,
              "duration": 0.233333
            },
            {
              "pitch": 48,
              "velocity": 74,
              "position": 14.758333,
              "duration": 0.258333
            },
            {
              "pitch": 62,
              "velocity": 74,
              "position": 15.016667,
              "duration": 0.275
            },
            {
              "pitch": 36,
              "velocity": 65,
              "position": 15.241667,
              "duration": 0.208333
            },
            {
              "pitch": 64,
              "velocity": 76,
              "position": 15.508333,
              "duration": 0.2
            },
            {
              "pitch": 67,
              "velocity": 76,
              "position": 15.508333,
              "duration": 0.2
            }
          ]
        },
        "12": {
          "ctab": {
            "srcChannel": 12,
            "name": "Guitar",
            "accType": "CHORD2",
            "editable": true,
            "mutedNotes": [],
            "mutedChords": [],
            "sourceChordNote": 0,
            "sourceChordType": "Maj7",
            "ctb2Main": {
              "ntr": "ROOT_FIXED",
              "ntt": "CHORD",
              "bassOn": false,
              "noteLowLimit": 40,
              "noteHighLimit": 76,
              "chordRootUpperLimit": 127,
              "rtr": "NOTE_GENERATOR"
            }
          },
          "notes": [
            {
              "pitch": 55,
              "velocity": 72,
              "position": 0.008333,
              "duration": 1.341667
            },
            {
              "pitch": 64,
              "velocity": 43,
              "position": 0.25,
              "duration": 1.291667
            },
            {
              "pitch": 67,
              "velocity": 41,
              "position": 0.5,
              "duration": 1.091667
            },
            {
              "pitch": 71,
              "velocity": 63,
              "position": 0.75,
              "duration": 0.875
            },
            {
              "pitch": 76,
              "velocity": 69,
              "position": 2.0,
              "duration": 1.208333
            },
            {
              "pitch": 71,
              "velocity": 43,
              "position": 2.25,
              "duration": 0.925
            },
            {
              "pitch": 67,
              "velocity": 38,
              "position": 2.483333,
              "duration": 0.675
            },
            {
              "pitch": 64,
              "velocity": 39,
              "position": 2.741667,
              "duration": 0.4
            },
            {
              "pitch": 76,
              "velocity": 69,
              "position": 4.0,
              "duration": 1.208333
            },
            {
              "pitch": 71,
              "velocity": 43,
              "position": 4.25,
              "duration": 0.925
            },
            {
              "pitch": 67,
              "velocity": 38,
              "position": 4.483333,
              "duration": 0.675
            },
            {
              "pitch": 64,
              "velocity": 39,
              "position": 4.741667,
              "duration": 0.4
            },
            {
              "pitch": 59,
              "velocity": 70,
              "position": 6.008333,
              "duration": 1.55
            },
            {
              "pitch": 67,
              "velocity": 43,
              "position": 6.258333,
              "duration": 1.016667
            },
            {
              "pitch": 71,
              "velocity": 46,
              "position": 6.5,
              "duration": 0.741667
            },
            {
              "pitch": 76,
              "velocity": 57,
              "position": 6.758333,
              "duration": 0.533333
            },
            {
              "pitch": 48,
              "velocity": 56,
              "position": 8.008333,
              "duration": 1.8
            },
            {
              "pitch": 62,
              "velocity": 60,
              "position": 9.008333,
              "duration": 6.341667
            },
            {
              "pitch": 64,
              "velocity": 44,
              "position": 9.233333,
              "duration": 6.766667
            },
            {
              "pitch": 67,
              "velocity": 45,
              "position": 9.483333,
              "duration": 6.516667
            },
            {
              "pitch": 71,
              "velocity": 63,
              "position": 9.733333,
              "duration": 6.266667
            }
          ]
        },
        "13": {
          "ctab": {
            "srcChannel": 13,
            "name": "Strings",
            "accType": "PAD",
            "editable": true,
            "mutedNotes": [],
            "mutedChords": [],
            "sourceChordNote": 0,
            "sourceChordType": "Maj7",
            "ctb2Main": {
              "ntr": "ROOT_FIXED",
              "ntt": "MELODY",
              "bassOn": false,
              "noteLowLimit": 36,
              "noteHighLimit": 96,
              "chordRootUpperLimit": 127,
              "rtr": "PITCH_SHIFT"
            }
          },
          "notes": [
            {
              "pitch": 67,
              "velocity": 50,
              "position": 0.0,
              "duration": 1.05
            },
            {
              "pitch": 71,
              "velocity": 50,
              "position": 0.0,
              "duration": 1.15
            },
            {
              "pitch": 74,
              "velocity": 52,
              "position": 0.0,
              "duration": 1.15
            },
            {
              "pitch": 76,
              "velocity": 51,
              "position": 0.0,
              "duration": 1.2
            },
            {
              "pitch": 67,
              "velocity": 47,
              "position": 2.0,
              "duration": 0.391667
            },
            {
              "pitch": 71,
              "velocity": 36,
              "position": 2.0,
              "duration": 0.416667
            },
            {
              "pitch": 74,
              "velocity": 49,
              "position": 2.0,
              "duration": 0.375
            },
            {
              "pitch": 76,
              "velocity": 51,
              "position": 2.0,
              "duration": 0.391667
            },
            {
              "pitch": 67,
              "velocity": 61,
              "position": 3.008333,
              "duration": 0.191667
            },
            {
              "pitch": 74,
              "velocity": 58,
              "position": 3.008333,
              "duration": 0.233333
            },
            {
              "pitch": 64,
              "velocity": 39,
              "position": 4.5,
              "duration": 0.625
            },
            {
              "pitch": 67,
              "velocity": 52,
              "position": 4.5,
              "duration": 0.641667
            },
            {
              "pitch": 74,
              "velocity": 52,
              "position": 4.5,
              "duration": 0.591667
            },
            {
              "pitch": 71,
              "velocity": 54,
              "position": 5.258333,
              "duration": 0.45
            },
            {
              "pitch": 74,
              "velocity": 56,
              "position": 5.258333,
              "duration": 0.441667
            },
            {
              "pitch": 71,
              "velocity": 47,
              "position": 5.75,
              "duration": 1.566667
            },
            {
              "pitch": 74,
              "velocity": 42,
              "position": 5.75,
              "duration": 1.1
            },
            {
              "pitch": 76,
              "velocity": 46,
              "position": 5.75,
              "duration": 1.058333
            },
            {
              "pitch": 79,
              "velocity": 66,
              "position": 5.766667,
              "duration": 1.55
            },
            {
              "pitch": 64,
              "velocity": 41,
              "position": 8.0,
              "duration": 0.45
            },
            {
              "pitch": 67,
              "velocity": 41,
              "position": 8.0,
              "duration": 0.508333
            },
            {
              "pitch": 67,
              "velocity": 14,
              "position": 11.25,
              "duration": 2.291667
            },
            {
              "pitch": 76,
              "velocity": 60,
              "position": 11.5,
              "duration": 0.25
            },
            {
              "pitch": 76,
              "velocity": 51,
              "position": 11.75,
              "duration": 0.291667
            },
            {
              "pitch": 79,
              "velocity": 59,
              "position": 12.0,
              "duration": 1.408333
            },
            {
              "pitch": 74,
              "velocity": 48,
              "position": 12.75,
              "duration": 0.725
            },
            {
              "pitch": 67,
              "velocity": 56,
              "position": 14.0,
              "duration": 0.091667
            },
            {
              "pitch": 74,
              "velocity": 64,
              "position": 14.0,
              "duration": 0.083333
            },
            {
              "pitch": 76,
              "velocity": 66,
              "position": 14.0,
              "duration": 0.116667
            },
            {
              "pitch": 67,
              "velocity": 47,
              "position": 14.5,
              "duration": 0.791667
            },
            {
              "pitch": 76,
              "velocity": 53,
              "position": 14.5,
              "duration": 0.516667
            },
            {
              "pitch": 74,
              "velocity": 57,
              "position": 15.0,
              "duration": 0.516667
            },
            {
              "pitch": 67,
              "velocity": 49,
              "position": 15.5,
              "duration": 0.141667
            }
          ]
        }
      }
    },
    "Fill_In_AA": {
      "type": "Fill_In_AA",
      "sizeInBeats": 16,
      "channels": {
        "9": {
          "ctab": {
            "srcChannel": 9,
            "name": "Drums",
            "accType": "RHYTHM",
            "editable": false,
            "mutedNotes": [],
            "mutedChords": [],
            "sourceChordNote": 0,
            "sourceChordType": "Maj",
            "ctb2Main": {
              "ntr": "ROOT_FIXED",
              "ntt": "BYPASS",
              "bassOn": false,
              "noteLowLimit": 20,
              "noteHighLimit": 127,
              "chordRootUpperLimit": 127,
              "rtr": "RETRIGGER"
            }
          },
          "notes": [
            {
              "pitch": 35,
              "velocity": 90,
              "position": 0.0,
              "duration": 0.683333
            },
            {
              "pitch": 49,
              "velocity": 102,
              "position": 0.0,
              "duration": 0.041667
            },
            {
              "pitch": 51,
              "velocity": 84,
              "position": 0.5,
              "duration": 0.25
            },
            {
              "pitch": 38,
              "velocity": 95,
              "position": 1.0,
              "duration": 0.491667
            },
            {
              "pitch": 51,
              "velocity": 102,
              "position": 1.0,
              "duration": 0.108333
            },
            {
              "pitch": 51,
              "velocity": 44,
              "position": 1.25,
              "duration": 0.075
            },
            {
              "pitch": 51,
              "velocity": 59,
              "position": 1.5,
              "duration": 0.075
            },
            {
              "pitch": 35,
              "velocity": 50,
              "position": 1.75,
              "duration": 0.05
            },
            {
              "pitch": 51,
              "velocity": 49,
              "position": 1.75,
              "duration": 0.058333
            },
            {
              "pitch": 35,
              "velocity": 90,
              "position": 2.0,
              "duration": 0.266667
            },
            {
              "pitch": 51,
              "velocity": 98,
              "position": 2.0,
              "duration": 0.141667
            },
            {
              "pitch": 51,
              "velocity": 46,
              "position": 2.25,
              "duration": 0.158333
            },
            {
              "pitch": 38,
              "velocity": 48,
              "position": 2.258333,
              "duration": 0.15
            },
            {
              "pitch": 38,
              "velocity": 22,
              "position": 2.45,
              "duration": 0.025
            },
            {
              "pitch": 51,
              "velocity": 57,
              "position": 2.5,
              "duration": 0.091667
            },
            {
              "pitch": 51,
              "velocity": 48,
              "position": 2.75,
              "duration": 0.05
            },
            {
              "pitch": 38,
              "velocity": 101,
              "position": 3.0,
              "duration": 0.575
            },
            {
              "pitch": 51,
              "velocity": 99,
              "position": 3.0,
              "duration": 0.275
            },
            {
              "pitch": 51,
              "velocity": 70,
              "position": 3.5,
              "duration": 0.058333
            },
            {
              "pitch": 35,
              "velocity": 51,
              "position": 3.75,
              "duration": 0.058333
            },
            {
              "pitch": 51,
              "velocity": 54,
              "position": 3.75,
              "duration": 0.075
            },
            {
              "pitch": 35,
              "velocity": 88,
              "position": 4.0,
              "duration": 0.691667
            },
            {
              "pitch": 51,
              "velocity": 99,
              "position": 4.0,
              "duration": 0.175
            },
            {
              "pitch": 51,
              "velocity": 28,
              "position": 4.25,
              "duration": 0.066667
            },
            {
              "pitch": 51,
              "velocity": 80,
              "position": 4.5,
              "duration": 0.083333
            },
            {
              "pitch": 51,
              "velocity": 64,
              "position": 4.741667,
              "duration": 0.058333
            },
            {
              "pitch": 38,
              "velocity": 92,
              "position": 4.991667,
              "duration": 0.175
            },
            {
              "pitch": 51,
              "velocity": 104,
              "position": 5.0,
              "duration": 0.1
            },
            {
              "pitch": 38,
              "velocity": 29,
              "position": 5.183333,
              "duration": 0.191667
            },
            {
              "pitch": 51,
              "velocity": 38,
              "position": 5.241667,
              "duration": 0.166667
            },
            {
              "pitch": 38,
              "velocity": 24,
              "position": 5.45,
              "duration": 0.025
            },
            {
              "pitch": 51,
              "velocity": 69,
              "position": 5.5,
              "duration": 0.075
            },
            {
              "pitch": 35,
              "velocity": 68,
              "position": 5.75,
              "duration": 0.091667
            },
            {
              "pitch": 51,
              "velocity": 87,
              "position": 5.75,
              "duration": 0.075
            },
            {
              "pitch": 35,
              "velocity": 85,
              "position": 6.0,
              "duration": 0.641667
            },
            {
              "pitch": 51,
              "velocity": 94,
              "position": 6.0,
              "duration": 0.116667
            },
            {
              "pitch": 51,
              "velocity": 32,
              "position": 6.25,
              "duration": 0.058333
            },
            {
              "pitch": 51,
              "velocity": 78,
              "position": 6.5,
              "duration": 0.066667
            },
            {
              "pitch": 35,
              "velocity": 64,
              "position": 6.75,
              "duration": 0.091667
            },
            {
              "pitch": 51,
              "velocity": 76,
              "position": 6.75,
              "duration": 0.066667
            },
            {
              "pitch": 38,
              "velocity": 96,
              "position": 7.0,
              "duration": 0.55
            },
            {
              "pitch": 51,
              "velocity": 99,
              "position": 7.0,
              "duration": 0.125
            },
            {
              "pitch": 51,
              "velocity": 57,
              "position": 7.25,
              "duration": 0.075
            },
            {
              "pitch": 51,
              "velocity": 97,
              "position": 7.5,
              "duration": 0.291667
            },
            {
              "pitch": 35,
              "velocity": 54,
              "position": 7.508333,
              "duration": 0.041667
            },
            {
              "pitch": 35,
              "velocity": 84,
              "position": 8.0,
              "duration": 0.8
            },
            {
              "pitch": 51,
              "velocity": 83,
              "position": 8.0,
              "duration": 0.325
            },
            {
              "pitch": 51,
              "velocity": 80,
              "position": 8.5,
              "duration": 0.266667
            },
            {
              "pitch": 38,
              "velocity": 28,
              "position": 8.858333,
              "duration": 0.116667
            },
            {
              "pitch": 38,
              "velocity": 96,
              "position": 9.0,
              "duration": 0.183333
            },
            {
              "pitch": 51,
              "velocity": 106,
              "position": 9.0,
              "duration": 0.116667
            },
            {
              "pitch": 51,
              "velocity": 45,
              "position": 9.25,
              "duration": 0.066667
            },
            {
              "pitch": 51,
              "velocity": 67,
              "position": 9.5,
              "duration": 0.083333
            },
            {
              "pitch": 35,
              "velocity": 63,
              "position": 9.75,
              "duration": 0.075
            },
            {
              "pitch": 51,
              "velocity": 76,
              "position": 9.75,
              "duration": 0.075
            },
            {
              "pitch": 35,
              "velocity": 87,
              "position": 10.0,
              "duration": 0.808333
            },
            {
              "pitch": 51,
              "velocity": 104,
              "position": 10.0,
              "duration": 0.141667
            },
            {
              "pitch": 51,
              "velocity": 48,
              "position": 10.25,
              "duration": 0.083333
            },
            {
              "pitch": 51,
              "velocity": 71,
              "position": 10.5,
              "duration": 0.075
            },
            {
              "pitch": 51,
              "velocity": 69,
              "position": 10.75,
              "duration": 0.075
            },
            {
              "pitch": 38,
              "velocity": 101,
              "position": 11.0,
              "duration": 0.35
            },
            {
              "pitch": 51,
              "velocity": 99,
              "position": 11.0,
              "duration": 0.125
            },
            {
              "pitch": 51,
              "velocity": 48,
              "position": 11.25,
              "duration": 0.075
            },
            {
              "pitch": 35,
              "velocity": 68,
              "position": 11.5,
              "duration": 0.091667
            },
            {
              "pitch": 51,
              "velocity": 87,
              "position": 11.5,
              "duration": 0.083333
            },
            {
              "pitch": 51,
              "velocity": 62,
              "position": 11.75,
              "duration": 0.058333
            },
            {
              "pitch": 35,
              "velocity": 90,
              "position": 12.0,
              "duration": 0.65
            },
            {
              "pitch": 51,
              "velocity": 95,
              "position": 12.0,
              "duration": 0.108333
            },
            {
              "pitch": 51,
              "velocity": 46,
              "position": 12.25,
              "duration": 0.075
            },
            {
              "pitch": 51,
              "velocity": 57,
              "position": 12.5,
              "duration": 0.075
            },
            {
              "pitch": 51,
              "velocity": 62,
              "position": 12.75,
              "duration": 0.05
            },
            {
              "pitch": 38,
              "velocity": 103,
              "position": 13.0,
              "duration": 0.541667
            },
            {
              "pitch": 51,
              "velocity": 106,
              "position": 13.0,
              "duration": 0.108333
            },
            {
              "pitch": 51,
              "velocity": 39,
              "position": 13.241667,
              "duration": 0.075
            },
            {
              "pitch": 51,
              "velocity": 85,
              "position": 13.5,
              "duration": 0.075
            },
            {
              "pitch": 35,
              "velocity": 66,
              "position": 13.75,
              "duration": 0.066667
            },
            {
              "pitch": 51,
              "velocity": 85,
              "position": 13.75,
              "duration": 0.058333
            },
            {
              "pitch": 35,
              "velocity": 92,
              "position": 14.0,
              "duration": 0.6
            },
            {
              "pitch": 51,
              "velocity": 99,
              "position": 14.0,
              "duration": 0.083333
            },
            {
              "pitch": 48,
              "velocity": 84,
              "position": 14.241667,
              "duration": 0.033333
            },
            {
              "pitch": 48,
              "velocity": 85,
              "position": 14.375,
              "duration": 0.05
            },
            {
              "pitch": 48,
              "velocity": 99,
              "position": 14.491667,
              "duration": 0.108333
            },
            {
              "pitch": 45,
              "velocity": 101,
              "position": 14.741667,
              "duration": 0.05
            },
            {
              "pitch": 45,
              "velocity": 118,
              "position": 15.0,
              "duration": 0.075
            },
            {
              "pitch": 43,
              "velocity": 78,
              "position": 15.241667,
              "duration": 0.05
            },
            {
              "pitch": 43,
              "velocity": 101,
              "position": 15.508333,
              "duration": 0.075
            }
          ]
        },
        "10": {
          "ctab": {
            "srcChannel": 10,
            "name": "Bass",
            "accType": "BASS",
            "editable": true,
            "mutedNotes": [],
            "mutedChords": [],
            "sourceChordNote": 0,
            "sourceChordType": "Maj7",
            "ctb2Main": {
              "ntr": "ROOT_TRANSPOSITION",
              "ntt": "BYPASS",
              "bassOn": true,
              "noteLowLimit": 20,
              "noteHighLimit": 60,
              "chordRootUpperLimit": 127,
              "rtr": "NOTE_GENERATOR"
            }
          },
          "notes": [
            {
              "pitch": 36,
              "velocity": 96,
              "position": 0.0,
              "duration": 1.216667
            },
            {
              "pitch": 43,
              "velocity": 61,
              "position": 1.25,
              "duration": 0.108333
            },
            {
              "pitch": 36,
              "velocity": 96,
              "position": 1.75,
              "duration": 0.216667
            },
            {
              "pitch": 36,
              "velocity": 96,
              "position": 2.0,
              "duration": 0.933333
            },
            {
              "pitch": 43,
              "velocity": 82,
              "position": 3.25,
              "duration": 0.25
            },
            {
              "pitch": 36,
              "velocity": 75,
              "position": 3.75,
              "duration": 0.216667
            },
            {
              "pitch": 36,
              "velocity": 76,
              "position": 4.0,
              "duration": 0.258333
            },
            {
              "pitch": 36,
              "velocity": 88,
              "position": 4.5,
              "duration": 0.766667
            },
            {
              "pitch": 43,
              "velocity": 87,
              "position": 5.25,
              "duration": 0.508333
            },
            {
              "pitch": 36,
              "velocity": 87,
              "position": 5.766667,
              "duration": 0.2
            },
            {
              "pitch": 36,
              "velocity": 76,
              "position": 6.0,
              "duration": 0.258333
            },
            {
              "pitch": 36,
              "velocity": 88,
              "position": 6.5,
              "duration": 0.766667
            },
            {
              "pitch": 43,
              "velocity": 87,
              "position": 7.25,
              "duration": 0.508333
            },
            {
              "pitch": 36,
              "velocity": 87,
              "position": 7.766667,
              "duration": 0.2
            },
            {
              "pitch": 36,
              "velocity": 101,
              "position": 8.0,
              "duration": 0.966667
            },
            {
              "pitch": 43,
              "velocity": 74,
              "position": 9.75,
              "duration": 0.283333
            },
            {
              "pitch": 48,
              "velocity": 97,
              "position": 10.0,
              "duration": 1.0
            },
            {
              "pitch": 48,
              "velocity": 64,
              "position": 11.25,
              "duration": 0.208333
            },
            {
              "pitch": 43,
              "velocity": 65,
              "position": 11.5,
              "duration": 0.216667
            },
            {
              "pitch": 40,
              "velocity": 85,
              "position": 11.75,
              "duration": 0.208333
            },
            {
              "pitch": 36,
              "velocity": 101,
              "position": 12.0,
              "duration": 0.633333
            },
            {
              "pitch": 43,
              "velocity": 109,
              "position": 13.25,
              "duration": 0.083333
            },
            {
              "pitch": 48,
              "velocity": 85,
              "position": 13.75,
              "duration": 0.25
            },
            {
              "pitch": 48,
              "velocity": 93,
              "position": 14.0,
              "duration": 0.658333
            },
            {
              "pitch": 43,
              "velocity": 81,
              "position": 14.75,
              "duration": 0.233333
            },
            {
              "pitch": 48,
              "velocity": 81,
              "position": 15.0,
              "duration": 0.258333
            },
            {
              "pitch": 43,
              "velocity": 57,
              "position": 15.25,
              "duration": 0.166667
            },
            {
              "pitch": 36,
              "velocity": 89,
              "position": 15.75,
              "duration": 0.216667
            }
          ]
        },
        "11": {
          "ctab": {
            "srcChannel": 11,
            "name": "Piano",
            "accType": "CHORD1",
            "editable": true,
            "mutedNotes": [],
            "mutedChords": [],
            "sourceChordNote": 0,
            "sourceChordType": "Maj7",
            "ctb2Main": {
              "ntr": "ROOT_FIXED",
              "ntt": "CHORD",
              "bassOn": false,
              "noteLowLimit": 48,
              "noteHighLimit": 84,
              "chordRootUpperLimit": 127,
              "rtr": "NOTE_GENERATOR"
            }
          },
          "notes": [
            {
              "pitch": 36,
              "velocity": 63,
              "position": 0.008333,
              "duration": 0.95
            },
            {
              "pitch": 64,
              "velocity": 73,
              "position": 0.008333,
              "duration": 0.675
            },
            {
              "pitch": 67,
              "velocity": 63,
              "position": 0.008333,
              "duration": 0.691667
            },
            {
              "pitch": 71,
              "velocity": 76,
              "position": 0.008333,
              "duration": 0.7
            },
            {
              "pitch": 52,
              "velocity": 41,
              "position": 0.025,
              "duration": 0.591667
            },
            {
              "pitch": 52,
              "velocity": 72,
              "position": 1.0,
              "duration": 0.058333
            },
            {
              "pitch": 64,
              "velocity": 47,
              "position": 1.25,
              "duration": 0.15
            },
            {
              "pitch": 71,
              "velocity": 81,
              "position": 1.491667,
              "duration": 0.125
            },
            {
              "pitch": 67,
              "velocity": 71,
              "position": 2.0,
              "duration": 0.133333
            },
            {
              "pitch": 74,
              "velocity": 77,
              "position": 2.0,
              "duration": 0.133333
            },
            {
              "pitch": 64,
              "velocity": 65,
              "position": 2.008333,
              "duration": 0.133333
            },
            {
              "pitch": 64,
              "velocity": 45,
              "position": 2.5,
              "duration": 0.85
            },
            {
              "pitch": 67,
              "velocity": 55,
              "position": 2.5,
              "duration": 0.941667
            },
            {
              "pitch": 74,
              "velocity": 58,
              "position": 2.5,
              "duration": 0.875
            },
            {
              "pitch": 48,
              "velocity": 83,
              "position": 3.741667,
              "duration": 0.125
            },
            {
              "pitch": 55,
              "velocity": 72,
              "position": 4.741667,
              "duration": 0.125
            },
            {
              "pitch": 71,
              "velocity": 91,
              "position": 5.008333,
              "duration": 0.216667
            },
            {
              "pitch": 76,
              "velocity": 84,
              "position": 5.008333,
              "duration": 0.241667
            },
            {
              "pitch": 64,
              "velocity": 69,
              "position": 5.733333,
              "duration": 0.716667
            },
            {
              "pitch": 67,
              "velocity": 73,
              "position": 5.733333,
              "duration": 0.666667
            },
            {
              "pitch": 74,
              "velocity": 76,
              "position": 5.733333,
              "duration": 0.733333
            },
            {
              "pitch": 48,
              "velocity": 65,
              "position": 6.741667,
              "duration": 0.216667
            },
            {
              "pitch": 62,
              "velocity": 76,
              "position": 7.0,
              "duration": 0.291667
            },
            {
              "pitch": 67,
              "velocity": 64,
              "position": 7.491667,
              "duration": 0.233333
            },
            {
              "pitch": 52,
              "velocity": 30,
              "position": 7.741667,
              "duration": 0.2
            },
            {
              "pitch": 62,
              "velocity": 43,
              "position": 8.0,
              "duration": 0.225
            },
            {
              "pitch": 64,
              "velocity": 49,
              "position": 8.0,
              "duration": 0.233333
            },
            {
              "pitch": 67,
              "velocity": 52,
              "position": 8.0,
              "duration": 0.25
            },
            {
              "pitch": 48,
              "velocity": 40,
              "position": 8.008333,
              "duration": 1.058333
            },
            {
              "pitch": 55,
              "velocity": 31,
              "position": 8.016667,
              "duration": 1.041667
            },
            {
              "pitch": 67,
              "velocity": 96,
              "position": 9.008333,
              "duration": 0.241667
            },
            {
              "pitch": 74,
              "velocity": 107,
              "position": 9.008333,
              "duration": 0.241667
            },
            {
              "pitch": 76,
              "velocity": 100,
              "position": 9.016667,
              "duration": 0.233333
            },
            {
              "pitch": 67,
              "velocity": 64,
              "position": 9.308333,
              "duration": 0.15
            },
            {
              "pitch": 74,
              "velocity": 70,
              "position": 9.308333,
              "duration": 0.158333
            },
            {
              "pitch": 76,
              "velocity": 76,
              "position": 9.308333,
              "duration": 0.133333
            },
            {
              "pitch": 74,
              "velocity": 67,
              "position": 9.716667,
              "duration": 0.158333
            },
            {
              "pitch": 76,
              "velocity": 66,
              "position": 9.716667,
              "duration": 0.216667
            },
            {
              "pitch": 71,
              "velocity": 72,
              "position": 9.725,
              "duration": 0.166667
            },
            {
              "pitch": 48,
              "velocity": 40,
              "position": 10.016667,
              "duration": 0.15
            },
            {
              "pitch": 67,
              "velocity": 44,
              "position": 10.016667,
              "duration": 0.1
            },
            {
              "pitch": 74,
              "velocity": 42,
              "position": 10.016667,
              "duration": 0.083333
            },
            {
              "pitch": 76,
              "velocity": 55,
              "position": 10.016667,
              "duration": 0.05
            },
            {
              "pitch": 48,
              "velocity": 78,
              "position": 11.258333,
              "duration": 0.066667
            },
            {
              "pitch": 64,
              "velocity": 96,
              "position": 11.5,
              "duration": 0.15
            },
            {
              "pitch": 71,
              "velocity": 100,
              "position": 11.508333,
              "duration": 0.158333
            },
            {
              "pitch": 74,
              "velocity": 92,
              "position": 11.508333,
              "duration": 0.141667
            },
            {
              "pitch": 71,
              "velocity": 72,
              "position": 11.75,
              "duration": 0.15
            },
            {
              "pitch": 64,
              "velocity": 63,
              "position": 11.758333,
              "duration": 0.15
            },
            {
              "pitch": 74,
              "velocity": 66,
              "position": 11.758333,
              "duration": 0.15
            },
            {
              "pitch": 64,
              "velocity": 51,
              "position": 12.008333,
              "duration": 0.091667
            },
            {
              "pitch": 74,
              "velocity": 37,
              "position": 12.016667,
              "duration": 0.083333
            },
            {
              "pitch": 67,
              "velocity": 45,
              "position": 12.025,
              "duration": 0.066667
            },
            {
              "pitch": 64,
              "velocity": 36,
              "position": 12.5,
              "duration": 0.083333
            },
            {
              "pitch": 67,
              "velocity": 32,
              "position": 12.5,
              "duration": 0.083333
            },
            {
              "pitch": 74,
              "velocity": 31,
              "position": 12.5,
              "duration": 0.108333
            },
            {
              "pitch": 48,
              "velocity": 62,
              "position": 13.733333,
              "duration": 0.266667
            },
            {
              "pitch": 62,
              "velocity": 91,
              "position": 13.983333,
              "duration": 0.158333
            },
            {
              "pitch": 64,
              "velocity": 80,
              "position": 13.983333,
              "duration": 0.183333
            },
            {
              "pitch": 67,
              "velocity": 86,
              "position": 13.991667,
              "duration": 0.15
            },
            {
              "pitch": 62,
              "velocity": 67,
              "position": 14.25,
              "duration": 0.091667
            },
            {
              "pitch": 64,
              "velocity": 46,
              "position": 14.25,
              "duration": 0.116667
            },
            {
              "pitch": 67,
              "velocity": 61,
              "position": 14.25,
              "duration": 0.116667
            },
            {
              "pitch": 62,
              "velocity": 56,
              "position": 14.508333,
              "duration": 0.083333
            },
            {
              "pitch": 64,
              "velocity": 46,
              "position": 14.508333,
              "duration": 0.125
            },
            {
              "pitch": 67,
              "velocity": 59,
              "position": 14.508333,
              "duration": 0.1
            },
            {
              "pitch": 64,
              "velocity": 49,
              "position": 14.741667,
              "duration": 0.141667
            },
            {
              "pitch": 62,
              "velocity": 61,
              "position": 14.75,
              "duration": 0.1
            },
            {
              "pitch": 67,
              "velocity": 66,
              "position": 14.758333,
              "duration": 0.1
            },
            {
              "pitch": 62,
              "velocity": 89,
              "position": 15.008333,
              "duration": 0.133333
            },
            {
              "pitch": 64,
              "velocity": 92,
              "position": 15.008333,
              "duration": 0.141667
            },
            {
              "pitch": 67,
              "velocity": 91,
              "position": 15.008333,
              "duration": 0.166667
            }
          ]
        },
        "12": {
          "ctab": {
            "srcChannel": 12,
            "name": "Guitar",
            "accType": "CHORD2",
            "editable": true,
            "mutedNotes": [],
            "mutedChords": [],
            "sourceChordNote": 0,
            "sourceChordType": "Maj7",
            "ctb2Main": {
              "ntr": "ROOT_FIXED",
              "ntt": "CHORD",
              "bassOn": false,
              "noteLowLimit": 40,
              "noteHighLimit": 76,
              "chordRootUpperLimit": 127,
              "rtr": "NOTE_GENERATOR"
            }
          },
          "notes": [
            {
              "pitch": 59,
              "velocity": 68,
              "position": 0.008333,
              "duration": 1.266667
            },
            {
              "pitch": 67,
              "velocity": 40,
              "position": 0.25,
              "duration": 0.941667
            },
            {
              "pitch": 74,
              "velocity": 52,
              "position": 0.5,
              "duration": 0.65
            },
            {
              "pitch": 76,
              "velocity": 61,
              "position": 0.758333,
              "duration": 0.375
            },
            {
              "pitch": 76,
              "velocity": 65,
              "position": 2.0,
              "duration": 1.358333
            },
            {
              "pitch": 71,
              "velocity": 41,
              "position": 2.241667,
              "duration": 1.108333
            },
            {
              "pitch": 64,
              "velocity": 26,
              "position": 2.491667,
              "duration": 0.808333
            },
            {
              "pitch": 62,
              "velocity": 47,
              "position": 2.741667,
              "duration": 0.55
            },
            {
              "pitch": 52,
              "velocity": 63,
              "position": 4.008333,
              "duration": 1.541667
            },
            {
              "pitch": 64,
              "velocity": 44,
              "position": 4.266667,
              "duration": 0.241667
            },
            {
              "pitch": 64,
              "velocity": 50,
              "position": 4.508333,
              "duration": 0.925
            },
            {
              "pitch": 67,
              "velocity": 56,
              "position": 4.766667,
              "duration": 0.675
            },
            {
              "pitch": 71,
              "velocity": 51,
              "position": 6.0,
              "duration": 0.908333
            },
            {
              "pitch": 64,
              "velocity": 34,
              "position": 6.258333,
              "duration": 1.041667
            },
            {
              "pitch": 62,
              "velocity": 51,
              "position": 6.508333,
              "duration": 0.825
            },
            {
              "pitch": 52,
              "velocity": 60,
              "position": 8.0,
              "duration": 5.85
            },
            {
              "pitch": 64,
              "velocity": 58,
              "position": 8.758333,
              "duration": 0.741667
            },
            {
              "pitch": 64,
              "velocity": 52,
              "position": 9.5,
              "duration": 3.575
            },
            {
              "pitch": 74,
              "velocity": 58,
              "position": 9.991667,
              "duration": 3.241667
            },
            {
              "pitch": 71,
              "velocity": 53,
              "position": 11.0,
              "duration": 2.291667
            },
            {
              "pitch": 64,
              "velocity": 55,
              "position": 13.25,
              "duration": 1.533333
            },
            {
              "pitch": 67,
              "velocity": 38,
              "position": 13.508333,
              "duration": 1.333333
            },
            {
              "pitch": 74,
              "velocity": 62,
              "position": 13.741667,
              "duration": 1.033333
            },
            {
              "pitch": 67,
              "velocity": 60,
              "position": 15.0,
              "duration": 0.633333
            }
          ]
        },
        "13": {
          "ctab": {
            "srcChannel": 13,
            "name": "Strings",
            "accType": "PAD",
            "editable": true,
            "mutedNotes": [],
            "mutedChords": [],
            "sourceChordNote": 0,
            "sourceChordType": "Maj7",
            "ctb2Main": {
              "ntr": "ROOT_FIXED",
              "ntt": "MELODY",
              "bassOn": false,
              "noteLowLimit": 36,
              "noteHighLimit": 96,
              "chordRootUpperLimit": 127,
              "rtr": "PITCH_SHIFT"
            }
          },
          "notes": [
            {
              "pitch": 64,
              "velocity": 39,
              "position": 0.5,
              "duration": 0.625
            },
            {
              "pitch": 67,
              "velocity": 52,
              "position": 0.5,
              "duration": 0.641667
            },
            {
              "pitch": 74,
              "velocity": 52,
              "position": 0.5,
              "duration": 0.591667
            },
            {
              "pitch": 71,
              "velocity": 54,
              "position": 1.258333,
              "duration": 0.45
            },
            {
              "pitch": 74,
              "velocity": 56,
              "position": 1.258333,
              "duration": 0.441667
            },
            {
              "pitch": 71,
              "velocity": 47,
              "position": 1.75,
              "duration": 1.566667
            },
            {
              "pitch": 74,
              "velocity": 42,
              "position": 1.75,
              "duration": 1.1
            },
            {
              "pitch": 76,
              "velocity": 46,
              "position": 1.75,
              "duration": 1.058333
            },
            {
              "pitch": 79,
              "velocity": 66,
              "position": 1.766667,
              "duration": 1.55
            },
            {
              "pitch": 67,
              "velocity": 48,
              "position": 4.0,
              "duration": 1.3
            },
            {
              "pitch": 71,
              "velocity": 56,
              "position": 4.0,
              "duration": 1.25
            },
            {
              "pitch": 76,
              "velocity": 48,
              "position": 4.0,
              "duration": 1.241667
            },
            {
              "pitch": 64,
              "velocity": 46,
              "position": 5.75,
              "duration": 1.3
            },
            {
              "pitch": 71,
              "velocity": 54,
              "position": 5.75,
              "duration": 1.333333
            },
            {
              "pitch": 74,
              "velocity": 51,
              "position": 5.75,
              "duration": 1.333333
            },
            {
              "pitch": 74,
              "velocity": 52,
              "position": 8.0,
              "duration": 3.025
            },
            {
              "pitch": 76,
              "velocity": 51,
              "position": 8.0,
              "duration": 3.066667
            },
            {
              "pitch": 79,
              "velocity": 59,
              "position": 8.0,
              "duration": 3.091667
            },
            {
              "pitch": 67,
              "velocity": 36,
              "position": 12.0,
              "duration": 2.7
            },
            {
              "pitch": 74,
              "velocity": 46,
              "position": 12.0,
              "duration": 2.733333
            },
            {
              "pitch": 76,
              "velocity": 44,
              "position": 12.0,
              "duration": 2.8
            },
            {
              "pitch": 67,
              "velocity": 54,
              "position": 15.0,
              "duration": 0.233333
            },
            {
              "pitch": 76,
              "velocity": 66,
              "position": 15.0,
              "duration": 0.25
            }
          ]
        }
      }
    },
    "Ending_A": {
      "type": "Ending_A",
      "sizeInBeats": 16,
      "channels": {
        "9": {
          "ctab": {
            "srcChannel": 9,
            "name": "Drums",
            "accType": "RHYTHM",
            "editable": false,
            "mutedNotes": [],
            "mutedChords": [],
            "sourceChordNote": 0,
            "sourceChordType": "Maj",
            "ctb2Main": {
              "ntr": "ROOT_FIXED",
              "ntt": "BYPASS",
              "bassOn": false,
              "noteLowLimit": 20,
              "noteHighLimit": 127,
              "chordRootUpperLimit": 127,
              "rtr": "RETRIGGER"
            }
          },
          "notes": [
            {
              "pitch": 35,
              "velocity": 58,
              "position": 0.0,
              "duration": 0.175
            },
            {
              "pitch": 42,
              "velocity": 64,
              "position": 0.0,
              "duration": 0.225
            },
            {
              "pitch": 38,
              "velocity": 68,
              "position": 1.0,
              "duration": 0.325
            },
            {
              "pitch": 42,
              "velocity": 47,
              "position": 1.0,
              "duration": 0.191667
            },
            {
              "pitch": 42,
              "velocity": 23,
              "position": 1.5,
              "duration": 0.141667
            },
            {
              "pitch": 35,
              "velocity": 34,
              "position": 1.75,
              "duration": 0.058333
            },
            {
              "pitch": 35,
              "velocity": 56,
              "position": 2.0,
              "duration": 0.416667
            },
            {
              "pitch": 42,
              "velocity": 38,
              "position": 2.0,
              "duration": 0.175
            },
            {
              "pitch": 42,
              "velocity": 27,
              "position": 2.5,
              "duration": 0.125
            },
            {
              "pitch": 38,
              "velocity": 70,
              "position": 3.0,
              "duration": 0.258333
            },
            {
              "pitch": 42,
              "velocity": 52,
              "position": 3.0,
              "duration": 0.166667
            },
            {
              "pitch": 35,
              "velocity": 29,
              "position": 3.5,
              "duration": 0.125
            },
            {
              "pitch": 42,
              "velocity": 27,
              "position": 3.5,
              "duration": 0.141667
            },
            {
              "pitch": 35,
              "velocity": 55,
              "position": 4.0,
              "duration": 0.491667
            },
            {
              "pitch": 42,
              "velocity": 51,
              "position": 4.0,
              "duration": 0.208333
            },
            {
              "pitch": 42,
              "velocity": 28,
              "position": 4.5,
              "duration": 0.15
            },
            {
              "pitch": 38,
              "velocity": 70,
              "position": 5.0,
              "duration": 0.2
            },
            {
              "pitch": 42,
              "velocity": 51,
              "position": 5.0,
              "duration": 0.191667
            },
            {
              "pitch": 42,
              "velocity": 26,
              "position": 5.5,
              "duration": 0.133333
            },
            {
              "pitch": 35,
              "velocity": 36,
              "position": 5.75,
              "duration": 0.066667
            },
            {
              "pitch": 35,
              "velocity": 55,
              "position": 6.0,
              "duration": 1.0
            },
            {
              "pitch": 42,
              "velocity": 59,
              "position": 6.0,
              "duration": 0.175
            },
            {
              "pitch": 42,
              "velocity": 19,
              "position": 6.5,
              "duration": 0.116667
            },
            {
              "pitch": 38,
              "velocity": 70,
              "position": 7.0,
              "duration": 0.4
            },
            {
              "pitch": 42,
              "velocity": 59,
              "position": 7.0,
              "duration": 0.183333
            },
            {
              "pitch": 35,
              "velocity": 50,
              "position": 7.5,
              "duration": 0.141667
            },
            {
              "pitch": 38,
              "velocity": 17,
              "position": 7.5,
              "duration": 0.141667
            },
            {
              "pitch": 42,
              "velocity": 25,
              "position": 7.5,
              "duration": 0.075
            },
            {
              "pitch": 38,
              "velocity": 11,
              "position": 7.75,
              "duration": 0.016667
            },
            {
              "pitch": 38,
              "velocity": 7,
              "position": 7.808333,
              "duration": 0.141667
            },
            {
              "pitch": 35,
              "velocity": 58,
              "position": 8.0,
              "duration": 0.175
            },
            {
              "pitch": 42,
              "velocity": 64,
              "position": 8.0,
              "duration": 0.225
            },
            {
              "pitch": 38,
              "velocity": 68,
              "position": 9.0,
              "duration": 0.325
            },
            {
              "pitch": 42,
              "velocity": 47,
              "position": 9.0,
              "duration": 0.191667
            },
            {
              "pitch": 42,
              "velocity": 23,
              "position": 9.5,
              "duration": 0.141667
            },
            {
              "pitch": 35,
              "velocity": 34,
              "position": 9.75,
              "duration": 0.058333
            },
            {
              "pitch": 35,
              "velocity": 56,
              "position": 10.0,
              "duration": 0.416667
            },
            {
              "pitch": 42,
              "velocity": 38,
              "position": 10.0,
              "duration": 0.175
            },
            {
              "pitch": 42,
              "velocity": 27,
              "position": 10.5,
              "duration": 0.125
            },
            {
              "pitch": 38,
              "velocity": 70,
              "position": 11.0,
              "duration": 0.258333
            },
            {
              "pitch": 42,
              "velocity": 52,
              "position": 11.0,
              "duration": 0.166667
            },
            {
              "pitch": 35,
              "velocity": 29,
              "position": 11.5,
              "duration": 0.125
            },
            {
              "pitch": 42,
              "velocity": 27,
              "position": 11.5,
              "duration": 0.141667
            },
            {
              "pitch": 35,
              "velocity": 55,
              "position": 12.0,
              "duration": 0.491667
            },
            {
              "pitch": 42,
              "velocity": 68,
              "position": 12.0,
              "duration": 0.208333
            },
            {
              "pitch": 42,
              "velocity": 59,
              "position": 12.5,
              "duration": 0.15
            },
            {
              "pitch": 38,
              "velocity": 70,
              "position": 13.0,
              "duration": 0.391667
            },
            {
              "pitch": 46,
              "velocity": 85,
              "position": 13.008333,
              "duration": 0.191667
            },
            {
              "pitch": 45,
              "velocity": 68,
              "position": 13.491667,
              "duration": 0.208333
            },
            {
              "pitch": 35,
              "velocity": 39,
              "position": 13.75,
              "duration": 0.191667
            },
            {
              "pitch": 45,
              "velocity": 40,
              "position": 13.75,
              "duration": 0.2
            },
            {
              "pitch": 35,
              "velocity": 70,
              "position": 13.991667,
              "duration": 0.408333
            },
            {
              "pitch": 43,
              "velocity": 85,
              "position": 14.0,
              "duration": 0.4
            },
            {
              "pitch": 46,
              "velocity": 87,
              "position": 14.0,
              "duration": 0.4
            },
            {
              "pitch": 43,
              "velocity": 85,
              "position": 14.5,
              "duration": 0.4
            },
            {
              "pitch": 46,
              "velocity": 87,
              "position": 14.5,
              "duration": 0.391667
            },
            {
              "pitch": 35,
              "velocity": 67,
              "position": 15.0,
              "duration": 0.208333
            },
            {
              "pitch": 43,
              "velocity": 99,
              "position": 15.0,
              "duration": 0.208333
            },
            {
              "pitch": 38,
              "velocity": 67,
              "position": 15.008333,
              "duration": 0.2
            },
            {
              "pitch": 46,
              "velocity": 68,
              "position": 15.008333,
              "duration": 0.208333
            },
            {
              "pitch": 43,
              "velocity": 81,
              "position": 15.258333,
              "duration": 0.183333
            },
            {
              "pitch": 38,
              "velocity": 67,
              "position": 15.266667,
              "duration": 0.183333
            },
            {
              "pitch": 35,
              "velocity": 67,
              "position": 15.491667,
              "duration": 0.2
            },
            {
              "pitch": 43,
              "velocity": 92,
              "position": 15.491667,
              "duration": 0.2
            },
            {
              "pitch": 38,
              "velocity": 67,
              "position": 15.5,
              "duration": 0.191667
            },
            {
              "pitch": 38,
              "velocity": 67,
              "position": 15.75,
              "duration": 0.091667
            },
            {
              "pitch": 43,
              "velocity": 90,
              "position": 15.75,
              "duration": 0.091667
            },
            {
              "pitch": 38,
              "velocity": 26,
              "position": 15.866667,
              "duration": 0.108333
            }
          ]
        },
        "10": {
          "ctab": {
            "srcChannel": 10,
            "name": "Bass",
            "accType": "BASS",
            "editable": true,
            "mutedNotes": [],
            "mutedChords": [],
            "sourceChordNote": 0,
            "sourceChordType": "Maj7",
            "ctb2Main": {
              "ntr": "ROOT_TRANSPOSITION",
              "ntt": "BYPASS",
              "bassOn": true,
              "noteLowLimit": 20,
              "noteHighLimit": 60,
              "chordRootUpperLimit": 127,
              "rtr": "NOTE_GENERATOR"
            }
          },
          "notes": [
            {
              "pitch": 36,
              "velocity": 80,
              "position": 0.0,
              "duration": 0.483333
            },
            {
              "pitch": 43,
              "velocity": 53,
              "position": 1.25,
              "duration": 0.2
            },
            {
              "pitch": 36,
              "velocity": 89,
              "position": 1.5,
              "duration": 0.466667
            },
            {
              "pitch": 48,
              "velocity": 77,
              "position": 2.025,
              "duration": 0.966667
            },
            {
              "pitch": 43,
              "velocity": 82,
              "position": 3.0,
              "duration": 0.741667
            },
            {
              "pitch": 36,
              "velocity": 64,
              "position": 3.75,
              "duration": 0.216667
            },
            {
              "pitch": 36,
              "velocity": 73,
              "position": 4.0,
              "duration": 0.875
            },
            {
              "pitch": 36,
              "velocity": 75,
              "position": 5.508333,
              "duration": 0.441667
            },
            {
              "pitch": 36,
              "velocity": 83,
              "position": 6.5,
              "duration": 0.558333
            },
            {
              "pitch": 36,
              "velocity": 68,
              "position": 7.25,
              "duration": 0.091667
            },
            {
              "pitch": 36,
              "velocity": 73,
              "position": 7.5,
              "duration": 0.466667
            },
            {
              "pitch": 36,
              "velocity": 82,
              "position": 8.0,
              "duration": 0.6
            },
            {
              "pitch": 36,
              "velocity": 80,
              "position": 10.0,
              "duration": 0.466667
            },
            {
              "pitch": 36,
              "velocity": 61,
              "position": 11.5,
              "duration": 0.466667
            },
            {
              "pitch": 36,
              "velocity": 90,
              "position": 12.0,
              "duration": 1.1
            },
            {
              "pitch": 36,
              "velocity": 52,
              "position": 13.75,
              "duration": 0.05
            },
            {
              "pitch": 36,
              "velocity": 91,
              "position": 14.0,
              "duration": 1.05
            },
            {
              "pitch": 43,
              "velocity": 45,
              "position": 15.25,
              "duration": 0.041667
            },
            {
              "pitch": 43,
              "velocity": 93,
              "position": 15.5,
              "duration": 0.283333
            },
            {
              "pitch": 48,
              "velocity": 74,
              "position": 15.75,
              "duration": 0.216667
            }
          ]
        },
        "11": {
          "ctab": {
            "srcChannel": 11,
            "name": "Piano",
            "accType": "CHORD1",
            "editable": true,
            "mutedNotes": [],
            "mutedChords": [],
            "sourceChordNote": 0,
            "sourceChordType": "Maj7",
            "ctb2Main": {
              "ntr": "ROOT_FIXED",
              "ntt": "CHORD",
              "bassOn": false,
              "noteLowLimit": 48,
              "noteHighLimit": 84,
              "chordRootUpperLimit": 127,
              "rtr": "NOTE_GENERATOR"
            }
          },
          "notes": [
            {
              "pitch": 62,
              "velocity": 62,
              "position": 0.008333,
              "duration": 0.991667
            },
            {
              "pitch": 64,
              "velocity": 61,
              "position": 0.008333,
              "duration": 1.141667
            },
            {
              "pitch": 67,
              "velocity": 62,
              "position": 0.008333,
              "duration": 1.125
            },
            {
              "pitch": 52,
              "velocity": 62,
              "position": 0.991667,
              "duration": 0.333333
            },
            {
              "pitch": 62,
              "velocity": 37,
              "position": 1.241667,
              "duration": 0.483333
            },
            {
              "pitch": 64,
              "velocity": 47,
              "position": 1.733333,
              "duration": 0.9
            },
            {
              "pitch": 71,
              "velocity": 69,
              "position": 1.733333,
              "duration": 0.916667
            },
            {
              "pitch": 76,
              "velocity": 52,
              "position": 1.733333,
              "duration": 0.891667
            },
            {
              "pitch": 36,
              "velocity": 37,
              "position": 2.483333,
              "duration": 0.533333
            },
            {
              "pitch": 48,
              "velocity": 53,
              "position": 2.991667,
              "duration": 0.083333
            },
            {
              "pitch": 64,
              "velocity": 49,
              "position": 2.991667,
              "duration": 0.191667
            },
            {
              "pitch": 71,
              "velocity": 67,
              "position": 2.991667,
              "duration": 0.183333
            },
            {
              "pitch": 76,
              "velocity": 59,
              "position": 2.991667,
              "duration": 0.216667
            },
            {
              "pitch": 74,
              "velocity": 60,
              "position": 3.75,
              "duration": 0.191667
            },
            {
              "pitch": 76,
              "velocity": 56,
              "position": 3.75,
              "duration": 0.191667
            },
            {
              "pitch": 67,
              "velocity": 55,
              "position": 3.758333,
              "duration": 0.183333
            },
            {
              "pitch": 71,
              "velocity": 66,
              "position": 3.758333,
              "duration": 0.183333
            },
            {
              "pitch": 52,
              "velocity": 50,
              "position": 4.008333,
              "duration": 0.383333
            },
            {
              "pitch": 62,
              "velocity": 74,
              "position": 4.991667,
              "duration": 0.183333
            },
            {
              "pitch": 74,
              "velocity": 79,
              "position": 4.991667,
              "duration": 0.208333
            },
            {
              "pitch": 36,
              "velocity": 55,
              "position": 5.0,
              "duration": 0.075
            },
            {
              "pitch": 64,
              "velocity": 62,
              "position": 5.733333,
              "duration": 1.266667
            },
            {
              "pitch": 67,
              "velocity": 63,
              "position": 5.733333,
              "duration": 1.383333
            },
            {
              "pitch": 71,
              "velocity": 70,
              "position": 5.733333,
              "duration": 1.35
            },
            {
              "pitch": 52,
              "velocity": 58,
              "position": 6.991667,
              "duration": 0.541667
            },
            {
              "pitch": 64,
              "velocity": 26,
              "position": 7.241667,
              "duration": 0.275
            },
            {
              "pitch": 67,
              "velocity": 41,
              "position": 7.491667,
              "duration": 0.108333
            },
            {
              "pitch": 62,
              "velocity": 61,
              "position": 7.725,
              "duration": 0.216667
            },
            {
              "pitch": 71,
              "velocity": 68,
              "position": 7.725,
              "duration": 0.216667
            },
            {
              "pitch": 64,
              "velocity": 53,
              "position": 7.733333,
              "duration": 0.208333
            },
            {
              "pitch": 36,
              "velocity": 52,
              "position": 8.0,
              "duration": 0.35
            },
            {
              "pitch": 36,
              "velocity": 41,
              "position": 8.483333,
              "duration": 0.525
            },
            {
              "pitch": 62,
              "velocity": 89,
              "position": 9.0,
              "duration": 0.158333
            },
            {
              "pitch": 64,
              "velocity": 88,
              "position": 9.0,
              "duration": 0.158333
            },
            {
              "pitch": 67,
              "velocity": 78,
              "position": 9.008333,
              "duration": 0.175
            },
            {
              "pitch": 74,
              "velocity": 85,
              "position": 9.008333,
              "duration": 0.175
            },
            {
              "pitch": 62,
              "velocity": 44,
              "position": 9.258333,
              "duration": 0.083333
            },
            {
              "pitch": 64,
              "velocity": 45,
              "position": 9.258333,
              "duration": 0.083333
            },
            {
              "pitch": 67,
              "velocity": 53,
              "position": 9.258333,
              "duration": 0.1
            },
            {
              "pitch": 74,
              "velocity": 31,
              "position": 9.258333,
              "duration": 0.091667
            },
            {
              "pitch": 64,
              "velocity": 36,
              "position": 9.508333,
              "duration": 0.066667
            },
            {
              "pitch": 67,
              "velocity": 41,
              "position": 9.508333,
              "duration": 0.116667
            },
            {
              "pitch": 74,
              "velocity": 33,
              "position": 9.508333,
              "duration": 0.116667
            },
            {
              "pitch": 62,
              "velocity": 31,
              "position": 9.516667,
              "duration": 0.058333
            },
            {
              "pitch": 71,
              "velocity": 67,
              "position": 9.741667,
              "duration": 0.275
            },
            {
              "pitch": 62,
              "velocity": 67,
              "position": 9.75,
              "duration": 0.25
            },
            {
              "pitch": 64,
              "velocity": 60,
              "position": 9.75,
              "duration": 0.266667
            },
            {
              "pitch": 74,
              "velocity": 49,
              "position": 9.75,
              "duration": 0.258333
            },
            {
              "pitch": 36,
              "velocity": 64,
              "position": 11.241667,
              "duration": 0.075
            },
            {
              "pitch": 62,
              "velocity": 81,
              "position": 11.491667,
              "duration": 0.258333
            },
            {
              "pitch": 52,
              "velocity": 35,
              "position": 11.733333,
              "duration": 0.208333
            },
            {
              "pitch": 48,
              "velocity": 48,
              "position": 12.016667,
              "duration": 0.833333
            },
            {
              "pitch": 59,
              "velocity": 57,
              "position": 13.008333,
              "duration": 0.108333
            },
            {
              "pitch": 71,
              "velocity": 73,
              "position": 13.258333,
              "duration": 0.133333
            },
            {
              "pitch": 83,
              "velocity": 76,
              "position": 13.258333,
              "duration": 0.158333
            },
            {
              "pitch": 48,
              "velocity": 37,
              "position": 14.025,
              "duration": 0.025
            },
            {
              "pitch": 67,
              "velocity": 62,
              "position": 14.258333,
              "duration": 0.233333
            },
            {
              "pitch": 74,
              "velocity": 69,
              "position": 14.258333,
              "duration": 0.241667
            },
            {
              "pitch": 64,
              "velocity": 39,
              "position": 14.508333,
              "duration": 0.15
            },
            {
              "pitch": 48,
              "velocity": 59,
              "position": 14.758333,
              "duration": 0.225
            },
            {
              "pitch": 62,
              "velocity": 59,
              "position": 15.008333,
              "duration": 0.475
            },
            {
              "pitch": 64,
              "velocity": 56,
              "position": 15.008333,
              "duration": 0.533333
            },
            {
              "pitch": 67,
              "velocity": 52,
              "position": 15.008333,
              "duration": 0.575
            },
            {
              "pitch": 59,
              "velocity": 45,
              "position": 15.5,
              "duration": 0.066667
            },
            {
              "pitch": 55,
              "velocity": 50,
              "position": 15.75,
              "duration": 0.191667
            }
          ]
        },
        "12": {
          "ctab": {
            "srcChannel": 12,
            "name": "Guitar",
            "accType": "CHORD2",
            "editable": true,
            "mutedNotes": [],
            "mutedChords": [],
            "sourceChordNote": 0,
            "sourceChordType": "Maj7",
            "ctb2Main": {
              "ntr": "ROOT_FIXED",
              "ntt": "CHORD",
              "bassOn": false,
              "noteLowLimit": 40,
              "noteHighLimit": 76,
              "chordRootUpperLimit": 127,
              "rtr": "NOTE_GENERATOR"
            }
          },
          "notes": []
        },
        "13": {
          "ctab": {
            "srcChannel": 13,
            "name": "Strings",
            "accType": "PAD",
            "editable": true,
            "mutedNotes": [],
            "mutedChords": [],
            "sourceChordNote": 0,
            "sourceChordType": "Maj7",
            "ctb2Main": {
              "ntr": "ROOT_FIXED",
              "ntt": "MELODY",
              "bassOn": false,
              "noteLowLimit": 36,
              "noteHighLimit": 96,
              "chordRootUpperLimit": 127,
              "rtr": "PITCH_SHIFT"
            }
          },
          "notes": [
            {
              "pitch": 67,
              "velocity": 52,
              "position": 0.0,
              "duration": 1.125
            },
            {
              "pitch": 74,
              "velocity": 48,
              "position": 0.0,
              "duration": 1.1
            },
            {
              "pitch": 76,
              "velocity": 52,
              "position": 0.0,
              "duration": 1.141667
            },
            {
              "pitch": 67,
              "velocity": 45,
              "position": 2.25,
              "duration": 0.566667
            },
            {
              "pitch": 79,
              "velocity": 62,
              "position": 2.508333,
              "duration": 0.766667
            },
            {
              "pitch": 67,
              "velocity": 44,
              "position": 3.0,
              "duration": 0.583333
            },
            {
              "pitch": 71,
              "velocity": 52,
              "position": 3.75,
              "duration": 0.566667
            },
            {
              "pitch": 76,
              "velocity": 45,
              "position": 3.75,
              "duration": 0.508333
            },
            {
              "pitch": 79,
              "velocity": 54,
              "position": 3.75,
              "duration": 0.525
            },
            {
              "pitch": 64,
              "velocity": 41,
              "position": 6.0,
              "duration": 1.525
            },
            {
              "pitch": 67,
              "velocity": 56,
              "position": 6.0,
              "duration": 1.558333
            },
            {
              "pitch": 74,
              "velocity": 54,
              "position": 6.0,
              "duration": 1.433333
            },
            {
              "pitch": 64,
              "velocity": 52,
              "position": 8.0,
              "duration": 0.083333
            },
            {
              "pitch": 67,
              "velocity": 33,
              "position": 8.0,
              "duration": 0.066667
            },
            {
              "pitch": 71,
              "velocity": 55,
              "position": 8.0,
              "duration": 0.075
            },
            {
              "pitch": 74,
              "velocity": 52,
              "position": 8.0,
              "duration": 0.083333
            },
            {
              "pitch": 64,
              "velocity": 55,
              "position": 8.5,
              "duration": 3.008333
            },
            {
              "pitch": 67,
              "velocity": 36,
              "position": 8.5,
              "duration": 2.9
            },
            {
              "pitch": 71,
              "velocity": 59,
              "position": 8.5,
              "duration": 2.858333
            },
            {
              "pitch": 74,
              "velocity": 58,
              "position": 8.5,
              "duration": 2.816667
            },
            {
              "pitch": 67,
              "velocity": 50,
              "position": 12.0,
              "duration": 3.291667
            },
            {
              "pitch": 71,
              "velocity": 49,
              "position": 12.0,
              "duration": 3.308333
            },
            {
              "pitch": 74,
              "velocity": 51,
              "position": 12.0,
              "duration": 3.358333
            },
            {
              "pitch": 76,
              "velocity": 51,
              "position": 12.0,
              "duration": 3.325
            }
          ]
        }
      }
    }
  }
}