{
  "name": "NORJ 12/8 Nashville Rock+",
  "tempo": 65,
  "timeSignature": "4/4",
  "ticksPerQuarter": 120,
  "sffType": "SFF1",
  "division": "BINARY",
  "channelPrograms": {
    "9": 40,
    "10": 32,
    "11": 0,
    "12": 25,
    "13": 16
  },
  "parts": {
    "Intro_A": {
      "type": "Intro_A",
      "sizeInBeats": 24,
      "channels": {
        "9": {
          "ctab": {
            "srcChannel": 9,
            "name": "Drums",
            "accType": "RHYTHM",
            "editable": false,
            "mutedNotes": [],
            "mutedChords": [],
            "sourceChordNote": 0,
            "sourceChordType": "Maj",
            "ctb2Main": {
              "ntr": "ROOT_FIXED",
              "ntt": "BYPASS",
              "bassOn": false,
              "noteLowLimit": 20,
              "noteHighLimit": 127,
              "chordRootUpperLimit": 127,
              "rtr": "RETRIGGER"
            }
          },
          "notes": [
            {
              "pitch": 37,
              "velocity": 84,
              "position": 0.0,
              "duration": 1.0
            },
            {
              "pitch": 37,
              "velocity": 84,
              "position": 2.0,
              "duration": 1.0
            },
            {
              "pitch": 37,
              "velocity": 64,
              "position": 4.0,
              "duration": 1.0
            },
            {
              "pitch": 37,
              "velocity": 84,
              "position": 5.0,
              "duration": 1.0
            },
            {
              "pitch": 37,
              "velocity": 64,
              "position": 6.0,
              "duration": 1.0
            },
            {
              "pitch": 37,
              "velocity": 84,
              "position": 7.0,
              "duration": 1.0
            },
            {
              "pitch": 35,
              "velocity": 62,
              "position": 8.0,
              "duration": 0.208333
            },
            {
              "pitch": 38,
              "velocity": 49,
              "position": 8.0,
              "duration": 0.208333
            },
            {
              "pitch": 38,
              "velocity": 39,
              "position": 8.666667,
              "duration": 0.208333
            },
            {
              "pitch": 38,
              "velocity": 127,
              "position": 9.0,
              "duration": 0.208333
            },
            {
              "pitch": 44,
              "velocity": 127,
              "position": 9.0,
              "duration": 0.208333
            },
            {
              "pitch": 38,
              "velocity": 42,
              "position": 10.0,
              "duration": 0.208333
            },
            {
              "pitch": 38,
              "velocity": 38,
              "position": 10.333333,
              "duration": 0.208333
            },
            {
              "pitch": 38,
              "velocity": 40,
              "position": 10.666667,
              "duration": 0.208333
            },
            {
              "pitch": 38,
              "velocity": 119,
              "position": 11.0,
              "duration": 0.208333
            },
            {
              "pitch": 38,
              "velocity": 35,
              "position": 11.333333,
              "duration": 0.166667
            },
            {
              "pitch": 38,
              "velocity": 28,
              "position": 11.5,
              "duration": 0.041667
            },
            {
              "pitch": 38,
              "velocity": 63,
              "position": 11.666667,
              "duration": 0.041667
            },
            {
              "pitch": 35,
              "velocity": 69,
              "position": 12.0,
              "duration": 0.208333
            },
            {
              "pitch": 38,
              "velocity": 52,
              "position": 12.0,
              "duration": 0.208333
            },
            {
              "pitch": 38,
              "velocity": 42,
              "position": 12.666667,
              "duration": 0.208333
            },
            {
              "pitch": 38,
              "velocity": 127,
              "position": 13.0,
              "duration": 0.208333
            },
            {
              "pitch": 44,
              "velocity": 127,
              "position": 13.0,
              "duration": 0.208333
            },
            {
              "pitch": 38,
              "velocity": 35,
              "position": 13.333333,
              "duration": 0.208333
            },
            {
              "pitch": 38,
              "velocity": 36,
              "position": 13.666667,
              "duration": 0.208333
            },
            {
              "pitch": 38,
              "velocity": 39,
              "position": 14.0,
              "duration": 0.208333
            },
            {
              "pitch": 38,
              "velocity": 39,
              "position": 14.666667,
              "duration": 0.208333
            },
            {
              "pitch": 38,
              "velocity": 127,
              "position": 15.0,
              "duration": 0.208333
            },
            {
              "pitch": 44,
              "velocity": 127,
              "position": 15.0,
              "duration": 0.208333
            },
            {
              "pitch": 38,
              "velocity": 127,
              "position": 15.333333,
              "duration": 0.208333
            },
            {
              "pitch": 35,
              "velocity": 66,
              "position": 15.666667,
              "duration": 0.208333
            },
            {
              "pitch": 38,
              "velocity": 43,
              "position": 15.666667,
              "duration": 0.208333
            },
            {
              "pitch": 35,
              "velocity": 62,
              "position": 16.0,
              "duration": 0.208333
            },
            {
              "pitch": 38,
              "velocity": 49,
              "position": 16.0,
              "duration": 0.208333
            },
            {
              "pitch": 38,
              "velocity": 39,
              "position": 16.666667,
              "duration": 0.208333
            },
            {
              "pitch": 38,
              "velocity": 127,
              "position": 17.0,
              "duration": 0.208333
            },
            {
              "pitch": 44,
              "velocity": 127,
              "position": 17.0,
              "duration": 0.208333
            },
            {
              "pitch": 38,
              "velocity": 42,
              "position": 18.0,
              "duration": 0.208333
            },
            {
              "pitch": 38,
              "velocity": 38,
              "position": 18.333333,
              "duration": 0.208333
            },
            {
              "pitch": 38,
              "velocity": 40,
              "position": 18.666667,
              "duration": 0.208333
            },
            {
              "pitch": 38,
              "velocity": 119,
              "position": 19.0,
              "duration": 0.208333
            },
            {
              "pitch": 38,
              "velocity": 35,
              "position": 19.333333,
              "duration": 0.166667
            },
            {
              "pitch": 38,
              "velocity": 28,
              "position": 19.5,
              "duration": 0.041667
            },
            {
              "pitch": 38,
              "velocity": 63,
              "position": 19.666667,
              "duration": 0.041667
            },
            {
              "pitch": 35,
              "velocity": 86,
              "position": 20.0,
              "duration": 0.208333
            },
            {
              "pitch": 38,
              "velocity": 50,
              "position": 20.0,
              "duration": 0.208333
            },
            {
              "pitch": 38,
              "velocity": 127,
              "position": 21.0,
              "duration": 0.208333
            },
            {
              "pitch": 44,
              "velocity": 127,
              "position": 21.0,
              "duration": 0.208333
            },
            {
              "pitch": 35,
              "velocity": 76,
              "position": 22.0,
              "duration": 0.208333
            },
            {
              "pitch": 38,
              "velocity": 49,
              "position": 22.0,
              "duration": 0.208333
            },
            {
              "pitch": 38,
              "velocity": 49,
              "position": 22.333333,
              "duration": 0.208333
            },
            {
              "pitch": 48,
              "velocity": 48,
              "position": 22.333333,
              "duration": 0.208333
            },
            {
              "pitch": 38,
              "velocity": 44,
              "position": 22.666667,
              "duration": 0.208333
            },
            {
              "pitch": 38,
              "velocity": 46,
              "position": 23.0,
              "duration": 0.208333
            },
            {
              "pitch": 44,
              "velocity": 127,
              "position": 23.0,
              "duration": 0.208333
            },
            {
              "pitch": 47,
              "velocity": 85,
              "position": 23.0,
              "duration": 0.208333
            },
            {
              "pitch": 38,
              "velocity": 95,
              "position": 23.666667,
              "duration": 0.208333
            },
            {
              "pitch": 45,
              "velocity": 85,
              "position": 23.666667,
              "duration": 0.208333
            }
          ]
        },
        "10": {
          "ctab": {
            "srcChannel": 10,
            "name": "Bass",
            "accType": "BASS",
            "editable": true,
            "mutedNotes": [],
            "mutedChords": [],
            "sourceChordNote": 0,
            "sourceChordType": "Maj7",
            "ctb2Main": {
              "ntr": "ROOT_TRANSPOSITION",
              "ntt": "BYPASS",
              "bassOn": true,
              "noteLowLimit": 20,
              "noteHighLimit": 60,
              "chordRootUpperLimit": 127,
              "rtr": "NOTE_GENERATOR"
            }
          },
          "notes": [
            {
              "pitch": 36,
              "velocity": 96,
              "position": 8.016667,
              "duration": 1.941667
            },
            {
              "pitch": 36,
              "velocity": 95,
              "position": 10.041667,
              "duration": 1.916667
            },
            {
              "pitch": 36,
              "velocity": 91,
              "position": 12.066667,
              "duration": 1.891667
            },
            {
              "pitch": 36,
              "velocity": 94,
              "position": 14.025,
              "duration": 1.933333
            },
            {
              "pitch": 36,
              "velocity": 94,
              "position": 16.0,
              "duration": 4.033333
            },
            {
              "pitch": 36,
              "velocity": 89,
              "position": 20.041667,
              "duration": 3.525
            },
            {
              "pitch": 43,
              "velocity": 84,
              "position": 23.675,
              "duration": 0.133333
            }
          ]
        },
        "11": {
          "ctab": {
            "srcChannel": 11,
            "name": "Piano",
            "accType": "CHORD1",
            "editable": true,
            "mutedNotes": [],
            "mutedChords": [],
            "sourceChordNote": 0,
            "sourceChordType": "Maj7",
            "ctb2Main": {
              "ntr": "ROOT_FIXED",
              "ntt": "CHORD",
              "bassOn": false,
              "noteLowLimit": 48,
              "noteHighLimit": 84,
              "chordRootUpperLimit": 127,
              "rtr": "NOTE_GENERATOR"
            }
          },
          "notes": [
            {
              "pitch": 64,
              "velocity": 58,
              "position": 8.0,
              "duration": 1.625
            },
            {
              "pitch": 59,
              "velocity": 66,
              "position": 8.008333,
              "duration": 1.691667
            },
            {
              "pitch": 36,
              "velocity": 56,
              "position": 8.016667,
              "duration": 1.941667
            },
            {
              "pitch": 48,
              "velocity": 53,
              "position": 8.016667,
              "duration": 1.941667
            },
            {
              "pitch": 55,
              "velocity": 46,
              "position": 8.016667,
              "duration": 1.45
            },
            {
              "pitch": 60,
              "velocity": 50,
              "position": 8.016667,
              "duration": 1.716667
            },
            {
              "pitch": 36,
              "velocity": 58,
              "position": 10.016667,
              "duration": 1.941667
            },
            {
              "pitch": 48,
              "velocity": 60,
              "position": 10.025,
              "duration": 1.933333
            },
            {
              "pitch": 55,
              "velocity": 70,
              "position": 10.025,
              "duration": 1.933333
            },
            {
              "pitch": 59,
              "velocity": 80,
              "position": 10.033333,
              "duration": 1.925
            },
            {
              "pitch": 60,
              "velocity": 78,
              "position": 10.033333,
              "duration": 1.925
            },
            {
              "pitch": 59,
              "velocity": 86,
              "position": 12.016667,
              "duration": 1.233333
            },
            {
              "pitch": 48,
              "velocity": 64,
              "position": 12.033333,
              "duration": 1.275
            },
            {
              "pitch": 60,
              "velocity": 49,
              "position": 12.033333,
              "duration": 0.741667
            },
            {
              "pitch": 67,
              "velocity": 74,
              "position": 12.041667,
              "duration": 1.133333
            },
            {
              "pitch": 64,
              "velocity": 50,
              "position": 12.05,
              "duration": 1.141667
            },
            {
              "pitch": 60,
              "velocity": 23,
              "position": 13.05,
              "duration": 0.166667
            },
            {
              "pitch": 59,
              "velocity": 42,
              "position": 13.658333,
              "duration": 0.3
            },
            {
              "pitch": 48,
              "velocity": 32,
              "position": 13.683333,
              "duration": 0.25
            },
            {
              "pitch": 36,
              "velocity": 58,
              "position": 14.016667,
              "duration": 1.941667
            },
            {
              "pitch": 48,
              "velocity": 60,
              "position": 14.025,
              "duration": 1.933333
            },
            {
              "pitch": 55,
              "velocity": 70,
              "position": 14.025,
              "duration": 1.933333
            },
            {
              "pitch": 59,
              "velocity": 80,
              "position": 14.033333,
              "duration": 1.925
            },
            {
              "pitch": 60,
              "velocity": 78,
              "position": 14.033333,
              "duration": 1.925
            },
            {
              "pitch": 36,
              "velocity": 58,
              "position": 16.016667,
              "duration": 7.866667
            },
            {
              "pitch": 48,
              "velocity": 60,
              "position": 16.025,
              "duration": 7.758333
            },
            {
              "pitch": 55,
              "velocity": 70,
              "position": 16.025,
              "duration": 3.8
            },
            {
              "pitch": 59,
              "velocity": 80,
              "position": 16.033333,
              "duration": 3.791667
            },
            {
              "pitch": 60,
              "velocity": 78,
              "position": 16.033333,
              "duration": 3.9
            },
            {
              "pitch": 55,
              "velocity": 82,
              "position": 20.0,
              "duration": 3.775
            },
            {
              "pitch": 59,
              "velocity": 86,
              "position": 20.0,
              "duration": 3.791667
            },
            {
              "pitch": 64,
              "velocity": 62,
              "position": 20.008333,
              "duration": 3.8
            }
          ]
        },
        "12": {
          "ctab": {
            "srcChannel": 12,
            "name": "Guitar",
            "accType": "CHORD2",
            "editable": true,
            "mutedNotes": [],
            "mutedChords": [],
            "sourceChordNote": 0,
            "sourceChordType": "Maj7",
            "ctb2Main": {
              "ntr": "ROOT_FIXED",
              "ntt": "CHORD",
              "bassOn": false,
              "noteLowLimit": 40,
              "noteHighLimit": 76,
              "chordRootUpperLimit": 127,
              "rtr": "NOTE_GENERATOR"
            }
          },
          "notes": [
            {
              "pitch": 48,
              "velocity": 74,
              "position": 8.0,
              "duration": 1.958333
            },
            {
              "pitch": 55,
              "velocity": 41,
              "position": 8.325,
              "duration": 0.316667
            },
            {
              "pitch": 59,
              "velocity": 41,
              "position": 8.358333,
              "duration": 0.125
            },
            {
              "pitch": 59,
              "velocity": 41,
              "position": 8.508333,
              "duration": 0.15
            },
            {
              "pitch": 55,
              "velocity": 51,
              "position": 8.65,
              "duration": 0.983333
            },
            {
              "pitch": 59,
              "velocity": 53,
              "position": 8.675,
              "duration": 0.633333
            },
            {
              "pitch": 64,
              "velocity": 41,
              "position": 8.691667,
              "duration": 0.283333
            },
            {
              "pitch": 64,
              "velocity": 61,
              "position": 9.008333,
              "duration": 0.95
            },
            {
              "pitch": 59,
              "velocity": 58,
              "position": 9.35,
              "duration": 0.608333
            },
            {
              "pitch": 55,
              "velocity": 54,
              "position": 9.666667,
              "duration": 0.291667
            },
            {
              "pitch": 48,
              "velocity": 74,
              "position": 10.0,
              "duration": 1.958333
            },
            {
              "pitch": 55,
              "velocity": 41,
              "position": 10.325,
              "duration": 0.316667
            },
            {
              "pitch": 59,
              "velocity": 41,
              "position": 10.358333,
              "duration": 0.125
            },
            {
              "pitch": 59,
              "velocity": 41,
              "position": 10.508333,
              "duration": 0.15
            },
            {
              "pitch": 55,
              "velocity": 51,
              "position": 10.65,
              "duration": 0.983333
            },
            {
              "pitch": 59,
              "velocity": 53,
              "position": 10.675,
              "duration": 0.633333
            },
            {
              "pitch": 64,
              "velocity": 41,
              "position": 10.691667,
              "duration": 0.283333
            },
            {
              "pitch": 64,
              "velocity": 61,
              "position": 11.008333,
              "duration": 0.95
            },
            {
              "pitch": 59,
              "velocity": 58,
              "position": 11.35,
              "duration": 0.608333
            },
            {
              "pitch": 55,
              "velocity": 54,
              "position": 11.666667,
              "duration": 0.291667
            },
            {
              "pitch": 48,
              "velocity": 74,
              "position": 12.0,
              "duration": 1.958333
            },
            {
              "pitch": 55,
              "velocity": 41,
              "position": 12.325,
              "duration": 0.316667
            },
            {
              "pitch": 59,
              "velocity": 41,
              "position": 12.358333,
              "duration": 0.125
            },
            {
              "pitch": 59,
              "velocity": 41,
              "position": 12.508333,
              "duration": 0.15
            },
            {
              "pitch": 55,
              "velocity": 51,
              "position": 12.65,
              "duration": 0.983333
            },
            {
              "pitch": 59,
              "velocity": 53,
              "position": 12.675,
              "duration": 0.633333
            },
            {
              "pitch": 64,
              "velocity": 41,
              "position": 12.691667,
              "duration": 0.283333
            },
            {
              "pitch": 64,
              "velocity": 61,
              "position": 13.008333,
              "duration": 0.95
            },
            {
              "pitch": 59,
              "velocity": 58,
              "position": 13.35,
              "duration": 0.608333
            },
            {
              "pitch": 55,
              "velocity": 54,
              "position": 13.666667,
              "duration": 0.291667
            },
            {
              "pitch": 48,
              "velocity": 70,
              "position": 14.0,
              "duration": 1.958333
            },
            {
              "pitch": 55,
              "velocity": 42,
              "position": 14.333333,
              "duration": 0.216667
            },
            {
              "pitch": 59,
              "velocity": 41,
              "position": 14.358333,
              "duration": 0.116667
            },
            {
              "pitch": 59,
              "velocity": 63,
              "position": 14.516667,
              "duration": 0.15
            },
            {
              "pitch": 55,
              "velocity": 49,
              "position": 14.641667,
              "duration": 1.0
            },
            {
              "pitch": 59,
              "velocity": 57,
              "position": 14.675,
              "duration": 0.641667
            },
            {
              "pitch": 64,
              "velocity": 82,
              "position": 15.008333,
              "duration": 0.95
            },
            {
              "pitch": 59,
              "velocity": 65,
              "position": 15.358333,
              "duration": 0.6
            },
            {
              "pitch": 55,
              "velocity": 48,
              "position": 15.675,
              "duration": 0.283333
            },
            {
              "pitch": 48,
              "velocity": 74,
              "position": 16.0,
              "duration": 1.983333
            },
            {
              "pitch": 55,
              "velocity": 41,
              "position": 16.325,
              "duration": 0.316667
            },
            {
              "pitch": 59,
              "velocity": 41,
              "position": 16.358333,
              "duration": 0.125
            },
            {
              "pitch": 59,
              "velocity": 41,
              "position": 16.508333,
              "duration": 0.15
            },
            {
              "pitch": 55,
              "velocity": 51,
              "position": 16.65,
              "duration": 0.983333
            },
            {
              "pitch": 59,
              "velocity": 53,
              "position": 16.675,
              "duration": 0.633333
            },
            {
              "pitch": 64,
              "velocity": 41,
              "position": 16.691667,
              "duration": 0.283333
            },
            {
              "pitch": 64,
              "velocity": 61,
              "position": 17.008333,
              "duration": 1.95
            },
            {
              "pitch": 59,
              "velocity": 58,
              "position": 17.35,
              "duration": 1.125
            },
            {
              "pitch": 55,
              "velocity": 54,
              "position": 17.666667,
              "duration": 0.658333
            },
            {
              "pitch": 48,
              "velocity": 62,
              "position": 17.991667,
              "duration": 1.983333
            },
            {
              "pitch": 55,
              "velocity": 47,
              "position": 18.341667,
              "duration": 0.291667
            },
            {
              "pitch": 59,
              "velocity": 60,
              "position": 18.508333,
              "duration": 0.158333
            },
            {
              "pitch": 55,
              "velocity": 51,
              "position": 18.65,
              "duration": 1.0
            },
            {
              "pitch": 59,
              "velocity": 43,
              "position": 18.683333,
              "duration": 0.616667
            },
            {
              "pitch": 64,
              "velocity": 76,
              "position": 19.0,
              "duration": 1.966667
            },
            {
              "pitch": 59,
              "velocity": 65,
              "position": 19.341667,
              "duration": 1.008333
            },
            {
              "pitch": 55,
              "velocity": 51,
              "position": 19.666667,
              "duration": 0.658333
            },
            {
              "pitch": 48,
              "velocity": 70,
              "position": 19.991667,
              "duration": 2.008333
            },
            {
              "pitch": 55,
              "velocity": 42,
              "position": 20.333333,
              "duration": 0.216667
            },
            {
              "pitch": 59,
              "velocity": 41,
              "position": 20.358333,
              "duration": 0.116667
            },
            {
              "pitch": 59,
              "velocity": 63,
              "position": 20.516667,
              "duration": 0.15
            },
            {
              "pitch": 55,
              "velocity": 49,
              "position": 20.641667,
              "duration": 1.0
            },
            {
              "pitch": 59,
              "velocity": 57,
              "position": 20.675,
              "duration": 0.641667
            },
            {
              "pitch": 64,
              "velocity": 82,
              "position": 21.008333,
              "duration": 1.975
            },
            {
              "pitch": 59,
              "velocity": 65,
              "position": 21.358333,
              "duration": 1.016667
            },
            {
              "pitch": 55,
              "velocity": 48,
              "position": 21.675,
              "duration": 0.658333
            },
            {
              "pitch": 48,
              "velocity": 72,
              "position": 22.0,
              "duration": 1.958333
            },
            {
              "pitch": 55,
              "velocity": 51,
              "position": 22.358333,
              "duration": 1.3
            },
            {
              "pitch": 59,
              "velocity": 41,
              "position": 22.383333,
              "duration": 0.1
            },
            {
              "pitch": 59,
              "velocity": 67,
              "position": 22.525,
              "duration": 0.15
            },
            {
              "pitch": 59,
              "velocity": 53,
              "position": 22.683333,
              "duration": 0.658333
            },
            {
              "pitch": 64,
              "velocity": 74,
              "position": 23.016667,
              "duration": 0.941667
            },
            {
              "pitch": 59,
              "velocity": 72,
              "position": 23.366667,
              "duration": 0.591667
            },
            {
              "pitch": 55,
              "velocity": 44,
              "position": 23.675,
              "duration": 0.283333
            }
          ]
        },
        "13": {
          "ctab": {
            "srcChannel": 13,
            "name": "Strings",
            "accType": "PAD",
            "editable": true,
            "mutedNotes": [],
            "mutedChords": [],
            "sourceChordNote": 0,
            "sourceChordType": "Maj7",
            "ctb2Main": {
              "ntr": "ROOT_FIXED",
              "ntt": "MELODY",
              "bassOn": false,
              "noteLowLimit": 36,
              "noteHighLimit": 96,
              "chordRootUpperLimit": 127,
              "rtr": "PITCH_SHIFT"
            }
          },
          "notes": [
            {
              "pitch": 74,
              "velocity": 50,
              "position": 8.008333,
              "duration": 1.95
            },
            {
              "pitch": 67,
              "velocity": 71,
              "position": 10.0,
              "duration": 1.958333
            },
            {
              "pitch": 71,
              "velocity": 67,
              "position": 10.0,
              "duration": 0.166667
            },
            {
              "pitch": 74,
              "velocity": 23,
              "position": 10.0,
              "duration": 1.958333
            },
            {
              "pitch": 76,
              "velocity": 39,
              "position": 10.008333,
              "duration": 1.95
            },
            {
              "pitch": 74,
              "velocity": 50,
              "position": 12.008333,
              "duration": 1.95
            },
            {
              "pitch": 71,
              "velocity": 46,
              "position": 14.025,
              "duration": 1.933333
            },
            {
              "pitch": 76,
              "velocity": 54,
              "position": 14.025,
              "duration": 1.933333
            },
            {
              "pitch": 71,
              "velocity": 46,
              "position": 16.025,
              "duration": 0.083333
            },
            {
              "pitch": 74,
              "velocity": 54,
              "position": 16.041667,
              "duration": 7.883333
            }
          ]
        }
      }
    },
    "Main_A": {
      "type": "Main_A",
      "sizeInBeats": 16,
      "channels": {
        "9": {
          "ctab": {
            "srcChannel": 9,
            "name": "Drums",
            "accType": "RHYTHM",
            "editable": false,
            "mutedNotes": [],
            "mutedChords": [],
            "sourceChordNote": 0,
            "sourceChordType": "Maj",
            "ctb2Main": {
              "ntr": "ROOT_FIXED",
              "ntt": "BYPASS",
              "bassOn": false,
              "noteLowLimit": 20,
              "noteHighLimit": 127,
              "chordRootUpperLimit": 127,
              "rtr": "RETRIGGER"
            }
          },
          "notes": [
            {
              "pitch": 35,
              "velocity": 85,
              "position": 0.0,
              "duration": 0.208333
            },
            {
              "pitch": 38,
              "velocity": 51,
              "position": 0.0,
              "duration": 0.208333
            },
            {
              "pitch": 57,
              "velocity": 92,
              "position": 0.0,
              "duration": 0.208333
            },
            {
              "pitch": 38,
              "velocity": 36,
              "position": 0.333333,
              "duration": 0.208333
            },
            {
              "pitch": 38,
              "velocity": 45,
              "position": 0.666667,
              "duration": 0.208333
            },
            {
              "pitch": 38,
              "velocity": 118,
              "position": 1.0,
              "duration": 0.208333
            },
            {
              "pitch": 44,
              "velocity": 127,
              "position": 1.0,
              "duration": 0.208333
            },
            {
              "pitch": 38,
              "velocity": 40,
              "position": 1.666667,
              "duration": 0.208333
            },
            {
              "pitch": 35,
              "velocity": 81,
              "position": 2.0,
              "duration": 0.208333
            },
            {
              "pitch": 38,
              "velocity": 42,
              "position": 2.0,
              "duration": 0.208333
            },
            {
              "pitch": 38,
              "velocity": 36,
              "position": 2.333333,
              "duration": 0.208333
            },
            {
              "pitch": 38,
              "velocity": 36,
              "position": 2.666667,
              "duration": 0.208333
            },
            {
              "pitch": 38,
              "velocity": 127,
              "position": 3.0,
              "duration": 0.208333
            },
            {
              "pitch": 44,
              "velocity": 127,
              "position": 3.0,
              "duration": 0.208333
            },
            {
              "pitch": 38,
              "velocity": 36,
              "position": 3.333333,
              "duration": 0.166667
            },
            {
              "pitch": 38,
              "velocity": 28,
              "position": 3.5,
              "duration": 0.041667
            },
            {
              "pitch": 38,
              "velocity": 117,
              "position": 3.666667,
              "duration": 0.041667
            },
            {
              "pitch": 35,
              "velocity": 79,
              "position": 4.0,
              "duration": 0.208333
            },
            {
              "pitch": 38,
              "velocity": 56,
              "position": 4.0,
              "duration": 0.208333
            },
            {
              "pitch": 38,
              "velocity": 36,
              "position": 4.333333,
              "duration": 0.208333
            },
            {
              "pitch": 38,
              "velocity": 44,
              "position": 4.666667,
              "duration": 0.208333
            },
            {
              "pitch": 38,
              "velocity": 127,
              "position": 5.0,
              "duration": 0.208333
            },
            {
              "pitch": 44,
              "velocity": 127,
              "position": 5.0,
              "duration": 0.208333
            },
            {
              "pitch": 35,
              "velocity": 49,
              "position": 5.666667,
              "duration": 0.208333
            },
            {
              "pitch": 38,
              "velocity": 36,
              "position": 5.666667,
              "duration": 0.208333
            },
            {
              "pitch": 35,
              "velocity": 75,
              "position": 6.0,
              "duration": 0.208333
            },
            {
              "pitch": 38,
              "velocity": 44,
              "position": 6.0,
              "duration": 0.208333
            },
            {
              "pitch": 38,
              "velocity": 36,
              "position": 6.333333,
              "duration": 0.208333
            },
            {
              "pitch": 38,
              "velocity": 51,
              "position": 6.666667,
              "duration": 0.208333
            },
            {
              "pitch": 38,
              "velocity": 119,
              "position": 7.0,
              "duration": 0.166667
            },
            {
              "pitch": 44,
              "velocity": 127,
              "position": 7.0,
              "duration": 0.208333
            },
            {
              "pitch": 38,
              "velocity": 95,
              "position": 7.166667,
              "duration": 0.041667
            },
            {
              "pitch": 38,
              "velocity": 38,
              "position": 7.333333,
              "duration": 0.041667
            },
            {
              "pitch": 38,
              "velocity": 30,
              "position": 7.5,
              "duration": 0.041667
            },
            {
              "pitch": 35,
              "velocity": 74,
              "position": 7.666667,
              "duration": 0.208333
            },
            {
              "pitch": 59,
              "velocity": 60,
              "position": 7.666667,
              "duration": 0.208333
            },
            {
              "pitch": 35,
              "velocity": 97,
              "position": 8.0,
              "duration": 0.208333
            },
            {
              "pitch": 51,
              "velocity": 68,
              "position": 8.0,
              "duration": 0.208333
            },
            {
              "pitch": 38,
              "velocity": 52,
              "position": 8.666667,
              "duration": 0.208333
            },
            {
              "pitch": 38,
              "velocity": 127,
              "position": 9.0,
              "duration": 0.208333
            },
            {
              "pitch": 44,
              "velocity": 127,
              "position": 9.0,
              "duration": 0.208333
            },
            {
              "pitch": 35,
              "velocity": 57,
              "position": 9.666667,
              "duration": 0.208333
            },
            {
              "pitch": 38,
              "velocity": 35,
              "position": 9.666667,
              "duration": 0.208333
            },
            {
              "pitch": 35,
              "velocity": 80,
              "position": 10.0,
              "duration": 0.208333
            },
            {
              "pitch": 38,
              "velocity": 44,
              "position": 10.0,
              "duration": 0.208333
            },
            {
              "pitch": 38,
              "velocity": 42,
              "position": 10.666667,
              "duration": 0.208333
            },
            {
              "pitch": 38,
              "velocity": 122,
              "position": 11.0,
              "duration": 0.208333
            },
            {
              "pitch": 44,
              "velocity": 127,
              "position": 11.0,
              "duration": 0.208333
            },
            {
              "pitch": 38,
              "velocity": 44,
              "position": 11.666667,
              "duration": 0.208333
            },
            {
              "pitch": 35,
              "velocity": 86,
              "position": 12.0,
              "duration": 0.208333
            },
            {
              "pitch": 38,
              "velocity": 50,
              "position": 12.0,
              "duration": 0.208333
            },
            {
              "pitch": 38,
              "velocity": 49,
              "position": 12.666667,
              "duration": 0.208333
            },
            {
              "pitch": 38,
              "velocity": 127,
              "position": 13.0,
              "duration": 0.208333
            },
            {
              "pitch": 44,
              "velocity": 127,
              "position": 13.0,
              "duration": 0.208333
            },
            {
              "pitch": 38,
              "velocity": 36,
              "position": 13.666667,
              "duration": 0.208333
            },
            {
              "pitch": 35,
              "velocity": 76,
              "position": 14.0,
              "duration": 0.208333
            },
            {
              "pitch": 38,
              "velocity": 49,
              "position": 14.0,
              "duration": 0.208333
            },
            {
              "pitch": 38,
              "velocity": 49,
              "position": 14.333333,
              "duration": 0.208333
            },
            {
              "pitch": 48,
              "velocity": 48,
              "position": 14.333333,
              "duration": 0.208333
            },
            {
              "pitch": 38,
              "velocity": 44,
              "position": 14.666667,
              "duration": 0.208333
            },
            {
              "pitch": 38,
              "velocity": 46,
              "position": 15.0,
              "duration": 0.208333
            },
            {
              "pitch": 44,
              "velocity": 127,
              "position": 15.0,
              "duration": 0.208333
            },
            {
              "pitch": 47,
              "velocity": 85,
              "position": 15.0,
              "duration": 0.208333
            },
            {
              "pitch": 38,
              "velocity": 95,
              "position": 15.666667,
              "duration": 0.208333
            },
            {
              "pitch": 45,
              "velocity": 85,
              "position": 15.666667,
              "duration": 0.208333
            }
          ]
        },
        "10": {
          "ctab": {
            "srcChannel": 10,
            "name": "Bass",
            "accType": "BASS",
            "editable": true,
            "mutedNotes": [],
            "mutedChords": [],
            "sourceChordNote": 0,
            "sourceChordType": "Maj7",
            "ctb2Main": {
              "ntr": "ROOT_TRANSPOSITION",
              "ntt": "BYPASS",
              "bassOn": true,
              "noteLowLimit": 20,
              "noteHighLimit": 60,
              "chordRootUpperLimit": 127,
              "rtr": "NOTE_GENERATOR"
            }
          },
          "notes": [
            {
              "pitch": 36,
              "velocity": 94,
              "position": 0.0,
              "duration": 1.066667
            },
            {
              "pitch": 33,
              "velocity": 85,
              "position": 1.333333,
              "duration": 0.141667
            },
            {
              "pitch": 38,
              "velocity": 84,
              "position": 1.666667,
              "duration": 0.1
            },
            {
              "pitch": 36,
              "velocity": 92,
              "position": 2.0,
              "duration": 1.333333
            },
            {
              "pitch": 36,
              "velocity": 83,
              "position": 3.333333,
              "duration": 0.15
            },
            {
              "pitch": 43,
              "velocity": 64,
              "position": 3.666667,
              "duration": 0.133333
            },
            {
              "pitch": 36,
              "velocity": 90,
              "position": 4.0,
              "duration": 1.575
            },
            {
              "pitch": 36,
              "velocity": 83,
              "position": 5.666667,
              "duration": 0.158333
            },
            {
              "pitch": 36,
              "velocity": 91,
              "position": 6.0,
              "duration": 1.283333
            },
            {
              "pitch": 36,
              "velocity": 77,
              "position": 7.333333,
              "duration": 0.15
            },
            {
              "pitch": 43,
              "velocity": 81,
              "position": 7.666667,
              "duration": 0.2
            },
            {
              "pitch": 36,
              "velocity": 91,
              "position": 8.0,
              "duration": 1.4
            },
            {
              "pitch": 31,
              "velocity": 68,
              "position": 9.666667,
              "duration": 0.125
            },
            {
              "pitch": 36,
              "velocity": 49,
              "position": 10.0,
              "duration": 0.033333
            },
            {
              "pitch": 36,
              "velocity": 82,
              "position": 10.033333,
              "duration": 1.633333
            },
            {
              "pitch": 43,
              "velocity": 89,
              "position": 11.666667,
              "duration": 0.116667
            },
            {
              "pitch": 36,
              "velocity": 90,
              "position": 12.0,
              "duration": 1.466667
            },
            {
              "pitch": 31,
              "velocity": 75,
              "position": 13.666667,
              "duration": 0.108333
            },
            {
              "pitch": 36,
              "velocity": 89,
              "position": 14.0,
              "duration": 1.45
            },
            {
              "pitch": 31,
              "velocity": 76,
              "position": 15.666667,
              "duration": 0.15
            }
          ]
        },
        "11": {
          "ctab": {
            "srcChannel": 11,
            "name": "Piano",
            "accType": "CHORD1",
            "editable": true,
            "mutedNotes": [],
            "mutedChords": [],
            "sourceChordNote": 0,
            "sourceChordType": "Maj7",
            "ctb2Main": {
              "ntr": "ROOT_FIXED",
              "ntt": "CHORD",
              "bassOn": false,
              "noteLowLimit": 48,
              "noteHighLimit": 84,
              "chordRootUpperLimit": 127,
              "rtr": "NOTE_GENERATOR"
            }
          },
          "notes": [
            {
              "pitch": 36,
              "velocity": 72,
              "position": 0.016667,
              "duration": 1.691667
            },
            {
              "pitch": 48,
              "velocity": 76,
              "position": 0.016667,
              "duration": 1.408333
            },
            {
              "pitch": 55,
              "velocity": 76,
              "position": 0.016667,
              "duration": 1.041667
            },
            {
              "pitch": 59,
              "velocity": 82,
              "position": 0.016667,
              "duration": 0.883333
            },
            {
              "pitch": 60,
              "velocity": 72,
              "position": 0.016667,
              "duration": 0.941667
            },
            {
              "pitch": 64,
              "velocity": 72,
              "position": 0.016667,
              "duration": 0.925
            },
            {
              "pitch": 59,
              "velocity": 90,
              "position": 1.041667,
              "duration": 0.608333
            },
            {
              "pitch": 64,
              "velocity": 76,
              "position": 1.041667,
              "duration": 0.608333
            },
            {
              "pitch": 60,
              "velocity": 80,
              "position": 1.05,
              "duration": 0.583333
            },
            {
              "pitch": 48,
              "velocity": 48,
              "position": 1.7,
              "duration": 0.258333
            },
            {
              "pitch": 55,
              "velocity": 45,
              "position": 1.708333,
              "duration": 0.258333
            },
            {
              "pitch": 36,
              "velocity": 66,
              "position": 2.016667,
              "duration": 1.441667
            },
            {
              "pitch": 59,
              "velocity": 87,
              "position": 2.016667,
              "duration": 0.866667
            },
            {
              "pitch": 64,
              "velocity": 76,
              "position": 2.016667,
              "duration": 0.841667
            },
            {
              "pitch": 48,
              "velocity": 64,
              "position": 2.025,
              "duration": 1.15
            },
            {
              "pitch": 64,
              "velocity": 82,
              "position": 3.016667,
              "duration": 0.125
            },
            {
              "pitch": 59,
              "velocity": 90,
              "position": 3.025,
              "duration": 0.1
            },
            {
              "pitch": 55,
              "velocity": 42,
              "position": 3.658333,
              "duration": 0.3
            },
            {
              "pitch": 48,
              "velocity": 49,
              "position": 3.675,
              "duration": 0.283333
            },
            {
              "pitch": 36,
              "velocity": 70,
              "position": 4.0,
              "duration": 1.783333
            },
            {
              "pitch": 59,
              "velocity": 88,
              "position": 4.0,
              "duration": 0.708333
            },
            {
              "pitch": 48,
              "velocity": 74,
              "position": 4.008333,
              "duration": 0.625
            },
            {
              "pitch": 64,
              "velocity": 80,
              "position": 4.008333,
              "duration": 0.808333
            },
            {
              "pitch": 59,
              "velocity": 86,
              "position": 4.991667,
              "duration": 0.191667
            },
            {
              "pitch": 64,
              "velocity": 68,
              "position": 5.008333,
              "duration": 0.166667
            },
            {
              "pitch": 48,
              "velocity": 38,
              "position": 5.683333,
              "duration": 0.275
            },
            {
              "pitch": 36,
              "velocity": 66,
              "position": 6.016667,
              "duration": 1.441667
            },
            {
              "pitch": 59,
              "velocity": 87,
              "position": 6.016667,
              "duration": 0.866667
            },
            {
              "pitch": 64,
              "velocity": 76,
              "position": 6.016667,
              "duration": 0.841667
            },
            {
              "pitch": 48,
              "velocity": 64,
              "position": 6.025,
              "duration": 1.15
            },
            {
              "pitch": 64,
              "velocity": 82,
              "position": 7.016667,
              "duration": 0.125
            },
            {
              "pitch": 59,
              "velocity": 90,
              "position": 7.025,
              "duration": 0.1
            },
            {
              "pitch": 55,
              "velocity": 42,
              "position": 7.658333,
              "duration": 0.3
            },
            {
              "pitch": 48,
              "velocity": 49,
              "position": 7.675,
              "duration": 0.283333
            },
            {
              "pitch": 36,
              "velocity": 76,
              "position": 8.0,
              "duration": 1.716667
            },
            {
              "pitch": 48,
              "velocity": 80,
              "position": 8.0,
              "duration": 0.508333
            },
            {
              "pitch": 60,
              "velocity": 84,
              "position": 8.0,
              "duration": 0.2
            },
            {
              "pitch": 74,
              "velocity": 84,
              "position": 8.0,
              "duration": 0.191667
            },
            {
              "pitch": 74,
              "velocity": 41,
              "position": 8.3,
              "duration": 0.441667
            },
            {
              "pitch": 60,
              "velocity": 48,
              "position": 8.316667,
              "duration": 0.425
            },
            {
              "pitch": 48,
              "velocity": 21,
              "position": 8.6,
              "duration": 0.516667
            },
            {
              "pitch": 60,
              "velocity": 88,
              "position": 8.975,
              "duration": 0.333333
            },
            {
              "pitch": 74,
              "velocity": 82,
              "position": 8.983333,
              "duration": 0.275
            },
            {
              "pitch": 48,
              "velocity": 43,
              "position": 9.666667,
              "duration": 0.75
            },
            {
              "pitch": 60,
              "velocity": 25,
              "position": 9.675,
              "duration": 0.266667
            },
            {
              "pitch": 36,
              "velocity": 78,
              "position": 10.016667,
              "duration": 1.275
            },
            {
              "pitch": 60,
              "velocity": 87,
              "position": 10.025,
              "duration": 0.7
            },
            {
              "pitch": 74,
              "velocity": 87,
              "position": 10.025,
              "duration": 0.683333
            },
            {
              "pitch": 48,
              "velocity": 66,
              "position": 10.7,
              "duration": 0.458333
            },
            {
              "pitch": 60,
              "velocity": 88,
              "position": 11.033333,
              "duration": 0.225
            },
            {
              "pitch": 74,
              "velocity": 88,
              "position": 11.041667,
              "duration": 0.25
            },
            {
              "pitch": 48,
              "velocity": 72,
              "position": 11.691667,
              "duration": 1.441667
            },
            {
              "pitch": 36,
              "velocity": 87,
              "position": 12.008333,
              "duration": 1.383333
            },
            {
              "pitch": 59,
              "velocity": 91,
              "position": 12.016667,
              "duration": 0.783333
            },
            {
              "pitch": 67,
              "velocity": 88,
              "position": 12.025,
              "duration": 0.741667
            },
            {
              "pitch": 64,
              "velocity": 72,
              "position": 12.033333,
              "duration": 0.691667
            },
            {
              "pitch": 59,
              "velocity": 93,
              "position": 13.016667,
              "duration": 0.35
            },
            {
              "pitch": 64,
              "velocity": 87,
              "position": 13.025,
              "duration": 0.35
            },
            {
              "pitch": 67,
              "velocity": 89,
              "position": 13.025,
              "duration": 0.366667
            },
            {
              "pitch": 48,
              "velocity": 78,
              "position": 13.675,
              "duration": 1.791667
            },
            {
              "pitch": 36,
              "velocity": 70,
              "position": 14.0,
              "duration": 1.5
            },
            {
              "pitch": 59,
              "velocity": 91,
              "position": 14.016667,
              "duration": 1.316667
            },
            {
              "pitch": 71,
              "velocity": 70,
              "position": 14.016667,
              "duration": 1.425
            },
            {
              "pitch": 64,
              "velocity": 62,
              "position": 14.025,
              "duration": 1.416667
            },
            {
              "pitch": 67,
              "velocity": 80,
              "position": 14.025,
              "duration": 1.383333
            }
          ]
        },
        "12": {
          "ctab": {
            "srcChannel": 12,
            "name": "Guitar",
            "accType": "CHORD2",
            "editable": true,
            "mutedNotes": [],
            "mutedChords": [],
            "sourceChordNote": 0,
            "sourceChordType": "Maj7",
            "ctb2Main": {
              "ntr": "ROOT_FIXED",
              "ntt": "CHORD",
              "bassOn": false,
              "noteLowLimit": 40,
              "noteHighLimit": 76,
              "chordRootUpperLimit": 127,
              "rtr": "NOTE_GENERATOR"
            }
          },
          "notes": [
            {
              "pitch": 48,
              "velocity": 67,
              "position": 0.008333,
              "duration": 1.95
            },
            {
              "pitch": 55,
              "velocity": 61,
              "position": 0.333333,
              "duration": 1.358333
            },
            {
              "pitch": 59,
              "velocity": 60,
              "position": 0.666667,
              "duration": 1.291667
            },
            {
              "pitch": 64,
              "velocity": 43,
              "position": 0.7,
              "duration": 0.283333
            },
            {
              "pitch": 64,
              "velocity": 68,
              "position": 1.008333,
              "duration": 0.95
            },
            {
              "pitch": 67,
              "velocity": 61,
              "position": 1.033333,
              "duration": 0.333333
            },
            {
              "pitch": 55,
              "velocity": 59,
              "position": 1.7,
              "duration": 0.258333
            },
            {
              "pitch": 48,
              "velocity": 62,
              "position": 2.0,
              "duration": 1.958333
            },
            {
              "pitch": 55,
              "velocity": 46,
              "position": 2.325,
              "duration": 1.633333
            },
            {
              "pitch": 59,
              "velocity": 42,
              "position": 2.5,
              "duration": 1.141667
            },
            {
              "pitch": 64,
              "velocity": 41,
              "position": 2.666667,
              "duration": 0.608333
            },
            {
              "pitch": 67,
              "velocity": 69,
              "position": 3.008333,
              "duration": 0.95
            },
            {
              "pitch": 64,
              "velocity": 53,
              "position": 3.35,
              "duration": 0.608333
            },
            {
              "pitch": 59,
              "velocity": 61,
              "position": 3.658333,
              "duration": 0.3
            },
            {
              "pitch": 48,
              "velocity": 67,
              "position": 4.008333,
              "duration": 1.95
            },
            {
              "pitch": 55,
              "velocity": 61,
              "position": 4.333333,
              "duration": 1.358333
            },
            {
              "pitch": 59,
              "velocity": 60,
              "position": 4.666667,
              "duration": 1.291667
            },
            {
              "pitch": 64,
              "velocity": 43,
              "position": 4.7,
              "duration": 0.283333
            },
            {
              "pitch": 64,
              "velocity": 68,
              "position": 5.008333,
              "duration": 0.95
            },
            {
              "pitch": 67,
              "velocity": 61,
              "position": 5.033333,
              "duration": 0.333333
            },
            {
              "pitch": 55,
              "velocity": 59,
              "position": 5.7,
              "duration": 0.258333
            },
            {
              "pitch": 48,
              "velocity": 62,
              "position": 6.0,
              "duration": 1.958333
            },
            {
              "pitch": 55,
              "velocity": 46,
              "position": 6.325,
              "duration": 1.633333
            },
            {
              "pitch": 59,
              "velocity": 42,
              "position": 6.5,
              "duration": 1.141667
            },
            {
              "pitch": 64,
              "velocity": 41,
              "position": 6.666667,
              "duration": 0.608333
            },
            {
              "pitch": 67,
              "velocity": 69,
              "position": 7.008333,
              "duration": 0.95
            },
            {
              "pitch": 64,
              "velocity": 53,
              "position": 7.35,
              "duration": 0.608333
            },
            {
              "pitch": 59,
              "velocity": 61,
              "position": 7.658333,
              "duration": 0.3
            },
            {
              "pitch": 48,
              "velocity": 62,
              "position": 8.0,
              "duration": 2.0
            },
            {
              "pitch": 55,
              "velocity": 46,
              "position": 8.325,
              "duration": 1.991667
            },
            {
              "pitch": 59,
              "velocity": 42,
              "position": 8.5,
              "duration": 1.141667
            },
            {
              "pitch": 64,
              "velocity": 41,
              "position": 8.666667,
              "duration": 0.608333
            },
            {
              "pitch": 67,
              "velocity": 69,
              "position": 9.008333,
              "duration": 1.933333
            },
            {
              "pitch": 64,
              "velocity": 53,
              "position": 9.35,
              "duration": 1.308333
            },
            {
              "pitch": 59,
              "velocity": 61,
              "position": 9.658333,
              "duration": 0.841667
            },
            {
              "pitch": 48,
              "velocity": 61,
              "position": 10.008333,
              "duration": 1.991667
            },
            {
              "pitch": 55,
              "velocity": 52,
              "position": 10.333333,
              "duration": 1.983333
            },
            {
              "pitch": 59,
              "velocity": 41,
              "position": 10.508333,
              "duration": 1.141667
            },
            {
              "pitch": 64,
              "velocity": 51,
              "position": 10.675,
              "duration": 0.625
            },
            {
              "pitch": 67,
              "velocity": 82,
              "position": 10.991667,
              "duration": 2.033333
            },
            {
              "pitch": 64,
              "velocity": 59,
              "position": 11.325,
              "duration": 1.366667
            },
            {
              "pitch": 59,
              "velocity": 67,
              "position": 11.658333,
              "duration": 1.0
            },
            {
              "pitch": 48,
              "velocity": 67,
              "position": 12.008333,
              "duration": 3.55
            },
            {
              "pitch": 55,
              "velocity": 61,
              "position": 12.333333,
              "duration": 1.358333
            },
            {
              "pitch": 59,
              "velocity": 60,
              "position": 12.666667,
              "duration": 1.366667
            },
            {
              "pitch": 64,
              "velocity": 43,
              "position": 12.7,
              "duration": 0.283333
            },
            {
              "pitch": 64,
              "velocity": 68,
              "position": 13.008333,
              "duration": 1.041667
            },
            {
              "pitch": 67,
              "velocity": 61,
              "position": 13.033333,
              "duration": 0.333333
            },
            {
              "pitch": 55,
              "velocity": 59,
              "position": 13.7,
              "duration": 2.258333
            },
            {
              "pitch": 59,
              "velocity": 63,
              "position": 14.041667,
              "duration": 0.641667
            },
            {
              "pitch": 64,
              "velocity": 52,
              "position": 14.058333,
              "duration": 0.641667
            },
            {
              "pitch": 59,
              "velocity": 70,
              "position": 14.691667,
              "duration": 0.316667
            },
            {
              "pitch": 64,
              "velocity": 55,
              "position": 14.708333,
              "duration": 0.316667
            },
            {
              "pitch": 67,
              "velocity": 41,
              "position": 14.725,
              "duration": 0.325
            },
            {
              "pitch": 59,
              "velocity": 67,
              "position": 15.016667,
              "duration": 0.316667
            },
            {
              "pitch": 64,
              "velocity": 65,
              "position": 15.041667,
              "duration": 0.316667
            },
            {
              "pitch": 67,
              "velocity": 43,
              "position": 15.058333,
              "duration": 0.308333
            },
            {
              "pitch": 59,
              "velocity": 76,
              "position": 15.341667,
              "duration": 0.316667
            },
            {
              "pitch": 64,
              "velocity": 68,
              "position": 15.366667,
              "duration": 0.308333
            },
            {
              "pitch": 59,
              "velocity": 67,
              "position": 15.666667,
              "duration": 0.291667
            },
            {
              "pitch": 64,
              "velocity": 72,
              "position": 15.683333,
              "duration": 0.275
            },
            {
              "pitch": 67,
              "velocity": 67,
              "position": 15.691667,
              "duration": 0.266667
            }
          ]
        },
        "13": {
          "ctab": {
            "srcChannel": 13,
            "name": "Strings",
            "accType": "PAD",
            "editable": true,
            "mutedNotes": [],
            "mutedChords": [],
            "sourceChordNote": 0,
            "sourceChordType": "Maj7",
            "ctb2Main": {
              "ntr": "ROOT_FIXED",
              "ntt": "MELODY",
              "bassOn": false,
              "noteLowLimit": 36,
              "noteHighLimit": 96,
              "chordRootUpperLimit": 127,
              "rtr": "PITCH_SHIFT"
            }
          },
          "notes": [
            {
              "pitch": 71,
              "velocity": 52,
              "position": 0.0,
              "duration": 1.941667
            },
            {
              "pitch": 67,
              "velocity": 50,
              "position": 0.008333,
              "duration": 1.941667
            },
            {
              "pitch": 74,
              "velocity": 42,
              "position": 0.008333,
              "duration": 1.925
            },
            {
              "pitch": 76,
              "velocity": 57,
              "position": 0.008333,
              "duration": 1.925
            },
            {
              "pitch": 71,
              "velocity": 52,
              "position": 2.008333,
              "duration": 1.95
            },
            {
              "pitch": 76,
              "velocity": 62,
              "position": 2.016667,
              "duration": 1.941667
            },
            {
              "pitch": 67,
              "velocity": 38,
              "position": 2.025,
              "duration": 1.933333
            },
            {
              "pitch": 74,
              "velocity": 48,
              "position": 4.008333,
              "duration": 0.925
            },
            {
              "pitch": 71,
              "velocity": 68,
              "position": 4.016667,
              "duration": 1.458333
            },
            {
              "pitch": 79,
              "velocity": 66,
              "position": 4.016667,
              "duration": 0.883333
            },
            {
              "pitch": 76,
              "velocity": 62,
              "position": 4.025,
              "duration": 1.925
            },
            {
              "pitch": 79,
              "velocity": 66,
              "position": 4.975,
              "duration": 0.725
            },
            {
              "pitch": 74,
              "velocity": 3,
              "position": 4.983333,
              "duration": 0.933333
            },
            {
              "pitch": 71,
              "velocity": 42,
              "position": 5.65,
              "duration": 0.308333
            },
            {
              "pitch": 71,
              "velocity": 54,
              "position": 6.0,
              "duration": 0.925
            },
            {
              "pitch": 76,
              "velocity": 57,
              "position": 6.0,
              "duration": 0.908333
            },
            {
              "pitch": 74,
              "velocity": 44,
              "position": 6.008333,
              "duration": 0.916667
            },
            {
              "pitch": 71,
              "velocity": 46,
              "position": 6.991667,
              "duration": 0.7
            },
            {
              "pitch": 76,
              "velocity": 55,
              "position": 6.991667,
              "duration": 0.625
            },
            {
              "pitch": 74,
              "velocity": 50,
              "position": 7.0,
              "duration": 0.65
            },
            {
              "pitch": 67,
              "velocity": 44,
              "position": 7.658333,
              "duration": 0.3
            },
            {
              "pitch": 71,
              "velocity": 63,
              "position": 8.0,
              "duration": 0.925
            },
            {
              "pitch": 76,
              "velocity": 66,
              "position": 8.0,
              "duration": 0.908333
            },
            {
              "pitch": 74,
              "velocity": 53,
              "position": 8.008333,
              "duration": 0.916667
            },
            {
              "pitch": 71,
              "velocity": 55,
              "position": 8.991667,
              "duration": 0.7
            },
            {
              "pitch": 76,
              "velocity": 64,
              "position": 8.991667,
              "duration": 0.625
            },
            {
              "pitch": 74,
              "velocity": 59,
              "position": 9.0,
              "duration": 0.65
            },
            {
              "pitch": 67,
              "velocity": 53,
              "position": 9.658333,
              "duration": 0.366667
            },
            {
              "pitch": 71,
              "velocity": 49,
              "position": 10.016667,
              "duration": 0.958333
            },
            {
              "pitch": 76,
              "velocity": 61,
              "position": 10.016667,
              "duration": 0.833333
            },
            {
              "pitch": 74,
              "velocity": 35,
              "position": 10.025,
              "duration": 0.825
            },
            {
              "pitch": 76,
              "velocity": 68,
              "position": 11.041667,
              "duration": 0.158333
            },
            {
              "pitch": 67,
              "velocity": 68,
              "position": 11.05,
              "duration": 0.225
            },
            {
              "pitch": 71,
              "velocity": 66,
              "position": 11.05,
              "duration": 0.241667
            },
            {
              "pitch": 74,
              "velocity": 64,
              "position": 11.05,
              "duration": 0.225
            },
            {
              "pitch": 69,
              "velocity": 27,
              "position": 11.308333,
              "duration": 0.025
            },
            {
              "pitch": 65,
              "velocity": 59,
              "position": 11.333333,
              "duration": 0.058333
            },
            {
              "pitch": 64,
              "velocity": 49,
              "position": 11.35,
              "duration": 0.058333
            },
            {
              "pitch": 62,
              "velocity": 43,
              "position": 11.375,
              "duration": 0.05
            },
            {
              "pitch": 60,
              "velocity": 55,
              "position": 11.391667,
              "duration": 0.058333
            },
            {
              "pitch": 59,
              "velocity": 63,
              "position": 11.416667,
              "duration": 0.05
            },
            {
              "pitch": 57,
              "velocity": 64,
              "position": 11.433333,
              "duration": 0.05
            },
            {
              "pitch": 55,
              "velocity": 59,
              "position": 11.45,
              "duration": 0.05
            },
            {
              "pitch": 53,
              "velocity": 59,
              "position": 11.466667,
              "duration": 0.075
            },
            {
              "pitch": 52,
              "velocity": 49,
              "position": 11.5,
              "duration": 0.066667
            },
            {
              "pitch": 38,
              "velocity": 51,
              "position": 11.516667,
              "duration": 0.025
            },
            {
              "pitch": 45,
              "velocity": 41,
              "position": 11.525,
              "duration": 0.05
            },
            {
              "pitch": 50,
              "velocity": 55,
              "position": 11.525,
              "duration": 0.058333
            },
            {
              "pitch": 35,
              "velocity": 53,
              "position": 11.55,
              "duration": 0.05
            },
            {
              "pitch": 36,
              "velocity": 24,
              "position": 11.566667,
              "duration": 0.066667
            },
            {
              "pitch": 38,
              "velocity": 39,
              "position": 11.583333,
              "duration": 0.075
            },
            {
              "pitch": 40,
              "velocity": 45,
              "position": 11.616667,
              "duration": 0.066667
            },
            {
              "pitch": 41,
              "velocity": 55,
              "position": 11.641667,
              "duration": 0.058333
            },
            {
              "pitch": 43,
              "velocity": 61,
              "position": 11.666667,
              "duration": 0.05
            },
            {
              "pitch": 45,
              "velocity": 55,
              "position": 11.683333,
              "duration": 0.058333
            },
            {
              "pitch": 47,
              "velocity": 63,
              "position": 11.708333,
              "duration": 0.05
            },
            {
              "pitch": 48,
              "velocity": 37,
              "position": 11.733333,
              "duration": 0.058333
            },
            {
              "pitch": 50,
              "velocity": 64,
              "position": 11.75,
              "duration": 0.058333
            },
            {
              "pitch": 52,
              "velocity": 66,
              "position": 11.766667,
              "duration": 0.05
            },
            {
              "pitch": 53,
              "velocity": 57,
              "position": 11.791667,
              "duration": 0.058333
            },
            {
              "pitch": 55,
              "velocity": 51,
              "position": 11.816667,
              "duration": 0.058333
            },
            {
              "pitch": 57,
              "velocity": 39,
              "position": 11.833333,
              "duration": 0.066667
            },
            {
              "pitch": 59,
              "velocity": 61,
              "position": 11.858333,
              "duration": 0.066667
            },
            {
              "pitch": 60,
              "velocity": 43,
              "position": 11.883333,
              "duration": 0.083333
            },
            {
              "pitch": 62,
              "velocity": 28,
              "position": 11.916667,
              "duration": 0.075
            },
            {
              "pitch": 64,
              "velocity": 18,
              "position": 11.941667,
              "duration": 0.083333
            },
            {
              "pitch": 65,
              "velocity": 28,
              "position": 11.966667,
              "duration": 0.066667
            },
            {
              "pitch": 83,
              "velocity": 68,
              "position": 12.016667,
              "duration": 3.583333
            },
            {
              "pitch": 74,
              "velocity": 59,
              "position": 12.025,
              "duration": 3.508333
            },
            {
              "pitch": 76,
              "velocity": 66,
              "position": 12.025,
              "duration": 3.525
            },
            {
              "pitch": 79,
              "velocity": 64,
              "position": 12.025,
              "duration": 3.516667
            }
          ]
        }
      }
    },
    "Main_B": {
      "type": "Main_B",
      "sizeInBeats": 16,
      "channels": {
        "9": {
          "ctab": {
            "srcChannel": 9,
            "name": "Drums",
            "accType": "RHYTHM",
            "editable": false,
            "mutedNotes": [],
            "mutedChords": [],
            "sourceChordNote": 0,
            "sourceChordType": "Maj",
            "ctb2Main": {
              "ntr": "ROOT_FIXED",
              "ntt": "BYPASS",
              "bassOn": false,
              "noteLowLimit": 20,
              "noteHighLimit": 127,
              "chordRootUpperLimit": 127,
              "rtr": "RETRIGGER"
            }
          },
          "notes": [
            {
              "pitch": 35,
              "velocity": 96,
              "position": 0.0,
              "duration": 0.208333
            },
            {
              "pitch": 57,
              "velocity": 90,
              "position": 0.0,
              "duration": 0.208333
            },
            {
              "pitch": 38,
              "velocity": 36,
              "position": 0.666667,
              "duration": 0.208333
            },
            {
              "pitch": 38,
              "velocity": 127,
              "position": 1.0,
              "duration": 0.208333
            },
            {
              "pitch": 44,
              "velocity": 127,
              "position": 1.0,
              "duration": 0.208333
            },
            {
              "pitch": 35,
              "velocity": 44,
              "position": 1.666667,
              "duration": 0.208333
            },
            {
              "pitch": 38,
              "velocity": 40,
              "position": 1.666667,
              "duration": 0.208333
            },
            {
              "pitch": 35,
              "velocity": 75,
              "position": 2.0,
              "duration": 0.208333
            },
            {
              "pitch": 38,
              "velocity": 50,
              "position": 2.0,
              "duration": 0.208333
            },
            {
              "pitch": 38,
              "velocity": 36,
              "position": 2.666667,
              "duration": 0.208333
            },
            {
              "pitch": 38,
              "velocity": 127,
              "position": 3.0,
              "duration": 0.208333
            },
            {
              "pitch": 44,
              "velocity": 127,
              "position": 3.0,
              "duration": 0.208333
            },
            {
              "pitch": 35,
              "velocity": 97,
              "position": 4.0,
              "duration": 0.208333
            },
            {
              "pitch": 59,
              "velocity": 72,
              "position": 4.0,
              "duration": 0.208333
            },
            {
              "pitch": 38,
              "velocity": 42,
              "position": 4.333333,
              "duration": 0.208333
            },
            {
              "pitch": 38,
              "velocity": 127,
              "position": 5.0,
              "duration": 0.208333
            },
            {
              "pitch": 44,
              "velocity": 127,
              "position": 5.0,
              "duration": 0.208333
            },
            {
              "pitch": 35,
              "velocity": 59,
              "position": 5.666667,
              "duration": 0.208333
            },
            {
              "pitch": 38,
              "velocity": 48,
              "position": 5.666667,
              "duration": 0.208333
            },
            {
              "pitch": 35,
              "velocity": 81,
              "position": 6.0,
              "duration": 0.208333
            },
            {
              "pitch": 38,
              "velocity": 46,
              "position": 6.0,
              "duration": 0.208333
            },
            {
              "pitch": 38,
              "velocity": 35,
              "position": 6.333333,
              "duration": 0.166667
            },
            {
              "pitch": 38,
              "velocity": 28,
              "position": 6.5,
              "duration": 0.041667
            },
            {
              "pitch": 38,
              "velocity": 127,
              "position": 7.0,
              "duration": 0.208333
            },
            {
              "pitch": 44,
              "velocity": 127,
              "position": 7.0,
              "duration": 0.208333
            },
            {
              "pitch": 35,
              "velocity": 59,
              "position": 7.666667,
              "duration": 0.208333
            },
            {
              "pitch": 38,
              "velocity": 39,
              "position": 7.666667,
              "duration": 0.208333
            },
            {
              "pitch": 35,
              "velocity": 85,
              "position": 8.0,
              "duration": 0.208333
            },
            {
              "pitch": 38,
              "velocity": 51,
              "position": 8.0,
              "duration": 0.208333
            },
            {
              "pitch": 38,
              "velocity": 36,
              "position": 8.333333,
              "duration": 0.208333
            },
            {
              "pitch": 38,
              "velocity": 45,
              "position": 8.666667,
              "duration": 0.208333
            },
            {
              "pitch": 38,
              "velocity": 118,
              "position": 9.0,
              "duration": 0.208333
            },
            {
              "pitch": 44,
              "velocity": 127,
              "position": 9.0,
              "duration": 0.208333
            },
            {
              "pitch": 38,
              "velocity": 40,
              "position": 9.666667,
              "duration": 0.208333
            },
            {
              "pitch": 35,
              "velocity": 81,
              "position": 10.0,
              "duration": 0.208333
            },
            {
              "pitch": 38,
              "velocity": 42,
              "position": 10.0,
              "duration": 0.208333
            },
            {
              "pitch": 38,
              "velocity": 36,
              "position": 10.333333,
              "duration": 0.208333
            },
            {
              "pitch": 38,
              "velocity": 36,
              "position": 10.666667,
              "duration": 0.208333
            },
            {
              "pitch": 38,
              "velocity": 127,
              "position": 11.0,
              "duration": 0.208333
            },
            {
              "pitch": 44,
              "velocity": 127,
              "position": 11.0,
              "duration": 0.208333
            },
            {
              "pitch": 38,
              "velocity": 36,
              "position": 11.333333,
              "duration": 0.166667
            },
            {
              "pitch": 38,
              "velocity": 28,
              "position": 11.5,
              "duration": 0.041667
            },
            {
              "pitch": 38,
              "velocity": 117,
              "position": 11.666667,
              "duration": 0.041667
            },
            {
              "pitch": 35,
              "velocity": 91,
              "position": 12.0,
              "duration": 0.208333
            },
            {
              "pitch": 51,
              "velocity": 98,
              "position": 12.0,
              "duration": 0.208333
            },
            {
              "pitch": 38,
              "velocity": 36,
              "position": 12.333333,
              "duration": 0.208333
            },
            {
              "pitch": 38,
              "velocity": 46,
              "position": 12.666667,
              "duration": 0.208333
            },
            {
              "pitch": 38,
              "velocity": 127,
              "position": 13.0,
              "duration": 0.208333
            },
            {
              "pitch": 44,
              "velocity": 127,
              "position": 13.0,
              "duration": 0.208333
            },
            {
              "pitch": 35,
              "velocity": 86,
              "position": 14.0,
              "duration": 0.208333
            },
            {
              "pitch": 38,
              "velocity": 71,
              "position": 14.0,
              "duration": 0.208333
            },
            {
              "pitch": 38,
              "velocity": 68,
              "position": 14.666667,
              "duration": 0.208333
            },
            {
              "pitch": 38,
              "velocity": 89,
              "position": 15.0,
              "duration": 0.208333
            },
            {
              "pitch": 48,
              "velocity": 81,
              "position": 15.0,
              "duration": 0.208333
            },
            {
              "pitch": 45,
              "velocity": 94,
              "position": 15.666667,
              "duration": 0.208333
            }
          ]
        },
        "10": {
          "ctab": {
            "srcChannel": 10,
            "name": "Bass",
            "accType": "BASS",
            "editable": true,
            "mutedNotes": [],
            "mutedChords": [],
            "sourceChordNote": 0,
            "sourceChordType": "Maj7",
            "ctb2Main": {
              "ntr": "ROOT_TRANSPOSITION",
              "ntt": "BYPASS",
              "bassOn": true,
              "noteLowLimit": 20,
              "noteHighLimit": 60,
              "chordRootUpperLimit": 127,
              "rtr": "NOTE_GENERATOR"
            }
          },
          "notes": [
            {
              "pitch": 36,
              "velocity": 94,
              "position": 0.0,
              "duration": 1.066667
            },
            {
              "pitch": 33,
              "velocity": 85,
              "position": 1.333333,
              "duration": 0.141667
            },
            {
              "pitch": 35,
              "velocity": 84,
              "position": 1.666667,
              "duration": 0.1
            },
            {
              "pitch": 36,
              "velocity": 90,
              "position": 2.0,
              "duration": 1.575
            },
            {
              "pitch": 36,
              "velocity": 83,
              "position": 3.666667,
              "duration": 0.158333
            },
            {
              "pitch": 36,
              "velocity": 94,
              "position": 4.0,
              "duration": 1.991667
            },
            {
              "pitch": 36,
              "velocity": 94,
              "position": 6.0,
              "duration": 1.066667
            },
            {
              "pitch": 36,
              "velocity": 85,
              "position": 7.333333,
              "duration": 0.141667
            },
            {
              "pitch": 36,
              "velocity": 84,
              "position": 7.666667,
              "duration": 0.1
            },
            {
              "pitch": 36,
              "velocity": 94,
              "position": 8.0,
              "duration": 1.141667
            },
            {
              "pitch": 36,
              "velocity": 82,
              "position": 9.666667,
              "duration": 0.116667
            },
            {
              "pitch": 36,
              "velocity": 94,
              "position": 10.0,
              "duration": 1.25
            },
            {
              "pitch": 43,
              "velocity": 85,
              "position": 11.333333,
              "duration": 0.141667
            },
            {
              "pitch": 36,
              "velocity": 84,
              "position": 11.666667,
              "duration": 0.1
            },
            {
              "pitch": 36,
              "velocity": 91,
              "position": 12.0,
              "duration": 1.441667
            },
            {
              "pitch": 31,
              "velocity": 79,
              "position": 13.666667,
              "duration": 0.125
            },
            {
              "pitch": 36,
              "velocity": 91,
              "position": 14.0,
              "duration": 1.058333
            },
            {
              "pitch": 31,
              "velocity": 71,
              "position": 15.333333,
              "duration": 0.183333
            },
            {
              "pitch": 31,
              "velocity": 71,
              "position": 15.666667,
              "duration": 0.125
            }
          ]
        },
        "11": {
          "ctab": {
            "srcChannel": 11,
            "name": "Piano",
            "accType": "CHORD1",
            "editable": true,
            "mutedNotes": [],
            "mutedChords": [],
            "sourceChordNote": 0,
            "sourceChordType": "Maj7",
            "ctb2Main": {
              "ntr": "ROOT_FIXED",
              "ntt": "CHORD",
              "bassOn": false,
              "noteLowLimit": 48,
              "noteHighLimit": 84,
              "chordRootUpperLimit": 127,
              "rtr": "NOTE_GENERATOR"
            }
          },
          "notes": [
            {
              "pitch": 59,
              "velocity": 88,
              "position": 0.0,
              "duration": 0.875
            },
            {
              "pitch": 67,
              "velocity": 78,
              "position": 0.008333,
              "duration": 0.775
            },
            {
              "pitch": 71,
              "velocity": 64,
              "position": 0.008333,
              "duration": 0.758333
            },
            {
              "pitch": 36,
              "velocity": 58,
              "position": 0.016667,
              "duration": 1.183333
            },
            {
              "pitch": 48,
              "velocity": 70,
              "position": 0.016667,
              "duration": 1.116667
            },
            {
              "pitch": 64,
              "velocity": 56,
              "position": 0.016667,
              "duration": 0.7
            },
            {
              "pitch": 67,
              "velocity": 87,
              "position": 0.983333,
              "duration": 0.466667
            },
            {
              "pitch": 71,
              "velocity": 80,
              "position": 0.983333,
              "duration": 0.458333
            },
            {
              "pitch": 64,
              "velocity": 72,
              "position": 0.991667,
              "duration": 0.358333
            },
            {
              "pitch": 48,
              "velocity": 49,
              "position": 1.633333,
              "duration": 0.325
            },
            {
              "pitch": 59,
              "velocity": 74,
              "position": 1.633333,
              "duration": 0.325
            },
            {
              "pitch": 48,
              "velocity": 72,
              "position": 2.0,
              "duration": 1.291667
            },
            {
              "pitch": 59,
              "velocity": 89,
              "position": 2.0,
              "duration": 1.45
            },
            {
              "pitch": 67,
              "velocity": 88,
              "position": 2.0,
              "duration": 1.483333
            },
            {
              "pitch": 36,
              "velocity": 60,
              "position": 2.008333,
              "duration": 1.391667
            },
            {
              "pitch": 64,
              "velocity": 78,
              "position": 2.016667,
              "duration": 1.441667
            },
            {
              "pitch": 59,
              "velocity": 88,
              "position": 4.0,
              "duration": 0.875
            },
            {
              "pitch": 67,
              "velocity": 78,
              "position": 4.008333,
              "duration": 0.775
            },
            {
              "pitch": 71,
              "velocity": 64,
              "position": 4.008333,
              "duration": 0.758333
            },
            {
              "pitch": 36,
              "velocity": 58,
              "position": 4.016667,
              "duration": 1.183333
            },
            {
              "pitch": 48,
              "velocity": 70,
              "position": 4.016667,
              "duration": 1.116667
            },
            {
              "pitch": 64,
              "velocity": 56,
              "position": 4.016667,
              "duration": 0.7
            },
            {
              "pitch": 67,
              "velocity": 87,
              "position": 4.983333,
              "duration": 0.466667
            },
            {
              "pitch": 71,
              "velocity": 80,
              "position": 4.983333,
              "duration": 0.458333
            },
            {
              "pitch": 64,
              "velocity": 72,
              "position": 4.991667,
              "duration": 0.358333
            },
            {
              "pitch": 48,
              "velocity": 49,
              "position": 5.633333,
              "duration": 0.325
            },
            {
              "pitch": 59,
              "velocity": 74,
              "position": 5.633333,
              "duration": 0.325
            },
            {
              "pitch": 36,
              "velocity": 66,
              "position": 6.016667,
              "duration": 1.441667
            },
            {
              "pitch": 59,
              "velocity": 87,
              "position": 6.016667,
              "duration": 0.866667
            },
            {
              "pitch": 64,
              "velocity": 76,
              "position": 6.016667,
              "duration": 0.841667
            },
            {
              "pitch": 48,
              "velocity": 64,
              "position": 6.025,
              "duration": 1.15
            },
            {
              "pitch": 64,
              "velocity": 82,
              "position": 7.016667,
              "duration": 0.125
            },
            {
              "pitch": 59,
              "velocity": 90,
              "position": 7.025,
              "duration": 0.1
            },
            {
              "pitch": 55,
              "velocity": 42,
              "position": 7.658333,
              "duration": 0.3
            },
            {
              "pitch": 48,
              "velocity": 49,
              "position": 7.675,
              "duration": 0.283333
            },
            {
              "pitch": 48,
              "velocity": 76,
              "position": 8.016667,
              "duration": 1.9
            },
            {
              "pitch": 60,
              "velocity": 76,
              "position": 8.016667,
              "duration": 0.05
            },
            {
              "pitch": 74,
              "velocity": 74,
              "position": 8.016667,
              "duration": 1.55
            },
            {
              "pitch": 36,
              "velocity": 68,
              "position": 8.033333,
              "duration": 1.866667
            },
            {
              "pitch": 67,
              "velocity": 78,
              "position": 8.033333,
              "duration": 1.525
            },
            {
              "pitch": 64,
              "velocity": 50,
              "position": 8.05,
              "duration": 1.616667
            },
            {
              "pitch": 59,
              "velocity": 91,
              "position": 10.008333,
              "duration": 1.383333
            },
            {
              "pitch": 48,
              "velocity": 66,
              "position": 10.016667,
              "duration": 1.525
            },
            {
              "pitch": 64,
              "velocity": 68,
              "position": 10.016667,
              "duration": 0.841667
            },
            {
              "pitch": 36,
              "velocity": 62,
              "position": 10.025,
              "duration": 1.666667
            },
            {
              "pitch": 67,
              "velocity": 88,
              "position": 10.025,
              "duration": 1.441667
            },
            {
              "pitch": 64,
              "velocity": 32,
              "position": 11.0,
              "duration": 0.766667
            },
            {
              "pitch": 36,
              "velocity": 74,
              "position": 12.008333,
              "duration": 1.55
            },
            {
              "pitch": 48,
              "velocity": 76,
              "position": 12.008333,
              "duration": 1.258333
            },
            {
              "pitch": 60,
              "velocity": 80,
              "position": 12.008333,
              "duration": 0.808333
            },
            {
              "pitch": 64,
              "velocity": 72,
              "position": 12.008333,
              "duration": 1.291667
            },
            {
              "pitch": 67,
              "velocity": 86,
              "position": 12.008333,
              "duration": 1.241667
            },
            {
              "pitch": 71,
              "velocity": 84,
              "position": 12.016667,
              "duration": 1.308333
            },
            {
              "pitch": 60,
              "velocity": 50,
              "position": 13.016667,
              "duration": 0.558333
            },
            {
              "pitch": 48,
              "velocity": 86,
              "position": 13.65,
              "duration": 1.983333
            },
            {
              "pitch": 55,
              "velocity": 72,
              "position": 14.008333,
              "duration": 1.725
            },
            {
              "pitch": 59,
              "velocity": 70,
              "position": 14.008333,
              "duration": 1.741667
            },
            {
              "pitch": 64,
              "velocity": 70,
              "position": 14.008333,
              "duration": 1.791667
            },
            {
              "pitch": 60,
              "velocity": 53,
              "position": 14.016667,
              "duration": 1.741667
            },
            {
              "pitch": 36,
              "velocity": 58,
              "position": 14.025,
              "duration": 1.933333
            }
          ]
        },
        "12": {
          "ctab": {
            "srcChannel": 12,
            "name": "Guitar",
            "accType": "CHORD2",
            "editable": true,
            "mutedNotes": [],
            "mutedChords": [],
            "sourceChordNote": 0,
            "sourceChordType": "Maj7",
            "ctb2Main": {
              "ntr": "ROOT_FIXED",
              "ntt": "CHORD",
              "bassOn": false,
              "noteLowLimit": 40,
              "noteHighLimit": 76,
              "chordRootUpperLimit": 127,
              "rtr": "NOTE_GENERATOR"
            }
          },
          "notes": [
            {
              "pitch": 48,
              "velocity": 62,
              "position": 0.0,
              "duration": 1.958333
            },
            {
              "pitch": 55,
              "velocity": 46,
              "position": 0.325,
              "duration": 1.633333
            },
            {
              "pitch": 59,
              "velocity": 42,
              "position": 0.5,
              "duration": 1.141667
            },
            {
              "pitch": 64,
              "velocity": 41,
              "position": 0.666667,
              "duration": 0.608333
            },
            {
              "pitch": 67,
              "velocity": 69,
              "position": 1.008333,
              "duration": 0.95
            },
            {
              "pitch": 64,
              "velocity": 53,
              "position": 1.35,
              "duration": 0.608333
            },
            {
              "pitch": 59,
              "velocity": 61,
              "position": 1.658333,
              "duration": 0.3
            },
            {
              "pitch": 48,
              "velocity": 68,
              "position": 2.008333,
              "duration": 1.95
            },
            {
              "pitch": 55,
              "velocity": 53,
              "position": 2.358333,
              "duration": 1.6
            },
            {
              "pitch": 64,
              "velocity": 48,
              "position": 2.525,
              "duration": 0.158333
            },
            {
              "pitch": 64,
              "velocity": 52,
              "position": 2.691667,
              "duration": 0.608333
            },
            {
              "pitch": 67,
              "velocity": 70,
              "position": 2.991667,
              "duration": 0.966667
            },
            {
              "pitch": 64,
              "velocity": 45,
              "position": 3.333333,
              "duration": 0.625
            },
            {
              "pitch": 59,
              "velocity": 60,
              "position": 3.658333,
              "duration": 0.3
            },
            {
              "pitch": 48,
              "velocity": 75,
              "position": 4.033333,
              "duration": 1.925
            },
            {
              "pitch": 59,
              "velocity": 53,
              "position": 4.375,
              "duration": 1.258333
            },
            {
              "pitch": 64,
              "velocity": 41,
              "position": 4.391667,
              "duration": 0.275
            },
            {
              "pitch": 67,
              "velocity": 41,
              "position": 4.516667,
              "duration": 0.425
            },
            {
              "pitch": 64,
              "velocity": 58,
              "position": 4.683333,
              "duration": 0.608333
            },
            {
              "pitch": 67,
              "velocity": 61,
              "position": 4.975,
              "duration": 0.983333
            },
            {
              "pitch": 64,
              "velocity": 41,
              "position": 5.341667,
              "duration": 0.616667
            },
            {
              "pitch": 59,
              "velocity": 56,
              "position": 5.658333,
              "duration": 0.3
            },
            {
              "pitch": 48,
              "velocity": 75,
              "position": 6.033333,
              "duration": 1.925
            },
            {
              "pitch": 59,
              "velocity": 53,
              "position": 6.375,
              "duration": 1.258333
            },
            {
              "pitch": 64,
              "velocity": 41,
              "position": 6.391667,
              "duration": 0.275
            },
            {
              "pitch": 67,
              "velocity": 41,
              "position": 6.516667,
              "duration": 0.425
            },
            {
              "pitch": 64,
              "velocity": 58,
              "position": 6.683333,
              "duration": 0.608333
            },
            {
              "pitch": 67,
              "velocity": 61,
              "position": 6.975,
              "duration": 0.983333
            },
            {
              "pitch": 64,
              "velocity": 41,
              "position": 7.341667,
              "duration": 0.616667
            },
            {
              "pitch": 59,
              "velocity": 56,
              "position": 7.658333,
              "duration": 0.3
            },
            {
              "pitch": 48,
              "velocity": 62,
              "position": 8.0,
              "duration": 2.0
            },
            {
              "pitch": 55,
              "velocity": 46,
              "position": 8.325,
              "duration": 1.991667
            },
            {
              "pitch": 59,
              "velocity": 42,
              "position": 8.5,
              "duration": 1.141667
            },
            {
              "pitch": 64,
              "velocity": 41,
              "position": 8.666667,
              "duration": 0.608333
            },
            {
              "pitch": 67,
              "velocity": 69,
              "position": 9.008333,
              "duration": 1.933333
            },
            {
              "pitch": 64,
              "velocity": 53,
              "position": 9.35,
              "duration": 1.308333
            },
            {
              "pitch": 59,
              "velocity": 61,
              "position": 9.658333,
              "duration": 0.841667
            },
            {
              "pitch": 48,
              "velocity": 61,
              "position": 10.008333,
              "duration": 1.991667
            },
            {
              "pitch": 55,
              "velocity": 52,
              "position": 10.333333,
              "duration": 1.983333
            },
            {
              "pitch": 59,
              "velocity": 41,
              "position": 10.508333,
              "duration": 1.141667
            },
            {
              "pitch": 64,
              "velocity": 51,
              "position": 10.675,
              "duration": 0.625
            },
            {
              "pitch": 67,
              "velocity": 82,
              "position": 10.991667,
              "duration": 2.033333
            },
            {
              "pitch": 64,
              "velocity": 59,
              "position": 11.325,
              "duration": 1.366667
            },
            {
              "pitch": 59,
              "velocity": 67,
              "position": 11.658333,
              "duration": 1.0
            },
            {
              "pitch": 48,
              "velocity": 67,
              "position": 12.008333,
              "duration": 3.55
            },
            {
              "pitch": 55,
              "velocity": 61,
              "position": 12.333333,
              "duration": 1.358333
            },
            {
              "pitch": 59,
              "velocity": 60,
              "position": 12.666667,
              "duration": 1.366667
            },
            {
              "pitch": 64,
              "velocity": 43,
              "position": 12.7,
              "duration": 0.283333
            },
            {
              "pitch": 64,
              "velocity": 68,
              "position": 13.008333,
              "duration": 1.041667
            },
            {
              "pitch": 67,
              "velocity": 61,
              "position": 13.033333,
              "duration": 0.333333
            },
            {
              "pitch": 55,
              "velocity": 59,
              "position": 13.7,
              "duration": 2.258333
            },
            {
              "pitch": 59,
              "velocity": 63,
              "position": 14.041667,
              "duration": 0.641667
            },
            {
              "pitch": 64,
              "velocity": 52,
              "position": 14.058333,
              "duration": 0.641667
            },
            {
              "pitch": 59,
              "velocity": 70,
              "position": 14.691667,
              "duration": 0.316667
            },
            {
              "pitch": 64,
              "velocity": 55,
              "position": 14.708333,
              "duration": 0.316667
            },
            {
              "pitch": 67,
              "velocity": 41,
              "position": 14.725,
              "duration": 0.325
            },
            {
              "pitch": 59,
              "velocity": 67,
              "position": 15.016667,
              "duration": 0.316667
            },
            {
              "pitch": 64,
              "velocity": 65,
              "position": 15.041667,
              "duration": 0.316667
            },
            {
              "pitch": 67,
              "velocity": 43,
              "position": 15.058333,
              "duration": 0.308333
            },
            {
              "pitch": 59,
              "velocity": 76,
              "position": 15.341667,
              "duration": 0.316667
            },
            {
              "pitch": 64,
              "velocity": 68,
              "position": 15.366667,
              "duration": 0.308333
            },
            {
              "pitch": 59,
              "velocity": 67,
              "position": 15.666667,
              "duration": 0.291667
            },
            {
              "pitch": 64,
              "velocity": 72,
              "position": 15.683333,
              "duration": 0.275
            },
            {
              "pitch": 67,
              "velocity": 67,
              "position": 15.691667,
              "duration": 0.266667
            }
          ]
        },
        "13": {
          "ctab": {
            "srcChannel": 13,
            "name": "Strings",
            "accType": "PAD",
            "editable": true,
            "mutedNotes": [],
            "mutedChords": [],
            "sourceChordNote": 0,
            "sourceChordType": "Maj7",
            "ctb2Main": {
              "ntr": "ROOT_FIXED",
              "ntt": "MELODY",
              "bassOn": false,
              "noteLowLimit": 36,
              "noteHighLimit": 96,
              "chordRootUpperLimit": 127,
              "rtr": "PITCH_SHIFT"
            }
          },
          "notes": [
            {
              "pitch": 74,
              "velocity": 48,
              "position": 0.008333,
              "duration": 0.925
            },
            {
              "pitch": 71,
              "velocity": 68,
              "position": 0.016667,
              "duration": 1.458333
            },
            {
              "pitch": 79,
              "velocity": 66,
              "position": 0.016667,
              "duration": 0.883333
            },
            {
              "pitch": 76,
              "velocity": 62,
              "position": 0.025,
              "duration": 1.925
            },
            {
              "pitch": 79,
              "velocity": 66,
              "position": 0.975,
              "duration": 0.725
            },
            {
              "pitch": 74,
              "velocity": 3,
              "position": 0.983333,
              "duration": 0.933333
            },
            {
              "pitch": 71,
              "velocity": 42,
              "position": 1.65,
              "duration": 0.308333
            },
            {
              "pitch": 71,
              "velocity": 57,
              "position": 2.016667,
              "duration": 1.941667
            },
            {
              "pitch": 74,
              "velocity": 37,
              "position": 2.025,
              "duration": 1.933333
            },
            {
              "pitch": 76,
              "velocity": 58,
              "position": 2.025,
              "duration": 1.933333
            },
            {
              "pitch": 67,
              "velocity": 37,
              "position": 4.016667,
              "duration": 1.033333
            },
            {
              "pitch": 71,
              "velocity": 57,
              "position": 4.033333,
              "duration": 0.908333
            },
            {
              "pitch": 74,
              "velocity": 39,
              "position": 4.058333,
              "duration": 0.866667
            },
            {
              "pitch": 76,
              "velocity": 47,
              "position": 4.066667,
              "duration": 0.85
            },
            {
              "pitch": 71,
              "velocity": 60,
              "position": 5.0,
              "duration": 0.708333
            },
            {
              "pitch": 76,
              "velocity": 63,
              "position": 5.0,
              "duration": 0.625
            },
            {
              "pitch": 74,
              "velocity": 47,
              "position": 5.008333,
              "duration": 0.65
            },
            {
              "pitch": 67,
              "velocity": 55,
              "position": 5.625,
              "duration": 0.333333
            },
            {
              "pitch": 71,
              "velocity": 54,
              "position": 6.0,
              "duration": 0.925
            },
            {
              "pitch": 76,
              "velocity": 57,
              "position": 6.0,
              "duration": 0.908333
            },
            {
              "pitch": 74,
              "velocity": 44,
              "position": 6.008333,
              "duration": 0.916667
            },
            {
              "pitch": 71,
              "velocity": 46,
              "position": 6.991667,
              "duration": 0.7
            },
            {
              "pitch": 76,
              "velocity": 55,
              "position": 6.991667,
              "duration": 0.625
            },
            {
              "pitch": 74,
              "velocity": 50,
              "position": 7.0,
              "duration": 0.65
            },
            {
              "pitch": 67,
              "velocity": 44,
              "position": 7.658333,
              "duration": 0.3
            },
            {
              "pitch": 71,
              "velocity": 59,
              "position": 8.016667,
              "duration": 7.95
            },
            {
              "pitch": 74,
              "velocity": 39,
              "position": 8.025,
              "duration": 3.883333
            },
            {
              "pitch": 76,
              "velocity": 60,
              "position": 8.025,
              "duration": 7.933333
            },
            {
              "pitch": 79,
              "velocity": 60,
              "position": 11.991667,
              "duration": 3.966667
            },
            {
              "pitch": 74,
              "velocity": 33,
              "position": 12.0,
              "duration": 3.95
            }
          ]
        }
      }
    },
    "Main_C": {
      "type": "Main_C",
      "sizeInBeats": 16,
      "channels": {
        "9": {
          "ctab": {
            "srcChannel": 9,
            "name": "Drums",
            "accType": "RHYTHM",
            "editable": false,
            "mutedNotes": [],
            "mutedChords": [],
            "sourceChordNote": 0,
            "sourceChordType": "Maj",
            "ctb2Main": {
              "ntr": "ROOT_FIXED",
              "ntt": "BYPASS",
              "bassOn": false,
              "noteLowLimit": 20,
              "noteHighLimit": 127,
              "chordRootUpperLimit": 127,
              "rtr": "RETRIGGER"
            }
          },
          "notes": [
            {
              "pitch": 35,
              "velocity": 85,
              "position": 0.0,
              "duration": 0.208333
            },
            {
              "pitch": 38,
              "velocity": 51,
              "position": 0.0,
              "duration": 0.208333
            },
            {
              "pitch": 57,
              "velocity": 92,
              "position": 0.0,
              "duration": 0.208333
            },
            {
              "pitch": 38,
              "velocity": 36,
              "position": 0.333333,
              "duration": 0.208333
            },
            {
              "pitch": 38,
              "velocity": 45,
              "position": 0.666667,
              "duration": 0.208333
            },
            {
              "pitch": 38,
              "velocity": 118,
              "position": 1.0,
              "duration": 0.208333
            },
            {
              "pitch": 44,
              "velocity": 127,
              "position": 1.0,
              "duration": 0.208333
            },
            {
              "pitch": 38,
              "velocity": 40,
              "position": 1.666667,
              "duration": 0.208333
            },
            {
              "pitch": 35,
              "velocity": 81,
              "position": 2.0,
              "duration": 0.208333
            },
            {
              "pitch": 38,
              "velocity": 42,
              "position": 2.0,
              "duration": 0.208333
            },
            {
              "pitch": 38,
              "velocity": 36,
              "position": 2.333333,
              "duration": 0.208333
            },
            {
              "pitch": 38,
              "velocity": 36,
              "position": 2.666667,
              "duration": 0.208333
            },
            {
              "pitch": 38,
              "velocity": 127,
              "position": 3.0,
              "duration": 0.208333
            },
            {
              "pitch": 44,
              "velocity": 127,
              "position": 3.0,
              "duration": 0.208333
            },
            {
              "pitch": 38,
              "velocity": 36,
              "position": 3.333333,
              "duration": 0.166667
            },
            {
              "pitch": 38,
              "velocity": 28,
              "position": 3.5,
              "duration": 0.041667
            },
            {
              "pitch": 38,
              "velocity": 117,
              "position": 3.666667,
              "duration": 0.041667
            },
            {
              "pitch": 35,
              "velocity": 79,
              "position": 4.0,
              "duration": 0.208333
            },
            {
              "pitch": 38,
              "velocity": 56,
              "position": 4.0,
              "duration": 0.208333
            },
            {
              "pitch": 38,
              "velocity": 36,
              "position": 4.333333,
              "duration": 0.208333
            },
            {
              "pitch": 38,
              "velocity": 44,
              "position": 4.666667,
              "duration": 0.208333
            },
            {
              "pitch": 38,
              "velocity": 127,
              "position": 5.0,
              "duration": 0.208333
            },
            {
              "pitch": 44,
              "velocity": 127,
              "position": 5.0,
              "duration": 0.208333
            },
            {
              "pitch": 35,
              "velocity": 49,
              "position": 5.666667,
              "duration": 0.208333
            },
            {
              "pitch": 38,
              "velocity": 36,
              "position": 5.666667,
              "duration": 0.208333
            },
            {
              "pitch": 35,
              "velocity": 75,
              "position": 6.0,
              "duration": 0.208333
            },
            {
              "pitch": 38,
              "velocity": 44,
              "position": 6.0,
              "duration": 0.208333
            },
            {
              "pitch": 38,
              "velocity": 36,
              "position": 6.333333,
              "duration": 0.208333
            },
            {
              "pitch": 38,
              "velocity": 51,
              "position": 6.666667,
              "duration": 0.208333
            },
            {
              "pitch": 38,
              "velocity": 119,
              "position": 7.0,
              "duration": 0.166667
            },
            {
              "pitch": 44,
              "velocity": 127,
              "position": 7.0,
              "duration": 0.208333
            },
            {
              "pitch": 38,
              "velocity": 95,
              "position": 7.166667,
              "duration": 0.041667
            },
            {
              "pitch": 38,
              "velocity": 38,
              "position": 7.333333,
              "duration": 0.041667
            },
            {
              "pitch": 38,
              "velocity": 30,
              "position": 7.5,
              "duration": 0.041667
            },
            {
              "pitch": 35,
              "velocity": 74,
              "position": 7.666667,
              "duration": 0.208333
            },
            {
              "pitch": 59,
              "velocity": 60,
              "position": 7.666667,
              "duration": 0.208333
            },
            {
              "pitch": 35,
              "velocity": 97,
              "position": 8.0,
              "duration": 0.208333
            },
            {
              "pitch": 51,
              "velocity": 68,
              "position": 8.0,
              "duration": 0.208333
            },
            {
              "pitch": 38,
              "velocity": 52,
              "position": 8.666667,
              "duration": 0.208333
            },
            {
              "pitch": 38,
              "velocity": 127,
              "position": 9.0,
              "duration": 0.208333
            },
            {
              "pitch": 44,
              "velocity": 127,
              "position": 9.0,
              "duration": 0.208333
            },
            {
              "pitch": 35,
              "velocity": 57,
              "position": 9.666667,
              "duration": 0.208333
            },
            {
              "pitch": 38,
              "velocity": 35,
              "position": 9.666667,
              "duration": 0.208333
            },
            {
              "pitch": 35,
              "velocity": 80,
              "position": 10.0,
              "duration": 0.208333
            },
            {
              "pitch": 38,
              "velocity": 44,
              "position": 10.0,
              "duration": 0.208333
            },
            {
              "pitch": 38,
              "velocity": 42,
              "position": 10.666667,
              "duration": 0.208333
            },
            {
              "pitch": 38,
              "velocity": 122,
              "position": 11.0,
              "duration": 0.208333
            },
            {
              "pitch": 44,
              "velocity": 127,
              "position": 11.0,
              "duration": 0.208333
            },
            {
              "pitch": 38,
              "velocity": 44,
              "position": 11.666667,
              "duration": 0.208333
            },
            {
              "pitch": 35,
              "velocity": 86,
              "position": 12.0,
              "duration": 0.208333
            },
            {
              "pitch": 38,
              "velocity": 50,
              "position": 12.0,
              "duration": 0.208333
            },
            {
              "pitch": 38,
              "velocity": 49,
              "position": 12.666667,
              "duration": 0.208333
            },
            {
              "pitch": 38,
              "velocity": 127,
              "position": 13.0,
              "duration": 0.208333
            },
            {
              "pitch": 44,
              "velocity": 127,
              "position": 13.0,
              "duration": 0.208333
            },
            {
              "pitch": 38,
              "velocity": 36,
              "position": 13.666667,
              "duration": 0.208333
            },
            {
              "pitch": 35,
              "velocity": 76,
              "position": 14.0,
              "duration": 0.208333
            },
            {
              "pitch": 38,
              "velocity": 49,
              "position": 14.0,
              "duration": 0.208333
            },
            {
              "pitch": 38,
              "velocity": 49,
              "position": 14.333333,
              "duration": 0.208333
            },
            {
              "pitch": 48,
              "velocity": 48,
              "position": 14.333333,
              "duration": 0.208333
            },
            {
              "pitch": 38,
              "velocity": 44,
              "position": 14.666667,
              "duration": 0.208333
            },
            {
              "pitch": 38,
              "velocity": 46,
              "position": 15.0,
              "duration": 0.208333
            },
            {
              "pitch": 44,
              "velocity": 127,
              "position": 15.0,
              "duration": 0.208333
            },
            {
              "pitch": 47,
              "velocity": 85,
              "position": 15.0,
              "duration": 0.208333
            },
            {
              "pitch": 38,
              "velocity": 95,
              "position": 15.666667,
              "duration": 0.208333
            },
            {
              "pitch": 45,
              "velocity": 85,
              "position": 15.666667,
              "duration": 0.208333
            }
          ]
        },
        "10": {
          "ctab": {
            "srcChannel": 10,
            "name": "Bass",
            "accType": "BASS",
            "editable": true,
            "mutedNotes": [],
            "mutedChords": [],
            "sourceChordNote": 0,
            "sourceChordType": "Maj7",
            "ctb2Main": {
              "ntr": "ROOT_TRANSPOSITION",
              "ntt": "BYPASS",
              "bassOn": true,
              "noteLowLimit": 20,
              "noteHighLimit": 60,
              "chordRootUpperLimit": 127,
              "rtr": "NOTE_GENERATOR"
            }
          },
          "notes": [
            {
              "pitch": 33,
              "velocity": 91,
              "position": 0.0,
              "duration": 1.283333
            },
            {
              "pitch": 35,
              "velocity": 77,
              "position": 1.333333,
              "duration": 0.15
            },
            {
              "pitch": 36,
              "velocity": 81,
              "position": 1.666667,
              "duration": 0.2
            },
            {
              "pitch": 36,
              "velocity": 83,
              "position": 2.0,
              "duration": 1.958333
            },
            {
              "pitch": 36,
              "velocity": 90,
              "position": 4.0,
              "duration": 1.575
            },
            {
              "pitch": 36,
              "velocity": 83,
              "position": 5.666667,
              "duration": 0.158333
            },
            {
              "pitch": 36,
              "velocity": 94,
              "position": 6.0,
              "duration": 1.066667
            },
            {
              "pitch": 36,
              "velocity": 85,
              "position": 7.333333,
              "duration": 0.141667
            },
            {
              "pitch": 36,
              "velocity": 84,
              "position": 7.666667,
              "duration": 0.1
            },
            {
              "pitch": 36,
              "velocity": 92,
              "position": 8.0,
              "duration": 1.625
            },
            {
              "pitch": 43,
              "velocity": 75,
              "position": 9.666667,
              "duration": 0.1
            },
            {
              "pitch": 48,
              "velocity": 75,
              "position": 10.0,
              "duration": 2.0
            },
            {
              "pitch": 36,
              "velocity": 85,
              "position": 12.0,
              "duration": 1.483333
            },
            {
              "pitch": 31,
              "velocity": 69,
              "position": 13.666667,
              "duration": 0.066667
            },
            {
              "pitch": 36,
              "velocity": 94,
              "position": 14.0,
              "duration": 1.616667
            },
            {
              "pitch": 36,
              "velocity": 90,
              "position": 15.666667,
              "duration": 0.133333
            }
          ]
        },
        "11": {
          "ctab": {
            "srcChannel": 11,
            "name": "Piano",
            "accType": "CHORD1",
            "editable": true,
            "mutedNotes": [],
            "mutedChords": [],
            "sourceChordNote": 0,
            "sourceChordType": "Maj7",
            "ctb2Main": {
              "ntr": "ROOT_FIXED",
              "ntt": "CHORD",
              "bassOn": false,
              "noteLowLimit": 48,
              "noteHighLimit": 84,
              "chordRootUpperLimit": 127,
              "rtr": "NOTE_GENERATOR"
            }
          },
          "notes": [
            {
              "pitch": 59,
              "velocity": 88,
              "position": 0.0,
              "duration": 0.875
            },
            {
              "pitch": 67,
              "velocity": 78,
              "position": 0.008333,
              "duration": 0.775
            },
            {
              "pitch": 71,
              "velocity": 64,
              "position": 0.008333,
              "duration": 0.758333
            },
            {
              "pitch": 36,
              "velocity": 58,
              "position": 0.016667,
              "duration": 1.183333
            },
            {
              "pitch": 48,
              "velocity": 70,
              "position": 0.016667,
              "duration": 1.116667
            },
            {
              "pitch": 64,
              "velocity": 56,
              "position": 0.016667,
              "duration": 0.7
            },
            {
              "pitch": 67,
              "velocity": 87,
              "position": 0.983333,
              "duration": 0.466667
            },
            {
              "pitch": 71,
              "velocity": 80,
              "position": 0.983333,
              "duration": 0.458333
            },
            {
              "pitch": 64,
              "velocity": 72,
              "position": 0.991667,
              "duration": 0.358333
            },
            {
              "pitch": 48,
              "velocity": 49,
              "position": 1.633333,
              "duration": 0.325
            },
            {
              "pitch": 59,
              "velocity": 74,
              "position": 1.633333,
              "duration": 0.325
            },
            {
              "pitch": 36,
              "velocity": 70,
              "position": 2.0,
              "duration": 1.783333
            },
            {
              "pitch": 59,
              "velocity": 88,
              "position": 2.0,
              "duration": 0.708333
            },
            {
              "pitch": 48,
              "velocity": 74,
              "position": 2.008333,
              "duration": 0.625
            },
            {
              "pitch": 64,
              "velocity": 80,
              "position": 2.008333,
              "duration": 0.808333
            },
            {
              "pitch": 59,
              "velocity": 86,
              "position": 2.991667,
              "duration": 0.191667
            },
            {
              "pitch": 64,
              "velocity": 68,
              "position": 3.008333,
              "duration": 0.166667
            },
            {
              "pitch": 48,
              "velocity": 38,
              "position": 3.683333,
              "duration": 0.275
            },
            {
              "pitch": 48,
              "velocity": 74,
              "position": 4.016667,
              "duration": 1.116667
            },
            {
              "pitch": 59,
              "velocity": 89,
              "position": 4.016667,
              "duration": 0.858333
            },
            {
              "pitch": 36,
              "velocity": 74,
              "position": 4.025,
              "duration": 1.433333
            },
            {
              "pitch": 60,
              "velocity": 70,
              "position": 4.025,
              "duration": 0.825
            },
            {
              "pitch": 67,
              "velocity": 78,
              "position": 4.033333,
              "duration": 0.825
            },
            {
              "pitch": 64,
              "velocity": 19,
              "position": 4.05,
              "duration": 0.875
            },
            {
              "pitch": 59,
              "velocity": 74,
              "position": 5.008333,
              "duration": 0.208333
            },
            {
              "pitch": 67,
              "velocity": 74,
              "position": 5.016667,
              "duration": 0.291667
            },
            {
              "pitch": 60,
              "velocity": 50,
              "position": 5.025,
              "duration": 0.308333
            },
            {
              "pitch": 64,
              "velocity": 25,
              "position": 5.041667,
              "duration": 0.283333
            },
            {
              "pitch": 48,
              "velocity": 53,
              "position": 5.691667,
              "duration": 0.266667
            },
            {
              "pitch": 36,
              "velocity": 66,
              "position": 6.016667,
              "duration": 1.441667
            },
            {
              "pitch": 59,
              "velocity": 87,
              "position": 6.016667,
              "duration": 0.866667
            },
            {
              "pitch": 64,
              "velocity": 76,
              "position": 6.016667,
              "duration": 0.841667
            },
            {
              "pitch": 48,
              "velocity": 64,
              "position": 6.025,
              "duration": 1.15
            },
            {
              "pitch": 64,
              "velocity": 82,
              "position": 7.016667,
              "duration": 0.125
            },
            {
              "pitch": 59,
              "velocity": 90,
              "position": 7.025,
              "duration": 0.1
            },
            {
              "pitch": 55,
              "velocity": 42,
              "position": 7.658333,
              "duration": 0.3
            },
            {
              "pitch": 48,
              "velocity": 49,
              "position": 7.675,
              "duration": 0.283333
            },
            {
              "pitch": 36,
              "velocity": 76,
              "position": 8.0,
              "duration": 1.716667
            },
            {
              "pitch": 48,
              "velocity": 80,
              "position": 8.0,
              "duration": 0.508333
            },
            {
              "pitch": 60,
              "velocity": 84,
              "position": 8.0,
              "duration": 0.2
            },
            {
              "pitch": 74,
              "velocity": 84,
              "position": 8.0,
              "duration": 0.191667
            },
            {
              "pitch": 74,
              "velocity": 41,
              "position": 8.3,
              "duration": 0.441667
            },
            {
              "pitch": 60,
              "velocity": 48,
              "position": 8.316667,
              "duration": 0.425
            },
            {
              "pitch": 48,
              "velocity": 21,
              "position": 8.6,
              "duration": 0.516667
            },
            {
              "pitch": 60,
              "velocity": 88,
              "position": 8.975,
              "duration": 0.333333
            },
            {
              "pitch": 74,
              "velocity": 82,
              "position": 8.983333,
              "duration": 0.275
            },
            {
              "pitch": 48,
              "velocity": 43,
              "position": 9.666667,
              "duration": 0.75
            },
            {
              "pitch": 60,
              "velocity": 25,
              "position": 9.675,
              "duration": 0.266667
            },
            {
              "pitch": 36,
              "velocity": 78,
              "position": 10.016667,
              "duration": 1.275
            },
            {
              "pitch": 60,
              "velocity": 87,
              "position": 10.025,
              "duration": 0.7
            },
            {
              "pitch": 74,
              "velocity": 87,
              "position": 10.025,
              "duration": 0.683333
            },
            {
              "pitch": 48,
              "velocity": 66,
              "position": 10.7,
              "duration": 0.458333
            },
            {
              "pitch": 60,
              "velocity": 88,
              "position": 11.033333,
              "duration": 0.225
            },
            {
              "pitch": 74,
              "velocity": 88,
              "position": 11.041667,
              "duration": 0.25
            },
            {
              "pitch": 48,
              "velocity": 72,
              "position": 11.691667,
              "duration": 1.441667
            },
            {
              "pitch": 36,
              "velocity": 87,
              "position": 12.008333,
              "duration": 1.383333
            },
            {
              "pitch": 59,
              "velocity": 91,
              "position": 12.016667,
              "duration": 0.783333
            },
            {
              "pitch": 67,
              "velocity": 88,
              "position": 12.025,
              "duration": 0.741667
            },
            {
              "pitch": 64,
              "velocity": 72,
              "position": 12.033333,
              "duration": 0.691667
            },
            {
              "pitch": 59,
              "velocity": 93,
              "position": 13.016667,
              "duration": 0.35
            },
            {
              "pitch": 64,
              "velocity": 87,
              "position": 13.025,
              "duration": 0.35
            },
            {
              "pitch": 67,
              "velocity": 89,
              "position": 13.025,
              "duration": 0.366667
            },
            {
              "pitch": 48,
              "velocity": 78,
              "position": 13.675,
              "duration": 1.791667
            },
            {
              "pitch": 36,
              "velocity": 70,
              "position": 14.0,
              "duration": 1.5
            },
            {
              "pitch": 59,
              "velocity": 91,
              "position": 14.016667,
              "duration": 1.316667
            },
            {
              "pitch": 71,
              "velocity": 70,
              "position": 14.016667,
              "duration": 1.425
            },
            {
              "pitch": 64,
              "velocity": 62,
              "position": 14.025,
              "duration": 1.416667
            },
            {
              "pitch": 67,
              "velocity": 80,
              "position": 14.025,
              "duration": 1.383333
            }
          ]
        },
        "12": {
          "ctab": {
            "srcChannel": 12,
            "name": "Guitar",
            "accType": "CHORD2",
            "editable": true,
            "mutedNotes": [],
            "mutedChords": [],
            "sourceChordNote": 0,
            "sourceChordType": "Maj7",
            "ctb2Main": {
              "ntr": "ROOT_FIXED",
              "ntt": "CHORD",
              "bassOn": false,
              "noteLowLimit": 40,
              "noteHighLimit": 76,
              "chordRootUpperLimit": 127,
              "rtr": "NOTE_GENERATOR"
            }
          },
          "notes": [
            {
              "pitch": 48,
              "velocity": 75,
              "position": 0.033333,
              "duration": 1.925
            },
            {
              "pitch": 59,
              "velocity": 53,
              "position": 0.375,
              "duration": 1.258333
            },
            {
              "pitch": 64,
              "velocity": 41,
              "position": 0.391667,
              "duration": 0.275
            },
            {
              "pitch": 67,
              "velocity": 41,
              "position": 0.516667,
              "duration": 0.425
            },
            {
              "pitch": 64,
              "velocity": 58,
              "position": 0.683333,
              "duration": 0.608333
            },
            {
              "pitch": 67,
              "velocity": 61,
              "position": 0.975,
              "duration": 0.983333
            },
            {
              "pitch": 64,
              "velocity": 41,
              "position": 1.341667,
              "duration": 0.616667
            },
            {
              "pitch": 59,
              "velocity": 56,
              "position": 1.658333,
              "duration": 0.3
            },
            {
              "pitch": 48,
              "velocity": 72,
              "position": 2.008333,
              "duration": 1.95
            },
            {
              "pitch": 59,
              "velocity": 63,
              "position": 2.35,
              "duration": 1.291667
            },
            {
              "pitch": 64,
              "velocity": 44,
              "position": 2.516667,
              "duration": 0.166667
            },
            {
              "pitch": 64,
              "velocity": 51,
              "position": 2.691667,
              "duration": 0.625
            },
            {
              "pitch": 67,
              "velocity": 41,
              "position": 2.733333,
              "duration": 0.233333
            },
            {
              "pitch": 67,
              "velocity": 79,
              "position": 3.016667,
              "duration": 0.941667
            },
            {
              "pitch": 64,
              "velocity": 45,
              "position": 3.358333,
              "duration": 0.6
            },
            {
              "pitch": 59,
              "velocity": 68,
              "position": 3.675,
              "duration": 0.283333
            },
            {
              "pitch": 48,
              "velocity": 68,
              "position": 4.008333,
              "duration": 1.95
            },
            {
              "pitch": 55,
              "velocity": 53,
              "position": 4.358333,
              "duration": 1.6
            },
            {
              "pitch": 64,
              "velocity": 48,
              "position": 4.525,
              "duration": 0.158333
            },
            {
              "pitch": 64,
              "velocity": 52,
              "position": 4.691667,
              "duration": 0.608333
            },
            {
              "pitch": 67,
              "velocity": 70,
              "position": 4.991667,
              "duration": 0.966667
            },
            {
              "pitch": 64,
              "velocity": 45,
              "position": 5.333333,
              "duration": 0.625
            },
            {
              "pitch": 59,
              "velocity": 60,
              "position": 5.658333,
              "duration": 0.3
            },
            {
              "pitch": 48,
              "velocity": 75,
              "position": 6.033333,
              "duration": 1.925
            },
            {
              "pitch": 59,
              "velocity": 53,
              "position": 6.375,
              "duration": 1.258333
            },
            {
              "pitch": 64,
              "velocity": 41,
              "position": 6.391667,
              "duration": 0.275
            },
            {
              "pitch": 67,
              "velocity": 41,
              "position": 6.516667,
              "duration": 0.425
            },
            {
              "pitch": 64,
              "velocity": 58,
              "position": 6.683333,
              "duration": 0.608333
            },
            {
              "pitch": 67,
              "velocity": 61,
              "position": 6.975,
              "duration": 0.983333
            },
            {
              "pitch": 64,
              "velocity": 41,
              "position": 7.341667,
              "duration": 0.616667
            },
            {
              "pitch": 59,
              "velocity": 56,
              "position": 7.658333,
              "duration": 0.3
            },
            {
              "pitch": 48,
              "velocity": 75,
              "position": 8.033333,
              "duration": 1.95
            },
            {
              "pitch": 59,
              "velocity": 53,
              "position": 8.375,
              "duration": 1.258333
            },
            {
              "pitch": 64,
              "velocity": 41,
              "position": 8.391667,
              "duration": 0.275
            },
            {
              "pitch": 67,
              "velocity": 41,
              "position": 8.516667,
              "duration": 0.425
            },
            {
              "pitch": 64,
              "velocity": 58,
              "position": 8.683333,
              "duration": 0.608333
            },
            {
              "pitch": 67,
              "velocity": 61,
              "position": 8.975,
              "duration": 1.708333
            },
            {
              "pitch": 64,
              "velocity": 41,
              "position": 9.341667,
              "duration": 1.0
            },
            {
              "pitch": 59,
              "velocity": 56,
              "position": 9.658333,
              "duration": 0.675
            },
            {
              "pitch": 48,
              "velocity": 65,
              "position": 9.991667,
              "duration": 2.008333
            },
            {
              "pitch": 59,
              "velocity": 52,
              "position": 10.341667,
              "duration": 0.291667
            },
            {
              "pitch": 64,
              "velocity": 41,
              "position": 10.375,
              "duration": 0.125
            },
            {
              "pitch": 64,
              "velocity": 41,
              "position": 10.508333,
              "duration": 0.15
            },
            {
              "pitch": 59,
              "velocity": 61,
              "position": 10.641667,
              "duration": 1.008333
            },
            {
              "pitch": 64,
              "velocity": 55,
              "position": 10.675,
              "duration": 0.65
            },
            {
              "pitch": 67,
              "velocity": 41,
              "position": 10.691667,
              "duration": 0.266667
            },
            {
              "pitch": 67,
              "velocity": 68,
              "position": 11.0,
              "duration": 1.683333
            },
            {
              "pitch": 64,
              "velocity": 41,
              "position": 11.358333,
              "duration": 1.141667
            },
            {
              "pitch": 59,
              "velocity": 53,
              "position": 11.675,
              "duration": 0.666667
            },
            {
              "pitch": 48,
              "velocity": 72,
              "position": 12.008333,
              "duration": 1.991667
            },
            {
              "pitch": 59,
              "velocity": 63,
              "position": 12.35,
              "duration": 1.291667
            },
            {
              "pitch": 64,
              "velocity": 44,
              "position": 12.516667,
              "duration": 0.166667
            },
            {
              "pitch": 64,
              "velocity": 51,
              "position": 12.691667,
              "duration": 0.625
            },
            {
              "pitch": 67,
              "velocity": 41,
              "position": 12.733333,
              "duration": 0.233333
            },
            {
              "pitch": 67,
              "velocity": 79,
              "position": 13.016667,
              "duration": 1.708333
            },
            {
              "pitch": 64,
              "velocity": 45,
              "position": 13.358333,
              "duration": 1.025
            },
            {
              "pitch": 59,
              "velocity": 68,
              "position": 13.675,
              "duration": 0.7
            },
            {
              "pitch": 48,
              "velocity": 79,
              "position": 14.008333,
              "duration": 1.95
            },
            {
              "pitch": 55,
              "velocity": 54,
              "position": 14.358333,
              "duration": 1.6
            },
            {
              "pitch": 59,
              "velocity": 63,
              "position": 14.383333,
              "duration": 0.3
            },
            {
              "pitch": 64,
              "velocity": 41,
              "position": 14.408333,
              "duration": 0.141667
            },
            {
              "pitch": 59,
              "velocity": 53,
              "position": 14.691667,
              "duration": 0.966667
            },
            {
              "pitch": 64,
              "velocity": 48,
              "position": 14.708333,
              "duration": 0.625
            },
            {
              "pitch": 67,
              "velocity": 43,
              "position": 14.733333,
              "duration": 0.291667
            },
            {
              "pitch": 67,
              "velocity": 63,
              "position": 15.058333,
              "duration": 0.8
            },
            {
              "pitch": 64,
              "velocity": 44,
              "position": 15.366667,
              "duration": 0.575
            },
            {
              "pitch": 59,
              "velocity": 63,
              "position": 15.683333,
              "duration": 0.191667
            }
          ]
        },
        "13": {
          "ctab": {
            "srcChannel": 13,
            "name": "Strings",
            "accType": "PAD",
            "editable": true,
            "mutedNotes": [],
            "mutedChords": [],
            "sourceChordNote": 0,
            "sourceChordType": "Maj7",
            "ctb2Main": {
              "ntr": "ROOT_FIXED",
              "ntt": "MELODY",
              "bassOn": false,
              "noteLowLimit": 36,
              "noteHighLimit": 96,
              "chordRootUpperLimit": 127,
              "rtr": "PITCH_SHIFT"
            }
          },
          "notes": [
            {
              "pitch": 74,
              "velocity": 48,
              "position": 0.008333,
              "duration": 0.925
            },
            {
              "pitch": 71,
              "velocity": 68,
              "position": 0.016667,
              "duration": 1.458333
            },
            {
              "pitch": 79,
              "velocity": 66,
              "position": 0.016667,
              "duration": 0.883333
            },
            {
              "pitch": 76,
              "velocity": 62,
              "position": 0.025,
              "duration": 1.925
            },
            {
              "pitch": 79,
              "velocity": 66,
              "position": 0.975,
              "duration": 0.725
            },
            {
              "pitch": 74,
              "velocity": 3,
              "position": 0.983333,
              "duration": 0.933333
            },
            {
              "pitch": 71,
              "velocity": 42,
              "position": 1.65,
              "duration": 0.308333
            },
            {
              "pitch": 71,
              "velocity": 46,
              "position": 2.008333,
              "duration": 1.95
            },
            {
              "pitch": 74,
              "velocity": 48,
              "position": 2.008333,
              "duration": 1.95
            },
            {
              "pitch": 76,
              "velocity": 54,
              "position": 2.008333,
              "duration": 1.95
            },
            {
              "pitch": 67,
              "velocity": 53,
              "position": 2.016667,
              "duration": 1.941667
            },
            {
              "pitch": 71,
              "velocity": 54,
              "position": 4.0,
              "duration": 0.925
            },
            {
              "pitch": 76,
              "velocity": 57,
              "position": 4.0,
              "duration": 0.908333
            },
            {
              "pitch": 74,
              "velocity": 44,
              "position": 4.008333,
              "duration": 0.916667
            },
            {
              "pitch": 71,
              "velocity": 46,
              "position": 4.991667,
              "duration": 0.7
            },
            {
              "pitch": 76,
              "velocity": 55,
              "position": 4.991667,
              "duration": 0.625
            },
            {
              "pitch": 74,
              "velocity": 50,
              "position": 5.0,
              "duration": 0.65
            },
            {
              "pitch": 67,
              "velocity": 44,
              "position": 5.658333,
              "duration": 0.3
            },
            {
              "pitch": 83,
              "velocity": 64,
              "position": 6.025,
              "duration": 1.933333
            },
            {
              "pitch": 74,
              "velocity": 52,
              "position": 6.033333,
              "duration": 1.925
            },
            {
              "pitch": 76,
              "velocity": 60,
              "position": 6.05,
              "duration": 1.908333
            },
            {
              "pitch": 79,
              "velocity": 27,
              "position": 6.058333,
              "duration": 1.9
            },
            {
              "pitch": 71,
              "velocity": 59,
              "position": 8.016667,
              "duration": 7.95
            },
            {
              "pitch": 74,
              "velocity": 39,
              "position": 8.025,
              "duration": 3.883333
            },
            {
              "pitch": 76,
              "velocity": 60,
              "position": 8.025,
              "duration": 7.933333
            },
            {
              "pitch": 79,
              "velocity": 60,
              "position": 11.991667,
              "duration": 3.966667
            },
            {
              "pitch": 74,
              "velocity": 33,
              "position": 12.0,
              "duration": 3.95
            }
          ]
        }
      }
    },
    "Main_D": {
      "type": "Main_D",
      "sizeInBeats": 16,
      "channels": {
        "9": {
          "ctab": {
            "srcChannel": 9,
            "name": "Drums",
            "accType": "RHYTHM",
            "editable": false,
            "mutedNotes": [],
            "mutedChords": [],
            "sourceChordNote": 0,
            "sourceChordType": "Maj",
            "ctb2Main": {
              "ntr": "ROOT_FIXED",
              "ntt": "BYPASS",
              "bassOn": false,
              "noteLowLimit": 20,
              "noteHighLimit": 127,
              "chordRootUpperLimit": 127,
              "rtr": "RETRIGGER"
            }
          },
          "notes": [
            {
              "pitch": 35,
              "velocity": 85,
              "position": 0.0,
              "duration": 0.208333
            },
            {
              "pitch": 38,
              "velocity": 51,
              "position": 0.0,
              "duration": 0.208333
            },
            {
              "pitch": 57,
              "velocity": 92,
              "position": 0.0,
              "duration": 0.208333
            },
            {
              "pitch": 38,
              "velocity": 36,
              "position": 0.333333,
              "duration": 0.208333
            },
            {
              "pitch": 38,
              "velocity": 45,
              "position": 0.666667,
              "duration": 0.208333
            },
            {
              "pitch": 38,
              "velocity": 118,
              "position": 1.0,
              "duration": 0.208333
            },
            {
              "pitch": 44,
              "velocity": 127,
              "position": 1.0,
              "duration": 0.208333
            },
            {
              "pitch": 38,
              "velocity": 40,
              "position": 1.666667,
              "duration": 0.208333
            },
            {
              "pitch": 35,
              "velocity": 81,
              "position": 2.0,
              "duration": 0.208333
            },
            {
              "pitch": 38,
              "velocity": 42,
              "position": 2.0,
              "duration": 0.208333
            },
            {
              "pitch": 38,
              "velocity": 36,
              "position": 2.333333,
              "duration": 0.208333
            },
            {
              "pitch": 38,
              "velocity": 36,
              "position": 2.666667,
              "duration": 0.208333
            },
            {
              "pitch": 38,
              "velocity": 127,
              "position": 3.0,
              "duration": 0.208333
            },
            {
              "pitch": 44,
              "velocity": 127,
              "position": 3.0,
              "duration": 0.208333
            },
            {
              "pitch": 38,
              "velocity": 36,
              "position": 3.333333,
              "duration": 0.166667
            },
            {
              "pitch": 38,
              "velocity": 28,
              "position": 3.5,
              "duration": 0.041667
            },
            {
              "pitch": 38,
              "velocity": 117,
              "position": 3.666667,
              "duration": 0.041667
            },
            {
              "pitch": 35,
              "velocity": 79,
              "position": 4.0,
              "duration": 0.208333
            },
            {
              "pitch": 38,
              "velocity": 56,
              "position": 4.0,
              "duration": 0.208333
            },
            {
              "pitch": 38,
              "velocity": 36,
              "position": 4.333333,
              "duration": 0.208333
            },
            {
              "pitch": 38,
              "velocity": 44,
              "position": 4.666667,
              "duration": 0.208333
            },
            {
              "pitch": 38,
              "velocity": 127,
              "position": 5.0,
              "duration": 0.208333
            },
            {
              "pitch": 44,
              "velocity": 127,
              "position": 5.0,
              "duration": 0.208333
            },
            {
              "pitch": 35,
              "velocity": 49,
              "position": 5.666667,
              "duration": 0.208333
            },
            {
              "pitch": 38,
              "velocity": 36,
              "position": 5.666667,
              "duration": 0.208333
            },
            {
              "pitch": 35,
              "velocity": 75,
              "position": 6.0,
              "duration": 0.208333
            },
            {
              "pitch": 38,
              "velocity": 44,
              "position": 6.0,
              "duration": 0.208333
            },
            {
              "pitch": 38,
              "velocity": 36,
              "position": 6.333333,
              "duration": 0.208333
            },
            {
              "pitch": 38,
              "velocity": 51,
              "position": 6.666667,
              "duration": 0.208333
            },
            {
              "pitch": 38,
              "velocity": 119,
              "position": 7.0,
              "duration": 0.166667
            },
            {
              "pitch": 44,
              "velocity": 127,
              "position": 7.0,
              "duration": 0.208333
            },
            {
              "pitch": 38,
              "velocity": 95,
              "position": 7.166667,
              "duration": 0.041667
            },
            {
              "pitch": 38,
              "velocity": 38,
              "position": 7.333333,
              "duration": 0.041667
            },
            {
              "pitch": 38,
              "velocity": 30,
              "position": 7.5,
              "duration": 0.041667
            },
            {
              "pitch": 35,
              "velocity": 74,
              "position": 7.666667,
              "duration": 0.208333
            },
            {
              "pitch": 59,
              "velocity": 60,
              "position": 7.666667,
              "duration": 0.208333
            },
            {
              "pitch": 35,
              "velocity": 96,
              "position": 8.0,
              "duration": 0.208333
            },
            {
              "pitch": 59,
              "velocity": 68,
              "position": 8.0,
              "duration": 0.208333
            },
            {
              "pitch": 38,
              "velocity": 36,
              "position": 8.666667,
              "duration": 0.208333
            },
            {
              "pitch": 38,
              "velocity": 127,
              "position": 9.0,
              "duration": 0.208333
            },
            {
              "pitch": 44,
              "velocity": 127,
              "position": 9.0,
              "duration": 0.208333
            },
            {
              "pitch": 35,
              "velocity": 44,
              "position": 9.666667,
              "duration": 0.208333
            },
            {
              "pitch": 38,
              "velocity": 40,
              "position": 9.666667,
              "duration": 0.208333
            },
            {
              "pitch": 35,
              "velocity": 75,
              "position": 10.0,
              "duration": 0.208333
            },
            {
              "pitch": 38,
              "velocity": 50,
              "position": 10.0,
              "duration": 0.208333
            },
            {
              "pitch": 38,
              "velocity": 36,
              "position": 10.666667,
              "duration": 0.208333
            },
            {
              "pitch": 38,
              "velocity": 127,
              "position": 11.0,
              "duration": 0.208333
            },
            {
              "pitch": 44,
              "velocity": 127,
              "position": 11.0,
              "duration": 0.208333
            },
            {
              "pitch": 35,
              "velocity": 87,
              "position": 12.0,
              "duration": 0.208333
            },
            {
              "pitch": 38,
              "velocity": 43,
              "position": 12.0,
              "duration": 0.208333
            },
            {
              "pitch": 38,
              "velocity": 36,
              "position": 12.333333,
              "duration": 0.208333
            },
            {
              "pitch": 38,
              "velocity": 42,
              "position": 12.666667,
              "duration": 0.208333
            },
            {
              "pitch": 38,
              "velocity": 120,
              "position": 13.0,
              "duration": 0.208333
            },
            {
              "pitch": 44,
              "velocity": 127,
              "position": 13.0,
              "duration": 0.208333
            },
            {
              "pitch": 38,
              "velocity": 36,
              "position": 13.333333,
              "duration": 0.208333
            },
            {
              "pitch": 38,
              "velocity": 44,
              "position": 13.666667,
              "duration": 0.208333
            },
            {
              "pitch": 35,
              "velocity": 87,
              "position": 14.0,
              "duration": 0.208333
            },
            {
              "pitch": 38,
              "velocity": 50,
              "position": 14.0,
              "duration": 0.208333
            },
            {
              "pitch": 38,
              "velocity": 44,
              "position": 14.333333,
              "duration": 0.166667
            },
            {
              "pitch": 38,
              "velocity": 35,
              "position": 14.5,
              "duration": 0.041667
            },
            {
              "pitch": 38,
              "velocity": 65,
              "position": 14.666667,
              "duration": 0.041667
            },
            {
              "pitch": 44,
              "velocity": 120,
              "position": 15.0,
              "duration": 0.208333
            },
            {
              "pitch": 47,
              "velocity": 56,
              "position": 15.0,
              "duration": 0.208333
            },
            {
              "pitch": 48,
              "velocity": 43,
              "position": 15.0,
              "duration": 0.208333
            },
            {
              "pitch": 38,
              "velocity": 63,
              "position": 15.333333,
              "duration": 0.208333
            },
            {
              "pitch": 38,
              "velocity": 82,
              "position": 15.666667,
              "duration": 0.208333
            },
            {
              "pitch": 45,
              "velocity": 127,
              "position": 15.666667,
              "duration": 0.208333
            }
          ]
        },
        "10": {
          "ctab": {
            "srcChannel": 10,
            "name": "Bass",
            "accType": "BASS",
            "editable": true,
            "mutedNotes": [],
            "mutedChords": [],
            "sourceChordNote": 0,
            "sourceChordType": "Maj7",
            "ctb2Main": {
              "ntr": "ROOT_TRANSPOSITION",
              "ntt": "BYPASS",
              "bassOn": true,
              "noteLowLimit": 20,
              "noteHighLimit": 60,
              "chordRootUpperLimit": 127,
              "rtr": "NOTE_GENERATOR"
            }
          },
          "notes": [
            {
              "pitch": 36,
              "velocity": 94,
              "position": 0.0,
              "duration": 1.991667
            },
            {
              "pitch": 36,
              "velocity": 92,
              "position": 2.0,
              "duration": 1.333333
            },
            {
              "pitch": 36,
              "velocity": 83,
              "position": 3.333333,
              "duration": 0.15
            },
            {
              "pitch": 43,
              "velocity": 64,
              "position": 3.666667,
              "duration": 0.133333
            },
            {
              "pitch": 36,
              "velocity": 83,
              "position": 4.0,
              "duration": 1.958333
            },
            {
              "pitch": 36,
              "velocity": 91,
              "position": 6.0,
              "duration": 1.283333
            },
            {
              "pitch": 36,
              "velocity": 77,
              "position": 7.333333,
              "duration": 0.15
            },
            {
              "pitch": 43,
              "velocity": 81,
              "position": 7.666667,
              "duration": 0.2
            },
            {
              "pitch": 36,
              "velocity": 92,
              "position": 8.0,
              "duration": 1.633333
            },
            {
              "pitch": 36,
              "velocity": 85,
              "position": 9.65,
              "duration": 0.1
            },
            {
              "pitch": 43,
              "velocity": 87,
              "position": 10.033333,
              "duration": 1.166667
            },
            {
              "pitch": 43,
              "velocity": 83,
              "position": 11.325,
              "duration": 0.125
            },
            {
              "pitch": 31,
              "velocity": 79,
              "position": 11.65,
              "duration": 0.066667
            },
            {
              "pitch": 36,
              "velocity": 91,
              "position": 12.025,
              "duration": 1.4
            },
            {
              "pitch": 36,
              "velocity": 49,
              "position": 13.566667,
              "duration": 0.033333
            },
            {
              "pitch": 36,
              "velocity": 90,
              "position": 13.641667,
              "duration": 0.116667
            },
            {
              "pitch": 43,
              "velocity": 79,
              "position": 14.0,
              "duration": 1.1
            },
            {
              "pitch": 36,
              "velocity": 83,
              "position": 15.333333,
              "duration": 0.091667
            },
            {
              "pitch": 31,
              "velocity": 66,
              "position": 15.65,
              "duration": 0.1
            }
          ]
        },
        "11": {
          "ctab": {
            "srcChannel": 11,
            "name": "Piano",
            "accType": "CHORD1",
            "editable": true,
            "mutedNotes": [],
            "mutedChords": [],
            "sourceChordNote": 0,
            "sourceChordType": "Maj7",
            "ctb2Main": {
              "ntr": "ROOT_FIXED",
              "ntt": "CHORD",
              "bassOn": false,
              "noteLowLimit": 48,
              "noteHighLimit": 84,
              "chordRootUpperLimit": 127,
              "rtr": "NOTE_GENERATOR"
            }
          },
          "notes": [
            {
              "pitch": 59,
              "velocity": 88,
              "position": 0.0,
              "duration": 0.875
            },
            {
              "pitch": 67,
              "velocity": 78,
              "position": 0.008333,
              "duration": 0.775
            },
            {
              "pitch": 71,
              "velocity": 64,
              "position": 0.008333,
              "duration": 0.758333
            },
            {
              "pitch": 36,
              "velocity": 58,
              "position": 0.016667,
              "duration": 1.183333
            },
            {
              "pitch": 48,
              "velocity": 70,
              "position": 0.016667,
              "duration": 1.116667
            },
            {
              "pitch": 64,
              "velocity": 56,
              "position": 0.016667,
              "duration": 0.7
            },
            {
              "pitch": 67,
              "velocity": 87,
              "position": 0.983333,
              "duration": 0.466667
            },
            {
              "pitch": 71,
              "velocity": 80,
              "position": 0.983333,
              "duration": 0.458333
            },
            {
              "pitch": 64,
              "velocity": 72,
              "position": 0.991667,
              "duration": 0.358333
            },
            {
              "pitch": 48,
              "velocity": 49,
              "position": 1.633333,
              "duration": 0.325
            },
            {
              "pitch": 59,
              "velocity": 74,
              "position": 1.633333,
              "duration": 0.325
            },
            {
              "pitch": 36,
              "velocity": 70,
              "position": 2.0,
              "duration": 1.783333
            },
            {
              "pitch": 59,
              "velocity": 88,
              "position": 2.0,
              "duration": 0.708333
            },
            {
              "pitch": 48,
              "velocity": 74,
              "position": 2.008333,
              "duration": 0.625
            },
            {
              "pitch": 64,
              "velocity": 80,
              "position": 2.008333,
              "duration": 0.808333
            },
            {
              "pitch": 59,
              "velocity": 86,
              "position": 2.991667,
              "duration": 0.191667
            },
            {
              "pitch": 64,
              "velocity": 68,
              "position": 3.008333,
              "duration": 0.166667
            },
            {
              "pitch": 48,
              "velocity": 38,
              "position": 3.683333,
              "duration": 0.275
            },
            {
              "pitch": 48,
              "velocity": 74,
              "position": 4.016667,
              "duration": 1.116667
            },
            {
              "pitch": 59,
              "velocity": 89,
              "position": 4.016667,
              "duration": 0.858333
            },
            {
              "pitch": 36,
              "velocity": 74,
              "position": 4.025,
              "duration": 1.433333
            },
            {
              "pitch": 60,
              "velocity": 70,
              "position": 4.025,
              "duration": 0.825
            },
            {
              "pitch": 67,
              "velocity": 78,
              "position": 4.033333,
              "duration": 0.825
            },
            {
              "pitch": 64,
              "velocity": 19,
              "position": 4.05,
              "duration": 0.875
            },
            {
              "pitch": 59,
              "velocity": 74,
              "position": 5.008333,
              "duration": 0.208333
            },
            {
              "pitch": 67,
              "velocity": 74,
              "position": 5.016667,
              "duration": 0.291667
            },
            {
              "pitch": 60,
              "velocity": 50,
              "position": 5.025,
              "duration": 0.308333
            },
            {
              "pitch": 64,
              "velocity": 25,
              "position": 5.041667,
              "duration": 0.283333
            },
            {
              "pitch": 48,
              "velocity": 53,
              "position": 5.691667,
              "duration": 0.266667
            },
            {
              "pitch": 48,
              "velocity": 72,
              "position": 6.0,
              "duration": 1.291667
            },
            {
              "pitch": 59,
              "velocity": 89,
              "position": 6.0,
              "duration": 1.45
            },
            {
              "pitch": 67,
              "velocity": 88,
              "position": 6.0,
              "duration": 1.483333
            },
            {
              "pitch": 36,
              "velocity": 60,
              "position": 6.008333,
              "duration": 1.391667
            },
            {
              "pitch": 64,
              "velocity": 78,
              "position": 6.016667,
              "duration": 1.441667
            },
            {
              "pitch": 48,
              "velocity": 72,
              "position": 8.0,
              "duration": 1.291667
            },
            {
              "pitch": 59,
              "velocity": 89,
              "position": 8.0,
              "duration": 1.45
            },
            {
              "pitch": 67,
              "velocity": 88,
              "position": 8.0,
              "duration": 1.483333
            },
            {
              "pitch": 36,
              "velocity": 60,
              "position": 8.008333,
              "duration": 1.391667
            },
            {
              "pitch": 64,
              "velocity": 78,
              "position": 8.016667,
              "duration": 1.441667
            },
            {
              "pitch": 48,
              "velocity": 48,
              "position": 9.658333,
              "duration": 1.683333
            },
            {
              "pitch": 59,
              "velocity": 74,
              "position": 10.025,
              "duration": 0.808333
            },
            {
              "pitch": 60,
              "velocity": 64,
              "position": 10.025,
              "duration": 0.866667
            },
            {
              "pitch": 64,
              "velocity": 62,
              "position": 10.025,
              "duration": 0.816667
            },
            {
              "pitch": 59,
              "velocity": 90,
              "position": 11.033333,
              "duration": 0.416667
            },
            {
              "pitch": 60,
              "velocity": 72,
              "position": 11.041667,
              "duration": 0.425
            },
            {
              "pitch": 64,
              "velocity": 70,
              "position": 11.041667,
              "duration": 0.491667
            },
            {
              "pitch": 48,
              "velocity": 56,
              "position": 11.691667,
              "duration": 1.708333
            },
            {
              "pitch": 36,
              "velocity": 74,
              "position": 12.033333,
              "duration": 1.633333
            },
            {
              "pitch": 59,
              "velocity": 88,
              "position": 12.033333,
              "duration": 1.483333
            },
            {
              "pitch": 67,
              "velocity": 86,
              "position": 12.041667,
              "duration": 1.383333
            },
            {
              "pitch": 64,
              "velocity": 70,
              "position": 12.091667,
              "duration": 1.35
            },
            {
              "pitch": 48,
              "velocity": 60,
              "position": 13.658333,
              "duration": 0.783333
            },
            {
              "pitch": 55,
              "velocity": 74,
              "position": 14.016667,
              "duration": 0.441667
            },
            {
              "pitch": 64,
              "velocity": 68,
              "position": 14.016667,
              "duration": 0.608333
            },
            {
              "pitch": 59,
              "velocity": 80,
              "position": 14.025,
              "duration": 0.625
            },
            {
              "pitch": 36,
              "velocity": 53,
              "position": 14.041667,
              "duration": 1.916667
            },
            {
              "pitch": 48,
              "velocity": 58,
              "position": 14.641667,
              "duration": 1.166667
            },
            {
              "pitch": 55,
              "velocity": 70,
              "position": 14.65,
              "duration": 0.3
            },
            {
              "pitch": 59,
              "velocity": 87,
              "position": 15.008333,
              "duration": 0.791667
            },
            {
              "pitch": 67,
              "velocity": 84,
              "position": 15.016667,
              "duration": 0.766667
            },
            {
              "pitch": 64,
              "velocity": 64,
              "position": 15.033333,
              "duration": 0.758333
            }
          ]
        },
        "12": {
          "ctab": {
            "srcChannel": 12,
            "name": "Guitar",
            "accType": "CHORD2",
            "editable": true,
            "mutedNotes": [],
            "mutedChords": [],
            "sourceChordNote": 0,
            "sourceChordType": "Maj7",
            "ctb2Main": {
              "ntr": "ROOT_FIXED",
              "ntt": "CHORD",
              "bassOn": false,
              "noteLowLimit": 40,
              "noteHighLimit": 76,
              "chordRootUpperLimit": 127,
              "rtr": "NOTE_GENERATOR"
            }
          },
          "notes": [
            {
              "pitch": 48,
              "velocity": 70,
              "position": 0.05,
              "duration": 1.908333
            },
            {
              "pitch": 55,
              "velocity": 46,
              "position": 0.35,
              "duration": 1.608333
            },
            {
              "pitch": 59,
              "velocity": 41,
              "position": 0.383333,
              "duration": 1.275
            },
            {
              "pitch": 64,
              "velocity": 52,
              "position": 0.525,
              "duration": 0.15
            },
            {
              "pitch": 64,
              "velocity": 53,
              "position": 0.7,
              "duration": 0.641667
            },
            {
              "pitch": 67,
              "velocity": 70,
              "position": 1.05,
              "duration": 0.908333
            },
            {
              "pitch": 64,
              "velocity": 49,
              "position": 1.383333,
              "duration": 0.575
            },
            {
              "pitch": 59,
              "velocity": 65,
              "position": 1.691667,
              "duration": 0.266667
            },
            {
              "pitch": 48,
              "velocity": 70,
              "position": 2.05,
              "duration": 1.908333
            },
            {
              "pitch": 55,
              "velocity": 46,
              "position": 2.35,
              "duration": 1.608333
            },
            {
              "pitch": 59,
              "velocity": 41,
              "position": 2.383333,
              "duration": 1.275
            },
            {
              "pitch": 64,
              "velocity": 52,
              "position": 2.525,
              "duration": 0.15
            },
            {
              "pitch": 64,
              "velocity": 53,
              "position": 2.7,
              "duration": 0.641667
            },
            {
              "pitch": 67,
              "velocity": 70,
              "position": 3.05,
              "duration": 0.908333
            },
            {
              "pitch": 64,
              "velocity": 49,
              "position": 3.383333,
              "duration": 0.575
            },
            {
              "pitch": 59,
              "velocity": 65,
              "position": 3.691667,
              "duration": 0.266667
            },
            {
              "pitch": 48,
              "velocity": 68,
              "position": 4.008333,
              "duration": 1.95
            },
            {
              "pitch": 55,
              "velocity": 53,
              "position": 4.358333,
              "duration": 1.6
            },
            {
              "pitch": 64,
              "velocity": 48,
              "position": 4.525,
              "duration": 0.158333
            },
            {
              "pitch": 64,
              "velocity": 52,
              "position": 4.691667,
              "duration": 0.608333
            },
            {
              "pitch": 67,
              "velocity": 70,
              "position": 4.991667,
              "duration": 0.966667
            },
            {
              "pitch": 64,
              "velocity": 45,
              "position": 5.333333,
              "duration": 0.625
            },
            {
              "pitch": 59,
              "velocity": 60,
              "position": 5.658333,
              "duration": 0.3
            },
            {
              "pitch": 48,
              "velocity": 67,
              "position": 6.008333,
              "duration": 1.95
            },
            {
              "pitch": 55,
              "velocity": 61,
              "position": 6.333333,
              "duration": 1.358333
            },
            {
              "pitch": 59,
              "velocity": 60,
              "position": 6.666667,
              "duration": 1.291667
            },
            {
              "pitch": 64,
              "velocity": 43,
              "position": 6.7,
              "duration": 0.283333
            },
            {
              "pitch": 64,
              "velocity": 68,
              "position": 7.008333,
              "duration": 0.95
            },
            {
              "pitch": 67,
              "velocity": 61,
              "position": 7.033333,
              "duration": 0.333333
            },
            {
              "pitch": 55,
              "velocity": 59,
              "position": 7.7,
              "duration": 0.258333
            },
            {
              "pitch": 48,
              "velocity": 62,
              "position": 8.0,
              "duration": 2.0
            },
            {
              "pitch": 55,
              "velocity": 46,
              "position": 8.325,
              "duration": 1.991667
            },
            {
              "pitch": 59,
              "velocity": 42,
              "position": 8.5,
              "duration": 1.141667
            },
            {
              "pitch": 64,
              "velocity": 41,
              "position": 8.666667,
              "duration": 0.608333
            },
            {
              "pitch": 67,
              "velocity": 69,
              "position": 9.008333,
              "duration": 1.933333
            },
            {
              "pitch": 64,
              "velocity": 53,
              "position": 9.35,
              "duration": 1.308333
            },
            {
              "pitch": 59,
              "velocity": 61,
              "position": 9.658333,
              "duration": 0.841667
            },
            {
              "pitch": 48,
              "velocity": 61,
              "position": 10.008333,
              "duration": 1.991667
            },
            {
              "pitch": 55,
              "velocity": 52,
              "position": 10.333333,
              "duration": 1.983333
            },
            {
              "pitch": 59,
              "velocity": 41,
              "position": 10.508333,
              "duration": 1.141667
            },
            {
              "pitch": 64,
              "velocity": 51,
              "position": 10.675,
              "duration": 0.625
            },
            {
              "pitch": 67,
              "velocity": 82,
              "position": 10.991667,
              "duration": 2.033333
            },
            {
              "pitch": 64,
              "velocity": 59,
              "position": 11.325,
              "duration": 1.366667
            },
            {
              "pitch": 59,
              "velocity": 67,
              "position": 11.658333,
              "duration": 1.0
            },
            {
              "pitch": 48,
              "velocity": 67,
              "position": 12.008333,
              "duration": 3.55
            },
            {
              "pitch": 55,
              "velocity": 61,
              "position": 12.333333,
              "duration": 1.358333
            },
            {
              "pitch": 59,
              "velocity": 60,
              "position": 12.666667,
              "duration": 1.366667
            },
            {
              "pitch": 64,
              "velocity": 43,
              "position": 12.7,
              "duration": 0.283333
            },
            {
              "pitch": 64,
              "velocity": 68,
              "position": 13.008333,
              "duration": 1.041667
            },
            {
              "pitch": 67,
              "velocity": 61,
              "position": 13.033333,
              "duration": 0.333333
            },
            {
              "pitch": 55,
              "velocity": 59,
              "position": 13.7,
              "duration": 2.258333
            },
            {
              "pitch": 59,
              "velocity": 63,
              "position": 14.041667,
              "duration": 0.641667
            },
            {
              "pitch": 64,
              "velocity": 52,
              "position": 14.058333,
              "duration": 0.641667
            },
            {
              "pitch": 59,
              "velocity": 70,
              "position": 14.691667,
              "duration": 0.316667
            },
            {
              "pitch": 64,
              "velocity": 55,
              "position": 14.708333,
              "duration": 0.316667
            },
            {
              "pitch": 67,
              "velocity": 41,
              "position": 14.725,
              "duration": 0.325
            },
            {
              "pitch": 59,
              "velocity": 67,
              "position": 15.016667,
              "duration": 0.316667
            },
            {
              "pitch": 64,
              "velocity": 65,
              "position": 15.041667,
              "duration": 0.316667
            },
            {
              "pitch": 67,
              "velocity": 43,
              "position": 15.058333,
              "duration": 0.308333
            },
            {
              "pitch": 59,
              "velocity": 76,
              "position": 15.341667,
              "duration": 0.316667
            },
            {
              "pitch": 64,
              "velocity": 68,
              "position": 15.366667,
              "duration": 0.308333
            },
            {
              "pitch": 59,
              "velocity": 67,
              "position": 15.666667,
              "duration": 0.291667
            },
            {
              "pitch": 64,
              "velocity": 72,
              "position": 15.683333,
              "duration": 0.275
            },
            {
              "pitch": 67,
              "velocity": 67,
              "position": 15.691667,
              "duration": 0.266667
            }
          ]
        },
        "13": {
          "ctab": {
            "srcChannel": 13,
            "name": "Strings",
            "accType": "PAD",
            "editable": true,
            "mutedNotes": [],
            "mutedChords": [],
            "sourceChordNote": 0,
            "sourceChordType": "Maj7",
            "ctb2Main": {
              "ntr": "ROOT_FIXED",
              "ntt": "MELODY",
              "bassOn": false,
              "noteLowLimit": 36,
              "noteHighLimit": 96,
              "chordRootUpperLimit": 127,
              "rtr": "PITCH_SHIFT"
            }
          },
          "notes": [
            {
              "pitch": 71,
              "velocity": 46,
              "position": 0.008333,
              "duration": 1.95
            },
            {
              "pitch": 74,
              "velocity": 48,
              "position": 0.008333,
              "duration": 1.95
            },
            {
              "pitch": 76,
              "velocity": 54,
              "position": 0.008333,
              "duration": 1.95
            },
            {
              "pitch": 67,
              "velocity": 53,
              "position": 0.016667,
              "duration": 1.941667
            },
            {
              "pitch": 71,
              "velocity": 61,
              "position": 2.033333,
              "duration": 0.241667
            },
            {
              "pitch": 67,
              "velocity": 63,
              "position": 2.041667,
              "duration": 0.216667
            },
            {
              "pitch": 74,
              "velocity": 61,
              "position": 2.041667,
              "duration": 0.241667
            },
            {
              "pitch": 76,
              "velocity": 63,
              "position": 2.041667,
              "duration": 0.233333
            },
            {
              "pitch": 67,
              "velocity": 43,
              "position": 2.358333,
              "duration": 0.075
            },
            {
              "pitch": 76,
              "velocity": 51,
              "position": 2.358333,
              "duration": 0.116667
            },
            {
              "pitch": 71,
              "velocity": 35,
              "position": 2.366667,
              "duration": 0.083333
            },
            {
              "pitch": 74,
              "velocity": 23,
              "position": 2.375,
              "duration": 0.091667
            },
            {
              "pitch": 67,
              "velocity": 39,
              "position": 2.7,
              "duration": 0.041667
            },
            {
              "pitch": 67,
              "velocity": 66,
              "position": 3.016667,
              "duration": 0.433333
            },
            {
              "pitch": 71,
              "velocity": 64,
              "position": 3.016667,
              "duration": 0.841667
            },
            {
              "pitch": 74,
              "velocity": 61,
              "position": 3.016667,
              "duration": 0.883333
            },
            {
              "pitch": 76,
              "velocity": 66,
              "position": 3.016667,
              "duration": 0.891667
            },
            {
              "pitch": 67,
              "velocity": 7,
              "position": 3.616667,
              "duration": 0.341667
            },
            {
              "pitch": 71,
              "velocity": 61,
              "position": 4.033333,
              "duration": 0.241667
            },
            {
              "pitch": 67,
              "velocity": 63,
              "position": 4.041667,
              "duration": 0.216667
            },
            {
              "pitch": 74,
              "velocity": 61,
              "position": 4.041667,
              "duration": 0.241667
            },
            {
              "pitch": 76,
              "velocity": 63,
              "position": 4.041667,
              "duration": 0.233333
            },
            {
              "pitch": 67,
              "velocity": 43,
              "position": 4.358333,
              "duration": 0.075
            },
            {
              "pitch": 76,
              "velocity": 51,
              "position": 4.358333,
              "duration": 0.116667
            },
            {
              "pitch": 71,
              "velocity": 35,
              "position": 4.366667,
              "duration": 0.083333
            },
            {
              "pitch": 74,
              "velocity": 23,
              "position": 4.375,
              "duration": 0.091667
            },
            {
              "pitch": 67,
              "velocity": 39,
              "position": 4.7,
              "duration": 0.041667
            },
            {
              "pitch": 67,
              "velocity": 66,
              "position": 5.016667,
              "duration": 0.433333
            },
            {
              "pitch": 71,
              "velocity": 64,
              "position": 5.016667,
              "duration": 0.841667
            },
            {
              "pitch": 74,
              "velocity": 61,
              "position": 5.016667,
              "duration": 0.883333
            },
            {
              "pitch": 76,
              "velocity": 66,
              "position": 5.016667,
              "duration": 0.891667
            },
            {
              "pitch": 67,
              "velocity": 7,
              "position": 5.616667,
              "duration": 0.341667
            },
            {
              "pitch": 71,
              "velocity": 52,
              "position": 6.0,
              "duration": 1.941667
            },
            {
              "pitch": 67,
              "velocity": 50,
              "position": 6.008333,
              "duration": 1.941667
            },
            {
              "pitch": 74,
              "velocity": 42,
              "position": 6.008333,
              "duration": 1.925
            },
            {
              "pitch": 76,
              "velocity": 57,
              "position": 6.008333,
              "duration": 1.925
            },
            {
              "pitch": 71,
              "velocity": 59,
              "position": 8.016667,
              "duration": 7.95
            },
            {
              "pitch": 74,
              "velocity": 39,
              "position": 8.025,
              "duration": 3.883333
            },
            {
              "pitch": 76,
              "velocity": 60,
              "position": 8.025,
              "duration": 7.933333
            },
            {
              "pitch": 79,
              "velocity": 60,
              "position": 11.991667,
              "duration": 3.966667
            },
            {
              "pitch": 74,
              "velocity": 33,
              "position": 12.0,
              "duration": 3.95
            }
          ]
        }
      }
    },
    "Fill_In_AA": {
      "type": "Fill_In_AA",
      "sizeInBeats": 16,
      "channels": {
        "9": {
          "ctab": {
            "srcChannel": 9,
            "name": "Drums",
            "accType": "RHYTHM",
            "editable": false,
            "mutedNotes": [],
            "mutedChords": [],
            "sourceChordNote": 0,
            "sourceChordType": "Maj",
            "ctb2Main": {
              "ntr": "ROOT_FIXED",
              "ntt": "BYPASS",
              "bassOn": false,
              "noteLowLimit": 20,
              "noteHighLimit": 127,
              "chordRootUpperLimit": 127,
              "rtr": "RETRIGGER"
            }
          },
          "notes": [
            {
              "pitch": 35,
              "velocity": 96,
              "position": 0.0,
              "duration": 0.208333
            },
            {
              "pitch": 57,
              "velocity": 90,
              "position": 0.0,
              "duration": 0.208333
            },
            {
              "pitch": 38,
              "velocity": 36,
              "position": 0.666667,
              "duration": 0.208333
            },
            {
              "pitch": 38,
              "velocity": 127,
              "position": 1.0,
              "duration": 0.208333
            },
            {
              "pitch": 44,
              "velocity": 127,
              "position": 1.0,
              "duration": 0.208333
            },
            {
              "pitch": 35,
              "velocity": 44,
              "position": 1.666667,
              "duration": 0.208333
            },
            {
              "pitch": 38,
              "velocity": 40,
              "position": 1.666667,
              "duration": 0.208333
            },
            {
              "pitch": 35,
              "velocity": 75,
              "position": 2.0,
              "duration": 0.208333
            },
            {
              "pitch": 38,
              "velocity": 50,
              "position": 2.0,
              "duration": 0.208333
            },
            {
              "pitch": 38,
              "velocity": 36,
              "position": 2.666667,
              "duration": 0.208333
            },
            {
              "pitch": 38,
              "velocity": 127,
              "position": 3.0,
              "duration": 0.208333
            },
            {
              "pitch": 44,
              "velocity": 127,
              "position": 3.0,
              "duration": 0.208333
            },
            {
              "pitch": 35,
              "velocity": 86,
              "position": 4.0,
              "duration": 0.208333
            },
            {
              "pitch": 38,
              "velocity": 52,
              "position": 4.0,
              "duration": 0.208333
            },
            {
              "pitch": 38,
              "velocity": 36,
              "position": 4.333333,
              "duration": 0.208333
            },
            {
              "pitch": 38,
              "velocity": 53,
              "position": 4.666667,
              "duration": 0.208333
            },
            {
              "pitch": 38,
              "velocity": 127,
              "position": 5.0,
              "duration": 0.208333
            },
            {
              "pitch": 44,
              "velocity": 127,
              "position": 5.0,
              "duration": 0.208333
            },
            {
              "pitch": 35,
              "velocity": 52,
              "position": 5.666667,
              "duration": 0.208333
            },
            {
              "pitch": 38,
              "velocity": 40,
              "position": 5.666667,
              "duration": 0.208333
            },
            {
              "pitch": 35,
              "velocity": 87,
              "position": 6.0,
              "duration": 0.208333
            },
            {
              "pitch": 38,
              "velocity": 49,
              "position": 6.0,
              "duration": 0.208333
            },
            {
              "pitch": 38,
              "velocity": 36,
              "position": 6.333333,
              "duration": 0.208333
            },
            {
              "pitch": 38,
              "velocity": 49,
              "position": 6.666667,
              "duration": 0.208333
            },
            {
              "pitch": 38,
              "velocity": 127,
              "position": 7.0,
              "duration": 0.166667
            },
            {
              "pitch": 44,
              "velocity": 127,
              "position": 7.0,
              "duration": 0.208333
            },
            {
              "pitch": 38,
              "velocity": 101,
              "position": 7.166667,
              "duration": 0.041667
            },
            {
              "pitch": 38,
              "velocity": 50,
              "position": 7.333333,
              "duration": 0.041667
            },
            {
              "pitch": 35,
              "velocity": 75,
              "position": 7.666667,
              "duration": 0.208333
            },
            {
              "pitch": 51,
              "velocity": 70,
              "position": 7.666667,
              "duration": 0.208333
            },
            {
              "pitch": 35,
              "velocity": 97,
              "position": 8.0,
              "duration": 0.208333
            },
            {
              "pitch": 51,
              "velocity": 68,
              "position": 8.0,
              "duration": 0.208333
            },
            {
              "pitch": 38,
              "velocity": 52,
              "position": 8.666667,
              "duration": 0.208333
            },
            {
              "pitch": 38,
              "velocity": 127,
              "position": 9.0,
              "duration": 0.208333
            },
            {
              "pitch": 44,
              "velocity": 127,
              "position": 9.0,
              "duration": 0.208333
            },
            {
              "pitch": 35,
              "velocity": 57,
              "position": 9.666667,
              "duration": 0.208333
            },
            {
              "pitch": 38,
              "velocity": 35,
              "position": 9.666667,
              "duration": 0.208333
            },
            {
              "pitch": 35,
              "velocity": 80,
              "position": 10.0,
              "duration": 0.208333
            },
            {
              "pitch": 38,
              "velocity": 44,
              "position": 10.0,
              "duration": 0.208333
            },
            {
              "pitch": 38,
              "velocity": 42,
              "position": 10.666667,
              "duration": 0.208333
            },
            {
              "pitch": 38,
              "velocity": 122,
              "position": 11.0,
              "duration": 0.208333
            },
            {
              "pitch": 44,
              "velocity": 127,
              "position": 11.0,
              "duration": 0.208333
            },
            {
              "pitch": 38,
              "velocity": 44,
              "position": 11.666667,
              "duration": 0.208333
            },
            {
              "pitch": 35,
              "velocity": 91,
              "position": 12.0,
              "duration": 0.208333
            },
            {
              "pitch": 38,
              "velocity": 49,
              "position": 12.0,
              "duration": 0.208333
            },
            {
              "pitch": 38,
              "velocity": 40,
              "position": 12.333333,
              "duration": 0.208333
            },
            {
              "pitch": 38,
              "velocity": 45,
              "position": 12.666667,
              "duration": 0.208333
            },
            {
              "pitch": 38,
              "velocity": 127,
              "position": 13.0,
              "duration": 0.208333
            },
            {
              "pitch": 44,
              "velocity": 127,
              "position": 13.0,
              "duration": 0.208333
            },
            {
              "pitch": 38,
              "velocity": 36,
              "position": 13.333333,
              "duration": 0.208333
            },
            {
              "pitch": 38,
              "velocity": 40,
              "position": 13.666667,
              "duration": 0.208333
            },
            {
              "pitch": 35,
              "velocity": 80,
              "position": 14.0,
              "duration": 0.208333
            },
            {
              "pitch": 38,
              "velocity": 46,
              "position": 14.0,
              "duration": 0.208333
            },
            {
              "pitch": 38,
              "velocity": 35,
              "position": 14.333333,
              "duration": 0.208333
            },
            {
              "pitch": 38,
              "velocity": 46,
              "position": 14.666667,
              "duration": 0.208333
            },
            {
              "pitch": 38,
              "velocity": 127,
              "position": 15.0,
              "duration": 0.166667
            },
            {
              "pitch": 44,
              "velocity": 127,
              "position": 15.0,
              "duration": 0.208333
            },
            {
              "pitch": 38,
              "velocity": 101,
              "position": 15.166667,
              "duration": 0.041667
            },
            {
              "pitch": 47,
              "velocity": 40,
              "position": 15.333333,
              "duration": 0.208333
            },
            {
              "pitch": 38,
              "velocity": 127,
              "position": 15.666667,
              "duration": 0.208333
            },
            {
              "pitch": 44,
              "velocity": 120,
              "position": 15.666667,
              "duration": 0.208333
            },
            {
              "pitch": 45,
              "velocity": 127,
              "position": 15.666667,
              "duration": 0.208333
            }
          ]
        },
        "10": {
          "ctab": {
            "srcChannel": 10,
            "name": "Bass",
            "accType": "BASS",
            "editable": true,
            "mutedNotes": [],
            "mutedChords": [],
            "sourceChordNote": 0,
            "sourceChordType": "Maj7",
            "ctb2Main": {
              "ntr": "ROOT_TRANSPOSITION",
              "ntt": "BYPASS",
              "bassOn": true,
              "noteLowLimit": 20,
              "noteHighLimit": 60,
              "chordRootUpperLimit": 127,
              "rtr": "NOTE_GENERATOR"
            }
          },
          "notes": [
            {
              "pitch": 36,
              "velocity": 90,
              "position": 0.0,
              "duration": 1.575
            },
            {
              "pitch": 36,
              "velocity": 83,
              "position": 1.666667,
              "duration": 0.158333
            },
            {
              "pitch": 36,
              "velocity": 94,
              "position": 2.0,
              "duration": 1.991667
            },
            {
              "pitch": 36,
              "velocity": 94,
              "position": 4.0,
              "duration": 1.991667
            },
            {
              "pitch": 36,
              "velocity": 94,
              "position": 6.0,
              "duration": 1.066667
            },
            {
              "pitch": 36,
              "velocity": 85,
              "position": 7.333333,
              "duration": 0.141667
            },
            {
              "pitch": 36,
              "velocity": 84,
              "position": 7.666667,
              "duration": 0.1
            },
            {
              "pitch": 36,
              "velocity": 92,
              "position": 8.0,
              "duration": 1.625
            },
            {
              "pitch": 43,
              "velocity": 75,
              "position": 9.666667,
              "duration": 0.1
            },
            {
              "pitch": 48,
              "velocity": 75,
              "position": 10.0,
              "duration": 2.0
            },
            {
              "pitch": 36,
              "velocity": 85,
              "position": 12.0,
              "duration": 1.483333
            },
            {
              "pitch": 31,
              "velocity": 69,
              "position": 13.666667,
              "duration": 0.066667
            },
            {
              "pitch": 36,
              "velocity": 94,
              "position": 14.0,
              "duration": 1.616667
            },
            {
              "pitch": 36,
              "velocity": 90,
              "position": 15.666667,
              "duration": 0.133333
            }
          ]
        },
        "11": {
          "ctab": {
            "srcChannel": 11,
            "name": "Piano",
            "accType": "CHORD1",
            "editable": true,
            "mutedNotes": [],
            "mutedChords": [],
            "sourceChordNote": 0,
            "sourceChordType": "Maj7",
            "ctb2Main": {
              "ntr": "ROOT_FIXED",
              "ntt": "CHORD",
              "bassOn": false,
              "noteLowLimit": 48,
              "noteHighLimit": 84,
              "chordRootUpperLimit": 127,
              "rtr": "NOTE_GENERATOR"
            }
          },
          "notes": [
            {
              "pitch": 48,
              "velocity": 76,
              "position": 0.016667,
              "duration": 1.9
            },
            {
              "pitch": 60,
              "velocity": 76,
              "position": 0.016667,
              "duration": 0.05
            },
            {
              "pitch": 74,
              "velocity": 74,
              "position": 0.016667,
              "duration": 1.55
            },
            {
              "pitch": 36,
              "velocity": 68,
              "position": 0.033333,
              "duration": 1.866667
            },
            {
              "pitch": 67,
              "velocity": 78,
              "position": 0.033333,
              "duration": 1.525
            },
            {
              "pitch": 64,
              "velocity": 50,
              "position": 0.05,
              "duration": 1.616667
            },
            {
              "pitch": 59,
              "velocity": 88,
              "position": 2.0,
              "duration": 0.875
            },
            {
              "pitch": 67,
              "velocity": 78,
              "position": 2.008333,
              "duration": 0.775
            },
            {
              "pitch": 71,
              "velocity": 64,
              "position": 2.008333,
              "duration": 0.758333
            },
            {
              "pitch": 36,
              "velocity": 58,
              "position": 2.016667,
              "duration": 1.183333
            },
            {
              "pitch": 48,
              "velocity": 70,
              "position": 2.016667,
              "duration": 1.116667
            },
            {
              "pitch": 64,
              "velocity": 56,
              "position": 2.016667,
              "duration": 0.7
            },
            {
              "pitch": 67,
              "velocity": 87,
              "position": 2.983333,
              "duration": 0.466667
            },
            {
              "pitch": 71,
              "velocity": 80,
              "position": 2.983333,
              "duration": 0.458333
            },
            {
              "pitch": 64,
              "velocity": 72,
              "position": 2.991667,
              "duration": 0.358333
            },
            {
              "pitch": 48,
              "velocity": 49,
              "position": 3.633333,
              "duration": 0.325
            },
            {
              "pitch": 59,
              "velocity": 74,
              "position": 3.633333,
              "duration": 0.325
            },
            {
              "pitch": 48,
              "velocity": 72,
              "position": 4.0,
              "duration": 1.291667
            },
            {
              "pitch": 59,
              "velocity": 89,
              "position": 4.0,
              "duration": 1.45
            },
            {
              "pitch": 67,
              "velocity": 88,
              "position": 4.0,
              "duration": 1.483333
            },
            {
              "pitch": 36,
              "velocity": 60,
              "position": 4.008333,
              "duration": 1.391667
            },
            {
              "pitch": 64,
              "velocity": 78,
              "position": 4.016667,
              "duration": 1.441667
            },
            {
              "pitch": 48,
              "velocity": 76,
              "position": 6.016667,
              "duration": 1.9
            },
            {
              "pitch": 60,
              "velocity": 76,
              "position": 6.016667,
              "duration": 0.05
            },
            {
              "pitch": 74,
              "velocity": 74,
              "position": 6.016667,
              "duration": 1.55
            },
            {
              "pitch": 36,
              "velocity": 68,
              "position": 6.033333,
              "duration": 1.866667
            },
            {
              "pitch": 67,
              "velocity": 78,
              "position": 6.033333,
              "duration": 1.525
            },
            {
              "pitch": 64,
              "velocity": 50,
              "position": 6.05,
              "duration": 1.616667
            },
            {
              "pitch": 36,
              "velocity": 70,
              "position": 8.0,
              "duration": 1.783333
            },
            {
              "pitch": 59,
              "velocity": 88,
              "position": 8.0,
              "duration": 0.708333
            },
            {
              "pitch": 48,
              "velocity": 74,
              "position": 8.008333,
              "duration": 0.625
            },
            {
              "pitch": 64,
              "velocity": 80,
              "position": 8.008333,
              "duration": 0.808333
            },
            {
              "pitch": 59,
              "velocity": 86,
              "position": 8.991667,
              "duration": 0.191667
            },
            {
              "pitch": 64,
              "velocity": 68,
              "position": 9.008333,
              "duration": 0.166667
            },
            {
              "pitch": 48,
              "velocity": 38,
              "position": 9.683333,
              "duration": 0.7
            },
            {
              "pitch": 36,
              "velocity": 62,
              "position": 10.016667,
              "duration": 1.616667
            },
            {
              "pitch": 59,
              "velocity": 45,
              "position": 10.033333,
              "duration": 1.05
            },
            {
              "pitch": 64,
              "velocity": 46,
              "position": 10.033333,
              "duration": 0.633333
            },
            {
              "pitch": 55,
              "velocity": 54,
              "position": 10.65,
              "duration": 0.566667
            },
            {
              "pitch": 48,
              "velocity": 84,
              "position": 11.016667,
              "duration": 0.516667
            },
            {
              "pitch": 59,
              "velocity": 84,
              "position": 11.316667,
              "duration": 0.541667
            },
            {
              "pitch": 64,
              "velocity": 66,
              "position": 11.325,
              "duration": 0.6
            },
            {
              "pitch": 55,
              "velocity": 50,
              "position": 11.641667,
              "duration": 0.3
            },
            {
              "pitch": 48,
              "velocity": 35,
              "position": 11.683333,
              "duration": 1.575
            },
            {
              "pitch": 59,
              "velocity": 80,
              "position": 11.991667,
              "duration": 0.9
            },
            {
              "pitch": 36,
              "velocity": 70,
              "position": 12.0,
              "duration": 1.691667
            },
            {
              "pitch": 64,
              "velocity": 66,
              "position": 12.008333,
              "duration": 0.916667
            },
            {
              "pitch": 67,
              "velocity": 86,
              "position": 12.008333,
              "duration": 0.841667
            },
            {
              "pitch": 59,
              "velocity": 86,
              "position": 13.008333,
              "duration": 0.775
            },
            {
              "pitch": 64,
              "velocity": 64,
              "position": 13.016667,
              "duration": 0.658333
            },
            {
              "pitch": 67,
              "velocity": 84,
              "position": 13.016667,
              "duration": 0.583333
            },
            {
              "pitch": 48,
              "velocity": 48,
              "position": 13.675,
              "duration": 1.1
            },
            {
              "pitch": 36,
              "velocity": 68,
              "position": 14.025,
              "duration": 1.75
            },
            {
              "pitch": 59,
              "velocity": 82,
              "position": 14.025,
              "duration": 1.6
            },
            {
              "pitch": 64,
              "velocity": 56,
              "position": 14.041667,
              "duration": 1.566667
            },
            {
              "pitch": 67,
              "velocity": 76,
              "position": 14.041667,
              "duration": 1.616667
            },
            {
              "pitch": 48,
              "velocity": 32,
              "position": 15.016667,
              "duration": 0.775
            }
          ]
        },
        "12": {
          "ctab": {
            "srcChannel": 12,
            "name": "Guitar",
            "accType": "CHORD2",
            "editable": true,
            "mutedNotes": [],
            "mutedChords": [],
            "sourceChordNote": 0,
            "sourceChordType": "Maj7",
            "ctb2Main": {
              "ntr": "ROOT_FIXED",
              "ntt": "CHORD",
              "bassOn": false,
              "noteLowLimit": 40,
              "noteHighLimit": 76,
              "chordRootUpperLimit": 127,
              "rtr": "NOTE_GENERATOR"
            }
          },
          "notes": [
            {
              "pitch": 48,
              "velocity": 75,
              "position": 0.033333,
              "duration": 1.925
            },
            {
              "pitch": 59,
              "velocity": 53,
              "position": 0.375,
              "duration": 1.258333
            },
            {
              "pitch": 64,
              "velocity": 41,
              "position": 0.391667,
              "duration": 0.275
            },
            {
              "pitch": 67,
              "velocity": 41,
              "position": 0.516667,
              "duration": 0.425
            },
            {
              "pitch": 64,
              "velocity": 58,
              "position": 0.683333,
              "duration": 0.608333
            },
            {
              "pitch": 67,
              "velocity": 61,
              "position": 0.975,
              "duration": 0.983333
            },
            {
              "pitch": 64,
              "velocity": 41,
              "position": 1.341667,
              "duration": 0.616667
            },
            {
              "pitch": 59,
              "velocity": 56,
              "position": 1.658333,
              "duration": 0.3
            },
            {
              "pitch": 48,
              "velocity": 75,
              "position": 2.033333,
              "duration": 1.925
            },
            {
              "pitch": 59,
              "velocity": 53,
              "position": 2.375,
              "duration": 1.258333
            },
            {
              "pitch": 64,
              "velocity": 41,
              "position": 2.391667,
              "duration": 0.275
            },
            {
              "pitch": 67,
              "velocity": 41,
              "position": 2.516667,
              "duration": 0.425
            },
            {
              "pitch": 64,
              "velocity": 58,
              "position": 2.683333,
              "duration": 0.608333
            },
            {
              "pitch": 67,
              "velocity": 61,
              "position": 2.975,
              "duration": 0.983333
            },
            {
              "pitch": 64,
              "velocity": 41,
              "position": 3.341667,
              "duration": 0.616667
            },
            {
              "pitch": 59,
              "velocity": 56,
              "position": 3.658333,
              "duration": 0.3
            },
            {
              "pitch": 48,
              "velocity": 67,
              "position": 4.008333,
              "duration": 1.95
            },
            {
              "pitch": 55,
              "velocity": 61,
              "position": 4.333333,
              "duration": 1.358333
            },
            {
              "pitch": 59,
              "velocity": 60,
              "position": 4.666667,
              "duration": 1.291667
            },
            {
              "pitch": 64,
              "velocity": 43,
              "position": 4.7,
              "duration": 0.283333
            },
            {
              "pitch": 64,
              "velocity": 68,
              "position": 5.008333,
              "duration": 0.95
            },
            {
              "pitch": 67,
              "velocity": 61,
              "position": 5.033333,
              "duration": 0.333333
            },
            {
              "pitch": 55,
              "velocity": 59,
              "position": 5.7,
              "duration": 0.258333
            },
            {
              "pitch": 48,
              "velocity": 68,
              "position": 6.008333,
              "duration": 1.95
            },
            {
              "pitch": 55,
              "velocity": 53,
              "position": 6.358333,
              "duration": 1.6
            },
            {
              "pitch": 64,
              "velocity": 48,
              "position": 6.525,
              "duration": 0.158333
            },
            {
              "pitch": 64,
              "velocity": 52,
              "position": 6.691667,
              "duration": 0.608333
            },
            {
              "pitch": 67,
              "velocity": 70,
              "position": 6.991667,
              "duration": 0.966667
            },
            {
              "pitch": 64,
              "velocity": 45,
              "position": 7.333333,
              "duration": 0.625
            },
            {
              "pitch": 59,
              "velocity": 60,
              "position": 7.658333,
              "duration": 0.3
            },
            {
              "pitch": 48,
              "velocity": 75,
              "position": 8.033333,
              "duration": 1.95
            },
            {
              "pitch": 59,
              "velocity": 53,
              "position": 8.375,
              "duration": 1.258333
            },
            {
              "pitch": 64,
              "velocity": 41,
              "position": 8.391667,
              "duration": 0.275
            },
            {
              "pitch": 67,
              "velocity": 41,
              "position": 8.516667,
              "duration": 0.425
            },
            {
              "pitch": 64,
              "velocity": 58,
              "position": 8.683333,
              "duration": 0.608333
            },
            {
              "pitch": 67,
              "velocity": 61,
              "position": 8.975,
              "duration": 1.708333
            },
            {
              "pitch": 64,
              "velocity": 41,
              "position": 9.341667,
              "duration": 1.0
            },
            {
              "pitch": 59,
              "velocity": 56,
              "position": 9.658333,
              "duration": 0.675
            },
            {
              "pitch": 48,
              "velocity": 65,
              "position": 9.991667,
              "duration": 2.008333
            },
            {
              "pitch": 59,
              "velocity": 52,
              "position": 10.341667,
              "duration": 0.291667
            },
            {
              "pitch": 64,
              "velocity": 41,
              "position": 10.375,
              "duration": 0.125
            },
            {
              "pitch": 64,
              "velocity": 41,
              "position": 10.508333,
              "duration": 0.15
            },
            {
              "pitch": 59,
              "velocity": 61,
              "position": 10.641667,
              "duration": 1.008333
            },
            {
              "pitch": 64,
              "velocity": 55,
              "position": 10.675,
              "duration": 0.65
            },
            {
              "pitch": 67,
              "velocity": 41,
              "position": 10.691667,
              "duration": 0.266667
            },
            {
              "pitch": 67,
              "velocity": 68,
              "position": 11.0,
              "duration": 1.683333
            },
            {
              "pitch": 64,
              "velocity": 41,
              "position": 11.358333,
              "duration": 1.141667
            },
            {
              "pitch": 59,
              "velocity": 53,
              "position": 11.675,
              "duration": 0.666667
            },
            {
              "pitch": 48,
              "velocity": 72,
              "position": 12.008333,
              "duration": 1.991667
            },
            {
              "pitch": 59,
              "velocity": 63,
              "position": 12.35,
              "duration": 1.291667
            },
            {
              "pitch": 64,
              "velocity": 44,
              "position": 12.516667,
              "duration": 0.166667
            },
            {
              "pitch": 64,
              "velocity": 51,
              "position": 12.691667,
              "duration": 0.625
            },
            {
              "pitch": 67,
              "velocity": 41,
              "position": 12.733333,
              "duration": 0.233333
            },
            {
              "pitch": 67,
              "velocity": 79,
              "position": 13.016667,
              "duration": 1.708333
            },
            {
              "pitch": 64,
              "velocity": 45,
              "position": 13.358333,
              "duration": 1.025
            },
            {
              "pitch": 59,
              "velocity": 68,
              "position": 13.675,
              "duration": 0.7
            },
            {
              "pitch": 48,
              "velocity": 79,
              "position": 14.008333,
              "duration": 1.95
            },
            {
              "pitch": 55,
              "velocity": 54,
              "position": 14.358333,
              "duration": 1.6
            },
            {
              "pitch": 59,
              "velocity": 63,
              "position": 14.383333,
              "duration": 0.3
            },
            {
              "pitch": 64,
              "velocity": 41,
              "position": 14.408333,
              "duration": 0.141667
            },
            {
              "pitch": 59,
              "velocity": 53,
              "position": 14.691667,
              "duration": 0.966667
            },
            {
              "pitch": 64,
              "velocity": 48,
              "position": 14.708333,
              "duration": 0.625
            },
            {
              "pitch": 67,
              "velocity": 43,
              "position": 14.733333,
              "duration": 0.291667
            },
            {
              "pitch": 67,
              "velocity": 63,
              "position": 15.058333,
              "duration": 0.8
            },
            {
              "pitch": 64,
              "velocity": 44,
              "position": 15.366667,
              "duration": 0.575
            },
            {
              "pitch": 59,
              "velocity": 63,
              "position": 15.683333,
              "duration": 0.191667
            }
          ]
        },
        "13": {
          "ctab": {
            "srcChannel": 13,
            "name": "Strings",
            "accType": "PAD",
            "editable": true,
            "mutedNotes": [],
            "mutedChords": [],
            "sourceChordNote": 0,
            "sourceChordType": "Maj7",
            "ctb2Main": {
              "ntr": "ROOT_FIXED",
              "ntt": "MELODY",
              "bassOn": false,
              "noteLowLimit": 36,
              "noteHighLimit": 96,
              "chordRootUpperLimit": 127,
              "rtr": "PITCH_SHIFT"
            }
          },
          "notes": [
            {
              "pitch": 71,
              "velocity": 57,
              "position": 0.016667,
              "duration": 1.941667
            },
            {
              "pitch": 74,
              "velocity": 37,
              "position": 0.025,
              "duration": 1.933333
            },
            {
              "pitch": 76,
              "velocity": 58,
              "position": 0.025,
              "duration": 1.933333
            },
            {
              "pitch": 74,
              "velocity": 48,
              "position": 2.008333,
              "duration": 0.925
            },
            {
              "pitch": 71,
              "velocity": 68,
              "position": 2.016667,
              "duration": 1.458333
            },
            {
              "pitch": 79,
              "velocity": 66,
              "position": 2.016667,
              "duration": 0.883333
            },
            {
              "pitch": 76,
              "velocity": 62,
              "position": 2.025,
              "duration": 1.925
            },
            {
              "pitch": 79,
              "velocity": 66,
              "position": 2.975,
              "duration": 0.725
            },
            {
              "pitch": 74,
              "velocity": 3,
              "position": 2.983333,
              "duration": 0.933333
            },
            {
              "pitch": 71,
              "velocity": 42,
              "position": 3.65,
              "duration": 0.308333
            },
            {
              "pitch": 71,
              "velocity": 57,
              "position": 4.016667,
              "duration": 1.941667
            },
            {
              "pitch": 74,
              "velocity": 37,
              "position": 4.025,
              "duration": 1.933333
            },
            {
              "pitch": 76,
              "velocity": 58,
              "position": 4.025,
              "duration": 1.933333
            },
            {
              "pitch": 71,
              "velocity": 61,
              "position": 6.033333,
              "duration": 0.241667
            },
            {
              "pitch": 67,
              "velocity": 63,
              "position": 6.041667,
              "duration": 0.216667
            },
            {
              "pitch": 74,
              "velocity": 61,
              "position": 6.041667,
              "duration": 0.241667
            },
            {
              "pitch": 76,
              "velocity": 63,
              "position": 6.041667,
              "duration": 0.233333
            },
            {
              "pitch": 67,
              "velocity": 43,
              "position": 6.358333,
              "duration": 0.075
            },
            {
              "pitch": 76,
              "velocity": 51,
              "position": 6.358333,
              "duration": 0.116667
            },
            {
              "pitch": 71,
              "velocity": 35,
              "position": 6.366667,
              "duration": 0.083333
            },
            {
              "pitch": 74,
              "velocity": 23,
              "position": 6.375,
              "duration": 0.091667
            },
            {
              "pitch": 67,
              "velocity": 39,
              "position": 6.7,
              "duration": 0.041667
            },
            {
              "pitch": 67,
              "velocity": 66,
              "position": 7.016667,
              "duration": 0.433333
            },
            {
              "pitch": 71,
              "velocity": 64,
              "position": 7.016667,
              "duration": 0.841667
            },
            {
              "pitch": 74,
              "velocity": 61,
              "position": 7.016667,
              "duration": 0.883333
            },
            {
              "pitch": 76,
              "velocity": 66,
              "position": 7.016667,
              "duration": 0.891667
            },
            {
              "pitch": 67,
              "velocity": 7,
              "position": 7.616667,
              "duration": 0.341667
            },
            {
              "pitch": 71,
              "velocity": 59,
              "position": 8.016667,
              "duration": 7.95
            },
            {
              "pitch": 74,
              "velocity": 39,
              "position": 8.025,
              "duration": 3.883333
            },
            {
              "pitch": 76,
              "velocity": 60,
              "position": 8.025,
              "duration": 7.933333
            },
            {
              "pitch": 79,
              "velocity": 60,
              "position": 11.991667,
              "duration": 3.966667
            },
            {
              "pitch": 74,
              "velocity": 33,
              "position": 12.0,
              "duration": 3.95
            }
          ]
        }
      }
    },
    "Ending_A": {
      "type": "Ending_A",
      "sizeInBeats": 16,
      "channels": {
        "9": {
          "ctab": {
            "srcChannel": 9,
            "name": "Drums",
            "accType": "RHYTHM",
            "editable": false,
            "mutedNotes": [],
            "mutedChords": [],
            "sourceChordNote": 0,
            "sourceChordType": "Maj",
            "ctb2Main": {
              "ntr": "ROOT_FIXED",
              "ntt": "BYPASS",
              "bassOn": false,
              "noteLowLimit": 20,
              "noteHighLimit": 127,
              "chordRootUpperLimit": 127,
              "rtr": "RETRIGGER"
            }
          },
          "notes": [
            {
              "pitch": 35,
              "velocity": 84,
              "position": 0.0,
              "duration": 0.208333
            },
            {
              "pitch": 38,
              "velocity": 49,
              "position": 0.0,
              "duration": 0.208333
            },
            {
              "pitch": 57,
              "velocity": 70,
              "position": 0.0,
              "duration": 0.208333
            },
            {
              "pitch": 38,
              "velocity": 35,
              "position": 0.333333,
              "duration": 0.208333
            },
            {
              "pitch": 38,
              "velocity": 36,
              "position": 0.666667,
              "duration": 0.208333
            },
            {
              "pitch": 38,
              "velocity": 127,
              "position": 1.0,
              "duration": 0.208333
            },
            {
              "pitch": 44,
              "velocity": 127,
              "position": 1.0,
              "duration": 0.208333
            },
            {
              "pitch": 35,
              "velocity": 43,
              "position": 1.666667,
              "duration": 0.208333
            },
            {
              "pitch": 38,
              "velocity": 38,
              "position": 1.666667,
              "duration": 0.208333
            },
            {
              "pitch": 35,
              "velocity": 81,
              "position": 2.0,
              "duration": 0.208333
            },
            {
              "pitch": 38,
              "velocity": 42,
              "position": 2.0,
              "duration": 0.208333
            },
            {
              "pitch": 38,
              "velocity": 36,
              "position": 2.666667,
              "duration": 0.208333
            },
            {
              "pitch": 38,
              "velocity": 127,
              "position": 3.0,
              "duration": 0.208333
            },
            {
              "pitch": 44,
              "velocity": 127,
              "position": 3.0,
              "duration": 0.208333
            },
            {
              "pitch": 35,
              "velocity": 75,
              "position": 4.0,
              "duration": 0.208333
            },
            {
              "pitch": 38,
              "velocity": 43,
              "position": 4.0,
              "duration": 0.208333
            },
            {
              "pitch": 38,
              "velocity": 43,
              "position": 4.666667,
              "duration": 0.208333
            },
            {
              "pitch": 38,
              "velocity": 127,
              "position": 5.0,
              "duration": 0.208333
            },
            {
              "pitch": 44,
              "velocity": 127,
              "position": 5.0,
              "duration": 0.208333
            },
            {
              "pitch": 38,
              "velocity": 49,
              "position": 6.0,
              "duration": 0.208333
            },
            {
              "pitch": 38,
              "velocity": 39,
              "position": 6.333333,
              "duration": 0.166667
            },
            {
              "pitch": 38,
              "velocity": 31,
              "position": 6.5,
              "duration": 0.041667
            },
            {
              "pitch": 38,
              "velocity": 40,
              "position": 6.666667,
              "duration": 0.041667
            },
            {
              "pitch": 38,
              "velocity": 127,
              "position": 7.0,
              "duration": 0.208333
            },
            {
              "pitch": 44,
              "velocity": 127,
              "position": 7.0,
              "duration": 0.208333
            },
            {
              "pitch": 38,
              "velocity": 40,
              "position": 7.333333,
              "duration": 0.166667
            },
            {
              "pitch": 38,
              "velocity": 32,
              "position": 7.5,
              "duration": 0.041667
            },
            {
              "pitch": 35,
              "velocity": 64,
              "position": 7.666667,
              "duration": 0.208333
            },
            {
              "pitch": 38,
              "velocity": 44,
              "position": 7.666667,
              "duration": 0.041667
            },
            {
              "pitch": 35,
              "velocity": 62,
              "position": 8.0,
              "duration": 0.208333
            },
            {
              "pitch": 38,
              "velocity": 49,
              "position": 8.0,
              "duration": 0.208333
            },
            {
              "pitch": 38,
              "velocity": 39,
              "position": 8.666667,
              "duration": 0.208333
            },
            {
              "pitch": 38,
              "velocity": 127,
              "position": 9.0,
              "duration": 0.208333
            },
            {
              "pitch": 44,
              "velocity": 127,
              "position": 9.0,
              "duration": 0.208333
            },
            {
              "pitch": 38,
              "velocity": 42,
              "position": 10.0,
              "duration": 0.208333
            },
            {
              "pitch": 38,
              "velocity": 38,
              "position": 10.333333,
              "duration": 0.208333
            },
            {
              "pitch": 38,
              "velocity": 40,
              "position": 10.666667,
              "duration": 0.208333
            },
            {
              "pitch": 38,
              "velocity": 119,
              "position": 11.0,
              "duration": 0.208333
            },
            {
              "pitch": 38,
              "velocity": 35,
              "position": 11.333333,
              "duration": 0.166667
            },
            {
              "pitch": 38,
              "velocity": 28,
              "position": 11.5,
              "duration": 0.041667
            },
            {
              "pitch": 38,
              "velocity": 63,
              "position": 11.666667,
              "duration": 0.041667
            },
            {
              "pitch": 35,
              "velocity": 84,
              "position": 12.0,
              "duration": 0.208333
            },
            {
              "pitch": 38,
              "velocity": 45,
              "position": 12.0,
              "duration": 0.208333
            },
            {
              "pitch": 38,
              "velocity": 36,
              "position": 12.333333,
              "duration": 0.208333
            },
            {
              "pitch": 38,
              "velocity": 127,
              "position": 13.0,
              "duration": 0.208333
            },
            {
              "pitch": 44,
              "velocity": 127,
              "position": 13.0,
              "duration": 0.208333
            },
            {
              "pitch": 38,
              "velocity": 45,
              "position": 13.666667,
              "duration": 0.208333
            },
            {
              "pitch": 35,
              "velocity": 83,
              "position": 14.0,
              "duration": 0.208333
            },
            {
              "pitch": 48,
              "velocity": 103,
              "position": 14.0,
              "duration": 0.208333
            },
            {
              "pitch": 38,
              "velocity": 36,
              "position": 14.333333,
              "duration": 0.208333
            },
            {
              "pitch": 38,
              "velocity": 39,
              "position": 14.666667,
              "duration": 0.208333
            },
            {
              "pitch": 38,
              "velocity": 40,
              "position": 15.0,
              "duration": 0.208333
            },
            {
              "pitch": 44,
              "velocity": 127,
              "position": 15.0,
              "duration": 0.208333
            },
            {
              "pitch": 38,
              "velocity": 50,
              "position": 15.333333,
              "duration": 0.208333
            },
            {
              "pitch": 45,
              "velocity": 127,
              "position": 15.666667,
              "duration": 0.208333
            }
          ]
        },
        "10": {
          "ctab": {
            "srcChannel": 10,
            "name": "Bass",
            "accType": "BASS",
            "editable": true,
            "mutedNotes": [],
            "mutedChords": [],
            "sourceChordNote": 0,
            "sourceChordType": "Maj7",
            "ctb2Main": {
              "ntr": "ROOT_TRANSPOSITION",
              "ntt": "BYPASS",
              "bassOn": true,
              "noteLowLimit": 20,
              "noteHighLimit": 60,
              "chordRootUpperLimit": 127,
              "rtr": "NOTE_GENERATOR"
            }
          },
          "notes": [
            {
              "pitch": 36,
              "velocity": 94,
              "position": 0.025,
              "duration": 1.933333
            },
            {
              "pitch": 36,
              "velocity": 94,
              "position": 2.025,
              "duration": 1.933333
            },
            {
              "pitch": 36,
              "velocity": 91,
              "position": 4.066667,
              "duration": 1.891667
            },
            {
              "pitch": 36,
              "velocity": 94,
              "position": 6.025,
              "duration": 1.933333
            },
            {
              "pitch": 36,
              "velocity": 89,
              "position": 8.041667,
              "duration": 3.525
            },
            {
              "pitch": 43,
              "velocity": 84,
              "position": 11.675,
              "duration": 0.133333
            },
            {
              "pitch": 36,
              "velocity": 94,
              "position": 12.0,
              "duration": 3.958333
            }
          ]
        },
        "11": {
          "ctab": {
            "srcChannel": 11,
            "name": "Piano",
            "accType": "CHORD1",
            "editable": true,
            "mutedNotes": [],
            "mutedChords": [],
            "sourceChordNote": 0,
            "sourceChordType": "Maj7",
            "ctb2Main": {
              "ntr": "ROOT_FIXED",
              "ntt": "CHORD",
              "bassOn": false,
              "noteLowLimit": 48,
              "noteHighLimit": 84,
              "chordRootUpperLimit": 127,
              "rtr": "NOTE_GENERATOR"
            }
          },
          "notes": [
            {
              "pitch": 59,
              "velocity": 86,
              "position": 0.016667,
              "duration": 1.233333
            },
            {
              "pitch": 48,
              "velocity": 64,
              "position": 0.033333,
              "duration": 1.275
            },
            {
              "pitch": 60,
              "velocity": 49,
              "position": 0.033333,
              "duration": 0.741667
            },
            {
              "pitch": 67,
              "velocity": 74,
              "position": 0.041667,
              "duration": 1.133333
            },
            {
              "pitch": 64,
              "velocity": 50,
              "position": 0.05,
              "duration": 1.141667
            },
            {
              "pitch": 60,
              "velocity": 23,
              "position": 1.05,
              "duration": 0.166667
            },
            {
              "pitch": 59,
              "velocity": 42,
              "position": 1.658333,
              "duration": 0.3
            },
            {
              "pitch": 48,
              "velocity": 32,
              "position": 1.683333,
              "duration": 0.25
            },
            {
              "pitch": 36,
              "velocity": 68,
              "position": 2.016667,
              "duration": 1.941667
            },
            {
              "pitch": 48,
              "velocity": 68,
              "position": 2.016667,
              "duration": 1.941667
            },
            {
              "pitch": 52,
              "velocity": 68,
              "position": 2.016667,
              "duration": 1.941667
            },
            {
              "pitch": 59,
              "velocity": 78,
              "position": 2.016667,
              "duration": 1.941667
            },
            {
              "pitch": 55,
              "velocity": 64,
              "position": 2.025,
              "duration": 1.933333
            },
            {
              "pitch": 60,
              "velocity": 60,
              "position": 2.025,
              "duration": 1.933333
            },
            {
              "pitch": 59,
              "velocity": 86,
              "position": 4.016667,
              "duration": 1.233333
            },
            {
              "pitch": 48,
              "velocity": 64,
              "position": 4.033333,
              "duration": 1.275
            },
            {
              "pitch": 60,
              "velocity": 49,
              "position": 4.033333,
              "duration": 0.741667
            },
            {
              "pitch": 67,
              "velocity": 74,
              "position": 4.041667,
              "duration": 1.133333
            },
            {
              "pitch": 64,
              "velocity": 50,
              "position": 4.05,
              "duration": 1.141667
            },
            {
              "pitch": 60,
              "velocity": 23,
              "position": 5.05,
              "duration": 0.166667
            },
            {
              "pitch": 59,
              "velocity": 42,
              "position": 5.658333,
              "duration": 0.3
            },
            {
              "pitch": 48,
              "velocity": 32,
              "position": 5.683333,
              "duration": 0.25
            },
            {
              "pitch": 64,
              "velocity": 58,
              "position": 6.0,
              "duration": 1.625
            },
            {
              "pitch": 59,
              "velocity": 66,
              "position": 6.008333,
              "duration": 1.691667
            },
            {
              "pitch": 36,
              "velocity": 56,
              "position": 6.016667,
              "duration": 1.941667
            },
            {
              "pitch": 48,
              "velocity": 53,
              "position": 6.016667,
              "duration": 1.941667
            },
            {
              "pitch": 55,
              "velocity": 46,
              "position": 6.016667,
              "duration": 1.45
            },
            {
              "pitch": 60,
              "velocity": 50,
              "position": 6.016667,
              "duration": 1.716667
            },
            {
              "pitch": 64,
              "velocity": 58,
              "position": 8.0,
              "duration": 1.625
            },
            {
              "pitch": 59,
              "velocity": 66,
              "position": 8.008333,
              "duration": 1.691667
            },
            {
              "pitch": 36,
              "velocity": 56,
              "position": 8.016667,
              "duration": 3.533333
            },
            {
              "pitch": 48,
              "velocity": 53,
              "position": 8.016667,
              "duration": 3.591667
            },
            {
              "pitch": 55,
              "velocity": 46,
              "position": 8.016667,
              "duration": 1.45
            },
            {
              "pitch": 60,
              "velocity": 50,
              "position": 8.016667,
              "duration": 1.716667
            },
            {
              "pitch": 59,
              "velocity": 74,
              "position": 10.0,
              "duration": 0.708333
            },
            {
              "pitch": 64,
              "velocity": 56,
              "position": 10.008333,
              "duration": 0.641667
            },
            {
              "pitch": 60,
              "velocity": 37,
              "position": 10.033333,
              "duration": 0.658333
            },
            {
              "pitch": 55,
              "velocity": 58,
              "position": 10.675,
              "duration": 0.425
            },
            {
              "pitch": 59,
              "velocity": 80,
              "position": 11.05,
              "duration": 0.583333
            },
            {
              "pitch": 64,
              "velocity": 64,
              "position": 11.05,
              "duration": 0.541667
            },
            {
              "pitch": 60,
              "velocity": 68,
              "position": 11.066667,
              "duration": 0.566667
            },
            {
              "pitch": 55,
              "velocity": 56,
              "position": 11.641667,
              "duration": 0.316667
            },
            {
              "pitch": 36,
              "velocity": 68,
              "position": 12.016667,
              "duration": 2.758333
            },
            {
              "pitch": 48,
              "velocity": 68,
              "position": 12.016667,
              "duration": 3.041667
            },
            {
              "pitch": 52,
              "velocity": 68,
              "position": 12.016667,
              "duration": 3.166667
            },
            {
              "pitch": 59,
              "velocity": 78,
              "position": 12.016667,
              "duration": 3.325
            },
            {
              "pitch": 55,
              "velocity": 64,
              "position": 12.025,
              "duration": 3.233333
            },
            {
              "pitch": 60,
              "velocity": 60,
              "position": 12.025,
              "duration": 3.325
            },
            {
              "pitch": 36,
              "velocity": 82,
              "position": 15.016667,
              "duration": 0.691667
            },
            {
              "pitch": 48,
              "velocity": 68,
              "position": 15.35,
              "duration": 0.608333
            },
            {
              "pitch": 55,
              "velocity": 76,
              "position": 15.666667,
              "duration": 0.291667
            }
          ]
        },
        "12": {
          "ctab": {
            "srcChannel": 12,
            "name": "Guitar",
            "accType": "CHORD2",
            "editable": true,
            "mutedNotes": [],
            "mutedChords": [],
            "sourceChordNote": 0,
            "sourceChordType": "Maj7",
            "ctb2Main": {
              "ntr": "ROOT_FIXED",
              "ntt": "CHORD",
              "bassOn": false,
              "noteLowLimit": 40,
              "noteHighLimit": 76,
              "chordRootUpperLimit": 127,
              "rtr": "NOTE_GENERATOR"
            }
          },
          "notes": [
            {
              "pitch": 48,
              "velocity": 70,
              "position": 0.0,
              "duration": 1.958333
            },
            {
              "pitch": 55,
              "velocity": 42,
              "position": 0.333333,
              "duration": 0.216667
            },
            {
              "pitch": 59,
              "velocity": 41,
              "position": 0.358333,
              "duration": 0.116667
            },
            {
              "pitch": 59,
              "velocity": 63,
              "position": 0.516667,
              "duration": 0.15
            },
            {
              "pitch": 55,
              "velocity": 49,
              "position": 0.641667,
              "duration": 1.0
            },
            {
              "pitch": 59,
              "velocity": 57,
              "position": 0.675,
              "duration": 0.641667
            },
            {
              "pitch": 64,
              "velocity": 82,
              "position": 1.008333,
              "duration": 0.95
            },
            {
              "pitch": 59,
              "velocity": 65,
              "position": 1.358333,
              "duration": 0.6
            },
            {
              "pitch": 55,
              "velocity": 48,
              "position": 1.675,
              "duration": 0.283333
            },
            {
              "pitch": 48,
              "velocity": 70,
              "position": 2.0,
              "duration": 1.958333
            },
            {
              "pitch": 55,
              "velocity": 42,
              "position": 2.333333,
              "duration": 0.216667
            },
            {
              "pitch": 59,
              "velocity": 41,
              "position": 2.358333,
              "duration": 0.116667
            },
            {
              "pitch": 59,
              "velocity": 63,
              "position": 2.516667,
              "duration": 0.15
            },
            {
              "pitch": 55,
              "velocity": 49,
              "position": 2.641667,
              "duration": 1.0
            },
            {
              "pitch": 59,
              "velocity": 57,
              "position": 2.675,
              "duration": 0.641667
            },
            {
              "pitch": 64,
              "velocity": 82,
              "position": 3.008333,
              "duration": 0.95
            },
            {
              "pitch": 59,
              "velocity": 65,
              "position": 3.358333,
              "duration": 0.6
            },
            {
              "pitch": 55,
              "velocity": 48,
              "position": 3.675,
              "duration": 0.283333
            },
            {
              "pitch": 48,
              "velocity": 70,
              "position": 4.0,
              "duration": 1.958333
            },
            {
              "pitch": 55,
              "velocity": 42,
              "position": 4.333333,
              "duration": 0.216667
            },
            {
              "pitch": 59,
              "velocity": 41,
              "position": 4.358333,
              "duration": 0.116667
            },
            {
              "pitch": 59,
              "velocity": 63,
              "position": 4.516667,
              "duration": 0.15
            },
            {
              "pitch": 55,
              "velocity": 49,
              "position": 4.641667,
              "duration": 1.0
            },
            {
              "pitch": 59,
              "velocity": 57,
              "position": 4.675,
              "duration": 0.641667
            },
            {
              "pitch": 64,
              "velocity": 82,
              "position": 5.008333,
              "duration": 0.95
            },
            {
              "pitch": 59,
              "velocity": 65,
              "position": 5.358333,
              "duration": 0.6
            },
            {
              "pitch": 55,
              "velocity": 48,
              "position": 5.675,
              "duration": 0.283333
            },
            {
              "pitch": 48,
              "velocity": 74,
              "position": 6.0,
              "duration": 1.958333
            },
            {
              "pitch": 55,
              "velocity": 41,
              "position": 6.325,
              "duration": 0.316667
            },
            {
              "pitch": 59,
              "velocity": 41,
              "position": 6.358333,
              "duration": 0.125
            },
            {
              "pitch": 59,
              "velocity": 41,
              "position": 6.508333,
              "duration": 0.15
            },
            {
              "pitch": 55,
              "velocity": 51,
              "position": 6.65,
              "duration": 0.983333
            },
            {
              "pitch": 59,
              "velocity": 53,
              "position": 6.675,
              "duration": 0.633333
            },
            {
              "pitch": 64,
              "velocity": 41,
              "position": 6.691667,
              "duration": 0.283333
            },
            {
              "pitch": 64,
              "velocity": 61,
              "position": 7.008333,
              "duration": 0.95
            },
            {
              "pitch": 59,
              "velocity": 58,
              "position": 7.35,
              "duration": 0.608333
            },
            {
              "pitch": 55,
              "velocity": 54,
              "position": 7.666667,
              "duration": 0.291667
            },
            {
              "pitch": 48,
              "velocity": 70,
              "position": 8.0,
              "duration": 2.0
            },
            {
              "pitch": 55,
              "velocity": 42,
              "position": 8.333333,
              "duration": 0.216667
            },
            {
              "pitch": 59,
              "velocity": 41,
              "position": 8.358333,
              "duration": 0.116667
            },
            {
              "pitch": 59,
              "velocity": 63,
              "position": 8.516667,
              "duration": 0.15
            },
            {
              "pitch": 55,
              "velocity": 49,
              "position": 8.641667,
              "duration": 1.0
            },
            {
              "pitch": 59,
              "velocity": 57,
              "position": 8.675,
              "duration": 0.641667
            },
            {
              "pitch": 64,
              "velocity": 82,
              "position": 9.008333,
              "duration": 1.975
            },
            {
              "pitch": 59,
              "velocity": 65,
              "position": 9.358333,
              "duration": 1.016667
            },
            {
              "pitch": 55,
              "velocity": 48,
              "position": 9.675,
              "duration": 0.658333
            },
            {
              "pitch": 48,
              "velocity": 72,
              "position": 10.0,
              "duration": 1.958333
            },
            {
              "pitch": 55,
              "velocity": 51,
              "position": 10.358333,
              "duration": 1.3
            },
            {
              "pitch": 59,
              "velocity": 41,
              "position": 10.383333,
              "duration": 0.1
            },
            {
              "pitch": 59,
              "velocity": 67,
              "position": 10.525,
              "duration": 0.15
            },
            {
              "pitch": 59,
              "velocity": 53,
              "position": 10.683333,
              "duration": 0.658333
            },
            {
              "pitch": 64,
              "velocity": 74,
              "position": 11.016667,
              "duration": 0.941667
            },
            {
              "pitch": 59,
              "velocity": 72,
              "position": 11.366667,
              "duration": 0.591667
            },
            {
              "pitch": 55,
              "velocity": 44,
              "position": 11.675,
              "duration": 0.283333
            },
            {
              "pitch": 48,
              "velocity": 70,
              "position": 12.0,
              "duration": 2.0
            },
            {
              "pitch": 55,
              "velocity": 42,
              "position": 12.333333,
              "duration": 0.216667
            },
            {
              "pitch": 59,
              "velocity": 41,
              "position": 12.358333,
              "duration": 0.116667
            },
            {
              "pitch": 59,
              "velocity": 63,
              "position": 12.516667,
              "duration": 0.15
            },
            {
              "pitch": 55,
              "velocity": 49,
              "position": 12.641667,
              "duration": 1.0
            },
            {
              "pitch": 59,
              "velocity": 57,
              "position": 12.675,
              "duration": 0.641667
            },
            {
              "pitch": 64,
              "velocity": 82,
              "position": 13.008333,
              "duration": 1.975
            },
            {
              "pitch": 59,
              "velocity": 65,
              "position": 13.358333,
              "duration": 1.016667
            },
            {
              "pitch": 55,
              "velocity": 48,
              "position": 13.675,
              "duration": 0.658333
            },
            {
              "pitch": 48,
              "velocity": 72,
              "position": 14.0,
              "duration": 1.958333
            },
            {
              "pitch": 55,
              "velocity": 51,
              "position": 14.358333,
              "duration": 1.3
            },
            {
              "pitch": 59,
              "velocity": 41,
              "position": 14.383333,
              "duration": 0.1
            },
            {
              "pitch": 59,
              "velocity": 67,
              "position": 14.525,
              "duration": 0.15
            },
            {
              "pitch": 59,
              "velocity": 53,
              "position": 14.683333,
              "duration": 0.658333
            },
            {
              "pitch": 64,
              "velocity": 74,
              "position": 15.016667,
              "duration": 0.941667
            },
            {
              "pitch": 59,
              "velocity": 72,
              "position": 15.366667,
              "duration": 0.591667
            },
            {
              "pitch": 55,
              "velocity": 44,
              "position": 15.675,
              "duration": 0.283333
            }
          ]
        },
        "13": {
          "ctab": {
            "srcChannel": 13,
            "name": "Strings",
            "accType": "PAD",
            "editable": true,
            "mutedNotes": [],
            "mutedChords": [],
            "sourceChordNote": 0,
            "sourceChordType": "Maj7",
            "ctb2Main": {
              "ntr": "ROOT_FIXED",
              "ntt": "MELODY",
              "bassOn": false,
              "noteLowLimit": 36,
              "noteHighLimit": 96,
              "chordRootUpperLimit": 127,
              "rtr": "PITCH_SHIFT"
            }
          },
          "notes": [
            {
              "pitch": 67,
              "velocity": 56,
              "position": 0.008333,
              "duration": 1.95
            },
            {
              "pitch": 71,
              "velocity": 44,
              "position": 0.008333,
              "duration": 1.95
            },
            {
              "pitch": 74,
              "velocity": 46,
              "position": 0.008333,
              "duration": 1.95
            },
            {
              "pitch": 76,
              "velocity": 54,
              "position": 0.016667,
              "duration": 1.941667
            },
            {
              "pitch": 71,
              "velocity": 46,
              "position": 2.025,
              "duration": 1.933333
            },
            {
              "pitch": 76,
              "velocity": 54,
              "position": 2.025,
              "duration": 1.933333
            },
            {
              "pitch": 71,
              "velocity": 46,
              "position": 4.025,
              "duration": 1.933333
            },
            {
              "pitch": 76,
              "velocity": 54,
              "position": 4.025,
              "duration": 1.933333
            },
            {
              "pitch": 67,
              "velocity": 56,
              "position": 6.008333,
              "duration": 1.95
            },
            {
              "pitch": 71,
              "velocity": 44,
              "position": 6.008333,
              "duration": 1.95
            },
            {
              "pitch": 74,
              "velocity": 46,
              "position": 6.008333,
              "duration": 1.95
            },
            {
              "pitch": 76,
              "velocity": 54,
              "position": 6.016667,
              "duration": 1.941667
            },
            {
              "pitch": 71,
              "velocity": 46,
              "position": 8.025,
              "duration": 3.791667
            },
            {
              "pitch": 76,
              "velocity": 54,
              "position": 8.025,
              "duration": 3.675
            },
            {
              "pitch": 71,
              "velocity": 46,
              "position": 12.025,
              "duration": 3.791667
            },
            {
              "pitch": 76,
              "velocity": 54,
              "position": 12.025,
              "duration": 3.675
            }
          ]
        }
      }
    }
  }
}