{
  "name": "Uptempo Gospel Style",
  "tempo": 210,
  "timeSignature": "4/4",
  "ticksPerQuarter": 120,
  "sffType": "SFF1",
  "division": "BINARY",
  "channelPrograms": {
    "9": 0,
    "10": 33,
    "11": 0,
    "12": 27,
    "13": 18
  },
  "parts": {
    "Intro_A": {
      "type": "Intro_A",
      "sizeInBeats": 24,
      "channels": {
        "9": {
          "ctab": {
            "srcChannel": 9,
            "name": "Drums",
            "accType": "RHYTHM",
            "editable": false,
            "mutedNotes": [],
            "mutedChords": [],
            "sourceChordNote": 0,
            "sourceChordType": "Maj",
            "ctb2Main": {
              "ntr": "ROOT_FIXED",
              "ntt": "BYPASS",
              "bassOn": false,
              "noteLowLimit": 20,
              "noteHighLimit": 127,
              "chordRootUpperLimit": 127,
              "rtr": "RETRIGGER"
            }
          },
          "notes": [
            {
              "pitch": 37,
              "velocity": 84,
              "position": 0.0,
              "duration": 1.0
            },
            {
              "pitch": 37,
              "velocity": 84,
              "position": 2.0,
              "duration": 1.0
            },
            {
              "pitch": 37,
              "velocity": 64,
              "position": 4.0,
              "duration": 1.0
            },
            {
              "pitch": 37,
              "velocity": 84,
              "position": 5.0,
              "duration": 1.0
            },
            {
              "pitch": 37,
              "velocity": 64,
              "position": 6.0,
              "duration": 1.0
            },
            {
              "pitch": 37,
              "velocity": 84,
              "position": 7.0,
              "duration": 1.0
            },
            {
              "pitch": 35,
              "velocity": 90,
              "position": 8.0,
              "duration": 0.208333
            },
            {
              "pitch": 42,
              "velocity": 60,
              "position": 8.0,
              "duration": 0.208333
            },
            {
              "pitch": 42,
              "velocity": 40,
              "position": 8.666667,
              "duration": 0.208333
            },
            {
              "pitch": 38,
              "velocity": 80,
              "position": 9.0,
              "duration": 0.208333
            },
            {
              "pitch": 42,
              "velocity": 100,
              "position": 9.0,
              "duration": 0.208333
            },
            {
              "pitch": 42,
              "velocity": 40,
              "position": 9.666667,
              "duration": 0.208333
            },
            {
              "pitch": 35,
              "velocity": 90,
              "position": 10.0,
              "duration": 0.208333
            },
            {
              "pitch": 42,
              "velocity": 60,
              "position": 10.0,
              "duration": 0.208333
            },
            {
              "pitch": 42,
              "velocity": 40,
              "position": 10.666667,
              "duration": 0.208333
            },
            {
              "pitch": 38,
              "velocity": 80,
              "position": 11.0,
              "duration": 0.208333
            },
            {
              "pitch": 42,
              "velocity": 100,
              "position": 11.0,
              "duration": 0.208333
            },
            {
              "pitch": 42,
              "velocity": 40,
              "position": 11.666667,
              "duration": 0.208333
            },
            {
              "pitch": 35,
              "velocity": 90,
              "position": 12.0,
              "duration": 0.208333
            },
            {
              "pitch": 42,
              "velocity": 60,
              "position": 12.0,
              "duration": 0.208333
            },
            {
              "pitch": 42,
              "velocity": 40,
              "position": 12.666667,
              "duration": 0.208333
            },
            {
              "pitch": 38,
              "velocity": 80,
              "position": 13.0,
              "duration": 0.208333
            },
            {
              "pitch": 42,
              "velocity": 100,
              "position": 13.0,
              "duration": 0.208333
            },
            {
              "pitch": 38,
              "velocity": 60,
              "position": 13.666667,
              "duration": 0.208333
            },
            {
              "pitch": 42,
              "velocity": 40,
              "position": 13.666667,
              "duration": 0.208333
            },
            {
              "pitch": 35,
              "velocity": 90,
              "position": 14.0,
              "duration": 0.208333
            },
            {
              "pitch": 42,
              "velocity": 60,
              "position": 14.0,
              "duration": 0.208333
            },
            {
              "pitch": 38,
              "velocity": 50,
              "position": 14.666667,
              "duration": 0.208333
            },
            {
              "pitch": 42,
              "velocity": 40,
              "position": 14.666667,
              "duration": 0.208333
            },
            {
              "pitch": 38,
              "velocity": 90,
              "position": 15.0,
              "duration": 0.208333
            },
            {
              "pitch": 42,
              "velocity": 100,
              "position": 15.0,
              "duration": 0.208333
            },
            {
              "pitch": 42,
              "velocity": 40,
              "position": 15.666667,
              "duration": 0.208333
            },
            {
              "pitch": 35,
              "velocity": 90,
              "position": 16.0,
              "duration": 0.208333
            },
            {
              "pitch": 42,
              "velocity": 60,
              "position": 16.0,
              "duration": 0.208333
            },
            {
              "pitch": 42,
              "velocity": 40,
              "position": 16.666667,
              "duration": 0.208333
            },
            {
              "pitch": 38,
              "velocity": 80,
              "position": 17.0,
              "duration": 0.208333
            },
            {
              "pitch": 42,
              "velocity": 100,
              "position": 17.0,
              "duration": 0.208333
            },
            {
              "pitch": 42,
              "velocity": 40,
              "position": 17.666667,
              "duration": 0.208333
            },
            {
              "pitch": 35,
              "velocity": 90,
              "position": 18.0,
              "duration": 0.208333
            },
            {
              "pitch": 42,
              "velocity": 60,
              "position": 18.0,
              "duration": 0.208333
            },
            {
              "pitch": 42,
              "velocity": 40,
              "position": 18.666667,
              "duration": 0.208333
            },
            {
              "pitch": 38,
              "velocity": 80,
              "position": 19.0,
              "duration": 0.208333
            },
            {
              "pitch": 42,
              "velocity": 100,
              "position": 19.0,
              "duration": 0.208333
            },
            {
              "pitch": 42,
              "velocity": 40,
              "position": 19.666667,
              "duration": 0.208333
            },
            {
              "pitch": 35,
              "velocity": 90,
              "position": 20.0,
              "duration": 0.208333
            },
            {
              "pitch": 42,
              "velocity": 60,
              "position": 20.0,
              "duration": 0.208333
            },
            {
              "pitch": 42,
              "velocity": 40,
              "position": 20.666667,
              "duration": 0.208333
            },
            {
              "pitch": 38,
              "velocity": 80,
              "position": 21.0,
              "duration": 0.208333
            },
            {
              "pitch": 42,
              "velocity": 100,
              "position": 21.0,
              "duration": 0.208333
            },
            {
              "pitch": 38,
              "velocity": 60,
              "position": 21.666667,
              "duration": 0.208333
            },
            {
              "pitch": 42,
              "velocity": 40,
              "position": 21.666667,
              "duration": 0.208333
            },
            {
              "pitch": 35,
              "velocity": 90,
              "position": 22.0,
              "duration": 0.208333
            },
            {
              "pitch": 38,
              "velocity": 80,
              "position": 22.0,
              "duration": 0.208333
            },
            {
              "pitch": 42,
              "velocity": 60,
              "position": 22.0,
              "duration": 0.208333
            },
            {
              "pitch": 38,
              "velocity": 70,
              "position": 22.666667,
              "duration": 0.208333
            },
            {
              "pitch": 42,
              "velocity": 40,
              "position": 22.666667,
              "duration": 0.208333
            },
            {
              "pitch": 38,
              "velocity": 90,
              "position": 23.0,
              "duration": 0.208333
            },
            {
              "pitch": 42,
              "velocity": 100,
              "position": 23.0,
              "duration": 0.208333
            },
            {
              "pitch": 38,
              "velocity": 70,
              "position": 23.666667,
              "duration": 0.208333
            },
            {
              "pitch": 42,
              "velocity": 40,
              "position": 23.666667,
              "duration": 0.208333
            }
          ]
        },
        "10": {
          "ctab": {
            "srcChannel": 10,
            "name": "Bass",
            "accType": "BASS",
            "editable": true,
            "mutedNotes": [],
            "mutedChords": [],
            "sourceChordNote": 0,
            "sourceChordType": "Maj7",
            "ctb2Main": {
              "ntr": "ROOT_TRANSPOSITION",
              "ntt": "BYPASS",
              "bassOn": true,
              "noteLowLimit": 20,
              "noteHighLimit": 60,
              "chordRootUpperLimit": 127,
              "rtr": "NOTE_GENERATOR"
            }
          },
          "notes": [
            {
              "pitch": 36,
              "velocity": 90,
              "position": 8.0,
              "duration": 1.958333
            },
            {
              "pitch": 36,
              "velocity": 88,
              "position": 10.0,
              "duration": 0.991667
            },
            {
              "pitch": 43,
              "velocity": 84,
              "position": 11.0,
              "duration": 0.958333
            },
            {
              "pitch": 36,
              "velocity": 88,
              "position": 12.0,
              "duration": 1.508333
            },
            {
              "pitch": 36,
              "velocity": 92,
              "position": 13.666667,
              "duration": 0.25
            },
            {
              "pitch": 36,
              "velocity": 88,
              "position": 14.0,
              "duration": 0.991667
            },
            {
              "pitch": 35,
              "velocity": 84,
              "position": 15.0,
              "duration": 0.958333
            },
            {
              "pitch": 36,
              "velocity": 86,
              "position": 16.0,
              "duration": 1.9
            },
            {
              "pitch": 31,
              "velocity": 78,
              "position": 18.0,
              "duration": 1.7
            },
            {
              "pitch": 36,
              "velocity": 93,
              "position": 20.0,
              "duration": 1.383333
            },
            {
              "pitch": 36,
              "velocity": 89,
              "position": 21.666667,
              "duration": 0.366667
            },
            {
              "pitch": 43,
              "velocity": 98,
              "position": 22.0,
              "duration": 0.783333
            },
            {
              "pitch": 31,
              "velocity": 96,
              "position": 23.0,
              "duration": 0.783333
            }
          ]
        },
        "11": {
          "ctab": {
            "srcChannel": 11,
            "name": "Piano",
            "accType": "CHORD1",
            "editable": true,
            "mutedNotes": [],
            "mutedChords": [],
            "sourceChordNote": 0,
            "sourceChordType": "Maj7",
            "ctb2Main": {
              "ntr": "ROOT_FIXED",
              "ntt": "CHORD",
              "bassOn": false,
              "noteLowLimit": 48,
              "noteHighLimit": 84,
              "chordRootUpperLimit": 127,
              "rtr": "NOTE_GENERATOR"
            }
          },
          "notes": [
            {
              "pitch": 48,
              "velocity": 76,
              "position": 8.0,
              "duration": 1.958333
            },
            {
              "pitch": 55,
              "velocity": 67,
              "position": 9.0,
              "duration": 0.233333
            },
            {
              "pitch": 59,
              "velocity": 83,
              "position": 9.0,
              "duration": 0.2
            },
            {
              "pitch": 60,
              "velocity": 74,
              "position": 9.0,
              "duration": 0.266667
            },
            {
              "pitch": 64,
              "velocity": 72,
              "position": 9.0,
              "duration": 0.233333
            },
            {
              "pitch": 48,
              "velocity": 66,
              "position": 10.0,
              "duration": 1.775
            },
            {
              "pitch": 55,
              "velocity": 74,
              "position": 11.0,
              "duration": 0.333333
            },
            {
              "pitch": 59,
              "velocity": 79,
              "position": 11.0,
              "duration": 0.233333
            },
            {
              "pitch": 60,
              "velocity": 73,
              "position": 11.0,
              "duration": 0.333333
            },
            {
              "pitch": 64,
              "velocity": 71,
              "position": 11.0,
              "duration": 0.3
            },
            {
              "pitch": 48,
              "velocity": 76,
              "position": 12.0,
              "duration": 1.625
            },
            {
              "pitch": 55,
              "velocity": 67,
              "position": 13.0,
              "duration": 0.233333
            },
            {
              "pitch": 59,
              "velocity": 83,
              "position": 13.0,
              "duration": 0.2
            },
            {
              "pitch": 60,
              "velocity": 74,
              "position": 13.0,
              "duration": 0.266667
            },
            {
              "pitch": 64,
              "velocity": 72,
              "position": 13.0,
              "duration": 0.233333
            },
            {
              "pitch": 48,
              "velocity": 66,
              "position": 13.708333,
              "duration": 2.05
            },
            {
              "pitch": 55,
              "velocity": 74,
              "position": 15.0,
              "duration": 0.333333
            },
            {
              "pitch": 59,
              "velocity": 79,
              "position": 15.0,
              "duration": 0.233333
            },
            {
              "pitch": 60,
              "velocity": 73,
              "position": 15.0,
              "duration": 0.333333
            },
            {
              "pitch": 64,
              "velocity": 71,
              "position": 15.0,
              "duration": 0.3
            },
            {
              "pitch": 48,
              "velocity": 66,
              "position": 16.0,
              "duration": 1.775
            },
            {
              "pitch": 55,
              "velocity": 74,
              "position": 17.0,
              "duration": 0.333333
            },
            {
              "pitch": 59,
              "velocity": 79,
              "position": 17.0,
              "duration": 0.233333
            },
            {
              "pitch": 60,
              "velocity": 73,
              "position": 17.0,
              "duration": 0.333333
            },
            {
              "pitch": 64,
              "velocity": 71,
              "position": 17.0,
              "duration": 0.3
            },
            {
              "pitch": 43,
              "velocity": 62,
              "position": 18.0,
              "duration": 1.8
            },
            {
              "pitch": 55,
              "velocity": 64,
              "position": 19.0,
              "duration": 0.433333
            },
            {
              "pitch": 59,
              "velocity": 87,
              "position": 19.0,
              "duration": 0.433333
            },
            {
              "pitch": 60,
              "velocity": 67,
              "position": 19.0,
              "duration": 0.533333
            },
            {
              "pitch": 64,
              "velocity": 73,
              "position": 19.0,
              "duration": 0.533333
            },
            {
              "pitch": 48,
              "velocity": 72,
              "position": 20.0,
              "duration": 2.033333
            },
            {
              "pitch": 55,
              "velocity": 58,
              "position": 21.0,
              "duration": 0.5
            },
            {
              "pitch": 59,
              "velocity": 77,
              "position": 21.666667,
              "duration": 0.533333
            },
            {
              "pitch": 60,
              "velocity": 77,
              "position": 21.666667,
              "duration": 0.566667
            },
            {
              "pitch": 64,
              "velocity": 68,
              "position": 21.666667,
              "duration": 0.6
            },
            {
              "pitch": 43,
              "velocity": 72,
              "position": 22.0,
              "duration": 1.833333
            },
            {
              "pitch": 55,
              "velocity": 72,
              "position": 22.666667,
              "duration": 0.833333
            },
            {
              "pitch": 59,
              "velocity": 35,
              "position": 23.0,
              "duration": 0.433333
            },
            {
              "pitch": 60,
              "velocity": 78,
              "position": 23.0,
              "duration": 0.5
            },
            {
              "pitch": 64,
              "velocity": 79,
              "position": 23.0,
              "duration": 0.5
            }
          ]
        },
        "12": {
          "ctab": {
            "srcChannel": 12,
            "name": "Guitar",
            "accType": "CHORD2",
            "editable": true,
            "mutedNotes": [],
            "mutedChords": [],
            "sourceChordNote": 0,
            "sourceChordType": "Maj7",
            "ctb2Main": {
              "ntr": "ROOT_FIXED",
              "ntt": "CHORD",
              "bassOn": false,
              "noteLowLimit": 40,
              "noteHighLimit": 76,
              "chordRootUpperLimit": 127,
              "rtr": "NOTE_GENERATOR"
            }
          },
          "notes": [
            {
              "pitch": 67,
              "velocity": 76,
              "position": 9.0,
              "duration": 0.225
            },
            {
              "pitch": 71,
              "velocity": 75,
              "position": 9.0,
              "duration": 0.216667
            },
            {
              "pitch": 64,
              "velocity": 61,
              "position": 9.008333,
              "duration": 0.166667
            },
            {
              "pitch": 64,
              "velocity": 83,
              "position": 10.95,
              "duration": 0.3
            },
            {
              "pitch": 67,
              "velocity": 83,
              "position": 10.983333,
              "duration": 0.266667
            },
            {
              "pitch": 71,
              "velocity": 83,
              "position": 11.025,
              "duration": 0.225
            },
            {
              "pitch": 48,
              "velocity": 59,
              "position": 12.975,
              "duration": 0.275
            },
            {
              "pitch": 60,
              "velocity": 74,
              "position": 12.983333,
              "duration": 0.266667
            },
            {
              "pitch": 64,
              "velocity": 74,
              "position": 12.991667,
              "duration": 0.258333
            },
            {
              "pitch": 67,
              "velocity": 74,
              "position": 13.008333,
              "duration": 0.241667
            },
            {
              "pitch": 71,
              "velocity": 74,
              "position": 13.016667,
              "duration": 0.233333
            },
            {
              "pitch": 64,
              "velocity": 83,
              "position": 14.95,
              "duration": 0.3
            },
            {
              "pitch": 67,
              "velocity": 83,
              "position": 14.983333,
              "duration": 0.266667
            },
            {
              "pitch": 71,
              "velocity": 83,
              "position": 15.025,
              "duration": 0.225
            },
            {
              "pitch": 67,
              "velocity": 76,
              "position": 17.0,
              "duration": 0.225
            },
            {
              "pitch": 71,
              "velocity": 75,
              "position": 17.0,
              "duration": 0.216667
            },
            {
              "pitch": 64,
              "velocity": 61,
              "position": 17.008333,
              "duration": 0.166667
            },
            {
              "pitch": 64,
              "velocity": 61,
              "position": 19.0,
              "duration": 0.175
            },
            {
              "pitch": 67,
              "velocity": 88,
              "position": 19.0,
              "duration": 0.2
            },
            {
              "pitch": 71,
              "velocity": 87,
              "position": 19.0,
              "duration": 0.2
            },
            {
              "pitch": 67,
              "velocity": 67,
              "position": 20.991667,
              "duration": 0.2
            },
            {
              "pitch": 64,
              "velocity": 76,
              "position": 21.016667,
              "duration": 0.141667
            },
            {
              "pitch": 71,
              "velocity": 77,
              "position": 21.025,
              "duration": 0.175
            },
            {
              "pitch": 67,
              "velocity": 79,
              "position": 23.008333,
              "duration": 0.225
            },
            {
              "pitch": 71,
              "velocity": 91,
              "position": 23.008333,
              "duration": 0.225
            },
            {
              "pitch": 64,
              "velocity": 69,
              "position": 23.016667,
              "duration": 0.2
            }
          ]
        },
        "13": {
          "ctab": {
            "srcChannel": 13,
            "name": "Strings",
            "accType": "PAD",
            "editable": true,
            "mutedNotes": [],
            "mutedChords": [],
            "sourceChordNote": 0,
            "sourceChordType": "Maj7",
            "ctb2Main": {
              "ntr": "ROOT_FIXED",
              "ntt": "MELODY",
              "bassOn": false,
              "noteLowLimit": 36,
              "noteHighLimit": 96,
              "chordRootUpperLimit": 127,
              "rtr": "PITCH_SHIFT"
            }
          },
          "notes": [
            {
              "pitch": 79,
              "velocity": 63,
              "position": 8.025,
              "duration": 1.233333
            },
            {
              "pitch": 75,
              "velocity": 83,
              "position": 8.033333,
              "duration": 0.333333
            },
            {
              "pitch": 83,
              "velocity": 56,
              "position": 8.041667,
              "duration": 1.058333
            },
            {
              "pitch": 76,
              "velocity": 58,
              "position": 8.366667,
              "duration": 1.3
            },
            {
              "pitch": 74,
              "velocity": 45,
              "position": 9.666667,
              "duration": 0.291667
            },
            {
              "pitch": 64,
              "velocity": 58,
              "position": 10.0,
              "duration": 1.958333
            },
            {
              "pitch": 71,
              "velocity": 71,
              "position": 10.0,
              "duration": 1.958333
            },
            {
              "pitch": 79,
              "velocity": 59,
              "position": 10.0,
              "duration": 1.958333
            },
            {
              "pitch": 86,
              "velocity": 57,
              "position": 10.0,
              "duration": 1.958333
            },
            {
              "pitch": 74,
              "velocity": 58,
              "position": 12.0,
              "duration": 1.958333
            },
            {
              "pitch": 79,
              "velocity": 51,
              "position": 12.0,
              "duration": 1.958333
            },
            {
              "pitch": 83,
              "velocity": 65,
              "position": 12.0,
              "duration": 1.958333
            },
            {
              "pitch": 88,
              "velocity": 70,
              "position": 12.0,
              "duration": 1.958333
            },
            {
              "pitch": 79,
              "velocity": 63,
              "position": 14.025,
              "duration": 1.233333
            },
            {
              "pitch": 75,
              "velocity": 83,
              "position": 14.033333,
              "duration": 0.333333
            },
            {
              "pitch": 83,
              "velocity": 56,
              "position": 14.041667,
              "duration": 1.058333
            },
            {
              "pitch": 76,
              "velocity": 58,
              "position": 14.366667,
              "duration": 1.3
            },
            {
              "pitch": 74,
              "velocity": 45,
              "position": 15.666667,
              "duration": 0.291667
            },
            {
              "pitch": 64,
              "velocity": 56,
              "position": 16.075,
              "duration": 7.5
            },
            {
              "pitch": 71,
              "velocity": 59,
              "position": 16.075,
              "duration": 7.466667
            },
            {
              "pitch": 74,
              "velocity": 49,
              "position": 16.075,
              "duration": 7.533333
            },
            {
              "pitch": 78,
              "velocity": 78,
              "position": 17.575,
              "duration": 0.466667
            },
            {
              "pitch": 86,
              "velocity": 56,
              "position": 17.608333,
              "duration": 5.9
            },
            {
              "pitch": 79,
              "velocity": 68,
              "position": 17.708333,
              "duration": 5.766667
            }
          ]
        }
      }
    },
    "Main_A": {
      "type": "Main_A",
      "sizeInBeats": 16,
      "channels": {
        "9": {
          "ctab": {
            "srcChannel": 9,
            "name": "Drums",
            "accType": "RHYTHM",
            "editable": false,
            "mutedNotes": [],
            "mutedChords": [],
            "sourceChordNote": 0,
            "sourceChordType": "Maj",
            "ctb2Main": {
              "ntr": "ROOT_FIXED",
              "ntt": "BYPASS",
              "bassOn": false,
              "noteLowLimit": 20,
              "noteHighLimit": 127,
              "chordRootUpperLimit": 127,
              "rtr": "RETRIGGER"
            }
          },
          "notes": [
            {
              "pitch": 35,
              "velocity": 90,
              "position": 0.0,
              "duration": 0.208333
            },
            {
              "pitch": 42,
              "velocity": 60,
              "position": 0.0,
              "duration": 0.208333
            },
            {
              "pitch": 49,
              "velocity": 90,
              "position": 0.0,
              "duration": 0.208333
            },
            {
              "pitch": 42,
              "velocity": 40,
              "position": 0.666667,
              "duration": 0.208333
            },
            {
              "pitch": 38,
              "velocity": 80,
              "position": 1.0,
              "duration": 0.208333
            },
            {
              "pitch": 39,
              "velocity": 90,
              "position": 1.0,
              "duration": 0.208333
            },
            {
              "pitch": 42,
              "velocity": 100,
              "position": 1.0,
              "duration": 0.208333
            },
            {
              "pitch": 42,
              "velocity": 40,
              "position": 1.666667,
              "duration": 0.208333
            },
            {
              "pitch": 35,
              "velocity": 90,
              "position": 2.0,
              "duration": 0.208333
            },
            {
              "pitch": 42,
              "velocity": 60,
              "position": 2.0,
              "duration": 0.208333
            },
            {
              "pitch": 38,
              "velocity": 60,
              "position": 2.666667,
              "duration": 0.208333
            },
            {
              "pitch": 42,
              "velocity": 40,
              "position": 2.666667,
              "duration": 0.208333
            },
            {
              "pitch": 38,
              "velocity": 80,
              "position": 3.0,
              "duration": 0.208333
            },
            {
              "pitch": 39,
              "velocity": 90,
              "position": 3.0,
              "duration": 0.208333
            },
            {
              "pitch": 42,
              "velocity": 100,
              "position": 3.0,
              "duration": 0.208333
            },
            {
              "pitch": 42,
              "velocity": 40,
              "position": 3.666667,
              "duration": 0.208333
            },
            {
              "pitch": 35,
              "velocity": 90,
              "position": 4.0,
              "duration": 0.208333
            },
            {
              "pitch": 42,
              "velocity": 60,
              "position": 4.0,
              "duration": 0.208333
            },
            {
              "pitch": 42,
              "velocity": 40,
              "position": 4.666667,
              "duration": 0.208333
            },
            {
              "pitch": 38,
              "velocity": 80,
              "position": 5.0,
              "duration": 0.208333
            },
            {
              "pitch": 39,
              "velocity": 90,
              "position": 5.0,
              "duration": 0.208333
            },
            {
              "pitch": 42,
              "velocity": 100,
              "position": 5.0,
              "duration": 0.208333
            },
            {
              "pitch": 38,
              "velocity": 60,
              "position": 5.666667,
              "duration": 0.208333
            },
            {
              "pitch": 42,
              "velocity": 40,
              "position": 5.666667,
              "duration": 0.208333
            },
            {
              "pitch": 35,
              "velocity": 90,
              "position": 6.0,
              "duration": 0.208333
            },
            {
              "pitch": 42,
              "velocity": 60,
              "position": 6.0,
              "duration": 0.208333
            },
            {
              "pitch": 38,
              "velocity": 60,
              "position": 6.666667,
              "duration": 0.208333
            },
            {
              "pitch": 42,
              "velocity": 40,
              "position": 6.666667,
              "duration": 0.208333
            },
            {
              "pitch": 38,
              "velocity": 80,
              "position": 7.0,
              "duration": 0.208333
            },
            {
              "pitch": 39,
              "velocity": 90,
              "position": 7.0,
              "duration": 0.208333
            },
            {
              "pitch": 42,
              "velocity": 100,
              "position": 7.0,
              "duration": 0.208333
            },
            {
              "pitch": 42,
              "velocity": 40,
              "position": 7.666667,
              "duration": 0.208333
            },
            {
              "pitch": 35,
              "velocity": 90,
              "position": 8.0,
              "duration": 0.208333
            },
            {
              "pitch": 42,
              "velocity": 60,
              "position": 8.0,
              "duration": 0.208333
            },
            {
              "pitch": 42,
              "velocity": 40,
              "position": 8.666667,
              "duration": 0.208333
            },
            {
              "pitch": 38,
              "velocity": 80,
              "position": 9.0,
              "duration": 0.208333
            },
            {
              "pitch": 39,
              "velocity": 90,
              "position": 9.0,
              "duration": 0.208333
            },
            {
              "pitch": 42,
              "velocity": 100,
              "position": 9.0,
              "duration": 0.208333
            },
            {
              "pitch": 42,
              "velocity": 40,
              "position": 9.666667,
              "duration": 0.208333
            },
            {
              "pitch": 35,
              "velocity": 90,
              "position": 10.0,
              "duration": 0.208333
            },
            {
              "pitch": 42,
              "velocity": 60,
              "position": 10.0,
              "duration": 0.208333
            },
            {
              "pitch": 38,
              "velocity": 60,
              "position": 10.666667,
              "duration": 0.208333
            },
            {
              "pitch": 42,
              "velocity": 40,
              "position": 10.666667,
              "duration": 0.208333
            },
            {
              "pitch": 38,
              "velocity": 80,
              "position": 11.0,
              "duration": 0.208333
            },
            {
              "pitch": 39,
              "velocity": 90,
              "position": 11.0,
              "duration": 0.208333
            },
            {
              "pitch": 42,
              "velocity": 100,
              "position": 11.0,
              "duration": 0.208333
            },
            {
              "pitch": 42,
              "velocity": 40,
              "position": 11.666667,
              "duration": 0.208333
            },
            {
              "pitch": 35,
              "velocity": 90,
              "position": 12.0,
              "duration": 0.208333
            },
            {
              "pitch": 42,
              "velocity": 60,
              "position": 12.0,
              "duration": 0.208333
            },
            {
              "pitch": 42,
              "velocity": 40,
              "position": 12.666667,
              "duration": 0.208333
            },
            {
              "pitch": 38,
              "velocity": 80,
              "position": 13.0,
              "duration": 0.208333
            },
            {
              "pitch": 39,
              "velocity": 90,
              "position": 13.0,
              "duration": 0.208333
            },
            {
              "pitch": 42,
              "velocity": 100,
              "position": 13.0,
              "duration": 0.208333
            },
            {
              "pitch": 38,
              "velocity": 60,
              "position": 13.666667,
              "duration": 0.208333
            },
            {
              "pitch": 42,
              "velocity": 40,
              "position": 13.666667,
              "duration": 0.208333
            },
            {
              "pitch": 35,
              "velocity": 90,
              "position": 14.0,
              "duration": 0.208333
            },
            {
              "pitch": 38,
              "velocity": 80,
              "position": 14.0,
              "duration": 0.208333
            },
            {
              "pitch": 42,
              "velocity": 60,
              "position": 14.0,
              "duration": 0.208333
            },
            {
              "pitch": 38,
              "velocity": 60,
              "position": 14.666667,
              "duration": 0.208333
            },
            {
              "pitch": 42,
              "velocity": 40,
              "position": 14.666667,
              "duration": 0.208333
            },
            {
              "pitch": 38,
              "velocity": 80,
              "position": 15.0,
              "duration": 0.208333
            },
            {
              "pitch": 39,
              "velocity": 90,
              "position": 15.0,
              "duration": 0.208333
            },
            {
              "pitch": 42,
              "velocity": 100,
              "position": 15.0,
              "duration": 0.208333
            },
            {
              "pitch": 38,
              "velocity": 60,
              "position": 15.666667,
              "duration": 0.208333
            },
            {
              "pitch": 42,
              "velocity": 40,
              "position": 15.666667,
              "duration": 0.208333
            }
          ]
        },
        "10": {
          "ctab": {
            "srcChannel": 10,
            "name": "Bass",
            "accType": "BASS",
            "editable": true,
            "mutedNotes": [],
            "mutedChords": [],
            "sourceChordNote": 0,
            "sourceChordType": "Maj7",
            "ctb2Main": {
              "ntr": "ROOT_TRANSPOSITION",
              "ntt": "BYPASS",
              "bassOn": true,
              "noteLowLimit": 20,
              "noteHighLimit": 60,
              "chordRootUpperLimit": 127,
              "rtr": "NOTE_GENERATOR"
            }
          },
          "notes": [
            {
              "pitch": 36,
              "velocity": 90,
              "position": 0.0,
              "duration": 1.958333
            },
            {
              "pitch": 36,
              "velocity": 92,
              "position": 2.0,
              "duration": 0.991667
            },
            {
              "pitch": 43,
              "velocity": 88,
              "position": 3.0,
              "duration": 0.958333
            },
            {
              "pitch": 36,
              "velocity": 90,
              "position": 4.0,
              "duration": 1.958333
            },
            {
              "pitch": 36,
              "velocity": 90,
              "position": 6.0,
              "duration": 1.958333
            },
            {
              "pitch": 36,
              "velocity": 86,
              "position": 8.0,
              "duration": 1.9
            },
            {
              "pitch": 31,
              "velocity": 78,
              "position": 10.0,
              "duration": 1.7
            },
            {
              "pitch": 36,
              "velocity": 93,
              "position": 12.0,
              "duration": 1.383333
            },
            {
              "pitch": 36,
              "velocity": 89,
              "position": 13.666667,
              "duration": 0.366667
            },
            {
              "pitch": 43,
              "velocity": 98,
              "position": 14.0,
              "duration": 0.783333
            },
            {
              "pitch": 31,
              "velocity": 96,
              "position": 15.0,
              "duration": 0.783333
            }
          ]
        },
        "11": {
          "ctab": {
            "srcChannel": 11,
            "name": "Piano",
            "accType": "CHORD1",
            "editable": true,
            "mutedNotes": [],
            "mutedChords": [],
            "sourceChordNote": 0,
            "sourceChordType": "Maj7",
            "ctb2Main": {
              "ntr": "ROOT_FIXED",
              "ntt": "CHORD",
              "bassOn": false,
              "noteLowLimit": 48,
              "noteHighLimit": 84,
              "chordRootUpperLimit": 127,
              "rtr": "NOTE_GENERATOR"
            }
          },
          "notes": [
            {
              "pitch": 48,
              "velocity": 79,
              "position": 0.0,
              "duration": 1.958333
            },
            {
              "pitch": 55,
              "velocity": 70,
              "position": 1.0,
              "duration": 0.233333
            },
            {
              "pitch": 59,
              "velocity": 86,
              "position": 1.0,
              "duration": 0.2
            },
            {
              "pitch": 60,
              "velocity": 77,
              "position": 1.0,
              "duration": 0.266667
            },
            {
              "pitch": 64,
              "velocity": 75,
              "position": 1.0,
              "duration": 0.233333
            },
            {
              "pitch": 48,
              "velocity": 79,
              "position": 2.0,
              "duration": 1.625
            },
            {
              "pitch": 55,
              "velocity": 70,
              "position": 3.0,
              "duration": 0.233333
            },
            {
              "pitch": 59,
              "velocity": 86,
              "position": 3.0,
              "duration": 0.2
            },
            {
              "pitch": 60,
              "velocity": 77,
              "position": 3.0,
              "duration": 0.266667
            },
            {
              "pitch": 64,
              "velocity": 75,
              "position": 3.0,
              "duration": 0.233333
            },
            {
              "pitch": 48,
              "velocity": 71,
              "position": 3.708333,
              "duration": 2.05
            },
            {
              "pitch": 55,
              "velocity": 79,
              "position": 5.0,
              "duration": 0.333333
            },
            {
              "pitch": 59,
              "velocity": 84,
              "position": 5.0,
              "duration": 0.233333
            },
            {
              "pitch": 60,
              "velocity": 78,
              "position": 5.0,
              "duration": 0.333333
            },
            {
              "pitch": 64,
              "velocity": 76,
              "position": 5.0,
              "duration": 0.3
            },
            {
              "pitch": 48,
              "velocity": 71,
              "position": 6.0,
              "duration": 1.775
            },
            {
              "pitch": 55,
              "velocity": 79,
              "position": 7.0,
              "duration": 0.333333
            },
            {
              "pitch": 59,
              "velocity": 84,
              "position": 7.0,
              "duration": 0.233333
            },
            {
              "pitch": 60,
              "velocity": 78,
              "position": 7.0,
              "duration": 0.333333
            },
            {
              "pitch": 64,
              "velocity": 76,
              "position": 7.0,
              "duration": 0.3
            },
            {
              "pitch": 48,
              "velocity": 83,
              "position": 8.0,
              "duration": 2.1
            },
            {
              "pitch": 55,
              "velocity": 74,
              "position": 9.0,
              "duration": 0.233333
            },
            {
              "pitch": 59,
              "velocity": 90,
              "position": 9.0,
              "duration": 0.2
            },
            {
              "pitch": 60,
              "velocity": 81,
              "position": 9.0,
              "duration": 0.266667
            },
            {
              "pitch": 64,
              "velocity": 79,
              "position": 9.0,
              "duration": 0.233333
            },
            {
              "pitch": 43,
              "velocity": 55,
              "position": 10.0,
              "duration": 2.033333
            },
            {
              "pitch": 55,
              "velocity": 70,
              "position": 11.0,
              "duration": 0.266667
            },
            {
              "pitch": 59,
              "velocity": 92,
              "position": 11.0,
              "duration": 0.2
            },
            {
              "pitch": 60,
              "velocity": 74,
              "position": 11.0,
              "duration": 0.266667
            },
            {
              "pitch": 64,
              "velocity": 78,
              "position": 11.0,
              "duration": 0.3
            },
            {
              "pitch": 48,
              "velocity": 71,
              "position": 12.0,
              "duration": 2.033333
            },
            {
              "pitch": 55,
              "velocity": 70,
              "position": 13.0,
              "duration": 0.266667
            },
            {
              "pitch": 59,
              "velocity": 88,
              "position": 13.0,
              "duration": 0.2
            },
            {
              "pitch": 60,
              "velocity": 65,
              "position": 13.0,
              "duration": 0.241667
            },
            {
              "pitch": 64,
              "velocity": 83,
              "position": 13.0,
              "duration": 0.3
            },
            {
              "pitch": 43,
              "velocity": 67,
              "position": 14.0,
              "duration": 1.633333
            },
            {
              "pitch": 55,
              "velocity": 75,
              "position": 15.0,
              "duration": 0.466667
            },
            {
              "pitch": 59,
              "velocity": 89,
              "position": 15.0,
              "duration": 0.4
            },
            {
              "pitch": 60,
              "velocity": 72,
              "position": 15.0,
              "duration": 0.5
            },
            {
              "pitch": 64,
              "velocity": 84,
              "position": 15.0,
              "duration": 0.533333
            }
          ]
        },
        "12": {
          "ctab": {
            "srcChannel": 12,
            "name": "Guitar",
            "accType": "CHORD2",
            "editable": true,
            "mutedNotes": [],
            "mutedChords": [],
            "sourceChordNote": 0,
            "sourceChordType": "Maj7",
            "ctb2Main": {
              "ntr": "ROOT_FIXED",
              "ntt": "CHORD",
              "bassOn": false,
              "noteLowLimit": 40,
              "noteHighLimit": 76,
              "chordRootUpperLimit": 127,
              "rtr": "NOTE_GENERATOR"
            }
          },
          "notes": [
            {
              "pitch": 60,
              "velocity": 84,
              "position": 0.95,
              "duration": 0.3
            },
            {
              "pitch": 64,
              "velocity": 84,
              "position": 0.975,
              "duration": 0.275
            },
            {
              "pitch": 67,
              "velocity": 84,
              "position": 1.0,
              "duration": 0.25
            },
            {
              "pitch": 71,
              "velocity": 84,
              "position": 1.033333,
              "duration": 0.216667
            },
            {
              "pitch": 59,
              "velocity": 94,
              "position": 2.95,
              "duration": 0.2
            },
            {
              "pitch": 64,
              "velocity": 94,
              "position": 2.983333,
              "duration": 0.166667
            },
            {
              "pitch": 67,
              "velocity": 94,
              "position": 3.025,
              "duration": 0.125
            },
            {
              "pitch": 60,
              "velocity": 94,
              "position": 4.95,
              "duration": 0.2
            },
            {
              "pitch": 64,
              "velocity": 94,
              "position": 4.975,
              "duration": 0.175
            },
            {
              "pitch": 67,
              "velocity": 94,
              "position": 5.0,
              "duration": 0.15
            },
            {
              "pitch": 71,
              "velocity": 94,
              "position": 5.033333,
              "duration": 0.116667
            },
            {
              "pitch": 60,
              "velocity": 86,
              "position": 6.95,
              "duration": 0.25
            },
            {
              "pitch": 64,
              "velocity": 86,
              "position": 6.975,
              "duration": 0.225
            },
            {
              "pitch": 67,
              "velocity": 86,
              "position": 7.0,
              "duration": 0.2
            },
            {
              "pitch": 71,
              "velocity": 86,
              "position": 7.033333,
              "duration": 0.166667
            },
            {
              "pitch": 64,
              "velocity": 93,
              "position": 8.95,
              "duration": 0.3
            },
            {
              "pitch": 67,
              "velocity": 93,
              "position": 8.983333,
              "duration": 0.266667
            },
            {
              "pitch": 71,
              "velocity": 93,
              "position": 9.025,
              "duration": 0.225
            },
            {
              "pitch": 71,
              "velocity": 46,
              "position": 10.6,
              "duration": 0.416667
            },
            {
              "pitch": 67,
              "velocity": 52,
              "position": 10.633333,
              "duration": 0.35
            },
            {
              "pitch": 64,
              "velocity": 52,
              "position": 10.675,
              "duration": 0.275
            },
            {
              "pitch": 64,
              "velocity": 84,
              "position": 10.966667,
              "duration": 0.25
            },
            {
              "pitch": 67,
              "velocity": 84,
              "position": 11.0,
              "duration": 0.216667
            },
            {
              "pitch": 71,
              "velocity": 84,
              "position": 11.041667,
              "duration": 0.175
            },
            {
              "pitch": 64,
              "velocity": 89,
              "position": 12.95,
              "duration": 0.3
            },
            {
              "pitch": 67,
              "velocity": 89,
              "position": 12.983333,
              "duration": 0.266667
            },
            {
              "pitch": 71,
              "velocity": 89,
              "position": 13.025,
              "duration": 0.225
            },
            {
              "pitch": 64,
              "velocity": 96,
              "position": 14.95,
              "duration": 0.341667
            },
            {
              "pitch": 67,
              "velocity": 96,
              "position": 14.983333,
              "duration": 0.308333
            },
            {
              "pitch": 71,
              "velocity": 96,
              "position": 15.025,
              "duration": 0.266667
            }
          ]
        },
        "13": {
          "ctab": {
            "srcChannel": 13,
            "name": "Strings",
            "accType": "PAD",
            "editable": true,
            "mutedNotes": [],
            "mutedChords": [],
            "sourceChordNote": 0,
            "sourceChordType": "Maj7",
            "ctb2Main": {
              "ntr": "ROOT_FIXED",
              "ntt": "MELODY",
              "bassOn": false,
              "noteLowLimit": 36,
              "noteHighLimit": 96,
              "chordRootUpperLimit": 127,
              "rtr": "PITCH_SHIFT"
            }
          },
          "notes": [
            {
              "pitch": 79,
              "velocity": 71,
              "position": 0.025,
              "duration": 1.233333
            },
            {
              "pitch": 75,
              "velocity": 91,
              "position": 0.033333,
              "duration": 0.333333
            },
            {
              "pitch": 83,
              "velocity": 64,
              "position": 0.041667,
              "duration": 1.058333
            },
            {
              "pitch": 76,
              "velocity": 66,
              "position": 0.366667,
              "duration": 1.3
            },
            {
              "pitch": 79,
              "velocity": 64,
              "position": 1.75,
              "duration": 1.875
            },
            {
              "pitch": 75,
              "velocity": 84,
              "position": 1.758333,
              "duration": 0.383333
            },
            {
              "pitch": 76,
              "velocity": 59,
              "position": 2.158333,
              "duration": 1.466667
            },
            {
              "pitch": 78,
              "velocity": 82,
              "position": 3.708333,
              "duration": 0.583333
            },
            {
              "pitch": 86,
              "velocity": 68,
              "position": 3.708333,
              "duration": 1.916667
            },
            {
              "pitch": 71,
              "velocity": 72,
              "position": 3.725,
              "duration": 1.9
            },
            {
              "pitch": 64,
              "velocity": 60,
              "position": 4.091667,
              "duration": 1.533333
            },
            {
              "pitch": 79,
              "velocity": 67,
              "position": 4.233333,
              "duration": 1.391667
            },
            {
              "pitch": 78,
              "velocity": 82,
              "position": 5.708333,
              "duration": 0.583333
            },
            {
              "pitch": 86,
              "velocity": 68,
              "position": 5.708333,
              "duration": 2.233333
            },
            {
              "pitch": 71,
              "velocity": 72,
              "position": 5.725,
              "duration": 2.216667
            },
            {
              "pitch": 64,
              "velocity": 60,
              "position": 6.091667,
              "duration": 1.866667
            },
            {
              "pitch": 79,
              "velocity": 67,
              "position": 6.233333,
              "duration": 1.725
            },
            {
              "pitch": 64,
              "velocity": 66,
              "position": 8.0,
              "duration": 7.9
            },
            {
              "pitch": 71,
              "velocity": 79,
              "position": 8.0,
              "duration": 7.933333
            },
            {
              "pitch": 79,
              "velocity": 67,
              "position": 8.0,
              "duration": 7.933333
            },
            {
              "pitch": 86,
              "velocity": 65,
              "position": 8.0,
              "duration": 7.958333
            }
          ]
        }
      }
    },
    "Main_B": {
      "type": "Main_B",
      "sizeInBeats": 16,
      "channels": {
        "9": {
          "ctab": {
            "srcChannel": 9,
            "name": "Drums",
            "accType": "RHYTHM",
            "editable": false,
            "mutedNotes": [],
            "mutedChords": [],
            "sourceChordNote": 0,
            "sourceChordType": "Maj",
            "ctb2Main": {
              "ntr": "ROOT_FIXED",
              "ntt": "BYPASS",
              "bassOn": false,
              "noteLowLimit": 20,
              "noteHighLimit": 127,
              "chordRootUpperLimit": 127,
              "rtr": "RETRIGGER"
            }
          },
          "notes": [
            {
              "pitch": 35,
              "velocity": 90,
              "position": 0.0,
              "duration": 0.208333
            },
            {
              "pitch": 42,
              "velocity": 60,
              "position": 0.0,
              "duration": 0.208333
            },
            {
              "pitch": 49,
              "velocity": 90,
              "position": 0.0,
              "duration": 0.208333
            },
            {
              "pitch": 42,
              "velocity": 40,
              "position": 0.666667,
              "duration": 0.208333
            },
            {
              "pitch": 38,
              "velocity": 80,
              "position": 1.0,
              "duration": 0.208333
            },
            {
              "pitch": 39,
              "velocity": 90,
              "position": 1.0,
              "duration": 0.208333
            },
            {
              "pitch": 42,
              "velocity": 100,
              "position": 1.0,
              "duration": 0.208333
            },
            {
              "pitch": 42,
              "velocity": 40,
              "position": 1.666667,
              "duration": 0.208333
            },
            {
              "pitch": 35,
              "velocity": 90,
              "position": 2.0,
              "duration": 0.208333
            },
            {
              "pitch": 42,
              "velocity": 60,
              "position": 2.0,
              "duration": 0.208333
            },
            {
              "pitch": 38,
              "velocity": 60,
              "position": 2.666667,
              "duration": 0.208333
            },
            {
              "pitch": 42,
              "velocity": 40,
              "position": 2.666667,
              "duration": 0.208333
            },
            {
              "pitch": 38,
              "velocity": 80,
              "position": 3.0,
              "duration": 0.208333
            },
            {
              "pitch": 39,
              "velocity": 90,
              "position": 3.0,
              "duration": 0.208333
            },
            {
              "pitch": 42,
              "velocity": 100,
              "position": 3.0,
              "duration": 0.208333
            },
            {
              "pitch": 42,
              "velocity": 40,
              "position": 3.666667,
              "duration": 0.208333
            },
            {
              "pitch": 35,
              "velocity": 90,
              "position": 4.0,
              "duration": 0.208333
            },
            {
              "pitch": 42,
              "velocity": 60,
              "position": 4.0,
              "duration": 0.208333
            },
            {
              "pitch": 42,
              "velocity": 40,
              "position": 4.666667,
              "duration": 0.208333
            },
            {
              "pitch": 38,
              "velocity": 80,
              "position": 5.0,
              "duration": 0.208333
            },
            {
              "pitch": 39,
              "velocity": 90,
              "position": 5.0,
              "duration": 0.208333
            },
            {
              "pitch": 42,
              "velocity": 100,
              "position": 5.0,
              "duration": 0.208333
            },
            {
              "pitch": 38,
              "velocity": 60,
              "position": 5.666667,
              "duration": 0.208333
            },
            {
              "pitch": 42,
              "velocity": 40,
              "position": 5.666667,
              "duration": 0.208333
            },
            {
              "pitch": 35,
              "velocity": 90,
              "position": 6.0,
              "duration": 0.208333
            },
            {
              "pitch": 42,
              "velocity": 60,
              "position": 6.0,
              "duration": 0.208333
            },
            {
              "pitch": 38,
              "velocity": 60,
              "position": 6.666667,
              "duration": 0.208333
            },
            {
              "pitch": 42,
              "velocity": 40,
              "position": 6.666667,
              "duration": 0.208333
            },
            {
              "pitch": 38,
              "velocity": 80,
              "position": 7.0,
              "duration": 0.208333
            },
            {
              "pitch": 39,
              "velocity": 90,
              "position": 7.0,
              "duration": 0.208333
            },
            {
              "pitch": 42,
              "velocity": 100,
              "position": 7.0,
              "duration": 0.208333
            },
            {
              "pitch": 42,
              "velocity": 40,
              "position": 7.666667,
              "duration": 0.208333
            },
            {
              "pitch": 35,
              "velocity": 90,
              "position": 8.0,
              "duration": 0.208333
            },
            {
              "pitch": 42,
              "velocity": 60,
              "position": 8.0,
              "duration": 0.208333
            },
            {
              "pitch": 42,
              "velocity": 40,
              "position": 8.666667,
              "duration": 0.208333
            },
            {
              "pitch": 38,
              "velocity": 80,
              "position": 9.0,
              "duration": 0.208333
            },
            {
              "pitch": 39,
              "velocity": 90,
              "position": 9.0,
              "duration": 0.208333
            },
            {
              "pitch": 42,
              "velocity": 100,
              "position": 9.0,
              "duration": 0.208333
            },
            {
              "pitch": 42,
              "velocity": 40,
              "position": 9.666667,
              "duration": 0.208333
            },
            {
              "pitch": 35,
              "velocity": 90,
              "position": 10.0,
              "duration": 0.208333
            },
            {
              "pitch": 42,
              "velocity": 60,
              "position": 10.0,
              "duration": 0.208333
            },
            {
              "pitch": 38,
              "velocity": 60,
              "position": 10.666667,
              "duration": 0.208333
            },
            {
              "pitch": 42,
              "velocity": 40,
              "position": 10.666667,
              "duration": 0.208333
            },
            {
              "pitch": 38,
              "velocity": 80,
              "position": 11.0,
              "duration": 0.208333
            },
            {
              "pitch": 39,
              "velocity": 90,
              "position": 11.0,
              "duration": 0.208333
            },
            {
              "pitch": 42,
              "velocity": 100,
              "position": 11.0,
              "duration": 0.208333
            },
            {
              "pitch": 42,
              "velocity": 40,
              "position": 11.666667,
              "duration": 0.208333
            },
            {
              "pitch": 35,
              "velocity": 90,
              "position": 12.0,
              "duration": 0.208333
            },
            {
              "pitch": 42,
              "velocity": 60,
              "position": 12.0,
              "duration": 0.208333
            },
            {
              "pitch": 38,
              "velocity": 50,
              "position": 12.666667,
              "duration": 0.208333
            },
            {
              "pitch": 42,
              "velocity": 40,
              "position": 12.666667,
              "duration": 0.208333
            },
            {
              "pitch": 38,
              "velocity": 80,
              "position": 13.0,
              "duration": 0.208333
            },
            {
              "pitch": 39,
              "velocity": 90,
              "position": 13.0,
              "duration": 0.208333
            },
            {
              "pitch": 42,
              "velocity": 100,
              "position": 13.0,
              "duration": 0.208333
            },
            {
              "pitch": 38,
              "velocity": 60,
              "position": 13.666667,
              "duration": 0.208333
            },
            {
              "pitch": 42,
              "velocity": 40,
              "position": 13.666667,
              "duration": 0.208333
            },
            {
              "pitch": 35,
              "velocity": 90,
              "position": 14.0,
              "duration": 0.208333
            },
            {
              "pitch": 38,
              "velocity": 90,
              "position": 14.0,
              "duration": 0.208333
            },
            {
              "pitch": 42,
              "velocity": 60,
              "position": 14.0,
              "duration": 0.208333
            },
            {
              "pitch": 38,
              "velocity": 60,
              "position": 14.666667,
              "duration": 0.208333
            },
            {
              "pitch": 42,
              "velocity": 40,
              "position": 14.666667,
              "duration": 0.208333
            },
            {
              "pitch": 38,
              "velocity": 80,
              "position": 15.0,
              "duration": 0.208333
            },
            {
              "pitch": 39,
              "velocity": 90,
              "position": 15.0,
              "duration": 0.208333
            },
            {
              "pitch": 42,
              "velocity": 100,
              "position": 15.0,
              "duration": 0.208333
            },
            {
              "pitch": 38,
              "velocity": 70,
              "position": 15.666667,
              "duration": 0.208333
            },
            {
              "pitch": 42,
              "velocity": 40,
              "position": 15.666667,
              "duration": 0.208333
            }
          ]
        },
        "10": {
          "ctab": {
            "srcChannel": 10,
            "name": "Bass",
            "accType": "BASS",
            "editable": true,
            "mutedNotes": [],
            "mutedChords": [],
            "sourceChordNote": 0,
            "sourceChordType": "Maj7",
            "ctb2Main": {
              "ntr": "ROOT_TRANSPOSITION",
              "ntt": "BYPASS",
              "bassOn": true,
              "noteLowLimit": 20,
              "noteHighLimit": 60,
              "chordRootUpperLimit": 127,
              "rtr": "NOTE_GENERATOR"
            }
          },
          "notes": [
            {
              "pitch": 36,
              "velocity": 88,
              "position": 0.0,
              "duration": 1.508333
            },
            {
              "pitch": 36,
              "velocity": 92,
              "position": 1.666667,
              "duration": 0.25
            },
            {
              "pitch": 36,
              "velocity": 92,
              "position": 2.0,
              "duration": 0.991667
            },
            {
              "pitch": 43,
              "velocity": 88,
              "position": 3.0,
              "duration": 0.958333
            },
            {
              "pitch": 36,
              "velocity": 90,
              "position": 4.0,
              "duration": 1.958333
            },
            {
              "pitch": 36,
              "velocity": 90,
              "position": 6.0,
              "duration": 1.958333
            },
            {
              "pitch": 36,
              "velocity": 86,
              "position": 8.0,
              "duration": 1.9
            },
            {
              "pitch": 31,
              "velocity": 78,
              "position": 10.0,
              "duration": 1.7
            },
            {
              "pitch": 36,
              "velocity": 93,
              "position": 12.0,
              "duration": 1.383333
            },
            {
              "pitch": 36,
              "velocity": 89,
              "position": 13.666667,
              "duration": 0.366667
            },
            {
              "pitch": 43,
              "velocity": 98,
              "position": 14.0,
              "duration": 0.783333
            },
            {
              "pitch": 31,
              "velocity": 96,
              "position": 15.0,
              "duration": 0.783333
            }
          ]
        },
        "11": {
          "ctab": {
            "srcChannel": 11,
            "name": "Piano",
            "accType": "CHORD1",
            "editable": true,
            "mutedNotes": [],
            "mutedChords": [],
            "sourceChordNote": 0,
            "sourceChordType": "Maj7",
            "ctb2Main": {
              "ntr": "ROOT_FIXED",
              "ntt": "CHORD",
              "bassOn": false,
              "noteLowLimit": 48,
              "noteHighLimit": 84,
              "chordRootUpperLimit": 127,
              "rtr": "NOTE_GENERATOR"
            }
          },
          "notes": [
            {
              "pitch": 48,
              "velocity": 71,
              "position": 0.0,
              "duration": 1.775
            },
            {
              "pitch": 55,
              "velocity": 79,
              "position": 1.0,
              "duration": 0.333333
            },
            {
              "pitch": 59,
              "velocity": 84,
              "position": 1.0,
              "duration": 0.233333
            },
            {
              "pitch": 60,
              "velocity": 78,
              "position": 1.0,
              "duration": 0.333333
            },
            {
              "pitch": 64,
              "velocity": 76,
              "position": 1.0,
              "duration": 0.3
            },
            {
              "pitch": 48,
              "velocity": 79,
              "position": 2.0,
              "duration": 1.958333
            },
            {
              "pitch": 55,
              "velocity": 70,
              "position": 3.0,
              "duration": 0.233333
            },
            {
              "pitch": 59,
              "velocity": 86,
              "position": 3.0,
              "duration": 0.2
            },
            {
              "pitch": 60,
              "velocity": 77,
              "position": 3.0,
              "duration": 0.266667
            },
            {
              "pitch": 64,
              "velocity": 75,
              "position": 3.0,
              "duration": 0.233333
            },
            {
              "pitch": 48,
              "velocity": 79,
              "position": 4.0,
              "duration": 1.958333
            },
            {
              "pitch": 55,
              "velocity": 70,
              "position": 5.0,
              "duration": 0.233333
            },
            {
              "pitch": 59,
              "velocity": 86,
              "position": 5.0,
              "duration": 0.2
            },
            {
              "pitch": 60,
              "velocity": 77,
              "position": 5.0,
              "duration": 0.266667
            },
            {
              "pitch": 64,
              "velocity": 75,
              "position": 5.0,
              "duration": 0.233333
            },
            {
              "pitch": 48,
              "velocity": 79,
              "position": 6.0,
              "duration": 1.958333
            },
            {
              "pitch": 55,
              "velocity": 70,
              "position": 7.0,
              "duration": 0.233333
            },
            {
              "pitch": 59,
              "velocity": 86,
              "position": 7.0,
              "duration": 0.2
            },
            {
              "pitch": 60,
              "velocity": 77,
              "position": 7.0,
              "duration": 0.266667
            },
            {
              "pitch": 64,
              "velocity": 75,
              "position": 7.0,
              "duration": 0.233333
            },
            {
              "pitch": 48,
              "velocity": 73,
              "position": 8.0,
              "duration": 1.775
            },
            {
              "pitch": 55,
              "velocity": 81,
              "position": 9.0,
              "duration": 0.333333
            },
            {
              "pitch": 59,
              "velocity": 86,
              "position": 9.0,
              "duration": 0.233333
            },
            {
              "pitch": 60,
              "velocity": 80,
              "position": 9.0,
              "duration": 0.333333
            },
            {
              "pitch": 64,
              "velocity": 78,
              "position": 9.0,
              "duration": 0.3
            },
            {
              "pitch": 43,
              "velocity": 69,
              "position": 10.0,
              "duration": 1.8
            },
            {
              "pitch": 55,
              "velocity": 71,
              "position": 11.0,
              "duration": 0.433333
            },
            {
              "pitch": 59,
              "velocity": 94,
              "position": 11.0,
              "duration": 0.433333
            },
            {
              "pitch": 60,
              "velocity": 74,
              "position": 11.0,
              "duration": 0.533333
            },
            {
              "pitch": 64,
              "velocity": 80,
              "position": 11.0,
              "duration": 0.533333
            },
            {
              "pitch": 48,
              "velocity": 79,
              "position": 12.0,
              "duration": 2.033333
            },
            {
              "pitch": 55,
              "velocity": 65,
              "position": 13.0,
              "duration": 0.5
            },
            {
              "pitch": 59,
              "velocity": 84,
              "position": 13.666667,
              "duration": 0.533333
            },
            {
              "pitch": 60,
              "velocity": 84,
              "position": 13.666667,
              "duration": 0.566667
            },
            {
              "pitch": 64,
              "velocity": 75,
              "position": 13.666667,
              "duration": 0.6
            },
            {
              "pitch": 43,
              "velocity": 79,
              "position": 14.0,
              "duration": 1.833333
            },
            {
              "pitch": 55,
              "velocity": 79,
              "position": 14.666667,
              "duration": 0.833333
            },
            {
              "pitch": 59,
              "velocity": 42,
              "position": 15.0,
              "duration": 0.433333
            },
            {
              "pitch": 60,
              "velocity": 85,
              "position": 15.0,
              "duration": 0.5
            },
            {
              "pitch": 64,
              "velocity": 86,
              "position": 15.0,
              "duration": 0.5
            }
          ]
        },
        "12": {
          "ctab": {
            "srcChannel": 12,
            "name": "Guitar",
            "accType": "CHORD2",
            "editable": true,
            "mutedNotes": [],
            "mutedChords": [],
            "sourceChordNote": 0,
            "sourceChordType": "Maj7",
            "ctb2Main": {
              "ntr": "ROOT_FIXED",
              "ntt": "CHORD",
              "bassOn": false,
              "noteLowLimit": 40,
              "noteHighLimit": 76,
              "chordRootUpperLimit": 127,
              "rtr": "NOTE_GENERATOR"
            }
          },
          "notes": [
            {
              "pitch": 59,
              "velocity": 86,
              "position": 0.95,
              "duration": 0.25
            },
            {
              "pitch": 64,
              "velocity": 86,
              "position": 0.983333,
              "duration": 0.216667
            },
            {
              "pitch": 67,
              "velocity": 86,
              "position": 1.025,
              "duration": 0.175
            },
            {
              "pitch": 67,
              "velocity": 86,
              "position": 3.0,
              "duration": 0.225
            },
            {
              "pitch": 64,
              "velocity": 71,
              "position": 3.008333,
              "duration": 0.166667
            },
            {
              "pitch": 48,
              "velocity": 67,
              "position": 4.975,
              "duration": 0.275
            },
            {
              "pitch": 60,
              "velocity": 84,
              "position": 4.983333,
              "duration": 0.266667
            },
            {
              "pitch": 64,
              "velocity": 84,
              "position": 4.991667,
              "duration": 0.258333
            },
            {
              "pitch": 67,
              "velocity": 84,
              "position": 5.008333,
              "duration": 0.241667
            },
            {
              "pitch": 71,
              "velocity": 84,
              "position": 5.016667,
              "duration": 0.233333
            },
            {
              "pitch": 59,
              "velocity": 93,
              "position": 6.95,
              "duration": 0.3
            },
            {
              "pitch": 64,
              "velocity": 93,
              "position": 6.983333,
              "duration": 0.266667
            },
            {
              "pitch": 67,
              "velocity": 93,
              "position": 7.025,
              "duration": 0.225
            },
            {
              "pitch": 60,
              "velocity": 84,
              "position": 8.95,
              "duration": 0.3
            },
            {
              "pitch": 64,
              "velocity": 84,
              "position": 8.975,
              "duration": 0.275
            },
            {
              "pitch": 67,
              "velocity": 84,
              "position": 9.0,
              "duration": 0.25
            },
            {
              "pitch": 71,
              "velocity": 84,
              "position": 9.033333,
              "duration": 0.216667
            },
            {
              "pitch": 60,
              "velocity": 89,
              "position": 10.95,
              "duration": 0.275
            },
            {
              "pitch": 64,
              "velocity": 89,
              "position": 10.975,
              "duration": 0.25
            },
            {
              "pitch": 67,
              "velocity": 89,
              "position": 11.0,
              "duration": 0.225
            },
            {
              "pitch": 71,
              "velocity": 89,
              "position": 11.033333,
              "duration": 0.191667
            },
            {
              "pitch": 60,
              "velocity": 80,
              "position": 12.95,
              "duration": 0.3
            },
            {
              "pitch": 64,
              "velocity": 80,
              "position": 12.975,
              "duration": 0.275
            },
            {
              "pitch": 67,
              "velocity": 80,
              "position": 13.0,
              "duration": 0.25
            },
            {
              "pitch": 71,
              "velocity": 80,
              "position": 13.033333,
              "duration": 0.216667
            },
            {
              "pitch": 60,
              "velocity": 87,
              "position": 14.95,
              "duration": 0.341667
            },
            {
              "pitch": 64,
              "velocity": 87,
              "position": 14.975,
              "duration": 0.316667
            },
            {
              "pitch": 67,
              "velocity": 87,
              "position": 15.0,
              "duration": 0.291667
            },
            {
              "pitch": 71,
              "velocity": 87,
              "position": 15.033333,
              "duration": 0.258333
            }
          ]
        },
        "13": {
          "ctab": {
            "srcChannel": 13,
            "name": "Strings",
            "accType": "PAD",
            "editable": true,
            "mutedNotes": [],
            "mutedChords": [],
            "sourceChordNote": 0,
            "sourceChordType": "Maj7",
            "ctb2Main": {
              "ntr": "ROOT_FIXED",
              "ntt": "MELODY",
              "bassOn": false,
              "noteLowLimit": 36,
              "noteHighLimit": 96,
              "chordRootUpperLimit": 127,
              "rtr": "PITCH_SHIFT"
            }
          },
          "notes": [
            {
              "pitch": 74,
              "velocity": 66,
              "position": 0.0,
              "duration": 1.625
            },
            {
              "pitch": 79,
              "velocity": 59,
              "position": 0.0,
              "duration": 1.625
            },
            {
              "pitch": 83,
              "velocity": 73,
              "position": 0.0,
              "duration": 1.625
            },
            {
              "pitch": 88,
              "velocity": 78,
              "position": 0.0,
              "duration": 1.625
            },
            {
              "pitch": 78,
              "velocity": 82,
              "position": 1.708333,
              "duration": 0.583333
            },
            {
              "pitch": 86,
              "velocity": 68,
              "position": 1.708333,
              "duration": 2.233333
            },
            {
              "pitch": 71,
              "velocity": 72,
              "position": 1.725,
              "duration": 2.216667
            },
            {
              "pitch": 64,
              "velocity": 60,
              "position": 2.091667,
              "duration": 1.866667
            },
            {
              "pitch": 79,
              "velocity": 67,
              "position": 2.233333,
              "duration": 1.725
            },
            {
              "pitch": 78,
              "velocity": 82,
              "position": 4.0,
              "duration": 0.308333
            },
            {
              "pitch": 86,
              "velocity": 68,
              "position": 4.0,
              "duration": 1.958333
            },
            {
              "pitch": 71,
              "velocity": 72,
              "position": 4.016667,
              "duration": 1.941667
            },
            {
              "pitch": 64,
              "velocity": 60,
              "position": 4.091667,
              "duration": 1.866667
            },
            {
              "pitch": 79,
              "velocity": 67,
              "position": 4.233333,
              "duration": 1.725
            },
            {
              "pitch": 79,
              "velocity": 71,
              "position": 6.025,
              "duration": 1.233333
            },
            {
              "pitch": 75,
              "velocity": 91,
              "position": 6.033333,
              "duration": 0.333333
            },
            {
              "pitch": 83,
              "velocity": 64,
              "position": 6.041667,
              "duration": 1.058333
            },
            {
              "pitch": 76,
              "velocity": 66,
              "position": 6.366667,
              "duration": 1.3
            },
            {
              "pitch": 74,
              "velocity": 53,
              "position": 7.666667,
              "duration": 0.291667
            },
            {
              "pitch": 74,
              "velocity": 66,
              "position": 8.0,
              "duration": 7.866667
            },
            {
              "pitch": 79,
              "velocity": 59,
              "position": 8.0,
              "duration": 7.875
            },
            {
              "pitch": 83,
              "velocity": 73,
              "position": 8.0,
              "duration": 7.866667
            },
            {
              "pitch": 88,
              "velocity": 78,
              "position": 8.0,
              "duration": 7.916667
            }
          ]
        }
      }
    },
    "Main_C": {
      "type": "Main_C",
      "sizeInBeats": 16,
      "channels": {
        "9": {
          "ctab": {
            "srcChannel": 9,
            "name": "Drums",
            "accType": "RHYTHM",
            "editable": false,
            "mutedNotes": [],
            "mutedChords": [],
            "sourceChordNote": 0,
            "sourceChordType": "Maj",
            "ctb2Main": {
              "ntr": "ROOT_FIXED",
              "ntt": "BYPASS",
              "bassOn": false,
              "noteLowLimit": 20,
              "noteHighLimit": 127,
              "chordRootUpperLimit": 127,
              "rtr": "RETRIGGER"
            }
          },
          "notes": [
            {
              "pitch": 35,
              "velocity": 90,
              "position": 0.0,
              "duration": 0.208333
            },
            {
              "pitch": 42,
              "velocity": 60,
              "position": 0.0,
              "duration": 0.208333
            },
            {
              "pitch": 49,
              "velocity": 90,
              "position": 0.0,
              "duration": 0.208333
            },
            {
              "pitch": 42,
              "velocity": 40,
              "position": 0.666667,
              "duration": 0.208333
            },
            {
              "pitch": 38,
              "velocity": 80,
              "position": 1.0,
              "duration": 0.208333
            },
            {
              "pitch": 39,
              "velocity": 90,
              "position": 1.0,
              "duration": 0.208333
            },
            {
              "pitch": 42,
              "velocity": 100,
              "position": 1.0,
              "duration": 0.208333
            },
            {
              "pitch": 42,
              "velocity": 40,
              "position": 1.666667,
              "duration": 0.208333
            },
            {
              "pitch": 35,
              "velocity": 90,
              "position": 2.0,
              "duration": 0.208333
            },
            {
              "pitch": 42,
              "velocity": 60,
              "position": 2.0,
              "duration": 0.208333
            },
            {
              "pitch": 38,
              "velocity": 60,
              "position": 2.666667,
              "duration": 0.208333
            },
            {
              "pitch": 42,
              "velocity": 40,
              "position": 2.666667,
              "duration": 0.208333
            },
            {
              "pitch": 38,
              "velocity": 80,
              "position": 3.0,
              "duration": 0.208333
            },
            {
              "pitch": 39,
              "velocity": 90,
              "position": 3.0,
              "duration": 0.208333
            },
            {
              "pitch": 42,
              "velocity": 100,
              "position": 3.0,
              "duration": 0.208333
            },
            {
              "pitch": 42,
              "velocity": 40,
              "position": 3.666667,
              "duration": 0.208333
            },
            {
              "pitch": 35,
              "velocity": 90,
              "position": 4.0,
              "duration": 0.208333
            },
            {
              "pitch": 42,
              "velocity": 60,
              "position": 4.0,
              "duration": 0.208333
            },
            {
              "pitch": 42,
              "velocity": 40,
              "position": 4.666667,
              "duration": 0.208333
            },
            {
              "pitch": 38,
              "velocity": 80,
              "position": 5.0,
              "duration": 0.208333
            },
            {
              "pitch": 39,
              "velocity": 90,
              "position": 5.0,
              "duration": 0.208333
            },
            {
              "pitch": 42,
              "velocity": 100,
              "position": 5.0,
              "duration": 0.208333
            },
            {
              "pitch": 38,
              "velocity": 60,
              "position": 5.666667,
              "duration": 0.208333
            },
            {
              "pitch": 42,
              "velocity": 40,
              "position": 5.666667,
              "duration": 0.208333
            },
            {
              "pitch": 35,
              "velocity": 90,
              "position": 6.0,
              "duration": 0.208333
            },
            {
              "pitch": 42,
              "velocity": 60,
              "position": 6.0,
              "duration": 0.208333
            },
            {
              "pitch": 38,
              "velocity": 60,
              "position": 6.666667,
              "duration": 0.208333
            },
            {
              "pitch": 42,
              "velocity": 40,
              "position": 6.666667,
              "duration": 0.208333
            },
            {
              "pitch": 38,
              "velocity": 80,
              "position": 7.0,
              "duration": 0.208333
            },
            {
              "pitch": 39,
              "velocity": 90,
              "position": 7.0,
              "duration": 0.208333
            },
            {
              "pitch": 42,
              "velocity": 100,
              "position": 7.0,
              "duration": 0.208333
            },
            {
              "pitch": 42,
              "velocity": 40,
              "position": 7.666667,
              "duration": 0.208333
            },
            {
              "pitch": 35,
              "velocity": 90,
              "position": 8.0,
              "duration": 0.208333
            },
            {
              "pitch": 42,
              "velocity": 60,
              "position": 8.0,
              "duration": 0.208333
            },
            {
              "pitch": 42,
              "velocity": 40,
              "position": 8.666667,
              "duration": 0.208333
            },
            {
              "pitch": 38,
              "velocity": 80,
              "position": 9.0,
              "duration": 0.208333
            },
            {
              "pitch": 39,
              "velocity": 90,
              "position": 9.0,
              "duration": 0.208333
            },
            {
              "pitch": 42,
              "velocity": 100,
              "position": 9.0,
              "duration": 0.208333
            },
            {
              "pitch": 42,
              "velocity": 40,
              "position": 9.666667,
              "duration": 0.208333
            },
            {
              "pitch": 35,
              "velocity": 90,
              "position": 10.0,
              "duration": 0.208333
            },
            {
              "pitch": 42,
              "velocity": 60,
              "position": 10.0,
              "duration": 0.208333
            },
            {
              "pitch": 38,
              "velocity": 60,
              "position": 10.666667,
              "duration": 0.208333
            },
            {
              "pitch": 42,
              "velocity": 40,
              "position": 10.666667,
              "duration": 0.208333
            },
            {
              "pitch": 38,
              "velocity": 80,
              "position": 11.0,
              "duration": 0.208333
            },
            {
              "pitch": 39,
              "velocity": 90,
              "position": 11.0,
              "duration": 0.208333
            },
            {
              "pitch": 42,
              "velocity": 100,
              "position": 11.0,
              "duration": 0.208333
            },
            {
              "pitch": 42,
              "velocity": 40,
              "position": 11.666667,
              "duration": 0.208333
            },
            {
              "pitch": 35,
              "velocity": 90,
              "position": 12.0,
              "duration": 0.208333
            },
            {
              "pitch": 42,
              "velocity": 60,
              "position": 12.0,
              "duration": 0.208333
            },
            {
              "pitch": 42,
              "velocity": 40,
              "position": 12.666667,
              "duration": 0.208333
            },
            {
              "pitch": 38,
              "velocity": 80,
              "position": 13.0,
              "duration": 0.208333
            },
            {
              "pitch": 39,
              "velocity": 90,
              "position": 13.0,
              "duration": 0.208333
            },
            {
              "pitch": 42,
              "velocity": 100,
              "position": 13.0,
              "duration": 0.208333
            },
            {
              "pitch": 38,
              "velocity": 60,
              "position": 13.666667,
              "duration": 0.208333
            },
            {
              "pitch": 42,
              "velocity": 40,
              "position": 13.666667,
              "duration": 0.208333
            },
            {
              "pitch": 35,
              "velocity": 90,
              "position": 14.0,
              "duration": 0.208333
            },
            {
              "pitch": 38,
              "velocity": 80,
              "position": 14.0,
              "duration": 0.208333
            },
            {
              "pitch": 42,
              "velocity": 60,
              "position": 14.0,
              "duration": 0.208333
            },
            {
              "pitch": 38,
              "velocity": 60,
              "position": 14.666667,
              "duration": 0.208333
            },
            {
              "pitch": 42,
              "velocity": 40,
              "position": 14.666667,
              "duration": 0.208333
            },
            {
              "pitch": 38,
              "velocity": 80,
              "position": 15.0,
              "duration": 0.208333
            },
            {
              "pitch": 39,
              "velocity": 90,
              "position": 15.0,
              "duration": 0.208333
            },
            {
              "pitch": 42,
              "velocity": 100,
              "position": 15.0,
              "duration": 0.208333
            },
            {
              "pitch": 38,
              "velocity": 60,
              "position": 15.666667,
              "duration": 0.208333
            },
            {
              "pitch": 42,
              "velocity": 40,
              "position": 15.666667,
              "duration": 0.208333
            }
          ]
        },
        "10": {
          "ctab": {
            "srcChannel": 10,
            "name": "Bass",
            "accType": "BASS",
            "editable": true,
            "mutedNotes": [],
            "mutedChords": [],
            "sourceChordNote": 0,
            "sourceChordType": "Maj7",
            "ctb2Main": {
              "ntr": "ROOT_TRANSPOSITION",
              "ntt": "BYPASS",
              "bassOn": true,
              "noteLowLimit": 20,
              "noteHighLimit": 60,
              "chordRootUpperLimit": 127,
              "rtr": "NOTE_GENERATOR"
            }
          },
          "notes": [
            {
              "pitch": 36,
              "velocity": 90,
              "position": 0.0,
              "duration": 1.958333
            },
            {
              "pitch": 36,
              "velocity": 90,
              "position": 2.0,
              "duration": 1.958333
            },
            {
              "pitch": 36,
              "velocity": 88,
              "position": 4.0,
              "duration": 1.508333
            },
            {
              "pitch": 36,
              "velocity": 92,
              "position": 5.666667,
              "duration": 0.25
            },
            {
              "pitch": 36,
              "velocity": 92,
              "position": 6.0,
              "duration": 0.991667
            },
            {
              "pitch": 35,
              "velocity": 88,
              "position": 7.0,
              "duration": 0.958333
            },
            {
              "pitch": 36,
              "velocity": 86,
              "position": 8.0,
              "duration": 1.9
            },
            {
              "pitch": 31,
              "velocity": 78,
              "position": 10.0,
              "duration": 1.7
            },
            {
              "pitch": 36,
              "velocity": 93,
              "position": 12.0,
              "duration": 1.383333
            },
            {
              "pitch": 36,
              "velocity": 89,
              "position": 13.666667,
              "duration": 0.366667
            },
            {
              "pitch": 43,
              "velocity": 98,
              "position": 14.0,
              "duration": 0.783333
            },
            {
              "pitch": 31,
              "velocity": 96,
              "position": 15.0,
              "duration": 0.783333
            }
          ]
        },
        "11": {
          "ctab": {
            "srcChannel": 11,
            "name": "Piano",
            "accType": "CHORD1",
            "editable": true,
            "mutedNotes": [],
            "mutedChords": [],
            "sourceChordNote": 0,
            "sourceChordType": "Maj7",
            "ctb2Main": {
              "ntr": "ROOT_FIXED",
              "ntt": "CHORD",
              "bassOn": false,
              "noteLowLimit": 48,
              "noteHighLimit": 84,
              "chordRootUpperLimit": 127,
              "rtr": "NOTE_GENERATOR"
            }
          },
          "notes": [
            {
              "pitch": 48,
              "velocity": 71,
              "position": 0.0,
              "duration": 1.775
            },
            {
              "pitch": 55,
              "velocity": 79,
              "position": 1.0,
              "duration": 0.333333
            },
            {
              "pitch": 59,
              "velocity": 84,
              "position": 1.0,
              "duration": 0.233333
            },
            {
              "pitch": 60,
              "velocity": 78,
              "position": 1.0,
              "duration": 0.333333
            },
            {
              "pitch": 64,
              "velocity": 76,
              "position": 1.0,
              "duration": 0.3
            },
            {
              "pitch": 48,
              "velocity": 79,
              "position": 2.0,
              "duration": 1.958333
            },
            {
              "pitch": 55,
              "velocity": 70,
              "position": 3.0,
              "duration": 0.233333
            },
            {
              "pitch": 59,
              "velocity": 86,
              "position": 3.0,
              "duration": 0.2
            },
            {
              "pitch": 60,
              "velocity": 77,
              "position": 3.0,
              "duration": 0.266667
            },
            {
              "pitch": 64,
              "velocity": 75,
              "position": 3.0,
              "duration": 0.233333
            },
            {
              "pitch": 48,
              "velocity": 79,
              "position": 4.0,
              "duration": 1.958333
            },
            {
              "pitch": 55,
              "velocity": 70,
              "position": 5.0,
              "duration": 0.233333
            },
            {
              "pitch": 59,
              "velocity": 86,
              "position": 5.0,
              "duration": 0.2
            },
            {
              "pitch": 60,
              "velocity": 77,
              "position": 5.0,
              "duration": 0.266667
            },
            {
              "pitch": 64,
              "velocity": 75,
              "position": 5.0,
              "duration": 0.233333
            },
            {
              "pitch": 48,
              "velocity": 79,
              "position": 6.0,
              "duration": 1.958333
            },
            {
              "pitch": 55,
              "velocity": 70,
              "position": 7.0,
              "duration": 0.233333
            },
            {
              "pitch": 59,
              "velocity": 86,
              "position": 7.0,
              "duration": 0.2
            },
            {
              "pitch": 60,
              "velocity": 77,
              "position": 7.0,
              "duration": 0.266667
            },
            {
              "pitch": 64,
              "velocity": 75,
              "position": 7.0,
              "duration": 0.233333
            },
            {
              "pitch": 48,
              "velocity": 83,
              "position": 8.0,
              "duration": 2.1
            },
            {
              "pitch": 55,
              "velocity": 74,
              "position": 9.0,
              "duration": 0.233333
            },
            {
              "pitch": 59,
              "velocity": 90,
              "position": 9.0,
              "duration": 0.2
            },
            {
              "pitch": 60,
              "velocity": 81,
              "position": 9.0,
              "duration": 0.266667
            },
            {
              "pitch": 64,
              "velocity": 79,
              "position": 9.0,
              "duration": 0.233333
            },
            {
              "pitch": 43,
              "velocity": 55,
              "position": 10.0,
              "duration": 2.033333
            },
            {
              "pitch": 55,
              "velocity": 70,
              "position": 11.0,
              "duration": 0.266667
            },
            {
              "pitch": 59,
              "velocity": 92,
              "position": 11.0,
              "duration": 0.2
            },
            {
              "pitch": 60,
              "velocity": 74,
              "position": 11.0,
              "duration": 0.266667
            },
            {
              "pitch": 64,
              "velocity": 78,
              "position": 11.0,
              "duration": 0.3
            },
            {
              "pitch": 48,
              "velocity": 71,
              "position": 12.0,
              "duration": 2.033333
            },
            {
              "pitch": 55,
              "velocity": 70,
              "position": 13.0,
              "duration": 0.266667
            },
            {
              "pitch": 59,
              "velocity": 88,
              "position": 13.0,
              "duration": 0.2
            },
            {
              "pitch": 60,
              "velocity": 65,
              "position": 13.0,
              "duration": 0.241667
            },
            {
              "pitch": 64,
              "velocity": 83,
              "position": 13.0,
              "duration": 0.3
            },
            {
              "pitch": 43,
              "velocity": 67,
              "position": 14.0,
              "duration": 1.633333
            },
            {
              "pitch": 55,
              "velocity": 75,
              "position": 15.0,
              "duration": 0.466667
            },
            {
              "pitch": 59,
              "velocity": 89,
              "position": 15.0,
              "duration": 0.4
            },
            {
              "pitch": 60,
              "velocity": 72,
              "position": 15.0,
              "duration": 0.5
            },
            {
              "pitch": 64,
              "velocity": 84,
              "position": 15.0,
              "duration": 0.533333
            }
          ]
        },
        "12": {
          "ctab": {
            "srcChannel": 12,
            "name": "Guitar",
            "accType": "CHORD2",
            "editable": true,
            "mutedNotes": [],
            "mutedChords": [],
            "sourceChordNote": 0,
            "sourceChordType": "Maj7",
            "ctb2Main": {
              "ntr": "ROOT_FIXED",
              "ntt": "CHORD",
              "bassOn": false,
              "noteLowLimit": 40,
              "noteHighLimit": 76,
              "chordRootUpperLimit": 127,
              "rtr": "NOTE_GENERATOR"
            }
          },
          "notes": [
            {
              "pitch": 67,
              "velocity": 86,
              "position": 1.0,
              "duration": 0.225
            },
            {
              "pitch": 71,
              "velocity": 85,
              "position": 1.0,
              "duration": 0.216667
            },
            {
              "pitch": 64,
              "velocity": 71,
              "position": 1.008333,
              "duration": 0.166667
            },
            {
              "pitch": 60,
              "velocity": 93,
              "position": 2.95,
              "duration": 0.3
            },
            {
              "pitch": 64,
              "velocity": 93,
              "position": 2.975,
              "duration": 0.275
            },
            {
              "pitch": 67,
              "velocity": 93,
              "position": 3.0,
              "duration": 0.25
            },
            {
              "pitch": 71,
              "velocity": 93,
              "position": 3.033333,
              "duration": 0.216667
            },
            {
              "pitch": 60,
              "velocity": 84,
              "position": 4.95,
              "duration": 0.3
            },
            {
              "pitch": 64,
              "velocity": 84,
              "position": 4.975,
              "duration": 0.275
            },
            {
              "pitch": 67,
              "velocity": 84,
              "position": 5.0,
              "duration": 0.25
            },
            {
              "pitch": 71,
              "velocity": 84,
              "position": 5.033333,
              "duration": 0.216667
            },
            {
              "pitch": 48,
              "velocity": 67,
              "position": 6.975,
              "duration": 0.275
            },
            {
              "pitch": 60,
              "velocity": 84,
              "position": 6.983333,
              "duration": 0.266667
            },
            {
              "pitch": 64,
              "velocity": 84,
              "position": 6.991667,
              "duration": 0.258333
            },
            {
              "pitch": 67,
              "velocity": 84,
              "position": 7.008333,
              "duration": 0.241667
            },
            {
              "pitch": 71,
              "velocity": 84,
              "position": 7.016667,
              "duration": 0.233333
            },
            {
              "pitch": 67,
              "velocity": 86,
              "position": 9.0,
              "duration": 0.225
            },
            {
              "pitch": 64,
              "velocity": 71,
              "position": 9.008333,
              "duration": 0.166667
            },
            {
              "pitch": 64,
              "velocity": 71,
              "position": 11.0,
              "duration": 0.175
            },
            {
              "pitch": 67,
              "velocity": 98,
              "position": 11.0,
              "duration": 0.2
            },
            {
              "pitch": 67,
              "velocity": 77,
              "position": 12.991667,
              "duration": 0.2
            },
            {
              "pitch": 64,
              "velocity": 86,
              "position": 13.016667,
              "duration": 0.141667
            },
            {
              "pitch": 67,
              "velocity": 89,
              "position": 15.008333,
              "duration": 0.225
            },
            {
              "pitch": 64,
              "velocity": 79,
              "position": 15.016667,
              "duration": 0.2
            }
          ]
        },
        "13": {
          "ctab": {
            "srcChannel": 13,
            "name": "Strings",
            "accType": "PAD",
            "editable": true,
            "mutedNotes": [],
            "mutedChords": [],
            "sourceChordNote": 0,
            "sourceChordType": "Maj7",
            "ctb2Main": {
              "ntr": "ROOT_FIXED",
              "ntt": "MELODY",
              "bassOn": false,
              "noteLowLimit": 36,
              "noteHighLimit": 96,
              "chordRootUpperLimit": 127,
              "rtr": "PITCH_SHIFT"
            }
          },
          "notes": [
            {
              "pitch": 71,
              "velocity": 72,
              "position": 0.7,
              "duration": 0.325
            },
            {
              "pitch": 79,
              "velocity": 72,
              "position": 0.725,
              "duration": 0.275
            },
            {
              "pitch": 74,
              "velocity": 72,
              "position": 0.758333,
              "duration": 0.45
            },
            {
              "pitch": 79,
              "velocity": 64,
              "position": 1.75,
              "duration": 1.875
            },
            {
              "pitch": 75,
              "velocity": 84,
              "position": 1.758333,
              "duration": 0.383333
            },
            {
              "pitch": 76,
              "velocity": 59,
              "position": 2.158333,
              "duration": 1.466667
            },
            {
              "pitch": 74,
              "velocity": 66,
              "position": 3.708333,
              "duration": 2.233333
            },
            {
              "pitch": 79,
              "velocity": 59,
              "position": 3.708333,
              "duration": 2.233333
            },
            {
              "pitch": 83,
              "velocity": 73,
              "position": 3.708333,
              "duration": 2.233333
            },
            {
              "pitch": 88,
              "velocity": 78,
              "position": 3.708333,
              "duration": 2.233333
            },
            {
              "pitch": 78,
              "velocity": 73,
              "position": 6.041667,
              "duration": 0.441667
            },
            {
              "pitch": 83,
              "velocity": 72,
              "position": 6.041667,
              "duration": 1.608333
            },
            {
              "pitch": 79,
              "velocity": 62,
              "position": 6.583333,
              "duration": 1.375
            },
            {
              "pitch": 74,
              "velocity": 66,
              "position": 8.0,
              "duration": 7.625
            },
            {
              "pitch": 79,
              "velocity": 59,
              "position": 8.0,
              "duration": 7.625
            },
            {
              "pitch": 83,
              "velocity": 73,
              "position": 8.0,
              "duration": 7.625
            },
            {
              "pitch": 88,
              "velocity": 78,
              "position": 8.0,
              "duration": 7.625
            },
            {
              "pitch": 79,
              "velocity": 71,
              "position": 15.733333,
              "duration": 1.508333
            },
            {
              "pitch": 75,
              "velocity": 91,
              "position": 15.741667,
              "duration": 0.608333
            },
            {
              "pitch": 83,
              "velocity": 64,
              "position": 15.75,
              "duration": 1.333333
            }
          ]
        }
      }
    },
    "Main_D": {
      "type": "Main_D",
      "sizeInBeats": 16,
      "channels": {
        "9": {
          "ctab": {
            "srcChannel": 9,
            "name": "Drums",
            "accType": "RHYTHM",
            "editable": false,
            "mutedNotes": [],
            "mutedChords": [],
            "sourceChordNote": 0,
            "sourceChordType": "Maj",
            "ctb2Main": {
              "ntr": "ROOT_FIXED",
              "ntt": "BYPASS",
              "bassOn": false,
              "noteLowLimit": 20,
              "noteHighLimit": 127,
              "chordRootUpperLimit": 127,
              "rtr": "RETRIGGER"
            }
          },
          "notes": [
            {
              "pitch": 35,
              "velocity": 90,
              "position": 0.0,
              "duration": 0.208333
            },
            {
              "pitch": 42,
              "velocity": 60,
              "position": 0.0,
              "duration": 0.208333
            },
            {
              "pitch": 49,
              "velocity": 90,
              "position": 0.0,
              "duration": 0.208333
            },
            {
              "pitch": 42,
              "velocity": 40,
              "position": 0.666667,
              "duration": 0.208333
            },
            {
              "pitch": 38,
              "velocity": 80,
              "position": 1.0,
              "duration": 0.208333
            },
            {
              "pitch": 39,
              "velocity": 90,
              "position": 1.0,
              "duration": 0.208333
            },
            {
              "pitch": 42,
              "velocity": 100,
              "position": 1.0,
              "duration": 0.208333
            },
            {
              "pitch": 42,
              "velocity": 40,
              "position": 1.666667,
              "duration": 0.208333
            },
            {
              "pitch": 35,
              "velocity": 90,
              "position": 2.0,
              "duration": 0.208333
            },
            {
              "pitch": 42,
              "velocity": 60,
              "position": 2.0,
              "duration": 0.208333
            },
            {
              "pitch": 38,
              "velocity": 60,
              "position": 2.666667,
              "duration": 0.208333
            },
            {
              "pitch": 42,
              "velocity": 40,
              "position": 2.666667,
              "duration": 0.208333
            },
            {
              "pitch": 38,
              "velocity": 80,
              "position": 3.0,
              "duration": 0.208333
            },
            {
              "pitch": 39,
              "velocity": 90,
              "position": 3.0,
              "duration": 0.208333
            },
            {
              "pitch": 42,
              "velocity": 100,
              "position": 3.0,
              "duration": 0.208333
            },
            {
              "pitch": 42,
              "velocity": 40,
              "position": 3.666667,
              "duration": 0.208333
            },
            {
              "pitch": 35,
              "velocity": 90,
              "position": 4.0,
              "duration": 0.208333
            },
            {
              "pitch": 42,
              "velocity": 60,
              "position": 4.0,
              "duration": 0.208333
            },
            {
              "pitch": 42,
              "velocity": 40,
              "position": 4.666667,
              "duration": 0.208333
            },
            {
              "pitch": 38,
              "velocity": 80,
              "position": 5.0,
              "duration": 0.208333
            },
            {
              "pitch": 39,
              "velocity": 90,
              "position": 5.0,
              "duration": 0.208333
            },
            {
              "pitch": 42,
              "velocity": 100,
              "position": 5.0,
              "duration": 0.208333
            },
            {
              "pitch": 38,
              "velocity": 60,
              "position": 5.666667,
              "duration": 0.208333
            },
            {
              "pitch": 42,
              "velocity": 40,
              "position": 5.666667,
              "duration": 0.208333
            },
            {
              "pitch": 35,
              "velocity": 90,
              "position": 6.0,
              "duration": 0.208333
            },
            {
              "pitch": 42,
              "velocity": 60,
              "position": 6.0,
              "duration": 0.208333
            },
            {
              "pitch": 38,
              "velocity": 60,
              "position": 6.666667,
              "duration": 0.208333
            },
            {
              "pitch": 42,
              "velocity": 40,
              "position": 6.666667,
              "duration": 0.208333
            },
            {
              "pitch": 38,
              "velocity": 80,
              "position": 7.0,
              "duration": 0.208333
            },
            {
              "pitch": 39,
              "velocity": 90,
              "position": 7.0,
              "duration": 0.208333
            },
            {
              "pitch": 42,
              "velocity": 100,
              "position": 7.0,
              "duration": 0.208333
            },
            {
              "pitch": 42,
              "velocity": 40,
              "position": 7.666667,
              "duration": 0.208333
            },
            {
              "pitch": 35,
              "velocity": 90,
              "position": 8.0,
              "duration": 0.208333
            },
            {
              "pitch": 42,
              "velocity": 60,
              "position": 8.0,
              "duration": 0.208333
            },
            {
              "pitch": 42,
              "velocity": 40,
              "position": 8.666667,
              "duration": 0.208333
            },
            {
              "pitch": 38,
              "velocity": 80,
              "position": 9.0,
              "duration": 0.208333
            },
            {
              "pitch": 39,
              "velocity": 90,
              "position": 9.0,
              "duration": 0.208333
            },
            {
              "pitch": 42,
              "velocity": 100,
              "position": 9.0,
              "duration": 0.208333
            },
            {
              "pitch": 42,
              "velocity": 40,
              "position": 9.666667,
              "duration": 0.208333
            },
            {
              "pitch": 35,
              "velocity": 90,
              "position": 10.0,
              "duration": 0.208333
            },
            {
              "pitch": 42,
              "velocity": 60,
              "position": 10.0,
              "duration": 0.208333
            },
            {
              "pitch": 38,
              "velocity": 60,
              "position": 10.666667,
              "duration": 0.208333
            },
            {
              "pitch": 42,
              "velocity": 40,
              "position": 10.666667,
              "duration": 0.208333
            },
            {
              "pitch": 38,
              "velocity": 80,
              "position": 11.0,
              "duration": 0.208333
            },
            {
              "pitch": 39,
              "velocity": 90,
              "position": 11.0,
              "duration": 0.208333
            },
            {
              "pitch": 42,
              "velocity": 100,
              "position": 11.0,
              "duration": 0.208333
            },
            {
              "pitch": 42,
              "velocity": 40,
              "position": 11.666667,
              "duration": 0.208333
            },
            {
              "pitch": 35,
              "velocity": 90,
              "position": 12.0,
              "duration": 0.208333
            },
            {
              "pitch": 42,
              "velocity": 60,
              "position": 12.0,
              "duration": 0.208333
            },
            {
              "pitch": 42,
              "velocity": 40,
              "position": 12.666667,
              "duration": 0.208333
            },
            {
              "pitch": 38,
              "velocity": 80,
              "position": 13.0,
              "duration": 0.208333
            },
            {
              "pitch": 39,
              "velocity": 90,
              "position": 13.0,
              "duration": 0.208333
            },
            {
              "pitch": 42,
              "velocity": 100,
              "position": 13.0,
              "duration": 0.208333
            },
            {
              "pitch": 42,
              "velocity": 40,
              "position": 13.666667,
              "duration": 0.208333
            },
            {
              "pitch": 48,
              "velocity": 60,
              "position": 13.666667,
              "duration": 0.208333
            },
            {
              "pitch": 35,
              "velocity": 90,
              "position": 14.0,
              "duration": 0.208333
            },
            {
              "pitch": 42,
              "velocity": 60,
              "position": 14.0,
              "duration": 0.208333
            },
            {
              "pitch": 48,
              "velocity": 90,
              "position": 14.0,
              "duration": 0.208333
            },
            {
              "pitch": 48,
              "velocity": 60,
              "position": 14.333333,
              "duration": 0.208333
            },
            {
              "pitch": 42,
              "velocity": 40,
              "position": 14.666667,
              "duration": 0.208333
            },
            {
              "pitch": 48,
              "velocity": 70,
              "position": 14.666667,
              "duration": 0.208333
            },
            {
              "pitch": 39,
              "velocity": 90,
              "position": 15.0,
              "duration": 0.208333
            },
            {
              "pitch": 42,
              "velocity": 100,
              "position": 15.0,
              "duration": 0.208333
            },
            {
              "pitch": 45,
              "velocity": 90,
              "position": 15.0,
              "duration": 0.208333
            },
            {
              "pitch": 45,
              "velocity": 60,
              "position": 15.333333,
              "duration": 0.208333
            },
            {
              "pitch": 42,
              "velocity": 40,
              "position": 15.666667,
              "duration": 0.208333
            },
            {
              "pitch": 45,
              "velocity": 70,
              "position": 15.666667,
              "duration": 0.208333
            }
          ]
        },
        "10": {
          "ctab": {
            "srcChannel": 10,
            "name": "Bass",
            "accType": "BASS",
            "editable": true,
            "mutedNotes": [],
            "mutedChords": [],
            "sourceChordNote": 0,
            "sourceChordType": "Maj7",
            "ctb2Main": {
              "ntr": "ROOT_TRANSPOSITION",
              "ntt": "BYPASS",
              "bassOn": true,
              "noteLowLimit": 20,
              "noteHighLimit": 60,
              "chordRootUpperLimit": 127,
              "rtr": "NOTE_GENERATOR"
            }
          },
          "notes": [
            {
              "pitch": 36,
              "velocity": 90,
              "position": 0.0,
              "duration": 1.958333
            },
            {
              "pitch": 36,
              "velocity": 90,
              "position": 2.0,
              "duration": 1.958333
            },
            {
              "pitch": 36,
              "velocity": 90,
              "position": 4.0,
              "duration": 1.958333
            },
            {
              "pitch": 36,
              "velocity": 92,
              "position": 6.0,
              "duration": 0.991667
            },
            {
              "pitch": 35,
              "velocity": 88,
              "position": 7.0,
              "duration": 0.958333
            },
            {
              "pitch": 36,
              "velocity": 86,
              "position": 8.0,
              "duration": 1.9
            },
            {
              "pitch": 31,
              "velocity": 78,
              "position": 10.0,
              "duration": 1.7
            },
            {
              "pitch": 36,
              "velocity": 93,
              "position": 12.0,
              "duration": 1.383333
            },
            {
              "pitch": 36,
              "velocity": 89,
              "position": 13.666667,
              "duration": 0.366667
            },
            {
              "pitch": 43,
              "velocity": 98,
              "position": 14.0,
              "duration": 0.783333
            },
            {
              "pitch": 31,
              "velocity": 96,
              "position": 15.0,
              "duration": 0.783333
            }
          ]
        },
        "11": {
          "ctab": {
            "srcChannel": 11,
            "name": "Piano",
            "accType": "CHORD1",
            "editable": true,
            "mutedNotes": [],
            "mutedChords": [],
            "sourceChordNote": 0,
            "sourceChordType": "Maj7",
            "ctb2Main": {
              "ntr": "ROOT_FIXED",
              "ntt": "CHORD",
              "bassOn": false,
              "noteLowLimit": 48,
              "noteHighLimit": 84,
              "chordRootUpperLimit": 127,
              "rtr": "NOTE_GENERATOR"
            }
          },
          "notes": [
            {
              "pitch": 48,
              "velocity": 71,
              "position": 0.0,
              "duration": 1.775
            },
            {
              "pitch": 55,
              "velocity": 79,
              "position": 1.0,
              "duration": 0.333333
            },
            {
              "pitch": 59,
              "velocity": 84,
              "position": 1.0,
              "duration": 0.233333
            },
            {
              "pitch": 60,
              "velocity": 78,
              "position": 1.0,
              "duration": 0.333333
            },
            {
              "pitch": 64,
              "velocity": 76,
              "position": 1.0,
              "duration": 0.3
            },
            {
              "pitch": 48,
              "velocity": 71,
              "position": 2.0,
              "duration": 1.775
            },
            {
              "pitch": 55,
              "velocity": 79,
              "position": 3.0,
              "duration": 0.333333
            },
            {
              "pitch": 59,
              "velocity": 84,
              "position": 3.0,
              "duration": 0.233333
            },
            {
              "pitch": 60,
              "velocity": 78,
              "position": 3.0,
              "duration": 0.333333
            },
            {
              "pitch": 64,
              "velocity": 76,
              "position": 3.0,
              "duration": 0.3
            },
            {
              "pitch": 48,
              "velocity": 71,
              "position": 4.0,
              "duration": 1.775
            },
            {
              "pitch": 55,
              "velocity": 79,
              "position": 5.0,
              "duration": 0.333333
            },
            {
              "pitch": 59,
              "velocity": 84,
              "position": 5.0,
              "duration": 0.233333
            },
            {
              "pitch": 60,
              "velocity": 78,
              "position": 5.0,
              "duration": 0.333333
            },
            {
              "pitch": 64,
              "velocity": 76,
              "position": 5.0,
              "duration": 0.3
            },
            {
              "pitch": 48,
              "velocity": 71,
              "position": 6.0,
              "duration": 1.775
            },
            {
              "pitch": 55,
              "velocity": 79,
              "position": 7.0,
              "duration": 0.333333
            },
            {
              "pitch": 59,
              "velocity": 84,
              "position": 7.0,
              "duration": 0.233333
            },
            {
              "pitch": 60,
              "velocity": 78,
              "position": 7.0,
              "duration": 0.333333
            },
            {
              "pitch": 64,
              "velocity": 76,
              "position": 7.0,
              "duration": 0.3
            },
            {
              "pitch": 48,
              "velocity": 73,
              "position": 8.0,
              "duration": 1.775
            },
            {
              "pitch": 55,
              "velocity": 81,
              "position": 9.0,
              "duration": 0.333333
            },
            {
              "pitch": 59,
              "velocity": 86,
              "position": 9.0,
              "duration": 0.233333
            },
            {
              "pitch": 60,
              "velocity": 80,
              "position": 9.0,
              "duration": 0.333333
            },
            {
              "pitch": 64,
              "velocity": 78,
              "position": 9.0,
              "duration": 0.3
            },
            {
              "pitch": 43,
              "velocity": 69,
              "position": 10.0,
              "duration": 1.8
            },
            {
              "pitch": 55,
              "velocity": 71,
              "position": 11.0,
              "duration": 0.433333
            },
            {
              "pitch": 59,
              "velocity": 94,
              "position": 11.0,
              "duration": 0.433333
            },
            {
              "pitch": 60,
              "velocity": 74,
              "position": 11.0,
              "duration": 0.533333
            },
            {
              "pitch": 64,
              "velocity": 80,
              "position": 11.0,
              "duration": 0.533333
            },
            {
              "pitch": 48,
              "velocity": 79,
              "position": 12.0,
              "duration": 2.033333
            },
            {
              "pitch": 55,
              "velocity": 65,
              "position": 13.0,
              "duration": 0.5
            },
            {
              "pitch": 59,
              "velocity": 84,
              "position": 13.666667,
              "duration": 0.533333
            },
            {
              "pitch": 60,
              "velocity": 84,
              "position": 13.666667,
              "duration": 0.566667
            },
            {
              "pitch": 64,
              "velocity": 75,
              "position": 13.666667,
              "duration": 0.6
            },
            {
              "pitch": 43,
              "velocity": 79,
              "position": 14.0,
              "duration": 1.833333
            },
            {
              "pitch": 55,
              "velocity": 79,
              "position": 14.666667,
              "duration": 0.833333
            },
            {
              "pitch": 59,
              "velocity": 42,
              "position": 15.0,
              "duration": 0.433333
            },
            {
              "pitch": 60,
              "velocity": 85,
              "position": 15.0,
              "duration": 0.5
            },
            {
              "pitch": 64,
              "velocity": 86,
              "position": 15.0,
              "duration": 0.5
            }
          ]
        },
        "12": {
          "ctab": {
            "srcChannel": 12,
            "name": "Guitar",
            "accType": "CHORD2",
            "editable": true,
            "mutedNotes": [],
            "mutedChords": [],
            "sourceChordNote": 0,
            "sourceChordType": "Maj7",
            "ctb2Main": {
              "ntr": "ROOT_FIXED",
              "ntt": "CHORD",
              "bassOn": false,
              "noteLowLimit": 40,
              "noteHighLimit": 76,
              "chordRootUpperLimit": 127,
              "rtr": "NOTE_GENERATOR"
            }
          },
          "notes": [
            {
              "pitch": 55,
              "velocity": 71,
              "position": 0.975,
              "duration": 0.275
            },
            {
              "pitch": 64,
              "velocity": 84,
              "position": 0.991667,
              "duration": 0.258333
            },
            {
              "pitch": 67,
              "velocity": 84,
              "position": 1.0,
              "duration": 0.25
            },
            {
              "pitch": 71,
              "velocity": 84,
              "position": 1.008333,
              "duration": 0.241667
            },
            {
              "pitch": 64,
              "velocity": 86,
              "position": 2.95,
              "duration": 0.25
            },
            {
              "pitch": 67,
              "velocity": 86,
              "position": 2.983333,
              "duration": 0.216667
            },
            {
              "pitch": 71,
              "velocity": 86,
              "position": 3.025,
              "duration": 0.175
            },
            {
              "pitch": 59,
              "velocity": 84,
              "position": 4.95,
              "duration": 0.3
            },
            {
              "pitch": 64,
              "velocity": 84,
              "position": 4.983333,
              "duration": 0.266667
            },
            {
              "pitch": 67,
              "velocity": 84,
              "position": 5.025,
              "duration": 0.225
            },
            {
              "pitch": 60,
              "velocity": 94,
              "position": 6.95,
              "duration": 0.2
            },
            {
              "pitch": 64,
              "velocity": 94,
              "position": 6.975,
              "duration": 0.175
            },
            {
              "pitch": 67,
              "velocity": 94,
              "position": 7.0,
              "duration": 0.15
            },
            {
              "pitch": 71,
              "velocity": 94,
              "position": 7.033333,
              "duration": 0.116667
            },
            {
              "pitch": 67,
              "velocity": 86,
              "position": 9.0,
              "duration": 0.225
            },
            {
              "pitch": 71,
              "velocity": 85,
              "position": 9.0,
              "duration": 0.216667
            },
            {
              "pitch": 64,
              "velocity": 71,
              "position": 9.008333,
              "duration": 0.166667
            },
            {
              "pitch": 64,
              "velocity": 71,
              "position": 11.0,
              "duration": 0.175
            },
            {
              "pitch": 67,
              "velocity": 98,
              "position": 11.0,
              "duration": 0.2
            },
            {
              "pitch": 71,
              "velocity": 97,
              "position": 11.0,
              "duration": 0.2
            },
            {
              "pitch": 67,
              "velocity": 77,
              "position": 12.991667,
              "duration": 0.2
            },
            {
              "pitch": 64,
              "velocity": 86,
              "position": 13.016667,
              "duration": 0.141667
            },
            {
              "pitch": 71,
              "velocity": 87,
              "position": 13.025,
              "duration": 0.175
            },
            {
              "pitch": 67,
              "velocity": 89,
              "position": 15.008333,
              "duration": 0.225
            },
            {
              "pitch": 71,
              "velocity": 101,
              "position": 15.008333,
              "duration": 0.225
            },
            {
              "pitch": 64,
              "velocity": 79,
              "position": 15.016667,
              "duration": 0.2
            }
          ]
        },
        "13": {
          "ctab": {
            "srcChannel": 13,
            "name": "Strings",
            "accType": "PAD",
            "editable": true,
            "mutedNotes": [],
            "mutedChords": [],
            "sourceChordNote": 0,
            "sourceChordType": "Maj7",
            "ctb2Main": {
              "ntr": "ROOT_FIXED",
              "ntt": "MELODY",
              "bassOn": false,
              "noteLowLimit": 36,
              "noteHighLimit": 96,
              "chordRootUpperLimit": 127,
              "rtr": "PITCH_SHIFT"
            }
          },
          "notes": [
            {
              "pitch": 76,
              "velocity": 66,
              "position": 0.366667,
              "duration": 1.3
            },
            {
              "pitch": 79,
              "velocity": 64,
              "position": 1.75,
              "duration": 2.0
            },
            {
              "pitch": 75,
              "velocity": 84,
              "position": 1.758333,
              "duration": 0.383333
            },
            {
              "pitch": 76,
              "velocity": 59,
              "position": 2.158333,
              "duration": 1.55
            },
            {
              "pitch": 78,
              "velocity": 82,
              "position": 4.0,
              "duration": 0.308333
            },
            {
              "pitch": 86,
              "velocity": 68,
              "position": 4.0,
              "duration": 1.958333
            },
            {
              "pitch": 71,
              "velocity": 72,
              "position": 4.016667,
              "duration": 1.941667
            },
            {
              "pitch": 64,
              "velocity": 60,
              "position": 4.091667,
              "duration": 1.866667
            },
            {
              "pitch": 79,
              "velocity": 67,
              "position": 4.233333,
              "duration": 1.725
            },
            {
              "pitch": 78,
              "velocity": 73,
              "position": 6.041667,
              "duration": 0.441667
            },
            {
              "pitch": 83,
              "velocity": 72,
              "position": 6.041667,
              "duration": 1.608333
            },
            {
              "pitch": 79,
              "velocity": 62,
              "position": 6.583333,
              "duration": 1.375
            },
            {
              "pitch": 64,
              "velocity": 59,
              "position": 8.075,
              "duration": 5.216667
            },
            {
              "pitch": 71,
              "velocity": 62,
              "position": 8.075,
              "duration": 5.125
            },
            {
              "pitch": 74,
              "velocity": 52,
              "position": 8.075,
              "duration": 5.225
            },
            {
              "pitch": 78,
              "velocity": 81,
              "position": 9.575,
              "duration": 0.466667
            },
            {
              "pitch": 86,
              "velocity": 59,
              "position": 9.608333,
              "duration": 4.141667
            },
            {
              "pitch": 79,
              "velocity": 71,
              "position": 9.708333,
              "duration": 4.025
            },
            {
              "pitch": 74,
              "velocity": 74,
              "position": 13.675,
              "duration": 0.641667
            },
            {
              "pitch": 83,
              "velocity": 74,
              "position": 13.983333,
              "duration": 0.375
            },
            {
              "pitch": 79,
              "velocity": 74,
              "position": 14.0,
              "duration": 0.391667
            },
            {
              "pitch": 86,
              "velocity": 74,
              "position": 14.0,
              "duration": 0.366667
            },
            {
              "pitch": 74,
              "velocity": 74,
              "position": 14.7,
              "duration": 0.866667
            },
            {
              "pitch": 79,
              "velocity": 74,
              "position": 14.991667,
              "duration": 0.616667
            },
            {
              "pitch": 83,
              "velocity": 74,
              "position": 15.008333,
              "duration": 0.608333
            },
            {
              "pitch": 86,
              "velocity": 74,
              "position": 15.016667,
              "duration": 0.541667
            },
            {
              "pitch": 78,
              "velocity": 82,
              "position": 15.708333,
              "duration": 0.583333
            },
            {
              "pitch": 86,
              "velocity": 68,
              "position": 15.708333,
              "duration": 1.916667
            },
            {
              "pitch": 71,
              "velocity": 72,
              "position": 15.725,
              "duration": 1.9
            }
          ]
        }
      }
    },
    "Fill_In_AA": {
      "type": "Fill_In_AA",
      "sizeInBeats": 16,
      "channels": {
        "9": {
          "ctab": {
            "srcChannel": 9,
            "name": "Drums",
            "accType": "RHYTHM",
            "editable": false,
            "mutedNotes": [],
            "mutedChords": [],
            "sourceChordNote": 0,
            "sourceChordType": "Maj",
            "ctb2Main": {
              "ntr": "ROOT_FIXED",
              "ntt": "BYPASS",
              "bassOn": false,
              "noteLowLimit": 20,
              "noteHighLimit": 127,
              "chordRootUpperLimit": 127,
              "rtr": "RETRIGGER"
            }
          },
          "notes": [
            {
              "pitch": 35,
              "velocity": 90,
              "position": 0.0,
              "duration": 0.208333
            },
            {
              "pitch": 42,
              "velocity": 60,
              "position": 0.0,
              "duration": 0.208333
            },
            {
              "pitch": 49,
              "velocity": 90,
              "position": 0.0,
              "duration": 0.208333
            },
            {
              "pitch": 42,
              "velocity": 40,
              "position": 0.666667,
              "duration": 0.208333
            },
            {
              "pitch": 38,
              "velocity": 80,
              "position": 1.0,
              "duration": 0.208333
            },
            {
              "pitch": 39,
              "velocity": 90,
              "position": 1.0,
              "duration": 0.208333
            },
            {
              "pitch": 42,
              "velocity": 100,
              "position": 1.0,
              "duration": 0.208333
            },
            {
              "pitch": 42,
              "velocity": 40,
              "position": 1.666667,
              "duration": 0.208333
            },
            {
              "pitch": 35,
              "velocity": 90,
              "position": 2.0,
              "duration": 0.208333
            },
            {
              "pitch": 42,
              "velocity": 60,
              "position": 2.0,
              "duration": 0.208333
            },
            {
              "pitch": 38,
              "velocity": 60,
              "position": 2.666667,
              "duration": 0.208333
            },
            {
              "pitch": 42,
              "velocity": 40,
              "position": 2.666667,
              "duration": 0.208333
            },
            {
              "pitch": 38,
              "velocity": 80,
              "position": 3.0,
              "duration": 0.208333
            },
            {
              "pitch": 39,
              "velocity": 90,
              "position": 3.0,
              "duration": 0.208333
            },
            {
              "pitch": 42,
              "velocity": 100,
              "position": 3.0,
              "duration": 0.208333
            },
            {
              "pitch": 42,
              "velocity": 40,
              "position": 3.666667,
              "duration": 0.208333
            },
            {
              "pitch": 35,
              "velocity": 90,
              "position": 4.0,
              "duration": 0.208333
            },
            {
              "pitch": 42,
              "velocity": 60,
              "position": 4.0,
              "duration": 0.208333
            },
            {
              "pitch": 42,
              "velocity": 40,
              "position": 4.666667,
              "duration": 0.208333
            },
            {
              "pitch": 38,
              "velocity": 80,
              "position": 5.0,
              "duration": 0.208333
            },
            {
              "pitch": 39,
              "velocity": 90,
              "position": 5.0,
              "duration": 0.208333
            },
            {
              "pitch": 42,
              "velocity": 100,
              "position": 5.0,
              "duration": 0.208333
            },
            {
              "pitch": 38,
              "velocity": 60,
              "position": 5.666667,
              "duration": 0.208333
            },
            {
              "pitch": 42,
              "velocity": 40,
              "position": 5.666667,
              "duration": 0.208333
            },
            {
              "pitch": 35,
              "velocity": 90,
              "position": 6.0,
              "duration": 0.208333
            },
            {
              "pitch": 42,
              "velocity": 60,
              "position": 6.0,
              "duration": 0.208333
            },
            {
              "pitch": 38,
              "velocity": 60,
              "position": 6.666667,
              "duration": 0.208333
            },
            {
              "pitch": 42,
              "velocity": 40,
              "position": 6.666667,
              "duration": 0.208333
            },
            {
              "pitch": 38,
              "velocity": 80,
              "position": 7.0,
              "duration": 0.208333
            },
            {
              "pitch": 39,
              "velocity": 90,
              "position": 7.0,
              "duration": 0.208333
            },
            {
              "pitch": 42,
              "velocity": 100,
              "position": 7.0,
              "duration": 0.208333
            },
            {
              "pitch": 42,
              "velocity": 40,
              "position": 7.666667,
              "duration": 0.208333
            },
            {
              "pitch": 35,
              "velocity": 90,
              "position": 8.0,
              "duration": 0.208333
            },
            {
              "pitch": 42,
              "velocity": 60,
              "position": 8.0,
              "duration": 0.208333
            },
            {
              "pitch": 42,
              "velocity": 40,
              "position": 8.666667,
              "duration": 0.208333
            },
            {
              "pitch": 38,
              "velocity": 80,
              "position": 9.0,
              "duration": 0.208333
            },
            {
              "pitch": 39,
              "velocity": 90,
              "position": 9.0,
              "duration": 0.208333
            },
            {
              "pitch": 42,
              "velocity": 100,
              "position": 9.0,
              "duration": 0.208333
            },
            {
              "pitch": 42,
              "velocity": 40,
              "position": 9.666667,
              "duration": 0.208333
            },
            {
              "pitch": 35,
              "velocity": 90,
              "position": 10.0,
              "duration": 0.208333
            },
            {
              "pitch": 42,
              "velocity": 60,
              "position": 10.0,
              "duration": 0.208333
            },
            {
              "pitch": 38,
              "velocity": 60,
              "position": 10.666667,
              "duration": 0.208333
            },
            {
              "pitch": 42,
              "velocity": 40,
              "position": 10.666667,
              "duration": 0.208333
            },
            {
              "pitch": 38,
              "velocity": 80,
              "position": 11.0,
              "duration": 0.208333
            },
            {
              "pitch": 39,
              "velocity": 90,
              "position": 11.0,
              "duration": 0.208333
            },
            {
              "pitch": 42,
              "velocity": 100,
              "position": 11.0,
              "duration": 0.208333
            },
            {
              "pitch": 42,
              "velocity": 40,
              "position": 11.666667,
              "duration": 0.208333
            },
            {
              "pitch": 35,
              "velocity": 90,
              "position": 12.0,
              "duration": 0.208333
            },
            {
              "pitch": 42,
              "velocity": 60,
              "position": 12.0,
              "duration": 0.208333
            },
            {
              "pitch": 42,
              "velocity": 40,
              "position": 12.666667,
              "duration": 0.208333
            },
            {
              "pitch": 38,
              "velocity": 80,
              "position": 13.0,
              "duration": 0.208333
            },
            {
              "pitch": 39,
              "velocity": 90,
              "position": 13.0,
              "duration": 0.208333
            },
            {
              "pitch": 42,
              "velocity": 100,
              "position": 13.0,
              "duration": 0.208333
            },
            {
              "pitch": 38,
              "velocity": 60,
              "position": 13.666667,
              "duration": 0.208333
            },
            {
              "pitch": 42,
              "velocity": 40,
              "position": 13.666667,
              "duration": 0.208333
            },
            {
              "pitch": 35,
              "velocity": 90,
              "position": 14.0,
              "duration": 0.208333
            },
            {
              "pitch": 38,
              "velocity": 80,
              "position": 14.0,
              "duration": 0.208333
            },
            {
              "pitch": 42,
              "velocity": 60,
              "position": 14.0,
              "duration": 0.208333
            },
            {
              "pitch": 38,
              "velocity": 60,
              "position": 14.666667,
              "duration": 0.208333
            },
            {
              "pitch": 42,
              "velocity": 40,
              "position": 14.666667,
              "duration": 0.208333
            },
            {
              "pitch": 38,
              "velocity": 80,
              "position": 15.0,
              "duration": 0.208333
            },
            {
              "pitch": 39,
              "velocity": 90,
              "position": 15.0,
              "duration": 0.208333
            },
            {
              "pitch": 42,
              "velocity": 100,
              "position": 15.0,
              "duration": 0.208333
            },
            {
              "pitch": 38,
              "velocity": 60,
              "position": 15.666667,
              "duration": 0.208333
            },
            {
              "pitch": 42,
              "velocity": 40,
              "position": 15.666667,
              "duration": 0.208333
            }
          ]
        },
        "10": {
          "ctab": {
            "srcChannel": 10,
            "name": "Bass",
            "accType": "BASS",
            "editable": true,
            "mutedNotes": [],
            "mutedChords": [],
            "sourceChordNote": 0,
            "sourceChordType": "Maj7",
            "ctb2Main": {
              "ntr": "ROOT_TRANSPOSITION",
              "ntt": "BYPASS",
              "bassOn": true,
              "noteLowLimit": 20,
              "noteHighLimit": 60,
              "chordRootUpperLimit": 127,
              "rtr": "NOTE_GENERATOR"
            }
          },
          "notes": [
            {
              "pitch": 36,
              "velocity": 88,
              "position": 0.0,
              "duration": 1.508333
            },
            {
              "pitch": 36,
              "velocity": 92,
              "position": 1.666667,
              "duration": 0.25
            },
            {
              "pitch": 36,
              "velocity": 90,
              "position": 2.0,
              "duration": 1.958333
            },
            {
              "pitch": 36,
              "velocity": 88,
              "position": 4.0,
              "duration": 1.508333
            },
            {
              "pitch": 36,
              "velocity": 92,
              "position": 5.666667,
              "duration": 0.25
            },
            {
              "pitch": 36,
              "velocity": 90,
              "position": 6.0,
              "duration": 1.958333
            },
            {
              "pitch": 36,
              "velocity": 86,
              "position": 8.0,
              "duration": 1.9
            },
            {
              "pitch": 31,
              "velocity": 78,
              "position": 10.0,
              "duration": 1.7
            },
            {
              "pitch": 36,
              "velocity": 93,
              "position": 12.0,
              "duration": 1.383333
            },
            {
              "pitch": 36,
              "velocity": 89,
              "position": 13.666667,
              "duration": 0.366667
            },
            {
              "pitch": 43,
              "velocity": 98,
              "position": 14.0,
              "duration": 0.783333
            },
            {
              "pitch": 31,
              "velocity": 96,
              "position": 15.0,
              "duration": 0.783333
            }
          ]
        },
        "11": {
          "ctab": {
            "srcChannel": 11,
            "name": "Piano",
            "accType": "CHORD1",
            "editable": true,
            "mutedNotes": [],
            "mutedChords": [],
            "sourceChordNote": 0,
            "sourceChordType": "Maj7",
            "ctb2Main": {
              "ntr": "ROOT_FIXED",
              "ntt": "CHORD",
              "bassOn": false,
              "noteLowLimit": 48,
              "noteHighLimit": 84,
              "chordRootUpperLimit": 127,
              "rtr": "NOTE_GENERATOR"
            }
          },
          "notes": [
            {
              "pitch": 48,
              "velocity": 71,
              "position": 0.0,
              "duration": 1.625
            },
            {
              "pitch": 55,
              "velocity": 79,
              "position": 1.0,
              "duration": 0.333333
            },
            {
              "pitch": 59,
              "velocity": 84,
              "position": 1.0,
              "duration": 0.233333
            },
            {
              "pitch": 60,
              "velocity": 78,
              "position": 1.0,
              "duration": 0.333333
            },
            {
              "pitch": 64,
              "velocity": 76,
              "position": 1.0,
              "duration": 0.3
            },
            {
              "pitch": 48,
              "velocity": 71,
              "position": 1.708333,
              "duration": 1.916667
            },
            {
              "pitch": 55,
              "velocity": 79,
              "position": 3.0,
              "duration": 0.333333
            },
            {
              "pitch": 59,
              "velocity": 84,
              "position": 3.0,
              "duration": 0.233333
            },
            {
              "pitch": 60,
              "velocity": 78,
              "position": 3.0,
              "duration": 0.333333
            },
            {
              "pitch": 64,
              "velocity": 76,
              "position": 3.0,
              "duration": 0.3
            },
            {
              "pitch": 48,
              "velocity": 71,
              "position": 3.708333,
              "duration": 2.05
            },
            {
              "pitch": 55,
              "velocity": 79,
              "position": 5.0,
              "duration": 0.333333
            },
            {
              "pitch": 59,
              "velocity": 84,
              "position": 5.0,
              "duration": 0.233333
            },
            {
              "pitch": 60,
              "velocity": 78,
              "position": 5.0,
              "duration": 0.333333
            },
            {
              "pitch": 64,
              "velocity": 76,
              "position": 5.0,
              "duration": 0.3
            },
            {
              "pitch": 48,
              "velocity": 71,
              "position": 6.0,
              "duration": 1.775
            },
            {
              "pitch": 55,
              "velocity": 79,
              "position": 7.0,
              "duration": 0.333333
            },
            {
              "pitch": 59,
              "velocity": 84,
              "position": 7.0,
              "duration": 0.233333
            },
            {
              "pitch": 60,
              "velocity": 78,
              "position": 7.0,
              "duration": 0.333333
            },
            {
              "pitch": 64,
              "velocity": 76,
              "position": 7.0,
              "duration": 0.3
            },
            {
              "pitch": 48,
              "velocity": 83,
              "position": 8.0,
              "duration": 2.1
            },
            {
              "pitch": 55,
              "velocity": 74,
              "position": 9.0,
              "duration": 0.233333
            },
            {
              "pitch": 59,
              "velocity": 90,
              "position": 9.0,
              "duration": 0.2
            },
            {
              "pitch": 60,
              "velocity": 81,
              "position": 9.0,
              "duration": 0.266667
            },
            {
              "pitch": 64,
              "velocity": 79,
              "position": 9.0,
              "duration": 0.233333
            },
            {
              "pitch": 43,
              "velocity": 55,
              "position": 10.0,
              "duration": 2.033333
            },
            {
              "pitch": 55,
              "velocity": 70,
              "position": 11.0,
              "duration": 0.266667
            },
            {
              "pitch": 59,
              "velocity": 92,
              "position": 11.0,
              "duration": 0.2
            },
            {
              "pitch": 60,
              "velocity": 74,
              "position": 11.0,
              "duration": 0.266667
            },
            {
              "pitch": 64,
              "velocity": 78,
              "position": 11.0,
              "duration": 0.3
            },
            {
              "pitch": 48,
              "velocity": 71,
              "position": 12.0,
              "duration": 2.033333
            },
            {
              "pitch": 55,
              "velocity": 70,
              "position": 13.0,
              "duration": 0.266667
            },
            {
              "pitch": 59,
              "velocity": 88,
              "position": 13.0,
              "duration": 0.2
            },
            {
              "pitch": 60,
              "velocity": 65,
              "position": 13.0,
              "duration": 0.241667
            },
            {
              "pitch": 64,
              "velocity": 83,
              "position": 13.0,
              "duration": 0.3
            },
            {
              "pitch": 43,
              "velocity": 67,
              "position": 14.0,
              "duration": 1.633333
            },
            {
              "pitch": 55,
              "velocity": 75,
              "position": 15.0,
              "duration": 0.466667
            },
            {
              "pitch": 59,
              "velocity": 89,
              "position": 15.0,
              "duration": 0.4
            },
            {
              "pitch": 60,
              "velocity": 72,
              "position": 15.0,
              "duration": 0.5
            },
            {
              "pitch": 64,
              "velocity": 84,
              "position": 15.0,
              "duration": 0.533333
            }
          ]
        },
        "12": {
          "ctab": {
            "srcChannel": 12,
            "name": "Guitar",
            "accType": "CHORD2",
            "editable": true,
            "mutedNotes": [],
            "mutedChords": [],
            "sourceChordNote": 0,
            "sourceChordType": "Maj7",
            "ctb2Main": {
              "ntr": "ROOT_FIXED",
              "ntt": "CHORD",
              "bassOn": false,
              "noteLowLimit": 40,
              "noteHighLimit": 76,
              "chordRootUpperLimit": 127,
              "rtr": "NOTE_GENERATOR"
            }
          },
          "notes": [
            {
              "pitch": 48,
              "velocity": 67,
              "position": 0.975,
              "duration": 0.275
            },
            {
              "pitch": 59,
              "velocity": 84,
              "position": 0.991667,
              "duration": 0.258333
            },
            {
              "pitch": 64,
              "velocity": 84,
              "position": 1.0,
              "duration": 0.25
            },
            {
              "pitch": 67,
              "velocity": 84,
              "position": 1.008333,
              "duration": 0.241667
            },
            {
              "pitch": 48,
              "velocity": 67,
              "position": 2.975,
              "duration": 0.275
            },
            {
              "pitch": 60,
              "velocity": 84,
              "position": 2.983333,
              "duration": 0.266667
            },
            {
              "pitch": 64,
              "velocity": 84,
              "position": 2.991667,
              "duration": 0.258333
            },
            {
              "pitch": 67,
              "velocity": 84,
              "position": 3.008333,
              "duration": 0.241667
            },
            {
              "pitch": 71,
              "velocity": 84,
              "position": 3.016667,
              "duration": 0.233333
            },
            {
              "pitch": 59,
              "velocity": 86,
              "position": 4.95,
              "duration": 0.25
            },
            {
              "pitch": 64,
              "velocity": 86,
              "position": 4.983333,
              "duration": 0.216667
            },
            {
              "pitch": 67,
              "velocity": 86,
              "position": 5.025,
              "duration": 0.175
            },
            {
              "pitch": 48,
              "velocity": 67,
              "position": 6.975,
              "duration": 0.275
            },
            {
              "pitch": 59,
              "velocity": 84,
              "position": 6.991667,
              "duration": 0.258333
            },
            {
              "pitch": 64,
              "velocity": 84,
              "position": 7.0,
              "duration": 0.25
            },
            {
              "pitch": 67,
              "velocity": 84,
              "position": 7.008333,
              "duration": 0.241667
            },
            {
              "pitch": 48,
              "velocity": 67,
              "position": 8.975,
              "duration": 0.275
            },
            {
              "pitch": 59,
              "velocity": 84,
              "position": 8.991667,
              "duration": 0.258333
            },
            {
              "pitch": 64,
              "velocity": 84,
              "position": 9.0,
              "duration": 0.25
            },
            {
              "pitch": 67,
              "velocity": 84,
              "position": 9.008333,
              "duration": 0.241667
            },
            {
              "pitch": 48,
              "velocity": 71,
              "position": 10.975,
              "duration": 0.25
            },
            {
              "pitch": 59,
              "velocity": 89,
              "position": 10.991667,
              "duration": 0.233333
            },
            {
              "pitch": 64,
              "velocity": 89,
              "position": 11.0,
              "duration": 0.225
            },
            {
              "pitch": 67,
              "velocity": 89,
              "position": 11.008333,
              "duration": 0.216667
            },
            {
              "pitch": 48,
              "velocity": 64,
              "position": 12.975,
              "duration": 0.275
            },
            {
              "pitch": 59,
              "velocity": 80,
              "position": 12.991667,
              "duration": 0.258333
            },
            {
              "pitch": 64,
              "velocity": 80,
              "position": 13.0,
              "duration": 0.25
            },
            {
              "pitch": 67,
              "velocity": 80,
              "position": 13.008333,
              "duration": 0.241667
            },
            {
              "pitch": 48,
              "velocity": 69,
              "position": 14.975,
              "duration": 0.316667
            },
            {
              "pitch": 59,
              "velocity": 87,
              "position": 14.991667,
              "duration": 0.3
            },
            {
              "pitch": 64,
              "velocity": 87,
              "position": 15.0,
              "duration": 0.291667
            },
            {
              "pitch": 67,
              "velocity": 87,
              "position": 15.008333,
              "duration": 0.283333
            }
          ]
        },
        "13": {
          "ctab": {
            "srcChannel": 13,
            "name": "Strings",
            "accType": "PAD",
            "editable": true,
            "mutedNotes": [],
            "mutedChords": [],
            "sourceChordNote": 0,
            "sourceChordType": "Maj7",
            "ctb2Main": {
              "ntr": "ROOT_FIXED",
              "ntt": "MELODY",
              "bassOn": false,
              "noteLowLimit": 36,
              "noteHighLimit": 96,
              "chordRootUpperLimit": 127,
              "rtr": "PITCH_SHIFT"
            }
          },
          "notes": [
            {
              "pitch": 64,
              "velocity": 60,
              "position": 0.091667,
              "duration": 1.533333
            },
            {
              "pitch": 79,
              "velocity": 67,
              "position": 0.233333,
              "duration": 1.391667
            },
            {
              "pitch": 71,
              "velocity": 72,
              "position": 2.7,
              "duration": 0.325
            },
            {
              "pitch": 79,
              "velocity": 72,
              "position": 2.725,
              "duration": 0.275
            },
            {
              "pitch": 74,
              "velocity": 72,
              "position": 2.758333,
              "duration": 0.45
            },
            {
              "pitch": 78,
              "velocity": 73,
              "position": 3.75,
              "duration": 0.716667
            },
            {
              "pitch": 83,
              "velocity": 72,
              "position": 3.75,
              "duration": 1.883333
            },
            {
              "pitch": 79,
              "velocity": 62,
              "position": 4.583333,
              "duration": 1.058333
            },
            {
              "pitch": 79,
              "velocity": 64,
              "position": 5.75,
              "duration": 2.0
            },
            {
              "pitch": 75,
              "velocity": 84,
              "position": 5.758333,
              "duration": 0.383333
            },
            {
              "pitch": 76,
              "velocity": 59,
              "position": 6.158333,
              "duration": 1.55
            },
            {
              "pitch": 79,
              "velocity": 64,
              "position": 8.025,
              "duration": 6.066667
            },
            {
              "pitch": 75,
              "velocity": 84,
              "position": 8.033333,
              "duration": 0.816667
            },
            {
              "pitch": 76,
              "velocity": 59,
              "position": 8.633333,
              "duration": 5.391667
            },
            {
              "pitch": 78,
              "velocity": 82,
              "position": 15.708333,
              "duration": 0.583333
            },
            {
              "pitch": 86,
              "velocity": 68,
              "position": 15.708333,
              "duration": 2.233333
            },
            {
              "pitch": 71,
              "velocity": 72,
              "position": 15.725,
              "duration": 2.216667
            }
          ]
        }
      }
    },
    "Ending_A": {
      "type": "Ending_A",
      "sizeInBeats": 16,
      "channels": {
        "9": {
          "ctab": {
            "srcChannel": 9,
            "name": "Drums",
            "accType": "RHYTHM",
            "editable": false,
            "mutedNotes": [],
            "mutedChords": [],
            "sourceChordNote": 0,
            "sourceChordType": "Maj",
            "ctb2Main": {
              "ntr": "ROOT_FIXED",
              "ntt": "BYPASS",
              "bassOn": false,
              "noteLowLimit": 20,
              "noteHighLimit": 127,
              "chordRootUpperLimit": 127,
              "rtr": "RETRIGGER"
            }
          },
          "notes": [
            {
              "pitch": 35,
              "velocity": 90,
              "position": 0.0,
              "duration": 0.208333
            },
            {
              "pitch": 42,
              "velocity": 60,
              "position": 0.0,
              "duration": 0.208333
            },
            {
              "pitch": 42,
              "velocity": 40,
              "position": 0.666667,
              "duration": 0.208333
            },
            {
              "pitch": 38,
              "velocity": 80,
              "position": 1.0,
              "duration": 0.208333
            },
            {
              "pitch": 42,
              "velocity": 100,
              "position": 1.0,
              "duration": 0.208333
            },
            {
              "pitch": 42,
              "velocity": 40,
              "position": 1.666667,
              "duration": 0.208333
            },
            {
              "pitch": 35,
              "velocity": 90,
              "position": 2.0,
              "duration": 0.208333
            },
            {
              "pitch": 42,
              "velocity": 60,
              "position": 2.0,
              "duration": 0.208333
            },
            {
              "pitch": 42,
              "velocity": 40,
              "position": 2.666667,
              "duration": 0.208333
            },
            {
              "pitch": 38,
              "velocity": 80,
              "position": 3.0,
              "duration": 0.208333
            },
            {
              "pitch": 42,
              "velocity": 100,
              "position": 3.0,
              "duration": 0.208333
            },
            {
              "pitch": 42,
              "velocity": 40,
              "position": 3.666667,
              "duration": 0.208333
            },
            {
              "pitch": 35,
              "velocity": 90,
              "position": 4.0,
              "duration": 0.208333
            },
            {
              "pitch": 42,
              "velocity": 60,
              "position": 4.0,
              "duration": 0.208333
            },
            {
              "pitch": 42,
              "velocity": 40,
              "position": 4.666667,
              "duration": 0.208333
            },
            {
              "pitch": 38,
              "velocity": 80,
              "position": 5.0,
              "duration": 0.208333
            },
            {
              "pitch": 42,
              "velocity": 100,
              "position": 5.0,
              "duration": 0.208333
            },
            {
              "pitch": 38,
              "velocity": 60,
              "position": 5.666667,
              "duration": 0.208333
            },
            {
              "pitch": 42,
              "velocity": 40,
              "position": 5.666667,
              "duration": 0.208333
            },
            {
              "pitch": 35,
              "velocity": 90,
              "position": 6.0,
              "duration": 0.208333
            },
            {
              "pitch": 42,
              "velocity": 60,
              "position": 6.0,
              "duration": 0.208333
            },
            {
              "pitch": 38,
              "velocity": 50,
              "position": 6.666667,
              "duration": 0.208333
            },
            {
              "pitch": 42,
              "velocity": 40,
              "position": 6.666667,
              "duration": 0.208333
            },
            {
              "pitch": 38,
              "velocity": 90,
              "position": 7.0,
              "duration": 0.208333
            },
            {
              "pitch": 42,
              "velocity": 100,
              "position": 7.0,
              "duration": 0.208333
            },
            {
              "pitch": 42,
              "velocity": 40,
              "position": 7.666667,
              "duration": 0.208333
            },
            {
              "pitch": 35,
              "velocity": 90,
              "position": 8.0,
              "duration": 0.208333
            },
            {
              "pitch": 42,
              "velocity": 60,
              "position": 8.0,
              "duration": 0.208333
            },
            {
              "pitch": 42,
              "velocity": 40,
              "position": 8.666667,
              "duration": 0.208333
            },
            {
              "pitch": 38,
              "velocity": 80,
              "position": 9.0,
              "duration": 0.208333
            },
            {
              "pitch": 42,
              "velocity": 100,
              "position": 9.0,
              "duration": 0.208333
            },
            {
              "pitch": 42,
              "velocity": 40,
              "position": 9.666667,
              "duration": 0.208333
            },
            {
              "pitch": 35,
              "velocity": 90,
              "position": 10.0,
              "duration": 0.208333
            },
            {
              "pitch": 42,
              "velocity": 60,
              "position": 10.0,
              "duration": 0.208333
            },
            {
              "pitch": 42,
              "velocity": 40,
              "position": 10.666667,
              "duration": 0.208333
            },
            {
              "pitch": 38,
              "velocity": 80,
              "position": 11.0,
              "duration": 0.208333
            },
            {
              "pitch": 42,
              "velocity": 100,
              "position": 11.0,
              "duration": 0.208333
            },
            {
              "pitch": 42,
              "velocity": 40,
              "position": 11.666667,
              "duration": 0.208333
            },
            {
              "pitch": 35,
              "velocity": 90,
              "position": 12.0,
              "duration": 0.208333
            },
            {
              "pitch": 42,
              "velocity": 60,
              "position": 12.0,
              "duration": 0.208333
            },
            {
              "pitch": 42,
              "velocity": 40,
              "position": 12.666667,
              "duration": 0.208333
            },
            {
              "pitch": 38,
              "velocity": 80,
              "position": 13.0,
              "duration": 0.208333
            },
            {
              "pitch": 42,
              "velocity": 100,
              "position": 13.0,
              "duration": 0.208333
            },
            {
              "pitch": 38,
              "velocity": 60,
              "position": 13.666667,
              "duration": 0.208333
            },
            {
              "pitch": 42,
              "velocity": 40,
              "position": 13.666667,
              "duration": 0.208333
            },
            {
              "pitch": 35,
              "velocity": 90,
              "position": 14.0,
              "duration": 0.208333
            },
            {
              "pitch": 38,
              "velocity": 80,
              "position": 14.0,
              "duration": 0.208333
            },
            {
              "pitch": 42,
              "velocity": 60,
              "position": 14.0,
              "duration": 0.208333
            },
            {
              "pitch": 38,
              "velocity": 70,
              "position": 14.666667,
              "duration": 0.208333
            },
            {
              "pitch": 42,
              "velocity": 40,
              "position": 14.666667,
              "duration": 0.208333
            },
            {
              "pitch": 38,
              "velocity": 90,
              "position": 15.0,
              "duration": 0.208333
            },
            {
              "pitch": 42,
              "velocity": 100,
              "position": 15.0,
              "duration": 0.208333
            },
            {
              "pitch": 38,
              "velocity": 70,
              "position": 15.666667,
              "duration": 0.208333
            },
            {
              "pitch": 42,
              "velocity": 40,
              "position": 15.666667,
              "duration": 0.208333
            }
          ]
        },
        "10": {
          "ctab": {
            "srcChannel": 10,
            "name": "Bass",
            "accType": "BASS",
            "editable": true,
            "mutedNotes": [],
            "mutedChords": [],
            "sourceChordNote": 0,
            "sourceChordType": "Maj7",
            "ctb2Main": {
              "ntr": "ROOT_TRANSPOSITION",
              "ntt": "BYPASS",
              "bassOn": true,
              "noteLowLimit": 20,
              "noteHighLimit": 60,
              "chordRootUpperLimit": 127,
              "rtr": "NOTE_GENERATOR"
            }
          },
          "notes": [
            {
              "pitch": 36,
              "velocity": 88,
              "position": 0.0,
              "duration": 1.508333
            },
            {
              "pitch": 36,
              "velocity": 92,
              "position": 1.666667,
              "duration": 0.25
            },
            {
              "pitch": 36,
              "velocity": 90,
              "position": 2.0,
              "duration": 1.958333
            },
            {
              "pitch": 36,
              "velocity": 88,
              "position": 4.0,
              "duration": 1.508333
            },
            {
              "pitch": 36,
              "velocity": 92,
              "position": 5.666667,
              "duration": 0.25
            },
            {
              "pitch": 36,
              "velocity": 88,
              "position": 6.0,
              "duration": 0.991667
            },
            {
              "pitch": 43,
              "velocity": 84,
              "position": 7.0,
              "duration": 0.958333
            },
            {
              "pitch": 36,
              "velocity": 86,
              "position": 8.0,
              "duration": 1.508333
            },
            {
              "pitch": 36,
              "velocity": 70,
              "position": 9.666667,
              "duration": 0.333333
            },
            {
              "pitch": 43,
              "velocity": 78,
              "position": 10.0,
              "duration": 0.991667
            },
            {
              "pitch": 31,
              "velocity": 90,
              "position": 11.041667,
              "duration": 0.958333
            },
            {
              "pitch": 36,
              "velocity": 86,
              "position": 12.0,
              "duration": 1.508333
            },
            {
              "pitch": 36,
              "velocity": 70,
              "position": 13.666667,
              "duration": 0.333333
            },
            {
              "pitch": 43,
              "velocity": 78,
              "position": 14.0,
              "duration": 0.991667
            },
            {
              "pitch": 31,
              "velocity": 90,
              "position": 15.041667,
              "duration": 0.958333
            }
          ]
        },
        "11": {
          "ctab": {
            "srcChannel": 11,
            "name": "Piano",
            "accType": "CHORD1",
            "editable": true,
            "mutedNotes": [],
            "mutedChords": [],
            "sourceChordNote": 0,
            "sourceChordType": "Maj7",
            "ctb2Main": {
              "ntr": "ROOT_FIXED",
              "ntt": "CHORD",
              "bassOn": false,
              "noteLowLimit": 48,
              "noteHighLimit": 84,
              "chordRootUpperLimit": 127,
              "rtr": "NOTE_GENERATOR"
            }
          },
          "notes": [
            {
              "pitch": 48,
              "velocity": 66,
              "position": 0.0,
              "duration": 1.775
            },
            {
              "pitch": 55,
              "velocity": 74,
              "position": 1.0,
              "duration": 0.333333
            },
            {
              "pitch": 59,
              "velocity": 79,
              "position": 1.0,
              "duration": 0.233333
            },
            {
              "pitch": 60,
              "velocity": 73,
              "position": 1.0,
              "duration": 0.333333
            },
            {
              "pitch": 64,
              "velocity": 71,
              "position": 1.0,
              "duration": 0.3
            },
            {
              "pitch": 48,
              "velocity": 76,
              "position": 2.0,
              "duration": 1.958333
            },
            {
              "pitch": 55,
              "velocity": 67,
              "position": 3.0,
              "duration": 0.233333
            },
            {
              "pitch": 59,
              "velocity": 83,
              "position": 3.0,
              "duration": 0.2
            },
            {
              "pitch": 60,
              "velocity": 74,
              "position": 3.0,
              "duration": 0.266667
            },
            {
              "pitch": 64,
              "velocity": 72,
              "position": 3.0,
              "duration": 0.233333
            },
            {
              "pitch": 48,
              "velocity": 76,
              "position": 4.0,
              "duration": 1.625
            },
            {
              "pitch": 55,
              "velocity": 67,
              "position": 5.0,
              "duration": 0.233333
            },
            {
              "pitch": 59,
              "velocity": 83,
              "position": 5.0,
              "duration": 0.2
            },
            {
              "pitch": 60,
              "velocity": 74,
              "position": 5.0,
              "duration": 0.266667
            },
            {
              "pitch": 64,
              "velocity": 72,
              "position": 5.0,
              "duration": 0.233333
            },
            {
              "pitch": 48,
              "velocity": 76,
              "position": 5.708333,
              "duration": 2.233333
            },
            {
              "pitch": 55,
              "velocity": 67,
              "position": 7.0,
              "duration": 0.233333
            },
            {
              "pitch": 59,
              "velocity": 83,
              "position": 7.0,
              "duration": 0.2
            },
            {
              "pitch": 60,
              "velocity": 74,
              "position": 7.0,
              "duration": 0.266667
            },
            {
              "pitch": 64,
              "velocity": 72,
              "position": 7.0,
              "duration": 0.233333
            },
            {
              "pitch": 48,
              "velocity": 76,
              "position": 8.0,
              "duration": 2.1
            },
            {
              "pitch": 55,
              "velocity": 67,
              "position": 9.0,
              "duration": 0.233333
            },
            {
              "pitch": 59,
              "velocity": 83,
              "position": 9.0,
              "duration": 0.2
            },
            {
              "pitch": 60,
              "velocity": 74,
              "position": 9.0,
              "duration": 0.266667
            },
            {
              "pitch": 64,
              "velocity": 72,
              "position": 9.0,
              "duration": 0.233333
            },
            {
              "pitch": 43,
              "velocity": 48,
              "position": 10.0,
              "duration": 1.958333
            },
            {
              "pitch": 55,
              "velocity": 63,
              "position": 11.0,
              "duration": 0.266667
            },
            {
              "pitch": 59,
              "velocity": 85,
              "position": 11.0,
              "duration": 0.2
            },
            {
              "pitch": 60,
              "velocity": 67,
              "position": 11.0,
              "duration": 0.266667
            },
            {
              "pitch": 64,
              "velocity": 71,
              "position": 11.0,
              "duration": 0.3
            },
            {
              "pitch": 48,
              "velocity": 76,
              "position": 12.0,
              "duration": 2.1
            },
            {
              "pitch": 55,
              "velocity": 67,
              "position": 13.0,
              "duration": 0.233333
            },
            {
              "pitch": 59,
              "velocity": 83,
              "position": 13.0,
              "duration": 0.2
            },
            {
              "pitch": 60,
              "velocity": 74,
              "position": 13.0,
              "duration": 0.266667
            },
            {
              "pitch": 64,
              "velocity": 72,
              "position": 13.0,
              "duration": 0.233333
            },
            {
              "pitch": 43,
              "velocity": 48,
              "position": 14.0,
              "duration": 1.625
            },
            {
              "pitch": 55,
              "velocity": 63,
              "position": 15.0,
              "duration": 0.266667
            },
            {
              "pitch": 59,
              "velocity": 85,
              "position": 15.0,
              "duration": 0.2
            },
            {
              "pitch": 60,
              "velocity": 67,
              "position": 15.0,
              "duration": 0.266667
            },
            {
              "pitch": 64,
              "velocity": 71,
              "position": 15.0,
              "duration": 0.3
            },
            {
              "pitch": 48,
              "velocity": 83,
              "position": 15.708333,
              "duration": 2.375
            }
          ]
        },
        "12": {
          "ctab": {
            "srcChannel": 12,
            "name": "Guitar",
            "accType": "CHORD2",
            "editable": true,
            "mutedNotes": [],
            "mutedChords": [],
            "sourceChordNote": 0,
            "sourceChordType": "Maj7",
            "ctb2Main": {
              "ntr": "ROOT_FIXED",
              "ntt": "CHORD",
              "bassOn": false,
              "noteLowLimit": 40,
              "noteHighLimit": 76,
              "chordRootUpperLimit": 127,
              "rtr": "NOTE_GENERATOR"
            }
          },
          "notes": [
            {
              "pitch": 48,
              "velocity": 59,
              "position": 0.975,
              "duration": 0.275
            },
            {
              "pitch": 59,
              "velocity": 74,
              "position": 0.991667,
              "duration": 0.258333
            },
            {
              "pitch": 64,
              "velocity": 74,
              "position": 1.0,
              "duration": 0.25
            },
            {
              "pitch": 67,
              "velocity": 74,
              "position": 1.008333,
              "duration": 0.241667
            },
            {
              "pitch": 60,
              "velocity": 74,
              "position": 2.95,
              "duration": 0.3
            },
            {
              "pitch": 64,
              "velocity": 74,
              "position": 2.975,
              "duration": 0.275
            },
            {
              "pitch": 67,
              "velocity": 74,
              "position": 3.0,
              "duration": 0.25
            },
            {
              "pitch": 71,
              "velocity": 74,
              "position": 3.033333,
              "duration": 0.216667
            },
            {
              "pitch": 48,
              "velocity": 59,
              "position": 4.975,
              "duration": 0.275
            },
            {
              "pitch": 59,
              "velocity": 74,
              "position": 4.991667,
              "duration": 0.258333
            },
            {
              "pitch": 64,
              "velocity": 74,
              "position": 5.0,
              "duration": 0.25
            },
            {
              "pitch": 67,
              "velocity": 74,
              "position": 5.008333,
              "duration": 0.241667
            },
            {
              "pitch": 67,
              "velocity": 76,
              "position": 7.0,
              "duration": 0.225
            },
            {
              "pitch": 71,
              "velocity": 75,
              "position": 7.0,
              "duration": 0.216667
            },
            {
              "pitch": 64,
              "velocity": 61,
              "position": 7.008333,
              "duration": 0.166667
            },
            {
              "pitch": 67,
              "velocity": 76,
              "position": 9.0,
              "duration": 0.225
            },
            {
              "pitch": 71,
              "velocity": 75,
              "position": 9.0,
              "duration": 0.216667
            },
            {
              "pitch": 64,
              "velocity": 61,
              "position": 9.008333,
              "duration": 0.166667
            },
            {
              "pitch": 64,
              "velocity": 61,
              "position": 11.0,
              "duration": 0.175
            },
            {
              "pitch": 67,
              "velocity": 88,
              "position": 11.0,
              "duration": 0.2
            },
            {
              "pitch": 71,
              "velocity": 87,
              "position": 11.0,
              "duration": 0.2
            },
            {
              "pitch": 48,
              "velocity": 59,
              "position": 12.975,
              "duration": 0.275
            },
            {
              "pitch": 60,
              "velocity": 74,
              "position": 12.983333,
              "duration": 0.266667
            },
            {
              "pitch": 64,
              "velocity": 74,
              "position": 12.991667,
              "duration": 0.258333
            },
            {
              "pitch": 67,
              "velocity": 74,
              "position": 13.008333,
              "duration": 0.241667
            },
            {
              "pitch": 71,
              "velocity": 74,
              "position": 13.016667,
              "duration": 0.233333
            },
            {
              "pitch": 48,
              "velocity": 63,
              "position": 14.975,
              "duration": 0.25
            },
            {
              "pitch": 60,
              "velocity": 79,
              "position": 14.983333,
              "duration": 0.241667
            },
            {
              "pitch": 64,
              "velocity": 79,
              "position": 14.991667,
              "duration": 0.233333
            },
            {
              "pitch": 67,
              "velocity": 79,
              "position": 15.008333,
              "duration": 0.216667
            },
            {
              "pitch": 71,
              "velocity": 79,
              "position": 15.016667,
              "duration": 0.208333
            }
          ]
        },
        "13": {
          "ctab": {
            "srcChannel": 13,
            "name": "Strings",
            "accType": "PAD",
            "editable": true,
            "mutedNotes": [],
            "mutedChords": [],
            "sourceChordNote": 0,
            "sourceChordType": "Maj7",
            "ctb2Main": {
              "ntr": "ROOT_FIXED",
              "ntt": "MELODY",
              "bassOn": false,
              "noteLowLimit": 36,
              "noteHighLimit": 96,
              "chordRootUpperLimit": 127,
              "rtr": "PITCH_SHIFT"
            }
          },
          "notes": [
            {
              "pitch": 79,
              "velocity": 63,
              "position": 0.025,
              "duration": 1.233333
            },
            {
              "pitch": 75,
              "velocity": 83,
              "position": 0.033333,
              "duration": 0.333333
            },
            {
              "pitch": 83,
              "velocity": 56,
              "position": 0.041667,
              "duration": 1.058333
            },
            {
              "pitch": 76,
              "velocity": 58,
              "position": 0.366667,
              "duration": 1.3
            },
            {
              "pitch": 79,
              "velocity": 56,
              "position": 1.75,
              "duration": 1.875
            },
            {
              "pitch": 75,
              "velocity": 76,
              "position": 1.758333,
              "duration": 0.383333
            },
            {
              "pitch": 76,
              "velocity": 51,
              "position": 2.158333,
              "duration": 1.466667
            },
            {
              "pitch": 74,
              "velocity": 58,
              "position": 3.708333,
              "duration": 2.233333
            },
            {
              "pitch": 79,
              "velocity": 51,
              "position": 3.708333,
              "duration": 2.233333
            },
            {
              "pitch": 83,
              "velocity": 65,
              "position": 3.708333,
              "duration": 2.233333
            },
            {
              "pitch": 88,
              "velocity": 70,
              "position": 3.708333,
              "duration": 2.233333
            },
            {
              "pitch": 78,
              "velocity": 65,
              "position": 6.041667,
              "duration": 0.441667
            },
            {
              "pitch": 83,
              "velocity": 64,
              "position": 6.041667,
              "duration": 1.608333
            },
            {
              "pitch": 79,
              "velocity": 54,
              "position": 6.583333,
              "duration": 1.041667
            },
            {
              "pitch": 79,
              "velocity": 65,
              "position": 7.733333,
              "duration": 1.508333
            },
            {
              "pitch": 75,
              "velocity": 85,
              "position": 7.741667,
              "duration": 0.608333
            },
            {
              "pitch": 83,
              "velocity": 58,
              "position": 7.75,
              "duration": 1.333333
            },
            {
              "pitch": 76,
              "velocity": 60,
              "position": 8.366667,
              "duration": 1.3
            },
            {
              "pitch": 74,
              "velocity": 58,
              "position": 9.666667,
              "duration": 0.616667
            },
            {
              "pitch": 76,
              "velocity": 58,
              "position": 9.991667,
              "duration": 0.708333
            },
            {
              "pitch": 83,
              "velocity": 58,
              "position": 9.991667,
              "duration": 0.708333
            },
            {
              "pitch": 79,
              "velocity": 58,
              "position": 10.008333,
              "duration": 0.691667
            },
            {
              "pitch": 74,
              "velocity": 58,
              "position": 10.7,
              "duration": 0.658333
            },
            {
              "pitch": 76,
              "velocity": 58,
              "position": 11.0,
              "duration": 0.583333
            },
            {
              "pitch": 79,
              "velocity": 58,
              "position": 11.0,
              "duration": 0.35
            },
            {
              "pitch": 83,
              "velocity": 58,
              "position": 11.0,
              "duration": 0.516667
            },
            {
              "pitch": 79,
              "velocity": 65,
              "position": 11.733333,
              "duration": 1.508333
            },
            {
              "pitch": 75,
              "velocity": 85,
              "position": 11.741667,
              "duration": 0.608333
            },
            {
              "pitch": 83,
              "velocity": 58,
              "position": 11.75,
              "duration": 1.333333
            },
            {
              "pitch": 76,
              "velocity": 60,
              "position": 12.366667,
              "duration": 1.3
            },
            {
              "pitch": 74,
              "velocity": 58,
              "position": 13.666667,
              "duration": 0.616667
            },
            {
              "pitch": 76,
              "velocity": 58,
              "position": 13.991667,
              "duration": 0.708333
            },
            {
              "pitch": 83,
              "velocity": 58,
              "position": 13.991667,
              "duration": 0.708333
            },
            {
              "pitch": 79,
              "velocity": 58,
              "position": 14.008333,
              "duration": 0.691667
            },
            {
              "pitch": 74,
              "velocity": 58,
              "position": 14.7,
              "duration": 0.658333
            },
            {
              "pitch": 76,
              "velocity": 58,
              "position": 15.0,
              "duration": 0.583333
            },
            {
              "pitch": 79,
              "velocity": 58,
              "position": 15.0,
              "duration": 0.35
            },
            {
              "pitch": 83,
              "velocity": 58,
              "position": 15.0,
              "duration": 0.516667
            }
          ]
        }
      }
    }
  }
}