{
  "name": "BigBandFast1.S198.sst",
  "tempo": 180,
  "timeSignature": "4/4",
  "ticksPerQuarter": 1920,
  "sffType": "SFF1",
  "division": "EIGHTH_SHUFFLE",
  "parts": {
    "Main_A": {
      "type": "Main_A",
      "sizeInBeats": 16,
      "channels": {
        "0": {
          "ctab": {
            "srcChannel": 0,
            "name": "CC_Crash",
            "accType": "RHYTHM",
            "editable": false,
            "mutedNotes": [],
            "mutedChords": [
              "1+2+5",
              "sus4",
              "1+5",
              "1+8",
              "7aug",
              "Maj7aug",
              "7(#9)",
              "7(b13)",
              "7(b9)",
              "7(13)",
              "7#11",
              "7(9)",
              "7b5",
              "7sus4",
              "7th",
              "dim7",
              "dim",
              "minMaj7(9)",
              "minMaj7",
              "min7(11)",
              "min7(9)",
              "min(9)",
              "m7b5",
              "min7",
              "min6",
              "min",
              "aug",
              "Maj6(9)",
              "Maj7(9)",
              "Maj(9)",
              "Maj7#11",
              "Maj7",
              "Maj6",
              "Maj"
            ],
            "autoStart": true,
            "sourceChordNote": 0,
            "sourceChordType": "Maj",
            "ctb2Low": null,
            "ctb2Main": {
              "ntr": "ROOT_FIXED",
              "ntt": "BYPASS",
              "bassOn": false,
              "chordRootUpperLimit": 0,
              "noteLowLimit": 0,
              "noteHighLimit": 127,
              "rtr": "RETRIGGER"
            },
            "ctb2High": null
          },
          "notes": []
        },
        "2": {
          "ctab": {
            "srcChannel": 2,
            "name": "Gt",
            "accType": "CHORD1",
            "editable": false,
            "mutedNotes": [],
            "mutedChords": [
              "min(9)",
              "min6",
              "min",
              "Maj6(9)",
              "Maj7(9)",
              "Maj(9)",
              "Maj7",
              "Maj6",
              "Maj"
            ],
            "autoStart": false,
            "sourceChordNote": 0,
            "sourceChordType": "Maj7",
            "ctb2Low": null,
            "ctb2Main": {
              "ntr": "ROOT_FIXED",
              "ntt": "CHORD",
              "bassOn": false,
              "chordRootUpperLimit": 8,
              "noteLowLimit": 0,
              "noteHighLimit": 127,
              "rtr": "PITCH_SHIFT"
            },
            "ctb2High": null
          },
          "notes": [
            {
              "pitch": 55,
              "velocity": 88,
              "position": 1,
              "duration": 0.40625
            },
            {
              "pitch": 59,
              "velocity": 88,
              "position": 1,
              "duration": 0.40625
            },
            {
              "pitch": 64,
              "velocity": 88,
              "position": 1,
              "duration": 0.40625
            },
            {
              "pitch": 55,
              "velocity": 88,
              "position": 3,
              "duration": 0.40625
            },
            {
              "pitch": 59,
              "velocity": 88,
              "position": 3,
              "duration": 0.40625
            },
            {
              "pitch": 64,
              "velocity": 88,
              "position": 3,
              "duration": 0.40625
            },
            {
              "pitch": 55,
              "velocity": 88,
              "position": 5,
              "duration": 0.40625
            },
            {
              "pitch": 59,
              "velocity": 88,
              "position": 5,
              "duration": 0.40625
            },
            {
              "pitch": 64,
              "velocity": 88,
              "position": 5,
              "duration": 0.40625
            },
            {
              "pitch": 55,
              "velocity": 88,
              "position": 7,
              "duration": 0.40625
            },
            {
              "pitch": 59,
              "velocity": 88,
              "position": 7,
              "duration": 0.40625
            },
            {
              "pitch": 64,
              "velocity": 88,
              "position": 7,
              "duration": 0.40625
            },
            {
              "pitch": 55,
              "velocity": 88,
              "position": 9,
              "duration": 0.40625
            },
            {
              "pitch": 59,
              "velocity": 88,
              "position": 9,
              "duration": 0.40625
            },
            {
              "pitch": 64,
              "velocity": 88,
              "position": 9,
              "duration": 0.40625
            },
            {
              "pitch": 55,
              "velocity": 88,
              "position": 11,
              "duration": 0.40625
            },
            {
              "pitch": 59,
              "velocity": 88,
              "position": 11,
              "duration": 0.40625
            },
            {
              "pitch": 64,
              "velocity": 88,
              "position": 11,
              "duration": 0.40625
            },
            {
              "pitch": 55,
              "velocity": 88,
              "position": 13,
              "duration": 0.40625
            },
            {
              "pitch": 59,
              "velocity": 88,
              "position": 13,
              "duration": 0.40625
            },
            {
              "pitch": 64,
              "velocity": 88,
              "position": 13,
              "duration": 0.40625
            },
            {
              "pitch": 55,
              "velocity": 88,
              "position": 15,
              "duration": 0.40625
            },
            {
              "pitch": 59,
              "velocity": 88,
              "position": 15,
              "duration": 0.40625
            },
            {
              "pitch": 64,
              "velocity": 88,
              "position": 15,
              "duration": 0.40625
            }
          ]
        },
        "3": {
          "ctab": {
            "srcChannel": 3,
            "name": "Pno",
            "accType": "CHORD2",
            "editable": false,
            "mutedNotes": [],
            "mutedChords": [
              "min(9)",
              "min6",
              "min",
              "Maj6(9)",
              "Maj7(9)",
              "Maj(9)",
              "Maj7",
              "Maj6",
              "Maj"
            ],
            "autoStart": false,
            "sourceChordNote": 0,
            "sourceChordType": "Maj7",
            "ctb2Low": null,
            "ctb2Main": {
              "ntr": "ROOT_FIXED",
              "ntt": "CHORD",
              "bassOn": false,
              "chordRootUpperLimit": 8,
              "noteLowLimit": 0,
              "noteHighLimit": 127,
              "rtr": "PITCH_SHIFT"
            },
            "ctb2High": null
          },
          "notes": [
            {
              "pitch": 59,
              "velocity": 80,
              "position": 0,
              "duration": 0.2708333333333333
            },
            {
              "pitch": 64,
              "velocity": 80,
              "position": 0,
              "duration": 0.2708333333333333
            },
            {
              "pitch": 67,
              "velocity": 80,
              "position": 0,
              "duration": 0.2708333333333333
            },
            {
              "pitch": 59,
              "velocity": 80,
              "position": 6.666666666666667,
              "duration": 0.2708333333333333
            },
            {
              "pitch": 64,
              "velocity": 80,
              "position": 6.666666666666667,
              "duration": 0.2708333333333333
            },
            {
              "pitch": 67,
              "velocity": 80,
              "position": 6.666666666666667,
              "duration": 0.2708333333333333
            },
            {
              "pitch": 59,
              "velocity": 80,
              "position": 8,
              "duration": 0.2708333333333333
            },
            {
              "pitch": 64,
              "velocity": 80,
              "position": 8,
              "duration": 0.2708333333333333
            },
            {
              "pitch": 67,
              "velocity": 80,
              "position": 8,
              "duration": 0.2708333333333333
            },
            {
              "pitch": 59,
              "velocity": 80,
              "position": 14.666666666666666,
              "duration": 0.2708333333333333
            },
            {
              "pitch": 64,
              "velocity": 80,
              "position": 14.666666666666666,
              "duration": 0.2708333333333333
            },
            {
              "pitch": 67,
              "velocity": 80,
              "position": 14.666666666666666,
              "duration": 0.2708333333333333
            }
          ]
        },
        "4": {
          "ctab": {
            "srcChannel": 4,
            "name": "Sax",
            "accType": "PAD",
            "editable": false,
            "mutedNotes": [],
            "mutedChords": [
              "min(9)",
              "min6",
              "min",
              "Maj6(9)",
              "Maj7(9)",
              "Maj(9)",
              "Maj7",
              "Maj6",
              "Maj"
            ],
            "autoStart": false,
            "sourceChordNote": 0,
            "sourceChordType": "Maj7",
            "ctb2Low": null,
            "ctb2Main": {
              "ntr": "ROOT_FIXED",
              "ntt": "CHORD",
              "bassOn": false,
              "chordRootUpperLimit": 8,
              "noteLowLimit": 0,
              "noteHighLimit": 127,
              "rtr": "PITCH_SHIFT"
            },
            "ctb2High": null
          },
          "notes": []
        },
        "6": {
          "ctab": {
            "srcChannel": 6,
            "name": "Tbn",
            "accType": "PHRASE2",
            "editable": false,
            "mutedNotes": [],
            "mutedChords": [
              "min(9)",
              "min6",
              "min",
              "Maj6(9)",
              "Maj7(9)",
              "Maj(9)",
              "Maj7",
              "Maj6",
              "Maj"
            ],
            "autoStart": false,
            "sourceChordNote": 0,
            "sourceChordType": "Maj7",
            "ctb2Low": null,
            "ctb2Main": {
              "ntr": "ROOT_FIXED",
              "ntt": "CHORD",
              "bassOn": false,
              "chordRootUpperLimit": 8,
              "noteLowLimit": 0,
              "noteHighLimit": 127,
              "rtr": "PITCH_SHIFT"
            },
            "ctb2High": null
          },
          "notes": [
            {
              "pitch": 55,
              "velocity": 90,
              "position": 2,
              "duration": 0.25
            },
            {
              "pitch": 59,
              "velocity": 90,
              "position": 2,
              "duration": 0.25
            },
            {
              "pitch": 64,
              "velocity": 90,
              "position": 2,
              "duration": 0.25
            },
            {
              "pitch": 55,
              "velocity": 90,
              "position": 4,
              "duration": 0.25
            },
            {
              "pitch": 59,
              "velocity": 90,
              "position": 4,
              "duration": 0.25
            },
            {
              "pitch": 64,
              "velocity": 90,
              "position": 4,
              "duration": 0.25
            },
            {
              "pitch": 55,
              "velocity": 90,
              "position": 5.666666666666667,
              "duration": 0.25
            },
            {
              "pitch": 59,
              "velocity": 90,
              "position": 5.666666666666667,
              "duration": 0.25
            },
            {
              "pitch": 64,
              "velocity": 90,
              "position": 5.666666666666667,
              "duration": 0.25
            },
            {
              "pitch": 55,
              "velocity": 39,
              "position": 10,
              "duration": 0.65625
            },
            {
              "pitch": 59,
              "velocity": 39,
              "position": 10,
              "duration": 0.65625
            },
            {
              "pitch": 64,
              "velocity": 39,
              "position": 10,
              "duration": 0.65625
            },
            {
              "pitch": 55,
              "velocity": 90,
              "position": 10.666666666666666,
              "duration": 0.25
            },
            {
              "pitch": 59,
              "velocity": 90,
              "position": 10.666666666666666,
              "duration": 0.25
            },
            {
              "pitch": 64,
              "velocity": 90,
              "position": 10.666666666666666,
              "duration": 0.25
            },
            {
              "pitch": 55,
              "velocity": 90,
              "position": 12,
              "duration": 0.25
            },
            {
              "pitch": 59,
              "velocity": 90,
              "position": 12,
              "duration": 0.25
            },
            {
              "pitch": 64,
              "velocity": 90,
              "position": 12,
              "duration": 0.25
            },
            {
              "pitch": 55,
              "velocity": 90,
              "position": 13.666666666666666,
              "duration": 0.25
            },
            {
              "pitch": 59,
              "velocity": 90,
              "position": 13.666666666666666,
              "duration": 0.25
            },
            {
              "pitch": 64,
              "velocity": 90,
              "position": 13.666666666666666,
              "duration": 0.25
            }
          ]
        },
        "9": {
          "ctab": {
            "srcChannel": 9,
            "name": "Drs",
            "accType": "RHYTHM",
            "editable": false,
            "mutedNotes": [],
            "mutedChords": [],
            "autoStart": true,
            "sourceChordNote": 0,
            "sourceChordType": "Maj7",
            "ctb2Low": null,
            "ctb2Main": {
              "ntr": "ROOT_FIXED",
              "ntt": "BYPASS",
              "bassOn": false,
              "chordRootUpperLimit": 6,
              "noteLowLimit": 0,
              "noteHighLimit": 127,
              "rtr": "PITCH_SHIFT"
            },
            "ctb2High": null
          },
          "notes": [
            {
              "pitch": 25,
              "velocity": 50,
              "position": 0,
              "duration": 0.010416666666666666
            },
            {
              "pitch": 35,
              "velocity": 74,
              "position": 0,
              "duration": 0.010416666666666666
            },
            {
              "pitch": 26,
              "velocity": 48,
              "position": 0,
              "duration": 0.9895833333333334
            },
            {
              "pitch": 25,
              "velocity": 120,
              "position": 1,
              "duration": 0.010416666666666666
            },
            {
              "pitch": 44,
              "velocity": 60,
              "position": 1,
              "duration": 0.010416666666666666
            },
            {
              "pitch": 25,
              "velocity": 30,
              "position": 1.6666666666666667,
              "duration": 0.010416666666666666
            },
            {
              "pitch": 26,
              "velocity": 48,
              "position": 1,
              "duration": 0.9895833333333334
            },
            {
              "pitch": 25,
              "velocity": 50,
              "position": 2,
              "duration": 0.010416666666666666
            },
            {
              "pitch": 35,
              "velocity": 74,
              "position": 2,
              "duration": 0.010416666666666666
            },
            {
              "pitch": 26,
              "velocity": 48,
              "position": 2,
              "duration": 0.9895833333333334
            },
            {
              "pitch": 25,
              "velocity": 120,
              "position": 3,
              "duration": 0.010416666666666666
            },
            {
              "pitch": 44,
              "velocity": 60,
              "position": 3,
              "duration": 0.010416666666666666
            },
            {
              "pitch": 25,
              "velocity": 30,
              "position": 3.6666666666666665,
              "duration": 0.010416666666666666
            },
            {
              "pitch": 26,
              "velocity": 48,
              "position": 3,
              "duration": 0.9895833333333334
            },
            {
              "pitch": 35,
              "velocity": 74,
              "position": 4,
              "duration": 0.010416666666666666
            },
            {
              "pitch": 26,
              "velocity": 48,
              "position": 4,
              "duration": 0.9895833333333334
            },
            {
              "pitch": 25,
              "velocity": 120,
              "position": 5,
              "duration": 0.010416666666666666
            },
            {
              "pitch": 44,
              "velocity": 60,
              "position": 5,
              "duration": 0.010416666666666666
            },
            {
              "pitch": 25,
              "velocity": 30,
              "position": 5.666666666666667,
              "duration": 0.010416666666666666
            },
            {
              "pitch": 26,
              "velocity": 48,
              "position": 5,
              "duration": 0.9895833333333334
            },
            {
              "pitch": 25,
              "velocity": 50,
              "position": 6,
              "duration": 0.010416666666666666
            },
            {
              "pitch": 35,
              "velocity": 74,
              "position": 6,
              "duration": 0.010416666666666666
            },
            {
              "pitch": 26,
              "velocity": 48,
              "position": 6,
              "duration": 0.9895833333333334
            },
            {
              "pitch": 25,
              "velocity": 120,
              "position": 7,
              "duration": 0.010416666666666666
            },
            {
              "pitch": 44,
              "velocity": 60,
              "position": 7,
              "duration": 0.010416666666666666
            },
            {
              "pitch": 25,
              "velocity": 30,
              "position": 7.666666666666667,
              "duration": 0.010416666666666666
            },
            {
              "pitch": 26,
              "velocity": 48,
              "position": 7,
              "duration": 0.9895833333333334
            },
            {
              "pitch": 25,
              "velocity": 50,
              "position": 8,
              "duration": 0.010416666666666666
            },
            {
              "pitch": 35,
              "velocity": 74,
              "position": 8,
              "duration": 0.010416666666666666
            },
            {
              "pitch": 26,
              "velocity": 48,
              "position": 8,
              "duration": 0.9895833333333334
            },
            {
              "pitch": 25,
              "velocity": 120,
              "position": 9,
              "duration": 0.010416666666666666
            },
            {
              "pitch": 44,
              "velocity": 60,
              "position": 9,
              "duration": 0.010416666666666666
            },
            {
              "pitch": 25,
              "velocity": 30,
              "position": 9.666666666666666,
              "duration": 0.010416666666666666
            },
            {
              "pitch": 26,
              "velocity": 48,
              "position": 9,
              "duration": 0.9895833333333334
            },
            {
              "pitch": 25,
              "velocity": 50,
              "position": 10,
              "duration": 0.010416666666666666
            },
            {
              "pitch": 35,
              "velocity": 74,
              "position": 10,
              "duration": 0.010416666666666666
            },
            {
              "pitch": 26,
              "velocity": 48,
              "position": 10,
              "duration": 0.9895833333333334
            },
            {
              "pitch": 25,
              "velocity": 120,
              "position": 11,
              "duration": 0.010416666666666666
            },
            {
              "pitch": 44,
              "velocity": 60,
              "position": 11,
              "duration": 0.010416666666666666
            },
            {
              "pitch": 25,
              "velocity": 30,
              "position": 11.666666666666666,
              "duration": 0.010416666666666666
            },
            {
              "pitch": 26,
              "velocity": 48,
              "position": 11,
              "duration": 0.9895833333333334
            },
            {
              "pitch": 25,
              "velocity": 50,
              "position": 12,
              "duration": 0.010416666666666666
            },
            {
              "pitch": 35,
              "velocity": 74,
              "position": 12,
              "duration": 0.010416666666666666
            },
            {
              "pitch": 26,
              "velocity": 48,
              "position": 12,
              "duration": 0.9895833333333334
            },
            {
              "pitch": 25,
              "velocity": 120,
              "position": 13,
              "duration": 0.010416666666666666
            },
            {
              "pitch": 44,
              "velocity": 60,
              "position": 13,
              "duration": 0.010416666666666666
            },
            {
              "pitch": 25,
              "velocity": 30,
              "position": 13.666666666666666,
              "duration": 0.010416666666666666
            },
            {
              "pitch": 26,
              "velocity": 48,
              "position": 13,
              "duration": 0.9895833333333334
            },
            {
              "pitch": 25,
              "velocity": 50,
              "position": 14,
              "duration": 0.010416666666666666
            },
            {
              "pitch": 35,
              "velocity": 74,
              "position": 14,
              "duration": 0.010416666666666666
            },
            {
              "pitch": 26,
              "velocity": 48,
              "position": 14,
              "duration": 0.9895833333333334
            },
            {
              "pitch": 25,
              "velocity": 120,
              "position": 15,
              "duration": 0.010416666666666666
            },
            {
              "pitch": 44,
              "velocity": 60,
              "position": 15,
              "duration": 0.010416666666666666
            },
            {
              "pitch": 25,
              "velocity": 30,
              "position": 15.666666666666666,
              "duration": 0.010416666666666666
            },
            {
              "pitch": 26,
              "velocity": 48,
              "position": 15,
              "duration": 0.9895833333333334
            }
          ]
        },
        "10": {
          "ctab": {
            "srcChannel": 10,
            "name": "Bass",
            "accType": "BASS",
            "editable": false,
            "mutedNotes": [],
            "mutedChords": [],
            "autoStart": false,
            "sourceChordNote": 0,
            "sourceChordType": "Maj",
            "ctb2Low": null,
            "ctb2Main": {
              "ntr": "ROOT_TRANSPOSITION",
              "ntt": "MELODY",
              "bassOn": true,
              "chordRootUpperLimit": 8,
              "noteLowLimit": 28,
              "noteHighLimit": 127,
              "rtr": "PITCH_SHIFT_TO_ROOT"
            },
            "ctb2High": null
          },
          "notes": [
            {
              "pitch": 24,
              "velocity": 80,
              "position": 0,
              "duration": 1
            },
            {
              "pitch": 31,
              "velocity": 80,
              "position": 2,
              "duration": 1
            },
            {
              "pitch": 24,
              "velocity": 80,
              "position": 4,
              "duration": 1
            },
            {
              "pitch": 31,
              "velocity": 80,
              "position": 6,
              "duration": 1
            },
            {
              "pitch": 24,
              "velocity": 80,
              "position": 8,
              "duration": 1
            },
            {
              "pitch": 31,
              "velocity": 80,
              "position": 10,
              "duration": 1
            },
            {
              "pitch": 24,
              "velocity": 80,
              "position": 12,
              "duration": 1
            },
            {
              "pitch": 31,
              "velocity": 80,
              "position": 14,
              "duration": 1
            }
          ]
        },
        "11": {
          "ctab": {
            "srcChannel": 11,
            "name": "Gt",
            "accType": "CHORD1",
            "editable": false,
            "mutedNotes": [],
            "mutedChords": [
              "1+2+5",
              "sus4",
              "1+5",
              "1+8",
              "7aug",
              "Maj7aug",
              "7(#9)",
              "7(b13)",
              "7(b9)",
              "7(13)",
              "7#11",
              "7(9)",
              "7b5",
              "7sus4",
              "7th",
              "dim7",
              "dim",
              "minMaj7(9)",
              "minMaj7",
              "min7(11)",
              "min7(9)",
              "m7b5",
              "min7",
              "aug",
              "Maj7#11"
            ],
            "autoStart": false,
            "sourceChordNote": 0,
            "sourceChordType": "Maj",
            "ctb2Low": null,
            "ctb2Main": {
              "ntr": "ROOT_TRANSPOSITION",
              "ntt": "MELODIC_MINOR",
              "bassOn": false,
              "chordRootUpperLimit": 4,
              "noteLowLimit": 54,
              "noteHighLimit": 127,
              "rtr": "PITCH_SHIFT"
            },
            "ctb2High": null
          },
          "notes": [
            {
              "pitch": 57,
              "velocity": 80,
              "position": 1,
              "duration": 0.40625
            },
            {
              "pitch": 62,
              "velocity": 60,
              "position": 1,
              "duration": 0.40625
            },
            {
              "pitch": 67,
              "velocity": 80,
              "position": 1,
              "duration": 0.40625
            },
            {
              "pitch": 57,
              "velocity": 80,
              "position": 3,
              "duration": 0.40625
            },
            {
              "pitch": 62,
              "velocity": 60,
              "position": 3,
              "duration": 0.40625
            },
            {
              "pitch": 67,
              "velocity": 80,
              "position": 3,
              "duration": 0.40625
            },
            {
              "pitch": 57,
              "velocity": 80,
              "position": 5,
              "duration": 0.40625
            },
            {
              "pitch": 62,
              "velocity": 60,
              "position": 5,
              "duration": 0.40625
            },
            {
              "pitch": 67,
              "velocity": 80,
              "position": 5,
              "duration": 0.40625
            },
            {
              "pitch": 57,
              "velocity": 80,
              "position": 7,
              "duration": 0.40625
            },
            {
              "pitch": 62,
              "velocity": 60,
              "position": 7,
              "duration": 0.40625
            },
            {
              "pitch": 67,
              "velocity": 80,
              "position": 7,
              "duration": 0.40625
            },
            {
              "pitch": 57,
              "velocity": 80,
              "position": 9,
              "duration": 0.40625
            },
            {
              "pitch": 62,
              "velocity": 60,
              "position": 9,
              "duration": 0.40625
            },
            {
              "pitch": 67,
              "velocity": 80,
              "position": 9,
              "duration": 0.40625
            },
            {
              "pitch": 57,
              "velocity": 80,
              "position": 11,
              "duration": 0.40625
            },
            {
              "pitch": 62,
              "velocity": 60,
              "position": 11,
              "duration": 0.40625
            },
            {
              "pitch": 67,
              "velocity": 80,
              "position": 11,
              "duration": 0.40625
            },
            {
              "pitch": 57,
              "velocity": 80,
              "position": 13,
              "duration": 0.40625
            },
            {
              "pitch": 62,
              "velocity": 60,
              "position": 13,
              "duration": 0.40625
            },
            {
              "pitch": 67,
              "velocity": 80,
              "position": 13,
              "duration": 0.40625
            },
            {
              "pitch": 57,
              "velocity": 80,
              "position": 15,
              "duration": 0.40625
            },
            {
              "pitch": 62,
              "velocity": 60,
              "position": 15,
              "duration": 0.40625
            },
            {
              "pitch": 67,
              "velocity": 80,
              "position": 15,
              "duration": 0.40625
            }
          ]
        },
        "12": {
          "ctab": {
            "srcChannel": 12,
            "name": "Pno",
            "accType": "CHORD2",
            "editable": false,
            "mutedNotes": [],
            "mutedChords": [
              "1+2+5",
              "sus4",
              "1+5",
              "1+8",
              "7aug",
              "Maj7aug",
              "7(#9)",
              "7(b13)",
              "7(b9)",
              "7(13)",
              "7#11",
              "7(9)",
              "7b5",
              "7sus4",
              "7th",
              "dim7",
              "dim",
              "minMaj7(9)",
              "minMaj7",
              "min7(11)",
              "min7(9)",
              "m7b5",
              "min7",
              "aug",
              "Maj7#11"
            ],
            "autoStart": false,
            "sourceChordNote": 0,
            "sourceChordType": "Maj",
            "ctb2Low": null,
            "ctb2Main": {
              "ntr": "ROOT_TRANSPOSITION",
              "ntt": "MELODIC_MINOR",
              "bassOn": false,
              "chordRootUpperLimit": 8,
              "noteLowLimit": 58,
              "noteHighLimit": 69,
              "rtr": "PITCH_SHIFT"
            },
            "ctb2High": null
          },
          "notes": [
            {
              "pitch": 57,
              "velocity": 80,
              "position": 0,
              "duration": 0.2708333333333333
            },
            {
              "pitch": 60,
              "velocity": 80,
              "position": 0,
              "duration": 0.2708333333333333
            },
            {
              "pitch": 64,
              "velocity": 80,
              "position": 0,
              "duration": 0.2708333333333333
            },
            {
              "pitch": 67,
              "velocity": 80,
              "position": 0,
              "duration": 0.2708333333333333
            },
            {
              "pitch": 57,
              "velocity": 80,
              "position": 6.666666666666667,
              "duration": 0.2708333333333333
            },
            {
              "pitch": 60,
              "velocity": 80,
              "position": 6.666666666666667,
              "duration": 0.2708333333333333
            },
            {
              "pitch": 64,
              "velocity": 80,
              "position": 6.666666666666667,
              "duration": 0.2708333333333333
            },
            {
              "pitch": 67,
              "velocity": 80,
              "position": 6.666666666666667,
              "duration": 0.2708333333333333
            },
            {
              "pitch": 57,
              "velocity": 80,
              "position": 8,
              "duration": 0.2708333333333333
            },
            {
              "pitch": 60,
              "velocity": 80,
              "position": 8,
              "duration": 0.2708333333333333
            },
            {
              "pitch": 64,
              "velocity": 80,
              "position": 8,
              "duration": 0.2708333333333333
            },
            {
              "pitch": 67,
              "velocity": 80,
              "position": 8,
              "duration": 0.2708333333333333
            },
            {
              "pitch": 57,
              "velocity": 80,
              "position": 14.666666666666666,
              "duration": 0.2708333333333333
            },
            {
              "pitch": 60,
              "velocity": 80,
              "position": 14.666666666666666,
              "duration": 0.2708333333333333
            },
            {
              "pitch": 64,
              "velocity": 80,
              "position": 14.666666666666666,
              "duration": 0.2708333333333333
            },
            {
              "pitch": 67,
              "velocity": 80,
              "position": 14.666666666666666,
              "duration": 0.2708333333333333
            }
          ]
        },
        "13": {
          "ctab": {
            "srcChannel": 13,
            "name": "Sax",
            "accType": "PAD",
            "editable": false,
            "mutedNotes": [],
            "mutedChords": [
              "1+2+5",
              "sus4",
              "1+5",
              "1+8",
              "7aug",
              "Maj7aug",
              "7(#9)",
              "7(b13)",
              "7(b9)",
              "7(13)",
              "7#11",
              "7(9)",
              "7b5",
              "7sus4",
              "7th",
              "dim7",
              "dim",
              "minMaj7(9)",
              "minMaj7",
              "min7(11)",
              "min7(9)",
              "m7b5",
              "min7",
              "aug",
              "Maj7#11"
            ],
            "autoStart": false,
            "sourceChordNote": 0,
            "sourceChordType": "Maj",
            "ctb2Low": null,
            "ctb2Main": {
              "ntr": "ROOT_TRANSPOSITION",
              "ntt": "MELODIC_MINOR",
              "bassOn": false,
              "chordRootUpperLimit": 8,
              "noteLowLimit": 55,
              "noteHighLimit": 66,
              "rtr": "PITCH_SHIFT"
            },
            "ctb2High": null
          },
          "notes": []
        },
        "15": {
          "ctab": {
            "srcChannel": 15,
            "name": "Tbn",
            "accType": "PHRASE2",
            "editable": false,
            "mutedNotes": [],
            "mutedChords": [
              "1+2+5",
              "sus4",
              "1+5",
              "1+8",
              "7aug",
              "Maj7aug",
              "7(#9)",
              "7(b13)",
              "7(b9)",
              "7(13)",
              "7#11",
              "7(9)",
              "7b5",
              "7sus4",
              "7th",
              "dim7",
              "dim",
              "minMaj7(9)",
              "minMaj7",
              "min7(11)",
              "min7(9)",
              "m7b5",
              "min7",
              "aug",
              "Maj7#11"
            ],
            "autoStart": false,
            "sourceChordNote": 0,
            "sourceChordType": "Maj",
            "ctb2Low": null,
            "ctb2Main": {
              "ntr": "ROOT_TRANSPOSITION",
              "ntt": "MELODIC_MINOR",
              "bassOn": false,
              "chordRootUpperLimit": 8,
              "noteLowLimit": 53,
              "noteHighLimit": 66,
              "rtr": "PITCH_SHIFT"
            },
            "ctb2High": null
          },
          "notes": [
            {
              "pitch": 55,
              "velocity": 90,
              "position": 2,
              "duration": 0.25
            },
            {
              "pitch": 57,
              "velocity": 90,
              "position": 2,
              "duration": 0.25
            },
            {
              "pitch": 60,
              "velocity": 90,
              "position": 2,
              "duration": 0.25
            },
            {
              "pitch": 64,
              "velocity": 90,
              "position": 2,
              "duration": 0.25
            },
            {
              "pitch": 55,
              "velocity": 90,
              "position": 4,
              "duration": 0.25
            },
            {
              "pitch": 57,
              "velocity": 90,
              "position": 4,
              "duration": 0.25
            },
            {
              "pitch": 60,
              "velocity": 90,
              "position": 4,
              "duration": 0.25
            },
            {
              "pitch": 64,
              "velocity": 90,
              "position": 4,
              "duration": 0.25
            },
            {
              "pitch": 55,
              "velocity": 90,
              "position": 5.666666666666667,
              "duration": 0.25
            },
            {
              "pitch": 57,
              "velocity": 90,
              "position": 5.666666666666667,
              "duration": 0.25
            },
            {
              "pitch": 60,
              "velocity": 90,
              "position": 5.666666666666667,
              "duration": 0.25
            },
            {
              "pitch": 64,
              "velocity": 90,
              "position": 5.666666666666667,
              "duration": 0.25
            },
            {
              "pitch": 55,
              "velocity": 60,
              "position": 10,
              "duration": 0.65625
            },
            {
              "pitch": 57,
              "velocity": 60,
              "position": 10,
              "duration": 0.65625
            },
            {
              "pitch": 60,
              "velocity": 60,
              "position": 10,
              "duration": 0.65625
            },
            {
              "pitch": 64,
              "velocity": 60,
              "position": 10,
              "duration": 0.65625
            },
            {
              "pitch": 55,
              "velocity": 90,
              "position": 10.666666666666666,
              "duration": 0.25
            },
            {
              "pitch": 57,
              "velocity": 90,
              "position": 10.666666666666666,
              "duration": 0.25
            },
            {
              "pitch": 60,
              "velocity": 90,
              "position": 10.666666666666666,
              "duration": 0.25
            },
            {
              "pitch": 64,
              "velocity": 90,
              "position": 10.666666666666666,
              "duration": 0.25
            },
            {
              "pitch": 55,
              "velocity": 90,
              "position": 12,
              "duration": 0.25
            },
            {
              "pitch": 57,
              "velocity": 90,
              "position": 12,
              "duration": 0.25
            },
            {
              "pitch": 60,
              "velocity": 90,
              "position": 12,
              "duration": 0.25
            },
            {
              "pitch": 64,
              "velocity": 90,
              "position": 12,
              "duration": 0.25
            },
            {
              "pitch": 55,
              "velocity": 90,
              "position": 13.666666666666666,
              "duration": 0.25
            },
            {
              "pitch": 57,
              "velocity": 90,
              "position": 13.666666666666666,
              "duration": 0.25
            },
            {
              "pitch": 60,
              "velocity": 90,
              "position": 13.666666666666666,
              "duration": 0.25
            },
            {
              "pitch": 64,
              "velocity": 90,
              "position": 13.666666666666666,
              "duration": 0.25
            }
          ]
        }
      }
    },
    "Main_B": {
      "type": "Main_B",
      "sizeInBeats": 16,
      "channels": {
        "0": {
          "ctab": {
            "srcChannel": 0,
            "name": "CC_Crash",
            "accType": "RHYTHM",
            "editable": false,
            "mutedNotes": [],
            "mutedChords": [
              "1+2+5",
              "sus4",
              "1+5",
              "1+8",
              "7aug",
              "Maj7aug",
              "7(#9)",
              "7(b13)",
              "7(b9)",
              "7(13)",
              "7#11",
              "7(9)",
              "7b5",
              "7sus4",
              "7th",
              "dim7",
              "dim",
              "minMaj7(9)",
              "minMaj7",
              "min7(11)",
              "min7(9)",
              "min(9)",
              "m7b5",
              "min7",
              "min6",
              "min",
              "aug",
              "Maj6(9)",
              "Maj7(9)",
              "Maj(9)",
              "Maj7#11",
              "Maj7",
              "Maj6",
              "Maj"
            ],
            "autoStart": true,
            "sourceChordNote": 0,
            "sourceChordType": "Maj",
            "ctb2Low": null,
            "ctb2Main": {
              "ntr": "ROOT_FIXED",
              "ntt": "BYPASS",
              "bassOn": false,
              "chordRootUpperLimit": 0,
              "noteLowLimit": 0,
              "noteHighLimit": 127,
              "rtr": "RETRIGGER"
            },
            "ctb2High": null
          },
          "notes": []
        },
        "2": {
          "ctab": {
            "srcChannel": 2,
            "name": "Gt",
            "accType": "CHORD1",
            "editable": false,
            "mutedNotes": [],
            "mutedChords": [
              "min(9)",
              "min6",
              "min",
              "Maj6(9)",
              "Maj7(9)",
              "Maj(9)",
              "Maj7",
              "Maj6",
              "Maj"
            ],
            "autoStart": false,
            "sourceChordNote": 0,
            "sourceChordType": "Maj7",
            "ctb2Low": null,
            "ctb2Main": {
              "ntr": "ROOT_FIXED",
              "ntt": "CHORD",
              "bassOn": false,
              "chordRootUpperLimit": 8,
              "noteLowLimit": 0,
              "noteHighLimit": 127,
              "rtr": "PITCH_SHIFT"
            },
            "ctb2High": null
          },
          "notes": [
            {
              "pitch": 55,
              "velocity": 67,
              "position": 0,
              "duration": 0.40625
            },
            {
              "pitch": 59,
              "velocity": 67,
              "position": 0,
              "duration": 0.40625
            },
            {
              "pitch": 64,
              "velocity": 67,
              "position": 0,
              "duration": 0.40625
            },
            {
              "pitch": 55,
              "velocity": 96,
              "position": 1,
              "duration": 0.40625
            },
            {
              "pitch": 59,
              "velocity": 96,
              "position": 1,
              "duration": 0.40625
            },
            {
              "pitch": 64,
              "velocity": 96,
              "position": 1,
              "duration": 0.40625
            },
            {
              "pitch": 55,
              "velocity": 67,
              "position": 2,
              "duration": 0.40625
            },
            {
              "pitch": 59,
              "velocity": 67,
              "position": 2,
              "duration": 0.40625
            },
            {
              "pitch": 64,
              "velocity": 67,
              "position": 2,
              "duration": 0.40625
            },
            {
              "pitch": 55,
              "velocity": 96,
              "position": 3,
              "duration": 0.40625
            },
            {
              "pitch": 59,
              "velocity": 96,
              "position": 3,
              "duration": 0.40625
            },
            {
              "pitch": 64,
              "velocity": 96,
              "position": 3,
              "duration": 0.40625
            },
            {
              "pitch": 55,
              "velocity": 67,
              "position": 4,
              "duration": 0.40625
            },
            {
              "pitch": 59,
              "velocity": 67,
              "position": 4,
              "duration": 0.40625
            },
            {
              "pitch": 64,
              "velocity": 67,
              "position": 4,
              "duration": 0.40625
            },
            {
              "pitch": 55,
              "velocity": 96,
              "position": 5,
              "duration": 0.40625
            },
            {
              "pitch": 59,
              "velocity": 96,
              "position": 5,
              "duration": 0.40625
            },
            {
              "pitch": 64,
              "velocity": 96,
              "position": 5,
              "duration": 0.40625
            },
            {
              "pitch": 55,
              "velocity": 67,
              "position": 6,
              "duration": 0.40625
            },
            {
              "pitch": 59,
              "velocity": 67,
              "position": 6,
              "duration": 0.40625
            },
            {
              "pitch": 64,
              "velocity": 67,
              "position": 6,
              "duration": 0.40625
            },
            {
              "pitch": 55,
              "velocity": 96,
              "position": 7,
              "duration": 0.40625
            },
            {
              "pitch": 59,
              "velocity": 96,
              "position": 7,
              "duration": 0.40625
            },
            {
              "pitch": 64,
              "velocity": 96,
              "position": 7,
              "duration": 0.40625
            },
            {
              "pitch": 55,
              "velocity": 67,
              "position": 8,
              "duration": 0.40625
            },
            {
              "pitch": 59,
              "velocity": 67,
              "position": 8,
              "duration": 0.40625
            },
            {
              "pitch": 64,
              "velocity": 67,
              "position": 8,
              "duration": 0.40625
            },
            {
              "pitch": 55,
              "velocity": 96,
              "position": 9,
              "duration": 0.40625
            },
            {
              "pitch": 59,
              "velocity": 96,
              "position": 9,
              "duration": 0.40625
            },
            {
              "pitch": 64,
              "velocity": 96,
              "position": 9,
              "duration": 0.40625
            },
            {
              "pitch": 55,
              "velocity": 67,
              "position": 10,
              "duration": 0.40625
            },
            {
              "pitch": 59,
              "velocity": 67,
              "position": 10,
              "duration": 0.40625
            },
            {
              "pitch": 64,
              "velocity": 67,
              "position": 10,
              "duration": 0.40625
            },
            {
              "pitch": 55,
              "velocity": 96,
              "position": 11,
              "duration": 0.40625
            },
            {
              "pitch": 59,
              "velocity": 96,
              "position": 11,
              "duration": 0.40625
            },
            {
              "pitch": 64,
              "velocity": 96,
              "position": 11,
              "duration": 0.40625
            },
            {
              "pitch": 55,
              "velocity": 67,
              "position": 12,
              "duration": 0.40625
            },
            {
              "pitch": 59,
              "velocity": 67,
              "position": 12,
              "duration": 0.40625
            },
            {
              "pitch": 64,
              "velocity": 67,
              "position": 12,
              "duration": 0.40625
            },
            {
              "pitch": 55,
              "velocity": 96,
              "position": 13,
              "duration": 0.40625
            },
            {
              "pitch": 59,
              "velocity": 96,
              "position": 13,
              "duration": 0.40625
            },
            {
              "pitch": 64,
              "velocity": 96,
              "position": 13,
              "duration": 0.40625
            },
            {
              "pitch": 55,
              "velocity": 67,
              "position": 14,
              "duration": 0.40625
            },
            {
              "pitch": 59,
              "velocity": 67,
              "position": 14,
              "duration": 0.40625
            },
            {
              "pitch": 64,
              "velocity": 67,
              "position": 14,
              "duration": 0.40625
            },
            {
              "pitch": 55,
              "velocity": 96,
              "position": 15,
              "duration": 0.40625
            },
            {
              "pitch": 59,
              "velocity": 96,
              "position": 15,
              "duration": 0.40625
            },
            {
              "pitch": 64,
              "velocity": 96,
              "position": 15,
              "duration": 0.40625
            }
          ]
        },
        "3": {
          "ctab": {
            "srcChannel": 3,
            "name": "Pno",
            "accType": "CHORD2",
            "editable": false,
            "mutedNotes": [],
            "mutedChords": [
              "min(9)",
              "min6",
              "min",
              "Maj6(9)",
              "Maj7(9)",
              "Maj(9)",
              "Maj7",
              "Maj6",
              "Maj"
            ],
            "autoStart": false,
            "sourceChordNote": 0,
            "sourceChordType": "Maj7",
            "ctb2Low": null,
            "ctb2Main": {
              "ntr": "ROOT_FIXED",
              "ntt": "CHORD",
              "bassOn": false,
              "chordRootUpperLimit": 8,
              "noteLowLimit": 0,
              "noteHighLimit": 127,
              "rtr": "PITCH_SHIFT"
            },
            "ctb2High": null
          },
          "notes": [
            {
              "pitch": 59,
              "velocity": 101,
              "position": 0,
              "duration": 0.23958333333333334
            },
            {
              "pitch": 64,
              "velocity": 101,
              "position": 0,
              "duration": 0.23958333333333334
            },
            {
              "pitch": 67,
              "velocity": 101,
              "position": 0,
              "duration": 0.23958333333333334
            },
            {
              "pitch": 59,
              "velocity": 101,
              "position": 6.666666666666667,
              "duration": 0.23958333333333334
            },
            {
              "pitch": 64,
              "velocity": 101,
              "position": 6.666666666666667,
              "duration": 0.23958333333333334
            },
            {
              "pitch": 67,
              "velocity": 101,
              "position": 6.666666666666667,
              "duration": 0.23958333333333334
            },
            {
              "pitch": 59,
              "velocity": 101,
              "position": 8,
              "duration": 0.23958333333333334
            },
            {
              "pitch": 64,
              "velocity": 101,
              "position": 8,
              "duration": 0.23958333333333334
            },
            {
              "pitch": 67,
              "velocity": 101,
              "position": 8,
              "duration": 0.23958333333333334
            },
            {
              "pitch": 76,
              "velocity": 101,
              "position": 14.666666666666666,
              "duration": 0.65625
            },
            {
              "pitch": 71,
              "velocity": 64,
              "position": 15.333333333333334,
              "duration": 0.23958333333333334
            },
            {
              "pitch": 67,
              "velocity": 74,
              "position": 15.666666666666666,
              "duration": 0.23958333333333334
            }
          ]
        },
        "4": {
          "ctab": {
            "srcChannel": 4,
            "name": "Sax",
            "accType": "PAD",
            "editable": false,
            "mutedNotes": [],
            "mutedChords": [
              "min(9)",
              "min6",
              "min",
              "Maj6(9)",
              "Maj7(9)",
              "Maj(9)",
              "Maj7",
              "Maj6",
              "Maj"
            ],
            "autoStart": false,
            "sourceChordNote": 0,
            "sourceChordType": "Maj7",
            "ctb2Low": null,
            "ctb2Main": {
              "ntr": "ROOT_FIXED",
              "ntt": "CHORD",
              "bassOn": false,
              "chordRootUpperLimit": 8,
              "noteLowLimit": 0,
              "noteHighLimit": 127,
              "rtr": "PITCH_SHIFT"
            },
            "ctb2High": null
          },
          "notes": [
            {
              "pitch": 55,
              "velocity": 64,
              "position": 0.010416666666666666,
              "duration": 6.645833333333333
            },
            {
              "pitch": 59,
              "velocity": 64,
              "position": 0.010416666666666666,
              "duration": 6.645833333333333
            },
            {
              "pitch": 64,
              "velocity": 64,
              "position": 0.010416666666666666,
              "duration": 6.645833333333333
            },
            {
              "pitch": 55,
              "velocity": 64,
              "position": 6.666666666666667,
              "duration": 1.3229166666666667
            },
            {
              "pitch": 59,
              "velocity": 64,
              "position": 6.666666666666667,
              "duration": 1.3229166666666667
            },
            {
              "pitch": 64,
              "velocity": 64,
              "position": 6.666666666666667,
              "duration": 1.3229166666666667
            }
          ]
        },
        "6": {
          "ctab": {
            "srcChannel": 6,
            "name": "Tbn",
            "accType": "PHRASE2",
            "editable": false,
            "mutedNotes": [],
            "mutedChords": [
              "min(9)",
              "min6",
              "min",
              "Maj6(9)",
              "Maj7(9)",
              "Maj(9)",
              "Maj7",
              "Maj6",
              "Maj"
            ],
            "autoStart": false,
            "sourceChordNote": 0,
            "sourceChordType": "Maj7",
            "ctb2Low": null,
            "ctb2Main": {
              "ntr": "ROOT_FIXED",
              "ntt": "CHORD",
              "bassOn": false,
              "chordRootUpperLimit": 8,
              "noteLowLimit": 0,
              "noteHighLimit": 127,
              "rtr": "PITCH_SHIFT"
            },
            "ctb2High": null
          },
          "notes": [
            {
              "pitch": 55,
              "velocity": 112,
              "position": 0.6666666666666666,
              "duration": 0.28125
            },
            {
              "pitch": 59,
              "velocity": 112,
              "position": 0.6666666666666666,
              "duration": 0.28125
            },
            {
              "pitch": 64,
              "velocity": 112,
              "position": 0.6666666666666666,
              "duration": 0.28125
            },
            {
              "pitch": 55,
              "velocity": 112,
              "position": 2,
              "duration": 0.28125
            },
            {
              "pitch": 59,
              "velocity": 112,
              "position": 2,
              "duration": 0.28125
            },
            {
              "pitch": 64,
              "velocity": 112,
              "position": 2,
              "duration": 0.28125
            },
            {
              "pitch": 55,
              "velocity": 112,
              "position": 4,
              "duration": 0.28125
            },
            {
              "pitch": 59,
              "velocity": 112,
              "position": 4,
              "duration": 0.28125
            },
            {
              "pitch": 64,
              "velocity": 112,
              "position": 4,
              "duration": 0.28125
            },
            {
              "pitch": 55,
              "velocity": 112,
              "position": 5.666666666666667,
              "duration": 0.28125
            },
            {
              "pitch": 59,
              "velocity": 112,
              "position": 5.666666666666667,
              "duration": 0.28125
            },
            {
              "pitch": 64,
              "velocity": 112,
              "position": 5.666666666666667,
              "duration": 0.28125
            },
            {
              "pitch": 55,
              "velocity": 112,
              "position": 8.666666666666666,
              "duration": 0.28125
            },
            {
              "pitch": 59,
              "velocity": 112,
              "position": 8.666666666666666,
              "duration": 0.28125
            },
            {
              "pitch": 64,
              "velocity": 112,
              "position": 8.666666666666666,
              "duration": 0.28125
            },
            {
              "pitch": 55,
              "velocity": 80,
              "position": 10,
              "duration": 0.65625
            },
            {
              "pitch": 59,
              "velocity": 80,
              "position": 10,
              "duration": 0.65625
            },
            {
              "pitch": 64,
              "velocity": 80,
              "position": 10,
              "duration": 0.65625
            },
            {
              "pitch": 55,
              "velocity": 112,
              "position": 10.666666666666666,
              "duration": 0.28125
            },
            {
              "pitch": 59,
              "velocity": 112,
              "position": 10.666666666666666,
              "duration": 0.28125
            },
            {
              "pitch": 64,
              "velocity": 112,
              "position": 10.666666666666666,
              "duration": 0.28125
            },
            {
              "pitch": 55,
              "velocity": 112,
              "position": 12,
              "duration": 0.28125
            },
            {
              "pitch": 59,
              "velocity": 112,
              "position": 12,
              "duration": 0.28125
            },
            {
              "pitch": 64,
              "velocity": 112,
              "position": 12,
              "duration": 0.28125
            },
            {
              "pitch": 55,
              "velocity": 112,
              "position": 13.666666666666666,
              "duration": 0.28125
            },
            {
              "pitch": 59,
              "velocity": 112,
              "position": 13.666666666666666,
              "duration": 0.28125
            },
            {
              "pitch": 64,
              "velocity": 112,
              "position": 13.666666666666666,
              "duration": 0.28125
            }
          ]
        },
        "9": {
          "ctab": {
            "srcChannel": 9,
            "name": "Drs",
            "accType": "RHYTHM",
            "editable": false,
            "mutedNotes": [],
            "mutedChords": [],
            "autoStart": true,
            "sourceChordNote": 0,
            "sourceChordType": "Maj7",
            "ctb2Low": null,
            "ctb2Main": {
              "ntr": "ROOT_FIXED",
              "ntt": "BYPASS",
              "bassOn": false,
              "chordRootUpperLimit": 6,
              "noteLowLimit": 0,
              "noteHighLimit": 127,
              "rtr": "PITCH_SHIFT"
            },
            "ctb2High": null
          },
          "notes": [
            {
              "pitch": 25,
              "velocity": 40,
              "position": 0,
              "duration": 0.010416666666666666
            },
            {
              "pitch": 35,
              "velocity": 74,
              "position": 0,
              "duration": 0.010416666666666666
            },
            {
              "pitch": 46,
              "velocity": 36,
              "position": 0,
              "duration": 0.010416666666666666
            },
            {
              "pitch": 28,
              "velocity": 23,
              "position": 0,
              "duration": 0.9895833333333334
            },
            {
              "pitch": 25,
              "velocity": 120,
              "position": 1,
              "duration": 0.010416666666666666
            },
            {
              "pitch": 44,
              "velocity": 52,
              "position": 1,
              "duration": 0.010416666666666666
            },
            {
              "pitch": 46,
              "velocity": 19,
              "position": 1.6875,
              "duration": 0.010416666666666666
            },
            {
              "pitch": 26,
              "velocity": 17,
              "position": 1,
              "duration": 0.9895833333333334
            },
            {
              "pitch": 25,
              "velocity": 40,
              "position": 2,
              "duration": 0.010416666666666666
            },
            {
              "pitch": 35,
              "velocity": 74,
              "position": 2,
              "duration": 0.010416666666666666
            },
            {
              "pitch": 46,
              "velocity": 36,
              "position": 2,
              "duration": 0.010416666666666666
            },
            {
              "pitch": 28,
              "velocity": 23,
              "position": 2,
              "duration": 0.9895833333333334
            },
            {
              "pitch": 25,
              "velocity": 120,
              "position": 3,
              "duration": 0.010416666666666666
            },
            {
              "pitch": 44,
              "velocity": 52,
              "position": 3,
              "duration": 0.010416666666666666
            },
            {
              "pitch": 46,
              "velocity": 19,
              "position": 3.6875,
              "duration": 0.010416666666666666
            },
            {
              "pitch": 26,
              "velocity": 17,
              "position": 3,
              "duration": 0.9895833333333334
            },
            {
              "pitch": 25,
              "velocity": 40,
              "position": 4,
              "duration": 0.010416666666666666
            },
            {
              "pitch": 35,
              "velocity": 74,
              "position": 4,
              "duration": 0.010416666666666666
            },
            {
              "pitch": 46,
              "velocity": 36,
              "position": 4,
              "duration": 0.010416666666666666
            },
            {
              "pitch": 28,
              "velocity": 23,
              "position": 4,
              "duration": 0.9895833333333334
            },
            {
              "pitch": 25,
              "velocity": 120,
              "position": 5,
              "duration": 0.010416666666666666
            },
            {
              "pitch": 44,
              "velocity": 52,
              "position": 5,
              "duration": 0.010416666666666666
            },
            {
              "pitch": 46,
              "velocity": 19,
              "position": 5.6875,
              "duration": 0.010416666666666666
            },
            {
              "pitch": 26,
              "velocity": 17,
              "position": 5,
              "duration": 0.9895833333333334
            },
            {
              "pitch": 25,
              "velocity": 40,
              "position": 6,
              "duration": 0.010416666666666666
            },
            {
              "pitch": 35,
              "velocity": 74,
              "position": 6,
              "duration": 0.010416666666666666
            },
            {
              "pitch": 46,
              "velocity": 36,
              "position": 6,
              "duration": 0.010416666666666666
            },
            {
              "pitch": 28,
              "velocity": 23,
              "position": 6,
              "duration": 0.9895833333333334
            },
            {
              "pitch": 25,
              "velocity": 120,
              "position": 7,
              "duration": 0.010416666666666666
            },
            {
              "pitch": 44,
              "velocity": 52,
              "position": 7,
              "duration": 0.010416666666666666
            },
            {
              "pitch": 46,
              "velocity": 19,
              "position": 7.6875,
              "duration": 0.010416666666666666
            },
            {
              "pitch": 26,
              "velocity": 17,
              "position": 7,
              "duration": 0.9895833333333334
            },
            {
              "pitch": 25,
              "velocity": 40,
              "position": 8,
              "duration": 0.010416666666666666
            },
            {
              "pitch": 35,
              "velocity": 74,
              "position": 8,
              "duration": 0.010416666666666666
            },
            {
              "pitch": 46,
              "velocity": 36,
              "position": 8,
              "duration": 0.010416666666666666
            },
            {
              "pitch": 28,
              "velocity": 23,
              "position": 8,
              "duration": 0.9895833333333334
            },
            {
              "pitch": 25,
              "velocity": 120,
              "position": 9,
              "duration": 0.010416666666666666
            },
            {
              "pitch": 44,
              "velocity": 52,
              "position": 9,
              "duration": 0.010416666666666666
            },
            {
              "pitch": 46,
              "velocity": 19,
              "position": 9.6875,
              "duration": 0.010416666666666666
            },
            {
              "pitch": 26,
              "velocity": 17,
              "position": 9,
              "duration": 0.9895833333333334
            },
            {
              "pitch": 25,
              "velocity": 40,
              "position": 10,
              "duration": 0.010416666666666666
            },
            {
              "pitch": 35,
              "velocity": 74,
              "position": 10,
              "duration": 0.010416666666666666
            },
            {
              "pitch": 46,
              "velocity": 36,
              "position": 10,
              "duration": 0.010416666666666666
            },
            {
              "pitch": 28,
              "velocity": 23,
              "position": 10,
              "duration": 0.9895833333333334
            },
            {
              "pitch": 25,
              "velocity": 120,
              "position": 11,
              "duration": 0.010416666666666666
            },
            {
              "pitch": 44,
              "velocity": 52,
              "position": 11,
              "duration": 0.010416666666666666
            },
            {
              "pitch": 46,
              "velocity": 19,
              "position": 11.6875,
              "duration": 0.010416666666666666
            },
            {
              "pitch": 26,
              "velocity": 17,
              "position": 11,
              "duration": 0.9895833333333334
            },
            {
              "pitch": 25,
              "velocity": 40,
              "position": 12,
              "duration": 0.010416666666666666
            },
            {
              "pitch": 35,
              "velocity": 74,
              "position": 12,
              "duration": 0.010416666666666666
            },
            {
              "pitch": 46,
              "velocity": 36,
              "position": 12,
              "duration": 0.010416666666666666
            },
            {
              "pitch": 28,
              "velocity": 23,
              "position": 12,
              "duration": 0.9895833333333334
            },
            {
              "pitch": 25,
              "velocity": 120,
              "position": 13,
              "duration": 0.010416666666666666
            },
            {
              "pitch": 44,
              "velocity": 52,
              "position": 13,
              "duration": 0.010416666666666666
            },
            {
              "pitch": 46,
              "velocity": 19,
              "position": 13.6875,
              "duration": 0.010416666666666666
            },
            {
              "pitch": 26,
              "velocity": 17,
              "position": 13,
              "duration": 0.9895833333333334
            },
            {
              "pitch": 25,
              "velocity": 40,
              "position": 14,
              "duration": 0.010416666666666666
            },
            {
              "pitch": 35,
              "velocity": 74,
              "position": 14,
              "duration": 0.010416666666666666
            },
            {
              "pitch": 46,
              "velocity": 36,
              "position": 14,
              "duration": 0.010416666666666666
            },
            {
              "pitch": 28,
              "velocity": 23,
              "position": 14,
              "duration": 0.9895833333333334
            },
            {
              "pitch": 25,
              "velocity": 120,
              "position": 15,
              "duration": 0.010416666666666666
            },
            {
              "pitch": 44,
              "velocity": 52,
              "position": 15,
              "duration": 0.010416666666666666
            },
            {
              "pitch": 46,
              "velocity": 19,
              "position": 15.6875,
              "duration": 0.010416666666666666
            },
            {
              "pitch": 26,
              "velocity": 17,
              "position": 15,
              "duration": 0.9895833333333334
            }
          ]
        },
        "10": {
          "ctab": {
            "srcChannel": 10,
            "name": "Bass",
            "accType": "BASS",
            "editable": false,
            "mutedNotes": [],
            "mutedChords": [],
            "autoStart": false,
            "sourceChordNote": 0,
            "sourceChordType": "Maj",
            "ctb2Low": null,
            "ctb2Main": {
              "ntr": "ROOT_TRANSPOSITION",
              "ntt": "MELODY",
              "bassOn": true,
              "chordRootUpperLimit": 8,
              "noteLowLimit": 28,
              "noteHighLimit": 127,
              "rtr": "PITCH_SHIFT_TO_ROOT"
            },
            "ctb2High": null
          },
          "notes": [
            {
              "pitch": 24,
              "velocity": 80,
              "position": 0,
              "duration": 1.3229166666666667
            },
            {
              "pitch": 24,
              "velocity": 106,
              "position": 1.6666666666666667,
              "duration": 0.13541666666666666
            },
            {
              "pitch": 31,
              "velocity": 80,
              "position": 2,
              "duration": 1.3229166666666667
            },
            {
              "pitch": 31,
              "velocity": 106,
              "position": 3.6666666666666665,
              "duration": 0.13541666666666666
            },
            {
              "pitch": 24,
              "velocity": 80,
              "position": 4,
              "duration": 1.3229166666666667
            },
            {
              "pitch": 24,
              "velocity": 106,
              "position": 5.666666666666667,
              "duration": 0.13541666666666666
            },
            {
              "pitch": 31,
              "velocity": 80,
              "position": 6,
              "duration": 1.3229166666666667
            },
            {
              "pitch": 31,
              "velocity": 106,
              "position": 7.666666666666667,
              "duration": 0.13541666666666666
            },
            {
              "pitch": 24,
              "velocity": 80,
              "position": 8,
              "duration": 1.3229166666666667
            },
            {
              "pitch": 24,
              "velocity": 106,
              "position": 9.666666666666666,
              "duration": 0.13541666666666666
            },
            {
              "pitch": 31,
              "velocity": 80,
              "position": 10,
              "duration": 1.3229166666666667
            },
            {
              "pitch": 31,
              "velocity": 106,
              "position": 11.666666666666666,
              "duration": 0.13541666666666666
            },
            {
              "pitch": 24,
              "velocity": 80,
              "position": 12,
              "duration": 1.3229166666666667
            },
            {
              "pitch": 24,
              "velocity": 106,
              "position": 13.666666666666666,
              "duration": 0.13541666666666666
            },
            {
              "pitch": 31,
              "velocity": 80,
              "position": 14,
              "duration": 1.3229166666666667
            },
            {
              "pitch": 31,
              "velocity": 106,
              "position": 15.666666666666666,
              "duration": 0.13541666666666666
            }
          ]
        },
        "11": {
          "ctab": {
            "srcChannel": 11,
            "name": "Gt",
            "accType": "CHORD1",
            "editable": false,
            "mutedNotes": [],
            "mutedChords": [
              "1+2+5",
              "sus4",
              "1+5",
              "1+8",
              "7aug",
              "Maj7aug",
              "7(#9)",
              "7(b13)",
              "7(b9)",
              "7(13)",
              "7#11",
              "7(9)",
              "7b5",
              "7sus4",
              "7th",
              "dim7",
              "dim",
              "minMaj7(9)",
              "minMaj7",
              "min7(11)",
              "min7(9)",
              "m7b5",
              "min7",
              "aug",
              "Maj7#11"
            ],
            "autoStart": false,
            "sourceChordNote": 0,
            "sourceChordType": "Maj",
            "ctb2Low": null,
            "ctb2Main": {
              "ntr": "ROOT_TRANSPOSITION",
              "ntt": "MELODIC_MINOR",
              "bassOn": false,
              "chordRootUpperLimit": 4,
              "noteLowLimit": 54,
              "noteHighLimit": 127,
              "rtr": "PITCH_SHIFT"
            },
            "ctb2High": null
          },
          "notes": [
            {
              "pitch": 57,
              "velocity": 67,
              "position": 0,
              "duration": 0.40625
            },
            {
              "pitch": 62,
              "velocity": 50,
              "position": 0,
              "duration": 0.40625
            },
            {
              "pitch": 67,
              "velocity": 67,
              "position": 0,
              "duration": 0.40625
            },
            {
              "pitch": 57,
              "velocity": 96,
              "position": 1,
              "duration": 0.40625
            },
            {
              "pitch": 62,
              "velocity": 69,
              "position": 1,
              "duration": 0.40625
            },
            {
              "pitch": 67,
              "velocity": 96,
              "position": 1,
              "duration": 0.40625
            },
            {
              "pitch": 57,
              "velocity": 67,
              "position": 2,
              "duration": 0.40625
            },
            {
              "pitch": 62,
              "velocity": 50,
              "position": 2,
              "duration": 0.40625
            },
            {
              "pitch": 67,
              "velocity": 67,
              "position": 2,
              "duration": 0.40625
            },
            {
              "pitch": 57,
              "velocity": 96,
              "position": 3,
              "duration": 0.40625
            },
            {
              "pitch": 62,
              "velocity": 69,
              "position": 3,
              "duration": 0.40625
            },
            {
              "pitch": 67,
              "velocity": 96,
              "position": 3,
              "duration": 0.40625
            },
            {
              "pitch": 57,
              "velocity": 67,
              "position": 4,
              "duration": 0.40625
            },
            {
              "pitch": 62,
              "velocity": 50,
              "position": 4,
              "duration": 0.40625
            },
            {
              "pitch": 67,
              "velocity": 67,
              "position": 4,
              "duration": 0.40625
            },
            {
              "pitch": 57,
              "velocity": 96,
              "position": 5,
              "duration": 0.40625
            },
            {
              "pitch": 62,
              "velocity": 69,
              "position": 5,
              "duration": 0.40625
            },
            {
              "pitch": 67,
              "velocity": 96,
              "position": 5,
              "duration": 0.40625
            },
            {
              "pitch": 57,
              "velocity": 67,
              "position": 6,
              "duration": 0.40625
            },
            {
              "pitch": 62,
              "velocity": 50,
              "position": 6,
              "duration": 0.40625
            },
            {
              "pitch": 67,
              "velocity": 67,
              "position": 6,
              "duration": 0.40625
            },
            {
              "pitch": 57,
              "velocity": 96,
              "position": 7,
              "duration": 0.40625
            },
            {
              "pitch": 62,
              "velocity": 69,
              "position": 7,
              "duration": 0.40625
            },
            {
              "pitch": 67,
              "velocity": 96,
              "position": 7,
              "duration": 0.40625
            },
            {
              "pitch": 57,
              "velocity": 67,
              "position": 8,
              "duration": 0.40625
            },
            {
              "pitch": 62,
              "velocity": 50,
              "position": 8,
              "duration": 0.40625
            },
            {
              "pitch": 67,
              "velocity": 67,
              "position": 8,
              "duration": 0.40625
            },
            {
              "pitch": 57,
              "velocity": 96,
              "position": 9,
              "duration": 0.40625
            },
            {
              "pitch": 62,
              "velocity": 69,
              "position": 9,
              "duration": 0.40625
            },
            {
              "pitch": 67,
              "velocity": 96,
              "position": 9,
              "duration": 0.40625
            },
            {
              "pitch": 57,
              "velocity": 67,
              "position": 10,
              "duration": 0.40625
            },
            {
              "pitch": 62,
              "velocity": 50,
              "position": 10,
              "duration": 0.40625
            },
            {
              "pitch": 67,
              "velocity": 67,
              "position": 10,
              "duration": 0.40625
            },
            {
              "pitch": 57,
              "velocity": 96,
              "position": 11,
              "duration": 0.40625
            },
            {
              "pitch": 62,
              "velocity": 69,
              "position": 11,
              "duration": 0.40625
            },
            {
              "pitch": 67,
              "velocity": 96,
              "position": 11,
              "duration": 0.40625
            },
            {
              "pitch": 57,
              "velocity": 67,
              "position": 12,
              "duration": 0.40625
            },
            {
              "pitch": 62,
              "velocity": 50,
              "position": 12,
              "duration": 0.40625
            },
            {
              "pitch": 67,
              "velocity": 67,
              "position": 12,
              "duration": 0.40625
            },
            {
              "pitch": 57,
              "velocity": 96,
              "position": 13,
              "duration": 0.40625
            },
            {
              "pitch": 62,
              "velocity": 69,
              "position": 13,
              "duration": 0.40625
            },
            {
              "pitch": 67,
              "velocity": 96,
              "position": 13,
              "duration": 0.40625
            },
            {
              "pitch": 57,
              "velocity": 67,
              "position": 14,
              "duration": 0.40625
            },
            {
              "pitch": 62,
              "velocity": 50,
              "position": 14,
              "duration": 0.40625
            },
            {
              "pitch": 67,
              "velocity": 67,
              "position": 14,
              "duration": 0.40625
            },
            {
              "pitch": 57,
              "velocity": 96,
              "position": 15,
              "duration": 0.40625
            },
            {
              "pitch": 62,
              "velocity": 69,
              "position": 15,
              "duration": 0.40625
            },
            {
              "pitch": 67,
              "velocity": 96,
              "position": 15,
              "duration": 0.40625
            }
          ]
        },
        "12": {
          "ctab": {
            "srcChannel": 12,
            "name": "Pno",
            "accType": "CHORD2",
            "editable": false,
            "mutedNotes": [],
            "mutedChords": [
              "1+2+5",
              "sus4",
              "1+5",
              "1+8",
              "7aug",
              "Maj7aug",
              "7(#9)",
              "7(b13)",
              "7(b9)",
              "7(13)",
              "7#11",
              "7(9)",
              "7b5",
              "7sus4",
              "7th",
              "dim7",
              "dim",
              "minMaj7(9)",
              "minMaj7",
              "min7(11)",
              "min7(9)",
              "m7b5",
              "min7",
              "aug",
              "Maj7#11"
            ],
            "autoStart": false,
            "sourceChordNote": 0,
            "sourceChordType": "Maj",
            "ctb2Low": null,
            "ctb2Main": {
              "ntr": "ROOT_TRANSPOSITION",
              "ntt": "MELODIC_MINOR",
              "bassOn": false,
              "chordRootUpperLimit": 8,
              "noteLowLimit": 58,
              "noteHighLimit": 69,
              "rtr": "PITCH_SHIFT"
            },
            "ctb2High": null
          },
          "notes": [
            {
              "pitch": 60,
              "velocity": 103,
              "position": 0,
              "duration": 0.23958333333333334
            },
            {
              "pitch": 64,
              "velocity": 103,
              "position": 0,
              "duration": 0.23958333333333334
            },
            {
              "pitch": 67,
              "velocity": 103,
              "position": 0,
              "duration": 0.23958333333333334
            },
            {
              "pitch": 57,
              "velocity": 103,
              "position": 6.666666666666667,
              "duration": 0.23958333333333334
            },
            {
              "pitch": 60,
              "velocity": 103,
              "position": 6.666666666666667,
              "duration": 0.23958333333333334
            },
            {
              "pitch": 64,
              "velocity": 103,
              "position": 6.666666666666667,
              "duration": 0.23958333333333334
            },
            {
              "pitch": 67,
              "velocity": 103,
              "position": 6.666666666666667,
              "duration": 0.23958333333333334
            },
            {
              "pitch": 60,
              "velocity": 103,
              "position": 8,
              "duration": 0.23958333333333334
            },
            {
              "pitch": 64,
              "velocity": 103,
              "position": 8,
              "duration": 0.23958333333333334
            },
            {
              "pitch": 67,
              "velocity": 103,
              "position": 8,
              "duration": 0.23958333333333334
            },
            {
              "pitch": 64,
              "velocity": 103,
              "position": 14.666666666666666,
              "duration": 0.23958333333333334
            },
            {
              "pitch": 64,
              "velocity": 57,
              "position": 15,
              "duration": 0.23958333333333334
            },
            {
              "pitch": 67,
              "velocity": 56,
              "position": 15.333333333333334,
              "duration": 0.23958333333333334
            },
            {
              "pitch": 67,
              "velocity": 76,
              "position": 15.666666666666666,
              "duration": 0.23958333333333334
            }
          ]
        },
        "13": {
          "ctab": {
            "srcChannel": 13,
            "name": "Sax",
            "accType": "PAD",
            "editable": false,
            "mutedNotes": [],
            "mutedChords": [
              "1+2+5",
              "sus4",
              "1+5",
              "1+8",
              "7aug",
              "Maj7aug",
              "7(#9)",
              "7(b13)",
              "7(b9)",
              "7(13)",
              "7#11",
              "7(9)",
              "7b5",
              "7sus4",
              "7th",
              "dim7",
              "dim",
              "minMaj7(9)",
              "minMaj7",
              "min7(11)",
              "min7(9)",
              "m7b5",
              "min7",
              "aug",
              "Maj7#11"
            ],
            "autoStart": false,
            "sourceChordNote": 0,
            "sourceChordType": "Maj",
            "ctb2Low": null,
            "ctb2Main": {
              "ntr": "ROOT_TRANSPOSITION",
              "ntt": "MELODIC_MINOR",
              "bassOn": false,
              "chordRootUpperLimit": 8,
              "noteLowLimit": 55,
              "noteHighLimit": 66,
              "rtr": "PITCH_SHIFT"
            },
            "ctb2High": null
          },
          "notes": [
            {
              "pitch": 55,
              "velocity": 60,
              "position": 0.010416666666666666,
              "duration": 5.770833333333333
            },
            {
              "pitch": 57,
              "velocity": 60,
              "position": 0.010416666666666666,
              "duration": 5.770833333333333
            },
            {
              "pitch": 60,
              "velocity": 60,
              "position": 0.010416666666666666,
              "duration": 5.770833333333333
            },
            {
              "pitch": 64,
              "velocity": 60,
              "position": 0.010416666666666666,
              "duration": 5.770833333333333
            },
            {
              "pitch": 55,
              "velocity": 51,
              "position": 6.666666666666667,
              "duration": 1.3333333333333333
            },
            {
              "pitch": 57,
              "velocity": 51,
              "position": 6.666666666666667,
              "duration": 1.3333333333333333
            },
            {
              "pitch": 60,
              "velocity": 51,
              "position": 6.666666666666667,
              "duration": 1.3333333333333333
            },
            {
              "pitch": 64,
              "velocity": 51,
              "position": 6.666666666666667,
              "duration": 1.3333333333333333
            }
          ]
        },
        "15": {
          "ctab": {
            "srcChannel": 15,
            "name": "Tbn",
            "accType": "PHRASE2",
            "editable": false,
            "mutedNotes": [],
            "mutedChords": [
              "1+2+5",
              "sus4",
              "1+5",
              "1+8",
              "7aug",
              "Maj7aug",
              "7(#9)",
              "7(b13)",
              "7(b9)",
              "7(13)",
              "7#11",
              "7(9)",
              "7b5",
              "7sus4",
              "7th",
              "dim7",
              "dim",
              "minMaj7(9)",
              "minMaj7",
              "min7(11)",
              "min7(9)",
              "m7b5",
              "min7",
              "aug",
              "Maj7#11"
            ],
            "autoStart": false,
            "sourceChordNote": 0,
            "sourceChordType": "Maj",
            "ctb2Low": null,
            "ctb2Main": {
              "ntr": "ROOT_TRANSPOSITION",
              "ntt": "MELODIC_MINOR",
              "bassOn": false,
              "chordRootUpperLimit": 8,
              "noteLowLimit": 53,
              "noteHighLimit": 66,
              "rtr": "PITCH_SHIFT"
            },
            "ctb2High": null
          },
          "notes": [
            {
              "pitch": 55,
              "velocity": 100,
              "position": 0.6666666666666666,
              "duration": 0.25
            },
            {
              "pitch": 57,
              "velocity": 100,
              "position": 0.6666666666666666,
              "duration": 0.25
            },
            {
              "pitch": 60,
              "velocity": 100,
              "position": 0.6666666666666666,
              "duration": 0.25
            },
            {
              "pitch": 64,
              "velocity": 100,
              "position": 0.6666666666666666,
              "duration": 0.25
            },
            {
              "pitch": 55,
              "velocity": 100,
              "position": 2,
              "duration": 0.25
            },
            {
              "pitch": 57,
              "velocity": 100,
              "position": 2,
              "duration": 0.25
            },
            {
              "pitch": 60,
              "velocity": 100,
              "position": 2,
              "duration": 0.25
            },
            {
              "pitch": 64,
              "velocity": 100,
              "position": 2,
              "duration": 0.25
            },
            {
              "pitch": 55,
              "velocity": 100,
              "position": 4,
              "duration": 0.25
            },
            {
              "pitch": 57,
              "velocity": 100,
              "position": 4,
              "duration": 0.25
            },
            {
              "pitch": 60,
              "velocity": 100,
              "position": 4,
              "duration": 0.25
            },
            {
              "pitch": 64,
              "velocity": 100,
              "position": 4,
              "duration": 0.25
            },
            {
              "pitch": 55,
              "velocity": 100,
              "position": 5.666666666666667,
              "duration": 0.25
            },
            {
              "pitch": 57,
              "velocity": 100,
              "position": 5.666666666666667,
              "duration": 0.25
            },
            {
              "pitch": 60,
              "velocity": 100,
              "position": 5.666666666666667,
              "duration": 0.25
            },
            {
              "pitch": 64,
              "velocity": 100,
              "position": 5.666666666666667,
              "duration": 0.25
            },
            {
              "pitch": 55,
              "velocity": 100,
              "position": 8.666666666666666,
              "duration": 0.25
            },
            {
              "pitch": 57,
              "velocity": 100,
              "position": 8.666666666666666,
              "duration": 0.25
            },
            {
              "pitch": 60,
              "velocity": 100,
              "position": 8.666666666666666,
              "duration": 0.25
            },
            {
              "pitch": 64,
              "velocity": 100,
              "position": 8.666666666666666,
              "duration": 0.25
            },
            {
              "pitch": 55,
              "velocity": 59,
              "position": 10,
              "duration": 0.65625
            },
            {
              "pitch": 57,
              "velocity": 59,
              "position": 10,
              "duration": 0.65625
            },
            {
              "pitch": 60,
              "velocity": 59,
              "position": 10,
              "duration": 0.65625
            },
            {
              "pitch": 64,
              "velocity": 59,
              "position": 10,
              "duration": 0.65625
            },
            {
              "pitch": 55,
              "velocity": 100,
              "position": 10.666666666666666,
              "duration": 0.28125
            },
            {
              "pitch": 57,
              "velocity": 100,
              "position": 10.666666666666666,
              "duration": 0.28125
            },
            {
              "pitch": 60,
              "velocity": 100,
              "position": 10.666666666666666,
              "duration": 0.28125
            },
            {
              "pitch": 64,
              "velocity": 100,
              "position": 10.666666666666666,
              "duration": 0.28125
            },
            {
              "pitch": 55,
              "velocity": 100,
              "position": 12,
              "duration": 0.25
            },
            {
              "pitch": 57,
              "velocity": 100,
              "position": 12,
              "duration": 0.25
            },
            {
              "pitch": 60,
              "velocity": 100,
              "position": 12,
              "duration": 0.25
            },
            {
              "pitch": 64,
              "velocity": 100,
              "position": 12,
              "duration": 0.25
            },
            {
              "pitch": 55,
              "velocity": 100,
              "position": 13.666666666666666,
              "duration": 0.25
            },
            {
              "pitch": 57,
              "velocity": 100,
              "position": 13.666666666666666,
              "duration": 0.25
            },
            {
              "pitch": 60,
              "velocity": 100,
              "position": 13.666666666666666,
              "duration": 0.25
            },
            {
              "pitch": 64,
              "velocity": 100,
              "position": 13.666666666666666,
              "duration": 0.25
            }
          ]
        }
      }
    },
    "Main_C": {
      "type": "Main_C",
      "sizeInBeats": 16,
      "channels": {
        "0": {
          "ctab": {
            "srcChannel": 0,
            "name": "CC_Crash",
            "accType": "RHYTHM",
            "editable": false,
            "mutedNotes": [],
            "mutedChords": [
              "1+2+5",
              "sus4",
              "1+5",
              "1+8",
              "7aug",
              "Maj7aug",
              "7(#9)",
              "7(b13)",
              "7(b9)",
              "7(13)",
              "7#11",
              "7(9)",
              "7b5",
              "7sus4",
              "7th",
              "dim7",
              "dim",
              "minMaj7(9)",
              "minMaj7",
              "min7(11)",
              "min7(9)",
              "min(9)",
              "m7b5",
              "min7",
              "min6",
              "min",
              "aug",
              "Maj6(9)",
              "Maj7(9)",
              "Maj(9)",
              "Maj7#11",
              "Maj7",
              "Maj6",
              "Maj"
            ],
            "autoStart": true,
            "sourceChordNote": 0,
            "sourceChordType": "Maj",
            "ctb2Low": null,
            "ctb2Main": {
              "ntr": "ROOT_FIXED",
              "ntt": "BYPASS",
              "bassOn": false,
              "chordRootUpperLimit": 0,
              "noteLowLimit": 0,
              "noteHighLimit": 127,
              "rtr": "RETRIGGER"
            },
            "ctb2High": null
          },
          "notes": []
        },
        "1": {
          "ctab": {
            "srcChannel": 1,
            "name": "Bass",
            "accType": "BASS",
            "editable": false,
            "mutedNotes": [],
            "mutedChords": [
              "1+2+5",
              "sus4",
              "1+5",
              "1+8",
              "dim",
              "min(9)",
              "m7b5",
              "min6",
              "min",
              "aug",
              "Maj6(9)",
              "Maj7(9)",
              "Maj(9)",
              "Maj7",
              "Maj6",
              "Maj"
            ],
            "autoStart": false,
            "sourceChordNote": 0,
            "sourceChordType": "Maj7",
            "ctb2Low": null,
            "ctb2Main": {
              "ntr": "ROOT_TRANSPOSITION",
              "ntt": "MELODY",
              "bassOn": true,
              "chordRootUpperLimit": 8,
              "noteLowLimit": 28,
              "noteHighLimit": 127,
              "rtr": "PITCH_SHIFT_TO_ROOT"
            },
            "ctb2High": null
          },
          "notes": [
            {
              "pitch": 24,
              "velocity": 80,
              "position": 0,
              "duration": 0.8125
            },
            {
              "pitch": 24,
              "velocity": 78,
              "position": 1,
              "duration": 0.8125
            },
            {
              "pitch": 31,
              "velocity": 80,
              "position": 2,
              "duration": 0.8125
            },
            {
              "pitch": 31,
              "velocity": 78,
              "position": 3,
              "duration": 0.8125
            },
            {
              "pitch": 36,
              "velocity": 80,
              "position": 4,
              "duration": 0.8125
            },
            {
              "pitch": 36,
              "velocity": 78,
              "position": 5,
              "duration": 0.8125
            },
            {
              "pitch": 31,
              "velocity": 80,
              "position": 6,
              "duration": 0.8125
            },
            {
              "pitch": 31,
              "velocity": 78,
              "position": 7,
              "duration": 0.8125
            },
            {
              "pitch": 24,
              "velocity": 80,
              "position": 8,
              "duration": 0.8125
            },
            {
              "pitch": 28,
              "velocity": 78,
              "position": 9,
              "duration": 0.8125
            },
            {
              "pitch": 31,
              "velocity": 80,
              "position": 10,
              "duration": 0.8125
            },
            {
              "pitch": 31,
              "velocity": 78,
              "position": 11,
              "duration": 0.8125
            },
            {
              "pitch": 36,
              "velocity": 80,
              "position": 12,
              "duration": 0.8125
            },
            {
              "pitch": 36,
              "velocity": 78,
              "position": 13,
              "duration": 0.8125
            },
            {
              "pitch": 31,
              "velocity": 80,
              "position": 14,
              "duration": 0.8125
            },
            {
              "pitch": 28,
              "velocity": 78,
              "position": 15,
              "duration": 0.8125
            }
          ]
        },
        "2": {
          "ctab": {
            "srcChannel": 2,
            "name": "Gt",
            "accType": "CHORD1",
            "editable": false,
            "mutedNotes": [],
            "mutedChords": [
              "min(9)",
              "min6",
              "min",
              "Maj6(9)",
              "Maj7(9)",
              "Maj(9)",
              "Maj7",
              "Maj6",
              "Maj"
            ],
            "autoStart": false,
            "sourceChordNote": 0,
            "sourceChordType": "Maj7",
            "ctb2Low": null,
            "ctb2Main": {
              "ntr": "ROOT_FIXED",
              "ntt": "CHORD",
              "bassOn": false,
              "chordRootUpperLimit": 8,
              "noteLowLimit": 0,
              "noteHighLimit": 127,
              "rtr": "PITCH_SHIFT"
            },
            "ctb2High": null
          },
          "notes": [
            {
              "pitch": 55,
              "velocity": 96,
              "position": 0,
              "duration": 0.40625
            },
            {
              "pitch": 59,
              "velocity": 96,
              "position": 0,
              "duration": 0.40625
            },
            {
              "pitch": 64,
              "velocity": 96,
              "position": 0,
              "duration": 0.40625
            },
            {
              "pitch": 55,
              "velocity": 96,
              "position": 1,
              "duration": 0.40625
            },
            {
              "pitch": 59,
              "velocity": 96,
              "position": 1,
              "duration": 0.40625
            },
            {
              "pitch": 64,
              "velocity": 96,
              "position": 1,
              "duration": 0.40625
            },
            {
              "pitch": 55,
              "velocity": 96,
              "position": 2,
              "duration": 0.40625
            },
            {
              "pitch": 59,
              "velocity": 96,
              "position": 2,
              "duration": 0.40625
            },
            {
              "pitch": 64,
              "velocity": 96,
              "position": 2,
              "duration": 0.40625
            },
            {
              "pitch": 55,
              "velocity": 96,
              "position": 3,
              "duration": 0.40625
            },
            {
              "pitch": 59,
              "velocity": 96,
              "position": 3,
              "duration": 0.40625
            },
            {
              "pitch": 64,
              "velocity": 96,
              "position": 3,
              "duration": 0.40625
            },
            {
              "pitch": 55,
              "velocity": 96,
              "position": 4,
              "duration": 0.40625
            },
            {
              "pitch": 59,
              "velocity": 96,
              "position": 4,
              "duration": 0.40625
            },
            {
              "pitch": 64,
              "velocity": 96,
              "position": 4,
              "duration": 0.40625
            },
            {
              "pitch": 55,
              "velocity": 80,
              "position": 5,
              "duration": 0.65625
            },
            {
              "pitch": 59,
              "velocity": 80,
              "position": 5,
              "duration": 0.65625
            },
            {
              "pitch": 64,
              "velocity": 80,
              "position": 5,
              "duration": 0.65625
            },
            {
              "pitch": 55,
              "velocity": 96,
              "position": 5.666666666666667,
              "duration": 0.3229166666666667
            },
            {
              "pitch": 59,
              "velocity": 96,
              "position": 5.666666666666667,
              "duration": 0.3229166666666667
            },
            {
              "pitch": 64,
              "velocity": 96,
              "position": 5.666666666666667,
              "duration": 0.3229166666666667
            },
            {
              "pitch": 55,
              "velocity": 67,
              "position": 6,
              "duration": 0.65625
            },
            {
              "pitch": 59,
              "velocity": 67,
              "position": 6,
              "duration": 0.65625
            },
            {
              "pitch": 64,
              "velocity": 67,
              "position": 6,
              "duration": 0.65625
            },
            {
              "pitch": 55,
              "velocity": 67,
              "position": 6.666666666666667,
              "duration": 0.3229166666666667
            },
            {
              "pitch": 59,
              "velocity": 67,
              "position": 6.666666666666667,
              "duration": 0.3229166666666667
            },
            {
              "pitch": 64,
              "velocity": 67,
              "position": 6.666666666666667,
              "duration": 0.3229166666666667
            },
            {
              "pitch": 55,
              "velocity": 96,
              "position": 7,
              "duration": 0.40625
            },
            {
              "pitch": 59,
              "velocity": 96,
              "position": 7,
              "duration": 0.40625
            },
            {
              "pitch": 64,
              "velocity": 96,
              "position": 7,
              "duration": 0.40625
            },
            {
              "pitch": 55,
              "velocity": 96,
              "position": 8,
              "duration": 0.40625
            },
            {
              "pitch": 59,
              "velocity": 96,
              "position": 8,
              "duration": 0.40625
            },
            {
              "pitch": 64,
              "velocity": 96,
              "position": 8,
              "duration": 0.40625
            },
            {
              "pitch": 55,
              "velocity": 96,
              "position": 9,
              "duration": 0.40625
            },
            {
              "pitch": 59,
              "velocity": 96,
              "position": 9,
              "duration": 0.40625
            },
            {
              "pitch": 64,
              "velocity": 96,
              "position": 9,
              "duration": 0.40625
            },
            {
              "pitch": 55,
              "velocity": 96,
              "position": 10,
              "duration": 0.40625
            },
            {
              "pitch": 59,
              "velocity": 96,
              "position": 10,
              "duration": 0.40625
            },
            {
              "pitch": 64,
              "velocity": 96,
              "position": 10,
              "duration": 0.40625
            },
            {
              "pitch": 55,
              "velocity": 96,
              "position": 11,
              "duration": 0.40625
            },
            {
              "pitch": 59,
              "velocity": 96,
              "position": 11,
              "duration": 0.40625
            },
            {
              "pitch": 64,
              "velocity": 96,
              "position": 11,
              "duration": 0.40625
            },
            {
              "pitch": 55,
              "velocity": 80,
              "position": 12,
              "duration": 0.65625
            },
            {
              "pitch": 59,
              "velocity": 80,
              "position": 12,
              "duration": 0.65625
            },
            {
              "pitch": 64,
              "velocity": 80,
              "position": 12,
              "duration": 0.65625
            },
            {
              "pitch": 55,
              "velocity": 96,
              "position": 12.666666666666666,
              "duration": 0.3229166666666667
            },
            {
              "pitch": 59,
              "velocity": 96,
              "position": 12.666666666666666,
              "duration": 0.3229166666666667
            },
            {
              "pitch": 64,
              "velocity": 96,
              "position": 12.666666666666666,
              "duration": 0.3229166666666667
            },
            {
              "pitch": 55,
              "velocity": 67,
              "position": 13,
              "duration": 0.40625
            },
            {
              "pitch": 59,
              "velocity": 67,
              "position": 13,
              "duration": 0.40625
            },
            {
              "pitch": 64,
              "velocity": 67,
              "position": 13,
              "duration": 0.40625
            },
            {
              "pitch": 55,
              "velocity": 96,
              "position": 14,
              "duration": 0.40625
            },
            {
              "pitch": 59,
              "velocity": 96,
              "position": 14,
              "duration": 0.40625
            },
            {
              "pitch": 64,
              "velocity": 96,
              "position": 14,
              "duration": 0.40625
            },
            {
              "pitch": 55,
              "velocity": 80,
              "position": 15,
              "duration": 0.65625
            },
            {
              "pitch": 59,
              "velocity": 80,
              "position": 15,
              "duration": 0.65625
            },
            {
              "pitch": 64,
              "velocity": 80,
              "position": 15,
              "duration": 0.65625
            },
            {
              "pitch": 55,
              "velocity": 67,
              "position": 15.666666666666666,
              "duration": 0.3229166666666667
            },
            {
              "pitch": 59,
              "velocity": 67,
              "position": 15.666666666666666,
              "duration": 0.3229166666666667
            },
            {
              "pitch": 64,
              "velocity": 67,
              "position": 15.666666666666666,
              "duration": 0.3229166666666667
            }
          ]
        },
        "3": {
          "ctab": {
            "srcChannel": 3,
            "name": "Pno",
            "accType": "CHORD2",
            "editable": false,
            "mutedNotes": [],
            "mutedChords": [
              "min(9)",
              "min6",
              "min",
              "Maj6(9)",
              "Maj7(9)",
              "Maj(9)",
              "Maj7",
              "Maj6",
              "Maj"
            ],
            "autoStart": false,
            "sourceChordNote": 0,
            "sourceChordType": "Maj7",
            "ctb2Low": null,
            "ctb2Main": {
              "ntr": "ROOT_FIXED",
              "ntt": "CHORD",
              "bassOn": false,
              "chordRootUpperLimit": 8,
              "noteLowLimit": 0,
              "noteHighLimit": 127,
              "rtr": "PITCH_SHIFT"
            },
            "ctb2High": null
          },
          "notes": [
            {
              "pitch": 59,
              "velocity": 94,
              "position": 0.6666666666666666,
              "duration": 0.28125
            },
            {
              "pitch": 64,
              "velocity": 94,
              "position": 0.6666666666666666,
              "duration": 0.28125
            },
            {
              "pitch": 67,
              "velocity": 94,
              "position": 0.6666666666666666,
              "duration": 0.28125
            },
            {
              "pitch": 59,
              "velocity": 94,
              "position": 2,
              "duration": 0.28125
            },
            {
              "pitch": 64,
              "velocity": 94,
              "position": 2,
              "duration": 0.28125
            },
            {
              "pitch": 67,
              "velocity": 94,
              "position": 2,
              "duration": 0.28125
            },
            {
              "pitch": 59,
              "velocity": 94,
              "position": 4,
              "duration": 1.65625
            },
            {
              "pitch": 64,
              "velocity": 94,
              "position": 4,
              "duration": 1.65625
            },
            {
              "pitch": 67,
              "velocity": 94,
              "position": 4,
              "duration": 1.65625
            },
            {
              "pitch": 59,
              "velocity": 94,
              "position": 5.666666666666667,
              "duration": 0.28125
            },
            {
              "pitch": 64,
              "velocity": 94,
              "position": 5.666666666666667,
              "duration": 0.28125
            },
            {
              "pitch": 67,
              "velocity": 94,
              "position": 5.666666666666667,
              "duration": 0.28125
            },
            {
              "pitch": 59,
              "velocity": 94,
              "position": 8.666666666666666,
              "duration": 0.28125
            },
            {
              "pitch": 64,
              "velocity": 94,
              "position": 8.666666666666666,
              "duration": 0.28125
            },
            {
              "pitch": 67,
              "velocity": 94,
              "position": 8.666666666666666,
              "duration": 0.28125
            },
            {
              "pitch": 59,
              "velocity": 70,
              "position": 10,
              "duration": 0.65625
            },
            {
              "pitch": 64,
              "velocity": 70,
              "position": 10,
              "duration": 0.65625
            },
            {
              "pitch": 67,
              "velocity": 70,
              "position": 10,
              "duration": 0.65625
            },
            {
              "pitch": 59,
              "velocity": 94,
              "position": 10.666666666666666,
              "duration": 0.28125
            },
            {
              "pitch": 64,
              "velocity": 94,
              "position": 10.666666666666666,
              "duration": 0.28125
            },
            {
              "pitch": 67,
              "velocity": 94,
              "position": 10.666666666666666,
              "duration": 0.28125
            },
            {
              "pitch": 59,
              "velocity": 94,
              "position": 12,
              "duration": 1.65625
            },
            {
              "pitch": 64,
              "velocity": 94,
              "position": 12,
              "duration": 1.65625
            },
            {
              "pitch": 67,
              "velocity": 94,
              "position": 12,
              "duration": 1.65625
            },
            {
              "pitch": 59,
              "velocity": 94,
              "position": 13.666666666666666,
              "duration": 0.28125
            },
            {
              "pitch": 64,
              "velocity": 94,
              "position": 13.666666666666666,
              "duration": 0.28125
            },
            {
              "pitch": 67,
              "velocity": 94,
              "position": 13.666666666666666,
              "duration": 0.28125
            }
          ]
        },
        "4": {
          "ctab": {
            "srcChannel": 4,
            "name": "Sax",
            "accType": "PAD",
            "editable": false,
            "mutedNotes": [],
            "mutedChords": [
              "min(9)",
              "min6",
              "min",
              "Maj6(9)",
              "Maj7(9)",
              "Maj(9)",
              "Maj7",
              "Maj6",
              "Maj"
            ],
            "autoStart": false,
            "sourceChordNote": 0,
            "sourceChordType": "Maj7",
            "ctb2Low": null,
            "ctb2Main": {
              "ntr": "ROOT_TRANSPOSITION",
              "ntt": "MELODY",
              "bassOn": false,
              "chordRootUpperLimit": 8,
              "noteLowLimit": 0,
              "noteHighLimit": 127,
              "rtr": "PITCH_SHIFT"
            },
            "ctb2High": null
          },
          "notes": [
            {
              "pitch": 52,
              "velocity": 83,
              "position": 0.010416666666666666,
              "duration": 0.6458333333333334
            },
            {
              "pitch": 64,
              "velocity": 85,
              "position": 0.010416666666666666,
              "duration": 0.6458333333333334
            },
            {
              "pitch": 55,
              "velocity": 64,
              "position": 0.6666666666666666,
              "duration": 0.3229166666666667
            },
            {
              "pitch": 67,
              "velocity": 78,
              "position": 0.6666666666666666,
              "duration": 0.3229166666666667
            },
            {
              "pitch": 52,
              "velocity": 86,
              "position": 1,
              "duration": 0.3229166666666667
            },
            {
              "pitch": 64,
              "velocity": 90,
              "position": 1,
              "duration": 0.3229166666666667
            },
            {
              "pitch": 48,
              "velocity": 102,
              "position": 2,
              "duration": 0.3958333333333333
            },
            {
              "pitch": 60,
              "velocity": 94,
              "position": 2,
              "duration": 0.3958333333333333
            },
            {
              "pitch": 48,
              "velocity": 94,
              "position": 3.6666666666666665,
              "duration": 0.3229166666666667
            },
            {
              "pitch": 60,
              "velocity": 90,
              "position": 3.6666666666666665,
              "duration": 0.3229166666666667
            },
            {
              "pitch": 52,
              "velocity": 84,
              "position": 4,
              "duration": 0.65625
            },
            {
              "pitch": 64,
              "velocity": 85,
              "position": 4,
              "duration": 0.65625
            },
            {
              "pitch": 55,
              "velocity": 64,
              "position": 4.666666666666667,
              "duration": 0.3229166666666667
            },
            {
              "pitch": 67,
              "velocity": 76,
              "position": 4.666666666666667,
              "duration": 0.3229166666666667
            },
            {
              "pitch": 52,
              "velocity": 86,
              "position": 5,
              "duration": 0.65625
            },
            {
              "pitch": 64,
              "velocity": 90,
              "position": 5,
              "duration": 0.65625
            },
            {
              "pitch": 48,
              "velocity": 102,
              "position": 5.666666666666667,
              "duration": 0.3958333333333333
            },
            {
              "pitch": 60,
              "velocity": 95,
              "position": 5.666666666666667,
              "duration": 0.3958333333333333
            },
            {
              "pitch": 48,
              "velocity": 104,
              "position": 7.666666666666667,
              "duration": 0.3229166666666667
            },
            {
              "pitch": 60,
              "velocity": 80,
              "position": 7.666666666666667,
              "duration": 0.3229166666666667
            },
            {
              "pitch": 52,
              "velocity": 86,
              "position": 8,
              "duration": 0.65625
            },
            {
              "pitch": 64,
              "velocity": 90,
              "position": 8,
              "duration": 0.65625
            },
            {
              "pitch": 55,
              "velocity": 64,
              "position": 8.666666666666666,
              "duration": 0.3229166666666667
            },
            {
              "pitch": 67,
              "velocity": 79,
              "position": 8.666666666666666,
              "duration": 0.3229166666666667
            },
            {
              "pitch": 52,
              "velocity": 86,
              "position": 9,
              "duration": 0.65625
            },
            {
              "pitch": 64,
              "velocity": 87,
              "position": 9,
              "duration": 0.65625
            },
            {
              "pitch": 52,
              "velocity": 114,
              "position": 9.666666666666666,
              "duration": 0.3229166666666667
            },
            {
              "pitch": 64,
              "velocity": 119,
              "position": 9.666666666666666,
              "duration": 0.3229166666666667
            },
            {
              "pitch": 52,
              "velocity": 86,
              "position": 10,
              "duration": 0.65625
            },
            {
              "pitch": 64,
              "velocity": 90,
              "position": 10,
              "duration": 0.65625
            },
            {
              "pitch": 48,
              "velocity": 82,
              "position": 10.666666666666666,
              "duration": 0.3229166666666667
            },
            {
              "pitch": 60,
              "velocity": 82,
              "position": 10.666666666666666,
              "duration": 0.3229166666666667
            },
            {
              "pitch": 43,
              "velocity": 68,
              "position": 11,
              "duration": 0.3854166666666667
            },
            {
              "pitch": 55,
              "velocity": 68,
              "position": 11,
              "duration": 0.3854166666666667
            },
            {
              "pitch": 48,
              "velocity": 104,
              "position": 12,
              "duration": 1.65625
            },
            {
              "pitch": 60,
              "velocity": 97,
              "position": 12,
              "duration": 1.65625
            },
            {
              "pitch": 52,
              "velocity": 104,
              "position": 13.666666666666666,
              "duration": 0.3854166666666667
            },
            {
              "pitch": 64,
              "velocity": 102,
              "position": 13.666666666666666,
              "duration": 0.3854166666666667
            },
            {
              "pitch": 48,
              "velocity": 104,
              "position": 15.666666666666666,
              "duration": 0.3229166666666667
            },
            {
              "pitch": 60,
              "velocity": 97,
              "position": 15.666666666666666,
              "duration": 0.3229166666666667
            }
          ]
        },
        "5": {
          "ctab": {
            "srcChannel": 5,
            "name": "Brs",
            "accType": "PHRASE1",
            "editable": false,
            "mutedNotes": [],
            "mutedChords": [
              "min(9)",
              "min6",
              "min",
              "Maj6(9)",
              "Maj7(9)",
              "Maj(9)",
              "Maj7",
              "Maj6",
              "Maj"
            ],
            "autoStart": false,
            "sourceChordNote": 0,
            "sourceChordType": "Maj7",
            "ctb2Low": null,
            "ctb2Main": {
              "ntr": "ROOT_TRANSPOSITION",
              "ntt": "MELODY",
              "bassOn": false,
              "chordRootUpperLimit": 8,
              "noteLowLimit": 62,
              "noteHighLimit": 73,
              "rtr": "PITCH_SHIFT"
            },
            "ctb2High": null
          },
          "notes": [
            {
              "pitch": 64,
              "velocity": 100,
              "position": 0,
              "duration": 0.2708333333333333
            },
            {
              "pitch": 67,
              "velocity": 100,
              "position": 0,
              "duration": 0.2708333333333333
            },
            {
              "pitch": 72,
              "velocity": 100,
              "position": 0,
              "duration": 0.2708333333333333
            },
            {
              "pitch": 64,
              "velocity": 100,
              "position": 14.666666666666666,
              "duration": 0.2708333333333333
            },
            {
              "pitch": 67,
              "velocity": 100,
              "position": 14.666666666666666,
              "duration": 0.2708333333333333
            },
            {
              "pitch": 72,
              "velocity": 100,
              "position": 14.666666666666666,
              "duration": 0.2708333333333333
            }
          ]
        },
        "6": {
          "ctab": {
            "srcChannel": 6,
            "name": "Tbn",
            "accType": "PHRASE2",
            "editable": false,
            "mutedNotes": [],
            "mutedChords": [
              "min(9)",
              "min6",
              "min",
              "Maj6(9)",
              "Maj7(9)",
              "Maj(9)",
              "Maj7",
              "Maj6",
              "Maj"
            ],
            "autoStart": false,
            "sourceChordNote": 0,
            "sourceChordType": "Maj7",
            "ctb2Low": null,
            "ctb2Main": {
              "ntr": "ROOT_FIXED",
              "ntt": "CHORD",
              "bassOn": false,
              "chordRootUpperLimit": 8,
              "noteLowLimit": 0,
              "noteHighLimit": 127,
              "rtr": "PITCH_SHIFT"
            },
            "ctb2High": null
          },
          "notes": [
            {
              "pitch": 55,
              "velocity": 112,
              "position": 0.6666666666666666,
              "duration": 0.28125
            },
            {
              "pitch": 59,
              "velocity": 112,
              "position": 0.6666666666666666,
              "duration": 0.28125
            },
            {
              "pitch": 64,
              "velocity": 112,
              "position": 0.6666666666666666,
              "duration": 0.28125
            },
            {
              "pitch": 55,
              "velocity": 112,
              "position": 2,
              "duration": 0.28125
            },
            {
              "pitch": 59,
              "velocity": 112,
              "position": 2,
              "duration": 0.28125
            },
            {
              "pitch": 64,
              "velocity": 112,
              "position": 2,
              "duration": 0.28125
            },
            {
              "pitch": 55,
              "velocity": 112,
              "position": 4,
              "duration": 0.28125
            },
            {
              "pitch": 59,
              "velocity": 112,
              "position": 4,
              "duration": 0.28125
            },
            {
              "pitch": 64,
              "velocity": 112,
              "position": 4,
              "duration": 0.28125
            },
            {
              "pitch": 55,
              "velocity": 112,
              "position": 5.666666666666667,
              "duration": 0.28125
            },
            {
              "pitch": 59,
              "velocity": 112,
              "position": 5.666666666666667,
              "duration": 0.28125
            },
            {
              "pitch": 64,
              "velocity": 112,
              "position": 5.666666666666667,
              "duration": 0.28125
            },
            {
              "pitch": 55,
              "velocity": 112,
              "position": 8.666666666666666,
              "duration": 0.28125
            },
            {
              "pitch": 59,
              "velocity": 112,
              "position": 8.666666666666666,
              "duration": 0.28125
            },
            {
              "pitch": 64,
              "velocity": 112,
              "position": 8.666666666666666,
              "duration": 0.28125
            },
            {
              "pitch": 55,
              "velocity": 80,
              "position": 10,
              "duration": 0.65625
            },
            {
              "pitch": 59,
              "velocity": 80,
              "position": 10,
              "duration": 0.65625
            },
            {
              "pitch": 64,
              "velocity": 80,
              "position": 10,
              "duration": 0.65625
            },
            {
              "pitch": 55,
              "velocity": 112,
              "position": 10.666666666666666,
              "duration": 0.28125
            },
            {
              "pitch": 59,
              "velocity": 112,
              "position": 10.666666666666666,
              "duration": 0.28125
            },
            {
              "pitch": 64,
              "velocity": 112,
              "position": 10.666666666666666,
              "duration": 0.28125
            },
            {
              "pitch": 55,
              "velocity": 112,
              "position": 12,
              "duration": 0.28125
            },
            {
              "pitch": 59,
              "velocity": 112,
              "position": 12,
              "duration": 0.28125
            },
            {
              "pitch": 64,
              "velocity": 112,
              "position": 12,
              "duration": 0.28125
            },
            {
              "pitch": 55,
              "velocity": 112,
              "position": 13.666666666666666,
              "duration": 0.28125
            },
            {
              "pitch": 59,
              "velocity": 112,
              "position": 13.666666666666666,
              "duration": 0.28125
            },
            {
              "pitch": 64,
              "velocity": 112,
              "position": 13.666666666666666,
              "duration": 0.28125
            }
          ]
        },
        "7": {
          "ctab": {
            "srcChannel": 7,
            "name": "Bass",
            "accType": "BASS",
            "editable": false,
            "mutedNotes": [],
            "mutedChords": [
              "7aug",
              "Maj7aug",
              "7(#9)",
              "7(b13)",
              "7(b9)",
              "7(13)",
              "7#11",
              "7(9)",
              "7b5",
              "7sus4",
              "7th",
              "dim7",
              "minMaj7(9)",
              "minMaj7",
              "min7(11)",
              "min7(9)",
              "min(9)",
              "min7",
              "min6",
              "min",
              "Maj6(9)",
              "Maj7(9)",
              "Maj(9)",
              "Maj7#11",
              "Maj7",
              "Maj6",
              "Maj"
            ],
            "autoStart": false,
            "sourceChordNote": 0,
            "sourceChordType": "Maj7",
            "ctb2Low": null,
            "ctb2Main": {
              "ntr": "ROOT_TRANSPOSITION",
              "ntt": "MELODY",
              "bassOn": true,
              "chordRootUpperLimit": 8,
              "noteLowLimit": 28,
              "noteHighLimit": 127,
              "rtr": "PITCH_SHIFT_TO_ROOT"
            },
            "ctb2High": null
          },
          "notes": [
            {
              "pitch": 24,
              "velocity": 80,
              "position": 0,
              "duration": 0.8125
            },
            {
              "pitch": 24,
              "velocity": 78,
              "position": 1,
              "duration": 0.8125
            },
            {
              "pitch": 31,
              "velocity": 80,
              "position": 2,
              "duration": 0.8125
            },
            {
              "pitch": 31,
              "velocity": 78,
              "position": 3,
              "duration": 0.8125
            },
            {
              "pitch": 36,
              "velocity": 80,
              "position": 4,
              "duration": 0.8125
            },
            {
              "pitch": 36,
              "velocity": 78,
              "position": 5,
              "duration": 0.8125
            },
            {
              "pitch": 31,
              "velocity": 80,
              "position": 6,
              "duration": 0.8125
            },
            {
              "pitch": 31,
              "velocity": 78,
              "position": 7,
              "duration": 0.8125
            },
            {
              "pitch": 24,
              "velocity": 80,
              "position": 8,
              "duration": 0.8125
            },
            {
              "pitch": 28,
              "velocity": 78,
              "position": 9,
              "duration": 0.8125
            },
            {
              "pitch": 31,
              "velocity": 80,
              "position": 10,
              "duration": 0.8125
            },
            {
              "pitch": 31,
              "velocity": 78,
              "position": 11,
              "duration": 0.8125
            },
            {
              "pitch": 36,
              "velocity": 80,
              "position": 12,
              "duration": 0.8125
            },
            {
              "pitch": 36,
              "velocity": 78,
              "position": 13,
              "duration": 0.8125
            },
            {
              "pitch": 31,
              "velocity": 80,
              "position": 14,
              "duration": 0.8125
            },
            {
              "pitch": 28,
              "velocity": 78,
              "position": 15,
              "duration": 0.8125
            }
          ]
        },
        "8": {
          "ctab": {
            "srcChannel": 8,
            "name": "Prc",
            "accType": "SUBRHYTHM",
            "editable": false,
            "mutedNotes": [],
            "mutedChords": [],
            "autoStart": true,
            "sourceChordNote": 0,
            "sourceChordType": "Maj7",
            "ctb2Low": null,
            "ctb2Main": {
              "ntr": "ROOT_FIXED",
              "ntt": "BYPASS",
              "bassOn": false,
              "chordRootUpperLimit": 6,
              "noteLowLimit": 0,
              "noteHighLimit": 127,
              "rtr": "PITCH_SHIFT"
            },
            "ctb2High": null
          },
          "notes": []
        },
        "9": {
          "ctab": {
            "srcChannel": 9,
            "name": "Drs",
            "accType": "RHYTHM",
            "editable": false,
            "mutedNotes": [],
            "mutedChords": [],
            "autoStart": true,
            "sourceChordNote": 0,
            "sourceChordType": "Maj7",
            "ctb2Low": null,
            "ctb2Main": {
              "ntr": "ROOT_FIXED",
              "ntt": "BYPASS",
              "bassOn": false,
              "chordRootUpperLimit": 6,
              "noteLowLimit": 0,
              "noteHighLimit": 127,
              "rtr": "PITCH_SHIFT"
            },
            "ctb2High": null
          },
          "notes": [
            {
              "pitch": 35,
              "velocity": 74,
              "position": 0,
              "duration": 0.010416666666666666
            },
            {
              "pitch": 51,
              "velocity": 50,
              "position": 0,
              "duration": 0.010416666666666666
            },
            {
              "pitch": 37,
              "velocity": 81,
              "position": 1,
              "duration": 0.010416666666666666
            },
            {
              "pitch": 44,
              "velocity": 60,
              "position": 1,
              "duration": 0.010416666666666666
            },
            {
              "pitch": 51,
              "velocity": 50,
              "position": 1,
              "duration": 0.010416666666666666
            },
            {
              "pitch": 51,
              "velocity": 25,
              "position": 1.6875,
              "duration": 0.010416666666666666
            },
            {
              "pitch": 35,
              "velocity": 74,
              "position": 2,
              "duration": 0.010416666666666666
            },
            {
              "pitch": 51,
              "velocity": 50,
              "position": 2,
              "duration": 0.010416666666666666
            },
            {
              "pitch": 37,
              "velocity": 81,
              "position": 3,
              "duration": 0.010416666666666666
            },
            {
              "pitch": 44,
              "velocity": 60,
              "position": 3,
              "duration": 0.010416666666666666
            },
            {
              "pitch": 51,
              "velocity": 50,
              "position": 3,
              "duration": 0.010416666666666666
            },
            {
              "pitch": 51,
              "velocity": 25,
              "position": 3.6875,
              "duration": 0.010416666666666666
            },
            {
              "pitch": 35,
              "velocity": 74,
              "position": 4,
              "duration": 0.010416666666666666
            },
            {
              "pitch": 51,
              "velocity": 50,
              "position": 4,
              "duration": 0.010416666666666666
            },
            {
              "pitch": 37,
              "velocity": 81,
              "position": 5,
              "duration": 0.010416666666666666
            },
            {
              "pitch": 44,
              "velocity": 60,
              "position": 5,
              "duration": 0.010416666666666666
            },
            {
              "pitch": 51,
              "velocity": 50,
              "position": 5,
              "duration": 0.010416666666666666
            },
            {
              "pitch": 51,
              "velocity": 25,
              "position": 5.6875,
              "duration": 0.010416666666666666
            },
            {
              "pitch": 35,
              "velocity": 74,
              "position": 6,
              "duration": 0.010416666666666666
            },
            {
              "pitch": 51,
              "velocity": 50,
              "position": 6,
              "duration": 0.010416666666666666
            },
            {
              "pitch": 37,
              "velocity": 81,
              "position": 7,
              "duration": 0.010416666666666666
            },
            {
              "pitch": 44,
              "velocity": 60,
              "position": 7,
              "duration": 0.010416666666666666
            },
            {
              "pitch": 51,
              "velocity": 50,
              "position": 7,
              "duration": 0.010416666666666666
            },
            {
              "pitch": 51,
              "velocity": 25,
              "position": 7.6875,
              "duration": 0.010416666666666666
            },
            {
              "pitch": 35,
              "velocity": 74,
              "position": 8,
              "duration": 0.010416666666666666
            },
            {
              "pitch": 51,
              "velocity": 50,
              "position": 8,
              "duration": 0.010416666666666666
            },
            {
              "pitch": 37,
              "velocity": 81,
              "position": 9,
              "duration": 0.010416666666666666
            },
            {
              "pitch": 44,
              "velocity": 60,
              "position": 9,
              "duration": 0.010416666666666666
            },
            {
              "pitch": 51,
              "velocity": 50,
              "position": 9,
              "duration": 0.010416666666666666
            },
            {
              "pitch": 51,
              "velocity": 25,
              "position": 9.6875,
              "duration": 0.010416666666666666
            },
            {
              "pitch": 35,
              "velocity": 74,
              "position": 10,
              "duration": 0.010416666666666666
            },
            {
              "pitch": 51,
              "velocity": 50,
              "position": 10,
              "duration": 0.010416666666666666
            },
            {
              "pitch": 37,
              "velocity": 81,
              "position": 11,
              "duration": 0.010416666666666666
            },
            {
              "pitch": 44,
              "velocity": 60,
              "position": 11,
              "duration": 0.010416666666666666
            },
            {
              "pitch": 51,
              "velocity": 50,
              "position": 11,
              "duration": 0.010416666666666666
            },
            {
              "pitch": 51,
              "velocity": 25,
              "position": 11.6875,
              "duration": 0.010416666666666666
            },
            {
              "pitch": 35,
              "velocity": 74,
              "position": 12,
              "duration": 0.010416666666666666
            },
            {
              "pitch": 51,
              "velocity": 50,
              "position": 12,
              "duration": 0.010416666666666666
            },
            {
              "pitch": 37,
              "velocity": 81,
              "position": 13,
              "duration": 0.010416666666666666
            },
            {
              "pitch": 44,
              "velocity": 60,
              "position": 13,
              "duration": 0.010416666666666666
            },
            {
              "pitch": 51,
              "velocity": 50,
              "position": 13,
              "duration": 0.010416666666666666
            },
            {
              "pitch": 51,
              "velocity": 25,
              "position": 13.6875,
              "duration": 0.010416666666666666
            },
            {
              "pitch": 35,
              "velocity": 74,
              "position": 14,
              "duration": 0.010416666666666666
            },
            {
              "pitch": 51,
              "velocity": 50,
              "position": 14,
              "duration": 0.010416666666666666
            },
            {
              "pitch": 37,
              "velocity": 81,
              "position": 15,
              "duration": 0.010416666666666666
            },
            {
              "pitch": 44,
              "velocity": 60,
              "position": 15,
              "duration": 0.010416666666666666
            },
            {
              "pitch": 51,
              "velocity": 50,
              "position": 15,
              "duration": 0.010416666666666666
            },
            {
              "pitch": 51,
              "velocity": 25,
              "position": 15.6875,
              "duration": 0.010416666666666666
            }
          ]
        },
        "10": {
          "ctab": {
            "srcChannel": 10,
            "name": "Bass",
            "accType": "BASS",
            "editable": false,
            "mutedNotes": [],
            "mutedChords": [
              "1+2+5",
              "sus4",
              "1+5",
              "1+8",
              "7aug",
              "Maj7aug",
              "7(#9)",
              "7(b13)",
              "7(b9)",
              "7(13)",
              "7#11",
              "7(9)",
              "7b5",
              "7sus4",
              "7th",
              "dim7",
              "dim",
              "minMaj7(9)",
              "minMaj7",
              "min7(11)",
              "min7(9)",
              "m7b5",
              "min7",
              "aug",
              "Maj7#11"
            ],
            "autoStart": false,
            "sourceChordNote": 0,
            "sourceChordType": "Maj",
            "ctb2Low": null,
            "ctb2Main": {
              "ntr": "ROOT_TRANSPOSITION",
              "ntt": "MELODIC_MINOR",
              "bassOn": true,
              "chordRootUpperLimit": 8,
              "noteLowLimit": 28,
              "noteHighLimit": 127,
              "rtr": "PITCH_SHIFT_TO_ROOT"
            },
            "ctb2High": null
          },
          "notes": [
            {
              "pitch": 24,
              "velocity": 80,
              "position": 0,
              "duration": 0.8125
            },
            {
              "pitch": 24,
              "velocity": 78,
              "position": 1,
              "duration": 0.8125
            },
            {
              "pitch": 31,
              "velocity": 80,
              "position": 2,
              "duration": 0.8125
            },
            {
              "pitch": 31,
              "velocity": 78,
              "position": 3,
              "duration": 0.8125
            },
            {
              "pitch": 36,
              "velocity": 80,
              "position": 4,
              "duration": 0.8125
            },
            {
              "pitch": 36,
              "velocity": 78,
              "position": 5,
              "duration": 0.8125
            },
            {
              "pitch": 31,
              "velocity": 80,
              "position": 6,
              "duration": 0.8125
            },
            {
              "pitch": 31,
              "velocity": 78,
              "position": 7,
              "duration": 0.8125
            },
            {
              "pitch": 24,
              "velocity": 80,
              "position": 8,
              "duration": 0.8125
            },
            {
              "pitch": 28,
              "velocity": 78,
              "position": 9,
              "duration": 0.8125
            },
            {
              "pitch": 31,
              "velocity": 80,
              "position": 10,
              "duration": 0.8125
            },
            {
              "pitch": 31,
              "velocity": 78,
              "position": 11,
              "duration": 0.8125
            },
            {
              "pitch": 36,
              "velocity": 80,
              "position": 12,
              "duration": 0.8125
            },
            {
              "pitch": 36,
              "velocity": 78,
              "position": 13,
              "duration": 0.8125
            },
            {
              "pitch": 31,
              "velocity": 80,
              "position": 14,
              "duration": 0.8125
            },
            {
              "pitch": 28,
              "velocity": 78,
              "position": 15,
              "duration": 0.8125
            }
          ]
        },
        "11": {
          "ctab": {
            "srcChannel": 11,
            "name": "Gt",
            "accType": "CHORD1",
            "editable": false,
            "mutedNotes": [],
            "mutedChords": [
              "1+2+5",
              "sus4",
              "1+5",
              "1+8",
              "7aug",
              "Maj7aug",
              "7(#9)",
              "7(b13)",
              "7(b9)",
              "7(13)",
              "7#11",
              "7(9)",
              "7b5",
              "7sus4",
              "7th",
              "dim7",
              "dim",
              "minMaj7(9)",
              "minMaj7",
              "min7(11)",
              "min7(9)",
              "m7b5",
              "min7",
              "aug",
              "Maj7#11"
            ],
            "autoStart": false,
            "sourceChordNote": 0,
            "sourceChordType": "Maj",
            "ctb2Low": null,
            "ctb2Main": {
              "ntr": "ROOT_TRANSPOSITION",
              "ntt": "MELODIC_MINOR",
              "bassOn": false,
              "chordRootUpperLimit": 4,
              "noteLowLimit": 54,
              "noteHighLimit": 127,
              "rtr": "PITCH_SHIFT"
            },
            "ctb2High": null
          },
          "notes": [
            {
              "pitch": 57,
              "velocity": 96,
              "position": 0,
              "duration": 0.40625
            },
            {
              "pitch": 62,
              "velocity": 69,
              "position": 0,
              "duration": 0.40625
            },
            {
              "pitch": 67,
              "velocity": 96,
              "position": 0,
              "duration": 0.40625
            },
            {
              "pitch": 57,
              "velocity": 96,
              "position": 1,
              "duration": 0.40625
            },
            {
              "pitch": 62,
              "velocity": 69,
              "position": 1,
              "duration": 0.40625
            },
            {
              "pitch": 67,
              "velocity": 96,
              "position": 1,
              "duration": 0.40625
            },
            {
              "pitch": 57,
              "velocity": 96,
              "position": 2,
              "duration": 0.40625
            },
            {
              "pitch": 62,
              "velocity": 69,
              "position": 2,
              "duration": 0.40625
            },
            {
              "pitch": 67,
              "velocity": 96,
              "position": 2,
              "duration": 0.40625
            },
            {
              "pitch": 57,
              "velocity": 96,
              "position": 3,
              "duration": 0.40625
            },
            {
              "pitch": 62,
              "velocity": 69,
              "position": 3,
              "duration": 0.40625
            },
            {
              "pitch": 67,
              "velocity": 96,
              "position": 3,
              "duration": 0.40625
            },
            {
              "pitch": 57,
              "velocity": 96,
              "position": 4,
              "duration": 0.40625
            },
            {
              "pitch": 62,
              "velocity": 69,
              "position": 4,
              "duration": 0.40625
            },
            {
              "pitch": 67,
              "velocity": 96,
              "position": 4,
              "duration": 0.40625
            },
            {
              "pitch": 57,
              "velocity": 80,
              "position": 5,
              "duration": 0.65625
            },
            {
              "pitch": 62,
              "velocity": 60,
              "position": 5,
              "duration": 0.65625
            },
            {
              "pitch": 67,
              "velocity": 80,
              "position": 5,
              "duration": 0.65625
            },
            {
              "pitch": 57,
              "velocity": 96,
              "position": 5.666666666666667,
              "duration": 0.3229166666666667
            },
            {
              "pitch": 62,
              "velocity": 69,
              "position": 5.666666666666667,
              "duration": 0.3229166666666667
            },
            {
              "pitch": 67,
              "velocity": 96,
              "position": 5.666666666666667,
              "duration": 0.3229166666666667
            },
            {
              "pitch": 57,
              "velocity": 67,
              "position": 6,
              "duration": 0.65625
            },
            {
              "pitch": 62,
              "velocity": 50,
              "position": 6,
              "duration": 0.65625
            },
            {
              "pitch": 67,
              "velocity": 67,
              "position": 6,
              "duration": 0.65625
            },
            {
              "pitch": 57,
              "velocity": 67,
              "position": 6.666666666666667,
              "duration": 0.3229166666666667
            },
            {
              "pitch": 62,
              "velocity": 50,
              "position": 6.666666666666667,
              "duration": 0.3229166666666667
            },
            {
              "pitch": 67,
              "velocity": 67,
              "position": 6.666666666666667,
              "duration": 0.3229166666666667
            },
            {
              "pitch": 57,
              "velocity": 96,
              "position": 7,
              "duration": 0.40625
            },
            {
              "pitch": 62,
              "velocity": 69,
              "position": 7,
              "duration": 0.40625
            },
            {
              "pitch": 67,
              "velocity": 96,
              "position": 7,
              "duration": 0.40625
            },
            {
              "pitch": 57,
              "velocity": 96,
              "position": 8,
              "duration": 0.40625
            },
            {
              "pitch": 62,
              "velocity": 69,
              "position": 8,
              "duration": 0.40625
            },
            {
              "pitch": 67,
              "velocity": 96,
              "position": 8,
              "duration": 0.40625
            },
            {
              "pitch": 57,
              "velocity": 96,
              "position": 9,
              "duration": 0.40625
            },
            {
              "pitch": 62,
              "velocity": 69,
              "position": 9,
              "duration": 0.40625
            },
            {
              "pitch": 67,
              "velocity": 96,
              "position": 9,
              "duration": 0.40625
            },
            {
              "pitch": 57,
              "velocity": 96,
              "position": 10,
              "duration": 0.40625
            },
            {
              "pitch": 62,
              "velocity": 69,
              "position": 10,
              "duration": 0.40625
            },
            {
              "pitch": 67,
              "velocity": 96,
              "position": 10,
              "duration": 0.40625
            },
            {
              "pitch": 57,
              "velocity": 96,
              "position": 11,
              "duration": 0.40625
            },
            {
              "pitch": 62,
              "velocity": 69,
              "position": 11,
              "duration": 0.40625
            },
            {
              "pitch": 67,
              "velocity": 96,
              "position": 11,
              "duration": 0.40625
            },
            {
              "pitch": 57,
              "velocity": 80,
              "position": 12,
              "duration": 0.65625
            },
            {
              "pitch": 62,
              "velocity": 60,
              "position": 12,
              "duration": 0.65625
            },
            {
              "pitch": 67,
              "velocity": 80,
              "position": 12,
              "duration": 0.65625
            },
            {
              "pitch": 57,
              "velocity": 96,
              "position": 12.666666666666666,
              "duration": 0.3229166666666667
            },
            {
              "pitch": 62,
              "velocity": 69,
              "position": 12.666666666666666,
              "duration": 0.3229166666666667
            },
            {
              "pitch": 67,
              "velocity": 96,
              "position": 12.666666666666666,
              "duration": 0.3229166666666667
            },
            {
              "pitch": 57,
              "velocity": 67,
              "position": 13,
              "duration": 0.40625
            },
            {
              "pitch": 62,
              "velocity": 50,
              "position": 13,
              "duration": 0.40625
            },
            {
              "pitch": 67,
              "velocity": 67,
              "position": 13,
              "duration": 0.40625
            },
            {
              "pitch": 57,
              "velocity": 96,
              "position": 14,
              "duration": 0.40625
            },
            {
              "pitch": 62,
              "velocity": 69,
              "position": 14,
              "duration": 0.40625
            },
            {
              "pitch": 67,
              "velocity": 96,
              "position": 14,
              "duration": 0.40625
            },
            {
              "pitch": 57,
              "velocity": 80,
              "position": 15,
              "duration": 0.65625
            },
            {
              "pitch": 62,
              "velocity": 60,
              "position": 15,
              "duration": 0.65625
            },
            {
              "pitch": 67,
              "velocity": 80,
              "position": 15,
              "duration": 0.65625
            },
            {
              "pitch": 57,
              "velocity": 67,
              "position": 15.666666666666666,
              "duration": 0.3229166666666667
            },
            {
              "pitch": 62,
              "velocity": 50,
              "position": 15.666666666666666,
              "duration": 0.3229166666666667
            },
            {
              "pitch": 67,
              "velocity": 67,
              "position": 15.666666666666666,
              "duration": 0.3229166666666667
            }
          ]
        },
        "12": {
          "ctab": {
            "srcChannel": 12,
            "name": "Pno",
            "accType": "CHORD2",
            "editable": false,
            "mutedNotes": [],
            "mutedChords": [
              "1+2+5",
              "sus4",
              "1+5",
              "1+8",
              "7aug",
              "Maj7aug",
              "7(#9)",
              "7(b13)",
              "7(b9)",
              "7(13)",
              "7#11",
              "7(9)",
              "7b5",
              "7sus4",
              "7th",
              "dim7",
              "dim",
              "minMaj7(9)",
              "minMaj7",
              "min7(11)",
              "min7(9)",
              "m7b5",
              "min7",
              "aug",
              "Maj7#11"
            ],
            "autoStart": false,
            "sourceChordNote": 0,
            "sourceChordType": "Maj",
            "ctb2Low": null,
            "ctb2Main": {
              "ntr": "ROOT_TRANSPOSITION",
              "ntt": "MELODIC_MINOR",
              "bassOn": false,
              "chordRootUpperLimit": 8,
              "noteLowLimit": 58,
              "noteHighLimit": 69,
              "rtr": "PITCH_SHIFT"
            },
            "ctb2High": null
          },
          "notes": [
            {
              "pitch": 57,
              "velocity": 94,
              "position": 0.6666666666666666,
              "duration": 0.28125
            },
            {
              "pitch": 60,
              "velocity": 94,
              "position": 0.6666666666666666,
              "duration": 0.28125
            },
            {
              "pitch": 64,
              "velocity": 94,
              "position": 0.6666666666666666,
              "duration": 0.28125
            },
            {
              "pitch": 67,
              "velocity": 94,
              "position": 0.6666666666666666,
              "duration": 0.28125
            },
            {
              "pitch": 57,
              "velocity": 94,
              "position": 2,
              "duration": 0.28125
            },
            {
              "pitch": 60,
              "velocity": 94,
              "position": 2,
              "duration": 0.28125
            },
            {
              "pitch": 64,
              "velocity": 94,
              "position": 2,
              "duration": 0.28125
            },
            {
              "pitch": 67,
              "velocity": 94,
              "position": 2,
              "duration": 0.28125
            },
            {
              "pitch": 57,
              "velocity": 94,
              "position": 4,
              "duration": 1.65625
            },
            {
              "pitch": 60,
              "velocity": 94,
              "position": 4,
              "duration": 1.65625
            },
            {
              "pitch": 64,
              "velocity": 94,
              "position": 4,
              "duration": 1.65625
            },
            {
              "pitch": 67,
              "velocity": 94,
              "position": 4,
              "duration": 1.65625
            },
            {
              "pitch": 57,
              "velocity": 94,
              "position": 5.666666666666667,
              "duration": 0.28125
            },
            {
              "pitch": 60,
              "velocity": 94,
              "position": 5.666666666666667,
              "duration": 0.28125
            },
            {
              "pitch": 64,
              "velocity": 94,
              "position": 5.666666666666667,
              "duration": 0.28125
            },
            {
              "pitch": 67,
              "velocity": 94,
              "position": 5.666666666666667,
              "duration": 0.28125
            },
            {
              "pitch": 57,
              "velocity": 94,
              "position": 8.666666666666666,
              "duration": 0.28125
            },
            {
              "pitch": 60,
              "velocity": 94,
              "position": 8.666666666666666,
              "duration": 0.28125
            },
            {
              "pitch": 64,
              "velocity": 94,
              "position": 8.666666666666666,
              "duration": 0.28125
            },
            {
              "pitch": 67,
              "velocity": 94,
              "position": 8.666666666666666,
              "duration": 0.28125
            },
            {
              "pitch": 57,
              "velocity": 70,
              "position": 10,
              "duration": 0.65625
            },
            {
              "pitch": 60,
              "velocity": 70,
              "position": 10,
              "duration": 0.65625
            },
            {
              "pitch": 64,
              "velocity": 70,
              "position": 10,
              "duration": 0.65625
            },
            {
              "pitch": 67,
              "velocity": 70,
              "position": 10,
              "duration": 0.65625
            },
            {
              "pitch": 57,
              "velocity": 94,
              "position": 10.666666666666666,
              "duration": 0.28125
            },
            {
              "pitch": 60,
              "velocity": 94,
              "position": 10.666666666666666,
              "duration": 0.28125
            },
            {
              "pitch": 64,
              "velocity": 94,
              "position": 10.666666666666666,
              "duration": 0.28125
            },
            {
              "pitch": 67,
              "velocity": 94,
              "position": 10.666666666666666,
              "duration": 0.28125
            },
            {
              "pitch": 60,
              "velocity": 94,
              "position": 12,
              "duration": 1.65625
            },
            {
              "pitch": 64,
              "velocity": 94,
              "position": 12,
              "duration": 1.65625
            },
            {
              "pitch": 67,
              "velocity": 94,
              "position": 12,
              "duration": 1.65625
            },
            {
              "pitch": 69,
              "velocity": 94,
              "position": 12,
              "duration": 1.65625
            },
            {
              "pitch": 60,
              "velocity": 94,
              "position": 13.666666666666666,
              "duration": 0.28125
            },
            {
              "pitch": 64,
              "velocity": 94,
              "position": 13.666666666666666,
              "duration": 0.28125
            },
            {
              "pitch": 67,
              "velocity": 94,
              "position": 13.666666666666666,
              "duration": 0.28125
            },
            {
              "pitch": 69,
              "velocity": 94,
              "position": 13.666666666666666,
              "duration": 0.28125
            }
          ]
        },
        "13": {
          "ctab": {
            "srcChannel": 13,
            "name": "Sax",
            "accType": "PAD",
            "editable": false,
            "mutedNotes": [],
            "mutedChords": [
              "1+2+5",
              "sus4",
              "1+5",
              "1+8",
              "7aug",
              "Maj7aug",
              "7(#9)",
              "7(b13)",
              "7(b9)",
              "7(13)",
              "7#11",
              "7(9)",
              "7b5",
              "7sus4",
              "7th",
              "dim7",
              "dim",
              "minMaj7(9)",
              "minMaj7",
              "min7(11)",
              "min7(9)",
              "m7b5",
              "min7",
              "aug",
              "Maj7#11"
            ],
            "autoStart": false,
            "sourceChordNote": 0,
            "sourceChordType": "Maj",
            "ctb2Low": null,
            "ctb2Main": {
              "ntr": "ROOT_TRANSPOSITION",
              "ntt": "MELODIC_MINOR",
              "bassOn": false,
              "chordRootUpperLimit": 8,
              "noteLowLimit": 0,
              "noteHighLimit": 127,
              "rtr": "PITCH_SHIFT"
            },
            "ctb2High": null
          },
          "notes": [
            {
              "pitch": 52,
              "velocity": 84,
              "position": 0.010416666666666666,
              "duration": 0.6458333333333334
            },
            {
              "pitch": 64,
              "velocity": 87,
              "position": 0.010416666666666666,
              "duration": 0.6458333333333334
            },
            {
              "pitch": 55,
              "velocity": 76,
              "position": 0.6666666666666666,
              "duration": 0.3229166666666667
            },
            {
              "pitch": 67,
              "velocity": 82,
              "position": 0.6666666666666666,
              "duration": 0.3229166666666667
            },
            {
              "pitch": 53,
              "velocity": 110,
              "position": 1,
              "duration": 0.3229166666666667
            },
            {
              "pitch": 65,
              "velocity": 94,
              "position": 1,
              "duration": 0.3229166666666667
            },
            {
              "pitch": 52,
              "velocity": 110,
              "position": 2,
              "duration": 0.3958333333333333
            },
            {
              "pitch": 64,
              "velocity": 94,
              "position": 2,
              "duration": 0.3958333333333333
            },
            {
              "pitch": 52,
              "velocity": 110,
              "position": 3.6666666666666665,
              "duration": 0.3229166666666667
            },
            {
              "pitch": 64,
              "velocity": 94,
              "position": 3.6666666666666665,
              "duration": 0.3229166666666667
            },
            {
              "pitch": 52,
              "velocity": 82,
              "position": 4,
              "duration": 0.65625
            },
            {
              "pitch": 64,
              "velocity": 75,
              "position": 4,
              "duration": 0.65625
            },
            {
              "pitch": 55,
              "velocity": 110,
              "position": 4.666666666666667,
              "duration": 0.3229166666666667
            },
            {
              "pitch": 67,
              "velocity": 94,
              "position": 4.666666666666667,
              "duration": 0.3229166666666667
            },
            {
              "pitch": 53,
              "velocity": 85,
              "position": 5,
              "duration": 0.65625
            },
            {
              "pitch": 65,
              "velocity": 75,
              "position": 5,
              "duration": 0.65625
            },
            {
              "pitch": 52,
              "velocity": 110,
              "position": 5.666666666666667,
              "duration": 0.3958333333333333
            },
            {
              "pitch": 64,
              "velocity": 94,
              "position": 5.666666666666667,
              "duration": 0.3958333333333333
            },
            {
              "pitch": 52,
              "velocity": 110,
              "position": 7.666666666666667,
              "duration": 0.3229166666666667
            },
            {
              "pitch": 64,
              "velocity": 94,
              "position": 7.666666666666667,
              "duration": 0.3229166666666667
            },
            {
              "pitch": 52,
              "velocity": 88,
              "position": 8,
              "duration": 0.65625
            },
            {
              "pitch": 64,
              "velocity": 76,
              "position": 8,
              "duration": 0.65625
            },
            {
              "pitch": 55,
              "velocity": 110,
              "position": 8.666666666666666,
              "duration": 0.3229166666666667
            },
            {
              "pitch": 67,
              "velocity": 94,
              "position": 8.666666666666666,
              "duration": 0.3229166666666667
            },
            {
              "pitch": 53,
              "velocity": 89,
              "position": 9,
              "duration": 0.65625
            },
            {
              "pitch": 65,
              "velocity": 74,
              "position": 9,
              "duration": 0.65625
            },
            {
              "pitch": 52,
              "velocity": 110,
              "position": 9.666666666666666,
              "duration": 0.3229166666666667
            },
            {
              "pitch": 64,
              "velocity": 94,
              "position": 9.666666666666666,
              "duration": 0.3229166666666667
            },
            {
              "pitch": 52,
              "velocity": 88,
              "position": 10,
              "duration": 0.65625
            },
            {
              "pitch": 64,
              "velocity": 80,
              "position": 10,
              "duration": 0.65625
            },
            {
              "pitch": 48,
              "velocity": 79,
              "position": 10.666666666666666,
              "duration": 0.3229166666666667
            },
            {
              "pitch": 60,
              "velocity": 78,
              "position": 10.666666666666666,
              "duration": 0.3229166666666667
            },
            {
              "pitch": 45,
              "velocity": 84,
              "position": 11,
              "duration": 0.3854166666666667
            },
            {
              "pitch": 57,
              "velocity": 88,
              "position": 11,
              "duration": 0.3854166666666667
            },
            {
              "pitch": 48,
              "velocity": 100,
              "position": 12,
              "duration": 1.65625
            },
            {
              "pitch": 60,
              "velocity": 95,
              "position": 12,
              "duration": 1.65625
            },
            {
              "pitch": 52,
              "velocity": 100,
              "position": 13.666666666666666,
              "duration": 0.3854166666666667
            },
            {
              "pitch": 64,
              "velocity": 94,
              "position": 13.666666666666666,
              "duration": 0.3854166666666667
            },
            {
              "pitch": 52,
              "velocity": 110,
              "position": 15.666666666666666,
              "duration": 0.3229166666666667
            },
            {
              "pitch": 64,
              "velocity": 94,
              "position": 15.666666666666666,
              "duration": 0.3229166666666667
            }
          ]
        },
        "14": {
          "ctab": {
            "srcChannel": 14,
            "name": "Brs",
            "accType": "PHRASE1",
            "editable": false,
            "mutedNotes": [],
            "mutedChords": [
              "1+2+5",
              "sus4",
              "1+5",
              "1+8",
              "7aug",
              "Maj7aug",
              "7(#9)",
              "7(b13)",
              "7(b9)",
              "7(13)",
              "7#11",
              "7(9)",
              "7b5",
              "7sus4",
              "7th",
              "dim7",
              "dim",
              "minMaj7(9)",
              "minMaj7",
              "min7(11)",
              "min7(9)",
              "m7b5",
              "min7",
              "aug",
              "Maj7#11"
            ],
            "autoStart": false,
            "sourceChordNote": 0,
            "sourceChordType": "Maj",
            "ctb2Low": null,
            "ctb2Main": {
              "ntr": "ROOT_TRANSPOSITION",
              "ntt": "MELODIC_MINOR",
              "bassOn": false,
              "chordRootUpperLimit": 8,
              "noteLowLimit": 62,
              "noteHighLimit": 73,
              "rtr": "PITCH_SHIFT"
            },
            "ctb2High": null
          },
          "notes": [
            {
              "pitch": 64,
              "velocity": 100,
              "position": 0,
              "duration": 0.2708333333333333
            },
            {
              "pitch": 67,
              "velocity": 100,
              "position": 0,
              "duration": 0.2708333333333333
            },
            {
              "pitch": 69,
              "velocity": 100,
              "position": 0,
              "duration": 0.2708333333333333
            },
            {
              "pitch": 72,
              "velocity": 100,
              "position": 0,
              "duration": 0.2708333333333333
            },
            {
              "pitch": 64,
              "velocity": 100,
              "position": 14.666666666666666,
              "duration": 0.2708333333333333
            },
            {
              "pitch": 67,
              "velocity": 100,
              "position": 14.666666666666666,
              "duration": 0.2708333333333333
            },
            {
              "pitch": 69,
              "velocity": 100,
              "position": 14.666666666666666,
              "duration": 0.2708333333333333
            },
            {
              "pitch": 72,
              "velocity": 100,
              "position": 14.666666666666666,
              "duration": 0.2708333333333333
            }
          ]
        },
        "15": {
          "ctab": {
            "srcChannel": 15,
            "name": "Tbn",
            "accType": "PHRASE2",
            "editable": false,
            "mutedNotes": [],
            "mutedChords": [
              "1+2+5",
              "sus4",
              "1+5",
              "1+8",
              "7aug",
              "Maj7aug",
              "7(#9)",
              "7(b13)",
              "7(b9)",
              "7(13)",
              "7#11",
              "7(9)",
              "7b5",
              "7sus4",
              "7th",
              "dim7",
              "dim",
              "minMaj7(9)",
              "minMaj7",
              "min7(11)",
              "min7(9)",
              "m7b5",
              "min7",
              "aug",
              "Maj7#11"
            ],
            "autoStart": false,
            "sourceChordNote": 0,
            "sourceChordType": "Maj",
            "ctb2Low": null,
            "ctb2Main": {
              "ntr": "ROOT_TRANSPOSITION",
              "ntt": "MELODIC_MINOR",
              "bassOn": false,
              "chordRootUpperLimit": 8,
              "noteLowLimit": 53,
              "noteHighLimit": 66,
              "rtr": "PITCH_SHIFT"
            },
            "ctb2High": null
          },
          "notes": [
            {
              "pitch": 55,
              "velocity": 100,
              "position": 0.6666666666666666,
              "duration": 0.28125
            },
            {
              "pitch": 57,
              "velocity": 100,
              "position": 0.6666666666666666,
              "duration": 0.28125
            },
            {
              "pitch": 60,
              "velocity": 100,
              "position": 0.6666666666666666,
              "duration": 0.28125
            },
            {
              "pitch": 64,
              "velocity": 100,
              "position": 0.6666666666666666,
              "duration": 0.28125
            },
            {
              "pitch": 55,
              "velocity": 100,
              "position": 2,
              "duration": 0.28125
            },
            {
              "pitch": 57,
              "velocity": 100,
              "position": 2,
              "duration": 0.28125
            },
            {
              "pitch": 60,
              "velocity": 100,
              "position": 2,
              "duration": 0.28125
            },
            {
              "pitch": 64,
              "velocity": 100,
              "position": 2,
              "duration": 0.28125
            },
            {
              "pitch": 55,
              "velocity": 100,
              "position": 4,
              "duration": 0.28125
            },
            {
              "pitch": 57,
              "velocity": 100,
              "position": 4,
              "duration": 0.28125
            },
            {
              "pitch": 60,
              "velocity": 100,
              "position": 4,
              "duration": 0.28125
            },
            {
              "pitch": 64,
              "velocity": 100,
              "position": 4,
              "duration": 0.28125
            },
            {
              "pitch": 55,
              "velocity": 100,
              "position": 5.666666666666667,
              "duration": 0.28125
            },
            {
              "pitch": 57,
              "velocity": 100,
              "position": 5.666666666666667,
              "duration": 0.28125
            },
            {
              "pitch": 60,
              "velocity": 100,
              "position": 5.666666666666667,
              "duration": 0.28125
            },
            {
              "pitch": 64,
              "velocity": 100,
              "position": 5.666666666666667,
              "duration": 0.28125
            },
            {
              "pitch": 55,
              "velocity": 100,
              "position": 8.666666666666666,
              "duration": 0.28125
            },
            {
              "pitch": 57,
              "velocity": 100,
              "position": 8.666666666666666,
              "duration": 0.28125
            },
            {
              "pitch": 60,
              "velocity": 100,
              "position": 8.666666666666666,
              "duration": 0.28125
            },
            {
              "pitch": 64,
              "velocity": 100,
              "position": 8.666666666666666,
              "duration": 0.28125
            },
            {
              "pitch": 55,
              "velocity": 68,
              "position": 10,
              "duration": 0.65625
            },
            {
              "pitch": 57,
              "velocity": 68,
              "position": 10,
              "duration": 0.65625
            },
            {
              "pitch": 60,
              "velocity": 68,
              "position": 10,
              "duration": 0.65625
            },
            {
              "pitch": 64,
              "velocity": 68,
              "position": 10,
              "duration": 0.65625
            },
            {
              "pitch": 55,
              "velocity": 100,
              "position": 10.666666666666666,
              "duration": 0.28125
            },
            {
              "pitch": 57,
              "velocity": 100,
              "position": 10.666666666666666,
              "duration": 0.28125
            },
            {
              "pitch": 60,
              "velocity": 100,
              "position": 10.666666666666666,
              "duration": 0.28125
            },
            {
              "pitch": 64,
              "velocity": 100,
              "position": 10.666666666666666,
              "duration": 0.28125
            },
            {
              "pitch": 55,
              "velocity": 100,
              "position": 12,
              "duration": 0.28125
            },
            {
              "pitch": 57,
              "velocity": 100,
              "position": 12,
              "duration": 0.28125
            },
            {
              "pitch": 60,
              "velocity": 100,
              "position": 12,
              "duration": 0.28125
            },
            {
              "pitch": 64,
              "velocity": 100,
              "position": 12,
              "duration": 0.28125
            },
            {
              "pitch": 55,
              "velocity": 100,
              "position": 13.666666666666666,
              "duration": 0.28125
            },
            {
              "pitch": 57,
              "velocity": 100,
              "position": 13.666666666666666,
              "duration": 0.28125
            },
            {
              "pitch": 60,
              "velocity": 100,
              "position": 13.666666666666666,
              "duration": 0.28125
            },
            {
              "pitch": 64,
              "velocity": 100,
              "position": 13.666666666666666,
              "duration": 0.28125
            }
          ]
        }
      }
    },
    "Main_D": {
      "type": "Main_D",
      "sizeInBeats": 32,
      "channels": {
        "0": {
          "ctab": {
            "srcChannel": 0,
            "name": "CC_Crash",
            "accType": "RHYTHM",
            "editable": false,
            "mutedNotes": [],
            "mutedChords": [
              "1+2+5",
              "sus4",
              "1+5",
              "1+8",
              "7aug",
              "Maj7aug",
              "7(#9)",
              "7(b13)",
              "7(b9)",
              "7(13)",
              "7#11",
              "7(9)",
              "7b5",
              "7sus4",
              "7th",
              "dim7",
              "dim",
              "minMaj7(9)",
              "minMaj7",
              "min7(11)",
              "min7(9)",
              "min(9)",
              "m7b5",
              "min7",
              "min6",
              "min",
              "aug",
              "Maj6(9)",
              "Maj7(9)",
              "Maj(9)",
              "Maj7#11",
              "Maj7",
              "Maj6",
              "Maj"
            ],
            "autoStart": true,
            "sourceChordNote": 0,
            "sourceChordType": "Maj",
            "ctb2Low": null,
            "ctb2Main": {
              "ntr": "ROOT_FIXED",
              "ntt": "BYPASS",
              "bassOn": false,
              "chordRootUpperLimit": 0,
              "noteLowLimit": 0,
              "noteHighLimit": 127,
              "rtr": "RETRIGGER"
            },
            "ctb2High": null
          },
          "notes": []
        },
        "1": {
          "ctab": {
            "srcChannel": 1,
            "name": "Bass",
            "accType": "BASS",
            "editable": false,
            "mutedNotes": [],
            "mutedChords": [
              "1+2+5",
              "sus4",
              "1+5",
              "1+8",
              "dim",
              "min(9)",
              "m7b5",
              "min6",
              "min",
              "aug",
              "Maj6(9)",
              "Maj7(9)",
              "Maj(9)",
              "Maj7",
              "Maj6",
              "Maj"
            ],
            "autoStart": false,
            "sourceChordNote": 0,
            "sourceChordType": "Maj7",
            "ctb2Low": null,
            "ctb2Main": {
              "ntr": "ROOT_TRANSPOSITION",
              "ntt": "MELODY",
              "bassOn": true,
              "chordRootUpperLimit": 8,
              "noteLowLimit": 28,
              "noteHighLimit": 127,
              "rtr": "PITCH_SHIFT_TO_ROOT"
            },
            "ctb2High": null
          },
          "notes": [
            {
              "pitch": 24,
              "velocity": 80,
              "position": 0,
              "duration": 0.8125
            },
            {
              "pitch": 28,
              "velocity": 78,
              "position": 1,
              "duration": 0.8125
            },
            {
              "pitch": 31,
              "velocity": 80,
              "position": 2,
              "duration": 0.8125
            },
            {
              "pitch": 33,
              "velocity": 78,
              "position": 3,
              "duration": 0.8125
            },
            {
              "pitch": 36,
              "velocity": 80,
              "position": 4,
              "duration": 0.8125
            },
            {
              "pitch": 33,
              "velocity": 78,
              "position": 5,
              "duration": 0.8125
            },
            {
              "pitch": 31,
              "velocity": 80,
              "position": 6,
              "duration": 0.8125
            },
            {
              "pitch": 28,
              "velocity": 78,
              "position": 7,
              "duration": 0.9895833333333334
            },
            {
              "pitch": 24,
              "velocity": 80,
              "position": 8,
              "duration": 0.8125
            },
            {
              "pitch": 28,
              "velocity": 78,
              "position": 9,
              "duration": 0.8125
            },
            {
              "pitch": 31,
              "velocity": 80,
              "position": 10,
              "duration": 0.8125
            },
            {
              "pitch": 33,
              "velocity": 78,
              "position": 11,
              "duration": 0.8125
            },
            {
              "pitch": 36,
              "velocity": 80,
              "position": 12,
              "duration": 0.8125
            },
            {
              "pitch": 33,
              "velocity": 78,
              "position": 13,
              "duration": 0.8125
            },
            {
              "pitch": 31,
              "velocity": 80,
              "position": 14,
              "duration": 0.8125
            },
            {
              "pitch": 28,
              "velocity": 78,
              "position": 15,
              "duration": 0.8125
            },
            {
              "pitch": 24,
              "velocity": 80,
              "position": 16,
              "duration": 0.8125
            },
            {
              "pitch": 28,
              "velocity": 78,
              "position": 17,
              "duration": 0.8125
            },
            {
              "pitch": 31,
              "velocity": 80,
              "position": 18,
              "duration": 0.8125
            },
            {
              "pitch": 33,
              "velocity": 78,
              "position": 19,
              "duration": 0.8125
            },
            {
              "pitch": 36,
              "velocity": 80,
              "position": 20,
              "duration": 0.8125
            },
            {
              "pitch": 33,
              "velocity": 78,
              "position": 21,
              "duration": 0.8125
            },
            {
              "pitch": 31,
              "velocity": 80,
              "position": 22,
              "duration": 0.8125
            },
            {
              "pitch": 28,
              "velocity": 78,
              "position": 23,
              "duration": 0.9895833333333334
            },
            {
              "pitch": 24,
              "velocity": 80,
              "position": 24,
              "duration": 0.8125
            },
            {
              "pitch": 28,
              "velocity": 78,
              "position": 25,
              "duration": 0.8125
            },
            {
              "pitch": 31,
              "velocity": 80,
              "position": 26,
              "duration": 0.8125
            },
            {
              "pitch": 33,
              "velocity": 78,
              "position": 27,
              "duration": 0.8125
            },
            {
              "pitch": 36,
              "velocity": 80,
              "position": 28,
              "duration": 0.8125
            },
            {
              "pitch": 33,
              "velocity": 78,
              "position": 29,
              "duration": 0.8125
            },
            {
              "pitch": 31,
              "velocity": 80,
              "position": 30,
              "duration": 0.8125
            },
            {
              "pitch": 28,
              "velocity": 78,
              "position": 31,
              "duration": 0.8125
            }
          ]
        },
        "2": {
          "ctab": {
            "srcChannel": 2,
            "name": "Gt",
            "accType": "CHORD1",
            "editable": false,
            "mutedNotes": [],
            "mutedChords": [
              "min(9)",
              "min6",
              "min",
              "Maj6(9)",
              "Maj7(9)",
              "Maj(9)",
              "Maj7",
              "Maj6",
              "Maj"
            ],
            "autoStart": false,
            "sourceChordNote": 0,
            "sourceChordType": "Maj7",
            "ctb2Low": null,
            "ctb2Main": {
              "ntr": "ROOT_FIXED",
              "ntt": "CHORD",
              "bassOn": false,
              "chordRootUpperLimit": 8,
              "noteLowLimit": 0,
              "noteHighLimit": 127,
              "rtr": "PITCH_SHIFT"
            },
            "ctb2High": null
          },
          "notes": [
            {
              "pitch": 55,
              "velocity": 96,
              "position": 0,
              "duration": 0.40625
            },
            {
              "pitch": 59,
              "velocity": 96,
              "position": 0,
              "duration": 0.40625
            },
            {
              "pitch": 64,
              "velocity": 96,
              "position": 0,
              "duration": 0.40625
            },
            {
              "pitch": 55,
              "velocity": 96,
              "position": 1,
              "duration": 0.40625
            },
            {
              "pitch": 59,
              "velocity": 96,
              "position": 1,
              "duration": 0.40625
            },
            {
              "pitch": 64,
              "velocity": 96,
              "position": 1,
              "duration": 0.40625
            },
            {
              "pitch": 55,
              "velocity": 96,
              "position": 2,
              "duration": 0.40625
            },
            {
              "pitch": 59,
              "velocity": 96,
              "position": 2,
              "duration": 0.40625
            },
            {
              "pitch": 64,
              "velocity": 96,
              "position": 2,
              "duration": 0.40625
            },
            {
              "pitch": 55,
              "velocity": 96,
              "position": 3,
              "duration": 0.40625
            },
            {
              "pitch": 59,
              "velocity": 96,
              "position": 3,
              "duration": 0.40625
            },
            {
              "pitch": 64,
              "velocity": 96,
              "position": 3,
              "duration": 0.40625
            },
            {
              "pitch": 55,
              "velocity": 96,
              "position": 4,
              "duration": 0.40625
            },
            {
              "pitch": 59,
              "velocity": 96,
              "position": 4,
              "duration": 0.40625
            },
            {
              "pitch": 64,
              "velocity": 96,
              "position": 4,
              "duration": 0.40625
            },
            {
              "pitch": 55,
              "velocity": 80,
              "position": 5,
              "duration": 0.65625
            },
            {
              "pitch": 59,
              "velocity": 80,
              "position": 5,
              "duration": 0.65625
            },
            {
              "pitch": 64,
              "velocity": 80,
              "position": 5,
              "duration": 0.65625
            },
            {
              "pitch": 55,
              "velocity": 96,
              "position": 5.666666666666667,
              "duration": 0.3229166666666667
            },
            {
              "pitch": 59,
              "velocity": 96,
              "position": 5.666666666666667,
              "duration": 0.3229166666666667
            },
            {
              "pitch": 64,
              "velocity": 96,
              "position": 5.666666666666667,
              "duration": 0.3229166666666667
            },
            {
              "pitch": 55,
              "velocity": 67,
              "position": 6,
              "duration": 0.65625
            },
            {
              "pitch": 59,
              "velocity": 67,
              "position": 6,
              "duration": 0.65625
            },
            {
              "pitch": 64,
              "velocity": 67,
              "position": 6,
              "duration": 0.65625
            },
            {
              "pitch": 55,
              "velocity": 67,
              "position": 6.666666666666667,
              "duration": 0.3229166666666667
            },
            {
              "pitch": 59,
              "velocity": 67,
              "position": 6.666666666666667,
              "duration": 0.3229166666666667
            },
            {
              "pitch": 64,
              "velocity": 67,
              "position": 6.666666666666667,
              "duration": 0.3229166666666667
            },
            {
              "pitch": 55,
              "velocity": 96,
              "position": 7,
              "duration": 0.40625
            },
            {
              "pitch": 59,
              "velocity": 96,
              "position": 7,
              "duration": 0.40625
            },
            {
              "pitch": 64,
              "velocity": 96,
              "position": 7,
              "duration": 0.40625
            },
            {
              "pitch": 55,
              "velocity": 96,
              "position": 8,
              "duration": 0.40625
            },
            {
              "pitch": 59,
              "velocity": 96,
              "position": 8,
              "duration": 0.40625
            },
            {
              "pitch": 64,
              "velocity": 96,
              "position": 8,
              "duration": 0.40625
            },
            {
              "pitch": 55,
              "velocity": 96,
              "position": 9,
              "duration": 0.40625
            },
            {
              "pitch": 59,
              "velocity": 96,
              "position": 9,
              "duration": 0.40625
            },
            {
              "pitch": 64,
              "velocity": 96,
              "position": 9,
              "duration": 0.40625
            },
            {
              "pitch": 55,
              "velocity": 96,
              "position": 10,
              "duration": 0.40625
            },
            {
              "pitch": 59,
              "velocity": 96,
              "position": 10,
              "duration": 0.40625
            },
            {
              "pitch": 64,
              "velocity": 96,
              "position": 10,
              "duration": 0.40625
            },
            {
              "pitch": 55,
              "velocity": 96,
              "position": 11,
              "duration": 0.40625
            },
            {
              "pitch": 59,
              "velocity": 96,
              "position": 11,
              "duration": 0.40625
            },
            {
              "pitch": 64,
              "velocity": 96,
              "position": 11,
              "duration": 0.40625
            },
            {
              "pitch": 55,
              "velocity": 80,
              "position": 12,
              "duration": 0.65625
            },
            {
              "pitch": 59,
              "velocity": 80,
              "position": 12,
              "duration": 0.65625
            },
            {
              "pitch": 64,
              "velocity": 80,
              "position": 12,
              "duration": 0.65625
            },
            {
              "pitch": 55,
              "velocity": 96,
              "position": 12.666666666666666,
              "duration": 0.3229166666666667
            },
            {
              "pitch": 59,
              "velocity": 96,
              "position": 12.666666666666666,
              "duration": 0.3229166666666667
            },
            {
              "pitch": 64,
              "velocity": 96,
              "position": 12.666666666666666,
              "duration": 0.3229166666666667
            },
            {
              "pitch": 55,
              "velocity": 67,
              "position": 13,
              "duration": 0.40625
            },
            {
              "pitch": 59,
              "velocity": 67,
              "position": 13,
              "duration": 0.40625
            },
            {
              "pitch": 64,
              "velocity": 67,
              "position": 13,
              "duration": 0.40625
            },
            {
              "pitch": 55,
              "velocity": 96,
              "position": 14,
              "duration": 0.40625
            },
            {
              "pitch": 59,
              "velocity": 96,
              "position": 14,
              "duration": 0.40625
            },
            {
              "pitch": 64,
              "velocity": 96,
              "position": 14,
              "duration": 0.40625
            },
            {
              "pitch": 55,
              "velocity": 80,
              "position": 15,
              "duration": 0.65625
            },
            {
              "pitch": 59,
              "velocity": 80,
              "position": 15,
              "duration": 0.65625
            },
            {
              "pitch": 64,
              "velocity": 80,
              "position": 15,
              "duration": 0.65625
            },
            {
              "pitch": 55,
              "velocity": 67,
              "position": 15.666666666666666,
              "duration": 0.3229166666666667
            },
            {
              "pitch": 59,
              "velocity": 67,
              "position": 15.666666666666666,
              "duration": 0.3229166666666667
            },
            {
              "pitch": 64,
              "velocity": 67,
              "position": 15.666666666666666,
              "duration": 0.3229166666666667
            },
            {
              "pitch": 55,
              "velocity": 96,
              "position": 16,
              "duration": 0.40625
            },
            {
              "pitch": 59,
              "velocity": 96,
              "position": 16,
              "duration": 0.40625
            },
            {
              "pitch": 64,
              "velocity": 96,
              "position": 16,
              "duration": 0.40625
            },
            {
              "pitch": 55,
              "velocity": 96,
              "position": 17,
              "duration": 0.40625
            },
            {
              "pitch": 59,
              "velocity": 96,
              "position": 17,
              "duration": 0.40625
            },
            {
              "pitch": 64,
              "velocity": 96,
              "position": 17,
              "duration": 0.40625
            },
            {
              "pitch": 55,
              "velocity": 96,
              "position": 18,
              "duration": 0.40625
            },
            {
              "pitch": 59,
              "velocity": 96,
              "position": 18,
              "duration": 0.40625
            },
            {
              "pitch": 64,
              "velocity": 96,
              "position": 18,
              "duration": 0.40625
            },
            {
              "pitch": 55,
              "velocity": 96,
              "position": 19,
              "duration": 0.40625
            },
            {
              "pitch": 59,
              "velocity": 96,
              "position": 19,
              "duration": 0.40625
            },
            {
              "pitch": 64,
              "velocity": 96,
              "position": 19,
              "duration": 0.40625
            },
            {
              "pitch": 55,
              "velocity": 96,
              "position": 20,
              "duration": 0.40625
            },
            {
              "pitch": 59,
              "velocity": 96,
              "position": 20,
              "duration": 0.40625
            },
            {
              "pitch": 64,
              "velocity": 96,
              "position": 20,
              "duration": 0.40625
            },
            {
              "pitch": 55,
              "velocity": 80,
              "position": 21,
              "duration": 0.65625
            },
            {
              "pitch": 59,
              "velocity": 80,
              "position": 21,
              "duration": 0.65625
            },
            {
              "pitch": 64,
              "velocity": 80,
              "position": 21,
              "duration": 0.65625
            },
            {
              "pitch": 55,
              "velocity": 96,
              "position": 21.666666666666668,
              "duration": 0.3229166666666667
            },
            {
              "pitch": 59,
              "velocity": 96,
              "position": 21.666666666666668,
              "duration": 0.3229166666666667
            },
            {
              "pitch": 64,
              "velocity": 96,
              "position": 21.666666666666668,
              "duration": 0.3229166666666667
            },
            {
              "pitch": 55,
              "velocity": 67,
              "position": 22,
              "duration": 0.65625
            },
            {
              "pitch": 59,
              "velocity": 67,
              "position": 22,
              "duration": 0.65625
            },
            {
              "pitch": 64,
              "velocity": 67,
              "position": 22,
              "duration": 0.65625
            },
            {
              "pitch": 55,
              "velocity": 67,
              "position": 22.666666666666668,
              "duration": 0.3229166666666667
            },
            {
              "pitch": 59,
              "velocity": 67,
              "position": 22.666666666666668,
              "duration": 0.3229166666666667
            },
            {
              "pitch": 64,
              "velocity": 67,
              "position": 22.666666666666668,
              "duration": 0.3229166666666667
            },
            {
              "pitch": 55,
              "velocity": 96,
              "position": 23,
              "duration": 0.40625
            },
            {
              "pitch": 59,
              "velocity": 96,
              "position": 23,
              "duration": 0.40625
            },
            {
              "pitch": 64,
              "velocity": 96,
              "position": 23,
              "duration": 0.40625
            },
            {
              "pitch": 55,
              "velocity": 96,
              "position": 24,
              "duration": 0.40625
            },
            {
              "pitch": 59,
              "velocity": 96,
              "position": 24,
              "duration": 0.40625
            },
            {
              "pitch": 64,
              "velocity": 96,
              "position": 24,
              "duration": 0.40625
            },
            {
              "pitch": 55,
              "velocity": 96,
              "position": 25,
              "duration": 0.40625
            },
            {
              "pitch": 59,
              "velocity": 96,
              "position": 25,
              "duration": 0.40625
            },
            {
              "pitch": 64,
              "velocity": 96,
              "position": 25,
              "duration": 0.40625
            },
            {
              "pitch": 55,
              "velocity": 96,
              "position": 26,
              "duration": 0.40625
            },
            {
              "pitch": 59,
              "velocity": 96,
              "position": 26,
              "duration": 0.40625
            },
            {
              "pitch": 64,
              "velocity": 96,
              "position": 26,
              "duration": 0.40625
            },
            {
              "pitch": 55,
              "velocity": 96,
              "position": 27,
              "duration": 0.40625
            },
            {
              "pitch": 59,
              "velocity": 96,
              "position": 27,
              "duration": 0.40625
            },
            {
              "pitch": 64,
              "velocity": 96,
              "position": 27,
              "duration": 0.40625
            },
            {
              "pitch": 55,
              "velocity": 80,
              "position": 28,
              "duration": 0.65625
            },
            {
              "pitch": 59,
              "velocity": 80,
              "position": 28,
              "duration": 0.65625
            },
            {
              "pitch": 64,
              "velocity": 80,
              "position": 28,
              "duration": 0.65625
            },
            {
              "pitch": 55,
              "velocity": 96,
              "position": 28.666666666666668,
              "duration": 0.3229166666666667
            },
            {
              "pitch": 59,
              "velocity": 96,
              "position": 28.666666666666668,
              "duration": 0.3229166666666667
            },
            {
              "pitch": 64,
              "velocity": 96,
              "position": 28.666666666666668,
              "duration": 0.3229166666666667
            },
            {
              "pitch": 55,
              "velocity": 67,
              "position": 29,
              "duration": 0.40625
            },
            {
              "pitch": 59,
              "velocity": 67,
              "position": 29,
              "duration": 0.40625
            },
            {
              "pitch": 64,
              "velocity": 67,
              "position": 29,
              "duration": 0.40625
            },
            {
              "pitch": 55,
              "velocity": 96,
              "position": 30,
              "duration": 0.40625
            },
            {
              "pitch": 59,
              "velocity": 96,
              "position": 30,
              "duration": 0.40625
            },
            {
              "pitch": 64,
              "velocity": 96,
              "position": 30,
              "duration": 0.40625
            },
            {
              "pitch": 55,
              "velocity": 80,
              "position": 31,
              "duration": 0.65625
            },
            {
              "pitch": 59,
              "velocity": 80,
              "position": 31,
              "duration": 0.65625
            },
            {
              "pitch": 64,
              "velocity": 80,
              "position": 31,
              "duration": 0.65625
            },
            {
              "pitch": 55,
              "velocity": 67,
              "position": 31.666666666666668,
              "duration": 0.3229166666666667
            },
            {
              "pitch": 59,
              "velocity": 67,
              "position": 31.666666666666668,
              "duration": 0.3229166666666667
            },
            {
              "pitch": 64,
              "velocity": 67,
              "position": 31.666666666666668,
              "duration": 0.3229166666666667
            }
          ]
        },
        "3": {
          "ctab": {
            "srcChannel": 3,
            "name": "Pno",
            "accType": "CHORD2",
            "editable": false,
            "mutedNotes": [],
            "mutedChords": [
              "min(9)",
              "min6",
              "min",
              "Maj6(9)",
              "Maj7(9)",
              "Maj(9)",
              "Maj7",
              "Maj6",
              "Maj"
            ],
            "autoStart": false,
            "sourceChordNote": 0,
            "sourceChordType": "Maj7",
            "ctb2Low": null,
            "ctb2Main": {
              "ntr": "ROOT_FIXED",
              "ntt": "CHORD",
              "bassOn": false,
              "chordRootUpperLimit": 8,
              "noteLowLimit": 0,
              "noteHighLimit": 127,
              "rtr": "PITCH_SHIFT"
            },
            "ctb2High": null
          },
          "notes": [
            {
              "pitch": 59,
              "velocity": 94,
              "position": 0.6666666666666666,
              "duration": 0.28125
            },
            {
              "pitch": 64,
              "velocity": 94,
              "position": 0.6666666666666666,
              "duration": 0.28125
            },
            {
              "pitch": 67,
              "velocity": 94,
              "position": 0.6666666666666666,
              "duration": 0.28125
            },
            {
              "pitch": 59,
              "velocity": 94,
              "position": 2,
              "duration": 0.28125
            },
            {
              "pitch": 64,
              "velocity": 94,
              "position": 2,
              "duration": 0.28125
            },
            {
              "pitch": 67,
              "velocity": 94,
              "position": 2,
              "duration": 0.28125
            },
            {
              "pitch": 59,
              "velocity": 94,
              "position": 4,
              "duration": 1.65625
            },
            {
              "pitch": 64,
              "velocity": 94,
              "position": 4,
              "duration": 1.65625
            },
            {
              "pitch": 67,
              "velocity": 94,
              "position": 4,
              "duration": 1.65625
            },
            {
              "pitch": 59,
              "velocity": 94,
              "position": 5.666666666666667,
              "duration": 0.28125
            },
            {
              "pitch": 64,
              "velocity": 94,
              "position": 5.666666666666667,
              "duration": 0.28125
            },
            {
              "pitch": 67,
              "velocity": 94,
              "position": 5.666666666666667,
              "duration": 0.28125
            },
            {
              "pitch": 59,
              "velocity": 94,
              "position": 8.666666666666666,
              "duration": 0.28125
            },
            {
              "pitch": 64,
              "velocity": 94,
              "position": 8.666666666666666,
              "duration": 0.28125
            },
            {
              "pitch": 67,
              "velocity": 94,
              "position": 8.666666666666666,
              "duration": 0.28125
            },
            {
              "pitch": 59,
              "velocity": 70,
              "position": 10,
              "duration": 0.65625
            },
            {
              "pitch": 64,
              "velocity": 70,
              "position": 10,
              "duration": 0.65625
            },
            {
              "pitch": 67,
              "velocity": 70,
              "position": 10,
              "duration": 0.65625
            },
            {
              "pitch": 59,
              "velocity": 94,
              "position": 10.666666666666666,
              "duration": 0.28125
            },
            {
              "pitch": 64,
              "velocity": 94,
              "position": 10.666666666666666,
              "duration": 0.28125
            },
            {
              "pitch": 67,
              "velocity": 94,
              "position": 10.666666666666666,
              "duration": 0.28125
            },
            {
              "pitch": 59,
              "velocity": 94,
              "position": 12,
              "duration": 1.65625
            },
            {
              "pitch": 64,
              "velocity": 94,
              "position": 12,
              "duration": 1.65625
            },
            {
              "pitch": 67,
              "velocity": 94,
              "position": 12,
              "duration": 1.65625
            },
            {
              "pitch": 59,
              "velocity": 94,
              "position": 13.666666666666666,
              "duration": 0.28125
            },
            {
              "pitch": 64,
              "velocity": 94,
              "position": 13.666666666666666,
              "duration": 0.28125
            },
            {
              "pitch": 67,
              "velocity": 94,
              "position": 13.666666666666666,
              "duration": 0.28125
            },
            {
              "pitch": 59,
              "velocity": 94,
              "position": 16.666666666666668,
              "duration": 0.28125
            },
            {
              "pitch": 64,
              "velocity": 94,
              "position": 16.666666666666668,
              "duration": 0.28125
            },
            {
              "pitch": 67,
              "velocity": 94,
              "position": 16.666666666666668,
              "duration": 0.28125
            },
            {
              "pitch": 59,
              "velocity": 94,
              "position": 18,
              "duration": 0.28125
            },
            {
              "pitch": 64,
              "velocity": 94,
              "position": 18,
              "duration": 0.28125
            },
            {
              "pitch": 67,
              "velocity": 94,
              "position": 18,
              "duration": 0.28125
            },
            {
              "pitch": 59,
              "velocity": 94,
              "position": 20,
              "duration": 1.65625
            },
            {
              "pitch": 64,
              "velocity": 94,
              "position": 20,
              "duration": 1.65625
            },
            {
              "pitch": 67,
              "velocity": 94,
              "position": 20,
              "duration": 1.65625
            },
            {
              "pitch": 59,
              "velocity": 94,
              "position": 21.666666666666668,
              "duration": 0.28125
            },
            {
              "pitch": 64,
              "velocity": 94,
              "position": 21.666666666666668,
              "duration": 0.28125
            },
            {
              "pitch": 67,
              "velocity": 94,
              "position": 21.666666666666668,
              "duration": 0.28125
            },
            {
              "pitch": 59,
              "velocity": 94,
              "position": 24.666666666666668,
              "duration": 0.28125
            },
            {
              "pitch": 64,
              "velocity": 94,
              "position": 24.666666666666668,
              "duration": 0.28125
            },
            {
              "pitch": 67,
              "velocity": 94,
              "position": 24.666666666666668,
              "duration": 0.28125
            },
            {
              "pitch": 59,
              "velocity": 70,
              "position": 26,
              "duration": 0.65625
            },
            {
              "pitch": 64,
              "velocity": 70,
              "position": 26,
              "duration": 0.65625
            },
            {
              "pitch": 67,
              "velocity": 70,
              "position": 26,
              "duration": 0.65625
            },
            {
              "pitch": 59,
              "velocity": 94,
              "position": 26.666666666666668,
              "duration": 0.28125
            },
            {
              "pitch": 64,
              "velocity": 94,
              "position": 26.666666666666668,
              "duration": 0.28125
            },
            {
              "pitch": 67,
              "velocity": 94,
              "position": 26.666666666666668,
              "duration": 0.28125
            },
            {
              "pitch": 59,
              "velocity": 94,
              "position": 28,
              "duration": 1.65625
            },
            {
              "pitch": 64,
              "velocity": 94,
              "position": 28,
              "duration": 1.65625
            },
            {
              "pitch": 67,
              "velocity": 94,
              "position": 28,
              "duration": 1.65625
            },
            {
              "pitch": 59,
              "velocity": 94,
              "position": 29.666666666666668,
              "duration": 0.28125
            },
            {
              "pitch": 64,
              "velocity": 94,
              "position": 29.666666666666668,
              "duration": 0.28125
            },
            {
              "pitch": 67,
              "velocity": 94,
              "position": 29.666666666666668,
              "duration": 0.28125
            }
          ]
        },
        "4": {
          "ctab": {
            "srcChannel": 4,
            "name": "Sax",
            "accType": "PAD",
            "editable": false,
            "mutedNotes": [],
            "mutedChords": [
              "min(9)",
              "min6",
              "min",
              "Maj6(9)",
              "Maj7(9)",
              "Maj(9)",
              "Maj7",
              "Maj6",
              "Maj"
            ],
            "autoStart": false,
            "sourceChordNote": 0,
            "sourceChordType": "Maj7",
            "ctb2Low": null,
            "ctb2Main": {
              "ntr": "ROOT_TRANSPOSITION",
              "ntt": "MELODY",
              "bassOn": false,
              "chordRootUpperLimit": 8,
              "noteLowLimit": 0,
              "noteHighLimit": 127,
              "rtr": "PITCH_SHIFT"
            },
            "ctb2High": null
          },
          "notes": [
            {
              "pitch": 55,
              "velocity": 78,
              "position": 0.010416666666666666,
              "duration": 0.6458333333333334
            },
            {
              "pitch": 59,
              "velocity": 78,
              "position": 0.010416666666666666,
              "duration": 0.6458333333333334
            },
            {
              "pitch": 64,
              "velocity": 78,
              "position": 0.010416666666666666,
              "duration": 0.6458333333333334
            },
            {
              "pitch": 59,
              "velocity": 112,
              "position": 0.6666666666666666,
              "duration": 0.3229166666666667
            },
            {
              "pitch": 64,
              "velocity": 112,
              "position": 0.6666666666666666,
              "duration": 0.3229166666666667
            },
            {
              "pitch": 67,
              "velocity": 112,
              "position": 0.6666666666666666,
              "duration": 0.3229166666666667
            },
            {
              "pitch": 55,
              "velocity": 80,
              "position": 1,
              "duration": 0.65625
            },
            {
              "pitch": 59,
              "velocity": 80,
              "position": 1,
              "duration": 0.65625
            },
            {
              "pitch": 64,
              "velocity": 80,
              "position": 1,
              "duration": 0.65625
            },
            {
              "pitch": 55,
              "velocity": 98,
              "position": 1.6666666666666667,
              "duration": 0.3229166666666667
            },
            {
              "pitch": 59,
              "velocity": 98,
              "position": 1.6666666666666667,
              "duration": 0.3229166666666667
            },
            {
              "pitch": 64,
              "velocity": 98,
              "position": 1.6666666666666667,
              "duration": 0.3229166666666667
            },
            {
              "pitch": 55,
              "velocity": 80,
              "position": 2,
              "duration": 0.4375
            },
            {
              "pitch": 59,
              "velocity": 80,
              "position": 2,
              "duration": 0.4375
            },
            {
              "pitch": 64,
              "velocity": 80,
              "position": 2,
              "duration": 0.4375
            },
            {
              "pitch": 55,
              "velocity": 112,
              "position": 3.6666666666666665,
              "duration": 0.3229166666666667
            },
            {
              "pitch": 59,
              "velocity": 112,
              "position": 3.6666666666666665,
              "duration": 0.3229166666666667
            },
            {
              "pitch": 55,
              "velocity": 78,
              "position": 4,
              "duration": 0.65625
            },
            {
              "pitch": 59,
              "velocity": 78,
              "position": 4,
              "duration": 0.65625
            },
            {
              "pitch": 64,
              "velocity": 78,
              "position": 4,
              "duration": 0.65625
            },
            {
              "pitch": 59,
              "velocity": 112,
              "position": 4.666666666666667,
              "duration": 0.3229166666666667
            },
            {
              "pitch": 64,
              "velocity": 112,
              "position": 4.666666666666667,
              "duration": 0.3229166666666667
            },
            {
              "pitch": 67,
              "velocity": 112,
              "position": 4.666666666666667,
              "duration": 0.3229166666666667
            },
            {
              "pitch": 55,
              "velocity": 80,
              "position": 5,
              "duration": 0.65625
            },
            {
              "pitch": 59,
              "velocity": 80,
              "position": 5,
              "duration": 0.65625
            },
            {
              "pitch": 64,
              "velocity": 80,
              "position": 5,
              "duration": 0.65625
            },
            {
              "pitch": 55,
              "velocity": 98,
              "position": 5.666666666666667,
              "duration": 0.3229166666666667
            },
            {
              "pitch": 59,
              "velocity": 98,
              "position": 5.666666666666667,
              "duration": 0.3229166666666667
            },
            {
              "pitch": 64,
              "velocity": 98,
              "position": 5.666666666666667,
              "duration": 0.3229166666666667
            },
            {
              "pitch": 55,
              "velocity": 80,
              "position": 6,
              "duration": 0.4375
            },
            {
              "pitch": 59,
              "velocity": 80,
              "position": 6,
              "duration": 0.4375
            },
            {
              "pitch": 64,
              "velocity": 80,
              "position": 6,
              "duration": 0.4375
            },
            {
              "pitch": 55,
              "velocity": 112,
              "position": 7.666666666666667,
              "duration": 0.3229166666666667
            },
            {
              "pitch": 59,
              "velocity": 112,
              "position": 7.666666666666667,
              "duration": 0.3229166666666667
            },
            {
              "pitch": 55,
              "velocity": 78,
              "position": 8,
              "duration": 0.65625
            },
            {
              "pitch": 59,
              "velocity": 78,
              "position": 8,
              "duration": 0.65625
            },
            {
              "pitch": 64,
              "velocity": 78,
              "position": 8,
              "duration": 0.65625
            },
            {
              "pitch": 59,
              "velocity": 112,
              "position": 8.666666666666666,
              "duration": 0.3229166666666667
            },
            {
              "pitch": 64,
              "velocity": 112,
              "position": 8.666666666666666,
              "duration": 0.3229166666666667
            },
            {
              "pitch": 67,
              "velocity": 112,
              "position": 8.666666666666666,
              "duration": 0.3229166666666667
            },
            {
              "pitch": 55,
              "velocity": 80,
              "position": 9,
              "duration": 0.65625
            },
            {
              "pitch": 59,
              "velocity": 80,
              "position": 9,
              "duration": 0.65625
            },
            {
              "pitch": 64,
              "velocity": 80,
              "position": 9,
              "duration": 0.65625
            },
            {
              "pitch": 55,
              "velocity": 98,
              "position": 9.666666666666666,
              "duration": 0.3229166666666667
            },
            {
              "pitch": 59,
              "velocity": 98,
              "position": 9.666666666666666,
              "duration": 0.3229166666666667
            },
            {
              "pitch": 64,
              "velocity": 98,
              "position": 9.666666666666666,
              "duration": 0.3229166666666667
            },
            {
              "pitch": 55,
              "velocity": 80,
              "position": 10,
              "duration": 0.65625
            },
            {
              "pitch": 59,
              "velocity": 80,
              "position": 10,
              "duration": 0.65625
            },
            {
              "pitch": 64,
              "velocity": 80,
              "position": 10,
              "duration": 0.65625
            },
            {
              "pitch": 52,
              "velocity": 96,
              "position": 10.666666666666666,
              "duration": 0.3229166666666667
            },
            {
              "pitch": 55,
              "velocity": 96,
              "position": 10.666666666666666,
              "duration": 0.3229166666666667
            },
            {
              "pitch": 59,
              "velocity": 96,
              "position": 10.666666666666666,
              "duration": 0.3229166666666667
            },
            {
              "pitch": 48,
              "velocity": 62,
              "position": 11,
              "duration": 0.4375
            },
            {
              "pitch": 52,
              "velocity": 62,
              "position": 11,
              "duration": 0.4375
            },
            {
              "pitch": 55,
              "velocity": 62,
              "position": 11,
              "duration": 0.4375
            },
            {
              "pitch": 52,
              "velocity": 105,
              "position": 12,
              "duration": 1.65625
            },
            {
              "pitch": 55,
              "velocity": 105,
              "position": 12,
              "duration": 1.65625
            },
            {
              "pitch": 59,
              "velocity": 105,
              "position": 12,
              "duration": 1.65625
            },
            {
              "pitch": 55,
              "velocity": 112,
              "position": 13.666666666666666,
              "duration": 0.4375
            },
            {
              "pitch": 59,
              "velocity": 112,
              "position": 13.666666666666666,
              "duration": 0.4375
            },
            {
              "pitch": 64,
              "velocity": 112,
              "position": 13.666666666666666,
              "duration": 0.4375
            },
            {
              "pitch": 55,
              "velocity": 112,
              "position": 15.666666666666666,
              "duration": 0.3229166666666667
            },
            {
              "pitch": 59,
              "velocity": 112,
              "position": 15.666666666666666,
              "duration": 0.3229166666666667
            },
            {
              "pitch": 55,
              "velocity": 78,
              "position": 16,
              "duration": 0.65625
            },
            {
              "pitch": 59,
              "velocity": 78,
              "position": 16,
              "duration": 0.65625
            },
            {
              "pitch": 64,
              "velocity": 78,
              "position": 16,
              "duration": 0.65625
            },
            {
              "pitch": 59,
              "velocity": 112,
              "position": 16.666666666666668,
              "duration": 0.3229166666666667
            },
            {
              "pitch": 64,
              "velocity": 112,
              "position": 16.666666666666668,
              "duration": 0.3229166666666667
            },
            {
              "pitch": 67,
              "velocity": 112,
              "position": 16.666666666666668,
              "duration": 0.3229166666666667
            },
            {
              "pitch": 55,
              "velocity": 80,
              "position": 17,
              "duration": 0.65625
            },
            {
              "pitch": 59,
              "velocity": 80,
              "position": 17,
              "duration": 0.65625
            },
            {
              "pitch": 64,
              "velocity": 80,
              "position": 17,
              "duration": 0.65625
            },
            {
              "pitch": 55,
              "velocity": 98,
              "position": 17.666666666666668,
              "duration": 0.3229166666666667
            },
            {
              "pitch": 59,
              "velocity": 98,
              "position": 17.666666666666668,
              "duration": 0.3229166666666667
            },
            {
              "pitch": 64,
              "velocity": 98,
              "position": 17.666666666666668,
              "duration": 0.3229166666666667
            },
            {
              "pitch": 55,
              "velocity": 80,
              "position": 18,
              "duration": 0.4375
            },
            {
              "pitch": 59,
              "velocity": 80,
              "position": 18,
              "duration": 0.4375
            },
            {
              "pitch": 64,
              "velocity": 80,
              "position": 18,
              "duration": 0.4375
            },
            {
              "pitch": 55,
              "velocity": 112,
              "position": 19.666666666666668,
              "duration": 0.3229166666666667
            },
            {
              "pitch": 59,
              "velocity": 112,
              "position": 19.666666666666668,
              "duration": 0.3229166666666667
            },
            {
              "pitch": 55,
              "velocity": 78,
              "position": 20,
              "duration": 0.65625
            },
            {
              "pitch": 59,
              "velocity": 78,
              "position": 20,
              "duration": 0.65625
            },
            {
              "pitch": 64,
              "velocity": 78,
              "position": 20,
              "duration": 0.65625
            },
            {
              "pitch": 59,
              "velocity": 112,
              "position": 20.666666666666668,
              "duration": 0.3229166666666667
            },
            {
              "pitch": 64,
              "velocity": 112,
              "position": 20.666666666666668,
              "duration": 0.3229166666666667
            },
            {
              "pitch": 67,
              "velocity": 112,
              "position": 20.666666666666668,
              "duration": 0.3229166666666667
            },
            {
              "pitch": 55,
              "velocity": 80,
              "position": 21,
              "duration": 0.65625
            },
            {
              "pitch": 59,
              "velocity": 80,
              "position": 21,
              "duration": 0.65625
            },
            {
              "pitch": 64,
              "velocity": 80,
              "position": 21,
              "duration": 0.65625
            },
            {
              "pitch": 55,
              "velocity": 98,
              "position": 21.666666666666668,
              "duration": 0.3229166666666667
            },
            {
              "pitch": 59,
              "velocity": 98,
              "position": 21.666666666666668,
              "duration": 0.3229166666666667
            },
            {
              "pitch": 64,
              "velocity": 98,
              "position": 21.666666666666668,
              "duration": 0.3229166666666667
            },
            {
              "pitch": 55,
              "velocity": 80,
              "position": 22,
              "duration": 0.4375
            },
            {
              "pitch": 59,
              "velocity": 80,
              "position": 22,
              "duration": 0.4375
            },
            {
              "pitch": 64,
              "velocity": 80,
              "position": 22,
              "duration": 0.4375
            },
            {
              "pitch": 55,
              "velocity": 112,
              "position": 23.666666666666668,
              "duration": 0.3229166666666667
            },
            {
              "pitch": 59,
              "velocity": 112,
              "position": 23.666666666666668,
              "duration": 0.3229166666666667
            },
            {
              "pitch": 55,
              "velocity": 78,
              "position": 24,
              "duration": 0.65625
            },
            {
              "pitch": 59,
              "velocity": 78,
              "position": 24,
              "duration": 0.65625
            },
            {
              "pitch": 64,
              "velocity": 78,
              "position": 24,
              "duration": 0.65625
            },
            {
              "pitch": 59,
              "velocity": 112,
              "position": 24.666666666666668,
              "duration": 0.3229166666666667
            },
            {
              "pitch": 64,
              "velocity": 112,
              "position": 24.666666666666668,
              "duration": 0.3229166666666667
            },
            {
              "pitch": 67,
              "velocity": 112,
              "position": 24.666666666666668,
              "duration": 0.3229166666666667
            },
            {
              "pitch": 55,
              "velocity": 80,
              "position": 25,
              "duration": 0.65625
            },
            {
              "pitch": 59,
              "velocity": 80,
              "position": 25,
              "duration": 0.65625
            },
            {
              "pitch": 64,
              "velocity": 80,
              "position": 25,
              "duration": 0.65625
            },
            {
              "pitch": 55,
              "velocity": 98,
              "position": 25.666666666666668,
              "duration": 0.3229166666666667
            },
            {
              "pitch": 59,
              "velocity": 98,
              "position": 25.666666666666668,
              "duration": 0.3229166666666667
            },
            {
              "pitch": 64,
              "velocity": 98,
              "position": 25.666666666666668,
              "duration": 0.3229166666666667
            },
            {
              "pitch": 55,
              "velocity": 80,
              "position": 26,
              "duration": 0.65625
            },
            {
              "pitch": 59,
              "velocity": 80,
              "position": 26,
              "duration": 0.65625
            },
            {
              "pitch": 64,
              "velocity": 80,
              "position": 26,
              "duration": 0.65625
            },
            {
              "pitch": 52,
              "velocity": 96,
              "position": 26.666666666666668,
              "duration": 0.3229166666666667
            },
            {
              "pitch": 55,
              "velocity": 96,
              "position": 26.666666666666668,
              "duration": 0.3229166666666667
            },
            {
              "pitch": 59,
              "velocity": 96,
              "position": 26.666666666666668,
              "duration": 0.3229166666666667
            },
            {
              "pitch": 48,
              "velocity": 62,
              "position": 27,
              "duration": 0.4375
            },
            {
              "pitch": 52,
              "velocity": 62,
              "position": 27,
              "duration": 0.4375
            },
            {
              "pitch": 55,
              "velocity": 62,
              "position": 27,
              "duration": 0.4375
            },
            {
              "pitch": 52,
              "velocity": 102,
              "position": 28,
              "duration": 1.65625
            },
            {
              "pitch": 55,
              "velocity": 102,
              "position": 28,
              "duration": 1.65625
            },
            {
              "pitch": 59,
              "velocity": 102,
              "position": 28,
              "duration": 1.65625
            },
            {
              "pitch": 48,
              "velocity": 112,
              "position": 29.666666666666668,
              "duration": 0.4375
            },
            {
              "pitch": 52,
              "velocity": 112,
              "position": 29.666666666666668,
              "duration": 0.4375
            },
            {
              "pitch": 55,
              "velocity": 112,
              "position": 29.666666666666668,
              "duration": 0.4375
            }
          ]
        },
        "5": {
          "ctab": {
            "srcChannel": 5,
            "name": "Brs",
            "accType": "PHRASE1",
            "editable": false,
            "mutedNotes": [],
            "mutedChords": [
              "min(9)",
              "min6",
              "min",
              "Maj6(9)",
              "Maj7(9)",
              "Maj(9)",
              "Maj7",
              "Maj6",
              "Maj"
            ],
            "autoStart": false,
            "sourceChordNote": 0,
            "sourceChordType": "Maj7",
            "ctb2Low": null,
            "ctb2Main": {
              "ntr": "ROOT_TRANSPOSITION",
              "ntt": "MELODY",
              "bassOn": false,
              "chordRootUpperLimit": 8,
              "noteLowLimit": 62,
              "noteHighLimit": 73,
              "rtr": "PITCH_SHIFT"
            },
            "ctb2High": null
          },
          "notes": [
            {
              "pitch": 64,
              "velocity": 76,
              "position": 0.6666666666666666,
              "duration": 0.34375
            },
            {
              "pitch": 67,
              "velocity": 76,
              "position": 0.6666666666666666,
              "duration": 0.34375
            },
            {
              "pitch": 72,
              "velocity": 100,
              "position": 0.6666666666666666,
              "duration": 0.34375
            },
            {
              "pitch": 64,
              "velocity": 76,
              "position": 2,
              "duration": 0.34375
            },
            {
              "pitch": 67,
              "velocity": 76,
              "position": 2,
              "duration": 0.34375
            },
            {
              "pitch": 72,
              "velocity": 100,
              "position": 2,
              "duration": 0.34375
            },
            {
              "pitch": 64,
              "velocity": 76,
              "position": 4,
              "duration": 0.34375
            },
            {
              "pitch": 67,
              "velocity": 76,
              "position": 4,
              "duration": 0.34375
            },
            {
              "pitch": 72,
              "velocity": 100,
              "position": 4,
              "duration": 0.34375
            },
            {
              "pitch": 64,
              "velocity": 76,
              "position": 5.666666666666667,
              "duration": 0.34375
            },
            {
              "pitch": 67,
              "velocity": 76,
              "position": 5.666666666666667,
              "duration": 0.34375
            },
            {
              "pitch": 72,
              "velocity": 100,
              "position": 5.666666666666667,
              "duration": 0.34375
            },
            {
              "pitch": 64,
              "velocity": 76,
              "position": 8.666666666666666,
              "duration": 0.34375
            },
            {
              "pitch": 67,
              "velocity": 76,
              "position": 8.666666666666666,
              "duration": 0.34375
            },
            {
              "pitch": 72,
              "velocity": 100,
              "position": 8.666666666666666,
              "duration": 0.34375
            },
            {
              "pitch": 64,
              "velocity": 60,
              "position": 10,
              "duration": 0.65625
            },
            {
              "pitch": 67,
              "velocity": 60,
              "position": 10,
              "duration": 0.65625
            },
            {
              "pitch": 72,
              "velocity": 76,
              "position": 10,
              "duration": 0.65625
            },
            {
              "pitch": 64,
              "velocity": 76,
              "position": 10.666666666666666,
              "duration": 0.3229166666666667
            },
            {
              "pitch": 67,
              "velocity": 76,
              "position": 10.666666666666666,
              "duration": 0.3229166666666667
            },
            {
              "pitch": 72,
              "velocity": 100,
              "position": 10.666666666666666,
              "duration": 0.3229166666666667
            },
            {
              "pitch": 64,
              "velocity": 76,
              "position": 12,
              "duration": 0.34375
            },
            {
              "pitch": 67,
              "velocity": 76,
              "position": 12,
              "duration": 0.34375
            },
            {
              "pitch": 72,
              "velocity": 100,
              "position": 12,
              "duration": 0.34375
            },
            {
              "pitch": 64,
              "velocity": 76,
              "position": 13.666666666666666,
              "duration": 0.34375
            },
            {
              "pitch": 67,
              "velocity": 76,
              "position": 13.666666666666666,
              "duration": 0.34375
            },
            {
              "pitch": 72,
              "velocity": 100,
              "position": 13.666666666666666,
              "duration": 0.34375
            },
            {
              "pitch": 64,
              "velocity": 76,
              "position": 16.666666666666668,
              "duration": 0.34375
            },
            {
              "pitch": 67,
              "velocity": 76,
              "position": 16.666666666666668,
              "duration": 0.34375
            },
            {
              "pitch": 72,
              "velocity": 100,
              "position": 16.666666666666668,
              "duration": 0.34375
            },
            {
              "pitch": 64,
              "velocity": 76,
              "position": 18,
              "duration": 0.34375
            },
            {
              "pitch": 67,
              "velocity": 76,
              "position": 18,
              "duration": 0.34375
            },
            {
              "pitch": 72,
              "velocity": 100,
              "position": 18,
              "duration": 0.34375
            },
            {
              "pitch": 64,
              "velocity": 76,
              "position": 20,
              "duration": 0.34375
            },
            {
              "pitch": 67,
              "velocity": 76,
              "position": 20,
              "duration": 0.34375
            },
            {
              "pitch": 72,
              "velocity": 100,
              "position": 20,
              "duration": 0.34375
            },
            {
              "pitch": 64,
              "velocity": 76,
              "position": 21.666666666666668,
              "duration": 0.34375
            },
            {
              "pitch": 67,
              "velocity": 76,
              "position": 21.666666666666668,
              "duration": 0.34375
            },
            {
              "pitch": 72,
              "velocity": 100,
              "position": 21.666666666666668,
              "duration": 0.34375
            },
            {
              "pitch": 64,
              "velocity": 76,
              "position": 24.666666666666668,
              "duration": 0.34375
            },
            {
              "pitch": 67,
              "velocity": 76,
              "position": 24.666666666666668,
              "duration": 0.34375
            },
            {
              "pitch": 72,
              "velocity": 100,
              "position": 24.666666666666668,
              "duration": 0.34375
            },
            {
              "pitch": 64,
              "velocity": 60,
              "position": 26,
              "duration": 0.65625
            },
            {
              "pitch": 67,
              "velocity": 60,
              "position": 26,
              "duration": 0.65625
            },
            {
              "pitch": 72,
              "velocity": 76,
              "position": 26,
              "duration": 0.65625
            },
            {
              "pitch": 64,
              "velocity": 76,
              "position": 26.666666666666668,
              "duration": 0.3229166666666667
            },
            {
              "pitch": 67,
              "velocity": 76,
              "position": 26.666666666666668,
              "duration": 0.3229166666666667
            },
            {
              "pitch": 72,
              "velocity": 100,
              "position": 26.666666666666668,
              "duration": 0.3229166666666667
            },
            {
              "pitch": 64,
              "velocity": 76,
              "position": 28,
              "duration": 0.34375
            },
            {
              "pitch": 67,
              "velocity": 76,
              "position": 28,
              "duration": 0.34375
            },
            {
              "pitch": 72,
              "velocity": 100,
              "position": 28,
              "duration": 0.34375
            },
            {
              "pitch": 64,
              "velocity": 76,
              "position": 29.666666666666668,
              "duration": 0.34375
            },
            {
              "pitch": 67,
              "velocity": 76,
              "position": 29.666666666666668,
              "duration": 0.34375
            },
            {
              "pitch": 72,
              "velocity": 100,
              "position": 29.666666666666668,
              "duration": 0.34375
            }
          ]
        },
        "6": {
          "ctab": {
            "srcChannel": 6,
            "name": "Tbn",
            "accType": "PHRASE2",
            "editable": false,
            "mutedNotes": [],
            "mutedChords": [
              "min(9)",
              "min6",
              "min",
              "Maj6(9)",
              "Maj7(9)",
              "Maj(9)",
              "Maj7",
              "Maj6",
              "Maj"
            ],
            "autoStart": false,
            "sourceChordNote": 0,
            "sourceChordType": "Maj7",
            "ctb2Low": null,
            "ctb2Main": {
              "ntr": "ROOT_FIXED",
              "ntt": "CHORD",
              "bassOn": false,
              "chordRootUpperLimit": 8,
              "noteLowLimit": 0,
              "noteHighLimit": 127,
              "rtr": "PITCH_SHIFT"
            },
            "ctb2High": null
          },
          "notes": [
            {
              "pitch": 55,
              "velocity": 112,
              "position": 0,
              "duration": 0.3229166666666667
            },
            {
              "pitch": 59,
              "velocity": 112,
              "position": 0,
              "duration": 0.3229166666666667
            },
            {
              "pitch": 64,
              "velocity": 112,
              "position": 0,
              "duration": 0.3229166666666667
            },
            {
              "pitch": 55,
              "velocity": 112,
              "position": 2,
              "duration": 0.3229166666666667
            },
            {
              "pitch": 59,
              "velocity": 112,
              "position": 2,
              "duration": 0.3229166666666667
            },
            {
              "pitch": 64,
              "velocity": 112,
              "position": 2,
              "duration": 0.3229166666666667
            },
            {
              "pitch": 55,
              "velocity": 112,
              "position": 4,
              "duration": 0.3229166666666667
            },
            {
              "pitch": 59,
              "velocity": 112,
              "position": 4,
              "duration": 0.3229166666666667
            },
            {
              "pitch": 64,
              "velocity": 112,
              "position": 4,
              "duration": 0.3229166666666667
            },
            {
              "pitch": 55,
              "velocity": 112,
              "position": 5.666666666666667,
              "duration": 0.3229166666666667
            },
            {
              "pitch": 59,
              "velocity": 112,
              "position": 5.666666666666667,
              "duration": 0.3229166666666667
            },
            {
              "pitch": 64,
              "velocity": 112,
              "position": 5.666666666666667,
              "duration": 0.3229166666666667
            },
            {
              "pitch": 55,
              "velocity": 112,
              "position": 7,
              "duration": 1.65625
            },
            {
              "pitch": 59,
              "velocity": 112,
              "position": 7,
              "duration": 1.65625
            },
            {
              "pitch": 64,
              "velocity": 112,
              "position": 7,
              "duration": 1.65625
            },
            {
              "pitch": 55,
              "velocity": 112,
              "position": 8.666666666666666,
              "duration": 0.3229166666666667
            },
            {
              "pitch": 59,
              "velocity": 112,
              "position": 8.666666666666666,
              "duration": 0.3229166666666667
            },
            {
              "pitch": 64,
              "velocity": 112,
              "position": 8.666666666666666,
              "duration": 0.3229166666666667
            },
            {
              "pitch": 55,
              "velocity": 81,
              "position": 10,
              "duration": 0.65625
            },
            {
              "pitch": 59,
              "velocity": 81,
              "position": 10,
              "duration": 0.65625
            },
            {
              "pitch": 64,
              "velocity": 81,
              "position": 10,
              "duration": 0.65625
            },
            {
              "pitch": 55,
              "velocity": 112,
              "position": 10.666666666666666,
              "duration": 0.3229166666666667
            },
            {
              "pitch": 59,
              "velocity": 112,
              "position": 10.666666666666666,
              "duration": 0.3229166666666667
            },
            {
              "pitch": 64,
              "velocity": 112,
              "position": 10.666666666666666,
              "duration": 0.3229166666666667
            },
            {
              "pitch": 55,
              "velocity": 112,
              "position": 12,
              "duration": 0.3229166666666667
            },
            {
              "pitch": 59,
              "velocity": 112,
              "position": 12,
              "duration": 0.3229166666666667
            },
            {
              "pitch": 64,
              "velocity": 112,
              "position": 12,
              "duration": 0.3229166666666667
            },
            {
              "pitch": 55,
              "velocity": 112,
              "position": 13.666666666666666,
              "duration": 0.3229166666666667
            },
            {
              "pitch": 59,
              "velocity": 112,
              "position": 13.666666666666666,
              "duration": 0.3229166666666667
            },
            {
              "pitch": 64,
              "velocity": 112,
              "position": 13.666666666666666,
              "duration": 0.3229166666666667
            },
            {
              "pitch": 55,
              "velocity": 112,
              "position": 14.666666666666666,
              "duration": 1.3229166666666667
            },
            {
              "pitch": 59,
              "velocity": 112,
              "position": 14.666666666666666,
              "duration": 1.3229166666666667
            },
            {
              "pitch": 64,
              "velocity": 112,
              "position": 14.666666666666666,
              "duration": 1.3229166666666667
            },
            {
              "pitch": 55,
              "velocity": 112,
              "position": 16,
              "duration": 0.3229166666666667
            },
            {
              "pitch": 59,
              "velocity": 112,
              "position": 16,
              "duration": 0.3229166666666667
            },
            {
              "pitch": 64,
              "velocity": 112,
              "position": 16,
              "duration": 0.3229166666666667
            },
            {
              "pitch": 55,
              "velocity": 112,
              "position": 18,
              "duration": 0.3229166666666667
            },
            {
              "pitch": 59,
              "velocity": 112,
              "position": 18,
              "duration": 0.3229166666666667
            },
            {
              "pitch": 64,
              "velocity": 112,
              "position": 18,
              "duration": 0.3229166666666667
            },
            {
              "pitch": 55,
              "velocity": 112,
              "position": 20,
              "duration": 0.3229166666666667
            },
            {
              "pitch": 59,
              "velocity": 112,
              "position": 20,
              "duration": 0.3229166666666667
            },
            {
              "pitch": 64,
              "velocity": 112,
              "position": 20,
              "duration": 0.3229166666666667
            },
            {
              "pitch": 55,
              "velocity": 112,
              "position": 21.666666666666668,
              "duration": 0.3229166666666667
            },
            {
              "pitch": 59,
              "velocity": 112,
              "position": 21.666666666666668,
              "duration": 0.3229166666666667
            },
            {
              "pitch": 64,
              "velocity": 112,
              "position": 21.666666666666668,
              "duration": 0.3229166666666667
            },
            {
              "pitch": 55,
              "velocity": 112,
              "position": 23,
              "duration": 1.65625
            },
            {
              "pitch": 59,
              "velocity": 112,
              "position": 23,
              "duration": 1.65625
            },
            {
              "pitch": 64,
              "velocity": 112,
              "position": 23,
              "duration": 1.65625
            },
            {
              "pitch": 55,
              "velocity": 112,
              "position": 24.666666666666668,
              "duration": 0.3229166666666667
            },
            {
              "pitch": 59,
              "velocity": 112,
              "position": 24.666666666666668,
              "duration": 0.3229166666666667
            },
            {
              "pitch": 64,
              "velocity": 112,
              "position": 24.666666666666668,
              "duration": 0.3229166666666667
            },
            {
              "pitch": 55,
              "velocity": 81,
              "position": 26,
              "duration": 0.65625
            },
            {
              "pitch": 59,
              "velocity": 81,
              "position": 26,
              "duration": 0.65625
            },
            {
              "pitch": 64,
              "velocity": 81,
              "position": 26,
              "duration": 0.65625
            },
            {
              "pitch": 55,
              "velocity": 112,
              "position": 26.666666666666668,
              "duration": 0.3229166666666667
            },
            {
              "pitch": 59,
              "velocity": 112,
              "position": 26.666666666666668,
              "duration": 0.3229166666666667
            },
            {
              "pitch": 64,
              "velocity": 112,
              "position": 26.666666666666668,
              "duration": 0.3229166666666667
            },
            {
              "pitch": 55,
              "velocity": 112,
              "position": 28,
              "duration": 0.3229166666666667
            },
            {
              "pitch": 59,
              "velocity": 112,
              "position": 28,
              "duration": 0.3229166666666667
            },
            {
              "pitch": 64,
              "velocity": 112,
              "position": 28,
              "duration": 0.3229166666666667
            },
            {
              "pitch": 55,
              "velocity": 112,
              "position": 29.666666666666668,
              "duration": 0.3229166666666667
            },
            {
              "pitch": 59,
              "velocity": 112,
              "position": 29.666666666666668,
              "duration": 0.3229166666666667
            },
            {
              "pitch": 64,
              "velocity": 112,
              "position": 29.666666666666668,
              "duration": 0.3229166666666667
            }
          ]
        },
        "7": {
          "ctab": {
            "srcChannel": 7,
            "name": "Bass",
            "accType": "BASS",
            "editable": false,
            "mutedNotes": [],
            "mutedChords": [
              "7aug",
              "Maj7aug",
              "7(#9)",
              "7(b13)",
              "7(b9)",
              "7(13)",
              "7#11",
              "7(9)",
              "7b5",
              "7sus4",
              "7th",
              "dim7",
              "minMaj7(9)",
              "minMaj7",
              "min7(11)",
              "min7(9)",
              "min(9)",
              "min7",
              "min6",
              "min",
              "Maj6(9)",
              "Maj7(9)",
              "Maj(9)",
              "Maj7#11",
              "Maj7",
              "Maj6",
              "Maj"
            ],
            "autoStart": false,
            "sourceChordNote": 0,
            "sourceChordType": "Maj7",
            "ctb2Low": null,
            "ctb2Main": {
              "ntr": "ROOT_TRANSPOSITION",
              "ntt": "MELODY",
              "bassOn": true,
              "chordRootUpperLimit": 8,
              "noteLowLimit": 28,
              "noteHighLimit": 127,
              "rtr": "PITCH_SHIFT_TO_ROOT"
            },
            "ctb2High": null
          },
          "notes": [
            {
              "pitch": 24,
              "velocity": 80,
              "position": 0,
              "duration": 0.8125
            },
            {
              "pitch": 28,
              "velocity": 78,
              "position": 1,
              "duration": 0.8125
            },
            {
              "pitch": 31,
              "velocity": 80,
              "position": 2,
              "duration": 0.8125
            },
            {
              "pitch": 28,
              "velocity": 78,
              "position": 3,
              "duration": 0.8125
            },
            {
              "pitch": 36,
              "velocity": 80,
              "position": 4,
              "duration": 0.8125
            },
            {
              "pitch": 31,
              "velocity": 78,
              "position": 5,
              "duration": 0.8125
            },
            {
              "pitch": 28,
              "velocity": 80,
              "position": 6,
              "duration": 0.8125
            },
            {
              "pitch": 31,
              "velocity": 78,
              "position": 7,
              "duration": 0.9895833333333334
            },
            {
              "pitch": 24,
              "velocity": 80,
              "position": 8,
              "duration": 0.8125
            },
            {
              "pitch": 28,
              "velocity": 78,
              "position": 9,
              "duration": 0.8125
            },
            {
              "pitch": 31,
              "velocity": 80,
              "position": 10,
              "duration": 0.8125
            },
            {
              "pitch": 28,
              "velocity": 78,
              "position": 11,
              "duration": 0.8125
            },
            {
              "pitch": 36,
              "velocity": 80,
              "position": 12,
              "duration": 0.8125
            },
            {
              "pitch": 31,
              "velocity": 78,
              "position": 13,
              "duration": 0.8125
            },
            {
              "pitch": 28,
              "velocity": 80,
              "position": 14,
              "duration": 0.8125
            },
            {
              "pitch": 31,
              "velocity": 78,
              "position": 15,
              "duration": 0.8125
            },
            {
              "pitch": 24,
              "velocity": 80,
              "position": 16,
              "duration": 0.8125
            },
            {
              "pitch": 28,
              "velocity": 78,
              "position": 17,
              "duration": 0.8125
            },
            {
              "pitch": 31,
              "velocity": 80,
              "position": 18,
              "duration": 0.8125
            },
            {
              "pitch": 31,
              "velocity": 78,
              "position": 19,
              "duration": 0.8125
            },
            {
              "pitch": 36,
              "velocity": 80,
              "position": 20,
              "duration": 0.8125
            },
            {
              "pitch": 31,
              "velocity": 78,
              "position": 21,
              "duration": 0.8125
            },
            {
              "pitch": 28,
              "velocity": 80,
              "position": 22,
              "duration": 0.8125
            },
            {
              "pitch": 31,
              "velocity": 78,
              "position": 23,
              "duration": 0.9895833333333334
            },
            {
              "pitch": 24,
              "velocity": 80,
              "position": 24,
              "duration": 0.8125
            },
            {
              "pitch": 28,
              "velocity": 78,
              "position": 25,
              "duration": 0.8125
            },
            {
              "pitch": 31,
              "velocity": 80,
              "position": 26,
              "duration": 0.8125
            },
            {
              "pitch": 28,
              "velocity": 78,
              "position": 27,
              "duration": 0.8125
            },
            {
              "pitch": 36,
              "velocity": 80,
              "position": 28,
              "duration": 0.8125
            },
            {
              "pitch": 31,
              "velocity": 78,
              "position": 29,
              "duration": 0.8125
            },
            {
              "pitch": 28,
              "velocity": 80,
              "position": 30,
              "duration": 0.8125
            },
            {
              "pitch": 31,
              "velocity": 78,
              "position": 31,
              "duration": 0.8125
            }
          ]
        },
        "8": {
          "ctab": {
            "srcChannel": 8,
            "name": "Prc",
            "accType": "SUBRHYTHM",
            "editable": false,
            "mutedNotes": [],
            "mutedChords": [],
            "autoStart": true,
            "sourceChordNote": 0,
            "sourceChordType": "Maj7",
            "ctb2Low": null,
            "ctb2Main": {
              "ntr": "ROOT_FIXED",
              "ntt": "BYPASS",
              "bassOn": false,
              "chordRootUpperLimit": 6,
              "noteLowLimit": 0,
              "noteHighLimit": 127,
              "rtr": "PITCH_SHIFT"
            },
            "ctb2High": null
          },
          "notes": [
            {
              "pitch": 62,
              "velocity": 91,
              "position": 1,
              "duration": 0.010416666666666666
            },
            {
              "pitch": 63,
              "velocity": 22,
              "position": 3,
              "duration": 0.010416666666666666
            },
            {
              "pitch": 63,
              "velocity": 47,
              "position": 3.625,
              "duration": 0.010416666666666666
            },
            {
              "pitch": 62,
              "velocity": 91,
              "position": 5,
              "duration": 0.010416666666666666
            },
            {
              "pitch": 64,
              "velocity": 22,
              "position": 7,
              "duration": 0.010416666666666666
            },
            {
              "pitch": 64,
              "velocity": 47,
              "position": 7.625,
              "duration": 0.010416666666666666
            },
            {
              "pitch": 62,
              "velocity": 91,
              "position": 9,
              "duration": 0.010416666666666666
            },
            {
              "pitch": 63,
              "velocity": 22,
              "position": 11,
              "duration": 0.010416666666666666
            },
            {
              "pitch": 63,
              "velocity": 47,
              "position": 11.625,
              "duration": 0.010416666666666666
            },
            {
              "pitch": 62,
              "velocity": 91,
              "position": 13,
              "duration": 0.010416666666666666
            },
            {
              "pitch": 64,
              "velocity": 22,
              "position": 15,
              "duration": 0.010416666666666666
            },
            {
              "pitch": 64,
              "velocity": 47,
              "position": 15.625,
              "duration": 0.010416666666666666
            },
            {
              "pitch": 62,
              "velocity": 91,
              "position": 17,
              "duration": 0.010416666666666666
            },
            {
              "pitch": 63,
              "velocity": 22,
              "position": 19,
              "duration": 0.010416666666666666
            },
            {
              "pitch": 63,
              "velocity": 47,
              "position": 19.625,
              "duration": 0.010416666666666666
            },
            {
              "pitch": 62,
              "velocity": 91,
              "position": 21,
              "duration": 0.010416666666666666
            },
            {
              "pitch": 64,
              "velocity": 22,
              "position": 23,
              "duration": 0.010416666666666666
            },
            {
              "pitch": 64,
              "velocity": 47,
              "position": 23.625,
              "duration": 0.010416666666666666
            },
            {
              "pitch": 62,
              "velocity": 91,
              "position": 25,
              "duration": 0.010416666666666666
            },
            {
              "pitch": 63,
              "velocity": 22,
              "position": 27,
              "duration": 0.010416666666666666
            },
            {
              "pitch": 63,
              "velocity": 47,
              "position": 27.625,
              "duration": 0.010416666666666666
            },
            {
              "pitch": 62,
              "velocity": 91,
              "position": 29,
              "duration": 0.010416666666666666
            },
            {
              "pitch": 64,
              "velocity": 22,
              "position": 31,
              "duration": 0.010416666666666666
            },
            {
              "pitch": 64,
              "velocity": 47,
              "position": 31.625,
              "duration": 0.010416666666666666
            }
          ]
        },
        "9": {
          "ctab": {
            "srcChannel": 9,
            "name": "Drs",
            "accType": "RHYTHM",
            "editable": false,
            "mutedNotes": [],
            "mutedChords": [],
            "autoStart": true,
            "sourceChordNote": 0,
            "sourceChordType": "Maj7",
            "ctb2Low": null,
            "ctb2Main": {
              "ntr": "ROOT_FIXED",
              "ntt": "BYPASS",
              "bassOn": false,
              "chordRootUpperLimit": 6,
              "noteLowLimit": 0,
              "noteHighLimit": 127,
              "rtr": "PITCH_SHIFT"
            },
            "ctb2High": null
          },
          "notes": [
            {
              "pitch": 35,
              "velocity": 74,
              "position": 0,
              "duration": 0.010416666666666666
            },
            {
              "pitch": 59,
              "velocity": 55,
              "position": 0,
              "duration": 0.010416666666666666
            },
            {
              "pitch": 35,
              "velocity": 74,
              "position": 1,
              "duration": 0.010416666666666666
            },
            {
              "pitch": 40,
              "velocity": 81,
              "position": 1,
              "duration": 0.010416666666666666
            },
            {
              "pitch": 44,
              "velocity": 60,
              "position": 1,
              "duration": 0.010416666666666666
            },
            {
              "pitch": 59,
              "velocity": 55,
              "position": 1,
              "duration": 0.010416666666666666
            },
            {
              "pitch": 59,
              "velocity": 16,
              "position": 1.7083333333333333,
              "duration": 0.010416666666666666
            },
            {
              "pitch": 35,
              "velocity": 74,
              "position": 2,
              "duration": 0.010416666666666666
            },
            {
              "pitch": 59,
              "velocity": 55,
              "position": 2,
              "duration": 0.010416666666666666
            },
            {
              "pitch": 35,
              "velocity": 74,
              "position": 3,
              "duration": 0.010416666666666666
            },
            {
              "pitch": 40,
              "velocity": 81,
              "position": 3,
              "duration": 0.010416666666666666
            },
            {
              "pitch": 44,
              "velocity": 60,
              "position": 3,
              "duration": 0.010416666666666666
            },
            {
              "pitch": 59,
              "velocity": 55,
              "position": 3,
              "duration": 0.010416666666666666
            },
            {
              "pitch": 59,
              "velocity": 22,
              "position": 3.71875,
              "duration": 0.010416666666666666
            },
            {
              "pitch": 35,
              "velocity": 74,
              "position": 4,
              "duration": 0.010416666666666666
            },
            {
              "pitch": 59,
              "velocity": 55,
              "position": 4,
              "duration": 0.010416666666666666
            },
            {
              "pitch": 35,
              "velocity": 74,
              "position": 5,
              "duration": 0.010416666666666666
            },
            {
              "pitch": 40,
              "velocity": 81,
              "position": 5,
              "duration": 0.010416666666666666
            },
            {
              "pitch": 44,
              "velocity": 60,
              "position": 5,
              "duration": 0.010416666666666666
            },
            {
              "pitch": 59,
              "velocity": 55,
              "position": 5,
              "duration": 0.010416666666666666
            },
            {
              "pitch": 59,
              "velocity": 16,
              "position": 5.708333333333333,
              "duration": 0.010416666666666666
            },
            {
              "pitch": 35,
              "velocity": 74,
              "position": 6,
              "duration": 0.010416666666666666
            },
            {
              "pitch": 59,
              "velocity": 55,
              "position": 6,
              "duration": 0.010416666666666666
            },
            {
              "pitch": 35,
              "velocity": 74,
              "position": 7,
              "duration": 0.010416666666666666
            },
            {
              "pitch": 40,
              "velocity": 81,
              "position": 7,
              "duration": 0.010416666666666666
            },
            {
              "pitch": 44,
              "velocity": 60,
              "position": 7,
              "duration": 0.010416666666666666
            },
            {
              "pitch": 59,
              "velocity": 55,
              "position": 7,
              "duration": 0.010416666666666666
            },
            {
              "pitch": 59,
              "velocity": 22,
              "position": 7.71875,
              "duration": 0.010416666666666666
            },
            {
              "pitch": 35,
              "velocity": 74,
              "position": 8,
              "duration": 0.010416666666666666
            },
            {
              "pitch": 59,
              "velocity": 55,
              "position": 8,
              "duration": 0.010416666666666666
            },
            {
              "pitch": 35,
              "velocity": 74,
              "position": 9,
              "duration": 0.010416666666666666
            },
            {
              "pitch": 40,
              "velocity": 81,
              "position": 9,
              "duration": 0.010416666666666666
            },
            {
              "pitch": 44,
              "velocity": 60,
              "position": 9,
              "duration": 0.010416666666666666
            },
            {
              "pitch": 59,
              "velocity": 55,
              "position": 9,
              "duration": 0.010416666666666666
            },
            {
              "pitch": 59,
              "velocity": 16,
              "position": 9.708333333333334,
              "duration": 0.010416666666666666
            },
            {
              "pitch": 35,
              "velocity": 74,
              "position": 10,
              "duration": 0.010416666666666666
            },
            {
              "pitch": 59,
              "velocity": 55,
              "position": 10,
              "duration": 0.010416666666666666
            },
            {
              "pitch": 35,
              "velocity": 74,
              "position": 11,
              "duration": 0.010416666666666666
            },
            {
              "pitch": 40,
              "velocity": 81,
              "position": 11,
              "duration": 0.010416666666666666
            },
            {
              "pitch": 44,
              "velocity": 60,
              "position": 11,
              "duration": 0.010416666666666666
            },
            {
              "pitch": 59,
              "velocity": 55,
              "position": 11,
              "duration": 0.010416666666666666
            },
            {
              "pitch": 59,
              "velocity": 22,
              "position": 11.71875,
              "duration": 0.010416666666666666
            },
            {
              "pitch": 35,
              "velocity": 74,
              "position": 12,
              "duration": 0.010416666666666666
            },
            {
              "pitch": 59,
              "velocity": 55,
              "position": 12,
              "duration": 0.010416666666666666
            },
            {
              "pitch": 35,
              "velocity": 74,
              "position": 13,
              "duration": 0.010416666666666666
            },
            {
              "pitch": 40,
              "velocity": 81,
              "position": 13,
              "duration": 0.010416666666666666
            },
            {
              "pitch": 44,
              "velocity": 60,
              "position": 13,
              "duration": 0.010416666666666666
            },
            {
              "pitch": 59,
              "velocity": 55,
              "position": 13,
              "duration": 0.010416666666666666
            },
            {
              "pitch": 59,
              "velocity": 16,
              "position": 13.708333333333334,
              "duration": 0.010416666666666666
            },
            {
              "pitch": 35,
              "velocity": 74,
              "position": 14,
              "duration": 0.010416666666666666
            },
            {
              "pitch": 59,
              "velocity": 55,
              "position": 14,
              "duration": 0.010416666666666666
            },
            {
              "pitch": 35,
              "velocity": 74,
              "position": 15,
              "duration": 0.010416666666666666
            },
            {
              "pitch": 40,
              "velocity": 81,
              "position": 15,
              "duration": 0.010416666666666666
            },
            {
              "pitch": 44,
              "velocity": 60,
              "position": 15,
              "duration": 0.010416666666666666
            },
            {
              "pitch": 59,
              "velocity": 55,
              "position": 15,
              "duration": 0.010416666666666666
            },
            {
              "pitch": 59,
              "velocity": 22,
              "position": 15.71875,
              "duration": 0.010416666666666666
            },
            {
              "pitch": 35,
              "velocity": 74,
              "position": 16,
              "duration": 0.010416666666666666
            },
            {
              "pitch": 59,
              "velocity": 55,
              "position": 16,
              "duration": 0.010416666666666666
            },
            {
              "pitch": 35,
              "velocity": 74,
              "position": 17,
              "duration": 0.010416666666666666
            },
            {
              "pitch": 40,
              "velocity": 81,
              "position": 17,
              "duration": 0.010416666666666666
            },
            {
              "pitch": 44,
              "velocity": 60,
              "position": 17,
              "duration": 0.010416666666666666
            },
            {
              "pitch": 59,
              "velocity": 55,
              "position": 17,
              "duration": 0.010416666666666666
            },
            {
              "pitch": 59,
              "velocity": 16,
              "position": 17.708333333333332,
              "duration": 0.010416666666666666
            },
            {
              "pitch": 35,
              "velocity": 74,
              "position": 18,
              "duration": 0.010416666666666666
            },
            {
              "pitch": 59,
              "velocity": 55,
              "position": 18,
              "duration": 0.010416666666666666
            },
            {
              "pitch": 35,
              "velocity": 74,
              "position": 19,
              "duration": 0.010416666666666666
            },
            {
              "pitch": 40,
              "velocity": 81,
              "position": 19,
              "duration": 0.010416666666666666
            },
            {
              "pitch": 44,
              "velocity": 60,
              "position": 19,
              "duration": 0.010416666666666666
            },
            {
              "pitch": 59,
              "velocity": 55,
              "position": 19,
              "duration": 0.010416666666666666
            },
            {
              "pitch": 59,
              "velocity": 22,
              "position": 19.71875,
              "duration": 0.010416666666666666
            },
            {
              "pitch": 35,
              "velocity": 74,
              "position": 20,
              "duration": 0.010416666666666666
            },
            {
              "pitch": 59,
              "velocity": 55,
              "position": 20,
              "duration": 0.010416666666666666
            },
            {
              "pitch": 35,
              "velocity": 74,
              "position": 21,
              "duration": 0.010416666666666666
            },
            {
              "pitch": 40,
              "velocity": 81,
              "position": 21,
              "duration": 0.010416666666666666
            },
            {
              "pitch": 44,
              "velocity": 60,
              "position": 21,
              "duration": 0.010416666666666666
            },
            {
              "pitch": 59,
              "velocity": 55,
              "position": 21,
              "duration": 0.010416666666666666
            },
            {
              "pitch": 59,
              "velocity": 16,
              "position": 21.708333333333332,
              "duration": 0.010416666666666666
            },
            {
              "pitch": 35,
              "velocity": 74,
              "position": 22,
              "duration": 0.010416666666666666
            },
            {
              "pitch": 59,
              "velocity": 55,
              "position": 22,
              "duration": 0.010416666666666666
            },
            {
              "pitch": 35,
              "velocity": 74,
              "position": 23,
              "duration": 0.010416666666666666
            },
            {
              "pitch": 40,
              "velocity": 81,
              "position": 23,
              "duration": 0.010416666666666666
            },
            {
              "pitch": 44,
              "velocity": 60,
              "position": 23,
              "duration": 0.010416666666666666
            },
            {
              "pitch": 59,
              "velocity": 55,
              "position": 23,
              "duration": 0.010416666666666666
            },
            {
              "pitch": 59,
              "velocity": 22,
              "position": 23.71875,
              "duration": 0.010416666666666666
            },
            {
              "pitch": 35,
              "velocity": 74,
              "position": 24,
              "duration": 0.010416666666666666
            },
            {
              "pitch": 59,
              "velocity": 55,
              "position": 24,
              "duration": 0.010416666666666666
            },
            {
              "pitch": 35,
              "velocity": 74,
              "position": 25,
              "duration": 0.010416666666666666
            },
            {
              "pitch": 40,
              "velocity": 81,
              "position": 25,
              "duration": 0.010416666666666666
            },
            {
              "pitch": 44,
              "velocity": 60,
              "position": 25,
              "duration": 0.010416666666666666
            },
            {
              "pitch": 59,
              "velocity": 55,
              "position": 25,
              "duration": 0.010416666666666666
            },
            {
              "pitch": 59,
              "velocity": 16,
              "position": 25.708333333333332,
              "duration": 0.010416666666666666
            },
            {
              "pitch": 35,
              "velocity": 74,
              "position": 26,
              "duration": 0.010416666666666666
            },
            {
              "pitch": 59,
              "velocity": 55,
              "position": 26,
              "duration": 0.010416666666666666
            },
            {
              "pitch": 35,
              "velocity": 74,
              "position": 27,
              "duration": 0.010416666666666666
            },
            {
              "pitch": 40,
              "velocity": 81,
              "position": 27,
              "duration": 0.010416666666666666
            },
            {
              "pitch": 44,
              "velocity": 60,
              "position": 27,
              "duration": 0.010416666666666666
            },
            {
              "pitch": 59,
              "velocity": 55,
              "position": 27,
              "duration": 0.010416666666666666
            },
            {
              "pitch": 59,
              "velocity": 22,
              "position": 27.71875,
              "duration": 0.010416666666666666
            },
            {
              "pitch": 35,
              "velocity": 74,
              "position": 28,
              "duration": 0.010416666666666666
            },
            {
              "pitch": 59,
              "velocity": 55,
              "position": 28,
              "duration": 0.010416666666666666
            },
            {
              "pitch": 35,
              "velocity": 74,
              "position": 29,
              "duration": 0.010416666666666666
            },
            {
              "pitch": 40,
              "velocity": 81,
              "position": 29,
              "duration": 0.010416666666666666
            },
            {
              "pitch": 44,
              "velocity": 60,
              "position": 29,
              "duration": 0.010416666666666666
            },
            {
              "pitch": 59,
              "velocity": 55,
              "position": 29,
              "duration": 0.010416666666666666
            },
            {
              "pitch": 59,
              "velocity": 16,
              "position": 29.708333333333332,
              "duration": 0.010416666666666666
            },
            {
              "pitch": 35,
              "velocity": 74,
              "position": 30,
              "duration": 0.010416666666666666
            },
            {
              "pitch": 59,
              "velocity": 55,
              "position": 30,
              "duration": 0.010416666666666666
            },
            {
              "pitch": 35,
              "velocity": 74,
              "position": 31,
              "duration": 0.010416666666666666
            },
            {
              "pitch": 40,
              "velocity": 81,
              "position": 31,
              "duration": 0.010416666666666666
            },
            {
              "pitch": 44,
              "velocity": 60,
              "position": 31,
              "duration": 0.010416666666666666
            },
            {
              "pitch": 59,
              "velocity": 55,
              "position": 31,
              "duration": 0.010416666666666666
            },
            {
              "pitch": 59,
              "velocity": 22,
              "position": 31.71875,
              "duration": 0.010416666666666666
            }
          ]
        },
        "10": {
          "ctab": {
            "srcChannel": 10,
            "name": "Bass",
            "accType": "BASS",
            "editable": false,
            "mutedNotes": [],
            "mutedChords": [
              "1+2+5",
              "sus4",
              "1+5",
              "1+8",
              "7aug",
              "Maj7aug",
              "7(#9)",
              "7(b13)",
              "7(b9)",
              "7(13)",
              "7#11",
              "7(9)",
              "7b5",
              "7sus4",
              "7th",
              "dim7",
              "dim",
              "minMaj7(9)",
              "minMaj7",
              "min7(11)",
              "min7(9)",
              "m7b5",
              "min7",
              "aug",
              "Maj7#11"
            ],
            "autoStart": false,
            "sourceChordNote": 0,
            "sourceChordType": "Maj",
            "ctb2Low": null,
            "ctb2Main": {
              "ntr": "ROOT_TRANSPOSITION",
              "ntt": "MELODIC_MINOR",
              "bassOn": true,
              "chordRootUpperLimit": 8,
              "noteLowLimit": 28,
              "noteHighLimit": 127,
              "rtr": "PITCH_SHIFT_TO_ROOT"
            },
            "ctb2High": null
          },
          "notes": [
            {
              "pitch": 24,
              "velocity": 80,
              "position": 0,
              "duration": 0.8125
            },
            {
              "pitch": 28,
              "velocity": 78,
              "position": 1,
              "duration": 0.8125
            },
            {
              "pitch": 29,
              "velocity": 80,
              "position": 2,
              "duration": 0.8125
            },
            {
              "pitch": 30,
              "velocity": 78,
              "position": 3,
              "duration": 0.8125
            },
            {
              "pitch": 31,
              "velocity": 80,
              "position": 4,
              "duration": 0.8125
            },
            {
              "pitch": 31,
              "velocity": 78,
              "position": 5,
              "duration": 0.8125
            },
            {
              "pitch": 34,
              "velocity": 80,
              "position": 6,
              "duration": 0.8125
            },
            {
              "pitch": 36,
              "velocity": 78,
              "position": 7,
              "duration": 0.9895833333333334
            },
            {
              "pitch": 36,
              "velocity": 80,
              "position": 8,
              "duration": 0.8125
            },
            {
              "pitch": 31,
              "velocity": 78,
              "position": 9,
              "duration": 0.8125
            },
            {
              "pitch": 31,
              "velocity": 80,
              "position": 10,
              "duration": 0.8125
            },
            {
              "pitch": 29,
              "velocity": 78,
              "position": 11,
              "duration": 0.8125
            },
            {
              "pitch": 28,
              "velocity": 80,
              "position": 12,
              "duration": 0.8125
            },
            {
              "pitch": 26,
              "velocity": 78,
              "position": 13,
              "duration": 0.8125
            },
            {
              "pitch": 31,
              "velocity": 80,
              "position": 14,
              "duration": 0.8125
            },
            {
              "pitch": 25,
              "velocity": 78,
              "position": 15,
              "duration": 0.8125
            },
            {
              "pitch": 24,
              "velocity": 80,
              "position": 16,
              "duration": 0.8125
            },
            {
              "pitch": 31,
              "velocity": 78,
              "position": 17,
              "duration": 0.8125
            },
            {
              "pitch": 31,
              "velocity": 80,
              "position": 18,
              "duration": 0.8125
            },
            {
              "pitch": 30,
              "velocity": 78,
              "position": 19,
              "duration": 0.8125
            },
            {
              "pitch": 29,
              "velocity": 80,
              "position": 20,
              "duration": 0.8125
            },
            {
              "pitch": 28,
              "velocity": 78,
              "position": 21,
              "duration": 0.8125
            },
            {
              "pitch": 26,
              "velocity": 80,
              "position": 22,
              "duration": 0.8125
            },
            {
              "pitch": 25,
              "velocity": 78,
              "position": 23,
              "duration": 0.9895833333333334
            },
            {
              "pitch": 24,
              "velocity": 80,
              "position": 24,
              "duration": 0.8125
            },
            {
              "pitch": 31,
              "velocity": 78,
              "position": 25,
              "duration": 0.8125
            },
            {
              "pitch": 36,
              "velocity": 80,
              "position": 26,
              "duration": 0.8125
            },
            {
              "pitch": 38,
              "velocity": 78,
              "position": 27,
              "duration": 0.8125
            },
            {
              "pitch": 36,
              "velocity": 80,
              "position": 28,
              "duration": 0.8125
            },
            {
              "pitch": 31,
              "velocity": 78,
              "position": 29,
              "duration": 0.8125
            },
            {
              "pitch": 31,
              "velocity": 80,
              "position": 30,
              "duration": 0.8125
            },
            {
              "pitch": 28,
              "velocity": 78,
              "position": 31,
              "duration": 0.8125
            }
          ]
        },
        "11": {
          "ctab": {
            "srcChannel": 11,
            "name": "Gt",
            "accType": "CHORD1",
            "editable": false,
            "mutedNotes": [],
            "mutedChords": [
              "1+2+5",
              "sus4",
              "1+5",
              "1+8",
              "7aug",
              "Maj7aug",
              "7(#9)",
              "7(b13)",
              "7(b9)",
              "7(13)",
              "7#11",
              "7(9)",
              "7b5",
              "7sus4",
              "7th",
              "dim7",
              "dim",
              "minMaj7(9)",
              "minMaj7",
              "min7(11)",
              "min7(9)",
              "m7b5",
              "min7",
              "aug",
              "Maj7#11"
            ],
            "autoStart": false,
            "sourceChordNote": 0,
            "sourceChordType": "Maj",
            "ctb2Low": null,
            "ctb2Main": {
              "ntr": "ROOT_TRANSPOSITION",
              "ntt": "MELODIC_MINOR",
              "bassOn": false,
              "chordRootUpperLimit": 4,
              "noteLowLimit": 54,
              "noteHighLimit": 127,
              "rtr": "PITCH_SHIFT"
            },
            "ctb2High": null
          },
          "notes": [
            {
              "pitch": 57,
              "velocity": 96,
              "position": 0,
              "duration": 0.40625
            },
            {
              "pitch": 62,
              "velocity": 69,
              "position": 0,
              "duration": 0.40625
            },
            {
              "pitch": 67,
              "velocity": 96,
              "position": 0,
              "duration": 0.40625
            },
            {
              "pitch": 57,
              "velocity": 96,
              "position": 1,
              "duration": 0.40625
            },
            {
              "pitch": 62,
              "velocity": 69,
              "position": 1,
              "duration": 0.40625
            },
            {
              "pitch": 67,
              "velocity": 96,
              "position": 1,
              "duration": 0.40625
            },
            {
              "pitch": 57,
              "velocity": 96,
              "position": 2,
              "duration": 0.40625
            },
            {
              "pitch": 62,
              "velocity": 69,
              "position": 2,
              "duration": 0.40625
            },
            {
              "pitch": 67,
              "velocity": 96,
              "position": 2,
              "duration": 0.40625
            },
            {
              "pitch": 57,
              "velocity": 96,
              "position": 3,
              "duration": 0.40625
            },
            {
              "pitch": 62,
              "velocity": 69,
              "position": 3,
              "duration": 0.40625
            },
            {
              "pitch": 67,
              "velocity": 96,
              "position": 3,
              "duration": 0.40625
            },
            {
              "pitch": 57,
              "velocity": 96,
              "position": 4,
              "duration": 0.40625
            },
            {
              "pitch": 62,
              "velocity": 69,
              "position": 4,
              "duration": 0.40625
            },
            {
              "pitch": 67,
              "velocity": 96,
              "position": 4,
              "duration": 0.40625
            },
            {
              "pitch": 57,
              "velocity": 80,
              "position": 5,
              "duration": 0.65625
            },
            {
              "pitch": 62,
              "velocity": 60,
              "position": 5,
              "duration": 0.65625
            },
            {
              "pitch": 67,
              "velocity": 80,
              "position": 5,
              "duration": 0.65625
            },
            {
              "pitch": 57,
              "velocity": 96,
              "position": 5.666666666666667,
              "duration": 0.3229166666666667
            },
            {
              "pitch": 62,
              "velocity": 69,
              "position": 5.666666666666667,
              "duration": 0.3229166666666667
            },
            {
              "pitch": 67,
              "velocity": 96,
              "position": 5.666666666666667,
              "duration": 0.3229166666666667
            },
            {
              "pitch": 57,
              "velocity": 67,
              "position": 6,
              "duration": 0.65625
            },
            {
              "pitch": 62,
              "velocity": 50,
              "position": 6,
              "duration": 0.65625
            },
            {
              "pitch": 67,
              "velocity": 67,
              "position": 6,
              "duration": 0.65625
            },
            {
              "pitch": 57,
              "velocity": 67,
              "position": 6.666666666666667,
              "duration": 0.3229166666666667
            },
            {
              "pitch": 62,
              "velocity": 50,
              "position": 6.666666666666667,
              "duration": 0.3229166666666667
            },
            {
              "pitch": 67,
              "velocity": 67,
              "position": 6.666666666666667,
              "duration": 0.3229166666666667
            },
            {
              "pitch": 57,
              "velocity": 96,
              "position": 7,
              "duration": 0.40625
            },
            {
              "pitch": 62,
              "velocity": 69,
              "position": 7,
              "duration": 0.40625
            },
            {
              "pitch": 67,
              "velocity": 96,
              "position": 7,
              "duration": 0.40625
            },
            {
              "pitch": 57,
              "velocity": 96,
              "position": 8,
              "duration": 0.40625
            },
            {
              "pitch": 62,
              "velocity": 69,
              "position": 8,
              "duration": 0.40625
            },
            {
              "pitch": 67,
              "velocity": 96,
              "position": 8,
              "duration": 0.40625
            },
            {
              "pitch": 57,
              "velocity": 96,
              "position": 9,
              "duration": 0.40625
            },
            {
              "pitch": 62,
              "velocity": 69,
              "position": 9,
              "duration": 0.40625
            },
            {
              "pitch": 67,
              "velocity": 96,
              "position": 9,
              "duration": 0.40625
            },
            {
              "pitch": 57,
              "velocity": 96,
              "position": 10,
              "duration": 0.40625
            },
            {
              "pitch": 62,
              "velocity": 69,
              "position": 10,
              "duration": 0.40625
            },
            {
              "pitch": 67,
              "velocity": 96,
              "position": 10,
              "duration": 0.40625
            },
            {
              "pitch": 57,
              "velocity": 96,
              "position": 11,
              "duration": 0.40625
            },
            {
              "pitch": 62,
              "velocity": 69,
              "position": 11,
              "duration": 0.40625
            },
            {
              "pitch": 67,
              "velocity": 96,
              "position": 11,
              "duration": 0.40625
            },
            {
              "pitch": 57,
              "velocity": 80,
              "position": 12,
              "duration": 0.65625
            },
            {
              "pitch": 62,
              "velocity": 60,
              "position": 12,
              "duration": 0.65625
            },
            {
              "pitch": 67,
              "velocity": 80,
              "position": 12,
              "duration": 0.65625
            },
            {
              "pitch": 57,
              "velocity": 96,
              "position": 12.666666666666666,
              "duration": 0.3229166666666667
            },
            {
              "pitch": 62,
              "velocity": 69,
              "position": 12.666666666666666,
              "duration": 0.3229166666666667
            },
            {
              "pitch": 67,
              "velocity": 96,
              "position": 12.666666666666666,
              "duration": 0.3229166666666667
            },
            {
              "pitch": 57,
              "velocity": 67,
              "position": 13,
              "duration": 0.40625
            },
            {
              "pitch": 62,
              "velocity": 50,
              "position": 13,
              "duration": 0.40625
            },
            {
              "pitch": 67,
              "velocity": 67,
              "position": 13,
              "duration": 0.40625
            },
            {
              "pitch": 57,
              "velocity": 96,
              "position": 14,
              "duration": 0.40625
            },
            {
              "pitch": 62,
              "velocity": 69,
              "position": 14,
              "duration": 0.40625
            },
            {
              "pitch": 67,
              "velocity": 96,
              "position": 14,
              "duration": 0.40625
            },
            {
              "pitch": 57,
              "velocity": 80,
              "position": 15,
              "duration": 0.65625
            },
            {
              "pitch": 62,
              "velocity": 60,
              "position": 15,
              "duration": 0.65625
            },
            {
              "pitch": 67,
              "velocity": 80,
              "position": 15,
              "duration": 0.65625
            },
            {
              "pitch": 57,
              "velocity": 67,
              "position": 15.666666666666666,
              "duration": 0.3229166666666667
            },
            {
              "pitch": 62,
              "velocity": 50,
              "position": 15.666666666666666,
              "duration": 0.3229166666666667
            },
            {
              "pitch": 67,
              "velocity": 67,
              "position": 15.666666666666666,
              "duration": 0.3229166666666667
            },
            {
              "pitch": 57,
              "velocity": 96,
              "position": 16,
              "duration": 0.40625
            },
            {
              "pitch": 62,
              "velocity": 69,
              "position": 16,
              "duration": 0.40625
            },
            {
              "pitch": 67,
              "velocity": 96,
              "position": 16,
              "duration": 0.40625
            },
            {
              "pitch": 57,
              "velocity": 96,
              "position": 17,
              "duration": 0.40625
            },
            {
              "pitch": 62,
              "velocity": 69,
              "position": 17,
              "duration": 0.40625
            },
            {
              "pitch": 67,
              "velocity": 96,
              "position": 17,
              "duration": 0.40625
            },
            {
              "pitch": 57,
              "velocity": 96,
              "position": 18,
              "duration": 0.40625
            },
            {
              "pitch": 62,
              "velocity": 69,
              "position": 18,
              "duration": 0.40625
            },
            {
              "pitch": 67,
              "velocity": 96,
              "position": 18,
              "duration": 0.40625
            },
            {
              "pitch": 57,
              "velocity": 96,
              "position": 19,
              "duration": 0.40625
            },
            {
              "pitch": 62,
              "velocity": 69,
              "position": 19,
              "duration": 0.40625
            },
            {
              "pitch": 67,
              "velocity": 96,
              "position": 19,
              "duration": 0.40625
            },
            {
              "pitch": 57,
              "velocity": 96,
              "position": 20,
              "duration": 0.40625
            },
            {
              "pitch": 62,
              "velocity": 69,
              "position": 20,
              "duration": 0.40625
            },
            {
              "pitch": 67,
              "velocity": 96,
              "position": 20,
              "duration": 0.40625
            },
            {
              "pitch": 57,
              "velocity": 80,
              "position": 21,
              "duration": 0.65625
            },
            {
              "pitch": 62,
              "velocity": 60,
              "position": 21,
              "duration": 0.65625
            },
            {
              "pitch": 67,
              "velocity": 80,
              "position": 21,
              "duration": 0.65625
            },
            {
              "pitch": 57,
              "velocity": 96,
              "position": 21.666666666666668,
              "duration": 0.3229166666666667
            },
            {
              "pitch": 62,
              "velocity": 69,
              "position": 21.666666666666668,
              "duration": 0.3229166666666667
            },
            {
              "pitch": 67,
              "velocity": 96,
              "position": 21.666666666666668,
              "duration": 0.3229166666666667
            },
            {
              "pitch": 57,
              "velocity": 67,
              "position": 22,
              "duration": 0.65625
            },
            {
              "pitch": 62,
              "velocity": 50,
              "position": 22,
              "duration": 0.65625
            },
            {
              "pitch": 67,
              "velocity": 67,
              "position": 22,
              "duration": 0.65625
            },
            {
              "pitch": 57,
              "velocity": 67,
              "position": 22.666666666666668,
              "duration": 0.3229166666666667
            },
            {
              "pitch": 62,
              "velocity": 50,
              "position": 22.666666666666668,
              "duration": 0.3229166666666667
            },
            {
              "pitch": 67,
              "velocity": 67,
              "position": 22.666666666666668,
              "duration": 0.3229166666666667
            },
            {
              "pitch": 57,
              "velocity": 96,
              "position": 23,
              "duration": 0.40625
            },
            {
              "pitch": 62,
              "velocity": 69,
              "position": 23,
              "duration": 0.40625
            },
            {
              "pitch": 67,
              "velocity": 96,
              "position": 23,
              "duration": 0.40625
            },
            {
              "pitch": 57,
              "velocity": 96,
              "position": 24,
              "duration": 0.40625
            },
            {
              "pitch": 62,
              "velocity": 69,
              "position": 24,
              "duration": 0.40625
            },
            {
              "pitch": 67,
              "velocity": 96,
              "position": 24,
              "duration": 0.40625
            },
            {
              "pitch": 57,
              "velocity": 96,
              "position": 25,
              "duration": 0.40625
            },
            {
              "pitch": 62,
              "velocity": 69,
              "position": 25,
              "duration": 0.40625
            },
            {
              "pitch": 67,
              "velocity": 96,
              "position": 25,
              "duration": 0.40625
            },
            {
              "pitch": 57,
              "velocity": 96,
              "position": 26,
              "duration": 0.40625
            },
            {
              "pitch": 62,
              "velocity": 69,
              "position": 26,
              "duration": 0.40625
            },
            {
              "pitch": 67,
              "velocity": 96,
              "position": 26,
              "duration": 0.40625
            },
            {
              "pitch": 57,
              "velocity": 96,
              "position": 27,
              "duration": 0.40625
            },
            {
              "pitch": 62,
              "velocity": 69,
              "position": 27,
              "duration": 0.40625
            },
            {
              "pitch": 67,
              "velocity": 96,
              "position": 27,
              "duration": 0.40625
            },
            {
              "pitch": 57,
              "velocity": 80,
              "position": 28,
              "duration": 0.65625
            },
            {
              "pitch": 62,
              "velocity": 60,
              "position": 28,
              "duration": 0.65625
            },
            {
              "pitch": 67,
              "velocity": 80,
              "position": 28,
              "duration": 0.65625
            },
            {
              "pitch": 57,
              "velocity": 96,
              "position": 28.666666666666668,
              "duration": 0.3229166666666667
            },
            {
              "pitch": 62,
              "velocity": 69,
              "position": 28.666666666666668,
              "duration": 0.3229166666666667
            },
            {
              "pitch": 67,
              "velocity": 96,
              "position": 28.666666666666668,
              "duration": 0.3229166666666667
            },
            {
              "pitch": 57,
              "velocity": 67,
              "position": 29,
              "duration": 0.40625
            },
            {
              "pitch": 62,
              "velocity": 50,
              "position": 29,
              "duration": 0.40625
            },
            {
              "pitch": 67,
              "velocity": 67,
              "position": 29,
              "duration": 0.40625
            },
            {
              "pitch": 57,
              "velocity": 96,
              "position": 30,
              "duration": 0.40625
            },
            {
              "pitch": 62,
              "velocity": 69,
              "position": 30,
              "duration": 0.40625
            },
            {
              "pitch": 67,
              "velocity": 96,
              "position": 30,
              "duration": 0.40625
            },
            {
              "pitch": 57,
              "velocity": 80,
              "position": 31,
              "duration": 0.65625
            },
            {
              "pitch": 62,
              "velocity": 60,
              "position": 31,
              "duration": 0.65625
            },
            {
              "pitch": 67,
              "velocity": 80,
              "position": 31,
              "duration": 0.65625
            },
            {
              "pitch": 57,
              "velocity": 67,
              "position": 31.666666666666668,
              "duration": 0.3229166666666667
            },
            {
              "pitch": 62,
              "velocity": 50,
              "position": 31.666666666666668,
              "duration": 0.3229166666666667
            },
            {
              "pitch": 67,
              "velocity": 67,
              "position": 31.666666666666668,
              "duration": 0.3229166666666667
            }
          ]
        },
        "12": {
          "ctab": {
            "srcChannel": 12,
            "name": "Pno",
            "accType": "CHORD2",
            "editable": false,
            "mutedNotes": [],
            "mutedChords": [
              "1+2+5",
              "sus4",
              "1+5",
              "1+8",
              "7aug",
              "Maj7aug",
              "7(#9)",
              "7(b13)",
              "7(b9)",
              "7(13)",
              "7#11",
              "7(9)",
              "7b5",
              "7sus4",
              "7th",
              "dim7",
              "dim",
              "minMaj7(9)",
              "minMaj7",
              "min7(11)",
              "min7(9)",
              "m7b5",
              "min7",
              "aug",
              "Maj7#11"
            ],
            "autoStart": false,
            "sourceChordNote": 0,
            "sourceChordType": "Maj",
            "ctb2Low": null,
            "ctb2Main": {
              "ntr": "ROOT_TRANSPOSITION",
              "ntt": "MELODIC_MINOR",
              "bassOn": false,
              "chordRootUpperLimit": 8,
              "noteLowLimit": 58,
              "noteHighLimit": 69,
              "rtr": "PITCH_SHIFT"
            },
            "ctb2High": null
          },
          "notes": [
            {
              "pitch": 57,
              "velocity": 94,
              "position": 0.6666666666666666,
              "duration": 0.28125
            },
            {
              "pitch": 60,
              "velocity": 94,
              "position": 0.6666666666666666,
              "duration": 0.28125
            },
            {
              "pitch": 64,
              "velocity": 94,
              "position": 0.6666666666666666,
              "duration": 0.28125
            },
            {
              "pitch": 67,
              "velocity": 94,
              "position": 0.6666666666666666,
              "duration": 0.28125
            },
            {
              "pitch": 57,
              "velocity": 94,
              "position": 2,
              "duration": 0.28125
            },
            {
              "pitch": 60,
              "velocity": 94,
              "position": 2,
              "duration": 0.28125
            },
            {
              "pitch": 64,
              "velocity": 94,
              "position": 2,
              "duration": 0.28125
            },
            {
              "pitch": 67,
              "velocity": 94,
              "position": 2,
              "duration": 0.28125
            },
            {
              "pitch": 57,
              "velocity": 94,
              "position": 4,
              "duration": 1.65625
            },
            {
              "pitch": 60,
              "velocity": 94,
              "position": 4,
              "duration": 1.65625
            },
            {
              "pitch": 64,
              "velocity": 94,
              "position": 4,
              "duration": 1.65625
            },
            {
              "pitch": 67,
              "velocity": 94,
              "position": 4,
              "duration": 1.65625
            },
            {
              "pitch": 57,
              "velocity": 94,
              "position": 5.666666666666667,
              "duration": 0.28125
            },
            {
              "pitch": 60,
              "velocity": 94,
              "position": 5.666666666666667,
              "duration": 0.28125
            },
            {
              "pitch": 64,
              "velocity": 94,
              "position": 5.666666666666667,
              "duration": 0.28125
            },
            {
              "pitch": 67,
              "velocity": 94,
              "position": 5.666666666666667,
              "duration": 0.28125
            },
            {
              "pitch": 57,
              "velocity": 94,
              "position": 8.666666666666666,
              "duration": 0.28125
            },
            {
              "pitch": 60,
              "velocity": 94,
              "position": 8.666666666666666,
              "duration": 0.28125
            },
            {
              "pitch": 64,
              "velocity": 94,
              "position": 8.666666666666666,
              "duration": 0.28125
            },
            {
              "pitch": 67,
              "velocity": 94,
              "position": 8.666666666666666,
              "duration": 0.28125
            },
            {
              "pitch": 57,
              "velocity": 70,
              "position": 10,
              "duration": 0.65625
            },
            {
              "pitch": 60,
              "velocity": 70,
              "position": 10,
              "duration": 0.65625
            },
            {
              "pitch": 64,
              "velocity": 70,
              "position": 10,
              "duration": 0.65625
            },
            {
              "pitch": 67,
              "velocity": 70,
              "position": 10,
              "duration": 0.65625
            },
            {
              "pitch": 57,
              "velocity": 94,
              "position": 10.666666666666666,
              "duration": 0.28125
            },
            {
              "pitch": 60,
              "velocity": 94,
              "position": 10.666666666666666,
              "duration": 0.28125
            },
            {
              "pitch": 64,
              "velocity": 94,
              "position": 10.666666666666666,
              "duration": 0.28125
            },
            {
              "pitch": 67,
              "velocity": 94,
              "position": 10.666666666666666,
              "duration": 0.28125
            },
            {
              "pitch": 57,
              "velocity": 94,
              "position": 12,
              "duration": 1.65625
            },
            {
              "pitch": 60,
              "velocity": 94,
              "position": 12,
              "duration": 1.65625
            },
            {
              "pitch": 64,
              "velocity": 94,
              "position": 12,
              "duration": 1.65625
            },
            {
              "pitch": 67,
              "velocity": 94,
              "position": 12,
              "duration": 1.65625
            },
            {
              "pitch": 57,
              "velocity": 94,
              "position": 13.666666666666666,
              "duration": 0.28125
            },
            {
              "pitch": 60,
              "velocity": 94,
              "position": 13.666666666666666,
              "duration": 0.28125
            },
            {
              "pitch": 64,
              "velocity": 94,
              "position": 13.666666666666666,
              "duration": 0.28125
            },
            {
              "pitch": 67,
              "velocity": 94,
              "position": 13.666666666666666,
              "duration": 0.28125
            },
            {
              "pitch": 57,
              "velocity": 94,
              "position": 16.666666666666668,
              "duration": 0.28125
            },
            {
              "pitch": 60,
              "velocity": 94,
              "position": 16.666666666666668,
              "duration": 0.28125
            },
            {
              "pitch": 64,
              "velocity": 94,
              "position": 16.666666666666668,
              "duration": 0.28125
            },
            {
              "pitch": 67,
              "velocity": 94,
              "position": 16.666666666666668,
              "duration": 0.28125
            },
            {
              "pitch": 57,
              "velocity": 94,
              "position": 18,
              "duration": 0.28125
            },
            {
              "pitch": 60,
              "velocity": 94,
              "position": 18,
              "duration": 0.28125
            },
            {
              "pitch": 64,
              "velocity": 94,
              "position": 18,
              "duration": 0.28125
            },
            {
              "pitch": 67,
              "velocity": 94,
              "position": 18,
              "duration": 0.28125
            },
            {
              "pitch": 57,
              "velocity": 94,
              "position": 20,
              "duration": 1.65625
            },
            {
              "pitch": 60,
              "velocity": 94,
              "position": 20,
              "duration": 1.65625
            },
            {
              "pitch": 64,
              "velocity": 94,
              "position": 20,
              "duration": 1.65625
            },
            {
              "pitch": 67,
              "velocity": 94,
              "position": 20,
              "duration": 1.65625
            },
            {
              "pitch": 57,
              "velocity": 94,
              "position": 21.666666666666668,
              "duration": 0.28125
            },
            {
              "pitch": 60,
              "velocity": 94,
              "position": 21.666666666666668,
              "duration": 0.28125
            },
            {
              "pitch": 64,
              "velocity": 94,
              "position": 21.666666666666668,
              "duration": 0.28125
            },
            {
              "pitch": 67,
              "velocity": 94,
              "position": 21.666666666666668,
              "duration": 0.28125
            },
            {
              "pitch": 57,
              "velocity": 94,
              "position": 24.666666666666668,
              "duration": 0.28125
            },
            {
              "pitch": 60,
              "velocity": 94,
              "position": 24.666666666666668,
              "duration": 0.28125
            },
            {
              "pitch": 64,
              "velocity": 94,
              "position": 24.666666666666668,
              "duration": 0.28125
            },
            {
              "pitch": 67,
              "velocity": 94,
              "position": 24.666666666666668,
              "duration": 0.28125
            },
            {
              "pitch": 57,
              "velocity": 70,
              "position": 26,
              "duration": 0.65625
            },
            {
              "pitch": 60,
              "velocity": 70,
              "position": 26,
              "duration": 0.65625
            },
            {
              "pitch": 64,
              "velocity": 70,
              "position": 26,
              "duration": 0.65625
            },
            {
              "pitch": 67,
              "velocity": 70,
              "position": 26,
              "duration": 0.65625
            },
            {
              "pitch": 57,
              "velocity": 94,
              "position": 26.666666666666668,
              "duration": 0.28125
            },
            {
              "pitch": 60,
              "velocity": 94,
              "position": 26.666666666666668,
              "duration": 0.28125
            },
            {
              "pitch": 64,
              "velocity": 94,
              "position": 26.666666666666668,
              "duration": 0.28125
            },
            {
              "pitch": 67,
              "velocity": 94,
              "position": 26.666666666666668,
              "duration": 0.28125
            },
            {
              "pitch": 57,
              "velocity": 94,
              "position": 28,
              "duration": 1.65625
            },
            {
              "pitch": 60,
              "velocity": 94,
              "position": 28,
              "duration": 1.65625
            },
            {
              "pitch": 64,
              "velocity": 94,
              "position": 28,
              "duration": 1.65625
            },
            {
              "pitch": 67,
              "velocity": 94,
              "position": 28,
              "duration": 1.65625
            },
            {
              "pitch": 57,
              "velocity": 94,
              "position": 29.666666666666668,
              "duration": 0.28125
            },
            {
              "pitch": 60,
              "velocity": 94,
              "position": 29.666666666666668,
              "duration": 0.28125
            },
            {
              "pitch": 64,
              "velocity": 94,
              "position": 29.666666666666668,
              "duration": 0.28125
            },
            {
              "pitch": 67,
              "velocity": 94,
              "position": 29.666666666666668,
              "duration": 0.28125
            }
          ]
        },
        "13": {
          "ctab": {
            "srcChannel": 13,
            "name": "Sax",
            "accType": "PAD",
            "editable": false,
            "mutedNotes": [],
            "mutedChords": [
              "1+2+5",
              "sus4",
              "1+5",
              "1+8",
              "7aug",
              "Maj7aug",
              "7(#9)",
              "7(b13)",
              "7(b9)",
              "7(13)",
              "7#11",
              "7(9)",
              "7b5",
              "7sus4",
              "7th",
              "dim7",
              "dim",
              "minMaj7(9)",
              "minMaj7",
              "min7(11)",
              "min7(9)",
              "m7b5",
              "min7",
              "aug",
              "Maj7#11"
            ],
            "autoStart": false,
            "sourceChordNote": 0,
            "sourceChordType": "Maj",
            "ctb2Low": null,
            "ctb2Main": {
              "ntr": "ROOT_TRANSPOSITION",
              "ntt": "MELODIC_MINOR",
              "bassOn": false,
              "chordRootUpperLimit": 8,
              "noteLowLimit": 0,
              "noteHighLimit": 127,
              "rtr": "PITCH_SHIFT"
            },
            "ctb2High": null
          },
          "notes": [
            {
              "pitch": 55,
              "velocity": 67,
              "position": 0.010416666666666666,
              "duration": 0.6458333333333334
            },
            {
              "pitch": 57,
              "velocity": 67,
              "position": 0.010416666666666666,
              "duration": 0.6458333333333334
            },
            {
              "pitch": 60,
              "velocity": 67,
              "position": 0.010416666666666666,
              "duration": 0.6458333333333334
            },
            {
              "pitch": 64,
              "velocity": 67,
              "position": 0.010416666666666666,
              "duration": 0.6458333333333334
            },
            {
              "pitch": 57,
              "velocity": 107,
              "position": 0.6666666666666666,
              "duration": 0.3229166666666667
            },
            {
              "pitch": 60,
              "velocity": 107,
              "position": 0.6666666666666666,
              "duration": 0.3229166666666667
            },
            {
              "pitch": 64,
              "velocity": 107,
              "position": 0.6666666666666666,
              "duration": 0.3229166666666667
            },
            {
              "pitch": 67,
              "velocity": 107,
              "position": 0.6666666666666666,
              "duration": 0.3229166666666667
            },
            {
              "pitch": 57,
              "velocity": 80,
              "position": 1,
              "duration": 0.65625
            },
            {
              "pitch": 60,
              "velocity": 80,
              "position": 1,
              "duration": 0.65625
            },
            {
              "pitch": 62,
              "velocity": 80,
              "position": 1,
              "duration": 0.65625
            },
            {
              "pitch": 65,
              "velocity": 80,
              "position": 1,
              "duration": 0.65625
            },
            {
              "pitch": 55,
              "velocity": 107,
              "position": 1.6666666666666667,
              "duration": 0.3229166666666667
            },
            {
              "pitch": 57,
              "velocity": 107,
              "position": 1.6666666666666667,
              "duration": 0.3229166666666667
            },
            {
              "pitch": 60,
              "velocity": 107,
              "position": 1.6666666666666667,
              "duration": 0.3229166666666667
            },
            {
              "pitch": 64,
              "velocity": 107,
              "position": 1.6666666666666667,
              "duration": 0.3229166666666667
            },
            {
              "pitch": 55,
              "velocity": 80,
              "position": 2,
              "duration": 0.4375
            },
            {
              "pitch": 57,
              "velocity": 80,
              "position": 2,
              "duration": 0.4375
            },
            {
              "pitch": 60,
              "velocity": 80,
              "position": 2,
              "duration": 0.4375
            },
            {
              "pitch": 64,
              "velocity": 80,
              "position": 2,
              "duration": 0.4375
            },
            {
              "pitch": 55,
              "velocity": 107,
              "position": 3.6666666666666665,
              "duration": 0.3229166666666667
            },
            {
              "pitch": 57,
              "velocity": 107,
              "position": 3.6666666666666665,
              "duration": 0.3229166666666667
            },
            {
              "pitch": 60,
              "velocity": 107,
              "position": 3.6666666666666665,
              "duration": 0.3229166666666667
            },
            {
              "pitch": 64,
              "velocity": 107,
              "position": 3.6666666666666665,
              "duration": 0.3229166666666667
            },
            {
              "pitch": 55,
              "velocity": 67,
              "position": 4,
              "duration": 0.65625
            },
            {
              "pitch": 57,
              "velocity": 67,
              "position": 4,
              "duration": 0.65625
            },
            {
              "pitch": 60,
              "velocity": 67,
              "position": 4,
              "duration": 0.65625
            },
            {
              "pitch": 64,
              "velocity": 67,
              "position": 4,
              "duration": 0.65625
            },
            {
              "pitch": 57,
              "velocity": 107,
              "position": 4.666666666666667,
              "duration": 0.3229166666666667
            },
            {
              "pitch": 60,
              "velocity": 107,
              "position": 4.666666666666667,
              "duration": 0.3229166666666667
            },
            {
              "pitch": 64,
              "velocity": 107,
              "position": 4.666666666666667,
              "duration": 0.3229166666666667
            },
            {
              "pitch": 67,
              "velocity": 107,
              "position": 4.666666666666667,
              "duration": 0.3229166666666667
            },
            {
              "pitch": 57,
              "velocity": 80,
              "position": 5,
              "duration": 0.65625
            },
            {
              "pitch": 60,
              "velocity": 80,
              "position": 5,
              "duration": 0.65625
            },
            {
              "pitch": 62,
              "velocity": 80,
              "position": 5,
              "duration": 0.65625
            },
            {
              "pitch": 65,
              "velocity": 80,
              "position": 5,
              "duration": 0.65625
            },
            {
              "pitch": 55,
              "velocity": 107,
              "position": 5.666666666666667,
              "duration": 0.3229166666666667
            },
            {
              "pitch": 57,
              "velocity": 107,
              "position": 5.666666666666667,
              "duration": 0.3229166666666667
            },
            {
              "pitch": 60,
              "velocity": 107,
              "position": 5.666666666666667,
              "duration": 0.3229166666666667
            },
            {
              "pitch": 64,
              "velocity": 107,
              "position": 5.666666666666667,
              "duration": 0.3229166666666667
            },
            {
              "pitch": 55,
              "velocity": 80,
              "position": 6,
              "duration": 0.4375
            },
            {
              "pitch": 57,
              "velocity": 80,
              "position": 6,
              "duration": 0.4375
            },
            {
              "pitch": 60,
              "velocity": 80,
              "position": 6,
              "duration": 0.4375
            },
            {
              "pitch": 64,
              "velocity": 80,
              "position": 6,
              "duration": 0.4375
            },
            {
              "pitch": 55,
              "velocity": 107,
              "position": 7.666666666666667,
              "duration": 0.3229166666666667
            },
            {
              "pitch": 57,
              "velocity": 107,
              "position": 7.666666666666667,
              "duration": 0.3229166666666667
            },
            {
              "pitch": 60,
              "velocity": 107,
              "position": 7.666666666666667,
              "duration": 0.3229166666666667
            },
            {
              "pitch": 64,
              "velocity": 107,
              "position": 7.666666666666667,
              "duration": 0.3229166666666667
            },
            {
              "pitch": 55,
              "velocity": 67,
              "position": 8,
              "duration": 0.65625
            },
            {
              "pitch": 57,
              "velocity": 67,
              "position": 8,
              "duration": 0.65625
            },
            {
              "pitch": 60,
              "velocity": 67,
              "position": 8,
              "duration": 0.65625
            },
            {
              "pitch": 64,
              "velocity": 67,
              "position": 8,
              "duration": 0.65625
            },
            {
              "pitch": 57,
              "velocity": 107,
              "position": 8.666666666666666,
              "duration": 0.3229166666666667
            },
            {
              "pitch": 60,
              "velocity": 107,
              "position": 8.666666666666666,
              "duration": 0.3229166666666667
            },
            {
              "pitch": 64,
              "velocity": 107,
              "position": 8.666666666666666,
              "duration": 0.3229166666666667
            },
            {
              "pitch": 67,
              "velocity": 107,
              "position": 8.666666666666666,
              "duration": 0.3229166666666667
            },
            {
              "pitch": 57,
              "velocity": 80,
              "position": 9,
              "duration": 0.65625
            },
            {
              "pitch": 60,
              "velocity": 80,
              "position": 9,
              "duration": 0.65625
            },
            {
              "pitch": 62,
              "velocity": 80,
              "position": 9,
              "duration": 0.65625
            },
            {
              "pitch": 65,
              "velocity": 80,
              "position": 9,
              "duration": 0.65625
            },
            {
              "pitch": 55,
              "velocity": 107,
              "position": 9.666666666666666,
              "duration": 0.3229166666666667
            },
            {
              "pitch": 57,
              "velocity": 107,
              "position": 9.666666666666666,
              "duration": 0.3229166666666667
            },
            {
              "pitch": 60,
              "velocity": 107,
              "position": 9.666666666666666,
              "duration": 0.3229166666666667
            },
            {
              "pitch": 64,
              "velocity": 107,
              "position": 9.666666666666666,
              "duration": 0.3229166666666667
            },
            {
              "pitch": 55,
              "velocity": 80,
              "position": 10,
              "duration": 0.65625
            },
            {
              "pitch": 57,
              "velocity": 80,
              "position": 10,
              "duration": 0.65625
            },
            {
              "pitch": 60,
              "velocity": 80,
              "position": 10,
              "duration": 0.65625
            },
            {
              "pitch": 64,
              "velocity": 80,
              "position": 10,
              "duration": 0.65625
            },
            {
              "pitch": 52,
              "velocity": 91,
              "position": 10.666666666666666,
              "duration": 0.3229166666666667
            },
            {
              "pitch": 55,
              "velocity": 91,
              "position": 10.666666666666666,
              "duration": 0.3229166666666667
            },
            {
              "pitch": 57,
              "velocity": 91,
              "position": 10.666666666666666,
              "duration": 0.3229166666666667
            },
            {
              "pitch": 60,
              "velocity": 91,
              "position": 10.666666666666666,
              "duration": 0.3229166666666667
            },
            {
              "pitch": 48,
              "velocity": 62,
              "position": 11,
              "duration": 0.4375
            },
            {
              "pitch": 52,
              "velocity": 62,
              "position": 11,
              "duration": 0.4375
            },
            {
              "pitch": 55,
              "velocity": 62,
              "position": 11,
              "duration": 0.4375
            },
            {
              "pitch": 57,
              "velocity": 62,
              "position": 11,
              "duration": 0.4375
            },
            {
              "pitch": 52,
              "velocity": 98,
              "position": 12,
              "duration": 1.65625
            },
            {
              "pitch": 55,
              "velocity": 98,
              "position": 12,
              "duration": 1.65625
            },
            {
              "pitch": 57,
              "velocity": 98,
              "position": 12,
              "duration": 1.65625
            },
            {
              "pitch": 60,
              "velocity": 98,
              "position": 12,
              "duration": 1.65625
            },
            {
              "pitch": 55,
              "velocity": 107,
              "position": 13.666666666666666,
              "duration": 0.4375
            },
            {
              "pitch": 57,
              "velocity": 107,
              "position": 13.666666666666666,
              "duration": 0.4375
            },
            {
              "pitch": 60,
              "velocity": 107,
              "position": 13.666666666666666,
              "duration": 0.4375
            },
            {
              "pitch": 64,
              "velocity": 107,
              "position": 13.666666666666666,
              "duration": 0.4375
            },
            {
              "pitch": 55,
              "velocity": 107,
              "position": 15.666666666666666,
              "duration": 0.3229166666666667
            },
            {
              "pitch": 57,
              "velocity": 107,
              "position": 15.666666666666666,
              "duration": 0.3229166666666667
            },
            {
              "pitch": 60,
              "velocity": 107,
              "position": 15.666666666666666,
              "duration": 0.3229166666666667
            },
            {
              "pitch": 64,
              "velocity": 107,
              "position": 15.666666666666666,
              "duration": 0.3229166666666667
            },
            {
              "pitch": 55,
              "velocity": 67,
              "position": 16,
              "duration": 0.65625
            },
            {
              "pitch": 57,
              "velocity": 67,
              "position": 16,
              "duration": 0.65625
            },
            {
              "pitch": 60,
              "velocity": 67,
              "position": 16,
              "duration": 0.65625
            },
            {
              "pitch": 64,
              "velocity": 67,
              "position": 16,
              "duration": 0.65625
            },
            {
              "pitch": 57,
              "velocity": 107,
              "position": 16.666666666666668,
              "duration": 0.3229166666666667
            },
            {
              "pitch": 60,
              "velocity": 107,
              "position": 16.666666666666668,
              "duration": 0.3229166666666667
            },
            {
              "pitch": 64,
              "velocity": 107,
              "position": 16.666666666666668,
              "duration": 0.3229166666666667
            },
            {
              "pitch": 67,
              "velocity": 107,
              "position": 16.666666666666668,
              "duration": 0.3229166666666667
            },
            {
              "pitch": 57,
              "velocity": 80,
              "position": 17,
              "duration": 0.65625
            },
            {
              "pitch": 60,
              "velocity": 80,
              "position": 17,
              "duration": 0.65625
            },
            {
              "pitch": 62,
              "velocity": 80,
              "position": 17,
              "duration": 0.65625
            },
            {
              "pitch": 65,
              "velocity": 80,
              "position": 17,
              "duration": 0.65625
            },
            {
              "pitch": 55,
              "velocity": 107,
              "position": 17.666666666666668,
              "duration": 0.3229166666666667
            },
            {
              "pitch": 57,
              "velocity": 107,
              "position": 17.666666666666668,
              "duration": 0.3229166666666667
            },
            {
              "pitch": 60,
              "velocity": 107,
              "position": 17.666666666666668,
              "duration": 0.3229166666666667
            },
            {
              "pitch": 64,
              "velocity": 107,
              "position": 17.666666666666668,
              "duration": 0.3229166666666667
            },
            {
              "pitch": 55,
              "velocity": 80,
              "position": 18,
              "duration": 0.4375
            },
            {
              "pitch": 57,
              "velocity": 80,
              "position": 18,
              "duration": 0.4375
            },
            {
              "pitch": 60,
              "velocity": 80,
              "position": 18,
              "duration": 0.4375
            },
            {
              "pitch": 64,
              "velocity": 80,
              "position": 18,
              "duration": 0.4375
            },
            {
              "pitch": 55,
              "velocity": 107,
              "position": 19.666666666666668,
              "duration": 0.3229166666666667
            },
            {
              "pitch": 57,
              "velocity": 107,
              "position": 19.666666666666668,
              "duration": 0.3229166666666667
            },
            {
              "pitch": 60,
              "velocity": 107,
              "position": 19.666666666666668,
              "duration": 0.3229166666666667
            },
            {
              "pitch": 64,
              "velocity": 107,
              "position": 19.666666666666668,
              "duration": 0.3229166666666667
            },
            {
              "pitch": 55,
              "velocity": 67,
              "position": 20,
              "duration": 0.65625
            },
            {
              "pitch": 57,
              "velocity": 67,
              "position": 20,
              "duration": 0.65625
            },
            {
              "pitch": 60,
              "velocity": 67,
              "position": 20,
              "duration": 0.65625
            },
            {
              "pitch": 64,
              "velocity": 67,
              "position": 20,
              "duration": 0.65625
            },
            {
              "pitch": 57,
              "velocity": 107,
              "position": 20.666666666666668,
              "duration": 0.3229166666666667
            },
            {
              "pitch": 60,
              "velocity": 107,
              "position": 20.666666666666668,
              "duration": 0.3229166666666667
            },
            {
              "pitch": 64,
              "velocity": 107,
              "position": 20.666666666666668,
              "duration": 0.3229166666666667
            },
            {
              "pitch": 67,
              "velocity": 107,
              "position": 20.666666666666668,
              "duration": 0.3229166666666667
            },
            {
              "pitch": 57,
              "velocity": 80,
              "position": 21,
              "duration": 0.65625
            },
            {
              "pitch": 60,
              "velocity": 80,
              "position": 21,
              "duration": 0.65625
            },
            {
              "pitch": 62,
              "velocity": 80,
              "position": 21,
              "duration": 0.65625
            },
            {
              "pitch": 65,
              "velocity": 80,
              "position": 21,
              "duration": 0.65625
            },
            {
              "pitch": 55,
              "velocity": 107,
              "position": 21.666666666666668,
              "duration": 0.3229166666666667
            },
            {
              "pitch": 57,
              "velocity": 107,
              "position": 21.666666666666668,
              "duration": 0.3229166666666667
            },
            {
              "pitch": 60,
              "velocity": 107,
              "position": 21.666666666666668,
              "duration": 0.3229166666666667
            },
            {
              "pitch": 64,
              "velocity": 107,
              "position": 21.666666666666668,
              "duration": 0.3229166666666667
            },
            {
              "pitch": 55,
              "velocity": 80,
              "position": 22,
              "duration": 0.4375
            },
            {
              "pitch": 57,
              "velocity": 80,
              "position": 22,
              "duration": 0.4375
            },
            {
              "pitch": 60,
              "velocity": 80,
              "position": 22,
              "duration": 0.4375
            },
            {
              "pitch": 64,
              "velocity": 80,
              "position": 22,
              "duration": 0.4375
            },
            {
              "pitch": 55,
              "velocity": 107,
              "position": 23.666666666666668,
              "duration": 0.3229166666666667
            },
            {
              "pitch": 57,
              "velocity": 107,
              "position": 23.666666666666668,
              "duration": 0.3229166666666667
            },
            {
              "pitch": 60,
              "velocity": 107,
              "position": 23.666666666666668,
              "duration": 0.3229166666666667
            },
            {
              "pitch": 64,
              "velocity": 107,
              "position": 23.666666666666668,
              "duration": 0.3229166666666667
            },
            {
              "pitch": 55,
              "velocity": 67,
              "position": 24,
              "duration": 0.65625
            },
            {
              "pitch": 57,
              "velocity": 67,
              "position": 24,
              "duration": 0.65625
            },
            {
              "pitch": 60,
              "velocity": 67,
              "position": 24,
              "duration": 0.65625
            },
            {
              "pitch": 64,
              "velocity": 67,
              "position": 24,
              "duration": 0.65625
            },
            {
              "pitch": 57,
              "velocity": 107,
              "position": 24.666666666666668,
              "duration": 0.3229166666666667
            },
            {
              "pitch": 60,
              "velocity": 107,
              "position": 24.666666666666668,
              "duration": 0.3229166666666667
            },
            {
              "pitch": 64,
              "velocity": 107,
              "position": 24.666666666666668,
              "duration": 0.3229166666666667
            },
            {
              "pitch": 67,
              "velocity": 107,
              "position": 24.666666666666668,
              "duration": 0.3229166666666667
            },
            {
              "pitch": 57,
              "velocity": 80,
              "position": 25,
              "duration": 0.65625
            },
            {
              "pitch": 60,
              "velocity": 80,
              "position": 25,
              "duration": 0.65625
            },
            {
              "pitch": 62,
              "velocity": 80,
              "position": 25,
              "duration": 0.65625
            },
            {
              "pitch": 65,
              "velocity": 80,
              "position": 25,
              "duration": 0.65625
            },
            {
              "pitch": 55,
              "velocity": 107,
              "position": 25.666666666666668,
              "duration": 0.3229166666666667
            },
            {
              "pitch": 57,
              "velocity": 107,
              "position": 25.666666666666668,
              "duration": 0.3229166666666667
            },
            {
              "pitch": 60,
              "velocity": 107,
              "position": 25.666666666666668,
              "duration": 0.3229166666666667
            },
            {
              "pitch": 64,
              "velocity": 107,
              "position": 25.666666666666668,
              "duration": 0.3229166666666667
            },
            {
              "pitch": 55,
              "velocity": 80,
              "position": 26,
              "duration": 0.65625
            },
            {
              "pitch": 57,
              "velocity": 80,
              "position": 26,
              "duration": 0.65625
            },
            {
              "pitch": 60,
              "velocity": 80,
              "position": 26,
              "duration": 0.65625
            },
            {
              "pitch": 64,
              "velocity": 80,
              "position": 26,
              "duration": 0.65625
            },
            {
              "pitch": 52,
              "velocity": 91,
              "position": 26.666666666666668,
              "duration": 0.3229166666666667
            },
            {
              "pitch": 55,
              "velocity": 91,
              "position": 26.666666666666668,
              "duration": 0.3229166666666667
            },
            {
              "pitch": 57,
              "velocity": 91,
              "position": 26.666666666666668,
              "duration": 0.3229166666666667
            },
            {
              "pitch": 60,
              "velocity": 91,
              "position": 26.666666666666668,
              "duration": 0.3229166666666667
            },
            {
              "pitch": 48,
              "velocity": 62,
              "position": 27,
              "duration": 0.4375
            },
            {
              "pitch": 52,
              "velocity": 62,
              "position": 27,
              "duration": 0.4375
            },
            {
              "pitch": 55,
              "velocity": 62,
              "position": 27,
              "duration": 0.4375
            },
            {
              "pitch": 57,
              "velocity": 62,
              "position": 27,
              "duration": 0.4375
            },
            {
              "pitch": 52,
              "velocity": 98,
              "position": 28,
              "duration": 1.65625
            },
            {
              "pitch": 55,
              "velocity": 98,
              "position": 28,
              "duration": 1.65625
            },
            {
              "pitch": 57,
              "velocity": 98,
              "position": 28,
              "duration": 1.65625
            },
            {
              "pitch": 60,
              "velocity": 98,
              "position": 28,
              "duration": 1.65625
            },
            {
              "pitch": 48,
              "velocity": 107,
              "position": 29.666666666666668,
              "duration": 0.4375
            },
            {
              "pitch": 52,
              "velocity": 107,
              "position": 29.666666666666668,
              "duration": 0.4375
            },
            {
              "pitch": 55,
              "velocity": 107,
              "position": 29.666666666666668,
              "duration": 0.4375
            },
            {
              "pitch": 57,
              "velocity": 107,
              "position": 29.666666666666668,
              "duration": 0.4375
            }
          ]
        },
        "14": {
          "ctab": {
            "srcChannel": 14,
            "name": "Brs",
            "accType": "PHRASE1",
            "editable": false,
            "mutedNotes": [],
            "mutedChords": [
              "1+2+5",
              "sus4",
              "1+5",
              "1+8",
              "7aug",
              "Maj7aug",
              "7(#9)",
              "7(b13)",
              "7(b9)",
              "7(13)",
              "7#11",
              "7(9)",
              "7b5",
              "7sus4",
              "7th",
              "dim7",
              "dim",
              "minMaj7(9)",
              "minMaj7",
              "min7(11)",
              "min7(9)",
              "m7b5",
              "min7",
              "aug",
              "Maj7#11"
            ],
            "autoStart": false,
            "sourceChordNote": 0,
            "sourceChordType": "Maj",
            "ctb2Low": null,
            "ctb2Main": {
              "ntr": "ROOT_TRANSPOSITION",
              "ntt": "MELODIC_MINOR",
              "bassOn": false,
              "chordRootUpperLimit": 8,
              "noteLowLimit": 62,
              "noteHighLimit": 73,
              "rtr": "PITCH_SHIFT"
            },
            "ctb2High": null
          },
          "notes": [
            {
              "pitch": 64,
              "velocity": 76,
              "position": 0.6666666666666666,
              "duration": 0.34375
            },
            {
              "pitch": 67,
              "velocity": 76,
              "position": 0.6666666666666666,
              "duration": 0.34375
            },
            {
              "pitch": 69,
              "velocity": 76,
              "position": 0.6666666666666666,
              "duration": 0.34375
            },
            {
              "pitch": 72,
              "velocity": 100,
              "position": 0.6666666666666666,
              "duration": 0.34375
            },
            {
              "pitch": 64,
              "velocity": 76,
              "position": 2,
              "duration": 0.34375
            },
            {
              "pitch": 67,
              "velocity": 76,
              "position": 2,
              "duration": 0.34375
            },
            {
              "pitch": 69,
              "velocity": 76,
              "position": 2,
              "duration": 0.34375
            },
            {
              "pitch": 72,
              "velocity": 100,
              "position": 2,
              "duration": 0.34375
            },
            {
              "pitch": 64,
              "velocity": 76,
              "position": 4,
              "duration": 0.34375
            },
            {
              "pitch": 67,
              "velocity": 76,
              "position": 4,
              "duration": 0.34375
            },
            {
              "pitch": 69,
              "velocity": 76,
              "position": 4,
              "duration": 0.34375
            },
            {
              "pitch": 72,
              "velocity": 100,
              "position": 4,
              "duration": 0.34375
            },
            {
              "pitch": 64,
              "velocity": 76,
              "position": 5.666666666666667,
              "duration": 0.34375
            },
            {
              "pitch": 67,
              "velocity": 76,
              "position": 5.666666666666667,
              "duration": 0.34375
            },
            {
              "pitch": 69,
              "velocity": 76,
              "position": 5.666666666666667,
              "duration": 0.34375
            },
            {
              "pitch": 72,
              "velocity": 100,
              "position": 5.666666666666667,
              "duration": 0.34375
            },
            {
              "pitch": 64,
              "velocity": 76,
              "position": 8.666666666666666,
              "duration": 0.34375
            },
            {
              "pitch": 67,
              "velocity": 76,
              "position": 8.666666666666666,
              "duration": 0.34375
            },
            {
              "pitch": 69,
              "velocity": 76,
              "position": 8.666666666666666,
              "duration": 0.34375
            },
            {
              "pitch": 72,
              "velocity": 100,
              "position": 8.666666666666666,
              "duration": 0.34375
            },
            {
              "pitch": 64,
              "velocity": 60,
              "position": 10,
              "duration": 0.65625
            },
            {
              "pitch": 67,
              "velocity": 60,
              "position": 10,
              "duration": 0.65625
            },
            {
              "pitch": 69,
              "velocity": 60,
              "position": 10,
              "duration": 0.65625
            },
            {
              "pitch": 72,
              "velocity": 76,
              "position": 10,
              "duration": 0.65625
            },
            {
              "pitch": 64,
              "velocity": 76,
              "position": 10.666666666666666,
              "duration": 0.34375
            },
            {
              "pitch": 67,
              "velocity": 76,
              "position": 10.666666666666666,
              "duration": 0.34375
            },
            {
              "pitch": 69,
              "velocity": 76,
              "position": 10.666666666666666,
              "duration": 0.34375
            },
            {
              "pitch": 72,
              "velocity": 100,
              "position": 10.666666666666666,
              "duration": 0.34375
            },
            {
              "pitch": 64,
              "velocity": 76,
              "position": 12,
              "duration": 0.34375
            },
            {
              "pitch": 67,
              "velocity": 76,
              "position": 12,
              "duration": 0.34375
            },
            {
              "pitch": 69,
              "velocity": 76,
              "position": 12,
              "duration": 0.34375
            },
            {
              "pitch": 72,
              "velocity": 100,
              "position": 12,
              "duration": 0.34375
            },
            {
              "pitch": 64,
              "velocity": 76,
              "position": 13.666666666666666,
              "duration": 0.34375
            },
            {
              "pitch": 67,
              "velocity": 76,
              "position": 13.666666666666666,
              "duration": 0.34375
            },
            {
              "pitch": 69,
              "velocity": 76,
              "position": 13.666666666666666,
              "duration": 0.34375
            },
            {
              "pitch": 72,
              "velocity": 100,
              "position": 13.666666666666666,
              "duration": 0.34375
            },
            {
              "pitch": 64,
              "velocity": 76,
              "position": 16.666666666666668,
              "duration": 0.34375
            },
            {
              "pitch": 67,
              "velocity": 76,
              "position": 16.666666666666668,
              "duration": 0.34375
            },
            {
              "pitch": 69,
              "velocity": 76,
              "position": 16.666666666666668,
              "duration": 0.34375
            },
            {
              "pitch": 72,
              "velocity": 100,
              "position": 16.666666666666668,
              "duration": 0.34375
            },
            {
              "pitch": 64,
              "velocity": 76,
              "position": 18,
              "duration": 0.34375
            },
            {
              "pitch": 67,
              "velocity": 76,
              "position": 18,
              "duration": 0.34375
            },
            {
              "pitch": 69,
              "velocity": 76,
              "position": 18,
              "duration": 0.34375
            },
            {
              "pitch": 72,
              "velocity": 100,
              "position": 18,
              "duration": 0.34375
            },
            {
              "pitch": 64,
              "velocity": 76,
              "position": 20,
              "duration": 0.34375
            },
            {
              "pitch": 67,
              "velocity": 76,
              "position": 20,
              "duration": 0.34375
            },
            {
              "pitch": 69,
              "velocity": 76,
              "position": 20,
              "duration": 0.34375
            },
            {
              "pitch": 72,
              "velocity": 100,
              "position": 20,
              "duration": 0.34375
            },
            {
              "pitch": 64,
              "velocity": 76,
              "position": 21.666666666666668,
              "duration": 0.34375
            },
            {
              "pitch": 67,
              "velocity": 76,
              "position": 21.666666666666668,
              "duration": 0.34375
            },
            {
              "pitch": 69,
              "velocity": 76,
              "position": 21.666666666666668,
              "duration": 0.34375
            },
            {
              "pitch": 72,
              "velocity": 100,
              "position": 21.666666666666668,
              "duration": 0.34375
            },
            {
              "pitch": 64,
              "velocity": 76,
              "position": 24.666666666666668,
              "duration": 0.34375
            },
            {
              "pitch": 67,
              "velocity": 76,
              "position": 24.666666666666668,
              "duration": 0.34375
            },
            {
              "pitch": 69,
              "velocity": 76,
              "position": 24.666666666666668,
              "duration": 0.34375
            },
            {
              "pitch": 72,
              "velocity": 100,
              "position": 24.666666666666668,
              "duration": 0.34375
            },
            {
              "pitch": 64,
              "velocity": 60,
              "position": 26,
              "duration": 0.65625
            },
            {
              "pitch": 67,
              "velocity": 60,
              "position": 26,
              "duration": 0.65625
            },
            {
              "pitch": 69,
              "velocity": 60,
              "position": 26,
              "duration": 0.65625
            },
            {
              "pitch": 72,
              "velocity": 76,
              "position": 26,
              "duration": 0.65625
            },
            {
              "pitch": 64,
              "velocity": 76,
              "position": 26.666666666666668,
              "duration": 0.34375
            },
            {
              "pitch": 67,
              "velocity": 76,
              "position": 26.666666666666668,
              "duration": 0.34375
            },
            {
              "pitch": 69,
              "velocity": 76,
              "position": 26.666666666666668,
              "duration": 0.34375
            },
            {
              "pitch": 72,
              "velocity": 100,
              "position": 26.666666666666668,
              "duration": 0.34375
            },
            {
              "pitch": 64,
              "velocity": 76,
              "position": 28,
              "duration": 0.34375
            },
            {
              "pitch": 67,
              "velocity": 76,
              "position": 28,
              "duration": 0.34375
            },
            {
              "pitch": 69,
              "velocity": 76,
              "position": 28,
              "duration": 0.34375
            },
            {
              "pitch": 72,
              "velocity": 100,
              "position": 28,
              "duration": 0.34375
            },
            {
              "pitch": 64,
              "velocity": 76,
              "position": 29.666666666666668,
              "duration": 0.34375
            },
            {
              "pitch": 67,
              "velocity": 76,
              "position": 29.666666666666668,
              "duration": 0.34375
            },
            {
              "pitch": 69,
              "velocity": 76,
              "position": 29.666666666666668,
              "duration": 0.34375
            },
            {
              "pitch": 72,
              "velocity": 100,
              "position": 29.666666666666668,
              "duration": 0.34375
            }
          ]
        },
        "15": {
          "ctab": {
            "srcChannel": 15,
            "name": "Tbn",
            "accType": "PHRASE2",
            "editable": false,
            "mutedNotes": [],
            "mutedChords": [
              "1+2+5",
              "sus4",
              "1+5",
              "1+8",
              "7aug",
              "Maj7aug",
              "7(#9)",
              "7(b13)",
              "7(b9)",
              "7(13)",
              "7#11",
              "7(9)",
              "7b5",
              "7sus4",
              "7th",
              "dim7",
              "dim",
              "minMaj7(9)",
              "minMaj7",
              "min7(11)",
              "min7(9)",
              "m7b5",
              "min7",
              "aug",
              "Maj7#11"
            ],
            "autoStart": false,
            "sourceChordNote": 0,
            "sourceChordType": "Maj",
            "ctb2Low": null,
            "ctb2Main": {
              "ntr": "ROOT_TRANSPOSITION",
              "ntt": "MELODIC_MINOR",
              "bassOn": false,
              "chordRootUpperLimit": 8,
              "noteLowLimit": 53,
              "noteHighLimit": 66,
              "rtr": "PITCH_SHIFT"
            },
            "ctb2High": null
          },
          "notes": [
            {
              "pitch": 55,
              "velocity": 100,
              "position": 0,
              "duration": 0.3229166666666667
            },
            {
              "pitch": 57,
              "velocity": 100,
              "position": 0,
              "duration": 0.3229166666666667
            },
            {
              "pitch": 60,
              "velocity": 100,
              "position": 0,
              "duration": 0.3229166666666667
            },
            {
              "pitch": 64,
              "velocity": 100,
              "position": 0,
              "duration": 0.3229166666666667
            },
            {
              "pitch": 55,
              "velocity": 100,
              "position": 2,
              "duration": 0.3229166666666667
            },
            {
              "pitch": 57,
              "velocity": 100,
              "position": 2,
              "duration": 0.3229166666666667
            },
            {
              "pitch": 60,
              "velocity": 100,
              "position": 2,
              "duration": 0.3229166666666667
            },
            {
              "pitch": 64,
              "velocity": 100,
              "position": 2,
              "duration": 0.3229166666666667
            },
            {
              "pitch": 55,
              "velocity": 100,
              "position": 4,
              "duration": 0.3229166666666667
            },
            {
              "pitch": 57,
              "velocity": 100,
              "position": 4,
              "duration": 0.3229166666666667
            },
            {
              "pitch": 60,
              "velocity": 100,
              "position": 4,
              "duration": 0.3229166666666667
            },
            {
              "pitch": 64,
              "velocity": 100,
              "position": 4,
              "duration": 0.3229166666666667
            },
            {
              "pitch": 55,
              "velocity": 100,
              "position": 5.666666666666667,
              "duration": 0.3229166666666667
            },
            {
              "pitch": 57,
              "velocity": 100,
              "position": 5.666666666666667,
              "duration": 0.3229166666666667
            },
            {
              "pitch": 60,
              "velocity": 100,
              "position": 5.666666666666667,
              "duration": 0.3229166666666667
            },
            {
              "pitch": 64,
              "velocity": 100,
              "position": 5.666666666666667,
              "duration": 0.3229166666666667
            },
            {
              "pitch": 55,
              "velocity": 100,
              "position": 7,
              "duration": 1.65625
            },
            {
              "pitch": 57,
              "velocity": 100,
              "position": 7,
              "duration": 1.65625
            },
            {
              "pitch": 60,
              "velocity": 100,
              "position": 7,
              "duration": 1.65625
            },
            {
              "pitch": 64,
              "velocity": 100,
              "position": 7,
              "duration": 1.65625
            },
            {
              "pitch": 55,
              "velocity": 100,
              "position": 8.666666666666666,
              "duration": 0.3229166666666667
            },
            {
              "pitch": 57,
              "velocity": 100,
              "position": 8.666666666666666,
              "duration": 0.3229166666666667
            },
            {
              "pitch": 60,
              "velocity": 100,
              "position": 8.666666666666666,
              "duration": 0.3229166666666667
            },
            {
              "pitch": 64,
              "velocity": 100,
              "position": 8.666666666666666,
              "duration": 0.3229166666666667
            },
            {
              "pitch": 55,
              "velocity": 69,
              "position": 10,
              "duration": 0.65625
            },
            {
              "pitch": 57,
              "velocity": 69,
              "position": 10,
              "duration": 0.65625
            },
            {
              "pitch": 60,
              "velocity": 69,
              "position": 10,
              "duration": 0.65625
            },
            {
              "pitch": 64,
              "velocity": 69,
              "position": 10,
              "duration": 0.65625
            },
            {
              "pitch": 55,
              "velocity": 100,
              "position": 10.666666666666666,
              "duration": 0.3229166666666667
            },
            {
              "pitch": 57,
              "velocity": 100,
              "position": 10.666666666666666,
              "duration": 0.3229166666666667
            },
            {
              "pitch": 60,
              "velocity": 100,
              "position": 10.666666666666666,
              "duration": 0.3229166666666667
            },
            {
              "pitch": 64,
              "velocity": 100,
              "position": 10.666666666666666,
              "duration": 0.3229166666666667
            },
            {
              "pitch": 55,
              "velocity": 100,
              "position": 12,
              "duration": 0.3229166666666667
            },
            {
              "pitch": 57,
              "velocity": 100,
              "position": 12,
              "duration": 0.3229166666666667
            },
            {
              "pitch": 60,
              "velocity": 100,
              "position": 12,
              "duration": 0.3229166666666667
            },
            {
              "pitch": 64,
              "velocity": 100,
              "position": 12,
              "duration": 0.3229166666666667
            },
            {
              "pitch": 55,
              "velocity": 100,
              "position": 13.666666666666666,
              "duration": 0.3229166666666667
            },
            {
              "pitch": 57,
              "velocity": 100,
              "position": 13.666666666666666,
              "duration": 0.3229166666666667
            },
            {
              "pitch": 60,
              "velocity": 100,
              "position": 13.666666666666666,
              "duration": 0.3229166666666667
            },
            {
              "pitch": 64,
              "velocity": 100,
              "position": 13.666666666666666,
              "duration": 0.3229166666666667
            },
            {
              "pitch": 55,
              "velocity": 100,
              "position": 14.666666666666666,
              "duration": 1.3229166666666667
            },
            {
              "pitch": 57,
              "velocity": 100,
              "position": 14.666666666666666,
              "duration": 1.3229166666666667
            },
            {
              "pitch": 60,
              "velocity": 100,
              "position": 14.666666666666666,
              "duration": 1.3229166666666667
            },
            {
              "pitch": 64,
              "velocity": 100,
              "position": 14.666666666666666,
              "duration": 1.3229166666666667
            },
            {
              "pitch": 55,
              "velocity": 100,
              "position": 16,
              "duration": 0.3229166666666667
            },
            {
              "pitch": 57,
              "velocity": 100,
              "position": 16,
              "duration": 0.3229166666666667
            },
            {
              "pitch": 60,
              "velocity": 100,
              "position": 16,
              "duration": 0.3229166666666667
            },
            {
              "pitch": 64,
              "velocity": 100,
              "position": 16,
              "duration": 0.3229166666666667
            },
            {
              "pitch": 55,
              "velocity": 100,
              "position": 18,
              "duration": 0.3229166666666667
            },
            {
              "pitch": 57,
              "velocity": 100,
              "position": 18,
              "duration": 0.3229166666666667
            },
            {
              "pitch": 60,
              "velocity": 100,
              "position": 18,
              "duration": 0.3229166666666667
            },
            {
              "pitch": 64,
              "velocity": 100,
              "position": 18,
              "duration": 0.3229166666666667
            },
            {
              "pitch": 55,
              "velocity": 100,
              "position": 20,
              "duration": 0.3229166666666667
            },
            {
              "pitch": 57,
              "velocity": 100,
              "position": 20,
              "duration": 0.3229166666666667
            },
            {
              "pitch": 60,
              "velocity": 100,
              "position": 20,
              "duration": 0.3229166666666667
            },
            {
              "pitch": 64,
              "velocity": 100,
              "position": 20,
              "duration": 0.3229166666666667
            },
            {
              "pitch": 55,
              "velocity": 100,
              "position": 21.666666666666668,
              "duration": 0.3229166666666667
            },
            {
              "pitch": 57,
              "velocity": 100,
              "position": 21.666666666666668,
              "duration": 0.3229166666666667
            },
            {
              "pitch": 60,
              "velocity": 100,
              "position": 21.666666666666668,
              "duration": 0.3229166666666667
            },
            {
              "pitch": 64,
              "velocity": 100,
              "position": 21.666666666666668,
              "duration": 0.3229166666666667
            },
            {
              "pitch": 55,
              "velocity": 100,
              "position": 23,
              "duration": 1.65625
            },
            {
              "pitch": 57,
              "velocity": 100,
              "position": 23,
              "duration": 1.65625
            },
            {
              "pitch": 60,
              "velocity": 100,
              "position": 23,
              "duration": 1.65625
            },
            {
              "pitch": 64,
              "velocity": 100,
              "position": 23,
              "duration": 1.65625
            },
            {
              "pitch": 55,
              "velocity": 100,
              "position": 24.666666666666668,
              "duration": 0.3229166666666667
            },
            {
              "pitch": 57,
              "velocity": 100,
              "position": 24.666666666666668,
              "duration": 0.3229166666666667
            },
            {
              "pitch": 60,
              "velocity": 100,
              "position": 24.666666666666668,
              "duration": 0.3229166666666667
            },
            {
              "pitch": 64,
              "velocity": 100,
              "position": 24.666666666666668,
              "duration": 0.3229166666666667
            },
            {
              "pitch": 55,
              "velocity": 69,
              "position": 26,
              "duration": 0.65625
            },
            {
              "pitch": 57,
              "velocity": 69,
              "position": 26,
              "duration": 0.65625
            },
            {
              "pitch": 60,
              "velocity": 69,
              "position": 26,
              "duration": 0.65625
            },
            {
              "pitch": 64,
              "velocity": 69,
              "position": 26,
              "duration": 0.65625
            },
            {
              "pitch": 55,
              "velocity": 100,
              "position": 26.666666666666668,
              "duration": 0.3229166666666667
            },
            {
              "pitch": 57,
              "velocity": 100,
              "position": 26.666666666666668,
              "duration": 0.3229166666666667
            },
            {
              "pitch": 60,
              "velocity": 100,
              "position": 26.666666666666668,
              "duration": 0.3229166666666667
            },
            {
              "pitch": 64,
              "velocity": 100,
              "position": 26.666666666666668,
              "duration": 0.3229166666666667
            },
            {
              "pitch": 55,
              "velocity": 100,
              "position": 28,
              "duration": 0.3229166666666667
            },
            {
              "pitch": 57,
              "velocity": 100,
              "position": 28,
              "duration": 0.3229166666666667
            },
            {
              "pitch": 60,
              "velocity": 100,
              "position": 28,
              "duration": 0.3229166666666667
            },
            {
              "pitch": 64,
              "velocity": 100,
              "position": 28,
              "duration": 0.3229166666666667
            },
            {
              "pitch": 55,
              "velocity": 100,
              "position": 29.666666666666668,
              "duration": 0.3229166666666667
            },
            {
              "pitch": 57,
              "velocity": 100,
              "position": 29.666666666666668,
              "duration": 0.3229166666666667
            },
            {
              "pitch": 60,
              "velocity": 100,
              "position": 29.666666666666668,
              "duration": 0.3229166666666667
            },
            {
              "pitch": 64,
              "velocity": 100,
              "position": 29.666666666666668,
              "duration": 0.3229166666666667
            },
            {
              "pitch": 55,
              "velocity": 100,
              "position": 30.666666666666668,
              "duration": 1.3229166666666667
            },
            {
              "pitch": 57,
              "velocity": 100,
              "position": 30.666666666666668,
              "duration": 1.3229166666666667
            },
            {
              "pitch": 60,
              "velocity": 100,
              "position": 30.666666666666668,
              "duration": 1.3229166666666667
            },
            {
              "pitch": 64,
              "velocity": 100,
              "position": 30.666666666666668,
              "duration": 1.3229166666666667
            }
          ]
        }
      }
    },
    "Intro_A": {
      "type": "Intro_A",
      "sizeInBeats": 8,
      "channels": {
        "0": {
          "ctab": {
            "srcChannel": 0,
            "name": "CC_Crash",
            "accType": "RHYTHM",
            "editable": false,
            "mutedNotes": [],
            "mutedChords": [
              "1+2+5",
              "sus4",
              "1+5",
              "1+8",
              "7aug",
              "Maj7aug",
              "7(#9)",
              "7(b13)",
              "7(b9)",
              "7(13)",
              "7#11",
              "7(9)",
              "7b5",
              "7sus4",
              "7th",
              "dim7",
              "dim",
              "minMaj7(9)",
              "minMaj7",
              "min7(11)",
              "min7(9)",
              "min(9)",
              "m7b5",
              "min7",
              "min6",
              "min",
              "aug",
              "Maj6(9)",
              "Maj7(9)",
              "Maj(9)",
              "Maj7#11",
              "Maj7",
              "Maj6",
              "Maj"
            ],
            "autoStart": true,
            "sourceChordNote": 0,
            "sourceChordType": "Maj",
            "ctb2Low": null,
            "ctb2Main": {
              "ntr": "ROOT_FIXED",
              "ntt": "BYPASS",
              "bassOn": false,
              "chordRootUpperLimit": 0,
              "noteLowLimit": 0,
              "noteHighLimit": 127,
              "rtr": "RETRIGGER"
            },
            "ctb2High": null
          },
          "notes": []
        },
        "1": {
          "ctab": {
            "srcChannel": 1,
            "name": "Bass",
            "accType": "BASS",
            "editable": false,
            "mutedNotes": [],
            "mutedChords": [
              "1+2+5",
              "sus4",
              "1+5",
              "1+8",
              "dim",
              "min(9)",
              "m7b5",
              "min6",
              "min",
              "aug",
              "Maj6(9)",
              "Maj7(9)",
              "Maj(9)",
              "Maj7",
              "Maj6",
              "Maj"
            ],
            "autoStart": false,
            "sourceChordNote": 0,
            "sourceChordType": "Maj7",
            "ctb2Low": null,
            "ctb2Main": {
              "ntr": "ROOT_TRANSPOSITION",
              "ntt": "MELODY",
              "bassOn": true,
              "chordRootUpperLimit": 8,
              "noteLowLimit": 28,
              "noteHighLimit": 127,
              "rtr": "PITCH_SHIFT_TO_ROOT"
            },
            "ctb2High": null
          },
          "notes": []
        },
        "2": {
          "ctab": {
            "srcChannel": 2,
            "name": "Gt",
            "accType": "CHORD1",
            "editable": false,
            "mutedNotes": [],
            "mutedChords": [
              "min(9)",
              "min6",
              "min",
              "Maj6(9)",
              "Maj7(9)",
              "Maj(9)",
              "Maj7",
              "Maj6",
              "Maj"
            ],
            "autoStart": false,
            "sourceChordNote": 0,
            "sourceChordType": "Maj7",
            "ctb2Low": null,
            "ctb2Main": {
              "ntr": "ROOT_FIXED",
              "ntt": "CHORD",
              "bassOn": false,
              "chordRootUpperLimit": 8,
              "noteLowLimit": 0,
              "noteHighLimit": 127,
              "rtr": "PITCH_SHIFT"
            },
            "ctb2High": null
          },
          "notes": []
        },
        "3": {
          "ctab": {
            "srcChannel": 3,
            "name": "Pno",
            "accType": "CHORD2",
            "editable": false,
            "mutedNotes": [],
            "mutedChords": [
              "min(9)",
              "min6",
              "min",
              "Maj6(9)",
              "Maj7(9)",
              "Maj(9)",
              "Maj7",
              "Maj6",
              "Maj"
            ],
            "autoStart": false,
            "sourceChordNote": 0,
            "sourceChordType": "Maj7",
            "ctb2Low": null,
            "ctb2Main": {
              "ntr": "ROOT_FIXED",
              "ntt": "CHORD",
              "bassOn": false,
              "chordRootUpperLimit": 8,
              "noteLowLimit": 0,
              "noteHighLimit": 127,
              "rtr": "PITCH_SHIFT"
            },
            "ctb2High": null
          },
          "notes": []
        },
        "4": {
          "ctab": {
            "srcChannel": 4,
            "name": "Sax",
            "accType": "PAD",
            "editable": false,
            "mutedNotes": [],
            "mutedChords": [
              "min(9)",
              "min6",
              "min",
              "Maj6(9)",
              "Maj7(9)",
              "Maj(9)",
              "Maj7",
              "Maj6",
              "Maj"
            ],
            "autoStart": false,
            "sourceChordNote": 0,
            "sourceChordType": "Maj7",
            "ctb2Low": null,
            "ctb2Main": {
              "ntr": "ROOT_TRANSPOSITION",
              "ntt": "MELODY",
              "bassOn": false,
              "chordRootUpperLimit": 8,
              "noteLowLimit": 0,
              "noteHighLimit": 127,
              "rtr": "PITCH_SHIFT"
            },
            "ctb2High": null
          },
          "notes": []
        },
        "5": {
          "ctab": {
            "srcChannel": 5,
            "name": "Brs",
            "accType": "PHRASE1",
            "editable": false,
            "mutedNotes": [],
            "mutedChords": [
              "min(9)",
              "min6",
              "min",
              "Maj6(9)",
              "Maj7(9)",
              "Maj(9)",
              "Maj7",
              "Maj6",
              "Maj"
            ],
            "autoStart": false,
            "sourceChordNote": 0,
            "sourceChordType": "Maj7",
            "ctb2Low": null,
            "ctb2Main": {
              "ntr": "ROOT_TRANSPOSITION",
              "ntt": "MELODY",
              "bassOn": false,
              "chordRootUpperLimit": 8,
              "noteLowLimit": 62,
              "noteHighLimit": 73,
              "rtr": "PITCH_SHIFT"
            },
            "ctb2High": null
          },
          "notes": []
        },
        "6": {
          "ctab": {
            "srcChannel": 6,
            "name": "Tbn",
            "accType": "PHRASE2",
            "editable": false,
            "mutedNotes": [],
            "mutedChords": [
              "min(9)",
              "min6",
              "min",
              "Maj6(9)",
              "Maj7(9)",
              "Maj(9)",
              "Maj7",
              "Maj6",
              "Maj"
            ],
            "autoStart": false,
            "sourceChordNote": 0,
            "sourceChordType": "Maj7",
            "ctb2Low": null,
            "ctb2Main": {
              "ntr": "ROOT_FIXED",
              "ntt": "CHORD",
              "bassOn": false,
              "chordRootUpperLimit": 8,
              "noteLowLimit": 0,
              "noteHighLimit": 127,
              "rtr": "PITCH_SHIFT"
            },
            "ctb2High": null
          },
          "notes": []
        },
        "7": {
          "ctab": {
            "srcChannel": 7,
            "name": "Bass",
            "accType": "BASS",
            "editable": false,
            "mutedNotes": [],
            "mutedChords": [
              "7aug",
              "Maj7aug",
              "7(#9)",
              "7(b13)",
              "7(b9)",
              "7(13)",
              "7#11",
              "7(9)",
              "7b5",
              "7sus4",
              "7th",
              "dim7",
              "minMaj7(9)",
              "minMaj7",
              "min7(11)",
              "min7(9)",
              "min(9)",
              "min7",
              "min6",
              "min",
              "Maj6(9)",
              "Maj7(9)",
              "Maj(9)",
              "Maj7#11",
              "Maj7",
              "Maj6",
              "Maj"
            ],
            "autoStart": false,
            "sourceChordNote": 0,
            "sourceChordType": "Maj7",
            "ctb2Low": null,
            "ctb2Main": {
              "ntr": "ROOT_TRANSPOSITION",
              "ntt": "MELODY",
              "bassOn": true,
              "chordRootUpperLimit": 8,
              "noteLowLimit": 28,
              "noteHighLimit": 127,
              "rtr": "PITCH_SHIFT_TO_ROOT"
            },
            "ctb2High": null
          },
          "notes": []
        },
        "8": {
          "ctab": {
            "srcChannel": 8,
            "name": "Prc",
            "accType": "SUBRHYTHM",
            "editable": false,
            "mutedNotes": [],
            "mutedChords": [],
            "autoStart": true,
            "sourceChordNote": 0,
            "sourceChordType": "Maj7",
            "ctb2Low": null,
            "ctb2Main": {
              "ntr": "ROOT_FIXED",
              "ntt": "BYPASS",
              "bassOn": false,
              "chordRootUpperLimit": 6,
              "noteLowLimit": 0,
              "noteHighLimit": 127,
              "rtr": "PITCH_SHIFT"
            },
            "ctb2High": null
          },
          "notes": []
        },
        "9": {
          "ctab": {
            "srcChannel": 9,
            "name": "Drs",
            "accType": "RHYTHM",
            "editable": false,
            "mutedNotes": [],
            "mutedChords": [],
            "autoStart": true,
            "sourceChordNote": 0,
            "sourceChordType": "Maj7",
            "ctb2Low": null,
            "ctb2Main": {
              "ntr": "ROOT_FIXED",
              "ntt": "BYPASS",
              "bassOn": false,
              "chordRootUpperLimit": 6,
              "noteLowLimit": 0,
              "noteHighLimit": 127,
              "rtr": "PITCH_SHIFT"
            },
            "ctb2High": null
          },
          "notes": [
            {
              "pitch": 46,
              "velocity": 48,
              "position": 0,
              "duration": 0.010416666666666666
            },
            {
              "pitch": 44,
              "velocity": 60,
              "position": 1,
              "duration": 0.010416666666666666
            },
            {
              "pitch": 46,
              "velocity": 24,
              "position": 1.6666666666666667,
              "duration": 0.010416666666666666
            },
            {
              "pitch": 46,
              "velocity": 48,
              "position": 2,
              "duration": 0.010416666666666666
            },
            {
              "pitch": 44,
              "velocity": 60,
              "position": 3,
              "duration": 0.010416666666666666
            },
            {
              "pitch": 46,
              "velocity": 24,
              "position": 3.6666666666666665,
              "duration": 0.010416666666666666
            },
            {
              "pitch": 46,
              "velocity": 48,
              "position": 4,
              "duration": 0.010416666666666666
            },
            {
              "pitch": 46,
              "velocity": 48,
              "position": 5,
              "duration": 0.010416666666666666
            },
            {
              "pitch": 45,
              "velocity": 60,
              "position": 5.666666666666667,
              "duration": 0.010416666666666666
            },
            {
              "pitch": 46,
              "velocity": 48,
              "position": 6,
              "duration": 0.010416666666666666
            },
            {
              "pitch": 31,
              "velocity": 20,
              "position": 6.333333333333333,
              "duration": 0.010416666666666666
            },
            {
              "pitch": 40,
              "velocity": 40,
              "position": 6.666666666666667,
              "duration": 0.010416666666666666
            },
            {
              "pitch": 40,
              "velocity": 80,
              "position": 7,
              "duration": 0.010416666666666666
            },
            {
              "pitch": 46,
              "velocity": 48,
              "position": 7,
              "duration": 0.010416666666666666
            },
            {
              "pitch": 31,
              "velocity": 40,
              "position": 7.333333333333333,
              "duration": 0.010416666666666666
            },
            {
              "pitch": 35,
              "velocity": 54,
              "position": 7.666666666666667,
              "duration": 0.010416666666666666
            }
          ]
        },
        "10": {
          "ctab": {
            "srcChannel": 10,
            "name": "Bass",
            "accType": "BASS",
            "editable": false,
            "mutedNotes": [],
            "mutedChords": [
              "1+2+5",
              "sus4",
              "1+5",
              "1+8",
              "7aug",
              "Maj7aug",
              "7(#9)",
              "7(b13)",
              "7(b9)",
              "7(13)",
              "7#11",
              "7(9)",
              "7b5",
              "7sus4",
              "7th",
              "dim7",
              "dim",
              "minMaj7(9)",
              "minMaj7",
              "min7(11)",
              "min7(9)",
              "m7b5",
              "min7",
              "aug",
              "Maj7#11"
            ],
            "autoStart": false,
            "sourceChordNote": 0,
            "sourceChordType": "Maj",
            "ctb2Low": null,
            "ctb2Main": {
              "ntr": "ROOT_TRANSPOSITION",
              "ntt": "MELODIC_MINOR",
              "bassOn": true,
              "chordRootUpperLimit": 8,
              "noteLowLimit": 28,
              "noteHighLimit": 127,
              "rtr": "PITCH_SHIFT_TO_ROOT"
            },
            "ctb2High": null
          },
          "notes": []
        },
        "11": {
          "ctab": {
            "srcChannel": 11,
            "name": "Gt",
            "accType": "CHORD1",
            "editable": false,
            "mutedNotes": [],
            "mutedChords": [
              "1+2+5",
              "sus4",
              "1+5",
              "1+8",
              "7aug",
              "Maj7aug",
              "7(#9)",
              "7(b13)",
              "7(b9)",
              "7(13)",
              "7#11",
              "7(9)",
              "7b5",
              "7sus4",
              "7th",
              "dim7",
              "dim",
              "minMaj7(9)",
              "minMaj7",
              "min7(11)",
              "min7(9)",
              "m7b5",
              "min7",
              "aug",
              "Maj7#11"
            ],
            "autoStart": false,
            "sourceChordNote": 0,
            "sourceChordType": "Maj",
            "ctb2Low": null,
            "ctb2Main": {
              "ntr": "ROOT_TRANSPOSITION",
              "ntt": "MELODIC_MINOR",
              "bassOn": false,
              "chordRootUpperLimit": 4,
              "noteLowLimit": 54,
              "noteHighLimit": 127,
              "rtr": "PITCH_SHIFT"
            },
            "ctb2High": null
          },
          "notes": []
        },
        "12": {
          "ctab": {
            "srcChannel": 12,
            "name": "Pno",
            "accType": "CHORD2",
            "editable": false,
            "mutedNotes": [],
            "mutedChords": [
              "1+2+5",
              "sus4",
              "1+5",
              "1+8",
              "7aug",
              "Maj7aug",
              "7(#9)",
              "7(b13)",
              "7(b9)",
              "7(13)",
              "7#11",
              "7(9)",
              "7b5",
              "7sus4",
              "7th",
              "dim7",
              "dim",
              "minMaj7(9)",
              "minMaj7",
              "min7(11)",
              "min7(9)",
              "m7b5",
              "min7",
              "aug",
              "Maj7#11"
            ],
            "autoStart": false,
            "sourceChordNote": 0,
            "sourceChordType": "Maj",
            "ctb2Low": null,
            "ctb2Main": {
              "ntr": "ROOT_TRANSPOSITION",
              "ntt": "MELODIC_MINOR",
              "bassOn": false,
              "chordRootUpperLimit": 8,
              "noteLowLimit": 58,
              "noteHighLimit": 69,
              "rtr": "PITCH_SHIFT"
            },
            "ctb2High": null
          },
          "notes": []
        },
        "13": {
          "ctab": {
            "srcChannel": 13,
            "name": "Sax",
            "accType": "PAD",
            "editable": false,
            "mutedNotes": [],
            "mutedChords": [
              "1+2+5",
              "sus4",
              "1+5",
              "1+8",
              "7aug",
              "Maj7aug",
              "7(#9)",
              "7(b13)",
              "7(b9)",
              "7(13)",
              "7#11",
              "7(9)",
              "7b5",
              "7sus4",
              "7th",
              "dim7",
              "dim",
              "minMaj7(9)",
              "minMaj7",
              "min7(11)",
              "min7(9)",
              "m7b5",
              "min7",
              "aug",
              "Maj7#11"
            ],
            "autoStart": false,
            "sourceChordNote": 0,
            "sourceChordType": "Maj",
            "ctb2Low": null,
            "ctb2Main": {
              "ntr": "ROOT_TRANSPOSITION",
              "ntt": "MELODIC_MINOR",
              "bassOn": false,
              "chordRootUpperLimit": 8,
              "noteLowLimit": 0,
              "noteHighLimit": 127,
              "rtr": "PITCH_SHIFT"
            },
            "ctb2High": null
          },
          "notes": []
        },
        "14": {
          "ctab": {
            "srcChannel": 14,
            "name": "Brs",
            "accType": "PHRASE1",
            "editable": false,
            "mutedNotes": [],
            "mutedChords": [
              "1+2+5",
              "sus4",
              "1+5",
              "1+8",
              "7aug",
              "Maj7aug",
              "7(#9)",
              "7(b13)",
              "7(b9)",
              "7(13)",
              "7#11",
              "7(9)",
              "7b5",
              "7sus4",
              "7th",
              "dim7",
              "dim",
              "minMaj7(9)",
              "minMaj7",
              "min7(11)",
              "min7(9)",
              "m7b5",
              "min7",
              "aug",
              "Maj7#11"
            ],
            "autoStart": false,
            "sourceChordNote": 0,
            "sourceChordType": "Maj",
            "ctb2Low": null,
            "ctb2Main": {
              "ntr": "ROOT_TRANSPOSITION",
              "ntt": "MELODIC_MINOR",
              "bassOn": false,
              "chordRootUpperLimit": 8,
              "noteLowLimit": 62,
              "noteHighLimit": 73,
              "rtr": "PITCH_SHIFT"
            },
            "ctb2High": null
          },
          "notes": []
        },
        "15": {
          "ctab": {
            "srcChannel": 15,
            "name": "Tbn",
            "accType": "PHRASE2",
            "editable": false,
            "mutedNotes": [],
            "mutedChords": [
              "1+2+5",
              "sus4",
              "1+5",
              "1+8",
              "7aug",
              "Maj7aug",
              "7(#9)",
              "7(b13)",
              "7(b9)",
              "7(13)",
              "7#11",
              "7(9)",
              "7b5",
              "7sus4",
              "7th",
              "dim7",
              "dim",
              "minMaj7(9)",
              "minMaj7",
              "min7(11)",
              "min7(9)",
              "m7b5",
              "min7",
              "aug",
              "Maj7#11"
            ],
            "autoStart": false,
            "sourceChordNote": 0,
            "sourceChordType": "Maj",
            "ctb2Low": null,
            "ctb2Main": {
              "ntr": "ROOT_TRANSPOSITION",
              "ntt": "MELODIC_MINOR",
              "bassOn": false,
              "chordRootUpperLimit": 8,
              "noteLowLimit": 53,
              "noteHighLimit": 66,
              "rtr": "PITCH_SHIFT"
            },
            "ctb2High": null
          },
          "notes": []
        }
      }
    },
    "Ending_A": {
      "type": "Ending_A",
      "sizeInBeats": 8,
      "channels": {
        "0": {
          "ctab": {
            "srcChannel": 0,
            "name": "CC_Crash",
            "accType": "RHYTHM",
            "editable": false,
            "mutedNotes": [],
            "mutedChords": [
              "1+2+5",
              "sus4",
              "1+5",
              "1+8",
              "7aug",
              "Maj7aug",
              "7(#9)",
              "7(b13)",
              "7(b9)",
              "7(13)",
              "7#11",
              "7(9)",
              "7b5",
              "7sus4",
              "7th",
              "dim7",
              "dim",
              "minMaj7(9)",
              "minMaj7",
              "min7(11)",
              "min7(9)",
              "min(9)",
              "m7b5",
              "min7",
              "min6",
              "min",
              "aug",
              "Maj6(9)",
              "Maj7(9)",
              "Maj(9)",
              "Maj7#11",
              "Maj7",
              "Maj6",
              "Maj"
            ],
            "autoStart": true,
            "sourceChordNote": 0,
            "sourceChordType": "Maj",
            "ctb2Low": null,
            "ctb2Main": {
              "ntr": "ROOT_FIXED",
              "ntt": "BYPASS",
              "bassOn": false,
              "chordRootUpperLimit": 0,
              "noteLowLimit": 0,
              "noteHighLimit": 127,
              "rtr": "RETRIGGER"
            },
            "ctb2High": null
          },
          "notes": []
        },
        "1": {
          "ctab": {
            "srcChannel": 1,
            "name": "Bass",
            "accType": "BASS",
            "editable": false,
            "mutedNotes": [],
            "mutedChords": [
              "1+2+5",
              "sus4",
              "1+5",
              "1+8",
              "dim",
              "min(9)",
              "m7b5",
              "min6",
              "min",
              "aug",
              "Maj6(9)",
              "Maj7(9)",
              "Maj(9)",
              "Maj7",
              "Maj6",
              "Maj"
            ],
            "autoStart": false,
            "sourceChordNote": 0,
            "sourceChordType": "Maj7",
            "ctb2Low": null,
            "ctb2Main": {
              "ntr": "ROOT_TRANSPOSITION",
              "ntt": "MELODY",
              "bassOn": true,
              "chordRootUpperLimit": 8,
              "noteLowLimit": 28,
              "noteHighLimit": 127,
              "rtr": "PITCH_SHIFT_TO_ROOT"
            },
            "ctb2High": null
          },
          "notes": [
            {
              "pitch": 24,
              "velocity": 80,
              "position": 0,
              "duration": 7.989583333333333
            }
          ]
        },
        "2": {
          "ctab": {
            "srcChannel": 2,
            "name": "Gt",
            "accType": "CHORD1",
            "editable": false,
            "mutedNotes": [],
            "mutedChords": [
              "min(9)",
              "min6",
              "min",
              "Maj6(9)",
              "Maj7(9)",
              "Maj(9)",
              "Maj7",
              "Maj6",
              "Maj"
            ],
            "autoStart": false,
            "sourceChordNote": 0,
            "sourceChordType": "Maj7",
            "ctb2Low": null,
            "ctb2Main": {
              "ntr": "ROOT_FIXED",
              "ntt": "CHORD",
              "bassOn": false,
              "chordRootUpperLimit": 8,
              "noteLowLimit": 0,
              "noteHighLimit": 127,
              "rtr": "PITCH_SHIFT"
            },
            "ctb2High": null
          },
          "notes": [
            {
              "pitch": 55,
              "velocity": 80,
              "position": 0,
              "duration": 7.989583333333333
            },
            {
              "pitch": 59,
              "velocity": 80,
              "position": 0,
              "duration": 7.989583333333333
            },
            {
              "pitch": 64,
              "velocity": 80,
              "position": 0,
              "duration": 7.989583333333333
            }
          ]
        },
        "3": {
          "ctab": {
            "srcChannel": 3,
            "name": "Pno",
            "accType": "CHORD2",
            "editable": false,
            "mutedNotes": [],
            "mutedChords": [
              "min(9)",
              "min6",
              "min",
              "Maj6(9)",
              "Maj7(9)",
              "Maj(9)",
              "Maj7",
              "Maj6",
              "Maj"
            ],
            "autoStart": false,
            "sourceChordNote": 0,
            "sourceChordType": "Maj7",
            "ctb2Low": null,
            "ctb2Main": {
              "ntr": "ROOT_FIXED",
              "ntt": "CHORD",
              "bassOn": false,
              "chordRootUpperLimit": 8,
              "noteLowLimit": 0,
              "noteHighLimit": 127,
              "rtr": "PITCH_SHIFT"
            },
            "ctb2High": null
          },
          "notes": [
            {
              "pitch": 59,
              "velocity": 81,
              "position": 0,
              "duration": 7.989583333333333
            },
            {
              "pitch": 64,
              "velocity": 81,
              "position": 0,
              "duration": 7.989583333333333
            },
            {
              "pitch": 67,
              "velocity": 81,
              "position": 0,
              "duration": 7.989583333333333
            }
          ]
        },
        "4": {
          "ctab": {
            "srcChannel": 4,
            "name": "Sax",
            "accType": "PAD",
            "editable": false,
            "mutedNotes": [],
            "mutedChords": [
              "min(9)",
              "min6",
              "min",
              "Maj6(9)",
              "Maj7(9)",
              "Maj(9)",
              "Maj7",
              "Maj6",
              "Maj"
            ],
            "autoStart": false,
            "sourceChordNote": 0,
            "sourceChordType": "Maj7",
            "ctb2Low": null,
            "ctb2Main": {
              "ntr": "ROOT_TRANSPOSITION",
              "ntt": "MELODY",
              "bassOn": false,
              "chordRootUpperLimit": 8,
              "noteLowLimit": 0,
              "noteHighLimit": 127,
              "rtr": "PITCH_SHIFT"
            },
            "ctb2High": null
          },
          "notes": [
            {
              "pitch": 59,
              "velocity": 70,
              "position": 0.010416666666666666,
              "duration": 7.979166666666667
            },
            {
              "pitch": 64,
              "velocity": 70,
              "position": 0.010416666666666666,
              "duration": 7.979166666666667
            },
            {
              "pitch": 67,
              "velocity": 70,
              "position": 0.010416666666666666,
              "duration": 7.979166666666667
            }
          ]
        },
        "5": {
          "ctab": {
            "srcChannel": 5,
            "name": "Brs",
            "accType": "PHRASE1",
            "editable": false,
            "mutedNotes": [],
            "mutedChords": [
              "min(9)",
              "min6",
              "min",
              "Maj6(9)",
              "Maj7(9)",
              "Maj(9)",
              "Maj7",
              "Maj6",
              "Maj"
            ],
            "autoStart": false,
            "sourceChordNote": 0,
            "sourceChordType": "Maj7",
            "ctb2Low": null,
            "ctb2Main": {
              "ntr": "ROOT_TRANSPOSITION",
              "ntt": "MELODY",
              "bassOn": false,
              "chordRootUpperLimit": 8,
              "noteLowLimit": 62,
              "noteHighLimit": 73,
              "rtr": "PITCH_SHIFT"
            },
            "ctb2High": null
          },
          "notes": [
            {
              "pitch": 64,
              "velocity": 76,
              "position": 0,
              "duration": 7.989583333333333
            },
            {
              "pitch": 67,
              "velocity": 76,
              "position": 0,
              "duration": 7.989583333333333
            },
            {
              "pitch": 72,
              "velocity": 100,
              "position": 0,
              "duration": 7.989583333333333
            }
          ]
        },
        "6": {
          "ctab": {
            "srcChannel": 6,
            "name": "Tbn",
            "accType": "PHRASE2",
            "editable": false,
            "mutedNotes": [],
            "mutedChords": [
              "min(9)",
              "min6",
              "min",
              "Maj6(9)",
              "Maj7(9)",
              "Maj(9)",
              "Maj7",
              "Maj6",
              "Maj"
            ],
            "autoStart": false,
            "sourceChordNote": 0,
            "sourceChordType": "Maj7",
            "ctb2Low": null,
            "ctb2Main": {
              "ntr": "ROOT_FIXED",
              "ntt": "CHORD",
              "bassOn": false,
              "chordRootUpperLimit": 8,
              "noteLowLimit": 0,
              "noteHighLimit": 127,
              "rtr": "PITCH_SHIFT"
            },
            "ctb2High": null
          },
          "notes": [
            {
              "pitch": 55,
              "velocity": 112,
              "position": 0,
              "duration": 7.989583333333333
            },
            {
              "pitch": 59,
              "velocity": 112,
              "position": 0,
              "duration": 7.989583333333333
            },
            {
              "pitch": 64,
              "velocity": 112,
              "position": 0,
              "duration": 7.989583333333333
            }
          ]
        },
        "7": {
          "ctab": {
            "srcChannel": 7,
            "name": "Bass",
            "accType": "BASS",
            "editable": false,
            "mutedNotes": [],
            "mutedChords": [
              "7aug",
              "Maj7aug",
              "7(#9)",
              "7(b13)",
              "7(b9)",
              "7(13)",
              "7#11",
              "7(9)",
              "7b5",
              "7sus4",
              "7th",
              "dim7",
              "minMaj7(9)",
              "minMaj7",
              "min7(11)",
              "min7(9)",
              "min(9)",
              "min7",
              "min6",
              "min",
              "Maj6(9)",
              "Maj7(9)",
              "Maj(9)",
              "Maj7#11",
              "Maj7",
              "Maj6",
              "Maj"
            ],
            "autoStart": false,
            "sourceChordNote": 0,
            "sourceChordType": "Maj7",
            "ctb2Low": null,
            "ctb2Main": {
              "ntr": "ROOT_TRANSPOSITION",
              "ntt": "MELODY",
              "bassOn": true,
              "chordRootUpperLimit": 8,
              "noteLowLimit": 28,
              "noteHighLimit": 127,
              "rtr": "PITCH_SHIFT_TO_ROOT"
            },
            "ctb2High": null
          },
          "notes": [
            {
              "pitch": 24,
              "velocity": 80,
              "position": 0,
              "duration": 7.989583333333333
            }
          ]
        },
        "8": {
          "ctab": {
            "srcChannel": 8,
            "name": "Prc",
            "accType": "SUBRHYTHM",
            "editable": false,
            "mutedNotes": [],
            "mutedChords": [],
            "autoStart": true,
            "sourceChordNote": 0,
            "sourceChordType": "Maj7",
            "ctb2Low": null,
            "ctb2Main": {
              "ntr": "ROOT_FIXED",
              "ntt": "BYPASS",
              "bassOn": false,
              "chordRootUpperLimit": 6,
              "noteLowLimit": 0,
              "noteHighLimit": 127,
              "rtr": "PITCH_SHIFT"
            },
            "ctb2High": null
          },
          "notes": []
        },
        "9": {
          "ctab": {
            "srcChannel": 9,
            "name": "Drs",
            "accType": "RHYTHM",
            "editable": false,
            "mutedNotes": [],
            "mutedChords": [],
            "autoStart": true,
            "sourceChordNote": 0,
            "sourceChordType": "Maj7",
            "ctb2Low": null,
            "ctb2Main": {
              "ntr": "ROOT_FIXED",
              "ntt": "BYPASS",
              "bassOn": false,
              "chordRootUpperLimit": 6,
              "noteLowLimit": 0,
              "noteHighLimit": 127,
              "rtr": "PITCH_SHIFT"
            },
            "ctb2High": null
          },
          "notes": [
            {
              "pitch": 35,
              "velocity": 74,
              "position": 0,
              "duration": 0.010416666666666666
            },
            {
              "pitch": 41,
              "velocity": 20,
              "position": 7.333333333333333,
              "duration": 0.010416666666666666
            },
            {
              "pitch": 41,
              "velocity": 30,
              "position": 7.5,
              "duration": 0.010416666666666666
            },
            {
              "pitch": 41,
              "velocity": 40,
              "position": 7.666666666666667,
              "duration": 0.010416666666666666
            },
            {
              "pitch": 35,
              "velocity": 74,
              "position": 7.833333333333333,
              "duration": 0.010416666666666666
            },
            {
              "pitch": 41,
              "velocity": 60,
              "position": 7.833333333333333,
              "duration": 0.010416666666666666
            },
            {
              "pitch": 44,
              "velocity": 60,
              "position": 7.833333333333333,
              "duration": 0.010416666666666666
            }
          ]
        },
        "10": {
          "ctab": {
            "srcChannel": 10,
            "name": "Bass",
            "accType": "BASS",
            "editable": false,
            "mutedNotes": [],
            "mutedChords": [
              "1+2+5",
              "sus4",
              "1+5",
              "1+8",
              "7aug",
              "Maj7aug",
              "7(#9)",
              "7(b13)",
              "7(b9)",
              "7(13)",
              "7#11",
              "7(9)",
              "7b5",
              "7sus4",
              "7th",
              "dim7",
              "dim",
              "minMaj7(9)",
              "minMaj7",
              "min7(11)",
              "min7(9)",
              "m7b5",
              "min7",
              "aug",
              "Maj7#11"
            ],
            "autoStart": false,
            "sourceChordNote": 0,
            "sourceChordType": "Maj",
            "ctb2Low": null,
            "ctb2Main": {
              "ntr": "ROOT_TRANSPOSITION",
              "ntt": "MELODIC_MINOR",
              "bassOn": true,
              "chordRootUpperLimit": 8,
              "noteLowLimit": 28,
              "noteHighLimit": 127,
              "rtr": "PITCH_SHIFT_TO_ROOT"
            },
            "ctb2High": null
          },
          "notes": [
            {
              "pitch": 24,
              "velocity": 80,
              "position": 0,
              "duration": 7.989583333333333
            }
          ]
        },
        "11": {
          "ctab": {
            "srcChannel": 11,
            "name": "Gt",
            "accType": "CHORD1",
            "editable": false,
            "mutedNotes": [],
            "mutedChords": [
              "1+2+5",
              "sus4",
              "1+5",
              "1+8",
              "7aug",
              "Maj7aug",
              "7(#9)",
              "7(b13)",
              "7(b9)",
              "7(13)",
              "7#11",
              "7(9)",
              "7b5",
              "7sus4",
              "7th",
              "dim7",
              "dim",
              "minMaj7(9)",
              "minMaj7",
              "min7(11)",
              "min7(9)",
              "m7b5",
              "min7",
              "aug",
              "Maj7#11"
            ],
            "autoStart": false,
            "sourceChordNote": 0,
            "sourceChordType": "Maj",
            "ctb2Low": null,
            "ctb2Main": {
              "ntr": "ROOT_TRANSPOSITION",
              "ntt": "MELODIC_MINOR",
              "bassOn": false,
              "chordRootUpperLimit": 4,
              "noteLowLimit": 54,
              "noteHighLimit": 127,
              "rtr": "PITCH_SHIFT"
            },
            "ctb2High": null
          },
          "notes": [
            {
              "pitch": 57,
              "velocity": 80,
              "position": 0,
              "duration": 7.989583333333333
            },
            {
              "pitch": 62,
              "velocity": 60,
              "position": 0,
              "duration": 7.989583333333333
            },
            {
              "pitch": 67,
              "velocity": 80,
              "position": 0,
              "duration": 7.989583333333333
            }
          ]
        },
        "12": {
          "ctab": {
            "srcChannel": 12,
            "name": "Pno",
            "accType": "CHORD2",
            "editable": false,
            "mutedNotes": [],
            "mutedChords": [
              "1+2+5",
              "sus4",
              "1+5",
              "1+8",
              "7aug",
              "Maj7aug",
              "7(#9)",
              "7(b13)",
              "7(b9)",
              "7(13)",
              "7#11",
              "7(9)",
              "7b5",
              "7sus4",
              "7th",
              "dim7",
              "dim",
              "minMaj7(9)",
              "minMaj7",
              "min7(11)",
              "min7(9)",
              "m7b5",
              "min7",
              "aug",
              "Maj7#11"
            ],
            "autoStart": false,
            "sourceChordNote": 0,
            "sourceChordType": "Maj",
            "ctb2Low": null,
            "ctb2Main": {
              "ntr": "ROOT_TRANSPOSITION",
              "ntt": "MELODIC_MINOR",
              "bassOn": false,
              "chordRootUpperLimit": 8,
              "noteLowLimit": 58,
              "noteHighLimit": 69,
              "rtr": "PITCH_SHIFT"
            },
            "ctb2High": null
          },
          "notes": [
            {
              "pitch": 57,
              "velocity": 81,
              "position": 0,
              "duration": 7.989583333333333
            },
            {
              "pitch": 60,
              "velocity": 81,
              "position": 0,
              "duration": 7.989583333333333
            },
            {
              "pitch": 64,
              "velocity": 81,
              "position": 0,
              "duration": 7.989583333333333
            },
            {
              "pitch": 67,
              "velocity": 81,
              "position": 0,
              "duration": 7.989583333333333
            }
          ]
        },
        "13": {
          "ctab": {
            "srcChannel": 13,
            "name": "Sax",
            "accType": "PAD",
            "editable": false,
            "mutedNotes": [],
            "mutedChords": [
              "1+2+5",
              "sus4",
              "1+5",
              "1+8",
              "7aug",
              "Maj7aug",
              "7(#9)",
              "7(b13)",
              "7(b9)",
              "7(13)",
              "7#11",
              "7(9)",
              "7b5",
              "7sus4",
              "7th",
              "dim7",
              "dim",
              "minMaj7(9)",
              "minMaj7",
              "min7(11)",
              "min7(9)",
              "m7b5",
              "min7",
              "aug",
              "Maj7#11"
            ],
            "autoStart": false,
            "sourceChordNote": 0,
            "sourceChordType": "Maj",
            "ctb2Low": null,
            "ctb2Main": {
              "ntr": "ROOT_TRANSPOSITION",
              "ntt": "MELODIC_MINOR",
              "bassOn": false,
              "chordRootUpperLimit": 8,
              "noteLowLimit": 0,
              "noteHighLimit": 127,
              "rtr": "PITCH_SHIFT"
            },
            "ctb2High": null
          },
          "notes": [
            {
              "pitch": 57,
              "velocity": 70,
              "position": 0.010416666666666666,
              "duration": 7.979166666666667
            },
            {
              "pitch": 60,
              "velocity": 70,
              "position": 0.010416666666666666,
              "duration": 7.979166666666667
            },
            {
              "pitch": 64,
              "velocity": 70,
              "position": 0.010416666666666666,
              "duration": 7.979166666666667
            },
            {
              "pitch": 67,
              "velocity": 70,
              "position": 0.010416666666666666,
              "duration": 7.979166666666667
            }
          ]
        },
        "14": {
          "ctab": {
            "srcChannel": 14,
            "name": "Brs",
            "accType": "PHRASE1",
            "editable": false,
            "mutedNotes": [],
            "mutedChords": [
              "1+2+5",
              "sus4",
              "1+5",
              "1+8",
              "7aug",
              "Maj7aug",
              "7(#9)",
              "7(b13)",
              "7(b9)",
              "7(13)",
              "7#11",
              "7(9)",
              "7b5",
              "7sus4",
              "7th",
              "dim7",
              "dim",
              "minMaj7(9)",
              "minMaj7",
              "min7(11)",
              "min7(9)",
              "m7b5",
              "min7",
              "aug",
              "Maj7#11"
            ],
            "autoStart": false,
            "sourceChordNote": 0,
            "sourceChordType": "Maj",
            "ctb2Low": null,
            "ctb2Main": {
              "ntr": "ROOT_TRANSPOSITION",
              "ntt": "MELODIC_MINOR",
              "bassOn": false,
              "chordRootUpperLimit": 8,
              "noteLowLimit": 62,
              "noteHighLimit": 73,
              "rtr": "PITCH_SHIFT"
            },
            "ctb2High": null
          },
          "notes": [
            {
              "pitch": 64,
              "velocity": 76,
              "position": 0,
              "duration": 7.989583333333333
            },
            {
              "pitch": 67,
              "velocity": 76,
              "position": 0,
              "duration": 7.989583333333333
            },
            {
              "pitch": 69,
              "velocity": 76,
              "position": 0,
              "duration": 7.989583333333333
            },
            {
              "pitch": 72,
              "velocity": 100,
              "position": 0,
              "duration": 7.989583333333333
            }
          ]
        },
        "15": {
          "ctab": {
            "srcChannel": 15,
            "name": "Tbn",
            "accType": "PHRASE2",
            "editable": false,
            "mutedNotes": [],
            "mutedChords": [
              "1+2+5",
              "sus4",
              "1+5",
              "1+8",
              "7aug",
              "Maj7aug",
              "7(#9)",
              "7(b13)",
              "7(b9)",
              "7(13)",
              "7#11",
              "7(9)",
              "7b5",
              "7sus4",
              "7th",
              "dim7",
              "dim",
              "minMaj7(9)",
              "minMaj7",
              "min7(11)",
              "min7(9)",
              "m7b5",
              "min7",
              "aug",
              "Maj7#11"
            ],
            "autoStart": false,
            "sourceChordNote": 0,
            "sourceChordType": "Maj",
            "ctb2Low": null,
            "ctb2Main": {
              "ntr": "ROOT_TRANSPOSITION",
              "ntt": "MELODIC_MINOR",
              "bassOn": false,
              "chordRootUpperLimit": 8,
              "noteLowLimit": 53,
              "noteHighLimit": 66,
              "rtr": "PITCH_SHIFT"
            },
            "ctb2High": null
          },
          "notes": [
            {
              "pitch": 55,
              "velocity": 100,
              "position": 0,
              "duration": 7.989583333333333
            },
            {
              "pitch": 57,
              "velocity": 100,
              "position": 0,
              "duration": 7.989583333333333
            },
            {
              "pitch": 60,
              "velocity": 100,
              "position": 0,
              "duration": 7.989583333333333
            },
            {
              "pitch": 64,
              "velocity": 100,
              "position": 0,
              "duration": 7.989583333333333
            }
          ]
        }
      }
    },
    "Fill_In_BA": {
      "type": "Fill_In_BA",
      "sizeInBeats": 4,
      "channels": {
        "0": {
          "ctab": {
            "srcChannel": 0,
            "name": "CC_Crash",
            "accType": "RHYTHM",
            "editable": false,
            "mutedNotes": [],
            "mutedChords": [
              "1+2+5",
              "sus4",
              "1+5",
              "1+8",
              "7aug",
              "Maj7aug",
              "7(#9)",
              "7(b13)",
              "7(b9)",
              "7(13)",
              "7#11",
              "7(9)",
              "7b5",
              "7sus4",
              "7th",
              "dim7",
              "dim",
              "minMaj7(9)",
              "minMaj7",
              "min7(11)",
              "min7(9)",
              "min(9)",
              "m7b5",
              "min7",
              "min6",
              "min",
              "aug",
              "Maj6(9)",
              "Maj7(9)",
              "Maj(9)",
              "Maj7#11",
              "Maj7",
              "Maj6",
              "Maj"
            ],
            "autoStart": true,
            "sourceChordNote": 0,
            "sourceChordType": "Maj",
            "ctb2Low": null,
            "ctb2Main": {
              "ntr": "ROOT_FIXED",
              "ntt": "BYPASS",
              "bassOn": false,
              "chordRootUpperLimit": 0,
              "noteLowLimit": 0,
              "noteHighLimit": 127,
              "rtr": "RETRIGGER"
            },
            "ctb2High": null
          },
          "notes": []
        },
        "1": {
          "ctab": {
            "srcChannel": 1,
            "name": "Bass",
            "accType": "BASS",
            "editable": false,
            "mutedNotes": [],
            "mutedChords": [
              "1+2+5",
              "sus4",
              "1+5",
              "1+8",
              "dim",
              "min(9)",
              "m7b5",
              "min6",
              "min",
              "aug",
              "Maj6(9)",
              "Maj7(9)",
              "Maj(9)",
              "Maj7",
              "Maj6",
              "Maj"
            ],
            "autoStart": false,
            "sourceChordNote": 0,
            "sourceChordType": "Maj7",
            "ctb2Low": null,
            "ctb2Main": {
              "ntr": "ROOT_TRANSPOSITION",
              "ntt": "MELODY",
              "bassOn": true,
              "chordRootUpperLimit": 8,
              "noteLowLimit": 28,
              "noteHighLimit": 127,
              "rtr": "PITCH_SHIFT_TO_ROOT"
            },
            "ctb2High": null
          },
          "notes": [
            {
              "pitch": 24,
              "velocity": 80,
              "position": 0,
              "duration": 0.65625
            },
            {
              "pitch": 24,
              "velocity": 80,
              "position": 0.6666666666666666,
              "duration": 0.40625
            },
            {
              "pitch": 24,
              "velocity": 110,
              "position": 1.0833333333333333,
              "duration": 0.125
            },
            {
              "pitch": 24,
              "velocity": 110,
              "position": 3.6666666666666665,
              "duration": 0.13541666666666666
            }
          ]
        },
        "2": {
          "ctab": {
            "srcChannel": 2,
            "name": "Gt",
            "accType": "CHORD1",
            "editable": false,
            "mutedNotes": [],
            "mutedChords": [
              "min(9)",
              "min6",
              "min",
              "Maj6(9)",
              "Maj7(9)",
              "Maj(9)",
              "Maj7",
              "Maj6",
              "Maj"
            ],
            "autoStart": false,
            "sourceChordNote": 0,
            "sourceChordType": "Maj7",
            "ctb2Low": null,
            "ctb2Main": {
              "ntr": "ROOT_FIXED",
              "ntt": "CHORD",
              "bassOn": false,
              "chordRootUpperLimit": 8,
              "noteLowLimit": 0,
              "noteHighLimit": 127,
              "rtr": "PITCH_SHIFT"
            },
            "ctb2High": null
          },
          "notes": [
            {
              "pitch": 55,
              "velocity": 80,
              "position": 0,
              "duration": 0.65625
            },
            {
              "pitch": 59,
              "velocity": 80,
              "position": 0,
              "duration": 0.65625
            },
            {
              "pitch": 64,
              "velocity": 80,
              "position": 0,
              "duration": 0.65625
            },
            {
              "pitch": 55,
              "velocity": 96,
              "position": 0.6666666666666666,
              "duration": 0.3229166666666667
            },
            {
              "pitch": 59,
              "velocity": 96,
              "position": 0.6666666666666666,
              "duration": 0.3229166666666667
            },
            {
              "pitch": 64,
              "velocity": 96,
              "position": 0.6666666666666666,
              "duration": 0.3229166666666667
            }
          ]
        },
        "3": {
          "ctab": {
            "srcChannel": 3,
            "name": "Pno",
            "accType": "CHORD2",
            "editable": false,
            "mutedNotes": [],
            "mutedChords": [
              "min(9)",
              "min6",
              "min",
              "Maj6(9)",
              "Maj7(9)",
              "Maj(9)",
              "Maj7",
              "Maj6",
              "Maj"
            ],
            "autoStart": false,
            "sourceChordNote": 0,
            "sourceChordType": "Maj7",
            "ctb2Low": null,
            "ctb2Main": {
              "ntr": "ROOT_FIXED",
              "ntt": "CHORD",
              "bassOn": false,
              "chordRootUpperLimit": 8,
              "noteLowLimit": 0,
              "noteHighLimit": 127,
              "rtr": "PITCH_SHIFT"
            },
            "ctb2High": null
          },
          "notes": [
            {
              "pitch": 59,
              "velocity": 70,
              "position": 0,
              "duration": 0.65625
            },
            {
              "pitch": 64,
              "velocity": 70,
              "position": 0,
              "duration": 0.65625
            },
            {
              "pitch": 67,
              "velocity": 70,
              "position": 0,
              "duration": 0.65625
            },
            {
              "pitch": 59,
              "velocity": 94,
              "position": 0.6666666666666666,
              "duration": 0.28125
            },
            {
              "pitch": 64,
              "velocity": 94,
              "position": 0.6666666666666666,
              "duration": 0.28125
            },
            {
              "pitch": 67,
              "velocity": 94,
              "position": 0.6666666666666666,
              "duration": 0.28125
            }
          ]
        },
        "4": {
          "ctab": {
            "srcChannel": 4,
            "name": "Sax",
            "accType": "PAD",
            "editable": false,
            "mutedNotes": [],
            "mutedChords": [
              "min(9)",
              "min6",
              "min",
              "Maj6(9)",
              "Maj7(9)",
              "Maj(9)",
              "Maj7",
              "Maj6",
              "Maj"
            ],
            "autoStart": false,
            "sourceChordNote": 0,
            "sourceChordType": "Maj7",
            "ctb2Low": null,
            "ctb2Main": {
              "ntr": "ROOT_TRANSPOSITION",
              "ntt": "MELODY",
              "bassOn": false,
              "chordRootUpperLimit": 8,
              "noteLowLimit": 0,
              "noteHighLimit": 127,
              "rtr": "PITCH_SHIFT"
            },
            "ctb2High": null
          },
          "notes": [
            {
              "pitch": 55,
              "velocity": 78,
              "position": 0.010416666666666666,
              "duration": 0.6458333333333334
            },
            {
              "pitch": 59,
              "velocity": 78,
              "position": 0.010416666666666666,
              "duration": 0.6458333333333334
            },
            {
              "pitch": 64,
              "velocity": 78,
              "position": 0.010416666666666666,
              "duration": 0.6458333333333334
            },
            {
              "pitch": 59,
              "velocity": 112,
              "position": 0.6666666666666666,
              "duration": 0.3229166666666667
            },
            {
              "pitch": 55,
              "velocity": 112,
              "position": 0.6666666666666666,
              "duration": 0.375
            },
            {
              "pitch": 64,
              "velocity": 112,
              "position": 0.6666666666666666,
              "duration": 0.375
            }
          ]
        },
        "5": {
          "ctab": {
            "srcChannel": 5,
            "name": "Brs",
            "accType": "PHRASE1",
            "editable": false,
            "mutedNotes": [],
            "mutedChords": [
              "min(9)",
              "min6",
              "min",
              "Maj6(9)",
              "Maj7(9)",
              "Maj(9)",
              "Maj7",
              "Maj6",
              "Maj"
            ],
            "autoStart": false,
            "sourceChordNote": 0,
            "sourceChordType": "Maj7",
            "ctb2Low": null,
            "ctb2Main": {
              "ntr": "ROOT_TRANSPOSITION",
              "ntt": "MELODY",
              "bassOn": false,
              "chordRootUpperLimit": 8,
              "noteLowLimit": 62,
              "noteHighLimit": 73,
              "rtr": "PITCH_SHIFT"
            },
            "ctb2High": null
          },
          "notes": [
            {
              "pitch": 64,
              "velocity": 60,
              "position": 0,
              "duration": 0.65625
            },
            {
              "pitch": 67,
              "velocity": 60,
              "position": 0,
              "duration": 0.65625
            },
            {
              "pitch": 72,
              "velocity": 76,
              "position": 0,
              "duration": 0.65625
            },
            {
              "pitch": 64,
              "velocity": 76,
              "position": 0.6666666666666666,
              "duration": 0.3229166666666667
            },
            {
              "pitch": 67,
              "velocity": 76,
              "position": 0.6666666666666666,
              "duration": 0.3229166666666667
            },
            {
              "pitch": 72,
              "velocity": 100,
              "position": 0.6666666666666666,
              "duration": 0.3229166666666667
            }
          ]
        },
        "6": {
          "ctab": {
            "srcChannel": 6,
            "name": "Tbn",
            "accType": "PHRASE2",
            "editable": false,
            "mutedNotes": [],
            "mutedChords": [
              "min(9)",
              "min6",
              "min",
              "Maj6(9)",
              "Maj7(9)",
              "Maj(9)",
              "Maj7",
              "Maj6",
              "Maj"
            ],
            "autoStart": false,
            "sourceChordNote": 0,
            "sourceChordType": "Maj7",
            "ctb2Low": null,
            "ctb2Main": {
              "ntr": "ROOT_FIXED",
              "ntt": "CHORD",
              "bassOn": false,
              "chordRootUpperLimit": 8,
              "noteLowLimit": 0,
              "noteHighLimit": 127,
              "rtr": "PITCH_SHIFT"
            },
            "ctb2High": null
          },
          "notes": [
            {
              "pitch": 55,
              "velocity": 112,
              "position": 0.010416666666666666,
              "duration": 0.6458333333333334
            },
            {
              "pitch": 59,
              "velocity": 112,
              "position": 0.010416666666666666,
              "duration": 0.6458333333333334
            },
            {
              "pitch": 64,
              "velocity": 112,
              "position": 0.010416666666666666,
              "duration": 0.6458333333333334
            },
            {
              "pitch": 55,
              "velocity": 112,
              "position": 0.6666666666666666,
              "duration": 0.375
            },
            {
              "pitch": 59,
              "velocity": 112,
              "position": 0.6666666666666666,
              "duration": 0.375
            },
            {
              "pitch": 64,
              "velocity": 112,
              "position": 0.6666666666666666,
              "duration": 0.375
            }
          ]
        },
        "7": {
          "ctab": {
            "srcChannel": 7,
            "name": "Bass",
            "accType": "BASS",
            "editable": false,
            "mutedNotes": [],
            "mutedChords": [
              "7aug",
              "Maj7aug",
              "7(#9)",
              "7(b13)",
              "7(b9)",
              "7(13)",
              "7#11",
              "7(9)",
              "7b5",
              "7sus4",
              "7th",
              "dim7",
              "minMaj7(9)",
              "minMaj7",
              "min7(11)",
              "min7(9)",
              "min(9)",
              "min7",
              "min6",
              "min",
              "Maj6(9)",
              "Maj7(9)",
              "Maj(9)",
              "Maj7#11",
              "Maj7",
              "Maj6",
              "Maj"
            ],
            "autoStart": false,
            "sourceChordNote": 0,
            "sourceChordType": "Maj7",
            "ctb2Low": null,
            "ctb2Main": {
              "ntr": "ROOT_TRANSPOSITION",
              "ntt": "MELODY",
              "bassOn": true,
              "chordRootUpperLimit": 8,
              "noteLowLimit": 28,
              "noteHighLimit": 127,
              "rtr": "PITCH_SHIFT_TO_ROOT"
            },
            "ctb2High": null
          },
          "notes": [
            {
              "pitch": 24,
              "velocity": 80,
              "position": 0,
              "duration": 0.65625
            },
            {
              "pitch": 24,
              "velocity": 80,
              "position": 0.6666666666666666,
              "duration": 0.40625
            },
            {
              "pitch": 24,
              "velocity": 110,
              "position": 1.0833333333333333,
              "duration": 0.125
            },
            {
              "pitch": 24,
              "velocity": 110,
              "position": 3.6666666666666665,
              "duration": 0.13541666666666666
            }
          ]
        },
        "8": {
          "ctab": {
            "srcChannel": 8,
            "name": "Prc",
            "accType": "SUBRHYTHM",
            "editable": false,
            "mutedNotes": [],
            "mutedChords": [],
            "autoStart": true,
            "sourceChordNote": 0,
            "sourceChordType": "Maj7",
            "ctb2Low": null,
            "ctb2Main": {
              "ntr": "ROOT_FIXED",
              "ntt": "BYPASS",
              "bassOn": false,
              "chordRootUpperLimit": 6,
              "noteLowLimit": 0,
              "noteHighLimit": 127,
              "rtr": "PITCH_SHIFT"
            },
            "ctb2High": null
          },
          "notes": []
        },
        "9": {
          "ctab": {
            "srcChannel": 9,
            "name": "Drs",
            "accType": "RHYTHM",
            "editable": false,
            "mutedNotes": [],
            "mutedChords": [],
            "autoStart": true,
            "sourceChordNote": 0,
            "sourceChordType": "Maj7",
            "ctb2Low": null,
            "ctb2Main": {
              "ntr": "ROOT_FIXED",
              "ntt": "BYPASS",
              "bassOn": false,
              "chordRootUpperLimit": 6,
              "noteLowLimit": 0,
              "noteHighLimit": 127,
              "rtr": "PITCH_SHIFT"
            },
            "ctb2High": null
          },
          "notes": [
            {
              "pitch": 35,
              "velocity": 74,
              "position": 0,
              "duration": 0.010416666666666666
            },
            {
              "pitch": 59,
              "velocity": 55,
              "position": 0,
              "duration": 0.010416666666666666
            },
            {
              "pitch": 40,
              "velocity": 81,
              "position": 0.6666666666666666,
              "duration": 0.010416666666666666
            },
            {
              "pitch": 44,
              "velocity": 60,
              "position": 1,
              "duration": 0.010416666666666666
            },
            {
              "pitch": 47,
              "velocity": 100,
              "position": 1.6666666666666667,
              "duration": 0.010416666666666666
            },
            {
              "pitch": 31,
              "velocity": 30,
              "position": 2,
              "duration": 0.010416666666666666
            },
            {
              "pitch": 40,
              "velocity": 30,
              "position": 2.3333333333333335,
              "duration": 0.010416666666666666
            },
            {
              "pitch": 40,
              "velocity": 81,
              "position": 2.6666666666666665,
              "duration": 0.010416666666666666
            },
            {
              "pitch": 44,
              "velocity": 60,
              "position": 3,
              "duration": 0.010416666666666666
            },
            {
              "pitch": 40,
              "velocity": 30,
              "position": 3.3333333333333335,
              "duration": 0.010416666666666666
            },
            {
              "pitch": 35,
              "velocity": 54,
              "position": 3.6666666666666665,
              "duration": 0.010416666666666666
            },
            {
              "pitch": 49,
              "velocity": 50,
              "position": 3.9895833333333335,
              "duration": 0.010416666666666666
            }
          ]
        },
        "10": {
          "ctab": {
            "srcChannel": 10,
            "name": "Bass",
            "accType": "BASS",
            "editable": false,
            "mutedNotes": [],
            "mutedChords": [
              "1+2+5",
              "sus4",
              "1+5",
              "1+8",
              "7aug",
              "Maj7aug",
              "7(#9)",
              "7(b13)",
              "7(b9)",
              "7(13)",
              "7#11",
              "7(9)",
              "7b5",
              "7sus4",
              "7th",
              "dim7",
              "dim",
              "minMaj7(9)",
              "minMaj7",
              "min7(11)",
              "min7(9)",
              "m7b5",
              "min7",
              "aug",
              "Maj7#11"
            ],
            "autoStart": false,
            "sourceChordNote": 0,
            "sourceChordType": "Maj",
            "ctb2Low": null,
            "ctb2Main": {
              "ntr": "ROOT_TRANSPOSITION",
              "ntt": "MELODIC_MINOR",
              "bassOn": true,
              "chordRootUpperLimit": 8,
              "noteLowLimit": 28,
              "noteHighLimit": 127,
              "rtr": "PITCH_SHIFT_TO_ROOT"
            },
            "ctb2High": null
          },
          "notes": [
            {
              "pitch": 24,
              "velocity": 80,
              "position": 0,
              "duration": 0.65625
            },
            {
              "pitch": 24,
              "velocity": 80,
              "position": 0.6666666666666666,
              "duration": 0.40625
            },
            {
              "pitch": 24,
              "velocity": 110,
              "position": 1.0833333333333333,
              "duration": 0.125
            },
            {
              "pitch": 24,
              "velocity": 110,
              "position": 3.6666666666666665,
              "duration": 0.13541666666666666
            }
          ]
        },
        "11": {
          "ctab": {
            "srcChannel": 11,
            "name": "Gt",
            "accType": "CHORD1",
            "editable": false,
            "mutedNotes": [],
            "mutedChords": [
              "1+2+5",
              "sus4",
              "1+5",
              "1+8",
              "7aug",
              "Maj7aug",
              "7(#9)",
              "7(b13)",
              "7(b9)",
              "7(13)",
              "7#11",
              "7(9)",
              "7b5",
              "7sus4",
              "7th",
              "dim7",
              "dim",
              "minMaj7(9)",
              "minMaj7",
              "min7(11)",
              "min7(9)",
              "m7b5",
              "min7",
              "aug",
              "Maj7#11"
            ],
            "autoStart": false,
            "sourceChordNote": 0,
            "sourceChordType": "Maj",
            "ctb2Low": null,
            "ctb2Main": {
              "ntr": "ROOT_TRANSPOSITION",
              "ntt": "MELODIC_MINOR",
              "bassOn": false,
              "chordRootUpperLimit": 4,
              "noteLowLimit": 54,
              "noteHighLimit": 127,
              "rtr": "PITCH_SHIFT"
            },
            "ctb2High": null
          },
          "notes": [
            {
              "pitch": 57,
              "velocity": 80,
              "position": 0,
              "duration": 0.65625
            },
            {
              "pitch": 62,
              "velocity": 60,
              "position": 0,
              "duration": 0.65625
            },
            {
              "pitch": 67,
              "velocity": 80,
              "position": 0,
              "duration": 0.65625
            },
            {
              "pitch": 57,
              "velocity": 96,
              "position": 0.6666666666666666,
              "duration": 0.3229166666666667
            },
            {
              "pitch": 62,
              "velocity": 69,
              "position": 0.6666666666666666,
              "duration": 0.3229166666666667
            },
            {
              "pitch": 67,
              "velocity": 96,
              "position": 0.6666666666666666,
              "duration": 0.3229166666666667
            }
          ]
        },
        "12": {
          "ctab": {
            "srcChannel": 12,
            "name": "Pno",
            "accType": "CHORD2",
            "editable": false,
            "mutedNotes": [],
            "mutedChords": [
              "1+2+5",
              "sus4",
              "1+5",
              "1+8",
              "7aug",
              "Maj7aug",
              "7(#9)",
              "7(b13)",
              "7(b9)",
              "7(13)",
              "7#11",
              "7(9)",
              "7b5",
              "7sus4",
              "7th",
              "dim7",
              "dim",
              "minMaj7(9)",
              "minMaj7",
              "min7(11)",
              "min7(9)",
              "m7b5",
              "min7",
              "aug",
              "Maj7#11"
            ],
            "autoStart": false,
            "sourceChordNote": 0,
            "sourceChordType": "Maj",
            "ctb2Low": null,
            "ctb2Main": {
              "ntr": "ROOT_TRANSPOSITION",
              "ntt": "MELODIC_MINOR",
              "bassOn": false,
              "chordRootUpperLimit": 8,
              "noteLowLimit": 58,
              "noteHighLimit": 69,
              "rtr": "PITCH_SHIFT"
            },
            "ctb2High": null
          },
          "notes": [
            {
              "pitch": 57,
              "velocity": 70,
              "position": 0,
              "duration": 0.65625
            },
            {
              "pitch": 60,
              "velocity": 70,
              "position": 0,
              "duration": 0.65625
            },
            {
              "pitch": 64,
              "velocity": 70,
              "position": 0,
              "duration": 0.65625
            },
            {
              "pitch": 67,
              "velocity": 70,
              "position": 0,
              "duration": 0.65625
            },
            {
              "pitch": 57,
              "velocity": 94,
              "position": 0.6666666666666666,
              "duration": 0.28125
            },
            {
              "pitch": 60,
              "velocity": 94,
              "position": 0.6666666666666666,
              "duration": 0.28125
            },
            {
              "pitch": 64,
              "velocity": 94,
              "position": 0.6666666666666666,
              "duration": 0.28125
            },
            {
              "pitch": 67,
              "velocity": 94,
              "position": 0.6666666666666666,
              "duration": 0.28125
            }
          ]
        },
        "13": {
          "ctab": {
            "srcChannel": 13,
            "name": "Sax",
            "accType": "PAD",
            "editable": false,
            "mutedNotes": [],
            "mutedChords": [
              "1+2+5",
              "sus4",
              "1+5",
              "1+8",
              "7aug",
              "Maj7aug",
              "7(#9)",
              "7(b13)",
              "7(b9)",
              "7(13)",
              "7#11",
              "7(9)",
              "7b5",
              "7sus4",
              "7th",
              "dim7",
              "dim",
              "minMaj7(9)",
              "minMaj7",
              "min7(11)",
              "min7(9)",
              "m7b5",
              "min7",
              "aug",
              "Maj7#11"
            ],
            "autoStart": false,
            "sourceChordNote": 0,
            "sourceChordType": "Maj",
            "ctb2Low": null,
            "ctb2Main": {
              "ntr": "ROOT_TRANSPOSITION",
              "ntt": "MELODIC_MINOR",
              "bassOn": false,
              "chordRootUpperLimit": 8,
              "noteLowLimit": 0,
              "noteHighLimit": 127,
              "rtr": "PITCH_SHIFT"
            },
            "ctb2High": null
          },
          "notes": [
            {
              "pitch": 55,
              "velocity": 74,
              "position": 0.010416666666666666,
              "duration": 0.6458333333333334
            },
            {
              "pitch": 57,
              "velocity": 74,
              "position": 0.010416666666666666,
              "duration": 0.6458333333333334
            },
            {
              "pitch": 60,
              "velocity": 74,
              "position": 0.010416666666666666,
              "duration": 0.6458333333333334
            },
            {
              "pitch": 64,
              "velocity": 74,
              "position": 0.010416666666666666,
              "duration": 0.6458333333333334
            },
            {
              "pitch": 57,
              "velocity": 112,
              "position": 0.6666666666666666,
              "duration": 0.3229166666666667
            },
            {
              "pitch": 60,
              "velocity": 112,
              "position": 0.6666666666666666,
              "duration": 0.3229166666666667
            },
            {
              "pitch": 55,
              "velocity": 112,
              "position": 0.6666666666666666,
              "duration": 0.375
            },
            {
              "pitch": 64,
              "velocity": 112,
              "position": 0.6666666666666666,
              "duration": 0.375
            }
          ]
        },
        "14": {
          "ctab": {
            "srcChannel": 14,
            "name": "Brs",
            "accType": "PHRASE1",
            "editable": false,
            "mutedNotes": [],
            "mutedChords": [
              "1+2+5",
              "sus4",
              "1+5",
              "1+8",
              "7aug",
              "Maj7aug",
              "7(#9)",
              "7(b13)",
              "7(b9)",
              "7(13)",
              "7#11",
              "7(9)",
              "7b5",
              "7sus4",
              "7th",
              "dim7",
              "dim",
              "minMaj7(9)",
              "minMaj7",
              "min7(11)",
              "min7(9)",
              "m7b5",
              "min7",
              "aug",
              "Maj7#11"
            ],
            "autoStart": false,
            "sourceChordNote": 0,
            "sourceChordType": "Maj",
            "ctb2Low": null,
            "ctb2Main": {
              "ntr": "ROOT_TRANSPOSITION",
              "ntt": "MELODIC_MINOR",
              "bassOn": false,
              "chordRootUpperLimit": 8,
              "noteLowLimit": 62,
              "noteHighLimit": 73,
              "rtr": "PITCH_SHIFT"
            },
            "ctb2High": null
          },
          "notes": [
            {
              "pitch": 64,
              "velocity": 60,
              "position": 0,
              "duration": 0.65625
            },
            {
              "pitch": 67,
              "velocity": 60,
              "position": 0,
              "duration": 0.65625
            },
            {
              "pitch": 69,
              "velocity": 60,
              "position": 0,
              "duration": 0.65625
            },
            {
              "pitch": 72,
              "velocity": 76,
              "position": 0,
              "duration": 0.65625
            },
            {
              "pitch": 64,
              "velocity": 76,
              "position": 0.6666666666666666,
              "duration": 0.34375
            },
            {
              "pitch": 67,
              "velocity": 76,
              "position": 0.6666666666666666,
              "duration": 0.34375
            },
            {
              "pitch": 69,
              "velocity": 76,
              "position": 0.6666666666666666,
              "duration": 0.34375
            },
            {
              "pitch": 72,
              "velocity": 100,
              "position": 0.6666666666666666,
              "duration": 0.34375
            }
          ]
        },
        "15": {
          "ctab": {
            "srcChannel": 15,
            "name": "Tbn",
            "accType": "PHRASE2",
            "editable": false,
            "mutedNotes": [],
            "mutedChords": [
              "1+2+5",
              "sus4",
              "1+5",
              "1+8",
              "7aug",
              "Maj7aug",
              "7(#9)",
              "7(b13)",
              "7(b9)",
              "7(13)",
              "7#11",
              "7(9)",
              "7b5",
              "7sus4",
              "7th",
              "dim7",
              "dim",
              "minMaj7(9)",
              "minMaj7",
              "min7(11)",
              "min7(9)",
              "m7b5",
              "min7",
              "aug",
              "Maj7#11"
            ],
            "autoStart": false,
            "sourceChordNote": 0,
            "sourceChordType": "Maj",
            "ctb2Low": null,
            "ctb2Main": {
              "ntr": "ROOT_TRANSPOSITION",
              "ntt": "MELODIC_MINOR",
              "bassOn": false,
              "chordRootUpperLimit": 8,
              "noteLowLimit": 53,
              "noteHighLimit": 66,
              "rtr": "PITCH_SHIFT"
            },
            "ctb2High": null
          },
          "notes": [
            {
              "pitch": 55,
              "velocity": 100,
              "position": 0.010416666666666666,
              "duration": 0.6458333333333334
            },
            {
              "pitch": 57,
              "velocity": 100,
              "position": 0.010416666666666666,
              "duration": 0.6458333333333334
            },
            {
              "pitch": 60,
              "velocity": 100,
              "position": 0.010416666666666666,
              "duration": 0.6458333333333334
            },
            {
              "pitch": 64,
              "velocity": 100,
              "position": 0.010416666666666666,
              "duration": 0.6458333333333334
            },
            {
              "pitch": 55,
              "velocity": 100,
              "position": 0.6666666666666666,
              "duration": 0.375
            },
            {
              "pitch": 57,
              "velocity": 100,
              "position": 0.6666666666666666,
              "duration": 0.375
            },
            {
              "pitch": 60,
              "velocity": 100,
              "position": 0.6666666666666666,
              "duration": 0.375
            },
            {
              "pitch": 64,
              "velocity": 100,
              "position": 0.6666666666666666,
              "duration": 0.375
            }
          ]
        }
      }
    },
    "Fill_In_AA": {
      "type": "Fill_In_AA",
      "sizeInBeats": 4,
      "channels": {
        "0": {
          "ctab": {
            "srcChannel": 0,
            "name": "CC_Crash",
            "accType": "RHYTHM",
            "editable": false,
            "mutedNotes": [],
            "mutedChords": [
              "1+2+5",
              "sus4",
              "1+5",
              "1+8",
              "7aug",
              "Maj7aug",
              "7(#9)",
              "7(b13)",
              "7(b9)",
              "7(13)",
              "7#11",
              "7(9)",
              "7b5",
              "7sus4",
              "7th",
              "dim7",
              "dim",
              "minMaj7(9)",
              "minMaj7",
              "min7(11)",
              "min7(9)",
              "min(9)",
              "m7b5",
              "min7",
              "min6",
              "min",
              "aug",
              "Maj6(9)",
              "Maj7(9)",
              "Maj(9)",
              "Maj7#11",
              "Maj7",
              "Maj6",
              "Maj"
            ],
            "autoStart": true,
            "sourceChordNote": 0,
            "sourceChordType": "Maj",
            "ctb2Low": null,
            "ctb2Main": {
              "ntr": "ROOT_FIXED",
              "ntt": "BYPASS",
              "bassOn": false,
              "chordRootUpperLimit": 0,
              "noteLowLimit": 0,
              "noteHighLimit": 127,
              "rtr": "RETRIGGER"
            },
            "ctb2High": null
          },
          "notes": []
        },
        "2": {
          "ctab": {
            "srcChannel": 2,
            "name": "Gt",
            "accType": "CHORD1",
            "editable": false,
            "mutedNotes": [],
            "mutedChords": [
              "min(9)",
              "min6",
              "min",
              "Maj6(9)",
              "Maj7(9)",
              "Maj(9)",
              "Maj7",
              "Maj6",
              "Maj"
            ],
            "autoStart": false,
            "sourceChordNote": 0,
            "sourceChordType": "Maj7",
            "ctb2Low": null,
            "ctb2Main": {
              "ntr": "ROOT_FIXED",
              "ntt": "CHORD",
              "bassOn": false,
              "chordRootUpperLimit": 8,
              "noteLowLimit": 0,
              "noteHighLimit": 127,
              "rtr": "PITCH_SHIFT"
            },
            "ctb2High": null
          },
          "notes": [
            {
              "pitch": 55,
              "velocity": 73,
              "position": 1,
              "duration": 0.65625
            },
            {
              "pitch": 59,
              "velocity": 73,
              "position": 1,
              "duration": 0.65625
            },
            {
              "pitch": 64,
              "velocity": 73,
              "position": 1,
              "duration": 0.65625
            },
            {
              "pitch": 55,
              "velocity": 88,
              "position": 1.6666666666666667,
              "duration": 0.9895833333333334
            },
            {
              "pitch": 59,
              "velocity": 88,
              "position": 1.6666666666666667,
              "duration": 0.9895833333333334
            },
            {
              "pitch": 64,
              "velocity": 88,
              "position": 1.6666666666666667,
              "duration": 0.9895833333333334
            },
            {
              "pitch": 55,
              "velocity": 67,
              "position": 2.6666666666666665,
              "duration": 0.3229166666666667
            },
            {
              "pitch": 59,
              "velocity": 67,
              "position": 2.6666666666666665,
              "duration": 0.3229166666666667
            },
            {
              "pitch": 64,
              "velocity": 67,
              "position": 2.6666666666666665,
              "duration": 0.3229166666666667
            },
            {
              "pitch": 55,
              "velocity": 88,
              "position": 3,
              "duration": 0.40625
            },
            {
              "pitch": 59,
              "velocity": 88,
              "position": 3,
              "duration": 0.40625
            },
            {
              "pitch": 64,
              "velocity": 88,
              "position": 3,
              "duration": 0.40625
            }
          ]
        },
        "3": {
          "ctab": {
            "srcChannel": 3,
            "name": "Pno",
            "accType": "CHORD2",
            "editable": false,
            "mutedNotes": [],
            "mutedChords": [
              "min(9)",
              "min6",
              "min",
              "Maj6(9)",
              "Maj7(9)",
              "Maj(9)",
              "Maj7",
              "Maj6",
              "Maj"
            ],
            "autoStart": false,
            "sourceChordNote": 0,
            "sourceChordType": "Maj7",
            "ctb2Low": null,
            "ctb2Main": {
              "ntr": "ROOT_FIXED",
              "ntt": "CHORD",
              "bassOn": false,
              "chordRootUpperLimit": 6,
              "noteLowLimit": 0,
              "noteHighLimit": 79,
              "rtr": "PITCH_SHIFT"
            },
            "ctb2High": null
          },
          "notes": [
            {
              "pitch": 76,
              "velocity": 102,
              "position": 0.6666666666666666,
              "duration": 0.5208333333333334
            },
            {
              "pitch": 83,
              "velocity": 102,
              "position": 0.6666666666666666,
              "duration": 0.6041666666666666
            },
            {
              "pitch": 76,
              "velocity": 102,
              "position": 2,
              "duration": 0.3229166666666667
            },
            {
              "pitch": 83,
              "velocity": 102,
              "position": 2,
              "duration": 0.3229166666666667
            },
            {
              "pitch": 64,
              "velocity": 94,
              "position": 2.6666666666666665,
              "duration": 0.9895833333333334
            },
            {
              "pitch": 67,
              "velocity": 94,
              "position": 2.6666666666666665,
              "duration": 0.9895833333333334
            },
            {
              "pitch": 71,
              "velocity": 94,
              "position": 2.6666666666666665,
              "duration": 0.9895833333333334
            },
            {
              "pitch": 67,
              "velocity": 84,
              "position": 3.6666666666666665,
              "duration": 0.2708333333333333
            }
          ]
        },
        "4": {
          "ctab": {
            "srcChannel": 4,
            "name": "Sax",
            "accType": "PAD",
            "editable": false,
            "mutedNotes": [],
            "mutedChords": [
              "min(9)",
              "min6",
              "min",
              "Maj6(9)",
              "Maj7(9)",
              "Maj(9)",
              "Maj7",
              "Maj6",
              "Maj"
            ],
            "autoStart": false,
            "sourceChordNote": 0,
            "sourceChordType": "Maj7",
            "ctb2Low": null,
            "ctb2Main": {
              "ntr": "ROOT_FIXED",
              "ntt": "CHORD",
              "bassOn": false,
              "chordRootUpperLimit": 8,
              "noteLowLimit": 0,
              "noteHighLimit": 127,
              "rtr": "PITCH_SHIFT"
            },
            "ctb2High": null
          },
          "notes": []
        },
        "6": {
          "ctab": {
            "srcChannel": 6,
            "name": "Tbn",
            "accType": "PHRASE2",
            "editable": false,
            "mutedNotes": [],
            "mutedChords": [
              "min(9)",
              "min6",
              "min",
              "Maj6(9)",
              "Maj7(9)",
              "Maj(9)",
              "Maj7",
              "Maj6",
              "Maj"
            ],
            "autoStart": false,
            "sourceChordNote": 0,
            "sourceChordType": "Maj7",
            "ctb2Low": null,
            "ctb2Main": {
              "ntr": "ROOT_FIXED",
              "ntt": "CHORD",
              "bassOn": false,
              "chordRootUpperLimit": 8,
              "noteLowLimit": 0,
              "noteHighLimit": 127,
              "rtr": "PITCH_SHIFT"
            },
            "ctb2High": null
          },
          "notes": [
            {
              "pitch": 55,
              "velocity": 112,
              "position": 0,
              "duration": 0.28125
            },
            {
              "pitch": 59,
              "velocity": 112,
              "position": 0,
              "duration": 0.28125
            },
            {
              "pitch": 64,
              "velocity": 112,
              "position": 0,
              "duration": 0.28125
            },
            {
              "pitch": 55,
              "velocity": 112,
              "position": 1.6666666666666667,
              "duration": 0.3229166666666667
            },
            {
              "pitch": 59,
              "velocity": 112,
              "position": 1.6666666666666667,
              "duration": 0.3229166666666667
            },
            {
              "pitch": 64,
              "velocity": 112,
              "position": 1.6666666666666667,
              "duration": 0.3229166666666667
            },
            {
              "pitch": 55,
              "velocity": 30,
              "position": 2,
              "duration": 0.65625
            },
            {
              "pitch": 59,
              "velocity": 30,
              "position": 2,
              "duration": 0.65625
            },
            {
              "pitch": 64,
              "velocity": 30,
              "position": 2,
              "duration": 0.65625
            },
            {
              "pitch": 55,
              "velocity": 67,
              "position": 2.6666666666666665,
              "duration": 0.3229166666666667
            },
            {
              "pitch": 59,
              "velocity": 67,
              "position": 2.6666666666666665,
              "duration": 0.3229166666666667
            },
            {
              "pitch": 64,
              "velocity": 67,
              "position": 2.6666666666666665,
              "duration": 0.3229166666666667
            },
            {
              "pitch": 55,
              "velocity": 112,
              "position": 3,
              "duration": 0.28125
            },
            {
              "pitch": 59,
              "velocity": 112,
              "position": 3,
              "duration": 0.28125
            },
            {
              "pitch": 64,
              "velocity": 112,
              "position": 3,
              "duration": 0.28125
            }
          ]
        },
        "9": {
          "ctab": {
            "srcChannel": 9,
            "name": "Drs",
            "accType": "RHYTHM",
            "editable": false,
            "mutedNotes": [],
            "mutedChords": [],
            "autoStart": true,
            "sourceChordNote": 0,
            "sourceChordType": "Maj7",
            "ctb2Low": null,
            "ctb2Main": {
              "ntr": "ROOT_FIXED",
              "ntt": "BYPASS",
              "bassOn": false,
              "chordRootUpperLimit": 6,
              "noteLowLimit": 0,
              "noteHighLimit": 127,
              "rtr": "PITCH_SHIFT"
            },
            "ctb2High": null
          },
          "notes": [
            {
              "pitch": 25,
              "velocity": 50,
              "position": 0,
              "duration": 0.010416666666666666
            },
            {
              "pitch": 35,
              "velocity": 74,
              "position": 0,
              "duration": 0.010416666666666666
            },
            {
              "pitch": 26,
              "velocity": 48,
              "position": 0,
              "duration": 0.9895833333333334
            },
            {
              "pitch": 25,
              "velocity": 120,
              "position": 1,
              "duration": 0.010416666666666666
            },
            {
              "pitch": 44,
              "velocity": 60,
              "position": 1,
              "duration": 0.010416666666666666
            },
            {
              "pitch": 25,
              "velocity": 120,
              "position": 1.6666666666666667,
              "duration": 0.010416666666666666
            },
            {
              "pitch": 40,
              "velocity": 46,
              "position": 1.6666666666666667,
              "duration": 0.010416666666666666
            },
            {
              "pitch": 26,
              "velocity": 48,
              "position": 1,
              "duration": 0.9895833333333334
            },
            {
              "pitch": 25,
              "velocity": 50,
              "position": 2,
              "duration": 0.010416666666666666
            },
            {
              "pitch": 35,
              "velocity": 74,
              "position": 2,
              "duration": 0.010416666666666666
            },
            {
              "pitch": 27,
              "velocity": 30,
              "position": 2.3333333333333335,
              "duration": 0.010416666666666666
            },
            {
              "pitch": 25,
              "velocity": 50,
              "position": 2.6666666666666665,
              "duration": 0.010416666666666666
            },
            {
              "pitch": 27,
              "velocity": 50,
              "position": 2.6666666666666665,
              "duration": 0.010416666666666666
            },
            {
              "pitch": 26,
              "velocity": 48,
              "position": 2,
              "duration": 0.9895833333333334
            },
            {
              "pitch": 25,
              "velocity": 120,
              "position": 3,
              "duration": 0.010416666666666666
            },
            {
              "pitch": 40,
              "velocity": 46,
              "position": 3,
              "duration": 0.010416666666666666
            },
            {
              "pitch": 44,
              "velocity": 60,
              "position": 3,
              "duration": 0.010416666666666666
            },
            {
              "pitch": 25,
              "velocity": 30,
              "position": 3.6666666666666665,
              "duration": 0.010416666666666666
            },
            {
              "pitch": 26,
              "velocity": 48,
              "position": 3,
              "duration": 0.9895833333333334
            }
          ]
        },
        "10": {
          "ctab": {
            "srcChannel": 10,
            "name": "Bass",
            "accType": "BASS",
            "editable": false,
            "mutedNotes": [],
            "mutedChords": [],
            "autoStart": false,
            "sourceChordNote": 0,
            "sourceChordType": "Maj",
            "ctb2Low": null,
            "ctb2Main": {
              "ntr": "ROOT_TRANSPOSITION",
              "ntt": "MELODY",
              "bassOn": true,
              "chordRootUpperLimit": 8,
              "noteLowLimit": 28,
              "noteHighLimit": 127,
              "rtr": "PITCH_SHIFT_TO_ROOT"
            },
            "ctb2High": null
          },
          "notes": [
            {
              "pitch": 24,
              "velocity": 80,
              "position": 0,
              "duration": 1
            },
            {
              "pitch": 24,
              "velocity": 106,
              "position": 1.6666666666666667,
              "duration": 0.13541666666666666
            },
            {
              "pitch": 31,
              "velocity": 80,
              "position": 2,
              "duration": 1
            },
            {
              "pitch": 31,
              "velocity": 106,
              "position": 3.6666666666666665,
              "duration": 0.13541666666666666
            }
          ]
        },
        "11": {
          "ctab": {
            "srcChannel": 11,
            "name": "Gt",
            "accType": "CHORD1",
            "editable": false,
            "mutedNotes": [],
            "mutedChords": [
              "1+2+5",
              "sus4",
              "1+5",
              "1+8",
              "7aug",
              "Maj7aug",
              "7(#9)",
              "7(b13)",
              "7(b9)",
              "7(13)",
              "7#11",
              "7(9)",
              "7b5",
              "7sus4",
              "7th",
              "dim7",
              "dim",
              "minMaj7(9)",
              "minMaj7",
              "min7(11)",
              "min7(9)",
              "m7b5",
              "min7",
              "aug",
              "Maj7#11"
            ],
            "autoStart": false,
            "sourceChordNote": 0,
            "sourceChordType": "Maj",
            "ctb2Low": null,
            "ctb2Main": {
              "ntr": "ROOT_TRANSPOSITION",
              "ntt": "MELODIC_MINOR",
              "bassOn": false,
              "chordRootUpperLimit": 4,
              "noteLowLimit": 54,
              "noteHighLimit": 127,
              "rtr": "PITCH_SHIFT"
            },
            "ctb2High": null
          },
          "notes": [
            {
              "pitch": 57,
              "velocity": 65,
              "position": 1,
              "duration": 0.65625
            },
            {
              "pitch": 62,
              "velocity": 50,
              "position": 1,
              "duration": 0.65625
            },
            {
              "pitch": 67,
              "velocity": 65,
              "position": 1,
              "duration": 0.65625
            },
            {
              "pitch": 57,
              "velocity": 80,
              "position": 1.6666666666666667,
              "duration": 0.9895833333333334
            },
            {
              "pitch": 62,
              "velocity": 60,
              "position": 1.6666666666666667,
              "duration": 0.9895833333333334
            },
            {
              "pitch": 67,
              "velocity": 80,
              "position": 1.6666666666666667,
              "duration": 0.9895833333333334
            },
            {
              "pitch": 57,
              "velocity": 59,
              "position": 2.6666666666666665,
              "duration": 0.3229166666666667
            },
            {
              "pitch": 62,
              "velocity": 45,
              "position": 2.6666666666666665,
              "duration": 0.3229166666666667
            },
            {
              "pitch": 67,
              "velocity": 59,
              "position": 2.6666666666666665,
              "duration": 0.3229166666666667
            },
            {
              "pitch": 57,
              "velocity": 80,
              "position": 3,
              "duration": 0.40625
            },
            {
              "pitch": 62,
              "velocity": 60,
              "position": 3,
              "duration": 0.40625
            },
            {
              "pitch": 67,
              "velocity": 80,
              "position": 3,
              "duration": 0.40625
            }
          ]
        },
        "12": {
          "ctab": {
            "srcChannel": 12,
            "name": "Pno",
            "accType": "CHORD2",
            "editable": false,
            "mutedNotes": [],
            "mutedChords": [
              "1+2+5",
              "sus4",
              "1+5",
              "1+8",
              "7aug",
              "Maj7aug",
              "7(#9)",
              "7(b13)",
              "7(b9)",
              "7(13)",
              "7#11",
              "7(9)",
              "7b5",
              "7sus4",
              "7th",
              "dim7",
              "dim",
              "minMaj7(9)",
              "minMaj7",
              "min7(11)",
              "min7(9)",
              "m7b5",
              "min7",
              "aug",
              "Maj7#11"
            ],
            "autoStart": false,
            "sourceChordNote": 0,
            "sourceChordType": "Maj",
            "ctb2Low": null,
            "ctb2Main": {
              "ntr": "ROOT_TRANSPOSITION",
              "ntt": "MELODIC_MINOR",
              "bassOn": false,
              "chordRootUpperLimit": 6,
              "noteLowLimit": 0,
              "noteHighLimit": 79,
              "rtr": "PITCH_SHIFT"
            },
            "ctb2High": null
          },
          "notes": [
            {
              "pitch": 73,
              "velocity": 102,
              "position": 0.6666666666666666,
              "duration": 0.2708333333333333
            },
            {
              "pitch": 76,
              "velocity": 79,
              "position": 1,
              "duration": 0.2708333333333333
            },
            {
              "pitch": 85,
              "velocity": 102,
              "position": 0.6666666666666666,
              "duration": 0.6041666666666666
            },
            {
              "pitch": 76,
              "velocity": 102,
              "position": 2,
              "duration": 0.3229166666666667
            },
            {
              "pitch": 84,
              "velocity": 102,
              "position": 2,
              "duration": 0.3229166666666667
            },
            {
              "pitch": 72,
              "velocity": 102,
              "position": 2.6666666666666665,
              "duration": 0.2708333333333333
            },
            {
              "pitch": 69,
              "velocity": 97,
              "position": 3,
              "duration": 0.65625
            },
            {
              "pitch": 67,
              "velocity": 90,
              "position": 3.6666666666666665,
              "duration": 0.2708333333333333
            }
          ]
        },
        "13": {
          "ctab": {
            "srcChannel": 13,
            "name": "Sax",
            "accType": "PAD",
            "editable": false,
            "mutedNotes": [],
            "mutedChords": [
              "1+2+5",
              "sus4",
              "1+5",
              "1+8",
              "7aug",
              "Maj7aug",
              "7(#9)",
              "7(b13)",
              "7(b9)",
              "7(13)",
              "7#11",
              "7(9)",
              "7b5",
              "7sus4",
              "7th",
              "dim7",
              "dim",
              "minMaj7(9)",
              "minMaj7",
              "min7(11)",
              "min7(9)",
              "m7b5",
              "min7",
              "aug",
              "Maj7#11"
            ],
            "autoStart": false,
            "sourceChordNote": 0,
            "sourceChordType": "Maj",
            "ctb2Low": null,
            "ctb2Main": {
              "ntr": "ROOT_TRANSPOSITION",
              "ntt": "MELODIC_MINOR",
              "bassOn": false,
              "chordRootUpperLimit": 8,
              "noteLowLimit": 0,
              "noteHighLimit": 127,
              "rtr": "PITCH_SHIFT"
            },
            "ctb2High": null
          },
          "notes": []
        },
        "15": {
          "ctab": {
            "srcChannel": 15,
            "name": "Tbn",
            "accType": "PHRASE2",
            "editable": false,
            "mutedNotes": [],
            "mutedChords": [
              "1+2+5",
              "sus4",
              "1+5",
              "1+8",
              "7aug",
              "Maj7aug",
              "7(#9)",
              "7(b13)",
              "7(b9)",
              "7(13)",
              "7#11",
              "7(9)",
              "7b5",
              "7sus4",
              "7th",
              "dim7",
              "dim",
              "minMaj7(9)",
              "minMaj7",
              "min7(11)",
              "min7(9)",
              "m7b5",
              "min7",
              "aug",
              "Maj7#11"
            ],
            "autoStart": false,
            "sourceChordNote": 0,
            "sourceChordType": "Maj",
            "ctb2Low": null,
            "ctb2Main": {
              "ntr": "ROOT_TRANSPOSITION",
              "ntt": "MELODIC_MINOR",
              "bassOn": false,
              "chordRootUpperLimit": 8,
              "noteLowLimit": 53,
              "noteHighLimit": 66,
              "rtr": "PITCH_SHIFT"
            },
            "ctb2High": null
          },
          "notes": [
            {
              "pitch": 55,
              "velocity": 100,
              "position": 0,
              "duration": 0.28125
            },
            {
              "pitch": 57,
              "velocity": 100,
              "position": 0,
              "duration": 0.28125
            },
            {
              "pitch": 60,
              "velocity": 100,
              "position": 0,
              "duration": 0.28125
            },
            {
              "pitch": 64,
              "velocity": 100,
              "position": 0,
              "duration": 0.28125
            },
            {
              "pitch": 55,
              "velocity": 100,
              "position": 1.6666666666666667,
              "duration": 0.3229166666666667
            },
            {
              "pitch": 57,
              "velocity": 100,
              "position": 1.6666666666666667,
              "duration": 0.3229166666666667
            },
            {
              "pitch": 60,
              "velocity": 100,
              "position": 1.6666666666666667,
              "duration": 0.3229166666666667
            },
            {
              "pitch": 64,
              "velocity": 100,
              "position": 1.6666666666666667,
              "duration": 0.3229166666666667
            },
            {
              "pitch": 55,
              "velocity": 18,
              "position": 2,
              "duration": 0.65625
            },
            {
              "pitch": 57,
              "velocity": 18,
              "position": 2,
              "duration": 0.65625
            },
            {
              "pitch": 60,
              "velocity": 18,
              "position": 2,
              "duration": 0.65625
            },
            {
              "pitch": 64,
              "velocity": 18,
              "position": 2,
              "duration": 0.65625
            },
            {
              "pitch": 55,
              "velocity": 55,
              "position": 2.6666666666666665,
              "duration": 0.3229166666666667
            },
            {
              "pitch": 57,
              "velocity": 55,
              "position": 2.6666666666666665,
              "duration": 0.3229166666666667
            },
            {
              "pitch": 60,
              "velocity": 55,
              "position": 2.6666666666666665,
              "duration": 0.3229166666666667
            },
            {
              "pitch": 64,
              "velocity": 55,
              "position": 2.6666666666666665,
              "duration": 0.3229166666666667
            },
            {
              "pitch": 55,
              "velocity": 100,
              "position": 3,
              "duration": 0.28125
            },
            {
              "pitch": 57,
              "velocity": 100,
              "position": 3,
              "duration": 0.28125
            },
            {
              "pitch": 60,
              "velocity": 100,
              "position": 3,
              "duration": 0.28125
            },
            {
              "pitch": 64,
              "velocity": 100,
              "position": 3,
              "duration": 0.28125
            }
          ]
        }
      }
    },
    "Fill_In_BB": {
      "type": "Fill_In_BB",
      "sizeInBeats": 4,
      "channels": {
        "0": {
          "ctab": {
            "srcChannel": 0,
            "name": "CC_Crash",
            "accType": "RHYTHM",
            "editable": false,
            "mutedNotes": [],
            "mutedChords": [
              "1+2+5",
              "sus4",
              "1+5",
              "1+8",
              "7aug",
              "Maj7aug",
              "7(#9)",
              "7(b13)",
              "7(b9)",
              "7(13)",
              "7#11",
              "7(9)",
              "7b5",
              "7sus4",
              "7th",
              "dim7",
              "dim",
              "minMaj7(9)",
              "minMaj7",
              "min7(11)",
              "min7(9)",
              "min(9)",
              "m7b5",
              "min7",
              "min6",
              "min",
              "aug",
              "Maj6(9)",
              "Maj7(9)",
              "Maj(9)",
              "Maj7#11",
              "Maj7",
              "Maj6",
              "Maj"
            ],
            "autoStart": true,
            "sourceChordNote": 0,
            "sourceChordType": "Maj",
            "ctb2Low": null,
            "ctb2Main": {
              "ntr": "ROOT_FIXED",
              "ntt": "BYPASS",
              "bassOn": false,
              "chordRootUpperLimit": 0,
              "noteLowLimit": 0,
              "noteHighLimit": 127,
              "rtr": "RETRIGGER"
            },
            "ctb2High": null
          },
          "notes": []
        },
        "2": {
          "ctab": {
            "srcChannel": 2,
            "name": "Gt",
            "accType": "CHORD1",
            "editable": false,
            "mutedNotes": [],
            "mutedChords": [
              "min(9)",
              "min6",
              "min",
              "Maj6(9)",
              "Maj7(9)",
              "Maj(9)",
              "Maj7",
              "Maj6",
              "Maj"
            ],
            "autoStart": false,
            "sourceChordNote": 0,
            "sourceChordType": "Maj7",
            "ctb2Low": null,
            "ctb2Main": {
              "ntr": "ROOT_FIXED",
              "ntt": "CHORD",
              "bassOn": false,
              "chordRootUpperLimit": 8,
              "noteLowLimit": 0,
              "noteHighLimit": 127,
              "rtr": "PITCH_SHIFT"
            },
            "ctb2High": null
          },
          "notes": [
            {
              "pitch": 55,
              "velocity": 67,
              "position": 0,
              "duration": 0.65625
            },
            {
              "pitch": 59,
              "velocity": 67,
              "position": 0,
              "duration": 0.65625
            },
            {
              "pitch": 64,
              "velocity": 67,
              "position": 0,
              "duration": 0.65625
            },
            {
              "pitch": 55,
              "velocity": 67,
              "position": 0.6666666666666666,
              "duration": 0.3229166666666667
            },
            {
              "pitch": 59,
              "velocity": 67,
              "position": 0.6666666666666666,
              "duration": 0.3229166666666667
            },
            {
              "pitch": 64,
              "velocity": 67,
              "position": 0.6666666666666666,
              "duration": 0.3229166666666667
            },
            {
              "pitch": 55,
              "velocity": 96,
              "position": 1,
              "duration": 0.40625
            },
            {
              "pitch": 59,
              "velocity": 96,
              "position": 1,
              "duration": 0.40625
            },
            {
              "pitch": 64,
              "velocity": 96,
              "position": 1,
              "duration": 0.40625
            },
            {
              "pitch": 55,
              "velocity": 67,
              "position": 2,
              "duration": 0.40625
            },
            {
              "pitch": 59,
              "velocity": 67,
              "position": 2,
              "duration": 0.40625
            },
            {
              "pitch": 64,
              "velocity": 67,
              "position": 2,
              "duration": 0.40625
            },
            {
              "pitch": 55,
              "velocity": 96,
              "position": 3,
              "duration": 0.40625
            },
            {
              "pitch": 59,
              "velocity": 96,
              "position": 3,
              "duration": 0.40625
            },
            {
              "pitch": 64,
              "velocity": 96,
              "position": 3,
              "duration": 0.40625
            }
          ]
        },
        "3": {
          "ctab": {
            "srcChannel": 3,
            "name": "Pno",
            "accType": "CHORD2",
            "editable": false,
            "mutedNotes": [],
            "mutedChords": [
              "min(9)",
              "min6",
              "min",
              "Maj6(9)",
              "Maj7(9)",
              "Maj(9)",
              "Maj7",
              "Maj6",
              "Maj"
            ],
            "autoStart": false,
            "sourceChordNote": 0,
            "sourceChordType": "Maj7",
            "ctb2Low": null,
            "ctb2Main": {
              "ntr": "ROOT_FIXED",
              "ntt": "CHORD",
              "bassOn": false,
              "chordRootUpperLimit": 6,
              "noteLowLimit": 0,
              "noteHighLimit": 79,
              "rtr": "PITCH_SHIFT"
            },
            "ctb2High": null
          },
          "notes": [
            {
              "pitch": 64,
              "velocity": 101,
              "position": 2.6666666666666665,
              "duration": 0.65625
            },
            {
              "pitch": 67,
              "velocity": 69,
              "position": 3.3333333333333335,
              "duration": 0.23958333333333334
            },
            {
              "pitch": 71,
              "velocity": 85,
              "position": 3.6666666666666665,
              "duration": 0.23958333333333334
            }
          ]
        },
        "4": {
          "ctab": {
            "srcChannel": 4,
            "name": "Sax",
            "accType": "PAD",
            "editable": false,
            "mutedNotes": [],
            "mutedChords": [
              "min(9)",
              "min6",
              "min",
              "Maj6(9)",
              "Maj7(9)",
              "Maj(9)",
              "Maj7",
              "Maj6",
              "Maj"
            ],
            "autoStart": false,
            "sourceChordNote": 0,
            "sourceChordType": "Maj7",
            "ctb2Low": null,
            "ctb2Main": {
              "ntr": "ROOT_FIXED",
              "ntt": "CHORD",
              "bassOn": false,
              "chordRootUpperLimit": 8,
              "noteLowLimit": 0,
              "noteHighLimit": 127,
              "rtr": "PITCH_SHIFT"
            },
            "ctb2High": null
          },
          "notes": [
            {
              "pitch": 64,
              "velocity": 88,
              "position": 0.6666666666666666,
              "duration": 0.3229166666666667
            },
            {
              "pitch": 67,
              "velocity": 88,
              "position": 0.6666666666666666,
              "duration": 0.3229166666666667
            },
            {
              "pitch": 71,
              "velocity": 88,
              "position": 0.6666666666666666,
              "duration": 0.3229166666666667
            },
            {
              "pitch": 59,
              "velocity": 76,
              "position": 1,
              "duration": 0.65625
            },
            {
              "pitch": 64,
              "velocity": 76,
              "position": 1,
              "duration": 0.65625
            },
            {
              "pitch": 67,
              "velocity": 76,
              "position": 1,
              "duration": 0.65625
            },
            {
              "pitch": 55,
              "velocity": 88,
              "position": 1.6666666666666667,
              "duration": 0.3229166666666667
            },
            {
              "pitch": 59,
              "velocity": 88,
              "position": 1.6666666666666667,
              "duration": 0.3229166666666667
            },
            {
              "pitch": 64,
              "velocity": 88,
              "position": 1.6666666666666667,
              "duration": 0.3229166666666667
            }
          ]
        },
        "6": {
          "ctab": {
            "srcChannel": 6,
            "name": "Tbn",
            "accType": "PHRASE2",
            "editable": false,
            "mutedNotes": [],
            "mutedChords": [
              "min(9)",
              "min6",
              "min",
              "Maj6(9)",
              "Maj7(9)",
              "Maj(9)",
              "Maj7",
              "Maj6",
              "Maj"
            ],
            "autoStart": false,
            "sourceChordNote": 0,
            "sourceChordType": "Maj7",
            "ctb2Low": null,
            "ctb2Main": {
              "ntr": "ROOT_FIXED",
              "ntt": "CHORD",
              "bassOn": false,
              "chordRootUpperLimit": 8,
              "noteLowLimit": 0,
              "noteHighLimit": 127,
              "rtr": "PITCH_SHIFT"
            },
            "ctb2High": null
          },
          "notes": [
            {
              "pitch": 55,
              "velocity": 112,
              "position": 0,
              "duration": 0.28125
            },
            {
              "pitch": 59,
              "velocity": 112,
              "position": 0,
              "duration": 0.28125
            },
            {
              "pitch": 64,
              "velocity": 112,
              "position": 0,
              "duration": 0.28125
            },
            {
              "pitch": 55,
              "velocity": 112,
              "position": 1.6666666666666667,
              "duration": 0.28125
            },
            {
              "pitch": 59,
              "velocity": 112,
              "position": 1.6666666666666667,
              "duration": 0.28125
            },
            {
              "pitch": 64,
              "velocity": 112,
              "position": 1.6666666666666667,
              "duration": 0.28125
            }
          ]
        },
        "9": {
          "ctab": {
            "srcChannel": 9,
            "name": "Drs",
            "accType": "RHYTHM",
            "editable": false,
            "mutedNotes": [],
            "mutedChords": [],
            "autoStart": true,
            "sourceChordNote": 0,
            "sourceChordType": "Maj7",
            "ctb2Low": null,
            "ctb2Main": {
              "ntr": "ROOT_FIXED",
              "ntt": "BYPASS",
              "bassOn": false,
              "chordRootUpperLimit": 6,
              "noteLowLimit": 0,
              "noteHighLimit": 127,
              "rtr": "PITCH_SHIFT"
            },
            "ctb2High": null
          },
          "notes": [
            {
              "pitch": 25,
              "velocity": 40,
              "position": 0,
              "duration": 0.010416666666666666
            },
            {
              "pitch": 35,
              "velocity": 74,
              "position": 0,
              "duration": 0.010416666666666666
            },
            {
              "pitch": 46,
              "velocity": 36,
              "position": 0,
              "duration": 0.010416666666666666
            },
            {
              "pitch": 28,
              "velocity": 23,
              "position": 0,
              "duration": 0.9895833333333334
            },
            {
              "pitch": 25,
              "velocity": 120,
              "position": 1,
              "duration": 0.010416666666666666
            },
            {
              "pitch": 46,
              "velocity": 36,
              "position": 1,
              "duration": 0.010416666666666666
            },
            {
              "pitch": 25,
              "velocity": 120,
              "position": 1.6666666666666667,
              "duration": 0.010416666666666666
            },
            {
              "pitch": 34,
              "velocity": 40,
              "position": 1.6666666666666667,
              "duration": 0.010416666666666666
            },
            {
              "pitch": 46,
              "velocity": 19,
              "position": 1.6875,
              "duration": 0.010416666666666666
            },
            {
              "pitch": 26,
              "velocity": 17,
              "position": 1,
              "duration": 0.9895833333333334
            },
            {
              "pitch": 25,
              "velocity": 40,
              "position": 2,
              "duration": 0.010416666666666666
            },
            {
              "pitch": 35,
              "velocity": 74,
              "position": 2,
              "duration": 0.010416666666666666
            },
            {
              "pitch": 46,
              "velocity": 36,
              "position": 2,
              "duration": 0.010416666666666666
            },
            {
              "pitch": 27,
              "velocity": 40,
              "position": 2.3333333333333335,
              "duration": 0.010416666666666666
            },
            {
              "pitch": 25,
              "velocity": 120,
              "position": 2.6666666666666665,
              "duration": 0.010416666666666666
            },
            {
              "pitch": 34,
              "velocity": 40,
              "position": 2.6666666666666665,
              "duration": 0.010416666666666666
            },
            {
              "pitch": 28,
              "velocity": 23,
              "position": 2,
              "duration": 0.9895833333333334
            },
            {
              "pitch": 25,
              "velocity": 120,
              "position": 3,
              "duration": 0.010416666666666666
            },
            {
              "pitch": 46,
              "velocity": 36,
              "position": 3,
              "duration": 0.010416666666666666
            },
            {
              "pitch": 46,
              "velocity": 19,
              "position": 3.6875,
              "duration": 0.010416666666666666
            },
            {
              "pitch": 26,
              "velocity": 17,
              "position": 3,
              "duration": 0.9895833333333334
            }
          ]
        },
        "10": {
          "ctab": {
            "srcChannel": 10,
            "name": "Bass",
            "accType": "BASS",
            "editable": false,
            "mutedNotes": [],
            "mutedChords": [],
            "autoStart": false,
            "sourceChordNote": 0,
            "sourceChordType": "Maj",
            "ctb2Low": null,
            "ctb2Main": {
              "ntr": "ROOT_TRANSPOSITION",
              "ntt": "MELODY",
              "bassOn": true,
              "chordRootUpperLimit": 8,
              "noteLowLimit": 28,
              "noteHighLimit": 127,
              "rtr": "PITCH_SHIFT_TO_ROOT"
            },
            "ctb2High": null
          },
          "notes": [
            {
              "pitch": 24,
              "velocity": 80,
              "position": 0,
              "duration": 1.3229166666666667
            },
            {
              "pitch": 24,
              "velocity": 106,
              "position": 1.6666666666666667,
              "duration": 0.13541666666666666
            },
            {
              "pitch": 28,
              "velocity": 80,
              "position": 2,
              "duration": 0.9895833333333334
            },
            {
              "pitch": 31,
              "velocity": 80,
              "position": 3,
              "duration": 0.9895833333333334
            }
          ]
        },
        "11": {
          "ctab": {
            "srcChannel": 11,
            "name": "Gt",
            "accType": "CHORD1",
            "editable": false,
            "mutedNotes": [],
            "mutedChords": [
              "1+2+5",
              "sus4",
              "1+5",
              "1+8",
              "7aug",
              "Maj7aug",
              "7(#9)",
              "7(b13)",
              "7(b9)",
              "7(13)",
              "7#11",
              "7(9)",
              "7b5",
              "7sus4",
              "7th",
              "dim7",
              "dim",
              "minMaj7(9)",
              "minMaj7",
              "min7(11)",
              "min7(9)",
              "m7b5",
              "min7",
              "aug",
              "Maj7#11"
            ],
            "autoStart": false,
            "sourceChordNote": 0,
            "sourceChordType": "Maj",
            "ctb2Low": null,
            "ctb2Main": {
              "ntr": "ROOT_TRANSPOSITION",
              "ntt": "MELODIC_MINOR",
              "bassOn": false,
              "chordRootUpperLimit": 4,
              "noteLowLimit": 54,
              "noteHighLimit": 127,
              "rtr": "PITCH_SHIFT"
            },
            "ctb2High": null
          },
          "notes": [
            {
              "pitch": 57,
              "velocity": 67,
              "position": 0,
              "duration": 0.65625
            },
            {
              "pitch": 62,
              "velocity": 50,
              "position": 0,
              "duration": 0.65625
            },
            {
              "pitch": 67,
              "velocity": 67,
              "position": 0,
              "duration": 0.65625
            },
            {
              "pitch": 57,
              "velocity": 67,
              "position": 0.6666666666666666,
              "duration": 0.3229166666666667
            },
            {
              "pitch": 62,
              "velocity": 50,
              "position": 0.6666666666666666,
              "duration": 0.3229166666666667
            },
            {
              "pitch": 67,
              "velocity": 67,
              "position": 0.6666666666666666,
              "duration": 0.3229166666666667
            },
            {
              "pitch": 57,
              "velocity": 96,
              "position": 1,
              "duration": 0.40625
            },
            {
              "pitch": 62,
              "velocity": 69,
              "position": 1,
              "duration": 0.40625
            },
            {
              "pitch": 67,
              "velocity": 96,
              "position": 1,
              "duration": 0.40625
            },
            {
              "pitch": 57,
              "velocity": 67,
              "position": 2,
              "duration": 0.40625
            },
            {
              "pitch": 62,
              "velocity": 50,
              "position": 2,
              "duration": 0.40625
            },
            {
              "pitch": 67,
              "velocity": 67,
              "position": 2,
              "duration": 0.40625
            },
            {
              "pitch": 57,
              "velocity": 96,
              "position": 3,
              "duration": 0.40625
            },
            {
              "pitch": 62,
              "velocity": 69,
              "position": 3,
              "duration": 0.40625
            },
            {
              "pitch": 67,
              "velocity": 96,
              "position": 3,
              "duration": 0.40625
            }
          ]
        },
        "12": {
          "ctab": {
            "srcChannel": 12,
            "name": "Pno",
            "accType": "CHORD2",
            "editable": false,
            "mutedNotes": [],
            "mutedChords": [
              "1+2+5",
              "sus4",
              "1+5",
              "1+8",
              "7aug",
              "Maj7aug",
              "7(#9)",
              "7(b13)",
              "7(b9)",
              "7(13)",
              "7#11",
              "7(9)",
              "7b5",
              "7sus4",
              "7th",
              "dim7",
              "dim",
              "minMaj7(9)",
              "minMaj7",
              "min7(11)",
              "min7(9)",
              "m7b5",
              "min7",
              "aug",
              "Maj7#11"
            ],
            "autoStart": false,
            "sourceChordNote": 0,
            "sourceChordType": "Maj",
            "ctb2Low": null,
            "ctb2Main": {
              "ntr": "ROOT_TRANSPOSITION",
              "ntt": "MELODIC_MINOR",
              "bassOn": false,
              "chordRootUpperLimit": 6,
              "noteLowLimit": 0,
              "noteHighLimit": 79,
              "rtr": "PITCH_SHIFT"
            },
            "ctb2High": null
          },
          "notes": [
            {
              "pitch": 64,
              "velocity": 103,
              "position": 2.6666666666666665,
              "duration": 0.23958333333333334
            },
            {
              "pitch": 64,
              "velocity": 72,
              "position": 3,
              "duration": 0.23958333333333334
            },
            {
              "pitch": 67,
              "velocity": 71,
              "position": 3.3333333333333335,
              "duration": 0.23958333333333334
            },
            {
              "pitch": 69,
              "velocity": 88,
              "position": 3.6666666666666665,
              "duration": 0.23958333333333334
            }
          ]
        },
        "13": {
          "ctab": {
            "srcChannel": 13,
            "name": "Sax",
            "accType": "PAD",
            "editable": false,
            "mutedNotes": [],
            "mutedChords": [
              "1+2+5",
              "sus4",
              "1+5",
              "1+8",
              "7aug",
              "Maj7aug",
              "7(#9)",
              "7(b13)",
              "7(b9)",
              "7(13)",
              "7#11",
              "7(9)",
              "7b5",
              "7sus4",
              "7th",
              "dim7",
              "dim",
              "minMaj7(9)",
              "minMaj7",
              "min7(11)",
              "min7(9)",
              "m7b5",
              "min7",
              "aug",
              "Maj7#11"
            ],
            "autoStart": false,
            "sourceChordNote": 0,
            "sourceChordType": "Maj",
            "ctb2Low": null,
            "ctb2Main": {
              "ntr": "ROOT_TRANSPOSITION",
              "ntt": "MELODIC_MINOR",
              "bassOn": false,
              "chordRootUpperLimit": 8,
              "noteLowLimit": 0,
              "noteHighLimit": 127,
              "rtr": "PITCH_SHIFT"
            },
            "ctb2High": null
          },
          "notes": [
            {
              "pitch": 57,
              "velocity": 88,
              "position": 0.6666666666666666,
              "duration": 0.3229166666666667
            },
            {
              "pitch": 60,
              "velocity": 88,
              "position": 0.6666666666666666,
              "duration": 0.3229166666666667
            },
            {
              "pitch": 64,
              "velocity": 88,
              "position": 0.6666666666666666,
              "duration": 0.3229166666666667
            },
            {
              "pitch": 67,
              "velocity": 88,
              "position": 0.6666666666666666,
              "duration": 0.3229166666666667
            },
            {
              "pitch": 55,
              "velocity": 74,
              "position": 1,
              "duration": 0.65625
            },
            {
              "pitch": 57,
              "velocity": 74,
              "position": 1,
              "duration": 0.65625
            },
            {
              "pitch": 62,
              "velocity": 74,
              "position": 1,
              "duration": 0.65625
            },
            {
              "pitch": 65,
              "velocity": 74,
              "position": 1,
              "duration": 0.65625
            },
            {
              "pitch": 55,
              "velocity": 88,
              "position": 1.6666666666666667,
              "duration": 0.3229166666666667
            },
            {
              "pitch": 57,
              "velocity": 88,
              "position": 1.6666666666666667,
              "duration": 0.3229166666666667
            },
            {
              "pitch": 60,
              "velocity": 88,
              "position": 1.6666666666666667,
              "duration": 0.3229166666666667
            },
            {
              "pitch": 64,
              "velocity": 88,
              "position": 1.6666666666666667,
              "duration": 0.3229166666666667
            }
          ]
        },
        "15": {
          "ctab": {
            "srcChannel": 15,
            "name": "Tbn",
            "accType": "PHRASE2",
            "editable": false,
            "mutedNotes": [],
            "mutedChords": [
              "1+2+5",
              "sus4",
              "1+5",
              "1+8",
              "7aug",
              "Maj7aug",
              "7(#9)",
              "7(b13)",
              "7(b9)",
              "7(13)",
              "7#11",
              "7(9)",
              "7b5",
              "7sus4",
              "7th",
              "dim7",
              "dim",
              "minMaj7(9)",
              "minMaj7",
              "min7(11)",
              "min7(9)",
              "m7b5",
              "min7",
              "aug",
              "Maj7#11"
            ],
            "autoStart": false,
            "sourceChordNote": 0,
            "sourceChordType": "Maj",
            "ctb2Low": null,
            "ctb2Main": {
              "ntr": "ROOT_TRANSPOSITION",
              "ntt": "MELODIC_MINOR",
              "bassOn": false,
              "chordRootUpperLimit": 8,
              "noteLowLimit": 53,
              "noteHighLimit": 66,
              "rtr": "PITCH_SHIFT"
            },
            "ctb2High": null
          },
          "notes": [
            {
              "pitch": 55,
              "velocity": 100,
              "position": 0,
              "duration": 0.28125
            },
            {
              "pitch": 57,
              "velocity": 100,
              "position": 0,
              "duration": 0.28125
            },
            {
              "pitch": 60,
              "velocity": 100,
              "position": 0,
              "duration": 0.28125
            },
            {
              "pitch": 64,
              "velocity": 100,
              "position": 0,
              "duration": 0.28125
            },
            {
              "pitch": 55,
              "velocity": 100,
              "position": 1.6666666666666667,
              "duration": 0.28125
            },
            {
              "pitch": 57,
              "velocity": 100,
              "position": 1.6666666666666667,
              "duration": 0.28125
            },
            {
              "pitch": 60,
              "velocity": 100,
              "position": 1.6666666666666667,
              "duration": 0.28125
            },
            {
              "pitch": 64,
              "velocity": 100,
              "position": 1.6666666666666667,
              "duration": 0.28125
            }
          ]
        }
      }
    },
    "Fill_In_CC": {
      "type": "Fill_In_CC",
      "sizeInBeats": 4,
      "channels": {
        "0": {
          "ctab": {
            "srcChannel": 0,
            "name": "CC_Crash",
            "accType": "RHYTHM",
            "editable": false,
            "mutedNotes": [],
            "mutedChords": [
              "1+2+5",
              "sus4",
              "1+5",
              "1+8",
              "7aug",
              "Maj7aug",
              "7(#9)",
              "7(b13)",
              "7(b9)",
              "7(13)",
              "7#11",
              "7(9)",
              "7b5",
              "7sus4",
              "7th",
              "dim7",
              "dim",
              "minMaj7(9)",
              "minMaj7",
              "min7(11)",
              "min7(9)",
              "min(9)",
              "m7b5",
              "min7",
              "min6",
              "min",
              "aug",
              "Maj6(9)",
              "Maj7(9)",
              "Maj(9)",
              "Maj7#11",
              "Maj7",
              "Maj6",
              "Maj"
            ],
            "autoStart": true,
            "sourceChordNote": 0,
            "sourceChordType": "Maj",
            "ctb2Low": null,
            "ctb2Main": {
              "ntr": "ROOT_FIXED",
              "ntt": "BYPASS",
              "bassOn": false,
              "chordRootUpperLimit": 0,
              "noteLowLimit": 0,
              "noteHighLimit": 127,
              "rtr": "RETRIGGER"
            },
            "ctb2High": null
          },
          "notes": []
        },
        "1": {
          "ctab": {
            "srcChannel": 1,
            "name": "Bass",
            "accType": "BASS",
            "editable": false,
            "mutedNotes": [],
            "mutedChords": [
              "1+2+5",
              "sus4",
              "1+5",
              "1+8",
              "dim",
              "min(9)",
              "m7b5",
              "min6",
              "min",
              "aug",
              "Maj6(9)",
              "Maj7(9)",
              "Maj(9)",
              "Maj7",
              "Maj6",
              "Maj"
            ],
            "autoStart": false,
            "sourceChordNote": 0,
            "sourceChordType": "Maj7",
            "ctb2Low": null,
            "ctb2Main": {
              "ntr": "ROOT_TRANSPOSITION",
              "ntt": "MELODY",
              "bassOn": true,
              "chordRootUpperLimit": 8,
              "noteLowLimit": 28,
              "noteHighLimit": 127,
              "rtr": "PITCH_SHIFT_TO_ROOT"
            },
            "ctb2High": null
          },
          "notes": [
            {
              "pitch": 36,
              "velocity": 80,
              "position": 0,
              "duration": 0.65625
            },
            {
              "pitch": 36,
              "velocity": 106,
              "position": 0.6666666666666666,
              "duration": 0.052083333333333336
            },
            {
              "pitch": 31,
              "velocity": 80,
              "position": 1,
              "duration": 0.8125
            },
            {
              "pitch": 28,
              "velocity": 80,
              "position": 2,
              "duration": 0.8125
            },
            {
              "pitch": 31,
              "velocity": 80,
              "position": 3,
              "duration": 0.8125
            }
          ]
        },
        "2": {
          "ctab": {
            "srcChannel": 2,
            "name": "Gt",
            "accType": "CHORD1",
            "editable": false,
            "mutedNotes": [],
            "mutedChords": [
              "min(9)",
              "min6",
              "min",
              "Maj6(9)",
              "Maj7(9)",
              "Maj(9)",
              "Maj7",
              "Maj6",
              "Maj"
            ],
            "autoStart": false,
            "sourceChordNote": 0,
            "sourceChordType": "Maj7",
            "ctb2Low": null,
            "ctb2Main": {
              "ntr": "ROOT_FIXED",
              "ntt": "CHORD",
              "bassOn": false,
              "chordRootUpperLimit": 8,
              "noteLowLimit": 0,
              "noteHighLimit": 127,
              "rtr": "PITCH_SHIFT"
            },
            "ctb2High": null
          },
          "notes": [
            {
              "pitch": 55,
              "velocity": 80,
              "position": 0,
              "duration": 0.65625
            },
            {
              "pitch": 59,
              "velocity": 80,
              "position": 0,
              "duration": 0.65625
            },
            {
              "pitch": 64,
              "velocity": 80,
              "position": 0,
              "duration": 0.65625
            },
            {
              "pitch": 55,
              "velocity": 96,
              "position": 0.6666666666666666,
              "duration": 0.3229166666666667
            },
            {
              "pitch": 59,
              "velocity": 96,
              "position": 0.6666666666666666,
              "duration": 0.3229166666666667
            },
            {
              "pitch": 64,
              "velocity": 96,
              "position": 0.6666666666666666,
              "duration": 0.3229166666666667
            },
            {
              "pitch": 55,
              "velocity": 67,
              "position": 1,
              "duration": 0.40625
            },
            {
              "pitch": 59,
              "velocity": 67,
              "position": 1,
              "duration": 0.40625
            },
            {
              "pitch": 64,
              "velocity": 67,
              "position": 1,
              "duration": 0.40625
            },
            {
              "pitch": 55,
              "velocity": 96,
              "position": 2,
              "duration": 0.40625
            },
            {
              "pitch": 59,
              "velocity": 96,
              "position": 2,
              "duration": 0.40625
            },
            {
              "pitch": 64,
              "velocity": 96,
              "position": 2,
              "duration": 0.40625
            },
            {
              "pitch": 55,
              "velocity": 80,
              "position": 3,
              "duration": 0.65625
            },
            {
              "pitch": 59,
              "velocity": 80,
              "position": 3,
              "duration": 0.65625
            },
            {
              "pitch": 64,
              "velocity": 80,
              "position": 3,
              "duration": 0.65625
            },
            {
              "pitch": 55,
              "velocity": 67,
              "position": 3.6666666666666665,
              "duration": 0.3229166666666667
            },
            {
              "pitch": 59,
              "velocity": 67,
              "position": 3.6666666666666665,
              "duration": 0.3229166666666667
            },
            {
              "pitch": 64,
              "velocity": 67,
              "position": 3.6666666666666665,
              "duration": 0.3229166666666667
            }
          ]
        },
        "3": {
          "ctab": {
            "srcChannel": 3,
            "name": "Pno",
            "accType": "CHORD2",
            "editable": false,
            "mutedNotes": [],
            "mutedChords": [
              "min(9)",
              "min6",
              "min",
              "Maj6(9)",
              "Maj7(9)",
              "Maj(9)",
              "Maj7",
              "Maj6",
              "Maj"
            ],
            "autoStart": false,
            "sourceChordNote": 0,
            "sourceChordType": "Maj7",
            "ctb2Low": null,
            "ctb2Main": {
              "ntr": "ROOT_FIXED",
              "ntt": "CHORD",
              "bassOn": false,
              "chordRootUpperLimit": 8,
              "noteLowLimit": 0,
              "noteHighLimit": 127,
              "rtr": "PITCH_SHIFT"
            },
            "ctb2High": null
          },
          "notes": [
            {
              "pitch": 59,
              "velocity": 94,
              "position": 0,
              "duration": 1.65625
            },
            {
              "pitch": 64,
              "velocity": 94,
              "position": 0,
              "duration": 1.65625
            },
            {
              "pitch": 67,
              "velocity": 94,
              "position": 0,
              "duration": 1.65625
            },
            {
              "pitch": 59,
              "velocity": 94,
              "position": 1.6666666666666667,
              "duration": 0.28125
            },
            {
              "pitch": 64,
              "velocity": 94,
              "position": 1.6666666666666667,
              "duration": 0.28125
            },
            {
              "pitch": 67,
              "velocity": 94,
              "position": 1.6666666666666667,
              "duration": 0.28125
            }
          ]
        },
        "4": {
          "ctab": {
            "srcChannel": 4,
            "name": "Sax",
            "accType": "PAD",
            "editable": false,
            "mutedNotes": [],
            "mutedChords": [
              "min(9)",
              "min6",
              "min",
              "Maj6(9)",
              "Maj7(9)",
              "Maj(9)",
              "Maj7",
              "Maj6",
              "Maj"
            ],
            "autoStart": false,
            "sourceChordNote": 0,
            "sourceChordType": "Maj7",
            "ctb2Low": null,
            "ctb2Main": {
              "ntr": "ROOT_TRANSPOSITION",
              "ntt": "MELODY",
              "bassOn": false,
              "chordRootUpperLimit": 8,
              "noteLowLimit": 0,
              "noteHighLimit": 127,
              "rtr": "PITCH_SHIFT"
            },
            "ctb2High": null
          },
          "notes": [
            {
              "pitch": 48,
              "velocity": 105,
              "position": 0.010416666666666666,
              "duration": 1.6458333333333333
            },
            {
              "pitch": 60,
              "velocity": 105,
              "position": 0.010416666666666666,
              "duration": 1.6458333333333333
            },
            {
              "pitch": 43,
              "velocity": 105,
              "position": 1.6666666666666667,
              "duration": 0.3854166666666667
            },
            {
              "pitch": 55,
              "velocity": 105,
              "position": 1.6666666666666667,
              "duration": 0.3854166666666667
            }
          ]
        },
        "5": {
          "ctab": {
            "srcChannel": 5,
            "name": "Brs",
            "accType": "PHRASE1",
            "editable": false,
            "mutedNotes": [],
            "mutedChords": [
              "min(9)",
              "min6",
              "min",
              "Maj6(9)",
              "Maj7(9)",
              "Maj(9)",
              "Maj7",
              "Maj6",
              "Maj"
            ],
            "autoStart": false,
            "sourceChordNote": 0,
            "sourceChordType": "Maj7",
            "ctb2Low": null,
            "ctb2Main": {
              "ntr": "ROOT_TRANSPOSITION",
              "ntt": "MELODY",
              "bassOn": false,
              "chordRootUpperLimit": 11,
              "noteLowLimit": 0,
              "noteHighLimit": 127,
              "rtr": "PITCH_SHIFT"
            },
            "ctb2High": null
          },
          "notes": [
            {
              "pitch": 52,
              "velocity": 60,
              "position": 1,
              "duration": 0.65625
            },
            {
              "pitch": 64,
              "velocity": 60,
              "position": 1,
              "duration": 0.65625
            },
            {
              "pitch": 52,
              "velocity": 100,
              "position": 1.6666666666666667,
              "duration": 0.9895833333333334
            },
            {
              "pitch": 64,
              "velocity": 100,
              "position": 1.6666666666666667,
              "duration": 0.9895833333333334
            },
            {
              "pitch": 55,
              "velocity": 100,
              "position": 2.6666666666666665,
              "duration": 0.3229166666666667
            },
            {
              "pitch": 67,
              "velocity": 100,
              "position": 2.6666666666666665,
              "duration": 0.3229166666666667
            },
            {
              "pitch": 59,
              "velocity": 60,
              "position": 3,
              "duration": 0.3958333333333333
            },
            {
              "pitch": 71,
              "velocity": 60,
              "position": 3,
              "duration": 0.3958333333333333
            }
          ]
        },
        "6": {
          "ctab": {
            "srcChannel": 6,
            "name": "Tbn",
            "accType": "PHRASE2",
            "editable": false,
            "mutedNotes": [],
            "mutedChords": [
              "min(9)",
              "min6",
              "min",
              "Maj6(9)",
              "Maj7(9)",
              "Maj(9)",
              "Maj7",
              "Maj6",
              "Maj"
            ],
            "autoStart": false,
            "sourceChordNote": 0,
            "sourceChordType": "Maj7",
            "ctb2Low": null,
            "ctb2Main": {
              "ntr": "ROOT_FIXED",
              "ntt": "CHORD",
              "bassOn": false,
              "chordRootUpperLimit": 8,
              "noteLowLimit": 0,
              "noteHighLimit": 127,
              "rtr": "PITCH_SHIFT"
            },
            "ctb2High": null
          },
          "notes": [
            {
              "pitch": 55,
              "velocity": 112,
              "position": 0,
              "duration": 0.28125
            },
            {
              "pitch": 59,
              "velocity": 112,
              "position": 0,
              "duration": 0.28125
            },
            {
              "pitch": 64,
              "velocity": 112,
              "position": 0,
              "duration": 0.28125
            },
            {
              "pitch": 55,
              "velocity": 112,
              "position": 1.6666666666666667,
              "duration": 0.28125
            },
            {
              "pitch": 59,
              "velocity": 112,
              "position": 1.6666666666666667,
              "duration": 0.28125
            },
            {
              "pitch": 64,
              "velocity": 112,
              "position": 1.6666666666666667,
              "duration": 0.28125
            }
          ]
        },
        "7": {
          "ctab": {
            "srcChannel": 7,
            "name": "Bass",
            "accType": "BASS",
            "editable": false,
            "mutedNotes": [],
            "mutedChords": [
              "7aug",
              "Maj7aug",
              "7(#9)",
              "7(b13)",
              "7(b9)",
              "7(13)",
              "7#11",
              "7(9)",
              "7b5",
              "7sus4",
              "7th",
              "dim7",
              "minMaj7(9)",
              "minMaj7",
              "min7(11)",
              "min7(9)",
              "min(9)",
              "min7",
              "min6",
              "min",
              "Maj6(9)",
              "Maj7(9)",
              "Maj(9)",
              "Maj7#11",
              "Maj7",
              "Maj6",
              "Maj"
            ],
            "autoStart": false,
            "sourceChordNote": 0,
            "sourceChordType": "Maj7",
            "ctb2Low": null,
            "ctb2Main": {
              "ntr": "ROOT_TRANSPOSITION",
              "ntt": "MELODY",
              "bassOn": true,
              "chordRootUpperLimit": 8,
              "noteLowLimit": 28,
              "noteHighLimit": 127,
              "rtr": "PITCH_SHIFT_TO_ROOT"
            },
            "ctb2High": null
          },
          "notes": [
            {
              "pitch": 36,
              "velocity": 80,
              "position": 0,
              "duration": 0.65625
            },
            {
              "pitch": 36,
              "velocity": 106,
              "position": 0.6666666666666666,
              "duration": 0.052083333333333336
            },
            {
              "pitch": 31,
              "velocity": 80,
              "position": 1,
              "duration": 0.8125
            },
            {
              "pitch": 28,
              "velocity": 80,
              "position": 2,
              "duration": 0.8125
            },
            {
              "pitch": 31,
              "velocity": 80,
              "position": 3,
              "duration": 0.8125
            }
          ]
        },
        "8": {
          "ctab": {
            "srcChannel": 8,
            "name": "Prc",
            "accType": "SUBRHYTHM",
            "editable": false,
            "mutedNotes": [],
            "mutedChords": [],
            "autoStart": true,
            "sourceChordNote": 0,
            "sourceChordType": "Maj7",
            "ctb2Low": null,
            "ctb2Main": {
              "ntr": "ROOT_FIXED",
              "ntt": "BYPASS",
              "bassOn": false,
              "chordRootUpperLimit": 6,
              "noteLowLimit": 0,
              "noteHighLimit": 127,
              "rtr": "PITCH_SHIFT"
            },
            "ctb2High": null
          },
          "notes": []
        },
        "9": {
          "ctab": {
            "srcChannel": 9,
            "name": "Drs",
            "accType": "RHYTHM",
            "editable": false,
            "mutedNotes": [],
            "mutedChords": [],
            "autoStart": true,
            "sourceChordNote": 0,
            "sourceChordType": "Maj7",
            "ctb2Low": null,
            "ctb2Main": {
              "ntr": "ROOT_FIXED",
              "ntt": "BYPASS",
              "bassOn": false,
              "chordRootUpperLimit": 6,
              "noteLowLimit": 0,
              "noteHighLimit": 127,
              "rtr": "PITCH_SHIFT"
            },
            "ctb2High": null
          },
          "notes": [
            {
              "pitch": 35,
              "velocity": 74,
              "position": 0,
              "duration": 0.010416666666666666
            },
            {
              "pitch": 44,
              "velocity": 55,
              "position": 0,
              "duration": 0.010416666666666666
            },
            {
              "pitch": 57,
              "velocity": 63,
              "position": 0,
              "duration": 0.010416666666666666
            },
            {
              "pitch": 40,
              "velocity": 30,
              "position": 0.6666666666666666,
              "duration": 0.010416666666666666
            },
            {
              "pitch": 40,
              "velocity": 81,
              "position": 1,
              "duration": 0.010416666666666666
            },
            {
              "pitch": 44,
              "velocity": 65,
              "position": 1,
              "duration": 0.010416666666666666
            },
            {
              "pitch": 31,
              "velocity": 30,
              "position": 1.3333333333333333,
              "duration": 0.010416666666666666
            },
            {
              "pitch": 47,
              "velocity": 80,
              "position": 1.6666666666666667,
              "duration": 0.010416666666666666
            },
            {
              "pitch": 35,
              "velocity": 74,
              "position": 2,
              "duration": 0.010416666666666666
            },
            {
              "pitch": 44,
              "velocity": 55,
              "position": 2,
              "duration": 0.010416666666666666
            },
            {
              "pitch": 31,
              "velocity": 30,
              "position": 2.3333333333333335,
              "duration": 0.010416666666666666
            },
            {
              "pitch": 40,
              "velocity": 30,
              "position": 2.6666666666666665,
              "duration": 0.010416666666666666
            },
            {
              "pitch": 40,
              "velocity": 81,
              "position": 3,
              "duration": 0.010416666666666666
            },
            {
              "pitch": 44,
              "velocity": 65,
              "position": 3,
              "duration": 0.010416666666666666
            },
            {
              "pitch": 31,
              "velocity": 30,
              "position": 3.3333333333333335,
              "duration": 0.010416666666666666
            },
            {
              "pitch": 35,
              "velocity": 54,
              "position": 3.6666666666666665,
              "duration": 0.010416666666666666
            }
          ]
        },
        "10": {
          "ctab": {
            "srcChannel": 10,
            "name": "Bass",
            "accType": "BASS",
            "editable": false,
            "mutedNotes": [],
            "mutedChords": [
              "1+2+5",
              "sus4",
              "1+5",
              "1+8",
              "7aug",
              "Maj7aug",
              "7(#9)",
              "7(b13)",
              "7(b9)",
              "7(13)",
              "7#11",
              "7(9)",
              "7b5",
              "7sus4",
              "7th",
              "dim7",
              "dim",
              "minMaj7(9)",
              "minMaj7",
              "min7(11)",
              "min7(9)",
              "m7b5",
              "min7",
              "aug",
              "Maj7#11"
            ],
            "autoStart": false,
            "sourceChordNote": 0,
            "sourceChordType": "Maj",
            "ctb2Low": null,
            "ctb2Main": {
              "ntr": "ROOT_TRANSPOSITION",
              "ntt": "MELODIC_MINOR",
              "bassOn": true,
              "chordRootUpperLimit": 8,
              "noteLowLimit": 28,
              "noteHighLimit": 127,
              "rtr": "PITCH_SHIFT_TO_ROOT"
            },
            "ctb2High": null
          },
          "notes": [
            {
              "pitch": 36,
              "velocity": 80,
              "position": 0,
              "duration": 0.65625
            },
            {
              "pitch": 36,
              "velocity": 106,
              "position": 0.6666666666666666,
              "duration": 0.052083333333333336
            },
            {
              "pitch": 33,
              "velocity": 80,
              "position": 1,
              "duration": 0.8125
            },
            {
              "pitch": 31,
              "velocity": 80,
              "position": 2,
              "duration": 0.8125
            },
            {
              "pitch": 28,
              "velocity": 80,
              "position": 3,
              "duration": 0.8125
            }
          ]
        },
        "11": {
          "ctab": {
            "srcChannel": 11,
            "name": "Gt",
            "accType": "CHORD1",
            "editable": false,
            "mutedNotes": [],
            "mutedChords": [
              "1+2+5",
              "sus4",
              "1+5",
              "1+8",
              "7aug",
              "Maj7aug",
              "7(#9)",
              "7(b13)",
              "7(b9)",
              "7(13)",
              "7#11",
              "7(9)",
              "7b5",
              "7sus4",
              "7th",
              "dim7",
              "dim",
              "minMaj7(9)",
              "minMaj7",
              "min7(11)",
              "min7(9)",
              "m7b5",
              "min7",
              "aug",
              "Maj7#11"
            ],
            "autoStart": false,
            "sourceChordNote": 0,
            "sourceChordType": "Maj",
            "ctb2Low": null,
            "ctb2Main": {
              "ntr": "ROOT_TRANSPOSITION",
              "ntt": "MELODIC_MINOR",
              "bassOn": false,
              "chordRootUpperLimit": 4,
              "noteLowLimit": 54,
              "noteHighLimit": 127,
              "rtr": "PITCH_SHIFT"
            },
            "ctb2High": null
          },
          "notes": [
            {
              "pitch": 57,
              "velocity": 80,
              "position": 0,
              "duration": 0.65625
            },
            {
              "pitch": 62,
              "velocity": 60,
              "position": 0,
              "duration": 0.65625
            },
            {
              "pitch": 67,
              "velocity": 80,
              "position": 0,
              "duration": 0.65625
            },
            {
              "pitch": 57,
              "velocity": 96,
              "position": 0.6666666666666666,
              "duration": 0.3229166666666667
            },
            {
              "pitch": 62,
              "velocity": 69,
              "position": 0.6666666666666666,
              "duration": 0.3229166666666667
            },
            {
              "pitch": 67,
              "velocity": 96,
              "position": 0.6666666666666666,
              "duration": 0.3229166666666667
            },
            {
              "pitch": 57,
              "velocity": 67,
              "position": 1,
              "duration": 0.40625
            },
            {
              "pitch": 62,
              "velocity": 50,
              "position": 1,
              "duration": 0.40625
            },
            {
              "pitch": 67,
              "velocity": 67,
              "position": 1,
              "duration": 0.40625
            },
            {
              "pitch": 57,
              "velocity": 96,
              "position": 2,
              "duration": 0.40625
            },
            {
              "pitch": 62,
              "velocity": 69,
              "position": 2,
              "duration": 0.40625
            },
            {
              "pitch": 67,
              "velocity": 96,
              "position": 2,
              "duration": 0.40625
            },
            {
              "pitch": 57,
              "velocity": 80,
              "position": 3,
              "duration": 0.65625
            },
            {
              "pitch": 62,
              "velocity": 60,
              "position": 3,
              "duration": 0.65625
            },
            {
              "pitch": 67,
              "velocity": 80,
              "position": 3,
              "duration": 0.65625
            },
            {
              "pitch": 57,
              "velocity": 67,
              "position": 3.6666666666666665,
              "duration": 0.3229166666666667
            },
            {
              "pitch": 62,
              "velocity": 50,
              "position": 3.6666666666666665,
              "duration": 0.3229166666666667
            },
            {
              "pitch": 67,
              "velocity": 67,
              "position": 3.6666666666666665,
              "duration": 0.3229166666666667
            }
          ]
        },
        "12": {
          "ctab": {
            "srcChannel": 12,
            "name": "Pno",
            "accType": "CHORD2",
            "editable": false,
            "mutedNotes": [],
            "mutedChords": [
              "1+2+5",
              "sus4",
              "1+5",
              "1+8",
              "7aug",
              "Maj7aug",
              "7(#9)",
              "7(b13)",
              "7(b9)",
              "7(13)",
              "7#11",
              "7(9)",
              "7b5",
              "7sus4",
              "7th",
              "dim7",
              "dim",
              "minMaj7(9)",
              "minMaj7",
              "min7(11)",
              "min7(9)",
              "m7b5",
              "min7",
              "aug",
              "Maj7#11"
            ],
            "autoStart": false,
            "sourceChordNote": 0,
            "sourceChordType": "Maj",
            "ctb2Low": null,
            "ctb2Main": {
              "ntr": "ROOT_TRANSPOSITION",
              "ntt": "MELODIC_MINOR",
              "bassOn": false,
              "chordRootUpperLimit": 8,
              "noteLowLimit": 58,
              "noteHighLimit": 69,
              "rtr": "PITCH_SHIFT"
            },
            "ctb2High": null
          },
          "notes": [
            {
              "pitch": 57,
              "velocity": 94,
              "position": 0,
              "duration": 1.65625
            },
            {
              "pitch": 60,
              "velocity": 94,
              "position": 0,
              "duration": 1.65625
            },
            {
              "pitch": 64,
              "velocity": 94,
              "position": 0,
              "duration": 1.65625
            },
            {
              "pitch": 67,
              "velocity": 94,
              "position": 0,
              "duration": 1.65625
            },
            {
              "pitch": 57,
              "velocity": 94,
              "position": 1.6666666666666667,
              "duration": 0.28125
            },
            {
              "pitch": 60,
              "velocity": 94,
              "position": 1.6666666666666667,
              "duration": 0.28125
            },
            {
              "pitch": 64,
              "velocity": 94,
              "position": 1.6666666666666667,
              "duration": 0.28125
            },
            {
              "pitch": 67,
              "velocity": 94,
              "position": 1.6666666666666667,
              "duration": 0.28125
            }
          ]
        },
        "13": {
          "ctab": {
            "srcChannel": 13,
            "name": "Sax",
            "accType": "PAD",
            "editable": false,
            "mutedNotes": [],
            "mutedChords": [
              "1+2+5",
              "sus4",
              "1+5",
              "1+8",
              "7aug",
              "Maj7aug",
              "7(#9)",
              "7(b13)",
              "7(b9)",
              "7(13)",
              "7#11",
              "7(9)",
              "7b5",
              "7sus4",
              "7th",
              "dim7",
              "dim",
              "minMaj7(9)",
              "minMaj7",
              "min7(11)",
              "min7(9)",
              "m7b5",
              "min7",
              "aug",
              "Maj7#11"
            ],
            "autoStart": false,
            "sourceChordNote": 0,
            "sourceChordType": "Maj",
            "ctb2Low": null,
            "ctb2Main": {
              "ntr": "ROOT_TRANSPOSITION",
              "ntt": "MELODIC_MINOR",
              "bassOn": false,
              "chordRootUpperLimit": 8,
              "noteLowLimit": 0,
              "noteHighLimit": 127,
              "rtr": "PITCH_SHIFT"
            },
            "ctb2High": null
          },
          "notes": [
            {
              "pitch": 48,
              "velocity": 100,
              "position": 0.010416666666666666,
              "duration": 1.6458333333333333
            },
            {
              "pitch": 60,
              "velocity": 100,
              "position": 0.010416666666666666,
              "duration": 1.6458333333333333
            },
            {
              "pitch": 45,
              "velocity": 96,
              "position": 1.6666666666666667,
              "duration": 0.3854166666666667
            },
            {
              "pitch": 57,
              "velocity": 96,
              "position": 1.6666666666666667,
              "duration": 0.3854166666666667
            }
          ]
        },
        "14": {
          "ctab": {
            "srcChannel": 14,
            "name": "Brs",
            "accType": "PHRASE1",
            "editable": false,
            "mutedNotes": [],
            "mutedChords": [
              "1+2+5",
              "sus4",
              "1+5",
              "1+8",
              "7aug",
              "Maj7aug",
              "7(#9)",
              "7(b13)",
              "7(b9)",
              "7(13)",
              "7#11",
              "7(9)",
              "7b5",
              "7sus4",
              "7th",
              "dim7",
              "dim",
              "minMaj7(9)",
              "minMaj7",
              "min7(11)",
              "min7(9)",
              "m7b5",
              "min7",
              "aug",
              "Maj7#11"
            ],
            "autoStart": false,
            "sourceChordNote": 0,
            "sourceChordType": "Maj",
            "ctb2Low": null,
            "ctb2Main": {
              "ntr": "ROOT_TRANSPOSITION",
              "ntt": "MELODIC_MINOR",
              "bassOn": false,
              "chordRootUpperLimit": 11,
              "noteLowLimit": 0,
              "noteHighLimit": 127,
              "rtr": "PITCH_SHIFT"
            },
            "ctb2High": null
          },
          "notes": [
            {
              "pitch": 52,
              "velocity": 60,
              "position": 1,
              "duration": 0.65625
            },
            {
              "pitch": 64,
              "velocity": 60,
              "position": 1,
              "duration": 0.65625
            },
            {
              "pitch": 52,
              "velocity": 100,
              "position": 1.6666666666666667,
              "duration": 0.4895833333333333
            },
            {
              "pitch": 64,
              "velocity": 100,
              "position": 1.6666666666666667,
              "duration": 0.4895833333333333
            },
            {
              "pitch": 55,
              "velocity": 100,
              "position": 2.6666666666666665,
              "duration": 0.3229166666666667
            },
            {
              "pitch": 67,
              "velocity": 100,
              "position": 2.6666666666666665,
              "duration": 0.3229166666666667
            },
            {
              "pitch": 57,
              "velocity": 60,
              "position": 3,
              "duration": 0.3958333333333333
            },
            {
              "pitch": 69,
              "velocity": 60,
              "position": 3,
              "duration": 0.3958333333333333
            }
          ]
        },
        "15": {
          "ctab": {
            "srcChannel": 15,
            "name": "Tbn",
            "accType": "PHRASE2",
            "editable": false,
            "mutedNotes": [],
            "mutedChords": [
              "1+2+5",
              "sus4",
              "1+5",
              "1+8",
              "7aug",
              "Maj7aug",
              "7(#9)",
              "7(b13)",
              "7(b9)",
              "7(13)",
              "7#11",
              "7(9)",
              "7b5",
              "7sus4",
              "7th",
              "dim7",
              "dim",
              "minMaj7(9)",
              "minMaj7",
              "min7(11)",
              "min7(9)",
              "m7b5",
              "min7",
              "aug",
              "Maj7#11"
            ],
            "autoStart": false,
            "sourceChordNote": 0,
            "sourceChordType": "Maj",
            "ctb2Low": null,
            "ctb2Main": {
              "ntr": "ROOT_TRANSPOSITION",
              "ntt": "MELODIC_MINOR",
              "bassOn": false,
              "chordRootUpperLimit": 8,
              "noteLowLimit": 53,
              "noteHighLimit": 66,
              "rtr": "PITCH_SHIFT"
            },
            "ctb2High": null
          },
          "notes": [
            {
              "pitch": 55,
              "velocity": 100,
              "position": 0,
              "duration": 0.28125
            },
            {
              "pitch": 57,
              "velocity": 100,
              "position": 0,
              "duration": 0.28125
            },
            {
              "pitch": 60,
              "velocity": 100,
              "position": 0,
              "duration": 0.28125
            },
            {
              "pitch": 64,
              "velocity": 100,
              "position": 0,
              "duration": 0.28125
            },
            {
              "pitch": 55,
              "velocity": 100,
              "position": 1.6666666666666667,
              "duration": 0.28125
            },
            {
              "pitch": 57,
              "velocity": 100,
              "position": 1.6666666666666667,
              "duration": 0.28125
            },
            {
              "pitch": 60,
              "velocity": 100,
              "position": 1.6666666666666667,
              "duration": 0.28125
            },
            {
              "pitch": 64,
              "velocity": 100,
              "position": 1.6666666666666667,
              "duration": 0.28125
            }
          ]
        }
      }
    },
    "Fill_In_DD": {
      "type": "Fill_In_DD",
      "sizeInBeats": 4,
      "channels": {
        "0": {
          "ctab": {
            "srcChannel": 0,
            "name": "CC_Crash",
            "accType": "RHYTHM",
            "editable": false,
            "mutedNotes": [],
            "mutedChords": [
              "1+2+5",
              "sus4",
              "1+5",
              "1+8",
              "7aug",
              "Maj7aug",
              "7(#9)",
              "7(b13)",
              "7(b9)",
              "7(13)",
              "7#11",
              "7(9)",
              "7b5",
              "7sus4",
              "7th",
              "dim7",
              "dim",
              "minMaj7(9)",
              "minMaj7",
              "min7(11)",
              "min7(9)",
              "min(9)",
              "m7b5",
              "min7",
              "min6",
              "min",
              "aug",
              "Maj6(9)",
              "Maj7(9)",
              "Maj(9)",
              "Maj7#11",
              "Maj7",
              "Maj6",
              "Maj"
            ],
            "autoStart": true,
            "sourceChordNote": 0,
            "sourceChordType": "Maj",
            "ctb2Low": null,
            "ctb2Main": {
              "ntr": "ROOT_FIXED",
              "ntt": "BYPASS",
              "bassOn": false,
              "chordRootUpperLimit": 0,
              "noteLowLimit": 0,
              "noteHighLimit": 127,
              "rtr": "RETRIGGER"
            },
            "ctb2High": null
          },
          "notes": []
        },
        "1": {
          "ctab": {
            "srcChannel": 1,
            "name": "Bass",
            "accType": "BASS",
            "editable": false,
            "mutedNotes": [],
            "mutedChords": [
              "1+2+5",
              "sus4",
              "1+5",
              "1+8",
              "dim",
              "min(9)",
              "m7b5",
              "min6",
              "min",
              "aug",
              "Maj6(9)",
              "Maj7(9)",
              "Maj(9)",
              "Maj7",
              "Maj6",
              "Maj"
            ],
            "autoStart": false,
            "sourceChordNote": 0,
            "sourceChordType": "Maj7",
            "ctb2Low": null,
            "ctb2Main": {
              "ntr": "ROOT_TRANSPOSITION",
              "ntt": "MELODY",
              "bassOn": true,
              "chordRootUpperLimit": 8,
              "noteLowLimit": 28,
              "noteHighLimit": 127,
              "rtr": "PITCH_SHIFT_TO_ROOT"
            },
            "ctb2High": null
          },
          "notes": [
            {
              "pitch": 36,
              "velocity": 80,
              "position": 0,
              "duration": 0.8125
            },
            {
              "pitch": 31,
              "velocity": 80,
              "position": 1,
              "duration": 0.8125
            },
            {
              "pitch": 28,
              "velocity": 80,
              "position": 2,
              "duration": 0.8125
            },
            {
              "pitch": 31,
              "velocity": 80,
              "position": 3,
              "duration": 0.8125
            }
          ]
        },
        "2": {
          "ctab": {
            "srcChannel": 2,
            "name": "Gt",
            "accType": "CHORD1",
            "editable": false,
            "mutedNotes": [],
            "mutedChords": [
              "min(9)",
              "min6",
              "min",
              "Maj6(9)",
              "Maj7(9)",
              "Maj(9)",
              "Maj7",
              "Maj6",
              "Maj"
            ],
            "autoStart": false,
            "sourceChordNote": 0,
            "sourceChordType": "Maj7",
            "ctb2Low": null,
            "ctb2Main": {
              "ntr": "ROOT_FIXED",
              "ntt": "CHORD",
              "bassOn": false,
              "chordRootUpperLimit": 8,
              "noteLowLimit": 0,
              "noteHighLimit": 127,
              "rtr": "PITCH_SHIFT"
            },
            "ctb2High": null
          },
          "notes": [
            {
              "pitch": 55,
              "velocity": 80,
              "position": 0,
              "duration": 0.65625
            },
            {
              "pitch": 59,
              "velocity": 80,
              "position": 0,
              "duration": 0.65625
            },
            {
              "pitch": 64,
              "velocity": 80,
              "position": 0,
              "duration": 0.65625
            },
            {
              "pitch": 55,
              "velocity": 96,
              "position": 0.6666666666666666,
              "duration": 0.3229166666666667
            },
            {
              "pitch": 59,
              "velocity": 96,
              "position": 0.6666666666666666,
              "duration": 0.3229166666666667
            },
            {
              "pitch": 64,
              "velocity": 96,
              "position": 0.6666666666666666,
              "duration": 0.3229166666666667
            },
            {
              "pitch": 55,
              "velocity": 67,
              "position": 1,
              "duration": 0.40625
            },
            {
              "pitch": 59,
              "velocity": 67,
              "position": 1,
              "duration": 0.40625
            },
            {
              "pitch": 64,
              "velocity": 67,
              "position": 1,
              "duration": 0.40625
            },
            {
              "pitch": 55,
              "velocity": 96,
              "position": 2,
              "duration": 0.40625
            },
            {
              "pitch": 59,
              "velocity": 96,
              "position": 2,
              "duration": 0.40625
            },
            {
              "pitch": 64,
              "velocity": 96,
              "position": 2,
              "duration": 0.40625
            },
            {
              "pitch": 55,
              "velocity": 80,
              "position": 3,
              "duration": 0.65625
            },
            {
              "pitch": 59,
              "velocity": 80,
              "position": 3,
              "duration": 0.65625
            },
            {
              "pitch": 64,
              "velocity": 80,
              "position": 3,
              "duration": 0.65625
            },
            {
              "pitch": 55,
              "velocity": 67,
              "position": 3.6666666666666665,
              "duration": 0.3229166666666667
            },
            {
              "pitch": 59,
              "velocity": 67,
              "position": 3.6666666666666665,
              "duration": 0.3229166666666667
            },
            {
              "pitch": 64,
              "velocity": 67,
              "position": 3.6666666666666665,
              "duration": 0.3229166666666667
            }
          ]
        },
        "3": {
          "ctab": {
            "srcChannel": 3,
            "name": "Pno",
            "accType": "CHORD2",
            "editable": false,
            "mutedNotes": [],
            "mutedChords": [
              "min(9)",
              "min6",
              "min",
              "Maj6(9)",
              "Maj7(9)",
              "Maj(9)",
              "Maj7",
              "Maj6",
              "Maj"
            ],
            "autoStart": false,
            "sourceChordNote": 0,
            "sourceChordType": "Maj7",
            "ctb2Low": null,
            "ctb2Main": {
              "ntr": "ROOT_FIXED",
              "ntt": "CHORD",
              "bassOn": false,
              "chordRootUpperLimit": 8,
              "noteLowLimit": 0,
              "noteHighLimit": 127,
              "rtr": "PITCH_SHIFT"
            },
            "ctb2High": null
          },
          "notes": [
            {
              "pitch": 59,
              "velocity": 94,
              "position": 0,
              "duration": 1.65625
            },
            {
              "pitch": 64,
              "velocity": 94,
              "position": 0,
              "duration": 1.65625
            },
            {
              "pitch": 67,
              "velocity": 94,
              "position": 0,
              "duration": 1.65625
            },
            {
              "pitch": 59,
              "velocity": 94,
              "position": 1.6666666666666667,
              "duration": 0.28125
            },
            {
              "pitch": 64,
              "velocity": 94,
              "position": 1.6666666666666667,
              "duration": 0.28125
            },
            {
              "pitch": 67,
              "velocity": 94,
              "position": 1.6666666666666667,
              "duration": 0.28125
            }
          ]
        },
        "4": {
          "ctab": {
            "srcChannel": 4,
            "name": "Sax",
            "accType": "PAD",
            "editable": false,
            "mutedNotes": [],
            "mutedChords": [
              "min(9)",
              "min6",
              "min",
              "Maj6(9)",
              "Maj7(9)",
              "Maj(9)",
              "Maj7",
              "Maj6",
              "Maj"
            ],
            "autoStart": false,
            "sourceChordNote": 0,
            "sourceChordType": "Maj7",
            "ctb2Low": null,
            "ctb2Main": {
              "ntr": "ROOT_TRANSPOSITION",
              "ntt": "MELODY",
              "bassOn": false,
              "chordRootUpperLimit": 8,
              "noteLowLimit": 0,
              "noteHighLimit": 127,
              "rtr": "PITCH_SHIFT"
            },
            "ctb2High": null
          },
          "notes": [
            {
              "pitch": 52,
              "velocity": 102,
              "position": 0,
              "duration": 1.65625
            },
            {
              "pitch": 55,
              "velocity": 102,
              "position": 0,
              "duration": 1.65625
            },
            {
              "pitch": 59,
              "velocity": 102,
              "position": 0,
              "duration": 1.65625
            },
            {
              "pitch": 48,
              "velocity": 106,
              "position": 1.6666666666666667,
              "duration": 0.4375
            },
            {
              "pitch": 52,
              "velocity": 106,
              "position": 1.6666666666666667,
              "duration": 0.4375
            },
            {
              "pitch": 55,
              "velocity": 106,
              "position": 1.6666666666666667,
              "duration": 0.4375
            }
          ]
        },
        "5": {
          "ctab": {
            "srcChannel": 5,
            "name": "Brs",
            "accType": "PHRASE1",
            "editable": false,
            "mutedNotes": [],
            "mutedChords": [
              "min(9)",
              "min6",
              "min",
              "Maj6(9)",
              "Maj7(9)",
              "Maj(9)",
              "Maj7",
              "Maj6",
              "Maj"
            ],
            "autoStart": false,
            "sourceChordNote": 0,
            "sourceChordType": "Maj7",
            "ctb2Low": null,
            "ctb2Main": {
              "ntr": "ROOT_TRANSPOSITION",
              "ntt": "MELODY",
              "bassOn": false,
              "chordRootUpperLimit": 11,
              "noteLowLimit": 0,
              "noteHighLimit": 127,
              "rtr": "PITCH_SHIFT"
            },
            "ctb2High": null
          },
          "notes": [
            {
              "pitch": 52,
              "velocity": 100,
              "position": 1.6666666666666667,
              "duration": 0.3229166666666667
            },
            {
              "pitch": 64,
              "velocity": 100,
              "position": 1.6666666666666667,
              "duration": 0.3229166666666667
            },
            {
              "pitch": 52,
              "velocity": 60,
              "position": 2,
              "duration": 0.65625
            },
            {
              "pitch": 64,
              "velocity": 60,
              "position": 2,
              "duration": 0.65625
            },
            {
              "pitch": 55,
              "velocity": 100,
              "position": 2.6666666666666665,
              "duration": 0.34375
            },
            {
              "pitch": 67,
              "velocity": 100,
              "position": 2.6666666666666665,
              "duration": 0.34375
            },
            {
              "pitch": 59,
              "velocity": 60,
              "position": 3,
              "duration": 0.34375
            },
            {
              "pitch": 71,
              "velocity": 60,
              "position": 3,
              "duration": 0.34375
            }
          ]
        },
        "6": {
          "ctab": {
            "srcChannel": 6,
            "name": "Tbn",
            "accType": "PHRASE2",
            "editable": false,
            "mutedNotes": [],
            "mutedChords": [
              "min(9)",
              "min6",
              "min",
              "Maj6(9)",
              "Maj7(9)",
              "Maj(9)",
              "Maj7",
              "Maj6",
              "Maj"
            ],
            "autoStart": false,
            "sourceChordNote": 0,
            "sourceChordType": "Maj7",
            "ctb2Low": null,
            "ctb2Main": {
              "ntr": "ROOT_FIXED",
              "ntt": "CHORD",
              "bassOn": false,
              "chordRootUpperLimit": 8,
              "noteLowLimit": 0,
              "noteHighLimit": 127,
              "rtr": "PITCH_SHIFT"
            },
            "ctb2High": null
          },
          "notes": [
            {
              "pitch": 55,
              "velocity": 112,
              "position": 0,
              "duration": 0.28125
            },
            {
              "pitch": 59,
              "velocity": 112,
              "position": 0,
              "duration": 0.28125
            },
            {
              "pitch": 64,
              "velocity": 112,
              "position": 0,
              "duration": 0.28125
            },
            {
              "pitch": 55,
              "velocity": 112,
              "position": 1.6666666666666667,
              "duration": 0.28125
            },
            {
              "pitch": 59,
              "velocity": 112,
              "position": 1.6666666666666667,
              "duration": 0.28125
            },
            {
              "pitch": 64,
              "velocity": 112,
              "position": 1.6666666666666667,
              "duration": 0.28125
            }
          ]
        },
        "7": {
          "ctab": {
            "srcChannel": 7,
            "name": "Bass",
            "accType": "BASS",
            "editable": false,
            "mutedNotes": [],
            "mutedChords": [
              "7aug",
              "Maj7aug",
              "7(#9)",
              "7(b13)",
              "7(b9)",
              "7(13)",
              "7#11",
              "7(9)",
              "7b5",
              "7sus4",
              "7th",
              "dim7",
              "minMaj7(9)",
              "minMaj7",
              "min7(11)",
              "min7(9)",
              "min(9)",
              "min7",
              "min6",
              "min",
              "Maj6(9)",
              "Maj7(9)",
              "Maj(9)",
              "Maj7#11",
              "Maj7",
              "Maj6",
              "Maj"
            ],
            "autoStart": false,
            "sourceChordNote": 0,
            "sourceChordType": "Maj7",
            "ctb2Low": null,
            "ctb2Main": {
              "ntr": "ROOT_TRANSPOSITION",
              "ntt": "MELODY",
              "bassOn": true,
              "chordRootUpperLimit": 8,
              "noteLowLimit": 28,
              "noteHighLimit": 127,
              "rtr": "PITCH_SHIFT_TO_ROOT"
            },
            "ctb2High": null
          },
          "notes": [
            {
              "pitch": 31,
              "velocity": 80,
              "position": 0,
              "duration": 0.8125
            },
            {
              "pitch": 28,
              "velocity": 78,
              "position": 1,
              "duration": 0.8125
            },
            {
              "pitch": 24,
              "velocity": 80,
              "position": 2,
              "duration": 0.8125
            },
            {
              "pitch": 28,
              "velocity": 78,
              "position": 3,
              "duration": 0.8125
            }
          ]
        },
        "8": {
          "ctab": {
            "srcChannel": 8,
            "name": "Prc",
            "accType": "SUBRHYTHM",
            "editable": false,
            "mutedNotes": [],
            "mutedChords": [],
            "autoStart": true,
            "sourceChordNote": 0,
            "sourceChordType": "Maj7",
            "ctb2Low": null,
            "ctb2Main": {
              "ntr": "ROOT_FIXED",
              "ntt": "BYPASS",
              "bassOn": false,
              "chordRootUpperLimit": 6,
              "noteLowLimit": 0,
              "noteHighLimit": 127,
              "rtr": "PITCH_SHIFT"
            },
            "ctb2High": null
          },
          "notes": [
            {
              "pitch": 62,
              "velocity": 91,
              "position": 1,
              "duration": 0.010416666666666666
            },
            {
              "pitch": 64,
              "velocity": 22,
              "position": 3,
              "duration": 0.010416666666666666
            },
            {
              "pitch": 64,
              "velocity": 47,
              "position": 3.625,
              "duration": 0.010416666666666666
            }
          ]
        },
        "9": {
          "ctab": {
            "srcChannel": 9,
            "name": "Drs",
            "accType": "RHYTHM",
            "editable": false,
            "mutedNotes": [],
            "mutedChords": [],
            "autoStart": true,
            "sourceChordNote": 0,
            "sourceChordType": "Maj7",
            "ctb2Low": null,
            "ctb2Main": {
              "ntr": "ROOT_FIXED",
              "ntt": "BYPASS",
              "bassOn": false,
              "chordRootUpperLimit": 6,
              "noteLowLimit": 0,
              "noteHighLimit": 127,
              "rtr": "PITCH_SHIFT"
            },
            "ctb2High": null
          },
          "notes": [
            {
              "pitch": 35,
              "velocity": 74,
              "position": 0,
              "duration": 0.010416666666666666
            },
            {
              "pitch": 44,
              "velocity": 55,
              "position": 0,
              "duration": 0.010416666666666666
            },
            {
              "pitch": 57,
              "velocity": 63,
              "position": 0,
              "duration": 0.010416666666666666
            },
            {
              "pitch": 40,
              "velocity": 81,
              "position": 0.6666666666666666,
              "duration": 0.010416666666666666
            },
            {
              "pitch": 35,
              "velocity": 74,
              "position": 1,
              "duration": 0.010416666666666666
            },
            {
              "pitch": 44,
              "velocity": 65,
              "position": 1,
              "duration": 0.010416666666666666
            },
            {
              "pitch": 40,
              "velocity": 39,
              "position": 1.3333333333333333,
              "duration": 0.010416666666666666
            },
            {
              "pitch": 47,
              "velocity": 100,
              "position": 1.6666666666666667,
              "duration": 0.010416666666666666
            },
            {
              "pitch": 35,
              "velocity": 74,
              "position": 2,
              "duration": 0.010416666666666666
            },
            {
              "pitch": 44,
              "velocity": 55,
              "position": 2,
              "duration": 0.010416666666666666
            },
            {
              "pitch": 40,
              "velocity": 39,
              "position": 2.3333333333333335,
              "duration": 0.010416666666666666
            },
            {
              "pitch": 40,
              "velocity": 80,
              "position": 2.6666666666666665,
              "duration": 0.010416666666666666
            },
            {
              "pitch": 35,
              "velocity": 74,
              "position": 3,
              "duration": 0.010416666666666666
            },
            {
              "pitch": 40,
              "velocity": 81,
              "position": 3,
              "duration": 0.010416666666666666
            },
            {
              "pitch": 44,
              "velocity": 65,
              "position": 3,
              "duration": 0.010416666666666666
            },
            {
              "pitch": 40,
              "velocity": 39,
              "position": 3.3333333333333335,
              "duration": 0.010416666666666666
            }
          ]
        },
        "10": {
          "ctab": {
            "srcChannel": 10,
            "name": "Bass",
            "accType": "BASS",
            "editable": false,
            "mutedNotes": [],
            "mutedChords": [
              "1+2+5",
              "sus4",
              "1+5",
              "1+8",
              "7aug",
              "Maj7aug",
              "7(#9)",
              "7(b13)",
              "7(b9)",
              "7(13)",
              "7#11",
              "7(9)",
              "7b5",
              "7sus4",
              "7th",
              "dim7",
              "dim",
              "minMaj7(9)",
              "minMaj7",
              "min7(11)",
              "min7(9)",
              "m7b5",
              "min7",
              "aug",
              "Maj7#11"
            ],
            "autoStart": false,
            "sourceChordNote": 0,
            "sourceChordType": "Maj",
            "ctb2Low": null,
            "ctb2Main": {
              "ntr": "ROOT_TRANSPOSITION",
              "ntt": "MELODIC_MINOR",
              "bassOn": true,
              "chordRootUpperLimit": 8,
              "noteLowLimit": 28,
              "noteHighLimit": 127,
              "rtr": "PITCH_SHIFT_TO_ROOT"
            },
            "ctb2High": null
          },
          "notes": [
            {
              "pitch": 36,
              "velocity": 80,
              "position": 0,
              "duration": 0.8125
            },
            {
              "pitch": 33,
              "velocity": 80,
              "position": 1,
              "duration": 0.8125
            },
            {
              "pitch": 31,
              "velocity": 80,
              "position": 2,
              "duration": 0.8125
            },
            {
              "pitch": 28,
              "velocity": 80,
              "position": 3,
              "duration": 0.8125
            }
          ]
        },
        "11": {
          "ctab": {
            "srcChannel": 11,
            "name": "Gt",
            "accType": "CHORD1",
            "editable": false,
            "mutedNotes": [],
            "mutedChords": [
              "1+2+5",
              "sus4",
              "1+5",
              "1+8",
              "7aug",
              "Maj7aug",
              "7(#9)",
              "7(b13)",
              "7(b9)",
              "7(13)",
              "7#11",
              "7(9)",
              "7b5",
              "7sus4",
              "7th",
              "dim7",
              "dim",
              "minMaj7(9)",
              "minMaj7",
              "min7(11)",
              "min7(9)",
              "m7b5",
              "min7",
              "aug",
              "Maj7#11"
            ],
            "autoStart": false,
            "sourceChordNote": 0,
            "sourceChordType": "Maj",
            "ctb2Low": null,
            "ctb2Main": {
              "ntr": "ROOT_TRANSPOSITION",
              "ntt": "MELODIC_MINOR",
              "bassOn": false,
              "chordRootUpperLimit": 4,
              "noteLowLimit": 54,
              "noteHighLimit": 127,
              "rtr": "PITCH_SHIFT"
            },
            "ctb2High": null
          },
          "notes": [
            {
              "pitch": 57,
              "velocity": 80,
              "position": 0,
              "duration": 0.65625
            },
            {
              "pitch": 62,
              "velocity": 60,
              "position": 0,
              "duration": 0.65625
            },
            {
              "pitch": 67,
              "velocity": 80,
              "position": 0,
              "duration": 0.65625
            },
            {
              "pitch": 57,
              "velocity": 96,
              "position": 0.6666666666666666,
              "duration": 0.3229166666666667
            },
            {
              "pitch": 62,
              "velocity": 69,
              "position": 0.6666666666666666,
              "duration": 0.3229166666666667
            },
            {
              "pitch": 67,
              "velocity": 96,
              "position": 0.6666666666666666,
              "duration": 0.3229166666666667
            },
            {
              "pitch": 57,
              "velocity": 67,
              "position": 1,
              "duration": 0.40625
            },
            {
              "pitch": 62,
              "velocity": 50,
              "position": 1,
              "duration": 0.40625
            },
            {
              "pitch": 67,
              "velocity": 67,
              "position": 1,
              "duration": 0.40625
            },
            {
              "pitch": 57,
              "velocity": 96,
              "position": 2,
              "duration": 0.40625
            },
            {
              "pitch": 62,
              "velocity": 69,
              "position": 2,
              "duration": 0.40625
            },
            {
              "pitch": 67,
              "velocity": 96,
              "position": 2,
              "duration": 0.40625
            },
            {
              "pitch": 57,
              "velocity": 80,
              "position": 3,
              "duration": 0.65625
            },
            {
              "pitch": 62,
              "velocity": 60,
              "position": 3,
              "duration": 0.65625
            },
            {
              "pitch": 67,
              "velocity": 80,
              "position": 3,
              "duration": 0.65625
            },
            {
              "pitch": 57,
              "velocity": 67,
              "position": 3.6666666666666665,
              "duration": 0.3229166666666667
            },
            {
              "pitch": 62,
              "velocity": 50,
              "position": 3.6666666666666665,
              "duration": 0.3229166666666667
            },
            {
              "pitch": 67,
              "velocity": 67,
              "position": 3.6666666666666665,
              "duration": 0.3229166666666667
            }
          ]
        },
        "12": {
          "ctab": {
            "srcChannel": 12,
            "name": "Pno",
            "accType": "CHORD2",
            "editable": false,
            "mutedNotes": [],
            "mutedChords": [
              "1+2+5",
              "sus4",
              "1+5",
              "1+8",
              "7aug",
              "Maj7aug",
              "7(#9)",
              "7(b13)",
              "7(b9)",
              "7(13)",
              "7#11",
              "7(9)",
              "7b5",
              "7sus4",
              "7th",
              "dim7",
              "dim",
              "minMaj7(9)",
              "minMaj7",
              "min7(11)",
              "min7(9)",
              "m7b5",
              "min7",
              "aug",
              "Maj7#11"
            ],
            "autoStart": false,
            "sourceChordNote": 0,
            "sourceChordType": "Maj",
            "ctb2Low": null,
            "ctb2Main": {
              "ntr": "ROOT_TRANSPOSITION",
              "ntt": "MELODIC_MINOR",
              "bassOn": false,
              "chordRootUpperLimit": 8,
              "noteLowLimit": 58,
              "noteHighLimit": 69,
              "rtr": "PITCH_SHIFT"
            },
            "ctb2High": null
          },
          "notes": [
            {
              "pitch": 60,
              "velocity": 94,
              "position": 0,
              "duration": 1.65625
            },
            {
              "pitch": 64,
              "velocity": 94,
              "position": 0,
              "duration": 1.65625
            },
            {
              "pitch": 67,
              "velocity": 94,
              "position": 0,
              "duration": 1.65625
            },
            {
              "pitch": 69,
              "velocity": 94,
              "position": 0,
              "duration": 1.65625
            },
            {
              "pitch": 60,
              "velocity": 94,
              "position": 1.6666666666666667,
              "duration": 0.28125
            },
            {
              "pitch": 64,
              "velocity": 94,
              "position": 1.6666666666666667,
              "duration": 0.28125
            },
            {
              "pitch": 67,
              "velocity": 94,
              "position": 1.6666666666666667,
              "duration": 0.28125
            },
            {
              "pitch": 69,
              "velocity": 94,
              "position": 1.6666666666666667,
              "duration": 0.28125
            }
          ]
        },
        "13": {
          "ctab": {
            "srcChannel": 13,
            "name": "Sax",
            "accType": "PAD",
            "editable": false,
            "mutedNotes": [],
            "mutedChords": [
              "1+2+5",
              "sus4",
              "1+5",
              "1+8",
              "7aug",
              "Maj7aug",
              "7(#9)",
              "7(b13)",
              "7(b9)",
              "7(13)",
              "7#11",
              "7(9)",
              "7b5",
              "7sus4",
              "7th",
              "dim7",
              "dim",
              "minMaj7(9)",
              "minMaj7",
              "min7(11)",
              "min7(9)",
              "m7b5",
              "min7",
              "aug",
              "Maj7#11"
            ],
            "autoStart": false,
            "sourceChordNote": 0,
            "sourceChordType": "Maj",
            "ctb2Low": null,
            "ctb2Main": {
              "ntr": "ROOT_TRANSPOSITION",
              "ntt": "MELODIC_MINOR",
              "bassOn": false,
              "chordRootUpperLimit": 8,
              "noteLowLimit": 0,
              "noteHighLimit": 127,
              "rtr": "PITCH_SHIFT"
            },
            "ctb2High": null
          },
          "notes": [
            {
              "pitch": 52,
              "velocity": 98,
              "position": 0,
              "duration": 1.65625
            },
            {
              "pitch": 55,
              "velocity": 98,
              "position": 0,
              "duration": 1.65625
            },
            {
              "pitch": 57,
              "velocity": 98,
              "position": 0,
              "duration": 1.65625
            },
            {
              "pitch": 60,
              "velocity": 98,
              "position": 0,
              "duration": 1.65625
            },
            {
              "pitch": 48,
              "velocity": 107,
              "position": 1.6666666666666667,
              "duration": 0.4375
            },
            {
              "pitch": 52,
              "velocity": 107,
              "position": 1.6666666666666667,
              "duration": 0.4375
            },
            {
              "pitch": 55,
              "velocity": 107,
              "position": 1.6666666666666667,
              "duration": 0.4375
            },
            {
              "pitch": 57,
              "velocity": 107,
              "position": 1.6666666666666667,
              "duration": 0.4375
            }
          ]
        },
        "14": {
          "ctab": {
            "srcChannel": 14,
            "name": "Brs",
            "accType": "PHRASE1",
            "editable": false,
            "mutedNotes": [],
            "mutedChords": [
              "1+2+5",
              "sus4",
              "1+5",
              "1+8",
              "7aug",
              "Maj7aug",
              "7(#9)",
              "7(b13)",
              "7(b9)",
              "7(13)",
              "7#11",
              "7(9)",
              "7b5",
              "7sus4",
              "7th",
              "dim7",
              "dim",
              "minMaj7(9)",
              "minMaj7",
              "min7(11)",
              "min7(9)",
              "m7b5",
              "min7",
              "aug",
              "Maj7#11"
            ],
            "autoStart": false,
            "sourceChordNote": 0,
            "sourceChordType": "Maj",
            "ctb2Low": null,
            "ctb2Main": {
              "ntr": "ROOT_TRANSPOSITION",
              "ntt": "MELODIC_MINOR",
              "bassOn": false,
              "chordRootUpperLimit": 11,
              "noteLowLimit": 0,
              "noteHighLimit": 127,
              "rtr": "PITCH_SHIFT"
            },
            "ctb2High": null
          },
          "notes": [
            {
              "pitch": 52,
              "velocity": 100,
              "position": 1.6666666666666667,
              "duration": 0.3229166666666667
            },
            {
              "pitch": 64,
              "velocity": 100,
              "position": 1.6666666666666667,
              "duration": 0.3229166666666667
            },
            {
              "pitch": 52,
              "velocity": 60,
              "position": 2,
              "duration": 0.65625
            },
            {
              "pitch": 64,
              "velocity": 60,
              "position": 2,
              "duration": 0.65625
            },
            {
              "pitch": 55,
              "velocity": 100,
              "position": 2.6666666666666665,
              "duration": 0.3229166666666667
            },
            {
              "pitch": 67,
              "velocity": 100,
              "position": 2.6666666666666665,
              "duration": 0.3229166666666667
            },
            {
              "pitch": 57,
              "velocity": 60,
              "position": 3,
              "duration": 0.34375
            },
            {
              "pitch": 69,
              "velocity": 60,
              "position": 3,
              "duration": 0.34375
            }
          ]
        },
        "15": {
          "ctab": {
            "srcChannel": 15,
            "name": "Tbn",
            "accType": "PHRASE2",
            "editable": false,
            "mutedNotes": [],
            "mutedChords": [
              "1+2+5",
              "sus4",
              "1+5",
              "1+8",
              "7aug",
              "Maj7aug",
              "7(#9)",
              "7(b13)",
              "7(b9)",
              "7(13)",
              "7#11",
              "7(9)",
              "7b5",
              "7sus4",
              "7th",
              "dim7",
              "dim",
              "minMaj7(9)",
              "minMaj7",
              "min7(11)",
              "min7(9)",
              "m7b5",
              "min7",
              "aug",
              "Maj7#11"
            ],
            "autoStart": false,
            "sourceChordNote": 0,
            "sourceChordType": "Maj",
            "ctb2Low": null,
            "ctb2Main": {
              "ntr": "ROOT_TRANSPOSITION",
              "ntt": "MELODIC_MINOR",
              "bassOn": false,
              "chordRootUpperLimit": 8,
              "noteLowLimit": 53,
              "noteHighLimit": 66,
              "rtr": "PITCH_SHIFT"
            },
            "ctb2High": null
          },
          "notes": [
            {
              "pitch": 55,
              "velocity": 100,
              "position": 0,
              "duration": 0.28125
            },
            {
              "pitch": 57,
              "velocity": 100,
              "position": 0,
              "duration": 0.28125
            },
            {
              "pitch": 60,
              "velocity": 100,
              "position": 0,
              "duration": 0.28125
            },
            {
              "pitch": 64,
              "velocity": 100,
              "position": 0,
              "duration": 0.28125
            },
            {
              "pitch": 55,
              "velocity": 100,
              "position": 1.6666666666666667,
              "duration": 0.28125
            },
            {
              "pitch": 57,
              "velocity": 100,
              "position": 1.6666666666666667,
              "duration": 0.28125
            },
            {
              "pitch": 60,
              "velocity": 100,
              "position": 1.6666666666666667,
              "duration": 0.28125
            },
            {
              "pitch": 64,
              "velocity": 100,
              "position": 1.6666666666666667,
              "duration": 0.28125
            }
          ]
        }
      }
    },
    "Intro_B": {
      "type": "Intro_B",
      "sizeInBeats": 16,
      "channels": {
        "1": {
          "ctab": {
            "srcChannel": 1,
            "name": "Bass",
            "accType": "BASS",
            "editable": false,
            "mutedNotes": [],
            "mutedChords": [
              "1+2+5",
              "sus4",
              "1+5",
              "1+8",
              "7aug",
              "Maj7aug",
              "7(#9)",
              "7(b13)",
              "7(b9)",
              "7(13)",
              "7#11",
              "7(9)",
              "7b5",
              "7sus4",
              "7th",
              "aug",
              "Maj6(9)",
              "Maj7(9)",
              "Maj(9)",
              "Maj7#11",
              "Maj7",
              "Maj6",
              "Maj"
            ],
            "autoStart": false,
            "sourceChordNote": 0,
            "sourceChordType": "min",
            "ctb2Low": null,
            "ctb2Main": {
              "ntr": "ROOT_TRANSPOSITION",
              "ntt": "BYPASS",
              "bassOn": false,
              "chordRootUpperLimit": 8,
              "noteLowLimit": 28,
              "noteHighLimit": 127,
              "rtr": "PITCH_SHIFT"
            },
            "ctb2High": null
          },
          "notes": [
            {
              "pitch": 30,
              "velocity": 80,
              "position": 7.666666666666667,
              "duration": 0.3333333333333333
            },
            {
              "pitch": 27,
              "velocity": 80,
              "position": 8.666666666666666,
              "duration": 1
            },
            {
              "pitch": 29,
              "velocity": 80,
              "position": 10,
              "duration": 0.6666666666666666
            },
            {
              "pitch": 30,
              "velocity": 64,
              "position": 11,
              "duration": 0.6041666666666666
            },
            {
              "pitch": 30,
              "velocity": 80,
              "position": 11.666666666666666,
              "duration": 1.9895833333333333
            },
            {
              "pitch": 31,
              "velocity": 80,
              "position": 13.666666666666666,
              "duration": 2
            }
          ]
        },
        "2": {
          "ctab": {
            "srcChannel": 2,
            "name": "Gtr",
            "accType": "CHORD1",
            "editable": false,
            "mutedNotes": [],
            "mutedChords": [
              "1+2+5",
              "sus4",
              "1+5",
              "1+8",
              "7aug",
              "Maj7aug",
              "7(#9)",
              "7(b13)",
              "7(b9)",
              "7(13)",
              "7#11",
              "7(9)",
              "7b5",
              "7sus4",
              "7th",
              "aug",
              "Maj6(9)",
              "Maj7(9)",
              "Maj(9)",
              "Maj7#11",
              "Maj7",
              "Maj6",
              "Maj"
            ],
            "autoStart": false,
            "sourceChordNote": 0,
            "sourceChordType": "min",
            "ctb2Low": null,
            "ctb2Main": {
              "ntr": "ROOT_TRANSPOSITION",
              "ntt": "BYPASS",
              "bassOn": false,
              "chordRootUpperLimit": 5,
              "noteLowLimit": 57,
              "noteHighLimit": 68,
              "rtr": "PITCH_SHIFT"
            },
            "ctb2High": null
          },
          "notes": [
            {
              "pitch": 58,
              "velocity": 67,
              "position": 0,
              "duration": 0.40625
            },
            {
              "pitch": 63,
              "velocity": 67,
              "position": 0,
              "duration": 0.40625
            },
            {
              "pitch": 67,
              "velocity": 67,
              "position": 0,
              "duration": 0.40625
            },
            {
              "pitch": 58,
              "velocity": 80,
              "position": 1,
              "duration": 0.40625
            },
            {
              "pitch": 63,
              "velocity": 80,
              "position": 1,
              "duration": 0.40625
            },
            {
              "pitch": 67,
              "velocity": 80,
              "position": 1,
              "duration": 0.40625
            },
            {
              "pitch": 58,
              "velocity": 67,
              "position": 2,
              "duration": 0.40625
            },
            {
              "pitch": 63,
              "velocity": 67,
              "position": 2,
              "duration": 0.40625
            },
            {
              "pitch": 67,
              "velocity": 67,
              "position": 2,
              "duration": 0.40625
            },
            {
              "pitch": 58,
              "velocity": 80,
              "position": 3,
              "duration": 0.40625
            },
            {
              "pitch": 63,
              "velocity": 80,
              "position": 3,
              "duration": 0.40625
            },
            {
              "pitch": 67,
              "velocity": 80,
              "position": 3,
              "duration": 0.40625
            },
            {
              "pitch": 57,
              "velocity": 67,
              "position": 4,
              "duration": 0.40625
            },
            {
              "pitch": 63,
              "velocity": 67,
              "position": 4,
              "duration": 0.40625
            },
            {
              "pitch": 67,
              "velocity": 67,
              "position": 4,
              "duration": 0.40625
            },
            {
              "pitch": 57,
              "velocity": 80,
              "position": 5,
              "duration": 0.40625
            },
            {
              "pitch": 63,
              "velocity": 80,
              "position": 5,
              "duration": 0.40625
            },
            {
              "pitch": 67,
              "velocity": 80,
              "position": 5,
              "duration": 0.40625
            },
            {
              "pitch": 57,
              "velocity": 67,
              "position": 6,
              "duration": 0.40625
            },
            {
              "pitch": 63,
              "velocity": 67,
              "position": 6,
              "duration": 0.40625
            },
            {
              "pitch": 66,
              "velocity": 67,
              "position": 6,
              "duration": 0.40625
            },
            {
              "pitch": 57,
              "velocity": 80,
              "position": 7,
              "duration": 0.40625
            },
            {
              "pitch": 63,
              "velocity": 80,
              "position": 7,
              "duration": 0.40625
            },
            {
              "pitch": 66,
              "velocity": 80,
              "position": 7,
              "duration": 0.40625
            },
            {
              "pitch": 58,
              "velocity": 80,
              "position": 7.666666666666667,
              "duration": 0.40625
            },
            {
              "pitch": 63,
              "velocity": 80,
              "position": 7.666666666666667,
              "duration": 0.40625
            },
            {
              "pitch": 67,
              "velocity": 80,
              "position": 7.666666666666667,
              "duration": 0.40625
            },
            {
              "pitch": 55,
              "velocity": 80,
              "position": 8.666666666666666,
              "duration": 1.3229166666666667
            },
            {
              "pitch": 63,
              "velocity": 80,
              "position": 8.666666666666666,
              "duration": 1.3229166666666667
            },
            {
              "pitch": 57,
              "velocity": 80,
              "position": 10,
              "duration": 0.40625
            },
            {
              "pitch": 65,
              "velocity": 80,
              "position": 10,
              "duration": 0.40625
            },
            {
              "pitch": 58,
              "velocity": 67,
              "position": 11,
              "duration": 0.65625
            },
            {
              "pitch": 66,
              "velocity": 67,
              "position": 11,
              "duration": 0.65625
            },
            {
              "pitch": 59,
              "velocity": 80,
              "position": 11.666666666666666,
              "duration": 1.3229166666666667
            },
            {
              "pitch": 67,
              "velocity": 80,
              "position": 11.666666666666666,
              "duration": 1.3229166666666667
            },
            {
              "pitch": 53,
              "velocity": 67,
              "position": 13,
              "duration": 0.65625
            },
            {
              "pitch": 59,
              "velocity": 67,
              "position": 13,
              "duration": 0.65625
            },
            {
              "pitch": 63,
              "velocity": 67,
              "position": 13,
              "duration": 0.65625
            },
            {
              "pitch": 67,
              "velocity": 67,
              "position": 13,
              "duration": 0.65625
            },
            {
              "pitch": 53,
              "velocity": 80,
              "position": 13.666666666666666,
              "duration": 0.9895833333333334
            },
            {
              "pitch": 59,
              "velocity": 80,
              "position": 13.666666666666666,
              "duration": 0.9895833333333334
            },
            {
              "pitch": 63,
              "velocity": 80,
              "position": 13.666666666666666,
              "duration": 0.9895833333333334
            },
            {
              "pitch": 67,
              "velocity": 80,
              "position": 13.666666666666666,
              "duration": 0.9895833333333334
            },
            {
              "pitch": 53,
              "velocity": 67,
              "position": 14.666666666666666,
              "duration": 0.3229166666666667
            },
            {
              "pitch": 59,
              "velocity": 67,
              "position": 14.666666666666666,
              "duration": 0.3229166666666667
            },
            {
              "pitch": 63,
              "velocity": 67,
              "position": 14.666666666666666,
              "duration": 0.3229166666666667
            },
            {
              "pitch": 67,
              "velocity": 67,
              "position": 14.666666666666666,
              "duration": 0.3229166666666667
            },
            {
              "pitch": 53,
              "velocity": 80,
              "position": 15,
              "duration": 0.40625
            },
            {
              "pitch": 59,
              "velocity": 80,
              "position": 15,
              "duration": 0.40625
            },
            {
              "pitch": 63,
              "velocity": 80,
              "position": 15,
              "duration": 0.40625
            },
            {
              "pitch": 67,
              "velocity": 80,
              "position": 15,
              "duration": 0.40625
            }
          ]
        },
        "3": {
          "ctab": {
            "srcChannel": 3,
            "name": "Pno",
            "accType": "CHORD2",
            "editable": false,
            "mutedNotes": [],
            "mutedChords": [
              "1+2+5",
              "sus4",
              "1+5",
              "1+8",
              "7aug",
              "Maj7aug",
              "7(#9)",
              "7(b13)",
              "7(b9)",
              "7(13)",
              "7#11",
              "7(9)",
              "7b5",
              "7sus4",
              "7th",
              "aug",
              "Maj6(9)",
              "Maj7(9)",
              "Maj(9)",
              "Maj7#11",
              "Maj7",
              "Maj6",
              "Maj"
            ],
            "autoStart": false,
            "sourceChordNote": 0,
            "sourceChordType": "min",
            "ctb2Low": null,
            "ctb2Main": {
              "ntr": "ROOT_TRANSPOSITION",
              "ntt": "BYPASS",
              "bassOn": false,
              "chordRootUpperLimit": 6,
              "noteLowLimit": 0,
              "noteHighLimit": 79,
              "rtr": "PITCH_SHIFT"
            },
            "ctb2High": null
          },
          "notes": [
            {
              "pitch": 63,
              "velocity": 127,
              "position": 0,
              "duration": 0.2708333333333333
            },
            {
              "pitch": 67,
              "velocity": 127,
              "position": 0,
              "duration": 0.2708333333333333
            },
            {
              "pitch": 69,
              "velocity": 127,
              "position": 0,
              "duration": 0.2708333333333333
            },
            {
              "pitch": 72,
              "velocity": 127,
              "position": 0,
              "duration": 0.2708333333333333
            },
            {
              "pitch": 62,
              "velocity": 127,
              "position": 1.6666666666666667,
              "duration": 0.3229166666666667
            },
            {
              "pitch": 72,
              "velocity": 117,
              "position": 1.6666666666666667,
              "duration": 0.3229166666666667
            },
            {
              "pitch": 63,
              "velocity": 111,
              "position": 2,
              "duration": 0.65625
            },
            {
              "pitch": 67,
              "velocity": 124,
              "position": 2.6666666666666665,
              "duration": 0.3229166666666667
            },
            {
              "pitch": 69,
              "velocity": 111,
              "position": 3,
              "duration": 0.2708333333333333
            },
            {
              "pitch": 70,
              "velocity": 127,
              "position": 3.6666666666666665,
              "duration": 0.65625
            },
            {
              "pitch": 74,
              "velocity": 117,
              "position": 3.6666666666666665,
              "duration": 0.65625
            },
            {
              "pitch": 72,
              "velocity": 101,
              "position": 4.333333333333333,
              "duration": 0.10416666666666667
            },
            {
              "pitch": 70,
              "velocity": 101,
              "position": 4.5,
              "duration": 0.10416666666666667
            },
            {
              "pitch": 67,
              "velocity": 117,
              "position": 4.666666666666667,
              "duration": 0.2708333333333333
            },
            {
              "pitch": 69,
              "velocity": 127,
              "position": 5,
              "duration": 0.2708333333333333
            },
            {
              "pitch": 63,
              "velocity": 127,
              "position": 5.666666666666667,
              "duration": 0.3229166666666667
            },
            {
              "pitch": 62,
              "velocity": 111,
              "position": 6,
              "duration": 0.65625
            },
            {
              "pitch": 60,
              "velocity": 124,
              "position": 6.666666666666667,
              "duration": 0.3229166666666667
            },
            {
              "pitch": 57,
              "velocity": 111,
              "position": 7,
              "duration": 0.2708333333333333
            },
            {
              "pitch": 69,
              "velocity": 117,
              "position": 5.666666666666667,
              "duration": 1.6041666666666667
            },
            {
              "pitch": 55,
              "velocity": 127,
              "position": 7.666666666666667,
              "duration": 0.2708333333333333
            },
            {
              "pitch": 51,
              "velocity": 127,
              "position": 8.666666666666666,
              "duration": 1.3229166666666667
            },
            {
              "pitch": 67,
              "velocity": 117,
              "position": 8.666666666666666,
              "duration": 1.3229166666666667
            },
            {
              "pitch": 53,
              "velocity": 127,
              "position": 10,
              "duration": 0.2708333333333333
            },
            {
              "pitch": 69,
              "velocity": 117,
              "position": 10,
              "duration": 0.2708333333333333
            },
            {
              "pitch": 54,
              "velocity": 127,
              "position": 11,
              "duration": 0.65625
            },
            {
              "pitch": 70,
              "velocity": 117,
              "position": 11,
              "duration": 0.65625
            },
            {
              "pitch": 55,
              "velocity": 127,
              "position": 11.666666666666666,
              "duration": 1.9375
            },
            {
              "pitch": 71,
              "velocity": 117,
              "position": 11.666666666666666,
              "duration": 1.9375
            },
            {
              "pitch": 53,
              "velocity": 109,
              "position": 13.666666666666666,
              "duration": 1.9375
            },
            {
              "pitch": 59,
              "velocity": 109,
              "position": 13.666666666666666,
              "duration": 1.9375
            },
            {
              "pitch": 63,
              "velocity": 109,
              "position": 13.666666666666666,
              "duration": 1.9375
            }
          ]
        },
        "4": {
          "ctab": {
            "srcChannel": 4,
            "name": "Sax",
            "accType": "PAD",
            "editable": false,
            "mutedNotes": [],
            "mutedChords": [
              "1+2+5",
              "sus4",
              "1+5",
              "1+8",
              "7aug",
              "Maj7aug",
              "7(#9)",
              "7(b13)",
              "7(b9)",
              "7(13)",
              "7#11",
              "7(9)",
              "7b5",
              "7sus4",
              "7th",
              "aug",
              "Maj6(9)",
              "Maj7(9)",
              "Maj(9)",
              "Maj7#11",
              "Maj7",
              "Maj6",
              "Maj"
            ],
            "autoStart": false,
            "sourceChordNote": 0,
            "sourceChordType": "min",
            "ctb2Low": null,
            "ctb2Main": {
              "ntr": "ROOT_TRANSPOSITION",
              "ntt": "BYPASS",
              "bassOn": false,
              "chordRootUpperLimit": 7,
              "noteLowLimit": 36,
              "noteHighLimit": 72,
              "rtr": "PITCH_SHIFT"
            },
            "ctb2High": null
          },
          "notes": []
        },
        "5": {
          "ctab": {
            "srcChannel": 5,
            "name": "Brs",
            "accType": "PHRASE1",
            "editable": false,
            "mutedNotes": [],
            "mutedChords": [
              "1+2+5",
              "sus4",
              "1+5",
              "1+8",
              "7aug",
              "Maj7aug",
              "7(#9)",
              "7(b13)",
              "7(b9)",
              "7(13)",
              "7#11",
              "7(9)",
              "7b5",
              "7sus4",
              "7th",
              "aug",
              "Maj6(9)",
              "Maj7(9)",
              "Maj(9)",
              "Maj7#11",
              "Maj7",
              "Maj6",
              "Maj"
            ],
            "autoStart": false,
            "sourceChordNote": 0,
            "sourceChordType": "min",
            "ctb2Low": null,
            "ctb2Main": {
              "ntr": "ROOT_TRANSPOSITION",
              "ntt": "BYPASS",
              "bassOn": false,
              "chordRootUpperLimit": 1,
              "noteLowLimit": 36,
              "noteHighLimit": 82,
              "rtr": "PITCH_SHIFT"
            },
            "ctb2High": null
          },
          "notes": []
        },
        "6": {
          "ctab": {
            "srcChannel": 6,
            "name": "Tbn",
            "accType": "PHRASE2",
            "editable": false,
            "mutedNotes": [],
            "mutedChords": [
              "1+2+5",
              "sus4",
              "1+5",
              "1+8",
              "7aug",
              "Maj7aug",
              "7(#9)",
              "7(b13)",
              "7(b9)",
              "7(13)",
              "7#11",
              "7(9)",
              "7b5",
              "7sus4",
              "7th",
              "aug",
              "Maj6(9)",
              "Maj7(9)",
              "Maj(9)",
              "Maj7#11",
              "Maj7",
              "Maj6",
              "Maj"
            ],
            "autoStart": false,
            "sourceChordNote": 0,
            "sourceChordType": "min",
            "ctb2Low": null,
            "ctb2Main": {
              "ntr": "ROOT_TRANSPOSITION",
              "ntt": "BYPASS",
              "bassOn": false,
              "chordRootUpperLimit": 7,
              "noteLowLimit": 36,
              "noteHighLimit": 67,
              "rtr": "PITCH_SHIFT"
            },
            "ctb2High": null
          },
          "notes": []
        },
        "9": {
          "ctab": {
            "srcChannel": 9,
            "name": "Drs",
            "accType": "RHYTHM",
            "editable": false,
            "mutedNotes": [],
            "mutedChords": [],
            "autoStart": true,
            "sourceChordNote": 0,
            "sourceChordType": "Maj7",
            "ctb2Low": null,
            "ctb2Main": {
              "ntr": "ROOT_FIXED",
              "ntt": "BYPASS",
              "bassOn": false,
              "chordRootUpperLimit": 6,
              "noteLowLimit": 0,
              "noteHighLimit": 127,
              "rtr": "PITCH_SHIFT"
            },
            "ctb2High": null
          },
          "notes": [
            {
              "pitch": 25,
              "velocity": 50,
              "position": 0,
              "duration": 0.010416666666666666
            },
            {
              "pitch": 35,
              "velocity": 74,
              "position": 0,
              "duration": 0.010416666666666666
            },
            {
              "pitch": 26,
              "velocity": 31,
              "position": 0,
              "duration": 0.9895833333333334
            },
            {
              "pitch": 25,
              "velocity": 120,
              "position": 1,
              "duration": 0.010416666666666666
            },
            {
              "pitch": 44,
              "velocity": 60,
              "position": 1,
              "duration": 0.010416666666666666
            },
            {
              "pitch": 25,
              "velocity": 30,
              "position": 1.6666666666666667,
              "duration": 0.010416666666666666
            },
            {
              "pitch": 26,
              "velocity": 31,
              "position": 1,
              "duration": 0.9895833333333334
            },
            {
              "pitch": 25,
              "velocity": 50,
              "position": 2,
              "duration": 0.010416666666666666
            },
            {
              "pitch": 35,
              "velocity": 74,
              "position": 2,
              "duration": 0.010416666666666666
            },
            {
              "pitch": 26,
              "velocity": 31,
              "position": 2,
              "duration": 0.9895833333333334
            },
            {
              "pitch": 25,
              "velocity": 120,
              "position": 3,
              "duration": 0.010416666666666666
            },
            {
              "pitch": 44,
              "velocity": 60,
              "position": 3,
              "duration": 0.010416666666666666
            },
            {
              "pitch": 25,
              "velocity": 30,
              "position": 3.6666666666666665,
              "duration": 0.010416666666666666
            },
            {
              "pitch": 26,
              "velocity": 31,
              "position": 3,
              "duration": 0.9895833333333334
            },
            {
              "pitch": 25,
              "velocity": 50,
              "position": 4,
              "duration": 0.010416666666666666
            },
            {
              "pitch": 35,
              "velocity": 74,
              "position": 4,
              "duration": 0.010416666666666666
            },
            {
              "pitch": 26,
              "velocity": 31,
              "position": 4,
              "duration": 0.9895833333333334
            },
            {
              "pitch": 25,
              "velocity": 120,
              "position": 5,
              "duration": 0.010416666666666666
            },
            {
              "pitch": 44,
              "velocity": 60,
              "position": 5,
              "duration": 0.010416666666666666
            },
            {
              "pitch": 25,
              "velocity": 30,
              "position": 5.666666666666667,
              "duration": 0.010416666666666666
            },
            {
              "pitch": 26,
              "velocity": 31,
              "position": 5,
              "duration": 0.9895833333333334
            },
            {
              "pitch": 25,
              "velocity": 50,
              "position": 6,
              "duration": 0.010416666666666666
            },
            {
              "pitch": 35,
              "velocity": 74,
              "position": 6,
              "duration": 0.010416666666666666
            },
            {
              "pitch": 26,
              "velocity": 31,
              "position": 6,
              "duration": 0.9895833333333334
            },
            {
              "pitch": 25,
              "velocity": 120,
              "position": 7,
              "duration": 0.010416666666666666
            },
            {
              "pitch": 44,
              "velocity": 60,
              "position": 7,
              "duration": 0.010416666666666666
            },
            {
              "pitch": 25,
              "velocity": 30,
              "position": 7.666666666666667,
              "duration": 0.010416666666666666
            },
            {
              "pitch": 26,
              "velocity": 31,
              "position": 7,
              "duration": 0.9895833333333334
            },
            {
              "pitch": 25,
              "velocity": 50,
              "position": 8,
              "duration": 0.010416666666666666
            },
            {
              "pitch": 35,
              "velocity": 74,
              "position": 8,
              "duration": 0.010416666666666666
            },
            {
              "pitch": 25,
              "velocity": 30,
              "position": 8.333333333333334,
              "duration": 0.010416666666666666
            },
            {
              "pitch": 25,
              "velocity": 120,
              "position": 8.666666666666666,
              "duration": 0.010416666666666666
            },
            {
              "pitch": 26,
              "velocity": 31,
              "position": 8,
              "duration": 0.9895833333333334
            },
            {
              "pitch": 44,
              "velocity": 60,
              "position": 9,
              "duration": 0.010416666666666666
            },
            {
              "pitch": 25,
              "velocity": 20,
              "position": 9.333333333333334,
              "duration": 0.010416666666666666
            },
            {
              "pitch": 25,
              "velocity": 30,
              "position": 9.666666666666666,
              "duration": 0.010416666666666666
            },
            {
              "pitch": 26,
              "velocity": 31,
              "position": 9,
              "duration": 0.9895833333333334
            },
            {
              "pitch": 25,
              "velocity": 120,
              "position": 10,
              "duration": 0.010416666666666666
            },
            {
              "pitch": 35,
              "velocity": 74,
              "position": 10,
              "duration": 0.010416666666666666
            },
            {
              "pitch": 25,
              "velocity": 20,
              "position": 10.333333333333334,
              "duration": 0.010416666666666666
            },
            {
              "pitch": 25,
              "velocity": 30,
              "position": 10.666666666666666,
              "duration": 0.010416666666666666
            },
            {
              "pitch": 26,
              "velocity": 31,
              "position": 10,
              "duration": 0.9895833333333334
            },
            {
              "pitch": 25,
              "velocity": 70,
              "position": 11,
              "duration": 0.010416666666666666
            },
            {
              "pitch": 44,
              "velocity": 60,
              "position": 11,
              "duration": 0.010416666666666666
            },
            {
              "pitch": 25,
              "velocity": 120,
              "position": 11.666666666666666,
              "duration": 0.010416666666666666
            },
            {
              "pitch": 26,
              "velocity": 31,
              "position": 11,
              "duration": 0.9895833333333334
            },
            {
              "pitch": 25,
              "velocity": 50,
              "position": 12,
              "duration": 0.010416666666666666
            },
            {
              "pitch": 35,
              "velocity": 74,
              "position": 12,
              "duration": 0.010416666666666666
            },
            {
              "pitch": 26,
              "velocity": 31,
              "position": 12,
              "duration": 0.9895833333333334
            },
            {
              "pitch": 25,
              "velocity": 120,
              "position": 13,
              "duration": 0.010416666666666666
            },
            {
              "pitch": 44,
              "velocity": 60,
              "position": 13,
              "duration": 0.010416666666666666
            },
            {
              "pitch": 27,
              "velocity": 120,
              "position": 13.666666666666666,
              "duration": 0.010416666666666666
            },
            {
              "pitch": 26,
              "velocity": 31,
              "position": 13,
              "duration": 0.9895833333333334
            },
            {
              "pitch": 25,
              "velocity": 50,
              "position": 14,
              "duration": 0.010416666666666666
            },
            {
              "pitch": 35,
              "velocity": 74,
              "position": 14,
              "duration": 0.010416666666666666
            },
            {
              "pitch": 25,
              "velocity": 30,
              "position": 14.333333333333334,
              "duration": 0.010416666666666666
            },
            {
              "pitch": 27,
              "velocity": 50,
              "position": 14.666666666666666,
              "duration": 0.010416666666666666
            },
            {
              "pitch": 26,
              "velocity": 31,
              "position": 14,
              "duration": 0.9895833333333334
            },
            {
              "pitch": 25,
              "velocity": 120,
              "position": 15,
              "duration": 0.010416666666666666
            },
            {
              "pitch": 46,
              "velocity": 32,
              "position": 15,
              "duration": 0.010416666666666666
            },
            {
              "pitch": 25,
              "velocity": 30,
              "position": 15.666666666666666,
              "duration": 0.010416666666666666
            },
            {
              "pitch": 26,
              "velocity": 31,
              "position": 15,
              "duration": 0.9895833333333334
            }
          ]
        },
        "10": {
          "ctab": {
            "srcChannel": 10,
            "name": "Bass",
            "accType": "BASS",
            "editable": false,
            "mutedNotes": [],
            "mutedChords": [
              "dim7",
              "dim",
              "minMaj7(9)",
              "minMaj7",
              "min7(11)",
              "min7(9)",
              "min(9)",
              "m7b5",
              "min7",
              "min6",
              "min"
            ],
            "autoStart": false,
            "sourceChordNote": 0,
            "sourceChordType": "Maj",
            "ctb2Low": null,
            "ctb2Main": {
              "ntr": "ROOT_TRANSPOSITION",
              "ntt": "BYPASS",
              "bassOn": false,
              "chordRootUpperLimit": 8,
              "noteLowLimit": 28,
              "noteHighLimit": 127,
              "rtr": "PITCH_SHIFT"
            },
            "ctb2High": null
          },
          "notes": [
            {
              "pitch": 30,
              "velocity": 80,
              "position": 7.666666666666667,
              "duration": 0.3333333333333333
            },
            {
              "pitch": 28,
              "velocity": 80,
              "position": 8.666666666666666,
              "duration": 1
            },
            {
              "pitch": 29,
              "velocity": 80,
              "position": 10,
              "duration": 0.6666666666666666
            },
            {
              "pitch": 30,
              "velocity": 64,
              "position": 11,
              "duration": 0.6041666666666666
            },
            {
              "pitch": 30,
              "velocity": 80,
              "position": 11.666666666666666,
              "duration": 1.9895833333333333
            },
            {
              "pitch": 31,
              "velocity": 80,
              "position": 13.666666666666666,
              "duration": 2
            }
          ]
        },
        "11": {
          "ctab": {
            "srcChannel": 11,
            "name": "Gtr",
            "accType": "CHORD1",
            "editable": false,
            "mutedNotes": [],
            "mutedChords": [
              "dim7",
              "dim",
              "minMaj7(9)",
              "minMaj7",
              "min7(11)",
              "min7(9)",
              "min(9)",
              "m7b5",
              "min7",
              "min6",
              "min"
            ],
            "autoStart": false,
            "sourceChordNote": 0,
            "sourceChordType": "Maj",
            "ctb2Low": null,
            "ctb2Main": {
              "ntr": "ROOT_TRANSPOSITION",
              "ntt": "BYPASS",
              "bassOn": false,
              "chordRootUpperLimit": 5,
              "noteLowLimit": 57,
              "noteHighLimit": 68,
              "rtr": "PITCH_SHIFT"
            },
            "ctb2High": null
          },
          "notes": [
            {
              "pitch": 52,
              "velocity": 67,
              "position": 0,
              "duration": 0.40625
            },
            {
              "pitch": 57,
              "velocity": 67,
              "position": 0,
              "duration": 0.40625
            },
            {
              "pitch": 62,
              "velocity": 67,
              "position": 0,
              "duration": 0.40625
            },
            {
              "pitch": 67,
              "velocity": 67,
              "position": 0,
              "duration": 0.40625
            },
            {
              "pitch": 52,
              "velocity": 80,
              "position": 1,
              "duration": 0.40625
            },
            {
              "pitch": 57,
              "velocity": 80,
              "position": 1,
              "duration": 0.40625
            },
            {
              "pitch": 62,
              "velocity": 80,
              "position": 1,
              "duration": 0.40625
            },
            {
              "pitch": 67,
              "velocity": 80,
              "position": 1,
              "duration": 0.40625
            },
            {
              "pitch": 52,
              "velocity": 67,
              "position": 2,
              "duration": 0.40625
            },
            {
              "pitch": 58,
              "velocity": 67,
              "position": 2,
              "duration": 0.40625
            },
            {
              "pitch": 62,
              "velocity": 67,
              "position": 2,
              "duration": 0.40625
            },
            {
              "pitch": 67,
              "velocity": 67,
              "position": 2,
              "duration": 0.40625
            },
            {
              "pitch": 52,
              "velocity": 80,
              "position": 3,
              "duration": 0.40625
            },
            {
              "pitch": 58,
              "velocity": 80,
              "position": 3,
              "duration": 0.40625
            },
            {
              "pitch": 62,
              "velocity": 80,
              "position": 3,
              "duration": 0.40625
            },
            {
              "pitch": 67,
              "velocity": 80,
              "position": 3,
              "duration": 0.40625
            },
            {
              "pitch": 53,
              "velocity": 67,
              "position": 4,
              "duration": 0.40625
            },
            {
              "pitch": 57,
              "velocity": 67,
              "position": 4,
              "duration": 0.40625
            },
            {
              "pitch": 63,
              "velocity": 67,
              "position": 4,
              "duration": 0.40625
            },
            {
              "pitch": 67,
              "velocity": 67,
              "position": 4,
              "duration": 0.40625
            },
            {
              "pitch": 53,
              "velocity": 80,
              "position": 5,
              "duration": 0.40625
            },
            {
              "pitch": 57,
              "velocity": 80,
              "position": 5,
              "duration": 0.40625
            },
            {
              "pitch": 63,
              "velocity": 80,
              "position": 5,
              "duration": 0.40625
            },
            {
              "pitch": 67,
              "velocity": 80,
              "position": 5,
              "duration": 0.40625
            },
            {
              "pitch": 57,
              "velocity": 67,
              "position": 6,
              "duration": 0.40625
            },
            {
              "pitch": 63,
              "velocity": 67,
              "position": 6,
              "duration": 0.40625
            },
            {
              "pitch": 66,
              "velocity": 67,
              "position": 6,
              "duration": 0.40625
            },
            {
              "pitch": 57,
              "velocity": 80,
              "position": 7,
              "duration": 0.40625
            },
            {
              "pitch": 63,
              "velocity": 80,
              "position": 7,
              "duration": 0.40625
            },
            {
              "pitch": 66,
              "velocity": 80,
              "position": 7,
              "duration": 0.40625
            },
            {
              "pitch": 57,
              "velocity": 80,
              "position": 7.666666666666667,
              "duration": 0.40625
            },
            {
              "pitch": 60,
              "velocity": 80,
              "position": 7.666666666666667,
              "duration": 0.40625
            },
            {
              "pitch": 64,
              "velocity": 80,
              "position": 7.666666666666667,
              "duration": 0.40625
            },
            {
              "pitch": 67,
              "velocity": 80,
              "position": 7.666666666666667,
              "duration": 0.40625
            },
            {
              "pitch": 55,
              "velocity": 80,
              "position": 8.666666666666666,
              "duration": 1.3229166666666667
            },
            {
              "pitch": 64,
              "velocity": 80,
              "position": 8.666666666666666,
              "duration": 1.3229166666666667
            },
            {
              "pitch": 57,
              "velocity": 80,
              "position": 10,
              "duration": 0.40625
            },
            {
              "pitch": 65,
              "velocity": 80,
              "position": 10,
              "duration": 0.40625
            },
            {
              "pitch": 58,
              "velocity": 67,
              "position": 11,
              "duration": 0.65625
            },
            {
              "pitch": 66,
              "velocity": 67,
              "position": 11,
              "duration": 0.65625
            },
            {
              "pitch": 59,
              "velocity": 80,
              "position": 11.666666666666666,
              "duration": 1.3229166666666667
            },
            {
              "pitch": 67,
              "velocity": 80,
              "position": 11.666666666666666,
              "duration": 1.3229166666666667
            },
            {
              "pitch": 53,
              "velocity": 67,
              "position": 13,
              "duration": 0.65625
            },
            {
              "pitch": 59,
              "velocity": 67,
              "position": 13,
              "duration": 0.65625
            },
            {
              "pitch": 64,
              "velocity": 67,
              "position": 13,
              "duration": 0.65625
            },
            {
              "pitch": 67,
              "velocity": 67,
              "position": 13,
              "duration": 0.65625
            },
            {
              "pitch": 53,
              "velocity": 80,
              "position": 13.666666666666666,
              "duration": 0.9895833333333334
            },
            {
              "pitch": 59,
              "velocity": 80,
              "position": 13.666666666666666,
              "duration": 0.9895833333333334
            },
            {
              "pitch": 64,
              "velocity": 80,
              "position": 13.666666666666666,
              "duration": 0.9895833333333334
            },
            {
              "pitch": 67,
              "velocity": 80,
              "position": 13.666666666666666,
              "duration": 0.9895833333333334
            },
            {
              "pitch": 53,
              "velocity": 67,
              "position": 14.666666666666666,
              "duration": 0.3229166666666667
            },
            {
              "pitch": 59,
              "velocity": 67,
              "position": 14.666666666666666,
              "duration": 0.3229166666666667
            },
            {
              "pitch": 64,
              "velocity": 67,
              "position": 14.666666666666666,
              "duration": 0.3229166666666667
            },
            {
              "pitch": 67,
              "velocity": 67,
              "position": 14.666666666666666,
              "duration": 0.3229166666666667
            },
            {
              "pitch": 53,
              "velocity": 80,
              "position": 15,
              "duration": 0.40625
            },
            {
              "pitch": 59,
              "velocity": 80,
              "position": 15,
              "duration": 0.40625
            },
            {
              "pitch": 64,
              "velocity": 80,
              "position": 15,
              "duration": 0.40625
            },
            {
              "pitch": 67,
              "velocity": 80,
              "position": 15,
              "duration": 0.40625
            }
          ]
        },
        "12": {
          "ctab": {
            "srcChannel": 12,
            "name": "Pno",
            "accType": "CHORD2",
            "editable": false,
            "mutedNotes": [],
            "mutedChords": [
              "dim7",
              "dim",
              "minMaj7(9)",
              "minMaj7",
              "min7(11)",
              "min7(9)",
              "min(9)",
              "m7b5",
              "min7",
              "min6",
              "min"
            ],
            "autoStart": false,
            "sourceChordNote": 0,
            "sourceChordType": "Maj",
            "ctb2Low": null,
            "ctb2Main": {
              "ntr": "ROOT_TRANSPOSITION",
              "ntt": "BYPASS",
              "bassOn": false,
              "chordRootUpperLimit": 6,
              "noteLowLimit": 0,
              "noteHighLimit": 79,
              "rtr": "PITCH_SHIFT"
            },
            "ctb2High": null
          },
          "notes": [
            {
              "pitch": 64,
              "velocity": 127,
              "position": 0,
              "duration": 0.2708333333333333
            },
            {
              "pitch": 67,
              "velocity": 127,
              "position": 0,
              "duration": 0.2708333333333333
            },
            {
              "pitch": 69,
              "velocity": 127,
              "position": 0,
              "duration": 0.2708333333333333
            },
            {
              "pitch": 72,
              "velocity": 127,
              "position": 0,
              "duration": 0.2708333333333333
            },
            {
              "pitch": 63,
              "velocity": 127,
              "position": 1.6666666666666667,
              "duration": 0.3229166666666667
            },
            {
              "pitch": 72,
              "velocity": 117,
              "position": 1.6666666666666667,
              "duration": 0.3229166666666667
            },
            {
              "pitch": 64,
              "velocity": 111,
              "position": 2,
              "duration": 0.65625
            },
            {
              "pitch": 67,
              "velocity": 124,
              "position": 2.6666666666666665,
              "duration": 0.3229166666666667
            },
            {
              "pitch": 69,
              "velocity": 111,
              "position": 3,
              "duration": 0.2708333333333333
            },
            {
              "pitch": 70,
              "velocity": 127,
              "position": 3.6666666666666665,
              "duration": 0.65625
            },
            {
              "pitch": 74,
              "velocity": 117,
              "position": 3.6666666666666665,
              "duration": 0.65625
            },
            {
              "pitch": 72,
              "velocity": 101,
              "position": 4.333333333333333,
              "duration": 0.10416666666666667
            },
            {
              "pitch": 70,
              "velocity": 101,
              "position": 4.5,
              "duration": 0.10416666666666667
            },
            {
              "pitch": 67,
              "velocity": 117,
              "position": 4.666666666666667,
              "duration": 0.2708333333333333
            },
            {
              "pitch": 69,
              "velocity": 127,
              "position": 5,
              "duration": 0.2708333333333333
            },
            {
              "pitch": 63,
              "velocity": 127,
              "position": 5.666666666666667,
              "duration": 0.3229166666666667
            },
            {
              "pitch": 62,
              "velocity": 111,
              "position": 6,
              "duration": 0.65625
            },
            {
              "pitch": 60,
              "velocity": 124,
              "position": 6.666666666666667,
              "duration": 0.3229166666666667
            },
            {
              "pitch": 57,
              "velocity": 111,
              "position": 7,
              "duration": 0.2708333333333333
            },
            {
              "pitch": 69,
              "velocity": 117,
              "position": 5.666666666666667,
              "duration": 1.6041666666666667
            },
            {
              "pitch": 55,
              "velocity": 127,
              "position": 7.666666666666667,
              "duration": 0.2708333333333333
            },
            {
              "pitch": 52,
              "velocity": 127,
              "position": 8.666666666666666,
              "duration": 1.3229166666666667
            },
            {
              "pitch": 67,
              "velocity": 117,
              "position": 8.666666666666666,
              "duration": 1.3229166666666667
            },
            {
              "pitch": 53,
              "velocity": 127,
              "position": 10,
              "duration": 0.2708333333333333
            },
            {
              "pitch": 69,
              "velocity": 117,
              "position": 10,
              "duration": 0.2708333333333333
            },
            {
              "pitch": 54,
              "velocity": 127,
              "position": 11,
              "duration": 0.65625
            },
            {
              "pitch": 70,
              "velocity": 117,
              "position": 11,
              "duration": 0.65625
            },
            {
              "pitch": 55,
              "velocity": 127,
              "position": 11.666666666666666,
              "duration": 1.9895833333333333
            },
            {
              "pitch": 71,
              "velocity": 117,
              "position": 11.666666666666666,
              "duration": 1.9895833333333333
            },
            {
              "pitch": 53,
              "velocity": 109,
              "position": 13.666666666666666,
              "duration": 1.9375
            },
            {
              "pitch": 59,
              "velocity": 109,
              "position": 13.666666666666666,
              "duration": 1.9375
            },
            {
              "pitch": 64,
              "velocity": 109,
              "position": 13.666666666666666,
              "duration": 1.9375
            }
          ]
        },
        "13": {
          "ctab": {
            "srcChannel": 13,
            "name": "Sax",
            "accType": "PAD",
            "editable": false,
            "mutedNotes": [],
            "mutedChords": [
              "dim7",
              "dim",
              "minMaj7(9)",
              "minMaj7",
              "min7(11)",
              "min7(9)",
              "min(9)",
              "m7b5",
              "min7",
              "min6",
              "min"
            ],
            "autoStart": false,
            "sourceChordNote": 0,
            "sourceChordType": "Maj",
            "ctb2Low": null,
            "ctb2Main": {
              "ntr": "ROOT_TRANSPOSITION",
              "ntt": "BYPASS",
              "bassOn": false,
              "chordRootUpperLimit": 7,
              "noteLowLimit": 36,
              "noteHighLimit": 72,
              "rtr": "PITCH_SHIFT"
            },
            "ctb2High": null
          },
          "notes": []
        },
        "14": {
          "ctab": {
            "srcChannel": 14,
            "name": "Brs",
            "accType": "PHRASE1",
            "editable": false,
            "mutedNotes": [],
            "mutedChords": [
              "dim7",
              "dim",
              "minMaj7(9)",
              "minMaj7",
              "min7(11)",
              "min7(9)",
              "min(9)",
              "m7b5",
              "min7",
              "min6",
              "min"
            ],
            "autoStart": false,
            "sourceChordNote": 0,
            "sourceChordType": "Maj",
            "ctb2Low": null,
            "ctb2Main": {
              "ntr": "ROOT_TRANSPOSITION",
              "ntt": "BYPASS",
              "bassOn": false,
              "chordRootUpperLimit": 1,
              "noteLowLimit": 36,
              "noteHighLimit": 82,
              "rtr": "PITCH_SHIFT"
            },
            "ctb2High": null
          },
          "notes": []
        },
        "15": {
          "ctab": {
            "srcChannel": 15,
            "name": "Tbn",
            "accType": "PHRASE2",
            "editable": false,
            "mutedNotes": [],
            "mutedChords": [
              "dim7",
              "dim",
              "minMaj7(9)",
              "minMaj7",
              "min7(11)",
              "min7(9)",
              "min(9)",
              "m7b5",
              "min7",
              "min6",
              "min"
            ],
            "autoStart": false,
            "sourceChordNote": 0,
            "sourceChordType": "Maj",
            "ctb2Low": null,
            "ctb2Main": {
              "ntr": "ROOT_TRANSPOSITION",
              "ntt": "BYPASS",
              "bassOn": false,
              "chordRootUpperLimit": 7,
              "noteLowLimit": 36,
              "noteHighLimit": 67,
              "rtr": "PITCH_SHIFT"
            },
            "ctb2High": null
          },
          "notes": []
        }
      }
    },
    "Intro_C": {
      "type": "Intro_C",
      "sizeInBeats": 16,
      "channels": {
        "1": {
          "ctab": {
            "srcChannel": 1,
            "name": "Bass",
            "accType": "BASS",
            "editable": false,
            "mutedNotes": [],
            "mutedChords": [
              "1+2+5",
              "sus4",
              "1+5",
              "1+8",
              "7aug",
              "Maj7aug",
              "7(#9)",
              "7(b13)",
              "7(b9)",
              "7(13)",
              "7#11",
              "7(9)",
              "7b5",
              "7sus4",
              "7th",
              "aug",
              "Maj6(9)",
              "Maj7(9)",
              "Maj(9)",
              "Maj7#11",
              "Maj7",
              "Maj6",
              "Maj"
            ],
            "autoStart": false,
            "sourceChordNote": 0,
            "sourceChordType": "min",
            "ctb2Low": null,
            "ctb2Main": {
              "ntr": "ROOT_TRANSPOSITION",
              "ntt": "BYPASS",
              "bassOn": false,
              "chordRootUpperLimit": 8,
              "noteLowLimit": 28,
              "noteHighLimit": 127,
              "rtr": "PITCH_SHIFT"
            },
            "ctb2High": null
          },
          "notes": [
            {
              "pitch": 43,
              "velocity": 80,
              "position": 0,
              "duration": 0.40625
            },
            {
              "pitch": 31,
              "velocity": 78,
              "position": 0.6666666666666666,
              "duration": 1.1979166666666667
            },
            {
              "pitch": 31,
              "velocity": 80,
              "position": 2,
              "duration": 1.9895833333333333
            },
            {
              "pitch": 31,
              "velocity": 116,
              "position": 4,
              "duration": 0.125
            },
            {
              "pitch": 31,
              "velocity": 78,
              "position": 4.666666666666667,
              "duration": 1.1979166666666667
            },
            {
              "pitch": 31,
              "velocity": 80,
              "position": 6,
              "duration": 2.46875
            },
            {
              "pitch": 31,
              "velocity": 80,
              "position": 8.666666666666666,
              "duration": 1.1354166666666667
            },
            {
              "pitch": 30,
              "velocity": 80,
              "position": 10,
              "duration": 0.8020833333333334
            },
            {
              "pitch": 29,
              "velocity": 80,
              "position": 11,
              "duration": 0.8020833333333334
            },
            {
              "pitch": 28,
              "velocity": 80,
              "position": 12,
              "duration": 0.8020833333333334
            },
            {
              "pitch": 27,
              "velocity": 80,
              "position": 13,
              "duration": 0.8020833333333334
            },
            {
              "pitch": 26,
              "velocity": 80,
              "position": 14,
              "duration": 0.8020833333333334
            },
            {
              "pitch": 25,
              "velocity": 80,
              "position": 15,
              "duration": 0.8020833333333334
            }
          ]
        },
        "2": {
          "ctab": {
            "srcChannel": 2,
            "name": "Gtr",
            "accType": "CHORD1",
            "editable": false,
            "mutedNotes": [],
            "mutedChords": [
              "1+2+5",
              "sus4",
              "1+5",
              "1+8",
              "7aug",
              "Maj7aug",
              "7(#9)",
              "7(b13)",
              "7(b9)",
              "7(13)",
              "7#11",
              "7(9)",
              "7b5",
              "7sus4",
              "7th",
              "aug",
              "Maj6(9)",
              "Maj7(9)",
              "Maj(9)",
              "Maj7#11",
              "Maj7",
              "Maj6",
              "Maj"
            ],
            "autoStart": false,
            "sourceChordNote": 0,
            "sourceChordType": "min",
            "ctb2Low": null,
            "ctb2Main": {
              "ntr": "ROOT_TRANSPOSITION",
              "ntt": "BYPASS",
              "bassOn": false,
              "chordRootUpperLimit": 5,
              "noteLowLimit": 57,
              "noteHighLimit": 68,
              "rtr": "PITCH_SHIFT"
            },
            "ctb2High": null
          },
          "notes": []
        },
        "3": {
          "ctab": {
            "srcChannel": 3,
            "name": "Pno",
            "accType": "CHORD2",
            "editable": false,
            "mutedNotes": [],
            "mutedChords": [
              "1+2+5",
              "sus4",
              "1+5",
              "1+8",
              "7aug",
              "Maj7aug",
              "7(#9)",
              "7(b13)",
              "7(b9)",
              "7(13)",
              "7#11",
              "7(9)",
              "7b5",
              "7sus4",
              "7th",
              "aug",
              "Maj6(9)",
              "Maj7(9)",
              "Maj(9)",
              "Maj7#11",
              "Maj7",
              "Maj6",
              "Maj"
            ],
            "autoStart": false,
            "sourceChordNote": 0,
            "sourceChordType": "min",
            "ctb2Low": null,
            "ctb2Main": {
              "ntr": "ROOT_TRANSPOSITION",
              "ntt": "BYPASS",
              "bassOn": false,
              "chordRootUpperLimit": 6,
              "noteLowLimit": 0,
              "noteHighLimit": 79,
              "rtr": "PITCH_SHIFT"
            },
            "ctb2High": null
          },
          "notes": []
        },
        "4": {
          "ctab": {
            "srcChannel": 4,
            "name": "Sax",
            "accType": "PAD",
            "editable": false,
            "mutedNotes": [],
            "mutedChords": [
              "1+2+5",
              "sus4",
              "1+5",
              "1+8",
              "7aug",
              "Maj7aug",
              "7(#9)",
              "7(b13)",
              "7(b9)",
              "7(13)",
              "7#11",
              "7(9)",
              "7b5",
              "7sus4",
              "7th",
              "aug",
              "Maj6(9)",
              "Maj7(9)",
              "Maj(9)",
              "Maj7#11",
              "Maj7",
              "Maj6",
              "Maj"
            ],
            "autoStart": false,
            "sourceChordNote": 0,
            "sourceChordType": "min",
            "ctb2Low": null,
            "ctb2Main": {
              "ntr": "ROOT_TRANSPOSITION",
              "ntt": "BYPASS",
              "bassOn": false,
              "chordRootUpperLimit": 7,
              "noteLowLimit": 36,
              "noteHighLimit": 72,
              "rtr": "PITCH_SHIFT"
            },
            "ctb2High": null
          },
          "notes": [
            {
              "pitch": 74,
              "velocity": 120,
              "position": 0,
              "duration": 0.3229166666666667
            },
            {
              "pitch": 77,
              "velocity": 120,
              "position": 0,
              "duration": 0.3229166666666667
            },
            {
              "pitch": 79,
              "velocity": 120,
              "position": 0,
              "duration": 0.3229166666666667
            },
            {
              "pitch": 83,
              "velocity": 120,
              "position": 0,
              "duration": 0.3229166666666667
            },
            {
              "pitch": 31,
              "velocity": 104,
              "position": 0.6666666666666666,
              "duration": 0.3541666666666667
            },
            {
              "pitch": 74,
              "velocity": 114,
              "position": 2.6666666666666665,
              "duration": 0.3229166666666667
            },
            {
              "pitch": 77,
              "velocity": 114,
              "position": 2.6666666666666665,
              "duration": 0.3229166666666667
            },
            {
              "pitch": 79,
              "velocity": 114,
              "position": 2.6666666666666665,
              "duration": 0.3229166666666667
            },
            {
              "pitch": 83,
              "velocity": 114,
              "position": 2.6666666666666665,
              "duration": 0.3229166666666667
            },
            {
              "pitch": 31,
              "velocity": 104,
              "position": 2,
              "duration": 1.9895833333333333
            },
            {
              "pitch": 72,
              "velocity": 120,
              "position": 4,
              "duration": 0.3229166666666667
            },
            {
              "pitch": 77,
              "velocity": 120,
              "position": 4,
              "duration": 0.3229166666666667
            },
            {
              "pitch": 79,
              "velocity": 120,
              "position": 4,
              "duration": 0.3229166666666667
            },
            {
              "pitch": 81,
              "velocity": 120,
              "position": 4,
              "duration": 0.3229166666666667
            },
            {
              "pitch": 31,
              "velocity": 104,
              "position": 4.666666666666667,
              "duration": 0.3541666666666667
            },
            {
              "pitch": 72,
              "velocity": 114,
              "position": 6.666666666666667,
              "duration": 0.3229166666666667
            },
            {
              "pitch": 77,
              "velocity": 114,
              "position": 6.666666666666667,
              "duration": 0.3229166666666667
            },
            {
              "pitch": 79,
              "velocity": 114,
              "position": 6.666666666666667,
              "duration": 0.3229166666666667
            },
            {
              "pitch": 81,
              "velocity": 114,
              "position": 6.666666666666667,
              "duration": 0.3229166666666667
            },
            {
              "pitch": 31,
              "velocity": 104,
              "position": 6,
              "duration": 1.9895833333333333
            },
            {
              "pitch": 74,
              "velocity": 120,
              "position": 8,
              "duration": 0.3229166666666667
            },
            {
              "pitch": 77,
              "velocity": 120,
              "position": 8,
              "duration": 0.3229166666666667
            },
            {
              "pitch": 79,
              "velocity": 120,
              "position": 8,
              "duration": 0.3229166666666667
            },
            {
              "pitch": 83,
              "velocity": 120,
              "position": 8,
              "duration": 0.3229166666666667
            },
            {
              "pitch": 71,
              "velocity": 106,
              "position": 8.666666666666666,
              "duration": 1.3229166666666667
            },
            {
              "pitch": 79,
              "velocity": 106,
              "position": 8.666666666666666,
              "duration": 1.3229166666666667
            },
            {
              "pitch": 70,
              "velocity": 120,
              "position": 10,
              "duration": 0.3229166666666667
            },
            {
              "pitch": 78,
              "velocity": 120,
              "position": 10,
              "duration": 0.3229166666666667
            },
            {
              "pitch": 67,
              "velocity": 110,
              "position": 11,
              "duration": 0.3229166666666667
            },
            {
              "pitch": 71,
              "velocity": 110,
              "position": 11,
              "duration": 0.3229166666666667
            },
            {
              "pitch": 77,
              "velocity": 110,
              "position": 11,
              "duration": 0.3229166666666667
            },
            {
              "pitch": 66,
              "velocity": 120,
              "position": 12,
              "duration": 0.3229166666666667
            },
            {
              "pitch": 68,
              "velocity": 120,
              "position": 12,
              "duration": 0.3229166666666667
            },
            {
              "pitch": 72,
              "velocity": 120,
              "position": 12,
              "duration": 0.3229166666666667
            },
            {
              "pitch": 76,
              "velocity": 120,
              "position": 12,
              "duration": 0.3229166666666667
            },
            {
              "pitch": 67,
              "velocity": 110,
              "position": 13,
              "duration": 0.3229166666666667
            },
            {
              "pitch": 69,
              "velocity": 110,
              "position": 13,
              "duration": 0.3229166666666667
            },
            {
              "pitch": 73,
              "velocity": 110,
              "position": 13,
              "duration": 0.3229166666666667
            },
            {
              "pitch": 75,
              "velocity": 110,
              "position": 13,
              "duration": 0.3229166666666667
            },
            {
              "pitch": 67,
              "velocity": 120,
              "position": 14,
              "duration": 0.65625
            },
            {
              "pitch": 70,
              "velocity": 120,
              "position": 14,
              "duration": 0.65625
            },
            {
              "pitch": 74,
              "velocity": 120,
              "position": 14,
              "duration": 0.65625
            },
            {
              "pitch": 76,
              "velocity": 120,
              "position": 14,
              "duration": 0.65625
            },
            {
              "pitch": 68,
              "velocity": 110,
              "position": 14.666666666666666,
              "duration": 0.3229166666666667
            },
            {
              "pitch": 71,
              "velocity": 110,
              "position": 14.666666666666666,
              "duration": 0.3229166666666667
            },
            {
              "pitch": 75,
              "velocity": 110,
              "position": 14.666666666666666,
              "duration": 0.3229166666666667
            },
            {
              "pitch": 77,
              "velocity": 110,
              "position": 14.666666666666666,
              "duration": 0.3229166666666667
            },
            {
              "pitch": 69,
              "velocity": 120,
              "position": 15.666666666666666,
              "duration": 0.3229166666666667
            },
            {
              "pitch": 72,
              "velocity": 120,
              "position": 15.666666666666666,
              "duration": 0.3229166666666667
            },
            {
              "pitch": 75,
              "velocity": 120,
              "position": 15.666666666666666,
              "duration": 0.3229166666666667
            },
            {
              "pitch": 79,
              "velocity": 120,
              "position": 15.666666666666666,
              "duration": 0.3229166666666667
            }
          ]
        },
        "5": {
          "ctab": {
            "srcChannel": 5,
            "name": "Brs",
            "accType": "PHRASE1",
            "editable": false,
            "mutedNotes": [],
            "mutedChords": [
              "1+2+5",
              "sus4",
              "1+5",
              "1+8",
              "7aug",
              "Maj7aug",
              "7(#9)",
              "7(b13)",
              "7(b9)",
              "7(13)",
              "7#11",
              "7(9)",
              "7b5",
              "7sus4",
              "7th",
              "aug",
              "Maj6(9)",
              "Maj7(9)",
              "Maj(9)",
              "Maj7#11",
              "Maj7",
              "Maj6",
              "Maj"
            ],
            "autoStart": false,
            "sourceChordNote": 0,
            "sourceChordType": "min",
            "ctb2Low": null,
            "ctb2Main": {
              "ntr": "ROOT_TRANSPOSITION",
              "ntt": "BYPASS",
              "bassOn": false,
              "chordRootUpperLimit": 1,
              "noteLowLimit": 36,
              "noteHighLimit": 82,
              "rtr": "PITCH_SHIFT"
            },
            "ctb2High": null
          },
          "notes": [
            {
              "pitch": 89,
              "velocity": 108,
              "position": 0,
              "duration": 0.3229166666666667
            },
            {
              "pitch": 91,
              "velocity": 108,
              "position": 0,
              "duration": 0.3229166666666667
            },
            {
              "pitch": 95,
              "velocity": 108,
              "position": 0,
              "duration": 0.3229166666666667
            },
            {
              "pitch": 98,
              "velocity": 108,
              "position": 0,
              "duration": 0.3229166666666667
            },
            {
              "pitch": 31,
              "velocity": 100,
              "position": 0.6666666666666666,
              "duration": 0.3229166666666667
            },
            {
              "pitch": 89,
              "velocity": 108,
              "position": 2.6666666666666665,
              "duration": 0.3229166666666667
            },
            {
              "pitch": 91,
              "velocity": 108,
              "position": 2.6666666666666665,
              "duration": 0.3229166666666667
            },
            {
              "pitch": 95,
              "velocity": 108,
              "position": 2.6666666666666665,
              "duration": 0.3229166666666667
            },
            {
              "pitch": 98,
              "velocity": 108,
              "position": 2.6666666666666665,
              "duration": 0.3229166666666667
            },
            {
              "pitch": 31,
              "velocity": 100,
              "position": 2,
              "duration": 1.9895833333333333
            },
            {
              "pitch": 89,
              "velocity": 108,
              "position": 4,
              "duration": 0.3229166666666667
            },
            {
              "pitch": 91,
              "velocity": 108,
              "position": 4,
              "duration": 0.3229166666666667
            },
            {
              "pitch": 93,
              "velocity": 108,
              "position": 4,
              "duration": 0.3229166666666667
            },
            {
              "pitch": 96,
              "velocity": 108,
              "position": 4,
              "duration": 0.3229166666666667
            },
            {
              "pitch": 31,
              "velocity": 100,
              "position": 4.666666666666667,
              "duration": 0.3229166666666667
            },
            {
              "pitch": 89,
              "velocity": 108,
              "position": 6.666666666666667,
              "duration": 0.3229166666666667
            },
            {
              "pitch": 91,
              "velocity": 108,
              "position": 6.666666666666667,
              "duration": 0.3229166666666667
            },
            {
              "pitch": 93,
              "velocity": 108,
              "position": 6.666666666666667,
              "duration": 0.3229166666666667
            },
            {
              "pitch": 96,
              "velocity": 108,
              "position": 6.666666666666667,
              "duration": 0.3229166666666667
            },
            {
              "pitch": 31,
              "velocity": 100,
              "position": 6,
              "duration": 1.9895833333333333
            },
            {
              "pitch": 89,
              "velocity": 108,
              "position": 8,
              "duration": 0.3229166666666667
            },
            {
              "pitch": 91,
              "velocity": 108,
              "position": 8,
              "duration": 0.3229166666666667
            },
            {
              "pitch": 95,
              "velocity": 108,
              "position": 8,
              "duration": 0.3229166666666667
            },
            {
              "pitch": 98,
              "velocity": 108,
              "position": 8,
              "duration": 0.3229166666666667
            },
            {
              "pitch": 71,
              "velocity": 108,
              "position": 8.666666666666666,
              "duration": 1.3229166666666667
            },
            {
              "pitch": 79,
              "velocity": 108,
              "position": 8.666666666666666,
              "duration": 1.3229166666666667
            },
            {
              "pitch": 70,
              "velocity": 108,
              "position": 10,
              "duration": 0.3229166666666667
            },
            {
              "pitch": 78,
              "velocity": 108,
              "position": 10,
              "duration": 0.3229166666666667
            },
            {
              "pitch": 71,
              "velocity": 108,
              "position": 11,
              "duration": 0.3229166666666667
            },
            {
              "pitch": 77,
              "velocity": 108,
              "position": 11,
              "duration": 0.3229166666666667
            },
            {
              "pitch": 79,
              "velocity": 108,
              "position": 11,
              "duration": 0.3229166666666667
            },
            {
              "pitch": 72,
              "velocity": 108,
              "position": 12,
              "duration": 0.3229166666666667
            },
            {
              "pitch": 76,
              "velocity": 108,
              "position": 12,
              "duration": 0.3229166666666667
            },
            {
              "pitch": 78,
              "velocity": 108,
              "position": 12,
              "duration": 0.3229166666666667
            },
            {
              "pitch": 80,
              "velocity": 108,
              "position": 12,
              "duration": 0.3229166666666667
            },
            {
              "pitch": 73,
              "velocity": 93,
              "position": 13,
              "duration": 0.3229166666666667
            },
            {
              "pitch": 75,
              "velocity": 93,
              "position": 13,
              "duration": 0.3229166666666667
            },
            {
              "pitch": 79,
              "velocity": 93,
              "position": 13,
              "duration": 0.3229166666666667
            },
            {
              "pitch": 81,
              "velocity": 93,
              "position": 13,
              "duration": 0.3229166666666667
            },
            {
              "pitch": 74,
              "velocity": 108,
              "position": 14,
              "duration": 0.65625
            },
            {
              "pitch": 76,
              "velocity": 108,
              "position": 14,
              "duration": 0.65625
            },
            {
              "pitch": 79,
              "velocity": 108,
              "position": 14,
              "duration": 0.65625
            },
            {
              "pitch": 82,
              "velocity": 108,
              "position": 14,
              "duration": 0.65625
            },
            {
              "pitch": 75,
              "velocity": 93,
              "position": 14.666666666666666,
              "duration": 0.3229166666666667
            },
            {
              "pitch": 77,
              "velocity": 93,
              "position": 14.666666666666666,
              "duration": 0.3229166666666667
            },
            {
              "pitch": 80,
              "velocity": 93,
              "position": 14.666666666666666,
              "duration": 0.3229166666666667
            },
            {
              "pitch": 83,
              "velocity": 93,
              "position": 14.666666666666666,
              "duration": 0.3229166666666667
            },
            {
              "pitch": 75,
              "velocity": 108,
              "position": 15.666666666666666,
              "duration": 0.3229166666666667
            },
            {
              "pitch": 79,
              "velocity": 108,
              "position": 15.666666666666666,
              "duration": 0.3229166666666667
            },
            {
              "pitch": 81,
              "velocity": 108,
              "position": 15.666666666666666,
              "duration": 0.3229166666666667
            },
            {
              "pitch": 84,
              "velocity": 108,
              "position": 15.666666666666666,
              "duration": 0.3229166666666667
            }
          ]
        },
        "6": {
          "ctab": {
            "srcChannel": 6,
            "name": "Tbn",
            "accType": "PHRASE2",
            "editable": false,
            "mutedNotes": [],
            "mutedChords": [
              "1+2+5",
              "sus4",
              "1+5",
              "1+8",
              "7aug",
              "Maj7aug",
              "7(#9)",
              "7(b13)",
              "7(b9)",
              "7(13)",
              "7#11",
              "7(9)",
              "7b5",
              "7sus4",
              "7th",
              "aug",
              "Maj6(9)",
              "Maj7(9)",
              "Maj(9)",
              "Maj7#11",
              "Maj7",
              "Maj6",
              "Maj"
            ],
            "autoStart": false,
            "sourceChordNote": 0,
            "sourceChordType": "min",
            "ctb2Low": null,
            "ctb2Main": {
              "ntr": "ROOT_TRANSPOSITION",
              "ntt": "BYPASS",
              "bassOn": false,
              "chordRootUpperLimit": 7,
              "noteLowLimit": 36,
              "noteHighLimit": 67,
              "rtr": "PITCH_SHIFT"
            },
            "ctb2High": null
          },
          "notes": [
            {
              "pitch": 71,
              "velocity": 127,
              "position": 0,
              "duration": 0.3229166666666667
            },
            {
              "pitch": 74,
              "velocity": 127,
              "position": 0,
              "duration": 0.3229166666666667
            },
            {
              "pitch": 77,
              "velocity": 127,
              "position": 0,
              "duration": 0.3229166666666667
            },
            {
              "pitch": 79,
              "velocity": 127,
              "position": 0,
              "duration": 0.3229166666666667
            },
            {
              "pitch": 31,
              "velocity": 127,
              "position": 0.6666666666666666,
              "duration": 0.3229166666666667
            },
            {
              "pitch": 71,
              "velocity": 127,
              "position": 2.6666666666666665,
              "duration": 0.3229166666666667
            },
            {
              "pitch": 74,
              "velocity": 127,
              "position": 2.6666666666666665,
              "duration": 0.3229166666666667
            },
            {
              "pitch": 77,
              "velocity": 127,
              "position": 2.6666666666666665,
              "duration": 0.3229166666666667
            },
            {
              "pitch": 79,
              "velocity": 127,
              "position": 2.6666666666666665,
              "duration": 0.3229166666666667
            },
            {
              "pitch": 31,
              "velocity": 127,
              "position": 2,
              "duration": 1.9895833333333333
            },
            {
              "pitch": 69,
              "velocity": 127,
              "position": 4,
              "duration": 0.3229166666666667
            },
            {
              "pitch": 72,
              "velocity": 127,
              "position": 4,
              "duration": 0.3229166666666667
            },
            {
              "pitch": 77,
              "velocity": 127,
              "position": 4,
              "duration": 0.3229166666666667
            },
            {
              "pitch": 79,
              "velocity": 127,
              "position": 4,
              "duration": 0.3229166666666667
            },
            {
              "pitch": 31,
              "velocity": 127,
              "position": 4.666666666666667,
              "duration": 0.3229166666666667
            },
            {
              "pitch": 69,
              "velocity": 127,
              "position": 6.666666666666667,
              "duration": 0.3229166666666667
            },
            {
              "pitch": 72,
              "velocity": 127,
              "position": 6.666666666666667,
              "duration": 0.3229166666666667
            },
            {
              "pitch": 77,
              "velocity": 127,
              "position": 6.666666666666667,
              "duration": 0.3229166666666667
            },
            {
              "pitch": 79,
              "velocity": 127,
              "position": 6.666666666666667,
              "duration": 0.3229166666666667
            },
            {
              "pitch": 31,
              "velocity": 127,
              "position": 6,
              "duration": 1.9895833333333333
            },
            {
              "pitch": 71,
              "velocity": 127,
              "position": 8,
              "duration": 0.3229166666666667
            },
            {
              "pitch": 74,
              "velocity": 127,
              "position": 8,
              "duration": 0.3229166666666667
            },
            {
              "pitch": 77,
              "velocity": 127,
              "position": 8,
              "duration": 0.3229166666666667
            },
            {
              "pitch": 79,
              "velocity": 127,
              "position": 8,
              "duration": 0.3229166666666667
            },
            {
              "pitch": 43,
              "velocity": 127,
              "position": 8.666666666666666,
              "duration": 1.3229166666666667
            },
            {
              "pitch": 71,
              "velocity": 127,
              "position": 8.666666666666666,
              "duration": 1.3229166666666667
            },
            {
              "pitch": 42,
              "velocity": 127,
              "position": 10,
              "duration": 0.3229166666666667
            },
            {
              "pitch": 70,
              "velocity": 127,
              "position": 10,
              "duration": 0.3229166666666667
            },
            {
              "pitch": 41,
              "velocity": 127,
              "position": 11,
              "duration": 0.3229166666666667
            },
            {
              "pitch": 67,
              "velocity": 127,
              "position": 11,
              "duration": 0.3229166666666667
            },
            {
              "pitch": 71,
              "velocity": 127,
              "position": 11,
              "duration": 0.3229166666666667
            },
            {
              "pitch": 40,
              "velocity": 127,
              "position": 12,
              "duration": 0.3229166666666667
            },
            {
              "pitch": 66,
              "velocity": 127,
              "position": 12,
              "duration": 0.3229166666666667
            },
            {
              "pitch": 68,
              "velocity": 127,
              "position": 12,
              "duration": 0.3229166666666667
            },
            {
              "pitch": 72,
              "velocity": 127,
              "position": 12,
              "duration": 0.3229166666666667
            },
            {
              "pitch": 39,
              "velocity": 127,
              "position": 13,
              "duration": 0.3229166666666667
            },
            {
              "pitch": 67,
              "velocity": 127,
              "position": 13,
              "duration": 0.3229166666666667
            },
            {
              "pitch": 69,
              "velocity": 127,
              "position": 13,
              "duration": 0.3229166666666667
            },
            {
              "pitch": 73,
              "velocity": 127,
              "position": 13,
              "duration": 0.3229166666666667
            },
            {
              "pitch": 38,
              "velocity": 127,
              "position": 14,
              "duration": 0.65625
            },
            {
              "pitch": 67,
              "velocity": 127,
              "position": 14,
              "duration": 0.65625
            },
            {
              "pitch": 70,
              "velocity": 127,
              "position": 14,
              "duration": 0.65625
            },
            {
              "pitch": 74,
              "velocity": 127,
              "position": 14,
              "duration": 0.65625
            },
            {
              "pitch": 37,
              "velocity": 127,
              "position": 14.666666666666666,
              "duration": 0.3229166666666667
            },
            {
              "pitch": 68,
              "velocity": 127,
              "position": 14.666666666666666,
              "duration": 0.3229166666666667
            },
            {
              "pitch": 71,
              "velocity": 127,
              "position": 14.666666666666666,
              "duration": 0.3229166666666667
            },
            {
              "pitch": 75,
              "velocity": 127,
              "position": 14.666666666666666,
              "duration": 0.3229166666666667
            },
            {
              "pitch": 36,
              "velocity": 127,
              "position": 15.666666666666666,
              "duration": 0.3229166666666667
            },
            {
              "pitch": 67,
              "velocity": 127,
              "position": 15.666666666666666,
              "duration": 0.3229166666666667
            },
            {
              "pitch": 72,
              "velocity": 127,
              "position": 15.666666666666666,
              "duration": 0.3229166666666667
            },
            {
              "pitch": 75,
              "velocity": 127,
              "position": 15.666666666666666,
              "duration": 0.3229166666666667
            }
          ]
        },
        "9": {
          "ctab": {
            "srcChannel": 9,
            "name": "Drs",
            "accType": "RHYTHM",
            "editable": false,
            "mutedNotes": [],
            "mutedChords": [],
            "autoStart": true,
            "sourceChordNote": 0,
            "sourceChordType": "Maj7",
            "ctb2Low": null,
            "ctb2Main": {
              "ntr": "ROOT_FIXED",
              "ntt": "BYPASS",
              "bassOn": false,
              "chordRootUpperLimit": 6,
              "noteLowLimit": 0,
              "noteHighLimit": 127,
              "rtr": "PITCH_SHIFT"
            },
            "ctb2High": null
          },
          "notes": [
            {
              "pitch": 40,
              "velocity": 60,
              "position": 0,
              "duration": 0.010416666666666666
            },
            {
              "pitch": 46,
              "velocity": 48,
              "position": 0,
              "duration": 0.010416666666666666
            },
            {
              "pitch": 35,
              "velocity": 74,
              "position": 0.6666666666666666,
              "duration": 0.010416666666666666
            },
            {
              "pitch": 44,
              "velocity": 60,
              "position": 1,
              "duration": 0.010416666666666666
            },
            {
              "pitch": 46,
              "velocity": 24,
              "position": 1.6666666666666667,
              "duration": 0.010416666666666666
            },
            {
              "pitch": 35,
              "velocity": 74,
              "position": 2,
              "duration": 0.010416666666666666
            },
            {
              "pitch": 46,
              "velocity": 48,
              "position": 2,
              "duration": 0.010416666666666666
            },
            {
              "pitch": 40,
              "velocity": 60,
              "position": 2.6666666666666665,
              "duration": 0.010416666666666666
            },
            {
              "pitch": 44,
              "velocity": 60,
              "position": 3,
              "duration": 0.010416666666666666
            },
            {
              "pitch": 46,
              "velocity": 24,
              "position": 3.6666666666666665,
              "duration": 0.010416666666666666
            },
            {
              "pitch": 40,
              "velocity": 60,
              "position": 4,
              "duration": 0.010416666666666666
            },
            {
              "pitch": 46,
              "velocity": 48,
              "position": 4,
              "duration": 0.010416666666666666
            },
            {
              "pitch": 35,
              "velocity": 74,
              "position": 4.666666666666667,
              "duration": 0.010416666666666666
            },
            {
              "pitch": 44,
              "velocity": 60,
              "position": 5,
              "duration": 0.010416666666666666
            },
            {
              "pitch": 46,
              "velocity": 24,
              "position": 5.666666666666667,
              "duration": 0.010416666666666666
            },
            {
              "pitch": 35,
              "velocity": 74,
              "position": 6,
              "duration": 0.010416666666666666
            },
            {
              "pitch": 46,
              "velocity": 48,
              "position": 6,
              "duration": 0.010416666666666666
            },
            {
              "pitch": 40,
              "velocity": 60,
              "position": 6.666666666666667,
              "duration": 0.010416666666666666
            },
            {
              "pitch": 44,
              "velocity": 60,
              "position": 7,
              "duration": 0.010416666666666666
            },
            {
              "pitch": 46,
              "velocity": 24,
              "position": 7.666666666666667,
              "duration": 0.010416666666666666
            },
            {
              "pitch": 40,
              "velocity": 60,
              "position": 8,
              "duration": 0.010416666666666666
            },
            {
              "pitch": 46,
              "velocity": 48,
              "position": 8,
              "duration": 0.010416666666666666
            },
            {
              "pitch": 40,
              "velocity": 81,
              "position": 8.666666666666666,
              "duration": 0.010416666666666666
            },
            {
              "pitch": 44,
              "velocity": 60,
              "position": 9,
              "duration": 0.010416666666666666
            },
            {
              "pitch": 35,
              "velocity": 54,
              "position": 9.666666666666666,
              "duration": 0.010416666666666666
            },
            {
              "pitch": 46,
              "velocity": 24,
              "position": 9.666666666666666,
              "duration": 0.010416666666666666
            },
            {
              "pitch": 40,
              "velocity": 60,
              "position": 10,
              "duration": 0.010416666666666666
            },
            {
              "pitch": 46,
              "velocity": 48,
              "position": 10,
              "duration": 0.010416666666666666
            },
            {
              "pitch": 35,
              "velocity": 54,
              "position": 10.666666666666666,
              "duration": 0.010416666666666666
            },
            {
              "pitch": 40,
              "velocity": 60,
              "position": 11,
              "duration": 0.010416666666666666
            },
            {
              "pitch": 44,
              "velocity": 60,
              "position": 11,
              "duration": 0.010416666666666666
            },
            {
              "pitch": 46,
              "velocity": 24,
              "position": 11.666666666666666,
              "duration": 0.010416666666666666
            },
            {
              "pitch": 40,
              "velocity": 60,
              "position": 12,
              "duration": 0.010416666666666666
            },
            {
              "pitch": 46,
              "velocity": 48,
              "position": 12,
              "duration": 0.010416666666666666
            },
            {
              "pitch": 40,
              "velocity": 60,
              "position": 13,
              "duration": 0.010416666666666666
            },
            {
              "pitch": 46,
              "velocity": 48,
              "position": 13,
              "duration": 0.010416666666666666
            },
            {
              "pitch": 46,
              "velocity": 48,
              "position": 14,
              "duration": 0.010416666666666666
            },
            {
              "pitch": 31,
              "velocity": 20,
              "position": 14.333333333333334,
              "duration": 0.010416666666666666
            },
            {
              "pitch": 40,
              "velocity": 80,
              "position": 14.666666666666666,
              "duration": 0.010416666666666666
            },
            {
              "pitch": 46,
              "velocity": 48,
              "position": 15,
              "duration": 0.010416666666666666
            },
            {
              "pitch": 31,
              "velocity": 40,
              "position": 15.333333333333334,
              "duration": 0.010416666666666666
            },
            {
              "pitch": 35,
              "velocity": 54,
              "position": 15.666666666666666,
              "duration": 0.010416666666666666
            },
            {
              "pitch": 40,
              "velocity": 80,
              "position": 15.666666666666666,
              "duration": 0.010416666666666666
            },
            {
              "pitch": 49,
              "velocity": 50,
              "position": 15.666666666666666,
              "duration": 0.010416666666666666
            }
          ]
        },
        "10": {
          "ctab": {
            "srcChannel": 10,
            "name": "Bass",
            "accType": "BASS",
            "editable": false,
            "mutedNotes": [],
            "mutedChords": [
              "dim7",
              "dim",
              "minMaj7(9)",
              "minMaj7",
              "min7(11)",
              "min7(9)",
              "min(9)",
              "m7b5",
              "min7",
              "min6",
              "min"
            ],
            "autoStart": false,
            "sourceChordNote": 0,
            "sourceChordType": "Maj",
            "ctb2Low": null,
            "ctb2Main": {
              "ntr": "ROOT_TRANSPOSITION",
              "ntt": "BYPASS",
              "bassOn": false,
              "chordRootUpperLimit": 8,
              "noteLowLimit": 28,
              "noteHighLimit": 127,
              "rtr": "PITCH_SHIFT"
            },
            "ctb2High": null
          },
          "notes": [
            {
              "pitch": 43,
              "velocity": 80,
              "position": 0,
              "duration": 0.40625
            },
            {
              "pitch": 31,
              "velocity": 78,
              "position": 0.6666666666666666,
              "duration": 1.1979166666666667
            },
            {
              "pitch": 31,
              "velocity": 80,
              "position": 2,
              "duration": 1.9895833333333333
            },
            {
              "pitch": 31,
              "velocity": 116,
              "position": 4,
              "duration": 0.125
            },
            {
              "pitch": 31,
              "velocity": 78,
              "position": 4.666666666666667,
              "duration": 1.1979166666666667
            },
            {
              "pitch": 31,
              "velocity": 80,
              "position": 6,
              "duration": 2.46875
            },
            {
              "pitch": 31,
              "velocity": 80,
              "position": 8.666666666666666,
              "duration": 1.1354166666666667
            },
            {
              "pitch": 30,
              "velocity": 80,
              "position": 10,
              "duration": 0.8020833333333334
            },
            {
              "pitch": 29,
              "velocity": 80,
              "position": 11,
              "duration": 0.8020833333333334
            },
            {
              "pitch": 28,
              "velocity": 80,
              "position": 12,
              "duration": 0.8020833333333334
            },
            {
              "pitch": 27,
              "velocity": 80,
              "position": 13,
              "duration": 0.8020833333333334
            },
            {
              "pitch": 26,
              "velocity": 80,
              "position": 14,
              "duration": 0.8020833333333334
            },
            {
              "pitch": 25,
              "velocity": 80,
              "position": 15,
              "duration": 0.8020833333333334
            }
          ]
        },
        "11": {
          "ctab": {
            "srcChannel": 11,
            "name": "Gtr",
            "accType": "CHORD1",
            "editable": false,
            "mutedNotes": [],
            "mutedChords": [
              "dim7",
              "dim",
              "minMaj7(9)",
              "minMaj7",
              "min7(11)",
              "min7(9)",
              "min(9)",
              "m7b5",
              "min7",
              "min6",
              "min"
            ],
            "autoStart": false,
            "sourceChordNote": 0,
            "sourceChordType": "Maj",
            "ctb2Low": null,
            "ctb2Main": {
              "ntr": "ROOT_TRANSPOSITION",
              "ntt": "BYPASS",
              "bassOn": false,
              "chordRootUpperLimit": 5,
              "noteLowLimit": 57,
              "noteHighLimit": 68,
              "rtr": "PITCH_SHIFT"
            },
            "ctb2High": null
          },
          "notes": []
        },
        "12": {
          "ctab": {
            "srcChannel": 12,
            "name": "Pno",
            "accType": "CHORD2",
            "editable": false,
            "mutedNotes": [],
            "mutedChords": [
              "dim7",
              "dim",
              "minMaj7(9)",
              "minMaj7",
              "min7(11)",
              "min7(9)",
              "min(9)",
              "m7b5",
              "min7",
              "min6",
              "min"
            ],
            "autoStart": false,
            "sourceChordNote": 0,
            "sourceChordType": "Maj",
            "ctb2Low": null,
            "ctb2Main": {
              "ntr": "ROOT_TRANSPOSITION",
              "ntt": "BYPASS",
              "bassOn": false,
              "chordRootUpperLimit": 6,
              "noteLowLimit": 0,
              "noteHighLimit": 79,
              "rtr": "PITCH_SHIFT"
            },
            "ctb2High": null
          },
          "notes": []
        },
        "13": {
          "ctab": {
            "srcChannel": 13,
            "name": "Sax",
            "accType": "PAD",
            "editable": false,
            "mutedNotes": [],
            "mutedChords": [
              "dim7",
              "dim",
              "minMaj7(9)",
              "minMaj7",
              "min7(11)",
              "min7(9)",
              "min(9)",
              "m7b5",
              "min7",
              "min6",
              "min"
            ],
            "autoStart": false,
            "sourceChordNote": 0,
            "sourceChordType": "Maj",
            "ctb2Low": null,
            "ctb2Main": {
              "ntr": "ROOT_TRANSPOSITION",
              "ntt": "BYPASS",
              "bassOn": false,
              "chordRootUpperLimit": 7,
              "noteLowLimit": 36,
              "noteHighLimit": 72,
              "rtr": "PITCH_SHIFT"
            },
            "ctb2High": null
          },
          "notes": [
            {
              "pitch": 72,
              "velocity": 120,
              "position": 0,
              "duration": 0.3229166666666667
            },
            {
              "pitch": 77,
              "velocity": 120,
              "position": 0,
              "duration": 0.3229166666666667
            },
            {
              "pitch": 79,
              "velocity": 120,
              "position": 0,
              "duration": 0.3229166666666667
            },
            {
              "pitch": 81,
              "velocity": 120,
              "position": 0,
              "duration": 0.3229166666666667
            },
            {
              "pitch": 31,
              "velocity": 104,
              "position": 0.6666666666666666,
              "duration": 0.3541666666666667
            },
            {
              "pitch": 72,
              "velocity": 114,
              "position": 2.6666666666666665,
              "duration": 0.3229166666666667
            },
            {
              "pitch": 77,
              "velocity": 114,
              "position": 2.6666666666666665,
              "duration": 0.3229166666666667
            },
            {
              "pitch": 79,
              "velocity": 114,
              "position": 2.6666666666666665,
              "duration": 0.3229166666666667
            },
            {
              "pitch": 81,
              "velocity": 114,
              "position": 2.6666666666666665,
              "duration": 0.3229166666666667
            },
            {
              "pitch": 31,
              "velocity": 104,
              "position": 2,
              "duration": 1.9895833333333333
            },
            {
              "pitch": 73,
              "velocity": 120,
              "position": 4,
              "duration": 0.3229166666666667
            },
            {
              "pitch": 77,
              "velocity": 120,
              "position": 4,
              "duration": 0.3229166666666667
            },
            {
              "pitch": 79,
              "velocity": 120,
              "position": 4,
              "duration": 0.3229166666666667
            },
            {
              "pitch": 82,
              "velocity": 120,
              "position": 4,
              "duration": 0.3229166666666667
            },
            {
              "pitch": 31,
              "velocity": 104,
              "position": 4.666666666666667,
              "duration": 0.3541666666666667
            },
            {
              "pitch": 73,
              "velocity": 114,
              "position": 6.666666666666667,
              "duration": 0.3229166666666667
            },
            {
              "pitch": 77,
              "velocity": 114,
              "position": 6.666666666666667,
              "duration": 0.3229166666666667
            },
            {
              "pitch": 79,
              "velocity": 114,
              "position": 6.666666666666667,
              "duration": 0.3229166666666667
            },
            {
              "pitch": 82,
              "velocity": 114,
              "position": 6.666666666666667,
              "duration": 0.3229166666666667
            },
            {
              "pitch": 31,
              "velocity": 104,
              "position": 6,
              "duration": 1.9895833333333333
            },
            {
              "pitch": 74,
              "velocity": 120,
              "position": 8,
              "duration": 0.3229166666666667
            },
            {
              "pitch": 77,
              "velocity": 120,
              "position": 8,
              "duration": 0.3229166666666667
            },
            {
              "pitch": 79,
              "velocity": 120,
              "position": 8,
              "duration": 0.3229166666666667
            },
            {
              "pitch": 83,
              "velocity": 120,
              "position": 8,
              "duration": 0.3229166666666667
            },
            {
              "pitch": 71,
              "velocity": 110,
              "position": 8.666666666666666,
              "duration": 1.3229166666666667
            },
            {
              "pitch": 79,
              "velocity": 110,
              "position": 8.666666666666666,
              "duration": 1.3229166666666667
            },
            {
              "pitch": 70,
              "velocity": 120,
              "position": 10,
              "duration": 0.3229166666666667
            },
            {
              "pitch": 78,
              "velocity": 120,
              "position": 10,
              "duration": 0.3229166666666667
            },
            {
              "pitch": 67,
              "velocity": 110,
              "position": 11,
              "duration": 0.3229166666666667
            },
            {
              "pitch": 71,
              "velocity": 110,
              "position": 11,
              "duration": 0.3229166666666667
            },
            {
              "pitch": 77,
              "velocity": 110,
              "position": 11,
              "duration": 0.3229166666666667
            },
            {
              "pitch": 66,
              "velocity": 120,
              "position": 12,
              "duration": 0.3229166666666667
            },
            {
              "pitch": 68,
              "velocity": 120,
              "position": 12,
              "duration": 0.3229166666666667
            },
            {
              "pitch": 72,
              "velocity": 120,
              "position": 12,
              "duration": 0.3229166666666667
            },
            {
              "pitch": 76,
              "velocity": 120,
              "position": 12,
              "duration": 0.3229166666666667
            },
            {
              "pitch": 67,
              "velocity": 110,
              "position": 13,
              "duration": 0.3229166666666667
            },
            {
              "pitch": 69,
              "velocity": 110,
              "position": 13,
              "duration": 0.3229166666666667
            },
            {
              "pitch": 73,
              "velocity": 110,
              "position": 13,
              "duration": 0.3229166666666667
            },
            {
              "pitch": 75,
              "velocity": 110,
              "position": 13,
              "duration": 0.3229166666666667
            },
            {
              "pitch": 67,
              "velocity": 120,
              "position": 14,
              "duration": 0.65625
            },
            {
              "pitch": 70,
              "velocity": 120,
              "position": 14,
              "duration": 0.65625
            },
            {
              "pitch": 74,
              "velocity": 120,
              "position": 14,
              "duration": 0.65625
            },
            {
              "pitch": 76,
              "velocity": 120,
              "position": 14,
              "duration": 0.65625
            },
            {
              "pitch": 68,
              "velocity": 110,
              "position": 14.666666666666666,
              "duration": 0.3229166666666667
            },
            {
              "pitch": 71,
              "velocity": 110,
              "position": 14.666666666666666,
              "duration": 0.3229166666666667
            },
            {
              "pitch": 75,
              "velocity": 110,
              "position": 14.666666666666666,
              "duration": 0.3229166666666667
            },
            {
              "pitch": 77,
              "velocity": 110,
              "position": 14.666666666666666,
              "duration": 0.3229166666666667
            },
            {
              "pitch": 69,
              "velocity": 120,
              "position": 15.666666666666666,
              "duration": 0.3229166666666667
            },
            {
              "pitch": 72,
              "velocity": 120,
              "position": 15.666666666666666,
              "duration": 0.3229166666666667
            },
            {
              "pitch": 76,
              "velocity": 120,
              "position": 15.666666666666666,
              "duration": 0.3229166666666667
            },
            {
              "pitch": 79,
              "velocity": 120,
              "position": 15.666666666666666,
              "duration": 0.3229166666666667
            }
          ]
        },
        "14": {
          "ctab": {
            "srcChannel": 14,
            "name": "Brs",
            "accType": "PHRASE1",
            "editable": false,
            "mutedNotes": [],
            "mutedChords": [
              "dim7",
              "dim",
              "minMaj7(9)",
              "minMaj7",
              "min7(11)",
              "min7(9)",
              "min(9)",
              "m7b5",
              "min7",
              "min6",
              "min"
            ],
            "autoStart": false,
            "sourceChordNote": 0,
            "sourceChordType": "Maj",
            "ctb2Low": null,
            "ctb2Main": {
              "ntr": "ROOT_TRANSPOSITION",
              "ntt": "BYPASS",
              "bassOn": false,
              "chordRootUpperLimit": 1,
              "noteLowLimit": 36,
              "noteHighLimit": 82,
              "rtr": "PITCH_SHIFT"
            },
            "ctb2High": null
          },
          "notes": [
            {
              "pitch": 89,
              "velocity": 108,
              "position": 0,
              "duration": 0.3229166666666667
            },
            {
              "pitch": 91,
              "velocity": 108,
              "position": 0,
              "duration": 0.3229166666666667
            },
            {
              "pitch": 93,
              "velocity": 108,
              "position": 0,
              "duration": 0.3229166666666667
            },
            {
              "pitch": 96,
              "velocity": 108,
              "position": 0,
              "duration": 0.3229166666666667
            },
            {
              "pitch": 31,
              "velocity": 100,
              "position": 0.6666666666666666,
              "duration": 0.3229166666666667
            },
            {
              "pitch": 89,
              "velocity": 108,
              "position": 2.6666666666666665,
              "duration": 0.3229166666666667
            },
            {
              "pitch": 91,
              "velocity": 108,
              "position": 2.6666666666666665,
              "duration": 0.3229166666666667
            },
            {
              "pitch": 93,
              "velocity": 108,
              "position": 2.6666666666666665,
              "duration": 0.3229166666666667
            },
            {
              "pitch": 96,
              "velocity": 108,
              "position": 2.6666666666666665,
              "duration": 0.3229166666666667
            },
            {
              "pitch": 31,
              "velocity": 100,
              "position": 2,
              "duration": 1.9895833333333333
            },
            {
              "pitch": 89,
              "velocity": 108,
              "position": 4,
              "duration": 0.3229166666666667
            },
            {
              "pitch": 91,
              "velocity": 108,
              "position": 4,
              "duration": 0.3229166666666667
            },
            {
              "pitch": 94,
              "velocity": 108,
              "position": 4,
              "duration": 0.3229166666666667
            },
            {
              "pitch": 97,
              "velocity": 108,
              "position": 4,
              "duration": 0.3229166666666667
            },
            {
              "pitch": 31,
              "velocity": 100,
              "position": 4.666666666666667,
              "duration": 0.3229166666666667
            },
            {
              "pitch": 89,
              "velocity": 108,
              "position": 6.666666666666667,
              "duration": 0.3229166666666667
            },
            {
              "pitch": 91,
              "velocity": 108,
              "position": 6.666666666666667,
              "duration": 0.3229166666666667
            },
            {
              "pitch": 94,
              "velocity": 108,
              "position": 6.666666666666667,
              "duration": 0.3229166666666667
            },
            {
              "pitch": 97,
              "velocity": 108,
              "position": 6.666666666666667,
              "duration": 0.3229166666666667
            },
            {
              "pitch": 31,
              "velocity": 100,
              "position": 6,
              "duration": 1.9895833333333333
            },
            {
              "pitch": 89,
              "velocity": 108,
              "position": 8,
              "duration": 0.3229166666666667
            },
            {
              "pitch": 91,
              "velocity": 108,
              "position": 8,
              "duration": 0.3229166666666667
            },
            {
              "pitch": 95,
              "velocity": 108,
              "position": 8,
              "duration": 0.3229166666666667
            },
            {
              "pitch": 98,
              "velocity": 108,
              "position": 8,
              "duration": 0.3229166666666667
            },
            {
              "pitch": 71,
              "velocity": 108,
              "position": 8.666666666666666,
              "duration": 1.3229166666666667
            },
            {
              "pitch": 79,
              "velocity": 108,
              "position": 8.666666666666666,
              "duration": 1.3229166666666667
            },
            {
              "pitch": 70,
              "velocity": 108,
              "position": 10,
              "duration": 0.3229166666666667
            },
            {
              "pitch": 78,
              "velocity": 108,
              "position": 10,
              "duration": 0.3229166666666667
            },
            {
              "pitch": 71,
              "velocity": 108,
              "position": 11,
              "duration": 0.3229166666666667
            },
            {
              "pitch": 77,
              "velocity": 108,
              "position": 11,
              "duration": 0.3229166666666667
            },
            {
              "pitch": 79,
              "velocity": 108,
              "position": 11,
              "duration": 0.3229166666666667
            },
            {
              "pitch": 72,
              "velocity": 108,
              "position": 12,
              "duration": 0.3229166666666667
            },
            {
              "pitch": 76,
              "velocity": 108,
              "position": 12,
              "duration": 0.3229166666666667
            },
            {
              "pitch": 78,
              "velocity": 108,
              "position": 12,
              "duration": 0.3229166666666667
            },
            {
              "pitch": 80,
              "velocity": 108,
              "position": 12,
              "duration": 0.3229166666666667
            },
            {
              "pitch": 73,
              "velocity": 93,
              "position": 13,
              "duration": 0.3229166666666667
            },
            {
              "pitch": 75,
              "velocity": 93,
              "position": 13,
              "duration": 0.3229166666666667
            },
            {
              "pitch": 79,
              "velocity": 93,
              "position": 13,
              "duration": 0.3229166666666667
            },
            {
              "pitch": 81,
              "velocity": 93,
              "position": 13,
              "duration": 0.3229166666666667
            },
            {
              "pitch": 74,
              "velocity": 108,
              "position": 14,
              "duration": 0.65625
            },
            {
              "pitch": 76,
              "velocity": 108,
              "position": 14,
              "duration": 0.65625
            },
            {
              "pitch": 79,
              "velocity": 108,
              "position": 14,
              "duration": 0.65625
            },
            {
              "pitch": 82,
              "velocity": 108,
              "position": 14,
              "duration": 0.65625
            },
            {
              "pitch": 75,
              "velocity": 93,
              "position": 14.666666666666666,
              "duration": 0.3229166666666667
            },
            {
              "pitch": 77,
              "velocity": 93,
              "position": 14.666666666666666,
              "duration": 0.3229166666666667
            },
            {
              "pitch": 80,
              "velocity": 93,
              "position": 14.666666666666666,
              "duration": 0.3229166666666667
            },
            {
              "pitch": 83,
              "velocity": 93,
              "position": 14.666666666666666,
              "duration": 0.3229166666666667
            },
            {
              "pitch": 76,
              "velocity": 108,
              "position": 15.666666666666666,
              "duration": 0.3229166666666667
            },
            {
              "pitch": 79,
              "velocity": 108,
              "position": 15.666666666666666,
              "duration": 0.3229166666666667
            },
            {
              "pitch": 81,
              "velocity": 108,
              "position": 15.666666666666666,
              "duration": 0.3229166666666667
            },
            {
              "pitch": 84,
              "velocity": 108,
              "position": 15.666666666666666,
              "duration": 0.3229166666666667
            }
          ]
        },
        "15": {
          "ctab": {
            "srcChannel": 15,
            "name": "Tbn",
            "accType": "PHRASE2",
            "editable": false,
            "mutedNotes": [],
            "mutedChords": [
              "dim7",
              "dim",
              "minMaj7(9)",
              "minMaj7",
              "min7(11)",
              "min7(9)",
              "min(9)",
              "m7b5",
              "min7",
              "min6",
              "min"
            ],
            "autoStart": false,
            "sourceChordNote": 0,
            "sourceChordType": "Maj",
            "ctb2Low": null,
            "ctb2Main": {
              "ntr": "ROOT_TRANSPOSITION",
              "ntt": "BYPASS",
              "bassOn": false,
              "chordRootUpperLimit": 7,
              "noteLowLimit": 36,
              "noteHighLimit": 67,
              "rtr": "PITCH_SHIFT"
            },
            "ctb2High": null
          },
          "notes": [
            {
              "pitch": 69,
              "velocity": 127,
              "position": 0,
              "duration": 0.3229166666666667
            },
            {
              "pitch": 72,
              "velocity": 127,
              "position": 0,
              "duration": 0.3229166666666667
            },
            {
              "pitch": 77,
              "velocity": 127,
              "position": 0,
              "duration": 0.3229166666666667
            },
            {
              "pitch": 79,
              "velocity": 127,
              "position": 0,
              "duration": 0.3229166666666667
            },
            {
              "pitch": 31,
              "velocity": 127,
              "position": 0.6666666666666666,
              "duration": 0.3229166666666667
            },
            {
              "pitch": 69,
              "velocity": 127,
              "position": 2.6666666666666665,
              "duration": 0.3229166666666667
            },
            {
              "pitch": 72,
              "velocity": 127,
              "position": 2.6666666666666665,
              "duration": 0.3229166666666667
            },
            {
              "pitch": 77,
              "velocity": 127,
              "position": 2.6666666666666665,
              "duration": 0.3229166666666667
            },
            {
              "pitch": 79,
              "velocity": 127,
              "position": 2.6666666666666665,
              "duration": 0.3229166666666667
            },
            {
              "pitch": 31,
              "velocity": 127,
              "position": 2,
              "duration": 1.9895833333333333
            },
            {
              "pitch": 70,
              "velocity": 127,
              "position": 4,
              "duration": 0.3229166666666667
            },
            {
              "pitch": 73,
              "velocity": 127,
              "position": 4,
              "duration": 0.3229166666666667
            },
            {
              "pitch": 77,
              "velocity": 127,
              "position": 4,
              "duration": 0.3229166666666667
            },
            {
              "pitch": 79,
              "velocity": 127,
              "position": 4,
              "duration": 0.3229166666666667
            },
            {
              "pitch": 31,
              "velocity": 127,
              "position": 4.666666666666667,
              "duration": 0.3229166666666667
            },
            {
              "pitch": 70,
              "velocity": 127,
              "position": 6.666666666666667,
              "duration": 0.3229166666666667
            },
            {
              "pitch": 73,
              "velocity": 127,
              "position": 6.666666666666667,
              "duration": 0.3229166666666667
            },
            {
              "pitch": 77,
              "velocity": 127,
              "position": 6.666666666666667,
              "duration": 0.3229166666666667
            },
            {
              "pitch": 79,
              "velocity": 127,
              "position": 6.666666666666667,
              "duration": 0.3229166666666667
            },
            {
              "pitch": 31,
              "velocity": 127,
              "position": 6,
              "duration": 1.9895833333333333
            },
            {
              "pitch": 71,
              "velocity": 127,
              "position": 8,
              "duration": 0.3229166666666667
            },
            {
              "pitch": 74,
              "velocity": 127,
              "position": 8,
              "duration": 0.3229166666666667
            },
            {
              "pitch": 77,
              "velocity": 127,
              "position": 8,
              "duration": 0.3229166666666667
            },
            {
              "pitch": 79,
              "velocity": 127,
              "position": 8,
              "duration": 0.3229166666666667
            },
            {
              "pitch": 43,
              "velocity": 127,
              "position": 8.666666666666666,
              "duration": 1.3229166666666667
            },
            {
              "pitch": 71,
              "velocity": 127,
              "position": 8.666666666666666,
              "duration": 1.3229166666666667
            },
            {
              "pitch": 42,
              "velocity": 127,
              "position": 10,
              "duration": 0.3229166666666667
            },
            {
              "pitch": 70,
              "velocity": 127,
              "position": 10,
              "duration": 0.3229166666666667
            },
            {
              "pitch": 41,
              "velocity": 127,
              "position": 11,
              "duration": 0.3229166666666667
            },
            {
              "pitch": 67,
              "velocity": 127,
              "position": 11,
              "duration": 0.3229166666666667
            },
            {
              "pitch": 71,
              "velocity": 127,
              "position": 11,
              "duration": 0.3229166666666667
            },
            {
              "pitch": 40,
              "velocity": 127,
              "position": 12,
              "duration": 0.3229166666666667
            },
            {
              "pitch": 66,
              "velocity": 127,
              "position": 12,
              "duration": 0.3229166666666667
            },
            {
              "pitch": 68,
              "velocity": 127,
              "position": 12,
              "duration": 0.3229166666666667
            },
            {
              "pitch": 72,
              "velocity": 127,
              "position": 12,
              "duration": 0.3229166666666667
            },
            {
              "pitch": 39,
              "velocity": 127,
              "position": 13,
              "duration": 0.3229166666666667
            },
            {
              "pitch": 67,
              "velocity": 127,
              "position": 13,
              "duration": 0.3229166666666667
            },
            {
              "pitch": 69,
              "velocity": 127,
              "position": 13,
              "duration": 0.3229166666666667
            },
            {
              "pitch": 73,
              "velocity": 127,
              "position": 13,
              "duration": 0.3229166666666667
            },
            {
              "pitch": 38,
              "velocity": 127,
              "position": 14,
              "duration": 0.65625
            },
            {
              "pitch": 67,
              "velocity": 127,
              "position": 14,
              "duration": 0.65625
            },
            {
              "pitch": 70,
              "velocity": 127,
              "position": 14,
              "duration": 0.65625
            },
            {
              "pitch": 74,
              "velocity": 127,
              "position": 14,
              "duration": 0.65625
            },
            {
              "pitch": 37,
              "velocity": 127,
              "position": 14.666666666666666,
              "duration": 0.3229166666666667
            },
            {
              "pitch": 68,
              "velocity": 127,
              "position": 14.666666666666666,
              "duration": 0.3229166666666667
            },
            {
              "pitch": 71,
              "velocity": 127,
              "position": 14.666666666666666,
              "duration": 0.3229166666666667
            },
            {
              "pitch": 75,
              "velocity": 127,
              "position": 14.666666666666666,
              "duration": 0.3229166666666667
            },
            {
              "pitch": 36,
              "velocity": 127,
              "position": 15.666666666666666,
              "duration": 0.3229166666666667
            },
            {
              "pitch": 69,
              "velocity": 127,
              "position": 15.666666666666666,
              "duration": 0.3229166666666667
            },
            {
              "pitch": 72,
              "velocity": 127,
              "position": 15.666666666666666,
              "duration": 0.3229166666666667
            },
            {
              "pitch": 76,
              "velocity": 127,
              "position": 15.666666666666666,
              "duration": 0.3229166666666667
            }
          ]
        }
      }
    },
    "Ending_B": {
      "type": "Ending_B",
      "sizeInBeats": 8,
      "channels": {
        "1": {
          "ctab": {
            "srcChannel": 1,
            "name": "Bass",
            "accType": "BASS",
            "editable": false,
            "mutedNotes": [],
            "mutedChords": [
              "1+2+5",
              "sus4",
              "1+5",
              "1+8",
              "7aug",
              "Maj7aug",
              "7(#9)",
              "7(b13)",
              "7(b9)",
              "7(13)",
              "7#11",
              "7(9)",
              "7b5",
              "7sus4",
              "7th",
              "aug",
              "Maj6(9)",
              "Maj7(9)",
              "Maj(9)",
              "Maj7#11",
              "Maj7",
              "Maj6",
              "Maj"
            ],
            "autoStart": false,
            "sourceChordNote": 0,
            "sourceChordType": "min",
            "ctb2Low": null,
            "ctb2Main": {
              "ntr": "ROOT_TRANSPOSITION",
              "ntt": "BYPASS",
              "bassOn": false,
              "chordRootUpperLimit": 8,
              "noteLowLimit": 28,
              "noteHighLimit": 127,
              "rtr": "PITCH_SHIFT"
            },
            "ctb2High": null
          },
          "notes": [
            {
              "pitch": 24,
              "velocity": 80,
              "position": 0,
              "duration": 0.65625
            },
            {
              "pitch": 24,
              "velocity": 80,
              "position": 7,
              "duration": 0.65625
            }
          ]
        },
        "2": {
          "ctab": {
            "srcChannel": 2,
            "name": "Gtr",
            "accType": "CHORD1",
            "editable": false,
            "mutedNotes": [],
            "mutedChords": [
              "1+2+5",
              "sus4",
              "1+5",
              "1+8",
              "7aug",
              "Maj7aug",
              "7(#9)",
              "7(b13)",
              "7(b9)",
              "7(13)",
              "7#11",
              "7(9)",
              "7b5",
              "7sus4",
              "7th",
              "aug",
              "Maj6(9)",
              "Maj7(9)",
              "Maj(9)",
              "Maj7#11",
              "Maj7",
              "Maj6",
              "Maj"
            ],
            "autoStart": false,
            "sourceChordNote": 0,
            "sourceChordType": "min",
            "ctb2Low": null,
            "ctb2Main": {
              "ntr": "ROOT_TRANSPOSITION",
              "ntt": "BYPASS",
              "bassOn": false,
              "chordRootUpperLimit": 5,
              "noteLowLimit": 57,
              "noteHighLimit": 68,
              "rtr": "PITCH_SHIFT"
            },
            "ctb2High": null
          },
          "notes": [
            {
              "pitch": 63,
              "velocity": 80,
              "position": 0,
              "duration": 0.65625
            },
            {
              "pitch": 67,
              "velocity": 80,
              "position": 0,
              "duration": 0.65625
            },
            {
              "pitch": 70,
              "velocity": 80,
              "position": 0,
              "duration": 0.65625
            }
          ]
        },
        "3": {
          "ctab": {
            "srcChannel": 3,
            "name": "Pno",
            "accType": "CHORD2",
            "editable": false,
            "mutedNotes": [],
            "mutedChords": [
              "1+2+5",
              "sus4",
              "1+5",
              "1+8",
              "7aug",
              "Maj7aug",
              "7(#9)",
              "7(b13)",
              "7(b9)",
              "7(13)",
              "7#11",
              "7(9)",
              "7b5",
              "7sus4",
              "7th",
              "aug",
              "Maj6(9)",
              "Maj7(9)",
              "Maj(9)",
              "Maj7#11",
              "Maj7",
              "Maj6",
              "Maj"
            ],
            "autoStart": false,
            "sourceChordNote": 0,
            "sourceChordType": "min",
            "ctb2Low": null,
            "ctb2Main": {
              "ntr": "ROOT_TRANSPOSITION",
              "ntt": "BYPASS",
              "bassOn": false,
              "chordRootUpperLimit": 6,
              "noteLowLimit": 0,
              "noteHighLimit": 79,
              "rtr": "PITCH_SHIFT"
            },
            "ctb2High": null
          },
          "notes": [
            {
              "pitch": 87,
              "velocity": 105,
              "position": 2,
              "duration": 0.3229166666666667
            },
            {
              "pitch": 90,
              "velocity": 105,
              "position": 2,
              "duration": 0.3229166666666667
            },
            {
              "pitch": 96,
              "velocity": 105,
              "position": 2,
              "duration": 0.3229166666666667
            },
            {
              "pitch": 86,
              "velocity": 105,
              "position": 4,
              "duration": 0.3229166666666667
            },
            {
              "pitch": 89,
              "velocity": 105,
              "position": 4,
              "duration": 0.3229166666666667
            },
            {
              "pitch": 96,
              "velocity": 105,
              "position": 4,
              "duration": 0.3229166666666667
            },
            {
              "pitch": 84,
              "velocity": 105,
              "position": 5.666666666666667,
              "duration": 0.3229166666666667
            },
            {
              "pitch": 87,
              "velocity": 105,
              "position": 5.666666666666667,
              "duration": 0.3229166666666667
            },
            {
              "pitch": 96,
              "velocity": 105,
              "position": 5.666666666666667,
              "duration": 0.3229166666666667
            },
            {
              "pitch": 36,
              "velocity": 105,
              "position": 7,
              "duration": 0.65625
            }
          ]
        },
        "4": {
          "ctab": {
            "srcChannel": 4,
            "name": "Sax",
            "accType": "PAD",
            "editable": false,
            "mutedNotes": [],
            "mutedChords": [
              "1+2+5",
              "sus4",
              "1+5",
              "1+8",
              "7aug",
              "Maj7aug",
              "7(#9)",
              "7(b13)",
              "7(b9)",
              "7(13)",
              "7#11",
              "7(9)",
              "7b5",
              "7sus4",
              "7th",
              "aug",
              "Maj6(9)",
              "Maj7(9)",
              "Maj(9)",
              "Maj7#11",
              "Maj7",
              "Maj6",
              "Maj"
            ],
            "autoStart": false,
            "sourceChordNote": 0,
            "sourceChordType": "min",
            "ctb2Low": null,
            "ctb2Main": {
              "ntr": "ROOT_TRANSPOSITION",
              "ntt": "BYPASS",
              "bassOn": false,
              "chordRootUpperLimit": 7,
              "noteLowLimit": 36,
              "noteHighLimit": 72,
              "rtr": "PITCH_SHIFT"
            },
            "ctb2High": null
          },
          "notes": [
            {
              "pitch": 75,
              "velocity": 80,
              "position": 0.010416666666666666,
              "duration": 0.4791666666666667
            },
            {
              "pitch": 79,
              "velocity": 80,
              "position": 0.010416666666666666,
              "duration": 0.4791666666666667
            },
            {
              "pitch": 82,
              "velocity": 67,
              "position": 0.010416666666666666,
              "duration": 0.4791666666666667
            },
            {
              "pitch": 84,
              "velocity": 80,
              "position": 0.010416666666666666,
              "duration": 0.4791666666666667
            },
            {
              "pitch": 36,
              "velocity": 82,
              "position": 7.010416666666667,
              "duration": 0.6458333333333334
            }
          ]
        },
        "5": {
          "ctab": {
            "srcChannel": 5,
            "name": "Brs",
            "accType": "PHRASE1",
            "editable": false,
            "mutedNotes": [],
            "mutedChords": [
              "1+2+5",
              "sus4",
              "1+5",
              "1+8",
              "7aug",
              "Maj7aug",
              "7(#9)",
              "7(b13)",
              "7(b9)",
              "7(13)",
              "7#11",
              "7(9)",
              "7b5",
              "7sus4",
              "7th",
              "aug",
              "Maj6(9)",
              "Maj7(9)",
              "Maj(9)",
              "Maj7#11",
              "Maj7",
              "Maj6",
              "Maj"
            ],
            "autoStart": false,
            "sourceChordNote": 0,
            "sourceChordType": "min",
            "ctb2Low": null,
            "ctb2Main": {
              "ntr": "ROOT_TRANSPOSITION",
              "ntt": "BYPASS",
              "bassOn": false,
              "chordRootUpperLimit": 1,
              "noteLowLimit": 36,
              "noteHighLimit": 82,
              "rtr": "PITCH_SHIFT"
            },
            "ctb2High": null
          },
          "notes": [
            {
              "pitch": 87,
              "velocity": 91,
              "position": 0,
              "duration": 0.4895833333333333
            },
            {
              "pitch": 91,
              "velocity": 91,
              "position": 0,
              "duration": 0.4895833333333333
            },
            {
              "pitch": 96,
              "velocity": 117,
              "position": 0,
              "duration": 0.4895833333333333
            },
            {
              "pitch": 36,
              "velocity": 110,
              "position": 7,
              "duration": 0.65625
            }
          ]
        },
        "6": {
          "ctab": {
            "srcChannel": 6,
            "name": "Tbn",
            "accType": "PHRASE2",
            "editable": false,
            "mutedNotes": [],
            "mutedChords": [
              "1+2+5",
              "sus4",
              "1+5",
              "1+8",
              "7aug",
              "Maj7aug",
              "7(#9)",
              "7(b13)",
              "7(b9)",
              "7(13)",
              "7#11",
              "7(9)",
              "7b5",
              "7sus4",
              "7th",
              "aug",
              "Maj6(9)",
              "Maj7(9)",
              "Maj(9)",
              "Maj7#11",
              "Maj7",
              "Maj6",
              "Maj"
            ],
            "autoStart": false,
            "sourceChordNote": 0,
            "sourceChordType": "min",
            "ctb2Low": null,
            "ctb2Main": {
              "ntr": "ROOT_TRANSPOSITION",
              "ntt": "BYPASS",
              "bassOn": false,
              "chordRootUpperLimit": 7,
              "noteLowLimit": 36,
              "noteHighLimit": 67,
              "rtr": "PITCH_SHIFT"
            },
            "ctb2High": null
          },
          "notes": [
            {
              "pitch": 67,
              "velocity": 112,
              "position": 0,
              "duration": 0.4895833333333333
            },
            {
              "pitch": 72,
              "velocity": 112,
              "position": 0,
              "duration": 0.4895833333333333
            },
            {
              "pitch": 75,
              "velocity": 112,
              "position": 0,
              "duration": 0.4895833333333333
            },
            {
              "pitch": 24,
              "velocity": 112,
              "position": 7,
              "duration": 0.65625
            }
          ]
        },
        "9": {
          "ctab": {
            "srcChannel": 9,
            "name": "Drs",
            "accType": "RHYTHM",
            "editable": false,
            "mutedNotes": [],
            "mutedChords": [],
            "autoStart": true,
            "sourceChordNote": 0,
            "sourceChordType": "Maj7",
            "ctb2Low": null,
            "ctb2Main": {
              "ntr": "ROOT_FIXED",
              "ntt": "BYPASS",
              "bassOn": false,
              "chordRootUpperLimit": 6,
              "noteLowLimit": 0,
              "noteHighLimit": 127,
              "rtr": "PITCH_SHIFT"
            },
            "ctb2High": null
          },
          "notes": [
            {
              "pitch": 35,
              "velocity": 74,
              "position": 0,
              "duration": 0.010416666666666666
            },
            {
              "pitch": 59,
              "velocity": 79,
              "position": 0,
              "duration": 0.010416666666666666
            },
            {
              "pitch": 35,
              "velocity": 74,
              "position": 7,
              "duration": 0.010416666666666666
            },
            {
              "pitch": 46,
              "velocity": 48,
              "position": 7,
              "duration": 0.010416666666666666
            },
            {
              "pitch": 44,
              "velocity": 1,
              "position": 7.333333333333333,
              "duration": 0.010416666666666666
            }
          ]
        },
        "10": {
          "ctab": {
            "srcChannel": 10,
            "name": "Bass",
            "accType": "BASS",
            "editable": false,
            "mutedNotes": [],
            "mutedChords": [
              "dim7",
              "dim",
              "minMaj7(9)",
              "minMaj7",
              "min7(11)",
              "min7(9)",
              "min(9)",
              "m7b5",
              "min7",
              "min6",
              "min"
            ],
            "autoStart": false,
            "sourceChordNote": 0,
            "sourceChordType": "Maj",
            "ctb2Low": null,
            "ctb2Main": {
              "ntr": "ROOT_TRANSPOSITION",
              "ntt": "BYPASS",
              "bassOn": false,
              "chordRootUpperLimit": 8,
              "noteLowLimit": 28,
              "noteHighLimit": 127,
              "rtr": "PITCH_SHIFT"
            },
            "ctb2High": null
          },
          "notes": [
            {
              "pitch": 24,
              "velocity": 80,
              "position": 0,
              "duration": 0.65625
            },
            {
              "pitch": 24,
              "velocity": 80,
              "position": 7,
              "duration": 0.65625
            }
          ]
        },
        "11": {
          "ctab": {
            "srcChannel": 11,
            "name": "Gtr",
            "accType": "CHORD1",
            "editable": false,
            "mutedNotes": [],
            "mutedChords": [
              "dim7",
              "dim",
              "minMaj7(9)",
              "minMaj7",
              "min7(11)",
              "min7(9)",
              "min(9)",
              "m7b5",
              "min7",
              "min6",
              "min"
            ],
            "autoStart": false,
            "sourceChordNote": 0,
            "sourceChordType": "Maj",
            "ctb2Low": null,
            "ctb2Main": {
              "ntr": "ROOT_TRANSPOSITION",
              "ntt": "BYPASS",
              "bassOn": false,
              "chordRootUpperLimit": 5,
              "noteLowLimit": 57,
              "noteHighLimit": 68,
              "rtr": "PITCH_SHIFT"
            },
            "ctb2High": null
          },
          "notes": [
            {
              "pitch": 60,
              "velocity": 80,
              "position": 0,
              "duration": 0.65625
            },
            {
              "pitch": 64,
              "velocity": 80,
              "position": 0,
              "duration": 0.65625
            },
            {
              "pitch": 69,
              "velocity": 80,
              "position": 0,
              "duration": 0.65625
            }
          ]
        },
        "12": {
          "ctab": {
            "srcChannel": 12,
            "name": "Pno",
            "accType": "CHORD2",
            "editable": false,
            "mutedNotes": [],
            "mutedChords": [
              "dim7",
              "dim",
              "minMaj7(9)",
              "minMaj7",
              "min7(11)",
              "min7(9)",
              "min(9)",
              "m7b5",
              "min7",
              "min6",
              "min"
            ],
            "autoStart": false,
            "sourceChordNote": 0,
            "sourceChordType": "Maj",
            "ctb2Low": null,
            "ctb2Main": {
              "ntr": "ROOT_TRANSPOSITION",
              "ntt": "BYPASS",
              "bassOn": false,
              "chordRootUpperLimit": 6,
              "noteLowLimit": 0,
              "noteHighLimit": 79,
              "rtr": "PITCH_SHIFT"
            },
            "ctb2High": null
          },
          "notes": [
            {
              "pitch": 87,
              "velocity": 105,
              "position": 2,
              "duration": 0.3229166666666667
            },
            {
              "pitch": 90,
              "velocity": 105,
              "position": 2,
              "duration": 0.3229166666666667
            },
            {
              "pitch": 96,
              "velocity": 105,
              "position": 2,
              "duration": 0.3229166666666667
            },
            {
              "pitch": 86,
              "velocity": 105,
              "position": 4,
              "duration": 0.3229166666666667
            },
            {
              "pitch": 89,
              "velocity": 105,
              "position": 4,
              "duration": 0.3229166666666667
            },
            {
              "pitch": 96,
              "velocity": 105,
              "position": 4,
              "duration": 0.3229166666666667
            },
            {
              "pitch": 84,
              "velocity": 105,
              "position": 5.666666666666667,
              "duration": 0.3229166666666667
            },
            {
              "pitch": 88,
              "velocity": 105,
              "position": 5.666666666666667,
              "duration": 0.3229166666666667
            },
            {
              "pitch": 96,
              "velocity": 105,
              "position": 5.666666666666667,
              "duration": 0.3229166666666667
            },
            {
              "pitch": 36,
              "velocity": 105,
              "position": 7,
              "duration": 0.65625
            }
          ]
        },
        "13": {
          "ctab": {
            "srcChannel": 13,
            "name": "Sax",
            "accType": "PAD",
            "editable": false,
            "mutedNotes": [],
            "mutedChords": [
              "dim7",
              "dim",
              "minMaj7(9)",
              "minMaj7",
              "min7(11)",
              "min7(9)",
              "min(9)",
              "m7b5",
              "min7",
              "min6",
              "min"
            ],
            "autoStart": false,
            "sourceChordNote": 0,
            "sourceChordType": "Maj",
            "ctb2Low": null,
            "ctb2Main": {
              "ntr": "ROOT_TRANSPOSITION",
              "ntt": "BYPASS",
              "bassOn": false,
              "chordRootUpperLimit": 7,
              "noteLowLimit": 36,
              "noteHighLimit": 72,
              "rtr": "PITCH_SHIFT"
            },
            "ctb2High": null
          },
          "notes": [
            {
              "pitch": 76,
              "velocity": 80,
              "position": 0.010416666666666666,
              "duration": 0.4791666666666667
            },
            {
              "pitch": 79,
              "velocity": 80,
              "position": 0.010416666666666666,
              "duration": 0.4791666666666667
            },
            {
              "pitch": 81,
              "velocity": 76,
              "position": 0.010416666666666666,
              "duration": 0.4791666666666667
            },
            {
              "pitch": 84,
              "velocity": 80,
              "position": 0.010416666666666666,
              "duration": 0.4791666666666667
            },
            {
              "pitch": 36,
              "velocity": 82,
              "position": 7.010416666666667,
              "duration": 0.6458333333333334
            }
          ]
        },
        "14": {
          "ctab": {
            "srcChannel": 14,
            "name": "Brs",
            "accType": "PHRASE1",
            "editable": false,
            "mutedNotes": [],
            "mutedChords": [
              "dim7",
              "dim",
              "minMaj7(9)",
              "minMaj7",
              "min7(11)",
              "min7(9)",
              "min(9)",
              "m7b5",
              "min7",
              "min6",
              "min"
            ],
            "autoStart": false,
            "sourceChordNote": 0,
            "sourceChordType": "Maj",
            "ctb2Low": null,
            "ctb2Main": {
              "ntr": "ROOT_TRANSPOSITION",
              "ntt": "BYPASS",
              "bassOn": false,
              "chordRootUpperLimit": 1,
              "noteLowLimit": 36,
              "noteHighLimit": 82,
              "rtr": "PITCH_SHIFT"
            },
            "ctb2High": null
          },
          "notes": [
            {
              "pitch": 88,
              "velocity": 88,
              "position": 0,
              "duration": 0.4895833333333333
            },
            {
              "pitch": 91,
              "velocity": 88,
              "position": 0,
              "duration": 0.4895833333333333
            },
            {
              "pitch": 96,
              "velocity": 114,
              "position": 0,
              "duration": 0.4895833333333333
            },
            {
              "pitch": 36,
              "velocity": 107,
              "position": 7,
              "duration": 0.65625
            }
          ]
        },
        "15": {
          "ctab": {
            "srcChannel": 15,
            "name": "Tbn",
            "accType": "PHRASE2",
            "editable": false,
            "mutedNotes": [],
            "mutedChords": [
              "dim7",
              "dim",
              "minMaj7(9)",
              "minMaj7",
              "min7(11)",
              "min7(9)",
              "min(9)",
              "m7b5",
              "min7",
              "min6",
              "min"
            ],
            "autoStart": false,
            "sourceChordNote": 0,
            "sourceChordType": "Maj",
            "ctb2Low": null,
            "ctb2Main": {
              "ntr": "ROOT_TRANSPOSITION",
              "ntt": "BYPASS",
              "bassOn": false,
              "chordRootUpperLimit": 7,
              "noteLowLimit": 36,
              "noteHighLimit": 67,
              "rtr": "PITCH_SHIFT"
            },
            "ctb2High": null
          },
          "notes": [
            {
              "pitch": 67,
              "velocity": 112,
              "position": 0,
              "duration": 0.4895833333333333
            },
            {
              "pitch": 72,
              "velocity": 112,
              "position": 0,
              "duration": 0.4895833333333333
            },
            {
              "pitch": 76,
              "velocity": 112,
              "position": 0,
              "duration": 0.4895833333333333
            },
            {
              "pitch": 24,
              "velocity": 112,
              "position": 7,
              "duration": 0.65625
            }
          ]
        }
      }
    },
    "Ending_C": {
      "type": "Ending_C",
      "sizeInBeats": 16,
      "channels": {
        "1": {
          "ctab": {
            "srcChannel": 1,
            "name": "Bass",
            "accType": "BASS",
            "editable": false,
            "mutedNotes": [],
            "mutedChords": [
              "1+2+5",
              "sus4",
              "1+5",
              "1+8",
              "7aug",
              "Maj7aug",
              "7(#9)",
              "7(b13)",
              "7(b9)",
              "7(13)",
              "7#11",
              "7(9)",
              "7b5",
              "7sus4",
              "7th",
              "aug",
              "Maj6(9)",
              "Maj7(9)",
              "Maj(9)",
              "Maj7#11",
              "Maj7",
              "Maj6",
              "Maj"
            ],
            "autoStart": false,
            "sourceChordNote": 0,
            "sourceChordType": "min",
            "ctb2Low": null,
            "ctb2Main": {
              "ntr": "ROOT_TRANSPOSITION",
              "ntt": "BYPASS",
              "bassOn": false,
              "chordRootUpperLimit": 8,
              "noteLowLimit": 28,
              "noteHighLimit": 127,
              "rtr": "PITCH_SHIFT"
            },
            "ctb2High": null
          },
          "notes": [
            {
              "pitch": 24,
              "velocity": 80,
              "position": 0,
              "duration": 0.8125
            },
            {
              "pitch": 24,
              "velocity": 80,
              "position": 1,
              "duration": 0.8125
            },
            {
              "pitch": 27,
              "velocity": 80,
              "position": 2,
              "duration": 0.8125
            },
            {
              "pitch": 27,
              "velocity": 80,
              "position": 3,
              "duration": 0.8125
            },
            {
              "pitch": 29,
              "velocity": 80,
              "position": 4,
              "duration": 0.8125
            },
            {
              "pitch": 29,
              "velocity": 80,
              "position": 5,
              "duration": 0.8125
            },
            {
              "pitch": 30,
              "velocity": 80,
              "position": 6,
              "duration": 0.8125
            },
            {
              "pitch": 30,
              "velocity": 80,
              "position": 7,
              "duration": 0.8125
            },
            {
              "pitch": 31,
              "velocity": 80,
              "position": 8,
              "duration": 0.7395833333333334
            },
            {
              "pitch": 31,
              "velocity": 110,
              "position": 8.75,
              "duration": 0.125
            },
            {
              "pitch": 24,
              "velocity": 80,
              "position": 15,
              "duration": 0.4895833333333333
            },
            {
              "pitch": 24,
              "velocity": 110,
              "position": 15.5,
              "duration": 0.125
            }
          ]
        },
        "2": {
          "ctab": {
            "srcChannel": 2,
            "name": "Gtr",
            "accType": "CHORD1",
            "editable": false,
            "mutedNotes": [],
            "mutedChords": [
              "1+2+5",
              "sus4",
              "1+5",
              "1+8",
              "7aug",
              "Maj7aug",
              "7(#9)",
              "7(b13)",
              "7(b9)",
              "7(13)",
              "7#11",
              "7(9)",
              "7b5",
              "7sus4",
              "7th",
              "aug",
              "Maj6(9)",
              "Maj7(9)",
              "Maj(9)",
              "Maj7#11",
              "Maj7",
              "Maj6",
              "Maj"
            ],
            "autoStart": false,
            "sourceChordNote": 0,
            "sourceChordType": "min",
            "ctb2Low": null,
            "ctb2Main": {
              "ntr": "ROOT_TRANSPOSITION",
              "ntt": "BYPASS",
              "bassOn": false,
              "chordRootUpperLimit": 5,
              "noteLowLimit": 57,
              "noteHighLimit": 68,
              "rtr": "PITCH_SHIFT"
            },
            "ctb2High": null
          },
          "notes": []
        },
        "3": {
          "ctab": {
            "srcChannel": 3,
            "name": "Pno",
            "accType": "CHORD2",
            "editable": false,
            "mutedNotes": [],
            "mutedChords": [
              "1+2+5",
              "sus4",
              "1+5",
              "1+8",
              "7aug",
              "Maj7aug",
              "7(#9)",
              "7(b13)",
              "7(b9)",
              "7(13)",
              "7#11",
              "7(9)",
              "7b5",
              "7sus4",
              "7th",
              "aug",
              "Maj6(9)",
              "Maj7(9)",
              "Maj(9)",
              "Maj7#11",
              "Maj7",
              "Maj6",
              "Maj"
            ],
            "autoStart": false,
            "sourceChordNote": 0,
            "sourceChordType": "min",
            "ctb2Low": null,
            "ctb2Main": {
              "ntr": "ROOT_TRANSPOSITION",
              "ntt": "BYPASS",
              "bassOn": false,
              "chordRootUpperLimit": 6,
              "noteLowLimit": 0,
              "noteHighLimit": 79,
              "rtr": "PITCH_SHIFT"
            },
            "ctb2High": null
          },
          "notes": []
        },
        "4": {
          "ctab": {
            "srcChannel": 4,
            "name": "Sax",
            "accType": "PAD",
            "editable": false,
            "mutedNotes": [],
            "mutedChords": [
              "1+2+5",
              "sus4",
              "1+5",
              "1+8",
              "7aug",
              "Maj7aug",
              "7(#9)",
              "7(b13)",
              "7(b9)",
              "7(13)",
              "7#11",
              "7(9)",
              "7b5",
              "7sus4",
              "7th",
              "aug",
              "Maj6(9)",
              "Maj7(9)",
              "Maj(9)",
              "Maj7#11",
              "Maj7",
              "Maj6",
              "Maj"
            ],
            "autoStart": false,
            "sourceChordNote": 0,
            "sourceChordType": "min",
            "ctb2Low": null,
            "ctb2Main": {
              "ntr": "ROOT_TRANSPOSITION",
              "ntt": "BYPASS",
              "bassOn": false,
              "chordRootUpperLimit": 7,
              "noteLowLimit": 36,
              "noteHighLimit": 72,
              "rtr": "PITCH_SHIFT"
            },
            "ctb2High": null
          },
          "notes": [
            {
              "pitch": 55,
              "velocity": 78,
              "position": 0.010416666666666666,
              "duration": 0.6458333333333334
            },
            {
              "pitch": 57,
              "velocity": 78,
              "position": 0.010416666666666666,
              "duration": 0.6458333333333334
            },
            {
              "pitch": 60,
              "velocity": 78,
              "position": 0.010416666666666666,
              "duration": 0.6458333333333334
            },
            {
              "pitch": 63,
              "velocity": 78,
              "position": 0.010416666666666666,
              "duration": 0.6458333333333334
            },
            {
              "pitch": 57,
              "velocity": 127,
              "position": 0.6666666666666666,
              "duration": 0.3229166666666667
            },
            {
              "pitch": 60,
              "velocity": 127,
              "position": 0.6666666666666666,
              "duration": 0.3229166666666667
            },
            {
              "pitch": 63,
              "velocity": 127,
              "position": 0.6666666666666666,
              "duration": 0.3229166666666667
            },
            {
              "pitch": 67,
              "velocity": 127,
              "position": 0.6666666666666666,
              "duration": 0.3229166666666667
            },
            {
              "pitch": 57,
              "velocity": 85,
              "position": 1,
              "duration": 0.65625
            },
            {
              "pitch": 60,
              "velocity": 85,
              "position": 1,
              "duration": 0.65625
            },
            {
              "pitch": 62,
              "velocity": 85,
              "position": 1,
              "duration": 0.65625
            },
            {
              "pitch": 65,
              "velocity": 85,
              "position": 1,
              "duration": 0.65625
            },
            {
              "pitch": 55,
              "velocity": 127,
              "position": 1.6666666666666667,
              "duration": 0.3229166666666667
            },
            {
              "pitch": 57,
              "velocity": 127,
              "position": 1.6666666666666667,
              "duration": 0.3229166666666667
            },
            {
              "pitch": 60,
              "velocity": 127,
              "position": 1.6666666666666667,
              "duration": 0.3229166666666667
            },
            {
              "pitch": 63,
              "velocity": 127,
              "position": 1.6666666666666667,
              "duration": 0.3229166666666667
            },
            {
              "pitch": 55,
              "velocity": 85,
              "position": 2,
              "duration": 0.4375
            },
            {
              "pitch": 57,
              "velocity": 85,
              "position": 2,
              "duration": 0.4375
            },
            {
              "pitch": 60,
              "velocity": 85,
              "position": 2,
              "duration": 0.4375
            },
            {
              "pitch": 63,
              "velocity": 85,
              "position": 2,
              "duration": 0.4375
            },
            {
              "pitch": 55,
              "velocity": 118,
              "position": 3.6666666666666665,
              "duration": 0.3229166666666667
            },
            {
              "pitch": 57,
              "velocity": 118,
              "position": 3.6666666666666665,
              "duration": 0.3229166666666667
            },
            {
              "pitch": 60,
              "velocity": 118,
              "position": 3.6666666666666665,
              "duration": 0.3229166666666667
            },
            {
              "pitch": 63,
              "velocity": 118,
              "position": 3.6666666666666665,
              "duration": 0.3229166666666667
            },
            {
              "pitch": 55,
              "velocity": 78,
              "position": 4,
              "duration": 0.65625
            },
            {
              "pitch": 57,
              "velocity": 78,
              "position": 4,
              "duration": 0.65625
            },
            {
              "pitch": 60,
              "velocity": 78,
              "position": 4,
              "duration": 0.65625
            },
            {
              "pitch": 63,
              "velocity": 78,
              "position": 4,
              "duration": 0.65625
            },
            {
              "pitch": 57,
              "velocity": 127,
              "position": 4.666666666666667,
              "duration": 0.3229166666666667
            },
            {
              "pitch": 60,
              "velocity": 127,
              "position": 4.666666666666667,
              "duration": 0.3229166666666667
            },
            {
              "pitch": 63,
              "velocity": 127,
              "position": 4.666666666666667,
              "duration": 0.3229166666666667
            },
            {
              "pitch": 67,
              "velocity": 127,
              "position": 4.666666666666667,
              "duration": 0.3229166666666667
            },
            {
              "pitch": 57,
              "velocity": 85,
              "position": 5,
              "duration": 0.65625
            },
            {
              "pitch": 60,
              "velocity": 85,
              "position": 5,
              "duration": 0.65625
            },
            {
              "pitch": 62,
              "velocity": 85,
              "position": 5,
              "duration": 0.65625
            },
            {
              "pitch": 65,
              "velocity": 85,
              "position": 5,
              "duration": 0.65625
            },
            {
              "pitch": 55,
              "velocity": 127,
              "position": 5.666666666666667,
              "duration": 0.3229166666666667
            },
            {
              "pitch": 57,
              "velocity": 127,
              "position": 5.666666666666667,
              "duration": 0.3229166666666667
            },
            {
              "pitch": 60,
              "velocity": 127,
              "position": 5.666666666666667,
              "duration": 0.3229166666666667
            },
            {
              "pitch": 63,
              "velocity": 127,
              "position": 5.666666666666667,
              "duration": 0.3229166666666667
            },
            {
              "pitch": 63,
              "velocity": 119,
              "position": 7.666666666666667,
              "duration": 0.3229166666666667
            },
            {
              "pitch": 67,
              "velocity": 88,
              "position": 7.666666666666667,
              "duration": 0.3229166666666667
            },
            {
              "pitch": 69,
              "velocity": 88,
              "position": 7.666666666666667,
              "duration": 0.3229166666666667
            },
            {
              "pitch": 72,
              "velocity": 88,
              "position": 7.666666666666667,
              "duration": 0.3229166666666667
            },
            {
              "pitch": 63,
              "velocity": 88,
              "position": 8,
              "duration": 0.65625
            },
            {
              "pitch": 67,
              "velocity": 74,
              "position": 8,
              "duration": 0.65625
            },
            {
              "pitch": 69,
              "velocity": 74,
              "position": 8,
              "duration": 0.65625
            },
            {
              "pitch": 72,
              "velocity": 74,
              "position": 8,
              "duration": 0.65625
            },
            {
              "pitch": 67,
              "velocity": 127,
              "position": 8.666666666666666,
              "duration": 0.3229166666666667
            },
            {
              "pitch": 69,
              "velocity": 88,
              "position": 8.666666666666666,
              "duration": 0.3229166666666667
            },
            {
              "pitch": 72,
              "velocity": 88,
              "position": 8.666666666666666,
              "duration": 0.3229166666666667
            },
            {
              "pitch": 76,
              "velocity": 88,
              "position": 8.666666666666666,
              "duration": 0.3229166666666667
            },
            {
              "pitch": 65,
              "velocity": 104,
              "position": 9,
              "duration": 0.65625
            },
            {
              "pitch": 69,
              "velocity": 80,
              "position": 9,
              "duration": 0.65625
            },
            {
              "pitch": 72,
              "velocity": 80,
              "position": 9,
              "duration": 0.65625
            },
            {
              "pitch": 74,
              "velocity": 84,
              "position": 9,
              "duration": 0.65625
            },
            {
              "pitch": 63,
              "velocity": 127,
              "position": 9.666666666666666,
              "duration": 0.3229166666666667
            },
            {
              "pitch": 67,
              "velocity": 88,
              "position": 9.666666666666666,
              "duration": 0.3229166666666667
            },
            {
              "pitch": 69,
              "velocity": 88,
              "position": 9.666666666666666,
              "duration": 0.3229166666666667
            },
            {
              "pitch": 72,
              "velocity": 88,
              "position": 9.666666666666666,
              "duration": 0.3229166666666667
            },
            {
              "pitch": 63,
              "velocity": 104,
              "position": 10,
              "duration": 0.65625
            },
            {
              "pitch": 67,
              "velocity": 80,
              "position": 10,
              "duration": 0.65625
            },
            {
              "pitch": 69,
              "velocity": 80,
              "position": 10,
              "duration": 0.65625
            },
            {
              "pitch": 72,
              "velocity": 80,
              "position": 10,
              "duration": 0.65625
            },
            {
              "pitch": 60,
              "velocity": 127,
              "position": 10.666666666666666,
              "duration": 0.3229166666666667
            },
            {
              "pitch": 63,
              "velocity": 81,
              "position": 10.666666666666666,
              "duration": 0.3229166666666667
            },
            {
              "pitch": 67,
              "velocity": 81,
              "position": 10.666666666666666,
              "duration": 0.3229166666666667
            },
            {
              "pitch": 69,
              "velocity": 86,
              "position": 10.666666666666666,
              "duration": 0.3229166666666667
            },
            {
              "pitch": 57,
              "velocity": 72,
              "position": 11,
              "duration": 0.65625
            },
            {
              "pitch": 60,
              "velocity": 61,
              "position": 11,
              "duration": 0.65625
            },
            {
              "pitch": 63,
              "velocity": 61,
              "position": 11,
              "duration": 0.65625
            },
            {
              "pitch": 67,
              "velocity": 70,
              "position": 11,
              "duration": 0.65625
            },
            {
              "pitch": 55,
              "velocity": 78,
              "position": 11.666666666666666,
              "duration": 0.3229166666666667
            },
            {
              "pitch": 57,
              "velocity": 64,
              "position": 11.666666666666666,
              "duration": 0.3229166666666667
            },
            {
              "pitch": 60,
              "velocity": 64,
              "position": 11.666666666666666,
              "duration": 0.3229166666666667
            },
            {
              "pitch": 63,
              "velocity": 60,
              "position": 11.666666666666666,
              "duration": 0.3229166666666667
            },
            {
              "pitch": 63,
              "velocity": 127,
              "position": 12,
              "duration": 0.65625
            },
            {
              "pitch": 66,
              "velocity": 88,
              "position": 12,
              "duration": 0.65625
            },
            {
              "pitch": 69,
              "velocity": 88,
              "position": 12,
              "duration": 0.65625
            },
            {
              "pitch": 72,
              "velocity": 88,
              "position": 12,
              "duration": 0.65625
            },
            {
              "pitch": 60,
              "velocity": 73,
              "position": 12.666666666666666,
              "duration": 0.3229166666666667
            },
            {
              "pitch": 63,
              "velocity": 64,
              "position": 12.666666666666666,
              "duration": 0.3229166666666667
            },
            {
              "pitch": 66,
              "velocity": 64,
              "position": 12.666666666666666,
              "duration": 0.3229166666666667
            },
            {
              "pitch": 69,
              "velocity": 64,
              "position": 12.666666666666666,
              "duration": 0.3229166666666667
            },
            {
              "pitch": 62,
              "velocity": 88,
              "position": 13,
              "duration": 0.65625
            },
            {
              "pitch": 65,
              "velocity": 74,
              "position": 13,
              "duration": 0.65625
            },
            {
              "pitch": 68,
              "velocity": 74,
              "position": 13,
              "duration": 0.65625
            },
            {
              "pitch": 71,
              "velocity": 74,
              "position": 13,
              "duration": 0.65625
            },
            {
              "pitch": 60,
              "velocity": 127,
              "position": 13.666666666666666,
              "duration": 0.4375
            },
            {
              "pitch": 63,
              "velocity": 88,
              "position": 13.666666666666666,
              "duration": 0.4375
            },
            {
              "pitch": 67,
              "velocity": 88,
              "position": 13.666666666666666,
              "duration": 0.4375
            },
            {
              "pitch": 69,
              "velocity": 88,
              "position": 13.666666666666666,
              "duration": 0.4375
            },
            {
              "pitch": 36,
              "velocity": 127,
              "position": 15,
              "duration": 0.4375
            },
            {
              "pitch": 60,
              "velocity": 127,
              "position": 15,
              "duration": 0.4375
            },
            {
              "pitch": 63,
              "velocity": 88,
              "position": 15,
              "duration": 0.4375
            },
            {
              "pitch": 67,
              "velocity": 88,
              "position": 15,
              "duration": 0.4375
            },
            {
              "pitch": 69,
              "velocity": 88,
              "position": 15,
              "duration": 0.4375
            }
          ]
        },
        "5": {
          "ctab": {
            "srcChannel": 5,
            "name": "Brs",
            "accType": "PHRASE1",
            "editable": false,
            "mutedNotes": [],
            "mutedChords": [
              "1+2+5",
              "sus4",
              "1+5",
              "1+8",
              "7aug",
              "Maj7aug",
              "7(#9)",
              "7(b13)",
              "7(b9)",
              "7(13)",
              "7#11",
              "7(9)",
              "7b5",
              "7sus4",
              "7th",
              "aug",
              "Maj6(9)",
              "Maj7(9)",
              "Maj(9)",
              "Maj7#11",
              "Maj7",
              "Maj6",
              "Maj"
            ],
            "autoStart": false,
            "sourceChordNote": 0,
            "sourceChordType": "min",
            "ctb2Low": null,
            "ctb2Main": {
              "ntr": "ROOT_TRANSPOSITION",
              "ntt": "BYPASS",
              "bassOn": false,
              "chordRootUpperLimit": 1,
              "noteLowLimit": 36,
              "noteHighLimit": 82,
              "rtr": "PITCH_SHIFT"
            },
            "ctb2High": null
          },
          "notes": [
            {
              "pitch": 75,
              "velocity": 118,
              "position": 0.6666666666666666,
              "duration": 0.3229166666666667
            },
            {
              "pitch": 75,
              "velocity": 76,
              "position": 1,
              "duration": 0.3229166666666667
            },
            {
              "pitch": 79,
              "velocity": 76,
              "position": 1.3333333333333333,
              "duration": 0.3229166666666667
            },
            {
              "pitch": 81,
              "velocity": 76,
              "position": 1.6666666666666667,
              "duration": 0.3229166666666667
            },
            {
              "pitch": 75,
              "velocity": 108,
              "position": 2,
              "duration": 0.4166666666666667
            },
            {
              "pitch": 79,
              "velocity": 108,
              "position": 2,
              "duration": 0.4166666666666667
            },
            {
              "pitch": 81,
              "velocity": 108,
              "position": 2,
              "duration": 0.4166666666666667
            },
            {
              "pitch": 84,
              "velocity": 108,
              "position": 2,
              "duration": 0.4166666666666667
            },
            {
              "pitch": 72,
              "velocity": 108,
              "position": 3,
              "duration": 0.4166666666666667
            },
            {
              "pitch": 75,
              "velocity": 108,
              "position": 3,
              "duration": 0.4166666666666667
            },
            {
              "pitch": 79,
              "velocity": 108,
              "position": 3,
              "duration": 0.4166666666666667
            },
            {
              "pitch": 81,
              "velocity": 108,
              "position": 3,
              "duration": 0.4166666666666667
            },
            {
              "pitch": 75,
              "velocity": 108,
              "position": 4,
              "duration": 0.9895833333333334
            },
            {
              "pitch": 79,
              "velocity": 108,
              "position": 4,
              "duration": 0.9895833333333334
            },
            {
              "pitch": 81,
              "velocity": 108,
              "position": 4,
              "duration": 0.9895833333333334
            },
            {
              "pitch": 84,
              "velocity": 108,
              "position": 4,
              "duration": 0.9895833333333334
            },
            {
              "pitch": 72,
              "velocity": 95,
              "position": 5,
              "duration": 0.65625
            },
            {
              "pitch": 75,
              "velocity": 95,
              "position": 5,
              "duration": 0.65625
            },
            {
              "pitch": 79,
              "velocity": 95,
              "position": 5,
              "duration": 0.65625
            },
            {
              "pitch": 81,
              "velocity": 95,
              "position": 5,
              "duration": 0.65625
            },
            {
              "pitch": 75,
              "velocity": 108,
              "position": 5.666666666666667,
              "duration": 0.4166666666666667
            },
            {
              "pitch": 78,
              "velocity": 108,
              "position": 5.666666666666667,
              "duration": 0.4166666666666667
            },
            {
              "pitch": 81,
              "velocity": 108,
              "position": 5.666666666666667,
              "duration": 0.4166666666666667
            },
            {
              "pitch": 84,
              "velocity": 108,
              "position": 5.666666666666667,
              "duration": 0.4166666666666667
            },
            {
              "pitch": 72,
              "velocity": 108,
              "position": 6.666666666666667,
              "duration": 0.4166666666666667
            },
            {
              "pitch": 75,
              "velocity": 108,
              "position": 6.666666666666667,
              "duration": 0.4166666666666667
            },
            {
              "pitch": 78,
              "velocity": 108,
              "position": 6.666666666666667,
              "duration": 0.4166666666666667
            },
            {
              "pitch": 81,
              "velocity": 108,
              "position": 6.666666666666667,
              "duration": 0.4166666666666667
            },
            {
              "pitch": 75,
              "velocity": 91,
              "position": 15,
              "duration": 0.6770833333333334
            },
            {
              "pitch": 79,
              "velocity": 91,
              "position": 15,
              "duration": 0.6770833333333334
            },
            {
              "pitch": 81,
              "velocity": 91,
              "position": 15,
              "duration": 0.6770833333333334
            },
            {
              "pitch": 84,
              "velocity": 117,
              "position": 15,
              "duration": 0.6770833333333334
            }
          ]
        },
        "6": {
          "ctab": {
            "srcChannel": 6,
            "name": "Tbn",
            "accType": "PHRASE2",
            "editable": false,
            "mutedNotes": [],
            "mutedChords": [
              "1+2+5",
              "sus4",
              "1+5",
              "1+8",
              "7aug",
              "Maj7aug",
              "7(#9)",
              "7(b13)",
              "7(b9)",
              "7(13)",
              "7#11",
              "7(9)",
              "7b5",
              "7sus4",
              "7th",
              "aug",
              "Maj6(9)",
              "Maj7(9)",
              "Maj(9)",
              "Maj7#11",
              "Maj7",
              "Maj6",
              "Maj"
            ],
            "autoStart": false,
            "sourceChordNote": 0,
            "sourceChordType": "min",
            "ctb2Low": null,
            "ctb2Main": {
              "ntr": "ROOT_TRANSPOSITION",
              "ntt": "BYPASS",
              "bassOn": false,
              "chordRootUpperLimit": 7,
              "noteLowLimit": 36,
              "noteHighLimit": 67,
              "rtr": "PITCH_SHIFT"
            },
            "ctb2High": null
          },
          "notes": [
            {
              "pitch": 55,
              "velocity": 127,
              "position": 0,
              "duration": 5.989583333333333
            },
            {
              "pitch": 54,
              "velocity": 127,
              "position": 6,
              "duration": 1.8229166666666667
            },
            {
              "pitch": 57,
              "velocity": 127,
              "position": 0,
              "duration": 7.822916666666667
            },
            {
              "pitch": 60,
              "velocity": 127,
              "position": 0,
              "duration": 7.822916666666667
            },
            {
              "pitch": 63,
              "velocity": 127,
              "position": 0,
              "duration": 7.822916666666667
            },
            {
              "pitch": 36,
              "velocity": 127,
              "position": 15,
              "duration": 0.5104166666666666
            },
            {
              "pitch": 55,
              "velocity": 101,
              "position": 15,
              "duration": 0.5104166666666666
            },
            {
              "pitch": 57,
              "velocity": 101,
              "position": 15,
              "duration": 0.5104166666666666
            },
            {
              "pitch": 63,
              "velocity": 101,
              "position": 15,
              "duration": 0.5104166666666666
            }
          ]
        },
        "9": {
          "ctab": {
            "srcChannel": 9,
            "name": "Drs",
            "accType": "RHYTHM",
            "editable": false,
            "mutedNotes": [],
            "mutedChords": [],
            "autoStart": true,
            "sourceChordNote": 0,
            "sourceChordType": "Maj7",
            "ctb2Low": null,
            "ctb2Main": {
              "ntr": "ROOT_FIXED",
              "ntt": "BYPASS",
              "bassOn": false,
              "chordRootUpperLimit": 6,
              "noteLowLimit": 0,
              "noteHighLimit": 127,
              "rtr": "PITCH_SHIFT"
            },
            "ctb2High": null
          },
          "notes": [
            {
              "pitch": 35,
              "velocity": 74,
              "position": 0,
              "duration": 0.010416666666666666
            },
            {
              "pitch": 59,
              "velocity": 79,
              "position": 0,
              "duration": 0.010416666666666666
            },
            {
              "pitch": 35,
              "velocity": 74,
              "position": 1,
              "duration": 0.010416666666666666
            },
            {
              "pitch": 40,
              "velocity": 81,
              "position": 1,
              "duration": 0.010416666666666666
            },
            {
              "pitch": 44,
              "velocity": 60,
              "position": 1,
              "duration": 0.010416666666666666
            },
            {
              "pitch": 59,
              "velocity": 79,
              "position": 1,
              "duration": 0.010416666666666666
            },
            {
              "pitch": 59,
              "velocity": 46,
              "position": 1.7083333333333333,
              "duration": 0.010416666666666666
            },
            {
              "pitch": 35,
              "velocity": 74,
              "position": 2,
              "duration": 0.010416666666666666
            },
            {
              "pitch": 59,
              "velocity": 79,
              "position": 2,
              "duration": 0.010416666666666666
            },
            {
              "pitch": 35,
              "velocity": 74,
              "position": 3,
              "duration": 0.010416666666666666
            },
            {
              "pitch": 40,
              "velocity": 81,
              "position": 3,
              "duration": 0.010416666666666666
            },
            {
              "pitch": 44,
              "velocity": 60,
              "position": 3,
              "duration": 0.010416666666666666
            },
            {
              "pitch": 59,
              "velocity": 79,
              "position": 3,
              "duration": 0.010416666666666666
            },
            {
              "pitch": 59,
              "velocity": 46,
              "position": 3.7083333333333335,
              "duration": 0.010416666666666666
            },
            {
              "pitch": 35,
              "velocity": 74,
              "position": 4,
              "duration": 0.010416666666666666
            },
            {
              "pitch": 59,
              "velocity": 79,
              "position": 4,
              "duration": 0.010416666666666666
            },
            {
              "pitch": 35,
              "velocity": 74,
              "position": 5,
              "duration": 0.010416666666666666
            },
            {
              "pitch": 40,
              "velocity": 81,
              "position": 5,
              "duration": 0.010416666666666666
            },
            {
              "pitch": 44,
              "velocity": 60,
              "position": 5,
              "duration": 0.010416666666666666
            },
            {
              "pitch": 59,
              "velocity": 79,
              "position": 5,
              "duration": 0.010416666666666666
            },
            {
              "pitch": 59,
              "velocity": 46,
              "position": 5.708333333333333,
              "duration": 0.010416666666666666
            },
            {
              "pitch": 35,
              "velocity": 74,
              "position": 6,
              "duration": 0.010416666666666666
            },
            {
              "pitch": 59,
              "velocity": 79,
              "position": 6,
              "duration": 0.010416666666666666
            },
            {
              "pitch": 40,
              "velocity": 81,
              "position": 6.666666666666667,
              "duration": 0.010416666666666666
            },
            {
              "pitch": 35,
              "velocity": 74,
              "position": 7,
              "duration": 0.010416666666666666
            },
            {
              "pitch": 44,
              "velocity": 60,
              "position": 7,
              "duration": 0.010416666666666666
            },
            {
              "pitch": 59,
              "velocity": 79,
              "position": 7,
              "duration": 0.010416666666666666
            },
            {
              "pitch": 59,
              "velocity": 46,
              "position": 7.708333333333333,
              "duration": 0.010416666666666666
            },
            {
              "pitch": 35,
              "velocity": 74,
              "position": 8,
              "duration": 0.010416666666666666
            },
            {
              "pitch": 40,
              "velocity": 81,
              "position": 8,
              "duration": 0.010416666666666666
            },
            {
              "pitch": 46,
              "velocity": 72,
              "position": 8,
              "duration": 0.010416666666666666
            },
            {
              "pitch": 44,
              "velocity": 1,
              "position": 8.541666666666666,
              "duration": 0.010416666666666666
            },
            {
              "pitch": 35,
              "velocity": 74,
              "position": 15,
              "duration": 0.010416666666666666
            },
            {
              "pitch": 40,
              "velocity": 81,
              "position": 15,
              "duration": 0.010416666666666666
            },
            {
              "pitch": 46,
              "velocity": 72,
              "position": 15,
              "duration": 0.010416666666666666
            },
            {
              "pitch": 44,
              "velocity": 1,
              "position": 15.541666666666666,
              "duration": 0.010416666666666666
            }
          ]
        },
        "10": {
          "ctab": {
            "srcChannel": 10,
            "name": "Bass",
            "accType": "BASS",
            "editable": false,
            "mutedNotes": [],
            "mutedChords": [
              "dim7",
              "dim",
              "minMaj7(9)",
              "minMaj7",
              "min7(11)",
              "min7(9)",
              "min(9)",
              "m7b5",
              "min7",
              "min6",
              "min"
            ],
            "autoStart": false,
            "sourceChordNote": 0,
            "sourceChordType": "Maj",
            "ctb2Low": null,
            "ctb2Main": {
              "ntr": "ROOT_TRANSPOSITION",
              "ntt": "BYPASS",
              "bassOn": false,
              "chordRootUpperLimit": 8,
              "noteLowLimit": 28,
              "noteHighLimit": 127,
              "rtr": "PITCH_SHIFT"
            },
            "ctb2High": null
          },
          "notes": [
            {
              "pitch": 24,
              "velocity": 80,
              "position": 0,
              "duration": 0.8125
            },
            {
              "pitch": 24,
              "velocity": 80,
              "position": 1,
              "duration": 0.8125
            },
            {
              "pitch": 28,
              "velocity": 80,
              "position": 2,
              "duration": 0.8125
            },
            {
              "pitch": 28,
              "velocity": 80,
              "position": 3,
              "duration": 0.8125
            },
            {
              "pitch": 29,
              "velocity": 80,
              "position": 4,
              "duration": 0.8125
            },
            {
              "pitch": 29,
              "velocity": 80,
              "position": 5,
              "duration": 0.8125
            },
            {
              "pitch": 30,
              "velocity": 80,
              "position": 6,
              "duration": 0.8125
            },
            {
              "pitch": 30,
              "velocity": 80,
              "position": 7,
              "duration": 0.8125
            },
            {
              "pitch": 31,
              "velocity": 80,
              "position": 8,
              "duration": 0.7395833333333334
            },
            {
              "pitch": 31,
              "velocity": 110,
              "position": 8.75,
              "duration": 0.125
            },
            {
              "pitch": 24,
              "velocity": 80,
              "position": 15,
              "duration": 0.4895833333333333
            },
            {
              "pitch": 24,
              "velocity": 110,
              "position": 15.5,
              "duration": 0.125
            }
          ]
        },
        "11": {
          "ctab": {
            "srcChannel": 11,
            "name": "Gtr",
            "accType": "CHORD1",
            "editable": false,
            "mutedNotes": [],
            "mutedChords": [
              "dim7",
              "dim",
              "minMaj7(9)",
              "minMaj7",
              "min7(11)",
              "min7(9)",
              "min(9)",
              "m7b5",
              "min7",
              "min6",
              "min"
            ],
            "autoStart": false,
            "sourceChordNote": 0,
            "sourceChordType": "Maj",
            "ctb2Low": null,
            "ctb2Main": {
              "ntr": "ROOT_TRANSPOSITION",
              "ntt": "BYPASS",
              "bassOn": false,
              "chordRootUpperLimit": 5,
              "noteLowLimit": 57,
              "noteHighLimit": 68,
              "rtr": "PITCH_SHIFT"
            },
            "ctb2High": null
          },
          "notes": []
        },
        "12": {
          "ctab": {
            "srcChannel": 12,
            "name": "Pno",
            "accType": "CHORD2",
            "editable": false,
            "mutedNotes": [],
            "mutedChords": [
              "dim7",
              "dim",
              "minMaj7(9)",
              "minMaj7",
              "min7(11)",
              "min7(9)",
              "min(9)",
              "m7b5",
              "min7",
              "min6",
              "min"
            ],
            "autoStart": false,
            "sourceChordNote": 0,
            "sourceChordType": "Maj",
            "ctb2Low": null,
            "ctb2Main": {
              "ntr": "ROOT_TRANSPOSITION",
              "ntt": "BYPASS",
              "bassOn": false,
              "chordRootUpperLimit": 6,
              "noteLowLimit": 0,
              "noteHighLimit": 79,
              "rtr": "PITCH_SHIFT"
            },
            "ctb2High": null
          },
          "notes": []
        },
        "13": {
          "ctab": {
            "srcChannel": 13,
            "name": "Sax",
            "accType": "PAD",
            "editable": false,
            "mutedNotes": [],
            "mutedChords": [
              "dim7",
              "dim",
              "minMaj7(9)",
              "minMaj7",
              "min7(11)",
              "min7(9)",
              "min(9)",
              "m7b5",
              "min7",
              "min6",
              "min"
            ],
            "autoStart": false,
            "sourceChordNote": 0,
            "sourceChordType": "Maj",
            "ctb2Low": null,
            "ctb2Main": {
              "ntr": "ROOT_TRANSPOSITION",
              "ntt": "BYPASS",
              "bassOn": false,
              "chordRootUpperLimit": 7,
              "noteLowLimit": 36,
              "noteHighLimit": 72,
              "rtr": "PITCH_SHIFT"
            },
            "ctb2High": null
          },
          "notes": [
            {
              "pitch": 55,
              "velocity": 71,
              "position": 0.010416666666666666,
              "duration": 0.6458333333333334
            },
            {
              "pitch": 57,
              "velocity": 71,
              "position": 0.010416666666666666,
              "duration": 0.6458333333333334
            },
            {
              "pitch": 60,
              "velocity": 71,
              "position": 0.010416666666666666,
              "duration": 0.6458333333333334
            },
            {
              "pitch": 64,
              "velocity": 71,
              "position": 0.010416666666666666,
              "duration": 0.6458333333333334
            },
            {
              "pitch": 57,
              "velocity": 127,
              "position": 0.6666666666666666,
              "duration": 0.3229166666666667
            },
            {
              "pitch": 60,
              "velocity": 127,
              "position": 0.6666666666666666,
              "duration": 0.3229166666666667
            },
            {
              "pitch": 64,
              "velocity": 127,
              "position": 0.6666666666666666,
              "duration": 0.3229166666666667
            },
            {
              "pitch": 67,
              "velocity": 127,
              "position": 0.6666666666666666,
              "duration": 0.3229166666666667
            },
            {
              "pitch": 57,
              "velocity": 85,
              "position": 1,
              "duration": 0.65625
            },
            {
              "pitch": 60,
              "velocity": 85,
              "position": 1,
              "duration": 0.65625
            },
            {
              "pitch": 62,
              "velocity": 85,
              "position": 1,
              "duration": 0.65625
            },
            {
              "pitch": 65,
              "velocity": 85,
              "position": 1,
              "duration": 0.65625
            },
            {
              "pitch": 55,
              "velocity": 127,
              "position": 1.6666666666666667,
              "duration": 0.3229166666666667
            },
            {
              "pitch": 58,
              "velocity": 127,
              "position": 1.6666666666666667,
              "duration": 0.3229166666666667
            },
            {
              "pitch": 60,
              "velocity": 127,
              "position": 1.6666666666666667,
              "duration": 0.3229166666666667
            },
            {
              "pitch": 64,
              "velocity": 127,
              "position": 1.6666666666666667,
              "duration": 0.3229166666666667
            },
            {
              "pitch": 55,
              "velocity": 82,
              "position": 2,
              "duration": 0.4375
            },
            {
              "pitch": 58,
              "velocity": 82,
              "position": 2,
              "duration": 0.4375
            },
            {
              "pitch": 60,
              "velocity": 82,
              "position": 2,
              "duration": 0.4375
            },
            {
              "pitch": 64,
              "velocity": 82,
              "position": 2,
              "duration": 0.4375
            },
            {
              "pitch": 55,
              "velocity": 114,
              "position": 3.6666666666666665,
              "duration": 0.3229166666666667
            },
            {
              "pitch": 57,
              "velocity": 114,
              "position": 3.6666666666666665,
              "duration": 0.3229166666666667
            },
            {
              "pitch": 60,
              "velocity": 114,
              "position": 3.6666666666666665,
              "duration": 0.3229166666666667
            },
            {
              "pitch": 63,
              "velocity": 114,
              "position": 3.6666666666666665,
              "duration": 0.3229166666666667
            },
            {
              "pitch": 55,
              "velocity": 78,
              "position": 4,
              "duration": 0.65625
            },
            {
              "pitch": 57,
              "velocity": 78,
              "position": 4,
              "duration": 0.65625
            },
            {
              "pitch": 60,
              "velocity": 78,
              "position": 4,
              "duration": 0.65625
            },
            {
              "pitch": 63,
              "velocity": 78,
              "position": 4,
              "duration": 0.65625
            },
            {
              "pitch": 57,
              "velocity": 127,
              "position": 4.666666666666667,
              "duration": 0.3229166666666667
            },
            {
              "pitch": 60,
              "velocity": 127,
              "position": 4.666666666666667,
              "duration": 0.3229166666666667
            },
            {
              "pitch": 63,
              "velocity": 127,
              "position": 4.666666666666667,
              "duration": 0.3229166666666667
            },
            {
              "pitch": 67,
              "velocity": 127,
              "position": 4.666666666666667,
              "duration": 0.3229166666666667
            },
            {
              "pitch": 57,
              "velocity": 85,
              "position": 5,
              "duration": 0.65625
            },
            {
              "pitch": 60,
              "velocity": 85,
              "position": 5,
              "duration": 0.65625
            },
            {
              "pitch": 62,
              "velocity": 85,
              "position": 5,
              "duration": 0.65625
            },
            {
              "pitch": 65,
              "velocity": 85,
              "position": 5,
              "duration": 0.65625
            },
            {
              "pitch": 54,
              "velocity": 127,
              "position": 5.666666666666667,
              "duration": 0.3229166666666667
            },
            {
              "pitch": 57,
              "velocity": 127,
              "position": 5.666666666666667,
              "duration": 0.3229166666666667
            },
            {
              "pitch": 60,
              "velocity": 127,
              "position": 5.666666666666667,
              "duration": 0.3229166666666667
            },
            {
              "pitch": 63,
              "velocity": 127,
              "position": 5.666666666666667,
              "duration": 0.3229166666666667
            },
            {
              "pitch": 64,
              "velocity": 120,
              "position": 7.666666666666667,
              "duration": 0.3229166666666667
            },
            {
              "pitch": 67,
              "velocity": 88,
              "position": 7.666666666666667,
              "duration": 0.3229166666666667
            },
            {
              "pitch": 69,
              "velocity": 88,
              "position": 7.666666666666667,
              "duration": 0.3229166666666667
            },
            {
              "pitch": 72,
              "velocity": 88,
              "position": 7.666666666666667,
              "duration": 0.3229166666666667
            },
            {
              "pitch": 64,
              "velocity": 88,
              "position": 8,
              "duration": 0.65625
            },
            {
              "pitch": 67,
              "velocity": 74,
              "position": 8,
              "duration": 0.65625
            },
            {
              "pitch": 69,
              "velocity": 74,
              "position": 8,
              "duration": 0.65625
            },
            {
              "pitch": 72,
              "velocity": 74,
              "position": 8,
              "duration": 0.65625
            },
            {
              "pitch": 67,
              "velocity": 127,
              "position": 8.666666666666666,
              "duration": 0.3229166666666667
            },
            {
              "pitch": 69,
              "velocity": 88,
              "position": 8.666666666666666,
              "duration": 0.3229166666666667
            },
            {
              "pitch": 72,
              "velocity": 88,
              "position": 8.666666666666666,
              "duration": 0.3229166666666667
            },
            {
              "pitch": 76,
              "velocity": 87,
              "position": 8.666666666666666,
              "duration": 0.3229166666666667
            },
            {
              "pitch": 65,
              "velocity": 104,
              "position": 9,
              "duration": 0.65625
            },
            {
              "pitch": 69,
              "velocity": 80,
              "position": 9,
              "duration": 0.65625
            },
            {
              "pitch": 72,
              "velocity": 80,
              "position": 9,
              "duration": 0.65625
            },
            {
              "pitch": 74,
              "velocity": 87,
              "position": 9,
              "duration": 0.65625
            },
            {
              "pitch": 64,
              "velocity": 127,
              "position": 9.666666666666666,
              "duration": 0.3229166666666667
            },
            {
              "pitch": 67,
              "velocity": 88,
              "position": 9.666666666666666,
              "duration": 0.3229166666666667
            },
            {
              "pitch": 69,
              "velocity": 88,
              "position": 9.666666666666666,
              "duration": 0.3229166666666667
            },
            {
              "pitch": 72,
              "velocity": 84,
              "position": 9.666666666666666,
              "duration": 0.3229166666666667
            },
            {
              "pitch": 64,
              "velocity": 104,
              "position": 10,
              "duration": 0.65625
            },
            {
              "pitch": 67,
              "velocity": 78,
              "position": 10,
              "duration": 0.65625
            },
            {
              "pitch": 69,
              "velocity": 78,
              "position": 10,
              "duration": 0.65625
            },
            {
              "pitch": 72,
              "velocity": 78,
              "position": 10,
              "duration": 0.65625
            },
            {
              "pitch": 60,
              "velocity": 127,
              "position": 10.666666666666666,
              "duration": 0.3229166666666667
            },
            {
              "pitch": 64,
              "velocity": 81,
              "position": 10.666666666666666,
              "duration": 0.3229166666666667
            },
            {
              "pitch": 67,
              "velocity": 81,
              "position": 10.666666666666666,
              "duration": 0.3229166666666667
            },
            {
              "pitch": 69,
              "velocity": 81,
              "position": 10.666666666666666,
              "duration": 0.3229166666666667
            },
            {
              "pitch": 57,
              "velocity": 73,
              "position": 11,
              "duration": 0.65625
            },
            {
              "pitch": 60,
              "velocity": 62,
              "position": 11,
              "duration": 0.65625
            },
            {
              "pitch": 64,
              "velocity": 62,
              "position": 11,
              "duration": 0.65625
            },
            {
              "pitch": 67,
              "velocity": 68,
              "position": 11,
              "duration": 0.65625
            },
            {
              "pitch": 55,
              "velocity": 79,
              "position": 11.666666666666666,
              "duration": 0.3229166666666667
            },
            {
              "pitch": 57,
              "velocity": 65,
              "position": 11.666666666666666,
              "duration": 0.3229166666666667
            },
            {
              "pitch": 60,
              "velocity": 65,
              "position": 11.666666666666666,
              "duration": 0.3229166666666667
            },
            {
              "pitch": 64,
              "velocity": 65,
              "position": 11.666666666666666,
              "duration": 0.3229166666666667
            },
            {
              "pitch": 63,
              "velocity": 127,
              "position": 12,
              "duration": 0.65625
            },
            {
              "pitch": 66,
              "velocity": 88,
              "position": 12,
              "duration": 0.65625
            },
            {
              "pitch": 69,
              "velocity": 88,
              "position": 12,
              "duration": 0.65625
            },
            {
              "pitch": 72,
              "velocity": 88,
              "position": 12,
              "duration": 0.65625
            },
            {
              "pitch": 60,
              "velocity": 79,
              "position": 12.666666666666666,
              "duration": 0.3229166666666667
            },
            {
              "pitch": 63,
              "velocity": 65,
              "position": 12.666666666666666,
              "duration": 0.3229166666666667
            },
            {
              "pitch": 66,
              "velocity": 65,
              "position": 12.666666666666666,
              "duration": 0.3229166666666667
            },
            {
              "pitch": 69,
              "velocity": 65,
              "position": 12.666666666666666,
              "duration": 0.3229166666666667
            },
            {
              "pitch": 62,
              "velocity": 88,
              "position": 13,
              "duration": 0.65625
            },
            {
              "pitch": 65,
              "velocity": 80,
              "position": 13,
              "duration": 0.65625
            },
            {
              "pitch": 68,
              "velocity": 80,
              "position": 13,
              "duration": 0.65625
            },
            {
              "pitch": 71,
              "velocity": 80,
              "position": 13,
              "duration": 0.65625
            },
            {
              "pitch": 60,
              "velocity": 127,
              "position": 13.666666666666666,
              "duration": 0.4375
            },
            {
              "pitch": 64,
              "velocity": 88,
              "position": 13.666666666666666,
              "duration": 0.4375
            },
            {
              "pitch": 67,
              "velocity": 88,
              "position": 13.666666666666666,
              "duration": 0.4375
            },
            {
              "pitch": 69,
              "velocity": 88,
              "position": 13.666666666666666,
              "duration": 0.4375
            },
            {
              "pitch": 36,
              "velocity": 127,
              "position": 15,
              "duration": 0.4375
            },
            {
              "pitch": 60,
              "velocity": 113,
              "position": 15,
              "duration": 0.4375
            },
            {
              "pitch": 64,
              "velocity": 81,
              "position": 15,
              "duration": 0.4375
            },
            {
              "pitch": 67,
              "velocity": 81,
              "position": 15,
              "duration": 0.4375
            },
            {
              "pitch": 69,
              "velocity": 81,
              "position": 15,
              "duration": 0.4375
            }
          ]
        },
        "14": {
          "ctab": {
            "srcChannel": 14,
            "name": "Brs",
            "accType": "PHRASE1",
            "editable": false,
            "mutedNotes": [],
            "mutedChords": [
              "dim7",
              "dim",
              "minMaj7(9)",
              "minMaj7",
              "min7(11)",
              "min7(9)",
              "min(9)",
              "m7b5",
              "min7",
              "min6",
              "min"
            ],
            "autoStart": false,
            "sourceChordNote": 0,
            "sourceChordType": "Maj",
            "ctb2Low": null,
            "ctb2Main": {
              "ntr": "ROOT_TRANSPOSITION",
              "ntt": "BYPASS",
              "bassOn": false,
              "chordRootUpperLimit": 1,
              "noteLowLimit": 36,
              "noteHighLimit": 82,
              "rtr": "PITCH_SHIFT"
            },
            "ctb2High": null
          },
          "notes": [
            {
              "pitch": 76,
              "velocity": 121,
              "position": 0.6666666666666666,
              "duration": 0.3229166666666667
            },
            {
              "pitch": 76,
              "velocity": 71,
              "position": 1,
              "duration": 0.3229166666666667
            },
            {
              "pitch": 79,
              "velocity": 71,
              "position": 1.3333333333333333,
              "duration": 0.3229166666666667
            },
            {
              "pitch": 81,
              "velocity": 71,
              "position": 1.6666666666666667,
              "duration": 0.3229166666666667
            },
            {
              "pitch": 76,
              "velocity": 107,
              "position": 2,
              "duration": 0.4166666666666667
            },
            {
              "pitch": 79,
              "velocity": 107,
              "position": 2,
              "duration": 0.4166666666666667
            },
            {
              "pitch": 81,
              "velocity": 107,
              "position": 2,
              "duration": 0.4166666666666667
            },
            {
              "pitch": 84,
              "velocity": 108,
              "position": 2,
              "duration": 0.4166666666666667
            },
            {
              "pitch": 72,
              "velocity": 100,
              "position": 3,
              "duration": 0.4166666666666667
            },
            {
              "pitch": 76,
              "velocity": 100,
              "position": 3,
              "duration": 0.4166666666666667
            },
            {
              "pitch": 79,
              "velocity": 100,
              "position": 3,
              "duration": 0.4166666666666667
            },
            {
              "pitch": 81,
              "velocity": 101,
              "position": 3,
              "duration": 0.4166666666666667
            },
            {
              "pitch": 75,
              "velocity": 107,
              "position": 4,
              "duration": 0.9895833333333334
            },
            {
              "pitch": 79,
              "velocity": 107,
              "position": 4,
              "duration": 0.9895833333333334
            },
            {
              "pitch": 81,
              "velocity": 107,
              "position": 4,
              "duration": 0.9895833333333334
            },
            {
              "pitch": 84,
              "velocity": 108,
              "position": 4,
              "duration": 0.9895833333333334
            },
            {
              "pitch": 72,
              "velocity": 95,
              "position": 5,
              "duration": 0.65625
            },
            {
              "pitch": 75,
              "velocity": 95,
              "position": 5,
              "duration": 0.65625
            },
            {
              "pitch": 79,
              "velocity": 95,
              "position": 5,
              "duration": 0.65625
            },
            {
              "pitch": 81,
              "velocity": 96,
              "position": 5,
              "duration": 0.65625
            },
            {
              "pitch": 75,
              "velocity": 107,
              "position": 5.666666666666667,
              "duration": 0.4166666666666667
            },
            {
              "pitch": 78,
              "velocity": 107,
              "position": 5.666666666666667,
              "duration": 0.4166666666666667
            },
            {
              "pitch": 81,
              "velocity": 107,
              "position": 5.666666666666667,
              "duration": 0.4166666666666667
            },
            {
              "pitch": 84,
              "velocity": 108,
              "position": 5.666666666666667,
              "duration": 0.4166666666666667
            },
            {
              "pitch": 72,
              "velocity": 107,
              "position": 6.666666666666667,
              "duration": 0.4166666666666667
            },
            {
              "pitch": 75,
              "velocity": 107,
              "position": 6.666666666666667,
              "duration": 0.4166666666666667
            },
            {
              "pitch": 78,
              "velocity": 107,
              "position": 6.666666666666667,
              "duration": 0.4166666666666667
            },
            {
              "pitch": 81,
              "velocity": 108,
              "position": 6.666666666666667,
              "duration": 0.4166666666666667
            },
            {
              "pitch": 76,
              "velocity": 88,
              "position": 15,
              "duration": 0.6770833333333334
            },
            {
              "pitch": 79,
              "velocity": 88,
              "position": 15,
              "duration": 0.6770833333333334
            },
            {
              "pitch": 81,
              "velocity": 88,
              "position": 15,
              "duration": 0.6770833333333334
            },
            {
              "pitch": 84,
              "velocity": 114,
              "position": 15,
              "duration": 0.6770833333333334
            }
          ]
        },
        "15": {
          "ctab": {
            "srcChannel": 15,
            "name": "Tbn",
            "accType": "PHRASE2",
            "editable": false,
            "mutedNotes": [],
            "mutedChords": [
              "dim7",
              "dim",
              "minMaj7(9)",
              "minMaj7",
              "min7(11)",
              "min7(9)",
              "min(9)",
              "m7b5",
              "min7",
              "min6",
              "min"
            ],
            "autoStart": false,
            "sourceChordNote": 0,
            "sourceChordType": "Maj",
            "ctb2Low": null,
            "ctb2Main": {
              "ntr": "ROOT_TRANSPOSITION",
              "ntt": "BYPASS",
              "bassOn": false,
              "chordRootUpperLimit": 7,
              "noteLowLimit": 36,
              "noteHighLimit": 67,
              "rtr": "PITCH_SHIFT"
            },
            "ctb2High": null
          },
          "notes": [
            {
              "pitch": 64,
              "velocity": 127,
              "position": 0,
              "duration": 3.9895833333333335
            },
            {
              "pitch": 55,
              "velocity": 127,
              "position": 0,
              "duration": 5.989583333333333
            },
            {
              "pitch": 54,
              "velocity": 127,
              "position": 6,
              "duration": 1.8229166666666667
            },
            {
              "pitch": 57,
              "velocity": 127,
              "position": 0,
              "duration": 7.822916666666667
            },
            {
              "pitch": 60,
              "velocity": 127,
              "position": 0,
              "duration": 7.822916666666667
            },
            {
              "pitch": 63,
              "velocity": 127,
              "position": 4,
              "duration": 3.8229166666666665
            },
            {
              "pitch": 36,
              "velocity": 127,
              "position": 15,
              "duration": 0.5104166666666666
            },
            {
              "pitch": 55,
              "velocity": 101,
              "position": 15,
              "duration": 0.5104166666666666
            },
            {
              "pitch": 57,
              "velocity": 101,
              "position": 15,
              "duration": 0.5104166666666666
            },
            {
              "pitch": 64,
              "velocity": 101,
              "position": 15,
              "duration": 0.5104166666666666
            }
          ]
        }
      }
    }
  }
}