{
  "name": "GypsySwing.S173.prs",
  "tempo": 232,
  "timeSignature": "4/4",
  "ticksPerQuarter": 1920,
  "sffType": "SFF1",
  "division": "EIGHTH_SHUFFLE",
  "parts": {
    "Main_A": {
      "type": "Main_A",
      "sizeInBeats": 16,
      "channels": {
        "7": {
          "ctab": {
            "srcChannel": 7,
            "name": "CC_Crash",
            "accType": "RHYTHM",
            "editable": false,
            "mutedNotes": [],
            "mutedChords": [
              "1+2+5",
              "sus4",
              "1+5",
              "1+8",
              "7aug",
              "Maj7aug",
              "7(#9)",
              "7(b13)",
              "7(b9)",
              "7(13)",
              "7#11",
              "7(9)",
              "7b5",
              "7sus4",
              "7th",
              "dim7",
              "dim",
              "minMaj7(9)",
              "minMaj7",
              "min7(11)",
              "min7(9)",
              "min(9)",
              "m7b5",
              "min7",
              "min6",
              "min",
              "aug",
              "Maj6(9)",
              "Maj7(9)",
              "Maj(9)",
              "Maj7#11",
              "Maj7",
              "Maj6",
              "Maj"
            ],
            "autoStart": true,
            "sourceChordNote": 0,
            "sourceChordType": "Maj",
            "ctb2Low": null,
            "ctb2Main": {
              "ntr": "ROOT_FIXED",
              "ntt": "BYPASS",
              "bassOn": false,
              "chordRootUpperLimit": 0,
              "noteLowLimit": 0,
              "noteHighLimit": 127,
              "rtr": "RETRIGGER"
            },
            "ctb2High": null
          },
          "notes": []
        },
        "8": {
          "ctab": {
            "srcChannel": 8,
            "name": "Brush",
            "accType": "SUBRHYTHM",
            "editable": false,
            "mutedNotes": [],
            "mutedChords": [],
            "autoStart": true,
            "sourceChordNote": 0,
            "sourceChordType": "Maj7",
            "ctb2Low": null,
            "ctb2Main": {
              "ntr": "ROOT_FIXED",
              "ntt": "BYPASS",
              "bassOn": false,
              "chordRootUpperLimit": 6,
              "noteLowLimit": 0,
              "noteHighLimit": 127,
              "rtr": "PITCH_SHIFT"
            },
            "ctb2High": null
          },
          "notes": []
        },
        "9": {
          "ctab": {
            "srcChannel": 9,
            "name": "Brush",
            "accType": "RHYTHM",
            "editable": false,
            "mutedNotes": [],
            "mutedChords": [],
            "autoStart": true,
            "sourceChordNote": 0,
            "sourceChordType": "Maj7",
            "ctb2Low": null,
            "ctb2Main": {
              "ntr": "ROOT_FIXED",
              "ntt": "BYPASS",
              "bassOn": false,
              "chordRootUpperLimit": 6,
              "noteLowLimit": 0,
              "noteHighLimit": 127,
              "rtr": "PITCH_SHIFT"
            },
            "ctb2High": null
          },
          "notes": [
            {
              "pitch": 33,
              "velocity": 45,
              "position": 0,
              "duration": 0.03125
            },
            {
              "pitch": 44,
              "velocity": 51,
              "position": 1,
              "duration": 0.052083333333333336
            },
            {
              "pitch": 33,
              "velocity": 45,
              "position": 2,
              "duration": 0.03125
            },
            {
              "pitch": 44,
              "velocity": 50,
              "position": 3,
              "duration": 0.052083333333333336
            },
            {
              "pitch": 33,
              "velocity": 45,
              "position": 4,
              "duration": 0.03125
            },
            {
              "pitch": 44,
              "velocity": 51,
              "position": 5,
              "duration": 0.052083333333333336
            },
            {
              "pitch": 33,
              "velocity": 45,
              "position": 6,
              "duration": 0.03125
            },
            {
              "pitch": 44,
              "velocity": 51,
              "position": 7,
              "duration": 0.052083333333333336
            },
            {
              "pitch": 33,
              "velocity": 45,
              "position": 8,
              "duration": 0.03125
            },
            {
              "pitch": 44,
              "velocity": 51,
              "position": 9,
              "duration": 0.052083333333333336
            },
            {
              "pitch": 33,
              "velocity": 45,
              "position": 10,
              "duration": 0.03125
            },
            {
              "pitch": 44,
              "velocity": 51,
              "position": 11,
              "duration": 0.052083333333333336
            },
            {
              "pitch": 33,
              "velocity": 45,
              "position": 12,
              "duration": 0.03125
            },
            {
              "pitch": 44,
              "velocity": 51,
              "position": 13,
              "duration": 0.052083333333333336
            },
            {
              "pitch": 33,
              "velocity": 45,
              "position": 14,
              "duration": 0.03125
            },
            {
              "pitch": 44,
              "velocity": 51,
              "position": 15,
              "duration": 0.052083333333333336
            }
          ]
        },
        "10": {
          "ctab": {
            "srcChannel": 10,
            "name": "Bass 32",
            "accType": "BASS",
            "editable": false,
            "mutedNotes": [],
            "mutedChords": [],
            "autoStart": false,
            "sourceChordNote": 0,
            "sourceChordType": "Maj7",
            "ctb2Low": null,
            "ctb2Main": {
              "ntr": "ROOT_TRANSPOSITION",
              "ntt": "MELODY",
              "bassOn": true,
              "chordRootUpperLimit": 8,
              "noteLowLimit": 28,
              "noteHighLimit": 127,
              "rtr": "PITCH_SHIFT_TO_ROOT"
            },
            "ctb2High": null
          },
          "notes": [
            {
              "pitch": 24,
              "velocity": 88,
              "position": 0,
              "duration": 0.9583333333333334
            },
            {
              "pitch": 31,
              "velocity": 79,
              "position": 2,
              "duration": 0.9583333333333334
            },
            {
              "pitch": 24,
              "velocity": 86,
              "position": 4,
              "duration": 0.9583333333333334
            },
            {
              "pitch": 31,
              "velocity": 77,
              "position": 6,
              "duration": 0.9583333333333334
            },
            {
              "pitch": 24,
              "velocity": 88,
              "position": 8,
              "duration": 0.9583333333333334
            },
            {
              "pitch": 31,
              "velocity": 79,
              "position": 10,
              "duration": 0.9583333333333334
            },
            {
              "pitch": 24,
              "velocity": 88,
              "position": 12,
              "duration": 0.9583333333333334
            },
            {
              "pitch": 31,
              "velocity": 77,
              "position": 14,
              "duration": 0.9583333333333334
            }
          ]
        },
        "11": {
          "ctab": {
            "srcChannel": 11,
            "name": "Gtr 26",
            "accType": "CHORD1",
            "editable": false,
            "mutedNotes": [],
            "mutedChords": [],
            "autoStart": false,
            "sourceChordNote": 0,
            "sourceChordType": "min7(11)",
            "ctb2Low": null,
            "ctb2Main": {
              "ntr": "ROOT_FIXED",
              "ntt": "CHORD",
              "bassOn": false,
              "chordRootUpperLimit": 7,
              "noteLowLimit": 50,
              "noteHighLimit": 127,
              "rtr": "PITCH_SHIFT"
            },
            "ctb2High": null
          },
          "notes": [
            {
              "pitch": 51,
              "velocity": 47,
              "position": 0,
              "duration": 0.7291666666666666
            },
            {
              "pitch": 53,
              "velocity": 47,
              "position": 0.010416666666666666,
              "duration": 0.7291666666666666
            },
            {
              "pitch": 58,
              "velocity": 41,
              "position": 0.020833333333333332,
              "duration": 0.7291666666666666
            },
            {
              "pitch": 51,
              "velocity": 83,
              "position": 1,
              "duration": 0.25
            },
            {
              "pitch": 53,
              "velocity": 78,
              "position": 1.0104166666666667,
              "duration": 0.25
            },
            {
              "pitch": 58,
              "velocity": 73,
              "position": 1.0208333333333333,
              "duration": 0.25
            },
            {
              "pitch": 51,
              "velocity": 52,
              "position": 2,
              "duration": 0.7291666666666666
            },
            {
              "pitch": 53,
              "velocity": 47,
              "position": 2.0104166666666665,
              "duration": 0.7291666666666666
            },
            {
              "pitch": 58,
              "velocity": 41,
              "position": 2.0208333333333335,
              "duration": 0.7291666666666666
            },
            {
              "pitch": 51,
              "velocity": 83,
              "position": 3,
              "duration": 0.25
            },
            {
              "pitch": 53,
              "velocity": 78,
              "position": 3.0104166666666665,
              "duration": 0.25
            },
            {
              "pitch": 58,
              "velocity": 73,
              "position": 3.0208333333333335,
              "duration": 0.25
            },
            {
              "pitch": 51,
              "velocity": 52,
              "position": 4,
              "duration": 0.7291666666666666
            },
            {
              "pitch": 53,
              "velocity": 47,
              "position": 4.010416666666667,
              "duration": 0.7291666666666666
            },
            {
              "pitch": 58,
              "velocity": 41,
              "position": 4.020833333333333,
              "duration": 0.7291666666666666
            },
            {
              "pitch": 51,
              "velocity": 83,
              "position": 5,
              "duration": 0.25
            },
            {
              "pitch": 53,
              "velocity": 78,
              "position": 5.010416666666667,
              "duration": 0.25
            },
            {
              "pitch": 58,
              "velocity": 73,
              "position": 5.020833333333333,
              "duration": 0.25
            },
            {
              "pitch": 51,
              "velocity": 52,
              "position": 6,
              "duration": 0.7291666666666666
            },
            {
              "pitch": 53,
              "velocity": 47,
              "position": 6.010416666666667,
              "duration": 0.7291666666666666
            },
            {
              "pitch": 58,
              "velocity": 41,
              "position": 6.020833333333333,
              "duration": 0.7291666666666666
            },
            {
              "pitch": 51,
              "velocity": 83,
              "position": 7,
              "duration": 0.25
            },
            {
              "pitch": 53,
              "velocity": 78,
              "position": 7.010416666666667,
              "duration": 0.25
            },
            {
              "pitch": 58,
              "velocity": 73,
              "position": 7.020833333333333,
              "duration": 0.25
            },
            {
              "pitch": 51,
              "velocity": 52,
              "position": 8,
              "duration": 0.7291666666666666
            },
            {
              "pitch": 53,
              "velocity": 47,
              "position": 8.010416666666666,
              "duration": 0.7291666666666666
            },
            {
              "pitch": 58,
              "velocity": 41,
              "position": 8.020833333333334,
              "duration": 0.7291666666666666
            },
            {
              "pitch": 51,
              "velocity": 83,
              "position": 9,
              "duration": 0.25
            },
            {
              "pitch": 53,
              "velocity": 78,
              "position": 9.010416666666666,
              "duration": 0.25
            },
            {
              "pitch": 58,
              "velocity": 73,
              "position": 9.020833333333334,
              "duration": 0.25
            },
            {
              "pitch": 51,
              "velocity": 52,
              "position": 10,
              "duration": 0.7291666666666666
            },
            {
              "pitch": 53,
              "velocity": 47,
              "position": 10.010416666666666,
              "duration": 0.7291666666666666
            },
            {
              "pitch": 58,
              "velocity": 41,
              "position": 10.020833333333334,
              "duration": 0.7291666666666666
            },
            {
              "pitch": 51,
              "velocity": 83,
              "position": 11,
              "duration": 0.25
            },
            {
              "pitch": 53,
              "velocity": 78,
              "position": 11.010416666666666,
              "duration": 0.25
            },
            {
              "pitch": 58,
              "velocity": 73,
              "position": 11.020833333333334,
              "duration": 0.25
            },
            {
              "pitch": 51,
              "velocity": 52,
              "position": 12,
              "duration": 0.7291666666666666
            },
            {
              "pitch": 53,
              "velocity": 47,
              "position": 12.010416666666666,
              "duration": 0.7291666666666666
            },
            {
              "pitch": 58,
              "velocity": 51,
              "position": 12.020833333333334,
              "duration": 0.7291666666666666
            },
            {
              "pitch": 51,
              "velocity": 83,
              "position": 13,
              "duration": 0.25
            },
            {
              "pitch": 53,
              "velocity": 82,
              "position": 13.010416666666666,
              "duration": 0.25
            },
            {
              "pitch": 58,
              "velocity": 72,
              "position": 13.020833333333334,
              "duration": 0.25
            },
            {
              "pitch": 58,
              "velocity": 51,
              "position": 14.020833333333334,
              "duration": 0.5520833333333334
            },
            {
              "pitch": 53,
              "velocity": 47,
              "position": 14.010416666666666,
              "duration": 0.6145833333333334
            },
            {
              "pitch": 51,
              "velocity": 52,
              "position": 14,
              "duration": 0.7291666666666666
            },
            {
              "pitch": 51,
              "velocity": 83,
              "position": 15,
              "duration": 0.375
            },
            {
              "pitch": 53,
              "velocity": 78,
              "position": 15.010416666666666,
              "duration": 0.375
            },
            {
              "pitch": 58,
              "velocity": 73,
              "position": 15.020833333333334,
              "duration": 0.4166666666666667
            }
          ]
        },
        "12": {
          "ctab": {
            "srcChannel": 12,
            "name": "Gtr 24",
            "accType": "CHORD2",
            "editable": false,
            "mutedNotes": [],
            "mutedChords": [],
            "autoStart": false,
            "sourceChordNote": 0,
            "sourceChordType": "min7(11)",
            "ctb2Low": null,
            "ctb2Main": {
              "ntr": "ROOT_FIXED",
              "ntt": "CHORD",
              "bassOn": false,
              "chordRootUpperLimit": 7,
              "noteLowLimit": 50,
              "noteHighLimit": 127,
              "rtr": "PITCH_SHIFT"
            },
            "ctb2High": null
          },
          "notes": [
            {
              "pitch": 53,
              "velocity": 33,
              "position": 1,
              "duration": 0.25
            },
            {
              "pitch": 58,
              "velocity": 46,
              "position": 1.0104166666666667,
              "duration": 0.25
            },
            {
              "pitch": 63,
              "velocity": 60,
              "position": 1.0208333333333333,
              "duration": 0.25
            },
            {
              "pitch": 53,
              "velocity": 33,
              "position": 3,
              "duration": 0.25
            },
            {
              "pitch": 58,
              "velocity": 46,
              "position": 3.0104166666666665,
              "duration": 0.25
            },
            {
              "pitch": 63,
              "velocity": 69,
              "position": 3.0208333333333335,
              "duration": 0.25
            },
            {
              "pitch": 53,
              "velocity": 33,
              "position": 5,
              "duration": 0.25
            },
            {
              "pitch": 58,
              "velocity": 46,
              "position": 5.010416666666667,
              "duration": 0.25
            },
            {
              "pitch": 63,
              "velocity": 69,
              "position": 5.020833333333333,
              "duration": 0.25
            },
            {
              "pitch": 53,
              "velocity": 33,
              "position": 7,
              "duration": 0.25
            },
            {
              "pitch": 58,
              "velocity": 46,
              "position": 7.010416666666667,
              "duration": 0.25
            },
            {
              "pitch": 63,
              "velocity": 69,
              "position": 7.020833333333333,
              "duration": 0.25
            },
            {
              "pitch": 53,
              "velocity": 33,
              "position": 9,
              "duration": 0.25
            },
            {
              "pitch": 58,
              "velocity": 46,
              "position": 9.010416666666666,
              "duration": 0.25
            },
            {
              "pitch": 63,
              "velocity": 69,
              "position": 9.020833333333334,
              "duration": 0.25
            },
            {
              "pitch": 53,
              "velocity": 33,
              "position": 11,
              "duration": 0.25
            },
            {
              "pitch": 58,
              "velocity": 46,
              "position": 11.010416666666666,
              "duration": 0.25
            },
            {
              "pitch": 63,
              "velocity": 69,
              "position": 11.020833333333334,
              "duration": 0.25
            },
            {
              "pitch": 53,
              "velocity": 33,
              "position": 13,
              "duration": 0.25
            },
            {
              "pitch": 58,
              "velocity": 46,
              "position": 13.010416666666666,
              "duration": 0.25
            },
            {
              "pitch": 63,
              "velocity": 69,
              "position": 13.020833333333334,
              "duration": 0.25
            },
            {
              "pitch": 53,
              "velocity": 33,
              "position": 15,
              "duration": 0.25
            },
            {
              "pitch": 58,
              "velocity": 46,
              "position": 15.010416666666666,
              "duration": 0.25
            },
            {
              "pitch": 63,
              "velocity": 69,
              "position": 15.020833333333334,
              "duration": 0.25
            }
          ]
        },
        "13": {
          "ctab": {
            "srcChannel": 13,
            "name": "Gtr 26",
            "accType": "CHORD1",
            "editable": false,
            "mutedNotes": [],
            "mutedChords": [
              "1+2+5",
              "sus4",
              "1+5",
              "1+8",
              "Maj7aug",
              "dim",
              "minMaj7(9)",
              "minMaj7",
              "min6",
              "min",
              "aug",
              "Maj7(9)",
              "Maj7#11",
              "Maj7",
              "Maj6",
              "Maj"
            ],
            "autoStart": false,
            "sourceChordNote": 0,
            "sourceChordType": "Maj7",
            "ctb2Low": null,
            "ctb2Main": {
              "ntr": "ROOT_TRANSPOSITION",
              "ntt": "MELODY",
              "bassOn": false,
              "chordRootUpperLimit": 2,
              "noteLowLimit": 0,
              "noteHighLimit": 66,
              "rtr": "PITCH_SHIFT"
            },
            "ctb2High": null
          },
          "notes": [
            {
              "pitch": 60,
              "velocity": 41,
              "position": 0,
              "duration": 0.7291666666666666
            },
            {
              "pitch": 60,
              "velocity": 73,
              "position": 1,
              "duration": 0.25
            },
            {
              "pitch": 60,
              "velocity": 41,
              "position": 2,
              "duration": 0.7291666666666666
            },
            {
              "pitch": 60,
              "velocity": 73,
              "position": 3,
              "duration": 0.25
            },
            {
              "pitch": 60,
              "velocity": 41,
              "position": 4,
              "duration": 0.7291666666666666
            },
            {
              "pitch": 60,
              "velocity": 73,
              "position": 5,
              "duration": 0.25
            },
            {
              "pitch": 60,
              "velocity": 41,
              "position": 6,
              "duration": 0.7291666666666666
            },
            {
              "pitch": 60,
              "velocity": 73,
              "position": 7,
              "duration": 0.25
            },
            {
              "pitch": 60,
              "velocity": 41,
              "position": 8,
              "duration": 0.7291666666666666
            },
            {
              "pitch": 60,
              "velocity": 73,
              "position": 9,
              "duration": 0.25
            },
            {
              "pitch": 60,
              "velocity": 41,
              "position": 10,
              "duration": 0.7291666666666666
            },
            {
              "pitch": 60,
              "velocity": 73,
              "position": 11,
              "duration": 0.25
            },
            {
              "pitch": 60,
              "velocity": 51,
              "position": 12,
              "duration": 0.7291666666666666
            },
            {
              "pitch": 60,
              "velocity": 72,
              "position": 13,
              "duration": 0.25
            },
            {
              "pitch": 60,
              "velocity": 51,
              "position": 14,
              "duration": 0.5520833333333334
            },
            {
              "pitch": 60,
              "velocity": 73,
              "position": 15,
              "duration": 0.4166666666666667
            }
          ]
        },
        "14": {
          "ctab": {
            "srcChannel": 14,
            "name": "Gtr 24rt",
            "accType": "CHORD2",
            "editable": false,
            "mutedNotes": [],
            "mutedChords": [
              "1+2+5",
              "sus4",
              "1+5",
              "1+8",
              "Maj7aug",
              "dim",
              "minMaj7(9)",
              "minMaj7",
              "min6",
              "min",
              "aug",
              "Maj7(9)",
              "Maj7#11",
              "Maj7",
              "Maj6",
              "Maj"
            ],
            "autoStart": false,
            "sourceChordNote": 0,
            "sourceChordType": "Maj7",
            "ctb2Low": null,
            "ctb2Main": {
              "ntr": "ROOT_TRANSPOSITION",
              "ntt": "MELODY",
              "bassOn": false,
              "chordRootUpperLimit": 6,
              "noteLowLimit": 0,
              "noteHighLimit": 127,
              "rtr": "PITCH_SHIFT"
            },
            "ctb2High": null
          },
          "notes": [
            {
              "pitch": 60,
              "velocity": 60,
              "position": 1.0104166666666667,
              "duration": 0.25
            },
            {
              "pitch": 60,
              "velocity": 60,
              "position": 3.0104166666666665,
              "duration": 0.25
            },
            {
              "pitch": 60,
              "velocity": 60,
              "position": 5.010416666666667,
              "duration": 0.25
            },
            {
              "pitch": 60,
              "velocity": 60,
              "position": 7.010416666666667,
              "duration": 0.25
            },
            {
              "pitch": 60,
              "velocity": 60,
              "position": 9.010416666666666,
              "duration": 0.25
            },
            {
              "pitch": 60,
              "velocity": 60,
              "position": 11.010416666666666,
              "duration": 0.25
            },
            {
              "pitch": 60,
              "velocity": 60,
              "position": 13.010416666666666,
              "duration": 0.25
            },
            {
              "pitch": 60,
              "velocity": 60,
              "position": 15.010416666666666,
              "duration": 0.25
            }
          ]
        }
      }
    },
    "Main_B": {
      "type": "Main_B",
      "sizeInBeats": 16,
      "channels": {
        "7": {
          "ctab": {
            "srcChannel": 7,
            "name": "CC_Crash",
            "accType": "RHYTHM",
            "editable": false,
            "mutedNotes": [],
            "mutedChords": [
              "1+2+5",
              "sus4",
              "1+5",
              "1+8",
              "7aug",
              "Maj7aug",
              "7(#9)",
              "7(b13)",
              "7(b9)",
              "7(13)",
              "7#11",
              "7(9)",
              "7b5",
              "7sus4",
              "7th",
              "dim7",
              "dim",
              "minMaj7(9)",
              "minMaj7",
              "min7(11)",
              "min7(9)",
              "min(9)",
              "m7b5",
              "min7",
              "min6",
              "min",
              "aug",
              "Maj6(9)",
              "Maj7(9)",
              "Maj(9)",
              "Maj7#11",
              "Maj7",
              "Maj6",
              "Maj"
            ],
            "autoStart": true,
            "sourceChordNote": 0,
            "sourceChordType": "Maj",
            "ctb2Low": null,
            "ctb2Main": {
              "ntr": "ROOT_FIXED",
              "ntt": "BYPASS",
              "bassOn": false,
              "chordRootUpperLimit": 0,
              "noteLowLimit": 0,
              "noteHighLimit": 127,
              "rtr": "RETRIGGER"
            },
            "ctb2High": null
          },
          "notes": []
        },
        "8": {
          "ctab": {
            "srcChannel": 8,
            "name": "Brush",
            "accType": "SUBRHYTHM",
            "editable": false,
            "mutedNotes": [],
            "mutedChords": [],
            "autoStart": true,
            "sourceChordNote": 0,
            "sourceChordType": "Maj7",
            "ctb2Low": null,
            "ctb2Main": {
              "ntr": "ROOT_FIXED",
              "ntt": "BYPASS",
              "bassOn": false,
              "chordRootUpperLimit": 6,
              "noteLowLimit": 0,
              "noteHighLimit": 127,
              "rtr": "PITCH_SHIFT"
            },
            "ctb2High": null
          },
          "notes": []
        },
        "9": {
          "ctab": {
            "srcChannel": 9,
            "name": "Brush",
            "accType": "RHYTHM",
            "editable": false,
            "mutedNotes": [],
            "mutedChords": [],
            "autoStart": true,
            "sourceChordNote": 0,
            "sourceChordType": "Maj7",
            "ctb2Low": null,
            "ctb2Main": {
              "ntr": "ROOT_FIXED",
              "ntt": "BYPASS",
              "bassOn": false,
              "chordRootUpperLimit": 6,
              "noteLowLimit": 0,
              "noteHighLimit": 127,
              "rtr": "PITCH_SHIFT"
            },
            "ctb2High": null
          },
          "notes": [
            {
              "pitch": 33,
              "velocity": 45,
              "position": 0,
              "duration": 0.03125
            },
            {
              "pitch": 27,
              "velocity": 36,
              "position": 0.6458333333333334,
              "duration": 0.020833333333333332
            },
            {
              "pitch": 28,
              "velocity": 35,
              "position": 0,
              "duration": 0.96875
            },
            {
              "pitch": 27,
              "velocity": 90,
              "position": 1,
              "duration": 0.020833333333333332
            },
            {
              "pitch": 33,
              "velocity": 15,
              "position": 1,
              "duration": 0.03125
            },
            {
              "pitch": 44,
              "velocity": 51,
              "position": 1.0104166666666667,
              "duration": 0.052083333333333336
            },
            {
              "pitch": 40,
              "velocity": 42,
              "position": 2,
              "duration": 0.020833333333333332
            },
            {
              "pitch": 33,
              "velocity": 45,
              "position": 2,
              "duration": 0.03125
            },
            {
              "pitch": 28,
              "velocity": 32,
              "position": 1,
              "duration": 1.5208333333333333
            },
            {
              "pitch": 27,
              "velocity": 79,
              "position": 2.6458333333333335,
              "duration": 0.020833333333333332
            },
            {
              "pitch": 27,
              "velocity": 49,
              "position": 3,
              "duration": 0.020833333333333332
            },
            {
              "pitch": 33,
              "velocity": 15,
              "position": 3,
              "duration": 0.03125
            },
            {
              "pitch": 44,
              "velocity": 51,
              "position": 3.0104166666666665,
              "duration": 0.052083333333333336
            },
            {
              "pitch": 27,
              "velocity": 36,
              "position": 3.6458333333333335,
              "duration": 0.020833333333333332
            },
            {
              "pitch": 27,
              "velocity": 81,
              "position": 4,
              "duration": 0.020833333333333332
            },
            {
              "pitch": 33,
              "velocity": 45,
              "position": 4,
              "duration": 0.03125
            },
            {
              "pitch": 28,
              "velocity": 32,
              "position": 3,
              "duration": 1.5208333333333333
            },
            {
              "pitch": 27,
              "velocity": 36,
              "position": 4.645833333333333,
              "duration": 0.020833333333333332
            },
            {
              "pitch": 27,
              "velocity": 93,
              "position": 5,
              "duration": 0.020833333333333332
            },
            {
              "pitch": 33,
              "velocity": 15,
              "position": 5,
              "duration": 0.03125
            },
            {
              "pitch": 44,
              "velocity": 51,
              "position": 5.010416666666667,
              "duration": 0.052083333333333336
            },
            {
              "pitch": 38,
              "velocity": 59,
              "position": 5.645833333333333,
              "duration": 0.020833333333333332
            },
            {
              "pitch": 33,
              "velocity": 45,
              "position": 6,
              "duration": 0.03125
            },
            {
              "pitch": 28,
              "velocity": 37,
              "position": 5,
              "duration": 1.5208333333333333
            },
            {
              "pitch": 27,
              "velocity": 39,
              "position": 6.645833333333333,
              "duration": 0.020833333333333332
            },
            {
              "pitch": 27,
              "velocity": 98,
              "position": 7,
              "duration": 0.020833333333333332
            },
            {
              "pitch": 33,
              "velocity": 15,
              "position": 7,
              "duration": 0.03125
            },
            {
              "pitch": 44,
              "velocity": 51,
              "position": 7.010416666666667,
              "duration": 0.052083333333333336
            },
            {
              "pitch": 27,
              "velocity": 64,
              "position": 7.645833333333333,
              "duration": 0.020833333333333332
            },
            {
              "pitch": 33,
              "velocity": 45,
              "position": 8,
              "duration": 0.03125
            },
            {
              "pitch": 28,
              "velocity": 37,
              "position": 7,
              "duration": 1.5625
            },
            {
              "pitch": 27,
              "velocity": 64,
              "position": 8.666666666666666,
              "duration": 0.020833333333333332
            },
            {
              "pitch": 27,
              "velocity": 44,
              "position": 9,
              "duration": 0.020833333333333332
            },
            {
              "pitch": 33,
              "velocity": 15,
              "position": 9,
              "duration": 0.03125
            },
            {
              "pitch": 44,
              "velocity": 51,
              "position": 9.010416666666666,
              "duration": 0.052083333333333336
            },
            {
              "pitch": 27,
              "velocity": 36,
              "position": 9.645833333333334,
              "duration": 0.020833333333333332
            },
            {
              "pitch": 40,
              "velocity": 62,
              "position": 10,
              "duration": 0.020833333333333332
            },
            {
              "pitch": 33,
              "velocity": 45,
              "position": 10,
              "duration": 0.03125
            },
            {
              "pitch": 28,
              "velocity": 32,
              "position": 9,
              "duration": 1.5208333333333333
            },
            {
              "pitch": 27,
              "velocity": 79,
              "position": 10.645833333333334,
              "duration": 0.020833333333333332
            },
            {
              "pitch": 27,
              "velocity": 39,
              "position": 11,
              "duration": 0.020833333333333332
            },
            {
              "pitch": 33,
              "velocity": 15,
              "position": 11,
              "duration": 0.03125
            },
            {
              "pitch": 44,
              "velocity": 51,
              "position": 11.010416666666666,
              "duration": 0.052083333333333336
            },
            {
              "pitch": 27,
              "velocity": 36,
              "position": 11.645833333333334,
              "duration": 0.020833333333333332
            },
            {
              "pitch": 27,
              "velocity": 75,
              "position": 12,
              "duration": 0.020833333333333332
            },
            {
              "pitch": 33,
              "velocity": 45,
              "position": 12,
              "duration": 0.03125
            },
            {
              "pitch": 28,
              "velocity": 34,
              "position": 11,
              "duration": 1.5208333333333333
            },
            {
              "pitch": 27,
              "velocity": 36,
              "position": 12.645833333333334,
              "duration": 0.020833333333333332
            },
            {
              "pitch": 27,
              "velocity": 112,
              "position": 13,
              "duration": 0.020833333333333332
            },
            {
              "pitch": 33,
              "velocity": 15,
              "position": 13,
              "duration": 0.03125
            },
            {
              "pitch": 44,
              "velocity": 51,
              "position": 13.010416666666666,
              "duration": 0.052083333333333336
            },
            {
              "pitch": 38,
              "velocity": 74,
              "position": 13.645833333333334,
              "duration": 0.020833333333333332
            },
            {
              "pitch": 27,
              "velocity": 36,
              "position": 14,
              "duration": 0.020833333333333332
            },
            {
              "pitch": 33,
              "velocity": 45,
              "position": 14,
              "duration": 0.03125
            },
            {
              "pitch": 28,
              "velocity": 39,
              "position": 13,
              "duration": 1.5208333333333333
            },
            {
              "pitch": 27,
              "velocity": 53,
              "position": 14.645833333333334,
              "duration": 0.020833333333333332
            },
            {
              "pitch": 27,
              "velocity": 100,
              "position": 15,
              "duration": 0.020833333333333332
            },
            {
              "pitch": 33,
              "velocity": 15,
              "position": 15,
              "duration": 0.03125
            },
            {
              "pitch": 44,
              "velocity": 51,
              "position": 15.010416666666666,
              "duration": 0.052083333333333336
            },
            {
              "pitch": 40,
              "velocity": 36,
              "position": 15.645833333333334,
              "duration": 0.020833333333333332
            },
            {
              "pitch": 28,
              "velocity": 32,
              "position": 15,
              "duration": 0.9791666666666666
            }
          ]
        },
        "10": {
          "ctab": {
            "srcChannel": 10,
            "name": "Bass 32",
            "accType": "BASS",
            "editable": false,
            "mutedNotes": [],
            "mutedChords": [],
            "autoStart": false,
            "sourceChordNote": 0,
            "sourceChordType": "Maj7",
            "ctb2Low": null,
            "ctb2Main": {
              "ntr": "ROOT_TRANSPOSITION",
              "ntt": "MELODY",
              "bassOn": true,
              "chordRootUpperLimit": 8,
              "noteLowLimit": 28,
              "noteHighLimit": 127,
              "rtr": "PITCH_SHIFT_TO_ROOT"
            },
            "ctb2High": null
          },
          "notes": [
            {
              "pitch": 24,
              "velocity": 88,
              "position": 0,
              "duration": 0.9583333333333334
            },
            {
              "pitch": 31,
              "velocity": 85,
              "position": 2,
              "duration": 0.9583333333333334
            },
            {
              "pitch": 24,
              "velocity": 86,
              "position": 4,
              "duration": 0.9583333333333334
            },
            {
              "pitch": 31,
              "velocity": 83,
              "position": 6,
              "duration": 0.9583333333333334
            },
            {
              "pitch": 24,
              "velocity": 88,
              "position": 8,
              "duration": 0.9583333333333334
            },
            {
              "pitch": 31,
              "velocity": 85,
              "position": 10,
              "duration": 0.9583333333333334
            },
            {
              "pitch": 24,
              "velocity": 88,
              "position": 12,
              "duration": 0.9583333333333334
            },
            {
              "pitch": 31,
              "velocity": 83,
              "position": 14,
              "duration": 0.9583333333333334
            }
          ]
        },
        "11": {
          "ctab": {
            "srcChannel": 11,
            "name": "Gtr 26",
            "accType": "CHORD1",
            "editable": false,
            "mutedNotes": [],
            "mutedChords": [],
            "autoStart": false,
            "sourceChordNote": 0,
            "sourceChordType": "min7(11)",
            "ctb2Low": null,
            "ctb2Main": {
              "ntr": "ROOT_FIXED",
              "ntt": "CHORD",
              "bassOn": false,
              "chordRootUpperLimit": 7,
              "noteLowLimit": 50,
              "noteHighLimit": 127,
              "rtr": "PITCH_SHIFT"
            },
            "ctb2High": null
          },
          "notes": [
            {
              "pitch": 51,
              "velocity": 47,
              "position": 0,
              "duration": 0.7291666666666666
            },
            {
              "pitch": 53,
              "velocity": 47,
              "position": 0.010416666666666666,
              "duration": 0.7291666666666666
            },
            {
              "pitch": 58,
              "velocity": 41,
              "position": 0.020833333333333332,
              "duration": 0.7291666666666666
            },
            {
              "pitch": 51,
              "velocity": 83,
              "position": 1,
              "duration": 0.25
            },
            {
              "pitch": 53,
              "velocity": 78,
              "position": 1.0104166666666667,
              "duration": 0.25
            },
            {
              "pitch": 58,
              "velocity": 73,
              "position": 1.0208333333333333,
              "duration": 0.25
            },
            {
              "pitch": 51,
              "velocity": 52,
              "position": 2,
              "duration": 0.7291666666666666
            },
            {
              "pitch": 53,
              "velocity": 47,
              "position": 2.0104166666666665,
              "duration": 0.7291666666666666
            },
            {
              "pitch": 58,
              "velocity": 41,
              "position": 2.0208333333333335,
              "duration": 0.7291666666666666
            },
            {
              "pitch": 51,
              "velocity": 83,
              "position": 3,
              "duration": 0.25
            },
            {
              "pitch": 53,
              "velocity": 78,
              "position": 3.0104166666666665,
              "duration": 0.25
            },
            {
              "pitch": 58,
              "velocity": 73,
              "position": 3.0208333333333335,
              "duration": 0.25
            },
            {
              "pitch": 51,
              "velocity": 52,
              "position": 4,
              "duration": 0.7291666666666666
            },
            {
              "pitch": 53,
              "velocity": 47,
              "position": 4.010416666666667,
              "duration": 0.7291666666666666
            },
            {
              "pitch": 58,
              "velocity": 41,
              "position": 4.020833333333333,
              "duration": 0.7291666666666666
            },
            {
              "pitch": 51,
              "velocity": 83,
              "position": 5,
              "duration": 0.25
            },
            {
              "pitch": 53,
              "velocity": 78,
              "position": 5.010416666666667,
              "duration": 0.25
            },
            {
              "pitch": 58,
              "velocity": 73,
              "position": 5.020833333333333,
              "duration": 0.25
            },
            {
              "pitch": 51,
              "velocity": 52,
              "position": 6,
              "duration": 0.7291666666666666
            },
            {
              "pitch": 53,
              "velocity": 47,
              "position": 6.010416666666667,
              "duration": 0.7291666666666666
            },
            {
              "pitch": 58,
              "velocity": 41,
              "position": 6.020833333333333,
              "duration": 0.7291666666666666
            },
            {
              "pitch": 51,
              "velocity": 83,
              "position": 7,
              "duration": 0.25
            },
            {
              "pitch": 53,
              "velocity": 78,
              "position": 7.010416666666667,
              "duration": 0.25
            },
            {
              "pitch": 58,
              "velocity": 73,
              "position": 7.020833333333333,
              "duration": 0.25
            },
            {
              "pitch": 51,
              "velocity": 52,
              "position": 8,
              "duration": 0.7291666666666666
            },
            {
              "pitch": 53,
              "velocity": 47,
              "position": 8.010416666666666,
              "duration": 0.7291666666666666
            },
            {
              "pitch": 58,
              "velocity": 41,
              "position": 8.020833333333334,
              "duration": 0.7291666666666666
            },
            {
              "pitch": 51,
              "velocity": 83,
              "position": 9,
              "duration": 0.25
            },
            {
              "pitch": 53,
              "velocity": 78,
              "position": 9.010416666666666,
              "duration": 0.25
            },
            {
              "pitch": 58,
              "velocity": 73,
              "position": 9.020833333333334,
              "duration": 0.25
            },
            {
              "pitch": 51,
              "velocity": 52,
              "position": 10,
              "duration": 0.7291666666666666
            },
            {
              "pitch": 53,
              "velocity": 47,
              "position": 10.010416666666666,
              "duration": 0.7291666666666666
            },
            {
              "pitch": 58,
              "velocity": 41,
              "position": 10.020833333333334,
              "duration": 0.7291666666666666
            },
            {
              "pitch": 51,
              "velocity": 83,
              "position": 11,
              "duration": 0.25
            },
            {
              "pitch": 53,
              "velocity": 78,
              "position": 11.010416666666666,
              "duration": 0.25
            },
            {
              "pitch": 58,
              "velocity": 73,
              "position": 11.020833333333334,
              "duration": 0.25
            },
            {
              "pitch": 51,
              "velocity": 52,
              "position": 12,
              "duration": 0.7291666666666666
            },
            {
              "pitch": 53,
              "velocity": 47,
              "position": 12.010416666666666,
              "duration": 0.7291666666666666
            },
            {
              "pitch": 58,
              "velocity": 41,
              "position": 12.020833333333334,
              "duration": 0.7291666666666666
            },
            {
              "pitch": 58,
              "velocity": 59,
              "position": 13.020833333333334,
              "duration": 0.5729166666666666
            },
            {
              "pitch": 53,
              "velocity": 65,
              "position": 13.010416666666666,
              "duration": 0.65625
            },
            {
              "pitch": 51,
              "velocity": 69,
              "position": 13,
              "duration": 0.6770833333333334
            },
            {
              "pitch": 58,
              "velocity": 75,
              "position": 13.666666666666666,
              "duration": 0.9895833333333334
            },
            {
              "pitch": 51,
              "velocity": 67,
              "position": 13.6875,
              "duration": 0.9791666666666666
            },
            {
              "pitch": 53,
              "velocity": 71,
              "position": 13.677083333333334,
              "duration": 0.9895833333333334
            },
            {
              "pitch": 51,
              "velocity": 41,
              "position": 14.6875,
              "duration": 0.23958333333333334
            },
            {
              "pitch": 53,
              "velocity": 45,
              "position": 14.677083333333334,
              "duration": 0.3229166666666667
            },
            {
              "pitch": 58,
              "velocity": 49,
              "position": 14.666666666666666,
              "duration": 0.34375
            },
            {
              "pitch": 51,
              "velocity": 83,
              "position": 15,
              "duration": 0.375
            },
            {
              "pitch": 53,
              "velocity": 78,
              "position": 15.010416666666666,
              "duration": 0.375
            },
            {
              "pitch": 58,
              "velocity": 73,
              "position": 15.020833333333334,
              "duration": 0.3645833333333333
            }
          ]
        },
        "12": {
          "ctab": {
            "srcChannel": 12,
            "name": "Gtr 24",
            "accType": "CHORD2",
            "editable": false,
            "mutedNotes": [],
            "mutedChords": [],
            "autoStart": false,
            "sourceChordNote": 0,
            "sourceChordType": "min7(11)",
            "ctb2Low": null,
            "ctb2Main": {
              "ntr": "ROOT_FIXED",
              "ntt": "CHORD",
              "bassOn": false,
              "chordRootUpperLimit": 7,
              "noteLowLimit": 50,
              "noteHighLimit": 127,
              "rtr": "PITCH_SHIFT"
            },
            "ctb2High": null
          },
          "notes": [
            {
              "pitch": 53,
              "velocity": 35,
              "position": 0,
              "duration": 0.7291666666666666
            },
            {
              "pitch": 58,
              "velocity": 43,
              "position": 0.010416666666666666,
              "duration": 0.7291666666666666
            },
            {
              "pitch": 63,
              "velocity": 58,
              "position": 0.020833333333333332,
              "duration": 0.7291666666666666
            },
            {
              "pitch": 53,
              "velocity": 56,
              "position": 1,
              "duration": 0.25
            },
            {
              "pitch": 58,
              "velocity": 63,
              "position": 1.0104166666666667,
              "duration": 0.25
            },
            {
              "pitch": 63,
              "velocity": 76,
              "position": 1.0208333333333333,
              "duration": 0.25
            },
            {
              "pitch": 53,
              "velocity": 35,
              "position": 2,
              "duration": 0.7291666666666666
            },
            {
              "pitch": 58,
              "velocity": 43,
              "position": 2.0104166666666665,
              "duration": 0.7291666666666666
            },
            {
              "pitch": 63,
              "velocity": 58,
              "position": 2.0208333333333335,
              "duration": 0.7291666666666666
            },
            {
              "pitch": 53,
              "velocity": 56,
              "position": 3,
              "duration": 0.25
            },
            {
              "pitch": 58,
              "velocity": 63,
              "position": 3.0104166666666665,
              "duration": 0.25
            },
            {
              "pitch": 63,
              "velocity": 76,
              "position": 3.0208333333333335,
              "duration": 0.25
            },
            {
              "pitch": 53,
              "velocity": 35,
              "position": 4,
              "duration": 0.7291666666666666
            },
            {
              "pitch": 58,
              "velocity": 43,
              "position": 4.010416666666667,
              "duration": 0.7291666666666666
            },
            {
              "pitch": 63,
              "velocity": 58,
              "position": 4.020833333333333,
              "duration": 0.7291666666666666
            },
            {
              "pitch": 63,
              "velocity": 60,
              "position": 5.020833333333333,
              "duration": 0.53125
            },
            {
              "pitch": 58,
              "velocity": 42,
              "position": 5.010416666666667,
              "duration": 0.6145833333333334
            },
            {
              "pitch": 53,
              "velocity": 33,
              "position": 5,
              "duration": 0.6770833333333334
            },
            {
              "pitch": 63,
              "velocity": 73,
              "position": 5.666666666666667,
              "duration": 0.9791666666666666
            },
            {
              "pitch": 58,
              "velocity": 57,
              "position": 5.677083333333333,
              "duration": 0.9791666666666666
            },
            {
              "pitch": 53,
              "velocity": 50,
              "position": 5.6875,
              "duration": 0.9791666666666666
            },
            {
              "pitch": 53,
              "velocity": 18,
              "position": 6.6875,
              "duration": 0.28125
            },
            {
              "pitch": 58,
              "velocity": 31,
              "position": 6.677083333333333,
              "duration": 0.3125
            },
            {
              "pitch": 63,
              "velocity": 48,
              "position": 6.666666666666667,
              "duration": 0.3333333333333333
            },
            {
              "pitch": 63,
              "velocity": 69,
              "position": 7.020833333333333,
              "duration": 0.5833333333333334
            },
            {
              "pitch": 58,
              "velocity": 59,
              "position": 7.010416666666667,
              "duration": 0.6145833333333334
            },
            {
              "pitch": 53,
              "velocity": 48,
              "position": 7,
              "duration": 0.6770833333333334
            },
            {
              "pitch": 53,
              "velocity": 17,
              "position": 7.6875,
              "duration": 0.28125
            },
            {
              "pitch": 58,
              "velocity": 31,
              "position": 7.677083333333333,
              "duration": 0.3125
            },
            {
              "pitch": 63,
              "velocity": 46,
              "position": 7.666666666666667,
              "duration": 0.3333333333333333
            },
            {
              "pitch": 53,
              "velocity": 35,
              "position": 8,
              "duration": 0.7291666666666666
            },
            {
              "pitch": 58,
              "velocity": 43,
              "position": 8.010416666666666,
              "duration": 0.7291666666666666
            },
            {
              "pitch": 63,
              "velocity": 58,
              "position": 8.020833333333334,
              "duration": 0.7291666666666666
            },
            {
              "pitch": 53,
              "velocity": 56,
              "position": 9,
              "duration": 0.25
            },
            {
              "pitch": 58,
              "velocity": 63,
              "position": 9.010416666666666,
              "duration": 0.25
            },
            {
              "pitch": 63,
              "velocity": 76,
              "position": 9.020833333333334,
              "duration": 0.25
            },
            {
              "pitch": 53,
              "velocity": 35,
              "position": 10,
              "duration": 0.7291666666666666
            },
            {
              "pitch": 58,
              "velocity": 43,
              "position": 10.010416666666666,
              "duration": 0.7291666666666666
            },
            {
              "pitch": 63,
              "velocity": 58,
              "position": 10.020833333333334,
              "duration": 0.7291666666666666
            },
            {
              "pitch": 53,
              "velocity": 56,
              "position": 11,
              "duration": 0.25
            },
            {
              "pitch": 58,
              "velocity": 63,
              "position": 11.010416666666666,
              "duration": 0.25
            },
            {
              "pitch": 63,
              "velocity": 76,
              "position": 11.020833333333334,
              "duration": 0.25
            },
            {
              "pitch": 53,
              "velocity": 35,
              "position": 12,
              "duration": 0.7291666666666666
            },
            {
              "pitch": 58,
              "velocity": 43,
              "position": 12.010416666666666,
              "duration": 0.7291666666666666
            },
            {
              "pitch": 63,
              "velocity": 58,
              "position": 12.020833333333334,
              "duration": 0.7291666666666666
            },
            {
              "pitch": 53,
              "velocity": 56,
              "position": 13,
              "duration": 0.25
            },
            {
              "pitch": 58,
              "velocity": 63,
              "position": 13.010416666666666,
              "duration": 0.25
            },
            {
              "pitch": 63,
              "velocity": 76,
              "position": 13.020833333333334,
              "duration": 0.25
            },
            {
              "pitch": 53,
              "velocity": 19,
              "position": 14,
              "duration": 0.7291666666666666
            },
            {
              "pitch": 58,
              "velocity": 24,
              "position": 14.010416666666666,
              "duration": 0.7291666666666666
            },
            {
              "pitch": 63,
              "velocity": 41,
              "position": 14.020833333333334,
              "duration": 0.7291666666666666
            },
            {
              "pitch": 53,
              "velocity": 56,
              "position": 15,
              "duration": 0.25
            },
            {
              "pitch": 58,
              "velocity": 63,
              "position": 15.010416666666666,
              "duration": 0.25
            },
            {
              "pitch": 63,
              "velocity": 76,
              "position": 15.020833333333334,
              "duration": 0.25
            }
          ]
        },
        "13": {
          "ctab": {
            "srcChannel": 13,
            "name": "Gtr 26",
            "accType": "CHORD1",
            "editable": false,
            "mutedNotes": [],
            "mutedChords": [
              "1+2+5",
              "sus4",
              "1+5",
              "1+8",
              "Maj7aug",
              "dim",
              "minMaj7(9)",
              "minMaj7",
              "min6",
              "min",
              "aug",
              "Maj7(9)",
              "Maj7#11",
              "Maj7",
              "Maj6",
              "Maj"
            ],
            "autoStart": false,
            "sourceChordNote": 0,
            "sourceChordType": "Maj7",
            "ctb2Low": null,
            "ctb2Main": {
              "ntr": "ROOT_TRANSPOSITION",
              "ntt": "MELODY",
              "bassOn": false,
              "chordRootUpperLimit": 2,
              "noteLowLimit": 0,
              "noteHighLimit": 66,
              "rtr": "PITCH_SHIFT"
            },
            "ctb2High": null
          },
          "notes": [
            {
              "pitch": 60,
              "velocity": 41,
              "position": 0,
              "duration": 0.7291666666666666
            },
            {
              "pitch": 60,
              "velocity": 73,
              "position": 1,
              "duration": 0.25
            },
            {
              "pitch": 60,
              "velocity": 41,
              "position": 2,
              "duration": 0.7291666666666666
            },
            {
              "pitch": 60,
              "velocity": 73,
              "position": 3,
              "duration": 0.25
            },
            {
              "pitch": 60,
              "velocity": 41,
              "position": 4,
              "duration": 0.7291666666666666
            },
            {
              "pitch": 60,
              "velocity": 73,
              "position": 5,
              "duration": 0.25
            },
            {
              "pitch": 60,
              "velocity": 41,
              "position": 6,
              "duration": 0.7291666666666666
            },
            {
              "pitch": 60,
              "velocity": 73,
              "position": 7,
              "duration": 0.25
            },
            {
              "pitch": 60,
              "velocity": 41,
              "position": 8,
              "duration": 0.7291666666666666
            },
            {
              "pitch": 60,
              "velocity": 73,
              "position": 9,
              "duration": 0.25
            },
            {
              "pitch": 60,
              "velocity": 41,
              "position": 10,
              "duration": 0.7291666666666666
            },
            {
              "pitch": 60,
              "velocity": 73,
              "position": 11,
              "duration": 0.25
            },
            {
              "pitch": 60,
              "velocity": 41,
              "position": 12,
              "duration": 0.7291666666666666
            },
            {
              "pitch": 60,
              "velocity": 59,
              "position": 13,
              "duration": 0.5729166666666666
            },
            {
              "pitch": 60,
              "velocity": 75,
              "position": 13.666666666666666,
              "duration": 0.9895833333333334
            },
            {
              "pitch": 60,
              "velocity": 49,
              "position": 14.666666666666666,
              "duration": 0.3125
            },
            {
              "pitch": 60,
              "velocity": 73,
              "position": 15,
              "duration": 0.4166666666666667
            }
          ]
        },
        "14": {
          "ctab": {
            "srcChannel": 14,
            "name": "Gtr 24rt",
            "accType": "CHORD2",
            "editable": false,
            "mutedNotes": [],
            "mutedChords": [
              "1+2+5",
              "sus4",
              "1+5",
              "1+8",
              "Maj7aug",
              "dim",
              "minMaj7(9)",
              "minMaj7",
              "min6",
              "min",
              "aug",
              "Maj7(9)",
              "Maj7#11",
              "Maj7",
              "Maj6",
              "Maj"
            ],
            "autoStart": false,
            "sourceChordNote": 0,
            "sourceChordType": "Maj7",
            "ctb2Low": null,
            "ctb2Main": {
              "ntr": "ROOT_TRANSPOSITION",
              "ntt": "MELODY",
              "bassOn": false,
              "chordRootUpperLimit": 6,
              "noteLowLimit": 0,
              "noteHighLimit": 127,
              "rtr": "PITCH_SHIFT"
            },
            "ctb2High": null
          },
          "notes": [
            {
              "pitch": 60,
              "velocity": 51,
              "position": 0.010416666666666666,
              "duration": 0.7291666666666666
            },
            {
              "pitch": 60,
              "velocity": 69,
              "position": 1.0104166666666667,
              "duration": 0.25
            },
            {
              "pitch": 60,
              "velocity": 51,
              "position": 2.0104166666666665,
              "duration": 0.7291666666666666
            },
            {
              "pitch": 60,
              "velocity": 69,
              "position": 3.0104166666666665,
              "duration": 0.25
            },
            {
              "pitch": 60,
              "velocity": 51,
              "position": 4.010416666666667,
              "duration": 0.7291666666666666
            },
            {
              "pitch": 60,
              "velocity": 50,
              "position": 5.010416666666667,
              "duration": 0.6145833333333334
            },
            {
              "pitch": 60,
              "velocity": 64,
              "position": 5.677083333333333,
              "duration": 0.9583333333333334
            },
            {
              "pitch": 60,
              "velocity": 39,
              "position": 6.677083333333333,
              "duration": 0.3125
            },
            {
              "pitch": 60,
              "velocity": 65,
              "position": 7.010416666666667,
              "duration": 0.6145833333333334
            },
            {
              "pitch": 60,
              "velocity": 39,
              "position": 7.677083333333333,
              "duration": 0.2916666666666667
            },
            {
              "pitch": 60,
              "velocity": 51,
              "position": 8.010416666666666,
              "duration": 0.7291666666666666
            },
            {
              "pitch": 60,
              "velocity": 69,
              "position": 9.010416666666666,
              "duration": 0.25
            },
            {
              "pitch": 60,
              "velocity": 51,
              "position": 10.010416666666666,
              "duration": 0.7291666666666666
            },
            {
              "pitch": 60,
              "velocity": 69,
              "position": 11.010416666666666,
              "duration": 0.25
            },
            {
              "pitch": 60,
              "velocity": 51,
              "position": 12.010416666666666,
              "duration": 0.7291666666666666
            },
            {
              "pitch": 60,
              "velocity": 69,
              "position": 13.010416666666666,
              "duration": 0.25
            },
            {
              "pitch": 60,
              "velocity": 33,
              "position": 14.010416666666666,
              "duration": 0.7291666666666666
            },
            {
              "pitch": 60,
              "velocity": 69,
              "position": 15.010416666666666,
              "duration": 0.25
            }
          ]
        }
      }
    },
    "Main_C": {
      "type": "Main_C",
      "sizeInBeats": 16,
      "channels": {
        "7": {
          "ctab": {
            "srcChannel": 7,
            "name": "CC_Crash",
            "accType": "RHYTHM",
            "editable": false,
            "mutedNotes": [],
            "mutedChords": [
              "1+2+5",
              "sus4",
              "1+5",
              "1+8",
              "7aug",
              "Maj7aug",
              "7(#9)",
              "7(b13)",
              "7(b9)",
              "7(13)",
              "7#11",
              "7(9)",
              "7b5",
              "7sus4",
              "7th",
              "dim7",
              "dim",
              "minMaj7(9)",
              "minMaj7",
              "min7(11)",
              "min7(9)",
              "min(9)",
              "m7b5",
              "min7",
              "min6",
              "min",
              "aug",
              "Maj6(9)",
              "Maj7(9)",
              "Maj(9)",
              "Maj7#11",
              "Maj7",
              "Maj6",
              "Maj"
            ],
            "autoStart": true,
            "sourceChordNote": 0,
            "sourceChordType": "Maj",
            "ctb2Low": null,
            "ctb2Main": {
              "ntr": "ROOT_FIXED",
              "ntt": "BYPASS",
              "bassOn": false,
              "chordRootUpperLimit": 0,
              "noteLowLimit": 0,
              "noteHighLimit": 127,
              "rtr": "RETRIGGER"
            },
            "ctb2High": null
          },
          "notes": []
        },
        "8": {
          "ctab": {
            "srcChannel": 8,
            "name": "Brush",
            "accType": "SUBRHYTHM",
            "editable": false,
            "mutedNotes": [],
            "mutedChords": [],
            "autoStart": true,
            "sourceChordNote": 0,
            "sourceChordType": "Maj7",
            "ctb2Low": null,
            "ctb2Main": {
              "ntr": "ROOT_FIXED",
              "ntt": "BYPASS",
              "bassOn": false,
              "chordRootUpperLimit": 6,
              "noteLowLimit": 0,
              "noteHighLimit": 127,
              "rtr": "PITCH_SHIFT"
            },
            "ctb2High": null
          },
          "notes": [
            {
              "pitch": 54,
              "velocity": 72,
              "position": 1.0208333333333333,
              "duration": 0.08333333333333333
            },
            {
              "pitch": 54,
              "velocity": 72,
              "position": 3.0208333333333335,
              "duration": 0.08333333333333333
            },
            {
              "pitch": 54,
              "velocity": 72,
              "position": 5.020833333333333,
              "duration": 0.08333333333333333
            },
            {
              "pitch": 54,
              "velocity": 72,
              "position": 7.020833333333333,
              "duration": 0.08333333333333333
            },
            {
              "pitch": 54,
              "velocity": 72,
              "position": 9.020833333333334,
              "duration": 0.08333333333333333
            },
            {
              "pitch": 54,
              "velocity": 72,
              "position": 11.020833333333334,
              "duration": 0.08333333333333333
            },
            {
              "pitch": 54,
              "velocity": 72,
              "position": 13.020833333333334,
              "duration": 0.08333333333333333
            },
            {
              "pitch": 54,
              "velocity": 72,
              "position": 15.020833333333334,
              "duration": 0.08333333333333333
            }
          ]
        },
        "9": {
          "ctab": {
            "srcChannel": 9,
            "name": "Brush",
            "accType": "RHYTHM",
            "editable": false,
            "mutedNotes": [],
            "mutedChords": [],
            "autoStart": true,
            "sourceChordNote": 0,
            "sourceChordType": "Maj7",
            "ctb2Low": null,
            "ctb2Main": {
              "ntr": "ROOT_FIXED",
              "ntt": "BYPASS",
              "bassOn": false,
              "chordRootUpperLimit": 6,
              "noteLowLimit": 0,
              "noteHighLimit": 127,
              "rtr": "PITCH_SHIFT"
            },
            "ctb2High": null
          },
          "notes": [
            {
              "pitch": 33,
              "velocity": 45,
              "position": 0,
              "duration": 0.03125
            },
            {
              "pitch": 44,
              "velocity": 30,
              "position": 0,
              "duration": 0.052083333333333336
            },
            {
              "pitch": 27,
              "velocity": 49,
              "position": 0,
              "duration": 0.10416666666666667
            },
            {
              "pitch": 27,
              "velocity": 34,
              "position": 0.6666666666666666,
              "duration": 0.10416666666666667
            },
            {
              "pitch": 25,
              "velocity": 72,
              "position": 1,
              "duration": 0.020833333333333332
            },
            {
              "pitch": 33,
              "velocity": 15,
              "position": 1,
              "duration": 0.03125
            },
            {
              "pitch": 44,
              "velocity": 51,
              "position": 1,
              "duration": 0.052083333333333336
            },
            {
              "pitch": 33,
              "velocity": 45,
              "position": 2,
              "duration": 0.03125
            },
            {
              "pitch": 44,
              "velocity": 30,
              "position": 2,
              "duration": 0.052083333333333336
            },
            {
              "pitch": 38,
              "velocity": 68,
              "position": 2,
              "duration": 0.10416666666666667
            },
            {
              "pitch": 26,
              "velocity": 37,
              "position": 1,
              "duration": 1.5208333333333333
            },
            {
              "pitch": 27,
              "velocity": 36,
              "position": 2.6354166666666665,
              "duration": 0.020833333333333332
            },
            {
              "pitch": 25,
              "velocity": 72,
              "position": 3,
              "duration": 0.020833333333333332
            },
            {
              "pitch": 33,
              "velocity": 15,
              "position": 3,
              "duration": 0.03125
            },
            {
              "pitch": 44,
              "velocity": 51,
              "position": 3,
              "duration": 0.052083333333333336
            },
            {
              "pitch": 40,
              "velocity": 50,
              "position": 3.6666666666666665,
              "duration": 0.020833333333333332
            },
            {
              "pitch": 33,
              "velocity": 45,
              "position": 4,
              "duration": 0.03125
            },
            {
              "pitch": 44,
              "velocity": 30,
              "position": 4,
              "duration": 0.052083333333333336
            },
            {
              "pitch": 27,
              "velocity": 63,
              "position": 4,
              "duration": 0.10416666666666667
            },
            {
              "pitch": 26,
              "velocity": 34,
              "position": 3,
              "duration": 1.5208333333333333
            },
            {
              "pitch": 27,
              "velocity": 39,
              "position": 4.666666666666667,
              "duration": 0.020833333333333332
            },
            {
              "pitch": 25,
              "velocity": 69,
              "position": 5,
              "duration": 0.020833333333333332
            },
            {
              "pitch": 33,
              "velocity": 15,
              "position": 5,
              "duration": 0.03125
            },
            {
              "pitch": 44,
              "velocity": 51,
              "position": 5,
              "duration": 0.052083333333333336
            },
            {
              "pitch": 33,
              "velocity": 45,
              "position": 6,
              "duration": 0.03125
            },
            {
              "pitch": 44,
              "velocity": 30,
              "position": 6,
              "duration": 0.052083333333333336
            },
            {
              "pitch": 38,
              "velocity": 76,
              "position": 6,
              "duration": 0.10416666666666667
            },
            {
              "pitch": 26,
              "velocity": 39,
              "position": 5,
              "duration": 1.5208333333333333
            },
            {
              "pitch": 27,
              "velocity": 39,
              "position": 6.635416666666667,
              "duration": 0.10416666666666667
            },
            {
              "pitch": 33,
              "velocity": 15,
              "position": 7,
              "duration": 0.03125
            },
            {
              "pitch": 44,
              "velocity": 51,
              "position": 7,
              "duration": 0.052083333333333336
            },
            {
              "pitch": 25,
              "velocity": 75,
              "position": 7,
              "duration": 0.10416666666666667
            },
            {
              "pitch": 27,
              "velocity": 39,
              "position": 7.635416666666667,
              "duration": 0.10416666666666667
            },
            {
              "pitch": 27,
              "velocity": 69,
              "position": 8,
              "duration": 0.020833333333333332
            },
            {
              "pitch": 33,
              "velocity": 45,
              "position": 8,
              "duration": 0.03125
            },
            {
              "pitch": 44,
              "velocity": 30,
              "position": 8,
              "duration": 0.052083333333333336
            },
            {
              "pitch": 26,
              "velocity": 36,
              "position": 7,
              "duration": 1.5208333333333333
            },
            {
              "pitch": 27,
              "velocity": 36,
              "position": 8.635416666666666,
              "duration": 0.020833333333333332
            },
            {
              "pitch": 33,
              "velocity": 15,
              "position": 9,
              "duration": 0.03125
            },
            {
              "pitch": 44,
              "velocity": 51,
              "position": 9,
              "duration": 0.052083333333333336
            },
            {
              "pitch": 25,
              "velocity": 75,
              "position": 9,
              "duration": 0.10416666666666667
            },
            {
              "pitch": 27,
              "velocity": 39,
              "position": 9.635416666666666,
              "duration": 0.10416666666666667
            },
            {
              "pitch": 38,
              "velocity": 62,
              "position": 10,
              "duration": 0.020833333333333332
            },
            {
              "pitch": 33,
              "velocity": 45,
              "position": 10,
              "duration": 0.03125
            },
            {
              "pitch": 44,
              "velocity": 30,
              "position": 10,
              "duration": 0.052083333333333336
            },
            {
              "pitch": 26,
              "velocity": 40,
              "position": 9,
              "duration": 1.5208333333333333
            },
            {
              "pitch": 27,
              "velocity": 36,
              "position": 10.635416666666666,
              "duration": 0.020833333333333332
            },
            {
              "pitch": 25,
              "velocity": 72,
              "position": 11,
              "duration": 0.020833333333333332
            },
            {
              "pitch": 33,
              "velocity": 15,
              "position": 11,
              "duration": 0.03125
            },
            {
              "pitch": 44,
              "velocity": 51,
              "position": 11,
              "duration": 0.052083333333333336
            },
            {
              "pitch": 40,
              "velocity": 23,
              "position": 11.635416666666666,
              "duration": 0.10416666666666667
            },
            {
              "pitch": 27,
              "velocity": 81,
              "position": 12,
              "duration": 0.020833333333333332
            },
            {
              "pitch": 33,
              "velocity": 45,
              "position": 12,
              "duration": 0.03125
            },
            {
              "pitch": 44,
              "velocity": 30,
              "position": 12,
              "duration": 0.052083333333333336
            },
            {
              "pitch": 26,
              "velocity": 39,
              "position": 11,
              "duration": 1.5208333333333333
            },
            {
              "pitch": 27,
              "velocity": 34,
              "position": 12.666666666666666,
              "duration": 0.020833333333333332
            },
            {
              "pitch": 25,
              "velocity": 72,
              "position": 13,
              "duration": 0.020833333333333332
            },
            {
              "pitch": 33,
              "velocity": 15,
              "position": 13,
              "duration": 0.03125
            },
            {
              "pitch": 44,
              "velocity": 51,
              "position": 13,
              "duration": 0.052083333333333336
            },
            {
              "pitch": 27,
              "velocity": 39,
              "position": 13.635416666666666,
              "duration": 0.10416666666666667
            },
            {
              "pitch": 26,
              "velocity": 39,
              "position": 13,
              "duration": 0.9895833333333334
            },
            {
              "pitch": 38,
              "velocity": 64,
              "position": 14,
              "duration": 0.020833333333333332
            },
            {
              "pitch": 33,
              "velocity": 45,
              "position": 14,
              "duration": 0.03125
            },
            {
              "pitch": 44,
              "velocity": 30,
              "position": 14,
              "duration": 0.052083333333333336
            },
            {
              "pitch": 27,
              "velocity": 39,
              "position": 14.635416666666666,
              "duration": 0.10416666666666667
            },
            {
              "pitch": 26,
              "velocity": 12,
              "position": 14,
              "duration": 0.9895833333333334
            },
            {
              "pitch": 25,
              "velocity": 72,
              "position": 15,
              "duration": 0.020833333333333332
            },
            {
              "pitch": 33,
              "velocity": 15,
              "position": 15,
              "duration": 0.03125
            },
            {
              "pitch": 44,
              "velocity": 51,
              "position": 15,
              "duration": 0.052083333333333336
            },
            {
              "pitch": 26,
              "velocity": 40,
              "position": 15,
              "duration": 0.625
            },
            {
              "pitch": 38,
              "velocity": 31,
              "position": 15.635416666666666,
              "duration": 0.10416666666666667
            }
          ]
        },
        "10": {
          "ctab": {
            "srcChannel": 10,
            "name": "Bass 32",
            "accType": "BASS",
            "editable": false,
            "mutedNotes": [],
            "mutedChords": [],
            "autoStart": false,
            "sourceChordNote": 0,
            "sourceChordType": "Maj7",
            "ctb2Low": null,
            "ctb2Main": {
              "ntr": "ROOT_TRANSPOSITION",
              "ntt": "MELODY",
              "bassOn": true,
              "chordRootUpperLimit": 8,
              "noteLowLimit": 28,
              "noteHighLimit": 127,
              "rtr": "PITCH_SHIFT_TO_ROOT"
            },
            "ctb2High": null
          },
          "notes": [
            {
              "pitch": 24,
              "velocity": 88,
              "position": 0,
              "duration": 0.9583333333333334
            },
            {
              "pitch": 31,
              "velocity": 85,
              "position": 2,
              "duration": 0.9583333333333334
            },
            {
              "pitch": 24,
              "velocity": 86,
              "position": 4,
              "duration": 0.9583333333333334
            },
            {
              "pitch": 28,
              "velocity": 83,
              "position": 6,
              "duration": 0.9583333333333334
            },
            {
              "pitch": 31,
              "velocity": 83,
              "position": 7,
              "duration": 0.9583333333333334
            },
            {
              "pitch": 24,
              "velocity": 88,
              "position": 8,
              "duration": 0.9583333333333334
            },
            {
              "pitch": 31,
              "velocity": 85,
              "position": 10,
              "duration": 0.9583333333333334
            },
            {
              "pitch": 24,
              "velocity": 88,
              "position": 12,
              "duration": 0.9583333333333334
            },
            {
              "pitch": 31,
              "velocity": 83,
              "position": 14,
              "duration": 0.9583333333333334
            }
          ]
        },
        "11": {
          "ctab": {
            "srcChannel": 11,
            "name": "Gtr 26",
            "accType": "CHORD1",
            "editable": false,
            "mutedNotes": [],
            "mutedChords": [],
            "autoStart": false,
            "sourceChordNote": 0,
            "sourceChordType": "min7(11)",
            "ctb2Low": null,
            "ctb2Main": {
              "ntr": "ROOT_FIXED",
              "ntt": "CHORD",
              "bassOn": false,
              "chordRootUpperLimit": 7,
              "noteLowLimit": 50,
              "noteHighLimit": 127,
              "rtr": "PITCH_SHIFT"
            },
            "ctb2High": null
          },
          "notes": [
            {
              "pitch": 53,
              "velocity": 36,
              "position": 0,
              "duration": 0.7291666666666666
            },
            {
              "pitch": 58,
              "velocity": 37,
              "position": 0.010416666666666666,
              "duration": 0.7291666666666666
            },
            {
              "pitch": 63,
              "velocity": 43,
              "position": 0.020833333333333332,
              "duration": 0.7291666666666666
            },
            {
              "pitch": 58,
              "velocity": 73,
              "position": 1.0104166666666667,
              "duration": 0.3020833333333333
            },
            {
              "pitch": 53,
              "velocity": 70,
              "position": 1,
              "duration": 0.34375
            },
            {
              "pitch": 63,
              "velocity": 80,
              "position": 1.0208333333333333,
              "duration": 0.34375
            },
            {
              "pitch": 53,
              "velocity": 33,
              "position": 2,
              "duration": 0.7291666666666666
            },
            {
              "pitch": 58,
              "velocity": 39,
              "position": 2.0104166666666665,
              "duration": 0.7291666666666666
            },
            {
              "pitch": 63,
              "velocity": 41,
              "position": 2.0208333333333335,
              "duration": 0.7291666666666666
            },
            {
              "pitch": 53,
              "velocity": 73,
              "position": 3,
              "duration": 0.3125
            },
            {
              "pitch": 63,
              "velocity": 77,
              "position": 3.0208333333333335,
              "duration": 0.34375
            },
            {
              "pitch": 58,
              "velocity": 73,
              "position": 3.0104166666666665,
              "duration": 0.4166666666666667
            },
            {
              "pitch": 53,
              "velocity": 33,
              "position": 4,
              "duration": 0.7291666666666666
            },
            {
              "pitch": 58,
              "velocity": 35,
              "position": 4.010416666666667,
              "duration": 0.7291666666666666
            },
            {
              "pitch": 63,
              "velocity": 39,
              "position": 4.020833333333333,
              "duration": 0.7291666666666666
            },
            {
              "pitch": 53,
              "velocity": 72,
              "position": 5,
              "duration": 0.3125
            },
            {
              "pitch": 63,
              "velocity": 76,
              "position": 5.020833333333333,
              "duration": 0.34375
            },
            {
              "pitch": 58,
              "velocity": 77,
              "position": 5.010416666666667,
              "duration": 0.3854166666666667
            },
            {
              "pitch": 53,
              "velocity": 36,
              "position": 6,
              "duration": 0.7291666666666666
            },
            {
              "pitch": 58,
              "velocity": 38,
              "position": 6.010416666666667,
              "duration": 0.7291666666666666
            },
            {
              "pitch": 63,
              "velocity": 39,
              "position": 6.020833333333333,
              "duration": 0.7291666666666666
            },
            {
              "pitch": 63,
              "velocity": 77,
              "position": 7.020833333333333,
              "duration": 0.34375
            },
            {
              "pitch": 58,
              "velocity": 73,
              "position": 7.010416666666667,
              "duration": 0.3645833333333333
            },
            {
              "pitch": 53,
              "velocity": 73,
              "position": 7,
              "duration": 0.4166666666666667
            },
            {
              "pitch": 53,
              "velocity": 33,
              "position": 8,
              "duration": 0.7291666666666666
            },
            {
              "pitch": 58,
              "velocity": 37,
              "position": 8.010416666666666,
              "duration": 0.7291666666666666
            },
            {
              "pitch": 63,
              "velocity": 42,
              "position": 8.020833333333334,
              "duration": 0.7291666666666666
            },
            {
              "pitch": 58,
              "velocity": 73,
              "position": 9.010416666666666,
              "duration": 0.3020833333333333
            },
            {
              "pitch": 53,
              "velocity": 69,
              "position": 9,
              "duration": 0.3229166666666667
            },
            {
              "pitch": 63,
              "velocity": 77,
              "position": 9.020833333333334,
              "duration": 0.3020833333333333
            },
            {
              "pitch": 53,
              "velocity": 33,
              "position": 10,
              "duration": 0.7291666666666666
            },
            {
              "pitch": 58,
              "velocity": 38,
              "position": 10.010416666666666,
              "duration": 0.7291666666666666
            },
            {
              "pitch": 63,
              "velocity": 40,
              "position": 10.020833333333334,
              "duration": 0.7291666666666666
            },
            {
              "pitch": 53,
              "velocity": 70,
              "position": 11,
              "duration": 0.3541666666666667
            },
            {
              "pitch": 58,
              "velocity": 73,
              "position": 11.010416666666666,
              "duration": 0.4270833333333333
            },
            {
              "pitch": 63,
              "velocity": 80,
              "position": 11.020833333333334,
              "duration": 0.4166666666666667
            },
            {
              "pitch": 53,
              "velocity": 31,
              "position": 12,
              "duration": 0.7291666666666666
            },
            {
              "pitch": 58,
              "velocity": 39,
              "position": 12.010416666666666,
              "duration": 0.7291666666666666
            },
            {
              "pitch": 63,
              "velocity": 44,
              "position": 12.020833333333334,
              "duration": 0.7291666666666666
            },
            {
              "pitch": 53,
              "velocity": 73,
              "position": 13,
              "duration": 0.34375
            },
            {
              "pitch": 58,
              "velocity": 74,
              "position": 13.010416666666666,
              "duration": 0.4583333333333333
            },
            {
              "pitch": 63,
              "velocity": 78,
              "position": 13.020833333333334,
              "duration": 0.46875
            },
            {
              "pitch": 53,
              "velocity": 31,
              "position": 14,
              "duration": 0.7291666666666666
            },
            {
              "pitch": 58,
              "velocity": 35,
              "position": 14.010416666666666,
              "duration": 0.7291666666666666
            },
            {
              "pitch": 63,
              "velocity": 40,
              "position": 14.020833333333334,
              "duration": 0.7291666666666666
            },
            {
              "pitch": 53,
              "velocity": 73,
              "position": 15,
              "duration": 0.3333333333333333
            },
            {
              "pitch": 63,
              "velocity": 78,
              "position": 15.020833333333334,
              "duration": 0.4166666666666667
            },
            {
              "pitch": 58,
              "velocity": 76,
              "position": 15.010416666666666,
              "duration": 0.4479166666666667
            }
          ]
        },
        "12": {
          "ctab": {
            "srcChannel": 12,
            "name": "Gtr 24",
            "accType": "CHORD2",
            "editable": false,
            "mutedNotes": [],
            "mutedChords": [],
            "autoStart": false,
            "sourceChordNote": 0,
            "sourceChordType": "min7(11)",
            "ctb2Low": null,
            "ctb2Main": {
              "ntr": "ROOT_FIXED",
              "ntt": "CHORD",
              "bassOn": false,
              "chordRootUpperLimit": 7,
              "noteLowLimit": 50,
              "noteHighLimit": 127,
              "rtr": "PITCH_SHIFT"
            },
            "ctb2High": null
          },
          "notes": [
            {
              "pitch": 63,
              "velocity": 62,
              "position": 0.020833333333333332,
              "duration": 0.5625
            },
            {
              "pitch": 58,
              "velocity": 49,
              "position": 0.010416666666666666,
              "duration": 0.6458333333333334
            },
            {
              "pitch": 53,
              "velocity": 44,
              "position": 0,
              "duration": 0.6666666666666666
            },
            {
              "pitch": 53,
              "velocity": 22,
              "position": 0.6875,
              "duration": 0.25
            },
            {
              "pitch": 63,
              "velocity": 44,
              "position": 0.6666666666666666,
              "duration": 0.3125
            },
            {
              "pitch": 58,
              "velocity": 25,
              "position": 0.6770833333333334,
              "duration": 0.3125
            },
            {
              "pitch": 53,
              "velocity": 65,
              "position": 1,
              "duration": 0.14583333333333334
            },
            {
              "pitch": 58,
              "velocity": 69,
              "position": 1.0104166666666667,
              "duration": 0.17708333333333334
            },
            {
              "pitch": 63,
              "velocity": 83,
              "position": 1.0208333333333333,
              "duration": 0.17708333333333334
            },
            {
              "pitch": 53,
              "velocity": 20,
              "position": 1.6875,
              "duration": 0.2708333333333333
            },
            {
              "pitch": 58,
              "velocity": 24,
              "position": 1.6770833333333333,
              "duration": 0.2916666666666667
            },
            {
              "pitch": 63,
              "velocity": 42,
              "position": 1.6666666666666667,
              "duration": 0.3125
            },
            {
              "pitch": 63,
              "velocity": 65,
              "position": 2.0208333333333335,
              "duration": 0.5625
            },
            {
              "pitch": 58,
              "velocity": 52,
              "position": 2.0104166666666665,
              "duration": 0.6458333333333334
            },
            {
              "pitch": 53,
              "velocity": 45,
              "position": 2,
              "duration": 0.6666666666666666
            },
            {
              "pitch": 53,
              "velocity": 13,
              "position": 2.6875,
              "duration": 0.25
            },
            {
              "pitch": 58,
              "velocity": 25,
              "position": 2.6770833333333335,
              "duration": 0.3125
            },
            {
              "pitch": 63,
              "velocity": 43,
              "position": 2.6666666666666665,
              "duration": 0.3333333333333333
            },
            {
              "pitch": 58,
              "velocity": 69,
              "position": 3.0104166666666665,
              "duration": 0.14583333333333334
            },
            {
              "pitch": 53,
              "velocity": 62,
              "position": 3,
              "duration": 0.16666666666666666
            },
            {
              "pitch": 63,
              "velocity": 80,
              "position": 3.0208333333333335,
              "duration": 0.16666666666666666
            },
            {
              "pitch": 53,
              "velocity": 22,
              "position": 3.6875,
              "duration": 0.25
            },
            {
              "pitch": 63,
              "velocity": 43,
              "position": 3.6666666666666665,
              "duration": 0.3125
            },
            {
              "pitch": 58,
              "velocity": 25,
              "position": 3.6770833333333335,
              "duration": 0.3125
            },
            {
              "pitch": 63,
              "velocity": 62,
              "position": 4.020833333333333,
              "duration": 0.5625
            },
            {
              "pitch": 58,
              "velocity": 49,
              "position": 4.010416666666667,
              "duration": 0.6458333333333334
            },
            {
              "pitch": 53,
              "velocity": 44,
              "position": 4,
              "duration": 0.6666666666666666
            },
            {
              "pitch": 53,
              "velocity": 22,
              "position": 4.6875,
              "duration": 0.25
            },
            {
              "pitch": 63,
              "velocity": 44,
              "position": 4.666666666666667,
              "duration": 0.3125
            },
            {
              "pitch": 58,
              "velocity": 25,
              "position": 4.677083333333333,
              "duration": 0.3125
            },
            {
              "pitch": 53,
              "velocity": 65,
              "position": 5,
              "duration": 0.14583333333333334
            },
            {
              "pitch": 58,
              "velocity": 69,
              "position": 5.010416666666667,
              "duration": 0.17708333333333334
            },
            {
              "pitch": 63,
              "velocity": 83,
              "position": 5.020833333333333,
              "duration": 0.17708333333333334
            },
            {
              "pitch": 53,
              "velocity": 20,
              "position": 5.6875,
              "duration": 0.2708333333333333
            },
            {
              "pitch": 58,
              "velocity": 24,
              "position": 5.677083333333333,
              "duration": 0.2916666666666667
            },
            {
              "pitch": 63,
              "velocity": 42,
              "position": 5.666666666666667,
              "duration": 0.3125
            },
            {
              "pitch": 63,
              "velocity": 65,
              "position": 6.020833333333333,
              "duration": 0.5625
            },
            {
              "pitch": 58,
              "velocity": 52,
              "position": 6.010416666666667,
              "duration": 0.6458333333333334
            },
            {
              "pitch": 53,
              "velocity": 45,
              "position": 6,
              "duration": 0.6666666666666666
            },
            {
              "pitch": 53,
              "velocity": 13,
              "position": 6.6875,
              "duration": 0.25
            },
            {
              "pitch": 58,
              "velocity": 25,
              "position": 6.677083333333333,
              "duration": 0.3125
            },
            {
              "pitch": 63,
              "velocity": 43,
              "position": 6.666666666666667,
              "duration": 0.3333333333333333
            },
            {
              "pitch": 58,
              "velocity": 69,
              "position": 7.010416666666667,
              "duration": 0.14583333333333334
            },
            {
              "pitch": 53,
              "velocity": 62,
              "position": 7,
              "duration": 0.16666666666666666
            },
            {
              "pitch": 63,
              "velocity": 80,
              "position": 7.020833333333333,
              "duration": 0.16666666666666666
            },
            {
              "pitch": 53,
              "velocity": 22,
              "position": 7.6875,
              "duration": 0.25
            },
            {
              "pitch": 63,
              "velocity": 43,
              "position": 7.666666666666667,
              "duration": 0.3125
            },
            {
              "pitch": 58,
              "velocity": 25,
              "position": 7.677083333333333,
              "duration": 0.3125
            },
            {
              "pitch": 63,
              "velocity": 62,
              "position": 8.020833333333334,
              "duration": 0.5625
            },
            {
              "pitch": 58,
              "velocity": 49,
              "position": 8.010416666666666,
              "duration": 0.6458333333333334
            },
            {
              "pitch": 53,
              "velocity": 44,
              "position": 8,
              "duration": 0.6666666666666666
            },
            {
              "pitch": 53,
              "velocity": 22,
              "position": 8.6875,
              "duration": 0.25
            },
            {
              "pitch": 63,
              "velocity": 44,
              "position": 8.666666666666666,
              "duration": 0.3125
            },
            {
              "pitch": 58,
              "velocity": 25,
              "position": 8.677083333333334,
              "duration": 0.3125
            },
            {
              "pitch": 53,
              "velocity": 65,
              "position": 9,
              "duration": 0.14583333333333334
            },
            {
              "pitch": 58,
              "velocity": 69,
              "position": 9.010416666666666,
              "duration": 0.17708333333333334
            },
            {
              "pitch": 63,
              "velocity": 83,
              "position": 9.020833333333334,
              "duration": 0.17708333333333334
            },
            {
              "pitch": 53,
              "velocity": 20,
              "position": 9.6875,
              "duration": 0.2708333333333333
            },
            {
              "pitch": 58,
              "velocity": 24,
              "position": 9.677083333333334,
              "duration": 0.2916666666666667
            },
            {
              "pitch": 63,
              "velocity": 42,
              "position": 9.666666666666666,
              "duration": 0.3125
            },
            {
              "pitch": 63,
              "velocity": 65,
              "position": 10.020833333333334,
              "duration": 0.5625
            },
            {
              "pitch": 58,
              "velocity": 52,
              "position": 10.010416666666666,
              "duration": 0.6458333333333334
            },
            {
              "pitch": 53,
              "velocity": 45,
              "position": 10,
              "duration": 0.6666666666666666
            },
            {
              "pitch": 53,
              "velocity": 13,
              "position": 10.6875,
              "duration": 0.25
            },
            {
              "pitch": 58,
              "velocity": 25,
              "position": 10.677083333333334,
              "duration": 0.3125
            },
            {
              "pitch": 63,
              "velocity": 43,
              "position": 10.666666666666666,
              "duration": 0.3333333333333333
            },
            {
              "pitch": 58,
              "velocity": 69,
              "position": 11.010416666666666,
              "duration": 0.14583333333333334
            },
            {
              "pitch": 53,
              "velocity": 62,
              "position": 11,
              "duration": 0.16666666666666666
            },
            {
              "pitch": 63,
              "velocity": 80,
              "position": 11.020833333333334,
              "duration": 0.16666666666666666
            },
            {
              "pitch": 53,
              "velocity": 22,
              "position": 11.6875,
              "duration": 0.25
            },
            {
              "pitch": 63,
              "velocity": 43,
              "position": 11.666666666666666,
              "duration": 0.3125
            },
            {
              "pitch": 58,
              "velocity": 25,
              "position": 11.677083333333334,
              "duration": 0.3125
            },
            {
              "pitch": 63,
              "velocity": 62,
              "position": 12.020833333333334,
              "duration": 0.5625
            },
            {
              "pitch": 58,
              "velocity": 49,
              "position": 12.010416666666666,
              "duration": 0.6458333333333334
            },
            {
              "pitch": 53,
              "velocity": 44,
              "position": 12,
              "duration": 0.6666666666666666
            },
            {
              "pitch": 53,
              "velocity": 22,
              "position": 12.6875,
              "duration": 0.25
            },
            {
              "pitch": 63,
              "velocity": 44,
              "position": 12.666666666666666,
              "duration": 0.3125
            },
            {
              "pitch": 58,
              "velocity": 25,
              "position": 12.677083333333334,
              "duration": 0.3125
            },
            {
              "pitch": 53,
              "velocity": 65,
              "position": 13,
              "duration": 0.14583333333333334
            },
            {
              "pitch": 58,
              "velocity": 69,
              "position": 13.010416666666666,
              "duration": 0.17708333333333334
            },
            {
              "pitch": 63,
              "velocity": 83,
              "position": 13.020833333333334,
              "duration": 0.17708333333333334
            },
            {
              "pitch": 53,
              "velocity": 20,
              "position": 13.6875,
              "duration": 0.2708333333333333
            },
            {
              "pitch": 58,
              "velocity": 24,
              "position": 13.677083333333334,
              "duration": 0.2916666666666667
            },
            {
              "pitch": 63,
              "velocity": 42,
              "position": 13.666666666666666,
              "duration": 0.3125
            },
            {
              "pitch": 63,
              "velocity": 65,
              "position": 14.020833333333334,
              "duration": 0.5625
            },
            {
              "pitch": 58,
              "velocity": 52,
              "position": 14.010416666666666,
              "duration": 0.6458333333333334
            },
            {
              "pitch": 53,
              "velocity": 45,
              "position": 14,
              "duration": 0.6666666666666666
            },
            {
              "pitch": 53,
              "velocity": 13,
              "position": 14.6875,
              "duration": 0.25
            },
            {
              "pitch": 58,
              "velocity": 25,
              "position": 14.677083333333334,
              "duration": 0.3125
            },
            {
              "pitch": 63,
              "velocity": 43,
              "position": 14.666666666666666,
              "duration": 0.3333333333333333
            },
            {
              "pitch": 58,
              "velocity": 69,
              "position": 15.010416666666666,
              "duration": 0.14583333333333334
            },
            {
              "pitch": 53,
              "velocity": 62,
              "position": 15,
              "duration": 0.16666666666666666
            },
            {
              "pitch": 63,
              "velocity": 80,
              "position": 15.020833333333334,
              "duration": 0.16666666666666666
            },
            {
              "pitch": 53,
              "velocity": 22,
              "position": 15.6875,
              "duration": 0.25
            },
            {
              "pitch": 63,
              "velocity": 43,
              "position": 15.666666666666666,
              "duration": 0.3125
            },
            {
              "pitch": 58,
              "velocity": 25,
              "position": 15.677083333333334,
              "duration": 0.3125
            }
          ]
        },
        "13": {
          "ctab": {
            "srcChannel": 13,
            "name": "Gtr 26",
            "accType": "CHORD1",
            "editable": false,
            "mutedNotes": [],
            "mutedChords": [
              "1+2+5",
              "sus4",
              "1+5",
              "1+8",
              "Maj7aug",
              "dim",
              "minMaj7(9)",
              "minMaj7",
              "min6",
              "min",
              "aug",
              "Maj7(9)",
              "Maj7#11",
              "Maj7",
              "Maj6",
              "Maj"
            ],
            "autoStart": false,
            "sourceChordNote": 0,
            "sourceChordType": "Maj7",
            "ctb2Low": null,
            "ctb2Main": {
              "ntr": "ROOT_TRANSPOSITION",
              "ntt": "MELODY",
              "bassOn": false,
              "chordRootUpperLimit": 2,
              "noteLowLimit": 0,
              "noteHighLimit": 66,
              "rtr": "PITCH_SHIFT"
            },
            "ctb2High": null
          },
          "notes": [
            {
              "pitch": 72,
              "velocity": 37,
              "position": 0,
              "duration": 0.7291666666666666
            },
            {
              "pitch": 72,
              "velocity": 73,
              "position": 1,
              "duration": 0.3020833333333333
            },
            {
              "pitch": 72,
              "velocity": 39,
              "position": 2,
              "duration": 0.7291666666666666
            },
            {
              "pitch": 72,
              "velocity": 73,
              "position": 3,
              "duration": 0.4166666666666667
            },
            {
              "pitch": 72,
              "velocity": 35,
              "position": 4,
              "duration": 0.7291666666666666
            },
            {
              "pitch": 72,
              "velocity": 77,
              "position": 5,
              "duration": 0.3854166666666667
            },
            {
              "pitch": 72,
              "velocity": 38,
              "position": 6,
              "duration": 0.7291666666666666
            },
            {
              "pitch": 72,
              "velocity": 73,
              "position": 7,
              "duration": 0.3645833333333333
            },
            {
              "pitch": 72,
              "velocity": 37,
              "position": 8,
              "duration": 0.7291666666666666
            },
            {
              "pitch": 72,
              "velocity": 73,
              "position": 9,
              "duration": 0.3020833333333333
            },
            {
              "pitch": 72,
              "velocity": 38,
              "position": 10,
              "duration": 0.7291666666666666
            },
            {
              "pitch": 72,
              "velocity": 73,
              "position": 11,
              "duration": 0.4270833333333333
            },
            {
              "pitch": 72,
              "velocity": 39,
              "position": 12,
              "duration": 0.7291666666666666
            },
            {
              "pitch": 72,
              "velocity": 74,
              "position": 13,
              "duration": 0.4583333333333333
            },
            {
              "pitch": 72,
              "velocity": 35,
              "position": 14,
              "duration": 0.7291666666666666
            },
            {
              "pitch": 72,
              "velocity": 76,
              "position": 15,
              "duration": 0.4479166666666667
            }
          ]
        },
        "14": {
          "ctab": {
            "srcChannel": 14,
            "name": "Gtr 24rt",
            "accType": "CHORD2",
            "editable": false,
            "mutedNotes": [],
            "mutedChords": [
              "1+2+5",
              "sus4",
              "1+5",
              "1+8",
              "Maj7aug",
              "dim",
              "minMaj7(9)",
              "minMaj7",
              "min6",
              "min",
              "aug",
              "Maj7(9)",
              "Maj7#11",
              "Maj7",
              "Maj6",
              "Maj"
            ],
            "autoStart": false,
            "sourceChordNote": 0,
            "sourceChordType": "Maj7",
            "ctb2Low": null,
            "ctb2Main": {
              "ntr": "ROOT_TRANSPOSITION",
              "ntt": "MELODY",
              "bassOn": false,
              "chordRootUpperLimit": 6,
              "noteLowLimit": 0,
              "noteHighLimit": 127,
              "rtr": "PITCH_SHIFT"
            },
            "ctb2High": null
          },
          "notes": [
            {
              "pitch": 60,
              "velocity": 51,
              "position": 0.010416666666666666,
              "duration": 0.6458333333333334
            },
            {
              "pitch": 60,
              "velocity": 17,
              "position": 0.6770833333333334,
              "duration": 0.3125
            },
            {
              "pitch": 60,
              "velocity": 76,
              "position": 1.0104166666666667,
              "duration": 0.17708333333333334
            },
            {
              "pitch": 60,
              "velocity": 16,
              "position": 1.6770833333333333,
              "duration": 0.3125
            },
            {
              "pitch": 60,
              "velocity": 55,
              "position": 2.0104166666666665,
              "duration": 0.6458333333333334
            },
            {
              "pitch": 60,
              "velocity": 17,
              "position": 2.6770833333333335,
              "duration": 0.3125
            },
            {
              "pitch": 60,
              "velocity": 75,
              "position": 3.0104166666666665,
              "duration": 0.14583333333333334
            },
            {
              "pitch": 60,
              "velocity": 17,
              "position": 3.6770833333333335,
              "duration": 0.3125
            },
            {
              "pitch": 60,
              "velocity": 55,
              "position": 4.010416666666667,
              "duration": 0.6458333333333334
            },
            {
              "pitch": 60,
              "velocity": 22,
              "position": 4.677083333333333,
              "duration": 0.3125
            },
            {
              "pitch": 60,
              "velocity": 70,
              "position": 5.010416666666667,
              "duration": 0.15625
            },
            {
              "pitch": 60,
              "velocity": 14,
              "position": 5.677083333333333,
              "duration": 0.3125
            },
            {
              "pitch": 60,
              "velocity": 51,
              "position": 6.010416666666667,
              "duration": 0.6458333333333334
            },
            {
              "pitch": 60,
              "velocity": 18,
              "position": 6.677083333333333,
              "duration": 0.3125
            },
            {
              "pitch": 60,
              "velocity": 73,
              "position": 7.010416666666667,
              "duration": 0.14583333333333334
            },
            {
              "pitch": 60,
              "velocity": 20,
              "position": 7.677083333333333,
              "duration": 0.3125
            },
            {
              "pitch": 60,
              "velocity": 51,
              "position": 8.010416666666666,
              "duration": 0.6458333333333334
            },
            {
              "pitch": 60,
              "velocity": 18,
              "position": 8.677083333333334,
              "duration": 0.3125
            },
            {
              "pitch": 60,
              "velocity": 72,
              "position": 9.010416666666666,
              "duration": 0.14583333333333334
            },
            {
              "pitch": 60,
              "velocity": 14,
              "position": 9.677083333333334,
              "duration": 0.3125
            },
            {
              "pitch": 60,
              "velocity": 56,
              "position": 10.010416666666666,
              "duration": 0.6458333333333334
            },
            {
              "pitch": 60,
              "velocity": 18,
              "position": 10.677083333333334,
              "duration": 0.3125
            },
            {
              "pitch": 60,
              "velocity": 75,
              "position": 11.010416666666666,
              "duration": 0.15625
            },
            {
              "pitch": 60,
              "velocity": 18,
              "position": 11.677083333333334,
              "duration": 0.3125
            },
            {
              "pitch": 60,
              "velocity": 59,
              "position": 12.010416666666666,
              "duration": 0.6458333333333334
            },
            {
              "pitch": 60,
              "velocity": 23,
              "position": 12.677083333333334,
              "duration": 0.3125
            },
            {
              "pitch": 60,
              "velocity": 77,
              "position": 13.010416666666666,
              "duration": 0.14583333333333334
            },
            {
              "pitch": 60,
              "velocity": 18,
              "position": 13.677083333333334,
              "duration": 0.3125
            },
            {
              "pitch": 60,
              "velocity": 59,
              "position": 14.010416666666666,
              "duration": 0.6458333333333334
            },
            {
              "pitch": 60,
              "velocity": 17,
              "position": 14.677083333333334,
              "duration": 0.3125
            },
            {
              "pitch": 60,
              "velocity": 75,
              "position": 15.010416666666666,
              "duration": 0.14583333333333334
            },
            {
              "pitch": 60,
              "velocity": 17,
              "position": 15.677083333333334,
              "duration": 0.2916666666666667
            }
          ]
        }
      }
    },
    "Main_D": {
      "type": "Main_D",
      "sizeInBeats": 16,
      "channels": {
        "7": {
          "ctab": {
            "srcChannel": 7,
            "name": "CC_Crash",
            "accType": "RHYTHM",
            "editable": false,
            "mutedNotes": [],
            "mutedChords": [
              "1+2+5",
              "sus4",
              "1+5",
              "1+8",
              "7aug",
              "Maj7aug",
              "7(#9)",
              "7(b13)",
              "7(b9)",
              "7(13)",
              "7#11",
              "7(9)",
              "7b5",
              "7sus4",
              "7th",
              "dim7",
              "dim",
              "minMaj7(9)",
              "minMaj7",
              "min7(11)",
              "min7(9)",
              "min(9)",
              "m7b5",
              "min7",
              "min6",
              "min",
              "aug",
              "Maj6(9)",
              "Maj7(9)",
              "Maj(9)",
              "Maj7#11",
              "Maj7",
              "Maj6",
              "Maj"
            ],
            "autoStart": true,
            "sourceChordNote": 0,
            "sourceChordType": "Maj",
            "ctb2Low": null,
            "ctb2Main": {
              "ntr": "ROOT_FIXED",
              "ntt": "BYPASS",
              "bassOn": false,
              "chordRootUpperLimit": 0,
              "noteLowLimit": 0,
              "noteHighLimit": 127,
              "rtr": "RETRIGGER"
            },
            "ctb2High": null
          },
          "notes": []
        },
        "8": {
          "ctab": {
            "srcChannel": 8,
            "name": "Brush",
            "accType": "SUBRHYTHM",
            "editable": false,
            "mutedNotes": [],
            "mutedChords": [],
            "autoStart": true,
            "sourceChordNote": 0,
            "sourceChordType": "Maj7",
            "ctb2Low": null,
            "ctb2Main": {
              "ntr": "ROOT_FIXED",
              "ntt": "BYPASS",
              "bassOn": false,
              "chordRootUpperLimit": 6,
              "noteLowLimit": 0,
              "noteHighLimit": 127,
              "rtr": "PITCH_SHIFT"
            },
            "ctb2High": null
          },
          "notes": [
            {
              "pitch": 54,
              "velocity": 72,
              "position": 1.0208333333333333,
              "duration": 0.08333333333333333
            },
            {
              "pitch": 54,
              "velocity": 72,
              "position": 3.0208333333333335,
              "duration": 0.08333333333333333
            },
            {
              "pitch": 54,
              "velocity": 56,
              "position": 4.6875,
              "duration": 0.08333333333333333
            },
            {
              "pitch": 54,
              "velocity": 72,
              "position": 5.020833333333333,
              "duration": 0.08333333333333333
            },
            {
              "pitch": 54,
              "velocity": 72,
              "position": 7.020833333333333,
              "duration": 0.08333333333333333
            },
            {
              "pitch": 54,
              "velocity": 72,
              "position": 9.020833333333334,
              "duration": 0.08333333333333333
            },
            {
              "pitch": 54,
              "velocity": 72,
              "position": 11.020833333333334,
              "duration": 0.08333333333333333
            },
            {
              "pitch": 54,
              "velocity": 56,
              "position": 12.6875,
              "duration": 0.08333333333333333
            },
            {
              "pitch": 54,
              "velocity": 72,
              "position": 13.020833333333334,
              "duration": 0.08333333333333333
            },
            {
              "pitch": 54,
              "velocity": 72,
              "position": 15.020833333333334,
              "duration": 0.08333333333333333
            }
          ]
        },
        "9": {
          "ctab": {
            "srcChannel": 9,
            "name": "Brush",
            "accType": "RHYTHM",
            "editable": false,
            "mutedNotes": [],
            "mutedChords": [],
            "autoStart": true,
            "sourceChordNote": 0,
            "sourceChordType": "Maj7",
            "ctb2Low": null,
            "ctb2Main": {
              "ntr": "ROOT_FIXED",
              "ntt": "BYPASS",
              "bassOn": false,
              "chordRootUpperLimit": 6,
              "noteLowLimit": 0,
              "noteHighLimit": 127,
              "rtr": "PITCH_SHIFT"
            },
            "ctb2High": null
          },
          "notes": [
            {
              "pitch": 33,
              "velocity": 47,
              "position": 0,
              "duration": 0.03125
            },
            {
              "pitch": 28,
              "velocity": 54,
              "position": 0,
              "duration": 0.9583333333333334
            },
            {
              "pitch": 44,
              "velocity": 51,
              "position": 1.0104166666666667,
              "duration": 0.052083333333333336
            },
            {
              "pitch": 33,
              "velocity": 41,
              "position": 1.6666666666666667,
              "duration": 0.03125
            },
            {
              "pitch": 26,
              "velocity": 47,
              "position": 1,
              "duration": 0.9583333333333334
            },
            {
              "pitch": 28,
              "velocity": 27,
              "position": 2,
              "duration": 0.9583333333333334
            },
            {
              "pitch": 33,
              "velocity": 49,
              "position": 3,
              "duration": 0.03125
            },
            {
              "pitch": 44,
              "velocity": 35,
              "position": 3.0104166666666665,
              "duration": 0.052083333333333336
            },
            {
              "pitch": 26,
              "velocity": 48,
              "position": 3,
              "duration": 0.9583333333333334
            },
            {
              "pitch": 28,
              "velocity": 27,
              "position": 4,
              "duration": 0.65625
            },
            {
              "pitch": 31,
              "velocity": 55,
              "position": 4.666666666666667,
              "duration": 0.020833333333333332
            },
            {
              "pitch": 33,
              "velocity": 33,
              "position": 5,
              "duration": 0.03125
            },
            {
              "pitch": 44,
              "velocity": 51,
              "position": 5.010416666666667,
              "duration": 0.052083333333333336
            },
            {
              "pitch": 26,
              "velocity": 47,
              "position": 5,
              "duration": 0.9583333333333334
            },
            {
              "pitch": 25,
              "velocity": 76,
              "position": 6,
              "duration": 0.020833333333333332
            },
            {
              "pitch": 28,
              "velocity": 27,
              "position": 6,
              "duration": 0.9583333333333334
            },
            {
              "pitch": 27,
              "velocity": 97,
              "position": 7,
              "duration": 0.020833333333333332
            },
            {
              "pitch": 44,
              "velocity": 51,
              "position": 7.010416666666667,
              "duration": 0.052083333333333336
            },
            {
              "pitch": 26,
              "velocity": 48,
              "position": 7,
              "duration": 0.9583333333333334
            },
            {
              "pitch": 33,
              "velocity": 47,
              "position": 8,
              "duration": 0.03125
            },
            {
              "pitch": 28,
              "velocity": 54,
              "position": 8,
              "duration": 0.9583333333333334
            },
            {
              "pitch": 44,
              "velocity": 51,
              "position": 9.010416666666666,
              "duration": 0.052083333333333336
            },
            {
              "pitch": 33,
              "velocity": 42,
              "position": 9.666666666666666,
              "duration": 0.03125
            },
            {
              "pitch": 26,
              "velocity": 47,
              "position": 9,
              "duration": 0.9583333333333334
            },
            {
              "pitch": 28,
              "velocity": 27,
              "position": 10,
              "duration": 0.9583333333333334
            },
            {
              "pitch": 33,
              "velocity": 47,
              "position": 11,
              "duration": 0.03125
            },
            {
              "pitch": 44,
              "velocity": 30,
              "position": 11.010416666666666,
              "duration": 0.052083333333333336
            },
            {
              "pitch": 26,
              "velocity": 48,
              "position": 11,
              "duration": 0.9583333333333334
            },
            {
              "pitch": 28,
              "velocity": 27,
              "position": 12,
              "duration": 0.65625
            },
            {
              "pitch": 31,
              "velocity": 55,
              "position": 12.666666666666666,
              "duration": 0.020833333333333332
            },
            {
              "pitch": 33,
              "velocity": 33,
              "position": 13,
              "duration": 0.03125
            },
            {
              "pitch": 44,
              "velocity": 51,
              "position": 13.010416666666666,
              "duration": 0.052083333333333336
            },
            {
              "pitch": 26,
              "velocity": 47,
              "position": 13,
              "duration": 0.9583333333333334
            },
            {
              "pitch": 25,
              "velocity": 76,
              "position": 14,
              "duration": 0.020833333333333332
            },
            {
              "pitch": 28,
              "velocity": 27,
              "position": 14,
              "duration": 0.9583333333333334
            },
            {
              "pitch": 44,
              "velocity": 51,
              "position": 15.010416666666666,
              "duration": 0.052083333333333336
            },
            {
              "pitch": 26,
              "velocity": 48,
              "position": 15,
              "duration": 0.9583333333333334
            }
          ]
        },
        "10": {
          "ctab": {
            "srcChannel": 10,
            "name": "Bass 32",
            "accType": "BASS",
            "editable": false,
            "mutedNotes": [],
            "mutedChords": [],
            "autoStart": false,
            "sourceChordNote": 0,
            "sourceChordType": "Maj7",
            "ctb2Low": null,
            "ctb2Main": {
              "ntr": "ROOT_TRANSPOSITION",
              "ntt": "MELODY",
              "bassOn": true,
              "chordRootUpperLimit": 8,
              "noteLowLimit": 28,
              "noteHighLimit": 127,
              "rtr": "PITCH_SHIFT_TO_ROOT"
            },
            "ctb2High": null
          },
          "notes": [
            {
              "pitch": 24,
              "velocity": 83,
              "position": 0,
              "duration": 1.65625
            },
            {
              "pitch": 31,
              "velocity": 77,
              "position": 1.6666666666666667,
              "duration": 1.3229166666666667
            },
            {
              "pitch": 36,
              "velocity": 83,
              "position": 3,
              "duration": 3.96875
            },
            {
              "pitch": 31,
              "velocity": 74,
              "position": 7,
              "duration": 0.9895833333333334
            },
            {
              "pitch": 24,
              "velocity": 83,
              "position": 8,
              "duration": 1.65625
            },
            {
              "pitch": 31,
              "velocity": 77,
              "position": 9.666666666666666,
              "duration": 1.3229166666666667
            },
            {
              "pitch": 36,
              "velocity": 83,
              "position": 11,
              "duration": 4.989583333333333
            }
          ]
        },
        "11": {
          "ctab": {
            "srcChannel": 11,
            "name": "Gtr 26",
            "accType": "CHORD1",
            "editable": false,
            "mutedNotes": [],
            "mutedChords": [],
            "autoStart": false,
            "sourceChordNote": 0,
            "sourceChordType": "min7(11)",
            "ctb2Low": null,
            "ctb2Main": {
              "ntr": "ROOT_FIXED",
              "ntt": "CHORD",
              "bassOn": false,
              "chordRootUpperLimit": 7,
              "noteLowLimit": 50,
              "noteHighLimit": 127,
              "rtr": "PITCH_SHIFT"
            },
            "ctb2High": null
          },
          "notes": [
            {
              "pitch": 58,
              "velocity": 69,
              "position": 1.6770833333333333,
              "duration": 0.3020833333333333
            },
            {
              "pitch": 53,
              "velocity": 67,
              "position": 1.6666666666666667,
              "duration": 0.34375
            },
            {
              "pitch": 63,
              "velocity": 77,
              "position": 1.6875,
              "duration": 0.34375
            },
            {
              "pitch": 58,
              "velocity": 69,
              "position": 3.0104166666666665,
              "duration": 2.6354166666666665
            },
            {
              "pitch": 53,
              "velocity": 67,
              "position": 3,
              "duration": 2.6770833333333335
            },
            {
              "pitch": 63,
              "velocity": 77,
              "position": 3.0208333333333335,
              "duration": 2.6770833333333335
            },
            {
              "pitch": 53,
              "velocity": 59,
              "position": 6,
              "duration": 0.3125
            },
            {
              "pitch": 63,
              "velocity": 65,
              "position": 6.020833333333333,
              "duration": 0.34375
            },
            {
              "pitch": 58,
              "velocity": 59,
              "position": 6.010416666666667,
              "duration": 0.4166666666666667
            },
            {
              "pitch": 53,
              "velocity": 51,
              "position": 9.666666666666666,
              "duration": 0.3125
            },
            {
              "pitch": 63,
              "velocity": 55,
              "position": 9.6875,
              "duration": 0.34375
            },
            {
              "pitch": 58,
              "velocity": 56,
              "position": 9.677083333333334,
              "duration": 0.3854166666666667
            },
            {
              "pitch": 58,
              "velocity": 67,
              "position": 11.010416666666666,
              "duration": 2.6354166666666665
            },
            {
              "pitch": 53,
              "velocity": 65,
              "position": 11,
              "duration": 2.6770833333333335
            },
            {
              "pitch": 63,
              "velocity": 74,
              "position": 11.020833333333334,
              "duration": 2.6770833333333335
            },
            {
              "pitch": 53,
              "velocity": 69,
              "position": 14,
              "duration": 0.65625
            },
            {
              "pitch": 58,
              "velocity": 69,
              "position": 14.010416666666666,
              "duration": 0.6458333333333334
            },
            {
              "pitch": 63,
              "velocity": 73,
              "position": 14.020833333333334,
              "duration": 0.6354166666666666
            },
            {
              "pitch": 63,
              "velocity": 52,
              "position": 14.6875,
              "duration": 0.20833333333333334
            },
            {
              "pitch": 58,
              "velocity": 48,
              "position": 14.677083333333334,
              "duration": 0.22916666666666666
            },
            {
              "pitch": 53,
              "velocity": 48,
              "position": 14.666666666666666,
              "duration": 0.28125
            }
          ]
        },
        "12": {
          "ctab": {
            "srcChannel": 12,
            "name": "Gtr 24",
            "accType": "CHORD2",
            "editable": false,
            "mutedNotes": [],
            "mutedChords": [],
            "autoStart": false,
            "sourceChordNote": 0,
            "sourceChordType": "min7(11)",
            "ctb2Low": null,
            "ctb2Main": {
              "ntr": "ROOT_FIXED",
              "ntt": "CHORD",
              "bassOn": false,
              "chordRootUpperLimit": 7,
              "noteLowLimit": 50,
              "noteHighLimit": 127,
              "rtr": "PITCH_SHIFT"
            },
            "ctb2High": null
          },
          "notes": [
            {
              "pitch": 53,
              "velocity": 57,
              "position": 0,
              "duration": 2.9791666666666665
            },
            {
              "pitch": 58,
              "velocity": 63,
              "position": 0.010416666666666666,
              "duration": 2.9791666666666665
            },
            {
              "pitch": 63,
              "velocity": 79,
              "position": 0.020833333333333332,
              "duration": 2.9791666666666665
            },
            {
              "pitch": 53,
              "velocity": 51,
              "position": 3,
              "duration": 2.9791666666666665
            },
            {
              "pitch": 58,
              "velocity": 51,
              "position": 3.0104166666666665,
              "duration": 2.9791666666666665
            },
            {
              "pitch": 63,
              "velocity": 72,
              "position": 3.0208333333333335,
              "duration": 2.9791666666666665
            },
            {
              "pitch": 53,
              "velocity": 48,
              "position": 6,
              "duration": 1.9791666666666667
            },
            {
              "pitch": 58,
              "velocity": 47,
              "position": 6.010416666666667,
              "duration": 1.9791666666666667
            },
            {
              "pitch": 63,
              "velocity": 69,
              "position": 6.020833333333333,
              "duration": 1.9791666666666667
            },
            {
              "pitch": 58,
              "velocity": 66,
              "position": 8.010416666666666,
              "duration": 2.9375
            },
            {
              "pitch": 53,
              "velocity": 60,
              "position": 8,
              "duration": 2.9791666666666665
            },
            {
              "pitch": 63,
              "velocity": 83,
              "position": 8.020833333333334,
              "duration": 2.9791666666666665
            },
            {
              "pitch": 63,
              "velocity": 74,
              "position": 11.020833333333334,
              "duration": 4.895833333333333
            },
            {
              "pitch": 53,
              "velocity": 51,
              "position": 11,
              "duration": 4.979166666666667
            },
            {
              "pitch": 58,
              "velocity": 58,
              "position": 11.010416666666666,
              "duration": 4.979166666666667
            }
          ]
        },
        "13": {
          "ctab": {
            "srcChannel": 13,
            "name": "Gtr 26",
            "accType": "CHORD1",
            "editable": false,
            "mutedNotes": [],
            "mutedChords": [
              "1+2+5",
              "sus4",
              "1+5",
              "1+8",
              "Maj7aug",
              "dim",
              "minMaj7(9)",
              "minMaj7",
              "min6",
              "min",
              "aug",
              "Maj7(9)",
              "Maj7#11",
              "Maj7",
              "Maj6",
              "Maj"
            ],
            "autoStart": false,
            "sourceChordNote": 0,
            "sourceChordType": "Maj7",
            "ctb2Low": null,
            "ctb2Main": {
              "ntr": "ROOT_TRANSPOSITION",
              "ntt": "MELODY",
              "bassOn": false,
              "chordRootUpperLimit": 2,
              "noteLowLimit": 0,
              "noteHighLimit": 66,
              "rtr": "PITCH_SHIFT"
            },
            "ctb2High": null
          },
          "notes": [
            {
              "pitch": 72,
              "velocity": 60,
              "position": 1.6666666666666667,
              "duration": 0.3020833333333333
            },
            {
              "pitch": 72,
              "velocity": 60,
              "position": 3,
              "duration": 2.6354166666666665
            },
            {
              "pitch": 72,
              "velocity": 60,
              "position": 6,
              "duration": 0.4166666666666667
            },
            {
              "pitch": 72,
              "velocity": 59,
              "position": 9.666666666666666,
              "duration": 0.3854166666666667
            },
            {
              "pitch": 72,
              "velocity": 65,
              "position": 11,
              "duration": 2.6354166666666665
            },
            {
              "pitch": 72,
              "velocity": 62,
              "position": 14,
              "duration": 0.6458333333333334
            },
            {
              "pitch": 72,
              "velocity": 49,
              "position": 14.666666666666666,
              "duration": 0.22916666666666666
            }
          ]
        },
        "14": {
          "ctab": {
            "srcChannel": 14,
            "name": "Gtr 24rt",
            "accType": "CHORD2",
            "editable": false,
            "mutedNotes": [],
            "mutedChords": [
              "1+2+5",
              "sus4",
              "1+5",
              "1+8",
              "Maj7aug",
              "dim",
              "minMaj7(9)",
              "minMaj7",
              "min6",
              "min",
              "aug",
              "Maj7(9)",
              "Maj7#11",
              "Maj7",
              "Maj6",
              "Maj"
            ],
            "autoStart": false,
            "sourceChordNote": 0,
            "sourceChordType": "Maj7",
            "ctb2Low": null,
            "ctb2Main": {
              "ntr": "ROOT_TRANSPOSITION",
              "ntt": "MELODY",
              "bassOn": false,
              "chordRootUpperLimit": 6,
              "noteLowLimit": 0,
              "noteHighLimit": 127,
              "rtr": "PITCH_SHIFT"
            },
            "ctb2High": null
          },
          "notes": [
            {
              "pitch": 60,
              "velocity": 68,
              "position": 0.010416666666666666,
              "duration": 2.9791666666666665
            },
            {
              "pitch": 60,
              "velocity": 54,
              "position": 3.0104166666666665,
              "duration": 2.9791666666666665
            },
            {
              "pitch": 60,
              "velocity": 49,
              "position": 6.010416666666667,
              "duration": 1.9791666666666667
            },
            {
              "pitch": 60,
              "velocity": 68,
              "position": 8.010416666666666,
              "duration": 2.9375
            },
            {
              "pitch": 60,
              "velocity": 57,
              "position": 11.010416666666666,
              "duration": 4.979166666666667
            }
          ]
        }
      }
    },
    "Fill_In_AA": {
      "type": "Fill_In_AA",
      "sizeInBeats": 4,
      "channels": {
        "7": {
          "ctab": {
            "srcChannel": 7,
            "name": "CC_Crash",
            "accType": "RHYTHM",
            "editable": false,
            "mutedNotes": [],
            "mutedChords": [
              "1+2+5",
              "sus4",
              "1+5",
              "1+8",
              "7aug",
              "Maj7aug",
              "7(#9)",
              "7(b13)",
              "7(b9)",
              "7(13)",
              "7#11",
              "7(9)",
              "7b5",
              "7sus4",
              "7th",
              "dim7",
              "dim",
              "minMaj7(9)",
              "minMaj7",
              "min7(11)",
              "min7(9)",
              "min(9)",
              "m7b5",
              "min7",
              "min6",
              "min",
              "aug",
              "Maj6(9)",
              "Maj7(9)",
              "Maj(9)",
              "Maj7#11",
              "Maj7",
              "Maj6",
              "Maj"
            ],
            "autoStart": true,
            "sourceChordNote": 0,
            "sourceChordType": "Maj",
            "ctb2Low": null,
            "ctb2Main": {
              "ntr": "ROOT_FIXED",
              "ntt": "BYPASS",
              "bassOn": false,
              "chordRootUpperLimit": 0,
              "noteLowLimit": 0,
              "noteHighLimit": 127,
              "rtr": "RETRIGGER"
            },
            "ctb2High": null
          },
          "notes": []
        },
        "8": {
          "ctab": {
            "srcChannel": 8,
            "name": "Brush",
            "accType": "SUBRHYTHM",
            "editable": false,
            "mutedNotes": [],
            "mutedChords": [],
            "autoStart": true,
            "sourceChordNote": 0,
            "sourceChordType": "Maj7",
            "ctb2Low": null,
            "ctb2Main": {
              "ntr": "ROOT_FIXED",
              "ntt": "BYPASS",
              "bassOn": false,
              "chordRootUpperLimit": 6,
              "noteLowLimit": 0,
              "noteHighLimit": 127,
              "rtr": "PITCH_SHIFT"
            },
            "ctb2High": null
          },
          "notes": []
        },
        "9": {
          "ctab": {
            "srcChannel": 9,
            "name": "Brush",
            "accType": "RHYTHM",
            "editable": false,
            "mutedNotes": [],
            "mutedChords": [],
            "autoStart": true,
            "sourceChordNote": 0,
            "sourceChordType": "Maj7",
            "ctb2Low": null,
            "ctb2Main": {
              "ntr": "ROOT_FIXED",
              "ntt": "BYPASS",
              "bassOn": false,
              "chordRootUpperLimit": 6,
              "noteLowLimit": 0,
              "noteHighLimit": 127,
              "rtr": "PITCH_SHIFT"
            },
            "ctb2High": null
          },
          "notes": [
            {
              "pitch": 27,
              "velocity": 77,
              "position": 0,
              "duration": 0.020833333333333332
            },
            {
              "pitch": 33,
              "velocity": 54,
              "position": 0,
              "duration": 0.03125
            },
            {
              "pitch": 27,
              "velocity": 22,
              "position": 0.6458333333333334,
              "duration": 0.020833333333333332
            },
            {
              "pitch": 27,
              "velocity": 45,
              "position": 1,
              "duration": 0.020833333333333332
            },
            {
              "pitch": 44,
              "velocity": 45,
              "position": 1,
              "duration": 0.052083333333333336
            },
            {
              "pitch": 28,
              "velocity": 50,
              "position": 1,
              "duration": 0.5208333333333334
            },
            {
              "pitch": 38,
              "velocity": 46,
              "position": 1.625,
              "duration": 0.08333333333333333
            },
            {
              "pitch": 25,
              "velocity": 90,
              "position": 2,
              "duration": 0.020833333333333332
            },
            {
              "pitch": 33,
              "velocity": 54,
              "position": 2,
              "duration": 0.03125
            },
            {
              "pitch": 27,
              "velocity": 37,
              "position": 2.3125,
              "duration": 0.020833333333333332
            },
            {
              "pitch": 27,
              "velocity": 55,
              "position": 2.625,
              "duration": 0.08333333333333333
            },
            {
              "pitch": 33,
              "velocity": 23,
              "position": 3,
              "duration": 0.03125
            },
            {
              "pitch": 44,
              "velocity": 51,
              "position": 3.0104166666666665,
              "duration": 0.052083333333333336
            },
            {
              "pitch": 38,
              "velocity": 52,
              "position": 3.6666666666666665,
              "duration": 0.020833333333333332
            }
          ]
        },
        "10": {
          "ctab": {
            "srcChannel": 10,
            "name": "Bass 32",
            "accType": "BASS",
            "editable": false,
            "mutedNotes": [],
            "mutedChords": [],
            "autoStart": false,
            "sourceChordNote": 0,
            "sourceChordType": "Maj7",
            "ctb2Low": null,
            "ctb2Main": {
              "ntr": "ROOT_TRANSPOSITION",
              "ntt": "MELODY",
              "bassOn": true,
              "chordRootUpperLimit": 8,
              "noteLowLimit": 28,
              "noteHighLimit": 127,
              "rtr": "PITCH_SHIFT_TO_ROOT"
            },
            "ctb2High": null
          },
          "notes": [
            {
              "pitch": 24,
              "velocity": 88,
              "position": 0,
              "duration": 1.9791666666666667
            },
            {
              "pitch": 31,
              "velocity": 83,
              "position": 2,
              "duration": 1.9791666666666667
            }
          ]
        },
        "11": {
          "ctab": {
            "srcChannel": 11,
            "name": "Gtr 26",
            "accType": "CHORD1",
            "editable": false,
            "mutedNotes": [],
            "mutedChords": [],
            "autoStart": false,
            "sourceChordNote": 0,
            "sourceChordType": "min7(11)",
            "ctb2Low": null,
            "ctb2Main": {
              "ntr": "ROOT_FIXED",
              "ntt": "CHORD",
              "bassOn": false,
              "chordRootUpperLimit": 7,
              "noteLowLimit": 50,
              "noteHighLimit": 127,
              "rtr": "PITCH_SHIFT"
            },
            "ctb2High": null
          },
          "notes": [
            {
              "pitch": 51,
              "velocity": 69,
              "position": 0,
              "duration": 0.3333333333333333
            },
            {
              "pitch": 53,
              "velocity": 65,
              "position": 0.010416666666666666,
              "duration": 0.375
            },
            {
              "pitch": 58,
              "velocity": 59,
              "position": 0.020833333333333332,
              "duration": 0.375
            },
            {
              "pitch": 58,
              "velocity": 59,
              "position": 1.0208333333333333,
              "duration": 0.6145833333333334
            },
            {
              "pitch": 51,
              "velocity": 69,
              "position": 1,
              "duration": 0.65625
            },
            {
              "pitch": 53,
              "velocity": 65,
              "position": 1.0104166666666667,
              "duration": 0.6666666666666666
            },
            {
              "pitch": 51,
              "velocity": 75,
              "position": 1.6666666666666667,
              "duration": 0.9791666666666666
            },
            {
              "pitch": 53,
              "velocity": 67,
              "position": 1.6875,
              "duration": 0.96875
            },
            {
              "pitch": 58,
              "velocity": 71,
              "position": 1.6770833333333333,
              "duration": 0.9895833333333334
            },
            {
              "pitch": 53,
              "velocity": 59,
              "position": 2.6875,
              "duration": 0.23958333333333334
            },
            {
              "pitch": 58,
              "velocity": 63,
              "position": 2.6770833333333335,
              "duration": 0.2708333333333333
            },
            {
              "pitch": 51,
              "velocity": 66,
              "position": 2.6666666666666665,
              "duration": 0.34375
            },
            {
              "pitch": 58,
              "velocity": 83,
              "position": 3,
              "duration": 0.3645833333333333
            },
            {
              "pitch": 51,
              "velocity": 78,
              "position": 3.0208333333333335,
              "duration": 0.3645833333333333
            },
            {
              "pitch": 53,
              "velocity": 73,
              "position": 3.0104166666666665,
              "duration": 0.4166666666666667
            }
          ]
        },
        "12": {
          "ctab": {
            "srcChannel": 12,
            "name": "Gtr 24",
            "accType": "CHORD2",
            "editable": false,
            "mutedNotes": [],
            "mutedChords": [],
            "autoStart": false,
            "sourceChordNote": 0,
            "sourceChordType": "min7(11)",
            "ctb2Low": null,
            "ctb2Main": {
              "ntr": "ROOT_FIXED",
              "ntt": "CHORD",
              "bassOn": false,
              "chordRootUpperLimit": 7,
              "noteLowLimit": 50,
              "noteHighLimit": 127,
              "rtr": "PITCH_SHIFT"
            },
            "ctb2High": null
          },
          "notes": [
            {
              "pitch": 63,
              "velocity": 60,
              "position": 1.0208333333333333,
              "duration": 0.59375
            },
            {
              "pitch": 58,
              "velocity": 42,
              "position": 1.0104166666666667,
              "duration": 0.6145833333333334
            },
            {
              "pitch": 53,
              "velocity": 33,
              "position": 1,
              "duration": 0.6666666666666666
            },
            {
              "pitch": 63,
              "velocity": 73,
              "position": 1.6666666666666667,
              "duration": 0.9895833333333334
            },
            {
              "pitch": 58,
              "velocity": 57,
              "position": 1.6770833333333333,
              "duration": 0.9895833333333334
            },
            {
              "pitch": 53,
              "velocity": 50,
              "position": 1.6875,
              "duration": 0.9895833333333334
            },
            {
              "pitch": 63,
              "velocity": 69,
              "position": 3.0208333333333335,
              "duration": 0.53125
            },
            {
              "pitch": 58,
              "velocity": 59,
              "position": 3.0104166666666665,
              "duration": 0.6145833333333334
            },
            {
              "pitch": 53,
              "velocity": 48,
              "position": 3,
              "duration": 0.6979166666666666
            }
          ]
        },
        "13": {
          "ctab": {
            "srcChannel": 13,
            "name": "Gtr 26",
            "accType": "CHORD1",
            "editable": false,
            "mutedNotes": [],
            "mutedChords": [
              "1+2+5",
              "sus4",
              "1+5",
              "1+8",
              "Maj7aug",
              "dim",
              "minMaj7(9)",
              "minMaj7",
              "min6",
              "min",
              "aug",
              "Maj7(9)",
              "Maj7#11",
              "Maj7",
              "Maj6",
              "Maj"
            ],
            "autoStart": false,
            "sourceChordNote": 0,
            "sourceChordType": "Maj7",
            "ctb2Low": null,
            "ctb2Main": {
              "ntr": "ROOT_TRANSPOSITION",
              "ntt": "MELODY",
              "bassOn": false,
              "chordRootUpperLimit": 2,
              "noteLowLimit": 0,
              "noteHighLimit": 66,
              "rtr": "PITCH_SHIFT"
            },
            "ctb2High": null
          },
          "notes": [
            {
              "pitch": 60,
              "velocity": 59,
              "position": 0,
              "duration": 0.375
            },
            {
              "pitch": 60,
              "velocity": 59,
              "position": 1,
              "duration": 0.6145833333333334
            },
            {
              "pitch": 60,
              "velocity": 71,
              "position": 1.6666666666666667,
              "duration": 0.9895833333333334
            },
            {
              "pitch": 60,
              "velocity": 63,
              "position": 2.6666666666666665,
              "duration": 0.2708333333333333
            },
            {
              "pitch": 60,
              "velocity": 83,
              "position": 3,
              "duration": 0.3645833333333333
            }
          ]
        },
        "14": {
          "ctab": {
            "srcChannel": 14,
            "name": "Gtr 24rt",
            "accType": "CHORD2",
            "editable": false,
            "mutedNotes": [],
            "mutedChords": [
              "1+2+5",
              "sus4",
              "1+5",
              "1+8",
              "Maj7aug",
              "dim",
              "minMaj7(9)",
              "minMaj7",
              "min6",
              "min",
              "aug",
              "Maj7(9)",
              "Maj7#11",
              "Maj7",
              "Maj6",
              "Maj"
            ],
            "autoStart": false,
            "sourceChordNote": 0,
            "sourceChordType": "Maj7",
            "ctb2Low": null,
            "ctb2Main": {
              "ntr": "ROOT_TRANSPOSITION",
              "ntt": "MELODY",
              "bassOn": false,
              "chordRootUpperLimit": 6,
              "noteLowLimit": 0,
              "noteHighLimit": 127,
              "rtr": "PITCH_SHIFT"
            },
            "ctb2High": null
          },
          "notes": [
            {
              "pitch": 60,
              "velocity": 50,
              "position": 1.0104166666666667,
              "duration": 0.6145833333333334
            },
            {
              "pitch": 60,
              "velocity": 64,
              "position": 1.6770833333333333,
              "duration": 0.9895833333333334
            },
            {
              "pitch": 60,
              "velocity": 65,
              "position": 3.0104166666666665,
              "duration": 0.6145833333333334
            }
          ]
        }
      }
    },
    "Fill_In_BB": {
      "type": "Fill_In_BB",
      "sizeInBeats": 4,
      "channels": {
        "7": {
          "ctab": {
            "srcChannel": 7,
            "name": "CC_Crash",
            "accType": "RHYTHM",
            "editable": false,
            "mutedNotes": [],
            "mutedChords": [
              "1+2+5",
              "sus4",
              "1+5",
              "1+8",
              "7aug",
              "Maj7aug",
              "7(#9)",
              "7(b13)",
              "7(b9)",
              "7(13)",
              "7#11",
              "7(9)",
              "7b5",
              "7sus4",
              "7th",
              "dim7",
              "dim",
              "minMaj7(9)",
              "minMaj7",
              "min7(11)",
              "min7(9)",
              "min(9)",
              "m7b5",
              "min7",
              "min6",
              "min",
              "aug",
              "Maj6(9)",
              "Maj7(9)",
              "Maj(9)",
              "Maj7#11",
              "Maj7",
              "Maj6",
              "Maj"
            ],
            "autoStart": true,
            "sourceChordNote": 0,
            "sourceChordType": "Maj",
            "ctb2Low": null,
            "ctb2Main": {
              "ntr": "ROOT_FIXED",
              "ntt": "BYPASS",
              "bassOn": false,
              "chordRootUpperLimit": 0,
              "noteLowLimit": 0,
              "noteHighLimit": 127,
              "rtr": "RETRIGGER"
            },
            "ctb2High": null
          },
          "notes": []
        },
        "8": {
          "ctab": {
            "srcChannel": 8,
            "name": "Brush",
            "accType": "SUBRHYTHM",
            "editable": false,
            "mutedNotes": [],
            "mutedChords": [],
            "autoStart": true,
            "sourceChordNote": 0,
            "sourceChordType": "Maj7",
            "ctb2Low": null,
            "ctb2Main": {
              "ntr": "ROOT_FIXED",
              "ntt": "BYPASS",
              "bassOn": false,
              "chordRootUpperLimit": 6,
              "noteLowLimit": 0,
              "noteHighLimit": 127,
              "rtr": "PITCH_SHIFT"
            },
            "ctb2High": null
          },
          "notes": []
        },
        "9": {
          "ctab": {
            "srcChannel": 9,
            "name": "Brush",
            "accType": "RHYTHM",
            "editable": false,
            "mutedNotes": [],
            "mutedChords": [],
            "autoStart": true,
            "sourceChordNote": 0,
            "sourceChordType": "Maj7",
            "ctb2Low": null,
            "ctb2Main": {
              "ntr": "ROOT_FIXED",
              "ntt": "BYPASS",
              "bassOn": false,
              "chordRootUpperLimit": 6,
              "noteLowLimit": 0,
              "noteHighLimit": 127,
              "rtr": "PITCH_SHIFT"
            },
            "ctb2High": null
          },
          "notes": [
            {
              "pitch": 38,
              "velocity": 81,
              "position": 0,
              "duration": 0.020833333333333332
            },
            {
              "pitch": 33,
              "velocity": 45,
              "position": 0,
              "duration": 0.03125
            },
            {
              "pitch": 28,
              "velocity": 32,
              "position": 0,
              "duration": 0.5208333333333334
            },
            {
              "pitch": 27,
              "velocity": 61,
              "position": 0.6458333333333334,
              "duration": 0.020833333333333332
            },
            {
              "pitch": 27,
              "velocity": 63,
              "position": 1,
              "duration": 0.020833333333333332
            },
            {
              "pitch": 33,
              "velocity": 15,
              "position": 1,
              "duration": 0.03125
            },
            {
              "pitch": 44,
              "velocity": 51,
              "position": 1.0104166666666667,
              "duration": 0.052083333333333336
            },
            {
              "pitch": 38,
              "velocity": 99,
              "position": 1.625,
              "duration": 0.08333333333333333
            },
            {
              "pitch": 33,
              "velocity": 45,
              "position": 2,
              "duration": 0.03125
            },
            {
              "pitch": 40,
              "velocity": 70,
              "position": 2.6145833333333335,
              "duration": 0.08333333333333333
            },
            {
              "pitch": 33,
              "velocity": 15,
              "position": 3,
              "duration": 0.03125
            },
            {
              "pitch": 44,
              "velocity": 51,
              "position": 3.0104166666666665,
              "duration": 0.052083333333333336
            },
            {
              "pitch": 28,
              "velocity": 50,
              "position": 3,
              "duration": 0.5208333333333334
            },
            {
              "pitch": 27,
              "velocity": 83,
              "position": 3.6666666666666665,
              "duration": 0.020833333333333332
            }
          ]
        },
        "10": {
          "ctab": {
            "srcChannel": 10,
            "name": "Bass 32",
            "accType": "BASS",
            "editable": false,
            "mutedNotes": [],
            "mutedChords": [],
            "autoStart": false,
            "sourceChordNote": 0,
            "sourceChordType": "Maj7",
            "ctb2Low": null,
            "ctb2Main": {
              "ntr": "ROOT_TRANSPOSITION",
              "ntt": "MELODY",
              "bassOn": true,
              "chordRootUpperLimit": 8,
              "noteLowLimit": 28,
              "noteHighLimit": 127,
              "rtr": "PITCH_SHIFT_TO_ROOT"
            },
            "ctb2High": null
          },
          "notes": [
            {
              "pitch": 24,
              "velocity": 88,
              "position": 0,
              "duration": 0.9583333333333334
            },
            {
              "pitch": 35,
              "velocity": 88,
              "position": 1,
              "duration": 0.9583333333333334
            },
            {
              "pitch": 31,
              "velocity": 83,
              "position": 2,
              "duration": 0.9583333333333334
            },
            {
              "pitch": 28,
              "velocity": 83,
              "position": 3,
              "duration": 0.9583333333333334
            }
          ]
        },
        "11": {
          "ctab": {
            "srcChannel": 11,
            "name": "Gtr 26",
            "accType": "CHORD1",
            "editable": false,
            "mutedNotes": [],
            "mutedChords": [],
            "autoStart": false,
            "sourceChordNote": 0,
            "sourceChordType": "min7(11)",
            "ctb2Low": null,
            "ctb2Main": {
              "ntr": "ROOT_FIXED",
              "ntt": "CHORD",
              "bassOn": false,
              "chordRootUpperLimit": 7,
              "noteLowLimit": 50,
              "noteHighLimit": 127,
              "rtr": "PITCH_SHIFT"
            },
            "ctb2High": null
          },
          "notes": [
            {
              "pitch": 51,
              "velocity": 69,
              "position": 0,
              "duration": 0.3333333333333333
            },
            {
              "pitch": 53,
              "velocity": 65,
              "position": 0.010416666666666666,
              "duration": 0.375
            },
            {
              "pitch": 58,
              "velocity": 59,
              "position": 0.020833333333333332,
              "duration": 0.375
            },
            {
              "pitch": 58,
              "velocity": 59,
              "position": 1.0208333333333333,
              "duration": 0.6145833333333334
            },
            {
              "pitch": 51,
              "velocity": 69,
              "position": 1,
              "duration": 0.6666666666666666
            },
            {
              "pitch": 53,
              "velocity": 65,
              "position": 1.0104166666666667,
              "duration": 0.6666666666666666
            },
            {
              "pitch": 63,
              "velocity": 75,
              "position": 1.6666666666666667,
              "duration": 0.9791666666666666
            },
            {
              "pitch": 58,
              "velocity": 71,
              "position": 1.6770833333333333,
              "duration": 0.9895833333333334
            },
            {
              "pitch": 53,
              "velocity": 67,
              "position": 1.6875,
              "duration": 0.9791666666666666
            },
            {
              "pitch": 53,
              "velocity": 59,
              "position": 2.6875,
              "duration": 0.23958333333333334
            },
            {
              "pitch": 58,
              "velocity": 63,
              "position": 2.6770833333333335,
              "duration": 0.2708333333333333
            },
            {
              "pitch": 63,
              "velocity": 66,
              "position": 2.6666666666666665,
              "duration": 0.3333333333333333
            },
            {
              "pitch": 58,
              "velocity": 83,
              "position": 3,
              "duration": 0.3645833333333333
            },
            {
              "pitch": 63,
              "velocity": 78,
              "position": 3.0104166666666665,
              "duration": 0.3541666666666667
            },
            {
              "pitch": 65,
              "velocity": 73,
              "position": 3.0208333333333335,
              "duration": 0.4166666666666667
            }
          ]
        },
        "12": {
          "ctab": {
            "srcChannel": 12,
            "name": "Gtr 24",
            "accType": "CHORD2",
            "editable": false,
            "mutedNotes": [],
            "mutedChords": [],
            "autoStart": false,
            "sourceChordNote": 0,
            "sourceChordType": "min7(11)",
            "ctb2Low": null,
            "ctb2Main": {
              "ntr": "ROOT_FIXED",
              "ntt": "CHORD",
              "bassOn": false,
              "chordRootUpperLimit": 7,
              "noteLowLimit": 50,
              "noteHighLimit": 127,
              "rtr": "PITCH_SHIFT"
            },
            "ctb2High": null
          },
          "notes": [
            {
              "pitch": 67,
              "velocity": 72,
              "position": 0.010416666666666666,
              "duration": 0.5625
            },
            {
              "pitch": 60,
              "velocity": 71,
              "position": 0,
              "duration": 0.625
            },
            {
              "pitch": 60,
              "velocity": 30,
              "position": 0.6770833333333334,
              "duration": 0.25
            },
            {
              "pitch": 67,
              "velocity": 43,
              "position": 0.6666666666666666,
              "duration": 0.3333333333333333
            },
            {
              "pitch": 60,
              "velocity": 79,
              "position": 1,
              "duration": 0.10416666666666667
            },
            {
              "pitch": 67,
              "velocity": 86,
              "position": 1.0104166666666667,
              "duration": 0.11458333333333333
            },
            {
              "pitch": 67,
              "velocity": 74,
              "position": 1.6770833333333333,
              "duration": 0.90625
            },
            {
              "pitch": 60,
              "velocity": 71,
              "position": 1.6666666666666667,
              "duration": 1
            },
            {
              "pitch": 53,
              "velocity": 20,
              "position": 2.6875,
              "duration": 0.25
            },
            {
              "pitch": 58,
              "velocity": 25,
              "position": 2.6770833333333335,
              "duration": 0.3125
            },
            {
              "pitch": 63,
              "velocity": 45,
              "position": 2.6666666666666665,
              "duration": 0.3333333333333333
            },
            {
              "pitch": 63,
              "velocity": 83,
              "position": 3.0208333333333335,
              "duration": 0.5729166666666666
            },
            {
              "pitch": 58,
              "velocity": 66,
              "position": 3.0104166666666665,
              "duration": 0.6458333333333334
            },
            {
              "pitch": 53,
              "velocity": 63,
              "position": 3,
              "duration": 0.6770833333333334
            },
            {
              "pitch": 53,
              "velocity": 14,
              "position": 3.6875,
              "duration": 0.25
            },
            {
              "pitch": 58,
              "velocity": 25,
              "position": 3.6770833333333335,
              "duration": 0.2916666666666667
            },
            {
              "pitch": 63,
              "velocity": 50,
              "position": 3.6666666666666665,
              "duration": 0.3125
            }
          ]
        },
        "13": {
          "ctab": {
            "srcChannel": 13,
            "name": "Gtr 26",
            "accType": "CHORD1",
            "editable": false,
            "mutedNotes": [],
            "mutedChords": [
              "1+2+5",
              "sus4",
              "1+5",
              "1+8",
              "Maj7aug",
              "dim",
              "minMaj7(9)",
              "minMaj7",
              "min6",
              "min",
              "aug",
              "Maj7(9)",
              "Maj7#11",
              "Maj7",
              "Maj6",
              "Maj"
            ],
            "autoStart": false,
            "sourceChordNote": 0,
            "sourceChordType": "Maj7",
            "ctb2Low": null,
            "ctb2Main": {
              "ntr": "ROOT_TRANSPOSITION",
              "ntt": "MELODY",
              "bassOn": false,
              "chordRootUpperLimit": 2,
              "noteLowLimit": 0,
              "noteHighLimit": 66,
              "rtr": "PITCH_SHIFT"
            },
            "ctb2High": null
          },
          "notes": [
            {
              "pitch": 60,
              "velocity": 59,
              "position": 0,
              "duration": 0.375
            },
            {
              "pitch": 60,
              "velocity": 59,
              "position": 1,
              "duration": 0.6145833333333334
            },
            {
              "pitch": 72,
              "velocity": 71,
              "position": 1.6666666666666667,
              "duration": 0.9895833333333334
            },
            {
              "pitch": 72,
              "velocity": 63,
              "position": 2.6666666666666665,
              "duration": 0.2708333333333333
            },
            {
              "pitch": 72,
              "velocity": 83,
              "position": 3,
              "duration": 0.3645833333333333
            }
          ]
        },
        "14": {
          "ctab": {
            "srcChannel": 14,
            "name": "Gtr 24rt",
            "accType": "CHORD2",
            "editable": false,
            "mutedNotes": [],
            "mutedChords": [
              "1+2+5",
              "sus4",
              "1+5",
              "1+8",
              "Maj7aug",
              "dim",
              "minMaj7(9)",
              "minMaj7",
              "min6",
              "min",
              "aug",
              "Maj7(9)",
              "Maj7#11",
              "Maj7",
              "Maj6",
              "Maj"
            ],
            "autoStart": false,
            "sourceChordNote": 0,
            "sourceChordType": "Maj7",
            "ctb2Low": null,
            "ctb2Main": {
              "ntr": "ROOT_TRANSPOSITION",
              "ntt": "MELODY",
              "bassOn": false,
              "chordRootUpperLimit": 6,
              "noteLowLimit": 0,
              "noteHighLimit": 127,
              "rtr": "PITCH_SHIFT"
            },
            "ctb2High": null
          },
          "notes": [
            {
              "pitch": 60,
              "velocity": 34,
              "position": 2.6770833333333335,
              "duration": 0.3125
            },
            {
              "pitch": 60,
              "velocity": 73,
              "position": 3.0104166666666665,
              "duration": 0.6458333333333334
            },
            {
              "pitch": 60,
              "velocity": 34,
              "position": 3.6770833333333335,
              "duration": 0.2916666666666667
            }
          ]
        }
      }
    },
    "Fill_In_CC": {
      "type": "Fill_In_CC",
      "sizeInBeats": 4,
      "channels": {
        "7": {
          "ctab": {
            "srcChannel": 7,
            "name": "CC_Crash",
            "accType": "RHYTHM",
            "editable": false,
            "mutedNotes": [],
            "mutedChords": [
              "1+2+5",
              "sus4",
              "1+5",
              "1+8",
              "7aug",
              "Maj7aug",
              "7(#9)",
              "7(b13)",
              "7(b9)",
              "7(13)",
              "7#11",
              "7(9)",
              "7b5",
              "7sus4",
              "7th",
              "dim7",
              "dim",
              "minMaj7(9)",
              "minMaj7",
              "min7(11)",
              "min7(9)",
              "min(9)",
              "m7b5",
              "min7",
              "min6",
              "min",
              "aug",
              "Maj6(9)",
              "Maj7(9)",
              "Maj(9)",
              "Maj7#11",
              "Maj7",
              "Maj6",
              "Maj"
            ],
            "autoStart": true,
            "sourceChordNote": 0,
            "sourceChordType": "Maj",
            "ctb2Low": null,
            "ctb2Main": {
              "ntr": "ROOT_FIXED",
              "ntt": "BYPASS",
              "bassOn": false,
              "chordRootUpperLimit": 0,
              "noteLowLimit": 0,
              "noteHighLimit": 127,
              "rtr": "RETRIGGER"
            },
            "ctb2High": null
          },
          "notes": []
        },
        "8": {
          "ctab": {
            "srcChannel": 8,
            "name": "Brush",
            "accType": "SUBRHYTHM",
            "editable": false,
            "mutedNotes": [],
            "mutedChords": [],
            "autoStart": true,
            "sourceChordNote": 0,
            "sourceChordType": "Maj7",
            "ctb2Low": null,
            "ctb2Main": {
              "ntr": "ROOT_FIXED",
              "ntt": "BYPASS",
              "bassOn": false,
              "chordRootUpperLimit": 6,
              "noteLowLimit": 0,
              "noteHighLimit": 127,
              "rtr": "PITCH_SHIFT"
            },
            "ctb2High": null
          },
          "notes": [
            {
              "pitch": 54,
              "velocity": 72,
              "position": 1.0208333333333333,
              "duration": 0.08333333333333333
            },
            {
              "pitch": 54,
              "velocity": 72,
              "position": 3.0208333333333335,
              "duration": 0.08333333333333333
            }
          ]
        },
        "9": {
          "ctab": {
            "srcChannel": 9,
            "name": "Brush",
            "accType": "RHYTHM",
            "editable": false,
            "mutedNotes": [],
            "mutedChords": [],
            "autoStart": true,
            "sourceChordNote": 0,
            "sourceChordType": "Maj7",
            "ctb2Low": null,
            "ctb2Main": {
              "ntr": "ROOT_FIXED",
              "ntt": "BYPASS",
              "bassOn": false,
              "chordRootUpperLimit": 6,
              "noteLowLimit": 0,
              "noteHighLimit": 127,
              "rtr": "PITCH_SHIFT"
            },
            "ctb2High": null
          },
          "notes": [
            {
              "pitch": 33,
              "velocity": 45,
              "position": 0,
              "duration": 0.03125
            },
            {
              "pitch": 44,
              "velocity": 30,
              "position": 0.010416666666666666,
              "duration": 0.052083333333333336
            },
            {
              "pitch": 31,
              "velocity": 53,
              "position": 0.6354166666666666,
              "duration": 0.10416666666666667
            },
            {
              "pitch": 33,
              "velocity": 15,
              "position": 1,
              "duration": 0.03125
            },
            {
              "pitch": 44,
              "velocity": 51,
              "position": 1.0104166666666667,
              "duration": 0.052083333333333336
            },
            {
              "pitch": 25,
              "velocity": 8,
              "position": 1.3333333333333333,
              "duration": 0.020833333333333332
            },
            {
              "pitch": 25,
              "velocity": 25,
              "position": 1.6666666666666667,
              "duration": 0.020833333333333332
            },
            {
              "pitch": 28,
              "velocity": 52,
              "position": 1,
              "duration": 0.9583333333333334
            },
            {
              "pitch": 25,
              "velocity": 64,
              "position": 2,
              "duration": 0.020833333333333332
            },
            {
              "pitch": 33,
              "velocity": 45,
              "position": 2,
              "duration": 0.03125
            },
            {
              "pitch": 44,
              "velocity": 30,
              "position": 2.0104166666666665,
              "duration": 0.052083333333333336
            },
            {
              "pitch": 28,
              "velocity": 25,
              "position": 2,
              "duration": 0.9583333333333334
            },
            {
              "pitch": 47,
              "velocity": 49,
              "position": 3,
              "duration": 0.020833333333333332
            },
            {
              "pitch": 33,
              "velocity": 15,
              "position": 3,
              "duration": 0.03125
            },
            {
              "pitch": 44,
              "velocity": 51,
              "position": 3.0104166666666665,
              "duration": 0.052083333333333336
            },
            {
              "pitch": 45,
              "velocity": 45,
              "position": 3.6458333333333335,
              "duration": 0.020833333333333332
            },
            {
              "pitch": 57,
              "velocity": 37,
              "position": 3.9895833333333335,
              "duration": 0.004166666666666667
            }
          ]
        },
        "10": {
          "ctab": {
            "srcChannel": 10,
            "name": "Bass 32",
            "accType": "BASS",
            "editable": false,
            "mutedNotes": [],
            "mutedChords": [],
            "autoStart": false,
            "sourceChordNote": 0,
            "sourceChordType": "Maj7",
            "ctb2Low": null,
            "ctb2Main": {
              "ntr": "ROOT_TRANSPOSITION",
              "ntt": "MELODY",
              "bassOn": true,
              "chordRootUpperLimit": 8,
              "noteLowLimit": 28,
              "noteHighLimit": 127,
              "rtr": "PITCH_SHIFT_TO_ROOT"
            },
            "ctb2High": null
          },
          "notes": [
            {
              "pitch": 24,
              "velocity": 88,
              "position": 0,
              "duration": 0.9583333333333334
            },
            {
              "pitch": 31,
              "velocity": 83,
              "position": 2,
              "duration": 0.9583333333333334
            }
          ]
        },
        "11": {
          "ctab": {
            "srcChannel": 11,
            "name": "Gtr 26",
            "accType": "CHORD1",
            "editable": false,
            "mutedNotes": [],
            "mutedChords": [],
            "autoStart": false,
            "sourceChordNote": 0,
            "sourceChordType": "min7(11)",
            "ctb2Low": null,
            "ctb2Main": {
              "ntr": "ROOT_FIXED",
              "ntt": "CHORD",
              "bassOn": false,
              "chordRootUpperLimit": 7,
              "noteLowLimit": 50,
              "noteHighLimit": 127,
              "rtr": "PITCH_SHIFT"
            },
            "ctb2High": null
          },
          "notes": [
            {
              "pitch": 53,
              "velocity": 54,
              "position": 0,
              "duration": 0.7291666666666666
            },
            {
              "pitch": 58,
              "velocity": 61,
              "position": 0.010416666666666666,
              "duration": 0.7291666666666666
            },
            {
              "pitch": 63,
              "velocity": 65,
              "position": 0.020833333333333332,
              "duration": 0.7291666666666666
            },
            {
              "pitch": 58,
              "velocity": 54,
              "position": 2,
              "duration": 0.7291666666666666
            },
            {
              "pitch": 63,
              "velocity": 58,
              "position": 2.0104166666666665,
              "duration": 0.7291666666666666
            },
            {
              "pitch": 65,
              "velocity": 62,
              "position": 2.0208333333333335,
              "duration": 0.7291666666666666
            },
            {
              "pitch": 58,
              "velocity": 76,
              "position": 3,
              "duration": 0.3333333333333333
            },
            {
              "pitch": 65,
              "velocity": 82,
              "position": 3.0208333333333335,
              "duration": 0.4166666666666667
            },
            {
              "pitch": 63,
              "velocity": 79,
              "position": 3.0104166666666665,
              "duration": 0.4479166666666667
            }
          ]
        },
        "12": {
          "ctab": {
            "srcChannel": 12,
            "name": "Gtr 24",
            "accType": "CHORD2",
            "editable": false,
            "mutedNotes": [],
            "mutedChords": [],
            "autoStart": false,
            "sourceChordNote": 0,
            "sourceChordType": "min7(11)",
            "ctb2Low": null,
            "ctb2Main": {
              "ntr": "ROOT_FIXED",
              "ntt": "CHORD",
              "bassOn": false,
              "chordRootUpperLimit": 7,
              "noteLowLimit": 50,
              "noteHighLimit": 127,
              "rtr": "PITCH_SHIFT"
            },
            "ctb2High": null
          },
          "notes": [
            {
              "pitch": 63,
              "velocity": 70,
              "position": 0.020833333333333332,
              "duration": 0.5625
            },
            {
              "pitch": 58,
              "velocity": 56,
              "position": 0.010416666666666666,
              "duration": 0.6458333333333334
            },
            {
              "pitch": 53,
              "velocity": 49,
              "position": 0,
              "duration": 0.6666666666666666
            },
            {
              "pitch": 53,
              "velocity": 65,
              "position": 0.6875,
              "duration": 0.25
            },
            {
              "pitch": 58,
              "velocity": 62,
              "position": 0.6770833333333334,
              "duration": 0.3125
            },
            {
              "pitch": 63,
              "velocity": 90,
              "position": 0.6666666666666666,
              "duration": 0.3958333333333333
            },
            {
              "pitch": 63,
              "velocity": 79,
              "position": 1.6875,
              "duration": 0.5625
            },
            {
              "pitch": 58,
              "velocity": 64,
              "position": 1.6770833333333333,
              "duration": 0.6458333333333334
            },
            {
              "pitch": 53,
              "velocity": 58,
              "position": 1.6666666666666667,
              "duration": 0.7083333333333334
            },
            {
              "pitch": 53,
              "velocity": 25,
              "position": 2.6875,
              "duration": 0.2708333333333333
            },
            {
              "pitch": 58,
              "velocity": 38,
              "position": 2.6770833333333335,
              "duration": 0.3125
            },
            {
              "pitch": 63,
              "velocity": 58,
              "position": 2.6666666666666665,
              "duration": 0.3333333333333333
            },
            {
              "pitch": 63,
              "velocity": 88,
              "position": 3.0208333333333335,
              "duration": 0.5833333333333334
            },
            {
              "pitch": 58,
              "velocity": 65,
              "position": 3.0104166666666665,
              "duration": 0.6458333333333334
            },
            {
              "pitch": 53,
              "velocity": 59,
              "position": 3,
              "duration": 0.6666666666666666
            },
            {
              "pitch": 53,
              "velocity": 30,
              "position": 3.6875,
              "duration": 0.25
            },
            {
              "pitch": 58,
              "velocity": 32,
              "position": 3.6770833333333335,
              "duration": 0.2916666666666667
            },
            {
              "pitch": 63,
              "velocity": 58,
              "position": 3.6666666666666665,
              "duration": 0.3229166666666667
            }
          ]
        },
        "13": {
          "ctab": {
            "srcChannel": 13,
            "name": "Gtr 26",
            "accType": "CHORD1",
            "editable": false,
            "mutedNotes": [],
            "mutedChords": [
              "1+2+5",
              "sus4",
              "1+5",
              "1+8",
              "Maj7aug",
              "dim",
              "minMaj7(9)",
              "minMaj7",
              "min6",
              "min",
              "aug",
              "Maj7(9)",
              "Maj7#11",
              "Maj7",
              "Maj6",
              "Maj"
            ],
            "autoStart": false,
            "sourceChordNote": 0,
            "sourceChordType": "Maj7",
            "ctb2Low": null,
            "ctb2Main": {
              "ntr": "ROOT_TRANSPOSITION",
              "ntt": "MELODY",
              "bassOn": false,
              "chordRootUpperLimit": 2,
              "noteLowLimit": 0,
              "noteHighLimit": 66,
              "rtr": "PITCH_SHIFT"
            },
            "ctb2High": null
          },
          "notes": [
            {
              "pitch": 72,
              "velocity": 61,
              "position": 0,
              "duration": 0.7291666666666666
            },
            {
              "pitch": 72,
              "velocity": 54,
              "position": 2,
              "duration": 0.7291666666666666
            },
            {
              "pitch": 72,
              "velocity": 76,
              "position": 3,
              "duration": 0.3333333333333333
            }
          ]
        },
        "14": {
          "ctab": {
            "srcChannel": 14,
            "name": "Gtr 24rt",
            "accType": "CHORD2",
            "editable": false,
            "mutedNotes": [],
            "mutedChords": [
              "1+2+5",
              "sus4",
              "1+5",
              "1+8",
              "Maj7aug",
              "dim",
              "minMaj7(9)",
              "minMaj7",
              "min6",
              "min",
              "aug",
              "Maj7(9)",
              "Maj7#11",
              "Maj7",
              "Maj6",
              "Maj"
            ],
            "autoStart": false,
            "sourceChordNote": 0,
            "sourceChordType": "Maj7",
            "ctb2Low": null,
            "ctb2Main": {
              "ntr": "ROOT_TRANSPOSITION",
              "ntt": "MELODY",
              "bassOn": false,
              "chordRootUpperLimit": 6,
              "noteLowLimit": 0,
              "noteHighLimit": 127,
              "rtr": "PITCH_SHIFT"
            },
            "ctb2High": null
          },
          "notes": [
            {
              "pitch": 60,
              "velocity": 65,
              "position": 0.010416666666666666,
              "duration": 0.6458333333333334
            },
            {
              "pitch": 60,
              "velocity": 70,
              "position": 0.6770833333333334,
              "duration": 0.3125
            },
            {
              "pitch": 60,
              "velocity": 72,
              "position": 1.6770833333333333,
              "duration": 0.6458333333333334
            },
            {
              "pitch": 60,
              "velocity": 38,
              "position": 2.6770833333333335,
              "duration": 0.3125
            },
            {
              "pitch": 60,
              "velocity": 73,
              "position": 3.0104166666666665,
              "duration": 0.6458333333333334
            },
            {
              "pitch": 60,
              "velocity": 32,
              "position": 3.6770833333333335,
              "duration": 0.2916666666666667
            }
          ]
        }
      }
    },
    "Fill_In_DD": {
      "type": "Fill_In_DD",
      "sizeInBeats": 4,
      "channels": {
        "7": {
          "ctab": {
            "srcChannel": 7,
            "name": "CC_Crash",
            "accType": "RHYTHM",
            "editable": false,
            "mutedNotes": [],
            "mutedChords": [
              "1+2+5",
              "sus4",
              "1+5",
              "1+8",
              "7aug",
              "Maj7aug",
              "7(#9)",
              "7(b13)",
              "7(b9)",
              "7(13)",
              "7#11",
              "7(9)",
              "7b5",
              "7sus4",
              "7th",
              "dim7",
              "dim",
              "minMaj7(9)",
              "minMaj7",
              "min7(11)",
              "min7(9)",
              "min(9)",
              "m7b5",
              "min7",
              "min6",
              "min",
              "aug",
              "Maj6(9)",
              "Maj7(9)",
              "Maj(9)",
              "Maj7#11",
              "Maj7",
              "Maj6",
              "Maj"
            ],
            "autoStart": true,
            "sourceChordNote": 0,
            "sourceChordType": "Maj",
            "ctb2Low": null,
            "ctb2Main": {
              "ntr": "ROOT_FIXED",
              "ntt": "BYPASS",
              "bassOn": false,
              "chordRootUpperLimit": 0,
              "noteLowLimit": 0,
              "noteHighLimit": 127,
              "rtr": "RETRIGGER"
            },
            "ctb2High": null
          },
          "notes": []
        },
        "8": {
          "ctab": {
            "srcChannel": 8,
            "name": "Brush",
            "accType": "SUBRHYTHM",
            "editable": false,
            "mutedNotes": [],
            "mutedChords": [],
            "autoStart": true,
            "sourceChordNote": 0,
            "sourceChordType": "Maj7",
            "ctb2Low": null,
            "ctb2Main": {
              "ntr": "ROOT_FIXED",
              "ntt": "BYPASS",
              "bassOn": false,
              "chordRootUpperLimit": 6,
              "noteLowLimit": 0,
              "noteHighLimit": 127,
              "rtr": "PITCH_SHIFT"
            },
            "ctb2High": null
          },
          "notes": [
            {
              "pitch": 54,
              "velocity": 72,
              "position": 1.0208333333333333,
              "duration": 0.08333333333333333
            },
            {
              "pitch": 54,
              "velocity": 72,
              "position": 3.0208333333333335,
              "duration": 0.08333333333333333
            },
            {
              "pitch": 54,
              "velocity": 56,
              "position": 3.6458333333333335,
              "duration": 0.08333333333333333
            }
          ]
        },
        "9": {
          "ctab": {
            "srcChannel": 9,
            "name": "Brush",
            "accType": "RHYTHM",
            "editable": false,
            "mutedNotes": [],
            "mutedChords": [],
            "autoStart": true,
            "sourceChordNote": 0,
            "sourceChordType": "Maj7",
            "ctb2Low": null,
            "ctb2Main": {
              "ntr": "ROOT_FIXED",
              "ntt": "BYPASS",
              "bassOn": false,
              "chordRootUpperLimit": 6,
              "noteLowLimit": 0,
              "noteHighLimit": 127,
              "rtr": "PITCH_SHIFT"
            },
            "ctb2High": null
          },
          "notes": [
            {
              "pitch": 57,
              "velocity": 45,
              "position": 0,
              "duration": 0.010416666666666666
            },
            {
              "pitch": 38,
              "velocity": 69,
              "position": 0,
              "duration": 0.020833333333333332
            },
            {
              "pitch": 33,
              "velocity": 45,
              "position": 0,
              "duration": 0.03125
            },
            {
              "pitch": 25,
              "velocity": 58,
              "position": 0.3333333333333333,
              "duration": 0.020833333333333332
            },
            {
              "pitch": 27,
              "velocity": 70,
              "position": 0.6458333333333334,
              "duration": 0.020833333333333332
            },
            {
              "pitch": 27,
              "velocity": 72,
              "position": 1,
              "duration": 0.020833333333333332
            },
            {
              "pitch": 33,
              "velocity": 45,
              "position": 1,
              "duration": 0.03125
            },
            {
              "pitch": 44,
              "velocity": 51,
              "position": 1.0104166666666667,
              "duration": 0.052083333333333336
            },
            {
              "pitch": 38,
              "velocity": 56,
              "position": 1.6666666666666667,
              "duration": 0.020833333333333332
            },
            {
              "pitch": 40,
              "velocity": 72,
              "position": 2,
              "duration": 0.020833333333333332
            },
            {
              "pitch": 33,
              "velocity": 45,
              "position": 2,
              "duration": 0.03125
            },
            {
              "pitch": 47,
              "velocity": 50,
              "position": 2.6666666666666665,
              "duration": 0.25
            },
            {
              "pitch": 33,
              "velocity": 45,
              "position": 3,
              "duration": 0.03125
            },
            {
              "pitch": 44,
              "velocity": 51,
              "position": 3.0104166666666665,
              "duration": 0.052083333333333336
            },
            {
              "pitch": 45,
              "velocity": 36,
              "position": 3,
              "duration": 0.25
            },
            {
              "pitch": 43,
              "velocity": 54,
              "position": 3.6666666666666665,
              "duration": 0.25
            }
          ]
        },
        "10": {
          "ctab": {
            "srcChannel": 10,
            "name": "Bass 32",
            "accType": "BASS",
            "editable": false,
            "mutedNotes": [],
            "mutedChords": [],
            "autoStart": false,
            "sourceChordNote": 0,
            "sourceChordType": "Maj7",
            "ctb2Low": null,
            "ctb2Main": {
              "ntr": "ROOT_TRANSPOSITION",
              "ntt": "MELODY",
              "bassOn": true,
              "chordRootUpperLimit": 8,
              "noteLowLimit": 28,
              "noteHighLimit": 127,
              "rtr": "PITCH_SHIFT_TO_ROOT"
            },
            "ctb2High": null
          },
          "notes": [
            {
              "pitch": 36,
              "velocity": 83,
              "position": 0,
              "duration": 0.9583333333333334
            },
            {
              "pitch": 28,
              "velocity": 83,
              "position": 1,
              "duration": 0.9583333333333334
            },
            {
              "pitch": 31,
              "velocity": 83,
              "position": 2,
              "duration": 0.9583333333333334
            },
            {
              "pitch": 28,
              "velocity": 83,
              "position": 3,
              "duration": 0.9583333333333334
            }
          ]
        },
        "11": {
          "ctab": {
            "srcChannel": 11,
            "name": "Gtr 26",
            "accType": "CHORD1",
            "editable": false,
            "mutedNotes": [],
            "mutedChords": [],
            "autoStart": false,
            "sourceChordNote": 0,
            "sourceChordType": "min7(11)",
            "ctb2Low": null,
            "ctb2Main": {
              "ntr": "ROOT_FIXED",
              "ntt": "CHORD",
              "bassOn": false,
              "chordRootUpperLimit": 7,
              "noteLowLimit": 50,
              "noteHighLimit": 127,
              "rtr": "PITCH_SHIFT"
            },
            "ctb2High": null
          },
          "notes": [
            {
              "pitch": 63,
              "velocity": 69,
              "position": 0,
              "duration": 0.3333333333333333
            },
            {
              "pitch": 53,
              "velocity": 65,
              "position": 0.010416666666666666,
              "duration": 0.375
            },
            {
              "pitch": 58,
              "velocity": 59,
              "position": 0.020833333333333332,
              "duration": 0.375
            },
            {
              "pitch": 63,
              "velocity": 59,
              "position": 1.0208333333333333,
              "duration": 0.5729166666666666
            },
            {
              "pitch": 58,
              "velocity": 65,
              "position": 1.0104166666666667,
              "duration": 0.65625
            },
            {
              "pitch": 53,
              "velocity": 69,
              "position": 1,
              "duration": 0.6770833333333334
            },
            {
              "pitch": 53,
              "velocity": 67,
              "position": 1.6875,
              "duration": 0.9791666666666666
            },
            {
              "pitch": 58,
              "velocity": 71,
              "position": 1.6770833333333333,
              "duration": 0.9895833333333334
            },
            {
              "pitch": 63,
              "velocity": 75,
              "position": 1.6666666666666667,
              "duration": 1.0104166666666667
            },
            {
              "pitch": 65,
              "velocity": 63,
              "position": 2.6770833333333335,
              "duration": 0.3125
            },
            {
              "pitch": 63,
              "velocity": 59,
              "position": 2.6875,
              "duration": 0.3020833333333333
            },
            {
              "pitch": 70,
              "velocity": 66,
              "position": 2.6666666666666665,
              "duration": 0.3333333333333333
            },
            {
              "pitch": 65,
              "velocity": 65,
              "position": 3,
              "duration": 0.65625
            },
            {
              "pitch": 70,
              "velocity": 59,
              "position": 3.0104166666666665,
              "duration": 0.6458333333333334
            },
            {
              "pitch": 63,
              "velocity": 69,
              "position": 3,
              "duration": 0.6770833333333334
            },
            {
              "pitch": 63,
              "velocity": 67,
              "position": 3.6875,
              "duration": 0.2708333333333333
            },
            {
              "pitch": 65,
              "velocity": 71,
              "position": 3.6770833333333335,
              "duration": 0.28125
            },
            {
              "pitch": 70,
              "velocity": 75,
              "position": 3.6666666666666665,
              "duration": 0.3229166666666667
            }
          ]
        },
        "12": {
          "ctab": {
            "srcChannel": 12,
            "name": "Gtr 24",
            "accType": "CHORD2",
            "editable": false,
            "mutedNotes": [],
            "mutedChords": [],
            "autoStart": false,
            "sourceChordNote": 0,
            "sourceChordType": "min7(11)",
            "ctb2Low": null,
            "ctb2Main": {
              "ntr": "ROOT_FIXED",
              "ntt": "CHORD",
              "bassOn": false,
              "chordRootUpperLimit": 7,
              "noteLowLimit": 50,
              "noteHighLimit": 127,
              "rtr": "PITCH_SHIFT"
            },
            "ctb2High": null
          },
          "notes": [
            {
              "pitch": 53,
              "velocity": 48,
              "position": 0.010416666666666666,
              "duration": 0.3333333333333333
            },
            {
              "pitch": 60,
              "velocity": 45,
              "position": 0,
              "duration": 0.4166666666666667
            },
            {
              "pitch": 72,
              "velocity": 85,
              "position": 0.020833333333333332,
              "duration": 0.5416666666666666
            },
            {
              "pitch": 60,
              "velocity": 78,
              "position": 0.6666666666666666,
              "duration": 0.3125
            },
            {
              "pitch": 72,
              "velocity": 95,
              "position": 0.6770833333333334,
              "duration": 0.3541666666666667
            },
            {
              "pitch": 60,
              "velocity": 71,
              "position": 1,
              "duration": 0.10416666666666667
            },
            {
              "pitch": 67,
              "velocity": 74,
              "position": 1.6770833333333333,
              "duration": 0.9375
            },
            {
              "pitch": 55,
              "velocity": 58,
              "position": 1.6666666666666667,
              "duration": 0.9791666666666666
            },
            {
              "pitch": 55,
              "velocity": 34,
              "position": 2.6770833333333335,
              "duration": 0.25
            },
            {
              "pitch": 67,
              "velocity": 45,
              "position": 2.6666666666666665,
              "duration": 0.3958333333333333
            },
            {
              "pitch": 63,
              "velocity": 95,
              "position": 3,
              "duration": 0.20833333333333334
            },
            {
              "pitch": 53,
              "velocity": 73,
              "position": 3.0104166666666665,
              "duration": 0.19791666666666666
            },
            {
              "pitch": 58,
              "velocity": 83,
              "position": 3.0208333333333335,
              "duration": 0.2604166666666667
            },
            {
              "pitch": 63,
              "velocity": 41,
              "position": 3.6875,
              "duration": 0.25
            },
            {
              "pitch": 53,
              "velocity": 16,
              "position": 3.6770833333333335,
              "duration": 0.2916666666666667
            },
            {
              "pitch": 58,
              "velocity": 42,
              "position": 3.6666666666666665,
              "duration": 0.3125
            }
          ]
        },
        "13": {
          "ctab": {
            "srcChannel": 13,
            "name": "Gtr 26",
            "accType": "CHORD1",
            "editable": false,
            "mutedNotes": [],
            "mutedChords": [
              "1+2+5",
              "sus4",
              "1+5",
              "1+8",
              "Maj7aug",
              "dim",
              "minMaj7(9)",
              "minMaj7",
              "min6",
              "min",
              "aug",
              "Maj7(9)",
              "Maj7#11",
              "Maj7",
              "Maj6",
              "Maj"
            ],
            "autoStart": false,
            "sourceChordNote": 0,
            "sourceChordType": "Maj7",
            "ctb2Low": null,
            "ctb2Main": {
              "ntr": "ROOT_TRANSPOSITION",
              "ntt": "MELODY",
              "bassOn": false,
              "chordRootUpperLimit": 2,
              "noteLowLimit": 0,
              "noteHighLimit": 66,
              "rtr": "PITCH_SHIFT"
            },
            "ctb2High": null
          },
          "notes": [
            {
              "pitch": 72,
              "velocity": 59,
              "position": 0,
              "duration": 0.375
            },
            {
              "pitch": 72,
              "velocity": 65,
              "position": 1,
              "duration": 0.65625
            },
            {
              "pitch": 72,
              "velocity": 71,
              "position": 1.6666666666666667,
              "duration": 0.9895833333333334
            }
          ]
        },
        "14": {
          "ctab": {
            "srcChannel": 14,
            "name": "Gtr 24rt",
            "accType": "CHORD2",
            "editable": false,
            "mutedNotes": [],
            "mutedChords": [
              "1+2+5",
              "sus4",
              "1+5",
              "1+8",
              "Maj7aug",
              "dim",
              "minMaj7(9)",
              "minMaj7",
              "min6",
              "min",
              "aug",
              "Maj7(9)",
              "Maj7#11",
              "Maj7",
              "Maj6",
              "Maj"
            ],
            "autoStart": false,
            "sourceChordNote": 0,
            "sourceChordType": "Maj7",
            "ctb2Low": null,
            "ctb2Main": {
              "ntr": "ROOT_TRANSPOSITION",
              "ntt": "MELODY",
              "bassOn": false,
              "chordRootUpperLimit": 6,
              "noteLowLimit": 0,
              "noteHighLimit": 127,
              "rtr": "PITCH_SHIFT"
            },
            "ctb2High": null
          },
          "notes": [
            {
              "pitch": 60,
              "velocity": 76,
              "position": 3.0104166666666665,
              "duration": 0.2604166666666667
            },
            {
              "pitch": 60,
              "velocity": 34,
              "position": 3.6770833333333335,
              "duration": 0.3125
            }
          ]
        }
      }
    },
    "Intro_A": {
      "type": "Intro_A",
      "sizeInBeats": 4,
      "channels": {
        "7": {
          "ctab": {
            "srcChannel": 7,
            "name": "CC_Crash",
            "accType": "RHYTHM",
            "editable": false,
            "mutedNotes": [],
            "mutedChords": [
              "1+2+5",
              "sus4",
              "1+5",
              "1+8",
              "7aug",
              "Maj7aug",
              "7(#9)",
              "7(b13)",
              "7(b9)",
              "7(13)",
              "7#11",
              "7(9)",
              "7b5",
              "7sus4",
              "7th",
              "dim7",
              "dim",
              "minMaj7(9)",
              "minMaj7",
              "min7(11)",
              "min7(9)",
              "min(9)",
              "m7b5",
              "min7",
              "min6",
              "min",
              "aug",
              "Maj6(9)",
              "Maj7(9)",
              "Maj(9)",
              "Maj7#11",
              "Maj7",
              "Maj6",
              "Maj"
            ],
            "autoStart": true,
            "sourceChordNote": 0,
            "sourceChordType": "Maj",
            "ctb2Low": null,
            "ctb2Main": {
              "ntr": "ROOT_FIXED",
              "ntt": "BYPASS",
              "bassOn": false,
              "chordRootUpperLimit": 0,
              "noteLowLimit": 0,
              "noteHighLimit": 127,
              "rtr": "RETRIGGER"
            },
            "ctb2High": null
          },
          "notes": []
        },
        "8": {
          "ctab": {
            "srcChannel": 8,
            "name": "Brush",
            "accType": "SUBRHYTHM",
            "editable": false,
            "mutedNotes": [],
            "mutedChords": [],
            "autoStart": true,
            "sourceChordNote": 0,
            "sourceChordType": "Maj7",
            "ctb2Low": null,
            "ctb2Main": {
              "ntr": "ROOT_FIXED",
              "ntt": "BYPASS",
              "bassOn": false,
              "chordRootUpperLimit": 6,
              "noteLowLimit": 0,
              "noteHighLimit": 127,
              "rtr": "PITCH_SHIFT"
            },
            "ctb2High": null
          },
          "notes": []
        },
        "9": {
          "ctab": {
            "srcChannel": 9,
            "name": "Brush",
            "accType": "RHYTHM",
            "editable": false,
            "mutedNotes": [],
            "mutedChords": [],
            "autoStart": true,
            "sourceChordNote": 0,
            "sourceChordType": "Maj7",
            "ctb2Low": null,
            "ctb2Main": {
              "ntr": "ROOT_FIXED",
              "ntt": "BYPASS",
              "bassOn": false,
              "chordRootUpperLimit": 6,
              "noteLowLimit": 0,
              "noteHighLimit": 127,
              "rtr": "PITCH_SHIFT"
            },
            "ctb2High": null
          },
          "notes": [
            {
              "pitch": 38,
              "velocity": 60,
              "position": 0,
              "duration": 0.020833333333333332
            },
            {
              "pitch": 27,
              "velocity": 74,
              "position": 0.6666666666666666,
              "duration": 0.020833333333333332
            },
            {
              "pitch": 44,
              "velocity": 51,
              "position": 1.0104166666666667,
              "duration": 0.052083333333333336
            },
            {
              "pitch": 27,
              "velocity": 22,
              "position": 1.3333333333333333,
              "duration": 0.020833333333333332
            },
            {
              "pitch": 27,
              "velocity": 39,
              "position": 1.6666666666666667,
              "duration": 0.020833333333333332
            },
            {
              "pitch": 40,
              "velocity": 74,
              "position": 2,
              "duration": 0.020833333333333332
            },
            {
              "pitch": 38,
              "velocity": 54,
              "position": 2.6666666666666665,
              "duration": 0.020833333333333332
            },
            {
              "pitch": 59,
              "velocity": 48,
              "position": 2.6875,
              "duration": 0.020833333333333332
            },
            {
              "pitch": 26,
              "velocity": 22,
              "position": 2,
              "duration": 0.9583333333333334
            },
            {
              "pitch": 27,
              "velocity": 42,
              "position": 3,
              "duration": 0.020833333333333332
            },
            {
              "pitch": 44,
              "velocity": 51,
              "position": 3.0104166666666665,
              "duration": 0.052083333333333336
            },
            {
              "pitch": 28,
              "velocity": 50,
              "position": 3,
              "duration": 0.5833333333333334
            },
            {
              "pitch": 27,
              "velocity": 52,
              "position": 3.6458333333333335,
              "duration": 0.020833333333333332
            },
            {
              "pitch": 57,
              "velocity": 36,
              "position": 3.9895833333333335,
              "duration": 0.004166666666666667
            }
          ]
        },
        "10": {
          "ctab": {
            "srcChannel": 10,
            "name": "Bass 32",
            "accType": "BASS",
            "editable": false,
            "mutedNotes": [],
            "mutedChords": [],
            "autoStart": false,
            "sourceChordNote": 0,
            "sourceChordType": "Maj7",
            "ctb2Low": null,
            "ctb2Main": {
              "ntr": "ROOT_TRANSPOSITION",
              "ntt": "MELODY",
              "bassOn": true,
              "chordRootUpperLimit": 8,
              "noteLowLimit": 28,
              "noteHighLimit": 127,
              "rtr": "PITCH_SHIFT_TO_ROOT"
            },
            "ctb2High": null
          },
          "notes": []
        },
        "11": {
          "ctab": {
            "srcChannel": 11,
            "name": "Gtr 26",
            "accType": "CHORD1",
            "editable": false,
            "mutedNotes": [],
            "mutedChords": [],
            "autoStart": false,
            "sourceChordNote": 0,
            "sourceChordType": "min7(11)",
            "ctb2Low": null,
            "ctb2Main": {
              "ntr": "ROOT_FIXED",
              "ntt": "CHORD",
              "bassOn": false,
              "chordRootUpperLimit": 7,
              "noteLowLimit": 50,
              "noteHighLimit": 127,
              "rtr": "PITCH_SHIFT"
            },
            "ctb2High": null
          },
          "notes": []
        },
        "12": {
          "ctab": {
            "srcChannel": 12,
            "name": "Gtr 24",
            "accType": "CHORD2",
            "editable": false,
            "mutedNotes": [],
            "mutedChords": [],
            "autoStart": false,
            "sourceChordNote": 0,
            "sourceChordType": "min7(11)",
            "ctb2Low": null,
            "ctb2Main": {
              "ntr": "ROOT_FIXED",
              "ntt": "CHORD",
              "bassOn": false,
              "chordRootUpperLimit": 7,
              "noteLowLimit": 50,
              "noteHighLimit": 127,
              "rtr": "PITCH_SHIFT"
            },
            "ctb2High": null
          },
          "notes": []
        },
        "13": {
          "ctab": {
            "srcChannel": 13,
            "name": "Gtr 26",
            "accType": "CHORD1",
            "editable": false,
            "mutedNotes": [],
            "mutedChords": [
              "1+2+5",
              "sus4",
              "1+5",
              "1+8",
              "Maj7aug",
              "dim",
              "minMaj7(9)",
              "minMaj7",
              "min6",
              "min",
              "aug",
              "Maj7(9)",
              "Maj7#11",
              "Maj7",
              "Maj6",
              "Maj"
            ],
            "autoStart": false,
            "sourceChordNote": 0,
            "sourceChordType": "Maj7",
            "ctb2Low": null,
            "ctb2Main": {
              "ntr": "ROOT_TRANSPOSITION",
              "ntt": "MELODY",
              "bassOn": false,
              "chordRootUpperLimit": 2,
              "noteLowLimit": 0,
              "noteHighLimit": 66,
              "rtr": "PITCH_SHIFT"
            },
            "ctb2High": null
          },
          "notes": []
        },
        "14": {
          "ctab": {
            "srcChannel": 14,
            "name": "Gtr 24rt",
            "accType": "CHORD2",
            "editable": false,
            "mutedNotes": [],
            "mutedChords": [
              "1+2+5",
              "sus4",
              "1+5",
              "1+8",
              "Maj7aug",
              "dim",
              "minMaj7(9)",
              "minMaj7",
              "min6",
              "min",
              "aug",
              "Maj7(9)",
              "Maj7#11",
              "Maj7",
              "Maj6",
              "Maj"
            ],
            "autoStart": false,
            "sourceChordNote": 0,
            "sourceChordType": "Maj7",
            "ctb2Low": null,
            "ctb2Main": {
              "ntr": "ROOT_TRANSPOSITION",
              "ntt": "MELODY",
              "bassOn": false,
              "chordRootUpperLimit": 6,
              "noteLowLimit": 0,
              "noteHighLimit": 127,
              "rtr": "PITCH_SHIFT"
            },
            "ctb2High": null
          },
          "notes": []
        }
      }
    },
    "Ending_A": {
      "type": "Ending_A",
      "sizeInBeats": 4,
      "channels": {
        "7": {
          "ctab": {
            "srcChannel": 7,
            "name": "CC_Crash",
            "accType": "RHYTHM",
            "editable": false,
            "mutedNotes": [],
            "mutedChords": [
              "1+2+5",
              "sus4",
              "1+5",
              "1+8",
              "7aug",
              "Maj7aug",
              "7(#9)",
              "7(b13)",
              "7(b9)",
              "7(13)",
              "7#11",
              "7(9)",
              "7b5",
              "7sus4",
              "7th",
              "dim7",
              "dim",
              "minMaj7(9)",
              "minMaj7",
              "min7(11)",
              "min7(9)",
              "min(9)",
              "m7b5",
              "min7",
              "min6",
              "min",
              "aug",
              "Maj6(9)",
              "Maj7(9)",
              "Maj(9)",
              "Maj7#11",
              "Maj7",
              "Maj6",
              "Maj"
            ],
            "autoStart": true,
            "sourceChordNote": 0,
            "sourceChordType": "Maj",
            "ctb2Low": null,
            "ctb2Main": {
              "ntr": "ROOT_FIXED",
              "ntt": "BYPASS",
              "bassOn": false,
              "chordRootUpperLimit": 0,
              "noteLowLimit": 0,
              "noteHighLimit": 127,
              "rtr": "RETRIGGER"
            },
            "ctb2High": null
          },
          "notes": []
        },
        "8": {
          "ctab": {
            "srcChannel": 8,
            "name": "Brush",
            "accType": "SUBRHYTHM",
            "editable": false,
            "mutedNotes": [],
            "mutedChords": [],
            "autoStart": true,
            "sourceChordNote": 0,
            "sourceChordType": "Maj7",
            "ctb2Low": null,
            "ctb2Main": {
              "ntr": "ROOT_FIXED",
              "ntt": "BYPASS",
              "bassOn": false,
              "chordRootUpperLimit": 6,
              "noteLowLimit": 0,
              "noteHighLimit": 127,
              "rtr": "PITCH_SHIFT"
            },
            "ctb2High": null
          },
          "notes": []
        },
        "9": {
          "ctab": {
            "srcChannel": 9,
            "name": "Brush",
            "accType": "RHYTHM",
            "editable": false,
            "mutedNotes": [],
            "mutedChords": [],
            "autoStart": true,
            "sourceChordNote": 0,
            "sourceChordType": "Maj7",
            "ctb2Low": null,
            "ctb2Main": {
              "ntr": "ROOT_FIXED",
              "ntt": "BYPASS",
              "bassOn": false,
              "chordRootUpperLimit": 6,
              "noteLowLimit": 0,
              "noteHighLimit": 127,
              "rtr": "PITCH_SHIFT"
            },
            "ctb2High": null
          },
          "notes": [
            {
              "pitch": 27,
              "velocity": 69,
              "position": 0,
              "duration": 0.010416666666666666
            },
            {
              "pitch": 33,
              "velocity": 45,
              "position": 0,
              "duration": 0.03125
            },
            {
              "pitch": 27,
              "velocity": 45,
              "position": 3.0833333333333335,
              "duration": 0.010416666666666666
            },
            {
              "pitch": 27,
              "velocity": 30,
              "position": 3.5104166666666665,
              "duration": 0.010416666666666666
            },
            {
              "pitch": 33,
              "velocity": 45,
              "position": 3.9895833333333335,
              "duration": 0.004166666666666667
            }
          ]
        },
        "10": {
          "ctab": {
            "srcChannel": 10,
            "name": "Bass 32",
            "accType": "BASS",
            "editable": false,
            "mutedNotes": [],
            "mutedChords": [],
            "autoStart": false,
            "sourceChordNote": 0,
            "sourceChordType": "Maj7",
            "ctb2Low": null,
            "ctb2Main": {
              "ntr": "ROOT_TRANSPOSITION",
              "ntt": "MELODY",
              "bassOn": true,
              "chordRootUpperLimit": 8,
              "noteLowLimit": 28,
              "noteHighLimit": 127,
              "rtr": "PITCH_SHIFT_TO_ROOT"
            },
            "ctb2High": null
          },
          "notes": [
            {
              "pitch": 24,
              "velocity": 88,
              "position": 0,
              "duration": 3.9895833333333335
            }
          ]
        },
        "11": {
          "ctab": {
            "srcChannel": 11,
            "name": "Gtr 26",
            "accType": "CHORD1",
            "editable": false,
            "mutedNotes": [],
            "mutedChords": [],
            "autoStart": false,
            "sourceChordNote": 0,
            "sourceChordType": "min7(11)",
            "ctb2Low": null,
            "ctb2Main": {
              "ntr": "ROOT_FIXED",
              "ntt": "CHORD",
              "bassOn": false,
              "chordRootUpperLimit": 7,
              "noteLowLimit": 50,
              "noteHighLimit": 127,
              "rtr": "PITCH_SHIFT"
            },
            "ctb2High": null
          },
          "notes": [
            {
              "pitch": 65,
              "velocity": 69,
              "position": 0.020833333333333332,
              "duration": 3.90625
            },
            {
              "pitch": 63,
              "velocity": 70,
              "position": 0.010416666666666666,
              "duration": 3.9479166666666665
            },
            {
              "pitch": 58,
              "velocity": 72,
              "position": 0,
              "duration": 3.9895833333333335
            }
          ]
        },
        "12": {
          "ctab": {
            "srcChannel": 12,
            "name": "Gtr 24",
            "accType": "CHORD2",
            "editable": false,
            "mutedNotes": [],
            "mutedChords": [],
            "autoStart": false,
            "sourceChordNote": 0,
            "sourceChordType": "min7(11)",
            "ctb2Low": null,
            "ctb2Main": {
              "ntr": "ROOT_FIXED",
              "ntt": "CHORD",
              "bassOn": false,
              "chordRootUpperLimit": 7,
              "noteLowLimit": 50,
              "noteHighLimit": 127,
              "rtr": "PITCH_SHIFT"
            },
            "ctb2High": null
          },
          "notes": [
            {
              "pitch": 63,
              "velocity": 69,
              "position": 0.041666666666666664,
              "duration": 3.8645833333333335
            },
            {
              "pitch": 58,
              "velocity": 60,
              "position": 0.020833333333333332,
              "duration": 3.90625
            },
            {
              "pitch": 53,
              "velocity": 53,
              "position": 0,
              "duration": 3.9479166666666665
            }
          ]
        },
        "13": {
          "ctab": {
            "srcChannel": 13,
            "name": "Gtr 26",
            "accType": "CHORD1",
            "editable": false,
            "mutedNotes": [],
            "mutedChords": [
              "1+2+5",
              "sus4",
              "1+5",
              "1+8",
              "Maj7aug",
              "dim",
              "minMaj7(9)",
              "minMaj7",
              "min6",
              "min",
              "aug",
              "Maj7(9)",
              "Maj7#11",
              "Maj7",
              "Maj6",
              "Maj"
            ],
            "autoStart": false,
            "sourceChordNote": 0,
            "sourceChordType": "Maj7",
            "ctb2Low": null,
            "ctb2Main": {
              "ntr": "ROOT_TRANSPOSITION",
              "ntt": "MELODY",
              "bassOn": false,
              "chordRootUpperLimit": 2,
              "noteLowLimit": 0,
              "noteHighLimit": 66,
              "rtr": "PITCH_SHIFT"
            },
            "ctb2High": null
          },
          "notes": [
            {
              "pitch": 72,
              "velocity": 83,
              "position": 0,
              "duration": 3.9895833333333335
            }
          ]
        },
        "14": {
          "ctab": {
            "srcChannel": 14,
            "name": "Gtr 24rt",
            "accType": "CHORD2",
            "editable": false,
            "mutedNotes": [],
            "mutedChords": [
              "1+2+5",
              "sus4",
              "1+5",
              "1+8",
              "Maj7aug",
              "dim",
              "minMaj7(9)",
              "minMaj7",
              "min6",
              "min",
              "aug",
              "Maj7(9)",
              "Maj7#11",
              "Maj7",
              "Maj6",
              "Maj"
            ],
            "autoStart": false,
            "sourceChordNote": 0,
            "sourceChordType": "Maj7",
            "ctb2Low": null,
            "ctb2Main": {
              "ntr": "ROOT_TRANSPOSITION",
              "ntt": "MELODY",
              "bassOn": false,
              "chordRootUpperLimit": 6,
              "noteLowLimit": 0,
              "noteHighLimit": 127,
              "rtr": "PITCH_SHIFT"
            },
            "ctb2High": null
          },
          "notes": [
            {
              "pitch": 60,
              "velocity": 42,
              "position": 0.020833333333333332,
              "duration": 3.90625
            }
          ]
        }
      }
    },
    "Fill_In_BA": {
      "type": "Fill_In_BA",
      "sizeInBeats": 4,
      "channels": {
        "7": {
          "ctab": {
            "srcChannel": 7,
            "name": "CC_Crash",
            "accType": "RHYTHM",
            "editable": false,
            "mutedNotes": [],
            "mutedChords": [
              "1+2+5",
              "sus4",
              "1+5",
              "1+8",
              "7aug",
              "Maj7aug",
              "7(#9)",
              "7(b13)",
              "7(b9)",
              "7(13)",
              "7#11",
              "7(9)",
              "7b5",
              "7sus4",
              "7th",
              "dim7",
              "dim",
              "minMaj7(9)",
              "minMaj7",
              "min7(11)",
              "min7(9)",
              "min(9)",
              "m7b5",
              "min7",
              "min6",
              "min",
              "aug",
              "Maj6(9)",
              "Maj7(9)",
              "Maj(9)",
              "Maj7#11",
              "Maj7",
              "Maj6",
              "Maj"
            ],
            "autoStart": true,
            "sourceChordNote": 0,
            "sourceChordType": "Maj",
            "ctb2Low": null,
            "ctb2Main": {
              "ntr": "ROOT_FIXED",
              "ntt": "BYPASS",
              "bassOn": false,
              "chordRootUpperLimit": 0,
              "noteLowLimit": 0,
              "noteHighLimit": 127,
              "rtr": "RETRIGGER"
            },
            "ctb2High": null
          },
          "notes": []
        },
        "8": {
          "ctab": {
            "srcChannel": 8,
            "name": "Brush",
            "accType": "SUBRHYTHM",
            "editable": false,
            "mutedNotes": [],
            "mutedChords": [],
            "autoStart": true,
            "sourceChordNote": 0,
            "sourceChordType": "Maj7",
            "ctb2Low": null,
            "ctb2Main": {
              "ntr": "ROOT_FIXED",
              "ntt": "BYPASS",
              "bassOn": false,
              "chordRootUpperLimit": 6,
              "noteLowLimit": 0,
              "noteHighLimit": 127,
              "rtr": "PITCH_SHIFT"
            },
            "ctb2High": null
          },
          "notes": []
        },
        "9": {
          "ctab": {
            "srcChannel": 9,
            "name": "Brush",
            "accType": "RHYTHM",
            "editable": false,
            "mutedNotes": [],
            "mutedChords": [],
            "autoStart": true,
            "sourceChordNote": 0,
            "sourceChordType": "Maj7",
            "ctb2Low": null,
            "ctb2Main": {
              "ntr": "ROOT_FIXED",
              "ntt": "BYPASS",
              "bassOn": false,
              "chordRootUpperLimit": 6,
              "noteLowLimit": 0,
              "noteHighLimit": 127,
              "rtr": "PITCH_SHIFT"
            },
            "ctb2High": null
          },
          "notes": [
            {
              "pitch": 38,
              "velocity": 46,
              "position": 0,
              "duration": 0.020833333333333332
            },
            {
              "pitch": 33,
              "velocity": 45,
              "position": 0,
              "duration": 0.03125
            },
            {
              "pitch": 44,
              "velocity": 30,
              "position": 0.010416666666666666,
              "duration": 0.052083333333333336
            },
            {
              "pitch": 27,
              "velocity": 40,
              "position": 0.3333333333333333,
              "duration": 0.020833333333333332
            },
            {
              "pitch": 27,
              "velocity": 32,
              "position": 0.6666666666666666,
              "duration": 0.020833333333333332
            },
            {
              "pitch": 31,
              "velocity": 45,
              "position": 1,
              "duration": 0.020833333333333332
            },
            {
              "pitch": 33,
              "velocity": 45,
              "position": 1,
              "duration": 0.03125
            },
            {
              "pitch": 59,
              "velocity": 41,
              "position": 1.0208333333333333,
              "duration": 0.020833333333333332
            },
            {
              "pitch": 44,
              "velocity": 51,
              "position": 1.0104166666666667,
              "duration": 0.052083333333333336
            },
            {
              "pitch": 28,
              "velocity": 73,
              "position": 1,
              "duration": 0.5208333333333334
            },
            {
              "pitch": 27,
              "velocity": 101,
              "position": 1.625,
              "duration": 0.020833333333333332
            },
            {
              "pitch": 51,
              "velocity": 60,
              "position": 2.625,
              "duration": 0.010416666666666666
            },
            {
              "pitch": 40,
              "velocity": 92,
              "position": 2.625,
              "duration": 0.020833333333333332
            },
            {
              "pitch": 33,
              "velocity": 45,
              "position": 2.625,
              "duration": 0.03125
            },
            {
              "pitch": 38,
              "velocity": 39,
              "position": 3.6354166666666665,
              "duration": 0.10416666666666667
            }
          ]
        },
        "10": {
          "ctab": {
            "srcChannel": 10,
            "name": "Bass 32",
            "accType": "BASS",
            "editable": false,
            "mutedNotes": [],
            "mutedChords": [],
            "autoStart": false,
            "sourceChordNote": 0,
            "sourceChordType": "Maj7",
            "ctb2Low": null,
            "ctb2Main": {
              "ntr": "ROOT_TRANSPOSITION",
              "ntt": "MELODY",
              "bassOn": true,
              "chordRootUpperLimit": 8,
              "noteLowLimit": 28,
              "noteHighLimit": 127,
              "rtr": "PITCH_SHIFT_TO_ROOT"
            },
            "ctb2High": null
          },
          "notes": [
            {
              "pitch": 24,
              "velocity": 88,
              "position": 0,
              "duration": 0.9583333333333334
            },
            {
              "pitch": 31,
              "velocity": 73,
              "position": 1,
              "duration": 0.625
            },
            {
              "pitch": 36,
              "velocity": 88,
              "position": 1.6458333333333333,
              "duration": 0.5416666666666666
            }
          ]
        },
        "11": {
          "ctab": {
            "srcChannel": 11,
            "name": "Gtr 26",
            "accType": "CHORD1",
            "editable": false,
            "mutedNotes": [],
            "mutedChords": [],
            "autoStart": false,
            "sourceChordNote": 0,
            "sourceChordType": "min7(11)",
            "ctb2Low": null,
            "ctb2Main": {
              "ntr": "ROOT_FIXED",
              "ntt": "CHORD",
              "bassOn": false,
              "chordRootUpperLimit": 7,
              "noteLowLimit": 50,
              "noteHighLimit": 127,
              "rtr": "PITCH_SHIFT"
            },
            "ctb2High": null
          },
          "notes": [
            {
              "pitch": 53,
              "velocity": 54,
              "position": 0,
              "duration": 0.9895833333333334
            },
            {
              "pitch": 58,
              "velocity": 61,
              "position": 0.010416666666666666,
              "duration": 0.9895833333333334
            },
            {
              "pitch": 63,
              "velocity": 65,
              "position": 0.020833333333333332,
              "duration": 0.9895833333333334
            },
            {
              "pitch": 63,
              "velocity": 82,
              "position": 1.0208333333333333,
              "duration": 0.5729166666666666
            },
            {
              "pitch": 58,
              "velocity": 77,
              "position": 1.0104166666666667,
              "duration": 0.6145833333333334
            },
            {
              "pitch": 53,
              "velocity": 76,
              "position": 1,
              "duration": 0.65625
            },
            {
              "pitch": 53,
              "velocity": 65,
              "position": 1.6666666666666667,
              "duration": 0.23958333333333334
            },
            {
              "pitch": 63,
              "velocity": 69,
              "position": 1.6458333333333333,
              "duration": 0.2604166666666667
            },
            {
              "pitch": 58,
              "velocity": 67,
              "position": 1.65625,
              "duration": 0.3333333333333333
            }
          ]
        },
        "12": {
          "ctab": {
            "srcChannel": 12,
            "name": "Gtr 24",
            "accType": "CHORD2",
            "editable": false,
            "mutedNotes": [],
            "mutedChords": [],
            "autoStart": false,
            "sourceChordNote": 0,
            "sourceChordType": "min7(11)",
            "ctb2Low": null,
            "ctb2Main": {
              "ntr": "ROOT_FIXED",
              "ntt": "CHORD",
              "bassOn": false,
              "chordRootUpperLimit": 7,
              "noteLowLimit": 50,
              "noteHighLimit": 127,
              "rtr": "PITCH_SHIFT"
            },
            "ctb2High": null
          },
          "notes": [
            {
              "pitch": 58,
              "velocity": 59,
              "position": 0.020833333333333332,
              "duration": 0.5625
            },
            {
              "pitch": 53,
              "velocity": 58,
              "position": 0.010416666666666666,
              "duration": 0.6458333333333334
            },
            {
              "pitch": 63,
              "velocity": 77,
              "position": 0,
              "duration": 0.6666666666666666
            },
            {
              "pitch": 63,
              "velocity": 46,
              "position": 0.6875,
              "duration": 0.25
            },
            {
              "pitch": 58,
              "velocity": 26,
              "position": 0.6666666666666666,
              "duration": 0.3125
            },
            {
              "pitch": 53,
              "velocity": 22,
              "position": 0.6770833333333334,
              "duration": 0.3125
            },
            {
              "pitch": 58,
              "velocity": 65,
              "position": 1.0208333333333333,
              "duration": 0.5729166666666666
            },
            {
              "pitch": 53,
              "velocity": 57,
              "position": 1.0104166666666667,
              "duration": 0.6458333333333334
            },
            {
              "pitch": 63,
              "velocity": 76,
              "position": 1,
              "duration": 0.6770833333333334
            },
            {
              "pitch": 63,
              "velocity": 78,
              "position": 1.6875,
              "duration": 0.2708333333333333
            },
            {
              "pitch": 53,
              "velocity": 62,
              "position": 1.6770833333333333,
              "duration": 0.3125
            },
            {
              "pitch": 58,
              "velocity": 69,
              "position": 1.6666666666666667,
              "duration": 0.3958333333333333
            },
            {
              "pitch": 60,
              "velocity": 69,
              "position": 2.6770833333333335,
              "duration": 0.2916666666666667
            },
            {
              "pitch": 72,
              "velocity": 83,
              "position": 2.6666666666666665,
              "duration": 0.3958333333333333
            }
          ]
        },
        "13": {
          "ctab": {
            "srcChannel": 13,
            "name": "Gtr 26",
            "accType": "CHORD1",
            "editable": false,
            "mutedNotes": [],
            "mutedChords": [
              "1+2+5",
              "sus4",
              "1+5",
              "1+8",
              "Maj7aug",
              "dim",
              "minMaj7(9)",
              "minMaj7",
              "min6",
              "min",
              "aug",
              "Maj7(9)",
              "Maj7#11",
              "Maj7",
              "Maj6",
              "Maj"
            ],
            "autoStart": false,
            "sourceChordNote": 0,
            "sourceChordType": "Maj7",
            "ctb2Low": null,
            "ctb2Main": {
              "ntr": "ROOT_TRANSPOSITION",
              "ntt": "MELODY",
              "bassOn": false,
              "chordRootUpperLimit": 2,
              "noteLowLimit": 0,
              "noteHighLimit": 66,
              "rtr": "PITCH_SHIFT"
            },
            "ctb2High": null
          },
          "notes": [
            {
              "pitch": 72,
              "velocity": 61,
              "position": 0,
              "duration": 0.9895833333333334
            },
            {
              "pitch": 72,
              "velocity": 77,
              "position": 1,
              "duration": 0.6145833333333334
            },
            {
              "pitch": 72,
              "velocity": 67,
              "position": 1.6666666666666667,
              "duration": 0.3333333333333333
            }
          ]
        },
        "14": {
          "ctab": {
            "srcChannel": 14,
            "name": "Gtr 24rt",
            "accType": "CHORD2",
            "editable": false,
            "mutedNotes": [],
            "mutedChords": [
              "1+2+5",
              "sus4",
              "1+5",
              "1+8",
              "Maj7aug",
              "dim",
              "minMaj7(9)",
              "minMaj7",
              "min6",
              "min",
              "aug",
              "Maj7(9)",
              "Maj7#11",
              "Maj7",
              "Maj6",
              "Maj"
            ],
            "autoStart": false,
            "sourceChordNote": 0,
            "sourceChordType": "Maj7",
            "ctb2Low": null,
            "ctb2Main": {
              "ntr": "ROOT_TRANSPOSITION",
              "ntt": "MELODY",
              "bassOn": false,
              "chordRootUpperLimit": 6,
              "noteLowLimit": 0,
              "noteHighLimit": 127,
              "rtr": "PITCH_SHIFT"
            },
            "ctb2High": null
          },
          "notes": [
            {
              "pitch": 60,
              "velocity": 59,
              "position": 0.010416666666666666,
              "duration": 0.5625
            },
            {
              "pitch": 60,
              "velocity": 26,
              "position": 0.6770833333333334,
              "duration": 0.3125
            },
            {
              "pitch": 60,
              "velocity": 65,
              "position": 1.0104166666666667,
              "duration": 0.5729166666666666
            },
            {
              "pitch": 60,
              "velocity": 69,
              "position": 1.6770833333333333,
              "duration": 0.3958333333333333
            }
          ]
        }
      }
    },
    "Intro_B": {
      "type": "Intro_B",
      "sizeInBeats": 16,
      "channels": {
        "3": {
          "ctab": {
            "srcChannel": 3,
            "name": "Bass min",
            "accType": "BASS",
            "editable": false,
            "mutedNotes": [],
            "mutedChords": [
              "1+2+5",
              "sus4",
              "1+5",
              "1+8",
              "7aug",
              "Maj7aug",
              "7(#9)",
              "7(b13)",
              "7(b9)",
              "7(13)",
              "7#11",
              "7(9)",
              "7b5",
              "7sus4",
              "7th",
              "aug",
              "Maj6(9)",
              "Maj7(9)",
              "Maj(9)",
              "Maj7#11",
              "Maj7",
              "Maj6",
              "Maj"
            ],
            "autoStart": false,
            "sourceChordNote": 0,
            "sourceChordType": "Maj",
            "ctb2Low": null,
            "ctb2Main": {
              "ntr": "ROOT_TRANSPOSITION",
              "ntt": "BYPASS",
              "bassOn": false,
              "chordRootUpperLimit": 11,
              "noteLowLimit": 28,
              "noteHighLimit": 127,
              "rtr": "PITCH_SHIFT"
            },
            "ctb2High": null
          },
          "notes": [
            {
              "pitch": 24,
              "velocity": 83,
              "position": 0,
              "duration": 1
            },
            {
              "pitch": 27,
              "velocity": 83,
              "position": 2,
              "duration": 1
            },
            {
              "pitch": 26,
              "velocity": 83,
              "position": 4,
              "duration": 1
            },
            {
              "pitch": 19,
              "velocity": 83,
              "position": 6,
              "duration": 1
            },
            {
              "pitch": 24,
              "velocity": 83,
              "position": 8,
              "duration": 1
            },
            {
              "pitch": 27,
              "velocity": 83,
              "position": 10,
              "duration": 1
            },
            {
              "pitch": 26,
              "velocity": 83,
              "position": 12,
              "duration": 0.9583333333333334
            },
            {
              "pitch": 26,
              "velocity": 72,
              "position": 13,
              "duration": 0.625
            },
            {
              "pitch": 31,
              "velocity": 87,
              "position": 13.666666666666666,
              "duration": 0.40625
            }
          ]
        },
        "9": {
          "ctab": {
            "srcChannel": 9,
            "name": "Brush",
            "accType": "RHYTHM",
            "editable": false,
            "mutedNotes": [],
            "mutedChords": [],
            "autoStart": true,
            "sourceChordNote": 0,
            "sourceChordType": "Maj7",
            "ctb2Low": null,
            "ctb2Main": {
              "ntr": "ROOT_FIXED",
              "ntt": "BYPASS",
              "bassOn": false,
              "chordRootUpperLimit": 6,
              "noteLowLimit": 0,
              "noteHighLimit": 127,
              "rtr": "PITCH_SHIFT"
            },
            "ctb2High": null
          },
          "notes": [
            {
              "pitch": 27,
              "velocity": 39,
              "position": 0,
              "duration": 0.020833333333333332
            },
            {
              "pitch": 33,
              "velocity": 45,
              "position": 0,
              "duration": 0.03125
            },
            {
              "pitch": 27,
              "velocity": 30,
              "position": 0.6458333333333334,
              "duration": 0.020833333333333332
            },
            {
              "pitch": 28,
              "velocity": 32,
              "position": 0,
              "duration": 0.96875
            },
            {
              "pitch": 27,
              "velocity": 90,
              "position": 1,
              "duration": 0.020833333333333332
            },
            {
              "pitch": 33,
              "velocity": 33,
              "position": 1,
              "duration": 0.03125
            },
            {
              "pitch": 44,
              "velocity": 51,
              "position": 1.0104166666666667,
              "duration": 0.052083333333333336
            },
            {
              "pitch": 27,
              "velocity": 30,
              "position": 1.6458333333333333,
              "duration": 0.020833333333333332
            },
            {
              "pitch": 40,
              "velocity": 50,
              "position": 2,
              "duration": 0.020833333333333332
            },
            {
              "pitch": 33,
              "velocity": 45,
              "position": 2,
              "duration": 0.03125
            },
            {
              "pitch": 28,
              "velocity": 29,
              "position": 1,
              "duration": 1.5208333333333333
            },
            {
              "pitch": 27,
              "velocity": 77,
              "position": 2.6458333333333335,
              "duration": 0.020833333333333332
            },
            {
              "pitch": 27,
              "velocity": 43,
              "position": 3,
              "duration": 0.020833333333333332
            },
            {
              "pitch": 33,
              "velocity": 33,
              "position": 3,
              "duration": 0.03125
            },
            {
              "pitch": 44,
              "velocity": 51,
              "position": 3.0104166666666665,
              "duration": 0.052083333333333336
            },
            {
              "pitch": 27,
              "velocity": 30,
              "position": 3.6458333333333335,
              "duration": 0.020833333333333332
            },
            {
              "pitch": 27,
              "velocity": 39,
              "position": 4,
              "duration": 0.020833333333333332
            },
            {
              "pitch": 33,
              "velocity": 45,
              "position": 4,
              "duration": 0.03125
            },
            {
              "pitch": 28,
              "velocity": 29,
              "position": 3,
              "duration": 1.5208333333333333
            },
            {
              "pitch": 27,
              "velocity": 30,
              "position": 4.645833333333333,
              "duration": 0.020833333333333332
            },
            {
              "pitch": 27,
              "velocity": 104,
              "position": 5,
              "duration": 0.020833333333333332
            },
            {
              "pitch": 33,
              "velocity": 33,
              "position": 5,
              "duration": 0.03125
            },
            {
              "pitch": 44,
              "velocity": 51,
              "position": 5.010416666666667,
              "duration": 0.052083333333333336
            },
            {
              "pitch": 38,
              "velocity": 62,
              "position": 5.645833333333333,
              "duration": 0.020833333333333332
            },
            {
              "pitch": 27,
              "velocity": 47,
              "position": 6,
              "duration": 0.020833333333333332
            },
            {
              "pitch": 33,
              "velocity": 45,
              "position": 6,
              "duration": 0.03125
            },
            {
              "pitch": 28,
              "velocity": 34,
              "position": 5,
              "duration": 1.5208333333333333
            },
            {
              "pitch": 27,
              "velocity": 86,
              "position": 6.645833333333333,
              "duration": 0.020833333333333332
            },
            {
              "pitch": 27,
              "velocity": 90,
              "position": 7,
              "duration": 0.020833333333333332
            },
            {
              "pitch": 33,
              "velocity": 33,
              "position": 7,
              "duration": 0.03125
            },
            {
              "pitch": 44,
              "velocity": 51,
              "position": 7.010416666666667,
              "duration": 0.052083333333333336
            },
            {
              "pitch": 27,
              "velocity": 86,
              "position": 7.645833333333333,
              "duration": 0.020833333333333332
            },
            {
              "pitch": 27,
              "velocity": 39,
              "position": 8,
              "duration": 0.020833333333333332
            },
            {
              "pitch": 33,
              "velocity": 45,
              "position": 8,
              "duration": 0.03125
            },
            {
              "pitch": 28,
              "velocity": 34,
              "position": 7,
              "duration": 1.5208333333333333
            },
            {
              "pitch": 27,
              "velocity": 30,
              "position": 8.645833333333334,
              "duration": 0.020833333333333332
            },
            {
              "pitch": 27,
              "velocity": 106,
              "position": 9,
              "duration": 0.020833333333333332
            },
            {
              "pitch": 33,
              "velocity": 33,
              "position": 9,
              "duration": 0.03125
            },
            {
              "pitch": 44,
              "velocity": 51,
              "position": 9.010416666666666,
              "duration": 0.052083333333333336
            },
            {
              "pitch": 27,
              "velocity": 30,
              "position": 9.645833333333334,
              "duration": 0.020833333333333332
            },
            {
              "pitch": 27,
              "velocity": 50,
              "position": 10,
              "duration": 0.020833333333333332
            },
            {
              "pitch": 33,
              "velocity": 45,
              "position": 10,
              "duration": 0.03125
            },
            {
              "pitch": 28,
              "velocity": 29,
              "position": 9,
              "duration": 1.5208333333333333
            },
            {
              "pitch": 27,
              "velocity": 95,
              "position": 10.645833333333334,
              "duration": 0.020833333333333332
            },
            {
              "pitch": 27,
              "velocity": 33,
              "position": 11,
              "duration": 0.020833333333333332
            },
            {
              "pitch": 33,
              "velocity": 33,
              "position": 11,
              "duration": 0.03125
            },
            {
              "pitch": 44,
              "velocity": 51,
              "position": 11.010416666666666,
              "duration": 0.052083333333333336
            },
            {
              "pitch": 27,
              "velocity": 30,
              "position": 11.645833333333334,
              "duration": 0.020833333333333332
            },
            {
              "pitch": 38,
              "velocity": 90,
              "position": 12,
              "duration": 0.020833333333333332
            },
            {
              "pitch": 33,
              "velocity": 45,
              "position": 12,
              "duration": 0.03125
            },
            {
              "pitch": 28,
              "velocity": 31,
              "position": 11,
              "duration": 1.5208333333333333
            },
            {
              "pitch": 27,
              "velocity": 84,
              "position": 12.645833333333334,
              "duration": 0.020833333333333332
            },
            {
              "pitch": 27,
              "velocity": 106,
              "position": 13,
              "duration": 0.020833333333333332
            },
            {
              "pitch": 33,
              "velocity": 36,
              "position": 13,
              "duration": 0.03125
            },
            {
              "pitch": 44,
              "velocity": 51,
              "position": 13.010416666666666,
              "duration": 0.052083333333333336
            },
            {
              "pitch": 38,
              "velocity": 75,
              "position": 13.645833333333334,
              "duration": 0.020833333333333332
            },
            {
              "pitch": 33,
              "velocity": 45,
              "position": 13.666666666666666,
              "duration": 0.03125
            },
            {
              "pitch": 59,
              "velocity": 59,
              "position": 13.666666666666666,
              "duration": 0.125
            },
            {
              "pitch": 27,
              "velocity": 30,
              "position": 14,
              "duration": 0.020833333333333332
            },
            {
              "pitch": 27,
              "velocity": 30,
              "position": 14.333333333333334,
              "duration": 0.020833333333333332
            },
            {
              "pitch": 28,
              "velocity": 36,
              "position": 13,
              "duration": 1.4791666666666667
            },
            {
              "pitch": 25,
              "velocity": 56,
              "position": 14.666666666666666,
              "duration": 0.020833333333333332
            },
            {
              "pitch": 31,
              "velocity": 50,
              "position": 15,
              "duration": 0.020833333333333332
            },
            {
              "pitch": 25,
              "velocity": 78,
              "position": 15.645833333333334,
              "duration": 0.020833333333333332
            }
          ]
        },
        "10": {
          "ctab": {
            "srcChannel": 10,
            "name": "Bass 32",
            "accType": "BASS",
            "editable": false,
            "mutedNotes": [],
            "mutedChords": [
              "dim7",
              "dim",
              "minMaj7(9)",
              "minMaj7",
              "min7(11)",
              "min7(9)",
              "min(9)",
              "m7b5",
              "min7",
              "min6",
              "min"
            ],
            "autoStart": false,
            "sourceChordNote": 0,
            "sourceChordType": "Maj7",
            "ctb2Low": null,
            "ctb2Main": {
              "ntr": "ROOT_TRANSPOSITION",
              "ntt": "MELODIC_MINOR",
              "bassOn": false,
              "chordRootUpperLimit": 8,
              "noteLowLimit": 28,
              "noteHighLimit": 127,
              "rtr": "PITCH_SHIFT"
            },
            "ctb2High": null
          },
          "notes": [
            {
              "pitch": 36,
              "velocity": 74,
              "position": 0.04375,
              "duration": 0.9583333333333334
            },
            {
              "pitch": 37,
              "velocity": 65,
              "position": 2.0104166666666665,
              "duration": 0.9895833333333334
            },
            {
              "pitch": 38,
              "velocity": 70,
              "position": 4.002083333333333,
              "duration": 1
            },
            {
              "pitch": 31,
              "velocity": 60,
              "position": 6,
              "duration": 1.0208333333333333
            },
            {
              "pitch": 36,
              "velocity": 74,
              "position": 8,
              "duration": 1
            },
            {
              "pitch": 37,
              "velocity": 76,
              "position": 10,
              "duration": 1
            },
            {
              "pitch": 38,
              "velocity": 76,
              "position": 12,
              "duration": 1.65625
            },
            {
              "pitch": 31,
              "velocity": 76,
              "position": 13.666666666666666,
              "duration": 0.3333333333333333
            }
          ]
        },
        "11": {
          "ctab": {
            "srcChannel": 11,
            "name": "GTR26min",
            "accType": "CHORD1",
            "editable": false,
            "mutedNotes": [],
            "mutedChords": [
              "1+2+5",
              "sus4",
              "1+5",
              "1+8",
              "7aug",
              "Maj7aug",
              "7(#9)",
              "7(b13)",
              "7(b9)",
              "7(13)",
              "7#11",
              "7(9)",
              "7b5",
              "7sus4",
              "7th",
              "aug",
              "Maj6(9)",
              "Maj7(9)",
              "Maj(9)",
              "Maj7#11",
              "Maj7",
              "Maj6",
              "Maj"
            ],
            "autoStart": false,
            "sourceChordNote": 0,
            "sourceChordType": "min",
            "ctb2Low": null,
            "ctb2Main": {
              "ntr": "ROOT_TRANSPOSITION",
              "ntt": "BYPASS",
              "bassOn": false,
              "chordRootUpperLimit": 9,
              "noteLowLimit": 0,
              "noteHighLimit": 127,
              "rtr": "PITCH_SHIFT"
            },
            "ctb2High": null
          },
          "notes": [
            {
              "pitch": 60,
              "velocity": 110,
              "position": 0.65625,
              "duration": 0.3229166666666667
            },
            {
              "pitch": 72,
              "velocity": 110,
              "position": 0.6979166666666666,
              "duration": 0.3229166666666667
            },
            {
              "pitch": 54,
              "velocity": 127,
              "position": 1.65625,
              "duration": 0.3541666666666667
            },
            {
              "pitch": 66,
              "velocity": 115,
              "position": 1.6979166666666667,
              "duration": 0.3541666666666667
            },
            {
              "pitch": 53,
              "velocity": 86,
              "position": 1.9895833333333333,
              "duration": 0.625
            },
            {
              "pitch": 65,
              "velocity": 102,
              "position": 2.03125,
              "duration": 0.625
            },
            {
              "pitch": 51,
              "velocity": 111,
              "position": 2.65625,
              "duration": 0.34375
            },
            {
              "pitch": 63,
              "velocity": 113,
              "position": 2.6979166666666665,
              "duration": 0.34375
            },
            {
              "pitch": 53,
              "velocity": 127,
              "position": 4.65625,
              "duration": 0.3333333333333333
            },
            {
              "pitch": 65,
              "velocity": 127,
              "position": 4.697916666666667,
              "duration": 0.3333333333333333
            },
            {
              "pitch": 51,
              "velocity": 111,
              "position": 5.65625,
              "duration": 0.3541666666666667
            },
            {
              "pitch": 63,
              "velocity": 113,
              "position": 5.697916666666667,
              "duration": 0.34375
            },
            {
              "pitch": 50,
              "velocity": 86,
              "position": 5.989583333333333,
              "duration": 0.65625
            },
            {
              "pitch": 62,
              "velocity": 102,
              "position": 6.03125,
              "duration": 0.65625
            },
            {
              "pitch": 55,
              "velocity": 127,
              "position": 6.65625,
              "duration": 0.28125
            },
            {
              "pitch": 67,
              "velocity": 127,
              "position": 6.697916666666667,
              "duration": 0.28125
            },
            {
              "pitch": 60,
              "velocity": 121,
              "position": 8.65625,
              "duration": 0.3020833333333333
            },
            {
              "pitch": 72,
              "velocity": 121,
              "position": 8.697916666666666,
              "duration": 0.3020833333333333
            },
            {
              "pitch": 54,
              "velocity": 127,
              "position": 9.65625,
              "duration": 0.3541666666666667
            },
            {
              "pitch": 66,
              "velocity": 127,
              "position": 9.697916666666666,
              "duration": 0.3333333333333333
            },
            {
              "pitch": 53,
              "velocity": 86,
              "position": 9.989583333333334,
              "duration": 0.65625
            },
            {
              "pitch": 65,
              "velocity": 99,
              "position": 10.03125,
              "duration": 0.65625
            },
            {
              "pitch": 54,
              "velocity": 103,
              "position": 10.65625,
              "duration": 0.3541666666666667
            },
            {
              "pitch": 66,
              "velocity": 105,
              "position": 10.697916666666666,
              "duration": 0.3541666666666667
            },
            {
              "pitch": 53,
              "velocity": 86,
              "position": 10.989583333333334,
              "duration": 0.65625
            },
            {
              "pitch": 65,
              "velocity": 92,
              "position": 11.03125,
              "duration": 0.65625
            },
            {
              "pitch": 51,
              "velocity": 127,
              "position": 11.65625,
              "duration": 0.3229166666666667
            },
            {
              "pitch": 63,
              "velocity": 127,
              "position": 11.697916666666666,
              "duration": 0.3229166666666667
            },
            {
              "pitch": 53,
              "velocity": 127,
              "position": 11.989583333333334,
              "duration": 0.65625
            },
            {
              "pitch": 65,
              "velocity": 127,
              "position": 12.03125,
              "duration": 0.65625
            },
            {
              "pitch": 53,
              "velocity": 84,
              "position": 12.65625,
              "duration": 0.3229166666666667
            },
            {
              "pitch": 65,
              "velocity": 86,
              "position": 12.697916666666666,
              "duration": 0.3229166666666667
            },
            {
              "pitch": 53,
              "velocity": 107,
              "position": 12.989583333333334,
              "duration": 0.65625
            },
            {
              "pitch": 65,
              "velocity": 109,
              "position": 13.03125,
              "duration": 0.65625
            },
            {
              "pitch": 55,
              "velocity": 127,
              "position": 13.65625,
              "duration": 0.3541666666666667
            },
            {
              "pitch": 67,
              "velocity": 127,
              "position": 13.697916666666666,
              "duration": 0.3541666666666667
            }
          ]
        },
        "12": {
          "ctab": {
            "srcChannel": 12,
            "name": "Nylonmaj",
            "accType": "CHORD2",
            "editable": false,
            "mutedNotes": [],
            "mutedChords": [
              "dim7",
              "dim",
              "minMaj7(9)",
              "minMaj7",
              "min7(11)",
              "min7(9)",
              "min(9)",
              "m7b5",
              "min7",
              "min6",
              "min"
            ],
            "autoStart": false,
            "sourceChordNote": 0,
            "sourceChordType": "Maj",
            "ctb2Low": null,
            "ctb2Main": {
              "ntr": "ROOT_TRANSPOSITION",
              "ntt": "BYPASS",
              "bassOn": false,
              "chordRootUpperLimit": 7,
              "noteLowLimit": 54,
              "noteHighLimit": 65,
              "rtr": "PITCH_SHIFT"
            },
            "ctb2High": null
          },
          "notes": [
            {
              "pitch": 60,
              "velocity": 50,
              "position": 0.010416666666666666,
              "duration": 0.2604166666666667
            },
            {
              "pitch": 55,
              "velocity": 34,
              "position": 0,
              "duration": 0.28125
            },
            {
              "pitch": 64,
              "velocity": 64,
              "position": 0.020833333333333332,
              "duration": 0.3125
            },
            {
              "pitch": 55,
              "velocity": 48,
              "position": 1,
              "duration": 0.40625
            },
            {
              "pitch": 60,
              "velocity": 61,
              "position": 1.0104166666666667,
              "duration": 0.4270833333333333
            },
            {
              "pitch": 64,
              "velocity": 80,
              "position": 1.0208333333333333,
              "duration": 0.4791666666666667
            },
            {
              "pitch": 58,
              "velocity": 19,
              "position": 2.0104166666666665,
              "duration": 0.40625
            },
            {
              "pitch": 61,
              "velocity": 13,
              "position": 2.0208333333333335,
              "duration": 0.40625
            },
            {
              "pitch": 55,
              "velocity": 10,
              "position": 2,
              "duration": 0.4479166666666667
            },
            {
              "pitch": 64,
              "velocity": 44,
              "position": 2.03125,
              "duration": 0.4583333333333333
            },
            {
              "pitch": 55,
              "velocity": 42,
              "position": 3,
              "duration": 0.3645833333333333
            },
            {
              "pitch": 58,
              "velocity": 64,
              "position": 3.0104166666666665,
              "duration": 0.375
            },
            {
              "pitch": 61,
              "velocity": 59,
              "position": 3.0208333333333335,
              "duration": 0.4375
            },
            {
              "pitch": 64,
              "velocity": 77,
              "position": 3.0416666666666665,
              "duration": 0.4583333333333333
            },
            {
              "pitch": 62,
              "velocity": 43,
              "position": 4.020833333333333,
              "duration": 0.3229166666666667
            },
            {
              "pitch": 60,
              "velocity": 34,
              "position": 4.010416666666667,
              "duration": 0.34375
            },
            {
              "pitch": 57,
              "velocity": 19,
              "position": 4,
              "duration": 0.4375
            },
            {
              "pitch": 65,
              "velocity": 54,
              "position": 4.03125,
              "duration": 0.4583333333333333
            },
            {
              "pitch": 60,
              "velocity": 51,
              "position": 5.010416666666667,
              "duration": 0.2916666666666667
            },
            {
              "pitch": 57,
              "velocity": 40,
              "position": 5,
              "duration": 0.3229166666666667
            },
            {
              "pitch": 62,
              "velocity": 52,
              "position": 5.020833333333333,
              "duration": 0.3229166666666667
            },
            {
              "pitch": 65,
              "velocity": 61,
              "position": 5.03125,
              "duration": 0.375
            },
            {
              "pitch": 62,
              "velocity": 61,
              "position": 5.666666666666667,
              "duration": 0.9583333333333334
            },
            {
              "pitch": 59,
              "velocity": 50,
              "position": 5.677083333333333,
              "duration": 0.9791666666666666
            },
            {
              "pitch": 55,
              "velocity": 34,
              "position": 5.6875,
              "duration": 0.9791666666666666
            },
            {
              "pitch": 62,
              "velocity": 58,
              "position": 6.666666666666667,
              "duration": 0.3229166666666667
            },
            {
              "pitch": 59,
              "velocity": 35,
              "position": 6.677083333333333,
              "duration": 0.3125
            },
            {
              "pitch": 55,
              "velocity": 26,
              "position": 6.6875,
              "duration": 0.3020833333333333
            },
            {
              "pitch": 55,
              "velocity": 52,
              "position": 7,
              "duration": 0.3333333333333333
            },
            {
              "pitch": 59,
              "velocity": 59,
              "position": 7.010416666666667,
              "duration": 0.3333333333333333
            },
            {
              "pitch": 62,
              "velocity": 74,
              "position": 7.020833333333333,
              "duration": 0.3333333333333333
            },
            {
              "pitch": 60,
              "velocity": 33,
              "position": 8.010416666666666,
              "duration": 0.3020833333333333
            },
            {
              "pitch": 64,
              "velocity": 57,
              "position": 8.020833333333334,
              "duration": 0.3229166666666667
            },
            {
              "pitch": 55,
              "velocity": 19,
              "position": 8,
              "duration": 0.3645833333333333
            },
            {
              "pitch": 55,
              "velocity": 48,
              "position": 9,
              "duration": 0.3854166666666667
            },
            {
              "pitch": 60,
              "velocity": 65,
              "position": 9.010416666666666,
              "duration": 0.375
            },
            {
              "pitch": 64,
              "velocity": 78,
              "position": 9.020833333333334,
              "duration": 0.40625
            },
            {
              "pitch": 58,
              "velocity": 35,
              "position": 10.010416666666666,
              "duration": 0.2916666666666667
            },
            {
              "pitch": 61,
              "velocity": 35,
              "position": 10.020833333333334,
              "duration": 0.2916666666666667
            },
            {
              "pitch": 55,
              "velocity": 26,
              "position": 10,
              "duration": 0.3541666666666667
            },
            {
              "pitch": 64,
              "velocity": 51,
              "position": 10.03125,
              "duration": 0.4166666666666667
            },
            {
              "pitch": 55,
              "velocity": 39,
              "position": 11,
              "duration": 0.3645833333333333
            },
            {
              "pitch": 58,
              "velocity": 57,
              "position": 11.010416666666666,
              "duration": 0.375
            },
            {
              "pitch": 61,
              "velocity": 54,
              "position": 11.020833333333334,
              "duration": 0.4479166666666667
            },
            {
              "pitch": 64,
              "velocity": 70,
              "position": 11.03125,
              "duration": 0.4791666666666667
            },
            {
              "pitch": 57,
              "velocity": 28,
              "position": 12,
              "duration": 0.3333333333333333
            },
            {
              "pitch": 60,
              "velocity": 43,
              "position": 12.010416666666666,
              "duration": 0.3333333333333333
            },
            {
              "pitch": 62,
              "velocity": 48,
              "position": 12.020833333333334,
              "duration": 0.3333333333333333
            },
            {
              "pitch": 65,
              "velocity": 58,
              "position": 12.03125,
              "duration": 0.3333333333333333
            },
            {
              "pitch": 60,
              "velocity": 34,
              "position": 13.010416666666666,
              "duration": 0.6354166666666666
            },
            {
              "pitch": 65,
              "velocity": 51,
              "position": 13.03125,
              "duration": 0.6145833333333334
            },
            {
              "pitch": 57,
              "velocity": 20,
              "position": 13,
              "duration": 0.65625
            },
            {
              "pitch": 62,
              "velocity": 35,
              "position": 13.020833333333334,
              "duration": 0.6354166666666666
            },
            {
              "pitch": 62,
              "velocity": 69,
              "position": 13.666666666666666,
              "duration": 0.3125
            },
            {
              "pitch": 59,
              "velocity": 62,
              "position": 13.677083333333334,
              "duration": 0.3229166666666667
            },
            {
              "pitch": 67,
              "velocity": 60,
              "position": 13.708333333333334,
              "duration": 0.375
            }
          ]
        },
        "13": {
          "ctab": {
            "srcChannel": 13,
            "name": "Gtr26maj",
            "accType": "CHORD1",
            "editable": false,
            "mutedNotes": [],
            "mutedChords": [
              "dim7",
              "dim",
              "minMaj7(9)",
              "minMaj7",
              "min7(11)",
              "min7(9)",
              "min(9)",
              "m7b5",
              "min7",
              "min6",
              "min"
            ],
            "autoStart": false,
            "sourceChordNote": 0,
            "sourceChordType": "Maj",
            "ctb2Low": null,
            "ctb2Main": {
              "ntr": "ROOT_TRANSPOSITION",
              "ntt": "BYPASS",
              "bassOn": false,
              "chordRootUpperLimit": 9,
              "noteLowLimit": 0,
              "noteHighLimit": 127,
              "rtr": "PITCH_SHIFT"
            },
            "ctb2High": null
          },
          "notes": [
            {
              "pitch": 60,
              "velocity": 121,
              "position": 0.6666666666666666,
              "duration": 0.3229166666666667
            },
            {
              "pitch": 60,
              "velocity": 121,
              "position": 1.6666666666666667,
              "duration": 0.3229166666666667
            },
            {
              "pitch": 61,
              "velocity": 127,
              "position": 2,
              "duration": 0.4583333333333333
            },
            {
              "pitch": 61,
              "velocity": 119,
              "position": 3,
              "duration": 0.34375
            },
            {
              "pitch": 62,
              "velocity": 127,
              "position": 4.666666666666667,
              "duration": 0.3333333333333333
            },
            {
              "pitch": 58,
              "velocity": 113,
              "position": 5.666666666666667,
              "duration": 0.3333333333333333
            },
            {
              "pitch": 59,
              "velocity": 91,
              "position": 6,
              "duration": 0.65625
            },
            {
              "pitch": 55,
              "velocity": 127,
              "position": 6.666666666666667,
              "duration": 0.28125
            },
            {
              "pitch": 48,
              "velocity": 91,
              "position": 8.645833333333334,
              "duration": 0.3020833333333333
            },
            {
              "pitch": 60,
              "velocity": 121,
              "position": 8.708333333333334,
              "duration": 0.3020833333333333
            },
            {
              "pitch": 48,
              "velocity": 98,
              "position": 9.645833333333334,
              "duration": 0.3541666666666667
            },
            {
              "pitch": 60,
              "velocity": 127,
              "position": 9.708333333333334,
              "duration": 0.3229166666666667
            },
            {
              "pitch": 49,
              "velocity": 77,
              "position": 10,
              "duration": 0.375
            },
            {
              "pitch": 61,
              "velocity": 105,
              "position": 10,
              "duration": 0.375
            },
            {
              "pitch": 49,
              "velocity": 84,
              "position": 10.979166666666666,
              "duration": 0.3229166666666667
            },
            {
              "pitch": 61,
              "velocity": 109,
              "position": 11.041666666666666,
              "duration": 0.3229166666666667
            },
            {
              "pitch": 50,
              "velocity": 91,
              "position": 11.979166666666666,
              "duration": 0.3229166666666667
            },
            {
              "pitch": 62,
              "velocity": 127,
              "position": 12.041666666666666,
              "duration": 0.3229166666666667
            },
            {
              "pitch": 50,
              "velocity": 79,
              "position": 12.979166666666666,
              "duration": 0.65625
            },
            {
              "pitch": 62,
              "velocity": 109,
              "position": 13.041666666666666,
              "duration": 0.65625
            },
            {
              "pitch": 55,
              "velocity": 106,
              "position": 13.645833333333334,
              "duration": 0.3541666666666667
            },
            {
              "pitch": 67,
              "velocity": 127,
              "position": 13.708333333333334,
              "duration": 0.3541666666666667
            }
          ]
        },
        "14": {
          "ctab": {
            "srcChannel": 14,
            "name": "Nylonmin",
            "accType": "CHORD2",
            "editable": false,
            "mutedNotes": [],
            "mutedChords": [
              "1+2+5",
              "sus4",
              "1+5",
              "1+8",
              "7aug",
              "Maj7aug",
              "7(#9)",
              "7(b13)",
              "7(b9)",
              "7(13)",
              "7#11",
              "7(9)",
              "7b5",
              "7sus4",
              "7th",
              "aug",
              "Maj6(9)",
              "Maj7(9)",
              "Maj(9)",
              "Maj7#11",
              "Maj7",
              "Maj6",
              "Maj"
            ],
            "autoStart": false,
            "sourceChordNote": 0,
            "sourceChordType": "min",
            "ctb2Low": null,
            "ctb2Main": {
              "ntr": "ROOT_TRANSPOSITION",
              "ntt": "BYPASS",
              "bassOn": false,
              "chordRootUpperLimit": 7,
              "noteLowLimit": 54,
              "noteHighLimit": 65,
              "rtr": "PITCH_SHIFT"
            },
            "ctb2High": null
          },
          "notes": [
            {
              "pitch": 55,
              "velocity": 34,
              "position": 0,
              "duration": 0.7291666666666666
            },
            {
              "pitch": 60,
              "velocity": 50,
              "position": 0.010416666666666666,
              "duration": 0.7291666666666666
            },
            {
              "pitch": 63,
              "velocity": 64,
              "position": 0.020833333333333332,
              "duration": 0.7291666666666666
            },
            {
              "pitch": 55,
              "velocity": 59,
              "position": 1,
              "duration": 0.25
            },
            {
              "pitch": 60,
              "velocity": 66,
              "position": 1.0104166666666667,
              "duration": 0.25
            },
            {
              "pitch": 63,
              "velocity": 77,
              "position": 1.0208333333333333,
              "duration": 0.25
            },
            {
              "pitch": 55,
              "velocity": 27,
              "position": 2,
              "duration": 0.7291666666666666
            },
            {
              "pitch": 60,
              "velocity": 36,
              "position": 2.0104166666666665,
              "duration": 0.7291666666666666
            },
            {
              "pitch": 63,
              "velocity": 53,
              "position": 2.0208333333333335,
              "duration": 0.7291666666666666
            },
            {
              "pitch": 55,
              "velocity": 65,
              "position": 3,
              "duration": 0.25
            },
            {
              "pitch": 60,
              "velocity": 72,
              "position": 3.0104166666666665,
              "duration": 0.25
            },
            {
              "pitch": 63,
              "velocity": 84,
              "position": 3.0208333333333335,
              "duration": 0.25
            },
            {
              "pitch": 56,
              "velocity": 27,
              "position": 4,
              "duration": 0.7291666666666666
            },
            {
              "pitch": 62,
              "velocity": 33,
              "position": 4.010416666666667,
              "duration": 0.7291666666666666
            },
            {
              "pitch": 65,
              "velocity": 48,
              "position": 4.020833333333333,
              "duration": 0.7291666666666666
            },
            {
              "pitch": 56,
              "velocity": 59,
              "position": 5,
              "duration": 0.25
            },
            {
              "pitch": 62,
              "velocity": 66,
              "position": 5.010416666666667,
              "duration": 0.25
            },
            {
              "pitch": 65,
              "velocity": 79,
              "position": 5.020833333333333,
              "duration": 0.25
            },
            {
              "pitch": 62,
              "velocity": 61,
              "position": 5.666666666666667,
              "duration": 0.9583333333333334
            },
            {
              "pitch": 59,
              "velocity": 50,
              "position": 5.677083333333333,
              "duration": 0.9791666666666666
            },
            {
              "pitch": 55,
              "velocity": 34,
              "position": 5.6875,
              "duration": 0.9791666666666666
            },
            {
              "pitch": 55,
              "velocity": 34,
              "position": 6.6875,
              "duration": 0.2916666666666667
            },
            {
              "pitch": 62,
              "velocity": 57,
              "position": 6.666666666666667,
              "duration": 0.3229166666666667
            },
            {
              "pitch": 59,
              "velocity": 42,
              "position": 6.677083333333333,
              "duration": 0.3125
            },
            {
              "pitch": 55,
              "velocity": 59,
              "position": 7,
              "duration": 0.25
            },
            {
              "pitch": 59,
              "velocity": 66,
              "position": 7.010416666666667,
              "duration": 0.25
            },
            {
              "pitch": 62,
              "velocity": 79,
              "position": 7.020833333333333,
              "duration": 0.25
            },
            {
              "pitch": 55,
              "velocity": 19,
              "position": 8,
              "duration": 0.7291666666666666
            },
            {
              "pitch": 60,
              "velocity": 33,
              "position": 8.010416666666666,
              "duration": 0.7291666666666666
            },
            {
              "pitch": 63,
              "velocity": 57,
              "position": 8.020833333333334,
              "duration": 0.7291666666666666
            },
            {
              "pitch": 55,
              "velocity": 48,
              "position": 9,
              "duration": 0.25
            },
            {
              "pitch": 60,
              "velocity": 71,
              "position": 9.010416666666666,
              "duration": 0.25
            },
            {
              "pitch": 63,
              "velocity": 83,
              "position": 9.020833333333334,
              "duration": 0.25
            },
            {
              "pitch": 55,
              "velocity": 26,
              "position": 10,
              "duration": 0.7291666666666666
            },
            {
              "pitch": 60,
              "velocity": 35,
              "position": 10.010416666666666,
              "duration": 0.7291666666666666
            },
            {
              "pitch": 63,
              "velocity": 51,
              "position": 10.020833333333334,
              "duration": 0.7291666666666666
            },
            {
              "pitch": 55,
              "velocity": 57,
              "position": 11,
              "duration": 0.25
            },
            {
              "pitch": 60,
              "velocity": 64,
              "position": 11.010416666666666,
              "duration": 0.25
            },
            {
              "pitch": 63,
              "velocity": 77,
              "position": 11.020833333333334,
              "duration": 0.25
            },
            {
              "pitch": 65,
              "velocity": 57,
              "position": 12.020833333333334,
              "duration": 0.9166666666666666
            },
            {
              "pitch": 62,
              "velocity": 41,
              "position": 12.010416666666666,
              "duration": 0.9479166666666666
            },
            {
              "pitch": 56,
              "velocity": 33,
              "position": 12,
              "duration": 0.9791666666666666
            },
            {
              "pitch": 56,
              "velocity": 45,
              "position": 13,
              "duration": 0.6145833333333334
            },
            {
              "pitch": 62,
              "velocity": 52,
              "position": 13.010416666666666,
              "duration": 0.625
            },
            {
              "pitch": 65,
              "velocity": 67,
              "position": 13.020833333333334,
              "duration": 0.6354166666666666
            },
            {
              "pitch": 62,
              "velocity": 69,
              "position": 13.666666666666666,
              "duration": 0.3125
            },
            {
              "pitch": 59,
              "velocity": 62,
              "position": 13.677083333333334,
              "duration": 0.3229166666666667
            },
            {
              "pitch": 67,
              "velocity": 60,
              "position": 13.6875,
              "duration": 0.375
            }
          ]
        }
      }
    },
    "Ending_B": {
      "type": "Ending_B",
      "sizeInBeats": 16,
      "channels": {
        "3": {
          "ctab": {
            "srcChannel": 3,
            "name": "Bass min",
            "accType": "BASS",
            "editable": false,
            "mutedNotes": [],
            "mutedChords": [
              "1+2+5",
              "sus4",
              "1+5",
              "1+8",
              "7aug",
              "Maj7aug",
              "7(#9)",
              "7(b13)",
              "7(b9)",
              "7(13)",
              "7#11",
              "7(9)",
              "7b5",
              "7sus4",
              "7th",
              "aug",
              "Maj6(9)",
              "Maj7(9)",
              "Maj(9)",
              "Maj7#11",
              "Maj7",
              "Maj6",
              "Maj"
            ],
            "autoStart": false,
            "sourceChordNote": 0,
            "sourceChordType": "Maj",
            "ctb2Low": null,
            "ctb2Main": {
              "ntr": "ROOT_TRANSPOSITION",
              "ntt": "BYPASS",
              "bassOn": false,
              "chordRootUpperLimit": 11,
              "noteLowLimit": 28,
              "noteHighLimit": 127,
              "rtr": "PITCH_SHIFT"
            },
            "ctb2High": null
          },
          "notes": [
            {
              "pitch": 36,
              "velocity": 85,
              "position": 0,
              "duration": 1
            },
            {
              "pitch": 34,
              "velocity": 83,
              "position": 2,
              "duration": 1
            },
            {
              "pitch": 32,
              "velocity": 94,
              "position": 4,
              "duration": 1
            },
            {
              "pitch": 31,
              "velocity": 94,
              "position": 5.666666666666667,
              "duration": 0.6666666666666666
            },
            {
              "pitch": 19,
              "velocity": 85,
              "position": 12,
              "duration": 1.6666666666666667
            },
            {
              "pitch": 24,
              "velocity": 87,
              "position": 13.666666666666666,
              "duration": 0.3333333333333333
            }
          ]
        },
        "9": {
          "ctab": {
            "srcChannel": 9,
            "name": "Brush",
            "accType": "RHYTHM",
            "editable": false,
            "mutedNotes": [],
            "mutedChords": [],
            "autoStart": true,
            "sourceChordNote": 0,
            "sourceChordType": "Maj7",
            "ctb2Low": null,
            "ctb2Main": {
              "ntr": "ROOT_FIXED",
              "ntt": "BYPASS",
              "bassOn": false,
              "chordRootUpperLimit": 6,
              "noteLowLimit": 0,
              "noteHighLimit": 127,
              "rtr": "PITCH_SHIFT"
            },
            "ctb2High": null
          },
          "notes": [
            {
              "pitch": 27,
              "velocity": 49,
              "position": 0,
              "duration": 0.020833333333333332
            },
            {
              "pitch": 33,
              "velocity": 45,
              "position": 0,
              "duration": 0.03125
            },
            {
              "pitch": 27,
              "velocity": 40,
              "position": 0.6458333333333334,
              "duration": 0.020833333333333332
            },
            {
              "pitch": 28,
              "velocity": 24,
              "position": 0,
              "duration": 0.96875
            },
            {
              "pitch": 27,
              "velocity": 94,
              "position": 1,
              "duration": 0.020833333333333332
            },
            {
              "pitch": 33,
              "velocity": 45,
              "position": 1,
              "duration": 0.03125
            },
            {
              "pitch": 44,
              "velocity": 51,
              "position": 1.0104166666666667,
              "duration": 0.052083333333333336
            },
            {
              "pitch": 27,
              "velocity": 40,
              "position": 1.6458333333333333,
              "duration": 0.020833333333333332
            },
            {
              "pitch": 40,
              "velocity": 49,
              "position": 2,
              "duration": 0.020833333333333332
            },
            {
              "pitch": 33,
              "velocity": 45,
              "position": 2,
              "duration": 0.03125
            },
            {
              "pitch": 28,
              "velocity": 25,
              "position": 1,
              "duration": 1.5208333333333333
            },
            {
              "pitch": 27,
              "velocity": 83,
              "position": 2.6458333333333335,
              "duration": 0.020833333333333332
            },
            {
              "pitch": 27,
              "velocity": 53,
              "position": 3,
              "duration": 0.020833333333333332
            },
            {
              "pitch": 33,
              "velocity": 45,
              "position": 3,
              "duration": 0.03125
            },
            {
              "pitch": 44,
              "velocity": 51,
              "position": 3.0104166666666665,
              "duration": 0.052083333333333336
            },
            {
              "pitch": 27,
              "velocity": 40,
              "position": 3.6458333333333335,
              "duration": 0.020833333333333332
            },
            {
              "pitch": 27,
              "velocity": 49,
              "position": 4,
              "duration": 0.020833333333333332
            },
            {
              "pitch": 33,
              "velocity": 45,
              "position": 4,
              "duration": 0.03125
            },
            {
              "pitch": 28,
              "velocity": 25,
              "position": 3,
              "duration": 1.5208333333333333
            },
            {
              "pitch": 27,
              "velocity": 40,
              "position": 4.645833333333333,
              "duration": 0.020833333333333332
            },
            {
              "pitch": 27,
              "velocity": 97,
              "position": 5,
              "duration": 0.020833333333333332
            },
            {
              "pitch": 33,
              "velocity": 45,
              "position": 5,
              "duration": 0.03125
            },
            {
              "pitch": 44,
              "velocity": 51,
              "position": 5.010416666666667,
              "duration": 0.052083333333333336
            },
            {
              "pitch": 38,
              "velocity": 88,
              "position": 5.645833333333333,
              "duration": 0.020833333333333332
            },
            {
              "pitch": 27,
              "velocity": 57,
              "position": 6,
              "duration": 0.020833333333333332
            },
            {
              "pitch": 33,
              "velocity": 45,
              "position": 6,
              "duration": 0.03125
            },
            {
              "pitch": 28,
              "velocity": 30,
              "position": 5,
              "duration": 1.5208333333333333
            },
            {
              "pitch": 27,
              "velocity": 96,
              "position": 6.645833333333333,
              "duration": 0.020833333333333332
            },
            {
              "pitch": 27,
              "velocity": 88,
              "position": 7,
              "duration": 0.020833333333333332
            },
            {
              "pitch": 33,
              "velocity": 45,
              "position": 7,
              "duration": 0.03125
            },
            {
              "pitch": 44,
              "velocity": 51,
              "position": 7.010416666666667,
              "duration": 0.052083333333333336
            },
            {
              "pitch": 27,
              "velocity": 96,
              "position": 7.645833333333333,
              "duration": 0.020833333333333332
            },
            {
              "pitch": 25,
              "velocity": 78,
              "position": 8,
              "duration": 0.020833333333333332
            },
            {
              "pitch": 33,
              "velocity": 45,
              "position": 8,
              "duration": 0.03125
            },
            {
              "pitch": 59,
              "velocity": 60,
              "position": 8,
              "duration": 0.052083333333333336
            },
            {
              "pitch": 27,
              "velocity": 40,
              "position": 8.3875,
              "duration": 0.020833333333333332
            },
            {
              "pitch": 28,
              "velocity": 30,
              "position": 7,
              "duration": 1.5208333333333333
            },
            {
              "pitch": 27,
              "velocity": 40,
              "position": 8.6375,
              "duration": 0.020833333333333332
            },
            {
              "pitch": 25,
              "velocity": 78,
              "position": 8.991666666666667,
              "duration": 0.020833333333333332
            },
            {
              "pitch": 33,
              "velocity": 45,
              "position": 9,
              "duration": 0.03125
            },
            {
              "pitch": 27,
              "velocity": 40,
              "position": 9.377083333333333,
              "duration": 0.020833333333333332
            },
            {
              "pitch": 27,
              "velocity": 75,
              "position": 9.616666666666667,
              "duration": 0.020833333333333332
            },
            {
              "pitch": 31,
              "velocity": 58,
              "position": 9.989583333333334,
              "duration": 0.020833333333333332
            },
            {
              "pitch": 33,
              "velocity": 45,
              "position": 10,
              "duration": 0.03125
            },
            {
              "pitch": 27,
              "velocity": 40,
              "position": 10.366666666666667,
              "duration": 0.020833333333333332
            },
            {
              "pitch": 28,
              "velocity": 25,
              "position": 8.991666666666667,
              "duration": 1.5208333333333333
            },
            {
              "pitch": 27,
              "velocity": 61,
              "position": 10.625,
              "duration": 0.22916666666666666
            },
            {
              "pitch": 33,
              "velocity": 45,
              "position": 11,
              "duration": 0.03125
            },
            {
              "pitch": 25,
              "velocity": 78,
              "position": 11,
              "duration": 0.2604166666666667
            },
            {
              "pitch": 25,
              "velocity": 78,
              "position": 11.645833333333334,
              "duration": 0.020833333333333332
            },
            {
              "pitch": 27,
              "velocity": 109,
              "position": 12,
              "duration": 0.020833333333333332
            },
            {
              "pitch": 33,
              "velocity": 45,
              "position": 12,
              "duration": 0.03125
            },
            {
              "pitch": 44,
              "velocity": 51,
              "position": 12.002083333333333,
              "duration": 0.052083333333333336
            },
            {
              "pitch": 28,
              "velocity": 27,
              "position": 11,
              "duration": 1.5208333333333333
            },
            {
              "pitch": 25,
              "velocity": 70,
              "position": 12.666666666666666,
              "duration": 0.020833333333333332
            },
            {
              "pitch": 38,
              "velocity": 78,
              "position": 13,
              "duration": 0.020833333333333332
            },
            {
              "pitch": 40,
              "velocity": 94,
              "position": 13.645833333333334,
              "duration": 0.020833333333333332
            },
            {
              "pitch": 51,
              "velocity": 58,
              "position": 13.666666666666666,
              "duration": 0.010416666666666666
            },
            {
              "pitch": 33,
              "velocity": 45,
              "position": 13.666666666666666,
              "duration": 0.03125
            }
          ]
        },
        "10": {
          "ctab": {
            "srcChannel": 10,
            "name": "Bass 32",
            "accType": "BASS",
            "editable": false,
            "mutedNotes": [],
            "mutedChords": [
              "dim7",
              "dim",
              "minMaj7(9)",
              "minMaj7",
              "min7(11)",
              "min7(9)",
              "min(9)",
              "m7b5",
              "min7",
              "min6",
              "min"
            ],
            "autoStart": false,
            "sourceChordNote": 0,
            "sourceChordType": "Maj7",
            "ctb2Low": null,
            "ctb2Main": {
              "ntr": "ROOT_TRANSPOSITION",
              "ntt": "MELODIC_MINOR",
              "bassOn": false,
              "chordRootUpperLimit": 8,
              "noteLowLimit": 28,
              "noteHighLimit": 127,
              "rtr": "PITCH_SHIFT"
            },
            "ctb2High": null
          },
          "notes": [
            {
              "pitch": 36,
              "velocity": 74,
              "position": 0,
              "duration": 1
            },
            {
              "pitch": 33,
              "velocity": 70,
              "position": 2,
              "duration": 1
            },
            {
              "pitch": 38,
              "velocity": 82,
              "position": 4,
              "duration": 1
            },
            {
              "pitch": 31,
              "velocity": 82,
              "position": 5.666666666666667,
              "duration": 0.6666666666666666
            },
            {
              "pitch": 31,
              "velocity": 74,
              "position": 12,
              "duration": 1.65625
            },
            {
              "pitch": 36,
              "velocity": 76,
              "position": 13.666666666666666,
              "duration": 0.3333333333333333
            }
          ]
        },
        "11": {
          "ctab": {
            "srcChannel": 11,
            "name": "GTR26min",
            "accType": "CHORD1",
            "editable": false,
            "mutedNotes": [],
            "mutedChords": [
              "1+2+5",
              "sus4",
              "1+5",
              "1+8",
              "7aug",
              "Maj7aug",
              "7(#9)",
              "7(b13)",
              "7(b9)",
              "7(13)",
              "7#11",
              "7(9)",
              "7b5",
              "7sus4",
              "7th",
              "aug",
              "Maj6(9)",
              "Maj7(9)",
              "Maj(9)",
              "Maj7#11",
              "Maj7",
              "Maj6",
              "Maj"
            ],
            "autoStart": false,
            "sourceChordNote": 0,
            "sourceChordType": "min",
            "ctb2Low": null,
            "ctb2Main": {
              "ntr": "ROOT_TRANSPOSITION",
              "ntt": "BYPASS",
              "bassOn": false,
              "chordRootUpperLimit": 9,
              "noteLowLimit": 0,
              "noteHighLimit": 127,
              "rtr": "PITCH_SHIFT"
            },
            "ctb2High": null
          },
          "notes": [
            {
              "pitch": 48,
              "velocity": 100,
              "position": 0,
              "duration": 0.5104166666666666
            },
            {
              "pitch": 60,
              "velocity": 102,
              "position": 0.03125,
              "duration": 0.5104166666666666
            },
            {
              "pitch": 48,
              "velocity": 127,
              "position": 1,
              "duration": 0.6145833333333334
            },
            {
              "pitch": 60,
              "velocity": 127,
              "position": 1.03125,
              "duration": 0.6145833333333334
            },
            {
              "pitch": 51,
              "velocity": 96,
              "position": 2,
              "duration": 0.5833333333333334
            },
            {
              "pitch": 63,
              "velocity": 98,
              "position": 2.03125,
              "duration": 0.5833333333333334
            },
            {
              "pitch": 51,
              "velocity": 127,
              "position": 3,
              "duration": 0.5104166666666666
            },
            {
              "pitch": 63,
              "velocity": 127,
              "position": 3.03125,
              "duration": 0.5104166666666666
            },
            {
              "pitch": 54,
              "velocity": 94,
              "position": 4,
              "duration": 0.4270833333333333
            },
            {
              "pitch": 66,
              "velocity": 96,
              "position": 4.03125,
              "duration": 0.4270833333333333
            },
            {
              "pitch": 54,
              "velocity": 127,
              "position": 5,
              "duration": 0.6666666666666666
            },
            {
              "pitch": 66,
              "velocity": 127,
              "position": 5.03125,
              "duration": 0.6666666666666666
            },
            {
              "pitch": 55,
              "velocity": 127,
              "position": 5.666666666666667,
              "duration": 0.3333333333333333
            },
            {
              "pitch": 67,
              "velocity": 127,
              "position": 5.697916666666667,
              "duration": 0.3333333333333333
            },
            {
              "pitch": 72,
              "velocity": 127,
              "position": 11.666666666666666,
              "duration": 0.22916666666666666
            },
            {
              "pitch": 66,
              "velocity": 127,
              "position": 12,
              "duration": 0.65625
            },
            {
              "pitch": 65,
              "velocity": 117,
              "position": 12.666666666666666,
              "duration": 0.3333333333333333
            },
            {
              "pitch": 63,
              "velocity": 127,
              "position": 13,
              "duration": 0.65625
            },
            {
              "pitch": 60,
              "velocity": 127,
              "position": 13.666666666666666,
              "duration": 0.34375
            }
          ]
        },
        "12": {
          "ctab": {
            "srcChannel": 12,
            "name": "Nylonmaj",
            "accType": "CHORD2",
            "editable": false,
            "mutedNotes": [],
            "mutedChords": [
              "dim7",
              "dim",
              "minMaj7(9)",
              "minMaj7",
              "min7(11)",
              "min7(9)",
              "min(9)",
              "m7b5",
              "min7",
              "min6",
              "min"
            ],
            "autoStart": false,
            "sourceChordNote": 0,
            "sourceChordType": "Maj",
            "ctb2Low": null,
            "ctb2Main": {
              "ntr": "ROOT_TRANSPOSITION",
              "ntt": "BYPASS",
              "bassOn": false,
              "chordRootUpperLimit": 7,
              "noteLowLimit": 54,
              "noteHighLimit": 65,
              "rtr": "PITCH_SHIFT"
            },
            "ctb2High": null
          },
          "notes": [
            {
              "pitch": 60,
              "velocity": 51,
              "position": 0.03125,
              "duration": 0.4479166666666667
            },
            {
              "pitch": 57,
              "velocity": 35,
              "position": 0.020833333333333332,
              "duration": 0.4895833333333333
            },
            {
              "pitch": 55,
              "velocity": 35,
              "position": 0.010416666666666666,
              "duration": 0.5416666666666666
            },
            {
              "pitch": 52,
              "velocity": 26,
              "position": 0,
              "duration": 0.6041666666666666
            },
            {
              "pitch": 52,
              "velocity": 59,
              "position": 1,
              "duration": 0.25
            },
            {
              "pitch": 55,
              "velocity": 65,
              "position": 1.0104166666666667,
              "duration": 0.25
            },
            {
              "pitch": 57,
              "velocity": 65,
              "position": 1.0208333333333333,
              "duration": 0.25
            },
            {
              "pitch": 60,
              "velocity": 78,
              "position": 1.03125,
              "duration": 0.25
            },
            {
              "pitch": 58,
              "velocity": 35,
              "position": 2.0208333333333335,
              "duration": 0.53125
            },
            {
              "pitch": 61,
              "velocity": 51,
              "position": 2.03125,
              "duration": 0.5416666666666666
            },
            {
              "pitch": 52,
              "velocity": 26,
              "position": 2,
              "duration": 0.59375
            },
            {
              "pitch": 55,
              "velocity": 35,
              "position": 2.0104166666666665,
              "duration": 0.59375
            },
            {
              "pitch": 52,
              "velocity": 51,
              "position": 3,
              "duration": 0.25
            },
            {
              "pitch": 55,
              "velocity": 58,
              "position": 3.0104166666666665,
              "duration": 0.25
            },
            {
              "pitch": 58,
              "velocity": 58,
              "position": 3.0208333333333335,
              "duration": 0.25
            },
            {
              "pitch": 61,
              "velocity": 71,
              "position": 3.03125,
              "duration": 0.25
            },
            {
              "pitch": 53,
              "velocity": 26,
              "position": 4,
              "duration": 0.6666666666666666
            },
            {
              "pitch": 57,
              "velocity": 35,
              "position": 4.020833333333333,
              "duration": 0.6458333333333334
            },
            {
              "pitch": 62,
              "velocity": 51,
              "position": 4.03125,
              "duration": 0.6354166666666666
            },
            {
              "pitch": 60,
              "velocity": 35,
              "position": 4.010416666666667,
              "duration": 0.6666666666666666
            },
            {
              "pitch": 53,
              "velocity": 40,
              "position": 5,
              "duration": 0.65625
            },
            {
              "pitch": 57,
              "velocity": 48,
              "position": 5.020833333333333,
              "duration": 0.6354166666666666
            },
            {
              "pitch": 62,
              "velocity": 62,
              "position": 5.03125,
              "duration": 0.625
            },
            {
              "pitch": 60,
              "velocity": 48,
              "position": 5.010416666666667,
              "duration": 0.65625
            },
            {
              "pitch": 50,
              "velocity": 51,
              "position": 5.666666666666667,
              "duration": 0.3333333333333333
            },
            {
              "pitch": 55,
              "velocity": 66,
              "position": 5.677083333333333,
              "duration": 0.3333333333333333
            },
            {
              "pitch": 59,
              "velocity": 73,
              "position": 5.6875,
              "duration": 0.3333333333333333
            },
            {
              "pitch": 50,
              "velocity": 26,
              "position": 11.666666666666666,
              "duration": 0.3125
            },
            {
              "pitch": 55,
              "velocity": 35,
              "position": 11.6875,
              "duration": 0.2916666666666667
            },
            {
              "pitch": 59,
              "velocity": 51,
              "position": 11.677083333333334,
              "duration": 0.3125
            },
            {
              "pitch": 55,
              "velocity": 71,
              "position": 12.010416666666666,
              "duration": 0.9583333333333334
            },
            {
              "pitch": 50,
              "velocity": 65,
              "position": 12,
              "duration": 0.9791666666666666
            },
            {
              "pitch": 59,
              "velocity": 84,
              "position": 12.020833333333334,
              "duration": 0.96875
            },
            {
              "pitch": 55,
              "velocity": 56,
              "position": 13.010416666666666,
              "duration": 0.625
            },
            {
              "pitch": 50,
              "velocity": 49,
              "position": 13,
              "duration": 0.65625
            },
            {
              "pitch": 59,
              "velocity": 69,
              "position": 13.020833333333334,
              "duration": 0.65625
            },
            {
              "pitch": 52,
              "velocity": 59,
              "position": 13.666666666666666,
              "duration": 0.2708333333333333
            },
            {
              "pitch": 55,
              "velocity": 66,
              "position": 13.677083333333334,
              "duration": 0.28125
            },
            {
              "pitch": 60,
              "velocity": 79,
              "position": 13.6875,
              "duration": 0.28125
            }
          ]
        },
        "13": {
          "ctab": {
            "srcChannel": 13,
            "name": "Gtr26maj",
            "accType": "CHORD1",
            "editable": false,
            "mutedNotes": [],
            "mutedChords": [
              "dim7",
              "dim",
              "minMaj7(9)",
              "minMaj7",
              "min7(11)",
              "min7(9)",
              "min(9)",
              "m7b5",
              "min7",
              "min6",
              "min"
            ],
            "autoStart": false,
            "sourceChordNote": 0,
            "sourceChordType": "Maj",
            "ctb2Low": null,
            "ctb2Main": {
              "ntr": "ROOT_TRANSPOSITION",
              "ntt": "BYPASS",
              "bassOn": false,
              "chordRootUpperLimit": 9,
              "noteLowLimit": 0,
              "noteHighLimit": 127,
              "rtr": "PITCH_SHIFT"
            },
            "ctb2High": null
          },
          "notes": [
            {
              "pitch": 48,
              "velocity": 99,
              "position": 0,
              "duration": 0.5104166666666666
            },
            {
              "pitch": 60,
              "velocity": 101,
              "position": 0.03125,
              "duration": 0.5104166666666666
            },
            {
              "pitch": 48,
              "velocity": 127,
              "position": 1,
              "duration": 0.6145833333333334
            },
            {
              "pitch": 60,
              "velocity": 127,
              "position": 1.03125,
              "duration": 0.6145833333333334
            },
            {
              "pitch": 49,
              "velocity": 91,
              "position": 2,
              "duration": 0.5833333333333334
            },
            {
              "pitch": 61,
              "velocity": 93,
              "position": 2.03125,
              "duration": 0.5833333333333334
            },
            {
              "pitch": 49,
              "velocity": 127,
              "position": 3,
              "duration": 0.5104166666666666
            },
            {
              "pitch": 61,
              "velocity": 127,
              "position": 3.03125,
              "duration": 0.5104166666666666
            },
            {
              "pitch": 50,
              "velocity": 96,
              "position": 4,
              "duration": 0.4270833333333333
            },
            {
              "pitch": 62,
              "velocity": 98,
              "position": 4.03125,
              "duration": 0.4270833333333333
            },
            {
              "pitch": 50,
              "velocity": 127,
              "position": 5,
              "duration": 0.65625
            },
            {
              "pitch": 62,
              "velocity": 127,
              "position": 5.03125,
              "duration": 0.625
            },
            {
              "pitch": 55,
              "velocity": 127,
              "position": 5.666666666666667,
              "duration": 0.3333333333333333
            },
            {
              "pitch": 67,
              "velocity": 127,
              "position": 5.697916666666667,
              "duration": 0.3333333333333333
            },
            {
              "pitch": 55,
              "velocity": 127,
              "position": 12,
              "duration": 0.65625
            },
            {
              "pitch": 57,
              "velocity": 127,
              "position": 12.666666666666666,
              "duration": 0.3333333333333333
            },
            {
              "pitch": 59,
              "velocity": 127,
              "position": 13,
              "duration": 0.65625
            },
            {
              "pitch": 60,
              "velocity": 127,
              "position": 13.666666666666666,
              "duration": 0.34375
            }
          ]
        },
        "14": {
          "ctab": {
            "srcChannel": 14,
            "name": "Nylonmin",
            "accType": "CHORD2",
            "editable": false,
            "mutedNotes": [],
            "mutedChords": [
              "1+2+5",
              "sus4",
              "1+5",
              "1+8",
              "7aug",
              "Maj7aug",
              "7(#9)",
              "7(b13)",
              "7(b9)",
              "7(13)",
              "7#11",
              "7(9)",
              "7b5",
              "7sus4",
              "7th",
              "aug",
              "Maj6(9)",
              "Maj7(9)",
              "Maj(9)",
              "Maj7#11",
              "Maj7",
              "Maj6",
              "Maj"
            ],
            "autoStart": false,
            "sourceChordNote": 0,
            "sourceChordType": "min",
            "ctb2Low": null,
            "ctb2Main": {
              "ntr": "ROOT_TRANSPOSITION",
              "ntt": "BYPASS",
              "bassOn": false,
              "chordRootUpperLimit": 7,
              "noteLowLimit": 54,
              "noteHighLimit": 65,
              "rtr": "PITCH_SHIFT"
            },
            "ctb2High": null
          },
          "notes": [
            {
              "pitch": 60,
              "velocity": 51,
              "position": 0.020833333333333332,
              "duration": 0.4479166666666667
            },
            {
              "pitch": 55,
              "velocity": 35,
              "position": 0.010416666666666666,
              "duration": 0.5416666666666666
            },
            {
              "pitch": 51,
              "velocity": 26,
              "position": 0,
              "duration": 0.6041666666666666
            },
            {
              "pitch": 51,
              "velocity": 59,
              "position": 1,
              "duration": 0.25
            },
            {
              "pitch": 55,
              "velocity": 65,
              "position": 1.0104166666666667,
              "duration": 0.25
            },
            {
              "pitch": 60,
              "velocity": 78,
              "position": 1.0208333333333333,
              "duration": 0.25
            },
            {
              "pitch": 60,
              "velocity": 51,
              "position": 2.0208333333333335,
              "duration": 0.5416666666666666
            },
            {
              "pitch": 51,
              "velocity": 26,
              "position": 2,
              "duration": 0.59375
            },
            {
              "pitch": 55,
              "velocity": 35,
              "position": 2.0104166666666665,
              "duration": 0.59375
            },
            {
              "pitch": 51,
              "velocity": 51,
              "position": 3,
              "duration": 0.25
            },
            {
              "pitch": 55,
              "velocity": 58,
              "position": 3.0104166666666665,
              "duration": 0.25
            },
            {
              "pitch": 60,
              "velocity": 71,
              "position": 3.0208333333333335,
              "duration": 0.25
            },
            {
              "pitch": 60,
              "velocity": 51,
              "position": 4.010416666666667,
              "duration": 0.6354166666666666
            },
            {
              "pitch": 54,
              "velocity": 26,
              "position": 4,
              "duration": 0.6666666666666666
            },
            {
              "pitch": 56,
              "velocity": 35,
              "position": 4.020833333333333,
              "duration": 0.6458333333333334
            },
            {
              "pitch": 56,
              "velocity": 48,
              "position": 5.010416666666667,
              "duration": 0.6354166666666666
            },
            {
              "pitch": 60,
              "velocity": 62,
              "position": 5.020833333333333,
              "duration": 0.625
            },
            {
              "pitch": 54,
              "velocity": 40,
              "position": 5,
              "duration": 0.65625
            },
            {
              "pitch": 53,
              "velocity": 73,
              "position": 5.666666666666667,
              "duration": 0.3333333333333333
            },
            {
              "pitch": 50,
              "velocity": 51,
              "position": 5.677083333333333,
              "duration": 0.3333333333333333
            },
            {
              "pitch": 59,
              "velocity": 79,
              "position": 5.6875,
              "duration": 0.3333333333333333
            },
            {
              "pitch": 55,
              "velocity": 35,
              "position": 11.6875,
              "duration": 0.2916666666666667
            },
            {
              "pitch": 50,
              "velocity": 26,
              "position": 11.666666666666666,
              "duration": 0.3229166666666667
            },
            {
              "pitch": 59,
              "velocity": 51,
              "position": 11.677083333333334,
              "duration": 0.3125
            },
            {
              "pitch": 50,
              "velocity": 65,
              "position": 12,
              "duration": 0.9895833333333334
            },
            {
              "pitch": 59,
              "velocity": 84,
              "position": 12.020833333333334,
              "duration": 0.96875
            },
            {
              "pitch": 55,
              "velocity": 71,
              "position": 12.010416666666666,
              "duration": 0.9895833333333334
            },
            {
              "pitch": 55,
              "velocity": 56,
              "position": 13.010416666666666,
              "duration": 0.625
            },
            {
              "pitch": 50,
              "velocity": 49,
              "position": 13,
              "duration": 0.65625
            },
            {
              "pitch": 59,
              "velocity": 69,
              "position": 13.020833333333334,
              "duration": 0.65625
            },
            {
              "pitch": 51,
              "velocity": 59,
              "position": 13.666666666666666,
              "duration": 0.2708333333333333
            },
            {
              "pitch": 55,
              "velocity": 66,
              "position": 13.677083333333334,
              "duration": 0.28125
            },
            {
              "pitch": 60,
              "velocity": 79,
              "position": 13.6875,
              "duration": 0.28125
            }
          ]
        }
      }
    },
    "Intro_C": {
      "type": "Intro_C",
      "sizeInBeats": 16,
      "channels": {
        "9": {
          "ctab": {
            "srcChannel": 9,
            "name": "Brush",
            "accType": "RHYTHM",
            "editable": false,
            "mutedNotes": [],
            "mutedChords": [],
            "autoStart": true,
            "sourceChordNote": 0,
            "sourceChordType": "Maj7",
            "ctb2Low": null,
            "ctb2Main": {
              "ntr": "ROOT_FIXED",
              "ntt": "BYPASS",
              "bassOn": false,
              "chordRootUpperLimit": 6,
              "noteLowLimit": 0,
              "noteHighLimit": 127,
              "rtr": "PITCH_SHIFT"
            },
            "ctb2High": null
          },
          "notes": [
            {
              "pitch": 33,
              "velocity": 45,
              "position": 0,
              "duration": 0.03125
            },
            {
              "pitch": 44,
              "velocity": 51,
              "position": 1.0104166666666667,
              "duration": 0.052083333333333336
            },
            {
              "pitch": 33,
              "velocity": 37,
              "position": 2,
              "duration": 0.03125
            },
            {
              "pitch": 44,
              "velocity": 51,
              "position": 3.0104166666666665,
              "duration": 0.052083333333333336
            },
            {
              "pitch": 33,
              "velocity": 45,
              "position": 4,
              "duration": 0.03125
            },
            {
              "pitch": 44,
              "velocity": 51,
              "position": 5.010416666666667,
              "duration": 0.052083333333333336
            },
            {
              "pitch": 33,
              "velocity": 37,
              "position": 6,
              "duration": 0.03125
            },
            {
              "pitch": 44,
              "velocity": 51,
              "position": 7.010416666666667,
              "duration": 0.052083333333333336
            },
            {
              "pitch": 33,
              "velocity": 45,
              "position": 8,
              "duration": 0.03125
            },
            {
              "pitch": 44,
              "velocity": 51,
              "position": 9.010416666666666,
              "duration": 0.052083333333333336
            },
            {
              "pitch": 33,
              "velocity": 37,
              "position": 10,
              "duration": 0.03125
            },
            {
              "pitch": 44,
              "velocity": 51,
              "position": 11.010416666666666,
              "duration": 0.052083333333333336
            },
            {
              "pitch": 33,
              "velocity": 45,
              "position": 11.666666666666666,
              "duration": 0.03125
            },
            {
              "pitch": 59,
              "velocity": 46,
              "position": 11.666666666666666,
              "duration": 0.125
            },
            {
              "pitch": 40,
              "velocity": 76,
              "position": 12,
              "duration": 0.020833333333333332
            },
            {
              "pitch": 27,
              "velocity": 76,
              "position": 12.645833333333334,
              "duration": 0.020833333333333332
            },
            {
              "pitch": 38,
              "velocity": 80,
              "position": 13,
              "duration": 0.020833333333333332
            },
            {
              "pitch": 28,
              "velocity": 41,
              "position": 13,
              "duration": 0.5208333333333334
            },
            {
              "pitch": 45,
              "velocity": 39,
              "position": 13.645833333333334,
              "duration": 0.020833333333333332
            },
            {
              "pitch": 27,
              "velocity": 22,
              "position": 14,
              "duration": 0.020833333333333332
            },
            {
              "pitch": 27,
              "velocity": 22,
              "position": 14.333333333333334,
              "duration": 0.020833333333333332
            },
            {
              "pitch": 27,
              "velocity": 84,
              "position": 14.666666666666666,
              "duration": 0.020833333333333332
            },
            {
              "pitch": 43,
              "velocity": 53,
              "position": 15,
              "duration": 0.020833333333333332
            },
            {
              "pitch": 44,
              "velocity": 51,
              "position": 15,
              "duration": 0.052083333333333336
            },
            {
              "pitch": 26,
              "velocity": 55,
              "position": 15,
              "duration": 0.5208333333333334
            },
            {
              "pitch": 25,
              "velocity": 41,
              "position": 15.645833333333334,
              "duration": 0.020833333333333332
            }
          ]
        },
        "10": {
          "ctab": {
            "srcChannel": 10,
            "name": "Bass 32",
            "accType": "BASS",
            "editable": false,
            "mutedNotes": [],
            "mutedChords": [],
            "autoStart": false,
            "sourceChordNote": 0,
            "sourceChordType": "Maj7",
            "ctb2Low": null,
            "ctb2Main": {
              "ntr": "ROOT_TRANSPOSITION",
              "ntt": "BYPASS",
              "bassOn": false,
              "chordRootUpperLimit": 8,
              "noteLowLimit": 28,
              "noteHighLimit": 127,
              "rtr": "PITCH_SHIFT"
            },
            "ctb2High": null
          },
          "notes": [
            {
              "pitch": 36,
              "velocity": 76,
              "position": 0,
              "duration": 1
            },
            {
              "pitch": 35,
              "velocity": 70,
              "position": 2,
              "duration": 1
            },
            {
              "pitch": 34,
              "velocity": 65,
              "position": 4,
              "duration": 1
            },
            {
              "pitch": 33,
              "velocity": 65,
              "position": 6,
              "duration": 1
            },
            {
              "pitch": 38,
              "velocity": 74,
              "position": 8,
              "duration": 1.1875
            },
            {
              "pitch": 38,
              "velocity": 40,
              "position": 9.5,
              "duration": 0.16666666666666666
            },
            {
              "pitch": 31,
              "velocity": 60,
              "position": 10,
              "duration": 1.65625
            },
            {
              "pitch": 36,
              "velocity": 74,
              "position": 11.666666666666666,
              "duration": 0.6666666666666666
            }
          ]
        },
        "11": {
          "ctab": {
            "srcChannel": 11,
            "name": "GTR26min",
            "accType": "CHORD1",
            "editable": false,
            "mutedNotes": [],
            "mutedChords": [
              "1+2+5",
              "sus4",
              "1+5",
              "1+8",
              "7aug",
              "Maj7aug",
              "7(#9)",
              "7(b13)",
              "7(b9)",
              "7(13)",
              "7#11",
              "7(9)",
              "7b5",
              "7sus4",
              "7th",
              "aug",
              "Maj6(9)",
              "Maj7(9)",
              "Maj(9)",
              "Maj7#11",
              "Maj7",
              "Maj6",
              "Maj"
            ],
            "autoStart": false,
            "sourceChordNote": 0,
            "sourceChordType": "min",
            "ctb2Low": null,
            "ctb2Main": {
              "ntr": "ROOT_TRANSPOSITION",
              "ntt": "BYPASS",
              "bassOn": false,
              "chordRootUpperLimit": 9,
              "noteLowLimit": 0,
              "noteHighLimit": 127,
              "rtr": "PITCH_SHIFT"
            },
            "ctb2High": null
          },
          "notes": [
            {
              "pitch": 60,
              "velocity": 76,
              "position": 0,
              "duration": 0.9791666666666666
            },
            {
              "pitch": 63,
              "velocity": 76,
              "position": 0.010416666666666666,
              "duration": 0.9791666666666666
            },
            {
              "pitch": 67,
              "velocity": 80,
              "position": 0.020833333333333332,
              "duration": 0.9791666666666666
            },
            {
              "pitch": 60,
              "velocity": 108,
              "position": 1,
              "duration": 0.25
            },
            {
              "pitch": 63,
              "velocity": 108,
              "position": 1.0104166666666667,
              "duration": 0.25
            },
            {
              "pitch": 67,
              "velocity": 112,
              "position": 1.0208333333333333,
              "duration": 0.25
            },
            {
              "pitch": 59,
              "velocity": 80,
              "position": 2,
              "duration": 0.9791666666666666
            },
            {
              "pitch": 63,
              "velocity": 76,
              "position": 2.0104166666666665,
              "duration": 0.9791666666666666
            },
            {
              "pitch": 67,
              "velocity": 76,
              "position": 2.0208333333333335,
              "duration": 0.9791666666666666
            },
            {
              "pitch": 59,
              "velocity": 112,
              "position": 3,
              "duration": 0.25
            },
            {
              "pitch": 63,
              "velocity": 108,
              "position": 3.0104166666666665,
              "duration": 0.25
            },
            {
              "pitch": 67,
              "velocity": 108,
              "position": 3.0208333333333335,
              "duration": 0.25
            },
            {
              "pitch": 58,
              "velocity": 80,
              "position": 4,
              "duration": 0.9479166666666666
            },
            {
              "pitch": 63,
              "velocity": 76,
              "position": 4.010416666666667,
              "duration": 0.9791666666666666
            },
            {
              "pitch": 67,
              "velocity": 76,
              "position": 4.020833333333333,
              "duration": 0.9791666666666666
            },
            {
              "pitch": 58,
              "velocity": 112,
              "position": 5,
              "duration": 0.25
            },
            {
              "pitch": 63,
              "velocity": 108,
              "position": 5.010416666666667,
              "duration": 0.25
            },
            {
              "pitch": 67,
              "velocity": 108,
              "position": 5.020833333333333,
              "duration": 0.25
            },
            {
              "pitch": 57,
              "velocity": 80,
              "position": 6,
              "duration": 0.9791666666666666
            },
            {
              "pitch": 63,
              "velocity": 76,
              "position": 6.010416666666667,
              "duration": 0.9791666666666666
            },
            {
              "pitch": 67,
              "velocity": 76,
              "position": 6.020833333333333,
              "duration": 0.9791666666666666
            },
            {
              "pitch": 57,
              "velocity": 112,
              "position": 7,
              "duration": 0.25
            },
            {
              "pitch": 63,
              "velocity": 108,
              "position": 7.010416666666667,
              "duration": 0.25
            },
            {
              "pitch": 67,
              "velocity": 108,
              "position": 7.020833333333333,
              "duration": 0.25
            },
            {
              "pitch": 56,
              "velocity": 97,
              "position": 8,
              "duration": 0.9791666666666666
            },
            {
              "pitch": 62,
              "velocity": 92,
              "position": 8.010416666666666,
              "duration": 0.9791666666666666
            },
            {
              "pitch": 65,
              "velocity": 92,
              "position": 8.020833333333334,
              "duration": 0.9791666666666666
            },
            {
              "pitch": 56,
              "velocity": 105,
              "position": 9,
              "duration": 0.25
            },
            {
              "pitch": 62,
              "velocity": 100,
              "position": 9.010416666666666,
              "duration": 0.25
            },
            {
              "pitch": 65,
              "velocity": 100,
              "position": 9.020833333333334,
              "duration": 0.25
            },
            {
              "pitch": 59,
              "velocity": 80,
              "position": 10,
              "duration": 0.65625
            },
            {
              "pitch": 62,
              "velocity": 76,
              "position": 10.010416666666666,
              "duration": 0.65625
            },
            {
              "pitch": 65,
              "velocity": 76,
              "position": 10.020833333333334,
              "duration": 0.6458333333333334
            },
            {
              "pitch": 59,
              "velocity": 112,
              "position": 10.666666666666666,
              "duration": 0.3333333333333333
            },
            {
              "pitch": 62,
              "velocity": 108,
              "position": 10.677083333333334,
              "duration": 0.3333333333333333
            },
            {
              "pitch": 65,
              "velocity": 108,
              "position": 10.6875,
              "duration": 0.3333333333333333
            },
            {
              "pitch": 55,
              "velocity": 108,
              "position": 11.677083333333334,
              "duration": 0.2604166666666667
            },
            {
              "pitch": 60,
              "velocity": 108,
              "position": 11.666666666666666,
              "duration": 0.2916666666666667
            },
            {
              "pitch": 63,
              "velocity": 108,
              "position": 11.741666666666667,
              "duration": 0.23958333333333334
            }
          ]
        },
        "12": {
          "ctab": {
            "srcChannel": 12,
            "name": "Nylonmaj",
            "accType": "CHORD2",
            "editable": false,
            "mutedNotes": [],
            "mutedChords": [
              "dim7",
              "dim",
              "minMaj7(9)",
              "minMaj7",
              "min7(11)",
              "min7(9)",
              "min(9)",
              "m7b5",
              "min7",
              "min6",
              "min"
            ],
            "autoStart": false,
            "sourceChordNote": 0,
            "sourceChordType": "Maj",
            "ctb2Low": null,
            "ctb2Main": {
              "ntr": "ROOT_TRANSPOSITION",
              "ntt": "BYPASS",
              "bassOn": false,
              "chordRootUpperLimit": 9,
              "noteLowLimit": 54,
              "noteHighLimit": 65,
              "rtr": "PITCH_SHIFT"
            },
            "ctb2High": null
          },
          "notes": [
            {
              "pitch": 55,
              "velocity": 39,
              "position": 0,
              "duration": 0.9791666666666666
            },
            {
              "pitch": 60,
              "velocity": 42,
              "position": 0.010416666666666666,
              "duration": 0.9791666666666666
            },
            {
              "pitch": 64,
              "velocity": 52,
              "position": 0.020833333333333332,
              "duration": 0.9791666666666666
            },
            {
              "pitch": 55,
              "velocity": 63,
              "position": 1,
              "duration": 0.25
            },
            {
              "pitch": 60,
              "velocity": 65,
              "position": 1.0104166666666667,
              "duration": 0.25
            },
            {
              "pitch": 64,
              "velocity": 74,
              "position": 1.0208333333333333,
              "duration": 0.25
            },
            {
              "pitch": 54,
              "velocity": 39,
              "position": 2,
              "duration": 0.9791666666666666
            },
            {
              "pitch": 59,
              "velocity": 42,
              "position": 2.0104166666666665,
              "duration": 0.9791666666666666
            },
            {
              "pitch": 63,
              "velocity": 52,
              "position": 2.0208333333333335,
              "duration": 0.9791666666666666
            },
            {
              "pitch": 54,
              "velocity": 63,
              "position": 3,
              "duration": 0.25
            },
            {
              "pitch": 59,
              "velocity": 65,
              "position": 3.0104166666666665,
              "duration": 0.25
            },
            {
              "pitch": 63,
              "velocity": 74,
              "position": 3.0208333333333335,
              "duration": 0.25
            },
            {
              "pitch": 53,
              "velocity": 39,
              "position": 4,
              "duration": 0.9791666666666666
            },
            {
              "pitch": 58,
              "velocity": 42,
              "position": 4.010416666666667,
              "duration": 0.9791666666666666
            },
            {
              "pitch": 62,
              "velocity": 52,
              "position": 4.020833333333333,
              "duration": 0.9791666666666666
            },
            {
              "pitch": 53,
              "velocity": 63,
              "position": 5,
              "duration": 0.25
            },
            {
              "pitch": 58,
              "velocity": 65,
              "position": 5.010416666666667,
              "duration": 0.25
            },
            {
              "pitch": 62,
              "velocity": 74,
              "position": 5.020833333333333,
              "duration": 0.25
            },
            {
              "pitch": 52,
              "velocity": 39,
              "position": 6,
              "duration": 0.9791666666666666
            },
            {
              "pitch": 57,
              "velocity": 42,
              "position": 6.010416666666667,
              "duration": 0.9791666666666666
            },
            {
              "pitch": 61,
              "velocity": 52,
              "position": 6.020833333333333,
              "duration": 0.9791666666666666
            },
            {
              "pitch": 52,
              "velocity": 63,
              "position": 7,
              "duration": 0.25
            },
            {
              "pitch": 57,
              "velocity": 65,
              "position": 7.010416666666667,
              "duration": 0.25
            },
            {
              "pitch": 61,
              "velocity": 74,
              "position": 7.020833333333333,
              "duration": 0.25
            },
            {
              "pitch": 57,
              "velocity": 47,
              "position": 8,
              "duration": 0.9791666666666666
            },
            {
              "pitch": 62,
              "velocity": 50,
              "position": 8.010416666666666,
              "duration": 0.9791666666666666
            },
            {
              "pitch": 66,
              "velocity": 52,
              "position": 8.020833333333334,
              "duration": 0.9791666666666666
            },
            {
              "pitch": 57,
              "velocity": 69,
              "position": 9,
              "duration": 0.25
            },
            {
              "pitch": 62,
              "velocity": 72,
              "position": 9.010416666666666,
              "duration": 0.25
            },
            {
              "pitch": 66,
              "velocity": 74,
              "position": 9.020833333333334,
              "duration": 0.25
            },
            {
              "pitch": 65,
              "velocity": 52,
              "position": 10.010416666666666,
              "duration": 0.6354166666666666
            },
            {
              "pitch": 55,
              "velocity": 28,
              "position": 10,
              "duration": 0.65625
            },
            {
              "pitch": 59,
              "velocity": 42,
              "position": 10.020833333333334,
              "duration": 0.6458333333333334
            },
            {
              "pitch": 55,
              "velocity": 54,
              "position": 10.666666666666666,
              "duration": 0.3333333333333333
            },
            {
              "pitch": 65,
              "velocity": 74,
              "position": 10.677083333333334,
              "duration": 0.3333333333333333
            },
            {
              "pitch": 59,
              "velocity": 65,
              "position": 10.6875,
              "duration": 0.3333333333333333
            },
            {
              "pitch": 55,
              "velocity": 54,
              "position": 11.666666666666666,
              "duration": 0.2604166666666667
            },
            {
              "pitch": 60,
              "velocity": 61,
              "position": 11.677083333333334,
              "duration": 0.3020833333333333
            },
            {
              "pitch": 64,
              "velocity": 74,
              "position": 11.6875,
              "duration": 0.2916666666666667
            }
          ]
        },
        "13": {
          "ctab": {
            "srcChannel": 13,
            "name": "Gtr26maj",
            "accType": "CHORD1",
            "editable": false,
            "mutedNotes": [],
            "mutedChords": [
              "dim7",
              "dim",
              "minMaj7(9)",
              "minMaj7",
              "min7(11)",
              "min7(9)",
              "min(9)",
              "m7b5",
              "min7",
              "min6",
              "min"
            ],
            "autoStart": false,
            "sourceChordNote": 0,
            "sourceChordType": "Maj",
            "ctb2Low": null,
            "ctb2Main": {
              "ntr": "ROOT_TRANSPOSITION",
              "ntt": "BYPASS",
              "bassOn": false,
              "chordRootUpperLimit": 9,
              "noteLowLimit": 0,
              "noteHighLimit": 127,
              "rtr": "PITCH_SHIFT"
            },
            "ctb2High": null
          },
          "notes": [
            {
              "pitch": 52,
              "velocity": 74,
              "position": 0,
              "duration": 0.9791666666666666
            },
            {
              "pitch": 58,
              "velocity": 74,
              "position": 0,
              "duration": 0.9791666666666666
            },
            {
              "pitch": 67,
              "velocity": 82,
              "position": 0.010416666666666666,
              "duration": 0.9791666666666666
            },
            {
              "pitch": 62,
              "velocity": 78,
              "position": 0.020833333333333332,
              "duration": 0.9791666666666666
            },
            {
              "pitch": 52,
              "velocity": 105,
              "position": 1,
              "duration": 0.25
            },
            {
              "pitch": 58,
              "velocity": 105,
              "position": 1,
              "duration": 0.25
            },
            {
              "pitch": 67,
              "velocity": 114,
              "position": 1.0104166666666667,
              "duration": 0.25
            },
            {
              "pitch": 62,
              "velocity": 110,
              "position": 1.0208333333333333,
              "duration": 0.25
            },
            {
              "pitch": 51,
              "velocity": 74,
              "position": 2,
              "duration": 0.9791666666666666
            },
            {
              "pitch": 57,
              "velocity": 74,
              "position": 2,
              "duration": 0.9791666666666666
            },
            {
              "pitch": 66,
              "velocity": 82,
              "position": 2.0104166666666665,
              "duration": 0.9791666666666666
            },
            {
              "pitch": 61,
              "velocity": 78,
              "position": 2.0208333333333335,
              "duration": 0.9791666666666666
            },
            {
              "pitch": 51,
              "velocity": 105,
              "position": 3,
              "duration": 0.25
            },
            {
              "pitch": 57,
              "velocity": 105,
              "position": 3,
              "duration": 0.25
            },
            {
              "pitch": 66,
              "velocity": 114,
              "position": 3.0104166666666665,
              "duration": 0.25
            },
            {
              "pitch": 61,
              "velocity": 110,
              "position": 3.0208333333333335,
              "duration": 0.25
            },
            {
              "pitch": 60,
              "velocity": 78,
              "position": 4.020833333333333,
              "duration": 0.9375
            },
            {
              "pitch": 50,
              "velocity": 74,
              "position": 4,
              "duration": 0.9791666666666666
            },
            {
              "pitch": 56,
              "velocity": 74,
              "position": 4,
              "duration": 0.9791666666666666
            },
            {
              "pitch": 65,
              "velocity": 82,
              "position": 4.010416666666667,
              "duration": 0.9791666666666666
            },
            {
              "pitch": 50,
              "velocity": 105,
              "position": 5,
              "duration": 0.25
            },
            {
              "pitch": 60,
              "velocity": 110,
              "position": 5,
              "duration": 0.25
            },
            {
              "pitch": 56,
              "velocity": 105,
              "position": 5.010416666666667,
              "duration": 0.25
            },
            {
              "pitch": 65,
              "velocity": 114,
              "position": 5.020833333333333,
              "duration": 0.25
            },
            {
              "pitch": 49,
              "velocity": 74,
              "position": 6,
              "duration": 0.9791666666666666
            },
            {
              "pitch": 55,
              "velocity": 74,
              "position": 6,
              "duration": 0.9791666666666666
            },
            {
              "pitch": 64,
              "velocity": 82,
              "position": 6.010416666666667,
              "duration": 0.9791666666666666
            },
            {
              "pitch": 59,
              "velocity": 78,
              "position": 6.020833333333333,
              "duration": 0.9791666666666666
            },
            {
              "pitch": 49,
              "velocity": 105,
              "position": 7,
              "duration": 0.25
            },
            {
              "pitch": 55,
              "velocity": 105,
              "position": 7,
              "duration": 0.25
            },
            {
              "pitch": 64,
              "velocity": 99,
              "position": 7.010416666666667,
              "duration": 0.25
            },
            {
              "pitch": 59,
              "velocity": 110,
              "position": 7.020833333333333,
              "duration": 0.25
            },
            {
              "pitch": 50,
              "velocity": 90,
              "position": 8,
              "duration": 0.9791666666666666
            },
            {
              "pitch": 54,
              "velocity": 90,
              "position": 8,
              "duration": 0.9791666666666666
            },
            {
              "pitch": 64,
              "velocity": 99,
              "position": 8.010416666666666,
              "duration": 0.9791666666666666
            },
            {
              "pitch": 60,
              "velocity": 95,
              "position": 8.020833333333334,
              "duration": 0.9791666666666666
            },
            {
              "pitch": 50,
              "velocity": 98,
              "position": 9,
              "duration": 0.25
            },
            {
              "pitch": 54,
              "velocity": 98,
              "position": 9,
              "duration": 0.25
            },
            {
              "pitch": 64,
              "velocity": 107,
              "position": 9.010416666666666,
              "duration": 0.25
            },
            {
              "pitch": 60,
              "velocity": 103,
              "position": 9.020833333333334,
              "duration": 0.25
            },
            {
              "pitch": 53,
              "velocity": 74,
              "position": 10,
              "duration": 0.6458333333333334
            },
            {
              "pitch": 64,
              "velocity": 82,
              "position": 10.010416666666666,
              "duration": 0.6354166666666666
            },
            {
              "pitch": 59,
              "velocity": 78,
              "position": 10.020833333333334,
              "duration": 0.625
            },
            {
              "pitch": 50,
              "velocity": 74,
              "position": 10,
              "duration": 0.65625
            },
            {
              "pitch": 50,
              "velocity": 111,
              "position": 10.666666666666666,
              "duration": 0.3333333333333333
            },
            {
              "pitch": 53,
              "velocity": 111,
              "position": 10.666666666666666,
              "duration": 0.3333333333333333
            },
            {
              "pitch": 64,
              "velocity": 110,
              "position": 10.677083333333334,
              "duration": 0.3333333333333333
            },
            {
              "pitch": 59,
              "velocity": 104,
              "position": 10.6875,
              "duration": 0.3333333333333333
            },
            {
              "pitch": 52,
              "velocity": 105,
              "position": 11.666666666666666,
              "duration": 0.2604166666666667
            },
            {
              "pitch": 55,
              "velocity": 105,
              "position": 11.666666666666666,
              "duration": 0.2604166666666667
            },
            {
              "pitch": 57,
              "velocity": 105,
              "position": 11.677083333333334,
              "duration": 0.3020833333333333
            },
            {
              "pitch": 60,
              "velocity": 105,
              "position": 11.6875,
              "duration": 0.2916666666666667
            }
          ]
        },
        "14": {
          "ctab": {
            "srcChannel": 14,
            "name": "Nylonmin",
            "accType": "CHORD2",
            "editable": false,
            "mutedNotes": [],
            "mutedChords": [
              "1+2+5",
              "sus4",
              "1+5",
              "1+8",
              "7aug",
              "Maj7aug",
              "7(#9)",
              "7(b13)",
              "7(b9)",
              "7(13)",
              "7#11",
              "7(9)",
              "7b5",
              "7sus4",
              "7th",
              "aug",
              "Maj6(9)",
              "Maj7(9)",
              "Maj(9)",
              "Maj7#11",
              "Maj7",
              "Maj6",
              "Maj"
            ],
            "autoStart": false,
            "sourceChordNote": 0,
            "sourceChordType": "min",
            "ctb2Low": null,
            "ctb2Main": {
              "ntr": "ROOT_TRANSPOSITION",
              "ntt": "BYPASS",
              "bassOn": false,
              "chordRootUpperLimit": 9,
              "noteLowLimit": 54,
              "noteHighLimit": 65,
              "rtr": "PITCH_SHIFT"
            },
            "ctb2High": null
          },
          "notes": [
            {
              "pitch": 55,
              "velocity": 19,
              "position": 0,
              "duration": 0.84375
            },
            {
              "pitch": 60,
              "velocity": 28,
              "position": 0.010416666666666666,
              "duration": 0.84375
            },
            {
              "pitch": 63,
              "velocity": 45,
              "position": 0.020833333333333332,
              "duration": 0.84375
            },
            {
              "pitch": 55,
              "velocity": 54,
              "position": 1,
              "duration": 0.25
            },
            {
              "pitch": 60,
              "velocity": 47,
              "position": 1.0104166666666667,
              "duration": 0.25
            },
            {
              "pitch": 63,
              "velocity": 70,
              "position": 1.0208333333333333,
              "duration": 0.25
            },
            {
              "pitch": 55,
              "velocity": 19,
              "position": 2,
              "duration": 0.84375
            },
            {
              "pitch": 59,
              "velocity": 28,
              "position": 2.0104166666666665,
              "duration": 0.84375
            },
            {
              "pitch": 63,
              "velocity": 45,
              "position": 2.0208333333333335,
              "duration": 0.84375
            },
            {
              "pitch": 55,
              "velocity": 50,
              "position": 3,
              "duration": 0.25
            },
            {
              "pitch": 59,
              "velocity": 59,
              "position": 3.0104166666666665,
              "duration": 0.25
            },
            {
              "pitch": 63,
              "velocity": 73,
              "position": 3.0208333333333335,
              "duration": 0.25
            },
            {
              "pitch": 55,
              "velocity": 19,
              "position": 4,
              "duration": 0.84375
            },
            {
              "pitch": 58,
              "velocity": 28,
              "position": 4.010416666666667,
              "duration": 0.84375
            },
            {
              "pitch": 63,
              "velocity": 45,
              "position": 4.020833333333333,
              "duration": 0.84375
            },
            {
              "pitch": 63,
              "velocity": 73,
              "position": 5.020833333333333,
              "duration": 0.28125
            },
            {
              "pitch": 55,
              "velocity": 59,
              "position": 5,
              "duration": 0.34375
            },
            {
              "pitch": 58,
              "velocity": 69,
              "position": 5.010416666666667,
              "duration": 0.3645833333333333
            },
            {
              "pitch": 55,
              "velocity": 30,
              "position": 5.666666666666667,
              "duration": 0.9583333333333334
            },
            {
              "pitch": 57,
              "velocity": 54,
              "position": 5.677083333333333,
              "duration": 0.9583333333333334
            },
            {
              "pitch": 63,
              "velocity": 56,
              "position": 5.6875,
              "duration": 0.9583333333333334
            },
            {
              "pitch": 55,
              "velocity": 20,
              "position": 6.666666666666667,
              "duration": 0.3125
            },
            {
              "pitch": 57,
              "velocity": 27,
              "position": 6.677083333333333,
              "duration": 0.3125
            },
            {
              "pitch": 63,
              "velocity": 46,
              "position": 6.6875,
              "duration": 0.3125
            },
            {
              "pitch": 55,
              "velocity": 52,
              "position": 7,
              "duration": 0.4375
            },
            {
              "pitch": 57,
              "velocity": 67,
              "position": 7.010416666666667,
              "duration": 0.5
            },
            {
              "pitch": 63,
              "velocity": 69,
              "position": 7.020833333333333,
              "duration": 0.5
            },
            {
              "pitch": 53,
              "velocity": 19,
              "position": 8,
              "duration": 0.84375
            },
            {
              "pitch": 56,
              "velocity": 28,
              "position": 8.010416666666666,
              "duration": 0.84375
            },
            {
              "pitch": 62,
              "velocity": 45,
              "position": 8.020833333333334,
              "duration": 0.84375
            },
            {
              "pitch": 53,
              "velocity": 56,
              "position": 9,
              "duration": 0.25
            },
            {
              "pitch": 56,
              "velocity": 63,
              "position": 9.010416666666666,
              "duration": 0.25
            },
            {
              "pitch": 62,
              "velocity": 76,
              "position": 9.020833333333334,
              "duration": 0.25
            },
            {
              "pitch": 59,
              "velocity": 28,
              "position": 10.010416666666666,
              "duration": 0.6354166666666666
            },
            {
              "pitch": 62,
              "velocity": 45,
              "position": 10.020833333333334,
              "duration": 0.625
            },
            {
              "pitch": 55,
              "velocity": 19,
              "position": 10,
              "duration": 0.65625
            },
            {
              "pitch": 55,
              "velocity": 39,
              "position": 10.666666666666666,
              "duration": 0.3333333333333333
            },
            {
              "pitch": 59,
              "velocity": 47,
              "position": 10.677083333333334,
              "duration": 0.3333333333333333
            },
            {
              "pitch": 62,
              "velocity": 61,
              "position": 10.6875,
              "duration": 0.3333333333333333
            },
            {
              "pitch": 55,
              "velocity": 52,
              "position": 11.666666666666666,
              "duration": 0.25
            },
            {
              "pitch": 60,
              "velocity": 59,
              "position": 11.677083333333334,
              "duration": 0.25
            },
            {
              "pitch": 63,
              "velocity": 73,
              "position": 11.6875,
              "duration": 0.25
            }
          ]
        }
      }
    },
    "Ending_C": {
      "type": "Ending_C",
      "sizeInBeats": 16,
      "channels": {
        "8": {
          "ctab": {
            "srcChannel": 8,
            "name": "Brush",
            "accType": "SUBRHYTHM",
            "editable": false,
            "mutedNotes": [],
            "mutedChords": [],
            "autoStart": true,
            "sourceChordNote": 0,
            "sourceChordType": "Maj7",
            "ctb2Low": null,
            "ctb2Main": {
              "ntr": "ROOT_FIXED",
              "ntt": "BYPASS",
              "bassOn": false,
              "chordRootUpperLimit": 6,
              "noteLowLimit": 0,
              "noteHighLimit": 127,
              "rtr": "PITCH_SHIFT"
            },
            "ctb2High": null
          },
          "notes": [
            {
              "pitch": 54,
              "velocity": 72,
              "position": 1.0208333333333333,
              "duration": 0.08333333333333333
            },
            {
              "pitch": 54,
              "velocity": 72,
              "position": 3.0208333333333335,
              "duration": 0.08333333333333333
            },
            {
              "pitch": 54,
              "velocity": 72,
              "position": 5.020833333333333,
              "duration": 0.08333333333333333
            },
            {
              "pitch": 54,
              "velocity": 72,
              "position": 7.020833333333333,
              "duration": 0.08333333333333333
            },
            {
              "pitch": 54,
              "velocity": 72,
              "position": 9.020833333333334,
              "duration": 0.08333333333333333
            },
            {
              "pitch": 54,
              "velocity": 72,
              "position": 11.020833333333334,
              "duration": 0.08333333333333333
            },
            {
              "pitch": 54,
              "velocity": 100,
              "position": 11.666666666666666,
              "duration": 0.08333333333333333
            }
          ]
        },
        "9": {
          "ctab": {
            "srcChannel": 9,
            "name": "Brush",
            "accType": "RHYTHM",
            "editable": false,
            "mutedNotes": [],
            "mutedChords": [],
            "autoStart": true,
            "sourceChordNote": 0,
            "sourceChordType": "Maj7",
            "ctb2Low": null,
            "ctb2Main": {
              "ntr": "ROOT_FIXED",
              "ntt": "BYPASS",
              "bassOn": false,
              "chordRootUpperLimit": 6,
              "noteLowLimit": 0,
              "noteHighLimit": 127,
              "rtr": "PITCH_SHIFT"
            },
            "ctb2High": null
          },
          "notes": [
            {
              "pitch": 51,
              "velocity": 61,
              "position": 0,
              "duration": 0.010416666666666666
            },
            {
              "pitch": 33,
              "velocity": 45,
              "position": 0,
              "duration": 0.03125
            },
            {
              "pitch": 38,
              "velocity": 72,
              "position": 0,
              "duration": 0.10416666666666667
            },
            {
              "pitch": 27,
              "velocity": 48,
              "position": 0.6354166666666666,
              "duration": 0.10416666666666667
            },
            {
              "pitch": 27,
              "velocity": 108,
              "position": 1,
              "duration": 0.020833333333333332
            },
            {
              "pitch": 44,
              "velocity": 51,
              "position": 1.0104166666666667,
              "duration": 0.052083333333333336
            },
            {
              "pitch": 28,
              "velocity": 43,
              "position": 1,
              "duration": 0.5208333333333334
            },
            {
              "pitch": 27,
              "velocity": 45,
              "position": 1.6354166666666667,
              "duration": 0.020833333333333332
            },
            {
              "pitch": 33,
              "velocity": 45,
              "position": 1.6666666666666667,
              "duration": 0.03125
            },
            {
              "pitch": 59,
              "velocity": 54,
              "position": 1.6666666666666667,
              "duration": 0.08333333333333333
            },
            {
              "pitch": 27,
              "velocity": 83,
              "position": 2,
              "duration": 0.10416666666666667
            },
            {
              "pitch": 27,
              "velocity": 45,
              "position": 2.6354166666666665,
              "duration": 0.020833333333333332
            },
            {
              "pitch": 38,
              "velocity": 100,
              "position": 3,
              "duration": 0.020833333333333332
            },
            {
              "pitch": 33,
              "velocity": 45,
              "position": 3,
              "duration": 0.03125
            },
            {
              "pitch": 59,
              "velocity": 54,
              "position": 3,
              "duration": 0.08333333333333333
            },
            {
              "pitch": 27,
              "velocity": 53,
              "position": 3.3333333333333335,
              "duration": 0.020833333333333332
            },
            {
              "pitch": 27,
              "velocity": 59,
              "position": 3.6666666666666665,
              "duration": 0.020833333333333332
            },
            {
              "pitch": 44,
              "velocity": 30,
              "position": 4.010416666666667,
              "duration": 0.052083333333333336
            },
            {
              "pitch": 27,
              "velocity": 72,
              "position": 4,
              "duration": 0.10416666666666667
            },
            {
              "pitch": 27,
              "velocity": 45,
              "position": 4.635416666666667,
              "duration": 0.020833333333333332
            },
            {
              "pitch": 27,
              "velocity": 105,
              "position": 5,
              "duration": 0.020833333333333332
            },
            {
              "pitch": 44,
              "velocity": 51,
              "position": 5.010416666666667,
              "duration": 0.052083333333333336
            },
            {
              "pitch": 28,
              "velocity": 45,
              "position": 5,
              "duration": 0.5833333333333334
            },
            {
              "pitch": 38,
              "velocity": 37,
              "position": 5.635416666666667,
              "duration": 0.020833333333333332
            },
            {
              "pitch": 33,
              "velocity": 45,
              "position": 6,
              "duration": 0.03125
            },
            {
              "pitch": 40,
              "velocity": 78,
              "position": 6,
              "duration": 0.10416666666666667
            },
            {
              "pitch": 27,
              "velocity": 48,
              "position": 6.635416666666667,
              "duration": 0.10416666666666667
            },
            {
              "pitch": 44,
              "velocity": 51,
              "position": 7.010416666666667,
              "duration": 0.052083333333333336
            },
            {
              "pitch": 27,
              "velocity": 111,
              "position": 7,
              "duration": 0.10416666666666667
            },
            {
              "pitch": 28,
              "velocity": 42,
              "position": 7,
              "duration": 0.5833333333333334
            },
            {
              "pitch": 27,
              "velocity": 87,
              "position": 7.635416666666667,
              "duration": 0.03125
            },
            {
              "pitch": 33,
              "velocity": 45,
              "position": 8,
              "duration": 0.03125
            },
            {
              "pitch": 59,
              "velocity": 48,
              "position": 8,
              "duration": 0.08333333333333333
            },
            {
              "pitch": 40,
              "velocity": 70,
              "position": 8.625,
              "duration": 0.08333333333333333
            },
            {
              "pitch": 44,
              "velocity": 51,
              "position": 9.010416666666666,
              "duration": 0.052083333333333336
            },
            {
              "pitch": 28,
              "velocity": 46,
              "position": 9,
              "duration": 0.5833333333333334
            },
            {
              "pitch": 33,
              "velocity": 45,
              "position": 9.645833333333334,
              "duration": 0.03125
            },
            {
              "pitch": 31,
              "velocity": 55,
              "position": 9.645833333333334,
              "duration": 0.08333333333333333
            },
            {
              "pitch": 47,
              "velocity": 54,
              "position": 10,
              "duration": 0.020833333333333332
            },
            {
              "pitch": 59,
              "velocity": 55,
              "position": 10,
              "duration": 0.08333333333333333
            },
            {
              "pitch": 25,
              "velocity": 84,
              "position": 10.635416666666666,
              "duration": 0.08333333333333333
            },
            {
              "pitch": 44,
              "velocity": 51,
              "position": 11.010416666666666,
              "duration": 0.052083333333333336
            },
            {
              "pitch": 40,
              "velocity": 38,
              "position": 11.3125,
              "duration": 0.020833333333333332
            },
            {
              "pitch": 38,
              "velocity": 59,
              "position": 11.625,
              "duration": 0.020833333333333332
            },
            {
              "pitch": 33,
              "velocity": 45,
              "position": 11.625,
              "duration": 0.03125
            },
            {
              "pitch": 51,
              "velocity": 62,
              "position": 11.625,
              "duration": 0.08333333333333333
            }
          ]
        },
        "10": {
          "ctab": {
            "srcChannel": 10,
            "name": "Bass 32",
            "accType": "BASS",
            "editable": false,
            "mutedNotes": [],
            "mutedChords": [],
            "autoStart": false,
            "sourceChordNote": 0,
            "sourceChordType": "Maj7",
            "ctb2Low": null,
            "ctb2Main": {
              "ntr": "ROOT_TRANSPOSITION",
              "ntt": "MELODIC_MINOR",
              "bassOn": false,
              "chordRootUpperLimit": 7,
              "noteLowLimit": 28,
              "noteHighLimit": 46,
              "rtr": "PITCH_SHIFT"
            },
            "ctb2High": null
          },
          "notes": [
            {
              "pitch": 36,
              "velocity": 83,
              "position": 0,
              "duration": 1.65625
            },
            {
              "pitch": 36,
              "velocity": 84,
              "position": 1.6666666666666667,
              "duration": 0.3958333333333333
            },
            {
              "pitch": 45,
              "velocity": 77,
              "position": 3,
              "duration": 2.9895833333333335
            },
            {
              "pitch": 39,
              "velocity": 83,
              "position": 6,
              "duration": 1.9895833333333333
            },
            {
              "pitch": 38,
              "velocity": 83,
              "position": 8,
              "duration": 1.9895833333333333
            },
            {
              "pitch": 31,
              "velocity": 83,
              "position": 10,
              "duration": 1.6145833333333333
            },
            {
              "pitch": 36,
              "velocity": 83,
              "position": 11.625,
              "duration": 0.9791666666666666
            }
          ]
        },
        "11": {
          "ctab": {
            "srcChannel": 11,
            "name": "Mel min",
            "accType": "CHORD1",
            "editable": false,
            "mutedNotes": [],
            "mutedChords": [
              "1+2+5",
              "sus4",
              "1+5",
              "1+8",
              "7aug",
              "Maj7aug",
              "7(#9)",
              "7(b13)",
              "7(b9)",
              "7(13)",
              "7#11",
              "7(9)",
              "7b5",
              "7sus4",
              "7th",
              "aug",
              "Maj6(9)",
              "Maj7(9)",
              "Maj(9)",
              "Maj7#11",
              "Maj7",
              "Maj6",
              "Maj"
            ],
            "autoStart": false,
            "sourceChordNote": 0,
            "sourceChordType": "min",
            "ctb2Low": null,
            "ctb2Main": {
              "ntr": "ROOT_TRANSPOSITION",
              "ntt": "BYPASS",
              "bassOn": false,
              "chordRootUpperLimit": 11,
              "noteLowLimit": 0,
              "noteHighLimit": 127,
              "rtr": "PITCH_SHIFT"
            },
            "ctb2High": null
          },
          "notes": [
            {
              "pitch": 48,
              "velocity": 111,
              "position": 0,
              "duration": 0.5729166666666666
            },
            {
              "pitch": 60,
              "velocity": 119,
              "position": 0.041666666666666664,
              "duration": 0.5729166666666666
            },
            {
              "pitch": 50,
              "velocity": 102,
              "position": 1.6666666666666667,
              "duration": 0.75
            },
            {
              "pitch": 62,
              "velocity": 124,
              "position": 1.7083333333333333,
              "duration": 0.75
            },
            {
              "pitch": 54,
              "velocity": 99,
              "position": 3,
              "duration": 2.6041666666666665
            },
            {
              "pitch": 66,
              "velocity": 124,
              "position": 3.0416666666666665,
              "duration": 2.6041666666666665
            },
            {
              "pitch": 54,
              "velocity": 111,
              "position": 6,
              "duration": 0.375
            },
            {
              "pitch": 66,
              "velocity": 119,
              "position": 6.041666666666667,
              "duration": 0.375
            },
            {
              "pitch": 53,
              "velocity": 102,
              "position": 7,
              "duration": 0.53125
            },
            {
              "pitch": 65,
              "velocity": 109,
              "position": 7.041666666666667,
              "duration": 0.53125
            },
            {
              "pitch": 51,
              "velocity": 117,
              "position": 8,
              "duration": 0.9895833333333334
            },
            {
              "pitch": 63,
              "velocity": 124,
              "position": 8.041666666666666,
              "duration": 0.9895833333333334
            },
            {
              "pitch": 48,
              "velocity": 111,
              "position": 9,
              "duration": 0.14583333333333334
            },
            {
              "pitch": 60,
              "velocity": 119,
              "position": 9.041666666666666,
              "duration": 0.14583333333333334
            },
            {
              "pitch": 51,
              "velocity": 111,
              "position": 10,
              "duration": 1.65625
            },
            {
              "pitch": 63,
              "velocity": 119,
              "position": 10.041666666666666,
              "duration": 1.65625
            },
            {
              "pitch": 48,
              "velocity": 124,
              "position": 11.666666666666666,
              "duration": 0.6354166666666666
            },
            {
              "pitch": 60,
              "velocity": 124,
              "position": 11.708333333333334,
              "duration": 0.6354166666666666
            }
          ]
        },
        "12": {
          "ctab": {
            "srcChannel": 12,
            "name": "Nylonmaj",
            "accType": "CHORD2",
            "editable": false,
            "mutedNotes": [],
            "mutedChords": [
              "dim7",
              "dim",
              "minMaj7(9)",
              "minMaj7",
              "min7(11)",
              "min7(9)",
              "min(9)",
              "m7b5",
              "min7",
              "min6",
              "min"
            ],
            "autoStart": false,
            "sourceChordNote": 0,
            "sourceChordType": "Maj",
            "ctb2Low": null,
            "ctb2Main": {
              "ntr": "ROOT_TRANSPOSITION",
              "ntt": "BYPASS",
              "bassOn": false,
              "chordRootUpperLimit": 7,
              "noteLowLimit": 56,
              "noteHighLimit": 67,
              "rtr": "PITCH_SHIFT"
            },
            "ctb2High": null
          },
          "notes": [
            {
              "pitch": 67,
              "velocity": 71,
              "position": 0.020833333333333332,
              "duration": 0.5625
            },
            {
              "pitch": 64,
              "velocity": 58,
              "position": 0.010416666666666666,
              "duration": 0.59375
            },
            {
              "pitch": 60,
              "velocity": 53,
              "position": 0,
              "duration": 0.6145833333333334
            },
            {
              "pitch": 60,
              "velocity": 26,
              "position": 0.6666666666666666,
              "duration": 0.3125
            },
            {
              "pitch": 64,
              "velocity": 35,
              "position": 0.6770833333333334,
              "duration": 0.3125
            },
            {
              "pitch": 67,
              "velocity": 46,
              "position": 0.6875,
              "duration": 0.3125
            },
            {
              "pitch": 67,
              "velocity": 82,
              "position": 1.6875,
              "duration": 0.5625
            },
            {
              "pitch": 60,
              "velocity": 63,
              "position": 1.6666666666666667,
              "duration": 0.65625
            },
            {
              "pitch": 64,
              "velocity": 71,
              "position": 1.6770833333333333,
              "duration": 0.6458333333333334
            },
            {
              "pitch": 67,
              "velocity": 38,
              "position": 2.6666666666666665,
              "duration": 0.25
            },
            {
              "pitch": 60,
              "velocity": 23,
              "position": 2.6770833333333335,
              "duration": 0.25
            },
            {
              "pitch": 64,
              "velocity": 16,
              "position": 2.6875,
              "duration": 0.25
            },
            {
              "pitch": 61,
              "velocity": 54,
              "position": 3,
              "duration": 2.9791666666666665
            },
            {
              "pitch": 67,
              "velocity": 81,
              "position": 3.0208333333333335,
              "duration": 2.9583333333333335
            },
            {
              "pitch": 64,
              "velocity": 65,
              "position": 3.0104166666666665,
              "duration": 2.9791666666666665
            },
            {
              "pitch": 61,
              "velocity": 51,
              "position": 6,
              "duration": 0.6458333333333334
            },
            {
              "pitch": 64,
              "velocity": 51,
              "position": 6.010416666666667,
              "duration": 0.6458333333333334
            },
            {
              "pitch": 67,
              "velocity": 71,
              "position": 6.020833333333333,
              "duration": 0.6458333333333334
            },
            {
              "pitch": 61,
              "velocity": 27,
              "position": 6.666666666666667,
              "duration": 0.3125
            },
            {
              "pitch": 64,
              "velocity": 36,
              "position": 6.677083333333333,
              "duration": 0.3125
            },
            {
              "pitch": 67,
              "velocity": 51,
              "position": 6.6875,
              "duration": 0.3125
            },
            {
              "pitch": 61,
              "velocity": 66,
              "position": 7,
              "duration": 0.20833333333333334
            },
            {
              "pitch": 64,
              "velocity": 73,
              "position": 7.010416666666667,
              "duration": 0.20833333333333334
            },
            {
              "pitch": 67,
              "velocity": 84,
              "position": 7.020833333333333,
              "duration": 0.20833333333333334
            },
            {
              "pitch": 64,
              "velocity": 31,
              "position": 7.666666666666667,
              "duration": 0.25
            },
            {
              "pitch": 61,
              "velocity": 19,
              "position": 7.677083333333333,
              "duration": 0.3020833333333333
            },
            {
              "pitch": 67,
              "velocity": 44,
              "position": 7.6875,
              "duration": 0.3020833333333333
            },
            {
              "pitch": 60,
              "velocity": 55,
              "position": 8.010416666666666,
              "duration": 0.5625
            },
            {
              "pitch": 66,
              "velocity": 71,
              "position": 8.020833333333334,
              "duration": 0.5625
            },
            {
              "pitch": 57,
              "velocity": 51,
              "position": 8,
              "duration": 0.59375
            },
            {
              "pitch": 66,
              "velocity": 49,
              "position": 8.666666666666666,
              "duration": 0.25
            },
            {
              "pitch": 60,
              "velocity": 33,
              "position": 8.677083333333334,
              "duration": 0.25
            },
            {
              "pitch": 57,
              "velocity": 27,
              "position": 8.6875,
              "duration": 0.25
            },
            {
              "pitch": 60,
              "velocity": 68,
              "position": 9.010416666666666,
              "duration": 0.9479166666666666
            },
            {
              "pitch": 57,
              "velocity": 61,
              "position": 9,
              "duration": 0.96875
            },
            {
              "pitch": 66,
              "velocity": 81,
              "position": 9.020833333333334,
              "duration": 0.9479166666666666
            },
            {
              "pitch": 59,
              "velocity": 55,
              "position": 10,
              "duration": 1.6458333333333333
            },
            {
              "pitch": 67,
              "velocity": 75,
              "position": 10.020833333333334,
              "duration": 1.625
            },
            {
              "pitch": 62,
              "velocity": 58,
              "position": 10.010416666666666,
              "duration": 1.6458333333333333
            },
            {
              "pitch": 64,
              "velocity": 69,
              "position": 11.677083333333334,
              "duration": 0.6458333333333334
            },
            {
              "pitch": 67,
              "velocity": 83,
              "position": 11.6875,
              "duration": 0.6354166666666666
            },
            {
              "pitch": 60,
              "velocity": 63,
              "position": 11.666666666666666,
              "duration": 0.6666666666666666
            }
          ]
        },
        "13": {
          "ctab": {
            "srcChannel": 13,
            "name": "Mel Maj",
            "accType": "CHORD1",
            "editable": false,
            "mutedNotes": [],
            "mutedChords": [
              "dim7",
              "dim",
              "minMaj7(9)",
              "minMaj7",
              "min7(11)",
              "min7(9)",
              "min(9)",
              "m7b5",
              "min7",
              "min6",
              "min"
            ],
            "autoStart": false,
            "sourceChordNote": 0,
            "sourceChordType": "Maj",
            "ctb2Low": null,
            "ctb2Main": {
              "ntr": "ROOT_TRANSPOSITION",
              "ntt": "BYPASS",
              "bassOn": false,
              "chordRootUpperLimit": 11,
              "noteLowLimit": 0,
              "noteHighLimit": 127,
              "rtr": "PITCH_SHIFT"
            },
            "ctb2High": null
          },
          "notes": [
            {
              "pitch": 48,
              "velocity": 112,
              "position": 0,
              "duration": 0.6666666666666666
            },
            {
              "pitch": 60,
              "velocity": 127,
              "position": 0.041666666666666664,
              "duration": 0.6666666666666666
            },
            {
              "pitch": 51,
              "velocity": 103,
              "position": 1.6666666666666667,
              "duration": 0.5625
            },
            {
              "pitch": 63,
              "velocity": 127,
              "position": 1.7083333333333333,
              "duration": 0.5625
            },
            {
              "pitch": 54,
              "velocity": 110,
              "position": 3,
              "duration": 2.625
            },
            {
              "pitch": 66,
              "velocity": 127,
              "position": 3.0416666666666665,
              "duration": 2.625
            },
            {
              "pitch": 53,
              "velocity": 112,
              "position": 6,
              "duration": 0.2916666666666667
            },
            {
              "pitch": 65,
              "velocity": 112,
              "position": 6.041666666666667,
              "duration": 0.2916666666666667
            },
            {
              "pitch": 55,
              "velocity": 103,
              "position": 7,
              "duration": 0.53125
            },
            {
              "pitch": 67,
              "velocity": 103,
              "position": 7.041666666666667,
              "duration": 0.53125
            },
            {
              "pitch": 52,
              "velocity": 118,
              "position": 8,
              "duration": 0.4270833333333333
            },
            {
              "pitch": 64,
              "velocity": 118,
              "position": 8.041666666666666,
              "duration": 0.4270833333333333
            },
            {
              "pitch": 52,
              "velocity": 112,
              "position": 10,
              "duration": 1.6458333333333333
            },
            {
              "pitch": 64,
              "velocity": 127,
              "position": 10.041666666666666,
              "duration": 1.6458333333333333
            },
            {
              "pitch": 48,
              "velocity": 127,
              "position": 11.666666666666666,
              "duration": 0.6354166666666666
            },
            {
              "pitch": 60,
              "velocity": 127,
              "position": 11.708333333333334,
              "duration": 0.6354166666666666
            }
          ]
        },
        "14": {
          "ctab": {
            "srcChannel": 14,
            "name": "Nylonmin",
            "accType": "CHORD2",
            "editable": false,
            "mutedNotes": [],
            "mutedChords": [
              "1+2+5",
              "sus4",
              "1+5",
              "1+8",
              "7aug",
              "Maj7aug",
              "7(#9)",
              "7(b13)",
              "7(b9)",
              "7(13)",
              "7#11",
              "7(9)",
              "7b5",
              "7sus4",
              "7th",
              "aug",
              "Maj6(9)",
              "Maj7(9)",
              "Maj(9)",
              "Maj7#11",
              "Maj7",
              "Maj6",
              "Maj"
            ],
            "autoStart": false,
            "sourceChordNote": 0,
            "sourceChordType": "min",
            "ctb2Low": null,
            "ctb2Main": {
              "ntr": "ROOT_TRANSPOSITION",
              "ntt": "BYPASS",
              "bassOn": false,
              "chordRootUpperLimit": 7,
              "noteLowLimit": 56,
              "noteHighLimit": 67,
              "rtr": "PITCH_SHIFT"
            },
            "ctb2High": null
          },
          "notes": [
            {
              "pitch": 67,
              "velocity": 70,
              "position": 0.020833333333333332,
              "duration": 0.5625
            },
            {
              "pitch": 63,
              "velocity": 58,
              "position": 0.010416666666666666,
              "duration": 0.59375
            },
            {
              "pitch": 60,
              "velocity": 53,
              "position": 0,
              "duration": 0.6145833333333334
            },
            {
              "pitch": 63,
              "velocity": 22,
              "position": 0.6770833333333334,
              "duration": 0.25
            },
            {
              "pitch": 60,
              "velocity": 16,
              "position": 0.6666666666666666,
              "duration": 0.3125
            },
            {
              "pitch": 67,
              "velocity": 44,
              "position": 0.6875,
              "duration": 0.3958333333333333
            },
            {
              "pitch": 67,
              "velocity": 82,
              "position": 1.6875,
              "duration": 0.5625
            },
            {
              "pitch": 60,
              "velocity": 63,
              "position": 1.6666666666666667,
              "duration": 0.65625
            },
            {
              "pitch": 63,
              "velocity": 71,
              "position": 1.6770833333333333,
              "duration": 0.6458333333333334
            },
            {
              "pitch": 63,
              "velocity": 23,
              "position": 2.6875,
              "duration": 0.25
            },
            {
              "pitch": 67,
              "velocity": 43,
              "position": 2.6666666666666665,
              "duration": 0.3125
            },
            {
              "pitch": 60,
              "velocity": 16,
              "position": 2.6770833333333335,
              "duration": 0.3020833333333333
            },
            {
              "pitch": 63,
              "velocity": 65,
              "position": 3.0208333333333335,
              "duration": 2.9479166666666665
            },
            {
              "pitch": 60,
              "velocity": 54,
              "position": 3.0104166666666665,
              "duration": 2.96875
            },
            {
              "pitch": 67,
              "velocity": 81,
              "position": 3,
              "duration": 2.9895833333333335
            },
            {
              "pitch": 67,
              "velocity": 46,
              "position": 6,
              "duration": 0.6458333333333334
            },
            {
              "pitch": 60,
              "velocity": 30,
              "position": 6.010416666666667,
              "duration": 0.6458333333333334
            },
            {
              "pitch": 63,
              "velocity": 38,
              "position": 6.020833333333333,
              "duration": 0.6458333333333334
            },
            {
              "pitch": 67,
              "velocity": 67,
              "position": 6.666666666666667,
              "duration": 0.3125
            },
            {
              "pitch": 60,
              "velocity": 46,
              "position": 6.677083333333333,
              "duration": 0.3125
            },
            {
              "pitch": 63,
              "velocity": 53,
              "position": 6.6875,
              "duration": 0.3125
            },
            {
              "pitch": 67,
              "velocity": 83,
              "position": 7,
              "duration": 0.20833333333333334
            },
            {
              "pitch": 60,
              "velocity": 59,
              "position": 7.010416666666667,
              "duration": 0.20833333333333334
            },
            {
              "pitch": 63,
              "velocity": 65,
              "position": 7.020833333333333,
              "duration": 0.20833333333333334
            },
            {
              "pitch": 66,
              "velocity": 56,
              "position": 7.666666666666667,
              "duration": 0.25
            },
            {
              "pitch": 60,
              "velocity": 28,
              "position": 7.677083333333333,
              "duration": 0.3020833333333333
            },
            {
              "pitch": 63,
              "velocity": 39,
              "position": 7.6875,
              "duration": 0.3020833333333333
            },
            {
              "pitch": 60,
              "velocity": 48,
              "position": 8.010416666666666,
              "duration": 0.5625
            },
            {
              "pitch": 63,
              "velocity": 55,
              "position": 8.020833333333334,
              "duration": 0.5625
            },
            {
              "pitch": 66,
              "velocity": 71,
              "position": 8,
              "duration": 0.59375
            },
            {
              "pitch": 60,
              "velocity": 14,
              "position": 8.677083333333334,
              "duration": 0.25
            },
            {
              "pitch": 63,
              "velocity": 24,
              "position": 8.6875,
              "duration": 0.25
            },
            {
              "pitch": 66,
              "velocity": 43,
              "position": 8.666666666666666,
              "duration": 0.3020833333333333
            },
            {
              "pitch": 60,
              "velocity": 61,
              "position": 9.010416666666666,
              "duration": 0.9479166666666666
            },
            {
              "pitch": 66,
              "velocity": 81,
              "position": 9,
              "duration": 0.96875
            },
            {
              "pitch": 63,
              "velocity": 68,
              "position": 9.020833333333334,
              "duration": 0.9479166666666666
            },
            {
              "pitch": 59,
              "velocity": 55,
              "position": 10.010416666666666,
              "duration": 1.6354166666666667
            },
            {
              "pitch": 65,
              "velocity": 71,
              "position": 10,
              "duration": 1.65625
            },
            {
              "pitch": 62,
              "velocity": 62,
              "position": 10.020833333333334,
              "duration": 1.65625
            },
            {
              "pitch": 63,
              "velocity": 75,
              "position": 11.677083333333334,
              "duration": 0.6458333333333334
            },
            {
              "pitch": 67,
              "velocity": 89,
              "position": 11.6875,
              "duration": 0.6354166666666666
            },
            {
              "pitch": 60,
              "velocity": 69,
              "position": 11.666666666666666,
              "duration": 0.6666666666666666
            }
          ]
        }
      }
    }
  }
}