{
  "name": "OrchJazzBallad.S158.prs",
  "tempo": 72,
  "timeSignature": "4/4",
  "ticksPerQuarter": 1920,
  "sffType": "SFF1",
  "division": "EIGHTH_SHUFFLE",
  "parts": {
    "Main_A": {
      "type": "Main_A",
      "sizeInBeats": 8,
      "channels": {
        "1": {
          "ctab": {
            "srcChannel": 1,
            "name": "Bass 2",
            "accType": "BASS",
            "editable": false,
            "mutedNotes": [],
            "mutedChords": [
              "1+2+5",
              "1+5",
              "1+8",
              "Maj7aug",
              "7(#9)",
              "7(b13)",
              "7(b9)",
              "7(13)",
              "7#11",
              "7(9)",
              "7b5",
              "7sus4",
              "7th",
              "dim7",
              "min7(11)",
              "min7(9)",
              "min7",
              "min6",
              "Maj6(9)",
              "Maj7(9)",
              "Maj(9)",
              "Maj7#11",
              "Maj7",
              "Maj6",
              "Maj"
            ],
            "autoStart": false,
            "sourceChordNote": 0,
            "sourceChordType": "Maj7",
            "ctb2Low": null,
            "ctb2Main": {
              "ntr": "ROOT_TRANSPOSITION",
              "ntt": "MELODY",
              "bassOn": true,
              "chordRootUpperLimit": 8,
              "noteLowLimit": 28,
              "noteHighLimit": 127,
              "rtr": "PITCH_SHIFT_TO_ROOT"
            },
            "ctb2High": null
          },
          "notes": [
            {
              "pitch": 24,
              "velocity": 58,
              "position": 0,
              "duration": 1.9895833333333333
            },
            {
              "pitch": 24,
              "velocity": 58,
              "position": 2,
              "duration": 1.9895833333333333
            },
            {
              "pitch": 24,
              "velocity": 58,
              "position": 4,
              "duration": 1.9895833333333333
            },
            {
              "pitch": 24,
              "velocity": 58,
              "position": 6,
              "duration": 1.9895833333333333
            }
          ]
        },
        "2": {
          "ctab": {
            "srcChannel": 2,
            "name": "Gt Root",
            "accType": "CHORD1",
            "editable": false,
            "mutedNotes": [],
            "mutedChords": [
              "1+2+5",
              "sus4",
              "1+5",
              "1+8",
              "Maj7aug",
              "dim",
              "minMaj7(9)",
              "minMaj7",
              "min6",
              "min",
              "aug",
              "Maj7(9)",
              "Maj7#11",
              "Maj7",
              "Maj6",
              "Maj"
            ],
            "autoStart": false,
            "sourceChordNote": 0,
            "sourceChordType": "Maj7",
            "ctb2Low": null,
            "ctb2Main": {
              "ntr": "ROOT_TRANSPOSITION",
              "ntt": "CHORD",
              "bassOn": false,
              "chordRootUpperLimit": 6,
              "noteLowLimit": 0,
              "noteHighLimit": 127,
              "rtr": "PITCH_SHIFT"
            },
            "ctb2High": null
          },
          "notes": [
            {
              "pitch": 60,
              "velocity": 98,
              "position": 1,
              "duration": 0.22916666666666666
            },
            {
              "pitch": 60,
              "velocity": 98,
              "position": 3,
              "duration": 0.22916666666666666
            },
            {
              "pitch": 60,
              "velocity": 98,
              "position": 5,
              "duration": 0.22916666666666666
            },
            {
              "pitch": 60,
              "velocity": 98,
              "position": 7,
              "duration": 0.22916666666666666
            }
          ]
        },
        "4": {
          "ctab": {
            "srcChannel": 4,
            "name": "Str Root",
            "accType": "PAD",
            "editable": false,
            "mutedNotes": [],
            "mutedChords": [
              "1+2+5",
              "sus4",
              "1+5",
              "1+8",
              "Maj7aug",
              "dim",
              "minMaj7(9)",
              "minMaj7",
              "min6",
              "min",
              "aug",
              "Maj7(9)",
              "Maj7#11",
              "Maj7",
              "Maj6",
              "Maj"
            ],
            "autoStart": false,
            "sourceChordNote": 0,
            "sourceChordType": "Maj7",
            "ctb2Low": null,
            "ctb2Main": {
              "ntr": "ROOT_TRANSPOSITION",
              "ntt": "CHORD",
              "bassOn": false,
              "chordRootUpperLimit": 6,
              "noteLowLimit": 0,
              "noteHighLimit": 70,
              "rtr": "PITCH_SHIFT"
            },
            "ctb2High": null
          },
          "notes": [
            {
              "pitch": 60,
              "velocity": 18,
              "position": 0.010416666666666666,
              "duration": 7.979166666666667
            }
          ]
        },
        "7": {
          "ctab": {
            "srcChannel": 7,
            "name": "CC_Crash",
            "accType": "RHYTHM",
            "editable": false,
            "mutedNotes": [],
            "mutedChords": [
              "1+2+5",
              "sus4",
              "1+5",
              "1+8",
              "7aug",
              "Maj7aug",
              "7(#9)",
              "7(b13)",
              "7(b9)",
              "7(13)",
              "7#11",
              "7(9)",
              "7b5",
              "7sus4",
              "7th",
              "dim7",
              "dim",
              "minMaj7(9)",
              "minMaj7",
              "min7(11)",
              "min7(9)",
              "min(9)",
              "m7b5",
              "min7",
              "min6",
              "min",
              "aug",
              "Maj6(9)",
              "Maj7(9)",
              "Maj(9)",
              "Maj7#11",
              "Maj7",
              "Maj6",
              "Maj"
            ],
            "autoStart": true,
            "sourceChordNote": 0,
            "sourceChordType": "Maj",
            "ctb2Low": null,
            "ctb2Main": {
              "ntr": "ROOT_FIXED",
              "ntt": "BYPASS",
              "bassOn": false,
              "chordRootUpperLimit": 0,
              "noteLowLimit": 0,
              "noteHighLimit": 127,
              "rtr": "RETRIGGER"
            },
            "ctb2High": null
          },
          "notes": []
        },
        "9": {
          "ctab": {
            "srcChannel": 9,
            "name": "Drums",
            "accType": "RHYTHM",
            "editable": false,
            "mutedNotes": [],
            "mutedChords": [],
            "autoStart": true,
            "sourceChordNote": 0,
            "sourceChordType": "Maj7",
            "ctb2Low": null,
            "ctb2Main": {
              "ntr": "ROOT_FIXED",
              "ntt": "BYPASS",
              "bassOn": false,
              "chordRootUpperLimit": 6,
              "noteLowLimit": 0,
              "noteHighLimit": 127,
              "rtr": "PITCH_SHIFT"
            },
            "ctb2High": null
          },
          "notes": [
            {
              "pitch": 25,
              "velocity": 40,
              "position": 0,
              "duration": 0.010416666666666666
            },
            {
              "pitch": 35,
              "velocity": 40,
              "position": 0,
              "duration": 0.010416666666666666
            },
            {
              "pitch": 26,
              "velocity": 38,
              "position": 0,
              "duration": 0.9895833333333334
            },
            {
              "pitch": 44,
              "velocity": 48,
              "position": 1,
              "duration": 0.010416666666666666
            },
            {
              "pitch": 28,
              "velocity": 34,
              "position": 1,
              "duration": 0.9895833333333334
            },
            {
              "pitch": 25,
              "velocity": 40,
              "position": 2,
              "duration": 0.010416666666666666
            },
            {
              "pitch": 35,
              "velocity": 40,
              "position": 2,
              "duration": 0.010416666666666666
            },
            {
              "pitch": 26,
              "velocity": 38,
              "position": 2,
              "duration": 0.9895833333333334
            },
            {
              "pitch": 44,
              "velocity": 48,
              "position": 3,
              "duration": 0.010416666666666666
            },
            {
              "pitch": 28,
              "velocity": 34,
              "position": 3,
              "duration": 0.9895833333333334
            },
            {
              "pitch": 25,
              "velocity": 40,
              "position": 4,
              "duration": 0.010416666666666666
            },
            {
              "pitch": 35,
              "velocity": 40,
              "position": 4,
              "duration": 0.010416666666666666
            },
            {
              "pitch": 26,
              "velocity": 38,
              "position": 4,
              "duration": 0.9895833333333334
            },
            {
              "pitch": 44,
              "velocity": 48,
              "position": 5,
              "duration": 0.010416666666666666
            },
            {
              "pitch": 28,
              "velocity": 34,
              "position": 5,
              "duration": 0.9895833333333334
            },
            {
              "pitch": 25,
              "velocity": 40,
              "position": 6,
              "duration": 0.010416666666666666
            },
            {
              "pitch": 35,
              "velocity": 40,
              "position": 6,
              "duration": 0.010416666666666666
            },
            {
              "pitch": 26,
              "velocity": 38,
              "position": 6,
              "duration": 0.9895833333333334
            },
            {
              "pitch": 44,
              "velocity": 48,
              "position": 7,
              "duration": 0.010416666666666666
            },
            {
              "pitch": 28,
              "velocity": 34,
              "position": 7,
              "duration": 0.9895833333333334
            }
          ]
        },
        "10": {
          "ctab": {
            "srcChannel": 10,
            "name": "Bass 1",
            "accType": "BASS",
            "editable": false,
            "mutedNotes": [],
            "mutedChords": [
              "sus4",
              "7aug",
              "dim",
              "minMaj7(9)",
              "minMaj7",
              "min(9)",
              "m7b5",
              "min",
              "aug"
            ],
            "autoStart": false,
            "sourceChordNote": 0,
            "sourceChordType": "Maj7",
            "ctb2Low": null,
            "ctb2Main": {
              "ntr": "ROOT_TRANSPOSITION",
              "ntt": "MELODY",
              "bassOn": true,
              "chordRootUpperLimit": 8,
              "noteLowLimit": 28,
              "noteHighLimit": 127,
              "rtr": "PITCH_SHIFT_TO_ROOT"
            },
            "ctb2High": null
          },
          "notes": [
            {
              "pitch": 24,
              "velocity": 58,
              "position": 0,
              "duration": 1.9895833333333333
            },
            {
              "pitch": 24,
              "velocity": 58,
              "position": 2,
              "duration": 1.9895833333333333
            },
            {
              "pitch": 24,
              "velocity": 58,
              "position": 4,
              "duration": 1.9895833333333333
            },
            {
              "pitch": 24,
              "velocity": 58,
              "position": 6,
              "duration": 1.9895833333333333
            }
          ]
        },
        "11": {
          "ctab": {
            "srcChannel": 11,
            "name": "Gt",
            "accType": "CHORD1",
            "editable": false,
            "mutedNotes": [],
            "mutedChords": [],
            "autoStart": false,
            "sourceChordNote": 0,
            "sourceChordType": "Maj7",
            "ctb2Low": null,
            "ctb2Main": {
              "ntr": "ROOT_FIXED",
              "ntt": "CHORD",
              "bassOn": false,
              "chordRootUpperLimit": 7,
              "noteLowLimit": 0,
              "noteHighLimit": 127,
              "rtr": "PITCH_SHIFT"
            },
            "ctb2High": null
          },
          "notes": [
            {
              "pitch": 55,
              "velocity": 98,
              "position": 1,
              "duration": 0.22916666666666666
            },
            {
              "pitch": 59,
              "velocity": 98,
              "position": 1,
              "duration": 0.22916666666666666
            },
            {
              "pitch": 64,
              "velocity": 98,
              "position": 1,
              "duration": 0.22916666666666666
            },
            {
              "pitch": 55,
              "velocity": 98,
              "position": 3,
              "duration": 0.22916666666666666
            },
            {
              "pitch": 59,
              "velocity": 98,
              "position": 3,
              "duration": 0.22916666666666666
            },
            {
              "pitch": 64,
              "velocity": 98,
              "position": 3,
              "duration": 0.22916666666666666
            },
            {
              "pitch": 55,
              "velocity": 98,
              "position": 5,
              "duration": 0.22916666666666666
            },
            {
              "pitch": 59,
              "velocity": 98,
              "position": 5,
              "duration": 0.22916666666666666
            },
            {
              "pitch": 64,
              "velocity": 98,
              "position": 5,
              "duration": 0.22916666666666666
            },
            {
              "pitch": 55,
              "velocity": 98,
              "position": 7,
              "duration": 0.22916666666666666
            },
            {
              "pitch": 59,
              "velocity": 98,
              "position": 7,
              "duration": 0.22916666666666666
            },
            {
              "pitch": 64,
              "velocity": 98,
              "position": 7,
              "duration": 0.22916666666666666
            }
          ]
        },
        "12": {
          "ctab": {
            "srcChannel": 12,
            "name": "EP",
            "accType": "CHORD2",
            "editable": false,
            "mutedNotes": [],
            "mutedChords": [],
            "autoStart": false,
            "sourceChordNote": 0,
            "sourceChordType": "Maj7",
            "ctb2Low": null,
            "ctb2Main": {
              "ntr": "ROOT_FIXED",
              "ntt": "CHORD",
              "bassOn": false,
              "chordRootUpperLimit": 7,
              "noteLowLimit": 0,
              "noteHighLimit": 127,
              "rtr": "PITCH_SHIFT"
            },
            "ctb2High": null
          },
          "notes": [
            {
              "pitch": 59,
              "velocity": 78,
              "position": 0,
              "duration": 1.9895833333333333
            },
            {
              "pitch": 64,
              "velocity": 78,
              "position": 0,
              "duration": 1.9895833333333333
            },
            {
              "pitch": 67,
              "velocity": 78,
              "position": 0,
              "duration": 1.9895833333333333
            },
            {
              "pitch": 59,
              "velocity": 45,
              "position": 2,
              "duration": 1.9895833333333333
            },
            {
              "pitch": 64,
              "velocity": 45,
              "position": 2,
              "duration": 1.9895833333333333
            },
            {
              "pitch": 67,
              "velocity": 45,
              "position": 2,
              "duration": 1.9895833333333333
            },
            {
              "pitch": 59,
              "velocity": 78,
              "position": 4,
              "duration": 2.65625
            },
            {
              "pitch": 64,
              "velocity": 78,
              "position": 4,
              "duration": 2.65625
            },
            {
              "pitch": 67,
              "velocity": 78,
              "position": 4,
              "duration": 2.65625
            },
            {
              "pitch": 59,
              "velocity": 68,
              "position": 6.666666666666667,
              "duration": 1.3229166666666667
            },
            {
              "pitch": 64,
              "velocity": 68,
              "position": 6.666666666666667,
              "duration": 1.3229166666666667
            },
            {
              "pitch": 67,
              "velocity": 68,
              "position": 6.666666666666667,
              "duration": 1.3229166666666667
            }
          ]
        },
        "13": {
          "ctab": {
            "srcChannel": 13,
            "name": "Str",
            "accType": "PAD",
            "editable": false,
            "mutedNotes": [],
            "mutedChords": [],
            "autoStart": false,
            "sourceChordNote": 0,
            "sourceChordType": "Maj7",
            "ctb2Low": null,
            "ctb2Main": {
              "ntr": "ROOT_FIXED",
              "ntt": "CHORD",
              "bassOn": false,
              "chordRootUpperLimit": 7,
              "noteLowLimit": 0,
              "noteHighLimit": 79,
              "rtr": "PITCH_SHIFT"
            },
            "ctb2High": null
          },
          "notes": [
            {
              "pitch": 55,
              "velocity": 15,
              "position": 0.010416666666666666,
              "duration": 7.979166666666667
            },
            {
              "pitch": 59,
              "velocity": 15,
              "position": 0.010416666666666666,
              "duration": 7.979166666666667
            },
            {
              "pitch": 64,
              "velocity": 15,
              "position": 0.010416666666666666,
              "duration": 7.979166666666667
            }
          ]
        },
        "14": {
          "ctab": {
            "srcChannel": 14,
            "name": "Pno",
            "accType": "PHRASE1",
            "editable": false,
            "mutedNotes": [],
            "mutedChords": [],
            "autoStart": false,
            "sourceChordNote": 0,
            "sourceChordType": "Maj7",
            "ctb2Low": null,
            "ctb2Main": {
              "ntr": "ROOT_FIXED",
              "ntt": "CHORD",
              "bassOn": false,
              "chordRootUpperLimit": 7,
              "noteLowLimit": 0,
              "noteHighLimit": 127,
              "rtr": "PITCH_SHIFT"
            },
            "ctb2High": null
          },
          "notes": []
        }
      }
    },
    "Main_B": {
      "type": "Main_B",
      "sizeInBeats": 8,
      "channels": {
        "1": {
          "ctab": {
            "srcChannel": 1,
            "name": "Bass 2",
            "accType": "BASS",
            "editable": false,
            "mutedNotes": [],
            "mutedChords": [
              "1+2+5",
              "1+5",
              "1+8",
              "Maj7aug",
              "7(#9)",
              "7(b13)",
              "7(b9)",
              "7(13)",
              "7#11",
              "7(9)",
              "7b5",
              "7sus4",
              "7th",
              "dim7",
              "min7(11)",
              "min7(9)",
              "min7",
              "min6",
              "Maj6(9)",
              "Maj7(9)",
              "Maj(9)",
              "Maj7#11",
              "Maj7",
              "Maj6",
              "Maj"
            ],
            "autoStart": false,
            "sourceChordNote": 0,
            "sourceChordType": "Maj7",
            "ctb2Low": null,
            "ctb2Main": {
              "ntr": "ROOT_TRANSPOSITION",
              "ntt": "MELODY",
              "bassOn": true,
              "chordRootUpperLimit": 8,
              "noteLowLimit": 28,
              "noteHighLimit": 127,
              "rtr": "PITCH_SHIFT_TO_ROOT"
            },
            "ctb2High": null
          },
          "notes": [
            {
              "pitch": 24,
              "velocity": 58,
              "position": 0,
              "duration": 1.5625
            },
            {
              "pitch": 24,
              "velocity": 110,
              "position": 1.6666666666666667,
              "duration": 0.11458333333333333
            },
            {
              "pitch": 24,
              "velocity": 58,
              "position": 2,
              "duration": 1.9895833333333333
            },
            {
              "pitch": 24,
              "velocity": 58,
              "position": 4,
              "duration": 1.5625
            },
            {
              "pitch": 24,
              "velocity": 110,
              "position": 5.666666666666667,
              "duration": 0.11458333333333333
            },
            {
              "pitch": 24,
              "velocity": 58,
              "position": 6,
              "duration": 1.9895833333333333
            }
          ]
        },
        "2": {
          "ctab": {
            "srcChannel": 2,
            "name": "Gt Root",
            "accType": "CHORD1",
            "editable": false,
            "mutedNotes": [],
            "mutedChords": [
              "1+2+5",
              "sus4",
              "1+5",
              "1+8",
              "Maj7aug",
              "dim",
              "minMaj7(9)",
              "minMaj7",
              "min6",
              "min",
              "aug",
              "Maj7(9)",
              "Maj7#11",
              "Maj7",
              "Maj6",
              "Maj"
            ],
            "autoStart": false,
            "sourceChordNote": 0,
            "sourceChordType": "Maj7",
            "ctb2Low": null,
            "ctb2Main": {
              "ntr": "ROOT_TRANSPOSITION",
              "ntt": "CHORD",
              "bassOn": false,
              "chordRootUpperLimit": 6,
              "noteLowLimit": 0,
              "noteHighLimit": 127,
              "rtr": "PITCH_SHIFT"
            },
            "ctb2High": null
          },
          "notes": [
            {
              "pitch": 60,
              "velocity": 98,
              "position": 0,
              "duration": 0.9895833333333334
            },
            {
              "pitch": 60,
              "velocity": 98,
              "position": 1,
              "duration": 0.22916666666666666
            },
            {
              "pitch": 60,
              "velocity": 98,
              "position": 2,
              "duration": 0.9895833333333334
            },
            {
              "pitch": 60,
              "velocity": 98,
              "position": 3,
              "duration": 0.22916666666666666
            },
            {
              "pitch": 60,
              "velocity": 98,
              "position": 4,
              "duration": 0.9895833333333334
            },
            {
              "pitch": 60,
              "velocity": 98,
              "position": 5,
              "duration": 0.22916666666666666
            },
            {
              "pitch": 60,
              "velocity": 98,
              "position": 6,
              "duration": 0.9895833333333334
            },
            {
              "pitch": 60,
              "velocity": 98,
              "position": 7,
              "duration": 0.22916666666666666
            }
          ]
        },
        "4": {
          "ctab": {
            "srcChannel": 4,
            "name": "Str Root",
            "accType": "PAD",
            "editable": false,
            "mutedNotes": [],
            "mutedChords": [
              "1+2+5",
              "sus4",
              "1+5",
              "1+8",
              "Maj7aug",
              "dim",
              "minMaj7(9)",
              "minMaj7",
              "min6",
              "min",
              "aug",
              "Maj7(9)",
              "Maj7#11",
              "Maj7",
              "Maj6",
              "Maj"
            ],
            "autoStart": false,
            "sourceChordNote": 0,
            "sourceChordType": "Maj7",
            "ctb2Low": null,
            "ctb2Main": {
              "ntr": "ROOT_TRANSPOSITION",
              "ntt": "CHORD",
              "bassOn": false,
              "chordRootUpperLimit": 6,
              "noteLowLimit": 0,
              "noteHighLimit": 70,
              "rtr": "PITCH_SHIFT"
            },
            "ctb2High": null
          },
          "notes": [
            {
              "pitch": 60,
              "velocity": 18,
              "position": 0.010416666666666666,
              "duration": 7.979166666666667
            }
          ]
        },
        "7": {
          "ctab": {
            "srcChannel": 7,
            "name": "CC_Crash",
            "accType": "RHYTHM",
            "editable": false,
            "mutedNotes": [],
            "mutedChords": [
              "1+2+5",
              "sus4",
              "1+5",
              "1+8",
              "7aug",
              "Maj7aug",
              "7(#9)",
              "7(b13)",
              "7(b9)",
              "7(13)",
              "7#11",
              "7(9)",
              "7b5",
              "7sus4",
              "7th",
              "dim7",
              "dim",
              "minMaj7(9)",
              "minMaj7",
              "min7(11)",
              "min7(9)",
              "min(9)",
              "m7b5",
              "min7",
              "min6",
              "min",
              "aug",
              "Maj6(9)",
              "Maj7(9)",
              "Maj(9)",
              "Maj7#11",
              "Maj7",
              "Maj6",
              "Maj"
            ],
            "autoStart": true,
            "sourceChordNote": 0,
            "sourceChordType": "Maj",
            "ctb2Low": null,
            "ctb2Main": {
              "ntr": "ROOT_FIXED",
              "ntt": "BYPASS",
              "bassOn": false,
              "chordRootUpperLimit": 0,
              "noteLowLimit": 0,
              "noteHighLimit": 127,
              "rtr": "RETRIGGER"
            },
            "ctb2High": null
          },
          "notes": []
        },
        "9": {
          "ctab": {
            "srcChannel": 9,
            "name": "Drums",
            "accType": "RHYTHM",
            "editable": false,
            "mutedNotes": [],
            "mutedChords": [],
            "autoStart": true,
            "sourceChordNote": 0,
            "sourceChordType": "Maj7",
            "ctb2Low": null,
            "ctb2Main": {
              "ntr": "ROOT_FIXED",
              "ntt": "BYPASS",
              "bassOn": false,
              "chordRootUpperLimit": 6,
              "noteLowLimit": 0,
              "noteHighLimit": 127,
              "rtr": "PITCH_SHIFT"
            },
            "ctb2High": null
          },
          "notes": [
            {
              "pitch": 25,
              "velocity": 60,
              "position": 0,
              "duration": 0.010416666666666666
            },
            {
              "pitch": 35,
              "velocity": 40,
              "position": 0,
              "duration": 0.010416666666666666
            },
            {
              "pitch": 26,
              "velocity": 38,
              "position": 0,
              "duration": 0.9895833333333334
            },
            {
              "pitch": 25,
              "velocity": 60,
              "position": 1,
              "duration": 0.010416666666666666
            },
            {
              "pitch": 44,
              "velocity": 48,
              "position": 1,
              "duration": 0.010416666666666666
            },
            {
              "pitch": 28,
              "velocity": 34,
              "position": 1,
              "duration": 0.9895833333333334
            },
            {
              "pitch": 25,
              "velocity": 60,
              "position": 2,
              "duration": 0.010416666666666666
            },
            {
              "pitch": 35,
              "velocity": 40,
              "position": 2,
              "duration": 0.010416666666666666
            },
            {
              "pitch": 26,
              "velocity": 38,
              "position": 2,
              "duration": 0.9895833333333334
            },
            {
              "pitch": 25,
              "velocity": 60,
              "position": 3,
              "duration": 0.010416666666666666
            },
            {
              "pitch": 44,
              "velocity": 48,
              "position": 3,
              "duration": 0.010416666666666666
            },
            {
              "pitch": 25,
              "velocity": 30,
              "position": 3.6666666666666665,
              "duration": 0.010416666666666666
            },
            {
              "pitch": 28,
              "velocity": 34,
              "position": 3,
              "duration": 0.9895833333333334
            },
            {
              "pitch": 25,
              "velocity": 60,
              "position": 4,
              "duration": 0.010416666666666666
            },
            {
              "pitch": 35,
              "velocity": 40,
              "position": 4,
              "duration": 0.010416666666666666
            },
            {
              "pitch": 26,
              "velocity": 38,
              "position": 4,
              "duration": 0.9895833333333334
            },
            {
              "pitch": 25,
              "velocity": 60,
              "position": 5,
              "duration": 0.010416666666666666
            },
            {
              "pitch": 44,
              "velocity": 48,
              "position": 5,
              "duration": 0.010416666666666666
            },
            {
              "pitch": 25,
              "velocity": 30,
              "position": 5.666666666666667,
              "duration": 0.010416666666666666
            },
            {
              "pitch": 28,
              "velocity": 34,
              "position": 5,
              "duration": 0.9895833333333334
            },
            {
              "pitch": 25,
              "velocity": 60,
              "position": 6,
              "duration": 0.010416666666666666
            },
            {
              "pitch": 35,
              "velocity": 40,
              "position": 6,
              "duration": 0.010416666666666666
            },
            {
              "pitch": 26,
              "velocity": 38,
              "position": 6,
              "duration": 0.9895833333333334
            },
            {
              "pitch": 25,
              "velocity": 60,
              "position": 7,
              "duration": 0.010416666666666666
            },
            {
              "pitch": 44,
              "velocity": 48,
              "position": 7,
              "duration": 0.010416666666666666
            },
            {
              "pitch": 25,
              "velocity": 30,
              "position": 7.666666666666667,
              "duration": 0.010416666666666666
            },
            {
              "pitch": 28,
              "velocity": 34,
              "position": 7,
              "duration": 0.9895833333333334
            }
          ]
        },
        "10": {
          "ctab": {
            "srcChannel": 10,
            "name": "Bass 1",
            "accType": "BASS",
            "editable": false,
            "mutedNotes": [],
            "mutedChords": [
              "sus4",
              "7aug",
              "dim",
              "minMaj7(9)",
              "minMaj7",
              "min(9)",
              "m7b5",
              "min",
              "aug"
            ],
            "autoStart": false,
            "sourceChordNote": 0,
            "sourceChordType": "Maj7",
            "ctb2Low": null,
            "ctb2Main": {
              "ntr": "ROOT_TRANSPOSITION",
              "ntt": "MELODY",
              "bassOn": true,
              "chordRootUpperLimit": 8,
              "noteLowLimit": 28,
              "noteHighLimit": 127,
              "rtr": "PITCH_SHIFT_TO_ROOT"
            },
            "ctb2High": null
          },
          "notes": [
            {
              "pitch": 24,
              "velocity": 58,
              "position": 0,
              "duration": 1.5625
            },
            {
              "pitch": 24,
              "velocity": 110,
              "position": 1.6666666666666667,
              "duration": 0.11458333333333333
            },
            {
              "pitch": 24,
              "velocity": 58,
              "position": 2,
              "duration": 1.9895833333333333
            },
            {
              "pitch": 24,
              "velocity": 58,
              "position": 4,
              "duration": 1.5625
            },
            {
              "pitch": 24,
              "velocity": 110,
              "position": 5.666666666666667,
              "duration": 0.11458333333333333
            },
            {
              "pitch": 24,
              "velocity": 58,
              "position": 6,
              "duration": 1.9895833333333333
            }
          ]
        },
        "11": {
          "ctab": {
            "srcChannel": 11,
            "name": "Gt",
            "accType": "CHORD1",
            "editable": false,
            "mutedNotes": [],
            "mutedChords": [],
            "autoStart": false,
            "sourceChordNote": 0,
            "sourceChordType": "Maj7",
            "ctb2Low": null,
            "ctb2Main": {
              "ntr": "ROOT_FIXED",
              "ntt": "CHORD",
              "bassOn": false,
              "chordRootUpperLimit": 7,
              "noteLowLimit": 0,
              "noteHighLimit": 127,
              "rtr": "PITCH_SHIFT"
            },
            "ctb2High": null
          },
          "notes": [
            {
              "pitch": 55,
              "velocity": 98,
              "position": 0,
              "duration": 0.9895833333333334
            },
            {
              "pitch": 59,
              "velocity": 98,
              "position": 0,
              "duration": 0.9895833333333334
            },
            {
              "pitch": 64,
              "velocity": 98,
              "position": 0,
              "duration": 0.9895833333333334
            },
            {
              "pitch": 55,
              "velocity": 98,
              "position": 1,
              "duration": 0.22916666666666666
            },
            {
              "pitch": 59,
              "velocity": 98,
              "position": 1,
              "duration": 0.22916666666666666
            },
            {
              "pitch": 64,
              "velocity": 98,
              "position": 1,
              "duration": 0.22916666666666666
            },
            {
              "pitch": 55,
              "velocity": 98,
              "position": 2,
              "duration": 0.9895833333333334
            },
            {
              "pitch": 59,
              "velocity": 98,
              "position": 2,
              "duration": 0.9895833333333334
            },
            {
              "pitch": 64,
              "velocity": 98,
              "position": 2,
              "duration": 0.9895833333333334
            },
            {
              "pitch": 55,
              "velocity": 98,
              "position": 3,
              "duration": 0.22916666666666666
            },
            {
              "pitch": 59,
              "velocity": 98,
              "position": 3,
              "duration": 0.22916666666666666
            },
            {
              "pitch": 64,
              "velocity": 98,
              "position": 3,
              "duration": 0.22916666666666666
            },
            {
              "pitch": 55,
              "velocity": 98,
              "position": 4,
              "duration": 0.9895833333333334
            },
            {
              "pitch": 59,
              "velocity": 98,
              "position": 4,
              "duration": 0.9895833333333334
            },
            {
              "pitch": 64,
              "velocity": 98,
              "position": 4,
              "duration": 0.9895833333333334
            },
            {
              "pitch": 55,
              "velocity": 98,
              "position": 5,
              "duration": 0.22916666666666666
            },
            {
              "pitch": 59,
              "velocity": 98,
              "position": 5,
              "duration": 0.22916666666666666
            },
            {
              "pitch": 64,
              "velocity": 98,
              "position": 5,
              "duration": 0.22916666666666666
            },
            {
              "pitch": 55,
              "velocity": 98,
              "position": 6,
              "duration": 0.9895833333333334
            },
            {
              "pitch": 59,
              "velocity": 98,
              "position": 6,
              "duration": 0.9895833333333334
            },
            {
              "pitch": 64,
              "velocity": 98,
              "position": 6,
              "duration": 0.9895833333333334
            },
            {
              "pitch": 55,
              "velocity": 98,
              "position": 7,
              "duration": 0.22916666666666666
            },
            {
              "pitch": 59,
              "velocity": 98,
              "position": 7,
              "duration": 0.22916666666666666
            },
            {
              "pitch": 64,
              "velocity": 98,
              "position": 7,
              "duration": 0.22916666666666666
            }
          ]
        },
        "12": {
          "ctab": {
            "srcChannel": 12,
            "name": "EP",
            "accType": "CHORD2",
            "editable": false,
            "mutedNotes": [],
            "mutedChords": [],
            "autoStart": false,
            "sourceChordNote": 0,
            "sourceChordType": "Maj7",
            "ctb2Low": null,
            "ctb2Main": {
              "ntr": "ROOT_FIXED",
              "ntt": "CHORD",
              "bassOn": false,
              "chordRootUpperLimit": 7,
              "noteLowLimit": 0,
              "noteHighLimit": 127,
              "rtr": "PITCH_SHIFT"
            },
            "ctb2High": null
          },
          "notes": [
            {
              "pitch": 59,
              "velocity": 78,
              "position": 0,
              "duration": 1.9895833333333333
            },
            {
              "pitch": 64,
              "velocity": 78,
              "position": 0,
              "duration": 1.9895833333333333
            },
            {
              "pitch": 67,
              "velocity": 78,
              "position": 0,
              "duration": 1.9895833333333333
            },
            {
              "pitch": 59,
              "velocity": 57,
              "position": 2,
              "duration": 1.9895833333333333
            },
            {
              "pitch": 64,
              "velocity": 57,
              "position": 2,
              "duration": 1.9895833333333333
            },
            {
              "pitch": 67,
              "velocity": 57,
              "position": 2,
              "duration": 1.9895833333333333
            },
            {
              "pitch": 59,
              "velocity": 78,
              "position": 4,
              "duration": 2.65625
            },
            {
              "pitch": 64,
              "velocity": 78,
              "position": 4,
              "duration": 2.65625
            },
            {
              "pitch": 67,
              "velocity": 78,
              "position": 4,
              "duration": 2.65625
            },
            {
              "pitch": 59,
              "velocity": 68,
              "position": 6.666666666666667,
              "duration": 1.3229166666666667
            },
            {
              "pitch": 64,
              "velocity": 68,
              "position": 6.666666666666667,
              "duration": 1.3229166666666667
            },
            {
              "pitch": 67,
              "velocity": 68,
              "position": 6.666666666666667,
              "duration": 1.3229166666666667
            }
          ]
        },
        "13": {
          "ctab": {
            "srcChannel": 13,
            "name": "Str",
            "accType": "PAD",
            "editable": false,
            "mutedNotes": [],
            "mutedChords": [],
            "autoStart": false,
            "sourceChordNote": 0,
            "sourceChordType": "Maj7",
            "ctb2Low": null,
            "ctb2Main": {
              "ntr": "ROOT_FIXED",
              "ntt": "CHORD",
              "bassOn": false,
              "chordRootUpperLimit": 7,
              "noteLowLimit": 0,
              "noteHighLimit": 79,
              "rtr": "PITCH_SHIFT"
            },
            "ctb2High": null
          },
          "notes": [
            {
              "pitch": 55,
              "velocity": 19,
              "position": 0.010416666666666666,
              "duration": 7.979166666666667
            },
            {
              "pitch": 59,
              "velocity": 19,
              "position": 0.010416666666666666,
              "duration": 7.979166666666667
            },
            {
              "pitch": 64,
              "velocity": 19,
              "position": 0.010416666666666666,
              "duration": 7.979166666666667
            }
          ]
        },
        "14": {
          "ctab": {
            "srcChannel": 14,
            "name": "Pno",
            "accType": "PHRASE1",
            "editable": false,
            "mutedNotes": [],
            "mutedChords": [],
            "autoStart": false,
            "sourceChordNote": 0,
            "sourceChordType": "Maj7",
            "ctb2Low": null,
            "ctb2Main": {
              "ntr": "ROOT_FIXED",
              "ntt": "CHORD",
              "bassOn": false,
              "chordRootUpperLimit": 7,
              "noteLowLimit": 0,
              "noteHighLimit": 127,
              "rtr": "PITCH_SHIFT"
            },
            "ctb2High": null
          },
          "notes": [
            {
              "pitch": 55,
              "velocity": 51,
              "position": 0.010416666666666666,
              "duration": 2.65625
            },
            {
              "pitch": 59,
              "velocity": 51,
              "position": 0.010416666666666666,
              "duration": 2.65625
            },
            {
              "pitch": 64,
              "velocity": 51,
              "position": 0.010416666666666666,
              "duration": 2.65625
            },
            {
              "pitch": 55,
              "velocity": 51,
              "position": 2.6770833333333335,
              "duration": 1.3229166666666667
            },
            {
              "pitch": 59,
              "velocity": 51,
              "position": 2.6770833333333335,
              "duration": 1.3229166666666667
            },
            {
              "pitch": 64,
              "velocity": 51,
              "position": 2.6770833333333335,
              "duration": 1.3229166666666667
            },
            {
              "pitch": 55,
              "velocity": 34,
              "position": 4.010416666666667,
              "duration": 0.65625
            },
            {
              "pitch": 59,
              "velocity": 34,
              "position": 4.010416666666667,
              "duration": 0.65625
            },
            {
              "pitch": 64,
              "velocity": 34,
              "position": 4.010416666666667,
              "duration": 0.65625
            },
            {
              "pitch": 55,
              "velocity": 51,
              "position": 4.677083333333333,
              "duration": 3.3125
            },
            {
              "pitch": 59,
              "velocity": 51,
              "position": 4.677083333333333,
              "duration": 3.3125
            },
            {
              "pitch": 64,
              "velocity": 51,
              "position": 4.677083333333333,
              "duration": 3.3125
            }
          ]
        }
      }
    },
    "Main_C": {
      "type": "Main_C",
      "sizeInBeats": 8,
      "channels": {
        "1": {
          "ctab": {
            "srcChannel": 1,
            "name": "Bass 2",
            "accType": "BASS",
            "editable": false,
            "mutedNotes": [],
            "mutedChords": [
              "1+2+5",
              "1+5",
              "1+8",
              "Maj7aug",
              "7(#9)",
              "7(b13)",
              "7(b9)",
              "7(13)",
              "7#11",
              "7(9)",
              "7b5",
              "7sus4",
              "7th",
              "dim7",
              "min7(11)",
              "min7(9)",
              "min7",
              "min6",
              "Maj6(9)",
              "Maj7(9)",
              "Maj(9)",
              "Maj7#11",
              "Maj7",
              "Maj6",
              "Maj"
            ],
            "autoStart": false,
            "sourceChordNote": 0,
            "sourceChordType": "Maj7",
            "ctb2Low": null,
            "ctb2Main": {
              "ntr": "ROOT_TRANSPOSITION",
              "ntt": "MELODY",
              "bassOn": true,
              "chordRootUpperLimit": 8,
              "noteLowLimit": 28,
              "noteHighLimit": 127,
              "rtr": "PITCH_SHIFT_TO_ROOT"
            },
            "ctb2High": null
          },
          "notes": [
            {
              "pitch": 24,
              "velocity": 58,
              "position": 0,
              "duration": 1.5625
            },
            {
              "pitch": 24,
              "velocity": 110,
              "position": 1.6666666666666667,
              "duration": 0.11458333333333333
            },
            {
              "pitch": 31,
              "velocity": 58,
              "position": 2,
              "duration": 1.5625
            },
            {
              "pitch": 31,
              "velocity": 110,
              "position": 3.6666666666666665,
              "duration": 0.11458333333333333
            },
            {
              "pitch": 24,
              "velocity": 58,
              "position": 4,
              "duration": 1.5625
            },
            {
              "pitch": 24,
              "velocity": 110,
              "position": 5.666666666666667,
              "duration": 0.11458333333333333
            },
            {
              "pitch": 31,
              "velocity": 58,
              "position": 6,
              "duration": 1.5625
            },
            {
              "pitch": 31,
              "velocity": 110,
              "position": 7.666666666666667,
              "duration": 0.11458333333333333
            }
          ]
        },
        "2": {
          "ctab": {
            "srcChannel": 2,
            "name": "Gt Root",
            "accType": "CHORD1",
            "editable": false,
            "mutedNotes": [],
            "mutedChords": [
              "1+2+5",
              "sus4",
              "1+5",
              "1+8",
              "Maj7aug",
              "dim",
              "minMaj7(9)",
              "minMaj7",
              "min6",
              "min",
              "aug",
              "Maj7(9)",
              "Maj7#11",
              "Maj7",
              "Maj6",
              "Maj"
            ],
            "autoStart": false,
            "sourceChordNote": 0,
            "sourceChordType": "Maj7",
            "ctb2Low": null,
            "ctb2Main": {
              "ntr": "ROOT_TRANSPOSITION",
              "ntt": "CHORD",
              "bassOn": false,
              "chordRootUpperLimit": 6,
              "noteLowLimit": 0,
              "noteHighLimit": 127,
              "rtr": "PITCH_SHIFT"
            },
            "ctb2High": null
          },
          "notes": [
            {
              "pitch": 60,
              "velocity": 98,
              "position": 0,
              "duration": 0.22916666666666666
            },
            {
              "pitch": 60,
              "velocity": 98,
              "position": 1,
              "duration": 0.22916666666666666
            },
            {
              "pitch": 60,
              "velocity": 98,
              "position": 2,
              "duration": 0.22916666666666666
            },
            {
              "pitch": 60,
              "velocity": 98,
              "position": 3,
              "duration": 0.22916666666666666
            },
            {
              "pitch": 60,
              "velocity": 98,
              "position": 4,
              "duration": 0.22916666666666666
            },
            {
              "pitch": 60,
              "velocity": 98,
              "position": 5,
              "duration": 0.22916666666666666
            },
            {
              "pitch": 60,
              "velocity": 98,
              "position": 6,
              "duration": 0.22916666666666666
            },
            {
              "pitch": 60,
              "velocity": 98,
              "position": 7,
              "duration": 0.22916666666666666
            }
          ]
        },
        "4": {
          "ctab": {
            "srcChannel": 4,
            "name": "Str Root",
            "accType": "PAD",
            "editable": false,
            "mutedNotes": [],
            "mutedChords": [
              "1+2+5",
              "sus4",
              "1+5",
              "1+8",
              "Maj7aug",
              "dim",
              "minMaj7(9)",
              "minMaj7",
              "min6",
              "min",
              "aug",
              "Maj7(9)",
              "Maj7#11",
              "Maj7",
              "Maj6",
              "Maj"
            ],
            "autoStart": false,
            "sourceChordNote": 0,
            "sourceChordType": "Maj7",
            "ctb2Low": null,
            "ctb2Main": {
              "ntr": "ROOT_TRANSPOSITION",
              "ntt": "CHORD",
              "bassOn": false,
              "chordRootUpperLimit": 6,
              "noteLowLimit": 0,
              "noteHighLimit": 70,
              "rtr": "PITCH_SHIFT"
            },
            "ctb2High": null
          },
          "notes": [
            {
              "pitch": 60,
              "velocity": 22,
              "position": 0.010416666666666666,
              "duration": 7.979166666666667
            }
          ]
        },
        "7": {
          "ctab": {
            "srcChannel": 7,
            "name": "CC_Crash",
            "accType": "RHYTHM",
            "editable": false,
            "mutedNotes": [],
            "mutedChords": [
              "1+2+5",
              "sus4",
              "1+5",
              "1+8",
              "7aug",
              "Maj7aug",
              "7(#9)",
              "7(b13)",
              "7(b9)",
              "7(13)",
              "7#11",
              "7(9)",
              "7b5",
              "7sus4",
              "7th",
              "dim7",
              "dim",
              "minMaj7(9)",
              "minMaj7",
              "min7(11)",
              "min7(9)",
              "min(9)",
              "m7b5",
              "min7",
              "min6",
              "min",
              "aug",
              "Maj6(9)",
              "Maj7(9)",
              "Maj(9)",
              "Maj7#11",
              "Maj7",
              "Maj6",
              "Maj"
            ],
            "autoStart": true,
            "sourceChordNote": 0,
            "sourceChordType": "Maj",
            "ctb2Low": null,
            "ctb2Main": {
              "ntr": "ROOT_FIXED",
              "ntt": "BYPASS",
              "bassOn": false,
              "chordRootUpperLimit": 0,
              "noteLowLimit": 0,
              "noteHighLimit": 127,
              "rtr": "RETRIGGER"
            },
            "ctb2High": null
          },
          "notes": []
        },
        "9": {
          "ctab": {
            "srcChannel": 9,
            "name": "Drums",
            "accType": "RHYTHM",
            "editable": false,
            "mutedNotes": [],
            "mutedChords": [],
            "autoStart": true,
            "sourceChordNote": 0,
            "sourceChordType": "Maj7",
            "ctb2Low": null,
            "ctb2Main": {
              "ntr": "ROOT_FIXED",
              "ntt": "BYPASS",
              "bassOn": false,
              "chordRootUpperLimit": 6,
              "noteLowLimit": 0,
              "noteHighLimit": 127,
              "rtr": "PITCH_SHIFT"
            },
            "ctb2High": null
          },
          "notes": [
            {
              "pitch": 25,
              "velocity": 60,
              "position": 0,
              "duration": 0.010416666666666666
            },
            {
              "pitch": 35,
              "velocity": 40,
              "position": 0,
              "duration": 0.010416666666666666
            },
            {
              "pitch": 51,
              "velocity": 54,
              "position": 0,
              "duration": 0.010416666666666666
            },
            {
              "pitch": 26,
              "velocity": 38,
              "position": 0,
              "duration": 0.9895833333333334
            },
            {
              "pitch": 25,
              "velocity": 60,
              "position": 1,
              "duration": 0.010416666666666666
            },
            {
              "pitch": 44,
              "velocity": 48,
              "position": 1,
              "duration": 0.010416666666666666
            },
            {
              "pitch": 51,
              "velocity": 54,
              "position": 1,
              "duration": 0.010416666666666666
            },
            {
              "pitch": 28,
              "velocity": 34,
              "position": 1,
              "duration": 0.9895833333333334
            },
            {
              "pitch": 25,
              "velocity": 60,
              "position": 2,
              "duration": 0.010416666666666666
            },
            {
              "pitch": 35,
              "velocity": 40,
              "position": 2,
              "duration": 0.010416666666666666
            },
            {
              "pitch": 51,
              "velocity": 54,
              "position": 2,
              "duration": 0.010416666666666666
            },
            {
              "pitch": 26,
              "velocity": 38,
              "position": 2,
              "duration": 0.9895833333333334
            },
            {
              "pitch": 25,
              "velocity": 60,
              "position": 3,
              "duration": 0.010416666666666666
            },
            {
              "pitch": 44,
              "velocity": 48,
              "position": 3,
              "duration": 0.010416666666666666
            },
            {
              "pitch": 51,
              "velocity": 54,
              "position": 3,
              "duration": 0.010416666666666666
            },
            {
              "pitch": 25,
              "velocity": 30,
              "position": 3.6666666666666665,
              "duration": 0.010416666666666666
            },
            {
              "pitch": 28,
              "velocity": 34,
              "position": 3,
              "duration": 0.9895833333333334
            },
            {
              "pitch": 25,
              "velocity": 60,
              "position": 4,
              "duration": 0.010416666666666666
            },
            {
              "pitch": 35,
              "velocity": 40,
              "position": 4,
              "duration": 0.010416666666666666
            },
            {
              "pitch": 51,
              "velocity": 54,
              "position": 4,
              "duration": 0.010416666666666666
            },
            {
              "pitch": 26,
              "velocity": 38,
              "position": 4,
              "duration": 0.9895833333333334
            },
            {
              "pitch": 25,
              "velocity": 60,
              "position": 5,
              "duration": 0.010416666666666666
            },
            {
              "pitch": 44,
              "velocity": 48,
              "position": 5,
              "duration": 0.010416666666666666
            },
            {
              "pitch": 51,
              "velocity": 54,
              "position": 5,
              "duration": 0.010416666666666666
            },
            {
              "pitch": 25,
              "velocity": 30,
              "position": 5.666666666666667,
              "duration": 0.010416666666666666
            },
            {
              "pitch": 28,
              "velocity": 34,
              "position": 5,
              "duration": 0.9895833333333334
            },
            {
              "pitch": 25,
              "velocity": 60,
              "position": 6,
              "duration": 0.010416666666666666
            },
            {
              "pitch": 35,
              "velocity": 40,
              "position": 6,
              "duration": 0.010416666666666666
            },
            {
              "pitch": 51,
              "velocity": 54,
              "position": 6,
              "duration": 0.010416666666666666
            },
            {
              "pitch": 26,
              "velocity": 38,
              "position": 6,
              "duration": 0.9895833333333334
            },
            {
              "pitch": 25,
              "velocity": 60,
              "position": 7,
              "duration": 0.010416666666666666
            },
            {
              "pitch": 44,
              "velocity": 48,
              "position": 7,
              "duration": 0.010416666666666666
            },
            {
              "pitch": 51,
              "velocity": 54,
              "position": 7,
              "duration": 0.010416666666666666
            },
            {
              "pitch": 25,
              "velocity": 30,
              "position": 7.666666666666667,
              "duration": 0.010416666666666666
            },
            {
              "pitch": 28,
              "velocity": 34,
              "position": 7,
              "duration": 0.9895833333333334
            }
          ]
        },
        "10": {
          "ctab": {
            "srcChannel": 10,
            "name": "Bass 1",
            "accType": "BASS",
            "editable": false,
            "mutedNotes": [],
            "mutedChords": [
              "sus4",
              "7aug",
              "dim",
              "minMaj7(9)",
              "minMaj7",
              "min(9)",
              "m7b5",
              "min",
              "aug"
            ],
            "autoStart": false,
            "sourceChordNote": 0,
            "sourceChordType": "Maj7",
            "ctb2Low": null,
            "ctb2Main": {
              "ntr": "ROOT_TRANSPOSITION",
              "ntt": "MELODY",
              "bassOn": true,
              "chordRootUpperLimit": 8,
              "noteLowLimit": 28,
              "noteHighLimit": 127,
              "rtr": "PITCH_SHIFT_TO_ROOT"
            },
            "ctb2High": null
          },
          "notes": [
            {
              "pitch": 24,
              "velocity": 58,
              "position": 0,
              "duration": 1.5625
            },
            {
              "pitch": 24,
              "velocity": 110,
              "position": 1.6666666666666667,
              "duration": 0.11458333333333333
            },
            {
              "pitch": 31,
              "velocity": 58,
              "position": 2,
              "duration": 1.5625
            },
            {
              "pitch": 31,
              "velocity": 110,
              "position": 3.6666666666666665,
              "duration": 0.11458333333333333
            },
            {
              "pitch": 24,
              "velocity": 58,
              "position": 4,
              "duration": 1.5625
            },
            {
              "pitch": 24,
              "velocity": 110,
              "position": 5.666666666666667,
              "duration": 0.11458333333333333
            },
            {
              "pitch": 31,
              "velocity": 58,
              "position": 6,
              "duration": 1.5625
            },
            {
              "pitch": 31,
              "velocity": 110,
              "position": 7.666666666666667,
              "duration": 0.11458333333333333
            }
          ]
        },
        "11": {
          "ctab": {
            "srcChannel": 11,
            "name": "Gt",
            "accType": "CHORD1",
            "editable": false,
            "mutedNotes": [],
            "mutedChords": [],
            "autoStart": false,
            "sourceChordNote": 0,
            "sourceChordType": "Maj7",
            "ctb2Low": null,
            "ctb2Main": {
              "ntr": "ROOT_FIXED",
              "ntt": "CHORD",
              "bassOn": false,
              "chordRootUpperLimit": 7,
              "noteLowLimit": 0,
              "noteHighLimit": 127,
              "rtr": "PITCH_SHIFT"
            },
            "ctb2High": null
          },
          "notes": [
            {
              "pitch": 55,
              "velocity": 98,
              "position": 0,
              "duration": 0.22916666666666666
            },
            {
              "pitch": 59,
              "velocity": 98,
              "position": 0,
              "duration": 0.22916666666666666
            },
            {
              "pitch": 64,
              "velocity": 98,
              "position": 0,
              "duration": 0.22916666666666666
            },
            {
              "pitch": 55,
              "velocity": 98,
              "position": 1,
              "duration": 0.22916666666666666
            },
            {
              "pitch": 59,
              "velocity": 98,
              "position": 1,
              "duration": 0.22916666666666666
            },
            {
              "pitch": 64,
              "velocity": 98,
              "position": 1,
              "duration": 0.22916666666666666
            },
            {
              "pitch": 55,
              "velocity": 98,
              "position": 2,
              "duration": 0.22916666666666666
            },
            {
              "pitch": 59,
              "velocity": 98,
              "position": 2,
              "duration": 0.22916666666666666
            },
            {
              "pitch": 64,
              "velocity": 98,
              "position": 2,
              "duration": 0.22916666666666666
            },
            {
              "pitch": 55,
              "velocity": 98,
              "position": 3,
              "duration": 0.22916666666666666
            },
            {
              "pitch": 59,
              "velocity": 98,
              "position": 3,
              "duration": 0.22916666666666666
            },
            {
              "pitch": 64,
              "velocity": 98,
              "position": 3,
              "duration": 0.22916666666666666
            },
            {
              "pitch": 55,
              "velocity": 98,
              "position": 4,
              "duration": 0.22916666666666666
            },
            {
              "pitch": 59,
              "velocity": 98,
              "position": 4,
              "duration": 0.22916666666666666
            },
            {
              "pitch": 64,
              "velocity": 98,
              "position": 4,
              "duration": 0.22916666666666666
            },
            {
              "pitch": 55,
              "velocity": 98,
              "position": 5,
              "duration": 0.22916666666666666
            },
            {
              "pitch": 59,
              "velocity": 98,
              "position": 5,
              "duration": 0.22916666666666666
            },
            {
              "pitch": 64,
              "velocity": 98,
              "position": 5,
              "duration": 0.22916666666666666
            },
            {
              "pitch": 55,
              "velocity": 98,
              "position": 6,
              "duration": 0.22916666666666666
            },
            {
              "pitch": 59,
              "velocity": 98,
              "position": 6,
              "duration": 0.22916666666666666
            },
            {
              "pitch": 64,
              "velocity": 98,
              "position": 6,
              "duration": 0.22916666666666666
            },
            {
              "pitch": 55,
              "velocity": 98,
              "position": 7,
              "duration": 0.22916666666666666
            },
            {
              "pitch": 59,
              "velocity": 98,
              "position": 7,
              "duration": 0.22916666666666666
            },
            {
              "pitch": 64,
              "velocity": 98,
              "position": 7,
              "duration": 0.22916666666666666
            }
          ]
        },
        "12": {
          "ctab": {
            "srcChannel": 12,
            "name": "EP",
            "accType": "CHORD2",
            "editable": false,
            "mutedNotes": [],
            "mutedChords": [],
            "autoStart": false,
            "sourceChordNote": 0,
            "sourceChordType": "Maj7",
            "ctb2Low": null,
            "ctb2Main": {
              "ntr": "ROOT_FIXED",
              "ntt": "CHORD",
              "bassOn": false,
              "chordRootUpperLimit": 7,
              "noteLowLimit": 0,
              "noteHighLimit": 127,
              "rtr": "PITCH_SHIFT"
            },
            "ctb2High": null
          },
          "notes": [
            {
              "pitch": 59,
              "velocity": 78,
              "position": 0,
              "duration": 1.9895833333333333
            },
            {
              "pitch": 64,
              "velocity": 78,
              "position": 0,
              "duration": 1.9895833333333333
            },
            {
              "pitch": 67,
              "velocity": 78,
              "position": 0,
              "duration": 1.9895833333333333
            },
            {
              "pitch": 59,
              "velocity": 57,
              "position": 2,
              "duration": 1.9895833333333333
            },
            {
              "pitch": 64,
              "velocity": 57,
              "position": 2,
              "duration": 1.9895833333333333
            },
            {
              "pitch": 67,
              "velocity": 57,
              "position": 2,
              "duration": 1.9895833333333333
            },
            {
              "pitch": 59,
              "velocity": 78,
              "position": 4,
              "duration": 2.65625
            },
            {
              "pitch": 64,
              "velocity": 78,
              "position": 4,
              "duration": 2.65625
            },
            {
              "pitch": 67,
              "velocity": 78,
              "position": 4,
              "duration": 2.65625
            },
            {
              "pitch": 59,
              "velocity": 68,
              "position": 6.666666666666667,
              "duration": 1.3229166666666667
            },
            {
              "pitch": 64,
              "velocity": 68,
              "position": 6.666666666666667,
              "duration": 1.3229166666666667
            },
            {
              "pitch": 67,
              "velocity": 68,
              "position": 6.666666666666667,
              "duration": 1.3229166666666667
            }
          ]
        },
        "13": {
          "ctab": {
            "srcChannel": 13,
            "name": "Str",
            "accType": "PAD",
            "editable": false,
            "mutedNotes": [],
            "mutedChords": [],
            "autoStart": false,
            "sourceChordNote": 0,
            "sourceChordType": "Maj7",
            "ctb2Low": null,
            "ctb2Main": {
              "ntr": "ROOT_FIXED",
              "ntt": "CHORD",
              "bassOn": false,
              "chordRootUpperLimit": 7,
              "noteLowLimit": 0,
              "noteHighLimit": 79,
              "rtr": "PITCH_SHIFT"
            },
            "ctb2High": null
          },
          "notes": [
            {
              "pitch": 55,
              "velocity": 23,
              "position": 0.010416666666666666,
              "duration": 7.979166666666667
            },
            {
              "pitch": 59,
              "velocity": 23,
              "position": 0.010416666666666666,
              "duration": 7.979166666666667
            },
            {
              "pitch": 64,
              "velocity": 23,
              "position": 0.010416666666666666,
              "duration": 7.979166666666667
            },
            {
              "pitch": 79,
              "velocity": 18,
              "position": 0.010416666666666666,
              "duration": 7.979166666666667
            },
            {
              "pitch": 83,
              "velocity": 18,
              "position": 0.010416666666666666,
              "duration": 7.979166666666667
            },
            {
              "pitch": 88,
              "velocity": 18,
              "position": 0.010416666666666666,
              "duration": 7.979166666666667
            }
          ]
        },
        "14": {
          "ctab": {
            "srcChannel": 14,
            "name": "Pno",
            "accType": "PHRASE1",
            "editable": false,
            "mutedNotes": [],
            "mutedChords": [],
            "autoStart": false,
            "sourceChordNote": 0,
            "sourceChordType": "Maj7",
            "ctb2Low": null,
            "ctb2Main": {
              "ntr": "ROOT_FIXED",
              "ntt": "CHORD",
              "bassOn": false,
              "chordRootUpperLimit": 7,
              "noteLowLimit": 0,
              "noteHighLimit": 127,
              "rtr": "PITCH_SHIFT"
            },
            "ctb2High": null
          },
          "notes": [
            {
              "pitch": 55,
              "velocity": 51,
              "position": 0.010416666666666666,
              "duration": 1.65625
            },
            {
              "pitch": 59,
              "velocity": 51,
              "position": 0.010416666666666666,
              "duration": 1.65625
            },
            {
              "pitch": 64,
              "velocity": 51,
              "position": 0.010416666666666666,
              "duration": 1.65625
            },
            {
              "pitch": 55,
              "velocity": 51,
              "position": 1.6770833333333333,
              "duration": 0.22916666666666666
            },
            {
              "pitch": 59,
              "velocity": 51,
              "position": 1.6770833333333333,
              "duration": 0.22916666666666666
            },
            {
              "pitch": 64,
              "velocity": 51,
              "position": 1.6770833333333333,
              "duration": 0.22916666666666666
            },
            {
              "pitch": 55,
              "velocity": 51,
              "position": 2.6770833333333335,
              "duration": 1.3229166666666667
            },
            {
              "pitch": 59,
              "velocity": 51,
              "position": 2.6770833333333335,
              "duration": 1.3229166666666667
            },
            {
              "pitch": 64,
              "velocity": 51,
              "position": 2.6770833333333335,
              "duration": 1.3229166666666667
            },
            {
              "pitch": 55,
              "velocity": 34,
              "position": 4.010416666666667,
              "duration": 0.65625
            },
            {
              "pitch": 59,
              "velocity": 34,
              "position": 4.010416666666667,
              "duration": 0.65625
            },
            {
              "pitch": 64,
              "velocity": 34,
              "position": 4.010416666666667,
              "duration": 0.65625
            },
            {
              "pitch": 55,
              "velocity": 51,
              "position": 4.677083333333333,
              "duration": 0.6458333333333334
            },
            {
              "pitch": 64,
              "velocity": 51,
              "position": 4.677083333333333,
              "duration": 0.9791666666666666
            },
            {
              "pitch": 59,
              "velocity": 51,
              "position": 4.677083333333333,
              "duration": 1.6458333333333333
            },
            {
              "pitch": 64,
              "velocity": 51,
              "position": 5.677083333333333,
              "duration": 1.6458333333333333
            },
            {
              "pitch": 67,
              "velocity": 51,
              "position": 6.677083333333333,
              "duration": 0.9791666666666666
            },
            {
              "pitch": 55,
              "velocity": 51,
              "position": 5.34375,
              "duration": 2.6458333333333335
            },
            {
              "pitch": 59,
              "velocity": 51,
              "position": 6.34375,
              "duration": 1.6458333333333333
            },
            {
              "pitch": 64,
              "velocity": 51,
              "position": 7.34375,
              "duration": 0.6458333333333334
            }
          ]
        }
      }
    },
    "Main_D": {
      "type": "Main_D",
      "sizeInBeats": 16,
      "channels": {
        "1": {
          "ctab": {
            "srcChannel": 1,
            "name": "Bass 2",
            "accType": "BASS",
            "editable": false,
            "mutedNotes": [],
            "mutedChords": [
              "1+2+5",
              "1+5",
              "1+8",
              "Maj7aug",
              "7(#9)",
              "7(b13)",
              "7(b9)",
              "7(13)",
              "7#11",
              "7(9)",
              "7b5",
              "7sus4",
              "7th",
              "dim7",
              "min7(11)",
              "min7(9)",
              "min7",
              "min6",
              "Maj6(9)",
              "Maj7(9)",
              "Maj(9)",
              "Maj7#11",
              "Maj7",
              "Maj6",
              "Maj"
            ],
            "autoStart": false,
            "sourceChordNote": 0,
            "sourceChordType": "Maj7",
            "ctb2Low": null,
            "ctb2Main": {
              "ntr": "ROOT_TRANSPOSITION",
              "ntt": "MELODY",
              "bassOn": true,
              "chordRootUpperLimit": 8,
              "noteLowLimit": 28,
              "noteHighLimit": 127,
              "rtr": "PITCH_SHIFT_TO_ROOT"
            },
            "ctb2High": null
          },
          "notes": [
            {
              "pitch": 24,
              "velocity": 58,
              "position": 0,
              "duration": 0.9895833333333334
            },
            {
              "pitch": 28,
              "velocity": 58,
              "position": 1,
              "duration": 0.9895833333333334
            },
            {
              "pitch": 31,
              "velocity": 58,
              "position": 2,
              "duration": 0.9895833333333334
            },
            {
              "pitch": 28,
              "velocity": 58,
              "position": 3,
              "duration": 0.9895833333333334
            },
            {
              "pitch": 36,
              "velocity": 58,
              "position": 4,
              "duration": 0.9895833333333334
            },
            {
              "pitch": 31,
              "velocity": 58,
              "position": 5,
              "duration": 0.9895833333333334
            },
            {
              "pitch": 28,
              "velocity": 58,
              "position": 6,
              "duration": 0.9895833333333334
            },
            {
              "pitch": 31,
              "velocity": 58,
              "position": 7,
              "duration": 0.9895833333333334
            },
            {
              "pitch": 24,
              "velocity": 58,
              "position": 8,
              "duration": 0.9895833333333334
            },
            {
              "pitch": 28,
              "velocity": 58,
              "position": 9,
              "duration": 0.9895833333333334
            },
            {
              "pitch": 31,
              "velocity": 58,
              "position": 10,
              "duration": 0.9895833333333334
            },
            {
              "pitch": 28,
              "velocity": 58,
              "position": 11,
              "duration": 0.9895833333333334
            },
            {
              "pitch": 36,
              "velocity": 58,
              "position": 12,
              "duration": 0.9895833333333334
            },
            {
              "pitch": 31,
              "velocity": 58,
              "position": 13,
              "duration": 0.9895833333333334
            },
            {
              "pitch": 28,
              "velocity": 58,
              "position": 14,
              "duration": 0.9895833333333334
            },
            {
              "pitch": 31,
              "velocity": 58,
              "position": 15,
              "duration": 0.9895833333333334
            }
          ]
        },
        "2": {
          "ctab": {
            "srcChannel": 2,
            "name": "Gt Root",
            "accType": "CHORD1",
            "editable": false,
            "mutedNotes": [],
            "mutedChords": [
              "1+2+5",
              "sus4",
              "1+5",
              "1+8",
              "Maj7aug",
              "dim",
              "minMaj7(9)",
              "minMaj7",
              "min6",
              "min",
              "aug",
              "Maj7(9)",
              "Maj7#11",
              "Maj7",
              "Maj6",
              "Maj"
            ],
            "autoStart": false,
            "sourceChordNote": 0,
            "sourceChordType": "Maj7",
            "ctb2Low": null,
            "ctb2Main": {
              "ntr": "ROOT_TRANSPOSITION",
              "ntt": "CHORD",
              "bassOn": false,
              "chordRootUpperLimit": 6,
              "noteLowLimit": 0,
              "noteHighLimit": 127,
              "rtr": "PITCH_SHIFT"
            },
            "ctb2High": null
          },
          "notes": [
            {
              "pitch": 60,
              "velocity": 98,
              "position": 0,
              "duration": 0.22916666666666666
            },
            {
              "pitch": 60,
              "velocity": 98,
              "position": 1,
              "duration": 0.22916666666666666
            },
            {
              "pitch": 60,
              "velocity": 98,
              "position": 2,
              "duration": 0.22916666666666666
            },
            {
              "pitch": 60,
              "velocity": 98,
              "position": 3,
              "duration": 0.22916666666666666
            },
            {
              "pitch": 60,
              "velocity": 98,
              "position": 4,
              "duration": 0.22916666666666666
            },
            {
              "pitch": 60,
              "velocity": 98,
              "position": 5,
              "duration": 0.22916666666666666
            },
            {
              "pitch": 60,
              "velocity": 98,
              "position": 6,
              "duration": 0.22916666666666666
            },
            {
              "pitch": 60,
              "velocity": 98,
              "position": 7,
              "duration": 0.22916666666666666
            },
            {
              "pitch": 60,
              "velocity": 98,
              "position": 8,
              "duration": 0.22916666666666666
            },
            {
              "pitch": 60,
              "velocity": 98,
              "position": 9,
              "duration": 0.22916666666666666
            },
            {
              "pitch": 60,
              "velocity": 98,
              "position": 10,
              "duration": 0.22916666666666666
            },
            {
              "pitch": 60,
              "velocity": 98,
              "position": 11,
              "duration": 0.22916666666666666
            },
            {
              "pitch": 60,
              "velocity": 98,
              "position": 12,
              "duration": 0.22916666666666666
            },
            {
              "pitch": 60,
              "velocity": 98,
              "position": 13,
              "duration": 0.22916666666666666
            },
            {
              "pitch": 60,
              "velocity": 98,
              "position": 14,
              "duration": 0.22916666666666666
            },
            {
              "pitch": 60,
              "velocity": 98,
              "position": 15,
              "duration": 0.22916666666666666
            }
          ]
        },
        "4": {
          "ctab": {
            "srcChannel": 4,
            "name": "Str Root",
            "accType": "PAD",
            "editable": false,
            "mutedNotes": [],
            "mutedChords": [
              "1+2+5",
              "sus4",
              "1+5",
              "1+8",
              "Maj7aug",
              "dim",
              "minMaj7(9)",
              "minMaj7",
              "min6",
              "min",
              "aug",
              "Maj7(9)",
              "Maj7#11",
              "Maj7",
              "Maj6",
              "Maj"
            ],
            "autoStart": false,
            "sourceChordNote": 0,
            "sourceChordType": "Maj7",
            "ctb2Low": null,
            "ctb2Main": {
              "ntr": "ROOT_TRANSPOSITION",
              "ntt": "CHORD",
              "bassOn": false,
              "chordRootUpperLimit": 6,
              "noteLowLimit": 0,
              "noteHighLimit": 70,
              "rtr": "PITCH_SHIFT"
            },
            "ctb2High": null
          },
          "notes": [
            {
              "pitch": 60,
              "velocity": 21,
              "position": 0.010416666666666666,
              "duration": 7.979166666666667
            },
            {
              "pitch": 60,
              "velocity": 21,
              "position": 8.010416666666666,
              "duration": 7.979166666666667
            }
          ]
        },
        "7": {
          "ctab": {
            "srcChannel": 7,
            "name": "CC_Crash",
            "accType": "RHYTHM",
            "editable": false,
            "mutedNotes": [],
            "mutedChords": [
              "1+2+5",
              "sus4",
              "1+5",
              "1+8",
              "7aug",
              "Maj7aug",
              "7(#9)",
              "7(b13)",
              "7(b9)",
              "7(13)",
              "7#11",
              "7(9)",
              "7b5",
              "7sus4",
              "7th",
              "dim7",
              "dim",
              "minMaj7(9)",
              "minMaj7",
              "min7(11)",
              "min7(9)",
              "min(9)",
              "m7b5",
              "min7",
              "min6",
              "min",
              "aug",
              "Maj6(9)",
              "Maj7(9)",
              "Maj(9)",
              "Maj7#11",
              "Maj7",
              "Maj6",
              "Maj"
            ],
            "autoStart": true,
            "sourceChordNote": 0,
            "sourceChordType": "Maj",
            "ctb2Low": null,
            "ctb2Main": {
              "ntr": "ROOT_FIXED",
              "ntt": "BYPASS",
              "bassOn": false,
              "chordRootUpperLimit": 0,
              "noteLowLimit": 0,
              "noteHighLimit": 127,
              "rtr": "RETRIGGER"
            },
            "ctb2High": null
          },
          "notes": []
        },
        "9": {
          "ctab": {
            "srcChannel": 9,
            "name": "Drums",
            "accType": "RHYTHM",
            "editable": false,
            "mutedNotes": [],
            "mutedChords": [],
            "autoStart": true,
            "sourceChordNote": 0,
            "sourceChordType": "Maj7",
            "ctb2Low": null,
            "ctb2Main": {
              "ntr": "ROOT_FIXED",
              "ntt": "BYPASS",
              "bassOn": false,
              "chordRootUpperLimit": 6,
              "noteLowLimit": 0,
              "noteHighLimit": 127,
              "rtr": "PITCH_SHIFT"
            },
            "ctb2High": null
          },
          "notes": [
            {
              "pitch": 25,
              "velocity": 60,
              "position": 0,
              "duration": 0.010416666666666666
            },
            {
              "pitch": 35,
              "velocity": 40,
              "position": 0,
              "duration": 0.010416666666666666
            },
            {
              "pitch": 57,
              "velocity": 36,
              "position": 0,
              "duration": 0.010416666666666666
            },
            {
              "pitch": 26,
              "velocity": 38,
              "position": 0,
              "duration": 0.9895833333333334
            },
            {
              "pitch": 25,
              "velocity": 60,
              "position": 1,
              "duration": 0.010416666666666666
            },
            {
              "pitch": 35,
              "velocity": 40,
              "position": 1,
              "duration": 0.010416666666666666
            },
            {
              "pitch": 44,
              "velocity": 48,
              "position": 1,
              "duration": 0.010416666666666666
            },
            {
              "pitch": 57,
              "velocity": 36,
              "position": 1,
              "duration": 0.010416666666666666
            },
            {
              "pitch": 57,
              "velocity": 7,
              "position": 1.6666666666666667,
              "duration": 0.010416666666666666
            },
            {
              "pitch": 28,
              "velocity": 34,
              "position": 1,
              "duration": 0.9895833333333334
            },
            {
              "pitch": 25,
              "velocity": 60,
              "position": 2,
              "duration": 0.010416666666666666
            },
            {
              "pitch": 35,
              "velocity": 40,
              "position": 2,
              "duration": 0.010416666666666666
            },
            {
              "pitch": 57,
              "velocity": 36,
              "position": 2,
              "duration": 0.010416666666666666
            },
            {
              "pitch": 26,
              "velocity": 38,
              "position": 2,
              "duration": 0.9895833333333334
            },
            {
              "pitch": 25,
              "velocity": 60,
              "position": 3,
              "duration": 0.010416666666666666
            },
            {
              "pitch": 35,
              "velocity": 40,
              "position": 3,
              "duration": 0.010416666666666666
            },
            {
              "pitch": 44,
              "velocity": 48,
              "position": 3,
              "duration": 0.010416666666666666
            },
            {
              "pitch": 57,
              "velocity": 36,
              "position": 3,
              "duration": 0.010416666666666666
            },
            {
              "pitch": 25,
              "velocity": 30,
              "position": 3.6666666666666665,
              "duration": 0.010416666666666666
            },
            {
              "pitch": 57,
              "velocity": 7,
              "position": 3.6666666666666665,
              "duration": 0.010416666666666666
            },
            {
              "pitch": 28,
              "velocity": 34,
              "position": 3,
              "duration": 0.9895833333333334
            },
            {
              "pitch": 25,
              "velocity": 60,
              "position": 4,
              "duration": 0.010416666666666666
            },
            {
              "pitch": 35,
              "velocity": 40,
              "position": 4,
              "duration": 0.010416666666666666
            },
            {
              "pitch": 57,
              "velocity": 36,
              "position": 4,
              "duration": 0.010416666666666666
            },
            {
              "pitch": 26,
              "velocity": 38,
              "position": 4,
              "duration": 0.9895833333333334
            },
            {
              "pitch": 25,
              "velocity": 60,
              "position": 5,
              "duration": 0.010416666666666666
            },
            {
              "pitch": 35,
              "velocity": 40,
              "position": 5,
              "duration": 0.010416666666666666
            },
            {
              "pitch": 44,
              "velocity": 48,
              "position": 5,
              "duration": 0.010416666666666666
            },
            {
              "pitch": 57,
              "velocity": 36,
              "position": 5,
              "duration": 0.010416666666666666
            },
            {
              "pitch": 25,
              "velocity": 30,
              "position": 5.666666666666667,
              "duration": 0.010416666666666666
            },
            {
              "pitch": 57,
              "velocity": 7,
              "position": 5.666666666666667,
              "duration": 0.010416666666666666
            },
            {
              "pitch": 28,
              "velocity": 34,
              "position": 5,
              "duration": 0.9895833333333334
            },
            {
              "pitch": 25,
              "velocity": 60,
              "position": 6,
              "duration": 0.010416666666666666
            },
            {
              "pitch": 35,
              "velocity": 40,
              "position": 6,
              "duration": 0.010416666666666666
            },
            {
              "pitch": 57,
              "velocity": 36,
              "position": 6,
              "duration": 0.010416666666666666
            },
            {
              "pitch": 26,
              "velocity": 38,
              "position": 6,
              "duration": 0.9895833333333334
            },
            {
              "pitch": 25,
              "velocity": 60,
              "position": 7,
              "duration": 0.010416666666666666
            },
            {
              "pitch": 35,
              "velocity": 40,
              "position": 7,
              "duration": 0.010416666666666666
            },
            {
              "pitch": 44,
              "velocity": 48,
              "position": 7,
              "duration": 0.010416666666666666
            },
            {
              "pitch": 57,
              "velocity": 36,
              "position": 7,
              "duration": 0.010416666666666666
            },
            {
              "pitch": 25,
              "velocity": 30,
              "position": 7.666666666666667,
              "duration": 0.010416666666666666
            },
            {
              "pitch": 57,
              "velocity": 7,
              "position": 7.666666666666667,
              "duration": 0.010416666666666666
            },
            {
              "pitch": 28,
              "velocity": 34,
              "position": 7,
              "duration": 0.9895833333333334
            },
            {
              "pitch": 25,
              "velocity": 60,
              "position": 8,
              "duration": 0.010416666666666666
            },
            {
              "pitch": 35,
              "velocity": 40,
              "position": 8,
              "duration": 0.010416666666666666
            },
            {
              "pitch": 57,
              "velocity": 36,
              "position": 8,
              "duration": 0.010416666666666666
            },
            {
              "pitch": 26,
              "velocity": 38,
              "position": 8,
              "duration": 0.9895833333333334
            },
            {
              "pitch": 25,
              "velocity": 60,
              "position": 9,
              "duration": 0.010416666666666666
            },
            {
              "pitch": 35,
              "velocity": 40,
              "position": 9,
              "duration": 0.010416666666666666
            },
            {
              "pitch": 44,
              "velocity": 48,
              "position": 9,
              "duration": 0.010416666666666666
            },
            {
              "pitch": 57,
              "velocity": 36,
              "position": 9,
              "duration": 0.010416666666666666
            },
            {
              "pitch": 57,
              "velocity": 7,
              "position": 9.666666666666666,
              "duration": 0.010416666666666666
            },
            {
              "pitch": 28,
              "velocity": 34,
              "position": 9,
              "duration": 0.9895833333333334
            },
            {
              "pitch": 25,
              "velocity": 60,
              "position": 10,
              "duration": 0.010416666666666666
            },
            {
              "pitch": 35,
              "velocity": 40,
              "position": 10,
              "duration": 0.010416666666666666
            },
            {
              "pitch": 57,
              "velocity": 36,
              "position": 10,
              "duration": 0.010416666666666666
            },
            {
              "pitch": 26,
              "velocity": 38,
              "position": 10,
              "duration": 0.9895833333333334
            },
            {
              "pitch": 25,
              "velocity": 60,
              "position": 11,
              "duration": 0.010416666666666666
            },
            {
              "pitch": 35,
              "velocity": 40,
              "position": 11,
              "duration": 0.010416666666666666
            },
            {
              "pitch": 44,
              "velocity": 48,
              "position": 11,
              "duration": 0.010416666666666666
            },
            {
              "pitch": 57,
              "velocity": 36,
              "position": 11,
              "duration": 0.010416666666666666
            },
            {
              "pitch": 25,
              "velocity": 30,
              "position": 11.666666666666666,
              "duration": 0.010416666666666666
            },
            {
              "pitch": 57,
              "velocity": 7,
              "position": 11.666666666666666,
              "duration": 0.010416666666666666
            },
            {
              "pitch": 28,
              "velocity": 34,
              "position": 11,
              "duration": 0.9895833333333334
            },
            {
              "pitch": 25,
              "velocity": 60,
              "position": 12,
              "duration": 0.010416666666666666
            },
            {
              "pitch": 35,
              "velocity": 40,
              "position": 12,
              "duration": 0.010416666666666666
            },
            {
              "pitch": 57,
              "velocity": 36,
              "position": 12,
              "duration": 0.010416666666666666
            },
            {
              "pitch": 26,
              "velocity": 38,
              "position": 12,
              "duration": 0.9895833333333334
            },
            {
              "pitch": 25,
              "velocity": 60,
              "position": 13,
              "duration": 0.010416666666666666
            },
            {
              "pitch": 35,
              "velocity": 40,
              "position": 13,
              "duration": 0.010416666666666666
            },
            {
              "pitch": 44,
              "velocity": 48,
              "position": 13,
              "duration": 0.010416666666666666
            },
            {
              "pitch": 57,
              "velocity": 36,
              "position": 13,
              "duration": 0.010416666666666666
            },
            {
              "pitch": 25,
              "velocity": 30,
              "position": 13.666666666666666,
              "duration": 0.010416666666666666
            },
            {
              "pitch": 57,
              "velocity": 7,
              "position": 13.666666666666666,
              "duration": 0.010416666666666666
            },
            {
              "pitch": 28,
              "velocity": 34,
              "position": 13,
              "duration": 0.9895833333333334
            },
            {
              "pitch": 25,
              "velocity": 60,
              "position": 14,
              "duration": 0.010416666666666666
            },
            {
              "pitch": 35,
              "velocity": 40,
              "position": 14,
              "duration": 0.010416666666666666
            },
            {
              "pitch": 57,
              "velocity": 36,
              "position": 14,
              "duration": 0.010416666666666666
            },
            {
              "pitch": 26,
              "velocity": 38,
              "position": 14,
              "duration": 0.9895833333333334
            },
            {
              "pitch": 25,
              "velocity": 60,
              "position": 15,
              "duration": 0.010416666666666666
            },
            {
              "pitch": 35,
              "velocity": 40,
              "position": 15,
              "duration": 0.010416666666666666
            },
            {
              "pitch": 44,
              "velocity": 48,
              "position": 15,
              "duration": 0.010416666666666666
            },
            {
              "pitch": 57,
              "velocity": 36,
              "position": 15,
              "duration": 0.010416666666666666
            },
            {
              "pitch": 25,
              "velocity": 30,
              "position": 15.666666666666666,
              "duration": 0.010416666666666666
            },
            {
              "pitch": 57,
              "velocity": 7,
              "position": 15.666666666666666,
              "duration": 0.010416666666666666
            },
            {
              "pitch": 28,
              "velocity": 34,
              "position": 15,
              "duration": 0.9895833333333334
            }
          ]
        },
        "10": {
          "ctab": {
            "srcChannel": 10,
            "name": "Bass 1",
            "accType": "BASS",
            "editable": false,
            "mutedNotes": [],
            "mutedChords": [
              "sus4",
              "7aug",
              "dim",
              "minMaj7(9)",
              "minMaj7",
              "min(9)",
              "m7b5",
              "min",
              "aug"
            ],
            "autoStart": false,
            "sourceChordNote": 0,
            "sourceChordType": "Maj7",
            "ctb2Low": null,
            "ctb2Main": {
              "ntr": "ROOT_TRANSPOSITION",
              "ntt": "MELODY",
              "bassOn": true,
              "chordRootUpperLimit": 8,
              "noteLowLimit": 28,
              "noteHighLimit": 127,
              "rtr": "PITCH_SHIFT_TO_ROOT"
            },
            "ctb2High": null
          },
          "notes": [
            {
              "pitch": 24,
              "velocity": 58,
              "position": 0,
              "duration": 0.9895833333333334
            },
            {
              "pitch": 28,
              "velocity": 58,
              "position": 1,
              "duration": 0.9895833333333334
            },
            {
              "pitch": 31,
              "velocity": 58,
              "position": 2,
              "duration": 0.9895833333333334
            },
            {
              "pitch": 33,
              "velocity": 58,
              "position": 3,
              "duration": 0.9895833333333334
            },
            {
              "pitch": 36,
              "velocity": 58,
              "position": 4,
              "duration": 0.9895833333333334
            },
            {
              "pitch": 33,
              "velocity": 58,
              "position": 5,
              "duration": 0.9895833333333334
            },
            {
              "pitch": 31,
              "velocity": 58,
              "position": 6,
              "duration": 0.9895833333333334
            },
            {
              "pitch": 28,
              "velocity": 58,
              "position": 7,
              "duration": 0.9895833333333334
            },
            {
              "pitch": 24,
              "velocity": 58,
              "position": 8,
              "duration": 0.9895833333333334
            },
            {
              "pitch": 28,
              "velocity": 58,
              "position": 9,
              "duration": 0.9895833333333334
            },
            {
              "pitch": 31,
              "velocity": 58,
              "position": 10,
              "duration": 0.9895833333333334
            },
            {
              "pitch": 33,
              "velocity": 58,
              "position": 11,
              "duration": 0.9895833333333334
            },
            {
              "pitch": 36,
              "velocity": 58,
              "position": 12,
              "duration": 0.9895833333333334
            },
            {
              "pitch": 33,
              "velocity": 58,
              "position": 13,
              "duration": 0.9895833333333334
            },
            {
              "pitch": 31,
              "velocity": 58,
              "position": 14,
              "duration": 0.9895833333333334
            },
            {
              "pitch": 28,
              "velocity": 58,
              "position": 15,
              "duration": 0.9895833333333334
            }
          ]
        },
        "11": {
          "ctab": {
            "srcChannel": 11,
            "name": "Gt",
            "accType": "CHORD1",
            "editable": false,
            "mutedNotes": [],
            "mutedChords": [],
            "autoStart": false,
            "sourceChordNote": 0,
            "sourceChordType": "Maj7",
            "ctb2Low": null,
            "ctb2Main": {
              "ntr": "ROOT_FIXED",
              "ntt": "CHORD",
              "bassOn": false,
              "chordRootUpperLimit": 7,
              "noteLowLimit": 0,
              "noteHighLimit": 127,
              "rtr": "PITCH_SHIFT"
            },
            "ctb2High": null
          },
          "notes": [
            {
              "pitch": 55,
              "velocity": 98,
              "position": 0,
              "duration": 0.22916666666666666
            },
            {
              "pitch": 64,
              "velocity": 98,
              "position": 0,
              "duration": 0.22916666666666666
            },
            {
              "pitch": 59,
              "velocity": 98,
              "position": 0.020833333333333332,
              "duration": 0.22916666666666666
            },
            {
              "pitch": 55,
              "velocity": 98,
              "position": 1,
              "duration": 0.22916666666666666
            },
            {
              "pitch": 64,
              "velocity": 98,
              "position": 1,
              "duration": 0.22916666666666666
            },
            {
              "pitch": 59,
              "velocity": 98,
              "position": 1.0208333333333333,
              "duration": 0.22916666666666666
            },
            {
              "pitch": 55,
              "velocity": 98,
              "position": 2,
              "duration": 0.22916666666666666
            },
            {
              "pitch": 64,
              "velocity": 98,
              "position": 2,
              "duration": 0.22916666666666666
            },
            {
              "pitch": 59,
              "velocity": 98,
              "position": 2.0208333333333335,
              "duration": 0.22916666666666666
            },
            {
              "pitch": 55,
              "velocity": 98,
              "position": 3,
              "duration": 0.22916666666666666
            },
            {
              "pitch": 64,
              "velocity": 98,
              "position": 3,
              "duration": 0.22916666666666666
            },
            {
              "pitch": 59,
              "velocity": 98,
              "position": 3.0208333333333335,
              "duration": 0.22916666666666666
            },
            {
              "pitch": 55,
              "velocity": 98,
              "position": 4,
              "duration": 0.22916666666666666
            },
            {
              "pitch": 64,
              "velocity": 98,
              "position": 4,
              "duration": 0.22916666666666666
            },
            {
              "pitch": 59,
              "velocity": 98,
              "position": 4.020833333333333,
              "duration": 0.22916666666666666
            },
            {
              "pitch": 55,
              "velocity": 98,
              "position": 5,
              "duration": 0.22916666666666666
            },
            {
              "pitch": 64,
              "velocity": 98,
              "position": 5,
              "duration": 0.22916666666666666
            },
            {
              "pitch": 59,
              "velocity": 98,
              "position": 5.020833333333333,
              "duration": 0.22916666666666666
            },
            {
              "pitch": 55,
              "velocity": 98,
              "position": 6,
              "duration": 0.22916666666666666
            },
            {
              "pitch": 64,
              "velocity": 98,
              "position": 6,
              "duration": 0.22916666666666666
            },
            {
              "pitch": 59,
              "velocity": 98,
              "position": 6.020833333333333,
              "duration": 0.22916666666666666
            },
            {
              "pitch": 55,
              "velocity": 98,
              "position": 7,
              "duration": 0.22916666666666666
            },
            {
              "pitch": 64,
              "velocity": 98,
              "position": 7,
              "duration": 0.22916666666666666
            },
            {
              "pitch": 59,
              "velocity": 98,
              "position": 7.020833333333333,
              "duration": 0.22916666666666666
            },
            {
              "pitch": 55,
              "velocity": 98,
              "position": 8,
              "duration": 0.22916666666666666
            },
            {
              "pitch": 64,
              "velocity": 98,
              "position": 8,
              "duration": 0.22916666666666666
            },
            {
              "pitch": 59,
              "velocity": 98,
              "position": 8.020833333333334,
              "duration": 0.22916666666666666
            },
            {
              "pitch": 55,
              "velocity": 98,
              "position": 9,
              "duration": 0.22916666666666666
            },
            {
              "pitch": 64,
              "velocity": 98,
              "position": 9,
              "duration": 0.22916666666666666
            },
            {
              "pitch": 59,
              "velocity": 98,
              "position": 9.020833333333334,
              "duration": 0.22916666666666666
            },
            {
              "pitch": 55,
              "velocity": 98,
              "position": 10,
              "duration": 0.22916666666666666
            },
            {
              "pitch": 64,
              "velocity": 98,
              "position": 10,
              "duration": 0.22916666666666666
            },
            {
              "pitch": 59,
              "velocity": 98,
              "position": 10.020833333333334,
              "duration": 0.22916666666666666
            },
            {
              "pitch": 55,
              "velocity": 98,
              "position": 11,
              "duration": 0.22916666666666666
            },
            {
              "pitch": 64,
              "velocity": 98,
              "position": 11,
              "duration": 0.22916666666666666
            },
            {
              "pitch": 59,
              "velocity": 98,
              "position": 11.020833333333334,
              "duration": 0.22916666666666666
            },
            {
              "pitch": 55,
              "velocity": 98,
              "position": 12,
              "duration": 0.22916666666666666
            },
            {
              "pitch": 64,
              "velocity": 98,
              "position": 12,
              "duration": 0.22916666666666666
            },
            {
              "pitch": 59,
              "velocity": 98,
              "position": 12.020833333333334,
              "duration": 0.22916666666666666
            },
            {
              "pitch": 55,
              "velocity": 98,
              "position": 13,
              "duration": 0.22916666666666666
            },
            {
              "pitch": 64,
              "velocity": 98,
              "position": 13,
              "duration": 0.22916666666666666
            },
            {
              "pitch": 59,
              "velocity": 98,
              "position": 13.020833333333334,
              "duration": 0.22916666666666666
            },
            {
              "pitch": 55,
              "velocity": 98,
              "position": 14,
              "duration": 0.22916666666666666
            },
            {
              "pitch": 64,
              "velocity": 98,
              "position": 14,
              "duration": 0.22916666666666666
            },
            {
              "pitch": 59,
              "velocity": 98,
              "position": 14.020833333333334,
              "duration": 0.22916666666666666
            },
            {
              "pitch": 55,
              "velocity": 98,
              "position": 15,
              "duration": 0.22916666666666666
            },
            {
              "pitch": 64,
              "velocity": 98,
              "position": 15,
              "duration": 0.22916666666666666
            },
            {
              "pitch": 59,
              "velocity": 98,
              "position": 15.020833333333334,
              "duration": 0.22916666666666666
            }
          ]
        },
        "12": {
          "ctab": {
            "srcChannel": 12,
            "name": "EP",
            "accType": "CHORD2",
            "editable": false,
            "mutedNotes": [],
            "mutedChords": [],
            "autoStart": false,
            "sourceChordNote": 0,
            "sourceChordType": "Maj7",
            "ctb2Low": null,
            "ctb2Main": {
              "ntr": "ROOT_FIXED",
              "ntt": "CHORD",
              "bassOn": false,
              "chordRootUpperLimit": 7,
              "noteLowLimit": 0,
              "noteHighLimit": 127,
              "rtr": "PITCH_SHIFT"
            },
            "ctb2High": null
          },
          "notes": [
            {
              "pitch": 64,
              "velocity": 78,
              "position": 0,
              "duration": 1.3229166666666667
            },
            {
              "pitch": 59,
              "velocity": 78,
              "position": 0,
              "duration": 1.9895833333333333
            },
            {
              "pitch": 64,
              "velocity": 68,
              "position": 1.3333333333333333,
              "duration": 0.65625
            },
            {
              "pitch": 67,
              "velocity": 78,
              "position": 0,
              "duration": 1.9895833333333333
            },
            {
              "pitch": 71,
              "velocity": 45,
              "position": 1.6666666666666667,
              "duration": 0.65625
            },
            {
              "pitch": 59,
              "velocity": 68,
              "position": 2,
              "duration": 1.9895833333333333
            },
            {
              "pitch": 64,
              "velocity": 68,
              "position": 2,
              "duration": 1.9895833333333333
            },
            {
              "pitch": 67,
              "velocity": 68,
              "position": 2,
              "duration": 1.9895833333333333
            },
            {
              "pitch": 59,
              "velocity": 78,
              "position": 4,
              "duration": 0.65625
            },
            {
              "pitch": 64,
              "velocity": 78,
              "position": 4,
              "duration": 1.65625
            },
            {
              "pitch": 59,
              "velocity": 78,
              "position": 4.666666666666667,
              "duration": 1.9895833333333333
            },
            {
              "pitch": 64,
              "velocity": 78,
              "position": 5.666666666666667,
              "duration": 0.9895833333333334
            },
            {
              "pitch": 67,
              "velocity": 78,
              "position": 4,
              "duration": 2.65625
            },
            {
              "pitch": 59,
              "velocity": 68,
              "position": 6.666666666666667,
              "duration": 0.9895833333333334
            },
            {
              "pitch": 64,
              "velocity": 68,
              "position": 6.666666666666667,
              "duration": 0.9895833333333334
            },
            {
              "pitch": 67,
              "velocity": 68,
              "position": 6.666666666666667,
              "duration": 0.9895833333333334
            },
            {
              "pitch": 59,
              "velocity": 78,
              "position": 7.666666666666667,
              "duration": 0.13541666666666666
            },
            {
              "pitch": 64,
              "velocity": 78,
              "position": 7.666666666666667,
              "duration": 0.13541666666666666
            },
            {
              "pitch": 67,
              "velocity": 78,
              "position": 7.666666666666667,
              "duration": 0.13541666666666666
            },
            {
              "pitch": 59,
              "velocity": 78,
              "position": 8.666666666666666,
              "duration": 1.3229166666666667
            },
            {
              "pitch": 64,
              "velocity": 78,
              "position": 8.666666666666666,
              "duration": 1.3229166666666667
            },
            {
              "pitch": 67,
              "velocity": 78,
              "position": 8.666666666666666,
              "duration": 1.3229166666666667
            },
            {
              "pitch": 59,
              "velocity": 68,
              "position": 10,
              "duration": 0.65625
            },
            {
              "pitch": 64,
              "velocity": 68,
              "position": 10,
              "duration": 0.65625
            },
            {
              "pitch": 67,
              "velocity": 68,
              "position": 10,
              "duration": 0.65625
            },
            {
              "pitch": 59,
              "velocity": 68,
              "position": 10.666666666666666,
              "duration": 1.3229166666666667
            },
            {
              "pitch": 64,
              "velocity": 68,
              "position": 10.666666666666666,
              "duration": 1.3229166666666667
            },
            {
              "pitch": 67,
              "velocity": 68,
              "position": 10.666666666666666,
              "duration": 1.3229166666666667
            },
            {
              "pitch": 59,
              "velocity": 78,
              "position": 12,
              "duration": 1.65625
            },
            {
              "pitch": 64,
              "velocity": 78,
              "position": 12,
              "duration": 1.65625
            },
            {
              "pitch": 67,
              "velocity": 78,
              "position": 12,
              "duration": 1.65625
            },
            {
              "pitch": 59,
              "velocity": 68,
              "position": 13.666666666666666,
              "duration": 2.3229166666666665
            },
            {
              "pitch": 64,
              "velocity": 68,
              "position": 13.666666666666666,
              "duration": 2.3229166666666665
            },
            {
              "pitch": 67,
              "velocity": 68,
              "position": 13.666666666666666,
              "duration": 2.3229166666666665
            },
            {
              "pitch": 76,
              "velocity": 57,
              "position": 14.666666666666666,
              "duration": 1.3229166666666667
            },
            {
              "pitch": 71,
              "velocity": 57,
              "position": 15.333333333333334,
              "duration": 0.65625
            }
          ]
        },
        "13": {
          "ctab": {
            "srcChannel": 13,
            "name": "Str",
            "accType": "PAD",
            "editable": false,
            "mutedNotes": [],
            "mutedChords": [],
            "autoStart": false,
            "sourceChordNote": 0,
            "sourceChordType": "Maj7",
            "ctb2Low": null,
            "ctb2Main": {
              "ntr": "ROOT_FIXED",
              "ntt": "CHORD",
              "bassOn": false,
              "chordRootUpperLimit": 7,
              "noteLowLimit": 0,
              "noteHighLimit": 79,
              "rtr": "PITCH_SHIFT"
            },
            "ctb2High": null
          },
          "notes": [
            {
              "pitch": 55,
              "velocity": 22,
              "position": 0.010416666666666666,
              "duration": 7.979166666666667
            },
            {
              "pitch": 59,
              "velocity": 22,
              "position": 0.010416666666666666,
              "duration": 7.979166666666667
            },
            {
              "pitch": 64,
              "velocity": 22,
              "position": 0.010416666666666666,
              "duration": 7.979166666666667
            },
            {
              "pitch": 71,
              "velocity": 17,
              "position": 0.010416666666666666,
              "duration": 7.979166666666667
            },
            {
              "pitch": 76,
              "velocity": 17,
              "position": 0.010416666666666666,
              "duration": 7.979166666666667
            },
            {
              "pitch": 79,
              "velocity": 17,
              "position": 0.010416666666666666,
              "duration": 7.979166666666667
            },
            {
              "pitch": 55,
              "velocity": 22,
              "position": 8.010416666666666,
              "duration": 7.979166666666667
            },
            {
              "pitch": 59,
              "velocity": 22,
              "position": 8.010416666666666,
              "duration": 7.979166666666667
            },
            {
              "pitch": 64,
              "velocity": 22,
              "position": 8.010416666666666,
              "duration": 7.979166666666667
            },
            {
              "pitch": 71,
              "velocity": 17,
              "position": 8.010416666666666,
              "duration": 7.979166666666667
            },
            {
              "pitch": 76,
              "velocity": 17,
              "position": 8.010416666666666,
              "duration": 7.979166666666667
            },
            {
              "pitch": 79,
              "velocity": 17,
              "position": 8.010416666666666,
              "duration": 7.979166666666667
            }
          ]
        },
        "14": {
          "ctab": {
            "srcChannel": 14,
            "name": "Pno",
            "accType": "PHRASE1",
            "editable": false,
            "mutedNotes": [],
            "mutedChords": [],
            "autoStart": false,
            "sourceChordNote": 0,
            "sourceChordType": "Maj7",
            "ctb2Low": null,
            "ctb2Main": {
              "ntr": "ROOT_FIXED",
              "ntt": "CHORD",
              "bassOn": false,
              "chordRootUpperLimit": 7,
              "noteLowLimit": 0,
              "noteHighLimit": 127,
              "rtr": "PITCH_SHIFT"
            },
            "ctb2High": null
          },
          "notes": [
            {
              "pitch": 55,
              "velocity": 42,
              "position": 0.6770833333333334,
              "duration": 0.15625
            },
            {
              "pitch": 59,
              "velocity": 42,
              "position": 0.6770833333333334,
              "duration": 0.15625
            },
            {
              "pitch": 64,
              "velocity": 42,
              "position": 0.6770833333333334,
              "duration": 0.15625
            },
            {
              "pitch": 55,
              "velocity": 51,
              "position": 1.6770833333333333,
              "duration": 1.8229166666666667
            },
            {
              "pitch": 59,
              "velocity": 51,
              "position": 1.6770833333333333,
              "duration": 1.8229166666666667
            },
            {
              "pitch": 64,
              "velocity": 51,
              "position": 1.6770833333333333,
              "duration": 1.8229166666666667
            },
            {
              "pitch": 55,
              "velocity": 51,
              "position": 3.6770833333333335,
              "duration": 0.15625
            },
            {
              "pitch": 59,
              "velocity": 51,
              "position": 3.6770833333333335,
              "duration": 0.15625
            },
            {
              "pitch": 64,
              "velocity": 51,
              "position": 3.6770833333333335,
              "duration": 0.15625
            },
            {
              "pitch": 55,
              "velocity": 42,
              "position": 4.677083333333333,
              "duration": 0.15625
            },
            {
              "pitch": 59,
              "velocity": 42,
              "position": 4.677083333333333,
              "duration": 0.15625
            },
            {
              "pitch": 64,
              "velocity": 42,
              "position": 4.677083333333333,
              "duration": 0.15625
            },
            {
              "pitch": 55,
              "velocity": 51,
              "position": 5.677083333333333,
              "duration": 0.8229166666666666
            },
            {
              "pitch": 59,
              "velocity": 51,
              "position": 5.677083333333333,
              "duration": 0.8229166666666666
            },
            {
              "pitch": 64,
              "velocity": 51,
              "position": 5.677083333333333,
              "duration": 0.8229166666666666
            },
            {
              "pitch": 55,
              "velocity": 51,
              "position": 6.677083333333333,
              "duration": 1.15625
            },
            {
              "pitch": 59,
              "velocity": 51,
              "position": 6.677083333333333,
              "duration": 1.15625
            },
            {
              "pitch": 64,
              "velocity": 51,
              "position": 6.677083333333333,
              "duration": 1.15625
            },
            {
              "pitch": 55,
              "velocity": 42,
              "position": 8.677083333333334,
              "duration": 0.15625
            },
            {
              "pitch": 59,
              "velocity": 42,
              "position": 8.677083333333334,
              "duration": 0.15625
            },
            {
              "pitch": 64,
              "velocity": 42,
              "position": 8.677083333333334,
              "duration": 0.15625
            },
            {
              "pitch": 55,
              "velocity": 51,
              "position": 9.677083333333334,
              "duration": 1.8229166666666667
            },
            {
              "pitch": 59,
              "velocity": 51,
              "position": 9.677083333333334,
              "duration": 1.8229166666666667
            },
            {
              "pitch": 64,
              "velocity": 51,
              "position": 9.677083333333334,
              "duration": 1.8229166666666667
            },
            {
              "pitch": 55,
              "velocity": 51,
              "position": 11.677083333333334,
              "duration": 0.15625
            },
            {
              "pitch": 59,
              "velocity": 51,
              "position": 11.677083333333334,
              "duration": 0.15625
            },
            {
              "pitch": 64,
              "velocity": 51,
              "position": 11.677083333333334,
              "duration": 0.15625
            },
            {
              "pitch": 55,
              "velocity": 42,
              "position": 12.677083333333334,
              "duration": 0.15625
            },
            {
              "pitch": 59,
              "velocity": 42,
              "position": 12.677083333333334,
              "duration": 0.15625
            },
            {
              "pitch": 64,
              "velocity": 42,
              "position": 12.677083333333334,
              "duration": 0.15625
            },
            {
              "pitch": 55,
              "velocity": 51,
              "position": 13.677083333333334,
              "duration": 0.8229166666666666
            },
            {
              "pitch": 59,
              "velocity": 51,
              "position": 13.677083333333334,
              "duration": 0.8229166666666666
            },
            {
              "pitch": 64,
              "velocity": 51,
              "position": 13.677083333333334,
              "duration": 0.8229166666666666
            },
            {
              "pitch": 55,
              "velocity": 51,
              "position": 14.677083333333334,
              "duration": 1.15625
            },
            {
              "pitch": 59,
              "velocity": 51,
              "position": 14.677083333333334,
              "duration": 1.15625
            },
            {
              "pitch": 64,
              "velocity": 51,
              "position": 14.677083333333334,
              "duration": 1.15625
            }
          ]
        }
      }
    },
    "Fill_In_AA": {
      "type": "Fill_In_AA",
      "sizeInBeats": 4,
      "channels": {
        "1": {
          "ctab": {
            "srcChannel": 1,
            "name": "Bass 2",
            "accType": "BASS",
            "editable": false,
            "mutedNotes": [],
            "mutedChords": [
              "1+2+5",
              "1+5",
              "1+8",
              "Maj7aug",
              "7(#9)",
              "7(b13)",
              "7(b9)",
              "7(13)",
              "7#11",
              "7(9)",
              "7b5",
              "7sus4",
              "7th",
              "dim7",
              "min7(11)",
              "min7(9)",
              "min7",
              "min6",
              "Maj6(9)",
              "Maj7(9)",
              "Maj(9)",
              "Maj7#11",
              "Maj7",
              "Maj6",
              "Maj"
            ],
            "autoStart": false,
            "sourceChordNote": 0,
            "sourceChordType": "Maj7",
            "ctb2Low": null,
            "ctb2Main": {
              "ntr": "ROOT_TRANSPOSITION",
              "ntt": "MELODY",
              "bassOn": true,
              "chordRootUpperLimit": 8,
              "noteLowLimit": 28,
              "noteHighLimit": 127,
              "rtr": "PITCH_SHIFT_TO_ROOT"
            },
            "ctb2High": null
          },
          "notes": [
            {
              "pitch": 24,
              "velocity": 58,
              "position": 0,
              "duration": 1.9895833333333333
            },
            {
              "pitch": 36,
              "velocity": 58,
              "position": 2,
              "duration": 0.9895833333333334
            },
            {
              "pitch": 31,
              "velocity": 58,
              "position": 3,
              "duration": 0.9895833333333334
            }
          ]
        },
        "2": {
          "ctab": {
            "srcChannel": 2,
            "name": "Gt Root",
            "accType": "CHORD1",
            "editable": false,
            "mutedNotes": [],
            "mutedChords": [
              "1+2+5",
              "sus4",
              "1+5",
              "1+8",
              "Maj7aug",
              "dim",
              "minMaj7(9)",
              "minMaj7",
              "min6",
              "min",
              "aug",
              "Maj7(9)",
              "Maj7#11",
              "Maj7",
              "Maj6",
              "Maj"
            ],
            "autoStart": false,
            "sourceChordNote": 0,
            "sourceChordType": "Maj7",
            "ctb2Low": null,
            "ctb2Main": {
              "ntr": "ROOT_TRANSPOSITION",
              "ntt": "CHORD",
              "bassOn": false,
              "chordRootUpperLimit": 6,
              "noteLowLimit": 0,
              "noteHighLimit": 127,
              "rtr": "PITCH_SHIFT"
            },
            "ctb2High": null
          },
          "notes": [
            {
              "pitch": 60,
              "velocity": 98,
              "position": 1,
              "duration": 0.22916666666666666
            },
            {
              "pitch": 60,
              "velocity": 46,
              "position": 2.6666666666666665,
              "duration": 0.3229166666666667
            },
            {
              "pitch": 60,
              "velocity": 98,
              "position": 3,
              "duration": 0.22916666666666666
            }
          ]
        },
        "4": {
          "ctab": {
            "srcChannel": 4,
            "name": "Str Root",
            "accType": "PAD",
            "editable": false,
            "mutedNotes": [],
            "mutedChords": [
              "1+2+5",
              "sus4",
              "1+5",
              "1+8",
              "Maj7aug",
              "dim",
              "minMaj7(9)",
              "minMaj7",
              "min6",
              "min",
              "aug",
              "Maj7(9)",
              "Maj7#11",
              "Maj7",
              "Maj6",
              "Maj"
            ],
            "autoStart": false,
            "sourceChordNote": 0,
            "sourceChordType": "Maj7",
            "ctb2Low": null,
            "ctb2Main": {
              "ntr": "ROOT_TRANSPOSITION",
              "ntt": "CHORD",
              "bassOn": false,
              "chordRootUpperLimit": 6,
              "noteLowLimit": 0,
              "noteHighLimit": 70,
              "rtr": "PITCH_SHIFT"
            },
            "ctb2High": null
          },
          "notes": []
        },
        "7": {
          "ctab": {
            "srcChannel": 7,
            "name": "CC_Crash",
            "accType": "RHYTHM",
            "editable": false,
            "mutedNotes": [],
            "mutedChords": [
              "1+2+5",
              "sus4",
              "1+5",
              "1+8",
              "7aug",
              "Maj7aug",
              "7(#9)",
              "7(b13)",
              "7(b9)",
              "7(13)",
              "7#11",
              "7(9)",
              "7b5",
              "7sus4",
              "7th",
              "dim7",
              "dim",
              "minMaj7(9)",
              "minMaj7",
              "min7(11)",
              "min7(9)",
              "min(9)",
              "m7b5",
              "min7",
              "min6",
              "min",
              "aug",
              "Maj6(9)",
              "Maj7(9)",
              "Maj(9)",
              "Maj7#11",
              "Maj7",
              "Maj6",
              "Maj"
            ],
            "autoStart": true,
            "sourceChordNote": 0,
            "sourceChordType": "Maj",
            "ctb2Low": null,
            "ctb2Main": {
              "ntr": "ROOT_FIXED",
              "ntt": "BYPASS",
              "bassOn": false,
              "chordRootUpperLimit": 0,
              "noteLowLimit": 0,
              "noteHighLimit": 127,
              "rtr": "RETRIGGER"
            },
            "ctb2High": null
          },
          "notes": []
        },
        "9": {
          "ctab": {
            "srcChannel": 9,
            "name": "Drums",
            "accType": "RHYTHM",
            "editable": false,
            "mutedNotes": [],
            "mutedChords": [],
            "autoStart": true,
            "sourceChordNote": 0,
            "sourceChordType": "Maj7",
            "ctb2Low": null,
            "ctb2Main": {
              "ntr": "ROOT_FIXED",
              "ntt": "BYPASS",
              "bassOn": false,
              "chordRootUpperLimit": 6,
              "noteLowLimit": 0,
              "noteHighLimit": 127,
              "rtr": "PITCH_SHIFT"
            },
            "ctb2High": null
          },
          "notes": [
            {
              "pitch": 25,
              "velocity": 40,
              "position": 0,
              "duration": 0.010416666666666666
            },
            {
              "pitch": 35,
              "velocity": 40,
              "position": 0,
              "duration": 0.010416666666666666
            },
            {
              "pitch": 25,
              "velocity": 20,
              "position": 0.75,
              "duration": 0.010416666666666666
            },
            {
              "pitch": 25,
              "velocity": 30,
              "position": 0.8333333333333334,
              "duration": 0.010416666666666666
            },
            {
              "pitch": 25,
              "velocity": 40,
              "position": 0.9166666666666666,
              "duration": 0.010416666666666666
            },
            {
              "pitch": 26,
              "velocity": 38,
              "position": 0,
              "duration": 0.9895833333333334
            },
            {
              "pitch": 27,
              "velocity": 80,
              "position": 1,
              "duration": 0.010416666666666666
            },
            {
              "pitch": 44,
              "velocity": 48,
              "position": 1,
              "duration": 0.010416666666666666
            },
            {
              "pitch": 57,
              "velocity": 13,
              "position": 1.3333333333333333,
              "duration": 0.010416666666666666
            },
            {
              "pitch": 35,
              "velocity": 20,
              "position": 1.6666666666666667,
              "duration": 0.010416666666666666
            },
            {
              "pitch": 57,
              "velocity": 24,
              "position": 1.6666666666666667,
              "duration": 0.010416666666666666
            },
            {
              "pitch": 28,
              "velocity": 34,
              "position": 1,
              "duration": 0.9895833333333334
            },
            {
              "pitch": 35,
              "velocity": 40,
              "position": 2,
              "duration": 0.010416666666666666
            },
            {
              "pitch": 57,
              "velocity": 13,
              "position": 2.3333333333333335,
              "duration": 0.010416666666666666
            },
            {
              "pitch": 27,
              "velocity": 80,
              "position": 2.6666666666666665,
              "duration": 0.010416666666666666
            },
            {
              "pitch": 57,
              "velocity": 24,
              "position": 2.6666666666666665,
              "duration": 0.010416666666666666
            },
            {
              "pitch": 26,
              "velocity": 38,
              "position": 2,
              "duration": 0.9895833333333334
            },
            {
              "pitch": 44,
              "velocity": 48,
              "position": 3,
              "duration": 0.010416666666666666
            },
            {
              "pitch": 49,
              "velocity": 15,
              "position": 3,
              "duration": 0.010416666666666666
            },
            {
              "pitch": 27,
              "velocity": 80,
              "position": 3.3333333333333335,
              "duration": 0.010416666666666666
            },
            {
              "pitch": 49,
              "velocity": 40,
              "position": 3.3333333333333335,
              "duration": 0.010416666666666666
            },
            {
              "pitch": 35,
              "velocity": 20,
              "position": 3.6666666666666665,
              "duration": 0.010416666666666666
            },
            {
              "pitch": 28,
              "velocity": 34,
              "position": 3,
              "duration": 0.9895833333333334
            }
          ]
        },
        "10": {
          "ctab": {
            "srcChannel": 10,
            "name": "Bass 1",
            "accType": "BASS",
            "editable": false,
            "mutedNotes": [],
            "mutedChords": [
              "sus4",
              "7aug",
              "dim",
              "minMaj7(9)",
              "minMaj7",
              "min(9)",
              "m7b5",
              "min",
              "aug"
            ],
            "autoStart": false,
            "sourceChordNote": 0,
            "sourceChordType": "Maj7",
            "ctb2Low": null,
            "ctb2Main": {
              "ntr": "ROOT_TRANSPOSITION",
              "ntt": "MELODY",
              "bassOn": true,
              "chordRootUpperLimit": 8,
              "noteLowLimit": 28,
              "noteHighLimit": 127,
              "rtr": "PITCH_SHIFT_TO_ROOT"
            },
            "ctb2High": null
          },
          "notes": [
            {
              "pitch": 24,
              "velocity": 58,
              "position": 0,
              "duration": 1.9895833333333333
            },
            {
              "pitch": 36,
              "velocity": 58,
              "position": 2,
              "duration": 0.9895833333333334
            },
            {
              "pitch": 31,
              "velocity": 58,
              "position": 3,
              "duration": 0.9895833333333334
            }
          ]
        },
        "11": {
          "ctab": {
            "srcChannel": 11,
            "name": "Gt",
            "accType": "CHORD1",
            "editable": false,
            "mutedNotes": [],
            "mutedChords": [],
            "autoStart": false,
            "sourceChordNote": 0,
            "sourceChordType": "Maj7",
            "ctb2Low": null,
            "ctb2Main": {
              "ntr": "ROOT_FIXED",
              "ntt": "CHORD",
              "bassOn": false,
              "chordRootUpperLimit": 7,
              "noteLowLimit": 0,
              "noteHighLimit": 127,
              "rtr": "PITCH_SHIFT"
            },
            "ctb2High": null
          },
          "notes": [
            {
              "pitch": 55,
              "velocity": 98,
              "position": 1,
              "duration": 0.22916666666666666
            },
            {
              "pitch": 59,
              "velocity": 98,
              "position": 1,
              "duration": 0.22916666666666666
            },
            {
              "pitch": 64,
              "velocity": 98,
              "position": 1,
              "duration": 0.22916666666666666
            },
            {
              "pitch": 55,
              "velocity": 46,
              "position": 2.6666666666666665,
              "duration": 0.3229166666666667
            },
            {
              "pitch": 59,
              "velocity": 46,
              "position": 2.6666666666666665,
              "duration": 0.3229166666666667
            },
            {
              "pitch": 64,
              "velocity": 46,
              "position": 2.6666666666666665,
              "duration": 0.3229166666666667
            },
            {
              "pitch": 55,
              "velocity": 98,
              "position": 3,
              "duration": 0.22916666666666666
            },
            {
              "pitch": 59,
              "velocity": 98,
              "position": 3,
              "duration": 0.22916666666666666
            },
            {
              "pitch": 64,
              "velocity": 98,
              "position": 3,
              "duration": 0.22916666666666666
            }
          ]
        },
        "12": {
          "ctab": {
            "srcChannel": 12,
            "name": "EP",
            "accType": "CHORD2",
            "editable": false,
            "mutedNotes": [],
            "mutedChords": [],
            "autoStart": false,
            "sourceChordNote": 0,
            "sourceChordType": "Maj7",
            "ctb2Low": null,
            "ctb2Main": {
              "ntr": "ROOT_FIXED",
              "ntt": "CHORD",
              "bassOn": false,
              "chordRootUpperLimit": 7,
              "noteLowLimit": 0,
              "noteHighLimit": 127,
              "rtr": "PITCH_SHIFT"
            },
            "ctb2High": null
          },
          "notes": [
            {
              "pitch": 59,
              "velocity": 78,
              "position": 0,
              "duration": 2.3229166666666665
            },
            {
              "pitch": 59,
              "velocity": 45,
              "position": 2.3333333333333335,
              "duration": 0.3229166666666667
            },
            {
              "pitch": 64,
              "velocity": 78,
              "position": 0,
              "duration": 2.65625
            },
            {
              "pitch": 67,
              "velocity": 78,
              "position": 0,
              "duration": 2.65625
            },
            {
              "pitch": 64,
              "velocity": 68,
              "position": 2.6666666666666665,
              "duration": 0.65625
            },
            {
              "pitch": 67,
              "velocity": 68,
              "position": 2.6666666666666665,
              "duration": 0.65625
            },
            {
              "pitch": 71,
              "velocity": 68,
              "position": 2.6666666666666665,
              "duration": 0.65625
            },
            {
              "pitch": 59,
              "velocity": 68,
              "position": 3.3333333333333335,
              "duration": 0.65625
            },
            {
              "pitch": 64,
              "velocity": 68,
              "position": 3.3333333333333335,
              "duration": 0.65625
            },
            {
              "pitch": 67,
              "velocity": 68,
              "position": 3.3333333333333335,
              "duration": 0.65625
            }
          ]
        },
        "13": {
          "ctab": {
            "srcChannel": 13,
            "name": "Str",
            "accType": "PAD",
            "editable": false,
            "mutedNotes": [],
            "mutedChords": [],
            "autoStart": false,
            "sourceChordNote": 0,
            "sourceChordType": "Maj7",
            "ctb2Low": null,
            "ctb2Main": {
              "ntr": "ROOT_FIXED",
              "ntt": "CHORD",
              "bassOn": false,
              "chordRootUpperLimit": 7,
              "noteLowLimit": 0,
              "noteHighLimit": 79,
              "rtr": "PITCH_SHIFT"
            },
            "ctb2High": null
          },
          "notes": []
        },
        "14": {
          "ctab": {
            "srcChannel": 14,
            "name": "Pno",
            "accType": "PHRASE1",
            "editable": false,
            "mutedNotes": [],
            "mutedChords": [],
            "autoStart": false,
            "sourceChordNote": 0,
            "sourceChordType": "Maj7",
            "ctb2Low": null,
            "ctb2Main": {
              "ntr": "ROOT_FIXED",
              "ntt": "CHORD",
              "bassOn": false,
              "chordRootUpperLimit": 7,
              "noteLowLimit": 0,
              "noteHighLimit": 127,
              "rtr": "PITCH_SHIFT"
            },
            "ctb2High": null
          },
          "notes": [
            {
              "pitch": 88,
              "velocity": 48,
              "position": 0.6770833333333334,
              "duration": 1.3229166666666667
            },
            {
              "pitch": 83,
              "velocity": 48,
              "position": 1.34375,
              "duration": 1.3229166666666667
            },
            {
              "pitch": 79,
              "velocity": 48,
              "position": 2.0104166666666665,
              "duration": 1.3229166666666667
            }
          ]
        }
      }
    },
    "Fill_In_BB": {
      "type": "Fill_In_BB",
      "sizeInBeats": 4,
      "channels": {
        "1": {
          "ctab": {
            "srcChannel": 1,
            "name": "Bass 2",
            "accType": "BASS",
            "editable": false,
            "mutedNotes": [],
            "mutedChords": [
              "1+2+5",
              "1+5",
              "1+8",
              "Maj7aug",
              "7(#9)",
              "7(b13)",
              "7(b9)",
              "7(13)",
              "7#11",
              "7(9)",
              "7b5",
              "7sus4",
              "7th",
              "dim7",
              "min7(11)",
              "min7(9)",
              "min7",
              "min6",
              "Maj6(9)",
              "Maj7(9)",
              "Maj(9)",
              "Maj7#11",
              "Maj7",
              "Maj6",
              "Maj"
            ],
            "autoStart": false,
            "sourceChordNote": 0,
            "sourceChordType": "Maj7",
            "ctb2Low": null,
            "ctb2Main": {
              "ntr": "ROOT_TRANSPOSITION",
              "ntt": "MELODY",
              "bassOn": true,
              "chordRootUpperLimit": 8,
              "noteLowLimit": 28,
              "noteHighLimit": 127,
              "rtr": "PITCH_SHIFT_TO_ROOT"
            },
            "ctb2High": null
          },
          "notes": [
            {
              "pitch": 24,
              "velocity": 58,
              "position": 0,
              "duration": 1.5625
            },
            {
              "pitch": 24,
              "velocity": 110,
              "position": 1.6666666666666667,
              "duration": 0.11458333333333333
            },
            {
              "pitch": 28,
              "velocity": 58,
              "position": 2,
              "duration": 0.9895833333333334
            },
            {
              "pitch": 31,
              "velocity": 58,
              "position": 3,
              "duration": 0.9895833333333334
            }
          ]
        },
        "2": {
          "ctab": {
            "srcChannel": 2,
            "name": "Gt Root",
            "accType": "CHORD1",
            "editable": false,
            "mutedNotes": [],
            "mutedChords": [
              "1+2+5",
              "sus4",
              "1+5",
              "1+8",
              "Maj7aug",
              "dim",
              "minMaj7(9)",
              "minMaj7",
              "min6",
              "min",
              "aug",
              "Maj7(9)",
              "Maj7#11",
              "Maj7",
              "Maj6",
              "Maj"
            ],
            "autoStart": false,
            "sourceChordNote": 0,
            "sourceChordType": "Maj7",
            "ctb2Low": null,
            "ctb2Main": {
              "ntr": "ROOT_TRANSPOSITION",
              "ntt": "CHORD",
              "bassOn": false,
              "chordRootUpperLimit": 6,
              "noteLowLimit": 0,
              "noteHighLimit": 127,
              "rtr": "PITCH_SHIFT"
            },
            "ctb2High": null
          },
          "notes": [
            {
              "pitch": 60,
              "velocity": 98,
              "position": 0,
              "duration": 0.9895833333333334
            },
            {
              "pitch": 60,
              "velocity": 98,
              "position": 1,
              "duration": 0.22916666666666666
            },
            {
              "pitch": 60,
              "velocity": 80,
              "position": 2,
              "duration": 0.65625
            },
            {
              "pitch": 60,
              "velocity": 46,
              "position": 2.6666666666666665,
              "duration": 0.3229166666666667
            },
            {
              "pitch": 60,
              "velocity": 98,
              "position": 3,
              "duration": 0.22916666666666666
            }
          ]
        },
        "4": {
          "ctab": {
            "srcChannel": 4,
            "name": "Str Root",
            "accType": "PAD",
            "editable": false,
            "mutedNotes": [],
            "mutedChords": [
              "1+2+5",
              "sus4",
              "1+5",
              "1+8",
              "Maj7aug",
              "dim",
              "minMaj7(9)",
              "minMaj7",
              "min6",
              "min",
              "aug",
              "Maj7(9)",
              "Maj7#11",
              "Maj7",
              "Maj6",
              "Maj"
            ],
            "autoStart": false,
            "sourceChordNote": 0,
            "sourceChordType": "Maj7",
            "ctb2Low": null,
            "ctb2Main": {
              "ntr": "ROOT_TRANSPOSITION",
              "ntt": "CHORD",
              "bassOn": false,
              "chordRootUpperLimit": 6,
              "noteLowLimit": 0,
              "noteHighLimit": 70,
              "rtr": "PITCH_SHIFT"
            },
            "ctb2High": null
          },
          "notes": [
            {
              "pitch": 72,
              "velocity": 18,
              "position": 0.010416666666666666,
              "duration": 1.9895833333333333
            }
          ]
        },
        "7": {
          "ctab": {
            "srcChannel": 7,
            "name": "CC_Crash",
            "accType": "RHYTHM",
            "editable": false,
            "mutedNotes": [],
            "mutedChords": [
              "1+2+5",
              "sus4",
              "1+5",
              "1+8",
              "7aug",
              "Maj7aug",
              "7(#9)",
              "7(b13)",
              "7(b9)",
              "7(13)",
              "7#11",
              "7(9)",
              "7b5",
              "7sus4",
              "7th",
              "dim7",
              "dim",
              "minMaj7(9)",
              "minMaj7",
              "min7(11)",
              "min7(9)",
              "min(9)",
              "m7b5",
              "min7",
              "min6",
              "min",
              "aug",
              "Maj6(9)",
              "Maj7(9)",
              "Maj(9)",
              "Maj7#11",
              "Maj7",
              "Maj6",
              "Maj"
            ],
            "autoStart": true,
            "sourceChordNote": 0,
            "sourceChordType": "Maj",
            "ctb2Low": null,
            "ctb2Main": {
              "ntr": "ROOT_FIXED",
              "ntt": "BYPASS",
              "bassOn": false,
              "chordRootUpperLimit": 0,
              "noteLowLimit": 0,
              "noteHighLimit": 127,
              "rtr": "RETRIGGER"
            },
            "ctb2High": null
          },
          "notes": []
        },
        "9": {
          "ctab": {
            "srcChannel": 9,
            "name": "Drums",
            "accType": "RHYTHM",
            "editable": false,
            "mutedNotes": [],
            "mutedChords": [],
            "autoStart": true,
            "sourceChordNote": 0,
            "sourceChordType": "Maj7",
            "ctb2Low": null,
            "ctb2Main": {
              "ntr": "ROOT_FIXED",
              "ntt": "BYPASS",
              "bassOn": false,
              "chordRootUpperLimit": 6,
              "noteLowLimit": 0,
              "noteHighLimit": 127,
              "rtr": "PITCH_SHIFT"
            },
            "ctb2High": null
          },
          "notes": [
            {
              "pitch": 25,
              "velocity": 60,
              "position": 0,
              "duration": 0.010416666666666666
            },
            {
              "pitch": 35,
              "velocity": 40,
              "position": 0,
              "duration": 0.010416666666666666
            },
            {
              "pitch": 26,
              "velocity": 38,
              "position": 0,
              "duration": 0.9895833333333334
            },
            {
              "pitch": 25,
              "velocity": 60,
              "position": 1,
              "duration": 0.010416666666666666
            },
            {
              "pitch": 44,
              "velocity": 48,
              "position": 1,
              "duration": 0.010416666666666666
            },
            {
              "pitch": 25,
              "velocity": 30,
              "position": 1.6666666666666667,
              "duration": 0.010416666666666666
            },
            {
              "pitch": 47,
              "velocity": 40,
              "position": 1.6666666666666667,
              "duration": 0.010416666666666666
            },
            {
              "pitch": 28,
              "velocity": 34,
              "position": 1,
              "duration": 0.9895833333333334
            },
            {
              "pitch": 25,
              "velocity": 60,
              "position": 2,
              "duration": 0.010416666666666666
            },
            {
              "pitch": 35,
              "velocity": 40,
              "position": 2,
              "duration": 0.010416666666666666
            },
            {
              "pitch": 25,
              "velocity": 29,
              "position": 2.3333333333333335,
              "duration": 0.010416666666666666
            },
            {
              "pitch": 25,
              "velocity": 60,
              "position": 2.6666666666666665,
              "duration": 0.010416666666666666
            },
            {
              "pitch": 26,
              "velocity": 38,
              "position": 2,
              "duration": 0.9895833333333334
            },
            {
              "pitch": 25,
              "velocity": 90,
              "position": 3,
              "duration": 0.010416666666666666
            },
            {
              "pitch": 44,
              "velocity": 48,
              "position": 3,
              "duration": 0.010416666666666666
            },
            {
              "pitch": 27,
              "velocity": 120,
              "position": 3.0625,
              "duration": 0.010416666666666666
            },
            {
              "pitch": 25,
              "velocity": 21,
              "position": 3.3333333333333335,
              "duration": 0.010416666666666666
            },
            {
              "pitch": 51,
              "velocity": 18,
              "position": 3.3333333333333335,
              "duration": 0.010416666666666666
            },
            {
              "pitch": 35,
              "velocity": 40,
              "position": 3.6666666666666665,
              "duration": 0.010416666666666666
            },
            {
              "pitch": 51,
              "velocity": 54,
              "position": 3.6666666666666665,
              "duration": 0.010416666666666666
            },
            {
              "pitch": 28,
              "velocity": 34,
              "position": 3,
              "duration": 0.9895833333333334
            }
          ]
        },
        "10": {
          "ctab": {
            "srcChannel": 10,
            "name": "Bass 1",
            "accType": "BASS",
            "editable": false,
            "mutedNotes": [],
            "mutedChords": [
              "sus4",
              "7aug",
              "dim",
              "minMaj7(9)",
              "minMaj7",
              "min(9)",
              "m7b5",
              "min",
              "aug"
            ],
            "autoStart": false,
            "sourceChordNote": 0,
            "sourceChordType": "Maj7",
            "ctb2Low": null,
            "ctb2Main": {
              "ntr": "ROOT_TRANSPOSITION",
              "ntt": "MELODY",
              "bassOn": true,
              "chordRootUpperLimit": 8,
              "noteLowLimit": 28,
              "noteHighLimit": 127,
              "rtr": "PITCH_SHIFT_TO_ROOT"
            },
            "ctb2High": null
          },
          "notes": [
            {
              "pitch": 24,
              "velocity": 58,
              "position": 0,
              "duration": 1.5625
            },
            {
              "pitch": 24,
              "velocity": 110,
              "position": 1.6666666666666667,
              "duration": 0.11458333333333333
            },
            {
              "pitch": 28,
              "velocity": 58,
              "position": 2,
              "duration": 0.9895833333333334
            },
            {
              "pitch": 31,
              "velocity": 58,
              "position": 3,
              "duration": 0.9895833333333334
            }
          ]
        },
        "11": {
          "ctab": {
            "srcChannel": 11,
            "name": "Gt",
            "accType": "CHORD1",
            "editable": false,
            "mutedNotes": [],
            "mutedChords": [],
            "autoStart": false,
            "sourceChordNote": 0,
            "sourceChordType": "Maj7",
            "ctb2Low": null,
            "ctb2Main": {
              "ntr": "ROOT_FIXED",
              "ntt": "CHORD",
              "bassOn": false,
              "chordRootUpperLimit": 7,
              "noteLowLimit": 0,
              "noteHighLimit": 127,
              "rtr": "PITCH_SHIFT"
            },
            "ctb2High": null
          },
          "notes": [
            {
              "pitch": 55,
              "velocity": 98,
              "position": 0,
              "duration": 0.9895833333333334
            },
            {
              "pitch": 59,
              "velocity": 98,
              "position": 0,
              "duration": 0.9895833333333334
            },
            {
              "pitch": 64,
              "velocity": 98,
              "position": 0,
              "duration": 0.9895833333333334
            },
            {
              "pitch": 55,
              "velocity": 98,
              "position": 1,
              "duration": 0.22916666666666666
            },
            {
              "pitch": 59,
              "velocity": 98,
              "position": 1,
              "duration": 0.22916666666666666
            },
            {
              "pitch": 64,
              "velocity": 98,
              "position": 1,
              "duration": 0.22916666666666666
            },
            {
              "pitch": 55,
              "velocity": 80,
              "position": 2,
              "duration": 0.65625
            },
            {
              "pitch": 59,
              "velocity": 80,
              "position": 2,
              "duration": 0.65625
            },
            {
              "pitch": 64,
              "velocity": 80,
              "position": 2,
              "duration": 0.65625
            },
            {
              "pitch": 55,
              "velocity": 46,
              "position": 2.6666666666666665,
              "duration": 0.3229166666666667
            },
            {
              "pitch": 59,
              "velocity": 46,
              "position": 2.6666666666666665,
              "duration": 0.3229166666666667
            },
            {
              "pitch": 64,
              "velocity": 46,
              "position": 2.6666666666666665,
              "duration": 0.3229166666666667
            },
            {
              "pitch": 55,
              "velocity": 98,
              "position": 3,
              "duration": 0.22916666666666666
            },
            {
              "pitch": 59,
              "velocity": 98,
              "position": 3,
              "duration": 0.22916666666666666
            },
            {
              "pitch": 64,
              "velocity": 98,
              "position": 3,
              "duration": 0.22916666666666666
            }
          ]
        },
        "12": {
          "ctab": {
            "srcChannel": 12,
            "name": "EP",
            "accType": "CHORD2",
            "editable": false,
            "mutedNotes": [],
            "mutedChords": [],
            "autoStart": false,
            "sourceChordNote": 0,
            "sourceChordType": "Maj7",
            "ctb2Low": null,
            "ctb2Main": {
              "ntr": "ROOT_FIXED",
              "ntt": "CHORD",
              "bassOn": false,
              "chordRootUpperLimit": 7,
              "noteLowLimit": 0,
              "noteHighLimit": 127,
              "rtr": "PITCH_SHIFT"
            },
            "ctb2High": null
          },
          "notes": [
            {
              "pitch": 59,
              "velocity": 78,
              "position": 0,
              "duration": 2.65625
            },
            {
              "pitch": 64,
              "velocity": 78,
              "position": 0,
              "duration": 2.65625
            },
            {
              "pitch": 67,
              "velocity": 78,
              "position": 0,
              "duration": 2.65625
            },
            {
              "pitch": 59,
              "velocity": 68,
              "position": 2.6666666666666665,
              "duration": 0.65625
            },
            {
              "pitch": 64,
              "velocity": 68,
              "position": 2.6666666666666665,
              "duration": 0.65625
            },
            {
              "pitch": 67,
              "velocity": 68,
              "position": 2.6666666666666665,
              "duration": 0.65625
            },
            {
              "pitch": 71,
              "velocity": 45,
              "position": 2.3333333333333335,
              "duration": 0.9895833333333334
            },
            {
              "pitch": 79,
              "velocity": 45,
              "position": 2.6666666666666665,
              "duration": 0.65625
            },
            {
              "pitch": 64,
              "velocity": 45,
              "position": 3.3333333333333335,
              "duration": 0.65625
            },
            {
              "pitch": 67,
              "velocity": 45,
              "position": 3.3333333333333335,
              "duration": 0.65625
            },
            {
              "pitch": 71,
              "velocity": 45,
              "position": 3.3333333333333335,
              "duration": 0.65625
            }
          ]
        },
        "13": {
          "ctab": {
            "srcChannel": 13,
            "name": "Str",
            "accType": "PAD",
            "editable": false,
            "mutedNotes": [],
            "mutedChords": [],
            "autoStart": false,
            "sourceChordNote": 0,
            "sourceChordType": "Maj7",
            "ctb2Low": null,
            "ctb2Main": {
              "ntr": "ROOT_FIXED",
              "ntt": "CHORD",
              "bassOn": false,
              "chordRootUpperLimit": 7,
              "noteLowLimit": 0,
              "noteHighLimit": 79,
              "rtr": "PITCH_SHIFT"
            },
            "ctb2High": null
          },
          "notes": [
            {
              "pitch": 67,
              "velocity": 19,
              "position": 0.010416666666666666,
              "duration": 1.9895833333333333
            }
          ]
        },
        "14": {
          "ctab": {
            "srcChannel": 14,
            "name": "Pno",
            "accType": "PHRASE1",
            "editable": false,
            "mutedNotes": [],
            "mutedChords": [],
            "autoStart": false,
            "sourceChordNote": 0,
            "sourceChordType": "Maj7",
            "ctb2Low": null,
            "ctb2Main": {
              "ntr": "ROOT_FIXED",
              "ntt": "CHORD",
              "bassOn": false,
              "chordRootUpperLimit": 7,
              "noteLowLimit": 0,
              "noteHighLimit": 127,
              "rtr": "PITCH_SHIFT"
            },
            "ctb2High": null
          },
          "notes": [
            {
              "pitch": 55,
              "velocity": 34,
              "position": 0.010416666666666666,
              "duration": 0.65625
            },
            {
              "pitch": 59,
              "velocity": 34,
              "position": 0.010416666666666666,
              "duration": 0.65625
            },
            {
              "pitch": 64,
              "velocity": 34,
              "position": 0.010416666666666666,
              "duration": 0.65625
            },
            {
              "pitch": 64,
              "velocity": 51,
              "position": 0.6770833333333334,
              "duration": 0.9791666666666666
            },
            {
              "pitch": 76,
              "velocity": 54,
              "position": 1.34375,
              "duration": 0.9791666666666666
            },
            {
              "pitch": 79,
              "velocity": 54,
              "position": 1.6770833333333333,
              "duration": 0.9791666666666666
            },
            {
              "pitch": 55,
              "velocity": 51,
              "position": 0.6770833333333334,
              "duration": 3.3125
            },
            {
              "pitch": 59,
              "velocity": 51,
              "position": 0.6770833333333334,
              "duration": 3.3125
            },
            {
              "pitch": 83,
              "velocity": 53,
              "position": 3.34375,
              "duration": 0.6458333333333334
            },
            {
              "pitch": 88,
              "velocity": 53,
              "position": 3.6770833333333335,
              "duration": 0.3125
            }
          ]
        }
      }
    },
    "Fill_In_CC": {
      "type": "Fill_In_CC",
      "sizeInBeats": 4,
      "channels": {
        "1": {
          "ctab": {
            "srcChannel": 1,
            "name": "Bass 2",
            "accType": "BASS",
            "editable": false,
            "mutedNotes": [],
            "mutedChords": [
              "1+2+5",
              "1+5",
              "1+8",
              "Maj7aug",
              "7(#9)",
              "7(b13)",
              "7(b9)",
              "7(13)",
              "7#11",
              "7(9)",
              "7b5",
              "7sus4",
              "7th",
              "dim7",
              "min7(11)",
              "min7(9)",
              "min7",
              "min6",
              "Maj6(9)",
              "Maj7(9)",
              "Maj(9)",
              "Maj7#11",
              "Maj7",
              "Maj6",
              "Maj"
            ],
            "autoStart": false,
            "sourceChordNote": 0,
            "sourceChordType": "Maj7",
            "ctb2Low": null,
            "ctb2Main": {
              "ntr": "ROOT_TRANSPOSITION",
              "ntt": "MELODY",
              "bassOn": true,
              "chordRootUpperLimit": 8,
              "noteLowLimit": 28,
              "noteHighLimit": 127,
              "rtr": "PITCH_SHIFT_TO_ROOT"
            },
            "ctb2High": null
          },
          "notes": [
            {
              "pitch": 24,
              "velocity": 58,
              "position": 0,
              "duration": 0.9895833333333334
            },
            {
              "pitch": 36,
              "velocity": 58,
              "position": 1,
              "duration": 0.9895833333333334
            },
            {
              "pitch": 31,
              "velocity": 58,
              "position": 2,
              "duration": 0.9895833333333334
            },
            {
              "pitch": 28,
              "velocity": 58,
              "position": 3,
              "duration": 0.9895833333333334
            }
          ]
        },
        "2": {
          "ctab": {
            "srcChannel": 2,
            "name": "Gt Root",
            "accType": "CHORD1",
            "editable": false,
            "mutedNotes": [],
            "mutedChords": [
              "1+2+5",
              "sus4",
              "1+5",
              "1+8",
              "Maj7aug",
              "dim",
              "minMaj7(9)",
              "minMaj7",
              "min6",
              "min",
              "aug",
              "Maj7(9)",
              "Maj7#11",
              "Maj7",
              "Maj6",
              "Maj"
            ],
            "autoStart": false,
            "sourceChordNote": 0,
            "sourceChordType": "Maj7",
            "ctb2Low": null,
            "ctb2Main": {
              "ntr": "ROOT_TRANSPOSITION",
              "ntt": "CHORD",
              "bassOn": false,
              "chordRootUpperLimit": 6,
              "noteLowLimit": 0,
              "noteHighLimit": 127,
              "rtr": "PITCH_SHIFT"
            },
            "ctb2High": null
          },
          "notes": [
            {
              "pitch": 60,
              "velocity": 98,
              "position": 0,
              "duration": 0.22916666666666666
            },
            {
              "pitch": 60,
              "velocity": 80,
              "position": 1,
              "duration": 0.65625
            },
            {
              "pitch": 60,
              "velocity": 98,
              "position": 1.6666666666666667,
              "duration": 0.3229166666666667
            },
            {
              "pitch": 60,
              "velocity": 46,
              "position": 2,
              "duration": 0.65625
            },
            {
              "pitch": 60,
              "velocity": 64,
              "position": 2.6666666666666665,
              "duration": 0.3229166666666667
            },
            {
              "pitch": 60,
              "velocity": 98,
              "position": 3,
              "duration": 0.22916666666666666
            }
          ]
        },
        "4": {
          "ctab": {
            "srcChannel": 4,
            "name": "Str Root",
            "accType": "PAD",
            "editable": false,
            "mutedNotes": [],
            "mutedChords": [
              "1+2+5",
              "sus4",
              "1+5",
              "1+8",
              "Maj7aug",
              "dim",
              "minMaj7(9)",
              "minMaj7",
              "min6",
              "min",
              "aug",
              "Maj7(9)",
              "Maj7#11",
              "Maj7",
              "Maj6",
              "Maj"
            ],
            "autoStart": false,
            "sourceChordNote": 0,
            "sourceChordType": "Maj7",
            "ctb2Low": null,
            "ctb2Main": {
              "ntr": "ROOT_TRANSPOSITION",
              "ntt": "CHORD",
              "bassOn": false,
              "chordRootUpperLimit": 6,
              "noteLowLimit": 0,
              "noteHighLimit": 70,
              "rtr": "PITCH_SHIFT"
            },
            "ctb2High": null
          },
          "notes": [
            {
              "pitch": 60,
              "velocity": 22,
              "position": 0.010416666666666666,
              "duration": 3.9791666666666665
            }
          ]
        },
        "7": {
          "ctab": {
            "srcChannel": 7,
            "name": "CC_Crash",
            "accType": "RHYTHM",
            "editable": false,
            "mutedNotes": [],
            "mutedChords": [
              "1+2+5",
              "sus4",
              "1+5",
              "1+8",
              "7aug",
              "Maj7aug",
              "7(#9)",
              "7(b13)",
              "7(b9)",
              "7(13)",
              "7#11",
              "7(9)",
              "7b5",
              "7sus4",
              "7th",
              "dim7",
              "dim",
              "minMaj7(9)",
              "minMaj7",
              "min7(11)",
              "min7(9)",
              "min(9)",
              "m7b5",
              "min7",
              "min6",
              "min",
              "aug",
              "Maj6(9)",
              "Maj7(9)",
              "Maj(9)",
              "Maj7#11",
              "Maj7",
              "Maj6",
              "Maj"
            ],
            "autoStart": true,
            "sourceChordNote": 0,
            "sourceChordType": "Maj",
            "ctb2Low": null,
            "ctb2Main": {
              "ntr": "ROOT_FIXED",
              "ntt": "BYPASS",
              "bassOn": false,
              "chordRootUpperLimit": 0,
              "noteLowLimit": 0,
              "noteHighLimit": 127,
              "rtr": "RETRIGGER"
            },
            "ctb2High": null
          },
          "notes": []
        },
        "9": {
          "ctab": {
            "srcChannel": 9,
            "name": "Drums",
            "accType": "RHYTHM",
            "editable": false,
            "mutedNotes": [],
            "mutedChords": [],
            "autoStart": true,
            "sourceChordNote": 0,
            "sourceChordType": "Maj7",
            "ctb2Low": null,
            "ctb2Main": {
              "ntr": "ROOT_FIXED",
              "ntt": "BYPASS",
              "bassOn": false,
              "chordRootUpperLimit": 6,
              "noteLowLimit": 0,
              "noteHighLimit": 127,
              "rtr": "PITCH_SHIFT"
            },
            "ctb2High": null
          },
          "notes": [
            {
              "pitch": 25,
              "velocity": 60,
              "position": 0,
              "duration": 0.010416666666666666
            },
            {
              "pitch": 35,
              "velocity": 40,
              "position": 0,
              "duration": 0.010416666666666666
            },
            {
              "pitch": 51,
              "velocity": 54,
              "position": 0,
              "duration": 0.010416666666666666
            },
            {
              "pitch": 25,
              "velocity": 20,
              "position": 0.75,
              "duration": 0.010416666666666666
            },
            {
              "pitch": 25,
              "velocity": 30,
              "position": 0.8333333333333334,
              "duration": 0.010416666666666666
            },
            {
              "pitch": 25,
              "velocity": 40,
              "position": 0.9166666666666666,
              "duration": 0.010416666666666666
            },
            {
              "pitch": 26,
              "velocity": 38,
              "position": 0,
              "duration": 0.9895833333333334
            },
            {
              "pitch": 27,
              "velocity": 80,
              "position": 1,
              "duration": 0.010416666666666666
            },
            {
              "pitch": 44,
              "velocity": 48,
              "position": 1,
              "duration": 0.010416666666666666
            },
            {
              "pitch": 51,
              "velocity": 54,
              "position": 1,
              "duration": 0.010416666666666666
            },
            {
              "pitch": 48,
              "velocity": 20,
              "position": 1.3333333333333333,
              "duration": 0.010416666666666666
            },
            {
              "pitch": 48,
              "velocity": 60,
              "position": 1.6666666666666667,
              "duration": 0.010416666666666666
            },
            {
              "pitch": 28,
              "velocity": 34,
              "position": 1,
              "duration": 0.9895833333333334
            },
            {
              "pitch": 25,
              "velocity": 60,
              "position": 2,
              "duration": 0.010416666666666666
            },
            {
              "pitch": 35,
              "velocity": 40,
              "position": 2,
              "duration": 0.010416666666666666
            },
            {
              "pitch": 51,
              "velocity": 54,
              "position": 2,
              "duration": 0.010416666666666666
            },
            {
              "pitch": 47,
              "velocity": 20,
              "position": 2.3333333333333335,
              "duration": 0.010416666666666666
            },
            {
              "pitch": 47,
              "velocity": 60,
              "position": 2.6666666666666665,
              "duration": 0.010416666666666666
            },
            {
              "pitch": 26,
              "velocity": 38,
              "position": 2,
              "duration": 0.9895833333333334
            },
            {
              "pitch": 25,
              "velocity": 60,
              "position": 3,
              "duration": 0.010416666666666666
            },
            {
              "pitch": 46,
              "velocity": 30,
              "position": 3,
              "duration": 0.010416666666666666
            },
            {
              "pitch": 51,
              "velocity": 54,
              "position": 3,
              "duration": 0.010416666666666666
            },
            {
              "pitch": 45,
              "velocity": 20,
              "position": 3.3333333333333335,
              "duration": 0.010416666666666666
            },
            {
              "pitch": 45,
              "velocity": 60,
              "position": 3.6666666666666665,
              "duration": 0.010416666666666666
            },
            {
              "pitch": 28,
              "velocity": 34,
              "position": 3,
              "duration": 0.9895833333333334
            }
          ]
        },
        "10": {
          "ctab": {
            "srcChannel": 10,
            "name": "Bass 1",
            "accType": "BASS",
            "editable": false,
            "mutedNotes": [],
            "mutedChords": [
              "sus4",
              "7aug",
              "dim",
              "minMaj7(9)",
              "minMaj7",
              "min(9)",
              "m7b5",
              "min",
              "aug"
            ],
            "autoStart": false,
            "sourceChordNote": 0,
            "sourceChordType": "Maj7",
            "ctb2Low": null,
            "ctb2Main": {
              "ntr": "ROOT_TRANSPOSITION",
              "ntt": "MELODY",
              "bassOn": true,
              "chordRootUpperLimit": 8,
              "noteLowLimit": 28,
              "noteHighLimit": 127,
              "rtr": "PITCH_SHIFT_TO_ROOT"
            },
            "ctb2High": null
          },
          "notes": [
            {
              "pitch": 24,
              "velocity": 58,
              "position": 0,
              "duration": 0.9895833333333334
            },
            {
              "pitch": 36,
              "velocity": 58,
              "position": 1,
              "duration": 0.9895833333333334
            },
            {
              "pitch": 31,
              "velocity": 58,
              "position": 2,
              "duration": 0.9895833333333334
            },
            {
              "pitch": 28,
              "velocity": 58,
              "position": 3,
              "duration": 0.9895833333333334
            }
          ]
        },
        "11": {
          "ctab": {
            "srcChannel": 11,
            "name": "Gt",
            "accType": "CHORD1",
            "editable": false,
            "mutedNotes": [],
            "mutedChords": [],
            "autoStart": false,
            "sourceChordNote": 0,
            "sourceChordType": "Maj7",
            "ctb2Low": null,
            "ctb2Main": {
              "ntr": "ROOT_FIXED",
              "ntt": "CHORD",
              "bassOn": false,
              "chordRootUpperLimit": 7,
              "noteLowLimit": 0,
              "noteHighLimit": 127,
              "rtr": "PITCH_SHIFT"
            },
            "ctb2High": null
          },
          "notes": [
            {
              "pitch": 55,
              "velocity": 98,
              "position": 0,
              "duration": 0.22916666666666666
            },
            {
              "pitch": 59,
              "velocity": 98,
              "position": 0,
              "duration": 0.22916666666666666
            },
            {
              "pitch": 64,
              "velocity": 98,
              "position": 0,
              "duration": 0.22916666666666666
            },
            {
              "pitch": 55,
              "velocity": 80,
              "position": 1,
              "duration": 0.65625
            },
            {
              "pitch": 59,
              "velocity": 80,
              "position": 1,
              "duration": 0.65625
            },
            {
              "pitch": 64,
              "velocity": 80,
              "position": 1,
              "duration": 0.65625
            },
            {
              "pitch": 55,
              "velocity": 98,
              "position": 1.6666666666666667,
              "duration": 0.3229166666666667
            },
            {
              "pitch": 59,
              "velocity": 98,
              "position": 1.6666666666666667,
              "duration": 0.3229166666666667
            },
            {
              "pitch": 64,
              "velocity": 98,
              "position": 1.6666666666666667,
              "duration": 0.3229166666666667
            },
            {
              "pitch": 55,
              "velocity": 46,
              "position": 2,
              "duration": 0.65625
            },
            {
              "pitch": 59,
              "velocity": 46,
              "position": 2,
              "duration": 0.65625
            },
            {
              "pitch": 64,
              "velocity": 46,
              "position": 2,
              "duration": 0.65625
            },
            {
              "pitch": 55,
              "velocity": 64,
              "position": 2.6666666666666665,
              "duration": 0.3229166666666667
            },
            {
              "pitch": 59,
              "velocity": 64,
              "position": 2.6666666666666665,
              "duration": 0.3229166666666667
            },
            {
              "pitch": 64,
              "velocity": 64,
              "position": 2.6666666666666665,
              "duration": 0.3229166666666667
            },
            {
              "pitch": 55,
              "velocity": 98,
              "position": 3,
              "duration": 0.22916666666666666
            },
            {
              "pitch": 59,
              "velocity": 98,
              "position": 3,
              "duration": 0.22916666666666666
            },
            {
              "pitch": 64,
              "velocity": 98,
              "position": 3,
              "duration": 0.22916666666666666
            }
          ]
        },
        "12": {
          "ctab": {
            "srcChannel": 12,
            "name": "EP",
            "accType": "CHORD2",
            "editable": false,
            "mutedNotes": [],
            "mutedChords": [],
            "autoStart": false,
            "sourceChordNote": 0,
            "sourceChordType": "Maj7",
            "ctb2Low": null,
            "ctb2Main": {
              "ntr": "ROOT_FIXED",
              "ntt": "CHORD",
              "bassOn": false,
              "chordRootUpperLimit": 7,
              "noteLowLimit": 0,
              "noteHighLimit": 127,
              "rtr": "PITCH_SHIFT"
            },
            "ctb2High": null
          },
          "notes": [
            {
              "pitch": 59,
              "velocity": 78,
              "position": 0,
              "duration": 0.65625
            },
            {
              "pitch": 64,
              "velocity": 78,
              "position": 0,
              "duration": 0.65625
            },
            {
              "pitch": 67,
              "velocity": 78,
              "position": 0,
              "duration": 0.65625
            },
            {
              "pitch": 67,
              "velocity": 57,
              "position": 0.6666666666666666,
              "duration": 1.9895833333333333
            },
            {
              "pitch": 71,
              "velocity": 57,
              "position": 0.6666666666666666,
              "duration": 1.9895833333333333
            },
            {
              "pitch": 76,
              "velocity": 57,
              "position": 0.6666666666666666,
              "duration": 1.9895833333333333
            },
            {
              "pitch": 59,
              "velocity": 68,
              "position": 2.6666666666666665,
              "duration": 1.3229166666666667
            },
            {
              "pitch": 64,
              "velocity": 68,
              "position": 2.6666666666666665,
              "duration": 1.3229166666666667
            },
            {
              "pitch": 67,
              "velocity": 68,
              "position": 2.6666666666666665,
              "duration": 1.3229166666666667
            }
          ]
        },
        "13": {
          "ctab": {
            "srcChannel": 13,
            "name": "Str",
            "accType": "PAD",
            "editable": false,
            "mutedNotes": [],
            "mutedChords": [],
            "autoStart": false,
            "sourceChordNote": 0,
            "sourceChordType": "Maj7",
            "ctb2Low": null,
            "ctb2Main": {
              "ntr": "ROOT_FIXED",
              "ntt": "CHORD",
              "bassOn": false,
              "chordRootUpperLimit": 7,
              "noteLowLimit": 0,
              "noteHighLimit": 79,
              "rtr": "PITCH_SHIFT"
            },
            "ctb2High": null
          },
          "notes": [
            {
              "pitch": 71,
              "velocity": 18,
              "position": 1.0104166666666667,
              "duration": 0.9895833333333334
            },
            {
              "pitch": 76,
              "velocity": 18,
              "position": 1.0104166666666667,
              "duration": 1.9895833333333333
            },
            {
              "pitch": 55,
              "velocity": 23,
              "position": 0.010416666666666666,
              "duration": 3.9791666666666665
            },
            {
              "pitch": 59,
              "velocity": 23,
              "position": 0.010416666666666666,
              "duration": 3.9791666666666665
            },
            {
              "pitch": 64,
              "velocity": 23,
              "position": 0.010416666666666666,
              "duration": 3.9791666666666665
            }
          ]
        },
        "14": {
          "ctab": {
            "srcChannel": 14,
            "name": "Pno",
            "accType": "PHRASE1",
            "editable": false,
            "mutedNotes": [],
            "mutedChords": [],
            "autoStart": false,
            "sourceChordNote": 0,
            "sourceChordType": "Maj7",
            "ctb2Low": null,
            "ctb2Main": {
              "ntr": "ROOT_FIXED",
              "ntt": "CHORD",
              "bassOn": false,
              "chordRootUpperLimit": 7,
              "noteLowLimit": 0,
              "noteHighLimit": 127,
              "rtr": "PITCH_SHIFT"
            },
            "ctb2High": null
          },
          "notes": [
            {
              "pitch": 55,
              "velocity": 34,
              "position": 0.010416666666666666,
              "duration": 0.65625
            },
            {
              "pitch": 59,
              "velocity": 34,
              "position": 0.010416666666666666,
              "duration": 0.65625
            },
            {
              "pitch": 64,
              "velocity": 34,
              "position": 0.010416666666666666,
              "duration": 0.65625
            },
            {
              "pitch": 64,
              "velocity": 51,
              "position": 0.6770833333333334,
              "duration": 0.5625
            },
            {
              "pitch": 64,
              "velocity": 49,
              "position": 1.25,
              "duration": 0.22916666666666666
            },
            {
              "pitch": 67,
              "velocity": 52,
              "position": 1.5,
              "duration": 0.22916666666666666
            },
            {
              "pitch": 71,
              "velocity": 52,
              "position": 1.75,
              "duration": 0.22916666666666666
            },
            {
              "pitch": 76,
              "velocity": 51,
              "position": 2.25,
              "duration": 0.22916666666666666
            },
            {
              "pitch": 79,
              "velocity": 52,
              "position": 2.5,
              "duration": 0.22916666666666666
            },
            {
              "pitch": 83,
              "velocity": 52,
              "position": 2.75,
              "duration": 0.22916666666666666
            },
            {
              "pitch": 88,
              "velocity": 52,
              "position": 3,
              "duration": 0.22916666666666666
            },
            {
              "pitch": 91,
              "velocity": 52,
              "position": 3.25,
              "duration": 0.22916666666666666
            },
            {
              "pitch": 95,
              "velocity": 52,
              "position": 3.5,
              "duration": 0.22916666666666666
            },
            {
              "pitch": 55,
              "velocity": 51,
              "position": 0.6770833333333334,
              "duration": 3.1458333333333335
            },
            {
              "pitch": 59,
              "velocity": 51,
              "position": 0.6770833333333334,
              "duration": 3.1458333333333335
            },
            {
              "pitch": 100,
              "velocity": 38,
              "position": 3.75,
              "duration": 0.22916666666666666
            }
          ]
        }
      }
    },
    "Fill_In_DD": {
      "type": "Fill_In_DD",
      "sizeInBeats": 4,
      "channels": {
        "1": {
          "ctab": {
            "srcChannel": 1,
            "name": "Bass 2",
            "accType": "BASS",
            "editable": false,
            "mutedNotes": [],
            "mutedChords": [
              "1+2+5",
              "1+5",
              "1+8",
              "Maj7aug",
              "7(#9)",
              "7(b13)",
              "7(b9)",
              "7(13)",
              "7#11",
              "7(9)",
              "7b5",
              "7sus4",
              "7th",
              "dim7",
              "min7(11)",
              "min7(9)",
              "min7",
              "min6",
              "Maj6(9)",
              "Maj7(9)",
              "Maj(9)",
              "Maj7#11",
              "Maj7",
              "Maj6",
              "Maj"
            ],
            "autoStart": false,
            "sourceChordNote": 0,
            "sourceChordType": "Maj7",
            "ctb2Low": null,
            "ctb2Main": {
              "ntr": "ROOT_TRANSPOSITION",
              "ntt": "MELODY",
              "bassOn": true,
              "chordRootUpperLimit": 8,
              "noteLowLimit": 28,
              "noteHighLimit": 127,
              "rtr": "PITCH_SHIFT_TO_ROOT"
            },
            "ctb2High": null
          },
          "notes": [
            {
              "pitch": 36,
              "velocity": 58,
              "position": 0,
              "duration": 0.9895833333333334
            },
            {
              "pitch": 28,
              "velocity": 100,
              "position": 1,
              "duration": 0.09375
            },
            {
              "pitch": 31,
              "velocity": 60,
              "position": 1.3333333333333333,
              "duration": 0.09375
            },
            {
              "pitch": 36,
              "velocity": 58,
              "position": 1.6666666666666667,
              "duration": 0.3229166666666667
            },
            {
              "pitch": 31,
              "velocity": 58,
              "position": 2,
              "duration": 0.9895833333333334
            },
            {
              "pitch": 28,
              "velocity": 58,
              "position": 3,
              "duration": 0.9895833333333334
            }
          ]
        },
        "2": {
          "ctab": {
            "srcChannel": 2,
            "name": "Gt Root",
            "accType": "CHORD1",
            "editable": false,
            "mutedNotes": [],
            "mutedChords": [
              "1+2+5",
              "sus4",
              "1+5",
              "1+8",
              "Maj7aug",
              "dim",
              "minMaj7(9)",
              "minMaj7",
              "min6",
              "min",
              "aug",
              "Maj7(9)",
              "Maj7#11",
              "Maj7",
              "Maj6",
              "Maj"
            ],
            "autoStart": false,
            "sourceChordNote": 0,
            "sourceChordType": "Maj7",
            "ctb2Low": null,
            "ctb2Main": {
              "ntr": "ROOT_TRANSPOSITION",
              "ntt": "CHORD",
              "bassOn": false,
              "chordRootUpperLimit": 6,
              "noteLowLimit": 0,
              "noteHighLimit": 127,
              "rtr": "PITCH_SHIFT"
            },
            "ctb2High": null
          },
          "notes": [
            {
              "pitch": 60,
              "velocity": 98,
              "position": 0.6666666666666666,
              "duration": 0.22916666666666666
            },
            {
              "pitch": 60,
              "velocity": 98,
              "position": 1.6666666666666667,
              "duration": 0.22916666666666666
            },
            {
              "pitch": 60,
              "velocity": 98,
              "position": 2.6666666666666665,
              "duration": 0.22916666666666666
            },
            {
              "pitch": 60,
              "velocity": 98,
              "position": 3.6666666666666665,
              "duration": 0.3229166666666667
            }
          ]
        },
        "4": {
          "ctab": {
            "srcChannel": 4,
            "name": "Str Root",
            "accType": "PAD",
            "editable": false,
            "mutedNotes": [],
            "mutedChords": [
              "1+2+5",
              "sus4",
              "1+5",
              "1+8",
              "Maj7aug",
              "dim",
              "minMaj7(9)",
              "minMaj7",
              "min6",
              "min",
              "aug",
              "Maj7(9)",
              "Maj7#11",
              "Maj7",
              "Maj6",
              "Maj"
            ],
            "autoStart": false,
            "sourceChordNote": 0,
            "sourceChordType": "Maj7",
            "ctb2Low": null,
            "ctb2Main": {
              "ntr": "ROOT_TRANSPOSITION",
              "ntt": "CHORD",
              "bassOn": false,
              "chordRootUpperLimit": 6,
              "noteLowLimit": 0,
              "noteHighLimit": 70,
              "rtr": "PITCH_SHIFT"
            },
            "ctb2High": null
          },
          "notes": []
        },
        "7": {
          "ctab": {
            "srcChannel": 7,
            "name": "CC_Crash",
            "accType": "RHYTHM",
            "editable": false,
            "mutedNotes": [],
            "mutedChords": [
              "1+2+5",
              "sus4",
              "1+5",
              "1+8",
              "7aug",
              "Maj7aug",
              "7(#9)",
              "7(b13)",
              "7(b9)",
              "7(13)",
              "7#11",
              "7(9)",
              "7b5",
              "7sus4",
              "7th",
              "dim7",
              "dim",
              "minMaj7(9)",
              "minMaj7",
              "min7(11)",
              "min7(9)",
              "min(9)",
              "m7b5",
              "min7",
              "min6",
              "min",
              "aug",
              "Maj6(9)",
              "Maj7(9)",
              "Maj(9)",
              "Maj7#11",
              "Maj7",
              "Maj6",
              "Maj"
            ],
            "autoStart": true,
            "sourceChordNote": 0,
            "sourceChordType": "Maj",
            "ctb2Low": null,
            "ctb2Main": {
              "ntr": "ROOT_FIXED",
              "ntt": "BYPASS",
              "bassOn": false,
              "chordRootUpperLimit": 0,
              "noteLowLimit": 0,
              "noteHighLimit": 127,
              "rtr": "RETRIGGER"
            },
            "ctb2High": null
          },
          "notes": []
        },
        "9": {
          "ctab": {
            "srcChannel": 9,
            "name": "Drums",
            "accType": "RHYTHM",
            "editable": false,
            "mutedNotes": [],
            "mutedChords": [],
            "autoStart": true,
            "sourceChordNote": 0,
            "sourceChordType": "Maj7",
            "ctb2Low": null,
            "ctb2Main": {
              "ntr": "ROOT_FIXED",
              "ntt": "BYPASS",
              "bassOn": false,
              "chordRootUpperLimit": 6,
              "noteLowLimit": 0,
              "noteHighLimit": 127,
              "rtr": "PITCH_SHIFT"
            },
            "ctb2High": null
          },
          "notes": [
            {
              "pitch": 25,
              "velocity": 60,
              "position": 0,
              "duration": 0.010416666666666666
            },
            {
              "pitch": 35,
              "velocity": 40,
              "position": 0,
              "duration": 0.010416666666666666
            },
            {
              "pitch": 57,
              "velocity": 36,
              "position": 0,
              "duration": 0.010416666666666666
            },
            {
              "pitch": 57,
              "velocity": 3,
              "position": 0.75,
              "duration": 0.010416666666666666
            },
            {
              "pitch": 57,
              "velocity": 7,
              "position": 0.8333333333333334,
              "duration": 0.010416666666666666
            },
            {
              "pitch": 57,
              "velocity": 14,
              "position": 0.9166666666666666,
              "duration": 0.010416666666666666
            },
            {
              "pitch": 26,
              "velocity": 38,
              "position": 0,
              "duration": 0.9895833333333334
            },
            {
              "pitch": 25,
              "velocity": 60,
              "position": 1,
              "duration": 0.010416666666666666
            },
            {
              "pitch": 35,
              "velocity": 40,
              "position": 1,
              "duration": 0.010416666666666666
            },
            {
              "pitch": 44,
              "velocity": 48,
              "position": 1,
              "duration": 0.010416666666666666
            },
            {
              "pitch": 57,
              "velocity": 36,
              "position": 1,
              "duration": 0.010416666666666666
            },
            {
              "pitch": 25,
              "velocity": 60,
              "position": 1.3333333333333333,
              "duration": 0.010416666666666666
            },
            {
              "pitch": 25,
              "velocity": 100,
              "position": 1.6666666666666667,
              "duration": 0.010416666666666666
            },
            {
              "pitch": 27,
              "velocity": 100,
              "position": 1.6666666666666667,
              "duration": 0.010416666666666666
            },
            {
              "pitch": 57,
              "velocity": 7,
              "position": 1.6666666666666667,
              "duration": 0.010416666666666666
            },
            {
              "pitch": 28,
              "velocity": 34,
              "position": 1,
              "duration": 0.9895833333333334
            },
            {
              "pitch": 25,
              "velocity": 60,
              "position": 2,
              "duration": 0.010416666666666666
            },
            {
              "pitch": 35,
              "velocity": 40,
              "position": 2,
              "duration": 0.010416666666666666
            },
            {
              "pitch": 57,
              "velocity": 36,
              "position": 2,
              "duration": 0.010416666666666666
            },
            {
              "pitch": 47,
              "velocity": 40,
              "position": 2.3333333333333335,
              "duration": 0.010416666666666666
            },
            {
              "pitch": 47,
              "velocity": 80,
              "position": 2.6666666666666665,
              "duration": 0.010416666666666666
            },
            {
              "pitch": 25,
              "velocity": 10,
              "position": 2.75,
              "duration": 0.010416666666666666
            },
            {
              "pitch": 25,
              "velocity": 20,
              "position": 2.8333333333333335,
              "duration": 0.010416666666666666
            },
            {
              "pitch": 25,
              "velocity": 30,
              "position": 2.9166666666666665,
              "duration": 0.010416666666666666
            },
            {
              "pitch": 26,
              "velocity": 38,
              "position": 2,
              "duration": 0.9895833333333334
            },
            {
              "pitch": 25,
              "velocity": 60,
              "position": 3,
              "duration": 0.010416666666666666
            },
            {
              "pitch": 35,
              "velocity": 40,
              "position": 3,
              "duration": 0.010416666666666666
            },
            {
              "pitch": 44,
              "velocity": 48,
              "position": 3,
              "duration": 0.010416666666666666
            },
            {
              "pitch": 57,
              "velocity": 36,
              "position": 3,
              "duration": 0.010416666666666666
            },
            {
              "pitch": 25,
              "velocity": 60,
              "position": 3.3333333333333335,
              "duration": 0.010416666666666666
            },
            {
              "pitch": 25,
              "velocity": 100,
              "position": 3.6666666666666665,
              "duration": 0.010416666666666666
            },
            {
              "pitch": 27,
              "velocity": 100,
              "position": 3.6666666666666665,
              "duration": 0.010416666666666666
            },
            {
              "pitch": 35,
              "velocity": 30,
              "position": 3.75,
              "duration": 0.010416666666666666
            },
            {
              "pitch": 28,
              "velocity": 34,
              "position": 3,
              "duration": 0.9895833333333334
            }
          ]
        },
        "10": {
          "ctab": {
            "srcChannel": 10,
            "name": "Bass 1",
            "accType": "BASS",
            "editable": false,
            "mutedNotes": [],
            "mutedChords": [
              "sus4",
              "7aug",
              "dim",
              "minMaj7(9)",
              "minMaj7",
              "min(9)",
              "m7b5",
              "min",
              "aug"
            ],
            "autoStart": false,
            "sourceChordNote": 0,
            "sourceChordType": "Maj7",
            "ctb2Low": null,
            "ctb2Main": {
              "ntr": "ROOT_TRANSPOSITION",
              "ntt": "MELODY",
              "bassOn": true,
              "chordRootUpperLimit": 8,
              "noteLowLimit": 28,
              "noteHighLimit": 127,
              "rtr": "PITCH_SHIFT_TO_ROOT"
            },
            "ctb2High": null
          },
          "notes": [
            {
              "pitch": 36,
              "velocity": 58,
              "position": 0,
              "duration": 0.9895833333333334
            },
            {
              "pitch": 24,
              "velocity": 100,
              "position": 1,
              "duration": 0.09375
            },
            {
              "pitch": 28,
              "velocity": 60,
              "position": 1.3333333333333333,
              "duration": 0.09375
            },
            {
              "pitch": 33,
              "velocity": 58,
              "position": 1.6666666666666667,
              "duration": 0.3229166666666667
            },
            {
              "pitch": 31,
              "velocity": 58,
              "position": 2,
              "duration": 0.9895833333333334
            },
            {
              "pitch": 28,
              "velocity": 58,
              "position": 3,
              "duration": 0.9895833333333334
            }
          ]
        },
        "11": {
          "ctab": {
            "srcChannel": 11,
            "name": "Gt",
            "accType": "CHORD1",
            "editable": false,
            "mutedNotes": [],
            "mutedChords": [],
            "autoStart": false,
            "sourceChordNote": 0,
            "sourceChordType": "Maj7",
            "ctb2Low": null,
            "ctb2Main": {
              "ntr": "ROOT_FIXED",
              "ntt": "CHORD",
              "bassOn": false,
              "chordRootUpperLimit": 7,
              "noteLowLimit": 0,
              "noteHighLimit": 127,
              "rtr": "PITCH_SHIFT"
            },
            "ctb2High": null
          },
          "notes": [
            {
              "pitch": 55,
              "velocity": 98,
              "position": 0.6666666666666666,
              "duration": 0.22916666666666666
            },
            {
              "pitch": 59,
              "velocity": 98,
              "position": 0.6666666666666666,
              "duration": 0.22916666666666666
            },
            {
              "pitch": 64,
              "velocity": 98,
              "position": 0.6666666666666666,
              "duration": 0.22916666666666666
            },
            {
              "pitch": 55,
              "velocity": 98,
              "position": 1.6666666666666667,
              "duration": 0.22916666666666666
            },
            {
              "pitch": 59,
              "velocity": 98,
              "position": 1.6666666666666667,
              "duration": 0.22916666666666666
            },
            {
              "pitch": 64,
              "velocity": 98,
              "position": 1.6666666666666667,
              "duration": 0.22916666666666666
            },
            {
              "pitch": 55,
              "velocity": 98,
              "position": 2.6666666666666665,
              "duration": 0.22916666666666666
            },
            {
              "pitch": 59,
              "velocity": 98,
              "position": 2.6666666666666665,
              "duration": 0.22916666666666666
            },
            {
              "pitch": 64,
              "velocity": 98,
              "position": 2.6666666666666665,
              "duration": 0.22916666666666666
            },
            {
              "pitch": 55,
              "velocity": 98,
              "position": 3.6666666666666665,
              "duration": 0.3229166666666667
            },
            {
              "pitch": 59,
              "velocity": 98,
              "position": 3.6666666666666665,
              "duration": 0.3229166666666667
            },
            {
              "pitch": 64,
              "velocity": 98,
              "position": 3.6666666666666665,
              "duration": 0.3229166666666667
            }
          ]
        },
        "12": {
          "ctab": {
            "srcChannel": 12,
            "name": "EP",
            "accType": "CHORD2",
            "editable": false,
            "mutedNotes": [],
            "mutedChords": [],
            "autoStart": false,
            "sourceChordNote": 0,
            "sourceChordType": "Maj7",
            "ctb2Low": null,
            "ctb2Main": {
              "ntr": "ROOT_FIXED",
              "ntt": "CHORD",
              "bassOn": false,
              "chordRootUpperLimit": 7,
              "noteLowLimit": 0,
              "noteHighLimit": 127,
              "rtr": "PITCH_SHIFT"
            },
            "ctb2High": null
          },
          "notes": [
            {
              "pitch": 59,
              "velocity": 78,
              "position": 0,
              "duration": 1.65625
            },
            {
              "pitch": 64,
              "velocity": 78,
              "position": 0,
              "duration": 1.65625
            },
            {
              "pitch": 67,
              "velocity": 78,
              "position": 0,
              "duration": 1.65625
            },
            {
              "pitch": 59,
              "velocity": 68,
              "position": 1.6666666666666667,
              "duration": 2.3229166666666665
            },
            {
              "pitch": 64,
              "velocity": 68,
              "position": 1.6666666666666667,
              "duration": 2.3229166666666665
            },
            {
              "pitch": 67,
              "velocity": 68,
              "position": 1.6666666666666667,
              "duration": 2.3229166666666665
            },
            {
              "pitch": 76,
              "velocity": 57,
              "position": 2.6666666666666665,
              "duration": 1.3229166666666667
            },
            {
              "pitch": 71,
              "velocity": 57,
              "position": 3.3333333333333335,
              "duration": 0.65625
            }
          ]
        },
        "13": {
          "ctab": {
            "srcChannel": 13,
            "name": "Str",
            "accType": "PAD",
            "editable": false,
            "mutedNotes": [],
            "mutedChords": [],
            "autoStart": false,
            "sourceChordNote": 0,
            "sourceChordType": "Maj7",
            "ctb2Low": null,
            "ctb2Main": {
              "ntr": "ROOT_FIXED",
              "ntt": "CHORD",
              "bassOn": false,
              "chordRootUpperLimit": 7,
              "noteLowLimit": 0,
              "noteHighLimit": 79,
              "rtr": "PITCH_SHIFT"
            },
            "ctb2High": null
          },
          "notes": [
            {
              "pitch": 71,
              "velocity": 17,
              "position": 0.010416666666666666,
              "duration": 0.9895833333333334
            },
            {
              "pitch": 76,
              "velocity": 17,
              "position": 0.010416666666666666,
              "duration": 0.9895833333333334
            },
            {
              "pitch": 88,
              "velocity": 17,
              "position": 1.0104166666666667,
              "duration": 0.9895833333333334
            },
            {
              "pitch": 83,
              "velocity": 17,
              "position": 1.0104166666666667,
              "duration": 1.9895833333333333
            }
          ]
        },
        "14": {
          "ctab": {
            "srcChannel": 14,
            "name": "Pno",
            "accType": "PHRASE1",
            "editable": false,
            "mutedNotes": [],
            "mutedChords": [],
            "autoStart": false,
            "sourceChordNote": 0,
            "sourceChordType": "Maj7",
            "ctb2Low": null,
            "ctb2Main": {
              "ntr": "ROOT_FIXED",
              "ntt": "CHORD",
              "bassOn": false,
              "chordRootUpperLimit": 7,
              "noteLowLimit": 0,
              "noteHighLimit": 127,
              "rtr": "PITCH_SHIFT"
            },
            "ctb2High": null
          },
          "notes": [
            {
              "pitch": 55,
              "velocity": 42,
              "position": 0.6770833333333334,
              "duration": 0.15625
            },
            {
              "pitch": 59,
              "velocity": 42,
              "position": 0.6770833333333334,
              "duration": 0.15625
            },
            {
              "pitch": 64,
              "velocity": 42,
              "position": 0.6770833333333334,
              "duration": 0.15625
            },
            {
              "pitch": 55,
              "velocity": 51,
              "position": 1.6770833333333333,
              "duration": 0.8229166666666666
            },
            {
              "pitch": 59,
              "velocity": 51,
              "position": 1.6770833333333333,
              "duration": 0.8229166666666666
            },
            {
              "pitch": 64,
              "velocity": 51,
              "position": 1.6770833333333333,
              "duration": 0.8229166666666666
            },
            {
              "pitch": 67,
              "velocity": 49,
              "position": 2.5104166666666665,
              "duration": 0.15625
            },
            {
              "pitch": 71,
              "velocity": 47,
              "position": 2.6770833333333335,
              "duration": 0.15625
            },
            {
              "pitch": 76,
              "velocity": 48,
              "position": 2.84375,
              "duration": 0.15625
            },
            {
              "pitch": 79,
              "velocity": 48,
              "position": 3.0104166666666665,
              "duration": 0.15625
            },
            {
              "pitch": 83,
              "velocity": 48,
              "position": 3.1770833333333335,
              "duration": 0.15625
            },
            {
              "pitch": 88,
              "velocity": 49,
              "position": 3.34375,
              "duration": 0.15625
            },
            {
              "pitch": 91,
              "velocity": 52,
              "position": 3.5104166666666665,
              "duration": 0.15625
            },
            {
              "pitch": 95,
              "velocity": 52,
              "position": 3.6770833333333335,
              "duration": 0.15625
            }
          ]
        }
      }
    },
    "Intro_A": {
      "type": "Intro_A",
      "sizeInBeats": 4,
      "channels": {
        "1": {
          "ctab": {
            "srcChannel": 1,
            "name": "Bass 2",
            "accType": "BASS",
            "editable": false,
            "mutedNotes": [],
            "mutedChords": [
              "1+2+5",
              "1+5",
              "1+8",
              "Maj7aug",
              "7(#9)",
              "7(b13)",
              "7(b9)",
              "7(13)",
              "7#11",
              "7(9)",
              "7b5",
              "7sus4",
              "7th",
              "dim7",
              "min7(11)",
              "min7(9)",
              "min7",
              "min6",
              "Maj6(9)",
              "Maj7(9)",
              "Maj(9)",
              "Maj7#11",
              "Maj7",
              "Maj6",
              "Maj"
            ],
            "autoStart": false,
            "sourceChordNote": 0,
            "sourceChordType": "Maj7",
            "ctb2Low": null,
            "ctb2Main": {
              "ntr": "ROOT_TRANSPOSITION",
              "ntt": "MELODY",
              "bassOn": true,
              "chordRootUpperLimit": 8,
              "noteLowLimit": 28,
              "noteHighLimit": 127,
              "rtr": "PITCH_SHIFT_TO_ROOT"
            },
            "ctb2High": null
          },
          "notes": []
        },
        "2": {
          "ctab": {
            "srcChannel": 2,
            "name": "Gt Root",
            "accType": "CHORD1",
            "editable": false,
            "mutedNotes": [],
            "mutedChords": [
              "1+2+5",
              "sus4",
              "1+5",
              "1+8",
              "Maj7aug",
              "dim",
              "minMaj7(9)",
              "minMaj7",
              "min6",
              "min",
              "aug",
              "Maj7(9)",
              "Maj7#11",
              "Maj7",
              "Maj6",
              "Maj"
            ],
            "autoStart": false,
            "sourceChordNote": 0,
            "sourceChordType": "Maj7",
            "ctb2Low": null,
            "ctb2Main": {
              "ntr": "ROOT_TRANSPOSITION",
              "ntt": "CHORD",
              "bassOn": false,
              "chordRootUpperLimit": 6,
              "noteLowLimit": 0,
              "noteHighLimit": 127,
              "rtr": "PITCH_SHIFT"
            },
            "ctb2High": null
          },
          "notes": []
        },
        "4": {
          "ctab": {
            "srcChannel": 4,
            "name": "Str Root",
            "accType": "PAD",
            "editable": false,
            "mutedNotes": [],
            "mutedChords": [
              "1+2+5",
              "sus4",
              "1+5",
              "1+8",
              "Maj7aug",
              "dim",
              "minMaj7(9)",
              "minMaj7",
              "min6",
              "min",
              "aug",
              "Maj7(9)",
              "Maj7#11",
              "Maj7",
              "Maj6",
              "Maj"
            ],
            "autoStart": false,
            "sourceChordNote": 0,
            "sourceChordType": "Maj7",
            "ctb2Low": null,
            "ctb2Main": {
              "ntr": "ROOT_TRANSPOSITION",
              "ntt": "CHORD",
              "bassOn": false,
              "chordRootUpperLimit": 6,
              "noteLowLimit": 0,
              "noteHighLimit": 70,
              "rtr": "PITCH_SHIFT"
            },
            "ctb2High": null
          },
          "notes": []
        },
        "7": {
          "ctab": {
            "srcChannel": 7,
            "name": "CC_Crash",
            "accType": "RHYTHM",
            "editable": false,
            "mutedNotes": [],
            "mutedChords": [
              "1+2+5",
              "sus4",
              "1+5",
              "1+8",
              "7aug",
              "Maj7aug",
              "7(#9)",
              "7(b13)",
              "7(b9)",
              "7(13)",
              "7#11",
              "7(9)",
              "7b5",
              "7sus4",
              "7th",
              "dim7",
              "dim",
              "minMaj7(9)",
              "minMaj7",
              "min7(11)",
              "min7(9)",
              "min(9)",
              "m7b5",
              "min7",
              "min6",
              "min",
              "aug",
              "Maj6(9)",
              "Maj7(9)",
              "Maj(9)",
              "Maj7#11",
              "Maj7",
              "Maj6",
              "Maj"
            ],
            "autoStart": true,
            "sourceChordNote": 0,
            "sourceChordType": "Maj",
            "ctb2Low": null,
            "ctb2Main": {
              "ntr": "ROOT_FIXED",
              "ntt": "BYPASS",
              "bassOn": false,
              "chordRootUpperLimit": 0,
              "noteLowLimit": 0,
              "noteHighLimit": 127,
              "rtr": "RETRIGGER"
            },
            "ctb2High": null
          },
          "notes": []
        },
        "9": {
          "ctab": {
            "srcChannel": 9,
            "name": "Drums",
            "accType": "RHYTHM",
            "editable": false,
            "mutedNotes": [],
            "mutedChords": [],
            "autoStart": true,
            "sourceChordNote": 0,
            "sourceChordType": "Maj7",
            "ctb2Low": null,
            "ctb2Main": {
              "ntr": "ROOT_FIXED",
              "ntt": "BYPASS",
              "bassOn": false,
              "chordRootUpperLimit": 6,
              "noteLowLimit": 0,
              "noteHighLimit": 127,
              "rtr": "PITCH_SHIFT"
            },
            "ctb2High": null
          },
          "notes": [
            {
              "pitch": 44,
              "velocity": 48,
              "position": 0,
              "duration": 0.010416666666666666
            },
            {
              "pitch": 26,
              "velocity": 38,
              "position": 0,
              "duration": 0.9895833333333334
            },
            {
              "pitch": 44,
              "velocity": 48,
              "position": 1,
              "duration": 0.010416666666666666
            },
            {
              "pitch": 28,
              "velocity": 34,
              "position": 1,
              "duration": 0.9895833333333334
            },
            {
              "pitch": 44,
              "velocity": 48,
              "position": 2,
              "duration": 0.010416666666666666
            },
            {
              "pitch": 25,
              "velocity": 20,
              "position": 2.75,
              "duration": 0.010416666666666666
            },
            {
              "pitch": 25,
              "velocity": 30,
              "position": 2.8333333333333335,
              "duration": 0.010416666666666666
            },
            {
              "pitch": 25,
              "velocity": 40,
              "position": 2.9166666666666665,
              "duration": 0.010416666666666666
            },
            {
              "pitch": 26,
              "velocity": 38,
              "position": 2,
              "duration": 0.9895833333333334
            },
            {
              "pitch": 27,
              "velocity": 80,
              "position": 3,
              "duration": 0.010416666666666666
            },
            {
              "pitch": 44,
              "velocity": 48,
              "position": 3,
              "duration": 0.010416666666666666
            },
            {
              "pitch": 49,
              "velocity": 40,
              "position": 3,
              "duration": 0.010416666666666666
            },
            {
              "pitch": 47,
              "velocity": 20,
              "position": 3.3333333333333335,
              "duration": 0.010416666666666666
            },
            {
              "pitch": 35,
              "velocity": 20,
              "position": 3.6666666666666665,
              "duration": 0.010416666666666666
            },
            {
              "pitch": 45,
              "velocity": 58,
              "position": 3.6666666666666665,
              "duration": 0.010416666666666666
            },
            {
              "pitch": 28,
              "velocity": 34,
              "position": 3,
              "duration": 0.9895833333333334
            }
          ]
        },
        "10": {
          "ctab": {
            "srcChannel": 10,
            "name": "Bass 1",
            "accType": "BASS",
            "editable": false,
            "mutedNotes": [],
            "mutedChords": [
              "sus4",
              "7aug",
              "dim",
              "minMaj7(9)",
              "minMaj7",
              "min(9)",
              "m7b5",
              "min",
              "aug"
            ],
            "autoStart": false,
            "sourceChordNote": 0,
            "sourceChordType": "Maj7",
            "ctb2Low": null,
            "ctb2Main": {
              "ntr": "ROOT_TRANSPOSITION",
              "ntt": "MELODY",
              "bassOn": true,
              "chordRootUpperLimit": 8,
              "noteLowLimit": 28,
              "noteHighLimit": 127,
              "rtr": "PITCH_SHIFT_TO_ROOT"
            },
            "ctb2High": null
          },
          "notes": []
        },
        "11": {
          "ctab": {
            "srcChannel": 11,
            "name": "Gt",
            "accType": "CHORD1",
            "editable": false,
            "mutedNotes": [],
            "mutedChords": [],
            "autoStart": false,
            "sourceChordNote": 0,
            "sourceChordType": "Maj7",
            "ctb2Low": null,
            "ctb2Main": {
              "ntr": "ROOT_FIXED",
              "ntt": "CHORD",
              "bassOn": false,
              "chordRootUpperLimit": 7,
              "noteLowLimit": 0,
              "noteHighLimit": 127,
              "rtr": "PITCH_SHIFT"
            },
            "ctb2High": null
          },
          "notes": []
        },
        "12": {
          "ctab": {
            "srcChannel": 12,
            "name": "EP",
            "accType": "CHORD2",
            "editable": false,
            "mutedNotes": [],
            "mutedChords": [],
            "autoStart": false,
            "sourceChordNote": 0,
            "sourceChordType": "Maj7",
            "ctb2Low": null,
            "ctb2Main": {
              "ntr": "ROOT_FIXED",
              "ntt": "CHORD",
              "bassOn": false,
              "chordRootUpperLimit": 7,
              "noteLowLimit": 0,
              "noteHighLimit": 127,
              "rtr": "PITCH_SHIFT"
            },
            "ctb2High": null
          },
          "notes": []
        },
        "13": {
          "ctab": {
            "srcChannel": 13,
            "name": "Str",
            "accType": "PAD",
            "editable": false,
            "mutedNotes": [],
            "mutedChords": [],
            "autoStart": false,
            "sourceChordNote": 0,
            "sourceChordType": "Maj7",
            "ctb2Low": null,
            "ctb2Main": {
              "ntr": "ROOT_FIXED",
              "ntt": "CHORD",
              "bassOn": false,
              "chordRootUpperLimit": 7,
              "noteLowLimit": 0,
              "noteHighLimit": 79,
              "rtr": "PITCH_SHIFT"
            },
            "ctb2High": null
          },
          "notes": []
        },
        "14": {
          "ctab": {
            "srcChannel": 14,
            "name": "Pno",
            "accType": "PHRASE1",
            "editable": false,
            "mutedNotes": [],
            "mutedChords": [],
            "autoStart": false,
            "sourceChordNote": 0,
            "sourceChordType": "Maj7",
            "ctb2Low": null,
            "ctb2Main": {
              "ntr": "ROOT_FIXED",
              "ntt": "CHORD",
              "bassOn": false,
              "chordRootUpperLimit": 7,
              "noteLowLimit": 0,
              "noteHighLimit": 127,
              "rtr": "PITCH_SHIFT"
            },
            "ctb2High": null
          },
          "notes": []
        }
      }
    },
    "Ending_A": {
      "type": "Ending_A",
      "sizeInBeats": 8,
      "channels": {
        "1": {
          "ctab": {
            "srcChannel": 1,
            "name": "Bass 2",
            "accType": "BASS",
            "editable": false,
            "mutedNotes": [],
            "mutedChords": [
              "1+2+5",
              "1+5",
              "1+8",
              "Maj7aug",
              "7(#9)",
              "7(b13)",
              "7(b9)",
              "7(13)",
              "7#11",
              "7(9)",
              "7b5",
              "7sus4",
              "7th",
              "dim7",
              "min7(11)",
              "min7(9)",
              "min7",
              "min6",
              "Maj6(9)",
              "Maj7(9)",
              "Maj(9)",
              "Maj7#11",
              "Maj7",
              "Maj6",
              "Maj"
            ],
            "autoStart": false,
            "sourceChordNote": 0,
            "sourceChordType": "Maj7",
            "ctb2Low": null,
            "ctb2Main": {
              "ntr": "ROOT_TRANSPOSITION",
              "ntt": "MELODY",
              "bassOn": true,
              "chordRootUpperLimit": 8,
              "noteLowLimit": 28,
              "noteHighLimit": 127,
              "rtr": "PITCH_SHIFT_TO_ROOT"
            },
            "ctb2High": null
          },
          "notes": []
        },
        "2": {
          "ctab": {
            "srcChannel": 2,
            "name": "Gt Root",
            "accType": "CHORD1",
            "editable": false,
            "mutedNotes": [],
            "mutedChords": [
              "1+2+5",
              "sus4",
              "1+5",
              "1+8",
              "Maj7aug",
              "dim",
              "minMaj7(9)",
              "minMaj7",
              "min6",
              "min",
              "aug",
              "Maj7(9)",
              "Maj7#11",
              "Maj7",
              "Maj6",
              "Maj"
            ],
            "autoStart": false,
            "sourceChordNote": 0,
            "sourceChordType": "Maj7",
            "ctb2Low": null,
            "ctb2Main": {
              "ntr": "ROOT_TRANSPOSITION",
              "ntt": "CHORD",
              "bassOn": false,
              "chordRootUpperLimit": 6,
              "noteLowLimit": 0,
              "noteHighLimit": 127,
              "rtr": "PITCH_SHIFT"
            },
            "ctb2High": null
          },
          "notes": [
            {
              "pitch": 60,
              "velocity": 98,
              "position": 0,
              "duration": 7.979166666666667
            }
          ]
        },
        "4": {
          "ctab": {
            "srcChannel": 4,
            "name": "Str Root",
            "accType": "PAD",
            "editable": false,
            "mutedNotes": [],
            "mutedChords": [
              "1+2+5",
              "sus4",
              "1+5",
              "1+8",
              "Maj7aug",
              "dim",
              "minMaj7(9)",
              "minMaj7",
              "min6",
              "min",
              "aug",
              "Maj7(9)",
              "Maj7#11",
              "Maj7",
              "Maj6",
              "Maj"
            ],
            "autoStart": false,
            "sourceChordNote": 0,
            "sourceChordType": "Maj7",
            "ctb2Low": null,
            "ctb2Main": {
              "ntr": "ROOT_TRANSPOSITION",
              "ntt": "CHORD",
              "bassOn": false,
              "chordRootUpperLimit": 6,
              "noteLowLimit": 0,
              "noteHighLimit": 70,
              "rtr": "PITCH_SHIFT"
            },
            "ctb2High": null
          },
          "notes": [
            {
              "pitch": 60,
              "velocity": 18,
              "position": 0.020833333333333332,
              "duration": 7.958333333333333
            }
          ]
        },
        "7": {
          "ctab": {
            "srcChannel": 7,
            "name": "CC_Crash",
            "accType": "RHYTHM",
            "editable": false,
            "mutedNotes": [],
            "mutedChords": [
              "1+2+5",
              "sus4",
              "1+5",
              "1+8",
              "7aug",
              "Maj7aug",
              "7(#9)",
              "7(b13)",
              "7(b9)",
              "7(13)",
              "7#11",
              "7(9)",
              "7b5",
              "7sus4",
              "7th",
              "dim7",
              "dim",
              "minMaj7(9)",
              "minMaj7",
              "min7(11)",
              "min7(9)",
              "min(9)",
              "m7b5",
              "min7",
              "min6",
              "min",
              "aug",
              "Maj6(9)",
              "Maj7(9)",
              "Maj(9)",
              "Maj7#11",
              "Maj7",
              "Maj6",
              "Maj"
            ],
            "autoStart": true,
            "sourceChordNote": 0,
            "sourceChordType": "Maj",
            "ctb2Low": null,
            "ctb2Main": {
              "ntr": "ROOT_FIXED",
              "ntt": "BYPASS",
              "bassOn": false,
              "chordRootUpperLimit": 0,
              "noteLowLimit": 0,
              "noteHighLimit": 127,
              "rtr": "RETRIGGER"
            },
            "ctb2High": null
          },
          "notes": []
        },
        "9": {
          "ctab": {
            "srcChannel": 9,
            "name": "Drums",
            "accType": "RHYTHM",
            "editable": false,
            "mutedNotes": [],
            "mutedChords": [],
            "autoStart": true,
            "sourceChordNote": 0,
            "sourceChordType": "Maj7",
            "ctb2Low": null,
            "ctb2Main": {
              "ntr": "ROOT_FIXED",
              "ntt": "BYPASS",
              "bassOn": false,
              "chordRootUpperLimit": 6,
              "noteLowLimit": 0,
              "noteHighLimit": 127,
              "rtr": "PITCH_SHIFT"
            },
            "ctb2High": null
          },
          "notes": [
            {
              "pitch": 25,
              "velocity": 60,
              "position": 0,
              "duration": 0.010416666666666666
            },
            {
              "pitch": 35,
              "velocity": 40,
              "position": 0,
              "duration": 0.010416666666666666
            }
          ]
        },
        "10": {
          "ctab": {
            "srcChannel": 10,
            "name": "Bass 1",
            "accType": "BASS",
            "editable": false,
            "mutedNotes": [],
            "mutedChords": [
              "sus4",
              "7aug",
              "dim",
              "minMaj7(9)",
              "minMaj7",
              "min(9)",
              "m7b5",
              "min",
              "aug"
            ],
            "autoStart": false,
            "sourceChordNote": 0,
            "sourceChordType": "Maj7",
            "ctb2Low": null,
            "ctb2Main": {
              "ntr": "ROOT_TRANSPOSITION",
              "ntt": "MELODY",
              "bassOn": true,
              "chordRootUpperLimit": 8,
              "noteLowLimit": 28,
              "noteHighLimit": 127,
              "rtr": "PITCH_SHIFT_TO_ROOT"
            },
            "ctb2High": null
          },
          "notes": []
        },
        "11": {
          "ctab": {
            "srcChannel": 11,
            "name": "Gt",
            "accType": "CHORD1",
            "editable": false,
            "mutedNotes": [],
            "mutedChords": [],
            "autoStart": false,
            "sourceChordNote": 0,
            "sourceChordType": "Maj7",
            "ctb2Low": null,
            "ctb2Main": {
              "ntr": "ROOT_FIXED",
              "ntt": "CHORD",
              "bassOn": false,
              "chordRootUpperLimit": 7,
              "noteLowLimit": 0,
              "noteHighLimit": 127,
              "rtr": "PITCH_SHIFT"
            },
            "ctb2High": null
          },
          "notes": [
            {
              "pitch": 55,
              "velocity": 98,
              "position": 0,
              "duration": 7.979166666666667
            },
            {
              "pitch": 59,
              "velocity": 98,
              "position": 0,
              "duration": 7.979166666666667
            },
            {
              "pitch": 64,
              "velocity": 98,
              "position": 0,
              "duration": 7.979166666666667
            }
          ]
        },
        "12": {
          "ctab": {
            "srcChannel": 12,
            "name": "EP",
            "accType": "CHORD2",
            "editable": false,
            "mutedNotes": [],
            "mutedChords": [],
            "autoStart": false,
            "sourceChordNote": 0,
            "sourceChordType": "Maj7",
            "ctb2Low": null,
            "ctb2Main": {
              "ntr": "ROOT_FIXED",
              "ntt": "CHORD",
              "bassOn": false,
              "chordRootUpperLimit": 7,
              "noteLowLimit": 0,
              "noteHighLimit": 127,
              "rtr": "PITCH_SHIFT"
            },
            "ctb2High": null
          },
          "notes": [
            {
              "pitch": 59,
              "velocity": 68,
              "position": 0,
              "duration": 7.979166666666667
            },
            {
              "pitch": 64,
              "velocity": 68,
              "position": 0,
              "duration": 7.979166666666667
            },
            {
              "pitch": 67,
              "velocity": 68,
              "position": 0,
              "duration": 7.979166666666667
            }
          ]
        },
        "13": {
          "ctab": {
            "srcChannel": 13,
            "name": "Str",
            "accType": "PAD",
            "editable": false,
            "mutedNotes": [],
            "mutedChords": [],
            "autoStart": false,
            "sourceChordNote": 0,
            "sourceChordType": "Maj7",
            "ctb2Low": null,
            "ctb2Main": {
              "ntr": "ROOT_FIXED",
              "ntt": "CHORD",
              "bassOn": false,
              "chordRootUpperLimit": 7,
              "noteLowLimit": 0,
              "noteHighLimit": 79,
              "rtr": "PITCH_SHIFT"
            },
            "ctb2High": null
          },
          "notes": [
            {
              "pitch": 55,
              "velocity": 19,
              "position": 0.020833333333333332,
              "duration": 7.958333333333333
            },
            {
              "pitch": 59,
              "velocity": 19,
              "position": 0.020833333333333332,
              "duration": 7.958333333333333
            },
            {
              "pitch": 64,
              "velocity": 19,
              "position": 0.020833333333333332,
              "duration": 7.958333333333333
            }
          ]
        },
        "14": {
          "ctab": {
            "srcChannel": 14,
            "name": "Pno",
            "accType": "PHRASE1",
            "editable": false,
            "mutedNotes": [],
            "mutedChords": [],
            "autoStart": false,
            "sourceChordNote": 0,
            "sourceChordType": "Maj7",
            "ctb2Low": null,
            "ctb2Main": {
              "ntr": "ROOT_FIXED",
              "ntt": "CHORD",
              "bassOn": false,
              "chordRootUpperLimit": 7,
              "noteLowLimit": 0,
              "noteHighLimit": 127,
              "rtr": "PITCH_SHIFT"
            },
            "ctb2High": null
          },
          "notes": [
            {
              "pitch": 55,
              "velocity": 51,
              "position": 0.020833333333333332,
              "duration": 7.958333333333333
            },
            {
              "pitch": 59,
              "velocity": 51,
              "position": 0.020833333333333332,
              "duration": 7.958333333333333
            },
            {
              "pitch": 64,
              "velocity": 51,
              "position": 0.020833333333333332,
              "duration": 7.958333333333333
            }
          ]
        }
      }
    },
    "Ending_B": {
      "type": "Ending_B",
      "sizeInBeats": 12,
      "channels": {
        "1": {
          "ctab": {
            "srcChannel": 1,
            "name": "Bass 2",
            "accType": "BASS",
            "editable": false,
            "mutedNotes": [],
            "mutedChords": [
              "1+2+5",
              "1+5",
              "1+8",
              "Maj7aug",
              "7(#9)",
              "7(b13)",
              "7(b9)",
              "7(13)",
              "7#11",
              "7(9)",
              "7b5",
              "7sus4",
              "7th",
              "dim7",
              "min7(11)",
              "min7(9)",
              "min7",
              "min6",
              "Maj6(9)",
              "Maj7(9)",
              "Maj(9)",
              "Maj7#11",
              "Maj7",
              "Maj6",
              "Maj"
            ],
            "autoStart": false,
            "sourceChordNote": 0,
            "sourceChordType": "Maj7",
            "ctb2Low": null,
            "ctb2Main": {
              "ntr": "ROOT_TRANSPOSITION",
              "ntt": "MELODY",
              "bassOn": true,
              "chordRootUpperLimit": 8,
              "noteLowLimit": 28,
              "noteHighLimit": 127,
              "rtr": "PITCH_SHIFT_TO_ROOT"
            },
            "ctb2High": null
          },
          "notes": [
            {
              "pitch": 24,
              "velocity": 58,
              "position": 0,
              "duration": 0.9895833333333334
            },
            {
              "pitch": 36,
              "velocity": 58,
              "position": 1,
              "duration": 0.9895833333333334
            },
            {
              "pitch": 31,
              "velocity": 58,
              "position": 2,
              "duration": 0.9895833333333334
            },
            {
              "pitch": 28,
              "velocity": 58,
              "position": 3,
              "duration": 0.9895833333333334
            }
          ]
        },
        "2": {
          "ctab": {
            "srcChannel": 2,
            "name": "Gt Root",
            "accType": "CHORD1",
            "editable": false,
            "mutedNotes": [],
            "mutedChords": [
              "1+2+5",
              "sus4",
              "1+5",
              "1+8",
              "Maj7aug",
              "dim",
              "minMaj7(9)",
              "minMaj7",
              "min6",
              "min",
              "aug",
              "Maj7(9)",
              "Maj7#11",
              "Maj7",
              "Maj6",
              "Maj"
            ],
            "autoStart": false,
            "sourceChordNote": 0,
            "sourceChordType": "Maj7",
            "ctb2Low": null,
            "ctb2Main": {
              "ntr": "ROOT_TRANSPOSITION",
              "ntt": "CHORD",
              "bassOn": false,
              "chordRootUpperLimit": 6,
              "noteLowLimit": 0,
              "noteHighLimit": 127,
              "rtr": "PITCH_SHIFT"
            },
            "ctb2High": null
          },
          "notes": [
            {
              "pitch": 60,
              "velocity": 98,
              "position": 0,
              "duration": 0.22916666666666666
            },
            {
              "pitch": 60,
              "velocity": 80,
              "position": 1,
              "duration": 0.65625
            },
            {
              "pitch": 60,
              "velocity": 98,
              "position": 1.6666666666666667,
              "duration": 0.3229166666666667
            },
            {
              "pitch": 60,
              "velocity": 46,
              "position": 2,
              "duration": 0.65625
            },
            {
              "pitch": 60,
              "velocity": 64,
              "position": 2.6666666666666665,
              "duration": 0.3229166666666667
            },
            {
              "pitch": 60,
              "velocity": 98,
              "position": 3,
              "duration": 0.22916666666666666
            },
            {
              "pitch": 60,
              "velocity": 98,
              "position": 4,
              "duration": 7.979166666666667
            }
          ]
        },
        "4": {
          "ctab": {
            "srcChannel": 4,
            "name": "Str Root",
            "accType": "PAD",
            "editable": false,
            "mutedNotes": [],
            "mutedChords": [
              "1+2+5",
              "sus4",
              "1+5",
              "1+8",
              "Maj7aug",
              "dim",
              "minMaj7(9)",
              "minMaj7",
              "min6",
              "min",
              "aug",
              "Maj7(9)",
              "Maj7#11",
              "Maj7",
              "Maj6",
              "Maj"
            ],
            "autoStart": false,
            "sourceChordNote": 0,
            "sourceChordType": "Maj7",
            "ctb2Low": null,
            "ctb2Main": {
              "ntr": "ROOT_TRANSPOSITION",
              "ntt": "CHORD",
              "bassOn": false,
              "chordRootUpperLimit": 6,
              "noteLowLimit": 0,
              "noteHighLimit": 70,
              "rtr": "PITCH_SHIFT"
            },
            "ctb2High": null
          },
          "notes": [
            {
              "pitch": 60,
              "velocity": 17,
              "position": 0.010416666666666666,
              "duration": 3.9791666666666665
            },
            {
              "pitch": 60,
              "velocity": 17,
              "position": 4.020833333333333,
              "duration": 7.958333333333333
            }
          ]
        },
        "7": {
          "ctab": {
            "srcChannel": 7,
            "name": "CC_Crash",
            "accType": "RHYTHM",
            "editable": false,
            "mutedNotes": [],
            "mutedChords": [
              "1+2+5",
              "sus4",
              "1+5",
              "1+8",
              "7aug",
              "Maj7aug",
              "7(#9)",
              "7(b13)",
              "7(b9)",
              "7(13)",
              "7#11",
              "7(9)",
              "7b5",
              "7sus4",
              "7th",
              "dim7",
              "dim",
              "minMaj7(9)",
              "minMaj7",
              "min7(11)",
              "min7(9)",
              "min(9)",
              "m7b5",
              "min7",
              "min6",
              "min",
              "aug",
              "Maj6(9)",
              "Maj7(9)",
              "Maj(9)",
              "Maj7#11",
              "Maj7",
              "Maj6",
              "Maj"
            ],
            "autoStart": true,
            "sourceChordNote": 0,
            "sourceChordType": "Maj",
            "ctb2Low": null,
            "ctb2Main": {
              "ntr": "ROOT_FIXED",
              "ntt": "BYPASS",
              "bassOn": false,
              "chordRootUpperLimit": 0,
              "noteLowLimit": 0,
              "noteHighLimit": 127,
              "rtr": "RETRIGGER"
            },
            "ctb2High": null
          },
          "notes": []
        },
        "9": {
          "ctab": {
            "srcChannel": 9,
            "name": "Drums",
            "accType": "RHYTHM",
            "editable": false,
            "mutedNotes": [],
            "mutedChords": [],
            "autoStart": true,
            "sourceChordNote": 0,
            "sourceChordType": "Maj7",
            "ctb2Low": null,
            "ctb2Main": {
              "ntr": "ROOT_FIXED",
              "ntt": "BYPASS",
              "bassOn": false,
              "chordRootUpperLimit": 6,
              "noteLowLimit": 0,
              "noteHighLimit": 127,
              "rtr": "PITCH_SHIFT"
            },
            "ctb2High": null
          },
          "notes": [
            {
              "pitch": 25,
              "velocity": 60,
              "position": 0,
              "duration": 0.010416666666666666
            },
            {
              "pitch": 35,
              "velocity": 40,
              "position": 0,
              "duration": 0.010416666666666666
            },
            {
              "pitch": 51,
              "velocity": 54,
              "position": 0,
              "duration": 0.010416666666666666
            },
            {
              "pitch": 25,
              "velocity": 20,
              "position": 0.75,
              "duration": 0.010416666666666666
            },
            {
              "pitch": 25,
              "velocity": 30,
              "position": 0.8333333333333334,
              "duration": 0.010416666666666666
            },
            {
              "pitch": 25,
              "velocity": 40,
              "position": 0.9166666666666666,
              "duration": 0.010416666666666666
            },
            {
              "pitch": 26,
              "velocity": 38,
              "position": 0,
              "duration": 0.9895833333333334
            },
            {
              "pitch": 27,
              "velocity": 80,
              "position": 1,
              "duration": 0.010416666666666666
            },
            {
              "pitch": 44,
              "velocity": 48,
              "position": 1,
              "duration": 0.010416666666666666
            },
            {
              "pitch": 51,
              "velocity": 54,
              "position": 1,
              "duration": 0.010416666666666666
            },
            {
              "pitch": 48,
              "velocity": 20,
              "position": 1.3333333333333333,
              "duration": 0.010416666666666666
            },
            {
              "pitch": 48,
              "velocity": 50,
              "position": 1.6666666666666667,
              "duration": 0.010416666666666666
            },
            {
              "pitch": 28,
              "velocity": 34,
              "position": 1,
              "duration": 0.9895833333333334
            },
            {
              "pitch": 25,
              "velocity": 60,
              "position": 2,
              "duration": 0.010416666666666666
            },
            {
              "pitch": 35,
              "velocity": 40,
              "position": 2,
              "duration": 0.010416666666666666
            },
            {
              "pitch": 51,
              "velocity": 54,
              "position": 2,
              "duration": 0.010416666666666666
            },
            {
              "pitch": 47,
              "velocity": 20,
              "position": 2.3333333333333335,
              "duration": 0.010416666666666666
            },
            {
              "pitch": 47,
              "velocity": 50,
              "position": 2.6666666666666665,
              "duration": 0.010416666666666666
            },
            {
              "pitch": 26,
              "velocity": 38,
              "position": 2,
              "duration": 0.9895833333333334
            },
            {
              "pitch": 25,
              "velocity": 60,
              "position": 3,
              "duration": 0.010416666666666666
            },
            {
              "pitch": 46,
              "velocity": 30,
              "position": 3,
              "duration": 0.010416666666666666
            },
            {
              "pitch": 51,
              "velocity": 54,
              "position": 3,
              "duration": 0.010416666666666666
            },
            {
              "pitch": 45,
              "velocity": 20,
              "position": 3.3333333333333335,
              "duration": 0.010416666666666666
            },
            {
              "pitch": 45,
              "velocity": 50,
              "position": 3.6666666666666665,
              "duration": 0.010416666666666666
            },
            {
              "pitch": 28,
              "velocity": 34,
              "position": 3,
              "duration": 0.9895833333333334
            },
            {
              "pitch": 25,
              "velocity": 60,
              "position": 4,
              "duration": 0.010416666666666666
            },
            {
              "pitch": 35,
              "velocity": 40,
              "position": 4,
              "duration": 0.010416666666666666
            }
          ]
        },
        "10": {
          "ctab": {
            "srcChannel": 10,
            "name": "Bass 1",
            "accType": "BASS",
            "editable": false,
            "mutedNotes": [],
            "mutedChords": [
              "sus4",
              "7aug",
              "dim",
              "minMaj7(9)",
              "minMaj7",
              "min(9)",
              "m7b5",
              "min",
              "aug"
            ],
            "autoStart": false,
            "sourceChordNote": 0,
            "sourceChordType": "Maj7",
            "ctb2Low": null,
            "ctb2Main": {
              "ntr": "ROOT_TRANSPOSITION",
              "ntt": "MELODY",
              "bassOn": true,
              "chordRootUpperLimit": 8,
              "noteLowLimit": 28,
              "noteHighLimit": 127,
              "rtr": "PITCH_SHIFT_TO_ROOT"
            },
            "ctb2High": null
          },
          "notes": [
            {
              "pitch": 24,
              "velocity": 58,
              "position": 0,
              "duration": 0.9895833333333334
            },
            {
              "pitch": 36,
              "velocity": 58,
              "position": 1,
              "duration": 0.9895833333333334
            },
            {
              "pitch": 31,
              "velocity": 58,
              "position": 2,
              "duration": 0.9895833333333334
            },
            {
              "pitch": 28,
              "velocity": 58,
              "position": 3,
              "duration": 0.9895833333333334
            }
          ]
        },
        "11": {
          "ctab": {
            "srcChannel": 11,
            "name": "Gt",
            "accType": "CHORD1",
            "editable": false,
            "mutedNotes": [],
            "mutedChords": [],
            "autoStart": false,
            "sourceChordNote": 0,
            "sourceChordType": "Maj7",
            "ctb2Low": null,
            "ctb2Main": {
              "ntr": "ROOT_FIXED",
              "ntt": "CHORD",
              "bassOn": false,
              "chordRootUpperLimit": 7,
              "noteLowLimit": 0,
              "noteHighLimit": 127,
              "rtr": "PITCH_SHIFT"
            },
            "ctb2High": null
          },
          "notes": [
            {
              "pitch": 55,
              "velocity": 98,
              "position": 0,
              "duration": 0.22916666666666666
            },
            {
              "pitch": 59,
              "velocity": 98,
              "position": 0,
              "duration": 0.22916666666666666
            },
            {
              "pitch": 64,
              "velocity": 98,
              "position": 0,
              "duration": 0.22916666666666666
            },
            {
              "pitch": 55,
              "velocity": 80,
              "position": 1,
              "duration": 0.65625
            },
            {
              "pitch": 59,
              "velocity": 80,
              "position": 1,
              "duration": 0.65625
            },
            {
              "pitch": 64,
              "velocity": 80,
              "position": 1,
              "duration": 0.65625
            },
            {
              "pitch": 55,
              "velocity": 98,
              "position": 1.6666666666666667,
              "duration": 0.3229166666666667
            },
            {
              "pitch": 59,
              "velocity": 98,
              "position": 1.6666666666666667,
              "duration": 0.3229166666666667
            },
            {
              "pitch": 64,
              "velocity": 98,
              "position": 1.6666666666666667,
              "duration": 0.3229166666666667
            },
            {
              "pitch": 55,
              "velocity": 46,
              "position": 2,
              "duration": 0.65625
            },
            {
              "pitch": 59,
              "velocity": 46,
              "position": 2,
              "duration": 0.65625
            },
            {
              "pitch": 64,
              "velocity": 46,
              "position": 2,
              "duration": 0.65625
            },
            {
              "pitch": 55,
              "velocity": 64,
              "position": 2.6666666666666665,
              "duration": 0.3229166666666667
            },
            {
              "pitch": 59,
              "velocity": 64,
              "position": 2.6666666666666665,
              "duration": 0.3229166666666667
            },
            {
              "pitch": 64,
              "velocity": 64,
              "position": 2.6666666666666665,
              "duration": 0.3229166666666667
            },
            {
              "pitch": 55,
              "velocity": 98,
              "position": 3,
              "duration": 0.22916666666666666
            },
            {
              "pitch": 59,
              "velocity": 98,
              "position": 3,
              "duration": 0.22916666666666666
            },
            {
              "pitch": 64,
              "velocity": 98,
              "position": 3,
              "duration": 0.22916666666666666
            },
            {
              "pitch": 55,
              "velocity": 98,
              "position": 4,
              "duration": 7.979166666666667
            },
            {
              "pitch": 59,
              "velocity": 98,
              "position": 4,
              "duration": 7.979166666666667
            },
            {
              "pitch": 64,
              "velocity": 98,
              "position": 4,
              "duration": 7.979166666666667
            }
          ]
        },
        "12": {
          "ctab": {
            "srcChannel": 12,
            "name": "EP",
            "accType": "CHORD2",
            "editable": false,
            "mutedNotes": [],
            "mutedChords": [],
            "autoStart": false,
            "sourceChordNote": 0,
            "sourceChordType": "Maj7",
            "ctb2Low": null,
            "ctb2Main": {
              "ntr": "ROOT_FIXED",
              "ntt": "CHORD",
              "bassOn": false,
              "chordRootUpperLimit": 7,
              "noteLowLimit": 0,
              "noteHighLimit": 127,
              "rtr": "PITCH_SHIFT"
            },
            "ctb2High": null
          },
          "notes": [
            {
              "pitch": 59,
              "velocity": 78,
              "position": 0,
              "duration": 0.65625
            },
            {
              "pitch": 64,
              "velocity": 78,
              "position": 0,
              "duration": 0.65625
            },
            {
              "pitch": 67,
              "velocity": 78,
              "position": 0,
              "duration": 0.65625
            },
            {
              "pitch": 67,
              "velocity": 57,
              "position": 0.6666666666666666,
              "duration": 1.9895833333333333
            },
            {
              "pitch": 71,
              "velocity": 57,
              "position": 0.6666666666666666,
              "duration": 1.9895833333333333
            },
            {
              "pitch": 76,
              "velocity": 57,
              "position": 0.6666666666666666,
              "duration": 1.9895833333333333
            },
            {
              "pitch": 59,
              "velocity": 68,
              "position": 2.6666666666666665,
              "duration": 1.3229166666666667
            },
            {
              "pitch": 64,
              "velocity": 68,
              "position": 2.6666666666666665,
              "duration": 1.3229166666666667
            },
            {
              "pitch": 67,
              "velocity": 68,
              "position": 2.6666666666666665,
              "duration": 1.3229166666666667
            },
            {
              "pitch": 59,
              "velocity": 68,
              "position": 4,
              "duration": 7.979166666666667
            },
            {
              "pitch": 64,
              "velocity": 68,
              "position": 4,
              "duration": 7.979166666666667
            },
            {
              "pitch": 67,
              "velocity": 68,
              "position": 4,
              "duration": 7.979166666666667
            }
          ]
        },
        "13": {
          "ctab": {
            "srcChannel": 13,
            "name": "Str",
            "accType": "PAD",
            "editable": false,
            "mutedNotes": [],
            "mutedChords": [],
            "autoStart": false,
            "sourceChordNote": 0,
            "sourceChordType": "Maj7",
            "ctb2Low": null,
            "ctb2Main": {
              "ntr": "ROOT_FIXED",
              "ntt": "CHORD",
              "bassOn": false,
              "chordRootUpperLimit": 7,
              "noteLowLimit": 0,
              "noteHighLimit": 79,
              "rtr": "PITCH_SHIFT"
            },
            "ctb2High": null
          },
          "notes": [
            {
              "pitch": 88,
              "velocity": 28,
              "position": 0.010416666666666666,
              "duration": 0.4895833333333333
            },
            {
              "pitch": 83,
              "velocity": 28,
              "position": 0.010416666666666666,
              "duration": 1.4895833333333333
            },
            {
              "pitch": 79,
              "velocity": 28,
              "position": 0.010416666666666666,
              "duration": 2.4895833333333335
            },
            {
              "pitch": 76,
              "velocity": 28,
              "position": 0.5104166666666666,
              "duration": 2.4895833333333335
            },
            {
              "pitch": 71,
              "velocity": 28,
              "position": 1.5104166666666667,
              "duration": 1.9895833333333333
            },
            {
              "pitch": 55,
              "velocity": 17,
              "position": 0.010416666666666666,
              "duration": 3.9791666666666665
            },
            {
              "pitch": 59,
              "velocity": 17,
              "position": 0.010416666666666666,
              "duration": 3.9791666666666665
            },
            {
              "pitch": 64,
              "velocity": 17,
              "position": 0.010416666666666666,
              "duration": 3.9791666666666665
            },
            {
              "pitch": 67,
              "velocity": 28,
              "position": 2.5104166666666665,
              "duration": 1.4895833333333333
            },
            {
              "pitch": 55,
              "velocity": 17,
              "position": 4.020833333333333,
              "duration": 7.958333333333333
            },
            {
              "pitch": 59,
              "velocity": 17,
              "position": 4.020833333333333,
              "duration": 7.958333333333333
            },
            {
              "pitch": 64,
              "velocity": 17,
              "position": 4.020833333333333,
              "duration": 7.958333333333333
            }
          ]
        },
        "14": {
          "ctab": {
            "srcChannel": 14,
            "name": "Pno",
            "accType": "PHRASE1",
            "editable": false,
            "mutedNotes": [],
            "mutedChords": [],
            "autoStart": false,
            "sourceChordNote": 0,
            "sourceChordType": "Maj7",
            "ctb2Low": null,
            "ctb2Main": {
              "ntr": "ROOT_FIXED",
              "ntt": "CHORD",
              "bassOn": false,
              "chordRootUpperLimit": 7,
              "noteLowLimit": 0,
              "noteHighLimit": 127,
              "rtr": "PITCH_SHIFT"
            },
            "ctb2High": null
          },
          "notes": [
            {
              "pitch": 55,
              "velocity": 34,
              "position": 0.010416666666666666,
              "duration": 0.65625
            },
            {
              "pitch": 59,
              "velocity": 34,
              "position": 0.010416666666666666,
              "duration": 0.65625
            },
            {
              "pitch": 64,
              "velocity": 34,
              "position": 0.010416666666666666,
              "duration": 0.65625
            },
            {
              "pitch": 64,
              "velocity": 51,
              "position": 0.6770833333333334,
              "duration": 0.5625
            },
            {
              "pitch": 64,
              "velocity": 52,
              "position": 1.25,
              "duration": 0.22916666666666666
            },
            {
              "pitch": 67,
              "velocity": 51,
              "position": 1.5,
              "duration": 0.22916666666666666
            },
            {
              "pitch": 71,
              "velocity": 54,
              "position": 1.75,
              "duration": 0.22916666666666666
            },
            {
              "pitch": 76,
              "velocity": 55,
              "position": 2.25,
              "duration": 0.22916666666666666
            },
            {
              "pitch": 79,
              "velocity": 55,
              "position": 2.5,
              "duration": 0.22916666666666666
            },
            {
              "pitch": 83,
              "velocity": 52,
              "position": 2.75,
              "duration": 0.22916666666666666
            },
            {
              "pitch": 88,
              "velocity": 54,
              "position": 3,
              "duration": 0.22916666666666666
            },
            {
              "pitch": 91,
              "velocity": 54,
              "position": 3.25,
              "duration": 0.22916666666666666
            },
            {
              "pitch": 95,
              "velocity": 52,
              "position": 3.5,
              "duration": 0.22916666666666666
            },
            {
              "pitch": 55,
              "velocity": 51,
              "position": 0.6770833333333334,
              "duration": 3.1458333333333335
            },
            {
              "pitch": 59,
              "velocity": 51,
              "position": 0.6770833333333334,
              "duration": 3.1458333333333335
            },
            {
              "pitch": 100,
              "velocity": 50,
              "position": 3.75,
              "duration": 0.22916666666666666
            },
            {
              "pitch": 55,
              "velocity": 51,
              "position": 4.020833333333333,
              "duration": 7.958333333333333
            },
            {
              "pitch": 59,
              "velocity": 51,
              "position": 4.020833333333333,
              "duration": 7.958333333333333
            },
            {
              "pitch": 64,
              "velocity": 51,
              "position": 4.020833333333333,
              "duration": 7.958333333333333
            }
          ]
        }
      }
    },
    "Fill_In_BA": {
      "type": "Fill_In_BA",
      "sizeInBeats": 4,
      "channels": {
        "1": {
          "ctab": {
            "srcChannel": 1,
            "name": "Bass 2",
            "accType": "BASS",
            "editable": false,
            "mutedNotes": [],
            "mutedChords": [
              "1+2+5",
              "1+5",
              "1+8",
              "Maj7aug",
              "7(#9)",
              "7(b13)",
              "7(b9)",
              "7(13)",
              "7#11",
              "7(9)",
              "7b5",
              "7sus4",
              "7th",
              "dim7",
              "min7(11)",
              "min7(9)",
              "min7",
              "min6",
              "Maj6(9)",
              "Maj7(9)",
              "Maj(9)",
              "Maj7#11",
              "Maj7",
              "Maj6",
              "Maj"
            ],
            "autoStart": false,
            "sourceChordNote": 0,
            "sourceChordType": "Maj7",
            "ctb2Low": null,
            "ctb2Main": {
              "ntr": "ROOT_TRANSPOSITION",
              "ntt": "MELODY",
              "bassOn": true,
              "chordRootUpperLimit": 8,
              "noteLowLimit": 28,
              "noteHighLimit": 127,
              "rtr": "PITCH_SHIFT_TO_ROOT"
            },
            "ctb2High": null
          },
          "notes": [
            {
              "pitch": 24,
              "velocity": 58,
              "position": 0,
              "duration": 0.65625
            },
            {
              "pitch": 24,
              "velocity": 58,
              "position": 0.6666666666666666,
              "duration": 0.3229166666666667
            }
          ]
        },
        "2": {
          "ctab": {
            "srcChannel": 2,
            "name": "Gt Root",
            "accType": "CHORD1",
            "editable": false,
            "mutedNotes": [],
            "mutedChords": [
              "1+2+5",
              "sus4",
              "1+5",
              "1+8",
              "Maj7aug",
              "dim",
              "minMaj7(9)",
              "minMaj7",
              "min6",
              "min",
              "aug",
              "Maj7(9)",
              "Maj7#11",
              "Maj7",
              "Maj6",
              "Maj"
            ],
            "autoStart": false,
            "sourceChordNote": 0,
            "sourceChordType": "Maj7",
            "ctb2Low": null,
            "ctb2Main": {
              "ntr": "ROOT_TRANSPOSITION",
              "ntt": "CHORD",
              "bassOn": false,
              "chordRootUpperLimit": 6,
              "noteLowLimit": 0,
              "noteHighLimit": 127,
              "rtr": "PITCH_SHIFT"
            },
            "ctb2High": null
          },
          "notes": [
            {
              "pitch": 60,
              "velocity": 98,
              "position": 0,
              "duration": 0.65625
            },
            {
              "pitch": 60,
              "velocity": 98,
              "position": 0.6666666666666666,
              "duration": 0.22916666666666666
            }
          ]
        },
        "4": {
          "ctab": {
            "srcChannel": 4,
            "name": "Str Root",
            "accType": "PAD",
            "editable": false,
            "mutedNotes": [],
            "mutedChords": [
              "1+2+5",
              "sus4",
              "1+5",
              "1+8",
              "Maj7aug",
              "dim",
              "minMaj7(9)",
              "minMaj7",
              "min6",
              "min",
              "aug",
              "Maj7(9)",
              "Maj7#11",
              "Maj7",
              "Maj6",
              "Maj"
            ],
            "autoStart": false,
            "sourceChordNote": 0,
            "sourceChordType": "Maj7",
            "ctb2Low": null,
            "ctb2Main": {
              "ntr": "ROOT_TRANSPOSITION",
              "ntt": "CHORD",
              "bassOn": false,
              "chordRootUpperLimit": 6,
              "noteLowLimit": 0,
              "noteHighLimit": 70,
              "rtr": "PITCH_SHIFT"
            },
            "ctb2High": null
          },
          "notes": []
        },
        "7": {
          "ctab": {
            "srcChannel": 7,
            "name": "CC_Crash",
            "accType": "RHYTHM",
            "editable": false,
            "mutedNotes": [],
            "mutedChords": [
              "1+2+5",
              "sus4",
              "1+5",
              "1+8",
              "7aug",
              "Maj7aug",
              "7(#9)",
              "7(b13)",
              "7(b9)",
              "7(13)",
              "7#11",
              "7(9)",
              "7b5",
              "7sus4",
              "7th",
              "dim7",
              "dim",
              "minMaj7(9)",
              "minMaj7",
              "min7(11)",
              "min7(9)",
              "min(9)",
              "m7b5",
              "min7",
              "min6",
              "min",
              "aug",
              "Maj6(9)",
              "Maj7(9)",
              "Maj(9)",
              "Maj7#11",
              "Maj7",
              "Maj6",
              "Maj"
            ],
            "autoStart": true,
            "sourceChordNote": 0,
            "sourceChordType": "Maj",
            "ctb2Low": null,
            "ctb2Main": {
              "ntr": "ROOT_FIXED",
              "ntt": "BYPASS",
              "bassOn": false,
              "chordRootUpperLimit": 0,
              "noteLowLimit": 0,
              "noteHighLimit": 127,
              "rtr": "RETRIGGER"
            },
            "ctb2High": null
          },
          "notes": []
        },
        "9": {
          "ctab": {
            "srcChannel": 9,
            "name": "Drums",
            "accType": "RHYTHM",
            "editable": false,
            "mutedNotes": [],
            "mutedChords": [],
            "autoStart": true,
            "sourceChordNote": 0,
            "sourceChordType": "Maj7",
            "ctb2Low": null,
            "ctb2Main": {
              "ntr": "ROOT_FIXED",
              "ntt": "BYPASS",
              "bassOn": false,
              "chordRootUpperLimit": 6,
              "noteLowLimit": 0,
              "noteHighLimit": 127,
              "rtr": "PITCH_SHIFT"
            },
            "ctb2High": null
          },
          "notes": [
            {
              "pitch": 25,
              "velocity": 60,
              "position": 0,
              "duration": 0.010416666666666666
            },
            {
              "pitch": 35,
              "velocity": 40,
              "position": 0,
              "duration": 0.010416666666666666
            },
            {
              "pitch": 57,
              "velocity": 36,
              "position": 0,
              "duration": 0.010416666666666666
            },
            {
              "pitch": 26,
              "velocity": 38,
              "position": 0,
              "duration": 0.65625
            },
            {
              "pitch": 35,
              "velocity": 40,
              "position": 0.6666666666666666,
              "duration": 0.010416666666666666
            },
            {
              "pitch": 44,
              "velocity": 30,
              "position": 1,
              "duration": 0.010416666666666666
            },
            {
              "pitch": 25,
              "velocity": 20,
              "position": 1.3333333333333333,
              "duration": 0.010416666666666666
            },
            {
              "pitch": 25,
              "velocity": 117,
              "position": 1.6666666666666667,
              "duration": 0.010416666666666666
            },
            {
              "pitch": 27,
              "velocity": 127,
              "position": 1.7083333333333333,
              "duration": 0.010416666666666666
            },
            {
              "pitch": 44,
              "velocity": 30,
              "position": 2,
              "duration": 0.010416666666666666
            },
            {
              "pitch": 47,
              "velocity": 20,
              "position": 2.3333333333333335,
              "duration": 0.010416666666666666
            },
            {
              "pitch": 47,
              "velocity": 60,
              "position": 2.6666666666666665,
              "duration": 0.010416666666666666
            },
            {
              "pitch": 44,
              "velocity": 30,
              "position": 3,
              "duration": 0.010416666666666666
            },
            {
              "pitch": 45,
              "velocity": 20,
              "position": 3.3333333333333335,
              "duration": 0.010416666666666666
            },
            {
              "pitch": 45,
              "velocity": 60,
              "position": 3.6666666666666665,
              "duration": 0.010416666666666666
            },
            {
              "pitch": 57,
              "velocity": 50,
              "position": 3.9895833333333335,
              "duration": 0.010416666666666666
            }
          ]
        },
        "10": {
          "ctab": {
            "srcChannel": 10,
            "name": "Bass 1",
            "accType": "BASS",
            "editable": false,
            "mutedNotes": [],
            "mutedChords": [
              "sus4",
              "7aug",
              "dim",
              "minMaj7(9)",
              "minMaj7",
              "min(9)",
              "m7b5",
              "min",
              "aug"
            ],
            "autoStart": false,
            "sourceChordNote": 0,
            "sourceChordType": "Maj7",
            "ctb2Low": null,
            "ctb2Main": {
              "ntr": "ROOT_TRANSPOSITION",
              "ntt": "MELODY",
              "bassOn": true,
              "chordRootUpperLimit": 8,
              "noteLowLimit": 28,
              "noteHighLimit": 127,
              "rtr": "PITCH_SHIFT_TO_ROOT"
            },
            "ctb2High": null
          },
          "notes": [
            {
              "pitch": 24,
              "velocity": 58,
              "position": 0,
              "duration": 0.65625
            },
            {
              "pitch": 24,
              "velocity": 58,
              "position": 0.6666666666666666,
              "duration": 0.3229166666666667
            }
          ]
        },
        "11": {
          "ctab": {
            "srcChannel": 11,
            "name": "Gt",
            "accType": "CHORD1",
            "editable": false,
            "mutedNotes": [],
            "mutedChords": [],
            "autoStart": false,
            "sourceChordNote": 0,
            "sourceChordType": "Maj7",
            "ctb2Low": null,
            "ctb2Main": {
              "ntr": "ROOT_FIXED",
              "ntt": "CHORD",
              "bassOn": false,
              "chordRootUpperLimit": 7,
              "noteLowLimit": 0,
              "noteHighLimit": 127,
              "rtr": "PITCH_SHIFT"
            },
            "ctb2High": null
          },
          "notes": [
            {
              "pitch": 55,
              "velocity": 98,
              "position": 0,
              "duration": 0.65625
            },
            {
              "pitch": 59,
              "velocity": 98,
              "position": 0,
              "duration": 0.65625
            },
            {
              "pitch": 64,
              "velocity": 98,
              "position": 0,
              "duration": 0.65625
            },
            {
              "pitch": 55,
              "velocity": 98,
              "position": 0.6666666666666666,
              "duration": 0.22916666666666666
            },
            {
              "pitch": 59,
              "velocity": 98,
              "position": 0.6666666666666666,
              "duration": 0.22916666666666666
            },
            {
              "pitch": 64,
              "velocity": 98,
              "position": 0.6666666666666666,
              "duration": 0.22916666666666666
            }
          ]
        },
        "12": {
          "ctab": {
            "srcChannel": 12,
            "name": "EP",
            "accType": "CHORD2",
            "editable": false,
            "mutedNotes": [],
            "mutedChords": [],
            "autoStart": false,
            "sourceChordNote": 0,
            "sourceChordType": "Maj7",
            "ctb2Low": null,
            "ctb2Main": {
              "ntr": "ROOT_FIXED",
              "ntt": "CHORD",
              "bassOn": false,
              "chordRootUpperLimit": 7,
              "noteLowLimit": 0,
              "noteHighLimit": 127,
              "rtr": "PITCH_SHIFT"
            },
            "ctb2High": null
          },
          "notes": [
            {
              "pitch": 59,
              "velocity": 68,
              "position": 0,
              "duration": 0.65625
            },
            {
              "pitch": 64,
              "velocity": 68,
              "position": 0,
              "duration": 0.65625
            },
            {
              "pitch": 67,
              "velocity": 68,
              "position": 0,
              "duration": 0.65625
            },
            {
              "pitch": 59,
              "velocity": 68,
              "position": 0.6666666666666666,
              "duration": 0.15625
            },
            {
              "pitch": 64,
              "velocity": 68,
              "position": 0.6666666666666666,
              "duration": 0.15625
            },
            {
              "pitch": 67,
              "velocity": 68,
              "position": 0.6666666666666666,
              "duration": 0.15625
            }
          ]
        },
        "13": {
          "ctab": {
            "srcChannel": 13,
            "name": "Str",
            "accType": "PAD",
            "editable": false,
            "mutedNotes": [],
            "mutedChords": [],
            "autoStart": false,
            "sourceChordNote": 0,
            "sourceChordType": "Maj7",
            "ctb2Low": null,
            "ctb2Main": {
              "ntr": "ROOT_FIXED",
              "ntt": "CHORD",
              "bassOn": false,
              "chordRootUpperLimit": 7,
              "noteLowLimit": 0,
              "noteHighLimit": 79,
              "rtr": "PITCH_SHIFT"
            },
            "ctb2High": null
          },
          "notes": []
        },
        "14": {
          "ctab": {
            "srcChannel": 14,
            "name": "Pno",
            "accType": "PHRASE1",
            "editable": false,
            "mutedNotes": [],
            "mutedChords": [],
            "autoStart": false,
            "sourceChordNote": 0,
            "sourceChordType": "Maj7",
            "ctb2Low": null,
            "ctb2Main": {
              "ntr": "ROOT_FIXED",
              "ntt": "CHORD",
              "bassOn": false,
              "chordRootUpperLimit": 7,
              "noteLowLimit": 0,
              "noteHighLimit": 127,
              "rtr": "PITCH_SHIFT"
            },
            "ctb2High": null
          },
          "notes": [
            {
              "pitch": 55,
              "velocity": 51,
              "position": 0.010416666666666666,
              "duration": 0.65625
            },
            {
              "pitch": 59,
              "velocity": 51,
              "position": 0.010416666666666666,
              "duration": 0.65625
            },
            {
              "pitch": 64,
              "velocity": 51,
              "position": 0.010416666666666666,
              "duration": 0.65625
            },
            {
              "pitch": 55,
              "velocity": 51,
              "position": 0.6770833333333334,
              "duration": 0.15625
            },
            {
              "pitch": 59,
              "velocity": 51,
              "position": 0.6770833333333334,
              "duration": 0.15625
            },
            {
              "pitch": 64,
              "velocity": 51,
              "position": 0.6770833333333334,
              "duration": 0.15625
            }
          ]
        }
      }
    },
    "Intro_B": {
      "type": "Intro_B",
      "sizeInBeats": 16,
      "channels": {
        "1": {
          "ctab": {
            "srcChannel": 1,
            "name": "Bass",
            "accType": "BASS",
            "editable": false,
            "mutedNotes": [],
            "mutedChords": [
              "1+2+5",
              "sus4",
              "1+5",
              "1+8",
              "7aug",
              "Maj7aug",
              "7(#9)",
              "7(b13)",
              "7(b9)",
              "7(13)",
              "7#11",
              "7(9)",
              "7b5",
              "7sus4",
              "7th",
              "aug",
              "Maj6(9)",
              "Maj7(9)",
              "Maj(9)",
              "Maj7#11",
              "Maj7",
              "Maj6",
              "Maj"
            ],
            "autoStart": false,
            "sourceChordNote": 0,
            "sourceChordType": "min",
            "ctb2Low": null,
            "ctb2Main": {
              "ntr": "ROOT_TRANSPOSITION",
              "ntt": "BYPASS",
              "bassOn": false,
              "chordRootUpperLimit": 8,
              "noteLowLimit": 28,
              "noteHighLimit": 127,
              "rtr": "PITCH_SHIFT"
            },
            "ctb2High": null
          },
          "notes": [
            {
              "pitch": 24,
              "velocity": 58,
              "position": 0,
              "duration": 1.5625
            },
            {
              "pitch": 31,
              "velocity": 110,
              "position": 1.6666666666666667,
              "duration": 0.11458333333333333
            },
            {
              "pitch": 36,
              "velocity": 58,
              "position": 2,
              "duration": 1.9895833333333333
            },
            {
              "pitch": 24,
              "velocity": 58,
              "position": 4,
              "duration": 1.2291666666666667
            },
            {
              "pitch": 31,
              "velocity": 110,
              "position": 5.333333333333333,
              "duration": 0.11458333333333333
            },
            {
              "pitch": 36,
              "velocity": 58,
              "position": 5.666666666666667,
              "duration": 0.11458333333333333
            },
            {
              "pitch": 29,
              "velocity": 58,
              "position": 6,
              "duration": 0.9895833333333334
            },
            {
              "pitch": 29,
              "velocity": 58,
              "position": 7,
              "duration": 0.9895833333333334
            },
            {
              "pitch": 32,
              "velocity": 58,
              "position": 8,
              "duration": 1.5625
            },
            {
              "pitch": 27,
              "velocity": 110,
              "position": 9.666666666666666,
              "duration": 0.11458333333333333
            },
            {
              "pitch": 32,
              "velocity": 58,
              "position": 10,
              "duration": 1.9895833333333333
            },
            {
              "pitch": 31,
              "velocity": 58,
              "position": 12,
              "duration": 1.5625
            },
            {
              "pitch": 31,
              "velocity": 110,
              "position": 13.666666666666666,
              "duration": 0.11458333333333333
            },
            {
              "pitch": 31,
              "velocity": 58,
              "position": 14,
              "duration": 1.9895833333333333
            }
          ]
        },
        "3": {
          "ctab": {
            "srcChannel": 3,
            "name": "EP",
            "accType": "CHORD2",
            "editable": false,
            "mutedNotes": [],
            "mutedChords": [
              "1+2+5",
              "sus4",
              "1+5",
              "1+8",
              "7aug",
              "Maj7aug",
              "7(#9)",
              "7(b13)",
              "7(b9)",
              "7(13)",
              "7#11",
              "7(9)",
              "7b5",
              "7sus4",
              "7th",
              "aug",
              "Maj6(9)",
              "Maj7(9)",
              "Maj(9)",
              "Maj7#11",
              "Maj7",
              "Maj6",
              "Maj"
            ],
            "autoStart": false,
            "sourceChordNote": 0,
            "sourceChordType": "min",
            "ctb2Low": null,
            "ctb2Main": {
              "ntr": "ROOT_TRANSPOSITION",
              "ntt": "BYPASS",
              "bassOn": false,
              "chordRootUpperLimit": 8,
              "noteLowLimit": 56,
              "noteHighLimit": 67,
              "rtr": "PITCH_SHIFT"
            },
            "ctb2High": null
          },
          "notes": [
            {
              "pitch": 60,
              "velocity": 46,
              "position": 0,
              "duration": 1.9895833333333333
            },
            {
              "pitch": 63,
              "velocity": 46,
              "position": 0,
              "duration": 2
            },
            {
              "pitch": 59,
              "velocity": 46,
              "position": 2,
              "duration": 2
            },
            {
              "pitch": 62,
              "velocity": 46,
              "position": 2,
              "duration": 2
            },
            {
              "pitch": 58,
              "velocity": 46,
              "position": 4,
              "duration": 2
            },
            {
              "pitch": 57,
              "velocity": 46,
              "position": 6,
              "duration": 1.9895833333333333
            },
            {
              "pitch": 54,
              "velocity": 46,
              "position": 8,
              "duration": 1.9895833333333333
            },
            {
              "pitch": 61,
              "velocity": 46,
              "position": 8,
              "duration": 2
            },
            {
              "pitch": 54,
              "velocity": 46,
              "position": 10,
              "duration": 1.9895833333333333
            },
            {
              "pitch": 60,
              "velocity": 46,
              "position": 10,
              "duration": 1.9895833333333333
            },
            {
              "pitch": 63,
              "velocity": 46,
              "position": 12,
              "duration": 1.9895833333333333
            },
            {
              "pitch": 53,
              "velocity": 46,
              "position": 12,
              "duration": 3.9895833333333335
            },
            {
              "pitch": 62,
              "velocity": 46,
              "position": 14,
              "duration": 1.9895833333333333
            }
          ]
        },
        "4": {
          "ctab": {
            "srcChannel": 4,
            "name": "Str",
            "accType": "PAD",
            "editable": false,
            "mutedNotes": [],
            "mutedChords": [
              "1+2+5",
              "sus4",
              "1+5",
              "1+8",
              "7aug",
              "Maj7aug",
              "7(#9)",
              "7(b13)",
              "7(b9)",
              "7(13)",
              "7#11",
              "7(9)",
              "7b5",
              "7sus4",
              "7th",
              "aug",
              "Maj6(9)",
              "Maj7(9)",
              "Maj(9)",
              "Maj7#11",
              "Maj7",
              "Maj6",
              "Maj"
            ],
            "autoStart": false,
            "sourceChordNote": 0,
            "sourceChordType": "min",
            "ctb2Low": null,
            "ctb2Main": {
              "ntr": "ROOT_TRANSPOSITION",
              "ntt": "BYPASS",
              "bassOn": false,
              "chordRootUpperLimit": 8,
              "noteLowLimit": 54,
              "noteHighLimit": 79,
              "rtr": "PITCH_SHIFT"
            },
            "ctb2High": null
          },
          "notes": [
            {
              "pitch": 48,
              "velocity": 38,
              "position": 0.010416666666666666,
              "duration": 1.9791666666666667
            },
            {
              "pitch": 47,
              "velocity": 31,
              "position": 2,
              "duration": 1.9895833333333333
            },
            {
              "pitch": 50,
              "velocity": 31,
              "position": 2,
              "duration": 1.9895833333333333
            },
            {
              "pitch": 46,
              "velocity": 31,
              "position": 4,
              "duration": 1.9895833333333333
            },
            {
              "pitch": 51,
              "velocity": 31,
              "position": 4,
              "duration": 1.9895833333333333
            },
            {
              "pitch": 45,
              "velocity": 31,
              "position": 6,
              "duration": 1.9895833333333333
            },
            {
              "pitch": 79,
              "velocity": 19,
              "position": 0.010416666666666666,
              "duration": 7.979166666666667
            },
            {
              "pitch": 91,
              "velocity": 19,
              "position": 0.010416666666666666,
              "duration": 7.979166666666667
            },
            {
              "pitch": 49,
              "velocity": 31,
              "position": 8,
              "duration": 1.9895833333333333
            },
            {
              "pitch": 77,
              "velocity": 10,
              "position": 8.010416666666666,
              "duration": 3.9791666666666665
            },
            {
              "pitch": 89,
              "velocity": 10,
              "position": 8.010416666666666,
              "duration": 3.9791666666666665
            },
            {
              "pitch": 42,
              "velocity": 31,
              "position": 8,
              "duration": 4
            },
            {
              "pitch": 46,
              "velocity": 31,
              "position": 8,
              "duration": 4
            },
            {
              "pitch": 48,
              "velocity": 31,
              "position": 10,
              "duration": 2
            },
            {
              "pitch": 51,
              "velocity": 31,
              "position": 12,
              "duration": 2
            },
            {
              "pitch": 75,
              "velocity": 10,
              "position": 12.010416666666666,
              "duration": 2.9791666666666665
            },
            {
              "pitch": 87,
              "velocity": 10,
              "position": 12.010416666666666,
              "duration": 2.9791666666666665
            },
            {
              "pitch": 74,
              "velocity": 10,
              "position": 15.010416666666666,
              "duration": 0.875
            },
            {
              "pitch": 86,
              "velocity": 10,
              "position": 15.010416666666666,
              "duration": 0.875
            },
            {
              "pitch": 50,
              "velocity": 31,
              "position": 14,
              "duration": 1.8854166666666667
            },
            {
              "pitch": 47,
              "velocity": 31,
              "position": 12,
              "duration": 3.8854166666666665
            },
            {
              "pitch": 53,
              "velocity": 21,
              "position": 6,
              "duration": 9.989583333333334
            }
          ]
        },
        "5": {
          "ctab": {
            "srcChannel": 5,
            "name": "Pno",
            "accType": "PHRASE1",
            "editable": false,
            "mutedNotes": [],
            "mutedChords": [
              "1+2+5",
              "sus4",
              "1+5",
              "1+8",
              "7aug",
              "Maj7aug",
              "7(#9)",
              "7(b13)",
              "7(b9)",
              "7(13)",
              "7#11",
              "7(9)",
              "7b5",
              "7sus4",
              "7th",
              "aug",
              "Maj6(9)",
              "Maj7(9)",
              "Maj(9)",
              "Maj7#11",
              "Maj7",
              "Maj6",
              "Maj"
            ],
            "autoStart": false,
            "sourceChordNote": 0,
            "sourceChordType": "min",
            "ctb2Low": null,
            "ctb2Main": {
              "ntr": "ROOT_TRANSPOSITION",
              "ntt": "BYPASS",
              "bassOn": false,
              "chordRootUpperLimit": 4,
              "noteLowLimit": 0,
              "noteHighLimit": 127,
              "rtr": "PITCH_SHIFT"
            },
            "ctb2High": null
          },
          "notes": [
            {
              "pitch": 79,
              "velocity": 98,
              "position": 2.4166666666666665,
              "duration": 0.3125
            },
            {
              "pitch": 81,
              "velocity": 48,
              "position": 2.8333333333333335,
              "duration": 0.25
            },
            {
              "pitch": 83,
              "velocity": 55,
              "position": 3.1354166666666665,
              "duration": 0.13541666666666666
            },
            {
              "pitch": 84,
              "velocity": 83,
              "position": 3.4270833333333335,
              "duration": 0.25
            },
            {
              "pitch": 86,
              "velocity": 76,
              "position": 3.6770833333333335,
              "duration": 0.21875
            },
            {
              "pitch": 87,
              "velocity": 79,
              "position": 3.875,
              "duration": 0.20833333333333334
            },
            {
              "pitch": 89,
              "velocity": 76,
              "position": 4.114583333333333,
              "duration": 0.17708333333333334
            },
            {
              "pitch": 91,
              "velocity": 83,
              "position": 4.395833333333333,
              "duration": 0.21875
            },
            {
              "pitch": 91,
              "velocity": 80,
              "position": 4.739583333333333,
              "duration": 0.21875
            },
            {
              "pitch": 89,
              "velocity": 69,
              "position": 5.041666666666667,
              "duration": 0.20833333333333334
            },
            {
              "pitch": 89,
              "velocity": 66,
              "position": 5.34375,
              "duration": 0.1875
            },
            {
              "pitch": 86,
              "velocity": 66,
              "position": 5.645833333333333,
              "duration": 0.11458333333333333
            },
            {
              "pitch": 87,
              "velocity": 61,
              "position": 5.708333333333333,
              "duration": 0.21875
            },
            {
              "pitch": 87,
              "velocity": 61,
              "position": 5.989583333333333,
              "duration": 0.28125
            },
            {
              "pitch": 86,
              "velocity": 61,
              "position": 6.3125,
              "duration": 1.5416666666666667
            },
            {
              "pitch": 80,
              "velocity": 65,
              "position": 8.8125,
              "duration": 0.17708333333333334
            },
            {
              "pitch": 85,
              "velocity": 73,
              "position": 9.125,
              "duration": 0.16666666666666666
            },
            {
              "pitch": 89,
              "velocity": 86,
              "position": 9.385416666666666,
              "duration": 0.23958333333333334
            },
            {
              "pitch": 87,
              "velocity": 80,
              "position": 9.65625,
              "duration": 0.1875
            },
            {
              "pitch": 85,
              "velocity": 74,
              "position": 9.90625,
              "duration": 0.15625
            },
            {
              "pitch": 86,
              "velocity": 67,
              "position": 10.197916666666666,
              "duration": 0.1875
            },
            {
              "pitch": 82,
              "velocity": 69,
              "position": 10.416666666666666,
              "duration": 0.16666666666666666
            },
            {
              "pitch": 77,
              "velocity": 64,
              "position": 10.666666666666666,
              "duration": 0.19791666666666666
            },
            {
              "pitch": 75,
              "velocity": 71,
              "position": 10.916666666666666,
              "duration": 0.16666666666666666
            },
            {
              "pitch": 74,
              "velocity": 65,
              "position": 11.166666666666666,
              "duration": 0.19791666666666666
            },
            {
              "pitch": 70,
              "velocity": 65,
              "position": 11.416666666666666,
              "duration": 0.15625
            },
            {
              "pitch": 65,
              "velocity": 60,
              "position": 11.677083333333334,
              "duration": 0.23958333333333334
            },
            {
              "pitch": 65,
              "velocity": 56,
              "position": 12.364583333333334,
              "duration": 0.15625
            },
            {
              "pitch": 68,
              "velocity": 70,
              "position": 12.583333333333334,
              "duration": 0.15625
            },
            {
              "pitch": 71,
              "velocity": 90,
              "position": 12.822916666666666,
              "duration": 0.14583333333333334
            },
            {
              "pitch": 75,
              "velocity": 79,
              "position": 13.114583333333334,
              "duration": 0.2708333333333333
            },
            {
              "pitch": 71,
              "velocity": 54,
              "position": 13.53125,
              "duration": 0.23958333333333334
            },
            {
              "pitch": 75,
              "velocity": 81,
              "position": 13.833333333333334,
              "duration": 0.16666666666666666
            },
            {
              "pitch": 79,
              "velocity": 63,
              "position": 14.15625,
              "duration": 0.8333333333333334
            },
            {
              "pitch": 79,
              "velocity": 66,
              "position": 15,
              "duration": 0.875
            },
            {
              "pitch": 91,
              "velocity": 66,
              "position": 15.114583333333334,
              "duration": 0.875
            }
          ]
        },
        "9": {
          "ctab": {
            "srcChannel": 9,
            "name": "Drums",
            "accType": "RHYTHM",
            "editable": false,
            "mutedNotes": [],
            "mutedChords": [],
            "autoStart": true,
            "sourceChordNote": 0,
            "sourceChordType": "Maj7",
            "ctb2Low": null,
            "ctb2Main": {
              "ntr": "ROOT_FIXED",
              "ntt": "BYPASS",
              "bassOn": false,
              "chordRootUpperLimit": 6,
              "noteLowLimit": 0,
              "noteHighLimit": 127,
              "rtr": "PITCH_SHIFT"
            },
            "ctb2High": null
          },
          "notes": [
            {
              "pitch": 25,
              "velocity": 60,
              "position": 0,
              "duration": 0.010416666666666666
            },
            {
              "pitch": 35,
              "velocity": 40,
              "position": 0,
              "duration": 0.010416666666666666
            },
            {
              "pitch": 26,
              "velocity": 38,
              "position": 0,
              "duration": 0.9895833333333334
            },
            {
              "pitch": 25,
              "velocity": 60,
              "position": 1,
              "duration": 0.010416666666666666
            },
            {
              "pitch": 44,
              "velocity": 48,
              "position": 1,
              "duration": 0.010416666666666666
            },
            {
              "pitch": 28,
              "velocity": 34,
              "position": 1,
              "duration": 0.9895833333333334
            },
            {
              "pitch": 25,
              "velocity": 60,
              "position": 2,
              "duration": 0.010416666666666666
            },
            {
              "pitch": 35,
              "velocity": 40,
              "position": 2,
              "duration": 0.010416666666666666
            },
            {
              "pitch": 26,
              "velocity": 38,
              "position": 2,
              "duration": 0.9895833333333334
            },
            {
              "pitch": 25,
              "velocity": 60,
              "position": 3,
              "duration": 0.010416666666666666
            },
            {
              "pitch": 44,
              "velocity": 48,
              "position": 3,
              "duration": 0.010416666666666666
            },
            {
              "pitch": 25,
              "velocity": 30,
              "position": 3.6666666666666665,
              "duration": 0.010416666666666666
            },
            {
              "pitch": 28,
              "velocity": 34,
              "position": 3,
              "duration": 0.9895833333333334
            },
            {
              "pitch": 25,
              "velocity": 60,
              "position": 4,
              "duration": 0.010416666666666666
            },
            {
              "pitch": 35,
              "velocity": 40,
              "position": 4,
              "duration": 0.010416666666666666
            },
            {
              "pitch": 26,
              "velocity": 38,
              "position": 4,
              "duration": 0.9895833333333334
            },
            {
              "pitch": 25,
              "velocity": 60,
              "position": 5,
              "duration": 0.010416666666666666
            },
            {
              "pitch": 44,
              "velocity": 48,
              "position": 5,
              "duration": 0.010416666666666666
            },
            {
              "pitch": 25,
              "velocity": 30,
              "position": 5.666666666666667,
              "duration": 0.010416666666666666
            },
            {
              "pitch": 28,
              "velocity": 34,
              "position": 5,
              "duration": 0.9895833333333334
            },
            {
              "pitch": 25,
              "velocity": 60,
              "position": 6,
              "duration": 0.010416666666666666
            },
            {
              "pitch": 35,
              "velocity": 40,
              "position": 6,
              "duration": 0.010416666666666666
            },
            {
              "pitch": 26,
              "velocity": 38,
              "position": 6,
              "duration": 0.9895833333333334
            },
            {
              "pitch": 25,
              "velocity": 60,
              "position": 7,
              "duration": 0.010416666666666666
            },
            {
              "pitch": 44,
              "velocity": 48,
              "position": 7,
              "duration": 0.010416666666666666
            },
            {
              "pitch": 25,
              "velocity": 30,
              "position": 7.666666666666667,
              "duration": 0.010416666666666666
            },
            {
              "pitch": 28,
              "velocity": 34,
              "position": 7,
              "duration": 0.9895833333333334
            },
            {
              "pitch": 25,
              "velocity": 60,
              "position": 8,
              "duration": 0.010416666666666666
            },
            {
              "pitch": 35,
              "velocity": 40,
              "position": 8,
              "duration": 0.010416666666666666
            },
            {
              "pitch": 26,
              "velocity": 38,
              "position": 8,
              "duration": 0.9895833333333334
            },
            {
              "pitch": 25,
              "velocity": 60,
              "position": 9,
              "duration": 0.010416666666666666
            },
            {
              "pitch": 44,
              "velocity": 48,
              "position": 9,
              "duration": 0.010416666666666666
            },
            {
              "pitch": 28,
              "velocity": 34,
              "position": 9,
              "duration": 0.9895833333333334
            },
            {
              "pitch": 25,
              "velocity": 60,
              "position": 10,
              "duration": 0.010416666666666666
            },
            {
              "pitch": 35,
              "velocity": 40,
              "position": 10,
              "duration": 0.010416666666666666
            },
            {
              "pitch": 26,
              "velocity": 38,
              "position": 10,
              "duration": 0.9895833333333334
            },
            {
              "pitch": 25,
              "velocity": 60,
              "position": 11,
              "duration": 0.010416666666666666
            },
            {
              "pitch": 44,
              "velocity": 48,
              "position": 11,
              "duration": 0.010416666666666666
            },
            {
              "pitch": 25,
              "velocity": 30,
              "position": 11.666666666666666,
              "duration": 0.010416666666666666
            },
            {
              "pitch": 28,
              "velocity": 34,
              "position": 11,
              "duration": 0.9895833333333334
            },
            {
              "pitch": 25,
              "velocity": 60,
              "position": 12,
              "duration": 0.010416666666666666
            },
            {
              "pitch": 35,
              "velocity": 40,
              "position": 12,
              "duration": 0.010416666666666666
            },
            {
              "pitch": 26,
              "velocity": 38,
              "position": 12,
              "duration": 0.9895833333333334
            },
            {
              "pitch": 25,
              "velocity": 60,
              "position": 13,
              "duration": 0.010416666666666666
            },
            {
              "pitch": 44,
              "velocity": 48,
              "position": 13,
              "duration": 0.010416666666666666
            },
            {
              "pitch": 25,
              "velocity": 30,
              "position": 13.666666666666666,
              "duration": 0.010416666666666666
            },
            {
              "pitch": 28,
              "velocity": 34,
              "position": 13,
              "duration": 0.9895833333333334
            },
            {
              "pitch": 25,
              "velocity": 60,
              "position": 14,
              "duration": 0.010416666666666666
            },
            {
              "pitch": 35,
              "velocity": 40,
              "position": 14,
              "duration": 0.010416666666666666
            },
            {
              "pitch": 26,
              "velocity": 38,
              "position": 14,
              "duration": 0.9895833333333334
            },
            {
              "pitch": 25,
              "velocity": 60,
              "position": 15,
              "duration": 0.010416666666666666
            },
            {
              "pitch": 44,
              "velocity": 48,
              "position": 15,
              "duration": 0.010416666666666666
            },
            {
              "pitch": 25,
              "velocity": 30,
              "position": 15.666666666666666,
              "duration": 0.010416666666666666
            },
            {
              "pitch": 28,
              "velocity": 34,
              "position": 15,
              "duration": 0.9895833333333334
            }
          ]
        },
        "10": {
          "ctab": {
            "srcChannel": 10,
            "name": "Bass",
            "accType": "BASS",
            "editable": false,
            "mutedNotes": [],
            "mutedChords": [
              "dim7",
              "dim",
              "minMaj7(9)",
              "minMaj7",
              "min7(11)",
              "min7(9)",
              "min(9)",
              "m7b5",
              "min7",
              "min6",
              "min"
            ],
            "autoStart": false,
            "sourceChordNote": 0,
            "sourceChordType": "Maj",
            "ctb2Low": null,
            "ctb2Main": {
              "ntr": "ROOT_TRANSPOSITION",
              "ntt": "BYPASS",
              "bassOn": false,
              "chordRootUpperLimit": 8,
              "noteLowLimit": 28,
              "noteHighLimit": 127,
              "rtr": "PITCH_SHIFT"
            },
            "ctb2High": null
          },
          "notes": [
            {
              "pitch": 24,
              "velocity": 58,
              "position": 0,
              "duration": 1.5625
            },
            {
              "pitch": 24,
              "velocity": 110,
              "position": 1.6666666666666667,
              "duration": 0.11458333333333333
            },
            {
              "pitch": 33,
              "velocity": 58,
              "position": 2,
              "duration": 1.9895833333333333
            },
            {
              "pitch": 26,
              "velocity": 58,
              "position": 4,
              "duration": 1.5625
            },
            {
              "pitch": 26,
              "velocity": 110,
              "position": 5.666666666666667,
              "duration": 0.11458333333333333
            },
            {
              "pitch": 31,
              "velocity": 58,
              "position": 6,
              "duration": 0.9895833333333334
            },
            {
              "pitch": 29,
              "velocity": 58,
              "position": 7,
              "duration": 0.9895833333333334
            },
            {
              "pitch": 28,
              "velocity": 58,
              "position": 8,
              "duration": 1.5625
            },
            {
              "pitch": 28,
              "velocity": 110,
              "position": 9.666666666666666,
              "duration": 0.11458333333333333
            },
            {
              "pitch": 33,
              "velocity": 58,
              "position": 10,
              "duration": 1.9895833333333333
            },
            {
              "pitch": 26,
              "velocity": 58,
              "position": 12,
              "duration": 1.5625
            },
            {
              "pitch": 26,
              "velocity": 110,
              "position": 13.666666666666666,
              "duration": 0.11458333333333333
            },
            {
              "pitch": 31,
              "velocity": 58,
              "position": 14,
              "duration": 1.9895833333333333
            }
          ]
        },
        "12": {
          "ctab": {
            "srcChannel": 12,
            "name": "EP",
            "accType": "CHORD2",
            "editable": false,
            "mutedNotes": [],
            "mutedChords": [
              "dim7",
              "dim",
              "minMaj7(9)",
              "minMaj7",
              "min7(11)",
              "min7(9)",
              "min(9)",
              "m7b5",
              "min7",
              "min6",
              "min"
            ],
            "autoStart": false,
            "sourceChordNote": 0,
            "sourceChordType": "Maj",
            "ctb2Low": null,
            "ctb2Main": {
              "ntr": "ROOT_TRANSPOSITION",
              "ntt": "BYPASS",
              "bassOn": false,
              "chordRootUpperLimit": 8,
              "noteLowLimit": 56,
              "noteHighLimit": 67,
              "rtr": "PITCH_SHIFT"
            },
            "ctb2High": null
          },
          "notes": [
            {
              "pitch": 59,
              "velocity": 57,
              "position": 0,
              "duration": 1.9895833333333333
            },
            {
              "pitch": 60,
              "velocity": 45,
              "position": 2,
              "duration": 1.9895833333333333
            },
            {
              "pitch": 64,
              "velocity": 57,
              "position": 0,
              "duration": 3.9895833333333335
            },
            {
              "pitch": 67,
              "velocity": 57,
              "position": 0,
              "duration": 3.9895833333333335
            },
            {
              "pitch": 57,
              "velocity": 57,
              "position": 4,
              "duration": 1.9895833333333333
            },
            {
              "pitch": 60,
              "velocity": 57,
              "position": 4,
              "duration": 1.9895833333333333
            },
            {
              "pitch": 65,
              "velocity": 57,
              "position": 4,
              "duration": 1.9895833333333333
            },
            {
              "pitch": 60,
              "velocity": 45,
              "position": 6,
              "duration": 0.9895833333333334
            },
            {
              "pitch": 57,
              "velocity": 45,
              "position": 6,
              "duration": 1.9895833333333333
            },
            {
              "pitch": 59,
              "velocity": 45,
              "position": 7,
              "duration": 0.9895833333333334
            },
            {
              "pitch": 65,
              "velocity": 45,
              "position": 6,
              "duration": 1.9895833333333333
            },
            {
              "pitch": 58,
              "velocity": 57,
              "position": 8,
              "duration": 1.9895833333333333
            },
            {
              "pitch": 62,
              "velocity": 57,
              "position": 8,
              "duration": 1.9895833333333333
            },
            {
              "pitch": 67,
              "velocity": 57,
              "position": 8,
              "duration": 1.9895833333333333
            },
            {
              "pitch": 61,
              "velocity": 57,
              "position": 10,
              "duration": 1.9895833333333333
            },
            {
              "pitch": 65,
              "velocity": 57,
              "position": 10,
              "duration": 1.9895833333333333
            },
            {
              "pitch": 67,
              "velocity": 57,
              "position": 10,
              "duration": 1.9895833333333333
            },
            {
              "pitch": 57,
              "velocity": 57,
              "position": 12,
              "duration": 1.9895833333333333
            },
            {
              "pitch": 60,
              "velocity": 57,
              "position": 12,
              "duration": 1.9895833333333333
            },
            {
              "pitch": 65,
              "velocity": 57,
              "position": 12,
              "duration": 1.9895833333333333
            },
            {
              "pitch": 60,
              "velocity": 57,
              "position": 14,
              "duration": 0.9895833333333334
            },
            {
              "pitch": 57,
              "velocity": 57,
              "position": 14,
              "duration": 1.9895833333333333
            },
            {
              "pitch": 59,
              "velocity": 57,
              "position": 15,
              "duration": 0.9895833333333334
            },
            {
              "pitch": 65,
              "velocity": 57,
              "position": 14,
              "duration": 1.9895833333333333
            }
          ]
        },
        "13": {
          "ctab": {
            "srcChannel": 13,
            "name": "Str",
            "accType": "PAD",
            "editable": false,
            "mutedNotes": [],
            "mutedChords": [
              "dim7",
              "dim",
              "minMaj7(9)",
              "minMaj7",
              "min7(11)",
              "min7(9)",
              "min(9)",
              "m7b5",
              "min7",
              "min6",
              "min"
            ],
            "autoStart": false,
            "sourceChordNote": 0,
            "sourceChordType": "Maj",
            "ctb2Low": null,
            "ctb2Main": {
              "ntr": "ROOT_TRANSPOSITION",
              "ntt": "BYPASS",
              "bassOn": false,
              "chordRootUpperLimit": 8,
              "noteLowLimit": 54,
              "noteHighLimit": 79,
              "rtr": "PITCH_SHIFT"
            },
            "ctb2High": null
          },
          "notes": [
            {
              "pitch": 47,
              "velocity": 35,
              "position": 0.010416666666666666,
              "duration": 1.9791666666666667
            },
            {
              "pitch": 48,
              "velocity": 28,
              "position": 2,
              "duration": 4.989583333333333
            },
            {
              "pitch": 45,
              "velocity": 28,
              "position": 2,
              "duration": 5.989583333333333
            },
            {
              "pitch": 47,
              "velocity": 28,
              "position": 7,
              "duration": 0.9895833333333334
            },
            {
              "pitch": 53,
              "velocity": 28,
              "position": 4,
              "duration": 3.9895833333333335
            },
            {
              "pitch": 46,
              "velocity": 28,
              "position": 8,
              "duration": 1.9895833333333333
            },
            {
              "pitch": 50,
              "velocity": 28,
              "position": 8,
              "duration": 1.9895833333333333
            },
            {
              "pitch": 49,
              "velocity": 28,
              "position": 10,
              "duration": 1.8854166666666667
            },
            {
              "pitch": 43,
              "velocity": 28,
              "position": 8,
              "duration": 3.9895833333333335
            },
            {
              "pitch": 48,
              "velocity": 28,
              "position": 12,
              "duration": 2.9895833333333335
            },
            {
              "pitch": 45,
              "velocity": 28,
              "position": 12,
              "duration": 3.8854166666666665
            },
            {
              "pitch": 47,
              "velocity": 28,
              "position": 15,
              "duration": 0.8854166666666666
            },
            {
              "pitch": 53,
              "velocity": 28,
              "position": 10,
              "duration": 5.885416666666667
            },
            {
              "pitch": 79,
              "velocity": 18,
              "position": 0.010416666666666666,
              "duration": 15.979166666666666
            },
            {
              "pitch": 91,
              "velocity": 18,
              "position": 0.010416666666666666,
              "duration": 15.979166666666666
            }
          ]
        },
        "14": {
          "ctab": {
            "srcChannel": 14,
            "name": "Pno",
            "accType": "PHRASE1",
            "editable": false,
            "mutedNotes": [],
            "mutedChords": [
              "dim7",
              "dim",
              "minMaj7(9)",
              "minMaj7",
              "min7(11)",
              "min7(9)",
              "min(9)",
              "m7b5",
              "min7",
              "min6",
              "min"
            ],
            "autoStart": false,
            "sourceChordNote": 0,
            "sourceChordType": "Maj",
            "ctb2Low": null,
            "ctb2Main": {
              "ntr": "ROOT_TRANSPOSITION",
              "ntt": "BYPASS",
              "bassOn": false,
              "chordRootUpperLimit": 4,
              "noteLowLimit": 0,
              "noteHighLimit": 127,
              "rtr": "PITCH_SHIFT"
            },
            "ctb2High": null
          },
          "notes": [
            {
              "pitch": 79,
              "velocity": 72,
              "position": 2.4166666666666665,
              "duration": 0.3125
            },
            {
              "pitch": 81,
              "velocity": 48,
              "position": 2.8333333333333335,
              "duration": 0.25
            },
            {
              "pitch": 83,
              "velocity": 53,
              "position": 3.1354166666666665,
              "duration": 0.13541666666666666
            },
            {
              "pitch": 84,
              "velocity": 62,
              "position": 3.4270833333333335,
              "duration": 0.25
            },
            {
              "pitch": 86,
              "velocity": 62,
              "position": 3.6770833333333335,
              "duration": 0.21875
            },
            {
              "pitch": 88,
              "velocity": 63,
              "position": 3.875,
              "duration": 0.20833333333333334
            },
            {
              "pitch": 89,
              "velocity": 61,
              "position": 4.114583333333333,
              "duration": 0.17708333333333334
            },
            {
              "pitch": 91,
              "velocity": 69,
              "position": 4.395833333333333,
              "duration": 0.21875
            },
            {
              "pitch": 91,
              "velocity": 64,
              "position": 4.739583333333333,
              "duration": 0.21875
            },
            {
              "pitch": 89,
              "velocity": 58,
              "position": 5.041666666666667,
              "duration": 0.20833333333333334
            },
            {
              "pitch": 89,
              "velocity": 55,
              "position": 5.34375,
              "duration": 0.1875
            },
            {
              "pitch": 86,
              "velocity": 53,
              "position": 5.59375,
              "duration": 0.10416666666666667
            },
            {
              "pitch": 87,
              "velocity": 55,
              "position": 5.645833333333333,
              "duration": 0.11458333333333333
            },
            {
              "pitch": 88,
              "velocity": 64,
              "position": 5.708333333333333,
              "duration": 0.21875
            },
            {
              "pitch": 88,
              "velocity": 63,
              "position": 5.989583333333333,
              "duration": 0.28125
            },
            {
              "pitch": 86,
              "velocity": 55,
              "position": 6.302083333333333,
              "duration": 1.59375
            },
            {
              "pitch": 76,
              "velocity": 54,
              "position": 8.8125,
              "duration": 0.17708333333333334
            },
            {
              "pitch": 82,
              "velocity": 58,
              "position": 9.125,
              "duration": 0.16666666666666666
            },
            {
              "pitch": 86,
              "velocity": 72,
              "position": 9.385416666666666,
              "duration": 0.23958333333333334
            },
            {
              "pitch": 84,
              "velocity": 60,
              "position": 9.65625,
              "duration": 0.1875
            },
            {
              "pitch": 82,
              "velocity": 59,
              "position": 9.90625,
              "duration": 0.15625
            },
            {
              "pitch": 81,
              "velocity": 48,
              "position": 10.197916666666666,
              "duration": 0.1875
            },
            {
              "pitch": 79,
              "velocity": 55,
              "position": 10.416666666666666,
              "duration": 0.16666666666666666
            },
            {
              "pitch": 77,
              "velocity": 51,
              "position": 10.666666666666666,
              "duration": 0.19791666666666666
            },
            {
              "pitch": 73,
              "velocity": 56,
              "position": 10.916666666666666,
              "duration": 0.16666666666666666
            },
            {
              "pitch": 69,
              "velocity": 48,
              "position": 11.166666666666666,
              "duration": 0.19791666666666666
            },
            {
              "pitch": 65,
              "velocity": 48,
              "position": 11.416666666666666,
              "duration": 0.15625
            },
            {
              "pitch": 61,
              "velocity": 44,
              "position": 11.677083333333334,
              "duration": 0.23958333333333334
            },
            {
              "pitch": 65,
              "velocity": 40,
              "position": 12.364583333333334,
              "duration": 0.15625
            },
            {
              "pitch": 69,
              "velocity": 56,
              "position": 12.583333333333334,
              "duration": 0.15625
            },
            {
              "pitch": 72,
              "velocity": 64,
              "position": 12.822916666666666,
              "duration": 0.14583333333333334
            },
            {
              "pitch": 76,
              "velocity": 59,
              "position": 13.083333333333334,
              "duration": 0.2708333333333333
            },
            {
              "pitch": 72,
              "velocity": 40,
              "position": 13.5,
              "duration": 0.23958333333333334
            },
            {
              "pitch": 76,
              "velocity": 54,
              "position": 13.802083333333334,
              "duration": 0.16666666666666666
            },
            {
              "pitch": 79,
              "velocity": 56,
              "position": 14.114583333333334,
              "duration": 0.9270833333333334
            },
            {
              "pitch": 79,
              "velocity": 54,
              "position": 15.052083333333334,
              "duration": 0.875
            },
            {
              "pitch": 91,
              "velocity": 54,
              "position": 15.114583333333334,
              "duration": 0.875
            }
          ]
        }
      }
    },
    "Intro_C": {
      "type": "Intro_C",
      "sizeInBeats": 16,
      "channels": {
        "1": {
          "ctab": {
            "srcChannel": 1,
            "name": "Bass",
            "accType": "BASS",
            "editable": false,
            "mutedNotes": [],
            "mutedChords": [
              "1+2+5",
              "sus4",
              "1+5",
              "1+8",
              "7aug",
              "Maj7aug",
              "7(#9)",
              "7(b13)",
              "7(b9)",
              "7(13)",
              "7#11",
              "7(9)",
              "7b5",
              "7sus4",
              "7th",
              "aug",
              "Maj6(9)",
              "Maj7(9)",
              "Maj(9)",
              "Maj7#11",
              "Maj7",
              "Maj6",
              "Maj"
            ],
            "autoStart": false,
            "sourceChordNote": 0,
            "sourceChordType": "min",
            "ctb2Low": null,
            "ctb2Main": {
              "ntr": "ROOT_TRANSPOSITION",
              "ntt": "BYPASS",
              "bassOn": false,
              "chordRootUpperLimit": 8,
              "noteLowLimit": 28,
              "noteHighLimit": 127,
              "rtr": "PITCH_SHIFT"
            },
            "ctb2High": null
          },
          "notes": [
            {
              "pitch": 32,
              "velocity": 58,
              "position": 8,
              "duration": 2.9895833333333335
            },
            {
              "pitch": 32,
              "velocity": 58,
              "position": 11,
              "duration": 0.9895833333333334
            },
            {
              "pitch": 31,
              "velocity": 58,
              "position": 12,
              "duration": 1.9895833333333333
            },
            {
              "pitch": 31,
              "velocity": 58,
              "position": 14,
              "duration": 1.9895833333333333
            }
          ]
        },
        "2": {
          "ctab": {
            "srcChannel": 2,
            "name": "Gt",
            "accType": "CHORD1",
            "editable": false,
            "mutedNotes": [],
            "mutedChords": [
              "1+2+5",
              "sus4",
              "1+5",
              "1+8",
              "7aug",
              "Maj7aug",
              "7(#9)",
              "7(b13)",
              "7(b9)",
              "7(13)",
              "7#11",
              "7(9)",
              "7b5",
              "7sus4",
              "7th",
              "aug",
              "Maj6(9)",
              "Maj7(9)",
              "Maj(9)",
              "Maj7#11",
              "Maj7",
              "Maj6",
              "Maj"
            ],
            "autoStart": false,
            "sourceChordNote": 0,
            "sourceChordType": "min",
            "ctb2Low": null,
            "ctb2Main": {
              "ntr": "ROOT_TRANSPOSITION",
              "ntt": "BYPASS",
              "bassOn": false,
              "chordRootUpperLimit": 8,
              "noteLowLimit": 54,
              "noteHighLimit": 65,
              "rtr": "PITCH_SHIFT"
            },
            "ctb2High": null
          },
          "notes": []
        },
        "3": {
          "ctab": {
            "srcChannel": 3,
            "name": "EP",
            "accType": "CHORD2",
            "editable": false,
            "mutedNotes": [],
            "mutedChords": [
              "1+2+5",
              "sus4",
              "1+5",
              "1+8",
              "7aug",
              "Maj7aug",
              "7(#9)",
              "7(b13)",
              "7(b9)",
              "7(13)",
              "7#11",
              "7(9)",
              "7b5",
              "7sus4",
              "7th",
              "aug",
              "Maj6(9)",
              "Maj7(9)",
              "Maj(9)",
              "Maj7#11",
              "Maj7",
              "Maj6",
              "Maj"
            ],
            "autoStart": false,
            "sourceChordNote": 0,
            "sourceChordType": "min",
            "ctb2Low": null,
            "ctb2Main": {
              "ntr": "ROOT_TRANSPOSITION",
              "ntt": "BYPASS",
              "bassOn": false,
              "chordRootUpperLimit": 8,
              "noteLowLimit": 54,
              "noteHighLimit": 65,
              "rtr": "PITCH_SHIFT"
            },
            "ctb2High": null
          },
          "notes": []
        },
        "4": {
          "ctab": {
            "srcChannel": 4,
            "name": "Str",
            "accType": "PAD",
            "editable": false,
            "mutedNotes": [],
            "mutedChords": [
              "1+2+5",
              "sus4",
              "1+5",
              "1+8",
              "7aug",
              "Maj7aug",
              "7(#9)",
              "7(b13)",
              "7(b9)",
              "7(13)",
              "7#11",
              "7(9)",
              "7b5",
              "7sus4",
              "7th",
              "aug",
              "Maj6(9)",
              "Maj7(9)",
              "Maj(9)",
              "Maj7#11",
              "Maj7",
              "Maj6",
              "Maj"
            ],
            "autoStart": false,
            "sourceChordNote": 0,
            "sourceChordType": "min",
            "ctb2Low": null,
            "ctb2Main": {
              "ntr": "ROOT_TRANSPOSITION",
              "ntt": "BYPASS",
              "bassOn": false,
              "chordRootUpperLimit": 11,
              "noteLowLimit": 0,
              "noteHighLimit": 127,
              "rtr": "PITCH_SHIFT"
            },
            "ctb2High": null
          },
          "notes": [
            {
              "pitch": 74,
              "velocity": 80,
              "position": 0.375,
              "duration": 0.4895833333333333
            },
            {
              "pitch": 72,
              "velocity": 80,
              "position": 0.875,
              "duration": 0.4895833333333333
            },
            {
              "pitch": 62,
              "velocity": 80,
              "position": 2.375,
              "duration": 0.4895833333333333
            },
            {
              "pitch": 75,
              "velocity": 81,
              "position": 0.010416666666666666,
              "duration": 3.8541666666666665
            },
            {
              "pitch": 60,
              "velocity": 64,
              "position": 2.875,
              "duration": 1
            },
            {
              "pitch": 55,
              "velocity": 80,
              "position": 3.375,
              "duration": 0.5
            },
            {
              "pitch": 75,
              "velocity": 80,
              "position": 3.875,
              "duration": 0.6145833333333334
            },
            {
              "pitch": 74,
              "velocity": 89,
              "position": 4.375,
              "duration": 0.6145833333333334
            },
            {
              "pitch": 72,
              "velocity": 98,
              "position": 4.875,
              "duration": 0.6145833333333334
            },
            {
              "pitch": 48,
              "velocity": 64,
              "position": 3.875,
              "duration": 1.9895833333333333
            },
            {
              "pitch": 63,
              "velocity": 80,
              "position": 1.875,
              "duration": 3.9895833333333335
            },
            {
              "pitch": 67,
              "velocity": 64,
              "position": 1.375,
              "duration": 4.5
            },
            {
              "pitch": 58,
              "velocity": 64,
              "position": 3.875,
              "duration": 2
            },
            {
              "pitch": 70,
              "velocity": 107,
              "position": 5.375,
              "duration": 0.6145833333333334
            },
            {
              "pitch": 69,
              "velocity": 116,
              "position": 5.875,
              "duration": 1.1145833333333333
            },
            {
              "pitch": 41,
              "velocity": 46,
              "position": 5.875,
              "duration": 1.9895833333333333
            },
            {
              "pitch": 55,
              "velocity": 46,
              "position": 5.875,
              "duration": 1.9895833333333333
            },
            {
              "pitch": 62,
              "velocity": 46,
              "position": 5.875,
              "duration": 1.9895833333333333
            },
            {
              "pitch": 77,
              "velocity": 116,
              "position": 6.875,
              "duration": 1.1145833333333333
            },
            {
              "pitch": 66,
              "velocity": 116,
              "position": 7.875,
              "duration": 0.6145833333333334
            },
            {
              "pitch": 65,
              "velocity": 116,
              "position": 8.375,
              "duration": 1.1145833333333333
            },
            {
              "pitch": 61,
              "velocity": 51,
              "position": 7.875,
              "duration": 1.9895833333333333
            },
            {
              "pitch": 66,
              "velocity": 116,
              "position": 9.375,
              "duration": 0.6145833333333334
            },
            {
              "pitch": 68,
              "velocity": 57,
              "position": 7.875,
              "duration": 2.9895833333333335
            },
            {
              "pitch": 44,
              "velocity": 40,
              "position": 7.875,
              "duration": 3.9895833333333335
            },
            {
              "pitch": 60,
              "velocity": 51,
              "position": 9.875,
              "duration": 1.9895833333333333
            },
            {
              "pitch": 54,
              "velocity": 40,
              "position": 7.875,
              "duration": 3.9895833333333335
            },
            {
              "pitch": 75,
              "velocity": 57,
              "position": 10.875,
              "duration": 0.9895833333333334
            },
            {
              "pitch": 65,
              "velocity": 116,
              "position": 9.875,
              "duration": 2.1145833333333335
            },
            {
              "pitch": 63,
              "velocity": 116,
              "position": 11.875,
              "duration": 0.6145833333333334
            },
            {
              "pitch": 62,
              "velocity": 116,
              "position": 12.375,
              "duration": 1.1145833333333333
            },
            {
              "pitch": 63,
              "velocity": 116,
              "position": 13.375,
              "duration": 0.6145833333333334
            },
            {
              "pitch": 67,
              "velocity": 57,
              "position": 11.875,
              "duration": 3.9895833333333335
            },
            {
              "pitch": 43,
              "velocity": 40,
              "position": 11.875,
              "duration": 4.010416666666667
            },
            {
              "pitch": 53,
              "velocity": 40,
              "position": 11.875,
              "duration": 4.010416666666667
            },
            {
              "pitch": 59,
              "velocity": 51,
              "position": 11.875,
              "duration": 4.010416666666667
            },
            {
              "pitch": 62,
              "velocity": 116,
              "position": 13.875,
              "duration": 2.0104166666666665
            }
          ]
        },
        "5": {
          "ctab": {
            "srcChannel": 5,
            "name": "Pno",
            "accType": "PHRASE1",
            "editable": false,
            "mutedNotes": [],
            "mutedChords": [
              "1+2+5",
              "sus4",
              "1+5",
              "1+8",
              "7aug",
              "Maj7aug",
              "7(#9)",
              "7(b13)",
              "7(b9)",
              "7(13)",
              "7#11",
              "7(9)",
              "7b5",
              "7sus4",
              "7th",
              "aug",
              "Maj6(9)",
              "Maj7(9)",
              "Maj(9)",
              "Maj7#11",
              "Maj7",
              "Maj6",
              "Maj"
            ],
            "autoStart": false,
            "sourceChordNote": 0,
            "sourceChordType": "min",
            "ctb2Low": null,
            "ctb2Main": {
              "ntr": "ROOT_TRANSPOSITION",
              "ntt": "BYPASS",
              "bassOn": false,
              "chordRootUpperLimit": 6,
              "noteLowLimit": 0,
              "noteHighLimit": 127,
              "rtr": "PITCH_SHIFT"
            },
            "ctb2High": null
          },
          "notes": [
            {
              "pitch": 55,
              "velocity": 52,
              "position": 6.572916666666667,
              "duration": 0.08333333333333333
            },
            {
              "pitch": 57,
              "velocity": 49,
              "position": 6.666666666666667,
              "duration": 0.08333333333333333
            },
            {
              "pitch": 62,
              "velocity": 47,
              "position": 6.75,
              "duration": 0.09375
            },
            {
              "pitch": 63,
              "velocity": 43,
              "position": 6.84375,
              "duration": 0.08333333333333333
            },
            {
              "pitch": 67,
              "velocity": 41,
              "position": 6.9375,
              "duration": 0.08333333333333333
            },
            {
              "pitch": 69,
              "velocity": 41,
              "position": 7.020833333333333,
              "duration": 0.09375
            },
            {
              "pitch": 74,
              "velocity": 41,
              "position": 7.114583333333333,
              "duration": 0.08333333333333333
            },
            {
              "pitch": 75,
              "velocity": 43,
              "position": 7.208333333333333,
              "duration": 0.08333333333333333
            },
            {
              "pitch": 79,
              "velocity": 44,
              "position": 7.291666666666667,
              "duration": 0.09375
            },
            {
              "pitch": 81,
              "velocity": 47,
              "position": 7.385416666666667,
              "duration": 0.08333333333333333
            },
            {
              "pitch": 86,
              "velocity": 49,
              "position": 7.479166666666667,
              "duration": 0.08333333333333333
            },
            {
              "pitch": 87,
              "velocity": 52,
              "position": 7.5625,
              "duration": 0.09375
            },
            {
              "pitch": 91,
              "velocity": 53,
              "position": 7.65625,
              "duration": 0.08333333333333333
            },
            {
              "pitch": 93,
              "velocity": 57,
              "position": 7.75,
              "duration": 0.08333333333333333
            },
            {
              "pitch": 98,
              "velocity": 60,
              "position": 7.833333333333333,
              "duration": 0.08333333333333333
            },
            {
              "pitch": 99,
              "velocity": 63,
              "position": 7.916666666666667,
              "duration": 0.09375
            },
            {
              "pitch": 104,
              "velocity": 66,
              "position": 8,
              "duration": 0.09375
            },
            {
              "pitch": 90,
              "velocity": 88,
              "position": 8.020833333333334,
              "duration": 0.46875
            },
            {
              "pitch": 78,
              "velocity": 84,
              "position": 8,
              "duration": 0.4895833333333333
            },
            {
              "pitch": 77,
              "velocity": 74,
              "position": 8.5,
              "duration": 0.4895833333333333
            },
            {
              "pitch": 89,
              "velocity": 74,
              "position": 8.5,
              "duration": 0.4895833333333333
            },
            {
              "pitch": 77,
              "velocity": 76,
              "position": 9,
              "duration": 0.4895833333333333
            },
            {
              "pitch": 89,
              "velocity": 80,
              "position": 9,
              "duration": 0.4895833333333333
            },
            {
              "pitch": 78,
              "velocity": 80,
              "position": 9.5,
              "duration": 0.4895833333333333
            },
            {
              "pitch": 90,
              "velocity": 80,
              "position": 9.520833333333334,
              "duration": 0.46875
            },
            {
              "pitch": 77,
              "velocity": 75,
              "position": 10,
              "duration": 1.9895833333333333
            },
            {
              "pitch": 89,
              "velocity": 75,
              "position": 10,
              "duration": 1.9895833333333333
            },
            {
              "pitch": 75,
              "velocity": 75,
              "position": 12,
              "duration": 0.4895833333333333
            },
            {
              "pitch": 87,
              "velocity": 75,
              "position": 12.020833333333334,
              "duration": 0.46875
            },
            {
              "pitch": 74,
              "velocity": 74,
              "position": 12.5,
              "duration": 0.4895833333333333
            },
            {
              "pitch": 86,
              "velocity": 74,
              "position": 12.5,
              "duration": 0.4895833333333333
            },
            {
              "pitch": 74,
              "velocity": 74,
              "position": 13,
              "duration": 0.4895833333333333
            },
            {
              "pitch": 86,
              "velocity": 74,
              "position": 13,
              "duration": 0.4895833333333333
            },
            {
              "pitch": 75,
              "velocity": 64,
              "position": 13.5,
              "duration": 0.4895833333333333
            },
            {
              "pitch": 87,
              "velocity": 64,
              "position": 13.520833333333334,
              "duration": 0.46875
            },
            {
              "pitch": 74,
              "velocity": 64,
              "position": 14,
              "duration": 1.9895833333333333
            },
            {
              "pitch": 86,
              "velocity": 64,
              "position": 14,
              "duration": 1.9895833333333333
            }
          ]
        },
        "6": {
          "ctab": {
            "srcChannel": 6,
            "name": "FrHn",
            "accType": "PHRASE2",
            "editable": false,
            "mutedNotes": [],
            "mutedChords": [
              "1+2+5",
              "sus4",
              "1+5",
              "1+8",
              "7aug",
              "Maj7aug",
              "7(#9)",
              "7(b13)",
              "7(b9)",
              "7(13)",
              "7#11",
              "7(9)",
              "7b5",
              "7sus4",
              "7th",
              "aug",
              "Maj6(9)",
              "Maj7(9)",
              "Maj(9)",
              "Maj7#11",
              "Maj7",
              "Maj6",
              "Maj"
            ],
            "autoStart": false,
            "sourceChordNote": 0,
            "sourceChordType": "min",
            "ctb2Low": null,
            "ctb2Main": {
              "ntr": "ROOT_TRANSPOSITION",
              "ntt": "BYPASS",
              "bassOn": false,
              "chordRootUpperLimit": 8,
              "noteLowLimit": 54,
              "noteHighLimit": 65,
              "rtr": "PITCH_SHIFT"
            },
            "ctb2High": null
          },
          "notes": [
            {
              "pitch": 61,
              "velocity": 70,
              "position": 8.010416666666666,
              "duration": 1.9791666666666667
            },
            {
              "pitch": 54,
              "velocity": 56,
              "position": 8.010416666666666,
              "duration": 3.9791666666666665
            },
            {
              "pitch": 58,
              "velocity": 70,
              "position": 8.010416666666666,
              "duration": 3.9791666666666665
            },
            {
              "pitch": 60,
              "velocity": 70,
              "position": 10,
              "duration": 1.9895833333333333
            },
            {
              "pitch": 65,
              "velocity": 70,
              "position": 8.010416666666666,
              "duration": 3.9791666666666665
            },
            {
              "pitch": 63,
              "velocity": 70,
              "position": 12,
              "duration": 1.9895833333333333
            },
            {
              "pitch": 55,
              "velocity": 62,
              "position": 12,
              "duration": 3.9895833333333335
            },
            {
              "pitch": 59,
              "velocity": 70,
              "position": 12,
              "duration": 3.9895833333333335
            },
            {
              "pitch": 62,
              "velocity": 70,
              "position": 14,
              "duration": 1.9895833333333333
            },
            {
              "pitch": 65,
              "velocity": 70,
              "position": 12,
              "duration": 3.9895833333333335
            }
          ]
        },
        "8": {
          "ctab": {
            "srcChannel": 8,
            "name": "Perc",
            "accType": "SUBRHYTHM",
            "editable": false,
            "mutedNotes": [],
            "mutedChords": [],
            "autoStart": true,
            "sourceChordNote": 0,
            "sourceChordType": "Maj7",
            "ctb2Low": null,
            "ctb2Main": {
              "ntr": "ROOT_FIXED",
              "ntt": "BYPASS",
              "bassOn": false,
              "chordRootUpperLimit": 6,
              "noteLowLimit": 0,
              "noteHighLimit": 127,
              "rtr": "PITCH_SHIFT"
            },
            "ctb2High": null
          },
          "notes": [
            {
              "pitch": 49,
              "velocity": 2,
              "position": 4.125,
              "duration": 0.010416666666666666
            },
            {
              "pitch": 49,
              "velocity": 4,
              "position": 4.25,
              "duration": 0.010416666666666666
            },
            {
              "pitch": 49,
              "velocity": 6,
              "position": 4.375,
              "duration": 0.010416666666666666
            },
            {
              "pitch": 49,
              "velocity": 8,
              "position": 4.5,
              "duration": 0.010416666666666666
            },
            {
              "pitch": 49,
              "velocity": 9,
              "position": 4.625,
              "duration": 0.010416666666666666
            },
            {
              "pitch": 49,
              "velocity": 11,
              "position": 4.75,
              "duration": 0.010416666666666666
            },
            {
              "pitch": 49,
              "velocity": 13,
              "position": 4.875,
              "duration": 0.010416666666666666
            },
            {
              "pitch": 49,
              "velocity": 15,
              "position": 5,
              "duration": 0.010416666666666666
            },
            {
              "pitch": 49,
              "velocity": 17,
              "position": 5.125,
              "duration": 0.010416666666666666
            },
            {
              "pitch": 49,
              "velocity": 18,
              "position": 5.25,
              "duration": 0.010416666666666666
            },
            {
              "pitch": 49,
              "velocity": 20,
              "position": 5.375,
              "duration": 0.010416666666666666
            },
            {
              "pitch": 49,
              "velocity": 22,
              "position": 5.5,
              "duration": 0.010416666666666666
            },
            {
              "pitch": 49,
              "velocity": 24,
              "position": 5.625,
              "duration": 0.010416666666666666
            },
            {
              "pitch": 49,
              "velocity": 25,
              "position": 5.75,
              "duration": 0.010416666666666666
            },
            {
              "pitch": 49,
              "velocity": 27,
              "position": 5.875,
              "duration": 0.010416666666666666
            },
            {
              "pitch": 49,
              "velocity": 29,
              "position": 6,
              "duration": 0.010416666666666666
            },
            {
              "pitch": 49,
              "velocity": 31,
              "position": 6.125,
              "duration": 0.010416666666666666
            },
            {
              "pitch": 49,
              "velocity": 33,
              "position": 6.25,
              "duration": 0.010416666666666666
            },
            {
              "pitch": 49,
              "velocity": 34,
              "position": 6.375,
              "duration": 0.010416666666666666
            },
            {
              "pitch": 49,
              "velocity": 36,
              "position": 6.5,
              "duration": 0.010416666666666666
            },
            {
              "pitch": 49,
              "velocity": 38,
              "position": 6.625,
              "duration": 0.010416666666666666
            },
            {
              "pitch": 49,
              "velocity": 40,
              "position": 6.75,
              "duration": 0.010416666666666666
            },
            {
              "pitch": 49,
              "velocity": 41,
              "position": 6.875,
              "duration": 0.010416666666666666
            },
            {
              "pitch": 49,
              "velocity": 43,
              "position": 7,
              "duration": 0.010416666666666666
            },
            {
              "pitch": 49,
              "velocity": 45,
              "position": 7.125,
              "duration": 0.010416666666666666
            },
            {
              "pitch": 49,
              "velocity": 47,
              "position": 7.25,
              "duration": 0.010416666666666666
            },
            {
              "pitch": 49,
              "velocity": 49,
              "position": 7.375,
              "duration": 0.010416666666666666
            },
            {
              "pitch": 49,
              "velocity": 50,
              "position": 7.5,
              "duration": 0.010416666666666666
            },
            {
              "pitch": 49,
              "velocity": 52,
              "position": 7.625,
              "duration": 0.010416666666666666
            },
            {
              "pitch": 49,
              "velocity": 54,
              "position": 7.75,
              "duration": 0.010416666666666666
            },
            {
              "pitch": 49,
              "velocity": 56,
              "position": 7.875,
              "duration": 0.010416666666666666
            },
            {
              "pitch": 49,
              "velocity": 58,
              "position": 8,
              "duration": 0.010416666666666666
            }
          ]
        },
        "9": {
          "ctab": {
            "srcChannel": 9,
            "name": "Drums",
            "accType": "RHYTHM",
            "editable": false,
            "mutedNotes": [],
            "mutedChords": [],
            "autoStart": true,
            "sourceChordNote": 0,
            "sourceChordType": "Maj7",
            "ctb2Low": null,
            "ctb2Main": {
              "ntr": "ROOT_FIXED",
              "ntt": "BYPASS",
              "bassOn": false,
              "chordRootUpperLimit": 6,
              "noteLowLimit": 0,
              "noteHighLimit": 127,
              "rtr": "PITCH_SHIFT"
            },
            "ctb2High": null
          },
          "notes": [
            {
              "pitch": 57,
              "velocity": 20,
              "position": 0,
              "duration": 0.010416666666666666
            },
            {
              "pitch": 49,
              "velocity": 3,
              "position": 0.08333333333333333,
              "duration": 0.010416666666666666
            },
            {
              "pitch": 57,
              "velocity": 7,
              "position": 0.16666666666666666,
              "duration": 0.010416666666666666
            },
            {
              "pitch": 49,
              "velocity": 6,
              "position": 0.25,
              "duration": 0.010416666666666666
            },
            {
              "pitch": 57,
              "velocity": 8,
              "position": 0.3333333333333333,
              "duration": 0.010416666666666666
            },
            {
              "pitch": 49,
              "velocity": 11,
              "position": 0.4166666666666667,
              "duration": 0.010416666666666666
            },
            {
              "pitch": 57,
              "velocity": 9,
              "position": 0.5,
              "duration": 0.010416666666666666
            },
            {
              "pitch": 49,
              "velocity": 11,
              "position": 0.5833333333333334,
              "duration": 0.010416666666666666
            },
            {
              "pitch": 57,
              "velocity": 10,
              "position": 0.6666666666666666,
              "duration": 0.010416666666666666
            },
            {
              "pitch": 49,
              "velocity": 11,
              "position": 0.75,
              "duration": 0.010416666666666666
            },
            {
              "pitch": 57,
              "velocity": 12,
              "position": 0.8333333333333334,
              "duration": 0.010416666666666666
            },
            {
              "pitch": 57,
              "velocity": 14,
              "position": 0.9166666666666666,
              "duration": 0.010416666666666666
            },
            {
              "pitch": 49,
              "velocity": 9,
              "position": 1,
              "duration": 0.010416666666666666
            },
            {
              "pitch": 49,
              "velocity": 9,
              "position": 1.0833333333333333,
              "duration": 0.010416666666666666
            },
            {
              "pitch": 49,
              "velocity": 9,
              "position": 1.1666666666666667,
              "duration": 0.010416666666666666
            },
            {
              "pitch": 49,
              "velocity": 9,
              "position": 1.25,
              "duration": 0.010416666666666666
            },
            {
              "pitch": 49,
              "velocity": 9,
              "position": 1.3333333333333333,
              "duration": 0.010416666666666666
            },
            {
              "pitch": 49,
              "velocity": 9,
              "position": 1.4166666666666667,
              "duration": 0.010416666666666666
            },
            {
              "pitch": 49,
              "velocity": 9,
              "position": 1.5,
              "duration": 0.010416666666666666
            },
            {
              "pitch": 49,
              "velocity": 9,
              "position": 1.5833333333333333,
              "duration": 0.010416666666666666
            },
            {
              "pitch": 49,
              "velocity": 9,
              "position": 1.6666666666666667,
              "duration": 0.010416666666666666
            },
            {
              "pitch": 49,
              "velocity": 9,
              "position": 1.75,
              "duration": 0.010416666666666666
            },
            {
              "pitch": 49,
              "velocity": 14,
              "position": 1.8333333333333333,
              "duration": 0.010416666666666666
            },
            {
              "pitch": 49,
              "velocity": 19,
              "position": 1.9166666666666667,
              "duration": 0.010416666666666666
            },
            {
              "pitch": 49,
              "velocity": 23,
              "position": 2,
              "duration": 0.010416666666666666
            },
            {
              "pitch": 53,
              "velocity": 35,
              "position": 2,
              "duration": 0.010416666666666666
            },
            {
              "pitch": 57,
              "velocity": 6,
              "position": 2.5,
              "duration": 0.010416666666666666
            },
            {
              "pitch": 57,
              "velocity": 6,
              "position": 2.75,
              "duration": 0.010416666666666666
            },
            {
              "pitch": 57,
              "velocity": 6,
              "position": 3,
              "duration": 0.010416666666666666
            },
            {
              "pitch": 57,
              "velocity": 7,
              "position": 3.25,
              "duration": 0.010416666666666666
            },
            {
              "pitch": 49,
              "velocity": 9,
              "position": 3.5,
              "duration": 0.010416666666666666
            },
            {
              "pitch": 57,
              "velocity": 6,
              "position": 3.5,
              "duration": 0.010416666666666666
            },
            {
              "pitch": 49,
              "velocity": 9,
              "position": 3.75,
              "duration": 0.010416666666666666
            },
            {
              "pitch": 57,
              "velocity": 13,
              "position": 3.75,
              "duration": 0.010416666666666666
            },
            {
              "pitch": 49,
              "velocity": 19,
              "position": 4,
              "duration": 0.010416666666666666
            },
            {
              "pitch": 53,
              "velocity": 35,
              "position": 4,
              "duration": 0.010416666666666666
            },
            {
              "pitch": 57,
              "velocity": 20,
              "position": 4,
              "duration": 0.010416666666666666
            },
            {
              "pitch": 25,
              "velocity": 60,
              "position": 8,
              "duration": 0.010416666666666666
            },
            {
              "pitch": 35,
              "velocity": 40,
              "position": 8,
              "duration": 0.010416666666666666
            },
            {
              "pitch": 57,
              "velocity": 21,
              "position": 8,
              "duration": 0.010416666666666666
            },
            {
              "pitch": 26,
              "velocity": 38,
              "position": 8,
              "duration": 0.9895833333333334
            },
            {
              "pitch": 25,
              "velocity": 60,
              "position": 9,
              "duration": 0.010416666666666666
            },
            {
              "pitch": 44,
              "velocity": 48,
              "position": 9,
              "duration": 0.010416666666666666
            },
            {
              "pitch": 57,
              "velocity": 21,
              "position": 9,
              "duration": 0.010416666666666666
            },
            {
              "pitch": 28,
              "velocity": 34,
              "position": 9,
              "duration": 0.9895833333333334
            },
            {
              "pitch": 25,
              "velocity": 60,
              "position": 10,
              "duration": 0.010416666666666666
            },
            {
              "pitch": 35,
              "velocity": 40,
              "position": 10,
              "duration": 0.010416666666666666
            },
            {
              "pitch": 57,
              "velocity": 21,
              "position": 10,
              "duration": 0.010416666666666666
            },
            {
              "pitch": 26,
              "velocity": 38,
              "position": 10,
              "duration": 0.9895833333333334
            },
            {
              "pitch": 25,
              "velocity": 60,
              "position": 11,
              "duration": 0.010416666666666666
            },
            {
              "pitch": 44,
              "velocity": 48,
              "position": 11,
              "duration": 0.010416666666666666
            },
            {
              "pitch": 57,
              "velocity": 21,
              "position": 11,
              "duration": 0.010416666666666666
            },
            {
              "pitch": 25,
              "velocity": 30,
              "position": 11.666666666666666,
              "duration": 0.010416666666666666
            },
            {
              "pitch": 28,
              "velocity": 34,
              "position": 11,
              "duration": 0.9895833333333334
            },
            {
              "pitch": 25,
              "velocity": 60,
              "position": 12,
              "duration": 0.010416666666666666
            },
            {
              "pitch": 35,
              "velocity": 40,
              "position": 12,
              "duration": 0.010416666666666666
            },
            {
              "pitch": 57,
              "velocity": 21,
              "position": 12,
              "duration": 0.010416666666666666
            },
            {
              "pitch": 26,
              "velocity": 38,
              "position": 12,
              "duration": 0.9895833333333334
            },
            {
              "pitch": 25,
              "velocity": 60,
              "position": 13,
              "duration": 0.010416666666666666
            },
            {
              "pitch": 44,
              "velocity": 48,
              "position": 13,
              "duration": 0.010416666666666666
            },
            {
              "pitch": 57,
              "velocity": 21,
              "position": 13,
              "duration": 0.010416666666666666
            },
            {
              "pitch": 25,
              "velocity": 30,
              "position": 13.666666666666666,
              "duration": 0.010416666666666666
            },
            {
              "pitch": 28,
              "velocity": 34,
              "position": 13,
              "duration": 0.9895833333333334
            },
            {
              "pitch": 25,
              "velocity": 60,
              "position": 14,
              "duration": 0.010416666666666666
            },
            {
              "pitch": 35,
              "velocity": 40,
              "position": 14,
              "duration": 0.010416666666666666
            },
            {
              "pitch": 57,
              "velocity": 21,
              "position": 14,
              "duration": 0.010416666666666666
            },
            {
              "pitch": 25,
              "velocity": 30,
              "position": 14.333333333333334,
              "duration": 0.010416666666666666
            },
            {
              "pitch": 25,
              "velocity": 60,
              "position": 14.666666666666666,
              "duration": 0.010416666666666666
            },
            {
              "pitch": 27,
              "velocity": 60,
              "position": 14.666666666666666,
              "duration": 0.010416666666666666
            },
            {
              "pitch": 26,
              "velocity": 38,
              "position": 14,
              "duration": 0.9895833333333334
            },
            {
              "pitch": 25,
              "velocity": 100,
              "position": 15,
              "duration": 0.010416666666666666
            },
            {
              "pitch": 44,
              "velocity": 48,
              "position": 15,
              "duration": 0.010416666666666666
            },
            {
              "pitch": 57,
              "velocity": 21,
              "position": 15,
              "duration": 0.010416666666666666
            },
            {
              "pitch": 27,
              "velocity": 100,
              "position": 15.0625,
              "duration": 0.010416666666666666
            },
            {
              "pitch": 27,
              "velocity": 60,
              "position": 15.333333333333334,
              "duration": 0.010416666666666666
            },
            {
              "pitch": 25,
              "velocity": 30,
              "position": 15.666666666666666,
              "duration": 0.010416666666666666
            },
            {
              "pitch": 35,
              "velocity": 20,
              "position": 15.666666666666666,
              "duration": 0.010416666666666666
            },
            {
              "pitch": 28,
              "velocity": 34,
              "position": 15,
              "duration": 0.9895833333333334
            }
          ]
        },
        "10": {
          "ctab": {
            "srcChannel": 10,
            "name": "Bass",
            "accType": "BASS",
            "editable": false,
            "mutedNotes": [],
            "mutedChords": [
              "dim7",
              "dim",
              "minMaj7(9)",
              "minMaj7",
              "min7(11)",
              "min7(9)",
              "min(9)",
              "m7b5",
              "min7",
              "min6",
              "min"
            ],
            "autoStart": false,
            "sourceChordNote": 0,
            "sourceChordType": "Maj",
            "ctb2Low": null,
            "ctb2Main": {
              "ntr": "ROOT_TRANSPOSITION",
              "ntt": "BYPASS",
              "bassOn": false,
              "chordRootUpperLimit": 8,
              "noteLowLimit": 28,
              "noteHighLimit": 127,
              "rtr": "PITCH_SHIFT"
            },
            "ctb2High": null
          },
          "notes": [
            {
              "pitch": 32,
              "velocity": 58,
              "position": 8,
              "duration": 2.9895833333333335
            },
            {
              "pitch": 32,
              "velocity": 58,
              "position": 11,
              "duration": 0.9895833333333334
            },
            {
              "pitch": 31,
              "velocity": 58,
              "position": 12,
              "duration": 1.9895833333333333
            },
            {
              "pitch": 31,
              "velocity": 58,
              "position": 14,
              "duration": 1.9895833333333333
            }
          ]
        },
        "11": {
          "ctab": {
            "srcChannel": 11,
            "name": "Gt",
            "accType": "CHORD1",
            "editable": false,
            "mutedNotes": [],
            "mutedChords": [
              "dim7",
              "dim",
              "minMaj7(9)",
              "minMaj7",
              "min7(11)",
              "min7(9)",
              "min(9)",
              "m7b5",
              "min7",
              "min6",
              "min"
            ],
            "autoStart": false,
            "sourceChordNote": 0,
            "sourceChordType": "Maj",
            "ctb2Low": null,
            "ctb2Main": {
              "ntr": "ROOT_TRANSPOSITION",
              "ntt": "BYPASS",
              "bassOn": false,
              "chordRootUpperLimit": 8,
              "noteLowLimit": 54,
              "noteHighLimit": 65,
              "rtr": "PITCH_SHIFT"
            },
            "ctb2High": null
          },
          "notes": []
        },
        "12": {
          "ctab": {
            "srcChannel": 12,
            "name": "EP",
            "accType": "CHORD2",
            "editable": false,
            "mutedNotes": [],
            "mutedChords": [
              "dim7",
              "dim",
              "minMaj7(9)",
              "minMaj7",
              "min7(11)",
              "min7(9)",
              "min(9)",
              "m7b5",
              "min7",
              "min6",
              "min"
            ],
            "autoStart": false,
            "sourceChordNote": 0,
            "sourceChordType": "Maj",
            "ctb2Low": null,
            "ctb2Main": {
              "ntr": "ROOT_TRANSPOSITION",
              "ntt": "BYPASS",
              "bassOn": false,
              "chordRootUpperLimit": 8,
              "noteLowLimit": 54,
              "noteHighLimit": 65,
              "rtr": "PITCH_SHIFT"
            },
            "ctb2High": null
          },
          "notes": []
        },
        "13": {
          "ctab": {
            "srcChannel": 13,
            "name": "Str",
            "accType": "PAD",
            "editable": false,
            "mutedNotes": [],
            "mutedChords": [
              "dim7",
              "dim",
              "minMaj7(9)",
              "minMaj7",
              "min7(11)",
              "min7(9)",
              "min(9)",
              "m7b5",
              "min7",
              "min6",
              "min"
            ],
            "autoStart": false,
            "sourceChordNote": 0,
            "sourceChordType": "Maj",
            "ctb2Low": null,
            "ctb2Main": {
              "ntr": "ROOT_TRANSPOSITION",
              "ntt": "BYPASS",
              "bassOn": false,
              "chordRootUpperLimit": 11,
              "noteLowLimit": 0,
              "noteHighLimit": 127,
              "rtr": "PITCH_SHIFT"
            },
            "ctb2High": null
          },
          "notes": [
            {
              "pitch": 77,
              "velocity": 80,
              "position": 0.375,
              "duration": 0.4895833333333333
            },
            {
              "pitch": 76,
              "velocity": 80,
              "position": 0.875,
              "duration": 0.4895833333333333
            },
            {
              "pitch": 64,
              "velocity": 80,
              "position": 2.375,
              "duration": 0.4895833333333333
            },
            {
              "pitch": 79,
              "velocity": 81,
              "position": 0.010416666666666666,
              "duration": 3.8541666666666665
            },
            {
              "pitch": 72,
              "velocity": 64,
              "position": 1.375,
              "duration": 2.5
            },
            {
              "pitch": 57,
              "velocity": 80,
              "position": 3.375,
              "duration": 0.5
            },
            {
              "pitch": 76,
              "velocity": 80,
              "position": 3.875,
              "duration": 0.6145833333333334
            },
            {
              "pitch": 74,
              "velocity": 89,
              "position": 4.375,
              "duration": 0.6145833333333334
            },
            {
              "pitch": 72,
              "velocity": 98,
              "position": 4.875,
              "duration": 0.6145833333333334
            },
            {
              "pitch": 50,
              "velocity": 64,
              "position": 3.875,
              "duration": 1.9895833333333333
            },
            {
              "pitch": 65,
              "velocity": 80,
              "position": 1.875,
              "duration": 3.9895833333333335
            },
            {
              "pitch": 69,
              "velocity": 64,
              "position": 3.875,
              "duration": 1.9895833333333333
            },
            {
              "pitch": 60,
              "velocity": 64,
              "position": 2.875,
              "duration": 3
            },
            {
              "pitch": 71,
              "velocity": 107,
              "position": 5.375,
              "duration": 0.6145833333333334
            },
            {
              "pitch": 70,
              "velocity": 116,
              "position": 5.875,
              "duration": 1.1145833333333333
            },
            {
              "pitch": 45,
              "velocity": 46,
              "position": 5.875,
              "duration": 1.9895833333333333
            },
            {
              "pitch": 55,
              "velocity": 46,
              "position": 5.875,
              "duration": 1.9895833333333333
            },
            {
              "pitch": 77,
              "velocity": 116,
              "position": 6.875,
              "duration": 1.1145833333333333
            },
            {
              "pitch": 66,
              "velocity": 116,
              "position": 7.875,
              "duration": 0.6145833333333334
            },
            {
              "pitch": 65,
              "velocity": 116,
              "position": 8.375,
              "duration": 1.1145833333333333
            },
            {
              "pitch": 61,
              "velocity": 46,
              "position": 5.875,
              "duration": 3.9895833333333335
            },
            {
              "pitch": 66,
              "velocity": 116,
              "position": 9.375,
              "duration": 0.6145833333333334
            },
            {
              "pitch": 70,
              "velocity": 57,
              "position": 7.875,
              "duration": 2.9895833333333335
            },
            {
              "pitch": 65,
              "velocity": 116,
              "position": 9.875,
              "duration": 1.1145833333333333
            },
            {
              "pitch": 44,
              "velocity": 40,
              "position": 7.875,
              "duration": 3.9895833333333335
            },
            {
              "pitch": 54,
              "velocity": 40,
              "position": 7.875,
              "duration": 3.9895833333333335
            },
            {
              "pitch": 75,
              "velocity": 57,
              "position": 10.875,
              "duration": 0.9895833333333334
            },
            {
              "pitch": 63,
              "velocity": 116,
              "position": 10.875,
              "duration": 1.1145833333333333
            },
            {
              "pitch": 65,
              "velocity": 116,
              "position": 11.875,
              "duration": 0.6145833333333334
            },
            {
              "pitch": 64,
              "velocity": 116,
              "position": 12.375,
              "duration": 1.1145833333333333
            },
            {
              "pitch": 60,
              "velocity": 51,
              "position": 9.875,
              "duration": 3.9895833333333335
            },
            {
              "pitch": 65,
              "velocity": 116,
              "position": 13.375,
              "duration": 0.6145833333333334
            },
            {
              "pitch": 64,
              "velocity": 116,
              "position": 13.875,
              "duration": 1.1145833333333333
            },
            {
              "pitch": 69,
              "velocity": 57,
              "position": 11.875,
              "duration": 3.9895833333333335
            },
            {
              "pitch": 43,
              "velocity": 40,
              "position": 11.875,
              "duration": 4.010416666666667
            },
            {
              "pitch": 59,
              "velocity": 51,
              "position": 13.875,
              "duration": 2.0104166666666665
            },
            {
              "pitch": 53,
              "velocity": 40,
              "position": 11.875,
              "duration": 4.010416666666667
            },
            {
              "pitch": 62,
              "velocity": 116,
              "position": 14.875,
              "duration": 1.0104166666666667
            }
          ]
        },
        "14": {
          "ctab": {
            "srcChannel": 14,
            "name": "Pno",
            "accType": "PHRASE1",
            "editable": false,
            "mutedNotes": [],
            "mutedChords": [
              "dim7",
              "dim",
              "minMaj7(9)",
              "minMaj7",
              "min7(11)",
              "min7(9)",
              "min(9)",
              "m7b5",
              "min7",
              "min6",
              "min"
            ],
            "autoStart": false,
            "sourceChordNote": 0,
            "sourceChordType": "Maj",
            "ctb2Low": null,
            "ctb2Main": {
              "ntr": "ROOT_TRANSPOSITION",
              "ntt": "BYPASS",
              "bassOn": false,
              "chordRootUpperLimit": 6,
              "noteLowLimit": 0,
              "noteHighLimit": 127,
              "rtr": "PITCH_SHIFT"
            },
            "ctb2High": null
          },
          "notes": [
            {
              "pitch": 55,
              "velocity": 51,
              "position": 6.572916666666667,
              "duration": 0.08333333333333333
            },
            {
              "pitch": 58,
              "velocity": 48,
              "position": 6.666666666666667,
              "duration": 0.08333333333333333
            },
            {
              "pitch": 61,
              "velocity": 47,
              "position": 6.75,
              "duration": 0.09375
            },
            {
              "pitch": 65,
              "velocity": 44,
              "position": 6.84375,
              "duration": 0.08333333333333333
            },
            {
              "pitch": 67,
              "velocity": 42,
              "position": 6.9375,
              "duration": 0.08333333333333333
            },
            {
              "pitch": 70,
              "velocity": 42,
              "position": 7.020833333333333,
              "duration": 0.09375
            },
            {
              "pitch": 73,
              "velocity": 42,
              "position": 7.114583333333333,
              "duration": 0.08333333333333333
            },
            {
              "pitch": 77,
              "velocity": 44,
              "position": 7.208333333333333,
              "duration": 0.08333333333333333
            },
            {
              "pitch": 79,
              "velocity": 45,
              "position": 7.291666666666667,
              "duration": 0.09375
            },
            {
              "pitch": 82,
              "velocity": 47,
              "position": 7.385416666666667,
              "duration": 0.08333333333333333
            },
            {
              "pitch": 85,
              "velocity": 48,
              "position": 7.479166666666667,
              "duration": 0.08333333333333333
            },
            {
              "pitch": 89,
              "velocity": 51,
              "position": 7.5625,
              "duration": 0.09375
            },
            {
              "pitch": 91,
              "velocity": 52,
              "position": 7.65625,
              "duration": 0.08333333333333333
            },
            {
              "pitch": 94,
              "velocity": 55,
              "position": 7.75,
              "duration": 0.08333333333333333
            },
            {
              "pitch": 97,
              "velocity": 57,
              "position": 7.833333333333333,
              "duration": 0.08333333333333333
            },
            {
              "pitch": 101,
              "velocity": 60,
              "position": 7.916666666666667,
              "duration": 0.09375
            },
            {
              "pitch": 104,
              "velocity": 63,
              "position": 8,
              "duration": 0.09375
            },
            {
              "pitch": 90,
              "velocity": 77,
              "position": 8.020833333333334,
              "duration": 0.46875
            },
            {
              "pitch": 78,
              "velocity": 88,
              "position": 8,
              "duration": 0.4895833333333333
            },
            {
              "pitch": 77,
              "velocity": 80,
              "position": 8.5,
              "duration": 0.4895833333333333
            },
            {
              "pitch": 89,
              "velocity": 69,
              "position": 8.5,
              "duration": 0.4895833333333333
            },
            {
              "pitch": 77,
              "velocity": 69,
              "position": 9,
              "duration": 0.4895833333333333
            },
            {
              "pitch": 89,
              "velocity": 72,
              "position": 9,
              "duration": 0.4895833333333333
            },
            {
              "pitch": 78,
              "velocity": 69,
              "position": 9.5,
              "duration": 0.4895833333333333
            },
            {
              "pitch": 90,
              "velocity": 73,
              "position": 9.520833333333334,
              "duration": 0.46875
            },
            {
              "pitch": 77,
              "velocity": 72,
              "position": 10,
              "duration": 0.9895833333333334
            },
            {
              "pitch": 89,
              "velocity": 72,
              "position": 10,
              "duration": 0.9895833333333334
            },
            {
              "pitch": 75,
              "velocity": 72,
              "position": 11,
              "duration": 0.9895833333333334
            },
            {
              "pitch": 87,
              "velocity": 72,
              "position": 11,
              "duration": 0.9895833333333334
            },
            {
              "pitch": 77,
              "velocity": 74,
              "position": 12,
              "duration": 0.4895833333333333
            },
            {
              "pitch": 89,
              "velocity": 73,
              "position": 12.020833333333334,
              "duration": 0.46875
            },
            {
              "pitch": 76,
              "velocity": 73,
              "position": 12.5,
              "duration": 0.4895833333333333
            },
            {
              "pitch": 88,
              "velocity": 80,
              "position": 12.5,
              "duration": 0.4895833333333333
            },
            {
              "pitch": 76,
              "velocity": 72,
              "position": 13,
              "duration": 0.4895833333333333
            },
            {
              "pitch": 88,
              "velocity": 73,
              "position": 13,
              "duration": 0.4895833333333333
            },
            {
              "pitch": 77,
              "velocity": 65,
              "position": 13.5,
              "duration": 0.4895833333333333
            },
            {
              "pitch": 89,
              "velocity": 65,
              "position": 13.520833333333334,
              "duration": 0.46875
            },
            {
              "pitch": 76,
              "velocity": 61,
              "position": 14,
              "duration": 0.9895833333333334
            },
            {
              "pitch": 88,
              "velocity": 61,
              "position": 14,
              "duration": 0.9895833333333334
            },
            {
              "pitch": 74,
              "velocity": 53,
              "position": 15,
              "duration": 0.9895833333333334
            },
            {
              "pitch": 86,
              "velocity": 53,
              "position": 15,
              "duration": 0.9895833333333334
            }
          ]
        },
        "15": {
          "ctab": {
            "srcChannel": 15,
            "name": "FrHn",
            "accType": "PHRASE2",
            "editable": false,
            "mutedNotes": [],
            "mutedChords": [
              "dim7",
              "dim",
              "minMaj7(9)",
              "minMaj7",
              "min7(11)",
              "min7(9)",
              "min(9)",
              "m7b5",
              "min7",
              "min6",
              "min"
            ],
            "autoStart": false,
            "sourceChordNote": 0,
            "sourceChordType": "Maj",
            "ctb2Low": null,
            "ctb2Main": {
              "ntr": "ROOT_TRANSPOSITION",
              "ntt": "BYPASS",
              "bassOn": false,
              "chordRootUpperLimit": 8,
              "noteLowLimit": 54,
              "noteHighLimit": 65,
              "rtr": "PITCH_SHIFT"
            },
            "ctb2High": null
          },
          "notes": [
            {
              "pitch": 61,
              "velocity": 70,
              "position": 8.010416666666666,
              "duration": 1.9791666666666667
            },
            {
              "pitch": 65,
              "velocity": 70,
              "position": 8.010416666666666,
              "duration": 2.9791666666666665
            },
            {
              "pitch": 54,
              "velocity": 56,
              "position": 8.010416666666666,
              "duration": 3.9791666666666665
            },
            {
              "pitch": 58,
              "velocity": 70,
              "position": 8.010416666666666,
              "duration": 3.9791666666666665
            },
            {
              "pitch": 60,
              "velocity": 70,
              "position": 10,
              "duration": 1.9895833333333333
            },
            {
              "pitch": 63,
              "velocity": 70,
              "position": 11,
              "duration": 0.9895833333333334
            },
            {
              "pitch": 60,
              "velocity": 70,
              "position": 12,
              "duration": 1.9895833333333333
            },
            {
              "pitch": 64,
              "velocity": 70,
              "position": 12,
              "duration": 2.9895833333333335
            },
            {
              "pitch": 53,
              "velocity": 62,
              "position": 12,
              "duration": 3.9895833333333335
            },
            {
              "pitch": 57,
              "velocity": 70,
              "position": 12,
              "duration": 3.9895833333333335
            },
            {
              "pitch": 59,
              "velocity": 70,
              "position": 14,
              "duration": 1.9895833333333333
            },
            {
              "pitch": 62,
              "velocity": 70,
              "position": 15,
              "duration": 0.9895833333333334
            }
          ]
        }
      }
    },
    "Ending_C": {
      "type": "Ending_C",
      "sizeInBeats": 16,
      "channels": {
        "1": {
          "ctab": {
            "srcChannel": 1,
            "name": "Bass",
            "accType": "BASS",
            "editable": false,
            "mutedNotes": [],
            "mutedChords": [
              "1+2+5",
              "sus4",
              "1+5",
              "1+8",
              "7aug",
              "Maj7aug",
              "7(#9)",
              "7(b13)",
              "7(b9)",
              "7(13)",
              "7#11",
              "7(9)",
              "7b5",
              "7sus4",
              "7th",
              "aug",
              "Maj6(9)",
              "Maj7(9)",
              "Maj(9)",
              "Maj7#11",
              "Maj7",
              "Maj6",
              "Maj"
            ],
            "autoStart": false,
            "sourceChordNote": 0,
            "sourceChordType": "min",
            "ctb2Low": null,
            "ctb2Main": {
              "ntr": "ROOT_TRANSPOSITION",
              "ntt": "BYPASS",
              "bassOn": false,
              "chordRootUpperLimit": 8,
              "noteLowLimit": 28,
              "noteHighLimit": 127,
              "rtr": "PITCH_SHIFT"
            },
            "ctb2High": null
          },
          "notes": [
            {
              "pitch": 24,
              "velocity": 58,
              "position": 0,
              "duration": 1.5625
            },
            {
              "pitch": 24,
              "velocity": 110,
              "position": 1.6666666666666667,
              "duration": 0.11458333333333333
            },
            {
              "pitch": 33,
              "velocity": 58,
              "position": 2,
              "duration": 1.5625
            },
            {
              "pitch": 33,
              "velocity": 110,
              "position": 3.6666666666666665,
              "duration": 0.11458333333333333
            },
            {
              "pitch": 26,
              "velocity": 58,
              "position": 4,
              "duration": 1.5625
            },
            {
              "pitch": 26,
              "velocity": 110,
              "position": 5.666666666666667,
              "duration": 0.11458333333333333
            },
            {
              "pitch": 31,
              "velocity": 58,
              "position": 6,
              "duration": 0.9895833333333334
            },
            {
              "pitch": 31,
              "velocity": 58,
              "position": 7,
              "duration": 0.9895833333333334
            },
            {
              "pitch": 24,
              "velocity": 58,
              "position": 8,
              "duration": 5.989583333333333
            }
          ]
        },
        "2": {
          "ctab": {
            "srcChannel": 2,
            "name": "Gt",
            "accType": "CHORD1",
            "editable": false,
            "mutedNotes": [],
            "mutedChords": [
              "1+2+5",
              "sus4",
              "1+5",
              "1+8",
              "7aug",
              "Maj7aug",
              "7(#9)",
              "7(b13)",
              "7(b9)",
              "7(13)",
              "7#11",
              "7(9)",
              "7b5",
              "7sus4",
              "7th",
              "aug",
              "Maj6(9)",
              "Maj7(9)",
              "Maj(9)",
              "Maj7#11",
              "Maj7",
              "Maj6",
              "Maj"
            ],
            "autoStart": false,
            "sourceChordNote": 0,
            "sourceChordType": "min",
            "ctb2Low": null,
            "ctb2Main": {
              "ntr": "ROOT_TRANSPOSITION",
              "ntt": "BYPASS",
              "bassOn": false,
              "chordRootUpperLimit": 8,
              "noteLowLimit": 54,
              "noteHighLimit": 65,
              "rtr": "PITCH_SHIFT"
            },
            "ctb2High": null
          },
          "notes": [
            {
              "pitch": 55,
              "velocity": 98,
              "position": 0,
              "duration": 0.22916666666666666
            },
            {
              "pitch": 60,
              "velocity": 98,
              "position": 0,
              "duration": 0.22916666666666666
            },
            {
              "pitch": 63,
              "velocity": 98,
              "position": 0,
              "duration": 0.22916666666666666
            },
            {
              "pitch": 55,
              "velocity": 98,
              "position": 1,
              "duration": 0.22916666666666666
            },
            {
              "pitch": 60,
              "velocity": 98,
              "position": 1,
              "duration": 0.22916666666666666
            },
            {
              "pitch": 63,
              "velocity": 98,
              "position": 1,
              "duration": 0.22916666666666666
            },
            {
              "pitch": 55,
              "velocity": 98,
              "position": 2,
              "duration": 0.22916666666666666
            },
            {
              "pitch": 60,
              "velocity": 98,
              "position": 2,
              "duration": 0.22916666666666666
            },
            {
              "pitch": 63,
              "velocity": 98,
              "position": 2,
              "duration": 0.22916666666666666
            },
            {
              "pitch": 55,
              "velocity": 98,
              "position": 3,
              "duration": 0.22916666666666666
            },
            {
              "pitch": 60,
              "velocity": 98,
              "position": 3,
              "duration": 0.22916666666666666
            },
            {
              "pitch": 63,
              "velocity": 98,
              "position": 3,
              "duration": 0.22916666666666666
            },
            {
              "pitch": 54,
              "velocity": 98,
              "position": 4,
              "duration": 0.22916666666666666
            },
            {
              "pitch": 57,
              "velocity": 98,
              "position": 4,
              "duration": 0.22916666666666666
            },
            {
              "pitch": 60,
              "velocity": 98,
              "position": 4,
              "duration": 0.22916666666666666
            },
            {
              "pitch": 54,
              "velocity": 98,
              "position": 5,
              "duration": 0.22916666666666666
            },
            {
              "pitch": 57,
              "velocity": 98,
              "position": 5,
              "duration": 0.22916666666666666
            },
            {
              "pitch": 60,
              "velocity": 98,
              "position": 5,
              "duration": 0.22916666666666666
            },
            {
              "pitch": 53,
              "velocity": 98,
              "position": 6,
              "duration": 0.22916666666666666
            },
            {
              "pitch": 60,
              "velocity": 98,
              "position": 6,
              "duration": 0.22916666666666666
            },
            {
              "pitch": 62,
              "velocity": 98,
              "position": 6,
              "duration": 0.22916666666666666
            },
            {
              "pitch": 53,
              "velocity": 98,
              "position": 7,
              "duration": 0.22916666666666666
            },
            {
              "pitch": 59,
              "velocity": 98,
              "position": 7,
              "duration": 0.22916666666666666
            },
            {
              "pitch": 62,
              "velocity": 98,
              "position": 7,
              "duration": 0.22916666666666666
            },
            {
              "pitch": 55,
              "velocity": 98,
              "position": 8,
              "duration": 5.989583333333333
            },
            {
              "pitch": 60,
              "velocity": 98,
              "position": 8,
              "duration": 5.989583333333333
            },
            {
              "pitch": 63,
              "velocity": 98,
              "position": 8,
              "duration": 5.989583333333333
            }
          ]
        },
        "3": {
          "ctab": {
            "srcChannel": 3,
            "name": "EP",
            "accType": "CHORD2",
            "editable": false,
            "mutedNotes": [],
            "mutedChords": [
              "1+2+5",
              "sus4",
              "1+5",
              "1+8",
              "7aug",
              "Maj7aug",
              "7(#9)",
              "7(b13)",
              "7(b9)",
              "7(13)",
              "7#11",
              "7(9)",
              "7b5",
              "7sus4",
              "7th",
              "aug",
              "Maj6(9)",
              "Maj7(9)",
              "Maj(9)",
              "Maj7#11",
              "Maj7",
              "Maj6",
              "Maj"
            ],
            "autoStart": false,
            "sourceChordNote": 0,
            "sourceChordType": "min",
            "ctb2Low": null,
            "ctb2Main": {
              "ntr": "ROOT_TRANSPOSITION",
              "ntt": "BYPASS",
              "bassOn": false,
              "chordRootUpperLimit": 8,
              "noteLowLimit": 54,
              "noteHighLimit": 65,
              "rtr": "PITCH_SHIFT"
            },
            "ctb2High": null
          },
          "notes": [
            {
              "pitch": 60,
              "velocity": 64,
              "position": 0,
              "duration": 1.3229166666666667
            },
            {
              "pitch": 63,
              "velocity": 64,
              "position": 0,
              "duration": 1.65625
            },
            {
              "pitch": 55,
              "velocity": 64,
              "position": 0,
              "duration": 1.9895833333333333
            },
            {
              "pitch": 60,
              "velocity": 76,
              "position": 1.3333333333333333,
              "duration": 0.65625
            },
            {
              "pitch": 55,
              "velocity": 64,
              "position": 2,
              "duration": 1.9895833333333333
            },
            {
              "pitch": 60,
              "velocity": 64,
              "position": 2,
              "duration": 1.9895833333333333
            },
            {
              "pitch": 63,
              "velocity": 76,
              "position": 1.6666666666666667,
              "duration": 2.3229166666666665
            },
            {
              "pitch": 54,
              "velocity": 64,
              "position": 4,
              "duration": 1.9895833333333333
            },
            {
              "pitch": 57,
              "velocity": 64,
              "position": 4,
              "duration": 1.9895833333333333
            },
            {
              "pitch": 60,
              "velocity": 64,
              "position": 4,
              "duration": 1.9895833333333333
            },
            {
              "pitch": 60,
              "velocity": 55,
              "position": 6,
              "duration": 0.9895833333333334
            },
            {
              "pitch": 62,
              "velocity": 55,
              "position": 6,
              "duration": 0.9895833333333334
            },
            {
              "pitch": 65,
              "velocity": 55,
              "position": 6,
              "duration": 0.9895833333333334
            },
            {
              "pitch": 59,
              "velocity": 46,
              "position": 7,
              "duration": 0.9895833333333334
            },
            {
              "pitch": 62,
              "velocity": 46,
              "position": 7,
              "duration": 0.9895833333333334
            },
            {
              "pitch": 65,
              "velocity": 46,
              "position": 7,
              "duration": 0.9895833333333334
            },
            {
              "pitch": 55,
              "velocity": 36,
              "position": 8,
              "duration": 5.989583333333333
            },
            {
              "pitch": 60,
              "velocity": 36,
              "position": 8,
              "duration": 5.989583333333333
            },
            {
              "pitch": 63,
              "velocity": 36,
              "position": 8,
              "duration": 5.989583333333333
            }
          ]
        },
        "4": {
          "ctab": {
            "srcChannel": 4,
            "name": "Str",
            "accType": "PAD",
            "editable": false,
            "mutedNotes": [],
            "mutedChords": [
              "1+2+5",
              "sus4",
              "1+5",
              "1+8",
              "7aug",
              "Maj7aug",
              "7(#9)",
              "7(b13)",
              "7(b9)",
              "7(13)",
              "7#11",
              "7(9)",
              "7b5",
              "7sus4",
              "7th",
              "aug",
              "Maj6(9)",
              "Maj7(9)",
              "Maj(9)",
              "Maj7#11",
              "Maj7",
              "Maj6",
              "Maj"
            ],
            "autoStart": false,
            "sourceChordNote": 0,
            "sourceChordType": "min",
            "ctb2Low": null,
            "ctb2Main": {
              "ntr": "ROOT_TRANSPOSITION",
              "ntt": "BYPASS",
              "bassOn": false,
              "chordRootUpperLimit": 11,
              "noteLowLimit": 0,
              "noteHighLimit": 127,
              "rtr": "PITCH_SHIFT"
            },
            "ctb2High": null
          },
          "notes": [
            {
              "pitch": 75,
              "velocity": 55,
              "position": 0.010416666666666666,
              "duration": 0.4791666666666667
            },
            {
              "pitch": 74,
              "velocity": 55,
              "position": 0.3854166666666667,
              "duration": 0.9791666666666666
            },
            {
              "pitch": 75,
              "velocity": 55,
              "position": 1.3854166666666667,
              "duration": 0.4791666666666667
            },
            {
              "pitch": 48,
              "velocity": 36,
              "position": 0.010416666666666666,
              "duration": 1.9791666666666667
            },
            {
              "pitch": 74,
              "velocity": 55,
              "position": 1.8854166666666667,
              "duration": 0.9791666666666666
            },
            {
              "pitch": 72,
              "velocity": 55,
              "position": 2.8854166666666665,
              "duration": 0.9791666666666666
            },
            {
              "pitch": 45,
              "velocity": 36,
              "position": 2.0104166666666665,
              "duration": 1.9791666666666667
            },
            {
              "pitch": 63,
              "velocity": 36,
              "position": 0.010416666666666666,
              "duration": 3.9791666666666665
            },
            {
              "pitch": 67,
              "velocity": 36,
              "position": 0.010416666666666666,
              "duration": 3.9791666666666665
            },
            {
              "pitch": 74,
              "velocity": 55,
              "position": 3.8854166666666665,
              "duration": 0.4791666666666667
            },
            {
              "pitch": 72,
              "velocity": 55,
              "position": 4.385416666666667,
              "duration": 0.9791666666666666
            },
            {
              "pitch": 74,
              "velocity": 55,
              "position": 5.385416666666667,
              "duration": 0.4791666666666667
            },
            {
              "pitch": 38,
              "velocity": 36,
              "position": 4.010416666666667,
              "duration": 1.9791666666666667
            },
            {
              "pitch": 57,
              "velocity": 36,
              "position": 4.010416666666667,
              "duration": 1.9791666666666667
            },
            {
              "pitch": 66,
              "velocity": 36,
              "position": 4.010416666666667,
              "duration": 1.9791666666666667
            },
            {
              "pitch": 72,
              "velocity": 55,
              "position": 5.885416666666667,
              "duration": 0.9791666666666666
            },
            {
              "pitch": 60,
              "velocity": 36,
              "position": 0.010416666666666666,
              "duration": 6.979166666666667
            },
            {
              "pitch": 71,
              "velocity": 55,
              "position": 6.885416666666667,
              "duration": 0.9791666666666666
            },
            {
              "pitch": 43,
              "velocity": 36,
              "position": 6.010416666666667,
              "duration": 1.9791666666666667
            },
            {
              "pitch": 59,
              "velocity": 36,
              "position": 7.010416666666667,
              "duration": 0.9791666666666666
            },
            {
              "pitch": 53,
              "velocity": 36,
              "position": 6.010416666666667,
              "duration": 1.9791666666666667
            },
            {
              "pitch": 65,
              "velocity": 36,
              "position": 6.010416666666667,
              "duration": 1.9791666666666667
            },
            {
              "pitch": 36,
              "velocity": 36,
              "position": 8,
              "duration": 5.989583333333333
            },
            {
              "pitch": 51,
              "velocity": 36,
              "position": 8,
              "duration": 5.989583333333333
            },
            {
              "pitch": 60,
              "velocity": 36,
              "position": 8,
              "duration": 5.989583333333333
            },
            {
              "pitch": 67,
              "velocity": 36,
              "position": 8,
              "duration": 5.989583333333333
            },
            {
              "pitch": 72,
              "velocity": 36,
              "position": 7.885416666666667,
              "duration": 6.104166666666667
            }
          ]
        },
        "5": {
          "ctab": {
            "srcChannel": 5,
            "name": "Pno",
            "accType": "PHRASE1",
            "editable": false,
            "mutedNotes": [],
            "mutedChords": [
              "1+2+5",
              "sus4",
              "1+5",
              "1+8",
              "7aug",
              "Maj7aug",
              "7(#9)",
              "7(b13)",
              "7(b9)",
              "7(13)",
              "7#11",
              "7(9)",
              "7b5",
              "7sus4",
              "7th",
              "aug",
              "Maj6(9)",
              "Maj7(9)",
              "Maj(9)",
              "Maj7#11",
              "Maj7",
              "Maj6",
              "Maj"
            ],
            "autoStart": false,
            "sourceChordNote": 0,
            "sourceChordType": "min",
            "ctb2Low": null,
            "ctb2Main": {
              "ntr": "ROOT_TRANSPOSITION",
              "ntt": "BYPASS",
              "bassOn": false,
              "chordRootUpperLimit": 6,
              "noteLowLimit": 0,
              "noteHighLimit": 127,
              "rtr": "PITCH_SHIFT"
            },
            "ctb2High": null
          },
          "notes": [
            {
              "pitch": 75,
              "velocity": 63,
              "position": 0,
              "duration": 0.4895833333333333
            },
            {
              "pitch": 87,
              "velocity": 63,
              "position": 0.020833333333333332,
              "duration": 0.46875
            },
            {
              "pitch": 74,
              "velocity": 54,
              "position": 0.5,
              "duration": 0.4895833333333333
            },
            {
              "pitch": 86,
              "velocity": 54,
              "position": 0.5,
              "duration": 0.4895833333333333
            },
            {
              "pitch": 74,
              "velocity": 63,
              "position": 1,
              "duration": 0.4895833333333333
            },
            {
              "pitch": 86,
              "velocity": 63,
              "position": 1,
              "duration": 0.4895833333333333
            },
            {
              "pitch": 75,
              "velocity": 54,
              "position": 1.5,
              "duration": 0.4895833333333333
            },
            {
              "pitch": 87,
              "velocity": 54,
              "position": 1.5208333333333333,
              "duration": 0.46875
            },
            {
              "pitch": 74,
              "velocity": 63,
              "position": 2,
              "duration": 0.9895833333333334
            },
            {
              "pitch": 86,
              "velocity": 63,
              "position": 2,
              "duration": 0.9895833333333334
            },
            {
              "pitch": 72,
              "velocity": 63,
              "position": 3,
              "duration": 0.9895833333333334
            },
            {
              "pitch": 84,
              "velocity": 63,
              "position": 3,
              "duration": 0.9895833333333334
            },
            {
              "pitch": 74,
              "velocity": 63,
              "position": 4,
              "duration": 0.4895833333333333
            },
            {
              "pitch": 86,
              "velocity": 63,
              "position": 4.020833333333333,
              "duration": 0.46875
            },
            {
              "pitch": 72,
              "velocity": 54,
              "position": 4.5,
              "duration": 0.4895833333333333
            },
            {
              "pitch": 84,
              "velocity": 54,
              "position": 4.5,
              "duration": 0.4895833333333333
            },
            {
              "pitch": 72,
              "velocity": 54,
              "position": 5,
              "duration": 0.4895833333333333
            },
            {
              "pitch": 84,
              "velocity": 54,
              "position": 5,
              "duration": 0.4895833333333333
            },
            {
              "pitch": 74,
              "velocity": 44,
              "position": 5.5,
              "duration": 0.4895833333333333
            },
            {
              "pitch": 86,
              "velocity": 44,
              "position": 5.520833333333333,
              "duration": 0.46875
            },
            {
              "pitch": 72,
              "velocity": 44,
              "position": 6,
              "duration": 0.9895833333333334
            },
            {
              "pitch": 84,
              "velocity": 44,
              "position": 6,
              "duration": 0.9895833333333334
            },
            {
              "pitch": 71,
              "velocity": 35,
              "position": 7,
              "duration": 0.9895833333333334
            },
            {
              "pitch": 83,
              "velocity": 35,
              "position": 7,
              "duration": 0.9895833333333334
            },
            {
              "pitch": 72,
              "velocity": 35,
              "position": 8,
              "duration": 5.989583333333333
            },
            {
              "pitch": 84,
              "velocity": 35,
              "position": 8,
              "duration": 5.989583333333333
            }
          ]
        },
        "6": {
          "ctab": {
            "srcChannel": 6,
            "name": "FrHn",
            "accType": "PHRASE2",
            "editable": false,
            "mutedNotes": [],
            "mutedChords": [
              "1+2+5",
              "sus4",
              "1+5",
              "1+8",
              "7aug",
              "Maj7aug",
              "7(#9)",
              "7(b13)",
              "7(b9)",
              "7(13)",
              "7#11",
              "7(9)",
              "7b5",
              "7sus4",
              "7th",
              "aug",
              "Maj6(9)",
              "Maj7(9)",
              "Maj(9)",
              "Maj7#11",
              "Maj7",
              "Maj6",
              "Maj"
            ],
            "autoStart": false,
            "sourceChordNote": 0,
            "sourceChordType": "min",
            "ctb2Low": null,
            "ctb2Main": {
              "ntr": "ROOT_TRANSPOSITION",
              "ntt": "BYPASS",
              "bassOn": false,
              "chordRootUpperLimit": 8,
              "noteLowLimit": 54,
              "noteHighLimit": 65,
              "rtr": "PITCH_SHIFT"
            },
            "ctb2High": null
          },
          "notes": [
            {
              "pitch": 58,
              "velocity": 63,
              "position": 0.010416666666666666,
              "duration": 1.9895833333333333
            },
            {
              "pitch": 55,
              "velocity": 63,
              "position": 0.010416666666666666,
              "duration": 3.9895833333333335
            },
            {
              "pitch": 63,
              "velocity": 63,
              "position": 0.010416666666666666,
              "duration": 3.9895833333333335
            },
            {
              "pitch": 54,
              "velocity": 63,
              "position": 4,
              "duration": 1.9895833333333333
            },
            {
              "pitch": 57,
              "velocity": 63,
              "position": 2,
              "duration": 3.9895833333333335
            },
            {
              "pitch": 60,
              "velocity": 46,
              "position": 0.010416666666666666,
              "duration": 6.989583333333333
            },
            {
              "pitch": 53,
              "velocity": 63,
              "position": 6,
              "duration": 1.9895833333333333
            },
            {
              "pitch": 55,
              "velocity": 63,
              "position": 6,
              "duration": 1.9895833333333333
            },
            {
              "pitch": 59,
              "velocity": 63,
              "position": 7,
              "duration": 0.9895833333333334
            },
            {
              "pitch": 62,
              "velocity": 63,
              "position": 4,
              "duration": 3.9895833333333335
            },
            {
              "pitch": 55,
              "velocity": 63,
              "position": 8,
              "duration": 5.989583333333333
            },
            {
              "pitch": 60,
              "velocity": 63,
              "position": 8,
              "duration": 5.989583333333333
            },
            {
              "pitch": 63,
              "velocity": 63,
              "position": 8,
              "duration": 5.989583333333333
            }
          ]
        },
        "8": {
          "ctab": {
            "srcChannel": 8,
            "name": "Perc",
            "accType": "SUBRHYTHM",
            "editable": false,
            "mutedNotes": [],
            "mutedChords": [],
            "autoStart": true,
            "sourceChordNote": 0,
            "sourceChordType": "Maj7",
            "ctb2Low": null,
            "ctb2Main": {
              "ntr": "ROOT_FIXED",
              "ntt": "BYPASS",
              "bassOn": false,
              "chordRootUpperLimit": 6,
              "noteLowLimit": 0,
              "noteHighLimit": 127,
              "rtr": "PITCH_SHIFT"
            },
            "ctb2High": null
          },
          "notes": []
        },
        "9": {
          "ctab": {
            "srcChannel": 9,
            "name": "Drums",
            "accType": "RHYTHM",
            "editable": false,
            "mutedNotes": [],
            "mutedChords": [],
            "autoStart": true,
            "sourceChordNote": 0,
            "sourceChordType": "Maj7",
            "ctb2Low": null,
            "ctb2Main": {
              "ntr": "ROOT_FIXED",
              "ntt": "BYPASS",
              "bassOn": false,
              "chordRootUpperLimit": 6,
              "noteLowLimit": 0,
              "noteHighLimit": 127,
              "rtr": "PITCH_SHIFT"
            },
            "ctb2High": null
          },
          "notes": [
            {
              "pitch": 25,
              "velocity": 60,
              "position": 0,
              "duration": 0.010416666666666666
            },
            {
              "pitch": 35,
              "velocity": 40,
              "position": 0,
              "duration": 0.010416666666666666
            },
            {
              "pitch": 57,
              "velocity": 36,
              "position": 0,
              "duration": 0.010416666666666666
            },
            {
              "pitch": 26,
              "velocity": 38,
              "position": 0,
              "duration": 0.9895833333333334
            },
            {
              "pitch": 25,
              "velocity": 60,
              "position": 1,
              "duration": 0.010416666666666666
            },
            {
              "pitch": 35,
              "velocity": 40,
              "position": 1,
              "duration": 0.010416666666666666
            },
            {
              "pitch": 44,
              "velocity": 48,
              "position": 1,
              "duration": 0.010416666666666666
            },
            {
              "pitch": 57,
              "velocity": 36,
              "position": 1,
              "duration": 0.010416666666666666
            },
            {
              "pitch": 57,
              "velocity": 7,
              "position": 1.6666666666666667,
              "duration": 0.010416666666666666
            },
            {
              "pitch": 28,
              "velocity": 34,
              "position": 1,
              "duration": 0.9895833333333334
            },
            {
              "pitch": 25,
              "velocity": 60,
              "position": 2,
              "duration": 0.010416666666666666
            },
            {
              "pitch": 35,
              "velocity": 40,
              "position": 2,
              "duration": 0.010416666666666666
            },
            {
              "pitch": 57,
              "velocity": 36,
              "position": 2,
              "duration": 0.010416666666666666
            },
            {
              "pitch": 26,
              "velocity": 38,
              "position": 2,
              "duration": 0.9895833333333334
            },
            {
              "pitch": 25,
              "velocity": 60,
              "position": 3,
              "duration": 0.010416666666666666
            },
            {
              "pitch": 35,
              "velocity": 40,
              "position": 3,
              "duration": 0.010416666666666666
            },
            {
              "pitch": 44,
              "velocity": 48,
              "position": 3,
              "duration": 0.010416666666666666
            },
            {
              "pitch": 57,
              "velocity": 36,
              "position": 3,
              "duration": 0.010416666666666666
            },
            {
              "pitch": 25,
              "velocity": 30,
              "position": 3.6666666666666665,
              "duration": 0.010416666666666666
            },
            {
              "pitch": 57,
              "velocity": 7,
              "position": 3.6666666666666665,
              "duration": 0.010416666666666666
            },
            {
              "pitch": 28,
              "velocity": 34,
              "position": 3,
              "duration": 0.9895833333333334
            },
            {
              "pitch": 25,
              "velocity": 60,
              "position": 4,
              "duration": 0.010416666666666666
            },
            {
              "pitch": 35,
              "velocity": 40,
              "position": 4,
              "duration": 0.010416666666666666
            },
            {
              "pitch": 57,
              "velocity": 36,
              "position": 4,
              "duration": 0.010416666666666666
            },
            {
              "pitch": 26,
              "velocity": 38,
              "position": 4,
              "duration": 0.9895833333333334
            },
            {
              "pitch": 25,
              "velocity": 60,
              "position": 5,
              "duration": 0.010416666666666666
            },
            {
              "pitch": 35,
              "velocity": 40,
              "position": 5,
              "duration": 0.010416666666666666
            },
            {
              "pitch": 44,
              "velocity": 48,
              "position": 5,
              "duration": 0.010416666666666666
            },
            {
              "pitch": 57,
              "velocity": 36,
              "position": 5,
              "duration": 0.010416666666666666
            },
            {
              "pitch": 25,
              "velocity": 30,
              "position": 5.666666666666667,
              "duration": 0.010416666666666666
            },
            {
              "pitch": 57,
              "velocity": 7,
              "position": 5.666666666666667,
              "duration": 0.010416666666666666
            },
            {
              "pitch": 28,
              "velocity": 34,
              "position": 5,
              "duration": 0.9895833333333334
            },
            {
              "pitch": 25,
              "velocity": 60,
              "position": 6,
              "duration": 0.010416666666666666
            },
            {
              "pitch": 35,
              "velocity": 40,
              "position": 6,
              "duration": 0.010416666666666666
            },
            {
              "pitch": 57,
              "velocity": 36,
              "position": 6,
              "duration": 0.010416666666666666
            },
            {
              "pitch": 26,
              "velocity": 38,
              "position": 6,
              "duration": 0.9895833333333334
            },
            {
              "pitch": 25,
              "velocity": 60,
              "position": 7,
              "duration": 0.010416666666666666
            },
            {
              "pitch": 35,
              "velocity": 40,
              "position": 7,
              "duration": 0.010416666666666666
            },
            {
              "pitch": 44,
              "velocity": 48,
              "position": 7,
              "duration": 0.010416666666666666
            },
            {
              "pitch": 57,
              "velocity": 36,
              "position": 7,
              "duration": 0.010416666666666666
            },
            {
              "pitch": 25,
              "velocity": 30,
              "position": 7.666666666666667,
              "duration": 0.010416666666666666
            },
            {
              "pitch": 57,
              "velocity": 7,
              "position": 7.666666666666667,
              "duration": 0.010416666666666666
            },
            {
              "pitch": 28,
              "velocity": 34,
              "position": 7,
              "duration": 0.9895833333333334
            },
            {
              "pitch": 25,
              "velocity": 60,
              "position": 8,
              "duration": 0.010416666666666666
            },
            {
              "pitch": 35,
              "velocity": 40,
              "position": 8,
              "duration": 0.010416666666666666
            },
            {
              "pitch": 57,
              "velocity": 36,
              "position": 8,
              "duration": 0.010416666666666666
            }
          ]
        },
        "10": {
          "ctab": {
            "srcChannel": 10,
            "name": "Bass",
            "accType": "BASS",
            "editable": false,
            "mutedNotes": [],
            "mutedChords": [
              "dim7",
              "dim",
              "minMaj7(9)",
              "minMaj7",
              "min7(11)",
              "min7(9)",
              "min(9)",
              "m7b5",
              "min7",
              "min6",
              "min"
            ],
            "autoStart": false,
            "sourceChordNote": 0,
            "sourceChordType": "Maj",
            "ctb2Low": null,
            "ctb2Main": {
              "ntr": "ROOT_TRANSPOSITION",
              "ntt": "BYPASS",
              "bassOn": false,
              "chordRootUpperLimit": 8,
              "noteLowLimit": 28,
              "noteHighLimit": 127,
              "rtr": "PITCH_SHIFT"
            },
            "ctb2High": null
          },
          "notes": [
            {
              "pitch": 24,
              "velocity": 58,
              "position": 0,
              "duration": 1.5625
            },
            {
              "pitch": 24,
              "velocity": 110,
              "position": 1.6666666666666667,
              "duration": 0.11458333333333333
            },
            {
              "pitch": 29,
              "velocity": 58,
              "position": 2,
              "duration": 1.5625
            },
            {
              "pitch": 29,
              "velocity": 110,
              "position": 3.6666666666666665,
              "duration": 0.11458333333333333
            },
            {
              "pitch": 28,
              "velocity": 58,
              "position": 4,
              "duration": 1.5625
            },
            {
              "pitch": 28,
              "velocity": 110,
              "position": 5.666666666666667,
              "duration": 0.11458333333333333
            },
            {
              "pitch": 26,
              "velocity": 58,
              "position": 6,
              "duration": 0.9895833333333334
            },
            {
              "pitch": 31,
              "velocity": 58,
              "position": 7,
              "duration": 0.9895833333333334
            },
            {
              "pitch": 24,
              "velocity": 58,
              "position": 8,
              "duration": 5.989583333333333
            }
          ]
        },
        "11": {
          "ctab": {
            "srcChannel": 11,
            "name": "Gt",
            "accType": "CHORD1",
            "editable": false,
            "mutedNotes": [],
            "mutedChords": [
              "dim7",
              "dim",
              "minMaj7(9)",
              "minMaj7",
              "min7(11)",
              "min7(9)",
              "min(9)",
              "m7b5",
              "min7",
              "min6",
              "min"
            ],
            "autoStart": false,
            "sourceChordNote": 0,
            "sourceChordType": "Maj",
            "ctb2Low": null,
            "ctb2Main": {
              "ntr": "ROOT_TRANSPOSITION",
              "ntt": "BYPASS",
              "bassOn": false,
              "chordRootUpperLimit": 8,
              "noteLowLimit": 54,
              "noteHighLimit": 65,
              "rtr": "PITCH_SHIFT"
            },
            "ctb2High": null
          },
          "notes": [
            {
              "pitch": 55,
              "velocity": 98,
              "position": 0,
              "duration": 0.22916666666666666
            },
            {
              "pitch": 59,
              "velocity": 98,
              "position": 0,
              "duration": 0.22916666666666666
            },
            {
              "pitch": 64,
              "velocity": 98,
              "position": 0,
              "duration": 0.22916666666666666
            },
            {
              "pitch": 55,
              "velocity": 98,
              "position": 1,
              "duration": 0.22916666666666666
            },
            {
              "pitch": 59,
              "velocity": 98,
              "position": 1,
              "duration": 0.22916666666666666
            },
            {
              "pitch": 64,
              "velocity": 98,
              "position": 1,
              "duration": 0.22916666666666666
            },
            {
              "pitch": 57,
              "velocity": 98,
              "position": 2,
              "duration": 0.22916666666666666
            },
            {
              "pitch": 60,
              "velocity": 98,
              "position": 2,
              "duration": 0.22916666666666666
            },
            {
              "pitch": 64,
              "velocity": 98,
              "position": 2,
              "duration": 0.22916666666666666
            },
            {
              "pitch": 57,
              "velocity": 98,
              "position": 3,
              "duration": 0.22916666666666666
            },
            {
              "pitch": 60,
              "velocity": 98,
              "position": 3,
              "duration": 0.22916666666666666
            },
            {
              "pitch": 64,
              "velocity": 98,
              "position": 3,
              "duration": 0.22916666666666666
            },
            {
              "pitch": 55,
              "velocity": 98,
              "position": 4,
              "duration": 0.22916666666666666
            },
            {
              "pitch": 59,
              "velocity": 98,
              "position": 4,
              "duration": 0.22916666666666666
            },
            {
              "pitch": 62,
              "velocity": 98,
              "position": 4,
              "duration": 0.22916666666666666
            },
            {
              "pitch": 55,
              "velocity": 98,
              "position": 5,
              "duration": 0.22916666666666666
            },
            {
              "pitch": 59,
              "velocity": 98,
              "position": 5,
              "duration": 0.22916666666666666
            },
            {
              "pitch": 62,
              "velocity": 98,
              "position": 5,
              "duration": 0.22916666666666666
            },
            {
              "pitch": 57,
              "velocity": 98,
              "position": 6,
              "duration": 0.22916666666666666
            },
            {
              "pitch": 60,
              "velocity": 98,
              "position": 6,
              "duration": 0.22916666666666666
            },
            {
              "pitch": 65,
              "velocity": 98,
              "position": 6,
              "duration": 0.22916666666666666
            },
            {
              "pitch": 59,
              "velocity": 98,
              "position": 7,
              "duration": 0.22916666666666666
            },
            {
              "pitch": 62,
              "velocity": 98,
              "position": 7,
              "duration": 0.22916666666666666
            },
            {
              "pitch": 65,
              "velocity": 98,
              "position": 7,
              "duration": 0.22916666666666666
            },
            {
              "pitch": 55,
              "velocity": 98,
              "position": 8,
              "duration": 5.989583333333333
            },
            {
              "pitch": 60,
              "velocity": 98,
              "position": 8,
              "duration": 5.989583333333333
            },
            {
              "pitch": 64,
              "velocity": 98,
              "position": 8,
              "duration": 5.989583333333333
            }
          ]
        },
        "12": {
          "ctab": {
            "srcChannel": 12,
            "name": "EP",
            "accType": "CHORD2",
            "editable": false,
            "mutedNotes": [],
            "mutedChords": [
              "dim7",
              "dim",
              "minMaj7(9)",
              "minMaj7",
              "min7(11)",
              "min7(9)",
              "min(9)",
              "m7b5",
              "min7",
              "min6",
              "min"
            ],
            "autoStart": false,
            "sourceChordNote": 0,
            "sourceChordType": "Maj",
            "ctb2Low": null,
            "ctb2Main": {
              "ntr": "ROOT_TRANSPOSITION",
              "ntt": "BYPASS",
              "bassOn": false,
              "chordRootUpperLimit": 8,
              "noteLowLimit": 54,
              "noteHighLimit": 65,
              "rtr": "PITCH_SHIFT"
            },
            "ctb2High": null
          },
          "notes": [
            {
              "pitch": 59,
              "velocity": 78,
              "position": 0,
              "duration": 1.3229166666666667
            },
            {
              "pitch": 64,
              "velocity": 78,
              "position": 0,
              "duration": 1.65625
            },
            {
              "pitch": 55,
              "velocity": 78,
              "position": 0,
              "duration": 1.9895833333333333
            },
            {
              "pitch": 59,
              "velocity": 81,
              "position": 1.3333333333333333,
              "duration": 0.65625
            },
            {
              "pitch": 57,
              "velocity": 78,
              "position": 2,
              "duration": 1.9895833333333333
            },
            {
              "pitch": 60,
              "velocity": 78,
              "position": 2,
              "duration": 1.9895833333333333
            },
            {
              "pitch": 64,
              "velocity": 81,
              "position": 1.6666666666666667,
              "duration": 2.3229166666666665
            },
            {
              "pitch": 55,
              "velocity": 78,
              "position": 4,
              "duration": 1.9895833333333333
            },
            {
              "pitch": 59,
              "velocity": 78,
              "position": 4,
              "duration": 1.9895833333333333
            },
            {
              "pitch": 62,
              "velocity": 78,
              "position": 4,
              "duration": 1.9895833333333333
            },
            {
              "pitch": 57,
              "velocity": 68,
              "position": 6,
              "duration": 0.9895833333333334
            },
            {
              "pitch": 60,
              "velocity": 68,
              "position": 6,
              "duration": 0.9895833333333334
            },
            {
              "pitch": 65,
              "velocity": 68,
              "position": 6,
              "duration": 0.9895833333333334
            },
            {
              "pitch": 59,
              "velocity": 57,
              "position": 7,
              "duration": 0.9895833333333334
            },
            {
              "pitch": 62,
              "velocity": 57,
              "position": 7,
              "duration": 0.9895833333333334
            },
            {
              "pitch": 65,
              "velocity": 57,
              "position": 7,
              "duration": 0.9895833333333334
            },
            {
              "pitch": 55,
              "velocity": 45,
              "position": 8,
              "duration": 5.989583333333333
            },
            {
              "pitch": 60,
              "velocity": 45,
              "position": 8,
              "duration": 5.989583333333333
            },
            {
              "pitch": 64,
              "velocity": 45,
              "position": 8,
              "duration": 5.989583333333333
            }
          ]
        },
        "13": {
          "ctab": {
            "srcChannel": 13,
            "name": "Str",
            "accType": "PAD",
            "editable": false,
            "mutedNotes": [],
            "mutedChords": [
              "dim7",
              "dim",
              "minMaj7(9)",
              "minMaj7",
              "min7(11)",
              "min7(9)",
              "min(9)",
              "m7b5",
              "min7",
              "min6",
              "min"
            ],
            "autoStart": false,
            "sourceChordNote": 0,
            "sourceChordType": "Maj",
            "ctb2Low": null,
            "ctb2Main": {
              "ntr": "ROOT_TRANSPOSITION",
              "ntt": "BYPASS",
              "bassOn": false,
              "chordRootUpperLimit": 11,
              "noteLowLimit": 0,
              "noteHighLimit": 127,
              "rtr": "PITCH_SHIFT"
            },
            "ctb2High": null
          },
          "notes": [
            {
              "pitch": 76,
              "velocity": 55,
              "position": 0.010416666666666666,
              "duration": 0.4791666666666667
            },
            {
              "pitch": 74,
              "velocity": 55,
              "position": 0.3854166666666667,
              "duration": 0.9791666666666666
            },
            {
              "pitch": 76,
              "velocity": 55,
              "position": 1.3854166666666667,
              "duration": 0.4791666666666667
            },
            {
              "pitch": 48,
              "velocity": 36,
              "position": 0.010416666666666666,
              "duration": 1.9791666666666667
            },
            {
              "pitch": 59,
              "velocity": 36,
              "position": 0.010416666666666666,
              "duration": 1.9791666666666667
            },
            {
              "pitch": 62,
              "velocity": 36,
              "position": 0.010416666666666666,
              "duration": 1.9791666666666667
            },
            {
              "pitch": 74,
              "velocity": 55,
              "position": 1.8854166666666667,
              "duration": 0.9791666666666666
            },
            {
              "pitch": 72,
              "velocity": 55,
              "position": 2.8854166666666665,
              "duration": 0.9791666666666666
            },
            {
              "pitch": 41,
              "velocity": 36,
              "position": 2.0104166666666665,
              "duration": 1.9791666666666667
            },
            {
              "pitch": 57,
              "velocity": 36,
              "position": 2.0104166666666665,
              "duration": 1.9791666666666667
            },
            {
              "pitch": 64,
              "velocity": 36,
              "position": 2.0104166666666665,
              "duration": 1.9791666666666667
            },
            {
              "pitch": 74,
              "velocity": 55,
              "position": 3.8854166666666665,
              "duration": 0.4791666666666667
            },
            {
              "pitch": 72,
              "velocity": 55,
              "position": 4.385416666666667,
              "duration": 0.9791666666666666
            },
            {
              "pitch": 74,
              "velocity": 55,
              "position": 5.385416666666667,
              "duration": 0.4791666666666667
            },
            {
              "pitch": 40,
              "velocity": 36,
              "position": 4.010416666666667,
              "duration": 1.9791666666666667
            },
            {
              "pitch": 55,
              "velocity": 36,
              "position": 4.010416666666667,
              "duration": 1.9791666666666667
            },
            {
              "pitch": 62,
              "velocity": 36,
              "position": 4.010416666666667,
              "duration": 1.9791666666666667
            },
            {
              "pitch": 72,
              "velocity": 55,
              "position": 5.885416666666667,
              "duration": 0.9791666666666666
            },
            {
              "pitch": 38,
              "velocity": 36,
              "position": 6.010416666666667,
              "duration": 0.9791666666666666
            },
            {
              "pitch": 60,
              "velocity": 36,
              "position": 6.010416666666667,
              "duration": 0.9791666666666666
            },
            {
              "pitch": 71,
              "velocity": 55,
              "position": 6.885416666666667,
              "duration": 0.9791666666666666
            },
            {
              "pitch": 43,
              "velocity": 36,
              "position": 7.010416666666667,
              "duration": 0.9791666666666666
            },
            {
              "pitch": 53,
              "velocity": 36,
              "position": 6.010416666666667,
              "duration": 1.9791666666666667
            },
            {
              "pitch": 62,
              "velocity": 36,
              "position": 7.010416666666667,
              "duration": 0.9791666666666666
            },
            {
              "pitch": 36,
              "velocity": 36,
              "position": 8,
              "duration": 5.989583333333333
            },
            {
              "pitch": 52,
              "velocity": 36,
              "position": 8,
              "duration": 5.989583333333333
            },
            {
              "pitch": 60,
              "velocity": 36,
              "position": 8,
              "duration": 5.989583333333333
            },
            {
              "pitch": 67,
              "velocity": 36,
              "position": 0.010416666666666666,
              "duration": 13.979166666666666
            },
            {
              "pitch": 72,
              "velocity": 36,
              "position": 7.885416666666667,
              "duration": 6.104166666666667
            }
          ]
        },
        "14": {
          "ctab": {
            "srcChannel": 14,
            "name": "Pno",
            "accType": "PHRASE1",
            "editable": false,
            "mutedNotes": [],
            "mutedChords": [
              "dim7",
              "dim",
              "minMaj7(9)",
              "minMaj7",
              "min7(11)",
              "min7(9)",
              "min(9)",
              "m7b5",
              "min7",
              "min6",
              "min"
            ],
            "autoStart": false,
            "sourceChordNote": 0,
            "sourceChordType": "Maj",
            "ctb2Low": null,
            "ctb2Main": {
              "ntr": "ROOT_TRANSPOSITION",
              "ntt": "BYPASS",
              "bassOn": false,
              "chordRootUpperLimit": 6,
              "noteLowLimit": 0,
              "noteHighLimit": 127,
              "rtr": "PITCH_SHIFT"
            },
            "ctb2High": null
          },
          "notes": [
            {
              "pitch": 76,
              "velocity": 63,
              "position": 0,
              "duration": 0.4895833333333333
            },
            {
              "pitch": 88,
              "velocity": 63,
              "position": 0.020833333333333332,
              "duration": 0.46875
            },
            {
              "pitch": 74,
              "velocity": 56,
              "position": 0.5,
              "duration": 0.4895833333333333
            },
            {
              "pitch": 86,
              "velocity": 56,
              "position": 0.5,
              "duration": 0.4895833333333333
            },
            {
              "pitch": 74,
              "velocity": 63,
              "position": 1,
              "duration": 0.4895833333333333
            },
            {
              "pitch": 86,
              "velocity": 63,
              "position": 1,
              "duration": 0.4895833333333333
            },
            {
              "pitch": 76,
              "velocity": 56,
              "position": 1.5,
              "duration": 0.4895833333333333
            },
            {
              "pitch": 88,
              "velocity": 56,
              "position": 1.5208333333333333,
              "duration": 0.46875
            },
            {
              "pitch": 74,
              "velocity": 63,
              "position": 2,
              "duration": 0.9895833333333334
            },
            {
              "pitch": 86,
              "velocity": 63,
              "position": 2,
              "duration": 0.9895833333333334
            },
            {
              "pitch": 72,
              "velocity": 63,
              "position": 3,
              "duration": 0.9895833333333334
            },
            {
              "pitch": 84,
              "velocity": 63,
              "position": 3,
              "duration": 0.9895833333333334
            },
            {
              "pitch": 74,
              "velocity": 63,
              "position": 4,
              "duration": 0.4895833333333333
            },
            {
              "pitch": 86,
              "velocity": 63,
              "position": 4.020833333333333,
              "duration": 0.46875
            },
            {
              "pitch": 72,
              "velocity": 56,
              "position": 4.5,
              "duration": 0.4895833333333333
            },
            {
              "pitch": 84,
              "velocity": 56,
              "position": 4.5,
              "duration": 0.4895833333333333
            },
            {
              "pitch": 72,
              "velocity": 56,
              "position": 5,
              "duration": 0.4895833333333333
            },
            {
              "pitch": 84,
              "velocity": 56,
              "position": 5,
              "duration": 0.4895833333333333
            },
            {
              "pitch": 74,
              "velocity": 48,
              "position": 5.5,
              "duration": 0.4895833333333333
            },
            {
              "pitch": 86,
              "velocity": 48,
              "position": 5.520833333333333,
              "duration": 0.46875
            },
            {
              "pitch": 72,
              "velocity": 48,
              "position": 6,
              "duration": 0.9895833333333334
            },
            {
              "pitch": 84,
              "velocity": 48,
              "position": 6,
              "duration": 0.9895833333333334
            },
            {
              "pitch": 71,
              "velocity": 40,
              "position": 7,
              "duration": 0.9895833333333334
            },
            {
              "pitch": 83,
              "velocity": 40,
              "position": 7,
              "duration": 0.9895833333333334
            },
            {
              "pitch": 72,
              "velocity": 40,
              "position": 8,
              "duration": 5.989583333333333
            },
            {
              "pitch": 84,
              "velocity": 40,
              "position": 8,
              "duration": 5.989583333333333
            }
          ]
        },
        "15": {
          "ctab": {
            "srcChannel": 15,
            "name": "FrHn",
            "accType": "PHRASE2",
            "editable": false,
            "mutedNotes": [],
            "mutedChords": [
              "dim7",
              "dim",
              "minMaj7(9)",
              "minMaj7",
              "min7(11)",
              "min7(9)",
              "min(9)",
              "m7b5",
              "min7",
              "min6",
              "min"
            ],
            "autoStart": false,
            "sourceChordNote": 0,
            "sourceChordType": "Maj",
            "ctb2Low": null,
            "ctb2Main": {
              "ntr": "ROOT_TRANSPOSITION",
              "ntt": "BYPASS",
              "bassOn": false,
              "chordRootUpperLimit": 8,
              "noteLowLimit": 54,
              "noteHighLimit": 65,
              "rtr": "PITCH_SHIFT"
            },
            "ctb2High": null
          },
          "notes": [
            {
              "pitch": 59,
              "velocity": 63,
              "position": 0.010416666666666666,
              "duration": 1.9895833333333333
            },
            {
              "pitch": 62,
              "velocity": 63,
              "position": 0.010416666666666666,
              "duration": 1.9895833333333333
            },
            {
              "pitch": 57,
              "velocity": 63,
              "position": 2,
              "duration": 1.9895833333333333
            },
            {
              "pitch": 60,
              "velocity": 63,
              "position": 2,
              "duration": 1.9895833333333333
            },
            {
              "pitch": 59,
              "velocity": 63,
              "position": 4,
              "duration": 1.9895833333333333
            },
            {
              "pitch": 62,
              "velocity": 63,
              "position": 4,
              "duration": 1.9895833333333333
            },
            {
              "pitch": 55,
              "velocity": 63,
              "position": 0.010416666666666666,
              "duration": 5.989583333333333
            },
            {
              "pitch": 64,
              "velocity": 46,
              "position": 0.010416666666666666,
              "duration": 5.989583333333333
            },
            {
              "pitch": 57,
              "velocity": 63,
              "position": 6,
              "duration": 0.9895833333333334
            },
            {
              "pitch": 60,
              "velocity": 63,
              "position": 6,
              "duration": 0.9895833333333334
            },
            {
              "pitch": 65,
              "velocity": 63,
              "position": 6,
              "duration": 0.9895833333333334
            },
            {
              "pitch": 59,
              "velocity": 63,
              "position": 7,
              "duration": 0.9895833333333334
            },
            {
              "pitch": 62,
              "velocity": 63,
              "position": 7,
              "duration": 0.9895833333333334
            },
            {
              "pitch": 55,
              "velocity": 63,
              "position": 7,
              "duration": 6.989583333333333
            },
            {
              "pitch": 60,
              "velocity": 63,
              "position": 8,
              "duration": 5.989583333333333
            },
            {
              "pitch": 64,
              "velocity": 63,
              "position": 8,
              "duration": 5.989583333333333
            }
          ]
        }
      }
    }
  }
}