{
  "name": "Bebop.S468.sst",
  "tempo": 240,
  "timeSignature": "4/4",
  "ticksPerQuarter": 1920,
  "sffType": "SFF1",
  "division": "EIGHTH_SHUFFLE",
  "parts": {
    "Main_A": {
      "type": "Main_A",
      "sizeInBeats": 64,
      "channels": {
        "0": {
          "ctab": {
            "srcChannel": 0,
            "name": "Bass mM7",
            "accType": "BASS",
            "editable": false,
            "mutedNotes": [],
            "mutedChords": [
              "1+2+5",
              "7aug",
              "Maj7aug",
              "7(#9)",
              "7(b13)",
              "7(b9)",
              "7(13)",
              "7#11",
              "7(9)",
              "7b5",
              "7th",
              "dim7",
              "dim",
              "min7(11)",
              "min7(9)",
              "min(9)",
              "m7b5",
              "min7",
              "min6",
              "min",
              "aug",
              "Maj6(9)",
              "Maj7(9)",
              "Maj(9)",
              "Maj7#11",
              "Maj7",
              "Maj6",
              "Maj"
            ],
            "autoStart": false,
            "sourceChordNote": 0,
            "sourceChordType": "Maj7",
            "ctb2Low": null,
            "ctb2Main": {
              "ntr": "ROOT_TRANSPOSITION",
              "ntt": "MELODY",
              "bassOn": true,
              "chordRootUpperLimit": 4,
              "noteLowLimit": 28,
              "noteHighLimit": 127,
              "rtr": "PITCH_SHIFT_TO_ROOT"
            },
            "ctb2High": null
          },
          "notes": [
            {
              "pitch": 36,
              "velocity": 60,
              "position": 0,
              "duration": 0.8958333333333334
            },
            {
              "pitch": 43,
              "velocity": 60,
              "position": 1,
              "duration": 0.8958333333333334
            },
            {
              "pitch": 43,
              "velocity": 60,
              "position": 2,
              "duration": 0.8958333333333334
            },
            {
              "pitch": 47,
              "velocity": 60,
              "position": 3,
              "duration": 0.8958333333333334
            },
            {
              "pitch": 48,
              "velocity": 60,
              "position": 4,
              "duration": 0.8958333333333334
            },
            {
              "pitch": 48,
              "velocity": 60,
              "position": 5,
              "duration": 0.8958333333333334
            },
            {
              "pitch": 48,
              "velocity": 60,
              "position": 6,
              "duration": 0.8958333333333334
            },
            {
              "pitch": 43,
              "velocity": 60,
              "position": 7,
              "duration": 0.8958333333333334
            },
            {
              "pitch": 36,
              "velocity": 60,
              "position": 8,
              "duration": 0.8958333333333334
            },
            {
              "pitch": 38,
              "velocity": 60,
              "position": 9,
              "duration": 0.8958333333333334
            },
            {
              "pitch": 40,
              "velocity": 60,
              "position": 10,
              "duration": 0.8958333333333334
            },
            {
              "pitch": 43,
              "velocity": 60,
              "position": 11,
              "duration": 0.8958333333333334
            },
            {
              "pitch": 48,
              "velocity": 60,
              "position": 12,
              "duration": 0.8958333333333334
            },
            {
              "pitch": 47,
              "velocity": 60,
              "position": 13,
              "duration": 0.8958333333333334
            },
            {
              "pitch": 43,
              "velocity": 60,
              "position": 14,
              "duration": 0.8958333333333334
            },
            {
              "pitch": 40,
              "velocity": 60,
              "position": 15,
              "duration": 0.8958333333333334
            },
            {
              "pitch": 36,
              "velocity": 60,
              "position": 16,
              "duration": 0.8958333333333334
            },
            {
              "pitch": 43,
              "velocity": 60,
              "position": 17,
              "duration": 0.8958333333333334
            },
            {
              "pitch": 43,
              "velocity": 60,
              "position": 18,
              "duration": 0.8958333333333334
            },
            {
              "pitch": 36,
              "velocity": 60,
              "position": 19,
              "duration": 0.8958333333333334
            },
            {
              "pitch": 36,
              "velocity": 60,
              "position": 20,
              "duration": 0.8958333333333334
            },
            {
              "pitch": 38,
              "velocity": 60,
              "position": 21,
              "duration": 0.8958333333333334
            },
            {
              "pitch": 40,
              "velocity": 60,
              "position": 22,
              "duration": 0.8958333333333334
            },
            {
              "pitch": 43,
              "velocity": 60,
              "position": 23,
              "duration": 0.8958333333333334
            },
            {
              "pitch": 48,
              "velocity": 60,
              "position": 24,
              "duration": 0.8958333333333334
            },
            {
              "pitch": 48,
              "velocity": 60,
              "position": 25,
              "duration": 0.8958333333333334
            },
            {
              "pitch": 43,
              "velocity": 60,
              "position": 26,
              "duration": 0.8958333333333334
            },
            {
              "pitch": 43,
              "velocity": 60,
              "position": 27,
              "duration": 0.8958333333333334
            },
            {
              "pitch": 36,
              "velocity": 60,
              "position": 28,
              "duration": 0.8958333333333334
            },
            {
              "pitch": 38,
              "velocity": 60,
              "position": 29,
              "duration": 0.8958333333333334
            },
            {
              "pitch": 40,
              "velocity": 60,
              "position": 30,
              "duration": 0.8958333333333334
            },
            {
              "pitch": 43,
              "velocity": 60,
              "position": 31,
              "duration": 0.8958333333333334
            },
            {
              "pitch": 48,
              "velocity": 60,
              "position": 32,
              "duration": 0.8958333333333334
            },
            {
              "pitch": 47,
              "velocity": 60,
              "position": 33,
              "duration": 0.8958333333333334
            },
            {
              "pitch": 50,
              "velocity": 60,
              "position": 34,
              "duration": 0.8958333333333334
            },
            {
              "pitch": 47,
              "velocity": 60,
              "position": 35,
              "duration": 0.8958333333333334
            },
            {
              "pitch": 48,
              "velocity": 60,
              "position": 36,
              "duration": 0.8958333333333334
            },
            {
              "pitch": 43,
              "velocity": 60,
              "position": 37,
              "duration": 0.8958333333333334
            },
            {
              "pitch": 38,
              "velocity": 60,
              "position": 38,
              "duration": 0.8958333333333334
            },
            {
              "pitch": 40,
              "velocity": 60,
              "position": 39,
              "duration": 0.8958333333333334
            },
            {
              "pitch": 36,
              "velocity": 60,
              "position": 40,
              "duration": 0.8958333333333334
            },
            {
              "pitch": 36,
              "velocity": 60,
              "position": 41,
              "duration": 0.8958333333333334
            },
            {
              "pitch": 38,
              "velocity": 60,
              "position": 42,
              "duration": 0.8958333333333334
            },
            {
              "pitch": 38,
              "velocity": 60,
              "position": 43,
              "duration": 0.8958333333333334
            },
            {
              "pitch": 40,
              "velocity": 60,
              "position": 44,
              "duration": 0.8958333333333334
            },
            {
              "pitch": 43,
              "velocity": 60,
              "position": 45,
              "duration": 0.8958333333333334
            },
            {
              "pitch": 43,
              "velocity": 60,
              "position": 46,
              "duration": 0.8958333333333334
            },
            {
              "pitch": 47,
              "velocity": 60,
              "position": 47,
              "duration": 0.8958333333333334
            },
            {
              "pitch": 48,
              "velocity": 60,
              "position": 48,
              "duration": 0.8958333333333334
            },
            {
              "pitch": 40,
              "velocity": 60,
              "position": 49,
              "duration": 0.8958333333333334
            },
            {
              "pitch": 47,
              "velocity": 60,
              "position": 50,
              "duration": 0.8958333333333334
            },
            {
              "pitch": 43,
              "velocity": 60,
              "position": 51,
              "duration": 0.8958333333333334
            },
            {
              "pitch": 36,
              "velocity": 60,
              "position": 52,
              "duration": 0.8958333333333334
            },
            {
              "pitch": 38,
              "velocity": 60,
              "position": 53,
              "duration": 0.8958333333333334
            },
            {
              "pitch": 40,
              "velocity": 60,
              "position": 54,
              "duration": 0.8958333333333334
            },
            {
              "pitch": 43,
              "velocity": 60,
              "position": 55,
              "duration": 0.8958333333333334
            },
            {
              "pitch": 43,
              "velocity": 60,
              "position": 56,
              "duration": 0.8958333333333334
            },
            {
              "pitch": 48,
              "velocity": 60,
              "position": 57,
              "duration": 0.8958333333333334
            },
            {
              "pitch": 47,
              "velocity": 60,
              "position": 58,
              "duration": 0.8958333333333334
            },
            {
              "pitch": 43,
              "velocity": 60,
              "position": 59,
              "duration": 0.8958333333333334
            },
            {
              "pitch": 40,
              "velocity": 60,
              "position": 60,
              "duration": 0.8958333333333334
            },
            {
              "pitch": 38,
              "velocity": 60,
              "position": 61,
              "duration": 0.8958333333333334
            },
            {
              "pitch": 36,
              "velocity": 60,
              "position": 62,
              "duration": 0.8958333333333334
            },
            {
              "pitch": 43,
              "velocity": 60,
              "position": 63,
              "duration": 0.8958333333333334
            }
          ]
        },
        "1": {
          "ctab": {
            "srcChannel": 1,
            "name": "Bass",
            "accType": "BASS",
            "editable": false,
            "mutedNotes": [],
            "mutedChords": [
              "sus4",
              "1+5",
              "1+8",
              "7aug",
              "7(#9)",
              "7(b13)",
              "7(b9)",
              "7(13)",
              "7#11",
              "7(9)",
              "7b5",
              "7sus4",
              "7th",
              "dim7",
              "minMaj7(9)",
              "minMaj7",
              "min7(11)",
              "min7(9)",
              "min(9)",
              "m7b5",
              "min7"
            ],
            "autoStart": false,
            "sourceChordNote": 0,
            "sourceChordType": "Maj7",
            "ctb2Low": null,
            "ctb2Main": {
              "ntr": "ROOT_TRANSPOSITION",
              "ntt": "DORIAN_5",
              "bassOn": true,
              "chordRootUpperLimit": 4,
              "noteLowLimit": 28,
              "noteHighLimit": 127,
              "rtr": "PITCH_SHIFT_TO_ROOT"
            },
            "ctb2High": null
          },
          "notes": [
            {
              "pitch": 36,
              "velocity": 60,
              "position": 0,
              "duration": 0.8958333333333334
            },
            {
              "pitch": 43,
              "velocity": 60,
              "position": 1,
              "duration": 0.8958333333333334
            },
            {
              "pitch": 43,
              "velocity": 60,
              "position": 2,
              "duration": 0.8958333333333334
            },
            {
              "pitch": 47,
              "velocity": 60,
              "position": 3,
              "duration": 0.8958333333333334
            },
            {
              "pitch": 48,
              "velocity": 60,
              "position": 4,
              "duration": 0.8958333333333334
            },
            {
              "pitch": 48,
              "velocity": 60,
              "position": 5,
              "duration": 0.8958333333333334
            },
            {
              "pitch": 48,
              "velocity": 60,
              "position": 6,
              "duration": 0.8958333333333334
            },
            {
              "pitch": 43,
              "velocity": 60,
              "position": 7,
              "duration": 0.8958333333333334
            },
            {
              "pitch": 36,
              "velocity": 60,
              "position": 8,
              "duration": 0.8958333333333334
            },
            {
              "pitch": 38,
              "velocity": 60,
              "position": 9,
              "duration": 0.8958333333333334
            },
            {
              "pitch": 40,
              "velocity": 60,
              "position": 10,
              "duration": 0.8958333333333334
            },
            {
              "pitch": 43,
              "velocity": 60,
              "position": 11,
              "duration": 0.8958333333333334
            },
            {
              "pitch": 48,
              "velocity": 60,
              "position": 12,
              "duration": 0.8958333333333334
            },
            {
              "pitch": 45,
              "velocity": 60,
              "position": 13,
              "duration": 0.8958333333333334
            },
            {
              "pitch": 43,
              "velocity": 60,
              "position": 14,
              "duration": 0.8958333333333334
            },
            {
              "pitch": 40,
              "velocity": 60,
              "position": 15,
              "duration": 0.8958333333333334
            },
            {
              "pitch": 36,
              "velocity": 60,
              "position": 16,
              "duration": 0.8958333333333334
            },
            {
              "pitch": 43,
              "velocity": 60,
              "position": 17,
              "duration": 0.8958333333333334
            },
            {
              "pitch": 43,
              "velocity": 60,
              "position": 18,
              "duration": 0.8958333333333334
            },
            {
              "pitch": 36,
              "velocity": 60,
              "position": 19,
              "duration": 0.8958333333333334
            },
            {
              "pitch": 36,
              "velocity": 60,
              "position": 20,
              "duration": 0.8958333333333334
            },
            {
              "pitch": 38,
              "velocity": 60,
              "position": 21,
              "duration": 0.8958333333333334
            },
            {
              "pitch": 40,
              "velocity": 60,
              "position": 22,
              "duration": 0.8958333333333334
            },
            {
              "pitch": 43,
              "velocity": 60,
              "position": 23,
              "duration": 0.8958333333333334
            },
            {
              "pitch": 48,
              "velocity": 60,
              "position": 24,
              "duration": 0.8958333333333334
            },
            {
              "pitch": 48,
              "velocity": 60,
              "position": 25,
              "duration": 0.8958333333333334
            },
            {
              "pitch": 43,
              "velocity": 60,
              "position": 26,
              "duration": 0.8958333333333334
            },
            {
              "pitch": 43,
              "velocity": 60,
              "position": 27,
              "duration": 0.8958333333333334
            },
            {
              "pitch": 36,
              "velocity": 60,
              "position": 28,
              "duration": 0.8958333333333334
            },
            {
              "pitch": 38,
              "velocity": 60,
              "position": 29,
              "duration": 0.8958333333333334
            },
            {
              "pitch": 40,
              "velocity": 60,
              "position": 30,
              "duration": 0.8958333333333334
            },
            {
              "pitch": 43,
              "velocity": 60,
              "position": 31,
              "duration": 0.8958333333333334
            },
            {
              "pitch": 48,
              "velocity": 60,
              "position": 32,
              "duration": 0.8958333333333334
            },
            {
              "pitch": 47,
              "velocity": 60,
              "position": 33,
              "duration": 0.8958333333333334
            },
            {
              "pitch": 50,
              "velocity": 60,
              "position": 34,
              "duration": 0.8958333333333334
            },
            {
              "pitch": 47,
              "velocity": 60,
              "position": 35,
              "duration": 0.8958333333333334
            },
            {
              "pitch": 48,
              "velocity": 60,
              "position": 36,
              "duration": 0.8958333333333334
            },
            {
              "pitch": 43,
              "velocity": 60,
              "position": 37,
              "duration": 0.8958333333333334
            },
            {
              "pitch": 38,
              "velocity": 60,
              "position": 38,
              "duration": 0.8958333333333334
            },
            {
              "pitch": 40,
              "velocity": 60,
              "position": 39,
              "duration": 0.8958333333333334
            },
            {
              "pitch": 36,
              "velocity": 60,
              "position": 40,
              "duration": 0.8958333333333334
            },
            {
              "pitch": 36,
              "velocity": 60,
              "position": 41,
              "duration": 0.8958333333333334
            },
            {
              "pitch": 38,
              "velocity": 60,
              "position": 42,
              "duration": 0.8958333333333334
            },
            {
              "pitch": 38,
              "velocity": 60,
              "position": 43,
              "duration": 0.8958333333333334
            },
            {
              "pitch": 40,
              "velocity": 60,
              "position": 44,
              "duration": 0.8958333333333334
            },
            {
              "pitch": 43,
              "velocity": 60,
              "position": 45,
              "duration": 0.8958333333333334
            },
            {
              "pitch": 43,
              "velocity": 60,
              "position": 46,
              "duration": 0.8958333333333334
            },
            {
              "pitch": 47,
              "velocity": 60,
              "position": 47,
              "duration": 0.8958333333333334
            },
            {
              "pitch": 48,
              "velocity": 60,
              "position": 48,
              "duration": 0.8958333333333334
            },
            {
              "pitch": 40,
              "velocity": 60,
              "position": 49,
              "duration": 0.8958333333333334
            },
            {
              "pitch": 45,
              "velocity": 60,
              "position": 50,
              "duration": 0.8958333333333334
            },
            {
              "pitch": 43,
              "velocity": 60,
              "position": 51,
              "duration": 0.8958333333333334
            },
            {
              "pitch": 36,
              "velocity": 60,
              "position": 52,
              "duration": 0.8958333333333334
            },
            {
              "pitch": 38,
              "velocity": 60,
              "position": 53,
              "duration": 0.8958333333333334
            },
            {
              "pitch": 40,
              "velocity": 60,
              "position": 54,
              "duration": 0.8958333333333334
            },
            {
              "pitch": 43,
              "velocity": 60,
              "position": 55,
              "duration": 0.8958333333333334
            },
            {
              "pitch": 43,
              "velocity": 60,
              "position": 56,
              "duration": 0.8958333333333334
            },
            {
              "pitch": 48,
              "velocity": 60,
              "position": 57,
              "duration": 0.8958333333333334
            },
            {
              "pitch": 45,
              "velocity": 60,
              "position": 58,
              "duration": 0.8958333333333334
            },
            {
              "pitch": 43,
              "velocity": 60,
              "position": 59,
              "duration": 0.8958333333333334
            },
            {
              "pitch": 40,
              "velocity": 60,
              "position": 60,
              "duration": 0.8958333333333334
            },
            {
              "pitch": 38,
              "velocity": 60,
              "position": 61,
              "duration": 0.8958333333333334
            },
            {
              "pitch": 36,
              "velocity": 60,
              "position": 62,
              "duration": 0.8958333333333334
            },
            {
              "pitch": 43,
              "velocity": 60,
              "position": 63,
              "duration": 0.8958333333333334
            }
          ]
        },
        "2": {
          "ctab": {
            "srcChannel": 2,
            "name": "Bass 7",
            "accType": "BASS",
            "editable": false,
            "mutedNotes": [],
            "mutedChords": [
              "1+2+5",
              "sus4",
              "1+5",
              "1+8",
              "Maj7aug",
              "7sus4",
              "dim",
              "minMaj7(9)",
              "minMaj7",
              "min6",
              "min",
              "aug",
              "Maj6(9)",
              "Maj7(9)",
              "Maj(9)",
              "Maj7#11",
              "Maj7",
              "Maj6",
              "Maj"
            ],
            "autoStart": false,
            "sourceChordNote": 0,
            "sourceChordType": "Maj7",
            "ctb2Low": null,
            "ctb2Main": {
              "ntr": "ROOT_TRANSPOSITION",
              "ntt": "DORIAN_5",
              "bassOn": true,
              "chordRootUpperLimit": 4,
              "noteLowLimit": 28,
              "noteHighLimit": 127,
              "rtr": "PITCH_SHIFT_TO_ROOT"
            },
            "ctb2High": null
          },
          "notes": [
            {
              "pitch": 36,
              "velocity": 60,
              "position": 0,
              "duration": 0.8958333333333334
            },
            {
              "pitch": 43,
              "velocity": 60,
              "position": 1,
              "duration": 0.8958333333333334
            },
            {
              "pitch": 43,
              "velocity": 60,
              "position": 2,
              "duration": 0.8958333333333334
            },
            {
              "pitch": 46,
              "velocity": 60,
              "position": 3,
              "duration": 0.8958333333333334
            },
            {
              "pitch": 48,
              "velocity": 60,
              "position": 4,
              "duration": 0.8958333333333334
            },
            {
              "pitch": 48,
              "velocity": 60,
              "position": 5,
              "duration": 0.8958333333333334
            },
            {
              "pitch": 48,
              "velocity": 60,
              "position": 6,
              "duration": 0.8958333333333334
            },
            {
              "pitch": 43,
              "velocity": 60,
              "position": 7,
              "duration": 0.8958333333333334
            },
            {
              "pitch": 36,
              "velocity": 60,
              "position": 8,
              "duration": 0.8958333333333334
            },
            {
              "pitch": 38,
              "velocity": 60,
              "position": 9,
              "duration": 0.8958333333333334
            },
            {
              "pitch": 40,
              "velocity": 60,
              "position": 10,
              "duration": 0.8958333333333334
            },
            {
              "pitch": 43,
              "velocity": 60,
              "position": 11,
              "duration": 0.8958333333333334
            },
            {
              "pitch": 48,
              "velocity": 60,
              "position": 12,
              "duration": 0.8958333333333334
            },
            {
              "pitch": 46,
              "velocity": 60,
              "position": 13,
              "duration": 0.8958333333333334
            },
            {
              "pitch": 43,
              "velocity": 60,
              "position": 14,
              "duration": 0.8958333333333334
            },
            {
              "pitch": 40,
              "velocity": 60,
              "position": 15,
              "duration": 0.8958333333333334
            },
            {
              "pitch": 36,
              "velocity": 60,
              "position": 16,
              "duration": 0.8958333333333334
            },
            {
              "pitch": 43,
              "velocity": 60,
              "position": 17,
              "duration": 0.8958333333333334
            },
            {
              "pitch": 43,
              "velocity": 60,
              "position": 18,
              "duration": 0.8958333333333334
            },
            {
              "pitch": 36,
              "velocity": 60,
              "position": 19,
              "duration": 0.8958333333333334
            },
            {
              "pitch": 36,
              "velocity": 60,
              "position": 20,
              "duration": 0.8958333333333334
            },
            {
              "pitch": 38,
              "velocity": 60,
              "position": 21,
              "duration": 0.8958333333333334
            },
            {
              "pitch": 40,
              "velocity": 60,
              "position": 22,
              "duration": 0.8958333333333334
            },
            {
              "pitch": 43,
              "velocity": 60,
              "position": 23,
              "duration": 0.8958333333333334
            },
            {
              "pitch": 48,
              "velocity": 60,
              "position": 24,
              "duration": 0.8958333333333334
            },
            {
              "pitch": 48,
              "velocity": 60,
              "position": 25,
              "duration": 0.8958333333333334
            },
            {
              "pitch": 43,
              "velocity": 60,
              "position": 26,
              "duration": 0.8958333333333334
            },
            {
              "pitch": 43,
              "velocity": 60,
              "position": 27,
              "duration": 0.8958333333333334
            },
            {
              "pitch": 36,
              "velocity": 60,
              "position": 28,
              "duration": 0.8958333333333334
            },
            {
              "pitch": 38,
              "velocity": 60,
              "position": 29,
              "duration": 0.8958333333333334
            },
            {
              "pitch": 40,
              "velocity": 60,
              "position": 30,
              "duration": 0.8958333333333334
            },
            {
              "pitch": 43,
              "velocity": 60,
              "position": 31,
              "duration": 0.8958333333333334
            },
            {
              "pitch": 48,
              "velocity": 60,
              "position": 32,
              "duration": 0.8958333333333334
            },
            {
              "pitch": 46,
              "velocity": 60,
              "position": 33,
              "duration": 0.8958333333333334
            },
            {
              "pitch": 50,
              "velocity": 60,
              "position": 34,
              "duration": 0.8958333333333334
            },
            {
              "pitch": 46,
              "velocity": 60,
              "position": 35,
              "duration": 0.8958333333333334
            },
            {
              "pitch": 48,
              "velocity": 60,
              "position": 36,
              "duration": 0.8958333333333334
            },
            {
              "pitch": 43,
              "velocity": 60,
              "position": 37,
              "duration": 0.8958333333333334
            },
            {
              "pitch": 38,
              "velocity": 60,
              "position": 38,
              "duration": 0.8958333333333334
            },
            {
              "pitch": 40,
              "velocity": 60,
              "position": 39,
              "duration": 0.8958333333333334
            },
            {
              "pitch": 36,
              "velocity": 60,
              "position": 40,
              "duration": 0.8958333333333334
            },
            {
              "pitch": 36,
              "velocity": 60,
              "position": 41,
              "duration": 0.8958333333333334
            },
            {
              "pitch": 38,
              "velocity": 60,
              "position": 42,
              "duration": 0.8958333333333334
            },
            {
              "pitch": 38,
              "velocity": 60,
              "position": 43,
              "duration": 0.8958333333333334
            },
            {
              "pitch": 40,
              "velocity": 60,
              "position": 44,
              "duration": 0.8958333333333334
            },
            {
              "pitch": 43,
              "velocity": 60,
              "position": 45,
              "duration": 0.8958333333333334
            },
            {
              "pitch": 43,
              "velocity": 60,
              "position": 46,
              "duration": 0.8958333333333334
            },
            {
              "pitch": 46,
              "velocity": 60,
              "position": 47,
              "duration": 0.8958333333333334
            },
            {
              "pitch": 48,
              "velocity": 60,
              "position": 48,
              "duration": 0.8958333333333334
            },
            {
              "pitch": 40,
              "velocity": 60,
              "position": 49,
              "duration": 0.8958333333333334
            },
            {
              "pitch": 46,
              "velocity": 60,
              "position": 50,
              "duration": 0.8958333333333334
            },
            {
              "pitch": 43,
              "velocity": 60,
              "position": 51,
              "duration": 0.8958333333333334
            },
            {
              "pitch": 36,
              "velocity": 60,
              "position": 52,
              "duration": 0.8958333333333334
            },
            {
              "pitch": 38,
              "velocity": 60,
              "position": 53,
              "duration": 0.8958333333333334
            },
            {
              "pitch": 40,
              "velocity": 60,
              "position": 54,
              "duration": 0.8958333333333334
            },
            {
              "pitch": 43,
              "velocity": 60,
              "position": 55,
              "duration": 0.8958333333333334
            },
            {
              "pitch": 43,
              "velocity": 60,
              "position": 56,
              "duration": 0.8958333333333334
            },
            {
              "pitch": 48,
              "velocity": 60,
              "position": 57,
              "duration": 0.8958333333333334
            },
            {
              "pitch": 46,
              "velocity": 60,
              "position": 58,
              "duration": 0.8958333333333334
            },
            {
              "pitch": 43,
              "velocity": 60,
              "position": 59,
              "duration": 0.8958333333333334
            },
            {
              "pitch": 40,
              "velocity": 60,
              "position": 60,
              "duration": 0.8958333333333334
            },
            {
              "pitch": 38,
              "velocity": 60,
              "position": 61,
              "duration": 0.8958333333333334
            },
            {
              "pitch": 36,
              "velocity": 60,
              "position": 62,
              "duration": 0.8958333333333334
            },
            {
              "pitch": 34,
              "velocity": 60,
              "position": 63,
              "duration": 0.8958333333333334
            }
          ]
        },
        "3": {
          "ctab": {
            "srcChannel": 3,
            "name": "PfLH",
            "accType": "CHORD1",
            "editable": false,
            "mutedNotes": [],
            "mutedChords": [],
            "autoStart": false,
            "sourceChordNote": 0,
            "sourceChordType": "Maj7",
            "ctb2Low": null,
            "ctb2Main": {
              "ntr": "ROOT_TRANSPOSITION",
              "ntt": "CHORD",
              "bassOn": false,
              "chordRootUpperLimit": 8,
              "noteLowLimit": 54,
              "noteHighLimit": 65,
              "rtr": "PITCH_SHIFT"
            },
            "ctb2High": null
          },
          "notes": [
            {
              "pitch": 55,
              "velocity": 51,
              "position": 0,
              "duration": 0.3020833333333333
            },
            {
              "pitch": 59,
              "velocity": 51,
              "position": 0,
              "duration": 0.3020833333333333
            },
            {
              "pitch": 64,
              "velocity": 41,
              "position": 0,
              "duration": 0.3333333333333333
            },
            {
              "pitch": 55,
              "velocity": 62,
              "position": 1,
              "duration": 0.65625
            },
            {
              "pitch": 59,
              "velocity": 62,
              "position": 1,
              "duration": 0.65625
            },
            {
              "pitch": 64,
              "velocity": 61,
              "position": 1,
              "duration": 0.65625
            },
            {
              "pitch": 55,
              "velocity": 60,
              "position": 4,
              "duration": 0.65625
            },
            {
              "pitch": 59,
              "velocity": 60,
              "position": 4,
              "duration": 0.65625
            },
            {
              "pitch": 64,
              "velocity": 62,
              "position": 4,
              "duration": 0.6666666666666666
            },
            {
              "pitch": 64,
              "velocity": 47,
              "position": 6,
              "duration": 0.6458333333333334
            },
            {
              "pitch": 55,
              "velocity": 42,
              "position": 6,
              "duration": 0.6666666666666666
            },
            {
              "pitch": 59,
              "velocity": 42,
              "position": 6,
              "duration": 0.6666666666666666
            },
            {
              "pitch": 55,
              "velocity": 48,
              "position": 7.666666666666667,
              "duration": 0.3125
            },
            {
              "pitch": 59,
              "velocity": 48,
              "position": 7.666666666666667,
              "duration": 0.3125
            },
            {
              "pitch": 64,
              "velocity": 44,
              "position": 7.666666666666667,
              "duration": 0.3125
            },
            {
              "pitch": 55,
              "velocity": 67,
              "position": 8.666666666666666,
              "duration": 0.9791666666666666
            },
            {
              "pitch": 59,
              "velocity": 67,
              "position": 8.666666666666666,
              "duration": 0.9791666666666666
            },
            {
              "pitch": 64,
              "velocity": 60,
              "position": 8.666666666666666,
              "duration": 1
            },
            {
              "pitch": 64,
              "velocity": 69,
              "position": 10,
              "duration": 0.3020833333333333
            },
            {
              "pitch": 55,
              "velocity": 61,
              "position": 10,
              "duration": 0.3333333333333333
            },
            {
              "pitch": 59,
              "velocity": 61,
              "position": 10,
              "duration": 0.3333333333333333
            },
            {
              "pitch": 64,
              "velocity": 48,
              "position": 11,
              "duration": 0.3020833333333333
            },
            {
              "pitch": 55,
              "velocity": 50,
              "position": 11,
              "duration": 0.3229166666666667
            },
            {
              "pitch": 59,
              "velocity": 50,
              "position": 11,
              "duration": 0.3229166666666667
            },
            {
              "pitch": 55,
              "velocity": 60,
              "position": 12,
              "duration": 0.3020833333333333
            },
            {
              "pitch": 59,
              "velocity": 60,
              "position": 12,
              "duration": 0.3020833333333333
            },
            {
              "pitch": 64,
              "velocity": 68,
              "position": 12,
              "duration": 0.3229166666666667
            },
            {
              "pitch": 55,
              "velocity": 60,
              "position": 14,
              "duration": 0.6458333333333334
            },
            {
              "pitch": 59,
              "velocity": 60,
              "position": 14,
              "duration": 0.6458333333333334
            },
            {
              "pitch": 64,
              "velocity": 56,
              "position": 14,
              "duration": 0.65625
            },
            {
              "pitch": 55,
              "velocity": 65,
              "position": 15.666666666666666,
              "duration": 3
            },
            {
              "pitch": 59,
              "velocity": 65,
              "position": 15.666666666666666,
              "duration": 3
            },
            {
              "pitch": 64,
              "velocity": 64,
              "position": 15.666666666666666,
              "duration": 3
            },
            {
              "pitch": 55,
              "velocity": 65,
              "position": 19,
              "duration": 0.3125
            },
            {
              "pitch": 59,
              "velocity": 65,
              "position": 19,
              "duration": 0.3125
            },
            {
              "pitch": 64,
              "velocity": 57,
              "position": 19,
              "duration": 0.3125
            },
            {
              "pitch": 64,
              "velocity": 55,
              "position": 21.666666666666668,
              "duration": 0.96875
            },
            {
              "pitch": 55,
              "velocity": 52,
              "position": 21.666666666666668,
              "duration": 0.9791666666666666
            },
            {
              "pitch": 59,
              "velocity": 52,
              "position": 21.666666666666668,
              "duration": 0.9791666666666666
            },
            {
              "pitch": 55,
              "velocity": 68,
              "position": 23,
              "duration": 0.6458333333333334
            },
            {
              "pitch": 59,
              "velocity": 68,
              "position": 23,
              "duration": 0.6458333333333334
            },
            {
              "pitch": 64,
              "velocity": 59,
              "position": 23,
              "duration": 0.6458333333333334
            },
            {
              "pitch": 64,
              "velocity": 65,
              "position": 29,
              "duration": 2.6354166666666665
            },
            {
              "pitch": 55,
              "velocity": 69,
              "position": 29,
              "duration": 2.65625
            },
            {
              "pitch": 59,
              "velocity": 69,
              "position": 29,
              "duration": 2.65625
            },
            {
              "pitch": 55,
              "velocity": 68,
              "position": 32,
              "duration": 0.3125
            },
            {
              "pitch": 59,
              "velocity": 68,
              "position": 32,
              "duration": 0.3125
            },
            {
              "pitch": 64,
              "velocity": 61,
              "position": 32,
              "duration": 0.3229166666666667
            },
            {
              "pitch": 64,
              "velocity": 57,
              "position": 36,
              "duration": 0.3229166666666667
            },
            {
              "pitch": 55,
              "velocity": 56,
              "position": 36,
              "duration": 0.3333333333333333
            },
            {
              "pitch": 59,
              "velocity": 56,
              "position": 36,
              "duration": 0.3333333333333333
            },
            {
              "pitch": 55,
              "velocity": 49,
              "position": 38,
              "duration": 0.96875
            },
            {
              "pitch": 59,
              "velocity": 49,
              "position": 38,
              "duration": 0.96875
            },
            {
              "pitch": 64,
              "velocity": 42,
              "position": 38,
              "duration": 0.9791666666666666
            },
            {
              "pitch": 64,
              "velocity": 62,
              "position": 39.666666666666664,
              "duration": 3.9895833333333335
            },
            {
              "pitch": 55,
              "velocity": 59,
              "position": 39.666666666666664,
              "duration": 4
            },
            {
              "pitch": 59,
              "velocity": 59,
              "position": 39.666666666666664,
              "duration": 4
            },
            {
              "pitch": 64,
              "velocity": 60,
              "position": 45,
              "duration": 2.65625
            },
            {
              "pitch": 55,
              "velocity": 71,
              "position": 45,
              "duration": 2.6666666666666665
            },
            {
              "pitch": 59,
              "velocity": 71,
              "position": 45,
              "duration": 2.6666666666666665
            },
            {
              "pitch": 64,
              "velocity": 52,
              "position": 48,
              "duration": 0.3125
            },
            {
              "pitch": 55,
              "velocity": 57,
              "position": 48,
              "duration": 0.3229166666666667
            },
            {
              "pitch": 59,
              "velocity": 57,
              "position": 48,
              "duration": 0.3229166666666667
            },
            {
              "pitch": 55,
              "velocity": 64,
              "position": 49.666666666666664,
              "duration": 0.3020833333333333
            },
            {
              "pitch": 59,
              "velocity": 64,
              "position": 49.666666666666664,
              "duration": 0.3020833333333333
            },
            {
              "pitch": 64,
              "velocity": 63,
              "position": 49.666666666666664,
              "duration": 0.3333333333333333
            },
            {
              "pitch": 64,
              "velocity": 62,
              "position": 52,
              "duration": 0.3125
            },
            {
              "pitch": 55,
              "velocity": 56,
              "position": 52,
              "duration": 0.3333333333333333
            },
            {
              "pitch": 59,
              "velocity": 56,
              "position": 52,
              "duration": 0.3333333333333333
            },
            {
              "pitch": 55,
              "velocity": 57,
              "position": 53.666666666666664,
              "duration": 0.3333333333333333
            },
            {
              "pitch": 59,
              "velocity": 57,
              "position": 53.666666666666664,
              "duration": 0.3333333333333333
            },
            {
              "pitch": 64,
              "velocity": 60,
              "position": 53.666666666666664,
              "duration": 0.3333333333333333
            },
            {
              "pitch": 55,
              "velocity": 58,
              "position": 56,
              "duration": 0.3020833333333333
            },
            {
              "pitch": 59,
              "velocity": 58,
              "position": 56,
              "duration": 0.3020833333333333
            },
            {
              "pitch": 64,
              "velocity": 61,
              "position": 56,
              "duration": 0.3125
            },
            {
              "pitch": 55,
              "velocity": 62,
              "position": 57.666666666666664,
              "duration": 0.3125
            },
            {
              "pitch": 59,
              "velocity": 62,
              "position": 57.666666666666664,
              "duration": 0.3125
            },
            {
              "pitch": 64,
              "velocity": 67,
              "position": 57.666666666666664,
              "duration": 0.3125
            },
            {
              "pitch": 64,
              "velocity": 56,
              "position": 61,
              "duration": 2.6458333333333335
            },
            {
              "pitch": 55,
              "velocity": 59,
              "position": 61,
              "duration": 2.65625
            },
            {
              "pitch": 59,
              "velocity": 59,
              "position": 61,
              "duration": 2.65625
            }
          ]
        },
        "4": {
          "ctab": {
            "srcChannel": 4,
            "name": "PfRH",
            "accType": "CHORD2",
            "editable": false,
            "mutedNotes": [],
            "mutedChords": [
              "7(13)",
              "7(9)",
              "7b5",
              "7th",
              "min7(9)",
              "min(9)",
              "min6",
              "min",
              "Maj6(9)",
              "Maj7(9)",
              "Maj(9)",
              "Maj7",
              "Maj6",
              "Maj"
            ],
            "autoStart": false,
            "sourceChordNote": 0,
            "sourceChordType": "Maj7",
            "ctb2Low": null,
            "ctb2Main": {
              "ntr": "ROOT_TRANSPOSITION",
              "ntt": "CHORD",
              "bassOn": false,
              "chordRootUpperLimit": 6,
              "noteLowLimit": 67,
              "noteHighLimit": 84,
              "rtr": "PITCH_SHIFT"
            },
            "ctb2High": null
          },
          "notes": [
            {
              "pitch": 67,
              "velocity": 63,
              "position": 0,
              "duration": 0.3333333333333333
            },
            {
              "pitch": 67,
              "velocity": 74,
              "position": 1,
              "duration": 0.6666666666666666
            },
            {
              "pitch": 71,
              "velocity": 75,
              "position": 4,
              "duration": 0.6354166666666666
            },
            {
              "pitch": 67,
              "velocity": 80,
              "position": 4,
              "duration": 0.6458333333333334
            },
            {
              "pitch": 67,
              "velocity": 68,
              "position": 6,
              "duration": 0.6666666666666666
            },
            {
              "pitch": 67,
              "velocity": 55,
              "position": 7.666666666666667,
              "duration": 0.3125
            },
            {
              "pitch": 71,
              "velocity": 53,
              "position": 7.666666666666667,
              "duration": 0.3229166666666667
            },
            {
              "pitch": 71,
              "velocity": 84,
              "position": 8.666666666666666,
              "duration": 0.9791666666666666
            },
            {
              "pitch": 67,
              "velocity": 86,
              "position": 8.666666666666666,
              "duration": 0.9895833333333334
            },
            {
              "pitch": 67,
              "velocity": 73,
              "position": 10,
              "duration": 0.3020833333333333
            },
            {
              "pitch": 71,
              "velocity": 85,
              "position": 10,
              "duration": 0.3229166666666667
            },
            {
              "pitch": 67,
              "velocity": 60,
              "position": 11,
              "duration": 0.3333333333333333
            },
            {
              "pitch": 67,
              "velocity": 70,
              "position": 14,
              "duration": 0.6458333333333334
            },
            {
              "pitch": 67,
              "velocity": 85,
              "position": 15.666666666666666,
              "duration": 2.96875
            },
            {
              "pitch": 71,
              "velocity": 74,
              "position": 15.666666666666666,
              "duration": 3
            },
            {
              "pitch": 71,
              "velocity": 76,
              "position": 19,
              "duration": 0.3125
            },
            {
              "pitch": 67,
              "velocity": 81,
              "position": 19,
              "duration": 0.3229166666666667
            },
            {
              "pitch": 67,
              "velocity": 67,
              "position": 21.666666666666668,
              "duration": 0.96875
            },
            {
              "pitch": 71,
              "velocity": 88,
              "position": 23,
              "duration": 0.6354166666666666
            },
            {
              "pitch": 67,
              "velocity": 80,
              "position": 23,
              "duration": 0.6458333333333334
            },
            {
              "pitch": 67,
              "velocity": 80,
              "position": 29,
              "duration": 2.65625
            },
            {
              "pitch": 71,
              "velocity": 76,
              "position": 29,
              "duration": 2.65625
            },
            {
              "pitch": 76,
              "velocity": 82,
              "position": 32,
              "duration": 0.3020833333333333
            },
            {
              "pitch": 79,
              "velocity": 83,
              "position": 32,
              "duration": 0.3229166666666667
            },
            {
              "pitch": 71,
              "velocity": 85,
              "position": 32,
              "duration": 0.3333333333333333
            },
            {
              "pitch": 71,
              "velocity": 72,
              "position": 36,
              "duration": 0.3020833333333333
            },
            {
              "pitch": 67,
              "velocity": 78,
              "position": 36,
              "duration": 0.3125
            },
            {
              "pitch": 67,
              "velocity": 68,
              "position": 38,
              "duration": 0.9791666666666666
            },
            {
              "pitch": 67,
              "velocity": 84,
              "position": 39.666666666666664,
              "duration": 3.9895833333333335
            },
            {
              "pitch": 71,
              "velocity": 88,
              "position": 39.666666666666664,
              "duration": 4
            },
            {
              "pitch": 71,
              "velocity": 75,
              "position": 45,
              "duration": 2.6354166666666665
            },
            {
              "pitch": 67,
              "velocity": 76,
              "position": 45,
              "duration": 2.6666666666666665
            },
            {
              "pitch": 71,
              "velocity": 79,
              "position": 48,
              "duration": 0.3125
            },
            {
              "pitch": 76,
              "velocity": 67,
              "position": 48,
              "duration": 0.3125
            },
            {
              "pitch": 79,
              "velocity": 75,
              "position": 48,
              "duration": 0.3229166666666667
            },
            {
              "pitch": 71,
              "velocity": 84,
              "position": 49.666666666666664,
              "duration": 0.3125
            },
            {
              "pitch": 79,
              "velocity": 87,
              "position": 49.666666666666664,
              "duration": 0.3229166666666667
            },
            {
              "pitch": 76,
              "velocity": 75,
              "position": 49.666666666666664,
              "duration": 0.3333333333333333
            },
            {
              "pitch": 76,
              "velocity": 69,
              "position": 52,
              "duration": 0.3125
            },
            {
              "pitch": 67,
              "velocity": 76,
              "position": 52,
              "duration": 0.3229166666666667
            },
            {
              "pitch": 71,
              "velocity": 62,
              "position": 52,
              "duration": 0.3333333333333333
            },
            {
              "pitch": 67,
              "velocity": 84,
              "position": 53.666666666666664,
              "duration": 0.3020833333333333
            },
            {
              "pitch": 76,
              "velocity": 80,
              "position": 53.666666666666664,
              "duration": 0.3020833333333333
            },
            {
              "pitch": 71,
              "velocity": 80,
              "position": 53.666666666666664,
              "duration": 0.3229166666666667
            },
            {
              "pitch": 71,
              "velocity": 76,
              "position": 56,
              "duration": 0.3229166666666667
            },
            {
              "pitch": 67,
              "velocity": 70,
              "position": 56,
              "duration": 0.3333333333333333
            },
            {
              "pitch": 71,
              "velocity": 81,
              "position": 57.666666666666664,
              "duration": 0.3020833333333333
            },
            {
              "pitch": 67,
              "velocity": 81,
              "position": 57.666666666666664,
              "duration": 0.3125
            },
            {
              "pitch": 67,
              "velocity": 75,
              "position": 61,
              "duration": 2.65625
            }
          ]
        },
        "5": {
          "ctab": {
            "srcChannel": 5,
            "name": "PfRH Maj",
            "accType": "CHORD2",
            "editable": false,
            "mutedNotes": [],
            "mutedChords": [
              "1+2+5",
              "sus4",
              "1+5",
              "1+8",
              "7aug",
              "Maj7aug",
              "7(#9)",
              "7(b13)",
              "7(b9)",
              "7(13)",
              "7#11",
              "7(9)",
              "7b5",
              "7sus4",
              "7th",
              "dim7",
              "dim",
              "minMaj7(9)",
              "minMaj7",
              "min7(11)",
              "min7(9)",
              "min(9)",
              "m7b5",
              "min7",
              "min6",
              "min",
              "aug",
              "Maj7#11"
            ],
            "autoStart": false,
            "sourceChordNote": 0,
            "sourceChordType": "Maj7",
            "ctb2Low": null,
            "ctb2Main": {
              "ntr": "ROOT_TRANSPOSITION",
              "ntt": "DORIAN_5",
              "bassOn": false,
              "chordRootUpperLimit": 6,
              "noteLowLimit": 67,
              "noteHighLimit": 79,
              "rtr": "PITCH_SHIFT"
            },
            "ctb2High": null
          },
          "notes": [
            {
              "pitch": 69,
              "velocity": 63,
              "position": 0,
              "duration": 0.3333333333333333
            },
            {
              "pitch": 74,
              "velocity": 63,
              "position": 0,
              "duration": 0.3333333333333333
            },
            {
              "pitch": 69,
              "velocity": 74,
              "position": 1,
              "duration": 0.6666666666666666
            },
            {
              "pitch": 74,
              "velocity": 74,
              "position": 1,
              "duration": 0.6666666666666666
            },
            {
              "pitch": 71,
              "velocity": 75,
              "position": 4,
              "duration": 0.6354166666666666
            },
            {
              "pitch": 67,
              "velocity": 80,
              "position": 4,
              "duration": 0.6458333333333334
            },
            {
              "pitch": 67,
              "velocity": 68,
              "position": 6,
              "duration": 0.6666666666666666
            },
            {
              "pitch": 71,
              "velocity": 59,
              "position": 6,
              "duration": 0.6666666666666666
            },
            {
              "pitch": 69,
              "velocity": 55,
              "position": 7.666666666666667,
              "duration": 0.3125
            },
            {
              "pitch": 74,
              "velocity": 53,
              "position": 7.666666666666667,
              "duration": 0.3229166666666667
            },
            {
              "pitch": 74,
              "velocity": 84,
              "position": 8.666666666666666,
              "duration": 0.9791666666666666
            },
            {
              "pitch": 69,
              "velocity": 86,
              "position": 8.666666666666666,
              "duration": 0.9895833333333334
            },
            {
              "pitch": 67,
              "velocity": 73,
              "position": 10,
              "duration": 0.3020833333333333
            },
            {
              "pitch": 71,
              "velocity": 85,
              "position": 10,
              "duration": 0.3229166666666667
            },
            {
              "pitch": 74,
              "velocity": 63,
              "position": 11,
              "duration": 0.3020833333333333
            },
            {
              "pitch": 69,
              "velocity": 60,
              "position": 11,
              "duration": 0.3333333333333333
            },
            {
              "pitch": 71,
              "velocity": 65,
              "position": 14,
              "duration": 0.6354166666666666
            },
            {
              "pitch": 67,
              "velocity": 70,
              "position": 14,
              "duration": 0.6458333333333334
            },
            {
              "pitch": 69,
              "velocity": 85,
              "position": 15.666666666666666,
              "duration": 2.96875
            },
            {
              "pitch": 74,
              "velocity": 74,
              "position": 15.666666666666666,
              "duration": 3
            },
            {
              "pitch": 71,
              "velocity": 76,
              "position": 19,
              "duration": 0.3125
            },
            {
              "pitch": 67,
              "velocity": 81,
              "position": 19,
              "duration": 0.3229166666666667
            },
            {
              "pitch": 67,
              "velocity": 67,
              "position": 21.666666666666668,
              "duration": 0.96875
            },
            {
              "pitch": 71,
              "velocity": 62,
              "position": 21.666666666666668,
              "duration": 0.9791666666666666
            },
            {
              "pitch": 74,
              "velocity": 88,
              "position": 23,
              "duration": 0.6354166666666666
            },
            {
              "pitch": 69,
              "velocity": 80,
              "position": 23,
              "duration": 0.6458333333333334
            },
            {
              "pitch": 67,
              "velocity": 80,
              "position": 29,
              "duration": 2.65625
            },
            {
              "pitch": 71,
              "velocity": 76,
              "position": 29,
              "duration": 2.65625
            },
            {
              "pitch": 76,
              "velocity": 82,
              "position": 32,
              "duration": 0.3020833333333333
            },
            {
              "pitch": 81,
              "velocity": 83,
              "position": 32,
              "duration": 0.3229166666666667
            },
            {
              "pitch": 67,
              "velocity": 85,
              "position": 32,
              "duration": 0.3333333333333333
            },
            {
              "pitch": 71,
              "velocity": 85,
              "position": 32,
              "duration": 0.3333333333333333
            },
            {
              "pitch": 71,
              "velocity": 72,
              "position": 36,
              "duration": 0.3020833333333333
            },
            {
              "pitch": 67,
              "velocity": 78,
              "position": 36,
              "duration": 0.3125
            },
            {
              "pitch": 67,
              "velocity": 68,
              "position": 38,
              "duration": 0.9791666666666666
            },
            {
              "pitch": 71,
              "velocity": 51,
              "position": 38,
              "duration": 0.9895833333333334
            },
            {
              "pitch": 69,
              "velocity": 84,
              "position": 39.666666666666664,
              "duration": 3.9895833333333335
            },
            {
              "pitch": 74,
              "velocity": 88,
              "position": 39.666666666666664,
              "duration": 4
            },
            {
              "pitch": 79,
              "velocity": 88,
              "position": 39.666666666666664,
              "duration": 4
            },
            {
              "pitch": 83,
              "velocity": 88,
              "position": 39.666666666666664,
              "duration": 4
            },
            {
              "pitch": 71,
              "velocity": 75,
              "position": 45,
              "duration": 2.6354166666666665
            },
            {
              "pitch": 76,
              "velocity": 75,
              "position": 45,
              "duration": 2.6354166666666665
            },
            {
              "pitch": 67,
              "velocity": 76,
              "position": 45,
              "duration": 2.6666666666666665
            },
            {
              "pitch": 71,
              "velocity": 79,
              "position": 48,
              "duration": 0.3125
            },
            {
              "pitch": 76,
              "velocity": 67,
              "position": 48,
              "duration": 0.3125
            },
            {
              "pitch": 81,
              "velocity": 75,
              "position": 48,
              "duration": 0.3229166666666667
            },
            {
              "pitch": 71,
              "velocity": 84,
              "position": 49.666666666666664,
              "duration": 0.3125
            },
            {
              "pitch": 81,
              "velocity": 87,
              "position": 49.666666666666664,
              "duration": 0.3229166666666667
            },
            {
              "pitch": 76,
              "velocity": 75,
              "position": 49.666666666666664,
              "duration": 0.3333333333333333
            },
            {
              "pitch": 74,
              "velocity": 69,
              "position": 52,
              "duration": 0.3125
            },
            {
              "pitch": 69,
              "velocity": 62,
              "position": 52,
              "duration": 0.3333333333333333
            },
            {
              "pitch": 79,
              "velocity": 62,
              "position": 52,
              "duration": 0.3333333333333333
            },
            {
              "pitch": 74,
              "velocity": 80,
              "position": 53.666666666666664,
              "duration": 0.3020833333333333
            },
            {
              "pitch": 69,
              "velocity": 80,
              "position": 53.666666666666664,
              "duration": 0.3229166666666667
            },
            {
              "pitch": 79,
              "velocity": 87,
              "position": 53.666666666666664,
              "duration": 0.3229166666666667
            },
            {
              "pitch": 71,
              "velocity": 76,
              "position": 56,
              "duration": 0.3229166666666667
            },
            {
              "pitch": 76,
              "velocity": 76,
              "position": 56,
              "duration": 0.3229166666666667
            },
            {
              "pitch": 67,
              "velocity": 70,
              "position": 56,
              "duration": 0.3333333333333333
            },
            {
              "pitch": 71,
              "velocity": 81,
              "position": 57.666666666666664,
              "duration": 0.3020833333333333
            },
            {
              "pitch": 76,
              "velocity": 81,
              "position": 57.666666666666664,
              "duration": 0.3020833333333333
            },
            {
              "pitch": 67,
              "velocity": 81,
              "position": 57.666666666666664,
              "duration": 0.3125
            },
            {
              "pitch": 74,
              "velocity": 80,
              "position": 61,
              "duration": 2.6354166666666665
            },
            {
              "pitch": 69,
              "velocity": 75,
              "position": 61,
              "duration": 2.65625
            }
          ]
        },
        "6": {
          "ctab": {
            "srcChannel": 6,
            "name": "PfRH min",
            "accType": "CHORD2",
            "editable": false,
            "mutedNotes": [],
            "mutedChords": [
              "1+2+5",
              "sus4",
              "1+5",
              "1+8",
              "7aug",
              "Maj7aug",
              "7(#9)",
              "7(b13)",
              "7(b9)",
              "7(13)",
              "7#11",
              "7(9)",
              "7b5",
              "7sus4",
              "7th",
              "dim7",
              "dim",
              "minMaj7(9)",
              "minMaj7",
              "min7(11)",
              "min7(9)",
              "min(9)",
              "m7b5",
              "min7",
              "aug",
              "Maj6(9)",
              "Maj7(9)",
              "Maj(9)",
              "Maj7#11",
              "Maj7",
              "Maj6",
              "Maj"
            ],
            "autoStart": false,
            "sourceChordNote": 0,
            "sourceChordType": "Maj7",
            "ctb2Low": null,
            "ctb2Main": {
              "ntr": "ROOT_TRANSPOSITION",
              "ntt": "DORIAN_5",
              "bassOn": false,
              "chordRootUpperLimit": 6,
              "noteLowLimit": 67,
              "noteHighLimit": 79,
              "rtr": "PITCH_SHIFT"
            },
            "ctb2High": null
          },
          "notes": [
            {
              "pitch": 69,
              "velocity": 63,
              "position": 0,
              "duration": 0.3333333333333333
            },
            {
              "pitch": 72,
              "velocity": 63,
              "position": 0,
              "duration": 0.3333333333333333
            },
            {
              "pitch": 76,
              "velocity": 63,
              "position": 0,
              "duration": 0.3333333333333333
            },
            {
              "pitch": 69,
              "velocity": 74,
              "position": 1,
              "duration": 0.6666666666666666
            },
            {
              "pitch": 72,
              "velocity": 74,
              "position": 1,
              "duration": 0.6666666666666666
            },
            {
              "pitch": 76,
              "velocity": 74,
              "position": 1,
              "duration": 0.6666666666666666
            },
            {
              "pitch": 74,
              "velocity": 75,
              "position": 4,
              "duration": 0.6354166666666666
            },
            {
              "pitch": 70,
              "velocity": 80,
              "position": 4,
              "duration": 0.6458333333333334
            },
            {
              "pitch": 70,
              "velocity": 68,
              "position": 6,
              "duration": 0.6666666666666666
            },
            {
              "pitch": 74,
              "velocity": 59,
              "position": 6,
              "duration": 0.6666666666666666
            },
            {
              "pitch": 69,
              "velocity": 55,
              "position": 7.666666666666667,
              "duration": 0.3125
            },
            {
              "pitch": 72,
              "velocity": 53,
              "position": 7.666666666666667,
              "duration": 0.3229166666666667
            },
            {
              "pitch": 74,
              "velocity": 84,
              "position": 8.666666666666666,
              "duration": 0.9791666666666666
            },
            {
              "pitch": 70,
              "velocity": 86,
              "position": 8.666666666666666,
              "duration": 0.9895833333333334
            },
            {
              "pitch": 69,
              "velocity": 73,
              "position": 10,
              "duration": 0.3020833333333333
            },
            {
              "pitch": 72,
              "velocity": 85,
              "position": 10,
              "duration": 0.3229166666666667
            },
            {
              "pitch": 76,
              "velocity": 85,
              "position": 10,
              "duration": 0.3229166666666667
            },
            {
              "pitch": 74,
              "velocity": 63,
              "position": 11,
              "duration": 0.3020833333333333
            },
            {
              "pitch": 70,
              "velocity": 60,
              "position": 11,
              "duration": 0.3333333333333333
            },
            {
              "pitch": 69,
              "velocity": 49,
              "position": 12,
              "duration": 0.3020833333333333
            },
            {
              "pitch": 72,
              "velocity": 49,
              "position": 12,
              "duration": 0.3020833333333333
            },
            {
              "pitch": 74,
              "velocity": 65,
              "position": 14,
              "duration": 0.6354166666666666
            },
            {
              "pitch": 70,
              "velocity": 70,
              "position": 14,
              "duration": 0.6458333333333334
            },
            {
              "pitch": 69,
              "velocity": 85,
              "position": 15.666666666666666,
              "duration": 2.96875
            },
            {
              "pitch": 72,
              "velocity": 74,
              "position": 15.666666666666666,
              "duration": 3
            },
            {
              "pitch": 76,
              "velocity": 74,
              "position": 15.666666666666666,
              "duration": 3
            },
            {
              "pitch": 74,
              "velocity": 76,
              "position": 19,
              "duration": 0.3125
            },
            {
              "pitch": 70,
              "velocity": 81,
              "position": 19,
              "duration": 0.3229166666666667
            },
            {
              "pitch": 70,
              "velocity": 67,
              "position": 21.666666666666668,
              "duration": 0.96875
            },
            {
              "pitch": 74,
              "velocity": 62,
              "position": 21.666666666666668,
              "duration": 0.9791666666666666
            },
            {
              "pitch": 72,
              "velocity": 88,
              "position": 23,
              "duration": 0.6354166666666666
            },
            {
              "pitch": 69,
              "velocity": 80,
              "position": 23,
              "duration": 0.6458333333333334
            },
            {
              "pitch": 70,
              "velocity": 80,
              "position": 29,
              "duration": 2.65625
            },
            {
              "pitch": 74,
              "velocity": 76,
              "position": 29,
              "duration": 2.65625
            },
            {
              "pitch": 79,
              "velocity": 82,
              "position": 32,
              "duration": 0.3020833333333333
            },
            {
              "pitch": 84,
              "velocity": 83,
              "position": 32,
              "duration": 0.3229166666666667
            },
            {
              "pitch": 69,
              "velocity": 85,
              "position": 32,
              "duration": 0.3333333333333333
            },
            {
              "pitch": 74,
              "velocity": 85,
              "position": 32,
              "duration": 0.3333333333333333
            },
            {
              "pitch": 81,
              "velocity": 72,
              "position": 36,
              "duration": 0.3020833333333333
            },
            {
              "pitch": 69,
              "velocity": 78,
              "position": 36,
              "duration": 0.3125
            },
            {
              "pitch": 72,
              "velocity": 78,
              "position": 36,
              "duration": 0.3125
            },
            {
              "pitch": 76,
              "velocity": 78,
              "position": 36,
              "duration": 0.3125
            },
            {
              "pitch": 69,
              "velocity": 68,
              "position": 38,
              "duration": 0.9791666666666666
            },
            {
              "pitch": 72,
              "velocity": 68,
              "position": 38,
              "duration": 0.9791666666666666
            },
            {
              "pitch": 76,
              "velocity": 68,
              "position": 38,
              "duration": 0.9791666666666666
            },
            {
              "pitch": 81,
              "velocity": 51,
              "position": 38,
              "duration": 0.9895833333333334
            },
            {
              "pitch": 69,
              "velocity": 84,
              "position": 39.666666666666664,
              "duration": 3.9895833333333335
            },
            {
              "pitch": 74,
              "velocity": 88,
              "position": 39.666666666666664,
              "duration": 4
            },
            {
              "pitch": 79,
              "velocity": 88,
              "position": 39.666666666666664,
              "duration": 4
            },
            {
              "pitch": 72,
              "velocity": 75,
              "position": 45,
              "duration": 2.6354166666666665
            },
            {
              "pitch": 76,
              "velocity": 75,
              "position": 45,
              "duration": 2.6354166666666665
            },
            {
              "pitch": 69,
              "velocity": 76,
              "position": 45,
              "duration": 2.6666666666666665
            },
            {
              "pitch": 72,
              "velocity": 79,
              "position": 48,
              "duration": 0.3125
            },
            {
              "pitch": 76,
              "velocity": 67,
              "position": 48,
              "duration": 0.3125
            },
            {
              "pitch": 81,
              "velocity": 75,
              "position": 48,
              "duration": 0.3229166666666667
            },
            {
              "pitch": 72,
              "velocity": 84,
              "position": 49.666666666666664,
              "duration": 0.3125
            },
            {
              "pitch": 81,
              "velocity": 87,
              "position": 49.666666666666664,
              "duration": 0.3229166666666667
            },
            {
              "pitch": 76,
              "velocity": 75,
              "position": 49.666666666666664,
              "duration": 0.3333333333333333
            },
            {
              "pitch": 74,
              "velocity": 69,
              "position": 52,
              "duration": 0.3125
            },
            {
              "pitch": 70,
              "velocity": 62,
              "position": 52,
              "duration": 0.3333333333333333
            },
            {
              "pitch": 79,
              "velocity": 62,
              "position": 52,
              "duration": 0.3333333333333333
            },
            {
              "pitch": 74,
              "velocity": 80,
              "position": 53.666666666666664,
              "duration": 0.3020833333333333
            },
            {
              "pitch": 70,
              "velocity": 80,
              "position": 53.666666666666664,
              "duration": 0.3229166666666667
            },
            {
              "pitch": 79,
              "velocity": 87,
              "position": 53.666666666666664,
              "duration": 0.3229166666666667
            },
            {
              "pitch": 72,
              "velocity": 76,
              "position": 56,
              "duration": 0.3229166666666667
            },
            {
              "pitch": 76,
              "velocity": 76,
              "position": 56,
              "duration": 0.3229166666666667
            },
            {
              "pitch": 69,
              "velocity": 70,
              "position": 56,
              "duration": 0.3333333333333333
            },
            {
              "pitch": 72,
              "velocity": 81,
              "position": 57.666666666666664,
              "duration": 0.3020833333333333
            },
            {
              "pitch": 76,
              "velocity": 81,
              "position": 57.666666666666664,
              "duration": 0.3020833333333333
            },
            {
              "pitch": 69,
              "velocity": 81,
              "position": 57.666666666666664,
              "duration": 0.3125
            },
            {
              "pitch": 74,
              "velocity": 80,
              "position": 61,
              "duration": 2.6354166666666665
            },
            {
              "pitch": 70,
              "velocity": 75,
              "position": 61,
              "duration": 2.65625
            }
          ]
        },
        "7": {
          "ctab": {
            "srcChannel": 7,
            "name": "PfRH 7th",
            "accType": "CHORD2",
            "editable": false,
            "mutedNotes": [],
            "mutedChords": [
              "1+2+5",
              "sus4",
              "1+5",
              "1+8",
              "7aug",
              "Maj7aug",
              "7(#9)",
              "7(b13)",
              "7(b9)",
              "7#11",
              "7sus4",
              "dim7",
              "dim",
              "minMaj7(9)",
              "minMaj7",
              "min7(11)",
              "m7b5",
              "min7",
              "min6",
              "min",
              "aug",
              "Maj6(9)",
              "Maj7(9)",
              "Maj(9)",
              "Maj7#11",
              "Maj7",
              "Maj6",
              "Maj"
            ],
            "autoStart": false,
            "sourceChordNote": 0,
            "sourceChordType": "Maj7",
            "ctb2Low": null,
            "ctb2Main": {
              "ntr": "ROOT_TRANSPOSITION",
              "ntt": "DORIAN_5",
              "bassOn": false,
              "chordRootUpperLimit": 6,
              "noteLowLimit": 67,
              "noteHighLimit": 79,
              "rtr": "PITCH_SHIFT"
            },
            "ctb2High": null
          },
          "notes": [
            {
              "pitch": 70,
              "velocity": 63,
              "position": 0,
              "duration": 0.3333333333333333
            },
            {
              "pitch": 74,
              "velocity": 63,
              "position": 0,
              "duration": 0.3333333333333333
            },
            {
              "pitch": 70,
              "velocity": 74,
              "position": 1,
              "duration": 0.6666666666666666
            },
            {
              "pitch": 74,
              "velocity": 74,
              "position": 1,
              "duration": 0.6666666666666666
            },
            {
              "pitch": 74,
              "velocity": 75,
              "position": 4,
              "duration": 0.6354166666666666
            },
            {
              "pitch": 69,
              "velocity": 80,
              "position": 4,
              "duration": 0.6458333333333334
            },
            {
              "pitch": 69,
              "velocity": 68,
              "position": 6,
              "duration": 0.6666666666666666
            },
            {
              "pitch": 74,
              "velocity": 59,
              "position": 6,
              "duration": 0.6666666666666666
            },
            {
              "pitch": 70,
              "velocity": 55,
              "position": 7.666666666666667,
              "duration": 0.3125
            },
            {
              "pitch": 74,
              "velocity": 53,
              "position": 7.666666666666667,
              "duration": 0.3229166666666667
            },
            {
              "pitch": 74,
              "velocity": 84,
              "position": 8.666666666666666,
              "duration": 0.9791666666666666
            },
            {
              "pitch": 70,
              "velocity": 86,
              "position": 8.666666666666666,
              "duration": 0.9895833333333334
            },
            {
              "pitch": 69,
              "velocity": 73,
              "position": 10,
              "duration": 0.3020833333333333
            },
            {
              "pitch": 74,
              "velocity": 85,
              "position": 10,
              "duration": 0.3229166666666667
            },
            {
              "pitch": 74,
              "velocity": 63,
              "position": 11,
              "duration": 0.3020833333333333
            },
            {
              "pitch": 70,
              "velocity": 60,
              "position": 11,
              "duration": 0.3333333333333333
            },
            {
              "pitch": 74,
              "velocity": 65,
              "position": 14,
              "duration": 0.6354166666666666
            },
            {
              "pitch": 69,
              "velocity": 70,
              "position": 14,
              "duration": 0.6458333333333334
            },
            {
              "pitch": 70,
              "velocity": 85,
              "position": 15.666666666666666,
              "duration": 2.96875
            },
            {
              "pitch": 74,
              "velocity": 74,
              "position": 15.666666666666666,
              "duration": 3
            },
            {
              "pitch": 74,
              "velocity": 76,
              "position": 19,
              "duration": 0.3125
            },
            {
              "pitch": 69,
              "velocity": 81,
              "position": 19,
              "duration": 0.3229166666666667
            },
            {
              "pitch": 69,
              "velocity": 67,
              "position": 21.666666666666668,
              "duration": 0.96875
            },
            {
              "pitch": 74,
              "velocity": 62,
              "position": 21.666666666666668,
              "duration": 0.9791666666666666
            },
            {
              "pitch": 74,
              "velocity": 88,
              "position": 23,
              "duration": 0.6354166666666666
            },
            {
              "pitch": 70,
              "velocity": 80,
              "position": 23,
              "duration": 0.6458333333333334
            },
            {
              "pitch": 69,
              "velocity": 80,
              "position": 29,
              "duration": 2.65625
            },
            {
              "pitch": 74,
              "velocity": 76,
              "position": 29,
              "duration": 2.65625
            },
            {
              "pitch": 79,
              "velocity": 82,
              "position": 32,
              "duration": 0.3020833333333333
            },
            {
              "pitch": 84,
              "velocity": 83,
              "position": 32,
              "duration": 0.3229166666666667
            },
            {
              "pitch": 69,
              "velocity": 85,
              "position": 32,
              "duration": 0.3333333333333333
            },
            {
              "pitch": 74,
              "velocity": 85,
              "position": 32,
              "duration": 0.3333333333333333
            },
            {
              "pitch": 74,
              "velocity": 72,
              "position": 36,
              "duration": 0.3020833333333333
            },
            {
              "pitch": 69,
              "velocity": 78,
              "position": 36,
              "duration": 0.3125
            },
            {
              "pitch": 69,
              "velocity": 68,
              "position": 38,
              "duration": 0.9791666666666666
            },
            {
              "pitch": 74,
              "velocity": 51,
              "position": 38,
              "duration": 0.9895833333333334
            },
            {
              "pitch": 69,
              "velocity": 84,
              "position": 39.666666666666664,
              "duration": 3.9895833333333335
            },
            {
              "pitch": 74,
              "velocity": 88,
              "position": 39.666666666666664,
              "duration": 4
            },
            {
              "pitch": 79,
              "velocity": 88,
              "position": 39.666666666666664,
              "duration": 4
            },
            {
              "pitch": 74,
              "velocity": 75,
              "position": 45,
              "duration": 2.6354166666666665
            },
            {
              "pitch": 69,
              "velocity": 76,
              "position": 45,
              "duration": 2.6666666666666665
            },
            {
              "pitch": 70,
              "velocity": 79,
              "position": 48,
              "duration": 0.3125
            },
            {
              "pitch": 76,
              "velocity": 67,
              "position": 48,
              "duration": 0.3125
            },
            {
              "pitch": 81,
              "velocity": 75,
              "position": 48,
              "duration": 0.3229166666666667
            },
            {
              "pitch": 70,
              "velocity": 84,
              "position": 49.666666666666664,
              "duration": 0.3125
            },
            {
              "pitch": 81,
              "velocity": 87,
              "position": 49.666666666666664,
              "duration": 0.3229166666666667
            },
            {
              "pitch": 76,
              "velocity": 75,
              "position": 49.666666666666664,
              "duration": 0.3333333333333333
            },
            {
              "pitch": 74,
              "velocity": 69,
              "position": 52,
              "duration": 0.3125
            },
            {
              "pitch": 69,
              "velocity": 62,
              "position": 52,
              "duration": 0.3333333333333333
            },
            {
              "pitch": 79,
              "velocity": 62,
              "position": 52,
              "duration": 0.3333333333333333
            },
            {
              "pitch": 74,
              "velocity": 80,
              "position": 53.666666666666664,
              "duration": 0.3020833333333333
            },
            {
              "pitch": 69,
              "velocity": 80,
              "position": 53.666666666666664,
              "duration": 0.3229166666666667
            },
            {
              "pitch": 79,
              "velocity": 87,
              "position": 53.666666666666664,
              "duration": 0.3229166666666667
            },
            {
              "pitch": 72,
              "velocity": 76,
              "position": 56,
              "duration": 0.3229166666666667
            },
            {
              "pitch": 76,
              "velocity": 76,
              "position": 56,
              "duration": 0.3229166666666667
            },
            {
              "pitch": 69,
              "velocity": 70,
              "position": 56,
              "duration": 0.3333333333333333
            },
            {
              "pitch": 72,
              "velocity": 81,
              "position": 57.666666666666664,
              "duration": 0.3020833333333333
            },
            {
              "pitch": 76,
              "velocity": 81,
              "position": 57.666666666666664,
              "duration": 0.3020833333333333
            },
            {
              "pitch": 69,
              "velocity": 81,
              "position": 57.666666666666664,
              "duration": 0.3125
            },
            {
              "pitch": 74,
              "velocity": 80,
              "position": 61,
              "duration": 2.6354166666666665
            },
            {
              "pitch": 70,
              "velocity": 75,
              "position": 61,
              "duration": 2.65625
            }
          ]
        },
        "8": {
          "ctab": {
            "srcChannel": 8,
            "name": "DrSolo",
            "accType": "SUBRHYTHM",
            "editable": false,
            "mutedNotes": [],
            "mutedChords": [],
            "autoStart": true,
            "sourceChordNote": 0,
            "sourceChordType": "Maj7",
            "ctb2Low": null,
            "ctb2Main": {
              "ntr": "ROOT_FIXED",
              "ntt": "BYPASS",
              "bassOn": false,
              "chordRootUpperLimit": 6,
              "noteLowLimit": 0,
              "noteHighLimit": 127,
              "rtr": "PITCH_SHIFT"
            },
            "ctb2High": null
          },
          "notes": []
        },
        "9": {
          "ctab": {
            "srcChannel": 9,
            "name": "Drs",
            "accType": "RHYTHM",
            "editable": false,
            "mutedNotes": [],
            "mutedChords": [],
            "autoStart": true,
            "sourceChordNote": 0,
            "sourceChordType": "Maj7",
            "ctb2Low": null,
            "ctb2Main": {
              "ntr": "ROOT_FIXED",
              "ntt": "BYPASS",
              "bassOn": false,
              "chordRootUpperLimit": 6,
              "noteLowLimit": 0,
              "noteHighLimit": 127,
              "rtr": "PITCH_SHIFT"
            },
            "ctb2High": null
          },
          "notes": [
            {
              "pitch": 46,
              "velocity": 70,
              "position": 0,
              "duration": 0.010416666666666666
            },
            {
              "pitch": 42,
              "velocity": 80,
              "position": 1,
              "duration": 0.010416666666666666
            },
            {
              "pitch": 46,
              "velocity": 38,
              "position": 1.625,
              "duration": 0.010416666666666666
            },
            {
              "pitch": 46,
              "velocity": 70,
              "position": 2,
              "duration": 0.010416666666666666
            },
            {
              "pitch": 42,
              "velocity": 75,
              "position": 3,
              "duration": 0.010416666666666666
            },
            {
              "pitch": 46,
              "velocity": 37,
              "position": 3.625,
              "duration": 0.010416666666666666
            },
            {
              "pitch": 46,
              "velocity": 70,
              "position": 4,
              "duration": 0.010416666666666666
            },
            {
              "pitch": 42,
              "velocity": 87,
              "position": 5,
              "duration": 0.010416666666666666
            },
            {
              "pitch": 46,
              "velocity": 31,
              "position": 5.625,
              "duration": 0.010416666666666666
            },
            {
              "pitch": 46,
              "velocity": 70,
              "position": 6,
              "duration": 0.010416666666666666
            },
            {
              "pitch": 42,
              "velocity": 81,
              "position": 7,
              "duration": 0.010416666666666666
            },
            {
              "pitch": 46,
              "velocity": 31,
              "position": 7.625,
              "duration": 0.010416666666666666
            },
            {
              "pitch": 46,
              "velocity": 70,
              "position": 8,
              "duration": 0.010416666666666666
            },
            {
              "pitch": 38,
              "velocity": 68,
              "position": 8.666666666666666,
              "duration": 0.010416666666666666
            },
            {
              "pitch": 42,
              "velocity": 89,
              "position": 9,
              "duration": 0.010416666666666666
            },
            {
              "pitch": 46,
              "velocity": 33,
              "position": 9.625,
              "duration": 0.010416666666666666
            },
            {
              "pitch": 46,
              "velocity": 70,
              "position": 10,
              "duration": 0.010416666666666666
            },
            {
              "pitch": 42,
              "velocity": 89,
              "position": 11,
              "duration": 0.010416666666666666
            },
            {
              "pitch": 46,
              "velocity": 26,
              "position": 11.625,
              "duration": 0.010416666666666666
            },
            {
              "pitch": 46,
              "velocity": 70,
              "position": 12,
              "duration": 0.010416666666666666
            },
            {
              "pitch": 33,
              "velocity": 78,
              "position": 12.666666666666666,
              "duration": 0.010416666666666666
            },
            {
              "pitch": 46,
              "velocity": 65,
              "position": 13,
              "duration": 0.010416666666666666
            },
            {
              "pitch": 42,
              "velocity": 78,
              "position": 14,
              "duration": 0.010416666666666666
            },
            {
              "pitch": 46,
              "velocity": 40,
              "position": 14.625,
              "duration": 0.010416666666666666
            },
            {
              "pitch": 46,
              "velocity": 70,
              "position": 15,
              "duration": 0.010416666666666666
            },
            {
              "pitch": 46,
              "velocity": 34,
              "position": 15.625,
              "duration": 0.010416666666666666
            },
            {
              "pitch": 46,
              "velocity": 70,
              "position": 16,
              "duration": 0.010416666666666666
            },
            {
              "pitch": 42,
              "velocity": 72,
              "position": 17,
              "duration": 0.010416666666666666
            },
            {
              "pitch": 46,
              "velocity": 37,
              "position": 17.625,
              "duration": 0.010416666666666666
            },
            {
              "pitch": 46,
              "velocity": 70,
              "position": 18,
              "duration": 0.010416666666666666
            },
            {
              "pitch": 42,
              "velocity": 79,
              "position": 19,
              "duration": 0.010416666666666666
            },
            {
              "pitch": 46,
              "velocity": 25,
              "position": 19.625,
              "duration": 0.010416666666666666
            },
            {
              "pitch": 46,
              "velocity": 70,
              "position": 20,
              "duration": 0.010416666666666666
            },
            {
              "pitch": 46,
              "velocity": 70,
              "position": 21,
              "duration": 0.010416666666666666
            },
            {
              "pitch": 42,
              "velocity": 75,
              "position": 22,
              "duration": 0.010416666666666666
            },
            {
              "pitch": 46,
              "velocity": 28,
              "position": 22.625,
              "duration": 0.010416666666666666
            },
            {
              "pitch": 46,
              "velocity": 70,
              "position": 23,
              "duration": 0.010416666666666666
            },
            {
              "pitch": 46,
              "velocity": 35,
              "position": 23.625,
              "duration": 0.010416666666666666
            },
            {
              "pitch": 46,
              "velocity": 68,
              "position": 24,
              "duration": 0.010416666666666666
            },
            {
              "pitch": 42,
              "velocity": 71,
              "position": 25,
              "duration": 0.010416666666666666
            },
            {
              "pitch": 46,
              "velocity": 32,
              "position": 25.625,
              "duration": 0.010416666666666666
            },
            {
              "pitch": 46,
              "velocity": 70,
              "position": 26,
              "duration": 0.010416666666666666
            },
            {
              "pitch": 42,
              "velocity": 86,
              "position": 27,
              "duration": 0.010416666666666666
            },
            {
              "pitch": 46,
              "velocity": 27,
              "position": 27.625,
              "duration": 0.010416666666666666
            },
            {
              "pitch": 46,
              "velocity": 70,
              "position": 28,
              "duration": 0.010416666666666666
            },
            {
              "pitch": 38,
              "velocity": 52,
              "position": 29,
              "duration": 0.010416666666666666
            },
            {
              "pitch": 42,
              "velocity": 82,
              "position": 29,
              "duration": 0.010416666666666666
            },
            {
              "pitch": 46,
              "velocity": 41,
              "position": 29.625,
              "duration": 0.010416666666666666
            },
            {
              "pitch": 46,
              "velocity": 70,
              "position": 30,
              "duration": 0.010416666666666666
            },
            {
              "pitch": 33,
              "velocity": 44,
              "position": 30.666666666666668,
              "duration": 0.010416666666666666
            },
            {
              "pitch": 33,
              "velocity": 78,
              "position": 31,
              "duration": 0.010416666666666666
            },
            {
              "pitch": 49,
              "velocity": 40,
              "position": 31,
              "duration": 0.010416666666666666
            },
            {
              "pitch": 59,
              "velocity": 115,
              "position": 31,
              "duration": 0.010416666666666666
            },
            {
              "pitch": 46,
              "velocity": 32,
              "position": 31.625,
              "duration": 0.010416666666666666
            },
            {
              "pitch": 46,
              "velocity": 70,
              "position": 32,
              "duration": 0.010416666666666666
            },
            {
              "pitch": 42,
              "velocity": 84,
              "position": 33,
              "duration": 0.010416666666666666
            },
            {
              "pitch": 46,
              "velocity": 34,
              "position": 33.625,
              "duration": 0.010416666666666666
            },
            {
              "pitch": 46,
              "velocity": 70,
              "position": 34,
              "duration": 0.010416666666666666
            },
            {
              "pitch": 38,
              "velocity": 59,
              "position": 34.666666666666664,
              "duration": 0.010416666666666666
            },
            {
              "pitch": 42,
              "velocity": 71,
              "position": 35,
              "duration": 0.010416666666666666
            },
            {
              "pitch": 46,
              "velocity": 32,
              "position": 35.625,
              "duration": 0.010416666666666666
            },
            {
              "pitch": 46,
              "velocity": 70,
              "position": 36,
              "duration": 0.010416666666666666
            },
            {
              "pitch": 42,
              "velocity": 80,
              "position": 37,
              "duration": 0.010416666666666666
            },
            {
              "pitch": 46,
              "velocity": 34,
              "position": 37.625,
              "duration": 0.010416666666666666
            },
            {
              "pitch": 46,
              "velocity": 70,
              "position": 38,
              "duration": 0.010416666666666666
            },
            {
              "pitch": 46,
              "velocity": 67,
              "position": 39,
              "duration": 0.010416666666666666
            },
            {
              "pitch": 46,
              "velocity": 43,
              "position": 39.625,
              "duration": 0.010416666666666666
            },
            {
              "pitch": 46,
              "velocity": 70,
              "position": 40,
              "duration": 0.010416666666666666
            },
            {
              "pitch": 42,
              "velocity": 84,
              "position": 41,
              "duration": 0.010416666666666666
            },
            {
              "pitch": 46,
              "velocity": 35,
              "position": 41.625,
              "duration": 0.010416666666666666
            },
            {
              "pitch": 46,
              "velocity": 70,
              "position": 42,
              "duration": 0.010416666666666666
            },
            {
              "pitch": 38,
              "velocity": 51,
              "position": 42.666666666666664,
              "duration": 0.010416666666666666
            },
            {
              "pitch": 42,
              "velocity": 75,
              "position": 43,
              "duration": 0.010416666666666666
            },
            {
              "pitch": 46,
              "velocity": 33,
              "position": 43.625,
              "duration": 0.010416666666666666
            },
            {
              "pitch": 46,
              "velocity": 70,
              "position": 44,
              "duration": 0.010416666666666666
            },
            {
              "pitch": 42,
              "velocity": 71,
              "position": 45,
              "duration": 0.010416666666666666
            },
            {
              "pitch": 46,
              "velocity": 41,
              "position": 45.625,
              "duration": 0.010416666666666666
            },
            {
              "pitch": 46,
              "velocity": 69,
              "position": 46,
              "duration": 0.010416666666666666
            },
            {
              "pitch": 38,
              "velocity": 18,
              "position": 46.666666666666664,
              "duration": 0.010416666666666666
            },
            {
              "pitch": 38,
              "velocity": 55,
              "position": 47,
              "duration": 0.010416666666666666
            },
            {
              "pitch": 42,
              "velocity": 76,
              "position": 47,
              "duration": 0.010416666666666666
            },
            {
              "pitch": 46,
              "velocity": 33,
              "position": 47.625,
              "duration": 0.010416666666666666
            },
            {
              "pitch": 46,
              "velocity": 70,
              "position": 48,
              "duration": 0.010416666666666666
            },
            {
              "pitch": 42,
              "velocity": 72,
              "position": 49,
              "duration": 0.010416666666666666
            },
            {
              "pitch": 46,
              "velocity": 41,
              "position": 49.625,
              "duration": 0.010416666666666666
            },
            {
              "pitch": 46,
              "velocity": 70,
              "position": 50,
              "duration": 0.010416666666666666
            },
            {
              "pitch": 38,
              "velocity": 64,
              "position": 50.666666666666664,
              "duration": 0.010416666666666666
            },
            {
              "pitch": 42,
              "velocity": 72,
              "position": 51,
              "duration": 0.010416666666666666
            },
            {
              "pitch": 46,
              "velocity": 28,
              "position": 51.625,
              "duration": 0.010416666666666666
            },
            {
              "pitch": 46,
              "velocity": 66,
              "position": 52,
              "duration": 0.010416666666666666
            },
            {
              "pitch": 42,
              "velocity": 79,
              "position": 53,
              "duration": 0.010416666666666666
            },
            {
              "pitch": 46,
              "velocity": 39,
              "position": 53.625,
              "duration": 0.010416666666666666
            },
            {
              "pitch": 46,
              "velocity": 70,
              "position": 54,
              "duration": 0.010416666666666666
            },
            {
              "pitch": 38,
              "velocity": 60,
              "position": 55,
              "duration": 0.010416666666666666
            },
            {
              "pitch": 42,
              "velocity": 72,
              "position": 55,
              "duration": 0.010416666666666666
            },
            {
              "pitch": 46,
              "velocity": 37,
              "position": 55.625,
              "duration": 0.010416666666666666
            },
            {
              "pitch": 46,
              "velocity": 70,
              "position": 56,
              "duration": 0.010416666666666666
            },
            {
              "pitch": 42,
              "velocity": 79,
              "position": 57,
              "duration": 0.010416666666666666
            },
            {
              "pitch": 46,
              "velocity": 28,
              "position": 57.625,
              "duration": 0.010416666666666666
            },
            {
              "pitch": 38,
              "velocity": 54,
              "position": 57.666666666666664,
              "duration": 0.010416666666666666
            },
            {
              "pitch": 46,
              "velocity": 70,
              "position": 58,
              "duration": 0.010416666666666666
            },
            {
              "pitch": 42,
              "velocity": 75,
              "position": 59,
              "duration": 0.010416666666666666
            },
            {
              "pitch": 46,
              "velocity": 30,
              "position": 59.625,
              "duration": 0.010416666666666666
            },
            {
              "pitch": 46,
              "velocity": 70,
              "position": 60,
              "duration": 0.010416666666666666
            },
            {
              "pitch": 38,
              "velocity": 58,
              "position": 60.666666666666664,
              "duration": 0.010416666666666666
            },
            {
              "pitch": 42,
              "velocity": 80,
              "position": 61,
              "duration": 0.010416666666666666
            },
            {
              "pitch": 46,
              "velocity": 39,
              "position": 61.625,
              "duration": 0.010416666666666666
            },
            {
              "pitch": 46,
              "velocity": 70,
              "position": 62,
              "duration": 0.010416666666666666
            },
            {
              "pitch": 38,
              "velocity": 63,
              "position": 62.666666666666664,
              "duration": 0.010416666666666666
            },
            {
              "pitch": 46,
              "velocity": 70,
              "position": 63,
              "duration": 0.010416666666666666
            },
            {
              "pitch": 46,
              "velocity": 30,
              "position": 63.625,
              "duration": 0.010416666666666666
            }
          ]
        }
      }
    },
    "Main_B": {
      "type": "Main_B",
      "sizeInBeats": 64,
      "channels": {
        "0": {
          "ctab": {
            "srcChannel": 0,
            "name": "Bass mM7",
            "accType": "BASS",
            "editable": false,
            "mutedNotes": [],
            "mutedChords": [
              "1+2+5",
              "7aug",
              "Maj7aug",
              "7(#9)",
              "7(b13)",
              "7(b9)",
              "7(13)",
              "7#11",
              "7(9)",
              "7b5",
              "7th",
              "dim7",
              "dim",
              "min7(11)",
              "min7(9)",
              "min(9)",
              "m7b5",
              "min7",
              "min6",
              "min",
              "aug",
              "Maj6(9)",
              "Maj7(9)",
              "Maj(9)",
              "Maj7#11",
              "Maj7",
              "Maj6",
              "Maj"
            ],
            "autoStart": false,
            "sourceChordNote": 0,
            "sourceChordType": "Maj7",
            "ctb2Low": null,
            "ctb2Main": {
              "ntr": "ROOT_TRANSPOSITION",
              "ntt": "MELODY",
              "bassOn": true,
              "chordRootUpperLimit": 4,
              "noteLowLimit": 28,
              "noteHighLimit": 127,
              "rtr": "PITCH_SHIFT_TO_ROOT"
            },
            "ctb2High": null
          },
          "notes": [
            {
              "pitch": 48,
              "velocity": 60,
              "position": 0,
              "duration": 0.9895833333333334
            },
            {
              "pitch": 40,
              "velocity": 60,
              "position": 1,
              "duration": 0.9895833333333334
            },
            {
              "pitch": 45,
              "velocity": 60,
              "position": 2,
              "duration": 0.9895833333333334
            },
            {
              "pitch": 43,
              "velocity": 60,
              "position": 3,
              "duration": 0.9895833333333334
            },
            {
              "pitch": 43,
              "velocity": 60,
              "position": 4,
              "duration": 0.9895833333333334
            },
            {
              "pitch": 38,
              "velocity": 60,
              "position": 5,
              "duration": 0.9895833333333334
            },
            {
              "pitch": 40,
              "velocity": 60,
              "position": 6,
              "duration": 0.9895833333333334
            },
            {
              "pitch": 43,
              "velocity": 60,
              "position": 7,
              "duration": 0.9895833333333334
            },
            {
              "pitch": 36,
              "velocity": 60,
              "position": 8,
              "duration": 0.9895833333333334
            },
            {
              "pitch": 43,
              "velocity": 60,
              "position": 9,
              "duration": 0.5729166666666666
            },
            {
              "pitch": 36,
              "velocity": 40,
              "position": 9.583333333333334,
              "duration": 0.2916666666666667
            },
            {
              "pitch": 47,
              "velocity": 60,
              "position": 10,
              "duration": 0.9895833333333334
            },
            {
              "pitch": 43,
              "velocity": 60,
              "position": 11,
              "duration": 0.5729166666666666
            },
            {
              "pitch": 36,
              "velocity": 40,
              "position": 11.583333333333334,
              "duration": 0.2916666666666667
            },
            {
              "pitch": 48,
              "velocity": 60,
              "position": 12,
              "duration": 0.9895833333333334
            },
            {
              "pitch": 43,
              "velocity": 60,
              "position": 13,
              "duration": 0.9895833333333334
            },
            {
              "pitch": 40,
              "velocity": 60,
              "position": 14,
              "duration": 0.9895833333333334
            },
            {
              "pitch": 43,
              "velocity": 60,
              "position": 15,
              "duration": 0.9895833333333334
            },
            {
              "pitch": 36,
              "velocity": 60,
              "position": 16,
              "duration": 0.5729166666666666
            },
            {
              "pitch": 31,
              "velocity": 40,
              "position": 16.583333333333332,
              "duration": 0.2916666666666667
            },
            {
              "pitch": 40,
              "velocity": 60,
              "position": 17,
              "duration": 0.9895833333333334
            },
            {
              "pitch": 43,
              "velocity": 60,
              "position": 18,
              "duration": 0.9895833333333334
            },
            {
              "pitch": 43,
              "velocity": 60,
              "position": 19,
              "duration": 0.5729166666666666
            },
            {
              "pitch": 32,
              "velocity": 40,
              "position": 19.583333333333332,
              "duration": 0.2916666666666667
            },
            {
              "pitch": 43,
              "velocity": 60,
              "position": 20,
              "duration": 0.9895833333333334
            },
            {
              "pitch": 36,
              "velocity": 60,
              "position": 21,
              "duration": 0.9895833333333334
            },
            {
              "pitch": 36,
              "velocity": 60,
              "position": 22,
              "duration": 0.9895833333333334
            },
            {
              "pitch": 40,
              "velocity": 60,
              "position": 23,
              "duration": 0.9895833333333334
            },
            {
              "pitch": 48,
              "velocity": 60,
              "position": 24,
              "duration": 0.9895833333333334
            },
            {
              "pitch": 48,
              "velocity": 60,
              "position": 25,
              "duration": 0.5729166666666666
            },
            {
              "pitch": 43,
              "velocity": 40,
              "position": 25.583333333333332,
              "duration": 0.2916666666666667
            },
            {
              "pitch": 48,
              "velocity": 60,
              "position": 26,
              "duration": 0.5729166666666666
            },
            {
              "pitch": 43,
              "velocity": 40,
              "position": 26.583333333333332,
              "duration": 0.2916666666666667
            },
            {
              "pitch": 48,
              "velocity": 60,
              "position": 27,
              "duration": 0.9895833333333334
            },
            {
              "pitch": 48,
              "velocity": 60,
              "position": 28,
              "duration": 0.9895833333333334
            },
            {
              "pitch": 47,
              "velocity": 60,
              "position": 29,
              "duration": 0.9895833333333334
            },
            {
              "pitch": 48,
              "velocity": 60,
              "position": 30,
              "duration": 0.9895833333333334
            },
            {
              "pitch": 50,
              "velocity": 60,
              "position": 31,
              "duration": 0.9895833333333334
            },
            {
              "pitch": 48,
              "velocity": 60,
              "position": 32,
              "duration": 0.9895833333333334
            },
            {
              "pitch": 40,
              "velocity": 60,
              "position": 33,
              "duration": 0.9895833333333334
            },
            {
              "pitch": 45,
              "velocity": 60,
              "position": 34,
              "duration": 0.9895833333333334
            },
            {
              "pitch": 50,
              "velocity": 60,
              "position": 35,
              "duration": 0.9895833333333334
            },
            {
              "pitch": 48,
              "velocity": 60,
              "position": 36,
              "duration": 0.5729166666666666
            },
            {
              "pitch": 36,
              "velocity": 60,
              "position": 36.583333333333336,
              "duration": 0.40625
            },
            {
              "pitch": 47,
              "velocity": 60,
              "position": 37,
              "duration": 0.9895833333333334
            },
            {
              "pitch": 43,
              "velocity": 60,
              "position": 38,
              "duration": 0.9895833333333334
            },
            {
              "pitch": 40,
              "velocity": 60,
              "position": 39,
              "duration": 0.9895833333333334
            },
            {
              "pitch": 36,
              "velocity": 60,
              "position": 40,
              "duration": 0.9895833333333334
            },
            {
              "pitch": 40,
              "velocity": 60,
              "position": 41,
              "duration": 0.9895833333333334
            },
            {
              "pitch": 47,
              "velocity": 60,
              "position": 42,
              "duration": 0.9895833333333334
            },
            {
              "pitch": 43,
              "velocity": 60,
              "position": 43,
              "duration": 0.9895833333333334
            },
            {
              "pitch": 43,
              "velocity": 60,
              "position": 44,
              "duration": 0.9895833333333334
            },
            {
              "pitch": 40,
              "velocity": 60,
              "position": 45,
              "duration": 0.9895833333333334
            },
            {
              "pitch": 47,
              "velocity": 60,
              "position": 46,
              "duration": 0.9895833333333334
            },
            {
              "pitch": 50,
              "velocity": 60,
              "position": 47,
              "duration": 0.9895833333333334
            },
            {
              "pitch": 48,
              "velocity": 60,
              "position": 48,
              "duration": 0.9895833333333334
            },
            {
              "pitch": 50,
              "velocity": 60,
              "position": 49,
              "duration": 0.9895833333333334
            },
            {
              "pitch": 52,
              "velocity": 60,
              "position": 50,
              "duration": 0.9895833333333334
            },
            {
              "pitch": 55,
              "velocity": 60,
              "position": 51,
              "duration": 0.9895833333333334
            },
            {
              "pitch": 48,
              "velocity": 60,
              "position": 52,
              "duration": 0.9895833333333334
            },
            {
              "pitch": 47,
              "velocity": 60,
              "position": 53,
              "duration": 0.9895833333333334
            },
            {
              "pitch": 50,
              "velocity": 60,
              "position": 54,
              "duration": 0.9895833333333334
            },
            {
              "pitch": 45,
              "velocity": 60,
              "position": 55,
              "duration": 0.9895833333333334
            },
            {
              "pitch": 48,
              "velocity": 60,
              "position": 56,
              "duration": 0.9895833333333334
            },
            {
              "pitch": 43,
              "velocity": 60,
              "position": 57,
              "duration": 0.9895833333333334
            },
            {
              "pitch": 47,
              "velocity": 60,
              "position": 58,
              "duration": 0.9895833333333334
            },
            {
              "pitch": 40,
              "velocity": 60,
              "position": 59,
              "duration": 0.9895833333333334
            },
            {
              "pitch": 43,
              "velocity": 60,
              "position": 60,
              "duration": 0.9895833333333334
            },
            {
              "pitch": 38,
              "velocity": 60,
              "position": 61,
              "duration": 0.9895833333333334
            },
            {
              "pitch": 43,
              "velocity": 60,
              "position": 62,
              "duration": 0.9895833333333334
            },
            {
              "pitch": 40,
              "velocity": 60,
              "position": 63,
              "duration": 0.9895833333333334
            }
          ]
        },
        "1": {
          "ctab": {
            "srcChannel": 1,
            "name": "Bass",
            "accType": "BASS",
            "editable": false,
            "mutedNotes": [],
            "mutedChords": [
              "sus4",
              "1+5",
              "1+8",
              "7aug",
              "7(#9)",
              "7(b13)",
              "7(b9)",
              "7(13)",
              "7#11",
              "7(9)",
              "7b5",
              "7sus4",
              "7th",
              "dim7",
              "minMaj7(9)",
              "minMaj7",
              "min7(11)",
              "min7(9)",
              "min(9)",
              "m7b5",
              "min7"
            ],
            "autoStart": false,
            "sourceChordNote": 0,
            "sourceChordType": "Maj7",
            "ctb2Low": null,
            "ctb2Main": {
              "ntr": "ROOT_TRANSPOSITION",
              "ntt": "DORIAN_5",
              "bassOn": true,
              "chordRootUpperLimit": 4,
              "noteLowLimit": 28,
              "noteHighLimit": 127,
              "rtr": "PITCH_SHIFT_TO_ROOT"
            },
            "ctb2High": null
          },
          "notes": [
            {
              "pitch": 48,
              "velocity": 60,
              "position": 0,
              "duration": 0.9895833333333334
            },
            {
              "pitch": 40,
              "velocity": 60,
              "position": 1,
              "duration": 0.9895833333333334
            },
            {
              "pitch": 45,
              "velocity": 60,
              "position": 2,
              "duration": 0.9895833333333334
            },
            {
              "pitch": 43,
              "velocity": 60,
              "position": 3,
              "duration": 0.9895833333333334
            },
            {
              "pitch": 43,
              "velocity": 60,
              "position": 4,
              "duration": 0.9895833333333334
            },
            {
              "pitch": 38,
              "velocity": 60,
              "position": 5,
              "duration": 0.9895833333333334
            },
            {
              "pitch": 40,
              "velocity": 60,
              "position": 6,
              "duration": 0.9895833333333334
            },
            {
              "pitch": 43,
              "velocity": 60,
              "position": 7,
              "duration": 0.9895833333333334
            },
            {
              "pitch": 36,
              "velocity": 60,
              "position": 8,
              "duration": 0.9895833333333334
            },
            {
              "pitch": 43,
              "velocity": 60,
              "position": 9,
              "duration": 0.5729166666666666
            },
            {
              "pitch": 36,
              "velocity": 40,
              "position": 9.583333333333334,
              "duration": 0.2916666666666667
            },
            {
              "pitch": 45,
              "velocity": 60,
              "position": 10,
              "duration": 0.9895833333333334
            },
            {
              "pitch": 43,
              "velocity": 60,
              "position": 11,
              "duration": 0.5729166666666666
            },
            {
              "pitch": 36,
              "velocity": 40,
              "position": 11.583333333333334,
              "duration": 0.2916666666666667
            },
            {
              "pitch": 45,
              "velocity": 60,
              "position": 12,
              "duration": 0.9895833333333334
            },
            {
              "pitch": 43,
              "velocity": 60,
              "position": 13,
              "duration": 0.9895833333333334
            },
            {
              "pitch": 40,
              "velocity": 60,
              "position": 14,
              "duration": 0.9895833333333334
            },
            {
              "pitch": 43,
              "velocity": 60,
              "position": 15,
              "duration": 0.9895833333333334
            },
            {
              "pitch": 36,
              "velocity": 60,
              "position": 16,
              "duration": 0.5729166666666666
            },
            {
              "pitch": 31,
              "velocity": 40,
              "position": 16.583333333333332,
              "duration": 0.2916666666666667
            },
            {
              "pitch": 40,
              "velocity": 60,
              "position": 17,
              "duration": 0.9895833333333334
            },
            {
              "pitch": 43,
              "velocity": 60,
              "position": 18,
              "duration": 0.9895833333333334
            },
            {
              "pitch": 43,
              "velocity": 60,
              "position": 19,
              "duration": 0.5729166666666666
            },
            {
              "pitch": 32,
              "velocity": 40,
              "position": 19.583333333333332,
              "duration": 0.2916666666666667
            },
            {
              "pitch": 43,
              "velocity": 60,
              "position": 20,
              "duration": 0.9895833333333334
            },
            {
              "pitch": 36,
              "velocity": 60,
              "position": 21,
              "duration": 0.9895833333333334
            },
            {
              "pitch": 36,
              "velocity": 60,
              "position": 22,
              "duration": 0.9895833333333334
            },
            {
              "pitch": 40,
              "velocity": 60,
              "position": 23,
              "duration": 0.9895833333333334
            },
            {
              "pitch": 48,
              "velocity": 60,
              "position": 24,
              "duration": 0.9895833333333334
            },
            {
              "pitch": 48,
              "velocity": 60,
              "position": 25,
              "duration": 0.5729166666666666
            },
            {
              "pitch": 43,
              "velocity": 40,
              "position": 25.583333333333332,
              "duration": 0.2916666666666667
            },
            {
              "pitch": 48,
              "velocity": 60,
              "position": 26,
              "duration": 0.5729166666666666
            },
            {
              "pitch": 43,
              "velocity": 40,
              "position": 26.583333333333332,
              "duration": 0.2916666666666667
            },
            {
              "pitch": 48,
              "velocity": 60,
              "position": 27,
              "duration": 0.9895833333333334
            },
            {
              "pitch": 48,
              "velocity": 60,
              "position": 28,
              "duration": 0.9895833333333334
            },
            {
              "pitch": 47,
              "velocity": 60,
              "position": 29,
              "duration": 0.9895833333333334
            },
            {
              "pitch": 48,
              "velocity": 60,
              "position": 30,
              "duration": 0.9895833333333334
            },
            {
              "pitch": 50,
              "velocity": 60,
              "position": 31,
              "duration": 0.9895833333333334
            },
            {
              "pitch": 48,
              "velocity": 60,
              "position": 32,
              "duration": 0.9895833333333334
            },
            {
              "pitch": 40,
              "velocity": 60,
              "position": 33,
              "duration": 0.9895833333333334
            },
            {
              "pitch": 45,
              "velocity": 60,
              "position": 34,
              "duration": 0.9895833333333334
            },
            {
              "pitch": 50,
              "velocity": 60,
              "position": 35,
              "duration": 0.9895833333333334
            },
            {
              "pitch": 48,
              "velocity": 60,
              "position": 36,
              "duration": 0.5729166666666666
            },
            {
              "pitch": 36,
              "velocity": 60,
              "position": 36.583333333333336,
              "duration": 0.40625
            },
            {
              "pitch": 45,
              "velocity": 60,
              "position": 37,
              "duration": 0.9895833333333334
            },
            {
              "pitch": 43,
              "velocity": 60,
              "position": 38,
              "duration": 0.9895833333333334
            },
            {
              "pitch": 40,
              "velocity": 60,
              "position": 39,
              "duration": 0.9895833333333334
            },
            {
              "pitch": 36,
              "velocity": 60,
              "position": 40,
              "duration": 0.9895833333333334
            },
            {
              "pitch": 40,
              "velocity": 60,
              "position": 41,
              "duration": 0.9895833333333334
            },
            {
              "pitch": 45,
              "velocity": 60,
              "position": 42,
              "duration": 0.9895833333333334
            },
            {
              "pitch": 43,
              "velocity": 60,
              "position": 43,
              "duration": 0.9895833333333334
            },
            {
              "pitch": 43,
              "velocity": 60,
              "position": 44,
              "duration": 0.9895833333333334
            },
            {
              "pitch": 40,
              "velocity": 60,
              "position": 45,
              "duration": 0.9895833333333334
            },
            {
              "pitch": 45,
              "velocity": 60,
              "position": 46,
              "duration": 0.9895833333333334
            },
            {
              "pitch": 50,
              "velocity": 60,
              "position": 47,
              "duration": 0.9895833333333334
            },
            {
              "pitch": 48,
              "velocity": 60,
              "position": 48,
              "duration": 0.9895833333333334
            },
            {
              "pitch": 50,
              "velocity": 60,
              "position": 49,
              "duration": 0.9895833333333334
            },
            {
              "pitch": 52,
              "velocity": 60,
              "position": 50,
              "duration": 0.9895833333333334
            },
            {
              "pitch": 55,
              "velocity": 60,
              "position": 51,
              "duration": 0.9895833333333334
            },
            {
              "pitch": 48,
              "velocity": 60,
              "position": 52,
              "duration": 0.9895833333333334
            },
            {
              "pitch": 47,
              "velocity": 60,
              "position": 53,
              "duration": 0.9895833333333334
            },
            {
              "pitch": 50,
              "velocity": 60,
              "position": 54,
              "duration": 0.9895833333333334
            },
            {
              "pitch": 45,
              "velocity": 60,
              "position": 55,
              "duration": 0.9895833333333334
            },
            {
              "pitch": 48,
              "velocity": 60,
              "position": 56,
              "duration": 0.9895833333333334
            },
            {
              "pitch": 43,
              "velocity": 60,
              "position": 57,
              "duration": 0.9895833333333334
            },
            {
              "pitch": 47,
              "velocity": 60,
              "position": 58,
              "duration": 0.9895833333333334
            },
            {
              "pitch": 40,
              "velocity": 60,
              "position": 59,
              "duration": 0.9895833333333334
            },
            {
              "pitch": 45,
              "velocity": 60,
              "position": 60,
              "duration": 0.9895833333333334
            },
            {
              "pitch": 38,
              "velocity": 60,
              "position": 61,
              "duration": 0.9895833333333334
            },
            {
              "pitch": 43,
              "velocity": 60,
              "position": 62,
              "duration": 0.9895833333333334
            },
            {
              "pitch": 40,
              "velocity": 60,
              "position": 63,
              "duration": 0.9895833333333334
            }
          ]
        },
        "2": {
          "ctab": {
            "srcChannel": 2,
            "name": "Bass 7",
            "accType": "BASS",
            "editable": false,
            "mutedNotes": [],
            "mutedChords": [
              "1+2+5",
              "sus4",
              "1+5",
              "1+8",
              "Maj7aug",
              "7sus4",
              "dim",
              "minMaj7(9)",
              "minMaj7",
              "min6",
              "min",
              "aug",
              "Maj6(9)",
              "Maj7(9)",
              "Maj(9)",
              "Maj7#11",
              "Maj7",
              "Maj6",
              "Maj"
            ],
            "autoStart": false,
            "sourceChordNote": 0,
            "sourceChordType": "Maj7",
            "ctb2Low": null,
            "ctb2Main": {
              "ntr": "ROOT_TRANSPOSITION",
              "ntt": "DORIAN_5",
              "bassOn": true,
              "chordRootUpperLimit": 4,
              "noteLowLimit": 28,
              "noteHighLimit": 127,
              "rtr": "PITCH_SHIFT_TO_ROOT"
            },
            "ctb2High": null
          },
          "notes": [
            {
              "pitch": 48,
              "velocity": 60,
              "position": 0,
              "duration": 0.9895833333333334
            },
            {
              "pitch": 40,
              "velocity": 60,
              "position": 1,
              "duration": 0.9895833333333334
            },
            {
              "pitch": 46,
              "velocity": 60,
              "position": 2,
              "duration": 0.9895833333333334
            },
            {
              "pitch": 43,
              "velocity": 60,
              "position": 3,
              "duration": 0.9895833333333334
            },
            {
              "pitch": 43,
              "velocity": 60,
              "position": 4,
              "duration": 0.9895833333333334
            },
            {
              "pitch": 38,
              "velocity": 60,
              "position": 5,
              "duration": 0.9895833333333334
            },
            {
              "pitch": 40,
              "velocity": 60,
              "position": 6,
              "duration": 0.9895833333333334
            },
            {
              "pitch": 43,
              "velocity": 60,
              "position": 7,
              "duration": 0.9895833333333334
            },
            {
              "pitch": 36,
              "velocity": 60,
              "position": 8,
              "duration": 0.9895833333333334
            },
            {
              "pitch": 43,
              "velocity": 60,
              "position": 9,
              "duration": 0.5729166666666666
            },
            {
              "pitch": 36,
              "velocity": 40,
              "position": 9.583333333333334,
              "duration": 0.2916666666666667
            },
            {
              "pitch": 46,
              "velocity": 60,
              "position": 10,
              "duration": 0.9895833333333334
            },
            {
              "pitch": 43,
              "velocity": 60,
              "position": 11,
              "duration": 0.5729166666666666
            },
            {
              "pitch": 36,
              "velocity": 40,
              "position": 11.583333333333334,
              "duration": 0.2916666666666667
            },
            {
              "pitch": 48,
              "velocity": 60,
              "position": 12,
              "duration": 0.9895833333333334
            },
            {
              "pitch": 43,
              "velocity": 60,
              "position": 13,
              "duration": 0.9895833333333334
            },
            {
              "pitch": 46,
              "velocity": 60,
              "position": 14,
              "duration": 0.9895833333333334
            },
            {
              "pitch": 43,
              "velocity": 60,
              "position": 15,
              "duration": 0.9895833333333334
            },
            {
              "pitch": 36,
              "velocity": 60,
              "position": 16,
              "duration": 0.5729166666666666
            },
            {
              "pitch": 31,
              "velocity": 40,
              "position": 16.583333333333332,
              "duration": 0.2916666666666667
            },
            {
              "pitch": 40,
              "velocity": 60,
              "position": 17,
              "duration": 0.9895833333333334
            },
            {
              "pitch": 43,
              "velocity": 60,
              "position": 18,
              "duration": 0.9895833333333334
            },
            {
              "pitch": 43,
              "velocity": 60,
              "position": 19,
              "duration": 0.5729166666666666
            },
            {
              "pitch": 32,
              "velocity": 40,
              "position": 19.583333333333332,
              "duration": 0.2916666666666667
            },
            {
              "pitch": 43,
              "velocity": 60,
              "position": 20,
              "duration": 0.9895833333333334
            },
            {
              "pitch": 36,
              "velocity": 60,
              "position": 21,
              "duration": 0.9895833333333334
            },
            {
              "pitch": 36,
              "velocity": 60,
              "position": 22,
              "duration": 0.9895833333333334
            },
            {
              "pitch": 40,
              "velocity": 60,
              "position": 23,
              "duration": 0.9895833333333334
            },
            {
              "pitch": 48,
              "velocity": 60,
              "position": 24,
              "duration": 0.9895833333333334
            },
            {
              "pitch": 48,
              "velocity": 60,
              "position": 25,
              "duration": 0.5729166666666666
            },
            {
              "pitch": 43,
              "velocity": 40,
              "position": 25.583333333333332,
              "duration": 0.2916666666666667
            },
            {
              "pitch": 48,
              "velocity": 60,
              "position": 26,
              "duration": 0.5729166666666666
            },
            {
              "pitch": 43,
              "velocity": 40,
              "position": 26.583333333333332,
              "duration": 0.2916666666666667
            },
            {
              "pitch": 48,
              "velocity": 60,
              "position": 27,
              "duration": 0.9895833333333334
            },
            {
              "pitch": 48,
              "velocity": 60,
              "position": 28,
              "duration": 0.9895833333333334
            },
            {
              "pitch": 46,
              "velocity": 60,
              "position": 29,
              "duration": 0.9895833333333334
            },
            {
              "pitch": 48,
              "velocity": 60,
              "position": 30,
              "duration": 0.9895833333333334
            },
            {
              "pitch": 50,
              "velocity": 60,
              "position": 31,
              "duration": 0.9895833333333334
            },
            {
              "pitch": 52,
              "velocity": 60,
              "position": 32,
              "duration": 0.9895833333333334
            },
            {
              "pitch": 43,
              "velocity": 60,
              "position": 33,
              "duration": 0.9895833333333334
            },
            {
              "pitch": 50,
              "velocity": 60,
              "position": 34,
              "duration": 0.9895833333333334
            },
            {
              "pitch": 46,
              "velocity": 60,
              "position": 35,
              "duration": 0.9895833333333334
            },
            {
              "pitch": 48,
              "velocity": 60,
              "position": 36,
              "duration": 0.5729166666666666
            },
            {
              "pitch": 36,
              "velocity": 60,
              "position": 36.583333333333336,
              "duration": 0.40625
            },
            {
              "pitch": 46,
              "velocity": 60,
              "position": 37,
              "duration": 0.9895833333333334
            },
            {
              "pitch": 43,
              "velocity": 60,
              "position": 38,
              "duration": 0.9895833333333334
            },
            {
              "pitch": 40,
              "velocity": 60,
              "position": 39,
              "duration": 0.9895833333333334
            },
            {
              "pitch": 36,
              "velocity": 60,
              "position": 40,
              "duration": 0.9895833333333334
            },
            {
              "pitch": 40,
              "velocity": 60,
              "position": 41,
              "duration": 0.9895833333333334
            },
            {
              "pitch": 46,
              "velocity": 60,
              "position": 42,
              "duration": 0.9895833333333334
            },
            {
              "pitch": 43,
              "velocity": 60,
              "position": 43,
              "duration": 0.9895833333333334
            },
            {
              "pitch": 43,
              "velocity": 60,
              "position": 44,
              "duration": 0.9895833333333334
            },
            {
              "pitch": 40,
              "velocity": 60,
              "position": 45,
              "duration": 0.9895833333333334
            },
            {
              "pitch": 46,
              "velocity": 60,
              "position": 46,
              "duration": 0.9895833333333334
            },
            {
              "pitch": 50,
              "velocity": 60,
              "position": 47,
              "duration": 0.9895833333333334
            },
            {
              "pitch": 48,
              "velocity": 60,
              "position": 48,
              "duration": 0.9895833333333334
            },
            {
              "pitch": 50,
              "velocity": 60,
              "position": 49,
              "duration": 0.9895833333333334
            },
            {
              "pitch": 52,
              "velocity": 60,
              "position": 50,
              "duration": 0.9895833333333334
            },
            {
              "pitch": 55,
              "velocity": 60,
              "position": 51,
              "duration": 0.9895833333333334
            },
            {
              "pitch": 48,
              "velocity": 60,
              "position": 52,
              "duration": 0.9895833333333334
            },
            {
              "pitch": 46,
              "velocity": 60,
              "position": 53,
              "duration": 0.9895833333333334
            },
            {
              "pitch": 50,
              "velocity": 60,
              "position": 54,
              "duration": 0.9895833333333334
            },
            {
              "pitch": 46,
              "velocity": 60,
              "position": 55,
              "duration": 0.9895833333333334
            },
            {
              "pitch": 48,
              "velocity": 60,
              "position": 56,
              "duration": 0.9895833333333334
            },
            {
              "pitch": 43,
              "velocity": 60,
              "position": 57,
              "duration": 0.9895833333333334
            },
            {
              "pitch": 46,
              "velocity": 60,
              "position": 58,
              "duration": 0.9895833333333334
            },
            {
              "pitch": 40,
              "velocity": 60,
              "position": 59,
              "duration": 0.9895833333333334
            },
            {
              "pitch": 43,
              "velocity": 60,
              "position": 60,
              "duration": 0.9895833333333334
            },
            {
              "pitch": 38,
              "velocity": 60,
              "position": 61,
              "duration": 0.9895833333333334
            },
            {
              "pitch": 40,
              "velocity": 60,
              "position": 62,
              "duration": 0.9895833333333334
            },
            {
              "pitch": 43,
              "velocity": 60,
              "position": 63,
              "duration": 0.9895833333333334
            }
          ]
        },
        "3": {
          "ctab": {
            "srcChannel": 3,
            "name": "PfLH",
            "accType": "CHORD1",
            "editable": false,
            "mutedNotes": [],
            "mutedChords": [],
            "autoStart": false,
            "sourceChordNote": 0,
            "sourceChordType": "Maj7",
            "ctb2Low": null,
            "ctb2Main": {
              "ntr": "ROOT_TRANSPOSITION",
              "ntt": "CHORD",
              "bassOn": false,
              "chordRootUpperLimit": 8,
              "noteLowLimit": 54,
              "noteHighLimit": 65,
              "rtr": "PITCH_SHIFT"
            },
            "ctb2High": null
          },
          "notes": [
            {
              "pitch": 55,
              "velocity": 51,
              "position": 0,
              "duration": 0.3020833333333333
            },
            {
              "pitch": 59,
              "velocity": 51,
              "position": 0,
              "duration": 0.3020833333333333
            },
            {
              "pitch": 64,
              "velocity": 41,
              "position": 0,
              "duration": 0.3333333333333333
            },
            {
              "pitch": 55,
              "velocity": 62,
              "position": 1,
              "duration": 0.65625
            },
            {
              "pitch": 59,
              "velocity": 62,
              "position": 1,
              "duration": 0.65625
            },
            {
              "pitch": 64,
              "velocity": 61,
              "position": 1,
              "duration": 0.65625
            },
            {
              "pitch": 55,
              "velocity": 60,
              "position": 4,
              "duration": 0.65625
            },
            {
              "pitch": 59,
              "velocity": 60,
              "position": 4,
              "duration": 0.65625
            },
            {
              "pitch": 64,
              "velocity": 62,
              "position": 4,
              "duration": 0.6666666666666666
            },
            {
              "pitch": 64,
              "velocity": 47,
              "position": 6,
              "duration": 0.6458333333333334
            },
            {
              "pitch": 55,
              "velocity": 42,
              "position": 6,
              "duration": 0.6666666666666666
            },
            {
              "pitch": 59,
              "velocity": 42,
              "position": 6,
              "duration": 0.6666666666666666
            },
            {
              "pitch": 55,
              "velocity": 48,
              "position": 7.666666666666667,
              "duration": 0.3125
            },
            {
              "pitch": 59,
              "velocity": 48,
              "position": 7.666666666666667,
              "duration": 0.3125
            },
            {
              "pitch": 64,
              "velocity": 44,
              "position": 7.666666666666667,
              "duration": 0.3125
            },
            {
              "pitch": 55,
              "velocity": 67,
              "position": 8.666666666666666,
              "duration": 0.9791666666666666
            },
            {
              "pitch": 59,
              "velocity": 67,
              "position": 8.666666666666666,
              "duration": 0.9791666666666666
            },
            {
              "pitch": 64,
              "velocity": 60,
              "position": 8.666666666666666,
              "duration": 1
            },
            {
              "pitch": 64,
              "velocity": 69,
              "position": 10,
              "duration": 0.3020833333333333
            },
            {
              "pitch": 55,
              "velocity": 61,
              "position": 10,
              "duration": 0.3333333333333333
            },
            {
              "pitch": 59,
              "velocity": 61,
              "position": 10,
              "duration": 0.3333333333333333
            },
            {
              "pitch": 64,
              "velocity": 48,
              "position": 11,
              "duration": 0.3020833333333333
            },
            {
              "pitch": 55,
              "velocity": 50,
              "position": 11,
              "duration": 0.3229166666666667
            },
            {
              "pitch": 59,
              "velocity": 50,
              "position": 11,
              "duration": 0.3229166666666667
            },
            {
              "pitch": 55,
              "velocity": 60,
              "position": 12,
              "duration": 0.3020833333333333
            },
            {
              "pitch": 59,
              "velocity": 60,
              "position": 12,
              "duration": 0.3020833333333333
            },
            {
              "pitch": 64,
              "velocity": 68,
              "position": 12,
              "duration": 0.3229166666666667
            },
            {
              "pitch": 55,
              "velocity": 60,
              "position": 14,
              "duration": 0.6458333333333334
            },
            {
              "pitch": 59,
              "velocity": 60,
              "position": 14,
              "duration": 0.6458333333333334
            },
            {
              "pitch": 64,
              "velocity": 56,
              "position": 14,
              "duration": 0.65625
            },
            {
              "pitch": 55,
              "velocity": 65,
              "position": 15.666666666666666,
              "duration": 3
            },
            {
              "pitch": 59,
              "velocity": 65,
              "position": 15.666666666666666,
              "duration": 3
            },
            {
              "pitch": 64,
              "velocity": 64,
              "position": 15.666666666666666,
              "duration": 3
            },
            {
              "pitch": 55,
              "velocity": 65,
              "position": 19,
              "duration": 0.3125
            },
            {
              "pitch": 59,
              "velocity": 65,
              "position": 19,
              "duration": 0.3125
            },
            {
              "pitch": 64,
              "velocity": 57,
              "position": 19,
              "duration": 0.3125
            },
            {
              "pitch": 64,
              "velocity": 55,
              "position": 21.666666666666668,
              "duration": 0.96875
            },
            {
              "pitch": 55,
              "velocity": 52,
              "position": 21.666666666666668,
              "duration": 0.9791666666666666
            },
            {
              "pitch": 59,
              "velocity": 52,
              "position": 21.666666666666668,
              "duration": 0.9791666666666666
            },
            {
              "pitch": 55,
              "velocity": 68,
              "position": 23,
              "duration": 0.6458333333333334
            },
            {
              "pitch": 59,
              "velocity": 68,
              "position": 23,
              "duration": 0.6458333333333334
            },
            {
              "pitch": 64,
              "velocity": 59,
              "position": 23,
              "duration": 0.6458333333333334
            },
            {
              "pitch": 64,
              "velocity": 65,
              "position": 29,
              "duration": 2.6354166666666665
            },
            {
              "pitch": 55,
              "velocity": 69,
              "position": 29,
              "duration": 2.65625
            },
            {
              "pitch": 59,
              "velocity": 69,
              "position": 29,
              "duration": 2.65625
            },
            {
              "pitch": 55,
              "velocity": 68,
              "position": 32,
              "duration": 0.3125
            },
            {
              "pitch": 59,
              "velocity": 68,
              "position": 32,
              "duration": 0.3125
            },
            {
              "pitch": 64,
              "velocity": 61,
              "position": 32,
              "duration": 0.3229166666666667
            },
            {
              "pitch": 64,
              "velocity": 57,
              "position": 36,
              "duration": 0.3229166666666667
            },
            {
              "pitch": 55,
              "velocity": 56,
              "position": 36,
              "duration": 0.3333333333333333
            },
            {
              "pitch": 59,
              "velocity": 56,
              "position": 36,
              "duration": 0.3333333333333333
            },
            {
              "pitch": 55,
              "velocity": 49,
              "position": 38,
              "duration": 0.96875
            },
            {
              "pitch": 59,
              "velocity": 49,
              "position": 38,
              "duration": 0.96875
            },
            {
              "pitch": 64,
              "velocity": 42,
              "position": 38,
              "duration": 0.9791666666666666
            },
            {
              "pitch": 64,
              "velocity": 62,
              "position": 39.666666666666664,
              "duration": 3.9895833333333335
            },
            {
              "pitch": 55,
              "velocity": 59,
              "position": 39.666666666666664,
              "duration": 4
            },
            {
              "pitch": 59,
              "velocity": 59,
              "position": 39.666666666666664,
              "duration": 4
            },
            {
              "pitch": 64,
              "velocity": 60,
              "position": 45,
              "duration": 2.65625
            },
            {
              "pitch": 55,
              "velocity": 71,
              "position": 45,
              "duration": 2.6666666666666665
            },
            {
              "pitch": 59,
              "velocity": 71,
              "position": 45,
              "duration": 2.6666666666666665
            },
            {
              "pitch": 64,
              "velocity": 52,
              "position": 48,
              "duration": 0.3125
            },
            {
              "pitch": 55,
              "velocity": 57,
              "position": 48,
              "duration": 0.3229166666666667
            },
            {
              "pitch": 59,
              "velocity": 57,
              "position": 48,
              "duration": 0.3229166666666667
            },
            {
              "pitch": 55,
              "velocity": 64,
              "position": 49.666666666666664,
              "duration": 0.3020833333333333
            },
            {
              "pitch": 59,
              "velocity": 64,
              "position": 49.666666666666664,
              "duration": 0.3020833333333333
            },
            {
              "pitch": 64,
              "velocity": 63,
              "position": 49.666666666666664,
              "duration": 0.3333333333333333
            },
            {
              "pitch": 64,
              "velocity": 62,
              "position": 52,
              "duration": 0.3125
            },
            {
              "pitch": 55,
              "velocity": 56,
              "position": 52,
              "duration": 0.3333333333333333
            },
            {
              "pitch": 59,
              "velocity": 56,
              "position": 52,
              "duration": 0.3333333333333333
            },
            {
              "pitch": 55,
              "velocity": 57,
              "position": 53.666666666666664,
              "duration": 0.3333333333333333
            },
            {
              "pitch": 59,
              "velocity": 57,
              "position": 53.666666666666664,
              "duration": 0.3333333333333333
            },
            {
              "pitch": 64,
              "velocity": 60,
              "position": 53.666666666666664,
              "duration": 0.3333333333333333
            },
            {
              "pitch": 55,
              "velocity": 58,
              "position": 56,
              "duration": 0.3020833333333333
            },
            {
              "pitch": 59,
              "velocity": 58,
              "position": 56,
              "duration": 0.3020833333333333
            },
            {
              "pitch": 64,
              "velocity": 61,
              "position": 56,
              "duration": 0.3125
            },
            {
              "pitch": 55,
              "velocity": 62,
              "position": 57.666666666666664,
              "duration": 0.3125
            },
            {
              "pitch": 59,
              "velocity": 62,
              "position": 57.666666666666664,
              "duration": 0.3125
            },
            {
              "pitch": 64,
              "velocity": 67,
              "position": 57.666666666666664,
              "duration": 0.3125
            },
            {
              "pitch": 64,
              "velocity": 56,
              "position": 61,
              "duration": 2.6458333333333335
            },
            {
              "pitch": 55,
              "velocity": 59,
              "position": 61,
              "duration": 2.65625
            },
            {
              "pitch": 59,
              "velocity": 59,
              "position": 61,
              "duration": 2.65625
            }
          ]
        },
        "4": {
          "ctab": {
            "srcChannel": 4,
            "name": "PfRH",
            "accType": "CHORD2",
            "editable": false,
            "mutedNotes": [],
            "mutedChords": [
              "7(13)",
              "7(9)",
              "7b5",
              "7th",
              "min7(9)",
              "min(9)",
              "min6",
              "min",
              "Maj6(9)",
              "Maj7(9)",
              "Maj(9)",
              "Maj7",
              "Maj6",
              "Maj"
            ],
            "autoStart": false,
            "sourceChordNote": 0,
            "sourceChordType": "Maj7",
            "ctb2Low": null,
            "ctb2Main": {
              "ntr": "ROOT_TRANSPOSITION",
              "ntt": "CHORD",
              "bassOn": false,
              "chordRootUpperLimit": 6,
              "noteLowLimit": 67,
              "noteHighLimit": 84,
              "rtr": "PITCH_SHIFT"
            },
            "ctb2High": null
          },
          "notes": [
            {
              "pitch": 67,
              "velocity": 63,
              "position": 0,
              "duration": 0.3333333333333333
            },
            {
              "pitch": 67,
              "velocity": 74,
              "position": 1,
              "duration": 0.6666666666666666
            },
            {
              "pitch": 71,
              "velocity": 75,
              "position": 4,
              "duration": 0.6354166666666666
            },
            {
              "pitch": 67,
              "velocity": 80,
              "position": 4,
              "duration": 0.6458333333333334
            },
            {
              "pitch": 67,
              "velocity": 68,
              "position": 6,
              "duration": 0.6666666666666666
            },
            {
              "pitch": 67,
              "velocity": 55,
              "position": 7.666666666666667,
              "duration": 0.3125
            },
            {
              "pitch": 71,
              "velocity": 53,
              "position": 7.666666666666667,
              "duration": 0.3229166666666667
            },
            {
              "pitch": 71,
              "velocity": 84,
              "position": 8.666666666666666,
              "duration": 0.9791666666666666
            },
            {
              "pitch": 67,
              "velocity": 86,
              "position": 8.666666666666666,
              "duration": 0.9895833333333334
            },
            {
              "pitch": 67,
              "velocity": 73,
              "position": 10,
              "duration": 0.3020833333333333
            },
            {
              "pitch": 71,
              "velocity": 85,
              "position": 10,
              "duration": 0.3229166666666667
            },
            {
              "pitch": 67,
              "velocity": 60,
              "position": 11,
              "duration": 0.3333333333333333
            },
            {
              "pitch": 67,
              "velocity": 70,
              "position": 14,
              "duration": 0.6458333333333334
            },
            {
              "pitch": 67,
              "velocity": 85,
              "position": 15.666666666666666,
              "duration": 2.96875
            },
            {
              "pitch": 71,
              "velocity": 74,
              "position": 15.666666666666666,
              "duration": 3
            },
            {
              "pitch": 71,
              "velocity": 76,
              "position": 19,
              "duration": 0.3125
            },
            {
              "pitch": 67,
              "velocity": 81,
              "position": 19,
              "duration": 0.3229166666666667
            },
            {
              "pitch": 67,
              "velocity": 67,
              "position": 21.666666666666668,
              "duration": 0.96875
            },
            {
              "pitch": 71,
              "velocity": 88,
              "position": 23,
              "duration": 0.6354166666666666
            },
            {
              "pitch": 67,
              "velocity": 80,
              "position": 23,
              "duration": 0.6458333333333334
            },
            {
              "pitch": 67,
              "velocity": 80,
              "position": 29,
              "duration": 2.65625
            },
            {
              "pitch": 71,
              "velocity": 76,
              "position": 29,
              "duration": 2.65625
            },
            {
              "pitch": 76,
              "velocity": 82,
              "position": 32,
              "duration": 0.3020833333333333
            },
            {
              "pitch": 79,
              "velocity": 83,
              "position": 32,
              "duration": 0.3229166666666667
            },
            {
              "pitch": 71,
              "velocity": 85,
              "position": 32,
              "duration": 0.3333333333333333
            },
            {
              "pitch": 71,
              "velocity": 72,
              "position": 36,
              "duration": 0.3020833333333333
            },
            {
              "pitch": 67,
              "velocity": 78,
              "position": 36,
              "duration": 0.3125
            },
            {
              "pitch": 67,
              "velocity": 68,
              "position": 38,
              "duration": 0.9791666666666666
            },
            {
              "pitch": 67,
              "velocity": 84,
              "position": 39.666666666666664,
              "duration": 3.9895833333333335
            },
            {
              "pitch": 71,
              "velocity": 88,
              "position": 39.666666666666664,
              "duration": 4
            },
            {
              "pitch": 71,
              "velocity": 75,
              "position": 45,
              "duration": 2.6354166666666665
            },
            {
              "pitch": 67,
              "velocity": 76,
              "position": 45,
              "duration": 2.6666666666666665
            },
            {
              "pitch": 71,
              "velocity": 79,
              "position": 48,
              "duration": 0.3125
            },
            {
              "pitch": 76,
              "velocity": 67,
              "position": 48,
              "duration": 0.3125
            },
            {
              "pitch": 79,
              "velocity": 75,
              "position": 48,
              "duration": 0.3229166666666667
            },
            {
              "pitch": 71,
              "velocity": 84,
              "position": 49.666666666666664,
              "duration": 0.3125
            },
            {
              "pitch": 79,
              "velocity": 87,
              "position": 49.666666666666664,
              "duration": 0.3229166666666667
            },
            {
              "pitch": 76,
              "velocity": 75,
              "position": 49.666666666666664,
              "duration": 0.3333333333333333
            },
            {
              "pitch": 76,
              "velocity": 69,
              "position": 52,
              "duration": 0.3125
            },
            {
              "pitch": 67,
              "velocity": 76,
              "position": 52,
              "duration": 0.3229166666666667
            },
            {
              "pitch": 71,
              "velocity": 62,
              "position": 52,
              "duration": 0.3333333333333333
            },
            {
              "pitch": 67,
              "velocity": 84,
              "position": 53.666666666666664,
              "duration": 0.3020833333333333
            },
            {
              "pitch": 76,
              "velocity": 80,
              "position": 53.666666666666664,
              "duration": 0.3020833333333333
            },
            {
              "pitch": 71,
              "velocity": 80,
              "position": 53.666666666666664,
              "duration": 0.3229166666666667
            },
            {
              "pitch": 71,
              "velocity": 76,
              "position": 56,
              "duration": 0.3229166666666667
            },
            {
              "pitch": 67,
              "velocity": 70,
              "position": 56,
              "duration": 0.3333333333333333
            },
            {
              "pitch": 71,
              "velocity": 81,
              "position": 57.666666666666664,
              "duration": 0.3020833333333333
            },
            {
              "pitch": 67,
              "velocity": 81,
              "position": 57.666666666666664,
              "duration": 0.3125
            },
            {
              "pitch": 67,
              "velocity": 75,
              "position": 61,
              "duration": 2.65625
            }
          ]
        },
        "5": {
          "ctab": {
            "srcChannel": 5,
            "name": "PfRH Maj",
            "accType": "CHORD2",
            "editable": false,
            "mutedNotes": [],
            "mutedChords": [
              "1+2+5",
              "sus4",
              "1+5",
              "1+8",
              "7aug",
              "Maj7aug",
              "7(#9)",
              "7(b13)",
              "7(b9)",
              "7(13)",
              "7#11",
              "7(9)",
              "7b5",
              "7sus4",
              "7th",
              "dim7",
              "dim",
              "minMaj7(9)",
              "minMaj7",
              "min7(11)",
              "min7(9)",
              "min(9)",
              "m7b5",
              "min7",
              "min6",
              "min",
              "aug",
              "Maj7#11"
            ],
            "autoStart": false,
            "sourceChordNote": 0,
            "sourceChordType": "Maj7",
            "ctb2Low": null,
            "ctb2Main": {
              "ntr": "ROOT_TRANSPOSITION",
              "ntt": "DORIAN_5",
              "bassOn": false,
              "chordRootUpperLimit": 6,
              "noteLowLimit": 67,
              "noteHighLimit": 79,
              "rtr": "PITCH_SHIFT"
            },
            "ctb2High": null
          },
          "notes": [
            {
              "pitch": 69,
              "velocity": 63,
              "position": 0,
              "duration": 0.3333333333333333
            },
            {
              "pitch": 74,
              "velocity": 63,
              "position": 0,
              "duration": 0.3333333333333333
            },
            {
              "pitch": 69,
              "velocity": 74,
              "position": 1,
              "duration": 0.6666666666666666
            },
            {
              "pitch": 74,
              "velocity": 74,
              "position": 1,
              "duration": 0.6666666666666666
            },
            {
              "pitch": 71,
              "velocity": 75,
              "position": 4,
              "duration": 0.6354166666666666
            },
            {
              "pitch": 67,
              "velocity": 80,
              "position": 4,
              "duration": 0.6458333333333334
            },
            {
              "pitch": 67,
              "velocity": 68,
              "position": 6,
              "duration": 0.6666666666666666
            },
            {
              "pitch": 71,
              "velocity": 59,
              "position": 6,
              "duration": 0.6666666666666666
            },
            {
              "pitch": 69,
              "velocity": 55,
              "position": 7.666666666666667,
              "duration": 0.3125
            },
            {
              "pitch": 74,
              "velocity": 53,
              "position": 7.666666666666667,
              "duration": 0.3229166666666667
            },
            {
              "pitch": 74,
              "velocity": 84,
              "position": 8.666666666666666,
              "duration": 0.9791666666666666
            },
            {
              "pitch": 69,
              "velocity": 86,
              "position": 8.666666666666666,
              "duration": 0.9895833333333334
            },
            {
              "pitch": 67,
              "velocity": 73,
              "position": 10,
              "duration": 0.3020833333333333
            },
            {
              "pitch": 71,
              "velocity": 85,
              "position": 10,
              "duration": 0.3229166666666667
            },
            {
              "pitch": 74,
              "velocity": 63,
              "position": 11,
              "duration": 0.3020833333333333
            },
            {
              "pitch": 69,
              "velocity": 60,
              "position": 11,
              "duration": 0.3333333333333333
            },
            {
              "pitch": 71,
              "velocity": 65,
              "position": 14,
              "duration": 0.6354166666666666
            },
            {
              "pitch": 67,
              "velocity": 70,
              "position": 14,
              "duration": 0.6458333333333334
            },
            {
              "pitch": 69,
              "velocity": 85,
              "position": 15.666666666666666,
              "duration": 2.96875
            },
            {
              "pitch": 74,
              "velocity": 74,
              "position": 15.666666666666666,
              "duration": 3
            },
            {
              "pitch": 71,
              "velocity": 76,
              "position": 19,
              "duration": 0.3125
            },
            {
              "pitch": 67,
              "velocity": 81,
              "position": 19,
              "duration": 0.3229166666666667
            },
            {
              "pitch": 67,
              "velocity": 67,
              "position": 21.666666666666668,
              "duration": 0.96875
            },
            {
              "pitch": 71,
              "velocity": 62,
              "position": 21.666666666666668,
              "duration": 0.9791666666666666
            },
            {
              "pitch": 74,
              "velocity": 88,
              "position": 23,
              "duration": 0.6354166666666666
            },
            {
              "pitch": 69,
              "velocity": 80,
              "position": 23,
              "duration": 0.6458333333333334
            },
            {
              "pitch": 67,
              "velocity": 80,
              "position": 29,
              "duration": 2.65625
            },
            {
              "pitch": 71,
              "velocity": 76,
              "position": 29,
              "duration": 2.65625
            },
            {
              "pitch": 76,
              "velocity": 82,
              "position": 32,
              "duration": 0.3020833333333333
            },
            {
              "pitch": 81,
              "velocity": 83,
              "position": 32,
              "duration": 0.3229166666666667
            },
            {
              "pitch": 67,
              "velocity": 85,
              "position": 32,
              "duration": 0.3333333333333333
            },
            {
              "pitch": 71,
              "velocity": 85,
              "position": 32,
              "duration": 0.3333333333333333
            },
            {
              "pitch": 71,
              "velocity": 72,
              "position": 36,
              "duration": 0.3020833333333333
            },
            {
              "pitch": 67,
              "velocity": 78,
              "position": 36,
              "duration": 0.3125
            },
            {
              "pitch": 67,
              "velocity": 68,
              "position": 38,
              "duration": 0.9791666666666666
            },
            {
              "pitch": 71,
              "velocity": 51,
              "position": 38,
              "duration": 0.9895833333333334
            },
            {
              "pitch": 69,
              "velocity": 84,
              "position": 39.666666666666664,
              "duration": 3.9895833333333335
            },
            {
              "pitch": 74,
              "velocity": 88,
              "position": 39.666666666666664,
              "duration": 4
            },
            {
              "pitch": 79,
              "velocity": 88,
              "position": 39.666666666666664,
              "duration": 4
            },
            {
              "pitch": 83,
              "velocity": 88,
              "position": 39.666666666666664,
              "duration": 4
            },
            {
              "pitch": 71,
              "velocity": 75,
              "position": 45,
              "duration": 2.6354166666666665
            },
            {
              "pitch": 76,
              "velocity": 75,
              "position": 45,
              "duration": 2.6354166666666665
            },
            {
              "pitch": 67,
              "velocity": 76,
              "position": 45,
              "duration": 2.6666666666666665
            },
            {
              "pitch": 71,
              "velocity": 79,
              "position": 48,
              "duration": 0.3125
            },
            {
              "pitch": 76,
              "velocity": 67,
              "position": 48,
              "duration": 0.3125
            },
            {
              "pitch": 81,
              "velocity": 75,
              "position": 48,
              "duration": 0.3229166666666667
            },
            {
              "pitch": 71,
              "velocity": 84,
              "position": 49.666666666666664,
              "duration": 0.3125
            },
            {
              "pitch": 81,
              "velocity": 87,
              "position": 49.666666666666664,
              "duration": 0.3229166666666667
            },
            {
              "pitch": 76,
              "velocity": 75,
              "position": 49.666666666666664,
              "duration": 0.3333333333333333
            },
            {
              "pitch": 74,
              "velocity": 69,
              "position": 52,
              "duration": 0.3125
            },
            {
              "pitch": 69,
              "velocity": 62,
              "position": 52,
              "duration": 0.3333333333333333
            },
            {
              "pitch": 79,
              "velocity": 62,
              "position": 52,
              "duration": 0.3333333333333333
            },
            {
              "pitch": 74,
              "velocity": 80,
              "position": 53.666666666666664,
              "duration": 0.3020833333333333
            },
            {
              "pitch": 69,
              "velocity": 80,
              "position": 53.666666666666664,
              "duration": 0.3229166666666667
            },
            {
              "pitch": 79,
              "velocity": 87,
              "position": 53.666666666666664,
              "duration": 0.3229166666666667
            },
            {
              "pitch": 71,
              "velocity": 76,
              "position": 56,
              "duration": 0.3229166666666667
            },
            {
              "pitch": 76,
              "velocity": 76,
              "position": 56,
              "duration": 0.3229166666666667
            },
            {
              "pitch": 67,
              "velocity": 70,
              "position": 56,
              "duration": 0.3333333333333333
            },
            {
              "pitch": 71,
              "velocity": 81,
              "position": 57.666666666666664,
              "duration": 0.3020833333333333
            },
            {
              "pitch": 76,
              "velocity": 81,
              "position": 57.666666666666664,
              "duration": 0.3020833333333333
            },
            {
              "pitch": 67,
              "velocity": 81,
              "position": 57.666666666666664,
              "duration": 0.3125
            },
            {
              "pitch": 74,
              "velocity": 80,
              "position": 61,
              "duration": 2.6354166666666665
            },
            {
              "pitch": 69,
              "velocity": 75,
              "position": 61,
              "duration": 2.65625
            }
          ]
        },
        "6": {
          "ctab": {
            "srcChannel": 6,
            "name": "PfRH min",
            "accType": "CHORD2",
            "editable": false,
            "mutedNotes": [],
            "mutedChords": [
              "1+2+5",
              "sus4",
              "1+5",
              "1+8",
              "7aug",
              "Maj7aug",
              "7(#9)",
              "7(b13)",
              "7(b9)",
              "7(13)",
              "7#11",
              "7(9)",
              "7b5",
              "7sus4",
              "7th",
              "dim7",
              "dim",
              "minMaj7(9)",
              "minMaj7",
              "min7(11)",
              "min7(9)",
              "min(9)",
              "m7b5",
              "min7",
              "aug",
              "Maj6(9)",
              "Maj7(9)",
              "Maj(9)",
              "Maj7#11",
              "Maj7",
              "Maj6",
              "Maj"
            ],
            "autoStart": false,
            "sourceChordNote": 0,
            "sourceChordType": "Maj7",
            "ctb2Low": null,
            "ctb2Main": {
              "ntr": "ROOT_TRANSPOSITION",
              "ntt": "DORIAN_5",
              "bassOn": false,
              "chordRootUpperLimit": 6,
              "noteLowLimit": 67,
              "noteHighLimit": 79,
              "rtr": "PITCH_SHIFT"
            },
            "ctb2High": null
          },
          "notes": [
            {
              "pitch": 69,
              "velocity": 63,
              "position": 0,
              "duration": 0.3333333333333333
            },
            {
              "pitch": 72,
              "velocity": 63,
              "position": 0,
              "duration": 0.3333333333333333
            },
            {
              "pitch": 76,
              "velocity": 63,
              "position": 0,
              "duration": 0.3333333333333333
            },
            {
              "pitch": 69,
              "velocity": 74,
              "position": 1,
              "duration": 0.6666666666666666
            },
            {
              "pitch": 72,
              "velocity": 74,
              "position": 1,
              "duration": 0.6666666666666666
            },
            {
              "pitch": 76,
              "velocity": 74,
              "position": 1,
              "duration": 0.6666666666666666
            },
            {
              "pitch": 74,
              "velocity": 75,
              "position": 4,
              "duration": 0.6354166666666666
            },
            {
              "pitch": 70,
              "velocity": 80,
              "position": 4,
              "duration": 0.6458333333333334
            },
            {
              "pitch": 70,
              "velocity": 68,
              "position": 6,
              "duration": 0.6666666666666666
            },
            {
              "pitch": 74,
              "velocity": 59,
              "position": 6,
              "duration": 0.6666666666666666
            },
            {
              "pitch": 69,
              "velocity": 55,
              "position": 7.666666666666667,
              "duration": 0.3125
            },
            {
              "pitch": 72,
              "velocity": 53,
              "position": 7.666666666666667,
              "duration": 0.3229166666666667
            },
            {
              "pitch": 74,
              "velocity": 84,
              "position": 8.666666666666666,
              "duration": 0.9791666666666666
            },
            {
              "pitch": 70,
              "velocity": 86,
              "position": 8.666666666666666,
              "duration": 0.9895833333333334
            },
            {
              "pitch": 69,
              "velocity": 73,
              "position": 10,
              "duration": 0.3020833333333333
            },
            {
              "pitch": 72,
              "velocity": 85,
              "position": 10,
              "duration": 0.3229166666666667
            },
            {
              "pitch": 76,
              "velocity": 85,
              "position": 10,
              "duration": 0.3229166666666667
            },
            {
              "pitch": 74,
              "velocity": 63,
              "position": 11,
              "duration": 0.3020833333333333
            },
            {
              "pitch": 70,
              "velocity": 60,
              "position": 11,
              "duration": 0.3333333333333333
            },
            {
              "pitch": 69,
              "velocity": 49,
              "position": 12,
              "duration": 0.3020833333333333
            },
            {
              "pitch": 72,
              "velocity": 49,
              "position": 12,
              "duration": 0.3020833333333333
            },
            {
              "pitch": 74,
              "velocity": 65,
              "position": 14,
              "duration": 0.6354166666666666
            },
            {
              "pitch": 70,
              "velocity": 70,
              "position": 14,
              "duration": 0.6458333333333334
            },
            {
              "pitch": 69,
              "velocity": 85,
              "position": 15.666666666666666,
              "duration": 2.96875
            },
            {
              "pitch": 72,
              "velocity": 74,
              "position": 15.666666666666666,
              "duration": 3
            },
            {
              "pitch": 76,
              "velocity": 74,
              "position": 15.666666666666666,
              "duration": 3
            },
            {
              "pitch": 74,
              "velocity": 76,
              "position": 19,
              "duration": 0.3125
            },
            {
              "pitch": 70,
              "velocity": 81,
              "position": 19,
              "duration": 0.3229166666666667
            },
            {
              "pitch": 70,
              "velocity": 67,
              "position": 21.666666666666668,
              "duration": 0.96875
            },
            {
              "pitch": 74,
              "velocity": 62,
              "position": 21.666666666666668,
              "duration": 0.9791666666666666
            },
            {
              "pitch": 72,
              "velocity": 88,
              "position": 23,
              "duration": 0.6354166666666666
            },
            {
              "pitch": 69,
              "velocity": 80,
              "position": 23,
              "duration": 0.6458333333333334
            },
            {
              "pitch": 70,
              "velocity": 80,
              "position": 29,
              "duration": 2.65625
            },
            {
              "pitch": 74,
              "velocity": 76,
              "position": 29,
              "duration": 2.65625
            },
            {
              "pitch": 79,
              "velocity": 82,
              "position": 32,
              "duration": 0.3020833333333333
            },
            {
              "pitch": 84,
              "velocity": 83,
              "position": 32,
              "duration": 0.3229166666666667
            },
            {
              "pitch": 69,
              "velocity": 85,
              "position": 32,
              "duration": 0.3333333333333333
            },
            {
              "pitch": 74,
              "velocity": 85,
              "position": 32,
              "duration": 0.3333333333333333
            },
            {
              "pitch": 81,
              "velocity": 72,
              "position": 36,
              "duration": 0.3020833333333333
            },
            {
              "pitch": 69,
              "velocity": 78,
              "position": 36,
              "duration": 0.3125
            },
            {
              "pitch": 72,
              "velocity": 78,
              "position": 36,
              "duration": 0.3125
            },
            {
              "pitch": 76,
              "velocity": 78,
              "position": 36,
              "duration": 0.3125
            },
            {
              "pitch": 69,
              "velocity": 68,
              "position": 38,
              "duration": 0.9791666666666666
            },
            {
              "pitch": 72,
              "velocity": 68,
              "position": 38,
              "duration": 0.9791666666666666
            },
            {
              "pitch": 76,
              "velocity": 68,
              "position": 38,
              "duration": 0.9791666666666666
            },
            {
              "pitch": 81,
              "velocity": 51,
              "position": 38,
              "duration": 0.9895833333333334
            },
            {
              "pitch": 69,
              "velocity": 84,
              "position": 39.666666666666664,
              "duration": 3.9895833333333335
            },
            {
              "pitch": 74,
              "velocity": 88,
              "position": 39.666666666666664,
              "duration": 4
            },
            {
              "pitch": 79,
              "velocity": 88,
              "position": 39.666666666666664,
              "duration": 4
            },
            {
              "pitch": 72,
              "velocity": 75,
              "position": 45,
              "duration": 2.6354166666666665
            },
            {
              "pitch": 76,
              "velocity": 75,
              "position": 45,
              "duration": 2.6354166666666665
            },
            {
              "pitch": 69,
              "velocity": 76,
              "position": 45,
              "duration": 2.6666666666666665
            },
            {
              "pitch": 72,
              "velocity": 79,
              "position": 48,
              "duration": 0.3125
            },
            {
              "pitch": 76,
              "velocity": 67,
              "position": 48,
              "duration": 0.3125
            },
            {
              "pitch": 81,
              "velocity": 75,
              "position": 48,
              "duration": 0.3229166666666667
            },
            {
              "pitch": 72,
              "velocity": 84,
              "position": 49.666666666666664,
              "duration": 0.3125
            },
            {
              "pitch": 81,
              "velocity": 87,
              "position": 49.666666666666664,
              "duration": 0.3229166666666667
            },
            {
              "pitch": 76,
              "velocity": 75,
              "position": 49.666666666666664,
              "duration": 0.3333333333333333
            },
            {
              "pitch": 74,
              "velocity": 69,
              "position": 52,
              "duration": 0.3125
            },
            {
              "pitch": 70,
              "velocity": 62,
              "position": 52,
              "duration": 0.3333333333333333
            },
            {
              "pitch": 79,
              "velocity": 62,
              "position": 52,
              "duration": 0.3333333333333333
            },
            {
              "pitch": 74,
              "velocity": 80,
              "position": 53.666666666666664,
              "duration": 0.3020833333333333
            },
            {
              "pitch": 70,
              "velocity": 80,
              "position": 53.666666666666664,
              "duration": 0.3229166666666667
            },
            {
              "pitch": 79,
              "velocity": 87,
              "position": 53.666666666666664,
              "duration": 0.3229166666666667
            },
            {
              "pitch": 72,
              "velocity": 76,
              "position": 56,
              "duration": 0.3229166666666667
            },
            {
              "pitch": 76,
              "velocity": 76,
              "position": 56,
              "duration": 0.3229166666666667
            },
            {
              "pitch": 69,
              "velocity": 70,
              "position": 56,
              "duration": 0.3333333333333333
            },
            {
              "pitch": 72,
              "velocity": 81,
              "position": 57.666666666666664,
              "duration": 0.3020833333333333
            },
            {
              "pitch": 76,
              "velocity": 81,
              "position": 57.666666666666664,
              "duration": 0.3020833333333333
            },
            {
              "pitch": 69,
              "velocity": 81,
              "position": 57.666666666666664,
              "duration": 0.3125
            },
            {
              "pitch": 74,
              "velocity": 80,
              "position": 61,
              "duration": 2.6354166666666665
            },
            {
              "pitch": 70,
              "velocity": 75,
              "position": 61,
              "duration": 2.65625
            }
          ]
        },
        "7": {
          "ctab": {
            "srcChannel": 7,
            "name": "PfRH 7th",
            "accType": "CHORD2",
            "editable": false,
            "mutedNotes": [],
            "mutedChords": [
              "1+2+5",
              "sus4",
              "1+5",
              "1+8",
              "7aug",
              "Maj7aug",
              "7(#9)",
              "7(b13)",
              "7(b9)",
              "7#11",
              "7sus4",
              "dim7",
              "dim",
              "minMaj7(9)",
              "minMaj7",
              "min7(11)",
              "m7b5",
              "min7",
              "min6",
              "min",
              "aug",
              "Maj6(9)",
              "Maj7(9)",
              "Maj(9)",
              "Maj7#11",
              "Maj7",
              "Maj6",
              "Maj"
            ],
            "autoStart": false,
            "sourceChordNote": 0,
            "sourceChordType": "Maj7",
            "ctb2Low": null,
            "ctb2Main": {
              "ntr": "ROOT_TRANSPOSITION",
              "ntt": "DORIAN_5",
              "bassOn": false,
              "chordRootUpperLimit": 6,
              "noteLowLimit": 67,
              "noteHighLimit": 79,
              "rtr": "PITCH_SHIFT"
            },
            "ctb2High": null
          },
          "notes": [
            {
              "pitch": 70,
              "velocity": 63,
              "position": 0,
              "duration": 0.3333333333333333
            },
            {
              "pitch": 74,
              "velocity": 63,
              "position": 0,
              "duration": 0.3333333333333333
            },
            {
              "pitch": 70,
              "velocity": 74,
              "position": 1,
              "duration": 0.6666666666666666
            },
            {
              "pitch": 74,
              "velocity": 74,
              "position": 1,
              "duration": 0.6666666666666666
            },
            {
              "pitch": 74,
              "velocity": 75,
              "position": 4,
              "duration": 0.6354166666666666
            },
            {
              "pitch": 69,
              "velocity": 80,
              "position": 4,
              "duration": 0.6458333333333334
            },
            {
              "pitch": 69,
              "velocity": 68,
              "position": 6,
              "duration": 0.6666666666666666
            },
            {
              "pitch": 74,
              "velocity": 59,
              "position": 6,
              "duration": 0.6666666666666666
            },
            {
              "pitch": 70,
              "velocity": 55,
              "position": 7.666666666666667,
              "duration": 0.3125
            },
            {
              "pitch": 74,
              "velocity": 53,
              "position": 7.666666666666667,
              "duration": 0.3229166666666667
            },
            {
              "pitch": 74,
              "velocity": 84,
              "position": 8.666666666666666,
              "duration": 0.9791666666666666
            },
            {
              "pitch": 70,
              "velocity": 86,
              "position": 8.666666666666666,
              "duration": 0.9895833333333334
            },
            {
              "pitch": 69,
              "velocity": 73,
              "position": 10,
              "duration": 0.3020833333333333
            },
            {
              "pitch": 74,
              "velocity": 85,
              "position": 10,
              "duration": 0.3229166666666667
            },
            {
              "pitch": 74,
              "velocity": 63,
              "position": 11,
              "duration": 0.3020833333333333
            },
            {
              "pitch": 70,
              "velocity": 60,
              "position": 11,
              "duration": 0.3333333333333333
            },
            {
              "pitch": 74,
              "velocity": 65,
              "position": 14,
              "duration": 0.6354166666666666
            },
            {
              "pitch": 69,
              "velocity": 70,
              "position": 14,
              "duration": 0.6458333333333334
            },
            {
              "pitch": 70,
              "velocity": 85,
              "position": 15.666666666666666,
              "duration": 2.96875
            },
            {
              "pitch": 74,
              "velocity": 74,
              "position": 15.666666666666666,
              "duration": 3
            },
            {
              "pitch": 74,
              "velocity": 76,
              "position": 19,
              "duration": 0.3125
            },
            {
              "pitch": 69,
              "velocity": 81,
              "position": 19,
              "duration": 0.3229166666666667
            },
            {
              "pitch": 69,
              "velocity": 67,
              "position": 21.666666666666668,
              "duration": 0.96875
            },
            {
              "pitch": 74,
              "velocity": 62,
              "position": 21.666666666666668,
              "duration": 0.9791666666666666
            },
            {
              "pitch": 74,
              "velocity": 88,
              "position": 23,
              "duration": 0.6354166666666666
            },
            {
              "pitch": 70,
              "velocity": 80,
              "position": 23,
              "duration": 0.6458333333333334
            },
            {
              "pitch": 69,
              "velocity": 80,
              "position": 29,
              "duration": 2.65625
            },
            {
              "pitch": 74,
              "velocity": 76,
              "position": 29,
              "duration": 2.65625
            },
            {
              "pitch": 79,
              "velocity": 82,
              "position": 32,
              "duration": 0.3020833333333333
            },
            {
              "pitch": 84,
              "velocity": 83,
              "position": 32,
              "duration": 0.3229166666666667
            },
            {
              "pitch": 69,
              "velocity": 85,
              "position": 32,
              "duration": 0.3333333333333333
            },
            {
              "pitch": 74,
              "velocity": 85,
              "position": 32,
              "duration": 0.3333333333333333
            },
            {
              "pitch": 74,
              "velocity": 72,
              "position": 36,
              "duration": 0.3020833333333333
            },
            {
              "pitch": 69,
              "velocity": 78,
              "position": 36,
              "duration": 0.3125
            },
            {
              "pitch": 69,
              "velocity": 68,
              "position": 38,
              "duration": 0.9791666666666666
            },
            {
              "pitch": 74,
              "velocity": 51,
              "position": 38,
              "duration": 0.9895833333333334
            },
            {
              "pitch": 69,
              "velocity": 84,
              "position": 39.666666666666664,
              "duration": 3.9895833333333335
            },
            {
              "pitch": 74,
              "velocity": 88,
              "position": 39.666666666666664,
              "duration": 4
            },
            {
              "pitch": 79,
              "velocity": 88,
              "position": 39.666666666666664,
              "duration": 4
            },
            {
              "pitch": 74,
              "velocity": 75,
              "position": 45,
              "duration": 2.6354166666666665
            },
            {
              "pitch": 69,
              "velocity": 76,
              "position": 45,
              "duration": 2.6666666666666665
            },
            {
              "pitch": 70,
              "velocity": 79,
              "position": 48,
              "duration": 0.3125
            },
            {
              "pitch": 76,
              "velocity": 67,
              "position": 48,
              "duration": 0.3125
            },
            {
              "pitch": 81,
              "velocity": 75,
              "position": 48,
              "duration": 0.3229166666666667
            },
            {
              "pitch": 70,
              "velocity": 84,
              "position": 49.666666666666664,
              "duration": 0.3125
            },
            {
              "pitch": 81,
              "velocity": 87,
              "position": 49.666666666666664,
              "duration": 0.3229166666666667
            },
            {
              "pitch": 76,
              "velocity": 75,
              "position": 49.666666666666664,
              "duration": 0.3333333333333333
            },
            {
              "pitch": 74,
              "velocity": 69,
              "position": 52,
              "duration": 0.3125
            },
            {
              "pitch": 69,
              "velocity": 62,
              "position": 52,
              "duration": 0.3333333333333333
            },
            {
              "pitch": 79,
              "velocity": 62,
              "position": 52,
              "duration": 0.3333333333333333
            },
            {
              "pitch": 74,
              "velocity": 80,
              "position": 53.666666666666664,
              "duration": 0.3020833333333333
            },
            {
              "pitch": 69,
              "velocity": 80,
              "position": 53.666666666666664,
              "duration": 0.3229166666666667
            },
            {
              "pitch": 79,
              "velocity": 87,
              "position": 53.666666666666664,
              "duration": 0.3229166666666667
            },
            {
              "pitch": 72,
              "velocity": 76,
              "position": 56,
              "duration": 0.3229166666666667
            },
            {
              "pitch": 76,
              "velocity": 76,
              "position": 56,
              "duration": 0.3229166666666667
            },
            {
              "pitch": 69,
              "velocity": 70,
              "position": 56,
              "duration": 0.3333333333333333
            },
            {
              "pitch": 72,
              "velocity": 81,
              "position": 57.666666666666664,
              "duration": 0.3020833333333333
            },
            {
              "pitch": 76,
              "velocity": 81,
              "position": 57.666666666666664,
              "duration": 0.3020833333333333
            },
            {
              "pitch": 69,
              "velocity": 81,
              "position": 57.666666666666664,
              "duration": 0.3125
            },
            {
              "pitch": 74,
              "velocity": 80,
              "position": 61,
              "duration": 2.6354166666666665
            },
            {
              "pitch": 70,
              "velocity": 75,
              "position": 61,
              "duration": 2.65625
            }
          ]
        },
        "8": {
          "ctab": {
            "srcChannel": 8,
            "name": "DrSolo",
            "accType": "SUBRHYTHM",
            "editable": false,
            "mutedNotes": [],
            "mutedChords": [],
            "autoStart": true,
            "sourceChordNote": 0,
            "sourceChordType": "Maj7",
            "ctb2Low": null,
            "ctb2Main": {
              "ntr": "ROOT_FIXED",
              "ntt": "BYPASS",
              "bassOn": false,
              "chordRootUpperLimit": 6,
              "noteLowLimit": 0,
              "noteHighLimit": 127,
              "rtr": "PITCH_SHIFT"
            },
            "ctb2High": null
          },
          "notes": []
        },
        "9": {
          "ctab": {
            "srcChannel": 9,
            "name": "Drs",
            "accType": "RHYTHM",
            "editable": false,
            "mutedNotes": [],
            "mutedChords": [],
            "autoStart": true,
            "sourceChordNote": 0,
            "sourceChordType": "Maj7",
            "ctb2Low": null,
            "ctb2Main": {
              "ntr": "ROOT_FIXED",
              "ntt": "BYPASS",
              "bassOn": false,
              "chordRootUpperLimit": 6,
              "noteLowLimit": 0,
              "noteHighLimit": 127,
              "rtr": "PITCH_SHIFT"
            },
            "ctb2High": null
          },
          "notes": [
            {
              "pitch": 59,
              "velocity": 72,
              "position": 0,
              "duration": 0.010416666666666666
            },
            {
              "pitch": 44,
              "velocity": 59,
              "position": 1,
              "duration": 0.010416666666666666
            },
            {
              "pitch": 59,
              "velocity": 70,
              "position": 1,
              "duration": 0.010416666666666666
            },
            {
              "pitch": 59,
              "velocity": 19,
              "position": 1.6666666666666667,
              "duration": 0.010416666666666666
            },
            {
              "pitch": 38,
              "velocity": 51,
              "position": 2,
              "duration": 0.010416666666666666
            },
            {
              "pitch": 59,
              "velocity": 64,
              "position": 2,
              "duration": 0.010416666666666666
            },
            {
              "pitch": 44,
              "velocity": 61,
              "position": 3,
              "duration": 0.010416666666666666
            },
            {
              "pitch": 59,
              "velocity": 76,
              "position": 3,
              "duration": 0.010416666666666666
            },
            {
              "pitch": 38,
              "velocity": 40,
              "position": 3.6666666666666665,
              "duration": 0.010416666666666666
            },
            {
              "pitch": 59,
              "velocity": 22,
              "position": 3.6666666666666665,
              "duration": 0.010416666666666666
            },
            {
              "pitch": 33,
              "velocity": 59,
              "position": 4,
              "duration": 0.010416666666666666
            },
            {
              "pitch": 59,
              "velocity": 63,
              "position": 4,
              "duration": 0.010416666666666666
            },
            {
              "pitch": 44,
              "velocity": 67,
              "position": 5,
              "duration": 0.010416666666666666
            },
            {
              "pitch": 59,
              "velocity": 65,
              "position": 5,
              "duration": 0.010416666666666666
            },
            {
              "pitch": 59,
              "velocity": 35,
              "position": 5.666666666666667,
              "duration": 0.010416666666666666
            },
            {
              "pitch": 59,
              "velocity": 68,
              "position": 6,
              "duration": 0.010416666666666666
            },
            {
              "pitch": 38,
              "velocity": 45,
              "position": 6.666666666666667,
              "duration": 0.010416666666666666
            },
            {
              "pitch": 44,
              "velocity": 61,
              "position": 7,
              "duration": 0.010416666666666666
            },
            {
              "pitch": 59,
              "velocity": 61,
              "position": 7,
              "duration": 0.010416666666666666
            },
            {
              "pitch": 59,
              "velocity": 24,
              "position": 7.666666666666667,
              "duration": 0.010416666666666666
            },
            {
              "pitch": 59,
              "velocity": 69,
              "position": 8,
              "duration": 0.010416666666666666
            },
            {
              "pitch": 44,
              "velocity": 62,
              "position": 9,
              "duration": 0.010416666666666666
            },
            {
              "pitch": 59,
              "velocity": 65,
              "position": 9,
              "duration": 0.010416666666666666
            },
            {
              "pitch": 59,
              "velocity": 37,
              "position": 9.666666666666666,
              "duration": 0.010416666666666666
            },
            {
              "pitch": 59,
              "velocity": 71,
              "position": 10,
              "duration": 0.010416666666666666
            },
            {
              "pitch": 44,
              "velocity": 75,
              "position": 11,
              "duration": 0.010416666666666666
            },
            {
              "pitch": 59,
              "velocity": 76,
              "position": 11,
              "duration": 0.010416666666666666
            },
            {
              "pitch": 59,
              "velocity": 21,
              "position": 11.666666666666666,
              "duration": 0.010416666666666666
            },
            {
              "pitch": 59,
              "velocity": 67,
              "position": 12,
              "duration": 0.010416666666666666
            },
            {
              "pitch": 44,
              "velocity": 74,
              "position": 13,
              "duration": 0.010416666666666666
            },
            {
              "pitch": 59,
              "velocity": 68,
              "position": 13,
              "duration": 0.010416666666666666
            },
            {
              "pitch": 33,
              "velocity": 63,
              "position": 13.666666666666666,
              "duration": 0.010416666666666666
            },
            {
              "pitch": 59,
              "velocity": 26,
              "position": 13.666666666666666,
              "duration": 0.010416666666666666
            },
            {
              "pitch": 59,
              "velocity": 68,
              "position": 14,
              "duration": 0.010416666666666666
            },
            {
              "pitch": 44,
              "velocity": 67,
              "position": 15,
              "duration": 0.010416666666666666
            },
            {
              "pitch": 59,
              "velocity": 73,
              "position": 15,
              "duration": 0.010416666666666666
            },
            {
              "pitch": 38,
              "velocity": 51,
              "position": 15.666666666666666,
              "duration": 0.010416666666666666
            },
            {
              "pitch": 52,
              "velocity": 37,
              "position": 15.666666666666666,
              "duration": 0.010416666666666666
            },
            {
              "pitch": 59,
              "velocity": 111,
              "position": 15.666666666666666,
              "duration": 0.010416666666666666
            },
            {
              "pitch": 44,
              "velocity": 64,
              "position": 17,
              "duration": 0.010416666666666666
            },
            {
              "pitch": 59,
              "velocity": 72,
              "position": 17,
              "duration": 0.010416666666666666
            },
            {
              "pitch": 59,
              "velocity": 34,
              "position": 17.666666666666668,
              "duration": 0.010416666666666666
            },
            {
              "pitch": 59,
              "velocity": 69,
              "position": 18,
              "duration": 0.010416666666666666
            },
            {
              "pitch": 44,
              "velocity": 63,
              "position": 19,
              "duration": 0.010416666666666666
            },
            {
              "pitch": 59,
              "velocity": 62,
              "position": 19,
              "duration": 0.010416666666666666
            },
            {
              "pitch": 59,
              "velocity": 29,
              "position": 19.666666666666668,
              "duration": 0.010416666666666666
            },
            {
              "pitch": 59,
              "velocity": 73,
              "position": 20,
              "duration": 0.010416666666666666
            },
            {
              "pitch": 44,
              "velocity": 61,
              "position": 21,
              "duration": 0.010416666666666666
            },
            {
              "pitch": 59,
              "velocity": 73,
              "position": 21,
              "duration": 0.010416666666666666
            },
            {
              "pitch": 59,
              "velocity": 19,
              "position": 21.666666666666668,
              "duration": 0.010416666666666666
            },
            {
              "pitch": 59,
              "velocity": 67,
              "position": 22,
              "duration": 0.010416666666666666
            },
            {
              "pitch": 38,
              "velocity": 42,
              "position": 22.666666666666668,
              "duration": 0.010416666666666666
            },
            {
              "pitch": 44,
              "velocity": 60,
              "position": 23,
              "duration": 0.010416666666666666
            },
            {
              "pitch": 59,
              "velocity": 71,
              "position": 23,
              "duration": 0.010416666666666666
            },
            {
              "pitch": 59,
              "velocity": 19,
              "position": 23.666666666666668,
              "duration": 0.010416666666666666
            },
            {
              "pitch": 59,
              "velocity": 74,
              "position": 24,
              "duration": 0.010416666666666666
            },
            {
              "pitch": 44,
              "velocity": 68,
              "position": 25,
              "duration": 0.010416666666666666
            },
            {
              "pitch": 59,
              "velocity": 60,
              "position": 25,
              "duration": 0.010416666666666666
            },
            {
              "pitch": 38,
              "velocity": 51,
              "position": 25.666666666666668,
              "duration": 0.010416666666666666
            },
            {
              "pitch": 59,
              "velocity": 29,
              "position": 25.666666666666668,
              "duration": 0.010416666666666666
            },
            {
              "pitch": 59,
              "velocity": 71,
              "position": 26,
              "duration": 0.010416666666666666
            },
            {
              "pitch": 44,
              "velocity": 70,
              "position": 27,
              "duration": 0.010416666666666666
            },
            {
              "pitch": 59,
              "velocity": 75,
              "position": 27,
              "duration": 0.010416666666666666
            },
            {
              "pitch": 59,
              "velocity": 25,
              "position": 27.666666666666668,
              "duration": 0.010416666666666666
            },
            {
              "pitch": 59,
              "velocity": 77,
              "position": 28,
              "duration": 0.010416666666666666
            },
            {
              "pitch": 38,
              "velocity": 49,
              "position": 28.666666666666668,
              "duration": 0.010416666666666666
            },
            {
              "pitch": 44,
              "velocity": 63,
              "position": 29,
              "duration": 0.010416666666666666
            },
            {
              "pitch": 59,
              "velocity": 68,
              "position": 29,
              "duration": 0.010416666666666666
            },
            {
              "pitch": 59,
              "velocity": 36,
              "position": 29.666666666666668,
              "duration": 0.010416666666666666
            },
            {
              "pitch": 59,
              "velocity": 65,
              "position": 30,
              "duration": 0.010416666666666666
            },
            {
              "pitch": 44,
              "velocity": 68,
              "position": 31,
              "duration": 0.010416666666666666
            },
            {
              "pitch": 59,
              "velocity": 70,
              "position": 31,
              "duration": 0.010416666666666666
            },
            {
              "pitch": 33,
              "velocity": 60,
              "position": 31.666666666666668,
              "duration": 0.010416666666666666
            },
            {
              "pitch": 59,
              "velocity": 28,
              "position": 31.666666666666668,
              "duration": 0.010416666666666666
            },
            {
              "pitch": 59,
              "velocity": 61,
              "position": 32,
              "duration": 0.010416666666666666
            },
            {
              "pitch": 44,
              "velocity": 63,
              "position": 33,
              "duration": 0.010416666666666666
            },
            {
              "pitch": 59,
              "velocity": 76,
              "position": 33,
              "duration": 0.010416666666666666
            },
            {
              "pitch": 38,
              "velocity": 49,
              "position": 33.666666666666664,
              "duration": 0.010416666666666666
            },
            {
              "pitch": 59,
              "velocity": 32,
              "position": 33.666666666666664,
              "duration": 0.010416666666666666
            },
            {
              "pitch": 59,
              "velocity": 72,
              "position": 34,
              "duration": 0.010416666666666666
            },
            {
              "pitch": 44,
              "velocity": 75,
              "position": 35,
              "duration": 0.010416666666666666
            },
            {
              "pitch": 59,
              "velocity": 77,
              "position": 35,
              "duration": 0.010416666666666666
            },
            {
              "pitch": 59,
              "velocity": 32,
              "position": 35.666666666666664,
              "duration": 0.010416666666666666
            },
            {
              "pitch": 59,
              "velocity": 72,
              "position": 36,
              "duration": 0.010416666666666666
            },
            {
              "pitch": 33,
              "velocity": 69,
              "position": 37,
              "duration": 0.010416666666666666
            },
            {
              "pitch": 44,
              "velocity": 63,
              "position": 37,
              "duration": 0.010416666666666666
            },
            {
              "pitch": 52,
              "velocity": 43,
              "position": 37,
              "duration": 0.010416666666666666
            },
            {
              "pitch": 59,
              "velocity": 71,
              "position": 37,
              "duration": 0.010416666666666666
            },
            {
              "pitch": 59,
              "velocity": 26,
              "position": 37.666666666666664,
              "duration": 0.010416666666666666
            },
            {
              "pitch": 59,
              "velocity": 63,
              "position": 38,
              "duration": 0.010416666666666666
            },
            {
              "pitch": 44,
              "velocity": 59,
              "position": 39,
              "duration": 0.010416666666666666
            },
            {
              "pitch": 59,
              "velocity": 60,
              "position": 39,
              "duration": 0.010416666666666666
            },
            {
              "pitch": 59,
              "velocity": 36,
              "position": 39.666666666666664,
              "duration": 0.010416666666666666
            },
            {
              "pitch": 59,
              "velocity": 67,
              "position": 40,
              "duration": 0.010416666666666666
            },
            {
              "pitch": 44,
              "velocity": 65,
              "position": 41,
              "duration": 0.010416666666666666
            },
            {
              "pitch": 59,
              "velocity": 67,
              "position": 41,
              "duration": 0.010416666666666666
            },
            {
              "pitch": 38,
              "velocity": 43,
              "position": 41.666666666666664,
              "duration": 0.010416666666666666
            },
            {
              "pitch": 59,
              "velocity": 24,
              "position": 41.666666666666664,
              "duration": 0.010416666666666666
            },
            {
              "pitch": 59,
              "velocity": 59,
              "position": 42,
              "duration": 0.010416666666666666
            },
            {
              "pitch": 44,
              "velocity": 63,
              "position": 43,
              "duration": 0.010416666666666666
            },
            {
              "pitch": 59,
              "velocity": 76,
              "position": 43,
              "duration": 0.010416666666666666
            },
            {
              "pitch": 38,
              "velocity": 40,
              "position": 43.666666666666664,
              "duration": 0.010416666666666666
            },
            {
              "pitch": 59,
              "velocity": 30,
              "position": 43.666666666666664,
              "duration": 0.010416666666666666
            },
            {
              "pitch": 59,
              "velocity": 77,
              "position": 44,
              "duration": 0.010416666666666666
            },
            {
              "pitch": 44,
              "velocity": 68,
              "position": 45,
              "duration": 0.010416666666666666
            },
            {
              "pitch": 59,
              "velocity": 62,
              "position": 45,
              "duration": 0.010416666666666666
            },
            {
              "pitch": 59,
              "velocity": 31,
              "position": 45.666666666666664,
              "duration": 0.010416666666666666
            },
            {
              "pitch": 59,
              "velocity": 62,
              "position": 46,
              "duration": 0.010416666666666666
            },
            {
              "pitch": 44,
              "velocity": 70,
              "position": 47,
              "duration": 0.010416666666666666
            },
            {
              "pitch": 59,
              "velocity": 62,
              "position": 47,
              "duration": 0.010416666666666666
            },
            {
              "pitch": 59,
              "velocity": 31,
              "position": 47.666666666666664,
              "duration": 0.010416666666666666
            },
            {
              "pitch": 59,
              "velocity": 65,
              "position": 48,
              "duration": 0.010416666666666666
            },
            {
              "pitch": 38,
              "velocity": 33,
              "position": 49,
              "duration": 0.010416666666666666
            },
            {
              "pitch": 44,
              "velocity": 75,
              "position": 49,
              "duration": 0.010416666666666666
            },
            {
              "pitch": 59,
              "velocity": 59,
              "position": 49,
              "duration": 0.010416666666666666
            },
            {
              "pitch": 59,
              "velocity": 37,
              "position": 49.666666666666664,
              "duration": 0.010416666666666666
            },
            {
              "pitch": 59,
              "velocity": 59,
              "position": 50,
              "duration": 0.010416666666666666
            },
            {
              "pitch": 33,
              "velocity": 73,
              "position": 50.666666666666664,
              "duration": 0.010416666666666666
            },
            {
              "pitch": 44,
              "velocity": 66,
              "position": 51,
              "duration": 0.010416666666666666
            },
            {
              "pitch": 59,
              "velocity": 68,
              "position": 51,
              "duration": 0.010416666666666666
            },
            {
              "pitch": 59,
              "velocity": 24,
              "position": 51.666666666666664,
              "duration": 0.010416666666666666
            },
            {
              "pitch": 38,
              "velocity": 40,
              "position": 52,
              "duration": 0.010416666666666666
            },
            {
              "pitch": 59,
              "velocity": 60,
              "position": 52,
              "duration": 0.010416666666666666
            },
            {
              "pitch": 44,
              "velocity": 69,
              "position": 53,
              "duration": 0.010416666666666666
            },
            {
              "pitch": 59,
              "velocity": 61,
              "position": 53,
              "duration": 0.010416666666666666
            },
            {
              "pitch": 59,
              "velocity": 23,
              "position": 53.666666666666664,
              "duration": 0.010416666666666666
            },
            {
              "pitch": 59,
              "velocity": 72,
              "position": 54,
              "duration": 0.010416666666666666
            },
            {
              "pitch": 44,
              "velocity": 68,
              "position": 55,
              "duration": 0.010416666666666666
            },
            {
              "pitch": 59,
              "velocity": 62,
              "position": 55,
              "duration": 0.010416666666666666
            },
            {
              "pitch": 59,
              "velocity": 32,
              "position": 55.666666666666664,
              "duration": 0.010416666666666666
            },
            {
              "pitch": 59,
              "velocity": 74,
              "position": 56,
              "duration": 0.010416666666666666
            },
            {
              "pitch": 33,
              "velocity": 77,
              "position": 57,
              "duration": 0.010416666666666666
            },
            {
              "pitch": 44,
              "velocity": 76,
              "position": 57,
              "duration": 0.010416666666666666
            },
            {
              "pitch": 59,
              "velocity": 67,
              "position": 57,
              "duration": 0.010416666666666666
            },
            {
              "pitch": 59,
              "velocity": 34,
              "position": 57.666666666666664,
              "duration": 0.010416666666666666
            },
            {
              "pitch": 59,
              "velocity": 65,
              "position": 58,
              "duration": 0.010416666666666666
            },
            {
              "pitch": 38,
              "velocity": 48,
              "position": 58.666666666666664,
              "duration": 0.010416666666666666
            },
            {
              "pitch": 44,
              "velocity": 75,
              "position": 59,
              "duration": 0.010416666666666666
            },
            {
              "pitch": 59,
              "velocity": 63,
              "position": 59,
              "duration": 0.010416666666666666
            },
            {
              "pitch": 59,
              "velocity": 22,
              "position": 59.666666666666664,
              "duration": 0.010416666666666666
            },
            {
              "pitch": 33,
              "velocity": 66,
              "position": 60,
              "duration": 0.010416666666666666
            },
            {
              "pitch": 59,
              "velocity": 68,
              "position": 60,
              "duration": 0.010416666666666666
            },
            {
              "pitch": 44,
              "velocity": 69,
              "position": 61,
              "duration": 0.010416666666666666
            },
            {
              "pitch": 59,
              "velocity": 77,
              "position": 61,
              "duration": 0.010416666666666666
            },
            {
              "pitch": 38,
              "velocity": 35,
              "position": 61.666666666666664,
              "duration": 0.010416666666666666
            },
            {
              "pitch": 59,
              "velocity": 33,
              "position": 61.666666666666664,
              "duration": 0.010416666666666666
            },
            {
              "pitch": 59,
              "velocity": 65,
              "position": 62,
              "duration": 0.010416666666666666
            },
            {
              "pitch": 33,
              "velocity": 62,
              "position": 63,
              "duration": 0.010416666666666666
            },
            {
              "pitch": 44,
              "velocity": 68,
              "position": 63,
              "duration": 0.010416666666666666
            },
            {
              "pitch": 59,
              "velocity": 65,
              "position": 63,
              "duration": 0.010416666666666666
            },
            {
              "pitch": 59,
              "velocity": 19,
              "position": 63.666666666666664,
              "duration": 0.010416666666666666
            }
          ]
        }
      }
    },
    "Main_D": {
      "type": "Main_D",
      "sizeInBeats": 128,
      "channels": {
        "0": {
          "ctab": {
            "srcChannel": 0,
            "name": "Bass mM7",
            "accType": "BASS",
            "editable": false,
            "mutedNotes": [],
            "mutedChords": [
              "1+2+5",
              "7aug",
              "Maj7aug",
              "7(#9)",
              "7(b13)",
              "7(b9)",
              "7(13)",
              "7#11",
              "7(9)",
              "7b5",
              "7th",
              "dim7",
              "dim",
              "min7(11)",
              "min7(9)",
              "min(9)",
              "m7b5",
              "min7",
              "min6",
              "min",
              "aug",
              "Maj6(9)",
              "Maj7(9)",
              "Maj(9)",
              "Maj7#11",
              "Maj7",
              "Maj6",
              "Maj"
            ],
            "autoStart": false,
            "sourceChordNote": 0,
            "sourceChordType": "Maj7",
            "ctb2Low": null,
            "ctb2Main": {
              "ntr": "ROOT_TRANSPOSITION",
              "ntt": "MELODY",
              "bassOn": true,
              "chordRootUpperLimit": 4,
              "noteLowLimit": 28,
              "noteHighLimit": 127,
              "rtr": "PITCH_SHIFT_TO_ROOT"
            },
            "ctb2High": null
          },
          "notes": [
            {
              "pitch": 48,
              "velocity": 60,
              "position": 0,
              "duration": 0.9895833333333334
            },
            {
              "pitch": 40,
              "velocity": 60,
              "position": 1,
              "duration": 0.9895833333333334
            },
            {
              "pitch": 45,
              "velocity": 60,
              "position": 2,
              "duration": 0.9895833333333334
            },
            {
              "pitch": 50,
              "velocity": 60,
              "position": 3,
              "duration": 0.9895833333333334
            },
            {
              "pitch": 48,
              "velocity": 60,
              "position": 4,
              "duration": 0.5729166666666666
            },
            {
              "pitch": 36,
              "velocity": 60,
              "position": 4.583333333333333,
              "duration": 0.40625
            },
            {
              "pitch": 47,
              "velocity": 60,
              "position": 5,
              "duration": 0.9895833333333334
            },
            {
              "pitch": 43,
              "velocity": 60,
              "position": 6,
              "duration": 0.9895833333333334
            },
            {
              "pitch": 40,
              "velocity": 60,
              "position": 7,
              "duration": 0.9895833333333334
            },
            {
              "pitch": 36,
              "velocity": 60,
              "position": 8,
              "duration": 0.9895833333333334
            },
            {
              "pitch": 40,
              "velocity": 60,
              "position": 9,
              "duration": 0.9895833333333334
            },
            {
              "pitch": 47,
              "velocity": 60,
              "position": 10,
              "duration": 0.9895833333333334
            },
            {
              "pitch": 43,
              "velocity": 60,
              "position": 11,
              "duration": 0.9895833333333334
            },
            {
              "pitch": 43,
              "velocity": 60,
              "position": 12,
              "duration": 0.9895833333333334
            },
            {
              "pitch": 40,
              "velocity": 60,
              "position": 13,
              "duration": 0.9895833333333334
            },
            {
              "pitch": 47,
              "velocity": 60,
              "position": 14,
              "duration": 0.9895833333333334
            },
            {
              "pitch": 50,
              "velocity": 60,
              "position": 15,
              "duration": 0.9895833333333334
            },
            {
              "pitch": 48,
              "velocity": 60,
              "position": 16,
              "duration": 0.9895833333333334
            },
            {
              "pitch": 48,
              "velocity": 60,
              "position": 32,
              "duration": 0.9895833333333334
            },
            {
              "pitch": 40,
              "velocity": 60,
              "position": 33,
              "duration": 0.9895833333333334
            },
            {
              "pitch": 45,
              "velocity": 60,
              "position": 34,
              "duration": 0.9895833333333334
            },
            {
              "pitch": 43,
              "velocity": 60,
              "position": 35,
              "duration": 0.9895833333333334
            },
            {
              "pitch": 43,
              "velocity": 60,
              "position": 36,
              "duration": 0.9895833333333334
            },
            {
              "pitch": 38,
              "velocity": 60,
              "position": 37,
              "duration": 0.9895833333333334
            },
            {
              "pitch": 40,
              "velocity": 60,
              "position": 38,
              "duration": 0.9895833333333334
            },
            {
              "pitch": 43,
              "velocity": 60,
              "position": 39,
              "duration": 0.9895833333333334
            },
            {
              "pitch": 36,
              "velocity": 60,
              "position": 40,
              "duration": 0.9895833333333334
            },
            {
              "pitch": 43,
              "velocity": 60,
              "position": 41,
              "duration": 0.5729166666666666
            },
            {
              "pitch": 36,
              "velocity": 40,
              "position": 41.583333333333336,
              "duration": 0.2916666666666667
            },
            {
              "pitch": 47,
              "velocity": 60,
              "position": 42,
              "duration": 0.9895833333333334
            },
            {
              "pitch": 43,
              "velocity": 60,
              "position": 43,
              "duration": 0.5729166666666666
            },
            {
              "pitch": 36,
              "velocity": 40,
              "position": 43.583333333333336,
              "duration": 0.2916666666666667
            },
            {
              "pitch": 48,
              "velocity": 60,
              "position": 44,
              "duration": 0.9895833333333334
            },
            {
              "pitch": 43,
              "velocity": 60,
              "position": 45,
              "duration": 0.9895833333333334
            },
            {
              "pitch": 40,
              "velocity": 60,
              "position": 46,
              "duration": 0.9895833333333334
            },
            {
              "pitch": 43,
              "velocity": 60,
              "position": 47,
              "duration": 0.9895833333333334
            },
            {
              "pitch": 36,
              "velocity": 60,
              "position": 48,
              "duration": 0.9895833333333334
            },
            {
              "pitch": 48,
              "velocity": 60,
              "position": 64,
              "duration": 0.9895833333333334
            },
            {
              "pitch": 50,
              "velocity": 60,
              "position": 65,
              "duration": 0.9895833333333334
            },
            {
              "pitch": 52,
              "velocity": 60,
              "position": 66,
              "duration": 0.9895833333333334
            },
            {
              "pitch": 55,
              "velocity": 60,
              "position": 67,
              "duration": 0.9895833333333334
            },
            {
              "pitch": 48,
              "velocity": 60,
              "position": 68,
              "duration": 0.9895833333333334
            },
            {
              "pitch": 47,
              "velocity": 60,
              "position": 69,
              "duration": 0.9895833333333334
            },
            {
              "pitch": 50,
              "velocity": 60,
              "position": 70,
              "duration": 0.9895833333333334
            },
            {
              "pitch": 45,
              "velocity": 60,
              "position": 71,
              "duration": 0.9895833333333334
            },
            {
              "pitch": 48,
              "velocity": 60,
              "position": 72,
              "duration": 0.9895833333333334
            },
            {
              "pitch": 43,
              "velocity": 60,
              "position": 73,
              "duration": 0.9895833333333334
            },
            {
              "pitch": 47,
              "velocity": 60,
              "position": 74,
              "duration": 0.9895833333333334
            },
            {
              "pitch": 40,
              "velocity": 60,
              "position": 75,
              "duration": 0.9895833333333334
            },
            {
              "pitch": 43,
              "velocity": 60,
              "position": 76,
              "duration": 0.9895833333333334
            },
            {
              "pitch": 38,
              "velocity": 60,
              "position": 77,
              "duration": 0.9895833333333334
            },
            {
              "pitch": 43,
              "velocity": 60,
              "position": 78,
              "duration": 0.9895833333333334
            },
            {
              "pitch": 40,
              "velocity": 60,
              "position": 79,
              "duration": 0.9895833333333334
            },
            {
              "pitch": 36,
              "velocity": 60,
              "position": 80,
              "duration": 0.9895833333333334
            },
            {
              "pitch": 36,
              "velocity": 60,
              "position": 96,
              "duration": 0.5729166666666666
            },
            {
              "pitch": 31,
              "velocity": 40,
              "position": 96.58333333333333,
              "duration": 0.2916666666666667
            },
            {
              "pitch": 40,
              "velocity": 60,
              "position": 97,
              "duration": 0.9895833333333334
            },
            {
              "pitch": 43,
              "velocity": 60,
              "position": 98,
              "duration": 0.9895833333333334
            },
            {
              "pitch": 43,
              "velocity": 60,
              "position": 99,
              "duration": 0.5729166666666666
            },
            {
              "pitch": 32,
              "velocity": 40,
              "position": 99.58333333333333,
              "duration": 0.2916666666666667
            },
            {
              "pitch": 43,
              "velocity": 60,
              "position": 100,
              "duration": 0.9895833333333334
            },
            {
              "pitch": 36,
              "velocity": 60,
              "position": 101,
              "duration": 0.9895833333333334
            },
            {
              "pitch": 36,
              "velocity": 60,
              "position": 102,
              "duration": 0.9895833333333334
            },
            {
              "pitch": 40,
              "velocity": 60,
              "position": 103,
              "duration": 0.9895833333333334
            },
            {
              "pitch": 48,
              "velocity": 60,
              "position": 104,
              "duration": 0.9895833333333334
            },
            {
              "pitch": 48,
              "velocity": 60,
              "position": 105,
              "duration": 0.5729166666666666
            },
            {
              "pitch": 43,
              "velocity": 40,
              "position": 105.58333333333333,
              "duration": 0.2916666666666667
            },
            {
              "pitch": 48,
              "velocity": 60,
              "position": 106,
              "duration": 0.5729166666666666
            },
            {
              "pitch": 43,
              "velocity": 40,
              "position": 106.58333333333333,
              "duration": 0.2916666666666667
            },
            {
              "pitch": 48,
              "velocity": 60,
              "position": 107,
              "duration": 0.9895833333333334
            },
            {
              "pitch": 48,
              "velocity": 60,
              "position": 108,
              "duration": 0.9895833333333334
            },
            {
              "pitch": 47,
              "velocity": 60,
              "position": 109,
              "duration": 0.9895833333333334
            },
            {
              "pitch": 43,
              "velocity": 60,
              "position": 110,
              "duration": 0.9895833333333334
            },
            {
              "pitch": 40,
              "velocity": 60,
              "position": 111,
              "duration": 0.9895833333333334
            },
            {
              "pitch": 36,
              "velocity": 60,
              "position": 112,
              "duration": 15.989583333333334
            }
          ]
        },
        "1": {
          "ctab": {
            "srcChannel": 1,
            "name": "Bass",
            "accType": "BASS",
            "editable": false,
            "mutedNotes": [],
            "mutedChords": [
              "sus4",
              "1+5",
              "1+8",
              "7aug",
              "7(#9)",
              "7(b13)",
              "7(b9)",
              "7(13)",
              "7#11",
              "7(9)",
              "7b5",
              "7sus4",
              "7th",
              "dim7",
              "minMaj7(9)",
              "minMaj7",
              "min7(11)",
              "min7(9)",
              "min(9)",
              "m7b5",
              "min7"
            ],
            "autoStart": false,
            "sourceChordNote": 0,
            "sourceChordType": "Maj7",
            "ctb2Low": null,
            "ctb2Main": {
              "ntr": "ROOT_TRANSPOSITION",
              "ntt": "DORIAN_5",
              "bassOn": true,
              "chordRootUpperLimit": 4,
              "noteLowLimit": 28,
              "noteHighLimit": 127,
              "rtr": "PITCH_SHIFT_TO_ROOT"
            },
            "ctb2High": null
          },
          "notes": [
            {
              "pitch": 48,
              "velocity": 60,
              "position": 0,
              "duration": 0.9895833333333334
            },
            {
              "pitch": 40,
              "velocity": 60,
              "position": 1,
              "duration": 0.9895833333333334
            },
            {
              "pitch": 45,
              "velocity": 60,
              "position": 2,
              "duration": 0.9895833333333334
            },
            {
              "pitch": 50,
              "velocity": 60,
              "position": 3,
              "duration": 0.9895833333333334
            },
            {
              "pitch": 48,
              "velocity": 60,
              "position": 4,
              "duration": 0.5729166666666666
            },
            {
              "pitch": 36,
              "velocity": 60,
              "position": 4.583333333333333,
              "duration": 0.40625
            },
            {
              "pitch": 45,
              "velocity": 60,
              "position": 5,
              "duration": 0.9895833333333334
            },
            {
              "pitch": 43,
              "velocity": 60,
              "position": 6,
              "duration": 0.9895833333333334
            },
            {
              "pitch": 40,
              "velocity": 60,
              "position": 7,
              "duration": 0.9895833333333334
            },
            {
              "pitch": 36,
              "velocity": 60,
              "position": 8,
              "duration": 0.9895833333333334
            },
            {
              "pitch": 40,
              "velocity": 60,
              "position": 9,
              "duration": 0.9895833333333334
            },
            {
              "pitch": 45,
              "velocity": 60,
              "position": 10,
              "duration": 0.9895833333333334
            },
            {
              "pitch": 43,
              "velocity": 60,
              "position": 11,
              "duration": 0.9895833333333334
            },
            {
              "pitch": 43,
              "velocity": 60,
              "position": 12,
              "duration": 0.9895833333333334
            },
            {
              "pitch": 40,
              "velocity": 60,
              "position": 13,
              "duration": 0.9895833333333334
            },
            {
              "pitch": 45,
              "velocity": 60,
              "position": 14,
              "duration": 0.9895833333333334
            },
            {
              "pitch": 50,
              "velocity": 60,
              "position": 15,
              "duration": 0.9895833333333334
            },
            {
              "pitch": 48,
              "velocity": 60,
              "position": 16,
              "duration": 0.9895833333333334
            },
            {
              "pitch": 48,
              "velocity": 60,
              "position": 32,
              "duration": 0.9895833333333334
            },
            {
              "pitch": 40,
              "velocity": 60,
              "position": 33,
              "duration": 0.9895833333333334
            },
            {
              "pitch": 45,
              "velocity": 60,
              "position": 34,
              "duration": 0.9895833333333334
            },
            {
              "pitch": 43,
              "velocity": 60,
              "position": 35,
              "duration": 0.9895833333333334
            },
            {
              "pitch": 43,
              "velocity": 60,
              "position": 36,
              "duration": 0.9895833333333334
            },
            {
              "pitch": 38,
              "velocity": 60,
              "position": 37,
              "duration": 0.9895833333333334
            },
            {
              "pitch": 40,
              "velocity": 60,
              "position": 38,
              "duration": 0.9895833333333334
            },
            {
              "pitch": 43,
              "velocity": 60,
              "position": 39,
              "duration": 0.9895833333333334
            },
            {
              "pitch": 36,
              "velocity": 60,
              "position": 40,
              "duration": 0.9895833333333334
            },
            {
              "pitch": 43,
              "velocity": 60,
              "position": 41,
              "duration": 0.5729166666666666
            },
            {
              "pitch": 36,
              "velocity": 40,
              "position": 41.583333333333336,
              "duration": 0.2916666666666667
            },
            {
              "pitch": 45,
              "velocity": 60,
              "position": 42,
              "duration": 0.9895833333333334
            },
            {
              "pitch": 43,
              "velocity": 60,
              "position": 43,
              "duration": 0.5729166666666666
            },
            {
              "pitch": 36,
              "velocity": 40,
              "position": 43.583333333333336,
              "duration": 0.2916666666666667
            },
            {
              "pitch": 45,
              "velocity": 60,
              "position": 44,
              "duration": 0.9895833333333334
            },
            {
              "pitch": 43,
              "velocity": 60,
              "position": 45,
              "duration": 0.9895833333333334
            },
            {
              "pitch": 40,
              "velocity": 60,
              "position": 46,
              "duration": 0.9895833333333334
            },
            {
              "pitch": 43,
              "velocity": 60,
              "position": 47,
              "duration": 0.9895833333333334
            },
            {
              "pitch": 36,
              "velocity": 60,
              "position": 48,
              "duration": 0.9895833333333334
            },
            {
              "pitch": 48,
              "velocity": 60,
              "position": 64,
              "duration": 0.9895833333333334
            },
            {
              "pitch": 50,
              "velocity": 60,
              "position": 65,
              "duration": 0.9895833333333334
            },
            {
              "pitch": 52,
              "velocity": 60,
              "position": 66,
              "duration": 0.9895833333333334
            },
            {
              "pitch": 55,
              "velocity": 60,
              "position": 67,
              "duration": 0.9895833333333334
            },
            {
              "pitch": 48,
              "velocity": 60,
              "position": 68,
              "duration": 0.9895833333333334
            },
            {
              "pitch": 47,
              "velocity": 60,
              "position": 69,
              "duration": 0.9895833333333334
            },
            {
              "pitch": 50,
              "velocity": 60,
              "position": 70,
              "duration": 0.9895833333333334
            },
            {
              "pitch": 45,
              "velocity": 60,
              "position": 71,
              "duration": 0.9895833333333334
            },
            {
              "pitch": 48,
              "velocity": 60,
              "position": 72,
              "duration": 0.9895833333333334
            },
            {
              "pitch": 43,
              "velocity": 60,
              "position": 73,
              "duration": 0.9895833333333334
            },
            {
              "pitch": 47,
              "velocity": 60,
              "position": 74,
              "duration": 0.9895833333333334
            },
            {
              "pitch": 40,
              "velocity": 60,
              "position": 75,
              "duration": 0.9895833333333334
            },
            {
              "pitch": 45,
              "velocity": 60,
              "position": 76,
              "duration": 0.9895833333333334
            },
            {
              "pitch": 38,
              "velocity": 60,
              "position": 77,
              "duration": 0.9895833333333334
            },
            {
              "pitch": 43,
              "velocity": 60,
              "position": 78,
              "duration": 0.9895833333333334
            },
            {
              "pitch": 40,
              "velocity": 60,
              "position": 79,
              "duration": 0.9895833333333334
            },
            {
              "pitch": 36,
              "velocity": 60,
              "position": 80,
              "duration": 0.9895833333333334
            },
            {
              "pitch": 36,
              "velocity": 60,
              "position": 96,
              "duration": 0.5729166666666666
            },
            {
              "pitch": 31,
              "velocity": 40,
              "position": 96.58333333333333,
              "duration": 0.2916666666666667
            },
            {
              "pitch": 40,
              "velocity": 60,
              "position": 97,
              "duration": 0.9895833333333334
            },
            {
              "pitch": 43,
              "velocity": 60,
              "position": 98,
              "duration": 0.9895833333333334
            },
            {
              "pitch": 43,
              "velocity": 60,
              "position": 99,
              "duration": 0.5729166666666666
            },
            {
              "pitch": 32,
              "velocity": 40,
              "position": 99.58333333333333,
              "duration": 0.2916666666666667
            },
            {
              "pitch": 43,
              "velocity": 60,
              "position": 100,
              "duration": 0.9895833333333334
            },
            {
              "pitch": 36,
              "velocity": 60,
              "position": 101,
              "duration": 0.9895833333333334
            },
            {
              "pitch": 36,
              "velocity": 60,
              "position": 102,
              "duration": 0.9895833333333334
            },
            {
              "pitch": 40,
              "velocity": 60,
              "position": 103,
              "duration": 0.9895833333333334
            },
            {
              "pitch": 48,
              "velocity": 60,
              "position": 104,
              "duration": 0.9895833333333334
            },
            {
              "pitch": 48,
              "velocity": 60,
              "position": 105,
              "duration": 0.5729166666666666
            },
            {
              "pitch": 43,
              "velocity": 40,
              "position": 105.58333333333333,
              "duration": 0.2916666666666667
            },
            {
              "pitch": 48,
              "velocity": 60,
              "position": 106,
              "duration": 0.5729166666666666
            },
            {
              "pitch": 43,
              "velocity": 40,
              "position": 106.58333333333333,
              "duration": 0.2916666666666667
            },
            {
              "pitch": 48,
              "velocity": 60,
              "position": 107,
              "duration": 0.9895833333333334
            },
            {
              "pitch": 48,
              "velocity": 60,
              "position": 108,
              "duration": 0.9895833333333334
            },
            {
              "pitch": 47,
              "velocity": 60,
              "position": 109,
              "duration": 0.9895833333333334
            },
            {
              "pitch": 48,
              "velocity": 60,
              "position": 110,
              "duration": 0.9895833333333334
            },
            {
              "pitch": 50,
              "velocity": 60,
              "position": 111,
              "duration": 0.9895833333333334
            },
            {
              "pitch": 36,
              "velocity": 60,
              "position": 112,
              "duration": 15.989583333333334
            }
          ]
        },
        "2": {
          "ctab": {
            "srcChannel": 2,
            "name": "Bass 7",
            "accType": "BASS",
            "editable": false,
            "mutedNotes": [],
            "mutedChords": [
              "1+2+5",
              "sus4",
              "1+5",
              "1+8",
              "Maj7aug",
              "7sus4",
              "dim",
              "minMaj7(9)",
              "minMaj7",
              "min6",
              "min",
              "aug",
              "Maj6(9)",
              "Maj7(9)",
              "Maj(9)",
              "Maj7#11",
              "Maj7",
              "Maj6",
              "Maj"
            ],
            "autoStart": false,
            "sourceChordNote": 0,
            "sourceChordType": "Maj7",
            "ctb2Low": null,
            "ctb2Main": {
              "ntr": "ROOT_TRANSPOSITION",
              "ntt": "DORIAN_5",
              "bassOn": true,
              "chordRootUpperLimit": 4,
              "noteLowLimit": 28,
              "noteHighLimit": 127,
              "rtr": "PITCH_SHIFT_TO_ROOT"
            },
            "ctb2High": null
          },
          "notes": [
            {
              "pitch": 48,
              "velocity": 60,
              "position": 0,
              "duration": 0.9895833333333334
            },
            {
              "pitch": 40,
              "velocity": 60,
              "position": 1,
              "duration": 0.9895833333333334
            },
            {
              "pitch": 45,
              "velocity": 60,
              "position": 2,
              "duration": 0.9895833333333334
            },
            {
              "pitch": 50,
              "velocity": 60,
              "position": 3,
              "duration": 0.9895833333333334
            },
            {
              "pitch": 48,
              "velocity": 60,
              "position": 4,
              "duration": 0.5729166666666666
            },
            {
              "pitch": 36,
              "velocity": 60,
              "position": 4.583333333333333,
              "duration": 0.40625
            },
            {
              "pitch": 45,
              "velocity": 60,
              "position": 5,
              "duration": 0.9895833333333334
            },
            {
              "pitch": 43,
              "velocity": 60,
              "position": 6,
              "duration": 0.9895833333333334
            },
            {
              "pitch": 40,
              "velocity": 60,
              "position": 7,
              "duration": 0.9895833333333334
            },
            {
              "pitch": 36,
              "velocity": 60,
              "position": 8,
              "duration": 0.9895833333333334
            },
            {
              "pitch": 40,
              "velocity": 60,
              "position": 9,
              "duration": 0.9895833333333334
            },
            {
              "pitch": 45,
              "velocity": 60,
              "position": 10,
              "duration": 0.9895833333333334
            },
            {
              "pitch": 43,
              "velocity": 60,
              "position": 11,
              "duration": 0.9895833333333334
            },
            {
              "pitch": 43,
              "velocity": 60,
              "position": 12,
              "duration": 0.9895833333333334
            },
            {
              "pitch": 40,
              "velocity": 60,
              "position": 13,
              "duration": 0.9895833333333334
            },
            {
              "pitch": 45,
              "velocity": 60,
              "position": 14,
              "duration": 0.9895833333333334
            },
            {
              "pitch": 50,
              "velocity": 60,
              "position": 15,
              "duration": 0.9895833333333334
            },
            {
              "pitch": 48,
              "velocity": 60,
              "position": 16,
              "duration": 0.9895833333333334
            },
            {
              "pitch": 48,
              "velocity": 60,
              "position": 32,
              "duration": 0.9895833333333334
            },
            {
              "pitch": 40,
              "velocity": 60,
              "position": 33,
              "duration": 0.9895833333333334
            },
            {
              "pitch": 45,
              "velocity": 60,
              "position": 34,
              "duration": 0.9895833333333334
            },
            {
              "pitch": 43,
              "velocity": 60,
              "position": 35,
              "duration": 0.9895833333333334
            },
            {
              "pitch": 43,
              "velocity": 60,
              "position": 36,
              "duration": 0.9895833333333334
            },
            {
              "pitch": 38,
              "velocity": 60,
              "position": 37,
              "duration": 0.9895833333333334
            },
            {
              "pitch": 40,
              "velocity": 60,
              "position": 38,
              "duration": 0.9895833333333334
            },
            {
              "pitch": 43,
              "velocity": 60,
              "position": 39,
              "duration": 0.9895833333333334
            },
            {
              "pitch": 36,
              "velocity": 60,
              "position": 40,
              "duration": 0.9895833333333334
            },
            {
              "pitch": 43,
              "velocity": 60,
              "position": 41,
              "duration": 0.5729166666666666
            },
            {
              "pitch": 36,
              "velocity": 40,
              "position": 41.583333333333336,
              "duration": 0.2916666666666667
            },
            {
              "pitch": 45,
              "velocity": 60,
              "position": 42,
              "duration": 0.9895833333333334
            },
            {
              "pitch": 43,
              "velocity": 60,
              "position": 43,
              "duration": 0.5729166666666666
            },
            {
              "pitch": 36,
              "velocity": 40,
              "position": 43.583333333333336,
              "duration": 0.2916666666666667
            },
            {
              "pitch": 45,
              "velocity": 60,
              "position": 44,
              "duration": 0.9895833333333334
            },
            {
              "pitch": 43,
              "velocity": 60,
              "position": 45,
              "duration": 0.9895833333333334
            },
            {
              "pitch": 40,
              "velocity": 60,
              "position": 46,
              "duration": 0.9895833333333334
            },
            {
              "pitch": 43,
              "velocity": 60,
              "position": 47,
              "duration": 0.9895833333333334
            },
            {
              "pitch": 36,
              "velocity": 60,
              "position": 48,
              "duration": 0.9895833333333334
            },
            {
              "pitch": 48,
              "velocity": 60,
              "position": 64,
              "duration": 0.9895833333333334
            },
            {
              "pitch": 50,
              "velocity": 60,
              "position": 65,
              "duration": 0.9895833333333334
            },
            {
              "pitch": 52,
              "velocity": 60,
              "position": 66,
              "duration": 0.9895833333333334
            },
            {
              "pitch": 55,
              "velocity": 60,
              "position": 67,
              "duration": 0.9895833333333334
            },
            {
              "pitch": 48,
              "velocity": 60,
              "position": 68,
              "duration": 0.9895833333333334
            },
            {
              "pitch": 46,
              "velocity": 60,
              "position": 69,
              "duration": 0.9895833333333334
            },
            {
              "pitch": 50,
              "velocity": 60,
              "position": 70,
              "duration": 0.9895833333333334
            },
            {
              "pitch": 45,
              "velocity": 60,
              "position": 71,
              "duration": 0.9895833333333334
            },
            {
              "pitch": 48,
              "velocity": 60,
              "position": 72,
              "duration": 0.9895833333333334
            },
            {
              "pitch": 43,
              "velocity": 60,
              "position": 73,
              "duration": 0.9895833333333334
            },
            {
              "pitch": 46,
              "velocity": 60,
              "position": 74,
              "duration": 0.9895833333333334
            },
            {
              "pitch": 40,
              "velocity": 60,
              "position": 75,
              "duration": 0.9895833333333334
            },
            {
              "pitch": 45,
              "velocity": 60,
              "position": 76,
              "duration": 0.9895833333333334
            },
            {
              "pitch": 38,
              "velocity": 60,
              "position": 77,
              "duration": 0.9895833333333334
            },
            {
              "pitch": 43,
              "velocity": 60,
              "position": 78,
              "duration": 0.9895833333333334
            },
            {
              "pitch": 40,
              "velocity": 60,
              "position": 79,
              "duration": 0.9895833333333334
            },
            {
              "pitch": 36,
              "velocity": 60,
              "position": 80,
              "duration": 0.9895833333333334
            },
            {
              "pitch": 36,
              "velocity": 60,
              "position": 96,
              "duration": 0.5729166666666666
            },
            {
              "pitch": 31,
              "velocity": 40,
              "position": 96.58333333333333,
              "duration": 0.2916666666666667
            },
            {
              "pitch": 40,
              "velocity": 60,
              "position": 97,
              "duration": 0.9895833333333334
            },
            {
              "pitch": 43,
              "velocity": 60,
              "position": 98,
              "duration": 0.9895833333333334
            },
            {
              "pitch": 43,
              "velocity": 60,
              "position": 99,
              "duration": 0.5729166666666666
            },
            {
              "pitch": 32,
              "velocity": 40,
              "position": 99.58333333333333,
              "duration": 0.2916666666666667
            },
            {
              "pitch": 43,
              "velocity": 60,
              "position": 100,
              "duration": 0.9895833333333334
            },
            {
              "pitch": 36,
              "velocity": 60,
              "position": 101,
              "duration": 0.9895833333333334
            },
            {
              "pitch": 36,
              "velocity": 60,
              "position": 102,
              "duration": 0.9895833333333334
            },
            {
              "pitch": 40,
              "velocity": 60,
              "position": 103,
              "duration": 0.9895833333333334
            },
            {
              "pitch": 48,
              "velocity": 60,
              "position": 104,
              "duration": 0.9895833333333334
            },
            {
              "pitch": 48,
              "velocity": 60,
              "position": 105,
              "duration": 0.5729166666666666
            },
            {
              "pitch": 43,
              "velocity": 40,
              "position": 105.58333333333333,
              "duration": 0.2916666666666667
            },
            {
              "pitch": 48,
              "velocity": 60,
              "position": 106,
              "duration": 0.5729166666666666
            },
            {
              "pitch": 43,
              "velocity": 40,
              "position": 106.58333333333333,
              "duration": 0.2916666666666667
            },
            {
              "pitch": 48,
              "velocity": 60,
              "position": 107,
              "duration": 0.9895833333333334
            },
            {
              "pitch": 48,
              "velocity": 60,
              "position": 108,
              "duration": 0.9895833333333334
            },
            {
              "pitch": 46,
              "velocity": 60,
              "position": 109,
              "duration": 0.9895833333333334
            },
            {
              "pitch": 48,
              "velocity": 60,
              "position": 110,
              "duration": 0.9895833333333334
            },
            {
              "pitch": 50,
              "velocity": 60,
              "position": 111,
              "duration": 0.9895833333333334
            },
            {
              "pitch": 36,
              "velocity": 60,
              "position": 112,
              "duration": 15.989583333333334
            }
          ]
        },
        "3": {
          "ctab": {
            "srcChannel": 3,
            "name": "PfLH",
            "accType": "CHORD1",
            "editable": false,
            "mutedNotes": [],
            "mutedChords": [],
            "autoStart": false,
            "sourceChordNote": 0,
            "sourceChordType": "Maj7",
            "ctb2Low": null,
            "ctb2Main": {
              "ntr": "ROOT_TRANSPOSITION",
              "ntt": "CHORD",
              "bassOn": false,
              "chordRootUpperLimit": 8,
              "noteLowLimit": 54,
              "noteHighLimit": 65,
              "rtr": "PITCH_SHIFT"
            },
            "ctb2High": null
          },
          "notes": [
            {
              "pitch": 55,
              "velocity": 68,
              "position": 0,
              "duration": 0.3125
            },
            {
              "pitch": 59,
              "velocity": 68,
              "position": 0,
              "duration": 0.3125
            },
            {
              "pitch": 64,
              "velocity": 61,
              "position": 0,
              "duration": 0.3229166666666667
            },
            {
              "pitch": 64,
              "velocity": 57,
              "position": 4,
              "duration": 0.3229166666666667
            },
            {
              "pitch": 55,
              "velocity": 56,
              "position": 4,
              "duration": 0.3333333333333333
            },
            {
              "pitch": 59,
              "velocity": 56,
              "position": 4,
              "duration": 0.3333333333333333
            },
            {
              "pitch": 55,
              "velocity": 49,
              "position": 6,
              "duration": 0.96875
            },
            {
              "pitch": 59,
              "velocity": 49,
              "position": 6,
              "duration": 0.96875
            },
            {
              "pitch": 64,
              "velocity": 42,
              "position": 6,
              "duration": 0.9791666666666666
            },
            {
              "pitch": 64,
              "velocity": 62,
              "position": 7.666666666666667,
              "duration": 3.9895833333333335
            },
            {
              "pitch": 55,
              "velocity": 59,
              "position": 7.666666666666667,
              "duration": 4
            },
            {
              "pitch": 59,
              "velocity": 59,
              "position": 7.666666666666667,
              "duration": 4
            },
            {
              "pitch": 64,
              "velocity": 60,
              "position": 13,
              "duration": 2.65625
            },
            {
              "pitch": 55,
              "velocity": 71,
              "position": 13,
              "duration": 2.6666666666666665
            },
            {
              "pitch": 59,
              "velocity": 71,
              "position": 13,
              "duration": 2.6666666666666665
            },
            {
              "pitch": 55,
              "velocity": 64,
              "position": 16,
              "duration": 0.96875
            },
            {
              "pitch": 59,
              "velocity": 64,
              "position": 16,
              "duration": 0.96875
            },
            {
              "pitch": 64,
              "velocity": 57,
              "position": 16,
              "duration": 0.9791666666666666
            },
            {
              "pitch": 55,
              "velocity": 51,
              "position": 32,
              "duration": 0.3020833333333333
            },
            {
              "pitch": 59,
              "velocity": 51,
              "position": 32,
              "duration": 0.3020833333333333
            },
            {
              "pitch": 64,
              "velocity": 41,
              "position": 32,
              "duration": 0.3333333333333333
            },
            {
              "pitch": 55,
              "velocity": 62,
              "position": 33,
              "duration": 0.65625
            },
            {
              "pitch": 59,
              "velocity": 62,
              "position": 33,
              "duration": 0.65625
            },
            {
              "pitch": 64,
              "velocity": 61,
              "position": 33,
              "duration": 0.65625
            },
            {
              "pitch": 55,
              "velocity": 60,
              "position": 36,
              "duration": 0.65625
            },
            {
              "pitch": 59,
              "velocity": 60,
              "position": 36,
              "duration": 0.65625
            },
            {
              "pitch": 64,
              "velocity": 62,
              "position": 36,
              "duration": 0.6666666666666666
            },
            {
              "pitch": 64,
              "velocity": 47,
              "position": 38,
              "duration": 0.6458333333333334
            },
            {
              "pitch": 55,
              "velocity": 42,
              "position": 38,
              "duration": 0.6666666666666666
            },
            {
              "pitch": 59,
              "velocity": 42,
              "position": 38,
              "duration": 0.6666666666666666
            },
            {
              "pitch": 55,
              "velocity": 48,
              "position": 39.666666666666664,
              "duration": 0.3125
            },
            {
              "pitch": 59,
              "velocity": 48,
              "position": 39.666666666666664,
              "duration": 0.3125
            },
            {
              "pitch": 64,
              "velocity": 44,
              "position": 39.666666666666664,
              "duration": 0.3125
            },
            {
              "pitch": 55,
              "velocity": 67,
              "position": 40.666666666666664,
              "duration": 0.9791666666666666
            },
            {
              "pitch": 59,
              "velocity": 67,
              "position": 40.666666666666664,
              "duration": 0.9791666666666666
            },
            {
              "pitch": 64,
              "velocity": 60,
              "position": 40.666666666666664,
              "duration": 1
            },
            {
              "pitch": 64,
              "velocity": 69,
              "position": 42,
              "duration": 0.3020833333333333
            },
            {
              "pitch": 55,
              "velocity": 61,
              "position": 42,
              "duration": 0.3333333333333333
            },
            {
              "pitch": 59,
              "velocity": 61,
              "position": 42,
              "duration": 0.3333333333333333
            },
            {
              "pitch": 64,
              "velocity": 48,
              "position": 43,
              "duration": 0.3020833333333333
            },
            {
              "pitch": 55,
              "velocity": 50,
              "position": 43,
              "duration": 0.3229166666666667
            },
            {
              "pitch": 59,
              "velocity": 50,
              "position": 43,
              "duration": 0.3229166666666667
            },
            {
              "pitch": 55,
              "velocity": 60,
              "position": 44,
              "duration": 0.3020833333333333
            },
            {
              "pitch": 59,
              "velocity": 60,
              "position": 44,
              "duration": 0.3020833333333333
            },
            {
              "pitch": 64,
              "velocity": 68,
              "position": 44,
              "duration": 0.3229166666666667
            },
            {
              "pitch": 55,
              "velocity": 60,
              "position": 45.666666666666664,
              "duration": 1.6458333333333333
            },
            {
              "pitch": 59,
              "velocity": 60,
              "position": 45.666666666666664,
              "duration": 1.6458333333333333
            },
            {
              "pitch": 64,
              "velocity": 56,
              "position": 45.666666666666664,
              "duration": 1.65625
            },
            {
              "pitch": 55,
              "velocity": 65,
              "position": 48,
              "duration": 1
            },
            {
              "pitch": 59,
              "velocity": 65,
              "position": 48,
              "duration": 1
            },
            {
              "pitch": 64,
              "velocity": 64,
              "position": 48,
              "duration": 1
            },
            {
              "pitch": 64,
              "velocity": 52,
              "position": 64,
              "duration": 0.3125
            },
            {
              "pitch": 55,
              "velocity": 57,
              "position": 64,
              "duration": 0.3229166666666667
            },
            {
              "pitch": 59,
              "velocity": 57,
              "position": 64,
              "duration": 0.3229166666666667
            },
            {
              "pitch": 55,
              "velocity": 64,
              "position": 65.66666666666667,
              "duration": 0.3020833333333333
            },
            {
              "pitch": 59,
              "velocity": 64,
              "position": 65.66666666666667,
              "duration": 0.3020833333333333
            },
            {
              "pitch": 64,
              "velocity": 63,
              "position": 65.66666666666667,
              "duration": 0.3333333333333333
            },
            {
              "pitch": 64,
              "velocity": 62,
              "position": 68,
              "duration": 0.3125
            },
            {
              "pitch": 55,
              "velocity": 56,
              "position": 68,
              "duration": 0.3333333333333333
            },
            {
              "pitch": 59,
              "velocity": 56,
              "position": 68,
              "duration": 0.3333333333333333
            },
            {
              "pitch": 55,
              "velocity": 57,
              "position": 69.66666666666667,
              "duration": 0.3333333333333333
            },
            {
              "pitch": 59,
              "velocity": 57,
              "position": 69.66666666666667,
              "duration": 0.3333333333333333
            },
            {
              "pitch": 64,
              "velocity": 60,
              "position": 69.66666666666667,
              "duration": 0.3333333333333333
            },
            {
              "pitch": 55,
              "velocity": 58,
              "position": 72,
              "duration": 0.3020833333333333
            },
            {
              "pitch": 59,
              "velocity": 58,
              "position": 72,
              "duration": 0.3020833333333333
            },
            {
              "pitch": 64,
              "velocity": 61,
              "position": 72,
              "duration": 0.3125
            },
            {
              "pitch": 55,
              "velocity": 62,
              "position": 73.66666666666667,
              "duration": 0.3125
            },
            {
              "pitch": 59,
              "velocity": 62,
              "position": 73.66666666666667,
              "duration": 0.3125
            },
            {
              "pitch": 64,
              "velocity": 67,
              "position": 73.66666666666667,
              "duration": 0.3125
            },
            {
              "pitch": 55,
              "velocity": 58,
              "position": 76,
              "duration": 0.3020833333333333
            },
            {
              "pitch": 59,
              "velocity": 58,
              "position": 76,
              "duration": 0.3020833333333333
            },
            {
              "pitch": 64,
              "velocity": 61,
              "position": 76,
              "duration": 0.3125
            },
            {
              "pitch": 55,
              "velocity": 62,
              "position": 77.66666666666667,
              "duration": 0.3125
            },
            {
              "pitch": 59,
              "velocity": 62,
              "position": 77.66666666666667,
              "duration": 0.3125
            },
            {
              "pitch": 64,
              "velocity": 67,
              "position": 77.66666666666667,
              "duration": 0.3125
            },
            {
              "pitch": 55,
              "velocity": 58,
              "position": 80,
              "duration": 0.96875
            },
            {
              "pitch": 59,
              "velocity": 58,
              "position": 80,
              "duration": 0.96875
            },
            {
              "pitch": 64,
              "velocity": 61,
              "position": 80,
              "duration": 0.9791666666666666
            },
            {
              "pitch": 55,
              "velocity": 69,
              "position": 96,
              "duration": 2.65625
            },
            {
              "pitch": 59,
              "velocity": 69,
              "position": 96,
              "duration": 2.65625
            },
            {
              "pitch": 55,
              "velocity": 65,
              "position": 99,
              "duration": 0.3125
            },
            {
              "pitch": 59,
              "velocity": 65,
              "position": 99,
              "duration": 0.3125
            },
            {
              "pitch": 64,
              "velocity": 57,
              "position": 99,
              "duration": 0.3125
            },
            {
              "pitch": 64,
              "velocity": 55,
              "position": 101.66666666666667,
              "duration": 0.96875
            },
            {
              "pitch": 55,
              "velocity": 52,
              "position": 101.66666666666667,
              "duration": 0.9791666666666666
            },
            {
              "pitch": 59,
              "velocity": 52,
              "position": 101.66666666666667,
              "duration": 0.9791666666666666
            },
            {
              "pitch": 55,
              "velocity": 68,
              "position": 103,
              "duration": 0.6458333333333334
            },
            {
              "pitch": 59,
              "velocity": 68,
              "position": 103,
              "duration": 0.6458333333333334
            },
            {
              "pitch": 64,
              "velocity": 59,
              "position": 103,
              "duration": 0.6458333333333334
            },
            {
              "pitch": 64,
              "velocity": 65,
              "position": 109,
              "duration": 2.6354166666666665
            },
            {
              "pitch": 55,
              "velocity": 69,
              "position": 109,
              "duration": 2.65625
            },
            {
              "pitch": 59,
              "velocity": 69,
              "position": 109,
              "duration": 2.65625
            },
            {
              "pitch": 64,
              "velocity": 65,
              "position": 112,
              "duration": 0.96875
            },
            {
              "pitch": 55,
              "velocity": 69,
              "position": 112,
              "duration": 0.9895833333333334
            },
            {
              "pitch": 59,
              "velocity": 69,
              "position": 112,
              "duration": 0.9895833333333334
            }
          ]
        },
        "4": {
          "ctab": {
            "srcChannel": 4,
            "name": "PfRH",
            "accType": "CHORD2",
            "editable": false,
            "mutedNotes": [],
            "mutedChords": [
              "7(13)",
              "7(9)",
              "7b5",
              "7th",
              "min7(9)",
              "min(9)",
              "min6",
              "min",
              "Maj6(9)",
              "Maj7(9)",
              "Maj(9)",
              "Maj7",
              "Maj6",
              "Maj"
            ],
            "autoStart": false,
            "sourceChordNote": 0,
            "sourceChordType": "Maj7",
            "ctb2Low": null,
            "ctb2Main": {
              "ntr": "ROOT_TRANSPOSITION",
              "ntt": "CHORD",
              "bassOn": false,
              "chordRootUpperLimit": 6,
              "noteLowLimit": 67,
              "noteHighLimit": 84,
              "rtr": "PITCH_SHIFT"
            },
            "ctb2High": null
          },
          "notes": [
            {
              "pitch": 76,
              "velocity": 82,
              "position": 0,
              "duration": 0.3020833333333333
            },
            {
              "pitch": 79,
              "velocity": 83,
              "position": 0,
              "duration": 0.3229166666666667
            },
            {
              "pitch": 71,
              "velocity": 85,
              "position": 0,
              "duration": 0.3333333333333333
            },
            {
              "pitch": 71,
              "velocity": 72,
              "position": 4,
              "duration": 0.3020833333333333
            },
            {
              "pitch": 67,
              "velocity": 78,
              "position": 4,
              "duration": 0.3125
            },
            {
              "pitch": 67,
              "velocity": 68,
              "position": 6,
              "duration": 0.9791666666666666
            },
            {
              "pitch": 67,
              "velocity": 84,
              "position": 7.666666666666667,
              "duration": 3.9895833333333335
            },
            {
              "pitch": 71,
              "velocity": 88,
              "position": 7.666666666666667,
              "duration": 4
            },
            {
              "pitch": 71,
              "velocity": 75,
              "position": 13,
              "duration": 2.6354166666666665
            },
            {
              "pitch": 67,
              "velocity": 76,
              "position": 13,
              "duration": 2.6666666666666665
            },
            {
              "pitch": 71,
              "velocity": 75,
              "position": 16,
              "duration": 0.96875
            },
            {
              "pitch": 67,
              "velocity": 76,
              "position": 16,
              "duration": 1
            },
            {
              "pitch": 67,
              "velocity": 63,
              "position": 32,
              "duration": 0.3333333333333333
            },
            {
              "pitch": 67,
              "velocity": 74,
              "position": 33,
              "duration": 0.6666666666666666
            },
            {
              "pitch": 71,
              "velocity": 75,
              "position": 36,
              "duration": 0.6354166666666666
            },
            {
              "pitch": 67,
              "velocity": 80,
              "position": 36,
              "duration": 0.6458333333333334
            },
            {
              "pitch": 67,
              "velocity": 68,
              "position": 38,
              "duration": 0.6666666666666666
            },
            {
              "pitch": 67,
              "velocity": 55,
              "position": 39.666666666666664,
              "duration": 0.3125
            },
            {
              "pitch": 71,
              "velocity": 53,
              "position": 39.666666666666664,
              "duration": 0.3229166666666667
            },
            {
              "pitch": 71,
              "velocity": 84,
              "position": 40.666666666666664,
              "duration": 0.9791666666666666
            },
            {
              "pitch": 67,
              "velocity": 86,
              "position": 40.666666666666664,
              "duration": 0.9895833333333334
            },
            {
              "pitch": 67,
              "velocity": 73,
              "position": 42,
              "duration": 0.3020833333333333
            },
            {
              "pitch": 71,
              "velocity": 85,
              "position": 42,
              "duration": 0.3229166666666667
            },
            {
              "pitch": 67,
              "velocity": 60,
              "position": 43,
              "duration": 0.3333333333333333
            },
            {
              "pitch": 67,
              "velocity": 70,
              "position": 45.666666666666664,
              "duration": 1.9791666666666667
            },
            {
              "pitch": 67,
              "velocity": 85,
              "position": 48,
              "duration": 0.96875
            },
            {
              "pitch": 71,
              "velocity": 74,
              "position": 48,
              "duration": 1
            },
            {
              "pitch": 71,
              "velocity": 79,
              "position": 64,
              "duration": 0.3125
            },
            {
              "pitch": 76,
              "velocity": 67,
              "position": 64,
              "duration": 0.3125
            },
            {
              "pitch": 67,
              "velocity": 69,
              "position": 64,
              "duration": 0.3229166666666667
            },
            {
              "pitch": 71,
              "velocity": 84,
              "position": 65.66666666666667,
              "duration": 0.3125
            },
            {
              "pitch": 67,
              "velocity": 75,
              "position": 65.66666666666667,
              "duration": 0.3333333333333333
            },
            {
              "pitch": 76,
              "velocity": 75,
              "position": 65.66666666666667,
              "duration": 0.3333333333333333
            },
            {
              "pitch": 76,
              "velocity": 69,
              "position": 68,
              "duration": 0.3125
            },
            {
              "pitch": 79,
              "velocity": 75,
              "position": 68,
              "duration": 0.3229166666666667
            },
            {
              "pitch": 71,
              "velocity": 62,
              "position": 68,
              "duration": 0.3333333333333333
            },
            {
              "pitch": 76,
              "velocity": 80,
              "position": 69.66666666666667,
              "duration": 0.3020833333333333
            },
            {
              "pitch": 71,
              "velocity": 80,
              "position": 69.66666666666667,
              "duration": 0.3229166666666667
            },
            {
              "pitch": 79,
              "velocity": 87,
              "position": 69.66666666666667,
              "duration": 0.3229166666666667
            },
            {
              "pitch": 71,
              "velocity": 76,
              "position": 72,
              "duration": 0.3229166666666667
            },
            {
              "pitch": 67,
              "velocity": 70,
              "position": 72,
              "duration": 0.3333333333333333
            },
            {
              "pitch": 76,
              "velocity": 70,
              "position": 72,
              "duration": 0.3333333333333333
            },
            {
              "pitch": 71,
              "velocity": 81,
              "position": 73.66666666666667,
              "duration": 0.3020833333333333
            },
            {
              "pitch": 67,
              "velocity": 81,
              "position": 73.66666666666667,
              "duration": 0.3125
            },
            {
              "pitch": 76,
              "velocity": 81,
              "position": 73.66666666666667,
              "duration": 0.3125
            },
            {
              "pitch": 71,
              "velocity": 76,
              "position": 76,
              "duration": 0.3229166666666667
            },
            {
              "pitch": 67,
              "velocity": 70,
              "position": 76,
              "duration": 0.3333333333333333
            },
            {
              "pitch": 71,
              "velocity": 81,
              "position": 77.66666666666667,
              "duration": 0.3020833333333333
            },
            {
              "pitch": 67,
              "velocity": 81,
              "position": 77.66666666666667,
              "duration": 0.3125
            },
            {
              "pitch": 67,
              "velocity": 81,
              "position": 80,
              "duration": 0.9791666666666666
            },
            {
              "pitch": 67,
              "velocity": 80,
              "position": 96,
              "duration": 2.65625
            },
            {
              "pitch": 71,
              "velocity": 76,
              "position": 96,
              "duration": 2.65625
            },
            {
              "pitch": 71,
              "velocity": 76,
              "position": 99,
              "duration": 0.3125
            },
            {
              "pitch": 67,
              "velocity": 81,
              "position": 99,
              "duration": 0.3229166666666667
            },
            {
              "pitch": 67,
              "velocity": 67,
              "position": 101.66666666666667,
              "duration": 0.96875
            },
            {
              "pitch": 71,
              "velocity": 88,
              "position": 103,
              "duration": 0.6354166666666666
            },
            {
              "pitch": 67,
              "velocity": 80,
              "position": 103,
              "duration": 0.6458333333333334
            },
            {
              "pitch": 67,
              "velocity": 80,
              "position": 109,
              "duration": 2.65625
            },
            {
              "pitch": 71,
              "velocity": 76,
              "position": 109,
              "duration": 2.65625
            },
            {
              "pitch": 67,
              "velocity": 80,
              "position": 112,
              "duration": 0.9895833333333334
            },
            {
              "pitch": 71,
              "velocity": 76,
              "position": 112,
              "duration": 0.9895833333333334
            }
          ]
        },
        "5": {
          "ctab": {
            "srcChannel": 5,
            "name": "PfRH Maj",
            "accType": "CHORD2",
            "editable": false,
            "mutedNotes": [],
            "mutedChords": [
              "1+2+5",
              "sus4",
              "1+5",
              "1+8",
              "7aug",
              "Maj7aug",
              "7(#9)",
              "7(b13)",
              "7(b9)",
              "7(13)",
              "7#11",
              "7(9)",
              "7b5",
              "7sus4",
              "7th",
              "dim7",
              "dim",
              "minMaj7(9)",
              "minMaj7",
              "min7(11)",
              "min7(9)",
              "min(9)",
              "m7b5",
              "min7",
              "min6",
              "min",
              "aug",
              "Maj7#11"
            ],
            "autoStart": false,
            "sourceChordNote": 0,
            "sourceChordType": "Maj7",
            "ctb2Low": null,
            "ctb2Main": {
              "ntr": "ROOT_TRANSPOSITION",
              "ntt": "DORIAN_5",
              "bassOn": false,
              "chordRootUpperLimit": 6,
              "noteLowLimit": 67,
              "noteHighLimit": 79,
              "rtr": "PITCH_SHIFT"
            },
            "ctb2High": null
          },
          "notes": [
            {
              "pitch": 76,
              "velocity": 82,
              "position": 0,
              "duration": 0.3020833333333333
            },
            {
              "pitch": 81,
              "velocity": 83,
              "position": 0,
              "duration": 0.3229166666666667
            },
            {
              "pitch": 67,
              "velocity": 85,
              "position": 0,
              "duration": 0.3333333333333333
            },
            {
              "pitch": 71,
              "velocity": 85,
              "position": 0,
              "duration": 0.3333333333333333
            },
            {
              "pitch": 71,
              "velocity": 72,
              "position": 4,
              "duration": 0.3020833333333333
            },
            {
              "pitch": 67,
              "velocity": 78,
              "position": 4,
              "duration": 0.3125
            },
            {
              "pitch": 67,
              "velocity": 68,
              "position": 6,
              "duration": 0.9791666666666666
            },
            {
              "pitch": 71,
              "velocity": 51,
              "position": 6,
              "duration": 0.9895833333333334
            },
            {
              "pitch": 69,
              "velocity": 84,
              "position": 7.666666666666667,
              "duration": 3.9895833333333335
            },
            {
              "pitch": 74,
              "velocity": 88,
              "position": 7.666666666666667,
              "duration": 4
            },
            {
              "pitch": 79,
              "velocity": 88,
              "position": 7.666666666666667,
              "duration": 4
            },
            {
              "pitch": 83,
              "velocity": 88,
              "position": 7.666666666666667,
              "duration": 4
            },
            {
              "pitch": 71,
              "velocity": 75,
              "position": 13,
              "duration": 2.6354166666666665
            },
            {
              "pitch": 76,
              "velocity": 75,
              "position": 13,
              "duration": 2.6354166666666665
            },
            {
              "pitch": 67,
              "velocity": 76,
              "position": 13,
              "duration": 2.6666666666666665
            },
            {
              "pitch": 71,
              "velocity": 75,
              "position": 16,
              "duration": 0.96875
            },
            {
              "pitch": 76,
              "velocity": 75,
              "position": 16,
              "duration": 0.96875
            },
            {
              "pitch": 67,
              "velocity": 76,
              "position": 16,
              "duration": 1
            },
            {
              "pitch": 69,
              "velocity": 63,
              "position": 32,
              "duration": 0.3333333333333333
            },
            {
              "pitch": 74,
              "velocity": 63,
              "position": 32,
              "duration": 0.3333333333333333
            },
            {
              "pitch": 69,
              "velocity": 74,
              "position": 33,
              "duration": 0.6666666666666666
            },
            {
              "pitch": 74,
              "velocity": 74,
              "position": 33,
              "duration": 0.6666666666666666
            },
            {
              "pitch": 71,
              "velocity": 75,
              "position": 36,
              "duration": 0.6354166666666666
            },
            {
              "pitch": 67,
              "velocity": 80,
              "position": 36,
              "duration": 0.6458333333333334
            },
            {
              "pitch": 67,
              "velocity": 68,
              "position": 38,
              "duration": 0.6666666666666666
            },
            {
              "pitch": 71,
              "velocity": 59,
              "position": 38,
              "duration": 0.6666666666666666
            },
            {
              "pitch": 69,
              "velocity": 55,
              "position": 39.666666666666664,
              "duration": 0.3125
            },
            {
              "pitch": 74,
              "velocity": 53,
              "position": 39.666666666666664,
              "duration": 0.3229166666666667
            },
            {
              "pitch": 74,
              "velocity": 84,
              "position": 40.666666666666664,
              "duration": 0.9791666666666666
            },
            {
              "pitch": 69,
              "velocity": 86,
              "position": 40.666666666666664,
              "duration": 0.9895833333333334
            },
            {
              "pitch": 67,
              "velocity": 73,
              "position": 42,
              "duration": 0.3020833333333333
            },
            {
              "pitch": 71,
              "velocity": 85,
              "position": 42,
              "duration": 0.3229166666666667
            },
            {
              "pitch": 74,
              "velocity": 63,
              "position": 43,
              "duration": 0.3020833333333333
            },
            {
              "pitch": 69,
              "velocity": 60,
              "position": 43,
              "duration": 0.3333333333333333
            },
            {
              "pitch": 71,
              "velocity": 65,
              "position": 44,
              "duration": 0.6354166666666666
            },
            {
              "pitch": 67,
              "velocity": 70,
              "position": 44,
              "duration": 0.6458333333333334
            },
            {
              "pitch": 71,
              "velocity": 65,
              "position": 45.666666666666664,
              "duration": 1.96875
            },
            {
              "pitch": 67,
              "velocity": 70,
              "position": 45.666666666666664,
              "duration": 1.9791666666666667
            },
            {
              "pitch": 69,
              "velocity": 85,
              "position": 48,
              "duration": 0.96875
            },
            {
              "pitch": 74,
              "velocity": 74,
              "position": 48,
              "duration": 1
            },
            {
              "pitch": 69,
              "velocity": 79,
              "position": 64,
              "duration": 0.3125
            },
            {
              "pitch": 74,
              "velocity": 67,
              "position": 64,
              "duration": 0.3125
            },
            {
              "pitch": 79,
              "velocity": 75,
              "position": 64,
              "duration": 0.3229166666666667
            },
            {
              "pitch": 69,
              "velocity": 84,
              "position": 65.66666666666667,
              "duration": 0.3125
            },
            {
              "pitch": 79,
              "velocity": 87,
              "position": 65.66666666666667,
              "duration": 0.3229166666666667
            },
            {
              "pitch": 74,
              "velocity": 75,
              "position": 65.66666666666667,
              "duration": 0.3333333333333333
            },
            {
              "pitch": 76,
              "velocity": 69,
              "position": 68,
              "duration": 0.3125
            },
            {
              "pitch": 71,
              "velocity": 62,
              "position": 68,
              "duration": 0.3333333333333333
            },
            {
              "pitch": 81,
              "velocity": 62,
              "position": 68,
              "duration": 0.3333333333333333
            },
            {
              "pitch": 76,
              "velocity": 80,
              "position": 69.66666666666667,
              "duration": 0.3020833333333333
            },
            {
              "pitch": 71,
              "velocity": 80,
              "position": 69.66666666666667,
              "duration": 0.3229166666666667
            },
            {
              "pitch": 81,
              "velocity": 87,
              "position": 69.66666666666667,
              "duration": 0.3229166666666667
            },
            {
              "pitch": 74,
              "velocity": 76,
              "position": 72,
              "duration": 0.3229166666666667
            },
            {
              "pitch": 79,
              "velocity": 76,
              "position": 72,
              "duration": 0.3229166666666667
            },
            {
              "pitch": 69,
              "velocity": 70,
              "position": 72,
              "duration": 0.3333333333333333
            },
            {
              "pitch": 74,
              "velocity": 81,
              "position": 73.66666666666667,
              "duration": 0.3020833333333333
            },
            {
              "pitch": 79,
              "velocity": 81,
              "position": 73.66666666666667,
              "duration": 0.3020833333333333
            },
            {
              "pitch": 69,
              "velocity": 81,
              "position": 73.66666666666667,
              "duration": 0.3125
            },
            {
              "pitch": 71,
              "velocity": 76,
              "position": 76,
              "duration": 0.3229166666666667
            },
            {
              "pitch": 76,
              "velocity": 76,
              "position": 76,
              "duration": 0.3229166666666667
            },
            {
              "pitch": 67,
              "velocity": 70,
              "position": 76,
              "duration": 0.3333333333333333
            },
            {
              "pitch": 71,
              "velocity": 81,
              "position": 77.66666666666667,
              "duration": 0.3020833333333333
            },
            {
              "pitch": 76,
              "velocity": 81,
              "position": 77.66666666666667,
              "duration": 0.3020833333333333
            },
            {
              "pitch": 67,
              "velocity": 81,
              "position": 77.66666666666667,
              "duration": 0.3125
            },
            {
              "pitch": 69,
              "velocity": 81,
              "position": 80,
              "duration": 0.96875
            },
            {
              "pitch": 74,
              "velocity": 81,
              "position": 80,
              "duration": 0.96875
            },
            {
              "pitch": 67,
              "velocity": 80,
              "position": 96,
              "duration": 2.65625
            },
            {
              "pitch": 71,
              "velocity": 76,
              "position": 96,
              "duration": 2.65625
            },
            {
              "pitch": 71,
              "velocity": 76,
              "position": 99,
              "duration": 0.3125
            },
            {
              "pitch": 67,
              "velocity": 81,
              "position": 99,
              "duration": 0.3229166666666667
            },
            {
              "pitch": 67,
              "velocity": 67,
              "position": 101.66666666666667,
              "duration": 0.96875
            },
            {
              "pitch": 71,
              "velocity": 62,
              "position": 101.66666666666667,
              "duration": 0.9791666666666666
            },
            {
              "pitch": 74,
              "velocity": 88,
              "position": 103,
              "duration": 0.6354166666666666
            },
            {
              "pitch": 69,
              "velocity": 80,
              "position": 103,
              "duration": 0.6458333333333334
            },
            {
              "pitch": 67,
              "velocity": 80,
              "position": 109,
              "duration": 2.65625
            },
            {
              "pitch": 71,
              "velocity": 76,
              "position": 109,
              "duration": 2.65625
            },
            {
              "pitch": 69,
              "velocity": 76,
              "position": 112,
              "duration": 0.9895833333333334
            },
            {
              "pitch": 74,
              "velocity": 80,
              "position": 112,
              "duration": 0.9895833333333334
            }
          ]
        },
        "6": {
          "ctab": {
            "srcChannel": 6,
            "name": "PfRH min",
            "accType": "CHORD2",
            "editable": false,
            "mutedNotes": [],
            "mutedChords": [
              "1+2+5",
              "sus4",
              "1+5",
              "1+8",
              "7aug",
              "Maj7aug",
              "7(#9)",
              "7(b13)",
              "7(b9)",
              "7(13)",
              "7#11",
              "7(9)",
              "7b5",
              "7sus4",
              "7th",
              "dim7",
              "dim",
              "minMaj7(9)",
              "minMaj7",
              "min7(11)",
              "min7(9)",
              "min(9)",
              "m7b5",
              "min7",
              "aug",
              "Maj6(9)",
              "Maj7(9)",
              "Maj(9)",
              "Maj7#11",
              "Maj7",
              "Maj6",
              "Maj"
            ],
            "autoStart": false,
            "sourceChordNote": 0,
            "sourceChordType": "Maj7",
            "ctb2Low": null,
            "ctb2Main": {
              "ntr": "ROOT_TRANSPOSITION",
              "ntt": "DORIAN_5",
              "bassOn": false,
              "chordRootUpperLimit": 6,
              "noteLowLimit": 67,
              "noteHighLimit": 79,
              "rtr": "PITCH_SHIFT"
            },
            "ctb2High": null
          },
          "notes": [
            {
              "pitch": 79,
              "velocity": 82,
              "position": 0,
              "duration": 0.3020833333333333
            },
            {
              "pitch": 84,
              "velocity": 83,
              "position": 0,
              "duration": 0.3229166666666667
            },
            {
              "pitch": 69,
              "velocity": 85,
              "position": 0,
              "duration": 0.3333333333333333
            },
            {
              "pitch": 74,
              "velocity": 85,
              "position": 0,
              "duration": 0.3333333333333333
            },
            {
              "pitch": 81,
              "velocity": 72,
              "position": 4,
              "duration": 0.3020833333333333
            },
            {
              "pitch": 72,
              "velocity": 78,
              "position": 4,
              "duration": 0.3125
            },
            {
              "pitch": 76,
              "velocity": 78,
              "position": 4,
              "duration": 0.3125
            },
            {
              "pitch": 72,
              "velocity": 68,
              "position": 6,
              "duration": 0.9791666666666666
            },
            {
              "pitch": 76,
              "velocity": 68,
              "position": 6,
              "duration": 0.9791666666666666
            },
            {
              "pitch": 81,
              "velocity": 51,
              "position": 6,
              "duration": 0.9895833333333334
            },
            {
              "pitch": 69,
              "velocity": 84,
              "position": 7.666666666666667,
              "duration": 3.9895833333333335
            },
            {
              "pitch": 74,
              "velocity": 88,
              "position": 7.666666666666667,
              "duration": 4
            },
            {
              "pitch": 79,
              "velocity": 88,
              "position": 7.666666666666667,
              "duration": 4
            },
            {
              "pitch": 72,
              "velocity": 75,
              "position": 13,
              "duration": 2.6354166666666665
            },
            {
              "pitch": 76,
              "velocity": 75,
              "position": 13,
              "duration": 2.6354166666666665
            },
            {
              "pitch": 69,
              "velocity": 76,
              "position": 13,
              "duration": 2.6666666666666665
            },
            {
              "pitch": 72,
              "velocity": 75,
              "position": 16,
              "duration": 0.96875
            },
            {
              "pitch": 76,
              "velocity": 75,
              "position": 16,
              "duration": 0.96875
            },
            {
              "pitch": 69,
              "velocity": 76,
              "position": 16,
              "duration": 1
            },
            {
              "pitch": 69,
              "velocity": 63,
              "position": 32,
              "duration": 0.3333333333333333
            },
            {
              "pitch": 72,
              "velocity": 63,
              "position": 32,
              "duration": 0.3333333333333333
            },
            {
              "pitch": 76,
              "velocity": 63,
              "position": 32,
              "duration": 0.3333333333333333
            },
            {
              "pitch": 69,
              "velocity": 74,
              "position": 33,
              "duration": 0.6666666666666666
            },
            {
              "pitch": 72,
              "velocity": 74,
              "position": 33,
              "duration": 0.6666666666666666
            },
            {
              "pitch": 76,
              "velocity": 74,
              "position": 33,
              "duration": 0.6666666666666666
            },
            {
              "pitch": 74,
              "velocity": 75,
              "position": 36,
              "duration": 0.6354166666666666
            },
            {
              "pitch": 70,
              "velocity": 80,
              "position": 36,
              "duration": 0.6458333333333334
            },
            {
              "pitch": 70,
              "velocity": 68,
              "position": 38,
              "duration": 0.6666666666666666
            },
            {
              "pitch": 74,
              "velocity": 59,
              "position": 38,
              "duration": 0.6666666666666666
            },
            {
              "pitch": 69,
              "velocity": 55,
              "position": 39.666666666666664,
              "duration": 0.3125
            },
            {
              "pitch": 72,
              "velocity": 53,
              "position": 39.666666666666664,
              "duration": 0.3229166666666667
            },
            {
              "pitch": 74,
              "velocity": 84,
              "position": 40.666666666666664,
              "duration": 0.9791666666666666
            },
            {
              "pitch": 70,
              "velocity": 86,
              "position": 40.666666666666664,
              "duration": 0.9895833333333334
            },
            {
              "pitch": 69,
              "velocity": 73,
              "position": 42,
              "duration": 0.3020833333333333
            },
            {
              "pitch": 72,
              "velocity": 85,
              "position": 42,
              "duration": 0.3229166666666667
            },
            {
              "pitch": 76,
              "velocity": 85,
              "position": 42,
              "duration": 0.3229166666666667
            },
            {
              "pitch": 74,
              "velocity": 63,
              "position": 43,
              "duration": 0.3020833333333333
            },
            {
              "pitch": 70,
              "velocity": 60,
              "position": 43,
              "duration": 0.3333333333333333
            },
            {
              "pitch": 69,
              "velocity": 49,
              "position": 44,
              "duration": 0.3020833333333333
            },
            {
              "pitch": 72,
              "velocity": 49,
              "position": 44,
              "duration": 0.3020833333333333
            },
            {
              "pitch": 74,
              "velocity": 65,
              "position": 45.666666666666664,
              "duration": 1.96875
            },
            {
              "pitch": 70,
              "velocity": 70,
              "position": 45.666666666666664,
              "duration": 1.9791666666666667
            },
            {
              "pitch": 69,
              "velocity": 85,
              "position": 48,
              "duration": 0.96875
            },
            {
              "pitch": 72,
              "velocity": 74,
              "position": 48,
              "duration": 1
            },
            {
              "pitch": 76,
              "velocity": 74,
              "position": 48,
              "duration": 1
            },
            {
              "pitch": 70,
              "velocity": 79,
              "position": 64,
              "duration": 0.3125
            },
            {
              "pitch": 74,
              "velocity": 67,
              "position": 64,
              "duration": 0.3125
            },
            {
              "pitch": 79,
              "velocity": 75,
              "position": 64,
              "duration": 0.3229166666666667
            },
            {
              "pitch": 70,
              "velocity": 84,
              "position": 65.66666666666667,
              "duration": 0.3125
            },
            {
              "pitch": 79,
              "velocity": 87,
              "position": 65.66666666666667,
              "duration": 0.3229166666666667
            },
            {
              "pitch": 74,
              "velocity": 75,
              "position": 65.66666666666667,
              "duration": 0.3333333333333333
            },
            {
              "pitch": 76,
              "velocity": 69,
              "position": 68,
              "duration": 0.3125
            },
            {
              "pitch": 72,
              "velocity": 62,
              "position": 68,
              "duration": 0.3333333333333333
            },
            {
              "pitch": 81,
              "velocity": 62,
              "position": 68,
              "duration": 0.3333333333333333
            },
            {
              "pitch": 76,
              "velocity": 80,
              "position": 69.66666666666667,
              "duration": 0.3020833333333333
            },
            {
              "pitch": 72,
              "velocity": 80,
              "position": 69.66666666666667,
              "duration": 0.3229166666666667
            },
            {
              "pitch": 81,
              "velocity": 87,
              "position": 69.66666666666667,
              "duration": 0.3229166666666667
            },
            {
              "pitch": 70,
              "velocity": 79,
              "position": 72,
              "duration": 0.3125
            },
            {
              "pitch": 74,
              "velocity": 67,
              "position": 72,
              "duration": 0.3125
            },
            {
              "pitch": 79,
              "velocity": 75,
              "position": 72,
              "duration": 0.3229166666666667
            },
            {
              "pitch": 70,
              "velocity": 84,
              "position": 73.66666666666667,
              "duration": 0.3125
            },
            {
              "pitch": 79,
              "velocity": 87,
              "position": 73.66666666666667,
              "duration": 0.3229166666666667
            },
            {
              "pitch": 74,
              "velocity": 75,
              "position": 73.66666666666667,
              "duration": 0.3333333333333333
            },
            {
              "pitch": 72,
              "velocity": 76,
              "position": 76,
              "duration": 0.3229166666666667
            },
            {
              "pitch": 76,
              "velocity": 76,
              "position": 76,
              "duration": 0.3229166666666667
            },
            {
              "pitch": 69,
              "velocity": 70,
              "position": 76,
              "duration": 0.3333333333333333
            },
            {
              "pitch": 72,
              "velocity": 81,
              "position": 77.66666666666667,
              "duration": 0.3020833333333333
            },
            {
              "pitch": 76,
              "velocity": 81,
              "position": 77.66666666666667,
              "duration": 0.3020833333333333
            },
            {
              "pitch": 69,
              "velocity": 81,
              "position": 77.66666666666667,
              "duration": 0.3125
            },
            {
              "pitch": 70,
              "velocity": 84,
              "position": 80,
              "duration": 0.9791666666666666
            },
            {
              "pitch": 74,
              "velocity": 75,
              "position": 80,
              "duration": 1
            },
            {
              "pitch": 70,
              "velocity": 80,
              "position": 96,
              "duration": 2.65625
            },
            {
              "pitch": 74,
              "velocity": 76,
              "position": 96,
              "duration": 2.65625
            },
            {
              "pitch": 74,
              "velocity": 76,
              "position": 99,
              "duration": 0.3125
            },
            {
              "pitch": 70,
              "velocity": 81,
              "position": 99,
              "duration": 0.3229166666666667
            },
            {
              "pitch": 70,
              "velocity": 67,
              "position": 101.66666666666667,
              "duration": 0.96875
            },
            {
              "pitch": 74,
              "velocity": 62,
              "position": 101.66666666666667,
              "duration": 0.9791666666666666
            },
            {
              "pitch": 72,
              "velocity": 88,
              "position": 103,
              "duration": 0.6354166666666666
            },
            {
              "pitch": 69,
              "velocity": 80,
              "position": 103,
              "duration": 0.6458333333333334
            },
            {
              "pitch": 70,
              "velocity": 80,
              "position": 109,
              "duration": 2.65625
            },
            {
              "pitch": 74,
              "velocity": 76,
              "position": 109,
              "duration": 2.65625
            },
            {
              "pitch": 72,
              "velocity": 88,
              "position": 112,
              "duration": 0.96875
            },
            {
              "pitch": 69,
              "velocity": 80,
              "position": 112,
              "duration": 0.9791666666666666
            }
          ]
        },
        "7": {
          "ctab": {
            "srcChannel": 7,
            "name": "PfRH 7th",
            "accType": "CHORD2",
            "editable": false,
            "mutedNotes": [],
            "mutedChords": [
              "1+2+5",
              "sus4",
              "1+5",
              "1+8",
              "7aug",
              "Maj7aug",
              "7(#9)",
              "7(b13)",
              "7(b9)",
              "7#11",
              "7sus4",
              "dim7",
              "dim",
              "minMaj7(9)",
              "minMaj7",
              "min7(11)",
              "m7b5",
              "min7",
              "min6",
              "min",
              "aug",
              "Maj6(9)",
              "Maj7(9)",
              "Maj(9)",
              "Maj7#11",
              "Maj7",
              "Maj6",
              "Maj"
            ],
            "autoStart": false,
            "sourceChordNote": 0,
            "sourceChordType": "Maj7",
            "ctb2Low": null,
            "ctb2Main": {
              "ntr": "ROOT_TRANSPOSITION",
              "ntt": "DORIAN_5",
              "bassOn": false,
              "chordRootUpperLimit": 6,
              "noteLowLimit": 67,
              "noteHighLimit": 79,
              "rtr": "PITCH_SHIFT"
            },
            "ctb2High": null
          },
          "notes": [
            {
              "pitch": 79,
              "velocity": 82,
              "position": 0,
              "duration": 0.3020833333333333
            },
            {
              "pitch": 84,
              "velocity": 83,
              "position": 0,
              "duration": 0.3229166666666667
            },
            {
              "pitch": 70,
              "velocity": 85,
              "position": 0,
              "duration": 0.3333333333333333
            },
            {
              "pitch": 74,
              "velocity": 85,
              "position": 0,
              "duration": 0.3333333333333333
            },
            {
              "pitch": 74,
              "velocity": 72,
              "position": 4,
              "duration": 0.3020833333333333
            },
            {
              "pitch": 69,
              "velocity": 78,
              "position": 4,
              "duration": 0.3125
            },
            {
              "pitch": 69,
              "velocity": 68,
              "position": 6,
              "duration": 0.9791666666666666
            },
            {
              "pitch": 74,
              "velocity": 51,
              "position": 6,
              "duration": 0.9895833333333334
            },
            {
              "pitch": 70,
              "velocity": 84,
              "position": 7.666666666666667,
              "duration": 3.9895833333333335
            },
            {
              "pitch": 74,
              "velocity": 88,
              "position": 7.666666666666667,
              "duration": 4
            },
            {
              "pitch": 79,
              "velocity": 88,
              "position": 7.666666666666667,
              "duration": 4
            },
            {
              "pitch": 74,
              "velocity": 75,
              "position": 13,
              "duration": 2.6354166666666665
            },
            {
              "pitch": 69,
              "velocity": 76,
              "position": 13,
              "duration": 2.6666666666666665
            },
            {
              "pitch": 74,
              "velocity": 75,
              "position": 16,
              "duration": 0.96875
            },
            {
              "pitch": 70,
              "velocity": 76,
              "position": 16,
              "duration": 1
            },
            {
              "pitch": 70,
              "velocity": 63,
              "position": 32,
              "duration": 0.3333333333333333
            },
            {
              "pitch": 74,
              "velocity": 63,
              "position": 32,
              "duration": 0.3333333333333333
            },
            {
              "pitch": 70,
              "velocity": 74,
              "position": 33,
              "duration": 0.6666666666666666
            },
            {
              "pitch": 74,
              "velocity": 74,
              "position": 33,
              "duration": 0.6666666666666666
            },
            {
              "pitch": 74,
              "velocity": 75,
              "position": 36,
              "duration": 0.6354166666666666
            },
            {
              "pitch": 69,
              "velocity": 80,
              "position": 36,
              "duration": 0.6458333333333334
            },
            {
              "pitch": 69,
              "velocity": 68,
              "position": 38,
              "duration": 0.6666666666666666
            },
            {
              "pitch": 74,
              "velocity": 59,
              "position": 38,
              "duration": 0.6666666666666666
            },
            {
              "pitch": 70,
              "velocity": 55,
              "position": 39.666666666666664,
              "duration": 0.3125
            },
            {
              "pitch": 74,
              "velocity": 53,
              "position": 39.666666666666664,
              "duration": 0.3229166666666667
            },
            {
              "pitch": 74,
              "velocity": 84,
              "position": 40.666666666666664,
              "duration": 0.9791666666666666
            },
            {
              "pitch": 70,
              "velocity": 86,
              "position": 40.666666666666664,
              "duration": 0.9895833333333334
            },
            {
              "pitch": 69,
              "velocity": 73,
              "position": 42,
              "duration": 0.3020833333333333
            },
            {
              "pitch": 74,
              "velocity": 85,
              "position": 42,
              "duration": 0.3229166666666667
            },
            {
              "pitch": 74,
              "velocity": 63,
              "position": 43,
              "duration": 0.3020833333333333
            },
            {
              "pitch": 70,
              "velocity": 60,
              "position": 43,
              "duration": 0.3333333333333333
            },
            {
              "pitch": 69,
              "velocity": 73,
              "position": 44,
              "duration": 0.3020833333333333
            },
            {
              "pitch": 74,
              "velocity": 85,
              "position": 44,
              "duration": 0.3229166666666667
            },
            {
              "pitch": 74,
              "velocity": 65,
              "position": 45.666666666666664,
              "duration": 1.96875
            },
            {
              "pitch": 69,
              "velocity": 70,
              "position": 45.666666666666664,
              "duration": 1.9791666666666667
            },
            {
              "pitch": 70,
              "velocity": 85,
              "position": 48,
              "duration": 0.96875
            },
            {
              "pitch": 74,
              "velocity": 74,
              "position": 48,
              "duration": 1
            },
            {
              "pitch": 69,
              "velocity": 79,
              "position": 64,
              "duration": 0.3125
            },
            {
              "pitch": 74,
              "velocity": 67,
              "position": 64,
              "duration": 0.3125
            },
            {
              "pitch": 79,
              "velocity": 75,
              "position": 64,
              "duration": 0.3229166666666667
            },
            {
              "pitch": 69,
              "velocity": 84,
              "position": 65.66666666666667,
              "duration": 0.3125
            },
            {
              "pitch": 79,
              "velocity": 87,
              "position": 65.66666666666667,
              "duration": 0.3229166666666667
            },
            {
              "pitch": 74,
              "velocity": 75,
              "position": 65.66666666666667,
              "duration": 0.3333333333333333
            },
            {
              "pitch": 76,
              "velocity": 69,
              "position": 68,
              "duration": 0.3125
            },
            {
              "pitch": 70,
              "velocity": 62,
              "position": 68,
              "duration": 0.3333333333333333
            },
            {
              "pitch": 81,
              "velocity": 62,
              "position": 68,
              "duration": 0.3333333333333333
            },
            {
              "pitch": 76,
              "velocity": 80,
              "position": 69.66666666666667,
              "duration": 0.3020833333333333
            },
            {
              "pitch": 70,
              "velocity": 80,
              "position": 69.66666666666667,
              "duration": 0.3229166666666667
            },
            {
              "pitch": 81,
              "velocity": 87,
              "position": 69.66666666666667,
              "duration": 0.3229166666666667
            },
            {
              "pitch": 74,
              "velocity": 76,
              "position": 72,
              "duration": 0.3229166666666667
            },
            {
              "pitch": 79,
              "velocity": 76,
              "position": 72,
              "duration": 0.3229166666666667
            },
            {
              "pitch": 69,
              "velocity": 70,
              "position": 72,
              "duration": 0.3333333333333333
            },
            {
              "pitch": 74,
              "velocity": 81,
              "position": 73.66666666666667,
              "duration": 0.3020833333333333
            },
            {
              "pitch": 79,
              "velocity": 81,
              "position": 73.66666666666667,
              "duration": 0.3020833333333333
            },
            {
              "pitch": 69,
              "velocity": 81,
              "position": 73.66666666666667,
              "duration": 0.3125
            },
            {
              "pitch": 72,
              "velocity": 76,
              "position": 76,
              "duration": 0.3229166666666667
            },
            {
              "pitch": 76,
              "velocity": 76,
              "position": 76,
              "duration": 0.3229166666666667
            },
            {
              "pitch": 69,
              "velocity": 70,
              "position": 76,
              "duration": 0.3333333333333333
            },
            {
              "pitch": 72,
              "velocity": 81,
              "position": 77.66666666666667,
              "duration": 0.3020833333333333
            },
            {
              "pitch": 76,
              "velocity": 81,
              "position": 77.66666666666667,
              "duration": 0.3020833333333333
            },
            {
              "pitch": 69,
              "velocity": 81,
              "position": 77.66666666666667,
              "duration": 0.3125
            },
            {
              "pitch": 74,
              "velocity": 81,
              "position": 80,
              "duration": 0.96875
            },
            {
              "pitch": 70,
              "velocity": 81,
              "position": 80,
              "duration": 0.9791666666666666
            },
            {
              "pitch": 69,
              "velocity": 80,
              "position": 96,
              "duration": 2.65625
            },
            {
              "pitch": 74,
              "velocity": 76,
              "position": 96,
              "duration": 2.65625
            },
            {
              "pitch": 74,
              "velocity": 76,
              "position": 99,
              "duration": 0.3125
            },
            {
              "pitch": 69,
              "velocity": 81,
              "position": 99,
              "duration": 0.3229166666666667
            },
            {
              "pitch": 69,
              "velocity": 67,
              "position": 101.66666666666667,
              "duration": 0.96875
            },
            {
              "pitch": 74,
              "velocity": 62,
              "position": 101.66666666666667,
              "duration": 0.9791666666666666
            },
            {
              "pitch": 74,
              "velocity": 88,
              "position": 103,
              "duration": 0.6354166666666666
            },
            {
              "pitch": 70,
              "velocity": 80,
              "position": 103,
              "duration": 0.6458333333333334
            },
            {
              "pitch": 69,
              "velocity": 80,
              "position": 109,
              "duration": 2.65625
            },
            {
              "pitch": 74,
              "velocity": 76,
              "position": 109,
              "duration": 2.65625
            },
            {
              "pitch": 74,
              "velocity": 88,
              "position": 112,
              "duration": 0.96875
            },
            {
              "pitch": 70,
              "velocity": 80,
              "position": 112,
              "duration": 0.9791666666666666
            }
          ]
        },
        "8": {
          "ctab": {
            "srcChannel": 8,
            "name": "DrSolo",
            "accType": "SUBRHYTHM",
            "editable": false,
            "mutedNotes": [],
            "mutedChords": [],
            "autoStart": true,
            "sourceChordNote": 0,
            "sourceChordType": "Maj7",
            "ctb2Low": null,
            "ctb2Main": {
              "ntr": "ROOT_FIXED",
              "ntt": "BYPASS",
              "bassOn": false,
              "chordRootUpperLimit": 6,
              "noteLowLimit": 0,
              "noteHighLimit": 127,
              "rtr": "PITCH_SHIFT"
            },
            "ctb2High": null
          },
          "notes": [
            {
              "pitch": 38,
              "velocity": 24,
              "position": 16.625,
              "duration": 0.010416666666666666
            },
            {
              "pitch": 38,
              "velocity": 68,
              "position": 17,
              "duration": 0.010416666666666666
            },
            {
              "pitch": 38,
              "velocity": 24,
              "position": 17.625,
              "duration": 0.010416666666666666
            },
            {
              "pitch": 38,
              "velocity": 85,
              "position": 18,
              "duration": 0.010416666666666666
            },
            {
              "pitch": 47,
              "velocity": 42,
              "position": 18.625,
              "duration": 0.010416666666666666
            },
            {
              "pitch": 38,
              "velocity": 20,
              "position": 19,
              "duration": 0.010416666666666666
            },
            {
              "pitch": 38,
              "velocity": 20,
              "position": 19.333333333333332,
              "duration": 0.010416666666666666
            },
            {
              "pitch": 38,
              "velocity": 29,
              "position": 19.625,
              "duration": 0.010416666666666666
            },
            {
              "pitch": 38,
              "velocity": 68,
              "position": 20,
              "duration": 0.010416666666666666
            },
            {
              "pitch": 38,
              "velocity": 29,
              "position": 20.625,
              "duration": 0.010416666666666666
            },
            {
              "pitch": 38,
              "velocity": 85,
              "position": 21,
              "duration": 0.010416666666666666
            },
            {
              "pitch": 47,
              "velocity": 68,
              "position": 21.625,
              "duration": 0.010416666666666666
            },
            {
              "pitch": 38,
              "velocity": 18,
              "position": 22,
              "duration": 0.010416666666666666
            },
            {
              "pitch": 38,
              "velocity": 18,
              "position": 22.333333333333332,
              "duration": 0.010416666666666666
            },
            {
              "pitch": 38,
              "velocity": 42,
              "position": 22.666666666666668,
              "duration": 0.010416666666666666
            },
            {
              "pitch": 38,
              "velocity": 18,
              "position": 23,
              "duration": 0.010416666666666666
            },
            {
              "pitch": 38,
              "velocity": 18,
              "position": 23.333333333333332,
              "duration": 0.010416666666666666
            },
            {
              "pitch": 38,
              "velocity": 56,
              "position": 23.666666666666668,
              "duration": 0.010416666666666666
            },
            {
              "pitch": 38,
              "velocity": 18,
              "position": 24,
              "duration": 0.010416666666666666
            },
            {
              "pitch": 38,
              "velocity": 18,
              "position": 24.333333333333332,
              "duration": 0.010416666666666666
            },
            {
              "pitch": 38,
              "velocity": 43,
              "position": 24.666666666666668,
              "duration": 0.010416666666666666
            },
            {
              "pitch": 38,
              "velocity": 18,
              "position": 25,
              "duration": 0.010416666666666666
            },
            {
              "pitch": 38,
              "velocity": 18,
              "position": 25.333333333333332,
              "duration": 0.010416666666666666
            },
            {
              "pitch": 38,
              "velocity": 80,
              "position": 25.666666666666668,
              "duration": 0.010416666666666666
            },
            {
              "pitch": 38,
              "velocity": 13,
              "position": 26,
              "duration": 0.010416666666666666
            },
            {
              "pitch": 38,
              "velocity": 20,
              "position": 26.333333333333332,
              "duration": 0.010416666666666666
            },
            {
              "pitch": 47,
              "velocity": 43,
              "position": 26.666666666666668,
              "duration": 0.010416666666666666
            },
            {
              "pitch": 38,
              "velocity": 13,
              "position": 27,
              "duration": 0.010416666666666666
            },
            {
              "pitch": 38,
              "velocity": 20,
              "position": 27.333333333333332,
              "duration": 0.010416666666666666
            },
            {
              "pitch": 47,
              "velocity": 94,
              "position": 27.625,
              "duration": 0.010416666666666666
            },
            {
              "pitch": 38,
              "velocity": 13,
              "position": 28,
              "duration": 0.010416666666666666
            },
            {
              "pitch": 38,
              "velocity": 20,
              "position": 28.333333333333332,
              "duration": 0.010416666666666666
            },
            {
              "pitch": 43,
              "velocity": 43,
              "position": 28.625,
              "duration": 0.010416666666666666
            },
            {
              "pitch": 38,
              "velocity": 13,
              "position": 29,
              "duration": 0.010416666666666666
            },
            {
              "pitch": 38,
              "velocity": 20,
              "position": 29.333333333333332,
              "duration": 0.010416666666666666
            },
            {
              "pitch": 43,
              "velocity": 94,
              "position": 29.625,
              "duration": 0.010416666666666666
            },
            {
              "pitch": 38,
              "velocity": 29,
              "position": 30,
              "duration": 0.010416666666666666
            },
            {
              "pitch": 38,
              "velocity": 29,
              "position": 30.333333333333332,
              "duration": 0.010416666666666666
            },
            {
              "pitch": 38,
              "velocity": 58,
              "position": 30.625,
              "duration": 0.010416666666666666
            },
            {
              "pitch": 38,
              "velocity": 94,
              "position": 31,
              "duration": 0.010416666666666666
            },
            {
              "pitch": 38,
              "velocity": 35,
              "position": 31.333333333333332,
              "duration": 0.010416666666666666
            },
            {
              "pitch": 35,
              "velocity": 58,
              "position": 31.625,
              "duration": 0.010416666666666666
            },
            {
              "pitch": 44,
              "velocity": 85,
              "position": 48,
              "duration": 0.010416666666666666
            },
            {
              "pitch": 46,
              "velocity": 43,
              "position": 48.333333333333336,
              "duration": 0.010416666666666666
            },
            {
              "pitch": 46,
              "velocity": 85,
              "position": 48.666666666666664,
              "duration": 0.010416666666666666
            },
            {
              "pitch": 46,
              "velocity": 37,
              "position": 49.333333333333336,
              "duration": 0.010416666666666666
            },
            {
              "pitch": 46,
              "velocity": 42,
              "position": 49.666666666666664,
              "duration": 0.010416666666666666
            },
            {
              "pitch": 46,
              "velocity": 85,
              "position": 50,
              "duration": 0.010416666666666666
            },
            {
              "pitch": 35,
              "velocity": 85,
              "position": 50.541666666666664,
              "duration": 0.010416666666666666
            },
            {
              "pitch": 38,
              "velocity": 24,
              "position": 51,
              "duration": 0.010416666666666666
            },
            {
              "pitch": 38,
              "velocity": 16,
              "position": 51.333333333333336,
              "duration": 0.010416666666666666
            },
            {
              "pitch": 35,
              "velocity": 42,
              "position": 51.541666666666664,
              "duration": 0.010416666666666666
            },
            {
              "pitch": 35,
              "velocity": 85,
              "position": 52,
              "duration": 0.010416666666666666
            },
            {
              "pitch": 52,
              "velocity": 19,
              "position": 52,
              "duration": 0.010416666666666666
            },
            {
              "pitch": 59,
              "velocity": 85,
              "position": 52,
              "duration": 0.010416666666666666
            },
            {
              "pitch": 38,
              "velocity": 42,
              "position": 52.541666666666664,
              "duration": 0.010416666666666666
            },
            {
              "pitch": 38,
              "velocity": 53,
              "position": 53,
              "duration": 0.010416666666666666
            },
            {
              "pitch": 35,
              "velocity": 85,
              "position": 53.541666666666664,
              "duration": 0.010416666666666666
            },
            {
              "pitch": 52,
              "velocity": 61,
              "position": 53.541666666666664,
              "duration": 0.010416666666666666
            },
            {
              "pitch": 59,
              "velocity": 127,
              "position": 53.541666666666664,
              "duration": 0.010416666666666666
            },
            {
              "pitch": 38,
              "velocity": 24,
              "position": 54,
              "duration": 0.010416666666666666
            },
            {
              "pitch": 38,
              "velocity": 16,
              "position": 54.333333333333336,
              "duration": 0.010416666666666666
            },
            {
              "pitch": 35,
              "velocity": 42,
              "position": 54.541666666666664,
              "duration": 0.010416666666666666
            },
            {
              "pitch": 35,
              "velocity": 85,
              "position": 55,
              "duration": 0.010416666666666666
            },
            {
              "pitch": 52,
              "velocity": 61,
              "position": 55,
              "duration": 0.010416666666666666
            },
            {
              "pitch": 53,
              "velocity": 127,
              "position": 55,
              "duration": 0.010416666666666666
            },
            {
              "pitch": 38,
              "velocity": 24,
              "position": 55.333333333333336,
              "duration": 0.010416666666666666
            },
            {
              "pitch": 38,
              "velocity": 16,
              "position": 55.666666666666664,
              "duration": 0.010416666666666666
            },
            {
              "pitch": 38,
              "velocity": 24,
              "position": 56,
              "duration": 0.010416666666666666
            },
            {
              "pitch": 38,
              "velocity": 16,
              "position": 56.333333333333336,
              "duration": 0.010416666666666666
            },
            {
              "pitch": 38,
              "velocity": 85,
              "position": 56.666666666666664,
              "duration": 0.010416666666666666
            },
            {
              "pitch": 38,
              "velocity": 16,
              "position": 57,
              "duration": 0.010416666666666666
            },
            {
              "pitch": 38,
              "velocity": 24,
              "position": 57.333333333333336,
              "duration": 0.010416666666666666
            },
            {
              "pitch": 38,
              "velocity": 42,
              "position": 57.666666666666664,
              "duration": 0.010416666666666666
            },
            {
              "pitch": 38,
              "velocity": 87,
              "position": 58,
              "duration": 0.010416666666666666
            },
            {
              "pitch": 47,
              "velocity": 52,
              "position": 58.541666666666664,
              "duration": 0.010416666666666666
            },
            {
              "pitch": 38,
              "velocity": 16,
              "position": 59,
              "duration": 0.010416666666666666
            },
            {
              "pitch": 38,
              "velocity": 24,
              "position": 59.333333333333336,
              "duration": 0.010416666666666666
            },
            {
              "pitch": 38,
              "velocity": 42,
              "position": 59.666666666666664,
              "duration": 0.010416666666666666
            },
            {
              "pitch": 38,
              "velocity": 87,
              "position": 60,
              "duration": 0.010416666666666666
            },
            {
              "pitch": 38,
              "velocity": 24,
              "position": 60.333333333333336,
              "duration": 0.010416666666666666
            },
            {
              "pitch": 47,
              "velocity": 34,
              "position": 60.666666666666664,
              "duration": 0.010416666666666666
            },
            {
              "pitch": 38,
              "velocity": 16,
              "position": 61,
              "duration": 0.010416666666666666
            },
            {
              "pitch": 38,
              "velocity": 24,
              "position": 61.333333333333336,
              "duration": 0.010416666666666666
            },
            {
              "pitch": 43,
              "velocity": 65,
              "position": 61.666666666666664,
              "duration": 0.010416666666666666
            },
            {
              "pitch": 38,
              "velocity": 16,
              "position": 62,
              "duration": 0.010416666666666666
            },
            {
              "pitch": 38,
              "velocity": 24,
              "position": 62.333333333333336,
              "duration": 0.010416666666666666
            },
            {
              "pitch": 38,
              "velocity": 42,
              "position": 62.666666666666664,
              "duration": 0.010416666666666666
            },
            {
              "pitch": 38,
              "velocity": 87,
              "position": 63,
              "duration": 0.010416666666666666
            },
            {
              "pitch": 35,
              "velocity": 85,
              "position": 80,
              "duration": 0.010416666666666666
            },
            {
              "pitch": 59,
              "velocity": 66,
              "position": 80.54166666666667,
              "duration": 0.010416666666666666
            },
            {
              "pitch": 59,
              "velocity": 41,
              "position": 80.75,
              "duration": 0.010416666666666666
            },
            {
              "pitch": 51,
              "velocity": 71,
              "position": 81,
              "duration": 0.010416666666666666
            },
            {
              "pitch": 51,
              "velocity": 41,
              "position": 81.29166666666667,
              "duration": 0.010416666666666666
            },
            {
              "pitch": 35,
              "velocity": 61,
              "position": 81.54166666666667,
              "duration": 0.010416666666666666
            },
            {
              "pitch": 57,
              "velocity": 30,
              "position": 81.54166666666667,
              "duration": 0.010416666666666666
            },
            {
              "pitch": 59,
              "velocity": 85,
              "position": 81.54166666666667,
              "duration": 0.010416666666666666
            },
            {
              "pitch": 51,
              "velocity": 65,
              "position": 82,
              "duration": 0.010416666666666666
            },
            {
              "pitch": 35,
              "velocity": 31,
              "position": 82.54166666666667,
              "duration": 0.010416666666666666
            },
            {
              "pitch": 59,
              "velocity": 59,
              "position": 82.54166666666667,
              "duration": 0.010416666666666666
            },
            {
              "pitch": 35,
              "velocity": 85,
              "position": 83,
              "duration": 0.010416666666666666
            },
            {
              "pitch": 49,
              "velocity": 30,
              "position": 83,
              "duration": 0.010416666666666666
            },
            {
              "pitch": 51,
              "velocity": 127,
              "position": 83,
              "duration": 0.010416666666666666
            },
            {
              "pitch": 53,
              "velocity": 127,
              "position": 83,
              "duration": 0.010416666666666666
            },
            {
              "pitch": 59,
              "velocity": 66,
              "position": 83.54166666666667,
              "duration": 0.010416666666666666
            },
            {
              "pitch": 59,
              "velocity": 41,
              "position": 83.75,
              "duration": 0.010416666666666666
            },
            {
              "pitch": 51,
              "velocity": 71,
              "position": 84,
              "duration": 0.010416666666666666
            },
            {
              "pitch": 51,
              "velocity": 41,
              "position": 84.29166666666667,
              "duration": 0.010416666666666666
            },
            {
              "pitch": 35,
              "velocity": 61,
              "position": 84.54166666666667,
              "duration": 0.010416666666666666
            },
            {
              "pitch": 52,
              "velocity": 30,
              "position": 84.54166666666667,
              "duration": 0.010416666666666666
            },
            {
              "pitch": 59,
              "velocity": 85,
              "position": 84.54166666666667,
              "duration": 0.010416666666666666
            },
            {
              "pitch": 51,
              "velocity": 65,
              "position": 85,
              "duration": 0.010416666666666666
            },
            {
              "pitch": 35,
              "velocity": 31,
              "position": 85.54166666666667,
              "duration": 0.010416666666666666
            },
            {
              "pitch": 59,
              "velocity": 59,
              "position": 85.54166666666667,
              "duration": 0.010416666666666666
            },
            {
              "pitch": 35,
              "velocity": 85,
              "position": 86,
              "duration": 0.010416666666666666
            },
            {
              "pitch": 51,
              "velocity": 127,
              "position": 86,
              "duration": 0.010416666666666666
            },
            {
              "pitch": 53,
              "velocity": 64,
              "position": 86,
              "duration": 0.010416666666666666
            },
            {
              "pitch": 57,
              "velocity": 30,
              "position": 86,
              "duration": 0.010416666666666666
            },
            {
              "pitch": 59,
              "velocity": 66,
              "position": 86.54166666666667,
              "duration": 0.010416666666666666
            },
            {
              "pitch": 59,
              "velocity": 41,
              "position": 86.75,
              "duration": 0.010416666666666666
            },
            {
              "pitch": 51,
              "velocity": 71,
              "position": 87,
              "duration": 0.010416666666666666
            },
            {
              "pitch": 51,
              "velocity": 41,
              "position": 87.29166666666667,
              "duration": 0.010416666666666666
            },
            {
              "pitch": 35,
              "velocity": 61,
              "position": 87.54166666666667,
              "duration": 0.010416666666666666
            },
            {
              "pitch": 49,
              "velocity": 30,
              "position": 87.54166666666667,
              "duration": 0.010416666666666666
            },
            {
              "pitch": 53,
              "velocity": 66,
              "position": 87.54166666666667,
              "duration": 0.010416666666666666
            },
            {
              "pitch": 59,
              "velocity": 85,
              "position": 87.54166666666667,
              "duration": 0.010416666666666666
            },
            {
              "pitch": 51,
              "velocity": 65,
              "position": 88,
              "duration": 0.010416666666666666
            },
            {
              "pitch": 35,
              "velocity": 31,
              "position": 88.54166666666667,
              "duration": 0.010416666666666666
            },
            {
              "pitch": 59,
              "velocity": 59,
              "position": 88.54166666666667,
              "duration": 0.010416666666666666
            },
            {
              "pitch": 35,
              "velocity": 85,
              "position": 89,
              "duration": 0.010416666666666666
            },
            {
              "pitch": 51,
              "velocity": 127,
              "position": 89,
              "duration": 0.010416666666666666
            },
            {
              "pitch": 52,
              "velocity": 30,
              "position": 89,
              "duration": 0.010416666666666666
            },
            {
              "pitch": 53,
              "velocity": 92,
              "position": 89,
              "duration": 0.010416666666666666
            },
            {
              "pitch": 59,
              "velocity": 66,
              "position": 89.54166666666667,
              "duration": 0.010416666666666666
            },
            {
              "pitch": 59,
              "velocity": 41,
              "position": 89.75,
              "duration": 0.010416666666666666
            },
            {
              "pitch": 51,
              "velocity": 71,
              "position": 90,
              "duration": 0.010416666666666666
            },
            {
              "pitch": 51,
              "velocity": 41,
              "position": 90.29166666666667,
              "duration": 0.010416666666666666
            },
            {
              "pitch": 35,
              "velocity": 61,
              "position": 90.54166666666667,
              "duration": 0.010416666666666666
            },
            {
              "pitch": 57,
              "velocity": 30,
              "position": 90.54166666666667,
              "duration": 0.010416666666666666
            },
            {
              "pitch": 59,
              "velocity": 85,
              "position": 90.54166666666667,
              "duration": 0.010416666666666666
            },
            {
              "pitch": 51,
              "velocity": 65,
              "position": 91,
              "duration": 0.010416666666666666
            },
            {
              "pitch": 35,
              "velocity": 31,
              "position": 91.54166666666667,
              "duration": 0.010416666666666666
            },
            {
              "pitch": 59,
              "velocity": 59,
              "position": 91.54166666666667,
              "duration": 0.010416666666666666
            },
            {
              "pitch": 35,
              "velocity": 85,
              "position": 92,
              "duration": 0.010416666666666666
            },
            {
              "pitch": 49,
              "velocity": 30,
              "position": 92,
              "duration": 0.010416666666666666
            },
            {
              "pitch": 51,
              "velocity": 127,
              "position": 92,
              "duration": 0.010416666666666666
            },
            {
              "pitch": 53,
              "velocity": 127,
              "position": 92,
              "duration": 0.010416666666666666
            },
            {
              "pitch": 38,
              "velocity": 27,
              "position": 92.54166666666667,
              "duration": 0.010416666666666666
            },
            {
              "pitch": 38,
              "velocity": 33,
              "position": 93,
              "duration": 0.010416666666666666
            },
            {
              "pitch": 38,
              "velocity": 61,
              "position": 93.54166666666667,
              "duration": 0.010416666666666666
            },
            {
              "pitch": 38,
              "velocity": 85,
              "position": 93.95833333333333,
              "duration": 0.010416666666666666
            },
            {
              "pitch": 47,
              "velocity": 51,
              "position": 94.5,
              "duration": 0.010416666666666666
            },
            {
              "pitch": 47,
              "velocity": 85,
              "position": 95,
              "duration": 0.010416666666666666
            },
            {
              "pitch": 35,
              "velocity": 61,
              "position": 95.5,
              "duration": 0.010416666666666666
            },
            {
              "pitch": 44,
              "velocity": 85,
              "position": 112,
              "duration": 0.010416666666666666
            },
            {
              "pitch": 46,
              "velocity": 43,
              "position": 112.33333333333333,
              "duration": 0.010416666666666666
            },
            {
              "pitch": 46,
              "velocity": 85,
              "position": 112.66666666666667,
              "duration": 0.010416666666666666
            },
            {
              "pitch": 46,
              "velocity": 37,
              "position": 113.33333333333333,
              "duration": 0.010416666666666666
            },
            {
              "pitch": 46,
              "velocity": 42,
              "position": 113.66666666666667,
              "duration": 0.010416666666666666
            },
            {
              "pitch": 46,
              "velocity": 85,
              "position": 114,
              "duration": 0.010416666666666666
            },
            {
              "pitch": 46,
              "velocity": 46,
              "position": 114.33333333333333,
              "duration": 0.010416666666666666
            },
            {
              "pitch": 46,
              "velocity": 48,
              "position": 114.66666666666667,
              "duration": 0.010416666666666666
            },
            {
              "pitch": 46,
              "velocity": 42,
              "position": 115.33333333333333,
              "duration": 0.010416666666666666
            },
            {
              "pitch": 46,
              "velocity": 85,
              "position": 115.66666666666667,
              "duration": 0.010416666666666666
            },
            {
              "pitch": 46,
              "velocity": 51,
              "position": 116,
              "duration": 0.010416666666666666
            },
            {
              "pitch": 46,
              "velocity": 42,
              "position": 116.33333333333333,
              "duration": 0.010416666666666666
            },
            {
              "pitch": 35,
              "velocity": 42,
              "position": 116.66666666666667,
              "duration": 0.010416666666666666
            },
            {
              "pitch": 46,
              "velocity": 64,
              "position": 116.66666666666667,
              "duration": 0.010416666666666666
            },
            {
              "pitch": 46,
              "velocity": 42,
              "position": 117.33333333333333,
              "duration": 0.010416666666666666
            },
            {
              "pitch": 35,
              "velocity": 42,
              "position": 117.66666666666667,
              "duration": 0.010416666666666666
            },
            {
              "pitch": 46,
              "velocity": 85,
              "position": 117.66666666666667,
              "duration": 0.010416666666666666
            },
            {
              "pitch": 46,
              "velocity": 51,
              "position": 118,
              "duration": 0.010416666666666666
            },
            {
              "pitch": 46,
              "velocity": 42,
              "position": 118.33333333333333,
              "duration": 0.010416666666666666
            },
            {
              "pitch": 35,
              "velocity": 64,
              "position": 118.66666666666667,
              "duration": 0.010416666666666666
            },
            {
              "pitch": 46,
              "velocity": 64,
              "position": 118.66666666666667,
              "duration": 0.010416666666666666
            },
            {
              "pitch": 46,
              "velocity": 42,
              "position": 119.33333333333333,
              "duration": 0.010416666666666666
            },
            {
              "pitch": 35,
              "velocity": 107,
              "position": 119.66666666666667,
              "duration": 0.010416666666666666
            },
            {
              "pitch": 46,
              "velocity": 85,
              "position": 119.66666666666667,
              "duration": 0.010416666666666666
            },
            {
              "pitch": 35,
              "velocity": 42,
              "position": 120.58333333333333,
              "duration": 0.010416666666666666
            },
            {
              "pitch": 35,
              "velocity": 107,
              "position": 121,
              "duration": 0.010416666666666666
            },
            {
              "pitch": 38,
              "velocity": 114,
              "position": 121,
              "duration": 0.010416666666666666
            },
            {
              "pitch": 38,
              "velocity": 11,
              "position": 126,
              "duration": 0.010416666666666666
            },
            {
              "pitch": 38,
              "velocity": 30,
              "position": 126.33333333333333,
              "duration": 0.010416666666666666
            },
            {
              "pitch": 38,
              "velocity": 50,
              "position": 126.66666666666667,
              "duration": 0.010416666666666666
            },
            {
              "pitch": 29,
              "velocity": 127,
              "position": 121,
              "duration": 6.010416666666667
            },
            {
              "pitch": 38,
              "velocity": 110,
              "position": 127,
              "duration": 0.010416666666666666
            }
          ]
        },
        "9": {
          "ctab": {
            "srcChannel": 9,
            "name": "Drs",
            "accType": "RHYTHM",
            "editable": false,
            "mutedNotes": [],
            "mutedChords": [],
            "autoStart": true,
            "sourceChordNote": 0,
            "sourceChordType": "Maj7",
            "ctb2Low": null,
            "ctb2Main": {
              "ntr": "ROOT_FIXED",
              "ntt": "BYPASS",
              "bassOn": false,
              "chordRootUpperLimit": 6,
              "noteLowLimit": 0,
              "noteHighLimit": 127,
              "rtr": "PITCH_SHIFT"
            },
            "ctb2High": null
          },
          "notes": [
            {
              "pitch": 59,
              "velocity": 72,
              "position": 0,
              "duration": 0.010416666666666666
            },
            {
              "pitch": 44,
              "velocity": 59,
              "position": 1,
              "duration": 0.010416666666666666
            },
            {
              "pitch": 59,
              "velocity": 70,
              "position": 1,
              "duration": 0.010416666666666666
            },
            {
              "pitch": 59,
              "velocity": 19,
              "position": 1.6666666666666667,
              "duration": 0.010416666666666666
            },
            {
              "pitch": 38,
              "velocity": 51,
              "position": 2,
              "duration": 0.010416666666666666
            },
            {
              "pitch": 59,
              "velocity": 64,
              "position": 2,
              "duration": 0.010416666666666666
            },
            {
              "pitch": 44,
              "velocity": 61,
              "position": 3,
              "duration": 0.010416666666666666
            },
            {
              "pitch": 59,
              "velocity": 76,
              "position": 3,
              "duration": 0.010416666666666666
            },
            {
              "pitch": 38,
              "velocity": 40,
              "position": 3.6666666666666665,
              "duration": 0.010416666666666666
            },
            {
              "pitch": 59,
              "velocity": 22,
              "position": 3.6666666666666665,
              "duration": 0.010416666666666666
            },
            {
              "pitch": 33,
              "velocity": 59,
              "position": 4,
              "duration": 0.010416666666666666
            },
            {
              "pitch": 59,
              "velocity": 63,
              "position": 4,
              "duration": 0.010416666666666666
            },
            {
              "pitch": 44,
              "velocity": 67,
              "position": 5,
              "duration": 0.010416666666666666
            },
            {
              "pitch": 59,
              "velocity": 65,
              "position": 5,
              "duration": 0.010416666666666666
            },
            {
              "pitch": 59,
              "velocity": 35,
              "position": 5.666666666666667,
              "duration": 0.010416666666666666
            },
            {
              "pitch": 59,
              "velocity": 68,
              "position": 6,
              "duration": 0.010416666666666666
            },
            {
              "pitch": 38,
              "velocity": 45,
              "position": 6.666666666666667,
              "duration": 0.010416666666666666
            },
            {
              "pitch": 44,
              "velocity": 61,
              "position": 7,
              "duration": 0.010416666666666666
            },
            {
              "pitch": 59,
              "velocity": 61,
              "position": 7,
              "duration": 0.010416666666666666
            },
            {
              "pitch": 59,
              "velocity": 24,
              "position": 7.666666666666667,
              "duration": 0.010416666666666666
            },
            {
              "pitch": 59,
              "velocity": 69,
              "position": 8,
              "duration": 0.010416666666666666
            },
            {
              "pitch": 44,
              "velocity": 62,
              "position": 9,
              "duration": 0.010416666666666666
            },
            {
              "pitch": 59,
              "velocity": 65,
              "position": 9,
              "duration": 0.010416666666666666
            },
            {
              "pitch": 59,
              "velocity": 37,
              "position": 9.666666666666666,
              "duration": 0.010416666666666666
            },
            {
              "pitch": 59,
              "velocity": 71,
              "position": 10,
              "duration": 0.010416666666666666
            },
            {
              "pitch": 44,
              "velocity": 75,
              "position": 11,
              "duration": 0.010416666666666666
            },
            {
              "pitch": 59,
              "velocity": 76,
              "position": 11,
              "duration": 0.010416666666666666
            },
            {
              "pitch": 59,
              "velocity": 21,
              "position": 11.666666666666666,
              "duration": 0.010416666666666666
            },
            {
              "pitch": 59,
              "velocity": 67,
              "position": 12,
              "duration": 0.010416666666666666
            },
            {
              "pitch": 44,
              "velocity": 74,
              "position": 13,
              "duration": 0.010416666666666666
            },
            {
              "pitch": 59,
              "velocity": 68,
              "position": 13,
              "duration": 0.010416666666666666
            },
            {
              "pitch": 33,
              "velocity": 63,
              "position": 13.666666666666666,
              "duration": 0.010416666666666666
            },
            {
              "pitch": 59,
              "velocity": 26,
              "position": 13.666666666666666,
              "duration": 0.010416666666666666
            },
            {
              "pitch": 59,
              "velocity": 68,
              "position": 14,
              "duration": 0.010416666666666666
            },
            {
              "pitch": 44,
              "velocity": 67,
              "position": 15,
              "duration": 0.010416666666666666
            },
            {
              "pitch": 59,
              "velocity": 73,
              "position": 15,
              "duration": 0.010416666666666666
            },
            {
              "pitch": 38,
              "velocity": 51,
              "position": 15.666666666666666,
              "duration": 0.010416666666666666
            },
            {
              "pitch": 33,
              "velocity": 80,
              "position": 16,
              "duration": 0.010416666666666666
            },
            {
              "pitch": 52,
              "velocity": 38,
              "position": 16,
              "duration": 0.010416666666666666
            },
            {
              "pitch": 59,
              "velocity": 115,
              "position": 16,
              "duration": 0.010416666666666666
            },
            {
              "pitch": 44,
              "velocity": 59,
              "position": 17,
              "duration": 0.010416666666666666
            },
            {
              "pitch": 44,
              "velocity": 61,
              "position": 19,
              "duration": 0.010416666666666666
            },
            {
              "pitch": 44,
              "velocity": 67,
              "position": 21,
              "duration": 0.010416666666666666
            },
            {
              "pitch": 44,
              "velocity": 61,
              "position": 23,
              "duration": 0.010416666666666666
            },
            {
              "pitch": 44,
              "velocity": 62,
              "position": 25,
              "duration": 0.010416666666666666
            },
            {
              "pitch": 44,
              "velocity": 75,
              "position": 27,
              "duration": 0.010416666666666666
            },
            {
              "pitch": 44,
              "velocity": 20,
              "position": 29,
              "duration": 0.010416666666666666
            },
            {
              "pitch": 44,
              "velocity": 67,
              "position": 31,
              "duration": 0.010416666666666666
            },
            {
              "pitch": 33,
              "velocity": 80,
              "position": 32,
              "duration": 0.010416666666666666
            },
            {
              "pitch": 57,
              "velocity": 40,
              "position": 32,
              "duration": 0.010416666666666666
            },
            {
              "pitch": 44,
              "velocity": 64,
              "position": 33,
              "duration": 0.010416666666666666
            },
            {
              "pitch": 59,
              "velocity": 72,
              "position": 33,
              "duration": 0.010416666666666666
            },
            {
              "pitch": 59,
              "velocity": 34,
              "position": 33.666666666666664,
              "duration": 0.010416666666666666
            },
            {
              "pitch": 59,
              "velocity": 69,
              "position": 34,
              "duration": 0.010416666666666666
            },
            {
              "pitch": 44,
              "velocity": 63,
              "position": 35,
              "duration": 0.010416666666666666
            },
            {
              "pitch": 59,
              "velocity": 62,
              "position": 35,
              "duration": 0.010416666666666666
            },
            {
              "pitch": 59,
              "velocity": 29,
              "position": 35.666666666666664,
              "duration": 0.010416666666666666
            },
            {
              "pitch": 59,
              "velocity": 73,
              "position": 36,
              "duration": 0.010416666666666666
            },
            {
              "pitch": 44,
              "velocity": 61,
              "position": 37,
              "duration": 0.010416666666666666
            },
            {
              "pitch": 59,
              "velocity": 73,
              "position": 37,
              "duration": 0.010416666666666666
            },
            {
              "pitch": 59,
              "velocity": 19,
              "position": 37.666666666666664,
              "duration": 0.010416666666666666
            },
            {
              "pitch": 59,
              "velocity": 67,
              "position": 38,
              "duration": 0.010416666666666666
            },
            {
              "pitch": 38,
              "velocity": 42,
              "position": 38.666666666666664,
              "duration": 0.010416666666666666
            },
            {
              "pitch": 44,
              "velocity": 60,
              "position": 39,
              "duration": 0.010416666666666666
            },
            {
              "pitch": 59,
              "velocity": 71,
              "position": 39,
              "duration": 0.010416666666666666
            },
            {
              "pitch": 59,
              "velocity": 19,
              "position": 39.666666666666664,
              "duration": 0.010416666666666666
            },
            {
              "pitch": 59,
              "velocity": 74,
              "position": 40,
              "duration": 0.010416666666666666
            },
            {
              "pitch": 44,
              "velocity": 68,
              "position": 41,
              "duration": 0.010416666666666666
            },
            {
              "pitch": 59,
              "velocity": 60,
              "position": 41,
              "duration": 0.010416666666666666
            },
            {
              "pitch": 38,
              "velocity": 51,
              "position": 41.666666666666664,
              "duration": 0.010416666666666666
            },
            {
              "pitch": 59,
              "velocity": 29,
              "position": 41.666666666666664,
              "duration": 0.010416666666666666
            },
            {
              "pitch": 59,
              "velocity": 71,
              "position": 42,
              "duration": 0.010416666666666666
            },
            {
              "pitch": 44,
              "velocity": 70,
              "position": 43,
              "duration": 0.010416666666666666
            },
            {
              "pitch": 59,
              "velocity": 75,
              "position": 43,
              "duration": 0.010416666666666666
            },
            {
              "pitch": 59,
              "velocity": 25,
              "position": 43.666666666666664,
              "duration": 0.010416666666666666
            },
            {
              "pitch": 59,
              "velocity": 77,
              "position": 44,
              "duration": 0.010416666666666666
            },
            {
              "pitch": 38,
              "velocity": 49,
              "position": 44.666666666666664,
              "duration": 0.010416666666666666
            },
            {
              "pitch": 44,
              "velocity": 63,
              "position": 45,
              "duration": 0.010416666666666666
            },
            {
              "pitch": 59,
              "velocity": 68,
              "position": 45,
              "duration": 0.010416666666666666
            },
            {
              "pitch": 59,
              "velocity": 36,
              "position": 45.666666666666664,
              "duration": 0.010416666666666666
            },
            {
              "pitch": 59,
              "velocity": 65,
              "position": 46,
              "duration": 0.010416666666666666
            },
            {
              "pitch": 44,
              "velocity": 68,
              "position": 47,
              "duration": 0.010416666666666666
            },
            {
              "pitch": 59,
              "velocity": 70,
              "position": 47,
              "duration": 0.010416666666666666
            },
            {
              "pitch": 59,
              "velocity": 28,
              "position": 47.666666666666664,
              "duration": 0.010416666666666666
            },
            {
              "pitch": 33,
              "velocity": 80,
              "position": 48,
              "duration": 0.010416666666666666
            },
            {
              "pitch": 52,
              "velocity": 38,
              "position": 48,
              "duration": 0.010416666666666666
            },
            {
              "pitch": 59,
              "velocity": 115,
              "position": 48,
              "duration": 0.010416666666666666
            },
            {
              "pitch": 44,
              "velocity": 64,
              "position": 49,
              "duration": 0.010416666666666666
            },
            {
              "pitch": 44,
              "velocity": 63,
              "position": 51,
              "duration": 0.010416666666666666
            },
            {
              "pitch": 44,
              "velocity": 61,
              "position": 53,
              "duration": 0.010416666666666666
            },
            {
              "pitch": 44,
              "velocity": 60,
              "position": 55,
              "duration": 0.010416666666666666
            },
            {
              "pitch": 44,
              "velocity": 68,
              "position": 57,
              "duration": 0.010416666666666666
            },
            {
              "pitch": 44,
              "velocity": 70,
              "position": 59,
              "duration": 0.010416666666666666
            },
            {
              "pitch": 44,
              "velocity": 63,
              "position": 61,
              "duration": 0.010416666666666666
            },
            {
              "pitch": 44,
              "velocity": 68,
              "position": 63,
              "duration": 0.010416666666666666
            },
            {
              "pitch": 33,
              "velocity": 80,
              "position": 64,
              "duration": 0.010416666666666666
            },
            {
              "pitch": 57,
              "velocity": 40,
              "position": 64,
              "duration": 0.010416666666666666
            },
            {
              "pitch": 44,
              "velocity": 63,
              "position": 65,
              "duration": 0.010416666666666666
            },
            {
              "pitch": 59,
              "velocity": 76,
              "position": 65,
              "duration": 0.010416666666666666
            },
            {
              "pitch": 38,
              "velocity": 49,
              "position": 65.66666666666667,
              "duration": 0.010416666666666666
            },
            {
              "pitch": 59,
              "velocity": 32,
              "position": 65.66666666666667,
              "duration": 0.010416666666666666
            },
            {
              "pitch": 59,
              "velocity": 72,
              "position": 66,
              "duration": 0.010416666666666666
            },
            {
              "pitch": 44,
              "velocity": 75,
              "position": 67,
              "duration": 0.010416666666666666
            },
            {
              "pitch": 59,
              "velocity": 77,
              "position": 67,
              "duration": 0.010416666666666666
            },
            {
              "pitch": 59,
              "velocity": 32,
              "position": 67.66666666666667,
              "duration": 0.010416666666666666
            },
            {
              "pitch": 59,
              "velocity": 72,
              "position": 68,
              "duration": 0.010416666666666666
            },
            {
              "pitch": 33,
              "velocity": 69,
              "position": 69,
              "duration": 0.010416666666666666
            },
            {
              "pitch": 44,
              "velocity": 63,
              "position": 69,
              "duration": 0.010416666666666666
            },
            {
              "pitch": 52,
              "velocity": 43,
              "position": 69,
              "duration": 0.010416666666666666
            },
            {
              "pitch": 59,
              "velocity": 71,
              "position": 69,
              "duration": 0.010416666666666666
            },
            {
              "pitch": 59,
              "velocity": 26,
              "position": 69.66666666666667,
              "duration": 0.010416666666666666
            },
            {
              "pitch": 59,
              "velocity": 63,
              "position": 70,
              "duration": 0.010416666666666666
            },
            {
              "pitch": 44,
              "velocity": 59,
              "position": 71,
              "duration": 0.010416666666666666
            },
            {
              "pitch": 59,
              "velocity": 60,
              "position": 71,
              "duration": 0.010416666666666666
            },
            {
              "pitch": 59,
              "velocity": 36,
              "position": 71.66666666666667,
              "duration": 0.010416666666666666
            },
            {
              "pitch": 59,
              "velocity": 67,
              "position": 72,
              "duration": 0.010416666666666666
            },
            {
              "pitch": 44,
              "velocity": 65,
              "position": 73,
              "duration": 0.010416666666666666
            },
            {
              "pitch": 59,
              "velocity": 67,
              "position": 73,
              "duration": 0.010416666666666666
            },
            {
              "pitch": 38,
              "velocity": 43,
              "position": 73.66666666666667,
              "duration": 0.010416666666666666
            },
            {
              "pitch": 59,
              "velocity": 24,
              "position": 73.66666666666667,
              "duration": 0.010416666666666666
            },
            {
              "pitch": 59,
              "velocity": 59,
              "position": 74,
              "duration": 0.010416666666666666
            },
            {
              "pitch": 44,
              "velocity": 63,
              "position": 75,
              "duration": 0.010416666666666666
            },
            {
              "pitch": 59,
              "velocity": 76,
              "position": 75,
              "duration": 0.010416666666666666
            },
            {
              "pitch": 38,
              "velocity": 40,
              "position": 75.66666666666667,
              "duration": 0.010416666666666666
            },
            {
              "pitch": 59,
              "velocity": 30,
              "position": 75.66666666666667,
              "duration": 0.010416666666666666
            },
            {
              "pitch": 59,
              "velocity": 77,
              "position": 76,
              "duration": 0.010416666666666666
            },
            {
              "pitch": 44,
              "velocity": 68,
              "position": 77,
              "duration": 0.010416666666666666
            },
            {
              "pitch": 59,
              "velocity": 62,
              "position": 77,
              "duration": 0.010416666666666666
            },
            {
              "pitch": 59,
              "velocity": 31,
              "position": 77.66666666666667,
              "duration": 0.010416666666666666
            },
            {
              "pitch": 59,
              "velocity": 62,
              "position": 78,
              "duration": 0.010416666666666666
            },
            {
              "pitch": 44,
              "velocity": 70,
              "position": 79,
              "duration": 0.010416666666666666
            },
            {
              "pitch": 59,
              "velocity": 62,
              "position": 79,
              "duration": 0.010416666666666666
            },
            {
              "pitch": 59,
              "velocity": 31,
              "position": 79.66666666666667,
              "duration": 0.010416666666666666
            },
            {
              "pitch": 33,
              "velocity": 80,
              "position": 80,
              "duration": 0.010416666666666666
            },
            {
              "pitch": 52,
              "velocity": 38,
              "position": 80,
              "duration": 0.010416666666666666
            },
            {
              "pitch": 59,
              "velocity": 115,
              "position": 80,
              "duration": 0.010416666666666666
            },
            {
              "pitch": 44,
              "velocity": 63,
              "position": 81,
              "duration": 0.010416666666666666
            },
            {
              "pitch": 44,
              "velocity": 75,
              "position": 83,
              "duration": 0.010416666666666666
            },
            {
              "pitch": 44,
              "velocity": 63,
              "position": 85,
              "duration": 0.010416666666666666
            },
            {
              "pitch": 44,
              "velocity": 59,
              "position": 87,
              "duration": 0.010416666666666666
            },
            {
              "pitch": 44,
              "velocity": 65,
              "position": 89,
              "duration": 0.010416666666666666
            },
            {
              "pitch": 44,
              "velocity": 63,
              "position": 91,
              "duration": 0.010416666666666666
            },
            {
              "pitch": 44,
              "velocity": 68,
              "position": 93,
              "duration": 0.010416666666666666
            },
            {
              "pitch": 44,
              "velocity": 70,
              "position": 95,
              "duration": 0.010416666666666666
            },
            {
              "pitch": 33,
              "velocity": 80,
              "position": 96,
              "duration": 0.010416666666666666
            },
            {
              "pitch": 57,
              "velocity": 40,
              "position": 96,
              "duration": 0.010416666666666666
            },
            {
              "pitch": 38,
              "velocity": 33,
              "position": 97,
              "duration": 0.010416666666666666
            },
            {
              "pitch": 44,
              "velocity": 75,
              "position": 97,
              "duration": 0.010416666666666666
            },
            {
              "pitch": 59,
              "velocity": 59,
              "position": 97,
              "duration": 0.010416666666666666
            },
            {
              "pitch": 59,
              "velocity": 37,
              "position": 97.66666666666667,
              "duration": 0.010416666666666666
            },
            {
              "pitch": 59,
              "velocity": 59,
              "position": 98,
              "duration": 0.010416666666666666
            },
            {
              "pitch": 33,
              "velocity": 73,
              "position": 98.66666666666667,
              "duration": 0.010416666666666666
            },
            {
              "pitch": 44,
              "velocity": 66,
              "position": 99,
              "duration": 0.010416666666666666
            },
            {
              "pitch": 59,
              "velocity": 68,
              "position": 99,
              "duration": 0.010416666666666666
            },
            {
              "pitch": 59,
              "velocity": 24,
              "position": 99.66666666666667,
              "duration": 0.010416666666666666
            },
            {
              "pitch": 38,
              "velocity": 40,
              "position": 100,
              "duration": 0.010416666666666666
            },
            {
              "pitch": 59,
              "velocity": 60,
              "position": 100,
              "duration": 0.010416666666666666
            },
            {
              "pitch": 44,
              "velocity": 69,
              "position": 101,
              "duration": 0.010416666666666666
            },
            {
              "pitch": 59,
              "velocity": 61,
              "position": 101,
              "duration": 0.010416666666666666
            },
            {
              "pitch": 59,
              "velocity": 23,
              "position": 101.66666666666667,
              "duration": 0.010416666666666666
            },
            {
              "pitch": 59,
              "velocity": 72,
              "position": 102,
              "duration": 0.010416666666666666
            },
            {
              "pitch": 44,
              "velocity": 68,
              "position": 103,
              "duration": 0.010416666666666666
            },
            {
              "pitch": 59,
              "velocity": 62,
              "position": 103,
              "duration": 0.010416666666666666
            },
            {
              "pitch": 59,
              "velocity": 32,
              "position": 103.66666666666667,
              "duration": 0.010416666666666666
            },
            {
              "pitch": 59,
              "velocity": 74,
              "position": 104,
              "duration": 0.010416666666666666
            },
            {
              "pitch": 33,
              "velocity": 77,
              "position": 105,
              "duration": 0.010416666666666666
            },
            {
              "pitch": 44,
              "velocity": 76,
              "position": 105,
              "duration": 0.010416666666666666
            },
            {
              "pitch": 59,
              "velocity": 67,
              "position": 105,
              "duration": 0.010416666666666666
            },
            {
              "pitch": 59,
              "velocity": 34,
              "position": 105.66666666666667,
              "duration": 0.010416666666666666
            },
            {
              "pitch": 59,
              "velocity": 65,
              "position": 106,
              "duration": 0.010416666666666666
            },
            {
              "pitch": 38,
              "velocity": 48,
              "position": 106.66666666666667,
              "duration": 0.010416666666666666
            },
            {
              "pitch": 44,
              "velocity": 75,
              "position": 107,
              "duration": 0.010416666666666666
            },
            {
              "pitch": 59,
              "velocity": 63,
              "position": 107,
              "duration": 0.010416666666666666
            },
            {
              "pitch": 59,
              "velocity": 22,
              "position": 107.66666666666667,
              "duration": 0.010416666666666666
            },
            {
              "pitch": 33,
              "velocity": 66,
              "position": 108,
              "duration": 0.010416666666666666
            },
            {
              "pitch": 59,
              "velocity": 68,
              "position": 108,
              "duration": 0.010416666666666666
            },
            {
              "pitch": 44,
              "velocity": 69,
              "position": 109,
              "duration": 0.010416666666666666
            },
            {
              "pitch": 59,
              "velocity": 77,
              "position": 109,
              "duration": 0.010416666666666666
            },
            {
              "pitch": 38,
              "velocity": 35,
              "position": 109.66666666666667,
              "duration": 0.010416666666666666
            },
            {
              "pitch": 59,
              "velocity": 33,
              "position": 109.66666666666667,
              "duration": 0.010416666666666666
            },
            {
              "pitch": 59,
              "velocity": 65,
              "position": 110,
              "duration": 0.010416666666666666
            },
            {
              "pitch": 33,
              "velocity": 62,
              "position": 111,
              "duration": 0.010416666666666666
            },
            {
              "pitch": 44,
              "velocity": 68,
              "position": 111,
              "duration": 0.010416666666666666
            },
            {
              "pitch": 59,
              "velocity": 65,
              "position": 111,
              "duration": 0.010416666666666666
            },
            {
              "pitch": 59,
              "velocity": 19,
              "position": 111.66666666666667,
              "duration": 0.010416666666666666
            },
            {
              "pitch": 44,
              "velocity": 75,
              "position": 113,
              "duration": 0.010416666666666666
            },
            {
              "pitch": 44,
              "velocity": 66,
              "position": 115,
              "duration": 0.010416666666666666
            },
            {
              "pitch": 44,
              "velocity": 69,
              "position": 117,
              "duration": 0.010416666666666666
            },
            {
              "pitch": 44,
              "velocity": 68,
              "position": 119,
              "duration": 0.010416666666666666
            },
            {
              "pitch": 44,
              "velocity": 76,
              "position": 121,
              "duration": 0.010416666666666666
            },
            {
              "pitch": 44,
              "velocity": 75,
              "position": 123,
              "duration": 0.010416666666666666
            },
            {
              "pitch": 44,
              "velocity": 69,
              "position": 125,
              "duration": 0.010416666666666666
            },
            {
              "pitch": 44,
              "velocity": 68,
              "position": 127,
              "duration": 0.010416666666666666
            }
          ]
        }
      }
    },
    "Fill_In_AA": {
      "type": "Fill_In_AA",
      "sizeInBeats": 4,
      "channels": {
        "0": {
          "ctab": {
            "srcChannel": 0,
            "name": "Bass mM7",
            "accType": "BASS",
            "editable": false,
            "mutedNotes": [],
            "mutedChords": [
              "1+2+5",
              "7aug",
              "Maj7aug",
              "7(#9)",
              "7(b13)",
              "7(b9)",
              "7(13)",
              "7#11",
              "7(9)",
              "7b5",
              "7th",
              "dim7",
              "dim",
              "min7(11)",
              "min7(9)",
              "min(9)",
              "m7b5",
              "min7",
              "min6",
              "min",
              "aug",
              "Maj6(9)",
              "Maj7(9)",
              "Maj(9)",
              "Maj7#11",
              "Maj7",
              "Maj6",
              "Maj"
            ],
            "autoStart": false,
            "sourceChordNote": 0,
            "sourceChordType": "Maj7",
            "ctb2Low": null,
            "ctb2Main": {
              "ntr": "ROOT_TRANSPOSITION",
              "ntt": "MELODY",
              "bassOn": true,
              "chordRootUpperLimit": 4,
              "noteLowLimit": 28,
              "noteHighLimit": 127,
              "rtr": "PITCH_SHIFT_TO_ROOT"
            },
            "ctb2High": null
          },
          "notes": [
            {
              "pitch": 40,
              "velocity": 60,
              "position": 0,
              "duration": 0.8958333333333334
            },
            {
              "pitch": 38,
              "velocity": 60,
              "position": 1,
              "duration": 0.8958333333333334
            },
            {
              "pitch": 36,
              "velocity": 60,
              "position": 2,
              "duration": 0.8958333333333334
            },
            {
              "pitch": 43,
              "velocity": 60,
              "position": 3,
              "duration": 0.8958333333333334
            }
          ]
        },
        "1": {
          "ctab": {
            "srcChannel": 1,
            "name": "Bass",
            "accType": "BASS",
            "editable": false,
            "mutedNotes": [],
            "mutedChords": [
              "sus4",
              "1+5",
              "1+8",
              "7aug",
              "7(#9)",
              "7(b13)",
              "7(b9)",
              "7(13)",
              "7#11",
              "7(9)",
              "7b5",
              "7sus4",
              "7th",
              "dim7",
              "minMaj7(9)",
              "minMaj7",
              "min7(11)",
              "min7(9)",
              "min(9)",
              "m7b5",
              "min7"
            ],
            "autoStart": false,
            "sourceChordNote": 0,
            "sourceChordType": "Maj7",
            "ctb2Low": null,
            "ctb2Main": {
              "ntr": "ROOT_TRANSPOSITION",
              "ntt": "DORIAN_5",
              "bassOn": true,
              "chordRootUpperLimit": 4,
              "noteLowLimit": 28,
              "noteHighLimit": 127,
              "rtr": "PITCH_SHIFT_TO_ROOT"
            },
            "ctb2High": null
          },
          "notes": [
            {
              "pitch": 48,
              "velocity": 60,
              "position": 0,
              "duration": 0.8958333333333334
            },
            {
              "pitch": 45,
              "velocity": 60,
              "position": 1,
              "duration": 0.8958333333333334
            },
            {
              "pitch": 43,
              "velocity": 60,
              "position": 2,
              "duration": 0.8958333333333334
            },
            {
              "pitch": 40,
              "velocity": 60,
              "position": 3,
              "duration": 0.8958333333333334
            }
          ]
        },
        "2": {
          "ctab": {
            "srcChannel": 2,
            "name": "Bass 7",
            "accType": "BASS",
            "editable": false,
            "mutedNotes": [],
            "mutedChords": [
              "1+2+5",
              "sus4",
              "1+5",
              "1+8",
              "Maj7aug",
              "7sus4",
              "dim",
              "minMaj7(9)",
              "minMaj7",
              "min6",
              "min",
              "aug",
              "Maj6(9)",
              "Maj7(9)",
              "Maj(9)",
              "Maj7#11",
              "Maj7",
              "Maj6",
              "Maj"
            ],
            "autoStart": false,
            "sourceChordNote": 0,
            "sourceChordType": "Maj7",
            "ctb2Low": null,
            "ctb2Main": {
              "ntr": "ROOT_TRANSPOSITION",
              "ntt": "DORIAN_5",
              "bassOn": true,
              "chordRootUpperLimit": 4,
              "noteLowLimit": 28,
              "noteHighLimit": 127,
              "rtr": "PITCH_SHIFT_TO_ROOT"
            },
            "ctb2High": null
          },
          "notes": [
            {
              "pitch": 48,
              "velocity": 60,
              "position": 0,
              "duration": 0.8958333333333334
            },
            {
              "pitch": 46,
              "velocity": 60,
              "position": 1,
              "duration": 0.8958333333333334
            },
            {
              "pitch": 43,
              "velocity": 60,
              "position": 2,
              "duration": 0.8958333333333334
            },
            {
              "pitch": 40,
              "velocity": 60,
              "position": 3,
              "duration": 0.8958333333333334
            }
          ]
        },
        "3": {
          "ctab": {
            "srcChannel": 3,
            "name": "PfLH",
            "accType": "CHORD1",
            "editable": false,
            "mutedNotes": [],
            "mutedChords": [],
            "autoStart": false,
            "sourceChordNote": 0,
            "sourceChordType": "Maj7",
            "ctb2Low": null,
            "ctb2Main": {
              "ntr": "ROOT_TRANSPOSITION",
              "ntt": "CHORD",
              "bassOn": false,
              "chordRootUpperLimit": 8,
              "noteLowLimit": 54,
              "noteHighLimit": 65,
              "rtr": "PITCH_SHIFT"
            },
            "ctb2High": null
          },
          "notes": [
            {
              "pitch": 59,
              "velocity": 46,
              "position": 0.6666666666666666,
              "duration": 0.3125
            },
            {
              "pitch": 64,
              "velocity": 56,
              "position": 0.6666666666666666,
              "duration": 0.3229166666666667
            },
            {
              "pitch": 55,
              "velocity": 47,
              "position": 0.6666666666666666,
              "duration": 0.3333333333333333
            },
            {
              "pitch": 59,
              "velocity": 57,
              "position": 1.6666666666666667,
              "duration": 1.9791666666666667
            },
            {
              "pitch": 64,
              "velocity": 67,
              "position": 1.6666666666666667,
              "duration": 1.9895833333333333
            },
            {
              "pitch": 55,
              "velocity": 58,
              "position": 1.6666666666666667,
              "duration": 2
            }
          ]
        },
        "4": {
          "ctab": {
            "srcChannel": 4,
            "name": "PfRH",
            "accType": "CHORD2",
            "editable": false,
            "mutedNotes": [],
            "mutedChords": [
              "7(13)",
              "7(9)",
              "7b5",
              "7th",
              "min7(9)",
              "min(9)",
              "min6",
              "min",
              "Maj6(9)",
              "Maj7(9)",
              "Maj(9)",
              "Maj7",
              "Maj6",
              "Maj"
            ],
            "autoStart": false,
            "sourceChordNote": 0,
            "sourceChordType": "Maj7",
            "ctb2Low": null,
            "ctb2Main": {
              "ntr": "ROOT_TRANSPOSITION",
              "ntt": "CHORD",
              "bassOn": false,
              "chordRootUpperLimit": 6,
              "noteLowLimit": 67,
              "noteHighLimit": 84,
              "rtr": "PITCH_SHIFT"
            },
            "ctb2High": null
          },
          "notes": [
            {
              "pitch": 71,
              "velocity": 51,
              "position": 0.6666666666666666,
              "duration": 0.3020833333333333
            },
            {
              "pitch": 67,
              "velocity": 61,
              "position": 0.6666666666666666,
              "duration": 0.3229166666666667
            },
            {
              "pitch": 71,
              "velocity": 72,
              "position": 1.6666666666666667,
              "duration": 1.9895833333333333
            },
            {
              "pitch": 76,
              "velocity": 85,
              "position": 1.6666666666666667,
              "duration": 1.9895833333333333
            },
            {
              "pitch": 79,
              "velocity": 78,
              "position": 1.6666666666666667,
              "duration": 1.9895833333333333
            }
          ]
        },
        "5": {
          "ctab": {
            "srcChannel": 5,
            "name": "PfRH Maj",
            "accType": "CHORD2",
            "editable": false,
            "mutedNotes": [],
            "mutedChords": [
              "1+2+5",
              "sus4",
              "1+5",
              "1+8",
              "7aug",
              "Maj7aug",
              "7(#9)",
              "7(b13)",
              "7(b9)",
              "7(13)",
              "7#11",
              "7(9)",
              "7b5",
              "7sus4",
              "7th",
              "dim7",
              "dim",
              "minMaj7(9)",
              "minMaj7",
              "min7(11)",
              "min7(9)",
              "min(9)",
              "m7b5",
              "min7",
              "min6",
              "min",
              "aug",
              "Maj7#11"
            ],
            "autoStart": false,
            "sourceChordNote": 0,
            "sourceChordType": "Maj7",
            "ctb2Low": null,
            "ctb2Main": {
              "ntr": "ROOT_TRANSPOSITION",
              "ntt": "DORIAN_5",
              "bassOn": false,
              "chordRootUpperLimit": 6,
              "noteLowLimit": 67,
              "noteHighLimit": 79,
              "rtr": "PITCH_SHIFT"
            },
            "ctb2High": null
          },
          "notes": [
            {
              "pitch": 71,
              "velocity": 52,
              "position": 0.6666666666666666,
              "duration": 0.3020833333333333
            },
            {
              "pitch": 67,
              "velocity": 61,
              "position": 0.6666666666666666,
              "duration": 0.3229166666666667
            },
            {
              "pitch": 79,
              "velocity": 83,
              "position": 1.6666666666666667,
              "duration": 1.96875
            },
            {
              "pitch": 74,
              "velocity": 79,
              "position": 1.6666666666666667,
              "duration": 1.9791666666666667
            },
            {
              "pitch": 71,
              "velocity": 82,
              "position": 1.6666666666666667,
              "duration": 2
            }
          ]
        },
        "6": {
          "ctab": {
            "srcChannel": 6,
            "name": "PfRH min",
            "accType": "CHORD2",
            "editable": false,
            "mutedNotes": [],
            "mutedChords": [
              "1+2+5",
              "sus4",
              "1+5",
              "1+8",
              "7aug",
              "Maj7aug",
              "7(#9)",
              "7(b13)",
              "7(b9)",
              "7(13)",
              "7#11",
              "7(9)",
              "7b5",
              "7sus4",
              "7th",
              "dim7",
              "dim",
              "minMaj7(9)",
              "minMaj7",
              "min7(11)",
              "min7(9)",
              "min(9)",
              "m7b5",
              "min7",
              "aug",
              "Maj6(9)",
              "Maj7(9)",
              "Maj(9)",
              "Maj7#11",
              "Maj7",
              "Maj6",
              "Maj"
            ],
            "autoStart": false,
            "sourceChordNote": 0,
            "sourceChordType": "Maj7",
            "ctb2Low": null,
            "ctb2Main": {
              "ntr": "ROOT_TRANSPOSITION",
              "ntt": "DORIAN_5",
              "bassOn": false,
              "chordRootUpperLimit": 6,
              "noteLowLimit": 67,
              "noteHighLimit": 79,
              "rtr": "PITCH_SHIFT"
            },
            "ctb2High": null
          },
          "notes": [
            {
              "pitch": 69,
              "velocity": 58,
              "position": 0.6666666666666666,
              "duration": 0.3125
            },
            {
              "pitch": 72,
              "velocity": 58,
              "position": 0.6666666666666666,
              "duration": 0.3333333333333333
            },
            {
              "pitch": 76,
              "velocity": 88,
              "position": 1.6666666666666667,
              "duration": 1.96875
            },
            {
              "pitch": 70,
              "velocity": 76,
              "position": 1.6666666666666667,
              "duration": 1.9895833333333333
            }
          ]
        },
        "7": {
          "ctab": {
            "srcChannel": 7,
            "name": "PfRH 7th",
            "accType": "CHORD2",
            "editable": false,
            "mutedNotes": [],
            "mutedChords": [
              "1+2+5",
              "sus4",
              "1+5",
              "1+8",
              "7aug",
              "Maj7aug",
              "7(#9)",
              "7(b13)",
              "7(b9)",
              "7#11",
              "7sus4",
              "dim7",
              "dim",
              "minMaj7(9)",
              "minMaj7",
              "min7(11)",
              "m7b5",
              "min7",
              "min6",
              "min",
              "aug",
              "Maj6(9)",
              "Maj7(9)",
              "Maj(9)",
              "Maj7#11",
              "Maj7",
              "Maj6",
              "Maj"
            ],
            "autoStart": false,
            "sourceChordNote": 0,
            "sourceChordType": "Maj7",
            "ctb2Low": null,
            "ctb2Main": {
              "ntr": "ROOT_TRANSPOSITION",
              "ntt": "DORIAN_5",
              "bassOn": false,
              "chordRootUpperLimit": 6,
              "noteLowLimit": 67,
              "noteHighLimit": 79,
              "rtr": "PITCH_SHIFT"
            },
            "ctb2High": null
          },
          "notes": [
            {
              "pitch": 74,
              "velocity": 71,
              "position": 0.6666666666666666,
              "duration": 0.3020833333333333
            },
            {
              "pitch": 69,
              "velocity": 58,
              "position": 0.6666666666666666,
              "duration": 0.3333333333333333
            },
            {
              "pitch": 74,
              "velocity": 77,
              "position": 1.6666666666666667,
              "duration": 1.96875
            },
            {
              "pitch": 70,
              "velocity": 84,
              "position": 1.6666666666666667,
              "duration": 1.9895833333333333
            },
            {
              "pitch": 79,
              "velocity": 83,
              "position": 1.6666666666666667,
              "duration": 1.9895833333333333
            },
            {
              "pitch": 84,
              "velocity": 81,
              "position": 1.6666666666666667,
              "duration": 1.9895833333333333
            }
          ]
        },
        "8": {
          "ctab": {
            "srcChannel": 8,
            "name": "DrSolo",
            "accType": "SUBRHYTHM",
            "editable": false,
            "mutedNotes": [],
            "mutedChords": [],
            "autoStart": true,
            "sourceChordNote": 0,
            "sourceChordType": "Maj7",
            "ctb2Low": null,
            "ctb2Main": {
              "ntr": "ROOT_FIXED",
              "ntt": "BYPASS",
              "bassOn": false,
              "chordRootUpperLimit": 6,
              "noteLowLimit": 0,
              "noteHighLimit": 127,
              "rtr": "PITCH_SHIFT"
            },
            "ctb2High": null
          },
          "notes": []
        },
        "9": {
          "ctab": {
            "srcChannel": 9,
            "name": "Drs",
            "accType": "RHYTHM",
            "editable": false,
            "mutedNotes": [],
            "mutedChords": [],
            "autoStart": true,
            "sourceChordNote": 0,
            "sourceChordType": "Maj7",
            "ctb2Low": null,
            "ctb2Main": {
              "ntr": "ROOT_FIXED",
              "ntt": "BYPASS",
              "bassOn": false,
              "chordRootUpperLimit": 6,
              "noteLowLimit": 0,
              "noteHighLimit": 127,
              "rtr": "PITCH_SHIFT"
            },
            "ctb2High": null
          },
          "notes": [
            {
              "pitch": 46,
              "velocity": 70,
              "position": 0,
              "duration": 0.010416666666666666
            },
            {
              "pitch": 38,
              "velocity": 32,
              "position": 0.6666666666666666,
              "duration": 0.010416666666666666
            },
            {
              "pitch": 46,
              "velocity": 47,
              "position": 1,
              "duration": 0.010416666666666666
            },
            {
              "pitch": 38,
              "velocity": 89,
              "position": 1.6666666666666667,
              "duration": 0.010416666666666666
            },
            {
              "pitch": 52,
              "velocity": 39,
              "position": 1.6666666666666667,
              "duration": 0.010416666666666666
            },
            {
              "pitch": 59,
              "velocity": 115,
              "position": 1.6666666666666667,
              "duration": 0.010416666666666666
            },
            {
              "pitch": 46,
              "velocity": 47,
              "position": 2,
              "duration": 0.010416666666666666
            },
            {
              "pitch": 38,
              "velocity": 32,
              "position": 2.6666666666666665,
              "duration": 0.010416666666666666
            },
            {
              "pitch": 46,
              "velocity": 70,
              "position": 3,
              "duration": 0.010416666666666666
            },
            {
              "pitch": 33,
              "velocity": 32,
              "position": 3.6666666666666665,
              "duration": 0.010416666666666666
            }
          ]
        }
      }
    },
    "Fill_In_BB": {
      "type": "Fill_In_BB",
      "sizeInBeats": 4,
      "channels": {
        "0": {
          "ctab": {
            "srcChannel": 0,
            "name": "Bass mM7",
            "accType": "BASS",
            "editable": false,
            "mutedNotes": [],
            "mutedChords": [
              "1+2+5",
              "7aug",
              "Maj7aug",
              "7(#9)",
              "7(b13)",
              "7(b9)",
              "7(13)",
              "7#11",
              "7(9)",
              "7b5",
              "7th",
              "dim7",
              "dim",
              "min7(11)",
              "min7(9)",
              "min(9)",
              "m7b5",
              "min7",
              "min6",
              "min",
              "aug",
              "Maj6(9)",
              "Maj7(9)",
              "Maj(9)",
              "Maj7#11",
              "Maj7",
              "Maj6",
              "Maj"
            ],
            "autoStart": false,
            "sourceChordNote": 0,
            "sourceChordType": "Maj7",
            "ctb2Low": null,
            "ctb2Main": {
              "ntr": "ROOT_TRANSPOSITION",
              "ntt": "MELODY",
              "bassOn": true,
              "chordRootUpperLimit": 4,
              "noteLowLimit": 28,
              "noteHighLimit": 127,
              "rtr": "PITCH_SHIFT_TO_ROOT"
            },
            "ctb2High": null
          },
          "notes": [
            {
              "pitch": 48,
              "velocity": 60,
              "position": 0,
              "duration": 0.9895833333333334
            },
            {
              "pitch": 43,
              "velocity": 60,
              "position": 1,
              "duration": 0.9895833333333334
            },
            {
              "pitch": 40,
              "velocity": 60,
              "position": 2,
              "duration": 0.9895833333333334
            },
            {
              "pitch": 43,
              "velocity": 60,
              "position": 3,
              "duration": 0.9895833333333334
            }
          ]
        },
        "1": {
          "ctab": {
            "srcChannel": 1,
            "name": "Bass",
            "accType": "BASS",
            "editable": false,
            "mutedNotes": [],
            "mutedChords": [
              "sus4",
              "1+5",
              "1+8",
              "7aug",
              "7(#9)",
              "7(b13)",
              "7(b9)",
              "7(13)",
              "7#11",
              "7(9)",
              "7b5",
              "7sus4",
              "7th",
              "dim7",
              "minMaj7(9)",
              "minMaj7",
              "min7(11)",
              "min7(9)",
              "min(9)",
              "m7b5",
              "min7"
            ],
            "autoStart": false,
            "sourceChordNote": 0,
            "sourceChordType": "Maj7",
            "ctb2Low": null,
            "ctb2Main": {
              "ntr": "ROOT_TRANSPOSITION",
              "ntt": "DORIAN_5",
              "bassOn": true,
              "chordRootUpperLimit": 4,
              "noteLowLimit": 28,
              "noteHighLimit": 127,
              "rtr": "PITCH_SHIFT_TO_ROOT"
            },
            "ctb2High": null
          },
          "notes": [
            {
              "pitch": 45,
              "velocity": 60,
              "position": 0,
              "duration": 0.9895833333333334
            },
            {
              "pitch": 43,
              "velocity": 60,
              "position": 1,
              "duration": 0.9895833333333334
            },
            {
              "pitch": 40,
              "velocity": 60,
              "position": 2,
              "duration": 0.9895833333333334
            },
            {
              "pitch": 43,
              "velocity": 60,
              "position": 3,
              "duration": 0.9895833333333334
            }
          ]
        },
        "2": {
          "ctab": {
            "srcChannel": 2,
            "name": "Bass 7",
            "accType": "BASS",
            "editable": false,
            "mutedNotes": [],
            "mutedChords": [
              "1+2+5",
              "sus4",
              "1+5",
              "1+8",
              "Maj7aug",
              "7sus4",
              "dim",
              "minMaj7(9)",
              "minMaj7",
              "min6",
              "min",
              "aug",
              "Maj6(9)",
              "Maj7(9)",
              "Maj(9)",
              "Maj7#11",
              "Maj7",
              "Maj6",
              "Maj"
            ],
            "autoStart": false,
            "sourceChordNote": 0,
            "sourceChordType": "Maj7",
            "ctb2Low": null,
            "ctb2Main": {
              "ntr": "ROOT_TRANSPOSITION",
              "ntt": "DORIAN_5",
              "bassOn": true,
              "chordRootUpperLimit": 4,
              "noteLowLimit": 28,
              "noteHighLimit": 127,
              "rtr": "PITCH_SHIFT_TO_ROOT"
            },
            "ctb2High": null
          },
          "notes": [
            {
              "pitch": 48,
              "velocity": 60,
              "position": 0,
              "duration": 0.9895833333333334
            },
            {
              "pitch": 43,
              "velocity": 60,
              "position": 1,
              "duration": 0.9895833333333334
            },
            {
              "pitch": 46,
              "velocity": 60,
              "position": 2,
              "duration": 0.9895833333333334
            },
            {
              "pitch": 43,
              "velocity": 60,
              "position": 3,
              "duration": 0.9895833333333334
            }
          ]
        },
        "3": {
          "ctab": {
            "srcChannel": 3,
            "name": "PfLH",
            "accType": "CHORD1",
            "editable": false,
            "mutedNotes": [],
            "mutedChords": [],
            "autoStart": false,
            "sourceChordNote": 0,
            "sourceChordType": "Maj7",
            "ctb2Low": null,
            "ctb2Main": {
              "ntr": "ROOT_TRANSPOSITION",
              "ntt": "CHORD",
              "bassOn": false,
              "chordRootUpperLimit": 8,
              "noteLowLimit": 54,
              "noteHighLimit": 65,
              "rtr": "PITCH_SHIFT"
            },
            "ctb2High": null
          },
          "notes": [
            {
              "pitch": 64,
              "velocity": 48,
              "position": 0,
              "duration": 0.3020833333333333
            },
            {
              "pitch": 55,
              "velocity": 50,
              "position": 0,
              "duration": 0.3229166666666667
            },
            {
              "pitch": 59,
              "velocity": 50,
              "position": 0,
              "duration": 0.3229166666666667
            },
            {
              "pitch": 55,
              "velocity": 60,
              "position": 1.6666666666666667,
              "duration": 1.96875
            },
            {
              "pitch": 59,
              "velocity": 60,
              "position": 1.6666666666666667,
              "duration": 1.96875
            },
            {
              "pitch": 64,
              "velocity": 68,
              "position": 1.6666666666666667,
              "duration": 1.9895833333333333
            }
          ]
        },
        "4": {
          "ctab": {
            "srcChannel": 4,
            "name": "PfRH",
            "accType": "CHORD2",
            "editable": false,
            "mutedNotes": [],
            "mutedChords": [
              "7(13)",
              "7(9)",
              "7b5",
              "7th",
              "min7(9)",
              "min(9)",
              "min6",
              "min",
              "Maj6(9)",
              "Maj7(9)",
              "Maj(9)",
              "Maj7",
              "Maj6",
              "Maj"
            ],
            "autoStart": false,
            "sourceChordNote": 0,
            "sourceChordType": "Maj7",
            "ctb2Low": null,
            "ctb2Main": {
              "ntr": "ROOT_TRANSPOSITION",
              "ntt": "CHORD",
              "bassOn": false,
              "chordRootUpperLimit": 6,
              "noteLowLimit": 67,
              "noteHighLimit": 84,
              "rtr": "PITCH_SHIFT"
            },
            "ctb2High": null
          },
          "notes": [
            {
              "pitch": 71,
              "velocity": 79,
              "position": 0,
              "duration": 0.3125
            },
            {
              "pitch": 76,
              "velocity": 67,
              "position": 0,
              "duration": 0.3125
            },
            {
              "pitch": 79,
              "velocity": 75,
              "position": 0,
              "duration": 0.3229166666666667
            },
            {
              "pitch": 71,
              "velocity": 84,
              "position": 1.6666666666666667,
              "duration": 1.9791666666666667
            },
            {
              "pitch": 79,
              "velocity": 87,
              "position": 1.6666666666666667,
              "duration": 1.9895833333333333
            },
            {
              "pitch": 76,
              "velocity": 75,
              "position": 1.6666666666666667,
              "duration": 2
            }
          ]
        },
        "5": {
          "ctab": {
            "srcChannel": 5,
            "name": "PfRH Maj",
            "accType": "CHORD2",
            "editable": false,
            "mutedNotes": [],
            "mutedChords": [
              "1+2+5",
              "sus4",
              "1+5",
              "1+8",
              "7aug",
              "Maj7aug",
              "7(#9)",
              "7(b13)",
              "7(b9)",
              "7(13)",
              "7#11",
              "7(9)",
              "7b5",
              "7sus4",
              "7th",
              "dim7",
              "dim",
              "minMaj7(9)",
              "minMaj7",
              "min7(11)",
              "min7(9)",
              "min(9)",
              "m7b5",
              "min7",
              "min6",
              "min",
              "aug",
              "Maj7#11"
            ],
            "autoStart": false,
            "sourceChordNote": 0,
            "sourceChordType": "Maj7",
            "ctb2Low": null,
            "ctb2Main": {
              "ntr": "ROOT_TRANSPOSITION",
              "ntt": "DORIAN_5",
              "bassOn": false,
              "chordRootUpperLimit": 6,
              "noteLowLimit": 67,
              "noteHighLimit": 79,
              "rtr": "PITCH_SHIFT"
            },
            "ctb2High": null
          },
          "notes": [
            {
              "pitch": 71,
              "velocity": 79,
              "position": 0,
              "duration": 0.3125
            },
            {
              "pitch": 76,
              "velocity": 67,
              "position": 0,
              "duration": 0.3125
            },
            {
              "pitch": 81,
              "velocity": 75,
              "position": 0,
              "duration": 0.3229166666666667
            },
            {
              "pitch": 71,
              "velocity": 84,
              "position": 1.6666666666666667,
              "duration": 1.9791666666666667
            },
            {
              "pitch": 81,
              "velocity": 87,
              "position": 1.6666666666666667,
              "duration": 1.9895833333333333
            },
            {
              "pitch": 76,
              "velocity": 75,
              "position": 1.6666666666666667,
              "duration": 2
            }
          ]
        },
        "6": {
          "ctab": {
            "srcChannel": 6,
            "name": "PfRH min",
            "accType": "CHORD2",
            "editable": false,
            "mutedNotes": [],
            "mutedChords": [
              "1+2+5",
              "sus4",
              "1+5",
              "1+8",
              "7aug",
              "Maj7aug",
              "7(#9)",
              "7(b13)",
              "7(b9)",
              "7(13)",
              "7#11",
              "7(9)",
              "7b5",
              "7sus4",
              "7th",
              "dim7",
              "dim",
              "minMaj7(9)",
              "minMaj7",
              "min7(11)",
              "min7(9)",
              "min(9)",
              "m7b5",
              "min7",
              "aug",
              "Maj6(9)",
              "Maj7(9)",
              "Maj(9)",
              "Maj7#11",
              "Maj7",
              "Maj6",
              "Maj"
            ],
            "autoStart": false,
            "sourceChordNote": 0,
            "sourceChordType": "Maj7",
            "ctb2Low": null,
            "ctb2Main": {
              "ntr": "ROOT_TRANSPOSITION",
              "ntt": "DORIAN_5",
              "bassOn": false,
              "chordRootUpperLimit": 6,
              "noteLowLimit": 67,
              "noteHighLimit": 79,
              "rtr": "PITCH_SHIFT"
            },
            "ctb2High": null
          },
          "notes": [
            {
              "pitch": 72,
              "velocity": 79,
              "position": 0,
              "duration": 0.3125
            },
            {
              "pitch": 76,
              "velocity": 67,
              "position": 0,
              "duration": 0.3125
            },
            {
              "pitch": 81,
              "velocity": 75,
              "position": 0,
              "duration": 0.3229166666666667
            },
            {
              "pitch": 72,
              "velocity": 84,
              "position": 1.6666666666666667,
              "duration": 1.9791666666666667
            },
            {
              "pitch": 81,
              "velocity": 87,
              "position": 1.6666666666666667,
              "duration": 1.9895833333333333
            },
            {
              "pitch": 76,
              "velocity": 75,
              "position": 1.6666666666666667,
              "duration": 2
            }
          ]
        },
        "7": {
          "ctab": {
            "srcChannel": 7,
            "name": "PfRH 7th",
            "accType": "CHORD2",
            "editable": false,
            "mutedNotes": [],
            "mutedChords": [
              "1+2+5",
              "sus4",
              "1+5",
              "1+8",
              "7aug",
              "Maj7aug",
              "7(#9)",
              "7(b13)",
              "7(b9)",
              "7#11",
              "7sus4",
              "dim7",
              "dim",
              "minMaj7(9)",
              "minMaj7",
              "min7(11)",
              "m7b5",
              "min7",
              "min6",
              "min",
              "aug",
              "Maj6(9)",
              "Maj7(9)",
              "Maj(9)",
              "Maj7#11",
              "Maj7",
              "Maj6",
              "Maj"
            ],
            "autoStart": false,
            "sourceChordNote": 0,
            "sourceChordType": "Maj7",
            "ctb2Low": null,
            "ctb2Main": {
              "ntr": "ROOT_TRANSPOSITION",
              "ntt": "DORIAN_5",
              "bassOn": false,
              "chordRootUpperLimit": 6,
              "noteLowLimit": 67,
              "noteHighLimit": 79,
              "rtr": "PITCH_SHIFT"
            },
            "ctb2High": null
          },
          "notes": [
            {
              "pitch": 70,
              "velocity": 79,
              "position": 0,
              "duration": 0.3125
            },
            {
              "pitch": 76,
              "velocity": 67,
              "position": 0,
              "duration": 0.3125
            },
            {
              "pitch": 81,
              "velocity": 75,
              "position": 0,
              "duration": 0.3229166666666667
            },
            {
              "pitch": 70,
              "velocity": 84,
              "position": 1.6666666666666667,
              "duration": 1.9791666666666667
            },
            {
              "pitch": 81,
              "velocity": 87,
              "position": 1.6666666666666667,
              "duration": 1.9895833333333333
            },
            {
              "pitch": 76,
              "velocity": 75,
              "position": 1.6666666666666667,
              "duration": 2
            }
          ]
        },
        "8": {
          "ctab": {
            "srcChannel": 8,
            "name": "DrSolo",
            "accType": "SUBRHYTHM",
            "editable": false,
            "mutedNotes": [],
            "mutedChords": [],
            "autoStart": true,
            "sourceChordNote": 0,
            "sourceChordType": "Maj7",
            "ctb2Low": null,
            "ctb2Main": {
              "ntr": "ROOT_FIXED",
              "ntt": "BYPASS",
              "bassOn": false,
              "chordRootUpperLimit": 6,
              "noteLowLimit": 0,
              "noteHighLimit": 127,
              "rtr": "PITCH_SHIFT"
            },
            "ctb2High": null
          },
          "notes": []
        },
        "9": {
          "ctab": {
            "srcChannel": 9,
            "name": "Drs",
            "accType": "RHYTHM",
            "editable": false,
            "mutedNotes": [],
            "mutedChords": [],
            "autoStart": true,
            "sourceChordNote": 0,
            "sourceChordType": "Maj7",
            "ctb2Low": null,
            "ctb2Main": {
              "ntr": "ROOT_FIXED",
              "ntt": "BYPASS",
              "bassOn": false,
              "chordRootUpperLimit": 6,
              "noteLowLimit": 0,
              "noteHighLimit": 127,
              "rtr": "PITCH_SHIFT"
            },
            "ctb2High": null
          },
          "notes": [
            {
              "pitch": 52,
              "velocity": 26,
              "position": 0,
              "duration": 0.010416666666666666
            },
            {
              "pitch": 53,
              "velocity": 88,
              "position": 0,
              "duration": 0.010416666666666666
            },
            {
              "pitch": 59,
              "velocity": 115,
              "position": 0,
              "duration": 0.010416666666666666
            },
            {
              "pitch": 38,
              "velocity": 40,
              "position": 0.5416666666666666,
              "duration": 0.010416666666666666
            },
            {
              "pitch": 38,
              "velocity": 51,
              "position": 1,
              "duration": 0.010416666666666666
            },
            {
              "pitch": 44,
              "velocity": 59,
              "position": 1,
              "duration": 0.010416666666666666
            },
            {
              "pitch": 38,
              "velocity": 23,
              "position": 1.5416666666666667,
              "duration": 0.010416666666666666
            },
            {
              "pitch": 38,
              "velocity": 37,
              "position": 2,
              "duration": 0.010416666666666666
            },
            {
              "pitch": 38,
              "velocity": 88,
              "position": 2.5416666666666665,
              "duration": 0.010416666666666666
            },
            {
              "pitch": 46,
              "velocity": 61,
              "position": 3,
              "duration": 0.010416666666666666
            },
            {
              "pitch": 33,
              "velocity": 40,
              "position": 3.6666666666666665,
              "duration": 0.010416666666666666
            }
          ]
        }
      }
    },
    "Intro_A": {
      "type": "Intro_A",
      "sizeInBeats": 8,
      "channels": {
        "0": {
          "ctab": {
            "srcChannel": 0,
            "name": "Bass mM7",
            "accType": "BASS",
            "editable": false,
            "mutedNotes": [],
            "mutedChords": [
              "1+2+5",
              "7aug",
              "Maj7aug",
              "7(#9)",
              "7(b13)",
              "7(b9)",
              "7(13)",
              "7#11",
              "7(9)",
              "7b5",
              "7th",
              "dim7",
              "dim",
              "min7(11)",
              "min7(9)",
              "min(9)",
              "m7b5",
              "min7",
              "min6",
              "min",
              "aug",
              "Maj6(9)",
              "Maj7(9)",
              "Maj(9)",
              "Maj7#11",
              "Maj7",
              "Maj6",
              "Maj"
            ],
            "autoStart": false,
            "sourceChordNote": 0,
            "sourceChordType": "Maj7",
            "ctb2Low": null,
            "ctb2Main": {
              "ntr": "ROOT_TRANSPOSITION",
              "ntt": "MELODY",
              "bassOn": true,
              "chordRootUpperLimit": 4,
              "noteLowLimit": 28,
              "noteHighLimit": 127,
              "rtr": "PITCH_SHIFT_TO_ROOT"
            },
            "ctb2High": null
          },
          "notes": []
        },
        "1": {
          "ctab": {
            "srcChannel": 1,
            "name": "Bass",
            "accType": "BASS",
            "editable": false,
            "mutedNotes": [],
            "mutedChords": [
              "sus4",
              "1+5",
              "1+8",
              "7aug",
              "7(#9)",
              "7(b13)",
              "7(b9)",
              "7(13)",
              "7#11",
              "7(9)",
              "7b5",
              "7sus4",
              "7th",
              "dim7",
              "minMaj7(9)",
              "minMaj7",
              "min7(11)",
              "min7(9)",
              "min(9)",
              "m7b5",
              "min7"
            ],
            "autoStart": false,
            "sourceChordNote": 0,
            "sourceChordType": "Maj7",
            "ctb2Low": null,
            "ctb2Main": {
              "ntr": "ROOT_TRANSPOSITION",
              "ntt": "DORIAN_5",
              "bassOn": true,
              "chordRootUpperLimit": 4,
              "noteLowLimit": 28,
              "noteHighLimit": 127,
              "rtr": "PITCH_SHIFT_TO_ROOT"
            },
            "ctb2High": null
          },
          "notes": []
        },
        "2": {
          "ctab": {
            "srcChannel": 2,
            "name": "Bass 7",
            "accType": "BASS",
            "editable": false,
            "mutedNotes": [],
            "mutedChords": [
              "1+2+5",
              "sus4",
              "1+5",
              "1+8",
              "Maj7aug",
              "7sus4",
              "dim",
              "minMaj7(9)",
              "minMaj7",
              "min6",
              "min",
              "aug",
              "Maj6(9)",
              "Maj7(9)",
              "Maj(9)",
              "Maj7#11",
              "Maj7",
              "Maj6",
              "Maj"
            ],
            "autoStart": false,
            "sourceChordNote": 0,
            "sourceChordType": "Maj7",
            "ctb2Low": null,
            "ctb2Main": {
              "ntr": "ROOT_TRANSPOSITION",
              "ntt": "DORIAN_5",
              "bassOn": true,
              "chordRootUpperLimit": 4,
              "noteLowLimit": 28,
              "noteHighLimit": 127,
              "rtr": "PITCH_SHIFT_TO_ROOT"
            },
            "ctb2High": null
          },
          "notes": []
        },
        "3": {
          "ctab": {
            "srcChannel": 3,
            "name": "PfLH",
            "accType": "CHORD1",
            "editable": false,
            "mutedNotes": [],
            "mutedChords": [],
            "autoStart": false,
            "sourceChordNote": 0,
            "sourceChordType": "Maj7",
            "ctb2Low": null,
            "ctb2Main": {
              "ntr": "ROOT_TRANSPOSITION",
              "ntt": "CHORD",
              "bassOn": false,
              "chordRootUpperLimit": 8,
              "noteLowLimit": 54,
              "noteHighLimit": 65,
              "rtr": "PITCH_SHIFT"
            },
            "ctb2High": null
          },
          "notes": []
        },
        "4": {
          "ctab": {
            "srcChannel": 4,
            "name": "PfRH",
            "accType": "CHORD2",
            "editable": false,
            "mutedNotes": [],
            "mutedChords": [
              "7(13)",
              "7(9)",
              "7b5",
              "7th",
              "min7(9)",
              "min(9)",
              "min6",
              "min",
              "Maj6(9)",
              "Maj7(9)",
              "Maj(9)",
              "Maj7",
              "Maj6",
              "Maj"
            ],
            "autoStart": false,
            "sourceChordNote": 0,
            "sourceChordType": "Maj7",
            "ctb2Low": null,
            "ctb2Main": {
              "ntr": "ROOT_TRANSPOSITION",
              "ntt": "CHORD",
              "bassOn": false,
              "chordRootUpperLimit": 6,
              "noteLowLimit": 67,
              "noteHighLimit": 84,
              "rtr": "PITCH_SHIFT"
            },
            "ctb2High": null
          },
          "notes": []
        },
        "5": {
          "ctab": {
            "srcChannel": 5,
            "name": "PfRH Maj",
            "accType": "CHORD2",
            "editable": false,
            "mutedNotes": [],
            "mutedChords": [
              "1+2+5",
              "sus4",
              "1+5",
              "1+8",
              "7aug",
              "Maj7aug",
              "7(#9)",
              "7(b13)",
              "7(b9)",
              "7(13)",
              "7#11",
              "7(9)",
              "7b5",
              "7sus4",
              "7th",
              "dim7",
              "dim",
              "minMaj7(9)",
              "minMaj7",
              "min7(11)",
              "min7(9)",
              "min(9)",
              "m7b5",
              "min7",
              "min6",
              "min",
              "aug",
              "Maj7#11"
            ],
            "autoStart": false,
            "sourceChordNote": 0,
            "sourceChordType": "Maj7",
            "ctb2Low": null,
            "ctb2Main": {
              "ntr": "ROOT_TRANSPOSITION",
              "ntt": "DORIAN_5",
              "bassOn": false,
              "chordRootUpperLimit": 6,
              "noteLowLimit": 67,
              "noteHighLimit": 79,
              "rtr": "PITCH_SHIFT"
            },
            "ctb2High": null
          },
          "notes": []
        },
        "6": {
          "ctab": {
            "srcChannel": 6,
            "name": "PfRH min",
            "accType": "CHORD2",
            "editable": false,
            "mutedNotes": [],
            "mutedChords": [
              "1+2+5",
              "sus4",
              "1+5",
              "1+8",
              "7aug",
              "Maj7aug",
              "7(#9)",
              "7(b13)",
              "7(b9)",
              "7(13)",
              "7#11",
              "7(9)",
              "7b5",
              "7sus4",
              "7th",
              "dim7",
              "dim",
              "minMaj7(9)",
              "minMaj7",
              "min7(11)",
              "min7(9)",
              "min(9)",
              "m7b5",
              "min7",
              "aug",
              "Maj6(9)",
              "Maj7(9)",
              "Maj(9)",
              "Maj7#11",
              "Maj7",
              "Maj6",
              "Maj"
            ],
            "autoStart": false,
            "sourceChordNote": 0,
            "sourceChordType": "Maj7",
            "ctb2Low": null,
            "ctb2Main": {
              "ntr": "ROOT_TRANSPOSITION",
              "ntt": "DORIAN_5",
              "bassOn": false,
              "chordRootUpperLimit": 6,
              "noteLowLimit": 67,
              "noteHighLimit": 79,
              "rtr": "PITCH_SHIFT"
            },
            "ctb2High": null
          },
          "notes": []
        },
        "7": {
          "ctab": {
            "srcChannel": 7,
            "name": "PfRH 7th",
            "accType": "CHORD2",
            "editable": false,
            "mutedNotes": [],
            "mutedChords": [
              "1+2+5",
              "sus4",
              "1+5",
              "1+8",
              "7aug",
              "Maj7aug",
              "7(#9)",
              "7(b13)",
              "7(b9)",
              "7#11",
              "7sus4",
              "dim7",
              "dim",
              "minMaj7(9)",
              "minMaj7",
              "min7(11)",
              "m7b5",
              "min7",
              "min6",
              "min",
              "aug",
              "Maj6(9)",
              "Maj7(9)",
              "Maj(9)",
              "Maj7#11",
              "Maj7",
              "Maj6",
              "Maj"
            ],
            "autoStart": false,
            "sourceChordNote": 0,
            "sourceChordType": "Maj7",
            "ctb2Low": null,
            "ctb2Main": {
              "ntr": "ROOT_TRANSPOSITION",
              "ntt": "DORIAN_5",
              "bassOn": false,
              "chordRootUpperLimit": 6,
              "noteLowLimit": 67,
              "noteHighLimit": 79,
              "rtr": "PITCH_SHIFT"
            },
            "ctb2High": null
          },
          "notes": []
        },
        "8": {
          "ctab": {
            "srcChannel": 8,
            "name": "DrSolo",
            "accType": "SUBRHYTHM",
            "editable": false,
            "mutedNotes": [],
            "mutedChords": [],
            "autoStart": true,
            "sourceChordNote": 0,
            "sourceChordType": "Maj7",
            "ctb2Low": null,
            "ctb2Main": {
              "ntr": "ROOT_FIXED",
              "ntt": "BYPASS",
              "bassOn": false,
              "chordRootUpperLimit": 6,
              "noteLowLimit": 0,
              "noteHighLimit": 127,
              "rtr": "PITCH_SHIFT"
            },
            "ctb2High": null
          },
          "notes": []
        },
        "9": {
          "ctab": {
            "srcChannel": 9,
            "name": "Drs",
            "accType": "RHYTHM",
            "editable": false,
            "mutedNotes": [],
            "mutedChords": [],
            "autoStart": true,
            "sourceChordNote": 0,
            "sourceChordType": "Maj7",
            "ctb2Low": null,
            "ctb2Main": {
              "ntr": "ROOT_FIXED",
              "ntt": "BYPASS",
              "bassOn": false,
              "chordRootUpperLimit": 6,
              "noteLowLimit": 0,
              "noteHighLimit": 127,
              "rtr": "PITCH_SHIFT"
            },
            "ctb2High": null
          },
          "notes": [
            {
              "pitch": 46,
              "velocity": 70,
              "position": 0,
              "duration": 0.010416666666666666
            },
            {
              "pitch": 42,
              "velocity": 80,
              "position": 1,
              "duration": 0.010416666666666666
            },
            {
              "pitch": 46,
              "velocity": 38,
              "position": 1.625,
              "duration": 0.010416666666666666
            },
            {
              "pitch": 46,
              "velocity": 70,
              "position": 2,
              "duration": 0.010416666666666666
            },
            {
              "pitch": 42,
              "velocity": 75,
              "position": 3,
              "duration": 0.010416666666666666
            },
            {
              "pitch": 46,
              "velocity": 37,
              "position": 3.625,
              "duration": 0.010416666666666666
            },
            {
              "pitch": 46,
              "velocity": 70,
              "position": 4,
              "duration": 0.010416666666666666
            },
            {
              "pitch": 46,
              "velocity": 70,
              "position": 5,
              "duration": 0.010416666666666666
            },
            {
              "pitch": 46,
              "velocity": 70,
              "position": 6,
              "duration": 0.010416666666666666
            },
            {
              "pitch": 38,
              "velocity": 43,
              "position": 6.625,
              "duration": 0.010416666666666666
            },
            {
              "pitch": 38,
              "velocity": 80,
              "position": 7,
              "duration": 0.010416666666666666
            }
          ]
        }
      }
    },
    "Ending_A": {
      "type": "Ending_A",
      "sizeInBeats": 16,
      "channels": {
        "0": {
          "ctab": {
            "srcChannel": 0,
            "name": "Bass mM7",
            "accType": "BASS",
            "editable": false,
            "mutedNotes": [],
            "mutedChords": [
              "1+2+5",
              "7aug",
              "Maj7aug",
              "7(#9)",
              "7(b13)",
              "7(b9)",
              "7(13)",
              "7#11",
              "7(9)",
              "7b5",
              "7th",
              "dim7",
              "dim",
              "min7(11)",
              "min7(9)",
              "min(9)",
              "m7b5",
              "min7",
              "min6",
              "min",
              "aug",
              "Maj6(9)",
              "Maj7(9)",
              "Maj(9)",
              "Maj7#11",
              "Maj7",
              "Maj6",
              "Maj"
            ],
            "autoStart": false,
            "sourceChordNote": 0,
            "sourceChordType": "Maj7",
            "ctb2Low": null,
            "ctb2Main": {
              "ntr": "ROOT_TRANSPOSITION",
              "ntt": "MELODY",
              "bassOn": true,
              "chordRootUpperLimit": 4,
              "noteLowLimit": 28,
              "noteHighLimit": 127,
              "rtr": "PITCH_SHIFT_TO_ROOT"
            },
            "ctb2High": null
          },
          "notes": [
            {
              "pitch": 36,
              "velocity": 60,
              "position": 0,
              "duration": 15
            }
          ]
        },
        "1": {
          "ctab": {
            "srcChannel": 1,
            "name": "Bass",
            "accType": "BASS",
            "editable": false,
            "mutedNotes": [],
            "mutedChords": [
              "sus4",
              "1+5",
              "1+8",
              "7aug",
              "7(#9)",
              "7(b13)",
              "7(b9)",
              "7(13)",
              "7#11",
              "7(9)",
              "7b5",
              "7sus4",
              "7th",
              "dim7",
              "minMaj7(9)",
              "minMaj7",
              "min7(11)",
              "min7(9)",
              "min(9)",
              "m7b5",
              "min7"
            ],
            "autoStart": false,
            "sourceChordNote": 0,
            "sourceChordType": "Maj7",
            "ctb2Low": null,
            "ctb2Main": {
              "ntr": "ROOT_TRANSPOSITION",
              "ntt": "DORIAN_5",
              "bassOn": true,
              "chordRootUpperLimit": 4,
              "noteLowLimit": 28,
              "noteHighLimit": 127,
              "rtr": "PITCH_SHIFT_TO_ROOT"
            },
            "ctb2High": null
          },
          "notes": [
            {
              "pitch": 36,
              "velocity": 60,
              "position": 0,
              "duration": 15
            }
          ]
        },
        "2": {
          "ctab": {
            "srcChannel": 2,
            "name": "Bass 7",
            "accType": "BASS",
            "editable": false,
            "mutedNotes": [],
            "mutedChords": [
              "1+2+5",
              "sus4",
              "1+5",
              "1+8",
              "Maj7aug",
              "7sus4",
              "dim",
              "minMaj7(9)",
              "minMaj7",
              "min6",
              "min",
              "aug",
              "Maj6(9)",
              "Maj7(9)",
              "Maj(9)",
              "Maj7#11",
              "Maj7",
              "Maj6",
              "Maj"
            ],
            "autoStart": false,
            "sourceChordNote": 0,
            "sourceChordType": "Maj7",
            "ctb2Low": null,
            "ctb2Main": {
              "ntr": "ROOT_TRANSPOSITION",
              "ntt": "DORIAN_5",
              "bassOn": true,
              "chordRootUpperLimit": 4,
              "noteLowLimit": 28,
              "noteHighLimit": 127,
              "rtr": "PITCH_SHIFT_TO_ROOT"
            },
            "ctb2High": null
          },
          "notes": [
            {
              "pitch": 36,
              "velocity": 60,
              "position": 0,
              "duration": 15
            }
          ]
        },
        "3": {
          "ctab": {
            "srcChannel": 3,
            "name": "PfLH",
            "accType": "CHORD1",
            "editable": false,
            "mutedNotes": [],
            "mutedChords": [],
            "autoStart": false,
            "sourceChordNote": 0,
            "sourceChordType": "Maj7",
            "ctb2Low": null,
            "ctb2Main": {
              "ntr": "ROOT_TRANSPOSITION",
              "ntt": "CHORD",
              "bassOn": false,
              "chordRootUpperLimit": 8,
              "noteLowLimit": 54,
              "noteHighLimit": 65,
              "rtr": "PITCH_SHIFT"
            },
            "ctb2High": null
          },
          "notes": [
            {
              "pitch": 55,
              "velocity": 69,
              "position": 0,
              "duration": 15
            },
            {
              "pitch": 59,
              "velocity": 69,
              "position": 0,
              "duration": 15
            },
            {
              "pitch": 64,
              "velocity": 65,
              "position": 0,
              "duration": 15
            }
          ]
        },
        "4": {
          "ctab": {
            "srcChannel": 4,
            "name": "PfRH",
            "accType": "CHORD2",
            "editable": false,
            "mutedNotes": [],
            "mutedChords": [
              "7(13)",
              "7(9)",
              "7b5",
              "7th",
              "min7(9)",
              "min(9)",
              "min6",
              "min",
              "Maj6(9)",
              "Maj7(9)",
              "Maj(9)",
              "Maj7",
              "Maj6",
              "Maj"
            ],
            "autoStart": false,
            "sourceChordNote": 0,
            "sourceChordType": "Maj7",
            "ctb2Low": null,
            "ctb2Main": {
              "ntr": "ROOT_TRANSPOSITION",
              "ntt": "CHORD",
              "bassOn": false,
              "chordRootUpperLimit": 6,
              "noteLowLimit": 67,
              "noteHighLimit": 84,
              "rtr": "PITCH_SHIFT"
            },
            "ctb2High": null
          },
          "notes": [
            {
              "pitch": 71,
              "velocity": 85,
              "position": 0,
              "duration": 15
            },
            {
              "pitch": 76,
              "velocity": 82,
              "position": 0,
              "duration": 15
            },
            {
              "pitch": 79,
              "velocity": 83,
              "position": 0,
              "duration": 15
            }
          ]
        },
        "5": {
          "ctab": {
            "srcChannel": 5,
            "name": "PfRH Maj",
            "accType": "CHORD2",
            "editable": false,
            "mutedNotes": [],
            "mutedChords": [
              "1+2+5",
              "sus4",
              "1+5",
              "1+8",
              "7aug",
              "Maj7aug",
              "7(#9)",
              "7(b13)",
              "7(b9)",
              "7(13)",
              "7#11",
              "7(9)",
              "7b5",
              "7sus4",
              "7th",
              "dim7",
              "dim",
              "minMaj7(9)",
              "minMaj7",
              "min7(11)",
              "min7(9)",
              "min(9)",
              "m7b5",
              "min7",
              "min6",
              "min",
              "aug",
              "Maj7#11"
            ],
            "autoStart": false,
            "sourceChordNote": 0,
            "sourceChordType": "Maj7",
            "ctb2Low": null,
            "ctb2Main": {
              "ntr": "ROOT_TRANSPOSITION",
              "ntt": "DORIAN_5",
              "bassOn": false,
              "chordRootUpperLimit": 6,
              "noteLowLimit": 67,
              "noteHighLimit": 79,
              "rtr": "PITCH_SHIFT"
            },
            "ctb2High": null
          },
          "notes": [
            {
              "pitch": 69,
              "velocity": 84,
              "position": 0,
              "duration": 15
            },
            {
              "pitch": 74,
              "velocity": 88,
              "position": 0,
              "duration": 15
            },
            {
              "pitch": 79,
              "velocity": 88,
              "position": 0,
              "duration": 15
            },
            {
              "pitch": 83,
              "velocity": 88,
              "position": 0,
              "duration": 15
            }
          ]
        },
        "6": {
          "ctab": {
            "srcChannel": 6,
            "name": "PfRH min",
            "accType": "CHORD2",
            "editable": false,
            "mutedNotes": [],
            "mutedChords": [
              "1+2+5",
              "sus4",
              "1+5",
              "1+8",
              "7aug",
              "Maj7aug",
              "7(#9)",
              "7(b13)",
              "7(b9)",
              "7(13)",
              "7#11",
              "7(9)",
              "7b5",
              "7sus4",
              "7th",
              "dim7",
              "dim",
              "minMaj7(9)",
              "minMaj7",
              "min7(11)",
              "min7(9)",
              "min(9)",
              "m7b5",
              "min7",
              "aug",
              "Maj6(9)",
              "Maj7(9)",
              "Maj(9)",
              "Maj7#11",
              "Maj7",
              "Maj6",
              "Maj"
            ],
            "autoStart": false,
            "sourceChordNote": 0,
            "sourceChordType": "Maj7",
            "ctb2Low": null,
            "ctb2Main": {
              "ntr": "ROOT_TRANSPOSITION",
              "ntt": "DORIAN_5",
              "bassOn": false,
              "chordRootUpperLimit": 6,
              "noteLowLimit": 67,
              "noteHighLimit": 79,
              "rtr": "PITCH_SHIFT"
            },
            "ctb2High": null
          },
          "notes": [
            {
              "pitch": 69,
              "velocity": 85,
              "position": 0,
              "duration": 15
            },
            {
              "pitch": 74,
              "velocity": 85,
              "position": 0,
              "duration": 15
            },
            {
              "pitch": 79,
              "velocity": 82,
              "position": 0,
              "duration": 15
            },
            {
              "pitch": 84,
              "velocity": 83,
              "position": 0,
              "duration": 15
            }
          ]
        },
        "7": {
          "ctab": {
            "srcChannel": 7,
            "name": "PfRH 7th",
            "accType": "CHORD2",
            "editable": false,
            "mutedNotes": [],
            "mutedChords": [
              "1+2+5",
              "sus4",
              "1+5",
              "1+8",
              "7aug",
              "Maj7aug",
              "7(#9)",
              "7(b13)",
              "7(b9)",
              "7#11",
              "7sus4",
              "dim7",
              "dim",
              "minMaj7(9)",
              "minMaj7",
              "min7(11)",
              "m7b5",
              "min7",
              "min6",
              "min",
              "aug",
              "Maj6(9)",
              "Maj7(9)",
              "Maj(9)",
              "Maj7#11",
              "Maj7",
              "Maj6",
              "Maj"
            ],
            "autoStart": false,
            "sourceChordNote": 0,
            "sourceChordType": "Maj7",
            "ctb2Low": null,
            "ctb2Main": {
              "ntr": "ROOT_TRANSPOSITION",
              "ntt": "DORIAN_5",
              "bassOn": false,
              "chordRootUpperLimit": 6,
              "noteLowLimit": 67,
              "noteHighLimit": 79,
              "rtr": "PITCH_SHIFT"
            },
            "ctb2High": null
          },
          "notes": [
            {
              "pitch": 69,
              "velocity": 85,
              "position": 0,
              "duration": 15
            },
            {
              "pitch": 79,
              "velocity": 82,
              "position": 0,
              "duration": 15
            },
            {
              "pitch": 84,
              "velocity": 83,
              "position": 0,
              "duration": 15
            },
            {
              "pitch": 74,
              "velocity": 85,
              "position": 0.08333333333333333,
              "duration": 15
            }
          ]
        },
        "8": {
          "ctab": {
            "srcChannel": 8,
            "name": "DrSolo",
            "accType": "SUBRHYTHM",
            "editable": false,
            "mutedNotes": [],
            "mutedChords": [],
            "autoStart": true,
            "sourceChordNote": 0,
            "sourceChordType": "Maj7",
            "ctb2Low": null,
            "ctb2Main": {
              "ntr": "ROOT_FIXED",
              "ntt": "BYPASS",
              "bassOn": false,
              "chordRootUpperLimit": 6,
              "noteLowLimit": 0,
              "noteHighLimit": 127,
              "rtr": "PITCH_SHIFT"
            },
            "ctb2High": null
          },
          "notes": []
        },
        "9": {
          "ctab": {
            "srcChannel": 9,
            "name": "Drs",
            "accType": "RHYTHM",
            "editable": false,
            "mutedNotes": [],
            "mutedChords": [],
            "autoStart": true,
            "sourceChordNote": 0,
            "sourceChordType": "Maj7",
            "ctb2Low": null,
            "ctb2Main": {
              "ntr": "ROOT_FIXED",
              "ntt": "BYPASS",
              "bassOn": false,
              "chordRootUpperLimit": 6,
              "noteLowLimit": 0,
              "noteHighLimit": 127,
              "rtr": "PITCH_SHIFT"
            },
            "ctb2High": null
          },
          "notes": [
            {
              "pitch": 33,
              "velocity": 66,
              "position": 0,
              "duration": 0.010416666666666666
            },
            {
              "pitch": 59,
              "velocity": 115,
              "position": 0,
              "duration": 0.010416666666666666
            },
            {
              "pitch": 38,
              "velocity": 32,
              "position": 14.333333333333334,
              "duration": 0.010416666666666666
            },
            {
              "pitch": 38,
              "velocity": 20,
              "position": 14.666666666666666,
              "duration": 0.010416666666666666
            },
            {
              "pitch": 33,
              "velocity": 66,
              "position": 15,
              "duration": 0.010416666666666666
            },
            {
              "pitch": 44,
              "velocity": 66,
              "position": 15,
              "duration": 0.010416666666666666
            }
          ]
        }
      }
    },
    "Main_C": {
      "type": "Main_C",
      "sizeInBeats": 64,
      "channels": {
        "0": {
          "ctab": {
            "srcChannel": 0,
            "name": "BassRoot",
            "accType": "BASS",
            "editable": false,
            "mutedNotes": [],
            "mutedChords": [],
            "autoStart": false,
            "sourceChordNote": 0,
            "sourceChordType": "Maj7",
            "ctb2Low": null,
            "ctb2Main": {
              "ntr": "ROOT_TRANSPOSITION",
              "ntt": "MELODY",
              "bassOn": true,
              "chordRootUpperLimit": 3,
              "noteLowLimit": 28,
              "noteHighLimit": 127,
              "rtr": "PITCH_SHIFT_TO_ROOT"
            },
            "ctb2High": null
          },
          "notes": [
            {
              "pitch": 48,
              "velocity": 60,
              "position": 0,
              "duration": 1.65625
            },
            {
              "pitch": 48,
              "velocity": 70,
              "position": 31.583333333333332,
              "duration": 0.22916666666666666
            },
            {
              "pitch": 48,
              "velocity": 60,
              "position": 32,
              "duration": 1.65625
            }
          ]
        },
        "1": {
          "ctab": {
            "srcChannel": 1,
            "name": "Bs Rt/5",
            "accType": "BASS",
            "editable": false,
            "mutedNotes": [],
            "mutedChords": [],
            "autoStart": false,
            "sourceChordNote": 0,
            "sourceChordType": "min7(11)",
            "ctb2Low": null,
            "ctb2Main": {
              "ntr": "ROOT_FIXED",
              "ntt": "CHORD",
              "bassOn": true,
              "chordRootUpperLimit": 3,
              "noteLowLimit": 28,
              "noteHighLimit": 127,
              "rtr": "PITCH_SHIFT_TO_ROOT"
            },
            "ctb2High": null
          },
          "notes": [
            {
              "pitch": 31,
              "velocity": 60,
              "position": 1.5833333333333333,
              "duration": 1.9895833333333333
            },
            {
              "pitch": 43,
              "velocity": 70,
              "position": 3.5833333333333335,
              "duration": 0.22916666666666666
            },
            {
              "pitch": 43,
              "velocity": 60,
              "position": 4,
              "duration": 1.65625
            },
            {
              "pitch": 31,
              "velocity": 60,
              "position": 5.583333333333333,
              "duration": 1.9895833333333333
            },
            {
              "pitch": 43,
              "velocity": 70,
              "position": 7.583333333333333,
              "duration": 0.22916666666666666
            },
            {
              "pitch": 43,
              "velocity": 60,
              "position": 8,
              "duration": 1.65625
            },
            {
              "pitch": 31,
              "velocity": 60,
              "position": 9.583333333333334,
              "duration": 1.9895833333333333
            },
            {
              "pitch": 43,
              "velocity": 70,
              "position": 11.583333333333334,
              "duration": 0.22916666666666666
            },
            {
              "pitch": 43,
              "velocity": 60,
              "position": 12,
              "duration": 1.65625
            },
            {
              "pitch": 31,
              "velocity": 60,
              "position": 13.583333333333334,
              "duration": 1.9895833333333333
            },
            {
              "pitch": 43,
              "velocity": 70,
              "position": 15.583333333333334,
              "duration": 0.22916666666666666
            },
            {
              "pitch": 43,
              "velocity": 60,
              "position": 16,
              "duration": 1.65625
            },
            {
              "pitch": 31,
              "velocity": 60,
              "position": 17.583333333333332,
              "duration": 1.9895833333333333
            },
            {
              "pitch": 43,
              "velocity": 70,
              "position": 19.583333333333332,
              "duration": 0.22916666666666666
            },
            {
              "pitch": 43,
              "velocity": 60,
              "position": 20,
              "duration": 1.65625
            },
            {
              "pitch": 31,
              "velocity": 60,
              "position": 21.583333333333332,
              "duration": 1.9895833333333333
            },
            {
              "pitch": 43,
              "velocity": 70,
              "position": 23.583333333333332,
              "duration": 0.22916666666666666
            },
            {
              "pitch": 43,
              "velocity": 60,
              "position": 24,
              "duration": 1.65625
            },
            {
              "pitch": 31,
              "velocity": 60,
              "position": 25.583333333333332,
              "duration": 1.9895833333333333
            },
            {
              "pitch": 43,
              "velocity": 70,
              "position": 27.583333333333332,
              "duration": 0.22916666666666666
            },
            {
              "pitch": 43,
              "velocity": 60,
              "position": 28,
              "duration": 1.65625
            },
            {
              "pitch": 31,
              "velocity": 60,
              "position": 29.583333333333332,
              "duration": 1.9895833333333333
            },
            {
              "pitch": 31,
              "velocity": 60,
              "position": 33.583333333333336,
              "duration": 1.9895833333333333
            },
            {
              "pitch": 43,
              "velocity": 70,
              "position": 35.583333333333336,
              "duration": 0.22916666666666666
            },
            {
              "pitch": 43,
              "velocity": 60,
              "position": 36,
              "duration": 1.65625
            },
            {
              "pitch": 31,
              "velocity": 60,
              "position": 37.583333333333336,
              "duration": 1.9895833333333333
            },
            {
              "pitch": 43,
              "velocity": 70,
              "position": 39.583333333333336,
              "duration": 0.22916666666666666
            },
            {
              "pitch": 43,
              "velocity": 60,
              "position": 40,
              "duration": 1.65625
            },
            {
              "pitch": 31,
              "velocity": 60,
              "position": 41.583333333333336,
              "duration": 1.9895833333333333
            },
            {
              "pitch": 43,
              "velocity": 70,
              "position": 43.583333333333336,
              "duration": 0.22916666666666666
            },
            {
              "pitch": 43,
              "velocity": 60,
              "position": 44,
              "duration": 1.65625
            },
            {
              "pitch": 31,
              "velocity": 60,
              "position": 45.583333333333336,
              "duration": 1.9895833333333333
            },
            {
              "pitch": 43,
              "velocity": 70,
              "position": 47.583333333333336,
              "duration": 0.22916666666666666
            },
            {
              "pitch": 43,
              "velocity": 60,
              "position": 48,
              "duration": 1.65625
            },
            {
              "pitch": 31,
              "velocity": 60,
              "position": 49.583333333333336,
              "duration": 1.9895833333333333
            },
            {
              "pitch": 43,
              "velocity": 70,
              "position": 51.583333333333336,
              "duration": 0.22916666666666666
            },
            {
              "pitch": 43,
              "velocity": 60,
              "position": 52,
              "duration": 1.65625
            },
            {
              "pitch": 31,
              "velocity": 60,
              "position": 53.583333333333336,
              "duration": 1.9895833333333333
            },
            {
              "pitch": 43,
              "velocity": 70,
              "position": 55.583333333333336,
              "duration": 0.22916666666666666
            },
            {
              "pitch": 43,
              "velocity": 60,
              "position": 56,
              "duration": 1.65625
            },
            {
              "pitch": 31,
              "velocity": 60,
              "position": 57.583333333333336,
              "duration": 1.9895833333333333
            },
            {
              "pitch": 43,
              "velocity": 70,
              "position": 59.583333333333336,
              "duration": 0.22916666666666666
            },
            {
              "pitch": 43,
              "velocity": 60,
              "position": 60,
              "duration": 1.65625
            },
            {
              "pitch": 31,
              "velocity": 60,
              "position": 61.583333333333336,
              "duration": 1.9895833333333333
            },
            {
              "pitch": 43,
              "velocity": 70,
              "position": 63.583333333333336,
              "duration": 0.22916666666666666
            }
          ]
        },
        "2": {
          "ctab": {
            "srcChannel": 2,
            "name": "Bass FX",
            "accType": "BASS",
            "editable": false,
            "mutedNotes": [],
            "mutedChords": [],
            "autoStart": false,
            "sourceChordNote": 0,
            "sourceChordType": "min7(11)",
            "ctb2Low": null,
            "ctb2Main": {
              "ntr": "ROOT_FIXED",
              "ntt": "BYPASS",
              "bassOn": false,
              "chordRootUpperLimit": 3,
              "noteLowLimit": 28,
              "noteHighLimit": 127,
              "rtr": "PITCH_SHIFT_TO_ROOT"
            },
            "ctb2High": null
          },
          "notes": []
        },
        "3": {
          "ctab": {
            "srcChannel": 3,
            "name": "PfLH",
            "accType": "CHORD1",
            "editable": false,
            "mutedNotes": [],
            "mutedChords": [],
            "autoStart": false,
            "sourceChordNote": 0,
            "sourceChordType": "Maj7",
            "ctb2Low": null,
            "ctb2Main": {
              "ntr": "ROOT_TRANSPOSITION",
              "ntt": "CHORD",
              "bassOn": false,
              "chordRootUpperLimit": 8,
              "noteLowLimit": 54,
              "noteHighLimit": 65,
              "rtr": "PITCH_SHIFT"
            },
            "ctb2High": null
          },
          "notes": [
            {
              "pitch": 55,
              "velocity": 51,
              "position": 0,
              "duration": 3.65625
            },
            {
              "pitch": 59,
              "velocity": 51,
              "position": 0,
              "duration": 3.65625
            },
            {
              "pitch": 64,
              "velocity": 41,
              "position": 0,
              "duration": 3.65625
            },
            {
              "pitch": 55,
              "velocity": 60,
              "position": 3.6666666666666665,
              "duration": 3.9895833333333335
            },
            {
              "pitch": 59,
              "velocity": 60,
              "position": 3.6666666666666665,
              "duration": 3.9895833333333335
            },
            {
              "pitch": 64,
              "velocity": 62,
              "position": 3.6666666666666665,
              "duration": 3.9895833333333335
            },
            {
              "pitch": 55,
              "velocity": 48,
              "position": 7.666666666666667,
              "duration": 3.9895833333333335
            },
            {
              "pitch": 59,
              "velocity": 48,
              "position": 7.666666666666667,
              "duration": 3.9895833333333335
            },
            {
              "pitch": 64,
              "velocity": 44,
              "position": 7.666666666666667,
              "duration": 3.9895833333333335
            },
            {
              "pitch": 55,
              "velocity": 60,
              "position": 11.666666666666666,
              "duration": 3.9895833333333335
            },
            {
              "pitch": 59,
              "velocity": 60,
              "position": 11.666666666666666,
              "duration": 3.9895833333333335
            },
            {
              "pitch": 64,
              "velocity": 68,
              "position": 11.666666666666666,
              "duration": 3.9895833333333335
            },
            {
              "pitch": 55,
              "velocity": 65,
              "position": 15.666666666666666,
              "duration": 3.9895833333333335
            },
            {
              "pitch": 59,
              "velocity": 65,
              "position": 15.666666666666666,
              "duration": 3.9895833333333335
            },
            {
              "pitch": 64,
              "velocity": 64,
              "position": 15.666666666666666,
              "duration": 3.9895833333333335
            },
            {
              "pitch": 55,
              "velocity": 65,
              "position": 19.666666666666668,
              "duration": 3.9895833333333335
            },
            {
              "pitch": 59,
              "velocity": 65,
              "position": 19.666666666666668,
              "duration": 3.9895833333333335
            },
            {
              "pitch": 64,
              "velocity": 57,
              "position": 19.666666666666668,
              "duration": 3.9895833333333335
            },
            {
              "pitch": 55,
              "velocity": 68,
              "position": 23.666666666666668,
              "duration": 3.9895833333333335
            },
            {
              "pitch": 59,
              "velocity": 68,
              "position": 23.666666666666668,
              "duration": 3.9895833333333335
            },
            {
              "pitch": 64,
              "velocity": 59,
              "position": 23.666666666666668,
              "duration": 3.9895833333333335
            },
            {
              "pitch": 55,
              "velocity": 69,
              "position": 27.666666666666668,
              "duration": 3.9895833333333335
            },
            {
              "pitch": 59,
              "velocity": 69,
              "position": 27.666666666666668,
              "duration": 3.9895833333333335
            },
            {
              "pitch": 64,
              "velocity": 65,
              "position": 27.666666666666668,
              "duration": 3.9895833333333335
            },
            {
              "pitch": 55,
              "velocity": 68,
              "position": 31.666666666666668,
              "duration": 3.9895833333333335
            },
            {
              "pitch": 59,
              "velocity": 68,
              "position": 31.666666666666668,
              "duration": 3.9895833333333335
            },
            {
              "pitch": 64,
              "velocity": 61,
              "position": 31.666666666666668,
              "duration": 3.9895833333333335
            },
            {
              "pitch": 55,
              "velocity": 56,
              "position": 35.666666666666664,
              "duration": 3.9895833333333335
            },
            {
              "pitch": 59,
              "velocity": 56,
              "position": 35.666666666666664,
              "duration": 3.9895833333333335
            },
            {
              "pitch": 64,
              "velocity": 57,
              "position": 35.666666666666664,
              "duration": 3.9895833333333335
            },
            {
              "pitch": 55,
              "velocity": 59,
              "position": 39.666666666666664,
              "duration": 3.9895833333333335
            },
            {
              "pitch": 59,
              "velocity": 59,
              "position": 39.666666666666664,
              "duration": 3.9895833333333335
            },
            {
              "pitch": 64,
              "velocity": 62,
              "position": 39.666666666666664,
              "duration": 3.9895833333333335
            },
            {
              "pitch": 55,
              "velocity": 71,
              "position": 43.666666666666664,
              "duration": 3.9895833333333335
            },
            {
              "pitch": 59,
              "velocity": 71,
              "position": 43.666666666666664,
              "duration": 3.9895833333333335
            },
            {
              "pitch": 64,
              "velocity": 60,
              "position": 43.666666666666664,
              "duration": 3.9895833333333335
            },
            {
              "pitch": 55,
              "velocity": 57,
              "position": 47.666666666666664,
              "duration": 3.9895833333333335
            },
            {
              "pitch": 59,
              "velocity": 57,
              "position": 47.666666666666664,
              "duration": 3.9895833333333335
            },
            {
              "pitch": 64,
              "velocity": 52,
              "position": 47.666666666666664,
              "duration": 3.9895833333333335
            },
            {
              "pitch": 55,
              "velocity": 56,
              "position": 51.666666666666664,
              "duration": 3.9895833333333335
            },
            {
              "pitch": 59,
              "velocity": 56,
              "position": 51.666666666666664,
              "duration": 3.9895833333333335
            },
            {
              "pitch": 64,
              "velocity": 62,
              "position": 51.666666666666664,
              "duration": 3.9895833333333335
            },
            {
              "pitch": 55,
              "velocity": 58,
              "position": 55.666666666666664,
              "duration": 3.9895833333333335
            },
            {
              "pitch": 59,
              "velocity": 58,
              "position": 55.666666666666664,
              "duration": 3.9895833333333335
            },
            {
              "pitch": 64,
              "velocity": 61,
              "position": 55.666666666666664,
              "duration": 3.9895833333333335
            },
            {
              "pitch": 55,
              "velocity": 62,
              "position": 59.666666666666664,
              "duration": 1.9895833333333333
            },
            {
              "pitch": 59,
              "velocity": 62,
              "position": 59.666666666666664,
              "duration": 1.9895833333333333
            },
            {
              "pitch": 64,
              "velocity": 67,
              "position": 59.666666666666664,
              "duration": 1.9895833333333333
            },
            {
              "pitch": 55,
              "velocity": 59,
              "position": 61.666666666666664,
              "duration": 2.3229166666666665
            },
            {
              "pitch": 59,
              "velocity": 59,
              "position": 61.666666666666664,
              "duration": 2.3229166666666665
            },
            {
              "pitch": 64,
              "velocity": 56,
              "position": 61.666666666666664,
              "duration": 2.3229166666666665
            }
          ]
        },
        "4": {
          "ctab": {
            "srcChannel": 4,
            "name": "PfRH",
            "accType": "CHORD2",
            "editable": false,
            "mutedNotes": [],
            "mutedChords": [
              "7(13)",
              "7(9)",
              "7b5",
              "7th",
              "min7(9)",
              "min(9)",
              "min6",
              "min",
              "Maj6(9)",
              "Maj7(9)",
              "Maj(9)",
              "Maj7",
              "Maj6",
              "Maj"
            ],
            "autoStart": false,
            "sourceChordNote": 0,
            "sourceChordType": "Maj7",
            "ctb2Low": null,
            "ctb2Main": {
              "ntr": "ROOT_TRANSPOSITION",
              "ntt": "CHORD",
              "bassOn": false,
              "chordRootUpperLimit": 6,
              "noteLowLimit": 67,
              "noteHighLimit": 84,
              "rtr": "PITCH_SHIFT"
            },
            "ctb2High": null
          },
          "notes": [
            {
              "pitch": 67,
              "velocity": 61,
              "position": 0,
              "duration": 3.65625
            },
            {
              "pitch": 71,
              "velocity": 61,
              "position": 0,
              "duration": 3.65625
            },
            {
              "pitch": 67,
              "velocity": 72,
              "position": 3.6666666666666665,
              "duration": 3.9895833333333335
            },
            {
              "pitch": 71,
              "velocity": 72,
              "position": 3.6666666666666665,
              "duration": 3.9895833333333335
            },
            {
              "pitch": 76,
              "velocity": 74,
              "position": 3.6666666666666665,
              "duration": 3.9895833333333335
            },
            {
              "pitch": 71,
              "velocity": 84,
              "position": 7.666666666666667,
              "duration": 3.9895833333333335
            },
            {
              "pitch": 76,
              "velocity": 79,
              "position": 7.666666666666667,
              "duration": 3.9895833333333335
            },
            {
              "pitch": 79,
              "velocity": 84,
              "position": 7.666666666666667,
              "duration": 3.9895833333333335
            },
            {
              "pitch": 67,
              "velocity": 72,
              "position": 11.666666666666666,
              "duration": 3.9895833333333335
            },
            {
              "pitch": 71,
              "velocity": 72,
              "position": 11.666666666666666,
              "duration": 3.9895833333333335
            },
            {
              "pitch": 76,
              "velocity": 81,
              "position": 11.666666666666666,
              "duration": 3.9895833333333335
            },
            {
              "pitch": 67,
              "velocity": 78,
              "position": 15.666666666666666,
              "duration": 3.9895833333333335
            },
            {
              "pitch": 71,
              "velocity": 78,
              "position": 15.666666666666666,
              "duration": 3.9895833333333335
            },
            {
              "pitch": 67,
              "velocity": 78,
              "position": 19.666666666666668,
              "duration": 3.9895833333333335
            },
            {
              "pitch": 71,
              "velocity": 78,
              "position": 19.666666666666668,
              "duration": 3.9895833333333335
            },
            {
              "pitch": 76,
              "velocity": 68,
              "position": 19.666666666666668,
              "duration": 3.9895833333333335
            },
            {
              "pitch": 71,
              "velocity": 81,
              "position": 23.666666666666668,
              "duration": 3.9895833333333335
            },
            {
              "pitch": 76,
              "velocity": 70,
              "position": 23.666666666666668,
              "duration": 3.9895833333333335
            },
            {
              "pitch": 79,
              "velocity": 81,
              "position": 23.666666666666668,
              "duration": 3.9895833333333335
            },
            {
              "pitch": 67,
              "velocity": 82,
              "position": 27.666666666666668,
              "duration": 1.9895833333333333
            },
            {
              "pitch": 71,
              "velocity": 82,
              "position": 27.666666666666668,
              "duration": 1.9895833333333333
            },
            {
              "pitch": 76,
              "velocity": 78,
              "position": 27.666666666666668,
              "duration": 1.9895833333333333
            },
            {
              "pitch": 67,
              "velocity": 61,
              "position": 29.666666666666668,
              "duration": 1.9895833333333333
            },
            {
              "pitch": 71,
              "velocity": 61,
              "position": 29.666666666666668,
              "duration": 1.9895833333333333
            },
            {
              "pitch": 71,
              "velocity": 81,
              "position": 31.666666666666668,
              "duration": 3.9895833333333335
            },
            {
              "pitch": 76,
              "velocity": 73,
              "position": 31.666666666666668,
              "duration": 3.9895833333333335
            },
            {
              "pitch": 79,
              "velocity": 81,
              "position": 31.666666666666668,
              "duration": 3.9895833333333335
            },
            {
              "pitch": 67,
              "velocity": 67,
              "position": 35.666666666666664,
              "duration": 3.9895833333333335
            },
            {
              "pitch": 71,
              "velocity": 67,
              "position": 35.666666666666664,
              "duration": 3.9895833333333335
            },
            {
              "pitch": 76,
              "velocity": 68,
              "position": 35.666666666666664,
              "duration": 3.9895833333333335
            },
            {
              "pitch": 71,
              "velocity": 70,
              "position": 39.666666666666664,
              "duration": 3.9895833333333335
            },
            {
              "pitch": 76,
              "velocity": 74,
              "position": 39.666666666666664,
              "duration": 3.9895833333333335
            },
            {
              "pitch": 79,
              "velocity": 70,
              "position": 39.666666666666664,
              "duration": 3.9895833333333335
            },
            {
              "pitch": 67,
              "velocity": 85,
              "position": 43.666666666666664,
              "duration": 3.9895833333333335
            },
            {
              "pitch": 71,
              "velocity": 85,
              "position": 43.666666666666664,
              "duration": 3.9895833333333335
            },
            {
              "pitch": 76,
              "velocity": 72,
              "position": 43.666666666666664,
              "duration": 3.9895833333333335
            },
            {
              "pitch": 67,
              "velocity": 68,
              "position": 47.666666666666664,
              "duration": 3.9895833333333335
            },
            {
              "pitch": 71,
              "velocity": 68,
              "position": 47.666666666666664,
              "duration": 3.9895833333333335
            },
            {
              "pitch": 67,
              "velocity": 67,
              "position": 51.666666666666664,
              "duration": 3.9895833333333335
            },
            {
              "pitch": 71,
              "velocity": 67,
              "position": 51.666666666666664,
              "duration": 3.9895833333333335
            },
            {
              "pitch": 76,
              "velocity": 74,
              "position": 51.666666666666664,
              "duration": 3.9895833333333335
            },
            {
              "pitch": 71,
              "velocity": 69,
              "position": 55.666666666666664,
              "duration": 3.9895833333333335
            },
            {
              "pitch": 76,
              "velocity": 73,
              "position": 55.666666666666664,
              "duration": 3.9895833333333335
            },
            {
              "pitch": 79,
              "velocity": 69,
              "position": 55.666666666666664,
              "duration": 3.9895833333333335
            },
            {
              "pitch": 67,
              "velocity": 74,
              "position": 59.666666666666664,
              "duration": 1.9895833333333333
            },
            {
              "pitch": 71,
              "velocity": 74,
              "position": 59.666666666666664,
              "duration": 1.9895833333333333
            },
            {
              "pitch": 76,
              "velocity": 80,
              "position": 59.666666666666664,
              "duration": 1.9895833333333333
            },
            {
              "pitch": 67,
              "velocity": 70,
              "position": 61.666666666666664,
              "duration": 2.3229166666666665
            },
            {
              "pitch": 71,
              "velocity": 70,
              "position": 61.666666666666664,
              "duration": 2.3229166666666665
            }
          ]
        },
        "5": {
          "ctab": {
            "srcChannel": 5,
            "name": "PfRH Maj",
            "accType": "CHORD2",
            "editable": false,
            "mutedNotes": [],
            "mutedChords": [
              "1+2+5",
              "sus4",
              "1+5",
              "1+8",
              "7aug",
              "Maj7aug",
              "7(#9)",
              "7(b13)",
              "7(b9)",
              "7(13)",
              "7#11",
              "7(9)",
              "7b5",
              "7sus4",
              "7th",
              "dim7",
              "dim",
              "minMaj7(9)",
              "minMaj7",
              "min7(11)",
              "min7(9)",
              "min(9)",
              "m7b5",
              "min7",
              "min6",
              "min",
              "aug",
              "Maj7#11"
            ],
            "autoStart": false,
            "sourceChordNote": 0,
            "sourceChordType": "Maj7",
            "ctb2Low": null,
            "ctb2Main": {
              "ntr": "ROOT_TRANSPOSITION",
              "ntt": "DORIAN_5",
              "bassOn": false,
              "chordRootUpperLimit": 6,
              "noteLowLimit": 67,
              "noteHighLimit": 79,
              "rtr": "PITCH_SHIFT"
            },
            "ctb2High": null
          },
          "notes": [
            {
              "pitch": 67,
              "velocity": 61,
              "position": 0,
              "duration": 3.65625
            },
            {
              "pitch": 71,
              "velocity": 61,
              "position": 0,
              "duration": 3.65625
            },
            {
              "pitch": 69,
              "velocity": 72,
              "position": 3.6666666666666665,
              "duration": 3.9895833333333335
            },
            {
              "pitch": 74,
              "velocity": 74,
              "position": 3.6666666666666665,
              "duration": 3.9895833333333335
            },
            {
              "pitch": 67,
              "velocity": 84,
              "position": 7.666666666666667,
              "duration": 3.9895833333333335
            },
            {
              "pitch": 71,
              "velocity": 84,
              "position": 7.666666666666667,
              "duration": 3.9895833333333335
            },
            {
              "pitch": 76,
              "velocity": 79,
              "position": 7.666666666666667,
              "duration": 3.9895833333333335
            },
            {
              "pitch": 69,
              "velocity": 72,
              "position": 11.666666666666666,
              "duration": 3.9895833333333335
            },
            {
              "pitch": 74,
              "velocity": 72,
              "position": 11.666666666666666,
              "duration": 3.9895833333333335
            },
            {
              "pitch": 79,
              "velocity": 81,
              "position": 11.666666666666666,
              "duration": 3.9895833333333335
            },
            {
              "pitch": 67,
              "velocity": 78,
              "position": 15.666666666666666,
              "duration": 3.9895833333333335
            },
            {
              "pitch": 71,
              "velocity": 78,
              "position": 15.666666666666666,
              "duration": 3.9895833333333335
            },
            {
              "pitch": 76,
              "velocity": 78,
              "position": 15.666666666666666,
              "duration": 3.9895833333333335
            },
            {
              "pitch": 81,
              "velocity": 78,
              "position": 15.666666666666666,
              "duration": 3.9895833333333335
            },
            {
              "pitch": 69,
              "velocity": 78,
              "position": 19.666666666666668,
              "duration": 3.9895833333333335
            },
            {
              "pitch": 74,
              "velocity": 78,
              "position": 19.666666666666668,
              "duration": 3.9895833333333335
            },
            {
              "pitch": 79,
              "velocity": 68,
              "position": 19.666666666666668,
              "duration": 3.9895833333333335
            },
            {
              "pitch": 67,
              "velocity": 81,
              "position": 23.666666666666668,
              "duration": 3.9895833333333335
            },
            {
              "pitch": 71,
              "velocity": 81,
              "position": 23.666666666666668,
              "duration": 3.9895833333333335
            },
            {
              "pitch": 76,
              "velocity": 70,
              "position": 23.666666666666668,
              "duration": 3.9895833333333335
            },
            {
              "pitch": 69,
              "velocity": 82,
              "position": 27.666666666666668,
              "duration": 1.9895833333333333
            },
            {
              "pitch": 74,
              "velocity": 78,
              "position": 27.666666666666668,
              "duration": 1.9895833333333333
            },
            {
              "pitch": 79,
              "velocity": 82,
              "position": 27.666666666666668,
              "duration": 1.9895833333333333
            },
            {
              "pitch": 67,
              "velocity": 74,
              "position": 29.666666666666668,
              "duration": 1.9895833333333333
            },
            {
              "pitch": 71,
              "velocity": 74,
              "position": 29.666666666666668,
              "duration": 1.9895833333333333
            },
            {
              "pitch": 76,
              "velocity": 74,
              "position": 29.666666666666668,
              "duration": 1.9895833333333333
            },
            {
              "pitch": 81,
              "velocity": 74,
              "position": 29.666666666666668,
              "duration": 1.9895833333333333
            },
            {
              "pitch": 69,
              "velocity": 81,
              "position": 31.666666666666668,
              "duration": 3.9895833333333335
            },
            {
              "pitch": 74,
              "velocity": 73,
              "position": 31.666666666666668,
              "duration": 3.9895833333333335
            },
            {
              "pitch": 79,
              "velocity": 81,
              "position": 31.666666666666668,
              "duration": 3.9895833333333335
            },
            {
              "pitch": 83,
              "velocity": 81,
              "position": 31.666666666666668,
              "duration": 3.9895833333333335
            },
            {
              "pitch": 67,
              "velocity": 67,
              "position": 35.666666666666664,
              "duration": 3.9895833333333335
            },
            {
              "pitch": 71,
              "velocity": 67,
              "position": 35.666666666666664,
              "duration": 3.9895833333333335
            },
            {
              "pitch": 76,
              "velocity": 68,
              "position": 35.666666666666664,
              "duration": 3.9895833333333335
            },
            {
              "pitch": 81,
              "velocity": 67,
              "position": 35.666666666666664,
              "duration": 3.9895833333333335
            },
            {
              "pitch": 69,
              "velocity": 70,
              "position": 39.666666666666664,
              "duration": 3.9895833333333335
            },
            {
              "pitch": 74,
              "velocity": 74,
              "position": 39.666666666666664,
              "duration": 3.9895833333333335
            },
            {
              "pitch": 79,
              "velocity": 70,
              "position": 39.666666666666664,
              "duration": 3.9895833333333335
            },
            {
              "pitch": 67,
              "velocity": 85,
              "position": 43.666666666666664,
              "duration": 3.9895833333333335
            },
            {
              "pitch": 71,
              "velocity": 85,
              "position": 43.666666666666664,
              "duration": 3.9895833333333335
            },
            {
              "pitch": 76,
              "velocity": 72,
              "position": 43.666666666666664,
              "duration": 3.9895833333333335
            },
            {
              "pitch": 69,
              "velocity": 68,
              "position": 47.666666666666664,
              "duration": 3.9895833333333335
            },
            {
              "pitch": 74,
              "velocity": 68,
              "position": 47.666666666666664,
              "duration": 3.9895833333333335
            },
            {
              "pitch": 67,
              "velocity": 67,
              "position": 51.666666666666664,
              "duration": 3.9895833333333335
            },
            {
              "pitch": 71,
              "velocity": 67,
              "position": 51.666666666666664,
              "duration": 3.9895833333333335
            },
            {
              "pitch": 76,
              "velocity": 74,
              "position": 51.666666666666664,
              "duration": 3.9895833333333335
            },
            {
              "pitch": 69,
              "velocity": 69,
              "position": 55.666666666666664,
              "duration": 3.9895833333333335
            },
            {
              "pitch": 74,
              "velocity": 73,
              "position": 55.666666666666664,
              "duration": 3.9895833333333335
            },
            {
              "pitch": 79,
              "velocity": 69,
              "position": 55.666666666666664,
              "duration": 3.9895833333333335
            },
            {
              "pitch": 67,
              "velocity": 74,
              "position": 59.666666666666664,
              "duration": 1.9895833333333333
            },
            {
              "pitch": 71,
              "velocity": 74,
              "position": 59.666666666666664,
              "duration": 1.9895833333333333
            },
            {
              "pitch": 76,
              "velocity": 80,
              "position": 59.666666666666664,
              "duration": 1.9895833333333333
            },
            {
              "pitch": 69,
              "velocity": 70,
              "position": 61.666666666666664,
              "duration": 2.3229166666666665
            },
            {
              "pitch": 74,
              "velocity": 70,
              "position": 61.666666666666664,
              "duration": 2.3229166666666665
            }
          ]
        },
        "6": {
          "ctab": {
            "srcChannel": 6,
            "name": "PfRH min",
            "accType": "CHORD2",
            "editable": false,
            "mutedNotes": [],
            "mutedChords": [
              "1+2+5",
              "sus4",
              "1+5",
              "1+8",
              "7aug",
              "Maj7aug",
              "7(#9)",
              "7(b13)",
              "7(b9)",
              "7(13)",
              "7#11",
              "7(9)",
              "7b5",
              "7sus4",
              "7th",
              "dim7",
              "dim",
              "minMaj7(9)",
              "minMaj7",
              "min7(11)",
              "min7(9)",
              "min(9)",
              "m7b5",
              "min7",
              "aug",
              "Maj6(9)",
              "Maj7(9)",
              "Maj(9)",
              "Maj7#11",
              "Maj7",
              "Maj6",
              "Maj"
            ],
            "autoStart": false,
            "sourceChordNote": 0,
            "sourceChordType": "Maj7",
            "ctb2Low": null,
            "ctb2Main": {
              "ntr": "ROOT_TRANSPOSITION",
              "ntt": "DORIAN_5",
              "bassOn": false,
              "chordRootUpperLimit": 6,
              "noteLowLimit": 67,
              "noteHighLimit": 79,
              "rtr": "PITCH_SHIFT"
            },
            "ctb2High": null
          },
          "notes": [
            {
              "pitch": 69,
              "velocity": 61,
              "position": 0,
              "duration": 3.65625
            },
            {
              "pitch": 72,
              "velocity": 61,
              "position": 0,
              "duration": 3.65625
            },
            {
              "pitch": 70,
              "velocity": 72,
              "position": 3.6666666666666665,
              "duration": 3.9895833333333335
            },
            {
              "pitch": 74,
              "velocity": 74,
              "position": 3.6666666666666665,
              "duration": 3.9895833333333335
            },
            {
              "pitch": 69,
              "velocity": 84,
              "position": 7.666666666666667,
              "duration": 3.9895833333333335
            },
            {
              "pitch": 72,
              "velocity": 84,
              "position": 7.666666666666667,
              "duration": 3.9895833333333335
            },
            {
              "pitch": 76,
              "velocity": 79,
              "position": 7.666666666666667,
              "duration": 3.9895833333333335
            },
            {
              "pitch": 70,
              "velocity": 72,
              "position": 11.666666666666666,
              "duration": 3.9895833333333335
            },
            {
              "pitch": 74,
              "velocity": 72,
              "position": 11.666666666666666,
              "duration": 3.9895833333333335
            },
            {
              "pitch": 79,
              "velocity": 81,
              "position": 11.666666666666666,
              "duration": 3.9895833333333335
            },
            {
              "pitch": 72,
              "velocity": 78,
              "position": 15.666666666666666,
              "duration": 3.9895833333333335
            },
            {
              "pitch": 76,
              "velocity": 78,
              "position": 15.666666666666666,
              "duration": 3.9895833333333335
            },
            {
              "pitch": 81,
              "velocity": 78,
              "position": 15.666666666666666,
              "duration": 3.9895833333333335
            },
            {
              "pitch": 70,
              "velocity": 78,
              "position": 19.666666666666668,
              "duration": 3.9895833333333335
            },
            {
              "pitch": 74,
              "velocity": 78,
              "position": 19.666666666666668,
              "duration": 3.9895833333333335
            },
            {
              "pitch": 79,
              "velocity": 68,
              "position": 19.666666666666668,
              "duration": 3.9895833333333335
            },
            {
              "pitch": 69,
              "velocity": 81,
              "position": 23.666666666666668,
              "duration": 3.9895833333333335
            },
            {
              "pitch": 72,
              "velocity": 81,
              "position": 23.666666666666668,
              "duration": 3.9895833333333335
            },
            {
              "pitch": 76,
              "velocity": 70,
              "position": 23.666666666666668,
              "duration": 3.9895833333333335
            },
            {
              "pitch": 70,
              "velocity": 82,
              "position": 27.666666666666668,
              "duration": 1.9895833333333333
            },
            {
              "pitch": 74,
              "velocity": 78,
              "position": 27.666666666666668,
              "duration": 1.9895833333333333
            },
            {
              "pitch": 79,
              "velocity": 82,
              "position": 27.666666666666668,
              "duration": 1.9895833333333333
            },
            {
              "pitch": 69,
              "velocity": 74,
              "position": 29.666666666666668,
              "duration": 1.9895833333333333
            },
            {
              "pitch": 72,
              "velocity": 74,
              "position": 29.666666666666668,
              "duration": 1.9895833333333333
            },
            {
              "pitch": 76,
              "velocity": 74,
              "position": 29.666666666666668,
              "duration": 1.9895833333333333
            },
            {
              "pitch": 81,
              "velocity": 74,
              "position": 29.666666666666668,
              "duration": 1.9895833333333333
            },
            {
              "pitch": 70,
              "velocity": 81,
              "position": 31.666666666666668,
              "duration": 3.9895833333333335
            },
            {
              "pitch": 74,
              "velocity": 73,
              "position": 31.666666666666668,
              "duration": 3.9895833333333335
            },
            {
              "pitch": 79,
              "velocity": 81,
              "position": 31.666666666666668,
              "duration": 3.9895833333333335
            },
            {
              "pitch": 84,
              "velocity": 81,
              "position": 31.666666666666668,
              "duration": 3.9895833333333335
            },
            {
              "pitch": 72,
              "velocity": 67,
              "position": 35.666666666666664,
              "duration": 3.9895833333333335
            },
            {
              "pitch": 76,
              "velocity": 68,
              "position": 35.666666666666664,
              "duration": 3.9895833333333335
            },
            {
              "pitch": 81,
              "velocity": 67,
              "position": 35.666666666666664,
              "duration": 3.9895833333333335
            },
            {
              "pitch": 70,
              "velocity": 70,
              "position": 39.666666666666664,
              "duration": 3.9895833333333335
            },
            {
              "pitch": 74,
              "velocity": 74,
              "position": 39.666666666666664,
              "duration": 3.9895833333333335
            },
            {
              "pitch": 79,
              "velocity": 70,
              "position": 39.666666666666664,
              "duration": 3.9895833333333335
            },
            {
              "pitch": 69,
              "velocity": 85,
              "position": 43.666666666666664,
              "duration": 3.9895833333333335
            },
            {
              "pitch": 72,
              "velocity": 85,
              "position": 43.666666666666664,
              "duration": 3.9895833333333335
            },
            {
              "pitch": 76,
              "velocity": 72,
              "position": 43.666666666666664,
              "duration": 3.9895833333333335
            },
            {
              "pitch": 70,
              "velocity": 68,
              "position": 47.666666666666664,
              "duration": 3.9895833333333335
            },
            {
              "pitch": 74,
              "velocity": 68,
              "position": 47.666666666666664,
              "duration": 3.9895833333333335
            },
            {
              "pitch": 69,
              "velocity": 67,
              "position": 51.666666666666664,
              "duration": 3.9895833333333335
            },
            {
              "pitch": 72,
              "velocity": 67,
              "position": 51.666666666666664,
              "duration": 3.9895833333333335
            },
            {
              "pitch": 76,
              "velocity": 74,
              "position": 51.666666666666664,
              "duration": 3.9895833333333335
            },
            {
              "pitch": 70,
              "velocity": 69,
              "position": 55.666666666666664,
              "duration": 3.9895833333333335
            },
            {
              "pitch": 74,
              "velocity": 73,
              "position": 55.666666666666664,
              "duration": 3.9895833333333335
            },
            {
              "pitch": 79,
              "velocity": 69,
              "position": 55.666666666666664,
              "duration": 3.9895833333333335
            },
            {
              "pitch": 69,
              "velocity": 74,
              "position": 59.666666666666664,
              "duration": 1.9895833333333333
            },
            {
              "pitch": 72,
              "velocity": 74,
              "position": 59.666666666666664,
              "duration": 1.9895833333333333
            },
            {
              "pitch": 76,
              "velocity": 80,
              "position": 59.666666666666664,
              "duration": 1.9895833333333333
            },
            {
              "pitch": 70,
              "velocity": 70,
              "position": 61.666666666666664,
              "duration": 2.3229166666666665
            },
            {
              "pitch": 74,
              "velocity": 70,
              "position": 61.666666666666664,
              "duration": 2.3229166666666665
            }
          ]
        },
        "7": {
          "ctab": {
            "srcChannel": 7,
            "name": "PfRH 7th",
            "accType": "CHORD2",
            "editable": false,
            "mutedNotes": [],
            "mutedChords": [
              "1+2+5",
              "sus4",
              "1+5",
              "1+8",
              "7aug",
              "Maj7aug",
              "7(#9)",
              "7(b13)",
              "7(b9)",
              "7#11",
              "7sus4",
              "dim7",
              "dim",
              "minMaj7(9)",
              "minMaj7",
              "min7(11)",
              "m7b5",
              "min7",
              "min6",
              "min",
              "aug",
              "Maj6(9)",
              "Maj7(9)",
              "Maj(9)",
              "Maj7#11",
              "Maj7",
              "Maj6",
              "Maj"
            ],
            "autoStart": false,
            "sourceChordNote": 0,
            "sourceChordType": "Maj7",
            "ctb2Low": null,
            "ctb2Main": {
              "ntr": "ROOT_TRANSPOSITION",
              "ntt": "DORIAN_5",
              "bassOn": false,
              "chordRootUpperLimit": 6,
              "noteLowLimit": 67,
              "noteHighLimit": 79,
              "rtr": "PITCH_SHIFT"
            },
            "ctb2High": null
          },
          "notes": [
            {
              "pitch": 69,
              "velocity": 61,
              "position": 0,
              "duration": 3.65625
            },
            {
              "pitch": 72,
              "velocity": 61,
              "position": 0,
              "duration": 3.65625
            },
            {
              "pitch": 70,
              "velocity": 72,
              "position": 3.6666666666666665,
              "duration": 3.9895833333333335
            },
            {
              "pitch": 74,
              "velocity": 74,
              "position": 3.6666666666666665,
              "duration": 3.9895833333333335
            },
            {
              "pitch": 69,
              "velocity": 84,
              "position": 7.666666666666667,
              "duration": 3.9895833333333335
            },
            {
              "pitch": 72,
              "velocity": 84,
              "position": 7.666666666666667,
              "duration": 3.9895833333333335
            },
            {
              "pitch": 76,
              "velocity": 79,
              "position": 7.666666666666667,
              "duration": 3.9895833333333335
            },
            {
              "pitch": 70,
              "velocity": 72,
              "position": 11.666666666666666,
              "duration": 3.9895833333333335
            },
            {
              "pitch": 74,
              "velocity": 72,
              "position": 11.666666666666666,
              "duration": 3.9895833333333335
            },
            {
              "pitch": 79,
              "velocity": 81,
              "position": 11.666666666666666,
              "duration": 3.9895833333333335
            },
            {
              "pitch": 72,
              "velocity": 78,
              "position": 15.666666666666666,
              "duration": 3.9895833333333335
            },
            {
              "pitch": 76,
              "velocity": 78,
              "position": 15.666666666666666,
              "duration": 3.9895833333333335
            },
            {
              "pitch": 81,
              "velocity": 78,
              "position": 15.666666666666666,
              "duration": 3.9895833333333335
            },
            {
              "pitch": 70,
              "velocity": 78,
              "position": 19.666666666666668,
              "duration": 3.9895833333333335
            },
            {
              "pitch": 74,
              "velocity": 78,
              "position": 19.666666666666668,
              "duration": 3.9895833333333335
            },
            {
              "pitch": 79,
              "velocity": 68,
              "position": 19.666666666666668,
              "duration": 3.9895833333333335
            },
            {
              "pitch": 69,
              "velocity": 81,
              "position": 23.666666666666668,
              "duration": 3.9895833333333335
            },
            {
              "pitch": 72,
              "velocity": 81,
              "position": 23.666666666666668,
              "duration": 3.9895833333333335
            },
            {
              "pitch": 76,
              "velocity": 70,
              "position": 23.666666666666668,
              "duration": 3.9895833333333335
            },
            {
              "pitch": 70,
              "velocity": 82,
              "position": 27.666666666666668,
              "duration": 1.9895833333333333
            },
            {
              "pitch": 74,
              "velocity": 78,
              "position": 27.666666666666668,
              "duration": 1.9895833333333333
            },
            {
              "pitch": 79,
              "velocity": 82,
              "position": 27.666666666666668,
              "duration": 1.9895833333333333
            },
            {
              "pitch": 69,
              "velocity": 74,
              "position": 29.666666666666668,
              "duration": 1.9895833333333333
            },
            {
              "pitch": 72,
              "velocity": 74,
              "position": 29.666666666666668,
              "duration": 1.9895833333333333
            },
            {
              "pitch": 76,
              "velocity": 74,
              "position": 29.666666666666668,
              "duration": 1.9895833333333333
            },
            {
              "pitch": 81,
              "velocity": 74,
              "position": 29.666666666666668,
              "duration": 1.9895833333333333
            },
            {
              "pitch": 70,
              "velocity": 81,
              "position": 31.666666666666668,
              "duration": 3.9895833333333335
            },
            {
              "pitch": 74,
              "velocity": 73,
              "position": 31.666666666666668,
              "duration": 3.9895833333333335
            },
            {
              "pitch": 79,
              "velocity": 81,
              "position": 31.666666666666668,
              "duration": 3.9895833333333335
            },
            {
              "pitch": 84,
              "velocity": 81,
              "position": 31.666666666666668,
              "duration": 3.9895833333333335
            },
            {
              "pitch": 72,
              "velocity": 67,
              "position": 35.666666666666664,
              "duration": 3.9895833333333335
            },
            {
              "pitch": 76,
              "velocity": 68,
              "position": 35.666666666666664,
              "duration": 3.9895833333333335
            },
            {
              "pitch": 81,
              "velocity": 67,
              "position": 35.833333333333336,
              "duration": 3.9895833333333335
            },
            {
              "pitch": 70,
              "velocity": 70,
              "position": 39.666666666666664,
              "duration": 3.9895833333333335
            },
            {
              "pitch": 74,
              "velocity": 74,
              "position": 39.666666666666664,
              "duration": 3.9895833333333335
            },
            {
              "pitch": 79,
              "velocity": 70,
              "position": 39.666666666666664,
              "duration": 3.9895833333333335
            },
            {
              "pitch": 69,
              "velocity": 85,
              "position": 43.666666666666664,
              "duration": 3.9895833333333335
            },
            {
              "pitch": 72,
              "velocity": 85,
              "position": 43.666666666666664,
              "duration": 3.9895833333333335
            },
            {
              "pitch": 76,
              "velocity": 72,
              "position": 43.666666666666664,
              "duration": 3.9895833333333335
            },
            {
              "pitch": 70,
              "velocity": 68,
              "position": 47.666666666666664,
              "duration": 3.9895833333333335
            },
            {
              "pitch": 74,
              "velocity": 68,
              "position": 47.666666666666664,
              "duration": 3.9895833333333335
            },
            {
              "pitch": 69,
              "velocity": 67,
              "position": 51.666666666666664,
              "duration": 3.9895833333333335
            },
            {
              "pitch": 72,
              "velocity": 67,
              "position": 51.666666666666664,
              "duration": 3.9895833333333335
            },
            {
              "pitch": 76,
              "velocity": 74,
              "position": 51.666666666666664,
              "duration": 3.9895833333333335
            },
            {
              "pitch": 70,
              "velocity": 69,
              "position": 55.666666666666664,
              "duration": 3.9895833333333335
            },
            {
              "pitch": 74,
              "velocity": 73,
              "position": 55.666666666666664,
              "duration": 3.9895833333333335
            },
            {
              "pitch": 79,
              "velocity": 69,
              "position": 55.666666666666664,
              "duration": 3.9895833333333335
            },
            {
              "pitch": 69,
              "velocity": 74,
              "position": 59.666666666666664,
              "duration": 1.9895833333333333
            },
            {
              "pitch": 72,
              "velocity": 74,
              "position": 59.666666666666664,
              "duration": 1.9895833333333333
            },
            {
              "pitch": 76,
              "velocity": 80,
              "position": 59.666666666666664,
              "duration": 1.9895833333333333
            },
            {
              "pitch": 70,
              "velocity": 70,
              "position": 61.666666666666664,
              "duration": 2.3229166666666665
            },
            {
              "pitch": 74,
              "velocity": 70,
              "position": 61.666666666666664,
              "duration": 2.3229166666666665
            }
          ]
        },
        "9": {
          "ctab": {
            "srcChannel": 9,
            "name": "Drs",
            "accType": "RHYTHM",
            "editable": false,
            "mutedNotes": [],
            "mutedChords": [],
            "autoStart": true,
            "sourceChordNote": 0,
            "sourceChordType": "Maj7",
            "ctb2Low": null,
            "ctb2Main": {
              "ntr": "ROOT_FIXED",
              "ntt": "BYPASS",
              "bassOn": false,
              "chordRootUpperLimit": 6,
              "noteLowLimit": 0,
              "noteHighLimit": 127,
              "rtr": "PITCH_SHIFT"
            },
            "ctb2High": null
          },
          "notes": [
            {
              "pitch": 52,
              "velocity": 44,
              "position": 0,
              "duration": 0.010416666666666666
            },
            {
              "pitch": 59,
              "velocity": 115,
              "position": 0,
              "duration": 0.010416666666666666
            },
            {
              "pitch": 44,
              "velocity": 82,
              "position": 1,
              "duration": 0.010416666666666666
            },
            {
              "pitch": 59,
              "velocity": 76,
              "position": 1,
              "duration": 0.010416666666666666
            },
            {
              "pitch": 38,
              "velocity": 49,
              "position": 1.5833333333333333,
              "duration": 0.010416666666666666
            },
            {
              "pitch": 38,
              "velocity": 36,
              "position": 1.8333333333333333,
              "duration": 0.010416666666666666
            },
            {
              "pitch": 59,
              "velocity": 72,
              "position": 2,
              "duration": 0.010416666666666666
            },
            {
              "pitch": 33,
              "velocity": 40,
              "position": 2.5833333333333335,
              "duration": 0.010416666666666666
            },
            {
              "pitch": 33,
              "velocity": 63,
              "position": 3,
              "duration": 0.010416666666666666
            },
            {
              "pitch": 44,
              "velocity": 94,
              "position": 3,
              "duration": 0.010416666666666666
            },
            {
              "pitch": 52,
              "velocity": 44,
              "position": 3,
              "duration": 0.010416666666666666
            },
            {
              "pitch": 59,
              "velocity": 115,
              "position": 3,
              "duration": 0.010416666666666666
            },
            {
              "pitch": 59,
              "velocity": 72,
              "position": 4,
              "duration": 0.010416666666666666
            },
            {
              "pitch": 38,
              "velocity": 38,
              "position": 4.583333333333333,
              "duration": 0.010416666666666666
            },
            {
              "pitch": 44,
              "velocity": 82,
              "position": 5,
              "duration": 0.010416666666666666
            },
            {
              "pitch": 59,
              "velocity": 71,
              "position": 5,
              "duration": 0.010416666666666666
            },
            {
              "pitch": 38,
              "velocity": 49,
              "position": 6,
              "duration": 0.010416666666666666
            },
            {
              "pitch": 59,
              "velocity": 63,
              "position": 6,
              "duration": 0.010416666666666666
            },
            {
              "pitch": 38,
              "velocity": 38,
              "position": 6.583333333333333,
              "duration": 0.010416666666666666
            },
            {
              "pitch": 44,
              "velocity": 78,
              "position": 7,
              "duration": 0.010416666666666666
            },
            {
              "pitch": 59,
              "velocity": 60,
              "position": 7,
              "duration": 0.010416666666666666
            },
            {
              "pitch": 38,
              "velocity": 58,
              "position": 7.583333333333333,
              "duration": 0.010416666666666666
            },
            {
              "pitch": 59,
              "velocity": 67,
              "position": 8,
              "duration": 0.010416666666666666
            },
            {
              "pitch": 38,
              "velocity": 16,
              "position": 8.333333333333334,
              "duration": 0.010416666666666666
            },
            {
              "pitch": 38,
              "velocity": 43,
              "position": 8.666666666666666,
              "duration": 0.010416666666666666
            },
            {
              "pitch": 44,
              "velocity": 84,
              "position": 9,
              "duration": 0.010416666666666666
            },
            {
              "pitch": 59,
              "velocity": 67,
              "position": 9,
              "duration": 0.010416666666666666
            },
            {
              "pitch": 38,
              "velocity": 16,
              "position": 9.666666666666666,
              "duration": 0.010416666666666666
            },
            {
              "pitch": 59,
              "velocity": 59,
              "position": 10,
              "duration": 0.010416666666666666
            },
            {
              "pitch": 38,
              "velocity": 63,
              "position": 10.583333333333334,
              "duration": 0.010416666666666666
            },
            {
              "pitch": 44,
              "velocity": 82,
              "position": 11,
              "duration": 0.010416666666666666
            },
            {
              "pitch": 59,
              "velocity": 76,
              "position": 11,
              "duration": 0.010416666666666666
            },
            {
              "pitch": 38,
              "velocity": 16,
              "position": 11.333333333333334,
              "duration": 0.010416666666666666
            },
            {
              "pitch": 33,
              "velocity": 40,
              "position": 11.583333333333334,
              "duration": 0.010416666666666666
            },
            {
              "pitch": 59,
              "velocity": 58,
              "position": 11.583333333333334,
              "duration": 0.010416666666666666
            },
            {
              "pitch": 33,
              "velocity": 63,
              "position": 12,
              "duration": 0.010416666666666666
            },
            {
              "pitch": 52,
              "velocity": 42,
              "position": 12,
              "duration": 0.010416666666666666
            },
            {
              "pitch": 59,
              "velocity": 115,
              "position": 12,
              "duration": 0.010416666666666666
            },
            {
              "pitch": 44,
              "velocity": 87,
              "position": 13,
              "duration": 0.010416666666666666
            },
            {
              "pitch": 59,
              "velocity": 62,
              "position": 13,
              "duration": 0.010416666666666666
            },
            {
              "pitch": 38,
              "velocity": 63,
              "position": 13.583333333333334,
              "duration": 0.010416666666666666
            },
            {
              "pitch": 59,
              "velocity": 62,
              "position": 14,
              "duration": 0.010416666666666666
            },
            {
              "pitch": 33,
              "velocity": 40,
              "position": 14.583333333333334,
              "duration": 0.010416666666666666
            },
            {
              "pitch": 59,
              "velocity": 58,
              "position": 14.583333333333334,
              "duration": 0.010416666666666666
            },
            {
              "pitch": 33,
              "velocity": 63,
              "position": 15,
              "duration": 0.010416666666666666
            },
            {
              "pitch": 44,
              "velocity": 89,
              "position": 15,
              "duration": 0.010416666666666666
            },
            {
              "pitch": 52,
              "velocity": 42,
              "position": 15,
              "duration": 0.010416666666666666
            },
            {
              "pitch": 59,
              "velocity": 97,
              "position": 15,
              "duration": 0.010416666666666666
            },
            {
              "pitch": 59,
              "velocity": 31,
              "position": 15.583333333333334,
              "duration": 0.010416666666666666
            },
            {
              "pitch": 33,
              "velocity": 75,
              "position": 16,
              "duration": 0.010416666666666666
            },
            {
              "pitch": 49,
              "velocity": 42,
              "position": 16,
              "duration": 0.010416666666666666
            },
            {
              "pitch": 59,
              "velocity": 115,
              "position": 16,
              "duration": 0.010416666666666666
            },
            {
              "pitch": 38,
              "velocity": 10,
              "position": 16.583333333333332,
              "duration": 0.010416666666666666
            },
            {
              "pitch": 38,
              "velocity": 33,
              "position": 17,
              "duration": 0.010416666666666666
            },
            {
              "pitch": 44,
              "velocity": 94,
              "position": 17,
              "duration": 0.010416666666666666
            },
            {
              "pitch": 59,
              "velocity": 59,
              "position": 17,
              "duration": 0.010416666666666666
            },
            {
              "pitch": 59,
              "velocity": 99,
              "position": 17.583333333333332,
              "duration": 0.010416666666666666
            },
            {
              "pitch": 38,
              "velocity": 17,
              "position": 18,
              "duration": 0.010416666666666666
            },
            {
              "pitch": 38,
              "velocity": 40,
              "position": 18.583333333333332,
              "duration": 0.010416666666666666
            },
            {
              "pitch": 59,
              "velocity": 24,
              "position": 18.583333333333332,
              "duration": 0.010416666666666666
            },
            {
              "pitch": 44,
              "velocity": 85,
              "position": 19,
              "duration": 0.010416666666666666
            },
            {
              "pitch": 59,
              "velocity": 99,
              "position": 19,
              "duration": 0.010416666666666666
            },
            {
              "pitch": 38,
              "velocity": 10,
              "position": 19.583333333333332,
              "duration": 0.010416666666666666
            },
            {
              "pitch": 38,
              "velocity": 33,
              "position": 20,
              "duration": 0.010416666666666666
            },
            {
              "pitch": 59,
              "velocity": 60,
              "position": 20,
              "duration": 0.010416666666666666
            },
            {
              "pitch": 59,
              "velocity": 99,
              "position": 20.583333333333332,
              "duration": 0.010416666666666666
            },
            {
              "pitch": 38,
              "velocity": 17,
              "position": 21,
              "duration": 0.010416666666666666
            },
            {
              "pitch": 44,
              "velocity": 88,
              "position": 21,
              "duration": 0.010416666666666666
            },
            {
              "pitch": 38,
              "velocity": 40,
              "position": 21.583333333333332,
              "duration": 0.010416666666666666
            },
            {
              "pitch": 59,
              "velocity": 23,
              "position": 21.583333333333332,
              "duration": 0.010416666666666666
            },
            {
              "pitch": 59,
              "velocity": 99,
              "position": 22,
              "duration": 0.010416666666666666
            },
            {
              "pitch": 38,
              "velocity": 10,
              "position": 22.583333333333332,
              "duration": 0.010416666666666666
            },
            {
              "pitch": 38,
              "velocity": 33,
              "position": 23,
              "duration": 0.010416666666666666
            },
            {
              "pitch": 44,
              "velocity": 87,
              "position": 23,
              "duration": 0.010416666666666666
            },
            {
              "pitch": 59,
              "velocity": 62,
              "position": 23,
              "duration": 0.010416666666666666
            },
            {
              "pitch": 33,
              "velocity": 54,
              "position": 23.583333333333332,
              "duration": 0.010416666666666666
            },
            {
              "pitch": 52,
              "velocity": 31,
              "position": 23.583333333333332,
              "duration": 0.010416666666666666
            },
            {
              "pitch": 59,
              "velocity": 115,
              "position": 23.583333333333332,
              "duration": 0.010416666666666666
            },
            {
              "pitch": 33,
              "velocity": 32,
              "position": 24.583333333333332,
              "duration": 0.010416666666666666
            },
            {
              "pitch": 59,
              "velocity": 23,
              "position": 24.583333333333332,
              "duration": 0.010416666666666666
            },
            {
              "pitch": 33,
              "velocity": 60,
              "position": 25,
              "duration": 0.010416666666666666
            },
            {
              "pitch": 44,
              "velocity": 95,
              "position": 25,
              "duration": 0.010416666666666666
            },
            {
              "pitch": 52,
              "velocity": 66,
              "position": 25,
              "duration": 0.010416666666666666
            },
            {
              "pitch": 59,
              "velocity": 99,
              "position": 25,
              "duration": 0.010416666666666666
            },
            {
              "pitch": 59,
              "velocity": 34,
              "position": 25.583333333333332,
              "duration": 0.010416666666666666
            },
            {
              "pitch": 59,
              "velocity": 65,
              "position": 26,
              "duration": 0.010416666666666666
            },
            {
              "pitch": 33,
              "velocity": 32,
              "position": 26.583333333333332,
              "duration": 0.010416666666666666
            },
            {
              "pitch": 38,
              "velocity": 53,
              "position": 27,
              "duration": 0.010416666666666666
            },
            {
              "pitch": 44,
              "velocity": 94,
              "position": 27,
              "duration": 0.010416666666666666
            },
            {
              "pitch": 59,
              "velocity": 63,
              "position": 27,
              "duration": 0.010416666666666666
            },
            {
              "pitch": 59,
              "velocity": 22,
              "position": 27.583333333333332,
              "duration": 0.010416666666666666
            },
            {
              "pitch": 59,
              "velocity": 68,
              "position": 28,
              "duration": 0.010416666666666666
            },
            {
              "pitch": 33,
              "velocity": 32,
              "position": 28.583333333333332,
              "duration": 0.010416666666666666
            },
            {
              "pitch": 33,
              "velocity": 60,
              "position": 29,
              "duration": 0.010416666666666666
            },
            {
              "pitch": 44,
              "velocity": 88,
              "position": 29,
              "duration": 0.010416666666666666
            },
            {
              "pitch": 52,
              "velocity": 31,
              "position": 29,
              "duration": 0.010416666666666666
            },
            {
              "pitch": 59,
              "velocity": 115,
              "position": 29,
              "duration": 0.010416666666666666
            },
            {
              "pitch": 59,
              "velocity": 33,
              "position": 29.583333333333332,
              "duration": 0.010416666666666666
            },
            {
              "pitch": 59,
              "velocity": 65,
              "position": 30,
              "duration": 0.010416666666666666
            },
            {
              "pitch": 33,
              "velocity": 32,
              "position": 30.583333333333332,
              "duration": 0.010416666666666666
            },
            {
              "pitch": 38,
              "velocity": 53,
              "position": 31,
              "duration": 0.010416666666666666
            },
            {
              "pitch": 44,
              "velocity": 87,
              "position": 31,
              "duration": 0.010416666666666666
            },
            {
              "pitch": 59,
              "velocity": 65,
              "position": 31,
              "duration": 0.010416666666666666
            },
            {
              "pitch": 59,
              "velocity": 19,
              "position": 31.583333333333332,
              "duration": 0.010416666666666666
            },
            {
              "pitch": 59,
              "velocity": 61,
              "position": 32,
              "duration": 0.010416666666666666
            },
            {
              "pitch": 38,
              "velocity": 32,
              "position": 32.583333333333336,
              "duration": 0.010416666666666666
            },
            {
              "pitch": 38,
              "velocity": 60,
              "position": 33,
              "duration": 0.010416666666666666
            },
            {
              "pitch": 44,
              "velocity": 82,
              "position": 33,
              "duration": 0.010416666666666666
            },
            {
              "pitch": 59,
              "velocity": 76,
              "position": 33,
              "duration": 0.010416666666666666
            },
            {
              "pitch": 38,
              "velocity": 20,
              "position": 33.583333333333336,
              "duration": 0.010416666666666666
            },
            {
              "pitch": 59,
              "velocity": 72,
              "position": 34,
              "duration": 0.010416666666666666
            },
            {
              "pitch": 38,
              "velocity": 20,
              "position": 34.583333333333336,
              "duration": 0.010416666666666666
            },
            {
              "pitch": 44,
              "velocity": 94,
              "position": 35,
              "duration": 0.010416666666666666
            },
            {
              "pitch": 33,
              "velocity": 51,
              "position": 35.083333333333336,
              "duration": 0.010416666666666666
            },
            {
              "pitch": 52,
              "velocity": 27,
              "position": 35.083333333333336,
              "duration": 0.010416666666666666
            },
            {
              "pitch": 59,
              "velocity": 115,
              "position": 35.083333333333336,
              "duration": 0.010416666666666666
            },
            {
              "pitch": 38,
              "velocity": 20,
              "position": 35.583333333333336,
              "duration": 0.010416666666666666
            },
            {
              "pitch": 38,
              "velocity": 60,
              "position": 36,
              "duration": 0.010416666666666666
            },
            {
              "pitch": 59,
              "velocity": 72,
              "position": 36,
              "duration": 0.010416666666666666
            },
            {
              "pitch": 38,
              "velocity": 20,
              "position": 36.583333333333336,
              "duration": 0.010416666666666666
            },
            {
              "pitch": 44,
              "velocity": 82,
              "position": 37,
              "duration": 0.010416666666666666
            },
            {
              "pitch": 59,
              "velocity": 71,
              "position": 37,
              "duration": 0.010416666666666666
            },
            {
              "pitch": 33,
              "velocity": 51,
              "position": 37.583333333333336,
              "duration": 0.010416666666666666
            },
            {
              "pitch": 52,
              "velocity": 27,
              "position": 37.583333333333336,
              "duration": 0.010416666666666666
            },
            {
              "pitch": 59,
              "velocity": 93,
              "position": 37.583333333333336,
              "duration": 0.010416666666666666
            },
            {
              "pitch": 38,
              "velocity": 32,
              "position": 38.583333333333336,
              "duration": 0.010416666666666666
            },
            {
              "pitch": 59,
              "velocity": 20,
              "position": 38.583333333333336,
              "duration": 0.010416666666666666
            },
            {
              "pitch": 44,
              "velocity": 78,
              "position": 39,
              "duration": 0.010416666666666666
            },
            {
              "pitch": 59,
              "velocity": 60,
              "position": 39,
              "duration": 0.010416666666666666
            },
            {
              "pitch": 33,
              "velocity": 51,
              "position": 39.583333333333336,
              "duration": 0.010416666666666666
            },
            {
              "pitch": 52,
              "velocity": 27,
              "position": 39.583333333333336,
              "duration": 0.010416666666666666
            },
            {
              "pitch": 59,
              "velocity": 93,
              "position": 39.583333333333336,
              "duration": 0.010416666666666666
            },
            {
              "pitch": 38,
              "velocity": 20,
              "position": 40.583333333333336,
              "duration": 0.010416666666666666
            },
            {
              "pitch": 59,
              "velocity": 20,
              "position": 40.583333333333336,
              "duration": 0.010416666666666666
            },
            {
              "pitch": 33,
              "velocity": 60,
              "position": 41,
              "duration": 0.010416666666666666
            },
            {
              "pitch": 44,
              "velocity": 84,
              "position": 41,
              "duration": 0.010416666666666666
            },
            {
              "pitch": 52,
              "velocity": 27,
              "position": 41,
              "duration": 0.010416666666666666
            },
            {
              "pitch": 59,
              "velocity": 93,
              "position": 41,
              "duration": 0.010416666666666666
            },
            {
              "pitch": 38,
              "velocity": 52,
              "position": 41.583333333333336,
              "duration": 0.010416666666666666
            },
            {
              "pitch": 59,
              "velocity": 59,
              "position": 42,
              "duration": 0.010416666666666666
            },
            {
              "pitch": 38,
              "velocity": 20,
              "position": 42.583333333333336,
              "duration": 0.010416666666666666
            },
            {
              "pitch": 38,
              "velocity": 60,
              "position": 43,
              "duration": 0.010416666666666666
            },
            {
              "pitch": 44,
              "velocity": 82,
              "position": 43,
              "duration": 0.010416666666666666
            },
            {
              "pitch": 59,
              "velocity": 76,
              "position": 43,
              "duration": 0.010416666666666666
            },
            {
              "pitch": 38,
              "velocity": 20,
              "position": 43.583333333333336,
              "duration": 0.010416666666666666
            },
            {
              "pitch": 59,
              "velocity": 61,
              "position": 44,
              "duration": 0.010416666666666666
            },
            {
              "pitch": 33,
              "velocity": 32,
              "position": 44.583333333333336,
              "duration": 0.010416666666666666
            },
            {
              "pitch": 59,
              "velocity": 20,
              "position": 44.583333333333336,
              "duration": 0.010416666666666666
            },
            {
              "pitch": 33,
              "velocity": 60,
              "position": 45,
              "duration": 0.010416666666666666
            },
            {
              "pitch": 44,
              "velocity": 87,
              "position": 45,
              "duration": 0.010416666666666666
            },
            {
              "pitch": 52,
              "velocity": 27,
              "position": 45,
              "duration": 0.010416666666666666
            },
            {
              "pitch": 59,
              "velocity": 93,
              "position": 45,
              "duration": 0.010416666666666666
            },
            {
              "pitch": 59,
              "velocity": 72,
              "position": 46,
              "duration": 0.010416666666666666
            },
            {
              "pitch": 33,
              "velocity": 32,
              "position": 46.583333333333336,
              "duration": 0.010416666666666666
            },
            {
              "pitch": 38,
              "velocity": 60,
              "position": 47,
              "duration": 0.010416666666666666
            },
            {
              "pitch": 44,
              "velocity": 89,
              "position": 47,
              "duration": 0.010416666666666666
            },
            {
              "pitch": 49,
              "velocity": 27,
              "position": 47,
              "duration": 0.010416666666666666
            },
            {
              "pitch": 59,
              "velocity": 115,
              "position": 47,
              "duration": 0.010416666666666666
            },
            {
              "pitch": 59,
              "velocity": 72,
              "position": 48,
              "duration": 0.010416666666666666
            },
            {
              "pitch": 38,
              "velocity": 31,
              "position": 48.333333333333336,
              "duration": 0.010416666666666666
            },
            {
              "pitch": 33,
              "velocity": 32,
              "position": 48.666666666666664,
              "duration": 0.010416666666666666
            },
            {
              "pitch": 59,
              "velocity": 20,
              "position": 48.666666666666664,
              "duration": 0.010416666666666666
            },
            {
              "pitch": 33,
              "velocity": 60,
              "position": 49,
              "duration": 0.010416666666666666
            },
            {
              "pitch": 44,
              "velocity": 94,
              "position": 49,
              "duration": 0.010416666666666666
            },
            {
              "pitch": 52,
              "velocity": 27,
              "position": 49,
              "duration": 0.010416666666666666
            },
            {
              "pitch": 59,
              "velocity": 93,
              "position": 49,
              "duration": 0.010416666666666666
            },
            {
              "pitch": 38,
              "velocity": 31,
              "position": 49.583333333333336,
              "duration": 0.010416666666666666
            },
            {
              "pitch": 59,
              "velocity": 63,
              "position": 50,
              "duration": 0.010416666666666666
            },
            {
              "pitch": 33,
              "velocity": 32,
              "position": 50.583333333333336,
              "duration": 0.010416666666666666
            },
            {
              "pitch": 38,
              "velocity": 60,
              "position": 51,
              "duration": 0.010416666666666666
            },
            {
              "pitch": 44,
              "velocity": 85,
              "position": 51,
              "duration": 0.010416666666666666
            },
            {
              "pitch": 49,
              "velocity": 27,
              "position": 51,
              "duration": 0.010416666666666666
            },
            {
              "pitch": 59,
              "velocity": 60,
              "position": 51,
              "duration": 0.010416666666666666
            },
            {
              "pitch": 59,
              "velocity": 67,
              "position": 52,
              "duration": 0.010416666666666666
            },
            {
              "pitch": 38,
              "velocity": 31,
              "position": 52.25,
              "duration": 0.010416666666666666
            },
            {
              "pitch": 33,
              "velocity": 32,
              "position": 52.583333333333336,
              "duration": 0.010416666666666666
            },
            {
              "pitch": 59,
              "velocity": 20,
              "position": 52.583333333333336,
              "duration": 0.010416666666666666
            },
            {
              "pitch": 33,
              "velocity": 60,
              "position": 53,
              "duration": 0.010416666666666666
            },
            {
              "pitch": 44,
              "velocity": 88,
              "position": 53,
              "duration": 0.010416666666666666
            },
            {
              "pitch": 52,
              "velocity": 27,
              "position": 53,
              "duration": 0.010416666666666666
            },
            {
              "pitch": 59,
              "velocity": 93,
              "position": 53,
              "duration": 0.010416666666666666
            },
            {
              "pitch": 38,
              "velocity": 31,
              "position": 53.583333333333336,
              "duration": 0.010416666666666666
            },
            {
              "pitch": 59,
              "velocity": 59,
              "position": 54,
              "duration": 0.010416666666666666
            },
            {
              "pitch": 38,
              "velocity": 31,
              "position": 54.583333333333336,
              "duration": 0.010416666666666666
            },
            {
              "pitch": 38,
              "velocity": 60,
              "position": 55,
              "duration": 0.010416666666666666
            },
            {
              "pitch": 44,
              "velocity": 87,
              "position": 55,
              "duration": 0.010416666666666666
            },
            {
              "pitch": 49,
              "velocity": 27,
              "position": 55,
              "duration": 0.010416666666666666
            },
            {
              "pitch": 59,
              "velocity": 114,
              "position": 55,
              "duration": 0.010416666666666666
            },
            {
              "pitch": 38,
              "velocity": 26,
              "position": 55.583333333333336,
              "duration": 0.010416666666666666
            },
            {
              "pitch": 59,
              "velocity": 72,
              "position": 56,
              "duration": 0.010416666666666666
            },
            {
              "pitch": 38,
              "velocity": 52,
              "position": 56.583333333333336,
              "duration": 0.010416666666666666
            },
            {
              "pitch": 44,
              "velocity": 95,
              "position": 57,
              "duration": 0.010416666666666666
            },
            {
              "pitch": 59,
              "velocity": 71,
              "position": 57,
              "duration": 0.010416666666666666
            },
            {
              "pitch": 38,
              "velocity": 26,
              "position": 57.333333333333336,
              "duration": 0.010416666666666666
            },
            {
              "pitch": 33,
              "velocity": 41,
              "position": 57.666666666666664,
              "duration": 0.010416666666666666
            },
            {
              "pitch": 38,
              "velocity": 60,
              "position": 58,
              "duration": 0.010416666666666666
            },
            {
              "pitch": 59,
              "velocity": 63,
              "position": 58,
              "duration": 0.010416666666666666
            },
            {
              "pitch": 38,
              "velocity": 26,
              "position": 58.666666666666664,
              "duration": 0.010416666666666666
            },
            {
              "pitch": 44,
              "velocity": 94,
              "position": 59,
              "duration": 0.010416666666666666
            },
            {
              "pitch": 59,
              "velocity": 60,
              "position": 59,
              "duration": 0.010416666666666666
            },
            {
              "pitch": 38,
              "velocity": 52,
              "position": 59.583333333333336,
              "duration": 0.010416666666666666
            },
            {
              "pitch": 59,
              "velocity": 67,
              "position": 60,
              "duration": 0.010416666666666666
            },
            {
              "pitch": 38,
              "velocity": 26,
              "position": 60.333333333333336,
              "duration": 0.010416666666666666
            },
            {
              "pitch": 33,
              "velocity": 41,
              "position": 60.666666666666664,
              "duration": 0.010416666666666666
            },
            {
              "pitch": 38,
              "velocity": 60,
              "position": 61,
              "duration": 0.010416666666666666
            },
            {
              "pitch": 44,
              "velocity": 88,
              "position": 61,
              "duration": 0.010416666666666666
            },
            {
              "pitch": 59,
              "velocity": 67,
              "position": 61,
              "duration": 0.010416666666666666
            },
            {
              "pitch": 38,
              "velocity": 32,
              "position": 61.666666666666664,
              "duration": 0.010416666666666666
            },
            {
              "pitch": 38,
              "velocity": 26,
              "position": 62,
              "duration": 0.010416666666666666
            },
            {
              "pitch": 59,
              "velocity": 59,
              "position": 62,
              "duration": 0.010416666666666666
            },
            {
              "pitch": 38,
              "velocity": 32,
              "position": 62.666666666666664,
              "duration": 0.010416666666666666
            },
            {
              "pitch": 44,
              "velocity": 87,
              "position": 63,
              "duration": 0.010416666666666666
            },
            {
              "pitch": 59,
              "velocity": 76,
              "position": 63,
              "duration": 0.010416666666666666
            },
            {
              "pitch": 33,
              "velocity": 32,
              "position": 63.666666666666664,
              "duration": 0.010416666666666666
            }
          ]
        }
      }
    },
    "Fill_In_CC": {
      "type": "Fill_In_CC",
      "sizeInBeats": 4,
      "channels": {
        "0": {
          "ctab": {
            "srcChannel": 0,
            "name": "BassRoot",
            "accType": "BASS",
            "editable": false,
            "mutedNotes": [],
            "mutedChords": [],
            "autoStart": false,
            "sourceChordNote": 0,
            "sourceChordType": "Maj7",
            "ctb2Low": null,
            "ctb2Main": {
              "ntr": "ROOT_TRANSPOSITION",
              "ntt": "MELODY",
              "bassOn": true,
              "chordRootUpperLimit": 3,
              "noteLowLimit": 28,
              "noteHighLimit": 127,
              "rtr": "PITCH_SHIFT_TO_ROOT"
            },
            "ctb2High": null
          },
          "notes": [
            {
              "pitch": 48,
              "velocity": 60,
              "position": 0,
              "duration": 1.65625
            },
            {
              "pitch": 48,
              "velocity": 60,
              "position": 1.6666666666666667,
              "duration": 1.9895833333333333
            }
          ]
        },
        "1": {
          "ctab": {
            "srcChannel": 1,
            "name": "Bs Rt/5",
            "accType": "BASS",
            "editable": false,
            "mutedNotes": [],
            "mutedChords": [],
            "autoStart": false,
            "sourceChordNote": 0,
            "sourceChordType": "min7(11)",
            "ctb2Low": null,
            "ctb2Main": {
              "ntr": "ROOT_FIXED",
              "ntt": "CHORD",
              "bassOn": true,
              "chordRootUpperLimit": 3,
              "noteLowLimit": 28,
              "noteHighLimit": 127,
              "rtr": "PITCH_SHIFT_TO_ROOT"
            },
            "ctb2High": null
          },
          "notes": [
            {
              "pitch": 43,
              "velocity": 60,
              "position": 0,
              "duration": 1.65625
            },
            {
              "pitch": 36,
              "velocity": 60,
              "position": 3,
              "duration": 0.9895833333333334
            }
          ]
        },
        "2": {
          "ctab": {
            "srcChannel": 2,
            "name": "Bass FX",
            "accType": "BASS",
            "editable": false,
            "mutedNotes": [],
            "mutedChords": [],
            "autoStart": false,
            "sourceChordNote": 0,
            "sourceChordType": "min7(11)",
            "ctb2Low": null,
            "ctb2Main": {
              "ntr": "ROOT_FIXED",
              "ntt": "BYPASS",
              "bassOn": false,
              "chordRootUpperLimit": 3,
              "noteLowLimit": 28,
              "noteHighLimit": 127,
              "rtr": "PITCH_SHIFT_TO_ROOT"
            },
            "ctb2High": null
          },
          "notes": []
        },
        "3": {
          "ctab": {
            "srcChannel": 3,
            "name": "PfLH",
            "accType": "CHORD1",
            "editable": false,
            "mutedNotes": [],
            "mutedChords": [],
            "autoStart": false,
            "sourceChordNote": 0,
            "sourceChordType": "Maj7",
            "ctb2Low": null,
            "ctb2Main": {
              "ntr": "ROOT_TRANSPOSITION",
              "ntt": "CHORD",
              "bassOn": false,
              "chordRootUpperLimit": 8,
              "noteLowLimit": 54,
              "noteHighLimit": 65,
              "rtr": "PITCH_SHIFT"
            },
            "ctb2High": null
          },
          "notes": [
            {
              "pitch": 55,
              "velocity": 60,
              "position": 1.6666666666666667,
              "duration": 1.9895833333333333
            },
            {
              "pitch": 59,
              "velocity": 60,
              "position": 1.6666666666666667,
              "duration": 1.9895833333333333
            },
            {
              "pitch": 64,
              "velocity": 68,
              "position": 1.6666666666666667,
              "duration": 1.9895833333333333
            }
          ]
        },
        "4": {
          "ctab": {
            "srcChannel": 4,
            "name": "PfRH",
            "accType": "CHORD2",
            "editable": false,
            "mutedNotes": [],
            "mutedChords": [
              "7(13)",
              "7(9)",
              "7b5",
              "7th",
              "min7(9)",
              "min(9)",
              "min6",
              "min",
              "Maj6(9)",
              "Maj7(9)",
              "Maj(9)",
              "Maj7",
              "Maj6",
              "Maj"
            ],
            "autoStart": false,
            "sourceChordNote": 0,
            "sourceChordType": "Maj7",
            "ctb2Low": null,
            "ctb2Main": {
              "ntr": "ROOT_TRANSPOSITION",
              "ntt": "CHORD",
              "bassOn": false,
              "chordRootUpperLimit": 6,
              "noteLowLimit": 67,
              "noteHighLimit": 84,
              "rtr": "PITCH_SHIFT"
            },
            "ctb2High": null
          },
          "notes": [
            {
              "pitch": 67,
              "velocity": 72,
              "position": 1.6666666666666667,
              "duration": 1.9895833333333333
            },
            {
              "pitch": 71,
              "velocity": 72,
              "position": 1.6666666666666667,
              "duration": 1.9895833333333333
            },
            {
              "pitch": 76,
              "velocity": 81,
              "position": 1.6666666666666667,
              "duration": 1.9895833333333333
            }
          ]
        },
        "5": {
          "ctab": {
            "srcChannel": 5,
            "name": "PfRH Maj",
            "accType": "CHORD2",
            "editable": false,
            "mutedNotes": [],
            "mutedChords": [
              "1+2+5",
              "sus4",
              "1+5",
              "1+8",
              "7aug",
              "Maj7aug",
              "7(#9)",
              "7(b13)",
              "7(b9)",
              "7(13)",
              "7#11",
              "7(9)",
              "7b5",
              "7sus4",
              "7th",
              "dim7",
              "dim",
              "minMaj7(9)",
              "minMaj7",
              "min7(11)",
              "min7(9)",
              "min(9)",
              "m7b5",
              "min7",
              "min6",
              "min",
              "aug",
              "Maj7#11"
            ],
            "autoStart": false,
            "sourceChordNote": 0,
            "sourceChordType": "Maj7",
            "ctb2Low": null,
            "ctb2Main": {
              "ntr": "ROOT_TRANSPOSITION",
              "ntt": "DORIAN_5",
              "bassOn": false,
              "chordRootUpperLimit": 6,
              "noteLowLimit": 67,
              "noteHighLimit": 79,
              "rtr": "PITCH_SHIFT"
            },
            "ctb2High": null
          },
          "notes": [
            {
              "pitch": 67,
              "velocity": 84,
              "position": 1.6666666666666667,
              "duration": 1.9895833333333333
            },
            {
              "pitch": 71,
              "velocity": 84,
              "position": 1.6666666666666667,
              "duration": 1.9895833333333333
            },
            {
              "pitch": 76,
              "velocity": 79,
              "position": 1.6666666666666667,
              "duration": 1.9895833333333333
            }
          ]
        },
        "6": {
          "ctab": {
            "srcChannel": 6,
            "name": "PfRH min",
            "accType": "CHORD2",
            "editable": false,
            "mutedNotes": [],
            "mutedChords": [
              "1+2+5",
              "sus4",
              "1+5",
              "1+8",
              "7aug",
              "Maj7aug",
              "7(#9)",
              "7(b13)",
              "7(b9)",
              "7(13)",
              "7#11",
              "7(9)",
              "7b5",
              "7sus4",
              "7th",
              "dim7",
              "dim",
              "minMaj7(9)",
              "minMaj7",
              "min7(11)",
              "min7(9)",
              "min(9)",
              "m7b5",
              "min7",
              "aug",
              "Maj6(9)",
              "Maj7(9)",
              "Maj(9)",
              "Maj7#11",
              "Maj7",
              "Maj6",
              "Maj"
            ],
            "autoStart": false,
            "sourceChordNote": 0,
            "sourceChordType": "Maj7",
            "ctb2Low": null,
            "ctb2Main": {
              "ntr": "ROOT_TRANSPOSITION",
              "ntt": "DORIAN_5",
              "bassOn": false,
              "chordRootUpperLimit": 6,
              "noteLowLimit": 67,
              "noteHighLimit": 79,
              "rtr": "PITCH_SHIFT"
            },
            "ctb2High": null
          },
          "notes": [
            {
              "pitch": 69,
              "velocity": 84,
              "position": 1.6666666666666667,
              "duration": 1.9895833333333333
            },
            {
              "pitch": 72,
              "velocity": 84,
              "position": 1.6666666666666667,
              "duration": 1.9895833333333333
            },
            {
              "pitch": 76,
              "velocity": 79,
              "position": 1.6666666666666667,
              "duration": 1.9895833333333333
            }
          ]
        },
        "7": {
          "ctab": {
            "srcChannel": 7,
            "name": "PfRH 7th",
            "accType": "CHORD2",
            "editable": false,
            "mutedNotes": [],
            "mutedChords": [
              "1+2+5",
              "sus4",
              "1+5",
              "1+8",
              "7aug",
              "Maj7aug",
              "7(#9)",
              "7(b13)",
              "7(b9)",
              "7#11",
              "7sus4",
              "dim7",
              "dim",
              "minMaj7(9)",
              "minMaj7",
              "min7(11)",
              "m7b5",
              "min7",
              "min6",
              "min",
              "aug",
              "Maj6(9)",
              "Maj7(9)",
              "Maj(9)",
              "Maj7#11",
              "Maj7",
              "Maj6",
              "Maj"
            ],
            "autoStart": false,
            "sourceChordNote": 0,
            "sourceChordType": "Maj7",
            "ctb2Low": null,
            "ctb2Main": {
              "ntr": "ROOT_TRANSPOSITION",
              "ntt": "DORIAN_5",
              "bassOn": false,
              "chordRootUpperLimit": 6,
              "noteLowLimit": 67,
              "noteHighLimit": 79,
              "rtr": "PITCH_SHIFT"
            },
            "ctb2High": null
          },
          "notes": [
            {
              "pitch": 69,
              "velocity": 84,
              "position": 1.6666666666666667,
              "duration": 1.9895833333333333
            },
            {
              "pitch": 72,
              "velocity": 84,
              "position": 1.6666666666666667,
              "duration": 1.9895833333333333
            },
            {
              "pitch": 76,
              "velocity": 79,
              "position": 1.6666666666666667,
              "duration": 1.9895833333333333
            }
          ]
        },
        "9": {
          "ctab": {
            "srcChannel": 9,
            "name": "Drs",
            "accType": "RHYTHM",
            "editable": false,
            "mutedNotes": [],
            "mutedChords": [],
            "autoStart": true,
            "sourceChordNote": 0,
            "sourceChordType": "Maj7",
            "ctb2Low": null,
            "ctb2Main": {
              "ntr": "ROOT_FIXED",
              "ntt": "BYPASS",
              "bassOn": false,
              "chordRootUpperLimit": 6,
              "noteLowLimit": 0,
              "noteHighLimit": 127,
              "rtr": "PITCH_SHIFT"
            },
            "ctb2High": null
          },
          "notes": [
            {
              "pitch": 52,
              "velocity": 44,
              "position": 0,
              "duration": 0.010416666666666666
            },
            {
              "pitch": 59,
              "velocity": 115,
              "position": 0,
              "duration": 0.010416666666666666
            },
            {
              "pitch": 38,
              "velocity": 21,
              "position": 0.3333333333333333,
              "duration": 0.010416666666666666
            },
            {
              "pitch": 38,
              "velocity": 41,
              "position": 0.6666666666666666,
              "duration": 0.010416666666666666
            },
            {
              "pitch": 44,
              "velocity": 82,
              "position": 1,
              "duration": 0.010416666666666666
            },
            {
              "pitch": 38,
              "velocity": 32,
              "position": 1.3333333333333333,
              "duration": 0.010416666666666666
            },
            {
              "pitch": 47,
              "velocity": 63,
              "position": 1.6666666666666667,
              "duration": 0.010416666666666666
            },
            {
              "pitch": 38,
              "velocity": 32,
              "position": 2,
              "duration": 0.010416666666666666
            },
            {
              "pitch": 38,
              "velocity": 24,
              "position": 2.3333333333333335,
              "duration": 0.010416666666666666
            },
            {
              "pitch": 43,
              "velocity": 80,
              "position": 2.6666666666666665,
              "duration": 0.010416666666666666
            },
            {
              "pitch": 44,
              "velocity": 94,
              "position": 3,
              "duration": 0.010416666666666666
            },
            {
              "pitch": 38,
              "velocity": 32,
              "position": 3.3333333333333335,
              "duration": 0.010416666666666666
            },
            {
              "pitch": 38,
              "velocity": 87,
              "position": 3.6666666666666665,
              "duration": 0.010416666666666666
            }
          ]
        }
      }
    },
    "Fill_In_DD": {
      "type": "Fill_In_DD",
      "sizeInBeats": 4,
      "channels": {
        "0": {
          "ctab": {
            "srcChannel": 0,
            "name": "BassRoot",
            "accType": "BASS",
            "editable": false,
            "mutedNotes": [],
            "mutedChords": [],
            "autoStart": false,
            "sourceChordNote": 0,
            "sourceChordType": "Maj7",
            "ctb2Low": null,
            "ctb2Main": {
              "ntr": "ROOT_TRANSPOSITION",
              "ntt": "MELODY",
              "bassOn": true,
              "chordRootUpperLimit": 3,
              "noteLowLimit": 28,
              "noteHighLimit": 127,
              "rtr": "PITCH_SHIFT_TO_ROOT"
            },
            "ctb2High": null
          },
          "notes": []
        },
        "1": {
          "ctab": {
            "srcChannel": 1,
            "name": "Bs Rt/5",
            "accType": "BASS",
            "editable": false,
            "mutedNotes": [],
            "mutedChords": [],
            "autoStart": false,
            "sourceChordNote": 0,
            "sourceChordType": "min7(11)",
            "ctb2Low": null,
            "ctb2Main": {
              "ntr": "ROOT_FIXED",
              "ntt": "CHORD",
              "bassOn": true,
              "chordRootUpperLimit": 3,
              "noteLowLimit": 28,
              "noteHighLimit": 127,
              "rtr": "PITCH_SHIFT_TO_ROOT"
            },
            "ctb2High": null
          },
          "notes": []
        },
        "2": {
          "ctab": {
            "srcChannel": 2,
            "name": "Bass FX",
            "accType": "BASS",
            "editable": false,
            "mutedNotes": [],
            "mutedChords": [],
            "autoStart": false,
            "sourceChordNote": 0,
            "sourceChordType": "min7(11)",
            "ctb2Low": null,
            "ctb2Main": {
              "ntr": "ROOT_FIXED",
              "ntt": "BYPASS",
              "bassOn": false,
              "chordRootUpperLimit": 3,
              "noteLowLimit": 28,
              "noteHighLimit": 127,
              "rtr": "PITCH_SHIFT_TO_ROOT"
            },
            "ctb2High": null
          },
          "notes": [
            {
              "pitch": 100,
              "velocity": 70,
              "position": 0,
              "duration": 3.9895833333333335
            }
          ]
        },
        "3": {
          "ctab": {
            "srcChannel": 3,
            "name": "PfLH",
            "accType": "CHORD1",
            "editable": false,
            "mutedNotes": [],
            "mutedChords": [],
            "autoStart": false,
            "sourceChordNote": 0,
            "sourceChordType": "Maj7",
            "ctb2Low": null,
            "ctb2Main": {
              "ntr": "ROOT_TRANSPOSITION",
              "ntt": "CHORD",
              "bassOn": false,
              "chordRootUpperLimit": 8,
              "noteLowLimit": 54,
              "noteHighLimit": 65,
              "rtr": "PITCH_SHIFT"
            },
            "ctb2High": null
          },
          "notes": [
            {
              "pitch": 55,
              "velocity": 68,
              "position": 0,
              "duration": 0.8125
            },
            {
              "pitch": 59,
              "velocity": 68,
              "position": 0,
              "duration": 0.8125
            },
            {
              "pitch": 64,
              "velocity": 61,
              "position": 0,
              "duration": 0.8229166666666666
            }
          ]
        },
        "4": {
          "ctab": {
            "srcChannel": 4,
            "name": "PfRH",
            "accType": "CHORD2",
            "editable": false,
            "mutedNotes": [],
            "mutedChords": [
              "7(13)",
              "7(9)",
              "7b5",
              "7th",
              "min7(9)",
              "min(9)",
              "min6",
              "min",
              "Maj6(9)",
              "Maj7(9)",
              "Maj(9)",
              "Maj7",
              "Maj6",
              "Maj"
            ],
            "autoStart": false,
            "sourceChordNote": 0,
            "sourceChordType": "Maj7",
            "ctb2Low": null,
            "ctb2Main": {
              "ntr": "ROOT_TRANSPOSITION",
              "ntt": "CHORD",
              "bassOn": false,
              "chordRootUpperLimit": 6,
              "noteLowLimit": 67,
              "noteHighLimit": 84,
              "rtr": "PITCH_SHIFT"
            },
            "ctb2High": null
          },
          "notes": [
            {
              "pitch": 71,
              "velocity": 75,
              "position": 0,
              "duration": 0.96875
            },
            {
              "pitch": 67,
              "velocity": 76,
              "position": 0,
              "duration": 1
            }
          ]
        },
        "5": {
          "ctab": {
            "srcChannel": 5,
            "name": "PfRH Maj",
            "accType": "CHORD2",
            "editable": false,
            "mutedNotes": [],
            "mutedChords": [
              "1+2+5",
              "sus4",
              "1+5",
              "1+8",
              "7aug",
              "Maj7aug",
              "7(#9)",
              "7(b13)",
              "7(b9)",
              "7(13)",
              "7#11",
              "7(9)",
              "7b5",
              "7sus4",
              "7th",
              "dim7",
              "dim",
              "minMaj7(9)",
              "minMaj7",
              "min7(11)",
              "min7(9)",
              "min(9)",
              "m7b5",
              "min7",
              "min6",
              "min",
              "aug",
              "Maj7#11"
            ],
            "autoStart": false,
            "sourceChordNote": 0,
            "sourceChordType": "Maj7",
            "ctb2Low": null,
            "ctb2Main": {
              "ntr": "ROOT_TRANSPOSITION",
              "ntt": "DORIAN_5",
              "bassOn": false,
              "chordRootUpperLimit": 6,
              "noteLowLimit": 67,
              "noteHighLimit": 79,
              "rtr": "PITCH_SHIFT"
            },
            "ctb2High": null
          },
          "notes": [
            {
              "pitch": 71,
              "velocity": 75,
              "position": 0,
              "duration": 0.96875
            },
            {
              "pitch": 76,
              "velocity": 75,
              "position": 0,
              "duration": 0.96875
            },
            {
              "pitch": 67,
              "velocity": 76,
              "position": 0,
              "duration": 1
            }
          ]
        },
        "6": {
          "ctab": {
            "srcChannel": 6,
            "name": "PfRH min",
            "accType": "CHORD2",
            "editable": false,
            "mutedNotes": [],
            "mutedChords": [
              "1+2+5",
              "sus4",
              "1+5",
              "1+8",
              "7aug",
              "Maj7aug",
              "7(#9)",
              "7(b13)",
              "7(b9)",
              "7(13)",
              "7#11",
              "7(9)",
              "7b5",
              "7sus4",
              "7th",
              "dim7",
              "dim",
              "minMaj7(9)",
              "minMaj7",
              "min7(11)",
              "min7(9)",
              "min(9)",
              "m7b5",
              "min7",
              "aug",
              "Maj6(9)",
              "Maj7(9)",
              "Maj(9)",
              "Maj7#11",
              "Maj7",
              "Maj6",
              "Maj"
            ],
            "autoStart": false,
            "sourceChordNote": 0,
            "sourceChordType": "Maj7",
            "ctb2Low": null,
            "ctb2Main": {
              "ntr": "ROOT_TRANSPOSITION",
              "ntt": "DORIAN_5",
              "bassOn": false,
              "chordRootUpperLimit": 6,
              "noteLowLimit": 67,
              "noteHighLimit": 79,
              "rtr": "PITCH_SHIFT"
            },
            "ctb2High": null
          },
          "notes": [
            {
              "pitch": 72,
              "velocity": 75,
              "position": 0,
              "duration": 0.96875
            },
            {
              "pitch": 76,
              "velocity": 75,
              "position": 0,
              "duration": 0.96875
            },
            {
              "pitch": 69,
              "velocity": 76,
              "position": 0,
              "duration": 1
            }
          ]
        },
        "7": {
          "ctab": {
            "srcChannel": 7,
            "name": "PfRH 7th",
            "accType": "CHORD2",
            "editable": false,
            "mutedNotes": [],
            "mutedChords": [
              "1+2+5",
              "sus4",
              "1+5",
              "1+8",
              "7aug",
              "Maj7aug",
              "7(#9)",
              "7(b13)",
              "7(b9)",
              "7#11",
              "7sus4",
              "dim7",
              "dim",
              "minMaj7(9)",
              "minMaj7",
              "min7(11)",
              "m7b5",
              "min7",
              "min6",
              "min",
              "aug",
              "Maj6(9)",
              "Maj7(9)",
              "Maj(9)",
              "Maj7#11",
              "Maj7",
              "Maj6",
              "Maj"
            ],
            "autoStart": false,
            "sourceChordNote": 0,
            "sourceChordType": "Maj7",
            "ctb2Low": null,
            "ctb2Main": {
              "ntr": "ROOT_TRANSPOSITION",
              "ntt": "DORIAN_5",
              "bassOn": false,
              "chordRootUpperLimit": 6,
              "noteLowLimit": 67,
              "noteHighLimit": 79,
              "rtr": "PITCH_SHIFT"
            },
            "ctb2High": null
          },
          "notes": [
            {
              "pitch": 74,
              "velocity": 75,
              "position": 0,
              "duration": 0.96875
            },
            {
              "pitch": 70,
              "velocity": 76,
              "position": 0,
              "duration": 1
            }
          ]
        },
        "9": {
          "ctab": {
            "srcChannel": 9,
            "name": "Drs",
            "accType": "RHYTHM",
            "editable": false,
            "mutedNotes": [],
            "mutedChords": [],
            "autoStart": true,
            "sourceChordNote": 0,
            "sourceChordType": "Maj7",
            "ctb2Low": null,
            "ctb2Main": {
              "ntr": "ROOT_FIXED",
              "ntt": "BYPASS",
              "bassOn": false,
              "chordRootUpperLimit": 6,
              "noteLowLimit": 0,
              "noteHighLimit": 127,
              "rtr": "PITCH_SHIFT"
            },
            "ctb2High": null
          },
          "notes": [
            {
              "pitch": 33,
              "velocity": 80,
              "position": 0,
              "duration": 0.010416666666666666
            },
            {
              "pitch": 38,
              "velocity": 100,
              "position": 0,
              "duration": 0.010416666666666666
            },
            {
              "pitch": 44,
              "velocity": 59,
              "position": 1,
              "duration": 0.010416666666666666
            },
            {
              "pitch": 38,
              "velocity": 11,
              "position": 2,
              "duration": 0.010416666666666666
            },
            {
              "pitch": 38,
              "velocity": 30,
              "position": 2.3333333333333335,
              "duration": 0.010416666666666666
            },
            {
              "pitch": 38,
              "velocity": 50,
              "position": 2.6666666666666665,
              "duration": 0.010416666666666666
            },
            {
              "pitch": 29,
              "velocity": 127,
              "position": 0,
              "duration": 3.0104166666666665
            },
            {
              "pitch": 38,
              "velocity": 100,
              "position": 3,
              "duration": 0.010416666666666666
            },
            {
              "pitch": 44,
              "velocity": 61,
              "position": 3,
              "duration": 0.010416666666666666
            }
          ]
        }
      }
    },
    "Fill_In_BA": {
      "type": "Fill_In_BA",
      "sizeInBeats": 4,
      "channels": {
        "0": {
          "ctab": {
            "srcChannel": 0,
            "name": "BassRoot",
            "accType": "BASS",
            "editable": false,
            "mutedNotes": [],
            "mutedChords": [],
            "autoStart": false,
            "sourceChordNote": 0,
            "sourceChordType": "Maj7",
            "ctb2Low": null,
            "ctb2Main": {
              "ntr": "ROOT_TRANSPOSITION",
              "ntt": "MELODY",
              "bassOn": true,
              "chordRootUpperLimit": 3,
              "noteLowLimit": 28,
              "noteHighLimit": 127,
              "rtr": "PITCH_SHIFT_TO_ROOT"
            },
            "ctb2High": null
          },
          "notes": []
        },
        "1": {
          "ctab": {
            "srcChannel": 1,
            "name": "Bs Rt/5",
            "accType": "BASS",
            "editable": false,
            "mutedNotes": [],
            "mutedChords": [],
            "autoStart": false,
            "sourceChordNote": 0,
            "sourceChordType": "min7(11)",
            "ctb2Low": null,
            "ctb2Main": {
              "ntr": "ROOT_FIXED",
              "ntt": "CHORD",
              "bassOn": true,
              "chordRootUpperLimit": 3,
              "noteLowLimit": 28,
              "noteHighLimit": 127,
              "rtr": "PITCH_SHIFT_TO_ROOT"
            },
            "ctb2High": null
          },
          "notes": []
        },
        "2": {
          "ctab": {
            "srcChannel": 2,
            "name": "Bass FX",
            "accType": "BASS",
            "editable": false,
            "mutedNotes": [],
            "mutedChords": [],
            "autoStart": false,
            "sourceChordNote": 0,
            "sourceChordType": "min7(11)",
            "ctb2Low": null,
            "ctb2Main": {
              "ntr": "ROOT_FIXED",
              "ntt": "BYPASS",
              "bassOn": false,
              "chordRootUpperLimit": 3,
              "noteLowLimit": 28,
              "noteHighLimit": 127,
              "rtr": "PITCH_SHIFT_TO_ROOT"
            },
            "ctb2High": null
          },
          "notes": [
            {
              "pitch": 96,
              "velocity": 80,
              "position": 0,
              "duration": 3.9895833333333335
            }
          ]
        },
        "3": {
          "ctab": {
            "srcChannel": 3,
            "name": "PfLH",
            "accType": "CHORD1",
            "editable": false,
            "mutedNotes": [],
            "mutedChords": [],
            "autoStart": false,
            "sourceChordNote": 0,
            "sourceChordType": "Maj7",
            "ctb2Low": null,
            "ctb2Main": {
              "ntr": "ROOT_TRANSPOSITION",
              "ntt": "CHORD",
              "bassOn": false,
              "chordRootUpperLimit": 8,
              "noteLowLimit": 54,
              "noteHighLimit": 65,
              "rtr": "PITCH_SHIFT"
            },
            "ctb2High": null
          },
          "notes": [
            {
              "pitch": 64,
              "velocity": 65,
              "position": 0,
              "duration": 0.96875
            },
            {
              "pitch": 55,
              "velocity": 69,
              "position": 0,
              "duration": 0.9895833333333334
            },
            {
              "pitch": 59,
              "velocity": 69,
              "position": 0,
              "duration": 0.9895833333333334
            }
          ]
        },
        "4": {
          "ctab": {
            "srcChannel": 4,
            "name": "PfRH",
            "accType": "CHORD2",
            "editable": false,
            "mutedNotes": [],
            "mutedChords": [
              "7(13)",
              "7(9)",
              "7b5",
              "7th",
              "min7(9)",
              "min(9)",
              "min6",
              "min",
              "Maj6(9)",
              "Maj7(9)",
              "Maj(9)",
              "Maj7",
              "Maj6",
              "Maj"
            ],
            "autoStart": false,
            "sourceChordNote": 0,
            "sourceChordType": "Maj7",
            "ctb2Low": null,
            "ctb2Main": {
              "ntr": "ROOT_TRANSPOSITION",
              "ntt": "CHORD",
              "bassOn": false,
              "chordRootUpperLimit": 6,
              "noteLowLimit": 67,
              "noteHighLimit": 84,
              "rtr": "PITCH_SHIFT"
            },
            "ctb2High": null
          },
          "notes": []
        },
        "5": {
          "ctab": {
            "srcChannel": 5,
            "name": "PfRH Maj",
            "accType": "CHORD2",
            "editable": false,
            "mutedNotes": [],
            "mutedChords": [
              "1+2+5",
              "sus4",
              "1+5",
              "1+8",
              "7aug",
              "Maj7aug",
              "7(#9)",
              "7(b13)",
              "7(b9)",
              "7(13)",
              "7#11",
              "7(9)",
              "7b5",
              "7sus4",
              "7th",
              "dim7",
              "dim",
              "minMaj7(9)",
              "minMaj7",
              "min7(11)",
              "min7(9)",
              "min(9)",
              "m7b5",
              "min7",
              "min6",
              "min",
              "aug",
              "Maj7#11"
            ],
            "autoStart": false,
            "sourceChordNote": 0,
            "sourceChordType": "Maj7",
            "ctb2Low": null,
            "ctb2Main": {
              "ntr": "ROOT_TRANSPOSITION",
              "ntt": "DORIAN_5",
              "bassOn": false,
              "chordRootUpperLimit": 6,
              "noteLowLimit": 67,
              "noteHighLimit": 79,
              "rtr": "PITCH_SHIFT"
            },
            "ctb2High": null
          },
          "notes": []
        },
        "6": {
          "ctab": {
            "srcChannel": 6,
            "name": "PfRH min",
            "accType": "CHORD2",
            "editable": false,
            "mutedNotes": [],
            "mutedChords": [
              "1+2+5",
              "sus4",
              "1+5",
              "1+8",
              "7aug",
              "Maj7aug",
              "7(#9)",
              "7(b13)",
              "7(b9)",
              "7(13)",
              "7#11",
              "7(9)",
              "7b5",
              "7sus4",
              "7th",
              "dim7",
              "dim",
              "minMaj7(9)",
              "minMaj7",
              "min7(11)",
              "min7(9)",
              "min(9)",
              "m7b5",
              "min7",
              "aug",
              "Maj6(9)",
              "Maj7(9)",
              "Maj(9)",
              "Maj7#11",
              "Maj7",
              "Maj6",
              "Maj"
            ],
            "autoStart": false,
            "sourceChordNote": 0,
            "sourceChordType": "Maj7",
            "ctb2Low": null,
            "ctb2Main": {
              "ntr": "ROOT_TRANSPOSITION",
              "ntt": "DORIAN_5",
              "bassOn": false,
              "chordRootUpperLimit": 6,
              "noteLowLimit": 67,
              "noteHighLimit": 79,
              "rtr": "PITCH_SHIFT"
            },
            "ctb2High": null
          },
          "notes": []
        },
        "7": {
          "ctab": {
            "srcChannel": 7,
            "name": "PfRH 7th",
            "accType": "CHORD2",
            "editable": false,
            "mutedNotes": [],
            "mutedChords": [
              "1+2+5",
              "sus4",
              "1+5",
              "1+8",
              "7aug",
              "Maj7aug",
              "7(#9)",
              "7(b13)",
              "7(b9)",
              "7#11",
              "7sus4",
              "dim7",
              "dim",
              "minMaj7(9)",
              "minMaj7",
              "min7(11)",
              "m7b5",
              "min7",
              "min6",
              "min",
              "aug",
              "Maj6(9)",
              "Maj7(9)",
              "Maj(9)",
              "Maj7#11",
              "Maj7",
              "Maj6",
              "Maj"
            ],
            "autoStart": false,
            "sourceChordNote": 0,
            "sourceChordType": "Maj7",
            "ctb2Low": null,
            "ctb2Main": {
              "ntr": "ROOT_TRANSPOSITION",
              "ntt": "DORIAN_5",
              "bassOn": false,
              "chordRootUpperLimit": 6,
              "noteLowLimit": 67,
              "noteHighLimit": 79,
              "rtr": "PITCH_SHIFT"
            },
            "ctb2High": null
          },
          "notes": []
        },
        "9": {
          "ctab": {
            "srcChannel": 9,
            "name": "Drs",
            "accType": "RHYTHM",
            "editable": false,
            "mutedNotes": [],
            "mutedChords": [],
            "autoStart": true,
            "sourceChordNote": 0,
            "sourceChordType": "Maj7",
            "ctb2Low": null,
            "ctb2Main": {
              "ntr": "ROOT_FIXED",
              "ntt": "BYPASS",
              "bassOn": false,
              "chordRootUpperLimit": 6,
              "noteLowLimit": 0,
              "noteHighLimit": 127,
              "rtr": "PITCH_SHIFT"
            },
            "ctb2High": null
          },
          "notes": [
            {
              "pitch": 33,
              "velocity": 66,
              "position": 0,
              "duration": 0.010416666666666666
            },
            {
              "pitch": 38,
              "velocity": 102,
              "position": 0,
              "duration": 0.010416666666666666
            },
            {
              "pitch": 44,
              "velocity": 69,
              "position": 0,
              "duration": 0.010416666666666666
            },
            {
              "pitch": 44,
              "velocity": 69,
              "position": 1,
              "duration": 0.010416666666666666
            },
            {
              "pitch": 44,
              "velocity": 68,
              "position": 2,
              "duration": 0.010416666666666666
            },
            {
              "pitch": 38,
              "velocity": 14,
              "position": 2.3333333333333335,
              "duration": 0.010416666666666666
            },
            {
              "pitch": 38,
              "velocity": 29,
              "position": 2.6666666666666665,
              "duration": 0.010416666666666666
            },
            {
              "pitch": 38,
              "velocity": 44,
              "position": 3,
              "duration": 0.010416666666666666
            },
            {
              "pitch": 44,
              "velocity": 68,
              "position": 3,
              "duration": 0.010416666666666666
            },
            {
              "pitch": 38,
              "velocity": 62,
              "position": 3.3333333333333335,
              "duration": 0.010416666666666666
            },
            {
              "pitch": 38,
              "velocity": 95,
              "position": 3.6666666666666665,
              "duration": 0.010416666666666666
            },
            {
              "pitch": 29,
              "velocity": 127,
              "position": 0,
              "duration": 3.9895833333333335
            },
            {
              "pitch": 57,
              "velocity": 60,
              "position": 3.9895833333333335,
              "duration": 0.010416666666666666
            }
          ]
        }
      }
    },
    "Intro_B": {
      "type": "Intro_B",
      "sizeInBeats": 32,
      "channels": {
        "0": {
          "ctab": {
            "srcChannel": 0,
            "name": "Bass",
            "accType": "BASS",
            "editable": false,
            "mutedNotes": [],
            "mutedChords": [
              "dim7",
              "dim",
              "minMaj7(9)",
              "minMaj7",
              "min7(11)",
              "min7(9)",
              "min(9)",
              "m7b5",
              "min7",
              "min6",
              "min"
            ],
            "autoStart": false,
            "sourceChordNote": 0,
            "sourceChordType": "Maj",
            "ctb2Low": null,
            "ctb2Main": {
              "ntr": "ROOT_TRANSPOSITION",
              "ntt": "BYPASS",
              "bassOn": false,
              "chordRootUpperLimit": 8,
              "noteLowLimit": 30,
              "noteHighLimit": 127,
              "rtr": "PITCH_SHIFT"
            },
            "ctb2High": null
          },
          "notes": [
            {
              "pitch": 36,
              "velocity": 60,
              "position": 0,
              "duration": 0.9895833333333334
            },
            {
              "pitch": 35,
              "velocity": 60,
              "position": 1,
              "duration": 0.9895833333333334
            },
            {
              "pitch": 33,
              "velocity": 60,
              "position": 2,
              "duration": 0.9895833333333334
            },
            {
              "pitch": 32,
              "velocity": 60,
              "position": 3,
              "duration": 0.9895833333333334
            },
            {
              "pitch": 33,
              "velocity": 60,
              "position": 4,
              "duration": 0.9895833333333334
            },
            {
              "pitch": 29,
              "velocity": 60,
              "position": 5,
              "duration": 0.9895833333333334
            },
            {
              "pitch": 28,
              "velocity": 60,
              "position": 6,
              "duration": 0.9895833333333334
            },
            {
              "pitch": 25,
              "velocity": 60,
              "position": 7,
              "duration": 0.9895833333333334
            },
            {
              "pitch": 26,
              "velocity": 60,
              "position": 8,
              "duration": 0.9895833333333334
            },
            {
              "pitch": 28,
              "velocity": 60,
              "position": 9,
              "duration": 0.9895833333333334
            },
            {
              "pitch": 29,
              "velocity": 60,
              "position": 10,
              "duration": 0.9895833333333334
            },
            {
              "pitch": 33,
              "velocity": 60,
              "position": 11,
              "duration": 0.9895833333333334
            },
            {
              "pitch": 29,
              "velocity": 60,
              "position": 12,
              "duration": 0.9895833333333334
            },
            {
              "pitch": 32,
              "velocity": 60,
              "position": 13,
              "duration": 0.9895833333333334
            },
            {
              "pitch": 36,
              "velocity": 60,
              "position": 14,
              "duration": 0.9895833333333334
            },
            {
              "pitch": 40,
              "velocity": 60,
              "position": 15,
              "duration": 0.9895833333333334
            },
            {
              "pitch": 40,
              "velocity": 60,
              "position": 16,
              "duration": 0.6354166666666666
            },
            {
              "pitch": 28,
              "velocity": 70,
              "position": 16.645833333333332,
              "duration": 0.19791666666666666
            },
            {
              "pitch": 32,
              "velocity": 60,
              "position": 17,
              "duration": 0.9895833333333334
            },
            {
              "pitch": 33,
              "velocity": 60,
              "position": 18,
              "duration": 0.9895833333333334
            },
            {
              "pitch": 40,
              "velocity": 60,
              "position": 19,
              "duration": 0.6354166666666666
            },
            {
              "pitch": 33,
              "velocity": 70,
              "position": 19.645833333333332,
              "duration": 0.19791666666666666
            },
            {
              "pitch": 38,
              "velocity": 60,
              "position": 20,
              "duration": 0.6354166666666666
            },
            {
              "pitch": 26,
              "velocity": 70,
              "position": 20.645833333333332,
              "duration": 0.19791666666666666
            },
            {
              "pitch": 30,
              "velocity": 60,
              "position": 21,
              "duration": 0.9895833333333334
            },
            {
              "pitch": 31,
              "velocity": 60,
              "position": 22,
              "duration": 0.6354166666666666
            },
            {
              "pitch": 26,
              "velocity": 70,
              "position": 22.645833333333332,
              "duration": 0.19791666666666666
            },
            {
              "pitch": 35,
              "velocity": 60,
              "position": 23,
              "duration": 0.9895833333333334
            },
            {
              "pitch": 36,
              "velocity": 60,
              "position": 24,
              "duration": 0.6354166666666666
            },
            {
              "pitch": 24,
              "velocity": 70,
              "position": 24.645833333333332,
              "duration": 0.19791666666666666
            },
            {
              "pitch": 28,
              "velocity": 60,
              "position": 25,
              "duration": 0.9895833333333334
            },
            {
              "pitch": 33,
              "velocity": 60,
              "position": 26,
              "duration": 0.9895833333333334
            },
            {
              "pitch": 32,
              "velocity": 60,
              "position": 27,
              "duration": 0.9895833333333334
            },
            {
              "pitch": 31,
              "velocity": 60,
              "position": 28,
              "duration": 0.9895833333333334
            },
            {
              "pitch": 29,
              "velocity": 60,
              "position": 29,
              "duration": 0.9895833333333334
            },
            {
              "pitch": 28,
              "velocity": 60,
              "position": 30,
              "duration": 0.9895833333333334
            },
            {
              "pitch": 31,
              "velocity": 60,
              "position": 31,
              "duration": 0.9895833333333334
            }
          ]
        },
        "1": {
          "ctab": {
            "srcChannel": 1,
            "name": "Bass",
            "accType": "BASS",
            "editable": false,
            "mutedNotes": [],
            "mutedChords": [
              "1+2+5",
              "sus4",
              "1+5",
              "1+8",
              "7aug",
              "Maj7aug",
              "7(#9)",
              "7(b13)",
              "7(b9)",
              "7(13)",
              "7#11",
              "7(9)",
              "7b5",
              "7sus4",
              "7th",
              "aug",
              "Maj6(9)",
              "Maj7(9)",
              "Maj(9)",
              "Maj7#11",
              "Maj7",
              "Maj6",
              "Maj"
            ],
            "autoStart": false,
            "sourceChordNote": 0,
            "sourceChordType": "min",
            "ctb2Low": null,
            "ctb2Main": {
              "ntr": "ROOT_TRANSPOSITION",
              "ntt": "BYPASS",
              "bassOn": false,
              "chordRootUpperLimit": 8,
              "noteLowLimit": 30,
              "noteHighLimit": 127,
              "rtr": "PITCH_SHIFT"
            },
            "ctb2High": null
          },
          "notes": [
            {
              "pitch": 36,
              "velocity": 60,
              "position": 0,
              "duration": 0.9375
            },
            {
              "pitch": 36,
              "velocity": 60,
              "position": 1,
              "duration": 0.9375
            },
            {
              "pitch": 34,
              "velocity": 60,
              "position": 2,
              "duration": 0.9375
            },
            {
              "pitch": 34,
              "velocity": 60,
              "position": 3,
              "duration": 0.9375
            },
            {
              "pitch": 33,
              "velocity": 60,
              "position": 4,
              "duration": 0.9375
            },
            {
              "pitch": 33,
              "velocity": 60,
              "position": 5,
              "duration": 0.9375
            },
            {
              "pitch": 31,
              "velocity": 60,
              "position": 6,
              "duration": 0.9375
            },
            {
              "pitch": 31,
              "velocity": 60,
              "position": 7,
              "duration": 0.9375
            },
            {
              "pitch": 32,
              "velocity": 60,
              "position": 8,
              "duration": 0.6354166666666666
            },
            {
              "pitch": 20,
              "velocity": 70,
              "position": 8.645833333333334,
              "duration": 0.19791666666666666
            },
            {
              "pitch": 24,
              "velocity": 60,
              "position": 9,
              "duration": 0.9375
            },
            {
              "pitch": 28,
              "velocity": 60,
              "position": 10,
              "duration": 0.9375
            },
            {
              "pitch": 32,
              "velocity": 60,
              "position": 11,
              "duration": 0.9375
            },
            {
              "pitch": 31,
              "velocity": 60,
              "position": 12,
              "duration": 0.9375
            },
            {
              "pitch": 33,
              "velocity": 60,
              "position": 13,
              "duration": 0.9375
            },
            {
              "pitch": 35,
              "velocity": 60,
              "position": 14,
              "duration": 0.9375
            },
            {
              "pitch": 38,
              "velocity": 60,
              "position": 15,
              "duration": 0.9375
            },
            {
              "pitch": 40,
              "velocity": 60,
              "position": 16,
              "duration": 0.6354166666666666
            },
            {
              "pitch": 28,
              "velocity": 70,
              "position": 16.645833333333332,
              "duration": 0.19791666666666666
            },
            {
              "pitch": 31,
              "velocity": 60,
              "position": 17,
              "duration": 0.9375
            },
            {
              "pitch": 32,
              "velocity": 60,
              "position": 18,
              "duration": 0.9375
            },
            {
              "pitch": 40,
              "velocity": 60,
              "position": 19,
              "duration": 0.6354166666666666
            },
            {
              "pitch": 32,
              "velocity": 70,
              "position": 19.645833333333332,
              "duration": 0.19791666666666666
            },
            {
              "pitch": 38,
              "velocity": 60,
              "position": 20,
              "duration": 0.6354166666666666
            },
            {
              "pitch": 26,
              "velocity": 70,
              "position": 20.645833333333332,
              "duration": 0.19791666666666666
            },
            {
              "pitch": 30,
              "velocity": 60,
              "position": 21,
              "duration": 0.9375
            },
            {
              "pitch": 31,
              "velocity": 60,
              "position": 22,
              "duration": 0.6354166666666666
            },
            {
              "pitch": 26,
              "velocity": 70,
              "position": 22.645833333333332,
              "duration": 0.19791666666666666
            },
            {
              "pitch": 35,
              "velocity": 60,
              "position": 23,
              "duration": 0.9375
            },
            {
              "pitch": 36,
              "velocity": 60,
              "position": 24,
              "duration": 0.6354166666666666
            },
            {
              "pitch": 24,
              "velocity": 70,
              "position": 24.645833333333332,
              "duration": 0.19791666666666666
            },
            {
              "pitch": 30,
              "velocity": 60,
              "position": 25,
              "duration": 0.9375
            },
            {
              "pitch": 31,
              "velocity": 60,
              "position": 26,
              "duration": 0.9375
            },
            {
              "pitch": 19,
              "velocity": 60,
              "position": 27,
              "duration": 0.9375
            },
            {
              "pitch": 23,
              "velocity": 60,
              "position": 28,
              "duration": 0.9375
            },
            {
              "pitch": 26,
              "velocity": 60,
              "position": 29,
              "duration": 0.9375
            },
            {
              "pitch": 31,
              "velocity": 60,
              "position": 30,
              "duration": 0.9375
            },
            {
              "pitch": 23,
              "velocity": 60,
              "position": 31,
              "duration": 0.9375
            }
          ]
        },
        "2": {
          "ctab": {
            "srcChannel": 2,
            "name": "BassFX",
            "accType": "BASS",
            "editable": false,
            "mutedNotes": [],
            "mutedChords": [],
            "autoStart": false,
            "sourceChordNote": 0,
            "sourceChordType": "min",
            "ctb2Low": null,
            "ctb2Main": {
              "ntr": "ROOT_FIXED",
              "ntt": "BYPASS",
              "bassOn": false,
              "chordRootUpperLimit": 8,
              "noteLowLimit": 0,
              "noteHighLimit": 127,
              "rtr": "PITCH_SHIFT"
            },
            "ctb2High": null
          },
          "notes": []
        },
        "3": {
          "ctab": {
            "srcChannel": 3,
            "name": "Pno LH",
            "accType": "CHORD1",
            "editable": false,
            "mutedNotes": [],
            "mutedChords": [
              "dim7",
              "dim",
              "minMaj7(9)",
              "minMaj7",
              "min7(11)",
              "min7(9)",
              "min(9)",
              "m7b5",
              "min7",
              "min6",
              "min"
            ],
            "autoStart": false,
            "sourceChordNote": 0,
            "sourceChordType": "Maj",
            "ctb2Low": null,
            "ctb2Main": {
              "ntr": "ROOT_TRANSPOSITION",
              "ntt": "BYPASS",
              "bassOn": false,
              "chordRootUpperLimit": 1,
              "noteLowLimit": 30,
              "noteHighLimit": 65,
              "rtr": "PITCH_SHIFT"
            },
            "ctb2High": null
          },
          "notes": [
            {
              "pitch": 71,
              "velocity": 68,
              "position": 0,
              "duration": 0.4895833333333333
            },
            {
              "pitch": 64,
              "velocity": 77,
              "position": 0,
              "duration": 0.5
            },
            {
              "pitch": 74,
              "velocity": 62,
              "position": 0,
              "duration": 0.5
            },
            {
              "pitch": 57,
              "velocity": 44,
              "position": 3.625,
              "duration": 0.23958333333333334
            },
            {
              "pitch": 67,
              "velocity": 55,
              "position": 3.625,
              "duration": 0.23958333333333334
            },
            {
              "pitch": 61,
              "velocity": 39,
              "position": 3.625,
              "duration": 0.2604166666666667
            },
            {
              "pitch": 60,
              "velocity": 70,
              "position": 7.625,
              "duration": 1.75
            },
            {
              "pitch": 50,
              "velocity": 60,
              "position": 7.625,
              "duration": 1.7708333333333333
            },
            {
              "pitch": 50,
              "velocity": 59,
              "position": 9.625,
              "duration": 0.23958333333333334
            },
            {
              "pitch": 60,
              "velocity": 58,
              "position": 9.625,
              "duration": 0.25
            },
            {
              "pitch": 63,
              "velocity": 63,
              "position": 12,
              "duration": 0.25
            },
            {
              "pitch": 53,
              "velocity": 68,
              "position": 12,
              "duration": 0.2604166666666667
            },
            {
              "pitch": 53,
              "velocity": 62,
              "position": 13.625,
              "duration": 0.25
            },
            {
              "pitch": 63,
              "velocity": 74,
              "position": 13.625,
              "duration": 0.2604166666666667
            },
            {
              "pitch": 62,
              "velocity": 66,
              "position": 15.625,
              "duration": 2.2604166666666665
            },
            {
              "pitch": 68,
              "velocity": 58,
              "position": 15.625,
              "duration": 2.2708333333333335
            },
            {
              "pitch": 72,
              "velocity": 62,
              "position": 15.625,
              "duration": 2.2708333333333335
            },
            {
              "pitch": 61,
              "velocity": 53,
              "position": 18,
              "duration": 1
            },
            {
              "pitch": 67,
              "velocity": 46,
              "position": 18,
              "duration": 1
            },
            {
              "pitch": 70,
              "velocity": 47,
              "position": 18,
              "duration": 1
            },
            {
              "pitch": 60,
              "velocity": 53,
              "position": 19.625,
              "duration": 2.2395833333333335
            },
            {
              "pitch": 69,
              "velocity": 47,
              "position": 19.625,
              "duration": 2.2395833333333335
            },
            {
              "pitch": 65,
              "velocity": 57,
              "position": 19.625,
              "duration": 2.25
            },
            {
              "pitch": 19,
              "velocity": 94,
              "position": 27,
              "duration": 4.65625
            }
          ]
        },
        "4": {
          "ctab": {
            "srcChannel": 4,
            "name": "Pno LH",
            "accType": "CHORD1",
            "editable": false,
            "mutedNotes": [],
            "mutedChords": [
              "1+2+5",
              "sus4",
              "1+5",
              "1+8",
              "7aug",
              "Maj7aug",
              "7(#9)",
              "7(b13)",
              "7(b9)",
              "7(13)",
              "7#11",
              "7(9)",
              "7b5",
              "7sus4",
              "7th",
              "aug",
              "Maj6(9)",
              "Maj7(9)",
              "Maj(9)",
              "Maj7#11",
              "Maj7",
              "Maj6",
              "Maj"
            ],
            "autoStart": false,
            "sourceChordNote": 0,
            "sourceChordType": "min",
            "ctb2Low": null,
            "ctb2Main": {
              "ntr": "ROOT_TRANSPOSITION",
              "ntt": "BYPASS",
              "bassOn": false,
              "chordRootUpperLimit": 1,
              "noteLowLimit": 30,
              "noteHighLimit": 65,
              "rtr": "PITCH_SHIFT"
            },
            "ctb2High": null
          },
          "notes": [
            {
              "pitch": 74,
              "velocity": 60,
              "position": 0,
              "duration": 0.4791666666666667
            },
            {
              "pitch": 70,
              "velocity": 64,
              "position": 0,
              "duration": 0.4895833333333333
            },
            {
              "pitch": 63,
              "velocity": 79,
              "position": 0,
              "duration": 0.5104166666666666
            },
            {
              "pitch": 63,
              "velocity": 35,
              "position": 3.6145833333333335,
              "duration": 0.25
            },
            {
              "pitch": 67,
              "velocity": 58,
              "position": 3.6145833333333335,
              "duration": 0.25
            },
            {
              "pitch": 61,
              "velocity": 48,
              "position": 3.6145833333333335,
              "duration": 0.2604166666666667
            },
            {
              "pitch": 66,
              "velocity": 66,
              "position": 7.625,
              "duration": 1.7395833333333333
            },
            {
              "pitch": 56,
              "velocity": 60,
              "position": 7.625,
              "duration": 1.7916666666666667
            },
            {
              "pitch": 56,
              "velocity": 59,
              "position": 9.625,
              "duration": 0.2604166666666667
            },
            {
              "pitch": 66,
              "velocity": 60,
              "position": 9.625,
              "duration": 0.2708333333333333
            },
            {
              "pitch": 65,
              "velocity": 63,
              "position": 11.989583333333334,
              "duration": 0.2604166666666667
            },
            {
              "pitch": 55,
              "velocity": 67,
              "position": 12,
              "duration": 0.2604166666666667
            },
            {
              "pitch": 65,
              "velocity": 73,
              "position": 13.614583333333334,
              "duration": 0.2604166666666667
            },
            {
              "pitch": 55,
              "velocity": 60,
              "position": 13.625,
              "duration": 0.2604166666666667
            },
            {
              "pitch": 77,
              "velocity": 58,
              "position": 15.614583333333334,
              "duration": 2.2708333333333335
            },
            {
              "pitch": 73,
              "velocity": 68,
              "position": 15.614583333333334,
              "duration": 2.28125
            },
            {
              "pitch": 67,
              "velocity": 58,
              "position": 15.625,
              "duration": 2.2708333333333335
            },
            {
              "pitch": 72,
              "velocity": 45,
              "position": 18,
              "duration": 0.9895833333333334
            },
            {
              "pitch": 75,
              "velocity": 47,
              "position": 18,
              "duration": 0.9895833333333334
            },
            {
              "pitch": 66,
              "velocity": 49,
              "position": 18,
              "duration": 1.0104166666666667
            },
            {
              "pitch": 72,
              "velocity": 52,
              "position": 19.625,
              "duration": 2.25
            },
            {
              "pitch": 75,
              "velocity": 47,
              "position": 19.625,
              "duration": 2.25
            },
            {
              "pitch": 66,
              "velocity": 57,
              "position": 19.625,
              "duration": 2.2708333333333335
            },
            {
              "pitch": 19,
              "velocity": 90,
              "position": 27,
              "duration": 4.645833333333333
            }
          ]
        },
        "5": {
          "ctab": {
            "srcChannel": 5,
            "name": "Pno RH",
            "accType": "CHORD2",
            "editable": false,
            "mutedNotes": [],
            "mutedChords": [
              "dim7",
              "dim",
              "minMaj7(9)",
              "minMaj7",
              "min7(11)",
              "min7(9)",
              "min(9)",
              "m7b5",
              "min7",
              "min6",
              "min"
            ],
            "autoStart": false,
            "sourceChordNote": 0,
            "sourceChordType": "Maj",
            "ctb2Low": null,
            "ctb2Main": {
              "ntr": "ROOT_TRANSPOSITION",
              "ntt": "BYPASS",
              "bassOn": false,
              "chordRootUpperLimit": 11,
              "noteLowLimit": 0,
              "noteHighLimit": 79,
              "rtr": "PITCH_SHIFT"
            },
            "ctb2High": null
          },
          "notes": [
            {
              "pitch": 81,
              "velocity": 127,
              "position": 0,
              "duration": 0.4479166666666667
            },
            {
              "pitch": 86,
              "velocity": 122,
              "position": 0,
              "duration": 0.4479166666666667
            },
            {
              "pitch": 79,
              "velocity": 75,
              "position": 0.625,
              "duration": 0.3854166666666667
            },
            {
              "pitch": 83,
              "velocity": 87,
              "position": 1,
              "duration": 0.4583333333333333
            },
            {
              "pitch": 82,
              "velocity": 123,
              "position": 1.625,
              "duration": 0.375
            },
            {
              "pitch": 81,
              "velocity": 73,
              "position": 2,
              "duration": 0.4479166666666667
            },
            {
              "pitch": 79,
              "velocity": 125,
              "position": 2.625,
              "duration": 0.3541666666666667
            },
            {
              "pitch": 74,
              "velocity": 85,
              "position": 3,
              "duration": 0.4479166666666667
            },
            {
              "pitch": 71,
              "velocity": 65,
              "position": 3.625,
              "duration": 0.3541666666666667
            },
            {
              "pitch": 70,
              "velocity": 127,
              "position": 3.9895833333333335,
              "duration": 0.4583333333333333
            },
            {
              "pitch": 73,
              "velocity": 123,
              "position": 3.9895833333333335,
              "duration": 0.46875
            },
            {
              "pitch": 64,
              "velocity": 43,
              "position": 4.614583333333333,
              "duration": 0.3645833333333333
            },
            {
              "pitch": 72,
              "velocity": 79,
              "position": 5,
              "duration": 0.4270833333333333
            },
            {
              "pitch": 75,
              "velocity": 70,
              "position": 5,
              "duration": 0.4583333333333333
            },
            {
              "pitch": 73,
              "velocity": 98,
              "position": 5.625,
              "duration": 0.4270833333333333
            },
            {
              "pitch": 70,
              "velocity": 105,
              "position": 5.625,
              "duration": 0.46875
            },
            {
              "pitch": 72,
              "velocity": 77,
              "position": 6.614583333333333,
              "duration": 0.4375
            },
            {
              "pitch": 69,
              "velocity": 90,
              "position": 6.625,
              "duration": 0.4270833333333333
            },
            {
              "pitch": 65,
              "velocity": 104,
              "position": 7.614583333333333,
              "duration": 1
            },
            {
              "pitch": 69,
              "velocity": 98,
              "position": 7.625,
              "duration": 0.9895833333333334
            },
            {
              "pitch": 61,
              "velocity": 72,
              "position": 8.65625,
              "duration": 0.23958333333333334
            },
            {
              "pitch": 62,
              "velocity": 71,
              "position": 9.0625,
              "duration": 0.23958333333333334
            },
            {
              "pitch": 64,
              "velocity": 81,
              "position": 9.333333333333334,
              "duration": 0.21875
            },
            {
              "pitch": 65,
              "velocity": 69,
              "position": 9.65625,
              "duration": 0.2604166666666667
            },
            {
              "pitch": 67,
              "velocity": 79,
              "position": 10.010416666666666,
              "duration": 0.21875
            },
            {
              "pitch": 69,
              "velocity": 97,
              "position": 10.322916666666666,
              "duration": 0.22916666666666666
            },
            {
              "pitch": 70,
              "velocity": 68,
              "position": 10.666666666666666,
              "duration": 0.2604166666666667
            },
            {
              "pitch": 72,
              "velocity": 83,
              "position": 11,
              "duration": 0.23958333333333334
            },
            {
              "pitch": 74,
              "velocity": 90,
              "position": 11.322916666666666,
              "duration": 0.25
            },
            {
              "pitch": 76,
              "velocity": 71,
              "position": 11.666666666666666,
              "duration": 0.25
            },
            {
              "pitch": 77,
              "velocity": 89,
              "position": 11.989583333333334,
              "duration": 0.21875
            },
            {
              "pitch": 75,
              "velocity": 50,
              "position": 12.34375,
              "duration": 0.23958333333333334
            },
            {
              "pitch": 77,
              "velocity": 83,
              "position": 12.677083333333334,
              "duration": 0.2604166666666667
            },
            {
              "pitch": 80,
              "velocity": 83,
              "position": 12.989583333333334,
              "duration": 0.23958333333333334
            },
            {
              "pitch": 77,
              "velocity": 47,
              "position": 13.322916666666666,
              "duration": 0.2604166666666667
            },
            {
              "pitch": 80,
              "velocity": 75,
              "position": 13.65625,
              "duration": 0.23958333333333334
            },
            {
              "pitch": 84,
              "velocity": 94,
              "position": 13.989583333333334,
              "duration": 0.22916666666666666
            },
            {
              "pitch": 80,
              "velocity": 49,
              "position": 14.322916666666666,
              "duration": 0.23958333333333334
            },
            {
              "pitch": 84,
              "velocity": 70,
              "position": 14.666666666666666,
              "duration": 0.22916666666666666
            },
            {
              "pitch": 87,
              "velocity": 99,
              "position": 14.989583333333334,
              "duration": 0.4479166666666667
            },
            {
              "pitch": 91,
              "velocity": 123,
              "position": 15.53125,
              "duration": 2.375
            },
            {
              "pitch": 88,
              "velocity": 125,
              "position": 15.541666666666666,
              "duration": 2.40625
            },
            {
              "pitch": 79,
              "velocity": 125,
              "position": 15.552083333333334,
              "duration": 2.3958333333333335
            },
            {
              "pitch": 87,
              "velocity": 127,
              "position": 17.979166666666668,
              "duration": 0.2604166666666667
            },
            {
              "pitch": 88,
              "velocity": 87,
              "position": 18.260416666666668,
              "duration": 0.14583333333333334
            },
            {
              "pitch": 91,
              "velocity": 123,
              "position": 18.010416666666668,
              "duration": 0.4583333333333333
            },
            {
              "pitch": 84,
              "velocity": 67,
              "position": 18.614583333333332,
              "duration": 0.3645833333333333
            },
            {
              "pitch": 81,
              "velocity": 85,
              "position": 18.989583333333332,
              "duration": 0.4583333333333333
            },
            {
              "pitch": 80,
              "velocity": 118,
              "position": 19.614583333333332,
              "duration": 0.4270833333333333
            },
            {
              "pitch": 79,
              "velocity": 76,
              "position": 19.979166666666668,
              "duration": 0.375
            },
            {
              "pitch": 76,
              "velocity": 99,
              "position": 20.625,
              "duration": 0.40625
            },
            {
              "pitch": 72,
              "velocity": 68,
              "position": 21,
              "duration": 0.34375
            },
            {
              "pitch": 69,
              "velocity": 49,
              "position": 21.614583333333332,
              "duration": 0.1875
            },
            {
              "pitch": 67,
              "velocity": 121,
              "position": 21.989583333333332,
              "duration": 0.4166666666666667
            },
            {
              "pitch": 55,
              "velocity": 52,
              "position": 22.614583333333332,
              "duration": 0.16666666666666666
            },
            {
              "pitch": 65,
              "velocity": 127,
              "position": 23,
              "duration": 0.3958333333333333
            },
            {
              "pitch": 67,
              "velocity": 101,
              "position": 23.479166666666668,
              "duration": 0.14583333333333334
            },
            {
              "pitch": 65,
              "velocity": 78,
              "position": 23.75,
              "duration": 0.1875
            },
            {
              "pitch": 64,
              "velocity": 75,
              "position": 23.989583333333332,
              "duration": 0.3645833333333333
            },
            {
              "pitch": 60,
              "velocity": 127,
              "position": 24.53125,
              "duration": 0.2916666666666667
            },
            {
              "pitch": 57,
              "velocity": 84,
              "position": 25,
              "duration": 0.375
            },
            {
              "pitch": 52,
              "velocity": 59,
              "position": 25.625,
              "duration": 0.16666666666666666
            },
            {
              "pitch": 55,
              "velocity": 125,
              "position": 25.989583333333332,
              "duration": 5.677083333333333
            }
          ]
        },
        "6": {
          "ctab": {
            "srcChannel": 6,
            "name": "Pno RH",
            "accType": "CHORD2",
            "editable": false,
            "mutedNotes": [],
            "mutedChords": [
              "1+2+5",
              "sus4",
              "1+5",
              "1+8",
              "7aug",
              "Maj7aug",
              "7(#9)",
              "7(b13)",
              "7(b9)",
              "7(13)",
              "7#11",
              "7(9)",
              "7b5",
              "7sus4",
              "7th",
              "aug",
              "Maj6(9)",
              "Maj7(9)",
              "Maj(9)",
              "Maj7#11",
              "Maj7",
              "Maj6",
              "Maj"
            ],
            "autoStart": false,
            "sourceChordNote": 0,
            "sourceChordType": "min",
            "ctb2Low": null,
            "ctb2Main": {
              "ntr": "ROOT_TRANSPOSITION",
              "ntt": "BYPASS",
              "bassOn": false,
              "chordRootUpperLimit": 9,
              "noteLowLimit": 0,
              "noteHighLimit": 79,
              "rtr": "PITCH_SHIFT"
            },
            "ctb2High": null
          },
          "notes": [
            {
              "pitch": 79,
              "velocity": 120,
              "position": 0,
              "duration": 0.4270833333333333
            },
            {
              "pitch": 84,
              "velocity": 127,
              "position": 0,
              "duration": 0.4479166666666667
            },
            {
              "pitch": 83,
              "velocity": 71,
              "position": 0.625,
              "duration": 0.3854166666666667
            },
            {
              "pitch": 86,
              "velocity": 83,
              "position": 1,
              "duration": 0.5
            },
            {
              "pitch": 83,
              "velocity": 120,
              "position": 1.625,
              "duration": 0.3541666666666667
            },
            {
              "pitch": 84,
              "velocity": 70,
              "position": 2,
              "duration": 0.46875
            },
            {
              "pitch": 79,
              "velocity": 127,
              "position": 2.625,
              "duration": 0.3541666666666667
            },
            {
              "pitch": 75,
              "velocity": 87,
              "position": 2.9895833333333335,
              "duration": 0.4791666666666667
            },
            {
              "pitch": 72,
              "velocity": 63,
              "position": 3.6145833333333335,
              "duration": 0.3854166666666667
            },
            {
              "pitch": 73,
              "velocity": 127,
              "position": 3.9895833333333335,
              "duration": 0.4270833333333333
            },
            {
              "pitch": 70,
              "velocity": 126,
              "position": 4,
              "duration": 0.4375
            },
            {
              "pitch": 67,
              "velocity": 46,
              "position": 4.625,
              "duration": 0.375
            },
            {
              "pitch": 75,
              "velocity": 76,
              "position": 5,
              "duration": 0.4270833333333333
            },
            {
              "pitch": 72,
              "velocity": 76,
              "position": 4.989583333333333,
              "duration": 0.46875
            },
            {
              "pitch": 73,
              "velocity": 96,
              "position": 5.614583333333333,
              "duration": 0.4583333333333333
            },
            {
              "pitch": 70,
              "velocity": 109,
              "position": 5.625,
              "duration": 0.46875
            },
            {
              "pitch": 69,
              "velocity": 87,
              "position": 6.614583333333333,
              "duration": 0.4583333333333333
            },
            {
              "pitch": 72,
              "velocity": 73,
              "position": 6.625,
              "duration": 0.4583333333333333
            },
            {
              "pitch": 66,
              "velocity": 102,
              "position": 7.614583333333333,
              "duration": 0.9895833333333334
            },
            {
              "pitch": 72,
              "velocity": 103,
              "position": 7.625,
              "duration": 1
            },
            {
              "pitch": 59,
              "velocity": 67,
              "position": 8.666666666666666,
              "duration": 0.21875
            },
            {
              "pitch": 60,
              "velocity": 72,
              "position": 9.072916666666666,
              "duration": 0.2708333333333333
            },
            {
              "pitch": 62,
              "velocity": 85,
              "position": 9.333333333333334,
              "duration": 0.23958333333333334
            },
            {
              "pitch": 63,
              "velocity": 67,
              "position": 9.65625,
              "duration": 0.2708333333333333
            },
            {
              "pitch": 65,
              "velocity": 79,
              "position": 9.989583333333334,
              "duration": 0.23958333333333334
            },
            {
              "pitch": 66,
              "velocity": 101,
              "position": 10.333333333333334,
              "duration": 0.23958333333333334
            },
            {
              "pitch": 68,
              "velocity": 71,
              "position": 10.666666666666666,
              "duration": 0.2604166666666667
            },
            {
              "pitch": 70,
              "velocity": 85,
              "position": 10.989583333333334,
              "duration": 0.25
            },
            {
              "pitch": 72,
              "velocity": 88,
              "position": 11.3125,
              "duration": 0.21875
            },
            {
              "pitch": 74,
              "velocity": 77,
              "position": 11.65625,
              "duration": 0.22916666666666666
            },
            {
              "pitch": 75,
              "velocity": 96,
              "position": 11.989583333333334,
              "duration": 0.25
            },
            {
              "pitch": 71,
              "velocity": 57,
              "position": 12.333333333333334,
              "duration": 0.23958333333333334
            },
            {
              "pitch": 75,
              "velocity": 84,
              "position": 12.677083333333334,
              "duration": 0.23958333333333334
            },
            {
              "pitch": 79,
              "velocity": 86,
              "position": 12.989583333333334,
              "duration": 0.23958333333333334
            },
            {
              "pitch": 75,
              "velocity": 51,
              "position": 13.333333333333334,
              "duration": 0.2604166666666667
            },
            {
              "pitch": 79,
              "velocity": 68,
              "position": 13.677083333333334,
              "duration": 0.2708333333333333
            },
            {
              "pitch": 83,
              "velocity": 95,
              "position": 13.989583333333334,
              "duration": 0.23958333333333334
            },
            {
              "pitch": 79,
              "velocity": 55,
              "position": 14.322916666666666,
              "duration": 0.2604166666666667
            },
            {
              "pitch": 83,
              "velocity": 69,
              "position": 14.666666666666666,
              "duration": 0.25
            },
            {
              "pitch": 87,
              "velocity": 104,
              "position": 14.979166666666666,
              "duration": 0.4583333333333333
            },
            {
              "pitch": 89,
              "velocity": 121,
              "position": 15.53125,
              "duration": 2.3645833333333335
            },
            {
              "pitch": 77,
              "velocity": 127,
              "position": 15.53125,
              "duration": 2.375
            },
            {
              "pitch": 84,
              "velocity": 127,
              "position": 15.541666666666666,
              "duration": 2.3854166666666665
            },
            {
              "pitch": 83,
              "velocity": 125,
              "position": 18,
              "duration": 0.23958333333333334
            },
            {
              "pitch": 84,
              "velocity": 90,
              "position": 18.260416666666668,
              "duration": 0.15625
            },
            {
              "pitch": 89,
              "velocity": 123,
              "position": 18.010416666666668,
              "duration": 0.4583333333333333
            },
            {
              "pitch": 82,
              "velocity": 71,
              "position": 18.614583333333332,
              "duration": 0.3541666666666667
            },
            {
              "pitch": 78,
              "velocity": 83,
              "position": 19,
              "duration": 0.4479166666666667
            },
            {
              "pitch": 77,
              "velocity": 119,
              "position": 19.614583333333332,
              "duration": 0.4270833333333333
            },
            {
              "pitch": 75,
              "velocity": 74,
              "position": 19.979166666666668,
              "duration": 0.3645833333333333
            },
            {
              "pitch": 72,
              "velocity": 99,
              "position": 20.625,
              "duration": 0.3958333333333333
            },
            {
              "pitch": 70,
              "velocity": 62,
              "position": 21,
              "duration": 0.34375
            },
            {
              "pitch": 67,
              "velocity": 51,
              "position": 21.614583333333332,
              "duration": 0.16666666666666666
            },
            {
              "pitch": 66,
              "velocity": 122,
              "position": 21.989583333333332,
              "duration": 0.4166666666666667
            },
            {
              "pitch": 60,
              "velocity": 51,
              "position": 22.625,
              "duration": 0.15625
            },
            {
              "pitch": 65,
              "velocity": 127,
              "position": 22.989583333333332,
              "duration": 0.3958333333333333
            },
            {
              "pitch": 66,
              "velocity": 93,
              "position": 23.479166666666668,
              "duration": 0.15625
            },
            {
              "pitch": 65,
              "velocity": 80,
              "position": 23.75,
              "duration": 0.16666666666666666
            },
            {
              "pitch": 63,
              "velocity": 76,
              "position": 23.989583333333332,
              "duration": 0.3958333333333333
            },
            {
              "pitch": 60,
              "velocity": 86,
              "position": 24.572916666666668,
              "duration": 0.3125
            },
            {
              "pitch": 54,
              "velocity": 127,
              "position": 25,
              "duration": 0.3541666666666667
            },
            {
              "pitch": 55,
              "velocity": 127,
              "position": 25.989583333333332,
              "duration": 5.635416666666667
            }
          ]
        },
        "9": {
          "ctab": {
            "srcChannel": 9,
            "name": "Drs",
            "accType": "RHYTHM",
            "editable": false,
            "mutedNotes": [],
            "mutedChords": [],
            "autoStart": true,
            "sourceChordNote": 0,
            "sourceChordType": "Maj7",
            "ctb2Low": null,
            "ctb2Main": {
              "ntr": "ROOT_FIXED",
              "ntt": "BYPASS",
              "bassOn": false,
              "chordRootUpperLimit": 6,
              "noteLowLimit": 0,
              "noteHighLimit": 127,
              "rtr": "PITCH_SHIFT"
            },
            "ctb2High": null
          },
          "notes": [
            {
              "pitch": 33,
              "velocity": 59,
              "position": 0,
              "duration": 0.010416666666666666
            },
            {
              "pitch": 59,
              "velocity": 72,
              "position": 0,
              "duration": 0.010416666666666666
            },
            {
              "pitch": 44,
              "velocity": 59,
              "position": 1,
              "duration": 0.010416666666666666
            },
            {
              "pitch": 59,
              "velocity": 70,
              "position": 1,
              "duration": 0.010416666666666666
            },
            {
              "pitch": 59,
              "velocity": 19,
              "position": 1.6666666666666667,
              "duration": 0.010416666666666666
            },
            {
              "pitch": 59,
              "velocity": 64,
              "position": 2,
              "duration": 0.010416666666666666
            },
            {
              "pitch": 37,
              "velocity": 127,
              "position": 3,
              "duration": 0.010416666666666666
            },
            {
              "pitch": 44,
              "velocity": 61,
              "position": 3,
              "duration": 0.010416666666666666
            },
            {
              "pitch": 59,
              "velocity": 76,
              "position": 3,
              "duration": 0.010416666666666666
            },
            {
              "pitch": 59,
              "velocity": 22,
              "position": 3.6666666666666665,
              "duration": 0.010416666666666666
            },
            {
              "pitch": 59,
              "velocity": 63,
              "position": 4,
              "duration": 0.010416666666666666
            },
            {
              "pitch": 44,
              "velocity": 67,
              "position": 5,
              "duration": 0.010416666666666666
            },
            {
              "pitch": 59,
              "velocity": 65,
              "position": 5,
              "duration": 0.010416666666666666
            },
            {
              "pitch": 59,
              "velocity": 35,
              "position": 5.666666666666667,
              "duration": 0.010416666666666666
            },
            {
              "pitch": 59,
              "velocity": 68,
              "position": 6,
              "duration": 0.010416666666666666
            },
            {
              "pitch": 37,
              "velocity": 127,
              "position": 7,
              "duration": 0.010416666666666666
            },
            {
              "pitch": 44,
              "velocity": 61,
              "position": 7,
              "duration": 0.010416666666666666
            },
            {
              "pitch": 59,
              "velocity": 61,
              "position": 7,
              "duration": 0.010416666666666666
            },
            {
              "pitch": 59,
              "velocity": 24,
              "position": 7.666666666666667,
              "duration": 0.010416666666666666
            },
            {
              "pitch": 59,
              "velocity": 69,
              "position": 8,
              "duration": 0.010416666666666666
            },
            {
              "pitch": 44,
              "velocity": 62,
              "position": 9,
              "duration": 0.010416666666666666
            },
            {
              "pitch": 59,
              "velocity": 65,
              "position": 9,
              "duration": 0.010416666666666666
            },
            {
              "pitch": 59,
              "velocity": 37,
              "position": 9.666666666666666,
              "duration": 0.010416666666666666
            },
            {
              "pitch": 59,
              "velocity": 71,
              "position": 10,
              "duration": 0.010416666666666666
            },
            {
              "pitch": 37,
              "velocity": 127,
              "position": 11,
              "duration": 0.010416666666666666
            },
            {
              "pitch": 44,
              "velocity": 75,
              "position": 11,
              "duration": 0.010416666666666666
            },
            {
              "pitch": 59,
              "velocity": 76,
              "position": 11,
              "duration": 0.010416666666666666
            },
            {
              "pitch": 59,
              "velocity": 21,
              "position": 11.666666666666666,
              "duration": 0.010416666666666666
            },
            {
              "pitch": 59,
              "velocity": 67,
              "position": 12,
              "duration": 0.010416666666666666
            },
            {
              "pitch": 44,
              "velocity": 74,
              "position": 13,
              "duration": 0.010416666666666666
            },
            {
              "pitch": 59,
              "velocity": 68,
              "position": 13,
              "duration": 0.010416666666666666
            },
            {
              "pitch": 59,
              "velocity": 26,
              "position": 13.666666666666666,
              "duration": 0.010416666666666666
            },
            {
              "pitch": 59,
              "velocity": 68,
              "position": 14,
              "duration": 0.010416666666666666
            },
            {
              "pitch": 37,
              "velocity": 127,
              "position": 15,
              "duration": 0.010416666666666666
            },
            {
              "pitch": 44,
              "velocity": 67,
              "position": 15,
              "duration": 0.010416666666666666
            },
            {
              "pitch": 59,
              "velocity": 73,
              "position": 15,
              "duration": 0.010416666666666666
            },
            {
              "pitch": 33,
              "velocity": 77,
              "position": 15.666666666666666,
              "duration": 0.010416666666666666
            },
            {
              "pitch": 52,
              "velocity": 37,
              "position": 15.666666666666666,
              "duration": 0.010416666666666666
            },
            {
              "pitch": 59,
              "velocity": 111,
              "position": 15.666666666666666,
              "duration": 0.010416666666666666
            },
            {
              "pitch": 44,
              "velocity": 64,
              "position": 17,
              "duration": 0.010416666666666666
            },
            {
              "pitch": 59,
              "velocity": 72,
              "position": 17,
              "duration": 0.010416666666666666
            },
            {
              "pitch": 59,
              "velocity": 34,
              "position": 17.666666666666668,
              "duration": 0.010416666666666666
            },
            {
              "pitch": 59,
              "velocity": 69,
              "position": 18,
              "duration": 0.010416666666666666
            },
            {
              "pitch": 37,
              "velocity": 127,
              "position": 19,
              "duration": 0.010416666666666666
            },
            {
              "pitch": 44,
              "velocity": 63,
              "position": 19,
              "duration": 0.010416666666666666
            },
            {
              "pitch": 59,
              "velocity": 62,
              "position": 19,
              "duration": 0.010416666666666666
            },
            {
              "pitch": 59,
              "velocity": 29,
              "position": 19.666666666666668,
              "duration": 0.010416666666666666
            },
            {
              "pitch": 59,
              "velocity": 73,
              "position": 20,
              "duration": 0.010416666666666666
            },
            {
              "pitch": 44,
              "velocity": 61,
              "position": 21,
              "duration": 0.010416666666666666
            },
            {
              "pitch": 59,
              "velocity": 73,
              "position": 21,
              "duration": 0.010416666666666666
            },
            {
              "pitch": 59,
              "velocity": 19,
              "position": 21.666666666666668,
              "duration": 0.010416666666666666
            },
            {
              "pitch": 59,
              "velocity": 67,
              "position": 22,
              "duration": 0.010416666666666666
            },
            {
              "pitch": 37,
              "velocity": 127,
              "position": 23,
              "duration": 0.010416666666666666
            },
            {
              "pitch": 44,
              "velocity": 60,
              "position": 23,
              "duration": 0.010416666666666666
            },
            {
              "pitch": 59,
              "velocity": 71,
              "position": 23,
              "duration": 0.010416666666666666
            },
            {
              "pitch": 59,
              "velocity": 19,
              "position": 23.666666666666668,
              "duration": 0.010416666666666666
            },
            {
              "pitch": 59,
              "velocity": 74,
              "position": 24,
              "duration": 0.010416666666666666
            },
            {
              "pitch": 44,
              "velocity": 68,
              "position": 25,
              "duration": 0.010416666666666666
            },
            {
              "pitch": 59,
              "velocity": 60,
              "position": 25,
              "duration": 0.010416666666666666
            },
            {
              "pitch": 59,
              "velocity": 29,
              "position": 25.666666666666668,
              "duration": 0.010416666666666666
            },
            {
              "pitch": 59,
              "velocity": 71,
              "position": 26,
              "duration": 0.010416666666666666
            },
            {
              "pitch": 37,
              "velocity": 127,
              "position": 27,
              "duration": 0.010416666666666666
            },
            {
              "pitch": 44,
              "velocity": 70,
              "position": 27,
              "duration": 0.010416666666666666
            },
            {
              "pitch": 59,
              "velocity": 75,
              "position": 27,
              "duration": 0.010416666666666666
            },
            {
              "pitch": 59,
              "velocity": 25,
              "position": 27.666666666666668,
              "duration": 0.010416666666666666
            },
            {
              "pitch": 59,
              "velocity": 77,
              "position": 28,
              "duration": 0.010416666666666666
            },
            {
              "pitch": 38,
              "velocity": 68,
              "position": 28.666666666666668,
              "duration": 0.010416666666666666
            },
            {
              "pitch": 38,
              "velocity": 25,
              "position": 29,
              "duration": 0.010416666666666666
            },
            {
              "pitch": 44,
              "velocity": 63,
              "position": 29,
              "duration": 0.010416666666666666
            },
            {
              "pitch": 59,
              "velocity": 68,
              "position": 29,
              "duration": 0.010416666666666666
            },
            {
              "pitch": 33,
              "velocity": 60,
              "position": 29.666666666666668,
              "duration": 0.010416666666666666
            },
            {
              "pitch": 59,
              "velocity": 36,
              "position": 29.666666666666668,
              "duration": 0.010416666666666666
            },
            {
              "pitch": 38,
              "velocity": 82,
              "position": 30,
              "duration": 0.010416666666666666
            },
            {
              "pitch": 59,
              "velocity": 65,
              "position": 30,
              "duration": 0.010416666666666666
            },
            {
              "pitch": 38,
              "velocity": 38,
              "position": 30.541666666666668,
              "duration": 0.010416666666666666
            },
            {
              "pitch": 57,
              "velocity": 60,
              "position": 30.989583333333332,
              "duration": 0.010416666666666666
            },
            {
              "pitch": 44,
              "velocity": 68,
              "position": 31,
              "duration": 0.010416666666666666
            },
            {
              "pitch": 59,
              "velocity": 70,
              "position": 31,
              "duration": 0.010416666666666666
            },
            {
              "pitch": 33,
              "velocity": 100,
              "position": 31.666666666666668,
              "duration": 0.010416666666666666
            },
            {
              "pitch": 49,
              "velocity": 55,
              "position": 31.666666666666668,
              "duration": 0.010416666666666666
            },
            {
              "pitch": 59,
              "velocity": 111,
              "position": 31.666666666666668,
              "duration": 0.010416666666666666
            }
          ]
        },
        "10": {
          "ctab": {
            "srcChannel": 10,
            "name": "Tpt",
            "accType": "PAD",
            "editable": false,
            "mutedNotes": [],
            "mutedChords": [
              "dim7",
              "dim",
              "minMaj7(9)",
              "minMaj7",
              "min7(11)",
              "min7(9)",
              "min(9)",
              "m7b5",
              "min7",
              "min6",
              "min"
            ],
            "autoStart": false,
            "sourceChordNote": 0,
            "sourceChordType": "Maj",
            "ctb2Low": null,
            "ctb2Main": {
              "ntr": "ROOT_TRANSPOSITION",
              "ntt": "BYPASS",
              "bassOn": false,
              "chordRootUpperLimit": 6,
              "noteLowLimit": 0,
              "noteHighLimit": 127,
              "rtr": "PITCH_SHIFT"
            },
            "ctb2High": null
          },
          "notes": []
        },
        "11": {
          "ctab": {
            "srcChannel": 11,
            "name": "Tpt",
            "accType": "PAD",
            "editable": false,
            "mutedNotes": [],
            "mutedChords": [
              "1+2+5",
              "sus4",
              "1+5",
              "1+8",
              "7aug",
              "Maj7aug",
              "7(#9)",
              "7(b13)",
              "7(b9)",
              "7(13)",
              "7#11",
              "7(9)",
              "7b5",
              "7sus4",
              "7th",
              "aug",
              "Maj6(9)",
              "Maj7(9)",
              "Maj(9)",
              "Maj7#11",
              "Maj7",
              "Maj6",
              "Maj"
            ],
            "autoStart": false,
            "sourceChordNote": 0,
            "sourceChordType": "min",
            "ctb2Low": null,
            "ctb2Main": {
              "ntr": "ROOT_TRANSPOSITION",
              "ntt": "BYPASS",
              "bassOn": false,
              "chordRootUpperLimit": 6,
              "noteLowLimit": 0,
              "noteHighLimit": 127,
              "rtr": "PITCH_SHIFT"
            },
            "ctb2High": null
          },
          "notes": []
        },
        "12": {
          "ctab": {
            "srcChannel": 12,
            "name": "Alto",
            "accType": "PHRASE1",
            "editable": false,
            "mutedNotes": [],
            "mutedChords": [
              "dim7",
              "dim",
              "minMaj7(9)",
              "minMaj7",
              "min7(11)",
              "min7(9)",
              "min(9)",
              "m7b5",
              "min7",
              "min6",
              "min"
            ],
            "autoStart": false,
            "sourceChordNote": 0,
            "sourceChordType": "Maj",
            "ctb2Low": null,
            "ctb2Main": {
              "ntr": "ROOT_TRANSPOSITION",
              "ntt": "BYPASS",
              "bassOn": false,
              "chordRootUpperLimit": 2,
              "noteLowLimit": 0,
              "noteHighLimit": 127,
              "rtr": "PITCH_SHIFT"
            },
            "ctb2High": null
          },
          "notes": []
        },
        "13": {
          "ctab": {
            "srcChannel": 13,
            "name": "Alto",
            "accType": "PHRASE1",
            "editable": false,
            "mutedNotes": [],
            "mutedChords": [
              "1+2+5",
              "sus4",
              "1+5",
              "1+8",
              "7aug",
              "Maj7aug",
              "7(#9)",
              "7(b13)",
              "7(b9)",
              "7(13)",
              "7#11",
              "7(9)",
              "7b5",
              "7sus4",
              "7th",
              "aug",
              "Maj6(9)",
              "Maj7(9)",
              "Maj(9)",
              "Maj7#11",
              "Maj7",
              "Maj6",
              "Maj"
            ],
            "autoStart": false,
            "sourceChordNote": 0,
            "sourceChordType": "min",
            "ctb2Low": null,
            "ctb2Main": {
              "ntr": "ROOT_TRANSPOSITION",
              "ntt": "BYPASS",
              "bassOn": false,
              "chordRootUpperLimit": 2,
              "noteLowLimit": 0,
              "noteHighLimit": 127,
              "rtr": "PITCH_SHIFT"
            },
            "ctb2High": null
          },
          "notes": []
        },
        "14": {
          "ctab": {
            "srcChannel": 14,
            "name": "Tenor",
            "accType": "PHRASE2",
            "editable": false,
            "mutedNotes": [],
            "mutedChords": [
              "dim7",
              "dim",
              "minMaj7(9)",
              "minMaj7",
              "min7(11)",
              "min7(9)",
              "min(9)",
              "m7b5",
              "min7",
              "min6",
              "min"
            ],
            "autoStart": false,
            "sourceChordNote": 0,
            "sourceChordType": "Maj",
            "ctb2Low": null,
            "ctb2Main": {
              "ntr": "ROOT_TRANSPOSITION",
              "ntt": "BYPASS",
              "bassOn": false,
              "chordRootUpperLimit": 9,
              "noteLowLimit": 0,
              "noteHighLimit": 127,
              "rtr": "PITCH_SHIFT"
            },
            "ctb2High": null
          },
          "notes": []
        },
        "15": {
          "ctab": {
            "srcChannel": 15,
            "name": "Tenor",
            "accType": "PHRASE2",
            "editable": false,
            "mutedNotes": [],
            "mutedChords": [
              "1+2+5",
              "sus4",
              "1+5",
              "1+8",
              "7aug",
              "Maj7aug",
              "7(#9)",
              "7(b13)",
              "7(b9)",
              "7(13)",
              "7#11",
              "7(9)",
              "7b5",
              "7sus4",
              "7th",
              "aug",
              "Maj6(9)",
              "Maj7(9)",
              "Maj(9)",
              "Maj7#11",
              "Maj7",
              "Maj6",
              "Maj"
            ],
            "autoStart": false,
            "sourceChordNote": 0,
            "sourceChordType": "min",
            "ctb2Low": null,
            "ctb2Main": {
              "ntr": "ROOT_TRANSPOSITION",
              "ntt": "BYPASS",
              "bassOn": false,
              "chordRootUpperLimit": 9,
              "noteLowLimit": 0,
              "noteHighLimit": 127,
              "rtr": "PITCH_SHIFT"
            },
            "ctb2High": null
          },
          "notes": []
        }
      }
    },
    "Intro_C": {
      "type": "Intro_C",
      "sizeInBeats": 40,
      "channels": {
        "0": {
          "ctab": {
            "srcChannel": 0,
            "name": "Bass",
            "accType": "BASS",
            "editable": false,
            "mutedNotes": [],
            "mutedChords": [
              "dim7",
              "dim",
              "minMaj7(9)",
              "minMaj7",
              "min7(11)",
              "min7(9)",
              "min(9)",
              "m7b5",
              "min7",
              "min6",
              "min"
            ],
            "autoStart": false,
            "sourceChordNote": 0,
            "sourceChordType": "Maj",
            "ctb2Low": null,
            "ctb2Main": {
              "ntr": "ROOT_TRANSPOSITION",
              "ntt": "BYPASS",
              "bassOn": false,
              "chordRootUpperLimit": 8,
              "noteLowLimit": 30,
              "noteHighLimit": 127,
              "rtr": "PITCH_SHIFT"
            },
            "ctb2High": null
          },
          "notes": [
            {
              "pitch": 24,
              "velocity": 60,
              "position": 15.666666666666666,
              "duration": 1.3020833333333333
            },
            {
              "pitch": 30,
              "velocity": 60,
              "position": 17,
              "duration": 0.9895833333333334
            },
            {
              "pitch": 30,
              "velocity": 60,
              "position": 18,
              "duration": 0.9895833333333334
            },
            {
              "pitch": 30,
              "velocity": 60,
              "position": 19,
              "duration": 0.9895833333333334
            },
            {
              "pitch": 30,
              "velocity": 60,
              "position": 20,
              "duration": 0.9895833333333334
            },
            {
              "pitch": 36,
              "velocity": 60,
              "position": 21,
              "duration": 0.9895833333333334
            },
            {
              "pitch": 36,
              "velocity": 60,
              "position": 22,
              "duration": 0.9895833333333334
            },
            {
              "pitch": 29,
              "velocity": 60,
              "position": 23,
              "duration": 0.9895833333333334
            },
            {
              "pitch": 29,
              "velocity": 60,
              "position": 24,
              "duration": 0.9895833333333334
            },
            {
              "pitch": 29,
              "velocity": 60,
              "position": 25,
              "duration": 0.9895833333333334
            },
            {
              "pitch": 32,
              "velocity": 60,
              "position": 26,
              "duration": 0.9895833333333334
            },
            {
              "pitch": 32,
              "velocity": 60,
              "position": 27,
              "duration": 0.9895833333333334
            },
            {
              "pitch": 32,
              "velocity": 60,
              "position": 28,
              "duration": 0.9895833333333334
            },
            {
              "pitch": 32,
              "velocity": 60,
              "position": 29,
              "duration": 0.9895833333333334
            },
            {
              "pitch": 32,
              "velocity": 60,
              "position": 30,
              "duration": 0.9895833333333334
            },
            {
              "pitch": 26,
              "velocity": 60,
              "position": 31,
              "duration": 0.9895833333333334
            },
            {
              "pitch": 26,
              "velocity": 60,
              "position": 32,
              "duration": 0.9895833333333334
            },
            {
              "pitch": 31,
              "velocity": 60,
              "position": 33,
              "duration": 0.9895833333333334
            },
            {
              "pitch": 31,
              "velocity": 60,
              "position": 34,
              "duration": 0.9895833333333334
            },
            {
              "pitch": 36,
              "velocity": 60,
              "position": 35,
              "duration": 0.9895833333333334
            },
            {
              "pitch": 36,
              "velocity": 60,
              "position": 36,
              "duration": 0.65625
            },
            {
              "pitch": 31,
              "velocity": 60,
              "position": 37,
              "duration": 2.65625
            }
          ]
        },
        "1": {
          "ctab": {
            "srcChannel": 1,
            "name": "Bass",
            "accType": "BASS",
            "editable": false,
            "mutedNotes": [],
            "mutedChords": [
              "1+2+5",
              "sus4",
              "1+5",
              "1+8",
              "7aug",
              "Maj7aug",
              "7(#9)",
              "7(b13)",
              "7(b9)",
              "7(13)",
              "7#11",
              "7(9)",
              "7b5",
              "7sus4",
              "7th",
              "aug",
              "Maj6(9)",
              "Maj7(9)",
              "Maj(9)",
              "Maj7#11",
              "Maj7",
              "Maj6",
              "Maj"
            ],
            "autoStart": false,
            "sourceChordNote": 0,
            "sourceChordType": "min",
            "ctb2Low": null,
            "ctb2Main": {
              "ntr": "ROOT_TRANSPOSITION",
              "ntt": "BYPASS",
              "bassOn": false,
              "chordRootUpperLimit": 8,
              "noteLowLimit": 30,
              "noteHighLimit": 127,
              "rtr": "PITCH_SHIFT"
            },
            "ctb2High": null
          },
          "notes": [
            {
              "pitch": 24,
              "velocity": 60,
              "position": 15.666666666666666,
              "duration": 1.3020833333333333
            },
            {
              "pitch": 29,
              "velocity": 60,
              "position": 17,
              "duration": 0.9895833333333334
            },
            {
              "pitch": 30,
              "velocity": 60,
              "position": 18,
              "duration": 0.9895833333333334
            },
            {
              "pitch": 30,
              "velocity": 60,
              "position": 19,
              "duration": 0.9895833333333334
            },
            {
              "pitch": 30,
              "velocity": 60,
              "position": 20,
              "duration": 0.9895833333333334
            },
            {
              "pitch": 30,
              "velocity": 60,
              "position": 21,
              "duration": 0.9895833333333334
            },
            {
              "pitch": 30,
              "velocity": 60,
              "position": 22,
              "duration": 0.9895833333333334
            },
            {
              "pitch": 30,
              "velocity": 60,
              "position": 23,
              "duration": 0.9895833333333334
            },
            {
              "pitch": 30,
              "velocity": 60,
              "position": 24,
              "duration": 0.9895833333333334
            },
            {
              "pitch": 34,
              "velocity": 60,
              "position": 25,
              "duration": 0.9895833333333334
            },
            {
              "pitch": 34,
              "velocity": 60,
              "position": 26,
              "duration": 0.9895833333333334
            },
            {
              "pitch": 27,
              "velocity": 60,
              "position": 27,
              "duration": 0.9895833333333334
            },
            {
              "pitch": 27,
              "velocity": 60,
              "position": 28,
              "duration": 0.9895833333333334
            },
            {
              "pitch": 32,
              "velocity": 60,
              "position": 29,
              "duration": 0.9895833333333334
            },
            {
              "pitch": 32,
              "velocity": 60,
              "position": 30,
              "duration": 0.9895833333333334
            },
            {
              "pitch": 26,
              "velocity": 60,
              "position": 31,
              "duration": 0.9895833333333334
            },
            {
              "pitch": 26,
              "velocity": 60,
              "position": 32,
              "duration": 0.9895833333333334
            },
            {
              "pitch": 31,
              "velocity": 60,
              "position": 33,
              "duration": 0.9895833333333334
            },
            {
              "pitch": 31,
              "velocity": 60,
              "position": 34,
              "duration": 0.9895833333333334
            },
            {
              "pitch": 36,
              "velocity": 60,
              "position": 35,
              "duration": 0.9895833333333334
            },
            {
              "pitch": 36,
              "velocity": 60,
              "position": 36,
              "duration": 0.65625
            },
            {
              "pitch": 31,
              "velocity": 60,
              "position": 37,
              "duration": 2.65625
            }
          ]
        },
        "2": {
          "ctab": {
            "srcChannel": 2,
            "name": "BassFX",
            "accType": "BASS",
            "editable": false,
            "mutedNotes": [],
            "mutedChords": [],
            "autoStart": false,
            "sourceChordNote": 0,
            "sourceChordType": "min",
            "ctb2Low": null,
            "ctb2Main": {
              "ntr": "ROOT_FIXED",
              "ntt": "BYPASS",
              "bassOn": false,
              "chordRootUpperLimit": 8,
              "noteLowLimit": 0,
              "noteHighLimit": 127,
              "rtr": "PITCH_SHIFT"
            },
            "ctb2High": null
          },
          "notes": []
        },
        "3": {
          "ctab": {
            "srcChannel": 3,
            "name": "Pno LH",
            "accType": "CHORD1",
            "editable": false,
            "mutedNotes": [],
            "mutedChords": [
              "dim7",
              "dim",
              "minMaj7(9)",
              "minMaj7",
              "min7(11)",
              "min7(9)",
              "min(9)",
              "m7b5",
              "min7",
              "min6",
              "min"
            ],
            "autoStart": false,
            "sourceChordNote": 0,
            "sourceChordType": "Maj",
            "ctb2Low": null,
            "ctb2Main": {
              "ntr": "ROOT_TRANSPOSITION",
              "ntt": "BYPASS",
              "bassOn": false,
              "chordRootUpperLimit": 1,
              "noteLowLimit": 30,
              "noteHighLimit": 65,
              "rtr": "PITCH_SHIFT"
            },
            "ctb2High": null
          },
          "notes": [
            {
              "pitch": 74,
              "velocity": 81,
              "position": 15.5625,
              "duration": 0.6041666666666666
            },
            {
              "pitch": 64,
              "velocity": 82,
              "position": 15.583333333333334,
              "duration": 0.59375
            },
            {
              "pitch": 71,
              "velocity": 83,
              "position": 15.59375,
              "duration": 0.6041666666666666
            },
            {
              "pitch": 74,
              "velocity": 81,
              "position": 16.96875,
              "duration": 0.6041666666666666
            },
            {
              "pitch": 64,
              "velocity": 82,
              "position": 17,
              "duration": 0.5833333333333334
            },
            {
              "pitch": 71,
              "velocity": 83,
              "position": 17,
              "duration": 0.6041666666666666
            },
            {
              "pitch": 71,
              "velocity": 61,
              "position": 18.5625,
              "duration": 0.2708333333333333
            },
            {
              "pitch": 64,
              "velocity": 56,
              "position": 18.583333333333332,
              "duration": 0.2604166666666667
            },
            {
              "pitch": 74,
              "velocity": 56,
              "position": 18.572916666666668,
              "duration": 0.2916666666666667
            },
            {
              "pitch": 65,
              "velocity": 76,
              "position": 19.645833333333332,
              "duration": 1.6041666666666667
            },
            {
              "pitch": 74,
              "velocity": 79,
              "position": 19.645833333333332,
              "duration": 1.6145833333333333
            },
            {
              "pitch": 70,
              "velocity": 76,
              "position": 19.666666666666668,
              "duration": 1.6041666666666667
            },
            {
              "pitch": 64,
              "velocity": 78,
              "position": 21.572916666666668,
              "duration": 1.2708333333333333
            },
            {
              "pitch": 70,
              "velocity": 81,
              "position": 21.583333333333332,
              "duration": 1.2604166666666667
            },
            {
              "pitch": 74,
              "velocity": 82,
              "position": 21.572916666666668,
              "duration": 1.28125
            },
            {
              "pitch": 69,
              "velocity": 80,
              "position": 23.989583333333332,
              "duration": 0.625
            },
            {
              "pitch": 75,
              "velocity": 83,
              "position": 23.989583333333332,
              "duration": 0.625
            },
            {
              "pitch": 75,
              "velocity": 82,
              "position": 25.979166666666668,
              "duration": 0.6041666666666666
            },
            {
              "pitch": 69,
              "velocity": 84,
              "position": 26.010416666666668,
              "duration": 0.6041666666666666
            },
            {
              "pitch": 67,
              "velocity": 80,
              "position": 27.989583333333332,
              "duration": 0.28125
            },
            {
              "pitch": 69,
              "velocity": 80,
              "position": 28,
              "duration": 0.2708333333333333
            },
            {
              "pitch": 76,
              "velocity": 79,
              "position": 28.010416666666668,
              "duration": 0.28125
            },
            {
              "pitch": 67,
              "velocity": 80,
              "position": 29.666666666666668,
              "duration": 0.2708333333333333
            },
            {
              "pitch": 73,
              "velocity": 83,
              "position": 29.666666666666668,
              "duration": 0.28125
            },
            {
              "pitch": 77,
              "velocity": 81,
              "position": 29.677083333333332,
              "duration": 0.28125
            },
            {
              "pitch": 72,
              "velocity": 79,
              "position": 31.645833333333332,
              "duration": 0.28125
            },
            {
              "pitch": 76,
              "velocity": 77,
              "position": 31.666666666666668,
              "duration": 0.2604166666666667
            },
            {
              "pitch": 65,
              "velocity": 79,
              "position": 31.677083333333332,
              "duration": 0.2604166666666667
            },
            {
              "pitch": 76,
              "velocity": 76,
              "position": 33.65625,
              "duration": 1.9166666666666667
            },
            {
              "pitch": 65,
              "velocity": 82,
              "position": 33.65625,
              "duration": 1.9375
            },
            {
              "pitch": 71,
              "velocity": 80,
              "position": 33.65625,
              "duration": 1.9375
            },
            {
              "pitch": 69,
              "velocity": 83,
              "position": 36.010416666666664,
              "duration": 0.5833333333333334
            },
            {
              "pitch": 76,
              "velocity": 79,
              "position": 36.010416666666664,
              "duration": 0.6145833333333334
            },
            {
              "pitch": 31,
              "velocity": 109,
              "position": 37,
              "duration": 2.9791666666666665
            }
          ]
        },
        "4": {
          "ctab": {
            "srcChannel": 4,
            "name": "Pno LH",
            "accType": "CHORD1",
            "editable": false,
            "mutedNotes": [],
            "mutedChords": [
              "1+2+5",
              "sus4",
              "1+5",
              "1+8",
              "7aug",
              "Maj7aug",
              "7(#9)",
              "7(b13)",
              "7(b9)",
              "7(13)",
              "7#11",
              "7(9)",
              "7b5",
              "7sus4",
              "7th",
              "aug",
              "Maj6(9)",
              "Maj7(9)",
              "Maj(9)",
              "Maj7#11",
              "Maj7",
              "Maj6",
              "Maj"
            ],
            "autoStart": false,
            "sourceChordNote": 0,
            "sourceChordType": "min",
            "ctb2Low": null,
            "ctb2Main": {
              "ntr": "ROOT_TRANSPOSITION",
              "ntt": "BYPASS",
              "bassOn": false,
              "chordRootUpperLimit": 1,
              "noteLowLimit": 30,
              "noteHighLimit": 65,
              "rtr": "PITCH_SHIFT"
            },
            "ctb2High": null
          },
          "notes": [
            {
              "pitch": 74,
              "velocity": 81,
              "position": 15.5625,
              "duration": 0.6041666666666666
            },
            {
              "pitch": 63,
              "velocity": 82,
              "position": 15.583333333333334,
              "duration": 0.59375
            },
            {
              "pitch": 69,
              "velocity": 83,
              "position": 15.59375,
              "duration": 0.6041666666666666
            },
            {
              "pitch": 74,
              "velocity": 81,
              "position": 16.96875,
              "duration": 0.6041666666666666
            },
            {
              "pitch": 63,
              "velocity": 82,
              "position": 17,
              "duration": 0.5833333333333334
            },
            {
              "pitch": 69,
              "velocity": 83,
              "position": 17,
              "duration": 0.6041666666666666
            },
            {
              "pitch": 69,
              "velocity": 61,
              "position": 18.5625,
              "duration": 0.2708333333333333
            },
            {
              "pitch": 63,
              "velocity": 56,
              "position": 18.583333333333332,
              "duration": 0.2604166666666667
            },
            {
              "pitch": 74,
              "velocity": 56,
              "position": 18.572916666666668,
              "duration": 0.2916666666666667
            },
            {
              "pitch": 65,
              "velocity": 76,
              "position": 19.645833333333332,
              "duration": 1.6041666666666667
            },
            {
              "pitch": 74,
              "velocity": 79,
              "position": 19.645833333333332,
              "duration": 1.6145833333333333
            },
            {
              "pitch": 70,
              "velocity": 76,
              "position": 19.666666666666668,
              "duration": 1.6041666666666667
            },
            {
              "pitch": 64,
              "velocity": 78,
              "position": 21.572916666666668,
              "duration": 1.2708333333333333
            },
            {
              "pitch": 70,
              "velocity": 81,
              "position": 21.583333333333332,
              "duration": 1.2604166666666667
            },
            {
              "pitch": 75,
              "velocity": 82,
              "position": 21.572916666666668,
              "duration": 1.28125
            },
            {
              "pitch": 68,
              "velocity": 80,
              "position": 23.635416666666668,
              "duration": 0.625
            },
            {
              "pitch": 75,
              "velocity": 83,
              "position": 23.635416666666668,
              "duration": 0.625
            },
            {
              "pitch": 74,
              "velocity": 82,
              "position": 25.645833333333332,
              "duration": 0.6041666666666666
            },
            {
              "pitch": 68,
              "velocity": 84,
              "position": 25.677083333333332,
              "duration": 0.6041666666666666
            },
            {
              "pitch": 67,
              "velocity": 80,
              "position": 27.65625,
              "duration": 0.28125
            },
            {
              "pitch": 74,
              "velocity": 80,
              "position": 27.666666666666668,
              "duration": 0.2708333333333333
            },
            {
              "pitch": 77,
              "velocity": 79,
              "position": 27.677083333333332,
              "duration": 0.28125
            },
            {
              "pitch": 66,
              "velocity": 80,
              "position": 29.666666666666668,
              "duration": 0.2708333333333333
            },
            {
              "pitch": 72,
              "velocity": 83,
              "position": 29.666666666666668,
              "duration": 0.28125
            },
            {
              "pitch": 75,
              "velocity": 81,
              "position": 29.677083333333332,
              "duration": 0.28125
            },
            {
              "pitch": 72,
              "velocity": 79,
              "position": 31.645833333333332,
              "duration": 0.28125
            },
            {
              "pitch": 75,
              "velocity": 77,
              "position": 31.666666666666668,
              "duration": 0.2604166666666667
            },
            {
              "pitch": 66,
              "velocity": 79,
              "position": 31.677083333333332,
              "duration": 0.2604166666666667
            },
            {
              "pitch": 75,
              "velocity": 76,
              "position": 33.65625,
              "duration": 1.9166666666666667
            },
            {
              "pitch": 65,
              "velocity": 82,
              "position": 33.65625,
              "duration": 1.9375
            },
            {
              "pitch": 71,
              "velocity": 80,
              "position": 33.65625,
              "duration": 1.9375
            },
            {
              "pitch": 70,
              "velocity": 83,
              "position": 36.010416666666664,
              "duration": 0.5833333333333334
            },
            {
              "pitch": 75,
              "velocity": 79,
              "position": 36.010416666666664,
              "duration": 0.6145833333333334
            },
            {
              "pitch": 31,
              "velocity": 109,
              "position": 37,
              "duration": 2.9791666666666665
            }
          ]
        },
        "5": {
          "ctab": {
            "srcChannel": 5,
            "name": "Pno RH",
            "accType": "CHORD2",
            "editable": false,
            "mutedNotes": [],
            "mutedChords": [
              "dim7",
              "dim",
              "minMaj7(9)",
              "minMaj7",
              "min7(11)",
              "min7(9)",
              "min(9)",
              "m7b5",
              "min7",
              "min6",
              "min"
            ],
            "autoStart": false,
            "sourceChordNote": 0,
            "sourceChordType": "Maj",
            "ctb2Low": null,
            "ctb2Main": {
              "ntr": "ROOT_TRANSPOSITION",
              "ntt": "BYPASS",
              "bassOn": false,
              "chordRootUpperLimit": 11,
              "noteLowLimit": 0,
              "noteHighLimit": 79,
              "rtr": "PITCH_SHIFT"
            },
            "ctb2High": null
          },
          "notes": [
            {
              "pitch": 68,
              "velocity": 100,
              "position": 6.666666666666667,
              "duration": 0.2708333333333333
            },
            {
              "pitch": 69,
              "velocity": 36,
              "position": 7,
              "duration": 0.3541666666666667
            },
            {
              "pitch": 72,
              "velocity": 36,
              "position": 7.333333333333333,
              "duration": 0.3541666666666667
            },
            {
              "pitch": 76,
              "velocity": 49,
              "position": 7.666666666666667,
              "duration": 0.3541666666666667
            },
            {
              "pitch": 79,
              "velocity": 70,
              "position": 8,
              "duration": 0.5208333333333334
            },
            {
              "pitch": 78,
              "velocity": 100,
              "position": 8.583333333333334,
              "duration": 0.3541666666666667
            },
            {
              "pitch": 77,
              "velocity": 44,
              "position": 9,
              "duration": 0.5208333333333334
            },
            {
              "pitch": 75,
              "velocity": 29,
              "position": 9.583333333333334,
              "duration": 0.3541666666666667
            },
            {
              "pitch": 76,
              "velocity": 82,
              "position": 10,
              "duration": 0.5208333333333334
            },
            {
              "pitch": 72,
              "velocity": 100,
              "position": 10.583333333333334,
              "duration": 0.3541666666666667
            },
            {
              "pitch": 69,
              "velocity": 70,
              "position": 11,
              "duration": 0.5208333333333334
            },
            {
              "pitch": 64,
              "velocity": 30,
              "position": 11.583333333333334,
              "duration": 0.3541666666666667
            },
            {
              "pitch": 67,
              "velocity": 100,
              "position": 12,
              "duration": 0.5208333333333334
            },
            {
              "pitch": 66,
              "velocity": 58,
              "position": 12.583333333333334,
              "duration": 0.3541666666666667
            },
            {
              "pitch": 65,
              "velocity": 77,
              "position": 13,
              "duration": 0.5208333333333334
            },
            {
              "pitch": 63,
              "velocity": 25,
              "position": 13.583333333333334,
              "duration": 0.3541666666666667
            },
            {
              "pitch": 64,
              "velocity": 100,
              "position": 14,
              "duration": 0.9375
            },
            {
              "pitch": 67,
              "velocity": 34,
              "position": 15,
              "duration": 0.5208333333333334
            },
            {
              "pitch": 67,
              "velocity": 80,
              "position": 15.583333333333334,
              "duration": 0.6041666666666666
            },
            {
              "pitch": 74,
              "velocity": 80,
              "position": 15.583333333333334,
              "duration": 0.6041666666666666
            },
            {
              "pitch": 79,
              "velocity": 80,
              "position": 15.583333333333334,
              "duration": 0.6041666666666666
            },
            {
              "pitch": 67,
              "velocity": 80,
              "position": 16.916666666666668,
              "duration": 1.2708333333333333
            },
            {
              "pitch": 74,
              "velocity": 80,
              "position": 16.916666666666668,
              "duration": 1.2708333333333333
            },
            {
              "pitch": 79,
              "velocity": 80,
              "position": 16.916666666666668,
              "duration": 1.2708333333333333
            },
            {
              "pitch": 65,
              "velocity": 80,
              "position": 19.666666666666668,
              "duration": 1.2708333333333333
            },
            {
              "pitch": 69,
              "velocity": 80,
              "position": 19.666666666666668,
              "duration": 1.2708333333333333
            },
            {
              "pitch": 74,
              "velocity": 80,
              "position": 19.666666666666668,
              "duration": 1.2708333333333333
            },
            {
              "pitch": 67,
              "velocity": 80,
              "position": 21.583333333333332,
              "duration": 1.2708333333333333
            },
            {
              "pitch": 72,
              "velocity": 80,
              "position": 21.583333333333332,
              "duration": 1.2708333333333333
            },
            {
              "pitch": 68,
              "velocity": 74,
              "position": 22.666666666666668,
              "duration": 0.2708333333333333
            },
            {
              "pitch": 69,
              "velocity": 36,
              "position": 23,
              "duration": 0.5208333333333334
            },
            {
              "pitch": 71,
              "velocity": 126,
              "position": 23.583333333333332,
              "duration": 0.3541666666666667
            },
            {
              "pitch": 72,
              "velocity": 70,
              "position": 24,
              "duration": 0.5208333333333334
            },
            {
              "pitch": 69,
              "velocity": 94,
              "position": 24.583333333333332,
              "duration": 0.3541666666666667
            },
            {
              "pitch": 65,
              "velocity": 45,
              "position": 25,
              "duration": 0.5208333333333334
            },
            {
              "pitch": 62,
              "velocity": 94,
              "position": 25.583333333333332,
              "duration": 0.3541666666666667
            },
            {
              "pitch": 63,
              "velocity": 52,
              "position": 26,
              "duration": 0.3541666666666667
            },
            {
              "pitch": 69,
              "velocity": 63,
              "position": 26.333333333333332,
              "duration": 0.3541666666666667
            },
            {
              "pitch": 72,
              "velocity": 120,
              "position": 26.666666666666668,
              "duration": 0.2708333333333333
            },
            {
              "pitch": 71,
              "velocity": 88,
              "position": 27,
              "duration": 0.5208333333333334
            },
            {
              "pitch": 69,
              "velocity": 65,
              "position": 27.583333333333332,
              "duration": 0.3541666666666667
            },
            {
              "pitch": 67,
              "velocity": 102,
              "position": 28,
              "duration": 0.5208333333333334
            },
            {
              "pitch": 69,
              "velocity": 56,
              "position": 28.583333333333332,
              "duration": 0.3541666666666667
            },
            {
              "pitch": 70,
              "velocity": 79,
              "position": 29,
              "duration": 0.5208333333333334
            },
            {
              "pitch": 68,
              "velocity": 37,
              "position": 29.583333333333332,
              "duration": 0.3541666666666667
            },
            {
              "pitch": 69,
              "velocity": 127,
              "position": 30,
              "duration": 0.5208333333333334
            },
            {
              "pitch": 64,
              "velocity": 69,
              "position": 30.583333333333332,
              "duration": 0.3541666666666667
            },
            {
              "pitch": 67,
              "velocity": 88,
              "position": 31,
              "duration": 0.5208333333333334
            },
            {
              "pitch": 66,
              "velocity": 126,
              "position": 31.583333333333332,
              "duration": 0.3541666666666667
            },
            {
              "pitch": 65,
              "velocity": 88,
              "position": 32,
              "duration": 0.5208333333333334
            },
            {
              "pitch": 69,
              "velocity": 48,
              "position": 32.583333333333336,
              "duration": 0.3541666666666667
            },
            {
              "pitch": 72,
              "velocity": 81,
              "position": 33,
              "duration": 0.5208333333333334
            },
            {
              "pitch": 75,
              "velocity": 126,
              "position": 33.583333333333336,
              "duration": 0.40625
            },
            {
              "pitch": 76,
              "velocity": 79,
              "position": 34,
              "duration": 0.5208333333333334
            },
            {
              "pitch": 72,
              "velocity": 120,
              "position": 34.666666666666664,
              "duration": 0.2708333333333333
            },
            {
              "pitch": 69,
              "velocity": 79,
              "position": 35,
              "duration": 0.5208333333333334
            },
            {
              "pitch": 67,
              "velocity": 37,
              "position": 35.583333333333336,
              "duration": 0.3541666666666667
            },
            {
              "pitch": 64,
              "velocity": 127,
              "position": 36,
              "duration": 0.5208333333333334
            },
            {
              "pitch": 72,
              "velocity": 127,
              "position": 36,
              "duration": 0.5208333333333334
            }
          ]
        },
        "6": {
          "ctab": {
            "srcChannel": 6,
            "name": "Pno RH",
            "accType": "CHORD2",
            "editable": false,
            "mutedNotes": [],
            "mutedChords": [
              "1+2+5",
              "sus4",
              "1+5",
              "1+8",
              "7aug",
              "Maj7aug",
              "7(#9)",
              "7(b13)",
              "7(b9)",
              "7(13)",
              "7#11",
              "7(9)",
              "7b5",
              "7sus4",
              "7th",
              "aug",
              "Maj6(9)",
              "Maj7(9)",
              "Maj(9)",
              "Maj7#11",
              "Maj7",
              "Maj6",
              "Maj"
            ],
            "autoStart": false,
            "sourceChordNote": 0,
            "sourceChordType": "min",
            "ctb2Low": null,
            "ctb2Main": {
              "ntr": "ROOT_TRANSPOSITION",
              "ntt": "BYPASS",
              "bassOn": false,
              "chordRootUpperLimit": 9,
              "noteLowLimit": 0,
              "noteHighLimit": 79,
              "rtr": "PITCH_SHIFT"
            },
            "ctb2High": null
          },
          "notes": [
            {
              "pitch": 62,
              "velocity": 100,
              "position": 6.666666666666667,
              "duration": 0.2708333333333333
            },
            {
              "pitch": 63,
              "velocity": 36,
              "position": 7,
              "duration": 0.3541666666666667
            },
            {
              "pitch": 67,
              "velocity": 36,
              "position": 7.333333333333333,
              "duration": 0.3541666666666667
            },
            {
              "pitch": 70,
              "velocity": 49,
              "position": 7.666666666666667,
              "duration": 0.3541666666666667
            },
            {
              "pitch": 74,
              "velocity": 70,
              "position": 8,
              "duration": 0.5208333333333334
            },
            {
              "pitch": 73,
              "velocity": 100,
              "position": 8.583333333333334,
              "duration": 0.3541666666666667
            },
            {
              "pitch": 72,
              "velocity": 44,
              "position": 9,
              "duration": 0.5208333333333334
            },
            {
              "pitch": 71,
              "velocity": 29,
              "position": 9.583333333333334,
              "duration": 0.3541666666666667
            },
            {
              "pitch": 70,
              "velocity": 82,
              "position": 10,
              "duration": 0.5208333333333334
            },
            {
              "pitch": 67,
              "velocity": 100,
              "position": 10.583333333333334,
              "duration": 0.3541666666666667
            },
            {
              "pitch": 63,
              "velocity": 70,
              "position": 11,
              "duration": 0.5208333333333334
            },
            {
              "pitch": 58,
              "velocity": 30,
              "position": 11.583333333333334,
              "duration": 0.3541666666666667
            },
            {
              "pitch": 62,
              "velocity": 100,
              "position": 12,
              "duration": 0.5208333333333334
            },
            {
              "pitch": 61,
              "velocity": 58,
              "position": 12.583333333333334,
              "duration": 0.3541666666666667
            },
            {
              "pitch": 60,
              "velocity": 77,
              "position": 13,
              "duration": 0.5208333333333334
            },
            {
              "pitch": 59,
              "velocity": 25,
              "position": 13.583333333333334,
              "duration": 0.3541666666666667
            },
            {
              "pitch": 58,
              "velocity": 100,
              "position": 14,
              "duration": 0.9375
            },
            {
              "pitch": 62,
              "velocity": 34,
              "position": 15,
              "duration": 0.5208333333333334
            },
            {
              "pitch": 67,
              "velocity": 80,
              "position": 15.583333333333334,
              "duration": 0.6041666666666666
            },
            {
              "pitch": 74,
              "velocity": 80,
              "position": 15.583333333333334,
              "duration": 0.6041666666666666
            },
            {
              "pitch": 79,
              "velocity": 80,
              "position": 15.583333333333334,
              "duration": 0.6041666666666666
            },
            {
              "pitch": 67,
              "velocity": 80,
              "position": 16.916666666666668,
              "duration": 1.2708333333333333
            },
            {
              "pitch": 74,
              "velocity": 80,
              "position": 16.916666666666668,
              "duration": 1.2708333333333333
            },
            {
              "pitch": 79,
              "velocity": 80,
              "position": 16.916666666666668,
              "duration": 1.2708333333333333
            },
            {
              "pitch": 67,
              "velocity": 80,
              "position": 19.666666666666668,
              "duration": 1.2708333333333333
            },
            {
              "pitch": 72,
              "velocity": 80,
              "position": 19.666666666666668,
              "duration": 1.2708333333333333
            },
            {
              "pitch": 77,
              "velocity": 80,
              "position": 19.666666666666668,
              "duration": 1.2708333333333333
            },
            {
              "pitch": 68,
              "velocity": 80,
              "position": 21.583333333333332,
              "duration": 0.9375
            },
            {
              "pitch": 73,
              "velocity": 80,
              "position": 21.583333333333332,
              "duration": 0.9375
            },
            {
              "pitch": 78,
              "velocity": 80,
              "position": 21.583333333333332,
              "duration": 0.9375
            },
            {
              "pitch": 67,
              "velocity": 80,
              "position": 23.583333333333332,
              "duration": 0.6041666666666666
            },
            {
              "pitch": 72,
              "velocity": 80,
              "position": 23.583333333333332,
              "duration": 0.6041666666666666
            },
            {
              "pitch": 77,
              "velocity": 80,
              "position": 23.583333333333332,
              "duration": 0.6041666666666666
            },
            {
              "pitch": 72,
              "velocity": 94,
              "position": 24.583333333333332,
              "duration": 0.3541666666666667
            },
            {
              "pitch": 68,
              "velocity": 45,
              "position": 25,
              "duration": 0.5208333333333334
            },
            {
              "pitch": 64,
              "velocity": 94,
              "position": 25.583333333333332,
              "duration": 0.3541666666666667
            },
            {
              "pitch": 65,
              "velocity": 52,
              "position": 26,
              "duration": 0.3541666666666667
            },
            {
              "pitch": 72,
              "velocity": 63,
              "position": 26.333333333333332,
              "duration": 0.3541666666666667
            },
            {
              "pitch": 75,
              "velocity": 120,
              "position": 26.666666666666668,
              "duration": 0.2708333333333333
            },
            {
              "pitch": 74,
              "velocity": 88,
              "position": 27,
              "duration": 0.5208333333333334
            },
            {
              "pitch": 72,
              "velocity": 65,
              "position": 27.583333333333332,
              "duration": 0.3541666666666667
            },
            {
              "pitch": 70,
              "velocity": 102,
              "position": 28,
              "duration": 0.5208333333333334
            },
            {
              "pitch": 72,
              "velocity": 56,
              "position": 28.583333333333332,
              "duration": 0.3541666666666667
            },
            {
              "pitch": 73,
              "velocity": 79,
              "position": 29,
              "duration": 0.5208333333333334
            },
            {
              "pitch": 71,
              "velocity": 37,
              "position": 29.583333333333332,
              "duration": 0.3541666666666667
            },
            {
              "pitch": 72,
              "velocity": 127,
              "position": 30,
              "duration": 0.5208333333333334
            },
            {
              "pitch": 70,
              "velocity": 69,
              "position": 30.583333333333332,
              "duration": 0.3541666666666667
            },
            {
              "pitch": 68,
              "velocity": 88,
              "position": 31,
              "duration": 0.5208333333333334
            },
            {
              "pitch": 67,
              "velocity": 126,
              "position": 31.583333333333332,
              "duration": 0.3541666666666667
            },
            {
              "pitch": 66,
              "velocity": 88,
              "position": 32,
              "duration": 0.5208333333333334
            },
            {
              "pitch": 69,
              "velocity": 48,
              "position": 32.583333333333336,
              "duration": 0.3541666666666667
            },
            {
              "pitch": 72,
              "velocity": 81,
              "position": 33,
              "duration": 0.5208333333333334
            },
            {
              "pitch": 74,
              "velocity": 126,
              "position": 33.583333333333336,
              "duration": 0.40625
            },
            {
              "pitch": 75,
              "velocity": 79,
              "position": 34,
              "duration": 0.5208333333333334
            },
            {
              "pitch": 72,
              "velocity": 120,
              "position": 34.666666666666664,
              "duration": 0.2708333333333333
            },
            {
              "pitch": 74,
              "velocity": 79,
              "position": 35,
              "duration": 0.5208333333333334
            },
            {
              "pitch": 69,
              "velocity": 37,
              "position": 35.583333333333336,
              "duration": 0.3541666666666667
            },
            {
              "pitch": 63,
              "velocity": 127,
              "position": 36,
              "duration": 0.5208333333333334
            },
            {
              "pitch": 72,
              "velocity": 127,
              "position": 36,
              "duration": 0.5208333333333334
            }
          ]
        },
        "9": {
          "ctab": {
            "srcChannel": 9,
            "name": "Drs",
            "accType": "RHYTHM",
            "editable": false,
            "mutedNotes": [],
            "mutedChords": [],
            "autoStart": true,
            "sourceChordNote": 0,
            "sourceChordType": "Maj7",
            "ctb2Low": null,
            "ctb2Main": {
              "ntr": "ROOT_FIXED",
              "ntt": "BYPASS",
              "bassOn": false,
              "chordRootUpperLimit": 6,
              "noteLowLimit": 0,
              "noteHighLimit": 127,
              "rtr": "PITCH_SHIFT"
            },
            "ctb2High": null
          },
          "notes": [
            {
              "pitch": 46,
              "velocity": 77,
              "position": 0,
              "duration": 0.010416666666666666
            },
            {
              "pitch": 42,
              "velocity": 87,
              "position": 1,
              "duration": 0.010416666666666666
            },
            {
              "pitch": 46,
              "velocity": 37,
              "position": 1.625,
              "duration": 0.010416666666666666
            },
            {
              "pitch": 46,
              "velocity": 77,
              "position": 2,
              "duration": 0.010416666666666666
            },
            {
              "pitch": 42,
              "velocity": 81,
              "position": 3,
              "duration": 0.010416666666666666
            },
            {
              "pitch": 46,
              "velocity": 37,
              "position": 3.625,
              "duration": 0.010416666666666666
            },
            {
              "pitch": 46,
              "velocity": 77,
              "position": 4,
              "duration": 0.010416666666666666
            },
            {
              "pitch": 46,
              "velocity": 77,
              "position": 5,
              "duration": 0.010416666666666666
            },
            {
              "pitch": 46,
              "velocity": 77,
              "position": 6,
              "duration": 0.010416666666666666
            },
            {
              "pitch": 46,
              "velocity": 37,
              "position": 6.625,
              "duration": 0.010416666666666666
            },
            {
              "pitch": 46,
              "velocity": 81,
              "position": 7,
              "duration": 0.010416666666666666
            },
            {
              "pitch": 46,
              "velocity": 78,
              "position": 8,
              "duration": 0.010416666666666666
            },
            {
              "pitch": 42,
              "velocity": 89,
              "position": 9,
              "duration": 0.010416666666666666
            },
            {
              "pitch": 46,
              "velocity": 39,
              "position": 9.625,
              "duration": 0.010416666666666666
            },
            {
              "pitch": 46,
              "velocity": 86,
              "position": 10,
              "duration": 0.010416666666666666
            },
            {
              "pitch": 42,
              "velocity": 89,
              "position": 11,
              "duration": 0.010416666666666666
            },
            {
              "pitch": 46,
              "velocity": 32,
              "position": 11.625,
              "duration": 0.010416666666666666
            },
            {
              "pitch": 46,
              "velocity": 85,
              "position": 12,
              "duration": 0.010416666666666666
            },
            {
              "pitch": 46,
              "velocity": 71,
              "position": 13,
              "duration": 0.010416666666666666
            },
            {
              "pitch": 46,
              "velocity": 78,
              "position": 14,
              "duration": 0.010416666666666666
            },
            {
              "pitch": 40,
              "velocity": 46,
              "position": 14.625,
              "duration": 0.010416666666666666
            },
            {
              "pitch": 40,
              "velocity": 89,
              "position": 15,
              "duration": 0.010416666666666666
            },
            {
              "pitch": 33,
              "velocity": 89,
              "position": 15.666666666666666,
              "duration": 0.010416666666666666
            },
            {
              "pitch": 52,
              "velocity": 32,
              "position": 15.666666666666666,
              "duration": 0.010416666666666666
            },
            {
              "pitch": 59,
              "velocity": 115,
              "position": 15.666666666666666,
              "duration": 0.010416666666666666
            },
            {
              "pitch": 59,
              "velocity": 42,
              "position": 16.666666666666668,
              "duration": 0.010416666666666666
            },
            {
              "pitch": 33,
              "velocity": 89,
              "position": 17,
              "duration": 0.010416666666666666
            },
            {
              "pitch": 44,
              "velocity": 59,
              "position": 17,
              "duration": 0.010416666666666666
            },
            {
              "pitch": 52,
              "velocity": 32,
              "position": 17,
              "duration": 0.010416666666666666
            },
            {
              "pitch": 59,
              "velocity": 115,
              "position": 17,
              "duration": 0.010416666666666666
            },
            {
              "pitch": 59,
              "velocity": 19,
              "position": 17.666666666666668,
              "duration": 0.010416666666666666
            },
            {
              "pitch": 38,
              "velocity": 51,
              "position": 18,
              "duration": 0.010416666666666666
            },
            {
              "pitch": 59,
              "velocity": 64,
              "position": 18,
              "duration": 0.010416666666666666
            },
            {
              "pitch": 44,
              "velocity": 61,
              "position": 19,
              "duration": 0.010416666666666666
            },
            {
              "pitch": 59,
              "velocity": 76,
              "position": 19,
              "duration": 0.010416666666666666
            },
            {
              "pitch": 38,
              "velocity": 40,
              "position": 19.666666666666668,
              "duration": 0.010416666666666666
            },
            {
              "pitch": 59,
              "velocity": 22,
              "position": 19.666666666666668,
              "duration": 0.010416666666666666
            },
            {
              "pitch": 59,
              "velocity": 63,
              "position": 20,
              "duration": 0.010416666666666666
            },
            {
              "pitch": 44,
              "velocity": 67,
              "position": 21,
              "duration": 0.010416666666666666
            },
            {
              "pitch": 59,
              "velocity": 65,
              "position": 21,
              "duration": 0.010416666666666666
            },
            {
              "pitch": 38,
              "velocity": 45,
              "position": 21.666666666666668,
              "duration": 0.010416666666666666
            },
            {
              "pitch": 59,
              "velocity": 35,
              "position": 21.666666666666668,
              "duration": 0.010416666666666666
            },
            {
              "pitch": 59,
              "velocity": 68,
              "position": 22,
              "duration": 0.010416666666666666
            },
            {
              "pitch": 44,
              "velocity": 61,
              "position": 23,
              "duration": 0.010416666666666666
            },
            {
              "pitch": 59,
              "velocity": 61,
              "position": 23,
              "duration": 0.010416666666666666
            },
            {
              "pitch": 59,
              "velocity": 24,
              "position": 23.666666666666668,
              "duration": 0.010416666666666666
            },
            {
              "pitch": 59,
              "velocity": 69,
              "position": 24,
              "duration": 0.010416666666666666
            },
            {
              "pitch": 44,
              "velocity": 62,
              "position": 25,
              "duration": 0.010416666666666666
            },
            {
              "pitch": 59,
              "velocity": 65,
              "position": 25,
              "duration": 0.010416666666666666
            },
            {
              "pitch": 59,
              "velocity": 37,
              "position": 25.666666666666668,
              "duration": 0.010416666666666666
            },
            {
              "pitch": 59,
              "velocity": 71,
              "position": 26,
              "duration": 0.010416666666666666
            },
            {
              "pitch": 44,
              "velocity": 75,
              "position": 27,
              "duration": 0.010416666666666666
            },
            {
              "pitch": 59,
              "velocity": 76,
              "position": 27,
              "duration": 0.010416666666666666
            },
            {
              "pitch": 59,
              "velocity": 21,
              "position": 27.666666666666668,
              "duration": 0.010416666666666666
            },
            {
              "pitch": 59,
              "velocity": 67,
              "position": 28,
              "duration": 0.010416666666666666
            },
            {
              "pitch": 44,
              "velocity": 74,
              "position": 29,
              "duration": 0.010416666666666666
            },
            {
              "pitch": 59,
              "velocity": 68,
              "position": 29,
              "duration": 0.010416666666666666
            },
            {
              "pitch": 59,
              "velocity": 26,
              "position": 29.666666666666668,
              "duration": 0.010416666666666666
            },
            {
              "pitch": 59,
              "velocity": 68,
              "position": 30,
              "duration": 0.010416666666666666
            },
            {
              "pitch": 44,
              "velocity": 67,
              "position": 31,
              "duration": 0.010416666666666666
            },
            {
              "pitch": 59,
              "velocity": 73,
              "position": 31,
              "duration": 0.010416666666666666
            },
            {
              "pitch": 38,
              "velocity": 51,
              "position": 31.666666666666668,
              "duration": 0.010416666666666666
            },
            {
              "pitch": 59,
              "velocity": 72,
              "position": 32,
              "duration": 0.010416666666666666
            },
            {
              "pitch": 38,
              "velocity": 80,
              "position": 33,
              "duration": 0.010416666666666666
            },
            {
              "pitch": 44,
              "velocity": 64,
              "position": 33,
              "duration": 0.010416666666666666
            },
            {
              "pitch": 59,
              "velocity": 72,
              "position": 33,
              "duration": 0.010416666666666666
            },
            {
              "pitch": 59,
              "velocity": 34,
              "position": 33.666666666666664,
              "duration": 0.010416666666666666
            },
            {
              "pitch": 59,
              "velocity": 69,
              "position": 34,
              "duration": 0.010416666666666666
            },
            {
              "pitch": 38,
              "velocity": 80,
              "position": 34.666666666666664,
              "duration": 0.010416666666666666
            },
            {
              "pitch": 59,
              "velocity": 72,
              "position": 35,
              "duration": 0.010416666666666666
            },
            {
              "pitch": 33,
              "velocity": 81,
              "position": 36,
              "duration": 0.010416666666666666
            },
            {
              "pitch": 46,
              "velocity": 81,
              "position": 36,
              "duration": 0.010416666666666666
            },
            {
              "pitch": 44,
              "velocity": 1,
              "position": 36.666666666666664,
              "duration": 0.010416666666666666
            },
            {
              "pitch": 33,
              "velocity": 81,
              "position": 37,
              "duration": 0.010416666666666666
            },
            {
              "pitch": 38,
              "velocity": 102,
              "position": 37,
              "duration": 0.010416666666666666
            },
            {
              "pitch": 57,
              "velocity": 51,
              "position": 37,
              "duration": 0.010416666666666666
            },
            {
              "pitch": 38,
              "velocity": 13,
              "position": 38,
              "duration": 0.010416666666666666
            },
            {
              "pitch": 38,
              "velocity": 20,
              "position": 38.333333333333336,
              "duration": 0.010416666666666666
            },
            {
              "pitch": 38,
              "velocity": 67,
              "position": 38.666666666666664,
              "duration": 0.010416666666666666
            },
            {
              "pitch": 29,
              "velocity": 127,
              "position": 37,
              "duration": 2.0104166666666665
            },
            {
              "pitch": 38,
              "velocity": 101,
              "position": 39,
              "duration": 0.010416666666666666
            }
          ]
        },
        "10": {
          "ctab": {
            "srcChannel": 10,
            "name": "Tpt",
            "accType": "PAD",
            "editable": false,
            "mutedNotes": [],
            "mutedChords": [
              "dim7",
              "dim",
              "minMaj7(9)",
              "minMaj7",
              "min7(11)",
              "min7(9)",
              "min(9)",
              "m7b5",
              "min7",
              "min6",
              "min"
            ],
            "autoStart": false,
            "sourceChordNote": 0,
            "sourceChordType": "Maj",
            "ctb2Low": null,
            "ctb2Main": {
              "ntr": "ROOT_TRANSPOSITION",
              "ntt": "BYPASS",
              "bassOn": false,
              "chordRootUpperLimit": 6,
              "noteLowLimit": 0,
              "noteHighLimit": 127,
              "rtr": "PITCH_SHIFT"
            },
            "ctb2High": null
          },
          "notes": [
            {
              "pitch": 68,
              "velocity": 126,
              "position": 6.645833333333333,
              "duration": 0.2916666666666667
            },
            {
              "pitch": 69,
              "velocity": 50,
              "position": 6.979166666666667,
              "duration": 0.3645833333333333
            },
            {
              "pitch": 72,
              "velocity": 44,
              "position": 7.322916666666667,
              "duration": 0.34375
            },
            {
              "pitch": 76,
              "velocity": 62,
              "position": 7.666666666666667,
              "duration": 0.34375
            },
            {
              "pitch": 79,
              "velocity": 92,
              "position": 8,
              "duration": 0.53125
            },
            {
              "pitch": 78,
              "velocity": 124,
              "position": 8.5625,
              "duration": 0.3333333333333333
            },
            {
              "pitch": 77,
              "velocity": 60,
              "position": 9.010416666666666,
              "duration": 0.5208333333333334
            },
            {
              "pitch": 75,
              "velocity": 38,
              "position": 9.5625,
              "duration": 0.34375
            },
            {
              "pitch": 76,
              "velocity": 104,
              "position": 10,
              "duration": 0.5104166666666666
            },
            {
              "pitch": 72,
              "velocity": 126,
              "position": 10.5625,
              "duration": 0.3645833333333333
            },
            {
              "pitch": 69,
              "velocity": 88,
              "position": 10.989583333333334,
              "duration": 0.5104166666666666
            },
            {
              "pitch": 64,
              "velocity": 37,
              "position": 11.583333333333334,
              "duration": 0.34375
            },
            {
              "pitch": 67,
              "velocity": 126,
              "position": 11.979166666666666,
              "duration": 0.5208333333333334
            },
            {
              "pitch": 66,
              "velocity": 75,
              "position": 12.583333333333334,
              "duration": 0.3333333333333333
            },
            {
              "pitch": 65,
              "velocity": 97,
              "position": 12.979166666666666,
              "duration": 0.5416666666666666
            },
            {
              "pitch": 60,
              "velocity": 32,
              "position": 13.583333333333334,
              "duration": 0.34375
            },
            {
              "pitch": 64,
              "velocity": 127,
              "position": 13.979166666666666,
              "duration": 0.6770833333333334
            },
            {
              "pitch": 65,
              "velocity": 52,
              "position": 14.520833333333334,
              "duration": 0.40625
            },
            {
              "pitch": 66,
              "velocity": 52,
              "position": 14.8125,
              "duration": 0.40625
            },
            {
              "pitch": 67,
              "velocity": 52,
              "position": 15.104166666666666,
              "duration": 0.5
            },
            {
              "pitch": 62,
              "velocity": 126,
              "position": 15.59375,
              "duration": 0.46875
            },
            {
              "pitch": 63,
              "velocity": 64,
              "position": 16.072916666666668,
              "duration": 0.23958333333333334
            },
            {
              "pitch": 62,
              "velocity": 64,
              "position": 16.322916666666668,
              "duration": 0.23958333333333334
            },
            {
              "pitch": 60,
              "velocity": 38,
              "position": 16.572916666666668,
              "duration": 0.34375
            },
            {
              "pitch": 62,
              "velocity": 123,
              "position": 17,
              "duration": 5.302083333333333
            },
            {
              "pitch": 68,
              "velocity": 74,
              "position": 22.677083333333332,
              "duration": 0.2708333333333333
            },
            {
              "pitch": 69,
              "velocity": 32,
              "position": 23,
              "duration": 0.5
            },
            {
              "pitch": 71,
              "velocity": 126,
              "position": 23.59375,
              "duration": 0.34375
            },
            {
              "pitch": 72,
              "velocity": 71,
              "position": 24.010416666666668,
              "duration": 0.5208333333333334
            },
            {
              "pitch": 69,
              "velocity": 97,
              "position": 24.59375,
              "duration": 0.34375
            },
            {
              "pitch": 65,
              "velocity": 44,
              "position": 24.979166666666668,
              "duration": 0.5208333333333334
            },
            {
              "pitch": 62,
              "velocity": 92,
              "position": 25.5625,
              "duration": 0.34375
            },
            {
              "pitch": 63,
              "velocity": 52,
              "position": 25.989583333333332,
              "duration": 0.3645833333333333
            },
            {
              "pitch": 69,
              "velocity": 61,
              "position": 26.3125,
              "duration": 0.23958333333333334
            },
            {
              "pitch": 71,
              "velocity": 94,
              "position": 26.5625,
              "duration": 0.11458333333333333
            },
            {
              "pitch": 72,
              "velocity": 120,
              "position": 26.677083333333332,
              "duration": 0.25
            },
            {
              "pitch": 71,
              "velocity": 88,
              "position": 26.979166666666668,
              "duration": 0.5208333333333334
            },
            {
              "pitch": 69,
              "velocity": 65,
              "position": 27.583333333333332,
              "duration": 0.3541666666666667
            },
            {
              "pitch": 67,
              "velocity": 104,
              "position": 27.989583333333332,
              "duration": 0.5416666666666666
            },
            {
              "pitch": 69,
              "velocity": 53,
              "position": 28.59375,
              "duration": 0.3645833333333333
            },
            {
              "pitch": 70,
              "velocity": 78,
              "position": 29,
              "duration": 0.53125
            },
            {
              "pitch": 68,
              "velocity": 39,
              "position": 29.572916666666668,
              "duration": 0.34375
            },
            {
              "pitch": 69,
              "velocity": 125,
              "position": 29.979166666666668,
              "duration": 0.5208333333333334
            },
            {
              "pitch": 64,
              "velocity": 70,
              "position": 30.583333333333332,
              "duration": 0.3645833333333333
            },
            {
              "pitch": 67,
              "velocity": 90,
              "position": 30.979166666666668,
              "duration": 0.53125
            },
            {
              "pitch": 66,
              "velocity": 124,
              "position": 31.572916666666668,
              "duration": 0.3541666666666667
            },
            {
              "pitch": 65,
              "velocity": 90,
              "position": 32.010416666666664,
              "duration": 0.5208333333333334
            },
            {
              "pitch": 69,
              "velocity": 51,
              "position": 32.572916666666664,
              "duration": 0.34375
            },
            {
              "pitch": 72,
              "velocity": 82,
              "position": 32.979166666666664,
              "duration": 0.5416666666666666
            },
            {
              "pitch": 75,
              "velocity": 127,
              "position": 33.5625,
              "duration": 0.40625
            },
            {
              "pitch": 76,
              "velocity": 86,
              "position": 33.979166666666664,
              "duration": 0.5833333333333334
            },
            {
              "pitch": 72,
              "velocity": 124,
              "position": 34.572916666666664,
              "duration": 0.3541666666666667
            },
            {
              "pitch": 69,
              "velocity": 88,
              "position": 35,
              "duration": 0.53125
            },
            {
              "pitch": 67,
              "velocity": 39,
              "position": 35.572916666666664,
              "duration": 0.34375
            },
            {
              "pitch": 72,
              "velocity": 127,
              "position": 36,
              "duration": 0.6875
            }
          ]
        },
        "11": {
          "ctab": {
            "srcChannel": 11,
            "name": "Tpt",
            "accType": "PAD",
            "editable": false,
            "mutedNotes": [],
            "mutedChords": [
              "1+2+5",
              "sus4",
              "1+5",
              "1+8",
              "7aug",
              "Maj7aug",
              "7(#9)",
              "7(b13)",
              "7(b9)",
              "7(13)",
              "7#11",
              "7(9)",
              "7b5",
              "7sus4",
              "7th",
              "aug",
              "Maj6(9)",
              "Maj7(9)",
              "Maj(9)",
              "Maj7#11",
              "Maj7",
              "Maj6",
              "Maj"
            ],
            "autoStart": false,
            "sourceChordNote": 0,
            "sourceChordType": "min",
            "ctb2Low": null,
            "ctb2Main": {
              "ntr": "ROOT_TRANSPOSITION",
              "ntt": "BYPASS",
              "bassOn": false,
              "chordRootUpperLimit": 6,
              "noteLowLimit": 0,
              "noteHighLimit": 127,
              "rtr": "PITCH_SHIFT"
            },
            "ctb2High": null
          },
          "notes": [
            {
              "pitch": 62,
              "velocity": 126,
              "position": 6.645833333333333,
              "duration": 0.2916666666666667
            },
            {
              "pitch": 63,
              "velocity": 50,
              "position": 6.979166666666667,
              "duration": 0.3645833333333333
            },
            {
              "pitch": 67,
              "velocity": 44,
              "position": 7.322916666666667,
              "duration": 0.34375
            },
            {
              "pitch": 70,
              "velocity": 62,
              "position": 7.666666666666667,
              "duration": 0.34375
            },
            {
              "pitch": 74,
              "velocity": 92,
              "position": 8,
              "duration": 0.53125
            },
            {
              "pitch": 73,
              "velocity": 124,
              "position": 8.5625,
              "duration": 0.3333333333333333
            },
            {
              "pitch": 72,
              "velocity": 60,
              "position": 9.010416666666666,
              "duration": 0.5208333333333334
            },
            {
              "pitch": 71,
              "velocity": 38,
              "position": 9.5625,
              "duration": 0.34375
            },
            {
              "pitch": 70,
              "velocity": 104,
              "position": 10,
              "duration": 0.5104166666666666
            },
            {
              "pitch": 67,
              "velocity": 126,
              "position": 10.5625,
              "duration": 0.3645833333333333
            },
            {
              "pitch": 63,
              "velocity": 88,
              "position": 10.989583333333334,
              "duration": 0.5104166666666666
            },
            {
              "pitch": 58,
              "velocity": 37,
              "position": 11.583333333333334,
              "duration": 0.34375
            },
            {
              "pitch": 62,
              "velocity": 126,
              "position": 11.979166666666666,
              "duration": 0.5208333333333334
            },
            {
              "pitch": 61,
              "velocity": 75,
              "position": 12.583333333333334,
              "duration": 0.3333333333333333
            },
            {
              "pitch": 60,
              "velocity": 97,
              "position": 12.979166666666666,
              "duration": 0.5416666666666666
            },
            {
              "pitch": 59,
              "velocity": 32,
              "position": 13.583333333333334,
              "duration": 0.34375
            },
            {
              "pitch": 58,
              "velocity": 127,
              "position": 13.979166666666666,
              "duration": 0.6770833333333334
            },
            {
              "pitch": 60,
              "velocity": 52,
              "position": 14.520833333333334,
              "duration": 0.40625
            },
            {
              "pitch": 61,
              "velocity": 52,
              "position": 14.8125,
              "duration": 0.40625
            },
            {
              "pitch": 62,
              "velocity": 52,
              "position": 15.104166666666666,
              "duration": 0.5
            },
            {
              "pitch": 57,
              "velocity": 126,
              "position": 15.59375,
              "duration": 0.46875
            },
            {
              "pitch": 58,
              "velocity": 64,
              "position": 16.072916666666668,
              "duration": 0.23958333333333334
            },
            {
              "pitch": 57,
              "velocity": 64,
              "position": 16.322916666666668,
              "duration": 0.23958333333333334
            },
            {
              "pitch": 55,
              "velocity": 38,
              "position": 16.572916666666668,
              "duration": 0.34375
            },
            {
              "pitch": 57,
              "velocity": 123,
              "position": 17,
              "duration": 2.5833333333333335
            },
            {
              "pitch": 58,
              "velocity": 80,
              "position": 19.59375,
              "duration": 3.3958333333333335
            },
            {
              "pitch": 72,
              "velocity": 74,
              "position": 23,
              "duration": 0.3229166666666667
            },
            {
              "pitch": 73,
              "velocity": 59,
              "position": 23.333333333333332,
              "duration": 0.3229166666666667
            },
            {
              "pitch": 74,
              "velocity": 126,
              "position": 23.666666666666668,
              "duration": 0.3333333333333333
            },
            {
              "pitch": 75,
              "velocity": 71,
              "position": 24.010416666666668,
              "duration": 0.5208333333333334
            },
            {
              "pitch": 72,
              "velocity": 97,
              "position": 24.59375,
              "duration": 0.34375
            },
            {
              "pitch": 68,
              "velocity": 44,
              "position": 24.979166666666668,
              "duration": 0.5208333333333334
            },
            {
              "pitch": 64,
              "velocity": 92,
              "position": 25.5625,
              "duration": 0.34375
            },
            {
              "pitch": 65,
              "velocity": 52,
              "position": 25.989583333333332,
              "duration": 0.3645833333333333
            },
            {
              "pitch": 72,
              "velocity": 61,
              "position": 26.3125,
              "duration": 0.23958333333333334
            },
            {
              "pitch": 74,
              "velocity": 94,
              "position": 26.5625,
              "duration": 0.11458333333333333
            },
            {
              "pitch": 75,
              "velocity": 120,
              "position": 26.677083333333332,
              "duration": 0.25
            },
            {
              "pitch": 74,
              "velocity": 88,
              "position": 26.979166666666668,
              "duration": 0.5208333333333334
            },
            {
              "pitch": 72,
              "velocity": 65,
              "position": 27.583333333333332,
              "duration": 0.3541666666666667
            },
            {
              "pitch": 70,
              "velocity": 104,
              "position": 27.989583333333332,
              "duration": 0.5416666666666666
            },
            {
              "pitch": 72,
              "velocity": 53,
              "position": 28.59375,
              "duration": 0.3645833333333333
            },
            {
              "pitch": 73,
              "velocity": 78,
              "position": 29,
              "duration": 0.53125
            },
            {
              "pitch": 71,
              "velocity": 39,
              "position": 29.572916666666668,
              "duration": 0.34375
            },
            {
              "pitch": 72,
              "velocity": 125,
              "position": 29.979166666666668,
              "duration": 0.5208333333333334
            },
            {
              "pitch": 70,
              "velocity": 70,
              "position": 30.583333333333332,
              "duration": 0.3645833333333333
            },
            {
              "pitch": 68,
              "velocity": 90,
              "position": 30.979166666666668,
              "duration": 0.53125
            },
            {
              "pitch": 67,
              "velocity": 124,
              "position": 31.572916666666668,
              "duration": 0.3541666666666667
            },
            {
              "pitch": 66,
              "velocity": 90,
              "position": 32.010416666666664,
              "duration": 0.5208333333333334
            },
            {
              "pitch": 69,
              "velocity": 51,
              "position": 32.572916666666664,
              "duration": 0.34375
            },
            {
              "pitch": 72,
              "velocity": 82,
              "position": 32.979166666666664,
              "duration": 0.5416666666666666
            },
            {
              "pitch": 74,
              "velocity": 127,
              "position": 33.5625,
              "duration": 0.40625
            },
            {
              "pitch": 75,
              "velocity": 86,
              "position": 33.979166666666664,
              "duration": 0.3645833333333333
            },
            {
              "pitch": 77,
              "velocity": 59,
              "position": 34.322916666666664,
              "duration": 0.20833333333333334
            },
            {
              "pitch": 75,
              "velocity": 59,
              "position": 34.5,
              "duration": 0.28125
            },
            {
              "pitch": 72,
              "velocity": 59,
              "position": 34.75,
              "duration": 0.2916666666666667
            },
            {
              "pitch": 74,
              "velocity": 88,
              "position": 35,
              "duration": 0.53125
            },
            {
              "pitch": 72,
              "velocity": 127,
              "position": 36,
              "duration": 0.6875
            }
          ]
        },
        "12": {
          "ctab": {
            "srcChannel": 12,
            "name": "Alto",
            "accType": "PHRASE1",
            "editable": false,
            "mutedNotes": [],
            "mutedChords": [
              "dim7",
              "dim",
              "minMaj7(9)",
              "minMaj7",
              "min7(11)",
              "min7(9)",
              "min(9)",
              "m7b5",
              "min7",
              "min6",
              "min"
            ],
            "autoStart": false,
            "sourceChordNote": 0,
            "sourceChordType": "Maj",
            "ctb2Low": null,
            "ctb2Main": {
              "ntr": "ROOT_TRANSPOSITION",
              "ntt": "BYPASS",
              "bassOn": false,
              "chordRootUpperLimit": 2,
              "noteLowLimit": 0,
              "noteHighLimit": 127,
              "rtr": "PITCH_SHIFT"
            },
            "ctb2High": null
          },
          "notes": [
            {
              "pitch": 68,
              "velocity": 115,
              "position": 6.645833333333333,
              "duration": 0.3958333333333333
            },
            {
              "pitch": 69,
              "velocity": 39,
              "position": 7.020833333333333,
              "duration": 0.3020833333333333
            },
            {
              "pitch": 72,
              "velocity": 36,
              "position": 7.302083333333333,
              "duration": 0.375
            },
            {
              "pitch": 76,
              "velocity": 57,
              "position": 7.65625,
              "duration": 0.375
            },
            {
              "pitch": 79,
              "velocity": 73,
              "position": 8.010416666666666,
              "duration": 0.6145833333333334
            },
            {
              "pitch": 78,
              "velocity": 120,
              "position": 8.604166666666666,
              "duration": 0.4166666666666667
            },
            {
              "pitch": 77,
              "velocity": 58,
              "position": 8.989583333333334,
              "duration": 0.6145833333333334
            },
            {
              "pitch": 75,
              "velocity": 114,
              "position": 9.583333333333334,
              "duration": 0.4166666666666667
            },
            {
              "pitch": 76,
              "velocity": 47,
              "position": 9.979166666666666,
              "duration": 0.6041666666666666
            },
            {
              "pitch": 72,
              "velocity": 112,
              "position": 10.5625,
              "duration": 0.4583333333333333
            },
            {
              "pitch": 69,
              "velocity": 63,
              "position": 11,
              "duration": 0.5833333333333334
            },
            {
              "pitch": 64,
              "velocity": 25,
              "position": 11.552083333333334,
              "duration": 0.4375
            },
            {
              "pitch": 67,
              "velocity": 58,
              "position": 11.958333333333334,
              "duration": 0.6770833333333334
            },
            {
              "pitch": 66,
              "velocity": 127,
              "position": 12.604166666666666,
              "duration": 0.3958333333333333
            },
            {
              "pitch": 65,
              "velocity": 53,
              "position": 12.979166666666666,
              "duration": 0.6145833333333334
            },
            {
              "pitch": 60,
              "velocity": 30,
              "position": 13.572916666666666,
              "duration": 0.4583333333333333
            },
            {
              "pitch": 64,
              "velocity": 121,
              "position": 14,
              "duration": 1.0208333333333333
            },
            {
              "pitch": 67,
              "velocity": 62,
              "position": 14.989583333333334,
              "duration": 0.6354166666666666
            },
            {
              "pitch": 71,
              "velocity": 115,
              "position": 15.604166666666666,
              "duration": 0.96875
            },
            {
              "pitch": 69,
              "velocity": 73,
              "position": 16.552083333333332,
              "duration": 0.4479166666666667
            },
            {
              "pitch": 71,
              "velocity": 117,
              "position": 16.979166666666668,
              "duration": 5.34375
            },
            {
              "pitch": 68,
              "velocity": 72,
              "position": 22.697916666666668,
              "duration": 0.3020833333333333
            },
            {
              "pitch": 69,
              "velocity": 33,
              "position": 22.989583333333332,
              "duration": 0.5833333333333334
            },
            {
              "pitch": 71,
              "velocity": 114,
              "position": 23.5625,
              "duration": 0.4583333333333333
            },
            {
              "pitch": 72,
              "velocity": 73,
              "position": 24.010416666666668,
              "duration": 0.5729166666666666
            },
            {
              "pitch": 69,
              "velocity": 84,
              "position": 24.572916666666668,
              "duration": 0.4479166666666667
            },
            {
              "pitch": 65,
              "velocity": 32,
              "position": 25.010416666666668,
              "duration": 0.5729166666666666
            },
            {
              "pitch": 62,
              "velocity": 81,
              "position": 25.572916666666668,
              "duration": 0.4270833333333333
            },
            {
              "pitch": 63,
              "velocity": 38,
              "position": 25.989583333333332,
              "duration": 0.3541666666666667
            },
            {
              "pitch": 69,
              "velocity": 45,
              "position": 26.333333333333332,
              "duration": 0.34375
            },
            {
              "pitch": 72,
              "velocity": 109,
              "position": 26.666666666666668,
              "duration": 0.3645833333333333
            },
            {
              "pitch": 71,
              "velocity": 72,
              "position": 27.020833333333332,
              "duration": 0.5833333333333334
            },
            {
              "pitch": 69,
              "velocity": 121,
              "position": 27.59375,
              "duration": 0.40625
            },
            {
              "pitch": 67,
              "velocity": 75,
              "position": 27.989583333333332,
              "duration": 0.59375
            },
            {
              "pitch": 69,
              "velocity": 120,
              "position": 28.572916666666668,
              "duration": 0.4270833333333333
            },
            {
              "pitch": 70,
              "velocity": 58,
              "position": 28.989583333333332,
              "duration": 0.59375
            },
            {
              "pitch": 68,
              "velocity": 37,
              "position": 29.572916666666668,
              "duration": 0.4375
            },
            {
              "pitch": 69,
              "velocity": 123,
              "position": 30,
              "duration": 0.6145833333333334
            },
            {
              "pitch": 64,
              "velocity": 37,
              "position": 30.604166666666668,
              "duration": 0.3854166666666667
            },
            {
              "pitch": 67,
              "velocity": 61,
              "position": 30.96875,
              "duration": 0.6354166666666666
            },
            {
              "pitch": 66,
              "velocity": 88,
              "position": 31.59375,
              "duration": 0.40625
            },
            {
              "pitch": 65,
              "velocity": 127,
              "position": 31.979166666666668,
              "duration": 0.5833333333333334
            },
            {
              "pitch": 69,
              "velocity": 26,
              "position": 32.552083333333336,
              "duration": 0.4791666666666667
            },
            {
              "pitch": 72,
              "velocity": 60,
              "position": 33.020833333333336,
              "duration": 0.5625
            },
            {
              "pitch": 75,
              "velocity": 127,
              "position": 33.572916666666664,
              "duration": 0.4583333333333333
            },
            {
              "pitch": 76,
              "velocity": 72,
              "position": 34.020833333333336,
              "duration": 0.5833333333333334
            },
            {
              "pitch": 67,
              "velocity": 124,
              "position": 34.59375,
              "duration": 0.4166666666666667
            },
            {
              "pitch": 66,
              "velocity": 51,
              "position": 35,
              "duration": 0.5833333333333334
            },
            {
              "pitch": 65,
              "velocity": 37,
              "position": 35.572916666666664,
              "duration": 0.4375
            },
            {
              "pitch": 64,
              "velocity": 123,
              "position": 36,
              "duration": 0.625
            }
          ]
        },
        "13": {
          "ctab": {
            "srcChannel": 13,
            "name": "Alto",
            "accType": "PHRASE1",
            "editable": false,
            "mutedNotes": [],
            "mutedChords": [
              "1+2+5",
              "sus4",
              "1+5",
              "1+8",
              "7aug",
              "Maj7aug",
              "7(#9)",
              "7(b13)",
              "7(b9)",
              "7(13)",
              "7#11",
              "7(9)",
              "7b5",
              "7sus4",
              "7th",
              "aug",
              "Maj6(9)",
              "Maj7(9)",
              "Maj(9)",
              "Maj7#11",
              "Maj7",
              "Maj6",
              "Maj"
            ],
            "autoStart": false,
            "sourceChordNote": 0,
            "sourceChordType": "min",
            "ctb2Low": null,
            "ctb2Main": {
              "ntr": "ROOT_TRANSPOSITION",
              "ntt": "BYPASS",
              "bassOn": false,
              "chordRootUpperLimit": 2,
              "noteLowLimit": 0,
              "noteHighLimit": 127,
              "rtr": "PITCH_SHIFT"
            },
            "ctb2High": null
          },
          "notes": [
            {
              "pitch": 62,
              "velocity": 115,
              "position": 6.645833333333333,
              "duration": 0.3958333333333333
            },
            {
              "pitch": 63,
              "velocity": 39,
              "position": 7.020833333333333,
              "duration": 0.3020833333333333
            },
            {
              "pitch": 67,
              "velocity": 36,
              "position": 7.302083333333333,
              "duration": 0.375
            },
            {
              "pitch": 70,
              "velocity": 57,
              "position": 7.65625,
              "duration": 0.375
            },
            {
              "pitch": 74,
              "velocity": 73,
              "position": 8.010416666666666,
              "duration": 0.6145833333333334
            },
            {
              "pitch": 73,
              "velocity": 120,
              "position": 8.604166666666666,
              "duration": 0.4166666666666667
            },
            {
              "pitch": 72,
              "velocity": 58,
              "position": 8.989583333333334,
              "duration": 0.6145833333333334
            },
            {
              "pitch": 71,
              "velocity": 114,
              "position": 9.583333333333334,
              "duration": 0.4166666666666667
            },
            {
              "pitch": 70,
              "velocity": 47,
              "position": 9.979166666666666,
              "duration": 0.6041666666666666
            },
            {
              "pitch": 67,
              "velocity": 112,
              "position": 10.5625,
              "duration": 0.4583333333333333
            },
            {
              "pitch": 63,
              "velocity": 63,
              "position": 11,
              "duration": 0.5833333333333334
            },
            {
              "pitch": 58,
              "velocity": 25,
              "position": 11.552083333333334,
              "duration": 0.4375
            },
            {
              "pitch": 62,
              "velocity": 58,
              "position": 11.958333333333334,
              "duration": 0.6770833333333334
            },
            {
              "pitch": 61,
              "velocity": 127,
              "position": 12.604166666666666,
              "duration": 0.3958333333333333
            },
            {
              "pitch": 60,
              "velocity": 53,
              "position": 12.979166666666666,
              "duration": 0.6145833333333334
            },
            {
              "pitch": 59,
              "velocity": 30,
              "position": 13.572916666666666,
              "duration": 0.4583333333333333
            },
            {
              "pitch": 58,
              "velocity": 121,
              "position": 14,
              "duration": 1.0208333333333333
            },
            {
              "pitch": 62,
              "velocity": 62,
              "position": 14.989583333333334,
              "duration": 0.6041666666666666
            },
            {
              "pitch": 62,
              "velocity": 115,
              "position": 15.604166666666666,
              "duration": 0.96875
            },
            {
              "pitch": 60,
              "velocity": 73,
              "position": 16.552083333333332,
              "duration": 0.4479166666666667
            },
            {
              "pitch": 62,
              "velocity": 117,
              "position": 16.979166666666668,
              "duration": 4.65625
            },
            {
              "pitch": 61,
              "velocity": 117,
              "position": 21.645833333333332,
              "duration": 1.34375
            },
            {
              "pitch": 72,
              "velocity": 42,
              "position": 23,
              "duration": 0.375
            },
            {
              "pitch": 73,
              "velocity": 70,
              "position": 23.333333333333332,
              "duration": 0.375
            },
            {
              "pitch": 74,
              "velocity": 114,
              "position": 23.666666666666668,
              "duration": 0.3854166666666667
            },
            {
              "pitch": 75,
              "velocity": 73,
              "position": 24.010416666666668,
              "duration": 0.5729166666666666
            },
            {
              "pitch": 72,
              "velocity": 84,
              "position": 24.572916666666668,
              "duration": 0.4479166666666667
            },
            {
              "pitch": 68,
              "velocity": 32,
              "position": 25.010416666666668,
              "duration": 0.5729166666666666
            },
            {
              "pitch": 64,
              "velocity": 81,
              "position": 25.572916666666668,
              "duration": 0.4270833333333333
            },
            {
              "pitch": 65,
              "velocity": 38,
              "position": 25.989583333333332,
              "duration": 0.3541666666666667
            },
            {
              "pitch": 72,
              "velocity": 45,
              "position": 26.333333333333332,
              "duration": 0.34375
            },
            {
              "pitch": 75,
              "velocity": 109,
              "position": 26.666666666666668,
              "duration": 0.3645833333333333
            },
            {
              "pitch": 74,
              "velocity": 72,
              "position": 27.020833333333332,
              "duration": 0.5833333333333334
            },
            {
              "pitch": 72,
              "velocity": 121,
              "position": 27.59375,
              "duration": 0.40625
            },
            {
              "pitch": 70,
              "velocity": 75,
              "position": 27.989583333333332,
              "duration": 0.59375
            },
            {
              "pitch": 72,
              "velocity": 120,
              "position": 28.572916666666668,
              "duration": 0.4270833333333333
            },
            {
              "pitch": 73,
              "velocity": 58,
              "position": 28.989583333333332,
              "duration": 0.59375
            },
            {
              "pitch": 71,
              "velocity": 37,
              "position": 29.572916666666668,
              "duration": 0.4375
            },
            {
              "pitch": 72,
              "velocity": 123,
              "position": 30,
              "duration": 0.6145833333333334
            },
            {
              "pitch": 70,
              "velocity": 37,
              "position": 30.604166666666668,
              "duration": 0.3854166666666667
            },
            {
              "pitch": 68,
              "velocity": 61,
              "position": 30.96875,
              "duration": 0.6354166666666666
            },
            {
              "pitch": 67,
              "velocity": 88,
              "position": 31.59375,
              "duration": 0.40625
            },
            {
              "pitch": 66,
              "velocity": 127,
              "position": 31.979166666666668,
              "duration": 0.5833333333333334
            },
            {
              "pitch": 69,
              "velocity": 26,
              "position": 32.552083333333336,
              "duration": 0.4791666666666667
            },
            {
              "pitch": 72,
              "velocity": 60,
              "position": 33.020833333333336,
              "duration": 0.5625
            },
            {
              "pitch": 77,
              "velocity": 127,
              "position": 33.572916666666664,
              "duration": 0.4583333333333333
            },
            {
              "pitch": 78,
              "velocity": 72,
              "position": 34.020833333333336,
              "duration": 0.4583333333333333
            },
            {
              "pitch": 79,
              "velocity": 37,
              "position": 34.5,
              "duration": 0.23958333333333334
            },
            {
              "pitch": 75,
              "velocity": 37,
              "position": 34.75,
              "duration": 0.2708333333333333
            },
            {
              "pitch": 77,
              "velocity": 51,
              "position": 35,
              "duration": 0.5833333333333334
            },
            {
              "pitch": 72,
              "velocity": 37,
              "position": 35.572916666666664,
              "duration": 0.4375
            },
            {
              "pitch": 75,
              "velocity": 123,
              "position": 36,
              "duration": 0.625
            }
          ]
        },
        "14": {
          "ctab": {
            "srcChannel": 14,
            "name": "Tenor",
            "accType": "PHRASE2",
            "editable": false,
            "mutedNotes": [],
            "mutedChords": [
              "dim7",
              "dim",
              "minMaj7(9)",
              "minMaj7",
              "min7(11)",
              "min7(9)",
              "min(9)",
              "m7b5",
              "min7",
              "min6",
              "min"
            ],
            "autoStart": false,
            "sourceChordNote": 0,
            "sourceChordType": "Maj",
            "ctb2Low": null,
            "ctb2Main": {
              "ntr": "ROOT_TRANSPOSITION",
              "ntt": "BYPASS",
              "bassOn": false,
              "chordRootUpperLimit": 9,
              "noteLowLimit": 0,
              "noteHighLimit": 127,
              "rtr": "PITCH_SHIFT"
            },
            "ctb2High": null
          },
          "notes": [
            {
              "pitch": 56,
              "velocity": 96,
              "position": 6.645833333333333,
              "duration": 0.3854166666666667
            },
            {
              "pitch": 57,
              "velocity": 48,
              "position": 7,
              "duration": 0.3541666666666667
            },
            {
              "pitch": 60,
              "velocity": 50,
              "position": 7.333333333333333,
              "duration": 0.34375
            },
            {
              "pitch": 64,
              "velocity": 65,
              "position": 7.645833333333333,
              "duration": 0.3854166666666667
            },
            {
              "pitch": 67,
              "velocity": 60,
              "position": 8,
              "duration": 0.6041666666666666
            },
            {
              "pitch": 66,
              "velocity": 96,
              "position": 8.572916666666666,
              "duration": 0.4583333333333333
            },
            {
              "pitch": 65,
              "velocity": 61,
              "position": 9.010416666666666,
              "duration": 0.59375
            },
            {
              "pitch": 63,
              "velocity": 103,
              "position": 9.583333333333334,
              "duration": 0.4270833333333333
            },
            {
              "pitch": 64,
              "velocity": 62,
              "position": 9.989583333333334,
              "duration": 0.625
            },
            {
              "pitch": 60,
              "velocity": 99,
              "position": 10.59375,
              "duration": 0.4270833333333333
            },
            {
              "pitch": 57,
              "velocity": 57,
              "position": 11,
              "duration": 0.6041666666666666
            },
            {
              "pitch": 52,
              "velocity": 58,
              "position": 11.572916666666666,
              "duration": 0.4479166666666667
            },
            {
              "pitch": 55,
              "velocity": 101,
              "position": 12,
              "duration": 0.6041666666666666
            },
            {
              "pitch": 54,
              "velocity": 44,
              "position": 12.583333333333334,
              "duration": 0.4166666666666667
            },
            {
              "pitch": 53,
              "velocity": 66,
              "position": 12.979166666666666,
              "duration": 0.6145833333333334
            },
            {
              "pitch": 48,
              "velocity": 42,
              "position": 13.572916666666666,
              "duration": 0.4270833333333333
            },
            {
              "pitch": 52,
              "velocity": 96,
              "position": 13.979166666666666,
              "duration": 1.0625
            },
            {
              "pitch": 55,
              "velocity": 53,
              "position": 15.010416666666666,
              "duration": 0.6145833333333334
            },
            {
              "pitch": 52,
              "velocity": 95,
              "position": 15.59375,
              "duration": 1.0208333333333333
            },
            {
              "pitch": 50,
              "velocity": 55,
              "position": 16.583333333333332,
              "duration": 0.4270833333333333
            },
            {
              "pitch": 52,
              "velocity": 96,
              "position": 16.979166666666668,
              "duration": 2.625
            },
            {
              "pitch": 53,
              "velocity": 90,
              "position": 19.583333333333332,
              "duration": 2.03125
            },
            {
              "pitch": 52,
              "velocity": 87,
              "position": 21.59375,
              "duration": 1.0833333333333333
            },
            {
              "pitch": 56,
              "velocity": 67,
              "position": 22.677083333333332,
              "duration": 0.3333333333333333
            },
            {
              "pitch": 57,
              "velocity": 27,
              "position": 22.989583333333332,
              "duration": 0.6354166666666666
            },
            {
              "pitch": 59,
              "velocity": 101,
              "position": 23.59375,
              "duration": 0.4479166666666667
            },
            {
              "pitch": 60,
              "velocity": 57,
              "position": 24.010416666666668,
              "duration": 0.6041666666666666
            },
            {
              "pitch": 57,
              "velocity": 67,
              "position": 24.59375,
              "duration": 0.4166666666666667
            },
            {
              "pitch": 53,
              "velocity": 29,
              "position": 24.979166666666668,
              "duration": 0.625
            },
            {
              "pitch": 50,
              "velocity": 63,
              "position": 25.583333333333332,
              "duration": 0.4166666666666667
            },
            {
              "pitch": 51,
              "velocity": 32,
              "position": 25.979166666666668,
              "duration": 0.375
            },
            {
              "pitch": 57,
              "velocity": 40,
              "position": 26.333333333333332,
              "duration": 0.34375
            },
            {
              "pitch": 60,
              "velocity": 95,
              "position": 26.645833333333332,
              "duration": 0.3958333333333333
            },
            {
              "pitch": 59,
              "velocity": 59,
              "position": 27.010416666666668,
              "duration": 0.59375
            },
            {
              "pitch": 57,
              "velocity": 103,
              "position": 27.583333333333332,
              "duration": 0.4479166666666667
            },
            {
              "pitch": 55,
              "velocity": 61,
              "position": 28.010416666666668,
              "duration": 0.6041666666666666
            },
            {
              "pitch": 57,
              "velocity": 101,
              "position": 28.583333333333332,
              "duration": 0.4375
            },
            {
              "pitch": 58,
              "velocity": 55,
              "position": 29,
              "duration": 0.625
            },
            {
              "pitch": 56,
              "velocity": 33,
              "position": 29.59375,
              "duration": 0.40625
            },
            {
              "pitch": 57,
              "velocity": 102,
              "position": 29.979166666666668,
              "duration": 0.625
            },
            {
              "pitch": 52,
              "velocity": 38,
              "position": 30.583333333333332,
              "duration": 0.4479166666666667
            },
            {
              "pitch": 55,
              "velocity": 60,
              "position": 31.010416666666668,
              "duration": 0.6041666666666666
            },
            {
              "pitch": 54,
              "velocity": 102,
              "position": 31.583333333333332,
              "duration": 0.4479166666666667
            },
            {
              "pitch": 53,
              "velocity": 57,
              "position": 32.010416666666664,
              "duration": 0.6041666666666666
            },
            {
              "pitch": 57,
              "velocity": 25,
              "position": 32.59375,
              "duration": 0.4270833333333333
            },
            {
              "pitch": 60,
              "velocity": 52,
              "position": 32.989583333333336,
              "duration": 0.6145833333333334
            },
            {
              "pitch": 63,
              "velocity": 101,
              "position": 33.572916666666664,
              "duration": 0.4479166666666667
            },
            {
              "pitch": 64,
              "velocity": 57,
              "position": 34,
              "duration": 0.6041666666666666
            },
            {
              "pitch": 60,
              "velocity": 96,
              "position": 34.572916666666664,
              "duration": 0.4583333333333333
            },
            {
              "pitch": 62,
              "velocity": 56,
              "position": 35,
              "duration": 0.6041666666666666
            },
            {
              "pitch": 59,
              "velocity": 34,
              "position": 35.572916666666664,
              "duration": 0.4791666666666667
            },
            {
              "pitch": 60,
              "velocity": 97,
              "position": 36.010416666666664,
              "duration": 0.6145833333333334
            }
          ]
        },
        "15": {
          "ctab": {
            "srcChannel": 15,
            "name": "Tenor",
            "accType": "PHRASE2",
            "editable": false,
            "mutedNotes": [],
            "mutedChords": [
              "1+2+5",
              "sus4",
              "1+5",
              "1+8",
              "7aug",
              "Maj7aug",
              "7(#9)",
              "7(b13)",
              "7(b9)",
              "7(13)",
              "7#11",
              "7(9)",
              "7b5",
              "7sus4",
              "7th",
              "aug",
              "Maj6(9)",
              "Maj7(9)",
              "Maj(9)",
              "Maj7#11",
              "Maj7",
              "Maj6",
              "Maj"
            ],
            "autoStart": false,
            "sourceChordNote": 0,
            "sourceChordType": "min",
            "ctb2Low": null,
            "ctb2Main": {
              "ntr": "ROOT_TRANSPOSITION",
              "ntt": "BYPASS",
              "bassOn": false,
              "chordRootUpperLimit": 9,
              "noteLowLimit": 0,
              "noteHighLimit": 127,
              "rtr": "PITCH_SHIFT"
            },
            "ctb2High": null
          },
          "notes": [
            {
              "pitch": 50,
              "velocity": 96,
              "position": 6.645833333333333,
              "duration": 0.3854166666666667
            },
            {
              "pitch": 51,
              "velocity": 48,
              "position": 7,
              "duration": 0.3541666666666667
            },
            {
              "pitch": 55,
              "velocity": 50,
              "position": 7.333333333333333,
              "duration": 0.34375
            },
            {
              "pitch": 58,
              "velocity": 65,
              "position": 7.645833333333333,
              "duration": 0.3854166666666667
            },
            {
              "pitch": 62,
              "velocity": 60,
              "position": 8,
              "duration": 0.6041666666666666
            },
            {
              "pitch": 61,
              "velocity": 96,
              "position": 8.572916666666666,
              "duration": 0.4583333333333333
            },
            {
              "pitch": 60,
              "velocity": 61,
              "position": 9.010416666666666,
              "duration": 0.59375
            },
            {
              "pitch": 59,
              "velocity": 103,
              "position": 9.583333333333334,
              "duration": 0.4270833333333333
            },
            {
              "pitch": 58,
              "velocity": 62,
              "position": 9.989583333333334,
              "duration": 0.625
            },
            {
              "pitch": 55,
              "velocity": 99,
              "position": 10.59375,
              "duration": 0.4270833333333333
            },
            {
              "pitch": 51,
              "velocity": 57,
              "position": 11,
              "duration": 0.6041666666666666
            },
            {
              "pitch": 46,
              "velocity": 58,
              "position": 11.572916666666666,
              "duration": 0.4479166666666667
            },
            {
              "pitch": 50,
              "velocity": 101,
              "position": 12,
              "duration": 0.6041666666666666
            },
            {
              "pitch": 49,
              "velocity": 44,
              "position": 12.583333333333334,
              "duration": 0.4166666666666667
            },
            {
              "pitch": 48,
              "velocity": 66,
              "position": 12.979166666666666,
              "duration": 0.6145833333333334
            },
            {
              "pitch": 47,
              "velocity": 42,
              "position": 13.572916666666666,
              "duration": 0.4270833333333333
            },
            {
              "pitch": 46,
              "velocity": 96,
              "position": 13.979166666666666,
              "duration": 1.0625
            },
            {
              "pitch": 50,
              "velocity": 53,
              "position": 15,
              "duration": 0.625
            },
            {
              "pitch": 51,
              "velocity": 95,
              "position": 15.59375,
              "duration": 1.0208333333333333
            },
            {
              "pitch": 48,
              "velocity": 55,
              "position": 16.583333333333332,
              "duration": 0.4270833333333333
            },
            {
              "pitch": 51,
              "velocity": 96,
              "position": 16.979166666666668,
              "duration": 2.625
            },
            {
              "pitch": 53,
              "velocity": 90,
              "position": 19.583333333333332,
              "duration": 2.03125
            },
            {
              "pitch": 52,
              "velocity": 87,
              "position": 21.59375,
              "duration": 1.3958333333333333
            },
            {
              "pitch": 60,
              "velocity": 67,
              "position": 23,
              "duration": 0.3645833333333333
            },
            {
              "pitch": 61,
              "velocity": 56,
              "position": 23.333333333333332,
              "duration": 0.3645833333333333
            },
            {
              "pitch": 62,
              "velocity": 101,
              "position": 23.666666666666668,
              "duration": 0.3854166666666667
            },
            {
              "pitch": 63,
              "velocity": 57,
              "position": 24.010416666666668,
              "duration": 0.6041666666666666
            },
            {
              "pitch": 60,
              "velocity": 67,
              "position": 24.59375,
              "duration": 0.4166666666666667
            },
            {
              "pitch": 56,
              "velocity": 29,
              "position": 24.979166666666668,
              "duration": 0.625
            },
            {
              "pitch": 52,
              "velocity": 63,
              "position": 25.583333333333332,
              "duration": 0.4166666666666667
            },
            {
              "pitch": 53,
              "velocity": 32,
              "position": 25.979166666666668,
              "duration": 0.375
            },
            {
              "pitch": 60,
              "velocity": 40,
              "position": 26.333333333333332,
              "duration": 0.34375
            },
            {
              "pitch": 63,
              "velocity": 95,
              "position": 26.645833333333332,
              "duration": 0.3958333333333333
            },
            {
              "pitch": 62,
              "velocity": 59,
              "position": 27.010416666666668,
              "duration": 0.59375
            },
            {
              "pitch": 60,
              "velocity": 103,
              "position": 27.583333333333332,
              "duration": 0.4479166666666667
            },
            {
              "pitch": 58,
              "velocity": 61,
              "position": 28.010416666666668,
              "duration": 0.6041666666666666
            },
            {
              "pitch": 60,
              "velocity": 101,
              "position": 28.583333333333332,
              "duration": 0.4375
            },
            {
              "pitch": 61,
              "velocity": 55,
              "position": 29,
              "duration": 0.625
            },
            {
              "pitch": 59,
              "velocity": 33,
              "position": 29.59375,
              "duration": 0.40625
            },
            {
              "pitch": 60,
              "velocity": 102,
              "position": 29.979166666666668,
              "duration": 0.625
            },
            {
              "pitch": 58,
              "velocity": 38,
              "position": 30.583333333333332,
              "duration": 0.4479166666666667
            },
            {
              "pitch": 56,
              "velocity": 60,
              "position": 31.010416666666668,
              "duration": 0.6041666666666666
            },
            {
              "pitch": 55,
              "velocity": 102,
              "position": 31.583333333333332,
              "duration": 0.4479166666666667
            },
            {
              "pitch": 54,
              "velocity": 57,
              "position": 32.010416666666664,
              "duration": 0.6041666666666666
            },
            {
              "pitch": 57,
              "velocity": 25,
              "position": 32.59375,
              "duration": 0.4270833333333333
            },
            {
              "pitch": 60,
              "velocity": 52,
              "position": 32.989583333333336,
              "duration": 0.6145833333333334
            },
            {
              "pitch": 56,
              "velocity": 101,
              "position": 33.572916666666664,
              "duration": 0.4479166666666667
            },
            {
              "pitch": 57,
              "velocity": 57,
              "position": 34,
              "duration": 0.6041666666666666
            },
            {
              "pitch": 54,
              "velocity": 96,
              "position": 34.572916666666664,
              "duration": 0.4583333333333333
            },
            {
              "pitch": 56,
              "velocity": 56,
              "position": 35,
              "duration": 0.6041666666666666
            },
            {
              "pitch": 53,
              "velocity": 34,
              "position": 35.572916666666664,
              "duration": 0.4791666666666667
            },
            {
              "pitch": 55,
              "velocity": 97,
              "position": 36.010416666666664,
              "duration": 0.6145833333333334
            }
          ]
        }
      }
    },
    "Ending_B": {
      "type": "Ending_B",
      "sizeInBeats": 28,
      "channels": {
        "0": {
          "ctab": {
            "srcChannel": 0,
            "name": "Bass",
            "accType": "BASS",
            "editable": false,
            "mutedNotes": [],
            "mutedChords": [
              "dim7",
              "dim",
              "minMaj7(9)",
              "minMaj7",
              "min7(11)",
              "min7(9)",
              "min(9)",
              "m7b5",
              "min7",
              "min6",
              "min"
            ],
            "autoStart": false,
            "sourceChordNote": 0,
            "sourceChordType": "Maj",
            "ctb2Low": null,
            "ctb2Main": {
              "ntr": "ROOT_TRANSPOSITION",
              "ntt": "BYPASS",
              "bassOn": false,
              "chordRootUpperLimit": 8,
              "noteLowLimit": 30,
              "noteHighLimit": 127,
              "rtr": "PITCH_SHIFT"
            },
            "ctb2High": null
          },
          "notes": [
            {
              "pitch": 40,
              "velocity": 60,
              "position": 0,
              "duration": 0.6354166666666666
            },
            {
              "pitch": 28,
              "velocity": 70,
              "position": 0.6458333333333334,
              "duration": 0.19791666666666666
            },
            {
              "pitch": 32,
              "velocity": 60,
              "position": 1,
              "duration": 0.9895833333333334
            },
            {
              "pitch": 33,
              "velocity": 60,
              "position": 2,
              "duration": 0.9895833333333334
            },
            {
              "pitch": 40,
              "velocity": 60,
              "position": 3,
              "duration": 0.6354166666666666
            },
            {
              "pitch": 33,
              "velocity": 70,
              "position": 3.6458333333333335,
              "duration": 0.19791666666666666
            },
            {
              "pitch": 38,
              "velocity": 60,
              "position": 4,
              "duration": 0.6354166666666666
            },
            {
              "pitch": 26,
              "velocity": 70,
              "position": 4.645833333333333,
              "duration": 0.19791666666666666
            },
            {
              "pitch": 30,
              "velocity": 60,
              "position": 5,
              "duration": 0.9895833333333334
            },
            {
              "pitch": 31,
              "velocity": 60,
              "position": 6,
              "duration": 0.6354166666666666
            },
            {
              "pitch": 26,
              "velocity": 70,
              "position": 6.645833333333333,
              "duration": 0.19791666666666666
            },
            {
              "pitch": 35,
              "velocity": 60,
              "position": 7,
              "duration": 0.9895833333333334
            },
            {
              "pitch": 36,
              "velocity": 60,
              "position": 8,
              "duration": 0.6354166666666666
            },
            {
              "pitch": 24,
              "velocity": 70,
              "position": 8.645833333333334,
              "duration": 0.6979166666666666
            },
            {
              "pitch": 24,
              "velocity": 60,
              "position": 10,
              "duration": 0.9375
            },
            {
              "pitch": 24,
              "velocity": 70,
              "position": 11.645833333333334,
              "duration": 0.6979166666666666
            },
            {
              "pitch": 24,
              "velocity": 60,
              "position": 13,
              "duration": 0.9375
            },
            {
              "pitch": 24,
              "velocity": 70,
              "position": 14.395833333333334,
              "duration": 0.6979166666666666
            },
            {
              "pitch": 24,
              "velocity": 60,
              "position": 16,
              "duration": 10.989583333333334
            }
          ]
        },
        "1": {
          "ctab": {
            "srcChannel": 1,
            "name": "Bass",
            "accType": "BASS",
            "editable": false,
            "mutedNotes": [],
            "mutedChords": [
              "1+2+5",
              "sus4",
              "1+5",
              "1+8",
              "7aug",
              "Maj7aug",
              "7(#9)",
              "7(b13)",
              "7(b9)",
              "7(13)",
              "7#11",
              "7(9)",
              "7b5",
              "7sus4",
              "7th",
              "aug",
              "Maj6(9)",
              "Maj7(9)",
              "Maj(9)",
              "Maj7#11",
              "Maj7",
              "Maj6",
              "Maj"
            ],
            "autoStart": false,
            "sourceChordNote": 0,
            "sourceChordType": "min",
            "ctb2Low": null,
            "ctb2Main": {
              "ntr": "ROOT_TRANSPOSITION",
              "ntt": "BYPASS",
              "bassOn": false,
              "chordRootUpperLimit": 8,
              "noteLowLimit": 30,
              "noteHighLimit": 127,
              "rtr": "PITCH_SHIFT"
            },
            "ctb2High": null
          },
          "notes": [
            {
              "pitch": 40,
              "velocity": 60,
              "position": 0,
              "duration": 0.6354166666666666
            },
            {
              "pitch": 28,
              "velocity": 70,
              "position": 0.6458333333333334,
              "duration": 0.19791666666666666
            },
            {
              "pitch": 31,
              "velocity": 60,
              "position": 1,
              "duration": 0.9375
            },
            {
              "pitch": 32,
              "velocity": 60,
              "position": 2,
              "duration": 0.9375
            },
            {
              "pitch": 40,
              "velocity": 60,
              "position": 3,
              "duration": 0.6354166666666666
            },
            {
              "pitch": 32,
              "velocity": 70,
              "position": 3.6458333333333335,
              "duration": 0.19791666666666666
            },
            {
              "pitch": 38,
              "velocity": 60,
              "position": 4,
              "duration": 0.6354166666666666
            },
            {
              "pitch": 26,
              "velocity": 70,
              "position": 4.645833333333333,
              "duration": 0.19791666666666666
            },
            {
              "pitch": 30,
              "velocity": 60,
              "position": 5,
              "duration": 0.9375
            },
            {
              "pitch": 31,
              "velocity": 60,
              "position": 6,
              "duration": 0.6354166666666666
            },
            {
              "pitch": 26,
              "velocity": 70,
              "position": 6.645833333333333,
              "duration": 0.19791666666666666
            },
            {
              "pitch": 35,
              "velocity": 60,
              "position": 7,
              "duration": 0.9375
            },
            {
              "pitch": 36,
              "velocity": 60,
              "position": 8,
              "duration": 0.6354166666666666
            },
            {
              "pitch": 24,
              "velocity": 70,
              "position": 8.645833333333334,
              "duration": 0.6979166666666666
            },
            {
              "pitch": 24,
              "velocity": 60,
              "position": 10,
              "duration": 0.9375
            },
            {
              "pitch": 24,
              "velocity": 70,
              "position": 11.645833333333334,
              "duration": 0.6979166666666666
            },
            {
              "pitch": 24,
              "velocity": 60,
              "position": 13,
              "duration": 0.9375
            },
            {
              "pitch": 24,
              "velocity": 70,
              "position": 14.395833333333334,
              "duration": 0.6979166666666666
            },
            {
              "pitch": 24,
              "velocity": 60,
              "position": 16,
              "duration": 10.989583333333334
            }
          ]
        },
        "2": {
          "ctab": {
            "srcChannel": 2,
            "name": "BassFX",
            "accType": "BASS",
            "editable": false,
            "mutedNotes": [],
            "mutedChords": [],
            "autoStart": false,
            "sourceChordNote": 0,
            "sourceChordType": "min",
            "ctb2Low": null,
            "ctb2Main": {
              "ntr": "ROOT_FIXED",
              "ntt": "BYPASS",
              "bassOn": false,
              "chordRootUpperLimit": 8,
              "noteLowLimit": 0,
              "noteHighLimit": 127,
              "rtr": "PITCH_SHIFT"
            },
            "ctb2High": null
          },
          "notes": []
        },
        "3": {
          "ctab": {
            "srcChannel": 3,
            "name": "Pno LH",
            "accType": "CHORD1",
            "editable": false,
            "mutedNotes": [],
            "mutedChords": [
              "dim7",
              "dim",
              "minMaj7(9)",
              "minMaj7",
              "min7(11)",
              "min7(9)",
              "min(9)",
              "m7b5",
              "min7",
              "min6",
              "min"
            ],
            "autoStart": false,
            "sourceChordNote": 0,
            "sourceChordType": "Maj",
            "ctb2Low": null,
            "ctb2Main": {
              "ntr": "ROOT_TRANSPOSITION",
              "ntt": "BYPASS",
              "bassOn": false,
              "chordRootUpperLimit": 1,
              "noteLowLimit": 30,
              "noteHighLimit": 65,
              "rtr": "PITCH_SHIFT"
            },
            "ctb2High": null
          },
          "notes": [
            {
              "pitch": 68,
              "velocity": 55,
              "position": 0,
              "duration": 1.7604166666666667
            },
            {
              "pitch": 62,
              "velocity": 68,
              "position": 0,
              "duration": 1.7708333333333333
            },
            {
              "pitch": 72,
              "velocity": 58,
              "position": 0,
              "duration": 1.7916666666666667
            },
            {
              "pitch": 70,
              "velocity": 43,
              "position": 1.9895833333333333,
              "duration": 0.9895833333333334
            },
            {
              "pitch": 61,
              "velocity": 52,
              "position": 1.9895833333333333,
              "duration": 1.0208333333333333
            },
            {
              "pitch": 67,
              "velocity": 50,
              "position": 2,
              "duration": 1.0208333333333333
            },
            {
              "pitch": 69,
              "velocity": 47,
              "position": 3.6145833333333335,
              "duration": 2.2291666666666665
            },
            {
              "pitch": 60,
              "velocity": 54,
              "position": 3.625,
              "duration": 2.2395833333333335
            },
            {
              "pitch": 65,
              "velocity": 56,
              "position": 3.625,
              "duration": 2.2708333333333335
            },
            {
              "pitch": 74,
              "velocity": 46,
              "position": 11.625,
              "duration": 0.53125
            },
            {
              "pitch": 69,
              "velocity": 48,
              "position": 11.614583333333334,
              "duration": 0.5520833333333334
            },
            {
              "pitch": 64,
              "velocity": 45,
              "position": 11.625,
              "duration": 0.5416666666666666
            },
            {
              "pitch": 69,
              "velocity": 61,
              "position": 13,
              "duration": 1.2395833333333333
            },
            {
              "pitch": 74,
              "velocity": 56,
              "position": 13,
              "duration": 1.2395833333333333
            },
            {
              "pitch": 64,
              "velocity": 62,
              "position": 13,
              "duration": 1.25
            },
            {
              "pitch": 64,
              "velocity": 45,
              "position": 14.614583333333334,
              "duration": 0.5208333333333334
            },
            {
              "pitch": 74,
              "velocity": 47,
              "position": 14.614583333333334,
              "duration": 0.5208333333333334
            },
            {
              "pitch": 69,
              "velocity": 48,
              "position": 14.625,
              "duration": 0.5520833333333334
            },
            {
              "pitch": 69,
              "velocity": 60,
              "position": 16,
              "duration": 10.979166666666666
            },
            {
              "pitch": 74,
              "velocity": 59,
              "position": 15.989583333333334,
              "duration": 11
            },
            {
              "pitch": 64,
              "velocity": 56,
              "position": 16,
              "duration": 10.989583333333334
            }
          ]
        },
        "4": {
          "ctab": {
            "srcChannel": 4,
            "name": "Pno LH",
            "accType": "CHORD1",
            "editable": false,
            "mutedNotes": [],
            "mutedChords": [
              "1+2+5",
              "sus4",
              "1+5",
              "1+8",
              "7aug",
              "Maj7aug",
              "7(#9)",
              "7(b13)",
              "7(b9)",
              "7(13)",
              "7#11",
              "7(9)",
              "7b5",
              "7sus4",
              "7th",
              "aug",
              "Maj6(9)",
              "Maj7(9)",
              "Maj(9)",
              "Maj7#11",
              "Maj7",
              "Maj6",
              "Maj"
            ],
            "autoStart": false,
            "sourceChordNote": 0,
            "sourceChordType": "min",
            "ctb2Low": null,
            "ctb2Main": {
              "ntr": "ROOT_TRANSPOSITION",
              "ntt": "BYPASS",
              "bassOn": false,
              "chordRootUpperLimit": 1,
              "noteLowLimit": 30,
              "noteHighLimit": 65,
              "rtr": "PITCH_SHIFT"
            },
            "ctb2High": null
          },
          "notes": [
            {
              "pitch": 73,
              "velocity": 69,
              "position": 0,
              "duration": 1.75
            },
            {
              "pitch": 77,
              "velocity": 61,
              "position": 0,
              "duration": 1.7604166666666667
            },
            {
              "pitch": 67,
              "velocity": 59,
              "position": 0,
              "duration": 1.78125
            },
            {
              "pitch": 66,
              "velocity": 49,
              "position": 1.9895833333333333,
              "duration": 1
            },
            {
              "pitch": 72,
              "velocity": 46,
              "position": 2,
              "duration": 0.9895833333333334
            },
            {
              "pitch": 75,
              "velocity": 51,
              "position": 2,
              "duration": 1
            },
            {
              "pitch": 66,
              "velocity": 56,
              "position": 3.625,
              "duration": 2.2291666666666665
            },
            {
              "pitch": 72,
              "velocity": 57,
              "position": 3.625,
              "duration": 2.2604166666666665
            },
            {
              "pitch": 75,
              "velocity": 45,
              "position": 3.625,
              "duration": 2.2604166666666665
            },
            {
              "pitch": 63,
              "velocity": 43,
              "position": 11.614583333333334,
              "duration": 0.53125
            },
            {
              "pitch": 74,
              "velocity": 42,
              "position": 11.625,
              "duration": 0.5520833333333334
            },
            {
              "pitch": 69,
              "velocity": 42,
              "position": 11.625,
              "duration": 0.5625
            },
            {
              "pitch": 63,
              "velocity": 58,
              "position": 13,
              "duration": 1.2291666666666667
            },
            {
              "pitch": 74,
              "velocity": 56,
              "position": 13,
              "duration": 1.2291666666666667
            },
            {
              "pitch": 69,
              "velocity": 55,
              "position": 13,
              "duration": 1.2395833333333333
            },
            {
              "pitch": 69,
              "velocity": 46,
              "position": 14.614583333333334,
              "duration": 0.5208333333333334
            },
            {
              "pitch": 63,
              "velocity": 44,
              "position": 14.625,
              "duration": 0.53125
            },
            {
              "pitch": 74,
              "velocity": 42,
              "position": 14.625,
              "duration": 0.5520833333333334
            },
            {
              "pitch": 63,
              "velocity": 54,
              "position": 16,
              "duration": 11
            },
            {
              "pitch": 74,
              "velocity": 58,
              "position": 16,
              "duration": 11
            },
            {
              "pitch": 69,
              "velocity": 61,
              "position": 15.989583333333334,
              "duration": 11.020833333333334
            }
          ]
        },
        "5": {
          "ctab": {
            "srcChannel": 5,
            "name": "Pno RH",
            "accType": "CHORD2",
            "editable": false,
            "mutedNotes": [],
            "mutedChords": [
              "dim7",
              "dim",
              "minMaj7(9)",
              "minMaj7",
              "min7(11)",
              "min7(9)",
              "min(9)",
              "m7b5",
              "min7",
              "min6",
              "min"
            ],
            "autoStart": false,
            "sourceChordNote": 0,
            "sourceChordType": "Maj",
            "ctb2Low": null,
            "ctb2Main": {
              "ntr": "ROOT_TRANSPOSITION",
              "ntt": "BYPASS",
              "bassOn": false,
              "chordRootUpperLimit": 11,
              "noteLowLimit": 0,
              "noteHighLimit": 79,
              "rtr": "PITCH_SHIFT"
            },
            "ctb2High": null
          },
          "notes": [
            {
              "pitch": 79,
              "velocity": 124,
              "position": 0,
              "duration": 1.875
            },
            {
              "pitch": 91,
              "velocity": 125,
              "position": 0,
              "duration": 1.875
            },
            {
              "pitch": 88,
              "velocity": 127,
              "position": 0,
              "duration": 1.8958333333333333
            },
            {
              "pitch": 87,
              "velocity": 127,
              "position": 1.9895833333333333,
              "duration": 0.2604166666666667
            },
            {
              "pitch": 88,
              "velocity": 86,
              "position": 2.2604166666666665,
              "duration": 0.1875
            },
            {
              "pitch": 91,
              "velocity": 121,
              "position": 1.9895833333333333,
              "duration": 0.4791666666666667
            },
            {
              "pitch": 84,
              "velocity": 67,
              "position": 2.625,
              "duration": 0.34375
            },
            {
              "pitch": 81,
              "velocity": 88,
              "position": 3,
              "duration": 0.4583333333333333
            },
            {
              "pitch": 80,
              "velocity": 119,
              "position": 3.6145833333333335,
              "duration": 0.4270833333333333
            },
            {
              "pitch": 79,
              "velocity": 73,
              "position": 3.9791666666666665,
              "duration": 0.3541666666666667
            },
            {
              "pitch": 76,
              "velocity": 103,
              "position": 4.625,
              "duration": 0.3958333333333333
            },
            {
              "pitch": 72,
              "velocity": 64,
              "position": 5.010416666666667,
              "duration": 0.3645833333333333
            },
            {
              "pitch": 69,
              "velocity": 50,
              "position": 5.625,
              "duration": 0.16666666666666666
            },
            {
              "pitch": 67,
              "velocity": 119,
              "position": 5.989583333333333,
              "duration": 0.4375
            },
            {
              "pitch": 55,
              "velocity": 51,
              "position": 6.604166666666667,
              "duration": 0.15625
            },
            {
              "pitch": 65,
              "velocity": 123,
              "position": 7,
              "duration": 0.40625
            },
            {
              "pitch": 67,
              "velocity": 94,
              "position": 7.489583333333333,
              "duration": 0.17708333333333334
            },
            {
              "pitch": 65,
              "velocity": 80,
              "position": 7.75,
              "duration": 0.1875
            },
            {
              "pitch": 64,
              "velocity": 77,
              "position": 7.989583333333333,
              "duration": 0.40625
            },
            {
              "pitch": 60,
              "velocity": 121,
              "position": 8.541666666666666,
              "duration": 0.2916666666666667
            },
            {
              "pitch": 55,
              "velocity": 81,
              "position": 9.583333333333334,
              "duration": 0.15625
            },
            {
              "pitch": 60,
              "velocity": 100,
              "position": 10,
              "duration": 1.1041666666666667
            },
            {
              "pitch": 71,
              "velocity": 82,
              "position": 11.614583333333334,
              "duration": 0.5208333333333334
            },
            {
              "pitch": 74,
              "velocity": 83,
              "position": 11.614583333333334,
              "duration": 0.53125
            },
            {
              "pitch": 79,
              "velocity": 99,
              "position": 11.625,
              "duration": 0.53125
            },
            {
              "pitch": 67,
              "velocity": 98,
              "position": 11.614583333333334,
              "duration": 0.5520833333333334
            },
            {
              "pitch": 74,
              "velocity": 77,
              "position": 12.614583333333334,
              "duration": 0.14583333333333334
            },
            {
              "pitch": 71,
              "velocity": 107,
              "position": 12.989583333333334,
              "duration": 1.2395833333333333
            },
            {
              "pitch": 79,
              "velocity": 119,
              "position": 12.989583333333334,
              "duration": 1.2395833333333333
            },
            {
              "pitch": 67,
              "velocity": 124,
              "position": 12.989583333333334,
              "duration": 1.25
            },
            {
              "pitch": 74,
              "velocity": 104,
              "position": 13,
              "duration": 1.2604166666666667
            },
            {
              "pitch": 81,
              "velocity": 82,
              "position": 14.614583333333334,
              "duration": 0.53125
            },
            {
              "pitch": 79,
              "velocity": 89,
              "position": 14.614583333333334,
              "duration": 0.5416666666666666
            },
            {
              "pitch": 86,
              "velocity": 98,
              "position": 14.614583333333334,
              "duration": 0.5520833333333334
            },
            {
              "pitch": 74,
              "velocity": 98,
              "position": 14.625,
              "duration": 0.5416666666666666
            },
            {
              "pitch": 79,
              "velocity": 72,
              "position": 15.625,
              "duration": 0.15625
            },
            {
              "pitch": 74,
              "velocity": 119,
              "position": 15.989583333333334,
              "duration": 10.989583333333334
            },
            {
              "pitch": 79,
              "velocity": 104,
              "position": 15.989583333333334,
              "duration": 11
            },
            {
              "pitch": 83,
              "velocity": 109,
              "position": 15.989583333333334,
              "duration": 11
            },
            {
              "pitch": 86,
              "velocity": 123,
              "position": 16,
              "duration": 11.010416666666666
            }
          ]
        },
        "6": {
          "ctab": {
            "srcChannel": 6,
            "name": "Pno RH",
            "accType": "CHORD2",
            "editable": false,
            "mutedNotes": [],
            "mutedChords": [
              "1+2+5",
              "sus4",
              "1+5",
              "1+8",
              "7aug",
              "Maj7aug",
              "7(#9)",
              "7(b13)",
              "7(b9)",
              "7(13)",
              "7#11",
              "7(9)",
              "7b5",
              "7sus4",
              "7th",
              "aug",
              "Maj6(9)",
              "Maj7(9)",
              "Maj(9)",
              "Maj7#11",
              "Maj7",
              "Maj6",
              "Maj"
            ],
            "autoStart": false,
            "sourceChordNote": 0,
            "sourceChordType": "min",
            "ctb2Low": null,
            "ctb2Main": {
              "ntr": "ROOT_TRANSPOSITION",
              "ntt": "BYPASS",
              "bassOn": false,
              "chordRootUpperLimit": 9,
              "noteLowLimit": 0,
              "noteHighLimit": 79,
              "rtr": "PITCH_SHIFT"
            },
            "ctb2High": null
          },
          "notes": [
            {
              "pitch": 77,
              "velocity": 126,
              "position": 0,
              "duration": 1.8541666666666667
            },
            {
              "pitch": 89,
              "velocity": 121,
              "position": 0,
              "duration": 1.875
            },
            {
              "pitch": 84,
              "velocity": 125,
              "position": 0,
              "duration": 1.8958333333333333
            },
            {
              "pitch": 83,
              "velocity": 127,
              "position": 1.9895833333333333,
              "duration": 0.25
            },
            {
              "pitch": 84,
              "velocity": 83,
              "position": 2.2604166666666665,
              "duration": 0.16666666666666666
            },
            {
              "pitch": 89,
              "velocity": 124,
              "position": 2,
              "duration": 0.4375
            },
            {
              "pitch": 82,
              "velocity": 74,
              "position": 2.6041666666666665,
              "duration": 0.375
            },
            {
              "pitch": 78,
              "velocity": 89,
              "position": 2.9895833333333335,
              "duration": 0.4791666666666667
            },
            {
              "pitch": 77,
              "velocity": 117,
              "position": 3.625,
              "duration": 0.4166666666666667
            },
            {
              "pitch": 75,
              "velocity": 76,
              "position": 3.9791666666666665,
              "duration": 0.3645833333333333
            },
            {
              "pitch": 72,
              "velocity": 98,
              "position": 4.625,
              "duration": 0.375
            },
            {
              "pitch": 70,
              "velocity": 61,
              "position": 5.010416666666667,
              "duration": 0.3541666666666667
            },
            {
              "pitch": 67,
              "velocity": 53,
              "position": 5.625,
              "duration": 0.16666666666666666
            },
            {
              "pitch": 66,
              "velocity": 127,
              "position": 5.979166666666667,
              "duration": 0.40625
            },
            {
              "pitch": 60,
              "velocity": 52,
              "position": 6.604166666666667,
              "duration": 0.14583333333333334
            },
            {
              "pitch": 65,
              "velocity": 124,
              "position": 6.989583333333333,
              "duration": 0.40625
            },
            {
              "pitch": 66,
              "velocity": 97,
              "position": 7.489583333333333,
              "duration": 0.14583333333333334
            },
            {
              "pitch": 65,
              "velocity": 82,
              "position": 7.75,
              "duration": 0.19791666666666666
            },
            {
              "pitch": 63,
              "velocity": 78,
              "position": 8,
              "duration": 0.3645833333333333
            },
            {
              "pitch": 60,
              "velocity": 119,
              "position": 8.583333333333334,
              "duration": 0.2708333333333333
            },
            {
              "pitch": 55,
              "velocity": 72,
              "position": 9.625,
              "duration": 0.15625
            },
            {
              "pitch": 60,
              "velocity": 102,
              "position": 10,
              "duration": 1.1145833333333333
            },
            {
              "pitch": 74,
              "velocity": 83,
              "position": 11.572916666666666,
              "duration": 0.5208333333333334
            },
            {
              "pitch": 67,
              "velocity": 98,
              "position": 11.572916666666666,
              "duration": 0.53125
            },
            {
              "pitch": 71,
              "velocity": 82,
              "position": 11.583333333333334,
              "duration": 0.5208333333333334
            },
            {
              "pitch": 79,
              "velocity": 98,
              "position": 11.572916666666666,
              "duration": 0.5520833333333334
            },
            {
              "pitch": 74,
              "velocity": 74,
              "position": 12.614583333333334,
              "duration": 0.16666666666666666
            },
            {
              "pitch": 74,
              "velocity": 106,
              "position": 12.989583333333334,
              "duration": 1.2291666666666667
            },
            {
              "pitch": 79,
              "velocity": 123,
              "position": 12.989583333333334,
              "duration": 1.2291666666666667
            },
            {
              "pitch": 67,
              "velocity": 120,
              "position": 13,
              "duration": 1.2291666666666667
            },
            {
              "pitch": 71,
              "velocity": 104,
              "position": 13,
              "duration": 1.2291666666666667
            },
            {
              "pitch": 83,
              "velocity": 85,
              "position": 14.572916666666666,
              "duration": 0.53125
            },
            {
              "pitch": 86,
              "velocity": 95,
              "position": 14.572916666666666,
              "duration": 0.53125
            },
            {
              "pitch": 74,
              "velocity": 97,
              "position": 14.572916666666666,
              "duration": 0.5416666666666666
            },
            {
              "pitch": 79,
              "velocity": 87,
              "position": 14.583333333333334,
              "duration": 0.5520833333333334
            },
            {
              "pitch": 79,
              "velocity": 71,
              "position": 15.625,
              "duration": 0.15625
            },
            {
              "pitch": 79,
              "velocity": 107,
              "position": 15.989583333333334,
              "duration": 10.989583333333334
            },
            {
              "pitch": 74,
              "velocity": 120,
              "position": 16,
              "duration": 10.979166666666666
            },
            {
              "pitch": 86,
              "velocity": 120,
              "position": 15.989583333333334,
              "duration": 11.020833333333334
            },
            {
              "pitch": 83,
              "velocity": 110,
              "position": 16,
              "duration": 11.010416666666666
            }
          ]
        },
        "9": {
          "ctab": {
            "srcChannel": 9,
            "name": "Drs",
            "accType": "RHYTHM",
            "editable": false,
            "mutedNotes": [],
            "mutedChords": [],
            "autoStart": true,
            "sourceChordNote": 0,
            "sourceChordType": "Maj7",
            "ctb2Low": null,
            "ctb2Main": {
              "ntr": "ROOT_FIXED",
              "ntt": "BYPASS",
              "bassOn": false,
              "chordRootUpperLimit": 6,
              "noteLowLimit": 0,
              "noteHighLimit": 127,
              "rtr": "PITCH_SHIFT"
            },
            "ctb2High": null
          },
          "notes": [
            {
              "pitch": 59,
              "velocity": 72,
              "position": 0,
              "duration": 0.010416666666666666
            },
            {
              "pitch": 44,
              "velocity": 64,
              "position": 1,
              "duration": 0.010416666666666666
            },
            {
              "pitch": 59,
              "velocity": 72,
              "position": 1,
              "duration": 0.010416666666666666
            },
            {
              "pitch": 59,
              "velocity": 34,
              "position": 1.6666666666666667,
              "duration": 0.010416666666666666
            },
            {
              "pitch": 59,
              "velocity": 69,
              "position": 2,
              "duration": 0.010416666666666666
            },
            {
              "pitch": 37,
              "velocity": 127,
              "position": 3,
              "duration": 0.010416666666666666
            },
            {
              "pitch": 44,
              "velocity": 63,
              "position": 3,
              "duration": 0.010416666666666666
            },
            {
              "pitch": 59,
              "velocity": 62,
              "position": 3,
              "duration": 0.010416666666666666
            },
            {
              "pitch": 59,
              "velocity": 29,
              "position": 3.6666666666666665,
              "duration": 0.010416666666666666
            },
            {
              "pitch": 59,
              "velocity": 73,
              "position": 4,
              "duration": 0.010416666666666666
            },
            {
              "pitch": 44,
              "velocity": 61,
              "position": 5,
              "duration": 0.010416666666666666
            },
            {
              "pitch": 59,
              "velocity": 73,
              "position": 5,
              "duration": 0.010416666666666666
            },
            {
              "pitch": 59,
              "velocity": 19,
              "position": 5.666666666666667,
              "duration": 0.010416666666666666
            },
            {
              "pitch": 59,
              "velocity": 67,
              "position": 6,
              "duration": 0.010416666666666666
            },
            {
              "pitch": 37,
              "velocity": 127,
              "position": 7,
              "duration": 0.010416666666666666
            },
            {
              "pitch": 44,
              "velocity": 60,
              "position": 7,
              "duration": 0.010416666666666666
            },
            {
              "pitch": 59,
              "velocity": 71,
              "position": 7,
              "duration": 0.010416666666666666
            },
            {
              "pitch": 59,
              "velocity": 19,
              "position": 7.666666666666667,
              "duration": 0.010416666666666666
            },
            {
              "pitch": 59,
              "velocity": 74,
              "position": 8,
              "duration": 0.010416666666666666
            },
            {
              "pitch": 44,
              "velocity": 68,
              "position": 9,
              "duration": 0.010416666666666666
            },
            {
              "pitch": 59,
              "velocity": 60,
              "position": 9,
              "duration": 0.010416666666666666
            },
            {
              "pitch": 59,
              "velocity": 29,
              "position": 9.666666666666666,
              "duration": 0.010416666666666666
            },
            {
              "pitch": 59,
              "velocity": 71,
              "position": 10,
              "duration": 0.010416666666666666
            },
            {
              "pitch": 38,
              "velocity": 38,
              "position": 10.541666666666666,
              "duration": 0.010416666666666666
            },
            {
              "pitch": 38,
              "velocity": 82,
              "position": 11,
              "duration": 0.010416666666666666
            },
            {
              "pitch": 44,
              "velocity": 70,
              "position": 11,
              "duration": 0.010416666666666666
            },
            {
              "pitch": 59,
              "velocity": 75,
              "position": 11,
              "duration": 0.010416666666666666
            },
            {
              "pitch": 33,
              "velocity": 60,
              "position": 11.666666666666666,
              "duration": 0.010416666666666666
            },
            {
              "pitch": 51,
              "velocity": 127,
              "position": 11.666666666666666,
              "duration": 0.010416666666666666
            },
            {
              "pitch": 53,
              "velocity": 47,
              "position": 11.666666666666666,
              "duration": 0.010416666666666666
            },
            {
              "pitch": 38,
              "velocity": 24,
              "position": 12,
              "duration": 0.010416666666666666
            },
            {
              "pitch": 38,
              "velocity": 68,
              "position": 12.541666666666666,
              "duration": 0.010416666666666666
            },
            {
              "pitch": 33,
              "velocity": 82,
              "position": 13,
              "duration": 0.010416666666666666
            },
            {
              "pitch": 44,
              "velocity": 63,
              "position": 13,
              "duration": 0.010416666666666666
            },
            {
              "pitch": 49,
              "velocity": 55,
              "position": 13,
              "duration": 0.010416666666666666
            },
            {
              "pitch": 59,
              "velocity": 111,
              "position": 13,
              "duration": 0.010416666666666666
            },
            {
              "pitch": 38,
              "velocity": 38,
              "position": 13.541666666666666,
              "duration": 0.010416666666666666
            },
            {
              "pitch": 38,
              "velocity": 82,
              "position": 14,
              "duration": 0.010416666666666666
            },
            {
              "pitch": 44,
              "velocity": 70,
              "position": 14,
              "duration": 0.010416666666666666
            },
            {
              "pitch": 59,
              "velocity": 75,
              "position": 14,
              "duration": 0.010416666666666666
            },
            {
              "pitch": 33,
              "velocity": 60,
              "position": 14.666666666666666,
              "duration": 0.010416666666666666
            },
            {
              "pitch": 51,
              "velocity": 127,
              "position": 14.666666666666666,
              "duration": 0.010416666666666666
            },
            {
              "pitch": 53,
              "velocity": 47,
              "position": 14.666666666666666,
              "duration": 0.010416666666666666
            },
            {
              "pitch": 38,
              "velocity": 24,
              "position": 15,
              "duration": 0.010416666666666666
            },
            {
              "pitch": 38,
              "velocity": 68,
              "position": 15.541666666666666,
              "duration": 0.010416666666666666
            },
            {
              "pitch": 33,
              "velocity": 82,
              "position": 16,
              "duration": 0.010416666666666666
            },
            {
              "pitch": 44,
              "velocity": 63,
              "position": 16,
              "duration": 0.010416666666666666
            },
            {
              "pitch": 49,
              "velocity": 55,
              "position": 16,
              "duration": 0.010416666666666666
            },
            {
              "pitch": 59,
              "velocity": 111,
              "position": 16,
              "duration": 0.010416666666666666
            },
            {
              "pitch": 38,
              "velocity": 38,
              "position": 26.5,
              "duration": 0.010416666666666666
            },
            {
              "pitch": 38,
              "velocity": 19,
              "position": 26.75,
              "duration": 0.010416666666666666
            },
            {
              "pitch": 33,
              "velocity": 60,
              "position": 27,
              "duration": 0.010416666666666666
            },
            {
              "pitch": 44,
              "velocity": 60,
              "position": 27,
              "duration": 0.010416666666666666
            }
          ]
        },
        "10": {
          "ctab": {
            "srcChannel": 10,
            "name": "Tpt",
            "accType": "PAD",
            "editable": false,
            "mutedNotes": [],
            "mutedChords": [
              "dim7",
              "dim",
              "minMaj7(9)",
              "minMaj7",
              "min7(11)",
              "min7(9)",
              "min(9)",
              "m7b5",
              "min7",
              "min6",
              "min"
            ],
            "autoStart": false,
            "sourceChordNote": 0,
            "sourceChordType": "Maj",
            "ctb2Low": null,
            "ctb2Main": {
              "ntr": "ROOT_TRANSPOSITION",
              "ntt": "BYPASS",
              "bassOn": false,
              "chordRootUpperLimit": 6,
              "noteLowLimit": 0,
              "noteHighLimit": 127,
              "rtr": "PITCH_SHIFT"
            },
            "ctb2High": null
          },
          "notes": []
        },
        "11": {
          "ctab": {
            "srcChannel": 11,
            "name": "Tpt",
            "accType": "PAD",
            "editable": false,
            "mutedNotes": [],
            "mutedChords": [
              "1+2+5",
              "sus4",
              "1+5",
              "1+8",
              "7aug",
              "Maj7aug",
              "7(#9)",
              "7(b13)",
              "7(b9)",
              "7(13)",
              "7#11",
              "7(9)",
              "7b5",
              "7sus4",
              "7th",
              "aug",
              "Maj6(9)",
              "Maj7(9)",
              "Maj(9)",
              "Maj7#11",
              "Maj7",
              "Maj6",
              "Maj"
            ],
            "autoStart": false,
            "sourceChordNote": 0,
            "sourceChordType": "min",
            "ctb2Low": null,
            "ctb2Main": {
              "ntr": "ROOT_TRANSPOSITION",
              "ntt": "BYPASS",
              "bassOn": false,
              "chordRootUpperLimit": 6,
              "noteLowLimit": 0,
              "noteHighLimit": 127,
              "rtr": "PITCH_SHIFT"
            },
            "ctb2High": null
          },
          "notes": []
        },
        "12": {
          "ctab": {
            "srcChannel": 12,
            "name": "Alto",
            "accType": "PHRASE1",
            "editable": false,
            "mutedNotes": [],
            "mutedChords": [
              "dim7",
              "dim",
              "minMaj7(9)",
              "minMaj7",
              "min7(11)",
              "min7(9)",
              "min(9)",
              "m7b5",
              "min7",
              "min6",
              "min"
            ],
            "autoStart": false,
            "sourceChordNote": 0,
            "sourceChordType": "Maj",
            "ctb2Low": null,
            "ctb2Main": {
              "ntr": "ROOT_TRANSPOSITION",
              "ntt": "BYPASS",
              "bassOn": false,
              "chordRootUpperLimit": 2,
              "noteLowLimit": 0,
              "noteHighLimit": 127,
              "rtr": "PITCH_SHIFT"
            },
            "ctb2High": null
          },
          "notes": []
        },
        "13": {
          "ctab": {
            "srcChannel": 13,
            "name": "Alto",
            "accType": "PHRASE1",
            "editable": false,
            "mutedNotes": [],
            "mutedChords": [
              "1+2+5",
              "sus4",
              "1+5",
              "1+8",
              "7aug",
              "Maj7aug",
              "7(#9)",
              "7(b13)",
              "7(b9)",
              "7(13)",
              "7#11",
              "7(9)",
              "7b5",
              "7sus4",
              "7th",
              "aug",
              "Maj6(9)",
              "Maj7(9)",
              "Maj(9)",
              "Maj7#11",
              "Maj7",
              "Maj6",
              "Maj"
            ],
            "autoStart": false,
            "sourceChordNote": 0,
            "sourceChordType": "min",
            "ctb2Low": null,
            "ctb2Main": {
              "ntr": "ROOT_TRANSPOSITION",
              "ntt": "BYPASS",
              "bassOn": false,
              "chordRootUpperLimit": 2,
              "noteLowLimit": 0,
              "noteHighLimit": 127,
              "rtr": "PITCH_SHIFT"
            },
            "ctb2High": null
          },
          "notes": []
        },
        "14": {
          "ctab": {
            "srcChannel": 14,
            "name": "Tenor",
            "accType": "PHRASE2",
            "editable": false,
            "mutedNotes": [],
            "mutedChords": [
              "dim7",
              "dim",
              "minMaj7(9)",
              "minMaj7",
              "min7(11)",
              "min7(9)",
              "min(9)",
              "m7b5",
              "min7",
              "min6",
              "min"
            ],
            "autoStart": false,
            "sourceChordNote": 0,
            "sourceChordType": "Maj",
            "ctb2Low": null,
            "ctb2Main": {
              "ntr": "ROOT_TRANSPOSITION",
              "ntt": "BYPASS",
              "bassOn": false,
              "chordRootUpperLimit": 9,
              "noteLowLimit": 0,
              "noteHighLimit": 127,
              "rtr": "PITCH_SHIFT"
            },
            "ctb2High": null
          },
          "notes": []
        },
        "15": {
          "ctab": {
            "srcChannel": 15,
            "name": "Tenor",
            "accType": "PHRASE2",
            "editable": false,
            "mutedNotes": [],
            "mutedChords": [
              "1+2+5",
              "sus4",
              "1+5",
              "1+8",
              "7aug",
              "Maj7aug",
              "7(#9)",
              "7(b13)",
              "7(b9)",
              "7(13)",
              "7#11",
              "7(9)",
              "7b5",
              "7sus4",
              "7th",
              "aug",
              "Maj6(9)",
              "Maj7(9)",
              "Maj(9)",
              "Maj7#11",
              "Maj7",
              "Maj6",
              "Maj"
            ],
            "autoStart": false,
            "sourceChordNote": 0,
            "sourceChordType": "min",
            "ctb2Low": null,
            "ctb2Main": {
              "ntr": "ROOT_TRANSPOSITION",
              "ntt": "BYPASS",
              "bassOn": false,
              "chordRootUpperLimit": 9,
              "noteLowLimit": 0,
              "noteHighLimit": 127,
              "rtr": "PITCH_SHIFT"
            },
            "ctb2High": null
          },
          "notes": []
        }
      }
    },
    "Ending_C": {
      "type": "Ending_C",
      "sizeInBeats": 28,
      "channels": {
        "0": {
          "ctab": {
            "srcChannel": 0,
            "name": "Bass",
            "accType": "BASS",
            "editable": false,
            "mutedNotes": [],
            "mutedChords": [
              "dim7",
              "dim",
              "minMaj7(9)",
              "minMaj7",
              "min7(11)",
              "min7(9)",
              "min(9)",
              "m7b5",
              "min7",
              "min6",
              "min"
            ],
            "autoStart": false,
            "sourceChordNote": 0,
            "sourceChordType": "Maj",
            "ctb2Low": null,
            "ctb2Main": {
              "ntr": "ROOT_TRANSPOSITION",
              "ntt": "BYPASS",
              "bassOn": false,
              "chordRootUpperLimit": 8,
              "noteLowLimit": 30,
              "noteHighLimit": 127,
              "rtr": "PITCH_SHIFT"
            },
            "ctb2High": null
          },
          "notes": [
            {
              "pitch": 29,
              "velocity": 60,
              "position": 0,
              "duration": 0.9895833333333334
            },
            {
              "pitch": 29,
              "velocity": 60,
              "position": 1,
              "duration": 0.9895833333333334
            },
            {
              "pitch": 32,
              "velocity": 60,
              "position": 2,
              "duration": 0.9895833333333334
            },
            {
              "pitch": 32,
              "velocity": 60,
              "position": 3,
              "duration": 0.9895833333333334
            },
            {
              "pitch": 32,
              "velocity": 60,
              "position": 4,
              "duration": 0.9895833333333334
            },
            {
              "pitch": 32,
              "velocity": 60,
              "position": 5,
              "duration": 0.9895833333333334
            },
            {
              "pitch": 32,
              "velocity": 60,
              "position": 6,
              "duration": 0.9895833333333334
            },
            {
              "pitch": 26,
              "velocity": 60,
              "position": 7,
              "duration": 0.9895833333333334
            },
            {
              "pitch": 26,
              "velocity": 60,
              "position": 8,
              "duration": 0.9895833333333334
            },
            {
              "pitch": 31,
              "velocity": 60,
              "position": 9,
              "duration": 0.9895833333333334
            },
            {
              "pitch": 31,
              "velocity": 60,
              "position": 10,
              "duration": 0.9895833333333334
            },
            {
              "pitch": 36,
              "velocity": 60,
              "position": 11,
              "duration": 0.9895833333333334
            },
            {
              "pitch": 36,
              "velocity": 80,
              "position": 12,
              "duration": 0.9895833333333334
            },
            {
              "pitch": 24,
              "velocity": 60,
              "position": 14,
              "duration": 13.489583333333334
            }
          ]
        },
        "1": {
          "ctab": {
            "srcChannel": 1,
            "name": "Bass",
            "accType": "BASS",
            "editable": false,
            "mutedNotes": [],
            "mutedChords": [
              "1+2+5",
              "sus4",
              "1+5",
              "1+8",
              "7aug",
              "Maj7aug",
              "7(#9)",
              "7(b13)",
              "7(b9)",
              "7(13)",
              "7#11",
              "7(9)",
              "7b5",
              "7sus4",
              "7th",
              "aug",
              "Maj6(9)",
              "Maj7(9)",
              "Maj(9)",
              "Maj7#11",
              "Maj7",
              "Maj6",
              "Maj"
            ],
            "autoStart": false,
            "sourceChordNote": 0,
            "sourceChordType": "min",
            "ctb2Low": null,
            "ctb2Main": {
              "ntr": "ROOT_TRANSPOSITION",
              "ntt": "BYPASS",
              "bassOn": false,
              "chordRootUpperLimit": 8,
              "noteLowLimit": 30,
              "noteHighLimit": 127,
              "rtr": "PITCH_SHIFT"
            },
            "ctb2High": null
          },
          "notes": [
            {
              "pitch": 30,
              "velocity": 60,
              "position": 0,
              "duration": 0.9895833333333334
            },
            {
              "pitch": 34,
              "velocity": 60,
              "position": 1,
              "duration": 0.9895833333333334
            },
            {
              "pitch": 34,
              "velocity": 60,
              "position": 2,
              "duration": 0.9895833333333334
            },
            {
              "pitch": 27,
              "velocity": 60,
              "position": 3,
              "duration": 0.9895833333333334
            },
            {
              "pitch": 27,
              "velocity": 60,
              "position": 4,
              "duration": 0.9895833333333334
            },
            {
              "pitch": 32,
              "velocity": 60,
              "position": 5,
              "duration": 0.9895833333333334
            },
            {
              "pitch": 32,
              "velocity": 60,
              "position": 6,
              "duration": 0.9895833333333334
            },
            {
              "pitch": 26,
              "velocity": 60,
              "position": 7,
              "duration": 0.9895833333333334
            },
            {
              "pitch": 26,
              "velocity": 60,
              "position": 8,
              "duration": 0.9895833333333334
            },
            {
              "pitch": 31,
              "velocity": 60,
              "position": 9,
              "duration": 0.9895833333333334
            },
            {
              "pitch": 31,
              "velocity": 60,
              "position": 10,
              "duration": 0.9895833333333334
            },
            {
              "pitch": 36,
              "velocity": 60,
              "position": 11,
              "duration": 0.9895833333333334
            },
            {
              "pitch": 36,
              "velocity": 80,
              "position": 12,
              "duration": 0.9895833333333334
            },
            {
              "pitch": 24,
              "velocity": 60,
              "position": 14,
              "duration": 13.489583333333334
            }
          ]
        },
        "2": {
          "ctab": {
            "srcChannel": 2,
            "name": "BassFX",
            "accType": "BASS",
            "editable": false,
            "mutedNotes": [],
            "mutedChords": [],
            "autoStart": false,
            "sourceChordNote": 0,
            "sourceChordType": "min",
            "ctb2Low": null,
            "ctb2Main": {
              "ntr": "ROOT_FIXED",
              "ntt": "BYPASS",
              "bassOn": false,
              "chordRootUpperLimit": 8,
              "noteLowLimit": 0,
              "noteHighLimit": 127,
              "rtr": "PITCH_SHIFT"
            },
            "ctb2High": null
          },
          "notes": [
            {
              "pitch": 98,
              "velocity": 77,
              "position": 12,
              "duration": 1.9895833333333333
            },
            {
              "pitch": 103,
              "velocity": 10,
              "position": 27.5,
              "duration": 0.46875
            },
            {
              "pitch": 104,
              "velocity": 10,
              "position": 27.5625,
              "duration": 0.40625
            },
            {
              "pitch": 105,
              "velocity": 10,
              "position": 27.625,
              "duration": 0.34375
            },
            {
              "pitch": 106,
              "velocity": 10,
              "position": 27.6875,
              "duration": 0.28125
            }
          ]
        },
        "3": {
          "ctab": {
            "srcChannel": 3,
            "name": "Pno LH",
            "accType": "CHORD1",
            "editable": false,
            "mutedNotes": [],
            "mutedChords": [
              "dim7",
              "dim",
              "minMaj7(9)",
              "minMaj7",
              "min7(11)",
              "min7(9)",
              "min(9)",
              "m7b5",
              "min7",
              "min6",
              "min"
            ],
            "autoStart": false,
            "sourceChordNote": 0,
            "sourceChordType": "Maj",
            "ctb2Low": null,
            "ctb2Main": {
              "ntr": "ROOT_TRANSPOSITION",
              "ntt": "BYPASS",
              "bassOn": false,
              "chordRootUpperLimit": 1,
              "noteLowLimit": 30,
              "noteHighLimit": 65,
              "rtr": "PITCH_SHIFT"
            },
            "ctb2High": null
          },
          "notes": [
            {
              "pitch": 69,
              "velocity": 80,
              "position": 0,
              "duration": 0.6041666666666666
            },
            {
              "pitch": 75,
              "velocity": 80,
              "position": 0,
              "duration": 0.6041666666666666
            },
            {
              "pitch": 69,
              "velocity": 80,
              "position": 2,
              "duration": 0.6041666666666666
            },
            {
              "pitch": 75,
              "velocity": 80,
              "position": 2,
              "duration": 0.6041666666666666
            },
            {
              "pitch": 67,
              "velocity": 80,
              "position": 4,
              "duration": 0.2708333333333333
            },
            {
              "pitch": 69,
              "velocity": 80,
              "position": 4,
              "duration": 0.2708333333333333
            },
            {
              "pitch": 76,
              "velocity": 80,
              "position": 4,
              "duration": 0.2708333333333333
            },
            {
              "pitch": 67,
              "velocity": 80,
              "position": 5.666666666666667,
              "duration": 0.2708333333333333
            },
            {
              "pitch": 73,
              "velocity": 80,
              "position": 5.666666666666667,
              "duration": 0.2708333333333333
            },
            {
              "pitch": 77,
              "velocity": 80,
              "position": 5.666666666666667,
              "duration": 0.2708333333333333
            },
            {
              "pitch": 65,
              "velocity": 80,
              "position": 7.666666666666667,
              "duration": 0.2708333333333333
            },
            {
              "pitch": 72,
              "velocity": 80,
              "position": 7.666666666666667,
              "duration": 0.2708333333333333
            },
            {
              "pitch": 76,
              "velocity": 80,
              "position": 7.666666666666667,
              "duration": 0.2708333333333333
            },
            {
              "pitch": 65,
              "velocity": 80,
              "position": 9.666666666666666,
              "duration": 1.9375
            },
            {
              "pitch": 71,
              "velocity": 80,
              "position": 9.666666666666666,
              "duration": 1.9375
            },
            {
              "pitch": 76,
              "velocity": 80,
              "position": 9.666666666666666,
              "duration": 1.9375
            },
            {
              "pitch": 69,
              "velocity": 80,
              "position": 12,
              "duration": 1.2708333333333333
            },
            {
              "pitch": 76,
              "velocity": 80,
              "position": 12,
              "duration": 1.2708333333333333
            }
          ]
        },
        "4": {
          "ctab": {
            "srcChannel": 4,
            "name": "Pno LH",
            "accType": "CHORD1",
            "editable": false,
            "mutedNotes": [],
            "mutedChords": [
              "1+2+5",
              "sus4",
              "1+5",
              "1+8",
              "7aug",
              "Maj7aug",
              "7(#9)",
              "7(b13)",
              "7(b9)",
              "7(13)",
              "7#11",
              "7(9)",
              "7b5",
              "7sus4",
              "7th",
              "aug",
              "Maj6(9)",
              "Maj7(9)",
              "Maj(9)",
              "Maj7#11",
              "Maj7",
              "Maj6",
              "Maj"
            ],
            "autoStart": false,
            "sourceChordNote": 0,
            "sourceChordType": "min",
            "ctb2Low": null,
            "ctb2Main": {
              "ntr": "ROOT_TRANSPOSITION",
              "ntt": "BYPASS",
              "bassOn": false,
              "chordRootUpperLimit": 1,
              "noteLowLimit": 30,
              "noteHighLimit": 65,
              "rtr": "PITCH_SHIFT"
            },
            "ctb2High": null
          },
          "notes": [
            {
              "pitch": 74,
              "velocity": 82,
              "position": 1.6458333333333333,
              "duration": 0.6041666666666666
            },
            {
              "pitch": 68,
              "velocity": 84,
              "position": 1.6770833333333333,
              "duration": 0.6041666666666666
            },
            {
              "pitch": 67,
              "velocity": 80,
              "position": 3.65625,
              "duration": 0.28125
            },
            {
              "pitch": 74,
              "velocity": 80,
              "position": 3.6666666666666665,
              "duration": 0.2708333333333333
            },
            {
              "pitch": 77,
              "velocity": 79,
              "position": 3.6770833333333335,
              "duration": 0.28125
            },
            {
              "pitch": 66,
              "velocity": 80,
              "position": 5.666666666666667,
              "duration": 0.2708333333333333
            },
            {
              "pitch": 72,
              "velocity": 83,
              "position": 5.666666666666667,
              "duration": 0.28125
            },
            {
              "pitch": 75,
              "velocity": 81,
              "position": 5.677083333333333,
              "duration": 0.28125
            },
            {
              "pitch": 72,
              "velocity": 79,
              "position": 7.645833333333333,
              "duration": 0.28125
            },
            {
              "pitch": 75,
              "velocity": 77,
              "position": 7.666666666666667,
              "duration": 0.2604166666666667
            },
            {
              "pitch": 66,
              "velocity": 79,
              "position": 7.677083333333333,
              "duration": 0.2604166666666667
            },
            {
              "pitch": 75,
              "velocity": 76,
              "position": 9.65625,
              "duration": 1.9166666666666667
            },
            {
              "pitch": 65,
              "velocity": 82,
              "position": 9.65625,
              "duration": 1.9375
            },
            {
              "pitch": 71,
              "velocity": 80,
              "position": 9.65625,
              "duration": 1.9375
            },
            {
              "pitch": 70,
              "velocity": 83,
              "position": 12.010416666666666,
              "duration": 0.5833333333333334
            },
            {
              "pitch": 75,
              "velocity": 79,
              "position": 12.010416666666666,
              "duration": 0.6145833333333334
            }
          ]
        },
        "5": {
          "ctab": {
            "srcChannel": 5,
            "name": "Pno RH",
            "accType": "CHORD2",
            "editable": false,
            "mutedNotes": [],
            "mutedChords": [
              "dim7",
              "dim",
              "minMaj7(9)",
              "minMaj7",
              "min7(11)",
              "min7(9)",
              "min(9)",
              "m7b5",
              "min7",
              "min6",
              "min"
            ],
            "autoStart": false,
            "sourceChordNote": 0,
            "sourceChordType": "Maj",
            "ctb2Low": null,
            "ctb2Main": {
              "ntr": "ROOT_TRANSPOSITION",
              "ntt": "BYPASS",
              "bassOn": false,
              "chordRootUpperLimit": 11,
              "noteLowLimit": 0,
              "noteHighLimit": 79,
              "rtr": "PITCH_SHIFT"
            },
            "ctb2High": null
          },
          "notes": [
            {
              "pitch": 72,
              "velocity": 70,
              "position": 0,
              "duration": 0.5208333333333334
            },
            {
              "pitch": 69,
              "velocity": 94,
              "position": 0.5833333333333334,
              "duration": 0.3541666666666667
            },
            {
              "pitch": 65,
              "velocity": 45,
              "position": 1,
              "duration": 0.5208333333333334
            },
            {
              "pitch": 62,
              "velocity": 94,
              "position": 1.5833333333333333,
              "duration": 0.3541666666666667
            },
            {
              "pitch": 63,
              "velocity": 52,
              "position": 2,
              "duration": 0.3541666666666667
            },
            {
              "pitch": 69,
              "velocity": 63,
              "position": 2.3333333333333335,
              "duration": 0.3541666666666667
            },
            {
              "pitch": 72,
              "velocity": 120,
              "position": 2.6666666666666665,
              "duration": 0.2708333333333333
            },
            {
              "pitch": 71,
              "velocity": 88,
              "position": 3,
              "duration": 0.5208333333333334
            },
            {
              "pitch": 69,
              "velocity": 65,
              "position": 3.5833333333333335,
              "duration": 0.3541666666666667
            },
            {
              "pitch": 67,
              "velocity": 102,
              "position": 4,
              "duration": 0.5208333333333334
            },
            {
              "pitch": 69,
              "velocity": 56,
              "position": 4.583333333333333,
              "duration": 0.3541666666666667
            },
            {
              "pitch": 70,
              "velocity": 79,
              "position": 5,
              "duration": 0.5208333333333334
            },
            {
              "pitch": 68,
              "velocity": 37,
              "position": 5.583333333333333,
              "duration": 0.3541666666666667
            },
            {
              "pitch": 69,
              "velocity": 127,
              "position": 6,
              "duration": 0.5208333333333334
            },
            {
              "pitch": 64,
              "velocity": 69,
              "position": 6.583333333333333,
              "duration": 0.3541666666666667
            },
            {
              "pitch": 67,
              "velocity": 88,
              "position": 7,
              "duration": 0.5208333333333334
            },
            {
              "pitch": 66,
              "velocity": 126,
              "position": 7.583333333333333,
              "duration": 0.3541666666666667
            },
            {
              "pitch": 65,
              "velocity": 88,
              "position": 8,
              "duration": 0.5208333333333334
            },
            {
              "pitch": 69,
              "velocity": 48,
              "position": 8.583333333333334,
              "duration": 0.3541666666666667
            },
            {
              "pitch": 72,
              "velocity": 81,
              "position": 9,
              "duration": 0.5208333333333334
            },
            {
              "pitch": 75,
              "velocity": 126,
              "position": 9.583333333333334,
              "duration": 0.40625
            },
            {
              "pitch": 76,
              "velocity": 79,
              "position": 10,
              "duration": 0.5208333333333334
            },
            {
              "pitch": 72,
              "velocity": 120,
              "position": 10.666666666666666,
              "duration": 0.2708333333333333
            },
            {
              "pitch": 69,
              "velocity": 79,
              "position": 11,
              "duration": 0.5208333333333334
            },
            {
              "pitch": 67,
              "velocity": 37,
              "position": 11.583333333333334,
              "duration": 0.3541666666666667
            },
            {
              "pitch": 64,
              "velocity": 127,
              "position": 12,
              "duration": 1.1875
            },
            {
              "pitch": 72,
              "velocity": 127,
              "position": 12,
              "duration": 1.1875
            }
          ]
        },
        "6": {
          "ctab": {
            "srcChannel": 6,
            "name": "Pno RH",
            "accType": "CHORD2",
            "editable": false,
            "mutedNotes": [],
            "mutedChords": [
              "1+2+5",
              "sus4",
              "1+5",
              "1+8",
              "7aug",
              "Maj7aug",
              "7(#9)",
              "7(b13)",
              "7(b9)",
              "7(13)",
              "7#11",
              "7(9)",
              "7b5",
              "7sus4",
              "7th",
              "aug",
              "Maj6(9)",
              "Maj7(9)",
              "Maj(9)",
              "Maj7#11",
              "Maj7",
              "Maj6",
              "Maj"
            ],
            "autoStart": false,
            "sourceChordNote": 0,
            "sourceChordType": "min",
            "ctb2Low": null,
            "ctb2Main": {
              "ntr": "ROOT_TRANSPOSITION",
              "ntt": "BYPASS",
              "bassOn": false,
              "chordRootUpperLimit": 9,
              "noteLowLimit": 0,
              "noteHighLimit": 79,
              "rtr": "PITCH_SHIFT"
            },
            "ctb2High": null
          },
          "notes": [
            {
              "pitch": 72,
              "velocity": 94,
              "position": 0.5833333333333334,
              "duration": 0.3541666666666667
            },
            {
              "pitch": 68,
              "velocity": 45,
              "position": 1,
              "duration": 0.5208333333333334
            },
            {
              "pitch": 64,
              "velocity": 94,
              "position": 1.5833333333333333,
              "duration": 0.3541666666666667
            },
            {
              "pitch": 65,
              "velocity": 52,
              "position": 2,
              "duration": 0.3541666666666667
            },
            {
              "pitch": 72,
              "velocity": 63,
              "position": 2.3333333333333335,
              "duration": 0.3541666666666667
            },
            {
              "pitch": 75,
              "velocity": 120,
              "position": 2.6666666666666665,
              "duration": 0.2708333333333333
            },
            {
              "pitch": 74,
              "velocity": 88,
              "position": 3,
              "duration": 0.5208333333333334
            },
            {
              "pitch": 72,
              "velocity": 65,
              "position": 3.5833333333333335,
              "duration": 0.3541666666666667
            },
            {
              "pitch": 70,
              "velocity": 102,
              "position": 4,
              "duration": 0.5208333333333334
            },
            {
              "pitch": 72,
              "velocity": 56,
              "position": 4.583333333333333,
              "duration": 0.3541666666666667
            },
            {
              "pitch": 73,
              "velocity": 79,
              "position": 5,
              "duration": 0.5208333333333334
            },
            {
              "pitch": 71,
              "velocity": 37,
              "position": 5.583333333333333,
              "duration": 0.3541666666666667
            },
            {
              "pitch": 72,
              "velocity": 127,
              "position": 6,
              "duration": 0.5208333333333334
            },
            {
              "pitch": 70,
              "velocity": 69,
              "position": 6.583333333333333,
              "duration": 0.3541666666666667
            },
            {
              "pitch": 68,
              "velocity": 88,
              "position": 7,
              "duration": 0.5208333333333334
            },
            {
              "pitch": 67,
              "velocity": 126,
              "position": 7.583333333333333,
              "duration": 0.3541666666666667
            },
            {
              "pitch": 66,
              "velocity": 88,
              "position": 8,
              "duration": 0.5208333333333334
            },
            {
              "pitch": 69,
              "velocity": 48,
              "position": 8.583333333333334,
              "duration": 0.3541666666666667
            },
            {
              "pitch": 72,
              "velocity": 81,
              "position": 9,
              "duration": 0.5208333333333334
            },
            {
              "pitch": 74,
              "velocity": 126,
              "position": 9.583333333333334,
              "duration": 0.40625
            },
            {
              "pitch": 75,
              "velocity": 79,
              "position": 10,
              "duration": 0.5208333333333334
            },
            {
              "pitch": 72,
              "velocity": 120,
              "position": 10.666666666666666,
              "duration": 0.2708333333333333
            },
            {
              "pitch": 74,
              "velocity": 79,
              "position": 11,
              "duration": 0.5208333333333334
            },
            {
              "pitch": 69,
              "velocity": 37,
              "position": 11.583333333333334,
              "duration": 0.3541666666666667
            },
            {
              "pitch": 63,
              "velocity": 127,
              "position": 12,
              "duration": 1.1875
            },
            {
              "pitch": 72,
              "velocity": 127,
              "position": 12,
              "duration": 1.1875
            }
          ]
        },
        "9": {
          "ctab": {
            "srcChannel": 9,
            "name": "Drs",
            "accType": "RHYTHM",
            "editable": false,
            "mutedNotes": [],
            "mutedChords": [],
            "autoStart": true,
            "sourceChordNote": 0,
            "sourceChordType": "Maj7",
            "ctb2Low": null,
            "ctb2Main": {
              "ntr": "ROOT_FIXED",
              "ntt": "BYPASS",
              "bassOn": false,
              "chordRootUpperLimit": 6,
              "noteLowLimit": 0,
              "noteHighLimit": 127,
              "rtr": "PITCH_SHIFT"
            },
            "ctb2High": null
          },
          "notes": [
            {
              "pitch": 59,
              "velocity": 69,
              "position": 0,
              "duration": 0.010416666666666666
            },
            {
              "pitch": 44,
              "velocity": 62,
              "position": 1,
              "duration": 0.010416666666666666
            },
            {
              "pitch": 59,
              "velocity": 65,
              "position": 1,
              "duration": 0.010416666666666666
            },
            {
              "pitch": 59,
              "velocity": 37,
              "position": 1.6666666666666667,
              "duration": 0.010416666666666666
            },
            {
              "pitch": 59,
              "velocity": 71,
              "position": 2,
              "duration": 0.010416666666666666
            },
            {
              "pitch": 44,
              "velocity": 75,
              "position": 3,
              "duration": 0.010416666666666666
            },
            {
              "pitch": 59,
              "velocity": 76,
              "position": 3,
              "duration": 0.010416666666666666
            },
            {
              "pitch": 59,
              "velocity": 21,
              "position": 3.6666666666666665,
              "duration": 0.010416666666666666
            },
            {
              "pitch": 59,
              "velocity": 67,
              "position": 4,
              "duration": 0.010416666666666666
            },
            {
              "pitch": 44,
              "velocity": 74,
              "position": 5,
              "duration": 0.010416666666666666
            },
            {
              "pitch": 59,
              "velocity": 68,
              "position": 5,
              "duration": 0.010416666666666666
            },
            {
              "pitch": 59,
              "velocity": 26,
              "position": 5.666666666666667,
              "duration": 0.010416666666666666
            },
            {
              "pitch": 59,
              "velocity": 68,
              "position": 6,
              "duration": 0.010416666666666666
            },
            {
              "pitch": 44,
              "velocity": 67,
              "position": 7,
              "duration": 0.010416666666666666
            },
            {
              "pitch": 59,
              "velocity": 73,
              "position": 7,
              "duration": 0.010416666666666666
            },
            {
              "pitch": 38,
              "velocity": 51,
              "position": 7.666666666666667,
              "duration": 0.010416666666666666
            },
            {
              "pitch": 59,
              "velocity": 72,
              "position": 8,
              "duration": 0.010416666666666666
            },
            {
              "pitch": 38,
              "velocity": 80,
              "position": 9,
              "duration": 0.010416666666666666
            },
            {
              "pitch": 44,
              "velocity": 64,
              "position": 9,
              "duration": 0.010416666666666666
            },
            {
              "pitch": 59,
              "velocity": 72,
              "position": 9,
              "duration": 0.010416666666666666
            },
            {
              "pitch": 59,
              "velocity": 34,
              "position": 9.666666666666666,
              "duration": 0.010416666666666666
            },
            {
              "pitch": 59,
              "velocity": 69,
              "position": 10,
              "duration": 0.010416666666666666
            },
            {
              "pitch": 38,
              "velocity": 80,
              "position": 10.583333333333334,
              "duration": 0.010416666666666666
            },
            {
              "pitch": 38,
              "velocity": 24,
              "position": 11,
              "duration": 0.010416666666666666
            },
            {
              "pitch": 59,
              "velocity": 72,
              "position": 11,
              "duration": 0.010416666666666666
            },
            {
              "pitch": 38,
              "velocity": 41,
              "position": 11.333333333333334,
              "duration": 0.010416666666666666
            },
            {
              "pitch": 38,
              "velocity": 51,
              "position": 11.666666666666666,
              "duration": 0.010416666666666666
            },
            {
              "pitch": 33,
              "velocity": 81,
              "position": 12,
              "duration": 0.010416666666666666
            },
            {
              "pitch": 38,
              "velocity": 102,
              "position": 12,
              "duration": 0.010416666666666666
            },
            {
              "pitch": 44,
              "velocity": 1,
              "position": 12.666666666666666,
              "duration": 0.010416666666666666
            }
          ]
        },
        "10": {
          "ctab": {
            "srcChannel": 10,
            "name": "Tpt",
            "accType": "PAD",
            "editable": false,
            "mutedNotes": [],
            "mutedChords": [
              "dim7",
              "dim",
              "minMaj7(9)",
              "minMaj7",
              "min7(11)",
              "min7(9)",
              "min(9)",
              "m7b5",
              "min7",
              "min6",
              "min"
            ],
            "autoStart": false,
            "sourceChordNote": 0,
            "sourceChordType": "Maj",
            "ctb2Low": null,
            "ctb2Main": {
              "ntr": "ROOT_TRANSPOSITION",
              "ntt": "BYPASS",
              "bassOn": false,
              "chordRootUpperLimit": 6,
              "noteLowLimit": 0,
              "noteHighLimit": 127,
              "rtr": "PITCH_SHIFT"
            },
            "ctb2High": null
          },
          "notes": [
            {
              "pitch": 72,
              "velocity": 71,
              "position": 0.010416666666666666,
              "duration": 0.5208333333333334
            },
            {
              "pitch": 69,
              "velocity": 97,
              "position": 0.59375,
              "duration": 0.34375
            },
            {
              "pitch": 65,
              "velocity": 44,
              "position": 0.9791666666666666,
              "duration": 0.5208333333333334
            },
            {
              "pitch": 62,
              "velocity": 92,
              "position": 1.5625,
              "duration": 0.34375
            },
            {
              "pitch": 63,
              "velocity": 52,
              "position": 1.9895833333333333,
              "duration": 0.3645833333333333
            },
            {
              "pitch": 69,
              "velocity": 61,
              "position": 2.3125,
              "duration": 0.23958333333333334
            },
            {
              "pitch": 71,
              "velocity": 94,
              "position": 2.5625,
              "duration": 0.11458333333333333
            },
            {
              "pitch": 72,
              "velocity": 120,
              "position": 2.6770833333333335,
              "duration": 0.25
            },
            {
              "pitch": 71,
              "velocity": 88,
              "position": 2.9791666666666665,
              "duration": 0.5208333333333334
            },
            {
              "pitch": 69,
              "velocity": 65,
              "position": 3.5833333333333335,
              "duration": 0.3541666666666667
            },
            {
              "pitch": 67,
              "velocity": 104,
              "position": 3.9895833333333335,
              "duration": 0.5416666666666666
            },
            {
              "pitch": 69,
              "velocity": 53,
              "position": 4.59375,
              "duration": 0.3645833333333333
            },
            {
              "pitch": 70,
              "velocity": 78,
              "position": 5,
              "duration": 0.53125
            },
            {
              "pitch": 68,
              "velocity": 39,
              "position": 5.572916666666667,
              "duration": 0.34375
            },
            {
              "pitch": 69,
              "velocity": 125,
              "position": 5.979166666666667,
              "duration": 0.5208333333333334
            },
            {
              "pitch": 64,
              "velocity": 70,
              "position": 6.583333333333333,
              "duration": 0.3645833333333333
            },
            {
              "pitch": 67,
              "velocity": 90,
              "position": 6.979166666666667,
              "duration": 0.53125
            },
            {
              "pitch": 66,
              "velocity": 124,
              "position": 7.572916666666667,
              "duration": 0.3541666666666667
            },
            {
              "pitch": 65,
              "velocity": 90,
              "position": 8.010416666666666,
              "duration": 0.5208333333333334
            },
            {
              "pitch": 69,
              "velocity": 51,
              "position": 8.572916666666666,
              "duration": 0.34375
            },
            {
              "pitch": 72,
              "velocity": 82,
              "position": 8.979166666666666,
              "duration": 0.5416666666666666
            },
            {
              "pitch": 75,
              "velocity": 127,
              "position": 9.5625,
              "duration": 0.40625
            },
            {
              "pitch": 76,
              "velocity": 86,
              "position": 9.979166666666666,
              "duration": 0.5833333333333334
            },
            {
              "pitch": 72,
              "velocity": 124,
              "position": 10.572916666666666,
              "duration": 0.3541666666666667
            },
            {
              "pitch": 69,
              "velocity": 88,
              "position": 11,
              "duration": 0.53125
            },
            {
              "pitch": 67,
              "velocity": 39,
              "position": 11.572916666666666,
              "duration": 0.34375
            },
            {
              "pitch": 72,
              "velocity": 127,
              "position": 12,
              "duration": 1.0208333333333333
            }
          ]
        },
        "11": {
          "ctab": {
            "srcChannel": 11,
            "name": "Tpt",
            "accType": "PAD",
            "editable": false,
            "mutedNotes": [],
            "mutedChords": [
              "1+2+5",
              "sus4",
              "1+5",
              "1+8",
              "7aug",
              "Maj7aug",
              "7(#9)",
              "7(b13)",
              "7(b9)",
              "7(13)",
              "7#11",
              "7(9)",
              "7b5",
              "7sus4",
              "7th",
              "aug",
              "Maj6(9)",
              "Maj7(9)",
              "Maj(9)",
              "Maj7#11",
              "Maj7",
              "Maj6",
              "Maj"
            ],
            "autoStart": false,
            "sourceChordNote": 0,
            "sourceChordType": "min",
            "ctb2Low": null,
            "ctb2Main": {
              "ntr": "ROOT_TRANSPOSITION",
              "ntt": "BYPASS",
              "bassOn": false,
              "chordRootUpperLimit": 6,
              "noteLowLimit": 0,
              "noteHighLimit": 127,
              "rtr": "PITCH_SHIFT"
            },
            "ctb2High": null
          },
          "notes": [
            {
              "pitch": 75,
              "velocity": 71,
              "position": 0.010416666666666666,
              "duration": 0.5208333333333334
            },
            {
              "pitch": 72,
              "velocity": 97,
              "position": 0.59375,
              "duration": 0.34375
            },
            {
              "pitch": 68,
              "velocity": 44,
              "position": 0.9791666666666666,
              "duration": 0.5208333333333334
            },
            {
              "pitch": 64,
              "velocity": 92,
              "position": 1.5625,
              "duration": 0.34375
            },
            {
              "pitch": 65,
              "velocity": 52,
              "position": 1.9895833333333333,
              "duration": 0.3645833333333333
            },
            {
              "pitch": 72,
              "velocity": 61,
              "position": 2.3125,
              "duration": 0.23958333333333334
            },
            {
              "pitch": 74,
              "velocity": 94,
              "position": 2.5625,
              "duration": 0.11458333333333333
            },
            {
              "pitch": 75,
              "velocity": 120,
              "position": 2.6770833333333335,
              "duration": 0.25
            },
            {
              "pitch": 74,
              "velocity": 88,
              "position": 2.9791666666666665,
              "duration": 0.5208333333333334
            },
            {
              "pitch": 72,
              "velocity": 65,
              "position": 3.5833333333333335,
              "duration": 0.3541666666666667
            },
            {
              "pitch": 70,
              "velocity": 104,
              "position": 3.9895833333333335,
              "duration": 0.5416666666666666
            },
            {
              "pitch": 72,
              "velocity": 53,
              "position": 4.59375,
              "duration": 0.3645833333333333
            },
            {
              "pitch": 73,
              "velocity": 78,
              "position": 5,
              "duration": 0.53125
            },
            {
              "pitch": 71,
              "velocity": 39,
              "position": 5.572916666666667,
              "duration": 0.34375
            },
            {
              "pitch": 72,
              "velocity": 125,
              "position": 5.979166666666667,
              "duration": 0.5208333333333334
            },
            {
              "pitch": 70,
              "velocity": 70,
              "position": 6.583333333333333,
              "duration": 0.3645833333333333
            },
            {
              "pitch": 68,
              "velocity": 90,
              "position": 6.979166666666667,
              "duration": 0.53125
            },
            {
              "pitch": 67,
              "velocity": 124,
              "position": 7.572916666666667,
              "duration": 0.3541666666666667
            },
            {
              "pitch": 66,
              "velocity": 90,
              "position": 8.010416666666666,
              "duration": 0.5208333333333334
            },
            {
              "pitch": 69,
              "velocity": 51,
              "position": 8.572916666666666,
              "duration": 0.34375
            },
            {
              "pitch": 72,
              "velocity": 82,
              "position": 8.979166666666666,
              "duration": 0.5416666666666666
            },
            {
              "pitch": 74,
              "velocity": 127,
              "position": 9.5625,
              "duration": 0.40625
            },
            {
              "pitch": 75,
              "velocity": 86,
              "position": 9.979166666666666,
              "duration": 0.3645833333333333
            },
            {
              "pitch": 77,
              "velocity": 59,
              "position": 10.322916666666666,
              "duration": 0.20833333333333334
            },
            {
              "pitch": 75,
              "velocity": 59,
              "position": 10.5,
              "duration": 0.28125
            },
            {
              "pitch": 72,
              "velocity": 59,
              "position": 10.75,
              "duration": 0.2916666666666667
            },
            {
              "pitch": 74,
              "velocity": 88,
              "position": 11,
              "duration": 0.53125
            },
            {
              "pitch": 72,
              "velocity": 127,
              "position": 12,
              "duration": 1.0208333333333333
            }
          ]
        },
        "12": {
          "ctab": {
            "srcChannel": 12,
            "name": "Alto",
            "accType": "PHRASE1",
            "editable": false,
            "mutedNotes": [],
            "mutedChords": [
              "dim7",
              "dim",
              "minMaj7(9)",
              "minMaj7",
              "min7(11)",
              "min7(9)",
              "min(9)",
              "m7b5",
              "min7",
              "min6",
              "min"
            ],
            "autoStart": false,
            "sourceChordNote": 0,
            "sourceChordType": "Maj",
            "ctb2Low": null,
            "ctb2Main": {
              "ntr": "ROOT_TRANSPOSITION",
              "ntt": "BYPASS",
              "bassOn": false,
              "chordRootUpperLimit": 2,
              "noteLowLimit": 0,
              "noteHighLimit": 127,
              "rtr": "PITCH_SHIFT"
            },
            "ctb2High": null
          },
          "notes": [
            {
              "pitch": 72,
              "velocity": 73,
              "position": 0.010416666666666666,
              "duration": 0.5729166666666666
            },
            {
              "pitch": 69,
              "velocity": 84,
              "position": 0.5729166666666666,
              "duration": 0.4479166666666667
            },
            {
              "pitch": 65,
              "velocity": 32,
              "position": 1.0104166666666667,
              "duration": 0.5729166666666666
            },
            {
              "pitch": 62,
              "velocity": 81,
              "position": 1.5729166666666667,
              "duration": 0.4270833333333333
            },
            {
              "pitch": 63,
              "velocity": 38,
              "position": 1.9895833333333333,
              "duration": 0.3541666666666667
            },
            {
              "pitch": 69,
              "velocity": 45,
              "position": 2.3333333333333335,
              "duration": 0.34375
            },
            {
              "pitch": 72,
              "velocity": 109,
              "position": 2.6666666666666665,
              "duration": 0.3645833333333333
            },
            {
              "pitch": 71,
              "velocity": 72,
              "position": 3.0208333333333335,
              "duration": 0.5833333333333334
            },
            {
              "pitch": 69,
              "velocity": 121,
              "position": 3.59375,
              "duration": 0.40625
            },
            {
              "pitch": 67,
              "velocity": 75,
              "position": 3.9895833333333335,
              "duration": 0.59375
            },
            {
              "pitch": 69,
              "velocity": 120,
              "position": 4.572916666666667,
              "duration": 0.4270833333333333
            },
            {
              "pitch": 70,
              "velocity": 58,
              "position": 4.989583333333333,
              "duration": 0.59375
            },
            {
              "pitch": 68,
              "velocity": 37,
              "position": 5.572916666666667,
              "duration": 0.4375
            },
            {
              "pitch": 69,
              "velocity": 123,
              "position": 6,
              "duration": 0.6145833333333334
            },
            {
              "pitch": 64,
              "velocity": 37,
              "position": 6.604166666666667,
              "duration": 0.3854166666666667
            },
            {
              "pitch": 67,
              "velocity": 61,
              "position": 6.96875,
              "duration": 0.6354166666666666
            },
            {
              "pitch": 66,
              "velocity": 88,
              "position": 7.59375,
              "duration": 0.40625
            },
            {
              "pitch": 65,
              "velocity": 127,
              "position": 7.979166666666667,
              "duration": 0.5833333333333334
            },
            {
              "pitch": 69,
              "velocity": 26,
              "position": 8.552083333333334,
              "duration": 0.4791666666666667
            },
            {
              "pitch": 72,
              "velocity": 60,
              "position": 9.020833333333334,
              "duration": 0.5625
            },
            {
              "pitch": 75,
              "velocity": 127,
              "position": 9.572916666666666,
              "duration": 0.4583333333333333
            },
            {
              "pitch": 76,
              "velocity": 72,
              "position": 10.020833333333334,
              "duration": 0.5833333333333334
            },
            {
              "pitch": 67,
              "velocity": 124,
              "position": 10.59375,
              "duration": 0.4166666666666667
            },
            {
              "pitch": 66,
              "velocity": 51,
              "position": 11,
              "duration": 0.5833333333333334
            },
            {
              "pitch": 65,
              "velocity": 37,
              "position": 11.572916666666666,
              "duration": 0.4375
            },
            {
              "pitch": 64,
              "velocity": 123,
              "position": 12,
              "duration": 0.9583333333333334
            }
          ]
        },
        "13": {
          "ctab": {
            "srcChannel": 13,
            "name": "Alto",
            "accType": "PHRASE1",
            "editable": false,
            "mutedNotes": [],
            "mutedChords": [
              "1+2+5",
              "sus4",
              "1+5",
              "1+8",
              "7aug",
              "Maj7aug",
              "7(#9)",
              "7(b13)",
              "7(b9)",
              "7(13)",
              "7#11",
              "7(9)",
              "7b5",
              "7sus4",
              "7th",
              "aug",
              "Maj6(9)",
              "Maj7(9)",
              "Maj(9)",
              "Maj7#11",
              "Maj7",
              "Maj6",
              "Maj"
            ],
            "autoStart": false,
            "sourceChordNote": 0,
            "sourceChordType": "min",
            "ctb2Low": null,
            "ctb2Main": {
              "ntr": "ROOT_TRANSPOSITION",
              "ntt": "BYPASS",
              "bassOn": false,
              "chordRootUpperLimit": 2,
              "noteLowLimit": 0,
              "noteHighLimit": 127,
              "rtr": "PITCH_SHIFT"
            },
            "ctb2High": null
          },
          "notes": [
            {
              "pitch": 75,
              "velocity": 73,
              "position": 0.010416666666666666,
              "duration": 0.5729166666666666
            },
            {
              "pitch": 72,
              "velocity": 84,
              "position": 0.5729166666666666,
              "duration": 0.4479166666666667
            },
            {
              "pitch": 68,
              "velocity": 32,
              "position": 1.0104166666666667,
              "duration": 0.5729166666666666
            },
            {
              "pitch": 64,
              "velocity": 81,
              "position": 1.5729166666666667,
              "duration": 0.4270833333333333
            },
            {
              "pitch": 65,
              "velocity": 38,
              "position": 1.9895833333333333,
              "duration": 0.3541666666666667
            },
            {
              "pitch": 72,
              "velocity": 45,
              "position": 2.3333333333333335,
              "duration": 0.34375
            },
            {
              "pitch": 75,
              "velocity": 109,
              "position": 2.6666666666666665,
              "duration": 0.3645833333333333
            },
            {
              "pitch": 74,
              "velocity": 72,
              "position": 3.0208333333333335,
              "duration": 0.5833333333333334
            },
            {
              "pitch": 72,
              "velocity": 121,
              "position": 3.59375,
              "duration": 0.40625
            },
            {
              "pitch": 70,
              "velocity": 75,
              "position": 3.9895833333333335,
              "duration": 0.59375
            },
            {
              "pitch": 72,
              "velocity": 120,
              "position": 4.572916666666667,
              "duration": 0.4270833333333333
            },
            {
              "pitch": 73,
              "velocity": 58,
              "position": 4.989583333333333,
              "duration": 0.59375
            },
            {
              "pitch": 71,
              "velocity": 37,
              "position": 5.572916666666667,
              "duration": 0.4375
            },
            {
              "pitch": 72,
              "velocity": 123,
              "position": 6,
              "duration": 0.6145833333333334
            },
            {
              "pitch": 70,
              "velocity": 37,
              "position": 6.604166666666667,
              "duration": 0.3854166666666667
            },
            {
              "pitch": 68,
              "velocity": 61,
              "position": 6.96875,
              "duration": 0.6354166666666666
            },
            {
              "pitch": 67,
              "velocity": 88,
              "position": 7.59375,
              "duration": 0.40625
            },
            {
              "pitch": 66,
              "velocity": 127,
              "position": 7.979166666666667,
              "duration": 0.5833333333333334
            },
            {
              "pitch": 69,
              "velocity": 26,
              "position": 8.552083333333334,
              "duration": 0.4791666666666667
            },
            {
              "pitch": 72,
              "velocity": 60,
              "position": 9.020833333333334,
              "duration": 0.5625
            },
            {
              "pitch": 77,
              "velocity": 127,
              "position": 9.572916666666666,
              "duration": 0.4583333333333333
            },
            {
              "pitch": 78,
              "velocity": 72,
              "position": 10.020833333333334,
              "duration": 0.4583333333333333
            },
            {
              "pitch": 79,
              "velocity": 37,
              "position": 10.5,
              "duration": 0.23958333333333334
            },
            {
              "pitch": 75,
              "velocity": 37,
              "position": 10.75,
              "duration": 0.2708333333333333
            },
            {
              "pitch": 77,
              "velocity": 51,
              "position": 11,
              "duration": 0.5833333333333334
            },
            {
              "pitch": 72,
              "velocity": 37,
              "position": 11.572916666666666,
              "duration": 0.4375
            },
            {
              "pitch": 75,
              "velocity": 123,
              "position": 12,
              "duration": 0.9583333333333334
            }
          ]
        },
        "14": {
          "ctab": {
            "srcChannel": 14,
            "name": "Tenor",
            "accType": "PHRASE2",
            "editable": false,
            "mutedNotes": [],
            "mutedChords": [
              "dim7",
              "dim",
              "minMaj7(9)",
              "minMaj7",
              "min7(11)",
              "min7(9)",
              "min(9)",
              "m7b5",
              "min7",
              "min6",
              "min"
            ],
            "autoStart": false,
            "sourceChordNote": 0,
            "sourceChordType": "Maj",
            "ctb2Low": null,
            "ctb2Main": {
              "ntr": "ROOT_TRANSPOSITION",
              "ntt": "BYPASS",
              "bassOn": false,
              "chordRootUpperLimit": 9,
              "noteLowLimit": 0,
              "noteHighLimit": 127,
              "rtr": "PITCH_SHIFT"
            },
            "ctb2High": null
          },
          "notes": [
            {
              "pitch": 60,
              "velocity": 57,
              "position": 0.010416666666666666,
              "duration": 0.6041666666666666
            },
            {
              "pitch": 57,
              "velocity": 67,
              "position": 0.59375,
              "duration": 0.4166666666666667
            },
            {
              "pitch": 53,
              "velocity": 29,
              "position": 0.9791666666666666,
              "duration": 0.625
            },
            {
              "pitch": 50,
              "velocity": 63,
              "position": 1.5833333333333333,
              "duration": 0.4166666666666667
            },
            {
              "pitch": 51,
              "velocity": 32,
              "position": 1.9791666666666667,
              "duration": 0.375
            },
            {
              "pitch": 57,
              "velocity": 40,
              "position": 2.3333333333333335,
              "duration": 0.34375
            },
            {
              "pitch": 60,
              "velocity": 95,
              "position": 2.6458333333333335,
              "duration": 0.3958333333333333
            },
            {
              "pitch": 59,
              "velocity": 59,
              "position": 3.0104166666666665,
              "duration": 0.59375
            },
            {
              "pitch": 57,
              "velocity": 103,
              "position": 3.5833333333333335,
              "duration": 0.4479166666666667
            },
            {
              "pitch": 55,
              "velocity": 61,
              "position": 4.010416666666667,
              "duration": 0.6041666666666666
            },
            {
              "pitch": 57,
              "velocity": 101,
              "position": 4.583333333333333,
              "duration": 0.4375
            },
            {
              "pitch": 58,
              "velocity": 55,
              "position": 5,
              "duration": 0.625
            },
            {
              "pitch": 56,
              "velocity": 33,
              "position": 5.59375,
              "duration": 0.40625
            },
            {
              "pitch": 57,
              "velocity": 102,
              "position": 5.979166666666667,
              "duration": 0.625
            },
            {
              "pitch": 52,
              "velocity": 38,
              "position": 6.583333333333333,
              "duration": 0.4479166666666667
            },
            {
              "pitch": 55,
              "velocity": 60,
              "position": 7.010416666666667,
              "duration": 0.6041666666666666
            },
            {
              "pitch": 54,
              "velocity": 102,
              "position": 7.583333333333333,
              "duration": 0.4479166666666667
            },
            {
              "pitch": 53,
              "velocity": 57,
              "position": 8.010416666666666,
              "duration": 0.6041666666666666
            },
            {
              "pitch": 57,
              "velocity": 25,
              "position": 8.59375,
              "duration": 0.4270833333333333
            },
            {
              "pitch": 60,
              "velocity": 52,
              "position": 8.989583333333334,
              "duration": 0.6145833333333334
            },
            {
              "pitch": 63,
              "velocity": 101,
              "position": 9.572916666666666,
              "duration": 0.4479166666666667
            },
            {
              "pitch": 64,
              "velocity": 57,
              "position": 10,
              "duration": 0.6041666666666666
            },
            {
              "pitch": 60,
              "velocity": 96,
              "position": 10.572916666666666,
              "duration": 0.4583333333333333
            },
            {
              "pitch": 62,
              "velocity": 56,
              "position": 11,
              "duration": 0.6041666666666666
            },
            {
              "pitch": 59,
              "velocity": 34,
              "position": 11.572916666666666,
              "duration": 0.4791666666666667
            },
            {
              "pitch": 60,
              "velocity": 97,
              "position": 12.010416666666666,
              "duration": 0.9479166666666666
            }
          ]
        },
        "15": {
          "ctab": {
            "srcChannel": 15,
            "name": "Tenor",
            "accType": "PHRASE2",
            "editable": false,
            "mutedNotes": [],
            "mutedChords": [
              "1+2+5",
              "sus4",
              "1+5",
              "1+8",
              "7aug",
              "Maj7aug",
              "7(#9)",
              "7(b13)",
              "7(b9)",
              "7(13)",
              "7#11",
              "7(9)",
              "7b5",
              "7sus4",
              "7th",
              "aug",
              "Maj6(9)",
              "Maj7(9)",
              "Maj(9)",
              "Maj7#11",
              "Maj7",
              "Maj6",
              "Maj"
            ],
            "autoStart": false,
            "sourceChordNote": 0,
            "sourceChordType": "min",
            "ctb2Low": null,
            "ctb2Main": {
              "ntr": "ROOT_TRANSPOSITION",
              "ntt": "BYPASS",
              "bassOn": false,
              "chordRootUpperLimit": 9,
              "noteLowLimit": 0,
              "noteHighLimit": 127,
              "rtr": "PITCH_SHIFT"
            },
            "ctb2High": null
          },
          "notes": [
            {
              "pitch": 63,
              "velocity": 57,
              "position": 0.010416666666666666,
              "duration": 0.6041666666666666
            },
            {
              "pitch": 60,
              "velocity": 67,
              "position": 0.59375,
              "duration": 0.4166666666666667
            },
            {
              "pitch": 56,
              "velocity": 29,
              "position": 0.9791666666666666,
              "duration": 0.625
            },
            {
              "pitch": 52,
              "velocity": 63,
              "position": 1.5833333333333333,
              "duration": 0.4166666666666667
            },
            {
              "pitch": 53,
              "velocity": 32,
              "position": 1.9791666666666667,
              "duration": 0.375
            },
            {
              "pitch": 60,
              "velocity": 40,
              "position": 2.3333333333333335,
              "duration": 0.34375
            },
            {
              "pitch": 63,
              "velocity": 95,
              "position": 2.6458333333333335,
              "duration": 0.3958333333333333
            },
            {
              "pitch": 62,
              "velocity": 59,
              "position": 3.0104166666666665,
              "duration": 0.59375
            },
            {
              "pitch": 60,
              "velocity": 103,
              "position": 3.5833333333333335,
              "duration": 0.4479166666666667
            },
            {
              "pitch": 58,
              "velocity": 61,
              "position": 4.010416666666667,
              "duration": 0.6041666666666666
            },
            {
              "pitch": 60,
              "velocity": 101,
              "position": 4.583333333333333,
              "duration": 0.4375
            },
            {
              "pitch": 61,
              "velocity": 55,
              "position": 5,
              "duration": 0.625
            },
            {
              "pitch": 59,
              "velocity": 33,
              "position": 5.59375,
              "duration": 0.40625
            },
            {
              "pitch": 60,
              "velocity": 102,
              "position": 5.979166666666667,
              "duration": 0.625
            },
            {
              "pitch": 58,
              "velocity": 38,
              "position": 6.583333333333333,
              "duration": 0.4479166666666667
            },
            {
              "pitch": 56,
              "velocity": 60,
              "position": 7.010416666666667,
              "duration": 0.6041666666666666
            },
            {
              "pitch": 55,
              "velocity": 102,
              "position": 7.583333333333333,
              "duration": 0.4479166666666667
            },
            {
              "pitch": 54,
              "velocity": 57,
              "position": 8.010416666666666,
              "duration": 0.6041666666666666
            },
            {
              "pitch": 57,
              "velocity": 25,
              "position": 8.59375,
              "duration": 0.4270833333333333
            },
            {
              "pitch": 60,
              "velocity": 52,
              "position": 8.989583333333334,
              "duration": 0.6145833333333334
            },
            {
              "pitch": 56,
              "velocity": 101,
              "position": 9.572916666666666,
              "duration": 0.4479166666666667
            },
            {
              "pitch": 57,
              "velocity": 57,
              "position": 10,
              "duration": 0.6041666666666666
            },
            {
              "pitch": 54,
              "velocity": 96,
              "position": 10.572916666666666,
              "duration": 0.4583333333333333
            },
            {
              "pitch": 56,
              "velocity": 56,
              "position": 11,
              "duration": 0.6041666666666666
            },
            {
              "pitch": 53,
              "velocity": 34,
              "position": 11.572916666666666,
              "duration": 0.4791666666666667
            },
            {
              "pitch": 55,
              "velocity": 97,
              "position": 12.010416666666666,
              "duration": 0.9479166666666666
            }
          ]
        }
      }
    }
  }
}